<?xml version="1.0" encoding="UTF-8" standalone="no"?>
<!DOCTYPE svg PUBLIC "-//W3C//DTD SVG 1.1//EN"
 "http://www.w3.org/Graphics/SVG/1.1/DTD/svg11.dtd">
<!-- Generated by graphviz version 15.0.0 (20260523.1842)
 -->
<!-- Title: candes_tao_recovery Pages: 1 -->
<svg width="1030pt" height="554pt"
 viewBox="0.00 0.00 1030.00 554.00" xmlns="http://www.w3.org/2000/svg" xmlns:xlink="http://www.w3.org/1999/xlink">
<g id="graph0" class="graph" transform="scale(1 1) rotate(0) translate(4 550)">
<title>candes_tao_recovery</title>
<polygon fill="white" stroke="none" points="-4,4 -4,-550 1026,-550 1026,4 -4,4"/>
<text xml:space="preserve" text-anchor="middle" x="511" y="-529.4" font-family="Helvetica,sans-Serif" font-size="14.00">Proof narrative — candes_tao_recovery &#160;(24 decls)</text>
<g id="clust1" class="cluster">
<title>cluster_0</title>
<path fill="none" stroke="#cbd5e1" stroke-dasharray="5,2" d="M20,-8C20,-8 1002,-8 1002,-8 1008,-8 1014,-14 1014,-20 1014,-20 1014,-501.2 1014,-501.2 1014,-507.2 1008,-513.2 1002,-513.2 1002,-513.2 20,-513.2 20,-513.2 14,-513.2 8,-507.2 8,-501.2 8,-501.2 8,-20 8,-20 8,-14 14,-8 20,-8"/>
<text xml:space="preserve" text-anchor="middle" x="511" y="-499.3" font-family="Helvetica,sans-Serif" font-size="11.00">CompressedSensing</text>
</g>
<!-- n0 -->
<g id="node1" class="node">
<title>n0</title>
<g id="a_node1"><a xlink:href="vscode://vscode-remote/wsl+Ubuntu/home/gavin/statlib/Statlib/CompressedSensing/l1RecoveryThreshold.lean:10" xlink:title="noncomputable def · Statlib/CompressedSensing/l1RecoveryThreshold.lean:10" target="_blank">
<path fill="#d6e9ff" stroke="#3b82f6" d="M238.24,-268C238.24,-268 151.76,-268 151.76,-268 145.76,-268 139.76,-262 139.76,-256 139.76,-256 139.76,-244 139.76,-244 139.76,-238 145.76,-232 151.76,-232 151.76,-232 238.24,-232 238.24,-232 244.24,-232 250.24,-238 250.24,-244 250.24,-244 250.24,-256 250.24,-256 250.24,-262 244.24,-268 238.24,-268"/>
<text xml:space="preserve" text-anchor="middle" x="195" y="-247" font-family="Helvetica,sans-Serif" font-size="10.00">l1RecoveryThreshold</text>
</a>
</g>
</g>
<!-- n1 -->
<g id="node2" class="node">
<title>n1</title>
<g id="a_node2"><a xlink:href="vscode://vscode-remote/wsl+Ubuntu/home/gavin/statlib/Statlib/CompressedSensing/IsSSparse.lean:11" xlink:title="def · Statlib/CompressedSensing/IsSSparse.lean:11" target="_blank">
<path fill="#d6e9ff" stroke="#3b82f6" d="M431.07,-52C431.07,-52 392.93,-52 392.93,-52 386.93,-52 380.93,-46 380.93,-40 380.93,-40 380.93,-28 380.93,-28 380.93,-22 386.93,-16 392.93,-16 392.93,-16 431.07,-16 431.07,-16 437.07,-16 443.07,-22 443.07,-28 443.07,-28 443.07,-40 443.07,-40 443.07,-46 437.07,-52 431.07,-52"/>
<text xml:space="preserve" text-anchor="middle" x="412" y="-31" font-family="Helvetica,sans-Serif" font-size="10.00">IsSSparse</text>
</a>
</g>
</g>
<!-- n2 -->
<g id="node3" class="node">
<title>n2</title>
<g id="a_node3"><a xlink:href="vscode://vscode-remote/wsl+Ubuntu/home/gavin/statlib/Statlib/CompressedSensing/IsRIP.lean:13" xlink:title="def · Statlib/CompressedSensing/IsRIP.lean:13" target="_blank">
<path fill="#d6e9ff" stroke="#3b82f6" d="M58,-124C58,-124 28,-124 28,-124 22,-124 16,-118 16,-112 16,-112 16,-100 16,-100 16,-94 22,-88 28,-88 28,-88 58,-88 58,-88 64,-88 70,-94 70,-100 70,-100 70,-112 70,-112 70,-118 64,-124 58,-124"/>
<text xml:space="preserve" text-anchor="middle" x="43" y="-103" font-family="Helvetica,sans-Serif" font-size="10.00">IsRIP</text>
</a>
</g>
</g>
<!-- n2&#45;&gt;n1 -->
<g id="edge1" class="edge">
<title>n2&#45;&gt;n1</title>
<path fill="none" stroke="#64748b" d="M70.48,-92.58C74.94,-90.87 79.55,-89.26 84,-88 185.75,-59.11 310.03,-44.41 372.35,-38.4"/>
<polygon fill="#64748b" stroke="#64748b" points="372.48,-40.85 379.22,-37.75 372.02,-35.97 372.48,-40.85"/>
</g>
<!-- n3 -->
<g id="node4" class="node">
<title>n3</title>
<g id="a_node4"><a xlink:href="vscode://vscode-remote/wsl+Ubuntu/home/gavin/statlib/Statlib/CompressedSensing/cone_constraint.lean:15" xlink:title="theorem · Statlib/CompressedSensing/cone_constraint.lean:15" target="_blank">
<path fill="#ffe6a3" stroke="#d4a017" d="M420.3,-412C420.3,-412 357.7,-412 357.7,-412 351.7,-412 345.7,-406 345.7,-400 345.7,-400 345.7,-388 345.7,-388 345.7,-382 351.7,-376 357.7,-376 357.7,-376 420.3,-376 420.3,-376 426.3,-376 432.3,-382 432.3,-388 432.3,-388 432.3,-400 432.3,-400 432.3,-406 426.3,-412 420.3,-412"/>
<text xml:space="preserve" text-anchor="middle" x="389" y="-391" font-family="Helvetica,sans-Serif" font-size="10.00">cone_constraint</text>
</a>
</g>
</g>
<!-- n4 -->
<g id="node5" class="node">
<title>n4</title>
<g id="a_node5"><a xlink:href="vscode://vscode-remote/wsl+Ubuntu/home/gavin/statlib/Statlib/CompressedSensing/sqrt_two_lt_two.lean:12" xlink:title="theorem · Statlib/CompressedSensing/sqrt_two_lt_two.lean:12" target="_blank">
<path fill="#ffe6a3" stroke="#d4a017" d="M109.74,-268C109.74,-268 48.26,-268 48.26,-268 42.26,-268 36.26,-262 36.26,-256 36.26,-256 36.26,-244 36.26,-244 36.26,-238 42.26,-232 48.26,-232 48.26,-232 109.74,-232 109.74,-232 115.74,-232 121.74,-238 121.74,-244 121.74,-244 121.74,-256 121.74,-256 121.74,-262 115.74,-268 109.74,-268"/>
<text xml:space="preserve" text-anchor="middle" x="79" y="-247" font-family="Helvetica,sans-Serif" font-size="10.00">sqrt_two_lt_two</text>
</a>
</g>
</g>
<!-- n5 -->
<g id="node6" class="node">
<title>n5</title>
<g id="a_node6"><a xlink:href="vscode://vscode-remote/wsl+Ubuntu/home/gavin/statlib/Statlib/CompressedSensing/l1RecoveryThreshold_lt_one.lean:14" xlink:title="theorem · Statlib/CompressedSensing/l1RecoveryThreshold_lt_one.lean:14" target="_blank">
<path fill="#ffe6a3" stroke="#d4a017" d="M217.65,-340C217.65,-340 98.35,-340 98.35,-340 92.35,-340 86.35,-334 86.35,-328 86.35,-328 86.35,-316 86.35,-316 86.35,-310 92.35,-304 98.35,-304 98.35,-304 217.65,-304 217.65,-304 223.65,-304 229.65,-310 229.65,-316 229.65,-316 229.65,-328 229.65,-328 229.65,-334 223.65,-340 217.65,-340"/>
<text xml:space="preserve" text-anchor="middle" x="158" y="-319" font-family="Helvetica,sans-Serif" font-size="10.00">l1RecoveryThreshold_lt_one</text>
</a>
</g>
</g>
<!-- n5&#45;&gt;n0 -->
<g id="edge2" class="edge">
<title>n5&#45;&gt;n0</title>
<path fill="none" stroke="#64748b" d="M167.15,-303.7C171.63,-295.22 177.1,-284.86 182.01,-275.58"/>
<polygon fill="#64748b" stroke="#64748b" points="184.15,-276.78 185.25,-269.44 179.81,-274.49 184.15,-276.78"/>
</g>
<!-- n5&#45;&gt;n4 -->
<g id="edge3" class="edge">
<title>n5&#45;&gt;n4</title>
<path fill="none" stroke="#64748b" d="M138.47,-303.7C128.31,-294.69 115.76,-283.57 104.81,-273.87"/>
<polygon fill="#64748b" stroke="#64748b" points="106.57,-272.16 99.71,-269.35 103.32,-275.83 106.57,-272.16"/>
</g>
<!-- n6 -->
<g id="node7" class="node">
<title>n6</title>
<g id="a_node7"><a xlink:href="vscode://vscode-remote/wsl+Ubuntu/home/gavin/statlib/Statlib/CompressedSensing/exists_top_k_by_abs.lean:17" xlink:title="theorem · Statlib/CompressedSensing/exists_top_k_by_abs.lean:17" target="_blank">
<path fill="#ffe6a3" stroke="#d4a017" d="M666.7,-124C666.7,-124 581.3,-124 581.3,-124 575.3,-124 569.3,-118 569.3,-112 569.3,-112 569.3,-100 569.3,-100 569.3,-94 575.3,-88 581.3,-88 581.3,-88 666.7,-88 666.7,-88 672.7,-88 678.7,-94 678.7,-100 678.7,-100 678.7,-112 678.7,-112 678.7,-118 672.7,-124 666.7,-124"/>
<text xml:space="preserve" text-anchor="middle" x="624" y="-103" font-family="Helvetica,sans-Serif" font-size="10.00">exists_top_k_by_abs</text>
</a>
</g>
</g>
<!-- n7 -->
<g id="node8" class="node">
<title>n7</title>
<g id="a_node8"><a xlink:href="vscode://vscode-remote/wsl+Ubuntu/home/gavin/statlib/Statlib/CompressedSensing/restrictTo.lean:15" xlink:title="def · Statlib/CompressedSensing/restrictTo.lean:15" target="_blank">
<path fill="#d6e9ff" stroke="#3b82f6" d="M893.83,-124C893.83,-124 860.17,-124 860.17,-124 854.17,-124 848.17,-118 848.17,-112 848.17,-112 848.17,-100 848.17,-100 848.17,-94 854.17,-88 860.17,-88 860.17,-88 893.83,-88 893.83,-88 899.83,-88 905.83,-94 905.83,-100 905.83,-100 905.83,-112 905.83,-112 905.83,-118 899.83,-124 893.83,-124"/>
<text xml:space="preserve" text-anchor="middle" x="877" y="-103" font-family="Helvetica,sans-Serif" font-size="10.00">restrictTo</text>
</a>
</g>
</g>
<!-- n8 -->
<g id="node9" class="node">
<title>n8</title>
<g id="a_node9"><a xlink:href="vscode://vscode-remote/wsl+Ubuntu/home/gavin/statlib/Statlib/CompressedSensing/restrictTo_isSSparse.lean:15" xlink:title="theorem · Statlib/CompressedSensing/restrictTo_isSSparse.lean:15" target="_blank">
<path fill="#ffe6a3" stroke="#d4a017" d="M797.4,-196C797.4,-196 712.6,-196 712.6,-196 706.6,-196 700.6,-190 700.6,-184 700.6,-184 700.6,-172 700.6,-172 700.6,-166 706.6,-160 712.6,-160 712.6,-160 797.4,-160 797.4,-160 803.4,-160 809.4,-166 809.4,-172 809.4,-172 809.4,-184 809.4,-184 809.4,-190 803.4,-196 797.4,-196"/>
<text xml:space="preserve" text-anchor="middle" x="755" y="-175" font-family="Helvetica,sans-Serif" font-size="10.00">restrictTo_isSSparse</text>
</a>
</g>
</g>
<!-- n8&#45;&gt;n1 -->
<g id="edge4" class="edge">
<title>n8&#45;&gt;n1</title>
<path fill="none" stroke="#64748b" d="M746.84,-159.51C736.29,-138.94 715.9,-105.4 688,-88 648.99,-63.67 517.86,-46.44 451.37,-39.04"/>
<polygon fill="#64748b" stroke="#64748b" points="451.94,-36.64 444.71,-38.31 451.4,-41.51 451.94,-36.64"/>
</g>
<!-- n8&#45;&gt;n7 -->
<g id="edge5" class="edge">
<title>n8&#45;&gt;n7</title>
<path fill="none" stroke="#64748b" d="M785.47,-159.52C802.14,-149.95 822.92,-138.03 840.46,-127.97"/>
<polygon fill="#64748b" stroke="#64748b" points="841.59,-130.14 846.44,-124.53 839.15,-125.89 841.59,-130.14"/>
</g>
<!-- n9 -->
<g id="node10" class="node">
<title>n9</title>
<g id="a_node10"><a xlink:href="vscode://vscode-remote/wsl+Ubuntu/home/gavin/statlib/Statlib/CompressedSensing/restrictTo_add_compl.lean:13" xlink:title="theorem · Statlib/CompressedSensing/restrictTo_add_compl.lean:13" target="_blank">
<path fill="#ffe6a3" stroke="#d4a017" d="M954.08,-268C954.08,-268 865.92,-268 865.92,-268 859.92,-268 853.92,-262 853.92,-256 853.92,-256 853.92,-244 853.92,-244 853.92,-238 859.92,-232 865.92,-232 865.92,-232 954.08,-232 954.08,-232 960.08,-232 966.08,-238 966.08,-244 966.08,-244 966.08,-256 966.08,-256 966.08,-262 960.08,-268 954.08,-268"/>
<text xml:space="preserve" text-anchor="middle" x="910" y="-247" font-family="Helvetica,sans-Serif" font-size="10.00">restrictTo_add_compl</text>
</a>
</g>
</g>
<!-- n9&#45;&gt;n7 -->
<g id="edge6" class="edge">
<title>n9&#45;&gt;n7</title>
<path fill="none" stroke="#64748b" d="M927.26,-231.7C943.13,-213.6 962.46,-184.45 950,-160 942.19,-144.67 927.64,-132.74 913.57,-124.11"/>
<polygon fill="#64748b" stroke="#64748b" points="914.89,-122.05 907.61,-120.66 912.44,-126.29 914.89,-122.05"/>
</g>
<!-- n10 -->
<g id="node11" class="node">
<title>n10</title>
<g id="a_node11"><a xlink:href="vscode://vscode-remote/wsl+Ubuntu/home/gavin/statlib/Statlib/CompressedSensing/restrictTo_sum_sq.lean:13" xlink:title="theorem · Statlib/CompressedSensing/restrictTo_sum_sq.lean:13" target="_blank">
<path fill="#ffe6a3" stroke="#d4a017" d="M914.12,-196C914.12,-196 839.88,-196 839.88,-196 833.88,-196 827.88,-190 827.88,-184 827.88,-184 827.88,-172 827.88,-172 827.88,-166 833.88,-160 839.88,-160 839.88,-160 914.12,-160 914.12,-160 920.12,-160 926.12,-166 926.12,-172 926.12,-172 926.12,-184 926.12,-184 926.12,-190 920.12,-196 914.12,-196"/>
<text xml:space="preserve" text-anchor="middle" x="877" y="-175" font-family="Helvetica,sans-Serif" font-size="10.00">restrictTo_sum_sq</text>
</a>
</g>
</g>
<!-- n10&#45;&gt;n7 -->
<g id="edge7" class="edge">
<title>n10&#45;&gt;n7</title>
<path fill="none" stroke="#64748b" d="M877,-159.7C877,-151.47 877,-141.48 877,-132.42"/>
<polygon fill="#64748b" stroke="#64748b" points="879.45,-132.62 877,-125.62 874.55,-132.62 879.45,-132.62"/>
</g>
<!-- n11 -->
<g id="node12" class="node">
<title>n11</title>
<g id="a_node12"><a xlink:href="vscode://vscode-remote/wsl+Ubuntu/home/gavin/statlib/Statlib/CompressedSensing/sparse_tail_bound.lean:15" xlink:title="theorem · Statlib/CompressedSensing/sparse_tail_bound.lean:15" target="_blank">
<path fill="#ffe6a3" stroke="#d4a017" d="M472.86,-268C472.86,-268 399.14,-268 399.14,-268 393.14,-268 387.14,-262 387.14,-256 387.14,-256 387.14,-244 387.14,-244 387.14,-238 393.14,-232 399.14,-232 399.14,-232 472.86,-232 472.86,-232 478.86,-232 484.86,-238 484.86,-244 484.86,-244 484.86,-256 484.86,-256 484.86,-262 478.86,-268 472.86,-268"/>
<text xml:space="preserve" text-anchor="middle" x="436" y="-247" font-family="Helvetica,sans-Serif" font-size="10.00">sparse_tail_bound</text>
</a>
</g>
</g>
<!-- n12 -->
<g id="node13" class="node">
<title>n12</title>
<g id="a_node13"><a xlink:href="vscode://vscode-remote/wsl+Ubuntu/home/gavin/statlib/Statlib/CompressedSensing/exists_block_partition.lean:55" xlink:title="theorem · Statlib/CompressedSensing/exists_block_partition.lean:55" target="_blank">
<path fill="#ffe6a3" stroke="#d4a017" d="M630.8,-196C630.8,-196 543.2,-196 543.2,-196 537.2,-196 531.2,-190 531.2,-184 531.2,-184 531.2,-172 531.2,-172 531.2,-166 537.2,-160 543.2,-160 543.2,-160 630.8,-160 630.8,-160 636.8,-160 642.8,-166 642.8,-172 642.8,-172 642.8,-184 642.8,-184 642.8,-190 636.8,-196 630.8,-196"/>
<text xml:space="preserve" text-anchor="middle" x="587" y="-175" font-family="Helvetica,sans-Serif" font-size="10.00">exists_block_partition</text>
</a>
</g>
</g>
<!-- n12&#45;&gt;n6 -->
<g id="edge8" class="edge">
<title>n12&#45;&gt;n6</title>
<path fill="none" stroke="#64748b" d="M596.15,-159.7C600.63,-151.22 606.1,-140.86 611.01,-131.58"/>
<polygon fill="#64748b" stroke="#64748b" points="613.15,-132.78 614.25,-125.44 608.81,-130.49 613.15,-132.78"/>
</g>
<!-- n13 -->
<g id="node14" class="node">
<title>n13</title>
<g id="a_node14"><a xlink:href="vscode://vscode-remote/wsl+Ubuntu/home/gavin/statlib/Statlib/CompressedSensing/IsSSparse_smul.lean:14" xlink:title="theorem · Statlib/CompressedSensing/IsSSparse_smul.lean:14" target="_blank">
<path fill="#ffe6a3" stroke="#d4a017" d="M474.01,-124C474.01,-124 411.99,-124 411.99,-124 405.99,-124 399.99,-118 399.99,-112 399.99,-112 399.99,-100 399.99,-100 399.99,-94 405.99,-88 411.99,-88 411.99,-88 474.01,-88 474.01,-88 480.01,-88 486.01,-94 486.01,-100 486.01,-100 486.01,-112 486.01,-112 486.01,-118 480.01,-124 474.01,-124"/>
<text xml:space="preserve" text-anchor="middle" x="443" y="-103" font-family="Helvetica,sans-Serif" font-size="10.00">IsSSparse.smul</text>
</a>
</g>
</g>
<!-- n13&#45;&gt;n1 -->
<g id="edge9" class="edge">
<title>n13&#45;&gt;n1</title>
<path fill="none" stroke="#64748b" d="M435.34,-87.7C431.62,-79.3 427.09,-69.07 423.01,-59.86"/>
<polygon fill="#64748b" stroke="#64748b" points="425.26,-58.9 420.19,-53.49 420.78,-60.88 425.26,-58.9"/>
</g>
<!-- n14 -->
<g id="node15" class="node">
<title>n14</title>
<g id="a_node15"><a xlink:href="vscode://vscode-remote/wsl+Ubuntu/home/gavin/statlib/Statlib/CompressedSensing/IsSSparse_add_disjoint.lean:15" xlink:title="theorem · Statlib/CompressedSensing/IsSSparse_add_disjoint.lean:15" target="_blank">
<path fill="#ffe6a3" stroke="#d4a017" d="M214.14,-124C214.14,-124 119.86,-124 119.86,-124 113.86,-124 107.86,-118 107.86,-112 107.86,-112 107.86,-100 107.86,-100 107.86,-94 113.86,-88 119.86,-88 119.86,-88 214.14,-88 214.14,-88 220.14,-88 226.14,-94 226.14,-100 226.14,-100 226.14,-112 226.14,-112 226.14,-118 220.14,-124 214.14,-124"/>
<text xml:space="preserve" text-anchor="middle" x="167" y="-103" font-family="Helvetica,sans-Serif" font-size="10.00">IsSSparse.add_disjoint</text>
</a>
</g>
</g>
<!-- n14&#45;&gt;n1 -->
<g id="edge10" class="edge">
<title>n14&#45;&gt;n1</title>
<path fill="none" stroke="#64748b" d="M226.62,-87.97C271.98,-75.01 333.11,-57.54 372.55,-46.27"/>
<polygon fill="#64748b" stroke="#64748b" points="373.11,-48.66 379.17,-44.38 371.76,-43.95 373.11,-48.66"/>
</g>
<!-- n15 -->
<g id="node16" class="node">
<title>n15</title>
<g id="a_node16"><a xlink:href="vscode://vscode-remote/wsl+Ubuntu/home/gavin/statlib/Statlib/CompressedSensing/IsSSparse_sub_disjoint.lean:14" xlink:title="theorem · Statlib/CompressedSensing/IsSSparse_sub_disjoint.lean:14" target="_blank">
<path fill="#ffe6a3" stroke="#d4a017" d="M349.86,-124C349.86,-124 256.14,-124 256.14,-124 250.14,-124 244.14,-118 244.14,-112 244.14,-112 244.14,-100 244.14,-100 244.14,-94 250.14,-88 256.14,-88 256.14,-88 349.86,-88 349.86,-88 355.86,-88 361.86,-94 361.86,-100 361.86,-100 361.86,-112 361.86,-112 361.86,-118 355.86,-124 349.86,-124"/>
<text xml:space="preserve" text-anchor="middle" x="303" y="-103" font-family="Helvetica,sans-Serif" font-size="10.00">IsSSparse.sub_disjoint</text>
</a>
</g>
</g>
<!-- n15&#45;&gt;n1 -->
<g id="edge11" class="edge">
<title>n15&#45;&gt;n1</title>
<path fill="none" stroke="#64748b" d="M330.22,-87.52C344.77,-78.18 362.81,-66.59 378.24,-56.68"/>
<polygon fill="#64748b" stroke="#64748b" points="379.28,-58.92 383.85,-53.08 376.64,-54.8 379.28,-58.92"/>
</g>
<!-- n16 -->
<g id="node17" class="node">
<title>n16</title>
<g id="a_node17"><a xlink:href="vscode://vscode-remote/wsl+Ubuntu/home/gavin/statlib/Statlib/CompressedSensing/rip_restricted_orthogonality.lean:20" xlink:title="theorem · Statlib/CompressedSensing/rip_restricted_orthogonality.lean:20" target="_blank">
<path fill="#ffe6a3" stroke="#d4a017" d="M240.31,-196C240.31,-196 127.69,-196 127.69,-196 121.69,-196 115.69,-190 115.69,-184 115.69,-184 115.69,-172 115.69,-172 115.69,-166 121.69,-160 127.69,-160 127.69,-160 240.31,-160 240.31,-160 246.31,-160 252.31,-166 252.31,-172 252.31,-172 252.31,-184 252.31,-184 252.31,-190 246.31,-196 240.31,-196"/>
<text xml:space="preserve" text-anchor="middle" x="184" y="-175" font-family="Helvetica,sans-Serif" font-size="10.00">rip_restricted_orthogonality</text>
</a>
</g>
</g>
<!-- n16&#45;&gt;n1 -->
<g id="edge13" class="edge">
<title>n16&#45;&gt;n1</title>
<path fill="none" stroke="#64748b" d="M252.72,-160.49C302.13,-148.12 361.64,-132.01 371,-124 376.28,-119.48 391.51,-84.51 401.85,-59.77"/>
<polygon fill="#64748b" stroke="#64748b" points="404.01,-60.95 404.43,-53.55 399.48,-59.07 404.01,-60.95"/>
</g>
<!-- n16&#45;&gt;n2 -->
<g id="edge12" class="edge">
<title>n16&#45;&gt;n2</title>
<path fill="none" stroke="#64748b" d="M148.78,-159.52C127.04,-148.72 99.26,-134.93 77.63,-124.19"/>
<polygon fill="#64748b" stroke="#64748b" points="78.97,-122.12 71.61,-121.2 76.79,-126.51 78.97,-122.12"/>
</g>
<!-- n16&#45;&gt;n13 -->
<g id="edge14" class="edge">
<title>n16&#45;&gt;n13</title>
<path fill="none" stroke="#64748b" d="M252.41,-159.65C291.6,-149.57 341.66,-136.42 386,-124 387.96,-123.45 389.95,-122.89 391.96,-122.31"/>
<polygon fill="#64748b" stroke="#64748b" points="392.28,-124.77 398.33,-120.47 390.92,-120.06 392.28,-124.77"/>
</g>
<!-- n16&#45;&gt;n14 -->
<g id="edge15" class="edge">
<title>n16&#45;&gt;n14</title>
<path fill="none" stroke="#64748b" d="M179.8,-159.7C177.78,-151.39 175.32,-141.28 173.11,-132.14"/>
<polygon fill="#64748b" stroke="#64748b" points="175.54,-131.8 171.51,-125.58 170.78,-132.96 175.54,-131.8"/>
</g>
<!-- n16&#45;&gt;n15 -->
<g id="edge16" class="edge">
<title>n16&#45;&gt;n15</title>
<path fill="none" stroke="#64748b" d="M213.72,-159.52C229.74,-150.09 249.65,-138.38 266.6,-128.41"/>
<polygon fill="#64748b" stroke="#64748b" points="267.56,-130.69 272.35,-125.03 265.08,-126.47 267.56,-130.69"/>
</g>
<!-- n17 -->
<g id="node18" class="node">
<title>n17</title>
<g id="a_node18"><a xlink:href="vscode://vscode-remote/wsl+Ubuntu/home/gavin/statlib/Statlib/CompressedSensing/mulVec_finset_sum.lean:14" xlink:title="theorem · Statlib/CompressedSensing/mulVec_finset_sum.lean:14" target="_blank">
<path fill="#ffe6a3" stroke="#d4a017" d="M501.63,-196C501.63,-196 422.37,-196 422.37,-196 416.37,-196 410.37,-190 410.37,-184 410.37,-184 410.37,-172 410.37,-172 410.37,-166 416.37,-160 422.37,-160 422.37,-160 501.63,-160 501.63,-160 507.63,-160 513.63,-166 513.63,-172 513.63,-172 513.63,-184 513.63,-184 513.63,-190 507.63,-196 501.63,-196"/>
<text xml:space="preserve" text-anchor="middle" x="462" y="-175" font-family="Helvetica,sans-Serif" font-size="10.00">mulVec_finset_sum</text>
</a>
</g>
</g>
<!-- n18 -->
<g id="node19" class="node">
<title>n18</title>
<g id="a_node19"><a xlink:href="vscode://vscode-remote/wsl+Ubuntu/home/gavin/statlib/Statlib/CompressedSensing/block_l2_telescope.lean:40" xlink:title="theorem · Statlib/CompressedSensing/block_l2_telescope.lean:40" target="_blank">
<path fill="#ffe6a3" stroke="#d4a017" d="M359.53,-196C359.53,-196 282.47,-196 282.47,-196 276.47,-196 270.47,-190 270.47,-184 270.47,-184 270.47,-172 270.47,-172 270.47,-166 276.47,-160 282.47,-160 282.47,-160 359.53,-160 359.53,-160 365.53,-160 371.53,-166 371.53,-172 371.53,-172 371.53,-184 371.53,-184 371.53,-190 365.53,-196 359.53,-196"/>
<text xml:space="preserve" text-anchor="middle" x="321" y="-175" font-family="Helvetica,sans-Serif" font-size="10.00">block_l2_telescope</text>
</a>
</g>
</g>
<!-- n19 -->
<g id="node20" class="node">
<title>n19</title>
<g id="a_node20"><a xlink:href="vscode://vscode-remote/wsl+Ubuntu/home/gavin/statlib/Statlib/CompressedSensing/block_inner_product_bound.lean:67" xlink:title="theorem · Statlib/CompressedSensing/block_inner_product_bound.lean:67" target="_blank">
<path fill="#ffe6a3" stroke="#d4a017" d="M630.71,-268C630.71,-268 515.29,-268 515.29,-268 509.29,-268 503.29,-262 503.29,-256 503.29,-256 503.29,-244 503.29,-244 503.29,-238 509.29,-232 515.29,-232 515.29,-232 630.71,-232 630.71,-232 636.71,-232 642.71,-238 642.71,-244 642.71,-244 642.71,-256 642.71,-256 642.71,-262 636.71,-268 630.71,-268"/>
<text xml:space="preserve" text-anchor="middle" x="573" y="-247" font-family="Helvetica,sans-Serif" font-size="10.00">block_inner_product_bound</text>
</a>
</g>
</g>
<!-- n19&#45;&gt;n1 -->
<g id="edge19" class="edge">
<title>n19&#45;&gt;n1</title>
<path fill="none" stroke="#64748b" d="M503.06,-231.64C458.33,-219.82 407.5,-204.8 401,-196 348.85,-125.36 489.46,-132.06 495,-124 504.07,-110.82 502.69,-102.03 495,-88 485.52,-70.71 467.74,-58.24 451.06,-49.76"/>
<polygon fill="#64748b" stroke="#64748b" points="452.24,-47.61 444.87,-46.79 450.12,-52.03 452.24,-47.61"/>
</g>
<!-- n19&#45;&gt;n2 -->
<g id="edge17" class="edge">
<title>n19&#45;&gt;n2</title>
<path fill="none" stroke="#64748b" d="M502.87,-233.45C499.88,-232.94 496.91,-232.45 494,-232 408.63,-218.89 181.95,-238.92 107,-196 81.81,-181.58 63.92,-152.75 53.57,-131.8"/>
<polygon fill="#64748b" stroke="#64748b" points="55.83,-130.85 50.62,-125.57 51.4,-132.95 55.83,-130.85"/>
</g>
<!-- n19&#45;&gt;n7 -->
<g id="edge18" class="edge">
<title>n19&#45;&gt;n7</title>
<path fill="none" stroke="#64748b" d="M601.09,-231.54C616.5,-221.62 635.71,-208.69 652,-196 670.87,-181.3 671.08,-171.59 692,-160 739.47,-133.7 801.19,-119.44 839.96,-112.52"/>
<polygon fill="#64748b" stroke="#64748b" points="839.9,-115.02 846.38,-111.42 839.06,-110.19 839.9,-115.02"/>
</g>
<!-- n19&#45;&gt;n8 -->
<g id="edge20" class="edge">
<title>n19&#45;&gt;n8</title>
<path fill="none" stroke="#64748b" d="M618.46,-231.52C643.85,-221.75 675.62,-209.53 702.12,-199.34"/>
<polygon fill="#64748b" stroke="#64748b" points="702.74,-201.72 708.39,-196.93 700.98,-197.15 702.74,-201.72"/>
</g>
<!-- n19&#45;&gt;n10 -->
<g id="edge24" class="edge">
<title>n19&#45;&gt;n10</title>
<path fill="none" stroke="#64748b" d="M642.99,-235.17C692.15,-225.13 759.34,-210.78 818,-196 818.48,-195.88 818.97,-195.75 819.46,-195.63"/>
<polygon fill="#64748b" stroke="#64748b" points="819.88,-198.05 826.03,-193.91 818.63,-193.31 819.88,-198.05"/>
</g>
<!-- n19&#45;&gt;n12 -->
<g id="edge21" class="edge">
<title>n19&#45;&gt;n12</title>
<path fill="none" stroke="#64748b" d="M576.46,-231.7C578.11,-223.47 580.1,-213.48 581.92,-204.42"/>
<polygon fill="#64748b" stroke="#64748b" points="584.31,-204.93 583.28,-197.59 579.51,-203.97 584.31,-204.93"/>
</g>
<!-- n19&#45;&gt;n16 -->
<g id="edge22" class="edge">
<title>n19&#45;&gt;n16</title>
<path fill="none" stroke="#64748b" d="M502.83,-233.68C499.85,-233.1 496.9,-232.54 494,-232 393.57,-213.45 365.41,-215.2 261.11,-195.97"/>
<polygon fill="#64748b" stroke="#64748b" points="261.62,-193.57 254.29,-194.7 260.72,-198.39 261.62,-193.57"/>
</g>
<!-- n19&#45;&gt;n17 -->
<g id="edge23" class="edge">
<title>n19&#45;&gt;n17</title>
<path fill="none" stroke="#64748b" d="M545.28,-231.52C530.46,-222.18 512.1,-210.59 496.38,-200.68"/>
<polygon fill="#64748b" stroke="#64748b" points="497.88,-198.73 490.65,-197.07 495.26,-202.87 497.88,-198.73"/>
</g>
<!-- n19&#45;&gt;n18 -->
<g id="edge25" class="edge">
<title>n19&#45;&gt;n18</title>
<path fill="none" stroke="#64748b" d="M510.06,-231.52C470.18,-220.44 418.95,-206.21 379.88,-195.36"/>
<polygon fill="#64748b" stroke="#64748b" points="380.59,-193.01 373.19,-193.5 379.28,-197.73 380.59,-193.01"/>
</g>
<!-- n20 -->
<g id="node21" class="node">
<title>n20</title>
<g id="a_node21"><a xlink:href="vscode://vscode-remote/wsl+Ubuntu/home/gavin/statlib/Statlib/CompressedSensing/one_lt_sqrt_two.lean:12" xlink:title="theorem · Statlib/CompressedSensing/one_lt_sqrt_two.lean:12" target="_blank">
<path fill="#ffe6a3" stroke="#d4a017" d="M775.3,-268C775.3,-268 712.7,-268 712.7,-268 706.7,-268 700.7,-262 700.7,-256 700.7,-256 700.7,-244 700.7,-244 700.7,-238 706.7,-232 712.7,-232 712.7,-232 775.3,-232 775.3,-232 781.3,-232 787.3,-238 787.3,-244 787.3,-244 787.3,-256 787.3,-256 787.3,-262 781.3,-268 775.3,-268"/>
<text xml:space="preserve" text-anchor="middle" x="744" y="-247" font-family="Helvetica,sans-Serif" font-size="10.00">one_lt_sqrt_two</text>
</a>
</g>
</g>
<!-- n21 -->
<g id="node22" class="node">
<title>n21</title>
<g id="a_node22"><a xlink:href="vscode://vscode-remote/wsl+Ubuntu/home/gavin/statlib/Statlib/CompressedSensing/candes_2008_kernel_contraction.lean:39" xlink:title="theorem · Statlib/CompressedSensing/candes_2008_kernel_contraction.lean:39" target="_blank">
<path fill="#ffe6a3" stroke="#d4a017" d="M686.66,-340C686.66,-340 547.34,-340 547.34,-340 541.34,-340 535.34,-334 535.34,-328 535.34,-328 535.34,-316 535.34,-316 535.34,-310 541.34,-304 547.34,-304 547.34,-304 686.66,-304 686.66,-304 692.66,-304 698.66,-310 698.66,-316 698.66,-316 698.66,-328 698.66,-328 698.66,-334 692.66,-340 686.66,-340"/>
<text xml:space="preserve" text-anchor="middle" x="617" y="-319" font-family="Helvetica,sans-Serif" font-size="10.00">candes_2008_kernel_contraction</text>
</a>
</g>
</g>
<!-- n21&#45;&gt;n0 -->
<g id="edge26" class="edge">
<title>n21&#45;&gt;n0</title>
<path fill="none" stroke="#64748b" d="M535.11,-308.69C467.64,-298.37 369.49,-282.96 284,-268 275.78,-266.56 267.15,-264.99 258.62,-263.4"/>
<polygon fill="#64748b" stroke="#64748b" points="259.32,-261.04 251.99,-262.15 258.41,-265.85 259.32,-261.04"/>
</g>
<!-- n21&#45;&gt;n1 -->
<g id="edge30" class="edge">
<title>n21&#45;&gt;n1</title>
<path fill="none" stroke="#64748b" d="M534.96,-306.74C488.37,-297.67 429.28,-284.51 378,-268 339.34,-255.55 332.83,-243.91 294,-232 213.08,-207.19 164.42,-258.18 107,-196 74.35,-160.64 67.94,-124.77 99,-88 133.55,-47.11 295.9,-37.76 372.2,-35.63"/>
<polygon fill="#64748b" stroke="#64748b" points="372.18,-38.08 379.11,-35.45 372.05,-33.18 372.18,-38.08"/>
</g>
<!-- n21&#45;&gt;n2 -->
<g id="edge27" class="edge">
<title>n21&#45;&gt;n2</title>
<path fill="none" stroke="#64748b" d="M535.2,-313.62C455.99,-305.33 342.4,-290.08 304,-268 285.95,-257.62 292.01,-242.46 274,-232 195.14,-186.2 140.79,-255.86 72,-196 53.85,-180.2 46.99,-152.9 44.44,-132.69"/>
<polygon fill="#64748b" stroke="#64748b" points="46.88,-132.46 43.72,-125.75 42,-132.96 46.88,-132.46"/>
</g>
<!-- n21&#45;&gt;n6 -->
<g id="edge28" class="edge">
<title>n21&#45;&gt;n6</title>
<path fill="none" stroke="#64748b" d="M632.18,-303.7C639.73,-293.94 648.07,-281.1 652,-268 665.81,-222.03 663.55,-206.59 652,-160 649.56,-150.16 644.92,-140.13 640.11,-131.48"/>
<polygon fill="#64748b" stroke="#64748b" points="642.31,-130.38 636.65,-125.58 638.08,-132.86 642.31,-130.38"/>
</g>
<!-- n21&#45;&gt;n7 -->
<g id="edge29" class="edge">
<title>n21&#45;&gt;n7</title>
<path fill="none" stroke="#64748b" d="M698.95,-312.04C737.6,-304.79 782.83,-291.68 818,-268 834.59,-256.83 829.13,-244.17 845,-232 879.19,-205.79 910.85,-231.67 935,-196 943.97,-182.75 941.45,-174.64 935,-160 929.81,-148.23 920.57,-137.93 910.97,-129.63"/>
<polygon fill="#64748b" stroke="#64748b" points="912.79,-127.95 905.82,-125.42 909.69,-131.74 912.79,-127.95"/>
</g>
<!-- n21&#45;&gt;n8 -->
<g id="edge31" class="edge">
<title>n21&#45;&gt;n8</title>
<path fill="none" stroke="#64748b" d="M634.35,-303.93C644.3,-293.82 656.8,-280.57 667,-268 679.27,-252.87 678.88,-246.4 692,-232 701.89,-221.15 713.98,-210.48 724.92,-201.59"/>
<polygon fill="#64748b" stroke="#64748b" points="726.42,-203.52 730.36,-197.24 723.37,-199.69 726.42,-203.52"/>
</g>
<!-- n21&#45;&gt;n9 -->
<g id="edge32" class="edge">
<title>n21&#45;&gt;n9</title>
<path fill="none" stroke="#64748b" d="M690.85,-303.54C734.29,-293.25 790.28,-279.95 840,-268 841.78,-267.57 843.58,-267.14 845.4,-266.7"/>
<polygon fill="#64748b" stroke="#64748b" points="845.76,-269.13 851.99,-265.11 844.61,-264.37 845.76,-269.13"/>
</g>
<!-- n21&#45;&gt;n10 -->
<g id="edge33" class="edge">
<title>n21&#45;&gt;n10</title>
<path fill="none" stroke="#64748b" d="M698.92,-306.65C730.87,-298.59 766.76,-286.34 796,-268 799.71,-265.67 833.35,-228.17 856.1,-202.59"/>
<polygon fill="#64748b" stroke="#64748b" points="857.79,-204.37 860.61,-197.51 854.13,-201.11 857.79,-204.37"/>
</g>
<!-- n21&#45;&gt;n11 -->
<g id="edge34" class="edge">
<title>n21&#45;&gt;n11</title>
<path fill="none" stroke="#64748b" d="M571.79,-303.52C546.54,-293.75 514.94,-281.53 488.59,-271.34"/>
<polygon fill="#64748b" stroke="#64748b" points="489.77,-269.17 482.36,-268.93 488,-273.74 489.77,-269.17"/>
</g>
<!-- n21&#45;&gt;n19 -->
<g id="edge35" class="edge">
<title>n21&#45;&gt;n19</title>
<path fill="none" stroke="#64748b" d="M606.12,-303.7C600.74,-295.14 594.16,-284.66 588.28,-275.3"/>
<polygon fill="#64748b" stroke="#64748b" points="590.36,-274.01 584.56,-269.39 586.21,-276.62 590.36,-274.01"/>
</g>
<!-- n21&#45;&gt;n20 -->
<g id="edge36" class="edge">
<title>n21&#45;&gt;n20</title>
<path fill="none" stroke="#64748b" d="M648.72,-303.52C665.97,-294.01 687.44,-282.17 705.63,-272.15"/>
<polygon fill="#64748b" stroke="#64748b" points="706.41,-274.52 711.36,-268.99 704.05,-270.22 706.41,-274.52"/>
</g>
<!-- n22 -->
<g id="node23" class="node">
<title>n22</title>
<g id="a_node23"><a xlink:href="vscode://vscode-remote/wsl+Ubuntu/home/gavin/statlib/Statlib/CompressedSensing/rip_implies_zero_on_kernel.lean:26" xlink:title="theorem · Statlib/CompressedSensing/rip_implies_zero_on_kernel.lean:26" target="_blank">
<path fill="#ffe6a3" stroke="#d4a017" d="M316.15,-412C316.15,-412 201.85,-412 201.85,-412 195.85,-412 189.85,-406 189.85,-400 189.85,-400 189.85,-388 189.85,-388 189.85,-382 195.85,-376 201.85,-376 201.85,-376 316.15,-376 316.15,-376 322.15,-376 328.15,-382 328.15,-388 328.15,-388 328.15,-400 328.15,-400 328.15,-406 322.15,-412 316.15,-412"/>
<text xml:space="preserve" text-anchor="middle" x="259" y="-391" font-family="Helvetica,sans-Serif" font-size="10.00">rip_implies_zero_on_kernel</text>
</a>
</g>
</g>
<!-- n22&#45;&gt;n0 -->
<g id="edge37" class="edge">
<title>n22&#45;&gt;n0</title>
<path fill="none" stroke="#64748b" d="M257.55,-375.81C255.44,-357.28 250.46,-327.31 239,-304 233.79,-293.4 226.04,-283.08 218.5,-274.41"/>
<polygon fill="#64748b" stroke="#64748b" points="220.34,-272.8 213.83,-269.25 216.71,-276.08 220.34,-272.8"/>
</g>
<!-- n22&#45;&gt;n1 -->
<g id="edge39" class="edge">
<title>n22&#45;&gt;n1</title>
<path fill="none" stroke="#64748b" d="M328.24,-377.47C331.2,-376.94 334.12,-376.45 337,-376 481.88,-353.26 985,-397.65 985,-251 985,-251 985,-251 985,-177 985,-126.68 959.05,-112.33 915,-88 835.57,-44.12 556.51,-36.55 451.96,-35.26"/>
<polygon fill="#64748b" stroke="#64748b" points="452.1,-32.81 445.07,-35.18 452.05,-37.71 452.1,-32.81"/>
</g>
<!-- n22&#45;&gt;n2 -->
<g id="edge38" class="edge">
<title>n22&#45;&gt;n2</title>
<path fill="none" stroke="#64748b" d="M261.67,-375.77C266.99,-338.75 276.94,-253.25 259,-232 197.34,-158.98 110.29,-267.61 47,-196 32.01,-179.04 32.85,-152.39 36.32,-132.66"/>
<polygon fill="#64748b" stroke="#64748b" points="38.7,-133.25 37.69,-125.9 33.9,-132.27 38.7,-133.25"/>
</g>
<!-- n22&#45;&gt;n5 -->
<g id="edge40" class="edge">
<title>n22&#45;&gt;n5</title>
<path fill="none" stroke="#64748b" d="M233.77,-375.52C220.42,-366.26 203.88,-354.8 189.67,-344.95"/>
<polygon fill="#64748b" stroke="#64748b" points="191.3,-343.1 184.15,-341.12 188.51,-347.12 191.3,-343.1"/>
</g>
<!-- n22&#45;&gt;n21 -->
<g id="edge41" class="edge">
<title>n22&#45;&gt;n21</title>
<path fill="none" stroke="#64748b" d="M328.3,-377.79C331.24,-377.18 334.15,-376.58 337,-376 400.29,-363.12 471.84,-349.59 526.78,-339.43"/>
<polygon fill="#64748b" stroke="#64748b" points="527.17,-341.84 533.61,-338.16 526.28,-337.03 527.17,-341.84"/>
</g>
<!-- n23 -->
<g id="node24" class="node">
<title>n23</title>
<g id="a_node24"><a xlink:href="vscode://vscode-remote/wsl+Ubuntu/home/gavin/statlib/Statlib/CompressedSensing/candes_tao_recovery.lean:23" xlink:title="theorem · Statlib/CompressedSensing/candes_tao_recovery.lean:23" target="_blank">
<path fill="#ffe6a3" stroke="#d4a017" stroke-width="3" d="M302.81,-484C302.81,-484 215.19,-484 215.19,-484 209.19,-484 203.19,-478 203.19,-472 203.19,-472 203.19,-460 203.19,-460 203.19,-454 209.19,-448 215.19,-448 215.19,-448 302.81,-448 302.81,-448 308.81,-448 314.81,-454 314.81,-460 314.81,-460 314.81,-472 314.81,-472 314.81,-478 308.81,-484 302.81,-484"/>
<text xml:space="preserve" text-anchor="middle" x="259" y="-463" font-family="Helvetica,sans-Serif" font-size="10.00">candes_tao_recovery</text>
</a>
</g>
</g>
<!-- n23&#45;&gt;n0 -->
<g id="edge42" class="edge">
<title>n23&#45;&gt;n0</title>
<path fill="none" stroke="#64748b" d="M209.24,-446.56C165.48,-427.35 104.57,-392.63 77,-340 69.57,-325.83 68.31,-317.43 77,-304 84.08,-293.06 108.97,-281.16 134.08,-271.4"/>
<polygon fill="#64748b" stroke="#64748b" points="134.77,-273.76 140.44,-268.99 133.03,-269.18 134.77,-273.76"/>
</g>
<!-- n23&#45;&gt;n1 -->
<g id="edge44" class="edge">
<title>n23&#45;&gt;n1</title>
<path fill="none" stroke="#64748b" d="M316.3,-460.16C490.98,-444.64 1005,-393.04 1005,-323 1005,-323 1005,-323 1005,-177 1005,-129.54 986.65,-112.49 946,-88 862.86,-37.92 561.32,-34.25 451.96,-34.62"/>
<polygon fill="#64748b" stroke="#64748b" points="452.01,-32.17 445.02,-34.65 452.03,-37.07 452.01,-32.17"/>
</g>
<!-- n23&#45;&gt;n2 -->
<g id="edge43" class="edge">
<title>n23&#45;&gt;n2</title>
<path fill="none" stroke="#64748b" d="M201.96,-457.01C130.41,-443.4 17,-408.37 17,-323 17,-323 17,-323 17,-249 17,-207.66 27.79,-160.65 35.47,-132.43"/>
<polygon fill="#64748b" stroke="#64748b" points="37.81,-133.16 37.33,-125.76 33.09,-131.84 37.81,-133.16"/>
</g>
<!-- n23&#45;&gt;n3 -->
<g id="edge45" class="edge">
<title>n23&#45;&gt;n3</title>
<path fill="none" stroke="#64748b" d="M293.16,-446.61C310.4,-437.32 331.42,-426.01 349.37,-416.34"/>
<polygon fill="#64748b" stroke="#64748b" points="350.53,-418.5 355.53,-413.02 348.2,-414.19 350.53,-418.5"/>
</g>
<!-- n23&#45;&gt;n22 -->
<g id="edge46" class="edge">
<title>n23&#45;&gt;n22</title>
<path fill="none" stroke="#64748b" d="M259,-446.61C259,-438.59 259,-429.05 259,-420.37"/>
<polygon fill="#64748b" stroke="#64748b" points="261.45,-420.58 259,-413.58 256.55,-420.58 261.45,-420.58"/>
</g>
</g>
</svg>
