<?xml version="1.0" encoding="UTF-8" standalone="no"?>
<!DOCTYPE svg PUBLIC "-//W3C//DTD SVG 1.1//EN"
 "http://www.w3.org/Graphics/SVG/1.1/DTD/svg11.dtd">
<!-- Generated by graphviz version 15.0.0 (20260523.1842)
 -->
<!-- Title: IsIhtStep.zero_of_zero Pages: 1 -->
<svg width="562pt" height="411pt"
 viewBox="0.00 0.00 562.00 411.00" xmlns="http://www.w3.org/2000/svg" xmlns:xlink="http://www.w3.org/1999/xlink">
<g id="graph0" class="graph" transform="scale(1 1) rotate(0) translate(4 407.2)">
<title>IsIhtStep.zero_of_zero</title>
<polygon fill="white" stroke="none" points="-4,4 -4,-407.2 558,-407.2 558,4 -4,4"/>
<text xml:space="preserve" text-anchor="middle" x="277" y="-386.6" font-family="Helvetica,sans-Serif" font-size="14.00">Proof narrative — IsIhtStep.zero_of_zero &#160;(12 decls)</text>
<g id="clust1" class="cluster">
<title>cluster_0</title>
<path fill="none" stroke="#cbd5e1" stroke-dasharray="5,2" d="M20,-80C20,-80 346,-80 346,-80 352,-80 358,-86 358,-92 358,-92 358,-358.4 358,-358.4 358,-364.4 352,-370.4 346,-370.4 346,-370.4 20,-370.4 20,-370.4 14,-370.4 8,-364.4 8,-358.4 8,-358.4 8,-92 8,-92 8,-86 14,-80 20,-80"/>
<text xml:space="preserve" text-anchor="middle" x="183" y="-356.5" font-family="Helvetica,sans-Serif" font-size="11.00">CompressedSensing</text>
</g>
<g id="clust2" class="cluster">
<title>cluster_1</title>
<path fill="none" stroke="#cbd5e1" stroke-dasharray="5,2" d="M378,-8C378,-8 534,-8 534,-8 540,-8 546,-14 546,-20 546,-20 546,-213.2 546,-213.2 546,-219.2 540,-225.2 534,-225.2 534,-225.2 378,-225.2 378,-225.2 372,-225.2 366,-219.2 366,-213.2 366,-213.2 366,-20 366,-20 366,-14 372,-8 378,-8"/>
<text xml:space="preserve" text-anchor="middle" x="456" y="-211.3" font-family="Helvetica,sans-Serif" font-size="11.00">HDStats</text>
</g>
<!-- n2 -->
<g id="node1" class="node">
<title>n2</title>
<g id="a_node1"><a xlink:href="vscode://vscode-remote/wsl+Ubuntu/home/gavin/statlib/Statlib/CompressedSensing/l2Dist.lean:13" xlink:title="def · Statlib/CompressedSensing/l2Dist.lean:13" target="_blank">
<path fill="#d6e9ff" stroke="#3b82f6" d="M210,-124C210,-124 180,-124 180,-124 174,-124 168,-118 168,-112 168,-112 168,-100 168,-100 168,-94 174,-88 180,-88 180,-88 210,-88 210,-88 216,-88 222,-94 222,-100 222,-100 222,-112 222,-112 222,-118 216,-124 210,-124"/>
<text xml:space="preserve" text-anchor="middle" x="195" y="-103" font-family="Helvetica,sans-Serif" font-size="10.00">l2Dist</text>
</a>
</g>
</g>
<!-- n3 -->
<g id="node2" class="node">
<title>n3</title>
<g id="a_node2"><a xlink:href="vscode://vscode-remote/wsl+Ubuntu/home/gavin/statlib/Statlib/CompressedSensing/IsBestSSparseApprox.lean:15" xlink:title="def · Statlib/CompressedSensing/IsBestSSparseApprox.lean:15" target="_blank">
<path fill="#d6e9ff" stroke="#3b82f6" d="M239.91,-196C239.91,-196 150.09,-196 150.09,-196 144.09,-196 138.09,-190 138.09,-184 138.09,-184 138.09,-172 138.09,-172 138.09,-166 144.09,-160 150.09,-160 150.09,-160 239.91,-160 239.91,-160 245.91,-160 251.91,-166 251.91,-172 251.91,-172 251.91,-184 251.91,-184 251.91,-190 245.91,-196 239.91,-196"/>
<text xml:space="preserve" text-anchor="middle" x="195" y="-175" font-family="Helvetica,sans-Serif" font-size="10.00">IsBestSSparseApprox</text>
</a>
</g>
</g>
<!-- n3&#45;&gt;n2 -->
<g id="edge3" class="edge">
<title>n3&#45;&gt;n2</title>
<path fill="none" stroke="#64748b" d="M195,-159.7C195,-151.47 195,-141.48 195,-132.42"/>
<polygon fill="#64748b" stroke="#64748b" points="197.45,-132.62 195,-125.62 192.55,-132.62 197.45,-132.62"/>
</g>
<!-- n1 -->
<g id="node9" class="node">
<title>n1</title>
<g id="a_node9"><a xlink:href="vscode://vscode-remote/wsl+Ubuntu/home/gavin/statlib/Statlib/HDStats/Basic.lean:56" xlink:title="def · Statlib/HDStats/Basic.lean:56" target="_blank">
<path fill="#d6e9ff" stroke="#3b82f6" d="M417.73,-124C417.73,-124 386.27,-124 386.27,-124 380.27,-124 374.27,-118 374.27,-112 374.27,-112 374.27,-100 374.27,-100 374.27,-94 380.27,-88 386.27,-88 386.27,-88 417.73,-88 417.73,-88 423.73,-88 429.73,-94 429.73,-100 429.73,-100 429.73,-112 429.73,-112 429.73,-118 423.73,-124 417.73,-124"/>
<text xml:space="preserve" text-anchor="middle" x="402" y="-103" font-family="Helvetica,sans-Serif" font-size="10.00">IsSparse</text>
</a>
</g>
</g>
<!-- n3&#45;&gt;n1 -->
<g id="edge2" class="edge">
<title>n3&#45;&gt;n1</title>
<path fill="none" stroke="#64748b" d="M252.27,-160.29C284.71,-150.46 325.91,-137.36 362,-124 363.49,-123.45 365,-122.88 366.52,-122.28"/>
<polygon fill="#64748b" stroke="#64748b" points="367.17,-124.67 372.76,-119.79 365.35,-120.12 367.17,-124.67"/>
</g>
<!-- n4 -->
<g id="node3" class="node">
<title>n4</title>
<g id="a_node3"><a xlink:href="vscode://vscode-remote/wsl+Ubuntu/home/gavin/statlib/Statlib/CompressedSensing/ihtResidualMap.lean:14" xlink:title="def · Statlib/CompressedSensing/ihtResidualMap.lean:14" target="_blank">
<path fill="#d6e9ff" stroke="#3b82f6" d="M88.46,-196C88.46,-196 27.54,-196 27.54,-196 21.54,-196 15.54,-190 15.54,-184 15.54,-184 15.54,-172 15.54,-172 15.54,-166 21.54,-160 27.54,-160 27.54,-160 88.46,-160 88.46,-160 94.46,-160 100.46,-166 100.46,-172 100.46,-172 100.46,-184 100.46,-184 100.46,-190 94.46,-196 88.46,-196"/>
<text xml:space="preserve" text-anchor="middle" x="58" y="-175" font-family="Helvetica,sans-Serif" font-size="10.00">ihtResidualMap</text>
</a>
</g>
</g>
<!-- n5 -->
<g id="node4" class="node">
<title>n5</title>
<g id="a_node4"><a xlink:href="vscode://vscode-remote/wsl+Ubuntu/home/gavin/statlib/Statlib/CompressedSensing/IsIhtStep.lean:14" xlink:title="def · Statlib/CompressedSensing/IsIhtStep.lean:14" target="_blank">
<path fill="#d6e9ff" stroke="#3b82f6" d="M120.73,-269.2C120.73,-269.2 89.27,-269.2 89.27,-269.2 83.27,-269.2 77.27,-263.2 77.27,-257.2 77.27,-257.2 77.27,-245.2 77.27,-245.2 77.27,-239.2 83.27,-233.2 89.27,-233.2 89.27,-233.2 120.73,-233.2 120.73,-233.2 126.73,-233.2 132.73,-239.2 132.73,-245.2 132.73,-245.2 132.73,-257.2 132.73,-257.2 132.73,-263.2 126.73,-269.2 120.73,-269.2"/>
<text xml:space="preserve" text-anchor="middle" x="105" y="-248.2" font-family="Helvetica,sans-Serif" font-size="10.00">IsIhtStep</text>
</a>
</g>
</g>
<!-- n5&#45;&gt;n3 -->
<g id="edge4" class="edge">
<title>n5&#45;&gt;n3</title>
<path fill="none" stroke="#64748b" d="M126.79,-232.96C138.75,-223.5 153.72,-211.66 166.59,-201.47"/>
<polygon fill="#64748b" stroke="#64748b" points="167.95,-203.53 171.92,-197.26 164.91,-199.68 167.95,-203.53"/>
</g>
<!-- n5&#45;&gt;n4 -->
<g id="edge5" class="edge">
<title>n5&#45;&gt;n4</title>
<path fill="none" stroke="#64748b" d="M93.62,-232.96C87.68,-223.96 80.3,-212.79 73.81,-202.95"/>
<polygon fill="#64748b" stroke="#64748b" points="76.01,-201.83 70.11,-197.34 71.92,-204.53 76.01,-201.83"/>
</g>
<!-- n9 -->
<g id="node5" class="node">
<title>n9</title>
<g id="a_node5"><a xlink:href="vscode://vscode-remote/wsl+Ubuntu/home/gavin/statlib/Statlib/CompressedSensing/l2Dist_nonneg.lean:10" xlink:title="lemma · Statlib/CompressedSensing/l2Dist_nonneg.lean:10" target="_blank">
<path fill="#eef2f6" stroke="#94a3b8" d="M337.97,-196C337.97,-196 282.03,-196 282.03,-196 276.03,-196 270.03,-190 270.03,-184 270.03,-184 270.03,-172 270.03,-172 270.03,-166 276.03,-160 282.03,-160 282.03,-160 337.97,-160 337.97,-160 343.97,-160 349.97,-166 349.97,-172 349.97,-172 349.97,-184 349.97,-184 349.97,-190 343.97,-196 337.97,-196"/>
<text xml:space="preserve" text-anchor="middle" x="310" y="-175" font-family="Helvetica,sans-Serif" font-size="10.00">l2Dist_nonneg</text>
</a>
</g>
</g>
<!-- n9&#45;&gt;n2 -->
<g id="edge9" class="edge">
<title>n9&#45;&gt;n2</title>
<path fill="none" stroke="#64748b" d="M281.28,-159.52C265.44,-149.88 245.69,-137.85 229.08,-127.74"/>
<polygon fill="#64748b" stroke="#64748b" points="230.72,-125.87 223.46,-124.33 228.17,-130.06 230.72,-125.87"/>
</g>
<!-- n10 -->
<g id="node6" class="node">
<title>n10</title>
<g id="a_node6"><a xlink:href="vscode://vscode-remote/wsl+Ubuntu/home/gavin/statlib/Statlib/CompressedSensing/IsBestSSparseApprox_zero.lean:14" xlink:title="lemma · Statlib/CompressedSensing/IsBestSSparseApprox_zero.lean:14" target="_blank">
<path fill="#eef2f6" stroke="#94a3b8" d="M277.42,-269.2C277.42,-269.2 162.58,-269.2 162.58,-269.2 156.58,-269.2 150.58,-263.2 150.58,-257.2 150.58,-257.2 150.58,-245.2 150.58,-245.2 150.58,-239.2 156.58,-233.2 162.58,-233.2 162.58,-233.2 277.42,-233.2 277.42,-233.2 283.42,-233.2 289.42,-239.2 289.42,-245.2 289.42,-245.2 289.42,-257.2 289.42,-257.2 289.42,-263.2 283.42,-269.2 277.42,-269.2"/>
<text xml:space="preserve" text-anchor="middle" x="220" y="-248.2" font-family="Helvetica,sans-Serif" font-size="10.00">IsBestSSparseApprox_zero</text>
</a>
</g>
</g>
<!-- n10&#45;&gt;n2 -->
<g id="edge12" class="edge">
<title>n10&#45;&gt;n2</title>
<path fill="none" stroke="#64748b" d="M150.2,-233.91C139.22,-230.72 130.84,-227.61 129,-225.2 111.43,-202.15 116.47,-186.13 129,-160 135.81,-145.8 148.48,-134.2 160.92,-125.52"/>
<polygon fill="#64748b" stroke="#64748b" points="162.01,-127.73 166.5,-121.83 159.31,-123.64 162.01,-127.73"/>
</g>
<!-- n10&#45;&gt;n3 -->
<g id="edge10" class="edge">
<title>n10&#45;&gt;n3</title>
<path fill="none" stroke="#64748b" d="M213.95,-232.96C210.91,-224.31 207.17,-213.65 203.81,-204.1"/>
<polygon fill="#64748b" stroke="#64748b" points="206.13,-203.3 201.5,-197.5 201.5,-204.92 206.13,-203.3"/>
</g>
<!-- n10&#45;&gt;n9 -->
<g id="edge13" class="edge">
<title>n10&#45;&gt;n9</title>
<path fill="none" stroke="#64748b" d="M250.05,-232.89C253.82,-230.42 257.55,-227.83 261,-225.2 270.18,-218.19 279.58,-209.71 287.65,-201.94"/>
<polygon fill="#64748b" stroke="#64748b" points="289.18,-203.88 292.46,-197.23 285.75,-200.37 289.18,-203.88"/>
</g>
<!-- n8 -->
<g id="node12" class="node">
<title>n8</title>
<g id="a_node12"><a xlink:href="vscode://vscode-remote/wsl+Ubuntu/home/gavin/statlib/Statlib/HDStats/Basic.lean:62" xlink:title="lemma · Statlib/HDStats/Basic.lean:62" target="_blank">
<path fill="#eef2f6" stroke="#94a3b8" d="M439.85,-196C439.85,-196 386.15,-196 386.15,-196 380.15,-196 374.15,-190 374.15,-184 374.15,-184 374.15,-172 374.15,-172 374.15,-166 380.15,-160 386.15,-160 386.15,-160 439.85,-160 439.85,-160 445.85,-160 451.85,-166 451.85,-172 451.85,-172 451.85,-184 451.85,-184 451.85,-190 445.85,-196 439.85,-196"/>
<text xml:space="preserve" text-anchor="middle" x="413" y="-175" font-family="Helvetica,sans-Serif" font-size="10.00">IsSparse.zero</text>
</a>
</g>
</g>
<!-- n10&#45;&gt;n8 -->
<g id="edge11" class="edge">
<title>n10&#45;&gt;n8</title>
<path fill="none" stroke="#64748b" d="M289.6,-245.82C313.46,-242.3 339.74,-236.09 362,-225.2 373.4,-219.62 384.12,-210.72 392.76,-202.21"/>
<polygon fill="#64748b" stroke="#64748b" points="394.49,-203.95 397.61,-197.22 390.97,-200.53 394.49,-203.95"/>
</g>
<!-- n11 -->
<g id="node7" class="node">
<title>n11</title>
<g id="a_node7"><a xlink:href="vscode://vscode-remote/wsl+Ubuntu/home/gavin/statlib/Statlib/CompressedSensing/IsIhtStep_zero_of_zero.lean:15" xlink:title="lemma · Statlib/CompressedSensing/IsIhtStep_zero_of_zero.lean:15" target="_blank">
<path fill="#eef2f6" stroke="#94a3b8" stroke-width="3" d="M151.31,-341.2C151.31,-341.2 58.69,-341.2 58.69,-341.2 52.69,-341.2 46.69,-335.2 46.69,-329.2 46.69,-329.2 46.69,-317.2 46.69,-317.2 46.69,-311.2 52.69,-305.2 58.69,-305.2 58.69,-305.2 151.31,-305.2 151.31,-305.2 157.31,-305.2 163.31,-311.2 163.31,-317.2 163.31,-317.2 163.31,-329.2 163.31,-329.2 163.31,-335.2 157.31,-341.2 151.31,-341.2"/>
<text xml:space="preserve" text-anchor="middle" x="105" y="-320.2" font-family="Helvetica,sans-Serif" font-size="10.00">IsIhtStep.zero_of_zero</text>
</a>
</g>
</g>
<!-- n11&#45;&gt;n4 -->
<g id="edge15" class="edge">
<title>n11&#45;&gt;n4</title>
<path fill="none" stroke="#64748b" d="M88.78,-303.89C81.17,-294.24 72.74,-281.8 68,-269.2 60.18,-248.42 57.94,-223.18 57.5,-204.69"/>
<polygon fill="#64748b" stroke="#64748b" points="59.95,-204.69 57.44,-197.72 55.06,-204.74 59.95,-204.69"/>
</g>
<!-- n11&#45;&gt;n5 -->
<g id="edge14" class="edge">
<title>n11&#45;&gt;n5</title>
<path fill="none" stroke="#64748b" d="M105,-303.81C105,-295.79 105,-286.25 105,-277.57"/>
<polygon fill="#64748b" stroke="#64748b" points="107.45,-277.78 105,-270.78 102.55,-277.78 107.45,-277.78"/>
</g>
<!-- n11&#45;&gt;n10 -->
<g id="edge16" class="edge">
<title>n11&#45;&gt;n10</title>
<path fill="none" stroke="#64748b" d="M135.21,-303.81C150.33,-294.6 168.73,-283.41 184.52,-273.8"/>
<polygon fill="#64748b" stroke="#64748b" points="185.57,-276.03 190.28,-270.29 183.02,-271.84 185.57,-276.03"/>
</g>
<!-- n0 -->
<g id="node8" class="node">
<title>n0</title>
<g id="a_node8"><a xlink:href="vscode://vscode-remote/wsl+Ubuntu/home/gavin/statlib/Statlib/HDStats/Basic.lean:51" xlink:title="noncomputable def · Statlib/HDStats/Basic.lean:51" target="_blank">
<path fill="#d6e9ff" stroke="#3b82f6" d="M416,-52C416,-52 386,-52 386,-52 380,-52 374,-46 374,-40 374,-40 374,-28 374,-28 374,-22 380,-16 386,-16 386,-16 416,-16 416,-16 422,-16 428,-22 428,-28 428,-28 428,-40 428,-40 428,-46 422,-52 416,-52"/>
<text xml:space="preserve" text-anchor="middle" x="401" y="-31" font-family="Helvetica,sans-Serif" font-size="10.00">support</text>
</a>
</g>
</g>
<!-- n1&#45;&gt;n0 -->
<g id="edge1" class="edge">
<title>n1&#45;&gt;n0</title>
<path fill="none" stroke="#64748b" d="M401.75,-87.7C401.64,-79.47 401.49,-69.48 401.36,-60.42"/>
<polygon fill="#64748b" stroke="#64748b" points="403.82,-60.58 401.27,-53.62 398.92,-60.65 403.82,-60.58"/>
</g>
<!-- n6 -->
<g id="node10" class="node">
<title>n6</title>
<g id="a_node10"><a xlink:href="vscode://vscode-remote/wsl+Ubuntu/home/gavin/statlib/Statlib/HDStats/HasSubExpMGF.lean:16" xlink:title="def · Statlib/HDStats/HasSubExpMGF.lean:16" target="_blank">
<path fill="#d6e9ff" stroke="#3b82f6" d="M525.51,-52C525.51,-52 458.49,-52 458.49,-52 452.49,-52 446.49,-46 446.49,-40 446.49,-40 446.49,-28 446.49,-28 446.49,-22 452.49,-16 458.49,-16 458.49,-16 525.51,-16 525.51,-16 531.51,-16 537.51,-22 537.51,-28 537.51,-28 537.51,-40 537.51,-40 537.51,-46 531.51,-52 525.51,-52"/>
<text xml:space="preserve" text-anchor="middle" x="492" y="-31" font-family="Helvetica,sans-Serif" font-size="10.00">HasSubExpMGF</text>
</a>
</g>
</g>
<!-- n7 -->
<g id="node11" class="node">
<title>n7</title>
<g id="a_node11"><a xlink:href="vscode://vscode-remote/wsl+Ubuntu/home/gavin/statlib/Statlib/HDStats/zero.lean:12" xlink:title="lemma · Statlib/HDStats/zero.lean:12" target="_blank">
<path fill="#eef2f6" stroke="#94a3b8" d="M498,-124C498,-124 468,-124 468,-124 462,-124 456,-118 456,-112 456,-112 456,-100 456,-100 456,-94 462,-88 468,-88 468,-88 498,-88 498,-88 504,-88 510,-94 510,-100 510,-100 510,-112 510,-112 510,-118 504,-124 498,-124"/>
<text xml:space="preserve" text-anchor="middle" x="483" y="-103" font-family="Helvetica,sans-Serif" font-size="10.00">zero</text>
</a>
</g>
</g>
<!-- n7&#45;&gt;n6 -->
<g id="edge6" class="edge">
<title>n7&#45;&gt;n6</title>
<path fill="none" stroke="#64748b" d="M485.22,-87.7C486.28,-79.47 487.57,-69.48 488.73,-60.42"/>
<polygon fill="#64748b" stroke="#64748b" points="491.15,-60.86 489.61,-53.61 486.29,-60.24 491.15,-60.86"/>
</g>
<!-- n8&#45;&gt;n1 -->
<g id="edge8" class="edge">
<title>n8&#45;&gt;n1</title>
<path fill="none" stroke="#64748b" d="M410.28,-159.7C408.99,-151.47 407.42,-141.48 405.99,-132.42"/>
<polygon fill="#64748b" stroke="#64748b" points="408.43,-132.13 404.92,-125.6 403.59,-132.9 408.43,-132.13"/>
</g>
<!-- n8&#45;&gt;n7 -->
<g id="edge7" class="edge">
<title>n8&#45;&gt;n7</title>
<path fill="none" stroke="#64748b" d="M430.3,-159.7C439.29,-150.71 450.39,-139.61 460.08,-129.92"/>
<polygon fill="#64748b" stroke="#64748b" points="461.61,-131.86 464.83,-125.17 458.14,-128.39 461.61,-131.86"/>
</g>
</g>
</svg>
