<?xml version="1.0" encoding="UTF-8" standalone="no"?>
<!DOCTYPE svg PUBLIC "-//W3C//DTD SVG 1.1//EN"
 "http://www.w3.org/Graphics/SVG/1.1/DTD/svg11.dtd">
<!-- Generated by graphviz version 15.0.0 (20260523.1842)
 -->
<!-- Title: coord_sq_centered_mgf_bound Pages: 1 -->
<svg width="941pt" height="411pt"
 viewBox="0.00 0.00 941.00 411.00" xmlns="http://www.w3.org/2000/svg" xmlns:xlink="http://www.w3.org/1999/xlink">
<g id="graph0" class="graph" transform="scale(1 1) rotate(0) translate(4 407.2)">
<title>coord_sq_centered_mgf_bound</title>
<polygon fill="white" stroke="none" points="-4,4 -4,-407.2 937,-407.2 937,4 -4,4"/>
<text xml:space="preserve" text-anchor="middle" x="466.5" y="-386.6" font-family="Helvetica,sans-Serif" font-size="14.00">Proof narrative — coord_sq_centered_mgf_bound &#160;(11 decls)</text>
<g id="clust1" class="cluster">
<title>cluster_0</title>
<path fill="none" stroke="#cbd5e1" stroke-dasharray="5,2" d="M20,-152C20,-152 222,-152 222,-152 228,-152 234,-158 234,-164 234,-164 234,-358.4 234,-358.4 234,-364.4 228,-370.4 222,-370.4 222,-370.4 20,-370.4 20,-370.4 14,-370.4 8,-364.4 8,-358.4 8,-358.4 8,-164 8,-164 8,-158 14,-152 20,-152"/>
<text xml:space="preserve" text-anchor="middle" x="121" y="-356.5" font-family="Helvetica,sans-Serif" font-size="11.00">HighDim</text>
</g>
<g id="clust2" class="cluster">
<title>cluster_1</title>
<path fill="none" stroke="#cbd5e1" stroke-dasharray="5,2" d="M254,-8C254,-8 913,-8 913,-8 919,-8 925,-14 925,-20 925,-20 925,-285.2 925,-285.2 925,-291.2 919,-297.2 913,-297.2 913,-297.2 254,-297.2 254,-297.2 248,-297.2 242,-291.2 242,-285.2 242,-285.2 242,-20 242,-20 242,-14 248,-8 254,-8"/>
<text xml:space="preserve" text-anchor="middle" x="583.5" y="-283.3" font-family="Helvetica,sans-Serif" font-size="11.00">StatFoundation</text>
</g>
<!-- n0 -->
<g id="node1" class="node">
<title>n0</title>
<g id="a_node1"><a xlink:href="vscode://vscode-remote/wsl+Ubuntu/tmp/statlib-main-refresh.tmBBiR/Statlib/HighDim/Vocabulary/RandomVector.lean:52" xlink:title="structure · Statlib/HighDim/Vocabulary/RandomVector.lean:52" target="_blank">
<path fill="#e8dcff" stroke="#8b5cf6" d="M116.36,-196C116.36,-196 27.64,-196 27.64,-196 21.64,-196 15.64,-190 15.64,-184 15.64,-184 15.64,-172 15.64,-172 15.64,-166 21.64,-160 27.64,-160 27.64,-160 116.36,-160 116.36,-160 122.36,-160 128.36,-166 128.36,-172 128.36,-172 128.36,-184 128.36,-184 128.36,-190 122.36,-196 116.36,-196"/>
<text xml:space="preserve" text-anchor="middle" x="72" y="-175" font-family="Helvetica,sans-Serif" font-size="10.00">IsSubGaussianVector</text>
</a>
</g>
</g>
<!-- n1 -->
<g id="node2" class="node">
<title>n1</title>
<g id="a_node2"><a xlink:href="vscode://vscode-remote/wsl+Ubuntu/tmp/statlib-main-refresh.tmBBiR/Statlib/HighDim/Vocabulary/Norms.lean:32" xlink:title="lemma · Statlib/HighDim/Vocabulary/Norms.lean:32" target="_blank">
<path fill="#eef2f6" stroke="#94a3b8" d="M213.69,-196C213.69,-196 158.31,-196 158.31,-196 152.31,-196 146.31,-190 146.31,-184 146.31,-184 146.31,-172 146.31,-172 146.31,-166 152.31,-160 158.31,-160 158.31,-160 213.69,-160 213.69,-160 219.69,-160 225.69,-166 225.69,-172 225.69,-172 225.69,-184 225.69,-184 225.69,-190 219.69,-196 213.69,-196"/>
<text xml:space="preserve" text-anchor="middle" x="186" y="-175" font-family="Helvetica,sans-Serif" font-size="10.00">inner_eq_sum</text>
</a>
</g>
</g>
<!-- n2 -->
<g id="node3" class="node">
<title>n2</title>
<g id="a_node3"><a xlink:href="vscode://vscode-remote/wsl+Ubuntu/tmp/statlib-main-refresh.tmBBiR/Statlib/HighDim/Concentration/HansonWright.lean:1340" xlink:title="lemma · Statlib/HighDim/Concentration/HansonWright.lean:1340" target="_blank">
<path fill="#eef2f6" stroke="#94a3b8" d="M213.76,-268C213.76,-268 102.24,-268 102.24,-268 96.24,-268 90.24,-262 90.24,-256 90.24,-256 90.24,-244 90.24,-244 90.24,-238 96.24,-232 102.24,-232 102.24,-232 213.76,-232 213.76,-232 219.76,-232 225.76,-238 225.76,-244 225.76,-244 225.76,-256 225.76,-256 225.76,-262 219.76,-268 213.76,-268"/>
<text xml:space="preserve" text-anchor="middle" x="158" y="-247" font-family="Helvetica,sans-Serif" font-size="10.00">subgaussian_vector_coord</text>
</a>
</g>
</g>
<!-- n2&#45;&gt;n0 -->
<g id="edge1" class="edge">
<title>n2&#45;&gt;n0</title>
<path fill="none" stroke="#64748b" d="M136.74,-231.7C125.58,-222.61 111.76,-211.36 99.76,-201.6"/>
<polygon fill="#64748b" stroke="#64748b" points="101.46,-199.82 94.49,-197.3 98.37,-203.62 101.46,-199.82"/>
</g>
<!-- n2&#45;&gt;n1 -->
<g id="edge2" class="edge">
<title>n2&#45;&gt;n1</title>
<path fill="none" stroke="#64748b" d="M164.92,-231.7C168.28,-223.3 172.37,-213.07 176.06,-203.86"/>
<polygon fill="#64748b" stroke="#64748b" points="178.27,-204.92 178.6,-197.51 173.72,-203.1 178.27,-204.92"/>
</g>
<!-- n10 -->
<g id="node4" class="node">
<title>n10</title>
<g id="a_node4"><a xlink:href="vscode://vscode-remote/wsl+Ubuntu/tmp/statlib-main-refresh.tmBBiR/Statlib/HighDim/Concentration/HansonWright.lean:1930" xlink:title="lemma · Statlib/HighDim/Concentration/HansonWright.lean:1930" target="_blank">
<path fill="#eef2f6" stroke="#94a3b8" stroke-width="3" d="M213.61,-341.2C213.61,-341.2 80.39,-341.2 80.39,-341.2 74.39,-341.2 68.39,-335.2 68.39,-329.2 68.39,-329.2 68.39,-317.2 68.39,-317.2 68.39,-311.2 74.39,-305.2 80.39,-305.2 80.39,-305.2 213.61,-305.2 213.61,-305.2 219.61,-305.2 225.61,-311.2 225.61,-317.2 225.61,-317.2 225.61,-329.2 225.61,-329.2 225.61,-335.2 219.61,-341.2 213.61,-341.2"/>
<text xml:space="preserve" text-anchor="middle" x="147" y="-320.2" font-family="Helvetica,sans-Serif" font-size="10.00">coord_sq_centered_mgf_bound</text>
</a>
</g>
</g>
<!-- n10&#45;&gt;n0 -->
<g id="edge10" class="edge">
<title>n10&#45;&gt;n0</title>
<path fill="none" stroke="#64748b" d="M87.25,-303.86C84.94,-301.86 82.84,-299.65 81,-297.2 61.06,-270.55 62.72,-230.4 66.65,-204.44"/>
<polygon fill="#64748b" stroke="#64748b" points="69.04,-205.03 67.79,-197.72 64.2,-204.21 69.04,-205.03"/>
</g>
<!-- n10&#45;&gt;n2 -->
<g id="edge11" class="edge">
<title>n10&#45;&gt;n2</title>
<path fill="none" stroke="#64748b" d="M149.83,-303.86C151.13,-295.5 152.68,-285.45 154.08,-276.37"/>
<polygon fill="#64748b" stroke="#64748b" points="156.49,-276.84 155.13,-269.55 151.64,-276.09 156.49,-276.84"/>
</g>
<!-- n9 -->
<g id="node11" class="node">
<title>n9</title>
<g id="a_node11"><a xlink:href="vscode://vscode-remote/wsl+Ubuntu/tmp/statlib-main-refresh.tmBBiR/Statlib/StatFoundation/RandomVariable/SubExponential/subexp_mgf_le_of_sq_subgaussian.lean:1223" xlink:title="theorem · Statlib/StatFoundation/RandomVariable/SubExponential/subexp_mgf_le_of_sq_subgaussian.lean:1223" target="_blank">
<path fill="#ffe6a3" stroke="#d4a017" d="M456.78,-268C456.78,-268 305.22,-268 305.22,-268 299.22,-268 293.22,-262 293.22,-256 293.22,-256 293.22,-244 293.22,-244 293.22,-238 299.22,-232 305.22,-232 305.22,-232 456.78,-232 456.78,-232 462.78,-232 468.78,-238 468.78,-244 468.78,-244 468.78,-256 468.78,-256 468.78,-262 462.78,-268 456.78,-268"/>
<text xml:space="preserve" text-anchor="middle" x="381" y="-247" font-family="Helvetica,sans-Serif" font-size="10.00">subexp_mgf_le_of_sq_subgaussian</text>
</a>
</g>
</g>
<!-- n10&#45;&gt;n9 -->
<g id="edge12" class="edge">
<title>n10&#45;&gt;n9</title>
<path fill="none" stroke="#64748b" d="M215.17,-303.83C222.89,-301.64 230.62,-299.4 238,-297.2 265.41,-289.01 295.58,-279.36 321.11,-271"/>
<polygon fill="#64748b" stroke="#64748b" points="321.55,-273.44 327.44,-268.93 320.02,-268.78 321.55,-273.44"/>
</g>
<!-- n3 -->
<g id="node5" class="node">
<title>n3</title>
<g id="a_node5"><a xlink:href="vscode://vscode-remote/wsl+Ubuntu/tmp/statlib-main-refresh.tmBBiR/Statlib/StatFoundation/RandomVariable/SubExponential/subexp_mgf_le_of_sq_subgaussian.lean:13" xlink:title="lemma · Statlib/StatFoundation/RandomVariable/SubExponential/subexp_mgf_le_of_sq_subgaussian.lean:13" target="_blank">
<path fill="#eef2f6" stroke="#94a3b8" d="M342.2,-124C342.2,-124 261.8,-124 261.8,-124 255.8,-124 249.8,-118 249.8,-112 249.8,-112 249.8,-100 249.8,-100 249.8,-94 255.8,-88 261.8,-88 261.8,-88 342.2,-88 342.2,-88 348.2,-88 354.2,-94 354.2,-100 354.2,-100 354.2,-112 354.2,-112 354.2,-118 348.2,-124 342.2,-124"/>
<text xml:space="preserve" text-anchor="middle" x="302" y="-103" font-family="Helvetica,sans-Serif" font-size="10.00">sub_gauss_tail_abs</text>
</a>
</g>
</g>
<!-- n4 -->
<g id="node6" class="node">
<title>n4</title>
<g id="a_node6"><a xlink:href="vscode://vscode-remote/wsl+Ubuntu/tmp/statlib-main-refresh.tmBBiR/Statlib/StatFoundation/RandomVariable/SubGaussian/sq_le_two_mul_exp.lean:10" xlink:title="lemma · Statlib/StatFoundation/RandomVariable/SubGaussian/sq_le_two_mul_exp.lean:10" target="_blank">
<path fill="#eef2f6" stroke="#94a3b8" d="M464.19,-124C464.19,-124 383.81,-124 383.81,-124 377.81,-124 371.81,-118 371.81,-112 371.81,-112 371.81,-100 371.81,-100 371.81,-94 377.81,-88 383.81,-88 383.81,-88 464.19,-88 464.19,-88 470.19,-88 476.19,-94 476.19,-100 476.19,-100 476.19,-112 476.19,-112 476.19,-118 470.19,-124 464.19,-124"/>
<text xml:space="preserve" text-anchor="middle" x="424" y="-103" font-family="Helvetica,sans-Serif" font-size="10.00">sq_le_two_mul_exp</text>
</a>
</g>
</g>
<!-- n5 -->
<g id="node7" class="node">
<title>n5</title>
<g id="a_node7"><a xlink:href="vscode://vscode-remote/wsl+Ubuntu/tmp/statlib-main-refresh.tmBBiR/Statlib/StatFoundation/RandomVariable/SubGaussian/subgaussian_meas_abs_ge_le_two_exp.lean:9" xlink:title="theorem · Statlib/StatFoundation/RandomVariable/SubGaussian/subgaussian_meas_abs_ge_le_two_exp.lean:9" target="_blank">
<path fill="#ffe6a3" stroke="#d4a017" d="M782.34,-52C782.34,-52 609.66,-52 609.66,-52 603.66,-52 597.66,-46 597.66,-40 597.66,-40 597.66,-28 597.66,-28 597.66,-22 603.66,-16 609.66,-16 609.66,-16 782.34,-16 782.34,-16 788.34,-16 794.34,-22 794.34,-28 794.34,-28 794.34,-40 794.34,-40 794.34,-46 788.34,-52 782.34,-52"/>
<text xml:space="preserve" text-anchor="middle" x="696" y="-31" font-family="Helvetica,sans-Serif" font-size="10.00">subgaussian_meas_abs_ge_le_two_exp</text>
</a>
</g>
</g>
<!-- n6 -->
<g id="node8" class="node">
<title>n6</title>
<g id="a_node8"><a xlink:href="vscode://vscode-remote/wsl+Ubuntu/tmp/statlib-main-refresh.tmBBiR/Statlib/StatFoundation/RandomVariable/SubGaussian/subgaussian_exp_sq_le_at_one_third.lean:14" xlink:title="theorem · Statlib/StatFoundation/RandomVariable/SubGaussian/subgaussian_exp_sq_le_at_one_third.lean:14" target="_blank">
<path fill="#ffe6a3" stroke="#d4a017" d="M666.23,-124C666.23,-124 505.77,-124 505.77,-124 499.77,-124 493.77,-118 493.77,-112 493.77,-112 493.77,-100 493.77,-100 493.77,-94 499.77,-88 505.77,-88 505.77,-88 666.23,-88 666.23,-88 672.23,-88 678.23,-94 678.23,-100 678.23,-100 678.23,-112 678.23,-112 678.23,-118 672.23,-124 666.23,-124"/>
<text xml:space="preserve" text-anchor="middle" x="586" y="-103" font-family="Helvetica,sans-Serif" font-size="10.00">subgaussian_exp_sq_le_at_one_third</text>
</a>
</g>
</g>
<!-- n6&#45;&gt;n5 -->
<g id="edge3" class="edge">
<title>n6&#45;&gt;n5</title>
<path fill="none" stroke="#64748b" d="M613.47,-87.52C628.15,-78.18 646.36,-66.59 661.93,-56.68"/>
<polygon fill="#64748b" stroke="#64748b" points="663.01,-58.9 667.6,-53.07 660.38,-54.76 663.01,-58.9"/>
</g>
<!-- n7 -->
<g id="node9" class="node">
<title>n7</title>
<g id="a_node9"><a xlink:href="vscode://vscode-remote/wsl+Ubuntu/tmp/statlib-main-refresh.tmBBiR/Statlib/StatFoundation/RandomVariable/SubGaussian/subgaussian_exp_sq_le_at_one_third.lean:165" xlink:title="theorem · Statlib/StatFoundation/RandomVariable/SubGaussian/subgaussian_exp_sq_le_at_one_third.lean:165" target="_blank">
<path fill="#ffe6a3" stroke="#d4a017" d="M905.3,-124C905.3,-124 708.7,-124 708.7,-124 702.7,-124 696.7,-118 696.7,-112 696.7,-112 696.7,-100 696.7,-100 696.7,-94 702.7,-88 708.7,-88 708.7,-88 905.3,-88 905.3,-88 911.3,-88 917.3,-94 917.3,-100 917.3,-100 917.3,-112 917.3,-112 917.3,-118 911.3,-124 905.3,-124"/>
<text xml:space="preserve" text-anchor="middle" x="807" y="-103" font-family="Helvetica,sans-Serif" font-size="10.00">subgaussian_integrable_exp_sq_at_one_third</text>
</a>
</g>
</g>
<!-- n7&#45;&gt;n5 -->
<g id="edge4" class="edge">
<title>n7&#45;&gt;n5</title>
<path fill="none" stroke="#64748b" d="M779.28,-87.52C764.46,-78.18 746.1,-66.59 730.38,-56.68"/>
<polygon fill="#64748b" stroke="#64748b" points="731.88,-54.73 724.65,-53.07 729.26,-58.87 731.88,-54.73"/>
</g>
<!-- n8 -->
<g id="node10" class="node">
<title>n8</title>
<g id="a_node10"><a xlink:href="vscode://vscode-remote/wsl+Ubuntu/tmp/statlib-main-refresh.tmBBiR/Statlib/StatFoundation/RandomVariable/SubExponential/subexp_mgf_le_of_sq_subgaussian.lean:72" xlink:title="theorem · Statlib/StatFoundation/RandomVariable/SubExponential/subexp_mgf_le_of_sq_subgaussian.lean:72" target="_blank">
<path fill="#ffe6a3" stroke="#d4a017" d="M517.84,-196C517.84,-196 330.16,-196 330.16,-196 324.16,-196 318.16,-190 318.16,-184 318.16,-184 318.16,-172 318.16,-172 318.16,-166 324.16,-160 330.16,-160 330.16,-160 517.84,-160 517.84,-160 523.84,-160 529.84,-166 529.84,-172 529.84,-172 529.84,-184 529.84,-184 529.84,-190 523.84,-196 517.84,-196"/>
<text xml:space="preserve" text-anchor="middle" x="424" y="-175" font-family="Helvetica,sans-Serif" font-size="10.00">subexp_mgf_le_of_sq_subgaussian_explicit</text>
</a>
</g>
</g>
<!-- n8&#45;&gt;n3 -->
<g id="edge5" class="edge">
<title>n8&#45;&gt;n3</title>
<path fill="none" stroke="#64748b" d="M393.53,-159.52C377.1,-150.09 356.7,-138.38 339.32,-128.41"/>
<polygon fill="#64748b" stroke="#64748b" points="340.69,-126.37 333.4,-125.01 338.25,-130.62 340.69,-126.37"/>
</g>
<!-- n8&#45;&gt;n4 -->
<g id="edge6" class="edge">
<title>n8&#45;&gt;n4</title>
<path fill="none" stroke="#64748b" d="M424,-159.7C424,-151.47 424,-141.48 424,-132.42"/>
<polygon fill="#64748b" stroke="#64748b" points="426.45,-132.62 424,-125.62 421.55,-132.62 426.45,-132.62"/>
</g>
<!-- n8&#45;&gt;n6 -->
<g id="edge7" class="edge">
<title>n8&#45;&gt;n6</title>
<path fill="none" stroke="#64748b" d="M464.46,-159.52C486.77,-149.88 514.62,-137.84 538.02,-127.73"/>
<polygon fill="#64748b" stroke="#64748b" points="538.93,-130.01 544.38,-124.98 536.99,-125.51 538.93,-130.01"/>
</g>
<!-- n8&#45;&gt;n7 -->
<g id="edge8" class="edge">
<title>n8&#45;&gt;n7</title>
<path fill="none" stroke="#64748b" d="M519.66,-159.52C575.52,-149.31 646.03,-136.42 703.23,-125.97"/>
<polygon fill="#64748b" stroke="#64748b" points="703.63,-128.38 710.08,-124.71 702.75,-123.56 703.63,-128.38"/>
</g>
<!-- n9&#45;&gt;n8 -->
<g id="edge9" class="edge">
<title>n9&#45;&gt;n8</title>
<path fill="none" stroke="#64748b" d="M391.63,-231.7C396.89,-223.14 403.33,-212.66 409.07,-203.3"/>
<polygon fill="#64748b" stroke="#64748b" points="411.12,-204.64 412.7,-197.39 406.95,-202.08 411.12,-204.64"/>
</g>
</g>
</svg>
