<?xml version="1.0" encoding="UTF-8" standalone="no"?>
<!DOCTYPE svg PUBLIC "-//W3C//DTD SVG 1.1//EN"
 "http://www.w3.org/Graphics/SVG/1.1/DTD/svg11.dtd">
<!-- Generated by graphviz version 15.0.0 (20260523.1842)
 -->
<!-- Title: coord_sq_centered_scaled_mgf_bound_explicit Pages: 1 -->
<svg width="959pt" height="411pt"
 viewBox="0.00 0.00 959.00 411.00" xmlns="http://www.w3.org/2000/svg" xmlns:xlink="http://www.w3.org/1999/xlink">
<g id="graph0" class="graph" transform="scale(1 1) rotate(0) translate(4 407.2)">
<title>coord_sq_centered_scaled_mgf_bound_explicit</title>
<polygon fill="white" stroke="none" points="-4,4 -4,-407.2 955,-407.2 955,4 -4,4"/>
<text xml:space="preserve" text-anchor="middle" x="475.5" y="-386.6" font-family="Helvetica,sans-Serif" font-size="14.00">Proof narrative — coord_sq_centered_scaled_mgf_bound_explicit &#160;(11 decls)</text>
<g id="clust1" class="cluster">
<title>cluster_0</title>
<path fill="none" stroke="#cbd5e1" stroke-dasharray="5,2" d="M20,-80C20,-80 240,-80 240,-80 246,-80 252,-86 252,-92 252,-92 252,-358.4 252,-358.4 252,-364.4 246,-370.4 240,-370.4 240,-370.4 20,-370.4 20,-370.4 14,-370.4 8,-364.4 8,-358.4 8,-358.4 8,-92 8,-92 8,-86 14,-80 20,-80"/>
<text xml:space="preserve" text-anchor="middle" x="130" y="-356.5" font-family="Helvetica,sans-Serif" font-size="11.00">HighDim</text>
</g>
<g id="clust2" class="cluster">
<title>cluster_1</title>
<path fill="none" stroke="#cbd5e1" stroke-dasharray="5,2" d="M272,-8C272,-8 931,-8 931,-8 937,-8 943,-14 943,-20 943,-20 943,-213.2 943,-213.2 943,-219.2 937,-225.2 931,-225.2 931,-225.2 272,-225.2 272,-225.2 266,-225.2 260,-219.2 260,-213.2 260,-213.2 260,-20 260,-20 260,-14 266,-8 272,-8"/>
<text xml:space="preserve" text-anchor="middle" x="601.5" y="-211.3" font-family="Helvetica,sans-Serif" font-size="11.00">StatFoundation</text>
</g>
<!-- n0 -->
<g id="node1" class="node">
<title>n0</title>
<g id="a_node1"><a xlink:href="vscode://vscode-remote/wsl+Ubuntu/home/ai4stat/statlib/Statlib/HighDim/Vocabulary/RandomVector.lean:52" xlink:title="structure · Statlib/HighDim/Vocabulary/RandomVector.lean:52" target="_blank">
<path fill="#e8dcff" stroke="#8b5cf6" d="M116.36,-124C116.36,-124 27.64,-124 27.64,-124 21.64,-124 15.64,-118 15.64,-112 15.64,-112 15.64,-100 15.64,-100 15.64,-94 21.64,-88 27.64,-88 27.64,-88 116.36,-88 116.36,-88 122.36,-88 128.36,-94 128.36,-100 128.36,-100 128.36,-112 128.36,-112 128.36,-118 122.36,-124 116.36,-124"/>
<text xml:space="preserve" text-anchor="middle" x="72" y="-103" font-family="Helvetica,sans-Serif" font-size="10.00">IsSubGaussianVector</text>
</a>
</g>
</g>
<!-- n1 -->
<g id="node2" class="node">
<title>n1</title>
<g id="a_node2"><a xlink:href="vscode://vscode-remote/wsl+Ubuntu/home/ai4stat/statlib/Statlib/HighDim/Vocabulary/Norms.lean:32" xlink:title="lemma · Statlib/HighDim/Vocabulary/Norms.lean:32" target="_blank">
<path fill="#eef2f6" stroke="#94a3b8" d="M213.69,-124C213.69,-124 158.31,-124 158.31,-124 152.31,-124 146.31,-118 146.31,-112 146.31,-112 146.31,-100 146.31,-100 146.31,-94 152.31,-88 158.31,-88 158.31,-88 213.69,-88 213.69,-88 219.69,-88 225.69,-94 225.69,-100 225.69,-100 225.69,-112 225.69,-112 225.69,-118 219.69,-124 213.69,-124"/>
<text xml:space="preserve" text-anchor="middle" x="186" y="-103" font-family="Helvetica,sans-Serif" font-size="10.00">inner_eq_sum</text>
</a>
</g>
</g>
<!-- n2 -->
<g id="node3" class="node">
<title>n2</title>
<g id="a_node3"><a xlink:href="vscode://vscode-remote/wsl+Ubuntu/home/ai4stat/statlib/Statlib/HighDim/Concentration/HansonWright.lean:1389" xlink:title="lemma · Statlib/HighDim/Concentration/HansonWright.lean:1389" target="_blank">
<path fill="#eef2f6" stroke="#94a3b8" d="M214.76,-196C214.76,-196 103.24,-196 103.24,-196 97.24,-196 91.24,-190 91.24,-184 91.24,-184 91.24,-172 91.24,-172 91.24,-166 97.24,-160 103.24,-160 103.24,-160 214.76,-160 214.76,-160 220.76,-160 226.76,-166 226.76,-172 226.76,-172 226.76,-184 226.76,-184 226.76,-190 220.76,-196 214.76,-196"/>
<text xml:space="preserve" text-anchor="middle" x="159" y="-175" font-family="Helvetica,sans-Serif" font-size="10.00">subgaussian_vector_coord</text>
</a>
</g>
</g>
<!-- n2&#45;&gt;n0 -->
<g id="edge1" class="edge">
<title>n2&#45;&gt;n0</title>
<path fill="none" stroke="#64748b" d="M137.49,-159.7C126.2,-150.61 112.22,-139.36 100.09,-129.6"/>
<polygon fill="#64748b" stroke="#64748b" points="101.73,-127.78 94.74,-125.3 98.66,-131.59 101.73,-127.78"/>
</g>
<!-- n2&#45;&gt;n1 -->
<g id="edge2" class="edge">
<title>n2&#45;&gt;n1</title>
<path fill="none" stroke="#64748b" d="M165.67,-159.7C168.91,-151.3 172.86,-141.07 176.41,-131.86"/>
<polygon fill="#64748b" stroke="#64748b" points="178.62,-132.93 178.86,-125.52 174.05,-131.17 178.62,-132.93"/>
</g>
<!-- n9 -->
<g id="node4" class="node">
<title>n9</title>
<g id="a_node4"><a xlink:href="vscode://vscode-remote/wsl+Ubuntu/home/ai4stat/statlib/Statlib/HighDim/Concentration/HansonWright.lean:2038" xlink:title="lemma · Statlib/HighDim/Concentration/HansonWright.lean:2038" target="_blank">
<path fill="#eef2f6" stroke="#94a3b8" d="M231.67,-269.2C231.67,-269.2 62.33,-269.2 62.33,-269.2 56.33,-269.2 50.33,-263.2 50.33,-257.2 50.33,-257.2 50.33,-245.2 50.33,-245.2 50.33,-239.2 56.33,-233.2 62.33,-233.2 62.33,-233.2 231.67,-233.2 231.67,-233.2 237.67,-233.2 243.67,-239.2 243.67,-245.2 243.67,-245.2 243.67,-257.2 243.67,-257.2 243.67,-263.2 237.67,-269.2 231.67,-269.2"/>
<text xml:space="preserve" text-anchor="middle" x="147" y="-248.2" font-family="Helvetica,sans-Serif" font-size="10.00">coord_sq_centered_mgf_bound_explicit</text>
</a>
</g>
</g>
<!-- n9&#45;&gt;n0 -->
<g id="edge9" class="edge">
<title>n9&#45;&gt;n0</title>
<path fill="none" stroke="#64748b" d="M89.28,-232.7C86.57,-230.49 84.11,-228 82,-225.2 62,-198.57 63.28,-158.41 66.93,-132.45"/>
<polygon fill="#64748b" stroke="#64748b" points="69.32,-133.02 68,-125.72 64.48,-132.25 69.32,-133.02"/>
</g>
<!-- n9&#45;&gt;n2 -->
<g id="edge10" class="edge">
<title>n9&#45;&gt;n2</title>
<path fill="none" stroke="#64748b" d="M149.9,-232.96C151.35,-224.39 153.12,-213.87 154.72,-204.39"/>
<polygon fill="#64748b" stroke="#64748b" points="157.12,-204.88 155.87,-197.57 152.29,-204.06 157.12,-204.88"/>
</g>
<!-- n8 -->
<g id="node11" class="node">
<title>n8</title>
<g id="a_node11"><a xlink:href="vscode://vscode-remote/wsl+Ubuntu/home/ai4stat/statlib/Statlib/StatFoundation/RandomVariable/SubExponential/subexp_mgf_le_of_sq_subgaussian.lean:72" xlink:title="theorem · Statlib/StatFoundation/RandomVariable/SubExponential/subexp_mgf_le_of_sq_subgaussian.lean:72" target="_blank">
<path fill="#ffe6a3" stroke="#d4a017" d="M535.84,-196C535.84,-196 348.16,-196 348.16,-196 342.16,-196 336.16,-190 336.16,-184 336.16,-184 336.16,-172 336.16,-172 336.16,-166 342.16,-160 348.16,-160 348.16,-160 535.84,-160 535.84,-160 541.84,-160 547.84,-166 547.84,-172 547.84,-172 547.84,-184 547.84,-184 547.84,-190 541.84,-196 535.84,-196"/>
<text xml:space="preserve" text-anchor="middle" x="442" y="-175" font-family="Helvetica,sans-Serif" font-size="10.00">subexp_mgf_le_of_sq_subgaussian_explicit</text>
</a>
</g>
</g>
<!-- n9&#45;&gt;n8 -->
<g id="edge11" class="edge">
<title>n9&#45;&gt;n8</title>
<path fill="none" stroke="#64748b" d="M223.86,-232.75C234.66,-230.25 245.61,-227.68 256,-225.2 291.95,-216.61 331.73,-206.78 365.24,-198.4"/>
<polygon fill="#64748b" stroke="#64748b" points="365.51,-200.85 371.71,-196.78 364.32,-196.1 365.51,-200.85"/>
</g>
<!-- n10 -->
<g id="node5" class="node">
<title>n10</title>
<g id="a_node5"><a xlink:href="vscode://vscode-remote/wsl+Ubuntu/home/ai4stat/statlib/Statlib/HighDim/Concentration/HansonWright.lean:2057" xlink:title="lemma · Statlib/HighDim/Concentration/HansonWright.lean:2057" target="_blank">
<path fill="#eef2f6" stroke="#94a3b8" stroke-width="3" d="M231.91,-341.2C231.91,-341.2 28.09,-341.2 28.09,-341.2 22.09,-341.2 16.09,-335.2 16.09,-329.2 16.09,-329.2 16.09,-317.2 16.09,-317.2 16.09,-311.2 22.09,-305.2 28.09,-305.2 28.09,-305.2 231.91,-305.2 231.91,-305.2 237.91,-305.2 243.91,-311.2 243.91,-317.2 243.91,-317.2 243.91,-329.2 243.91,-329.2 243.91,-335.2 237.91,-341.2 231.91,-341.2"/>
<text xml:space="preserve" text-anchor="middle" x="130" y="-320.2" font-family="Helvetica,sans-Serif" font-size="10.00">coord_sq_centered_scaled_mgf_bound_explicit</text>
</a>
</g>
</g>
<!-- n10&#45;&gt;n0 -->
<g id="edge12" class="edge">
<title>n10&#45;&gt;n0</title>
<path fill="none" stroke="#64748b" d="M79.63,-303.81C64.49,-295.65 49.62,-284.37 41,-269.2 16.08,-225.36 40.04,-165.19 57.48,-131.83"/>
<polygon fill="#64748b" stroke="#64748b" points="59.63,-133 60.8,-125.67 55.31,-130.67 59.63,-133"/>
</g>
<!-- n10&#45;&gt;n9 -->
<g id="edge13" class="edge">
<title>n10&#45;&gt;n9</title>
<path fill="none" stroke="#64748b" d="M134.47,-303.81C136.43,-295.7 138.78,-286.05 140.9,-277.3"/>
<polygon fill="#64748b" stroke="#64748b" points="143.23,-278.12 142.5,-270.74 138.46,-276.96 143.23,-278.12"/>
</g>
<!-- n3 -->
<g id="node6" class="node">
<title>n3</title>
<g id="a_node6"><a xlink:href="vscode://vscode-remote/wsl+Ubuntu/home/ai4stat/statlib/Statlib/StatFoundation/RandomVariable/SubExponential/subexp_mgf_le_of_sq_subgaussian.lean:13" xlink:title="lemma · Statlib/StatFoundation/RandomVariable/SubExponential/subexp_mgf_le_of_sq_subgaussian.lean:13" target="_blank">
<path fill="#eef2f6" stroke="#94a3b8" d="M360.2,-124C360.2,-124 279.8,-124 279.8,-124 273.8,-124 267.8,-118 267.8,-112 267.8,-112 267.8,-100 267.8,-100 267.8,-94 273.8,-88 279.8,-88 279.8,-88 360.2,-88 360.2,-88 366.2,-88 372.2,-94 372.2,-100 372.2,-100 372.2,-112 372.2,-112 372.2,-118 366.2,-124 360.2,-124"/>
<text xml:space="preserve" text-anchor="middle" x="320" y="-103" font-family="Helvetica,sans-Serif" font-size="10.00">sub_gauss_tail_abs</text>
</a>
</g>
</g>
<!-- n4 -->
<g id="node7" class="node">
<title>n4</title>
<g id="a_node7"><a xlink:href="vscode://vscode-remote/wsl+Ubuntu/home/ai4stat/statlib/Statlib/StatFoundation/RandomVariable/SubGaussian/sq_le_two_mul_exp.lean:10" xlink:title="lemma · Statlib/StatFoundation/RandomVariable/SubGaussian/sq_le_two_mul_exp.lean:10" target="_blank">
<path fill="#eef2f6" stroke="#94a3b8" d="M482.19,-124C482.19,-124 401.81,-124 401.81,-124 395.81,-124 389.81,-118 389.81,-112 389.81,-112 389.81,-100 389.81,-100 389.81,-94 395.81,-88 401.81,-88 401.81,-88 482.19,-88 482.19,-88 488.19,-88 494.19,-94 494.19,-100 494.19,-100 494.19,-112 494.19,-112 494.19,-118 488.19,-124 482.19,-124"/>
<text xml:space="preserve" text-anchor="middle" x="442" y="-103" font-family="Helvetica,sans-Serif" font-size="10.00">sq_le_two_mul_exp</text>
</a>
</g>
</g>
<!-- n5 -->
<g id="node8" class="node">
<title>n5</title>
<g id="a_node8"><a xlink:href="vscode://vscode-remote/wsl+Ubuntu/home/ai4stat/statlib/Statlib/StatFoundation/RandomVariable/SubGaussian/subgaussian_meas_abs_ge_le_two_exp.lean:9" xlink:title="theorem · Statlib/StatFoundation/RandomVariable/SubGaussian/subgaussian_meas_abs_ge_le_two_exp.lean:9" target="_blank">
<path fill="#ffe6a3" stroke="#d4a017" d="M800.34,-52C800.34,-52 627.66,-52 627.66,-52 621.66,-52 615.66,-46 615.66,-40 615.66,-40 615.66,-28 615.66,-28 615.66,-22 621.66,-16 627.66,-16 627.66,-16 800.34,-16 800.34,-16 806.34,-16 812.34,-22 812.34,-28 812.34,-28 812.34,-40 812.34,-40 812.34,-46 806.34,-52 800.34,-52"/>
<text xml:space="preserve" text-anchor="middle" x="714" y="-31" font-family="Helvetica,sans-Serif" font-size="10.00">subgaussian_meas_abs_ge_le_two_exp</text>
</a>
</g>
</g>
<!-- n6 -->
<g id="node9" class="node">
<title>n6</title>
<g id="a_node9"><a xlink:href="vscode://vscode-remote/wsl+Ubuntu/home/ai4stat/statlib/Statlib/StatFoundation/RandomVariable/SubGaussian/subgaussian_exp_sq_le_at_one_third.lean:14" xlink:title="theorem · Statlib/StatFoundation/RandomVariable/SubGaussian/subgaussian_exp_sq_le_at_one_third.lean:14" target="_blank">
<path fill="#ffe6a3" stroke="#d4a017" d="M684.23,-124C684.23,-124 523.77,-124 523.77,-124 517.77,-124 511.77,-118 511.77,-112 511.77,-112 511.77,-100 511.77,-100 511.77,-94 517.77,-88 523.77,-88 523.77,-88 684.23,-88 684.23,-88 690.23,-88 696.23,-94 696.23,-100 696.23,-100 696.23,-112 696.23,-112 696.23,-118 690.23,-124 684.23,-124"/>
<text xml:space="preserve" text-anchor="middle" x="604" y="-103" font-family="Helvetica,sans-Serif" font-size="10.00">subgaussian_exp_sq_le_at_one_third</text>
</a>
</g>
</g>
<!-- n6&#45;&gt;n5 -->
<g id="edge3" class="edge">
<title>n6&#45;&gt;n5</title>
<path fill="none" stroke="#64748b" d="M631.47,-87.52C646.15,-78.18 664.36,-66.59 679.93,-56.68"/>
<polygon fill="#64748b" stroke="#64748b" points="681.01,-58.9 685.6,-53.07 678.38,-54.76 681.01,-58.9"/>
</g>
<!-- n7 -->
<g id="node10" class="node">
<title>n7</title>
<g id="a_node10"><a xlink:href="vscode://vscode-remote/wsl+Ubuntu/home/ai4stat/statlib/Statlib/StatFoundation/RandomVariable/SubGaussian/subgaussian_exp_sq_le_at_one_third.lean:165" xlink:title="theorem · Statlib/StatFoundation/RandomVariable/SubGaussian/subgaussian_exp_sq_le_at_one_third.lean:165" target="_blank">
<path fill="#ffe6a3" stroke="#d4a017" d="M923.3,-124C923.3,-124 726.7,-124 726.7,-124 720.7,-124 714.7,-118 714.7,-112 714.7,-112 714.7,-100 714.7,-100 714.7,-94 720.7,-88 726.7,-88 726.7,-88 923.3,-88 923.3,-88 929.3,-88 935.3,-94 935.3,-100 935.3,-100 935.3,-112 935.3,-112 935.3,-118 929.3,-124 923.3,-124"/>
<text xml:space="preserve" text-anchor="middle" x="825" y="-103" font-family="Helvetica,sans-Serif" font-size="10.00">subgaussian_integrable_exp_sq_at_one_third</text>
</a>
</g>
</g>
<!-- n7&#45;&gt;n5 -->
<g id="edge4" class="edge">
<title>n7&#45;&gt;n5</title>
<path fill="none" stroke="#64748b" d="M797.28,-87.52C782.46,-78.18 764.1,-66.59 748.38,-56.68"/>
<polygon fill="#64748b" stroke="#64748b" points="749.88,-54.73 742.65,-53.07 747.26,-58.87 749.88,-54.73"/>
</g>
<!-- n8&#45;&gt;n3 -->
<g id="edge5" class="edge">
<title>n8&#45;&gt;n3</title>
<path fill="none" stroke="#64748b" d="M411.53,-159.52C395.1,-150.09 374.7,-138.38 357.32,-128.41"/>
<polygon fill="#64748b" stroke="#64748b" points="358.69,-126.37 351.4,-125.01 356.25,-130.62 358.69,-126.37"/>
</g>
<!-- n8&#45;&gt;n4 -->
<g id="edge6" class="edge">
<title>n8&#45;&gt;n4</title>
<path fill="none" stroke="#64748b" d="M442,-159.7C442,-151.47 442,-141.48 442,-132.42"/>
<polygon fill="#64748b" stroke="#64748b" points="444.45,-132.62 442,-125.62 439.55,-132.62 444.45,-132.62"/>
</g>
<!-- n8&#45;&gt;n6 -->
<g id="edge7" class="edge">
<title>n8&#45;&gt;n6</title>
<path fill="none" stroke="#64748b" d="M482.46,-159.52C504.77,-149.88 532.62,-137.84 556.02,-127.73"/>
<polygon fill="#64748b" stroke="#64748b" points="556.93,-130.01 562.38,-124.98 554.99,-125.51 556.93,-130.01"/>
</g>
<!-- n8&#45;&gt;n7 -->
<g id="edge8" class="edge">
<title>n8&#45;&gt;n7</title>
<path fill="none" stroke="#64748b" d="M537.66,-159.52C593.52,-149.31 664.03,-136.42 721.23,-125.97"/>
<polygon fill="#64748b" stroke="#64748b" points="721.63,-128.38 728.08,-124.71 720.75,-123.56 721.63,-128.38"/>
</g>
</g>
</svg>
