<?xml version="1.0" encoding="UTF-8" standalone="no"?>
<!DOCTYPE svg PUBLIC "-//W3C//DTD SVG 1.1//EN"
 "http://www.w3.org/Graphics/SVG/1.1/DTD/svg11.dtd">
<!-- Generated by graphviz version 15.0.0 (20260523.1842)
 -->
<!-- Title: coord_sq_centered_scaled_mgf_bound_explicit Pages: 1 -->
<svg width="983pt" height="411pt"
 viewBox="0.00 0.00 983.00 411.00" xmlns="http://www.w3.org/2000/svg" xmlns:xlink="http://www.w3.org/1999/xlink">
<g id="graph0" class="graph" transform="scale(1 1) rotate(0) translate(4 407.2)">
<title>coord_sq_centered_scaled_mgf_bound_explicit</title>
<polygon fill="white" stroke="none" points="-4,4 -4,-407.2 979,-407.2 979,4 -4,4"/>
<text xml:space="preserve" text-anchor="middle" x="487.5" y="-386.6" font-family="Helvetica,sans-Serif" font-size="14.00">Proof narrative — coord_sq_centered_scaled_mgf_bound_explicit &#160;(12 decls)</text>
<g id="clust1" class="cluster">
<title>cluster_0</title>
<path fill="none" stroke="#cbd5e1" stroke-dasharray="5,2" d="M20,-80C20,-80 264,-80 264,-80 270,-80 276,-86 276,-92 276,-92 276,-358.4 276,-358.4 276,-364.4 270,-370.4 264,-370.4 264,-370.4 20,-370.4 20,-370.4 14,-370.4 8,-364.4 8,-358.4 8,-358.4 8,-92 8,-92 8,-86 14,-80 20,-80"/>
<text xml:space="preserve" text-anchor="middle" x="142" y="-356.5" font-family="Helvetica,sans-Serif" font-size="11.00">HighDim</text>
</g>
<g id="clust2" class="cluster">
<title>cluster_1</title>
<path fill="none" stroke="#cbd5e1" stroke-dasharray="5,2" d="M296,-8C296,-8 955,-8 955,-8 961,-8 967,-14 967,-20 967,-20 967,-213.2 967,-213.2 967,-219.2 961,-225.2 955,-225.2 955,-225.2 296,-225.2 296,-225.2 290,-225.2 284,-219.2 284,-213.2 284,-213.2 284,-20 284,-20 284,-14 290,-8 296,-8"/>
<text xml:space="preserve" text-anchor="middle" x="625.5" y="-211.3" font-family="Helvetica,sans-Serif" font-size="11.00">StatFoundation</text>
</g>
<!-- n0 -->
<g id="node1" class="node">
<title>n0</title>
<g id="a_node1"><a xlink:href="vscode://vscode-remote/wsl+Ubuntu/home/ai4stat/statlib/Statlib/HighDim/Vocabulary/RandomVector.lean:83" xlink:title="structure · Statlib/HighDim/Vocabulary/RandomVector.lean:83" target="_blank">
<path fill="#e8dcff" stroke="#8b5cf6" d="M82.4,-196C82.4,-196 47.6,-196 47.6,-196 41.6,-196 35.6,-190 35.6,-184 35.6,-184 35.6,-172 35.6,-172 35.6,-166 41.6,-160 47.6,-160 47.6,-160 82.4,-160 82.4,-160 88.4,-160 94.4,-166 94.4,-172 94.4,-172 94.4,-184 94.4,-184 94.4,-190 88.4,-196 82.4,-196"/>
<text xml:space="preserve" text-anchor="middle" x="65" y="-175" font-family="Helvetica,sans-Serif" font-size="10.00">HasMean</text>
</a>
</g>
</g>
<!-- n1 -->
<g id="node2" class="node">
<title>n1</title>
<g id="a_node2"><a xlink:href="vscode://vscode-remote/wsl+Ubuntu/home/ai4stat/statlib/Statlib/HighDim/Vocabulary/RandomVector.lean:52" xlink:title="structure · Statlib/HighDim/Vocabulary/RandomVector.lean:52" target="_blank">
<path fill="#e8dcff" stroke="#8b5cf6" d="M143.36,-124C143.36,-124 54.64,-124 54.64,-124 48.64,-124 42.64,-118 42.64,-112 42.64,-112 42.64,-100 42.64,-100 42.64,-94 48.64,-88 54.64,-88 54.64,-88 143.36,-88 143.36,-88 149.36,-88 155.36,-94 155.36,-100 155.36,-100 155.36,-112 155.36,-112 155.36,-118 149.36,-124 143.36,-124"/>
<text xml:space="preserve" text-anchor="middle" x="99" y="-103" font-family="Helvetica,sans-Serif" font-size="10.00">IsSubGaussianVector</text>
</a>
</g>
</g>
<!-- n2 -->
<g id="node3" class="node">
<title>n2</title>
<g id="a_node3"><a xlink:href="vscode://vscode-remote/wsl+Ubuntu/home/ai4stat/statlib/Statlib/HighDim/Vocabulary/Norms.lean:32" xlink:title="lemma · Statlib/HighDim/Vocabulary/Norms.lean:32" target="_blank">
<path fill="#eef2f6" stroke="#94a3b8" d="M240.69,-124C240.69,-124 185.31,-124 185.31,-124 179.31,-124 173.31,-118 173.31,-112 173.31,-112 173.31,-100 173.31,-100 173.31,-94 179.31,-88 185.31,-88 185.31,-88 240.69,-88 240.69,-88 246.69,-88 252.69,-94 252.69,-100 252.69,-100 252.69,-112 252.69,-112 252.69,-118 246.69,-124 240.69,-124"/>
<text xml:space="preserve" text-anchor="middle" x="213" y="-103" font-family="Helvetica,sans-Serif" font-size="10.00">inner_eq_sum</text>
</a>
</g>
</g>
<!-- n3 -->
<g id="node4" class="node">
<title>n3</title>
<g id="a_node4"><a xlink:href="vscode://vscode-remote/wsl+Ubuntu/home/ai4stat/statlib/Statlib/HighDim/Concentration/HansonWright.lean:1389" xlink:title="lemma · Statlib/HighDim/Concentration/HansonWright.lean:1389" target="_blank">
<path fill="#eef2f6" stroke="#94a3b8" d="M255.76,-196C255.76,-196 144.24,-196 144.24,-196 138.24,-196 132.24,-190 132.24,-184 132.24,-184 132.24,-172 132.24,-172 132.24,-166 138.24,-160 144.24,-160 144.24,-160 255.76,-160 255.76,-160 261.76,-160 267.76,-166 267.76,-172 267.76,-172 267.76,-184 267.76,-184 267.76,-190 261.76,-196 255.76,-196"/>
<text xml:space="preserve" text-anchor="middle" x="200" y="-175" font-family="Helvetica,sans-Serif" font-size="10.00">subgaussian_vector_coord</text>
</a>
</g>
</g>
<!-- n3&#45;&gt;n1 -->
<g id="edge1" class="edge">
<title>n3&#45;&gt;n1</title>
<path fill="none" stroke="#64748b" d="M174.77,-159.52C161.42,-150.26 144.88,-138.8 130.67,-128.95"/>
<polygon fill="#64748b" stroke="#64748b" points="132.3,-127.1 125.15,-125.12 129.51,-131.12 132.3,-127.1"/>
</g>
<!-- n3&#45;&gt;n2 -->
<g id="edge2" class="edge">
<title>n3&#45;&gt;n2</title>
<path fill="none" stroke="#64748b" d="M203.21,-159.7C204.74,-151.47 206.6,-141.48 208.28,-132.42"/>
<polygon fill="#64748b" stroke="#64748b" points="210.68,-132.92 209.55,-125.59 205.86,-132.03 210.68,-132.92"/>
</g>
<!-- n10 -->
<g id="node5" class="node">
<title>n10</title>
<g id="a_node5"><a xlink:href="vscode://vscode-remote/wsl+Ubuntu/home/ai4stat/statlib/Statlib/HighDim/Concentration/HansonWright.lean:2044" xlink:title="lemma · Statlib/HighDim/Concentration/HansonWright.lean:2044" target="_blank">
<path fill="#eef2f6" stroke="#94a3b8" d="M255.67,-269.2C255.67,-269.2 86.33,-269.2 86.33,-269.2 80.33,-269.2 74.33,-263.2 74.33,-257.2 74.33,-257.2 74.33,-245.2 74.33,-245.2 74.33,-239.2 80.33,-233.2 86.33,-233.2 86.33,-233.2 255.67,-233.2 255.67,-233.2 261.67,-233.2 267.67,-239.2 267.67,-245.2 267.67,-245.2 267.67,-257.2 267.67,-257.2 267.67,-263.2 261.67,-269.2 255.67,-269.2"/>
<text xml:space="preserve" text-anchor="middle" x="171" y="-248.2" font-family="Helvetica,sans-Serif" font-size="10.00">coord_sq_centered_mgf_bound_explicit</text>
</a>
</g>
</g>
<!-- n10&#45;&gt;n0 -->
<g id="edge9" class="edge">
<title>n10&#45;&gt;n0</title>
<path fill="none" stroke="#64748b" d="M121.08,-232.84C116.52,-230.54 112.08,-227.99 108,-225.2 98.77,-218.89 90.07,-210.28 82.94,-202.2"/>
<polygon fill="#64748b" stroke="#64748b" points="85.2,-201.06 78.8,-197.32 81.46,-204.24 85.2,-201.06"/>
</g>
<!-- n10&#45;&gt;n1 -->
<g id="edge10" class="edge">
<title>n10&#45;&gt;n1</title>
<path fill="none" stroke="#64748b" d="M130.53,-232.89C127.72,-230.61 125.15,-228.05 123,-225.2 112.22,-210.89 105.13,-162.9 101.61,-132.65"/>
<polygon fill="#64748b" stroke="#64748b" points="104.05,-132.45 100.84,-125.76 99.18,-132.99 104.05,-132.45"/>
</g>
<!-- n10&#45;&gt;n3 -->
<g id="edge11" class="edge">
<title>n10&#45;&gt;n3</title>
<path fill="none" stroke="#64748b" d="M178.02,-232.96C181.58,-224.22 185.97,-213.44 189.89,-203.82"/>
<polygon fill="#64748b" stroke="#64748b" points="192.1,-204.89 192.47,-197.48 187.56,-203.04 192.1,-204.89"/>
</g>
<!-- n9 -->
<g id="node12" class="node">
<title>n9</title>
<g id="a_node12"><a xlink:href="vscode://vscode-remote/wsl+Ubuntu/home/ai4stat/statlib/Statlib/StatFoundation/RandomVariable/SubExponential/subexp_mgf_le_of_sq_subgaussian.lean:72" xlink:title="theorem · Statlib/StatFoundation/RandomVariable/SubExponential/subexp_mgf_le_of_sq_subgaussian.lean:72" target="_blank">
<path fill="#ffe6a3" stroke="#d4a017" d="M559.84,-196C559.84,-196 372.16,-196 372.16,-196 366.16,-196 360.16,-190 360.16,-184 360.16,-184 360.16,-172 360.16,-172 360.16,-166 366.16,-160 372.16,-160 372.16,-160 559.84,-160 559.84,-160 565.84,-160 571.84,-166 571.84,-172 571.84,-172 571.84,-184 571.84,-184 571.84,-190 565.84,-196 559.84,-196"/>
<text xml:space="preserve" text-anchor="middle" x="466" y="-175" font-family="Helvetica,sans-Serif" font-size="10.00">subexp_mgf_le_of_sq_subgaussian_explicit</text>
</a>
</g>
</g>
<!-- n10&#45;&gt;n9 -->
<g id="edge12" class="edge">
<title>n10&#45;&gt;n9</title>
<path fill="none" stroke="#64748b" d="M247.86,-232.75C258.66,-230.25 269.61,-227.68 280,-225.2 315.95,-216.61 355.73,-206.78 389.24,-198.4"/>
<polygon fill="#64748b" stroke="#64748b" points="389.51,-200.85 395.71,-196.78 388.32,-196.1 389.51,-200.85"/>
</g>
<!-- n11 -->
<g id="node6" class="node">
<title>n11</title>
<g id="a_node6"><a xlink:href="vscode://vscode-remote/wsl+Ubuntu/home/ai4stat/statlib/Statlib/HighDim/Concentration/HansonWright.lean:2065" xlink:title="lemma · Statlib/HighDim/Concentration/HansonWright.lean:2065" target="_blank">
<path fill="#eef2f6" stroke="#94a3b8" stroke-width="3" d="M231.91,-341.2C231.91,-341.2 28.09,-341.2 28.09,-341.2 22.09,-341.2 16.09,-335.2 16.09,-329.2 16.09,-329.2 16.09,-317.2 16.09,-317.2 16.09,-311.2 22.09,-305.2 28.09,-305.2 28.09,-305.2 231.91,-305.2 231.91,-305.2 237.91,-305.2 243.91,-311.2 243.91,-317.2 243.91,-317.2 243.91,-329.2 243.91,-329.2 243.91,-335.2 237.91,-341.2 231.91,-341.2"/>
<text xml:space="preserve" text-anchor="middle" x="130" y="-320.2" font-family="Helvetica,sans-Serif" font-size="10.00">coord_sq_centered_scaled_mgf_bound_explicit</text>
</a>
</g>
</g>
<!-- n11&#45;&gt;n0 -->
<g id="edge13" class="edge">
<title>n11&#45;&gt;n0</title>
<path fill="none" stroke="#64748b" d="M96.71,-303.78C84.37,-295.06 71.75,-283.4 65,-269.2 55.43,-249.05 56.51,-223.4 59.35,-204.61"/>
<polygon fill="#64748b" stroke="#64748b" points="61.76,-205.05 60.54,-197.73 56.93,-204.21 61.76,-205.05"/>
</g>
<!-- n11&#45;&gt;n1 -->
<g id="edge14" class="edge">
<title>n11&#45;&gt;n1</title>
<path fill="none" stroke="#64748b" d="M95.85,-303.86C69.74,-287.39 36.62,-260.39 27,-225.2 19.36,-197.25 13.92,-185.86 27,-160 33.38,-147.38 44.34,-137.03 55.81,-128.93"/>
<polygon fill="#64748b" stroke="#64748b" points="56.86,-131.18 61.33,-125.26 54.15,-127.09 56.86,-131.18"/>
</g>
<!-- n11&#45;&gt;n10 -->
<g id="edge15" class="edge">
<title>n11&#45;&gt;n10</title>
<path fill="none" stroke="#64748b" d="M140.77,-303.81C145.67,-295.45 151.52,-285.46 156.77,-276.49"/>
<polygon fill="#64748b" stroke="#64748b" points="158.81,-277.85 160.24,-270.57 154.59,-275.38 158.81,-277.85"/>
</g>
<!-- n4 -->
<g id="node7" class="node">
<title>n4</title>
<g id="a_node7"><a xlink:href="vscode://vscode-remote/wsl+Ubuntu/home/ai4stat/statlib/Statlib/StatFoundation/RandomVariable/SubExponential/subexp_mgf_le_of_sq_subgaussian.lean:13" xlink:title="lemma · Statlib/StatFoundation/RandomVariable/SubExponential/subexp_mgf_le_of_sq_subgaussian.lean:13" target="_blank">
<path fill="#eef2f6" stroke="#94a3b8" d="M384.2,-124C384.2,-124 303.8,-124 303.8,-124 297.8,-124 291.8,-118 291.8,-112 291.8,-112 291.8,-100 291.8,-100 291.8,-94 297.8,-88 303.8,-88 303.8,-88 384.2,-88 384.2,-88 390.2,-88 396.2,-94 396.2,-100 396.2,-100 396.2,-112 396.2,-112 396.2,-118 390.2,-124 384.2,-124"/>
<text xml:space="preserve" text-anchor="middle" x="344" y="-103" font-family="Helvetica,sans-Serif" font-size="10.00">sub_gauss_tail_abs</text>
</a>
</g>
</g>
<!-- n5 -->
<g id="node8" class="node">
<title>n5</title>
<g id="a_node8"><a xlink:href="vscode://vscode-remote/wsl+Ubuntu/home/ai4stat/statlib/Statlib/StatFoundation/RandomVariable/SubGaussian/sq_le_two_mul_exp.lean:10" xlink:title="lemma · Statlib/StatFoundation/RandomVariable/SubGaussian/sq_le_two_mul_exp.lean:10" target="_blank">
<path fill="#eef2f6" stroke="#94a3b8" d="M506.19,-124C506.19,-124 425.81,-124 425.81,-124 419.81,-124 413.81,-118 413.81,-112 413.81,-112 413.81,-100 413.81,-100 413.81,-94 419.81,-88 425.81,-88 425.81,-88 506.19,-88 506.19,-88 512.19,-88 518.19,-94 518.19,-100 518.19,-100 518.19,-112 518.19,-112 518.19,-118 512.19,-124 506.19,-124"/>
<text xml:space="preserve" text-anchor="middle" x="466" y="-103" font-family="Helvetica,sans-Serif" font-size="10.00">sq_le_two_mul_exp</text>
</a>
</g>
</g>
<!-- n6 -->
<g id="node9" class="node">
<title>n6</title>
<g id="a_node9"><a xlink:href="vscode://vscode-remote/wsl+Ubuntu/home/ai4stat/statlib/Statlib/StatFoundation/RandomVariable/SubGaussian/subgaussian_meas_abs_ge_le_two_exp.lean:9" xlink:title="theorem · Statlib/StatFoundation/RandomVariable/SubGaussian/subgaussian_meas_abs_ge_le_two_exp.lean:9" target="_blank">
<path fill="#ffe6a3" stroke="#d4a017" d="M824.34,-52C824.34,-52 651.66,-52 651.66,-52 645.66,-52 639.66,-46 639.66,-40 639.66,-40 639.66,-28 639.66,-28 639.66,-22 645.66,-16 651.66,-16 651.66,-16 824.34,-16 824.34,-16 830.34,-16 836.34,-22 836.34,-28 836.34,-28 836.34,-40 836.34,-40 836.34,-46 830.34,-52 824.34,-52"/>
<text xml:space="preserve" text-anchor="middle" x="738" y="-31" font-family="Helvetica,sans-Serif" font-size="10.00">subgaussian_meas_abs_ge_le_two_exp</text>
</a>
</g>
</g>
<!-- n7 -->
<g id="node10" class="node">
<title>n7</title>
<g id="a_node10"><a xlink:href="vscode://vscode-remote/wsl+Ubuntu/home/ai4stat/statlib/Statlib/StatFoundation/RandomVariable/SubGaussian/subgaussian_exp_sq_le_at_one_third.lean:14" xlink:title="theorem · Statlib/StatFoundation/RandomVariable/SubGaussian/subgaussian_exp_sq_le_at_one_third.lean:14" target="_blank">
<path fill="#ffe6a3" stroke="#d4a017" d="M708.23,-124C708.23,-124 547.77,-124 547.77,-124 541.77,-124 535.77,-118 535.77,-112 535.77,-112 535.77,-100 535.77,-100 535.77,-94 541.77,-88 547.77,-88 547.77,-88 708.23,-88 708.23,-88 714.23,-88 720.23,-94 720.23,-100 720.23,-100 720.23,-112 720.23,-112 720.23,-118 714.23,-124 708.23,-124"/>
<text xml:space="preserve" text-anchor="middle" x="628" y="-103" font-family="Helvetica,sans-Serif" font-size="10.00">subgaussian_exp_sq_le_at_one_third</text>
</a>
</g>
</g>
<!-- n7&#45;&gt;n6 -->
<g id="edge3" class="edge">
<title>n7&#45;&gt;n6</title>
<path fill="none" stroke="#64748b" d="M655.47,-87.52C670.15,-78.18 688.36,-66.59 703.93,-56.68"/>
<polygon fill="#64748b" stroke="#64748b" points="705.01,-58.9 709.6,-53.07 702.38,-54.76 705.01,-58.9"/>
</g>
<!-- n8 -->
<g id="node11" class="node">
<title>n8</title>
<g id="a_node11"><a xlink:href="vscode://vscode-remote/wsl+Ubuntu/home/ai4stat/statlib/Statlib/StatFoundation/RandomVariable/SubGaussian/subgaussian_exp_sq_le_at_one_third.lean:166" xlink:title="theorem · Statlib/StatFoundation/RandomVariable/SubGaussian/subgaussian_exp_sq_le_at_one_third.lean:166" target="_blank">
<path fill="#ffe6a3" stroke="#d4a017" d="M947.3,-124C947.3,-124 750.7,-124 750.7,-124 744.7,-124 738.7,-118 738.7,-112 738.7,-112 738.7,-100 738.7,-100 738.7,-94 744.7,-88 750.7,-88 750.7,-88 947.3,-88 947.3,-88 953.3,-88 959.3,-94 959.3,-100 959.3,-100 959.3,-112 959.3,-112 959.3,-118 953.3,-124 947.3,-124"/>
<text xml:space="preserve" text-anchor="middle" x="849" y="-103" font-family="Helvetica,sans-Serif" font-size="10.00">subgaussian_integrable_exp_sq_at_one_third</text>
</a>
</g>
</g>
<!-- n8&#45;&gt;n6 -->
<g id="edge4" class="edge">
<title>n8&#45;&gt;n6</title>
<path fill="none" stroke="#64748b" d="M821.28,-87.52C806.46,-78.18 788.1,-66.59 772.38,-56.68"/>
<polygon fill="#64748b" stroke="#64748b" points="773.88,-54.73 766.65,-53.07 771.26,-58.87 773.88,-54.73"/>
</g>
<!-- n9&#45;&gt;n4 -->
<g id="edge5" class="edge">
<title>n9&#45;&gt;n4</title>
<path fill="none" stroke="#64748b" d="M435.53,-159.52C419.1,-150.09 398.7,-138.38 381.32,-128.41"/>
<polygon fill="#64748b" stroke="#64748b" points="382.69,-126.37 375.4,-125.01 380.25,-130.62 382.69,-126.37"/>
</g>
<!-- n9&#45;&gt;n5 -->
<g id="edge6" class="edge">
<title>n9&#45;&gt;n5</title>
<path fill="none" stroke="#64748b" d="M466,-159.7C466,-151.47 466,-141.48 466,-132.42"/>
<polygon fill="#64748b" stroke="#64748b" points="468.45,-132.62 466,-125.62 463.55,-132.62 468.45,-132.62"/>
</g>
<!-- n9&#45;&gt;n7 -->
<g id="edge7" class="edge">
<title>n9&#45;&gt;n7</title>
<path fill="none" stroke="#64748b" d="M506.46,-159.52C528.77,-149.88 556.62,-137.84 580.02,-127.73"/>
<polygon fill="#64748b" stroke="#64748b" points="580.93,-130.01 586.38,-124.98 578.99,-125.51 580.93,-130.01"/>
</g>
<!-- n9&#45;&gt;n8 -->
<g id="edge8" class="edge">
<title>n9&#45;&gt;n8</title>
<path fill="none" stroke="#64748b" d="M561.66,-159.52C617.52,-149.31 688.03,-136.42 745.23,-125.97"/>
<polygon fill="#64748b" stroke="#64748b" points="745.63,-128.38 752.08,-124.71 744.75,-123.56 745.63,-128.38"/>
</g>
</g>
</svg>
