<?xml version="1.0" encoding="UTF-8" standalone="no"?>
<!DOCTYPE svg PUBLIC "-//W3C//DTD SVG 1.1//EN"
 "http://www.w3.org/Graphics/SVG/1.1/DTD/svg11.dtd">
<!-- Generated by graphviz version 15.0.0 (20260523.1842)
 -->
<!-- Title: coord_sq_centered_mgf_bound Pages: 1 -->
<svg width="963pt" height="411pt"
 viewBox="0.00 0.00 963.00 411.00" xmlns="http://www.w3.org/2000/svg" xmlns:xlink="http://www.w3.org/1999/xlink">
<g id="graph0" class="graph" transform="scale(1 1) rotate(0) translate(4 407.2)">
<title>coord_sq_centered_mgf_bound</title>
<polygon fill="white" stroke="none" points="-4,4 -4,-407.2 959,-407.2 959,4 -4,4"/>
<text xml:space="preserve" text-anchor="middle" x="477.5" y="-386.6" font-family="Helvetica,sans-Serif" font-size="14.00">Proof narrative — coord_sq_centered_mgf_bound &#160;(12 decls)</text>
<g id="clust1" class="cluster">
<title>cluster_0</title>
<path fill="none" stroke="#cbd5e1" stroke-dasharray="5,2" d="M20,-152C20,-152 244,-152 244,-152 250,-152 256,-158 256,-164 256,-164 256,-358.4 256,-358.4 256,-364.4 250,-370.4 244,-370.4 244,-370.4 20,-370.4 20,-370.4 14,-370.4 8,-364.4 8,-358.4 8,-358.4 8,-164 8,-164 8,-158 14,-152 20,-152"/>
<text xml:space="preserve" text-anchor="middle" x="132" y="-356.5" font-family="Helvetica,sans-Serif" font-size="11.00">HighDim</text>
</g>
<g id="clust2" class="cluster">
<title>cluster_1</title>
<path fill="none" stroke="#cbd5e1" stroke-dasharray="5,2" d="M276,-8C276,-8 935,-8 935,-8 941,-8 947,-14 947,-20 947,-20 947,-285.2 947,-285.2 947,-291.2 941,-297.2 935,-297.2 935,-297.2 276,-297.2 276,-297.2 270,-297.2 264,-291.2 264,-285.2 264,-285.2 264,-20 264,-20 264,-14 270,-8 276,-8"/>
<text xml:space="preserve" text-anchor="middle" x="605.5" y="-283.3" font-family="Helvetica,sans-Serif" font-size="11.00">StatFoundation</text>
</g>
<!-- n0 -->
<g id="node1" class="node">
<title>n0</title>
<g id="a_node1"><a xlink:href="vscode://vscode-remote/wsl+Ubuntu/home/gavin/statlib/Statlib/HighDim/Vocabulary/RandomVector.lean:83" xlink:title="structure · Statlib/HighDim/Vocabulary/RandomVector.lean:83" target="_blank">
<path fill="#e8dcff" stroke="#8b5cf6" d="M62.4,-268C62.4,-268 27.6,-268 27.6,-268 21.6,-268 15.6,-262 15.6,-256 15.6,-256 15.6,-244 15.6,-244 15.6,-238 21.6,-232 27.6,-232 27.6,-232 62.4,-232 62.4,-232 68.4,-232 74.4,-238 74.4,-244 74.4,-244 74.4,-256 74.4,-256 74.4,-262 68.4,-268 62.4,-268"/>
<text xml:space="preserve" text-anchor="middle" x="45" y="-247" font-family="Helvetica,sans-Serif" font-size="10.00">HasMean</text>
</a>
</g>
</g>
<!-- n1 -->
<g id="node2" class="node">
<title>n1</title>
<g id="a_node2"><a xlink:href="vscode://vscode-remote/wsl+Ubuntu/home/gavin/statlib/Statlib/HighDim/Vocabulary/RandomVector.lean:52" xlink:title="structure · Statlib/HighDim/Vocabulary/RandomVector.lean:52" target="_blank">
<path fill="#e8dcff" stroke="#8b5cf6" d="M137.36,-196C137.36,-196 48.64,-196 48.64,-196 42.64,-196 36.64,-190 36.64,-184 36.64,-184 36.64,-172 36.64,-172 36.64,-166 42.64,-160 48.64,-160 48.64,-160 137.36,-160 137.36,-160 143.36,-160 149.36,-166 149.36,-172 149.36,-172 149.36,-184 149.36,-184 149.36,-190 143.36,-196 137.36,-196"/>
<text xml:space="preserve" text-anchor="middle" x="93" y="-175" font-family="Helvetica,sans-Serif" font-size="10.00">IsSubGaussianVector</text>
</a>
</g>
</g>
<!-- n2 -->
<g id="node3" class="node">
<title>n2</title>
<g id="a_node3"><a xlink:href="vscode://vscode-remote/wsl+Ubuntu/home/gavin/statlib/Statlib/HighDim/Vocabulary/Norms.lean:32" xlink:title="lemma · Statlib/HighDim/Vocabulary/Norms.lean:32" target="_blank">
<path fill="#eef2f6" stroke="#94a3b8" d="M234.69,-196C234.69,-196 179.31,-196 179.31,-196 173.31,-196 167.31,-190 167.31,-184 167.31,-184 167.31,-172 167.31,-172 167.31,-166 173.31,-160 179.31,-160 179.31,-160 234.69,-160 234.69,-160 240.69,-160 246.69,-166 246.69,-172 246.69,-172 246.69,-184 246.69,-184 246.69,-190 240.69,-196 234.69,-196"/>
<text xml:space="preserve" text-anchor="middle" x="207" y="-175" font-family="Helvetica,sans-Serif" font-size="10.00">inner_eq_sum</text>
</a>
</g>
</g>
<!-- n3 -->
<g id="node4" class="node">
<title>n3</title>
<g id="a_node4"><a xlink:href="vscode://vscode-remote/wsl+Ubuntu/home/gavin/statlib/Statlib/HighDim/Concentration/HansonWright.lean:1389" xlink:title="lemma · Statlib/HighDim/Concentration/HansonWright.lean:1389" target="_blank">
<path fill="#eef2f6" stroke="#94a3b8" d="M235.76,-268C235.76,-268 124.24,-268 124.24,-268 118.24,-268 112.24,-262 112.24,-256 112.24,-256 112.24,-244 112.24,-244 112.24,-238 118.24,-232 124.24,-232 124.24,-232 235.76,-232 235.76,-232 241.76,-232 247.76,-238 247.76,-244 247.76,-244 247.76,-256 247.76,-256 247.76,-262 241.76,-268 235.76,-268"/>
<text xml:space="preserve" text-anchor="middle" x="180" y="-247" font-family="Helvetica,sans-Serif" font-size="10.00">subgaussian_vector_coord</text>
</a>
</g>
</g>
<!-- n3&#45;&gt;n1 -->
<g id="edge1" class="edge">
<title>n3&#45;&gt;n1</title>
<path fill="none" stroke="#64748b" d="M158.49,-231.7C147.2,-222.61 133.22,-211.36 121.09,-201.6"/>
<polygon fill="#64748b" stroke="#64748b" points="122.73,-199.78 115.74,-197.3 119.66,-203.59 122.73,-199.78"/>
</g>
<!-- n3&#45;&gt;n2 -->
<g id="edge2" class="edge">
<title>n3&#45;&gt;n2</title>
<path fill="none" stroke="#64748b" d="M186.67,-231.7C189.91,-223.3 193.86,-213.07 197.41,-203.86"/>
<polygon fill="#64748b" stroke="#64748b" points="199.62,-204.93 199.86,-197.52 195.05,-203.17 199.62,-204.93"/>
</g>
<!-- n11 -->
<g id="node5" class="node">
<title>n11</title>
<g id="a_node5"><a xlink:href="vscode://vscode-remote/wsl+Ubuntu/home/gavin/statlib/Statlib/HighDim/Concentration/HansonWright.lean:2021" xlink:title="lemma · Statlib/HighDim/Concentration/HansonWright.lean:2021" target="_blank">
<path fill="#eef2f6" stroke="#94a3b8" stroke-width="3" d="M198.61,-341.2C198.61,-341.2 65.39,-341.2 65.39,-341.2 59.39,-341.2 53.39,-335.2 53.39,-329.2 53.39,-329.2 53.39,-317.2 53.39,-317.2 53.39,-311.2 59.39,-305.2 65.39,-305.2 65.39,-305.2 198.61,-305.2 198.61,-305.2 204.61,-305.2 210.61,-311.2 210.61,-317.2 210.61,-317.2 210.61,-329.2 210.61,-329.2 210.61,-335.2 204.61,-341.2 198.61,-341.2"/>
<text xml:space="preserve" text-anchor="middle" x="132" y="-320.2" font-family="Helvetica,sans-Serif" font-size="10.00">coord_sq_centered_mgf_bound</text>
</a>
</g>
</g>
<!-- n11&#45;&gt;n0 -->
<g id="edge10" class="edge">
<title>n11&#45;&gt;n0</title>
<path fill="none" stroke="#64748b" d="M97.23,-303.8C94.02,-301.7 90.89,-299.49 88,-297.2 79.67,-290.62 71.49,-282.4 64.54,-274.73"/>
<polygon fill="#64748b" stroke="#64748b" points="66.48,-273.22 60.01,-269.6 62.8,-276.47 66.48,-273.22"/>
</g>
<!-- n11&#45;&gt;n1 -->
<g id="edge11" class="edge">
<title>n11&#45;&gt;n1</title>
<path fill="none" stroke="#64748b" d="M107.48,-303.9C105.75,-301.81 104.21,-299.57 103,-297.2 88.09,-267.99 87.86,-229.39 89.82,-204.38"/>
<polygon fill="#64748b" stroke="#64748b" points="92.23,-204.84 90.44,-197.65 87.36,-204.39 92.23,-204.84"/>
</g>
<!-- n11&#45;&gt;n3 -->
<g id="edge12" class="edge">
<title>n11&#45;&gt;n3</title>
<path fill="none" stroke="#64748b" d="M144.36,-303.86C150.29,-295.06 157.48,-284.41 163.84,-274.98"/>
<polygon fill="#64748b" stroke="#64748b" points="165.78,-276.48 167.66,-269.31 161.71,-273.74 165.78,-276.48"/>
</g>
<!-- n10 -->
<g id="node12" class="node">
<title>n10</title>
<g id="a_node12"><a xlink:href="vscode://vscode-remote/wsl+Ubuntu/home/gavin/statlib/Statlib/StatFoundation/RandomVariable/SubExponential/subexp_mgf_le_of_sq_subgaussian.lean:1224" xlink:title="theorem · Statlib/StatFoundation/RandomVariable/SubExponential/subexp_mgf_le_of_sq_subgaussian.lean:1224" target="_blank">
<path fill="#ffe6a3" stroke="#d4a017" d="M478.78,-268C478.78,-268 327.22,-268 327.22,-268 321.22,-268 315.22,-262 315.22,-256 315.22,-256 315.22,-244 315.22,-244 315.22,-238 321.22,-232 327.22,-232 327.22,-232 478.78,-232 478.78,-232 484.78,-232 490.78,-238 490.78,-244 490.78,-244 490.78,-256 490.78,-256 490.78,-262 484.78,-268 478.78,-268"/>
<text xml:space="preserve" text-anchor="middle" x="403" y="-247" font-family="Helvetica,sans-Serif" font-size="10.00">subexp_mgf_le_of_sq_subgaussian</text>
</a>
</g>
</g>
<!-- n11&#45;&gt;n10 -->
<g id="edge13" class="edge">
<title>n11&#45;&gt;n10</title>
<path fill="none" stroke="#64748b" d="M211.88,-308.13C227.89,-304.88 244.54,-301.19 260,-297.2 288.73,-289.78 320.16,-279.84 346.22,-271.07"/>
<polygon fill="#64748b" stroke="#64748b" points="346.84,-273.45 352.69,-268.88 345.27,-268.81 346.84,-273.45"/>
</g>
<!-- n4 -->
<g id="node6" class="node">
<title>n4</title>
<g id="a_node6"><a xlink:href="vscode://vscode-remote/wsl+Ubuntu/home/gavin/statlib/Statlib/StatFoundation/RandomVariable/SubExponential/subexp_mgf_le_of_sq_subgaussian.lean:13" xlink:title="lemma · Statlib/StatFoundation/RandomVariable/SubExponential/subexp_mgf_le_of_sq_subgaussian.lean:13" target="_blank">
<path fill="#eef2f6" stroke="#94a3b8" d="M364.2,-124C364.2,-124 283.8,-124 283.8,-124 277.8,-124 271.8,-118 271.8,-112 271.8,-112 271.8,-100 271.8,-100 271.8,-94 277.8,-88 283.8,-88 283.8,-88 364.2,-88 364.2,-88 370.2,-88 376.2,-94 376.2,-100 376.2,-100 376.2,-112 376.2,-112 376.2,-118 370.2,-124 364.2,-124"/>
<text xml:space="preserve" text-anchor="middle" x="324" y="-103" font-family="Helvetica,sans-Serif" font-size="10.00">sub_gauss_tail_abs</text>
</a>
</g>
</g>
<!-- n5 -->
<g id="node7" class="node">
<title>n5</title>
<g id="a_node7"><a xlink:href="vscode://vscode-remote/wsl+Ubuntu/home/gavin/statlib/Statlib/StatFoundation/RandomVariable/SubGaussian/sq_le_two_mul_exp.lean:10" xlink:title="lemma · Statlib/StatFoundation/RandomVariable/SubGaussian/sq_le_two_mul_exp.lean:10" target="_blank">
<path fill="#eef2f6" stroke="#94a3b8" d="M486.19,-124C486.19,-124 405.81,-124 405.81,-124 399.81,-124 393.81,-118 393.81,-112 393.81,-112 393.81,-100 393.81,-100 393.81,-94 399.81,-88 405.81,-88 405.81,-88 486.19,-88 486.19,-88 492.19,-88 498.19,-94 498.19,-100 498.19,-100 498.19,-112 498.19,-112 498.19,-118 492.19,-124 486.19,-124"/>
<text xml:space="preserve" text-anchor="middle" x="446" y="-103" font-family="Helvetica,sans-Serif" font-size="10.00">sq_le_two_mul_exp</text>
</a>
</g>
</g>
<!-- n6 -->
<g id="node8" class="node">
<title>n6</title>
<g id="a_node8"><a xlink:href="vscode://vscode-remote/wsl+Ubuntu/home/gavin/statlib/Statlib/StatFoundation/RandomVariable/SubGaussian/subgaussian_meas_abs_ge_le_two_exp.lean:9" xlink:title="theorem · Statlib/StatFoundation/RandomVariable/SubGaussian/subgaussian_meas_abs_ge_le_two_exp.lean:9" target="_blank">
<path fill="#ffe6a3" stroke="#d4a017" d="M804.34,-52C804.34,-52 631.66,-52 631.66,-52 625.66,-52 619.66,-46 619.66,-40 619.66,-40 619.66,-28 619.66,-28 619.66,-22 625.66,-16 631.66,-16 631.66,-16 804.34,-16 804.34,-16 810.34,-16 816.34,-22 816.34,-28 816.34,-28 816.34,-40 816.34,-40 816.34,-46 810.34,-52 804.34,-52"/>
<text xml:space="preserve" text-anchor="middle" x="718" y="-31" font-family="Helvetica,sans-Serif" font-size="10.00">subgaussian_meas_abs_ge_le_two_exp</text>
</a>
</g>
</g>
<!-- n7 -->
<g id="node9" class="node">
<title>n7</title>
<g id="a_node9"><a xlink:href="vscode://vscode-remote/wsl+Ubuntu/home/gavin/statlib/Statlib/StatFoundation/RandomVariable/SubGaussian/subgaussian_exp_sq_le_at_one_third.lean:14" xlink:title="theorem · Statlib/StatFoundation/RandomVariable/SubGaussian/subgaussian_exp_sq_le_at_one_third.lean:14" target="_blank">
<path fill="#ffe6a3" stroke="#d4a017" d="M688.23,-124C688.23,-124 527.77,-124 527.77,-124 521.77,-124 515.77,-118 515.77,-112 515.77,-112 515.77,-100 515.77,-100 515.77,-94 521.77,-88 527.77,-88 527.77,-88 688.23,-88 688.23,-88 694.23,-88 700.23,-94 700.23,-100 700.23,-100 700.23,-112 700.23,-112 700.23,-118 694.23,-124 688.23,-124"/>
<text xml:space="preserve" text-anchor="middle" x="608" y="-103" font-family="Helvetica,sans-Serif" font-size="10.00">subgaussian_exp_sq_le_at_one_third</text>
</a>
</g>
</g>
<!-- n7&#45;&gt;n6 -->
<g id="edge3" class="edge">
<title>n7&#45;&gt;n6</title>
<path fill="none" stroke="#64748b" d="M635.47,-87.52C650.15,-78.18 668.36,-66.59 683.93,-56.68"/>
<polygon fill="#64748b" stroke="#64748b" points="685.01,-58.9 689.6,-53.07 682.38,-54.76 685.01,-58.9"/>
</g>
<!-- n8 -->
<g id="node10" class="node">
<title>n8</title>
<g id="a_node10"><a xlink:href="vscode://vscode-remote/wsl+Ubuntu/home/gavin/statlib/Statlib/StatFoundation/RandomVariable/SubGaussian/subgaussian_exp_sq_le_at_one_third.lean:166" xlink:title="theorem · Statlib/StatFoundation/RandomVariable/SubGaussian/subgaussian_exp_sq_le_at_one_third.lean:166" target="_blank">
<path fill="#ffe6a3" stroke="#d4a017" d="M927.3,-124C927.3,-124 730.7,-124 730.7,-124 724.7,-124 718.7,-118 718.7,-112 718.7,-112 718.7,-100 718.7,-100 718.7,-94 724.7,-88 730.7,-88 730.7,-88 927.3,-88 927.3,-88 933.3,-88 939.3,-94 939.3,-100 939.3,-100 939.3,-112 939.3,-112 939.3,-118 933.3,-124 927.3,-124"/>
<text xml:space="preserve" text-anchor="middle" x="829" y="-103" font-family="Helvetica,sans-Serif" font-size="10.00">subgaussian_integrable_exp_sq_at_one_third</text>
</a>
</g>
</g>
<!-- n8&#45;&gt;n6 -->
<g id="edge4" class="edge">
<title>n8&#45;&gt;n6</title>
<path fill="none" stroke="#64748b" d="M801.28,-87.52C786.46,-78.18 768.1,-66.59 752.38,-56.68"/>
<polygon fill="#64748b" stroke="#64748b" points="753.88,-54.73 746.65,-53.07 751.26,-58.87 753.88,-54.73"/>
</g>
<!-- n9 -->
<g id="node11" class="node">
<title>n9</title>
<g id="a_node11"><a xlink:href="vscode://vscode-remote/wsl+Ubuntu/home/gavin/statlib/Statlib/StatFoundation/RandomVariable/SubExponential/subexp_mgf_le_of_sq_subgaussian.lean:72" xlink:title="theorem · Statlib/StatFoundation/RandomVariable/SubExponential/subexp_mgf_le_of_sq_subgaussian.lean:72" target="_blank">
<path fill="#ffe6a3" stroke="#d4a017" d="M539.84,-196C539.84,-196 352.16,-196 352.16,-196 346.16,-196 340.16,-190 340.16,-184 340.16,-184 340.16,-172 340.16,-172 340.16,-166 346.16,-160 352.16,-160 352.16,-160 539.84,-160 539.84,-160 545.84,-160 551.84,-166 551.84,-172 551.84,-172 551.84,-184 551.84,-184 551.84,-190 545.84,-196 539.84,-196"/>
<text xml:space="preserve" text-anchor="middle" x="446" y="-175" font-family="Helvetica,sans-Serif" font-size="10.00">subexp_mgf_le_of_sq_subgaussian_explicit</text>
</a>
</g>
</g>
<!-- n9&#45;&gt;n4 -->
<g id="edge5" class="edge">
<title>n9&#45;&gt;n4</title>
<path fill="none" stroke="#64748b" d="M415.53,-159.52C399.1,-150.09 378.7,-138.38 361.32,-128.41"/>
<polygon fill="#64748b" stroke="#64748b" points="362.69,-126.37 355.4,-125.01 360.25,-130.62 362.69,-126.37"/>
</g>
<!-- n9&#45;&gt;n5 -->
<g id="edge6" class="edge">
<title>n9&#45;&gt;n5</title>
<path fill="none" stroke="#64748b" d="M446,-159.7C446,-151.47 446,-141.48 446,-132.42"/>
<polygon fill="#64748b" stroke="#64748b" points="448.45,-132.62 446,-125.62 443.55,-132.62 448.45,-132.62"/>
</g>
<!-- n9&#45;&gt;n7 -->
<g id="edge7" class="edge">
<title>n9&#45;&gt;n7</title>
<path fill="none" stroke="#64748b" d="M486.46,-159.52C508.77,-149.88 536.62,-137.84 560.02,-127.73"/>
<polygon fill="#64748b" stroke="#64748b" points="560.93,-130.01 566.38,-124.98 558.99,-125.51 560.93,-130.01"/>
</g>
<!-- n9&#45;&gt;n8 -->
<g id="edge8" class="edge">
<title>n9&#45;&gt;n8</title>
<path fill="none" stroke="#64748b" d="M541.66,-159.52C597.52,-149.31 668.03,-136.42 725.23,-125.97"/>
<polygon fill="#64748b" stroke="#64748b" points="725.63,-128.38 732.08,-124.71 724.75,-123.56 725.63,-128.38"/>
</g>
<!-- n10&#45;&gt;n9 -->
<g id="edge9" class="edge">
<title>n10&#45;&gt;n9</title>
<path fill="none" stroke="#64748b" d="M413.63,-231.7C418.89,-223.14 425.33,-212.66 431.07,-203.3"/>
<polygon fill="#64748b" stroke="#64748b" points="433.12,-204.64 434.7,-197.39 428.95,-202.08 433.12,-204.64"/>
</g>
</g>
</svg>
