<?xml version="1.0" encoding="UTF-8" standalone="no"?>
<!DOCTYPE svg PUBLIC "-//W3C//DTD SVG 1.1//EN"
 "http://www.w3.org/Graphics/SVG/1.1/DTD/svg11.dtd">
<!-- Generated by graphviz version 15.0.0 (20260523.1842)
 -->
<!-- Title: coord_mul_scaled_subexponential_exists_of_indep Pages: 1 -->
<svg width="904pt" height="339pt"
 viewBox="0.00 0.00 904.00 339.00" xmlns="http://www.w3.org/2000/svg" xmlns:xlink="http://www.w3.org/1999/xlink">
<g id="graph0" class="graph" transform="scale(1 1) rotate(0) translate(4 335.2)">
<title>coord_mul_scaled_subexponential_exists_of_indep</title>
<polygon fill="white" stroke="none" points="-4,4 -4,-335.2 899.86,-335.2 899.86,4 -4,4"/>
<text xml:space="preserve" text-anchor="middle" x="447.93" y="-314.6" font-family="Helvetica,sans-Serif" font-size="14.00">Proof narrative — coord_mul_scaled_subexponential_exists_of_indep &#160;(12 decls)</text>
<g id="clust1" class="cluster">
<title>cluster_0</title>
<path fill="none" stroke="#cbd5e1" stroke-dasharray="5,2" d="M20,-8C20,-8 476,-8 476,-8 482,-8 488,-14 488,-20 488,-20 488,-286.4 488,-286.4 488,-292.4 482,-298.4 476,-298.4 476,-298.4 20,-298.4 20,-298.4 14,-298.4 8,-292.4 8,-286.4 8,-286.4 8,-20 8,-20 8,-14 14,-8 20,-8"/>
<text xml:space="preserve" text-anchor="middle" x="248" y="-284.5" font-family="Helvetica,sans-Serif" font-size="11.00">HighDim</text>
</g>
<g id="clust2" class="cluster">
<title>cluster_1</title>
<path fill="none" stroke="#cbd5e1" stroke-dasharray="5,2" d="M508,-8C508,-8 850,-8 850,-8 856,-8 862,-14 862,-20 862,-20 862,-141.2 862,-141.2 862,-147.2 856,-153.2 850,-153.2 850,-153.2 508,-153.2 508,-153.2 502,-153.2 496,-147.2 496,-141.2 496,-141.2 496,-20 496,-20 496,-14 502,-8 508,-8"/>
<text xml:space="preserve" text-anchor="middle" x="679" y="-139.3" font-family="Helvetica,sans-Serif" font-size="11.00">StatFoundation</text>
</g>
<!-- n0 -->
<g id="node1" class="node">
<title>n0</title>
<g id="a_node1"><a xlink:href="vscode://vscode-remote/wsl+Ubuntu/home/ai4stat/statlib/Statlib/HighDim/Vocabulary/RandomVector.lean:83" xlink:title="structure · Statlib/HighDim/Vocabulary/RandomVector.lean:83" target="_blank">
<path fill="#e8dcff" stroke="#8b5cf6" d="M340.4,-52C340.4,-52 305.6,-52 305.6,-52 299.6,-52 293.6,-46 293.6,-40 293.6,-40 293.6,-28 293.6,-28 293.6,-22 299.6,-16 305.6,-16 305.6,-16 340.4,-16 340.4,-16 346.4,-16 352.4,-22 352.4,-28 352.4,-28 352.4,-40 352.4,-40 352.4,-46 346.4,-52 340.4,-52"/>
<text xml:space="preserve" text-anchor="middle" x="323" y="-31" font-family="Helvetica,sans-Serif" font-size="10.00">HasMean</text>
</a>
</g>
</g>
<!-- n1 -->
<g id="node2" class="node">
<title>n1</title>
<g id="a_node2"><a xlink:href="vscode://vscode-remote/wsl+Ubuntu/home/ai4stat/statlib/Statlib/HighDim/Vocabulary/RandomVector.lean:52" xlink:title="structure · Statlib/HighDim/Vocabulary/RandomVector.lean:52" target="_blank">
<path fill="#e8dcff" stroke="#8b5cf6" d="M116.36,-52C116.36,-52 27.64,-52 27.64,-52 21.64,-52 15.64,-46 15.64,-40 15.64,-40 15.64,-28 15.64,-28 15.64,-22 21.64,-16 27.64,-16 27.64,-16 116.36,-16 116.36,-16 122.36,-16 128.36,-22 128.36,-28 128.36,-28 128.36,-40 128.36,-40 128.36,-46 122.36,-52 116.36,-52"/>
<text xml:space="preserve" text-anchor="middle" x="72" y="-31" font-family="Helvetica,sans-Serif" font-size="10.00">IsSubGaussianVector</text>
</a>
</g>
</g>
<!-- n3 -->
<g id="node3" class="node">
<title>n3</title>
<g id="a_node3"><a xlink:href="vscode://vscode-remote/wsl+Ubuntu/home/ai4stat/statlib/Statlib/HighDim/Vocabulary/Norms.lean:32" xlink:title="lemma · Statlib/HighDim/Vocabulary/Norms.lean:32" target="_blank">
<path fill="#eef2f6" stroke="#94a3b8" d="M213.69,-52C213.69,-52 158.31,-52 158.31,-52 152.31,-52 146.31,-46 146.31,-40 146.31,-40 146.31,-28 146.31,-28 146.31,-22 152.31,-16 158.31,-16 158.31,-16 213.69,-16 213.69,-16 219.69,-16 225.69,-22 225.69,-28 225.69,-28 225.69,-40 225.69,-40 225.69,-46 219.69,-52 213.69,-52"/>
<text xml:space="preserve" text-anchor="middle" x="186" y="-31" font-family="Helvetica,sans-Serif" font-size="10.00">inner_eq_sum</text>
</a>
</g>
</g>
<!-- n4 -->
<g id="node4" class="node">
<title>n4</title>
<g id="a_node4"><a xlink:href="vscode://vscode-remote/wsl+Ubuntu/home/ai4stat/statlib/Statlib/HighDim/Concentration/HansonWright.lean:1389" xlink:title="lemma · Statlib/HighDim/Concentration/HansonWright.lean:1389" target="_blank">
<path fill="#eef2f6" stroke="#94a3b8" d="M179.76,-124C179.76,-124 68.24,-124 68.24,-124 62.24,-124 56.24,-118 56.24,-112 56.24,-112 56.24,-100 56.24,-100 56.24,-94 62.24,-88 68.24,-88 68.24,-88 179.76,-88 179.76,-88 185.76,-88 191.76,-94 191.76,-100 191.76,-100 191.76,-112 191.76,-112 191.76,-118 185.76,-124 179.76,-124"/>
<text xml:space="preserve" text-anchor="middle" x="124" y="-103" font-family="Helvetica,sans-Serif" font-size="10.00">subgaussian_vector_coord</text>
</a>
</g>
</g>
<!-- n4&#45;&gt;n1 -->
<g id="edge1" class="edge">
<title>n4&#45;&gt;n1</title>
<path fill="none" stroke="#64748b" d="M111.15,-87.7C104.66,-78.97 96.69,-68.24 89.64,-58.75"/>
<polygon fill="#64748b" stroke="#64748b" points="91.75,-57.48 85.61,-53.32 87.82,-60.4 91.75,-57.48"/>
</g>
<!-- n4&#45;&gt;n3 -->
<g id="edge2" class="edge">
<title>n4&#45;&gt;n3</title>
<path fill="none" stroke="#64748b" d="M139.33,-87.7C147.13,-78.88 156.74,-68.03 165.21,-58.47"/>
<polygon fill="#64748b" stroke="#64748b" points="167.04,-60.1 169.85,-53.24 163.37,-56.85 167.04,-60.1"/>
</g>
<!-- n7 -->
<g id="node5" class="node">
<title>n7</title>
<g id="a_node5"><a xlink:href="vscode://vscode-remote/wsl+Ubuntu/home/ai4stat/statlib/Statlib/HighDim/Concentration/HansonWright.lean:1297" xlink:title="lemma · Statlib/HighDim/Concentration/HansonWright.lean:1297" target="_blank">
<path fill="#eef2f6" stroke="#94a3b8" d="M404.34,-124C404.34,-124 241.66,-124 241.66,-124 235.66,-124 229.66,-118 229.66,-112 229.66,-112 229.66,-100 229.66,-100 229.66,-94 235.66,-88 241.66,-88 241.66,-88 404.34,-88 404.34,-88 410.34,-88 416.34,-94 416.34,-100 416.34,-100 416.34,-112 416.34,-112 416.34,-118 410.34,-124 404.34,-124"/>
<text xml:space="preserve" text-anchor="middle" x="323" y="-103" font-family="Helvetica,sans-Serif" font-size="10.00">coord_mul_integral_eq_zero_of_indep</text>
</a>
</g>
</g>
<!-- n7&#45;&gt;n0 -->
<g id="edge4" class="edge">
<title>n7&#45;&gt;n0</title>
<path fill="none" stroke="#64748b" d="M323,-87.7C323,-79.47 323,-69.48 323,-60.42"/>
<polygon fill="#64748b" stroke="#64748b" points="325.45,-60.62 323,-53.62 320.55,-60.62 325.45,-60.62"/>
</g>
<!-- n9 -->
<g id="node6" class="node">
<title>n9</title>
<g id="a_node6"><a xlink:href="vscode://vscode-remote/wsl+Ubuntu/home/ai4stat/statlib/Statlib/HighDim/Concentration/HansonWright.lean:1415" xlink:title="lemma · Statlib/HighDim/Concentration/HansonWright.lean:1415" target="_blank">
<path fill="#eef2f6" stroke="#94a3b8" d="M254.29,-197.2C254.29,-197.2 67.71,-197.2 67.71,-197.2 61.71,-197.2 55.71,-191.2 55.71,-185.2 55.71,-185.2 55.71,-173.2 55.71,-173.2 55.71,-167.2 61.71,-161.2 67.71,-161.2 67.71,-161.2 254.29,-161.2 254.29,-161.2 260.29,-161.2 266.29,-167.2 266.29,-173.2 266.29,-173.2 266.29,-185.2 266.29,-185.2 266.29,-191.2 260.29,-197.2 254.29,-197.2"/>
<text xml:space="preserve" text-anchor="middle" x="161" y="-176.2" font-family="Helvetica,sans-Serif" font-size="10.00">coord_mul_subexponential_exists_of_indep</text>
</a>
</g>
</g>
<!-- n9&#45;&gt;n0 -->
<g id="edge6" class="edge">
<title>n9&#45;&gt;n0</title>
<path fill="none" stroke="#64748b" d="M266.54,-162.1C269.39,-161.78 272.21,-161.48 275,-161.2 291.61,-159.52 413.52,-165.31 425,-153.2 444.94,-132.17 440.04,-112.77 425,-88 411.01,-64.96 383.38,-51.48 360.41,-43.88"/>
<polygon fill="#64748b" stroke="#64748b" points="361.36,-41.61 353.95,-41.88 359.92,-46.29 361.36,-41.61"/>
</g>
<!-- n9&#45;&gt;n1 -->
<g id="edge7" class="edge">
<title>n9&#45;&gt;n1</title>
<path fill="none" stroke="#64748b" d="M58.19,-160.84C53.18,-158.58 49.29,-156.04 47,-153.2 25.46,-126.43 41.73,-85.51 56.23,-59.52"/>
<polygon fill="#64748b" stroke="#64748b" points="58.28,-60.88 59.68,-53.6 54.04,-58.42 58.28,-60.88"/>
</g>
<!-- n9&#45;&gt;n4 -->
<g id="edge9" class="edge">
<title>n9&#45;&gt;n4</title>
<path fill="none" stroke="#64748b" d="M152.04,-160.96C147.45,-152.13 141.78,-141.22 136.75,-131.53"/>
<polygon fill="#64748b" stroke="#64748b" points="138.97,-130.5 133.57,-125.42 134.63,-132.76 138.97,-130.5"/>
</g>
<!-- n9&#45;&gt;n7 -->
<g id="edge11" class="edge">
<title>n9&#45;&gt;n7</title>
<path fill="none" stroke="#64748b" d="M200.63,-160.78C223.28,-150.83 251.84,-138.28 275.66,-127.81"/>
<polygon fill="#64748b" stroke="#64748b" points="276.41,-130.15 281.83,-125.09 274.44,-125.67 276.41,-130.15"/>
</g>
<!-- n2 -->
<g id="node9" class="node">
<title>n2</title>
<g id="a_node9"><a xlink:href="vscode://vscode-remote/wsl+Ubuntu/home/ai4stat/statlib/Statlib/StatFoundation/Vocabulary/RandomVariable.lean:74" xlink:title="structure · Statlib/StatFoundation/Vocabulary/RandomVariable.lean:74" target="_blank">
<path fill="#e8dcff" stroke="#8b5cf6" d="M842.47,-52C842.47,-52 741.53,-52 741.53,-52 735.53,-52 729.53,-46 729.53,-40 729.53,-40 729.53,-28 729.53,-28 729.53,-22 735.53,-16 741.53,-16 741.53,-16 842.47,-16 842.47,-16 848.47,-16 854.47,-22 854.47,-28 854.47,-28 854.47,-40 854.47,-40 854.47,-46 848.47,-52 842.47,-52"/>
<text xml:space="preserve" text-anchor="middle" x="792" y="-31" font-family="Helvetica,sans-Serif" font-size="10.00">HasSubexponentialMGF</text>
</a>
</g>
</g>
<!-- n9&#45;&gt;n2 -->
<g id="edge8" class="edge">
<title>n9&#45;&gt;n2</title>
<path fill="none" stroke="#64748b" d="M266.54,-162.09C269.39,-161.77 272.21,-161.48 275,-161.2 292.93,-159.42 420.75,-160.98 437,-153.2 471.98,-136.45 460.99,-106.64 495,-88 583.82,-39.34 620.65,-71.65 720,-52 720.38,-51.93 720.76,-51.85 721.14,-51.77"/>
<polygon fill="#64748b" stroke="#64748b" points="721.39,-54.22 727.75,-50.41 720.4,-49.42 721.39,-54.22"/>
</g>
<!-- n6 -->
<g id="node11" class="node">
<title>n6</title>
<g id="a_node11"><a xlink:href="vscode://vscode-remote/wsl+Ubuntu/home/ai4stat/statlib/Statlib/StatFoundation/RandomVariable/SubGaussian/subgaussian_exp_sq_le_at_one_third.lean:165" xlink:title="theorem · Statlib/StatFoundation/RandomVariable/SubGaussian/subgaussian_exp_sq_le_at_one_third.lean:165" target="_blank">
<path fill="#ffe6a3" stroke="#d4a017" d="M712.3,-124C712.3,-124 515.7,-124 515.7,-124 509.7,-124 503.7,-118 503.7,-112 503.7,-112 503.7,-100 503.7,-100 503.7,-94 509.7,-88 515.7,-88 515.7,-88 712.3,-88 712.3,-88 718.3,-88 724.3,-94 724.3,-100 724.3,-100 724.3,-112 724.3,-112 724.3,-118 718.3,-124 712.3,-124"/>
<text xml:space="preserve" text-anchor="middle" x="614" y="-103" font-family="Helvetica,sans-Serif" font-size="10.00">subgaussian_integrable_exp_sq_at_one_third</text>
</a>
</g>
</g>
<!-- n9&#45;&gt;n6 -->
<g id="edge10" class="edge">
<title>n9&#45;&gt;n6</title>
<path fill="none" stroke="#64748b" d="M266.54,-162.04C269.39,-161.74 272.21,-161.46 275,-161.2 323.05,-156.75 444.7,-162.76 492,-153.2 518.51,-147.84 546.84,-137.43 569.51,-127.84"/>
<polygon fill="#64748b" stroke="#64748b" points="570.44,-130.11 575.9,-125.1 568.5,-125.61 570.44,-130.11"/>
</g>
<!-- n8 -->
<g id="node12" class="node">
<title>n8</title>
<g id="a_node12"><a xlink:href="vscode://vscode-remote/wsl+Ubuntu/home/ai4stat/statlib/Statlib/StatFoundation/RandomVariable/SubExponential/subexp_of_mgf_finite.lean:19" xlink:title="theorem · Statlib/StatFoundation/RandomVariable/SubExponential/subexp_of_mgf_finite.lean:19" target="_blank">
<path fill="#ffe6a3" stroke="#d4a017" d="M841.53,-124C841.53,-124 754.47,-124 754.47,-124 748.47,-124 742.47,-118 742.47,-112 742.47,-112 742.47,-100 742.47,-100 742.47,-94 748.47,-88 754.47,-88 754.47,-88 841.53,-88 841.53,-88 847.53,-88 853.53,-94 853.53,-100 853.53,-100 853.53,-112 853.53,-112 853.53,-118 847.53,-124 841.53,-124"/>
<text xml:space="preserve" text-anchor="middle" x="798" y="-103" font-family="Helvetica,sans-Serif" font-size="10.00">subexp_of_mgf_finite</text>
</a>
</g>
</g>
<!-- n9&#45;&gt;n8 -->
<g id="edge12" class="edge">
<title>n9&#45;&gt;n8</title>
<path fill="none" stroke="#64748b" d="M266.53,-161.97C269.38,-161.69 272.21,-161.43 275,-161.2 300.36,-159.1 708.83,-161.15 733,-153.2 747.84,-148.32 762.23,-138.76 773.68,-129.6"/>
<polygon fill="#64748b" stroke="#64748b" points="775.08,-131.62 778.9,-125.26 771.95,-127.85 775.08,-131.62"/>
</g>
<!-- n10 -->
<g id="node7" class="node">
<title>n10</title>
<g id="a_node7"><a xlink:href="vscode://vscode-remote/wsl+Ubuntu/home/ai4stat/statlib/Statlib/HighDim/Concentration/HansonWright.lean:1913" xlink:title="lemma · Statlib/HighDim/Concentration/HansonWright.lean:1913" target="_blank">
<path fill="#eef2f6" stroke="#94a3b8" d="M467.5,-197.2C467.5,-197.2 296.5,-197.2 296.5,-197.2 290.5,-197.2 284.5,-191.2 284.5,-185.2 284.5,-185.2 284.5,-173.2 284.5,-173.2 284.5,-167.2 290.5,-161.2 296.5,-161.2 296.5,-161.2 467.5,-161.2 467.5,-161.2 473.5,-161.2 479.5,-167.2 479.5,-173.2 479.5,-173.2 479.5,-185.2 479.5,-185.2 479.5,-191.2 473.5,-197.2 467.5,-197.2"/>
<text xml:space="preserve" text-anchor="middle" x="382" y="-176.2" font-family="Helvetica,sans-Serif" font-size="10.00">subexponential_mgf_const_mul_relaxed</text>
</a>
</g>
</g>
<!-- n10&#45;&gt;n2 -->
<g id="edge13" class="edge">
<title>n10&#45;&gt;n2</title>
<path fill="none" stroke="#64748b" d="M479.73,-176.52C616.54,-173.69 850.02,-166.87 863,-153.2 882.95,-132.18 875.99,-113.9 863,-88 856.66,-75.36 845.71,-64.96 834.29,-56.82"/>
<polygon fill="#64748b" stroke="#64748b" points="835.97,-55 828.8,-53.14 833.24,-59.07 835.97,-55"/>
</g>
<!-- n11 -->
<g id="node8" class="node">
<title>n11</title>
<g id="a_node8"><a xlink:href="vscode://vscode-remote/wsl+Ubuntu/home/ai4stat/statlib/Statlib/HighDim/Concentration/HansonWright.lean:1966" xlink:title="lemma · Statlib/HighDim/Concentration/HansonWright.lean:1966" target="_blank">
<path fill="#eef2f6" stroke="#94a3b8" stroke-width="3" d="M271.52,-269.2C271.52,-269.2 50.48,-269.2 50.48,-269.2 44.48,-269.2 38.48,-263.2 38.48,-257.2 38.48,-257.2 38.48,-245.2 38.48,-245.2 38.48,-239.2 44.48,-233.2 50.48,-233.2 50.48,-233.2 271.52,-233.2 271.52,-233.2 277.52,-233.2 283.52,-239.2 283.52,-245.2 283.52,-245.2 283.52,-257.2 283.52,-257.2 283.52,-263.2 277.52,-269.2 271.52,-269.2"/>
<text xml:space="preserve" text-anchor="middle" x="161" y="-248.2" font-family="Helvetica,sans-Serif" font-size="10.00">coord_mul_scaled_subexponential_exists_of_indep</text>
</a>
</g>
</g>
<!-- n11&#45;&gt;n0 -->
<g id="edge14" class="edge">
<title>n11&#45;&gt;n0</title>
<path fill="none" stroke="#64748b" d="M89.71,-231.79C72.9,-223.94 56.98,-212.84 47,-197.2 38.4,-183.71 35.98,-172.8 47,-161.2 58.8,-148.77 187.49,-163.74 201,-153.2 224.9,-134.56 201.6,-111.29 221,-88 237.72,-67.93 264.02,-54.52 285.72,-46.22"/>
<polygon fill="#64748b" stroke="#64748b" points="286.33,-48.6 292.06,-43.9 284.65,-44 286.33,-48.6"/>
</g>
<!-- n11&#45;&gt;n1 -->
<g id="edge15" class="edge">
<title>n11&#45;&gt;n1</title>
<path fill="none" stroke="#64748b" d="M75.88,-231.72C58.6,-223.94 42.51,-212.89 32,-197.2 25.97,-188.21 22.29,-119.88 33,-88 36.56,-77.4 43.09,-67.17 49.81,-58.56"/>
<polygon fill="#64748b" stroke="#64748b" points="51.67,-60.16 54.22,-53.2 47.88,-57.05 51.67,-60.16"/>
</g>
<!-- n11&#45;&gt;n9 -->
<g id="edge17" class="edge">
<title>n11&#45;&gt;n9</title>
<path fill="none" stroke="#64748b" d="M161,-231.81C161,-223.79 161,-214.25 161,-205.57"/>
<polygon fill="#64748b" stroke="#64748b" points="163.45,-205.78 161,-198.78 158.55,-205.78 163.45,-205.78"/>
</g>
<!-- n11&#45;&gt;n10 -->
<g id="edge18" class="edge">
<title>n11&#45;&gt;n10</title>
<path fill="none" stroke="#64748b" d="M219.35,-231.72C250.12,-221.97 287.89,-210.01 319.29,-200.06"/>
<polygon fill="#64748b" stroke="#64748b" points="319.75,-202.49 325.68,-198.04 318.27,-197.82 319.75,-202.49"/>
</g>
<!-- n11&#45;&gt;n2 -->
<g id="edge16" class="edge">
<title>n11&#45;&gt;n2</title>
<path fill="none" stroke="#64748b" d="M284.74,-242.34C480.69,-228.61 844.28,-197.47 883,-153.2 902.08,-131.39 897.44,-113.12 883,-88 875.31,-74.63 862.81,-64.31 849.49,-56.49"/>
<polygon fill="#64748b" stroke="#64748b" points="850.68,-54.35 843.37,-53.13 848.33,-58.64 850.68,-54.35"/>
</g>
<!-- n5 -->
<g id="node10" class="node">
<title>n5</title>
<g id="a_node10"><a xlink:href="vscode://vscode-remote/wsl+Ubuntu/home/ai4stat/statlib/Statlib/StatFoundation/RandomVariable/SubGaussian/subgaussian_meas_abs_ge_le_two_exp.lean:9" xlink:title="theorem · Statlib/StatFoundation/RandomVariable/SubGaussian/subgaussian_meas_abs_ge_le_two_exp.lean:9" target="_blank">
<path fill="#ffe6a3" stroke="#d4a017" d="M699.34,-52C699.34,-52 526.66,-52 526.66,-52 520.66,-52 514.66,-46 514.66,-40 514.66,-40 514.66,-28 514.66,-28 514.66,-22 520.66,-16 526.66,-16 526.66,-16 699.34,-16 699.34,-16 705.34,-16 711.34,-22 711.34,-28 711.34,-28 711.34,-40 711.34,-40 711.34,-46 705.34,-52 699.34,-52"/>
<text xml:space="preserve" text-anchor="middle" x="613" y="-31" font-family="Helvetica,sans-Serif" font-size="10.00">subgaussian_meas_abs_ge_le_two_exp</text>
</a>
</g>
</g>
<!-- n6&#45;&gt;n5 -->
<g id="edge3" class="edge">
<title>n6&#45;&gt;n5</title>
<path fill="none" stroke="#64748b" d="M613.75,-87.7C613.64,-79.47 613.49,-69.48 613.36,-60.42"/>
<polygon fill="#64748b" stroke="#64748b" points="615.82,-60.58 613.27,-53.62 610.92,-60.65 615.82,-60.58"/>
</g>
<!-- n8&#45;&gt;n2 -->
<g id="edge5" class="edge">
<title>n8&#45;&gt;n2</title>
<path fill="none" stroke="#64748b" d="M796.52,-87.7C795.81,-79.47 794.96,-69.48 794.18,-60.42"/>
<polygon fill="#64748b" stroke="#64748b" points="796.63,-60.38 793.6,-53.61 791.75,-60.8 796.63,-60.38"/>
</g>
</g>
</svg>
