<?xml version="1.0" encoding="UTF-8" standalone="no"?>
<!DOCTYPE svg PUBLIC "-//W3C//DTD SVG 1.1//EN"
 "http://www.w3.org/Graphics/SVG/1.1/DTD/svg11.dtd">
<!-- Generated by graphviz version 15.0.0 (20260523.1842)
 -->
<!-- Title: cov_quadratic_deviation Pages: 1 -->
<svg width="1686pt" height="411pt"
 viewBox="0.00 0.00 1686.00 411.00" xmlns="http://www.w3.org/2000/svg" xmlns:xlink="http://www.w3.org/1999/xlink">
<g id="graph0" class="graph" transform="scale(1 1) rotate(0) translate(4 407.2)">
<title>cov_quadratic_deviation</title>
<polygon fill="white" stroke="none" points="-4,4 -4,-407.2 1682,-407.2 1682,4 -4,4"/>
<text xml:space="preserve" text-anchor="middle" x="839" y="-386.6" font-family="Helvetica,sans-Serif" font-size="14.00">Proof narrative — cov_quadratic_deviation &#160;(16 decls)</text>
<g id="clust1" class="cluster">
<title>cluster_0</title>
<path fill="none" stroke="#cbd5e1" stroke-dasharray="5,2" d="M20,-152C20,-152 824,-152 824,-152 830,-152 836,-158 836,-164 836,-164 836,-358.4 836,-358.4 836,-364.4 830,-370.4 824,-370.4 824,-370.4 20,-370.4 20,-370.4 14,-370.4 8,-364.4 8,-358.4 8,-358.4 8,-164 8,-164 8,-158 14,-152 20,-152"/>
<text xml:space="preserve" text-anchor="middle" x="422" y="-356.5" font-family="Helvetica,sans-Serif" font-size="11.00">HighDim</text>
</g>
<g id="clust2" class="cluster">
<title>cluster_1</title>
<path fill="none" stroke="#cbd5e1" stroke-dasharray="5,2" d="M856,-8C856,-8 1658,-8 1658,-8 1664,-8 1670,-14 1670,-20 1670,-20 1670,-213.2 1670,-213.2 1670,-219.2 1664,-225.2 1658,-225.2 1658,-225.2 856,-225.2 856,-225.2 850,-225.2 844,-219.2 844,-213.2 844,-213.2 844,-20 844,-20 844,-14 850,-8 856,-8"/>
<text xml:space="preserve" text-anchor="middle" x="1257" y="-211.3" font-family="Helvetica,sans-Serif" font-size="11.00">StatFoundation</text>
</g>
<!-- n0 -->
<g id="node1" class="node">
<title>n0</title>
<g id="a_node1"><a xlink:href="vscode://vscode-remote/wsl+Ubuntu/home/ai4stat/statlib/Statlib/HighDim/Vocabulary/RandomVector.lean:83" xlink:title="structure · Statlib/HighDim/Vocabulary/RandomVector.lean:83" target="_blank">
<path fill="#e8dcff" stroke="#8b5cf6" d="M686.4,-269.2C686.4,-269.2 651.6,-269.2 651.6,-269.2 645.6,-269.2 639.6,-263.2 639.6,-257.2 639.6,-257.2 639.6,-245.2 639.6,-245.2 639.6,-239.2 645.6,-233.2 651.6,-233.2 651.6,-233.2 686.4,-233.2 686.4,-233.2 692.4,-233.2 698.4,-239.2 698.4,-245.2 698.4,-245.2 698.4,-257.2 698.4,-257.2 698.4,-263.2 692.4,-269.2 686.4,-269.2"/>
<text xml:space="preserve" text-anchor="middle" x="669" y="-248.2" font-family="Helvetica,sans-Serif" font-size="10.00">HasMean</text>
</a>
</g>
</g>
<!-- n1 -->
<g id="node2" class="node">
<title>n1</title>
<g id="a_node2"><a xlink:href="vscode://vscode-remote/wsl+Ubuntu/home/ai4stat/statlib/Statlib/HighDim/Vocabulary/RandomVector.lean:101" xlink:title="structure · Statlib/HighDim/Vocabulary/RandomVector.lean:101" target="_blank">
<path fill="#e8dcff" stroke="#8b5cf6" d="M815.79,-269.2C815.79,-269.2 728.21,-269.2 728.21,-269.2 722.21,-269.2 716.21,-263.2 716.21,-257.2 716.21,-257.2 716.21,-245.2 716.21,-245.2 716.21,-239.2 722.21,-233.2 728.21,-233.2 728.21,-233.2 815.79,-233.2 815.79,-233.2 821.79,-233.2 827.79,-239.2 827.79,-245.2 827.79,-245.2 827.79,-257.2 827.79,-257.2 827.79,-263.2 821.79,-269.2 815.79,-269.2"/>
<text xml:space="preserve" text-anchor="middle" x="772" y="-248.2" font-family="Helvetica,sans-Serif" font-size="10.00">HasCovarianceMatrix</text>
</a>
</g>
</g>
<!-- n2 -->
<g id="node3" class="node">
<title>n2</title>
<g id="a_node3"><a xlink:href="vscode://vscode-remote/wsl+Ubuntu/home/ai4stat/statlib/Statlib/HighDim/Vocabulary/RandomVector.lean:52" xlink:title="structure · Statlib/HighDim/Vocabulary/RandomVector.lean:52" target="_blank">
<path fill="#e8dcff" stroke="#8b5cf6" d="M116.36,-269.2C116.36,-269.2 27.64,-269.2 27.64,-269.2 21.64,-269.2 15.64,-263.2 15.64,-257.2 15.64,-257.2 15.64,-245.2 15.64,-245.2 15.64,-239.2 21.64,-233.2 27.64,-233.2 27.64,-233.2 116.36,-233.2 116.36,-233.2 122.36,-233.2 128.36,-239.2 128.36,-245.2 128.36,-245.2 128.36,-257.2 128.36,-257.2 128.36,-263.2 122.36,-269.2 116.36,-269.2"/>
<text xml:space="preserve" text-anchor="middle" x="72" y="-248.2" font-family="Helvetica,sans-Serif" font-size="10.00">IsSubGaussianVector</text>
</a>
</g>
</g>
<!-- n3 -->
<g id="node4" class="node">
<title>n3</title>
<g id="a_node4"><a xlink:href="vscode://vscode-remote/wsl+Ubuntu/home/ai4stat/statlib/Statlib/HighDim/Vocabulary/Norms.lean:32" xlink:title="lemma · Statlib/HighDim/Vocabulary/Norms.lean:32" target="_blank">
<path fill="#eef2f6" stroke="#94a3b8" d="M213.69,-269.2C213.69,-269.2 158.31,-269.2 158.31,-269.2 152.31,-269.2 146.31,-263.2 146.31,-257.2 146.31,-257.2 146.31,-245.2 146.31,-245.2 146.31,-239.2 152.31,-233.2 158.31,-233.2 158.31,-233.2 213.69,-233.2 213.69,-233.2 219.69,-233.2 225.69,-239.2 225.69,-245.2 225.69,-245.2 225.69,-257.2 225.69,-257.2 225.69,-263.2 219.69,-269.2 213.69,-269.2"/>
<text xml:space="preserve" text-anchor="middle" x="186" y="-248.2" font-family="Helvetica,sans-Serif" font-size="10.00">inner_eq_sum</text>
</a>
</g>
</g>
<!-- n4 -->
<g id="node5" class="node">
<title>n4</title>
<g id="a_node5"><a xlink:href="vscode://vscode-remote/wsl+Ubuntu/home/ai4stat/statlib/Statlib/HighDim/CovarianceMatrix/SampleCovariance.lean:393" xlink:title="lemma · Statlib/HighDim/CovarianceMatrix/SampleCovariance.lean:393" target="_blank">
<path fill="#eef2f6" stroke="#94a3b8" d="M425.22,-196C425.22,-196 274.78,-196 274.78,-196 268.78,-196 262.78,-190 262.78,-184 262.78,-184 262.78,-172 262.78,-172 262.78,-166 268.78,-160 274.78,-160 274.78,-160 425.22,-160 425.22,-160 431.22,-160 437.22,-166 437.22,-172 437.22,-172 437.22,-184 437.22,-184 437.22,-190 431.22,-196 425.22,-196"/>
<text xml:space="preserve" text-anchor="middle" x="350" y="-175" font-family="Helvetica,sans-Serif" font-size="10.00">scalar_sq_centered_exp_integrable</text>
</a>
</g>
</g>
<!-- n11 -->
<g id="node6" class="node">
<title>n11</title>
<g id="a_node6"><a xlink:href="vscode://vscode-remote/wsl+Ubuntu/home/ai4stat/statlib/Statlib/HighDim/CovarianceMatrix/SampleCovariance.lean:451" xlink:title="lemma · Statlib/HighDim/CovarianceMatrix/SampleCovariance.lean:451" target="_blank">
<path fill="#eef2f6" stroke="#94a3b8" d="M444.12,-269.2C444.12,-269.2 255.88,-269.2 255.88,-269.2 249.88,-269.2 243.88,-263.2 243.88,-257.2 243.88,-257.2 243.88,-245.2 243.88,-245.2 243.88,-239.2 249.88,-233.2 255.88,-233.2 255.88,-233.2 444.12,-233.2 444.12,-233.2 450.12,-233.2 456.12,-239.2 456.12,-245.2 456.12,-245.2 456.12,-257.2 456.12,-257.2 456.12,-263.2 450.12,-269.2 444.12,-269.2"/>
<text xml:space="preserve" text-anchor="middle" x="350" y="-248.2" font-family="Helvetica,sans-Serif" font-size="10.00">scalar_sq_centered_subexponential_explicit</text>
</a>
</g>
</g>
<!-- n11&#45;&gt;n4 -->
<g id="edge7" class="edge">
<title>n11&#45;&gt;n4</title>
<path fill="none" stroke="#64748b" d="M350,-232.96C350,-224.39 350,-213.87 350,-204.39"/>
<polygon fill="#64748b" stroke="#64748b" points="352.45,-204.59 350,-197.59 347.55,-204.59 352.45,-204.59"/>
</g>
<!-- n10 -->
<g id="node14" class="node">
<title>n10</title>
<g id="a_node14"><a xlink:href="vscode://vscode-remote/wsl+Ubuntu/home/ai4stat/statlib/Statlib/StatFoundation/RandomVariable/SubExponential/subexp_mgf_le_of_sq_subgaussian.lean:72" xlink:title="theorem · Statlib/StatFoundation/RandomVariable/SubExponential/subexp_mgf_le_of_sq_subgaussian.lean:72" target="_blank">
<path fill="#ffe6a3" stroke="#d4a017" d="M1262.84,-196C1262.84,-196 1075.16,-196 1075.16,-196 1069.16,-196 1063.16,-190 1063.16,-184 1063.16,-184 1063.16,-172 1063.16,-172 1063.16,-166 1069.16,-160 1075.16,-160 1075.16,-160 1262.84,-160 1262.84,-160 1268.84,-160 1274.84,-166 1274.84,-172 1274.84,-172 1274.84,-184 1274.84,-184 1274.84,-190 1268.84,-196 1262.84,-196"/>
<text xml:space="preserve" text-anchor="middle" x="1169" y="-175" font-family="Helvetica,sans-Serif" font-size="10.00">subexp_mgf_le_of_sq_subgaussian_explicit</text>
</a>
</g>
</g>
<!-- n11&#45;&gt;n10 -->
<g id="edge8" class="edge">
<title>n11&#45;&gt;n10</title>
<path fill="none" stroke="#64748b" d="M456.46,-233.96C459.33,-233.68 462.18,-233.43 465,-233.2 526.58,-228.23 959.99,-234.95 1021,-225.2 1053.68,-219.98 1089.1,-209.12 1117.1,-199.24"/>
<polygon fill="#64748b" stroke="#64748b" points="1117.6,-201.66 1123.37,-196.99 1115.95,-197.05 1117.6,-201.66"/>
</g>
<!-- n13 -->
<g id="node7" class="node">
<title>n13</title>
<g id="a_node7"><a xlink:href="vscode://vscode-remote/wsl+Ubuntu/home/ai4stat/statlib/Statlib/HighDim/Concentration/HansonWright.lean:2002" xlink:title="lemma · Statlib/HighDim/Concentration/HansonWright.lean:2002" target="_blank">
<path fill="#eef2f6" stroke="#94a3b8" d="M609.6,-269.2C609.6,-269.2 486.4,-269.2 486.4,-269.2 480.4,-269.2 474.4,-263.2 474.4,-257.2 474.4,-257.2 474.4,-245.2 474.4,-245.2 474.4,-239.2 480.4,-233.2 486.4,-233.2 486.4,-233.2 609.6,-233.2 609.6,-233.2 615.6,-233.2 621.6,-239.2 621.6,-245.2 621.6,-245.2 621.6,-257.2 621.6,-257.2 621.6,-263.2 615.6,-269.2 609.6,-269.2"/>
<text xml:space="preserve" text-anchor="middle" x="548" y="-248.2" font-family="Helvetica,sans-Serif" font-size="10.00">subexponential_mgf_mono_b</text>
</a>
</g>
</g>
<!-- n12 -->
<g id="node15" class="node">
<title>n12</title>
<g id="a_node15"><a xlink:href="vscode://vscode-remote/wsl+Ubuntu/home/ai4stat/statlib/Statlib/StatFoundation/Vocabulary/RandomVariable.lean:74" xlink:title="structure · Statlib/StatFoundation/Vocabulary/RandomVariable.lean:74" target="_blank">
<path fill="#e8dcff" stroke="#8b5cf6" d="M964.47,-124C964.47,-124 863.53,-124 863.53,-124 857.53,-124 851.53,-118 851.53,-112 851.53,-112 851.53,-100 851.53,-100 851.53,-94 857.53,-88 863.53,-88 863.53,-88 964.47,-88 964.47,-88 970.47,-88 976.47,-94 976.47,-100 976.47,-100 976.47,-112 976.47,-112 976.47,-118 970.47,-124 964.47,-124"/>
<text xml:space="preserve" text-anchor="middle" x="914" y="-103" font-family="Helvetica,sans-Serif" font-size="10.00">HasSubexponentialMGF</text>
</a>
</g>
</g>
<!-- n13&#45;&gt;n12 -->
<g id="edge9" class="edge">
<title>n13&#45;&gt;n12</title>
<path fill="none" stroke="#64748b" d="M592.51,-232.78C660.43,-206.21 789.64,-155.66 861.85,-127.4"/>
<polygon fill="#64748b" stroke="#64748b" points="862.48,-129.79 868.1,-124.96 860.69,-125.23 862.48,-129.79"/>
</g>
<!-- n15 -->
<g id="node8" class="node">
<title>n15</title>
<g id="a_node8"><a xlink:href="vscode://vscode-remote/wsl+Ubuntu/home/ai4stat/statlib/Statlib/HighDim/CovarianceMatrix/CovQuadraticDeviation.lean:23" xlink:title="theorem · Statlib/HighDim/CovarianceMatrix/CovQuadraticDeviation.lean:23" target="_blank">
<path fill="#ffe6a3" stroke="#d4a017" stroke-width="3" d="M597.93,-341.2C597.93,-341.2 498.07,-341.2 498.07,-341.2 492.07,-341.2 486.07,-335.2 486.07,-329.2 486.07,-329.2 486.07,-317.2 486.07,-317.2 486.07,-311.2 492.07,-305.2 498.07,-305.2 498.07,-305.2 597.93,-305.2 597.93,-305.2 603.93,-305.2 609.93,-311.2 609.93,-317.2 609.93,-317.2 609.93,-329.2 609.93,-329.2 609.93,-335.2 603.93,-341.2 597.93,-341.2"/>
<text xml:space="preserve" text-anchor="middle" x="548" y="-320.2" font-family="Helvetica,sans-Serif" font-size="10.00">cov_quadratic_deviation</text>
</a>
</g>
</g>
<!-- n15&#45;&gt;n0 -->
<g id="edge11" class="edge">
<title>n15&#45;&gt;n0</title>
<path fill="none" stroke="#64748b" d="M579.79,-303.81C595.97,-294.45 615.7,-283.03 632.5,-273.32"/>
<polygon fill="#64748b" stroke="#64748b" points="633.35,-275.65 638.19,-270.03 630.9,-271.41 633.35,-275.65"/>
</g>
<!-- n15&#45;&gt;n1 -->
<g id="edge12" class="edge">
<title>n15&#45;&gt;n1</title>
<path fill="none" stroke="#64748b" d="M607.15,-303.72C638.33,-293.97 676.62,-282.01 708.44,-272.06"/>
<polygon fill="#64748b" stroke="#64748b" points="708.98,-274.46 714.93,-270.03 707.52,-269.78 708.98,-274.46"/>
</g>
<!-- n15&#45;&gt;n2 -->
<g id="edge13" class="edge">
<title>n15&#45;&gt;n2</title>
<path fill="none" stroke="#64748b" d="M484.58,-316.56C403.5,-308.76 259,-292.92 137,-269.2 136.91,-269.18 136.83,-269.17 136.74,-269.15"/>
<polygon fill="#64748b" stroke="#64748b" points="137.46,-266.8 130.1,-267.77 136.46,-271.59 137.46,-266.8"/>
</g>
<!-- n15&#45;&gt;n3 -->
<g id="edge14" class="edge">
<title>n15&#45;&gt;n3</title>
<path fill="none" stroke="#64748b" d="M484.7,-314.63C421.02,-306.27 320.29,-291.05 235,-269.2 234.63,-269.11 234.26,-269.01 233.88,-268.91"/>
<polygon fill="#64748b" stroke="#64748b" points="234.8,-266.62 227.4,-267.08 233.47,-271.34 234.8,-266.62"/>
</g>
<!-- n15&#45;&gt;n11 -->
<g id="edge15" class="edge">
<title>n15&#45;&gt;n11</title>
<path fill="none" stroke="#64748b" d="M495.72,-303.72C468.39,-294.05 434.89,-282.21 406.9,-272.32"/>
<polygon fill="#64748b" stroke="#64748b" points="408.01,-270.11 400.59,-270.09 406.37,-274.73 408.01,-270.11"/>
</g>
<!-- n15&#45;&gt;n13 -->
<g id="edge16" class="edge">
<title>n15&#45;&gt;n13</title>
<path fill="none" stroke="#64748b" d="M548,-303.81C548,-295.79 548,-286.25 548,-277.57"/>
<polygon fill="#64748b" stroke="#64748b" points="550.45,-277.78 548,-270.78 545.55,-277.78 550.45,-277.78"/>
</g>
<!-- n14 -->
<g id="node16" class="node">
<title>n14</title>
<g id="a_node16"><a xlink:href="vscode://vscode-remote/wsl+Ubuntu/home/ai4stat/statlib/Statlib/StatFoundation/Concentration/ExponentialType/subexp_mean_meas_ge_le_exp.lean:11" xlink:title="theorem · Statlib/StatFoundation/Concentration/ExponentialType/subexp_mean_meas_ge_le_exp.lean:11" target="_blank">
<path fill="#ffe6a3" stroke="#d4a017" d="M1000.28,-196C1000.28,-196 863.72,-196 863.72,-196 857.72,-196 851.72,-190 851.72,-184 851.72,-184 851.72,-172 851.72,-172 851.72,-166 857.72,-160 863.72,-160 863.72,-160 1000.28,-160 1000.28,-160 1006.28,-160 1012.28,-166 1012.28,-172 1012.28,-172 1012.28,-184 1012.28,-184 1012.28,-190 1006.28,-196 1000.28,-196"/>
<text xml:space="preserve" text-anchor="middle" x="932" y="-175" font-family="Helvetica,sans-Serif" font-size="10.00">subexp_mean_meas_ge_le_exp</text>
</a>
</g>
</g>
<!-- n15&#45;&gt;n14 -->
<g id="edge17" class="edge">
<title>n15&#45;&gt;n14</title>
<path fill="none" stroke="#64748b" d="M611.33,-320.89C672.21,-317.32 765.27,-305.67 837,-269.2 868.28,-253.29 896.37,-223.79 913.74,-202.86"/>
<polygon fill="#64748b" stroke="#64748b" points="915.53,-204.55 918.05,-197.57 911.73,-201.46 915.53,-204.55"/>
</g>
<!-- n5 -->
<g id="node9" class="node">
<title>n5</title>
<g id="a_node9"><a xlink:href="vscode://vscode-remote/wsl+Ubuntu/home/ai4stat/statlib/Statlib/StatFoundation/RandomVariable/SubExponential/subexp_mgf_le_of_sq_subgaussian.lean:13" xlink:title="lemma · Statlib/StatFoundation/RandomVariable/SubExponential/subexp_mgf_le_of_sq_subgaussian.lean:13" target="_blank">
<path fill="#eef2f6" stroke="#94a3b8" d="M1087.2,-124C1087.2,-124 1006.8,-124 1006.8,-124 1000.8,-124 994.8,-118 994.8,-112 994.8,-112 994.8,-100 994.8,-100 994.8,-94 1000.8,-88 1006.8,-88 1006.8,-88 1087.2,-88 1087.2,-88 1093.2,-88 1099.2,-94 1099.2,-100 1099.2,-100 1099.2,-112 1099.2,-112 1099.2,-118 1093.2,-124 1087.2,-124"/>
<text xml:space="preserve" text-anchor="middle" x="1047" y="-103" font-family="Helvetica,sans-Serif" font-size="10.00">sub_gauss_tail_abs</text>
</a>
</g>
</g>
<!-- n6 -->
<g id="node10" class="node">
<title>n6</title>
<g id="a_node10"><a xlink:href="vscode://vscode-remote/wsl+Ubuntu/home/ai4stat/statlib/Statlib/StatFoundation/RandomVariable/SubGaussian/sq_le_two_mul_exp.lean:10" xlink:title="lemma · Statlib/StatFoundation/RandomVariable/SubGaussian/sq_le_two_mul_exp.lean:10" target="_blank">
<path fill="#eef2f6" stroke="#94a3b8" d="M1209.19,-124C1209.19,-124 1128.81,-124 1128.81,-124 1122.81,-124 1116.81,-118 1116.81,-112 1116.81,-112 1116.81,-100 1116.81,-100 1116.81,-94 1122.81,-88 1128.81,-88 1128.81,-88 1209.19,-88 1209.19,-88 1215.19,-88 1221.19,-94 1221.19,-100 1221.19,-100 1221.19,-112 1221.19,-112 1221.19,-118 1215.19,-124 1209.19,-124"/>
<text xml:space="preserve" text-anchor="middle" x="1169" y="-103" font-family="Helvetica,sans-Serif" font-size="10.00">sq_le_two_mul_exp</text>
</a>
</g>
</g>
<!-- n7 -->
<g id="node11" class="node">
<title>n7</title>
<g id="a_node11"><a xlink:href="vscode://vscode-remote/wsl+Ubuntu/home/ai4stat/statlib/Statlib/StatFoundation/RandomVariable/SubGaussian/subgaussian_meas_abs_ge_le_two_exp.lean:9" xlink:title="theorem · Statlib/StatFoundation/RandomVariable/SubGaussian/subgaussian_meas_abs_ge_le_two_exp.lean:9" target="_blank">
<path fill="#ffe6a3" stroke="#d4a017" d="M1527.34,-52C1527.34,-52 1354.66,-52 1354.66,-52 1348.66,-52 1342.66,-46 1342.66,-40 1342.66,-40 1342.66,-28 1342.66,-28 1342.66,-22 1348.66,-16 1354.66,-16 1354.66,-16 1527.34,-16 1527.34,-16 1533.34,-16 1539.34,-22 1539.34,-28 1539.34,-28 1539.34,-40 1539.34,-40 1539.34,-46 1533.34,-52 1527.34,-52"/>
<text xml:space="preserve" text-anchor="middle" x="1441" y="-31" font-family="Helvetica,sans-Serif" font-size="10.00">subgaussian_meas_abs_ge_le_two_exp</text>
</a>
</g>
</g>
<!-- n8 -->
<g id="node12" class="node">
<title>n8</title>
<g id="a_node12"><a xlink:href="vscode://vscode-remote/wsl+Ubuntu/home/ai4stat/statlib/Statlib/StatFoundation/RandomVariable/SubGaussian/subgaussian_exp_sq_le_at_one_third.lean:14" xlink:title="theorem · Statlib/StatFoundation/RandomVariable/SubGaussian/subgaussian_exp_sq_le_at_one_third.lean:14" target="_blank">
<path fill="#ffe6a3" stroke="#d4a017" d="M1411.23,-124C1411.23,-124 1250.77,-124 1250.77,-124 1244.77,-124 1238.77,-118 1238.77,-112 1238.77,-112 1238.77,-100 1238.77,-100 1238.77,-94 1244.77,-88 1250.77,-88 1250.77,-88 1411.23,-88 1411.23,-88 1417.23,-88 1423.23,-94 1423.23,-100 1423.23,-100 1423.23,-112 1423.23,-112 1423.23,-118 1417.23,-124 1411.23,-124"/>
<text xml:space="preserve" text-anchor="middle" x="1331" y="-103" font-family="Helvetica,sans-Serif" font-size="10.00">subgaussian_exp_sq_le_at_one_third</text>
</a>
</g>
</g>
<!-- n8&#45;&gt;n7 -->
<g id="edge1" class="edge">
<title>n8&#45;&gt;n7</title>
<path fill="none" stroke="#64748b" d="M1358.47,-87.52C1373.15,-78.18 1391.36,-66.59 1406.93,-56.68"/>
<polygon fill="#64748b" stroke="#64748b" points="1408.01,-58.9 1412.6,-53.07 1405.38,-54.76 1408.01,-58.9"/>
</g>
<!-- n9 -->
<g id="node13" class="node">
<title>n9</title>
<g id="a_node13"><a xlink:href="vscode://vscode-remote/wsl+Ubuntu/home/ai4stat/statlib/Statlib/StatFoundation/RandomVariable/SubGaussian/subgaussian_exp_sq_le_at_one_third.lean:165" xlink:title="theorem · Statlib/StatFoundation/RandomVariable/SubGaussian/subgaussian_exp_sq_le_at_one_third.lean:165" target="_blank">
<path fill="#ffe6a3" stroke="#d4a017" d="M1650.3,-124C1650.3,-124 1453.7,-124 1453.7,-124 1447.7,-124 1441.7,-118 1441.7,-112 1441.7,-112 1441.7,-100 1441.7,-100 1441.7,-94 1447.7,-88 1453.7,-88 1453.7,-88 1650.3,-88 1650.3,-88 1656.3,-88 1662.3,-94 1662.3,-100 1662.3,-100 1662.3,-112 1662.3,-112 1662.3,-118 1656.3,-124 1650.3,-124"/>
<text xml:space="preserve" text-anchor="middle" x="1552" y="-103" font-family="Helvetica,sans-Serif" font-size="10.00">subgaussian_integrable_exp_sq_at_one_third</text>
</a>
</g>
</g>
<!-- n9&#45;&gt;n7 -->
<g id="edge2" class="edge">
<title>n9&#45;&gt;n7</title>
<path fill="none" stroke="#64748b" d="M1524.28,-87.52C1509.46,-78.18 1491.1,-66.59 1475.38,-56.68"/>
<polygon fill="#64748b" stroke="#64748b" points="1476.88,-54.73 1469.65,-53.07 1474.26,-58.87 1476.88,-54.73"/>
</g>
<!-- n10&#45;&gt;n5 -->
<g id="edge3" class="edge">
<title>n10&#45;&gt;n5</title>
<path fill="none" stroke="#64748b" d="M1138.53,-159.52C1122.1,-150.09 1101.7,-138.38 1084.32,-128.41"/>
<polygon fill="#64748b" stroke="#64748b" points="1085.69,-126.37 1078.4,-125.01 1083.25,-130.62 1085.69,-126.37"/>
</g>
<!-- n10&#45;&gt;n6 -->
<g id="edge4" class="edge">
<title>n10&#45;&gt;n6</title>
<path fill="none" stroke="#64748b" d="M1169,-159.7C1169,-151.47 1169,-141.48 1169,-132.42"/>
<polygon fill="#64748b" stroke="#64748b" points="1171.45,-132.62 1169,-125.62 1166.55,-132.62 1171.45,-132.62"/>
</g>
<!-- n10&#45;&gt;n8 -->
<g id="edge5" class="edge">
<title>n10&#45;&gt;n8</title>
<path fill="none" stroke="#64748b" d="M1209.46,-159.52C1231.77,-149.88 1259.62,-137.84 1283.02,-127.73"/>
<polygon fill="#64748b" stroke="#64748b" points="1283.93,-130.01 1289.38,-124.98 1281.99,-125.51 1283.93,-130.01"/>
</g>
<!-- n10&#45;&gt;n9 -->
<g id="edge6" class="edge">
<title>n10&#45;&gt;n9</title>
<path fill="none" stroke="#64748b" d="M1264.66,-159.52C1320.52,-149.31 1391.03,-136.42 1448.23,-125.97"/>
<polygon fill="#64748b" stroke="#64748b" points="1448.63,-128.38 1455.08,-124.71 1447.75,-123.56 1448.63,-128.38"/>
</g>
<!-- n14&#45;&gt;n12 -->
<g id="edge10" class="edge">
<title>n14&#45;&gt;n12</title>
<path fill="none" stroke="#64748b" d="M927.55,-159.7C925.41,-151.39 922.81,-141.28 920.46,-132.14"/>
<polygon fill="#64748b" stroke="#64748b" points="922.89,-131.74 918.78,-125.57 918.15,-132.96 922.89,-131.74"/>
</g>
</g>
</svg>
