<?xml version="1.0" encoding="UTF-8" standalone="no"?>
<!DOCTYPE svg PUBLIC "-//W3C//DTD SVG 1.1//EN"
 "http://www.w3.org/Graphics/SVG/1.1/DTD/svg11.dtd">
<!-- Generated by graphviz version 15.0.0 (20260523.1842)
 -->
<!-- Title: decoupledOffDiagQuadForm_prod_tail_le_lintegral_frobenius Pages: 1 -->
<svg width="1678pt" height="626pt"
 viewBox="0.00 0.00 1678.00 626.00" xmlns="http://www.w3.org/2000/svg" xmlns:xlink="http://www.w3.org/1999/xlink">
<g id="graph0" class="graph" transform="scale(1 1) rotate(0) translate(4 622)">
<title>decoupledOffDiagQuadForm_prod_tail_le_lintegral_frobenius</title>
<polygon fill="white" stroke="none" points="-4,4 -4,-622 1674,-622 1674,4 -4,4"/>
<text xml:space="preserve" text-anchor="middle" x="835" y="-601.4" font-family="Helvetica,sans-Serif" font-size="14.00">Proof narrative — decoupledOffDiagQuadForm_prod_tail_le_lintegral_frobenius &#160;(32 decls)</text>
<g id="clust1" class="cluster">
<title>cluster_0</title>
<path fill="none" stroke="#cbd5e1" stroke-dasharray="5,2" d="M20,-8C20,-8 1650,-8 1650,-8 1656,-8 1662,-14 1662,-20 1662,-20 1662,-573.2 1662,-573.2 1662,-579.2 1656,-585.2 1650,-585.2 1650,-585.2 20,-585.2 20,-585.2 14,-585.2 8,-579.2 8,-573.2 8,-573.2 8,-20 8,-20 8,-14 14,-8 20,-8"/>
<text xml:space="preserve" text-anchor="middle" x="835" y="-571.3" font-family="Helvetica,sans-Serif" font-size="11.00">HighDim</text>
</g>
<!-- n0 -->
<g id="node1" class="node">
<title>n0</title>
<g id="a_node1"><a xlink:href="vscode://vscode-remote/wsl+Ubuntu/home/gavin/statlib/Statlib/HighDim/Vocabulary/RandomVector.lean:52" xlink:title="structure · Statlib/HighDim/Vocabulary/RandomVector.lean:52" target="_blank">
<path fill="#e8dcff" stroke="#8b5cf6" d="M1324.36,-268C1324.36,-268 1235.64,-268 1235.64,-268 1229.64,-268 1223.64,-262 1223.64,-256 1223.64,-256 1223.64,-244 1223.64,-244 1223.64,-238 1229.64,-232 1235.64,-232 1235.64,-232 1324.36,-232 1324.36,-232 1330.36,-232 1336.36,-238 1336.36,-244 1336.36,-244 1336.36,-256 1336.36,-256 1336.36,-262 1330.36,-268 1324.36,-268"/>
<text xml:space="preserve" text-anchor="middle" x="1280" y="-247" font-family="Helvetica,sans-Serif" font-size="10.00">IsSubGaussianVector</text>
</a>
</g>
</g>
<!-- n1 -->
<g id="node2" class="node">
<title>n1</title>
<g id="a_node2"><a xlink:href="vscode://vscode-remote/wsl+Ubuntu/home/gavin/statlib/Statlib/HighDim/Vocabulary/QuadraticForms.lean:33" xlink:title="noncomputable def · Statlib/HighDim/Vocabulary/QuadraticForms.lean:33" target="_blank">
<path fill="#d6e9ff" stroke="#3b82f6" d="M1412.92,-52C1412.92,-52 1293.08,-52 1293.08,-52 1287.08,-52 1281.08,-46 1281.08,-40 1281.08,-40 1281.08,-28 1281.08,-28 1281.08,-22 1287.08,-16 1293.08,-16 1293.08,-16 1412.92,-16 1412.92,-16 1418.92,-16 1424.92,-22 1424.92,-28 1424.92,-28 1424.92,-40 1424.92,-40 1424.92,-46 1418.92,-52 1412.92,-52"/>
<text xml:space="preserve" text-anchor="middle" x="1353" y="-31" font-family="Helvetica,sans-Serif" font-size="10.00">decoupledOffDiagQuadForm</text>
</a>
</g>
</g>
<!-- n2 -->
<g id="node3" class="node">
<title>n2</title>
<g id="a_node3"><a xlink:href="vscode://vscode-remote/wsl+Ubuntu/home/gavin/statlib/Statlib/HighDim/Vocabulary/Norms.lean:37" xlink:title="noncomputable def · Statlib/HighDim/Vocabulary/Norms.lean:37" target="_blank">
<path fill="#d6e9ff" stroke="#3b82f6" d="M693.91,-124C693.91,-124 624.09,-124 624.09,-124 618.09,-124 612.09,-118 612.09,-112 612.09,-112 612.09,-100 612.09,-100 612.09,-94 618.09,-88 624.09,-88 624.09,-88 693.91,-88 693.91,-88 699.91,-88 705.91,-94 705.91,-100 705.91,-100 705.91,-112 705.91,-112 705.91,-118 699.91,-124 693.91,-124"/>
<text xml:space="preserve" text-anchor="middle" x="659" y="-103" font-family="Helvetica,sans-Serif" font-size="10.00">frobeniusNormSq</text>
</a>
</g>
</g>
<!-- n3 -->
<g id="node4" class="node">
<title>n3</title>
<g id="a_node4"><a xlink:href="vscode://vscode-remote/wsl+Ubuntu/home/gavin/statlib/Statlib/HighDim/Concentration/HansonWright.lean:86" xlink:title="lemma · Statlib/HighDim/Concentration/HansonWright.lean:86" target="_blank">
<path fill="#eef2f6" stroke="#94a3b8" d="M1621.83,-124C1621.83,-124 1444.17,-124 1444.17,-124 1438.17,-124 1432.17,-118 1432.17,-112 1432.17,-112 1432.17,-100 1432.17,-100 1432.17,-94 1438.17,-88 1444.17,-88 1444.17,-88 1621.83,-88 1621.83,-88 1627.83,-88 1633.83,-94 1633.83,-100 1633.83,-100 1633.83,-112 1633.83,-112 1633.83,-118 1627.83,-124 1621.83,-124"/>
<text xml:space="preserve" text-anchor="middle" x="1533" y="-103" font-family="Helvetica,sans-Serif" font-size="10.00">decoupledOffDiagQuadForm_measurable</text>
</a>
</g>
</g>
<!-- n3&#45;&gt;n1 -->
<g id="edge1" class="edge">
<title>n3&#45;&gt;n1</title>
<path fill="none" stroke="#64748b" d="M1488.04,-87.52C1462.93,-77.75 1431.51,-65.53 1405.29,-55.34"/>
<polygon fill="#64748b" stroke="#64748b" points="1406.52,-53.18 1399.11,-52.93 1404.74,-57.75 1406.52,-53.18"/>
</g>
<!-- n4 -->
<g id="node5" class="node">
<title>n4</title>
<g id="a_node5"><a xlink:href="vscode://vscode-remote/wsl+Ubuntu/home/gavin/statlib/Statlib/HighDim/Concentration/HansonWright.lean:95" xlink:title="lemma · Statlib/HighDim/Concentration/HansonWright.lean:95" target="_blank">
<path fill="#eef2f6" stroke="#94a3b8" d="M1641.62,-196C1641.62,-196 1438.38,-196 1438.38,-196 1432.38,-196 1426.38,-190 1426.38,-184 1426.38,-184 1426.38,-172 1426.38,-172 1426.38,-166 1432.38,-160 1438.38,-160 1438.38,-160 1641.62,-160 1641.62,-160 1647.62,-160 1653.62,-166 1653.62,-172 1653.62,-172 1653.62,-184 1653.62,-184 1653.62,-190 1647.62,-196 1641.62,-196"/>
<text xml:space="preserve" text-anchor="middle" x="1540" y="-175" font-family="Helvetica,sans-Serif" font-size="10.00">decoupledOffDiagQuadForm_prod_measurable</text>
</a>
</g>
</g>
<!-- n4&#45;&gt;n1 -->
<g id="edge2" class="edge">
<title>n4&#45;&gt;n1</title>
<path fill="none" stroke="#64748b" d="M1599.71,-159.58C1616.65,-151.57 1633.15,-140.14 1643,-124 1651.33,-110.34 1653.25,-100.29 1643,-88 1616.75,-56.52 1509.83,-43.68 1433.46,-38.49"/>
<polygon fill="#64748b" stroke="#64748b" points="1433.9,-36.06 1426.75,-38.05 1433.57,-40.95 1433.9,-36.06"/>
</g>
<!-- n4&#45;&gt;n3 -->
<g id="edge3" class="edge">
<title>n4&#45;&gt;n3</title>
<path fill="none" stroke="#64748b" d="M1538.27,-159.7C1537.45,-151.47 1536.45,-141.48 1535.54,-132.42"/>
<polygon fill="#64748b" stroke="#64748b" points="1538,-132.33 1534.86,-125.61 1533.12,-132.82 1538,-132.33"/>
</g>
<!-- n5 -->
<g id="node6" class="node">
<title>n5</title>
<g id="a_node6"><a xlink:href="vscode://vscode-remote/wsl+Ubuntu/home/gavin/statlib/Statlib/HighDim/Concentration/HansonWright.lean:105" xlink:title="lemma · Statlib/HighDim/Concentration/HansonWright.lean:105" target="_blank">
<path fill="#eef2f6" stroke="#94a3b8" d="M1642.29,-268C1642.29,-268 1405.71,-268 1405.71,-268 1399.71,-268 1393.71,-262 1393.71,-256 1393.71,-256 1393.71,-244 1393.71,-244 1393.71,-238 1399.71,-232 1405.71,-232 1405.71,-232 1642.29,-232 1642.29,-232 1648.29,-232 1654.29,-238 1654.29,-244 1654.29,-244 1654.29,-256 1654.29,-256 1654.29,-262 1648.29,-268 1642.29,-268"/>
<text xml:space="preserve" text-anchor="middle" x="1524" y="-247" font-family="Helvetica,sans-Serif" font-size="10.00">decoupledOffDiagQuadForm_prod_tail_measurableSet</text>
</a>
</g>
</g>
<!-- n5&#45;&gt;n1 -->
<g id="edge4" class="edge">
<title>n5&#45;&gt;n1</title>
<path fill="none" stroke="#64748b" d="M1465.11,-231.57C1447.14,-223.49 1428.99,-212.02 1417,-196 1387.8,-156.98 1418.72,-132.11 1398,-88 1393.01,-77.38 1385.32,-67.18 1377.7,-58.62"/>
<polygon fill="#64748b" stroke="#64748b" points="1379.52,-56.98 1372.97,-53.51 1375.93,-60.31 1379.52,-56.98"/>
</g>
<!-- n5&#45;&gt;n4 -->
<g id="edge5" class="edge">
<title>n5&#45;&gt;n4</title>
<path fill="none" stroke="#64748b" d="M1527.96,-231.7C1529.85,-223.39 1532.17,-213.28 1534.25,-204.14"/>
<polygon fill="#64748b" stroke="#64748b" points="1536.58,-204.95 1535.75,-197.58 1531.8,-203.86 1536.58,-204.95"/>
</g>
<!-- n6 -->
<g id="node7" class="node">
<title>n6</title>
<g id="a_node7"><a xlink:href="vscode://vscode-remote/wsl+Ubuntu/home/gavin/statlib/Statlib/HighDim/Concentration/HansonWright.lean:450" xlink:title="lemma · Statlib/HighDim/Concentration/HansonWright.lean:450" target="_blank">
<path fill="#eef2f6" stroke="#94a3b8" d="M748.37,-268C748.37,-268 639.63,-268 639.63,-268 633.63,-268 627.63,-262 627.63,-256 627.63,-256 627.63,-244 627.63,-244 627.63,-238 633.63,-232 639.63,-232 639.63,-232 748.37,-232 748.37,-232 754.37,-232 760.37,-238 760.37,-244 760.37,-244 760.37,-256 760.37,-256 760.37,-262 754.37,-268 748.37,-268"/>
<text xml:space="preserve" text-anchor="middle" x="694" y="-247" font-family="Helvetica,sans-Serif" font-size="10.00">frobeniusNormSq_nonneg</text>
</a>
</g>
</g>
<!-- n6&#45;&gt;n2 -->
<g id="edge6" class="edge">
<title>n6&#45;&gt;n2</title>
<path fill="none" stroke="#64748b" d="M733.18,-231.55C747.45,-223.02 762.04,-211.26 770,-196 777.4,-181.81 778.54,-173.53 770,-160 763.19,-149.2 738.53,-136.93 714.18,-126.92"/>
<polygon fill="#64748b" stroke="#64748b" points="715.12,-124.65 707.71,-124.31 713.29,-129.2 715.12,-124.65"/>
</g>
<!-- n7 -->
<g id="node8" class="node">
<title>n7</title>
<g id="a_node8"><a xlink:href="vscode://vscode-remote/wsl+Ubuntu/home/gavin/statlib/Statlib/HighDim/Vocabulary/QuadraticForms.lean:46" xlink:title="noncomputable def · Statlib/HighDim/Vocabulary/QuadraticForms.lean:46" target="_blank">
<path fill="#d6e9ff" stroke="#3b82f6" d="M816.41,-52C816.41,-52 751.59,-52 751.59,-52 745.59,-52 739.59,-46 739.59,-40 739.59,-40 739.59,-28 739.59,-28 739.59,-22 745.59,-16 751.59,-16 751.59,-16 816.41,-16 816.41,-16 822.41,-16 828.41,-22 828.41,-28 828.41,-28 828.41,-40 828.41,-40 828.41,-46 822.41,-52 816.41,-52"/>
<text xml:space="preserve" text-anchor="middle" x="784" y="-31" font-family="Helvetica,sans-Serif" font-size="10.00">offDiagCoeffVec</text>
</a>
</g>
</g>
<!-- n8 -->
<g id="node9" class="node">
<title>n8</title>
<g id="a_node9"><a xlink:href="vscode://vscode-remote/wsl+Ubuntu/home/gavin/statlib/Statlib/HighDim/Vocabulary/QuadraticForms.lean:52" xlink:title="def · Statlib/HighDim/Vocabulary/QuadraticForms.lean:52" target="_blank">
<path fill="#d6e9ff" stroke="#3b82f6" d="M390.62,-52C390.62,-52 331.38,-52 331.38,-52 325.38,-52 319.38,-46 319.38,-40 319.38,-40 319.38,-28 319.38,-28 319.38,-22 325.38,-16 331.38,-16 331.38,-16 390.62,-16 390.62,-16 396.62,-16 402.62,-22 402.62,-28 402.62,-28 402.62,-40 402.62,-40 402.62,-46 396.62,-52 390.62,-52"/>
<text xml:space="preserve" text-anchor="middle" x="361" y="-31" font-family="Helvetica,sans-Serif" font-size="10.00">zeroDiagMatrix</text>
</a>
</g>
</g>
<!-- n9 -->
<g id="node10" class="node">
<title>n9</title>
<g id="a_node10"><a xlink:href="vscode://vscode-remote/wsl+Ubuntu/home/gavin/statlib/Statlib/HighDim/Vocabulary/QuadraticForms.lean:62" xlink:title="noncomputable def · Statlib/HighDim/Vocabulary/QuadraticForms.lean:62" target="_blank">
<path fill="#d6e9ff" stroke="#3b82f6" d="M266.23,-124C266.23,-124 209.77,-124 209.77,-124 203.77,-124 197.77,-118 197.77,-112 197.77,-112 197.77,-100 197.77,-100 197.77,-94 203.77,-88 209.77,-88 209.77,-88 266.23,-88 266.23,-88 272.23,-88 278.23,-94 278.23,-100 278.23,-100 278.23,-112 278.23,-112 278.23,-118 272.23,-124 266.23,-124"/>
<text xml:space="preserve" text-anchor="middle" x="238" y="-103" font-family="Helvetica,sans-Serif" font-size="10.00">matrixRowVec</text>
</a>
</g>
</g>
<!-- n10 -->
<g id="node11" class="node">
<title>n10</title>
<g id="a_node11"><a xlink:href="vscode://vscode-remote/wsl+Ubuntu/home/gavin/statlib/Statlib/HighDim/Vocabulary/Norms.lean:13" xlink:title="noncomputable def · Statlib/HighDim/Vocabulary/Norms.lean:13" target="_blank">
<path fill="#d6e9ff" stroke="#3b82f6" d="M157.23,-52C157.23,-52 120.77,-52 120.77,-52 114.77,-52 108.77,-46 108.77,-40 108.77,-40 108.77,-28 108.77,-28 108.77,-22 114.77,-16 120.77,-16 120.77,-16 157.23,-16 157.23,-16 163.23,-16 169.23,-22 169.23,-28 169.23,-28 169.23,-40 169.23,-40 169.23,-46 163.23,-52 157.23,-52"/>
<text xml:space="preserve" text-anchor="middle" x="139" y="-31" font-family="Helvetica,sans-Serif" font-size="10.00">l2NormSq</text>
</a>
</g>
</g>
<!-- n11 -->
<g id="node12" class="node">
<title>n11</title>
<g id="a_node12"><a xlink:href="vscode://vscode-remote/wsl+Ubuntu/home/gavin/statlib/Statlib/HighDim/Vocabulary/Norms.lean:21" xlink:title="lemma · Statlib/HighDim/Vocabulary/Norms.lean:21" target="_blank">
<path fill="#eef2f6" stroke="#94a3b8" d="M107.64,-124C107.64,-124 28.36,-124 28.36,-124 22.36,-124 16.36,-118 16.36,-112 16.36,-112 16.36,-100 16.36,-100 16.36,-94 22.36,-88 28.36,-88 28.36,-88 107.64,-88 107.64,-88 113.64,-88 119.64,-94 119.64,-100 119.64,-100 119.64,-112 119.64,-112 119.64,-118 113.64,-124 107.64,-124"/>
<text xml:space="preserve" text-anchor="middle" x="68" y="-103" font-family="Helvetica,sans-Serif" font-size="10.00">euclidean_norm_sq</text>
</a>
</g>
</g>
<!-- n11&#45;&gt;n10 -->
<g id="edge7" class="edge">
<title>n11&#45;&gt;n10</title>
<path fill="none" stroke="#64748b" d="M85.55,-87.7C94.66,-78.71 105.92,-67.61 115.75,-57.92"/>
<polygon fill="#64748b" stroke="#64748b" points="117.31,-59.83 120.57,-53.17 113.87,-56.34 117.31,-59.83"/>
</g>
<!-- n12 -->
<g id="node13" class="node">
<title>n12</title>
<g id="a_node13"><a xlink:href="vscode://vscode-remote/wsl+Ubuntu/home/gavin/statlib/Statlib/HighDim/Concentration/HansonWright.lean:465" xlink:title="lemma · Statlib/HighDim/Concentration/HansonWright.lean:465" target="_blank">
<path fill="#eef2f6" stroke="#94a3b8" d="M148.46,-196C148.46,-196 47.54,-196 47.54,-196 41.54,-196 35.54,-190 35.54,-184 35.54,-184 35.54,-172 35.54,-172 35.54,-166 41.54,-160 47.54,-160 47.54,-160 148.46,-160 148.46,-160 154.46,-160 160.46,-166 160.46,-172 160.46,-172 160.46,-184 160.46,-184 160.46,-190 154.46,-196 148.46,-196"/>
<text xml:space="preserve" text-anchor="middle" x="98" y="-175" font-family="Helvetica,sans-Serif" font-size="10.00">matrixRowVec_norm_sq</text>
</a>
</g>
</g>
<!-- n12&#45;&gt;n9 -->
<g id="edge8" class="edge">
<title>n12&#45;&gt;n9</title>
<path fill="none" stroke="#64748b" d="M132.97,-159.52C152.07,-149.97 175.86,-138.07 195.97,-128.01"/>
<polygon fill="#64748b" stroke="#64748b" points="196.96,-130.26 202.13,-124.94 194.77,-125.88 196.96,-130.26"/>
</g>
<!-- n12&#45;&gt;n10 -->
<g id="edge10" class="edge">
<title>n12&#45;&gt;n10</title>
<path fill="none" stroke="#64748b" d="M110.59,-159.74C117.19,-149.79 124.77,-136.75 129,-124 135.86,-103.33 138.21,-78.63 138.93,-60.5"/>
<polygon fill="#64748b" stroke="#64748b" points="141.37,-60.76 139.12,-53.69 136.47,-60.62 141.37,-60.76"/>
</g>
<!-- n12&#45;&gt;n11 -->
<g id="edge9" class="edge">
<title>n12&#45;&gt;n11</title>
<path fill="none" stroke="#64748b" d="M90.58,-159.7C86.99,-151.3 82.6,-141.07 78.65,-131.86"/>
<polygon fill="#64748b" stroke="#64748b" points="80.94,-130.96 75.93,-125.5 76.43,-132.89 80.94,-130.96"/>
</g>
<!-- n13 -->
<g id="node14" class="node">
<title>n13</title>
<g id="a_node14"><a xlink:href="vscode://vscode-remote/wsl+Ubuntu/home/gavin/statlib/Statlib/HighDim/Concentration/HansonWright.lean:251" xlink:title="lemma · Statlib/HighDim/Concentration/HansonWright.lean:251" target="_blank">
<path fill="#eef2f6" stroke="#94a3b8" d="M521.61,-124C521.61,-124 328.39,-124 328.39,-124 322.39,-124 316.39,-118 316.39,-112 316.39,-112 316.39,-100 316.39,-100 316.39,-94 322.39,-88 328.39,-88 328.39,-88 521.61,-88 521.61,-88 527.61,-88 533.61,-94 533.61,-100 533.61,-100 533.61,-112 533.61,-112 533.61,-118 527.61,-124 521.61,-124"/>
<text xml:space="preserve" text-anchor="middle" x="425" y="-103" font-family="Helvetica,sans-Serif" font-size="10.00">offDiagCoeffVec_eq_zeroDiagMatrix_mulVec</text>
</a>
</g>
</g>
<!-- n13&#45;&gt;n7 -->
<g id="edge11" class="edge">
<title>n13&#45;&gt;n7</title>
<path fill="none" stroke="#64748b" d="M514.66,-87.52C582.76,-74.24 674.09,-56.43 730.98,-45.34"/>
<polygon fill="#64748b" stroke="#64748b" points="731.22,-47.79 737.63,-44.04 730.29,-42.98 731.22,-47.79"/>
</g>
<!-- n13&#45;&gt;n8 -->
<g id="edge12" class="edge">
<title>n13&#45;&gt;n8</title>
<path fill="none" stroke="#64748b" d="M409.18,-87.7C401.04,-78.8 391.01,-67.82 382.21,-58.2"/>
<polygon fill="#64748b" stroke="#64748b" points="384.19,-56.73 377.66,-53.22 380.57,-60.04 384.19,-56.73"/>
</g>
<!-- n14 -->
<g id="node15" class="node">
<title>n14</title>
<g id="a_node15"><a xlink:href="vscode://vscode-remote/wsl+Ubuntu/home/gavin/statlib/Statlib/HighDim/Vocabulary/Norms.lean:32" xlink:title="lemma · Statlib/HighDim/Vocabulary/Norms.lean:32" target="_blank">
<path fill="#eef2f6" stroke="#94a3b8" d="M811.69,-124C811.69,-124 756.31,-124 756.31,-124 750.31,-124 744.31,-118 744.31,-112 744.31,-112 744.31,-100 744.31,-100 744.31,-94 750.31,-88 756.31,-88 756.31,-88 811.69,-88 811.69,-88 817.69,-88 823.69,-94 823.69,-100 823.69,-100 823.69,-112 823.69,-112 823.69,-118 817.69,-124 811.69,-124"/>
<text xml:space="preserve" text-anchor="middle" x="784" y="-103" font-family="Helvetica,sans-Serif" font-size="10.00">inner_eq_sum</text>
</a>
</g>
</g>
<!-- n15 -->
<g id="node16" class="node">
<title>n15</title>
<g id="a_node16"><a xlink:href="vscode://vscode-remote/wsl+Ubuntu/home/gavin/statlib/Statlib/HighDim/Concentration/HansonWright.lean:472" xlink:title="lemma · Statlib/HighDim/Concentration/HansonWright.lean:472" target="_blank">
<path fill="#eef2f6" stroke="#94a3b8" d="M456.01,-196C456.01,-196 249.99,-196 249.99,-196 243.99,-196 237.99,-190 237.99,-184 237.99,-184 237.99,-172 237.99,-172 237.99,-166 243.99,-160 249.99,-160 249.99,-160 456.01,-160 456.01,-160 462.01,-160 468.01,-166 468.01,-172 468.01,-172 468.01,-184 468.01,-184 468.01,-190 462.01,-196 456.01,-196"/>
<text xml:space="preserve" text-anchor="middle" x="353" y="-175" font-family="Helvetica,sans-Serif" font-size="10.00">offDiagCoeffVec_apply_eq_inner_row_zeroDiag</text>
</a>
</g>
</g>
<!-- n15&#45;&gt;n7 -->
<g id="edge13" class="edge">
<title>n15&#45;&gt;n7</title>
<path fill="none" stroke="#64748b" d="M464.79,-159.52C492.05,-151.69 519.97,-140.37 543,-124 558.88,-112.71 551.95,-99.03 568,-88 616.68,-54.54 684.31,-42.14 730.86,-37.58"/>
<polygon fill="#64748b" stroke="#64748b" points="731.04,-40.03 737.79,-36.96 730.6,-35.15 731.04,-40.03"/>
</g>
<!-- n15&#45;&gt;n8 -->
<g id="edge15" class="edge">
<title>n15&#45;&gt;n8</title>
<path fill="none" stroke="#64748b" d="M332.18,-159.62C322.54,-150.2 312.11,-137.7 307,-124 301.4,-109.01 300.81,-102.75 307,-88 311.83,-76.49 320.52,-66.21 329.54,-57.85"/>
<polygon fill="#64748b" stroke="#64748b" points="331,-59.83 334.65,-53.37 327.77,-56.14 331,-59.83"/>
</g>
<!-- n15&#45;&gt;n9 -->
<g id="edge14" class="edge">
<title>n15&#45;&gt;n9</title>
<path fill="none" stroke="#64748b" d="M324.28,-159.52C308.93,-150.18 289.9,-138.59 273.62,-128.68"/>
<polygon fill="#64748b" stroke="#64748b" points="274.9,-126.59 267.65,-125.05 272.36,-130.78 274.9,-126.59"/>
</g>
<!-- n15&#45;&gt;n13 -->
<g id="edge16" class="edge">
<title>n15&#45;&gt;n13</title>
<path fill="none" stroke="#64748b" d="M370.8,-159.7C379.97,-150.78 391.28,-139.78 401.2,-130.14"/>
<polygon fill="#64748b" stroke="#64748b" points="402.76,-132.04 406.07,-125.4 399.35,-128.52 402.76,-132.04"/>
</g>
<!-- n15&#45;&gt;n14 -->
<g id="edge17" class="edge">
<title>n15&#45;&gt;n14</title>
<path fill="none" stroke="#64748b" d="M468.42,-162.98C539.76,-153.6 633.03,-140.06 715,-124 721.79,-122.67 728.91,-121.11 735.9,-119.48"/>
<polygon fill="#64748b" stroke="#64748b" points="736.3,-121.9 742.54,-117.89 735.16,-117.14 736.3,-121.9"/>
</g>
<!-- n16 -->
<g id="node17" class="node">
<title>n16</title>
<g id="a_node17"><a xlink:href="vscode://vscode-remote/wsl+Ubuntu/home/gavin/statlib/Statlib/HighDim/Concentration/HansonWright.lean:436" xlink:title="lemma · Statlib/HighDim/Concentration/HansonWright.lean:436" target="_blank">
<path fill="#eef2f6" stroke="#94a3b8" d="M673.98,-196C673.98,-196 518.02,-196 518.02,-196 512.02,-196 506.02,-190 506.02,-184 506.02,-184 506.02,-172 506.02,-172 506.02,-166 512.02,-160 518.02,-160 518.02,-160 673.98,-160 673.98,-160 679.98,-160 685.98,-166 685.98,-172 685.98,-172 685.98,-184 685.98,-184 685.98,-190 679.98,-196 673.98,-196"/>
<text xml:space="preserve" text-anchor="middle" x="596" y="-175" font-family="Helvetica,sans-Serif" font-size="10.00">frobeniusNormSq_zeroDiagMatrix_le</text>
</a>
</g>
</g>
<!-- n16&#45;&gt;n2 -->
<g id="edge18" class="edge">
<title>n16&#45;&gt;n2</title>
<path fill="none" stroke="#64748b" d="M611.57,-159.7C619.58,-150.8 629.46,-139.82 638.12,-130.2"/>
<polygon fill="#64748b" stroke="#64748b" points="639.73,-132.07 642.59,-125.23 636.09,-128.79 639.73,-132.07"/>
</g>
<!-- n16&#45;&gt;n8 -->
<g id="edge19" class="edge">
<title>n16&#45;&gt;n8</title>
<path fill="none" stroke="#64748b" d="M590.13,-159.59C582.44,-139.43 567.04,-106.6 543,-88 504.73,-58.39 450.38,-45.31 411.05,-39.54"/>
<polygon fill="#64748b" stroke="#64748b" points="411.66,-37.15 404.39,-38.62 410.99,-42 411.66,-37.15"/>
</g>
<!-- n17 -->
<g id="node18" class="node">
<title>n17</title>
<g id="a_node18"><a xlink:href="vscode://vscode-remote/wsl+Ubuntu/home/gavin/statlib/Statlib/HighDim/Concentration/HansonWright.lean:479" xlink:title="lemma · Statlib/HighDim/Concentration/HansonWright.lean:479" target="_blank">
<path fill="#eef2f6" stroke="#94a3b8" d="M336.66,-268C336.66,-268 167.34,-268 167.34,-268 161.34,-268 155.34,-262 155.34,-256 155.34,-256 155.34,-244 155.34,-244 155.34,-238 161.34,-232 167.34,-232 167.34,-232 336.66,-232 336.66,-232 342.66,-232 348.66,-238 348.66,-244 348.66,-244 348.66,-256 348.66,-256 348.66,-262 342.66,-268 336.66,-268"/>
<text xml:space="preserve" text-anchor="middle" x="252" y="-247" font-family="Helvetica,sans-Serif" font-size="10.00">offDiagCoeffVec_norm_sq_le_frobenius</text>
</a>
</g>
</g>
<!-- n17&#45;&gt;n2 -->
<g id="edge21" class="edge">
<title>n17&#45;&gt;n2</title>
<path fill="none" stroke="#64748b" d="M349.02,-237.59C479.19,-222.26 694.28,-196.81 695,-196 711.53,-177.38 696.51,-150.18 681.13,-130.76"/>
<polygon fill="#64748b" stroke="#64748b" points="683.05,-129.23 676.69,-125.41 679.27,-132.36 683.05,-129.23"/>
</g>
<!-- n17&#45;&gt;n7 -->
<g id="edge20" class="edge">
<title>n17&#45;&gt;n7</title>
<path fill="none" stroke="#64748b" d="M349.14,-234.12C400.26,-224.74 456.51,-211.49 477,-196 491.6,-184.96 484.09,-172.98 497,-160 520.02,-136.86 534.26,-142.71 561,-124 581.14,-109.91 581.39,-99.72 603,-88 643.28,-66.17 693.6,-52.37 730.95,-44.34"/>
<polygon fill="#64748b" stroke="#64748b" points="731.36,-46.76 737.71,-42.93 730.35,-41.96 731.36,-46.76"/>
</g>
<!-- n17&#45;&gt;n8 -->
<g id="edge22" class="edge">
<title>n17&#45;&gt;n8</title>
<path fill="none" stroke="#64748b" d="M234.84,-231.56C206.24,-200.34 155.13,-133.88 189,-88 216.72,-50.45 270.65,-38.68 310.77,-35.38"/>
<polygon fill="#64748b" stroke="#64748b" points="310.78,-37.84 317.6,-34.91 310.44,-32.95 310.78,-37.84"/>
</g>
<!-- n17&#45;&gt;n9 -->
<g id="edge23" class="edge">
<title>n17&#45;&gt;n9</title>
<path fill="none" stroke="#64748b" d="M242.46,-231.93C237.36,-221.82 231.61,-208.57 229,-196 224.6,-174.83 227.65,-150.36 231.35,-132.45"/>
<polygon fill="#64748b" stroke="#64748b" points="233.72,-133.07 232.85,-125.7 228.94,-132 233.72,-133.07"/>
</g>
<!-- n17&#45;&gt;n10 -->
<g id="edge27" class="edge">
<title>n17&#45;&gt;n10</title>
<path fill="none" stroke="#64748b" d="M221.91,-231.72C208.54,-222.66 193.67,-210.42 184,-196 176.4,-184.67 155.69,-103.11 145.22,-60.62"/>
<polygon fill="#64748b" stroke="#64748b" points="147.62,-60.11 143.57,-53.89 142.86,-61.28 147.62,-60.11"/>
</g>
<!-- n17&#45;&gt;n11 -->
<g id="edge26" class="edge">
<title>n17&#45;&gt;n11</title>
<path fill="none" stroke="#64748b" d="M155.13,-238.17C101.85,-230 43.32,-216.61 27,-196 11.34,-176.23 27.57,-149.51 44,-130.52"/>
<polygon fill="#64748b" stroke="#64748b" points="45.64,-132.36 48.52,-125.52 42.01,-129.07 45.64,-132.36"/>
</g>
<!-- n17&#45;&gt;n12 -->
<g id="edge24" class="edge">
<title>n17&#45;&gt;n12</title>
<path fill="none" stroke="#64748b" d="M213.54,-231.52C192.42,-221.92 166.09,-209.95 143.9,-199.86"/>
<polygon fill="#64748b" stroke="#64748b" points="145,-197.67 137.62,-197.01 142.98,-202.14 145,-197.67"/>
</g>
<!-- n17&#45;&gt;n15 -->
<g id="edge25" class="edge">
<title>n17&#45;&gt;n15</title>
<path fill="none" stroke="#64748b" d="M277.23,-231.52C290.58,-222.26 307.12,-210.8 321.33,-200.95"/>
<polygon fill="#64748b" stroke="#64748b" points="322.49,-203.12 326.85,-197.12 319.7,-199.1 322.49,-203.12"/>
</g>
<!-- n17&#45;&gt;n16 -->
<g id="edge28" class="edge">
<title>n17&#45;&gt;n16</title>
<path fill="none" stroke="#64748b" d="M337.92,-231.52C387.88,-221.35 450.9,-208.53 502.16,-198.1"/>
<polygon fill="#64748b" stroke="#64748b" points="502.43,-200.54 508.8,-196.74 501.45,-195.74 502.43,-200.54"/>
</g>
<!-- n18 -->
<g id="node19" class="node">
<title>n18</title>
<g id="a_node19"><a xlink:href="vscode://vscode-remote/wsl+Ubuntu/home/gavin/statlib/Statlib/HighDim/Concentration/HansonWright.lean:773" xlink:title="lemma · Statlib/HighDim/Concentration/HansonWright.lean:773" target="_blank">
<path fill="#eef2f6" stroke="#94a3b8" d="M662.76,-340C662.76,-340 397.24,-340 397.24,-340 391.24,-340 385.24,-334 385.24,-328 385.24,-328 385.24,-316 385.24,-316 385.24,-310 391.24,-304 397.24,-304 397.24,-304 662.76,-304 662.76,-304 668.76,-304 674.76,-310 674.76,-316 674.76,-316 674.76,-328 674.76,-328 674.76,-334 668.76,-340 662.76,-340"/>
<text xml:space="preserve" text-anchor="middle" x="530" y="-319" font-family="Helvetica,sans-Serif" font-size="10.00">decoupled_const_right_subgaussian_parameter_le_frobenius</text>
</a>
</g>
</g>
<!-- n18&#45;&gt;n2 -->
<g id="edge30" class="edge">
<title>n18&#45;&gt;n2</title>
<path fill="none" stroke="#64748b" d="M542.79,-303.58C558.52,-283.41 587.08,-250.57 619,-232 671.19,-201.64 713.4,-244.02 750,-196 759.7,-183.28 757.97,-173.87 750,-160 741.78,-145.69 728.04,-134.89 713.7,-126.89"/>
<polygon fill="#64748b" stroke="#64748b" points="714.85,-124.73 707.51,-123.66 712.58,-129.07 714.85,-124.73"/>
</g>
<!-- n18&#45;&gt;n7 -->
<g id="edge29" class="edge">
<title>n18&#45;&gt;n7</title>
<path fill="none" stroke="#64748b" d="M671.83,-303.51C714.9,-295.3 754.66,-283.75 769,-268 801.42,-232.38 798.38,-203.64 778,-160 767.45,-137.42 745.55,-146.58 735,-124 728.23,-109.5 729.17,-102.9 735,-88 739.42,-76.72 747.49,-66.4 755.82,-57.92"/>
<polygon fill="#64748b" stroke="#64748b" points="757.16,-60.03 760.5,-53.41 753.76,-56.5 757.16,-60.03"/>
</g>
<!-- n18&#45;&gt;n17 -->
<g id="edge31" class="edge">
<title>n18&#45;&gt;n17</title>
<path fill="none" stroke="#64748b" d="M460.57,-303.52C420.61,-293.46 370.32,-280.79 329.14,-270.42"/>
<polygon fill="#64748b" stroke="#64748b" points="329.88,-268.08 322.5,-268.75 328.69,-272.84 329.88,-268.08"/>
</g>
<!-- n19 -->
<g id="node20" class="node">
<title>n19</title>
<g id="a_node20"><a xlink:href="vscode://vscode-remote/wsl+Ubuntu/home/gavin/statlib/Statlib/HighDim/Concentration/HansonWright.lean:156" xlink:title="lemma · Statlib/HighDim/Concentration/HansonWright.lean:156" target="_blank">
<path fill="#eef2f6" stroke="#94a3b8" d="M919.43,-340C919.43,-340 784.57,-340 784.57,-340 778.57,-340 772.57,-334 772.57,-328 772.57,-328 772.57,-316 772.57,-316 772.57,-310 778.57,-304 784.57,-304 784.57,-304 919.43,-304 919.43,-304 925.43,-304 931.43,-310 931.43,-316 931.43,-316 931.43,-328 931.43,-328 931.43,-334 925.43,-340 919.43,-340"/>
<text xml:space="preserve" text-anchor="middle" x="852" y="-319" font-family="Helvetica,sans-Serif" font-size="10.00">subgaussian_mgf_mono_param</text>
</a>
</g>
</g>
<!-- n20 -->
<g id="node21" class="node">
<title>n20</title>
<g id="a_node21"><a xlink:href="vscode://vscode-remote/wsl+Ubuntu/home/gavin/statlib/Statlib/HighDim/Vocabulary/QuadraticForms.lean:39" xlink:title="noncomputable def · Statlib/HighDim/Vocabulary/QuadraticForms.lean:39" target="_blank">
<path fill="#d6e9ff" stroke="#3b82f6" d="M1046.79,-52C1046.79,-52 999.21,-52 999.21,-52 993.21,-52 987.21,-46 987.21,-40 987.21,-40 987.21,-28 987.21,-28 987.21,-22 993.21,-16 999.21,-16 999.21,-16 1046.79,-16 1046.79,-16 1052.79,-16 1058.79,-22 1058.79,-28 1058.79,-28 1058.79,-40 1058.79,-40 1058.79,-46 1052.79,-52 1046.79,-52"/>
<text xml:space="preserve" text-anchor="middle" x="1023" y="-31" font-family="Helvetica,sans-Serif" font-size="10.00">offDiagCoeff</text>
</a>
</g>
</g>
<!-- n21 -->
<g id="node22" class="node">
<title>n21</title>
<g id="a_node22"><a xlink:href="vscode://vscode-remote/wsl+Ubuntu/home/gavin/statlib/Statlib/HighDim/Concentration/HansonWright.lean:42" xlink:title="lemma · Statlib/HighDim/Concentration/HansonWright.lean:42" target="_blank">
<path fill="#eef2f6" stroke="#94a3b8" d="M1242.11,-124C1242.11,-124 1053.89,-124 1053.89,-124 1047.89,-124 1041.89,-118 1041.89,-112 1041.89,-112 1041.89,-100 1041.89,-100 1041.89,-94 1047.89,-88 1053.89,-88 1053.89,-88 1242.11,-88 1242.11,-88 1248.11,-88 1254.11,-94 1254.11,-100 1254.11,-100 1254.11,-112 1254.11,-112 1254.11,-118 1248.11,-124 1242.11,-124"/>
<text xml:space="preserve" text-anchor="middle" x="1148" y="-103" font-family="Helvetica,sans-Serif" font-size="10.00">decoupledOffDiagQuadForm_eq_sum_coeff</text>
</a>
</g>
</g>
<!-- n21&#45;&gt;n1 -->
<g id="edge32" class="edge">
<title>n21&#45;&gt;n1</title>
<path fill="none" stroke="#64748b" d="M1199.2,-87.52C1228.05,-77.67 1264.2,-65.32 1294.21,-55.07"/>
<polygon fill="#64748b" stroke="#64748b" points="1294.83,-57.45 1300.66,-52.87 1293.25,-52.81 1294.83,-57.45"/>
</g>
<!-- n21&#45;&gt;n20 -->
<g id="edge33" class="edge">
<title>n21&#45;&gt;n20</title>
<path fill="none" stroke="#64748b" d="M1116.78,-87.52C1099.95,-78.09 1079.04,-66.38 1061.24,-56.41"/>
<polygon fill="#64748b" stroke="#64748b" points="1062.45,-54.28 1055.14,-53 1060.05,-58.56 1062.45,-54.28"/>
</g>
<!-- n22 -->
<g id="node23" class="node">
<title>n22</title>
<g id="a_node23"><a xlink:href="vscode://vscode-remote/wsl+Ubuntu/home/gavin/statlib/Statlib/HighDim/Concentration/HansonWright.lean:61" xlink:title="lemma · Statlib/HighDim/Concentration/HansonWright.lean:61" target="_blank">
<path fill="#eef2f6" stroke="#94a3b8" d="M1175.79,-196C1175.79,-196 984.21,-196 984.21,-196 978.21,-196 972.21,-190 972.21,-184 972.21,-184 972.21,-172 972.21,-172 972.21,-166 978.21,-160 984.21,-160 984.21,-160 1175.79,-160 1175.79,-160 1181.79,-160 1187.79,-166 1187.79,-172 1187.79,-172 1187.79,-184 1187.79,-184 1187.79,-190 1181.79,-196 1175.79,-196"/>
<text xml:space="preserve" text-anchor="middle" x="1080" y="-175" font-family="Helvetica,sans-Serif" font-size="10.00">decoupledOffDiagQuadForm_eq_inner_coeff</text>
</a>
</g>
</g>
<!-- n22&#45;&gt;n1 -->
<g id="edge34" class="edge">
<title>n22&#45;&gt;n1</title>
<path fill="none" stroke="#64748b" d="M1185.31,-159.6C1212.32,-151.75 1240.16,-140.4 1263,-124 1278.82,-112.64 1274.77,-102.29 1288,-88 1298.17,-77.01 1310.66,-66.3 1321.96,-57.42"/>
<polygon fill="#64748b" stroke="#64748b" points="1323.21,-59.55 1327.25,-53.33 1320.21,-55.67 1323.21,-59.55"/>
</g>
<!-- n22&#45;&gt;n14 -->
<g id="edge37" class="edge">
<title>n22&#45;&gt;n14</title>
<path fill="none" stroke="#64748b" d="M1006.07,-159.52C951.63,-146.64 879.18,-129.51 832.07,-118.37"/>
<polygon fill="#64748b" stroke="#64748b" points="832.72,-116 825.34,-116.78 831.59,-120.77 832.72,-116"/>
</g>
<!-- n22&#45;&gt;n20 -->
<g id="edge35" class="edge">
<title>n22&#45;&gt;n20</title>
<path fill="none" stroke="#64748b" d="M1059.86,-159.91C1050.06,-150.39 1039.1,-137.71 1033,-124 1024.09,-103.98 1021.96,-79.03 1021.85,-60.64"/>
<polygon fill="#64748b" stroke="#64748b" points="1024.29,-60.73 1021.91,-53.71 1019.39,-60.68 1024.29,-60.73"/>
</g>
<!-- n22&#45;&gt;n21 -->
<g id="edge36" class="edge">
<title>n22&#45;&gt;n21</title>
<path fill="none" stroke="#64748b" d="M1096.81,-159.7C1105.46,-150.8 1116.11,-139.82 1125.46,-130.2"/>
<polygon fill="#64748b" stroke="#64748b" points="1127.21,-131.92 1130.33,-125.19 1123.69,-128.5 1127.21,-131.92"/>
</g>
<!-- n23 -->
<g id="node24" class="node">
<title>n23</title>
<g id="a_node24"><a xlink:href="vscode://vscode-remote/wsl+Ubuntu/home/gavin/statlib/Statlib/HighDim/Concentration/HansonWright.lean:35" xlink:title="lemma · Statlib/HighDim/Concentration/HansonWright.lean:35" target="_blank">
<path fill="#eef2f6" stroke="#94a3b8" d="M991.52,-124C991.52,-124 914.48,-124 914.48,-124 908.48,-124 902.48,-118 902.48,-112 902.48,-112 902.48,-100 902.48,-100 902.48,-94 908.48,-88 914.48,-88 914.48,-88 991.52,-88 991.52,-88 997.52,-88 1003.52,-94 1003.52,-100 1003.52,-100 1003.52,-112 1003.52,-112 1003.52,-118 997.52,-124 991.52,-124"/>
<text xml:space="preserve" text-anchor="middle" x="953" y="-103" font-family="Helvetica,sans-Serif" font-size="10.00">offDiagCoeff_const</text>
</a>
</g>
</g>
<!-- n23&#45;&gt;n7 -->
<g id="edge39" class="edge">
<title>n23&#45;&gt;n7</title>
<path fill="none" stroke="#64748b" d="M910.79,-87.52C887.41,-77.83 858.22,-65.74 833.73,-55.6"/>
<polygon fill="#64748b" stroke="#64748b" points="834.77,-53.38 827.36,-52.96 832.89,-57.9 834.77,-53.38"/>
</g>
<!-- n23&#45;&gt;n20 -->
<g id="edge38" class="edge">
<title>n23&#45;&gt;n20</title>
<path fill="none" stroke="#64748b" d="M970.3,-87.7C979.29,-78.71 990.39,-67.61 1000.08,-57.92"/>
<polygon fill="#64748b" stroke="#64748b" points="1001.61,-59.86 1004.83,-53.17 998.14,-56.39 1001.61,-59.86"/>
</g>
<!-- n24 -->
<g id="node25" class="node">
<title>n24</title>
<g id="a_node25"><a xlink:href="vscode://vscode-remote/wsl+Ubuntu/home/gavin/statlib/Statlib/HighDim/Concentration/HansonWright.lean:69" xlink:title="lemma · Statlib/HighDim/Concentration/HansonWright.lean:69" target="_blank">
<path fill="#eef2f6" stroke="#94a3b8" d="M1133.64,-268C1133.64,-268 870.36,-268 870.36,-268 864.36,-268 858.36,-262 858.36,-256 858.36,-256 858.36,-244 858.36,-244 858.36,-238 864.36,-232 870.36,-232 870.36,-232 1133.64,-232 1133.64,-232 1139.64,-232 1145.64,-238 1145.64,-244 1145.64,-244 1145.64,-256 1145.64,-256 1145.64,-262 1139.64,-268 1133.64,-268"/>
<text xml:space="preserve" text-anchor="middle" x="1002" y="-247" font-family="Helvetica,sans-Serif" font-size="10.00">decoupledOffDiagQuadForm_const_right_eq_inner_coeffVec</text>
</a>
</g>
</g>
<!-- n24&#45;&gt;n1 -->
<g id="edge40" class="edge">
<title>n24&#45;&gt;n1</title>
<path fill="none" stroke="#64748b" d="M1098.93,-231.62C1131.28,-223.51 1166.77,-212.01 1197,-196 1240.45,-172.99 1247.38,-159.88 1281,-124 1294.67,-109.4 1295.52,-103.63 1308,-88 1315.76,-78.28 1324.56,-67.81 1332.3,-58.75"/>
<polygon fill="#64748b" stroke="#64748b" points="1334.04,-60.5 1336.74,-53.59 1330.32,-57.3 1334.04,-60.5"/>
</g>
<!-- n24&#45;&gt;n7 -->
<g id="edge41" class="edge">
<title>n24&#45;&gt;n7</title>
<path fill="none" stroke="#64748b" d="M984.19,-231.78C973.91,-221.62 960.91,-208.37 950,-196 923,-165.39 917.32,-156.78 893,-124 881.39,-108.36 882.07,-101.47 868,-88 855.37,-75.91 839.56,-65.08 825.08,-56.41"/>
<polygon fill="#64748b" stroke="#64748b" points="826.68,-54.51 819.4,-53.1 824.21,-58.75 826.68,-54.51"/>
</g>
<!-- n24&#45;&gt;n22 -->
<g id="edge42" class="edge">
<title>n24&#45;&gt;n22</title>
<path fill="none" stroke="#64748b" d="M1021.28,-231.7C1031.31,-222.69 1043.71,-211.57 1054.52,-201.87"/>
<polygon fill="#64748b" stroke="#64748b" points="1055.97,-203.86 1059.54,-197.36 1052.7,-200.21 1055.97,-203.86"/>
</g>
<!-- n24&#45;&gt;n23 -->
<g id="edge43" class="edge">
<title>n24&#45;&gt;n23</title>
<path fill="none" stroke="#64748b" d="M985.71,-231.78C977.48,-222.04 968.16,-209.19 963,-196 955.06,-175.72 952.82,-150.99 952.41,-132.74"/>
<polygon fill="#64748b" stroke="#64748b" points="954.86,-132.85 952.35,-125.87 949.96,-132.89 954.86,-132.85"/>
</g>
<!-- n25 -->
<g id="node26" class="node">
<title>n25</title>
<g id="a_node26"><a xlink:href="vscode://vscode-remote/wsl+Ubuntu/home/gavin/statlib/Statlib/HighDim/Concentration/HansonWright.lean:76" xlink:title="lemma · Statlib/HighDim/Concentration/HansonWright.lean:76" target="_blank">
<path fill="#eef2f6" stroke="#94a3b8" d="M1350.02,-340C1350.02,-340 1113.98,-340 1113.98,-340 1107.98,-340 1101.98,-334 1101.98,-328 1101.98,-328 1101.98,-316 1101.98,-316 1101.98,-310 1107.98,-304 1113.98,-304 1113.98,-304 1350.02,-304 1350.02,-304 1356.02,-304 1362.02,-310 1362.02,-316 1362.02,-316 1362.02,-328 1362.02,-328 1362.02,-334 1356.02,-340 1350.02,-340"/>
<text xml:space="preserve" text-anchor="middle" x="1232" y="-319" font-family="Helvetica,sans-Serif" font-size="10.00">decoupledOffDiagQuadForm_const_right_subgaussian</text>
</a>
</g>
</g>
<!-- n25&#45;&gt;n0 -->
<g id="edge44" class="edge">
<title>n25&#45;&gt;n0</title>
<path fill="none" stroke="#64748b" d="M1243.87,-303.7C1249.79,-295.05 1257.06,-284.45 1263.52,-275.03"/>
<polygon fill="#64748b" stroke="#64748b" points="1265.48,-276.51 1267.42,-269.35 1261.44,-273.74 1265.48,-276.51"/>
</g>
<!-- n25&#45;&gt;n1 -->
<g id="edge45" class="edge">
<title>n25&#45;&gt;n1</title>
<path fill="none" stroke="#64748b" d="M1216.69,-303.56C1201.95,-284.54 1184.04,-253.89 1200,-232 1230.8,-189.75 1276.19,-234.09 1312,-196 1330.31,-176.52 1343.61,-100.81 1349.54,-60.54"/>
<polygon fill="#64748b" stroke="#64748b" points="1351.94,-61.06 1350.52,-53.78 1347.09,-60.36 1351.94,-61.06"/>
</g>
<!-- n25&#45;&gt;n7 -->
<g id="edge46" class="edge">
<title>n25&#45;&gt;n7</title>
<path fill="none" stroke="#64748b" d="M1101.66,-304.98C992.33,-291.24 853.26,-272.9 849,-268 838.49,-255.94 848.78,-248 849,-232 849.89,-168 876.04,-145.53 848,-88 842.09,-75.86 831.94,-65.52 821.46,-57.28"/>
<polygon fill="#64748b" stroke="#64748b" points="823.21,-55.53 816.13,-53.32 820.29,-59.46 823.21,-55.53"/>
</g>
<!-- n25&#45;&gt;n24 -->
<g id="edge47" class="edge">
<title>n25&#45;&gt;n24</title>
<path fill="none" stroke="#64748b" d="M1174.55,-303.52C1141.91,-293.58 1100.93,-281.11 1067.1,-270.81"/>
<polygon fill="#64748b" stroke="#64748b" points="1067.97,-268.52 1060.56,-268.82 1066.54,-273.2 1067.97,-268.52"/>
</g>
<!-- n26 -->
<g id="node27" class="node">
<title>n26</title>
<g id="a_node27"><a xlink:href="vscode://vscode-remote/wsl+Ubuntu/home/gavin/statlib/Statlib/HighDim/Concentration/HansonWright.lean:122" xlink:title="lemma · Statlib/HighDim/Concentration/HansonWright.lean:122" target="_blank">
<path fill="#eef2f6" stroke="#94a3b8" d="M1072.21,-340C1072.21,-340 961.79,-340 961.79,-340 955.79,-340 949.79,-334 949.79,-328 949.79,-328 949.79,-316 949.79,-316 949.79,-310 955.79,-304 961.79,-304 961.79,-304 1072.21,-304 1072.21,-304 1078.21,-304 1084.21,-310 1084.21,-316 1084.21,-316 1084.21,-328 1084.21,-328 1084.21,-334 1078.21,-340 1072.21,-340"/>
<text xml:space="preserve" text-anchor="middle" x="1017" y="-319" font-family="Helvetica,sans-Serif" font-size="10.00">subgaussian_abs_tail_real</text>
</a>
</g>
</g>
<!-- n27 -->
<g id="node28" class="node">
<title>n27</title>
<g id="a_node28"><a xlink:href="vscode://vscode-remote/wsl+Ubuntu/home/gavin/statlib/Statlib/HighDim/Concentration/HansonWright.lean:815" xlink:title="lemma · Statlib/HighDim/Concentration/HansonWright.lean:815" target="_blank">
<path fill="#eef2f6" stroke="#94a3b8" d="M1085.64,-412C1085.64,-412 802.36,-412 802.36,-412 796.36,-412 790.36,-406 790.36,-400 790.36,-400 790.36,-388 790.36,-388 790.36,-382 796.36,-376 802.36,-376 802.36,-376 1085.64,-376 1085.64,-376 1091.64,-376 1097.64,-382 1097.64,-388 1097.64,-388 1097.64,-400 1097.64,-400 1097.64,-406 1091.64,-412 1085.64,-412"/>
<text xml:space="preserve" text-anchor="middle" x="944" y="-391" font-family="Helvetica,sans-Serif" font-size="10.00">decoupledOffDiagQuadForm_const_right_abs_tail_real_frobenius</text>
</a>
</g>
</g>
<!-- n27&#45;&gt;n0 -->
<g id="edge48" class="edge">
<title>n27&#45;&gt;n0</title>
<path fill="none" stroke="#64748b" d="M1098.14,-379.36C1221.75,-367.66 1376.24,-351 1386,-340 1396.62,-328.03 1394.41,-317.61 1386,-304 1376.39,-288.44 1360.67,-277.3 1344.25,-269.38"/>
<polygon fill="#64748b" stroke="#64748b" points="1345.44,-267.23 1338.05,-266.59 1343.42,-271.7 1345.44,-267.23"/>
</g>
<!-- n27&#45;&gt;n1 -->
<g id="edge49" class="edge">
<title>n27&#45;&gt;n1</title>
<path fill="none" stroke="#64748b" d="M1097.93,-378.69C1216.48,-366.92 1361.72,-350.51 1371,-340 1381.59,-328.01 1380.96,-316.52 1371,-304 1326.7,-248.32 1259.3,-323.68 1215,-268 1156.01,-193.85 1297.22,-224.33 1325,-196 1348.43,-172.11 1340.95,-156.91 1347,-124 1350.9,-102.8 1352.33,-78.33 1352.83,-60.43"/>
<polygon fill="#64748b" stroke="#64748b" points="1355.27,-60.77 1352.97,-53.72 1350.37,-60.67 1355.27,-60.77"/>
</g>
<!-- n27&#45;&gt;n2 -->
<g id="edge50" class="edge">
<title>n27&#45;&gt;n2</title>
<path fill="none" stroke="#64748b" d="M835.9,-375.55C797.35,-366.94 760.56,-355.12 749,-340 739.28,-327.29 744.99,-319.49 749,-304 753.59,-286.28 763.32,-285.4 769,-268 783.96,-222.21 804.23,-200.4 778,-160 763.78,-138.1 738.18,-125.18 714.36,-117.58"/>
<polygon fill="#64748b" stroke="#64748b" points="715.23,-115.28 707.82,-115.64 713.84,-119.98 715.23,-115.28"/>
</g>
<!-- n27&#45;&gt;n6 -->
<g id="edge51" class="edge">
<title>n27&#45;&gt;n6</title>
<path fill="none" stroke="#64748b" d="M793.56,-375.53C770.03,-367.53 747.44,-356.14 729,-340 710.52,-323.83 701.71,-296.65 697.57,-276.57"/>
<polygon fill="#64748b" stroke="#64748b" points="700.02,-276.37 696.34,-269.94 695.21,-277.27 700.02,-276.37"/>
</g>
<!-- n27&#45;&gt;n7 -->
<g id="edge52" class="edge">
<title>n27&#45;&gt;n7</title>
<path fill="none" stroke="#64748b" d="M848.08,-375.54C811.07,-366.69 774.98,-354.67 764,-340 754.42,-327.19 760.5,-319.61 764,-304 767.87,-286.73 774.21,-284.34 781,-268 807.11,-205.16 821.27,-191.03 833,-124 835.76,-108.24 838.83,-102.9 833,-88 828.58,-76.72 820.51,-66.4 812.18,-57.92"/>
<polygon fill="#64748b" stroke="#64748b" points="814.24,-56.5 807.5,-53.41 810.84,-60.03 814.24,-56.5"/>
</g>
<!-- n27&#45;&gt;n18 -->
<g id="edge53" class="edge">
<title>n27&#45;&gt;n18</title>
<path fill="none" stroke="#64748b" d="M840.6,-375.52C779.97,-365.27 703.37,-352.31 641.41,-341.84"/>
<polygon fill="#64748b" stroke="#64748b" points="641.96,-339.45 634.65,-340.69 641.15,-344.28 641.96,-339.45"/>
</g>
<!-- n27&#45;&gt;n19 -->
<g id="edge54" class="edge">
<title>n27&#45;&gt;n19</title>
<path fill="none" stroke="#64748b" d="M921.26,-375.7C909.21,-366.53 894.26,-355.16 881.34,-345.33"/>
<polygon fill="#64748b" stroke="#64748b" points="883.06,-343.55 876,-341.26 880.09,-347.45 883.06,-343.55"/>
</g>
<!-- n27&#45;&gt;n25 -->
<g id="edge55" class="edge">
<title>n27&#45;&gt;n25</title>
<path fill="none" stroke="#64748b" d="M1015.93,-375.52C1057.41,-365.44 1109.64,-352.74 1152.35,-342.36"/>
<polygon fill="#64748b" stroke="#64748b" points="1152.79,-344.77 1159.02,-340.74 1151.64,-340.01 1152.79,-344.77"/>
</g>
<!-- n27&#45;&gt;n26 -->
<g id="edge56" class="edge">
<title>n27&#45;&gt;n26</title>
<path fill="none" stroke="#64748b" d="M962.04,-375.7C971.35,-366.78 982.82,-355.78 992.87,-346.14"/>
<polygon fill="#64748b" stroke="#64748b" points="994.46,-348.01 997.82,-341.39 991.07,-344.47 994.46,-348.01"/>
</g>
<!-- n28 -->
<g id="node29" class="node">
<title>n28</title>
<g id="a_node29"><a xlink:href="vscode://vscode-remote/wsl+Ubuntu/home/gavin/statlib/Statlib/HighDim/Concentration/HansonWright.lean:179" xlink:title="lemma · Statlib/HighDim/Concentration/HansonWright.lean:179" target="_blank">
<path fill="#eef2f6" stroke="#94a3b8" d="M1414.74,-412C1414.74,-412 1179.26,-412 1179.26,-412 1173.26,-412 1167.26,-406 1167.26,-400 1167.26,-400 1167.26,-388 1167.26,-388 1167.26,-382 1173.26,-376 1179.26,-376 1179.26,-376 1414.74,-376 1414.74,-376 1420.74,-376 1426.74,-382 1426.74,-388 1426.74,-388 1426.74,-400 1426.74,-400 1426.74,-406 1420.74,-412 1414.74,-412"/>
<text xml:space="preserve" text-anchor="middle" x="1297" y="-391" font-family="Helvetica,sans-Serif" font-size="10.00">decoupledOffDiagQuadForm_prod_mk_eq_const_right</text>
</a>
</g>
</g>
<!-- n28&#45;&gt;n1 -->
<g id="edge57" class="edge">
<title>n28&#45;&gt;n1</title>
<path fill="none" stroke="#64748b" d="M1360.09,-375.57C1377.3,-367.61 1393.94,-356.2 1404,-340 1412.44,-326.41 1409.91,-318.87 1404,-304 1395.87,-283.55 1378.81,-288.17 1370,-268 1337.92,-194.52 1364.43,-167.92 1358,-88 1357.28,-79.02 1356.38,-69.19 1355.55,-60.46"/>
<polygon fill="#64748b" stroke="#64748b" points="1358,-60.41 1354.89,-53.68 1353.12,-60.89 1358,-60.41"/>
</g>
<!-- n29 -->
<g id="node30" class="node">
<title>n29</title>
<g id="a_node30"><a xlink:href="vscode://vscode-remote/wsl+Ubuntu/home/gavin/statlib/Statlib/HighDim/Concentration/HansonWright.lean:906" xlink:title="lemma · Statlib/HighDim/Concentration/HansonWright.lean:906" target="_blank">
<path fill="#eef2f6" stroke="#94a3b8" d="M1349.65,-484C1349.65,-484 1036.35,-484 1036.35,-484 1030.35,-484 1024.35,-478 1024.35,-472 1024.35,-472 1024.35,-460 1024.35,-460 1024.35,-454 1030.35,-448 1036.35,-448 1036.35,-448 1349.65,-448 1349.65,-448 1355.65,-448 1361.65,-454 1361.65,-460 1361.65,-460 1361.65,-472 1361.65,-472 1361.65,-478 1355.65,-484 1349.65,-484"/>
<text xml:space="preserve" text-anchor="middle" x="1193" y="-463" font-family="Helvetica,sans-Serif" font-size="10.00">decoupledOffDiagQuadForm_prod_first_section_abs_tail_real_frobenius</text>
</a>
</g>
</g>
<!-- n29&#45;&gt;n0 -->
<g id="edge58" class="edge">
<title>n29&#45;&gt;n0</title>
<path fill="none" stroke="#64748b" d="M1176.7,-447.83C1160.33,-428.49 1139.93,-397.03 1158,-376 1227.45,-295.2 1325.55,-420.8 1395,-340 1405.43,-327.87 1403.63,-317.47 1395,-304 1383.49,-286.02 1364.16,-274.06 1344.61,-266.13"/>
<polygon fill="#64748b" stroke="#64748b" points="1345.66,-263.91 1338.24,-263.72 1343.92,-268.49 1345.66,-263.91"/>
</g>
<!-- n29&#45;&gt;n1 -->
<g id="edge59" class="edge">
<title>n29&#45;&gt;n1</title>
<path fill="none" stroke="#64748b" d="M1344.53,-447.56C1385.97,-439.51 1423.07,-428.06 1436,-412 1455.85,-387.35 1416.8,-313.16 1412,-304 1402.72,-286.28 1392.42,-286.57 1385,-268 1355.14,-193.2 1376.86,-167.51 1364,-88 1362.54,-78.96 1360.59,-69.11 1358.75,-60.39"/>
<polygon fill="#64748b" stroke="#64748b" points="1361.15,-59.92 1357.27,-53.59 1356.36,-60.95 1361.15,-59.92"/>
</g>
<!-- n29&#45;&gt;n2 -->
<g id="edge60" class="edge">
<title>n29&#45;&gt;n2</title>
<path fill="none" stroke="#64748b" d="M1024.06,-464.29C809.32,-459.35 456.69,-436.31 376,-340 365.72,-327.74 366.85,-317.13 376,-304 428.81,-228.2 482.42,-258.26 571,-232 640.47,-211.41 684.78,-252.61 730,-196 739.99,-183.5 737.17,-174.3 730,-160 723.66,-147.36 712.71,-136.96 701.29,-128.82"/>
<polygon fill="#64748b" stroke="#64748b" points="702.97,-127 695.8,-125.14 700.24,-131.07 702.97,-127"/>
</g>
<!-- n29&#45;&gt;n27 -->
<g id="edge61" class="edge">
<title>n29&#45;&gt;n27</title>
<path fill="none" stroke="#64748b" d="M1130.81,-447.52C1095.32,-437.54 1050.73,-425 1014.02,-414.68"/>
<polygon fill="#64748b" stroke="#64748b" points="1014.69,-412.33 1007.29,-412.79 1013.36,-417.04 1014.69,-412.33"/>
</g>
<!-- n29&#45;&gt;n28 -->
<g id="edge62" class="edge">
<title>n29&#45;&gt;n28</title>
<path fill="none" stroke="#64748b" d="M1218.98,-447.52C1232.73,-438.26 1249.75,-426.8 1264.39,-416.95"/>
<polygon fill="#64748b" stroke="#64748b" points="1265.66,-419.05 1270.1,-413.11 1262.92,-414.98 1265.66,-419.05"/>
</g>
<!-- n30 -->
<g id="node31" class="node">
<title>n30</title>
<g id="a_node31"><a xlink:href="vscode://vscode-remote/wsl+Ubuntu/home/gavin/statlib/Statlib/HighDim/Concentration/HansonWright.lean:114" xlink:title="lemma · Statlib/HighDim/Concentration/HansonWright.lean:114" target="_blank">
<path fill="#eef2f6" stroke="#94a3b8" d="M1642.5,-484C1642.5,-484 1471.5,-484 1471.5,-484 1465.5,-484 1459.5,-478 1459.5,-472 1459.5,-472 1459.5,-460 1459.5,-460 1459.5,-454 1465.5,-448 1471.5,-448 1471.5,-448 1642.5,-448 1642.5,-448 1648.5,-448 1654.5,-454 1654.5,-460 1654.5,-460 1654.5,-472 1654.5,-472 1654.5,-478 1648.5,-484 1642.5,-484"/>
<text xml:space="preserve" text-anchor="middle" x="1557" y="-463" font-family="Helvetica,sans-Serif" font-size="10.00">measure_le_ofReal_of_measureReal_le</text>
</a>
</g>
</g>
<!-- n31 -->
<g id="node32" class="node">
<title>n31</title>
<g id="a_node32"><a xlink:href="vscode://vscode-remote/wsl+Ubuntu/home/gavin/statlib/Statlib/HighDim/Concentration/HansonWright.lean:977" xlink:title="lemma · Statlib/HighDim/Concentration/HansonWright.lean:977" target="_blank">
<path fill="#eef2f6" stroke="#94a3b8" stroke-width="3" d="M1439.2,-556C1439.2,-556 1174.8,-556 1174.8,-556 1168.8,-556 1162.8,-550 1162.8,-544 1162.8,-544 1162.8,-532 1162.8,-532 1162.8,-526 1168.8,-520 1174.8,-520 1174.8,-520 1439.2,-520 1439.2,-520 1445.2,-520 1451.2,-526 1451.2,-532 1451.2,-532 1451.2,-544 1451.2,-544 1451.2,-550 1445.2,-556 1439.2,-556"/>
<text xml:space="preserve" text-anchor="middle" x="1307" y="-535" font-family="Helvetica,sans-Serif" font-size="10.00">decoupledOffDiagQuadForm_prod_tail_le_lintegral_frobenius</text>
</a>
</g>
</g>
<!-- n31&#45;&gt;n0 -->
<g id="edge63" class="edge">
<title>n31&#45;&gt;n0</title>
<path fill="none" stroke="#64748b" d="M1330.8,-518.65C1343.16,-508.78 1358.29,-496.18 1371,-484 1411.45,-445.24 1447.63,-430.8 1436,-376 1428.73,-341.74 1428.94,-328.58 1404,-304 1387.66,-287.9 1365.67,-276.36 1344.74,-268.24"/>
<polygon fill="#64748b" stroke="#64748b" points="1345.62,-265.96 1338.2,-265.83 1343.92,-270.55 1345.62,-265.96"/>
</g>
<!-- n31&#45;&gt;n1 -->
<g id="edge64" class="edge">
<title>n31&#45;&gt;n1</title>
<path fill="none" stroke="#64748b" d="M1161.44,-523.95C961.23,-500.69 639.04,-440.99 764,-304 822.8,-239.53 1076.27,-305.61 1155,-268 1175.14,-258.38 1174.22,-247.78 1190,-232 1238.44,-183.54 1257.74,-177.93 1300,-124 1315.92,-103.69 1330.64,-78.18 1340.51,-59.69"/>
<polygon fill="#64748b" stroke="#64748b" points="1342.64,-60.9 1343.73,-53.57 1338.3,-58.62 1342.64,-60.9"/>
</g>
<!-- n31&#45;&gt;n2 -->
<g id="edge65" class="edge">
<title>n31&#45;&gt;n2</title>
<path fill="none" stroke="#64748b" d="M1161.47,-536.54C1039.09,-533.22 860.39,-521.44 709,-484 548.1,-444.21 456.82,-477.98 365,-340 336.47,-297.12 363.97,-260.3 407,-232 462.55,-195.47 659.91,-245.76 704,-196 721.2,-176.59 702.87,-149.42 684.69,-130.22"/>
<polygon fill="#64748b" stroke="#64748b" points="686.56,-128.63 679.91,-125.37 683.07,-132.07 686.56,-128.63"/>
</g>
<!-- n31&#45;&gt;n5 -->
<g id="edge66" class="edge">
<title>n31&#45;&gt;n5</title>
<path fill="none" stroke="#64748b" d="M1346.52,-518.62C1363.03,-509.7 1381.66,-497.89 1396,-484 1459.34,-422.62 1499.44,-323.04 1515.71,-276.49"/>
<polygon fill="#64748b" stroke="#64748b" points="1518.02,-277.29 1517.97,-269.87 1513.39,-275.7 1518.02,-277.29"/>
</g>
<!-- n31&#45;&gt;n29 -->
<g id="edge67" class="edge">
<title>n31&#45;&gt;n29</title>
<path fill="none" stroke="#64748b" d="M1277.05,-518.61C1262.06,-509.4 1243.82,-498.21 1228.17,-488.6"/>
<polygon fill="#64748b" stroke="#64748b" points="1229.72,-486.67 1222.47,-485.1 1227.16,-490.85 1229.72,-486.67"/>
</g>
<!-- n31&#45;&gt;n30 -->
<g id="edge68" class="edge">
<title>n31&#45;&gt;n30</title>
<path fill="none" stroke="#64748b" d="M1373.01,-518.52C1408.11,-508.69 1451.27,-496.6 1486.96,-486.61"/>
<polygon fill="#64748b" stroke="#64748b" points="1487.39,-489.04 1493.47,-484.79 1486.06,-484.32 1487.39,-489.04"/>
</g>
</g>
</svg>
