<?xml version="1.0" encoding="UTF-8" standalone="no"?>
<!DOCTYPE svg PUBLIC "-//W3C//DTD SVG 1.1//EN"
 "http://www.w3.org/Graphics/SVG/1.1/DTD/svg11.dtd">
<!-- Generated by graphviz version 15.0.0 (20260523.1842)
 -->
<!-- Title: decoupledOffDiagQuadForm_prod_tail_le_markov_plus_good_ofReal Pages: 1 -->
<svg width="2639pt" height="699pt"
 viewBox="0.00 0.00 2639.00 699.00" xmlns="http://www.w3.org/2000/svg" xmlns:xlink="http://www.w3.org/1999/xlink">
<g id="graph0" class="graph" transform="scale(1 1) rotate(0) translate(4 695.2)">
<title>decoupledOffDiagQuadForm_prod_tail_le_markov_plus_good_ofReal</title>
<polygon fill="white" stroke="none" points="-4,4 -4,-695.2 2635,-695.2 2635,4 -4,4"/>
<text xml:space="preserve" text-anchor="middle" x="1315.5" y="-674.6" font-family="Helvetica,sans-Serif" font-size="14.00">Proof narrative — decoupledOffDiagQuadForm_prod_tail_le_markov_plus_good_ofReal &#160;(38 decls)</text>
<g id="clust1" class="cluster">
<title>cluster_0</title>
<path fill="none" stroke="#cbd5e1" stroke-dasharray="5,2" d="M20,-8C20,-8 1916,-8 1916,-8 1922,-8 1928,-14 1928,-20 1928,-20 1928,-646.4 1928,-646.4 1928,-652.4 1922,-658.4 1916,-658.4 1916,-658.4 20,-658.4 20,-658.4 14,-658.4 8,-652.4 8,-646.4 8,-646.4 8,-20 8,-20 8,-14 14,-8 20,-8"/>
<text xml:space="preserve" text-anchor="middle" x="968" y="-644.5" font-family="Helvetica,sans-Serif" font-size="11.00">HighDim</text>
</g>
<g id="clust2" class="cluster">
<title>cluster_1</title>
<path fill="none" stroke="#cbd5e1" stroke-dasharray="5,2" d="M1948,-224C1948,-224 2611,-224 2611,-224 2617,-224 2623,-230 2623,-236 2623,-236 2623,-285.2 2623,-285.2 2623,-291.2 2617,-297.2 2611,-297.2 2611,-297.2 1948,-297.2 1948,-297.2 1942,-297.2 1936,-291.2 1936,-285.2 1936,-285.2 1936,-236 1936,-236 1936,-230 1942,-224 1948,-224"/>
<text xml:space="preserve" text-anchor="middle" x="2279.5" y="-283.3" font-family="Helvetica,sans-Serif" font-size="11.00">StatFoundation</text>
</g>
<!-- n0 -->
<g id="node1" class="node">
<title>n0</title>
<g id="a_node1"><a xlink:href="https://github.com/statopia/statlib/blob/main/Statlib/HighDim/Vocabulary/RandomVector.lean#L52" xlink:title="structure · Statlib/HighDim/Vocabulary/RandomVector.lean:52" target="_blank">
<path fill="#e8dcff" stroke="#8b5cf6" d="M954.36,-268C954.36,-268 865.64,-268 865.64,-268 859.64,-268 853.64,-262 853.64,-256 853.64,-256 853.64,-244 853.64,-244 853.64,-238 859.64,-232 865.64,-232 865.64,-232 954.36,-232 954.36,-232 960.36,-232 966.36,-238 966.36,-244 966.36,-244 966.36,-256 966.36,-256 966.36,-262 960.36,-268 954.36,-268"/>
<text xml:space="preserve" text-anchor="middle" x="910" y="-247" font-family="Helvetica,sans-Serif" font-size="10.00">IsSubGaussianVector</text>
</a>
</g>
</g>
<!-- n1 -->
<g id="node2" class="node">
<title>n1</title>
<g id="a_node2"><a xlink:href="https://github.com/statopia/statlib/blob/main/Statlib/HighDim/Vocabulary/QuadraticForms.lean#L33" xlink:title="noncomputable def · Statlib/HighDim/Vocabulary/QuadraticForms.lean:33" target="_blank">
<path fill="#d6e9ff" stroke="#3b82f6" d="M1778.92,-52C1778.92,-52 1659.08,-52 1659.08,-52 1653.08,-52 1647.08,-46 1647.08,-40 1647.08,-40 1647.08,-28 1647.08,-28 1647.08,-22 1653.08,-16 1659.08,-16 1659.08,-16 1778.92,-16 1778.92,-16 1784.92,-16 1790.92,-22 1790.92,-28 1790.92,-28 1790.92,-40 1790.92,-40 1790.92,-46 1784.92,-52 1778.92,-52"/>
<text xml:space="preserve" text-anchor="middle" x="1719" y="-31" font-family="Helvetica,sans-Serif" font-size="10.00">decoupledOffDiagQuadForm</text>
</a>
</g>
</g>
<!-- n2 -->
<g id="node3" class="node">
<title>n2</title>
<g id="a_node3"><a xlink:href="https://github.com/statopia/statlib/blob/main/Statlib/HighDim/Vocabulary/Norms.lean#L37" xlink:title="noncomputable def · Statlib/HighDim/Vocabulary/Norms.lean:37" target="_blank">
<path fill="#d6e9ff" stroke="#3b82f6" d="M97.91,-268C97.91,-268 28.09,-268 28.09,-268 22.09,-268 16.09,-262 16.09,-256 16.09,-256 16.09,-244 16.09,-244 16.09,-238 22.09,-232 28.09,-232 28.09,-232 97.91,-232 97.91,-232 103.91,-232 109.91,-238 109.91,-244 109.91,-244 109.91,-256 109.91,-256 109.91,-262 103.91,-268 97.91,-268"/>
<text xml:space="preserve" text-anchor="middle" x="63" y="-247" font-family="Helvetica,sans-Serif" font-size="10.00">frobeniusNormSq</text>
</a>
</g>
</g>
<!-- n3 -->
<g id="node4" class="node">
<title>n3</title>
<g id="a_node4"><a xlink:href="https://github.com/statopia/statlib/blob/main/Statlib/HighDim/Concentration/HansonWright.lean#L402" xlink:title="lemma · Statlib/HighDim/Concentration/HansonWright.lean:402" target="_blank">
<path fill="#eef2f6" stroke="#94a3b8" d="M136.37,-557.2C136.37,-557.2 27.63,-557.2 27.63,-557.2 21.63,-557.2 15.63,-551.2 15.63,-545.2 15.63,-545.2 15.63,-533.2 15.63,-533.2 15.63,-527.2 21.63,-521.2 27.63,-521.2 27.63,-521.2 136.37,-521.2 136.37,-521.2 142.37,-521.2 148.37,-527.2 148.37,-533.2 148.37,-533.2 148.37,-545.2 148.37,-545.2 148.37,-551.2 142.37,-557.2 136.37,-557.2"/>
<text xml:space="preserve" text-anchor="middle" x="82" y="-536.2" font-family="Helvetica,sans-Serif" font-size="10.00">frobeniusNormSq_nonneg</text>
</a>
</g>
</g>
<!-- n3&#45;&gt;n2 -->
<g id="edge1" class="edge">
<title>n3&#45;&gt;n2</title>
<path fill="none" stroke="#64748b" d="M59.14,-520.93C48.75,-511.63 37.56,-499.19 32,-485.2 2.46,-410.85 11.45,-382.52 32,-305.2 34.78,-294.72 40.12,-284.16 45.6,-275.18"/>
<polygon fill="#64748b" stroke="#64748b" points="47.64,-276.53 49.36,-269.32 43.52,-273.89 47.64,-276.53"/>
</g>
<!-- n4 -->
<g id="node5" class="node">
<title>n4</title>
<g id="a_node5"><a xlink:href="https://github.com/statopia/statlib/blob/main/Statlib/HighDim/Vocabulary/QuadraticForms.lean#L46" xlink:title="noncomputable def · Statlib/HighDim/Vocabulary/QuadraticForms.lean:46" target="_blank">
<path fill="#d6e9ff" stroke="#3b82f6" d="M948.41,-124C948.41,-124 883.59,-124 883.59,-124 877.59,-124 871.59,-118 871.59,-112 871.59,-112 871.59,-100 871.59,-100 871.59,-94 877.59,-88 883.59,-88 883.59,-88 948.41,-88 948.41,-88 954.41,-88 960.41,-94 960.41,-100 960.41,-100 960.41,-112 960.41,-112 960.41,-118 954.41,-124 948.41,-124"/>
<text xml:space="preserve" text-anchor="middle" x="916" y="-103" font-family="Helvetica,sans-Serif" font-size="10.00">offDiagCoeffVec</text>
</a>
</g>
</g>
<!-- n5 -->
<g id="node6" class="node">
<title>n5</title>
<g id="a_node6"><a xlink:href="https://github.com/statopia/statlib/blob/main/Statlib/HighDim/Concentration/HansonWright.lean#L90" xlink:title="lemma · Statlib/HighDim/Concentration/HansonWright.lean:90" target="_blank">
<path fill="#eef2f6" stroke="#94a3b8" d="M1807.83,-124C1807.83,-124 1630.17,-124 1630.17,-124 1624.17,-124 1618.17,-118 1618.17,-112 1618.17,-112 1618.17,-100 1618.17,-100 1618.17,-94 1624.17,-88 1630.17,-88 1630.17,-88 1807.83,-88 1807.83,-88 1813.83,-88 1819.83,-94 1819.83,-100 1819.83,-100 1819.83,-112 1819.83,-112 1819.83,-118 1813.83,-124 1807.83,-124"/>
<text xml:space="preserve" text-anchor="middle" x="1719" y="-103" font-family="Helvetica,sans-Serif" font-size="10.00">decoupledOffDiagQuadForm_measurable</text>
</a>
</g>
</g>
<!-- n5&#45;&gt;n1 -->
<g id="edge2" class="edge">
<title>n5&#45;&gt;n1</title>
<path fill="none" stroke="#64748b" d="M1719,-87.7C1719,-79.47 1719,-69.48 1719,-60.42"/>
<polygon fill="#64748b" stroke="#64748b" points="1721.45,-60.62 1719,-53.62 1716.55,-60.62 1721.45,-60.62"/>
</g>
<!-- n6 -->
<g id="node7" class="node">
<title>n6</title>
<g id="a_node7"><a xlink:href="https://github.com/statopia/statlib/blob/main/Statlib/HighDim/Concentration/HansonWright.lean#L99" xlink:title="lemma · Statlib/HighDim/Concentration/HansonWright.lean:99" target="_blank">
<path fill="#eef2f6" stroke="#94a3b8" d="M1807.62,-196C1807.62,-196 1604.38,-196 1604.38,-196 1598.38,-196 1592.38,-190 1592.38,-184 1592.38,-184 1592.38,-172 1592.38,-172 1592.38,-166 1598.38,-160 1604.38,-160 1604.38,-160 1807.62,-160 1807.62,-160 1813.62,-160 1819.62,-166 1819.62,-172 1819.62,-172 1819.62,-184 1819.62,-184 1819.62,-190 1813.62,-196 1807.62,-196"/>
<text xml:space="preserve" text-anchor="middle" x="1706" y="-175" font-family="Helvetica,sans-Serif" font-size="10.00">decoupledOffDiagQuadForm_prod_measurable</text>
</a>
</g>
</g>
<!-- n6&#45;&gt;n1 -->
<g id="edge3" class="edge">
<title>n6&#45;&gt;n1</title>
<path fill="none" stroke="#64748b" d="M1651.22,-159.59C1634.72,-151.5 1618.5,-140.01 1609,-124 1600.84,-110.24 1600.49,-101.55 1609,-88 1617.77,-74.04 1631.36,-63.67 1646.04,-56"/>
<polygon fill="#64748b" stroke="#64748b" points="1646.74,-58.38 1651.96,-53.11 1644.59,-53.98 1646.74,-58.38"/>
</g>
<!-- n6&#45;&gt;n5 -->
<g id="edge4" class="edge">
<title>n6&#45;&gt;n5</title>
<path fill="none" stroke="#64748b" d="M1709.21,-159.7C1710.74,-151.47 1712.6,-141.48 1714.28,-132.42"/>
<polygon fill="#64748b" stroke="#64748b" points="1716.68,-132.92 1715.55,-125.59 1711.86,-132.03 1716.68,-132.92"/>
</g>
<!-- n7 -->
<g id="node8" class="node">
<title>n7</title>
<g id="a_node8"><a xlink:href="https://github.com/statopia/statlib/blob/main/Statlib/HighDim/Concentration/HansonWright.lean#L109" xlink:title="lemma · Statlib/HighDim/Concentration/HansonWright.lean:109" target="_blank">
<path fill="#eef2f6" stroke="#94a3b8" d="M1828.29,-268C1828.29,-268 1591.71,-268 1591.71,-268 1585.71,-268 1579.71,-262 1579.71,-256 1579.71,-256 1579.71,-244 1579.71,-244 1579.71,-238 1585.71,-232 1591.71,-232 1591.71,-232 1828.29,-232 1828.29,-232 1834.29,-232 1840.29,-238 1840.29,-244 1840.29,-244 1840.29,-256 1840.29,-256 1840.29,-262 1834.29,-268 1828.29,-268"/>
<text xml:space="preserve" text-anchor="middle" x="1710" y="-247" font-family="Helvetica,sans-Serif" font-size="10.00">decoupledOffDiagQuadForm_prod_tail_measurableSet</text>
</a>
</g>
</g>
<!-- n7&#45;&gt;n1 -->
<g id="edge5" class="edge">
<title>n7&#45;&gt;n1</title>
<path fill="none" stroke="#64748b" d="M1629.13,-231.57C1611,-223.74 1593.93,-212.4 1583,-196 1574.13,-182.68 1581.25,-175.9 1583,-160 1586.58,-127.42 1578.22,-113.35 1599,-88 1610.52,-73.95 1626.52,-63.51 1643.08,-55.79"/>
<polygon fill="#64748b" stroke="#64748b" points="1643.9,-58.11 1649.33,-53.05 1641.93,-53.62 1643.9,-58.11"/>
</g>
<!-- n7&#45;&gt;n6 -->
<g id="edge6" class="edge">
<title>n7&#45;&gt;n6</title>
<path fill="none" stroke="#64748b" d="M1709.01,-231.7C1708.54,-223.47 1707.97,-213.48 1707.45,-204.42"/>
<polygon fill="#64748b" stroke="#64748b" points="1709.91,-204.46 1707.06,-197.62 1705.02,-204.74 1709.91,-204.46"/>
</g>
<!-- n8 -->
<g id="node9" class="node">
<title>n8</title>
<g id="a_node9"><a xlink:href="https://github.com/statopia/statlib/blob/main/Statlib/HighDim/Concentration/HansonWright.lean#L622" xlink:title="lemma · Statlib/HighDim/Concentration/HansonWright.lean:622" target="_blank">
<path fill="#eef2f6" stroke="#94a3b8" d="M1109.32,-196C1109.32,-196 956.68,-196 956.68,-196 950.68,-196 944.68,-190 944.68,-184 944.68,-184 944.68,-172 944.68,-172 944.68,-166 950.68,-160 956.68,-160 956.68,-160 1109.32,-160 1109.32,-160 1115.32,-160 1121.32,-166 1121.32,-172 1121.32,-172 1121.32,-184 1121.32,-184 1121.32,-190 1115.32,-196 1109.32,-196"/>
<text xml:space="preserve" text-anchor="middle" x="1033" y="-175" font-family="Helvetica,sans-Serif" font-size="10.00">offDiagCoeffVec_comp_measurable</text>
</a>
</g>
</g>
<!-- n8&#45;&gt;n4 -->
<g id="edge7" class="edge">
<title>n8&#45;&gt;n4</title>
<path fill="none" stroke="#64748b" d="M1003.78,-159.52C988.02,-150.09 968.45,-138.38 951.79,-128.41"/>
<polygon fill="#64748b" stroke="#64748b" points="953.41,-126.53 946.15,-125.04 950.9,-130.73 953.41,-126.53"/>
</g>
<!-- n9 -->
<g id="node10" class="node">
<title>n9</title>
<g id="a_node10"><a xlink:href="https://github.com/statopia/statlib/blob/main/Statlib/HighDim/Concentration/HansonWright.lean#L630" xlink:title="lemma · Statlib/HighDim/Concentration/HansonWright.lean:630" target="_blank">
<path fill="#eef2f6" stroke="#94a3b8" d="M1183.55,-268C1183.55,-268 1016.45,-268 1016.45,-268 1010.45,-268 1004.45,-262 1004.45,-256 1004.45,-256 1004.45,-244 1004.45,-244 1004.45,-238 1010.45,-232 1016.45,-232 1016.45,-232 1183.55,-232 1183.55,-232 1189.55,-232 1195.55,-238 1195.55,-244 1195.55,-244 1195.55,-256 1195.55,-256 1195.55,-262 1189.55,-268 1183.55,-268"/>
<text xml:space="preserve" text-anchor="middle" x="1100" y="-247" font-family="Helvetica,sans-Serif" font-size="10.00">offDiagCoeffVec_norm_sq_measurable</text>
</a>
</g>
</g>
<!-- n9&#45;&gt;n4 -->
<g id="edge8" class="edge">
<title>n9&#45;&gt;n4</title>
<path fill="none" stroke="#64748b" d="M1021.91,-231.6C985.82,-222.05 948.25,-209.43 936,-196 920.45,-178.96 916.12,-152.49 915.28,-132.84"/>
<polygon fill="#64748b" stroke="#64748b" points="917.73,-132.82 915.14,-125.87 912.83,-132.91 917.73,-132.82"/>
</g>
<!-- n9&#45;&gt;n8 -->
<g id="edge9" class="edge">
<title>n9&#45;&gt;n8</title>
<path fill="none" stroke="#64748b" d="M1083.44,-231.7C1074.92,-222.8 1064.42,-211.82 1055.2,-202.2"/>
<polygon fill="#64748b" stroke="#64748b" points="1057.03,-200.56 1050.42,-197.2 1053.49,-203.95 1057.03,-200.56"/>
</g>
<!-- n11 -->
<g id="node11" class="node">
<title>n11</title>
<g id="a_node11"><a xlink:href="https://github.com/statopia/statlib/blob/main/Statlib/HighDim/Vocabulary/QuadraticForms.lean#L39" xlink:title="noncomputable def · Statlib/HighDim/Vocabulary/QuadraticForms.lean:39" target="_blank">
<path fill="#d6e9ff" stroke="#3b82f6" d="M1306.79,-52C1306.79,-52 1259.21,-52 1259.21,-52 1253.21,-52 1247.21,-46 1247.21,-40 1247.21,-40 1247.21,-28 1247.21,-28 1247.21,-22 1253.21,-16 1259.21,-16 1259.21,-16 1306.79,-16 1306.79,-16 1312.79,-16 1318.79,-22 1318.79,-28 1318.79,-28 1318.79,-40 1318.79,-40 1318.79,-46 1312.79,-52 1306.79,-52"/>
<text xml:space="preserve" text-anchor="middle" x="1283" y="-31" font-family="Helvetica,sans-Serif" font-size="10.00">offDiagCoeff</text>
</a>
</g>
</g>
<!-- n12 -->
<g id="node12" class="node">
<title>n12</title>
<g id="a_node12"><a xlink:href="https://github.com/statopia/statlib/blob/main/Statlib/HighDim/Concentration/HansonWright.lean#L46" xlink:title="lemma · Statlib/HighDim/Concentration/HansonWright.lean:46" target="_blank">
<path fill="#eef2f6" stroke="#94a3b8" d="M1502.11,-124C1502.11,-124 1313.89,-124 1313.89,-124 1307.89,-124 1301.89,-118 1301.89,-112 1301.89,-112 1301.89,-100 1301.89,-100 1301.89,-94 1307.89,-88 1313.89,-88 1313.89,-88 1502.11,-88 1502.11,-88 1508.11,-88 1514.11,-94 1514.11,-100 1514.11,-100 1514.11,-112 1514.11,-112 1514.11,-118 1508.11,-124 1502.11,-124"/>
<text xml:space="preserve" text-anchor="middle" x="1408" y="-103" font-family="Helvetica,sans-Serif" font-size="10.00">decoupledOffDiagQuadForm_eq_sum_coeff</text>
</a>
</g>
</g>
<!-- n12&#45;&gt;n1 -->
<g id="edge10" class="edge">
<title>n12&#45;&gt;n1</title>
<path fill="none" stroke="#64748b" d="M1485.68,-87.52C1532.28,-77.03 1591.44,-63.71 1638.53,-53.11"/>
<polygon fill="#64748b" stroke="#64748b" points="1638.81,-55.56 1645.1,-51.63 1637.73,-50.78 1638.81,-55.56"/>
</g>
<!-- n12&#45;&gt;n11 -->
<g id="edge11" class="edge">
<title>n12&#45;&gt;n11</title>
<path fill="none" stroke="#64748b" d="M1376.78,-87.52C1359.95,-78.09 1339.04,-66.38 1321.24,-56.41"/>
<polygon fill="#64748b" stroke="#64748b" points="1322.45,-54.28 1315.14,-53 1320.05,-58.56 1322.45,-54.28"/>
</g>
<!-- n13 -->
<g id="node13" class="node">
<title>n13</title>
<g id="a_node13"><a xlink:href="https://github.com/statopia/statlib/blob/main/Statlib/HighDim/Vocabulary/Norms.lean#L32" xlink:title="lemma · Statlib/HighDim/Vocabulary/Norms.lean:32" target="_blank">
<path fill="#eef2f6" stroke="#94a3b8" d="M1251.69,-124C1251.69,-124 1196.31,-124 1196.31,-124 1190.31,-124 1184.31,-118 1184.31,-112 1184.31,-112 1184.31,-100 1184.31,-100 1184.31,-94 1190.31,-88 1196.31,-88 1196.31,-88 1251.69,-88 1251.69,-88 1257.69,-88 1263.69,-94 1263.69,-100 1263.69,-100 1263.69,-112 1263.69,-112 1263.69,-118 1257.69,-124 1251.69,-124"/>
<text xml:space="preserve" text-anchor="middle" x="1224" y="-103" font-family="Helvetica,sans-Serif" font-size="10.00">inner_eq_sum</text>
</a>
</g>
</g>
<!-- n14 -->
<g id="node14" class="node">
<title>n14</title>
<g id="a_node14"><a xlink:href="https://github.com/statopia/statlib/blob/main/Statlib/HighDim/Concentration/HansonWright.lean#L65" xlink:title="lemma · Statlib/HighDim/Concentration/HansonWright.lean:65" target="_blank">
<path fill="#eef2f6" stroke="#94a3b8" d="M1521.79,-196C1521.79,-196 1330.21,-196 1330.21,-196 1324.21,-196 1318.21,-190 1318.21,-184 1318.21,-184 1318.21,-172 1318.21,-172 1318.21,-166 1324.21,-160 1330.21,-160 1330.21,-160 1521.79,-160 1521.79,-160 1527.79,-160 1533.79,-166 1533.79,-172 1533.79,-172 1533.79,-184 1533.79,-184 1533.79,-190 1527.79,-196 1521.79,-196"/>
<text xml:space="preserve" text-anchor="middle" x="1426" y="-175" font-family="Helvetica,sans-Serif" font-size="10.00">decoupledOffDiagQuadForm_eq_inner_coeff</text>
</a>
</g>
</g>
<!-- n14&#45;&gt;n1 -->
<g id="edge12" class="edge">
<title>n14&#45;&gt;n1</title>
<path fill="none" stroke="#64748b" d="M1467.4,-159.66C1485.71,-150.73 1506.73,-138.62 1523,-124 1537.49,-110.98 1532.28,-99.51 1548,-88 1574.47,-68.61 1608.19,-56.2 1638.67,-48.31"/>
<polygon fill="#64748b" stroke="#64748b" points="1639.09,-50.73 1645.29,-46.67 1637.91,-45.98 1639.09,-50.73"/>
</g>
<!-- n14&#45;&gt;n11 -->
<g id="edge13" class="edge">
<title>n14&#45;&gt;n11</title>
<path fill="none" stroke="#64748b" d="M1343.02,-159.57C1323.89,-151.74 1305.51,-140.4 1293,-124 1279.34,-106.1 1277.94,-79.97 1279.29,-60.65"/>
<polygon fill="#64748b" stroke="#64748b" points="1281.72,-61.01 1279.93,-53.81 1276.84,-60.55 1281.72,-61.01"/>
</g>
<!-- n14&#45;&gt;n12 -->
<g id="edge14" class="edge">
<title>n14&#45;&gt;n12</title>
<path fill="none" stroke="#64748b" d="M1421.55,-159.7C1419.41,-151.39 1416.81,-141.28 1414.46,-132.14"/>
<polygon fill="#64748b" stroke="#64748b" points="1416.89,-131.74 1412.78,-125.57 1412.15,-132.96 1416.89,-131.74"/>
</g>
<!-- n14&#45;&gt;n13 -->
<g id="edge15" class="edge">
<title>n14&#45;&gt;n13</title>
<path fill="none" stroke="#64748b" d="M1375.55,-159.52C1343.77,-148.5 1302.99,-134.37 1271.74,-123.54"/>
<polygon fill="#64748b" stroke="#64748b" points="1272.86,-121.34 1265.45,-121.36 1271.26,-125.97 1272.86,-121.34"/>
</g>
<!-- n15 -->
<g id="node15" class="node">
<title>n15</title>
<g id="a_node15"><a xlink:href="https://github.com/statopia/statlib/blob/main/Statlib/HighDim/Concentration/HansonWright.lean#L39" xlink:title="lemma · Statlib/HighDim/Concentration/HansonWright.lean:39" target="_blank">
<path fill="#eef2f6" stroke="#94a3b8" d="M1288.52,-196C1288.52,-196 1211.48,-196 1211.48,-196 1205.48,-196 1199.48,-190 1199.48,-184 1199.48,-184 1199.48,-172 1199.48,-172 1199.48,-166 1205.48,-160 1211.48,-160 1211.48,-160 1288.52,-160 1288.52,-160 1294.52,-160 1300.52,-166 1300.52,-172 1300.52,-172 1300.52,-184 1300.52,-184 1300.52,-190 1294.52,-196 1288.52,-196"/>
<text xml:space="preserve" text-anchor="middle" x="1250" y="-175" font-family="Helvetica,sans-Serif" font-size="10.00">offDiagCoeff_const</text>
</a>
</g>
</g>
<!-- n15&#45;&gt;n4 -->
<g id="edge17" class="edge">
<title>n15&#45;&gt;n4</title>
<path fill="none" stroke="#64748b" d="M1198.98,-163.34C1194.26,-162.17 1189.55,-161.04 1185,-160 1110.2,-142.87 1022.92,-126.29 968.55,-116.37"/>
<polygon fill="#64748b" stroke="#64748b" points="969.26,-114.01 961.93,-115.16 968.38,-118.83 969.26,-114.01"/>
</g>
<!-- n15&#45;&gt;n11 -->
<g id="edge16" class="edge">
<title>n15&#45;&gt;n11</title>
<path fill="none" stroke="#64748b" d="M1211.72,-159.67C1197.5,-151.11 1182.92,-139.29 1175,-124 1167.64,-109.79 1166.54,-101.58 1175,-88 1188.98,-65.56 1215.54,-52.36 1238.82,-44.74"/>
<polygon fill="#64748b" stroke="#64748b" points="1239.47,-47.1 1245.44,-42.71 1238.03,-42.42 1239.47,-47.1"/>
</g>
<!-- n16 -->
<g id="node16" class="node">
<title>n16</title>
<g id="a_node16"><a xlink:href="https://github.com/statopia/statlib/blob/main/Statlib/HighDim/Concentration/HansonWright.lean#L73" xlink:title="lemma · Statlib/HighDim/Concentration/HansonWright.lean:73" target="_blank">
<path fill="#eef2f6" stroke="#94a3b8" d="M1529.64,-268C1529.64,-268 1266.36,-268 1266.36,-268 1260.36,-268 1254.36,-262 1254.36,-256 1254.36,-256 1254.36,-244 1254.36,-244 1254.36,-238 1260.36,-232 1266.36,-232 1266.36,-232 1529.64,-232 1529.64,-232 1535.64,-232 1541.64,-238 1541.64,-244 1541.64,-244 1541.64,-256 1541.64,-256 1541.64,-262 1535.64,-268 1529.64,-268"/>
<text xml:space="preserve" text-anchor="middle" x="1398" y="-247" font-family="Helvetica,sans-Serif" font-size="10.00">decoupledOffDiagQuadForm_const_right_eq_inner_coeffVec</text>
</a>
</g>
</g>
<!-- n16&#45;&gt;n1 -->
<g id="edge18" class="edge">
<title>n16&#45;&gt;n1</title>
<path fill="none" stroke="#64748b" d="M1514.71,-231.56C1533.52,-228.91 1552.79,-226.3 1571,-224 1628.21,-216.76 1790.48,-238.92 1829,-196 1861.06,-160.27 1854.53,-128.65 1829,-88 1820.23,-74.04 1806.64,-63.67 1791.96,-56"/>
<polygon fill="#64748b" stroke="#64748b" points="1793.41,-53.98 1786.04,-53.11 1791.26,-58.38 1793.41,-53.98"/>
</g>
<!-- n16&#45;&gt;n4 -->
<g id="edge19" class="edge">
<title>n16&#45;&gt;n4</title>
<path fill="none" stroke="#64748b" d="M1269.98,-231.57C1241.97,-223.75 1213.65,-212.41 1190,-196 1174,-184.89 1181.22,-170.79 1165,-160 1105.78,-120.63 1022.65,-109.81 969.05,-107.21"/>
<polygon fill="#64748b" stroke="#64748b" points="969.32,-104.77 962.22,-106.92 969.11,-109.66 969.32,-104.77"/>
</g>
<!-- n16&#45;&gt;n14 -->
<g id="edge20" class="edge">
<title>n16&#45;&gt;n14</title>
<path fill="none" stroke="#64748b" d="M1404.92,-231.7C1408.28,-223.3 1412.37,-213.07 1416.06,-203.86"/>
<polygon fill="#64748b" stroke="#64748b" points="1418.27,-204.92 1418.6,-197.51 1413.72,-203.1 1418.27,-204.92"/>
</g>
<!-- n16&#45;&gt;n15 -->
<g id="edge21" class="edge">
<title>n16&#45;&gt;n15</title>
<path fill="none" stroke="#64748b" d="M1361.04,-231.52C1340.83,-221.96 1315.66,-210.05 1294.39,-200"/>
<polygon fill="#64748b" stroke="#64748b" points="1295.49,-197.81 1288.12,-197.03 1293.4,-202.24 1295.49,-197.81"/>
</g>
<!-- n17 -->
<g id="node17" class="node">
<title>n17</title>
<g id="a_node17"><a xlink:href="https://github.com/statopia/statlib/blob/main/Statlib/HighDim/Concentration/HansonWright.lean#L80" xlink:title="lemma · Statlib/HighDim/Concentration/HansonWright.lean:80" target="_blank">
<path fill="#eef2f6" stroke="#94a3b8" d="M1808.02,-341.2C1808.02,-341.2 1571.98,-341.2 1571.98,-341.2 1565.98,-341.2 1559.98,-335.2 1559.98,-329.2 1559.98,-329.2 1559.98,-317.2 1559.98,-317.2 1559.98,-311.2 1565.98,-305.2 1571.98,-305.2 1571.98,-305.2 1808.02,-305.2 1808.02,-305.2 1814.02,-305.2 1820.02,-311.2 1820.02,-317.2 1820.02,-317.2 1820.02,-329.2 1820.02,-329.2 1820.02,-335.2 1814.02,-341.2 1808.02,-341.2"/>
<text xml:space="preserve" text-anchor="middle" x="1690" y="-320.2" font-family="Helvetica,sans-Serif" font-size="10.00">decoupledOffDiagQuadForm_const_right_subgaussian</text>
</a>
</g>
</g>
<!-- n17&#45;&gt;n0 -->
<g id="edge22" class="edge">
<title>n17&#45;&gt;n0</title>
<path fill="none" stroke="#64748b" d="M1559.92,-308.93C1541.82,-307.45 1523.46,-306.14 1506,-305.2 1477.65,-303.67 1022.46,-304.41 995,-297.2 975.98,-292.21 956.58,-282.12 941.13,-272.64"/>
<polygon fill="#64748b" stroke="#64748b" points="942.83,-270.82 935.6,-269.15 940.21,-274.96 942.83,-270.82"/>
</g>
<!-- n17&#45;&gt;n1 -->
<g id="edge23" class="edge">
<title>n17&#45;&gt;n1</title>
<path fill="none" stroke="#64748b" d="M1820.19,-311.15C1833.45,-307.69 1843.92,-303.15 1849,-297.2 1868.3,-274.63 1869.46,-126.22 1843,-88 1832.27,-72.5 1816.03,-61.51 1798.8,-53.73"/>
<polygon fill="#64748b" stroke="#64748b" points="1800.17,-51.64 1792.77,-51.17 1798.26,-56.16 1800.17,-51.64"/>
</g>
<!-- n17&#45;&gt;n4 -->
<g id="edge24" class="edge">
<title>n17&#45;&gt;n4</title>
<path fill="none" stroke="#64748b" d="M1559.75,-306.29C1555.12,-305.89 1550.52,-305.53 1546,-305.2 1529.32,-304 1258.48,-307.11 1245,-297.2 1217.31,-276.83 1242.53,-249.97 1220,-224 1202.03,-203.28 1184.74,-215.04 1165,-196 1151.83,-183.29 1159.62,-171.01 1145,-160 1093.7,-121.36 1018.91,-110.2 968.92,-107.33"/>
<polygon fill="#64748b" stroke="#64748b" points="969.12,-104.89 962.01,-106.99 968.88,-109.78 969.12,-104.89"/>
</g>
<!-- n17&#45;&gt;n16 -->
<g id="edge25" class="edge">
<title>n17&#45;&gt;n16</title>
<path fill="none" stroke="#64748b" d="M1590.25,-304.73C1578.66,-302.37 1567.05,-299.84 1556,-297.2 1524.24,-289.61 1489.36,-279.6 1460.46,-270.83"/>
<polygon fill="#64748b" stroke="#64748b" points="1461.34,-268.53 1453.93,-268.83 1459.91,-273.22 1461.34,-268.53"/>
</g>
<!-- n19 -->
<g id="node18" class="node">
<title>n19</title>
<g id="a_node18"><a xlink:href="https://github.com/statopia/statlib/blob/main/Statlib/HighDim/Concentration/HansonWright.lean#L798" xlink:title="lemma · Statlib/HighDim/Concentration/HansonWright.lean:798" target="_blank">
<path fill="#eef2f6" stroke="#94a3b8" d="M1827.77,-413.2C1827.77,-413.2 1492.23,-413.2 1492.23,-413.2 1486.23,-413.2 1480.23,-407.2 1480.23,-401.2 1480.23,-401.2 1480.23,-389.2 1480.23,-389.2 1480.23,-383.2 1486.23,-377.2 1492.23,-377.2 1492.23,-377.2 1827.77,-377.2 1827.77,-377.2 1833.77,-377.2 1839.77,-383.2 1839.77,-389.2 1839.77,-389.2 1839.77,-401.2 1839.77,-401.2 1839.77,-407.2 1833.77,-413.2 1827.77,-413.2"/>
<text xml:space="preserve" text-anchor="middle" x="1660" y="-392.2" font-family="Helvetica,sans-Serif" font-size="10.00">decoupledOffDiagQuadForm_const_right_abs_tail_real_of_coeff_norm_sq_le</text>
</a>
</g>
</g>
<!-- n19&#45;&gt;n0 -->
<g id="edge26" class="edge">
<title>n19&#45;&gt;n0</title>
<path fill="none" stroke="#64748b" d="M1617.2,-376.79C1593.15,-366.79 1562.7,-353.75 1536,-341.2 1504.34,-326.32 1499.93,-313.72 1466,-305.2 1415.23,-292.45 1045.62,-310.53 995,-297.2 975.98,-292.19 956.59,-282.1 941.13,-272.63"/>
<polygon fill="#64748b" stroke="#64748b" points="942.83,-270.8 935.6,-269.15 940.22,-274.95 942.83,-270.8"/>
</g>
<!-- n19&#45;&gt;n1 -->
<g id="edge28" class="edge">
<title>n19&#45;&gt;n1</title>
<path fill="none" stroke="#64748b" d="M1752.23,-376.74C1778.66,-368.82 1806.4,-357.44 1829,-341.2 1866.23,-314.46 1879,-296.84 1879,-251 1879,-251 1879,-251 1879,-177 1879,-135.91 1881.56,-118.47 1854,-88 1839.4,-71.86 1819.26,-60.57 1798.99,-52.7"/>
<polygon fill="#64748b" stroke="#64748b" points="1800.07,-50.49 1792.65,-50.38 1798.38,-55.09 1800.07,-50.49"/>
</g>
<!-- n19&#45;&gt;n4 -->
<g id="edge27" class="edge">
<title>n19&#45;&gt;n4</title>
<path fill="none" stroke="#64748b" d="M1621.34,-376.77C1600.24,-366.92 1573.84,-354.03 1551,-341.2 1525.21,-326.71 1523.26,-313.95 1495,-305.2 1480.4,-300.68 1231.7,-307.03 1220,-297.2 1194.58,-275.83 1225.57,-250.07 1205,-224 1186.77,-200.9 1165.37,-217.24 1145,-196 1133,-183.49 1143.15,-171.29 1130,-160 1085.07,-121.43 1016.29,-110.12 968.89,-107.21"/>
<polygon fill="#64748b" stroke="#64748b" points="969.23,-104.77 962.11,-106.85 968.97,-109.67 969.23,-104.77"/>
</g>
<!-- n19&#45;&gt;n17 -->
<g id="edge30" class="edge">
<title>n19&#45;&gt;n17</title>
<path fill="none" stroke="#64748b" d="M1667.42,-376.9C1671.01,-368.5 1675.4,-358.27 1679.35,-349.06"/>
<polygon fill="#64748b" stroke="#64748b" points="1681.57,-350.09 1682.07,-342.7 1677.06,-348.16 1681.57,-350.09"/>
</g>
<!-- n10 -->
<g id="node35" class="node">
<title>n10</title>
<g id="a_node35"><a xlink:href="https://github.com/statopia/statlib/blob/main/Statlib/StatFoundation/RandomVariable/SubGaussian/subgaussian_mgf_mono_param.lean#L10" xlink:title="lemma · Statlib/StatFoundation/RandomVariable/SubGaussian/subgaussian_mgf_mono_param.lean:10" target="_blank">
<path fill="#eef2f6" stroke="#94a3b8" d="M2237.43,-268C2237.43,-268 2102.57,-268 2102.57,-268 2096.57,-268 2090.57,-262 2090.57,-256 2090.57,-256 2090.57,-244 2090.57,-244 2090.57,-238 2096.57,-232 2102.57,-232 2102.57,-232 2237.43,-232 2237.43,-232 2243.43,-232 2249.43,-238 2249.43,-244 2249.43,-244 2249.43,-256 2249.43,-256 2249.43,-262 2243.43,-268 2237.43,-268"/>
<text xml:space="preserve" text-anchor="middle" x="2170" y="-247" font-family="Helvetica,sans-Serif" font-size="10.00">subgaussian_mgf_mono_param</text>
</a>
</g>
</g>
<!-- n19&#45;&gt;n10 -->
<g id="edge29" class="edge">
<title>n19&#45;&gt;n10</title>
<path fill="none" stroke="#64748b" d="M1769.91,-376.73C1856.17,-361.16 1978.41,-334.96 2081,-297.2 2099.14,-290.53 2118.28,-280.95 2134.14,-272.25"/>
<polygon fill="#64748b" stroke="#64748b" points="2134.94,-274.61 2139.86,-269.06 2132.55,-270.33 2134.94,-274.61"/>
</g>
<!-- n18 -->
<g id="node36" class="node">
<title>n18</title>
<g id="a_node36"><a xlink:href="https://github.com/statopia/statlib/blob/main/Statlib/StatFoundation/Concentration/ExponentialType/subgaussian_abs_tail_real.lean#L11" xlink:title="lemma · Statlib/StatFoundation/Concentration/ExponentialType/subgaussian_abs_tail_real.lean:11" target="_blank">
<path fill="#eef2f6" stroke="#94a3b8" d="M2390.21,-268C2390.21,-268 2279.79,-268 2279.79,-268 2273.79,-268 2267.79,-262 2267.79,-256 2267.79,-256 2267.79,-244 2267.79,-244 2267.79,-238 2273.79,-232 2279.79,-232 2279.79,-232 2390.21,-232 2390.21,-232 2396.21,-232 2402.21,-238 2402.21,-244 2402.21,-244 2402.21,-256 2402.21,-256 2402.21,-262 2396.21,-268 2390.21,-268"/>
<text xml:space="preserve" text-anchor="middle" x="2335" y="-247" font-family="Helvetica,sans-Serif" font-size="10.00">subgaussian_abs_tail_real</text>
</a>
</g>
</g>
<!-- n19&#45;&gt;n18 -->
<g id="edge31" class="edge">
<title>n19&#45;&gt;n18</title>
<path fill="none" stroke="#64748b" d="M1840.03,-383.54C1961.27,-371.92 2123.04,-347.69 2258,-297.2 2274.16,-291.15 2290.75,-281.7 2304.36,-272.91"/>
<polygon fill="#64748b" stroke="#64748b" points="2305.44,-275.13 2309.93,-269.23 2302.74,-271.04 2305.44,-275.13"/>
</g>
<!-- n21 -->
<g id="node19" class="node">
<title>n21</title>
<g id="a_node19"><a xlink:href="https://github.com/statopia/statlib/blob/main/Statlib/HighDim/Concentration/HansonWright.lean#L973" xlink:title="lemma · Statlib/HighDim/Concentration/HansonWright.lean:973" target="_blank">
<path fill="#eef2f6" stroke="#94a3b8" d="M1734.54,-485.2C1734.54,-485.2 1483.46,-485.2 1483.46,-485.2 1477.46,-485.2 1471.46,-479.2 1471.46,-473.2 1471.46,-473.2 1471.46,-461.2 1471.46,-461.2 1471.46,-455.2 1477.46,-449.2 1483.46,-449.2 1483.46,-449.2 1734.54,-449.2 1734.54,-449.2 1740.54,-449.2 1746.54,-455.2 1746.54,-461.2 1746.54,-461.2 1746.54,-473.2 1746.54,-473.2 1746.54,-479.2 1740.54,-485.2 1734.54,-485.2"/>
<text xml:space="preserve" text-anchor="middle" x="1609" y="-464.2" font-family="Helvetica,sans-Serif" font-size="10.00">decoupledOffDiagQuadForm_prod_tail_le_bad_plus_good</text>
</a>
</g>
</g>
<!-- n21&#45;&gt;n0 -->
<g id="edge32" class="edge">
<title>n21&#45;&gt;n0</title>
<path fill="none" stroke="#64748b" d="M1483.2,-448.76C1464.74,-440.76 1447.95,-429.36 1436,-413.2 1407.34,-374.44 1479.79,-339.58 1446,-305.2 1436.92,-295.97 992.37,-301.03 980,-297.2 964.16,-292.29 948.55,-282.61 936.11,-273.37"/>
<polygon fill="#64748b" stroke="#64748b" points="937.79,-271.56 930.75,-269.23 934.8,-275.44 937.79,-271.56"/>
</g>
<!-- n21&#45;&gt;n1 -->
<g id="edge33" class="edge">
<title>n21&#45;&gt;n1</title>
<path fill="none" stroke="#64748b" d="M1747.01,-450.75C1792.48,-442.6 1835.04,-430.58 1849,-413.2 1859.02,-400.73 1851.16,-393.05 1849,-377.2 1846.76,-360.75 1842.06,-315.45 1829,-305.2 1806.44,-287.49 1590.96,-317.79 1571,-297.2 1538.61,-263.79 1552.29,-125.38 1580,-88 1594.24,-68.79 1616.36,-56.54 1638.8,-48.74"/>
<polygon fill="#64748b" stroke="#64748b" points="1639.4,-51.12 1645.3,-46.62 1637.88,-46.46 1639.4,-51.12"/>
</g>
<!-- n21&#45;&gt;n4 -->
<g id="edge34" class="edge">
<title>n21&#45;&gt;n4</title>
<path fill="none" stroke="#64748b" d="M1509.53,-448.71C1490.67,-440.87 1473.09,-429.55 1461,-413.2 1432.44,-374.56 1490.47,-338.68 1456,-305.2 1437.63,-287.35 1015.22,-312.92 995,-297.2 968.37,-276.5 996.74,-249.79 975,-224 956.03,-201.5 930.81,-220.82 915,-196 903.05,-177.24 904.86,-151.43 908.73,-132.44"/>
<polygon fill="#64748b" stroke="#64748b" points="911.09,-133.09 910.27,-125.72 906.31,-131.99 911.09,-133.09"/>
</g>
<!-- n21&#45;&gt;n7 -->
<g id="edge35" class="edge">
<title>n21&#45;&gt;n7</title>
<path fill="none" stroke="#64748b" d="M1746.86,-453.13C1798.34,-445.16 1848.2,-432.62 1864,-413.2 1882.83,-390.06 1852.14,-314.31 1844,-305.2 1830.65,-290.24 1812.58,-279.34 1794.04,-271.42"/>
<polygon fill="#64748b" stroke="#64748b" points="1795.45,-269.35 1788.04,-268.99 1793.61,-273.89 1795.45,-269.35"/>
</g>
<!-- n21&#45;&gt;n9 -->
<g id="edge36" class="edge">
<title>n21&#45;&gt;n9</title>
<path fill="none" stroke="#64748b" d="M1517.71,-448.74C1499.36,-440.92 1482.26,-429.59 1471,-413.2 1443.55,-373.26 1519.77,-339.96 1486,-305.2 1475.31,-294.2 1224.99,-300.45 1210,-297.2 1185.95,-291.99 1160.52,-281.66 1140.19,-272.09"/>
<polygon fill="#64748b" stroke="#64748b" points="1141.39,-269.95 1134.02,-269.13 1139.27,-274.37 1141.39,-269.95"/>
</g>
<!-- n21&#45;&gt;n19 -->
<g id="edge37" class="edge">
<title>n21&#45;&gt;n19</title>
<path fill="none" stroke="#64748b" d="M1621.61,-448.9C1627.97,-440.17 1635.78,-429.44 1642.7,-419.95"/>
<polygon fill="#64748b" stroke="#64748b" points="1644.51,-421.63 1646.65,-414.53 1640.54,-418.74 1644.51,-421.63"/>
</g>
<!-- n20 -->
<g id="node37" class="node">
<title>n20</title>
<g id="a_node37"><a xlink:href="https://github.com/statopia/statlib/blob/main/Statlib/StatFoundation/BasicAnalysis/measure_le_ofReal_of_measureReal_le.lean#L10" xlink:title="lemma · Statlib/StatFoundation/BasicAnalysis/measure_le_ofReal_of_measureReal_le.lean:10" target="_blank">
<path fill="#eef2f6" stroke="#94a3b8" d="M2603.5,-268C2603.5,-268 2432.5,-268 2432.5,-268 2426.5,-268 2420.5,-262 2420.5,-256 2420.5,-256 2420.5,-244 2420.5,-244 2420.5,-238 2426.5,-232 2432.5,-232 2432.5,-232 2603.5,-232 2603.5,-232 2609.5,-232 2615.5,-238 2615.5,-244 2615.5,-244 2615.5,-256 2615.5,-256 2615.5,-262 2609.5,-268 2603.5,-268"/>
<text xml:space="preserve" text-anchor="middle" x="2518" y="-247" font-family="Helvetica,sans-Serif" font-size="10.00">measure_le_ofReal_of_measureReal_le</text>
</a>
</g>
</g>
<!-- n21&#45;&gt;n20 -->
<g id="edge38" class="edge">
<title>n21&#45;&gt;n20</title>
<path fill="none" stroke="#64748b" d="M1697.33,-448.7C1748.4,-438.51 1813.86,-425.31 1872,-413.2 2111.89,-363.22 2177.62,-371.9 2411,-297.2 2432.51,-290.31 2455.6,-280.65 2474.81,-271.94"/>
<polygon fill="#64748b" stroke="#64748b" points="2475.8,-274.18 2481.14,-269.03 2473.76,-269.73 2475.8,-274.18"/>
</g>
<!-- n22 -->
<g id="node20" class="node">
<title>n22</title>
<g id="a_node20"><a xlink:href="https://github.com/statopia/statlib/blob/main/Statlib/HighDim/Vocabulary/QuadraticForms.lean#L62" xlink:title="noncomputable def · Statlib/HighDim/Vocabulary/QuadraticForms.lean:62" target="_blank">
<path fill="#d6e9ff" stroke="#3b82f6" d="M622.23,-268C622.23,-268 565.77,-268 565.77,-268 559.77,-268 553.77,-262 553.77,-256 553.77,-256 553.77,-244 553.77,-244 553.77,-238 559.77,-232 565.77,-232 565.77,-232 622.23,-232 622.23,-232 628.23,-232 634.23,-238 634.23,-244 634.23,-244 634.23,-256 634.23,-256 634.23,-262 628.23,-268 622.23,-268"/>
<text xml:space="preserve" text-anchor="middle" x="594" y="-247" font-family="Helvetica,sans-Serif" font-size="10.00">matrixRowVec</text>
</a>
</g>
</g>
<!-- n23 -->
<g id="node21" class="node">
<title>n23</title>
<g id="a_node21"><a xlink:href="https://github.com/statopia/statlib/blob/main/Statlib/HighDim/Vocabulary/QuadraticForms.lean#L52" xlink:title="def · Statlib/HighDim/Vocabulary/QuadraticForms.lean:52" target="_blank">
<path fill="#d6e9ff" stroke="#3b82f6" d="M309.62,-196C309.62,-196 250.38,-196 250.38,-196 244.38,-196 238.38,-190 238.38,-184 238.38,-184 238.38,-172 238.38,-172 238.38,-166 244.38,-160 250.38,-160 250.38,-160 309.62,-160 309.62,-160 315.62,-160 321.62,-166 321.62,-172 321.62,-172 321.62,-184 321.62,-184 321.62,-190 315.62,-196 309.62,-196"/>
<text xml:space="preserve" text-anchor="middle" x="280" y="-175" font-family="Helvetica,sans-Serif" font-size="10.00">zeroDiagMatrix</text>
</a>
</g>
</g>
<!-- n24 -->
<g id="node22" class="node">
<title>n24</title>
<g id="a_node22"><a xlink:href="https://github.com/statopia/statlib/blob/main/Statlib/HighDim/Concentration/HansonWright.lean#L493" xlink:title="lemma · Statlib/HighDim/Concentration/HansonWright.lean:493" target="_blank">
<path fill="#eef2f6" stroke="#94a3b8" d="M1098.34,-341.2C1098.34,-341.2 935.66,-341.2 935.66,-341.2 929.66,-341.2 923.66,-335.2 923.66,-329.2 923.66,-329.2 923.66,-317.2 923.66,-317.2 923.66,-311.2 929.66,-305.2 935.66,-305.2 935.66,-305.2 1098.34,-305.2 1098.34,-305.2 1104.34,-305.2 1110.34,-311.2 1110.34,-317.2 1110.34,-317.2 1110.34,-329.2 1110.34,-329.2 1110.34,-335.2 1104.34,-341.2 1098.34,-341.2"/>
<text xml:space="preserve" text-anchor="middle" x="1017" y="-320.2" font-family="Helvetica,sans-Serif" font-size="10.00">subgaussian_projection_sq_integrable</text>
</a>
</g>
</g>
<!-- n24&#45;&gt;n0 -->
<g id="edge39" class="edge">
<title>n24&#45;&gt;n0</title>
<path fill="none" stroke="#64748b" d="M990.82,-304.78C976.45,-295.21 958.47,-283.25 943.12,-273.04"/>
<polygon fill="#64748b" stroke="#64748b" points="944.72,-271.16 937.54,-269.32 942.01,-275.24 944.72,-271.16"/>
</g>
<!-- n25 -->
<g id="node23" class="node">
<title>n25</title>
<g id="a_node23"><a xlink:href="https://github.com/statopia/statlib/blob/main/Statlib/HighDim/Vocabulary/Norms.lean#L13" xlink:title="noncomputable def · Statlib/HighDim/Vocabulary/Norms.lean:13" target="_blank">
<path fill="#d6e9ff" stroke="#3b82f6" d="M757.23,-196C757.23,-196 720.77,-196 720.77,-196 714.77,-196 708.77,-190 708.77,-184 708.77,-184 708.77,-172 708.77,-172 708.77,-166 714.77,-160 720.77,-160 720.77,-160 757.23,-160 757.23,-160 763.23,-160 769.23,-166 769.23,-172 769.23,-172 769.23,-184 769.23,-184 769.23,-190 763.23,-196 757.23,-196"/>
<text xml:space="preserve" text-anchor="middle" x="739" y="-175" font-family="Helvetica,sans-Serif" font-size="10.00">l2NormSq</text>
</a>
</g>
</g>
<!-- n26 -->
<g id="node24" class="node">
<title>n26</title>
<g id="a_node24"><a xlink:href="https://github.com/statopia/statlib/blob/main/Statlib/HighDim/Vocabulary/Norms.lean#L21" xlink:title="lemma · Statlib/HighDim/Vocabulary/Norms.lean:21" target="_blank">
<path fill="#eef2f6" stroke="#94a3b8" d="M743.64,-268C743.64,-268 664.36,-268 664.36,-268 658.36,-268 652.36,-262 652.36,-256 652.36,-256 652.36,-244 652.36,-244 652.36,-238 658.36,-232 664.36,-232 664.36,-232 743.64,-232 743.64,-232 749.64,-232 755.64,-238 755.64,-244 755.64,-244 755.64,-256 755.64,-256 755.64,-262 749.64,-268 743.64,-268"/>
<text xml:space="preserve" text-anchor="middle" x="704" y="-247" font-family="Helvetica,sans-Serif" font-size="10.00">euclidean_norm_sq</text>
</a>
</g>
</g>
<!-- n26&#45;&gt;n25 -->
<g id="edge40" class="edge">
<title>n26&#45;&gt;n25</title>
<path fill="none" stroke="#64748b" d="M712.65,-231.7C716.89,-223.22 722.07,-212.86 726.71,-203.58"/>
<polygon fill="#64748b" stroke="#64748b" points="728.83,-204.81 729.77,-197.46 724.45,-202.62 728.83,-204.81"/>
</g>
<!-- n27 -->
<g id="node25" class="node">
<title>n27</title>
<g id="a_node25"><a xlink:href="https://github.com/statopia/statlib/blob/main/Statlib/HighDim/Concentration/HansonWright.lean#L203" xlink:title="lemma · Statlib/HighDim/Concentration/HansonWright.lean:203" target="_blank">
<path fill="#eef2f6" stroke="#94a3b8" d="M483.61,-268C483.61,-268 290.39,-268 290.39,-268 284.39,-268 278.39,-262 278.39,-256 278.39,-256 278.39,-244 278.39,-244 278.39,-238 284.39,-232 290.39,-232 290.39,-232 483.61,-232 483.61,-232 489.61,-232 495.61,-238 495.61,-244 495.61,-244 495.61,-256 495.61,-256 495.61,-262 489.61,-268 483.61,-268"/>
<text xml:space="preserve" text-anchor="middle" x="387" y="-247" font-family="Helvetica,sans-Serif" font-size="10.00">offDiagCoeffVec_eq_zeroDiagMatrix_mulVec</text>
</a>
</g>
</g>
<!-- n27&#45;&gt;n4 -->
<g id="edge41" class="edge">
<title>n27&#45;&gt;n4</title>
<path fill="none" stroke="#64748b" d="M404.82,-231.58C427.3,-210.76 468.11,-176.64 510,-160 573.09,-134.94 768.01,-117.77 862.95,-110.67"/>
<polygon fill="#64748b" stroke="#64748b" points="862.96,-113.13 869.76,-110.17 862.6,-108.24 862.96,-113.13"/>
</g>
<!-- n27&#45;&gt;n23 -->
<g id="edge42" class="edge">
<title>n27&#45;&gt;n23</title>
<path fill="none" stroke="#64748b" d="M360.28,-231.52C346,-222.18 328.29,-210.59 313.14,-200.68"/>
<polygon fill="#64748b" stroke="#64748b" points="314.85,-198.87 307.65,-197.09 312.17,-202.97 314.85,-198.87"/>
</g>
<!-- n28 -->
<g id="node26" class="node">
<title>n28</title>
<g id="a_node26"><a xlink:href="https://github.com/statopia/statlib/blob/main/Statlib/HighDim/Concentration/HansonWright.lean#L424" xlink:title="lemma · Statlib/HighDim/Concentration/HansonWright.lean:424" target="_blank">
<path fill="#eef2f6" stroke="#94a3b8" d="M592.01,-341.2C592.01,-341.2 385.99,-341.2 385.99,-341.2 379.99,-341.2 373.99,-335.2 373.99,-329.2 373.99,-329.2 373.99,-317.2 373.99,-317.2 373.99,-311.2 379.99,-305.2 385.99,-305.2 385.99,-305.2 592.01,-305.2 592.01,-305.2 598.01,-305.2 604.01,-311.2 604.01,-317.2 604.01,-317.2 604.01,-329.2 604.01,-329.2 604.01,-335.2 598.01,-341.2 592.01,-341.2"/>
<text xml:space="preserve" text-anchor="middle" x="489" y="-320.2" font-family="Helvetica,sans-Serif" font-size="10.00">offDiagCoeffVec_apply_eq_inner_row_zeroDiag</text>
</a>
</g>
</g>
<!-- n28&#45;&gt;n4 -->
<g id="edge43" class="edge">
<title>n28&#45;&gt;n4</title>
<path fill="none" stroke="#64748b" d="M373.52,-306.12C370.65,-305.8 367.81,-305.49 365,-305.2 352.48,-303.9 261.55,-305.4 252,-297.2 205.07,-256.94 187,-205.37 229,-160 271.77,-113.8 708.78,-107.74 862.71,-107.05"/>
<polygon fill="#64748b" stroke="#64748b" points="862.62,-109.5 869.61,-107.02 862.6,-104.6 862.62,-109.5"/>
</g>
<!-- n28&#45;&gt;n13 -->
<g id="edge47" class="edge">
<title>n28&#45;&gt;n13</title>
<path fill="none" stroke="#64748b" d="M501.05,-304.82C502.51,-302.33 503.87,-299.74 505,-297.2 518.69,-266.38 502.17,-248.83 525,-224 581.05,-163.04 619.28,-178.53 700,-160 789.89,-139.36 1063.53,-118.34 1175.48,-110.35"/>
<polygon fill="#64748b" stroke="#64748b" points="1175.58,-112.8 1182.38,-109.86 1175.23,-107.91 1175.58,-112.8"/>
</g>
<!-- n28&#45;&gt;n22 -->
<g id="edge44" class="edge">
<title>n28&#45;&gt;n22</title>
<path fill="none" stroke="#64748b" d="M514.69,-304.78C528.8,-295.21 546.44,-283.25 561.5,-273.04"/>
<polygon fill="#64748b" stroke="#64748b" points="562.54,-275.29 566.96,-269.33 559.79,-271.23 562.54,-275.29"/>
</g>
<!-- n28&#45;&gt;n23 -->
<g id="edge45" class="edge">
<title>n28&#45;&gt;n23</title>
<path fill="none" stroke="#64748b" d="M373.52,-306.16C370.65,-305.83 367.81,-305.51 365,-305.2 354.36,-304.03 276.25,-305.08 269,-297.2 246.11,-272.32 257.07,-230.8 267.9,-204.17"/>
<polygon fill="#64748b" stroke="#64748b" points="270.12,-205.21 270.62,-197.81 265.61,-203.28 270.12,-205.21"/>
</g>
<!-- n28&#45;&gt;n27 -->
<g id="edge46" class="edge">
<title>n28&#45;&gt;n27</title>
<path fill="none" stroke="#64748b" d="M464.05,-304.78C450.46,-295.3 433.51,-283.47 418.97,-273.32"/>
<polygon fill="#64748b" stroke="#64748b" points="420.43,-271.35 413.29,-269.35 417.63,-275.37 420.43,-271.35"/>
</g>
<!-- n29 -->
<g id="node27" class="node">
<title>n29</title>
<g id="a_node27"><a xlink:href="https://github.com/statopia/statlib/blob/main/Statlib/HighDim/Concentration/HansonWright.lean#L554" xlink:title="lemma · Statlib/HighDim/Concentration/HansonWright.lean:554" target="_blank">
<path fill="#eef2f6" stroke="#94a3b8" d="M719.38,-413.2C719.38,-413.2 560.62,-413.2 560.62,-413.2 554.62,-413.2 548.62,-407.2 548.62,-401.2 548.62,-401.2 548.62,-389.2 548.62,-389.2 548.62,-383.2 554.62,-377.2 560.62,-377.2 560.62,-377.2 719.38,-377.2 719.38,-377.2 725.38,-377.2 731.38,-383.2 731.38,-389.2 731.38,-389.2 731.38,-401.2 731.38,-401.2 731.38,-407.2 725.38,-413.2 719.38,-413.2"/>
<text xml:space="preserve" text-anchor="middle" x="640" y="-392.2" font-family="Helvetica,sans-Serif" font-size="10.00">offDiagCoeffVec_norm_sq_integrable</text>
</a>
</g>
</g>
<!-- n29&#45;&gt;n0 -->
<g id="edge48" class="edge">
<title>n29&#45;&gt;n0</title>
<path fill="none" stroke="#64748b" d="M723.59,-376.75C767.55,-366.54 816.15,-353.32 835,-341.2 860.94,-324.53 882.43,-296.03 895.66,-275.52"/>
<polygon fill="#64748b" stroke="#64748b" points="897.7,-276.87 899.35,-269.64 893.55,-274.27 897.7,-276.87"/>
</g>
<!-- n29&#45;&gt;n4 -->
<g id="edge49" class="edge">
<title>n29&#45;&gt;n4</title>
<path fill="none" stroke="#64748b" d="M548.38,-390.76C414.13,-384.77 177,-370.18 151,-341.2 142.01,-331.19 138.3,-266.99 154,-224 166.38,-190.09 172.17,-177.02 204,-160 261.63,-129.19 707.49,-113.17 862.83,-108.49"/>
<polygon fill="#64748b" stroke="#64748b" points="862.89,-110.94 869.81,-108.28 862.74,-106.04 862.89,-110.94"/>
</g>
<!-- n29&#45;&gt;n22 -->
<g id="edge50" class="edge">
<title>n29&#45;&gt;n22</title>
<path fill="none" stroke="#64748b" d="M639.82,-376.96C639.15,-358.64 636.65,-329.1 628,-305.2 624.18,-294.65 618.09,-283.99 612.1,-274.95"/>
<polygon fill="#64748b" stroke="#64748b" points="614.22,-273.7 608.23,-269.32 610.18,-276.47 614.22,-273.7"/>
</g>
<!-- n29&#45;&gt;n23 -->
<g id="edge51" class="edge">
<title>n29&#45;&gt;n23</title>
<path fill="none" stroke="#64748b" d="M548.14,-390.38C417.74,-384.01 191.91,-369.05 167,-341.2 125.77,-295.09 198.62,-233.5 245.34,-201.09"/>
<polygon fill="#64748b" stroke="#64748b" points="246.66,-203.16 251.06,-197.19 243.9,-199.11 246.66,-203.16"/>
</g>
<!-- n29&#45;&gt;n24 -->
<g id="edge52" class="edge">
<title>n29&#45;&gt;n24</title>
<path fill="none" stroke="#64748b" d="M731.74,-377.17C787.1,-366.89 857.74,-353.77 914.88,-343.16"/>
<polygon fill="#64748b" stroke="#64748b" points="915.28,-345.58 921.72,-341.89 914.39,-340.76 915.28,-345.58"/>
</g>
<!-- n29&#45;&gt;n25 -->
<g id="edge54" class="edge">
<title>n29&#45;&gt;n25</title>
<path fill="none" stroke="#64748b" d="M635.85,-376.97C629.78,-352.44 618.6,-309.89 613,-305.2 601.33,-295.44 555.11,-308.57 545,-297.2 523.38,-272.89 524.76,-249.47 545,-224 564,-200.09 649.17,-187.75 700.13,-182.4"/>
<polygon fill="#64748b" stroke="#64748b" points="700.08,-184.86 706.8,-181.72 699.59,-179.99 700.08,-184.86"/>
</g>
<!-- n29&#45;&gt;n26 -->
<g id="edge53" class="edge">
<title>n29&#45;&gt;n26</title>
<path fill="none" stroke="#64748b" d="M647.72,-376.93C658.96,-351.77 679.91,-304.9 692.83,-275.98"/>
<polygon fill="#64748b" stroke="#64748b" points="695.02,-277.11 695.64,-269.72 690.54,-275.11 695.02,-277.11"/>
</g>
<!-- n29&#45;&gt;n28 -->
<g id="edge55" class="edge">
<title>n29&#45;&gt;n28</title>
<path fill="none" stroke="#64748b" d="M602.29,-376.72C581.58,-367.12 555.76,-355.15 534.01,-345.06"/>
<polygon fill="#64748b" stroke="#64748b" points="535.25,-342.94 527.87,-342.22 533.19,-347.39 535.25,-342.94"/>
</g>
<!-- n31 -->
<g id="node28" class="node">
<title>n31</title>
<g id="a_node28"><a xlink:href="https://github.com/statopia/statlib/blob/main/Statlib/HighDim/Concentration/HansonWright.lean#L471" xlink:title="lemma · Statlib/HighDim/Concentration/HansonWright.lean:471" target="_blank">
<path fill="#eef2f6" stroke="#94a3b8" d="M1409.96,-341.2C1409.96,-341.2 1220.04,-341.2 1220.04,-341.2 1214.04,-341.2 1208.04,-335.2 1208.04,-329.2 1208.04,-329.2 1208.04,-317.2 1208.04,-317.2 1208.04,-311.2 1214.04,-305.2 1220.04,-305.2 1220.04,-305.2 1409.96,-305.2 1409.96,-305.2 1415.96,-305.2 1421.96,-311.2 1421.96,-317.2 1421.96,-317.2 1421.96,-329.2 1421.96,-329.2 1421.96,-335.2 1415.96,-341.2 1409.96,-341.2"/>
<text xml:space="preserve" text-anchor="middle" x="1315" y="-320.2" font-family="Helvetica,sans-Serif" font-size="10.00">subgaussian_projection_second_moment_le</text>
</a>
</g>
</g>
<!-- n31&#45;&gt;n0 -->
<g id="edge56" class="edge">
<title>n31&#45;&gt;n0</title>
<path fill="none" stroke="#64748b" d="M1207.85,-306.55C1203.18,-306.06 1198.54,-305.6 1194,-305.2 1146.6,-301 1025.32,-311.73 980,-297.2 964.32,-292.17 948.84,-282.57 936.44,-273.42"/>
<polygon fill="#64748b" stroke="#64748b" points="938.14,-271.64 931.08,-269.34 935.16,-275.53 938.14,-271.64"/>
</g>
<!-- n30 -->
<g id="node38" class="node">
<title>n30</title>
<g id="a_node38"><a xlink:href="https://github.com/statopia/statlib/blob/main/Statlib/StatFoundation/RandomVariable/SubGaussian/subgaussian_variance_le.lean#L8" xlink:title="theorem · Statlib/StatFoundation/RandomVariable/SubGaussian/subgaussian_variance_le.lean:8" target="_blank">
<path fill="#ffe6a3" stroke="#d4a017" d="M2060.43,-268C2060.43,-268 1955.57,-268 1955.57,-268 1949.57,-268 1943.57,-262 1943.57,-256 1943.57,-256 1943.57,-244 1943.57,-244 1943.57,-238 1949.57,-232 1955.57,-232 1955.57,-232 2060.43,-232 2060.43,-232 2066.43,-232 2072.43,-238 2072.43,-244 2072.43,-244 2072.43,-256 2072.43,-256 2072.43,-262 2066.43,-268 2060.43,-268"/>
<text xml:space="preserve" text-anchor="middle" x="2008" y="-247" font-family="Helvetica,sans-Serif" font-size="10.00">subgaussian_variance_le</text>
</a>
</g>
</g>
<!-- n31&#45;&gt;n30 -->
<g id="edge57" class="edge">
<title>n31&#45;&gt;n30</title>
<path fill="none" stroke="#64748b" d="M1422.43,-313.3C1462.73,-310.27 1508.94,-307.16 1551,-305.2 1593.3,-303.23 1891.35,-309.05 1932,-297.2 1949.04,-292.23 1966.1,-282.41 1979.73,-273.09"/>
<polygon fill="#64748b" stroke="#64748b" points="1980.98,-275.21 1985.29,-269.17 1978.16,-271.21 1980.98,-275.21"/>
</g>
<!-- n32 -->
<g id="node29" class="node">
<title>n32</title>
<g id="a_node29"><a xlink:href="https://github.com/statopia/statlib/blob/main/Statlib/HighDim/Concentration/HansonWright.lean#L417" xlink:title="lemma · Statlib/HighDim/Concentration/HansonWright.lean:417" target="_blank">
<path fill="#eef2f6" stroke="#94a3b8" d="M814.46,-341.2C814.46,-341.2 713.54,-341.2 713.54,-341.2 707.54,-341.2 701.54,-335.2 701.54,-329.2 701.54,-329.2 701.54,-317.2 701.54,-317.2 701.54,-311.2 707.54,-305.2 713.54,-305.2 713.54,-305.2 814.46,-305.2 814.46,-305.2 820.46,-305.2 826.46,-311.2 826.46,-317.2 826.46,-317.2 826.46,-329.2 826.46,-329.2 826.46,-335.2 820.46,-341.2 814.46,-341.2"/>
<text xml:space="preserve" text-anchor="middle" x="764" y="-320.2" font-family="Helvetica,sans-Serif" font-size="10.00">matrixRowVec_norm_sq</text>
</a>
</g>
</g>
<!-- n32&#45;&gt;n22 -->
<g id="edge58" class="edge">
<title>n32&#45;&gt;n22</title>
<path fill="none" stroke="#64748b" d="M701.32,-310.78C674.76,-305.66 648.61,-300.12 643,-297.2 632.05,-291.5 621.79,-282.64 613.52,-274.19"/>
<polygon fill="#64748b" stroke="#64748b" points="615.74,-272.98 609.16,-269.56 612.17,-276.34 615.74,-272.98"/>
</g>
<!-- n32&#45;&gt;n25 -->
<g id="edge60" class="edge">
<title>n32&#45;&gt;n25</title>
<path fill="none" stroke="#64748b" d="M766.95,-304.82C769.7,-284.91 772.37,-251.5 765,-224 763.12,-216.98 759.85,-209.93 756.25,-203.56"/>
<polygon fill="#64748b" stroke="#64748b" points="758.44,-202.45 752.72,-197.73 754.25,-204.98 758.44,-202.45"/>
</g>
<!-- n32&#45;&gt;n26 -->
<g id="edge59" class="edge">
<title>n32&#45;&gt;n26</title>
<path fill="none" stroke="#64748b" d="M749.48,-304.96C741.74,-295.78 732.11,-284.35 723.7,-274.38"/>
<polygon fill="#64748b" stroke="#64748b" points="725.75,-273.01 719.37,-269.23 722,-276.17 725.75,-273.01"/>
</g>
<!-- n33 -->
<g id="node30" class="node">
<title>n33</title>
<g id="a_node30"><a xlink:href="https://github.com/statopia/statlib/blob/main/Statlib/HighDim/Concentration/HansonWright.lean#L388" xlink:title="lemma · Statlib/HighDim/Concentration/HansonWright.lean:388" target="_blank">
<path fill="#eef2f6" stroke="#94a3b8" d="M343.98,-341.2C343.98,-341.2 188.02,-341.2 188.02,-341.2 182.02,-341.2 176.02,-335.2 176.02,-329.2 176.02,-329.2 176.02,-317.2 176.02,-317.2 176.02,-311.2 182.02,-305.2 188.02,-305.2 188.02,-305.2 343.98,-305.2 343.98,-305.2 349.98,-305.2 355.98,-311.2 355.98,-317.2 355.98,-317.2 355.98,-329.2 355.98,-329.2 355.98,-335.2 349.98,-341.2 343.98,-341.2"/>
<text xml:space="preserve" text-anchor="middle" x="266" y="-320.2" font-family="Helvetica,sans-Serif" font-size="10.00">frobeniusNormSq_zeroDiagMatrix_le</text>
</a>
</g>
</g>
<!-- n33&#45;&gt;n2 -->
<g id="edge61" class="edge">
<title>n33&#45;&gt;n2</title>
<path fill="none" stroke="#64748b" d="M216.34,-304.78C186.71,-294.39 149.02,-281.17 118.42,-270.44"/>
<polygon fill="#64748b" stroke="#64748b" points="119.25,-268.13 111.83,-268.13 117.62,-272.76 119.25,-268.13"/>
</g>
<!-- n33&#45;&gt;n23 -->
<g id="edge62" class="edge">
<title>n33&#45;&gt;n23</title>
<path fill="none" stroke="#64748b" d="M256.45,-304.8C255.44,-302.31 254.58,-299.73 254,-297.2 246.78,-265.48 245.57,-255.42 254,-224 255.88,-216.98 259.15,-209.93 262.75,-203.56"/>
<polygon fill="#64748b" stroke="#64748b" points="264.75,-204.98 266.28,-197.73 260.56,-202.45 264.75,-204.98"/>
</g>
<!-- n34 -->
<g id="node31" class="node">
<title>n34</title>
<g id="a_node31"><a xlink:href="https://github.com/statopia/statlib/blob/main/Statlib/HighDim/Concentration/HansonWright.lean#L503" xlink:title="lemma · Statlib/HighDim/Concentration/HansonWright.lean:503" target="_blank">
<path fill="#eef2f6" stroke="#94a3b8" d="M968.84,-413.2C968.84,-413.2 761.16,-413.2 761.16,-413.2 755.16,-413.2 749.16,-407.2 749.16,-401.2 749.16,-401.2 749.16,-389.2 749.16,-389.2 749.16,-383.2 755.16,-377.2 761.16,-377.2 761.16,-377.2 968.84,-377.2 968.84,-377.2 974.84,-377.2 980.84,-383.2 980.84,-389.2 980.84,-389.2 980.84,-401.2 980.84,-401.2 980.84,-407.2 974.84,-413.2 968.84,-413.2"/>
<text xml:space="preserve" text-anchor="middle" x="865" y="-392.2" font-family="Helvetica,sans-Serif" font-size="10.00">offDiagCoeffVec_norm_sq_integral_le_frobenius</text>
</a>
</g>
</g>
<!-- n34&#45;&gt;n0 -->
<g id="edge63" class="edge">
<title>n34&#45;&gt;n0</title>
<path fill="none" stroke="#64748b" d="M981.34,-385.77C1044.76,-378.49 1114.27,-365.19 1134,-341.2 1144.16,-328.84 1145.02,-316.8 1134,-305.2 1122.2,-292.77 996.28,-302.55 980,-297.2 964.36,-292.06 948.88,-282.45 936.47,-273.32"/>
<polygon fill="#64748b" stroke="#64748b" points="938.17,-271.53 931.12,-269.24 935.2,-275.43 938.17,-271.53"/>
</g>
<!-- n34&#45;&gt;n2 -->
<g id="edge65" class="edge">
<title>n34&#45;&gt;n2</title>
<path fill="none" stroke="#64748b" d="M748.93,-378.12C745.92,-377.8 742.94,-377.49 740,-377.2 613.04,-364.6 285.07,-389.54 167,-341.2 132.32,-327 101.11,-296.36 82.13,-274.75"/>
<polygon fill="#64748b" stroke="#64748b" points="84.05,-273.22 77.63,-269.5 80.33,-276.41 84.05,-273.22"/>
</g>
<!-- n34&#45;&gt;n4 -->
<g id="edge64" class="edge">
<title>n34&#45;&gt;n4</title>
<path fill="none" stroke="#64748b" d="M981.13,-384.12C1039.29,-376.41 1101.1,-363.22 1119,-341.2 1129.09,-328.78 1130.15,-316.68 1119,-305.2 1097.78,-283.35 866.22,-319.05 845,-297.2 798.96,-249.8 858.43,-169.82 893.56,-130.4"/>
<polygon fill="#64748b" stroke="#64748b" points="895.07,-132.39 897.96,-125.56 891.44,-129.1 895.07,-132.39"/>
</g>
<!-- n34&#45;&gt;n22 -->
<g id="edge66" class="edge">
<title>n34&#45;&gt;n22</title>
<path fill="none" stroke="#64748b" d="M783.78,-376.76C754.09,-368.46 720.95,-356.84 693,-341.2 661.88,-323.78 632.51,-294.85 613.96,-274.46"/>
<polygon fill="#64748b" stroke="#64748b" points="615.83,-272.88 609.34,-269.29 612.18,-276.14 615.83,-272.88"/>
</g>
<!-- n34&#45;&gt;n23 -->
<g id="edge67" class="edge">
<title>n34&#45;&gt;n23</title>
<path fill="none" stroke="#64748b" d="M867.73,-376.82C869.81,-356.69 869.7,-323.89 851,-305.2 834.77,-288.98 818.4,-310.91 800,-297.2 771.08,-275.66 794.59,-244.62 765,-224 729.89,-199.53 447.04,-185.62 330.21,-180.87"/>
<polygon fill="#64748b" stroke="#64748b" points="330.36,-178.43 323.26,-180.59 330.16,-183.32 330.36,-178.43"/>
</g>
<!-- n34&#45;&gt;n24 -->
<g id="edge68" class="edge">
<title>n34&#45;&gt;n24</title>
<path fill="none" stroke="#64748b" d="M902.96,-376.72C923.81,-367.12 949.8,-355.15 971.7,-345.06"/>
<polygon fill="#64748b" stroke="#64748b" points="972.55,-347.37 977.88,-342.21 970.5,-342.92 972.55,-347.37"/>
</g>
<!-- n34&#45;&gt;n25 -->
<g id="edge70" class="edge">
<title>n34&#45;&gt;n25</title>
<path fill="none" stroke="#64748b" d="M872.21,-377.01C879.18,-357.35 886.48,-325.31 870,-305.2 858.51,-291.18 843.99,-308.73 830,-297.2 802.87,-274.83 821.61,-251.73 800,-224 793.3,-215.4 784.54,-207.65 775.76,-201.1"/>
<polygon fill="#64748b" stroke="#64748b" points="777.43,-199.29 770.31,-197.22 774.59,-203.28 777.43,-199.29"/>
</g>
<!-- n34&#45;&gt;n26 -->
<g id="edge69" class="edge">
<title>n34&#45;&gt;n26</title>
<path fill="none" stroke="#64748b" d="M864.23,-376.94C862.34,-356.6 856.01,-323.29 835,-305.2 819.61,-291.95 809.19,-303.87 790,-297.2 772.11,-290.98 753.46,-281.4 738.12,-272.56"/>
<polygon fill="#64748b" stroke="#64748b" points="739.45,-270.5 732.17,-269.07 736.97,-274.73 739.45,-270.5"/>
</g>
<!-- n34&#45;&gt;n28 -->
<g id="edge71" class="edge">
<title>n34&#45;&gt;n28</title>
<path fill="none" stroke="#64748b" d="M771.09,-376.72C716.25,-366.51 647.03,-353.62 590.88,-343.17"/>
<polygon fill="#64748b" stroke="#64748b" points="591.51,-340.79 584.18,-341.92 590.61,-345.61 591.51,-340.79"/>
</g>
<!-- n34&#45;&gt;n31 -->
<g id="edge72" class="edge">
<title>n34&#45;&gt;n31</title>
<path fill="none" stroke="#64748b" d="M977.39,-376.72C1045.19,-366.17 1131.35,-352.77 1199.67,-342.14"/>
<polygon fill="#64748b" stroke="#64748b" points="1199.87,-344.59 1206.41,-341.09 1199.12,-339.75 1199.87,-344.59"/>
</g>
<!-- n34&#45;&gt;n32 -->
<g id="edge73" class="edge">
<title>n34&#45;&gt;n32</title>
<path fill="none" stroke="#64748b" d="M839.77,-376.72C826.42,-367.46 809.88,-356 795.67,-346.15"/>
<polygon fill="#64748b" stroke="#64748b" points="797.3,-344.3 790.15,-342.32 794.51,-348.32 797.3,-344.3"/>
</g>
<!-- n34&#45;&gt;n33 -->
<g id="edge74" class="edge">
<title>n34&#45;&gt;n33</title>
<path fill="none" stroke="#64748b" d="M748.91,-378.25C745.91,-377.89 742.94,-377.54 740,-377.2 573.68,-357.91 530.96,-363.38 365,-341.2 364.91,-341.19 364.82,-341.18 364.73,-341.16"/>
<polygon fill="#64748b" stroke="#64748b" points="365.1,-338.74 357.83,-340.2 364.43,-343.6 365.1,-338.74"/>
</g>
<!-- n35 -->
<g id="node32" class="node">
<title>n35</title>
<g id="a_node32"><a xlink:href="https://github.com/statopia/statlib/blob/main/Statlib/HighDim/Concentration/HansonWright.lean#L586" xlink:title="lemma · Statlib/HighDim/Concentration/HansonWright.lean:586" target="_blank">
<path fill="#eef2f6" stroke="#94a3b8" d="M958.84,-485.2C958.84,-485.2 771.16,-485.2 771.16,-485.2 765.16,-485.2 759.16,-479.2 759.16,-473.2 759.16,-473.2 759.16,-461.2 759.16,-461.2 759.16,-455.2 765.16,-449.2 771.16,-449.2 771.16,-449.2 958.84,-449.2 958.84,-449.2 964.84,-449.2 970.84,-455.2 970.84,-461.2 970.84,-461.2 970.84,-473.2 970.84,-473.2 970.84,-479.2 964.84,-485.2 958.84,-485.2"/>
<text xml:space="preserve" text-anchor="middle" x="865" y="-464.2" font-family="Helvetica,sans-Serif" font-size="10.00">offDiagCoeffVec_norm_sq_tail_le_frobenius</text>
</a>
</g>
</g>
<!-- n35&#45;&gt;n0 -->
<g id="edge75" class="edge">
<title>n35&#45;&gt;n0</title>
<path fill="none" stroke="#64748b" d="M969.04,-448.7C1031.17,-432.28 1105.15,-400.85 1143,-341.2 1151.57,-327.69 1154.03,-316.79 1143,-305.2 1130.5,-292.07 997.23,-302.84 980,-297.2 964.35,-292.08 948.87,-282.47 936.46,-273.34"/>
<polygon fill="#64748b" stroke="#64748b" points="938.16,-271.55 931.11,-269.26 935.2,-275.45 938.16,-271.55"/>
</g>
<!-- n35&#45;&gt;n2 -->
<g id="edge77" class="edge">
<title>n35&#45;&gt;n2</title>
<path fill="none" stroke="#64748b" d="M758.85,-465.31C563.26,-462.72 161.35,-452.61 112,-413.2 70.61,-380.15 63.2,-313.35 62.45,-276.62"/>
<polygon fill="#64748b" stroke="#64748b" points="64.9,-276.9 62.4,-269.92 60,-276.94 64.9,-276.9"/>
</g>
<!-- n35&#45;&gt;n4 -->
<g id="edge76" class="edge">
<title>n35&#45;&gt;n4</title>
<path fill="none" stroke="#64748b" d="M758.86,-463.87C577.19,-457.4 218.57,-433.04 140,-341.2 135.27,-335.68 134.59,-249.32 139,-224 144.19,-194.22 137.9,-178.24 162,-160 217.57,-117.93 700.18,-109.19 862.78,-107.43"/>
<polygon fill="#64748b" stroke="#64748b" points="862.71,-109.88 869.69,-107.36 862.66,-104.98 862.71,-109.88"/>
</g>
<!-- n35&#45;&gt;n29 -->
<g id="edge78" class="edge">
<title>n35&#45;&gt;n29</title>
<path fill="none" stroke="#64748b" d="M808.8,-448.72C776.87,-438.78 736.78,-426.31 703.69,-416.01"/>
<polygon fill="#64748b" stroke="#64748b" points="704.73,-413.77 697.31,-414.03 703.27,-418.45 704.73,-413.77"/>
</g>
<!-- n35&#45;&gt;n34 -->
<g id="edge79" class="edge">
<title>n35&#45;&gt;n34</title>
<path fill="none" stroke="#64748b" d="M865,-448.9C865,-440.67 865,-430.68 865,-421.62"/>
<polygon fill="#64748b" stroke="#64748b" points="867.45,-421.82 865,-414.82 862.55,-421.82 867.45,-421.82"/>
</g>
<!-- n35&#45;&gt;n20 -->
<g id="edge80" class="edge">
<title>n35&#45;&gt;n20</title>
<path fill="none" stroke="#64748b" d="M971.05,-465.68C1151.91,-463.64 1531.3,-454.31 1849,-413.2 2101.93,-380.47 2167.77,-373.93 2411,-297.2 2432.54,-290.41 2455.64,-280.75 2474.84,-272.03"/>
<polygon fill="#64748b" stroke="#64748b" points="2475.83,-274.27 2481.17,-269.11 2473.78,-269.82 2475.83,-274.27"/>
</g>
<!-- n36 -->
<g id="node33" class="node">
<title>n36</title>
<g id="a_node33"><a xlink:href="https://github.com/statopia/statlib/blob/main/Statlib/HighDim/Concentration/HansonWright.lean#L1063" xlink:title="lemma · Statlib/HighDim/Concentration/HansonWright.lean:1063" target="_blank">
<path fill="#eef2f6" stroke="#94a3b8" d="M1322.59,-557.2C1322.59,-557.2 1055.41,-557.2 1055.41,-557.2 1049.41,-557.2 1043.41,-551.2 1043.41,-545.2 1043.41,-545.2 1043.41,-533.2 1043.41,-533.2 1043.41,-527.2 1049.41,-521.2 1055.41,-521.2 1055.41,-521.2 1322.59,-521.2 1322.59,-521.2 1328.59,-521.2 1334.59,-527.2 1334.59,-533.2 1334.59,-533.2 1334.59,-545.2 1334.59,-545.2 1334.59,-551.2 1328.59,-557.2 1322.59,-557.2"/>
<text xml:space="preserve" text-anchor="middle" x="1189" y="-536.2" font-family="Helvetica,sans-Serif" font-size="10.00">decoupledOffDiagQuadForm_prod_tail_le_markov_plus_good</text>
</a>
</g>
</g>
<!-- n36&#45;&gt;n0 -->
<g id="edge81" class="edge">
<title>n36&#45;&gt;n0</title>
<path fill="none" stroke="#64748b" d="M1192.63,-520.81C1200.66,-476.92 1214.57,-361.19 1152,-305.2 1137.74,-292.44 998.19,-303.13 980,-297.2 964.35,-292.1 948.87,-282.49 936.46,-273.36"/>
<polygon fill="#64748b" stroke="#64748b" points="938.16,-271.57 931.1,-269.28 935.19,-275.47 938.16,-271.57"/>
</g>
<!-- n36&#45;&gt;n1 -->
<g id="edge82" class="edge">
<title>n36&#45;&gt;n1</title>
<path fill="none" stroke="#64748b" d="M1334.82,-538.1C1542.6,-533.94 1899,-510.2 1899,-396.2 1899,-396.2 1899,-396.2 1899,-177 1899,-135.4 1899.08,-117.75 1870,-88 1851.08,-68.65 1824.69,-56.35 1799.26,-48.54"/>
<polygon fill="#64748b" stroke="#64748b" points="1800.26,-46.28 1792.86,-46.68 1798.9,-50.98 1800.26,-46.28"/>
</g>
<!-- n36&#45;&gt;n2 -->
<g id="edge83" class="edge">
<title>n36&#45;&gt;n2</title>
<path fill="none" stroke="#64748b" d="M1043.03,-530.93C758.5,-515.45 151.14,-475.47 80,-413.2 41.64,-379.62 48.83,-313.03 56.47,-276.48"/>
<polygon fill="#64748b" stroke="#64748b" points="58.84,-277.15 57.97,-269.78 54.05,-276.08 58.84,-277.15"/>
</g>
<!-- n36&#45;&gt;n21 -->
<g id="edge84" class="edge">
<title>n36&#45;&gt;n21</title>
<path fill="none" stroke="#64748b" d="M1293.9,-520.72C1355.4,-510.47 1433.11,-497.51 1495.97,-487.04"/>
<polygon fill="#64748b" stroke="#64748b" points="1496.35,-489.46 1502.85,-485.89 1495.55,-484.63 1496.35,-489.46"/>
</g>
<!-- n36&#45;&gt;n35 -->
<g id="edge85" class="edge">
<title>n36&#45;&gt;n35</title>
<path fill="none" stroke="#64748b" d="M1108.08,-520.72C1061.21,-510.59 1002.15,-497.83 953.98,-487.42"/>
<polygon fill="#64748b" stroke="#64748b" points="954.57,-485.05 947.21,-485.96 953.54,-489.84 954.57,-485.05"/>
</g>
<!-- n37 -->
<g id="node34" class="node">
<title>n37</title>
<g id="a_node34"><a xlink:href="https://github.com/statopia/statlib/blob/main/Statlib/HighDim/Concentration/HansonWright.lean#L1086" xlink:title="lemma · Statlib/HighDim/Concentration/HansonWright.lean:1086" target="_blank">
<path fill="#eef2f6" stroke="#94a3b8" stroke-width="3" d="M1339.82,-629.2C1339.82,-629.2 1038.18,-629.2 1038.18,-629.2 1032.18,-629.2 1026.18,-623.2 1026.18,-617.2 1026.18,-617.2 1026.18,-605.2 1026.18,-605.2 1026.18,-599.2 1032.18,-593.2 1038.18,-593.2 1038.18,-593.2 1339.82,-593.2 1339.82,-593.2 1345.82,-593.2 1351.82,-599.2 1351.82,-605.2 1351.82,-605.2 1351.82,-617.2 1351.82,-617.2 1351.82,-623.2 1345.82,-629.2 1339.82,-629.2"/>
<text xml:space="preserve" text-anchor="middle" x="1189" y="-608.2" font-family="Helvetica,sans-Serif" font-size="10.00">decoupledOffDiagQuadForm_prod_tail_le_markov_plus_good_ofReal</text>
</a>
</g>
</g>
<!-- n37&#45;&gt;n0 -->
<g id="edge86" class="edge">
<title>n37&#45;&gt;n0</title>
<path fill="none" stroke="#64748b" d="M1284.23,-591.83C1305.89,-584.04 1327.39,-572.95 1344,-557.2 1365.5,-536.82 1451.76,-326.33 1431,-305.2 1422.22,-296.26 991.97,-300.91 980,-297.2 964.16,-292.29 948.55,-282.6 936.11,-273.36"/>
<polygon fill="#64748b" stroke="#64748b" points="937.79,-271.56 930.75,-269.23 934.8,-275.44 937.79,-271.56"/>
</g>
<!-- n37&#45;&gt;n1 -->
<g id="edge87" class="edge">
<title>n37&#45;&gt;n1</title>
<path fill="none" stroke="#64748b" d="M1353.28,-594.45C1568.55,-571.54 1919,-525.45 1919,-468.2 1919,-468.2 1919,-468.2 1919,-177 1919,-134.97 1917.31,-117.13 1887,-88 1863.42,-65.33 1830.22,-52.36 1799.56,-44.93"/>
<polygon fill="#64748b" stroke="#64748b" points="1800.25,-42.57 1792.88,-43.4 1799.16,-47.35 1800.25,-42.57"/>
</g>
<!-- n37&#45;&gt;n2 -->
<g id="edge88" class="edge">
<title>n37&#45;&gt;n2</title>
<path fill="none" stroke="#64748b" d="M1024.93,-607.4C824.03,-599.98 475.39,-574.03 191,-485.2 124.97,-464.57 91.68,-470.55 53,-413.2 25.1,-371.84 40.51,-310.23 52.72,-276.08"/>
<polygon fill="#64748b" stroke="#64748b" points="54.89,-277.25 55.04,-269.84 50.3,-275.55 54.89,-277.25"/>
</g>
<!-- n37&#45;&gt;n3 -->
<g id="edge89" class="edge">
<title>n37&#45;&gt;n3</title>
<path fill="none" stroke="#64748b" d="M1025.08,-609.69C821.76,-607.24 464.92,-596.95 162,-557.2 160.36,-556.99 158.71,-556.75 157.05,-556.51"/>
<polygon fill="#64748b" stroke="#64748b" points="157.44,-554.09 150.15,-555.42 156.68,-558.93 157.44,-554.09"/>
</g>
<!-- n37&#45;&gt;n36 -->
<g id="edge90" class="edge">
<title>n37&#45;&gt;n36</title>
<path fill="none" stroke="#64748b" d="M1189,-591.81C1189,-583.79 1189,-574.25 1189,-565.57"/>
<polygon fill="#64748b" stroke="#64748b" points="1191.45,-565.78 1189,-558.78 1186.55,-565.78 1191.45,-565.78"/>
</g>
</g>
</svg>
