<?xml version="1.0" encoding="UTF-8" standalone="no"?>
<!DOCTYPE svg PUBLIC "-//W3C//DTD SVG 1.1//EN"
 "http://www.w3.org/Graphics/SVG/1.1/DTD/svg11.dtd">
<!-- Generated by graphviz version 15.0.0 (20260523.1842)
 -->
<!-- Title: decoupledOffDiagQuadForm_prod_tail_le_lintegral_spectral Pages: 1 -->
<svg width="1388pt" height="698pt"
 viewBox="0.00 0.00 1388.00 698.00" xmlns="http://www.w3.org/2000/svg" xmlns:xlink="http://www.w3.org/1999/xlink">
<g id="graph0" class="graph" transform="scale(1 1) rotate(0) translate(4 694)">
<title>decoupledOffDiagQuadForm_prod_tail_le_lintegral_spectral</title>
<polygon fill="white" stroke="none" points="-4,4 -4,-694 1384,-694 1384,4 -4,4"/>
<text xml:space="preserve" text-anchor="middle" x="690" y="-673.4" font-family="Helvetica,sans-Serif" font-size="14.00">Proof narrative — decoupledOffDiagQuadForm_prod_tail_le_lintegral_spectral &#160;(30 decls)</text>
<g id="clust1" class="cluster">
<title>cluster_0</title>
<path fill="none" stroke="#cbd5e1" stroke-dasharray="5,2" d="M20,-8C20,-8 1360,-8 1360,-8 1366,-8 1372,-14 1372,-20 1372,-20 1372,-645.2 1372,-645.2 1372,-651.2 1366,-657.2 1360,-657.2 1360,-657.2 20,-657.2 20,-657.2 14,-657.2 8,-651.2 8,-645.2 8,-645.2 8,-20 8,-20 8,-14 14,-8 20,-8"/>
<text xml:space="preserve" text-anchor="middle" x="690" y="-643.3" font-family="Helvetica,sans-Serif" font-size="11.00">HighDim</text>
</g>
<!-- n0 -->
<g id="node1" class="node">
<title>n0</title>
<g id="a_node1"><a xlink:href="vscode://vscode-remote/wsl+Ubuntu/home/ai4stat/statlib/Statlib/HighDim/Vocabulary/RandomVector.lean:52" xlink:title="structure · Statlib/HighDim/Vocabulary/RandomVector.lean:52" target="_blank">
<path fill="#e8dcff" stroke="#8b5cf6" d="M454.36,-340C454.36,-340 365.64,-340 365.64,-340 359.64,-340 353.64,-334 353.64,-328 353.64,-328 353.64,-316 353.64,-316 353.64,-310 359.64,-304 365.64,-304 365.64,-304 454.36,-304 454.36,-304 460.36,-304 466.36,-310 466.36,-316 466.36,-316 466.36,-328 466.36,-328 466.36,-334 460.36,-340 454.36,-340"/>
<text xml:space="preserve" text-anchor="middle" x="410" y="-319" font-family="Helvetica,sans-Serif" font-size="10.00">IsSubGaussianVector</text>
</a>
</g>
</g>
<!-- n1 -->
<g id="node2" class="node">
<title>n1</title>
<g id="a_node2"><a xlink:href="vscode://vscode-remote/wsl+Ubuntu/home/ai4stat/statlib/Statlib/HighDim/Vocabulary/QuadraticForms.lean:33" xlink:title="noncomputable def · Statlib/HighDim/Vocabulary/QuadraticForms.lean:33" target="_blank">
<path fill="#d6e9ff" stroke="#3b82f6" d="M365.92,-124C365.92,-124 246.08,-124 246.08,-124 240.08,-124 234.08,-118 234.08,-112 234.08,-112 234.08,-100 234.08,-100 234.08,-94 240.08,-88 246.08,-88 246.08,-88 365.92,-88 365.92,-88 371.92,-88 377.92,-94 377.92,-100 377.92,-100 377.92,-112 377.92,-112 377.92,-118 371.92,-124 365.92,-124"/>
<text xml:space="preserve" text-anchor="middle" x="306" y="-103" font-family="Helvetica,sans-Serif" font-size="10.00">decoupledOffDiagQuadForm</text>
</a>
</g>
</g>
<!-- n2 -->
<g id="node3" class="node">
<title>n2</title>
<g id="a_node3"><a xlink:href="vscode://vscode-remote/wsl+Ubuntu/home/ai4stat/statlib/Statlib/HighDim/Concentration/HansonWright.lean:86" xlink:title="lemma · Statlib/HighDim/Concentration/HansonWright.lean:86" target="_blank">
<path fill="#eef2f6" stroke="#94a3b8" d="M265.83,-196C265.83,-196 88.17,-196 88.17,-196 82.17,-196 76.17,-190 76.17,-184 76.17,-184 76.17,-172 76.17,-172 76.17,-166 82.17,-160 88.17,-160 88.17,-160 265.83,-160 265.83,-160 271.83,-160 277.83,-166 277.83,-172 277.83,-172 277.83,-184 277.83,-184 277.83,-190 271.83,-196 265.83,-196"/>
<text xml:space="preserve" text-anchor="middle" x="177" y="-175" font-family="Helvetica,sans-Serif" font-size="10.00">decoupledOffDiagQuadForm_measurable</text>
</a>
</g>
</g>
<!-- n2&#45;&gt;n1 -->
<g id="edge1" class="edge">
<title>n2&#45;&gt;n1</title>
<path fill="none" stroke="#64748b" d="M209.22,-159.52C226.74,-150.01 248.55,-138.17 267.03,-128.15"/>
<polygon fill="#64748b" stroke="#64748b" points="267.88,-130.47 272.86,-124.98 265.54,-126.17 267.88,-130.47"/>
</g>
<!-- n3 -->
<g id="node4" class="node">
<title>n3</title>
<g id="a_node4"><a xlink:href="vscode://vscode-remote/wsl+Ubuntu/home/ai4stat/statlib/Statlib/HighDim/Concentration/HansonWright.lean:95" xlink:title="lemma · Statlib/HighDim/Concentration/HansonWright.lean:95" target="_blank">
<path fill="#eef2f6" stroke="#94a3b8" d="M271.62,-268C271.62,-268 68.38,-268 68.38,-268 62.38,-268 56.38,-262 56.38,-256 56.38,-256 56.38,-244 56.38,-244 56.38,-238 62.38,-232 68.38,-232 68.38,-232 271.62,-232 271.62,-232 277.62,-232 283.62,-238 283.62,-244 283.62,-244 283.62,-256 283.62,-256 283.62,-262 277.62,-268 271.62,-268"/>
<text xml:space="preserve" text-anchor="middle" x="170" y="-247" font-family="Helvetica,sans-Serif" font-size="10.00">decoupledOffDiagQuadForm_prod_measurable</text>
</a>
</g>
</g>
<!-- n3&#45;&gt;n1 -->
<g id="edge2" class="edge">
<title>n3&#45;&gt;n1</title>
<path fill="none" stroke="#64748b" d="M110.29,-231.58C93.35,-223.57 76.85,-212.14 67,-196 58.67,-182.34 56.99,-172.48 67,-160 86.76,-135.38 164.09,-121.48 225.51,-114.16"/>
<polygon fill="#64748b" stroke="#64748b" points="225.5,-116.62 232.18,-113.38 224.94,-111.76 225.5,-116.62"/>
</g>
<!-- n3&#45;&gt;n2 -->
<g id="edge3" class="edge">
<title>n3&#45;&gt;n2</title>
<path fill="none" stroke="#64748b" d="M171.73,-231.7C172.55,-223.47 173.55,-213.48 174.46,-204.42"/>
<polygon fill="#64748b" stroke="#64748b" points="176.88,-204.82 175.14,-197.61 172,-204.33 176.88,-204.82"/>
</g>
<!-- n4 -->
<g id="node5" class="node">
<title>n4</title>
<g id="a_node5"><a xlink:href="vscode://vscode-remote/wsl+Ubuntu/home/ai4stat/statlib/Statlib/HighDim/Concentration/HansonWright.lean:105" xlink:title="lemma · Statlib/HighDim/Concentration/HansonWright.lean:105" target="_blank">
<path fill="#eef2f6" stroke="#94a3b8" d="M284.29,-340C284.29,-340 47.71,-340 47.71,-340 41.71,-340 35.71,-334 35.71,-328 35.71,-328 35.71,-316 35.71,-316 35.71,-310 41.71,-304 47.71,-304 47.71,-304 284.29,-304 284.29,-304 290.29,-304 296.29,-310 296.29,-316 296.29,-316 296.29,-328 296.29,-328 296.29,-334 290.29,-340 284.29,-340"/>
<text xml:space="preserve" text-anchor="middle" x="166" y="-319" font-family="Helvetica,sans-Serif" font-size="10.00">decoupledOffDiagQuadForm_prod_tail_measurableSet</text>
</a>
</g>
</g>
<!-- n4&#45;&gt;n1 -->
<g id="edge4" class="edge">
<title>n4&#45;&gt;n1</title>
<path fill="none" stroke="#64748b" d="M92.28,-303.51C74.5,-295.65 57.59,-284.31 47,-268 34.71,-249.08 45.22,-171.73 56,-160 78.63,-135.37 161.35,-121.36 225.51,-114.01"/>
<polygon fill="#64748b" stroke="#64748b" points="225.45,-116.49 232.13,-113.28 224.9,-111.62 225.45,-116.49"/>
</g>
<!-- n4&#45;&gt;n3 -->
<g id="edge5" class="edge">
<title>n4&#45;&gt;n3</title>
<path fill="none" stroke="#64748b" d="M166.99,-303.7C167.46,-295.47 168.03,-285.48 168.55,-276.42"/>
<polygon fill="#64748b" stroke="#64748b" points="170.98,-276.74 168.94,-269.62 166.09,-276.46 170.98,-276.74"/>
</g>
<!-- n5 -->
<g id="node6" class="node">
<title>n5</title>
<g id="a_node6"><a xlink:href="vscode://vscode-remote/wsl+Ubuntu/home/ai4stat/statlib/Statlib/HighDim/Vocabulary/QuadraticForms.lean:46" xlink:title="noncomputable def · Statlib/HighDim/Vocabulary/QuadraticForms.lean:46" target="_blank">
<path fill="#d6e9ff" stroke="#3b82f6" d="M879.41,-52C879.41,-52 814.59,-52 814.59,-52 808.59,-52 802.59,-46 802.59,-40 802.59,-40 802.59,-28 802.59,-28 802.59,-22 808.59,-16 814.59,-16 814.59,-16 879.41,-16 879.41,-16 885.41,-16 891.41,-22 891.41,-28 891.41,-28 891.41,-40 891.41,-40 891.41,-46 885.41,-52 879.41,-52"/>
<text xml:space="preserve" text-anchor="middle" x="847" y="-31" font-family="Helvetica,sans-Serif" font-size="10.00">offDiagCoeffVec</text>
</a>
</g>
</g>
<!-- n6 -->
<g id="node7" class="node">
<title>n6</title>
<g id="a_node7"><a xlink:href="vscode://vscode-remote/wsl+Ubuntu/home/ai4stat/statlib/Statlib/HighDim/Vocabulary/QuadraticForms.lean:52" xlink:title="def · Statlib/HighDim/Vocabulary/QuadraticForms.lean:52" target="_blank">
<path fill="#d6e9ff" stroke="#3b82f6" d="M1075.62,-52C1075.62,-52 1016.38,-52 1016.38,-52 1010.38,-52 1004.38,-46 1004.38,-40 1004.38,-40 1004.38,-28 1004.38,-28 1004.38,-22 1010.38,-16 1016.38,-16 1016.38,-16 1075.62,-16 1075.62,-16 1081.62,-16 1087.62,-22 1087.62,-28 1087.62,-28 1087.62,-40 1087.62,-40 1087.62,-46 1081.62,-52 1075.62,-52"/>
<text xml:space="preserve" text-anchor="middle" x="1046" y="-31" font-family="Helvetica,sans-Serif" font-size="10.00">zeroDiagMatrix</text>
</a>
</g>
</g>
<!-- n7 -->
<g id="node8" class="node">
<title>n7</title>
<g id="a_node8"><a xlink:href="vscode://vscode-remote/wsl+Ubuntu/home/ai4stat/statlib/Statlib/HighDim/Concentration/HansonWright.lean:251" xlink:title="lemma · Statlib/HighDim/Concentration/HansonWright.lean:251" target="_blank">
<path fill="#eef2f6" stroke="#94a3b8" d="M1131.61,-124C1131.61,-124 938.39,-124 938.39,-124 932.39,-124 926.39,-118 926.39,-112 926.39,-112 926.39,-100 926.39,-100 926.39,-94 932.39,-88 938.39,-88 938.39,-88 1131.61,-88 1131.61,-88 1137.61,-88 1143.61,-94 1143.61,-100 1143.61,-100 1143.61,-112 1143.61,-112 1143.61,-118 1137.61,-124 1131.61,-124"/>
<text xml:space="preserve" text-anchor="middle" x="1035" y="-103" font-family="Helvetica,sans-Serif" font-size="10.00">offDiagCoeffVec_eq_zeroDiagMatrix_mulVec</text>
</a>
</g>
</g>
<!-- n7&#45;&gt;n5 -->
<g id="edge6" class="edge">
<title>n7&#45;&gt;n5</title>
<path fill="none" stroke="#64748b" d="M988.04,-87.52C961.1,-77.49 927.22,-64.87 899.41,-54.51"/>
<polygon fill="#64748b" stroke="#64748b" points="900.57,-52.33 893.16,-52.19 898.86,-56.93 900.57,-52.33"/>
</g>
<!-- n7&#45;&gt;n6 -->
<g id="edge7" class="edge">
<title>n7&#45;&gt;n6</title>
<path fill="none" stroke="#64748b" d="M1037.72,-87.7C1039.01,-79.47 1040.58,-69.48 1042.01,-60.42"/>
<polygon fill="#64748b" stroke="#64748b" points="1044.41,-60.9 1043.08,-53.6 1039.57,-60.13 1044.41,-60.9"/>
</g>
<!-- n8 -->
<g id="node9" class="node">
<title>n8</title>
<g id="a_node9"><a xlink:href="vscode://vscode-remote/wsl+Ubuntu/home/ai4stat/statlib/Statlib/HighDim/Concentration/HansonWright.lean:276" xlink:title="lemma · Statlib/HighDim/Concentration/HansonWright.lean:276" target="_blank">
<path fill="#eef2f6" stroke="#94a3b8" d="M1168.04,-196C1168.04,-196 1015.96,-196 1015.96,-196 1009.96,-196 1003.96,-190 1003.96,-184 1003.96,-184 1003.96,-172 1003.96,-172 1003.96,-166 1009.96,-160 1015.96,-160 1015.96,-160 1168.04,-160 1168.04,-160 1174.04,-160 1180.04,-166 1180.04,-172 1180.04,-172 1180.04,-184 1180.04,-184 1180.04,-190 1174.04,-196 1168.04,-196"/>
<text xml:space="preserve" text-anchor="middle" x="1092" y="-175" font-family="Helvetica,sans-Serif" font-size="10.00">offDiagCoeffVec_norm_le_zeroDiag</text>
</a>
</g>
</g>
<!-- n8&#45;&gt;n5 -->
<g id="edge8" class="edge">
<title>n8&#45;&gt;n5</title>
<path fill="none" stroke="#64748b" d="M1003.5,-162.39C974.02,-154.48 942.29,-142.39 917,-124 901.25,-112.54 903.87,-103.44 892,-88 884.42,-78.14 875.66,-67.64 867.89,-58.6"/>
<polygon fill="#64748b" stroke="#64748b" points="869.86,-57.14 863.43,-53.46 866.16,-60.35 869.86,-57.14"/>
</g>
<!-- n8&#45;&gt;n6 -->
<g id="edge9" class="edge">
<title>n8&#45;&gt;n6</title>
<path fill="none" stroke="#64748b" d="M1121.36,-159.6C1133.54,-150.65 1146.37,-138.55 1153,-124 1159.64,-109.44 1161.44,-101.59 1153,-88 1146.11,-76.91 1120.1,-63.9 1095.44,-53.54"/>
<polygon fill="#64748b" stroke="#64748b" points="1096.66,-51.4 1089.26,-51 1094.8,-55.93 1096.66,-51.4"/>
</g>
<!-- n8&#45;&gt;n7 -->
<g id="edge10" class="edge">
<title>n8&#45;&gt;n7</title>
<path fill="none" stroke="#64748b" d="M1077.91,-159.7C1070.73,-150.88 1061.9,-140.03 1054.11,-130.47"/>
<polygon fill="#64748b" stroke="#64748b" points="1056.2,-129.16 1049.88,-125.28 1052.4,-132.25 1056.2,-129.16"/>
</g>
<!-- n9 -->
<g id="node10" class="node">
<title>n9</title>
<g id="a_node10"><a xlink:href="vscode://vscode-remote/wsl+Ubuntu/home/ai4stat/statlib/Statlib/HighDim/Vocabulary/QuadraticForms.lean:57" xlink:title="def · Statlib/HighDim/Vocabulary/QuadraticForms.lean:57" target="_blank">
<path fill="#d6e9ff" stroke="#3b82f6" d="M1174.23,-52C1174.23,-52 1117.77,-52 1117.77,-52 1111.77,-52 1105.77,-46 1105.77,-40 1105.77,-40 1105.77,-28 1105.77,-28 1105.77,-22 1111.77,-16 1117.77,-16 1117.77,-16 1174.23,-16 1174.23,-16 1180.23,-16 1186.23,-22 1186.23,-28 1186.23,-28 1186.23,-40 1186.23,-40 1186.23,-46 1180.23,-52 1174.23,-52"/>
<text xml:space="preserve" text-anchor="middle" x="1146" y="-31" font-family="Helvetica,sans-Serif" font-size="10.00">diagPartMatrix</text>
</a>
</g>
</g>
<!-- n10 -->
<g id="node11" class="node">
<title>n10</title>
<g id="a_node11"><a xlink:href="vscode://vscode-remote/wsl+Ubuntu/home/ai4stat/statlib/Statlib/HighDim/Concentration/HansonWright.lean:398" xlink:title="lemma · Statlib/HighDim/Concentration/HansonWright.lean:398" target="_blank">
<path fill="#eef2f6" stroke="#94a3b8" d="M1352.26,-52C1352.26,-52 1215.74,-52 1215.74,-52 1209.74,-52 1203.74,-46 1203.74,-40 1203.74,-40 1203.74,-28 1203.74,-28 1203.74,-22 1209.74,-16 1215.74,-16 1215.74,-16 1352.26,-16 1352.26,-16 1358.26,-16 1364.26,-22 1364.26,-28 1364.26,-28 1364.26,-40 1364.26,-40 1364.26,-46 1358.26,-52 1352.26,-52"/>
<text xml:space="preserve" text-anchor="middle" x="1284" y="-31" font-family="Helvetica,sans-Serif" font-size="10.00">matrix_entry_abs_le_l2_opNorm</text>
</a>
</g>
</g>
<!-- n11 -->
<g id="node12" class="node">
<title>n11</title>
<g id="a_node12"><a xlink:href="vscode://vscode-remote/wsl+Ubuntu/home/ai4stat/statlib/Statlib/HighDim/Concentration/HansonWright.lean:685" xlink:title="lemma · Statlib/HighDim/Concentration/HansonWright.lean:685" target="_blank">
<path fill="#eef2f6" stroke="#94a3b8" d="M1352.08,-124C1352.08,-124 1253.92,-124 1253.92,-124 1247.92,-124 1241.92,-118 1241.92,-112 1241.92,-112 1241.92,-100 1241.92,-100 1241.92,-94 1247.92,-88 1253.92,-88 1253.92,-88 1352.08,-88 1352.08,-88 1358.08,-88 1364.08,-94 1364.08,-100 1364.08,-100 1364.08,-112 1364.08,-112 1364.08,-118 1358.08,-124 1352.08,-124"/>
<text xml:space="preserve" text-anchor="middle" x="1303" y="-103" font-family="Helvetica,sans-Serif" font-size="10.00">diagPartMatrix_norm_le</text>
</a>
</g>
</g>
<!-- n11&#45;&gt;n9 -->
<g id="edge11" class="edge">
<title>n11&#45;&gt;n9</title>
<path fill="none" stroke="#64748b" d="M1263.79,-87.52C1242.16,-77.88 1215.18,-65.84 1192.5,-55.73"/>
<polygon fill="#64748b" stroke="#64748b" points="1193.76,-53.61 1186.37,-53 1191.76,-58.09 1193.76,-53.61"/>
</g>
<!-- n11&#45;&gt;n10 -->
<g id="edge12" class="edge">
<title>n11&#45;&gt;n10</title>
<path fill="none" stroke="#64748b" d="M1298.3,-87.7C1296.05,-79.39 1293.3,-69.28 1290.82,-60.14"/>
<polygon fill="#64748b" stroke="#64748b" points="1293.24,-59.68 1289.04,-53.57 1288.51,-60.96 1293.24,-59.68"/>
</g>
<!-- n12 -->
<g id="node13" class="node">
<title>n12</title>
<g id="a_node13"><a xlink:href="vscode://vscode-remote/wsl+Ubuntu/home/ai4stat/statlib/Statlib/HighDim/Concentration/HansonWright.lean:704" xlink:title="lemma · Statlib/HighDim/Concentration/HansonWright.lean:704" target="_blank">
<path fill="#eef2f6" stroke="#94a3b8" d="M1352.03,-196C1352.03,-196 1229.97,-196 1229.97,-196 1223.97,-196 1217.97,-190 1217.97,-184 1217.97,-184 1217.97,-172 1217.97,-172 1217.97,-166 1223.97,-160 1229.97,-160 1229.97,-160 1352.03,-160 1352.03,-160 1358.03,-160 1364.03,-166 1364.03,-172 1364.03,-172 1364.03,-184 1364.03,-184 1364.03,-190 1358.03,-196 1352.03,-196"/>
<text xml:space="preserve" text-anchor="middle" x="1291" y="-175" font-family="Helvetica,sans-Serif" font-size="10.00">zeroDiagMatrix_norm_le_two</text>
</a>
</g>
</g>
<!-- n12&#45;&gt;n6 -->
<g id="edge13" class="edge">
<title>n12&#45;&gt;n6</title>
<path fill="none" stroke="#64748b" d="M1255.46,-159.51C1239.59,-150.47 1221.47,-138.32 1208,-124 1195.46,-110.67 1201.88,-99.94 1188,-88 1180.57,-81.61 1133.74,-64.72 1095.86,-51.71"/>
<polygon fill="#64748b" stroke="#64748b" points="1096.78,-49.44 1089.36,-49.49 1095.19,-54.07 1096.78,-49.44"/>
</g>
<!-- n12&#45;&gt;n9 -->
<g id="edge14" class="edge">
<title>n12&#45;&gt;n9</title>
<path fill="none" stroke="#64748b" d="M1269.8,-159.65C1258.32,-149.77 1244.23,-136.83 1233,-124 1220.17,-109.34 1221.07,-102.45 1208,-88 1198.25,-77.22 1186.34,-66.55 1175.58,-57.65"/>
<polygon fill="#64748b" stroke="#64748b" points="1177.21,-55.82 1170.23,-53.31 1174.12,-59.62 1177.21,-55.82"/>
</g>
<!-- n12&#45;&gt;n11 -->
<g id="edge15" class="edge">
<title>n12&#45;&gt;n11</title>
<path fill="none" stroke="#64748b" d="M1293.97,-159.7C1295.38,-151.47 1297.09,-141.48 1298.64,-132.42"/>
<polygon fill="#64748b" stroke="#64748b" points="1301.04,-132.91 1299.81,-125.6 1296.21,-132.08 1301.04,-132.91"/>
</g>
<!-- n13 -->
<g id="node14" class="node">
<title>n13</title>
<g id="a_node14"><a xlink:href="vscode://vscode-remote/wsl+Ubuntu/home/ai4stat/statlib/Statlib/HighDim/Concentration/HansonWright.lean:733" xlink:title="lemma · Statlib/HighDim/Concentration/HansonWright.lean:733" target="_blank">
<path fill="#eef2f6" stroke="#94a3b8" d="M1195.25,-268C1195.25,-268 1088.75,-268 1088.75,-268 1082.75,-268 1076.75,-262 1076.75,-256 1076.75,-256 1076.75,-244 1076.75,-244 1076.75,-238 1082.75,-232 1088.75,-232 1088.75,-232 1195.25,-232 1195.25,-232 1201.25,-232 1207.25,-238 1207.25,-244 1207.25,-244 1207.25,-256 1207.25,-256 1207.25,-262 1201.25,-268 1195.25,-268"/>
<text xml:space="preserve" text-anchor="middle" x="1142" y="-247" font-family="Helvetica,sans-Serif" font-size="10.00">offDiagCoeffVec_norm_le</text>
</a>
</g>
</g>
<!-- n13&#45;&gt;n5 -->
<g id="edge16" class="edge">
<title>n13&#45;&gt;n5</title>
<path fill="none" stroke="#64748b" d="M1076.56,-234.79C1049.41,-226.63 1018.77,-214.26 995,-196 979.55,-184.13 984.92,-172.52 970,-160 940.75,-135.46 919.48,-150.51 892,-124 886.94,-119.12 870.19,-84.61 858.61,-60.03"/>
<polygon fill="#64748b" stroke="#64748b" points="860.89,-59.11 855.7,-53.81 856.46,-61.19 860.89,-59.11"/>
</g>
<!-- n13&#45;&gt;n6 -->
<g id="edge17" class="edge">
<title>n13&#45;&gt;n6</title>
<path fill="none" stroke="#64748b" d="M1163.27,-231.7C1173.11,-222.31 1183.76,-209.8 1189,-196 1197.8,-172.82 1177.99,-106.06 1161,-88 1151.3,-77.69 1122.25,-64.34 1095.78,-53.62"/>
<polygon fill="#64748b" stroke="#64748b" points="1096.86,-51.41 1089.45,-51.09 1095.04,-55.96 1096.86,-51.41"/>
</g>
<!-- n13&#45;&gt;n8 -->
<g id="edge18" class="edge">
<title>n13&#45;&gt;n8</title>
<path fill="none" stroke="#64748b" d="M1129.64,-231.7C1123.46,-223.05 1115.89,-212.45 1109.16,-203.03"/>
<polygon fill="#64748b" stroke="#64748b" points="1111.16,-201.61 1105.1,-197.34 1107.17,-204.46 1111.16,-201.61"/>
</g>
<!-- n13&#45;&gt;n12 -->
<g id="edge19" class="edge">
<title>n13&#45;&gt;n12</title>
<path fill="none" stroke="#64748b" d="M1179.21,-231.52C1199.56,-221.96 1224.9,-210.05 1246.31,-200"/>
<polygon fill="#64748b" stroke="#64748b" points="1247.34,-202.22 1252.63,-197.03 1245.25,-197.78 1247.34,-202.22"/>
</g>
<!-- n14 -->
<g id="node15" class="node">
<title>n14</title>
<g id="a_node15"><a xlink:href="vscode://vscode-remote/wsl+Ubuntu/home/ai4stat/statlib/Statlib/HighDim/Concentration/HansonWright.lean:752" xlink:title="lemma · Statlib/HighDim/Concentration/HansonWright.lean:752" target="_blank">
<path fill="#eef2f6" stroke="#94a3b8" d="M1203.31,-340C1203.31,-340 1080.69,-340 1080.69,-340 1074.69,-340 1068.69,-334 1068.69,-328 1068.69,-328 1068.69,-316 1068.69,-316 1068.69,-310 1074.69,-304 1080.69,-304 1080.69,-304 1203.31,-304 1203.31,-304 1209.31,-304 1215.31,-310 1215.31,-316 1215.31,-316 1215.31,-328 1215.31,-328 1215.31,-334 1209.31,-340 1203.31,-340"/>
<text xml:space="preserve" text-anchor="middle" x="1142" y="-319" font-family="Helvetica,sans-Serif" font-size="10.00">offDiagCoeffVec_norm_sq_le</text>
</a>
</g>
</g>
<!-- n14&#45;&gt;n5 -->
<g id="edge20" class="edge">
<title>n14&#45;&gt;n5</title>
<path fill="none" stroke="#64748b" d="M1117.62,-303.65C1103.16,-293.33 1084.5,-279.97 1068,-268 1024.25,-236.26 1005.72,-236.56 970,-196 957.9,-182.27 963.42,-172.45 950,-160 922.01,-134.03 896.77,-153.05 872,-124 856.92,-106.31 850.9,-80.16 848.52,-60.77"/>
<polygon fill="#64748b" stroke="#64748b" points="850.96,-60.62 847.81,-53.9 846.09,-61.12 850.96,-60.62"/>
</g>
<!-- n14&#45;&gt;n13 -->
<g id="edge21" class="edge">
<title>n14&#45;&gt;n13</title>
<path fill="none" stroke="#64748b" d="M1142,-303.7C1142,-295.47 1142,-285.48 1142,-276.42"/>
<polygon fill="#64748b" stroke="#64748b" points="1144.45,-276.62 1142,-269.62 1139.55,-276.62 1144.45,-276.62"/>
</g>
<!-- n15 -->
<g id="node16" class="node">
<title>n15</title>
<g id="a_node16"><a xlink:href="vscode://vscode-remote/wsl+Ubuntu/home/ai4stat/statlib/Statlib/HighDim/Concentration/HansonWright.lean:759" xlink:title="lemma · Statlib/HighDim/Concentration/HansonWright.lean:759" target="_blank">
<path fill="#eef2f6" stroke="#94a3b8" d="M1320.7,-412C1320.7,-412 1061.3,-412 1061.3,-412 1055.3,-412 1049.3,-406 1049.3,-400 1049.3,-400 1049.3,-388 1049.3,-388 1049.3,-382 1055.3,-376 1061.3,-376 1061.3,-376 1320.7,-376 1320.7,-376 1326.7,-376 1332.7,-382 1332.7,-388 1332.7,-388 1332.7,-400 1332.7,-400 1332.7,-406 1326.7,-412 1320.7,-412"/>
<text xml:space="preserve" text-anchor="middle" x="1191" y="-391" font-family="Helvetica,sans-Serif" font-size="10.00">decoupled_const_right_subgaussian_parameter_le_spectral</text>
</a>
</g>
</g>
<!-- n15&#45;&gt;n5 -->
<g id="edge22" class="edge">
<title>n15&#45;&gt;n5</title>
<path fill="none" stroke="#64748b" d="M1129.08,-375.62C1105.96,-367.23 1080.39,-355.55 1060,-340 995.96,-291.17 994.12,-263.38 950,-196 939.97,-180.69 943.42,-172.45 930,-160 902.01,-134.03 873.47,-155.57 852,-124 839.47,-105.58 839.45,-79.73 841.83,-60.64"/>
<polygon fill="#64748b" stroke="#64748b" points="844.23,-61.17 842.84,-53.89 839.39,-60.45 844.23,-61.17"/>
</g>
<!-- n15&#45;&gt;n14 -->
<g id="edge23" class="edge">
<title>n15&#45;&gt;n14</title>
<path fill="none" stroke="#64748b" d="M1178.89,-375.7C1172.84,-367.05 1165.41,-356.45 1158.82,-347.03"/>
<polygon fill="#64748b" stroke="#64748b" points="1160.86,-345.67 1154.84,-341.34 1156.85,-348.48 1160.86,-345.67"/>
</g>
<!-- n16 -->
<g id="node17" class="node">
<title>n16</title>
<g id="a_node17"><a xlink:href="vscode://vscode-remote/wsl+Ubuntu/home/ai4stat/statlib/Statlib/HighDim/Concentration/HansonWright.lean:156" xlink:title="lemma · Statlib/HighDim/Concentration/HansonWright.lean:156" target="_blank">
<path fill="#eef2f6" stroke="#94a3b8" d="M568.43,-412C568.43,-412 433.57,-412 433.57,-412 427.57,-412 421.57,-406 421.57,-400 421.57,-400 421.57,-388 421.57,-388 421.57,-382 427.57,-376 433.57,-376 433.57,-376 568.43,-376 568.43,-376 574.43,-376 580.43,-382 580.43,-388 580.43,-388 580.43,-400 580.43,-400 580.43,-406 574.43,-412 568.43,-412"/>
<text xml:space="preserve" text-anchor="middle" x="501" y="-391" font-family="Helvetica,sans-Serif" font-size="10.00">subgaussian_mgf_mono_param</text>
</a>
</g>
</g>
<!-- n17 -->
<g id="node18" class="node">
<title>n17</title>
<g id="a_node18"><a xlink:href="vscode://vscode-remote/wsl+Ubuntu/home/ai4stat/statlib/Statlib/HighDim/Vocabulary/QuadraticForms.lean:39" xlink:title="noncomputable def · Statlib/HighDim/Vocabulary/QuadraticForms.lean:39" target="_blank">
<path fill="#d6e9ff" stroke="#3b82f6" d="M755.79,-124C755.79,-124 708.21,-124 708.21,-124 702.21,-124 696.21,-118 696.21,-112 696.21,-112 696.21,-100 696.21,-100 696.21,-94 702.21,-88 708.21,-88 708.21,-88 755.79,-88 755.79,-88 761.79,-88 767.79,-94 767.79,-100 767.79,-100 767.79,-112 767.79,-112 767.79,-118 761.79,-124 755.79,-124"/>
<text xml:space="preserve" text-anchor="middle" x="732" y="-103" font-family="Helvetica,sans-Serif" font-size="10.00">offDiagCoeff</text>
</a>
</g>
</g>
<!-- n18 -->
<g id="node19" class="node">
<title>n18</title>
<g id="a_node19"><a xlink:href="vscode://vscode-remote/wsl+Ubuntu/home/ai4stat/statlib/Statlib/HighDim/Concentration/HansonWright.lean:42" xlink:title="lemma · Statlib/HighDim/Concentration/HansonWright.lean:42" target="_blank">
<path fill="#eef2f6" stroke="#94a3b8" d="M734.11,-196C734.11,-196 545.89,-196 545.89,-196 539.89,-196 533.89,-190 533.89,-184 533.89,-184 533.89,-172 533.89,-172 533.89,-166 539.89,-160 545.89,-160 545.89,-160 734.11,-160 734.11,-160 740.11,-160 746.11,-166 746.11,-172 746.11,-172 746.11,-184 746.11,-184 746.11,-190 740.11,-196 734.11,-196"/>
<text xml:space="preserve" text-anchor="middle" x="640" y="-175" font-family="Helvetica,sans-Serif" font-size="10.00">decoupledOffDiagQuadForm_eq_sum_coeff</text>
</a>
</g>
</g>
<!-- n18&#45;&gt;n1 -->
<g id="edge24" class="edge">
<title>n18&#45;&gt;n1</title>
<path fill="none" stroke="#64748b" d="M556.58,-159.52C504.49,-148.6 437.79,-134.62 386.3,-123.83"/>
<polygon fill="#64748b" stroke="#64748b" points="387.01,-121.47 379.65,-122.44 386,-126.27 387.01,-121.47"/>
</g>
<!-- n18&#45;&gt;n17 -->
<g id="edge25" class="edge">
<title>n18&#45;&gt;n17</title>
<path fill="none" stroke="#64748b" d="M662.74,-159.7C674.79,-150.53 689.74,-139.16 702.66,-129.33"/>
<polygon fill="#64748b" stroke="#64748b" points="703.91,-131.45 708,-125.26 700.94,-127.55 703.91,-131.45"/>
</g>
<!-- n19 -->
<g id="node20" class="node">
<title>n19</title>
<g id="a_node20"><a xlink:href="vscode://vscode-remote/wsl+Ubuntu/home/ai4stat/statlib/Statlib/HighDim/Vocabulary/Norms.lean:32" xlink:title="lemma · Statlib/HighDim/Vocabulary/Norms.lean:32" target="_blank">
<path fill="#eef2f6" stroke="#94a3b8" d="M503.69,-196C503.69,-196 448.31,-196 448.31,-196 442.31,-196 436.31,-190 436.31,-184 436.31,-184 436.31,-172 436.31,-172 436.31,-166 442.31,-160 448.31,-160 448.31,-160 503.69,-160 503.69,-160 509.69,-160 515.69,-166 515.69,-172 515.69,-172 515.69,-184 515.69,-184 515.69,-190 509.69,-196 503.69,-196"/>
<text xml:space="preserve" text-anchor="middle" x="476" y="-175" font-family="Helvetica,sans-Serif" font-size="10.00">inner_eq_sum</text>
</a>
</g>
</g>
<!-- n20 -->
<g id="node21" class="node">
<title>n20</title>
<g id="a_node21"><a xlink:href="vscode://vscode-remote/wsl+Ubuntu/home/ai4stat/statlib/Statlib/HighDim/Concentration/HansonWright.lean:61" xlink:title="lemma · Statlib/HighDim/Concentration/HansonWright.lean:61" target="_blank">
<path fill="#eef2f6" stroke="#94a3b8" d="M735.79,-268C735.79,-268 544.21,-268 544.21,-268 538.21,-268 532.21,-262 532.21,-256 532.21,-256 532.21,-244 532.21,-244 532.21,-238 538.21,-232 544.21,-232 544.21,-232 735.79,-232 735.79,-232 741.79,-232 747.79,-238 747.79,-244 747.79,-244 747.79,-256 747.79,-256 747.79,-262 741.79,-268 735.79,-268"/>
<text xml:space="preserve" text-anchor="middle" x="640" y="-247" font-family="Helvetica,sans-Serif" font-size="10.00">decoupledOffDiagQuadForm_eq_inner_coeff</text>
</a>
</g>
</g>
<!-- n20&#45;&gt;n1 -->
<g id="edge26" class="edge">
<title>n20&#45;&gt;n1</title>
<path fill="none" stroke="#64748b" d="M531.73,-231.52C497.15,-223.49 459.45,-212.05 427,-196 404.04,-184.65 402.52,-175.33 382,-160 368.07,-149.58 352.34,-138.51 338.83,-129.19"/>
<polygon fill="#64748b" stroke="#64748b" points="340.39,-127.29 333.23,-125.35 337.61,-131.33 340.39,-127.29"/>
</g>
<!-- n20&#45;&gt;n17 -->
<g id="edge27" class="edge">
<title>n20&#45;&gt;n17</title>
<path fill="none" stroke="#64748b" d="M710.1,-231.53C727.72,-223.65 744.57,-212.29 755,-196 767.53,-176.42 758.36,-150.31 748.12,-131.44"/>
<polygon fill="#64748b" stroke="#64748b" points="750.4,-130.49 744.79,-125.65 746.16,-132.94 750.4,-130.49"/>
</g>
<!-- n20&#45;&gt;n18 -->
<g id="edge28" class="edge">
<title>n20&#45;&gt;n18</title>
<path fill="none" stroke="#64748b" d="M640,-231.7C640,-223.47 640,-213.48 640,-204.42"/>
<polygon fill="#64748b" stroke="#64748b" points="642.45,-204.62 640,-197.62 637.55,-204.62 642.45,-204.62"/>
</g>
<!-- n20&#45;&gt;n19 -->
<g id="edge29" class="edge">
<title>n20&#45;&gt;n19</title>
<path fill="none" stroke="#64748b" d="M599.04,-231.52C576.18,-221.76 547.59,-209.56 523.73,-199.37"/>
<polygon fill="#64748b" stroke="#64748b" points="524.95,-197.23 517.55,-196.73 523.02,-201.74 524.95,-197.23"/>
</g>
<!-- n21 -->
<g id="node22" class="node">
<title>n21</title>
<g id="a_node22"><a xlink:href="vscode://vscode-remote/wsl+Ubuntu/home/ai4stat/statlib/Statlib/HighDim/Concentration/HansonWright.lean:35" xlink:title="lemma · Statlib/HighDim/Concentration/HansonWright.lean:35" target="_blank">
<path fill="#eef2f6" stroke="#94a3b8" d="M873.52,-196C873.52,-196 796.48,-196 796.48,-196 790.48,-196 784.48,-190 784.48,-184 784.48,-184 784.48,-172 784.48,-172 784.48,-166 790.48,-160 796.48,-160 796.48,-160 873.52,-160 873.52,-160 879.52,-160 885.52,-166 885.52,-172 885.52,-172 885.52,-184 885.52,-184 885.52,-190 879.52,-196 873.52,-196"/>
<text xml:space="preserve" text-anchor="middle" x="835" y="-175" font-family="Helvetica,sans-Serif" font-size="10.00">offDiagCoeff_const</text>
</a>
</g>
</g>
<!-- n21&#45;&gt;n5 -->
<g id="edge31" class="edge">
<title>n21&#45;&gt;n5</title>
<path fill="none" stroke="#64748b" d="M820.67,-159.57C813.55,-149.76 805.69,-136.92 802,-124 797.6,-108.62 796.48,-103.02 802,-88 805.98,-77.17 813.26,-67.03 820.83,-58.58"/>
<polygon fill="#64748b" stroke="#64748b" points="822.55,-60.33 825.58,-53.57 818.99,-56.97 822.55,-60.33"/>
</g>
<!-- n21&#45;&gt;n17 -->
<g id="edge30" class="edge">
<title>n21&#45;&gt;n17</title>
<path fill="none" stroke="#64748b" d="M809.27,-159.52C795.65,-150.26 778.79,-138.8 764.3,-128.95"/>
<polygon fill="#64748b" stroke="#64748b" points="765.82,-127.02 758.65,-125.11 763.06,-131.07 765.82,-127.02"/>
</g>
<!-- n22 -->
<g id="node23" class="node">
<title>n22</title>
<g id="a_node23"><a xlink:href="vscode://vscode-remote/wsl+Ubuntu/home/ai4stat/statlib/Statlib/HighDim/Concentration/HansonWright.lean:69" xlink:title="lemma · Statlib/HighDim/Concentration/HansonWright.lean:69" target="_blank">
<path fill="#eef2f6" stroke="#94a3b8" d="M893.64,-340C893.64,-340 630.36,-340 630.36,-340 624.36,-340 618.36,-334 618.36,-328 618.36,-328 618.36,-316 618.36,-316 618.36,-310 624.36,-304 630.36,-304 630.36,-304 893.64,-304 893.64,-304 899.64,-304 905.64,-310 905.64,-316 905.64,-316 905.64,-328 905.64,-328 905.64,-334 899.64,-340 893.64,-340"/>
<text xml:space="preserve" text-anchor="middle" x="762" y="-319" font-family="Helvetica,sans-Serif" font-size="10.00">decoupledOffDiagQuadForm_const_right_eq_inner_coeffVec</text>
</a>
</g>
</g>
<!-- n22&#45;&gt;n1 -->
<g id="edge32" class="edge">
<title>n22&#45;&gt;n1</title>
<path fill="none" stroke="#64748b" d="M618.11,-304.44C539.47,-288.51 445.45,-257.27 382,-196 368.83,-183.29 373.22,-174.46 362,-160 353.65,-149.24 343.1,-138.67 333.41,-129.83"/>
<polygon fill="#64748b" stroke="#64748b" points="335.18,-128.12 328.32,-125.29 331.92,-131.78 335.18,-128.12"/>
</g>
<!-- n22&#45;&gt;n5 -->
<g id="edge33" class="edge">
<title>n22&#45;&gt;n5</title>
<path fill="none" stroke="#64748b" d="M791.72,-303.6C824.1,-282.74 874.06,-244.43 895,-196 901.35,-181.31 903.45,-173.59 895,-160 875.9,-129.28 841.1,-154.72 822,-124 809.65,-104.15 819.45,-78.07 830.19,-59.28"/>
<polygon fill="#64748b" stroke="#64748b" points="832.16,-60.77 833.68,-53.51 827.96,-58.23 832.16,-60.77"/>
</g>
<!-- n22&#45;&gt;n20 -->
<g id="edge34" class="edge">
<title>n22&#45;&gt;n20</title>
<path fill="none" stroke="#64748b" d="M731.53,-303.52C715.1,-294.09 694.7,-282.38 677.32,-272.41"/>
<polygon fill="#64748b" stroke="#64748b" points="678.69,-270.37 671.4,-269.01 676.25,-274.62 678.69,-270.37"/>
</g>
<!-- n22&#45;&gt;n21 -->
<g id="edge35" class="edge">
<title>n22&#45;&gt;n21</title>
<path fill="none" stroke="#64748b" d="M770.95,-303.59C783.83,-278.54 807.64,-232.22 822.32,-203.66"/>
<polygon fill="#64748b" stroke="#64748b" points="824.49,-204.8 825.51,-197.46 820.13,-202.56 824.49,-204.8"/>
</g>
<!-- n23 -->
<g id="node24" class="node">
<title>n23</title>
<g id="a_node24"><a xlink:href="vscode://vscode-remote/wsl+Ubuntu/home/ai4stat/statlib/Statlib/HighDim/Concentration/HansonWright.lean:76" xlink:title="lemma · Statlib/HighDim/Concentration/HansonWright.lean:76" target="_blank">
<path fill="#eef2f6" stroke="#94a3b8" d="M999.02,-412C999.02,-412 762.98,-412 762.98,-412 756.98,-412 750.98,-406 750.98,-400 750.98,-400 750.98,-388 750.98,-388 750.98,-382 756.98,-376 762.98,-376 762.98,-376 999.02,-376 999.02,-376 1005.02,-376 1011.02,-382 1011.02,-388 1011.02,-388 1011.02,-400 1011.02,-400 1011.02,-406 1005.02,-412 999.02,-412"/>
<text xml:space="preserve" text-anchor="middle" x="881" y="-391" font-family="Helvetica,sans-Serif" font-size="10.00">decoupledOffDiagQuadForm_const_right_subgaussian</text>
</a>
</g>
</g>
<!-- n23&#45;&gt;n0 -->
<g id="edge36" class="edge">
<title>n23&#45;&gt;n0</title>
<path fill="none" stroke="#64748b" d="M750.71,-376.47C677,-366.71 583.2,-353.64 500,-340 491.88,-338.67 483.36,-337.18 474.95,-335.66"/>
<polygon fill="#64748b" stroke="#64748b" points="475.39,-333.25 468.07,-334.39 474.51,-338.07 475.39,-333.25"/>
</g>
<!-- n23&#45;&gt;n1 -->
<g id="edge37" class="edge">
<title>n23&#45;&gt;n1</title>
<path fill="none" stroke="#64748b" d="M750.91,-376.12C651.71,-362.89 530.33,-345.79 520,-340 501.83,-329.82 507.02,-316 490,-304 452.08,-277.26 426.12,-299.45 392,-268 353.1,-232.15 368.06,-206.03 342,-160 336.47,-150.22 329.69,-139.91 323.52,-131.01"/>
<polygon fill="#64748b" stroke="#64748b" points="325.64,-129.76 319.61,-125.45 321.63,-132.58 325.64,-129.76"/>
</g>
<!-- n23&#45;&gt;n5 -->
<g id="edge38" class="edge">
<title>n23&#45;&gt;n5</title>
<path fill="none" stroke="#64748b" d="M762.4,-375.55C702.34,-365.59 636.43,-352.61 609,-340 515.28,-296.92 471.93,-288.84 427,-196 357.51,-52.42 666.31,-35.46 793.96,-34.48"/>
<polygon fill="#64748b" stroke="#64748b" points="793.6,-36.93 800.59,-34.44 793.57,-32.03 793.6,-36.93"/>
</g>
<!-- n23&#45;&gt;n22 -->
<g id="edge39" class="edge">
<title>n23&#45;&gt;n22</title>
<path fill="none" stroke="#64748b" d="M851.28,-375.52C835.26,-366.09 815.35,-354.38 798.4,-344.41"/>
<polygon fill="#64748b" stroke="#64748b" points="799.92,-342.47 792.65,-341.03 797.44,-346.69 799.92,-342.47"/>
</g>
<!-- n24 -->
<g id="node25" class="node">
<title>n24</title>
<g id="a_node25"><a xlink:href="vscode://vscode-remote/wsl+Ubuntu/home/ai4stat/statlib/Statlib/HighDim/Concentration/HansonWright.lean:122" xlink:title="lemma · Statlib/HighDim/Concentration/HansonWright.lean:122" target="_blank">
<path fill="#eef2f6" stroke="#94a3b8" d="M721.21,-412C721.21,-412 610.79,-412 610.79,-412 604.79,-412 598.79,-406 598.79,-400 598.79,-400 598.79,-388 598.79,-388 598.79,-382 604.79,-376 610.79,-376 610.79,-376 721.21,-376 721.21,-376 727.21,-376 733.21,-382 733.21,-388 733.21,-388 733.21,-400 733.21,-400 733.21,-406 727.21,-412 721.21,-412"/>
<text xml:space="preserve" text-anchor="middle" x="666" y="-391" font-family="Helvetica,sans-Serif" font-size="10.00">subgaussian_abs_tail_real</text>
</a>
</g>
</g>
<!-- n25 -->
<g id="node26" class="node">
<title>n25</title>
<g id="a_node26"><a xlink:href="vscode://vscode-remote/wsl+Ubuntu/home/ai4stat/statlib/Statlib/HighDim/Concentration/HansonWright.lean:787" xlink:title="lemma · Statlib/HighDim/Concentration/HansonWright.lean:787" target="_blank">
<path fill="#eef2f6" stroke="#94a3b8" d="M804.58,-484C804.58,-484 527.42,-484 527.42,-484 521.42,-484 515.42,-478 515.42,-472 515.42,-472 515.42,-460 515.42,-460 515.42,-454 521.42,-448 527.42,-448 527.42,-448 804.58,-448 804.58,-448 810.58,-448 816.58,-454 816.58,-460 816.58,-460 816.58,-472 816.58,-472 816.58,-478 810.58,-484 804.58,-484"/>
<text xml:space="preserve" text-anchor="middle" x="666" y="-463" font-family="Helvetica,sans-Serif" font-size="10.00">decoupledOffDiagQuadForm_const_right_abs_tail_real_spectral</text>
</a>
</g>
</g>
<!-- n25&#45;&gt;n0 -->
<g id="edge40" class="edge">
<title>n25&#45;&gt;n0</title>
<path fill="none" stroke="#64748b" d="M540.74,-447.54C475.69,-437.18 407.71,-423.82 398,-412 383.47,-394.32 389.55,-367.66 397.38,-348.12"/>
<polygon fill="#64748b" stroke="#64748b" points="399.54,-349.28 400.06,-341.89 395.04,-347.35 399.54,-349.28"/>
</g>
<!-- n25&#45;&gt;n1 -->
<g id="edge41" class="edge">
<title>n25&#45;&gt;n1</title>
<path fill="none" stroke="#64748b" d="M515.1,-449.47C469.26,-441.43 427.22,-429.5 413,-412 402.91,-399.58 405.02,-389.87 413,-376 428.9,-348.39 459.1,-367.61 475,-340 482.98,-326.13 484.43,-316.93 475,-304 444.2,-261.75 400.51,-304.43 363,-268 343.24,-248.81 322.14,-172.68 312.05,-132.36"/>
<polygon fill="#64748b" stroke="#64748b" points="314.49,-132.01 310.43,-125.8 309.73,-133.19 314.49,-132.01"/>
</g>
<!-- n25&#45;&gt;n5 -->
<g id="edge42" class="edge">
<title>n25&#45;&gt;n5</title>
<path fill="none" stroke="#64748b" d="M816.82,-461.55C900.66,-456.1 993.33,-442.96 1020,-412 1030.44,-399.88 1023.93,-391.51 1020,-376 1013.29,-349.54 922.27,-179.33 903,-160 879.41,-136.34 854.06,-152.73 837,-124 825.59,-104.78 830.15,-79.09 836.33,-60.25"/>
<polygon fill="#64748b" stroke="#64748b" points="838.59,-61.22 838.63,-53.81 833.97,-59.57 838.59,-61.22"/>
</g>
<!-- n25&#45;&gt;n15 -->
<g id="edge43" class="edge">
<title>n25&#45;&gt;n15</title>
<path fill="none" stroke="#64748b" d="M797.13,-447.52C874.79,-437.16 973.13,-424.05 1052.11,-413.52"/>
<polygon fill="#64748b" stroke="#64748b" points="1052.07,-416 1058.68,-412.64 1051.42,-411.14 1052.07,-416"/>
</g>
<!-- n25&#45;&gt;n16 -->
<g id="edge44" class="edge">
<title>n25&#45;&gt;n16</title>
<path fill="none" stroke="#64748b" d="M624.79,-447.52C601.96,-437.83 573.46,-425.74 549.56,-415.6"/>
<polygon fill="#64748b" stroke="#64748b" points="550.77,-413.45 543.36,-412.97 548.85,-417.96 550.77,-413.45"/>
</g>
<!-- n25&#45;&gt;n23 -->
<g id="edge45" class="edge">
<title>n25&#45;&gt;n23</title>
<path fill="none" stroke="#64748b" d="M719.7,-447.52C750.08,-437.62 788.2,-425.22 819.74,-414.94"/>
<polygon fill="#64748b" stroke="#64748b" points="820.28,-417.35 826.17,-412.85 818.76,-412.69 820.28,-417.35"/>
</g>
<!-- n25&#45;&gt;n24 -->
<g id="edge46" class="edge">
<title>n25&#45;&gt;n24</title>
<path fill="none" stroke="#64748b" d="M666,-447.7C666,-439.47 666,-429.48 666,-420.42"/>
<polygon fill="#64748b" stroke="#64748b" points="668.45,-420.62 666,-413.62 663.55,-420.62 668.45,-420.62"/>
</g>
<!-- n26 -->
<g id="node27" class="node">
<title>n26</title>
<g id="a_node27"><a xlink:href="vscode://vscode-remote/wsl+Ubuntu/home/ai4stat/statlib/Statlib/HighDim/Concentration/HansonWright.lean:179" xlink:title="lemma · Statlib/HighDim/Concentration/HansonWright.lean:179" target="_blank">
<path fill="#eef2f6" stroke="#94a3b8" d="M464.74,-484C464.74,-484 229.26,-484 229.26,-484 223.26,-484 217.26,-478 217.26,-472 217.26,-472 217.26,-460 217.26,-460 217.26,-454 223.26,-448 229.26,-448 229.26,-448 464.74,-448 464.74,-448 470.74,-448 476.74,-454 476.74,-460 476.74,-460 476.74,-472 476.74,-472 476.74,-478 470.74,-484 464.74,-484"/>
<text xml:space="preserve" text-anchor="middle" x="347" y="-463" font-family="Helvetica,sans-Serif" font-size="10.00">decoupledOffDiagQuadForm_prod_mk_eq_const_right</text>
</a>
</g>
</g>
<!-- n26&#45;&gt;n1 -->
<g id="edge47" class="edge">
<title>n26&#45;&gt;n1</title>
<path fill="none" stroke="#64748b" d="M345.02,-447.73C338.37,-389.6 316.75,-200.83 308.89,-132.22"/>
<polygon fill="#64748b" stroke="#64748b" points="311.36,-132.27 308.13,-125.6 306.49,-132.83 311.36,-132.27"/>
</g>
<!-- n27 -->
<g id="node28" class="node">
<title>n27</title>
<g id="a_node28"><a xlink:href="vscode://vscode-remote/wsl+Ubuntu/home/ai4stat/statlib/Statlib/HighDim/Concentration/HansonWright.lean:880" xlink:title="lemma · Statlib/HighDim/Concentration/HansonWright.lean:880" target="_blank">
<path fill="#eef2f6" stroke="#94a3b8" d="M536.59,-556C536.59,-556 229.41,-556 229.41,-556 223.41,-556 217.41,-550 217.41,-544 217.41,-544 217.41,-532 217.41,-532 217.41,-526 223.41,-520 229.41,-520 229.41,-520 536.59,-520 536.59,-520 542.59,-520 548.59,-526 548.59,-532 548.59,-532 548.59,-544 548.59,-544 548.59,-550 542.59,-556 536.59,-556"/>
<text xml:space="preserve" text-anchor="middle" x="383" y="-535" font-family="Helvetica,sans-Serif" font-size="10.00">decoupledOffDiagQuadForm_prod_first_section_abs_tail_real_spectral</text>
</a>
</g>
</g>
<!-- n27&#45;&gt;n0 -->
<g id="edge48" class="edge">
<title>n27&#45;&gt;n0</title>
<path fill="none" stroke="#64748b" d="M442.71,-519.58C459.65,-511.57 476.15,-500.14 486,-484 494.33,-470.34 495.22,-461.08 486,-448 458.54,-409.05 412.46,-450.95 385,-412 371.45,-392.78 381.6,-366.4 392.76,-347.35"/>
<polygon fill="#64748b" stroke="#64748b" points="394.8,-348.72 396.41,-341.48 390.64,-346.13 394.8,-348.72"/>
</g>
<!-- n27&#45;&gt;n1 -->
<g id="edge49" class="edge">
<title>n27&#45;&gt;n1</title>
<path fill="none" stroke="#64748b" d="M255.34,-519.63C236.83,-511.61 220.01,-500.19 208,-484 166.41,-427.95 277.32,-411.79 305,-340 308.67,-330.49 307.18,-191.39 306.38,-132.76"/>
<polygon fill="#64748b" stroke="#64748b" points="308.83,-132.88 306.28,-125.91 303.93,-132.94 308.83,-132.88"/>
</g>
<!-- n27&#45;&gt;n25 -->
<g id="edge50" class="edge">
<title>n27&#45;&gt;n25</title>
<path fill="none" stroke="#64748b" d="M453.68,-519.52C494.36,-509.46 545.55,-496.79 587.47,-486.42"/>
<polygon fill="#64748b" stroke="#64748b" points="588.05,-488.8 594.26,-484.75 586.88,-484.05 588.05,-488.8"/>
</g>
<!-- n27&#45;&gt;n26 -->
<g id="edge51" class="edge">
<title>n27&#45;&gt;n26</title>
<path fill="none" stroke="#64748b" d="M374.1,-519.7C369.74,-511.22 364.42,-500.86 359.64,-491.58"/>
<polygon fill="#64748b" stroke="#64748b" points="361.87,-490.55 356.49,-485.45 357.51,-492.8 361.87,-490.55"/>
</g>
<!-- n28 -->
<g id="node29" class="node">
<title>n28</title>
<g id="a_node29"><a xlink:href="vscode://vscode-remote/wsl+Ubuntu/home/ai4stat/statlib/Statlib/HighDim/Concentration/HansonWright.lean:114" xlink:title="lemma · Statlib/HighDim/Concentration/HansonWright.lean:114" target="_blank">
<path fill="#eef2f6" stroke="#94a3b8" d="M749.5,-556C749.5,-556 578.5,-556 578.5,-556 572.5,-556 566.5,-550 566.5,-544 566.5,-544 566.5,-532 566.5,-532 566.5,-526 572.5,-520 578.5,-520 578.5,-520 749.5,-520 749.5,-520 755.5,-520 761.5,-526 761.5,-532 761.5,-532 761.5,-544 761.5,-544 761.5,-550 755.5,-556 749.5,-556"/>
<text xml:space="preserve" text-anchor="middle" x="664" y="-535" font-family="Helvetica,sans-Serif" font-size="10.00">measure_le_ofReal_of_measureReal_le</text>
</a>
</g>
</g>
<!-- n29 -->
<g id="node30" class="node">
<title>n29</title>
<g id="a_node30"><a xlink:href="vscode://vscode-remote/wsl+Ubuntu/home/ai4stat/statlib/Statlib/HighDim/Concentration/HansonWright.lean:936" xlink:title="lemma · Statlib/HighDim/Concentration/HansonWright.lean:936" target="_blank">
<path fill="#eef2f6" stroke="#94a3b8" stroke-width="3" d="M327.13,-628C327.13,-628 68.87,-628 68.87,-628 62.87,-628 56.87,-622 56.87,-616 56.87,-616 56.87,-604 56.87,-604 56.87,-598 62.87,-592 68.87,-592 68.87,-592 327.13,-592 327.13,-592 333.13,-592 339.13,-598 339.13,-604 339.13,-604 339.13,-616 339.13,-616 339.13,-622 333.13,-628 327.13,-628"/>
<text xml:space="preserve" text-anchor="middle" x="198" y="-607" font-family="Helvetica,sans-Serif" font-size="10.00">decoupledOffDiagQuadForm_prod_tail_le_lintegral_spectral</text>
</a>
</g>
</g>
<!-- n29&#45;&gt;n0 -->
<g id="edge52" class="edge">
<title>n29&#45;&gt;n0</title>
<path fill="none" stroke="#64748b" d="M194.02,-590.52C188.24,-558.83 180.96,-493.18 208,-448 239.1,-396.04 300.97,-362.57 348.09,-343.46"/>
<polygon fill="#64748b" stroke="#64748b" points="348.8,-345.82 354.41,-340.96 347,-341.26 348.8,-345.82"/>
</g>
<!-- n29&#45;&gt;n1 -->
<g id="edge53" class="edge">
<title>n29&#45;&gt;n1</title>
<path fill="none" stroke="#64748b" d="M139.73,-590.64C86.82,-569.9 17,-530.5 17,-467 17,-467 17,-467 17,-249 17,-208.03 11.09,-188 41,-160 67.33,-135.35 157.62,-121.19 225.55,-113.81"/>
<polygon fill="#64748b" stroke="#64748b" points="225.51,-116.28 232.21,-113.11 224.99,-111.41 225.51,-116.28"/>
</g>
<!-- n29&#45;&gt;n4 -->
<g id="edge54" class="edge">
<title>n29&#45;&gt;n4</title>
<path fill="none" stroke="#64748b" d="M193.37,-590.51C187.51,-566.24 177.63,-522.23 173,-484 167.25,-436.52 166.06,-380.67 165.9,-348.79"/>
<polygon fill="#64748b" stroke="#64748b" points="168.35,-348.97 165.89,-341.98 163.45,-348.98 168.35,-348.97"/>
</g>
<!-- n29&#45;&gt;n27 -->
<g id="edge55" class="edge">
<title>n29&#45;&gt;n27</title>
<path fill="none" stroke="#64748b" d="M246.61,-590.61C271.93,-581.03 302.96,-569.28 329.03,-559.42"/>
<polygon fill="#64748b" stroke="#64748b" points="329.85,-561.73 335.53,-556.96 328.12,-557.15 329.85,-561.73"/>
</g>
<!-- n29&#45;&gt;n28 -->
<g id="edge56" class="edge">
<title>n29&#45;&gt;n28</title>
<path fill="none" stroke="#64748b" d="M326.35,-590.51C392.95,-580.82 475.83,-568.6 558.15,-555.97"/>
<polygon fill="#64748b" stroke="#64748b" points="558.07,-558.46 564.62,-554.98 557.33,-553.62 558.07,-558.46"/>
</g>
</g>
</svg>
