<?xml version="1.0" encoding="UTF-8" standalone="no"?>
<!DOCTYPE svg PUBLIC "-//W3C//DTD SVG 1.1//EN"
 "http://www.w3.org/Graphics/SVG/1.1/DTD/svg11.dtd">
<!-- Generated by graphviz version 15.0.0 (20260523.1842)
 -->
<!-- Title: decoupled_zeroDiag_quadratic_form_tail_high_norm_bernstein_absorb_of_exponents_ Pages: 1 -->
<svg width="3236pt" height="1059pt"
 viewBox="0.00 0.00 3236.00 1059.00" xmlns="http://www.w3.org/2000/svg" xmlns:xlink="http://www.w3.org/1999/xlink">
<g id="graph0" class="graph" transform="scale(1 1) rotate(0) translate(4 1055.2)">
<title>decoupled_zeroDiag_quadratic_form_tail_high_norm_bernstein_absorb_of_exponents_</title>
<polygon fill="white" stroke="none" points="-4,4 -4,-1055.2 3232,-1055.2 3232,4 -4,4"/>
<text xml:space="preserve" text-anchor="middle" x="1614" y="-1034.6" font-family="Helvetica,sans-Serif" font-size="14.00">Proof narrative — decoupled_zeroDiag_quadratic_form_tail_high_norm_bernstein_absorb_of_exponents&#39; &#160;(59 decls)</text>
<g id="clust1" class="cluster">
<title>cluster_0</title>
<path fill="none" stroke="#cbd5e1" stroke-dasharray="5,2" d="M20,-8C20,-8 2374,-8 2374,-8 2380,-8 2386,-14 2386,-20 2386,-20 2386,-1006.4 2386,-1006.4 2386,-1012.4 2380,-1018.4 2374,-1018.4 2374,-1018.4 20,-1018.4 20,-1018.4 14,-1018.4 8,-1012.4 8,-1006.4 8,-1006.4 8,-20 8,-20 8,-14 14,-8 20,-8"/>
<text xml:space="preserve" text-anchor="middle" x="1197" y="-1004.5" font-family="Helvetica,sans-Serif" font-size="11.00">HighDim</text>
</g>
<g id="clust2" class="cluster">
<title>cluster_1</title>
<path fill="none" stroke="#cbd5e1" stroke-dasharray="5,2" d="M2406,-8C2406,-8 3208,-8 3208,-8 3214,-8 3220,-14 3220,-20 3220,-20 3220,-213.2 3220,-213.2 3220,-219.2 3214,-225.2 3208,-225.2 3208,-225.2 2406,-225.2 2406,-225.2 2400,-225.2 2394,-219.2 2394,-213.2 2394,-213.2 2394,-20 2394,-20 2394,-14 2400,-8 2406,-8"/>
<text xml:space="preserve" text-anchor="middle" x="2807" y="-211.3" font-family="Helvetica,sans-Serif" font-size="11.00">StatFoundation</text>
</g>
<!-- n0 -->
<g id="node1" class="node">
<title>n0</title>
<g id="a_node1"><a xlink:href="vscode://vscode-remote/wsl+Ubuntu/home/ai4stat/statlib/Statlib/HighDim/Vocabulary/RandomVector.lean:52" xlink:title="structure · Statlib/HighDim/Vocabulary/RandomVector.lean:52" target="_blank">
<path fill="#e8dcff" stroke="#8b5cf6" d="M1790.36,-196C1790.36,-196 1701.64,-196 1701.64,-196 1695.64,-196 1689.64,-190 1689.64,-184 1689.64,-184 1689.64,-172 1689.64,-172 1689.64,-166 1695.64,-160 1701.64,-160 1701.64,-160 1790.36,-160 1790.36,-160 1796.36,-160 1802.36,-166 1802.36,-172 1802.36,-172 1802.36,-184 1802.36,-184 1802.36,-190 1796.36,-196 1790.36,-196"/>
<text xml:space="preserve" text-anchor="middle" x="1746" y="-175" font-family="Helvetica,sans-Serif" font-size="10.00">IsSubGaussianVector</text>
</a>
</g>
</g>
<!-- n1 -->
<g id="node2" class="node">
<title>n1</title>
<g id="a_node2"><a xlink:href="vscode://vscode-remote/wsl+Ubuntu/home/ai4stat/statlib/Statlib/HighDim/Vocabulary/Norms.lean:37" xlink:title="noncomputable def · Statlib/HighDim/Vocabulary/Norms.lean:37" target="_blank">
<path fill="#d6e9ff" stroke="#3b82f6" d="M1603.91,-701.2C1603.91,-701.2 1534.09,-701.2 1534.09,-701.2 1528.09,-701.2 1522.09,-695.2 1522.09,-689.2 1522.09,-689.2 1522.09,-677.2 1522.09,-677.2 1522.09,-671.2 1528.09,-665.2 1534.09,-665.2 1534.09,-665.2 1603.91,-665.2 1603.91,-665.2 1609.91,-665.2 1615.91,-671.2 1615.91,-677.2 1615.91,-677.2 1615.91,-689.2 1615.91,-689.2 1615.91,-695.2 1609.91,-701.2 1603.91,-701.2"/>
<text xml:space="preserve" text-anchor="middle" x="1569" y="-680.2" font-family="Helvetica,sans-Serif" font-size="10.00">frobeniusNormSq</text>
</a>
</g>
</g>
<!-- n2 -->
<g id="node3" class="node">
<title>n2</title>
<g id="a_node3"><a xlink:href="vscode://vscode-remote/wsl+Ubuntu/home/ai4stat/statlib/Statlib/HighDim/Vocabulary/QuadraticForms.lean:33" xlink:title="noncomputable def · Statlib/HighDim/Vocabulary/QuadraticForms.lean:33" target="_blank">
<path fill="#d6e9ff" stroke="#3b82f6" d="M1126.92,-52C1126.92,-52 1007.08,-52 1007.08,-52 1001.08,-52 995.08,-46 995.08,-40 995.08,-40 995.08,-28 995.08,-28 995.08,-22 1001.08,-16 1007.08,-16 1007.08,-16 1126.92,-16 1126.92,-16 1132.92,-16 1138.92,-22 1138.92,-28 1138.92,-28 1138.92,-40 1138.92,-40 1138.92,-46 1132.92,-52 1126.92,-52"/>
<text xml:space="preserve" text-anchor="middle" x="1067" y="-31" font-family="Helvetica,sans-Serif" font-size="10.00">decoupledOffDiagQuadForm</text>
</a>
</g>
</g>
<!-- n3 -->
<g id="node4" class="node">
<title>n3</title>
<g id="a_node4"><a xlink:href="vscode://vscode-remote/wsl+Ubuntu/home/ai4stat/statlib/Statlib/HighDim/Vocabulary/Norms.lean:13" xlink:title="noncomputable def · Statlib/HighDim/Vocabulary/Norms.lean:13" target="_blank">
<path fill="#d6e9ff" stroke="#3b82f6" d="M1878.23,-196C1878.23,-196 1841.77,-196 1841.77,-196 1835.77,-196 1829.77,-190 1829.77,-184 1829.77,-184 1829.77,-172 1829.77,-172 1829.77,-166 1835.77,-160 1841.77,-160 1841.77,-160 1878.23,-160 1878.23,-160 1884.23,-160 1890.23,-166 1890.23,-172 1890.23,-172 1890.23,-184 1890.23,-184 1890.23,-190 1884.23,-196 1878.23,-196"/>
<text xml:space="preserve" text-anchor="middle" x="1860" y="-175" font-family="Helvetica,sans-Serif" font-size="10.00">l2NormSq</text>
</a>
</g>
</g>
<!-- n4 -->
<g id="node5" class="node">
<title>n4</title>
<g id="a_node5"><a xlink:href="vscode://vscode-remote/wsl+Ubuntu/home/ai4stat/statlib/Statlib/HighDim/Vocabulary/Norms.lean:21" xlink:title="lemma · Statlib/HighDim/Vocabulary/Norms.lean:21" target="_blank">
<path fill="#eef2f6" stroke="#94a3b8" d="M1899.64,-269.2C1899.64,-269.2 1820.36,-269.2 1820.36,-269.2 1814.36,-269.2 1808.36,-263.2 1808.36,-257.2 1808.36,-257.2 1808.36,-245.2 1808.36,-245.2 1808.36,-239.2 1814.36,-233.2 1820.36,-233.2 1820.36,-233.2 1899.64,-233.2 1899.64,-233.2 1905.64,-233.2 1911.64,-239.2 1911.64,-245.2 1911.64,-245.2 1911.64,-257.2 1911.64,-257.2 1911.64,-263.2 1905.64,-269.2 1899.64,-269.2"/>
<text xml:space="preserve" text-anchor="middle" x="1860" y="-248.2" font-family="Helvetica,sans-Serif" font-size="10.00">euclidean_norm_sq</text>
</a>
</g>
</g>
<!-- n4&#45;&gt;n3 -->
<g id="edge1" class="edge">
<title>n4&#45;&gt;n3</title>
<path fill="none" stroke="#64748b" d="M1860,-232.96C1860,-224.39 1860,-213.87 1860,-204.39"/>
<polygon fill="#64748b" stroke="#64748b" points="1862.45,-204.59 1860,-197.59 1857.55,-204.59 1862.45,-204.59"/>
</g>
<!-- n5 -->
<g id="node6" class="node">
<title>n5</title>
<g id="a_node6"><a xlink:href="vscode://vscode-remote/wsl+Ubuntu/home/ai4stat/statlib/Statlib/HighDim/Vocabulary/Norms.lean:32" xlink:title="lemma · Statlib/HighDim/Vocabulary/Norms.lean:32" target="_blank">
<path fill="#eef2f6" stroke="#94a3b8" d="M2250.69,-124C2250.69,-124 2195.31,-124 2195.31,-124 2189.31,-124 2183.31,-118 2183.31,-112 2183.31,-112 2183.31,-100 2183.31,-100 2183.31,-94 2189.31,-88 2195.31,-88 2195.31,-88 2250.69,-88 2250.69,-88 2256.69,-88 2262.69,-94 2262.69,-100 2262.69,-100 2262.69,-112 2262.69,-112 2262.69,-118 2256.69,-124 2250.69,-124"/>
<text xml:space="preserve" text-anchor="middle" x="2223" y="-103" font-family="Helvetica,sans-Serif" font-size="10.00">inner_eq_sum</text>
</a>
</g>
</g>
<!-- n6 -->
<g id="node7" class="node">
<title>n6</title>
<g id="a_node7"><a xlink:href="vscode://vscode-remote/wsl+Ubuntu/home/ai4stat/statlib/Statlib/HighDim/Concentration/HansonWright.lean:1389" xlink:title="lemma · Statlib/HighDim/Concentration/HansonWright.lean:1389" target="_blank">
<path fill="#eef2f6" stroke="#94a3b8" d="M2365.76,-269.2C2365.76,-269.2 2254.24,-269.2 2254.24,-269.2 2248.24,-269.2 2242.24,-263.2 2242.24,-257.2 2242.24,-257.2 2242.24,-245.2 2242.24,-245.2 2242.24,-239.2 2248.24,-233.2 2254.24,-233.2 2254.24,-233.2 2365.76,-233.2 2365.76,-233.2 2371.76,-233.2 2377.76,-239.2 2377.76,-245.2 2377.76,-245.2 2377.76,-257.2 2377.76,-257.2 2377.76,-263.2 2371.76,-269.2 2365.76,-269.2"/>
<text xml:space="preserve" text-anchor="middle" x="2310" y="-248.2" font-family="Helvetica,sans-Serif" font-size="10.00">subgaussian_vector_coord</text>
</a>
</g>
</g>
<!-- n6&#45;&gt;n0 -->
<g id="edge2" class="edge">
<title>n6&#45;&gt;n0</title>
<path fill="none" stroke="#64748b" d="M2241.87,-237.45C2230.59,-235.74 2218.99,-234.22 2208,-233.2 2165.18,-229.21 1862.26,-237.35 1821,-225.2 1804.14,-220.23 1787.29,-210.41 1773.85,-201.1"/>
<polygon fill="#64748b" stroke="#64748b" points="1775.5,-199.26 1768.38,-197.18 1772.65,-203.25 1775.5,-199.26"/>
</g>
<!-- n6&#45;&gt;n5 -->
<g id="edge3" class="edge">
<title>n6&#45;&gt;n5</title>
<path fill="none" stroke="#64748b" d="M2299.51,-232.93C2284.09,-207.55 2255.26,-160.1 2237.73,-131.24"/>
<polygon fill="#64748b" stroke="#64748b" points="2240.05,-130.34 2234.32,-125.63 2235.86,-132.88 2240.05,-130.34"/>
</g>
<!-- n8 -->
<g id="node8" class="node">
<title>n8</title>
<g id="a_node8"><a xlink:href="vscode://vscode-remote/wsl+Ubuntu/home/ai4stat/statlib/Statlib/HighDim/Concentration/HansonWright.lean:519" xlink:title="lemma · Statlib/HighDim/Concentration/HansonWright.lean:519" target="_blank">
<path fill="#eef2f6" stroke="#94a3b8" d="M2171.96,-269.2C2171.96,-269.2 1982.04,-269.2 1982.04,-269.2 1976.04,-269.2 1970.04,-263.2 1970.04,-257.2 1970.04,-257.2 1970.04,-245.2 1970.04,-245.2 1970.04,-239.2 1976.04,-233.2 1982.04,-233.2 1982.04,-233.2 2171.96,-233.2 2171.96,-233.2 2177.96,-233.2 2183.96,-239.2 2183.96,-245.2 2183.96,-245.2 2183.96,-257.2 2183.96,-257.2 2183.96,-263.2 2177.96,-269.2 2171.96,-269.2"/>
<text xml:space="preserve" text-anchor="middle" x="2077" y="-248.2" font-family="Helvetica,sans-Serif" font-size="10.00">subgaussian_projection_second_moment_le</text>
</a>
</g>
</g>
<!-- n8&#45;&gt;n0 -->
<g id="edge4" class="edge">
<title>n8&#45;&gt;n0</title>
<path fill="none" stroke="#64748b" d="M1969.67,-236.69C1958.31,-235.43 1946.92,-234.24 1936,-233.2 1910.5,-230.78 1845.39,-233.03 1821,-225.2 1804.51,-219.9 1787.93,-210.25 1774.57,-201.13"/>
<polygon fill="#64748b" stroke="#64748b" points="1776.27,-199.33 1769.13,-197.31 1773.45,-203.34 1776.27,-199.33"/>
</g>
<!-- n7 -->
<g id="node51" class="node">
<title>n7</title>
<g id="a_node51"><a xlink:href="vscode://vscode-remote/wsl+Ubuntu/home/ai4stat/statlib/Statlib/StatFoundation/RandomVariable/SubGaussian/subgaussian_variance_le.lean:8" xlink:title="theorem · Statlib/StatFoundation/RandomVariable/SubGaussian/subgaussian_variance_le.lean:8" target="_blank">
<path fill="#ffe6a3" stroke="#d4a017" d="M2518.43,-196C2518.43,-196 2413.57,-196 2413.57,-196 2407.57,-196 2401.57,-190 2401.57,-184 2401.57,-184 2401.57,-172 2401.57,-172 2401.57,-166 2407.57,-160 2413.57,-160 2413.57,-160 2518.43,-160 2518.43,-160 2524.43,-160 2530.43,-166 2530.43,-172 2530.43,-172 2530.43,-184 2530.43,-184 2530.43,-190 2524.43,-196 2518.43,-196"/>
<text xml:space="preserve" text-anchor="middle" x="2466" y="-175" font-family="Helvetica,sans-Serif" font-size="10.00">subgaussian_variance_le</text>
</a>
</g>
</g>
<!-- n8&#45;&gt;n7 -->
<g id="edge5" class="edge">
<title>n8&#45;&gt;n7</title>
<path fill="none" stroke="#64748b" d="M2184.34,-237.68C2200.63,-236.02 2217.25,-234.46 2233,-233.2 2267.82,-230.42 2356.61,-235.48 2390,-225.2 2406.84,-220.02 2423.77,-210.28 2437.36,-201.07"/>
<polygon fill="#64748b" stroke="#64748b" points="2438.57,-203.21 2442.9,-197.2 2435.76,-199.2 2438.57,-203.21"/>
</g>
<!-- n9 -->
<g id="node9" class="node">
<title>n9</title>
<g id="a_node9"><a xlink:href="vscode://vscode-remote/wsl+Ubuntu/home/ai4stat/statlib/Statlib/HighDim/Concentration/HansonWright.lean:2396" xlink:title="lemma · Statlib/HighDim/Concentration/HansonWright.lean:2396" target="_blank">
<path fill="#eef2f6" stroke="#94a3b8" d="M1889.11,-341.2C1889.11,-341.2 1730.89,-341.2 1730.89,-341.2 1724.89,-341.2 1718.89,-335.2 1718.89,-329.2 1718.89,-329.2 1718.89,-317.2 1718.89,-317.2 1718.89,-311.2 1724.89,-305.2 1730.89,-305.2 1730.89,-305.2 1889.11,-305.2 1889.11,-305.2 1895.11,-305.2 1901.11,-311.2 1901.11,-317.2 1901.11,-317.2 1901.11,-329.2 1901.11,-329.2 1901.11,-335.2 1895.11,-341.2 1889.11,-341.2"/>
<text xml:space="preserve" text-anchor="middle" x="1810" y="-320.2" font-family="Helvetica,sans-Serif" font-size="10.00">subgaussian_norm_sq_mean_le_dim</text>
</a>
</g>
</g>
<!-- n9&#45;&gt;n0 -->
<g id="edge6" class="edge">
<title>n9&#45;&gt;n0</title>
<path fill="none" stroke="#64748b" d="M1802.28,-304.93C1791.04,-279.77 1770.09,-232.9 1757.17,-203.98"/>
<polygon fill="#64748b" stroke="#64748b" points="1759.46,-203.11 1754.36,-197.72 1754.98,-205.11 1759.46,-203.11"/>
</g>
<!-- n9&#45;&gt;n3 -->
<g id="edge8" class="edge">
<title>n9&#45;&gt;n3</title>
<path fill="none" stroke="#64748b" d="M1876.56,-304.75C1893.98,-296.83 1910.75,-285.46 1921,-269.2 1929.54,-255.67 1927.56,-247.8 1921,-233.2 1915.42,-220.79 1905.44,-210.06 1895.15,-201.5"/>
<polygon fill="#64748b" stroke="#64748b" points="1896.94,-199.79 1889.92,-197.39 1893.91,-203.64 1896.94,-199.79"/>
</g>
<!-- n9&#45;&gt;n4 -->
<g id="edge7" class="edge">
<title>n9&#45;&gt;n4</title>
<path fill="none" stroke="#64748b" d="M1822.36,-304.9C1828.54,-296.25 1836.11,-285.65 1842.84,-276.23"/>
<polygon fill="#64748b" stroke="#64748b" points="1844.83,-277.66 1846.9,-270.54 1840.84,-274.81 1844.83,-277.66"/>
</g>
<!-- n9&#45;&gt;n5 -->
<g id="edge10" class="edge">
<title>n9&#45;&gt;n5</title>
<path fill="none" stroke="#64748b" d="M1901.53,-306.48C1904.38,-306.04 1907.21,-305.61 1910,-305.2 1972.71,-295.89 2146.93,-312.75 2193,-269.2 2230.28,-233.96 2230.08,-168.62 2226.59,-132.55"/>
<polygon fill="#64748b" stroke="#64748b" points="2229.07,-132.67 2225.87,-125.98 2224.2,-133.21 2229.07,-132.67"/>
</g>
<!-- n9&#45;&gt;n6 -->
<g id="edge9" class="edge">
<title>n9&#45;&gt;n6</title>
<path fill="none" stroke="#64748b" d="M1901.52,-306.43C1904.38,-306.01 1907.21,-305.59 1910,-305.2 2050.83,-285.27 2087.55,-291.66 2228,-269.2 2230.01,-268.88 2232.05,-268.54 2234.1,-268.19"/>
<polygon fill="#64748b" stroke="#64748b" points="2234.12,-270.68 2240.58,-267.05 2233.27,-265.85 2234.12,-270.68"/>
</g>
<!-- n9&#45;&gt;n8 -->
<g id="edge11" class="edge">
<title>n9&#45;&gt;n8</title>
<path fill="none" stroke="#64748b" d="M1876.69,-304.72C1915.06,-294.66 1963.36,-281.99 2002.91,-271.62"/>
<polygon fill="#64748b" stroke="#64748b" points="2003.09,-274.11 2009.24,-269.97 2001.84,-269.37 2003.09,-274.11"/>
</g>
<!-- n13 -->
<g id="node10" class="node">
<title>n13</title>
<g id="a_node10"><a xlink:href="vscode://vscode-remote/wsl+Ubuntu/home/ai4stat/statlib/Statlib/HighDim/Concentration/HansonWright.lean:2101" xlink:title="lemma · Statlib/HighDim/Concentration/HansonWright.lean:2101" target="_blank">
<path fill="#eef2f6" stroke="#94a3b8" d="M2325.62,-341.2C2325.62,-341.2 2142.38,-341.2 2142.38,-341.2 2136.38,-341.2 2130.38,-335.2 2130.38,-329.2 2130.38,-329.2 2130.38,-317.2 2130.38,-317.2 2130.38,-311.2 2136.38,-305.2 2142.38,-305.2 2142.38,-305.2 2325.62,-305.2 2325.62,-305.2 2331.62,-305.2 2337.62,-311.2 2337.62,-317.2 2337.62,-317.2 2337.62,-329.2 2337.62,-329.2 2337.62,-335.2 2331.62,-341.2 2325.62,-341.2"/>
<text xml:space="preserve" text-anchor="middle" x="2234" y="-320.2" font-family="Helvetica,sans-Serif" font-size="10.00">coord_sq_centered_scaled_exp_integrable</text>
</a>
</g>
</g>
<!-- n13&#45;&gt;n0 -->
<g id="edge13" class="edge">
<title>n13&#45;&gt;n0</title>
<path fill="none" stroke="#64748b" d="M2231.56,-304.92C2227.57,-283.9 2217.47,-249.24 2193,-233.2 2175.71,-221.87 1840.83,-231.05 1821,-225.2 1804.14,-220.23 1787.29,-210.4 1773.86,-201.09"/>
<polygon fill="#64748b" stroke="#64748b" points="1775.5,-199.26 1768.39,-197.17 1772.65,-203.24 1775.5,-199.26"/>
</g>
<!-- n13&#45;&gt;n6 -->
<g id="edge14" class="edge">
<title>n13&#45;&gt;n6</title>
<path fill="none" stroke="#64748b" d="M2252.79,-304.9C2262.56,-295.89 2274.64,-284.77 2285.17,-275.07"/>
<polygon fill="#64748b" stroke="#64748b" points="2286.56,-277.12 2290.05,-270.57 2283.24,-273.51 2286.56,-277.12"/>
</g>
<!-- n12 -->
<g id="node54" class="node">
<title>n12</title>
<g id="a_node54"><a xlink:href="vscode://vscode-remote/wsl+Ubuntu/home/ai4stat/statlib/Statlib/StatFoundation/RandomVariable/SubGaussian/subgaussian_exp_sq_le_at_one_third.lean:165" xlink:title="theorem · Statlib/StatFoundation/RandomVariable/SubGaussian/subgaussian_exp_sq_le_at_one_third.lean:165" target="_blank">
<path fill="#ffe6a3" stroke="#d4a017" d="M3057.3,-124C3057.3,-124 2860.7,-124 2860.7,-124 2854.7,-124 2848.7,-118 2848.7,-112 2848.7,-112 2848.7,-100 2848.7,-100 2848.7,-94 2854.7,-88 2860.7,-88 2860.7,-88 3057.3,-88 3057.3,-88 3063.3,-88 3069.3,-94 3069.3,-100 3069.3,-100 3069.3,-112 3069.3,-112 3069.3,-118 3063.3,-124 3057.3,-124"/>
<text xml:space="preserve" text-anchor="middle" x="2959" y="-103" font-family="Helvetica,sans-Serif" font-size="10.00">subgaussian_integrable_exp_sq_at_one_third</text>
</a>
</g>
</g>
<!-- n13&#45;&gt;n12 -->
<g id="edge15" class="edge">
<title>n13&#45;&gt;n12</title>
<path fill="none" stroke="#64748b" d="M2338.12,-316.42C2535.97,-304.37 2950.4,-273.59 2993,-225.2 3016.21,-198.83 2995.54,-157.53 2977.81,-131.39"/>
<polygon fill="#64748b" stroke="#64748b" points="2979.83,-129.99 2973.8,-125.68 2975.82,-132.81 2979.83,-129.99"/>
</g>
<!-- n18 -->
<g id="node11" class="node">
<title>n18</title>
<g id="a_node11"><a xlink:href="vscode://vscode-remote/wsl+Ubuntu/home/ai4stat/statlib/Statlib/HighDim/Concentration/HansonWright.lean:2038" xlink:title="lemma · Statlib/HighDim/Concentration/HansonWright.lean:2038" target="_blank">
<path fill="#eef2f6" stroke="#94a3b8" d="M2100.67,-341.2C2100.67,-341.2 1931.33,-341.2 1931.33,-341.2 1925.33,-341.2 1919.33,-335.2 1919.33,-329.2 1919.33,-329.2 1919.33,-317.2 1919.33,-317.2 1919.33,-311.2 1925.33,-305.2 1931.33,-305.2 1931.33,-305.2 2100.67,-305.2 2100.67,-305.2 2106.67,-305.2 2112.67,-311.2 2112.67,-317.2 2112.67,-317.2 2112.67,-329.2 2112.67,-329.2 2112.67,-335.2 2106.67,-341.2 2100.67,-341.2"/>
<text xml:space="preserve" text-anchor="middle" x="2016" y="-320.2" font-family="Helvetica,sans-Serif" font-size="10.00">coord_sq_centered_mgf_bound_explicit</text>
</a>
</g>
</g>
<!-- n18&#45;&gt;n0 -->
<g id="edge21" class="edge">
<title>n18&#45;&gt;n0</title>
<path fill="none" stroke="#64748b" d="M1997.95,-304.71C1971.73,-279.39 1925.7,-235.28 1921,-233.2 1880.22,-215.17 1863.38,-239.05 1821,-225.2 1804.54,-219.82 1787.96,-210.16 1774.59,-201.05"/>
<polygon fill="#64748b" stroke="#64748b" points="1776.29,-199.25 1769.15,-197.24 1773.48,-203.26 1776.29,-199.25"/>
</g>
<!-- n18&#45;&gt;n6 -->
<g id="edge22" class="edge">
<title>n18&#45;&gt;n6</title>
<path fill="none" stroke="#64748b" d="M2089.43,-304.72C2133.46,-294.23 2189.36,-280.92 2233.86,-270.33"/>
<polygon fill="#64748b" stroke="#64748b" points="2234.32,-272.74 2240.56,-268.73 2233.19,-267.97 2234.32,-272.74"/>
</g>
<!-- n17 -->
<g id="node58" class="node">
<title>n17</title>
<g id="a_node58"><a xlink:href="vscode://vscode-remote/wsl+Ubuntu/home/ai4stat/statlib/Statlib/StatFoundation/RandomVariable/SubExponential/subexp_mgf_le_of_sq_subgaussian.lean:72" xlink:title="theorem · Statlib/StatFoundation/RandomVariable/SubExponential/subexp_mgf_le_of_sq_subgaussian.lean:72" target="_blank">
<path fill="#ffe6a3" stroke="#d4a017" d="M2747.84,-196C2747.84,-196 2560.16,-196 2560.16,-196 2554.16,-196 2548.16,-190 2548.16,-184 2548.16,-184 2548.16,-172 2548.16,-172 2548.16,-166 2554.16,-160 2560.16,-160 2560.16,-160 2747.84,-160 2747.84,-160 2753.84,-160 2759.84,-166 2759.84,-172 2759.84,-172 2759.84,-184 2759.84,-184 2759.84,-190 2753.84,-196 2747.84,-196"/>
<text xml:space="preserve" text-anchor="middle" x="2654" y="-175" font-family="Helvetica,sans-Serif" font-size="10.00">subexp_mgf_le_of_sq_subgaussian_explicit</text>
</a>
</g>
</g>
<!-- n18&#45;&gt;n17 -->
<g id="edge23" class="edge">
<title>n18&#45;&gt;n17</title>
<path fill="none" stroke="#64748b" d="M2112.96,-306.41C2115.67,-306 2118.35,-305.59 2121,-305.2 2239,-287.67 2270.27,-293.85 2387,-269.2 2455.81,-254.67 2472.51,-248.12 2539,-225.2 2561.19,-217.55 2585.34,-208.04 2605.76,-199.63"/>
<polygon fill="#64748b" stroke="#64748b" points="2606.46,-201.99 2611.99,-197.05 2604.59,-197.46 2606.46,-201.99"/>
</g>
<!-- n19 -->
<g id="node12" class="node">
<title>n19</title>
<g id="a_node12"><a xlink:href="vscode://vscode-remote/wsl+Ubuntu/home/ai4stat/statlib/Statlib/HighDim/Concentration/HansonWright.lean:2182" xlink:title="lemma · Statlib/HighDim/Concentration/HansonWright.lean:2182" target="_blank">
<path fill="#eef2f6" stroke="#94a3b8" d="M2326.04,-413.2C2326.04,-413.2 2059.96,-413.2 2059.96,-413.2 2053.96,-413.2 2047.96,-407.2 2047.96,-401.2 2047.96,-401.2 2047.96,-389.2 2047.96,-389.2 2047.96,-383.2 2053.96,-377.2 2059.96,-377.2 2059.96,-377.2 2326.04,-377.2 2326.04,-377.2 2332.04,-377.2 2338.04,-383.2 2338.04,-389.2 2338.04,-389.2 2338.04,-401.2 2338.04,-401.2 2338.04,-407.2 2332.04,-413.2 2326.04,-413.2"/>
<text xml:space="preserve" text-anchor="middle" x="2193" y="-392.2" font-family="Helvetica,sans-Serif" font-size="10.00">coord_sq_centered_scaled_subexponential_explicit_of_range</text>
</a>
</g>
</g>
<!-- n19&#45;&gt;n0 -->
<g id="edge24" class="edge">
<title>n19&#45;&gt;n0</title>
<path fill="none" stroke="#64748b" d="M2047.47,-387.91C1913.57,-380.59 1732.4,-366.19 1710,-341.2 1699.32,-329.29 1705.36,-320.51 1710,-305.2 1715.57,-286.8 1727.22,-287.2 1734,-269.2 1741.85,-248.36 1744.69,-223.13 1745.66,-204.66"/>
<polygon fill="#64748b" stroke="#64748b" points="1748.11,-204.79 1745.94,-197.69 1743.21,-204.59 1748.11,-204.79"/>
</g>
<!-- n19&#45;&gt;n13 -->
<g id="edge26" class="edge">
<title>n19&#45;&gt;n13</title>
<path fill="none" stroke="#64748b" d="M2203.13,-376.9C2208.15,-368.34 2214.29,-357.86 2219.76,-348.5"/>
<polygon fill="#64748b" stroke="#64748b" points="2221.79,-349.89 2223.22,-342.61 2217.56,-347.41 2221.79,-349.89"/>
</g>
<!-- n19&#45;&gt;n18 -->
<g id="edge27" class="edge">
<title>n19&#45;&gt;n18</title>
<path fill="none" stroke="#64748b" d="M2148.79,-376.72C2124.2,-366.99 2093.46,-354.84 2067.76,-344.67"/>
<polygon fill="#64748b" stroke="#64748b" points="2068.77,-342.43 2061.36,-342.14 2066.97,-346.99 2068.77,-342.43"/>
</g>
<!-- n10 -->
<g id="node52" class="node">
<title>n10</title>
<g id="a_node52"><a xlink:href="vscode://vscode-remote/wsl+Ubuntu/home/ai4stat/statlib/Statlib/StatFoundation/Vocabulary/RandomVariable.lean:74" xlink:title="structure · Statlib/StatFoundation/Vocabulary/RandomVariable.lean:74" target="_blank">
<path fill="#e8dcff" stroke="#8b5cf6" d="M3200.47,-124C3200.47,-124 3099.53,-124 3099.53,-124 3093.53,-124 3087.53,-118 3087.53,-112 3087.53,-112 3087.53,-100 3087.53,-100 3087.53,-94 3093.53,-88 3099.53,-88 3099.53,-88 3200.47,-88 3200.47,-88 3206.47,-88 3212.47,-94 3212.47,-100 3212.47,-100 3212.47,-112 3212.47,-112 3212.47,-118 3206.47,-124 3200.47,-124"/>
<text xml:space="preserve" text-anchor="middle" x="3150" y="-103" font-family="Helvetica,sans-Serif" font-size="10.00">HasSubexponentialMGF</text>
</a>
</g>
</g>
<!-- n19&#45;&gt;n10 -->
<g id="edge25" class="edge">
<title>n19&#45;&gt;n10</title>
<path fill="none" stroke="#64748b" d="M2324.76,-376.74C2504.79,-352.03 2817.76,-305.79 2927,-269.2 3011.67,-240.84 3091.34,-167.7 3128.35,-130.09"/>
<polygon fill="#64748b" stroke="#64748b" points="3129.73,-132.18 3132.86,-125.46 3126.22,-128.76 3129.73,-132.18"/>
</g>
<!-- n21 -->
<g id="node13" class="node">
<title>n21</title>
<g id="a_node13"><a xlink:href="vscode://vscode-remote/wsl+Ubuntu/home/ai4stat/statlib/Statlib/HighDim/Concentration/HansonWright.lean:2238" xlink:title="lemma · Statlib/HighDim/Concentration/HansonWright.lean:2238" target="_blank">
<path fill="#eef2f6" stroke="#94a3b8" d="M2320.07,-485.2C2320.07,-485.2 2117.93,-485.2 2117.93,-485.2 2111.93,-485.2 2105.93,-479.2 2105.93,-473.2 2105.93,-473.2 2105.93,-461.2 2105.93,-461.2 2105.93,-455.2 2111.93,-449.2 2117.93,-449.2 2117.93,-449.2 2320.07,-449.2 2320.07,-449.2 2326.07,-449.2 2332.07,-455.2 2332.07,-461.2 2332.07,-461.2 2332.07,-473.2 2332.07,-473.2 2332.07,-479.2 2326.07,-485.2 2320.07,-485.2"/>
<text xml:space="preserve" text-anchor="middle" x="2219" y="-464.2" font-family="Helvetica,sans-Serif" font-size="10.00">weighted_coord_sq_centered_sum_tail_explicit</text>
</a>
</g>
</g>
<!-- n21&#45;&gt;n0 -->
<g id="edge29" class="edge">
<title>n21&#45;&gt;n0</title>
<path fill="none" stroke="#64748b" d="M2105.46,-455.06C1968.23,-438.97 1749.5,-404.04 1700,-341.2 1690.1,-328.63 1697.05,-320.93 1700,-305.2 1703.17,-288.33 1708.02,-285.29 1714,-269.2 1722.13,-247.32 1730.98,-222.29 1737.3,-204.16"/>
<polygon fill="#64748b" stroke="#64748b" points="1739.54,-205.19 1739.52,-197.78 1734.91,-203.58 1739.54,-205.19"/>
</g>
<!-- n21&#45;&gt;n6 -->
<g id="edge32" class="edge">
<title>n21&#45;&gt;n6</title>
<path fill="none" stroke="#64748b" d="M2300.83,-448.76C2318.97,-440.93 2336.04,-429.6 2347,-413.2 2373.67,-373.29 2361.4,-350.99 2347,-305.2 2343.71,-294.73 2337.52,-284.52 2331.14,-275.9"/>
<polygon fill="#64748b" stroke="#64748b" points="2333.21,-274.56 2326.97,-270.55 2329.34,-277.57 2333.21,-274.56"/>
</g>
<!-- n21&#45;&gt;n19 -->
<g id="edge31" class="edge">
<title>n21&#45;&gt;n19</title>
<path fill="none" stroke="#64748b" d="M2212.57,-448.9C2209.46,-440.5 2205.65,-430.27 2202.23,-421.06"/>
<polygon fill="#64748b" stroke="#64748b" points="2204.61,-420.43 2199.88,-414.72 2200.02,-422.14 2204.61,-420.43"/>
</g>
<!-- n21&#45;&gt;n10 -->
<g id="edge30" class="edge">
<title>n21&#45;&gt;n10</title>
<path fill="none" stroke="#64748b" d="M2332.15,-460.35C2577.79,-446.13 3138,-404.87 3138,-324.2 3138,-324.2 3138,-324.2 3138,-250.2 3138,-208.82 3143.04,-160.96 3146.58,-132.38"/>
<polygon fill="#64748b" stroke="#64748b" points="3148.99,-132.91 3147.44,-125.66 3144.12,-132.29 3148.99,-132.91"/>
</g>
<!-- n20 -->
<g id="node59" class="node">
<title>n20</title>
<g id="a_node59"><a xlink:href="vscode://vscode-remote/wsl+Ubuntu/home/ai4stat/statlib/Statlib/StatFoundation/Concentration/ExponentialType/bernstein_sum_meas_abs_ge_le_two_exp.lean:13" xlink:title="theorem · Statlib/StatFoundation/Concentration/ExponentialType/bernstein_sum_meas_abs_ge_le_two_exp.lean:13" target="_blank">
<path fill="#ffe6a3" stroke="#d4a017" d="M2972.06,-196C2972.06,-196 2789.94,-196 2789.94,-196 2783.94,-196 2777.94,-190 2777.94,-184 2777.94,-184 2777.94,-172 2777.94,-172 2777.94,-166 2783.94,-160 2789.94,-160 2789.94,-160 2972.06,-160 2972.06,-160 2978.06,-160 2984.06,-166 2984.06,-172 2984.06,-172 2984.06,-184 2984.06,-184 2984.06,-190 2978.06,-196 2972.06,-196"/>
<text xml:space="preserve" text-anchor="middle" x="2881" y="-175" font-family="Helvetica,sans-Serif" font-size="10.00">bernstein_sum_meas_abs_ge_le_two_exp</text>
</a>
</g>
</g>
<!-- n21&#45;&gt;n20 -->
<g id="edge33" class="edge">
<title>n21&#45;&gt;n20</title>
<path fill="none" stroke="#64748b" d="M2267.23,-448.75C2294.35,-438.74 2328.74,-425.7 2359,-413.2 2538.07,-339.21 2747.32,-242 2836.79,-199.91"/>
<polygon fill="#64748b" stroke="#64748b" points="2837.65,-202.22 2842.94,-197.02 2835.56,-197.79 2837.65,-202.22"/>
</g>
<!-- n22 -->
<g id="node14" class="node">
<title>n22</title>
<g id="a_node14"><a xlink:href="vscode://vscode-remote/wsl+Ubuntu/home/ai4stat/statlib/Statlib/HighDim/Concentration/HansonWright.lean:2436" xlink:title="lemma · Statlib/HighDim/Concentration/HansonWright.lean:2436" target="_blank">
<path fill="#eef2f6" stroke="#94a3b8" d="M1824.9,-557.2C1824.9,-557.2 1631.1,-557.2 1631.1,-557.2 1625.1,-557.2 1619.1,-551.2 1619.1,-545.2 1619.1,-545.2 1619.1,-533.2 1619.1,-533.2 1619.1,-527.2 1625.1,-521.2 1631.1,-521.2 1631.1,-521.2 1824.9,-521.2 1824.9,-521.2 1830.9,-521.2 1836.9,-527.2 1836.9,-533.2 1836.9,-533.2 1836.9,-545.2 1836.9,-545.2 1836.9,-551.2 1830.9,-557.2 1824.9,-557.2"/>
<text xml:space="preserve" text-anchor="middle" x="1728" y="-536.2" font-family="Helvetica,sans-Serif" font-size="10.00">subgaussian_norm_sq_tail_bernstein_explicit</text>
</a>
</g>
</g>
<!-- n22&#45;&gt;n0 -->
<g id="edge34" class="edge">
<title>n22&#45;&gt;n0</title>
<path fill="none" stroke="#64748b" d="M1691.1,-520.89C1677.14,-512.28 1662.75,-500.41 1655,-485.2 1633.2,-442.44 1645.73,-424.3 1655,-377.2 1668.36,-309.34 1683.23,-295.14 1714,-233.2 1718.99,-223.16 1725.12,-212.47 1730.67,-203.25"/>
<polygon fill="#64748b" stroke="#64748b" points="1732.62,-204.76 1734.18,-197.51 1728.44,-202.21 1732.62,-204.76"/>
</g>
<!-- n22&#45;&gt;n3 -->
<g id="edge38" class="edge">
<title>n22&#45;&gt;n3</title>
<path fill="none" stroke="#64748b" d="M1713.04,-520.75C1705.46,-510.94 1696.87,-498.11 1692,-485.2 1663.78,-410.34 1648.75,-373.75 1690,-305.2 1698.31,-291.39 1798.37,-235.21 1811,-225.2 1819.91,-218.14 1829.12,-209.78 1837.11,-202.12"/>
<polygon fill="#64748b" stroke="#64748b" points="1838.57,-204.13 1841.88,-197.5 1835.15,-200.61 1838.57,-204.13"/>
</g>
<!-- n22&#45;&gt;n4 -->
<g id="edge37" class="edge">
<title>n22&#45;&gt;n4</title>
<path fill="none" stroke="#64748b" d="M1719.75,-520.71C1701.43,-479.03 1662.56,-372.28 1710,-305.2 1720.94,-289.73 1763.26,-275.61 1800.17,-265.85"/>
<polygon fill="#64748b" stroke="#64748b" points="1800.33,-268.34 1806.49,-264.21 1799.1,-263.59 1800.33,-268.34"/>
</g>
<!-- n22&#45;&gt;n6 -->
<g id="edge36" class="edge">
<title>n22&#45;&gt;n6</title>
<path fill="none" stroke="#64748b" d="M1837.32,-535.55C2003.29,-530.51 2303.61,-517.08 2341,-485.2 2402.15,-433.06 2387.43,-379.97 2358,-305.2 2353.6,-294.03 2345.68,-283.74 2337.52,-275.25"/>
<polygon fill="#64748b" stroke="#64748b" points="2339.66,-273.92 2332.96,-270.74 2336.22,-277.4 2339.66,-273.92"/>
</g>
<!-- n22&#45;&gt;n9 -->
<g id="edge35" class="edge">
<title>n22&#45;&gt;n9</title>
<path fill="none" stroke="#64748b" d="M1734.57,-521.05C1749,-483.41 1783.48,-393.4 1800.36,-349.35"/>
<polygon fill="#64748b" stroke="#64748b" points="1802.64,-350.26 1802.86,-342.85 1798.06,-348.51 1802.64,-350.26"/>
</g>
<!-- n22&#45;&gt;n21 -->
<g id="edge39" class="edge">
<title>n22&#45;&gt;n21</title>
<path fill="none" stroke="#64748b" d="M1837.27,-522.62C1914.45,-511.62 2017.91,-496.87 2097.65,-485.5"/>
<polygon fill="#64748b" stroke="#64748b" points="2097.7,-487.97 2104.29,-484.55 2097.01,-483.12 2097.7,-487.97"/>
</g>
<!-- n23 -->
<g id="node15" class="node">
<title>n23</title>
<g id="a_node15"><a xlink:href="vscode://vscode-remote/wsl+Ubuntu/home/ai4stat/statlib/Statlib/HighDim/Vocabulary/QuadraticForms.lean:46" xlink:title="noncomputable def · Statlib/HighDim/Vocabulary/QuadraticForms.lean:46" target="_blank">
<path fill="#d6e9ff" stroke="#3b82f6" d="M1091.41,-124C1091.41,-124 1026.59,-124 1026.59,-124 1020.59,-124 1014.59,-118 1014.59,-112 1014.59,-112 1014.59,-100 1014.59,-100 1014.59,-94 1020.59,-88 1026.59,-88 1026.59,-88 1091.41,-88 1091.41,-88 1097.41,-88 1103.41,-94 1103.41,-100 1103.41,-100 1103.41,-112 1103.41,-112 1103.41,-118 1097.41,-124 1091.41,-124"/>
<text xml:space="preserve" text-anchor="middle" x="1059" y="-103" font-family="Helvetica,sans-Serif" font-size="10.00">offDiagCoeffVec</text>
</a>
</g>
</g>
<!-- n24 -->
<g id="node16" class="node">
<title>n24</title>
<g id="a_node16"><a xlink:href="vscode://vscode-remote/wsl+Ubuntu/home/ai4stat/statlib/Statlib/HighDim/Concentration/HansonWright.lean:86" xlink:title="lemma · Statlib/HighDim/Concentration/HansonWright.lean:86" target="_blank">
<path fill="#eef2f6" stroke="#94a3b8" d="M976.83,-124C976.83,-124 799.17,-124 799.17,-124 793.17,-124 787.17,-118 787.17,-112 787.17,-112 787.17,-100 787.17,-100 787.17,-94 793.17,-88 799.17,-88 799.17,-88 976.83,-88 976.83,-88 982.83,-88 988.83,-94 988.83,-100 988.83,-100 988.83,-112 988.83,-112 988.83,-118 982.83,-124 976.83,-124"/>
<text xml:space="preserve" text-anchor="middle" x="888" y="-103" font-family="Helvetica,sans-Serif" font-size="10.00">decoupledOffDiagQuadForm_measurable</text>
</a>
</g>
</g>
<!-- n24&#45;&gt;n2 -->
<g id="edge40" class="edge">
<title>n24&#45;&gt;n2</title>
<path fill="none" stroke="#64748b" d="M932.71,-87.52C957.58,-77.79 988.66,-65.64 1014.66,-55.47"/>
<polygon fill="#64748b" stroke="#64748b" points="1015.52,-57.76 1021.14,-52.93 1013.73,-53.2 1015.52,-57.76"/>
</g>
<!-- n25 -->
<g id="node17" class="node">
<title>n25</title>
<g id="a_node17"><a xlink:href="vscode://vscode-remote/wsl+Ubuntu/home/ai4stat/statlib/Statlib/HighDim/Concentration/HansonWright.lean:95" xlink:title="lemma · Statlib/HighDim/Concentration/HansonWright.lean:95" target="_blank">
<path fill="#eef2f6" stroke="#94a3b8" d="M807.62,-196C807.62,-196 604.38,-196 604.38,-196 598.38,-196 592.38,-190 592.38,-184 592.38,-184 592.38,-172 592.38,-172 592.38,-166 598.38,-160 604.38,-160 604.38,-160 807.62,-160 807.62,-160 813.62,-160 819.62,-166 819.62,-172 819.62,-172 819.62,-184 819.62,-184 819.62,-190 813.62,-196 807.62,-196"/>
<text xml:space="preserve" text-anchor="middle" x="706" y="-175" font-family="Helvetica,sans-Serif" font-size="10.00">decoupledOffDiagQuadForm_prod_measurable</text>
</a>
</g>
</g>
<!-- n25&#45;&gt;n2 -->
<g id="edge41" class="edge">
<title>n25&#45;&gt;n2</title>
<path fill="none" stroke="#64748b" d="M714.88,-159.82C726.47,-139.24 748.78,-105.36 778,-88 812.47,-67.53 913.57,-52.21 986.48,-43.44"/>
<polygon fill="#64748b" stroke="#64748b" points="986.61,-45.89 993.28,-42.63 986.04,-41.03 986.61,-45.89"/>
</g>
<!-- n25&#45;&gt;n24 -->
<g id="edge42" class="edge">
<title>n25&#45;&gt;n24</title>
<path fill="none" stroke="#64748b" d="M751.46,-159.52C776.85,-149.75 808.62,-137.53 835.12,-127.34"/>
<polygon fill="#64748b" stroke="#64748b" points="835.74,-129.72 841.39,-124.93 833.98,-125.15 835.74,-129.72"/>
</g>
<!-- n26 -->
<g id="node18" class="node">
<title>n26</title>
<g id="a_node18"><a xlink:href="vscode://vscode-remote/wsl+Ubuntu/home/ai4stat/statlib/Statlib/HighDim/Concentration/HansonWright.lean:105" xlink:title="lemma · Statlib/HighDim/Concentration/HansonWright.lean:105" target="_blank">
<path fill="#eef2f6" stroke="#94a3b8" d="M742.29,-269.2C742.29,-269.2 505.71,-269.2 505.71,-269.2 499.71,-269.2 493.71,-263.2 493.71,-257.2 493.71,-257.2 493.71,-245.2 493.71,-245.2 493.71,-239.2 499.71,-233.2 505.71,-233.2 505.71,-233.2 742.29,-233.2 742.29,-233.2 748.29,-233.2 754.29,-239.2 754.29,-245.2 754.29,-245.2 754.29,-257.2 754.29,-257.2 754.29,-263.2 748.29,-269.2 742.29,-269.2"/>
<text xml:space="preserve" text-anchor="middle" x="624" y="-248.2" font-family="Helvetica,sans-Serif" font-size="10.00">decoupledOffDiagQuadForm_prod_tail_measurableSet</text>
</a>
</g>
</g>
<!-- n26&#45;&gt;n2 -->
<g id="edge43" class="edge">
<title>n26&#45;&gt;n2</title>
<path fill="none" stroke="#64748b" d="M589.18,-233.05C586.76,-230.72 584.63,-228.11 583,-225.2 568.81,-199.93 567.5,-184.49 583,-160 626.03,-92.01 860.66,-56.93 986.75,-42.76"/>
<polygon fill="#64748b" stroke="#64748b" points="986.7,-45.23 993.39,-42.02 986.16,-40.36 986.7,-45.23"/>
</g>
<!-- n26&#45;&gt;n25 -->
<g id="edge44" class="edge">
<title>n26&#45;&gt;n25</title>
<path fill="none" stroke="#64748b" d="M643.85,-232.96C654.65,-223.59 668.14,-211.87 679.79,-201.75"/>
<polygon fill="#64748b" stroke="#64748b" points="681.23,-203.76 684.91,-197.32 678.01,-200.06 681.23,-203.76"/>
</g>
<!-- n27 -->
<g id="node19" class="node">
<title>n27</title>
<g id="a_node19"><a xlink:href="vscode://vscode-remote/wsl+Ubuntu/home/ai4stat/statlib/Statlib/HighDim/Concentration/HansonWright.lean:670" xlink:title="lemma · Statlib/HighDim/Concentration/HansonWright.lean:670" target="_blank">
<path fill="#eef2f6" stroke="#94a3b8" d="M1082.32,-196C1082.32,-196 929.68,-196 929.68,-196 923.68,-196 917.68,-190 917.68,-184 917.68,-184 917.68,-172 917.68,-172 917.68,-166 923.68,-160 929.68,-160 929.68,-160 1082.32,-160 1082.32,-160 1088.32,-160 1094.32,-166 1094.32,-172 1094.32,-172 1094.32,-184 1094.32,-184 1094.32,-190 1088.32,-196 1082.32,-196"/>
<text xml:space="preserve" text-anchor="middle" x="1006" y="-175" font-family="Helvetica,sans-Serif" font-size="10.00">offDiagCoeffVec_comp_measurable</text>
</a>
</g>
</g>
<!-- n27&#45;&gt;n23 -->
<g id="edge45" class="edge">
<title>n27&#45;&gt;n23</title>
<path fill="none" stroke="#64748b" d="M1019.1,-159.7C1025.71,-150.97 1033.83,-140.24 1041.02,-130.75"/>
<polygon fill="#64748b" stroke="#64748b" points="1042.86,-132.37 1045.14,-125.31 1038.96,-129.41 1042.86,-132.37"/>
</g>
<!-- n28 -->
<g id="node20" class="node">
<title>n28</title>
<g id="a_node20"><a xlink:href="vscode://vscode-remote/wsl+Ubuntu/home/ai4stat/statlib/Statlib/HighDim/Concentration/HansonWright.lean:678" xlink:title="lemma · Statlib/HighDim/Concentration/HansonWright.lean:678" target="_blank">
<path fill="#eef2f6" stroke="#94a3b8" d="M1011.55,-269.2C1011.55,-269.2 844.45,-269.2 844.45,-269.2 838.45,-269.2 832.45,-263.2 832.45,-257.2 832.45,-257.2 832.45,-245.2 832.45,-245.2 832.45,-239.2 838.45,-233.2 844.45,-233.2 844.45,-233.2 1011.55,-233.2 1011.55,-233.2 1017.55,-233.2 1023.55,-239.2 1023.55,-245.2 1023.55,-245.2 1023.55,-257.2 1023.55,-257.2 1023.55,-263.2 1017.55,-269.2 1011.55,-269.2"/>
<text xml:space="preserve" text-anchor="middle" x="928" y="-248.2" font-family="Helvetica,sans-Serif" font-size="10.00">offDiagCoeffVec_norm_sq_measurable</text>
</a>
</g>
</g>
<!-- n28&#45;&gt;n23 -->
<g id="edge46" class="edge">
<title>n28&#45;&gt;n23</title>
<path fill="none" stroke="#64748b" d="M1023.96,-235.19C1028.71,-234.5 1033.41,-233.84 1038,-233.2 1052.42,-231.2 1093.36,-236.1 1103,-225.2 1122.2,-203.49 1112.84,-187.26 1103,-160 1099.05,-149.06 1091.76,-138.79 1084.23,-130.25"/>
<polygon fill="#64748b" stroke="#64748b" points="1086.07,-128.64 1079.51,-125.19 1082.49,-131.98 1086.07,-128.64"/>
</g>
<!-- n28&#45;&gt;n27 -->
<g id="edge47" class="edge">
<title>n28&#45;&gt;n27</title>
<path fill="none" stroke="#64748b" d="M946.88,-232.96C957.06,-223.68 969.75,-212.09 980.76,-202.04"/>
<polygon fill="#64748b" stroke="#64748b" points="982.39,-203.87 985.9,-197.34 979.08,-200.25 982.39,-203.87"/>
</g>
<!-- n29 -->
<g id="node21" class="node">
<title>n29</title>
<g id="a_node21"><a xlink:href="vscode://vscode-remote/wsl+Ubuntu/home/ai4stat/statlib/Statlib/HighDim/Concentration/HansonWright.lean:156" xlink:title="lemma · Statlib/HighDim/Concentration/HansonWright.lean:156" target="_blank">
<path fill="#eef2f6" stroke="#94a3b8" d="M1196.43,-341.2C1196.43,-341.2 1061.57,-341.2 1061.57,-341.2 1055.57,-341.2 1049.57,-335.2 1049.57,-329.2 1049.57,-329.2 1049.57,-317.2 1049.57,-317.2 1049.57,-311.2 1055.57,-305.2 1061.57,-305.2 1061.57,-305.2 1196.43,-305.2 1196.43,-305.2 1202.43,-305.2 1208.43,-311.2 1208.43,-317.2 1208.43,-317.2 1208.43,-329.2 1208.43,-329.2 1208.43,-335.2 1202.43,-341.2 1196.43,-341.2"/>
<text xml:space="preserve" text-anchor="middle" x="1129" y="-320.2" font-family="Helvetica,sans-Serif" font-size="10.00">subgaussian_mgf_mono_param</text>
</a>
</g>
</g>
<!-- n30 -->
<g id="node22" class="node">
<title>n30</title>
<g id="a_node22"><a xlink:href="vscode://vscode-remote/wsl+Ubuntu/home/ai4stat/statlib/Statlib/HighDim/Vocabulary/QuadraticForms.lean:39" xlink:title="noncomputable def · Statlib/HighDim/Vocabulary/QuadraticForms.lean:39" target="_blank">
<path fill="#d6e9ff" stroke="#3b82f6" d="M1625.79,-52C1625.79,-52 1578.21,-52 1578.21,-52 1572.21,-52 1566.21,-46 1566.21,-40 1566.21,-40 1566.21,-28 1566.21,-28 1566.21,-22 1572.21,-16 1578.21,-16 1578.21,-16 1625.79,-16 1625.79,-16 1631.79,-16 1637.79,-22 1637.79,-28 1637.79,-28 1637.79,-40 1637.79,-40 1637.79,-46 1631.79,-52 1625.79,-52"/>
<text xml:space="preserve" text-anchor="middle" x="1602" y="-31" font-family="Helvetica,sans-Serif" font-size="10.00">offDiagCoeff</text>
</a>
</g>
</g>
<!-- n31 -->
<g id="node23" class="node">
<title>n31</title>
<g id="a_node23"><a xlink:href="vscode://vscode-remote/wsl+Ubuntu/home/ai4stat/statlib/Statlib/HighDim/Concentration/HansonWright.lean:42" xlink:title="lemma · Statlib/HighDim/Concentration/HansonWright.lean:42" target="_blank">
<path fill="#eef2f6" stroke="#94a3b8" d="M1696.11,-124C1696.11,-124 1507.89,-124 1507.89,-124 1501.89,-124 1495.89,-118 1495.89,-112 1495.89,-112 1495.89,-100 1495.89,-100 1495.89,-94 1501.89,-88 1507.89,-88 1507.89,-88 1696.11,-88 1696.11,-88 1702.11,-88 1708.11,-94 1708.11,-100 1708.11,-100 1708.11,-112 1708.11,-112 1708.11,-118 1702.11,-124 1696.11,-124"/>
<text xml:space="preserve" text-anchor="middle" x="1602" y="-103" font-family="Helvetica,sans-Serif" font-size="10.00">decoupledOffDiagQuadForm_eq_sum_coeff</text>
</a>
</g>
</g>
<!-- n31&#45;&gt;n2 -->
<g id="edge48" class="edge">
<title>n31&#45;&gt;n2</title>
<path fill="none" stroke="#64748b" d="M1495.66,-91.09C1393.17,-77.68 1240.34,-57.68 1147.55,-45.54"/>
<polygon fill="#64748b" stroke="#64748b" points="1148.07,-43.14 1140.81,-44.66 1147.44,-48 1148.07,-43.14"/>
</g>
<!-- n31&#45;&gt;n30 -->
<g id="edge49" class="edge">
<title>n31&#45;&gt;n30</title>
<path fill="none" stroke="#64748b" d="M1602,-87.7C1602,-79.47 1602,-69.48 1602,-60.42"/>
<polygon fill="#64748b" stroke="#64748b" points="1604.45,-60.62 1602,-53.62 1599.55,-60.62 1604.45,-60.62"/>
</g>
<!-- n32 -->
<g id="node24" class="node">
<title>n32</title>
<g id="a_node24"><a xlink:href="vscode://vscode-remote/wsl+Ubuntu/home/ai4stat/statlib/Statlib/HighDim/Concentration/HansonWright.lean:61" xlink:title="lemma · Statlib/HighDim/Concentration/HansonWright.lean:61" target="_blank">
<path fill="#eef2f6" stroke="#94a3b8" d="M1659.79,-196C1659.79,-196 1468.21,-196 1468.21,-196 1462.21,-196 1456.21,-190 1456.21,-184 1456.21,-184 1456.21,-172 1456.21,-172 1456.21,-166 1462.21,-160 1468.21,-160 1468.21,-160 1659.79,-160 1659.79,-160 1665.79,-160 1671.79,-166 1671.79,-172 1671.79,-172 1671.79,-184 1671.79,-184 1671.79,-190 1665.79,-196 1659.79,-196"/>
<text xml:space="preserve" text-anchor="middle" x="1564" y="-175" font-family="Helvetica,sans-Serif" font-size="10.00">decoupledOffDiagQuadForm_eq_inner_coeff</text>
</a>
</g>
</g>
<!-- n32&#45;&gt;n2 -->
<g id="edge50" class="edge">
<title>n32&#45;&gt;n2</title>
<path fill="none" stroke="#64748b" d="M1537.65,-159.55C1522.63,-149.43 1503.55,-136.29 1487,-124 1466.44,-108.73 1465.51,-98.15 1442,-88 1390.58,-65.8 1241.53,-49.68 1147.56,-41.37"/>
<polygon fill="#64748b" stroke="#64748b" points="1147.9,-38.94 1140.72,-40.77 1147.48,-43.82 1147.9,-38.94"/>
</g>
<!-- n32&#45;&gt;n5 -->
<g id="edge53" class="edge">
<title>n32&#45;&gt;n5</title>
<path fill="none" stroke="#64748b" d="M1672.03,-161.12C1675.05,-160.73 1678.05,-160.36 1681,-160 1862.99,-137.89 2080.23,-118.87 2174.92,-110.94"/>
<polygon fill="#64748b" stroke="#64748b" points="2174.87,-113.4 2181.64,-110.38 2174.46,-108.52 2174.87,-113.4"/>
</g>
<!-- n32&#45;&gt;n30 -->
<g id="edge51" class="edge">
<title>n32&#45;&gt;n30</title>
<path fill="none" stroke="#64748b" d="M1669.7,-159.61C1688.26,-151.74 1705.34,-140.37 1717,-124 1726.28,-110.97 1725.63,-101.47 1717,-88 1701.44,-63.69 1671.59,-50.38 1646.2,-43.17"/>
<polygon fill="#64748b" stroke="#64748b" points="1647,-40.85 1639.61,-41.43 1645.75,-45.59 1647,-40.85"/>
</g>
<!-- n32&#45;&gt;n31 -->
<g id="edge52" class="edge">
<title>n32&#45;&gt;n31</title>
<path fill="none" stroke="#64748b" d="M1573.39,-159.7C1577.99,-151.22 1583.62,-140.86 1588.66,-131.58"/>
<polygon fill="#64748b" stroke="#64748b" points="1590.81,-132.76 1591.99,-125.43 1586.5,-130.42 1590.81,-132.76"/>
</g>
<!-- n33 -->
<g id="node25" class="node">
<title>n33</title>
<g id="a_node25"><a xlink:href="vscode://vscode-remote/wsl+Ubuntu/home/ai4stat/statlib/Statlib/HighDim/Concentration/HansonWright.lean:35" xlink:title="lemma · Statlib/HighDim/Concentration/HansonWright.lean:35" target="_blank">
<path fill="#eef2f6" stroke="#94a3b8" d="M1361.52,-196C1361.52,-196 1284.48,-196 1284.48,-196 1278.48,-196 1272.48,-190 1272.48,-184 1272.48,-184 1272.48,-172 1272.48,-172 1272.48,-166 1278.48,-160 1284.48,-160 1284.48,-160 1361.52,-160 1361.52,-160 1367.52,-160 1373.52,-166 1373.52,-172 1373.52,-172 1373.52,-184 1373.52,-184 1373.52,-190 1367.52,-196 1361.52,-196"/>
<text xml:space="preserve" text-anchor="middle" x="1323" y="-175" font-family="Helvetica,sans-Serif" font-size="10.00">offDiagCoeff_const</text>
</a>
</g>
</g>
<!-- n33&#45;&gt;n23 -->
<g id="edge55" class="edge">
<title>n33&#45;&gt;n23</title>
<path fill="none" stroke="#64748b" d="M1272.1,-163.5C1226.02,-151.29 1158.41,-133.36 1111.76,-120.99"/>
<polygon fill="#64748b" stroke="#64748b" points="1112.45,-118.64 1105.06,-119.21 1111.2,-123.38 1112.45,-118.64"/>
</g>
<!-- n33&#45;&gt;n30 -->
<g id="edge54" class="edge">
<title>n33&#45;&gt;n30</title>
<path fill="none" stroke="#64748b" d="M1353.51,-159.66C1386.21,-141.27 1439.79,-111.66 1487,-88 1510.19,-76.38 1536.44,-64.21 1558,-54.47"/>
<polygon fill="#64748b" stroke="#64748b" points="1558.96,-56.72 1564.33,-51.61 1556.94,-52.25 1558.96,-56.72"/>
</g>
<!-- n34 -->
<g id="node26" class="node">
<title>n34</title>
<g id="a_node26"><a xlink:href="vscode://vscode-remote/wsl+Ubuntu/home/ai4stat/statlib/Statlib/HighDim/Concentration/HansonWright.lean:69" xlink:title="lemma · Statlib/HighDim/Concentration/HansonWright.lean:69" target="_blank">
<path fill="#eef2f6" stroke="#94a3b8" d="M1417.64,-269.2C1417.64,-269.2 1154.36,-269.2 1154.36,-269.2 1148.36,-269.2 1142.36,-263.2 1142.36,-257.2 1142.36,-257.2 1142.36,-245.2 1142.36,-245.2 1142.36,-239.2 1148.36,-233.2 1154.36,-233.2 1154.36,-233.2 1417.64,-233.2 1417.64,-233.2 1423.64,-233.2 1429.64,-239.2 1429.64,-245.2 1429.64,-245.2 1429.64,-257.2 1429.64,-257.2 1429.64,-263.2 1423.64,-269.2 1417.64,-269.2"/>
<text xml:space="preserve" text-anchor="middle" x="1286" y="-248.2" font-family="Helvetica,sans-Serif" font-size="10.00">decoupledOffDiagQuadForm_const_right_eq_inner_coeffVec</text>
</a>
</g>
</g>
<!-- n34&#45;&gt;n2 -->
<g id="edge56" class="edge">
<title>n34&#45;&gt;n2</title>
<path fill="none" stroke="#64748b" d="M1268.42,-232.92C1266.42,-230.45 1264.55,-227.85 1263,-225.2 1230.54,-169.84 1262.91,-133.84 1218,-88 1199.06,-68.66 1172.67,-56.37 1147.24,-48.56"/>
<polygon fill="#64748b" stroke="#64748b" points="1148.24,-46.3 1140.84,-46.7 1146.88,-51 1148.24,-46.3"/>
</g>
<!-- n34&#45;&gt;n23 -->
<g id="edge57" class="edge">
<title>n34&#45;&gt;n23</title>
<path fill="none" stroke="#64748b" d="M1258.22,-232.71C1254.71,-230.27 1251.23,-227.74 1248,-225.2 1214.57,-198.93 1213.46,-183.46 1178,-160 1157.51,-146.44 1132.97,-134.84 1111.52,-125.99"/>
<polygon fill="#64748b" stroke="#64748b" points="1112.58,-123.77 1105.17,-123.42 1110.74,-128.31 1112.58,-123.77"/>
</g>
<!-- n34&#45;&gt;n32 -->
<g id="edge58" class="edge">
<title>n34&#45;&gt;n32</title>
<path fill="none" stroke="#64748b" d="M1354.01,-232.78C1394.39,-222.44 1445.71,-209.3 1487.51,-198.59"/>
<polygon fill="#64748b" stroke="#64748b" points="1488.09,-200.97 1494.27,-196.86 1486.88,-196.22 1488.09,-200.97"/>
</g>
<!-- n34&#45;&gt;n33 -->
<g id="edge59" class="edge">
<title>n34&#45;&gt;n33</title>
<path fill="none" stroke="#64748b" d="M1294.96,-232.96C1299.55,-224.13 1305.22,-213.22 1310.25,-203.53"/>
<polygon fill="#64748b" stroke="#64748b" points="1312.37,-204.76 1313.43,-197.42 1308.03,-202.5 1312.37,-204.76"/>
</g>
<!-- n35 -->
<g id="node27" class="node">
<title>n35</title>
<g id="a_node27"><a xlink:href="vscode://vscode-remote/wsl+Ubuntu/home/ai4stat/statlib/Statlib/HighDim/Concentration/HansonWright.lean:76" xlink:title="lemma · Statlib/HighDim/Concentration/HansonWright.lean:76" target="_blank">
<path fill="#eef2f6" stroke="#94a3b8" d="M1020.02,-341.2C1020.02,-341.2 783.98,-341.2 783.98,-341.2 777.98,-341.2 771.98,-335.2 771.98,-329.2 771.98,-329.2 771.98,-317.2 771.98,-317.2 771.98,-311.2 777.98,-305.2 783.98,-305.2 783.98,-305.2 1020.02,-305.2 1020.02,-305.2 1026.02,-305.2 1032.02,-311.2 1032.02,-317.2 1032.02,-317.2 1032.02,-329.2 1032.02,-329.2 1032.02,-335.2 1026.02,-341.2 1020.02,-341.2"/>
<text xml:space="preserve" text-anchor="middle" x="902" y="-320.2" font-family="Helvetica,sans-Serif" font-size="10.00">decoupledOffDiagQuadForm_const_right_subgaussian</text>
</a>
</g>
</g>
<!-- n35&#45;&gt;n0 -->
<g id="edge60" class="edge">
<title>n35&#45;&gt;n0</title>
<path fill="none" stroke="#64748b" d="M1032.21,-306.15C1035.16,-305.83 1038.1,-305.51 1041,-305.2 1217.62,-286.42 1269.22,-321.35 1439,-269.2 1470.57,-259.5 1472.22,-242.18 1504,-233.2 1541.89,-222.49 1643.77,-238.02 1681,-225.2 1695.66,-220.15 1709.94,-210.68 1721.36,-201.61"/>
<polygon fill="#64748b" stroke="#64748b" points="1722.72,-203.67 1726.57,-197.32 1719.61,-199.88 1722.72,-203.67"/>
</g>
<!-- n35&#45;&gt;n2 -->
<g id="edge61" class="edge">
<title>n35&#45;&gt;n2</title>
<path fill="none" stroke="#64748b" d="M1007.11,-304.74C1037.77,-296.8 1070.43,-285.42 1098,-269.2 1117.23,-257.88 1113.01,-243.13 1133,-233.2 1146.03,-226.73 1188.36,-236.1 1198,-225.2 1238.4,-179.52 1232.09,-138.56 1198,-88 1186.07,-70.31 1167.14,-58.52 1147.32,-50.67"/>
<polygon fill="#64748b" stroke="#64748b" points="1148.24,-48.4 1140.82,-48.27 1146.54,-52.99 1148.24,-48.4"/>
</g>
<!-- n35&#45;&gt;n23 -->
<g id="edge62" class="edge">
<title>n35&#45;&gt;n23</title>
<path fill="none" stroke="#64748b" d="M973.39,-304.75C1003.45,-296.06 1038.28,-284.17 1068,-269.2 1092.46,-256.88 1092.89,-244.13 1118,-233.2 1134.62,-225.96 1146.51,-239.22 1158,-225.2 1176.37,-202.79 1172.89,-184.86 1158,-160 1147.61,-142.66 1129.4,-130.67 1111.4,-122.54"/>
<polygon fill="#64748b" stroke="#64748b" points="1112.52,-120.36 1105.12,-119.88 1110.61,-124.87 1112.52,-120.36"/>
</g>
<!-- n35&#45;&gt;n34 -->
<g id="edge63" class="edge">
<title>n35&#45;&gt;n34</title>
<path fill="none" stroke="#64748b" d="M997.91,-304.72C1053.91,-294.51 1124.61,-281.62 1181.96,-271.17"/>
<polygon fill="#64748b" stroke="#64748b" points="1182.38,-273.58 1188.83,-269.91 1181.5,-268.76 1182.38,-273.58"/>
</g>
<!-- n36 -->
<g id="node28" class="node">
<title>n36</title>
<g id="a_node28"><a xlink:href="vscode://vscode-remote/wsl+Ubuntu/home/ai4stat/statlib/Statlib/HighDim/Concentration/HansonWright.lean:122" xlink:title="lemma · Statlib/HighDim/Concentration/HansonWright.lean:122" target="_blank">
<path fill="#eef2f6" stroke="#94a3b8" d="M1349.21,-341.2C1349.21,-341.2 1238.79,-341.2 1238.79,-341.2 1232.79,-341.2 1226.79,-335.2 1226.79,-329.2 1226.79,-329.2 1226.79,-317.2 1226.79,-317.2 1226.79,-311.2 1232.79,-305.2 1238.79,-305.2 1238.79,-305.2 1349.21,-305.2 1349.21,-305.2 1355.21,-305.2 1361.21,-311.2 1361.21,-317.2 1361.21,-317.2 1361.21,-329.2 1361.21,-329.2 1361.21,-335.2 1355.21,-341.2 1349.21,-341.2"/>
<text xml:space="preserve" text-anchor="middle" x="1294" y="-320.2" font-family="Helvetica,sans-Serif" font-size="10.00">subgaussian_abs_tail_real</text>
</a>
</g>
</g>
<!-- n37 -->
<g id="node29" class="node">
<title>n37</title>
<g id="a_node29"><a xlink:href="vscode://vscode-remote/wsl+Ubuntu/home/ai4stat/statlib/Statlib/HighDim/Concentration/HansonWright.lean:846" xlink:title="lemma · Statlib/HighDim/Concentration/HansonWright.lean:846" target="_blank">
<path fill="#eef2f6" stroke="#94a3b8" d="M1156.77,-413.2C1156.77,-413.2 821.23,-413.2 821.23,-413.2 815.23,-413.2 809.23,-407.2 809.23,-401.2 809.23,-401.2 809.23,-389.2 809.23,-389.2 809.23,-383.2 815.23,-377.2 821.23,-377.2 821.23,-377.2 1156.77,-377.2 1156.77,-377.2 1162.77,-377.2 1168.77,-383.2 1168.77,-389.2 1168.77,-389.2 1168.77,-401.2 1168.77,-401.2 1168.77,-407.2 1162.77,-413.2 1156.77,-413.2"/>
<text xml:space="preserve" text-anchor="middle" x="989" y="-392.2" font-family="Helvetica,sans-Serif" font-size="10.00">decoupledOffDiagQuadForm_const_right_abs_tail_real_of_coeff_norm_sq_le</text>
</a>
</g>
</g>
<!-- n37&#45;&gt;n0 -->
<g id="edge64" class="edge">
<title>n37&#45;&gt;n0</title>
<path fill="none" stroke="#64748b" d="M1165.68,-376.72C1246.42,-367.29 1332.36,-354.81 1370,-341.2 1412.8,-325.73 1500.62,-246.95 1544,-233.2 1602.14,-214.77 1623.46,-245.43 1681,-225.2 1695.63,-220.06 1709.9,-210.57 1721.33,-201.52"/>
<polygon fill="#64748b" stroke="#64748b" points="1722.68,-203.58 1726.54,-197.24 1719.57,-199.79 1722.68,-203.58"/>
</g>
<!-- n37&#45;&gt;n2 -->
<g id="edge66" class="edge">
<title>n37&#45;&gt;n2</title>
<path fill="none" stroke="#64748b" d="M833.22,-376.75C774.99,-364.02 730.08,-342.23 763,-305.2 808.34,-254.19 1009.16,-303.78 1068,-269.2 1085.01,-259.2 1077.12,-243.43 1094,-233.2 1115.12,-220.4 1132.84,-243.88 1149,-225.2 1192.88,-174.48 1129.29,-96.7 1091.54,-58.22"/>
<polygon fill="#64748b" stroke="#64748b" points="1093.47,-56.68 1086.79,-53.46 1090,-60.14 1093.47,-56.68"/>
</g>
<!-- n37&#45;&gt;n23 -->
<g id="edge65" class="edge">
<title>n37&#45;&gt;n23</title>
<path fill="none" stroke="#64748b" d="M813.78,-376.7C756.46,-364.08 715,-342.4 748,-305.2 792.56,-254.97 989,-301.26 1048,-269.2 1066.3,-259.26 1059.77,-243.26 1078,-233.2 1089.78,-226.7 1129.14,-235.32 1138,-225.2 1157.09,-203.4 1151.64,-185.57 1138,-160 1131.11,-147.09 1119.53,-136.76 1107.32,-128.78"/>
<polygon fill="#64748b" stroke="#64748b" points="1108.64,-126.71 1101.39,-125.15 1106.08,-130.89 1108.64,-126.71"/>
</g>
<!-- n37&#45;&gt;n29 -->
<g id="edge67" class="edge">
<title>n37&#45;&gt;n29</title>
<path fill="none" stroke="#64748b" d="M1023.97,-376.72C1043.07,-367.17 1066.86,-355.27 1086.97,-345.21"/>
<polygon fill="#64748b" stroke="#64748b" points="1087.96,-347.46 1093.13,-342.14 1085.77,-343.08 1087.96,-347.46"/>
</g>
<!-- n37&#45;&gt;n35 -->
<g id="edge68" class="edge">
<title>n37&#45;&gt;n35</title>
<path fill="none" stroke="#64748b" d="M967.49,-376.9C956.2,-367.81 942.22,-356.56 930.09,-346.8"/>
<polygon fill="#64748b" stroke="#64748b" points="931.73,-344.98 924.74,-342.5 928.66,-348.79 931.73,-344.98"/>
</g>
<!-- n37&#45;&gt;n36 -->
<g id="edge69" class="edge">
<title>n37&#45;&gt;n36</title>
<path fill="none" stroke="#64748b" d="M1065.18,-376.72C1111.87,-366 1171.42,-352.33 1218.06,-341.63"/>
<polygon fill="#64748b" stroke="#64748b" points="1218.57,-344.03 1224.84,-340.07 1217.47,-339.25 1218.57,-344.03"/>
</g>
<!-- n38 -->
<g id="node30" class="node">
<title>n38</title>
<g id="a_node30"><a xlink:href="vscode://vscode-remote/wsl+Ubuntu/home/ai4stat/statlib/Statlib/HighDim/Concentration/HansonWright.lean:114" xlink:title="lemma · Statlib/HighDim/Concentration/HansonWright.lean:114" target="_blank">
<path fill="#eef2f6" stroke="#94a3b8" d="M1389.5,-413.2C1389.5,-413.2 1218.5,-413.2 1218.5,-413.2 1212.5,-413.2 1206.5,-407.2 1206.5,-401.2 1206.5,-401.2 1206.5,-389.2 1206.5,-389.2 1206.5,-383.2 1212.5,-377.2 1218.5,-377.2 1218.5,-377.2 1389.5,-377.2 1389.5,-377.2 1395.5,-377.2 1401.5,-383.2 1401.5,-389.2 1401.5,-389.2 1401.5,-401.2 1401.5,-401.2 1401.5,-407.2 1395.5,-413.2 1389.5,-413.2"/>
<text xml:space="preserve" text-anchor="middle" x="1304" y="-392.2" font-family="Helvetica,sans-Serif" font-size="10.00">measure_le_ofReal_of_measureReal_le</text>
</a>
</g>
</g>
<!-- n39 -->
<g id="node31" class="node">
<title>n39</title>
<g id="a_node31"><a xlink:href="vscode://vscode-remote/wsl+Ubuntu/home/ai4stat/statlib/Statlib/HighDim/Concentration/HansonWright.lean:1021" xlink:title="lemma · Statlib/HighDim/Concentration/HansonWright.lean:1021" target="_blank">
<path fill="#eef2f6" stroke="#94a3b8" d="M1214.54,-485.2C1214.54,-485.2 963.46,-485.2 963.46,-485.2 957.46,-485.2 951.46,-479.2 951.46,-473.2 951.46,-473.2 951.46,-461.2 951.46,-461.2 951.46,-455.2 957.46,-449.2 963.46,-449.2 963.46,-449.2 1214.54,-449.2 1214.54,-449.2 1220.54,-449.2 1226.54,-455.2 1226.54,-461.2 1226.54,-461.2 1226.54,-473.2 1226.54,-473.2 1226.54,-479.2 1220.54,-485.2 1214.54,-485.2"/>
<text xml:space="preserve" text-anchor="middle" x="1089" y="-464.2" font-family="Helvetica,sans-Serif" font-size="10.00">decoupledOffDiagQuadForm_prod_tail_le_bad_plus_good</text>
</a>
</g>
</g>
<!-- n39&#45;&gt;n0 -->
<g id="edge70" class="edge">
<title>n39&#45;&gt;n0</title>
<path fill="none" stroke="#64748b" d="M1226.64,-454.97C1299.53,-446.8 1380.03,-433.54 1410,-413.2 1456.35,-381.74 1438.22,-347.46 1475,-305.2 1477.09,-302.8 1561.04,-234.36 1564,-233.2 1612.51,-214.15 1631.92,-242.73 1681,-225.2 1695.5,-220.02 1709.66,-210.63 1721.05,-201.66"/>
<polygon fill="#64748b" stroke="#64748b" points="1722.37,-203.74 1726.24,-197.41 1719.27,-199.95 1722.37,-203.74"/>
</g>
<!-- n39&#45;&gt;n2 -->
<g id="edge71" class="edge">
<title>n39&#45;&gt;n2</title>
<path fill="none" stroke="#64748b" d="M1128.04,-448.71C1144.85,-439.82 1163.85,-427.78 1178,-413.2 1190.75,-400.06 1183.26,-388.06 1198,-377.2 1260.88,-330.87 1301.7,-379.09 1370,-341.2 1389.38,-330.45 1430.74,-289.76 1439,-269.2 1444.97,-254.35 1448.57,-246.02 1439,-233.2 1431.51,-223.17 1421.41,-233.45 1412,-225.2 1388.16,-204.28 1405.07,-182.78 1383,-160 1331.82,-107.18 1302.34,-115.19 1234,-88 1202.74,-75.56 1167.31,-63.97 1137.16,-54.83"/>
<polygon fill="#64748b" stroke="#64748b" points="1138.07,-52.54 1130.66,-52.87 1136.65,-57.24 1138.07,-52.54"/>
</g>
<!-- n39&#45;&gt;n23 -->
<g id="edge72" class="edge">
<title>n39&#45;&gt;n23</title>
<path fill="none" stroke="#64748b" d="M951.08,-458.75C901.16,-451.56 845.83,-438.1 800,-413.2 761.32,-392.19 748.26,-382.1 732,-341.2 666.5,-176.46 898.68,-370.78 1033,-269.2 1046.82,-258.74 1034.18,-243.67 1048,-233.2 1059.78,-224.28 1104.2,-236.26 1114,-225.2 1133.22,-203.51 1125.34,-186.67 1114,-160 1109.07,-148.4 1100.22,-138.11 1091.03,-129.75"/>
<polygon fill="#64748b" stroke="#64748b" points="1092.72,-127.97 1085.82,-125.27 1089.53,-131.69 1092.72,-127.97"/>
</g>
<!-- n39&#45;&gt;n26 -->
<g id="edge73" class="edge">
<title>n39&#45;&gt;n26</title>
<path fill="none" stroke="#64748b" d="M951.11,-463.09C850.32,-458.12 724.47,-445.4 684,-413.2 642.08,-379.84 629.45,-314.05 625.64,-277.75"/>
<polygon fill="#64748b" stroke="#64748b" points="628.11,-277.87 625.03,-271.12 623.23,-278.32 628.11,-277.87"/>
</g>
<!-- n39&#45;&gt;n28 -->
<g id="edge74" class="edge">
<title>n39&#45;&gt;n28</title>
<path fill="none" stroke="#64748b" d="M951.16,-465.43C855.37,-461.62 739.46,-449.34 708,-413.2 676.48,-377 678.3,-342.91 708,-305.2 715.79,-295.31 770.93,-282.04 824.05,-271.25"/>
<polygon fill="#64748b" stroke="#64748b" points="824.34,-273.69 830.72,-269.91 823.38,-268.89 824.34,-273.69"/>
</g>
<!-- n39&#45;&gt;n37 -->
<g id="edge75" class="edge">
<title>n39&#45;&gt;n37</title>
<path fill="none" stroke="#64748b" d="M1064.02,-448.72C1050.8,-439.46 1034.43,-428 1020.36,-418.15"/>
<polygon fill="#64748b" stroke="#64748b" points="1022.04,-416.34 1014.9,-414.33 1019.23,-420.35 1022.04,-416.34"/>
</g>
<!-- n39&#45;&gt;n38 -->
<g id="edge76" class="edge">
<title>n39&#45;&gt;n38</title>
<path fill="none" stroke="#64748b" d="M1142.7,-448.72C1173.08,-438.82 1211.2,-426.42 1242.74,-416.14"/>
<polygon fill="#64748b" stroke="#64748b" points="1243.28,-418.55 1249.17,-414.05 1241.76,-413.89 1243.28,-418.55"/>
</g>
<!-- n40 -->
<g id="node32" class="node">
<title>n40</title>
<g id="a_node32"><a xlink:href="vscode://vscode-remote/wsl+Ubuntu/home/ai4stat/statlib/Statlib/HighDim/Vocabulary/QuadraticForms.lean:52" xlink:title="def · Statlib/HighDim/Vocabulary/QuadraticForms.lean:52" target="_blank">
<path fill="#d6e9ff" stroke="#3b82f6" d="M463.62,-124C463.62,-124 404.38,-124 404.38,-124 398.38,-124 392.38,-118 392.38,-112 392.38,-112 392.38,-100 392.38,-100 392.38,-94 398.38,-88 404.38,-88 404.38,-88 463.62,-88 463.62,-88 469.62,-88 475.62,-94 475.62,-100 475.62,-100 475.62,-112 475.62,-112 475.62,-118 469.62,-124 463.62,-124"/>
<text xml:space="preserve" text-anchor="middle" x="434" y="-103" font-family="Helvetica,sans-Serif" font-size="10.00">zeroDiagMatrix</text>
</a>
</g>
</g>
<!-- n41 -->
<g id="node33" class="node">
<title>n41</title>
<g id="a_node33"><a xlink:href="vscode://vscode-remote/wsl+Ubuntu/home/ai4stat/statlib/Statlib/HighDim/Concentration/HansonWright.lean:251" xlink:title="lemma · Statlib/HighDim/Concentration/HansonWright.lean:251" target="_blank">
<path fill="#eef2f6" stroke="#94a3b8" d="M541.61,-196C541.61,-196 348.39,-196 348.39,-196 342.39,-196 336.39,-190 336.39,-184 336.39,-184 336.39,-172 336.39,-172 336.39,-166 342.39,-160 348.39,-160 348.39,-160 541.61,-160 541.61,-160 547.61,-160 553.61,-166 553.61,-172 553.61,-172 553.61,-184 553.61,-184 553.61,-190 547.61,-196 541.61,-196"/>
<text xml:space="preserve" text-anchor="middle" x="445" y="-175" font-family="Helvetica,sans-Serif" font-size="10.00">offDiagCoeffVec_eq_zeroDiagMatrix_mulVec</text>
</a>
</g>
</g>
<!-- n41&#45;&gt;n23 -->
<g id="edge77" class="edge">
<title>n41&#45;&gt;n23</title>
<path fill="none" stroke="#64748b" d="M553.81,-163.22C563.67,-162.09 573.52,-161 583,-160 767.13,-140.68 815.83,-156.99 998,-124 1000.65,-123.52 1003.35,-122.98 1006.07,-122.39"/>
<polygon fill="#64748b" stroke="#64748b" points="1006.51,-124.8 1012.77,-120.83 1005.4,-120.03 1006.51,-124.8"/>
</g>
<!-- n41&#45;&gt;n40 -->
<g id="edge78" class="edge">
<title>n41&#45;&gt;n40</title>
<path fill="none" stroke="#64748b" d="M442.28,-159.7C440.99,-151.47 439.42,-141.48 437.99,-132.42"/>
<polygon fill="#64748b" stroke="#64748b" points="440.43,-132.13 436.92,-125.6 435.59,-132.9 440.43,-132.13"/>
</g>
<!-- n42 -->
<g id="node34" class="node">
<title>n42</title>
<g id="a_node34"><a xlink:href="vscode://vscode-remote/wsl+Ubuntu/home/ai4stat/statlib/Statlib/HighDim/Concentration/HansonWright.lean:276" xlink:title="lemma · Statlib/HighDim/Concentration/HansonWright.lean:276" target="_blank">
<path fill="#eef2f6" stroke="#94a3b8" d="M464.04,-269.2C464.04,-269.2 311.96,-269.2 311.96,-269.2 305.96,-269.2 299.96,-263.2 299.96,-257.2 299.96,-257.2 299.96,-245.2 299.96,-245.2 299.96,-239.2 305.96,-233.2 311.96,-233.2 311.96,-233.2 464.04,-233.2 464.04,-233.2 470.04,-233.2 476.04,-239.2 476.04,-245.2 476.04,-245.2 476.04,-257.2 476.04,-257.2 476.04,-263.2 470.04,-269.2 464.04,-269.2"/>
<text xml:space="preserve" text-anchor="middle" x="388" y="-248.2" font-family="Helvetica,sans-Serif" font-size="10.00">offDiagCoeffVec_norm_le_zeroDiag</text>
</a>
</g>
</g>
<!-- n42&#45;&gt;n23 -->
<g id="edge79" class="edge">
<title>n42&#45;&gt;n23</title>
<path fill="none" stroke="#64748b" d="M476.47,-234.13C479.34,-233.79 482.19,-233.48 485,-233.2 504.02,-231.32 813.37,-236.21 829,-225.2 854.37,-207.32 830.77,-180.58 854,-160 903.39,-116.26 934.22,-140.86 998,-124 1000.74,-123.28 1003.55,-122.52 1006.38,-121.76"/>
<polygon fill="#64748b" stroke="#64748b" points="1006.82,-124.18 1012.94,-119.98 1005.54,-119.45 1006.82,-124.18"/>
</g>
<!-- n42&#45;&gt;n40 -->
<g id="edge80" class="edge">
<title>n42&#45;&gt;n40</title>
<path fill="none" stroke="#64748b" d="M333.79,-232.82C331.22,-230.58 328.91,-228.05 327,-225.2 310.86,-201.14 311.72,-184.62 327,-160 333.89,-148.91 359.9,-135.9 384.56,-125.54"/>
<polygon fill="#64748b" stroke="#64748b" points="385.2,-127.93 390.74,-123 383.34,-123.4 385.2,-127.93"/>
</g>
<!-- n42&#45;&gt;n41 -->
<g id="edge81" class="edge">
<title>n42&#45;&gt;n41</title>
<path fill="none" stroke="#64748b" d="M401.8,-232.96C409.08,-223.87 418.12,-212.57 426.05,-202.67"/>
<polygon fill="#64748b" stroke="#64748b" points="427.92,-204.25 430.38,-197.26 424.1,-201.19 427.92,-204.25"/>
</g>
<!-- n43 -->
<g id="node35" class="node">
<title>n43</title>
<g id="a_node35"><a xlink:href="vscode://vscode-remote/wsl+Ubuntu/home/ai4stat/statlib/Statlib/HighDim/Vocabulary/QuadraticForms.lean:57" xlink:title="def · Statlib/HighDim/Vocabulary/QuadraticForms.lean:57" target="_blank">
<path fill="#d6e9ff" stroke="#3b82f6" d="M184.23,-124C184.23,-124 127.77,-124 127.77,-124 121.77,-124 115.77,-118 115.77,-112 115.77,-112 115.77,-100 115.77,-100 115.77,-94 121.77,-88 127.77,-88 127.77,-88 184.23,-88 184.23,-88 190.23,-88 196.23,-94 196.23,-100 196.23,-100 196.23,-112 196.23,-112 196.23,-118 190.23,-124 184.23,-124"/>
<text xml:space="preserve" text-anchor="middle" x="156" y="-103" font-family="Helvetica,sans-Serif" font-size="10.00">diagPartMatrix</text>
</a>
</g>
</g>
<!-- n44 -->
<g id="node36" class="node">
<title>n44</title>
<g id="a_node36"><a xlink:href="vscode://vscode-remote/wsl+Ubuntu/home/ai4stat/statlib/Statlib/HighDim/Concentration/HansonWright.lean:398" xlink:title="lemma · Statlib/HighDim/Concentration/HansonWright.lean:398" target="_blank">
<path fill="#eef2f6" stroke="#94a3b8" d="M362.26,-124C362.26,-124 225.74,-124 225.74,-124 219.74,-124 213.74,-118 213.74,-112 213.74,-112 213.74,-100 213.74,-100 213.74,-94 219.74,-88 225.74,-88 225.74,-88 362.26,-88 362.26,-88 368.26,-88 374.26,-94 374.26,-100 374.26,-100 374.26,-112 374.26,-112 374.26,-118 368.26,-124 362.26,-124"/>
<text xml:space="preserve" text-anchor="middle" x="294" y="-103" font-family="Helvetica,sans-Serif" font-size="10.00">matrix_entry_abs_le_l2_opNorm</text>
</a>
</g>
</g>
<!-- n45 -->
<g id="node37" class="node">
<title>n45</title>
<g id="a_node37"><a xlink:href="vscode://vscode-remote/wsl+Ubuntu/home/ai4stat/statlib/Statlib/HighDim/Concentration/HansonWright.lean:685" xlink:title="lemma · Statlib/HighDim/Concentration/HansonWright.lean:685" target="_blank">
<path fill="#eef2f6" stroke="#94a3b8" d="M246.08,-196C246.08,-196 147.92,-196 147.92,-196 141.92,-196 135.92,-190 135.92,-184 135.92,-184 135.92,-172 135.92,-172 135.92,-166 141.92,-160 147.92,-160 147.92,-160 246.08,-160 246.08,-160 252.08,-160 258.08,-166 258.08,-172 258.08,-172 258.08,-184 258.08,-184 258.08,-190 252.08,-196 246.08,-196"/>
<text xml:space="preserve" text-anchor="middle" x="197" y="-175" font-family="Helvetica,sans-Serif" font-size="10.00">diagPartMatrix_norm_le</text>
</a>
</g>
</g>
<!-- n45&#45;&gt;n43 -->
<g id="edge82" class="edge">
<title>n45&#45;&gt;n43</title>
<path fill="none" stroke="#64748b" d="M186.87,-159.7C181.85,-151.14 175.71,-140.66 170.24,-131.3"/>
<polygon fill="#64748b" stroke="#64748b" points="172.44,-130.21 166.78,-125.41 168.21,-132.69 172.44,-130.21"/>
</g>
<!-- n45&#45;&gt;n44 -->
<g id="edge83" class="edge">
<title>n45&#45;&gt;n44</title>
<path fill="none" stroke="#64748b" d="M220.98,-159.7C233.69,-150.53 249.44,-139.16 263.06,-129.33"/>
<polygon fill="#64748b" stroke="#64748b" points="264.49,-131.32 268.73,-125.23 261.62,-127.34 264.49,-131.32"/>
</g>
<!-- n46 -->
<g id="node38" class="node">
<title>n46</title>
<g id="a_node38"><a xlink:href="vscode://vscode-remote/wsl+Ubuntu/home/ai4stat/statlib/Statlib/HighDim/Concentration/HansonWright.lean:704" xlink:title="lemma · Statlib/HighDim/Concentration/HansonWright.lean:704" target="_blank">
<path fill="#eef2f6" stroke="#94a3b8" d="M250.03,-269.2C250.03,-269.2 127.97,-269.2 127.97,-269.2 121.97,-269.2 115.97,-263.2 115.97,-257.2 115.97,-257.2 115.97,-245.2 115.97,-245.2 115.97,-239.2 121.97,-233.2 127.97,-233.2 127.97,-233.2 250.03,-233.2 250.03,-233.2 256.03,-233.2 262.03,-239.2 262.03,-245.2 262.03,-245.2 262.03,-257.2 262.03,-257.2 262.03,-263.2 256.03,-269.2 250.03,-269.2"/>
<text xml:space="preserve" text-anchor="middle" x="189" y="-248.2" font-family="Helvetica,sans-Serif" font-size="10.00">zeroDiagMatrix_norm_le_two</text>
</a>
</g>
</g>
<!-- n46&#45;&gt;n40 -->
<g id="edge84" class="edge">
<title>n46&#45;&gt;n40</title>
<path fill="none" stroke="#64748b" d="M257.16,-232.77C260.68,-230.55 264,-228.03 267,-225.2 289.55,-203.88 269.96,-181.85 292,-160 295.55,-156.48 344.86,-138.49 384.4,-124.43"/>
<polygon fill="#64748b" stroke="#64748b" points="384.95,-126.83 390.73,-122.18 383.31,-122.21 384.95,-126.83"/>
</g>
<!-- n46&#45;&gt;n43 -->
<g id="edge85" class="edge">
<title>n46&#45;&gt;n43</title>
<path fill="none" stroke="#64748b" d="M133.91,-232.9C131.29,-230.64 128.95,-228.09 127,-225.2 107.74,-196.67 124.74,-156.58 139.65,-131.2"/>
<polygon fill="#64748b" stroke="#64748b" points="141.61,-132.68 143.17,-125.43 137.43,-130.13 141.61,-132.68"/>
</g>
<!-- n46&#45;&gt;n45 -->
<g id="edge86" class="edge">
<title>n46&#45;&gt;n45</title>
<path fill="none" stroke="#64748b" d="M190.94,-232.96C191.9,-224.39 193.08,-213.87 194.15,-204.39"/>
<polygon fill="#64748b" stroke="#64748b" points="196.57,-204.81 194.91,-197.58 191.7,-204.26 196.57,-204.81"/>
</g>
<!-- n47 -->
<g id="node39" class="node">
<title>n47</title>
<g id="a_node39"><a xlink:href="vscode://vscode-remote/wsl+Ubuntu/home/ai4stat/statlib/Statlib/HighDim/Concentration/HansonWright.lean:733" xlink:title="lemma · Statlib/HighDim/Concentration/HansonWright.lean:733" target="_blank">
<path fill="#eef2f6" stroke="#94a3b8" d="M441.25,-341.2C441.25,-341.2 334.75,-341.2 334.75,-341.2 328.75,-341.2 322.75,-335.2 322.75,-329.2 322.75,-329.2 322.75,-317.2 322.75,-317.2 322.75,-311.2 328.75,-305.2 334.75,-305.2 334.75,-305.2 441.25,-305.2 441.25,-305.2 447.25,-305.2 453.25,-311.2 453.25,-317.2 453.25,-317.2 453.25,-329.2 453.25,-329.2 453.25,-335.2 447.25,-341.2 441.25,-341.2"/>
<text xml:space="preserve" text-anchor="middle" x="388" y="-320.2" font-family="Helvetica,sans-Serif" font-size="10.00">offDiagCoeffVec_norm_le</text>
</a>
</g>
</g>
<!-- n47&#45;&gt;n23 -->
<g id="edge87" class="edge">
<title>n47&#45;&gt;n23</title>
<path fill="none" stroke="#64748b" d="M453.43,-319.21C546.77,-313.91 712.48,-300.32 763,-269.2 779.59,-258.98 771.39,-243.37 788,-233.2 810.57,-219.38 826.04,-241.35 847,-225.2 871.85,-206.06 850.6,-180.88 874,-160 875.29,-158.85 951.79,-137.16 1006.01,-121.89"/>
<polygon fill="#64748b" stroke="#64748b" points="1006.63,-124.26 1012.71,-120 1005.31,-119.54 1006.63,-124.26"/>
</g>
<!-- n47&#45;&gt;n40 -->
<g id="edge88" class="edge">
<title>n47&#45;&gt;n40</title>
<path fill="none" stroke="#64748b" d="M333.22,-304.79C316.72,-296.7 300.5,-285.21 291,-269.2 282.84,-255.44 288.87,-249.06 291,-233.2 295.48,-199.77 288.88,-185.46 311,-160 316.35,-153.85 352.76,-138.53 384.59,-125.93"/>
<polygon fill="#64748b" stroke="#64748b" points="385.11,-128.36 390.73,-123.52 383.31,-123.8 385.11,-128.36"/>
</g>
<!-- n47&#45;&gt;n42 -->
<g id="edge89" class="edge">
<title>n47&#45;&gt;n42</title>
<path fill="none" stroke="#64748b" d="M388,-304.9C388,-296.67 388,-286.68 388,-277.62"/>
<polygon fill="#64748b" stroke="#64748b" points="390.45,-277.82 388,-270.82 385.55,-277.82 390.45,-277.82"/>
</g>
<!-- n47&#45;&gt;n46 -->
<g id="edge90" class="edge">
<title>n47&#45;&gt;n46</title>
<path fill="none" stroke="#64748b" d="M338.3,-304.72C310.41,-294.91 275.5,-282.63 246.44,-272.41"/>
<polygon fill="#64748b" stroke="#64748b" points="247.26,-270.1 239.84,-270.08 245.63,-274.72 247.26,-270.1"/>
</g>
<!-- n48 -->
<g id="node40" class="node">
<title>n48</title>
<g id="a_node40"><a xlink:href="vscode://vscode-remote/wsl+Ubuntu/home/ai4stat/statlib/Statlib/HighDim/Concentration/HansonWright.lean:752" xlink:title="lemma · Statlib/HighDim/Concentration/HansonWright.lean:752" target="_blank">
<path fill="#eef2f6" stroke="#94a3b8" d="M622.31,-413.2C622.31,-413.2 499.69,-413.2 499.69,-413.2 493.69,-413.2 487.69,-407.2 487.69,-401.2 487.69,-401.2 487.69,-389.2 487.69,-389.2 487.69,-383.2 493.69,-377.2 499.69,-377.2 499.69,-377.2 622.31,-377.2 622.31,-377.2 628.31,-377.2 634.31,-383.2 634.31,-389.2 634.31,-389.2 634.31,-401.2 634.31,-401.2 634.31,-407.2 628.31,-413.2 622.31,-413.2"/>
<text xml:space="preserve" text-anchor="middle" x="561" y="-392.2" font-family="Helvetica,sans-Serif" font-size="10.00">offDiagCoeffVec_norm_sq_le</text>
</a>
</g>
</g>
<!-- n48&#45;&gt;n23 -->
<g id="edge91" class="edge">
<title>n48&#45;&gt;n23</title>
<path fill="none" stroke="#64748b" d="M577.62,-376.79C597.44,-356.94 632.4,-324.7 668,-305.2 714.23,-279.88 738.04,-299.73 781,-269.2 797.3,-257.61 790.77,-243.35 808,-233.2 830.42,-220 845.3,-240.97 866,-225.2 891.08,-206.09 870.67,-181.22 894,-160 898.38,-156.02 959.74,-136.9 1006.37,-122.76"/>
<polygon fill="#64748b" stroke="#64748b" points="1006.86,-125.17 1012.85,-120.8 1005.44,-120.48 1006.86,-125.17"/>
</g>
<!-- n48&#45;&gt;n47 -->
<g id="edge92" class="edge">
<title>n48&#45;&gt;n47</title>
<path fill="none" stroke="#64748b" d="M517.79,-376.72C493.76,-366.99 463.71,-354.84 438.59,-344.67"/>
<polygon fill="#64748b" stroke="#64748b" points="439.77,-342.5 432.36,-342.15 437.93,-347.05 439.77,-342.5"/>
</g>
<!-- n49 -->
<g id="node41" class="node">
<title>n49</title>
<g id="a_node41"><a xlink:href="vscode://vscode-remote/wsl+Ubuntu/home/ai4stat/statlib/Statlib/HighDim/Concentration/HansonWright.lean:1170" xlink:title="lemma · Statlib/HighDim/Concentration/HansonWright.lean:1170" target="_blank">
<path fill="#eef2f6" stroke="#94a3b8" d="M745.72,-485.2C745.72,-485.2 560.28,-485.2 560.28,-485.2 554.28,-485.2 548.28,-479.2 548.28,-473.2 548.28,-473.2 548.28,-461.2 548.28,-461.2 548.28,-455.2 554.28,-449.2 560.28,-449.2 560.28,-449.2 745.72,-449.2 745.72,-449.2 751.72,-449.2 757.72,-455.2 757.72,-461.2 757.72,-461.2 757.72,-473.2 757.72,-473.2 757.72,-479.2 751.72,-485.2 745.72,-485.2"/>
<text xml:space="preserve" text-anchor="middle" x="653" y="-464.2" font-family="Helvetica,sans-Serif" font-size="10.00">offDiagCoeffVec_norm_sq_tail_le_norm_sq</text>
</a>
</g>
</g>
<!-- n49&#45;&gt;n23 -->
<g id="edge93" class="edge">
<title>n49&#45;&gt;n23</title>
<path fill="none" stroke="#64748b" d="M651.05,-449.19C648.35,-416.86 647.36,-346.14 684,-305.2 720,-264.98 757.08,-301.94 800,-269.2 815.1,-257.69 806.97,-243.37 823,-233.2 846.46,-218.32 863.28,-242.52 885,-225.2 909.14,-205.95 887.02,-181.69 909,-160 916.35,-152.75 966.29,-135.88 1006.56,-123.11"/>
<polygon fill="#64748b" stroke="#64748b" points="1007.09,-125.52 1013.02,-121.07 1005.61,-120.84 1007.09,-125.52"/>
</g>
<!-- n49&#45;&gt;n48 -->
<g id="edge94" class="edge">
<title>n49&#45;&gt;n48</title>
<path fill="none" stroke="#64748b" d="M630.26,-448.9C618.21,-439.73 603.26,-428.36 590.34,-418.53"/>
<polygon fill="#64748b" stroke="#64748b" points="592.06,-416.75 585,-414.46 589.09,-420.65 592.06,-416.75"/>
</g>
<!-- n50 -->
<g id="node42" class="node">
<title>n50</title>
<g id="a_node42"><a xlink:href="vscode://vscode-remote/wsl+Ubuntu/home/ai4stat/statlib/Statlib/HighDim/Concentration/HansonWright.lean:1202" xlink:title="lemma · Statlib/HighDim/Concentration/HansonWright.lean:1202" target="_blank">
<path fill="#eef2f6" stroke="#94a3b8" d="M1408.71,-557.2C1408.71,-557.2 1129.29,-557.2 1129.29,-557.2 1123.29,-557.2 1117.29,-551.2 1117.29,-545.2 1117.29,-545.2 1117.29,-533.2 1117.29,-533.2 1117.29,-527.2 1123.29,-521.2 1129.29,-521.2 1129.29,-521.2 1408.71,-521.2 1408.71,-521.2 1414.71,-521.2 1420.71,-527.2 1420.71,-533.2 1420.71,-533.2 1420.71,-545.2 1420.71,-545.2 1420.71,-551.2 1414.71,-557.2 1408.71,-557.2"/>
<text xml:space="preserve" text-anchor="middle" x="1269" y="-536.2" font-family="Helvetica,sans-Serif" font-size="10.00">decoupledOffDiagQuadForm_prod_tail_le_norm_bad_plus_good</text>
</a>
</g>
</g>
<!-- n50&#45;&gt;n0 -->
<g id="edge95" class="edge">
<title>n50&#45;&gt;n0</title>
<path fill="none" stroke="#64748b" d="M1362.95,-520.8C1385.43,-512.96 1407.85,-501.62 1425,-485.2 1487,-425.84 1441.83,-372.58 1495,-305.2 1512.41,-283.13 1525.3,-287.06 1547,-269.2 1564.72,-254.62 1563.12,-242.7 1584,-233.2 1623.37,-215.29 1640.37,-240.04 1681,-225.2 1695.46,-219.92 1709.62,-210.51 1721.01,-201.56"/>
<polygon fill="#64748b" stroke="#64748b" points="1722.33,-203.65 1726.21,-197.33 1719.23,-199.85 1722.33,-203.65"/>
</g>
<!-- n50&#45;&gt;n2 -->
<g id="edge96" class="edge">
<title>n50&#45;&gt;n2</title>
<path fill="none" stroke="#64748b" d="M1297.08,-520.86C1329.27,-499.51 1381.26,-460.24 1410,-413.2 1431.29,-378.35 1468.01,-268.22 1447,-233.2 1443.11,-226.72 1437.15,-230.73 1432,-225.2 1410.39,-201.99 1423.7,-184.03 1403,-160 1364.14,-114.88 1344.84,-111.21 1290,-88 1244.55,-68.77 1190.81,-55.73 1147.47,-47.4"/>
<polygon fill="#64748b" stroke="#64748b" points="1148.05,-45.02 1140.71,-46.13 1147.14,-49.83 1148.05,-45.02"/>
</g>
<!-- n50&#45;&gt;n39 -->
<g id="edge97" class="edge">
<title>n50&#45;&gt;n39</title>
<path fill="none" stroke="#64748b" d="M1224.04,-520.72C1198.93,-510.95 1167.51,-498.73 1141.29,-488.54"/>
<polygon fill="#64748b" stroke="#64748b" points="1142.52,-486.38 1135.11,-486.13 1140.74,-490.95 1142.52,-486.38"/>
</g>
<!-- n50&#45;&gt;n49 -->
<g id="edge98" class="edge">
<title>n50&#45;&gt;n49</title>
<path fill="none" stroke="#64748b" d="M1117.13,-520.94C1008.49,-508.6 864.63,-492.25 766.04,-481.05"/>
<polygon fill="#64748b" stroke="#64748b" points="766.57,-478.64 759.33,-480.28 766.01,-483.51 766.57,-478.64"/>
</g>
<!-- n51 -->
<g id="node43" class="node">
<title>n51</title>
<g id="a_node43"><a xlink:href="vscode://vscode-remote/wsl+Ubuntu/home/ai4stat/statlib/Statlib/HighDim/Concentration/HansonWright.lean:2517" xlink:title="lemma · Statlib/HighDim/Concentration/HansonWright.lean:2517" target="_blank">
<path fill="#eef2f6" stroke="#94a3b8" d="M1529.17,-629.2C1529.17,-629.2 1190.83,-629.2 1190.83,-629.2 1184.83,-629.2 1178.83,-623.2 1178.83,-617.2 1178.83,-617.2 1178.83,-605.2 1178.83,-605.2 1178.83,-599.2 1184.83,-593.2 1190.83,-593.2 1190.83,-593.2 1529.17,-593.2 1529.17,-593.2 1535.17,-593.2 1541.17,-599.2 1541.17,-605.2 1541.17,-605.2 1541.17,-617.2 1541.17,-617.2 1541.17,-623.2 1535.17,-629.2 1529.17,-629.2"/>
<text xml:space="preserve" text-anchor="middle" x="1360" y="-608.2" font-family="Helvetica,sans-Serif" font-size="10.00">decoupledOffDiagQuadForm_prod_tail_le_norm_bernstein_plus_good_ofReal</text>
</a>
</g>
</g>
<!-- n51&#45;&gt;n0 -->
<g id="edge99" class="edge">
<title>n51&#45;&gt;n0</title>
<path fill="none" stroke="#64748b" d="M1421.47,-592.73C1443.2,-584.45 1466.75,-572.86 1485,-557.2 1520.29,-526.92 1540,-514.7 1540,-468.2 1540,-468.2 1540,-468.2 1540,-394.2 1540,-354.09 1532.52,-338.42 1555,-305.2 1572.22,-279.76 1590.74,-289.27 1614,-269.2 1629.77,-255.59 1626.18,-243.99 1644,-233.2 1658.39,-224.49 1665.61,-231.99 1681,-225.2 1694.64,-219.18 1708.3,-210.06 1719.55,-201.5"/>
<polygon fill="#64748b" stroke="#64748b" points="1721.03,-203.46 1725.04,-197.21 1718.01,-199.6 1721.03,-203.46"/>
</g>
<!-- n51&#45;&gt;n2 -->
<g id="edge100" class="edge">
<title>n51&#45;&gt;n2</title>
<path fill="none" stroke="#64748b" d="M1394.05,-592.7C1407.56,-583.94 1421.81,-572.01 1430,-557.2 1499.91,-430.82 1510.27,-366.63 1455,-233.2 1453.08,-228.55 1449.71,-229.44 1447,-225.2 1430.36,-199.19 1441.12,-185 1423,-160 1359.95,-72.99 1231.53,-46.16 1147.4,-38.12"/>
<polygon fill="#64748b" stroke="#64748b" points="1147.85,-35.7 1140.66,-37.51 1147.41,-40.58 1147.85,-35.7"/>
</g>
<!-- n51&#45;&gt;n22 -->
<g id="edge101" class="edge">
<title>n51&#45;&gt;n22</title>
<path fill="none" stroke="#64748b" d="M1451.91,-592.72C1505.47,-582.53 1573.06,-569.67 1627.95,-559.23"/>
<polygon fill="#64748b" stroke="#64748b" points="1628.4,-561.64 1634.82,-557.93 1627.48,-556.83 1628.4,-561.64"/>
</g>
<!-- n51&#45;&gt;n50 -->
<g id="edge102" class="edge">
<title>n51&#45;&gt;n50</title>
<path fill="none" stroke="#64748b" d="M1337.51,-592.9C1325.58,-583.73 1310.8,-572.36 1298.02,-562.53"/>
<polygon fill="#64748b" stroke="#64748b" points="1299.79,-560.8 1292.75,-558.47 1296.81,-564.68 1299.79,-560.8"/>
</g>
<!-- n52 -->
<g id="node44" class="node">
<title>n52</title>
<g id="a_node44"><a xlink:href="vscode://vscode-remote/wsl+Ubuntu/home/ai4stat/statlib/Statlib/HighDim/Concentration/HansonWright.lean:2592" xlink:title="lemma · Statlib/HighDim/Concentration/HansonWright.lean:2592" target="_blank">
<path fill="#eef2f6" stroke="#94a3b8" d="M1471.93,-701.2C1471.93,-701.2 1198.07,-701.2 1198.07,-701.2 1192.07,-701.2 1186.07,-695.2 1186.07,-689.2 1186.07,-689.2 1186.07,-677.2 1186.07,-677.2 1186.07,-671.2 1192.07,-665.2 1198.07,-665.2 1198.07,-665.2 1471.93,-665.2 1471.93,-665.2 1477.93,-665.2 1483.93,-671.2 1483.93,-677.2 1483.93,-677.2 1483.93,-689.2 1483.93,-689.2 1483.93,-695.2 1477.93,-701.2 1471.93,-701.2"/>
<text xml:space="preserve" text-anchor="middle" x="1335" y="-680.2" font-family="Helvetica,sans-Serif" font-size="10.00">decoupled_zeroDiag_quadratic_form_tail_high_norm_bernstein</text>
</a>
</g>
</g>
<!-- n52&#45;&gt;n0 -->
<g id="edge103" class="edge">
<title>n52&#45;&gt;n0</title>
<path fill="none" stroke="#64748b" d="M1456.1,-664.71C1497.39,-656.23 1536.56,-644.51 1550,-629.2 1576.26,-599.29 1560,-580 1560,-540.2 1560,-540.2 1560,-540.2 1560,-394.2 1560,-354.09 1552.52,-338.42 1575,-305.2 1592.22,-279.76 1610.74,-289.27 1634,-269.2 1649.77,-255.59 1647.52,-245.94 1664,-233.2 1670.61,-228.09 1673.79,-229.41 1681,-225.2 1693.18,-218.08 1705.95,-209.32 1716.92,-201.34"/>
<polygon fill="#64748b" stroke="#64748b" points="1718.1,-203.52 1722.28,-197.39 1715.19,-199.57 1718.1,-203.52"/>
</g>
<!-- n52&#45;&gt;n2 -->
<g id="edge104" class="edge">
<title>n52&#45;&gt;n2</title>
<path fill="none" stroke="#64748b" d="M1232.68,-664.72C960.27,-615.75 229.69,-467.71 107,-269.2 85.83,-234.95 79.32,-117.25 107,-88 137.04,-56.26 760.43,-40.98 986.24,-36.47"/>
<polygon fill="#64748b" stroke="#64748b" points="986.29,-38.92 993.24,-36.33 986.19,-34.02 986.29,-38.92"/>
</g>
<!-- n52&#45;&gt;n51 -->
<g id="edge105" class="edge">
<title>n52&#45;&gt;n51</title>
<path fill="none" stroke="#64748b" d="M1341.18,-664.9C1344.18,-656.5 1347.83,-646.27 1351.12,-637.06"/>
<polygon fill="#64748b" stroke="#64748b" points="1353.34,-638.15 1353.38,-630.73 1348.72,-636.5 1353.34,-638.15"/>
</g>
<!-- n53 -->
<g id="node45" class="node">
<title>n53</title>
<g id="a_node45"><a xlink:href="vscode://vscode-remote/wsl+Ubuntu/home/ai4stat/statlib/Statlib/HighDim/Concentration/HansonWright.lean:2626" xlink:title="lemma · Statlib/HighDim/Concentration/HansonWright.lean:2626" target="_blank">
<path fill="#eef2f6" stroke="#94a3b8" d="M1530.99,-773.2C1530.99,-773.2 1221.01,-773.2 1221.01,-773.2 1215.01,-773.2 1209.01,-767.2 1209.01,-761.2 1209.01,-761.2 1209.01,-749.2 1209.01,-749.2 1209.01,-743.2 1215.01,-737.2 1221.01,-737.2 1221.01,-737.2 1530.99,-737.2 1530.99,-737.2 1536.99,-737.2 1542.99,-743.2 1542.99,-749.2 1542.99,-749.2 1542.99,-761.2 1542.99,-761.2 1542.99,-767.2 1536.99,-773.2 1530.99,-773.2"/>
<text xml:space="preserve" text-anchor="middle" x="1376" y="-752.2" font-family="Helvetica,sans-Serif" font-size="10.00">decoupled_zeroDiag_quadratic_form_tail_high_norm_bernstein_absorb</text>
</a>
</g>
</g>
<!-- n53&#45;&gt;n0 -->
<g id="edge106" class="edge">
<title>n53&#45;&gt;n0</title>
<path fill="none" stroke="#64748b" d="M1433.32,-736.71C1453.87,-728.38 1476.11,-716.76 1493,-701.2 1506.46,-688.8 1500.9,-678.93 1513,-665.2 1530.86,-644.92 1547.45,-651.98 1562,-629.2 1583.72,-595.19 1580,-580.56 1580,-540.2 1580,-540.2 1580,-540.2 1580,-394.2 1580,-354.09 1572.52,-338.42 1595,-305.2 1612.22,-279.76 1630.74,-289.27 1654,-269.2 1669.77,-255.59 1669.45,-248.1 1684,-233.2 1694.69,-222.26 1707.27,-210.99 1718.3,-201.59"/>
<polygon fill="#64748b" stroke="#64748b" points="1719.66,-203.64 1723.43,-197.26 1716.5,-199.9 1719.66,-203.64"/>
</g>
<!-- n53&#45;&gt;n1 -->
<g id="edge107" class="edge">
<title>n53&#45;&gt;n1</title>
<path fill="none" stroke="#64748b" d="M1424.2,-736.72C1451.45,-726.83 1485.62,-714.44 1513.93,-704.17"/>
<polygon fill="#64748b" stroke="#64748b" points="1514.58,-706.55 1520.32,-701.86 1512.9,-701.94 1514.58,-706.55"/>
</g>
<!-- n53&#45;&gt;n2 -->
<g id="edge108" class="edge">
<title>n53&#45;&gt;n2</title>
<path fill="none" stroke="#64748b" d="M1221.57,-736.73C877.3,-696.74 77,-597.61 77,-540.2 77,-540.2 77,-540.2 77,-177 77,-137.14 58.86,-115.2 88,-88 120.65,-57.53 757.95,-41.39 986.39,-36.57"/>
<polygon fill="#64748b" stroke="#64748b" points="986.21,-39.03 993.15,-36.43 986.11,-34.13 986.21,-39.03"/>
</g>
<!-- n53&#45;&gt;n52 -->
<g id="edge109" class="edge">
<title>n53&#45;&gt;n52</title>
<path fill="none" stroke="#64748b" d="M1365.87,-736.9C1360.85,-728.34 1354.71,-717.86 1349.24,-708.5"/>
<polygon fill="#64748b" stroke="#64748b" points="1351.44,-707.41 1345.78,-702.61 1347.21,-709.89 1351.44,-707.41"/>
</g>
<!-- n54 -->
<g id="node46" class="node">
<title>n54</title>
<g id="a_node46"><a xlink:href="vscode://vscode-remote/wsl+Ubuntu/home/ai4stat/statlib/Statlib/HighDim/Concentration/HansonWright.lean:1555" xlink:title="lemma · Statlib/HighDim/Concentration/HansonWright.lean:1555" target="_blank">
<path fill="#eef2f6" stroke="#94a3b8" d="M1178.95,-773.2C1178.95,-773.2 1059.05,-773.2 1059.05,-773.2 1053.05,-773.2 1047.05,-767.2 1047.05,-761.2 1047.05,-761.2 1047.05,-749.2 1047.05,-749.2 1047.05,-743.2 1053.05,-737.2 1059.05,-737.2 1059.05,-737.2 1178.95,-737.2 1178.95,-737.2 1184.95,-737.2 1190.95,-743.2 1190.95,-749.2 1190.95,-749.2 1190.95,-761.2 1190.95,-761.2 1190.95,-767.2 1184.95,-773.2 1178.95,-773.2"/>
<text xml:space="preserve" text-anchor="middle" x="1119" y="-752.2" font-family="Helvetica,sans-Serif" font-size="10.00">add_le_of_le_half_of_le_half</text>
</a>
</g>
</g>
<!-- n55 -->
<g id="node47" class="node">
<title>n55</title>
<g id="a_node47"><a xlink:href="vscode://vscode-remote/wsl+Ubuntu/home/ai4stat/statlib/Statlib/HighDim/Concentration/HansonWright.lean:2667" xlink:title="lemma · Statlib/HighDim/Concentration/HansonWright.lean:2667" target="_blank">
<path fill="#eef2f6" stroke="#94a3b8" d="M1285.67,-845.2C1285.67,-845.2 952.33,-845.2 952.33,-845.2 946.33,-845.2 940.33,-839.2 940.33,-833.2 940.33,-833.2 940.33,-821.2 940.33,-821.2 940.33,-815.2 946.33,-809.2 952.33,-809.2 952.33,-809.2 1285.67,-809.2 1285.67,-809.2 1291.67,-809.2 1297.67,-815.2 1297.67,-821.2 1297.67,-821.2 1297.67,-833.2 1297.67,-833.2 1297.67,-839.2 1291.67,-845.2 1285.67,-845.2"/>
<text xml:space="preserve" text-anchor="middle" x="1119" y="-824.2" font-family="Helvetica,sans-Serif" font-size="10.00">decoupled_zeroDiag_quadratic_form_tail_high_norm_bernstein_absorb_split</text>
</a>
</g>
</g>
<!-- n55&#45;&gt;n0 -->
<g id="edge110" class="edge">
<title>n55&#45;&gt;n0</title>
<path fill="none" stroke="#64748b" d="M1076.46,-808.84C1061.53,-800.43 1046.39,-788.72 1038,-773.2 1030.39,-759.13 1032.2,-752.11 1038,-737.2 1069.47,-656.29 1092.97,-633.25 1170,-593.2 1279.36,-536.33 1337.01,-616.63 1445,-557.2 1454.12,-552.18 1500.63,-494.65 1505,-485.2 1539.04,-411.5 1490.64,-372.52 1536,-305.2 1552.95,-280.04 1573.07,-291.17 1594,-269.2 1606.63,-255.95 1598.8,-243.4 1614,-233.2 1638.9,-216.48 1653.02,-236 1681,-225.2 1695.25,-219.7 1709.29,-210.36 1720.66,-201.51"/>
<polygon fill="#64748b" stroke="#64748b" points="1721.93,-203.63 1725.84,-197.33 1718.85,-199.81 1721.93,-203.63"/>
</g>
<!-- n55&#45;&gt;n1 -->
<g id="edge111" class="edge">
<title>n55&#45;&gt;n1</title>
<path fill="none" stroke="#64748b" d="M1297.95,-809.12C1412.81,-797.36 1542.29,-782.29 1552,-773.2 1569.01,-757.29 1572.03,-730 1571.55,-709.83"/>
<polygon fill="#64748b" stroke="#64748b" points="1574.01,-709.78 1571.22,-702.91 1569.11,-710.02 1574.01,-709.78"/>
</g>
<!-- n55&#45;&gt;n2 -->
<g id="edge112" class="edge">
<title>n55&#45;&gt;n2</title>
<path fill="none" stroke="#64748b" d="M940.05,-826.44C637.39,-821.96 57,-790.17 57,-612.2 57,-612.2 57,-612.2 57,-177 57,-137.2 38.04,-115.3 67,-88 100.27,-56.64 754.33,-41.03 986.28,-36.46"/>
<polygon fill="#64748b" stroke="#64748b" points="986.22,-38.91 993.18,-36.33 986.13,-34.01 986.22,-38.91"/>
</g>
<!-- n55&#45;&gt;n53 -->
<g id="edge113" class="edge">
<title>n55&#45;&gt;n53</title>
<path fill="none" stroke="#64748b" d="M1183.19,-808.72C1219.97,-798.7 1266.23,-786.1 1304.21,-775.75"/>
<polygon fill="#64748b" stroke="#64748b" points="1304.61,-778.18 1310.72,-773.98 1303.33,-773.46 1304.61,-778.18"/>
</g>
<!-- n55&#45;&gt;n54 -->
<g id="edge114" class="edge">
<title>n55&#45;&gt;n54</title>
<path fill="none" stroke="#64748b" d="M1119,-808.9C1119,-800.67 1119,-790.68 1119,-781.62"/>
<polygon fill="#64748b" stroke="#64748b" points="1121.45,-781.82 1119,-774.82 1116.55,-781.82 1121.45,-781.82"/>
</g>
<!-- n56 -->
<g id="node48" class="node">
<title>n56</title>
<g id="a_node48"><a xlink:href="vscode://vscode-remote/wsl+Ubuntu/home/ai4stat/statlib/Statlib/HighDim/Concentration/HansonWright.lean:1647" xlink:title="lemma · Statlib/HighDim/Concentration/HansonWright.lean:1647" target="_blank">
<path fill="#eef2f6" stroke="#94a3b8" d="M1542.48,-845.2C1542.48,-845.2 1327.52,-845.2 1327.52,-845.2 1321.52,-845.2 1315.52,-839.2 1315.52,-833.2 1315.52,-833.2 1315.52,-821.2 1315.52,-821.2 1315.52,-815.2 1321.52,-809.2 1327.52,-809.2 1327.52,-809.2 1542.48,-809.2 1542.48,-809.2 1548.48,-809.2 1554.48,-815.2 1554.48,-821.2 1554.48,-821.2 1554.48,-833.2 1554.48,-833.2 1554.48,-839.2 1548.48,-845.2 1542.48,-845.2"/>
<text xml:space="preserve" text-anchor="middle" x="1435" y="-824.2" font-family="Helvetica,sans-Serif" font-size="10.00">two_mul_exp_neg_le_half_exp_neg_hanson_high</text>
</a>
</g>
</g>
<!-- n57 -->
<g id="node49" class="node">
<title>n57</title>
<g id="a_node49"><a xlink:href="vscode://vscode-remote/wsl+Ubuntu/home/ai4stat/statlib/Statlib/HighDim/Concentration/HansonWright.lean:2711" xlink:title="lemma · Statlib/HighDim/Concentration/HansonWright.lean:2711" target="_blank">
<path fill="#eef2f6" stroke="#94a3b8" d="M1448.8,-917.2C1448.8,-917.2 1073.2,-917.2 1073.2,-917.2 1067.2,-917.2 1061.2,-911.2 1061.2,-905.2 1061.2,-905.2 1061.2,-893.2 1061.2,-893.2 1061.2,-887.2 1067.2,-881.2 1073.2,-881.2 1073.2,-881.2 1448.8,-881.2 1448.8,-881.2 1454.8,-881.2 1460.8,-887.2 1460.8,-893.2 1460.8,-893.2 1460.8,-905.2 1460.8,-905.2 1460.8,-911.2 1454.8,-917.2 1448.8,-917.2"/>
<text xml:space="preserve" text-anchor="middle" x="1261" y="-896.2" font-family="Helvetica,sans-Serif" font-size="10.00">decoupled_zeroDiag_quadratic_form_tail_high_norm_bernstein_absorb_of_exponents</text>
</a>
</g>
</g>
<!-- n57&#45;&gt;n0 -->
<g id="edge115" class="edge">
<title>n57&#45;&gt;n0</title>
<path fill="none" stroke="#64748b" d="M1461.21,-881.1C1512.03,-873.17 1557.71,-861.7 1577,-845.2 1704.57,-736.08 1600,-636.07 1600,-468.2 1600,-468.2 1600,-468.2 1600,-394.2 1600,-329.64 1641.88,-325.2 1674,-269.2 1683.11,-253.32 1683.13,-247.93 1694,-233.2 1702.13,-222.18 1712.34,-211.09 1721.56,-201.83"/>
<polygon fill="#64748b" stroke="#64748b" points="1723.09,-203.75 1726.36,-197.09 1719.65,-200.26 1723.09,-203.75"/>
</g>
<!-- n57&#45;&gt;n1 -->
<g id="edge116" class="edge">
<title>n57&#45;&gt;n1</title>
<path fill="none" stroke="#64748b" d="M1460.93,-882.38C1507.29,-874.52 1547.61,-862.77 1563,-845.2 1595.84,-807.7 1585.87,-744.39 1576.77,-709.37"/>
<polygon fill="#64748b" stroke="#64748b" points="1579.23,-709.09 1575.02,-702.99 1574.51,-710.39 1579.23,-709.09"/>
</g>
<!-- n57&#45;&gt;n2 -->
<g id="edge117" class="edge">
<title>n57&#45;&gt;n2</title>
<path fill="none" stroke="#64748b" d="M1060.97,-884.95C797.58,-865.75 349.64,-826.57 194,-773.2 99.46,-740.78 37,-712.15 37,-612.2 37,-612.2 37,-612.2 37,-177 37,-137.2 18.02,-115.29 47,-88 81.05,-55.94 751.88,-40.72 986.68,-36.37"/>
<polygon fill="#64748b" stroke="#64748b" points="986.38,-38.82 993.33,-36.24 986.29,-33.92 986.38,-38.82"/>
</g>
<!-- n57&#45;&gt;n55 -->
<g id="edge118" class="edge">
<title>n57&#45;&gt;n55</title>
<path fill="none" stroke="#64748b" d="M1225.53,-880.72C1206.16,-871.17 1182.03,-859.27 1161.63,-849.21"/>
<polygon fill="#64748b" stroke="#64748b" points="1162.73,-847.03 1155.37,-846.13 1160.57,-851.42 1162.73,-847.03"/>
</g>
<!-- n57&#45;&gt;n56 -->
<g id="edge119" class="edge">
<title>n57&#45;&gt;n56</title>
<path fill="none" stroke="#64748b" d="M1304.46,-880.72C1328.63,-870.99 1358.85,-858.84 1384.12,-848.67"/>
<polygon fill="#64748b" stroke="#64748b" points="1384.81,-851.03 1390.39,-846.15 1382.98,-846.49 1384.81,-851.03"/>
</g>
<!-- n58 -->
<g id="node50" class="node">
<title>n58</title>
<g id="a_node50"><a xlink:href="vscode://vscode-remote/wsl+Ubuntu/home/ai4stat/statlib/Statlib/HighDim/Concentration/HansonWright.lean:2782" xlink:title="lemma · Statlib/HighDim/Concentration/HansonWright.lean:2782" target="_blank">
<path fill="#eef2f6" stroke="#94a3b8" stroke-width="3" d="M842.75,-989.2C842.75,-989.2 465.25,-989.2 465.25,-989.2 459.25,-989.2 453.25,-983.2 453.25,-977.2 453.25,-977.2 453.25,-965.2 453.25,-965.2 453.25,-959.2 459.25,-953.2 465.25,-953.2 465.25,-953.2 842.75,-953.2 842.75,-953.2 848.75,-953.2 854.75,-959.2 854.75,-965.2 854.75,-965.2 854.75,-977.2 854.75,-977.2 854.75,-983.2 848.75,-989.2 842.75,-989.2"/>
<text xml:space="preserve" text-anchor="middle" x="654" y="-968.2" font-family="Helvetica,sans-Serif" font-size="10.00">decoupled_zeroDiag_quadratic_form_tail_high_norm_bernstein_absorb_of_exponents&#39;</text>
</a>
</g>
</g>
<!-- n58&#45;&gt;n0 -->
<g id="edge120" class="edge">
<title>n58&#45;&gt;n0</title>
<path fill="none" stroke="#64748b" d="M668.79,-951.8C720.76,-888.64 902.96,-679.74 1106,-593.2 1172.64,-564.79 1373.58,-602.64 1430,-557.2 1441.51,-547.93 1505.91,-316.85 1515,-305.2 1533.2,-281.87 1550.11,-290.15 1571,-269.2 1584.41,-255.76 1577.78,-243.08 1594,-233.2 1610.58,-223.1 1662.79,-231.94 1681,-225.2 1695.43,-219.85 1709.59,-210.44 1720.99,-201.49"/>
<polygon fill="#64748b" stroke="#64748b" points="1722.3,-203.59 1726.19,-197.27 1719.21,-199.78 1722.3,-203.59"/>
</g>
<!-- n58&#45;&gt;n1 -->
<g id="edge121" class="edge">
<title>n58&#45;&gt;n1</title>
<path fill="none" stroke="#64748b" d="M855.94,-969.07C1060.08,-965.8 1360.57,-954.51 1470,-917.2 1524.25,-898.7 1545.98,-893.4 1577,-845.2 1603.14,-804.59 1597.67,-784.71 1589,-737.2 1587.27,-727.72 1583.93,-717.73 1580.47,-709.01"/>
<polygon fill="#64748b" stroke="#64748b" points="1582.84,-708.33 1577.89,-702.81 1578.32,-710.21 1582.84,-708.33"/>
</g>
<!-- n58&#45;&gt;n2 -->
<g id="edge122" class="edge">
<title>n58&#45;&gt;n2</title>
<path fill="none" stroke="#64748b" d="M452.01,-963.48C265.44,-951.6 17,-918.77 17,-828.2 17,-828.2 17,-828.2 17,-177 17,-137.2 -1.99,-115.27 27,-88 61.79,-55.27 748.11,-40.46 986.36,-36.29"/>
<polygon fill="#64748b" stroke="#64748b" points="986.18,-38.74 993.13,-36.17 986.09,-33.84 986.18,-38.74"/>
</g>
<!-- n58&#45;&gt;n57 -->
<g id="edge123" class="edge">
<title>n58&#45;&gt;n57</title>
<path fill="none" stroke="#64748b" d="M814.28,-951.72C902.92,-941.49 1012.71,-928.83 1101.27,-918.62"/>
<polygon fill="#64748b" stroke="#64748b" points="1101.32,-921.08 1108,-917.84 1100.76,-916.21 1101.32,-921.08"/>
</g>
<!-- n11 -->
<g id="node53" class="node">
<title>n11</title>
<g id="a_node53"><a xlink:href="vscode://vscode-remote/wsl+Ubuntu/home/ai4stat/statlib/Statlib/StatFoundation/RandomVariable/SubGaussian/subgaussian_meas_abs_ge_le_two_exp.lean:9" xlink:title="theorem · Statlib/StatFoundation/RandomVariable/SubGaussian/subgaussian_meas_abs_ge_le_two_exp.lean:9" target="_blank">
<path fill="#ffe6a3" stroke="#d4a017" d="M2815.34,-52C2815.34,-52 2642.66,-52 2642.66,-52 2636.66,-52 2630.66,-46 2630.66,-40 2630.66,-40 2630.66,-28 2630.66,-28 2630.66,-22 2636.66,-16 2642.66,-16 2642.66,-16 2815.34,-16 2815.34,-16 2821.34,-16 2827.34,-22 2827.34,-28 2827.34,-28 2827.34,-40 2827.34,-40 2827.34,-46 2821.34,-52 2815.34,-52"/>
<text xml:space="preserve" text-anchor="middle" x="2729" y="-31" font-family="Helvetica,sans-Serif" font-size="10.00">subgaussian_meas_abs_ge_le_two_exp</text>
</a>
</g>
</g>
<!-- n12&#45;&gt;n11 -->
<g id="edge12" class="edge">
<title>n12&#45;&gt;n11</title>
<path fill="none" stroke="#64748b" d="M2901.55,-87.52C2868.91,-77.58 2827.93,-65.11 2794.1,-54.81"/>
<polygon fill="#64748b" stroke="#64748b" points="2794.97,-52.52 2787.56,-52.82 2793.54,-57.2 2794.97,-52.52"/>
</g>
<!-- n14 -->
<g id="node55" class="node">
<title>n14</title>
<g id="a_node55"><a xlink:href="vscode://vscode-remote/wsl+Ubuntu/home/ai4stat/statlib/Statlib/StatFoundation/RandomVariable/SubExponential/subexp_mgf_le_of_sq_subgaussian.lean:13" xlink:title="lemma · Statlib/StatFoundation/RandomVariable/SubExponential/subexp_mgf_le_of_sq_subgaussian.lean:13" target="_blank">
<path fill="#eef2f6" stroke="#94a3b8" d="M2818.2,-124C2818.2,-124 2737.8,-124 2737.8,-124 2731.8,-124 2725.8,-118 2725.8,-112 2725.8,-112 2725.8,-100 2725.8,-100 2725.8,-94 2731.8,-88 2737.8,-88 2737.8,-88 2818.2,-88 2818.2,-88 2824.2,-88 2830.2,-94 2830.2,-100 2830.2,-100 2830.2,-112 2830.2,-112 2830.2,-118 2824.2,-124 2818.2,-124"/>
<text xml:space="preserve" text-anchor="middle" x="2778" y="-103" font-family="Helvetica,sans-Serif" font-size="10.00">sub_gauss_tail_abs</text>
</a>
</g>
</g>
<!-- n15 -->
<g id="node56" class="node">
<title>n15</title>
<g id="a_node56"><a xlink:href="vscode://vscode-remote/wsl+Ubuntu/home/ai4stat/statlib/Statlib/StatFoundation/RandomVariable/SubGaussian/sq_le_two_mul_exp.lean:10" xlink:title="lemma · Statlib/StatFoundation/RandomVariable/SubGaussian/sq_le_two_mul_exp.lean:10" target="_blank">
<path fill="#eef2f6" stroke="#94a3b8" d="M2696.19,-124C2696.19,-124 2615.81,-124 2615.81,-124 2609.81,-124 2603.81,-118 2603.81,-112 2603.81,-112 2603.81,-100 2603.81,-100 2603.81,-94 2609.81,-88 2615.81,-88 2615.81,-88 2696.19,-88 2696.19,-88 2702.19,-88 2708.19,-94 2708.19,-100 2708.19,-100 2708.19,-112 2708.19,-112 2708.19,-118 2702.19,-124 2696.19,-124"/>
<text xml:space="preserve" text-anchor="middle" x="2656" y="-103" font-family="Helvetica,sans-Serif" font-size="10.00">sq_le_two_mul_exp</text>
</a>
</g>
</g>
<!-- n16 -->
<g id="node57" class="node">
<title>n16</title>
<g id="a_node57"><a xlink:href="vscode://vscode-remote/wsl+Ubuntu/home/ai4stat/statlib/Statlib/StatFoundation/RandomVariable/SubGaussian/subgaussian_exp_sq_le_at_one_third.lean:14" xlink:title="theorem · Statlib/StatFoundation/RandomVariable/SubGaussian/subgaussian_exp_sq_le_at_one_third.lean:14" target="_blank">
<path fill="#ffe6a3" stroke="#d4a017" d="M2574.23,-124C2574.23,-124 2413.77,-124 2413.77,-124 2407.77,-124 2401.77,-118 2401.77,-112 2401.77,-112 2401.77,-100 2401.77,-100 2401.77,-94 2407.77,-88 2413.77,-88 2413.77,-88 2574.23,-88 2574.23,-88 2580.23,-88 2586.23,-94 2586.23,-100 2586.23,-100 2586.23,-112 2586.23,-112 2586.23,-118 2580.23,-124 2574.23,-124"/>
<text xml:space="preserve" text-anchor="middle" x="2494" y="-103" font-family="Helvetica,sans-Serif" font-size="10.00">subgaussian_exp_sq_le_at_one_third</text>
</a>
</g>
</g>
<!-- n16&#45;&gt;n11 -->
<g id="edge16" class="edge">
<title>n16&#45;&gt;n11</title>
<path fill="none" stroke="#64748b" d="M2552.69,-87.52C2586.19,-77.54 2628.27,-65 2662.92,-54.68"/>
<polygon fill="#64748b" stroke="#64748b" points="2663.19,-57.16 2669.2,-52.81 2661.79,-52.46 2663.19,-57.16"/>
</g>
<!-- n17&#45;&gt;n12 -->
<g id="edge20" class="edge">
<title>n17&#45;&gt;n12</title>
<path fill="none" stroke="#64748b" d="M2730.18,-159.52C2774.2,-149.41 2829.66,-136.68 2874.96,-126.29"/>
<polygon fill="#64748b" stroke="#64748b" points="2875.25,-128.73 2881.53,-124.78 2874.16,-123.96 2875.25,-128.73"/>
</g>
<!-- n17&#45;&gt;n14 -->
<g id="edge17" class="edge">
<title>n17&#45;&gt;n14</title>
<path fill="none" stroke="#64748b" d="M2684.97,-159.52C2701.67,-150.09 2722.41,-138.38 2740.07,-128.41"/>
<polygon fill="#64748b" stroke="#64748b" points="2741.21,-130.58 2746.11,-125 2738.81,-126.31 2741.21,-130.58"/>
</g>
<!-- n17&#45;&gt;n15 -->
<g id="edge18" class="edge">
<title>n17&#45;&gt;n15</title>
<path fill="none" stroke="#64748b" d="M2654.49,-159.7C2654.73,-151.47 2655.01,-141.48 2655.27,-132.42"/>
<polygon fill="#64748b" stroke="#64748b" points="2657.72,-132.68 2655.47,-125.62 2652.82,-132.54 2657.72,-132.68"/>
</g>
<!-- n17&#45;&gt;n16 -->
<g id="edge19" class="edge">
<title>n17&#45;&gt;n16</title>
<path fill="none" stroke="#64748b" d="M2614.04,-159.52C2592,-149.88 2564.5,-137.84 2541.39,-127.73"/>
<polygon fill="#64748b" stroke="#64748b" points="2542.51,-125.55 2535.12,-124.99 2540.55,-130.04 2542.51,-125.55"/>
</g>
<!-- n20&#45;&gt;n10 -->
<g id="edge28" class="edge">
<title>n20&#45;&gt;n10</title>
<path fill="none" stroke="#64748b" d="M2948.19,-159.52C2988.08,-149.14 3038.61,-135.99 3079.13,-125.44"/>
<polygon fill="#64748b" stroke="#64748b" points="3079.74,-127.82 3085.89,-123.68 3078.5,-123.07 3079.74,-127.82"/>
</g>
</g>
</svg>
