<?xml version="1.0" encoding="UTF-8" standalone="no"?>
<!DOCTYPE svg PUBLIC "-//W3C//DTD SVG 1.1//EN"
 "http://www.w3.org/Graphics/SVG/1.1/DTD/svg11.dtd">
<!-- Generated by graphviz version 15.0.0 (20260523.1842)
 -->
<!-- Title: decoupledOffDiagQuadForm_prod_tail_le_lintegral_frobenius Pages: 1 -->
<svg width="2225pt" height="627pt"
 viewBox="0.00 0.00 2225.00 627.00" xmlns="http://www.w3.org/2000/svg" xmlns:xlink="http://www.w3.org/1999/xlink">
<g id="graph0" class="graph" transform="scale(1 1) rotate(0) translate(4 623.2)">
<title>decoupledOffDiagQuadForm_prod_tail_le_lintegral_frobenius</title>
<polygon fill="white" stroke="none" points="-4,4 -4,-623.2 2221,-623.2 2221,4 -4,4"/>
<text xml:space="preserve" text-anchor="middle" x="1108.5" y="-602.6" font-family="Helvetica,sans-Serif" font-size="14.00">Proof narrative — decoupledOffDiagQuadForm_prod_tail_le_lintegral_frobenius &#160;(32 decls)</text>
<g id="clust1" class="cluster">
<title>cluster_0</title>
<path fill="none" stroke="#cbd5e1" stroke-dasharray="5,2" d="M20,-8C20,-8 1649,-8 1649,-8 1655,-8 1661,-14 1661,-20 1661,-20 1661,-574.4 1661,-574.4 1661,-580.4 1655,-586.4 1649,-586.4 1649,-586.4 20,-586.4 20,-586.4 14,-586.4 8,-580.4 8,-574.4 8,-574.4 8,-20 8,-20 8,-14 14,-8 20,-8"/>
<text xml:space="preserve" text-anchor="middle" x="834.5" y="-572.5" font-family="Helvetica,sans-Serif" font-size="11.00">HighDim</text>
</g>
<g id="clust2" class="cluster">
<title>cluster_1</title>
<path fill="none" stroke="#cbd5e1" stroke-dasharray="5,2" d="M1681,-296C1681,-296 2197,-296 2197,-296 2203,-296 2209,-302 2209,-308 2209,-308 2209,-357.2 2209,-357.2 2209,-363.2 2203,-369.2 2197,-369.2 2197,-369.2 1681,-369.2 1681,-369.2 1675,-369.2 1669,-363.2 1669,-357.2 1669,-357.2 1669,-308 1669,-308 1669,-302 1675,-296 1681,-296"/>
<text xml:space="preserve" text-anchor="middle" x="1939" y="-355.3" font-family="Helvetica,sans-Serif" font-size="11.00">StatFoundation</text>
</g>
<!-- n0 -->
<g id="node1" class="node">
<title>n0</title>
<g id="a_node1"><a xlink:href="https://github.com/statopia/statlib/blob/main/Statlib/HighDim/Vocabulary/RandomVector.lean#L52" xlink:title="structure · Statlib/HighDim/Vocabulary/RandomVector.lean:52" target="_blank">
<path fill="#e8dcff" stroke="#8b5cf6" d="M1283.36,-268C1283.36,-268 1194.64,-268 1194.64,-268 1188.64,-268 1182.64,-262 1182.64,-256 1182.64,-256 1182.64,-244 1182.64,-244 1182.64,-238 1188.64,-232 1194.64,-232 1194.64,-232 1283.36,-232 1283.36,-232 1289.36,-232 1295.36,-238 1295.36,-244 1295.36,-244 1295.36,-256 1295.36,-256 1295.36,-262 1289.36,-268 1283.36,-268"/>
<text xml:space="preserve" text-anchor="middle" x="1239" y="-247" font-family="Helvetica,sans-Serif" font-size="10.00">IsSubGaussianVector</text>
</a>
</g>
</g>
<!-- n1 -->
<g id="node2" class="node">
<title>n1</title>
<g id="a_node2"><a xlink:href="https://github.com/statopia/statlib/blob/main/Statlib/HighDim/Vocabulary/QuadraticForms.lean#L33" xlink:title="noncomputable def · Statlib/HighDim/Vocabulary/QuadraticForms.lean:33" target="_blank">
<path fill="#d6e9ff" stroke="#3b82f6" d="M1411.92,-52C1411.92,-52 1292.08,-52 1292.08,-52 1286.08,-52 1280.08,-46 1280.08,-40 1280.08,-40 1280.08,-28 1280.08,-28 1280.08,-22 1286.08,-16 1292.08,-16 1292.08,-16 1411.92,-16 1411.92,-16 1417.92,-16 1423.92,-22 1423.92,-28 1423.92,-28 1423.92,-40 1423.92,-40 1423.92,-46 1417.92,-52 1411.92,-52"/>
<text xml:space="preserve" text-anchor="middle" x="1352" y="-31" font-family="Helvetica,sans-Serif" font-size="10.00">decoupledOffDiagQuadForm</text>
</a>
</g>
</g>
<!-- n2 -->
<g id="node3" class="node">
<title>n2</title>
<g id="a_node3"><a xlink:href="https://github.com/statopia/statlib/blob/main/Statlib/HighDim/Vocabulary/Norms.lean#L37" xlink:title="noncomputable def · Statlib/HighDim/Vocabulary/Norms.lean:37" target="_blank">
<path fill="#d6e9ff" stroke="#3b82f6" d="M97.91,-124C97.91,-124 28.09,-124 28.09,-124 22.09,-124 16.09,-118 16.09,-112 16.09,-112 16.09,-100 16.09,-100 16.09,-94 22.09,-88 28.09,-88 28.09,-88 97.91,-88 97.91,-88 103.91,-88 109.91,-94 109.91,-100 109.91,-100 109.91,-112 109.91,-112 109.91,-118 103.91,-124 97.91,-124"/>
<text xml:space="preserve" text-anchor="middle" x="63" y="-103" font-family="Helvetica,sans-Serif" font-size="10.00">frobeniusNormSq</text>
</a>
</g>
</g>
<!-- n3 -->
<g id="node4" class="node">
<title>n3</title>
<g id="a_node4"><a xlink:href="https://github.com/statopia/statlib/blob/main/Statlib/HighDim/Concentration/HansonWright.lean#L90" xlink:title="lemma · Statlib/HighDim/Concentration/HansonWright.lean:90" target="_blank">
<path fill="#eef2f6" stroke="#94a3b8" d="M1580.83,-124C1580.83,-124 1403.17,-124 1403.17,-124 1397.17,-124 1391.17,-118 1391.17,-112 1391.17,-112 1391.17,-100 1391.17,-100 1391.17,-94 1397.17,-88 1403.17,-88 1403.17,-88 1580.83,-88 1580.83,-88 1586.83,-88 1592.83,-94 1592.83,-100 1592.83,-100 1592.83,-112 1592.83,-112 1592.83,-118 1586.83,-124 1580.83,-124"/>
<text xml:space="preserve" text-anchor="middle" x="1492" y="-103" font-family="Helvetica,sans-Serif" font-size="10.00">decoupledOffDiagQuadForm_measurable</text>
</a>
</g>
</g>
<!-- n3&#45;&gt;n1 -->
<g id="edge1" class="edge">
<title>n3&#45;&gt;n1</title>
<path fill="none" stroke="#64748b" d="M1457.03,-87.52C1437.93,-77.97 1414.14,-66.07 1394.03,-56.01"/>
<polygon fill="#64748b" stroke="#64748b" points="1395.23,-53.88 1387.87,-52.94 1393.04,-58.26 1395.23,-53.88"/>
</g>
<!-- n4 -->
<g id="node5" class="node">
<title>n4</title>
<g id="a_node5"><a xlink:href="https://github.com/statopia/statlib/blob/main/Statlib/HighDim/Concentration/HansonWright.lean#L99" xlink:title="lemma · Statlib/HighDim/Concentration/HansonWright.lean:99" target="_blank">
<path fill="#eef2f6" stroke="#94a3b8" d="M1600.62,-196C1600.62,-196 1397.38,-196 1397.38,-196 1391.38,-196 1385.38,-190 1385.38,-184 1385.38,-184 1385.38,-172 1385.38,-172 1385.38,-166 1391.38,-160 1397.38,-160 1397.38,-160 1600.62,-160 1600.62,-160 1606.62,-160 1612.62,-166 1612.62,-172 1612.62,-172 1612.62,-184 1612.62,-184 1612.62,-190 1606.62,-196 1600.62,-196"/>
<text xml:space="preserve" text-anchor="middle" x="1499" y="-175" font-family="Helvetica,sans-Serif" font-size="10.00">decoupledOffDiagQuadForm_prod_measurable</text>
</a>
</g>
</g>
<!-- n4&#45;&gt;n1 -->
<g id="edge2" class="edge">
<title>n4&#45;&gt;n1</title>
<path fill="none" stroke="#64748b" d="M1558.71,-159.58C1575.65,-151.57 1592.15,-140.14 1602,-124 1610.33,-110.34 1612.07,-100.43 1602,-88 1580.84,-61.88 1497.15,-48.12 1432.36,-41.23"/>
<polygon fill="#64748b" stroke="#64748b" points="1432.88,-38.82 1425.66,-40.54 1432.38,-43.69 1432.88,-38.82"/>
</g>
<!-- n4&#45;&gt;n3 -->
<g id="edge3" class="edge">
<title>n4&#45;&gt;n3</title>
<path fill="none" stroke="#64748b" d="M1497.27,-159.7C1496.45,-151.47 1495.45,-141.48 1494.54,-132.42"/>
<polygon fill="#64748b" stroke="#64748b" points="1497,-132.33 1493.86,-125.61 1492.12,-132.82 1497,-132.33"/>
</g>
<!-- n5 -->
<g id="node6" class="node">
<title>n5</title>
<g id="a_node6"><a xlink:href="https://github.com/statopia/statlib/blob/main/Statlib/HighDim/Concentration/HansonWright.lean#L109" xlink:title="lemma · Statlib/HighDim/Concentration/HansonWright.lean:109" target="_blank">
<path fill="#eef2f6" stroke="#94a3b8" d="M1621.29,-268C1621.29,-268 1384.71,-268 1384.71,-268 1378.71,-268 1372.71,-262 1372.71,-256 1372.71,-256 1372.71,-244 1372.71,-244 1372.71,-238 1378.71,-232 1384.71,-232 1384.71,-232 1621.29,-232 1621.29,-232 1627.29,-232 1633.29,-238 1633.29,-244 1633.29,-244 1633.29,-256 1633.29,-256 1633.29,-262 1627.29,-268 1621.29,-268"/>
<text xml:space="preserve" text-anchor="middle" x="1503" y="-247" font-family="Helvetica,sans-Serif" font-size="10.00">decoupledOffDiagQuadForm_prod_tail_measurableSet</text>
</a>
</g>
</g>
<!-- n5&#45;&gt;n1 -->
<g id="edge4" class="edge">
<title>n5&#45;&gt;n1</title>
<path fill="none" stroke="#64748b" d="M1576.72,-231.51C1594.5,-223.65 1611.41,-212.31 1622,-196 1635.52,-175.18 1618.78,-97.11 1610,-88 1585.81,-62.89 1498.91,-48.89 1432.58,-41.67"/>
<polygon fill="#64748b" stroke="#64748b" points="1432.92,-39.25 1425.7,-40.94 1432.4,-44.12 1432.92,-39.25"/>
</g>
<!-- n5&#45;&gt;n4 -->
<g id="edge5" class="edge">
<title>n5&#45;&gt;n4</title>
<path fill="none" stroke="#64748b" d="M1502.01,-231.7C1501.54,-223.47 1500.97,-213.48 1500.45,-204.42"/>
<polygon fill="#64748b" stroke="#64748b" points="1502.91,-204.46 1500.06,-197.62 1498.02,-204.74 1502.91,-204.46"/>
</g>
<!-- n6 -->
<g id="node7" class="node">
<title>n6</title>
<g id="a_node7"><a xlink:href="https://github.com/statopia/statlib/blob/main/Statlib/HighDim/Concentration/HansonWright.lean#L402" xlink:title="lemma · Statlib/HighDim/Concentration/HansonWright.lean:402" target="_blank">
<path fill="#eef2f6" stroke="#94a3b8" d="M156.37,-340C156.37,-340 47.63,-340 47.63,-340 41.63,-340 35.63,-334 35.63,-328 35.63,-328 35.63,-316 35.63,-316 35.63,-310 41.63,-304 47.63,-304 47.63,-304 156.37,-304 156.37,-304 162.37,-304 168.37,-310 168.37,-316 168.37,-316 168.37,-328 168.37,-328 168.37,-334 162.37,-340 156.37,-340"/>
<text xml:space="preserve" text-anchor="middle" x="102" y="-319" font-family="Helvetica,sans-Serif" font-size="10.00">frobeniusNormSq_nonneg</text>
</a>
</g>
</g>
<!-- n6&#45;&gt;n2 -->
<g id="edge6" class="edge">
<title>n6&#45;&gt;n2</title>
<path fill="none" stroke="#64748b" d="M79.14,-303.73C68.75,-294.43 57.56,-281.99 52,-268 34.05,-222.83 45.49,-164.93 54.72,-132.31"/>
<polygon fill="#64748b" stroke="#64748b" points="57.05,-133.06 56.69,-125.65 52.35,-131.67 57.05,-133.06"/>
</g>
<!-- n7 -->
<g id="node8" class="node">
<title>n7</title>
<g id="a_node8"><a xlink:href="https://github.com/statopia/statlib/blob/main/Statlib/HighDim/Vocabulary/QuadraticForms.lean#L46" xlink:title="noncomputable def · Statlib/HighDim/Vocabulary/QuadraticForms.lean:46" target="_blank">
<path fill="#d6e9ff" stroke="#3b82f6" d="M864.41,-52C864.41,-52 799.59,-52 799.59,-52 793.59,-52 787.59,-46 787.59,-40 787.59,-40 787.59,-28 787.59,-28 787.59,-22 793.59,-16 799.59,-16 799.59,-16 864.41,-16 864.41,-16 870.41,-16 876.41,-22 876.41,-28 876.41,-28 876.41,-40 876.41,-40 876.41,-46 870.41,-52 864.41,-52"/>
<text xml:space="preserve" text-anchor="middle" x="832" y="-31" font-family="Helvetica,sans-Serif" font-size="10.00">offDiagCoeffVec</text>
</a>
</g>
</g>
<!-- n8 -->
<g id="node9" class="node">
<title>n8</title>
<g id="a_node9"><a xlink:href="https://github.com/statopia/statlib/blob/main/Statlib/HighDim/Vocabulary/QuadraticForms.lean#L52" xlink:title="def · Statlib/HighDim/Vocabulary/QuadraticForms.lean:52" target="_blank">
<path fill="#d6e9ff" stroke="#3b82f6" d="M188.62,-52C188.62,-52 129.38,-52 129.38,-52 123.38,-52 117.38,-46 117.38,-40 117.38,-40 117.38,-28 117.38,-28 117.38,-22 123.38,-16 129.38,-16 129.38,-16 188.62,-16 188.62,-16 194.62,-16 200.62,-22 200.62,-28 200.62,-28 200.62,-40 200.62,-40 200.62,-46 194.62,-52 188.62,-52"/>
<text xml:space="preserve" text-anchor="middle" x="159" y="-31" font-family="Helvetica,sans-Serif" font-size="10.00">zeroDiagMatrix</text>
</a>
</g>
</g>
<!-- n9 -->
<g id="node10" class="node">
<title>n9</title>
<g id="a_node10"><a xlink:href="https://github.com/statopia/statlib/blob/main/Statlib/HighDim/Vocabulary/QuadraticForms.lean#L62" xlink:title="noncomputable def · Statlib/HighDim/Vocabulary/QuadraticForms.lean:62" target="_blank">
<path fill="#d6e9ff" stroke="#3b82f6" d="M532.23,-124C532.23,-124 475.77,-124 475.77,-124 469.77,-124 463.77,-118 463.77,-112 463.77,-112 463.77,-100 463.77,-100 463.77,-94 469.77,-88 475.77,-88 475.77,-88 532.23,-88 532.23,-88 538.23,-88 544.23,-94 544.23,-100 544.23,-100 544.23,-112 544.23,-112 544.23,-118 538.23,-124 532.23,-124"/>
<text xml:space="preserve" text-anchor="middle" x="504" y="-103" font-family="Helvetica,sans-Serif" font-size="10.00">matrixRowVec</text>
</a>
</g>
</g>
<!-- n10 -->
<g id="node11" class="node">
<title>n10</title>
<g id="a_node11"><a xlink:href="https://github.com/statopia/statlib/blob/main/Statlib/HighDim/Vocabulary/Norms.lean#L13" xlink:title="noncomputable def · Statlib/HighDim/Vocabulary/Norms.lean:13" target="_blank">
<path fill="#d6e9ff" stroke="#3b82f6" d="M652.23,-52C652.23,-52 615.77,-52 615.77,-52 609.77,-52 603.77,-46 603.77,-40 603.77,-40 603.77,-28 603.77,-28 603.77,-22 609.77,-16 615.77,-16 615.77,-16 652.23,-16 652.23,-16 658.23,-16 664.23,-22 664.23,-28 664.23,-28 664.23,-40 664.23,-40 664.23,-46 658.23,-52 652.23,-52"/>
<text xml:space="preserve" text-anchor="middle" x="634" y="-31" font-family="Helvetica,sans-Serif" font-size="10.00">l2NormSq</text>
</a>
</g>
</g>
<!-- n11 -->
<g id="node12" class="node">
<title>n11</title>
<g id="a_node12"><a xlink:href="https://github.com/statopia/statlib/blob/main/Statlib/HighDim/Vocabulary/Norms.lean#L21" xlink:title="lemma · Statlib/HighDim/Vocabulary/Norms.lean:21" target="_blank">
<path fill="#eef2f6" stroke="#94a3b8" d="M673.64,-124C673.64,-124 594.36,-124 594.36,-124 588.36,-124 582.36,-118 582.36,-112 582.36,-112 582.36,-100 582.36,-100 582.36,-94 588.36,-88 594.36,-88 594.36,-88 673.64,-88 673.64,-88 679.64,-88 685.64,-94 685.64,-100 685.64,-100 685.64,-112 685.64,-112 685.64,-118 679.64,-124 673.64,-124"/>
<text xml:space="preserve" text-anchor="middle" x="634" y="-103" font-family="Helvetica,sans-Serif" font-size="10.00">euclidean_norm_sq</text>
</a>
</g>
</g>
<!-- n11&#45;&gt;n10 -->
<g id="edge7" class="edge">
<title>n11&#45;&gt;n10</title>
<path fill="none" stroke="#64748b" d="M634,-87.7C634,-79.47 634,-69.48 634,-60.42"/>
<polygon fill="#64748b" stroke="#64748b" points="636.45,-60.62 634,-53.62 631.55,-60.62 636.45,-60.62"/>
</g>
<!-- n12 -->
<g id="node13" class="node">
<title>n12</title>
<g id="a_node13"><a xlink:href="https://github.com/statopia/statlib/blob/main/Statlib/HighDim/Concentration/HansonWright.lean#L417" xlink:title="lemma · Statlib/HighDim/Concentration/HansonWright.lean:417" target="_blank">
<path fill="#eef2f6" stroke="#94a3b8" d="M754.46,-196C754.46,-196 653.54,-196 653.54,-196 647.54,-196 641.54,-190 641.54,-184 641.54,-184 641.54,-172 641.54,-172 641.54,-166 647.54,-160 653.54,-160 653.54,-160 754.46,-160 754.46,-160 760.46,-160 766.46,-166 766.46,-172 766.46,-172 766.46,-184 766.46,-184 766.46,-190 760.46,-196 754.46,-196"/>
<text xml:space="preserve" text-anchor="middle" x="704" y="-175" font-family="Helvetica,sans-Serif" font-size="10.00">matrixRowVec_norm_sq</text>
</a>
</g>
</g>
<!-- n12&#45;&gt;n9 -->
<g id="edge8" class="edge">
<title>n12&#45;&gt;n9</title>
<path fill="none" stroke="#64748b" d="M654.05,-159.52C623.03,-148.66 583.37,-134.78 552.61,-124.01"/>
<polygon fill="#64748b" stroke="#64748b" points="553.43,-121.71 546.02,-121.71 551.82,-126.33 553.43,-121.71"/>
</g>
<!-- n12&#45;&gt;n10 -->
<g id="edge10" class="edge">
<title>n12&#45;&gt;n10</title>
<path fill="none" stroke="#64748b" d="M642.93,-159.56C613.01,-149.65 581.57,-136.71 573,-124 564.06,-110.73 566.36,-102.56 573,-88 578.44,-76.06 588.05,-65.77 598.05,-57.52"/>
<polygon fill="#64748b" stroke="#64748b" points="599.42,-59.56 603.44,-53.33 596.42,-55.69 599.42,-59.56"/>
</g>
<!-- n12&#45;&gt;n11 -->
<g id="edge9" class="edge">
<title>n12&#45;&gt;n11</title>
<path fill="none" stroke="#64748b" d="M686.7,-159.7C677.71,-150.71 666.61,-139.61 656.92,-129.92"/>
<polygon fill="#64748b" stroke="#64748b" points="658.86,-128.39 652.17,-125.17 655.39,-131.86 658.86,-128.39"/>
</g>
<!-- n13 -->
<g id="node14" class="node">
<title>n13</title>
<g id="a_node14"><a xlink:href="https://github.com/statopia/statlib/blob/main/Statlib/HighDim/Concentration/HansonWright.lean#L203" xlink:title="lemma · Statlib/HighDim/Concentration/HansonWright.lean:203" target="_blank">
<path fill="#eef2f6" stroke="#94a3b8" d="M413.61,-124C413.61,-124 220.39,-124 220.39,-124 214.39,-124 208.39,-118 208.39,-112 208.39,-112 208.39,-100 208.39,-100 208.39,-94 214.39,-88 220.39,-88 220.39,-88 413.61,-88 413.61,-88 419.61,-88 425.61,-94 425.61,-100 425.61,-100 425.61,-112 425.61,-112 425.61,-118 419.61,-124 413.61,-124"/>
<text xml:space="preserve" text-anchor="middle" x="317" y="-103" font-family="Helvetica,sans-Serif" font-size="10.00">offDiagCoeffVec_eq_zeroDiagMatrix_mulVec</text>
</a>
</g>
</g>
<!-- n13&#45;&gt;n7 -->
<g id="edge11" class="edge">
<title>n13&#45;&gt;n7</title>
<path fill="none" stroke="#64748b" d="M425.98,-89.92C430.72,-89.27 435.41,-88.63 440,-88 561.21,-71.43 703.54,-52.26 778.9,-42.13"/>
<polygon fill="#64748b" stroke="#64748b" points="779.2,-44.56 785.82,-41.2 778.55,-39.7 779.2,-44.56"/>
</g>
<!-- n13&#45;&gt;n8 -->
<g id="edge12" class="edge">
<title>n13&#45;&gt;n8</title>
<path fill="none" stroke="#64748b" d="M277.54,-87.52C255.78,-77.88 228.62,-65.84 205.79,-55.73"/>
<polygon fill="#64748b" stroke="#64748b" points="207.01,-53.59 199.62,-52.99 205.02,-58.07 207.01,-53.59"/>
</g>
<!-- n14 -->
<g id="node15" class="node">
<title>n14</title>
<g id="a_node15"><a xlink:href="https://github.com/statopia/statlib/blob/main/Statlib/HighDim/Vocabulary/Norms.lean#L32" xlink:title="lemma · Statlib/HighDim/Vocabulary/Norms.lean:32" target="_blank">
<path fill="#eef2f6" stroke="#94a3b8" d="M770.69,-124C770.69,-124 715.31,-124 715.31,-124 709.31,-124 703.31,-118 703.31,-112 703.31,-112 703.31,-100 703.31,-100 703.31,-94 709.31,-88 715.31,-88 715.31,-88 770.69,-88 770.69,-88 776.69,-88 782.69,-94 782.69,-100 782.69,-100 782.69,-112 782.69,-112 782.69,-118 776.69,-124 770.69,-124"/>
<text xml:space="preserve" text-anchor="middle" x="743" y="-103" font-family="Helvetica,sans-Serif" font-size="10.00">inner_eq_sum</text>
</a>
</g>
</g>
<!-- n15 -->
<g id="node16" class="node">
<title>n15</title>
<g id="a_node16"><a xlink:href="https://github.com/statopia/statlib/blob/main/Statlib/HighDim/Concentration/HansonWright.lean#L424" xlink:title="lemma · Statlib/HighDim/Concentration/HansonWright.lean:424" target="_blank">
<path fill="#eef2f6" stroke="#94a3b8" d="M592.01,-196C592.01,-196 385.99,-196 385.99,-196 379.99,-196 373.99,-190 373.99,-184 373.99,-184 373.99,-172 373.99,-172 373.99,-166 379.99,-160 385.99,-160 385.99,-160 592.01,-160 592.01,-160 598.01,-160 604.01,-166 604.01,-172 604.01,-172 604.01,-184 604.01,-184 604.01,-190 598.01,-196 592.01,-196"/>
<text xml:space="preserve" text-anchor="middle" x="489" y="-175" font-family="Helvetica,sans-Serif" font-size="10.00">offDiagCoeffVec_apply_eq_inner_row_zeroDiag</text>
</a>
</g>
</g>
<!-- n15&#45;&gt;n7 -->
<g id="edge13" class="edge">
<title>n15&#45;&gt;n7</title>
<path fill="none" stroke="#64748b" d="M472.96,-159.77C456.87,-140.37 436.88,-108.85 455,-88 465.54,-75.87 677.75,-51.57 779.06,-40.6"/>
<polygon fill="#64748b" stroke="#64748b" points="779.13,-43.06 785.82,-39.87 778.6,-38.19 779.13,-43.06"/>
</g>
<!-- n15&#45;&gt;n8 -->
<g id="edge15" class="edge">
<title>n15&#45;&gt;n8</title>
<path fill="none" stroke="#64748b" d="M373.81,-161.14C299.12,-149.97 213.15,-135.09 199,-124 179.16,-108.46 168.87,-80.93 163.73,-60.59"/>
<polygon fill="#64748b" stroke="#64748b" points="166.14,-60.11 162.18,-53.85 161.37,-61.22 166.14,-60.11"/>
</g>
<!-- n15&#45;&gt;n9 -->
<g id="edge14" class="edge">
<title>n15&#45;&gt;n9</title>
<path fill="none" stroke="#64748b" d="M492.71,-159.7C494.47,-151.47 496.61,-141.48 498.55,-132.42"/>
<polygon fill="#64748b" stroke="#64748b" points="500.95,-132.94 500.02,-125.58 496.16,-131.92 500.95,-132.94"/>
</g>
<!-- n15&#45;&gt;n13 -->
<g id="edge16" class="edge">
<title>n15&#45;&gt;n13</title>
<path fill="none" stroke="#64748b" d="M446.04,-159.52C422.14,-149.79 392.28,-137.64 367.29,-127.47"/>
<polygon fill="#64748b" stroke="#64748b" points="368.52,-125.32 361.11,-124.95 366.67,-129.86 368.52,-125.32"/>
</g>
<!-- n15&#45;&gt;n14 -->
<g id="edge17" class="edge">
<title>n15&#45;&gt;n14</title>
<path fill="none" stroke="#64748b" d="M563.33,-159.56C600.63,-150.41 646.59,-138.53 694.92,-123.92"/>
<polygon fill="#64748b" stroke="#64748b" points="695.59,-126.28 701.57,-121.9 694.16,-121.6 695.59,-126.28"/>
</g>
<!-- n16 -->
<g id="node17" class="node">
<title>n16</title>
<g id="a_node17"><a xlink:href="https://github.com/statopia/statlib/blob/main/Statlib/HighDim/Concentration/HansonWright.lean#L388" xlink:title="lemma · Statlib/HighDim/Concentration/HansonWright.lean:388" target="_blank">
<path fill="#eef2f6" stroke="#94a3b8" d="M283.98,-196C283.98,-196 128.02,-196 128.02,-196 122.02,-196 116.02,-190 116.02,-184 116.02,-184 116.02,-172 116.02,-172 116.02,-166 122.02,-160 128.02,-160 128.02,-160 283.98,-160 283.98,-160 289.98,-160 295.98,-166 295.98,-172 295.98,-172 295.98,-184 295.98,-184 295.98,-190 289.98,-196 283.98,-196"/>
<text xml:space="preserve" text-anchor="middle" x="206" y="-175" font-family="Helvetica,sans-Serif" font-size="10.00">frobeniusNormSq_zeroDiagMatrix_le</text>
</a>
</g>
</g>
<!-- n16&#45;&gt;n2 -->
<g id="edge18" class="edge">
<title>n16&#45;&gt;n2</title>
<path fill="none" stroke="#64748b" d="M170.28,-159.52C150.69,-149.92 126.25,-137.96 105.66,-127.88"/>
<polygon fill="#64748b" stroke="#64748b" points="106.98,-125.8 99.62,-124.93 104.83,-130.2 106.98,-125.8"/>
</g>
<!-- n16&#45;&gt;n8 -->
<g id="edge19" class="edge">
<title>n16&#45;&gt;n8</title>
<path fill="none" stroke="#64748b" d="M176.17,-159.7C163.79,-150.78 150.76,-138.66 144,-124 134.59,-103.58 140.44,-78.09 147.4,-59.62"/>
<polygon fill="#64748b" stroke="#64748b" points="149.5,-60.99 149.85,-53.58 144.95,-59.15 149.5,-60.99"/>
</g>
<!-- n17 -->
<g id="node18" class="node">
<title>n17</title>
<g id="a_node18"><a xlink:href="https://github.com/statopia/statlib/blob/main/Statlib/HighDim/Concentration/HansonWright.lean#L431" xlink:title="lemma · Statlib/HighDim/Concentration/HansonWright.lean:431" target="_blank">
<path fill="#eef2f6" stroke="#94a3b8" d="M609.66,-268C609.66,-268 440.34,-268 440.34,-268 434.34,-268 428.34,-262 428.34,-256 428.34,-256 428.34,-244 428.34,-244 428.34,-238 434.34,-232 440.34,-232 440.34,-232 609.66,-232 609.66,-232 615.66,-232 621.66,-238 621.66,-244 621.66,-244 621.66,-256 621.66,-256 621.66,-262 615.66,-268 609.66,-268"/>
<text xml:space="preserve" text-anchor="middle" x="525" y="-247" font-family="Helvetica,sans-Serif" font-size="10.00">offDiagCoeffVec_norm_sq_le_frobenius</text>
</a>
</g>
</g>
<!-- n17&#45;&gt;n2 -->
<g id="edge21" class="edge">
<title>n17&#45;&gt;n2</title>
<path fill="none" stroke="#64748b" d="M428.04,-247.14C320.94,-243.3 156.98,-231.59 107,-196 95.82,-188.04 81.53,-155.55 72.32,-132.13"/>
<polygon fill="#64748b" stroke="#64748b" points="74.64,-131.33 69.83,-125.69 70.07,-133.1 74.64,-131.33"/>
</g>
<!-- n17&#45;&gt;n7 -->
<g id="edge20" class="edge">
<title>n17&#45;&gt;n7</title>
<path fill="none" stroke="#64748b" d="M454.65,-231.58C425.9,-222.97 392.9,-211.15 365,-196 342.49,-183.78 342.69,-171.87 320,-160 270.28,-133.99 232.54,-168.98 199,-124 189.43,-111.17 188.12,-99.73 199,-88 234.91,-49.26 620.4,-56.81 673,-52 708.25,-48.78 747.83,-44.55 778.69,-41.11"/>
<polygon fill="#64748b" stroke="#64748b" points="778.96,-43.55 785.64,-40.34 778.41,-38.68 778.96,-43.55"/>
</g>
<!-- n17&#45;&gt;n8 -->
<g id="edge22" class="edge">
<title>n17&#45;&gt;n8</title>
<path fill="none" stroke="#64748b" d="M427.96,-242.28C390.59,-235.32 349.78,-221.83 320,-196 306.91,-184.64 318.06,-171.4 305,-160 257.88,-118.89 209.85,-171.34 169,-124 154.13,-106.77 153,-80.16 154.75,-60.52"/>
<polygon fill="#64748b" stroke="#64748b" points="157.16,-61.04 155.51,-53.81 152.29,-60.49 157.16,-61.04"/>
</g>
<!-- n17&#45;&gt;n9 -->
<g id="edge23" class="edge">
<title>n17&#45;&gt;n9</title>
<path fill="none" stroke="#64748b" d="M572.51,-231.73C588.26,-223.47 604.05,-211.84 613,-196 620.87,-182.07 621.49,-173.56 613,-160 605.79,-148.48 578.12,-135.1 552.46,-124.66"/>
<polygon fill="#64748b" stroke="#64748b" points="553.4,-122.4 546,-122.08 551.59,-126.95 553.4,-122.4"/>
</g>
<!-- n17&#45;&gt;n10 -->
<g id="edge27" class="edge">
<title>n17&#45;&gt;n10</title>
<path fill="none" stroke="#64748b" d="M621.98,-240.95C686.1,-233.5 762.23,-219.86 784,-196 816.45,-160.45 820.11,-127.07 792,-88 764.98,-50.44 710.07,-39.13 672.65,-35.92"/>
<polygon fill="#64748b" stroke="#64748b" points="673.15,-33.5 665.99,-35.44 672.8,-38.39 673.15,-33.5"/>
</g>
<!-- n17&#45;&gt;n11 -->
<g id="edge26" class="edge">
<title>n17&#45;&gt;n11</title>
<path fill="none" stroke="#64748b" d="M622.1,-240.88C683.81,-233.48 755.62,-219.92 775,-196 785.07,-183.57 784.11,-173.15 775,-160 769.89,-152.62 729.74,-137.92 693.58,-125.87"/>
<polygon fill="#64748b" stroke="#64748b" points="694.79,-123.69 687.38,-123.82 693.26,-128.35 694.79,-123.69"/>
</g>
<!-- n17&#45;&gt;n12 -->
<g id="edge24" class="edge">
<title>n17&#45;&gt;n12</title>
<path fill="none" stroke="#64748b" d="M569.71,-231.52C594.58,-221.79 625.66,-209.64 651.66,-199.47"/>
<polygon fill="#64748b" stroke="#64748b" points="652.52,-201.76 658.14,-196.93 650.73,-197.2 652.52,-201.76"/>
</g>
<!-- n17&#45;&gt;n15 -->
<g id="edge25" class="edge">
<title>n17&#45;&gt;n15</title>
<path fill="none" stroke="#64748b" d="M516.1,-231.7C511.74,-223.22 506.42,-212.86 501.64,-203.58"/>
<polygon fill="#64748b" stroke="#64748b" points="503.87,-202.55 498.49,-197.45 499.51,-204.8 503.87,-202.55"/>
</g>
<!-- n17&#45;&gt;n16 -->
<g id="edge28" class="edge">
<title>n17&#45;&gt;n16</title>
<path fill="none" stroke="#64748b" d="M445.33,-231.52C399.18,-221.39 341.03,-208.63 293.61,-198.22"/>
<polygon fill="#64748b" stroke="#64748b" points="294.33,-195.87 286.97,-196.77 293.28,-200.66 294.33,-195.87"/>
</g>
<!-- n18 -->
<g id="node19" class="node">
<title>n18</title>
<g id="a_node19"><a xlink:href="https://github.com/statopia/statlib/blob/main/Statlib/HighDim/Concentration/HansonWright.lean#L725" xlink:title="lemma · Statlib/HighDim/Concentration/HansonWright.lean:725" target="_blank">
<path fill="#eef2f6" stroke="#94a3b8" d="M694.76,-340C694.76,-340 429.24,-340 429.24,-340 423.24,-340 417.24,-334 417.24,-328 417.24,-328 417.24,-316 417.24,-316 417.24,-310 423.24,-304 429.24,-304 429.24,-304 694.76,-304 694.76,-304 700.76,-304 706.76,-310 706.76,-316 706.76,-316 706.76,-328 706.76,-328 706.76,-334 700.76,-340 694.76,-340"/>
<text xml:space="preserve" text-anchor="middle" x="562" y="-319" font-family="Helvetica,sans-Serif" font-size="10.00">decoupled_const_right_subgaussian_parameter_le_frobenius</text>
</a>
</g>
</g>
<!-- n18&#45;&gt;n2 -->
<g id="edge30" class="edge">
<title>n18&#45;&gt;n2</title>
<path fill="none" stroke="#64748b" d="M436.9,-303.53C311.57,-283.47 130.47,-246.68 82,-196 65.92,-179.19 62.05,-152.28 61.67,-132.45"/>
<polygon fill="#64748b" stroke="#64748b" points="64.12,-132.69 61.69,-125.68 59.22,-132.67 64.12,-132.69"/>
</g>
<!-- n18&#45;&gt;n7 -->
<g id="edge29" class="edge">
<title>n18&#45;&gt;n7</title>
<path fill="none" stroke="#64748b" d="M628.25,-303.57C682.84,-285.69 757.89,-252.36 800,-196 830.03,-155.8 833.89,-94.74 833.37,-60.52"/>
<polygon fill="#64748b" stroke="#64748b" points="835.83,-60.88 833.2,-53.95 830.93,-61.01 835.83,-60.88"/>
</g>
<!-- n18&#45;&gt;n17 -->
<g id="edge31" class="edge">
<title>n18&#45;&gt;n17</title>
<path fill="none" stroke="#64748b" d="M552.85,-303.7C548.37,-295.22 542.9,-284.86 537.99,-275.58"/>
<polygon fill="#64748b" stroke="#64748b" points="540.19,-274.49 534.75,-269.44 535.85,-276.78 540.19,-274.49"/>
</g>
<!-- n20 -->
<g id="node20" class="node">
<title>n20</title>
<g id="a_node20"><a xlink:href="https://github.com/statopia/statlib/blob/main/Statlib/HighDim/Vocabulary/QuadraticForms.lean#L39" xlink:title="noncomputable def · Statlib/HighDim/Vocabulary/QuadraticForms.lean:39" target="_blank">
<path fill="#d6e9ff" stroke="#3b82f6" d="M1045.79,-52C1045.79,-52 998.21,-52 998.21,-52 992.21,-52 986.21,-46 986.21,-40 986.21,-40 986.21,-28 986.21,-28 986.21,-22 992.21,-16 998.21,-16 998.21,-16 1045.79,-16 1045.79,-16 1051.79,-16 1057.79,-22 1057.79,-28 1057.79,-28 1057.79,-40 1057.79,-40 1057.79,-46 1051.79,-52 1045.79,-52"/>
<text xml:space="preserve" text-anchor="middle" x="1022" y="-31" font-family="Helvetica,sans-Serif" font-size="10.00">offDiagCoeff</text>
</a>
</g>
</g>
<!-- n21 -->
<g id="node21" class="node">
<title>n21</title>
<g id="a_node21"><a xlink:href="https://github.com/statopia/statlib/blob/main/Statlib/HighDim/Concentration/HansonWright.lean#L46" xlink:title="lemma · Statlib/HighDim/Concentration/HansonWright.lean:46" target="_blank">
<path fill="#eef2f6" stroke="#94a3b8" d="M1241.11,-124C1241.11,-124 1052.89,-124 1052.89,-124 1046.89,-124 1040.89,-118 1040.89,-112 1040.89,-112 1040.89,-100 1040.89,-100 1040.89,-94 1046.89,-88 1052.89,-88 1052.89,-88 1241.11,-88 1241.11,-88 1247.11,-88 1253.11,-94 1253.11,-100 1253.11,-100 1253.11,-112 1253.11,-112 1253.11,-118 1247.11,-124 1241.11,-124"/>
<text xml:space="preserve" text-anchor="middle" x="1147" y="-103" font-family="Helvetica,sans-Serif" font-size="10.00">decoupledOffDiagQuadForm_eq_sum_coeff</text>
</a>
</g>
</g>
<!-- n21&#45;&gt;n1 -->
<g id="edge32" class="edge">
<title>n21&#45;&gt;n1</title>
<path fill="none" stroke="#64748b" d="M1198.2,-87.52C1227.05,-77.67 1263.2,-65.32 1293.21,-55.07"/>
<polygon fill="#64748b" stroke="#64748b" points="1293.83,-57.45 1299.66,-52.87 1292.25,-52.81 1293.83,-57.45"/>
</g>
<!-- n21&#45;&gt;n20 -->
<g id="edge33" class="edge">
<title>n21&#45;&gt;n20</title>
<path fill="none" stroke="#64748b" d="M1115.78,-87.52C1098.95,-78.09 1078.04,-66.38 1060.24,-56.41"/>
<polygon fill="#64748b" stroke="#64748b" points="1061.45,-54.28 1054.14,-53 1059.05,-58.56 1061.45,-54.28"/>
</g>
<!-- n22 -->
<g id="node22" class="node">
<title>n22</title>
<g id="a_node22"><a xlink:href="https://github.com/statopia/statlib/blob/main/Statlib/HighDim/Concentration/HansonWright.lean#L65" xlink:title="lemma · Statlib/HighDim/Concentration/HansonWright.lean:65" target="_blank">
<path fill="#eef2f6" stroke="#94a3b8" d="M1174.79,-196C1174.79,-196 983.21,-196 983.21,-196 977.21,-196 971.21,-190 971.21,-184 971.21,-184 971.21,-172 971.21,-172 971.21,-166 977.21,-160 983.21,-160 983.21,-160 1174.79,-160 1174.79,-160 1180.79,-160 1186.79,-166 1186.79,-172 1186.79,-172 1186.79,-184 1186.79,-184 1186.79,-190 1180.79,-196 1174.79,-196"/>
<text xml:space="preserve" text-anchor="middle" x="1079" y="-175" font-family="Helvetica,sans-Serif" font-size="10.00">decoupledOffDiagQuadForm_eq_inner_coeff</text>
</a>
</g>
</g>
<!-- n22&#45;&gt;n1 -->
<g id="edge34" class="edge">
<title>n22&#45;&gt;n1</title>
<path fill="none" stroke="#64748b" d="M1184.31,-159.6C1211.32,-151.75 1239.16,-140.4 1262,-124 1277.82,-112.64 1273.77,-102.29 1287,-88 1297.17,-77.01 1309.66,-66.3 1320.96,-57.42"/>
<polygon fill="#64748b" stroke="#64748b" points="1322.21,-59.55 1326.25,-53.33 1319.21,-55.67 1322.21,-59.55"/>
</g>
<!-- n22&#45;&gt;n14 -->
<g id="edge37" class="edge">
<title>n22&#45;&gt;n14</title>
<path fill="none" stroke="#64748b" d="M995.08,-159.52C930.69,-146.1 844.09,-128.06 790.98,-117"/>
<polygon fill="#64748b" stroke="#64748b" points="791.59,-114.62 784.23,-115.59 790.59,-119.42 791.59,-114.62"/>
</g>
<!-- n22&#45;&gt;n20 -->
<g id="edge35" class="edge">
<title>n22&#45;&gt;n20</title>
<path fill="none" stroke="#64748b" d="M1058.86,-159.91C1049.06,-150.39 1038.1,-137.71 1032,-124 1023.09,-103.98 1020.96,-79.03 1020.85,-60.64"/>
<polygon fill="#64748b" stroke="#64748b" points="1023.29,-60.73 1020.91,-53.71 1018.39,-60.68 1023.29,-60.73"/>
</g>
<!-- n22&#45;&gt;n21 -->
<g id="edge36" class="edge">
<title>n22&#45;&gt;n21</title>
<path fill="none" stroke="#64748b" d="M1095.81,-159.7C1104.46,-150.8 1115.11,-139.82 1124.46,-130.2"/>
<polygon fill="#64748b" stroke="#64748b" points="1126.21,-131.92 1129.33,-125.19 1122.69,-128.5 1126.21,-131.92"/>
</g>
<!-- n23 -->
<g id="node23" class="node">
<title>n23</title>
<g id="a_node23"><a xlink:href="https://github.com/statopia/statlib/blob/main/Statlib/HighDim/Concentration/HansonWright.lean#L39" xlink:title="lemma · Statlib/HighDim/Concentration/HansonWright.lean:39" target="_blank">
<path fill="#eef2f6" stroke="#94a3b8" d="M990.52,-124C990.52,-124 913.48,-124 913.48,-124 907.48,-124 901.48,-118 901.48,-112 901.48,-112 901.48,-100 901.48,-100 901.48,-94 907.48,-88 913.48,-88 913.48,-88 990.52,-88 990.52,-88 996.52,-88 1002.52,-94 1002.52,-100 1002.52,-100 1002.52,-112 1002.52,-112 1002.52,-118 996.52,-124 990.52,-124"/>
<text xml:space="preserve" text-anchor="middle" x="952" y="-103" font-family="Helvetica,sans-Serif" font-size="10.00">offDiagCoeff_const</text>
</a>
</g>
</g>
<!-- n23&#45;&gt;n7 -->
<g id="edge39" class="edge">
<title>n23&#45;&gt;n7</title>
<path fill="none" stroke="#64748b" d="M922.03,-87.52C905.87,-78.09 885.8,-66.38 868.71,-56.41"/>
<polygon fill="#64748b" stroke="#64748b" points="870.18,-54.43 862.9,-53.02 867.71,-58.67 870.18,-54.43"/>
</g>
<!-- n23&#45;&gt;n20 -->
<g id="edge38" class="edge">
<title>n23&#45;&gt;n20</title>
<path fill="none" stroke="#64748b" d="M969.3,-87.7C978.29,-78.71 989.39,-67.61 999.08,-57.92"/>
<polygon fill="#64748b" stroke="#64748b" points="1000.61,-59.86 1003.83,-53.17 997.14,-56.39 1000.61,-59.86"/>
</g>
<!-- n24 -->
<g id="node24" class="node">
<title>n24</title>
<g id="a_node24"><a xlink:href="https://github.com/statopia/statlib/blob/main/Statlib/HighDim/Concentration/HansonWright.lean#L73" xlink:title="lemma · Statlib/HighDim/Concentration/HansonWright.lean:73" target="_blank">
<path fill="#eef2f6" stroke="#94a3b8" d="M1112.64,-268C1112.64,-268 849.36,-268 849.36,-268 843.36,-268 837.36,-262 837.36,-256 837.36,-256 837.36,-244 837.36,-244 837.36,-238 843.36,-232 849.36,-232 849.36,-232 1112.64,-232 1112.64,-232 1118.64,-232 1124.64,-238 1124.64,-244 1124.64,-244 1124.64,-256 1124.64,-256 1124.64,-262 1118.64,-268 1112.64,-268"/>
<text xml:space="preserve" text-anchor="middle" x="981" y="-247" font-family="Helvetica,sans-Serif" font-size="10.00">decoupledOffDiagQuadForm_const_right_eq_inner_coeffVec</text>
</a>
</g>
</g>
<!-- n24&#45;&gt;n1 -->
<g id="edge40" class="edge">
<title>n24&#45;&gt;n1</title>
<path fill="none" stroke="#64748b" d="M1093.93,-231.54C1127.94,-223.58 1164.55,-212.18 1196,-196 1239.72,-173.51 1246.38,-159.88 1280,-124 1293.67,-109.4 1294.52,-103.63 1307,-88 1314.76,-78.28 1323.56,-67.81 1331.3,-58.75"/>
<polygon fill="#64748b" stroke="#64748b" points="1333.04,-60.5 1335.74,-53.59 1329.32,-57.3 1333.04,-60.5"/>
</g>
<!-- n24&#45;&gt;n7 -->
<g id="edge41" class="edge">
<title>n24&#45;&gt;n7</title>
<path fill="none" stroke="#64748b" d="M968.48,-231.71C951.12,-207.68 918.86,-162.76 892,-124 876.92,-102.23 860.09,-77.2 848.1,-59.24"/>
<polygon fill="#64748b" stroke="#64748b" points="850.36,-58.21 844.44,-53.74 846.28,-60.93 850.36,-58.21"/>
</g>
<!-- n24&#45;&gt;n22 -->
<g id="edge42" class="edge">
<title>n24&#45;&gt;n22</title>
<path fill="none" stroke="#64748b" d="M1005.48,-231.52C1018.44,-222.26 1034.48,-210.8 1048.27,-200.95"/>
<polygon fill="#64748b" stroke="#64748b" points="1049.33,-203.2 1053.6,-197.14 1046.48,-199.22 1049.33,-203.2"/>
</g>
<!-- n24&#45;&gt;n23 -->
<g id="edge43" class="edge">
<title>n24&#45;&gt;n23</title>
<path fill="none" stroke="#64748b" d="M973.62,-231.64C969.58,-221.44 964.83,-208.19 962,-196 957.11,-174.91 954.58,-150.44 953.29,-132.5"/>
<polygon fill="#64748b" stroke="#64748b" points="955.75,-132.6 952.85,-125.77 950.86,-132.92 955.75,-132.6"/>
</g>
<!-- n25 -->
<g id="node25" class="node">
<title>n25</title>
<g id="a_node25"><a xlink:href="https://github.com/statopia/statlib/blob/main/Statlib/HighDim/Concentration/HansonWright.lean#L80" xlink:title="lemma · Statlib/HighDim/Concentration/HansonWright.lean:80" target="_blank">
<path fill="#eef2f6" stroke="#94a3b8" d="M1133.02,-340C1133.02,-340 896.98,-340 896.98,-340 890.98,-340 884.98,-334 884.98,-328 884.98,-328 884.98,-316 884.98,-316 884.98,-310 890.98,-304 896.98,-304 896.98,-304 1133.02,-304 1133.02,-304 1139.02,-304 1145.02,-310 1145.02,-316 1145.02,-316 1145.02,-328 1145.02,-328 1145.02,-334 1139.02,-340 1133.02,-340"/>
<text xml:space="preserve" text-anchor="middle" x="1015" y="-319" font-family="Helvetica,sans-Serif" font-size="10.00">decoupledOffDiagQuadForm_const_right_subgaussian</text>
</a>
</g>
</g>
<!-- n25&#45;&gt;n0 -->
<g id="edge44" class="edge">
<title>n25&#45;&gt;n0</title>
<path fill="none" stroke="#64748b" d="M1070.95,-303.52C1102.74,-293.58 1142.65,-281.11 1175.6,-270.81"/>
<polygon fill="#64748b" stroke="#64748b" points="1175.98,-273.26 1181.93,-268.83 1174.52,-268.58 1175.98,-273.26"/>
</g>
<!-- n25&#45;&gt;n1 -->
<g id="edge45" class="edge">
<title>n25&#45;&gt;n1</title>
<path fill="none" stroke="#64748b" d="M1070.37,-303.6C1091.73,-295.11 1115.45,-283.36 1134,-268 1149.01,-255.58 1144.46,-244.97 1159,-232 1184.23,-209.5 1198.8,-216.07 1226,-196 1262.67,-168.94 1270.89,-159.87 1299,-124 1314.92,-103.69 1329.64,-78.18 1339.51,-59.69"/>
<polygon fill="#64748b" stroke="#64748b" points="1341.64,-60.9 1342.73,-53.57 1337.3,-58.62 1341.64,-60.9"/>
</g>
<!-- n25&#45;&gt;n7 -->
<g id="edge46" class="edge">
<title>n25&#45;&gt;n7</title>
<path fill="none" stroke="#64748b" d="M913.34,-303.51C875.62,-294.78 839.24,-282.87 828,-268 818.35,-255.24 823.67,-247.4 828,-232 833.08,-213.95 844.92,-214.05 850,-196 853.94,-181.99 850.23,-108.16 847,-88 845.53,-78.84 843.03,-69.01 840.47,-60.34"/>
<polygon fill="#64748b" stroke="#64748b" points="842.89,-59.86 838.49,-53.88 838.2,-61.29 842.89,-59.86"/>
</g>
<!-- n25&#45;&gt;n24 -->
<g id="edge47" class="edge">
<title>n25&#45;&gt;n24</title>
<path fill="none" stroke="#64748b" d="M1006.6,-303.7C1002.48,-295.22 997.45,-284.86 992.94,-275.58"/>
<polygon fill="#64748b" stroke="#64748b" points="995.23,-274.69 989.97,-269.47 990.82,-276.83 995.23,-274.69"/>
</g>
<!-- n27 -->
<g id="node26" class="node">
<title>n27</title>
<g id="a_node26"><a xlink:href="https://github.com/statopia/statlib/blob/main/Statlib/HighDim/Concentration/HansonWright.lean#L767" xlink:title="lemma · Statlib/HighDim/Concentration/HansonWright.lean:767" target="_blank">
<path fill="#eef2f6" stroke="#94a3b8" d="M1166.64,-413.2C1166.64,-413.2 883.36,-413.2 883.36,-413.2 877.36,-413.2 871.36,-407.2 871.36,-401.2 871.36,-401.2 871.36,-389.2 871.36,-389.2 871.36,-383.2 877.36,-377.2 883.36,-377.2 883.36,-377.2 1166.64,-377.2 1166.64,-377.2 1172.64,-377.2 1178.64,-383.2 1178.64,-389.2 1178.64,-389.2 1178.64,-401.2 1178.64,-401.2 1178.64,-407.2 1172.64,-413.2 1166.64,-413.2"/>
<text xml:space="preserve" text-anchor="middle" x="1025" y="-392.2" font-family="Helvetica,sans-Serif" font-size="10.00">decoupledOffDiagQuadForm_const_right_abs_tail_real_frobenius</text>
</a>
</g>
</g>
<!-- n27&#45;&gt;n0 -->
<g id="edge48" class="edge">
<title>n27&#45;&gt;n0</title>
<path fill="none" stroke="#64748b" d="M1152.95,-376.79C1159.77,-374.54 1165.32,-372.02 1169,-369.2 1197.47,-347.38 1184.1,-326.49 1203,-296 1207.51,-288.73 1213.02,-281.3 1218.36,-274.62"/>
<polygon fill="#64748b" stroke="#64748b" points="1220.1,-276.36 1222.64,-269.4 1216.31,-273.26 1220.1,-276.36"/>
</g>
<!-- n27&#45;&gt;n1 -->
<g id="edge49" class="edge">
<title>n27&#45;&gt;n1</title>
<path fill="none" stroke="#64748b" d="M1141.74,-376.74C1147.08,-374.51 1151.32,-372.01 1154,-369.2 1175.27,-346.91 1155.56,-256.68 1174,-232 1196.85,-201.41 1221.34,-218.75 1252,-196 1286.39,-170.49 1293.42,-160.38 1316,-124 1328.5,-103.86 1338.22,-78.63 1344.4,-60.18"/>
<polygon fill="#64748b" stroke="#64748b" points="1346.68,-61.08 1346.51,-53.66 1342.02,-59.56 1346.68,-61.08"/>
</g>
<!-- n27&#45;&gt;n2 -->
<g id="edge50" class="edge">
<title>n27&#45;&gt;n2</title>
<path fill="none" stroke="#64748b" d="M870.94,-393.61C717.55,-392.01 493.07,-386.62 408,-369.2 284.08,-343.82 249.96,-333.92 142,-268 101.17,-243.07 81.46,-239.7 62,-196 53.1,-176.02 54.35,-150.91 57.25,-132.47"/>
<polygon fill="#64748b" stroke="#64748b" points="59.63,-133.06 58.44,-125.74 54.8,-132.2 59.63,-133.06"/>
</g>
<!-- n27&#45;&gt;n6 -->
<g id="edge51" class="edge">
<title>n27&#45;&gt;n6</title>
<path fill="none" stroke="#64748b" d="M870.94,-393.71C645.68,-392.36 246.13,-387.41 182,-369.2 164.23,-364.15 146.26,-354.3 131.87,-344.98"/>
<polygon fill="#64748b" stroke="#64748b" points="133.55,-343.16 126.36,-341.32 130.83,-347.24 133.55,-343.16"/>
</g>
<!-- n27&#45;&gt;n7 -->
<g id="edge52" class="edge">
<title>n27&#45;&gt;n7</title>
<path fill="none" stroke="#64748b" d="M893.16,-376.74C885.91,-374.49 879.97,-371.99 876,-369.2 833.75,-339.54 832.1,-317.93 819,-268 814.94,-252.52 817.75,-247.95 819,-232 822.79,-183.56 832.21,-172.44 836,-124 837.25,-108.05 836.6,-103.99 836,-88 835.66,-79.01 835,-69.18 834.31,-60.45"/>
<polygon fill="#64748b" stroke="#64748b" points="836.77,-60.45 833.75,-53.68 831.89,-60.85 836.77,-60.45"/>
</g>
<!-- n27&#45;&gt;n18 -->
<g id="edge53" class="edge">
<title>n27&#45;&gt;n18</title>
<path fill="none" stroke="#64748b" d="M870.94,-379.57C844.87,-376.53 818.13,-373.06 793,-369.2 744.96,-361.82 691.74,-351.34 648.5,-342.22"/>
<polygon fill="#64748b" stroke="#64748b" points="649.11,-339.85 641.75,-340.79 648.09,-344.64 649.11,-339.85"/>
</g>
<!-- n27&#45;&gt;n25 -->
<g id="edge55" class="edge">
<title>n27&#45;&gt;n25</title>
<path fill="none" stroke="#64748b" d="M1022.58,-376.96C1021.38,-368.39 1019.9,-357.87 1018.57,-348.39"/>
<polygon fill="#64748b" stroke="#64748b" points="1021.01,-348.17 1017.61,-341.58 1016.16,-348.85 1021.01,-348.17"/>
</g>
<!-- n19 -->
<g id="node30" class="node">
<title>n19</title>
<g id="a_node30"><a xlink:href="https://github.com/statopia/statlib/blob/main/Statlib/StatFoundation/RandomVariable/SubGaussian/subgaussian_mgf_mono_param.lean#L10" xlink:title="lemma · Statlib/StatFoundation/RandomVariable/SubGaussian/subgaussian_mgf_mono_param.lean:10" target="_blank">
<path fill="#eef2f6" stroke="#94a3b8" d="M1823.43,-340C1823.43,-340 1688.57,-340 1688.57,-340 1682.57,-340 1676.57,-334 1676.57,-328 1676.57,-328 1676.57,-316 1676.57,-316 1676.57,-310 1682.57,-304 1688.57,-304 1688.57,-304 1823.43,-304 1823.43,-304 1829.43,-304 1835.43,-310 1835.43,-316 1835.43,-316 1835.43,-328 1835.43,-328 1835.43,-334 1829.43,-340 1823.43,-340"/>
<text xml:space="preserve" text-anchor="middle" x="1756" y="-319" font-family="Helvetica,sans-Serif" font-size="10.00">subgaussian_mgf_mono_param</text>
</a>
</g>
</g>
<!-- n27&#45;&gt;n19 -->
<g id="edge54" class="edge">
<title>n27&#45;&gt;n19</title>
<path fill="none" stroke="#64748b" d="M1178.87,-382C1206.53,-380.14 1235.11,-378.43 1262,-377.2 1306.74,-375.15 1621.55,-380.06 1665,-369.2 1685.12,-364.17 1705.87,-354.08 1722.47,-344.61"/>
<polygon fill="#64748b" stroke="#64748b" points="1723.68,-346.74 1728.48,-341.09 1721.2,-342.51 1723.68,-346.74"/>
</g>
<!-- n26 -->
<g id="node31" class="node">
<title>n26</title>
<g id="a_node31"><a xlink:href="https://github.com/statopia/statlib/blob/main/Statlib/StatFoundation/Concentration/ExponentialType/subgaussian_abs_tail_real.lean#L11" xlink:title="lemma · Statlib/StatFoundation/Concentration/ExponentialType/subgaussian_abs_tail_real.lean:11" target="_blank">
<path fill="#eef2f6" stroke="#94a3b8" d="M1976.21,-340C1976.21,-340 1865.79,-340 1865.79,-340 1859.79,-340 1853.79,-334 1853.79,-328 1853.79,-328 1853.79,-316 1853.79,-316 1853.79,-310 1859.79,-304 1865.79,-304 1865.79,-304 1976.21,-304 1976.21,-304 1982.21,-304 1988.21,-310 1988.21,-316 1988.21,-316 1988.21,-328 1988.21,-328 1988.21,-334 1982.21,-340 1976.21,-340"/>
<text xml:space="preserve" text-anchor="middle" x="1921" y="-319" font-family="Helvetica,sans-Serif" font-size="10.00">subgaussian_abs_tail_real</text>
</a>
</g>
</g>
<!-- n27&#45;&gt;n26 -->
<g id="edge56" class="edge">
<title>n27&#45;&gt;n26</title>
<path fill="none" stroke="#64748b" d="M1178.87,-381.86C1206.53,-380.02 1235.11,-378.35 1262,-377.2 1294.31,-375.82 1812.9,-378.05 1844,-369.2 1861.24,-364.3 1878.52,-354.48 1892.33,-345.15"/>
<polygon fill="#64748b" stroke="#64748b" points="1893.64,-347.23 1897.98,-341.21 1890.84,-343.21 1893.64,-347.23"/>
</g>
<!-- n28 -->
<g id="node27" class="node">
<title>n28</title>
<g id="a_node27"><a xlink:href="https://github.com/statopia/statlib/blob/main/Statlib/HighDim/Concentration/HansonWright.lean#L131" xlink:title="lemma · Statlib/HighDim/Concentration/HansonWright.lean:131" target="_blank">
<path fill="#eef2f6" stroke="#94a3b8" d="M1518.74,-413.2C1518.74,-413.2 1283.26,-413.2 1283.26,-413.2 1277.26,-413.2 1271.26,-407.2 1271.26,-401.2 1271.26,-401.2 1271.26,-389.2 1271.26,-389.2 1271.26,-383.2 1277.26,-377.2 1283.26,-377.2 1283.26,-377.2 1518.74,-377.2 1518.74,-377.2 1524.74,-377.2 1530.74,-383.2 1530.74,-389.2 1530.74,-389.2 1530.74,-401.2 1530.74,-401.2 1530.74,-407.2 1524.74,-413.2 1518.74,-413.2"/>
<text xml:space="preserve" text-anchor="middle" x="1401" y="-392.2" font-family="Helvetica,sans-Serif" font-size="10.00">decoupledOffDiagQuadForm_prod_mk_eq_const_right</text>
</a>
</g>
</g>
<!-- n28&#45;&gt;n1 -->
<g id="edge57" class="edge">
<title>n28&#45;&gt;n1</title>
<path fill="none" stroke="#64748b" d="M1391.31,-376.92C1378.64,-353.22 1357.1,-308.91 1349,-268 1334.34,-193.93 1342.65,-104.02 1348.23,-60.73"/>
<polygon fill="#64748b" stroke="#64748b" points="1350.63,-61.23 1349.14,-53.97 1345.78,-60.58 1350.63,-61.23"/>
</g>
<!-- n29 -->
<g id="node28" class="node">
<title>n29</title>
<g id="a_node28"><a xlink:href="https://github.com/statopia/statlib/blob/main/Statlib/HighDim/Concentration/HansonWright.lean#L858" xlink:title="lemma · Statlib/HighDim/Concentration/HansonWright.lean:858" target="_blank">
<path fill="#eef2f6" stroke="#94a3b8" d="M1552.65,-485.2C1552.65,-485.2 1239.35,-485.2 1239.35,-485.2 1233.35,-485.2 1227.35,-479.2 1227.35,-473.2 1227.35,-473.2 1227.35,-461.2 1227.35,-461.2 1227.35,-455.2 1233.35,-449.2 1239.35,-449.2 1239.35,-449.2 1552.65,-449.2 1552.65,-449.2 1558.65,-449.2 1564.65,-455.2 1564.65,-461.2 1564.65,-461.2 1564.65,-473.2 1564.65,-473.2 1564.65,-479.2 1558.65,-485.2 1552.65,-485.2"/>
<text xml:space="preserve" text-anchor="middle" x="1396" y="-464.2" font-family="Helvetica,sans-Serif" font-size="10.00">decoupledOffDiagQuadForm_prod_first_section_abs_tail_real_frobenius</text>
</a>
</g>
</g>
<!-- n29&#45;&gt;n0 -->
<g id="edge58" class="edge">
<title>n29&#45;&gt;n0</title>
<path fill="none" stroke="#64748b" d="M1295.91,-448.81C1276.92,-440.97 1259.2,-429.62 1247,-413.2 1217.31,-373.25 1224.76,-311.27 1232.25,-276.63"/>
<polygon fill="#64748b" stroke="#64748b" points="1234.61,-277.29 1233.79,-269.92 1229.84,-276.2 1234.61,-277.29"/>
</g>
<!-- n29&#45;&gt;n1 -->
<g id="edge59" class="edge">
<title>n29&#45;&gt;n1</title>
<path fill="none" stroke="#64748b" d="M1493.02,-448.76C1511.48,-440.92 1528.57,-429.59 1540,-413.2 1549.15,-400.08 1547.78,-391.18 1540,-377.2 1528.81,-357.09 1375.7,-287.82 1364,-268 1353.69,-250.54 1352.17,-117.78 1351.99,-60.82"/>
<polygon fill="#64748b" stroke="#64748b" points="1354.44,-60.87 1351.98,-53.88 1349.54,-60.88 1354.44,-60.87"/>
</g>
<!-- n29&#45;&gt;n2 -->
<g id="edge60" class="edge">
<title>n29&#45;&gt;n2</title>
<path fill="none" stroke="#64748b" d="M1308.69,-448.81C1290.34,-440.99 1273.18,-429.65 1262,-413.2 1215.52,-344.83 1361.32,-291.56 1304,-232 1267.8,-194.39 415.03,-210.9 365,-196 335.19,-187.13 333.9,-171.48 305,-160 271.69,-146.77 179.18,-128.3 118.68,-117.03"/>
<polygon fill="#64748b" stroke="#64748b" points="119.18,-114.63 111.85,-115.76 118.28,-119.45 119.18,-114.63"/>
</g>
<!-- n29&#45;&gt;n27 -->
<g id="edge61" class="edge">
<title>n29&#45;&gt;n27</title>
<path fill="none" stroke="#64748b" d="M1303.34,-448.72C1249.23,-438.51 1180.93,-425.62 1125.52,-415.17"/>
<polygon fill="#64748b" stroke="#64748b" points="1126.26,-412.81 1118.93,-413.92 1125.36,-417.63 1126.26,-412.81"/>
</g>
<!-- n29&#45;&gt;n28 -->
<g id="edge62" class="edge">
<title>n29&#45;&gt;n28</title>
<path fill="none" stroke="#64748b" d="M1397.24,-448.9C1397.82,-440.67 1398.54,-430.68 1399.18,-421.62"/>
<polygon fill="#64748b" stroke="#64748b" points="1401.62,-421.97 1399.67,-414.81 1396.73,-421.62 1401.62,-421.97"/>
</g>
<!-- n31 -->
<g id="node29" class="node">
<title>n31</title>
<g id="a_node29"><a xlink:href="https://github.com/statopia/statlib/blob/main/Statlib/HighDim/Concentration/HansonWright.lean#L929" xlink:title="lemma · Statlib/HighDim/Concentration/HansonWright.lean:929" target="_blank">
<path fill="#eef2f6" stroke="#94a3b8" stroke-width="3" d="M1584.2,-557.2C1584.2,-557.2 1319.8,-557.2 1319.8,-557.2 1313.8,-557.2 1307.8,-551.2 1307.8,-545.2 1307.8,-545.2 1307.8,-533.2 1307.8,-533.2 1307.8,-527.2 1313.8,-521.2 1319.8,-521.2 1319.8,-521.2 1584.2,-521.2 1584.2,-521.2 1590.2,-521.2 1596.2,-527.2 1596.2,-533.2 1596.2,-533.2 1596.2,-545.2 1596.2,-545.2 1596.2,-551.2 1590.2,-557.2 1584.2,-557.2"/>
<text xml:space="preserve" text-anchor="middle" x="1452" y="-536.2" font-family="Helvetica,sans-Serif" font-size="10.00">decoupledOffDiagQuadForm_prod_tail_le_lintegral_frobenius</text>
</a>
</g>
</g>
<!-- n31&#45;&gt;n0 -->
<g id="edge63" class="edge">
<title>n31&#45;&gt;n0</title>
<path fill="none" stroke="#64748b" d="M1306.35,-520.21C1266.32,-512.12 1230.45,-500.78 1218,-485.2 1168.99,-423.84 1205.49,-322.45 1226.67,-275.84"/>
<polygon fill="#64748b" stroke="#64748b" points="1228.8,-277.07 1229.53,-269.69 1224.36,-275 1228.8,-277.07"/>
</g>
<!-- n31&#45;&gt;n1 -->
<g id="edge64" class="edge">
<title>n31&#45;&gt;n1</title>
<path fill="none" stroke="#64748b" d="M1521.95,-519.77C1579.62,-499.85 1652,-461.78 1652,-396.2 1652,-396.2 1652,-396.2 1652,-177 1652,-135.11 1652.63,-115.46 1621,-88 1593.29,-63.93 1501.33,-49.63 1432.6,-42.06"/>
<polygon fill="#64748b" stroke="#64748b" points="1433.06,-39.64 1425.84,-41.33 1432.54,-44.52 1433.06,-39.64"/>
</g>
<!-- n31&#45;&gt;n2 -->
<g id="edge65" class="edge">
<title>n31&#45;&gt;n2</title>
<path fill="none" stroke="#64748b" d="M1306.51,-538.82C941.69,-538.45 17,-524.82 17,-396.2 17,-396.2 17,-396.2 17,-249 17,-206.13 36.21,-159.36 49.8,-131.64"/>
<polygon fill="#64748b" stroke="#64748b" points="51.84,-133.05 52.79,-125.7 47.46,-130.85 51.84,-133.05"/>
</g>
<!-- n31&#45;&gt;n5 -->
<g id="edge66" class="edge">
<title>n31&#45;&gt;n5</title>
<path fill="none" stroke="#64748b" d="M1530.39,-519.83C1547.56,-512.03 1563.68,-500.94 1574,-485.2 1618.68,-417.08 1556.6,-319.62 1522.62,-274.98"/>
<polygon fill="#64748b" stroke="#64748b" points="1524.58,-273.51 1518.35,-269.48 1520.71,-276.52 1524.58,-273.51"/>
</g>
<!-- n31&#45;&gt;n29 -->
<g id="edge67" class="edge">
<title>n31&#45;&gt;n29</title>
<path fill="none" stroke="#64748b" d="M1437.29,-519.81C1430.4,-511.2 1422.12,-500.85 1414.79,-491.69"/>
<polygon fill="#64748b" stroke="#64748b" points="1416.89,-490.39 1410.6,-486.45 1413.06,-493.45 1416.89,-490.39"/>
</g>
<!-- n30 -->
<g id="node32" class="node">
<title>n30</title>
<g id="a_node32"><a xlink:href="https://github.com/statopia/statlib/blob/main/Statlib/StatFoundation/BasicAnalysis/measure_le_ofReal_of_measureReal_le.lean#L10" xlink:title="lemma · Statlib/StatFoundation/BasicAnalysis/measure_le_ofReal_of_measureReal_le.lean:10" target="_blank">
<path fill="#eef2f6" stroke="#94a3b8" d="M2189.5,-340C2189.5,-340 2018.5,-340 2018.5,-340 2012.5,-340 2006.5,-334 2006.5,-328 2006.5,-328 2006.5,-316 2006.5,-316 2006.5,-310 2012.5,-304 2018.5,-304 2018.5,-304 2189.5,-304 2189.5,-304 2195.5,-304 2201.5,-310 2201.5,-316 2201.5,-316 2201.5,-328 2201.5,-328 2201.5,-334 2195.5,-340 2189.5,-340"/>
<text xml:space="preserve" text-anchor="middle" x="2104" y="-319" font-family="Helvetica,sans-Serif" font-size="10.00">measure_le_ofReal_of_measureReal_le</text>
</a>
</g>
</g>
<!-- n31&#45;&gt;n30 -->
<g id="edge68" class="edge">
<title>n31&#45;&gt;n30</title>
<path fill="none" stroke="#64748b" d="M1528.8,-519.81C1567.45,-510.18 1614.92,-497.8 1657,-485.2 1809.96,-439.41 1848.04,-426.67 1997,-369.2 2017.33,-361.36 2039.5,-351.93 2058.35,-343.65"/>
<polygon fill="#64748b" stroke="#64748b" points="2058.87,-346.1 2064.29,-341.03 2056.89,-341.62 2058.87,-346.1"/>
</g>
</g>
</svg>
