<?xml version="1.0" encoding="UTF-8" standalone="no"?>
<!DOCTYPE svg PUBLIC "-//W3C//DTD SVG 1.1//EN"
 "http://www.w3.org/Graphics/SVG/1.1/DTD/svg11.dtd">
<!-- Generated by graphviz version 15.0.0 (20260523.1842)
 -->
<!-- Title: decoupledOffDiagQuadForm_prod_tail_le_lintegral_spectral Pages: 1 -->
<svg width="1936pt" height="699pt"
 viewBox="0.00 0.00 1936.00 699.00" xmlns="http://www.w3.org/2000/svg" xmlns:xlink="http://www.w3.org/1999/xlink">
<g id="graph0" class="graph" transform="scale(1 1) rotate(0) translate(4 695.2)">
<title>decoupledOffDiagQuadForm_prod_tail_le_lintegral_spectral</title>
<polygon fill="white" stroke="none" points="-4,4 -4,-695.2 1932,-695.2 1932,4 -4,4"/>
<text xml:space="preserve" text-anchor="middle" x="964" y="-674.6" font-family="Helvetica,sans-Serif" font-size="14.00">Proof narrative — decoupledOffDiagQuadForm_prod_tail_le_lintegral_spectral &#160;(30 decls)</text>
<g id="clust1" class="cluster">
<title>cluster_0</title>
<path fill="none" stroke="#cbd5e1" stroke-dasharray="5,2" d="M20,-8C20,-8 1360,-8 1360,-8 1366,-8 1372,-14 1372,-20 1372,-20 1372,-646.4 1372,-646.4 1372,-652.4 1366,-658.4 1360,-658.4 1360,-658.4 20,-658.4 20,-658.4 14,-658.4 8,-652.4 8,-646.4 8,-646.4 8,-20 8,-20 8,-14 14,-8 20,-8"/>
<text xml:space="preserve" text-anchor="middle" x="690" y="-644.5" font-family="Helvetica,sans-Serif" font-size="11.00">HighDim</text>
</g>
<g id="clust2" class="cluster">
<title>cluster_1</title>
<path fill="none" stroke="#cbd5e1" stroke-dasharray="5,2" d="M1392,-368C1392,-368 1908,-368 1908,-368 1914,-368 1920,-374 1920,-380 1920,-380 1920,-429.2 1920,-429.2 1920,-435.2 1914,-441.2 1908,-441.2 1908,-441.2 1392,-441.2 1392,-441.2 1386,-441.2 1380,-435.2 1380,-429.2 1380,-429.2 1380,-380 1380,-380 1380,-374 1386,-368 1392,-368"/>
<text xml:space="preserve" text-anchor="middle" x="1650" y="-427.3" font-family="Helvetica,sans-Serif" font-size="11.00">StatFoundation</text>
</g>
<!-- n0 -->
<g id="node1" class="node">
<title>n0</title>
<g id="a_node1"><a xlink:href="https://github.com/statopia/statlib/blob/main/Statlib/HighDim/Vocabulary/RandomVector.lean#L52" xlink:title="structure · Statlib/HighDim/Vocabulary/RandomVector.lean:52" target="_blank">
<path fill="#e8dcff" stroke="#8b5cf6" d="M1352.36,-340C1352.36,-340 1263.64,-340 1263.64,-340 1257.64,-340 1251.64,-334 1251.64,-328 1251.64,-328 1251.64,-316 1251.64,-316 1251.64,-310 1257.64,-304 1263.64,-304 1263.64,-304 1352.36,-304 1352.36,-304 1358.36,-304 1364.36,-310 1364.36,-316 1364.36,-316 1364.36,-328 1364.36,-328 1364.36,-334 1358.36,-340 1352.36,-340"/>
<text xml:space="preserve" text-anchor="middle" x="1308" y="-319" font-family="Helvetica,sans-Serif" font-size="10.00">IsSubGaussianVector</text>
</a>
</g>
</g>
<!-- n1 -->
<g id="node2" class="node">
<title>n1</title>
<g id="a_node2"><a xlink:href="https://github.com/statopia/statlib/blob/main/Statlib/HighDim/Vocabulary/QuadraticForms.lean#L33" xlink:title="noncomputable def · Statlib/HighDim/Vocabulary/QuadraticForms.lean:33" target="_blank">
<path fill="#d6e9ff" stroke="#3b82f6" d="M328.92,-124C328.92,-124 209.08,-124 209.08,-124 203.08,-124 197.08,-118 197.08,-112 197.08,-112 197.08,-100 197.08,-100 197.08,-94 203.08,-88 209.08,-88 209.08,-88 328.92,-88 328.92,-88 334.92,-88 340.92,-94 340.92,-100 340.92,-100 340.92,-112 340.92,-112 340.92,-118 334.92,-124 328.92,-124"/>
<text xml:space="preserve" text-anchor="middle" x="269" y="-103" font-family="Helvetica,sans-Serif" font-size="10.00">decoupledOffDiagQuadForm</text>
</a>
</g>
</g>
<!-- n2 -->
<g id="node3" class="node">
<title>n2</title>
<g id="a_node3"><a xlink:href="https://github.com/statopia/statlib/blob/main/Statlib/HighDim/Concentration/HansonWright.lean#L90" xlink:title="lemma · Statlib/HighDim/Concentration/HansonWright.lean:90" target="_blank">
<path fill="#eef2f6" stroke="#94a3b8" d="M225.83,-196C225.83,-196 48.17,-196 48.17,-196 42.17,-196 36.17,-190 36.17,-184 36.17,-184 36.17,-172 36.17,-172 36.17,-166 42.17,-160 48.17,-160 48.17,-160 225.83,-160 225.83,-160 231.83,-160 237.83,-166 237.83,-172 237.83,-172 237.83,-184 237.83,-184 237.83,-190 231.83,-196 225.83,-196"/>
<text xml:space="preserve" text-anchor="middle" x="137" y="-175" font-family="Helvetica,sans-Serif" font-size="10.00">decoupledOffDiagQuadForm_measurable</text>
</a>
</g>
</g>
<!-- n2&#45;&gt;n1 -->
<g id="edge1" class="edge">
<title>n2&#45;&gt;n1</title>
<path fill="none" stroke="#64748b" d="M169.97,-159.52C187.9,-150.01 210.22,-138.17 229.12,-128.15"/>
<polygon fill="#64748b" stroke="#64748b" points="230.08,-130.41 235.11,-124.97 227.78,-126.08 230.08,-130.41"/>
</g>
<!-- n3 -->
<g id="node4" class="node">
<title>n3</title>
<g id="a_node4"><a xlink:href="https://github.com/statopia/statlib/blob/main/Statlib/HighDim/Concentration/HansonWright.lean#L99" xlink:title="lemma · Statlib/HighDim/Concentration/HansonWright.lean:99" target="_blank">
<path fill="#eef2f6" stroke="#94a3b8" d="M251.62,-268C251.62,-268 48.38,-268 48.38,-268 42.38,-268 36.38,-262 36.38,-256 36.38,-256 36.38,-244 36.38,-244 36.38,-238 42.38,-232 48.38,-232 48.38,-232 251.62,-232 251.62,-232 257.62,-232 263.62,-238 263.62,-244 263.62,-244 263.62,-256 263.62,-256 263.62,-262 257.62,-268 251.62,-268"/>
<text xml:space="preserve" text-anchor="middle" x="150" y="-247" font-family="Helvetica,sans-Serif" font-size="10.00">decoupledOffDiagQuadForm_prod_measurable</text>
</a>
</g>
</g>
<!-- n3&#45;&gt;n1 -->
<g id="edge2" class="edge">
<title>n3&#45;&gt;n1</title>
<path fill="none" stroke="#64748b" d="M199.6,-231.61C216.88,-223.29 234.94,-211.66 247,-196 261.07,-177.74 266.26,-151.66 268.12,-132.45"/>
<polygon fill="#64748b" stroke="#64748b" points="270.54,-132.83 268.64,-125.67 265.66,-132.46 270.54,-132.83"/>
</g>
<!-- n3&#45;&gt;n2 -->
<g id="edge3" class="edge">
<title>n3&#45;&gt;n2</title>
<path fill="none" stroke="#64748b" d="M146.79,-231.7C145.26,-223.47 143.4,-213.48 141.72,-204.42"/>
<polygon fill="#64748b" stroke="#64748b" points="144.14,-204.03 140.45,-197.59 139.32,-204.92 144.14,-204.03"/>
</g>
<!-- n4 -->
<g id="node5" class="node">
<title>n4</title>
<g id="a_node5"><a xlink:href="https://github.com/statopia/statlib/blob/main/Statlib/HighDim/Concentration/HansonWright.lean#L109" xlink:title="lemma · Statlib/HighDim/Concentration/HansonWright.lean:109" target="_blank">
<path fill="#eef2f6" stroke="#94a3b8" d="M284.29,-340C284.29,-340 47.71,-340 47.71,-340 41.71,-340 35.71,-334 35.71,-328 35.71,-328 35.71,-316 35.71,-316 35.71,-310 41.71,-304 47.71,-304 47.71,-304 284.29,-304 284.29,-304 290.29,-304 296.29,-310 296.29,-316 296.29,-316 296.29,-328 296.29,-328 296.29,-334 290.29,-340 284.29,-340"/>
<text xml:space="preserve" text-anchor="middle" x="166" y="-319" font-family="Helvetica,sans-Serif" font-size="10.00">decoupledOffDiagQuadForm_prod_tail_measurableSet</text>
</a>
</g>
</g>
<!-- n4&#45;&gt;n1 -->
<g id="edge4" class="edge">
<title>n4&#45;&gt;n1</title>
<path fill="none" stroke="#64748b" d="M229.09,-303.57C246.3,-295.61 262.94,-284.2 273,-268 298.96,-226.17 287.32,-165.72 277.52,-132.05"/>
<polygon fill="#64748b" stroke="#64748b" points="279.92,-131.52 275.53,-125.54 275.23,-132.95 279.92,-131.52"/>
</g>
<!-- n4&#45;&gt;n3 -->
<g id="edge5" class="edge">
<title>n4&#45;&gt;n3</title>
<path fill="none" stroke="#64748b" d="M162.04,-303.7C160.15,-295.39 157.83,-285.28 155.75,-276.14"/>
<polygon fill="#64748b" stroke="#64748b" points="158.2,-275.86 154.25,-269.58 153.42,-276.95 158.2,-275.86"/>
</g>
<!-- n5 -->
<g id="node6" class="node">
<title>n5</title>
<g id="a_node6"><a xlink:href="https://github.com/statopia/statlib/blob/main/Statlib/HighDim/Vocabulary/QuadraticForms.lean#L46" xlink:title="noncomputable def · Statlib/HighDim/Vocabulary/QuadraticForms.lean:46" target="_blank">
<path fill="#d6e9ff" stroke="#3b82f6" d="M908.41,-52C908.41,-52 843.59,-52 843.59,-52 837.59,-52 831.59,-46 831.59,-40 831.59,-40 831.59,-28 831.59,-28 831.59,-22 837.59,-16 843.59,-16 843.59,-16 908.41,-16 908.41,-16 914.41,-16 920.41,-22 920.41,-28 920.41,-28 920.41,-40 920.41,-40 920.41,-46 914.41,-52 908.41,-52"/>
<text xml:space="preserve" text-anchor="middle" x="876" y="-31" font-family="Helvetica,sans-Serif" font-size="10.00">offDiagCoeffVec</text>
</a>
</g>
</g>
<!-- n6 -->
<g id="node7" class="node">
<title>n6</title>
<g id="a_node7"><a xlink:href="https://github.com/statopia/statlib/blob/main/Statlib/HighDim/Vocabulary/QuadraticForms.lean#L52" xlink:title="def · Statlib/HighDim/Vocabulary/QuadraticForms.lean:52" target="_blank">
<path fill="#d6e9ff" stroke="#3b82f6" d="M589.62,-52C589.62,-52 530.38,-52 530.38,-52 524.38,-52 518.38,-46 518.38,-40 518.38,-40 518.38,-28 518.38,-28 518.38,-22 524.38,-16 530.38,-16 530.38,-16 589.62,-16 589.62,-16 595.62,-16 601.62,-22 601.62,-28 601.62,-28 601.62,-40 601.62,-40 601.62,-46 595.62,-52 589.62,-52"/>
<text xml:space="preserve" text-anchor="middle" x="560" y="-31" font-family="Helvetica,sans-Serif" font-size="10.00">zeroDiagMatrix</text>
</a>
</g>
</g>
<!-- n7 -->
<g id="node8" class="node">
<title>n7</title>
<g id="a_node8"><a xlink:href="https://github.com/statopia/statlib/blob/main/Statlib/HighDim/Concentration/HansonWright.lean#L203" xlink:title="lemma · Statlib/HighDim/Concentration/HansonWright.lean:203" target="_blank">
<path fill="#eef2f6" stroke="#94a3b8" d="M784.61,-124C784.61,-124 591.39,-124 591.39,-124 585.39,-124 579.39,-118 579.39,-112 579.39,-112 579.39,-100 579.39,-100 579.39,-94 585.39,-88 591.39,-88 591.39,-88 784.61,-88 784.61,-88 790.61,-88 796.61,-94 796.61,-100 796.61,-100 796.61,-112 796.61,-112 796.61,-118 790.61,-124 784.61,-124"/>
<text xml:space="preserve" text-anchor="middle" x="688" y="-103" font-family="Helvetica,sans-Serif" font-size="10.00">offDiagCoeffVec_eq_zeroDiagMatrix_mulVec</text>
</a>
</g>
</g>
<!-- n7&#45;&gt;n5 -->
<g id="edge6" class="edge">
<title>n7&#45;&gt;n5</title>
<path fill="none" stroke="#64748b" d="M734.96,-87.52C761.9,-77.49 795.78,-64.87 823.59,-54.51"/>
<polygon fill="#64748b" stroke="#64748b" points="824.14,-56.93 829.84,-52.19 822.43,-52.33 824.14,-56.93"/>
</g>
<!-- n7&#45;&gt;n6 -->
<g id="edge7" class="edge">
<title>n7&#45;&gt;n6</title>
<path fill="none" stroke="#64748b" d="M656.03,-87.52C638.64,-78.01 617,-66.17 598.67,-56.15"/>
<polygon fill="#64748b" stroke="#64748b" points="600.21,-54.2 592.89,-52.99 597.86,-58.5 600.21,-54.2"/>
</g>
<!-- n8 -->
<g id="node9" class="node">
<title>n8</title>
<g id="a_node9"><a xlink:href="https://github.com/statopia/statlib/blob/main/Statlib/HighDim/Concentration/HansonWright.lean#L228" xlink:title="lemma · Statlib/HighDim/Concentration/HansonWright.lean:228" target="_blank">
<path fill="#eef2f6" stroke="#94a3b8" d="M764.04,-196C764.04,-196 611.96,-196 611.96,-196 605.96,-196 599.96,-190 599.96,-184 599.96,-184 599.96,-172 599.96,-172 599.96,-166 605.96,-160 611.96,-160 611.96,-160 764.04,-160 764.04,-160 770.04,-160 776.04,-166 776.04,-172 776.04,-172 776.04,-184 776.04,-184 776.04,-190 770.04,-196 764.04,-196"/>
<text xml:space="preserve" text-anchor="middle" x="688" y="-175" font-family="Helvetica,sans-Serif" font-size="10.00">offDiagCoeffVec_norm_le_zeroDiag</text>
</a>
</g>
</g>
<!-- n8&#45;&gt;n5 -->
<g id="edge8" class="edge">
<title>n8&#45;&gt;n5</title>
<path fill="none" stroke="#64748b" d="M742.9,-159.52C764.09,-151.02 787.6,-139.28 806,-124 820.99,-111.56 819.13,-103.44 831,-88 838.58,-78.14 847.34,-67.64 855.11,-58.6"/>
<polygon fill="#64748b" stroke="#64748b" points="856.84,-60.35 859.57,-53.46 853.14,-57.14 856.84,-60.35"/>
</g>
<!-- n8&#45;&gt;n6 -->
<g id="edge9" class="edge">
<title>n8&#45;&gt;n6</title>
<path fill="none" stroke="#64748b" d="M618.22,-159.51C599.83,-151.6 581.85,-140.24 570,-124 556.73,-105.81 555.27,-79.72 556.51,-60.49"/>
<polygon fill="#64748b" stroke="#64748b" points="558.94,-60.88 557.1,-53.69 554.05,-60.45 558.94,-60.88"/>
</g>
<!-- n8&#45;&gt;n7 -->
<g id="edge10" class="edge">
<title>n8&#45;&gt;n7</title>
<path fill="none" stroke="#64748b" d="M688,-159.7C688,-151.47 688,-141.48 688,-132.42"/>
<polygon fill="#64748b" stroke="#64748b" points="690.45,-132.62 688,-125.62 685.55,-132.62 690.45,-132.62"/>
</g>
<!-- n9 -->
<g id="node10" class="node">
<title>n9</title>
<g id="a_node10"><a xlink:href="https://github.com/statopia/statlib/blob/main/Statlib/HighDim/Vocabulary/QuadraticForms.lean#L57" xlink:title="def · Statlib/HighDim/Vocabulary/QuadraticForms.lean:57" target="_blank">
<path fill="#d6e9ff" stroke="#3b82f6" d="M488.23,-52C488.23,-52 431.77,-52 431.77,-52 425.77,-52 419.77,-46 419.77,-40 419.77,-40 419.77,-28 419.77,-28 419.77,-22 425.77,-16 431.77,-16 431.77,-16 488.23,-16 488.23,-16 494.23,-16 500.23,-22 500.23,-28 500.23,-28 500.23,-40 500.23,-40 500.23,-46 494.23,-52 488.23,-52"/>
<text xml:space="preserve" text-anchor="middle" x="460" y="-31" font-family="Helvetica,sans-Serif" font-size="10.00">diagPartMatrix</text>
</a>
</g>
</g>
<!-- n10 -->
<g id="node11" class="node">
<title>n10</title>
<g id="a_node11"><a xlink:href="https://github.com/statopia/statlib/blob/main/Statlib/HighDim/Concentration/HansonWright.lean#L350" xlink:title="lemma · Statlib/HighDim/Concentration/HansonWright.lean:350" target="_blank">
<path fill="#eef2f6" stroke="#94a3b8" d="M390.26,-52C390.26,-52 253.74,-52 253.74,-52 247.74,-52 241.74,-46 241.74,-40 241.74,-40 241.74,-28 241.74,-28 241.74,-22 247.74,-16 253.74,-16 253.74,-16 390.26,-16 390.26,-16 396.26,-16 402.26,-22 402.26,-28 402.26,-28 402.26,-40 402.26,-40 402.26,-46 396.26,-52 390.26,-52"/>
<text xml:space="preserve" text-anchor="middle" x="322" y="-31" font-family="Helvetica,sans-Serif" font-size="10.00">matrix_entry_abs_le_l2_opNorm</text>
</a>
</g>
</g>
<!-- n11 -->
<g id="node12" class="node">
<title>n11</title>
<g id="a_node12"><a xlink:href="https://github.com/statopia/statlib/blob/main/Statlib/HighDim/Concentration/HansonWright.lean#L637" xlink:title="lemma · Statlib/HighDim/Concentration/HansonWright.lean:637" target="_blank">
<path fill="#eef2f6" stroke="#94a3b8" d="M469.08,-124C469.08,-124 370.92,-124 370.92,-124 364.92,-124 358.92,-118 358.92,-112 358.92,-112 358.92,-100 358.92,-100 358.92,-94 364.92,-88 370.92,-88 370.92,-88 469.08,-88 469.08,-88 475.08,-88 481.08,-94 481.08,-100 481.08,-100 481.08,-112 481.08,-112 481.08,-118 475.08,-124 469.08,-124"/>
<text xml:space="preserve" text-anchor="middle" x="420" y="-103" font-family="Helvetica,sans-Serif" font-size="10.00">diagPartMatrix_norm_le</text>
</a>
</g>
</g>
<!-- n11&#45;&gt;n9 -->
<g id="edge11" class="edge">
<title>n11&#45;&gt;n9</title>
<path fill="none" stroke="#64748b" d="M429.89,-87.7C434.78,-79.14 440.77,-68.66 446.11,-59.3"/>
<polygon fill="#64748b" stroke="#64748b" points="448.13,-60.71 449.48,-53.42 443.87,-58.28 448.13,-60.71"/>
</g>
<!-- n11&#45;&gt;n10 -->
<g id="edge12" class="edge">
<title>n11&#45;&gt;n10</title>
<path fill="none" stroke="#64748b" d="M395.52,-87.52C382.56,-78.26 366.52,-66.8 352.73,-56.95"/>
<polygon fill="#64748b" stroke="#64748b" points="354.52,-55.22 347.4,-53.14 351.67,-59.2 354.52,-55.22"/>
</g>
<!-- n12 -->
<g id="node13" class="node">
<title>n12</title>
<g id="a_node13"><a xlink:href="https://github.com/statopia/statlib/blob/main/Statlib/HighDim/Concentration/HansonWright.lean#L656" xlink:title="lemma · Statlib/HighDim/Concentration/HansonWright.lean:656" target="_blank">
<path fill="#eef2f6" stroke="#94a3b8" d="M550.03,-196C550.03,-196 427.97,-196 427.97,-196 421.97,-196 415.97,-190 415.97,-184 415.97,-184 415.97,-172 415.97,-172 415.97,-166 421.97,-160 427.97,-160 427.97,-160 550.03,-160 550.03,-160 556.03,-160 562.03,-166 562.03,-172 562.03,-172 562.03,-184 562.03,-184 562.03,-190 556.03,-196 550.03,-196"/>
<text xml:space="preserve" text-anchor="middle" x="489" y="-175" font-family="Helvetica,sans-Serif" font-size="10.00">zeroDiagMatrix_norm_le_two</text>
</a>
</g>
</g>
<!-- n12&#45;&gt;n6 -->
<g id="edge13" class="edge">
<title>n12&#45;&gt;n6</title>
<path fill="none" stroke="#64748b" d="M497.71,-159.59C510.23,-134.54 533.39,-88.22 547.67,-59.66"/>
<polygon fill="#64748b" stroke="#64748b" points="549.83,-60.82 550.77,-53.46 545.45,-58.63 549.83,-60.82"/>
</g>
<!-- n12&#45;&gt;n9 -->
<g id="edge14" class="edge">
<title>n12&#45;&gt;n9</title>
<path fill="none" stroke="#64748b" d="M491.88,-159.6C494.28,-141.42 496.38,-112.21 490,-88 487.38,-78.04 482.4,-67.98 477.25,-59.34"/>
<polygon fill="#64748b" stroke="#64748b" points="479.33,-58.06 473.53,-53.44 475.19,-60.67 479.33,-58.06"/>
</g>
<!-- n12&#45;&gt;n11 -->
<g id="edge15" class="edge">
<title>n12&#45;&gt;n11</title>
<path fill="none" stroke="#64748b" d="M471.94,-159.7C463.09,-150.71 452.15,-139.61 442.6,-129.92"/>
<polygon fill="#64748b" stroke="#64748b" points="444.58,-128.45 437.92,-125.18 441.09,-131.89 444.58,-128.45"/>
</g>
<!-- n13 -->
<g id="node14" class="node">
<title>n13</title>
<g id="a_node14"><a xlink:href="https://github.com/statopia/statlib/blob/main/Statlib/HighDim/Concentration/HansonWright.lean#L685" xlink:title="lemma · Statlib/HighDim/Concentration/HansonWright.lean:685" target="_blank">
<path fill="#eef2f6" stroke="#94a3b8" d="M741.25,-268C741.25,-268 634.75,-268 634.75,-268 628.75,-268 622.75,-262 622.75,-256 622.75,-256 622.75,-244 622.75,-244 622.75,-238 628.75,-232 634.75,-232 634.75,-232 741.25,-232 741.25,-232 747.25,-232 753.25,-238 753.25,-244 753.25,-244 753.25,-256 753.25,-256 753.25,-262 747.25,-268 741.25,-268"/>
<text xml:space="preserve" text-anchor="middle" x="688" y="-247" font-family="Helvetica,sans-Serif" font-size="10.00">offDiagCoeffVec_norm_le</text>
</a>
</g>
</g>
<!-- n13&#45;&gt;n5 -->
<g id="edge16" class="edge">
<title>n13&#45;&gt;n5</title>
<path fill="none" stroke="#64748b" d="M731.5,-231.64C749.58,-222.9 769.83,-210.95 785,-196 795.84,-185.31 840.58,-102.06 863.03,-59.66"/>
<polygon fill="#64748b" stroke="#64748b" points="865.14,-60.91 866.24,-53.58 860.81,-58.62 865.14,-60.91"/>
</g>
<!-- n13&#45;&gt;n6 -->
<g id="edge17" class="edge">
<title>n13&#45;&gt;n6</title>
<path fill="none" stroke="#64748b" d="M643.8,-231.62C625.81,-222.93 605.82,-211.03 591,-196 587.82,-192.78 554.09,-128.39 553,-124 549.15,-108.47 551.95,-103.97 553,-88 553.59,-78.97 554.75,-69.13 555.96,-60.41"/>
<polygon fill="#64748b" stroke="#64748b" points="558.36,-60.91 556.94,-53.63 553.51,-60.2 558.36,-60.91"/>
</g>
<!-- n13&#45;&gt;n8 -->
<g id="edge18" class="edge">
<title>n13&#45;&gt;n8</title>
<path fill="none" stroke="#64748b" d="M688,-231.7C688,-223.47 688,-213.48 688,-204.42"/>
<polygon fill="#64748b" stroke="#64748b" points="690.45,-204.62 688,-197.62 685.55,-204.62 690.45,-204.62"/>
</g>
<!-- n13&#45;&gt;n12 -->
<g id="edge19" class="edge">
<title>n13&#45;&gt;n12</title>
<path fill="none" stroke="#64748b" d="M638.3,-231.52C610.41,-221.71 575.5,-209.43 546.44,-199.21"/>
<polygon fill="#64748b" stroke="#64748b" points="547.26,-196.9 539.84,-196.88 545.63,-201.52 547.26,-196.9"/>
</g>
<!-- n14 -->
<g id="node15" class="node">
<title>n14</title>
<g id="a_node15"><a xlink:href="https://github.com/statopia/statlib/blob/main/Statlib/HighDim/Concentration/HansonWright.lean#L704" xlink:title="lemma · Statlib/HighDim/Concentration/HansonWright.lean:704" target="_blank">
<path fill="#eef2f6" stroke="#94a3b8" d="M804.31,-340C804.31,-340 681.69,-340 681.69,-340 675.69,-340 669.69,-334 669.69,-328 669.69,-328 669.69,-316 669.69,-316 669.69,-310 675.69,-304 681.69,-304 681.69,-304 804.31,-304 804.31,-304 810.31,-304 816.31,-310 816.31,-316 816.31,-316 816.31,-328 816.31,-328 816.31,-334 810.31,-340 804.31,-340"/>
<text xml:space="preserve" text-anchor="middle" x="743" y="-319" font-family="Helvetica,sans-Serif" font-size="10.00">offDiagCoeffVec_norm_sq_le</text>
</a>
</g>
</g>
<!-- n14&#45;&gt;n5 -->
<g id="edge20" class="edge">
<title>n14&#45;&gt;n5</title>
<path fill="none" stroke="#64748b" d="M752.65,-303.67C771.34,-269.75 813.25,-192 843,-124 852.28,-102.79 861.31,-78.06 867.57,-60.05"/>
<polygon fill="#64748b" stroke="#64748b" points="869.79,-61.14 869.75,-53.72 865.16,-59.55 869.79,-61.14"/>
</g>
<!-- n14&#45;&gt;n13 -->
<g id="edge21" class="edge">
<title>n14&#45;&gt;n13</title>
<path fill="none" stroke="#64748b" d="M729.4,-303.7C722.54,-294.97 714.12,-284.24 706.66,-274.75"/>
<polygon fill="#64748b" stroke="#64748b" points="708.63,-273.29 702.37,-269.29 704.77,-276.31 708.63,-273.29"/>
</g>
<!-- n15 -->
<g id="node16" class="node">
<title>n15</title>
<g id="a_node16"><a xlink:href="https://github.com/statopia/statlib/blob/main/Statlib/HighDim/Concentration/HansonWright.lean#L711" xlink:title="lemma · Statlib/HighDim/Concentration/HansonWright.lean:711" target="_blank">
<path fill="#eef2f6" stroke="#94a3b8" d="M923.7,-412C923.7,-412 664.3,-412 664.3,-412 658.3,-412 652.3,-406 652.3,-400 652.3,-400 652.3,-388 652.3,-388 652.3,-382 658.3,-376 664.3,-376 664.3,-376 923.7,-376 923.7,-376 929.7,-376 935.7,-382 935.7,-388 935.7,-388 935.7,-400 935.7,-400 935.7,-406 929.7,-412 923.7,-412"/>
<text xml:space="preserve" text-anchor="middle" x="794" y="-391" font-family="Helvetica,sans-Serif" font-size="10.00">decoupled_const_right_subgaussian_parameter_le_spectral</text>
</a>
</g>
</g>
<!-- n15&#45;&gt;n5 -->
<g id="edge22" class="edge">
<title>n15&#45;&gt;n5</title>
<path fill="none" stroke="#64748b" d="M806.6,-375.74C813.2,-365.79 820.78,-352.75 825,-340 850.32,-263.59 829.73,-239.03 845,-160 848.15,-143.7 850.87,-140.08 855,-124 860.46,-102.72 866.15,-78.45 870.23,-60.63"/>
<polygon fill="#64748b" stroke="#64748b" points="872.6,-61.29 871.76,-53.92 867.82,-60.2 872.6,-61.29"/>
</g>
<!-- n15&#45;&gt;n14 -->
<g id="edge23" class="edge">
<title>n15&#45;&gt;n14</title>
<path fill="none" stroke="#64748b" d="M781.39,-375.7C775.03,-366.97 767.22,-356.24 760.3,-346.75"/>
<polygon fill="#64748b" stroke="#64748b" points="762.46,-345.54 756.35,-341.33 758.49,-348.43 762.46,-345.54"/>
</g>
<!-- n17 -->
<g id="node17" class="node">
<title>n17</title>
<g id="a_node17"><a xlink:href="https://github.com/statopia/statlib/blob/main/Statlib/HighDim/Vocabulary/QuadraticForms.lean#L39" xlink:title="noncomputable def · Statlib/HighDim/Vocabulary/QuadraticForms.lean:39" target="_blank">
<path fill="#d6e9ff" stroke="#3b82f6" d="M1206.79,-124C1206.79,-124 1159.21,-124 1159.21,-124 1153.21,-124 1147.21,-118 1147.21,-112 1147.21,-112 1147.21,-100 1147.21,-100 1147.21,-94 1153.21,-88 1159.21,-88 1159.21,-88 1206.79,-88 1206.79,-88 1212.79,-88 1218.79,-94 1218.79,-100 1218.79,-100 1218.79,-112 1218.79,-112 1218.79,-118 1212.79,-124 1206.79,-124"/>
<text xml:space="preserve" text-anchor="middle" x="1183" y="-103" font-family="Helvetica,sans-Serif" font-size="10.00">offDiagCoeff</text>
</a>
</g>
</g>
<!-- n18 -->
<g id="node18" class="node">
<title>n18</title>
<g id="a_node18"><a xlink:href="https://github.com/statopia/statlib/blob/main/Statlib/HighDim/Concentration/HansonWright.lean#L46" xlink:title="lemma · Statlib/HighDim/Concentration/HansonWright.lean:46" target="_blank">
<path fill="#eef2f6" stroke="#94a3b8" d="M1054.11,-196C1054.11,-196 865.89,-196 865.89,-196 859.89,-196 853.89,-190 853.89,-184 853.89,-184 853.89,-172 853.89,-172 853.89,-166 859.89,-160 865.89,-160 865.89,-160 1054.11,-160 1054.11,-160 1060.11,-160 1066.11,-166 1066.11,-172 1066.11,-172 1066.11,-184 1066.11,-184 1066.11,-190 1060.11,-196 1054.11,-196"/>
<text xml:space="preserve" text-anchor="middle" x="960" y="-175" font-family="Helvetica,sans-Serif" font-size="10.00">decoupledOffDiagQuadForm_eq_sum_coeff</text>
</a>
</g>
</g>
<!-- n18&#45;&gt;n1 -->
<g id="edge24" class="edge">
<title>n18&#45;&gt;n1</title>
<path fill="none" stroke="#64748b" d="M853.6,-166.42C830.96,-164.24 807.19,-162 785,-160 591.79,-142.62 541.97,-151.98 350,-124 349.91,-123.99 349.82,-123.97 349.73,-123.96"/>
<polygon fill="#64748b" stroke="#64748b" points="350.13,-121.54 342.84,-122.88 349.38,-126.39 350.13,-121.54"/>
</g>
<!-- n18&#45;&gt;n17 -->
<g id="edge25" class="edge">
<title>n18&#45;&gt;n17</title>
<path fill="none" stroke="#64748b" d="M1015.7,-159.52C1053.84,-147.54 1103.71,-131.89 1139.05,-120.79"/>
<polygon fill="#64748b" stroke="#64748b" points="1139.42,-123.25 1145.37,-118.81 1137.96,-118.57 1139.42,-123.25"/>
</g>
<!-- n19 -->
<g id="node19" class="node">
<title>n19</title>
<g id="a_node19"><a xlink:href="https://github.com/statopia/statlib/blob/main/Statlib/HighDim/Vocabulary/Norms.lean#L32" xlink:title="lemma · Statlib/HighDim/Vocabulary/Norms.lean:32" target="_blank">
<path fill="#eef2f6" stroke="#94a3b8" d="M1151.69,-196C1151.69,-196 1096.31,-196 1096.31,-196 1090.31,-196 1084.31,-190 1084.31,-184 1084.31,-184 1084.31,-172 1084.31,-172 1084.31,-166 1090.31,-160 1096.31,-160 1096.31,-160 1151.69,-160 1151.69,-160 1157.69,-160 1163.69,-166 1163.69,-172 1163.69,-172 1163.69,-184 1163.69,-184 1163.69,-190 1157.69,-196 1151.69,-196"/>
<text xml:space="preserve" text-anchor="middle" x="1124" y="-175" font-family="Helvetica,sans-Serif" font-size="10.00">inner_eq_sum</text>
</a>
</g>
</g>
<!-- n20 -->
<g id="node20" class="node">
<title>n20</title>
<g id="a_node20"><a xlink:href="https://github.com/statopia/statlib/blob/main/Statlib/HighDim/Concentration/HansonWright.lean#L65" xlink:title="lemma · Statlib/HighDim/Concentration/HansonWright.lean:65" target="_blank">
<path fill="#eef2f6" stroke="#94a3b8" d="M1145.79,-268C1145.79,-268 954.21,-268 954.21,-268 948.21,-268 942.21,-262 942.21,-256 942.21,-256 942.21,-244 942.21,-244 942.21,-238 948.21,-232 954.21,-232 954.21,-232 1145.79,-232 1145.79,-232 1151.79,-232 1157.79,-238 1157.79,-244 1157.79,-244 1157.79,-256 1157.79,-256 1157.79,-262 1151.79,-268 1145.79,-268"/>
<text xml:space="preserve" text-anchor="middle" x="1050" y="-247" font-family="Helvetica,sans-Serif" font-size="10.00">decoupledOffDiagQuadForm_eq_inner_coeff</text>
</a>
</g>
</g>
<!-- n20&#45;&gt;n1 -->
<g id="edge26" class="edge">
<title>n20&#45;&gt;n1</title>
<path fill="none" stroke="#64748b" d="M941.76,-242.49C764.55,-231.48 429.76,-209.12 407,-196 390.12,-186.27 396.88,-172.57 382,-160 366.14,-146.61 346.33,-135.82 327.74,-127.56"/>
<polygon fill="#64748b" stroke="#64748b" points="329.21,-125.52 321.81,-125 327.27,-130.02 329.21,-125.52"/>
</g>
<!-- n20&#45;&gt;n17 -->
<g id="edge27" class="edge">
<title>n20&#45;&gt;n17</title>
<path fill="none" stroke="#64748b" d="M1123.97,-231.59C1142.68,-223.71 1160.88,-212.34 1173,-196 1186.41,-177.91 1187.85,-151.81 1186.57,-132.54"/>
<polygon fill="#64748b" stroke="#64748b" points="1189.02,-132.49 1185.96,-125.74 1184.14,-132.93 1189.02,-132.49"/>
</g>
<!-- n20&#45;&gt;n18 -->
<g id="edge28" class="edge">
<title>n20&#45;&gt;n18</title>
<path fill="none" stroke="#64748b" d="M1027.75,-231.7C1015.96,-222.53 1001.34,-211.16 988.71,-201.33"/>
<polygon fill="#64748b" stroke="#64748b" points="990.53,-199.64 983.5,-197.28 987.52,-203.51 990.53,-199.64"/>
</g>
<!-- n20&#45;&gt;n19 -->
<g id="edge29" class="edge">
<title>n20&#45;&gt;n19</title>
<path fill="none" stroke="#64748b" d="M1068.29,-231.7C1077.72,-222.78 1089.35,-211.78 1099.54,-202.14"/>
<polygon fill="#64748b" stroke="#64748b" points="1101.16,-203.98 1104.56,-197.39 1097.79,-200.42 1101.16,-203.98"/>
</g>
<!-- n21 -->
<g id="node21" class="node">
<title>n21</title>
<g id="a_node21"><a xlink:href="https://github.com/statopia/statlib/blob/main/Statlib/HighDim/Concentration/HansonWright.lean#L39" xlink:title="lemma · Statlib/HighDim/Concentration/HansonWright.lean:39" target="_blank">
<path fill="#eef2f6" stroke="#94a3b8" d="M1291.52,-196C1291.52,-196 1214.48,-196 1214.48,-196 1208.48,-196 1202.48,-190 1202.48,-184 1202.48,-184 1202.48,-172 1202.48,-172 1202.48,-166 1208.48,-160 1214.48,-160 1214.48,-160 1291.52,-160 1291.52,-160 1297.52,-160 1303.52,-166 1303.52,-172 1303.52,-172 1303.52,-184 1303.52,-184 1303.52,-190 1297.52,-196 1291.52,-196"/>
<text xml:space="preserve" text-anchor="middle" x="1253" y="-175" font-family="Helvetica,sans-Serif" font-size="10.00">offDiagCoeff_const</text>
</a>
</g>
</g>
<!-- n21&#45;&gt;n5 -->
<g id="edge31" class="edge">
<title>n21&#45;&gt;n5</title>
<path fill="none" stroke="#64748b" d="M1253.36,-159.73C1252.77,-139.38 1248.45,-106.06 1228,-88 1184.62,-49.71 1016.35,-39.08 929.12,-36.13"/>
<polygon fill="#64748b" stroke="#64748b" points="929.27,-33.68 922.2,-35.91 929.11,-38.58 929.27,-33.68"/>
</g>
<!-- n21&#45;&gt;n17 -->
<g id="edge30" class="edge">
<title>n21&#45;&gt;n17</title>
<path fill="none" stroke="#64748b" d="M1235.7,-159.7C1226.71,-150.71 1215.61,-139.61 1205.92,-129.92"/>
<polygon fill="#64748b" stroke="#64748b" points="1207.86,-128.39 1201.17,-125.17 1204.39,-131.86 1207.86,-128.39"/>
</g>
<!-- n22 -->
<g id="node22" class="node">
<title>n22</title>
<g id="a_node22"><a xlink:href="https://github.com/statopia/statlib/blob/main/Statlib/HighDim/Concentration/HansonWright.lean#L73" xlink:title="lemma · Statlib/HighDim/Concentration/HansonWright.lean:73" target="_blank">
<path fill="#eef2f6" stroke="#94a3b8" d="M1181.64,-340C1181.64,-340 918.36,-340 918.36,-340 912.36,-340 906.36,-334 906.36,-328 906.36,-328 906.36,-316 906.36,-316 906.36,-310 912.36,-304 918.36,-304 918.36,-304 1181.64,-304 1181.64,-304 1187.64,-304 1193.64,-310 1193.64,-316 1193.64,-316 1193.64,-328 1193.64,-328 1193.64,-334 1187.64,-340 1181.64,-340"/>
<text xml:space="preserve" text-anchor="middle" x="1050" y="-319" font-family="Helvetica,sans-Serif" font-size="10.00">decoupledOffDiagQuadForm_const_right_eq_inner_coeffVec</text>
</a>
</g>
</g>
<!-- n22&#45;&gt;n1 -->
<g id="edge32" class="edge">
<title>n22&#45;&gt;n1</title>
<path fill="none" stroke="#64748b" d="M906.12,-310.06C734.43,-294.32 460.64,-259.89 382,-196 367.79,-184.46 374.87,-173.01 362,-160 349.42,-147.28 333.15,-136.64 317.75,-128.3"/>
<polygon fill="#64748b" stroke="#64748b" points="318.96,-126.17 311.62,-125.1 316.69,-130.51 318.96,-126.17"/>
</g>
<!-- n22&#45;&gt;n5 -->
<g id="edge33" class="edge">
<title>n22&#45;&gt;n5</title>
<path fill="none" stroke="#64748b" d="M1146.81,-303.54C1234.43,-282.42 1345.22,-239.37 1313,-160 1296.21,-118.65 1282.76,-108.27 1243,-88 1189.18,-60.56 1016.99,-44.87 928.94,-38.45"/>
<polygon fill="#64748b" stroke="#64748b" points="929.36,-36.02 922.2,-37.96 929.01,-40.91 929.36,-36.02"/>
</g>
<!-- n22&#45;&gt;n20 -->
<g id="edge34" class="edge">
<title>n22&#45;&gt;n20</title>
<path fill="none" stroke="#64748b" d="M1050,-303.7C1050,-295.47 1050,-285.48 1050,-276.42"/>
<polygon fill="#64748b" stroke="#64748b" points="1052.45,-276.62 1050,-269.62 1047.55,-276.62 1052.45,-276.62"/>
</g>
<!-- n22&#45;&gt;n21 -->
<g id="edge35" class="edge">
<title>n22&#45;&gt;n21</title>
<path fill="none" stroke="#64748b" d="M1099.17,-303.57C1120.97,-294.65 1146.31,-282.58 1167,-268 1193.24,-249.51 1218.14,-222.29 1234.33,-202.83"/>
<polygon fill="#64748b" stroke="#64748b" points="1236.18,-204.43 1238.72,-197.47 1232.39,-201.33 1236.18,-204.43"/>
</g>
<!-- n23 -->
<g id="node23" class="node">
<title>n23</title>
<g id="a_node23"><a xlink:href="https://github.com/statopia/statlib/blob/main/Statlib/HighDim/Concentration/HansonWright.lean#L80" xlink:title="lemma · Statlib/HighDim/Concentration/HansonWright.lean:80" target="_blank">
<path fill="#eef2f6" stroke="#94a3b8" d="M1202.02,-412C1202.02,-412 965.98,-412 965.98,-412 959.98,-412 953.98,-406 953.98,-400 953.98,-400 953.98,-388 953.98,-388 953.98,-382 959.98,-376 965.98,-376 965.98,-376 1202.02,-376 1202.02,-376 1208.02,-376 1214.02,-382 1214.02,-388 1214.02,-388 1214.02,-400 1214.02,-400 1214.02,-406 1208.02,-412 1202.02,-412"/>
<text xml:space="preserve" text-anchor="middle" x="1084" y="-391" font-family="Helvetica,sans-Serif" font-size="10.00">decoupledOffDiagQuadForm_const_right_subgaussian</text>
</a>
</g>
</g>
<!-- n23&#45;&gt;n0 -->
<g id="edge36" class="edge">
<title>n23&#45;&gt;n0</title>
<path fill="none" stroke="#64748b" d="M1139.95,-375.52C1171.74,-365.58 1211.65,-353.11 1244.6,-342.81"/>
<polygon fill="#64748b" stroke="#64748b" points="1244.98,-345.26 1250.93,-340.83 1243.52,-340.58 1244.98,-345.26"/>
</g>
<!-- n23&#45;&gt;n1 -->
<g id="edge37" class="edge">
<title>n23&#45;&gt;n1</title>
<path fill="none" stroke="#64748b" d="M992.95,-375.55C977,-372.8 960.54,-370.16 945,-368 723.56,-337.22 647.85,-375.82 452,-268 407.13,-243.3 395.06,-235.13 362,-196 350.19,-182.02 354.14,-173.7 342,-160 331.57,-148.23 318.1,-137.54 305.56,-128.89"/>
<polygon fill="#64748b" stroke="#64748b" points="307.16,-127.01 299.98,-125.15 304.43,-131.08 307.16,-127.01"/>
</g>
<!-- n23&#45;&gt;n5 -->
<g id="edge38" class="edge">
<title>n23&#45;&gt;n5</title>
<path fill="none" stroke="#64748b" d="M1139.37,-375.6C1160.73,-367.11 1184.45,-355.36 1203,-340 1218.01,-327.58 1214.22,-317.76 1228,-304 1247.89,-284.14 1261.02,-288.73 1280,-268 1304.87,-240.84 1311.57,-231.6 1321,-196 1325.1,-180.53 1325.64,-175.31 1321,-160 1309.86,-123.19 1305.63,-108.36 1273,-88 1216.66,-52.86 1023.43,-40.65 928.91,-36.72"/>
<polygon fill="#64748b" stroke="#64748b" points="929.23,-34.28 922.14,-36.45 929.04,-39.18 929.23,-34.28"/>
</g>
<!-- n23&#45;&gt;n22 -->
<g id="edge39" class="edge">
<title>n23&#45;&gt;n22</title>
<path fill="none" stroke="#64748b" d="M1075.6,-375.7C1071.48,-367.22 1066.45,-356.86 1061.94,-347.58"/>
<polygon fill="#64748b" stroke="#64748b" points="1064.23,-346.69 1058.97,-341.47 1059.82,-348.83 1064.23,-346.69"/>
</g>
<!-- n25 -->
<g id="node24" class="node">
<title>n25</title>
<g id="a_node24"><a xlink:href="https://github.com/statopia/statlib/blob/main/Statlib/HighDim/Concentration/HansonWright.lean#L739" xlink:title="lemma · Statlib/HighDim/Concentration/HansonWright.lean:739" target="_blank">
<path fill="#eef2f6" stroke="#94a3b8" d="M1237.58,-485.2C1237.58,-485.2 960.42,-485.2 960.42,-485.2 954.42,-485.2 948.42,-479.2 948.42,-473.2 948.42,-473.2 948.42,-461.2 948.42,-461.2 948.42,-455.2 954.42,-449.2 960.42,-449.2 960.42,-449.2 1237.58,-449.2 1237.58,-449.2 1243.58,-449.2 1249.58,-455.2 1249.58,-461.2 1249.58,-461.2 1249.58,-473.2 1249.58,-473.2 1249.58,-479.2 1243.58,-485.2 1237.58,-485.2"/>
<text xml:space="preserve" text-anchor="middle" x="1099" y="-464.2" font-family="Helvetica,sans-Serif" font-size="10.00">decoupledOffDiagQuadForm_const_right_abs_tail_real_spectral</text>
</a>
</g>
</g>
<!-- n25&#45;&gt;n0 -->
<g id="edge40" class="edge">
<title>n25&#45;&gt;n0</title>
<path fill="none" stroke="#64748b" d="M1220.91,-448.74C1228.17,-446.48 1234.11,-443.97 1238,-441.2 1268.37,-419.56 1259.78,-399.95 1279,-368 1283.08,-361.22 1287.66,-353.96 1291.95,-347.31"/>
<polygon fill="#64748b" stroke="#64748b" points="1293.87,-348.84 1295.63,-341.64 1289.76,-346.17 1293.87,-348.84"/>
</g>
<!-- n25&#45;&gt;n1 -->
<g id="edge41" class="edge">
<title>n25&#45;&gt;n1</title>
<path fill="none" stroke="#64748b" d="M947.96,-466.7C837.41,-465.43 697.56,-459.91 643,-441.2 515.14,-397.36 490.91,-361.19 393,-268 349.15,-226.26 346.97,-207.94 310,-160 302.64,-150.46 294.52,-139.96 287.47,-130.84"/>
<polygon fill="#64748b" stroke="#64748b" points="289.46,-129.41 283.23,-125.37 285.58,-132.41 289.46,-129.41"/>
</g>
<!-- n25&#45;&gt;n5 -->
<g id="edge42" class="edge">
<title>n25&#45;&gt;n5</title>
<path fill="none" stroke="#64748b" d="M1210.77,-448.71C1216.12,-446.48 1220.36,-443.99 1223,-441.2 1244.19,-418.83 1226.32,-329.9 1243,-304 1259.02,-279.12 1280.14,-290.8 1299,-268 1320.99,-241.42 1321.44,-229.87 1328,-196 1337.53,-146.85 1336.18,-117.86 1296,-88 1239.04,-45.67 1029,-37.05 929.26,-35.36"/>
<polygon fill="#64748b" stroke="#64748b" points="929.37,-32.91 922.34,-35.25 929.3,-37.81 929.37,-32.91"/>
</g>
<!-- n25&#45;&gt;n15 -->
<g id="edge43" class="edge">
<title>n25&#45;&gt;n15</title>
<path fill="none" stroke="#64748b" d="M980.96,-448.73C968.77,-446.42 956.61,-443.9 945,-441.2 914.26,-434.04 880.63,-423.97 852.92,-415.06"/>
<polygon fill="#64748b" stroke="#64748b" points="853.75,-412.76 846.34,-412.93 852.24,-417.42 853.75,-412.76"/>
</g>
<!-- n25&#45;&gt;n23 -->
<g id="edge45" class="edge">
<title>n25&#45;&gt;n23</title>
<path fill="none" stroke="#64748b" d="M1095.37,-448.96C1093.56,-440.39 1091.35,-429.87 1089.35,-420.39"/>
<polygon fill="#64748b" stroke="#64748b" points="1091.75,-419.9 1087.91,-413.56 1086.96,-420.91 1091.75,-419.9"/>
</g>
<!-- n16 -->
<g id="node28" class="node">
<title>n16</title>
<g id="a_node28"><a xlink:href="https://github.com/statopia/statlib/blob/main/Statlib/StatFoundation/RandomVariable/SubGaussian/subgaussian_mgf_mono_param.lean#L10" xlink:title="lemma · Statlib/StatFoundation/RandomVariable/SubGaussian/subgaussian_mgf_mono_param.lean:10" target="_blank">
<path fill="#eef2f6" stroke="#94a3b8" d="M1534.43,-412C1534.43,-412 1399.57,-412 1399.57,-412 1393.57,-412 1387.57,-406 1387.57,-400 1387.57,-400 1387.57,-388 1387.57,-388 1387.57,-382 1393.57,-376 1399.57,-376 1399.57,-376 1534.43,-376 1534.43,-376 1540.43,-376 1546.43,-382 1546.43,-388 1546.43,-388 1546.43,-400 1546.43,-400 1546.43,-406 1540.43,-412 1534.43,-412"/>
<text xml:space="preserve" text-anchor="middle" x="1467" y="-391" font-family="Helvetica,sans-Serif" font-size="10.00">subgaussian_mgf_mono_param</text>
</a>
</g>
</g>
<!-- n25&#45;&gt;n16 -->
<g id="edge44" class="edge">
<title>n25&#45;&gt;n16</title>
<path fill="none" stroke="#64748b" d="M1249.74,-457.62C1301.14,-453.62 1351.75,-448.17 1376,-441.2 1395.49,-435.6 1415.75,-425.77 1432.19,-416.61"/>
<polygon fill="#64748b" stroke="#64748b" points="1433.27,-418.81 1438.14,-413.22 1430.84,-414.56 1433.27,-418.81"/>
</g>
<!-- n24 -->
<g id="node29" class="node">
<title>n24</title>
<g id="a_node29"><a xlink:href="https://github.com/statopia/statlib/blob/main/Statlib/StatFoundation/Concentration/ExponentialType/subgaussian_abs_tail_real.lean#L11" xlink:title="lemma · Statlib/StatFoundation/Concentration/ExponentialType/subgaussian_abs_tail_real.lean:11" target="_blank">
<path fill="#eef2f6" stroke="#94a3b8" d="M1687.21,-412C1687.21,-412 1576.79,-412 1576.79,-412 1570.79,-412 1564.79,-406 1564.79,-400 1564.79,-400 1564.79,-388 1564.79,-388 1564.79,-382 1570.79,-376 1576.79,-376 1576.79,-376 1687.21,-376 1687.21,-376 1693.21,-376 1699.21,-382 1699.21,-388 1699.21,-388 1699.21,-400 1699.21,-400 1699.21,-406 1693.21,-412 1687.21,-412"/>
<text xml:space="preserve" text-anchor="middle" x="1632" y="-391" font-family="Helvetica,sans-Serif" font-size="10.00">subgaussian_abs_tail_real</text>
</a>
</g>
</g>
<!-- n25&#45;&gt;n24 -->
<g id="edge46" class="edge">
<title>n25&#45;&gt;n24</title>
<path fill="none" stroke="#64748b" d="M1250,-465.7C1360.33,-463.87 1499.9,-458.1 1555,-441.2 1572.01,-435.98 1589.15,-426.24 1602.93,-417.04"/>
<polygon fill="#64748b" stroke="#64748b" points="1604.19,-419.15 1608.57,-413.16 1601.41,-415.11 1604.19,-419.15"/>
</g>
<!-- n26 -->
<g id="node25" class="node">
<title>n26</title>
<g id="a_node25"><a xlink:href="https://github.com/statopia/statlib/blob/main/Statlib/HighDim/Concentration/HansonWright.lean#L131" xlink:title="lemma · Statlib/HighDim/Concentration/HansonWright.lean:131" target="_blank">
<path fill="#eef2f6" stroke="#94a3b8" d="M624.74,-485.2C624.74,-485.2 389.26,-485.2 389.26,-485.2 383.26,-485.2 377.26,-479.2 377.26,-473.2 377.26,-473.2 377.26,-461.2 377.26,-461.2 377.26,-455.2 383.26,-449.2 389.26,-449.2 389.26,-449.2 624.74,-449.2 624.74,-449.2 630.74,-449.2 636.74,-455.2 636.74,-461.2 636.74,-461.2 636.74,-473.2 636.74,-473.2 636.74,-479.2 630.74,-485.2 624.74,-485.2"/>
<text xml:space="preserve" text-anchor="middle" x="507" y="-464.2" font-family="Helvetica,sans-Serif" font-size="10.00">decoupledOffDiagQuadForm_prod_mk_eq_const_right</text>
</a>
</g>
</g>
<!-- n26&#45;&gt;n1 -->
<g id="edge47" class="edge">
<title>n26&#45;&gt;n1</title>
<path fill="none" stroke="#64748b" d="M376.87,-453.58C364.79,-450.35 355.15,-446.29 350,-441.2 327.46,-418.91 313.25,-189.63 302,-160 298.21,-150.03 292.46,-139.89 286.81,-131.18"/>
<polygon fill="#64748b" stroke="#64748b" points="288.92,-129.94 282.98,-125.5 284.86,-132.67 288.92,-129.94"/>
</g>
<!-- n27 -->
<g id="node26" class="node">
<title>n27</title>
<g id="a_node26"><a xlink:href="https://github.com/statopia/statlib/blob/main/Statlib/HighDim/Concentration/HansonWright.lean#L832" xlink:title="lemma · Statlib/HighDim/Concentration/HansonWright.lean:832" target="_blank">
<path fill="#eef2f6" stroke="#94a3b8" d="M744.59,-557.2C744.59,-557.2 437.41,-557.2 437.41,-557.2 431.41,-557.2 425.41,-551.2 425.41,-545.2 425.41,-545.2 425.41,-533.2 425.41,-533.2 425.41,-527.2 431.41,-521.2 437.41,-521.2 437.41,-521.2 744.59,-521.2 744.59,-521.2 750.59,-521.2 756.59,-527.2 756.59,-533.2 756.59,-533.2 756.59,-545.2 756.59,-545.2 756.59,-551.2 750.59,-557.2 744.59,-557.2"/>
<text xml:space="preserve" text-anchor="middle" x="591" y="-536.2" font-family="Helvetica,sans-Serif" font-size="10.00">decoupledOffDiagQuadForm_prod_first_section_abs_tail_real_spectral</text>
</a>
</g>
</g>
<!-- n27&#45;&gt;n0 -->
<g id="edge48" class="edge">
<title>n27&#45;&gt;n0</title>
<path fill="none" stroke="#64748b" d="M756.75,-534.68C941.87,-529.26 1220.73,-516.04 1259,-485.2 1280.38,-467.97 1296.64,-389.59 1303.87,-348.42"/>
<polygon fill="#64748b" stroke="#64748b" points="1306.25,-349.04 1305.02,-341.73 1301.42,-348.22 1306.25,-349.04"/>
</g>
<!-- n27&#45;&gt;n1 -->
<g id="edge49" class="edge">
<title>n27&#45;&gt;n1</title>
<path fill="none" stroke="#64748b" d="M430.98,-520.79C387.18,-506.91 346.42,-482.79 327,-441.2 300.35,-384.15 308.59,-220.75 292,-160 289.41,-150.52 285.43,-140.53 281.51,-131.81"/>
<polygon fill="#64748b" stroke="#64748b" points="283.78,-130.89 278.6,-125.58 279.34,-132.96 283.78,-130.89"/>
</g>
<!-- n27&#45;&gt;n25 -->
<g id="edge50" class="edge">
<title>n27&#45;&gt;n25</title>
<path fill="none" stroke="#64748b" d="M717.88,-520.72C792.88,-510.38 887.8,-497.3 964.15,-486.78"/>
<polygon fill="#64748b" stroke="#64748b" points="964.32,-489.23 970.92,-485.85 963.65,-484.38 964.32,-489.23"/>
</g>
<!-- n27&#45;&gt;n26 -->
<g id="edge51" class="edge">
<title>n27&#45;&gt;n26</title>
<path fill="none" stroke="#64748b" d="M570.24,-520.9C559.33,-511.81 545.84,-500.56 534.12,-490.8"/>
<polygon fill="#64748b" stroke="#64748b" points="535.93,-489.12 528.98,-486.52 532.79,-492.88 535.93,-489.12"/>
</g>
<!-- n29 -->
<g id="node27" class="node">
<title>n29</title>
<g id="a_node27"><a xlink:href="https://github.com/statopia/statlib/blob/main/Statlib/HighDim/Concentration/HansonWright.lean#L888" xlink:title="lemma · Statlib/HighDim/Concentration/HansonWright.lean:888" target="_blank">
<path fill="#eef2f6" stroke="#94a3b8" stroke-width="3" d="M720.13,-629.2C720.13,-629.2 461.87,-629.2 461.87,-629.2 455.87,-629.2 449.87,-623.2 449.87,-617.2 449.87,-617.2 449.87,-605.2 449.87,-605.2 449.87,-599.2 455.87,-593.2 461.87,-593.2 461.87,-593.2 720.13,-593.2 720.13,-593.2 726.13,-593.2 732.13,-599.2 732.13,-605.2 732.13,-605.2 732.13,-617.2 732.13,-617.2 732.13,-623.2 726.13,-629.2 720.13,-629.2"/>
<text xml:space="preserve" text-anchor="middle" x="591" y="-608.2" font-family="Helvetica,sans-Serif" font-size="10.00">decoupledOffDiagQuadForm_prod_tail_le_lintegral_spectral</text>
</a>
</g>
</g>
<!-- n29&#45;&gt;n0 -->
<g id="edge52" class="edge">
<title>n29&#45;&gt;n0</title>
<path fill="none" stroke="#64748b" d="M733.54,-599.05C908.02,-582.88 1190.62,-547.81 1274,-485.2 1315.64,-453.93 1315.4,-385.8 1311.68,-348.56"/>
<polygon fill="#64748b" stroke="#64748b" points="1314.13,-348.42 1310.91,-341.74 1309.26,-348.97 1314.13,-348.42"/>
</g>
<!-- n29&#45;&gt;n1 -->
<g id="edge53" class="edge">
<title>n29&#45;&gt;n1</title>
<path fill="none" stroke="#64748b" d="M448.37,-603.05C278.38,-590.53 17,-556.87 17,-468.2 17,-468.2 17,-468.2 17,-249 17,-209.2 0.35,-189.57 27,-160 48.43,-136.23 126.72,-122.18 188.53,-114.59"/>
<polygon fill="#64748b" stroke="#64748b" points="188.58,-117.05 195.24,-113.79 188,-112.19 188.58,-117.05"/>
</g>
<!-- n29&#45;&gt;n4 -->
<g id="edge54" class="edge">
<title>n29&#45;&gt;n4</title>
<path fill="none" stroke="#64748b" d="M512,-591.74C481.26,-583.16 446.22,-571.63 416,-557.2 310.62,-506.9 219.83,-395.99 183.23,-347.03"/>
<polygon fill="#64748b" stroke="#64748b" points="185.27,-345.66 179.13,-341.49 181.33,-348.57 185.27,-345.66"/>
</g>
<!-- n29&#45;&gt;n27 -->
<g id="edge55" class="edge">
<title>n29&#45;&gt;n27</title>
<path fill="none" stroke="#64748b" d="M591,-591.81C591,-583.79 591,-574.25 591,-565.57"/>
<polygon fill="#64748b" stroke="#64748b" points="593.45,-565.78 591,-558.78 588.55,-565.78 593.45,-565.78"/>
</g>
<!-- n28 -->
<g id="node30" class="node">
<title>n28</title>
<g id="a_node30"><a xlink:href="https://github.com/statopia/statlib/blob/main/Statlib/StatFoundation/BasicAnalysis/measure_le_ofReal_of_measureReal_le.lean#L10" xlink:title="lemma · Statlib/StatFoundation/BasicAnalysis/measure_le_ofReal_of_measureReal_le.lean:10" target="_blank">
<path fill="#eef2f6" stroke="#94a3b8" d="M1900.5,-412C1900.5,-412 1729.5,-412 1729.5,-412 1723.5,-412 1717.5,-406 1717.5,-400 1717.5,-400 1717.5,-388 1717.5,-388 1717.5,-382 1723.5,-376 1729.5,-376 1729.5,-376 1900.5,-376 1900.5,-376 1906.5,-376 1912.5,-382 1912.5,-388 1912.5,-388 1912.5,-400 1912.5,-400 1912.5,-406 1906.5,-412 1900.5,-412"/>
<text xml:space="preserve" text-anchor="middle" x="1815" y="-391" font-family="Helvetica,sans-Serif" font-size="10.00">measure_le_ofReal_of_measureReal_le</text>
</a>
</g>
</g>
<!-- n29&#45;&gt;n28 -->
<g id="edge56" class="edge">
<title>n29&#45;&gt;n28</title>
<path fill="none" stroke="#64748b" d="M733.51,-608.54C879.57,-604.77 1112.73,-593.05 1311,-557.2 1491.89,-524.49 1535.07,-503.53 1708,-441.2 1728.75,-433.72 1751.22,-424.24 1770.19,-415.81"/>
<polygon fill="#64748b" stroke="#64748b" points="1771.05,-418.11 1776.44,-413.02 1769.05,-413.64 1771.05,-418.11"/>
</g>
</g>
</svg>
