<?xml version="1.0" encoding="UTF-8" standalone="no"?>
<!DOCTYPE svg PUBLIC "-//W3C//DTD SVG 1.1//EN"
 "http://www.w3.org/Graphics/SVG/1.1/DTD/svg11.dtd">
<!-- Generated by graphviz version 15.0.0 (20260523.1842)
 -->
<!-- Title: decoupled_zeroDiag_quadratic_form_tail_high_norm_bernstein_absorb_of_exponents_ Pages: 1 -->
<svg width="3635pt" height="1059pt"
 viewBox="0.00 0.00 3635.00 1059.00" xmlns="http://www.w3.org/2000/svg" xmlns:xlink="http://www.w3.org/1999/xlink">
<g id="graph0" class="graph" transform="scale(1 1) rotate(0) translate(4 1055.2)">
<title>decoupled_zeroDiag_quadratic_form_tail_high_norm_bernstein_absorb_of_exponents_</title>
<polygon fill="white" stroke="none" points="-4,4 -4,-1055.2 3630.66,-1055.2 3630.66,4 -4,4"/>
<text xml:space="preserve" text-anchor="middle" x="1813.33" y="-1034.6" font-family="Helvetica,sans-Serif" font-size="14.00">Proof narrative — decoupled_zeroDiag_quadratic_form_tail_high_norm_bernstein_absorb_of_exponents&#39; &#160;(59 decls)</text>
<g id="clust1" class="cluster">
<title>cluster_0</title>
<path fill="none" stroke="#cbd5e1" stroke-dasharray="5,2" d="M20,-8C20,-8 2374,-8 2374,-8 2380,-8 2386,-14 2386,-20 2386,-20 2386,-1006.4 2386,-1006.4 2386,-1012.4 2380,-1018.4 2374,-1018.4 2374,-1018.4 20,-1018.4 20,-1018.4 14,-1018.4 8,-1012.4 8,-1006.4 8,-1006.4 8,-20 8,-20 8,-14 14,-8 20,-8"/>
<text xml:space="preserve" text-anchor="middle" x="1197" y="-1004.5" font-family="Helvetica,sans-Serif" font-size="11.00">HighDim</text>
</g>
<g id="clust2" class="cluster">
<title>cluster_1</title>
<path fill="none" stroke="#cbd5e1" stroke-dasharray="5,2" d="M2476,-8C2476,-8 3592,-8 3592,-8 3598,-8 3604,-14 3604,-20 3604,-20 3604,-213.2 3604,-213.2 3604,-219.2 3598,-225.2 3592,-225.2 3592,-225.2 2476,-225.2 2476,-225.2 2470,-225.2 2464,-219.2 2464,-213.2 2464,-213.2 2464,-20 2464,-20 2464,-14 2470,-8 2476,-8"/>
<text xml:space="preserve" text-anchor="middle" x="3034" y="-211.3" font-family="Helvetica,sans-Serif" font-size="11.00">StatFoundation</text>
</g>
<!-- n0 -->
<g id="node1" class="node">
<title>n0</title>
<g id="a_node1"><a xlink:href="https://github.com/statopia/statlib/blob/main/Statlib/HighDim/Vocabulary/RandomVector.lean#L52" xlink:title="structure · Statlib/HighDim/Vocabulary/RandomVector.lean:52" target="_blank">
<path fill="#e8dcff" stroke="#8b5cf6" d="M1958.36,-196C1958.36,-196 1869.64,-196 1869.64,-196 1863.64,-196 1857.64,-190 1857.64,-184 1857.64,-184 1857.64,-172 1857.64,-172 1857.64,-166 1863.64,-160 1869.64,-160 1869.64,-160 1958.36,-160 1958.36,-160 1964.36,-160 1970.36,-166 1970.36,-172 1970.36,-172 1970.36,-184 1970.36,-184 1970.36,-190 1964.36,-196 1958.36,-196"/>
<text xml:space="preserve" text-anchor="middle" x="1914" y="-175" font-family="Helvetica,sans-Serif" font-size="10.00">IsSubGaussianVector</text>
</a>
</g>
</g>
<!-- n1 -->
<g id="node2" class="node">
<title>n1</title>
<g id="a_node2"><a xlink:href="https://github.com/statopia/statlib/blob/main/Statlib/HighDim/Vocabulary/Norms.lean#L37" xlink:title="noncomputable def · Statlib/HighDim/Vocabulary/Norms.lean:37" target="_blank">
<path fill="#d6e9ff" stroke="#3b82f6" d="M1868.91,-701.2C1868.91,-701.2 1799.09,-701.2 1799.09,-701.2 1793.09,-701.2 1787.09,-695.2 1787.09,-689.2 1787.09,-689.2 1787.09,-677.2 1787.09,-677.2 1787.09,-671.2 1793.09,-665.2 1799.09,-665.2 1799.09,-665.2 1868.91,-665.2 1868.91,-665.2 1874.91,-665.2 1880.91,-671.2 1880.91,-677.2 1880.91,-677.2 1880.91,-689.2 1880.91,-689.2 1880.91,-695.2 1874.91,-701.2 1868.91,-701.2"/>
<text xml:space="preserve" text-anchor="middle" x="1834" y="-680.2" font-family="Helvetica,sans-Serif" font-size="10.00">frobeniusNormSq</text>
</a>
</g>
</g>
<!-- n2 -->
<g id="node3" class="node">
<title>n2</title>
<g id="a_node3"><a xlink:href="https://github.com/statopia/statlib/blob/main/Statlib/HighDim/Vocabulary/QuadraticForms.lean#L33" xlink:title="noncomputable def · Statlib/HighDim/Vocabulary/QuadraticForms.lean:33" target="_blank">
<path fill="#d6e9ff" stroke="#3b82f6" d="M832.92,-52C832.92,-52 713.08,-52 713.08,-52 707.08,-52 701.08,-46 701.08,-40 701.08,-40 701.08,-28 701.08,-28 701.08,-22 707.08,-16 713.08,-16 713.08,-16 832.92,-16 832.92,-16 838.92,-16 844.92,-22 844.92,-28 844.92,-28 844.92,-40 844.92,-40 844.92,-46 838.92,-52 832.92,-52"/>
<text xml:space="preserve" text-anchor="middle" x="773" y="-31" font-family="Helvetica,sans-Serif" font-size="10.00">decoupledOffDiagQuadForm</text>
</a>
</g>
</g>
<!-- n3 -->
<g id="node4" class="node">
<title>n3</title>
<g id="a_node4"><a xlink:href="https://github.com/statopia/statlib/blob/main/Statlib/HighDim/Vocabulary/Norms.lean#L13" xlink:title="noncomputable def · Statlib/HighDim/Vocabulary/Norms.lean:13" target="_blank">
<path fill="#d6e9ff" stroke="#3b82f6" d="M1740.23,-196C1740.23,-196 1703.77,-196 1703.77,-196 1697.77,-196 1691.77,-190 1691.77,-184 1691.77,-184 1691.77,-172 1691.77,-172 1691.77,-166 1697.77,-160 1703.77,-160 1703.77,-160 1740.23,-160 1740.23,-160 1746.23,-160 1752.23,-166 1752.23,-172 1752.23,-172 1752.23,-184 1752.23,-184 1752.23,-190 1746.23,-196 1740.23,-196"/>
<text xml:space="preserve" text-anchor="middle" x="1722" y="-175" font-family="Helvetica,sans-Serif" font-size="10.00">l2NormSq</text>
</a>
</g>
</g>
<!-- n4 -->
<g id="node5" class="node">
<title>n4</title>
<g id="a_node5"><a xlink:href="https://github.com/statopia/statlib/blob/main/Statlib/HighDim/Vocabulary/Norms.lean#L21" xlink:title="lemma · Statlib/HighDim/Vocabulary/Norms.lean:21" target="_blank">
<path fill="#eef2f6" stroke="#94a3b8" d="M1719.64,-269.2C1719.64,-269.2 1640.36,-269.2 1640.36,-269.2 1634.36,-269.2 1628.36,-263.2 1628.36,-257.2 1628.36,-257.2 1628.36,-245.2 1628.36,-245.2 1628.36,-239.2 1634.36,-233.2 1640.36,-233.2 1640.36,-233.2 1719.64,-233.2 1719.64,-233.2 1725.64,-233.2 1731.64,-239.2 1731.64,-245.2 1731.64,-245.2 1731.64,-257.2 1731.64,-257.2 1731.64,-263.2 1725.64,-269.2 1719.64,-269.2"/>
<text xml:space="preserve" text-anchor="middle" x="1680" y="-248.2" font-family="Helvetica,sans-Serif" font-size="10.00">euclidean_norm_sq</text>
</a>
</g>
</g>
<!-- n4&#45;&gt;n3 -->
<g id="edge1" class="edge">
<title>n4&#45;&gt;n3</title>
<path fill="none" stroke="#64748b" d="M1690.17,-232.96C1695.43,-224.04 1701.94,-213 1707.7,-203.24"/>
<polygon fill="#64748b" stroke="#64748b" points="1709.71,-204.65 1711.16,-197.38 1705.49,-202.16 1709.71,-204.65"/>
</g>
<!-- n5 -->
<g id="node6" class="node">
<title>n5</title>
<g id="a_node6"><a xlink:href="https://github.com/statopia/statlib/blob/main/Statlib/HighDim/Vocabulary/Norms.lean#L32" xlink:title="lemma · Statlib/HighDim/Vocabulary/Norms.lean:32" target="_blank">
<path fill="#eef2f6" stroke="#94a3b8" d="M1815.69,-124C1815.69,-124 1760.31,-124 1760.31,-124 1754.31,-124 1748.31,-118 1748.31,-112 1748.31,-112 1748.31,-100 1748.31,-100 1748.31,-94 1754.31,-88 1760.31,-88 1760.31,-88 1815.69,-88 1815.69,-88 1821.69,-88 1827.69,-94 1827.69,-100 1827.69,-100 1827.69,-112 1827.69,-112 1827.69,-118 1821.69,-124 1815.69,-124"/>
<text xml:space="preserve" text-anchor="middle" x="1788" y="-103" font-family="Helvetica,sans-Serif" font-size="10.00">inner_eq_sum</text>
</a>
</g>
</g>
<!-- n6 -->
<g id="node7" class="node">
<title>n6</title>
<g id="a_node7"><a xlink:href="https://github.com/statopia/statlib/blob/main/Statlib/HighDim/Concentration/HansonWright.lean#L1341" xlink:title="lemma · Statlib/HighDim/Concentration/HansonWright.lean:1341" target="_blank">
<path fill="#eef2f6" stroke="#94a3b8" d="M2325.76,-269.2C2325.76,-269.2 2214.24,-269.2 2214.24,-269.2 2208.24,-269.2 2202.24,-263.2 2202.24,-257.2 2202.24,-257.2 2202.24,-245.2 2202.24,-245.2 2202.24,-239.2 2208.24,-233.2 2214.24,-233.2 2214.24,-233.2 2325.76,-233.2 2325.76,-233.2 2331.76,-233.2 2337.76,-239.2 2337.76,-245.2 2337.76,-245.2 2337.76,-257.2 2337.76,-257.2 2337.76,-263.2 2331.76,-269.2 2325.76,-269.2"/>
<text xml:space="preserve" text-anchor="middle" x="2270" y="-248.2" font-family="Helvetica,sans-Serif" font-size="10.00">subgaussian_vector_coord</text>
</a>
</g>
</g>
<!-- n6&#45;&gt;n0 -->
<g id="edge2" class="edge">
<title>n6&#45;&gt;n0</title>
<path fill="none" stroke="#64748b" d="M2202.1,-235.47C2197.34,-234.64 2192.6,-233.87 2188,-233.2 2146.07,-227.11 2134.77,-232.3 2093,-225.2 2054.63,-218.68 2012.44,-207.97 1978.66,-198.5"/>
<polygon fill="#64748b" stroke="#64748b" points="1979.57,-196.21 1972.16,-196.66 1978.23,-200.93 1979.57,-196.21"/>
</g>
<!-- n6&#45;&gt;n5 -->
<g id="edge3" class="edge">
<title>n6&#45;&gt;n5</title>
<path fill="none" stroke="#64748b" d="M2215.44,-232.75C2157.08,-214.22 2061.72,-184.29 1979,-160 1930.45,-145.74 1874.66,-130.38 1835.96,-119.88"/>
<polygon fill="#64748b" stroke="#64748b" points="1836.83,-117.58 1829.43,-118.11 1835.55,-122.31 1836.83,-117.58"/>
</g>
<!-- n8 -->
<g id="node8" class="node">
<title>n8</title>
<g id="a_node8"><a xlink:href="https://github.com/statopia/statlib/blob/main/Statlib/HighDim/Concentration/HansonWright.lean#L471" xlink:title="lemma · Statlib/HighDim/Concentration/HansonWright.lean:471" target="_blank">
<path fill="#eef2f6" stroke="#94a3b8" d="M2071.96,-269.2C2071.96,-269.2 1882.04,-269.2 1882.04,-269.2 1876.04,-269.2 1870.04,-263.2 1870.04,-257.2 1870.04,-257.2 1870.04,-245.2 1870.04,-245.2 1870.04,-239.2 1876.04,-233.2 1882.04,-233.2 1882.04,-233.2 2071.96,-233.2 2071.96,-233.2 2077.96,-233.2 2083.96,-239.2 2083.96,-245.2 2083.96,-245.2 2083.96,-257.2 2083.96,-257.2 2083.96,-263.2 2077.96,-269.2 2071.96,-269.2"/>
<text xml:space="preserve" text-anchor="middle" x="1977" y="-248.2" font-family="Helvetica,sans-Serif" font-size="10.00">subgaussian_projection_second_moment_le</text>
</a>
</g>
</g>
<!-- n8&#45;&gt;n0 -->
<g id="edge4" class="edge">
<title>n8&#45;&gt;n0</title>
<path fill="none" stroke="#64748b" d="M1961.75,-232.96C1953.62,-223.78 1943.51,-212.35 1934.69,-202.38"/>
<polygon fill="#64748b" stroke="#64748b" points="1936.59,-200.83 1930.11,-197.21 1932.92,-204.08 1936.59,-200.83"/>
</g>
<!-- n7 -->
<g id="node48" class="node">
<title>n7</title>
<g id="a_node48"><a xlink:href="https://github.com/statopia/statlib/blob/main/Statlib/StatFoundation/RandomVariable/SubGaussian/subgaussian_variance_le.lean#L8" xlink:title="theorem · Statlib/StatFoundation/RandomVariable/SubGaussian/subgaussian_variance_le.lean:8" target="_blank">
<path fill="#ffe6a3" stroke="#d4a017" d="M2588.43,-196C2588.43,-196 2483.57,-196 2483.57,-196 2477.57,-196 2471.57,-190 2471.57,-184 2471.57,-184 2471.57,-172 2471.57,-172 2471.57,-166 2477.57,-160 2483.57,-160 2483.57,-160 2588.43,-160 2588.43,-160 2594.43,-160 2600.43,-166 2600.43,-172 2600.43,-172 2600.43,-184 2600.43,-184 2600.43,-190 2594.43,-196 2588.43,-196"/>
<text xml:space="preserve" text-anchor="middle" x="2536" y="-175" font-family="Helvetica,sans-Serif" font-size="10.00">subgaussian_variance_le</text>
</a>
</g>
</g>
<!-- n8&#45;&gt;n7 -->
<g id="edge5" class="edge">
<title>n8&#45;&gt;n7</title>
<path fill="none" stroke="#64748b" d="M2084.34,-240.94C2119,-238.17 2157.61,-235.31 2193,-233.2 2280.47,-227.98 2303.69,-240.33 2390,-225.2 2421.82,-219.62 2456.32,-208.93 2483.8,-199.24"/>
<polygon fill="#64748b" stroke="#64748b" points="2484.53,-201.58 2490.29,-196.91 2482.88,-196.97 2484.53,-201.58"/>
</g>
<!-- n9 -->
<g id="node9" class="node">
<title>n9</title>
<g id="a_node9"><a xlink:href="https://github.com/statopia/statlib/blob/main/Statlib/HighDim/Concentration/HansonWright.lean#L2311" xlink:title="lemma · Statlib/HighDim/Concentration/HansonWright.lean:2311" target="_blank">
<path fill="#eef2f6" stroke="#94a3b8" d="M1729.11,-341.2C1729.11,-341.2 1570.89,-341.2 1570.89,-341.2 1564.89,-341.2 1558.89,-335.2 1558.89,-329.2 1558.89,-329.2 1558.89,-317.2 1558.89,-317.2 1558.89,-311.2 1564.89,-305.2 1570.89,-305.2 1570.89,-305.2 1729.11,-305.2 1729.11,-305.2 1735.11,-305.2 1741.11,-311.2 1741.11,-317.2 1741.11,-317.2 1741.11,-329.2 1741.11,-329.2 1741.11,-335.2 1735.11,-341.2 1729.11,-341.2"/>
<text xml:space="preserve" text-anchor="middle" x="1650" y="-320.2" font-family="Helvetica,sans-Serif" font-size="10.00">subgaussian_norm_sq_mean_le_dim</text>
</a>
</g>
</g>
<!-- n9&#45;&gt;n0 -->
<g id="edge6" class="edge">
<title>n9&#45;&gt;n0</title>
<path fill="none" stroke="#64748b" d="M1707.3,-304.71C1729.99,-296.15 1755.49,-284.38 1776,-269.2 1792.74,-256.81 1789.68,-246.14 1806,-233.2 1822.76,-219.91 1843.3,-208.6 1861.95,-199.82"/>
<polygon fill="#64748b" stroke="#64748b" points="1862.56,-202.23 1867.89,-197.08 1860.51,-197.78 1862.56,-202.23"/>
</g>
<!-- n9&#45;&gt;n3 -->
<g id="edge8" class="edge">
<title>n9&#45;&gt;n3</title>
<path fill="none" stroke="#64748b" d="M1700.04,-304.8C1716.01,-296.61 1731.89,-285.05 1741,-269.2 1752.57,-249.08 1744.93,-222.81 1736.14,-203.81"/>
<polygon fill="#64748b" stroke="#64748b" points="1738.45,-202.96 1733.15,-197.77 1734.06,-205.13 1738.45,-202.96"/>
</g>
<!-- n9&#45;&gt;n4 -->
<g id="edge7" class="edge">
<title>n9&#45;&gt;n4</title>
<path fill="none" stroke="#64748b" d="M1657.42,-304.9C1661.01,-296.5 1665.4,-286.27 1669.35,-277.06"/>
<polygon fill="#64748b" stroke="#64748b" points="1671.57,-278.09 1672.07,-270.7 1667.06,-276.16 1671.57,-278.09"/>
</g>
<!-- n9&#45;&gt;n5 -->
<g id="edge10" class="edge">
<title>n9&#45;&gt;n5</title>
<path fill="none" stroke="#64748b" d="M1700.67,-304.74C1718.2,-296.44 1736.55,-284.83 1749,-269.2 1780.86,-229.21 1787.33,-167.24 1788.27,-132.62"/>
<polygon fill="#64748b" stroke="#64748b" points="1790.71,-132.99 1788.38,-125.95 1785.81,-132.91 1790.71,-132.99"/>
</g>
<!-- n9&#45;&gt;n6 -->
<g id="edge9" class="edge">
<title>n9&#45;&gt;n6</title>
<path fill="none" stroke="#64748b" d="M1741.48,-311.87C1864.06,-298.03 2079.37,-273.72 2193.68,-260.82"/>
<polygon fill="#64748b" stroke="#64748b" points="2193.89,-263.26 2200.57,-260.04 2193.34,-258.39 2193.89,-263.26"/>
</g>
<!-- n9&#45;&gt;n8 -->
<g id="edge11" class="edge">
<title>n9&#45;&gt;n8</title>
<path fill="none" stroke="#64748b" d="M1731.67,-304.72C1778.97,-294.59 1838.58,-281.83 1887.2,-271.42"/>
<polygon fill="#64748b" stroke="#64748b" points="1887.71,-273.82 1894.04,-269.96 1886.68,-269.03 1887.71,-273.82"/>
</g>
<!-- n13 -->
<g id="node10" class="node">
<title>n13</title>
<g id="a_node10"><a xlink:href="https://github.com/statopia/statlib/blob/main/Statlib/HighDim/Concentration/HansonWright.lean#L2016" xlink:title="lemma · Statlib/HighDim/Concentration/HansonWright.lean:2016" target="_blank">
<path fill="#eef2f6" stroke="#94a3b8" d="M2154.62,-341.2C2154.62,-341.2 1971.38,-341.2 1971.38,-341.2 1965.38,-341.2 1959.38,-335.2 1959.38,-329.2 1959.38,-329.2 1959.38,-317.2 1959.38,-317.2 1959.38,-311.2 1965.38,-305.2 1971.38,-305.2 1971.38,-305.2 2154.62,-305.2 2154.62,-305.2 2160.62,-305.2 2166.62,-311.2 2166.62,-317.2 2166.62,-317.2 2166.62,-329.2 2166.62,-329.2 2166.62,-335.2 2160.62,-341.2 2154.62,-341.2"/>
<text xml:space="preserve" text-anchor="middle" x="2063" y="-320.2" font-family="Helvetica,sans-Serif" font-size="10.00">coord_sq_centered_scaled_exp_integrable</text>
</a>
</g>
</g>
<!-- n13&#45;&gt;n0 -->
<g id="edge13" class="edge">
<title>n13&#45;&gt;n0</title>
<path fill="none" stroke="#64748b" d="M2166.84,-305.99C2245.48,-293.22 2341.02,-276.4 2347,-269.2 2357.22,-256.89 2357.59,-245.2 2347,-233.2 2323.06,-206.08 2093.88,-189.26 1978.99,-182.47"/>
<polygon fill="#64748b" stroke="#64748b" points="1979.23,-180.03 1972.1,-182.06 1978.94,-184.92 1979.23,-180.03"/>
</g>
<!-- n13&#45;&gt;n6 -->
<g id="edge14" class="edge">
<title>n13&#45;&gt;n6</title>
<path fill="none" stroke="#64748b" d="M2114.7,-304.72C2143.83,-294.87 2180.34,-282.52 2210.64,-272.27"/>
<polygon fill="#64748b" stroke="#64748b" points="2211.32,-274.63 2217.17,-270.07 2209.75,-269.99 2211.32,-274.63"/>
</g>
<!-- n12 -->
<g id="node51" class="node">
<title>n12</title>
<g id="a_node51"><a xlink:href="https://github.com/statopia/statlib/blob/main/Statlib/StatFoundation/RandomVariable/SubGaussian/subgaussian_exp_sq_le_at_one_third.lean#L165" xlink:title="theorem · Statlib/StatFoundation/RandomVariable/SubGaussian/subgaussian_exp_sq_le_at_one_third.lean:165" target="_blank">
<path fill="#ffe6a3" stroke="#d4a017" d="M2680.3,-124C2680.3,-124 2483.7,-124 2483.7,-124 2477.7,-124 2471.7,-118 2471.7,-112 2471.7,-112 2471.7,-100 2471.7,-100 2471.7,-94 2477.7,-88 2483.7,-88 2483.7,-88 2680.3,-88 2680.3,-88 2686.3,-88 2692.3,-94 2692.3,-100 2692.3,-100 2692.3,-112 2692.3,-112 2692.3,-118 2686.3,-124 2680.3,-124"/>
<text xml:space="preserve" text-anchor="middle" x="2582" y="-103" font-family="Helvetica,sans-Serif" font-size="10.00">subgaussian_integrable_exp_sq_at_one_third</text>
</a>
</g>
</g>
<!-- n13&#45;&gt;n12 -->
<g id="edge15" class="edge">
<title>n13&#45;&gt;n12</title>
<path fill="none" stroke="#64748b" d="M2167.12,-305.32C2248.02,-291.89 2347.85,-274.51 2356,-269.2 2405.13,-237.21 2383.52,-195.73 2430,-160 2448.73,-145.6 2471.66,-134.93 2493.98,-127.1"/>
<polygon fill="#64748b" stroke="#64748b" points="2494.56,-129.49 2500.41,-124.93 2492.99,-124.85 2494.56,-129.49"/>
</g>
<!-- n18 -->
<g id="node11" class="node">
<title>n18</title>
<g id="a_node11"><a xlink:href="https://github.com/statopia/statlib/blob/main/Statlib/HighDim/Concentration/HansonWright.lean#L1952" xlink:title="lemma · Statlib/HighDim/Concentration/HansonWright.lean:1952" target="_blank">
<path fill="#eef2f6" stroke="#94a3b8" d="M2365.67,-341.2C2365.67,-341.2 2196.33,-341.2 2196.33,-341.2 2190.33,-341.2 2184.33,-335.2 2184.33,-329.2 2184.33,-329.2 2184.33,-317.2 2184.33,-317.2 2184.33,-311.2 2190.33,-305.2 2196.33,-305.2 2196.33,-305.2 2365.67,-305.2 2365.67,-305.2 2371.67,-305.2 2377.67,-311.2 2377.67,-317.2 2377.67,-317.2 2377.67,-329.2 2377.67,-329.2 2377.67,-335.2 2371.67,-341.2 2365.67,-341.2"/>
<text xml:space="preserve" text-anchor="middle" x="2281" y="-320.2" font-family="Helvetica,sans-Serif" font-size="10.00">coord_sq_centered_mgf_bound_explicit</text>
</a>
</g>
</g>
<!-- n18&#45;&gt;n0 -->
<g id="edge21" class="edge">
<title>n18&#45;&gt;n0</title>
<path fill="none" stroke="#64748b" d="M2319.28,-304.87C2333.5,-296.31 2348.08,-284.49 2356,-269.2 2363.36,-254.99 2366.6,-245.18 2356,-233.2 2331.42,-205.42 2095.34,-188.84 1978.64,-182.27"/>
<polygon fill="#64748b" stroke="#64748b" points="1979.09,-179.84 1971.96,-181.9 1978.82,-184.73 1979.09,-179.84"/>
</g>
<!-- n18&#45;&gt;n6 -->
<g id="edge22" class="edge">
<title>n18&#45;&gt;n6</title>
<path fill="none" stroke="#64748b" d="M2278.28,-304.9C2276.99,-296.67 2275.42,-286.68 2273.99,-277.62"/>
<polygon fill="#64748b" stroke="#64748b" points="2276.43,-277.33 2272.92,-270.8 2271.59,-278.1 2276.43,-277.33"/>
</g>
<!-- n17 -->
<g id="node55" class="node">
<title>n17</title>
<g id="a_node55"><a xlink:href="https://github.com/statopia/statlib/blob/main/Statlib/StatFoundation/RandomVariable/SubExponential/subexp_mgf_le_of_sq_subgaussian.lean#L73" xlink:title="theorem · Statlib/StatFoundation/RandomVariable/SubExponential/subexp_mgf_le_of_sq_subgaussian.lean:73" target="_blank">
<path fill="#ffe6a3" stroke="#d4a017" d="M2817.84,-196C2817.84,-196 2630.16,-196 2630.16,-196 2624.16,-196 2618.16,-190 2618.16,-184 2618.16,-184 2618.16,-172 2618.16,-172 2618.16,-166 2624.16,-160 2630.16,-160 2630.16,-160 2817.84,-160 2817.84,-160 2823.84,-160 2829.84,-166 2829.84,-172 2829.84,-172 2829.84,-184 2829.84,-184 2829.84,-190 2823.84,-196 2817.84,-196"/>
<text xml:space="preserve" text-anchor="middle" x="2724" y="-175" font-family="Helvetica,sans-Serif" font-size="10.00">subexp_mgf_le_of_sq_subgaussian_explicit</text>
</a>
</g>
</g>
<!-- n18&#45;&gt;n17 -->
<g id="edge23" class="edge">
<title>n18&#45;&gt;n17</title>
<path fill="none" stroke="#64748b" d="M2346.61,-304.76C2413.24,-286.6 2519.12,-256.47 2609,-225.2 2631.16,-217.49 2655.32,-207.96 2675.74,-199.57"/>
<polygon fill="#64748b" stroke="#64748b" points="2676.44,-201.93 2681.97,-196.99 2674.57,-197.4 2676.44,-201.93"/>
</g>
<!-- n19 -->
<g id="node12" class="node">
<title>n19</title>
<g id="a_node12"><a xlink:href="https://github.com/statopia/statlib/blob/main/Statlib/HighDim/Concentration/HansonWright.lean#L2097" xlink:title="lemma · Statlib/HighDim/Concentration/HansonWright.lean:2097" target="_blank">
<path fill="#eef2f6" stroke="#94a3b8" d="M2217.04,-413.2C2217.04,-413.2 1950.96,-413.2 1950.96,-413.2 1944.96,-413.2 1938.96,-407.2 1938.96,-401.2 1938.96,-401.2 1938.96,-389.2 1938.96,-389.2 1938.96,-383.2 1944.96,-377.2 1950.96,-377.2 1950.96,-377.2 2217.04,-377.2 2217.04,-377.2 2223.04,-377.2 2229.04,-383.2 2229.04,-389.2 2229.04,-389.2 2229.04,-401.2 2229.04,-401.2 2229.04,-407.2 2223.04,-413.2 2217.04,-413.2"/>
<text xml:space="preserve" text-anchor="middle" x="2084" y="-392.2" font-family="Helvetica,sans-Serif" font-size="10.00">coord_sq_centered_scaled_subexponential_explicit_of_range</text>
</a>
</g>
</g>
<!-- n19&#45;&gt;n0 -->
<g id="edge24" class="edge">
<title>n19&#45;&gt;n0</title>
<path fill="none" stroke="#64748b" d="M1996.69,-376.81C1978.34,-368.99 1961.18,-357.65 1950,-341.2 1941,-327.97 1939.65,-317.4 1950,-305.2 2013.53,-230.32 2104.47,-344.08 2168,-269.2 2178.35,-257 2179.08,-244.75 2168,-233.2 2153.14,-217.71 1995.2,-232.45 1975,-225.2 1961.13,-220.22 1947.82,-210.87 1937.19,-201.89"/>
<polygon fill="#64748b" stroke="#64748b" points="1938.95,-200.17 1932.08,-197.38 1935.71,-203.84 1938.95,-200.17"/>
</g>
<!-- n19&#45;&gt;n13 -->
<g id="edge26" class="edge">
<title>n19&#45;&gt;n13</title>
<path fill="none" stroke="#64748b" d="M2078.81,-376.9C2076.32,-368.59 2073.28,-358.48 2070.54,-349.34"/>
<polygon fill="#64748b" stroke="#64748b" points="2072.92,-348.75 2068.57,-342.75 2068.23,-350.16 2072.92,-348.75"/>
</g>
<!-- n19&#45;&gt;n18 -->
<g id="edge27" class="edge">
<title>n19&#45;&gt;n18</title>
<path fill="none" stroke="#64748b" d="M2133.2,-376.72C2160.81,-366.91 2195.37,-354.63 2224.14,-344.41"/>
<polygon fill="#64748b" stroke="#64748b" points="2224.88,-346.74 2230.66,-342.09 2223.24,-342.12 2224.88,-346.74"/>
</g>
<!-- n10 -->
<g id="node49" class="node">
<title>n10</title>
<g id="a_node49"><a xlink:href="https://github.com/statopia/statlib/blob/main/Statlib/StatFoundation/Vocabulary/RandomVariable.lean#L74" xlink:title="structure · Statlib/StatFoundation/Vocabulary/RandomVariable.lean:74" target="_blank">
<path fill="#e8dcff" stroke="#8b5cf6" d="M3330.47,-124C3330.47,-124 3229.53,-124 3229.53,-124 3223.53,-124 3217.53,-118 3217.53,-112 3217.53,-112 3217.53,-100 3217.53,-100 3217.53,-94 3223.53,-88 3229.53,-88 3229.53,-88 3330.47,-88 3330.47,-88 3336.47,-88 3342.47,-94 3342.47,-100 3342.47,-100 3342.47,-112 3342.47,-112 3342.47,-118 3336.47,-124 3330.47,-124"/>
<text xml:space="preserve" text-anchor="middle" x="3280" y="-103" font-family="Helvetica,sans-Serif" font-size="10.00">HasSubexponentialMGF</text>
</a>
</g>
</g>
<!-- n19&#45;&gt;n10 -->
<g id="edge25" class="edge">
<title>n19&#45;&gt;n10</title>
<path fill="none" stroke="#64748b" d="M2229.29,-382.04C2294.38,-373.97 2362.06,-361.1 2387,-341.2 2455.27,-286.74 2391.57,-210.25 2463,-160 2525.34,-116.15 3072.09,-130.87 3148,-124 3167.83,-122.2 3189.27,-119.69 3208.99,-117.15"/>
<polygon fill="#64748b" stroke="#64748b" points="3209.2,-119.59 3215.83,-116.25 3208.57,-114.73 3209.2,-119.59"/>
</g>
<!-- n21 -->
<g id="node13" class="node">
<title>n21</title>
<g id="a_node13"><a xlink:href="https://github.com/statopia/statlib/blob/main/Statlib/HighDim/Concentration/HansonWright.lean#L2153" xlink:title="lemma · Statlib/HighDim/Concentration/HansonWright.lean:2153" target="_blank">
<path fill="#eef2f6" stroke="#94a3b8" d="M2159.07,-485.2C2159.07,-485.2 1956.93,-485.2 1956.93,-485.2 1950.93,-485.2 1944.93,-479.2 1944.93,-473.2 1944.93,-473.2 1944.93,-461.2 1944.93,-461.2 1944.93,-455.2 1950.93,-449.2 1956.93,-449.2 1956.93,-449.2 2159.07,-449.2 2159.07,-449.2 2165.07,-449.2 2171.07,-455.2 2171.07,-461.2 2171.07,-461.2 2171.07,-473.2 2171.07,-473.2 2171.07,-479.2 2165.07,-485.2 2159.07,-485.2"/>
<text xml:space="preserve" text-anchor="middle" x="2058" y="-464.2" font-family="Helvetica,sans-Serif" font-size="10.00">weighted_coord_sq_centered_sum_tail_explicit</text>
</a>
</g>
</g>
<!-- n21&#45;&gt;n0 -->
<g id="edge29" class="edge">
<title>n21&#45;&gt;n0</title>
<path fill="none" stroke="#64748b" d="M1967.72,-448.76C1949.36,-440.94 1932.25,-429.61 1921,-413.2 1907.84,-393.99 1919.96,-316.73 1931,-305.2 1992.58,-240.93 2071,-337.56 2128,-269.2 2138.25,-256.91 2139.01,-244.81 2128,-233.2 2116.28,-220.85 1990.99,-231.04 1975,-225.2 1961.15,-220.14 1947.85,-210.79 1937.22,-201.81"/>
<polygon fill="#64748b" stroke="#64748b" points="1938.98,-200.1 1932.1,-197.31 1935.74,-203.78 1938.98,-200.1"/>
</g>
<!-- n21&#45;&gt;n6 -->
<g id="edge32" class="edge">
<title>n21&#45;&gt;n6</title>
<path fill="none" stroke="#64748b" d="M1976.17,-448.76C1958.03,-440.93 1940.96,-429.6 1930,-413.2 1912.91,-387.62 1945.47,-309.27 1950,-305.2 1986.53,-272.39 2119.56,-277.24 2168,-269.2 2176.32,-267.82 2185.02,-266.37 2193.69,-264.93"/>
<polygon fill="#64748b" stroke="#64748b" points="2193.97,-267.37 2200.48,-263.8 2193.17,-262.53 2193.97,-267.37"/>
</g>
<!-- n21&#45;&gt;n19 -->
<g id="edge31" class="edge">
<title>n21&#45;&gt;n19</title>
<path fill="none" stroke="#64748b" d="M2064.43,-448.9C2067.54,-440.5 2071.35,-430.27 2074.77,-421.06"/>
<polygon fill="#64748b" stroke="#64748b" points="2076.98,-422.14 2077.12,-414.72 2072.39,-420.43 2076.98,-422.14"/>
</g>
<!-- n21&#45;&gt;n10 -->
<g id="edge30" class="edge">
<title>n21&#45;&gt;n10</title>
<path fill="none" stroke="#64748b" d="M2171.25,-461.86C2530.97,-447.33 3624,-397.18 3624,-324.2 3624,-324.2 3624,-324.2 3624,-250.2 3624,-209.23 3634.63,-188.3 3605,-160 3569.54,-126.13 3435.68,-113.86 3351.21,-109.44"/>
<polygon fill="#64748b" stroke="#64748b" points="3351.57,-107.01 3344.45,-109.1 3351.32,-111.9 3351.57,-107.01"/>
</g>
<!-- n20 -->
<g id="node56" class="node">
<title>n20</title>
<g id="a_node56"><a xlink:href="https://github.com/statopia/statlib/blob/main/Statlib/StatFoundation/Concentration/ExponentialType/bernstein_sum_meas_abs_ge_le_two_exp.lean#L13" xlink:title="theorem · Statlib/StatFoundation/Concentration/ExponentialType/bernstein_sum_meas_abs_ge_le_two_exp.lean:13" target="_blank">
<path fill="#ffe6a3" stroke="#d4a017" d="M3371.06,-196C3371.06,-196 3188.94,-196 3188.94,-196 3182.94,-196 3176.94,-190 3176.94,-184 3176.94,-184 3176.94,-172 3176.94,-172 3176.94,-166 3182.94,-160 3188.94,-160 3188.94,-160 3371.06,-160 3371.06,-160 3377.06,-160 3383.06,-166 3383.06,-172 3383.06,-172 3383.06,-184 3383.06,-184 3383.06,-190 3377.06,-196 3371.06,-196"/>
<text xml:space="preserve" text-anchor="middle" x="3280" y="-175" font-family="Helvetica,sans-Serif" font-size="10.00">bernstein_sum_meas_abs_ge_le_two_exp</text>
</a>
</g>
</g>
<!-- n21&#45;&gt;n20 -->
<g id="edge33" class="edge">
<title>n21&#45;&gt;n20</title>
<path fill="none" stroke="#64748b" d="M2170.42,-448.76C2372.85,-415.82 2810.82,-337.55 3168,-225.2 3190.32,-218.18 3214.39,-208.54 3234.47,-199.88"/>
<polygon fill="#64748b" stroke="#64748b" points="3235.42,-202.14 3240.86,-197.09 3233.46,-197.65 3235.42,-202.14"/>
</g>
<!-- n22 -->
<g id="node14" class="node">
<title>n22</title>
<g id="a_node14"><a xlink:href="https://github.com/statopia/statlib/blob/main/Statlib/HighDim/Concentration/HansonWright.lean#L2351" xlink:title="lemma · Statlib/HighDim/Concentration/HansonWright.lean:2351" target="_blank">
<path fill="#eef2f6" stroke="#94a3b8" d="M1728.9,-557.2C1728.9,-557.2 1535.1,-557.2 1535.1,-557.2 1529.1,-557.2 1523.1,-551.2 1523.1,-545.2 1523.1,-545.2 1523.1,-533.2 1523.1,-533.2 1523.1,-527.2 1529.1,-521.2 1535.1,-521.2 1535.1,-521.2 1728.9,-521.2 1728.9,-521.2 1734.9,-521.2 1740.9,-527.2 1740.9,-533.2 1740.9,-533.2 1740.9,-545.2 1740.9,-545.2 1740.9,-551.2 1734.9,-557.2 1728.9,-557.2"/>
<text xml:space="preserve" text-anchor="middle" x="1632" y="-536.2" font-family="Helvetica,sans-Serif" font-size="10.00">subgaussian_norm_sq_tail_bernstein_explicit</text>
</a>
</g>
</g>
<!-- n22&#45;&gt;n0 -->
<g id="edge34" class="edge">
<title>n22&#45;&gt;n0</title>
<path fill="none" stroke="#64748b" d="M1642.2,-520.71C1665.13,-481.58 1722.84,-384.23 1775,-305.2 1796.6,-272.47 1797.39,-260.02 1826,-233.2 1839.39,-220.65 1856.12,-209.48 1871.39,-200.58"/>
<polygon fill="#64748b" stroke="#64748b" points="1872.56,-202.74 1877.43,-197.15 1870.14,-198.48 1872.56,-202.74"/>
</g>
<!-- n22&#45;&gt;n3 -->
<g id="edge38" class="edge">
<title>n22&#45;&gt;n3</title>
<path fill="none" stroke="#64748b" d="M1601.47,-520.78C1587.44,-511.6 1571.42,-499.32 1560,-485.2 1506.51,-419.07 1470.75,-386.72 1495,-305.2 1505.9,-268.57 1508.92,-252.34 1542,-233.2 1569.16,-217.48 1654.92,-239.22 1683,-225.2 1692.93,-220.24 1701.31,-211.5 1707.73,-202.94"/>
<polygon fill="#64748b" stroke="#64748b" points="1709.57,-204.58 1711.58,-197.44 1705.56,-201.77 1709.57,-204.58"/>
</g>
<!-- n22&#45;&gt;n4 -->
<g id="edge37" class="edge">
<title>n22&#45;&gt;n4</title>
<path fill="none" stroke="#64748b" d="M1615.88,-520.77C1580.28,-480.09 1501.79,-376.91 1550,-305.2 1558.55,-292.48 1590.07,-279.47 1619.93,-269.52"/>
<polygon fill="#64748b" stroke="#64748b" points="1620.55,-271.9 1626.44,-267.4 1619.03,-267.24 1620.55,-271.9"/>
</g>
<!-- n22&#45;&gt;n6 -->
<g id="edge36" class="edge">
<title>n22&#45;&gt;n6</title>
<path fill="none" stroke="#64748b" d="M1677.86,-520.79C1699.17,-511.69 1724.31,-499.47 1745,-485.2 1839.7,-419.89 1828.02,-356.48 1931,-305.2 1942.69,-299.38 2097.48,-276.66 2193.81,-262.92"/>
<polygon fill="#64748b" stroke="#64748b" points="2193.99,-265.37 2200.58,-261.96 2193.3,-260.52 2193.99,-265.37"/>
</g>
<!-- n22&#45;&gt;n9 -->
<g id="edge35" class="edge">
<title>n22&#45;&gt;n9</title>
<path fill="none" stroke="#64748b" d="M1633.44,-521.05C1636.6,-483.56 1644.12,-394.15 1647.84,-349.9"/>
<polygon fill="#64748b" stroke="#64748b" points="1650.28,-350.12 1648.42,-342.94 1645.4,-349.71 1650.28,-350.12"/>
</g>
<!-- n22&#45;&gt;n21 -->
<g id="edge39" class="edge">
<title>n22&#45;&gt;n21</title>
<path fill="none" stroke="#64748b" d="M1738.4,-520.72C1800.91,-510.44 1879.92,-497.46 1943.75,-486.97"/>
<polygon fill="#64748b" stroke="#64748b" points="1943.85,-489.44 1950.36,-485.89 1943.05,-484.61 1943.85,-489.44"/>
</g>
<!-- n23 -->
<g id="node15" class="node">
<title>n23</title>
<g id="a_node15"><a xlink:href="https://github.com/statopia/statlib/blob/main/Statlib/HighDim/Vocabulary/QuadraticForms.lean#L46" xlink:title="noncomputable def · Statlib/HighDim/Vocabulary/QuadraticForms.lean:46" target="_blank">
<path fill="#d6e9ff" stroke="#3b82f6" d="M757.41,-124C757.41,-124 692.59,-124 692.59,-124 686.59,-124 680.59,-118 680.59,-112 680.59,-112 680.59,-100 680.59,-100 680.59,-94 686.59,-88 692.59,-88 692.59,-88 757.41,-88 757.41,-88 763.41,-88 769.41,-94 769.41,-100 769.41,-100 769.41,-112 769.41,-112 769.41,-118 763.41,-124 757.41,-124"/>
<text xml:space="preserve" text-anchor="middle" x="725" y="-103" font-family="Helvetica,sans-Serif" font-size="10.00">offDiagCoeffVec</text>
</a>
</g>
</g>
<!-- n24 -->
<g id="node16" class="node">
<title>n24</title>
<g id="a_node16"><a xlink:href="https://github.com/statopia/statlib/blob/main/Statlib/HighDim/Concentration/HansonWright.lean#L90" xlink:title="lemma · Statlib/HighDim/Concentration/HansonWright.lean:90" target="_blank">
<path fill="#eef2f6" stroke="#94a3b8" d="M1155.83,-124C1155.83,-124 978.17,-124 978.17,-124 972.17,-124 966.17,-118 966.17,-112 966.17,-112 966.17,-100 966.17,-100 966.17,-94 972.17,-88 978.17,-88 978.17,-88 1155.83,-88 1155.83,-88 1161.83,-88 1167.83,-94 1167.83,-100 1167.83,-100 1167.83,-112 1167.83,-112 1167.83,-118 1161.83,-124 1155.83,-124"/>
<text xml:space="preserve" text-anchor="middle" x="1067" y="-103" font-family="Helvetica,sans-Serif" font-size="10.00">decoupledOffDiagQuadForm_measurable</text>
</a>
</g>
</g>
<!-- n24&#45;&gt;n2 -->
<g id="edge40" class="edge">
<title>n24&#45;&gt;n2</title>
<path fill="none" stroke="#64748b" d="M993.57,-87.52C950.9,-77.36 897.09,-64.54 853.3,-54.12"/>
<polygon fill="#64748b" stroke="#64748b" points="854.09,-51.79 846.71,-52.55 852.95,-56.56 854.09,-51.79"/>
</g>
<!-- n25 -->
<g id="node17" class="node">
<title>n25</title>
<g id="a_node17"><a xlink:href="https://github.com/statopia/statlib/blob/main/Statlib/HighDim/Concentration/HansonWright.lean#L99" xlink:title="lemma · Statlib/HighDim/Concentration/HansonWright.lean:99" target="_blank">
<path fill="#eef2f6" stroke="#94a3b8" d="M1221.62,-196C1221.62,-196 1018.38,-196 1018.38,-196 1012.38,-196 1006.38,-190 1006.38,-184 1006.38,-184 1006.38,-172 1006.38,-172 1006.38,-166 1012.38,-160 1018.38,-160 1018.38,-160 1221.62,-160 1221.62,-160 1227.62,-160 1233.62,-166 1233.62,-172 1233.62,-172 1233.62,-184 1233.62,-184 1233.62,-190 1227.62,-196 1221.62,-196"/>
<text xml:space="preserve" text-anchor="middle" x="1120" y="-175" font-family="Helvetica,sans-Serif" font-size="10.00">decoupledOffDiagQuadForm_prod_measurable</text>
</a>
</g>
</g>
<!-- n25&#45;&gt;n2 -->
<g id="edge41" class="edge">
<title>n25&#45;&gt;n2</title>
<path fill="none" stroke="#64748b" d="M1059.69,-159.54C1028.65,-150.01 990.4,-137.44 957,-124 906.07,-103.52 849.51,-75.29 812.72,-56.16"/>
<polygon fill="#64748b" stroke="#64748b" points="814.31,-54.23 806.97,-53.16 812.04,-58.57 814.31,-54.23"/>
</g>
<!-- n25&#45;&gt;n24 -->
<g id="edge42" class="edge">
<title>n25&#45;&gt;n24</title>
<path fill="none" stroke="#64748b" d="M1106.9,-159.7C1100.29,-150.97 1092.17,-140.24 1084.98,-130.75"/>
<polygon fill="#64748b" stroke="#64748b" points="1087.04,-129.41 1080.86,-125.31 1083.14,-132.37 1087.04,-129.41"/>
</g>
<!-- n26 -->
<g id="node18" class="node">
<title>n26</title>
<g id="a_node18"><a xlink:href="https://github.com/statopia/statlib/blob/main/Statlib/HighDim/Concentration/HansonWright.lean#L109" xlink:title="lemma · Statlib/HighDim/Concentration/HansonWright.lean:109" target="_blank">
<path fill="#eef2f6" stroke="#94a3b8" d="M1132.29,-269.2C1132.29,-269.2 895.71,-269.2 895.71,-269.2 889.71,-269.2 883.71,-263.2 883.71,-257.2 883.71,-257.2 883.71,-245.2 883.71,-245.2 883.71,-239.2 889.71,-233.2 895.71,-233.2 895.71,-233.2 1132.29,-233.2 1132.29,-233.2 1138.29,-233.2 1144.29,-239.2 1144.29,-245.2 1144.29,-245.2 1144.29,-257.2 1144.29,-257.2 1144.29,-263.2 1138.29,-269.2 1132.29,-269.2"/>
<text xml:space="preserve" text-anchor="middle" x="1014" y="-248.2" font-family="Helvetica,sans-Serif" font-size="10.00">decoupledOffDiagQuadForm_prod_tail_measurableSet</text>
</a>
</g>
</g>
<!-- n26&#45;&gt;n2 -->
<g id="edge43" class="edge">
<title>n26&#45;&gt;n2</title>
<path fill="none" stroke="#64748b" d="M1144.58,-234.1C1147.41,-233.79 1150.22,-233.49 1153,-233.2 1162.98,-232.15 1236.22,-232.61 1243,-225.2 1262.56,-203.82 1253.51,-187.01 1243,-160 1227.26,-119.54 1215.51,-108.03 1177,-88 1122.37,-59.58 955.18,-45.3 853.81,-39.08"/>
<polygon fill="#64748b" stroke="#64748b" points="854.06,-36.64 846.93,-38.66 853.77,-41.53 854.06,-36.64"/>
</g>
<!-- n26&#45;&gt;n25 -->
<g id="edge44" class="edge">
<title>n26&#45;&gt;n25</title>
<path fill="none" stroke="#64748b" d="M1039.93,-232.78C1054.18,-223.21 1071.99,-211.25 1087.19,-201.04"/>
<polygon fill="#64748b" stroke="#64748b" points="1088.27,-203.27 1092.71,-197.33 1085.54,-199.2 1088.27,-203.27"/>
</g>
<!-- n27 -->
<g id="node19" class="node">
<title>n27</title>
<g id="a_node19"><a xlink:href="https://github.com/statopia/statlib/blob/main/Statlib/HighDim/Concentration/HansonWright.lean#L622" xlink:title="lemma · Statlib/HighDim/Concentration/HansonWright.lean:622" target="_blank">
<path fill="#eef2f6" stroke="#94a3b8" d="M916.32,-196C916.32,-196 763.68,-196 763.68,-196 757.68,-196 751.68,-190 751.68,-184 751.68,-184 751.68,-172 751.68,-172 751.68,-166 757.68,-160 763.68,-160 763.68,-160 916.32,-160 916.32,-160 922.32,-160 928.32,-166 928.32,-172 928.32,-172 928.32,-184 928.32,-184 928.32,-190 922.32,-196 916.32,-196"/>
<text xml:space="preserve" text-anchor="middle" x="840" y="-175" font-family="Helvetica,sans-Serif" font-size="10.00">offDiagCoeffVec_comp_measurable</text>
</a>
</g>
</g>
<!-- n27&#45;&gt;n23 -->
<g id="edge45" class="edge">
<title>n27&#45;&gt;n23</title>
<path fill="none" stroke="#64748b" d="M811.28,-159.52C795.93,-150.18 776.9,-138.59 760.62,-128.68"/>
<polygon fill="#64748b" stroke="#64748b" points="761.9,-126.59 754.65,-125.05 759.36,-130.78 761.9,-126.59"/>
</g>
<!-- n28 -->
<g id="node20" class="node">
<title>n28</title>
<g id="a_node20"><a xlink:href="https://github.com/statopia/statlib/blob/main/Statlib/HighDim/Concentration/HansonWright.lean#L630" xlink:title="lemma · Statlib/HighDim/Concentration/HansonWright.lean:630" target="_blank">
<path fill="#eef2f6" stroke="#94a3b8" d="M813.55,-269.2C813.55,-269.2 646.45,-269.2 646.45,-269.2 640.45,-269.2 634.45,-263.2 634.45,-257.2 634.45,-257.2 634.45,-245.2 634.45,-245.2 634.45,-239.2 640.45,-233.2 646.45,-233.2 646.45,-233.2 813.55,-233.2 813.55,-233.2 819.55,-233.2 825.55,-239.2 825.55,-245.2 825.55,-245.2 825.55,-257.2 825.55,-257.2 825.55,-263.2 819.55,-269.2 813.55,-269.2"/>
<text xml:space="preserve" text-anchor="middle" x="730" y="-248.2" font-family="Helvetica,sans-Serif" font-size="10.00">offDiagCoeffVec_norm_sq_measurable</text>
</a>
</g>
</g>
<!-- n28&#45;&gt;n23 -->
<g id="edge46" class="edge">
<title>n28&#45;&gt;n23</title>
<path fill="none" stroke="#64748b" d="M729.4,-232.93C728.53,-207.98 726.91,-161.7 725.9,-132.73"/>
<polygon fill="#64748b" stroke="#64748b" points="728.35,-132.76 725.66,-125.85 723.45,-132.93 728.35,-132.76"/>
</g>
<!-- n28&#45;&gt;n27 -->
<g id="edge47" class="edge">
<title>n28&#45;&gt;n27</title>
<path fill="none" stroke="#64748b" d="M756.91,-232.78C771.69,-223.21 790.17,-211.25 805.95,-201.04"/>
<polygon fill="#64748b" stroke="#64748b" points="807.17,-203.17 811.72,-197.31 804.51,-199.05 807.17,-203.17"/>
</g>
<!-- n30 -->
<g id="node21" class="node">
<title>n30</title>
<g id="a_node21"><a xlink:href="https://github.com/statopia/statlib/blob/main/Statlib/HighDim/Vocabulary/QuadraticForms.lean#L39" xlink:title="noncomputable def · Statlib/HighDim/Vocabulary/QuadraticForms.lean:39" target="_blank">
<path fill="#d6e9ff" stroke="#3b82f6" d="M1627.79,-52C1627.79,-52 1580.21,-52 1580.21,-52 1574.21,-52 1568.21,-46 1568.21,-40 1568.21,-40 1568.21,-28 1568.21,-28 1568.21,-22 1574.21,-16 1580.21,-16 1580.21,-16 1627.79,-16 1627.79,-16 1633.79,-16 1639.79,-22 1639.79,-28 1639.79,-28 1639.79,-40 1639.79,-40 1639.79,-46 1633.79,-52 1627.79,-52"/>
<text xml:space="preserve" text-anchor="middle" x="1604" y="-31" font-family="Helvetica,sans-Serif" font-size="10.00">offDiagCoeff</text>
</a>
</g>
</g>
<!-- n31 -->
<g id="node22" class="node">
<title>n31</title>
<g id="a_node22"><a xlink:href="https://github.com/statopia/statlib/blob/main/Statlib/HighDim/Concentration/HansonWright.lean#L46" xlink:title="lemma · Statlib/HighDim/Concentration/HansonWright.lean:46" target="_blank">
<path fill="#eef2f6" stroke="#94a3b8" d="M1698.11,-124C1698.11,-124 1509.89,-124 1509.89,-124 1503.89,-124 1497.89,-118 1497.89,-112 1497.89,-112 1497.89,-100 1497.89,-100 1497.89,-94 1503.89,-88 1509.89,-88 1509.89,-88 1698.11,-88 1698.11,-88 1704.11,-88 1710.11,-94 1710.11,-100 1710.11,-100 1710.11,-112 1710.11,-112 1710.11,-118 1704.11,-124 1698.11,-124"/>
<text xml:space="preserve" text-anchor="middle" x="1604" y="-103" font-family="Helvetica,sans-Serif" font-size="10.00">decoupledOffDiagQuadForm_eq_sum_coeff</text>
</a>
</g>
</g>
<!-- n31&#45;&gt;n2 -->
<g id="edge48" class="edge">
<title>n31&#45;&gt;n2</title>
<path fill="none" stroke="#64748b" d="M1497.4,-89.52C1492.87,-88.99 1488.39,-88.47 1484,-88 1256.1,-63.39 985.87,-46.65 853.8,-39.27"/>
<polygon fill="#64748b" stroke="#64748b" points="853.94,-36.83 846.82,-38.89 853.67,-41.72 853.94,-36.83"/>
</g>
<!-- n31&#45;&gt;n30 -->
<g id="edge49" class="edge">
<title>n31&#45;&gt;n30</title>
<path fill="none" stroke="#64748b" d="M1604,-87.7C1604,-79.47 1604,-69.48 1604,-60.42"/>
<polygon fill="#64748b" stroke="#64748b" points="1606.45,-60.62 1604,-53.62 1601.55,-60.62 1606.45,-60.62"/>
</g>
<!-- n32 -->
<g id="node23" class="node">
<title>n32</title>
<g id="a_node23"><a xlink:href="https://github.com/statopia/statlib/blob/main/Statlib/HighDim/Concentration/HansonWright.lean#L65" xlink:title="lemma · Statlib/HighDim/Concentration/HansonWright.lean:65" target="_blank">
<path fill="#eef2f6" stroke="#94a3b8" d="M1661.79,-196C1661.79,-196 1470.21,-196 1470.21,-196 1464.21,-196 1458.21,-190 1458.21,-184 1458.21,-184 1458.21,-172 1458.21,-172 1458.21,-166 1464.21,-160 1470.21,-160 1470.21,-160 1661.79,-160 1661.79,-160 1667.79,-160 1673.79,-166 1673.79,-172 1673.79,-172 1673.79,-184 1673.79,-184 1673.79,-190 1667.79,-196 1661.79,-196"/>
<text xml:space="preserve" text-anchor="middle" x="1566" y="-175" font-family="Helvetica,sans-Serif" font-size="10.00">decoupledOffDiagQuadForm_eq_inner_coeff</text>
</a>
</g>
</g>
<!-- n32&#45;&gt;n2 -->
<g id="edge50" class="edge">
<title>n32&#45;&gt;n2</title>
<path fill="none" stroke="#64748b" d="M1539.65,-159.55C1524.63,-149.43 1505.55,-136.29 1489,-124 1468.44,-108.73 1467.82,-97.42 1444,-88 1338.59,-46.29 1007.51,-37.36 853.39,-35.48"/>
<polygon fill="#64748b" stroke="#64748b" points="853.84,-33.04 846.81,-35.4 853.78,-37.94 853.84,-33.04"/>
</g>
<!-- n32&#45;&gt;n5 -->
<g id="edge53" class="edge">
<title>n32&#45;&gt;n5</title>
<path fill="none" stroke="#64748b" d="M1621.45,-159.52C1657.98,-148 1705.34,-133.06 1740.21,-122.07"/>
<polygon fill="#64748b" stroke="#64748b" points="1740.51,-124.54 1746.45,-120.1 1739.04,-119.87 1740.51,-124.54"/>
</g>
<!-- n32&#45;&gt;n30 -->
<g id="edge51" class="edge">
<title>n32&#45;&gt;n30</title>
<path fill="none" stroke="#64748b" d="M1671.7,-159.61C1690.26,-151.74 1707.34,-140.37 1719,-124 1728.28,-110.97 1727.63,-101.47 1719,-88 1703.44,-63.69 1673.59,-50.38 1648.2,-43.17"/>
<polygon fill="#64748b" stroke="#64748b" points="1649,-40.85 1641.61,-41.43 1647.75,-45.59 1649,-40.85"/>
</g>
<!-- n32&#45;&gt;n31 -->
<g id="edge52" class="edge">
<title>n32&#45;&gt;n31</title>
<path fill="none" stroke="#64748b" d="M1575.39,-159.7C1579.99,-151.22 1585.62,-140.86 1590.66,-131.58"/>
<polygon fill="#64748b" stroke="#64748b" points="1592.81,-132.76 1593.99,-125.43 1588.5,-130.42 1592.81,-132.76"/>
</g>
<!-- n33 -->
<g id="node24" class="node">
<title>n33</title>
<g id="a_node24"><a xlink:href="https://github.com/statopia/statlib/blob/main/Statlib/HighDim/Concentration/HansonWright.lean#L39" xlink:title="lemma · Statlib/HighDim/Concentration/HansonWright.lean:39" target="_blank">
<path fill="#eef2f6" stroke="#94a3b8" d="M1361.52,-196C1361.52,-196 1284.48,-196 1284.48,-196 1278.48,-196 1272.48,-190 1272.48,-184 1272.48,-184 1272.48,-172 1272.48,-172 1272.48,-166 1278.48,-160 1284.48,-160 1284.48,-160 1361.52,-160 1361.52,-160 1367.52,-160 1373.52,-166 1373.52,-172 1373.52,-172 1373.52,-184 1373.52,-184 1373.52,-190 1367.52,-196 1361.52,-196"/>
<text xml:space="preserve" text-anchor="middle" x="1323" y="-175" font-family="Helvetica,sans-Serif" font-size="10.00">offDiagCoeff_const</text>
</a>
</g>
</g>
<!-- n33&#45;&gt;n23 -->
<g id="edge55" class="edge">
<title>n33&#45;&gt;n23</title>
<path fill="none" stroke="#64748b" d="M1272.37,-165.38C1262.65,-163.4 1252.54,-161.5 1243,-160 1074.17,-133.5 872.21,-117.24 778.12,-110.54"/>
<polygon fill="#64748b" stroke="#64748b" points="778.56,-108.12 771.41,-110.07 778.22,-113.01 778.56,-108.12"/>
</g>
<!-- n33&#45;&gt;n30 -->
<g id="edge54" class="edge">
<title>n33&#45;&gt;n30</title>
<path fill="none" stroke="#64748b" d="M1354.22,-159.53C1387.37,-141.16 1441.43,-111.69 1489,-88 1512.22,-76.44 1538.47,-64.27 1560.02,-54.52"/>
<polygon fill="#64748b" stroke="#64748b" points="1560.98,-56.77 1566.36,-51.66 1558.97,-52.31 1560.98,-56.77"/>
</g>
<!-- n34 -->
<g id="node25" class="node">
<title>n34</title>
<g id="a_node25"><a xlink:href="https://github.com/statopia/statlib/blob/main/Statlib/HighDim/Concentration/HansonWright.lean#L73" xlink:title="lemma · Statlib/HighDim/Concentration/HansonWright.lean:73" target="_blank">
<path fill="#eef2f6" stroke="#94a3b8" d="M1437.64,-269.2C1437.64,-269.2 1174.36,-269.2 1174.36,-269.2 1168.36,-269.2 1162.36,-263.2 1162.36,-257.2 1162.36,-257.2 1162.36,-245.2 1162.36,-245.2 1162.36,-239.2 1168.36,-233.2 1174.36,-233.2 1174.36,-233.2 1437.64,-233.2 1437.64,-233.2 1443.64,-233.2 1449.64,-239.2 1449.64,-245.2 1449.64,-245.2 1449.64,-257.2 1449.64,-257.2 1449.64,-263.2 1443.64,-269.2 1437.64,-269.2"/>
<text xml:space="preserve" text-anchor="middle" x="1306" y="-248.2" font-family="Helvetica,sans-Serif" font-size="10.00">decoupledOffDiagQuadForm_const_right_eq_inner_coeffVec</text>
</a>
</g>
</g>
<!-- n34&#45;&gt;n2 -->
<g id="edge56" class="edge">
<title>n34&#45;&gt;n2</title>
<path fill="none" stroke="#64748b" d="M1375.89,-232.81C1378.54,-230.57 1380.93,-228.04 1383,-225.2 1400.04,-201.76 1399.18,-184.04 1383,-160 1324.59,-73.18 1005.69,-46.19 853.67,-38.19"/>
<polygon fill="#64748b" stroke="#64748b" points="853.86,-35.74 846.74,-37.83 853.61,-40.64 853.86,-35.74"/>
</g>
<!-- n34&#45;&gt;n23 -->
<g id="edge57" class="edge">
<title>n34&#45;&gt;n23</title>
<path fill="none" stroke="#64748b" d="M1161.87,-233.94C1158.89,-233.69 1155.93,-233.44 1153,-233.2 1135.7,-231.8 1011.05,-235.4 997,-225.2 971.89,-206.97 995.58,-180.18 972,-160 943.34,-135.47 841.67,-119.97 778.04,-112.45"/>
<polygon fill="#64748b" stroke="#64748b" points="778.45,-110.03 771.22,-111.66 777.89,-114.9 778.45,-110.03"/>
</g>
<!-- n34&#45;&gt;n32 -->
<g id="edge58" class="edge">
<title>n34&#45;&gt;n32</title>
<path fill="none" stroke="#64748b" d="M1370.35,-232.74C1379.63,-230.22 1389.06,-227.64 1398,-225.2 1429.74,-216.52 1464.84,-206.88 1494.71,-198.66"/>
<polygon fill="#64748b" stroke="#64748b" points="1495.03,-201.11 1501.13,-196.89 1493.73,-196.38 1495.03,-201.11"/>
</g>
<!-- n34&#45;&gt;n33 -->
<g id="edge59" class="edge">
<title>n34&#45;&gt;n33</title>
<path fill="none" stroke="#64748b" d="M1310.12,-232.96C1312.18,-224.31 1314.73,-213.65 1317.01,-204.1"/>
<polygon fill="#64748b" stroke="#64748b" points="1319.33,-204.93 1318.57,-197.55 1314.56,-203.79 1319.33,-204.93"/>
</g>
<!-- n35 -->
<g id="node26" class="node">
<title>n35</title>
<g id="a_node26"><a xlink:href="https://github.com/statopia/statlib/blob/main/Statlib/HighDim/Concentration/HansonWright.lean#L80" xlink:title="lemma · Statlib/HighDim/Concentration/HansonWright.lean:80" target="_blank">
<path fill="#eef2f6" stroke="#94a3b8" d="M1389.02,-341.2C1389.02,-341.2 1152.98,-341.2 1152.98,-341.2 1146.98,-341.2 1140.98,-335.2 1140.98,-329.2 1140.98,-329.2 1140.98,-317.2 1140.98,-317.2 1140.98,-311.2 1146.98,-305.2 1152.98,-305.2 1152.98,-305.2 1389.02,-305.2 1389.02,-305.2 1395.02,-305.2 1401.02,-311.2 1401.02,-317.2 1401.02,-317.2 1401.02,-329.2 1401.02,-329.2 1401.02,-335.2 1395.02,-341.2 1389.02,-341.2"/>
<text xml:space="preserve" text-anchor="middle" x="1271" y="-320.2" font-family="Helvetica,sans-Serif" font-size="10.00">decoupledOffDiagQuadForm_const_right_subgaussian</text>
</a>
</g>
</g>
<!-- n35&#45;&gt;n0 -->
<g id="edge60" class="edge">
<title>n35&#45;&gt;n0</title>
<path fill="none" stroke="#64748b" d="M1354.77,-304.71C1391.89,-295.84 1435.72,-283.83 1474,-269.2 1506.68,-256.71 1510.16,-242.06 1544,-233.2 1590.68,-220.98 1713.4,-233.13 1761,-225.2 1794.4,-219.64 1830.72,-208.88 1859.59,-199.14"/>
<polygon fill="#64748b" stroke="#64748b" points="1860.26,-201.5 1866.1,-196.92 1858.68,-196.87 1860.26,-201.5"/>
</g>
<!-- n35&#45;&gt;n2 -->
<g id="edge61" class="edge">
<title>n35&#45;&gt;n2</title>
<path fill="none" stroke="#64748b" d="M1373.46,-304.72C1411.28,-296 1447.72,-284.1 1459,-269.2 1468.66,-256.44 1468.43,-246.12 1459,-233.2 1452.12,-223.78 1443.18,-232.4 1434,-225.2 1407.25,-204.22 1417.02,-185.02 1394,-160 1357.41,-120.22 1346.44,-107.41 1296,-88 1217.24,-57.69 979.33,-43.52 853.32,-37.98"/>
<polygon fill="#64748b" stroke="#64748b" points="853.79,-35.55 846.69,-37.69 853.58,-40.44 853.79,-35.55"/>
</g>
<!-- n35&#45;&gt;n23 -->
<g id="edge62" class="edge">
<title>n35&#45;&gt;n23</title>
<path fill="none" stroke="#64748b" d="M1140.61,-313.21C1032.09,-304.37 892.57,-289.28 875,-269.2 813.79,-199.25 938.95,-239.67 952,-225.2 971.4,-203.68 970.01,-182.7 952,-160 930.71,-133.17 838.31,-118.64 778.16,-111.89"/>
<polygon fill="#64748b" stroke="#64748b" points="778.63,-109.47 771.4,-111.15 778.09,-114.34 778.63,-109.47"/>
</g>
<!-- n35&#45;&gt;n34 -->
<g id="edge63" class="edge">
<title>n35&#45;&gt;n34</title>
<path fill="none" stroke="#64748b" d="M1279.65,-304.9C1283.89,-296.42 1289.07,-286.06 1293.71,-276.78"/>
<polygon fill="#64748b" stroke="#64748b" points="1295.83,-278.01 1296.77,-270.66 1291.45,-275.82 1295.83,-278.01"/>
</g>
<!-- n37 -->
<g id="node27" class="node">
<title>n37</title>
<g id="a_node27"><a xlink:href="https://github.com/statopia/statlib/blob/main/Statlib/HighDim/Concentration/HansonWright.lean#L798" xlink:title="lemma · Statlib/HighDim/Concentration/HansonWright.lean:798" target="_blank">
<path fill="#eef2f6" stroke="#94a3b8" d="M1428.77,-413.2C1428.77,-413.2 1093.23,-413.2 1093.23,-413.2 1087.23,-413.2 1081.23,-407.2 1081.23,-401.2 1081.23,-401.2 1081.23,-389.2 1081.23,-389.2 1081.23,-383.2 1087.23,-377.2 1093.23,-377.2 1093.23,-377.2 1428.77,-377.2 1428.77,-377.2 1434.77,-377.2 1440.77,-383.2 1440.77,-389.2 1440.77,-389.2 1440.77,-401.2 1440.77,-401.2 1440.77,-407.2 1434.77,-413.2 1428.77,-413.2"/>
<text xml:space="preserve" text-anchor="middle" x="1261" y="-392.2" font-family="Helvetica,sans-Serif" font-size="10.00">decoupledOffDiagQuadForm_const_right_abs_tail_real_of_coeff_norm_sq_le</text>
</a>
</g>
</g>
<!-- n37&#45;&gt;n0 -->
<g id="edge64" class="edge">
<title>n37&#45;&gt;n0</title>
<path fill="none" stroke="#64748b" d="M1333.01,-376.81C1362.47,-368.21 1396.3,-356.38 1425,-341.2 1442.29,-332.05 1545.63,-239.92 1564,-233.2 1605.15,-218.15 1717.8,-232.48 1761,-225.2 1794.39,-219.57 1830.71,-208.81 1859.58,-199.09"/>
<polygon fill="#64748b" stroke="#64748b" points="1860.25,-201.45 1866.09,-196.87 1858.67,-196.82 1860.25,-201.45"/>
</g>
<!-- n37&#45;&gt;n2 -->
<g id="edge66" class="edge">
<title>n37&#45;&gt;n2</title>
<path fill="none" stroke="#64748b" d="M1347.8,-376.76C1370.17,-368.89 1392.77,-357.54 1410,-341.2 1422.58,-329.27 1414.73,-319.16 1425,-305.2 1439.77,-285.12 1457.45,-291.78 1468,-269.2 1474.77,-254.7 1476.85,-246.53 1468,-233.2 1462.93,-225.57 1455.58,-231.57 1449,-225.2 1426.08,-203.02 1438.37,-185.35 1419,-160 1388.73,-120.39 1379,-107.21 1333,-88 1248.49,-52.7 987.18,-40.67 853.53,-36.77"/>
<polygon fill="#64748b" stroke="#64748b" points="853.88,-34.33 846.82,-36.58 853.74,-39.23 853.88,-34.33"/>
</g>
<!-- n37&#45;&gt;n23 -->
<g id="edge65" class="edge">
<title>n37&#45;&gt;n23</title>
<path fill="none" stroke="#64748b" d="M1157.51,-376.73C1049.32,-356.11 890.3,-318.32 854,-269.2 844.49,-256.33 843.24,-245.04 854,-233.2 866.46,-219.48 924.54,-238.92 937,-225.2 956.48,-203.75 954.83,-182.84 937,-160 917.62,-135.18 834.26,-120.27 778.02,-112.85"/>
<polygon fill="#64748b" stroke="#64748b" points="778.34,-110.42 771.09,-111.95 777.72,-115.28 778.34,-110.42"/>
</g>
<!-- n37&#45;&gt;n35 -->
<g id="edge68" class="edge">
<title>n37&#45;&gt;n35</title>
<path fill="none" stroke="#64748b" d="M1263.47,-376.9C1264.65,-368.67 1266.07,-358.68 1267.37,-349.62"/>
<polygon fill="#64748b" stroke="#64748b" points="1269.78,-350.08 1268.34,-342.8 1264.93,-349.39 1269.78,-350.08"/>
</g>
<!-- n29 -->
<g id="node57" class="node">
<title>n29</title>
<g id="a_node57"><a xlink:href="https://github.com/statopia/statlib/blob/main/Statlib/StatFoundation/RandomVariable/SubGaussian/subgaussian_mgf_mono_param.lean#L10" xlink:title="lemma · Statlib/StatFoundation/RandomVariable/SubGaussian/subgaussian_mgf_mono_param.lean:10" target="_blank">
<path fill="#eef2f6" stroke="#94a3b8" d="M2994.43,-196C2994.43,-196 2859.57,-196 2859.57,-196 2853.57,-196 2847.57,-190 2847.57,-184 2847.57,-184 2847.57,-172 2847.57,-172 2847.57,-166 2853.57,-160 2859.57,-160 2859.57,-160 2994.43,-160 2994.43,-160 3000.43,-160 3006.43,-166 3006.43,-172 3006.43,-172 3006.43,-184 3006.43,-184 3006.43,-190 3000.43,-196 2994.43,-196"/>
<text xml:space="preserve" text-anchor="middle" x="2927" y="-175" font-family="Helvetica,sans-Serif" font-size="10.00">subgaussian_mgf_mono_param</text>
</a>
</g>
</g>
<!-- n37&#45;&gt;n29 -->
<g id="edge67" class="edge">
<title>n37&#45;&gt;n29</title>
<path fill="none" stroke="#64748b" d="M1441.1,-390.2C1711.64,-383.42 2210.1,-367.78 2387,-341.2 2592.1,-310.39 2645.44,-299.68 2839,-225.2 2856.58,-218.44 2875.16,-209.04 2890.7,-200.49"/>
<polygon fill="#64748b" stroke="#64748b" points="2891.83,-202.67 2896.74,-197.11 2889.44,-198.39 2891.83,-202.67"/>
</g>
<!-- n36 -->
<g id="node58" class="node">
<title>n36</title>
<g id="a_node58"><a xlink:href="https://github.com/statopia/statlib/blob/main/Statlib/StatFoundation/Concentration/ExponentialType/subgaussian_abs_tail_real.lean#L11" xlink:title="lemma · Statlib/StatFoundation/Concentration/ExponentialType/subgaussian_abs_tail_real.lean:11" target="_blank">
<path fill="#eef2f6" stroke="#94a3b8" d="M3147.21,-196C3147.21,-196 3036.79,-196 3036.79,-196 3030.79,-196 3024.79,-190 3024.79,-184 3024.79,-184 3024.79,-172 3024.79,-172 3024.79,-166 3030.79,-160 3036.79,-160 3036.79,-160 3147.21,-160 3147.21,-160 3153.21,-160 3159.21,-166 3159.21,-172 3159.21,-172 3159.21,-184 3159.21,-184 3159.21,-190 3153.21,-196 3147.21,-196"/>
<text xml:space="preserve" text-anchor="middle" x="3092" y="-175" font-family="Helvetica,sans-Serif" font-size="10.00">subgaussian_abs_tail_real</text>
</a>
</g>
</g>
<!-- n37&#45;&gt;n36 -->
<g id="edge69" class="edge">
<title>n37&#45;&gt;n36</title>
<path fill="none" stroke="#64748b" d="M1441.22,-390.5C1734.75,-383.81 2303.38,-367.85 2503,-341.2 2734.27,-310.32 2798.46,-312.09 3015,-225.2 3030.89,-218.82 3047.33,-209.41 3060.91,-200.74"/>
<polygon fill="#64748b" stroke="#64748b" points="3061.93,-203 3066.46,-197.13 3059.26,-198.89 3061.93,-203"/>
</g>
<!-- n39 -->
<g id="node28" class="node">
<title>n39</title>
<g id="a_node28"><a xlink:href="https://github.com/statopia/statlib/blob/main/Statlib/HighDim/Concentration/HansonWright.lean#L973" xlink:title="lemma · Statlib/HighDim/Concentration/HansonWright.lean:973" target="_blank">
<path fill="#eef2f6" stroke="#94a3b8" d="M1139.54,-485.2C1139.54,-485.2 888.46,-485.2 888.46,-485.2 882.46,-485.2 876.46,-479.2 876.46,-473.2 876.46,-473.2 876.46,-461.2 876.46,-461.2 876.46,-455.2 882.46,-449.2 888.46,-449.2 888.46,-449.2 1139.54,-449.2 1139.54,-449.2 1145.54,-449.2 1151.54,-455.2 1151.54,-461.2 1151.54,-461.2 1151.54,-473.2 1151.54,-473.2 1151.54,-479.2 1145.54,-485.2 1139.54,-485.2"/>
<text xml:space="preserve" text-anchor="middle" x="1014" y="-464.2" font-family="Helvetica,sans-Serif" font-size="10.00">decoupledOffDiagQuadForm_prod_tail_le_bad_plus_good</text>
</a>
</g>
</g>
<!-- n39&#45;&gt;n0 -->
<g id="edge70" class="edge">
<title>n39&#45;&gt;n0</title>
<path fill="none" stroke="#64748b" d="M1151.81,-464.27C1261.62,-460.08 1404.27,-447.86 1450,-413.2 1491.44,-381.79 1462.49,-345.78 1495,-305.2 1512.35,-283.55 1524.54,-286.79 1546,-269.2 1563.99,-254.45 1562.59,-242.3 1584,-233.2 1620.24,-217.8 1722.19,-231.83 1761,-225.2 1794.25,-219.52 1830.42,-208.82 1859.25,-199.14"/>
<polygon fill="#64748b" stroke="#64748b" points="1859.9,-201.5 1865.74,-196.93 1858.32,-196.87 1859.9,-201.5"/>
</g>
<!-- n39&#45;&gt;n2 -->
<g id="edge71" class="edge">
<title>n39&#45;&gt;n2</title>
<path fill="none" stroke="#64748b" d="M876.26,-454.19C829.79,-446.5 778.67,-433.88 735,-413.2 689.95,-391.86 679.69,-380.48 649,-341.2 579.44,-252.15 596.33,-171.92 672,-88 684.08,-74.61 700.34,-64.04 716.28,-55.98"/>
<polygon fill="#64748b" stroke="#64748b" points="716.97,-58.36 722.21,-53.11 714.84,-53.95 716.97,-58.36"/>
</g>
<!-- n39&#45;&gt;n23 -->
<g id="edge72" class="edge">
<title>n39&#45;&gt;n23</title>
<path fill="none" stroke="#64748b" d="M920.43,-448.72C826.62,-425.61 687.43,-374.75 625,-269.2 616.85,-255.43 614.34,-245.13 625,-233.2 635.58,-221.36 684.08,-235.68 696,-225.2 709.71,-213.15 718.12,-163.53 722.14,-132.54"/>
<polygon fill="#64748b" stroke="#64748b" points="724.54,-133.09 722.98,-125.84 719.68,-132.49 724.54,-133.09"/>
</g>
<!-- n39&#45;&gt;n26 -->
<g id="edge73" class="edge">
<title>n39&#45;&gt;n26</title>
<path fill="none" stroke="#64748b" d="M1014,-449.05C1014,-411.56 1014,-322.15 1014,-277.9"/>
<polygon fill="#64748b" stroke="#64748b" points="1016.45,-277.95 1014,-270.95 1011.55,-277.95 1016.45,-277.95"/>
</g>
<!-- n39&#45;&gt;n28 -->
<g id="edge74" class="edge">
<title>n39&#45;&gt;n28</title>
<path fill="none" stroke="#64748b" d="M988.89,-448.84C954.77,-425.1 892.05,-380.9 840,-341.2 811.32,-319.33 779.36,-293.27 757.31,-275.02"/>
<polygon fill="#64748b" stroke="#64748b" points="758.92,-273.17 751.97,-270.59 755.79,-276.95 758.92,-273.17"/>
</g>
<!-- n39&#45;&gt;n37 -->
<g id="edge75" class="edge">
<title>n39&#45;&gt;n37</title>
<path fill="none" stroke="#64748b" d="M1075.69,-448.72C1110.89,-438.74 1155.13,-426.2 1191.55,-415.88"/>
<polygon fill="#64748b" stroke="#64748b" points="1192.14,-418.26 1198.21,-413.99 1190.81,-413.55 1192.14,-418.26"/>
</g>
<!-- n38 -->
<g id="node59" class="node">
<title>n38</title>
<g id="a_node59"><a xlink:href="https://github.com/statopia/statlib/blob/main/Statlib/StatFoundation/BasicAnalysis/measure_le_ofReal_of_measureReal_le.lean#L10" xlink:title="lemma · Statlib/StatFoundation/BasicAnalysis/measure_le_ofReal_of_measureReal_le.lean:10" target="_blank">
<path fill="#eef2f6" stroke="#94a3b8" d="M3584.5,-196C3584.5,-196 3413.5,-196 3413.5,-196 3407.5,-196 3401.5,-190 3401.5,-184 3401.5,-184 3401.5,-172 3401.5,-172 3401.5,-166 3407.5,-160 3413.5,-160 3413.5,-160 3584.5,-160 3584.5,-160 3590.5,-160 3596.5,-166 3596.5,-172 3596.5,-172 3596.5,-184 3596.5,-184 3596.5,-190 3590.5,-196 3584.5,-196"/>
<text xml:space="preserve" text-anchor="middle" x="3499" y="-175" font-family="Helvetica,sans-Serif" font-size="10.00">measure_le_ofReal_of_measureReal_le</text>
</a>
</g>
</g>
<!-- n39&#45;&gt;n38 -->
<g id="edge76" class="edge">
<title>n39&#45;&gt;n38</title>
<path fill="none" stroke="#64748b" d="M1151.6,-465.53C1378.52,-463.25 1845.24,-453.55 2238,-413.2 2754.93,-360.09 2893.24,-371.08 3392,-225.2 3414.12,-218.73 3437.73,-208.88 3457.13,-199.93"/>
<polygon fill="#64748b" stroke="#64748b" points="3457.95,-202.25 3463.25,-197.06 3455.87,-197.81 3457.95,-202.25"/>
</g>
<!-- n40 -->
<g id="node29" class="node">
<title>n40</title>
<g id="a_node29"><a xlink:href="https://github.com/statopia/statlib/blob/main/Statlib/HighDim/Vocabulary/QuadraticForms.lean#L52" xlink:title="def · Statlib/HighDim/Vocabulary/QuadraticForms.lean:52" target="_blank">
<path fill="#d6e9ff" stroke="#3b82f6" d="M503.62,-124C503.62,-124 444.38,-124 444.38,-124 438.38,-124 432.38,-118 432.38,-112 432.38,-112 432.38,-100 432.38,-100 432.38,-94 438.38,-88 444.38,-88 444.38,-88 503.62,-88 503.62,-88 509.62,-88 515.62,-94 515.62,-100 515.62,-100 515.62,-112 515.62,-112 515.62,-118 509.62,-124 503.62,-124"/>
<text xml:space="preserve" text-anchor="middle" x="474" y="-103" font-family="Helvetica,sans-Serif" font-size="10.00">zeroDiagMatrix</text>
</a>
</g>
</g>
<!-- n41 -->
<g id="node30" class="node">
<title>n41</title>
<g id="a_node30"><a xlink:href="https://github.com/statopia/statlib/blob/main/Statlib/HighDim/Concentration/HansonWright.lean#L203" xlink:title="lemma · Statlib/HighDim/Concentration/HansonWright.lean:203" target="_blank">
<path fill="#eef2f6" stroke="#94a3b8" d="M581.61,-196C581.61,-196 388.39,-196 388.39,-196 382.39,-196 376.39,-190 376.39,-184 376.39,-184 376.39,-172 376.39,-172 376.39,-166 382.39,-160 388.39,-160 388.39,-160 581.61,-160 581.61,-160 587.61,-160 593.61,-166 593.61,-172 593.61,-172 593.61,-184 593.61,-184 593.61,-190 587.61,-196 581.61,-196"/>
<text xml:space="preserve" text-anchor="middle" x="485" y="-175" font-family="Helvetica,sans-Serif" font-size="10.00">offDiagCoeffVec_eq_zeroDiagMatrix_mulVec</text>
</a>
</g>
</g>
<!-- n41&#45;&gt;n23 -->
<g id="edge77" class="edge">
<title>n41&#45;&gt;n23</title>
<path fill="none" stroke="#64748b" d="M544.94,-159.52C584.09,-148.1 634.72,-133.33 672.32,-122.36"/>
<polygon fill="#64748b" stroke="#64748b" points="672.65,-124.82 678.68,-120.51 671.28,-120.12 672.65,-124.82"/>
</g>
<!-- n41&#45;&gt;n40 -->
<g id="edge78" class="edge">
<title>n41&#45;&gt;n40</title>
<path fill="none" stroke="#64748b" d="M482.28,-159.7C480.99,-151.47 479.42,-141.48 477.99,-132.42"/>
<polygon fill="#64748b" stroke="#64748b" points="480.43,-132.13 476.92,-125.6 475.59,-132.9 480.43,-132.13"/>
</g>
<!-- n42 -->
<g id="node31" class="node">
<title>n42</title>
<g id="a_node31"><a xlink:href="https://github.com/statopia/statlib/blob/main/Statlib/HighDim/Concentration/HansonWright.lean#L228" xlink:title="lemma · Statlib/HighDim/Concentration/HansonWright.lean:228" target="_blank">
<path fill="#eef2f6" stroke="#94a3b8" d="M504.04,-269.2C504.04,-269.2 351.96,-269.2 351.96,-269.2 345.96,-269.2 339.96,-263.2 339.96,-257.2 339.96,-257.2 339.96,-245.2 339.96,-245.2 339.96,-239.2 345.96,-233.2 351.96,-233.2 351.96,-233.2 504.04,-233.2 504.04,-233.2 510.04,-233.2 516.04,-239.2 516.04,-245.2 516.04,-245.2 516.04,-257.2 516.04,-257.2 516.04,-263.2 510.04,-269.2 504.04,-269.2"/>
<text xml:space="preserve" text-anchor="middle" x="428" y="-248.2" font-family="Helvetica,sans-Serif" font-size="10.00">offDiagCoeffVec_norm_le_zeroDiag</text>
</a>
</g>
</g>
<!-- n42&#45;&gt;n23 -->
<g id="edge79" class="edge">
<title>n42&#45;&gt;n23</title>
<path fill="none" stroke="#64748b" d="M516.41,-235.15C521,-234.47 525.55,-233.81 530,-233.2 546.17,-230.97 590.08,-235.17 603,-225.2 627.58,-206.25 607.57,-183.36 628,-160 640.16,-146.09 656.89,-135.15 673.03,-126.91"/>
<polygon fill="#64748b" stroke="#64748b" points="673.82,-129.25 679.03,-123.98 671.66,-124.85 673.82,-129.25"/>
</g>
<!-- n42&#45;&gt;n40 -->
<g id="edge80" class="edge">
<title>n42&#45;&gt;n40</title>
<path fill="none" stroke="#64748b" d="M373.79,-232.82C371.22,-230.58 368.91,-228.05 367,-225.2 350.86,-201.14 351.72,-184.62 367,-160 373.89,-148.91 399.9,-135.9 424.56,-125.54"/>
<polygon fill="#64748b" stroke="#64748b" points="425.2,-127.93 430.74,-123 423.34,-123.4 425.2,-127.93"/>
</g>
<!-- n42&#45;&gt;n41 -->
<g id="edge81" class="edge">
<title>n42&#45;&gt;n41</title>
<path fill="none" stroke="#64748b" d="M441.8,-232.96C449.08,-223.87 458.12,-212.57 466.05,-202.67"/>
<polygon fill="#64748b" stroke="#64748b" points="467.92,-204.25 470.38,-197.26 464.1,-201.19 467.92,-204.25"/>
</g>
<!-- n43 -->
<g id="node32" class="node">
<title>n43</title>
<g id="a_node32"><a xlink:href="https://github.com/statopia/statlib/blob/main/Statlib/HighDim/Vocabulary/QuadraticForms.lean#L57" xlink:title="def · Statlib/HighDim/Vocabulary/QuadraticForms.lean:57" target="_blank">
<path fill="#d6e9ff" stroke="#3b82f6" d="M402.23,-124C402.23,-124 345.77,-124 345.77,-124 339.77,-124 333.77,-118 333.77,-112 333.77,-112 333.77,-100 333.77,-100 333.77,-94 339.77,-88 345.77,-88 345.77,-88 402.23,-88 402.23,-88 408.23,-88 414.23,-94 414.23,-100 414.23,-100 414.23,-112 414.23,-112 414.23,-118 408.23,-124 402.23,-124"/>
<text xml:space="preserve" text-anchor="middle" x="374" y="-103" font-family="Helvetica,sans-Serif" font-size="10.00">diagPartMatrix</text>
</a>
</g>
</g>
<!-- n44 -->
<g id="node33" class="node">
<title>n44</title>
<g id="a_node33"><a xlink:href="https://github.com/statopia/statlib/blob/main/Statlib/HighDim/Concentration/HansonWright.lean#L350" xlink:title="lemma · Statlib/HighDim/Concentration/HansonWright.lean:350" target="_blank">
<path fill="#eef2f6" stroke="#94a3b8" d="M304.26,-124C304.26,-124 167.74,-124 167.74,-124 161.74,-124 155.74,-118 155.74,-112 155.74,-112 155.74,-100 155.74,-100 155.74,-94 161.74,-88 167.74,-88 167.74,-88 304.26,-88 304.26,-88 310.26,-88 316.26,-94 316.26,-100 316.26,-100 316.26,-112 316.26,-112 316.26,-118 310.26,-124 304.26,-124"/>
<text xml:space="preserve" text-anchor="middle" x="236" y="-103" font-family="Helvetica,sans-Serif" font-size="10.00">matrix_entry_abs_le_l2_opNorm</text>
</a>
</g>
</g>
<!-- n45 -->
<g id="node34" class="node">
<title>n45</title>
<g id="a_node34"><a xlink:href="https://github.com/statopia/statlib/blob/main/Statlib/HighDim/Concentration/HansonWright.lean#L637" xlink:title="lemma · Statlib/HighDim/Concentration/HansonWright.lean:637" target="_blank">
<path fill="#eef2f6" stroke="#94a3b8" d="M266.08,-196C266.08,-196 167.92,-196 167.92,-196 161.92,-196 155.92,-190 155.92,-184 155.92,-184 155.92,-172 155.92,-172 155.92,-166 161.92,-160 167.92,-160 167.92,-160 266.08,-160 266.08,-160 272.08,-160 278.08,-166 278.08,-172 278.08,-172 278.08,-184 278.08,-184 278.08,-190 272.08,-196 266.08,-196"/>
<text xml:space="preserve" text-anchor="middle" x="217" y="-175" font-family="Helvetica,sans-Serif" font-size="10.00">diagPartMatrix_norm_le</text>
</a>
</g>
</g>
<!-- n45&#45;&gt;n43 -->
<g id="edge82" class="edge">
<title>n45&#45;&gt;n43</title>
<path fill="none" stroke="#64748b" d="M256.21,-159.52C277.84,-149.88 304.82,-137.84 327.5,-127.73"/>
<polygon fill="#64748b" stroke="#64748b" points="328.24,-130.09 333.63,-125 326.24,-125.61 328.24,-130.09"/>
</g>
<!-- n45&#45;&gt;n44 -->
<g id="edge83" class="edge">
<title>n45&#45;&gt;n44</title>
<path fill="none" stroke="#64748b" d="M221.7,-159.7C223.95,-151.39 226.7,-141.28 229.18,-132.14"/>
<polygon fill="#64748b" stroke="#64748b" points="231.49,-132.96 230.96,-125.57 226.76,-131.68 231.49,-132.96"/>
</g>
<!-- n46 -->
<g id="node35" class="node">
<title>n46</title>
<g id="a_node35"><a xlink:href="https://github.com/statopia/statlib/blob/main/Statlib/HighDim/Concentration/HansonWright.lean#L656" xlink:title="lemma · Statlib/HighDim/Concentration/HansonWright.lean:656" target="_blank">
<path fill="#eef2f6" stroke="#94a3b8" d="M290.03,-269.2C290.03,-269.2 167.97,-269.2 167.97,-269.2 161.97,-269.2 155.97,-263.2 155.97,-257.2 155.97,-257.2 155.97,-245.2 155.97,-245.2 155.97,-239.2 161.97,-233.2 167.97,-233.2 167.97,-233.2 290.03,-233.2 290.03,-233.2 296.03,-233.2 302.03,-239.2 302.03,-245.2 302.03,-245.2 302.03,-257.2 302.03,-257.2 302.03,-263.2 296.03,-269.2 290.03,-269.2"/>
<text xml:space="preserve" text-anchor="middle" x="229" y="-248.2" font-family="Helvetica,sans-Serif" font-size="10.00">zeroDiagMatrix_norm_le_two</text>
</a>
</g>
</g>
<!-- n46&#45;&gt;n40 -->
<g id="edge84" class="edge">
<title>n46&#45;&gt;n40</title>
<path fill="none" stroke="#64748b" d="M294.97,-232.78C298.56,-230.55 301.95,-228.03 305,-225.2 327.99,-203.87 309.43,-181.78 332,-160 335.59,-156.53 384.9,-138.52 424.42,-124.45"/>
<polygon fill="#64748b" stroke="#64748b" points="424.97,-126.85 430.75,-122.2 423.33,-122.24 424.97,-126.85"/>
</g>
<!-- n46&#45;&gt;n43 -->
<g id="edge85" class="edge">
<title>n46&#45;&gt;n43</title>
<path fill="none" stroke="#64748b" d="M277.82,-232.85C281.15,-230.59 284.27,-228.05 287,-225.2 308.49,-202.81 294.1,-185.35 312,-160 320.05,-148.6 331.09,-138.12 341.62,-129.55"/>
<polygon fill="#64748b" stroke="#64748b" points="342.91,-131.65 346.9,-125.4 339.88,-127.8 342.91,-131.65"/>
</g>
<!-- n46&#45;&gt;n45 -->
<g id="edge86" class="edge">
<title>n46&#45;&gt;n45</title>
<path fill="none" stroke="#64748b" d="M226.1,-232.96C224.65,-224.39 222.88,-213.87 221.28,-204.39"/>
<polygon fill="#64748b" stroke="#64748b" points="223.71,-204.06 220.13,-197.57 218.88,-204.88 223.71,-204.06"/>
</g>
<!-- n47 -->
<g id="node36" class="node">
<title>n47</title>
<g id="a_node36"><a xlink:href="https://github.com/statopia/statlib/blob/main/Statlib/HighDim/Concentration/HansonWright.lean#L685" xlink:title="lemma · Statlib/HighDim/Concentration/HansonWright.lean:685" target="_blank">
<path fill="#eef2f6" stroke="#94a3b8" d="M481.25,-341.2C481.25,-341.2 374.75,-341.2 374.75,-341.2 368.75,-341.2 362.75,-335.2 362.75,-329.2 362.75,-329.2 362.75,-317.2 362.75,-317.2 362.75,-311.2 368.75,-305.2 374.75,-305.2 374.75,-305.2 481.25,-305.2 481.25,-305.2 487.25,-305.2 493.25,-311.2 493.25,-317.2 493.25,-317.2 493.25,-329.2 493.25,-329.2 493.25,-335.2 487.25,-341.2 481.25,-341.2"/>
<text xml:space="preserve" text-anchor="middle" x="428" y="-320.2" font-family="Helvetica,sans-Serif" font-size="10.00">offDiagCoeffVec_norm_le</text>
</a>
</g>
</g>
<!-- n47&#45;&gt;n23 -->
<g id="edge87" class="edge">
<title>n47&#45;&gt;n23</title>
<path fill="none" stroke="#64748b" d="M469.4,-304.86C487.71,-295.93 508.73,-283.82 525,-269.2 539.49,-256.18 533.27,-243.18 550,-233.2 577.27,-216.93 593.59,-241.23 621,-225.2 651.84,-207.17 644.36,-186.78 668,-160 677.17,-149.61 688.14,-139.04 697.99,-130.1"/>
<polygon fill="#64748b" stroke="#64748b" points="699.57,-131.98 703.15,-125.49 696.3,-128.33 699.57,-131.98"/>
</g>
<!-- n47&#45;&gt;n40 -->
<g id="edge88" class="edge">
<title>n47&#45;&gt;n40</title>
<path fill="none" stroke="#64748b" d="M373.22,-304.79C356.72,-296.7 340.5,-285.21 331,-269.2 322.84,-255.44 328.87,-249.06 331,-233.2 335.48,-199.77 328.88,-185.46 351,-160 356.35,-153.85 392.76,-138.53 424.59,-125.93"/>
<polygon fill="#64748b" stroke="#64748b" points="425.11,-128.36 430.73,-123.52 423.31,-123.8 425.11,-128.36"/>
</g>
<!-- n47&#45;&gt;n42 -->
<g id="edge89" class="edge">
<title>n47&#45;&gt;n42</title>
<path fill="none" stroke="#64748b" d="M428,-304.9C428,-296.67 428,-286.68 428,-277.62"/>
<polygon fill="#64748b" stroke="#64748b" points="430.45,-277.82 428,-270.82 425.55,-277.82 430.45,-277.82"/>
</g>
<!-- n47&#45;&gt;n46 -->
<g id="edge90" class="edge">
<title>n47&#45;&gt;n46</title>
<path fill="none" stroke="#64748b" d="M378.3,-304.72C350.41,-294.91 315.5,-282.63 286.44,-272.41"/>
<polygon fill="#64748b" stroke="#64748b" points="287.26,-270.1 279.84,-270.08 285.63,-274.72 287.26,-270.1"/>
</g>
<!-- n48 -->
<g id="node37" class="node">
<title>n48</title>
<g id="a_node37"><a xlink:href="https://github.com/statopia/statlib/blob/main/Statlib/HighDim/Concentration/HansonWright.lean#L704" xlink:title="lemma · Statlib/HighDim/Concentration/HansonWright.lean:704" target="_blank">
<path fill="#eef2f6" stroke="#94a3b8" d="M544.31,-413.2C544.31,-413.2 421.69,-413.2 421.69,-413.2 415.69,-413.2 409.69,-407.2 409.69,-401.2 409.69,-401.2 409.69,-389.2 409.69,-389.2 409.69,-383.2 415.69,-377.2 421.69,-377.2 421.69,-377.2 544.31,-377.2 544.31,-377.2 550.31,-377.2 556.31,-383.2 556.31,-389.2 556.31,-389.2 556.31,-401.2 556.31,-401.2 556.31,-407.2 550.31,-413.2 544.31,-413.2"/>
<text xml:space="preserve" text-anchor="middle" x="483" y="-392.2" font-family="Helvetica,sans-Serif" font-size="10.00">offDiagCoeffVec_norm_sq_le</text>
</a>
</g>
</g>
<!-- n48&#45;&gt;n23 -->
<g id="edge91" class="edge">
<title>n48&#45;&gt;n23</title>
<path fill="none" stroke="#64748b" d="M488.97,-376.78C501.64,-342.75 534.64,-267.79 590,-233.2 612.82,-218.95 627.61,-240.12 650,-225.2 677.91,-206.6 669.94,-188.26 688,-160 694.1,-150.45 701.15,-140.18 707.44,-131.26"/>
<polygon fill="#64748b" stroke="#64748b" points="709.37,-132.78 711.42,-125.66 705.37,-129.94 709.37,-132.78"/>
</g>
<!-- n48&#45;&gt;n47 -->
<g id="edge92" class="edge">
<title>n48&#45;&gt;n47</title>
<path fill="none" stroke="#64748b" d="M469.4,-376.9C462.54,-368.17 454.12,-357.44 446.66,-347.95"/>
<polygon fill="#64748b" stroke="#64748b" points="448.63,-346.49 442.37,-342.49 444.77,-349.51 448.63,-346.49"/>
</g>
<!-- n49 -->
<g id="node38" class="node">
<title>n49</title>
<g id="a_node38"><a xlink:href="https://github.com/statopia/statlib/blob/main/Statlib/HighDim/Concentration/HansonWright.lean#L1122" xlink:title="lemma · Statlib/HighDim/Concentration/HansonWright.lean:1122" target="_blank">
<path fill="#eef2f6" stroke="#94a3b8" d="M667.72,-485.2C667.72,-485.2 482.28,-485.2 482.28,-485.2 476.28,-485.2 470.28,-479.2 470.28,-473.2 470.28,-473.2 470.28,-461.2 470.28,-461.2 470.28,-455.2 476.28,-449.2 482.28,-449.2 482.28,-449.2 667.72,-449.2 667.72,-449.2 673.72,-449.2 679.72,-455.2 679.72,-461.2 679.72,-461.2 679.72,-473.2 679.72,-473.2 679.72,-479.2 673.72,-485.2 667.72,-485.2"/>
<text xml:space="preserve" text-anchor="middle" x="575" y="-464.2" font-family="Helvetica,sans-Serif" font-size="10.00">offDiagCoeffVec_norm_sq_tail_le_norm_sq</text>
</a>
</g>
</g>
<!-- n49&#45;&gt;n23 -->
<g id="edge93" class="edge">
<title>n49&#45;&gt;n23</title>
<path fill="none" stroke="#64748b" d="M575.01,-448.89C575.42,-400.11 579.33,-263.12 610,-233.2 630.52,-213.18 651.07,-242.41 674,-225.2 689.51,-213.56 707.42,-163.41 717.35,-132.29"/>
<polygon fill="#64748b" stroke="#64748b" points="719.6,-133.3 719.37,-125.89 714.93,-131.83 719.6,-133.3"/>
</g>
<!-- n49&#45;&gt;n48 -->
<g id="edge94" class="edge">
<title>n49&#45;&gt;n48</title>
<path fill="none" stroke="#64748b" d="M552.26,-448.9C540.21,-439.73 525.26,-428.36 512.34,-418.53"/>
<polygon fill="#64748b" stroke="#64748b" points="514.06,-416.75 507,-414.46 511.09,-420.65 514.06,-416.75"/>
</g>
<!-- n50 -->
<g id="node39" class="node">
<title>n50</title>
<g id="a_node39"><a xlink:href="https://github.com/statopia/statlib/blob/main/Statlib/HighDim/Concentration/HansonWright.lean#L1154" xlink:title="lemma · Statlib/HighDim/Concentration/HansonWright.lean:1154" target="_blank">
<path fill="#eef2f6" stroke="#94a3b8" d="M1153.71,-557.2C1153.71,-557.2 874.29,-557.2 874.29,-557.2 868.29,-557.2 862.29,-551.2 862.29,-545.2 862.29,-545.2 862.29,-533.2 862.29,-533.2 862.29,-527.2 868.29,-521.2 874.29,-521.2 874.29,-521.2 1153.71,-521.2 1153.71,-521.2 1159.71,-521.2 1165.71,-527.2 1165.71,-533.2 1165.71,-533.2 1165.71,-545.2 1165.71,-545.2 1165.71,-551.2 1159.71,-557.2 1153.71,-557.2"/>
<text xml:space="preserve" text-anchor="middle" x="1014" y="-536.2" font-family="Helvetica,sans-Serif" font-size="10.00">decoupledOffDiagQuadForm_prod_tail_le_norm_bad_plus_good</text>
</a>
</g>
</g>
<!-- n50&#45;&gt;n0 -->
<g id="edge95" class="edge">
<title>n50&#45;&gt;n0</title>
<path fill="none" stroke="#64748b" d="M1166,-528.99C1262.13,-515.9 1383.54,-485.07 1467,-413.2 1506.8,-378.92 1480.97,-345.21 1515,-305.2 1533.93,-282.94 1547.59,-287.95 1570,-269.2 1586.88,-255.08 1584.02,-242.42 1604,-233.2 1635.72,-218.56 1726.58,-231.18 1761,-225.2 1794.11,-219.45 1830.14,-208.8 1858.91,-199.17"/>
<polygon fill="#64748b" stroke="#64748b" points="1859.55,-201.54 1865.39,-196.97 1857.97,-196.9 1859.55,-201.54"/>
</g>
<!-- n50&#45;&gt;n2 -->
<g id="edge96" class="edge">
<title>n50&#45;&gt;n2</title>
<path fill="none" stroke="#64748b" d="M861.99,-528.86C610.92,-511.38 137,-468.77 137,-396.2 137,-396.2 137,-396.2 137,-177 137,-137.2 118.47,-115.76 147,-88 185.3,-50.73 531.88,-39.46 692.25,-36.23"/>
<polygon fill="#64748b" stroke="#64748b" points="692.22,-38.68 699.17,-36.09 692.12,-33.78 692.22,-38.68"/>
</g>
<!-- n50&#45;&gt;n39 -->
<g id="edge97" class="edge">
<title>n50&#45;&gt;n39</title>
<path fill="none" stroke="#64748b" d="M1014,-520.9C1014,-512.67 1014,-502.68 1014,-493.62"/>
<polygon fill="#64748b" stroke="#64748b" points="1016.45,-493.82 1014,-486.82 1011.55,-493.82 1016.45,-493.82"/>
</g>
<!-- n50&#45;&gt;n49 -->
<g id="edge98" class="edge">
<title>n50&#45;&gt;n49</title>
<path fill="none" stroke="#64748b" d="M904.35,-520.72C838.34,-510.19 754.47,-496.82 687.88,-486.2"/>
<polygon fill="#64748b" stroke="#64748b" points="688.64,-483.84 681.34,-485.16 687.87,-488.68 688.64,-483.84"/>
</g>
<!-- n51 -->
<g id="node40" class="node">
<title>n51</title>
<g id="a_node40"><a xlink:href="https://github.com/statopia/statlib/blob/main/Statlib/HighDim/Concentration/HansonWright.lean#L2432" xlink:title="lemma · Statlib/HighDim/Concentration/HansonWright.lean:2432" target="_blank">
<path fill="#eef2f6" stroke="#94a3b8" d="M1552.17,-629.2C1552.17,-629.2 1213.83,-629.2 1213.83,-629.2 1207.83,-629.2 1201.83,-623.2 1201.83,-617.2 1201.83,-617.2 1201.83,-605.2 1201.83,-605.2 1201.83,-599.2 1207.83,-593.2 1213.83,-593.2 1213.83,-593.2 1552.17,-593.2 1552.17,-593.2 1558.17,-593.2 1564.17,-599.2 1564.17,-605.2 1564.17,-605.2 1564.17,-617.2 1564.17,-617.2 1564.17,-623.2 1558.17,-629.2 1552.17,-629.2"/>
<text xml:space="preserve" text-anchor="middle" x="1383" y="-608.2" font-family="Helvetica,sans-Serif" font-size="10.00">decoupledOffDiagQuadForm_prod_tail_le_norm_bernstein_plus_good_ofReal</text>
</a>
</g>
</g>
<!-- n51&#45;&gt;n0 -->
<g id="edge99" class="edge">
<title>n51&#45;&gt;n0</title>
<path fill="none" stroke="#64748b" d="M1392.09,-592.93C1409.97,-558.82 1450.78,-480.27 1483,-413.2 1494.41,-389.44 1514.46,-324.87 1532,-305.2 1552.7,-281.99 1568.91,-290.03 1592,-269.2 1606.85,-255.81 1601.37,-242.64 1619,-233.2 1646.86,-218.28 1729.88,-230.7 1761,-225.2 1794.09,-219.36 1830.12,-208.7 1858.89,-199.1"/>
<polygon fill="#64748b" stroke="#64748b" points="1859.53,-201.47 1865.38,-196.9 1857.96,-196.83 1859.53,-201.47"/>
</g>
<!-- n51&#45;&gt;n2 -->
<g id="edge100" class="edge">
<title>n51&#45;&gt;n2</title>
<path fill="none" stroke="#64748b" d="M1201.61,-608.22C851.55,-601.97 117,-576.02 117,-468.2 117,-468.2 117,-468.2 117,-177 117,-137.2 98.43,-115.72 127,-88 166.81,-49.37 528.51,-38.81 692.64,-35.99"/>
<polygon fill="#64748b" stroke="#64748b" points="692.31,-38.45 699.27,-35.88 692.23,-33.55 692.31,-38.45"/>
</g>
<!-- n51&#45;&gt;n22 -->
<g id="edge101" class="edge">
<title>n51&#45;&gt;n22</title>
<path fill="none" stroke="#64748b" d="M1445.19,-592.72C1480.68,-582.74 1525.27,-570.2 1561.98,-559.88"/>
<polygon fill="#64748b" stroke="#64748b" points="1562.64,-562.24 1568.71,-557.99 1561.31,-557.53 1562.64,-562.24"/>
</g>
<!-- n51&#45;&gt;n50 -->
<g id="edge102" class="edge">
<title>n51&#45;&gt;n50</title>
<path fill="none" stroke="#64748b" d="M1290.84,-592.72C1237.02,-582.51 1169.09,-569.62 1113.98,-559.17"/>
<polygon fill="#64748b" stroke="#64748b" points="1114.77,-556.82 1107.43,-557.92 1113.85,-561.64 1114.77,-556.82"/>
</g>
<!-- n52 -->
<g id="node41" class="node">
<title>n52</title>
<g id="a_node41"><a xlink:href="https://github.com/statopia/statlib/blob/main/Statlib/HighDim/Concentration/HansonWright.lean#L2507" xlink:title="lemma · Statlib/HighDim/Concentration/HansonWright.lean:2507" target="_blank">
<path fill="#eef2f6" stroke="#94a3b8" d="M1519.93,-701.2C1519.93,-701.2 1246.07,-701.2 1246.07,-701.2 1240.07,-701.2 1234.07,-695.2 1234.07,-689.2 1234.07,-689.2 1234.07,-677.2 1234.07,-677.2 1234.07,-671.2 1240.07,-665.2 1246.07,-665.2 1246.07,-665.2 1519.93,-665.2 1519.93,-665.2 1525.93,-665.2 1531.93,-671.2 1531.93,-677.2 1531.93,-677.2 1531.93,-689.2 1531.93,-689.2 1531.93,-695.2 1525.93,-701.2 1519.93,-701.2"/>
<text xml:space="preserve" text-anchor="middle" x="1383" y="-680.2" font-family="Helvetica,sans-Serif" font-size="10.00">decoupled_zeroDiag_quadratic_form_tail_high_norm_bernstein</text>
</a>
</g>
</g>
<!-- n52&#45;&gt;n0 -->
<g id="edge103" class="edge">
<title>n52&#45;&gt;n0</title>
<path fill="none" stroke="#64748b" d="M1532.28,-668.69C1609.03,-653.68 1697.27,-622.33 1750,-557.2 1821.59,-468.78 1751.06,-410.14 1795,-305.2 1802.57,-287.11 1832.53,-247.45 1846,-233.2 1856.94,-221.63 1870.4,-210.39 1882.46,-201.18"/>
<polygon fill="#64748b" stroke="#64748b" points="1883.65,-203.35 1887.78,-197.19 1880.71,-199.43 1883.65,-203.35"/>
</g>
<!-- n52&#45;&gt;n2 -->
<g id="edge104" class="edge">
<title>n52&#45;&gt;n2</title>
<path fill="none" stroke="#64748b" d="M1233.59,-681.03C894.72,-676.38 97,-653.42 97,-540.2 97,-540.2 97,-540.2 97,-177 97,-137.2 78.4,-115.69 107,-88 148.26,-48.06 524.22,-38.2 692.37,-35.78"/>
<polygon fill="#64748b" stroke="#64748b" points="692.22,-38.23 699.19,-35.68 692.15,-33.33 692.22,-38.23"/>
</g>
<!-- n52&#45;&gt;n51 -->
<g id="edge105" class="edge">
<title>n52&#45;&gt;n51</title>
<path fill="none" stroke="#64748b" d="M1383,-664.9C1383,-656.67 1383,-646.68 1383,-637.62"/>
<polygon fill="#64748b" stroke="#64748b" points="1385.45,-637.82 1383,-630.82 1380.55,-637.82 1385.45,-637.82"/>
</g>
<!-- n53 -->
<g id="node42" class="node">
<title>n53</title>
<g id="a_node42"><a xlink:href="https://github.com/statopia/statlib/blob/main/Statlib/HighDim/Concentration/HansonWright.lean#L2541" xlink:title="lemma · Statlib/HighDim/Concentration/HansonWright.lean:2541" target="_blank">
<path fill="#eef2f6" stroke="#94a3b8" d="M1537.99,-773.2C1537.99,-773.2 1228.01,-773.2 1228.01,-773.2 1222.01,-773.2 1216.01,-767.2 1216.01,-761.2 1216.01,-761.2 1216.01,-749.2 1216.01,-749.2 1216.01,-743.2 1222.01,-737.2 1228.01,-737.2 1228.01,-737.2 1537.99,-737.2 1537.99,-737.2 1543.99,-737.2 1549.99,-743.2 1549.99,-749.2 1549.99,-749.2 1549.99,-761.2 1549.99,-761.2 1549.99,-767.2 1543.99,-773.2 1537.99,-773.2"/>
<text xml:space="preserve" text-anchor="middle" x="1383" y="-752.2" font-family="Helvetica,sans-Serif" font-size="10.00">decoupled_zeroDiag_quadratic_form_tail_high_norm_bernstein_absorb</text>
</a>
</g>
</g>
<!-- n53&#45;&gt;n0 -->
<g id="edge106" class="edge">
<title>n53&#45;&gt;n0</title>
<path fill="none" stroke="#64748b" d="M1501.89,-736.75C1546.8,-728.4 1597.93,-716.76 1643,-701.2 1710.64,-677.85 1745.01,-687.14 1787,-629.2 1829.71,-570.26 1783.32,-356.45 1835,-305.2 1917.21,-223.68 2017,-356.54 2093,-269.2 2103.5,-257.13 2103.92,-244.89 2093,-233.2 2084.03,-223.6 1987.31,-229.8 1975,-225.2 1961.3,-220.07 1948.09,-210.81 1937.5,-201.91"/>
<polygon fill="#64748b" stroke="#64748b" points="1939.28,-200.21 1932.39,-197.46 1936.05,-203.91 1939.28,-200.21"/>
</g>
<!-- n53&#45;&gt;n1 -->
<g id="edge107" class="edge">
<title>n53&#45;&gt;n1</title>
<path fill="none" stroke="#64748b" d="M1519.96,-736.73C1589.86,-727.27 1676.15,-714.75 1753,-701.2 1761.36,-699.72 1770.18,-698.02 1778.8,-696.28"/>
<polygon fill="#64748b" stroke="#64748b" points="1779.14,-698.71 1785.5,-694.91 1778.15,-693.91 1779.14,-698.71"/>
</g>
<!-- n53&#45;&gt;n2 -->
<g id="edge108" class="edge">
<title>n53&#45;&gt;n2</title>
<path fill="none" stroke="#64748b" d="M1215.6,-753.07C863.2,-748.45 77,-725.45 77,-612.2 77,-612.2 77,-612.2 77,-177 77,-137.2 58.37,-115.65 87,-88 129.74,-46.72 520.52,-37.59 692.45,-35.57"/>
<polygon fill="#64748b" stroke="#64748b" points="692.24,-38.03 699.21,-35.5 692.18,-33.13 692.24,-38.03"/>
</g>
<!-- n53&#45;&gt;n52 -->
<g id="edge109" class="edge">
<title>n53&#45;&gt;n52</title>
<path fill="none" stroke="#64748b" d="M1383,-736.9C1383,-728.67 1383,-718.68 1383,-709.62"/>
<polygon fill="#64748b" stroke="#64748b" points="1385.45,-709.82 1383,-702.82 1380.55,-709.82 1385.45,-709.82"/>
</g>
<!-- n54 -->
<g id="node43" class="node">
<title>n54</title>
<g id="a_node43"><a xlink:href="https://github.com/statopia/statlib/blob/main/Statlib/HighDim/Concentration/HansonWright.lean#L1507" xlink:title="lemma · Statlib/HighDim/Concentration/HansonWright.lean:1507" target="_blank">
<path fill="#eef2f6" stroke="#94a3b8" d="M1699.95,-773.2C1699.95,-773.2 1580.05,-773.2 1580.05,-773.2 1574.05,-773.2 1568.05,-767.2 1568.05,-761.2 1568.05,-761.2 1568.05,-749.2 1568.05,-749.2 1568.05,-743.2 1574.05,-737.2 1580.05,-737.2 1580.05,-737.2 1699.95,-737.2 1699.95,-737.2 1705.95,-737.2 1711.95,-743.2 1711.95,-749.2 1711.95,-749.2 1711.95,-761.2 1711.95,-761.2 1711.95,-767.2 1705.95,-773.2 1699.95,-773.2"/>
<text xml:space="preserve" text-anchor="middle" x="1640" y="-752.2" font-family="Helvetica,sans-Serif" font-size="10.00">add_le_of_le_half_of_le_half</text>
</a>
</g>
</g>
<!-- n55 -->
<g id="node44" class="node">
<title>n55</title>
<g id="a_node44"><a xlink:href="https://github.com/statopia/statlib/blob/main/Statlib/HighDim/Concentration/HansonWright.lean#L2582" xlink:title="lemma · Statlib/HighDim/Concentration/HansonWright.lean:2582" target="_blank">
<path fill="#eef2f6" stroke="#94a3b8" d="M1549.67,-845.2C1549.67,-845.2 1216.33,-845.2 1216.33,-845.2 1210.33,-845.2 1204.33,-839.2 1204.33,-833.2 1204.33,-833.2 1204.33,-821.2 1204.33,-821.2 1204.33,-815.2 1210.33,-809.2 1216.33,-809.2 1216.33,-809.2 1549.67,-809.2 1549.67,-809.2 1555.67,-809.2 1561.67,-815.2 1561.67,-821.2 1561.67,-821.2 1561.67,-833.2 1561.67,-833.2 1561.67,-839.2 1555.67,-845.2 1549.67,-845.2"/>
<text xml:space="preserve" text-anchor="middle" x="1383" y="-824.2" font-family="Helvetica,sans-Serif" font-size="10.00">decoupled_zeroDiag_quadratic_form_tail_high_norm_bernstein_absorb_split</text>
</a>
</g>
</g>
<!-- n55&#45;&gt;n0 -->
<g id="edge110" class="edge">
<title>n55&#45;&gt;n0</title>
<path fill="none" stroke="#64748b" d="M1534.74,-808.72C1617.04,-798.12 1705.17,-784.51 1721,-773.2 1765.16,-741.65 1751.65,-712.65 1778,-665.2 1786.99,-649.01 1791.18,-645.99 1799,-629.2 1863.59,-490.55 1798.87,-404.73 1915,-305.2 1979.26,-250.12 2048.11,-334.46 2102,-269.2 2112.19,-256.86 2112.95,-244.86 2102,-233.2 2092.32,-222.89 1988.25,-230.12 1975,-225.2 1961.28,-220.11 1948.08,-210.84 1937.48,-201.94"/>
<polygon fill="#64748b" stroke="#64748b" points="1939.26,-200.25 1932.38,-197.48 1936.04,-203.94 1939.26,-200.25"/>
</g>
<!-- n55&#45;&gt;n1 -->
<g id="edge111" class="edge">
<title>n55&#45;&gt;n1</title>
<path fill="none" stroke="#64748b" d="M1560.51,-808.7C1654.4,-798.26 1754.15,-784.82 1773,-773.2 1797.18,-758.29 1814.11,-729.82 1823.91,-709.08"/>
<polygon fill="#64748b" stroke="#64748b" points="1826.03,-710.33 1826.69,-702.94 1821.57,-708.31 1826.03,-710.33"/>
</g>
<!-- n55&#45;&gt;n2 -->
<g id="edge112" class="edge">
<title>n55&#45;&gt;n2</title>
<path fill="none" stroke="#64748b" d="M1203.87,-820.24C911.78,-808.46 347,-776.49 163,-701.2 106.07,-677.9 57,-673.72 57,-612.2 57,-612.2 57,-612.2 57,-177 57,-137.2 38.34,-115.62 67,-88 111.22,-45.39 516.67,-37.01 692.39,-35.38"/>
<polygon fill="#64748b" stroke="#64748b" points="692.35,-37.83 699.33,-35.32 692.3,-32.93 692.35,-37.83"/>
</g>
<!-- n55&#45;&gt;n53 -->
<g id="edge113" class="edge">
<title>n55&#45;&gt;n53</title>
<path fill="none" stroke="#64748b" d="M1383,-808.9C1383,-800.67 1383,-790.68 1383,-781.62"/>
<polygon fill="#64748b" stroke="#64748b" points="1385.45,-781.82 1383,-774.82 1380.55,-781.82 1385.45,-781.82"/>
</g>
<!-- n55&#45;&gt;n54 -->
<g id="edge114" class="edge">
<title>n55&#45;&gt;n54</title>
<path fill="none" stroke="#64748b" d="M1447.19,-808.72C1483.97,-798.7 1530.23,-786.1 1568.21,-775.75"/>
<polygon fill="#64748b" stroke="#64748b" points="1568.61,-778.18 1574.72,-773.98 1567.33,-773.46 1568.61,-778.18"/>
</g>
<!-- n56 -->
<g id="node45" class="node">
<title>n56</title>
<g id="a_node45"><a xlink:href="https://github.com/statopia/statlib/blob/main/Statlib/HighDim/Concentration/HansonWright.lean#L1599" xlink:title="lemma · Statlib/HighDim/Concentration/HansonWright.lean:1599" target="_blank">
<path fill="#eef2f6" stroke="#94a3b8" d="M1806.48,-845.2C1806.48,-845.2 1591.52,-845.2 1591.52,-845.2 1585.52,-845.2 1579.52,-839.2 1579.52,-833.2 1579.52,-833.2 1579.52,-821.2 1579.52,-821.2 1579.52,-815.2 1585.52,-809.2 1591.52,-809.2 1591.52,-809.2 1806.48,-809.2 1806.48,-809.2 1812.48,-809.2 1818.48,-815.2 1818.48,-821.2 1818.48,-821.2 1818.48,-833.2 1818.48,-833.2 1818.48,-839.2 1812.48,-845.2 1806.48,-845.2"/>
<text xml:space="preserve" text-anchor="middle" x="1699" y="-824.2" font-family="Helvetica,sans-Serif" font-size="10.00">two_mul_exp_neg_le_half_exp_neg_hanson_high</text>
</a>
</g>
</g>
<!-- n57 -->
<g id="node46" class="node">
<title>n57</title>
<g id="a_node46"><a xlink:href="https://github.com/statopia/statlib/blob/main/Statlib/HighDim/Concentration/HansonWright.lean#L2626" xlink:title="lemma · Statlib/HighDim/Concentration/HansonWright.lean:2626" target="_blank">
<path fill="#eef2f6" stroke="#94a3b8" d="M1708.8,-917.2C1708.8,-917.2 1333.2,-917.2 1333.2,-917.2 1327.2,-917.2 1321.2,-911.2 1321.2,-905.2 1321.2,-905.2 1321.2,-893.2 1321.2,-893.2 1321.2,-887.2 1327.2,-881.2 1333.2,-881.2 1333.2,-881.2 1708.8,-881.2 1708.8,-881.2 1714.8,-881.2 1720.8,-887.2 1720.8,-893.2 1720.8,-893.2 1720.8,-905.2 1720.8,-905.2 1720.8,-911.2 1714.8,-917.2 1708.8,-917.2"/>
<text xml:space="preserve" text-anchor="middle" x="1521" y="-896.2" font-family="Helvetica,sans-Serif" font-size="10.00">decoupled_zeroDiag_quadratic_form_tail_high_norm_bernstein_absorb_of_exponents</text>
</a>
</g>
</g>
<!-- n57&#45;&gt;n0 -->
<g id="edge115" class="edge">
<title>n57&#45;&gt;n0</title>
<path fill="none" stroke="#64748b" d="M1720.89,-881.35C1773.35,-873.41 1820.89,-861.86 1841,-845.2 1899.69,-796.58 1900,-760.41 1900,-684.2 1900,-684.2 1900,-684.2 1900,-466.2 1900,-393.33 1879.03,-356.28 1931,-305.2 1997.28,-240.05 2077.2,-340.35 2137,-269.2 2147.29,-256.95 2148.03,-244.79 2137,-233.2 2124.57,-220.15 1991.94,-231.36 1975,-225.2 1961.15,-220.16 1947.84,-210.81 1937.21,-201.83"/>
<polygon fill="#64748b" stroke="#64748b" points="1938.97,-200.12 1932.09,-197.33 1935.73,-203.79 1938.97,-200.12"/>
</g>
<!-- n57&#45;&gt;n1 -->
<g id="edge116" class="edge">
<title>n57&#45;&gt;n1</title>
<path fill="none" stroke="#64748b" d="M1721.13,-883.03C1769.11,-875.18 1811.11,-863.27 1827,-845.2 1859.93,-807.76 1850.4,-744.42 1841.57,-709.39"/>
<polygon fill="#64748b" stroke="#64748b" points="1844.04,-709.14 1839.88,-703 1839.31,-710.4 1844.04,-709.14"/>
</g>
<!-- n57&#45;&gt;n2 -->
<g id="edge117" class="edge">
<title>n57&#45;&gt;n2</title>
<path fill="none" stroke="#64748b" d="M1320.86,-889.77C915.79,-870.02 37,-812.4 37,-684.2 37,-684.2 37,-684.2 37,-177 37,-137.2 18.31,-115.59 47,-88 92.7,-44.05 512.92,-36.44 692.37,-35.2"/>
<polygon fill="#64748b" stroke="#64748b" points="692.24,-37.65 699.22,-35.15 692.21,-32.75 692.24,-37.65"/>
</g>
<!-- n57&#45;&gt;n55 -->
<g id="edge118" class="edge">
<title>n57&#45;&gt;n55</title>
<path fill="none" stroke="#64748b" d="M1486.53,-880.72C1467.7,-871.17 1444.25,-859.27 1424.43,-849.21"/>
<polygon fill="#64748b" stroke="#64748b" points="1425.73,-847.13 1418.38,-846.15 1423.51,-851.5 1425.73,-847.13"/>
</g>
<!-- n57&#45;&gt;n56 -->
<g id="edge119" class="edge">
<title>n57&#45;&gt;n56</title>
<path fill="none" stroke="#64748b" d="M1565.46,-880.72C1590.19,-870.99 1621.1,-858.84 1646.95,-848.67"/>
<polygon fill="#64748b" stroke="#64748b" points="1647.77,-850.98 1653.39,-846.14 1645.98,-846.42 1647.77,-850.98"/>
</g>
<!-- n58 -->
<g id="node47" class="node">
<title>n58</title>
<g id="a_node47"><a xlink:href="https://github.com/statopia/statlib/blob/main/Statlib/HighDim/Concentration/HansonWright.lean#L2697" xlink:title="lemma · Statlib/HighDim/Concentration/HansonWright.lean:2697" target="_blank">
<path fill="#eef2f6" stroke="#94a3b8" stroke-width="3" d="M1057.75,-989.2C1057.75,-989.2 680.25,-989.2 680.25,-989.2 674.25,-989.2 668.25,-983.2 668.25,-977.2 668.25,-977.2 668.25,-965.2 668.25,-965.2 668.25,-959.2 674.25,-953.2 680.25,-953.2 680.25,-953.2 1057.75,-953.2 1057.75,-953.2 1063.75,-953.2 1069.75,-959.2 1069.75,-965.2 1069.75,-965.2 1069.75,-977.2 1069.75,-977.2 1069.75,-983.2 1063.75,-989.2 1057.75,-989.2"/>
<text xml:space="preserve" text-anchor="middle" x="869" y="-968.2" font-family="Helvetica,sans-Serif" font-size="10.00">decoupled_zeroDiag_quadratic_form_tail_high_norm_bernstein_absorb_of_exponents&#39;</text>
</a>
</g>
</g>
<!-- n58&#45;&gt;n0 -->
<g id="edge120" class="edge">
<title>n58&#45;&gt;n0</title>
<path fill="none" stroke="#64748b" d="M887.94,-951.86C936.34,-906.29 1070.36,-787.92 1207,-737.2 1346.97,-685.24 1397.41,-742.09 1541,-701.2 1612.12,-680.95 1630.23,-671.34 1691,-629.2 1728.97,-602.87 1741.8,-596.56 1766,-557.2 1825.66,-460.14 1772.54,-411.71 1813,-305.2 1813.03,-305.13 1860.95,-233.26 1861,-233.2 1869.7,-222.46 1880.18,-211.42 1889.52,-202.12"/>
<polygon fill="#64748b" stroke="#64748b" points="1891.1,-204 1894.38,-197.35 1887.67,-200.5 1891.1,-204"/>
</g>
<!-- n58&#45;&gt;n1 -->
<g id="edge121" class="edge">
<title>n58&#45;&gt;n1</title>
<path fill="none" stroke="#64748b" d="M1071.11,-969.57C1286.44,-966.8 1612.21,-956.03 1730,-917.2 1785.85,-898.79 1808.43,-894.16 1841,-845.2 1867.78,-804.95 1862.68,-784.76 1854,-737.2 1852.27,-727.72 1848.93,-717.73 1845.47,-709.01"/>
<polygon fill="#64748b" stroke="#64748b" points="1847.84,-708.33 1842.89,-702.81 1843.32,-710.21 1847.84,-708.33"/>
</g>
<!-- n58&#45;&gt;n2 -->
<g id="edge122" class="edge">
<title>n58&#45;&gt;n2</title>
<path fill="none" stroke="#64748b" d="M666.82,-956.23C414.86,-936.04 17,-893.78 17,-828.2 17,-828.2 17,-828.2 17,-177 17,-137.2 -1.72,-115.56 27,-88 74.19,-42.7 509.39,-35.88 692.46,-35.02"/>
<polygon fill="#64748b" stroke="#64748b" points="692.21,-37.48 699.2,-35 692.19,-32.58 692.21,-37.48"/>
</g>
<!-- n58&#45;&gt;n57 -->
<g id="edge123" class="edge">
<title>n58&#45;&gt;n57</title>
<path fill="none" stroke="#64748b" d="M1041.16,-951.72C1136.57,-941.47 1254.78,-928.78 1350,-918.56"/>
<polygon fill="#64748b" stroke="#64748b" points="1350.07,-921.02 1356.76,-917.83 1349.54,-916.14 1350.07,-921.02"/>
</g>
<!-- n11 -->
<g id="node50" class="node">
<title>n11</title>
<g id="a_node50"><a xlink:href="https://github.com/statopia/statlib/blob/main/Statlib/StatFoundation/RandomVariable/SubGaussian/subgaussian_meas_abs_ge_le_two_exp.lean#L9" xlink:title="theorem · Statlib/StatFoundation/RandomVariable/SubGaussian/subgaussian_meas_abs_ge_le_two_exp.lean:9" target="_blank">
<path fill="#ffe6a3" stroke="#d4a017" d="M2839.34,-52C2839.34,-52 2666.66,-52 2666.66,-52 2660.66,-52 2654.66,-46 2654.66,-40 2654.66,-40 2654.66,-28 2654.66,-28 2654.66,-22 2660.66,-16 2666.66,-16 2666.66,-16 2839.34,-16 2839.34,-16 2845.34,-16 2851.34,-22 2851.34,-28 2851.34,-28 2851.34,-40 2851.34,-40 2851.34,-46 2845.34,-52 2839.34,-52"/>
<text xml:space="preserve" text-anchor="middle" x="2753" y="-31" font-family="Helvetica,sans-Serif" font-size="10.00">subgaussian_meas_abs_ge_le_two_exp</text>
</a>
</g>
</g>
<!-- n12&#45;&gt;n11 -->
<g id="edge12" class="edge">
<title>n12&#45;&gt;n11</title>
<path fill="none" stroke="#64748b" d="M2624.71,-87.52C2648.36,-77.83 2677.91,-65.74 2702.68,-55.6"/>
<polygon fill="#64748b" stroke="#64748b" points="2703.59,-57.87 2709.14,-52.96 2701.73,-53.34 2703.59,-57.87"/>
</g>
<!-- n14 -->
<g id="node52" class="node">
<title>n14</title>
<g id="a_node52"><a xlink:href="https://github.com/statopia/statlib/blob/main/Statlib/StatFoundation/RandomVariable/SubExponential/subexp_mgf_le_of_sq_subgaussian.lean#L13" xlink:title="lemma · Statlib/StatFoundation/RandomVariable/SubExponential/subexp_mgf_le_of_sq_subgaussian.lean:13" target="_blank">
<path fill="#eef2f6" stroke="#94a3b8" d="M2803.2,-124C2803.2,-124 2722.8,-124 2722.8,-124 2716.8,-124 2710.8,-118 2710.8,-112 2710.8,-112 2710.8,-100 2710.8,-100 2710.8,-94 2716.8,-88 2722.8,-88 2722.8,-88 2803.2,-88 2803.2,-88 2809.2,-88 2815.2,-94 2815.2,-100 2815.2,-100 2815.2,-112 2815.2,-112 2815.2,-118 2809.2,-124 2803.2,-124"/>
<text xml:space="preserve" text-anchor="middle" x="2763" y="-103" font-family="Helvetica,sans-Serif" font-size="10.00">sub_gauss_tail_abs</text>
</a>
</g>
</g>
<!-- n15 -->
<g id="node53" class="node">
<title>n15</title>
<g id="a_node53"><a xlink:href="https://github.com/statopia/statlib/blob/main/Statlib/StatFoundation/RandomVariable/SubGaussian/sq_le_two_mul_exp.lean#L10" xlink:title="lemma · Statlib/StatFoundation/RandomVariable/SubGaussian/sq_le_two_mul_exp.lean:10" target="_blank">
<path fill="#eef2f6" stroke="#94a3b8" d="M3127.19,-124C3127.19,-124 3046.81,-124 3046.81,-124 3040.81,-124 3034.81,-118 3034.81,-112 3034.81,-112 3034.81,-100 3034.81,-100 3034.81,-94 3040.81,-88 3046.81,-88 3046.81,-88 3127.19,-88 3127.19,-88 3133.19,-88 3139.19,-94 3139.19,-100 3139.19,-100 3139.19,-112 3139.19,-112 3139.19,-118 3133.19,-124 3127.19,-124"/>
<text xml:space="preserve" text-anchor="middle" x="3087" y="-103" font-family="Helvetica,sans-Serif" font-size="10.00">sq_le_two_mul_exp</text>
</a>
</g>
</g>
<!-- n16 -->
<g id="node54" class="node">
<title>n16</title>
<g id="a_node54"><a xlink:href="https://github.com/statopia/statlib/blob/main/Statlib/StatFoundation/RandomVariable/SubGaussian/subgaussian_exp_sq_le_at_one_third.lean#L14" xlink:title="theorem · Statlib/StatFoundation/RandomVariable/SubGaussian/subgaussian_exp_sq_le_at_one_third.lean:14" target="_blank">
<path fill="#ffe6a3" stroke="#d4a017" d="M3005.23,-124C3005.23,-124 2844.77,-124 2844.77,-124 2838.77,-124 2832.77,-118 2832.77,-112 2832.77,-112 2832.77,-100 2832.77,-100 2832.77,-94 2838.77,-88 2844.77,-88 2844.77,-88 3005.23,-88 3005.23,-88 3011.23,-88 3017.23,-94 3017.23,-100 3017.23,-100 3017.23,-112 3017.23,-112 3017.23,-118 3011.23,-124 3005.23,-124"/>
<text xml:space="preserve" text-anchor="middle" x="2925" y="-103" font-family="Helvetica,sans-Serif" font-size="10.00">subgaussian_exp_sq_le_at_one_third</text>
</a>
</g>
</g>
<!-- n16&#45;&gt;n11 -->
<g id="edge16" class="edge">
<title>n16&#45;&gt;n11</title>
<path fill="none" stroke="#64748b" d="M2882.04,-87.52C2858.14,-77.79 2828.28,-65.64 2803.29,-55.47"/>
<polygon fill="#64748b" stroke="#64748b" points="2804.52,-53.32 2797.11,-52.95 2802.67,-57.86 2804.52,-53.32"/>
</g>
<!-- n17&#45;&gt;n12 -->
<g id="edge20" class="edge">
<title>n17&#45;&gt;n12</title>
<path fill="none" stroke="#64748b" d="M2688.53,-159.52C2669.16,-149.97 2645.03,-138.07 2624.63,-128.01"/>
<polygon fill="#64748b" stroke="#64748b" points="2625.73,-125.83 2618.37,-124.93 2623.57,-130.22 2625.73,-125.83"/>
</g>
<!-- n17&#45;&gt;n14 -->
<g id="edge17" class="edge">
<title>n17&#45;&gt;n14</title>
<path fill="none" stroke="#64748b" d="M2733.64,-159.7C2738.41,-151.14 2744.25,-140.66 2749.46,-131.3"/>
<polygon fill="#64748b" stroke="#64748b" points="2751.47,-132.73 2752.73,-125.43 2747.19,-130.35 2751.47,-132.73"/>
</g>
<!-- n17&#45;&gt;n15 -->
<g id="edge18" class="edge">
<title>n17&#45;&gt;n15</title>
<path fill="none" stroke="#64748b" d="M2830.03,-161C2888.17,-151.58 2961.36,-138.64 3026,-124 3026.09,-123.98 3026.17,-123.96 3026.26,-123.94"/>
<polygon fill="#64748b" stroke="#64748b" points="3026.79,-126.33 3033.04,-122.33 3025.66,-121.57 3026.79,-126.33"/>
</g>
<!-- n17&#45;&gt;n16 -->
<g id="edge19" class="edge">
<title>n17&#45;&gt;n16</title>
<path fill="none" stroke="#64748b" d="M2774.2,-159.52C2802.49,-149.67 2837.94,-137.32 2867.36,-127.07"/>
<polygon fill="#64748b" stroke="#64748b" points="2867.86,-129.5 2873.66,-124.88 2866.24,-124.87 2867.86,-129.5"/>
</g>
<!-- n20&#45;&gt;n10 -->
<g id="edge28" class="edge">
<title>n20&#45;&gt;n10</title>
<path fill="none" stroke="#64748b" d="M3280,-159.7C3280,-151.47 3280,-141.48 3280,-132.42"/>
<polygon fill="#64748b" stroke="#64748b" points="3282.45,-132.62 3280,-125.62 3277.55,-132.62 3282.45,-132.62"/>
</g>
</g>
</svg>
