<?xml version="1.0" encoding="UTF-8" standalone="no"?>
<!DOCTYPE svg PUBLIC "-//W3C//DTD SVG 1.1//EN"
 "http://www.w3.org/Graphics/SVG/1.1/DTD/svg11.dtd">
<!-- Generated by graphviz version 15.0.0 (20260523.1842)
 -->
<!-- Title: decoupledOffDiagQuadForm_prod_first_section_abs_tail_real Pages: 1 -->
<svg width="638pt" height="554pt"
 viewBox="0.00 0.00 638.00 554.00" xmlns="http://www.w3.org/2000/svg" xmlns:xlink="http://www.w3.org/1999/xlink">
<g id="graph0" class="graph" transform="scale(1 1) rotate(0) translate(4 550)">
<title>decoupledOffDiagQuadForm_prod_first_section_abs_tail_real</title>
<polygon fill="white" stroke="none" points="-4,4 -4,-550 634,-550 634,4 -4,4"/>
<text xml:space="preserve" text-anchor="middle" x="315" y="-529.4" font-family="Helvetica,sans-Serif" font-size="14.00">Proof narrative — decoupledOffDiagQuadForm_prod_first_section_abs_tail_real &#160;(14 decls)</text>
<g id="clust1" class="cluster">
<title>cluster_0</title>
<path fill="none" stroke="#cbd5e1" stroke-dasharray="5,2" d="M20,-8C20,-8 610,-8 610,-8 616,-8 622,-14 622,-20 622,-20 622,-501.2 622,-501.2 622,-507.2 616,-513.2 610,-513.2 610,-513.2 20,-513.2 20,-513.2 14,-513.2 8,-507.2 8,-501.2 8,-501.2 8,-20 8,-20 8,-14 14,-8 20,-8"/>
<text xml:space="preserve" text-anchor="middle" x="315" y="-499.3" font-family="Helvetica,sans-Serif" font-size="11.00">HighDim</text>
</g>
<!-- n0 -->
<g id="node1" class="node">
<title>n0</title>
<g id="a_node1"><a xlink:href="vscode://vscode-remote/wsl+Ubuntu/home/ai4stat/statlib/Statlib/HighDim/Vocabulary/RandomVector.lean:52" xlink:title="structure · Statlib/HighDim/Vocabulary/RandomVector.lean:52" target="_blank">
<path fill="#e8dcff" stroke="#8b5cf6" d="M166.36,-268C166.36,-268 77.64,-268 77.64,-268 71.64,-268 65.64,-262 65.64,-256 65.64,-256 65.64,-244 65.64,-244 65.64,-238 71.64,-232 77.64,-232 77.64,-232 166.36,-232 166.36,-232 172.36,-232 178.36,-238 178.36,-244 178.36,-244 178.36,-256 178.36,-256 178.36,-262 172.36,-268 166.36,-268"/>
<text xml:space="preserve" text-anchor="middle" x="122" y="-247" font-family="Helvetica,sans-Serif" font-size="10.00">IsSubGaussianVector</text>
</a>
</g>
</g>
<!-- n1 -->
<g id="node2" class="node">
<title>n1</title>
<g id="a_node2"><a xlink:href="vscode://vscode-remote/wsl+Ubuntu/home/ai4stat/statlib/Statlib/HighDim/Vocabulary/QuadraticForms.lean:33" xlink:title="noncomputable def · Statlib/HighDim/Vocabulary/QuadraticForms.lean:33" target="_blank">
<path fill="#d6e9ff" stroke="#3b82f6" d="M596.92,-52C596.92,-52 477.08,-52 477.08,-52 471.08,-52 465.08,-46 465.08,-40 465.08,-40 465.08,-28 465.08,-28 465.08,-22 471.08,-16 477.08,-16 477.08,-16 596.92,-16 596.92,-16 602.92,-16 608.92,-22 608.92,-28 608.92,-28 608.92,-40 608.92,-40 608.92,-46 602.92,-52 596.92,-52"/>
<text xml:space="preserve" text-anchor="middle" x="537" y="-31" font-family="Helvetica,sans-Serif" font-size="10.00">decoupledOffDiagQuadForm</text>
</a>
</g>
</g>
<!-- n2 -->
<g id="node3" class="node">
<title>n2</title>
<g id="a_node3"><a xlink:href="vscode://vscode-remote/wsl+Ubuntu/home/ai4stat/statlib/Statlib/HighDim/Vocabulary/QuadraticForms.lean:46" xlink:title="noncomputable def · Statlib/HighDim/Vocabulary/QuadraticForms.lean:46" target="_blank">
<path fill="#d6e9ff" stroke="#3b82f6" d="M98.41,-124C98.41,-124 33.59,-124 33.59,-124 27.59,-124 21.59,-118 21.59,-112 21.59,-112 21.59,-100 21.59,-100 21.59,-94 27.59,-88 33.59,-88 33.59,-88 98.41,-88 98.41,-88 104.41,-88 110.41,-94 110.41,-100 110.41,-100 110.41,-112 110.41,-112 110.41,-118 104.41,-124 98.41,-124"/>
<text xml:space="preserve" text-anchor="middle" x="66" y="-103" font-family="Helvetica,sans-Serif" font-size="10.00">offDiagCoeffVec</text>
</a>
</g>
</g>
<!-- n3 -->
<g id="node4" class="node">
<title>n3</title>
<g id="a_node4"><a xlink:href="vscode://vscode-remote/wsl+Ubuntu/home/ai4stat/statlib/Statlib/HighDim/Concentration/HansonWright.lean:122" xlink:title="lemma · Statlib/HighDim/Concentration/HansonWright.lean:122" target="_blank">
<path fill="#eef2f6" stroke="#94a3b8" d="M509.21,-340C509.21,-340 398.79,-340 398.79,-340 392.79,-340 386.79,-334 386.79,-328 386.79,-328 386.79,-316 386.79,-316 386.79,-310 392.79,-304 398.79,-304 398.79,-304 509.21,-304 509.21,-304 515.21,-304 521.21,-310 521.21,-316 521.21,-316 521.21,-328 521.21,-328 521.21,-334 515.21,-340 509.21,-340"/>
<text xml:space="preserve" text-anchor="middle" x="454" y="-319" font-family="Helvetica,sans-Serif" font-size="10.00">subgaussian_abs_tail_real</text>
</a>
</g>
</g>
<!-- n4 -->
<g id="node5" class="node">
<title>n4</title>
<g id="a_node5"><a xlink:href="vscode://vscode-remote/wsl+Ubuntu/home/ai4stat/statlib/Statlib/HighDim/Vocabulary/QuadraticForms.lean:39" xlink:title="noncomputable def · Statlib/HighDim/Vocabulary/QuadraticForms.lean:39" target="_blank">
<path fill="#d6e9ff" stroke="#3b82f6" d="M172.79,-52C172.79,-52 125.21,-52 125.21,-52 119.21,-52 113.21,-46 113.21,-40 113.21,-40 113.21,-28 113.21,-28 113.21,-22 119.21,-16 125.21,-16 125.21,-16 172.79,-16 172.79,-16 178.79,-16 184.79,-22 184.79,-28 184.79,-28 184.79,-40 184.79,-40 184.79,-46 178.79,-52 172.79,-52"/>
<text xml:space="preserve" text-anchor="middle" x="149" y="-31" font-family="Helvetica,sans-Serif" font-size="10.00">offDiagCoeff</text>
</a>
</g>
</g>
<!-- n5 -->
<g id="node6" class="node">
<title>n5</title>
<g id="a_node6"><a xlink:href="vscode://vscode-remote/wsl+Ubuntu/home/ai4stat/statlib/Statlib/HighDim/Concentration/HansonWright.lean:42" xlink:title="lemma · Statlib/HighDim/Concentration/HansonWright.lean:42" target="_blank">
<path fill="#eef2f6" stroke="#94a3b8" d="M368.11,-124C368.11,-124 179.89,-124 179.89,-124 173.89,-124 167.89,-118 167.89,-112 167.89,-112 167.89,-100 167.89,-100 167.89,-94 173.89,-88 179.89,-88 179.89,-88 368.11,-88 368.11,-88 374.11,-88 380.11,-94 380.11,-100 380.11,-100 380.11,-112 380.11,-112 380.11,-118 374.11,-124 368.11,-124"/>
<text xml:space="preserve" text-anchor="middle" x="274" y="-103" font-family="Helvetica,sans-Serif" font-size="10.00">decoupledOffDiagQuadForm_eq_sum_coeff</text>
</a>
</g>
</g>
<!-- n5&#45;&gt;n1 -->
<g id="edge1" class="edge">
<title>n5&#45;&gt;n1</title>
<path fill="none" stroke="#64748b" d="M339.69,-87.52C377.33,-77.5 424.66,-64.9 463.53,-54.55"/>
<polygon fill="#64748b" stroke="#64748b" points="464.1,-56.94 470.23,-52.77 462.84,-52.2 464.1,-56.94"/>
</g>
<!-- n5&#45;&gt;n4 -->
<g id="edge2" class="edge">
<title>n5&#45;&gt;n4</title>
<path fill="none" stroke="#64748b" d="M242.78,-87.52C225.95,-78.09 205.04,-66.38 187.24,-56.41"/>
<polygon fill="#64748b" stroke="#64748b" points="188.45,-54.28 181.14,-53 186.05,-58.56 188.45,-54.28"/>
</g>
<!-- n6 -->
<g id="node7" class="node">
<title>n6</title>
<g id="a_node7"><a xlink:href="vscode://vscode-remote/wsl+Ubuntu/home/ai4stat/statlib/Statlib/HighDim/Vocabulary/Norms.lean:32" xlink:title="lemma · Statlib/HighDim/Vocabulary/Norms.lean:32" target="_blank">
<path fill="#eef2f6" stroke="#94a3b8" d="M465.69,-124C465.69,-124 410.31,-124 410.31,-124 404.31,-124 398.31,-118 398.31,-112 398.31,-112 398.31,-100 398.31,-100 398.31,-94 404.31,-88 410.31,-88 410.31,-88 465.69,-88 465.69,-88 471.69,-88 477.69,-94 477.69,-100 477.69,-100 477.69,-112 477.69,-112 477.69,-118 471.69,-124 465.69,-124"/>
<text xml:space="preserve" text-anchor="middle" x="438" y="-103" font-family="Helvetica,sans-Serif" font-size="10.00">inner_eq_sum</text>
</a>
</g>
</g>
<!-- n7 -->
<g id="node8" class="node">
<title>n7</title>
<g id="a_node8"><a xlink:href="vscode://vscode-remote/wsl+Ubuntu/home/ai4stat/statlib/Statlib/HighDim/Concentration/HansonWright.lean:61" xlink:title="lemma · Statlib/HighDim/Concentration/HansonWright.lean:61" target="_blank">
<path fill="#eef2f6" stroke="#94a3b8" d="M485.79,-196C485.79,-196 294.21,-196 294.21,-196 288.21,-196 282.21,-190 282.21,-184 282.21,-184 282.21,-172 282.21,-172 282.21,-166 288.21,-160 294.21,-160 294.21,-160 485.79,-160 485.79,-160 491.79,-160 497.79,-166 497.79,-172 497.79,-172 497.79,-184 497.79,-184 497.79,-190 491.79,-196 485.79,-196"/>
<text xml:space="preserve" text-anchor="middle" x="390" y="-175" font-family="Helvetica,sans-Serif" font-size="10.00">decoupledOffDiagQuadForm_eq_inner_coeff</text>
</a>
</g>
</g>
<!-- n7&#45;&gt;n1 -->
<g id="edge3" class="edge">
<title>n7&#45;&gt;n1</title>
<path fill="none" stroke="#64748b" d="M433.52,-159.66C451.6,-150.93 471.85,-138.97 487,-124 496.92,-114.19 513.55,-82.79 524.88,-60.06"/>
<polygon fill="#64748b" stroke="#64748b" points="527.08,-61.15 527.98,-53.79 522.69,-58.98 527.08,-61.15"/>
</g>
<!-- n7&#45;&gt;n4 -->
<g id="edge4" class="edge">
<title>n7&#45;&gt;n4</title>
<path fill="none" stroke="#64748b" d="M289.84,-159.55C231.74,-148.48 168.23,-134.34 159,-124 143.85,-107.02 142.75,-80.37 144.59,-60.65"/>
<polygon fill="#64748b" stroke="#64748b" points="147,-61.15 145.39,-53.91 142.14,-60.58 147,-61.15"/>
</g>
<!-- n7&#45;&gt;n5 -->
<g id="edge5" class="edge">
<title>n7&#45;&gt;n5</title>
<path fill="none" stroke="#64748b" d="M361.03,-159.52C345.41,-150.09 326.01,-138.38 309.49,-128.41"/>
<polygon fill="#64748b" stroke="#64748b" points="311.16,-126.56 303.9,-125.04 308.63,-130.76 311.16,-126.56"/>
</g>
<!-- n7&#45;&gt;n6 -->
<g id="edge6" class="edge">
<title>n7&#45;&gt;n6</title>
<path fill="none" stroke="#64748b" d="M401.87,-159.7C407.79,-151.05 415.06,-140.45 421.52,-131.03"/>
<polygon fill="#64748b" stroke="#64748b" points="423.48,-132.51 425.42,-125.35 419.44,-129.74 423.48,-132.51"/>
</g>
<!-- n8 -->
<g id="node9" class="node">
<title>n8</title>
<g id="a_node9"><a xlink:href="vscode://vscode-remote/wsl+Ubuntu/home/ai4stat/statlib/Statlib/HighDim/Concentration/HansonWright.lean:35" xlink:title="lemma · Statlib/HighDim/Concentration/HansonWright.lean:35" target="_blank">
<path fill="#eef2f6" stroke="#94a3b8" d="M252.52,-196C252.52,-196 175.48,-196 175.48,-196 169.48,-196 163.48,-190 163.48,-184 163.48,-184 163.48,-172 163.48,-172 163.48,-166 169.48,-160 175.48,-160 175.48,-160 252.52,-160 252.52,-160 258.52,-160 264.52,-166 264.52,-172 264.52,-172 264.52,-184 264.52,-184 264.52,-190 258.52,-196 252.52,-196"/>
<text xml:space="preserve" text-anchor="middle" x="214" y="-175" font-family="Helvetica,sans-Serif" font-size="10.00">offDiagCoeff_const</text>
</a>
</g>
</g>
<!-- n8&#45;&gt;n2 -->
<g id="edge8" class="edge">
<title>n8&#45;&gt;n2</title>
<path fill="none" stroke="#64748b" d="M177.04,-159.52C156.83,-149.96 131.66,-138.05 110.39,-128"/>
<polygon fill="#64748b" stroke="#64748b" points="111.49,-125.81 104.12,-125.03 109.4,-130.24 111.49,-125.81"/>
</g>
<!-- n8&#45;&gt;n4 -->
<g id="edge7" class="edge">
<title>n8&#45;&gt;n4</title>
<path fill="none" stroke="#64748b" d="M178.95,-159.6C165.44,-150.91 151.46,-139.01 144,-124 134.2,-104.29 136.83,-79.01 141.11,-60.44"/>
<polygon fill="#64748b" stroke="#64748b" points="143.42,-61.27 142.78,-53.88 138.68,-60.06 143.42,-61.27"/>
</g>
<!-- n9 -->
<g id="node10" class="node">
<title>n9</title>
<g id="a_node10"><a xlink:href="vscode://vscode-remote/wsl+Ubuntu/home/ai4stat/statlib/Statlib/HighDim/Concentration/HansonWright.lean:69" xlink:title="lemma · Statlib/HighDim/Concentration/HansonWright.lean:69" target="_blank">
<path fill="#eef2f6" stroke="#94a3b8" d="M491.64,-268C491.64,-268 228.36,-268 228.36,-268 222.36,-268 216.36,-262 216.36,-256 216.36,-256 216.36,-244 216.36,-244 216.36,-238 222.36,-232 228.36,-232 228.36,-232 491.64,-232 491.64,-232 497.64,-232 503.64,-238 503.64,-244 503.64,-244 503.64,-256 503.64,-256 503.64,-262 497.64,-268 491.64,-268"/>
<text xml:space="preserve" text-anchor="middle" x="360" y="-247" font-family="Helvetica,sans-Serif" font-size="10.00">decoupledOffDiagQuadForm_const_right_eq_inner_coeffVec</text>
</a>
</g>
</g>
<!-- n9&#45;&gt;n1 -->
<g id="edge9" class="edge">
<title>n9&#45;&gt;n1</title>
<path fill="none" stroke="#64748b" d="M453.36,-231.59C473.56,-223.77 493.03,-212.43 507,-196 515.68,-185.79 527.84,-103.31 533.65,-60.54"/>
<polygon fill="#64748b" stroke="#64748b" points="536.06,-61.06 534.56,-53.8 531.2,-60.41 536.06,-61.06"/>
</g>
<!-- n9&#45;&gt;n2 -->
<g id="edge10" class="edge">
<title>n9&#45;&gt;n2</title>
<path fill="none" stroke="#64748b" d="M233.74,-231.54C205.82,-223.72 177.57,-212.4 154,-196 138.01,-184.88 142.12,-174.4 129,-160 119.11,-149.15 107.02,-138.48 96.08,-129.59"/>
<polygon fill="#64748b" stroke="#64748b" points="97.63,-127.69 90.64,-125.24 94.58,-131.52 97.63,-127.69"/>
</g>
<!-- n9&#45;&gt;n7 -->
<g id="edge11" class="edge">
<title>n9&#45;&gt;n7</title>
<path fill="none" stroke="#64748b" d="M367.42,-231.7C371.01,-223.3 375.4,-213.07 379.35,-203.86"/>
<polygon fill="#64748b" stroke="#64748b" points="381.57,-204.89 382.07,-197.5 377.06,-202.96 381.57,-204.89"/>
</g>
<!-- n9&#45;&gt;n8 -->
<g id="edge12" class="edge">
<title>n9&#45;&gt;n8</title>
<path fill="none" stroke="#64748b" d="M323.53,-231.52C303.6,-221.96 278.77,-210.05 257.79,-200"/>
<polygon fill="#64748b" stroke="#64748b" points="258.99,-197.85 251.62,-197.04 256.87,-202.27 258.99,-197.85"/>
</g>
<!-- n10 -->
<g id="node11" class="node">
<title>n10</title>
<g id="a_node11"><a xlink:href="vscode://vscode-remote/wsl+Ubuntu/home/ai4stat/statlib/Statlib/HighDim/Concentration/HansonWright.lean:76" xlink:title="lemma · Statlib/HighDim/Concentration/HansonWright.lean:76" target="_blank">
<path fill="#eef2f6" stroke="#94a3b8" d="M357.02,-340C357.02,-340 120.98,-340 120.98,-340 114.98,-340 108.98,-334 108.98,-328 108.98,-328 108.98,-316 108.98,-316 108.98,-310 114.98,-304 120.98,-304 120.98,-304 357.02,-304 357.02,-304 363.02,-304 369.02,-310 369.02,-316 369.02,-316 369.02,-328 369.02,-328 369.02,-334 363.02,-340 357.02,-340"/>
<text xml:space="preserve" text-anchor="middle" x="239" y="-319" font-family="Helvetica,sans-Serif" font-size="10.00">decoupledOffDiagQuadForm_const_right_subgaussian</text>
</a>
</g>
</g>
<!-- n10&#45;&gt;n0 -->
<g id="edge13" class="edge">
<title>n10&#45;&gt;n0</title>
<path fill="none" stroke="#64748b" d="M209.78,-303.52C194.02,-294.09 174.45,-282.38 157.79,-272.41"/>
<polygon fill="#64748b" stroke="#64748b" points="159.41,-270.53 152.15,-269.04 156.9,-274.73 159.41,-270.53"/>
</g>
<!-- n10&#45;&gt;n1 -->
<g id="edge14" class="edge">
<title>n10&#45;&gt;n1</title>
<path fill="none" stroke="#64748b" d="M364.56,-303.51C431.44,-293 502.18,-279.48 513,-268 540.67,-238.63 539.86,-114.77 538.1,-60.58"/>
<polygon fill="#64748b" stroke="#64748b" points="540.55,-60.62 537.86,-53.71 535.66,-60.8 540.55,-60.62"/>
</g>
<!-- n10&#45;&gt;n2 -->
<g id="edge15" class="edge">
<title>n10&#45;&gt;n2</title>
<path fill="none" stroke="#64748b" d="M228.47,-303.91C222.15,-293.57 214.01,-280.09 207,-268 197.82,-252.16 199.63,-245.25 187,-232 166.07,-210.03 151.09,-216.79 129,-196 108.8,-176.99 91.08,-150.58 79.62,-131.47"/>
<polygon fill="#64748b" stroke="#64748b" points="81.82,-130.38 76.17,-125.58 77.6,-132.86 81.82,-130.38"/>
</g>
<!-- n10&#45;&gt;n9 -->
<g id="edge16" class="edge">
<title>n10&#45;&gt;n9</title>
<path fill="none" stroke="#64748b" d="M269.22,-303.52C285.51,-294.09 305.75,-282.38 322.98,-272.41"/>
<polygon fill="#64748b" stroke="#64748b" points="324.02,-274.64 328.85,-269.02 321.57,-270.4 324.02,-274.64"/>
</g>
<!-- n11 -->
<g id="node12" class="node">
<title>n11</title>
<g id="a_node12"><a xlink:href="vscode://vscode-remote/wsl+Ubuntu/home/ai4stat/statlib/Statlib/HighDim/Concentration/HansonWright.lean:166" xlink:title="lemma · Statlib/HighDim/Concentration/HansonWright.lean:166" target="_blank">
<path fill="#eef2f6" stroke="#94a3b8" d="M304.29,-412C304.29,-412 67.71,-412 67.71,-412 61.71,-412 55.71,-406 55.71,-400 55.71,-400 55.71,-388 55.71,-388 55.71,-382 61.71,-376 67.71,-376 67.71,-376 304.29,-376 304.29,-376 310.29,-376 316.29,-382 316.29,-388 316.29,-388 316.29,-400 316.29,-400 316.29,-406 310.29,-412 304.29,-412"/>
<text xml:space="preserve" text-anchor="middle" x="186" y="-391" font-family="Helvetica,sans-Serif" font-size="10.00">decoupledOffDiagQuadForm_const_right_abs_tail_real</text>
</a>
</g>
</g>
<!-- n11&#45;&gt;n0 -->
<g id="edge17" class="edge">
<title>n11&#45;&gt;n0</title>
<path fill="none" stroke="#64748b" d="M140,-375.74C124.45,-367.43 108.81,-355.77 100,-340 88.77,-319.88 97.28,-294.05 106.79,-275.41"/>
<polygon fill="#64748b" stroke="#64748b" points="108.69,-277.04 109.87,-269.72 104.38,-274.71 108.69,-277.04"/>
</g>
<!-- n11&#45;&gt;n1 -->
<g id="edge18" class="edge">
<title>n11&#45;&gt;n1</title>
<path fill="none" stroke="#64748b" d="M316.38,-376.19C410.19,-363.56 521.64,-347.25 530,-340 561.22,-312.91 557,-292.34 557,-251 557,-251 557,-251 557,-177 557,-135.94 548.7,-88.84 542.79,-60.53"/>
<polygon fill="#64748b" stroke="#64748b" points="545.22,-60.19 541.36,-53.86 540.43,-61.22 545.22,-60.19"/>
</g>
<!-- n11&#45;&gt;n2 -->
<g id="edge19" class="edge">
<title>n11&#45;&gt;n2</title>
<path fill="none" stroke="#64748b" d="M141.9,-375.52C124.36,-366.88 105.06,-355.04 91,-340 66.84,-314.14 64.74,-302.53 57,-268 46.43,-220.86 54.2,-164.11 60.39,-132.13"/>
<polygon fill="#64748b" stroke="#64748b" points="62.71,-133 61.7,-125.66 57.91,-132.03 62.71,-133"/>
</g>
<!-- n11&#45;&gt;n3 -->
<g id="edge20" class="edge">
<title>n11&#45;&gt;n3</title>
<path fill="none" stroke="#64748b" d="M252.94,-375.52C291.45,-365.46 339.93,-352.79 379.63,-342.42"/>
<polygon fill="#64748b" stroke="#64748b" points="379.83,-344.9 385.99,-340.76 378.6,-340.16 379.83,-344.9"/>
</g>
<!-- n11&#45;&gt;n10 -->
<g id="edge21" class="edge">
<title>n11&#45;&gt;n10</title>
<path fill="none" stroke="#64748b" d="M199.1,-375.7C205.71,-366.97 213.83,-356.24 221.02,-346.75"/>
<polygon fill="#64748b" stroke="#64748b" points="222.86,-348.37 225.14,-341.31 218.96,-345.41 222.86,-348.37"/>
</g>
<!-- n12 -->
<g id="node13" class="node">
<title>n12</title>
<g id="a_node13"><a xlink:href="vscode://vscode-remote/wsl+Ubuntu/home/ai4stat/statlib/Statlib/HighDim/Concentration/HansonWright.lean:179" xlink:title="lemma · Statlib/HighDim/Concentration/HansonWright.lean:179" target="_blank">
<path fill="#eef2f6" stroke="#94a3b8" d="M581.74,-412C581.74,-412 346.26,-412 346.26,-412 340.26,-412 334.26,-406 334.26,-400 334.26,-400 334.26,-388 334.26,-388 334.26,-382 340.26,-376 346.26,-376 346.26,-376 581.74,-376 581.74,-376 587.74,-376 593.74,-382 593.74,-388 593.74,-388 593.74,-400 593.74,-400 593.74,-406 587.74,-412 581.74,-412"/>
<text xml:space="preserve" text-anchor="middle" x="464" y="-391" font-family="Helvetica,sans-Serif" font-size="10.00">decoupledOffDiagQuadForm_prod_mk_eq_const_right</text>
</a>
</g>
</g>
<!-- n12&#45;&gt;n1 -->
<g id="edge22" class="edge">
<title>n12&#45;&gt;n1</title>
<path fill="none" stroke="#64748b" d="M516.03,-375.59C533.16,-367.37 550.69,-355.81 562,-340 585.34,-307.38 577,-291.11 577,-251 577,-251 577,-251 577,-177 577,-136.89 574,-126.28 562,-88 559.02,-78.49 554.65,-68.49 550.41,-59.77"/>
<polygon fill="#64748b" stroke="#64748b" points="552.6,-58.68 547.26,-53.53 548.22,-60.89 552.6,-58.68"/>
</g>
<!-- n13 -->
<g id="node14" class="node">
<title>n13</title>
<g id="a_node14"><a xlink:href="vscode://vscode-remote/wsl+Ubuntu/home/ai4stat/statlib/Statlib/HighDim/Concentration/HansonWright.lean:190" xlink:title="lemma · Statlib/HighDim/Concentration/HansonWright.lean:190" target="_blank">
<path fill="#eef2f6" stroke="#94a3b8" stroke-width="3" d="M319.3,-484C319.3,-484 52.7,-484 52.7,-484 46.7,-484 40.7,-478 40.7,-472 40.7,-472 40.7,-460 40.7,-460 40.7,-454 46.7,-448 52.7,-448 52.7,-448 319.3,-448 319.3,-448 325.3,-448 331.3,-454 331.3,-460 331.3,-460 331.3,-472 331.3,-472 331.3,-478 325.3,-484 319.3,-484"/>
<text xml:space="preserve" text-anchor="middle" x="186" y="-463" font-family="Helvetica,sans-Serif" font-size="10.00">decoupledOffDiagQuadForm_prod_first_section_abs_tail_real</text>
</a>
</g>
</g>
<!-- n13&#45;&gt;n0 -->
<g id="edge23" class="edge">
<title>n13&#45;&gt;n0</title>
<path fill="none" stroke="#64748b" d="M91.57,-446.59C74.03,-438.81 57.84,-427.74 47,-412 15.87,-366.82 64.24,-306.67 96.64,-274.18"/>
<polygon fill="#64748b" stroke="#64748b" points="98.12,-276.16 101.4,-269.51 94.69,-272.67 98.12,-276.16"/>
</g>
<!-- n13&#45;&gt;n1 -->
<g id="edge24" class="edge">
<title>n13&#45;&gt;n1</title>
<path fill="none" stroke="#64748b" d="M332.52,-455.2C444.86,-446.24 583.85,-431.43 603,-412 630.94,-383.65 613,-362.8 613,-323 613,-323 613,-323 613,-177 613,-130.86 581.42,-85.2 558.98,-58.58"/>
<polygon fill="#64748b" stroke="#64748b" points="560.91,-57.07 554.48,-53.37 557.2,-60.27 560.91,-57.07"/>
</g>
<!-- n13&#45;&gt;n2 -->
<g id="edge25" class="edge">
<title>n13&#45;&gt;n2</title>
<path fill="none" stroke="#64748b" d="M84.07,-446.54C64.76,-438.76 46.43,-427.7 33,-412 6.88,-381.46 17,-363.19 17,-323 17,-323 17,-323 17,-249 17,-205.85 37.47,-159.17 51.94,-131.54"/>
<polygon fill="#64748b" stroke="#64748b" points="53.98,-132.93 55.13,-125.6 49.66,-130.61 53.98,-132.93"/>
</g>
<!-- n13&#45;&gt;n11 -->
<g id="edge26" class="edge">
<title>n13&#45;&gt;n11</title>
<path fill="none" stroke="#64748b" d="M186,-446.61C186,-438.59 186,-429.05 186,-420.37"/>
<polygon fill="#64748b" stroke="#64748b" points="188.45,-420.58 186,-413.58 183.55,-420.58 188.45,-420.58"/>
</g>
<!-- n13&#45;&gt;n12 -->
<g id="edge27" class="edge">
<title>n13&#45;&gt;n12</title>
<path fill="none" stroke="#64748b" d="M259.4,-446.52C298.77,-436.61 347.23,-424.4 387.11,-414.36"/>
<polygon fill="#64748b" stroke="#64748b" points="387.31,-416.84 393.5,-412.75 386.12,-412.08 387.31,-416.84"/>
</g>
</g>
</svg>
