<?xml version="1.0" encoding="UTF-8" standalone="no"?>
<!DOCTYPE svg PUBLIC "-//W3C//DTD SVG 1.1//EN"
 "http://www.w3.org/Graphics/SVG/1.1/DTD/svg11.dtd">
<!-- Generated by graphviz version 15.0.0 (20260523.1842)
 -->
<!-- Title: decoupledOffDiagQuadForm_prod_first_section_abs_tail_real Pages: 1 -->
<svg width="856pt" height="555pt"
 viewBox="0.00 0.00 856.00 555.00" xmlns="http://www.w3.org/2000/svg" xmlns:xlink="http://www.w3.org/1999/xlink">
<g id="graph0" class="graph" transform="scale(1 1) rotate(0) translate(4 551.2)">
<title>decoupledOffDiagQuadForm_prod_first_section_abs_tail_real</title>
<polygon fill="white" stroke="none" points="-4,4 -4,-551.2 852,-551.2 852,4 -4,4"/>
<text xml:space="preserve" text-anchor="middle" x="424" y="-530.6" font-family="Helvetica,sans-Serif" font-size="14.00">Proof narrative — decoupledOffDiagQuadForm_prod_first_section_abs_tail_real &#160;(14 decls)</text>
<g id="clust1" class="cluster">
<title>cluster_0</title>
<path fill="none" stroke="#cbd5e1" stroke-dasharray="5,2" d="M20,-8C20,-8 670,-8 670,-8 676,-8 682,-14 682,-20 682,-20 682,-502.4 682,-502.4 682,-508.4 676,-514.4 670,-514.4 670,-514.4 20,-514.4 20,-514.4 14,-514.4 8,-508.4 8,-502.4 8,-502.4 8,-20 8,-20 8,-14 14,-8 20,-8"/>
<text xml:space="preserve" text-anchor="middle" x="345" y="-500.5" font-family="Helvetica,sans-Serif" font-size="11.00">HighDim</text>
</g>
<g id="clust2" class="cluster">
<title>cluster_1</title>
<path fill="none" stroke="#cbd5e1" stroke-dasharray="5,2" d="M702,-296C702,-296 828,-296 828,-296 834,-296 840,-302 840,-308 840,-308 840,-357.2 840,-357.2 840,-363.2 834,-369.2 828,-369.2 828,-369.2 702,-369.2 702,-369.2 696,-369.2 690,-363.2 690,-357.2 690,-357.2 690,-308 690,-308 690,-302 696,-296 702,-296"/>
<text xml:space="preserve" text-anchor="middle" x="765" y="-355.3" font-family="Helvetica,sans-Serif" font-size="11.00">StatFoundation</text>
</g>
<!-- n0 -->
<g id="node1" class="node">
<title>n0</title>
<g id="a_node1"><a xlink:href="https://github.com/statopia/statlib/blob/main/Statlib/HighDim/Vocabulary/RandomVector.lean#L52" xlink:title="structure · Statlib/HighDim/Vocabulary/RandomVector.lean:52" target="_blank">
<path fill="#e8dcff" stroke="#8b5cf6" d="M156.36,-268C156.36,-268 67.64,-268 67.64,-268 61.64,-268 55.64,-262 55.64,-256 55.64,-256 55.64,-244 55.64,-244 55.64,-238 61.64,-232 67.64,-232 67.64,-232 156.36,-232 156.36,-232 162.36,-232 168.36,-238 168.36,-244 168.36,-244 168.36,-256 168.36,-256 168.36,-262 162.36,-268 156.36,-268"/>
<text xml:space="preserve" text-anchor="middle" x="112" y="-247" font-family="Helvetica,sans-Serif" font-size="10.00">IsSubGaussianVector</text>
</a>
</g>
</g>
<!-- n1 -->
<g id="node2" class="node">
<title>n1</title>
<g id="a_node2"><a xlink:href="https://github.com/statopia/statlib/blob/main/Statlib/HighDim/Vocabulary/QuadraticForms.lean#L33" xlink:title="noncomputable def · Statlib/HighDim/Vocabulary/QuadraticForms.lean:33" target="_blank">
<path fill="#d6e9ff" stroke="#3b82f6" d="M147.92,-52C147.92,-52 28.08,-52 28.08,-52 22.08,-52 16.08,-46 16.08,-40 16.08,-40 16.08,-28 16.08,-28 16.08,-22 22.08,-16 28.08,-16 28.08,-16 147.92,-16 147.92,-16 153.92,-16 159.92,-22 159.92,-28 159.92,-28 159.92,-40 159.92,-40 159.92,-46 153.92,-52 147.92,-52"/>
<text xml:space="preserve" text-anchor="middle" x="88" y="-31" font-family="Helvetica,sans-Serif" font-size="10.00">decoupledOffDiagQuadForm</text>
</a>
</g>
</g>
<!-- n2 -->
<g id="node3" class="node">
<title>n2</title>
<g id="a_node3"><a xlink:href="https://github.com/statopia/statlib/blob/main/Statlib/HighDim/Vocabulary/QuadraticForms.lean#L46" xlink:title="noncomputable def · Statlib/HighDim/Vocabulary/QuadraticForms.lean:46" target="_blank">
<path fill="#d6e9ff" stroke="#3b82f6" d="M565.41,-124C565.41,-124 500.59,-124 500.59,-124 494.59,-124 488.59,-118 488.59,-112 488.59,-112 488.59,-100 488.59,-100 488.59,-94 494.59,-88 500.59,-88 500.59,-88 565.41,-88 565.41,-88 571.41,-88 577.41,-94 577.41,-100 577.41,-100 577.41,-112 577.41,-112 577.41,-118 571.41,-124 565.41,-124"/>
<text xml:space="preserve" text-anchor="middle" x="533" y="-103" font-family="Helvetica,sans-Serif" font-size="10.00">offDiagCoeffVec</text>
</a>
</g>
</g>
<!-- n4 -->
<g id="node4" class="node">
<title>n4</title>
<g id="a_node4"><a xlink:href="https://github.com/statopia/statlib/blob/main/Statlib/HighDim/Vocabulary/QuadraticForms.lean#L39" xlink:title="noncomputable def · Statlib/HighDim/Vocabulary/QuadraticForms.lean:39" target="_blank">
<path fill="#d6e9ff" stroke="#3b82f6" d="M473.79,-52C473.79,-52 426.21,-52 426.21,-52 420.21,-52 414.21,-46 414.21,-40 414.21,-40 414.21,-28 414.21,-28 414.21,-22 420.21,-16 426.21,-16 426.21,-16 473.79,-16 473.79,-16 479.79,-16 485.79,-22 485.79,-28 485.79,-28 485.79,-40 485.79,-40 485.79,-46 479.79,-52 473.79,-52"/>
<text xml:space="preserve" text-anchor="middle" x="450" y="-31" font-family="Helvetica,sans-Serif" font-size="10.00">offDiagCoeff</text>
</a>
</g>
</g>
<!-- n5 -->
<g id="node5" class="node">
<title>n5</title>
<g id="a_node5"><a xlink:href="https://github.com/statopia/statlib/blob/main/Statlib/HighDim/Concentration/HansonWright.lean#L46" xlink:title="lemma · Statlib/HighDim/Concentration/HansonWright.lean:46" target="_blank">
<path fill="#eef2f6" stroke="#94a3b8" d="M321.11,-124C321.11,-124 132.89,-124 132.89,-124 126.89,-124 120.89,-118 120.89,-112 120.89,-112 120.89,-100 120.89,-100 120.89,-94 126.89,-88 132.89,-88 132.89,-88 321.11,-88 321.11,-88 327.11,-88 333.11,-94 333.11,-100 333.11,-100 333.11,-112 333.11,-112 333.11,-118 327.11,-124 321.11,-124"/>
<text xml:space="preserve" text-anchor="middle" x="227" y="-103" font-family="Helvetica,sans-Serif" font-size="10.00">decoupledOffDiagQuadForm_eq_sum_coeff</text>
</a>
</g>
</g>
<!-- n5&#45;&gt;n1 -->
<g id="edge1" class="edge">
<title>n5&#45;&gt;n1</title>
<path fill="none" stroke="#64748b" d="M192.28,-87.52C173.32,-77.97 149.69,-66.07 129.73,-56.01"/>
<polygon fill="#64748b" stroke="#64748b" points="130.98,-53.9 123.63,-52.94 128.78,-58.28 130.98,-53.9"/>
</g>
<!-- n5&#45;&gt;n4 -->
<g id="edge2" class="edge">
<title>n5&#45;&gt;n4</title>
<path fill="none" stroke="#64748b" d="M282.7,-87.52C320.84,-75.54 370.71,-59.89 406.05,-48.79"/>
<polygon fill="#64748b" stroke="#64748b" points="406.42,-51.25 412.37,-46.81 404.96,-46.57 406.42,-51.25"/>
</g>
<!-- n6 -->
<g id="node6" class="node">
<title>n6</title>
<g id="a_node6"><a xlink:href="https://github.com/statopia/statlib/blob/main/Statlib/HighDim/Vocabulary/Norms.lean#L32" xlink:title="lemma · Statlib/HighDim/Vocabulary/Norms.lean:32" target="_blank">
<path fill="#eef2f6" stroke="#94a3b8" d="M418.69,-124C418.69,-124 363.31,-124 363.31,-124 357.31,-124 351.31,-118 351.31,-112 351.31,-112 351.31,-100 351.31,-100 351.31,-94 357.31,-88 363.31,-88 363.31,-88 418.69,-88 418.69,-88 424.69,-88 430.69,-94 430.69,-100 430.69,-100 430.69,-112 430.69,-112 430.69,-118 424.69,-124 418.69,-124"/>
<text xml:space="preserve" text-anchor="middle" x="391" y="-103" font-family="Helvetica,sans-Serif" font-size="10.00">inner_eq_sum</text>
</a>
</g>
</g>
<!-- n7 -->
<g id="node7" class="node">
<title>n7</title>
<g id="a_node7"><a xlink:href="https://github.com/statopia/statlib/blob/main/Statlib/HighDim/Concentration/HansonWright.lean#L65" xlink:title="lemma · Statlib/HighDim/Concentration/HansonWright.lean:65" target="_blank">
<path fill="#eef2f6" stroke="#94a3b8" d="M342.79,-196C342.79,-196 151.21,-196 151.21,-196 145.21,-196 139.21,-190 139.21,-184 139.21,-184 139.21,-172 139.21,-172 139.21,-166 145.21,-160 151.21,-160 151.21,-160 342.79,-160 342.79,-160 348.79,-160 354.79,-166 354.79,-172 354.79,-172 354.79,-184 354.79,-184 354.79,-190 348.79,-196 342.79,-196"/>
<text xml:space="preserve" text-anchor="middle" x="247" y="-175" font-family="Helvetica,sans-Serif" font-size="10.00">decoupledOffDiagQuadForm_eq_inner_coeff</text>
</a>
</g>
</g>
<!-- n7&#45;&gt;n1 -->
<g id="edge3" class="edge">
<title>n7&#45;&gt;n1</title>
<path fill="none" stroke="#64748b" d="M167.28,-159.54C146.88,-151.67 126.61,-140.32 112,-124 96.45,-106.63 90.83,-80.2 88.87,-60.66"/>
<polygon fill="#64748b" stroke="#64748b" points="91.31,-60.51 88.32,-53.73 86.43,-60.9 91.31,-60.51"/>
</g>
<!-- n7&#45;&gt;n4 -->
<g id="edge4" class="edge">
<title>n7&#45;&gt;n4</title>
<path fill="none" stroke="#64748b" d="M349.76,-159.54C389.01,-150.73 427.38,-138.76 440,-124 454.79,-106.7 455.94,-80.1 454.21,-60.48"/>
<polygon fill="#64748b" stroke="#64748b" points="456.67,-60.47 453.45,-53.79 451.8,-61.02 456.67,-60.47"/>
</g>
<!-- n7&#45;&gt;n5 -->
<g id="edge5" class="edge">
<title>n7&#45;&gt;n5</title>
<path fill="none" stroke="#64748b" d="M242.06,-159.7C239.68,-151.39 236.79,-141.28 234.18,-132.14"/>
<polygon fill="#64748b" stroke="#64748b" points="236.58,-131.62 232.3,-125.56 231.87,-132.96 236.58,-131.62"/>
</g>
<!-- n7&#45;&gt;n6 -->
<g id="edge6" class="edge">
<title>n7&#45;&gt;n6</title>
<path fill="none" stroke="#64748b" d="M282.97,-159.52C302.7,-149.92 327.3,-137.96 348.04,-127.88"/>
<polygon fill="#64748b" stroke="#64748b" points="348.91,-130.19 354.13,-124.92 346.76,-125.78 348.91,-130.19"/>
</g>
<!-- n8 -->
<g id="node8" class="node">
<title>n8</title>
<g id="a_node8"><a xlink:href="https://github.com/statopia/statlib/blob/main/Statlib/HighDim/Concentration/HansonWright.lean#L39" xlink:title="lemma · Statlib/HighDim/Concentration/HansonWright.lean:39" target="_blank">
<path fill="#eef2f6" stroke="#94a3b8" d="M461.52,-196C461.52,-196 384.48,-196 384.48,-196 378.48,-196 372.48,-190 372.48,-184 372.48,-184 372.48,-172 372.48,-172 372.48,-166 378.48,-160 384.48,-160 384.48,-160 461.52,-160 461.52,-160 467.52,-160 473.52,-166 473.52,-172 473.52,-172 473.52,-184 473.52,-184 473.52,-190 467.52,-196 461.52,-196"/>
<text xml:space="preserve" text-anchor="middle" x="423" y="-175" font-family="Helvetica,sans-Serif" font-size="10.00">offDiagCoeff_const</text>
</a>
</g>
</g>
<!-- n8&#45;&gt;n2 -->
<g id="edge8" class="edge">
<title>n8&#45;&gt;n2</title>
<path fill="none" stroke="#64748b" d="M450.47,-159.52C465.15,-150.18 483.36,-138.59 498.93,-128.68"/>
<polygon fill="#64748b" stroke="#64748b" points="500.01,-130.9 504.6,-125.07 497.38,-126.76 500.01,-130.9"/>
</g>
<!-- n8&#45;&gt;n4 -->
<g id="edge7" class="edge">
<title>n8&#45;&gt;n4</title>
<path fill="none" stroke="#64748b" d="M436.56,-159.97C443.56,-150.09 451.37,-137.05 455,-124 460.78,-103.24 458.79,-78.74 455.78,-60.71"/>
<polygon fill="#64748b" stroke="#64748b" points="458.2,-60.34 454.52,-53.91 453.39,-61.23 458.2,-60.34"/>
</g>
<!-- n9 -->
<g id="node9" class="node">
<title>n9</title>
<g id="a_node9"><a xlink:href="https://github.com/statopia/statlib/blob/main/Statlib/HighDim/Concentration/HansonWright.lean#L73" xlink:title="lemma · Statlib/HighDim/Concentration/HansonWright.lean:73" target="_blank">
<path fill="#eef2f6" stroke="#94a3b8" d="M481.64,-268C481.64,-268 218.36,-268 218.36,-268 212.36,-268 206.36,-262 206.36,-256 206.36,-256 206.36,-244 206.36,-244 206.36,-238 212.36,-232 218.36,-232 218.36,-232 481.64,-232 481.64,-232 487.64,-232 493.64,-238 493.64,-244 493.64,-244 493.64,-256 493.64,-256 493.64,-262 487.64,-268 481.64,-268"/>
<text xml:space="preserve" text-anchor="middle" x="350" y="-247" font-family="Helvetica,sans-Serif" font-size="10.00">decoupledOffDiagQuadForm_const_right_eq_inner_coeffVec</text>
</a>
</g>
</g>
<!-- n9&#45;&gt;n1 -->
<g id="edge9" class="edge">
<title>n9&#45;&gt;n1</title>
<path fill="none" stroke="#64748b" d="M205.88,-232.33C178.83,-224.39 152.13,-212.82 130,-196 100.86,-173.84 99.58,-159.33 90,-124 84.37,-103.23 84.27,-78.73 85.35,-60.7"/>
<polygon fill="#64748b" stroke="#64748b" points="87.78,-61.08 85.85,-53.92 82.9,-60.72 87.78,-61.08"/>
</g>
<!-- n9&#45;&gt;n2 -->
<g id="edge10" class="edge">
<title>n9&#45;&gt;n2</title>
<path fill="none" stroke="#64748b" d="M418.85,-231.57C441.13,-223.45 464.77,-211.96 483,-196 493.6,-186.72 510.33,-154.63 521.48,-131.64"/>
<polygon fill="#64748b" stroke="#64748b" points="523.55,-132.98 524.37,-125.61 519.13,-130.86 523.55,-132.98"/>
</g>
<!-- n9&#45;&gt;n7 -->
<g id="edge11" class="edge">
<title>n9&#45;&gt;n7</title>
<path fill="none" stroke="#64748b" d="M324.27,-231.52C310.65,-222.26 293.79,-210.8 279.3,-200.95"/>
<polygon fill="#64748b" stroke="#64748b" points="280.82,-199.02 273.65,-197.11 278.06,-203.07 280.82,-199.02"/>
</g>
<!-- n9&#45;&gt;n8 -->
<g id="edge12" class="edge">
<title>n9&#45;&gt;n8</title>
<path fill="none" stroke="#64748b" d="M368.04,-231.7C377.35,-222.78 388.82,-211.78 398.87,-202.14"/>
<polygon fill="#64748b" stroke="#64748b" points="400.46,-204.01 403.82,-197.39 397.07,-200.47 400.46,-204.01"/>
</g>
<!-- n10 -->
<g id="node10" class="node">
<title>n10</title>
<g id="a_node10"><a xlink:href="https://github.com/statopia/statlib/blob/main/Statlib/HighDim/Concentration/HansonWright.lean#L80" xlink:title="lemma · Statlib/HighDim/Concentration/HansonWright.lean:80" target="_blank">
<path fill="#eef2f6" stroke="#94a3b8" d="M344.02,-340C344.02,-340 107.98,-340 107.98,-340 101.98,-340 95.98,-334 95.98,-328 95.98,-328 95.98,-316 95.98,-316 95.98,-310 101.98,-304 107.98,-304 107.98,-304 344.02,-304 344.02,-304 350.02,-304 356.02,-310 356.02,-316 356.02,-316 356.02,-328 356.02,-328 356.02,-334 350.02,-340 344.02,-340"/>
<text xml:space="preserve" text-anchor="middle" x="226" y="-319" font-family="Helvetica,sans-Serif" font-size="10.00">decoupledOffDiagQuadForm_const_right_subgaussian</text>
</a>
</g>
</g>
<!-- n10&#45;&gt;n0 -->
<g id="edge13" class="edge">
<title>n10&#45;&gt;n0</title>
<path fill="none" stroke="#64748b" d="M197.53,-303.52C182.31,-294.18 163.45,-282.59 147.31,-272.68"/>
<polygon fill="#64748b" stroke="#64748b" points="148.65,-270.63 141.4,-269.05 146.08,-274.8 148.65,-270.63"/>
</g>
<!-- n10&#45;&gt;n1 -->
<g id="edge14" class="edge">
<title>n10&#45;&gt;n1</title>
<path fill="none" stroke="#64748b" d="M216.64,-303.92C202.52,-278.17 177.37,-232.34 177,-232 148.34,-205.56 121.62,-226.24 97,-196 65.72,-157.57 73.39,-95.32 81.1,-60.56"/>
<polygon fill="#64748b" stroke="#64748b" points="83.47,-61.19 82.7,-53.81 78.7,-60.06 83.47,-61.19"/>
</g>
<!-- n10&#45;&gt;n2 -->
<g id="edge15" class="edge">
<title>n10&#45;&gt;n2</title>
<path fill="none" stroke="#64748b" d="M323.99,-303.57C402.36,-289.42 499.71,-271.3 503,-268 512.45,-258.5 524.25,-175.69 529.82,-132.69"/>
<polygon fill="#64748b" stroke="#64748b" points="532.22,-133.16 530.68,-125.9 527.36,-132.54 532.22,-133.16"/>
</g>
<!-- n10&#45;&gt;n9 -->
<g id="edge16" class="edge">
<title>n10&#45;&gt;n9</title>
<path fill="none" stroke="#64748b" d="M256.97,-303.52C273.67,-294.09 294.41,-282.38 312.07,-272.41"/>
<polygon fill="#64748b" stroke="#64748b" points="313.21,-274.58 318.11,-269 310.81,-270.31 313.21,-274.58"/>
</g>
<!-- n11 -->
<g id="node11" class="node">
<title>n11</title>
<g id="a_node11"><a xlink:href="https://github.com/statopia/statlib/blob/main/Statlib/HighDim/Concentration/HansonWright.lean#L118" xlink:title="lemma · Statlib/HighDim/Concentration/HansonWright.lean:118" target="_blank">
<path fill="#eef2f6" stroke="#94a3b8" d="M344.29,-413.2C344.29,-413.2 107.71,-413.2 107.71,-413.2 101.71,-413.2 95.71,-407.2 95.71,-401.2 95.71,-401.2 95.71,-389.2 95.71,-389.2 95.71,-383.2 101.71,-377.2 107.71,-377.2 107.71,-377.2 344.29,-377.2 344.29,-377.2 350.29,-377.2 356.29,-383.2 356.29,-389.2 356.29,-389.2 356.29,-401.2 356.29,-401.2 356.29,-407.2 350.29,-413.2 344.29,-413.2"/>
<text xml:space="preserve" text-anchor="middle" x="226" y="-392.2" font-family="Helvetica,sans-Serif" font-size="10.00">decoupledOffDiagQuadForm_const_right_abs_tail_real</text>
</a>
</g>
</g>
<!-- n11&#45;&gt;n0 -->
<g id="edge17" class="edge">
<title>n11&#45;&gt;n0</title>
<path fill="none" stroke="#64748b" d="M97.8,-376.75C93.07,-374.52 89.36,-372.02 87,-369.2 64.96,-342.84 81.37,-301.81 96.04,-275.68"/>
<polygon fill="#64748b" stroke="#64748b" points="98.11,-276.99 99.53,-269.72 93.88,-274.52 98.11,-276.99"/>
</g>
<!-- n11&#45;&gt;n1 -->
<g id="edge18" class="edge">
<title>n11&#45;&gt;n1</title>
<path fill="none" stroke="#64748b" d="M95.22,-379.83C84.99,-376.91 76.78,-373.41 72,-369.2 30.88,-332.99 37,-305.79 37,-251 37,-251 37,-251 37,-177 37,-133.66 58.3,-87.03 73.37,-59.47"/>
<polygon fill="#64748b" stroke="#64748b" points="75.41,-60.84 76.69,-53.53 71.13,-58.44 75.41,-60.84"/>
</g>
<!-- n11&#45;&gt;n2 -->
<g id="edge19" class="edge">
<title>n11&#45;&gt;n2</title>
<path fill="none" stroke="#64748b" d="M350.64,-376.73C356.78,-374.5 361.75,-372 365,-369.2 391.08,-346.8 364.45,-319 390,-296 431.68,-258.5 473.72,-308.01 513,-268 548.26,-232.09 544.04,-167.88 538.28,-132.36"/>
<polygon fill="#64748b" stroke="#64748b" points="540.77,-132.37 537.14,-125.9 535.94,-133.21 540.77,-132.37"/>
</g>
<!-- n11&#45;&gt;n10 -->
<g id="edge21" class="edge">
<title>n11&#45;&gt;n10</title>
<path fill="none" stroke="#64748b" d="M226,-376.96C226,-368.39 226,-357.87 226,-348.39"/>
<polygon fill="#64748b" stroke="#64748b" points="228.45,-348.59 226,-341.59 223.55,-348.59 228.45,-348.59"/>
</g>
<!-- n3 -->
<g id="node14" class="node">
<title>n3</title>
<g id="a_node14"><a xlink:href="https://github.com/statopia/statlib/blob/main/Statlib/StatFoundation/Concentration/ExponentialType/subgaussian_abs_tail_real.lean#L11" xlink:title="lemma · Statlib/StatFoundation/Concentration/ExponentialType/subgaussian_abs_tail_real.lean:11" target="_blank">
<path fill="#eef2f6" stroke="#94a3b8" d="M820.21,-340C820.21,-340 709.79,-340 709.79,-340 703.79,-340 697.79,-334 697.79,-328 697.79,-328 697.79,-316 697.79,-316 697.79,-310 703.79,-304 709.79,-304 709.79,-304 820.21,-304 820.21,-304 826.21,-304 832.21,-310 832.21,-316 832.21,-316 832.21,-328 832.21,-328 832.21,-334 826.21,-340 820.21,-340"/>
<text xml:space="preserve" text-anchor="middle" x="765" y="-319" font-family="Helvetica,sans-Serif" font-size="10.00">subgaussian_abs_tail_real</text>
</a>
</g>
</g>
<!-- n11&#45;&gt;n3 -->
<g id="edge20" class="edge">
<title>n11&#45;&gt;n3</title>
<path fill="none" stroke="#64748b" d="M356.58,-393.92C470.53,-392.43 626.64,-387.03 686,-369.2 703.36,-363.99 720.94,-354.24 735.1,-345.04"/>
<polygon fill="#64748b" stroke="#64748b" points="736.46,-347.08 740.91,-341.15 733.73,-343.01 736.46,-347.08"/>
</g>
<!-- n12 -->
<g id="node12" class="node">
<title>n12</title>
<g id="a_node12"><a xlink:href="https://github.com/statopia/statlib/blob/main/Statlib/HighDim/Concentration/HansonWright.lean#L131" xlink:title="lemma · Statlib/HighDim/Concentration/HansonWright.lean:131" target="_blank">
<path fill="#eef2f6" stroke="#94a3b8" d="M661.74,-340C661.74,-340 426.26,-340 426.26,-340 420.26,-340 414.26,-334 414.26,-328 414.26,-328 414.26,-316 414.26,-316 414.26,-310 420.26,-304 426.26,-304 426.26,-304 661.74,-304 661.74,-304 667.74,-304 673.74,-310 673.74,-316 673.74,-316 673.74,-328 673.74,-328 673.74,-334 667.74,-340 661.74,-340"/>
<text xml:space="preserve" text-anchor="middle" x="544" y="-319" font-family="Helvetica,sans-Serif" font-size="10.00">decoupledOffDiagQuadForm_prod_mk_eq_const_right</text>
</a>
</g>
</g>
<!-- n12&#45;&gt;n1 -->
<g id="edge22" class="edge">
<title>n12&#45;&gt;n1</title>
<path fill="none" stroke="#64748b" d="M555.43,-303.78C582.11,-261.29 642.07,-150.35 586,-88 558.65,-57.58 302.41,-43.25 168.57,-37.78"/>
<polygon fill="#64748b" stroke="#64748b" points="168.93,-35.35 161.84,-37.51 168.73,-40.24 168.93,-35.35"/>
</g>
<!-- n13 -->
<g id="node13" class="node">
<title>n13</title>
<g id="a_node13"><a xlink:href="https://github.com/statopia/statlib/blob/main/Statlib/HighDim/Concentration/HansonWright.lean#L142" xlink:title="lemma · Statlib/HighDim/Concentration/HansonWright.lean:142" target="_blank">
<path fill="#eef2f6" stroke="#94a3b8" stroke-width="3" d="M359.3,-485.2C359.3,-485.2 92.7,-485.2 92.7,-485.2 86.7,-485.2 80.7,-479.2 80.7,-473.2 80.7,-473.2 80.7,-461.2 80.7,-461.2 80.7,-455.2 86.7,-449.2 92.7,-449.2 92.7,-449.2 359.3,-449.2 359.3,-449.2 365.3,-449.2 371.3,-455.2 371.3,-461.2 371.3,-461.2 371.3,-473.2 371.3,-473.2 371.3,-479.2 365.3,-485.2 359.3,-485.2"/>
<text xml:space="preserve" text-anchor="middle" x="226" y="-464.2" font-family="Helvetica,sans-Serif" font-size="10.00">decoupledOffDiagQuadForm_prod_first_section_abs_tail_real</text>
</a>
</g>
</g>
<!-- n13&#45;&gt;n0 -->
<g id="edge23" class="edge">
<title>n13&#45;&gt;n0</title>
<path fill="none" stroke="#64748b" d="M142.48,-447.72C122.21,-439.88 102.06,-428.81 87,-413.2 50.54,-375.41 53.34,-345.09 72,-296 75.01,-288.09 80.12,-280.67 85.7,-274.24"/>
<polygon fill="#64748b" stroke="#64748b" points="87.36,-276.05 90.34,-269.26 83.78,-272.71 87.36,-276.05"/>
</g>
<!-- n13&#45;&gt;n1 -->
<g id="edge24" class="edge">
<title>n13&#45;&gt;n1</title>
<path fill="none" stroke="#64748b" d="M127.35,-447.84C103.25,-440.02 78.75,-428.92 59,-413.2 24.4,-385.66 17,-367.22 17,-323 17,-323 17,-323 17,-177 17,-135.79 23.46,-124.28 43,-88 48.71,-77.4 56.81,-67.01 64.56,-58.28"/>
<polygon fill="#64748b" stroke="#64748b" points="66.16,-60.16 69.08,-53.35 62.55,-56.85 66.16,-60.16"/>
</g>
<!-- n13&#45;&gt;n2 -->
<g id="edge25" class="edge">
<title>n13&#45;&gt;n2</title>
<path fill="none" stroke="#64748b" d="M307.09,-447.79C327.96,-439.92 349.01,-428.81 365,-413.2 404.38,-374.75 364.78,-333.57 405,-296 445.97,-257.73 487.68,-306.96 528,-268 564.02,-233.19 552.08,-168.26 541.66,-132.41"/>
<polygon fill="#64748b" stroke="#64748b" points="544.04,-131.81 539.65,-125.83 539.35,-133.24 544.04,-131.81"/>
</g>
<!-- n13&#45;&gt;n11 -->
<g id="edge26" class="edge">
<title>n13&#45;&gt;n11</title>
<path fill="none" stroke="#64748b" d="M226,-447.81C226,-439.79 226,-430.25 226,-421.57"/>
<polygon fill="#64748b" stroke="#64748b" points="228.45,-421.78 226,-414.78 223.55,-421.78 228.45,-421.78"/>
</g>
<!-- n13&#45;&gt;n12 -->
<g id="edge27" class="edge">
<title>n13&#45;&gt;n12</title>
<path fill="none" stroke="#64748b" d="M302.11,-447.72C333.15,-438.99 368.97,-427.34 400,-413.2 441.57,-394.25 485.55,-365.22 513.8,-345.24"/>
<polygon fill="#64748b" stroke="#64748b" points="515.13,-347.3 519.41,-341.24 512.28,-343.31 515.13,-347.3"/>
</g>
</g>
</svg>
