<?xml version="1.0" encoding="UTF-8" standalone="no"?>
<!DOCTYPE svg PUBLIC "-//W3C//DTD SVG 1.1//EN"
 "http://www.w3.org/Graphics/SVG/1.1/DTD/svg11.dtd">
<!-- Generated by graphviz version 15.0.0 (20260523.1842)
 -->
<!-- Title: decoupledOffDiagQuadForm_prod_tail_le_markov_plus_good_ofReal Pages: 1 -->
<svg width="2425pt" height="699pt"
 viewBox="0.00 0.00 2425.00 699.00" xmlns="http://www.w3.org/2000/svg" xmlns:xlink="http://www.w3.org/1999/xlink">
<g id="graph0" class="graph" transform="scale(1 1) rotate(0) translate(4 695.2)">
<title>decoupledOffDiagQuadForm_prod_tail_le_markov_plus_good_ofReal</title>
<polygon fill="white" stroke="none" points="-4,4 -4,-695.2 2421,-695.2 2421,4 -4,4"/>
<text xml:space="preserve" text-anchor="middle" x="1208.5" y="-674.6" font-family="Helvetica,sans-Serif" font-size="14.00">Proof narrative — decoupledOffDiagQuadForm_prod_tail_le_markov_plus_good_ofReal &#160;(38 decls)</text>
<g id="clust1" class="cluster">
<title>cluster_0</title>
<path fill="none" stroke="#cbd5e1" stroke-dasharray="5,2" d="M20,-8C20,-8 2245,-8 2245,-8 2251,-8 2257,-14 2257,-20 2257,-20 2257,-646.4 2257,-646.4 2257,-652.4 2251,-658.4 2245,-658.4 2245,-658.4 20,-658.4 20,-658.4 14,-658.4 8,-652.4 8,-646.4 8,-646.4 8,-20 8,-20 8,-14 14,-8 20,-8"/>
<text xml:space="preserve" text-anchor="middle" x="1132.5" y="-644.5" font-family="Helvetica,sans-Serif" font-size="11.00">HighDim</text>
</g>
<g id="clust2" class="cluster">
<title>cluster_1</title>
<path fill="none" stroke="#cbd5e1" stroke-dasharray="5,2" d="M2277,-224C2277,-224 2397,-224 2397,-224 2403,-224 2409,-230 2409,-236 2409,-236 2409,-285.2 2409,-285.2 2409,-291.2 2403,-297.2 2397,-297.2 2397,-297.2 2277,-297.2 2277,-297.2 2271,-297.2 2265,-291.2 2265,-285.2 2265,-285.2 2265,-236 2265,-236 2265,-230 2271,-224 2277,-224"/>
<text xml:space="preserve" text-anchor="middle" x="2337" y="-283.3" font-family="Helvetica,sans-Serif" font-size="11.00">StatFoundation</text>
</g>
<!-- n0 -->
<g id="node1" class="node">
<title>n0</title>
<g id="a_node1"><a xlink:href="vscode://vscode-remote/wsl+Ubuntu/home/gavin/statlib/Statlib/HighDim/Vocabulary/RandomVector.lean:52" xlink:title="structure · Statlib/HighDim/Vocabulary/RandomVector.lean:52" target="_blank">
<path fill="#e8dcff" stroke="#8b5cf6" d="M1260.36,-268C1260.36,-268 1171.64,-268 1171.64,-268 1165.64,-268 1159.64,-262 1159.64,-256 1159.64,-256 1159.64,-244 1159.64,-244 1159.64,-238 1165.64,-232 1171.64,-232 1171.64,-232 1260.36,-232 1260.36,-232 1266.36,-232 1272.36,-238 1272.36,-244 1272.36,-244 1272.36,-256 1272.36,-256 1272.36,-262 1266.36,-268 1260.36,-268"/>
<text xml:space="preserve" text-anchor="middle" x="1216" y="-247" font-family="Helvetica,sans-Serif" font-size="10.00">IsSubGaussianVector</text>
</a>
</g>
</g>
<!-- n1 -->
<g id="node2" class="node">
<title>n1</title>
<g id="a_node2"><a xlink:href="vscode://vscode-remote/wsl+Ubuntu/home/gavin/statlib/Statlib/HighDim/Vocabulary/QuadraticForms.lean:33" xlink:title="noncomputable def · Statlib/HighDim/Vocabulary/QuadraticForms.lean:33" target="_blank">
<path fill="#d6e9ff" stroke="#3b82f6" d="M1989.92,-52C1989.92,-52 1870.08,-52 1870.08,-52 1864.08,-52 1858.08,-46 1858.08,-40 1858.08,-40 1858.08,-28 1858.08,-28 1858.08,-22 1864.08,-16 1870.08,-16 1870.08,-16 1989.92,-16 1989.92,-16 1995.92,-16 2001.92,-22 2001.92,-28 2001.92,-28 2001.92,-40 2001.92,-40 2001.92,-46 1995.92,-52 1989.92,-52"/>
<text xml:space="preserve" text-anchor="middle" x="1930" y="-31" font-family="Helvetica,sans-Serif" font-size="10.00">decoupledOffDiagQuadForm</text>
</a>
</g>
</g>
<!-- n2 -->
<g id="node3" class="node">
<title>n2</title>
<g id="a_node3"><a xlink:href="vscode://vscode-remote/wsl+Ubuntu/home/gavin/statlib/Statlib/HighDim/Vocabulary/Norms.lean:37" xlink:title="noncomputable def · Statlib/HighDim/Vocabulary/Norms.lean:37" target="_blank">
<path fill="#d6e9ff" stroke="#3b82f6" d="M104.91,-268C104.91,-268 35.09,-268 35.09,-268 29.09,-268 23.09,-262 23.09,-256 23.09,-256 23.09,-244 23.09,-244 23.09,-238 29.09,-232 35.09,-232 35.09,-232 104.91,-232 104.91,-232 110.91,-232 116.91,-238 116.91,-244 116.91,-244 116.91,-256 116.91,-256 116.91,-262 110.91,-268 104.91,-268"/>
<text xml:space="preserve" text-anchor="middle" x="70" y="-247" font-family="Helvetica,sans-Serif" font-size="10.00">frobeniusNormSq</text>
</a>
</g>
</g>
<!-- n3 -->
<g id="node4" class="node">
<title>n3</title>
<g id="a_node4"><a xlink:href="vscode://vscode-remote/wsl+Ubuntu/home/gavin/statlib/Statlib/HighDim/Concentration/HansonWright.lean:450" xlink:title="lemma · Statlib/HighDim/Concentration/HansonWright.lean:450" target="_blank">
<path fill="#eef2f6" stroke="#94a3b8" d="M585.37,-557.2C585.37,-557.2 476.63,-557.2 476.63,-557.2 470.63,-557.2 464.63,-551.2 464.63,-545.2 464.63,-545.2 464.63,-533.2 464.63,-533.2 464.63,-527.2 470.63,-521.2 476.63,-521.2 476.63,-521.2 585.37,-521.2 585.37,-521.2 591.37,-521.2 597.37,-527.2 597.37,-533.2 597.37,-533.2 597.37,-545.2 597.37,-545.2 597.37,-551.2 591.37,-557.2 585.37,-557.2"/>
<text xml:space="preserve" text-anchor="middle" x="531" y="-536.2" font-family="Helvetica,sans-Serif" font-size="10.00">frobeniusNormSq_nonneg</text>
</a>
</g>
</g>
<!-- n3&#45;&gt;n2 -->
<g id="edge1" class="edge">
<title>n3&#45;&gt;n2</title>
<path fill="none" stroke="#64748b" d="M464.6,-535.68C339.52,-530.24 79.03,-515.39 52,-485.2 -0.46,-426.61 36.33,-323.4 57.68,-276.03"/>
<polygon fill="#64748b" stroke="#64748b" points="59.86,-277.15 60.57,-269.77 55.41,-275.09 59.86,-277.15"/>
</g>
<!-- n4 -->
<g id="node5" class="node">
<title>n4</title>
<g id="a_node5"><a xlink:href="vscode://vscode-remote/wsl+Ubuntu/home/gavin/statlib/Statlib/HighDim/Vocabulary/QuadraticForms.lean:46" xlink:title="noncomputable def · Statlib/HighDim/Vocabulary/QuadraticForms.lean:46" target="_blank">
<path fill="#d6e9ff" stroke="#3b82f6" d="M1244.41,-124C1244.41,-124 1179.59,-124 1179.59,-124 1173.59,-124 1167.59,-118 1167.59,-112 1167.59,-112 1167.59,-100 1167.59,-100 1167.59,-94 1173.59,-88 1179.59,-88 1179.59,-88 1244.41,-88 1244.41,-88 1250.41,-88 1256.41,-94 1256.41,-100 1256.41,-100 1256.41,-112 1256.41,-112 1256.41,-118 1250.41,-124 1244.41,-124"/>
<text xml:space="preserve" text-anchor="middle" x="1212" y="-103" font-family="Helvetica,sans-Serif" font-size="10.00">offDiagCoeffVec</text>
</a>
</g>
</g>
<!-- n5 -->
<g id="node6" class="node">
<title>n5</title>
<g id="a_node6"><a xlink:href="vscode://vscode-remote/wsl+Ubuntu/home/gavin/statlib/Statlib/HighDim/Concentration/HansonWright.lean:86" xlink:title="lemma · Statlib/HighDim/Concentration/HansonWright.lean:86" target="_blank">
<path fill="#eef2f6" stroke="#94a3b8" d="M2178.83,-124C2178.83,-124 2001.17,-124 2001.17,-124 1995.17,-124 1989.17,-118 1989.17,-112 1989.17,-112 1989.17,-100 1989.17,-100 1989.17,-94 1995.17,-88 2001.17,-88 2001.17,-88 2178.83,-88 2178.83,-88 2184.83,-88 2190.83,-94 2190.83,-100 2190.83,-100 2190.83,-112 2190.83,-112 2190.83,-118 2184.83,-124 2178.83,-124"/>
<text xml:space="preserve" text-anchor="middle" x="2090" y="-103" font-family="Helvetica,sans-Serif" font-size="10.00">decoupledOffDiagQuadForm_measurable</text>
</a>
</g>
</g>
<!-- n5&#45;&gt;n1 -->
<g id="edge2" class="edge">
<title>n5&#45;&gt;n1</title>
<path fill="none" stroke="#64748b" d="M2050.04,-87.52C2028,-77.88 2000.5,-65.84 1977.39,-55.73"/>
<polygon fill="#64748b" stroke="#64748b" points="1978.51,-53.55 1971.12,-52.99 1976.55,-58.04 1978.51,-53.55"/>
</g>
<!-- n6 -->
<g id="node7" class="node">
<title>n6</title>
<g id="a_node7"><a xlink:href="vscode://vscode-remote/wsl+Ubuntu/home/gavin/statlib/Statlib/HighDim/Concentration/HansonWright.lean:95" xlink:title="lemma · Statlib/HighDim/Concentration/HansonWright.lean:95" target="_blank">
<path fill="#eef2f6" stroke="#94a3b8" d="M2184.62,-196C2184.62,-196 1981.38,-196 1981.38,-196 1975.38,-196 1969.38,-190 1969.38,-184 1969.38,-184 1969.38,-172 1969.38,-172 1969.38,-166 1975.38,-160 1981.38,-160 1981.38,-160 2184.62,-160 2184.62,-160 2190.62,-160 2196.62,-166 2196.62,-172 2196.62,-172 2196.62,-184 2196.62,-184 2196.62,-190 2190.62,-196 2184.62,-196"/>
<text xml:space="preserve" text-anchor="middle" x="2083" y="-175" font-family="Helvetica,sans-Serif" font-size="10.00">decoupledOffDiagQuadForm_prod_measurable</text>
</a>
</g>
</g>
<!-- n6&#45;&gt;n1 -->
<g id="edge3" class="edge">
<title>n6&#45;&gt;n1</title>
<path fill="none" stroke="#64748b" d="M2035.47,-159.57C2016.6,-150.97 1995.71,-139.14 1980,-124 1969.91,-114.28 1953.21,-82.61 1941.91,-59.82"/>
<polygon fill="#64748b" stroke="#64748b" points="1944.26,-59.03 1938.97,-53.83 1939.86,-61.19 1944.26,-59.03"/>
</g>
<!-- n6&#45;&gt;n5 -->
<g id="edge4" class="edge">
<title>n6&#45;&gt;n5</title>
<path fill="none" stroke="#64748b" d="M2084.73,-159.7C2085.55,-151.47 2086.55,-141.48 2087.46,-132.42"/>
<polygon fill="#64748b" stroke="#64748b" points="2089.88,-132.82 2088.14,-125.61 2085,-132.33 2089.88,-132.82"/>
</g>
<!-- n7 -->
<g id="node8" class="node">
<title>n7</title>
<g id="a_node8"><a xlink:href="vscode://vscode-remote/wsl+Ubuntu/home/gavin/statlib/Statlib/HighDim/Concentration/HansonWright.lean:105" xlink:title="lemma · Statlib/HighDim/Concentration/HansonWright.lean:105" target="_blank">
<path fill="#eef2f6" stroke="#94a3b8" d="M2197.29,-268C2197.29,-268 1960.71,-268 1960.71,-268 1954.71,-268 1948.71,-262 1948.71,-256 1948.71,-256 1948.71,-244 1948.71,-244 1948.71,-238 1954.71,-232 1960.71,-232 1960.71,-232 2197.29,-232 2197.29,-232 2203.29,-232 2209.29,-238 2209.29,-244 2209.29,-244 2209.29,-256 2209.29,-256 2209.29,-262 2203.29,-268 2197.29,-268"/>
<text xml:space="preserve" text-anchor="middle" x="2079" y="-247" font-family="Helvetica,sans-Serif" font-size="10.00">decoupledOffDiagQuadForm_prod_tail_measurableSet</text>
</a>
</g>
</g>
<!-- n7&#45;&gt;n1 -->
<g id="edge5" class="edge">
<title>n7&#45;&gt;n1</title>
<path fill="none" stroke="#64748b" d="M2010.62,-231.6C1991.68,-223.65 1972.82,-212.25 1960,-196 1951.7,-185.48 1939.36,-103.15 1933.42,-60.47"/>
<polygon fill="#64748b" stroke="#64748b" points="1935.88,-60.35 1932.5,-53.75 1931.03,-61.02 1935.88,-60.35"/>
</g>
<!-- n7&#45;&gt;n6 -->
<g id="edge6" class="edge">
<title>n7&#45;&gt;n6</title>
<path fill="none" stroke="#64748b" d="M2079.99,-231.7C2080.46,-223.47 2081.03,-213.48 2081.55,-204.42"/>
<polygon fill="#64748b" stroke="#64748b" points="2083.98,-204.74 2081.94,-197.62 2079.09,-204.46 2083.98,-204.74"/>
</g>
<!-- n8 -->
<g id="node9" class="node">
<title>n8</title>
<g id="a_node9"><a xlink:href="vscode://vscode-remote/wsl+Ubuntu/home/gavin/statlib/Statlib/HighDim/Concentration/HansonWright.lean:670" xlink:title="lemma · Statlib/HighDim/Concentration/HansonWright.lean:670" target="_blank">
<path fill="#eef2f6" stroke="#94a3b8" d="M1405.32,-196C1405.32,-196 1252.68,-196 1252.68,-196 1246.68,-196 1240.68,-190 1240.68,-184 1240.68,-184 1240.68,-172 1240.68,-172 1240.68,-166 1246.68,-160 1252.68,-160 1252.68,-160 1405.32,-160 1405.32,-160 1411.32,-160 1417.32,-166 1417.32,-172 1417.32,-172 1417.32,-184 1417.32,-184 1417.32,-190 1411.32,-196 1405.32,-196"/>
<text xml:space="preserve" text-anchor="middle" x="1329" y="-175" font-family="Helvetica,sans-Serif" font-size="10.00">offDiagCoeffVec_comp_measurable</text>
</a>
</g>
</g>
<!-- n8&#45;&gt;n4 -->
<g id="edge7" class="edge">
<title>n8&#45;&gt;n4</title>
<path fill="none" stroke="#64748b" d="M1299.78,-159.52C1284.02,-150.09 1264.45,-138.38 1247.79,-128.41"/>
<polygon fill="#64748b" stroke="#64748b" points="1249.41,-126.53 1242.15,-125.04 1246.9,-130.73 1249.41,-126.53"/>
</g>
<!-- n9 -->
<g id="node10" class="node">
<title>n9</title>
<g id="a_node10"><a xlink:href="vscode://vscode-remote/wsl+Ubuntu/home/gavin/statlib/Statlib/HighDim/Concentration/HansonWright.lean:678" xlink:title="lemma · Statlib/HighDim/Concentration/HansonWright.lean:678" target="_blank">
<path fill="#eef2f6" stroke="#94a3b8" d="M1489.55,-268C1489.55,-268 1322.45,-268 1322.45,-268 1316.45,-268 1310.45,-262 1310.45,-256 1310.45,-256 1310.45,-244 1310.45,-244 1310.45,-238 1316.45,-232 1322.45,-232 1322.45,-232 1489.55,-232 1489.55,-232 1495.55,-232 1501.55,-238 1501.55,-244 1501.55,-244 1501.55,-256 1501.55,-256 1501.55,-262 1495.55,-268 1489.55,-268"/>
<text xml:space="preserve" text-anchor="middle" x="1406" y="-247" font-family="Helvetica,sans-Serif" font-size="10.00">offDiagCoeffVec_norm_sq_measurable</text>
</a>
</g>
</g>
<!-- n9&#45;&gt;n4 -->
<g id="edge8" class="edge">
<title>n9&#45;&gt;n4</title>
<path fill="none" stroke="#64748b" d="M1337.27,-231.59C1291.96,-219.52 1239.6,-204.19 1232,-196 1216.31,-179.09 1212,-152.6 1211.2,-132.91"/>
<polygon fill="#64748b" stroke="#64748b" points="1213.65,-132.88 1211.08,-125.92 1208.75,-132.96 1213.65,-132.88"/>
</g>
<!-- n9&#45;&gt;n8 -->
<g id="edge9" class="edge">
<title>n9&#45;&gt;n8</title>
<path fill="none" stroke="#64748b" d="M1386.97,-231.7C1377.06,-222.69 1364.83,-211.57 1354.16,-201.87"/>
<polygon fill="#64748b" stroke="#64748b" points="1356.03,-200.26 1349.2,-197.37 1352.73,-203.89 1356.03,-200.26"/>
</g>
<!-- n10 -->
<g id="node11" class="node">
<title>n10</title>
<g id="a_node11"><a xlink:href="vscode://vscode-remote/wsl+Ubuntu/home/gavin/statlib/Statlib/HighDim/Concentration/HansonWright.lean:156" xlink:title="lemma · Statlib/HighDim/Concentration/HansonWright.lean:156" target="_blank">
<path fill="#eef2f6" stroke="#94a3b8" d="M1706.43,-341.2C1706.43,-341.2 1571.57,-341.2 1571.57,-341.2 1565.57,-341.2 1559.57,-335.2 1559.57,-329.2 1559.57,-329.2 1559.57,-317.2 1559.57,-317.2 1559.57,-311.2 1565.57,-305.2 1571.57,-305.2 1571.57,-305.2 1706.43,-305.2 1706.43,-305.2 1712.43,-305.2 1718.43,-311.2 1718.43,-317.2 1718.43,-317.2 1718.43,-329.2 1718.43,-329.2 1718.43,-335.2 1712.43,-341.2 1706.43,-341.2"/>
<text xml:space="preserve" text-anchor="middle" x="1639" y="-320.2" font-family="Helvetica,sans-Serif" font-size="10.00">subgaussian_mgf_mono_param</text>
</a>
</g>
</g>
<!-- n11 -->
<g id="node12" class="node">
<title>n11</title>
<g id="a_node12"><a xlink:href="vscode://vscode-remote/wsl+Ubuntu/home/gavin/statlib/Statlib/HighDim/Vocabulary/QuadraticForms.lean:39" xlink:title="noncomputable def · Statlib/HighDim/Vocabulary/QuadraticForms.lean:39" target="_blank">
<path fill="#d6e9ff" stroke="#3b82f6" d="M1623.79,-52C1623.79,-52 1576.21,-52 1576.21,-52 1570.21,-52 1564.21,-46 1564.21,-40 1564.21,-40 1564.21,-28 1564.21,-28 1564.21,-22 1570.21,-16 1576.21,-16 1576.21,-16 1623.79,-16 1623.79,-16 1629.79,-16 1635.79,-22 1635.79,-28 1635.79,-28 1635.79,-40 1635.79,-40 1635.79,-46 1629.79,-52 1623.79,-52"/>
<text xml:space="preserve" text-anchor="middle" x="1600" y="-31" font-family="Helvetica,sans-Serif" font-size="10.00">offDiagCoeff</text>
</a>
</g>
</g>
<!-- n12 -->
<g id="node13" class="node">
<title>n12</title>
<g id="a_node13"><a xlink:href="vscode://vscode-remote/wsl+Ubuntu/home/gavin/statlib/Statlib/HighDim/Concentration/HansonWright.lean:42" xlink:title="lemma · Statlib/HighDim/Concentration/HansonWright.lean:42" target="_blank">
<path fill="#eef2f6" stroke="#94a3b8" d="M1819.11,-124C1819.11,-124 1630.89,-124 1630.89,-124 1624.89,-124 1618.89,-118 1618.89,-112 1618.89,-112 1618.89,-100 1618.89,-100 1618.89,-94 1624.89,-88 1630.89,-88 1630.89,-88 1819.11,-88 1819.11,-88 1825.11,-88 1831.11,-94 1831.11,-100 1831.11,-100 1831.11,-112 1831.11,-112 1831.11,-118 1825.11,-124 1819.11,-124"/>
<text xml:space="preserve" text-anchor="middle" x="1725" y="-103" font-family="Helvetica,sans-Serif" font-size="10.00">decoupledOffDiagQuadForm_eq_sum_coeff</text>
</a>
</g>
</g>
<!-- n12&#45;&gt;n1 -->
<g id="edge10" class="edge">
<title>n12&#45;&gt;n1</title>
<path fill="none" stroke="#64748b" d="M1776.2,-87.52C1805.05,-77.67 1841.2,-65.32 1871.21,-55.07"/>
<polygon fill="#64748b" stroke="#64748b" points="1871.83,-57.45 1877.66,-52.87 1870.25,-52.81 1871.83,-57.45"/>
</g>
<!-- n12&#45;&gt;n11 -->
<g id="edge11" class="edge">
<title>n12&#45;&gt;n11</title>
<path fill="none" stroke="#64748b" d="M1693.78,-87.52C1676.95,-78.09 1656.04,-66.38 1638.24,-56.41"/>
<polygon fill="#64748b" stroke="#64748b" points="1639.45,-54.28 1632.14,-53 1637.05,-58.56 1639.45,-54.28"/>
</g>
<!-- n13 -->
<g id="node14" class="node">
<title>n13</title>
<g id="a_node14"><a xlink:href="vscode://vscode-remote/wsl+Ubuntu/home/gavin/statlib/Statlib/HighDim/Vocabulary/Norms.lean:32" xlink:title="lemma · Statlib/HighDim/Vocabulary/Norms.lean:32" target="_blank">
<path fill="#eef2f6" stroke="#94a3b8" d="M1568.69,-124C1568.69,-124 1513.31,-124 1513.31,-124 1507.31,-124 1501.31,-118 1501.31,-112 1501.31,-112 1501.31,-100 1501.31,-100 1501.31,-94 1507.31,-88 1513.31,-88 1513.31,-88 1568.69,-88 1568.69,-88 1574.69,-88 1580.69,-94 1580.69,-100 1580.69,-100 1580.69,-112 1580.69,-112 1580.69,-118 1574.69,-124 1568.69,-124"/>
<text xml:space="preserve" text-anchor="middle" x="1541" y="-103" font-family="Helvetica,sans-Serif" font-size="10.00">inner_eq_sum</text>
</a>
</g>
</g>
<!-- n14 -->
<g id="node15" class="node">
<title>n14</title>
<g id="a_node15"><a xlink:href="vscode://vscode-remote/wsl+Ubuntu/home/gavin/statlib/Statlib/HighDim/Concentration/HansonWright.lean:61" xlink:title="lemma · Statlib/HighDim/Concentration/HansonWright.lean:61" target="_blank">
<path fill="#eef2f6" stroke="#94a3b8" d="M1838.79,-196C1838.79,-196 1647.21,-196 1647.21,-196 1641.21,-196 1635.21,-190 1635.21,-184 1635.21,-184 1635.21,-172 1635.21,-172 1635.21,-166 1641.21,-160 1647.21,-160 1647.21,-160 1838.79,-160 1838.79,-160 1844.79,-160 1850.79,-166 1850.79,-172 1850.79,-172 1850.79,-184 1850.79,-184 1850.79,-190 1844.79,-196 1838.79,-196"/>
<text xml:space="preserve" text-anchor="middle" x="1743" y="-175" font-family="Helvetica,sans-Serif" font-size="10.00">decoupledOffDiagQuadForm_eq_inner_coeff</text>
</a>
</g>
</g>
<!-- n14&#45;&gt;n1 -->
<g id="edge12" class="edge">
<title>n14&#45;&gt;n1</title>
<path fill="none" stroke="#64748b" d="M1784.4,-159.66C1802.71,-150.73 1823.73,-138.62 1840,-124 1854.49,-110.98 1851.77,-102.29 1865,-88 1875.17,-77.01 1887.66,-66.3 1898.96,-57.42"/>
<polygon fill="#64748b" stroke="#64748b" points="1900.21,-59.55 1904.25,-53.33 1897.21,-55.67 1900.21,-59.55"/>
</g>
<!-- n14&#45;&gt;n11 -->
<g id="edge13" class="edge">
<title>n14&#45;&gt;n11</title>
<path fill="none" stroke="#64748b" d="M1660.02,-159.57C1640.89,-151.74 1622.51,-140.4 1610,-124 1596.34,-106.1 1594.94,-79.97 1596.29,-60.65"/>
<polygon fill="#64748b" stroke="#64748b" points="1598.72,-61.01 1596.93,-53.81 1593.84,-60.55 1598.72,-61.01"/>
</g>
<!-- n14&#45;&gt;n12 -->
<g id="edge14" class="edge">
<title>n14&#45;&gt;n12</title>
<path fill="none" stroke="#64748b" d="M1738.55,-159.7C1736.41,-151.39 1733.81,-141.28 1731.46,-132.14"/>
<polygon fill="#64748b" stroke="#64748b" points="1733.89,-131.74 1729.78,-125.57 1729.15,-132.96 1733.89,-131.74"/>
</g>
<!-- n14&#45;&gt;n13 -->
<g id="edge15" class="edge">
<title>n14&#45;&gt;n13</title>
<path fill="none" stroke="#64748b" d="M1692.55,-159.52C1660.77,-148.5 1619.99,-134.37 1588.74,-123.54"/>
<polygon fill="#64748b" stroke="#64748b" points="1589.86,-121.34 1582.45,-121.36 1588.26,-125.97 1589.86,-121.34"/>
</g>
<!-- n15 -->
<g id="node16" class="node">
<title>n15</title>
<g id="a_node16"><a xlink:href="vscode://vscode-remote/wsl+Ubuntu/home/gavin/statlib/Statlib/HighDim/Concentration/HansonWright.lean:35" xlink:title="lemma · Statlib/HighDim/Concentration/HansonWright.lean:35" target="_blank">
<path fill="#eef2f6" stroke="#94a3b8" d="M1584.52,-196C1584.52,-196 1507.48,-196 1507.48,-196 1501.48,-196 1495.48,-190 1495.48,-184 1495.48,-184 1495.48,-172 1495.48,-172 1495.48,-166 1501.48,-160 1507.48,-160 1507.48,-160 1584.52,-160 1584.52,-160 1590.52,-160 1596.52,-166 1596.52,-172 1596.52,-172 1596.52,-184 1596.52,-184 1596.52,-190 1590.52,-196 1584.52,-196"/>
<text xml:space="preserve" text-anchor="middle" x="1546" y="-175" font-family="Helvetica,sans-Serif" font-size="10.00">offDiagCoeff_const</text>
</a>
</g>
</g>
<!-- n15&#45;&gt;n4 -->
<g id="edge17" class="edge">
<title>n15&#45;&gt;n4</title>
<path fill="none" stroke="#64748b" d="M1494.98,-163.34C1490.26,-162.17 1485.55,-161.04 1481,-160 1406.2,-142.87 1318.92,-126.29 1264.55,-116.37"/>
<polygon fill="#64748b" stroke="#64748b" points="1265.26,-114.01 1257.93,-115.16 1264.38,-118.83 1265.26,-114.01"/>
</g>
<!-- n15&#45;&gt;n11 -->
<g id="edge16" class="edge">
<title>n15&#45;&gt;n11</title>
<path fill="none" stroke="#64748b" d="M1520.79,-159.63C1509.74,-150.46 1497.95,-138.17 1492,-124 1485.81,-109.25 1483.54,-101.58 1492,-88 1505.98,-65.56 1532.54,-52.36 1555.82,-44.74"/>
<polygon fill="#64748b" stroke="#64748b" points="1556.47,-47.1 1562.44,-42.71 1555.03,-42.42 1556.47,-47.1"/>
</g>
<!-- n16 -->
<g id="node17" class="node">
<title>n16</title>
<g id="a_node17"><a xlink:href="vscode://vscode-remote/wsl+Ubuntu/home/gavin/statlib/Statlib/HighDim/Concentration/HansonWright.lean:69" xlink:title="lemma · Statlib/HighDim/Concentration/HansonWright.lean:69" target="_blank">
<path fill="#eef2f6" stroke="#94a3b8" d="M1858.64,-268C1858.64,-268 1595.36,-268 1595.36,-268 1589.36,-268 1583.36,-262 1583.36,-256 1583.36,-256 1583.36,-244 1583.36,-244 1583.36,-238 1589.36,-232 1595.36,-232 1595.36,-232 1858.64,-232 1858.64,-232 1864.64,-232 1870.64,-238 1870.64,-244 1870.64,-244 1870.64,-256 1870.64,-256 1870.64,-262 1864.64,-268 1858.64,-268"/>
<text xml:space="preserve" text-anchor="middle" x="1727" y="-247" font-family="Helvetica,sans-Serif" font-size="10.00">decoupledOffDiagQuadForm_const_right_eq_inner_coeffVec</text>
</a>
</g>
</g>
<!-- n16&#45;&gt;n1 -->
<g id="edge18" class="edge">
<title>n16&#45;&gt;n1</title>
<path fill="none" stroke="#64748b" d="M1806.29,-231.52C1826.27,-223.65 1845.99,-212.31 1860,-196 1892.1,-158.62 1862.88,-132.02 1885,-88 1890.41,-77.24 1898.44,-66.81 1906.22,-58.1"/>
<polygon fill="#64748b" stroke="#64748b" points="1907.82,-59.98 1910.78,-53.18 1904.22,-56.65 1907.82,-59.98"/>
</g>
<!-- n16&#45;&gt;n4 -->
<g id="edge19" class="edge">
<title>n16&#45;&gt;n4</title>
<path fill="none" stroke="#64748b" d="M1610.07,-231.54C1559.4,-222.32 1506.91,-210.01 1486,-196 1469.82,-185.16 1477.22,-170.79 1461,-160 1401.78,-120.63 1318.65,-109.81 1265.05,-107.21"/>
<polygon fill="#64748b" stroke="#64748b" points="1265.32,-104.77 1258.22,-106.92 1265.11,-109.66 1265.32,-104.77"/>
</g>
<!-- n16&#45;&gt;n14 -->
<g id="edge20" class="edge">
<title>n16&#45;&gt;n14</title>
<path fill="none" stroke="#64748b" d="M1730.96,-231.7C1732.85,-223.39 1735.17,-213.28 1737.25,-204.14"/>
<polygon fill="#64748b" stroke="#64748b" points="1739.58,-204.95 1738.75,-197.58 1734.8,-203.86 1739.58,-204.95"/>
</g>
<!-- n16&#45;&gt;n15 -->
<g id="edge21" class="edge">
<title>n16&#45;&gt;n15</title>
<path fill="none" stroke="#64748b" d="M1681.79,-231.52C1656.54,-221.75 1624.94,-209.53 1598.59,-199.34"/>
<polygon fill="#64748b" stroke="#64748b" points="1599.77,-197.17 1592.36,-196.93 1598,-201.74 1599.77,-197.17"/>
</g>
<!-- n17 -->
<g id="node18" class="node">
<title>n17</title>
<g id="a_node18"><a xlink:href="vscode://vscode-remote/wsl+Ubuntu/home/gavin/statlib/Statlib/HighDim/Concentration/HansonWright.lean:76" xlink:title="lemma · Statlib/HighDim/Concentration/HansonWright.lean:76" target="_blank">
<path fill="#eef2f6" stroke="#94a3b8" d="M2137.02,-341.2C2137.02,-341.2 1900.98,-341.2 1900.98,-341.2 1894.98,-341.2 1888.98,-335.2 1888.98,-329.2 1888.98,-329.2 1888.98,-317.2 1888.98,-317.2 1888.98,-311.2 1894.98,-305.2 1900.98,-305.2 1900.98,-305.2 2137.02,-305.2 2137.02,-305.2 2143.02,-305.2 2149.02,-311.2 2149.02,-317.2 2149.02,-317.2 2149.02,-329.2 2149.02,-329.2 2149.02,-335.2 2143.02,-341.2 2137.02,-341.2"/>
<text xml:space="preserve" text-anchor="middle" x="2019" y="-320.2" font-family="Helvetica,sans-Serif" font-size="10.00">decoupledOffDiagQuadForm_const_right_subgaussian</text>
</a>
</g>
</g>
<!-- n17&#45;&gt;n0 -->
<g id="edge22" class="edge">
<title>n17&#45;&gt;n0</title>
<path fill="none" stroke="#64748b" d="M1888.82,-305.85C1885.85,-305.61 1882.91,-305.4 1880,-305.2 1847.9,-303.02 1332.12,-305.34 1301,-297.2 1281.98,-292.22 1262.58,-282.14 1247.12,-272.66"/>
<polygon fill="#64748b" stroke="#64748b" points="1248.82,-270.83 1241.6,-269.17 1246.21,-274.98 1248.82,-270.83"/>
</g>
<!-- n17&#45;&gt;n1 -->
<g id="edge23" class="edge">
<title>n17&#45;&gt;n1</title>
<path fill="none" stroke="#64748b" d="M1916.19,-304.84C1911.18,-302.58 1907.29,-300.04 1905,-297.2 1875.86,-260.98 1894.84,-133.36 1905,-88 1907.15,-78.42 1911.22,-68.54 1915.47,-59.94"/>
<polygon fill="#64748b" stroke="#64748b" points="1917.62,-61.13 1918.68,-53.79 1913.27,-58.86 1917.62,-61.13"/>
</g>
<!-- n17&#45;&gt;n4 -->
<g id="edge24" class="edge">
<title>n17&#45;&gt;n4</title>
<path fill="none" stroke="#64748b" d="M1888.82,-305.9C1885.85,-305.65 1882.91,-305.42 1880,-305.2 1863.04,-303.94 1587.88,-307.02 1574,-297.2 1545.57,-277.08 1571.2,-248.04 1546,-224 1517.22,-196.55 1491.65,-221.35 1461,-196 1446.89,-184.34 1455.62,-171.01 1441,-160 1389.7,-121.36 1314.91,-110.2 1264.92,-107.33"/>
<polygon fill="#64748b" stroke="#64748b" points="1265.12,-104.89 1258.01,-106.99 1264.88,-109.78 1265.12,-104.89"/>
</g>
<!-- n17&#45;&gt;n16 -->
<g id="edge25" class="edge">
<title>n17&#45;&gt;n16</title>
<path fill="none" stroke="#64748b" d="M1919.25,-304.73C1907.66,-302.37 1896.05,-299.84 1885,-297.2 1853.24,-289.61 1818.36,-279.6 1789.46,-270.83"/>
<polygon fill="#64748b" stroke="#64748b" points="1790.34,-268.53 1782.93,-268.83 1788.91,-273.22 1790.34,-268.53"/>
</g>
<!-- n18 -->
<g id="node19" class="node">
<title>n18</title>
<g id="a_node19"><a xlink:href="vscode://vscode-remote/wsl+Ubuntu/home/gavin/statlib/Statlib/HighDim/Concentration/HansonWright.lean:122" xlink:title="lemma · Statlib/HighDim/Concentration/HansonWright.lean:122" target="_blank">
<path fill="#eef2f6" stroke="#94a3b8" d="M1859.21,-341.2C1859.21,-341.2 1748.79,-341.2 1748.79,-341.2 1742.79,-341.2 1736.79,-335.2 1736.79,-329.2 1736.79,-329.2 1736.79,-317.2 1736.79,-317.2 1736.79,-311.2 1742.79,-305.2 1748.79,-305.2 1748.79,-305.2 1859.21,-305.2 1859.21,-305.2 1865.21,-305.2 1871.21,-311.2 1871.21,-317.2 1871.21,-317.2 1871.21,-329.2 1871.21,-329.2 1871.21,-335.2 1865.21,-341.2 1859.21,-341.2"/>
<text xml:space="preserve" text-anchor="middle" x="1804" y="-320.2" font-family="Helvetica,sans-Serif" font-size="10.00">subgaussian_abs_tail_real</text>
</a>
</g>
</g>
<!-- n19 -->
<g id="node20" class="node">
<title>n19</title>
<g id="a_node20"><a xlink:href="vscode://vscode-remote/wsl+Ubuntu/home/gavin/statlib/Statlib/HighDim/Concentration/HansonWright.lean:846" xlink:title="lemma · Statlib/HighDim/Concentration/HansonWright.lean:846" target="_blank">
<path fill="#eef2f6" stroke="#94a3b8" d="M1887.77,-413.2C1887.77,-413.2 1552.23,-413.2 1552.23,-413.2 1546.23,-413.2 1540.23,-407.2 1540.23,-401.2 1540.23,-401.2 1540.23,-389.2 1540.23,-389.2 1540.23,-383.2 1546.23,-377.2 1552.23,-377.2 1552.23,-377.2 1887.77,-377.2 1887.77,-377.2 1893.77,-377.2 1899.77,-383.2 1899.77,-389.2 1899.77,-389.2 1899.77,-401.2 1899.77,-401.2 1899.77,-407.2 1893.77,-413.2 1887.77,-413.2"/>
<text xml:space="preserve" text-anchor="middle" x="1720" y="-392.2" font-family="Helvetica,sans-Serif" font-size="10.00">decoupledOffDiagQuadForm_const_right_abs_tail_real_of_coeff_norm_sq_le</text>
</a>
</g>
</g>
<!-- n19&#45;&gt;n0 -->
<g id="edge26" class="edge">
<title>n19&#45;&gt;n0</title>
<path fill="none" stroke="#64748b" d="M1647.26,-376.74C1612.98,-367.64 1571.84,-355.42 1536,-341.2 1503.48,-328.3 1499.79,-314.25 1466,-305.2 1395.08,-286.2 1371.7,-317.01 1301,-297.2 1282.38,-291.98 1263.31,-282.11 1247.96,-272.83"/>
<polygon fill="#64748b" stroke="#64748b" points="1249.27,-270.76 1242.03,-269.14 1246.68,-274.92 1249.27,-270.76"/>
</g>
<!-- n19&#45;&gt;n1 -->
<g id="edge28" class="edge">
<title>n19&#45;&gt;n1</title>
<path fill="none" stroke="#64748b" d="M1900.08,-383.57C2012.96,-375.01 2140.36,-361.1 2158,-341.2 2168.61,-329.23 2169.12,-316.71 2158,-305.2 2140,-286.57 1943,-315.83 1925,-297.2 1893.04,-264.12 1914.65,-119.91 1925.17,-60.61"/>
<polygon fill="#64748b" stroke="#64748b" points="1927.53,-61.31 1926.37,-53.99 1922.71,-60.44 1927.53,-61.31"/>
</g>
<!-- n19&#45;&gt;n4 -->
<g id="edge27" class="edge">
<title>n19&#45;&gt;n4</title>
<path fill="none" stroke="#64748b" d="M1612.09,-376.79C1589.71,-368.97 1567.84,-357.62 1551,-341.2 1511.6,-302.77 1548.9,-263.91 1511,-224 1487.93,-199.7 1464.86,-219.52 1441,-196 1428.66,-183.83 1439.15,-171.29 1426,-160 1381.07,-121.43 1312.29,-110.12 1264.89,-107.21"/>
<polygon fill="#64748b" stroke="#64748b" points="1265.23,-104.77 1258.11,-106.85 1264.97,-109.67 1265.23,-104.77"/>
</g>
<!-- n19&#45;&gt;n10 -->
<g id="edge29" class="edge">
<title>n19&#45;&gt;n10</title>
<path fill="none" stroke="#64748b" d="M1699.98,-376.9C1689.56,-367.89 1676.69,-356.77 1665.46,-347.07"/>
<polygon fill="#64748b" stroke="#64748b" points="1667.12,-345.26 1660.22,-342.54 1663.91,-348.97 1667.12,-345.26"/>
</g>
<!-- n19&#45;&gt;n17 -->
<g id="edge30" class="edge">
<title>n19&#45;&gt;n17</title>
<path fill="none" stroke="#64748b" d="M1794.68,-376.72C1837.75,-366.63 1891.98,-353.94 1936.33,-343.55"/>
<polygon fill="#64748b" stroke="#64748b" points="1936.77,-345.97 1943.02,-341.99 1935.65,-341.2 1936.77,-345.97"/>
</g>
<!-- n19&#45;&gt;n18 -->
<g id="edge31" class="edge">
<title>n19&#45;&gt;n18</title>
<path fill="none" stroke="#64748b" d="M1740.76,-376.9C1751.67,-367.81 1765.16,-356.56 1776.88,-346.8"/>
<polygon fill="#64748b" stroke="#64748b" points="1778.21,-348.88 1782.02,-342.52 1775.07,-345.12 1778.21,-348.88"/>
</g>
<!-- n20 -->
<g id="node21" class="node">
<title>n20</title>
<g id="a_node21"><a xlink:href="vscode://vscode-remote/wsl+Ubuntu/home/gavin/statlib/Statlib/HighDim/Concentration/HansonWright.lean:114" xlink:title="lemma · Statlib/HighDim/Concentration/HansonWright.lean:114" target="_blank">
<path fill="#eef2f6" stroke="#94a3b8" d="M1400.5,-413.2C1400.5,-413.2 1229.5,-413.2 1229.5,-413.2 1223.5,-413.2 1217.5,-407.2 1217.5,-401.2 1217.5,-401.2 1217.5,-389.2 1217.5,-389.2 1217.5,-383.2 1223.5,-377.2 1229.5,-377.2 1229.5,-377.2 1400.5,-377.2 1400.5,-377.2 1406.5,-377.2 1412.5,-383.2 1412.5,-389.2 1412.5,-389.2 1412.5,-401.2 1412.5,-401.2 1412.5,-407.2 1406.5,-413.2 1400.5,-413.2"/>
<text xml:space="preserve" text-anchor="middle" x="1315" y="-392.2" font-family="Helvetica,sans-Serif" font-size="10.00">measure_le_ofReal_of_measureReal_le</text>
</a>
</g>
</g>
<!-- n21 -->
<g id="node22" class="node">
<title>n21</title>
<g id="a_node22"><a xlink:href="vscode://vscode-remote/wsl+Ubuntu/home/gavin/statlib/Statlib/HighDim/Concentration/HansonWright.lean:1021" xlink:title="lemma · Statlib/HighDim/Concentration/HansonWright.lean:1021" target="_blank">
<path fill="#eef2f6" stroke="#94a3b8" d="M1723.54,-485.2C1723.54,-485.2 1472.46,-485.2 1472.46,-485.2 1466.46,-485.2 1460.46,-479.2 1460.46,-473.2 1460.46,-473.2 1460.46,-461.2 1460.46,-461.2 1460.46,-455.2 1466.46,-449.2 1472.46,-449.2 1472.46,-449.2 1723.54,-449.2 1723.54,-449.2 1729.54,-449.2 1735.54,-455.2 1735.54,-461.2 1735.54,-461.2 1735.54,-473.2 1735.54,-473.2 1735.54,-479.2 1729.54,-485.2 1723.54,-485.2"/>
<text xml:space="preserve" text-anchor="middle" x="1598" y="-464.2" font-family="Helvetica,sans-Serif" font-size="10.00">decoupledOffDiagQuadForm_prod_tail_le_bad_plus_good</text>
</a>
</g>
</g>
<!-- n21&#45;&gt;n0 -->
<g id="edge32" class="edge">
<title>n21&#45;&gt;n0</title>
<path fill="none" stroke="#64748b" d="M1549.29,-448.81C1530.8,-440.32 1510.68,-428.57 1496,-413.2 1486.87,-403.64 1456.96,-312.6 1446,-305.2 1431.24,-295.24 1302.91,-302.74 1286,-297.2 1270.36,-292.07 1254.88,-282.46 1242.47,-273.33"/>
<polygon fill="#64748b" stroke="#64748b" points="1244.17,-271.54 1237.11,-269.25 1241.2,-275.44 1244.17,-271.54"/>
</g>
<!-- n21&#45;&gt;n1 -->
<g id="edge33" class="edge">
<title>n21&#45;&gt;n1</title>
<path fill="none" stroke="#64748b" d="M1735.95,-455.97C1887.32,-441.46 2115.71,-408.77 2167,-341.2 2176.67,-328.46 2178.11,-316.71 2167,-305.2 2149.47,-287.04 1957.87,-315.02 1940,-297.2 1923.52,-280.76 1926.98,-123.44 1929.05,-60.67"/>
<polygon fill="#64748b" stroke="#64748b" points="1931.48,-61.06 1929.27,-53.98 1926.59,-60.89 1931.48,-61.06"/>
</g>
<!-- n21&#45;&gt;n4 -->
<g id="edge34" class="edge">
<title>n21&#45;&gt;n4</title>
<path fill="none" stroke="#64748b" d="M1562.71,-448.81C1546.99,-439.79 1529.11,-427.63 1516,-413.2 1479.63,-373.19 1505.48,-334.44 1460,-305.2 1430.24,-286.07 1328.57,-319.37 1301,-297.2 1274.72,-276.07 1303.45,-249.17 1281,-224 1258.69,-199 1229.79,-223.75 1211,-196 1198.53,-177.58 1200.4,-151.73 1204.43,-132.64"/>
<polygon fill="#64748b" stroke="#64748b" points="1206.8,-133.24 1206.03,-125.86 1202.03,-132.11 1206.8,-133.24"/>
</g>
<!-- n21&#45;&gt;n7 -->
<g id="edge35" class="edge">
<title>n21&#45;&gt;n7</title>
<path fill="none" stroke="#64748b" d="M1735.89,-463.52C1902.02,-458.84 2162.75,-446.27 2193,-413.2 2225.4,-377.79 2218.64,-345.78 2193,-305.2 2183.8,-290.63 2169.49,-279.9 2154.09,-272.02"/>
<polygon fill="#64748b" stroke="#64748b" points="2155.19,-269.83 2147.82,-269.03 2153.08,-274.26 2155.19,-269.83"/>
</g>
<!-- n21&#45;&gt;n9 -->
<g id="edge36" class="edge">
<title>n21&#45;&gt;n9</title>
<path fill="none" stroke="#64748b" d="M1567.72,-448.79C1554.57,-439.77 1540.12,-427.61 1531,-413.2 1504.64,-371.57 1535.85,-344.4 1506,-305.2 1495.36,-291.23 1480.04,-280.42 1464.58,-272.27"/>
<polygon fill="#64748b" stroke="#64748b" points="1465.71,-270.09 1458.35,-269.15 1463.52,-274.47 1465.71,-270.09"/>
</g>
<!-- n21&#45;&gt;n19 -->
<g id="edge37" class="edge">
<title>n21&#45;&gt;n19</title>
<path fill="none" stroke="#64748b" d="M1628.47,-448.72C1644.9,-439.29 1665.3,-427.58 1682.68,-417.61"/>
<polygon fill="#64748b" stroke="#64748b" points="1683.75,-419.82 1688.6,-414.21 1681.31,-415.57 1683.75,-419.82"/>
</g>
<!-- n21&#45;&gt;n20 -->
<g id="edge38" class="edge">
<title>n21&#45;&gt;n20</title>
<path fill="none" stroke="#64748b" d="M1527.32,-448.72C1486.64,-438.66 1435.45,-425.99 1393.53,-415.62"/>
<polygon fill="#64748b" stroke="#64748b" points="1394.12,-413.25 1386.74,-413.95 1392.95,-418 1394.12,-413.25"/>
</g>
<!-- n22 -->
<g id="node23" class="node">
<title>n22</title>
<g id="a_node23"><a xlink:href="vscode://vscode-remote/wsl+Ubuntu/home/gavin/statlib/Statlib/HighDim/Vocabulary/QuadraticForms.lean:62" xlink:title="noncomputable def · Statlib/HighDim/Vocabulary/QuadraticForms.lean:62" target="_blank">
<path fill="#d6e9ff" stroke="#3b82f6" d="M595.23,-268C595.23,-268 538.77,-268 538.77,-268 532.77,-268 526.77,-262 526.77,-256 526.77,-256 526.77,-244 526.77,-244 526.77,-238 532.77,-232 538.77,-232 538.77,-232 595.23,-232 595.23,-232 601.23,-232 607.23,-238 607.23,-244 607.23,-244 607.23,-256 607.23,-256 607.23,-262 601.23,-268 595.23,-268"/>
<text xml:space="preserve" text-anchor="middle" x="567" y="-247" font-family="Helvetica,sans-Serif" font-size="10.00">matrixRowVec</text>
</a>
</g>
</g>
<!-- n23 -->
<g id="node24" class="node">
<title>n23</title>
<g id="a_node24"><a xlink:href="vscode://vscode-remote/wsl+Ubuntu/home/gavin/statlib/Statlib/HighDim/Vocabulary/QuadraticForms.lean:52" xlink:title="def · Statlib/HighDim/Vocabulary/QuadraticForms.lean:52" target="_blank">
<path fill="#d6e9ff" stroke="#3b82f6" d="M675.62,-196C675.62,-196 616.38,-196 616.38,-196 610.38,-196 604.38,-190 604.38,-184 604.38,-184 604.38,-172 604.38,-172 604.38,-166 610.38,-160 616.38,-160 616.38,-160 675.62,-160 675.62,-160 681.62,-160 687.62,-166 687.62,-172 687.62,-172 687.62,-184 687.62,-184 687.62,-190 681.62,-196 675.62,-196"/>
<text xml:space="preserve" text-anchor="middle" x="646" y="-175" font-family="Helvetica,sans-Serif" font-size="10.00">zeroDiagMatrix</text>
</a>
</g>
</g>
<!-- n24 -->
<g id="node25" class="node">
<title>n24</title>
<g id="a_node25"><a xlink:href="vscode://vscode-remote/wsl+Ubuntu/home/gavin/statlib/Statlib/HighDim/Concentration/HansonWright.lean:541" xlink:title="lemma · Statlib/HighDim/Concentration/HansonWright.lean:541" target="_blank">
<path fill="#eef2f6" stroke="#94a3b8" d="M1078.34,-341.2C1078.34,-341.2 915.66,-341.2 915.66,-341.2 909.66,-341.2 903.66,-335.2 903.66,-329.2 903.66,-329.2 903.66,-317.2 903.66,-317.2 903.66,-311.2 909.66,-305.2 915.66,-305.2 915.66,-305.2 1078.34,-305.2 1078.34,-305.2 1084.34,-305.2 1090.34,-311.2 1090.34,-317.2 1090.34,-317.2 1090.34,-329.2 1090.34,-329.2 1090.34,-335.2 1084.34,-341.2 1078.34,-341.2"/>
<text xml:space="preserve" text-anchor="middle" x="997" y="-320.2" font-family="Helvetica,sans-Serif" font-size="10.00">subgaussian_projection_sq_integrable</text>
</a>
</g>
</g>
<!-- n24&#45;&gt;n0 -->
<g id="edge39" class="edge">
<title>n24&#45;&gt;n0</title>
<path fill="none" stroke="#64748b" d="M1050.57,-304.78C1081.99,-294.57 1121.81,-281.62 1154.5,-270.99"/>
<polygon fill="#64748b" stroke="#64748b" points="1154.88,-273.45 1160.78,-268.95 1153.37,-268.79 1154.88,-273.45"/>
</g>
<!-- n25 -->
<g id="node26" class="node">
<title>n25</title>
<g id="a_node26"><a xlink:href="vscode://vscode-remote/wsl+Ubuntu/home/gavin/statlib/Statlib/HighDim/Vocabulary/Norms.lean:13" xlink:title="noncomputable def · Statlib/HighDim/Vocabulary/Norms.lean:13" target="_blank">
<path fill="#d6e9ff" stroke="#3b82f6" d="M435.23,-196C435.23,-196 398.77,-196 398.77,-196 392.77,-196 386.77,-190 386.77,-184 386.77,-184 386.77,-172 386.77,-172 386.77,-166 392.77,-160 398.77,-160 398.77,-160 435.23,-160 435.23,-160 441.23,-160 447.23,-166 447.23,-172 447.23,-172 447.23,-184 447.23,-184 447.23,-190 441.23,-196 435.23,-196"/>
<text xml:space="preserve" text-anchor="middle" x="417" y="-175" font-family="Helvetica,sans-Serif" font-size="10.00">l2NormSq</text>
</a>
</g>
</g>
<!-- n26 -->
<g id="node27" class="node">
<title>n26</title>
<g id="a_node27"><a xlink:href="vscode://vscode-remote/wsl+Ubuntu/home/gavin/statlib/Statlib/HighDim/Vocabulary/Norms.lean:21" xlink:title="lemma · Statlib/HighDim/Vocabulary/Norms.lean:21" target="_blank">
<path fill="#eef2f6" stroke="#94a3b8" d="M425.64,-268C425.64,-268 346.36,-268 346.36,-268 340.36,-268 334.36,-262 334.36,-256 334.36,-256 334.36,-244 334.36,-244 334.36,-238 340.36,-232 346.36,-232 346.36,-232 425.64,-232 425.64,-232 431.64,-232 437.64,-238 437.64,-244 437.64,-244 437.64,-256 437.64,-256 437.64,-262 431.64,-268 425.64,-268"/>
<text xml:space="preserve" text-anchor="middle" x="386" y="-247" font-family="Helvetica,sans-Serif" font-size="10.00">euclidean_norm_sq</text>
</a>
</g>
</g>
<!-- n26&#45;&gt;n25 -->
<g id="edge40" class="edge">
<title>n26&#45;&gt;n25</title>
<path fill="none" stroke="#64748b" d="M393.66,-231.7C397.38,-223.3 401.91,-213.07 405.99,-203.86"/>
<polygon fill="#64748b" stroke="#64748b" points="408.22,-204.88 408.81,-197.49 403.74,-202.9 408.22,-204.88"/>
</g>
<!-- n27 -->
<g id="node28" class="node">
<title>n27</title>
<g id="a_node28"><a xlink:href="vscode://vscode-remote/wsl+Ubuntu/home/gavin/statlib/Statlib/HighDim/Concentration/HansonWright.lean:251" xlink:title="lemma · Statlib/HighDim/Concentration/HansonWright.lean:251" target="_blank">
<path fill="#eef2f6" stroke="#94a3b8" d="M890.61,-268C890.61,-268 697.39,-268 697.39,-268 691.39,-268 685.39,-262 685.39,-256 685.39,-256 685.39,-244 685.39,-244 685.39,-238 691.39,-232 697.39,-232 697.39,-232 890.61,-232 890.61,-232 896.61,-232 902.61,-238 902.61,-244 902.61,-244 902.61,-256 902.61,-256 902.61,-262 896.61,-268 890.61,-268"/>
<text xml:space="preserve" text-anchor="middle" x="794" y="-247" font-family="Helvetica,sans-Serif" font-size="10.00">offDiagCoeffVec_eq_zeroDiagMatrix_mulVec</text>
</a>
</g>
</g>
<!-- n27&#45;&gt;n4 -->
<g id="edge41" class="edge">
<title>n27&#45;&gt;n4</title>
<path fill="none" stroke="#64748b" d="M830.9,-231.57C872.7,-212.28 943.2,-181.14 1006,-160 1057.19,-142.77 1117.12,-127.93 1159.1,-118.37"/>
<polygon fill="#64748b" stroke="#64748b" points="1159.49,-120.8 1165.78,-116.87 1158.41,-116.02 1159.49,-120.8"/>
</g>
<!-- n27&#45;&gt;n23 -->
<g id="edge42" class="edge">
<title>n27&#45;&gt;n23</title>
<path fill="none" stroke="#64748b" d="M757.04,-231.52C736.83,-221.96 711.66,-210.05 690.39,-200"/>
<polygon fill="#64748b" stroke="#64748b" points="691.49,-197.81 684.12,-197.03 689.4,-202.24 691.49,-197.81"/>
</g>
<!-- n28 -->
<g id="node29" class="node">
<title>n28</title>
<g id="a_node29"><a xlink:href="vscode://vscode-remote/wsl+Ubuntu/home/gavin/statlib/Statlib/HighDim/Concentration/HansonWright.lean:472" xlink:title="lemma · Statlib/HighDim/Concentration/HansonWright.lean:472" target="_blank">
<path fill="#eef2f6" stroke="#94a3b8" d="M854.01,-341.2C854.01,-341.2 647.99,-341.2 647.99,-341.2 641.99,-341.2 635.99,-335.2 635.99,-329.2 635.99,-329.2 635.99,-317.2 635.99,-317.2 635.99,-311.2 641.99,-305.2 647.99,-305.2 647.99,-305.2 854.01,-305.2 854.01,-305.2 860.01,-305.2 866.01,-311.2 866.01,-317.2 866.01,-317.2 866.01,-329.2 866.01,-329.2 866.01,-335.2 860.01,-341.2 854.01,-341.2"/>
<text xml:space="preserve" text-anchor="middle" x="751" y="-320.2" font-family="Helvetica,sans-Serif" font-size="10.00">offDiagCoeffVec_apply_eq_inner_row_zeroDiag</text>
</a>
</g>
</g>
<!-- n28&#45;&gt;n4 -->
<g id="edge43" class="edge">
<title>n28&#45;&gt;n4</title>
<path fill="none" stroke="#64748b" d="M866.39,-305.22C890.31,-301.51 909.2,-298.34 912,-297.2 1009.11,-257.59 1013.95,-213.77 1104,-160 1123.47,-148.37 1145.86,-137.07 1165.18,-127.92"/>
<polygon fill="#64748b" stroke="#64748b" points="1166.03,-130.22 1171.33,-125.03 1163.95,-125.79 1166.03,-130.22"/>
</g>
<!-- n28&#45;&gt;n13 -->
<g id="edge47" class="edge">
<title>n28&#45;&gt;n13</title>
<path fill="none" stroke="#64748b" d="M866.44,-307.5C876.09,-306.59 885.71,-305.81 895,-305.2 912.08,-304.08 1495.49,-304.44 1511,-297.2 1549.9,-279.05 1543.77,-254.48 1574,-224 1587.31,-210.58 1598.19,-213.21 1606,-196 1612.61,-181.43 1612.86,-174.45 1606,-160 1600.21,-147.8 1590.08,-137.48 1579.52,-129.29"/>
<polygon fill="#64748b" stroke="#64748b" points="1581.24,-127.51 1574.14,-125.35 1578.34,-131.46 1581.24,-127.51"/>
</g>
<!-- n28&#45;&gt;n22 -->
<g id="edge44" class="edge">
<title>n28&#45;&gt;n22</title>
<path fill="none" stroke="#64748b" d="M683.23,-304.84C675.66,-302.47 668.12,-299.91 661,-297.2 642.43,-290.13 622.59,-280.68 605.94,-272.17"/>
<polygon fill="#64748b" stroke="#64748b" points="607.22,-270.07 599.88,-269.03 604.97,-274.42 607.22,-270.07"/>
</g>
<!-- n28&#45;&gt;n23 -->
<g id="edge45" class="edge">
<title>n28&#45;&gt;n23</title>
<path fill="none" stroke="#64748b" d="M684.72,-304.73C681.56,-302.51 678.62,-300.02 676,-297.2 663.55,-283.8 654.24,-234.66 649.5,-204.12"/>
<polygon fill="#64748b" stroke="#64748b" points="651.98,-204.09 648.52,-197.54 647.13,-204.82 651.98,-204.09"/>
</g>
<!-- n28&#45;&gt;n27 -->
<g id="edge46" class="edge">
<title>n28&#45;&gt;n27</title>
<path fill="none" stroke="#64748b" d="M761.41,-304.96C766.8,-296.04 773.46,-285 779.36,-275.24"/>
<polygon fill="#64748b" stroke="#64748b" points="781.38,-276.63 782.9,-269.37 777.19,-274.1 781.38,-276.63"/>
</g>
<!-- n29 -->
<g id="node30" class="node">
<title>n29</title>
<g id="a_node30"><a xlink:href="vscode://vscode-remote/wsl+Ubuntu/home/gavin/statlib/Statlib/HighDim/Concentration/HansonWright.lean:602" xlink:title="lemma · Statlib/HighDim/Concentration/HansonWright.lean:602" target="_blank">
<path fill="#eef2f6" stroke="#94a3b8" d="M836.38,-413.2C836.38,-413.2 677.62,-413.2 677.62,-413.2 671.62,-413.2 665.62,-407.2 665.62,-401.2 665.62,-401.2 665.62,-389.2 665.62,-389.2 665.62,-383.2 671.62,-377.2 677.62,-377.2 677.62,-377.2 836.38,-377.2 836.38,-377.2 842.38,-377.2 848.38,-383.2 848.38,-389.2 848.38,-389.2 848.38,-401.2 848.38,-401.2 848.38,-407.2 842.38,-413.2 836.38,-413.2"/>
<text xml:space="preserve" text-anchor="middle" x="757" y="-392.2" font-family="Helvetica,sans-Serif" font-size="10.00">offDiagCoeffVec_norm_sq_integrable</text>
</a>
</g>
</g>
<!-- n29&#45;&gt;n0 -->
<g id="edge48" class="edge">
<title>n29&#45;&gt;n0</title>
<path fill="none" stroke="#64748b" d="M848.69,-386.56C938.46,-378.01 1068.2,-362.52 1114,-341.2 1131.68,-332.97 1168.95,-297.87 1193.21,-273.96"/>
<polygon fill="#64748b" stroke="#64748b" points="1194.75,-275.88 1198,-269.21 1191.3,-272.4 1194.75,-275.88"/>
</g>
<!-- n29&#45;&gt;n4 -->
<g id="edge49" class="edge">
<title>n29&#45;&gt;n4</title>
<path fill="none" stroke="#64748b" d="M848.87,-391.51C937.75,-386.93 1063.99,-374.58 1099,-341.2 1113.87,-327.02 1124.71,-177.17 1136,-160 1144.28,-147.41 1156.67,-136.94 1169.06,-128.72"/>
<polygon fill="#64748b" stroke="#64748b" points="1170.03,-131.01 1174.64,-125.2 1167.41,-126.87 1170.03,-131.01"/>
</g>
<!-- n29&#45;&gt;n22 -->
<g id="edge50" class="edge">
<title>n29&#45;&gt;n22</title>
<path fill="none" stroke="#64748b" d="M679.15,-376.72C642.78,-367.09 604.71,-354.44 592,-341.2 575.43,-323.95 569.65,-296.71 567.73,-276.67"/>
<polygon fill="#64748b" stroke="#64748b" points="570.18,-276.62 567.22,-269.82 565.3,-276.98 570.18,-276.62"/>
</g>
<!-- n29&#45;&gt;n23 -->
<g id="edge51" class="edge">
<title>n29&#45;&gt;n23</title>
<path fill="none" stroke="#64748b" d="M673.25,-376.73C655.07,-368.91 638.01,-357.58 627,-341.2 618.07,-327.92 623.32,-320.77 627,-305.2 627.91,-301.33 629.84,-301 631,-297.2 640.43,-266.18 643.93,-228.83 645.23,-204.53"/>
<polygon fill="#64748b" stroke="#64748b" points="647.67,-204.83 645.55,-197.72 642.78,-204.6 647.67,-204.83"/>
</g>
<!-- n29&#45;&gt;n24 -->
<g id="edge52" class="edge">
<title>n29&#45;&gt;n24</title>
<path fill="none" stroke="#64748b" d="M816.94,-376.72C851.15,-366.74 894.13,-354.2 929.51,-343.88"/>
<polygon fill="#64748b" stroke="#64748b" points="929.92,-346.32 935.95,-342.01 928.55,-341.61 929.92,-346.32"/>
</g>
<!-- n29&#45;&gt;n25 -->
<g id="edge54" class="edge">
<title>n29&#45;&gt;n25</title>
<path fill="none" stroke="#64748b" d="M665.27,-376.73C646.77,-368.91 629.5,-357.59 618,-341.2 610.52,-330.54 624.22,-234.1 616,-224 596.15,-199.59 508.06,-187.39 455.97,-182.21"/>
<polygon fill="#64748b" stroke="#64748b" points="456.33,-179.78 449.13,-181.55 455.86,-184.66 456.33,-179.78"/>
</g>
<!-- n29&#45;&gt;n26 -->
<g id="edge53" class="edge">
<title>n29&#45;&gt;n26</title>
<path fill="none" stroke="#64748b" d="M665.21,-378.43C662.44,-378.01 659.7,-377.6 657,-377.2 592.31,-367.72 408.31,-390.18 365,-341.2 349.13,-323.26 358.84,-295.65 369.74,-275.71"/>
<polygon fill="#64748b" stroke="#64748b" points="371.78,-277.07 373.16,-269.78 367.54,-274.62 371.78,-277.07"/>
</g>
<!-- n29&#45;&gt;n28 -->
<g id="edge55" class="edge">
<title>n29&#45;&gt;n28</title>
<path fill="none" stroke="#64748b" d="M755.52,-376.9C754.81,-368.67 753.96,-358.68 753.18,-349.62"/>
<polygon fill="#64748b" stroke="#64748b" points="755.63,-349.58 752.6,-342.81 750.75,-350 755.63,-349.58"/>
</g>
<!-- n31 -->
<g id="node31" class="node">
<title>n31</title>
<g id="a_node31"><a xlink:href="vscode://vscode-remote/wsl+Ubuntu/home/gavin/statlib/Statlib/HighDim/Concentration/HansonWright.lean:519" xlink:title="lemma · Statlib/HighDim/Concentration/HansonWright.lean:519" target="_blank">
<path fill="#eef2f6" stroke="#94a3b8" d="M1409.96,-341.2C1409.96,-341.2 1220.04,-341.2 1220.04,-341.2 1214.04,-341.2 1208.04,-335.2 1208.04,-329.2 1208.04,-329.2 1208.04,-317.2 1208.04,-317.2 1208.04,-311.2 1214.04,-305.2 1220.04,-305.2 1220.04,-305.2 1409.96,-305.2 1409.96,-305.2 1415.96,-305.2 1421.96,-311.2 1421.96,-317.2 1421.96,-317.2 1421.96,-329.2 1421.96,-329.2 1421.96,-335.2 1415.96,-341.2 1409.96,-341.2"/>
<text xml:space="preserve" text-anchor="middle" x="1315" y="-320.2" font-family="Helvetica,sans-Serif" font-size="10.00">subgaussian_projection_second_moment_le</text>
</a>
</g>
</g>
<!-- n31&#45;&gt;n0 -->
<g id="edge56" class="edge">
<title>n31&#45;&gt;n0</title>
<path fill="none" stroke="#64748b" d="M1290.78,-304.78C1277.6,-295.3 1261.14,-283.47 1247.03,-273.32"/>
<polygon fill="#64748b" stroke="#64748b" points="1248.65,-271.47 1241.54,-269.37 1245.79,-275.44 1248.65,-271.47"/>
</g>
<!-- n30 -->
<g id="node38" class="node">
<title>n30</title>
<g id="a_node38"><a xlink:href="vscode://vscode-remote/wsl+Ubuntu/home/gavin/statlib/Statlib/StatFoundation/RandomVariable/SubGaussian/subgaussian_variance_le.lean:8" xlink:title="theorem · Statlib/StatFoundation/RandomVariable/SubGaussian/subgaussian_variance_le.lean:8" target="_blank">
<path fill="#ffe6a3" stroke="#d4a017" d="M2389.43,-268C2389.43,-268 2284.57,-268 2284.57,-268 2278.57,-268 2272.57,-262 2272.57,-256 2272.57,-256 2272.57,-244 2272.57,-244 2272.57,-238 2278.57,-232 2284.57,-232 2284.57,-232 2389.43,-232 2389.43,-232 2395.43,-232 2401.43,-238 2401.43,-244 2401.43,-244 2401.43,-256 2401.43,-256 2401.43,-262 2395.43,-268 2389.43,-268"/>
<text xml:space="preserve" text-anchor="middle" x="2337" y="-247" font-family="Helvetica,sans-Serif" font-size="10.00">subgaussian_variance_le</text>
</a>
</g>
</g>
<!-- n31&#45;&gt;n30 -->
<g id="edge57" class="edge">
<title>n31&#45;&gt;n30</title>
<path fill="none" stroke="#64748b" d="M1422.42,-313.08C1462.72,-310.02 1508.93,-306.95 1551,-305.2 1590.41,-303.56 2223.08,-308.05 2261,-297.2 2278.07,-292.32 2295.13,-282.5 2308.75,-273.17"/>
<polygon fill="#64748b" stroke="#64748b" points="2310.01,-275.28 2314.31,-269.24 2307.18,-271.28 2310.01,-275.28"/>
</g>
<!-- n32 -->
<g id="node32" class="node">
<title>n32</title>
<g id="a_node32"><a xlink:href="vscode://vscode-remote/wsl+Ubuntu/home/gavin/statlib/Statlib/HighDim/Concentration/HansonWright.lean:465" xlink:title="lemma · Statlib/HighDim/Concentration/HansonWright.lean:465" target="_blank">
<path fill="#eef2f6" stroke="#94a3b8" d="M486.46,-341.2C486.46,-341.2 385.54,-341.2 385.54,-341.2 379.54,-341.2 373.54,-335.2 373.54,-329.2 373.54,-329.2 373.54,-317.2 373.54,-317.2 373.54,-311.2 379.54,-305.2 385.54,-305.2 385.54,-305.2 486.46,-305.2 486.46,-305.2 492.46,-305.2 498.46,-311.2 498.46,-317.2 498.46,-317.2 498.46,-329.2 498.46,-329.2 498.46,-335.2 492.46,-341.2 486.46,-341.2"/>
<text xml:space="preserve" text-anchor="middle" x="436" y="-320.2" font-family="Helvetica,sans-Serif" font-size="10.00">matrixRowVec_norm_sq</text>
</a>
</g>
</g>
<!-- n32&#45;&gt;n22 -->
<g id="edge58" class="edge">
<title>n32&#45;&gt;n22</title>
<path fill="none" stroke="#64748b" d="M468.05,-304.78C485.97,-295.04 508.46,-282.82 527.46,-272.49"/>
<polygon fill="#64748b" stroke="#64748b" points="528.52,-274.7 533.5,-269.21 526.18,-270.4 528.52,-274.7"/>
</g>
<!-- n32&#45;&gt;n25 -->
<g id="edge60" class="edge">
<title>n32&#45;&gt;n25</title>
<path fill="none" stroke="#64748b" d="M444.75,-304.75C445.68,-302.27 446.47,-299.71 447,-297.2 453.69,-265.36 456.43,-255.14 447,-224 444.76,-216.61 440.87,-209.32 436.61,-202.83"/>
<polygon fill="#64748b" stroke="#64748b" points="438.8,-201.7 432.78,-197.38 434.79,-204.52 438.8,-201.7"/>
</g>
<!-- n32&#45;&gt;n26 -->
<g id="edge59" class="edge">
<title>n32&#45;&gt;n26</title>
<path fill="none" stroke="#64748b" d="M423.9,-304.96C417.57,-295.96 409.73,-284.79 402.82,-274.95"/>
<polygon fill="#64748b" stroke="#64748b" points="404.89,-273.64 398.86,-269.32 400.88,-276.45 404.89,-273.64"/>
</g>
<!-- n33 -->
<g id="node33" class="node">
<title>n33</title>
<g id="a_node33"><a xlink:href="vscode://vscode-remote/wsl+Ubuntu/home/gavin/statlib/Statlib/HighDim/Concentration/HansonWright.lean:436" xlink:title="lemma · Statlib/HighDim/Concentration/HansonWright.lean:436" target="_blank">
<path fill="#eef2f6" stroke="#94a3b8" d="M283.98,-341.2C283.98,-341.2 128.02,-341.2 128.02,-341.2 122.02,-341.2 116.02,-335.2 116.02,-329.2 116.02,-329.2 116.02,-317.2 116.02,-317.2 116.02,-311.2 122.02,-305.2 128.02,-305.2 128.02,-305.2 283.98,-305.2 283.98,-305.2 289.98,-305.2 295.98,-311.2 295.98,-317.2 295.98,-317.2 295.98,-329.2 295.98,-329.2 295.98,-335.2 289.98,-341.2 283.98,-341.2"/>
<text xml:space="preserve" text-anchor="middle" x="206" y="-320.2" font-family="Helvetica,sans-Serif" font-size="10.00">frobeniusNormSq_zeroDiagMatrix_le</text>
</a>
</g>
</g>
<!-- n33&#45;&gt;n2 -->
<g id="edge61" class="edge">
<title>n33&#45;&gt;n2</title>
<path fill="none" stroke="#64748b" d="M172.73,-304.78C154.04,-295 130.57,-282.71 110.78,-272.35"/>
<polygon fill="#64748b" stroke="#64748b" points="112.08,-270.26 104.74,-269.19 109.8,-274.6 112.08,-270.26"/>
</g>
<!-- n33&#45;&gt;n23 -->
<g id="edge62" class="edge">
<title>n33&#45;&gt;n23</title>
<path fill="none" stroke="#64748b" d="M220.96,-304.99C241.79,-282.28 281.85,-242.99 325,-224 372.46,-203.11 517.93,-188.98 595.71,-182.7"/>
<polygon fill="#64748b" stroke="#64748b" points="595.65,-185.16 602.43,-182.16 595.26,-180.28 595.65,-185.16"/>
</g>
<!-- n34 -->
<g id="node34" class="node">
<title>n34</title>
<g id="a_node34"><a xlink:href="vscode://vscode-remote/wsl+Ubuntu/home/gavin/statlib/Statlib/HighDim/Concentration/HansonWright.lean:551" xlink:title="lemma · Statlib/HighDim/Concentration/HansonWright.lean:551" target="_blank">
<path fill="#eef2f6" stroke="#94a3b8" d="M635.84,-413.2C635.84,-413.2 428.16,-413.2 428.16,-413.2 422.16,-413.2 416.16,-407.2 416.16,-401.2 416.16,-401.2 416.16,-389.2 416.16,-389.2 416.16,-383.2 422.16,-377.2 428.16,-377.2 428.16,-377.2 635.84,-377.2 635.84,-377.2 641.84,-377.2 647.84,-383.2 647.84,-389.2 647.84,-389.2 647.84,-401.2 647.84,-401.2 647.84,-407.2 641.84,-413.2 635.84,-413.2"/>
<text xml:space="preserve" text-anchor="middle" x="532" y="-392.2" font-family="Helvetica,sans-Serif" font-size="10.00">offDiagCoeffVec_norm_sq_integral_le_frobenius</text>
</a>
</g>
</g>
<!-- n34&#45;&gt;n0 -->
<g id="edge63" class="edge">
<title>n34&#45;&gt;n0</title>
<path fill="none" stroke="#64748b" d="M648.28,-377.45C745.88,-363.2 870.22,-344.53 875,-341.2 890.02,-330.74 879.54,-315 895,-305.2 917.76,-290.78 989.34,-301.13 1016,-297.2 1061.75,-290.45 1112.51,-278.67 1151.44,-268.7"/>
<polygon fill="#64748b" stroke="#64748b" points="1151.94,-271.1 1158.1,-266.98 1150.71,-266.36 1151.94,-271.1"/>
</g>
<!-- n34&#45;&gt;n2 -->
<g id="edge65" class="edge">
<title>n34&#45;&gt;n2</title>
<path fill="none" stroke="#64748b" d="M415.67,-392.61C306.77,-388.87 154,-377.13 107,-341.2 96.3,-333.01 84.59,-300.12 77.28,-276.41"/>
<polygon fill="#64748b" stroke="#64748b" points="79.68,-275.91 75.32,-269.92 74.99,-277.33 79.68,-275.91"/>
</g>
<!-- n34&#45;&gt;n4 -->
<g id="edge64" class="edge">
<title>n34&#45;&gt;n4</title>
<path fill="none" stroke="#64748b" d="M527.63,-377.01C522.95,-358.99 515.09,-329.91 507,-305.2 505.82,-301.59 504.68,-300.94 504,-297.2 498.2,-265.19 489.01,-252.87 504,-224 526.79,-180.12 548.54,-176.92 595,-160 698.17,-122.42 1029.52,-111.07 1159.23,-108.01"/>
<polygon fill="#64748b" stroke="#64748b" points="1159.02,-110.47 1165.96,-107.86 1158.91,-105.57 1159.02,-110.47"/>
</g>
<!-- n34&#45;&gt;n22 -->
<g id="edge66" class="edge">
<title>n34&#45;&gt;n22</title>
<path fill="none" stroke="#64748b" d="M536.22,-376.93C542.34,-351.88 553.73,-305.3 560.8,-276.35"/>
<polygon fill="#64748b" stroke="#64748b" points="563.12,-277.19 562.4,-269.8 558.36,-276.02 563.12,-277.19"/>
</g>
<!-- n34&#45;&gt;n23 -->
<g id="edge67" class="edge">
<title>n34&#45;&gt;n23</title>
<path fill="none" stroke="#64748b" d="M531.84,-376.78C531.25,-358.58 529.15,-329.35 522,-305.2 520.87,-301.39 518.91,-301.07 518,-297.2 510.53,-265.54 499.19,-250.55 518,-224 535.6,-199.16 568.05,-187.93 595.88,-182.9"/>
<polygon fill="#64748b" stroke="#64748b" points="595.95,-185.37 602.47,-181.83 595.16,-180.53 595.95,-185.37"/>
</g>
<!-- n34&#45;&gt;n24 -->
<g id="edge68" class="edge">
<title>n34&#45;&gt;n24</title>
<path fill="none" stroke="#64748b" d="M648.13,-377.32C718.21,-367.06 809.27,-353.59 890,-341.2 891.64,-340.95 893.29,-340.69 894.95,-340.44"/>
<polygon fill="#64748b" stroke="#64748b" points="895.31,-342.86 901.85,-339.37 894.56,-338.02 895.31,-342.86"/>
</g>
<!-- n34&#45;&gt;n25 -->
<g id="edge70" class="edge">
<title>n34&#45;&gt;n25</title>
<path fill="none" stroke="#64748b" d="M416.08,-381.27C388.41,-373.38 360.89,-360.89 340,-341.2 301.78,-305.18 297.2,-268.55 325,-224 336.75,-205.17 358.91,-194.01 378.53,-187.51"/>
<polygon fill="#64748b" stroke="#64748b" points="379.05,-189.92 385.02,-185.52 377.61,-185.23 379.05,-189.92"/>
</g>
<!-- n34&#45;&gt;n26 -->
<g id="edge69" class="edge">
<title>n34&#45;&gt;n26</title>
<path fill="none" stroke="#64748b" d="M434.53,-376.75C397.28,-367.93 361.06,-355.94 350,-341.2 334.97,-321.17 349.49,-294.03 364.34,-274.77"/>
<polygon fill="#64748b" stroke="#64748b" points="366.11,-276.47 368.6,-269.48 362.3,-273.39 366.11,-276.47"/>
</g>
<!-- n34&#45;&gt;n28 -->
<g id="edge71" class="edge">
<title>n34&#45;&gt;n28</title>
<path fill="none" stroke="#64748b" d="M586.7,-376.72C617.65,-366.82 656.47,-354.42 688.6,-344.14"/>
<polygon fill="#64748b" stroke="#64748b" points="689.26,-346.51 695.18,-342.04 687.76,-341.84 689.26,-346.51"/>
</g>
<!-- n34&#45;&gt;n31 -->
<g id="edge72" class="edge">
<title>n34&#45;&gt;n31</title>
<path fill="none" stroke="#64748b" d="M648.08,-378.19C651.08,-377.85 654.06,-377.52 657,-377.2 683.46,-374.34 1018.01,-347.72 1199.58,-333.33"/>
<polygon fill="#64748b" stroke="#64748b" points="1199.55,-335.79 1206.33,-332.8 1199.16,-330.91 1199.55,-335.79"/>
</g>
<!-- n34&#45;&gt;n32 -->
<g id="edge73" class="edge">
<title>n34&#45;&gt;n32</title>
<path fill="none" stroke="#64748b" d="M508.27,-376.9C495.69,-367.73 480.1,-356.36 466.62,-346.53"/>
<polygon fill="#64748b" stroke="#64748b" points="468.11,-344.58 461.01,-342.44 465.23,-348.54 468.11,-344.58"/>
</g>
<!-- n34&#45;&gt;n33 -->
<g id="edge74" class="edge">
<title>n34&#45;&gt;n33</title>
<path fill="none" stroke="#64748b" d="M450.58,-376.72C403.42,-366.59 344,-353.83 295.53,-343.42"/>
<polygon fill="#64748b" stroke="#64748b" points="296.07,-341.03 288.71,-341.96 295.04,-345.83 296.07,-341.03"/>
</g>
<!-- n35 -->
<g id="node35" class="node">
<title>n35</title>
<g id="a_node35"><a xlink:href="vscode://vscode-remote/wsl+Ubuntu/home/gavin/statlib/Statlib/HighDim/Concentration/HansonWright.lean:634" xlink:title="lemma · Statlib/HighDim/Concentration/HansonWright.lean:634" target="_blank">
<path fill="#eef2f6" stroke="#94a3b8" d="M1157.84,-485.2C1157.84,-485.2 970.16,-485.2 970.16,-485.2 964.16,-485.2 958.16,-479.2 958.16,-473.2 958.16,-473.2 958.16,-461.2 958.16,-461.2 958.16,-455.2 964.16,-449.2 970.16,-449.2 970.16,-449.2 1157.84,-449.2 1157.84,-449.2 1163.84,-449.2 1169.84,-455.2 1169.84,-461.2 1169.84,-461.2 1169.84,-473.2 1169.84,-473.2 1169.84,-479.2 1163.84,-485.2 1157.84,-485.2"/>
<text xml:space="preserve" text-anchor="middle" x="1064" y="-464.2" font-family="Helvetica,sans-Serif" font-size="10.00">offDiagCoeffVec_norm_sq_tail_le_frobenius</text>
</a>
</g>
</g>
<!-- n35&#45;&gt;n0 -->
<g id="edge75" class="edge">
<title>n35&#45;&gt;n0</title>
<path fill="none" stroke="#64748b" d="M1107.97,-448.88C1124.52,-440.37 1142.18,-428.59 1154,-413.2 1184.34,-373.69 1164.5,-351.04 1184,-305.2 1188.28,-295.14 1194.1,-284.67 1199.6,-275.65"/>
<polygon fill="#64748b" stroke="#64748b" points="1201.67,-276.96 1203.3,-269.73 1197.51,-274.36 1201.67,-276.96"/>
</g>
<!-- n35&#45;&gt;n2 -->
<g id="edge77" class="edge">
<title>n35&#45;&gt;n2</title>
<path fill="none" stroke="#64748b" d="M957.94,-462.16C827.63,-456.15 600.07,-442.3 407,-413.2 261.13,-391.22 183.29,-449.37 83,-341.2 67.16,-324.12 65.24,-296.86 66.47,-276.77"/>
<polygon fill="#64748b" stroke="#64748b" points="68.9,-277.07 67.06,-269.89 64.02,-276.65 68.9,-277.07"/>
</g>
<!-- n35&#45;&gt;n4 -->
<g id="edge76" class="edge">
<title>n35&#45;&gt;n4</title>
<path fill="none" stroke="#64748b" d="M1070.49,-448.84C1079.48,-424.73 1096.17,-379.72 1110,-341.2 1128.64,-289.26 1129.08,-274.64 1151,-224 1165.15,-191.33 1184.6,-155.2 1197.7,-131.86"/>
<polygon fill="#64748b" stroke="#64748b" points="1199.83,-133.07 1201.14,-125.77 1195.56,-130.66 1199.83,-133.07"/>
</g>
<!-- n35&#45;&gt;n20 -->
<g id="edge80" class="edge">
<title>n35&#45;&gt;n20</title>
<path fill="none" stroke="#64748b" d="M1126.69,-448.72C1162.61,-438.7 1207.79,-426.1 1244.89,-415.75"/>
<polygon fill="#64748b" stroke="#64748b" points="1245.13,-418.23 1251.22,-413.99 1243.82,-413.51 1245.13,-418.23"/>
</g>
<!-- n35&#45;&gt;n29 -->
<g id="edge78" class="edge">
<title>n35&#45;&gt;n29</title>
<path fill="none" stroke="#64748b" d="M987.32,-448.72C943.01,-438.61 887.18,-425.88 841.59,-415.49"/>
<polygon fill="#64748b" stroke="#64748b" points="842.34,-413.15 834.97,-413.98 841.25,-417.92 842.34,-413.15"/>
</g>
<!-- n35&#45;&gt;n34 -->
<g id="edge79" class="edge">
<title>n35&#45;&gt;n34</title>
<path fill="none" stroke="#64748b" d="M957.72,-452.53C875.58,-441.92 759.07,-426.79 657,-413.2 656.82,-413.18 656.63,-413.15 656.45,-413.13"/>
<polygon fill="#64748b" stroke="#64748b" points="656.87,-410.71 649.6,-412.21 656.22,-415.57 656.87,-410.71"/>
</g>
<!-- n36 -->
<g id="node36" class="node">
<title>n36</title>
<g id="a_node36"><a xlink:href="vscode://vscode-remote/wsl+Ubuntu/home/gavin/statlib/Statlib/HighDim/Concentration/HansonWright.lean:1111" xlink:title="lemma · Statlib/HighDim/Concentration/HansonWright.lean:1111" target="_blank">
<path fill="#eef2f6" stroke="#94a3b8" d="M1322.59,-557.2C1322.59,-557.2 1055.41,-557.2 1055.41,-557.2 1049.41,-557.2 1043.41,-551.2 1043.41,-545.2 1043.41,-545.2 1043.41,-533.2 1043.41,-533.2 1043.41,-527.2 1049.41,-521.2 1055.41,-521.2 1055.41,-521.2 1322.59,-521.2 1322.59,-521.2 1328.59,-521.2 1334.59,-527.2 1334.59,-533.2 1334.59,-533.2 1334.59,-545.2 1334.59,-545.2 1334.59,-551.2 1328.59,-557.2 1322.59,-557.2"/>
<text xml:space="preserve" text-anchor="middle" x="1189" y="-536.2" font-family="Helvetica,sans-Serif" font-size="10.00">decoupledOffDiagQuadForm_prod_tail_le_markov_plus_good</text>
</a>
</g>
</g>
<!-- n36&#45;&gt;n0 -->
<g id="edge81" class="edge">
<title>n36&#45;&gt;n0</title>
<path fill="none" stroke="#64748b" d="M1188.21,-520.79C1186.77,-481.82 1185.06,-384.76 1199,-305.2 1200.69,-295.53 1203.64,-285.19 1206.61,-276.16"/>
<polygon fill="#64748b" stroke="#64748b" points="1208.86,-277.14 1208.82,-269.72 1204.23,-275.55 1208.86,-277.14"/>
</g>
<!-- n36&#45;&gt;n1 -->
<g id="edge82" class="edge">
<title>n36&#45;&gt;n1</title>
<path fill="none" stroke="#64748b" d="M1334.84,-533.1C1620.9,-521.14 2228,-485.27 2228,-396.2 2228,-396.2 2228,-396.2 2228,-177 2228,-135.53 2230.9,-115.65 2200,-88 2172.46,-63.36 2079.6,-49.14 2010.42,-41.75"/>
<polygon fill="#64748b" stroke="#64748b" points="2010.83,-39.33 2003.62,-41.04 2010.32,-44.21 2010.83,-39.33"/>
</g>
<!-- n36&#45;&gt;n2 -->
<g id="edge83" class="edge">
<title>n36&#45;&gt;n2</title>
<path fill="none" stroke="#64748b" d="M1043.02,-534.77C788.48,-526.57 275.78,-499.54 121,-413.2 85.36,-393.32 77.41,-379.75 64,-341.2 56.74,-320.34 59.28,-295.16 63.03,-276.71"/>
<polygon fill="#64748b" stroke="#64748b" points="65.4,-277.34 64.54,-269.97 60.62,-276.27 65.4,-277.34"/>
</g>
<!-- n36&#45;&gt;n21 -->
<g id="edge84" class="edge">
<title>n36&#45;&gt;n21</title>
<path fill="none" stroke="#64748b" d="M1291.15,-520.72C1351.05,-510.47 1426.72,-497.51 1487.93,-487.04"/>
<polygon fill="#64748b" stroke="#64748b" points="1488.11,-489.49 1494.59,-485.9 1487.28,-484.66 1488.11,-489.49"/>
</g>
<!-- n36&#45;&gt;n35 -->
<g id="edge85" class="edge">
<title>n36&#45;&gt;n35</title>
<path fill="none" stroke="#64748b" d="M1157.78,-520.72C1140.95,-511.29 1120.04,-499.58 1102.24,-489.61"/>
<polygon fill="#64748b" stroke="#64748b" points="1103.45,-487.48 1096.14,-486.2 1101.05,-491.76 1103.45,-487.48"/>
</g>
<!-- n37 -->
<g id="node37" class="node">
<title>n37</title>
<g id="a_node37"><a xlink:href="vscode://vscode-remote/wsl+Ubuntu/home/gavin/statlib/Statlib/HighDim/Concentration/HansonWright.lean:1134" xlink:title="lemma · Statlib/HighDim/Concentration/HansonWright.lean:1134" target="_blank">
<path fill="#eef2f6" stroke="#94a3b8" stroke-width="3" d="M1339.82,-629.2C1339.82,-629.2 1038.18,-629.2 1038.18,-629.2 1032.18,-629.2 1026.18,-623.2 1026.18,-617.2 1026.18,-617.2 1026.18,-605.2 1026.18,-605.2 1026.18,-599.2 1032.18,-593.2 1038.18,-593.2 1038.18,-593.2 1339.82,-593.2 1339.82,-593.2 1345.82,-593.2 1351.82,-599.2 1351.82,-605.2 1351.82,-605.2 1351.82,-617.2 1351.82,-617.2 1351.82,-623.2 1345.82,-629.2 1339.82,-629.2"/>
<text xml:space="preserve" text-anchor="middle" x="1189" y="-608.2" font-family="Helvetica,sans-Serif" font-size="10.00">decoupledOffDiagQuadForm_prod_tail_le_markov_plus_good_ofReal</text>
</a>
</g>
</g>
<!-- n37&#45;&gt;n0 -->
<g id="edge86" class="edge">
<title>n37&#45;&gt;n0</title>
<path fill="none" stroke="#64748b" d="M1299.9,-591.77C1367.51,-573.48 1441,-537.63 1441,-468.2 1441,-468.2 1441,-468.2 1441,-394.2 1441,-374.3 1445.47,-318.87 1431,-305.2 1419.27,-294.12 1301.32,-302.26 1286,-297.2 1270.37,-292.03 1254.89,-282.42 1242.48,-273.29"/>
<polygon fill="#64748b" stroke="#64748b" points="1244.18,-271.51 1237.12,-269.22 1241.21,-275.41 1244.18,-271.51"/>
</g>
<!-- n37&#45;&gt;n1 -->
<g id="edge87" class="edge">
<title>n37&#45;&gt;n1</title>
<path fill="none" stroke="#64748b" d="M1353.31,-604.75C1650.76,-592.69 2248,-557.36 2248,-468.2 2248,-468.2 2248,-468.2 2248,-177 2248,-135.11 2248.79,-115.27 2217,-88 2186.64,-61.95 2084.53,-47.87 2010.74,-40.91"/>
<polygon fill="#64748b" stroke="#64748b" points="2011.04,-38.47 2003.85,-40.27 2010.59,-43.35 2011.04,-38.47"/>
</g>
<!-- n37&#45;&gt;n2 -->
<g id="edge88" class="edge">
<title>n37&#45;&gt;n2</title>
<path fill="none" stroke="#64748b" d="M1024.8,-606.97C702.25,-598.44 17,-568.5 17,-468.2 17,-468.2 17,-468.2 17,-394.2 17,-354.16 15.78,-342.24 31,-305.2 35.42,-294.43 42.38,-283.78 49.19,-274.8"/>
<polygon fill="#64748b" stroke="#64748b" points="50.98,-276.48 53.4,-269.47 47.14,-273.45 50.98,-276.48"/>
</g>
<!-- n37&#45;&gt;n3 -->
<g id="edge89" class="edge">
<title>n37&#45;&gt;n3</title>
<path fill="none" stroke="#64748b" d="M1025.08,-592.76C890.87,-578.48 707.2,-558.94 605.83,-548.16"/>
<polygon fill="#64748b" stroke="#64748b" points="606.21,-545.74 598.99,-547.43 605.69,-550.61 606.21,-545.74"/>
</g>
<!-- n37&#45;&gt;n36 -->
<g id="edge90" class="edge">
<title>n37&#45;&gt;n36</title>
<path fill="none" stroke="#64748b" d="M1189,-591.81C1189,-583.79 1189,-574.25 1189,-565.57"/>
<polygon fill="#64748b" stroke="#64748b" points="1191.45,-565.78 1189,-558.78 1186.55,-565.78 1191.45,-565.78"/>
</g>
</g>
</svg>
