<?xml version="1.0" encoding="UTF-8" standalone="no"?>
<!DOCTYPE svg PUBLIC "-//W3C//DTD SVG 1.1//EN"
 "http://www.w3.org/Graphics/SVG/1.1/DTD/svg11.dtd">
<!-- Generated by graphviz version 15.0.0 (20260523.1842)
 -->
<!-- Title: diagQuadForm_centered_tail_bernstein_explicit Pages: 1 -->
<svg width="1453pt" height="555pt"
 viewBox="0.00 0.00 1453.00 555.00" xmlns="http://www.w3.org/2000/svg" xmlns:xlink="http://www.w3.org/1999/xlink">
<g id="graph0" class="graph" transform="scale(1 1) rotate(0) translate(4 551.2)">
<title>diagQuadForm_centered_tail_bernstein_explicit</title>
<polygon fill="white" stroke="none" points="-4,4 -4,-551.2 1449,-551.2 1449,4 -4,4"/>
<text xml:space="preserve" text-anchor="middle" x="722.5" y="-530.6" font-family="Helvetica,sans-Serif" font-size="14.00">Proof narrative — diagQuadForm_centered_tail_bernstein_explicit &#160;(19 decls)</text>
<g id="clust1" class="cluster">
<title>cluster_0</title>
<path fill="none" stroke="#cbd5e1" stroke-dasharray="5,2" d="M20,-80C20,-80 591,-80 591,-80 597,-80 603,-86 603,-92 603,-92 603,-502.4 603,-502.4 603,-508.4 597,-514.4 591,-514.4 591,-514.4 20,-514.4 20,-514.4 14,-514.4 8,-508.4 8,-502.4 8,-502.4 8,-92 8,-92 8,-86 14,-80 20,-80"/>
<text xml:space="preserve" text-anchor="middle" x="305.5" y="-500.5" font-family="Helvetica,sans-Serif" font-size="11.00">HighDim</text>
</g>
<g id="clust2" class="cluster">
<title>cluster_1</title>
<path fill="none" stroke="#cbd5e1" stroke-dasharray="5,2" d="M623,-8C623,-8 1425,-8 1425,-8 1431,-8 1437,-14 1437,-20 1437,-20 1437,-213.2 1437,-213.2 1437,-219.2 1431,-225.2 1425,-225.2 1425,-225.2 623,-225.2 623,-225.2 617,-225.2 611,-219.2 611,-213.2 611,-213.2 611,-20 611,-20 611,-14 617,-8 623,-8"/>
<text xml:space="preserve" text-anchor="middle" x="1024" y="-211.3" font-family="Helvetica,sans-Serif" font-size="11.00">StatFoundation</text>
</g>
<!-- n0 -->
<g id="node1" class="node">
<title>n0</title>
<g id="a_node1"><a xlink:href="vscode://vscode-remote/wsl+Ubuntu/home/gavin/statlib/Statlib/HighDim/Vocabulary/RandomVector.lean:83" xlink:title="structure · Statlib/HighDim/Vocabulary/RandomVector.lean:83" target="_blank">
<path fill="#e8dcff" stroke="#8b5cf6" d="M266.4,-196C266.4,-196 231.6,-196 231.6,-196 225.6,-196 219.6,-190 219.6,-184 219.6,-184 219.6,-172 219.6,-172 219.6,-166 225.6,-160 231.6,-160 231.6,-160 266.4,-160 266.4,-160 272.4,-160 278.4,-166 278.4,-172 278.4,-172 278.4,-184 278.4,-184 278.4,-190 272.4,-196 266.4,-196"/>
<text xml:space="preserve" text-anchor="middle" x="249" y="-175" font-family="Helvetica,sans-Serif" font-size="10.00">HasMean</text>
</a>
</g>
</g>
<!-- n1 -->
<g id="node2" class="node">
<title>n1</title>
<g id="a_node2"><a xlink:href="vscode://vscode-remote/wsl+Ubuntu/home/gavin/statlib/Statlib/HighDim/Vocabulary/RandomVector.lean:52" xlink:title="structure · Statlib/HighDim/Vocabulary/RandomVector.lean:52" target="_blank">
<path fill="#e8dcff" stroke="#8b5cf6" d="M306.36,-124C306.36,-124 217.64,-124 217.64,-124 211.64,-124 205.64,-118 205.64,-112 205.64,-112 205.64,-100 205.64,-100 205.64,-94 211.64,-88 217.64,-88 217.64,-88 306.36,-88 306.36,-88 312.36,-88 318.36,-94 318.36,-100 318.36,-100 318.36,-112 318.36,-112 318.36,-118 312.36,-124 306.36,-124"/>
<text xml:space="preserve" text-anchor="middle" x="262" y="-103" font-family="Helvetica,sans-Serif" font-size="10.00">IsSubGaussianVector</text>
</a>
</g>
</g>
<!-- n2 -->
<g id="node3" class="node">
<title>n2</title>
<g id="a_node3"><a xlink:href="vscode://vscode-remote/wsl+Ubuntu/home/gavin/statlib/Statlib/HighDim/Vocabulary/QuadraticForms.lean:21" xlink:title="noncomputable def · Statlib/HighDim/Vocabulary/QuadraticForms.lean:21" target="_blank">
<path fill="#d6e9ff" stroke="#3b82f6" d="M106.35,-341.2C106.35,-341.2 47.65,-341.2 47.65,-341.2 41.65,-341.2 35.65,-335.2 35.65,-329.2 35.65,-329.2 35.65,-317.2 35.65,-317.2 35.65,-311.2 41.65,-305.2 47.65,-305.2 47.65,-305.2 106.35,-305.2 106.35,-305.2 112.35,-305.2 118.35,-311.2 118.35,-317.2 118.35,-317.2 118.35,-329.2 118.35,-329.2 118.35,-335.2 112.35,-341.2 106.35,-341.2"/>
<text xml:space="preserve" text-anchor="middle" x="77" y="-320.2" font-family="Helvetica,sans-Serif" font-size="10.00">diagQuadForm</text>
</a>
</g>
</g>
<!-- n3 -->
<g id="node4" class="node">
<title>n3</title>
<g id="a_node4"><a xlink:href="vscode://vscode-remote/wsl+Ubuntu/home/gavin/statlib/Statlib/HighDim/Vocabulary/Norms.lean:32" xlink:title="lemma · Statlib/HighDim/Vocabulary/Norms.lean:32" target="_blank">
<path fill="#eef2f6" stroke="#94a3b8" d="M141.69,-124C141.69,-124 86.31,-124 86.31,-124 80.31,-124 74.31,-118 74.31,-112 74.31,-112 74.31,-100 74.31,-100 74.31,-94 80.31,-88 86.31,-88 86.31,-88 141.69,-88 141.69,-88 147.69,-88 153.69,-94 153.69,-100 153.69,-100 153.69,-112 153.69,-112 153.69,-118 147.69,-124 141.69,-124"/>
<text xml:space="preserve" text-anchor="middle" x="114" y="-103" font-family="Helvetica,sans-Serif" font-size="10.00">inner_eq_sum</text>
</a>
</g>
</g>
<!-- n4 -->
<g id="node5" class="node">
<title>n4</title>
<g id="a_node5"><a xlink:href="vscode://vscode-remote/wsl+Ubuntu/home/gavin/statlib/Statlib/HighDim/Concentration/HansonWright.lean:1389" xlink:title="lemma · Statlib/HighDim/Concentration/HansonWright.lean:1389" target="_blank">
<path fill="#eef2f6" stroke="#94a3b8" d="M169.76,-196C169.76,-196 58.24,-196 58.24,-196 52.24,-196 46.24,-190 46.24,-184 46.24,-184 46.24,-172 46.24,-172 46.24,-166 52.24,-160 58.24,-160 58.24,-160 169.76,-160 169.76,-160 175.76,-160 181.76,-166 181.76,-172 181.76,-172 181.76,-184 181.76,-184 181.76,-190 175.76,-196 169.76,-196"/>
<text xml:space="preserve" text-anchor="middle" x="114" y="-175" font-family="Helvetica,sans-Serif" font-size="10.00">subgaussian_vector_coord</text>
</a>
</g>
</g>
<!-- n4&#45;&gt;n1 -->
<g id="edge1" class="edge">
<title>n4&#45;&gt;n1</title>
<path fill="none" stroke="#64748b" d="M150.96,-159.52C171.17,-149.96 196.34,-138.05 217.61,-128"/>
<polygon fill="#64748b" stroke="#64748b" points="218.6,-130.24 223.88,-125.03 216.51,-125.81 218.6,-130.24"/>
</g>
<!-- n4&#45;&gt;n3 -->
<g id="edge2" class="edge">
<title>n4&#45;&gt;n3</title>
<path fill="none" stroke="#64748b" d="M114,-159.7C114,-151.47 114,-141.48 114,-132.42"/>
<polygon fill="#64748b" stroke="#64748b" points="116.45,-132.62 114,-125.62 111.55,-132.62 116.45,-132.62"/>
</g>
<!-- n8 -->
<g id="node6" class="node">
<title>n8</title>
<g id="a_node6"><a xlink:href="vscode://vscode-remote/wsl+Ubuntu/home/gavin/statlib/Statlib/HighDim/Concentration/HansonWright.lean:2109" xlink:title="lemma · Statlib/HighDim/Concentration/HansonWright.lean:2109" target="_blank">
<path fill="#eef2f6" stroke="#94a3b8" d="M351.62,-269.2C351.62,-269.2 168.38,-269.2 168.38,-269.2 162.38,-269.2 156.38,-263.2 156.38,-257.2 156.38,-257.2 156.38,-245.2 156.38,-245.2 156.38,-239.2 162.38,-233.2 168.38,-233.2 168.38,-233.2 351.62,-233.2 351.62,-233.2 357.62,-233.2 363.62,-239.2 363.62,-245.2 363.62,-245.2 363.62,-257.2 363.62,-257.2 363.62,-263.2 357.62,-269.2 351.62,-269.2"/>
<text xml:space="preserve" text-anchor="middle" x="260" y="-248.2" font-family="Helvetica,sans-Serif" font-size="10.00">coord_sq_centered_scaled_exp_integrable</text>
</a>
</g>
</g>
<!-- n8&#45;&gt;n0 -->
<g id="edge4" class="edge">
<title>n8&#45;&gt;n0</title>
<path fill="none" stroke="#64748b" d="M257.34,-232.96C256.01,-224.39 254.39,-213.87 252.92,-204.39"/>
<polygon fill="#64748b" stroke="#64748b" points="255.36,-204.12 251.87,-197.57 250.52,-204.86 255.36,-204.12"/>
</g>
<!-- n8&#45;&gt;n1 -->
<g id="edge5" class="edge">
<title>n8&#45;&gt;n1</title>
<path fill="none" stroke="#64748b" d="M282.32,-232.77C284.2,-230.43 285.82,-227.89 287,-225.2 298.6,-198.65 293.33,-188.28 287,-160 284.85,-150.42 280.78,-140.54 276.53,-131.94"/>
<polygon fill="#64748b" stroke="#64748b" points="278.73,-130.86 273.32,-125.79 274.38,-133.13 278.73,-130.86"/>
</g>
<!-- n8&#45;&gt;n4 -->
<g id="edge6" class="edge">
<title>n8&#45;&gt;n4</title>
<path fill="none" stroke="#64748b" d="M224.28,-232.78C204.13,-222.96 178.8,-210.6 157.5,-200.21"/>
<polygon fill="#64748b" stroke="#64748b" points="158.58,-198.01 151.21,-197.15 156.43,-202.42 158.58,-198.01"/>
</g>
<!-- n7 -->
<g id="node14" class="node">
<title>n7</title>
<g id="a_node14"><a xlink:href="vscode://vscode-remote/wsl+Ubuntu/home/gavin/statlib/Statlib/StatFoundation/RandomVariable/SubGaussian/subgaussian_exp_sq_le_at_one_third.lean:166" xlink:title="theorem · Statlib/StatFoundation/RandomVariable/SubGaussian/subgaussian_exp_sq_le_at_one_third.lean:166" target="_blank">
<path fill="#ffe6a3" stroke="#d4a017" d="M827.3,-124C827.3,-124 630.7,-124 630.7,-124 624.7,-124 618.7,-118 618.7,-112 618.7,-112 618.7,-100 618.7,-100 618.7,-94 624.7,-88 630.7,-88 630.7,-88 827.3,-88 827.3,-88 833.3,-88 839.3,-94 839.3,-100 839.3,-100 839.3,-112 839.3,-112 839.3,-118 833.3,-124 827.3,-124"/>
<text xml:space="preserve" text-anchor="middle" x="729" y="-103" font-family="Helvetica,sans-Serif" font-size="10.00">subgaussian_integrable_exp_sq_at_one_third</text>
</a>
</g>
</g>
<!-- n8&#45;&gt;n7 -->
<g id="edge7" class="edge">
<title>n8&#45;&gt;n7</title>
<path fill="none" stroke="#64748b" d="M317.04,-232.78C404.6,-206.05 571.65,-155.04 663.85,-126.89"/>
<polygon fill="#64748b" stroke="#64748b" points="664.56,-129.24 670.54,-124.85 663.13,-124.55 664.56,-129.24"/>
</g>
<!-- n13 -->
<g id="node7" class="node">
<title>n13</title>
<g id="a_node7"><a xlink:href="vscode://vscode-remote/wsl+Ubuntu/home/gavin/statlib/Statlib/HighDim/Concentration/HansonWright.lean:2044" xlink:title="lemma · Statlib/HighDim/Concentration/HansonWright.lean:2044" target="_blank">
<path fill="#eef2f6" stroke="#94a3b8" d="M562.67,-269.2C562.67,-269.2 393.33,-269.2 393.33,-269.2 387.33,-269.2 381.33,-263.2 381.33,-257.2 381.33,-257.2 381.33,-245.2 381.33,-245.2 381.33,-239.2 387.33,-233.2 393.33,-233.2 393.33,-233.2 562.67,-233.2 562.67,-233.2 568.67,-233.2 574.67,-239.2 574.67,-245.2 574.67,-245.2 574.67,-257.2 574.67,-257.2 574.67,-263.2 568.67,-269.2 562.67,-269.2"/>
<text xml:space="preserve" text-anchor="middle" x="478" y="-248.2" font-family="Helvetica,sans-Serif" font-size="10.00">coord_sq_centered_mgf_bound_explicit</text>
</a>
</g>
</g>
<!-- n13&#45;&gt;n0 -->
<g id="edge13" class="edge">
<title>n13&#45;&gt;n0</title>
<path fill="none" stroke="#64748b" d="M418.04,-232.76C409.62,-230.26 401.09,-227.69 393,-225.2 356.76,-214.06 315.58,-200.78 286.56,-191.33"/>
<polygon fill="#64748b" stroke="#64748b" points="287.57,-189.08 280.16,-189.24 286.05,-193.74 287.57,-189.08"/>
</g>
<!-- n13&#45;&gt;n1 -->
<g id="edge14" class="edge">
<title>n13&#45;&gt;n1</title>
<path fill="none" stroke="#64748b" d="M451.95,-232.93C412.62,-206.85 338.12,-157.47 295.04,-128.9"/>
<polygon fill="#64748b" stroke="#64748b" points="296.6,-127 289.41,-125.17 293.89,-131.08 296.6,-127"/>
</g>
<!-- n13&#45;&gt;n4 -->
<g id="edge15" class="edge">
<title>n13&#45;&gt;n4</title>
<path fill="none" stroke="#64748b" d="M381.08,-234.11C378.36,-233.78 375.66,-233.48 373,-233.2 337.15,-229.42 245.95,-234.01 211,-225.2 189.79,-219.85 167.66,-209.71 149.91,-200.29"/>
<polygon fill="#64748b" stroke="#64748b" points="151.23,-198.22 143.91,-197.04 148.89,-202.53 151.23,-198.22"/>
</g>
<!-- n12 -->
<g id="node18" class="node">
<title>n12</title>
<g id="a_node18"><a xlink:href="vscode://vscode-remote/wsl+Ubuntu/home/gavin/statlib/Statlib/StatFoundation/RandomVariable/SubExponential/subexp_mgf_le_of_sq_subgaussian.lean:72" xlink:title="theorem · Statlib/StatFoundation/RandomVariable/SubExponential/subexp_mgf_le_of_sq_subgaussian.lean:72" target="_blank">
<path fill="#ffe6a3" stroke="#d4a017" d="M1003.84,-196C1003.84,-196 816.16,-196 816.16,-196 810.16,-196 804.16,-190 804.16,-184 804.16,-184 804.16,-172 804.16,-172 804.16,-166 810.16,-160 816.16,-160 816.16,-160 1003.84,-160 1003.84,-160 1009.84,-160 1015.84,-166 1015.84,-172 1015.84,-172 1015.84,-184 1015.84,-184 1015.84,-190 1009.84,-196 1003.84,-196"/>
<text xml:space="preserve" text-anchor="middle" x="910" y="-175" font-family="Helvetica,sans-Serif" font-size="10.00">subexp_mgf_le_of_sq_subgaussian_explicit</text>
</a>
</g>
</g>
<!-- n13&#45;&gt;n12 -->
<g id="edge16" class="edge">
<title>n13&#45;&gt;n12</title>
<path fill="none" stroke="#64748b" d="M575.09,-240.6C611.26,-236.54 652.6,-231.32 690,-225.2 735.5,-217.76 785.85,-207.34 826.89,-198.29"/>
<polygon fill="#64748b" stroke="#64748b" points="827.18,-200.73 833.49,-196.83 826.12,-195.95 827.18,-200.73"/>
</g>
<!-- n14 -->
<g id="node8" class="node">
<title>n14</title>
<g id="a_node8"><a xlink:href="vscode://vscode-remote/wsl+Ubuntu/home/gavin/statlib/Statlib/HighDim/Concentration/HansonWright.lean:2192" xlink:title="lemma · Statlib/HighDim/Concentration/HansonWright.lean:2192" target="_blank">
<path fill="#eef2f6" stroke="#94a3b8" d="M555.04,-341.2C555.04,-341.2 288.96,-341.2 288.96,-341.2 282.96,-341.2 276.96,-335.2 276.96,-329.2 276.96,-329.2 276.96,-317.2 276.96,-317.2 276.96,-311.2 282.96,-305.2 288.96,-305.2 288.96,-305.2 555.04,-305.2 555.04,-305.2 561.04,-305.2 567.04,-311.2 567.04,-317.2 567.04,-317.2 567.04,-329.2 567.04,-329.2 567.04,-335.2 561.04,-341.2 555.04,-341.2"/>
<text xml:space="preserve" text-anchor="middle" x="422" y="-320.2" font-family="Helvetica,sans-Serif" font-size="10.00">coord_sq_centered_scaled_subexponential_explicit_of_range</text>
</a>
</g>
</g>
<!-- n14&#45;&gt;n0 -->
<g id="edge17" class="edge">
<title>n14&#45;&gt;n0</title>
<path fill="none" stroke="#64748b" d="M276.81,-310.89C220.12,-303.19 164.49,-290.38 147,-269.2 136.81,-256.86 136.47,-245.25 147,-233.2 155.7,-223.24 194.25,-231.29 206,-225.2 216.23,-219.9 225.32,-211.15 232.47,-202.69"/>
<polygon fill="#64748b" stroke="#64748b" points="234.15,-204.51 236.6,-197.52 230.32,-201.46 234.15,-204.51"/>
</g>
<!-- n14&#45;&gt;n1 -->
<g id="edge18" class="edge">
<title>n14&#45;&gt;n1</title>
<path fill="none" stroke="#64748b" d="M514.91,-304.72C563.39,-291.1 608.05,-268.46 584,-233.2 526.38,-148.73 402.93,-120.8 326.73,-111.56"/>
<polygon fill="#64748b" stroke="#64748b" points="327.33,-109.16 320.1,-110.8 326.77,-114.03 327.33,-109.16"/>
</g>
<!-- n14&#45;&gt;n8 -->
<g id="edge20" class="edge">
<title>n14&#45;&gt;n8</title>
<path fill="none" stroke="#64748b" d="M381.54,-304.72C359.23,-295.08 331.38,-283.04 307.98,-272.93"/>
<polygon fill="#64748b" stroke="#64748b" points="309.01,-270.71 301.62,-270.18 307.07,-275.21 309.01,-270.71"/>
</g>
<!-- n14&#45;&gt;n13 -->
<g id="edge21" class="edge">
<title>n14&#45;&gt;n13</title>
<path fill="none" stroke="#64748b" d="M435.84,-304.9C442.83,-296.17 451.41,-285.44 459,-275.95"/>
<polygon fill="#64748b" stroke="#64748b" points="460.91,-277.48 463.37,-270.49 457.08,-274.42 460.91,-277.48"/>
</g>
<!-- n5 -->
<g id="node12" class="node">
<title>n5</title>
<g id="a_node12"><a xlink:href="vscode://vscode-remote/wsl+Ubuntu/home/gavin/statlib/Statlib/StatFoundation/Vocabulary/RandomVariable.lean:74" xlink:title="structure · Statlib/StatFoundation/Vocabulary/RandomVariable.lean:74" target="_blank">
<path fill="#e8dcff" stroke="#8b5cf6" d="M1417.47,-124C1417.47,-124 1316.53,-124 1316.53,-124 1310.53,-124 1304.53,-118 1304.53,-112 1304.53,-112 1304.53,-100 1304.53,-100 1304.53,-94 1310.53,-88 1316.53,-88 1316.53,-88 1417.47,-88 1417.47,-88 1423.47,-88 1429.47,-94 1429.47,-100 1429.47,-100 1429.47,-112 1429.47,-112 1429.47,-118 1423.47,-124 1417.47,-124"/>
<text xml:space="preserve" text-anchor="middle" x="1367" y="-103" font-family="Helvetica,sans-Serif" font-size="10.00">HasSubexponentialMGF</text>
</a>
</g>
</g>
<!-- n14&#45;&gt;n5 -->
<g id="edge19" class="edge">
<title>n14&#45;&gt;n5</title>
<path fill="none" stroke="#64748b" d="M567.25,-317.16C773.1,-308.02 1137.74,-283.9 1255,-225.2 1297.7,-203.83 1332.81,-159.2 1351.76,-131.31"/>
<polygon fill="#64748b" stroke="#64748b" points="1353.77,-132.71 1355.61,-125.52 1349.69,-130 1353.77,-132.71"/>
</g>
<!-- n16 -->
<g id="node9" class="node">
<title>n16</title>
<g id="a_node9"><a xlink:href="vscode://vscode-remote/wsl+Ubuntu/home/gavin/statlib/Statlib/HighDim/Concentration/HansonWright.lean:2248" xlink:title="lemma · Statlib/HighDim/Concentration/HansonWright.lean:2248" target="_blank">
<path fill="#eef2f6" stroke="#94a3b8" d="M496.07,-413.2C496.07,-413.2 293.93,-413.2 293.93,-413.2 287.93,-413.2 281.93,-407.2 281.93,-401.2 281.93,-401.2 281.93,-389.2 281.93,-389.2 281.93,-383.2 287.93,-377.2 293.93,-377.2 293.93,-377.2 496.07,-377.2 496.07,-377.2 502.07,-377.2 508.07,-383.2 508.07,-389.2 508.07,-389.2 508.07,-401.2 508.07,-401.2 508.07,-407.2 502.07,-413.2 496.07,-413.2"/>
<text xml:space="preserve" text-anchor="middle" x="395" y="-392.2" font-family="Helvetica,sans-Serif" font-size="10.00">weighted_coord_sq_centered_sum_tail_explicit</text>
</a>
</g>
</g>
<!-- n16&#45;&gt;n0 -->
<g id="edge23" class="edge">
<title>n16&#45;&gt;n0</title>
<path fill="none" stroke="#64748b" d="M350.12,-376.8C325.59,-366.95 294.82,-354.07 268,-341.2 237.87,-326.75 231.38,-321.11 202,-305.2 172.27,-289.11 152.35,-298.21 135,-269.2 126.79,-255.47 124.34,-245.13 135,-233.2 145.58,-221.36 191.82,-232.34 206,-225.2 216.29,-220.01 225.39,-211.29 232.53,-202.81"/>
<polygon fill="#64748b" stroke="#64748b" points="234.22,-204.62 236.66,-197.62 230.38,-201.57 234.22,-204.62"/>
</g>
<!-- n16&#45;&gt;n1 -->
<g id="edge24" class="edge">
<title>n16&#45;&gt;n1</title>
<path fill="none" stroke="#64748b" d="M290.27,-376.76C259.22,-368.81 226.06,-357.42 198,-341.2 178.41,-329.88 178.21,-320.98 162,-305.2 145.33,-288.97 133.19,-290.57 124,-269.2 117.68,-254.5 113.38,-245.17 124,-233.2 133.95,-221.99 179.49,-234.81 191,-225.2 214.26,-205.77 195.63,-186.12 211,-160 217.42,-149.09 226.51,-138.68 235.25,-130.03"/>
<polygon fill="#64748b" stroke="#64748b" points="236.75,-131.98 240.11,-125.37 233.36,-128.44 236.75,-131.98"/>
</g>
<!-- n16&#45;&gt;n4 -->
<g id="edge27" class="edge">
<title>n16&#45;&gt;n4</title>
<path fill="none" stroke="#64748b" d="M281.47,-381.73C244.57,-374 204.73,-361.48 172,-341.2 154.3,-330.23 158.25,-318.22 142,-305.2 114.7,-283.32 90.22,-299.06 72,-269.2 58.74,-247.47 74.66,-220.88 90.56,-202.21"/>
<polygon fill="#64748b" stroke="#64748b" points="92.08,-204.19 94.9,-197.34 88.42,-200.93 92.08,-204.19"/>
</g>
<!-- n16&#45;&gt;n14 -->
<g id="edge26" class="edge">
<title>n16&#45;&gt;n14</title>
<path fill="none" stroke="#64748b" d="M401.67,-376.9C404.91,-368.5 408.86,-358.27 412.41,-349.06"/>
<polygon fill="#64748b" stroke="#64748b" points="414.62,-350.13 414.86,-342.72 410.05,-348.37 414.62,-350.13"/>
</g>
<!-- n16&#45;&gt;n5 -->
<g id="edge25" class="edge">
<title>n16&#45;&gt;n5</title>
<path fill="none" stroke="#64748b" d="M508.24,-385.61C723.43,-367.31 1181.09,-318.37 1306,-225.2 1336.7,-202.3 1353.22,-159.47 1361.05,-132.13"/>
<polygon fill="#64748b" stroke="#64748b" points="1363.35,-133.05 1362.82,-125.65 1358.62,-131.76 1363.35,-133.05"/>
</g>
<!-- n15 -->
<g id="node19" class="node">
<title>n15</title>
<g id="a_node19"><a xlink:href="vscode://vscode-remote/wsl+Ubuntu/home/gavin/statlib/Statlib/StatFoundation/Concentration/ExponentialType/bernstein_sum_meas_abs_ge_le_two_exp.lean:13" xlink:title="theorem · Statlib/StatFoundation/Concentration/ExponentialType/bernstein_sum_meas_abs_ge_le_two_exp.lean:13" target="_blank">
<path fill="#ffe6a3" stroke="#d4a017" d="M1234.06,-196C1234.06,-196 1051.94,-196 1051.94,-196 1045.94,-196 1039.94,-190 1039.94,-184 1039.94,-184 1039.94,-172 1039.94,-172 1039.94,-166 1045.94,-160 1051.94,-160 1051.94,-160 1234.06,-160 1234.06,-160 1240.06,-160 1246.06,-166 1246.06,-172 1246.06,-172 1246.06,-184 1246.06,-184 1246.06,-190 1240.06,-196 1234.06,-196"/>
<text xml:space="preserve" text-anchor="middle" x="1143" y="-175" font-family="Helvetica,sans-Serif" font-size="10.00">bernstein_sum_meas_abs_ge_le_two_exp</text>
</a>
</g>
</g>
<!-- n16&#45;&gt;n15 -->
<g id="edge28" class="edge">
<title>n16&#45;&gt;n15</title>
<path fill="none" stroke="#64748b" d="M470.96,-376.71C590.15,-348.63 827.86,-290.01 1025,-225.2 1047.89,-217.68 1072.79,-208.13 1093.79,-199.68"/>
<polygon fill="#64748b" stroke="#64748b" points="1094.66,-201.97 1100.23,-197.07 1092.82,-197.43 1094.66,-201.97"/>
</g>
<!-- n17 -->
<g id="node10" class="node">
<title>n17</title>
<g id="a_node10"><a xlink:href="vscode://vscode-remote/wsl+Ubuntu/home/gavin/statlib/Statlib/HighDim/Concentration/HansonWright.lean:360" xlink:title="lemma · Statlib/HighDim/Concentration/HansonWright.lean:360" target="_blank">
<path fill="#eef2f6" stroke="#94a3b8" d="M212.16,-413.2C212.16,-413.2 67.84,-413.2 67.84,-413.2 61.84,-413.2 55.84,-407.2 55.84,-401.2 55.84,-401.2 55.84,-389.2 55.84,-389.2 55.84,-383.2 61.84,-377.2 67.84,-377.2 67.84,-377.2 212.16,-377.2 212.16,-377.2 218.16,-377.2 224.16,-383.2 224.16,-389.2 224.16,-389.2 224.16,-401.2 224.16,-401.2 224.16,-407.2 218.16,-413.2 212.16,-413.2"/>
<text xml:space="preserve" text-anchor="middle" x="140" y="-392.2" font-family="Helvetica,sans-Serif" font-size="10.00">diagQuadForm_centered_eq_sum</text>
</a>
</g>
</g>
<!-- n17&#45;&gt;n2 -->
<g id="edge29" class="edge">
<title>n17&#45;&gt;n2</title>
<path fill="none" stroke="#64748b" d="M124.43,-376.9C116.42,-368 106.54,-357.02 97.88,-347.4"/>
<polygon fill="#64748b" stroke="#64748b" points="99.91,-345.99 93.41,-342.43 96.27,-349.27 99.91,-345.99"/>
</g>
<!-- n18 -->
<g id="node11" class="node">
<title>n18</title>
<g id="a_node11"><a xlink:href="vscode://vscode-remote/wsl+Ubuntu/home/gavin/statlib/Statlib/HighDim/Concentration/HansonWright.lean:2342" xlink:title="lemma · Statlib/HighDim/Concentration/HansonWright.lean:2342" target="_blank">
<path fill="#eef2f6" stroke="#94a3b8" stroke-width="3" d="M293.17,-485.2C293.17,-485.2 88.83,-485.2 88.83,-485.2 82.83,-485.2 76.83,-479.2 76.83,-473.2 76.83,-473.2 76.83,-461.2 76.83,-461.2 76.83,-455.2 82.83,-449.2 88.83,-449.2 88.83,-449.2 293.17,-449.2 293.17,-449.2 299.17,-449.2 305.17,-455.2 305.17,-461.2 305.17,-461.2 305.17,-473.2 305.17,-473.2 305.17,-479.2 299.17,-485.2 293.17,-485.2"/>
<text xml:space="preserve" text-anchor="middle" x="191" y="-464.2" font-family="Helvetica,sans-Serif" font-size="10.00">diagQuadForm_centered_tail_bernstein_explicit</text>
</a>
</g>
</g>
<!-- n18&#45;&gt;n0 -->
<g id="edge30" class="edge">
<title>n18&#45;&gt;n0</title>
<path fill="none" stroke="#64748b" d="M219.08,-447.93C230.29,-438.95 241.96,-427.07 248,-413.2 254.39,-398.53 255.01,-391.58 248,-377.2 236.63,-353.86 221.78,-358.02 202,-341.2 166.06,-310.64 142.92,-312.42 124,-269.2 117.58,-254.54 113.25,-245.05 124,-233.2 136.3,-219.64 189.59,-233.32 206,-225.2 216.49,-220.01 225.71,-211.12 232.89,-202.5"/>
<polygon fill="#64748b" stroke="#64748b" points="234.64,-204.25 237.04,-197.23 230.79,-201.22 234.64,-204.25"/>
</g>
<!-- n18&#45;&gt;n1 -->
<g id="edge31" class="edge">
<title>n18&#45;&gt;n1</title>
<path fill="none" stroke="#64748b" d="M210.45,-447.93C227.87,-429.29 248.46,-399.95 233,-377.2 208.55,-341.23 173.03,-371.68 142,-341.2 129.63,-329.05 138.52,-318.16 127,-305.2 105.32,-280.81 86.32,-292.03 63,-269.2 27.35,-234.3 6.03,-199.11 37,-160 47.07,-147.28 134.23,-129.48 197.05,-118.09"/>
<polygon fill="#64748b" stroke="#64748b" points="197.41,-120.52 203.86,-116.87 196.54,-115.69 197.41,-120.52"/>
</g>
<!-- n18&#45;&gt;n2 -->
<g id="edge32" class="edge">
<title>n18&#45;&gt;n2</title>
<path fill="none" stroke="#64748b" d="M91.77,-447.8C74.16,-440.01 57.97,-428.93 47,-413.2 33.35,-393.63 45.1,-367.36 57.68,-348.44"/>
<polygon fill="#64748b" stroke="#64748b" points="59.61,-349.96 61.62,-342.82 55.6,-347.14 59.61,-349.96"/>
</g>
<!-- n18&#45;&gt;n4 -->
<g id="edge33" class="edge">
<title>n18&#45;&gt;n4</title>
<path fill="none" stroke="#64748b" d="M86.74,-447.78C67.78,-439.99 49.94,-428.92 37,-413.2 -14.37,-350.79 16.74,-299.48 63,-233.2 70.57,-222.35 80.24,-211.51 89.12,-202.41"/>
<polygon fill="#64748b" stroke="#64748b" points="90.83,-204.17 94.04,-197.48 87.36,-200.71 90.83,-204.17"/>
</g>
<!-- n18&#45;&gt;n16 -->
<g id="edge34" class="edge">
<title>n18&#45;&gt;n16</title>
<path fill="none" stroke="#64748b" d="M244.87,-447.72C273.03,-438.05 307.54,-426.21 336.37,-416.32"/>
<polygon fill="#64748b" stroke="#64748b" points="337.09,-418.66 342.91,-414.07 335.5,-414.03 337.09,-418.66"/>
</g>
<!-- n18&#45;&gt;n17 -->
<g id="edge35" class="edge">
<title>n18&#45;&gt;n17</title>
<path fill="none" stroke="#64748b" d="M177.6,-447.81C171.39,-439.29 163.94,-429.05 157.31,-419.96"/>
<polygon fill="#64748b" stroke="#64748b" points="159.43,-418.71 153.33,-414.49 155.47,-421.59 159.43,-418.71"/>
</g>
<!-- n6 -->
<g id="node13" class="node">
<title>n6</title>
<g id="a_node13"><a xlink:href="vscode://vscode-remote/wsl+Ubuntu/home/gavin/statlib/Statlib/StatFoundation/RandomVariable/SubGaussian/subgaussian_meas_abs_ge_le_two_exp.lean:9" xlink:title="theorem · Statlib/StatFoundation/RandomVariable/SubGaussian/subgaussian_meas_abs_ge_le_two_exp.lean:9" target="_blank">
<path fill="#ffe6a3" stroke="#d4a017" d="M986.34,-52C986.34,-52 813.66,-52 813.66,-52 807.66,-52 801.66,-46 801.66,-40 801.66,-40 801.66,-28 801.66,-28 801.66,-22 807.66,-16 813.66,-16 813.66,-16 986.34,-16 986.34,-16 992.34,-16 998.34,-22 998.34,-28 998.34,-28 998.34,-40 998.34,-40 998.34,-46 992.34,-52 986.34,-52"/>
<text xml:space="preserve" text-anchor="middle" x="900" y="-31" font-family="Helvetica,sans-Serif" font-size="10.00">subgaussian_meas_abs_ge_le_two_exp</text>
</a>
</g>
</g>
<!-- n7&#45;&gt;n6 -->
<g id="edge3" class="edge">
<title>n7&#45;&gt;n6</title>
<path fill="none" stroke="#64748b" d="M771.71,-87.52C795.36,-77.83 824.91,-65.74 849.68,-55.6"/>
<polygon fill="#64748b" stroke="#64748b" points="850.59,-57.87 856.14,-52.96 848.73,-53.34 850.59,-57.87"/>
</g>
<!-- n9 -->
<g id="node15" class="node">
<title>n9</title>
<g id="a_node15"><a xlink:href="vscode://vscode-remote/wsl+Ubuntu/home/gavin/statlib/Statlib/StatFoundation/RandomVariable/SubExponential/subexp_mgf_le_of_sq_subgaussian.lean:13" xlink:title="lemma · Statlib/StatFoundation/RandomVariable/SubExponential/subexp_mgf_le_of_sq_subgaussian.lean:13" target="_blank">
<path fill="#eef2f6" stroke="#94a3b8" d="M950.2,-124C950.2,-124 869.8,-124 869.8,-124 863.8,-124 857.8,-118 857.8,-112 857.8,-112 857.8,-100 857.8,-100 857.8,-94 863.8,-88 869.8,-88 869.8,-88 950.2,-88 950.2,-88 956.2,-88 962.2,-94 962.2,-100 962.2,-100 962.2,-112 962.2,-112 962.2,-118 956.2,-124 950.2,-124"/>
<text xml:space="preserve" text-anchor="middle" x="910" y="-103" font-family="Helvetica,sans-Serif" font-size="10.00">sub_gauss_tail_abs</text>
</a>
</g>
</g>
<!-- n10 -->
<g id="node16" class="node">
<title>n10</title>
<g id="a_node16"><a xlink:href="vscode://vscode-remote/wsl+Ubuntu/home/gavin/statlib/Statlib/StatFoundation/RandomVariable/SubGaussian/sq_le_two_mul_exp.lean:10" xlink:title="lemma · Statlib/StatFoundation/RandomVariable/SubGaussian/sq_le_two_mul_exp.lean:10" target="_blank">
<path fill="#eef2f6" stroke="#94a3b8" d="M1274.19,-124C1274.19,-124 1193.81,-124 1193.81,-124 1187.81,-124 1181.81,-118 1181.81,-112 1181.81,-112 1181.81,-100 1181.81,-100 1181.81,-94 1187.81,-88 1193.81,-88 1193.81,-88 1274.19,-88 1274.19,-88 1280.19,-88 1286.19,-94 1286.19,-100 1286.19,-100 1286.19,-112 1286.19,-112 1286.19,-118 1280.19,-124 1274.19,-124"/>
<text xml:space="preserve" text-anchor="middle" x="1234" y="-103" font-family="Helvetica,sans-Serif" font-size="10.00">sq_le_two_mul_exp</text>
</a>
</g>
</g>
<!-- n11 -->
<g id="node17" class="node">
<title>n11</title>
<g id="a_node17"><a xlink:href="vscode://vscode-remote/wsl+Ubuntu/home/gavin/statlib/Statlib/StatFoundation/RandomVariable/SubGaussian/subgaussian_exp_sq_le_at_one_third.lean:14" xlink:title="theorem · Statlib/StatFoundation/RandomVariable/SubGaussian/subgaussian_exp_sq_le_at_one_third.lean:14" target="_blank">
<path fill="#ffe6a3" stroke="#d4a017" d="M1152.23,-124C1152.23,-124 991.77,-124 991.77,-124 985.77,-124 979.77,-118 979.77,-112 979.77,-112 979.77,-100 979.77,-100 979.77,-94 985.77,-88 991.77,-88 991.77,-88 1152.23,-88 1152.23,-88 1158.23,-88 1164.23,-94 1164.23,-100 1164.23,-100 1164.23,-112 1164.23,-112 1164.23,-118 1158.23,-124 1152.23,-124"/>
<text xml:space="preserve" text-anchor="middle" x="1072" y="-103" font-family="Helvetica,sans-Serif" font-size="10.00">subgaussian_exp_sq_le_at_one_third</text>
</a>
</g>
</g>
<!-- n11&#45;&gt;n6 -->
<g id="edge8" class="edge">
<title>n11&#45;&gt;n6</title>
<path fill="none" stroke="#64748b" d="M1029.04,-87.52C1005.14,-77.79 975.28,-65.64 950.29,-55.47"/>
<polygon fill="#64748b" stroke="#64748b" points="951.52,-53.32 944.11,-52.95 949.67,-57.86 951.52,-53.32"/>
</g>
<!-- n12&#45;&gt;n7 -->
<g id="edge12" class="edge">
<title>n12&#45;&gt;n7</title>
<path fill="none" stroke="#64748b" d="M864.79,-159.52C839.54,-149.75 807.94,-137.53 781.59,-127.34"/>
<polygon fill="#64748b" stroke="#64748b" points="782.77,-125.17 775.36,-124.93 781,-129.74 782.77,-125.17"/>
</g>
<!-- n12&#45;&gt;n9 -->
<g id="edge9" class="edge">
<title>n12&#45;&gt;n9</title>
<path fill="none" stroke="#64748b" d="M910,-159.7C910,-151.47 910,-141.48 910,-132.42"/>
<polygon fill="#64748b" stroke="#64748b" points="912.45,-132.62 910,-125.62 907.55,-132.62 912.45,-132.62"/>
</g>
<!-- n12&#45;&gt;n10 -->
<g id="edge10" class="edge">
<title>n12&#45;&gt;n10</title>
<path fill="none" stroke="#64748b" d="M1005.32,-159.53C1055.42,-149.91 1117.74,-137.25 1173,-124 1173.09,-123.98 1173.17,-123.96 1173.26,-123.94"/>
<polygon fill="#64748b" stroke="#64748b" points="1173.82,-126.32 1180.02,-122.26 1172.64,-121.57 1173.82,-126.32"/>
</g>
<!-- n12&#45;&gt;n11 -->
<g id="edge11" class="edge">
<title>n12&#45;&gt;n11</title>
<path fill="none" stroke="#64748b" d="M950.46,-159.52C972.77,-149.88 1000.62,-137.84 1024.02,-127.73"/>
<polygon fill="#64748b" stroke="#64748b" points="1024.93,-130.01 1030.38,-124.98 1022.99,-125.51 1024.93,-130.01"/>
</g>
<!-- n15&#45;&gt;n5 -->
<g id="edge22" class="edge">
<title>n15&#45;&gt;n5</title>
<path fill="none" stroke="#64748b" d="M1198.95,-159.52C1230.74,-149.58 1270.65,-137.11 1303.6,-126.81"/>
<polygon fill="#64748b" stroke="#64748b" points="1303.98,-129.26 1309.93,-124.83 1302.52,-124.58 1303.98,-129.26"/>
</g>
</g>
</svg>
