<?xml version="1.0" encoding="UTF-8" standalone="no"?>
<!DOCTYPE svg PUBLIC "-//W3C//DTD SVG 1.1//EN"
 "http://www.w3.org/Graphics/SVG/1.1/DTD/svg11.dtd">
<!-- Generated by graphviz version 15.0.0 (20260523.1842)
 -->
<!-- Title: fixed_design_lasso_oracle_of_l1RSE Pages: 1 -->
<svg width="1232pt" height="698pt"
 viewBox="0.00 0.00 1232.00 698.00" xmlns="http://www.w3.org/2000/svg" xmlns:xlink="http://www.w3.org/1999/xlink">
<g id="graph0" class="graph" transform="scale(1 1) rotate(0) translate(4 694)">
<title>fixed_design_lasso_oracle_of_l1RSE</title>
<polygon fill="white" stroke="none" points="-4,4 -4,-694 1228,-694 1228,4 -4,4"/>
<text xml:space="preserve" text-anchor="middle" x="612" y="-673.4" font-family="Helvetica,sans-Serif" font-size="14.00">Proof narrative — fixed_design_lasso_oracle_of_l1RSE &#160;(23 decls)</text>
<g id="clust1" class="cluster">
<title>cluster_0</title>
<path fill="none" stroke="#cbd5e1" stroke-dasharray="5,2" d="M20,-8C20,-8 1204,-8 1204,-8 1210,-8 1216,-14 1216,-20 1216,-20 1216,-645.2 1216,-645.2 1216,-651.2 1210,-657.2 1204,-657.2 1204,-657.2 20,-657.2 20,-657.2 14,-657.2 8,-651.2 8,-645.2 8,-645.2 8,-20 8,-20 8,-14 14,-8 20,-8"/>
<text xml:space="preserve" text-anchor="middle" x="612" y="-643.3" font-family="Helvetica,sans-Serif" font-size="11.00">HighDim</text>
</g>
<!-- n0 -->
<g id="node1" class="node">
<title>n0</title>
<g id="a_node1"><a xlink:href="https://github.com/statopia/statlib/blob/main/Statlib/HighDim/Vocabulary/Norms.lean#L13" xlink:title="noncomputable def · Statlib/HighDim/Vocabulary/Norms.lean:13" target="_blank">
<path fill="#d6e9ff" stroke="#3b82f6" d="M429.23,-52C429.23,-52 392.77,-52 392.77,-52 386.77,-52 380.77,-46 380.77,-40 380.77,-40 380.77,-28 380.77,-28 380.77,-22 386.77,-16 392.77,-16 392.77,-16 429.23,-16 429.23,-16 435.23,-16 441.23,-22 441.23,-28 441.23,-28 441.23,-40 441.23,-40 441.23,-46 435.23,-52 429.23,-52"/>
<text xml:space="preserve" text-anchor="middle" x="411" y="-31" font-family="Helvetica,sans-Serif" font-size="10.00">l2NormSq</text>
</a>
</g>
</g>
<!-- n1 -->
<g id="node2" class="node">
<title>n1</title>
<g id="a_node2"><a xlink:href="https://github.com/statopia/statlib/blob/main/Statlib/HighDim/Vocabulary/Sparse.lean#L49" xlink:title="def · Statlib/HighDim/Vocabulary/Sparse.lean:49" target="_blank">
<path fill="#d6e9ff" stroke="#3b82f6" d="M666.01,-268C666.01,-268 633.99,-268 633.99,-268 627.99,-268 621.99,-262 621.99,-256 621.99,-256 621.99,-244 621.99,-244 621.99,-238 627.99,-232 633.99,-232 633.99,-232 666.01,-232 666.01,-232 672.01,-232 678.01,-238 678.01,-244 678.01,-244 678.01,-256 678.01,-256 678.01,-262 672.01,-268 666.01,-268"/>
<text xml:space="preserve" text-anchor="middle" x="650" y="-247" font-family="Helvetica,sans-Serif" font-size="10.00">IsInCone</text>
</a>
</g>
</g>
<!-- n2 -->
<g id="node3" class="node">
<title>n2</title>
<g id="a_node3"><a xlink:href="https://github.com/statopia/statlib/blob/main/Statlib/HighDim/Vocabulary/DesignMatrix.lean#L65" xlink:title="structure · Statlib/HighDim/Vocabulary/DesignMatrix.lean:65" target="_blank">
<path fill="#e8dcff" stroke="#8b5cf6" d="M295.84,-340C295.84,-340 252.16,-340 252.16,-340 246.16,-340 240.16,-334 240.16,-328 240.16,-328 240.16,-316 240.16,-316 240.16,-310 246.16,-304 252.16,-304 252.16,-304 295.84,-304 295.84,-304 301.84,-304 307.84,-310 307.84,-316 307.84,-316 307.84,-328 307.84,-328 307.84,-334 301.84,-340 295.84,-340"/>
<text xml:space="preserve" text-anchor="middle" x="274" y="-319" font-family="Helvetica,sans-Serif" font-size="10.00">SatisfiesRE</text>
</a>
</g>
</g>
<!-- n2&#45;&gt;n0 -->
<g id="edge2" class="edge">
<title>n2&#45;&gt;n0</title>
<path fill="none" stroke="#64748b" d="M273.06,-303.65C271.7,-262.27 273.51,-156.14 322,-88 334.5,-70.43 354.81,-57.7 372.87,-49.12"/>
<polygon fill="#64748b" stroke="#64748b" points="373.7,-51.44 379.07,-46.32 371.68,-46.97 373.7,-51.44"/>
</g>
<!-- n2&#45;&gt;n1 -->
<g id="edge1" class="edge">
<title>n2&#45;&gt;n1</title>
<path fill="none" stroke="#64748b" d="M308.13,-311.94C318.92,-309.22 330.93,-306.33 342,-304 439.66,-283.42 556,-265.05 613.75,-256.34"/>
<polygon fill="#64748b" stroke="#64748b" points="613.78,-258.81 620.34,-255.35 613.06,-253.97 613.78,-258.81"/>
</g>
<!-- n3 -->
<g id="node4" class="node">
<title>n3</title>
<g id="a_node4"><a xlink:href="https://github.com/statopia/statlib/blob/main/Statlib/HighDim/Vocabulary/DesignMatrix.lean#L99" xlink:title="structure · Statlib/HighDim/Vocabulary/DesignMatrix.lean:99" target="_blank">
<path fill="#e8dcff" stroke="#8b5cf6" d="M266.34,-412C266.34,-412 187.66,-412 187.66,-412 181.66,-412 175.66,-406 175.66,-400 175.66,-400 175.66,-388 175.66,-388 175.66,-382 181.66,-376 187.66,-376 187.66,-376 266.34,-376 266.34,-376 272.34,-376 278.34,-382 278.34,-388 278.34,-388 278.34,-400 278.34,-400 278.34,-406 272.34,-412 266.34,-412"/>
<text xml:space="preserve" text-anchor="middle" x="227" y="-391" font-family="Helvetica,sans-Serif" font-size="10.00">SatisfiesUniformRE</text>
</a>
</g>
</g>
<!-- n3&#45;&gt;n0 -->
<g id="edge4" class="edge">
<title>n3&#45;&gt;n0</title>
<path fill="none" stroke="#64748b" d="M175.44,-386.88C144.89,-380.44 108.12,-367.2 87,-340 62.58,-308.56 77,-290.8 77,-251 77,-251 77,-251 77,-177 77,-50.01 284.01,-34.96 372.08,-34.3"/>
<polygon fill="#64748b" stroke="#64748b" points="371.97,-36.75 378.96,-34.29 371.95,-31.85 371.97,-36.75"/>
</g>
<!-- n3&#45;&gt;n1 -->
<g id="edge3" class="edge">
<title>n3&#45;&gt;n1</title>
<path fill="none" stroke="#64748b" d="M256.63,-375.64C274.2,-365.32 296.89,-351.95 317,-340 343.73,-324.11 347.96,-315.13 377,-304 458.09,-272.91 560.01,-259.35 613.45,-254.03"/>
<polygon fill="#64748b" stroke="#64748b" points="613.36,-256.5 620.09,-253.39 612.89,-251.62 613.36,-256.5"/>
</g>
<!-- n3&#45;&gt;n2 -->
<g id="edge5" class="edge">
<title>n3&#45;&gt;n2</title>
<path fill="none" stroke="#64748b" d="M238.62,-375.7C244.42,-367.05 251.54,-356.45 257.87,-347.03"/>
<polygon fill="#64748b" stroke="#64748b" points="259.8,-348.54 261.67,-341.36 255.74,-345.81 259.8,-348.54"/>
</g>
<!-- n4 -->
<g id="node5" class="node">
<title>n4</title>
<g id="a_node5"><a xlink:href="https://github.com/statopia/statlib/blob/main/Statlib/HighDim/Vocabulary/DesignMatrix.lean#L140" xlink:title="structure · Statlib/HighDim/Vocabulary/DesignMatrix.lean:140" target="_blank">
<path fill="#e8dcff" stroke="#8b5cf6" d="M109.74,-484C109.74,-484 48.26,-484 48.26,-484 42.26,-484 36.26,-478 36.26,-472 36.26,-472 36.26,-460 36.26,-460 36.26,-454 42.26,-448 48.26,-448 48.26,-448 109.74,-448 109.74,-448 115.74,-448 121.74,-454 121.74,-460 121.74,-460 121.74,-472 121.74,-472 121.74,-478 115.74,-484 109.74,-484"/>
<text xml:space="preserve" text-anchor="middle" x="79" y="-463" font-family="Helvetica,sans-Serif" font-size="10.00">SatisfiesL1RSE</text>
</a>
</g>
</g>
<!-- n4&#45;&gt;n0 -->
<g id="edge6" class="edge">
<title>n4&#45;&gt;n0</title>
<path fill="none" stroke="#64748b" d="M70.3,-447.56C58,-421.25 37,-369.53 37,-323 37,-323 37,-323 37,-177 37,-136.89 23.35,-116.07 52,-88 96.71,-44.19 288.32,-36.46 371.84,-35.19"/>
<polygon fill="#64748b" stroke="#64748b" points="371.8,-37.64 378.77,-35.1 371.74,-32.74 371.8,-37.64"/>
</g>
<!-- n4&#45;&gt;n3 -->
<g id="edge7" class="edge">
<title>n4&#45;&gt;n3</title>
<path fill="none" stroke="#64748b" d="M115.96,-447.52C136.17,-437.96 161.34,-426.05 182.61,-416"/>
<polygon fill="#64748b" stroke="#64748b" points="183.6,-418.24 188.88,-413.03 181.51,-413.81 183.6,-418.24"/>
</g>
<!-- n5 -->
<g id="node6" class="node">
<title>n5</title>
<g id="a_node6"><a xlink:href="https://github.com/statopia/statlib/blob/main/Statlib/HighDim/Regression/LassoOracle.lean#L48" xlink:title="noncomputable def · Statlib/HighDim/Regression/LassoOracle.lean:48" target="_blank">
<path fill="#d6e9ff" stroke="#3b82f6" d="M952.45,-124C952.45,-124 921.55,-124 921.55,-124 915.55,-124 909.55,-118 909.55,-112 909.55,-112 909.55,-100 909.55,-100 909.55,-94 915.55,-88 921.55,-88 921.55,-88 952.45,-88 952.45,-88 958.45,-88 964.45,-94 964.45,-100 964.45,-100 964.45,-112 964.45,-112 964.45,-118 958.45,-124 952.45,-124"/>
<text xml:space="preserve" text-anchor="middle" x="937" y="-103" font-family="Helvetica,sans-Serif" font-size="10.00">lassoObj</text>
</a>
</g>
</g>
<!-- n5&#45;&gt;n0 -->
<g id="edge8" class="edge">
<title>n5&#45;&gt;n0</title>
<path fill="none" stroke="#64748b" d="M909.09,-101.29C821.38,-89.61 551.12,-53.65 449.85,-40.17"/>
<polygon fill="#64748b" stroke="#64748b" points="450.2,-37.75 442.94,-39.25 449.55,-42.6 450.2,-37.75"/>
</g>
<!-- n6 -->
<g id="node7" class="node">
<title>n6</title>
<g id="a_node7"><a xlink:href="https://github.com/statopia/statlib/blob/main/Statlib/HighDim/Regression/LassoOracle.lean#L53" xlink:title="def · Statlib/HighDim/Regression/LassoOracle.lean:53" target="_blank">
<path fill="#d6e9ff" stroke="#3b82f6" d="M968.3,-196C968.3,-196 905.7,-196 905.7,-196 899.7,-196 893.7,-190 893.7,-184 893.7,-184 893.7,-172 893.7,-172 893.7,-166 899.7,-160 905.7,-160 905.7,-160 968.3,-160 968.3,-160 974.3,-160 980.3,-166 980.3,-172 980.3,-172 980.3,-184 980.3,-184 980.3,-190 974.3,-196 968.3,-196"/>
<text xml:space="preserve" text-anchor="middle" x="937" y="-175" font-family="Helvetica,sans-Serif" font-size="10.00">IsLassoSolution</text>
</a>
</g>
</g>
<!-- n6&#45;&gt;n5 -->
<g id="edge9" class="edge">
<title>n6&#45;&gt;n5</title>
<path fill="none" stroke="#64748b" d="M937,-159.7C937,-151.47 937,-141.48 937,-132.42"/>
<polygon fill="#64748b" stroke="#64748b" points="939.45,-132.62 937,-125.62 934.55,-132.62 939.45,-132.62"/>
</g>
<!-- n7 -->
<g id="node8" class="node">
<title>n7</title>
<g id="a_node8"><a xlink:href="https://github.com/statopia/statlib/blob/main/Statlib/HighDim/Vocabulary/Sparse.lean#L62" xlink:title="lemma · Statlib/HighDim/Vocabulary/Sparse.lean:62" target="_blank">
<path fill="#eef2f6" stroke="#94a3b8" d="M666.32,-340C666.32,-340 573.68,-340 573.68,-340 567.68,-340 561.68,-334 561.68,-328 561.68,-328 561.68,-316 561.68,-316 561.68,-310 567.68,-304 573.68,-304 573.68,-304 666.32,-304 666.32,-304 672.32,-304 678.32,-310 678.32,-316 678.32,-316 678.32,-328 678.32,-328 678.32,-334 672.32,-340 666.32,-340"/>
<text xml:space="preserve" text-anchor="middle" x="620" y="-319" font-family="Helvetica,sans-Serif" font-size="10.00">cone_l1_le_support_l1</text>
</a>
</g>
</g>
<!-- n7&#45;&gt;n1 -->
<g id="edge10" class="edge">
<title>n7&#45;&gt;n1</title>
<path fill="none" stroke="#64748b" d="M627.42,-303.7C631.01,-295.3 635.4,-285.07 639.35,-275.86"/>
<polygon fill="#64748b" stroke="#64748b" points="641.57,-276.89 642.07,-269.5 637.06,-274.96 641.57,-276.89"/>
</g>
<!-- n8 -->
<g id="node9" class="node">
<title>n8</title>
<g id="a_node9"><a xlink:href="https://github.com/statopia/statlib/blob/main/Statlib/HighDim/Vocabulary/Sparse.lean#L79" xlink:title="lemma · Statlib/HighDim/Vocabulary/Sparse.lean:79" target="_blank">
<path fill="#eef2f6" stroke="#94a3b8" d="M643.38,-412C643.38,-412 534.62,-412 534.62,-412 528.62,-412 522.62,-406 522.62,-400 522.62,-400 522.62,-388 522.62,-388 522.62,-382 528.62,-376 534.62,-376 534.62,-376 643.38,-376 643.38,-376 649.38,-376 655.38,-382 655.38,-388 655.38,-388 655.38,-400 655.38,-400 655.38,-406 649.38,-412 643.38,-412"/>
<text xml:space="preserve" text-anchor="middle" x="589" y="-391" font-family="Helvetica,sans-Serif" font-size="10.00">cone_l1_sq_le_support_l2</text>
</a>
</g>
</g>
<!-- n8&#45;&gt;n1 -->
<g id="edge11" class="edge">
<title>n8&#45;&gt;n1</title>
<path fill="none" stroke="#64748b" d="M572.71,-375.55C557.52,-357.06 539.14,-327.37 553,-304 566.17,-281.8 592.27,-268.3 614.08,-260.48"/>
<polygon fill="#64748b" stroke="#64748b" points="614.6,-262.89 620.46,-258.34 613.04,-258.25 614.6,-262.89"/>
</g>
<!-- n8&#45;&gt;n7 -->
<g id="edge12" class="edge">
<title>n8&#45;&gt;n7</title>
<path fill="none" stroke="#64748b" d="M596.66,-375.7C600.38,-367.3 604.91,-357.07 608.99,-347.86"/>
<polygon fill="#64748b" stroke="#64748b" points="611.22,-348.88 611.81,-341.49 606.74,-346.9 611.22,-348.88"/>
</g>
<!-- n9 -->
<g id="node10" class="node">
<title>n9</title>
<g id="a_node10"><a xlink:href="https://github.com/statopia/statlib/blob/main/Statlib/HighDim/Vocabulary/Sparse.lean#L54" xlink:title="lemma · Statlib/HighDim/Vocabulary/Sparse.lean:54" target="_blank">
<path fill="#eef2f6" stroke="#94a3b8" d="M210.03,-340C210.03,-340 107.97,-340 107.97,-340 101.97,-340 95.97,-334 95.97,-328 95.97,-328 95.97,-316 95.97,-316 95.97,-310 101.97,-304 107.97,-304 107.97,-304 210.03,-304 210.03,-304 216.03,-304 222.03,-310 222.03,-316 222.03,-316 222.03,-328 222.03,-328 222.03,-334 216.03,-340 210.03,-340"/>
<text xml:space="preserve" text-anchor="middle" x="159" y="-319" font-family="Helvetica,sans-Serif" font-size="10.00">support_l2_le_l2NormSq</text>
</a>
</g>
</g>
<!-- n9&#45;&gt;n0 -->
<g id="edge13" class="edge">
<title>n9&#45;&gt;n0</title>
<path fill="none" stroke="#64748b" d="M165.27,-303.75C181.34,-261.67 227.81,-152.46 299,-88 320.11,-68.88 349.34,-55.36 372.65,-46.77"/>
<polygon fill="#64748b" stroke="#64748b" points="373.42,-49.09 379.19,-44.44 371.78,-44.48 373.42,-49.09"/>
</g>
<!-- n10 -->
<g id="node11" class="node">
<title>n10</title>
<g id="a_node11"><a xlink:href="https://github.com/statopia/statlib/blob/main/Statlib/HighDim/Vocabulary/DesignMatrix.lean#L177" xlink:title="lemma · Statlib/HighDim/Vocabulary/DesignMatrix.lean:177" target="_blank">
<path fill="#eef2f6" stroke="#94a3b8" d="M207.52,-556C207.52,-556 120.48,-556 120.48,-556 114.48,-556 108.48,-550 108.48,-544 108.48,-544 108.48,-532 108.48,-532 108.48,-526 114.48,-520 120.48,-520 120.48,-520 207.52,-520 207.52,-520 213.52,-520 219.52,-526 219.52,-532 219.52,-532 219.52,-544 219.52,-544 219.52,-550 213.52,-556 207.52,-556"/>
<text xml:space="preserve" text-anchor="middle" x="164" y="-535" font-family="Helvetica,sans-Serif" font-size="10.00">l1RSE_to_uniformRE</text>
</a>
</g>
</g>
<!-- n10&#45;&gt;n0 -->
<g id="edge17" class="edge">
<title>n10&#45;&gt;n0</title>
<path fill="none" stroke="#64748b" d="M158.5,-519.59C152.53,-501.39 142.33,-472.18 131,-448 107.52,-397.88 86.81,-392.4 69,-340 56.16,-302.21 57,-290.91 57,-251 57,-251 57,-251 57,-177 57,-134.66 58.21,-114.79 91,-88 133.46,-53.31 296.5,-40.73 372.1,-36.69"/>
<polygon fill="#64748b" stroke="#64748b" points="372.06,-39.15 378.92,-36.34 371.81,-34.25 372.06,-39.15"/>
</g>
<!-- n10&#45;&gt;n3 -->
<g id="edge15" class="edge">
<title>n10&#45;&gt;n3</title>
<path fill="none" stroke="#64748b" d="M171.73,-519.59C182.84,-494.54 203.39,-448.22 216.06,-419.66"/>
<polygon fill="#64748b" stroke="#64748b" points="218.2,-420.89 218.79,-413.49 213.72,-418.9 218.2,-420.89"/>
</g>
<!-- n10&#45;&gt;n4 -->
<g id="edge14" class="edge">
<title>n10&#45;&gt;n4</title>
<path fill="none" stroke="#64748b" d="M142.99,-519.7C131.95,-510.61 118.3,-499.36 106.44,-489.6"/>
<polygon fill="#64748b" stroke="#64748b" points="108.19,-487.87 101.23,-485.31 105.08,-491.65 108.19,-487.87"/>
</g>
<!-- n10&#45;&gt;n8 -->
<g id="edge16" class="edge">
<title>n10&#45;&gt;n8</title>
<path fill="none" stroke="#64748b" d="M219.8,-525.17C258.08,-516.14 309.62,-502.15 353,-484 382.75,-471.55 386.4,-460.8 416,-448 447.36,-434.44 483.31,-422.83 514.28,-413.97"/>
<polygon fill="#64748b" stroke="#64748b" points="514.93,-416.33 521,-412.07 513.6,-411.61 514.93,-416.33"/>
</g>
<!-- n10&#45;&gt;n9 -->
<g id="edge18" class="edge">
<title>n10&#45;&gt;n9</title>
<path fill="none" stroke="#64748b" d="M163.6,-519.85C162.72,-482.36 160.63,-392.95 159.6,-348.7"/>
<polygon fill="#64748b" stroke="#64748b" points="162.05,-348.69 159.44,-341.75 157.15,-348.8 162.05,-348.69"/>
</g>
<!-- n11 -->
<g id="node12" class="node">
<title>n11</title>
<g id="a_node12"><a xlink:href="https://github.com/statopia/statlib/blob/main/Statlib/HighDim/Vocabulary/DesignMatrix.lean#L151" xlink:title="lemma · Statlib/HighDim/Vocabulary/DesignMatrix.lean:151" target="_blank">
<path fill="#eef2f6" stroke="#94a3b8" d="M332,-484C332,-484 302,-484 302,-484 296,-484 290,-478 290,-472 290,-472 290,-460 290,-460 290,-454 296,-448 302,-448 302,-448 332,-448 332,-448 338,-448 344,-454 344,-460 344,-460 344,-472 344,-472 344,-478 338,-484 332,-484"/>
<text xml:space="preserve" text-anchor="middle" x="317" y="-463" font-family="Helvetica,sans-Serif" font-size="10.00">toRE</text>
</a>
</g>
</g>
<!-- n11&#45;&gt;n2 -->
<g id="edge20" class="edge">
<title>n11&#45;&gt;n2</title>
<path fill="none" stroke="#64748b" d="M315.71,-447.54C313.99,-429.3 310.14,-400.04 302,-376 298.7,-366.24 293.76,-356.1 288.95,-347.34"/>
<polygon fill="#64748b" stroke="#64748b" points="291.13,-346.23 285.54,-341.35 286.87,-348.65 291.13,-346.23"/>
</g>
<!-- n11&#45;&gt;n3 -->
<g id="edge19" class="edge">
<title>n11&#45;&gt;n3</title>
<path fill="none" stroke="#64748b" d="M294.75,-447.7C282.96,-438.53 268.34,-427.16 255.71,-417.33"/>
<polygon fill="#64748b" stroke="#64748b" points="257.53,-415.64 250.5,-413.28 254.52,-419.51 257.53,-415.64"/>
</g>
<!-- n12 -->
<g id="node13" class="node">
<title>n12</title>
<g id="a_node13"><a xlink:href="https://github.com/statopia/statlib/blob/main/Statlib/HighDim/Vocabulary/DesignMatrix.lean#L50" xlink:title="structure · Statlib/HighDim/Vocabulary/DesignMatrix.lean:50" target="_blank">
<path fill="#e8dcff" stroke="#8b5cf6" d="M826.35,-340C826.35,-340 747.65,-340 747.65,-340 741.65,-340 735.65,-334 735.65,-328 735.65,-328 735.65,-316 735.65,-316 735.65,-310 741.65,-304 747.65,-304 747.65,-304 826.35,-304 826.35,-304 832.35,-304 838.35,-310 838.35,-316 838.35,-316 838.35,-328 838.35,-328 838.35,-334 832.35,-340 826.35,-340"/>
<text xml:space="preserve" text-anchor="middle" x="787" y="-319" font-family="Helvetica,sans-Serif" font-size="10.00">SatisfiesSupportRE</text>
</a>
</g>
</g>
<!-- n12&#45;&gt;n0 -->
<g id="edge22" class="edge">
<title>n12&#45;&gt;n0</title>
<path fill="none" stroke="#64748b" d="M768.72,-303.65C749.05,-285.25 716.61,-255.63 687,-232 602.23,-164.35 496.53,-92.04 443.93,-56.82"/>
<polygon fill="#64748b" stroke="#64748b" points="445.61,-54.99 438.43,-53.14 442.89,-59.07 445.61,-54.99"/>
</g>
<!-- n12&#45;&gt;n1 -->
<g id="edge21" class="edge">
<title>n12&#45;&gt;n1</title>
<path fill="none" stroke="#64748b" d="M752.78,-303.52C732.31,-293.06 706.34,-279.79 685.62,-269.2"/>
<polygon fill="#64748b" stroke="#64748b" points="686.95,-267.13 679.6,-266.12 684.72,-271.49 686.95,-267.13"/>
</g>
<!-- n13 -->
<g id="node14" class="node">
<title>n13</title>
<g id="a_node14"><a xlink:href="https://github.com/statopia/statlib/blob/main/Statlib/HighDim/Regression/LassoOracle.lean#L65" xlink:title="lemma · Statlib/HighDim/Regression/LassoOracle.lean:65" target="_blank">
<path fill="#eef2f6" stroke="#94a3b8" d="M1096.03,-268C1096.03,-268 1003.97,-268 1003.97,-268 997.97,-268 991.97,-262 991.97,-256 991.97,-256 991.97,-244 991.97,-244 991.97,-238 997.97,-232 1003.97,-232 1003.97,-232 1096.03,-232 1096.03,-232 1102.03,-232 1108.03,-238 1108.03,-244 1108.03,-244 1108.03,-256 1108.03,-256 1108.03,-262 1102.03,-268 1096.03,-268"/>
<text xml:space="preserve" text-anchor="middle" x="1050" y="-247" font-family="Helvetica,sans-Serif" font-size="10.00">lasso_basic_inequality</text>
</a>
</g>
</g>
<!-- n13&#45;&gt;n0 -->
<g id="edge24" class="edge">
<title>n13&#45;&gt;n0</title>
<path fill="none" stroke="#64748b" d="M1047.36,-231.56C1041.19,-197.51 1022.42,-122.49 973,-88 930.23,-58.15 569.94,-41.29 449.8,-36.46"/>
<polygon fill="#64748b" stroke="#64748b" points="450.18,-34.03 443.09,-36.2 449.99,-38.92 450.18,-34.03"/>
</g>
<!-- n13&#45;&gt;n5 -->
<g id="edge25" class="edge">
<title>n13&#45;&gt;n5</title>
<path fill="none" stroke="#64748b" d="M1039.38,-231.63C1027.82,-213.21 1008.4,-183.58 989,-160 980.62,-149.81 970.62,-139.29 961.65,-130.34"/>
<polygon fill="#64748b" stroke="#64748b" points="963.41,-128.64 956.71,-125.48 959.98,-132.14 963.41,-128.64"/>
</g>
<!-- n13&#45;&gt;n6 -->
<g id="edge23" class="edge">
<title>n13&#45;&gt;n6</title>
<path fill="none" stroke="#64748b" d="M1021.78,-231.52C1006.7,-222.18 988,-210.59 972,-200.68"/>
<polygon fill="#64748b" stroke="#64748b" points="973.39,-198.66 966.15,-197.06 970.81,-202.83 973.39,-198.66"/>
</g>
<!-- n14 -->
<g id="node15" class="node">
<title>n14</title>
<g id="a_node15"><a xlink:href="https://github.com/statopia/statlib/blob/main/Statlib/HighDim/Regression/LassoOracle.lean#L257" xlink:title="lemma · Statlib/HighDim/Regression/LassoOracle.lean:257" target="_blank">
<path fill="#eef2f6" stroke="#94a3b8" d="M1076.09,-340C1076.09,-340 987.91,-340 987.91,-340 981.91,-340 975.91,-334 975.91,-328 975.91,-328 975.91,-316 975.91,-316 975.91,-310 981.91,-304 987.91,-304 987.91,-304 1076.09,-304 1076.09,-304 1082.09,-304 1088.09,-310 1088.09,-316 1088.09,-316 1088.09,-328 1088.09,-328 1088.09,-334 1082.09,-340 1076.09,-340"/>
<text xml:space="preserve" text-anchor="middle" x="1032" y="-319" font-family="Helvetica,sans-Serif" font-size="10.00">lasso_cone_condition</text>
</a>
</g>
</g>
<!-- n14&#45;&gt;n0 -->
<g id="edge28" class="edge">
<title>n14&#45;&gt;n0</title>
<path fill="none" stroke="#64748b" d="M1077.48,-303.62C1092.85,-295.3 1108.31,-283.66 1117,-268 1124.76,-254.01 1122.54,-247.01 1117,-232 1087.87,-153.03 1068.76,-126.66 994,-88 898.76,-38.75 564.45,-34.68 449.88,-34.77"/>
<polygon fill="#64748b" stroke="#64748b" points="449.89,-32.32 442.89,-34.78 449.89,-37.22 449.89,-32.32"/>
</g>
<!-- n14&#45;&gt;n1 -->
<g id="edge27" class="edge">
<title>n14&#45;&gt;n1</title>
<path fill="none" stroke="#64748b" d="M975.63,-310.67C896.22,-296.12 753.64,-269.99 686.65,-257.72"/>
<polygon fill="#64748b" stroke="#64748b" points="687.3,-255.34 679.97,-256.49 686.42,-260.16 687.3,-255.34"/>
</g>
<!-- n14&#45;&gt;n6 -->
<g id="edge26" class="edge">
<title>n14&#45;&gt;n6</title>
<path fill="none" stroke="#64748b" d="M1004.72,-303.59C992.07,-294.33 977.71,-281.98 968,-268 954.64,-248.77 946.53,-223.24 941.98,-204.45"/>
<polygon fill="#64748b" stroke="#64748b" points="944.41,-204.09 940.46,-197.81 939.63,-205.18 944.41,-204.09"/>
</g>
<!-- n14&#45;&gt;n13 -->
<g id="edge29" class="edge">
<title>n14&#45;&gt;n13</title>
<path fill="none" stroke="#64748b" d="M1036.45,-303.7C1038.59,-295.39 1041.19,-285.28 1043.54,-276.14"/>
<polygon fill="#64748b" stroke="#64748b" points="1045.85,-276.96 1045.22,-269.57 1041.11,-275.74 1045.85,-276.96"/>
</g>
<!-- n15 -->
<g id="node16" class="node">
<title>n15</title>
<g id="a_node16"><a xlink:href="https://github.com/statopia/statlib/blob/main/Statlib/HighDim/Regression/LassoOracle.lean#L416" xlink:title="theorem · Statlib/HighDim/Regression/LassoOracle.lean:416" target="_blank">
<path fill="#ffe6a3" stroke="#d4a017" d="M1135.89,-412C1135.89,-412 972.11,-412 972.11,-412 966.11,-412 960.11,-406 960.11,-400 960.11,-400 960.11,-388 960.11,-388 960.11,-382 966.11,-376 972.11,-376 972.11,-376 1135.89,-376 1135.89,-376 1141.89,-376 1147.89,-382 1147.89,-388 1147.89,-388 1147.89,-400 1147.89,-400 1147.89,-406 1141.89,-412 1135.89,-412"/>
<text xml:space="preserve" text-anchor="middle" x="1054" y="-391" font-family="Helvetica,sans-Serif" font-size="10.00">lasso_oracle_prediction_of_supportRE</text>
</a>
</g>
</g>
<!-- n15&#45;&gt;n0 -->
<g id="edge32" class="edge">
<title>n15&#45;&gt;n0</title>
<path fill="none" stroke="#64748b" d="M1084.67,-375.72C1097.53,-366.8 1111.26,-354.69 1119,-340 1141.41,-297.47 1133.58,-279.3 1125,-232 1111.23,-156.07 1097.73,-121.05 1028,-88 924.93,-39.15 568.83,-34.87 449.97,-34.83"/>
<polygon fill="#64748b" stroke="#64748b" points="450.01,-32.38 443.01,-34.84 450.01,-37.28 450.01,-32.38"/>
</g>
<!-- n15&#45;&gt;n1 -->
<g id="edge33" class="edge">
<title>n15&#45;&gt;n1</title>
<path fill="none" stroke="#64748b" d="M1017.98,-375.64C977.17,-356.41 908.34,-325.31 847,-304 792.03,-284.9 726.47,-268.48 686.55,-259.17"/>
<polygon fill="#64748b" stroke="#64748b" points="687.29,-256.83 679.92,-257.64 686.18,-261.6 687.29,-256.83"/>
</g>
<!-- n15&#45;&gt;n6 -->
<g id="edge31" class="edge">
<title>n15&#45;&gt;n6</title>
<path fill="none" stroke="#64748b" d="M1073.11,-375.57C1091.31,-356.84 1113.64,-326.7 1097,-304 1065.59,-261.14 1023.64,-302.22 983,-268 982.31,-267.42 963.04,-229.92 949.67,-203.79"/>
<polygon fill="#64748b" stroke="#64748b" points="951.96,-202.89 946.59,-197.77 947.6,-205.12 951.96,-202.89"/>
</g>
<!-- n15&#45;&gt;n12 -->
<g id="edge30" class="edge">
<title>n15&#45;&gt;n12</title>
<path fill="none" stroke="#64748b" d="M987.31,-375.52C944.16,-364.2 888.46,-349.6 846.75,-338.67"/>
<polygon fill="#64748b" stroke="#64748b" points="847.46,-336.32 840.07,-336.91 846.22,-341.06 847.46,-336.32"/>
</g>
<!-- n15&#45;&gt;n13 -->
<g id="edge35" class="edge">
<title>n15&#45;&gt;n13</title>
<path fill="none" stroke="#64748b" d="M1081.64,-375.54C1093.33,-366.51 1105.67,-354.35 1112,-340 1118.45,-325.36 1118.7,-318.53 1112,-304 1106.46,-291.97 1096.69,-281.66 1086.53,-273.41"/>
<polygon fill="#64748b" stroke="#64748b" points="1088.08,-271.52 1081.03,-269.22 1085.11,-275.41 1088.08,-271.52"/>
</g>
<!-- n15&#45;&gt;n14 -->
<g id="edge34" class="edge">
<title>n15&#45;&gt;n14</title>
<path fill="none" stroke="#64748b" d="M1048.56,-375.7C1045.95,-367.39 1042.77,-357.28 1039.9,-348.14"/>
<polygon fill="#64748b" stroke="#64748b" points="1042.27,-347.49 1037.83,-341.55 1037.59,-348.96 1042.27,-347.49"/>
</g>
<!-- n16 -->
<g id="node17" class="node">
<title>n16</title>
<g id="a_node17"><a xlink:href="https://github.com/statopia/statlib/blob/main/Statlib/HighDim/Vocabulary/DesignMatrix.lean#L82" xlink:title="structure · Statlib/HighDim/Vocabulary/DesignMatrix.lean:82" target="_blank">
<path fill="#e8dcff" stroke="#8b5cf6" d="M511.86,-340C511.86,-340 398.14,-340 398.14,-340 392.14,-340 386.14,-334 386.14,-328 386.14,-328 386.14,-316 386.14,-316 386.14,-310 392.14,-304 398.14,-304 398.14,-304 511.86,-304 511.86,-304 517.86,-304 523.86,-310 523.86,-316 523.86,-316 523.86,-328 523.86,-328 523.86,-334 517.86,-340 511.86,-340"/>
<text xml:space="preserve" text-anchor="middle" x="455" y="-319" font-family="Helvetica,sans-Serif" font-size="10.00">SatisfiesUniformSupportRE</text>
</a>
</g>
</g>
<!-- n16&#45;&gt;n0 -->
<g id="edge37" class="edge">
<title>n16&#45;&gt;n0</title>
<path fill="none" stroke="#64748b" d="M452.31,-303.54C444.82,-254.86 423.69,-117.46 414.9,-60.37"/>
<polygon fill="#64748b" stroke="#64748b" points="417.37,-60.27 413.88,-53.73 412.52,-61.02 417.37,-60.27"/>
</g>
<!-- n16&#45;&gt;n1 -->
<g id="edge36" class="edge">
<title>n16&#45;&gt;n1</title>
<path fill="none" stroke="#64748b" d="M503.7,-303.52C537.77,-291.29 582.55,-275.21 613.55,-264.08"/>
<polygon fill="#64748b" stroke="#64748b" points="614.33,-266.41 620.09,-261.74 612.67,-261.8 614.33,-266.41"/>
</g>
<!-- n17 -->
<g id="node18" class="node">
<title>n17</title>
<g id="a_node18"><a xlink:href="https://github.com/statopia/statlib/blob/main/Statlib/HighDim/Vocabulary/DesignMatrix.lean#L110" xlink:title="lemma · Statlib/HighDim/Vocabulary/DesignMatrix.lean:110" target="_blank">
<path fill="#eef2f6" stroke="#94a3b8" d="M492.63,-412C492.63,-412 443.37,-412 443.37,-412 437.37,-412 431.37,-406 431.37,-400 431.37,-400 431.37,-388 431.37,-388 431.37,-382 437.37,-376 443.37,-376 443.37,-376 492.63,-376 492.63,-376 498.63,-376 504.63,-382 504.63,-388 504.63,-388 504.63,-400 504.63,-400 504.63,-406 498.63,-412 492.63,-412"/>
<text xml:space="preserve" text-anchor="middle" x="468" y="-391" font-family="Helvetica,sans-Serif" font-size="10.00">toSupportRE</text>
</a>
</g>
</g>
<!-- n17&#45;&gt;n0 -->
<g id="edge41" class="edge">
<title>n17&#45;&gt;n0</title>
<path fill="none" stroke="#64748b" d="M430.9,-382.04C408.36,-373.71 380.47,-360.19 362,-340 333.31,-308.64 327,-293.5 327,-251 327,-251 327,-251 327,-177 327,-129.8 361.81,-84.53 386.61,-58.26"/>
<polygon fill="#64748b" stroke="#64748b" points="388.2,-60.14 391.31,-53.4 384.68,-56.73 388.2,-60.14"/>
</g>
<!-- n17&#45;&gt;n2 -->
<g id="edge38" class="edge">
<title>n17&#45;&gt;n2</title>
<path fill="none" stroke="#64748b" d="M431.05,-379.67C398.28,-367.84 350.43,-350.58 316.17,-338.22"/>
<polygon fill="#64748b" stroke="#64748b" points="317.05,-335.93 309.63,-335.86 315.38,-340.54 317.05,-335.93"/>
</g>
<!-- n17&#45;&gt;n9 -->
<g id="edge40" class="edge">
<title>n17&#45;&gt;n9</title>
<path fill="none" stroke="#64748b" d="M431.02,-384.87C384.37,-374.59 301.68,-356.25 231,-340 230.82,-339.96 230.64,-339.92 230.46,-339.88"/>
<polygon fill="#64748b" stroke="#64748b" points="231.05,-337.5 223.68,-338.31 229.95,-342.27 231.05,-337.5"/>
</g>
<!-- n17&#45;&gt;n12 -->
<g id="edge39" class="edge">
<title>n17&#45;&gt;n12</title>
<path fill="none" stroke="#64748b" d="M504.99,-378.74C508.02,-377.76 511.05,-376.83 514,-376 553.26,-365.01 659.53,-345.46 727.31,-333.42"/>
<polygon fill="#64748b" stroke="#64748b" points="727.43,-335.89 733.89,-332.25 726.57,-331.06 727.43,-335.89"/>
</g>
<!-- n17&#45;&gt;n16 -->
<g id="edge42" class="edge">
<title>n17&#45;&gt;n16</title>
<path fill="none" stroke="#64748b" d="M464.79,-375.7C463.26,-367.47 461.4,-357.48 459.72,-348.42"/>
<polygon fill="#64748b" stroke="#64748b" points="462.14,-348.03 458.45,-341.59 457.32,-348.92 462.14,-348.03"/>
</g>
<!-- n18 -->
<g id="node19" class="node">
<title>n18</title>
<g id="a_node19"><a xlink:href="https://github.com/statopia/statlib/blob/main/Statlib/HighDim/Regression/LassoOracle.lean#L629" xlink:title="theorem · Statlib/HighDim/Regression/LassoOracle.lean:629" target="_blank">
<path fill="#ffe6a3" stroke="#d4a017" d="M1069.53,-484C1069.53,-484 972.47,-484 972.47,-484 966.47,-484 960.47,-478 960.47,-472 960.47,-472 960.47,-460 960.47,-460 960.47,-454 966.47,-448 972.47,-448 972.47,-448 1069.53,-448 1069.53,-448 1075.53,-448 1081.53,-454 1081.53,-460 1081.53,-460 1081.53,-472 1081.53,-472 1081.53,-478 1075.53,-484 1069.53,-484"/>
<text xml:space="preserve" text-anchor="middle" x="1021" y="-463" font-family="Helvetica,sans-Serif" font-size="10.00">lasso_oracle_prediction</text>
</a>
</g>
</g>
<!-- n18&#45;&gt;n0 -->
<g id="edge45" class="edge">
<title>n18&#45;&gt;n0</title>
<path fill="none" stroke="#64748b" d="M1081.89,-455.8C1110.5,-448.48 1142.89,-435.39 1164,-412 1191.38,-381.68 1187,-363.86 1187,-323 1187,-323 1187,-323 1187,-177 1187,-108.08 1124.83,-111.4 1060,-88 946.68,-47.1 572.2,-37.57 449.96,-35.52"/>
<polygon fill="#64748b" stroke="#64748b" points="450.16,-33.07 443.12,-35.41 450.08,-37.97 450.16,-33.07"/>
</g>
<!-- n18&#45;&gt;n2 -->
<g id="edge43" class="edge">
<title>n18&#45;&gt;n2</title>
<path fill="none" stroke="#64748b" d="M959.97,-462.52C816.76,-456.3 467.76,-438.57 422,-412 405.15,-402.22 412.08,-388.33 397,-376 383.99,-365.36 346.44,-349.83 316.22,-338.33"/>
<polygon fill="#64748b" stroke="#64748b" points="317.15,-336.07 309.74,-335.89 315.42,-340.65 317.15,-336.07"/>
</g>
<!-- n18&#45;&gt;n6 -->
<g id="edge44" class="edge">
<title>n18&#45;&gt;n6</title>
<path fill="none" stroke="#64748b" d="M1081.89,-457.01C1109.66,-449.99 1140.05,-436.79 1157,-412 1166.03,-398.79 1159.16,-391.85 1157,-376 1148.03,-310.19 1163.61,-279.33 1117,-232 1083.39,-197.87 1029.01,-185.46 988.8,-181.08"/>
<polygon fill="#64748b" stroke="#64748b" points="989.16,-178.66 981.96,-180.41 988.68,-183.53 989.16,-178.66"/>
</g>
<!-- n18&#45;&gt;n15 -->
<g id="edge46" class="edge">
<title>n18&#45;&gt;n15</title>
<path fill="none" stroke="#64748b" d="M1029.16,-447.7C1033.15,-439.22 1038.04,-428.86 1042.41,-419.58"/>
<polygon fill="#64748b" stroke="#64748b" points="1044.52,-420.85 1045.29,-413.47 1040.09,-418.76 1044.52,-420.85"/>
</g>
<!-- n18&#45;&gt;n17 -->
<g id="edge47" class="edge">
<title>n18&#45;&gt;n17</title>
<path fill="none" stroke="#64748b" d="M960.1,-463.53C864.08,-460.12 672.16,-448.88 514,-412 513.63,-411.91 513.25,-411.82 512.88,-411.73"/>
<polygon fill="#64748b" stroke="#64748b" points="513.77,-409.44 506.37,-409.95 512.47,-414.16 513.77,-409.44"/>
</g>
<!-- n19 -->
<g id="node20" class="node">
<title>n19</title>
<g id="a_node20"><a xlink:href="https://github.com/statopia/statlib/blob/main/Statlib/HighDim/Regression/LassoOracle.lean#L663" xlink:title="theorem · Statlib/HighDim/Regression/LassoOracle.lean:663" target="_blank">
<path fill="#ffe6a3" stroke="#d4a017" d="M850.1,-412C850.1,-412 721.9,-412 721.9,-412 715.9,-412 709.9,-406 709.9,-400 709.9,-400 709.9,-388 709.9,-388 709.9,-382 715.9,-376 721.9,-376 721.9,-376 850.1,-376 850.1,-376 856.1,-376 862.1,-382 862.1,-388 862.1,-388 862.1,-400 862.1,-400 862.1,-406 856.1,-412 850.1,-412"/>
<text xml:space="preserve" text-anchor="middle" x="786" y="-391" font-family="Helvetica,sans-Serif" font-size="10.00">lasso_oracle_l1_of_supportRE</text>
</a>
</g>
</g>
<!-- n19&#45;&gt;n0 -->
<g id="edge52" class="edge">
<title>n19&#45;&gt;n0</title>
<path fill="none" stroke="#64748b" d="M709.55,-382.18C694.46,-380.09 678.73,-377.95 664,-376 600.28,-367.56 422.16,-385.74 377,-340 349.04,-311.67 367,-290.8 367,-251 367,-251 367,-251 367,-177 367,-134.48 385.22,-87.88 398.21,-60.06"/>
<polygon fill="#64748b" stroke="#64748b" points="400.42,-61.13 401.23,-53.76 396,-59.01 400.42,-61.13"/>
</g>
<!-- n19&#45;&gt;n1 -->
<g id="edge50" class="edge">
<title>n19&#45;&gt;n1</title>
<path fill="none" stroke="#64748b" d="M764.41,-375.71C752.72,-365.84 738.39,-352.91 727,-340 714.11,-325.39 714.42,-319.01 702,-304 693.59,-293.83 683.58,-283.32 674.61,-274.37"/>
<polygon fill="#64748b" stroke="#64748b" points="676.38,-272.67 669.68,-269.5 672.94,-276.16 676.38,-272.67"/>
</g>
<!-- n19&#45;&gt;n6 -->
<g id="edge49" class="edge">
<title>n19&#45;&gt;n6</title>
<path fill="none" stroke="#64748b" d="M811.2,-375.71C823.36,-366.32 837.37,-353.81 847,-340 876.38,-297.89 860.97,-275.65 888,-232 894.58,-221.37 903.48,-210.97 911.88,-202.25"/>
<polygon fill="#64748b" stroke="#64748b" points="913.62,-203.97 916.81,-197.28 910.14,-200.52 913.62,-203.97"/>
</g>
<!-- n19&#45;&gt;n12 -->
<g id="edge48" class="edge">
<title>n19&#45;&gt;n12</title>
<path fill="none" stroke="#64748b" d="M786.25,-375.7C786.36,-367.47 786.51,-357.48 786.64,-348.42"/>
<polygon fill="#64748b" stroke="#64748b" points="789.08,-348.65 786.73,-341.62 784.18,-348.58 789.08,-348.65"/>
</g>
<!-- n19&#45;&gt;n13 -->
<g id="edge53" class="edge">
<title>n19&#45;&gt;n13</title>
<path fill="none" stroke="#64748b" d="M818.37,-375.59C866.8,-349.54 957.99,-300.49 1010.34,-272.33"/>
<polygon fill="#64748b" stroke="#64748b" points="1011.44,-274.52 1016.44,-269.05 1009.12,-270.21 1011.44,-274.52"/>
</g>
<!-- n19&#45;&gt;n14 -->
<g id="edge51" class="edge">
<title>n19&#45;&gt;n14</title>
<path fill="none" stroke="#64748b" d="M847.44,-375.52C884.11,-365.08 930.62,-351.85 967.77,-341.28"/>
<polygon fill="#64748b" stroke="#64748b" points="968.03,-343.75 974.09,-339.48 966.69,-339.04 968.03,-343.75"/>
</g>
<!-- n20 -->
<g id="node21" class="node">
<title>n20</title>
<g id="a_node21"><a xlink:href="https://github.com/statopia/statlib/blob/main/Statlib/HighDim/Regression/LassoOracle.lean#L877" xlink:title="theorem · Statlib/HighDim/Regression/LassoOracle.lean:877" target="_blank">
<path fill="#ffe6a3" stroke="#d4a017" d="M498.74,-484C498.74,-484 437.26,-484 437.26,-484 431.26,-484 425.26,-478 425.26,-472 425.26,-472 425.26,-460 425.26,-460 425.26,-454 431.26,-448 437.26,-448 437.26,-448 498.74,-448 498.74,-448 504.74,-448 510.74,-454 510.74,-460 510.74,-460 510.74,-472 510.74,-472 510.74,-478 504.74,-484 498.74,-484"/>
<text xml:space="preserve" text-anchor="middle" x="468" y="-463" font-family="Helvetica,sans-Serif" font-size="10.00">lasso_oracle_l1</text>
</a>
</g>
</g>
<!-- n20&#45;&gt;n2 -->
<g id="edge54" class="edge">
<title>n20&#45;&gt;n2</title>
<path fill="none" stroke="#64748b" d="M446.35,-447.65C434.34,-437.66 419.37,-424.63 407,-412 392.43,-397.12 393.25,-389.03 377,-376 358.58,-361.23 335.38,-348.86 315.68,-339.8"/>
<polygon fill="#64748b" stroke="#64748b" points="316.8,-337.62 309.41,-336.98 314.79,-342.09 316.8,-337.62"/>
</g>
<!-- n20&#45;&gt;n6 -->
<g id="edge55" class="edge">
<title>n20&#45;&gt;n6</title>
<path fill="none" stroke="#64748b" d="M511.04,-465.4C604.05,-465.34 819.53,-459.89 871,-412 900.9,-384.18 893.93,-270.34 908,-232 911.58,-222.25 916.72,-212.12 921.69,-203.35"/>
<polygon fill="#64748b" stroke="#64748b" points="923.78,-204.63 925.2,-197.35 919.55,-202.16 923.78,-204.63"/>
</g>
<!-- n20&#45;&gt;n17 -->
<g id="edge57" class="edge">
<title>n20&#45;&gt;n17</title>
<path fill="none" stroke="#64748b" d="M468,-447.7C468,-439.47 468,-429.48 468,-420.42"/>
<polygon fill="#64748b" stroke="#64748b" points="470.45,-420.62 468,-413.62 465.55,-420.62 470.45,-420.62"/>
</g>
<!-- n20&#45;&gt;n19 -->
<g id="edge56" class="edge">
<title>n20&#45;&gt;n19</title>
<path fill="none" stroke="#64748b" d="M511.22,-455.49C559.89,-444.77 640.19,-427.1 701.44,-413.61"/>
<polygon fill="#64748b" stroke="#64748b" points="701.79,-416.05 708.1,-412.15 700.73,-411.26 701.79,-416.05"/>
</g>
<!-- n21 -->
<g id="node22" class="node">
<title>n21</title>
<g id="a_node22"><a xlink:href="https://github.com/statopia/statlib/blob/main/Statlib/HighDim/Regression/LassoOracle.lean#L980" xlink:title="theorem · Statlib/HighDim/Regression/LassoOracle.lean:980" target="_blank">
<path fill="#ffe6a3" stroke="#d4a017" d="M975.74,-556C975.74,-556 914.26,-556 914.26,-556 908.26,-556 902.26,-550 902.26,-544 902.26,-544 902.26,-532 902.26,-532 902.26,-526 908.26,-520 914.26,-520 914.26,-520 975.74,-520 975.74,-520 981.74,-520 987.74,-526 987.74,-532 987.74,-532 987.74,-544 987.74,-544 987.74,-550 981.74,-556 975.74,-556"/>
<text xml:space="preserve" text-anchor="middle" x="945" y="-535" font-family="Helvetica,sans-Serif" font-size="10.00">lasso_oracle_l2</text>
</a>
</g>
</g>
<!-- n21&#45;&gt;n0 -->
<g id="edge60" class="edge">
<title>n21&#45;&gt;n0</title>
<path fill="none" stroke="#64748b" d="M987.97,-533.19C1062.3,-523.99 1207,-493.43 1207,-395 1207,-395 1207,-395 1207,-177 1207,-153.32 1242.11,-143.77 1115,-88 994.31,-35.04 579.57,-33.66 450,-34.57"/>
<polygon fill="#64748b" stroke="#64748b" points="450.02,-32.12 443.04,-34.62 450.06,-37.02 450.02,-32.12"/>
</g>
<!-- n21&#45;&gt;n1 -->
<g id="edge61" class="edge">
<title>n21&#45;&gt;n1</title>
<path fill="none" stroke="#64748b" d="M902.05,-527.96C845.9,-513.71 749.07,-480.32 701,-412 673.15,-372.41 704.47,-349.14 687,-304 683.04,-293.76 676.7,-283.61 670.38,-274.97"/>
<polygon fill="#64748b" stroke="#64748b" points="672.47,-273.67 666.28,-269.59 668.58,-276.65 672.47,-273.67"/>
</g>
<!-- n21&#45;&gt;n2 -->
<g id="edge58" class="edge">
<title>n21&#45;&gt;n2</title>
<path fill="none" stroke="#64748b" d="M902.02,-536.69C791.58,-535.27 500.59,-527.39 416,-484 384.65,-467.92 322.16,-387.78 291.62,-346.97"/>
<polygon fill="#64748b" stroke="#64748b" points="293.7,-345.66 287.56,-341.51 289.77,-348.59 293.7,-345.66"/>
</g>
<!-- n21&#45;&gt;n6 -->
<g id="edge59" class="edge">
<title>n21&#45;&gt;n6</title>
<path fill="none" stroke="#64748b" d="M938.76,-519.59C935.43,-509.37 931.68,-496.12 930,-484 927.8,-468.15 929.56,-463.99 930,-448 930.89,-415.96 929.62,-407.75 934,-376 936.24,-359.76 940.21,-356.29 942,-340 943.75,-324.1 942.32,-320 942,-304 941.31,-269.62 939.56,-229.95 938.33,-204.69"/>
<polygon fill="#64748b" stroke="#64748b" points="940.78,-204.77 937.99,-197.9 935.89,-205.01 940.78,-204.77"/>
</g>
<!-- n21&#45;&gt;n14 -->
<g id="edge62" class="edge">
<title>n21&#45;&gt;n14</title>
<path fill="none" stroke="#64748b" d="M940.78,-519.64C934.21,-488.54 924.86,-422.27 951,-376 958.39,-362.91 970.51,-352.5 983.14,-344.49"/>
<polygon fill="#64748b" stroke="#64748b" points="984.13,-346.76 988.89,-341.07 981.62,-342.55 984.13,-346.76"/>
</g>
<!-- n21&#45;&gt;n18 -->
<g id="edge63" class="edge">
<title>n21&#45;&gt;n18</title>
<path fill="none" stroke="#64748b" d="M963.79,-519.7C973.56,-510.69 985.64,-499.57 996.17,-489.87"/>
<polygon fill="#64748b" stroke="#64748b" points="997.56,-491.92 1001.05,-485.37 994.24,-488.31 997.56,-491.92"/>
</g>
<!-- n22 -->
<g id="node23" class="node">
<title>n22</title>
<g id="a_node23"><a xlink:href="https://github.com/statopia/statlib/blob/main/Statlib/HighDim/Regression/LassoRSEOracle.lean#L23" xlink:title="theorem · Statlib/HighDim/Regression/LassoRSEOracle.lean:23" target="_blank">
<path fill="#ffe6a3" stroke="#d4a017" stroke-width="3" d="M365.83,-628C365.83,-628 208.17,-628 208.17,-628 202.17,-628 196.17,-622 196.17,-616 196.17,-616 196.17,-604 196.17,-604 196.17,-598 202.17,-592 208.17,-592 208.17,-592 365.83,-592 365.83,-592 371.83,-592 377.83,-598 377.83,-604 377.83,-604 377.83,-616 377.83,-616 377.83,-622 371.83,-628 365.83,-628"/>
<text xml:space="preserve" text-anchor="middle" x="287" y="-607" font-family="Helvetica,sans-Serif" font-size="10.00">fixed_design_lasso_oracle_of_l1RSE</text>
</a>
</g>
</g>
<!-- n22&#45;&gt;n0 -->
<g id="edge66" class="edge">
<title>n22&#45;&gt;n0</title>
<path fill="none" stroke="#64748b" d="M194.84,-598.61C116.62,-584.06 17,-549.36 17,-467 17,-467 17,-467 17,-177 17,-137.02 1.64,-116.17 30,-88 77.58,-40.75 284.95,-35.01 372.15,-34.74"/>
<polygon fill="#64748b" stroke="#64748b" points="371.94,-37.19 378.94,-34.73 371.93,-32.29 371.94,-37.19"/>
</g>
<!-- n22&#45;&gt;n2 -->
<g id="edge69" class="edge">
<title>n22&#45;&gt;n2</title>
<path fill="none" stroke="#64748b" d="M284.89,-590.62C281.77,-560.68 276.73,-499.57 281,-448 282.34,-431.83 285.66,-428.17 287,-412 288.32,-396.05 288.92,-391.88 287,-376 285.91,-366.97 283.81,-357.26 281.61,-348.65"/>
<polygon fill="#64748b" stroke="#64748b" points="283.99,-348.06 279.8,-341.93 279.25,-349.33 283.99,-348.06"/>
</g>
<!-- n22&#45;&gt;n3 -->
<g id="edge67" class="edge">
<title>n22&#45;&gt;n3</title>
<path fill="none" stroke="#64748b" d="M278.97,-590.59C274.76,-580.5 269.71,-567.7 266,-556 250.98,-508.69 238.49,-452 231.94,-420.08"/>
<polygon fill="#64748b" stroke="#64748b" points="234.42,-419.99 230.63,-413.62 229.62,-420.97 234.42,-419.99"/>
</g>
<!-- n22&#45;&gt;n4 -->
<g id="edge64" class="edge">
<title>n22&#45;&gt;n4</title>
<path fill="none" stroke="#64748b" d="M194.96,-602.71C160.55,-595.79 123.84,-582.21 99,-556 83.06,-539.18 78.81,-512.5 78.09,-492.74"/>
<polygon fill="#64748b" stroke="#64748b" points="80.54,-492.95 78,-485.99 75.64,-493.02 80.54,-492.95"/>
</g>
<!-- n22&#45;&gt;n6 -->
<g id="edge65" class="edge">
<title>n22&#45;&gt;n6</title>
<path fill="none" stroke="#64748b" d="M379.33,-605.45C511.03,-595.22 751.52,-556.52 884,-412 911.75,-381.73 928.28,-258.93 934.34,-204.82"/>
<polygon fill="#64748b" stroke="#64748b" points="936.77,-205.18 935.09,-197.95 931.9,-204.64 936.77,-205.18"/>
</g>
<!-- n22&#45;&gt;n10 -->
<g id="edge68" class="edge">
<title>n22&#45;&gt;n10</title>
<path fill="none" stroke="#64748b" d="M254.68,-590.61C238.37,-581.32 218.48,-570.01 201.49,-560.34"/>
<polygon fill="#64748b" stroke="#64748b" points="203.02,-558.39 195.72,-557.05 200.6,-562.65 203.02,-558.39"/>
</g>
<!-- n22&#45;&gt;n11 -->
<g id="edge70" class="edge">
<title>n22&#45;&gt;n11</title>
<path fill="none" stroke="#64748b" d="M290.86,-590.73C296.14,-565.75 305.63,-520.81 311.61,-492.52"/>
<polygon fill="#64748b" stroke="#64748b" points="313.98,-493.15 313.03,-485.8 309.19,-492.14 313.98,-493.15"/>
</g>
<!-- n22&#45;&gt;n18 -->
<g id="edge71" class="edge">
<title>n22&#45;&gt;n18</title>
<path fill="none" stroke="#64748b" d="M379.07,-607.97C560.43,-605.12 950.41,-594.52 997,-556 1015.45,-540.74 1020.53,-512.92 1021.57,-492.43"/>
<polygon fill="#64748b" stroke="#64748b" points="1024.01,-492.73 1021.75,-485.66 1019.11,-492.6 1024.01,-492.73"/>
</g>
<!-- n22&#45;&gt;n20 -->
<g id="edge72" class="edge">
<title>n22&#45;&gt;n20</title>
<path fill="none" stroke="#64748b" d="M310.29,-590.73C343.37,-564.78 403.89,-517.3 439.57,-489.3"/>
<polygon fill="#64748b" stroke="#64748b" points="440.74,-491.5 444.74,-485.25 437.72,-487.64 440.74,-491.5"/>
</g>
<!-- n22&#45;&gt;n21 -->
<g id="edge73" class="edge">
<title>n22&#45;&gt;n21</title>
<path fill="none" stroke="#64748b" d="M379.18,-606.64C497.82,-602.29 709.89,-590.05 888,-556 890,-555.62 892.02,-555.19 894.06,-554.74"/>
<polygon fill="#64748b" stroke="#64748b" points="894.27,-557.21 900.5,-553.19 893.12,-552.45 894.27,-557.21"/>
</g>
</g>
</svg>
