<?xml version="1.0" encoding="UTF-8" standalone="no"?>
<!DOCTYPE svg PUBLIC "-//W3C//DTD SVG 1.1//EN"
 "http://www.w3.org/Graphics/SVG/1.1/DTD/svg11.dtd">
<!-- Generated by graphviz version 15.0.0 (20260523.1842)
 -->
<!-- Title: hanson_wright_tail_high_of_offdiag_tail Pages: 1 -->
<svg width="3424pt" height="555pt"
 viewBox="0.00 0.00 3424.00 555.00" xmlns="http://www.w3.org/2000/svg" xmlns:xlink="http://www.w3.org/1999/xlink">
<g id="graph0" class="graph" transform="scale(1 1) rotate(0) translate(4 551.2)">
<title>hanson_wright_tail_high_of_offdiag_tail</title>
<polygon fill="white" stroke="none" points="-4,4 -4,-551.2 3420,-551.2 3420,4 -4,4"/>
<text xml:space="preserve" text-anchor="middle" x="1708" y="-530.6" font-family="Helvetica,sans-Serif" font-size="14.00">Proof narrative — hanson_wright_tail_high_of_offdiag_tail &#160;(41 decls)</text>
<g id="clust1" class="cluster">
<title>cluster_0</title>
<path fill="none" stroke="#cbd5e1" stroke-dasharray="5,2" d="M20,-80C20,-80 2562,-80 2562,-80 2568,-80 2574,-86 2574,-92 2574,-92 2574,-502.4 2574,-502.4 2574,-508.4 2568,-514.4 2562,-514.4 2562,-514.4 20,-514.4 20,-514.4 14,-514.4 8,-508.4 8,-502.4 8,-502.4 8,-92 8,-92 8,-86 14,-80 20,-80"/>
<text xml:space="preserve" text-anchor="middle" x="1291" y="-500.5" font-family="Helvetica,sans-Serif" font-size="11.00">HighDim</text>
</g>
<g id="clust2" class="cluster">
<title>cluster_1</title>
<path fill="none" stroke="#cbd5e1" stroke-dasharray="5,2" d="M2594,-8C2594,-8 3396,-8 3396,-8 3402,-8 3408,-14 3408,-20 3408,-20 3408,-213.2 3408,-213.2 3408,-219.2 3402,-225.2 3396,-225.2 3396,-225.2 2594,-225.2 2594,-225.2 2588,-225.2 2582,-219.2 2582,-213.2 2582,-213.2 2582,-20 2582,-20 2582,-14 2588,-8 2594,-8"/>
<text xml:space="preserve" text-anchor="middle" x="2995" y="-211.3" font-family="Helvetica,sans-Serif" font-size="11.00">StatFoundation</text>
</g>
<!-- n0 -->
<g id="node1" class="node">
<title>n0</title>
<g id="a_node1"><a xlink:href="vscode://vscode-remote/wsl+Ubuntu/home/ai4stat/statlib/Statlib/HighDim/Vocabulary/RandomVector.lean:83" xlink:title="structure · Statlib/HighDim/Vocabulary/RandomVector.lean:83" target="_blank">
<path fill="#e8dcff" stroke="#8b5cf6" d="M1429.4,-196C1429.4,-196 1394.6,-196 1394.6,-196 1388.6,-196 1382.6,-190 1382.6,-184 1382.6,-184 1382.6,-172 1382.6,-172 1382.6,-166 1388.6,-160 1394.6,-160 1394.6,-160 1429.4,-160 1429.4,-160 1435.4,-160 1441.4,-166 1441.4,-172 1441.4,-172 1441.4,-184 1441.4,-184 1441.4,-190 1435.4,-196 1429.4,-196"/>
<text xml:space="preserve" text-anchor="middle" x="1412" y="-175" font-family="Helvetica,sans-Serif" font-size="10.00">HasMean</text>
</a>
</g>
</g>
<!-- n1 -->
<g id="node2" class="node">
<title>n1</title>
<g id="a_node2"><a xlink:href="vscode://vscode-remote/wsl+Ubuntu/home/ai4stat/statlib/Statlib/HighDim/Vocabulary/RandomVector.lean:52" xlink:title="structure · Statlib/HighDim/Vocabulary/RandomVector.lean:52" target="_blank">
<path fill="#e8dcff" stroke="#8b5cf6" d="M859.36,-124C859.36,-124 770.64,-124 770.64,-124 764.64,-124 758.64,-118 758.64,-112 758.64,-112 758.64,-100 758.64,-100 758.64,-94 764.64,-88 770.64,-88 770.64,-88 859.36,-88 859.36,-88 865.36,-88 871.36,-94 871.36,-100 871.36,-100 871.36,-112 871.36,-112 871.36,-118 865.36,-124 859.36,-124"/>
<text xml:space="preserve" text-anchor="middle" x="815" y="-103" font-family="Helvetica,sans-Serif" font-size="10.00">IsSubGaussianVector</text>
</a>
</g>
</g>
<!-- n2 -->
<g id="node3" class="node">
<title>n2</title>
<g id="a_node3"><a xlink:href="vscode://vscode-remote/wsl+Ubuntu/home/ai4stat/statlib/Statlib/HighDim/Vocabulary/Norms.lean:37" xlink:title="noncomputable def · Statlib/HighDim/Vocabulary/Norms.lean:37" target="_blank">
<path fill="#d6e9ff" stroke="#3b82f6" d="M312.91,-196C312.91,-196 243.09,-196 243.09,-196 237.09,-196 231.09,-190 231.09,-184 231.09,-184 231.09,-172 231.09,-172 231.09,-166 237.09,-160 243.09,-160 243.09,-160 312.91,-160 312.91,-160 318.91,-160 324.91,-166 324.91,-172 324.91,-172 324.91,-184 324.91,-184 324.91,-190 318.91,-196 312.91,-196"/>
<text xml:space="preserve" text-anchor="middle" x="278" y="-175" font-family="Helvetica,sans-Serif" font-size="10.00">frobeniusNormSq</text>
</a>
</g>
</g>
<!-- n3 -->
<g id="node4" class="node">
<title>n3</title>
<g id="a_node4"><a xlink:href="vscode://vscode-remote/wsl+Ubuntu/home/ai4stat/statlib/Statlib/HighDim/Vocabulary/QuadraticForms.lean:27" xlink:title="noncomputable def · Statlib/HighDim/Vocabulary/QuadraticForms.lean:27" target="_blank">
<path fill="#d6e9ff" stroke="#3b82f6" d="M2006.74,-124C2006.74,-124 1935.26,-124 1935.26,-124 1929.26,-124 1923.26,-118 1923.26,-112 1923.26,-112 1923.26,-100 1923.26,-100 1923.26,-94 1929.26,-88 1935.26,-88 1935.26,-88 2006.74,-88 2006.74,-88 2012.74,-88 2018.74,-94 2018.74,-100 2018.74,-100 2018.74,-112 2018.74,-112 2018.74,-118 2012.74,-124 2006.74,-124"/>
<text xml:space="preserve" text-anchor="middle" x="1971" y="-103" font-family="Helvetica,sans-Serif" font-size="10.00">offDiagQuadForm</text>
</a>
</g>
</g>
<!-- n4 -->
<g id="node5" class="node">
<title>n4</title>
<g id="a_node5"><a xlink:href="vscode://vscode-remote/wsl+Ubuntu/home/ai4stat/statlib/Statlib/HighDim/Vocabulary/QuadraticForms.lean:15" xlink:title="noncomputable def · Statlib/HighDim/Vocabulary/QuadraticForms.lean:15" target="_blank">
<path fill="#d6e9ff" stroke="#3b82f6" d="M2503.79,-124C2503.79,-124 2466.21,-124 2466.21,-124 2460.21,-124 2454.21,-118 2454.21,-112 2454.21,-112 2454.21,-100 2454.21,-100 2454.21,-94 2460.21,-88 2466.21,-88 2466.21,-88 2503.79,-88 2503.79,-88 2509.79,-88 2515.79,-94 2515.79,-100 2515.79,-100 2515.79,-112 2515.79,-112 2515.79,-118 2509.79,-124 2503.79,-124"/>
<text xml:space="preserve" text-anchor="middle" x="2485" y="-103" font-family="Helvetica,sans-Serif" font-size="10.00">quadForm</text>
</a>
</g>
</g>
<!-- n5 -->
<g id="node6" class="node">
<title>n5</title>
<g id="a_node6"><a xlink:href="vscode://vscode-remote/wsl+Ubuntu/home/ai4stat/statlib/Statlib/HighDim/Vocabulary/Norms.lean:32" xlink:title="lemma · Statlib/HighDim/Vocabulary/Norms.lean:32" target="_blank">
<path fill="#eef2f6" stroke="#94a3b8" d="M646.69,-124C646.69,-124 591.31,-124 591.31,-124 585.31,-124 579.31,-118 579.31,-112 579.31,-112 579.31,-100 579.31,-100 579.31,-94 585.31,-88 591.31,-88 591.31,-88 646.69,-88 646.69,-88 652.69,-88 658.69,-94 658.69,-100 658.69,-100 658.69,-112 658.69,-112 658.69,-118 652.69,-124 646.69,-124"/>
<text xml:space="preserve" text-anchor="middle" x="619" y="-103" font-family="Helvetica,sans-Serif" font-size="10.00">inner_eq_sum</text>
</a>
</g>
</g>
<!-- n6 -->
<g id="node7" class="node">
<title>n6</title>
<g id="a_node7"><a xlink:href="vscode://vscode-remote/wsl+Ubuntu/home/ai4stat/statlib/Statlib/HighDim/Concentration/HansonWright.lean:1389" xlink:title="lemma · Statlib/HighDim/Concentration/HansonWright.lean:1389" target="_blank">
<path fill="#eef2f6" stroke="#94a3b8" d="M674.76,-196C674.76,-196 563.24,-196 563.24,-196 557.24,-196 551.24,-190 551.24,-184 551.24,-184 551.24,-172 551.24,-172 551.24,-166 557.24,-160 563.24,-160 563.24,-160 674.76,-160 674.76,-160 680.76,-160 686.76,-166 686.76,-172 686.76,-172 686.76,-184 686.76,-184 686.76,-190 680.76,-196 674.76,-196"/>
<text xml:space="preserve" text-anchor="middle" x="619" y="-175" font-family="Helvetica,sans-Serif" font-size="10.00">subgaussian_vector_coord</text>
</a>
</g>
</g>
<!-- n6&#45;&gt;n1 -->
<g id="edge1" class="edge">
<title>n6&#45;&gt;n1</title>
<path fill="none" stroke="#64748b" d="M667.95,-159.52C695.42,-149.71 729.81,-137.43 758.42,-127.21"/>
<polygon fill="#64748b" stroke="#64748b" points="759.14,-129.55 764.91,-124.89 757.49,-124.94 759.14,-129.55"/>
</g>
<!-- n6&#45;&gt;n5 -->
<g id="edge2" class="edge">
<title>n6&#45;&gt;n5</title>
<path fill="none" stroke="#64748b" d="M619,-159.7C619,-151.47 619,-141.48 619,-132.42"/>
<polygon fill="#64748b" stroke="#64748b" points="621.45,-132.62 619,-125.62 616.55,-132.62 621.45,-132.62"/>
</g>
<!-- n7 -->
<g id="node8" class="node">
<title>n7</title>
<g id="a_node8"><a xlink:href="vscode://vscode-remote/wsl+Ubuntu/home/ai4stat/statlib/Statlib/HighDim/Vocabulary/QuadraticForms.lean:21" xlink:title="noncomputable def · Statlib/HighDim/Vocabulary/QuadraticForms.lean:21" target="_blank">
<path fill="#d6e9ff" stroke="#3b82f6" d="M2296.35,-124C2296.35,-124 2237.65,-124 2237.65,-124 2231.65,-124 2225.65,-118 2225.65,-112 2225.65,-112 2225.65,-100 2225.65,-100 2225.65,-94 2231.65,-88 2237.65,-88 2237.65,-88 2296.35,-88 2296.35,-88 2302.35,-88 2308.35,-94 2308.35,-100 2308.35,-100 2308.35,-112 2308.35,-112 2308.35,-118 2302.35,-124 2296.35,-124"/>
<text xml:space="preserve" text-anchor="middle" x="2267" y="-103" font-family="Helvetica,sans-Serif" font-size="10.00">diagQuadForm</text>
</a>
</g>
</g>
<!-- n8 -->
<g id="node9" class="node">
<title>n8</title>
<g id="a_node9"><a xlink:href="vscode://vscode-remote/wsl+Ubuntu/home/ai4stat/statlib/Statlib/HighDim/Concentration/HansonWright.lean:1280" xlink:title="lemma · Statlib/HighDim/Concentration/HansonWright.lean:1280" target="_blank">
<path fill="#eef2f6" stroke="#94a3b8" d="M1664.84,-269.2C1664.84,-269.2 1497.16,-269.2 1497.16,-269.2 1491.16,-269.2 1485.16,-263.2 1485.16,-257.2 1485.16,-257.2 1485.16,-245.2 1485.16,-245.2 1485.16,-239.2 1491.16,-233.2 1497.16,-233.2 1497.16,-233.2 1664.84,-233.2 1664.84,-233.2 1670.84,-233.2 1676.84,-239.2 1676.84,-245.2 1676.84,-245.2 1676.84,-257.2 1676.84,-257.2 1676.84,-263.2 1670.84,-269.2 1664.84,-269.2"/>
<text xml:space="preserve" text-anchor="middle" x="1581" y="-248.2" font-family="Helvetica,sans-Serif" font-size="10.00">coord_mul_integrable_of_sq_integrable</text>
</a>
</g>
</g>
<!-- n9 -->
<g id="node10" class="node">
<title>n9</title>
<g id="a_node10"><a xlink:href="vscode://vscode-remote/wsl+Ubuntu/home/ai4stat/statlib/Statlib/HighDim/Concentration/HansonWright.lean:1318" xlink:title="lemma · Statlib/HighDim/Concentration/HansonWright.lean:1318" target="_blank">
<path fill="#eef2f6" stroke="#94a3b8" d="M1671.52,-341.2C1671.52,-341.2 1440.48,-341.2 1440.48,-341.2 1434.48,-341.2 1428.48,-335.2 1428.48,-329.2 1428.48,-329.2 1428.48,-317.2 1428.48,-317.2 1428.48,-311.2 1434.48,-305.2 1440.48,-305.2 1440.48,-305.2 1671.52,-305.2 1671.52,-305.2 1677.52,-305.2 1683.52,-311.2 1683.52,-317.2 1683.52,-317.2 1683.52,-329.2 1683.52,-329.2 1683.52,-335.2 1677.52,-341.2 1671.52,-341.2"/>
<text xml:space="preserve" text-anchor="middle" x="1556" y="-320.2" font-family="Helvetica,sans-Serif" font-size="10.00">offDiagQuadForm_integrable_of_coord_sq_integrable</text>
</a>
</g>
</g>
<!-- n9&#45;&gt;n3 -->
<g id="edge3" class="edge">
<title>n9&#45;&gt;n3</title>
<path fill="none" stroke="#64748b" d="M1513.97,-304.72C1499.22,-296.3 1484.28,-284.61 1476,-269.2 1468.43,-255.1 1466.18,-245.83 1476,-233.2 1529.87,-163.87 1796.52,-126.29 1914.58,-112.82"/>
<polygon fill="#64748b" stroke="#64748b" points="1914.63,-115.28 1921.31,-112.06 1914.08,-110.41 1914.63,-115.28"/>
</g>
<!-- n9&#45;&gt;n8 -->
<g id="edge4" class="edge">
<title>n9&#45;&gt;n8</title>
<path fill="none" stroke="#64748b" d="M1562.18,-304.9C1565.18,-296.5 1568.83,-286.27 1572.12,-277.06"/>
<polygon fill="#64748b" stroke="#64748b" points="1574.34,-278.15 1574.38,-270.73 1569.72,-276.5 1574.34,-278.15"/>
</g>
<!-- n10 -->
<g id="node11" class="node">
<title>n10</title>
<g id="a_node11"><a xlink:href="vscode://vscode-remote/wsl+Ubuntu/home/ai4stat/statlib/Statlib/HighDim/Concentration/HansonWright.lean:360" xlink:title="lemma · Statlib/HighDim/Concentration/HansonWright.lean:360" target="_blank">
<path fill="#eef2f6" stroke="#94a3b8" d="M2196.16,-196C2196.16,-196 2051.84,-196 2051.84,-196 2045.84,-196 2039.84,-190 2039.84,-184 2039.84,-184 2039.84,-172 2039.84,-172 2039.84,-166 2045.84,-160 2051.84,-160 2051.84,-160 2196.16,-160 2196.16,-160 2202.16,-160 2208.16,-166 2208.16,-172 2208.16,-172 2208.16,-184 2208.16,-184 2208.16,-190 2202.16,-196 2196.16,-196"/>
<text xml:space="preserve" text-anchor="middle" x="2124" y="-175" font-family="Helvetica,sans-Serif" font-size="10.00">diagQuadForm_centered_eq_sum</text>
</a>
</g>
</g>
<!-- n10&#45;&gt;n7 -->
<g id="edge5" class="edge">
<title>n10&#45;&gt;n7</title>
<path fill="none" stroke="#64748b" d="M2159.72,-159.52C2179.31,-149.92 2203.75,-137.96 2224.34,-127.88"/>
<polygon fill="#64748b" stroke="#64748b" points="2225.17,-130.2 2230.38,-124.93 2223.02,-125.8 2225.17,-130.2"/>
</g>
<!-- n11 -->
<g id="node12" class="node">
<title>n11</title>
<g id="a_node12"><a xlink:href="vscode://vscode-remote/wsl+Ubuntu/home/ai4stat/statlib/Statlib/HighDim/Concentration/HansonWright.lean:1570" xlink:title="lemma · Statlib/HighDim/Concentration/HansonWright.lean:1570" target="_blank">
<path fill="#eef2f6" stroke="#94a3b8" d="M192.48,-196C192.48,-196 91.52,-196 91.52,-196 85.52,-196 79.52,-190 79.52,-184 79.52,-184 79.52,-172 79.52,-172 79.52,-166 85.52,-160 91.52,-160 91.52,-160 192.48,-160 192.48,-160 198.48,-160 204.48,-166 204.48,-172 204.48,-172 204.48,-184 204.48,-184 204.48,-190 198.48,-196 192.48,-196"/>
<text xml:space="preserve" text-anchor="middle" x="142" y="-175" font-family="Helvetica,sans-Serif" font-size="10.00">right_pos_of_pos_lt_min</text>
</a>
</g>
</g>
<!-- n12 -->
<g id="node13" class="node">
<title>n12</title>
<g id="a_node13"><a xlink:href="vscode://vscode-remote/wsl+Ubuntu/home/ai4stat/statlib/Statlib/HighDim/Concentration/HansonWright.lean:1591" xlink:title="lemma · Statlib/HighDim/Concentration/HansonWright.lean:1591" target="_blank">
<path fill="#eef2f6" stroke="#94a3b8" d="M215.84,-269.2C215.84,-269.2 68.16,-269.2 68.16,-269.2 62.16,-269.2 56.16,-263.2 56.16,-257.2 56.16,-257.2 56.16,-245.2 56.16,-245.2 56.16,-239.2 62.16,-233.2 68.16,-233.2 68.16,-233.2 215.84,-233.2 215.84,-233.2 221.84,-233.2 227.84,-239.2 227.84,-245.2 227.84,-245.2 227.84,-257.2 227.84,-257.2 227.84,-263.2 221.84,-269.2 215.84,-269.2"/>
<text xml:space="preserve" text-anchor="middle" x="142" y="-248.2" font-family="Helvetica,sans-Serif" font-size="10.00">hanson_high_spectral_denom_pos</text>
</a>
</g>
</g>
<!-- n12&#45;&gt;n2 -->
<g id="edge6" class="edge">
<title>n12&#45;&gt;n2</title>
<path fill="none" stroke="#64748b" d="M196.55,-232.76C202.2,-230.43 207.78,-227.91 213,-225.2 225.83,-218.55 238.99,-209.65 250.1,-201.43"/>
<polygon fill="#64748b" stroke="#64748b" points="251.4,-203.52 255.51,-197.34 248.45,-199.61 251.4,-203.52"/>
</g>
<!-- n12&#45;&gt;n11 -->
<g id="edge7" class="edge">
<title>n12&#45;&gt;n11</title>
<path fill="none" stroke="#64748b" d="M142,-232.96C142,-224.39 142,-213.87 142,-204.39"/>
<polygon fill="#64748b" stroke="#64748b" points="144.45,-204.59 142,-197.59 139.55,-204.59 144.45,-204.59"/>
</g>
<!-- n13 -->
<g id="node14" class="node">
<title>n13</title>
<g id="a_node14"><a xlink:href="vscode://vscode-remote/wsl+Ubuntu/home/ai4stat/statlib/Statlib/HighDim/Concentration/HansonWright.lean:1604" xlink:title="lemma · Statlib/HighDim/Concentration/HansonWright.lean:1604" target="_blank">
<path fill="#eef2f6" stroke="#94a3b8" d="M235.65,-341.2C235.65,-341.2 136.35,-341.2 136.35,-341.2 130.35,-341.2 124.35,-335.2 124.35,-329.2 124.35,-329.2 124.35,-317.2 124.35,-317.2 124.35,-311.2 130.35,-305.2 136.35,-305.2 136.35,-305.2 235.65,-305.2 235.65,-305.2 241.65,-305.2 247.65,-311.2 247.65,-317.2 247.65,-317.2 247.65,-329.2 247.65,-329.2 247.65,-335.2 241.65,-341.2 235.65,-341.2"/>
<text xml:space="preserve" text-anchor="middle" x="186" y="-320.2" font-family="Helvetica,sans-Serif" font-size="10.00">hanson_high_norm_pos</text>
</a>
</g>
</g>
<!-- n13&#45;&gt;n2 -->
<g id="edge8" class="edge">
<title>n13&#45;&gt;n2</title>
<path fill="none" stroke="#64748b" d="M205.6,-304.91C215.86,-295.14 228.11,-282.3 237,-269.2 250.89,-248.74 262.1,-222.83 269.27,-204.03"/>
<polygon fill="#64748b" stroke="#64748b" points="271.52,-205.02 271.66,-197.61 266.92,-203.32 271.52,-205.02"/>
</g>
<!-- n13&#45;&gt;n12 -->
<g id="edge9" class="edge">
<title>n13&#45;&gt;n12</title>
<path fill="none" stroke="#64748b" d="M175.12,-304.9C169.74,-296.34 163.16,-285.86 157.28,-276.5"/>
<polygon fill="#64748b" stroke="#64748b" points="159.36,-275.21 153.56,-270.59 155.21,-277.82 159.36,-275.21"/>
</g>
<!-- n15 -->
<g id="node15" class="node">
<title>n15</title>
<g id="a_node15"><a xlink:href="vscode://vscode-remote/wsl+Ubuntu/home/ai4stat/statlib/Statlib/HighDim/Concentration/HansonWright.lean:398" xlink:title="lemma · Statlib/HighDim/Concentration/HansonWright.lean:398" target="_blank">
<path fill="#eef2f6" stroke="#94a3b8" d="M840.26,-341.2C840.26,-341.2 703.74,-341.2 703.74,-341.2 697.74,-341.2 691.74,-335.2 691.74,-329.2 691.74,-329.2 691.74,-317.2 691.74,-317.2 691.74,-311.2 697.74,-305.2 703.74,-305.2 703.74,-305.2 840.26,-305.2 840.26,-305.2 846.26,-305.2 852.26,-311.2 852.26,-317.2 852.26,-317.2 852.26,-329.2 852.26,-329.2 852.26,-335.2 846.26,-341.2 840.26,-341.2"/>
<text xml:space="preserve" text-anchor="middle" x="772" y="-320.2" font-family="Helvetica,sans-Serif" font-size="10.00">matrix_entry_abs_le_l2_opNorm</text>
</a>
</g>
</g>
<!-- n18 -->
<g id="node16" class="node">
<title>n18</title>
<g id="a_node16"><a xlink:href="vscode://vscode-remote/wsl+Ubuntu/home/ai4stat/statlib/Statlib/HighDim/Concentration/HansonWright.lean:2109" xlink:title="lemma · Statlib/HighDim/Concentration/HansonWright.lean:2109" target="_blank">
<path fill="#eef2f6" stroke="#94a3b8" d="M1143.62,-269.2C1143.62,-269.2 960.38,-269.2 960.38,-269.2 954.38,-269.2 948.38,-263.2 948.38,-257.2 948.38,-257.2 948.38,-245.2 948.38,-245.2 948.38,-239.2 954.38,-233.2 960.38,-233.2 960.38,-233.2 1143.62,-233.2 1143.62,-233.2 1149.62,-233.2 1155.62,-239.2 1155.62,-245.2 1155.62,-245.2 1155.62,-257.2 1155.62,-257.2 1155.62,-263.2 1149.62,-269.2 1143.62,-269.2"/>
<text xml:space="preserve" text-anchor="middle" x="1052" y="-248.2" font-family="Helvetica,sans-Serif" font-size="10.00">coord_sq_centered_scaled_exp_integrable</text>
</a>
</g>
</g>
<!-- n18&#45;&gt;n0 -->
<g id="edge11" class="edge">
<title>n18&#45;&gt;n0</title>
<path fill="none" stroke="#64748b" d="M1140.07,-232.78C1215.11,-217.94 1319.29,-197.34 1374.37,-186.44"/>
<polygon fill="#64748b" stroke="#64748b" points="1374.58,-188.9 1380.97,-185.14 1373.63,-184.09 1374.58,-188.9"/>
</g>
<!-- n18&#45;&gt;n1 -->
<g id="edge12" class="edge">
<title>n18&#45;&gt;n1</title>
<path fill="none" stroke="#64748b" d="M1032.56,-233.05C1009.96,-213.67 971.03,-181.99 934,-160 913.39,-147.76 889.45,-136.57 868.47,-127.66"/>
<polygon fill="#64748b" stroke="#64748b" points="869.68,-125.51 862.28,-125.07 867.79,-130.03 869.68,-125.51"/>
</g>
<!-- n18&#45;&gt;n6 -->
<g id="edge13" class="edge">
<title>n18&#45;&gt;n6</title>
<path fill="none" stroke="#64748b" d="M948.01,-233.1C870.23,-220.31 765.61,-203.11 695.42,-191.57"/>
<polygon fill="#64748b" stroke="#64748b" points="695.83,-189.15 688.53,-190.43 695.04,-193.99 695.83,-189.15"/>
</g>
<!-- n17 -->
<g id="node36" class="node">
<title>n17</title>
<g id="a_node36"><a xlink:href="vscode://vscode-remote/wsl+Ubuntu/home/ai4stat/statlib/Statlib/StatFoundation/RandomVariable/SubGaussian/subgaussian_exp_sq_le_at_one_third.lean:166" xlink:title="theorem · Statlib/StatFoundation/RandomVariable/SubGaussian/subgaussian_exp_sq_le_at_one_third.lean:166" target="_blank">
<path fill="#ffe6a3" stroke="#d4a017" d="M2798.3,-124C2798.3,-124 2601.7,-124 2601.7,-124 2595.7,-124 2589.7,-118 2589.7,-112 2589.7,-112 2589.7,-100 2589.7,-100 2589.7,-94 2595.7,-88 2601.7,-88 2601.7,-88 2798.3,-88 2798.3,-88 2804.3,-88 2810.3,-94 2810.3,-100 2810.3,-100 2810.3,-112 2810.3,-112 2810.3,-118 2804.3,-124 2798.3,-124"/>
<text xml:space="preserve" text-anchor="middle" x="2700" y="-103" font-family="Helvetica,sans-Serif" font-size="10.00">subgaussian_integrable_exp_sq_at_one_third</text>
</a>
</g>
</g>
<!-- n18&#45;&gt;n17 -->
<g id="edge14" class="edge">
<title>n18&#45;&gt;n17</title>
<path fill="none" stroke="#64748b" d="M1155.97,-233.9C1158.67,-233.64 1161.35,-233.41 1164,-233.2 1199.75,-230.39 2420.07,-233.3 2455,-225.2 2536.01,-206.42 2621.48,-157.55 2666.96,-128.87"/>
<polygon fill="#64748b" stroke="#64748b" points="2668.04,-131.09 2672.63,-125.27 2665.41,-126.96 2668.04,-131.09"/>
</g>
<!-- n23 -->
<g id="node17" class="node">
<title>n23</title>
<g id="a_node17"><a xlink:href="vscode://vscode-remote/wsl+Ubuntu/home/ai4stat/statlib/Statlib/HighDim/Concentration/HansonWright.lean:2044" xlink:title="lemma · Statlib/HighDim/Concentration/HansonWright.lean:2044" target="_blank">
<path fill="#eef2f6" stroke="#94a3b8" d="M1354.67,-269.2C1354.67,-269.2 1185.33,-269.2 1185.33,-269.2 1179.33,-269.2 1173.33,-263.2 1173.33,-257.2 1173.33,-257.2 1173.33,-245.2 1173.33,-245.2 1173.33,-239.2 1179.33,-233.2 1185.33,-233.2 1185.33,-233.2 1354.67,-233.2 1354.67,-233.2 1360.67,-233.2 1366.67,-239.2 1366.67,-245.2 1366.67,-245.2 1366.67,-257.2 1366.67,-257.2 1366.67,-263.2 1360.67,-269.2 1354.67,-269.2"/>
<text xml:space="preserve" text-anchor="middle" x="1270" y="-248.2" font-family="Helvetica,sans-Serif" font-size="10.00">coord_sq_centered_mgf_bound_explicit</text>
</a>
</g>
</g>
<!-- n23&#45;&gt;n0 -->
<g id="edge20" class="edge">
<title>n23&#45;&gt;n0</title>
<path fill="none" stroke="#64748b" d="M1304.74,-232.78C1326.04,-222.1 1353.29,-208.44 1374.99,-197.56"/>
<polygon fill="#64748b" stroke="#64748b" points="1375.91,-199.84 1381.07,-194.51 1373.71,-195.46 1375.91,-199.84"/>
</g>
<!-- n23&#45;&gt;n1 -->
<g id="edge21" class="edge">
<title>n23&#45;&gt;n1</title>
<path fill="none" stroke="#64748b" d="M1214.66,-232.78C1129.72,-206.05 967.65,-155.04 878.2,-126.89"/>
<polygon fill="#64748b" stroke="#64748b" points="879.16,-124.63 871.75,-124.86 877.69,-129.3 879.16,-124.63"/>
</g>
<!-- n23&#45;&gt;n6 -->
<g id="edge22" class="edge">
<title>n23&#45;&gt;n6</title>
<path fill="none" stroke="#64748b" d="M1173.06,-234.28C1170.35,-233.91 1167.66,-233.55 1165,-233.2 998.08,-211.42 801.44,-193.88 695.64,-185.11"/>
<polygon fill="#64748b" stroke="#64748b" points="695.94,-182.68 688.76,-184.54 695.53,-187.56 695.94,-182.68"/>
</g>
<!-- n22 -->
<g id="node40" class="node">
<title>n22</title>
<g id="a_node40"><a xlink:href="vscode://vscode-remote/wsl+Ubuntu/home/ai4stat/statlib/Statlib/StatFoundation/RandomVariable/SubExponential/subexp_mgf_le_of_sq_subgaussian.lean:72" xlink:title="theorem · Statlib/StatFoundation/RandomVariable/SubExponential/subexp_mgf_le_of_sq_subgaussian.lean:72" target="_blank">
<path fill="#ffe6a3" stroke="#d4a017" d="M3005.84,-196C3005.84,-196 2818.16,-196 2818.16,-196 2812.16,-196 2806.16,-190 2806.16,-184 2806.16,-184 2806.16,-172 2806.16,-172 2806.16,-166 2812.16,-160 2818.16,-160 2818.16,-160 3005.84,-160 3005.84,-160 3011.84,-160 3017.84,-166 3017.84,-172 3017.84,-172 3017.84,-184 3017.84,-184 3017.84,-190 3011.84,-196 3005.84,-196"/>
<text xml:space="preserve" text-anchor="middle" x="2912" y="-175" font-family="Helvetica,sans-Serif" font-size="10.00">subexp_mgf_le_of_sq_subgaussian_explicit</text>
</a>
</g>
</g>
<!-- n23&#45;&gt;n22 -->
<g id="edge23" class="edge">
<title>n23&#45;&gt;n22</title>
<path fill="none" stroke="#64748b" d="M1367.1,-240.67C1401.46,-237.7 1440.42,-234.79 1476,-233.2 1607.54,-227.34 2529.92,-237.61 2661,-225.2 2717.19,-219.88 2779.61,-208.42 2828.14,-198.24"/>
<polygon fill="#64748b" stroke="#64748b" points="2828.6,-200.65 2834.94,-196.8 2827.58,-195.85 2828.6,-200.65"/>
</g>
<!-- n24 -->
<g id="node18" class="node">
<title>n24</title>
<g id="a_node18"><a xlink:href="vscode://vscode-remote/wsl+Ubuntu/home/ai4stat/statlib/Statlib/HighDim/Concentration/HansonWright.lean:2192" xlink:title="lemma · Statlib/HighDim/Concentration/HansonWright.lean:2192" target="_blank">
<path fill="#eef2f6" stroke="#94a3b8" d="M1330.04,-341.2C1330.04,-341.2 1063.96,-341.2 1063.96,-341.2 1057.96,-341.2 1051.96,-335.2 1051.96,-329.2 1051.96,-329.2 1051.96,-317.2 1051.96,-317.2 1051.96,-311.2 1057.96,-305.2 1063.96,-305.2 1063.96,-305.2 1330.04,-305.2 1330.04,-305.2 1336.04,-305.2 1342.04,-311.2 1342.04,-317.2 1342.04,-317.2 1342.04,-329.2 1342.04,-329.2 1342.04,-335.2 1336.04,-341.2 1330.04,-341.2"/>
<text xml:space="preserve" text-anchor="middle" x="1197" y="-320.2" font-family="Helvetica,sans-Serif" font-size="10.00">coord_sq_centered_scaled_subexponential_explicit_of_range</text>
</a>
</g>
</g>
<!-- n24&#45;&gt;n0 -->
<g id="edge24" class="edge">
<title>n24&#45;&gt;n0</title>
<path fill="none" stroke="#64748b" d="M1311.98,-304.75C1335.24,-296.91 1358.04,-285.58 1376,-269.2 1394.53,-252.3 1403.68,-224.58 1408.1,-204.33"/>
<polygon fill="#64748b" stroke="#64748b" points="1410.46,-204.99 1409.42,-197.64 1405.66,-204.04 1410.46,-204.99"/>
</g>
<!-- n24&#45;&gt;n1 -->
<g id="edge25" class="edge">
<title>n24&#45;&gt;n1</title>
<path fill="none" stroke="#64748b" d="M1061.1,-304.73C1009.99,-296.01 959.32,-284.11 939,-269.2 924.24,-258.37 929.31,-248.33 919,-233.2 893.17,-195.3 858.52,-154.97 836.47,-130.38"/>
<polygon fill="#64748b" stroke="#64748b" points="838.4,-128.85 831.89,-125.3 834.76,-132.14 838.4,-128.85"/>
</g>
<!-- n24&#45;&gt;n18 -->
<g id="edge27" class="edge">
<title>n24&#45;&gt;n18</title>
<path fill="none" stroke="#64748b" d="M1160.78,-304.72C1140.99,-295.16 1116.33,-283.25 1095.49,-273.2"/>
<polygon fill="#64748b" stroke="#64748b" points="1096.74,-271.08 1089.37,-270.24 1094.61,-275.49 1096.74,-271.08"/>
</g>
<!-- n24&#45;&gt;n23 -->
<g id="edge28" class="edge">
<title>n24&#45;&gt;n23</title>
<path fill="none" stroke="#64748b" d="M1215.04,-304.9C1224.35,-295.98 1235.82,-284.98 1245.87,-275.34"/>
<polygon fill="#64748b" stroke="#64748b" points="1247.46,-277.21 1250.82,-270.59 1244.07,-273.67 1247.46,-277.21"/>
</g>
<!-- n14 -->
<g id="node34" class="node">
<title>n14</title>
<g id="a_node34"><a xlink:href="vscode://vscode-remote/wsl+Ubuntu/home/ai4stat/statlib/Statlib/StatFoundation/Vocabulary/RandomVariable.lean:74" xlink:title="structure · Statlib/StatFoundation/Vocabulary/RandomVariable.lean:74" target="_blank">
<path fill="#e8dcff" stroke="#8b5cf6" d="M3388.47,-124C3388.47,-124 3287.53,-124 3287.53,-124 3281.53,-124 3275.53,-118 3275.53,-112 3275.53,-112 3275.53,-100 3275.53,-100 3275.53,-94 3281.53,-88 3287.53,-88 3287.53,-88 3388.47,-88 3388.47,-88 3394.47,-88 3400.47,-94 3400.47,-100 3400.47,-100 3400.47,-112 3400.47,-112 3400.47,-118 3394.47,-124 3388.47,-124"/>
<text xml:space="preserve" text-anchor="middle" x="3338" y="-103" font-family="Helvetica,sans-Serif" font-size="10.00">HasSubexponentialMGF</text>
</a>
</g>
</g>
<!-- n24&#45;&gt;n14 -->
<g id="edge26" class="edge">
<title>n24&#45;&gt;n14</title>
<path fill="none" stroke="#64748b" d="M1342.33,-310.18C1367.87,-308.33 1394.2,-306.57 1419,-305.2 1622.44,-293.95 3071.85,-322.25 3251,-225.2 3288.68,-204.79 3314.4,-160.18 3327.61,-131.98"/>
<polygon fill="#64748b" stroke="#64748b" points="3329.72,-133.26 3330.38,-125.87 3325.26,-131.23 3329.72,-133.26"/>
</g>
<!-- n26 -->
<g id="node19" class="node">
<title>n26</title>
<g id="a_node19"><a xlink:href="vscode://vscode-remote/wsl+Ubuntu/home/ai4stat/statlib/Statlib/HighDim/Concentration/HansonWright.lean:1565" xlink:title="lemma · Statlib/HighDim/Concentration/HansonWright.lean:1565" target="_blank">
<path fill="#eef2f6" stroke="#94a3b8" d="M622.42,-269.2C622.42,-269.2 527.58,-269.2 527.58,-269.2 521.58,-269.2 515.58,-263.2 515.58,-257.2 515.58,-257.2 515.58,-245.2 515.58,-245.2 515.58,-239.2 521.58,-233.2 527.58,-233.2 527.58,-233.2 622.42,-233.2 622.42,-233.2 628.42,-233.2 634.42,-239.2 634.42,-245.2 634.42,-245.2 634.42,-257.2 634.42,-257.2 634.42,-263.2 628.42,-269.2 622.42,-269.2"/>
<text xml:space="preserve" text-anchor="middle" x="575" y="-248.2" font-family="Helvetica,sans-Serif" font-size="10.00">left_pos_of_pos_lt_min</text>
</a>
</g>
</g>
<!-- n27 -->
<g id="node20" class="node">
<title>n27</title>
<g id="a_node20"><a xlink:href="vscode://vscode-remote/wsl+Ubuntu/home/ai4stat/statlib/Statlib/HighDim/Concentration/HansonWright.lean:1577" xlink:title="lemma · Statlib/HighDim/Concentration/HansonWright.lean:1577" target="_blank">
<path fill="#eef2f6" stroke="#94a3b8" d="M621.9,-341.2C621.9,-341.2 468.1,-341.2 468.1,-341.2 462.1,-341.2 456.1,-335.2 456.1,-329.2 456.1,-329.2 456.1,-317.2 456.1,-317.2 456.1,-311.2 462.1,-305.2 468.1,-305.2 468.1,-305.2 621.9,-305.2 621.9,-305.2 627.9,-305.2 633.9,-311.2 633.9,-317.2 633.9,-317.2 633.9,-329.2 633.9,-329.2 633.9,-335.2 627.9,-341.2 621.9,-341.2"/>
<text xml:space="preserve" text-anchor="middle" x="545" y="-320.2" font-family="Helvetica,sans-Serif" font-size="10.00">hanson_high_frobenius_denom_pos</text>
</a>
</g>
</g>
<!-- n27&#45;&gt;n2 -->
<g id="edge30" class="edge">
<title>n27&#45;&gt;n2</title>
<path fill="none" stroke="#64748b" d="M531.82,-304.88C524.25,-294.69 514.75,-281.44 507,-269.2 497.21,-253.74 501.47,-244.4 487,-233.2 442.63,-198.86 378.69,-186.14 333.24,-181.51"/>
<polygon fill="#64748b" stroke="#64748b" points="333.68,-179.09 326.49,-180.88 333.23,-183.97 333.68,-179.09"/>
</g>
<!-- n27&#45;&gt;n26 -->
<g id="edge31" class="edge">
<title>n27&#45;&gt;n26</title>
<path fill="none" stroke="#64748b" d="M552.42,-304.9C556.01,-296.5 560.4,-286.27 564.35,-277.06"/>
<polygon fill="#64748b" stroke="#64748b" points="566.57,-278.09 567.07,-270.7 562.06,-276.16 566.57,-278.09"/>
</g>
<!-- n28 -->
<g id="node21" class="node">
<title>n28</title>
<g id="a_node21"><a xlink:href="vscode://vscode-remote/wsl+Ubuntu/home/ai4stat/statlib/Statlib/HighDim/Concentration/HansonWright.lean:425" xlink:title="lemma · Statlib/HighDim/Concentration/HansonWright.lean:425" target="_blank">
<path fill="#eef2f6" stroke="#94a3b8" d="M466.1,-269.2C466.1,-269.2 317.9,-269.2 317.9,-269.2 311.9,-269.2 305.9,-263.2 305.9,-257.2 305.9,-257.2 305.9,-245.2 305.9,-245.2 305.9,-239.2 311.9,-233.2 317.9,-233.2 317.9,-233.2 466.1,-233.2 466.1,-233.2 472.1,-233.2 478.1,-239.2 478.1,-245.2 478.1,-245.2 478.1,-257.2 478.1,-257.2 478.1,-263.2 472.1,-269.2 466.1,-269.2"/>
<text xml:space="preserve" text-anchor="middle" x="392" y="-248.2" font-family="Helvetica,sans-Serif" font-size="10.00">diag_sq_sum_le_frobeniusNormSq</text>
</a>
</g>
</g>
<!-- n28&#45;&gt;n2 -->
<g id="edge32" class="edge">
<title>n28&#45;&gt;n2</title>
<path fill="none" stroke="#64748b" d="M364.11,-232.78C348.65,-223.13 329.29,-211.04 312.85,-200.76"/>
<polygon fill="#64748b" stroke="#64748b" points="314.51,-198.92 307.28,-197.29 311.92,-203.07 314.51,-198.92"/>
</g>
<!-- n29 -->
<g id="node22" class="node">
<title>n29</title>
<g id="a_node22"><a xlink:href="vscode://vscode-remote/wsl+Ubuntu/home/ai4stat/statlib/Statlib/HighDim/Concentration/HansonWright.lean:1632" xlink:title="lemma · Statlib/HighDim/Concentration/HansonWright.lean:1632" target="_blank">
<path fill="#eef2f6" stroke="#94a3b8" d="M897.64,-269.2C897.64,-269.2 704.36,-269.2 704.36,-269.2 698.36,-269.2 692.36,-263.2 692.36,-257.2 692.36,-257.2 692.36,-245.2 692.36,-245.2 692.36,-239.2 698.36,-233.2 704.36,-233.2 704.36,-233.2 897.64,-233.2 897.64,-233.2 903.64,-233.2 909.64,-239.2 909.64,-245.2 909.64,-245.2 909.64,-257.2 909.64,-257.2 909.64,-263.2 903.64,-269.2 897.64,-269.2"/>
<text xml:space="preserve" text-anchor="middle" x="801" y="-248.2" font-family="Helvetica,sans-Serif" font-size="10.00">two_mul_exp_neg_le_exp_neg_hanson_high</text>
</a>
</g>
</g>
<!-- n30 -->
<g id="node23" class="node">
<title>n30</title>
<g id="a_node23"><a xlink:href="vscode://vscode-remote/wsl+Ubuntu/home/ai4stat/statlib/Statlib/HighDim/Concentration/HansonWright.lean:1730" xlink:title="lemma · Statlib/HighDim/Concentration/HansonWright.lean:1730" target="_blank">
<path fill="#eef2f6" stroke="#94a3b8" d="M1014.06,-341.2C1014.06,-341.2 881.94,-341.2 881.94,-341.2 875.94,-341.2 869.94,-335.2 869.94,-329.2 869.94,-329.2 869.94,-317.2 869.94,-317.2 869.94,-311.2 875.94,-305.2 881.94,-305.2 881.94,-305.2 1014.06,-305.2 1014.06,-305.2 1020.06,-305.2 1026.06,-311.2 1026.06,-317.2 1026.06,-317.2 1026.06,-329.2 1026.06,-329.2 1026.06,-335.2 1020.06,-341.2 1014.06,-341.2"/>
<text xml:space="preserve" text-anchor="middle" x="948" y="-320.2" font-family="Helvetica,sans-Serif" font-size="10.00">diagonal_bernstein_real_bound</text>
</a>
</g>
</g>
<!-- n30&#45;&gt;n29 -->
<g id="edge33" class="edge">
<title>n30&#45;&gt;n29</title>
<path fill="none" stroke="#64748b" d="M911.28,-304.72C891.21,-295.16 866.21,-283.25 845.09,-273.2"/>
<polygon fill="#64748b" stroke="#64748b" points="846.24,-271.03 838.87,-270.23 844.13,-275.45 846.24,-271.03"/>
</g>
<!-- n31 -->
<g id="node24" class="node">
<title>n31</title>
<g id="a_node24"><a xlink:href="vscode://vscode-remote/wsl+Ubuntu/home/ai4stat/statlib/Statlib/HighDim/Concentration/HansonWright.lean:4000" xlink:title="theorem · Statlib/HighDim/Concentration/HansonWright.lean:4000" target="_blank">
<path fill="#ffe6a3" stroke="#d4a017" d="M922.16,-413.2C922.16,-413.2 797.84,-413.2 797.84,-413.2 791.84,-413.2 785.84,-407.2 785.84,-401.2 785.84,-401.2 785.84,-389.2 785.84,-389.2 785.84,-383.2 791.84,-377.2 797.84,-377.2 797.84,-377.2 922.16,-377.2 922.16,-377.2 928.16,-377.2 934.16,-383.2 934.16,-389.2 934.16,-389.2 934.16,-401.2 934.16,-401.2 934.16,-407.2 928.16,-413.2 922.16,-413.2"/>
<text xml:space="preserve" text-anchor="middle" x="860" y="-392.2" font-family="Helvetica,sans-Serif" font-size="10.00">diag_hanson_wright_tail_high</text>
</a>
</g>
</g>
<!-- n31&#45;&gt;n0 -->
<g id="edge34" class="edge">
<title>n31&#45;&gt;n0</title>
<path fill="none" stroke="#64748b" d="M934.62,-394.29C1054.72,-393.11 1284.23,-384.98 1351,-341.2 1396.54,-311.34 1408.18,-242.63 1411.09,-204.93"/>
<polygon fill="#64748b" stroke="#64748b" points="1413.53,-205.15 1411.53,-198 1408.64,-204.83 1413.53,-205.15"/>
</g>
<!-- n31&#45;&gt;n1 -->
<g id="edge35" class="edge">
<title>n31&#45;&gt;n1</title>
<path fill="none" stroke="#64748b" d="M785.5,-381.1C743.01,-371.95 695.74,-358.31 683,-341.2 654.34,-302.7 659.59,-275.1 683,-233.2 686.31,-227.28 690.67,-229.4 696,-225.2 733.55,-195.65 771.85,-155.41 794.52,-130.34"/>
<polygon fill="#64748b" stroke="#64748b" points="796.07,-132.28 798.92,-125.43 792.42,-129 796.07,-132.28"/>
</g>
<!-- n31&#45;&gt;n2 -->
<g id="edge36" class="edge">
<title>n31&#45;&gt;n2</title>
<path fill="none" stroke="#64748b" d="M785.57,-389.42C676.32,-381.73 478.24,-365.01 411,-341.2 354.51,-321.19 331.21,-318.4 297,-269.2 283.77,-250.17 279.43,-223.81 278.15,-204.49"/>
<polygon fill="#64748b" stroke="#64748b" points="280.61,-204.56 277.83,-197.68 275.71,-204.79 280.61,-204.56"/>
</g>
<!-- n31&#45;&gt;n6 -->
<g id="edge38" class="edge">
<title>n31&#45;&gt;n6</title>
<path fill="none" stroke="#64748b" d="M785.56,-391.47C745.51,-386.08 698.28,-372.77 668,-341.2 633.9,-305.64 658.6,-279.93 643,-233.2 639.72,-223.39 635.32,-212.92 631.18,-203.83"/>
<polygon fill="#64748b" stroke="#64748b" points="633.46,-202.92 628.28,-197.61 629.02,-204.99 633.46,-202.92"/>
</g>
<!-- n31&#45;&gt;n7 -->
<g id="edge37" class="edge">
<title>n31&#45;&gt;n7</title>
<path fill="none" stroke="#64748b" d="M934.49,-392.68C1170.62,-387.58 1889.35,-369.78 1930,-341.2 1944.18,-331.23 1937.23,-320.69 1945,-305.2 1978.62,-238.15 1970.33,-204.1 2031,-160 2086.02,-120.01 2165.9,-109.41 2217.15,-107.01"/>
<polygon fill="#64748b" stroke="#64748b" points="2217.03,-109.47 2223.92,-106.75 2216.83,-104.57 2217.03,-109.47"/>
</g>
<!-- n31&#45;&gt;n10 -->
<g id="edge39" class="edge">
<title>n31&#45;&gt;n10</title>
<path fill="none" stroke="#64748b" d="M934.54,-393.55C1164.47,-391.12 1852.75,-380.59 1945,-341.2 2009.19,-313.79 2006.84,-279.57 2059,-233.2 2070.84,-222.67 2084.24,-211.4 2095.78,-201.87"/>
<polygon fill="#64748b" stroke="#64748b" points="2097.32,-203.78 2101.17,-197.45 2094.21,-200 2097.32,-203.78"/>
</g>
<!-- n31&#45;&gt;n12 -->
<g id="edge40" class="edge">
<title>n31&#45;&gt;n12</title>
<path fill="none" stroke="#64748b" d="M785.52,-394.52C605.85,-394.51 160.04,-389.56 115,-341.2 98.53,-323.52 110.54,-296.1 123.36,-276.37"/>
<polygon fill="#64748b" stroke="#64748b" points="125.29,-277.89 127.21,-270.73 121.24,-275.13 125.29,-277.89"/>
</g>
<!-- n31&#45;&gt;n13 -->
<g id="edge41" class="edge">
<title>n31&#45;&gt;n13</title>
<path fill="none" stroke="#64748b" d="M785.41,-389.37C675.09,-381.77 462.02,-365.35 282,-341.2 273.67,-340.08 264.97,-338.76 256.34,-337.35"/>
<polygon fill="#64748b" stroke="#64748b" points="256.91,-334.96 249.6,-336.23 256.1,-339.8 256.91,-334.96"/>
</g>
<!-- n31&#45;&gt;n15 -->
<g id="edge43" class="edge">
<title>n31&#45;&gt;n15</title>
<path fill="none" stroke="#64748b" d="M838.25,-376.9C826.82,-367.81 812.69,-356.56 800.41,-346.8"/>
<polygon fill="#64748b" stroke="#64748b" points="802,-344.93 794.99,-342.49 798.95,-348.76 802,-344.93"/>
</g>
<!-- n31&#45;&gt;n24 -->
<g id="edge44" class="edge">
<title>n31&#45;&gt;n24</title>
<path fill="none" stroke="#64748b" d="M934.37,-378.75C984.61,-368.32 1051.29,-354.47 1104.89,-343.33"/>
<polygon fill="#64748b" stroke="#64748b" points="1105.2,-345.77 1111.56,-341.95 1104.2,-340.97 1105.2,-345.77"/>
</g>
<!-- n31&#45;&gt;n27 -->
<g id="edge46" class="edge">
<title>n31&#45;&gt;n27</title>
<path fill="none" stroke="#64748b" d="M785.35,-377.61C739.26,-367.37 679.93,-354.19 631.76,-343.48"/>
<polygon fill="#64748b" stroke="#64748b" points="632.35,-341.1 624.99,-341.98 631.29,-345.89 632.35,-341.1"/>
</g>
<!-- n31&#45;&gt;n28 -->
<g id="edge47" class="edge">
<title>n31&#45;&gt;n28</title>
<path fill="none" stroke="#64748b" d="M785.58,-392.23C682.14,-388.23 501.46,-376.3 447,-341.2 423.95,-326.35 408.96,-298.06 400.54,-277.35"/>
<polygon fill="#64748b" stroke="#64748b" points="402.88,-276.62 398.07,-270.97 398.31,-278.38 402.88,-276.62"/>
</g>
<!-- n31&#45;&gt;n30 -->
<g id="edge48" class="edge">
<title>n31&#45;&gt;n30</title>
<path fill="none" stroke="#64748b" d="M881.75,-376.9C893.18,-367.81 907.31,-356.56 919.59,-346.8"/>
<polygon fill="#64748b" stroke="#64748b" points="921.05,-348.76 925.01,-342.49 918,-344.93 921.05,-348.76"/>
</g>
<!-- n31&#45;&gt;n14 -->
<g id="edge42" class="edge">
<title>n31&#45;&gt;n14</title>
<path fill="none" stroke="#64748b" d="M934.29,-392.84C1209.69,-387.61 2172.11,-367.82 2478,-341.2 2843.81,-309.36 3011.67,-457.55 3296,-225.2 3323.85,-202.44 3333.24,-159.87 3336.41,-132.51"/>
<polygon fill="#64748b" stroke="#64748b" points="3338.83,-132.91 3337.08,-125.71 3333.95,-132.43 3338.83,-132.91"/>
</g>
<!-- n25 -->
<g id="node41" class="node">
<title>n25</title>
<g id="a_node41"><a xlink:href="vscode://vscode-remote/wsl+Ubuntu/home/ai4stat/statlib/Statlib/StatFoundation/Concentration/ExponentialType/bernstein_sum_meas_abs_ge_le_two_exp.lean:13" xlink:title="theorem · Statlib/StatFoundation/Concentration/ExponentialType/bernstein_sum_meas_abs_ge_le_two_exp.lean:13" target="_blank">
<path fill="#ffe6a3" stroke="#d4a017" d="M3230.06,-196C3230.06,-196 3047.94,-196 3047.94,-196 3041.94,-196 3035.94,-190 3035.94,-184 3035.94,-184 3035.94,-172 3035.94,-172 3035.94,-166 3041.94,-160 3047.94,-160 3047.94,-160 3230.06,-160 3230.06,-160 3236.06,-160 3242.06,-166 3242.06,-172 3242.06,-172 3242.06,-184 3242.06,-184 3242.06,-190 3236.06,-196 3230.06,-196"/>
<text xml:space="preserve" text-anchor="middle" x="3139" y="-175" font-family="Helvetica,sans-Serif" font-size="10.00">bernstein_sum_meas_abs_ge_le_two_exp</text>
</a>
</g>
</g>
<!-- n31&#45;&gt;n25 -->
<g id="edge45" class="edge">
<title>n31&#45;&gt;n25</title>
<path fill="none" stroke="#64748b" d="M934.62,-392.57C1188.12,-386.84 2015.09,-366.62 2280,-341.2 2614.44,-309.1 2703.43,-315.67 3027,-225.2 3050.17,-218.72 3075,-208.81 3095.37,-199.82"/>
<polygon fill="#64748b" stroke="#64748b" points="3096.18,-202.15 3101.57,-197.05 3094.18,-197.67 3096.18,-202.15"/>
</g>
<!-- n32 -->
<g id="node25" class="node">
<title>n32</title>
<g id="a_node25"><a xlink:href="vscode://vscode-remote/wsl+Ubuntu/home/ai4stat/statlib/Statlib/HighDim/Concentration/HansonWright.lean:1297" xlink:title="lemma · Statlib/HighDim/Concentration/HansonWright.lean:1297" target="_blank">
<path fill="#eef2f6" stroke="#94a3b8" d="M1869.34,-269.2C1869.34,-269.2 1706.66,-269.2 1706.66,-269.2 1700.66,-269.2 1694.66,-263.2 1694.66,-257.2 1694.66,-257.2 1694.66,-245.2 1694.66,-245.2 1694.66,-239.2 1700.66,-233.2 1706.66,-233.2 1706.66,-233.2 1869.34,-233.2 1869.34,-233.2 1875.34,-233.2 1881.34,-239.2 1881.34,-245.2 1881.34,-245.2 1881.34,-257.2 1881.34,-257.2 1881.34,-263.2 1875.34,-269.2 1869.34,-269.2"/>
<text xml:space="preserve" text-anchor="middle" x="1788" y="-248.2" font-family="Helvetica,sans-Serif" font-size="10.00">coord_mul_integral_eq_zero_of_indep</text>
</a>
</g>
</g>
<!-- n32&#45;&gt;n0 -->
<g id="edge49" class="edge">
<title>n32&#45;&gt;n0</title>
<path fill="none" stroke="#64748b" d="M1696.02,-232.78C1616.86,-217.79 1506.66,-196.92 1449.59,-186.12"/>
<polygon fill="#64748b" stroke="#64748b" points="1450.39,-183.78 1443.06,-184.88 1449.48,-188.59 1450.39,-183.78"/>
</g>
<!-- n33 -->
<g id="node26" class="node">
<title>n33</title>
<g id="a_node26"><a xlink:href="vscode://vscode-remote/wsl+Ubuntu/home/ai4stat/statlib/Statlib/HighDim/Concentration/HansonWright.lean:1331" xlink:title="lemma · Statlib/HighDim/Concentration/HansonWright.lean:1331" target="_blank">
<path fill="#eef2f6" stroke="#94a3b8" d="M1908.73,-341.2C1908.73,-341.2 1713.27,-341.2 1713.27,-341.2 1707.27,-341.2 1701.27,-335.2 1701.27,-329.2 1701.27,-329.2 1701.27,-317.2 1701.27,-317.2 1701.27,-311.2 1707.27,-305.2 1713.27,-305.2 1713.27,-305.2 1908.73,-305.2 1908.73,-305.2 1914.73,-305.2 1920.73,-311.2 1920.73,-317.2 1920.73,-317.2 1920.73,-329.2 1920.73,-329.2 1920.73,-335.2 1914.73,-341.2 1908.73,-341.2"/>
<text xml:space="preserve" text-anchor="middle" x="1811" y="-320.2" font-family="Helvetica,sans-Serif" font-size="10.00">offDiagQuadForm_integral_eq_zero_of_indep</text>
</a>
</g>
</g>
<!-- n33&#45;&gt;n0 -->
<g id="edge50" class="edge">
<title>n33&#45;&gt;n0</title>
<path fill="none" stroke="#64748b" d="M1852.1,-304.85C1866.8,-296.39 1881.76,-284.65 1890,-269.2 1897.53,-255.08 1900.66,-245.13 1890,-233.2 1860.82,-200.52 1558.38,-185 1450.21,-180.47"/>
<polygon fill="#64748b" stroke="#64748b" points="1450.46,-178.02 1443.37,-180.18 1450.26,-182.92 1450.46,-178.02"/>
</g>
<!-- n33&#45;&gt;n3 -->
<g id="edge51" class="edge">
<title>n33&#45;&gt;n3</title>
<path fill="none" stroke="#64748b" d="M1851.69,-304.92C1868,-296.25 1885.78,-284.34 1898,-269.2 1930.28,-229.22 1913.22,-206.06 1936,-160 1940.81,-150.27 1947.1,-140.19 1953.01,-131.46"/>
<polygon fill="#64748b" stroke="#64748b" points="1955.01,-132.88 1956.99,-125.73 1950.99,-130.08 1955.01,-132.88"/>
</g>
<!-- n33&#45;&gt;n8 -->
<g id="edge52" class="edge">
<title>n33&#45;&gt;n8</title>
<path fill="none" stroke="#64748b" d="M1753.55,-304.72C1720.91,-294.78 1679.93,-282.31 1646.1,-272.01"/>
<polygon fill="#64748b" stroke="#64748b" points="1646.97,-269.72 1639.56,-270.02 1645.54,-274.4 1646.97,-269.72"/>
</g>
<!-- n33&#45;&gt;n32 -->
<g id="edge53" class="edge">
<title>n33&#45;&gt;n32</title>
<path fill="none" stroke="#64748b" d="M1805.31,-304.9C1802.59,-296.59 1799.26,-286.48 1796.26,-277.34"/>
<polygon fill="#64748b" stroke="#64748b" points="1798.61,-276.63 1794.09,-270.74 1793.95,-278.16 1798.61,-276.63"/>
</g>
<!-- n34 -->
<g id="node27" class="node">
<title>n34</title>
<g id="a_node27"><a xlink:href="vscode://vscode-remote/wsl+Ubuntu/home/ai4stat/statlib/Statlib/HighDim/Concentration/HansonWright.lean:1376" xlink:title="lemma · Statlib/HighDim/Concentration/HansonWright.lean:1376" target="_blank">
<path fill="#eef2f6" stroke="#94a3b8" d="M1847.85,-413.2C1847.85,-413.2 1650.15,-413.2 1650.15,-413.2 1644.15,-413.2 1638.15,-407.2 1638.15,-401.2 1638.15,-401.2 1638.15,-389.2 1638.15,-389.2 1638.15,-383.2 1644.15,-377.2 1650.15,-377.2 1650.15,-377.2 1847.85,-377.2 1847.85,-377.2 1853.85,-377.2 1859.85,-383.2 1859.85,-389.2 1859.85,-389.2 1859.85,-401.2 1859.85,-401.2 1859.85,-407.2 1853.85,-413.2 1847.85,-413.2"/>
<text xml:space="preserve" text-anchor="middle" x="1749" y="-392.2" font-family="Helvetica,sans-Serif" font-size="10.00">offDiagQuadForm_centered_eq_self_of_indep</text>
</a>
</g>
</g>
<!-- n34&#45;&gt;n0 -->
<g id="edge54" class="edge">
<title>n34&#45;&gt;n0</title>
<path fill="none" stroke="#64748b" d="M1637.66,-391.33C1553.15,-386.53 1446.9,-373.94 1419,-341.2 1408.62,-329.02 1416.44,-320.99 1419,-305.2 1421.7,-288.55 1428.3,-285.85 1431,-269.2 1433.56,-253.41 1433.68,-248.97 1431,-233.2 1429.33,-223.42 1426.09,-213.05 1422.75,-204.03"/>
<polygon fill="#64748b" stroke="#64748b" points="1425.07,-203.22 1420.25,-197.59 1420.5,-205 1425.07,-203.22"/>
</g>
<!-- n34&#45;&gt;n3 -->
<g id="edge55" class="edge">
<title>n34&#45;&gt;n3</title>
<path fill="none" stroke="#64748b" d="M1859.93,-382.72C1886.3,-374.83 1911.98,-361.98 1930,-341.2 1983.29,-279.73 1939.11,-239.58 1956,-160 1957.96,-150.78 1960.63,-140.81 1963.18,-132.03"/>
<polygon fill="#64748b" stroke="#64748b" points="1965.47,-132.9 1965.12,-125.49 1960.78,-131.5 1965.47,-132.9"/>
</g>
<!-- n34&#45;&gt;n33 -->
<g id="edge56" class="edge">
<title>n34&#45;&gt;n33</title>
<path fill="none" stroke="#64748b" d="M1764.33,-376.9C1772.13,-368.08 1781.74,-357.23 1790.21,-347.67"/>
<polygon fill="#64748b" stroke="#64748b" points="1792.04,-349.3 1794.85,-342.44 1788.37,-346.05 1792.04,-349.3"/>
</g>
<!-- n35 -->
<g id="node28" class="node">
<title>n35</title>
<g id="a_node28"><a xlink:href="vscode://vscode-remote/wsl+Ubuntu/home/ai4stat/statlib/Statlib/HighDim/Concentration/HansonWright.lean:284" xlink:title="lemma · Statlib/HighDim/Concentration/HansonWright.lean:284" target="_blank">
<path fill="#eef2f6" stroke="#94a3b8" d="M2434.28,-196C2434.28,-196 2297.72,-196 2297.72,-196 2291.72,-196 2285.72,-190 2285.72,-184 2285.72,-184 2285.72,-172 2285.72,-172 2285.72,-166 2291.72,-160 2297.72,-160 2297.72,-160 2434.28,-160 2434.28,-160 2440.28,-160 2446.28,-166 2446.28,-172 2446.28,-172 2446.28,-184 2446.28,-184 2446.28,-190 2440.28,-196 2434.28,-196"/>
<text xml:space="preserve" text-anchor="middle" x="2366" y="-175" font-family="Helvetica,sans-Serif" font-size="10.00">quadForm_eq_diag_add_offdiag</text>
</a>
</g>
</g>
<!-- n35&#45;&gt;n3 -->
<g id="edge59" class="edge">
<title>n35&#45;&gt;n3</title>
<path fill="none" stroke="#64748b" d="M2285.59,-162.75C2208.64,-149.11 2094.58,-128.9 2027.01,-116.93"/>
<polygon fill="#64748b" stroke="#64748b" points="2027.82,-114.58 2020.5,-115.77 2026.97,-119.41 2027.82,-114.58"/>
</g>
<!-- n35&#45;&gt;n4 -->
<g id="edge57" class="edge">
<title>n35&#45;&gt;n4</title>
<path fill="none" stroke="#64748b" d="M2395.72,-159.52C2411.74,-150.09 2431.65,-138.38 2448.6,-128.41"/>
<polygon fill="#64748b" stroke="#64748b" points="2449.56,-130.69 2454.35,-125.03 2447.08,-126.47 2449.56,-130.69"/>
</g>
<!-- n35&#45;&gt;n7 -->
<g id="edge58" class="edge">
<title>n35&#45;&gt;n7</title>
<path fill="none" stroke="#64748b" d="M2341.27,-159.52C2328.18,-150.26 2311.97,-138.8 2298.04,-128.95"/>
<polygon fill="#64748b" stroke="#64748b" points="2299.78,-127.18 2292.65,-125.13 2296.95,-131.18 2299.78,-127.18"/>
</g>
<!-- n36 -->
<g id="node29" class="node">
<title>n36</title>
<g id="a_node29"><a xlink:href="vscode://vscode-remote/wsl+Ubuntu/home/ai4stat/statlib/Statlib/HighDim/Concentration/HansonWright.lean:343" xlink:title="lemma · Statlib/HighDim/Concentration/HansonWright.lean:343" target="_blank">
<path fill="#eef2f6" stroke="#94a3b8" d="M2453.63,-269.2C2453.63,-269.2 2250.37,-269.2 2250.37,-269.2 2244.37,-269.2 2238.37,-263.2 2238.37,-257.2 2238.37,-257.2 2238.37,-245.2 2238.37,-245.2 2238.37,-239.2 2244.37,-233.2 2250.37,-233.2 2250.37,-233.2 2453.63,-233.2 2453.63,-233.2 2459.63,-233.2 2465.63,-239.2 2465.63,-245.2 2465.63,-245.2 2465.63,-257.2 2465.63,-257.2 2465.63,-263.2 2459.63,-269.2 2453.63,-269.2"/>
<text xml:space="preserve" text-anchor="middle" x="2352" y="-248.2" font-family="Helvetica,sans-Serif" font-size="10.00">quadForm_centered_eq_diag_offdiag_centered</text>
</a>
</g>
</g>
<!-- n36&#45;&gt;n3 -->
<g id="edge61" class="edge">
<title>n36&#45;&gt;n3</title>
<path fill="none" stroke="#64748b" d="M2267,-232.78C2262.78,-230.55 2258.74,-228.03 2255,-225.2 2228.25,-204.96 2244.15,-179.7 2217,-160 2161.28,-119.57 2080.96,-108.83 2027.42,-106.55"/>
<polygon fill="#64748b" stroke="#64748b" points="2027.67,-104.11 2020.58,-106.31 2027.49,-109.01 2027.67,-104.11"/>
</g>
<!-- n36&#45;&gt;n4 -->
<g id="edge62" class="edge">
<title>n36&#45;&gt;n4</title>
<path fill="none" stroke="#64748b" d="M2445.64,-232.86C2448.98,-230.59 2452.12,-228.05 2455,-225.2 2468,-212.34 2477.12,-163.01 2481.67,-132.28"/>
<polygon fill="#64748b" stroke="#64748b" points="2484.05,-132.93 2482.62,-125.66 2479.2,-132.24 2484.05,-132.93"/>
</g>
<!-- n36&#45;&gt;n7 -->
<g id="edge60" class="edge">
<title>n36&#45;&gt;n7</title>
<path fill="none" stroke="#64748b" d="M2284.51,-232.71C2281.74,-230.5 2279.21,-228 2277,-225.2 2256.4,-199.03 2257.84,-158.75 2261.69,-132.64"/>
<polygon fill="#64748b" stroke="#64748b" points="2264.09,-133.16 2262.81,-125.86 2259.25,-132.36 2264.09,-133.16"/>
</g>
<!-- n36&#45;&gt;n35 -->
<g id="edge63" class="edge">
<title>n36&#45;&gt;n35</title>
<path fill="none" stroke="#64748b" d="M2355.39,-232.96C2357.07,-224.39 2359.14,-213.87 2361.01,-204.39"/>
<polygon fill="#64748b" stroke="#64748b" points="2363.4,-204.9 2362.35,-197.56 2358.6,-203.96 2363.4,-204.9"/>
</g>
<!-- n37 -->
<g id="node30" class="node">
<title>n37</title>
<g id="a_node30"><a xlink:href="vscode://vscode-remote/wsl+Ubuntu/home/ai4stat/statlib/Statlib/HighDim/Concentration/HansonWright.lean:1780" xlink:title="lemma · Statlib/HighDim/Concentration/HansonWright.lean:1780" target="_blank">
<path fill="#eef2f6" stroke="#94a3b8" d="M2208.55,-269.2C2208.55,-269.2 2091.45,-269.2 2091.45,-269.2 2085.45,-269.2 2079.45,-263.2 2079.45,-257.2 2079.45,-257.2 2079.45,-245.2 2079.45,-245.2 2079.45,-239.2 2085.45,-233.2 2091.45,-233.2 2091.45,-233.2 2208.55,-233.2 2208.55,-233.2 2214.55,-233.2 2220.55,-239.2 2220.55,-245.2 2220.55,-245.2 2220.55,-257.2 2220.55,-257.2 2220.55,-263.2 2214.55,-269.2 2208.55,-269.2"/>
<text xml:space="preserve" text-anchor="middle" x="2150" y="-248.2" font-family="Helvetica,sans-Serif" font-size="10.00">abs_add_event_subset_half</text>
</a>
</g>
</g>
<!-- n38 -->
<g id="node31" class="node">
<title>n38</title>
<g id="a_node31"><a xlink:href="vscode://vscode-remote/wsl+Ubuntu/home/ai4stat/statlib/Statlib/HighDim/Concentration/HansonWright.lean:1797" xlink:title="lemma · Statlib/HighDim/Concentration/HansonWright.lean:1797" target="_blank">
<path fill="#eef2f6" stroke="#94a3b8" d="M2259.07,-341.2C2259.07,-341.2 2066.93,-341.2 2066.93,-341.2 2060.93,-341.2 2054.93,-335.2 2054.93,-329.2 2054.93,-329.2 2054.93,-317.2 2054.93,-317.2 2054.93,-311.2 2060.93,-305.2 2066.93,-305.2 2066.93,-305.2 2259.07,-305.2 2259.07,-305.2 2265.07,-305.2 2271.07,-311.2 2271.07,-317.2 2271.07,-317.2 2271.07,-329.2 2271.07,-329.2 2271.07,-335.2 2265.07,-341.2 2259.07,-341.2"/>
<text xml:space="preserve" text-anchor="middle" x="2163" y="-320.2" font-family="Helvetica,sans-Serif" font-size="10.00">quadForm_centered_tail_le_diag_offdiag_tail</text>
</a>
</g>
</g>
<!-- n38&#45;&gt;n3 -->
<g id="edge65" class="edge">
<title>n38&#45;&gt;n3</title>
<path fill="none" stroke="#64748b" d="M2116.2,-304.78C2097.02,-296.09 2075.5,-284.19 2059,-269.2 2016.75,-230.8 1990.68,-167.26 1978.73,-132.19"/>
<polygon fill="#64748b" stroke="#64748b" points="1981.13,-131.64 1976.61,-125.77 1976.48,-133.18 1981.13,-131.64"/>
</g>
<!-- n38&#45;&gt;n4 -->
<g id="edge66" class="edge">
<title>n38&#45;&gt;n4</title>
<path fill="none" stroke="#64748b" d="M2271.46,-317.78C2350.48,-312.08 2448.19,-299.03 2475,-269.2 2508.69,-231.7 2500.23,-167.54 2492.04,-132.19"/>
<polygon fill="#64748b" stroke="#64748b" points="2494.5,-131.96 2490.45,-125.75 2489.74,-133.13 2494.5,-131.96"/>
</g>
<!-- n38&#45;&gt;n7 -->
<g id="edge64" class="edge">
<title>n38&#45;&gt;n7</title>
<path fill="none" stroke="#64748b" d="M2111.4,-304.8C2095.25,-296.64 2079.24,-285.11 2070,-269.2 2061.96,-255.37 2059,-244.82 2070,-233.2 2081.25,-221.32 2203.62,-234.6 2217,-225.2 2232.9,-214.03 2250.34,-163.21 2259.85,-131.96"/>
<polygon fill="#64748b" stroke="#64748b" points="2262.11,-132.95 2261.76,-125.54 2257.41,-131.55 2262.11,-132.95"/>
</g>
<!-- n38&#45;&gt;n36 -->
<g id="edge67" class="edge">
<title>n38&#45;&gt;n36</title>
<path fill="none" stroke="#64748b" d="M2210.21,-304.72C2236.58,-294.95 2269.57,-282.73 2297.09,-272.54"/>
<polygon fill="#64748b" stroke="#64748b" points="2297.94,-274.84 2303.65,-270.11 2296.23,-270.24 2297.94,-274.84"/>
</g>
<!-- n38&#45;&gt;n37 -->
<g id="edge68" class="edge">
<title>n38&#45;&gt;n37</title>
<path fill="none" stroke="#64748b" d="M2159.79,-304.9C2158.26,-296.67 2156.4,-286.68 2154.72,-277.62"/>
<polygon fill="#64748b" stroke="#64748b" points="2157.14,-277.23 2153.45,-270.79 2152.32,-278.12 2157.14,-277.23"/>
</g>
<!-- n39 -->
<g id="node32" class="node">
<title>n39</title>
<g id="a_node32"><a xlink:href="vscode://vscode-remote/wsl+Ubuntu/home/ai4stat/statlib/Statlib/HighDim/Concentration/HansonWright.lean:1847" xlink:title="lemma · Statlib/HighDim/Concentration/HansonWright.lean:1847" target="_blank">
<path fill="#eef2f6" stroke="#94a3b8" d="M2318.6,-413.2C2318.6,-413.2 2031.4,-413.2 2031.4,-413.2 2025.4,-413.2 2019.4,-407.2 2019.4,-401.2 2019.4,-401.2 2019.4,-389.2 2019.4,-389.2 2019.4,-383.2 2025.4,-377.2 2031.4,-377.2 2031.4,-377.2 2318.6,-377.2 2318.6,-377.2 2324.6,-377.2 2330.6,-383.2 2330.6,-389.2 2330.6,-389.2 2330.6,-401.2 2330.6,-401.2 2330.6,-407.2 2324.6,-413.2 2318.6,-413.2"/>
<text xml:space="preserve" text-anchor="middle" x="2175" y="-392.2" font-family="Helvetica,sans-Serif" font-size="10.00">quadForm_centered_tail_le_two_mul_of_diag_offdiag_tail_bounds</text>
</a>
</g>
</g>
<!-- n39&#45;&gt;n3 -->
<g id="edge70" class="edge">
<title>n39&#45;&gt;n3</title>
<path fill="none" stroke="#64748b" d="M2107.9,-376.75C2086.27,-368.63 2063.41,-357.15 2046,-341.2 1985.39,-285.68 1973.53,-181.22 1971.37,-132.82"/>
<polygon fill="#64748b" stroke="#64748b" points="1973.82,-132.88 1971.12,-125.97 1968.93,-133.06 1973.82,-132.88"/>
</g>
<!-- n39&#45;&gt;n4 -->
<g id="edge71" class="edge">
<title>n39&#45;&gt;n4</title>
<path fill="none" stroke="#64748b" d="M2330.79,-376.73C2362.11,-368.88 2393.74,-357.54 2421,-341.2 2456.97,-319.63 2467.2,-308.44 2482,-269.2 2499.25,-223.48 2494.49,-165.23 2489.64,-132.44"/>
<polygon fill="#64748b" stroke="#64748b" points="2492.1,-132.31 2488.59,-125.78 2487.26,-133.07 2492.1,-132.31"/>
</g>
<!-- n39&#45;&gt;n7 -->
<g id="edge69" class="edge">
<title>n39&#45;&gt;n7</title>
<path fill="none" stroke="#64748b" d="M2294.95,-376.77C2359.94,-360.54 2434.94,-329.29 2475,-269.2 2492.09,-243.56 2460.15,-165.19 2455,-160 2418.81,-123.51 2359.57,-111.65 2317.27,-108.05"/>
<polygon fill="#64748b" stroke="#64748b" points="2317.45,-105.6 2310.29,-107.53 2317.09,-110.49 2317.45,-105.6"/>
</g>
<!-- n39&#45;&gt;n38 -->
<g id="edge72" class="edge">
<title>n39&#45;&gt;n38</title>
<path fill="none" stroke="#64748b" d="M2172.03,-376.9C2170.62,-368.67 2168.91,-358.68 2167.36,-349.62"/>
<polygon fill="#64748b" stroke="#64748b" points="2169.79,-349.28 2166.19,-342.8 2164.96,-350.11 2169.79,-349.28"/>
</g>
<!-- n40 -->
<g id="node33" class="node">
<title>n40</title>
<g id="a_node33"><a xlink:href="vscode://vscode-remote/wsl+Ubuntu/home/ai4stat/statlib/Statlib/HighDim/Concentration/HansonWright.lean:4231" xlink:title="theorem · Statlib/HighDim/Concentration/HansonWright.lean:4231" target="_blank">
<path fill="#ffe6a3" stroke="#d4a017" stroke-width="3" d="M1639.84,-485.2C1639.84,-485.2 1472.16,-485.2 1472.16,-485.2 1466.16,-485.2 1460.16,-479.2 1460.16,-473.2 1460.16,-473.2 1460.16,-461.2 1460.16,-461.2 1460.16,-455.2 1466.16,-449.2 1472.16,-449.2 1472.16,-449.2 1639.84,-449.2 1639.84,-449.2 1645.84,-449.2 1651.84,-455.2 1651.84,-461.2 1651.84,-461.2 1651.84,-473.2 1651.84,-473.2 1651.84,-479.2 1645.84,-485.2 1639.84,-485.2"/>
<text xml:space="preserve" text-anchor="middle" x="1556" y="-464.2" font-family="Helvetica,sans-Serif" font-size="10.00">hanson_wright_tail_high_of_offdiag_tail</text>
</a>
</g>
</g>
<!-- n40&#45;&gt;n0 -->
<g id="edge73" class="edge">
<title>n40&#45;&gt;n0</title>
<path fill="none" stroke="#64748b" d="M1520.54,-447.88C1485.06,-427.32 1432.6,-390.3 1410,-341.2 1407.21,-335.13 1409.66,-248.86 1411.11,-204.68"/>
<polygon fill="#64748b" stroke="#64748b" points="1413.55,-205.03 1411.33,-197.96 1408.65,-204.87 1413.55,-205.03"/>
</g>
<!-- n40&#45;&gt;n1 -->
<g id="edge74" class="edge">
<title>n40&#45;&gt;n1</title>
<path fill="none" stroke="#64748b" d="M1458.78,-465.17C1164.26,-461.66 294.56,-448.41 172,-413.2 95.65,-391.27 17,-403.64 17,-324.2 17,-324.2 17,-324.2 17,-250.2 17,-203.48 31.06,-184.25 71,-160 127.8,-125.5 601.8,-129.82 668,-124 694.9,-121.64 724.5,-118.35 750.04,-115.29"/>
<polygon fill="#64748b" stroke="#64748b" points="750.02,-117.76 756.68,-114.49 749.44,-112.9 750.02,-117.76"/>
</g>
<!-- n40&#45;&gt;n2 -->
<g id="edge75" class="edge">
<title>n40&#45;&gt;n2</title>
<path fill="none" stroke="#64748b" d="M1458.9,-465.19C1274.55,-462.4 861.4,-451.96 516,-413.2 330.84,-392.42 262.7,-437.18 103,-341.2 56.66,-313.35 9.7,-272.34 47,-233.2 59.74,-219.83 195.55,-231.24 213,-225.2 227.66,-220.13 241.93,-210.65 253.35,-201.59"/>
<polygon fill="#64748b" stroke="#64748b" points="254.71,-203.65 258.56,-197.31 251.6,-199.86 254.71,-203.65"/>
</g>
<!-- n40&#45;&gt;n3 -->
<g id="edge76" class="edge">
<title>n40&#45;&gt;n3</title>
<path fill="none" stroke="#64748b" d="M1653.22,-464.13C1717.38,-459.39 1801.71,-446.52 1869,-413.2 1910.99,-392.41 1923.04,-382.04 1946,-341.2 1962.02,-312.71 1956.65,-301.6 1961,-269.2 1967.45,-221.15 1969.75,-164.52 1970.56,-132.48"/>
<polygon fill="#64748b" stroke="#64748b" points="1973.01,-132.69 1970.72,-125.64 1968.11,-132.58 1973.01,-132.69"/>
</g>
<!-- n40&#45;&gt;n4 -->
<g id="edge77" class="edge">
<title>n40&#45;&gt;n4</title>
<path fill="none" stroke="#64748b" d="M1653.18,-464.5C1840.03,-460.47 2242.79,-447.94 2377,-413.2 2466.5,-390.03 2565,-416.65 2565,-324.2 2565,-324.2 2565,-324.2 2565,-250.2 2565,-203.01 2531.48,-156.91 2507.83,-130.26"/>
<polygon fill="#64748b" stroke="#64748b" points="2509.9,-128.89 2503.38,-125.36 2506.27,-132.19 2509.9,-128.89"/>
</g>
<!-- n40&#45;&gt;n6 -->
<g id="edge78" class="edge">
<title>n40&#45;&gt;n6</title>
<path fill="none" stroke="#64748b" d="M1458.76,-463.53C1310.94,-458.58 1021.09,-445.38 777,-413.2 612.64,-391.53 565.03,-402.5 411,-341.2 355.32,-319.04 325.93,-321.68 297,-269.2 289.28,-255.19 286.67,-245.42 297,-233.2 299,-230.84 448.16,-206.47 542.74,-191.22"/>
<polygon fill="#64748b" stroke="#64748b" points="542.85,-193.69 549.37,-190.15 542.07,-188.85 542.85,-193.69"/>
</g>
<!-- n40&#45;&gt;n7 -->
<g id="edge79" class="edge">
<title>n40&#45;&gt;n7</title>
<path fill="none" stroke="#64748b" d="M1652.98,-463.15C1848.81,-456.5 2278.16,-439.13 2340,-413.2 2456.84,-364.2 2555.77,-254.17 2471,-160 2450.61,-137.35 2370.37,-121.73 2316.81,-113.59"/>
<polygon fill="#64748b" stroke="#64748b" points="2317.24,-111.18 2309.95,-112.57 2316.52,-116.02 2317.24,-111.18"/>
</g>
<!-- n40&#45;&gt;n9 -->
<g id="edge80" class="edge">
<title>n40&#45;&gt;n9</title>
<path fill="none" stroke="#64748b" d="M1556,-447.93C1556,-422.95 1556,-378.01 1556,-349.72"/>
<polygon fill="#64748b" stroke="#64748b" points="1558.45,-350.03 1556,-343.03 1553.55,-350.03 1558.45,-350.03"/>
</g>
<!-- n40&#45;&gt;n31 -->
<g id="edge81" class="edge">
<title>n40&#45;&gt;n31</title>
<path fill="none" stroke="#64748b" d="M1458.86,-456.43C1321.32,-442.6 1072.21,-417.54 942.9,-404.54"/>
<polygon fill="#64748b" stroke="#64748b" points="943.28,-402.11 936.07,-403.85 942.79,-406.99 943.28,-402.11"/>
</g>
<!-- n40&#45;&gt;n34 -->
<g id="edge82" class="edge">
<title>n40&#45;&gt;n34</title>
<path fill="none" stroke="#64748b" d="M1606.96,-447.72C1633.49,-438.09 1665.98,-426.31 1693.18,-416.44"/>
<polygon fill="#64748b" stroke="#64748b" points="1693.91,-418.79 1699.65,-414.1 1692.24,-414.18 1693.91,-418.79"/>
</g>
<!-- n40&#45;&gt;n39 -->
<g id="edge83" class="edge">
<title>n40&#45;&gt;n39</title>
<path fill="none" stroke="#64748b" d="M1653.06,-455.22C1749.17,-444.36 1898.1,-427.51 2012.31,-414.6"/>
<polygon fill="#64748b" stroke="#64748b" points="2012.29,-417.07 2018.97,-413.85 2011.74,-412.2 2012.29,-417.07"/>
</g>
<!-- n16 -->
<g id="node35" class="node">
<title>n16</title>
<g id="a_node35"><a xlink:href="vscode://vscode-remote/wsl+Ubuntu/home/ai4stat/statlib/Statlib/StatFoundation/RandomVariable/SubGaussian/subgaussian_meas_abs_ge_le_two_exp.lean:9" xlink:title="theorem · Statlib/StatFoundation/RandomVariable/SubGaussian/subgaussian_meas_abs_ge_le_two_exp.lean:9" target="_blank">
<path fill="#ffe6a3" stroke="#d4a017" d="M2896.34,-52C2896.34,-52 2723.66,-52 2723.66,-52 2717.66,-52 2711.66,-46 2711.66,-40 2711.66,-40 2711.66,-28 2711.66,-28 2711.66,-22 2717.66,-16 2723.66,-16 2723.66,-16 2896.34,-16 2896.34,-16 2902.34,-16 2908.34,-22 2908.34,-28 2908.34,-28 2908.34,-40 2908.34,-40 2908.34,-46 2902.34,-52 2896.34,-52"/>
<text xml:space="preserve" text-anchor="middle" x="2810" y="-31" font-family="Helvetica,sans-Serif" font-size="10.00">subgaussian_meas_abs_ge_le_two_exp</text>
</a>
</g>
</g>
<!-- n17&#45;&gt;n16 -->
<g id="edge10" class="edge">
<title>n17&#45;&gt;n16</title>
<path fill="none" stroke="#64748b" d="M2727.47,-87.52C2742.15,-78.18 2760.36,-66.59 2775.93,-56.68"/>
<polygon fill="#64748b" stroke="#64748b" points="2777.01,-58.9 2781.6,-53.07 2774.38,-54.76 2777.01,-58.9"/>
</g>
<!-- n19 -->
<g id="node37" class="node">
<title>n19</title>
<g id="a_node37"><a xlink:href="vscode://vscode-remote/wsl+Ubuntu/home/ai4stat/statlib/Statlib/StatFoundation/RandomVariable/SubExponential/subexp_mgf_le_of_sq_subgaussian.lean:13" xlink:title="lemma · Statlib/StatFoundation/RandomVariable/SubExponential/subexp_mgf_le_of_sq_subgaussian.lean:13" target="_blank">
<path fill="#eef2f6" stroke="#94a3b8" d="M3245.2,-124C3245.2,-124 3164.8,-124 3164.8,-124 3158.8,-124 3152.8,-118 3152.8,-112 3152.8,-112 3152.8,-100 3152.8,-100 3152.8,-94 3158.8,-88 3164.8,-88 3164.8,-88 3245.2,-88 3245.2,-88 3251.2,-88 3257.2,-94 3257.2,-100 3257.2,-100 3257.2,-112 3257.2,-112 3257.2,-118 3251.2,-124 3245.2,-124"/>
<text xml:space="preserve" text-anchor="middle" x="3205" y="-103" font-family="Helvetica,sans-Serif" font-size="10.00">sub_gauss_tail_abs</text>
</a>
</g>
</g>
<!-- n20 -->
<g id="node38" class="node">
<title>n20</title>
<g id="a_node38"><a xlink:href="vscode://vscode-remote/wsl+Ubuntu/home/ai4stat/statlib/Statlib/StatFoundation/RandomVariable/SubGaussian/sq_le_two_mul_exp.lean:10" xlink:title="lemma · Statlib/StatFoundation/RandomVariable/SubGaussian/sq_le_two_mul_exp.lean:10" target="_blank">
<path fill="#eef2f6" stroke="#94a3b8" d="M3123.19,-124C3123.19,-124 3042.81,-124 3042.81,-124 3036.81,-124 3030.81,-118 3030.81,-112 3030.81,-112 3030.81,-100 3030.81,-100 3030.81,-94 3036.81,-88 3042.81,-88 3042.81,-88 3123.19,-88 3123.19,-88 3129.19,-88 3135.19,-94 3135.19,-100 3135.19,-100 3135.19,-112 3135.19,-112 3135.19,-118 3129.19,-124 3123.19,-124"/>
<text xml:space="preserve" text-anchor="middle" x="3083" y="-103" font-family="Helvetica,sans-Serif" font-size="10.00">sq_le_two_mul_exp</text>
</a>
</g>
</g>
<!-- n21 -->
<g id="node39" class="node">
<title>n21</title>
<g id="a_node39"><a xlink:href="vscode://vscode-remote/wsl+Ubuntu/home/ai4stat/statlib/Statlib/StatFoundation/RandomVariable/SubGaussian/subgaussian_exp_sq_le_at_one_third.lean:14" xlink:title="theorem · Statlib/StatFoundation/RandomVariable/SubGaussian/subgaussian_exp_sq_le_at_one_third.lean:14" target="_blank">
<path fill="#ffe6a3" stroke="#d4a017" d="M3001.23,-124C3001.23,-124 2840.77,-124 2840.77,-124 2834.77,-124 2828.77,-118 2828.77,-112 2828.77,-112 2828.77,-100 2828.77,-100 2828.77,-94 2834.77,-88 2840.77,-88 2840.77,-88 3001.23,-88 3001.23,-88 3007.23,-88 3013.23,-94 3013.23,-100 3013.23,-100 3013.23,-112 3013.23,-112 3013.23,-118 3007.23,-124 3001.23,-124"/>
<text xml:space="preserve" text-anchor="middle" x="2921" y="-103" font-family="Helvetica,sans-Serif" font-size="10.00">subgaussian_exp_sq_le_at_one_third</text>
</a>
</g>
</g>
<!-- n21&#45;&gt;n16 -->
<g id="edge15" class="edge">
<title>n21&#45;&gt;n16</title>
<path fill="none" stroke="#64748b" d="M2893.28,-87.52C2878.46,-78.18 2860.1,-66.59 2844.38,-56.68"/>
<polygon fill="#64748b" stroke="#64748b" points="2845.88,-54.73 2838.65,-53.07 2843.26,-58.87 2845.88,-54.73"/>
</g>
<!-- n22&#45;&gt;n17 -->
<g id="edge19" class="edge">
<title>n22&#45;&gt;n17</title>
<path fill="none" stroke="#64748b" d="M2859.05,-159.52C2829.09,-149.62 2791.51,-137.22 2760.4,-126.94"/>
<polygon fill="#64748b" stroke="#64748b" points="2761.49,-124.72 2754.08,-124.86 2759.96,-129.38 2761.49,-124.72"/>
</g>
<!-- n22&#45;&gt;n19 -->
<g id="edge16" class="edge">
<title>n22&#45;&gt;n19</title>
<path fill="none" stroke="#64748b" d="M2992.75,-159.53C3037.45,-149.62 3093.94,-136.69 3144,-124 3144.09,-123.98 3144.17,-123.96 3144.26,-123.93"/>
<polygon fill="#64748b" stroke="#64748b" points="3144.84,-126.31 3151,-122.19 3143.61,-121.57 3144.84,-126.31"/>
</g>
<!-- n22&#45;&gt;n20 -->
<g id="edge17" class="edge">
<title>n22&#45;&gt;n20</title>
<path fill="none" stroke="#64748b" d="M2954.71,-159.52C2978.36,-149.83 3007.91,-137.74 3032.68,-127.6"/>
<polygon fill="#64748b" stroke="#64748b" points="3033.59,-129.87 3039.14,-124.96 3031.73,-125.34 3033.59,-129.87"/>
</g>
<!-- n22&#45;&gt;n21 -->
<g id="edge18" class="edge">
<title>n22&#45;&gt;n21</title>
<path fill="none" stroke="#64748b" d="M2914.22,-159.7C2915.28,-151.47 2916.57,-141.48 2917.73,-132.42"/>
<polygon fill="#64748b" stroke="#64748b" points="2920.15,-132.86 2918.61,-125.61 2915.29,-132.24 2920.15,-132.86"/>
</g>
<!-- n25&#45;&gt;n14 -->
<g id="edge29" class="edge">
<title>n25&#45;&gt;n14</title>
<path fill="none" stroke="#64748b" d="M3188.7,-159.52C3216.59,-149.71 3251.5,-137.43 3280.56,-127.21"/>
<polygon fill="#64748b" stroke="#64748b" points="3281.37,-129.52 3287.16,-124.88 3279.74,-124.9 3281.37,-129.52"/>
</g>
</g>
</svg>
