<?xml version="1.0" encoding="UTF-8" standalone="no"?>
<!DOCTYPE svg PUBLIC "-//W3C//DTD SVG 1.1//EN"
 "http://www.w3.org/Graphics/SVG/1.1/DTD/svg11.dtd">
<!-- Generated by graphviz version 15.0.0 (20260523.1842)
 -->
<!-- Title: hp_jensen_mul_log Pages: 1 -->
<svg width="589pt" height="554pt"
 viewBox="0.00 0.00 589.00 554.00" xmlns="http://www.w3.org/2000/svg" xmlns:xlink="http://www.w3.org/1999/xlink">
<g id="graph0" class="graph" transform="scale(1 1) rotate(0) translate(4 550)">
<title>hp_jensen_mul_log</title>
<polygon fill="white" stroke="none" points="-4,4 -4,-550 585,-550 585,4 -4,4"/>
<text xml:space="preserve" text-anchor="middle" x="290.5" y="-529.4" font-family="Helvetica,sans-Serif" font-size="14.00">Proof narrative — hp_jensen_mul_log &#160;(12 decls)</text>
<g id="clust1" class="cluster">
<title>cluster_0</title>
<path fill="none" stroke="#cbd5e1" stroke-dasharray="5,2" d="M20,-8C20,-8 561,-8 561,-8 567,-8 573,-14 573,-20 573,-20 573,-501.2 573,-501.2 573,-507.2 567,-513.2 561,-513.2 561,-513.2 20,-513.2 20,-513.2 14,-513.2 8,-507.2 8,-501.2 8,-501.2 8,-20 8,-20 8,-14 14,-8 20,-8"/>
<text xml:space="preserve" text-anchor="middle" x="290.5" y="-499.3" font-family="Helvetica,sans-Serif" font-size="11.00">HighDim</text>
</g>
<!-- n0 -->
<g id="node1" class="node">
<title>n0</title>
<g id="a_node1"><a xlink:href="https://github.com/statopia/statlib/blob/main/Statlib/HighDim/MatrixAnalysis/TraceExp.lean#L316" xlink:title="theorem · Statlib/HighDim/MatrixAnalysis/TraceExp.lean:316" target="_blank">
<path fill="#ffe6a3" stroke="#d4a017" d="M187.94,-196C187.94,-196 28.06,-196 28.06,-196 22.06,-196 16.06,-190 16.06,-184 16.06,-184 16.06,-172 16.06,-172 16.06,-166 22.06,-160 28.06,-160 28.06,-160 187.94,-160 187.94,-160 193.94,-160 199.94,-166 199.94,-172 199.94,-172 199.94,-184 199.94,-184 199.94,-190 193.94,-196 187.94,-196"/>
<text xml:space="preserve" text-anchor="middle" x="108" y="-175" font-family="Helvetica,sans-Serif" font-size="10.00">matrix_integrable_of_entry_integrable</text>
</a>
</g>
</g>
<!-- n1 -->
<g id="node2" class="node">
<title>n1</title>
<g id="a_node2"><a xlink:href="https://github.com/statopia/statlib/blob/main/Statlib/HighDim/MatrixAnalysis/TraceExp.lean#L274" xlink:title="private theorem · Statlib/HighDim/MatrixAnalysis/TraceExp.lean:274" target="_blank">
<path fill="#ffe6a3" stroke="#d4a017" d="M480.37,-52C480.37,-52 321.63,-52 321.63,-52 315.63,-52 309.63,-46 309.63,-40 309.63,-40 309.63,-28 309.63,-28 309.63,-22 315.63,-16 321.63,-16 321.63,-16 480.37,-16 480.37,-16 486.37,-16 492.37,-22 492.37,-28 492.37,-28 492.37,-40 492.37,-40 492.37,-46 486.37,-52 480.37,-52"/>
<text xml:space="preserve" text-anchor="middle" x="401" y="-31" font-family="Helvetica,sans-Serif" font-size="10.00">matrix_entry_abs_le_l2_opNorm_rect</text>
</a>
</g>
</g>
<!-- n2 -->
<g id="node3" class="node">
<title>n2</title>
<g id="a_node3"><a xlink:href="https://github.com/statopia/statlib/blob/main/Statlib/HighDim/MatrixAnalysis/TraceExp.lean#L299" xlink:title="private def · Statlib/HighDim/MatrixAnalysis/TraceExp.lean:299" target="_blank">
<path fill="#d6e9ff" stroke="#3b82f6" d="M432.84,-124C432.84,-124 369.16,-124 369.16,-124 363.16,-124 357.16,-118 357.16,-112 357.16,-112 357.16,-100 357.16,-100 357.16,-94 363.16,-88 369.16,-88 369.16,-88 432.84,-88 432.84,-88 438.84,-88 444.84,-94 444.84,-100 444.84,-100 444.84,-112 444.84,-112 444.84,-118 438.84,-124 432.84,-124"/>
<text xml:space="preserve" text-anchor="middle" x="401" y="-103" font-family="Helvetica,sans-Serif" font-size="10.00">matrixEntryCLM</text>
</a>
</g>
</g>
<!-- n2&#45;&gt;n1 -->
<g id="edge1" class="edge">
<title>n2&#45;&gt;n1</title>
<path fill="none" stroke="#64748b" d="M401,-87.7C401,-79.47 401,-69.48 401,-60.42"/>
<polygon fill="#64748b" stroke="#64748b" points="403.45,-60.62 401,-53.62 398.55,-60.62 403.45,-60.62"/>
</g>
<!-- n3 -->
<g id="node4" class="node">
<title>n3</title>
<g id="a_node4"><a xlink:href="https://github.com/statopia/statlib/blob/main/Statlib/HighDim/MatrixAnalysis/TraceExp.lean#L309" xlink:title="theorem · Statlib/HighDim/MatrixAnalysis/TraceExp.lean:309" target="_blank">
<path fill="#ffe6a3" stroke="#d4a017" d="M529.22,-196C529.22,-196 378.78,-196 378.78,-196 372.78,-196 366.78,-190 366.78,-184 366.78,-184 366.78,-172 366.78,-172 366.78,-166 372.78,-160 378.78,-160 378.78,-160 529.22,-160 529.22,-160 535.22,-160 541.22,-166 541.22,-172 541.22,-172 541.22,-184 541.22,-184 541.22,-190 535.22,-196 529.22,-196"/>
<text xml:space="preserve" text-anchor="middle" x="454" y="-175" font-family="Helvetica,sans-Serif" font-size="10.00">matrix_integral_apply_of_integrable</text>
</a>
</g>
</g>
<!-- n3&#45;&gt;n2 -->
<g id="edge2" class="edge">
<title>n3&#45;&gt;n2</title>
<path fill="none" stroke="#64748b" d="M440.9,-159.7C434.29,-150.97 426.17,-140.24 418.98,-130.75"/>
<polygon fill="#64748b" stroke="#64748b" points="421.04,-129.41 414.86,-125.31 417.14,-132.37 421.04,-129.41"/>
</g>
<!-- n4 -->
<g id="node5" class="node">
<title>n4</title>
<g id="a_node5"><a xlink:href="https://github.com/statopia/statlib/blob/main/Statlib/HighDim/MatrixAnalysis/MatrixLogIntegralRep.lean#L8" xlink:title="theorem · Statlib/HighDim/MatrixAnalysis/MatrixLogIntegralRep.lean:8" target="_blank">
<path fill="#ffe6a3" stroke="#d4a017" d="M124.25,-268C124.25,-268 27.75,-268 27.75,-268 21.75,-268 15.75,-262 15.75,-256 15.75,-256 15.75,-244 15.75,-244 15.75,-238 21.75,-232 27.75,-232 27.75,-232 124.25,-232 124.25,-232 130.25,-232 136.25,-238 136.25,-244 136.25,-244 136.25,-256 136.25,-256 136.25,-262 130.25,-268 124.25,-268"/>
<text xml:space="preserve" text-anchor="middle" x="76" y="-247" font-family="Helvetica,sans-Serif" font-size="10.00">matrix_log_integral_rep</text>
</a>
</g>
</g>
<!-- n4&#45;&gt;n0 -->
<g id="edge3" class="edge">
<title>n4&#45;&gt;n0</title>
<path fill="none" stroke="#64748b" d="M83.91,-231.7C87.79,-223.22 92.52,-212.86 96.76,-203.58"/>
<polygon fill="#64748b" stroke="#64748b" points="98.87,-204.87 99.55,-197.48 94.41,-202.83 98.87,-204.87"/>
</g>
<!-- n4&#45;&gt;n3 -->
<g id="edge4" class="edge">
<title>n4&#45;&gt;n3</title>
<path fill="none" stroke="#64748b" d="M136.53,-233.83C139.39,-233.19 142.22,-232.58 145,-232 216.13,-217.16 297.11,-203.38 358.32,-193.6"/>
<polygon fill="#64748b" stroke="#64748b" points="358.42,-196.06 364.95,-192.54 357.65,-191.22 358.42,-196.06"/>
</g>
<!-- n5 -->
<g id="node6" class="node">
<title>n5</title>
<g id="a_node6"><a xlink:href="https://github.com/statopia/statlib/blob/main/Statlib/HighDim/MatrixAnalysis/LiebRuskaiConjInvJointlyConvex.lean#L7" xlink:title="theorem · Statlib/HighDim/MatrixAnalysis/LiebRuskaiConjInvJointlyConvex.lean:7" target="_blank">
<path fill="#ffe6a3" stroke="#d4a017" d="M316.21,-268C316.21,-268 165.79,-268 165.79,-268 159.79,-268 153.79,-262 153.79,-256 153.79,-256 153.79,-244 153.79,-244 153.79,-238 159.79,-232 165.79,-232 165.79,-232 316.21,-232 316.21,-232 322.21,-232 328.21,-238 328.21,-244 328.21,-244 328.21,-256 328.21,-256 328.21,-262 322.21,-268 316.21,-268"/>
<text xml:space="preserve" text-anchor="middle" x="241" y="-247" font-family="Helvetica,sans-Serif" font-size="10.00">lieb_ruskai_conj_inv_jointly_convex</text>
</a>
</g>
</g>
<!-- n6 -->
<g id="node7" class="node">
<title>n6</title>
<g id="a_node7"><a xlink:href="https://github.com/statopia/statlib/blob/main/Statlib/HighDim/MatrixAnalysis/TraceExp.lean#L334" xlink:title="theorem · Statlib/HighDim/MatrixAnalysis/TraceExp.lean:334" target="_blank">
<path fill="#ffe6a3" stroke="#d4a017" d="M504.27,-268C504.27,-268 357.73,-268 357.73,-268 351.73,-268 345.73,-262 345.73,-256 345.73,-256 345.73,-244 345.73,-244 345.73,-238 351.73,-232 357.73,-232 357.73,-232 504.27,-232 504.27,-232 510.27,-232 516.27,-238 516.27,-244 516.27,-244 516.27,-256 516.27,-256 516.27,-262 510.27,-268 504.27,-268"/>
<text xml:space="preserve" text-anchor="middle" x="431" y="-247" font-family="Helvetica,sans-Serif" font-size="10.00">matrix_integral_posSemidef_of_ae</text>
</a>
</g>
</g>
<!-- n6&#45;&gt;n2 -->
<g id="edge6" class="edge">
<title>n6&#45;&gt;n2</title>
<path fill="none" stroke="#64748b" d="M394.1,-231.69C380.14,-223.08 365.75,-211.21 358,-196 350.73,-181.75 352.65,-175.08 358,-160 361.85,-149.14 368.98,-138.89 376.34,-130.35"/>
<polygon fill="#64748b" stroke="#64748b" points="378.04,-132.11 380.94,-125.28 374.42,-128.81 378.04,-132.11"/>
</g>
<!-- n6&#45;&gt;n3 -->
<g id="edge5" class="edge">
<title>n6&#45;&gt;n3</title>
<path fill="none" stroke="#64748b" d="M436.69,-231.7C439.41,-223.39 442.74,-213.28 445.74,-204.14"/>
<polygon fill="#64748b" stroke="#64748b" points="448.05,-204.96 447.91,-197.54 443.39,-203.43 448.05,-204.96"/>
</g>
<!-- n7 -->
<g id="node8" class="node">
<title>n7</title>
<g id="a_node8"><a xlink:href="https://github.com/statopia/statlib/blob/main/Statlib/HighDim/MatrixAnalysis/OperatorConvexMulLog.lean#L14" xlink:title="theorem · Statlib/HighDim/MatrixAnalysis/OperatorConvexMulLog.lean:14" target="_blank">
<path fill="#ffe6a3" stroke="#d4a017" d="M128.48,-340C128.48,-340 47.52,-340 47.52,-340 41.52,-340 35.52,-334 35.52,-328 35.52,-328 35.52,-316 35.52,-316 35.52,-310 41.52,-304 47.52,-304 47.52,-304 128.48,-304 128.48,-304 134.48,-304 140.48,-310 140.48,-316 140.48,-316 140.48,-328 140.48,-328 140.48,-334 134.48,-340 128.48,-340"/>
<text xml:space="preserve" text-anchor="middle" x="88" y="-319" font-family="Helvetica,sans-Serif" font-size="10.00">op_convex_mul_log</text>
</a>
</g>
</g>
<!-- n7&#45;&gt;n4 -->
<g id="edge7" class="edge">
<title>n7&#45;&gt;n4</title>
<path fill="none" stroke="#64748b" d="M85.03,-303.7C83.62,-295.47 81.91,-285.48 80.36,-276.42"/>
<polygon fill="#64748b" stroke="#64748b" points="82.79,-276.08 79.19,-269.6 77.96,-276.91 82.79,-276.08"/>
</g>
<!-- n7&#45;&gt;n5 -->
<g id="edge8" class="edge">
<title>n7&#45;&gt;n5</title>
<path fill="none" stroke="#64748b" d="M126.21,-303.52C147.2,-293.92 173.35,-281.95 195.4,-271.86"/>
<polygon fill="#64748b" stroke="#64748b" points="196.29,-274.15 201.63,-269.01 194.25,-269.7 196.29,-274.15"/>
</g>
<!-- n7&#45;&gt;n6 -->
<g id="edge9" class="edge">
<title>n7&#45;&gt;n6</title>
<path fill="none" stroke="#64748b" d="M140.88,-307.07C145.31,-305.99 149.73,-304.96 154,-304 188.26,-296.32 271.07,-280.61 337.28,-268.28"/>
<polygon fill="#64748b" stroke="#64748b" points="337.35,-270.76 343.78,-267.07 336.45,-265.94 337.35,-270.76"/>
</g>
<!-- n8 -->
<g id="node9" class="node">
<title>n8</title>
<g id="a_node9"><a xlink:href="https://github.com/statopia/statlib/blob/main/Statlib/HighDim/MatrixAnalysis/TraceExp.lean#L89" xlink:title="theorem · Statlib/HighDim/MatrixAnalysis/TraceExp.lean:89" target="_blank">
<path fill="#ffe6a3" stroke="#d4a017" d="M377.54,-340C377.54,-340 210.46,-340 210.46,-340 204.46,-340 198.46,-334 198.46,-328 198.46,-328 198.46,-316 198.46,-316 198.46,-310 204.46,-304 210.46,-304 210.46,-304 377.54,-304 377.54,-304 383.54,-304 389.54,-310 389.54,-316 389.54,-316 389.54,-328 389.54,-328 389.54,-334 383.54,-340 377.54,-340"/>
<text xml:space="preserve" text-anchor="middle" x="294" y="-319" font-family="Helvetica,sans-Serif" font-size="10.00">real_log_matrix_isHermitian_of_posDef</text>
</a>
</g>
</g>
<!-- n9 -->
<g id="node10" class="node">
<title>n9</title>
<g id="a_node10"><a xlink:href="https://github.com/statopia/statlib/blob/main/Statlib/HighDim/MatrixAnalysis/TraceExp.lean#L94" xlink:title="theorem · Statlib/HighDim/MatrixAnalysis/TraceExp.lean:94" target="_blank">
<path fill="#ffe6a3" stroke="#d4a017" d="M552.6,-340C552.6,-340 419.4,-340 419.4,-340 413.4,-340 407.4,-334 407.4,-328 407.4,-328 407.4,-316 407.4,-316 407.4,-310 413.4,-304 419.4,-304 419.4,-304 552.6,-304 552.6,-304 558.6,-304 564.6,-310 564.6,-316 564.6,-316 564.6,-328 564.6,-328 564.6,-334 558.6,-340 552.6,-340"/>
<text xml:space="preserve" text-anchor="middle" x="486" y="-319" font-family="Helvetica,sans-Serif" font-size="10.00">real_matrix_exp_log_of_posDef</text>
</a>
</g>
</g>
<!-- n10 -->
<g id="node11" class="node">
<title>n10</title>
<g id="a_node11"><a xlink:href="https://github.com/statopia/statlib/blob/main/Statlib/HighDim/MatrixAnalysis/HansenPedersenJensenMulLog.lean#L28" xlink:title="theorem · Statlib/HighDim/MatrixAnalysis/HansenPedersenJensenMulLog.lean:28" target="_blank">
<path fill="#ffe6a3" stroke="#d4a017" d="M242.84,-412C242.84,-412 95.16,-412 95.16,-412 89.16,-412 83.16,-406 83.16,-400 83.16,-400 83.16,-388 83.16,-388 83.16,-382 89.16,-376 95.16,-376 95.16,-376 242.84,-376 242.84,-376 248.84,-376 254.84,-382 254.84,-388 254.84,-388 254.84,-400 254.84,-400 254.84,-406 248.84,-412 242.84,-412"/>
<text xml:space="preserve" text-anchor="middle" x="169" y="-391" font-family="Helvetica,sans-Serif" font-size="10.00">hansen_pedersen_jensen_mul_log</text>
</a>
</g>
</g>
<!-- n10&#45;&gt;n3 -->
<g id="edge14" class="edge">
<title>n10&#45;&gt;n3</title>
<path fill="none" stroke="#64748b" d="M170.51,-375.86C172.92,-352.74 178.48,-313.38 189,-304 245.05,-254.02 474.81,-323.86 525,-268 535.69,-256.1 532.17,-246.3 525,-232 518.66,-219.36 507.71,-208.96 496.29,-200.82"/>
<polygon fill="#64748b" stroke="#64748b" points="497.97,-199 490.8,-197.14 495.24,-203.07 497.97,-199"/>
</g>
<!-- n10&#45;&gt;n4 -->
<g id="edge13" class="edge">
<title>n10&#45;&gt;n4</title>
<path fill="none" stroke="#64748b" d="M82.86,-379.06C61.11,-371.23 40.2,-359.02 27,-340 12.14,-318.6 30.75,-292.26 49.14,-273.81"/>
<polygon fill="#64748b" stroke="#64748b" points="50.38,-276.02 53.72,-269.4 46.98,-272.49 50.38,-276.02"/>
</g>
<!-- n10&#45;&gt;n6 -->
<g id="edge15" class="edge">
<title>n10&#45;&gt;n6</title>
<path fill="none" stroke="#64748b" d="M164.35,-375.66C160.17,-355.86 157.02,-323.69 174,-304 176.79,-300.76 264.79,-283.08 337.04,-269.01"/>
<polygon fill="#64748b" stroke="#64748b" points="337.43,-271.43 343.83,-267.69 336.5,-266.62 337.43,-271.43"/>
</g>
<!-- n10&#45;&gt;n7 -->
<g id="edge10" class="edge">
<title>n10&#45;&gt;n7</title>
<path fill="none" stroke="#64748b" d="M148.98,-375.7C138.56,-366.69 125.69,-355.57 114.46,-345.87"/>
<polygon fill="#64748b" stroke="#64748b" points="116.12,-344.06 109.22,-341.34 112.91,-347.77 116.12,-344.06"/>
</g>
<!-- n10&#45;&gt;n8 -->
<g id="edge11" class="edge">
<title>n10&#45;&gt;n8</title>
<path fill="none" stroke="#64748b" d="M200.22,-375.52C217.05,-366.09 237.96,-354.38 255.76,-344.41"/>
<polygon fill="#64748b" stroke="#64748b" points="256.95,-346.56 261.86,-341 254.55,-342.28 256.95,-346.56"/>
</g>
<!-- n10&#45;&gt;n9 -->
<g id="edge12" class="edge">
<title>n10&#45;&gt;n9</title>
<path fill="none" stroke="#64748b" d="M248.17,-375.52C294.03,-365.39 351.81,-352.63 398.94,-342.22"/>
<polygon fill="#64748b" stroke="#64748b" points="399.23,-344.67 405.53,-340.77 398.17,-339.89 399.23,-344.67"/>
</g>
<!-- n11 -->
<g id="node12" class="node">
<title>n11</title>
<g id="a_node12"><a xlink:href="https://github.com/statopia/statlib/blob/main/Statlib/HighDim/MatrixAnalysis/HansenPedersenJensenMulLog.lean#L1300" xlink:title="theorem · Statlib/HighDim/MatrixAnalysis/HansenPedersenJensenMulLog.lean:1300" target="_blank">
<path fill="#ffe6a3" stroke="#d4a017" stroke-width="3" d="M208.37,-484C208.37,-484 129.63,-484 129.63,-484 123.63,-484 117.63,-478 117.63,-472 117.63,-472 117.63,-460 117.63,-460 117.63,-454 123.63,-448 129.63,-448 129.63,-448 208.37,-448 208.37,-448 214.37,-448 220.37,-454 220.37,-460 220.37,-460 220.37,-472 220.37,-472 220.37,-478 214.37,-484 208.37,-484"/>
<text xml:space="preserve" text-anchor="middle" x="169" y="-463" font-family="Helvetica,sans-Serif" font-size="10.00">hp_jensen_mul_log</text>
</a>
</g>
</g>
<!-- n11&#45;&gt;n10 -->
<g id="edge16" class="edge">
<title>n11&#45;&gt;n10</title>
<path fill="none" stroke="#64748b" d="M169,-446.61C169,-438.59 169,-429.05 169,-420.37"/>
<polygon fill="#64748b" stroke="#64748b" points="171.45,-420.58 169,-413.58 166.55,-420.58 171.45,-420.58"/>
</g>
</g>
</svg>
