<?xml version="1.0" encoding="UTF-8" standalone="no"?>
<!DOCTYPE svg PUBLIC "-//W3C//DTD SVG 1.1//EN"
 "http://www.w3.org/Graphics/SVG/1.1/DTD/svg11.dtd">
<!-- Generated by graphviz version 15.0.0 (20260523.1842)
 -->
<!-- Title: isotropic_norm_concentration Pages: 1 -->
<svg width="1483pt" height="555pt"
 viewBox="0.00 0.00 1483.00 555.00" xmlns="http://www.w3.org/2000/svg" xmlns:xlink="http://www.w3.org/1999/xlink">
<g id="graph0" class="graph" transform="scale(1 1) rotate(0) translate(4 551.2)">
<title>isotropic_norm_concentration</title>
<polygon fill="white" stroke="none" points="-4,4 -4,-551.2 1479,-551.2 1479,4 -4,4"/>
<text xml:space="preserve" text-anchor="middle" x="737.5" y="-530.6" font-family="Helvetica,sans-Serif" font-size="14.00">Proof narrative — isotropic_norm_concentration &#160;(21 decls)</text>
<g id="clust1" class="cluster">
<title>cluster_0</title>
<path fill="none" stroke="#cbd5e1" stroke-dasharray="5,2" d="M854,-80C854,-80 1455,-80 1455,-80 1461,-80 1467,-86 1467,-92 1467,-92 1467,-502.4 1467,-502.4 1467,-508.4 1461,-514.4 1455,-514.4 1455,-514.4 854,-514.4 854,-514.4 848,-514.4 842,-508.4 842,-502.4 842,-502.4 842,-92 842,-92 842,-86 848,-80 854,-80"/>
<text xml:space="preserve" text-anchor="middle" x="1154.5" y="-500.5" font-family="Helvetica,sans-Serif" font-size="11.00">HighDim</text>
</g>
<g id="clust2" class="cluster">
<title>cluster_1</title>
<path fill="none" stroke="#cbd5e1" stroke-dasharray="5,2" d="M20,-8C20,-8 822,-8 822,-8 828,-8 834,-14 834,-20 834,-20 834,-213.2 834,-213.2 834,-219.2 828,-225.2 822,-225.2 822,-225.2 20,-225.2 20,-225.2 14,-225.2 8,-219.2 8,-213.2 8,-213.2 8,-20 8,-20 8,-14 14,-8 20,-8"/>
<text xml:space="preserve" text-anchor="middle" x="421" y="-211.3" font-family="Helvetica,sans-Serif" font-size="11.00">StatFoundation</text>
</g>
<!-- n0 -->
<g id="node1" class="node">
<title>n0</title>
<g id="a_node1"><a xlink:href="vscode://vscode-remote/wsl+Ubuntu/tmp/statlib-main-refresh.tmBBiR/Statlib/HighDim/Vocabulary/RandomVector.lean:83" xlink:title="structure · Statlib/HighDim/Vocabulary/RandomVector.lean:83" target="_blank">
<path fill="#e8dcff" stroke="#8b5cf6" d="M969.4,-341.2C969.4,-341.2 934.6,-341.2 934.6,-341.2 928.6,-341.2 922.6,-335.2 922.6,-329.2 922.6,-329.2 922.6,-317.2 922.6,-317.2 922.6,-311.2 928.6,-305.2 934.6,-305.2 934.6,-305.2 969.4,-305.2 969.4,-305.2 975.4,-305.2 981.4,-311.2 981.4,-317.2 981.4,-317.2 981.4,-329.2 981.4,-329.2 981.4,-335.2 975.4,-341.2 969.4,-341.2"/>
<text xml:space="preserve" text-anchor="middle" x="952" y="-320.2" font-family="Helvetica,sans-Serif" font-size="10.00">HasMean</text>
</a>
</g>
</g>
<!-- n1 -->
<g id="node2" class="node">
<title>n1</title>
<g id="a_node2"><a xlink:href="vscode://vscode-remote/wsl+Ubuntu/tmp/statlib-main-refresh.tmBBiR/Statlib/HighDim/Vocabulary/RandomVector.lean:101" xlink:title="structure · Statlib/HighDim/Vocabulary/RandomVector.lean:101" target="_blank">
<path fill="#e8dcff" stroke="#8b5cf6" d="M1446.79,-269.2C1446.79,-269.2 1359.21,-269.2 1359.21,-269.2 1353.21,-269.2 1347.21,-263.2 1347.21,-257.2 1347.21,-257.2 1347.21,-245.2 1347.21,-245.2 1347.21,-239.2 1353.21,-233.2 1359.21,-233.2 1359.21,-233.2 1446.79,-233.2 1446.79,-233.2 1452.79,-233.2 1458.79,-239.2 1458.79,-245.2 1458.79,-245.2 1458.79,-257.2 1458.79,-257.2 1458.79,-263.2 1452.79,-269.2 1446.79,-269.2"/>
<text xml:space="preserve" text-anchor="middle" x="1403" y="-248.2" font-family="Helvetica,sans-Serif" font-size="10.00">HasCovarianceMatrix</text>
</a>
</g>
</g>
<!-- n2 -->
<g id="node3" class="node">
<title>n2</title>
<g id="a_node3"><a xlink:href="vscode://vscode-remote/wsl+Ubuntu/tmp/statlib-main-refresh.tmBBiR/Statlib/HighDim/Vocabulary/RandomVector.lean:109" xlink:title="def · Statlib/HighDim/Vocabulary/RandomVector.lean:109" target="_blank">
<path fill="#d6e9ff" stroke="#3b82f6" d="M1405.79,-341.2C1405.79,-341.2 1368.21,-341.2 1368.21,-341.2 1362.21,-341.2 1356.21,-335.2 1356.21,-329.2 1356.21,-329.2 1356.21,-317.2 1356.21,-317.2 1356.21,-311.2 1362.21,-305.2 1368.21,-305.2 1368.21,-305.2 1405.79,-305.2 1405.79,-305.2 1411.79,-305.2 1417.79,-311.2 1417.79,-317.2 1417.79,-317.2 1417.79,-329.2 1417.79,-329.2 1417.79,-335.2 1411.79,-341.2 1405.79,-341.2"/>
<text xml:space="preserve" text-anchor="middle" x="1387" y="-320.2" font-family="Helvetica,sans-Serif" font-size="10.00">IsIsotropic</text>
</a>
</g>
</g>
<!-- n2&#45;&gt;n1 -->
<g id="edge1" class="edge">
<title>n2&#45;&gt;n1</title>
<path fill="none" stroke="#64748b" d="M1390.96,-304.9C1392.85,-296.59 1395.17,-286.48 1397.25,-277.34"/>
<polygon fill="#64748b" stroke="#64748b" points="1399.58,-278.15 1398.75,-270.78 1394.8,-277.06 1399.58,-278.15"/>
</g>
<!-- n3 -->
<g id="node4" class="node">
<title>n3</title>
<g id="a_node4"><a xlink:href="vscode://vscode-remote/wsl+Ubuntu/tmp/statlib-main-refresh.tmBBiR/Statlib/HighDim/Vocabulary/RandomVector.lean:52" xlink:title="structure · Statlib/HighDim/Vocabulary/RandomVector.lean:52" target="_blank">
<path fill="#e8dcff" stroke="#8b5cf6" d="M1327.36,-124C1327.36,-124 1238.64,-124 1238.64,-124 1232.64,-124 1226.64,-118 1226.64,-112 1226.64,-112 1226.64,-100 1226.64,-100 1226.64,-94 1232.64,-88 1238.64,-88 1238.64,-88 1327.36,-88 1327.36,-88 1333.36,-88 1339.36,-94 1339.36,-100 1339.36,-100 1339.36,-112 1339.36,-112 1339.36,-118 1333.36,-124 1327.36,-124"/>
<text xml:space="preserve" text-anchor="middle" x="1283" y="-103" font-family="Helvetica,sans-Serif" font-size="10.00">IsSubGaussianVector</text>
</a>
</g>
</g>
<!-- n5 -->
<g id="node5" class="node">
<title>n5</title>
<g id="a_node5"><a xlink:href="vscode://vscode-remote/wsl+Ubuntu/tmp/statlib-main-refresh.tmBBiR/Statlib/HighDim/Vocabulary/Norms.lean:32" xlink:title="lemma · Statlib/HighDim/Vocabulary/Norms.lean:32" target="_blank">
<path fill="#eef2f6" stroke="#94a3b8" d="M1192.69,-124C1192.69,-124 1137.31,-124 1137.31,-124 1131.31,-124 1125.31,-118 1125.31,-112 1125.31,-112 1125.31,-100 1125.31,-100 1125.31,-94 1131.31,-88 1137.31,-88 1137.31,-88 1192.69,-88 1192.69,-88 1198.69,-88 1204.69,-94 1204.69,-100 1204.69,-100 1204.69,-112 1204.69,-112 1204.69,-118 1198.69,-124 1192.69,-124"/>
<text xml:space="preserve" text-anchor="middle" x="1165" y="-103" font-family="Helvetica,sans-Serif" font-size="10.00">inner_eq_sum</text>
</a>
</g>
</g>
<!-- n6 -->
<g id="node6" class="node">
<title>n6</title>
<g id="a_node6"><a xlink:href="vscode://vscode-remote/wsl+Ubuntu/tmp/statlib-main-refresh.tmBBiR/Statlib/HighDim/Concentration/HansonWright.lean:1340" xlink:title="lemma · Statlib/HighDim/Concentration/HansonWright.lean:1340" target="_blank">
<path fill="#eef2f6" stroke="#94a3b8" d="M1220.76,-196C1220.76,-196 1109.24,-196 1109.24,-196 1103.24,-196 1097.24,-190 1097.24,-184 1097.24,-184 1097.24,-172 1097.24,-172 1097.24,-166 1103.24,-160 1109.24,-160 1109.24,-160 1220.76,-160 1220.76,-160 1226.76,-160 1232.76,-166 1232.76,-172 1232.76,-172 1232.76,-184 1232.76,-184 1232.76,-190 1226.76,-196 1220.76,-196"/>
<text xml:space="preserve" text-anchor="middle" x="1165" y="-175" font-family="Helvetica,sans-Serif" font-size="10.00">subgaussian_vector_coord</text>
</a>
</g>
</g>
<!-- n6&#45;&gt;n3 -->
<g id="edge2" class="edge">
<title>n6&#45;&gt;n3</title>
<path fill="none" stroke="#64748b" d="M1194.47,-159.52C1210.36,-150.09 1230.1,-138.38 1246.9,-128.41"/>
<polygon fill="#64748b" stroke="#64748b" points="1247.83,-130.71 1252.6,-125.03 1245.33,-126.5 1247.83,-130.71"/>
</g>
<!-- n6&#45;&gt;n5 -->
<g id="edge3" class="edge">
<title>n6&#45;&gt;n5</title>
<path fill="none" stroke="#64748b" d="M1165,-159.7C1165,-151.47 1165,-141.48 1165,-132.42"/>
<polygon fill="#64748b" stroke="#64748b" points="1167.45,-132.62 1165,-125.62 1162.55,-132.62 1167.45,-132.62"/>
</g>
<!-- n9 -->
<g id="node7" class="node">
<title>n9</title>
<g id="a_node7"><a xlink:href="vscode://vscode-remote/wsl+Ubuntu/tmp/statlib-main-refresh.tmBBiR/Statlib/HighDim/Concentration/HansonWright.lean:2014" xlink:title="lemma · Statlib/HighDim/Concentration/HansonWright.lean:2014" target="_blank">
<path fill="#eef2f6" stroke="#94a3b8" d="M1256.62,-269.2C1256.62,-269.2 1073.38,-269.2 1073.38,-269.2 1067.38,-269.2 1061.38,-263.2 1061.38,-257.2 1061.38,-257.2 1061.38,-245.2 1061.38,-245.2 1061.38,-239.2 1067.38,-233.2 1073.38,-233.2 1073.38,-233.2 1256.62,-233.2 1256.62,-233.2 1262.62,-233.2 1268.62,-239.2 1268.62,-245.2 1268.62,-245.2 1268.62,-257.2 1268.62,-257.2 1268.62,-263.2 1262.62,-269.2 1256.62,-269.2"/>
<text xml:space="preserve" text-anchor="middle" x="1165" y="-248.2" font-family="Helvetica,sans-Serif" font-size="10.00">coord_sq_centered_scaled_exp_integrable</text>
</a>
</g>
</g>
<!-- n9&#45;&gt;n3 -->
<g id="edge5" class="edge">
<title>n9&#45;&gt;n3</title>
<path fill="none" stroke="#64748b" d="M1232.39,-232.82C1235.85,-230.58 1239.09,-228.05 1242,-225.2 1267.22,-200.47 1276.95,-159.47 1280.68,-132.84"/>
<polygon fill="#64748b" stroke="#64748b" points="1283.11,-133.16 1281.55,-125.91 1278.25,-132.55 1283.11,-133.16"/>
</g>
<!-- n9&#45;&gt;n6 -->
<g id="edge6" class="edge">
<title>n9&#45;&gt;n6</title>
<path fill="none" stroke="#64748b" d="M1165,-232.96C1165,-224.39 1165,-213.87 1165,-204.39"/>
<polygon fill="#64748b" stroke="#64748b" points="1167.45,-204.59 1165,-197.59 1162.55,-204.59 1167.45,-204.59"/>
</g>
<!-- n8 -->
<g id="node15" class="node">
<title>n8</title>
<g id="a_node15"><a xlink:href="vscode://vscode-remote/wsl+Ubuntu/tmp/statlib-main-refresh.tmBBiR/Statlib/StatFoundation/RandomVariable/SubGaussian/subgaussian_exp_sq_le_at_one_third.lean:165" xlink:title="theorem · Statlib/StatFoundation/RandomVariable/SubGaussian/subgaussian_exp_sq_le_at_one_third.lean:165" target="_blank">
<path fill="#ffe6a3" stroke="#d4a017" d="M814.3,-124C814.3,-124 617.7,-124 617.7,-124 611.7,-124 605.7,-118 605.7,-112 605.7,-112 605.7,-100 605.7,-100 605.7,-94 611.7,-88 617.7,-88 617.7,-88 814.3,-88 814.3,-88 820.3,-88 826.3,-94 826.3,-100 826.3,-100 826.3,-112 826.3,-112 826.3,-118 820.3,-124 814.3,-124"/>
<text xml:space="preserve" text-anchor="middle" x="716" y="-103" font-family="Helvetica,sans-Serif" font-size="10.00">subgaussian_integrable_exp_sq_at_one_third</text>
</a>
</g>
</g>
<!-- n9&#45;&gt;n8 -->
<g id="edge7" class="edge">
<title>n9&#45;&gt;n8</title>
<path fill="none" stroke="#64748b" d="M1110.39,-232.78C1026.65,-206.08 866.96,-155.15 778.64,-126.98"/>
<polygon fill="#64748b" stroke="#64748b" points="779.43,-124.66 772.02,-124.87 777.94,-129.33 779.43,-124.66"/>
</g>
<!-- n14 -->
<g id="node8" class="node">
<title>n14</title>
<g id="a_node8"><a xlink:href="vscode://vscode-remote/wsl+Ubuntu/tmp/statlib-main-refresh.tmBBiR/Statlib/HighDim/Concentration/HansonWright.lean:1951" xlink:title="lemma · Statlib/HighDim/Concentration/HansonWright.lean:1951" target="_blank">
<path fill="#eef2f6" stroke="#94a3b8" d="M1031.67,-269.2C1031.67,-269.2 862.33,-269.2 862.33,-269.2 856.33,-269.2 850.33,-263.2 850.33,-257.2 850.33,-257.2 850.33,-245.2 850.33,-245.2 850.33,-239.2 856.33,-233.2 862.33,-233.2 862.33,-233.2 1031.67,-233.2 1031.67,-233.2 1037.67,-233.2 1043.67,-239.2 1043.67,-245.2 1043.67,-245.2 1043.67,-257.2 1043.67,-257.2 1043.67,-263.2 1037.67,-269.2 1031.67,-269.2"/>
<text xml:space="preserve" text-anchor="middle" x="947" y="-248.2" font-family="Helvetica,sans-Serif" font-size="10.00">coord_sq_centered_mgf_bound_explicit</text>
</a>
</g>
</g>
<!-- n14&#45;&gt;n3 -->
<g id="edge13" class="edge">
<title>n14&#45;&gt;n3</title>
<path fill="none" stroke="#64748b" d="M969.23,-232.92C996.04,-212.84 1043.1,-179.9 1088,-160 1100.14,-154.62 1166.12,-137.07 1218.02,-123.62"/>
<polygon fill="#64748b" stroke="#64748b" points="1218.59,-126 1224.75,-121.88 1217.36,-121.26 1218.59,-126"/>
</g>
<!-- n14&#45;&gt;n6 -->
<g id="edge14" class="edge">
<title>n14&#45;&gt;n6</title>
<path fill="none" stroke="#64748b" d="M1000.33,-232.78C1031.6,-222.57 1071.24,-209.62 1103.78,-198.99"/>
<polygon fill="#64748b" stroke="#64748b" points="1104.13,-201.46 1110.03,-196.95 1102.61,-196.8 1104.13,-201.46"/>
</g>
<!-- n13 -->
<g id="node19" class="node">
<title>n13</title>
<g id="a_node19"><a xlink:href="vscode://vscode-remote/wsl+Ubuntu/tmp/statlib-main-refresh.tmBBiR/Statlib/StatFoundation/RandomVariable/SubExponential/subexp_mgf_le_of_sq_subgaussian.lean:72" xlink:title="theorem · Statlib/StatFoundation/RandomVariable/SubExponential/subexp_mgf_le_of_sq_subgaussian.lean:72" target="_blank">
<path fill="#ffe6a3" stroke="#d4a017" d="M628.84,-196C628.84,-196 441.16,-196 441.16,-196 435.16,-196 429.16,-190 429.16,-184 429.16,-184 429.16,-172 429.16,-172 429.16,-166 435.16,-160 441.16,-160 441.16,-160 628.84,-160 628.84,-160 634.84,-160 640.84,-166 640.84,-172 640.84,-172 640.84,-184 640.84,-184 640.84,-190 634.84,-196 628.84,-196"/>
<text xml:space="preserve" text-anchor="middle" x="535" y="-175" font-family="Helvetica,sans-Serif" font-size="10.00">subexp_mgf_le_of_sq_subgaussian_explicit</text>
</a>
</g>
</g>
<!-- n14&#45;&gt;n13 -->
<g id="edge15" class="edge">
<title>n14&#45;&gt;n13</title>
<path fill="none" stroke="#64748b" d="M850.12,-236.8C825.88,-233.24 799.96,-229.25 776,-225.2 727.56,-217.02 673.85,-206.83 629.46,-198.11"/>
<polygon fill="#64748b" stroke="#64748b" points="630.11,-195.74 622.76,-196.79 629.16,-200.55 630.11,-195.74"/>
</g>
<!-- n15 -->
<g id="node9" class="node">
<title>n15</title>
<g id="a_node9"><a xlink:href="vscode://vscode-remote/wsl+Ubuntu/tmp/statlib-main-refresh.tmBBiR/Statlib/HighDim/Concentration/HansonWright.lean:2095" xlink:title="lemma · Statlib/HighDim/Concentration/HansonWright.lean:2095" target="_blank">
<path fill="#eef2f6" stroke="#94a3b8" d="M1277.04,-341.2C1277.04,-341.2 1010.96,-341.2 1010.96,-341.2 1004.96,-341.2 998.96,-335.2 998.96,-329.2 998.96,-329.2 998.96,-317.2 998.96,-317.2 998.96,-311.2 1004.96,-305.2 1010.96,-305.2 1010.96,-305.2 1277.04,-305.2 1277.04,-305.2 1283.04,-305.2 1289.04,-311.2 1289.04,-317.2 1289.04,-317.2 1289.04,-329.2 1289.04,-329.2 1289.04,-335.2 1283.04,-341.2 1277.04,-341.2"/>
<text xml:space="preserve" text-anchor="middle" x="1144" y="-320.2" font-family="Helvetica,sans-Serif" font-size="10.00">coord_sq_centered_scaled_subexponential_explicit_of_range</text>
</a>
</g>
</g>
<!-- n15&#45;&gt;n3 -->
<g id="edge16" class="edge">
<title>n15&#45;&gt;n3</title>
<path fill="none" stroke="#64748b" d="M1230.61,-304.71C1249.09,-296.89 1266.49,-285.58 1278,-269.2 1306.59,-228.5 1298.13,-166.8 1290.12,-132.42"/>
<polygon fill="#64748b" stroke="#64748b" points="1292.53,-131.97 1288.48,-125.76 1287.77,-133.15 1292.53,-131.97"/>
</g>
<!-- n15&#45;&gt;n9 -->
<g id="edge18" class="edge">
<title>n15&#45;&gt;n9</title>
<path fill="none" stroke="#64748b" d="M1149.19,-304.9C1151.68,-296.59 1154.72,-286.48 1157.46,-277.34"/>
<polygon fill="#64748b" stroke="#64748b" points="1159.77,-278.16 1159.43,-270.75 1155.08,-276.75 1159.77,-278.16"/>
</g>
<!-- n15&#45;&gt;n14 -->
<g id="edge19" class="edge">
<title>n15&#45;&gt;n14</title>
<path fill="none" stroke="#64748b" d="M1094.8,-304.72C1067.19,-294.91 1032.63,-282.63 1003.86,-272.41"/>
<polygon fill="#64748b" stroke="#64748b" points="1004.76,-270.12 997.34,-270.09 1003.12,-274.74 1004.76,-270.12"/>
</g>
<!-- n4 -->
<g id="node13" class="node">
<title>n4</title>
<g id="a_node13"><a xlink:href="vscode://vscode-remote/wsl+Ubuntu/tmp/statlib-main-refresh.tmBBiR/Statlib/StatFoundation/Vocabulary/RandomVariable.lean:74" xlink:title="structure · Statlib/StatFoundation/Vocabulary/RandomVariable.lean:74" target="_blank">
<path fill="#e8dcff" stroke="#8b5cf6" d="M128.47,-124C128.47,-124 27.53,-124 27.53,-124 21.53,-124 15.53,-118 15.53,-112 15.53,-112 15.53,-100 15.53,-100 15.53,-94 21.53,-88 27.53,-88 27.53,-88 128.47,-88 128.47,-88 134.47,-88 140.47,-94 140.47,-100 140.47,-100 140.47,-112 140.47,-112 140.47,-118 134.47,-124 128.47,-124"/>
<text xml:space="preserve" text-anchor="middle" x="78" y="-103" font-family="Helvetica,sans-Serif" font-size="10.00">HasSubexponentialMGF</text>
</a>
</g>
</g>
<!-- n15&#45;&gt;n4 -->
<g id="edge17" class="edge">
<title>n15&#45;&gt;n4</title>
<path fill="none" stroke="#64748b" d="M1018.59,-304.7C950.38,-294.31 873.46,-280.91 841,-269.2 749.02,-236.01 743.54,-188.49 650,-160 436.87,-95.09 370.23,-157.71 150,-124 149.62,-123.94 149.24,-123.88 148.85,-123.82"/>
<polygon fill="#64748b" stroke="#64748b" points="149.52,-121.45 142.2,-122.69 148.69,-126.28 149.52,-121.45"/>
</g>
<!-- n17 -->
<g id="node10" class="node">
<title>n17</title>
<g id="a_node10"><a xlink:href="vscode://vscode-remote/wsl+Ubuntu/tmp/statlib-main-refresh.tmBBiR/Statlib/HighDim/CovarianceMatrix/Properties.lean:456" xlink:title="lemma · Statlib/HighDim/CovarianceMatrix/Properties.lean:456" target="_blank">
<path fill="#eef2f6" stroke="#94a3b8" d="M1243.73,-413.2C1243.73,-413.2 1078.27,-413.2 1078.27,-413.2 1072.27,-413.2 1066.27,-407.2 1066.27,-401.2 1066.27,-401.2 1066.27,-389.2 1066.27,-389.2 1066.27,-383.2 1072.27,-377.2 1078.27,-377.2 1078.27,-377.2 1243.73,-377.2 1243.73,-377.2 1249.73,-377.2 1255.73,-383.2 1255.73,-389.2 1255.73,-389.2 1255.73,-401.2 1255.73,-401.2 1255.73,-407.2 1249.73,-413.2 1243.73,-413.2"/>
<text xml:space="preserve" text-anchor="middle" x="1161" y="-392.2" font-family="Helvetica,sans-Serif" font-size="10.00">subgaussian_norm_sq_subexponential</text>
</a>
</g>
</g>
<!-- n17&#45;&gt;n0 -->
<g id="edge21" class="edge">
<title>n17&#45;&gt;n0</title>
<path fill="none" stroke="#64748b" d="M1098.25,-376.72C1065.65,-367.14 1025.33,-354.52 990,-341.2 989.83,-341.14 989.66,-341.07 989.49,-341.01"/>
<polygon fill="#64748b" stroke="#64748b" points="990.54,-338.79 983.14,-338.47 988.73,-343.34 990.54,-338.79"/>
</g>
<!-- n17&#45;&gt;n2 -->
<g id="edge22" class="edge">
<title>n17&#45;&gt;n2</title>
<path fill="none" stroke="#64748b" d="M1217.45,-376.72C1258.17,-364.1 1312.08,-347.4 1348.08,-336.26"/>
<polygon fill="#64748b" stroke="#64748b" points="1348.52,-338.68 1354.48,-334.27 1347.07,-334 1348.52,-338.68"/>
</g>
<!-- n17&#45;&gt;n3 -->
<g id="edge23" class="edge">
<title>n17&#45;&gt;n3</title>
<path fill="none" stroke="#64748b" d="M1250.17,-376.77C1268.81,-368.95 1286.33,-357.62 1298,-341.2 1343.21,-277.61 1312.39,-178.1 1293.99,-132"/>
<polygon fill="#64748b" stroke="#64748b" points="1296.32,-131.24 1291.4,-125.69 1291.79,-133.1 1296.32,-131.24"/>
</g>
<!-- n17&#45;&gt;n15 -->
<g id="edge24" class="edge">
<title>n17&#45;&gt;n15</title>
<path fill="none" stroke="#64748b" d="M1156.8,-376.9C1154.78,-368.59 1152.32,-358.48 1150.11,-349.34"/>
<polygon fill="#64748b" stroke="#64748b" points="1152.54,-349 1148.51,-342.78 1147.78,-350.16 1152.54,-349"/>
</g>
<!-- n16 -->
<g id="node20" class="node">
<title>n16</title>
<g id="a_node20"><a xlink:href="vscode://vscode-remote/wsl+Ubuntu/tmp/statlib-main-refresh.tmBBiR/Statlib/StatFoundation/Concentration/ExponentialType/subexp_sum_mgf_le_of_indep.lean:11" xlink:title="theorem · Statlib/StatFoundation/Concentration/ExponentialType/subexp_sum_mgf_le_of_indep.lean:11" target="_blank">
<path fill="#ffe6a3" stroke="#d4a017" d="M386.1,-196C386.1,-196 257.9,-196 257.9,-196 251.9,-196 245.9,-190 245.9,-184 245.9,-184 245.9,-172 245.9,-172 245.9,-166 251.9,-160 257.9,-160 257.9,-160 386.1,-160 386.1,-160 392.1,-160 398.1,-166 398.1,-172 398.1,-172 398.1,-184 398.1,-184 398.1,-190 392.1,-196 386.1,-196"/>
<text xml:space="preserve" text-anchor="middle" x="322" y="-175" font-family="Helvetica,sans-Serif" font-size="10.00">subexp_sum_mgf_le_of_indep</text>
</a>
</g>
</g>
<!-- n17&#45;&gt;n16 -->
<g id="edge25" class="edge">
<title>n17&#45;&gt;n16</title>
<path fill="none" stroke="#64748b" d="M1077.73,-376.75C1029.8,-366.6 968.45,-353.43 914,-341.2 693.96,-291.76 632.95,-299.47 420,-225.2 400.26,-218.32 379.2,-208.7 361.67,-200.03"/>
<polygon fill="#64748b" stroke="#64748b" points="363.1,-198 355.74,-197.06 360.9,-202.38 363.1,-198"/>
</g>
<!-- n18 -->
<g id="node11" class="node">
<title>n18</title>
<g id="a_node11"><a xlink:href="vscode://vscode-remote/wsl+Ubuntu/tmp/statlib-main-refresh.tmBBiR/Statlib/HighDim/CovarianceMatrix/Properties.lean:622" xlink:title="lemma · Statlib/HighDim/CovarianceMatrix/Properties.lean:622" target="_blank">
<path fill="#eef2f6" stroke="#94a3b8" d="M1447.14,-413.2C1447.14,-413.2 1342.86,-413.2 1342.86,-413.2 1336.86,-413.2 1330.86,-407.2 1330.86,-401.2 1330.86,-401.2 1330.86,-389.2 1330.86,-389.2 1330.86,-383.2 1336.86,-377.2 1342.86,-377.2 1342.86,-377.2 1447.14,-377.2 1447.14,-377.2 1453.14,-377.2 1459.14,-383.2 1459.14,-389.2 1459.14,-389.2 1459.14,-401.2 1459.14,-401.2 1459.14,-407.2 1453.14,-413.2 1447.14,-413.2"/>
<text xml:space="preserve" text-anchor="middle" x="1395" y="-392.2" font-family="Helvetica,sans-Serif" font-size="10.00">isotropic_mean_sq_norm</text>
</a>
</g>
</g>
<!-- n18&#45;&gt;n2 -->
<g id="edge26" class="edge">
<title>n18&#45;&gt;n2</title>
<path fill="none" stroke="#64748b" d="M1393.02,-376.9C1392.08,-368.67 1390.94,-358.68 1389.91,-349.62"/>
<polygon fill="#64748b" stroke="#64748b" points="1392.36,-349.48 1389.13,-342.81 1387.49,-350.04 1392.36,-349.48"/>
</g>
<!-- n20 -->
<g id="node12" class="node">
<title>n20</title>
<g id="a_node12"><a xlink:href="vscode://vscode-remote/wsl+Ubuntu/tmp/statlib-main-refresh.tmBBiR/Statlib/HighDim/CovarianceMatrix/Properties.lean:651" xlink:title="lemma · Statlib/HighDim/CovarianceMatrix/Properties.lean:651" target="_blank">
<path fill="#eef2f6" stroke="#94a3b8" stroke-width="3" d="M1287.59,-485.2C1287.59,-485.2 1164.41,-485.2 1164.41,-485.2 1158.41,-485.2 1152.41,-479.2 1152.41,-473.2 1152.41,-473.2 1152.41,-461.2 1152.41,-461.2 1152.41,-455.2 1158.41,-449.2 1164.41,-449.2 1164.41,-449.2 1287.59,-449.2 1287.59,-449.2 1293.59,-449.2 1299.59,-455.2 1299.59,-461.2 1299.59,-461.2 1299.59,-473.2 1299.59,-473.2 1299.59,-479.2 1293.59,-485.2 1287.59,-485.2"/>
<text xml:space="preserve" text-anchor="middle" x="1226" y="-464.2" font-family="Helvetica,sans-Serif" font-size="10.00">isotropic_norm_concentration</text>
</a>
</g>
</g>
<!-- n20&#45;&gt;n0 -->
<g id="edge28" class="edge">
<title>n20&#45;&gt;n0</title>
<path fill="none" stroke="#64748b" d="M1151.02,-449.61C1120.71,-441.16 1086.09,-429.22 1057,-413.2 1025.13,-395.65 994.03,-367.49 974.06,-347.56"/>
<polygon fill="#64748b" stroke="#64748b" points="975.95,-345.99 969.29,-342.73 972.47,-349.43 975.95,-345.99"/>
</g>
<!-- n20&#45;&gt;n2 -->
<g id="edge29" class="edge">
<title>n20&#45;&gt;n2</title>
<path fill="none" stroke="#64748b" d="M1255,-447.74C1268.59,-438.32 1284.49,-426.14 1297,-413.2 1310.54,-399.19 1308.77,-391.49 1322,-377.2 1332.17,-366.21 1344.66,-355.5 1355.96,-346.62"/>
<polygon fill="#64748b" stroke="#64748b" points="1357.21,-348.75 1361.25,-342.53 1354.21,-344.87 1357.21,-348.75"/>
</g>
<!-- n20&#45;&gt;n3 -->
<g id="edge30" class="edge">
<title>n20&#45;&gt;n3</title>
<path fill="none" stroke="#64748b" d="M1242.57,-447.86C1262.39,-424.79 1294.9,-383.09 1311,-341.2 1339.9,-265.98 1342.81,-236.33 1317,-160 1313.61,-149.97 1307.91,-139.94 1302.15,-131.35"/>
<polygon fill="#64748b" stroke="#64748b" points="1304.23,-130.06 1298.2,-125.74 1300.22,-132.87 1304.23,-130.06"/>
</g>
<!-- n20&#45;&gt;n17 -->
<g id="edge31" class="edge">
<title>n20&#45;&gt;n17</title>
<path fill="none" stroke="#64748b" d="M1208.92,-447.81C1200.85,-439.12 1191.13,-428.65 1182.56,-419.42"/>
<polygon fill="#64748b" stroke="#64748b" points="1184.44,-417.84 1177.88,-414.38 1180.85,-421.17 1184.44,-417.84"/>
</g>
<!-- n20&#45;&gt;n18 -->
<g id="edge32" class="edge">
<title>n20&#45;&gt;n18</title>
<path fill="none" stroke="#64748b" d="M1270.4,-447.81C1293.34,-438.31 1321.4,-426.69 1345.08,-416.88"/>
<polygon fill="#64748b" stroke="#64748b" points="1346,-419.15 1351.53,-414.2 1344.13,-414.62 1346,-419.15"/>
</g>
<!-- n19 -->
<g id="node21" class="node">
<title>n19</title>
<g id="a_node21"><a xlink:href="vscode://vscode-remote/wsl+Ubuntu/tmp/statlib-main-refresh.tmBBiR/Statlib/StatFoundation/RandomVariable/SubExponential/subexp_meas_abs_ge_le_two_exp.lean:12" xlink:title="theorem · Statlib/StatFoundation/RandomVariable/SubExponential/subexp_meas_abs_ge_le_two_exp.lean:12" target="_blank">
<path fill="#ffe6a3" stroke="#d4a017" d="M190.39,-196C190.39,-196 41.61,-196 41.61,-196 35.61,-196 29.61,-190 29.61,-184 29.61,-184 29.61,-172 29.61,-172 29.61,-166 35.61,-160 41.61,-160 41.61,-160 190.39,-160 190.39,-160 196.39,-160 202.39,-166 202.39,-172 202.39,-172 202.39,-184 202.39,-184 202.39,-190 196.39,-196 190.39,-196"/>
<text xml:space="preserve" text-anchor="middle" x="116" y="-175" font-family="Helvetica,sans-Serif" font-size="10.00">subexp_meas_abs_ge_le_two_exp</text>
</a>
</g>
</g>
<!-- n20&#45;&gt;n19 -->
<g id="edge33" class="edge">
<title>n20&#45;&gt;n19</title>
<path fill="none" stroke="#64748b" d="M1150.96,-448.4C1107.93,-438.17 1052.91,-425.03 1004,-413.2 662.86,-330.67 572.04,-329.78 237,-225.2 213.2,-217.77 187.32,-208.11 165.62,-199.54"/>
<polygon fill="#64748b" stroke="#64748b" points="166.64,-197.31 159.23,-197 164.83,-201.87 166.64,-197.31"/>
</g>
<!-- n7 -->
<g id="node14" class="node">
<title>n7</title>
<g id="a_node14"><a xlink:href="vscode://vscode-remote/wsl+Ubuntu/tmp/statlib-main-refresh.tmBBiR/Statlib/StatFoundation/RandomVariable/SubGaussian/subgaussian_meas_abs_ge_le_two_exp.lean:9" xlink:title="theorem · Statlib/StatFoundation/RandomVariable/SubGaussian/subgaussian_meas_abs_ge_le_two_exp.lean:9" target="_blank">
<path fill="#ffe6a3" stroke="#d4a017" d="M569.34,-52C569.34,-52 396.66,-52 396.66,-52 390.66,-52 384.66,-46 384.66,-40 384.66,-40 384.66,-28 384.66,-28 384.66,-22 390.66,-16 396.66,-16 396.66,-16 569.34,-16 569.34,-16 575.34,-16 581.34,-22 581.34,-28 581.34,-28 581.34,-40 581.34,-40 581.34,-46 575.34,-52 569.34,-52"/>
<text xml:space="preserve" text-anchor="middle" x="483" y="-31" font-family="Helvetica,sans-Serif" font-size="10.00">subgaussian_meas_abs_ge_le_two_exp</text>
</a>
</g>
</g>
<!-- n8&#45;&gt;n7 -->
<g id="edge4" class="edge">
<title>n8&#45;&gt;n7</title>
<path fill="none" stroke="#64748b" d="M657.81,-87.52C624.74,-77.58 583.22,-65.11 548.95,-54.81"/>
<polygon fill="#64748b" stroke="#64748b" points="549.71,-52.48 542.31,-52.82 548.3,-57.18 549.71,-52.48"/>
</g>
<!-- n10 -->
<g id="node16" class="node">
<title>n10</title>
<g id="a_node16"><a xlink:href="vscode://vscode-remote/wsl+Ubuntu/tmp/statlib-main-refresh.tmBBiR/Statlib/StatFoundation/RandomVariable/SubExponential/subexp_mgf_le_of_sq_subgaussian.lean:13" xlink:title="lemma · Statlib/StatFoundation/RandomVariable/SubExponential/subexp_mgf_le_of_sq_subgaussian.lean:13" target="_blank">
<path fill="#eef2f6" stroke="#94a3b8" d="M575.2,-124C575.2,-124 494.8,-124 494.8,-124 488.8,-124 482.8,-118 482.8,-112 482.8,-112 482.8,-100 482.8,-100 482.8,-94 488.8,-88 494.8,-88 494.8,-88 575.2,-88 575.2,-88 581.2,-88 587.2,-94 587.2,-100 587.2,-100 587.2,-112 587.2,-112 587.2,-118 581.2,-124 575.2,-124"/>
<text xml:space="preserve" text-anchor="middle" x="535" y="-103" font-family="Helvetica,sans-Serif" font-size="10.00">sub_gauss_tail_abs</text>
</a>
</g>
</g>
<!-- n11 -->
<g id="node17" class="node">
<title>n11</title>
<g id="a_node17"><a xlink:href="vscode://vscode-remote/wsl+Ubuntu/tmp/statlib-main-refresh.tmBBiR/Statlib/StatFoundation/RandomVariable/SubGaussian/sq_le_two_mul_exp.lean:10" xlink:title="lemma · Statlib/StatFoundation/RandomVariable/SubGaussian/sq_le_two_mul_exp.lean:10" target="_blank">
<path fill="#eef2f6" stroke="#94a3b8" d="M453.19,-124C453.19,-124 372.81,-124 372.81,-124 366.81,-124 360.81,-118 360.81,-112 360.81,-112 360.81,-100 360.81,-100 360.81,-94 366.81,-88 372.81,-88 372.81,-88 453.19,-88 453.19,-88 459.19,-88 465.19,-94 465.19,-100 465.19,-100 465.19,-112 465.19,-112 465.19,-118 459.19,-124 453.19,-124"/>
<text xml:space="preserve" text-anchor="middle" x="413" y="-103" font-family="Helvetica,sans-Serif" font-size="10.00">sq_le_two_mul_exp</text>
</a>
</g>
</g>
<!-- n12 -->
<g id="node18" class="node">
<title>n12</title>
<g id="a_node18"><a xlink:href="vscode://vscode-remote/wsl+Ubuntu/tmp/statlib-main-refresh.tmBBiR/Statlib/StatFoundation/RandomVariable/SubGaussian/subgaussian_exp_sq_le_at_one_third.lean:14" xlink:title="theorem · Statlib/StatFoundation/RandomVariable/SubGaussian/subgaussian_exp_sq_le_at_one_third.lean:14" target="_blank">
<path fill="#ffe6a3" stroke="#d4a017" d="M331.23,-124C331.23,-124 170.77,-124 170.77,-124 164.77,-124 158.77,-118 158.77,-112 158.77,-112 158.77,-100 158.77,-100 158.77,-94 164.77,-88 170.77,-88 170.77,-88 331.23,-88 331.23,-88 337.23,-88 343.23,-94 343.23,-100 343.23,-100 343.23,-112 343.23,-112 343.23,-118 337.23,-124 331.23,-124"/>
<text xml:space="preserve" text-anchor="middle" x="251" y="-103" font-family="Helvetica,sans-Serif" font-size="10.00">subgaussian_exp_sq_le_at_one_third</text>
</a>
</g>
</g>
<!-- n12&#45;&gt;n7 -->
<g id="edge8" class="edge">
<title>n12&#45;&gt;n7</title>
<path fill="none" stroke="#64748b" d="M308.94,-87.52C341.87,-77.58 383.21,-65.11 417.33,-54.81"/>
<polygon fill="#64748b" stroke="#64748b" points="417.95,-57.19 423.94,-52.82 416.53,-52.5 417.95,-57.19"/>
</g>
<!-- n13&#45;&gt;n8 -->
<g id="edge12" class="edge">
<title>n13&#45;&gt;n8</title>
<path fill="none" stroke="#64748b" d="M580.21,-159.52C605.46,-149.75 637.06,-137.53 663.41,-127.34"/>
<polygon fill="#64748b" stroke="#64748b" points="664,-129.74 669.64,-124.93 662.23,-125.17 664,-129.74"/>
</g>
<!-- n13&#45;&gt;n10 -->
<g id="edge9" class="edge">
<title>n13&#45;&gt;n10</title>
<path fill="none" stroke="#64748b" d="M535,-159.7C535,-151.47 535,-141.48 535,-132.42"/>
<polygon fill="#64748b" stroke="#64748b" points="537.45,-132.62 535,-125.62 532.55,-132.62 537.45,-132.62"/>
</g>
<!-- n13&#45;&gt;n11 -->
<g id="edge10" class="edge">
<title>n13&#45;&gt;n11</title>
<path fill="none" stroke="#64748b" d="M504.53,-159.52C488.1,-150.09 467.7,-138.38 450.32,-128.41"/>
<polygon fill="#64748b" stroke="#64748b" points="451.69,-126.37 444.4,-125.01 449.25,-130.62 451.69,-126.37"/>
</g>
<!-- n13&#45;&gt;n12 -->
<g id="edge11" class="edge">
<title>n13&#45;&gt;n12</title>
<path fill="none" stroke="#64748b" d="M464.07,-159.52C423.17,-149.44 371.66,-136.74 329.54,-126.36"/>
<polygon fill="#64748b" stroke="#64748b" points="330.37,-124.04 322.99,-124.74 329.2,-128.8 330.37,-124.04"/>
</g>
<!-- n16&#45;&gt;n4 -->
<g id="edge20" class="edge">
<title>n16&#45;&gt;n4</title>
<path fill="none" stroke="#64748b" d="M261.06,-159.52C226.28,-149.54 182.59,-137 146.61,-126.68"/>
<polygon fill="#64748b" stroke="#64748b" points="147.45,-124.37 140.04,-124.8 146.1,-129.08 147.45,-124.37"/>
</g>
<!-- n19&#45;&gt;n4 -->
<g id="edge27" class="edge">
<title>n19&#45;&gt;n4</title>
<path fill="none" stroke="#64748b" d="M106.61,-159.7C102.01,-151.22 96.38,-140.86 91.34,-131.58"/>
<polygon fill="#64748b" stroke="#64748b" points="93.5,-130.42 88.01,-125.43 89.19,-132.76 93.5,-130.42"/>
</g>
</g>
</svg>
