<?xml version="1.0" encoding="UTF-8" standalone="no"?>
<!DOCTYPE svg PUBLIC "-//W3C//DTD SVG 1.1//EN"
 "http://www.w3.org/Graphics/SVG/1.1/DTD/svg11.dtd">
<!-- Generated by graphviz version 15.0.0 (20260523.1842)
 -->
<!-- Title: isotropic_norm_concentration Pages: 1 -->
<svg width="1543pt" height="555pt"
 viewBox="0.00 0.00 1543.00 555.00" xmlns="http://www.w3.org/2000/svg" xmlns:xlink="http://www.w3.org/1999/xlink">
<g id="graph0" class="graph" transform="scale(1 1) rotate(0) translate(4 551.2)">
<title>isotropic_norm_concentration</title>
<polygon fill="white" stroke="none" points="-4,4 -4,-551.2 1539,-551.2 1539,4 -4,4"/>
<text xml:space="preserve" text-anchor="middle" x="767.5" y="-530.6" font-family="Helvetica,sans-Serif" font-size="14.00">Proof narrative — isotropic_norm_concentration &#160;(21 decls)</text>
<g id="clust1" class="cluster">
<title>cluster_0</title>
<path fill="none" stroke="#cbd5e1" stroke-dasharray="5,2" d="M854,-80C854,-80 1515,-80 1515,-80 1521,-80 1527,-86 1527,-92 1527,-92 1527,-502.4 1527,-502.4 1527,-508.4 1521,-514.4 1515,-514.4 1515,-514.4 854,-514.4 854,-514.4 848,-514.4 842,-508.4 842,-502.4 842,-502.4 842,-92 842,-92 842,-86 848,-80 854,-80"/>
<text xml:space="preserve" text-anchor="middle" x="1184.5" y="-500.5" font-family="Helvetica,sans-Serif" font-size="11.00">HighDim</text>
</g>
<g id="clust2" class="cluster">
<title>cluster_1</title>
<path fill="none" stroke="#cbd5e1" stroke-dasharray="5,2" d="M20,-8C20,-8 822,-8 822,-8 828,-8 834,-14 834,-20 834,-20 834,-213.2 834,-213.2 834,-219.2 828,-225.2 822,-225.2 822,-225.2 20,-225.2 20,-225.2 14,-225.2 8,-219.2 8,-213.2 8,-213.2 8,-20 8,-20 8,-14 14,-8 20,-8"/>
<text xml:space="preserve" text-anchor="middle" x="421" y="-211.3" font-family="Helvetica,sans-Serif" font-size="11.00">StatFoundation</text>
</g>
<!-- n0 -->
<g id="node1" class="node">
<title>n0</title>
<g id="a_node1"><a xlink:href="vscode://vscode-remote/wsl+Ubuntu/home/ai4stat/statlib/Statlib/HighDim/Vocabulary/RandomVector.lean:83" xlink:title="structure · Statlib/HighDim/Vocabulary/RandomVector.lean:83" target="_blank">
<path fill="#e8dcff" stroke="#8b5cf6" d="M1277.4,-196C1277.4,-196 1242.6,-196 1242.6,-196 1236.6,-196 1230.6,-190 1230.6,-184 1230.6,-184 1230.6,-172 1230.6,-172 1230.6,-166 1236.6,-160 1242.6,-160 1242.6,-160 1277.4,-160 1277.4,-160 1283.4,-160 1289.4,-166 1289.4,-172 1289.4,-172 1289.4,-184 1289.4,-184 1289.4,-190 1283.4,-196 1277.4,-196"/>
<text xml:space="preserve" text-anchor="middle" x="1260" y="-175" font-family="Helvetica,sans-Serif" font-size="10.00">HasMean</text>
</a>
</g>
</g>
<!-- n1 -->
<g id="node2" class="node">
<title>n1</title>
<g id="a_node2"><a xlink:href="vscode://vscode-remote/wsl+Ubuntu/home/ai4stat/statlib/Statlib/HighDim/Vocabulary/RandomVector.lean:101" xlink:title="structure · Statlib/HighDim/Vocabulary/RandomVector.lean:101" target="_blank">
<path fill="#e8dcff" stroke="#8b5cf6" d="M1506.79,-269.2C1506.79,-269.2 1419.21,-269.2 1419.21,-269.2 1413.21,-269.2 1407.21,-263.2 1407.21,-257.2 1407.21,-257.2 1407.21,-245.2 1407.21,-245.2 1407.21,-239.2 1413.21,-233.2 1419.21,-233.2 1419.21,-233.2 1506.79,-233.2 1506.79,-233.2 1512.79,-233.2 1518.79,-239.2 1518.79,-245.2 1518.79,-245.2 1518.79,-257.2 1518.79,-257.2 1518.79,-263.2 1512.79,-269.2 1506.79,-269.2"/>
<text xml:space="preserve" text-anchor="middle" x="1463" y="-248.2" font-family="Helvetica,sans-Serif" font-size="10.00">HasCovarianceMatrix</text>
</a>
</g>
</g>
<!-- n2 -->
<g id="node3" class="node">
<title>n2</title>
<g id="a_node3"><a xlink:href="vscode://vscode-remote/wsl+Ubuntu/home/ai4stat/statlib/Statlib/HighDim/Vocabulary/RandomVector.lean:109" xlink:title="def · Statlib/HighDim/Vocabulary/RandomVector.lean:109" target="_blank">
<path fill="#d6e9ff" stroke="#3b82f6" d="M1469.79,-341.2C1469.79,-341.2 1432.21,-341.2 1432.21,-341.2 1426.21,-341.2 1420.21,-335.2 1420.21,-329.2 1420.21,-329.2 1420.21,-317.2 1420.21,-317.2 1420.21,-311.2 1426.21,-305.2 1432.21,-305.2 1432.21,-305.2 1469.79,-305.2 1469.79,-305.2 1475.79,-305.2 1481.79,-311.2 1481.79,-317.2 1481.79,-317.2 1481.79,-329.2 1481.79,-329.2 1481.79,-335.2 1475.79,-341.2 1469.79,-341.2"/>
<text xml:space="preserve" text-anchor="middle" x="1451" y="-320.2" font-family="Helvetica,sans-Serif" font-size="10.00">IsIsotropic</text>
</a>
</g>
</g>
<!-- n2&#45;&gt;n1 -->
<g id="edge1" class="edge">
<title>n2&#45;&gt;n1</title>
<path fill="none" stroke="#64748b" d="M1453.97,-304.9C1455.38,-296.67 1457.09,-286.68 1458.64,-277.62"/>
<polygon fill="#64748b" stroke="#64748b" points="1461.04,-278.11 1459.81,-270.8 1456.21,-277.28 1461.04,-278.11"/>
</g>
<!-- n3 -->
<g id="node4" class="node">
<title>n3</title>
<g id="a_node4"><a xlink:href="vscode://vscode-remote/wsl+Ubuntu/home/ai4stat/statlib/Statlib/HighDim/Vocabulary/RandomVector.lean:52" xlink:title="structure · Statlib/HighDim/Vocabulary/RandomVector.lean:52" target="_blank">
<path fill="#e8dcff" stroke="#8b5cf6" d="M1317.36,-124C1317.36,-124 1228.64,-124 1228.64,-124 1222.64,-124 1216.64,-118 1216.64,-112 1216.64,-112 1216.64,-100 1216.64,-100 1216.64,-94 1222.64,-88 1228.64,-88 1228.64,-88 1317.36,-88 1317.36,-88 1323.36,-88 1329.36,-94 1329.36,-100 1329.36,-100 1329.36,-112 1329.36,-112 1329.36,-118 1323.36,-124 1317.36,-124"/>
<text xml:space="preserve" text-anchor="middle" x="1273" y="-103" font-family="Helvetica,sans-Serif" font-size="10.00">IsSubGaussianVector</text>
</a>
</g>
</g>
<!-- n5 -->
<g id="node5" class="node">
<title>n5</title>
<g id="a_node5"><a xlink:href="vscode://vscode-remote/wsl+Ubuntu/home/ai4stat/statlib/Statlib/HighDim/Vocabulary/Norms.lean:32" xlink:title="lemma · Statlib/HighDim/Vocabulary/Norms.lean:32" target="_blank">
<path fill="#eef2f6" stroke="#94a3b8" d="M1152.69,-124C1152.69,-124 1097.31,-124 1097.31,-124 1091.31,-124 1085.31,-118 1085.31,-112 1085.31,-112 1085.31,-100 1085.31,-100 1085.31,-94 1091.31,-88 1097.31,-88 1097.31,-88 1152.69,-88 1152.69,-88 1158.69,-88 1164.69,-94 1164.69,-100 1164.69,-100 1164.69,-112 1164.69,-112 1164.69,-118 1158.69,-124 1152.69,-124"/>
<text xml:space="preserve" text-anchor="middle" x="1125" y="-103" font-family="Helvetica,sans-Serif" font-size="10.00">inner_eq_sum</text>
</a>
</g>
</g>
<!-- n6 -->
<g id="node6" class="node">
<title>n6</title>
<g id="a_node6"><a xlink:href="vscode://vscode-remote/wsl+Ubuntu/home/ai4stat/statlib/Statlib/HighDim/Concentration/HansonWright.lean:1389" xlink:title="lemma · Statlib/HighDim/Concentration/HansonWright.lean:1389" target="_blank">
<path fill="#eef2f6" stroke="#94a3b8" d="M1180.76,-196C1180.76,-196 1069.24,-196 1069.24,-196 1063.24,-196 1057.24,-190 1057.24,-184 1057.24,-184 1057.24,-172 1057.24,-172 1057.24,-166 1063.24,-160 1069.24,-160 1069.24,-160 1180.76,-160 1180.76,-160 1186.76,-160 1192.76,-166 1192.76,-172 1192.76,-172 1192.76,-184 1192.76,-184 1192.76,-190 1186.76,-196 1180.76,-196"/>
<text xml:space="preserve" text-anchor="middle" x="1125" y="-175" font-family="Helvetica,sans-Serif" font-size="10.00">subgaussian_vector_coord</text>
</a>
</g>
</g>
<!-- n6&#45;&gt;n3 -->
<g id="edge2" class="edge">
<title>n6&#45;&gt;n3</title>
<path fill="none" stroke="#64748b" d="M1161.96,-159.52C1182.17,-149.96 1207.34,-138.05 1228.61,-128"/>
<polygon fill="#64748b" stroke="#64748b" points="1229.6,-130.24 1234.88,-125.03 1227.51,-125.81 1229.6,-130.24"/>
</g>
<!-- n6&#45;&gt;n5 -->
<g id="edge3" class="edge">
<title>n6&#45;&gt;n5</title>
<path fill="none" stroke="#64748b" d="M1125,-159.7C1125,-151.47 1125,-141.48 1125,-132.42"/>
<polygon fill="#64748b" stroke="#64748b" points="1127.45,-132.62 1125,-125.62 1122.55,-132.62 1127.45,-132.62"/>
</g>
<!-- n9 -->
<g id="node7" class="node">
<title>n9</title>
<g id="a_node7"><a xlink:href="vscode://vscode-remote/wsl+Ubuntu/home/ai4stat/statlib/Statlib/HighDim/Concentration/HansonWright.lean:2109" xlink:title="lemma · Statlib/HighDim/Concentration/HansonWright.lean:2109" target="_blank">
<path fill="#eef2f6" stroke="#94a3b8" d="M1256.62,-269.2C1256.62,-269.2 1073.38,-269.2 1073.38,-269.2 1067.38,-269.2 1061.38,-263.2 1061.38,-257.2 1061.38,-257.2 1061.38,-245.2 1061.38,-245.2 1061.38,-239.2 1067.38,-233.2 1073.38,-233.2 1073.38,-233.2 1256.62,-233.2 1256.62,-233.2 1262.62,-233.2 1268.62,-239.2 1268.62,-245.2 1268.62,-245.2 1268.62,-257.2 1268.62,-257.2 1268.62,-263.2 1262.62,-269.2 1256.62,-269.2"/>
<text xml:space="preserve" text-anchor="middle" x="1165" y="-248.2" font-family="Helvetica,sans-Serif" font-size="10.00">coord_sq_centered_scaled_exp_integrable</text>
</a>
</g>
</g>
<!-- n9&#45;&gt;n0 -->
<g id="edge5" class="edge">
<title>n9&#45;&gt;n0</title>
<path fill="none" stroke="#64748b" d="M1205.08,-232.85C1209.23,-230.49 1213.29,-227.93 1217,-225.2 1225.69,-218.8 1234.05,-210.5 1241.05,-202.69"/>
<polygon fill="#64748b" stroke="#64748b" points="1242.87,-204.34 1245.6,-197.45 1239.17,-201.13 1242.87,-204.34"/>
</g>
<!-- n9&#45;&gt;n3 -->
<g id="edge6" class="edge">
<title>n9&#45;&gt;n3</title>
<path fill="none" stroke="#64748b" d="M1194.92,-232.8C1197.55,-230.48 1199.97,-227.94 1202,-225.2 1220.03,-200.84 1206.63,-186.12 1222,-160 1228.42,-149.09 1237.51,-138.68 1246.25,-130.03"/>
<polygon fill="#64748b" stroke="#64748b" points="1247.75,-131.98 1251.11,-125.37 1244.36,-128.44 1247.75,-131.98"/>
</g>
<!-- n9&#45;&gt;n6 -->
<g id="edge7" class="edge">
<title>n9&#45;&gt;n6</title>
<path fill="none" stroke="#64748b" d="M1155.32,-232.96C1150.31,-224.04 1144.1,-213 1138.62,-203.24"/>
<polygon fill="#64748b" stroke="#64748b" points="1140.9,-202.3 1135.34,-197.4 1136.63,-204.7 1140.9,-202.3"/>
</g>
<!-- n8 -->
<g id="node15" class="node">
<title>n8</title>
<g id="a_node15"><a xlink:href="vscode://vscode-remote/wsl+Ubuntu/home/ai4stat/statlib/Statlib/StatFoundation/RandomVariable/SubGaussian/subgaussian_exp_sq_le_at_one_third.lean:166" xlink:title="theorem · Statlib/StatFoundation/RandomVariable/SubGaussian/subgaussian_exp_sq_le_at_one_third.lean:166" target="_blank">
<path fill="#ffe6a3" stroke="#d4a017" d="M814.3,-124C814.3,-124 617.7,-124 617.7,-124 611.7,-124 605.7,-118 605.7,-112 605.7,-112 605.7,-100 605.7,-100 605.7,-94 611.7,-88 617.7,-88 617.7,-88 814.3,-88 814.3,-88 820.3,-88 826.3,-94 826.3,-100 826.3,-100 826.3,-112 826.3,-112 826.3,-118 820.3,-124 814.3,-124"/>
<text xml:space="preserve" text-anchor="middle" x="716" y="-103" font-family="Helvetica,sans-Serif" font-size="10.00">subgaussian_integrable_exp_sq_at_one_third</text>
</a>
</g>
</g>
<!-- n9&#45;&gt;n8 -->
<g id="edge8" class="edge">
<title>n9&#45;&gt;n8</title>
<path fill="none" stroke="#64748b" d="M1077.16,-232.74C1067.28,-230.39 1057.39,-227.86 1048,-225.2 946.61,-196.45 831.36,-152.88 766.8,-127.45"/>
<polygon fill="#64748b" stroke="#64748b" points="768,-125.29 760.59,-124.99 766.2,-129.84 768,-125.29"/>
</g>
<!-- n14 -->
<g id="node8" class="node">
<title>n14</title>
<g id="a_node8"><a xlink:href="vscode://vscode-remote/wsl+Ubuntu/home/ai4stat/statlib/Statlib/HighDim/Concentration/HansonWright.lean:2044" xlink:title="lemma · Statlib/HighDim/Concentration/HansonWright.lean:2044" target="_blank">
<path fill="#eef2f6" stroke="#94a3b8" d="M1031.67,-269.2C1031.67,-269.2 862.33,-269.2 862.33,-269.2 856.33,-269.2 850.33,-263.2 850.33,-257.2 850.33,-257.2 850.33,-245.2 850.33,-245.2 850.33,-239.2 856.33,-233.2 862.33,-233.2 862.33,-233.2 1031.67,-233.2 1031.67,-233.2 1037.67,-233.2 1043.67,-239.2 1043.67,-245.2 1043.67,-245.2 1043.67,-257.2 1043.67,-257.2 1043.67,-263.2 1037.67,-269.2 1031.67,-269.2"/>
<text xml:space="preserve" text-anchor="middle" x="947" y="-248.2" font-family="Helvetica,sans-Serif" font-size="10.00">coord_sq_centered_mgf_bound_explicit</text>
</a>
</g>
</g>
<!-- n14&#45;&gt;n0 -->
<g id="edge14" class="edge">
<title>n14&#45;&gt;n0</title>
<path fill="none" stroke="#64748b" d="M1043.92,-234.12C1046.64,-233.79 1049.34,-233.49 1052,-233.2 1085.19,-229.64 1170.79,-237.05 1202,-225.2 1215.23,-220.18 1227.79,-210.95 1237.82,-202.05"/>
<polygon fill="#64748b" stroke="#64748b" points="1239.45,-203.89 1242.91,-197.33 1236.11,-200.29 1239.45,-203.89"/>
</g>
<!-- n14&#45;&gt;n3 -->
<g id="edge15" class="edge">
<title>n14&#45;&gt;n3</title>
<path fill="none" stroke="#64748b" d="M961.54,-232.75C979.65,-212.18 1012.55,-178.46 1048,-160 1075.52,-145.67 1151.9,-129.31 1208.06,-118.6"/>
<polygon fill="#64748b" stroke="#64748b" points="1208.28,-121.06 1214.71,-117.35 1207.37,-116.24 1208.28,-121.06"/>
</g>
<!-- n14&#45;&gt;n6 -->
<g id="edge16" class="edge">
<title>n14&#45;&gt;n6</title>
<path fill="none" stroke="#64748b" d="M990.54,-232.78C1015.65,-222.74 1047.35,-210.06 1073.67,-199.53"/>
<polygon fill="#64748b" stroke="#64748b" points="1074.29,-201.92 1079.88,-197.05 1072.47,-197.37 1074.29,-201.92"/>
</g>
<!-- n13 -->
<g id="node19" class="node">
<title>n13</title>
<g id="a_node19"><a xlink:href="vscode://vscode-remote/wsl+Ubuntu/home/ai4stat/statlib/Statlib/StatFoundation/RandomVariable/SubExponential/subexp_mgf_le_of_sq_subgaussian.lean:72" xlink:title="theorem · Statlib/StatFoundation/RandomVariable/SubExponential/subexp_mgf_le_of_sq_subgaussian.lean:72" target="_blank">
<path fill="#ffe6a3" stroke="#d4a017" d="M628.84,-196C628.84,-196 441.16,-196 441.16,-196 435.16,-196 429.16,-190 429.16,-184 429.16,-184 429.16,-172 429.16,-172 429.16,-166 435.16,-160 441.16,-160 441.16,-160 628.84,-160 628.84,-160 634.84,-160 640.84,-166 640.84,-172 640.84,-172 640.84,-184 640.84,-184 640.84,-190 634.84,-196 628.84,-196"/>
<text xml:space="preserve" text-anchor="middle" x="535" y="-175" font-family="Helvetica,sans-Serif" font-size="10.00">subexp_mgf_le_of_sq_subgaussian_explicit</text>
</a>
</g>
</g>
<!-- n14&#45;&gt;n13 -->
<g id="edge17" class="edge">
<title>n14&#45;&gt;n13</title>
<path fill="none" stroke="#64748b" d="M850.12,-236.8C825.88,-233.24 799.96,-229.25 776,-225.2 727.56,-217.02 673.85,-206.83 629.46,-198.11"/>
<polygon fill="#64748b" stroke="#64748b" points="630.11,-195.74 622.76,-196.79 629.16,-200.55 630.11,-195.74"/>
</g>
<!-- n15 -->
<g id="node9" class="node">
<title>n15</title>
<g id="a_node9"><a xlink:href="vscode://vscode-remote/wsl+Ubuntu/home/ai4stat/statlib/Statlib/HighDim/Concentration/HansonWright.lean:2192" xlink:title="lemma · Statlib/HighDim/Concentration/HansonWright.lean:2192" target="_blank">
<path fill="#eef2f6" stroke="#94a3b8" d="M1287.04,-341.2C1287.04,-341.2 1020.96,-341.2 1020.96,-341.2 1014.96,-341.2 1008.96,-335.2 1008.96,-329.2 1008.96,-329.2 1008.96,-317.2 1008.96,-317.2 1008.96,-311.2 1014.96,-305.2 1020.96,-305.2 1020.96,-305.2 1287.04,-305.2 1287.04,-305.2 1293.04,-305.2 1299.04,-311.2 1299.04,-317.2 1299.04,-317.2 1299.04,-329.2 1299.04,-329.2 1299.04,-335.2 1293.04,-341.2 1287.04,-341.2"/>
<text xml:space="preserve" text-anchor="middle" x="1154" y="-320.2" font-family="Helvetica,sans-Serif" font-size="10.00">coord_sq_centered_scaled_subexponential_explicit_of_range</text>
</a>
</g>
</g>
<!-- n15&#45;&gt;n0 -->
<g id="edge18" class="edge">
<title>n15&#45;&gt;n0</title>
<path fill="none" stroke="#64748b" d="M1232.04,-304.8C1250.09,-296.96 1267.17,-285.61 1278,-269.2 1290.83,-249.76 1283.19,-223.18 1274.25,-203.91"/>
<polygon fill="#64748b" stroke="#64748b" points="1276.5,-202.94 1271.2,-197.76 1272.11,-205.12 1276.5,-202.94"/>
</g>
<!-- n15&#45;&gt;n3 -->
<g id="edge19" class="edge">
<title>n15&#45;&gt;n3</title>
<path fill="none" stroke="#64748b" d="M1230.91,-304.78C1251.2,-296.89 1271.46,-285.52 1286,-269.2 1318.47,-232.74 1308.67,-207.64 1298,-160 1295.85,-150.42 1291.78,-140.54 1287.53,-131.94"/>
<polygon fill="#64748b" stroke="#64748b" points="1289.73,-130.86 1284.32,-125.79 1285.38,-133.13 1289.73,-130.86"/>
</g>
<!-- n15&#45;&gt;n9 -->
<g id="edge21" class="edge">
<title>n15&#45;&gt;n9</title>
<path fill="none" stroke="#64748b" d="M1156.72,-304.9C1158.01,-296.67 1159.58,-286.68 1161.01,-277.62"/>
<polygon fill="#64748b" stroke="#64748b" points="1163.41,-278.1 1162.08,-270.8 1158.57,-277.33 1163.41,-278.1"/>
</g>
<!-- n15&#45;&gt;n14 -->
<g id="edge22" class="edge">
<title>n15&#45;&gt;n14</title>
<path fill="none" stroke="#64748b" d="M1102.3,-304.72C1073.17,-294.87 1036.66,-282.52 1006.36,-272.27"/>
<polygon fill="#64748b" stroke="#64748b" points="1007.25,-269.99 999.83,-270.07 1005.68,-274.63 1007.25,-269.99"/>
</g>
<!-- n4 -->
<g id="node13" class="node">
<title>n4</title>
<g id="a_node13"><a xlink:href="vscode://vscode-remote/wsl+Ubuntu/home/ai4stat/statlib/Statlib/StatFoundation/Vocabulary/RandomVariable.lean:74" xlink:title="structure · Statlib/StatFoundation/Vocabulary/RandomVariable.lean:74" target="_blank">
<path fill="#e8dcff" stroke="#8b5cf6" d="M128.47,-124C128.47,-124 27.53,-124 27.53,-124 21.53,-124 15.53,-118 15.53,-112 15.53,-112 15.53,-100 15.53,-100 15.53,-94 21.53,-88 27.53,-88 27.53,-88 128.47,-88 128.47,-88 134.47,-88 140.47,-94 140.47,-100 140.47,-100 140.47,-112 140.47,-112 140.47,-118 134.47,-124 128.47,-124"/>
<text xml:space="preserve" text-anchor="middle" x="78" y="-103" font-family="Helvetica,sans-Serif" font-size="10.00">HasSubexponentialMGF</text>
</a>
</g>
</g>
<!-- n15&#45;&gt;n4 -->
<g id="edge20" class="edge">
<title>n15&#45;&gt;n4</title>
<path fill="none" stroke="#64748b" d="M1008.72,-308.41C954.96,-300.52 894.19,-288.23 841,-269.2 748.93,-236.26 743.54,-188.49 650,-160 436.87,-95.09 370.23,-157.71 150,-124 149.62,-123.94 149.24,-123.88 148.85,-123.82"/>
<polygon fill="#64748b" stroke="#64748b" points="149.52,-121.45 142.2,-122.69 148.69,-126.28 149.52,-121.45"/>
</g>
<!-- n17 -->
<g id="node10" class="node">
<title>n17</title>
<g id="a_node10"><a xlink:href="vscode://vscode-remote/wsl+Ubuntu/home/ai4stat/statlib/Statlib/HighDim/CovarianceMatrix/Properties.lean:458" xlink:title="lemma · Statlib/HighDim/CovarianceMatrix/Properties.lean:458" target="_blank">
<path fill="#eef2f6" stroke="#94a3b8" d="M1300.73,-413.2C1300.73,-413.2 1135.27,-413.2 1135.27,-413.2 1129.27,-413.2 1123.27,-407.2 1123.27,-401.2 1123.27,-401.2 1123.27,-389.2 1123.27,-389.2 1123.27,-383.2 1129.27,-377.2 1135.27,-377.2 1135.27,-377.2 1300.73,-377.2 1300.73,-377.2 1306.73,-377.2 1312.73,-383.2 1312.73,-389.2 1312.73,-389.2 1312.73,-401.2 1312.73,-401.2 1312.73,-407.2 1306.73,-413.2 1300.73,-413.2"/>
<text xml:space="preserve" text-anchor="middle" x="1218" y="-392.2" font-family="Helvetica,sans-Serif" font-size="10.00">subgaussian_norm_sq_subexponential</text>
</a>
</g>
</g>
<!-- n17&#45;&gt;n0 -->
<g id="edge24" class="edge">
<title>n17&#45;&gt;n0</title>
<path fill="none" stroke="#64748b" d="M1267.03,-376.93C1282.99,-368.7 1298.91,-357.1 1308,-341.2 1333.85,-295.98 1300.83,-235.55 1278.11,-202.7"/>
<polygon fill="#64748b" stroke="#64748b" points="1280.37,-201.65 1274.32,-197.36 1276.38,-204.49 1280.37,-201.65"/>
</g>
<!-- n17&#45;&gt;n2 -->
<g id="edge25" class="edge">
<title>n17&#45;&gt;n2</title>
<path fill="none" stroke="#64748b" d="M1276.19,-376.72C1318.55,-363.99 1374.76,-347.1 1411.86,-335.96"/>
<polygon fill="#64748b" stroke="#64748b" points="1412.49,-338.33 1418.49,-333.97 1411.08,-333.63 1412.49,-338.33"/>
</g>
<!-- n17&#45;&gt;n3 -->
<g id="edge26" class="edge">
<title>n17&#45;&gt;n3</title>
<path fill="none" stroke="#64748b" d="M1275.22,-376.78C1291.95,-368.74 1308.32,-357.28 1318,-341.2 1333.46,-315.5 1356.08,-302.13 1308,-160 1304.58,-149.88 1298.73,-139.83 1292.79,-131.25"/>
<polygon fill="#64748b" stroke="#64748b" points="1294.81,-129.86 1288.71,-125.64 1290.85,-132.74 1294.81,-129.86"/>
</g>
<!-- n17&#45;&gt;n15 -->
<g id="edge27" class="edge">
<title>n17&#45;&gt;n15</title>
<path fill="none" stroke="#64748b" d="M1202.18,-376.9C1194.04,-368 1184.01,-357.02 1175.21,-347.4"/>
<polygon fill="#64748b" stroke="#64748b" points="1177.19,-345.93 1170.66,-342.42 1173.57,-349.24 1177.19,-345.93"/>
</g>
<!-- n16 -->
<g id="node20" class="node">
<title>n16</title>
<g id="a_node20"><a xlink:href="vscode://vscode-remote/wsl+Ubuntu/home/ai4stat/statlib/Statlib/StatFoundation/Concentration/ExponentialType/subexp_sum_mgf_le_of_indep.lean:11" xlink:title="theorem · Statlib/StatFoundation/Concentration/ExponentialType/subexp_sum_mgf_le_of_indep.lean:11" target="_blank">
<path fill="#ffe6a3" stroke="#d4a017" d="M386.1,-196C386.1,-196 257.9,-196 257.9,-196 251.9,-196 245.9,-190 245.9,-184 245.9,-184 245.9,-172 245.9,-172 245.9,-166 251.9,-160 257.9,-160 257.9,-160 386.1,-160 386.1,-160 392.1,-160 398.1,-166 398.1,-172 398.1,-172 398.1,-184 398.1,-184 398.1,-190 392.1,-196 386.1,-196"/>
<text xml:space="preserve" text-anchor="middle" x="322" y="-175" font-family="Helvetica,sans-Serif" font-size="10.00">subexp_sum_mgf_le_of_indep</text>
</a>
</g>
</g>
<!-- n17&#45;&gt;n16 -->
<g id="edge28" class="edge">
<title>n17&#45;&gt;n16</title>
<path fill="none" stroke="#64748b" d="M1123.05,-381.38C971.58,-359.32 667.13,-308.36 420,-225.2 400.03,-218.48 378.78,-208.8 361.19,-200.03"/>
<polygon fill="#64748b" stroke="#64748b" points="362.59,-197.99 355.24,-197.02 360.38,-202.37 362.59,-197.99"/>
</g>
<!-- n18 -->
<g id="node11" class="node">
<title>n18</title>
<g id="a_node11"><a xlink:href="vscode://vscode-remote/wsl+Ubuntu/home/ai4stat/statlib/Statlib/HighDim/CovarianceMatrix/Properties.lean:624" xlink:title="lemma · Statlib/HighDim/CovarianceMatrix/Properties.lean:624" target="_blank">
<path fill="#eef2f6" stroke="#94a3b8" d="M1487.14,-413.2C1487.14,-413.2 1382.86,-413.2 1382.86,-413.2 1376.86,-413.2 1370.86,-407.2 1370.86,-401.2 1370.86,-401.2 1370.86,-389.2 1370.86,-389.2 1370.86,-383.2 1376.86,-377.2 1382.86,-377.2 1382.86,-377.2 1487.14,-377.2 1487.14,-377.2 1493.14,-377.2 1499.14,-383.2 1499.14,-389.2 1499.14,-389.2 1499.14,-401.2 1499.14,-401.2 1499.14,-407.2 1493.14,-413.2 1487.14,-413.2"/>
<text xml:space="preserve" text-anchor="middle" x="1435" y="-392.2" font-family="Helvetica,sans-Serif" font-size="10.00">isotropic_mean_sq_norm</text>
</a>
</g>
</g>
<!-- n18&#45;&gt;n2 -->
<g id="edge29" class="edge">
<title>n18&#45;&gt;n2</title>
<path fill="none" stroke="#64748b" d="M1438.96,-376.9C1440.85,-368.59 1443.17,-358.48 1445.25,-349.34"/>
<polygon fill="#64748b" stroke="#64748b" points="1447.58,-350.15 1446.75,-342.78 1442.8,-349.06 1447.58,-350.15"/>
</g>
<!-- n20 -->
<g id="node12" class="node">
<title>n20</title>
<g id="a_node12"><a xlink:href="vscode://vscode-remote/wsl+Ubuntu/home/ai4stat/statlib/Statlib/HighDim/CovarianceMatrix/Properties.lean:653" xlink:title="lemma · Statlib/HighDim/CovarianceMatrix/Properties.lean:653" target="_blank">
<path fill="#eef2f6" stroke="#94a3b8" stroke-width="3" d="M1403.59,-485.2C1403.59,-485.2 1280.41,-485.2 1280.41,-485.2 1274.41,-485.2 1268.41,-479.2 1268.41,-473.2 1268.41,-473.2 1268.41,-461.2 1268.41,-461.2 1268.41,-455.2 1274.41,-449.2 1280.41,-449.2 1280.41,-449.2 1403.59,-449.2 1403.59,-449.2 1409.59,-449.2 1415.59,-455.2 1415.59,-461.2 1415.59,-461.2 1415.59,-473.2 1415.59,-473.2 1415.59,-479.2 1409.59,-485.2 1403.59,-485.2"/>
<text xml:space="preserve" text-anchor="middle" x="1342" y="-464.2" font-family="Helvetica,sans-Serif" font-size="10.00">isotropic_norm_concentration</text>
</a>
</g>
</g>
<!-- n20&#45;&gt;n0 -->
<g id="edge31" class="edge">
<title>n20&#45;&gt;n0</title>
<path fill="none" stroke="#64748b" d="M1343.09,-447.93C1344.77,-407.22 1344.76,-306.87 1310,-233.2 1304.59,-221.72 1295.87,-211.01 1287.22,-202.19"/>
<polygon fill="#64748b" stroke="#64748b" points="1289.08,-200.58 1282.36,-197.45 1285.66,-204.09 1289.08,-200.58"/>
</g>
<!-- n20&#45;&gt;n2 -->
<g id="edge32" class="edge">
<title>n20&#45;&gt;n2</title>
<path fill="none" stroke="#64748b" d="M1416.78,-461.65C1450.34,-455.42 1487.03,-441.9 1508,-413.2 1517.44,-400.28 1514.39,-391.87 1508,-377.2 1502.91,-365.52 1493.85,-355.26 1484.42,-346.95"/>
<polygon fill="#64748b" stroke="#64748b" points="1485.99,-345.08 1479.04,-342.49 1482.86,-348.85 1485.99,-345.08"/>
</g>
<!-- n20&#45;&gt;n3 -->
<g id="edge33" class="edge">
<title>n20&#45;&gt;n3</title>
<path fill="none" stroke="#64748b" d="M1345.7,-447.95C1354.79,-398.33 1373.96,-258.07 1323,-160 1317.32,-149.07 1308.73,-138.79 1300.26,-130.24"/>
<polygon fill="#64748b" stroke="#64748b" points="1301.98,-128.5 1295.25,-125.39 1298.58,-132.02 1301.98,-128.5"/>
</g>
<!-- n20&#45;&gt;n17 -->
<g id="edge34" class="edge">
<title>n20&#45;&gt;n17</title>
<path fill="none" stroke="#64748b" d="M1309.42,-447.81C1292.97,-438.52 1272.92,-427.21 1255.8,-417.54"/>
<polygon fill="#64748b" stroke="#64748b" points="1257.27,-415.56 1249.97,-414.25 1254.87,-419.82 1257.27,-415.56"/>
</g>
<!-- n20&#45;&gt;n18 -->
<g id="edge35" class="edge">
<title>n20&#45;&gt;n18</title>
<path fill="none" stroke="#64748b" d="M1366.43,-447.81C1378.33,-438.85 1392.74,-428.01 1405.27,-418.58"/>
<polygon fill="#64748b" stroke="#64748b" points="1406.68,-420.58 1410.8,-414.42 1403.73,-416.67 1406.68,-420.58"/>
</g>
<!-- n19 -->
<g id="node21" class="node">
<title>n19</title>
<g id="a_node21"><a xlink:href="vscode://vscode-remote/wsl+Ubuntu/home/ai4stat/statlib/Statlib/StatFoundation/RandomVariable/SubExponential/subexp_meas_abs_ge_le_two_exp.lean:12" xlink:title="theorem · Statlib/StatFoundation/RandomVariable/SubExponential/subexp_meas_abs_ge_le_two_exp.lean:12" target="_blank">
<path fill="#ffe6a3" stroke="#d4a017" d="M190.39,-196C190.39,-196 41.61,-196 41.61,-196 35.61,-196 29.61,-190 29.61,-184 29.61,-184 29.61,-172 29.61,-172 29.61,-166 35.61,-160 41.61,-160 41.61,-160 190.39,-160 190.39,-160 196.39,-160 202.39,-166 202.39,-172 202.39,-172 202.39,-184 202.39,-184 202.39,-190 196.39,-196 190.39,-196"/>
<text xml:space="preserve" text-anchor="middle" x="116" y="-175" font-family="Helvetica,sans-Serif" font-size="10.00">subexp_meas_abs_ge_le_two_exp</text>
</a>
</g>
</g>
<!-- n20&#45;&gt;n19 -->
<g id="edge36" class="edge">
<title>n20&#45;&gt;n19</title>
<path fill="none" stroke="#64748b" d="M1267.12,-454.56C1087.03,-425.56 616.51,-343.79 237,-225.2 213.2,-217.76 187.32,-208.1 165.62,-199.54"/>
<polygon fill="#64748b" stroke="#64748b" points="166.65,-197.31 159.24,-197 164.83,-201.86 166.65,-197.31"/>
</g>
<!-- n7 -->
<g id="node14" class="node">
<title>n7</title>
<g id="a_node14"><a xlink:href="vscode://vscode-remote/wsl+Ubuntu/home/ai4stat/statlib/Statlib/StatFoundation/RandomVariable/SubGaussian/subgaussian_meas_abs_ge_le_two_exp.lean:9" xlink:title="theorem · Statlib/StatFoundation/RandomVariable/SubGaussian/subgaussian_meas_abs_ge_le_two_exp.lean:9" target="_blank">
<path fill="#ffe6a3" stroke="#d4a017" d="M569.34,-52C569.34,-52 396.66,-52 396.66,-52 390.66,-52 384.66,-46 384.66,-40 384.66,-40 384.66,-28 384.66,-28 384.66,-22 390.66,-16 396.66,-16 396.66,-16 569.34,-16 569.34,-16 575.34,-16 581.34,-22 581.34,-28 581.34,-28 581.34,-40 581.34,-40 581.34,-46 575.34,-52 569.34,-52"/>
<text xml:space="preserve" text-anchor="middle" x="483" y="-31" font-family="Helvetica,sans-Serif" font-size="10.00">subgaussian_meas_abs_ge_le_two_exp</text>
</a>
</g>
</g>
<!-- n8&#45;&gt;n7 -->
<g id="edge4" class="edge">
<title>n8&#45;&gt;n7</title>
<path fill="none" stroke="#64748b" d="M657.81,-87.52C624.74,-77.58 583.22,-65.11 548.95,-54.81"/>
<polygon fill="#64748b" stroke="#64748b" points="549.71,-52.48 542.31,-52.82 548.3,-57.18 549.71,-52.48"/>
</g>
<!-- n10 -->
<g id="node16" class="node">
<title>n10</title>
<g id="a_node16"><a xlink:href="vscode://vscode-remote/wsl+Ubuntu/home/ai4stat/statlib/Statlib/StatFoundation/RandomVariable/SubExponential/subexp_mgf_le_of_sq_subgaussian.lean:13" xlink:title="lemma · Statlib/StatFoundation/RandomVariable/SubExponential/subexp_mgf_le_of_sq_subgaussian.lean:13" target="_blank">
<path fill="#eef2f6" stroke="#94a3b8" d="M575.2,-124C575.2,-124 494.8,-124 494.8,-124 488.8,-124 482.8,-118 482.8,-112 482.8,-112 482.8,-100 482.8,-100 482.8,-94 488.8,-88 494.8,-88 494.8,-88 575.2,-88 575.2,-88 581.2,-88 587.2,-94 587.2,-100 587.2,-100 587.2,-112 587.2,-112 587.2,-118 581.2,-124 575.2,-124"/>
<text xml:space="preserve" text-anchor="middle" x="535" y="-103" font-family="Helvetica,sans-Serif" font-size="10.00">sub_gauss_tail_abs</text>
</a>
</g>
</g>
<!-- n11 -->
<g id="node17" class="node">
<title>n11</title>
<g id="a_node17"><a xlink:href="vscode://vscode-remote/wsl+Ubuntu/home/ai4stat/statlib/Statlib/StatFoundation/RandomVariable/SubGaussian/sq_le_two_mul_exp.lean:10" xlink:title="lemma · Statlib/StatFoundation/RandomVariable/SubGaussian/sq_le_two_mul_exp.lean:10" target="_blank">
<path fill="#eef2f6" stroke="#94a3b8" d="M453.19,-124C453.19,-124 372.81,-124 372.81,-124 366.81,-124 360.81,-118 360.81,-112 360.81,-112 360.81,-100 360.81,-100 360.81,-94 366.81,-88 372.81,-88 372.81,-88 453.19,-88 453.19,-88 459.19,-88 465.19,-94 465.19,-100 465.19,-100 465.19,-112 465.19,-112 465.19,-118 459.19,-124 453.19,-124"/>
<text xml:space="preserve" text-anchor="middle" x="413" y="-103" font-family="Helvetica,sans-Serif" font-size="10.00">sq_le_two_mul_exp</text>
</a>
</g>
</g>
<!-- n12 -->
<g id="node18" class="node">
<title>n12</title>
<g id="a_node18"><a xlink:href="vscode://vscode-remote/wsl+Ubuntu/home/ai4stat/statlib/Statlib/StatFoundation/RandomVariable/SubGaussian/subgaussian_exp_sq_le_at_one_third.lean:14" xlink:title="theorem · Statlib/StatFoundation/RandomVariable/SubGaussian/subgaussian_exp_sq_le_at_one_third.lean:14" target="_blank">
<path fill="#ffe6a3" stroke="#d4a017" d="M331.23,-124C331.23,-124 170.77,-124 170.77,-124 164.77,-124 158.77,-118 158.77,-112 158.77,-112 158.77,-100 158.77,-100 158.77,-94 164.77,-88 170.77,-88 170.77,-88 331.23,-88 331.23,-88 337.23,-88 343.23,-94 343.23,-100 343.23,-100 343.23,-112 343.23,-112 343.23,-118 337.23,-124 331.23,-124"/>
<text xml:space="preserve" text-anchor="middle" x="251" y="-103" font-family="Helvetica,sans-Serif" font-size="10.00">subgaussian_exp_sq_le_at_one_third</text>
</a>
</g>
</g>
<!-- n12&#45;&gt;n7 -->
<g id="edge9" class="edge">
<title>n12&#45;&gt;n7</title>
<path fill="none" stroke="#64748b" d="M308.94,-87.52C341.87,-77.58 383.21,-65.11 417.33,-54.81"/>
<polygon fill="#64748b" stroke="#64748b" points="417.95,-57.19 423.94,-52.82 416.53,-52.5 417.95,-57.19"/>
</g>
<!-- n13&#45;&gt;n8 -->
<g id="edge13" class="edge">
<title>n13&#45;&gt;n8</title>
<path fill="none" stroke="#64748b" d="M580.21,-159.52C605.46,-149.75 637.06,-137.53 663.41,-127.34"/>
<polygon fill="#64748b" stroke="#64748b" points="664,-129.74 669.64,-124.93 662.23,-125.17 664,-129.74"/>
</g>
<!-- n13&#45;&gt;n10 -->
<g id="edge10" class="edge">
<title>n13&#45;&gt;n10</title>
<path fill="none" stroke="#64748b" d="M535,-159.7C535,-151.47 535,-141.48 535,-132.42"/>
<polygon fill="#64748b" stroke="#64748b" points="537.45,-132.62 535,-125.62 532.55,-132.62 537.45,-132.62"/>
</g>
<!-- n13&#45;&gt;n11 -->
<g id="edge11" class="edge">
<title>n13&#45;&gt;n11</title>
<path fill="none" stroke="#64748b" d="M504.53,-159.52C488.1,-150.09 467.7,-138.38 450.32,-128.41"/>
<polygon fill="#64748b" stroke="#64748b" points="451.69,-126.37 444.4,-125.01 449.25,-130.62 451.69,-126.37"/>
</g>
<!-- n13&#45;&gt;n12 -->
<g id="edge12" class="edge">
<title>n13&#45;&gt;n12</title>
<path fill="none" stroke="#64748b" d="M464.07,-159.52C423.17,-149.44 371.66,-136.74 329.54,-126.36"/>
<polygon fill="#64748b" stroke="#64748b" points="330.37,-124.04 322.99,-124.74 329.2,-128.8 330.37,-124.04"/>
</g>
<!-- n16&#45;&gt;n4 -->
<g id="edge23" class="edge">
<title>n16&#45;&gt;n4</title>
<path fill="none" stroke="#64748b" d="M261.06,-159.52C226.28,-149.54 182.59,-137 146.61,-126.68"/>
<polygon fill="#64748b" stroke="#64748b" points="147.45,-124.37 140.04,-124.8 146.1,-129.08 147.45,-124.37"/>
</g>
<!-- n19&#45;&gt;n4 -->
<g id="edge30" class="edge">
<title>n19&#45;&gt;n4</title>
<path fill="none" stroke="#64748b" d="M106.61,-159.7C102.01,-151.22 96.38,-140.86 91.34,-131.58"/>
<polygon fill="#64748b" stroke="#64748b" points="93.5,-130.42 88.01,-125.43 89.19,-132.76 93.5,-130.42"/>
</g>
</g>
</svg>
