<?xml version="1.0" encoding="UTF-8" standalone="no"?>
<!DOCTYPE svg PUBLIC "-//W3C//DTD SVG 1.1//EN"
 "http://www.w3.org/Graphics/SVG/1.1/DTD/svg11.dtd">
<!-- Generated by graphviz version 15.0.0 (20260523.1842)
 -->
<!-- Title: jl_distortion_probabilistic Pages: 1 -->
<svg width="1249pt" height="483pt"
 viewBox="0.00 0.00 1249.00 483.00" xmlns="http://www.w3.org/2000/svg" xmlns:xlink="http://www.w3.org/1999/xlink">
<g id="graph0" class="graph" transform="scale(1 1) rotate(0) translate(4 479.2)">
<title>jl_distortion_probabilistic</title>
<polygon fill="white" stroke="none" points="-4,4 -4,-479.2 1245,-479.2 1245,4 -4,4"/>
<text xml:space="preserve" text-anchor="middle" x="620.5" y="-458.6" font-family="Helvetica,sans-Serif" font-size="14.00">Proof narrative — jl_distortion_probabilistic &#160;(15 decls)</text>
<g id="clust1" class="cluster">
<title>cluster_0</title>
<path fill="none" stroke="#cbd5e1" stroke-dasharray="5,2" d="M20,-152C20,-152 386,-152 386,-152 392,-152 398,-158 398,-164 398,-164 398,-430.4 398,-430.4 398,-436.4 392,-442.4 386,-442.4 386,-442.4 20,-442.4 20,-442.4 14,-442.4 8,-436.4 8,-430.4 8,-430.4 8,-164 8,-164 8,-158 14,-152 20,-152"/>
<text xml:space="preserve" text-anchor="middle" x="203" y="-428.5" font-family="Helvetica,sans-Serif" font-size="11.00">HighDim</text>
</g>
<g id="clust2" class="cluster">
<title>cluster_1</title>
<path fill="none" stroke="#cbd5e1" stroke-dasharray="5,2" d="M418,-8C418,-8 1221,-8 1221,-8 1227,-8 1233,-14 1233,-20 1233,-20 1233,-213.2 1233,-213.2 1233,-219.2 1227,-225.2 1221,-225.2 1221,-225.2 418,-225.2 418,-225.2 412,-225.2 406,-219.2 406,-213.2 406,-213.2 406,-20 406,-20 406,-14 412,-8 418,-8"/>
<text xml:space="preserve" text-anchor="middle" x="819.5" y="-211.3" font-family="Helvetica,sans-Serif" font-size="11.00">StatFoundation</text>
</g>
<!-- n0 -->
<g id="node1" class="node">
<title>n0</title>
<g id="a_node1"><a xlink:href="vscode://vscode-remote/wsl+Ubuntu/home/gavin/statlib/Statlib/HighDim/Vocabulary/Norms.lean:13" xlink:title="noncomputable def · Statlib/HighDim/Vocabulary/Norms.lean:13" target="_blank">
<path fill="#d6e9ff" stroke="#3b82f6" d="M64.23,-196C64.23,-196 27.77,-196 27.77,-196 21.77,-196 15.77,-190 15.77,-184 15.77,-184 15.77,-172 15.77,-172 15.77,-166 21.77,-160 27.77,-160 27.77,-160 64.23,-160 64.23,-160 70.23,-160 76.23,-166 76.23,-172 76.23,-172 76.23,-184 76.23,-184 76.23,-190 70.23,-196 64.23,-196"/>
<text xml:space="preserve" text-anchor="middle" x="46" y="-175" font-family="Helvetica,sans-Serif" font-size="10.00">l2NormSq</text>
</a>
</g>
</g>
<!-- n1 -->
<g id="node2" class="node">
<title>n1</title>
<g id="a_node2"><a xlink:href="vscode://vscode-remote/wsl+Ubuntu/home/gavin/statlib/Statlib/HighDim/Vocabulary/Norms.lean:21" xlink:title="lemma · Statlib/HighDim/Vocabulary/Norms.lean:21" target="_blank">
<path fill="#eef2f6" stroke="#94a3b8" d="M147.64,-269.2C147.64,-269.2 68.36,-269.2 68.36,-269.2 62.36,-269.2 56.36,-263.2 56.36,-257.2 56.36,-257.2 56.36,-245.2 56.36,-245.2 56.36,-239.2 62.36,-233.2 68.36,-233.2 68.36,-233.2 147.64,-233.2 147.64,-233.2 153.64,-233.2 159.64,-239.2 159.64,-245.2 159.64,-245.2 159.64,-257.2 159.64,-257.2 159.64,-263.2 153.64,-269.2 147.64,-269.2"/>
<text xml:space="preserve" text-anchor="middle" x="108" y="-248.2" font-family="Helvetica,sans-Serif" font-size="10.00">euclidean_norm_sq</text>
</a>
</g>
</g>
<!-- n1&#45;&gt;n0 -->
<g id="edge1" class="edge">
<title>n1&#45;&gt;n0</title>
<path fill="none" stroke="#64748b" d="M92.99,-232.96C85,-223.78 75.04,-212.35 66.36,-202.38"/>
<polygon fill="#64748b" stroke="#64748b" points="68.31,-200.89 61.86,-197.22 64.61,-204.11 68.31,-200.89"/>
</g>
<!-- n4 -->
<g id="node3" class="node">
<title>n4</title>
<g id="a_node3"><a xlink:href="vscode://vscode-remote/wsl+Ubuntu/home/gavin/statlib/Statlib/HighDim/CovarianceMatrix/SampleCovariance.lean:393" xlink:title="lemma · Statlib/HighDim/CovarianceMatrix/SampleCovariance.lean:393" target="_blank">
<path fill="#eef2f6" stroke="#94a3b8" d="M359.22,-196C359.22,-196 208.78,-196 208.78,-196 202.78,-196 196.78,-190 196.78,-184 196.78,-184 196.78,-172 196.78,-172 196.78,-166 202.78,-160 208.78,-160 208.78,-160 359.22,-160 359.22,-160 365.22,-160 371.22,-166 371.22,-172 371.22,-172 371.22,-184 371.22,-184 371.22,-190 365.22,-196 359.22,-196"/>
<text xml:space="preserve" text-anchor="middle" x="284" y="-175" font-family="Helvetica,sans-Serif" font-size="10.00">scalar_sq_centered_exp_integrable</text>
</a>
</g>
</g>
<!-- n11 -->
<g id="node4" class="node">
<title>n11</title>
<g id="a_node4"><a xlink:href="vscode://vscode-remote/wsl+Ubuntu/home/gavin/statlib/Statlib/HighDim/CovarianceMatrix/SampleCovariance.lean:451" xlink:title="lemma · Statlib/HighDim/CovarianceMatrix/SampleCovariance.lean:451" target="_blank">
<path fill="#eef2f6" stroke="#94a3b8" d="M378.12,-269.2C378.12,-269.2 189.88,-269.2 189.88,-269.2 183.88,-269.2 177.88,-263.2 177.88,-257.2 177.88,-257.2 177.88,-245.2 177.88,-245.2 177.88,-239.2 183.88,-233.2 189.88,-233.2 189.88,-233.2 378.12,-233.2 378.12,-233.2 384.12,-233.2 390.12,-239.2 390.12,-245.2 390.12,-245.2 390.12,-257.2 390.12,-257.2 390.12,-263.2 384.12,-269.2 378.12,-269.2"/>
<text xml:space="preserve" text-anchor="middle" x="284" y="-248.2" font-family="Helvetica,sans-Serif" font-size="10.00">scalar_sq_centered_subexponential_explicit</text>
</a>
</g>
</g>
<!-- n11&#45;&gt;n4 -->
<g id="edge8" class="edge">
<title>n11&#45;&gt;n4</title>
<path fill="none" stroke="#64748b" d="M284,-232.96C284,-224.39 284,-213.87 284,-204.39"/>
<polygon fill="#64748b" stroke="#64748b" points="286.45,-204.59 284,-197.59 281.55,-204.59 286.45,-204.59"/>
</g>
<!-- n10 -->
<g id="node14" class="node">
<title>n10</title>
<g id="a_node14"><a xlink:href="vscode://vscode-remote/wsl+Ubuntu/home/gavin/statlib/Statlib/StatFoundation/RandomVariable/SubExponential/subexp_mgf_le_of_sq_subgaussian.lean:72" xlink:title="theorem · Statlib/StatFoundation/RandomVariable/SubExponential/subexp_mgf_le_of_sq_subgaussian.lean:72" target="_blank">
<path fill="#ffe6a3" stroke="#d4a017" d="M667.84,-196C667.84,-196 480.16,-196 480.16,-196 474.16,-196 468.16,-190 468.16,-184 468.16,-184 468.16,-172 468.16,-172 468.16,-166 474.16,-160 480.16,-160 480.16,-160 667.84,-160 667.84,-160 673.84,-160 679.84,-166 679.84,-172 679.84,-172 679.84,-184 679.84,-184 679.84,-190 673.84,-196 667.84,-196"/>
<text xml:space="preserve" text-anchor="middle" x="574" y="-175" font-family="Helvetica,sans-Serif" font-size="10.00">subexp_mgf_le_of_sq_subgaussian_explicit</text>
</a>
</g>
</g>
<!-- n11&#45;&gt;n10 -->
<g id="edge9" class="edge">
<title>n11&#45;&gt;n10</title>
<path fill="none" stroke="#64748b" d="M369.2,-232.72C380.26,-230.28 391.41,-227.74 402,-225.2 435.67,-217.12 472.8,-207.26 503.92,-198.74"/>
<polygon fill="#64748b" stroke="#64748b" points="504.55,-201.1 510.65,-196.89 503.25,-196.38 504.55,-201.1"/>
</g>
<!-- n13 -->
<g id="node5" class="node">
<title>n13</title>
<g id="a_node5"><a xlink:href="vscode://vscode-remote/wsl+Ubuntu/home/gavin/statlib/Statlib/HighDim/Geometry/JohnsonLindenstrauss.lean:45" xlink:title="theorem · Statlib/HighDim/Geometry/JohnsonLindenstrauss.lean:45" target="_blank">
<path fill="#ffe6a3" stroke="#d4a017" d="M309.18,-341.2C309.18,-341.2 258.82,-341.2 258.82,-341.2 252.82,-341.2 246.82,-335.2 246.82,-329.2 246.82,-329.2 246.82,-317.2 246.82,-317.2 246.82,-311.2 252.82,-305.2 258.82,-305.2 258.82,-305.2 309.18,-305.2 309.18,-305.2 315.18,-305.2 321.18,-311.2 321.18,-317.2 321.18,-317.2 321.18,-329.2 321.18,-329.2 321.18,-335.2 315.18,-341.2 309.18,-341.2"/>
<text xml:space="preserve" text-anchor="middle" x="284" y="-320.2" font-family="Helvetica,sans-Serif" font-size="10.00">jl_single_pair</text>
</a>
</g>
</g>
<!-- n13&#45;&gt;n0 -->
<g id="edge11" class="edge">
<title>n13&#45;&gt;n0</title>
<path fill="none" stroke="#64748b" d="M246.55,-319.36C186.22,-313.92 71.75,-299.75 47,-269.2 32.57,-251.39 34.31,-224.47 38.45,-204.67"/>
<polygon fill="#64748b" stroke="#64748b" points="40.83,-205.25 40.05,-197.87 36.06,-204.12 40.83,-205.25"/>
</g>
<!-- n13&#45;&gt;n1 -->
<g id="edge12" class="edge">
<title>n13&#45;&gt;n1</title>
<path fill="none" stroke="#64748b" d="M246.67,-307.35C221.31,-297.27 187.43,-283.79 159.5,-272.68"/>
<polygon fill="#64748b" stroke="#64748b" points="160.61,-270.49 153.2,-270.18 158.8,-275.04 160.61,-270.49"/>
</g>
<!-- n13&#45;&gt;n11 -->
<g id="edge15" class="edge">
<title>n13&#45;&gt;n11</title>
<path fill="none" stroke="#64748b" d="M284,-304.9C284,-296.67 284,-286.68 284,-277.62"/>
<polygon fill="#64748b" stroke="#64748b" points="286.45,-277.82 284,-270.82 281.55,-277.82 286.45,-277.82"/>
</g>
<!-- n2 -->
<g id="node7" class="node">
<title>n2</title>
<g id="a_node7"><a xlink:href="vscode://vscode-remote/wsl+Ubuntu/home/gavin/statlib/Statlib/StatFoundation/RandomVariable/SubGaussian/subgaussian_exp_sq_le.lean:22" xlink:title="theorem · Statlib/StatFoundation/RandomVariable/SubGaussian/subgaussian_exp_sq_le.lean:22" target="_blank">
<path fill="#ffe6a3" stroke="#d4a017" d="M808.65,-196C808.65,-196 709.35,-196 709.35,-196 703.35,-196 697.35,-190 697.35,-184 697.35,-184 697.35,-172 697.35,-172 697.35,-166 703.35,-160 709.35,-160 709.35,-160 808.65,-160 808.65,-160 814.65,-160 820.65,-166 820.65,-172 820.65,-172 820.65,-184 820.65,-184 820.65,-190 814.65,-196 808.65,-196"/>
<text xml:space="preserve" text-anchor="middle" x="759" y="-175" font-family="Helvetica,sans-Serif" font-size="10.00">subgaussian_exp_sq_le</text>
</a>
</g>
</g>
<!-- n13&#45;&gt;n2 -->
<g id="edge13" class="edge">
<title>n13&#45;&gt;n2</title>
<path fill="none" stroke="#64748b" d="M321.68,-317.63C394.94,-307.8 560.65,-280.87 689,-225.2 703.41,-218.95 718.1,-209.77 730.27,-201.23"/>
<polygon fill="#64748b" stroke="#64748b" points="731.65,-203.27 735.9,-197.19 728.79,-199.29 731.65,-203.27"/>
</g>
<!-- n3 -->
<g id="node8" class="node">
<title>n3</title>
<g id="a_node8"><a xlink:href="vscode://vscode-remote/wsl+Ubuntu/home/gavin/statlib/Statlib/StatFoundation/Vocabulary/RandomVariable.lean:74" xlink:title="structure · Statlib/StatFoundation/Vocabulary/RandomVariable.lean:74" target="_blank">
<path fill="#e8dcff" stroke="#8b5cf6" d="M1213.47,-124C1213.47,-124 1112.53,-124 1112.53,-124 1106.53,-124 1100.53,-118 1100.53,-112 1100.53,-112 1100.53,-100 1100.53,-100 1100.53,-94 1106.53,-88 1112.53,-88 1112.53,-88 1213.47,-88 1213.47,-88 1219.47,-88 1225.47,-94 1225.47,-100 1225.47,-100 1225.47,-112 1225.47,-112 1225.47,-118 1219.47,-124 1213.47,-124"/>
<text xml:space="preserve" text-anchor="middle" x="1163" y="-103" font-family="Helvetica,sans-Serif" font-size="10.00">HasSubexponentialMGF</text>
</a>
</g>
</g>
<!-- n13&#45;&gt;n3 -->
<g id="edge14" class="edge">
<title>n13&#45;&gt;n3</title>
<path fill="none" stroke="#64748b" d="M321.57,-322.2C464.1,-321.54 969.77,-312.95 1099,-225.2 1131.19,-203.34 1148.6,-159.81 1156.83,-132.11"/>
<polygon fill="#64748b" stroke="#64748b" points="1159.14,-132.93 1158.68,-125.52 1154.43,-131.6 1159.14,-132.93"/>
</g>
<!-- n12 -->
<g id="node15" class="node">
<title>n12</title>
<g id="a_node15"><a xlink:href="vscode://vscode-remote/wsl+Ubuntu/home/gavin/statlib/Statlib/StatFoundation/Concentration/ExponentialType/bernstein_sum_meas_abs_ge_le_two_exp.lean:13" xlink:title="theorem · Statlib/StatFoundation/Concentration/ExponentialType/bernstein_sum_meas_abs_ge_le_two_exp.lean:13" target="_blank">
<path fill="#ffe6a3" stroke="#d4a017" d="M1078.06,-196C1078.06,-196 895.94,-196 895.94,-196 889.94,-196 883.94,-190 883.94,-184 883.94,-184 883.94,-172 883.94,-172 883.94,-166 889.94,-160 895.94,-160 895.94,-160 1078.06,-160 1078.06,-160 1084.06,-160 1090.06,-166 1090.06,-172 1090.06,-172 1090.06,-184 1090.06,-184 1090.06,-190 1084.06,-196 1078.06,-196"/>
<text xml:space="preserve" text-anchor="middle" x="987" y="-175" font-family="Helvetica,sans-Serif" font-size="10.00">bernstein_sum_meas_abs_ge_le_two_exp</text>
</a>
</g>
</g>
<!-- n13&#45;&gt;n12 -->
<g id="edge16" class="edge">
<title>n13&#45;&gt;n12</title>
<path fill="none" stroke="#64748b" d="M321.59,-317.36C385.7,-308.91 520.21,-290.33 633,-269.2 721.18,-252.68 743.14,-247.65 830,-225.2 860.8,-217.24 894.69,-207.4 923.08,-198.86"/>
<polygon fill="#64748b" stroke="#64748b" points="923.49,-201.29 929.49,-196.92 922.08,-196.6 923.49,-201.29"/>
</g>
<!-- n14 -->
<g id="node6" class="node">
<title>n14</title>
<g id="a_node6"><a xlink:href="vscode://vscode-remote/wsl+Ubuntu/home/gavin/statlib/Statlib/HighDim/Geometry/JohnsonLindenstrauss.lean:530" xlink:title="theorem · Statlib/HighDim/Geometry/JohnsonLindenstrauss.lean:530" target="_blank">
<path fill="#ffe6a3" stroke="#d4a017" stroke-width="3" d="M231.47,-413.2C231.47,-413.2 130.53,-413.2 130.53,-413.2 124.53,-413.2 118.53,-407.2 118.53,-401.2 118.53,-401.2 118.53,-389.2 118.53,-389.2 118.53,-383.2 124.53,-377.2 130.53,-377.2 130.53,-377.2 231.47,-377.2 231.47,-377.2 237.47,-377.2 243.47,-383.2 243.47,-389.2 243.47,-389.2 243.47,-401.2 243.47,-401.2 243.47,-407.2 237.47,-413.2 231.47,-413.2"/>
<text xml:space="preserve" text-anchor="middle" x="181" y="-392.2" font-family="Helvetica,sans-Serif" font-size="10.00">jl_distortion_probabilistic</text>
</a>
</g>
</g>
<!-- n14&#45;&gt;n0 -->
<g id="edge17" class="edge">
<title>n14&#45;&gt;n0</title>
<path fill="none" stroke="#64748b" d="M144.5,-375.88C108.32,-355.43 55.05,-318.62 32,-269.2 22.43,-248.68 27.9,-222.97 34.61,-204.26"/>
<polygon fill="#64748b" stroke="#64748b" points="36.84,-205.27 37.07,-197.86 32.27,-203.51 36.84,-205.27"/>
</g>
<!-- n14&#45;&gt;n13 -->
<g id="edge18" class="edge">
<title>n14&#45;&gt;n13</title>
<path fill="none" stroke="#64748b" d="M208.06,-375.81C221.48,-366.69 237.78,-355.61 251.84,-346.06"/>
<polygon fill="#64748b" stroke="#64748b" points="252.87,-348.32 257.28,-342.36 250.12,-344.27 252.87,-348.32"/>
</g>
<!-- n5 -->
<g id="node9" class="node">
<title>n5</title>
<g id="a_node9"><a xlink:href="vscode://vscode-remote/wsl+Ubuntu/home/gavin/statlib/Statlib/StatFoundation/RandomVariable/SubExponential/subexp_mgf_le_of_sq_subgaussian.lean:13" xlink:title="lemma · Statlib/StatFoundation/RandomVariable/SubExponential/subexp_mgf_le_of_sq_subgaussian.lean:13" target="_blank">
<path fill="#eef2f6" stroke="#94a3b8" d="M1070.2,-124C1070.2,-124 989.8,-124 989.8,-124 983.8,-124 977.8,-118 977.8,-112 977.8,-112 977.8,-100 977.8,-100 977.8,-94 983.8,-88 989.8,-88 989.8,-88 1070.2,-88 1070.2,-88 1076.2,-88 1082.2,-94 1082.2,-100 1082.2,-100 1082.2,-112 1082.2,-112 1082.2,-118 1076.2,-124 1070.2,-124"/>
<text xml:space="preserve" text-anchor="middle" x="1030" y="-103" font-family="Helvetica,sans-Serif" font-size="10.00">sub_gauss_tail_abs</text>
</a>
</g>
</g>
<!-- n6 -->
<g id="node10" class="node">
<title>n6</title>
<g id="a_node10"><a xlink:href="vscode://vscode-remote/wsl+Ubuntu/home/gavin/statlib/Statlib/StatFoundation/RandomVariable/SubGaussian/sq_le_two_mul_exp.lean:10" xlink:title="lemma · Statlib/StatFoundation/RandomVariable/SubGaussian/sq_le_two_mul_exp.lean:10" target="_blank">
<path fill="#eef2f6" stroke="#94a3b8" d="M506.19,-124C506.19,-124 425.81,-124 425.81,-124 419.81,-124 413.81,-118 413.81,-112 413.81,-112 413.81,-100 413.81,-100 413.81,-94 419.81,-88 425.81,-88 425.81,-88 506.19,-88 506.19,-88 512.19,-88 518.19,-94 518.19,-100 518.19,-100 518.19,-112 518.19,-112 518.19,-118 512.19,-124 506.19,-124"/>
<text xml:space="preserve" text-anchor="middle" x="466" y="-103" font-family="Helvetica,sans-Serif" font-size="10.00">sq_le_two_mul_exp</text>
</a>
</g>
</g>
<!-- n7 -->
<g id="node11" class="node">
<title>n7</title>
<g id="a_node11"><a xlink:href="vscode://vscode-remote/wsl+Ubuntu/home/gavin/statlib/Statlib/StatFoundation/RandomVariable/SubGaussian/subgaussian_meas_abs_ge_le_two_exp.lean:9" xlink:title="theorem · Statlib/StatFoundation/RandomVariable/SubGaussian/subgaussian_meas_abs_ge_le_two_exp.lean:9" target="_blank">
<path fill="#ffe6a3" stroke="#d4a017" d="M824.34,-52C824.34,-52 651.66,-52 651.66,-52 645.66,-52 639.66,-46 639.66,-40 639.66,-40 639.66,-28 639.66,-28 639.66,-22 645.66,-16 651.66,-16 651.66,-16 824.34,-16 824.34,-16 830.34,-16 836.34,-22 836.34,-28 836.34,-28 836.34,-40 836.34,-40 836.34,-46 830.34,-52 824.34,-52"/>
<text xml:space="preserve" text-anchor="middle" x="738" y="-31" font-family="Helvetica,sans-Serif" font-size="10.00">subgaussian_meas_abs_ge_le_two_exp</text>
</a>
</g>
</g>
<!-- n8 -->
<g id="node12" class="node">
<title>n8</title>
<g id="a_node12"><a xlink:href="vscode://vscode-remote/wsl+Ubuntu/home/gavin/statlib/Statlib/StatFoundation/RandomVariable/SubGaussian/subgaussian_exp_sq_le_at_one_third.lean:14" xlink:title="theorem · Statlib/StatFoundation/RandomVariable/SubGaussian/subgaussian_exp_sq_le_at_one_third.lean:14" target="_blank">
<path fill="#ffe6a3" stroke="#d4a017" d="M708.23,-124C708.23,-124 547.77,-124 547.77,-124 541.77,-124 535.77,-118 535.77,-112 535.77,-112 535.77,-100 535.77,-100 535.77,-94 541.77,-88 547.77,-88 547.77,-88 708.23,-88 708.23,-88 714.23,-88 720.23,-94 720.23,-100 720.23,-100 720.23,-112 720.23,-112 720.23,-118 714.23,-124 708.23,-124"/>
<text xml:space="preserve" text-anchor="middle" x="628" y="-103" font-family="Helvetica,sans-Serif" font-size="10.00">subgaussian_exp_sq_le_at_one_third</text>
</a>
</g>
</g>
<!-- n8&#45;&gt;n7 -->
<g id="edge2" class="edge">
<title>n8&#45;&gt;n7</title>
<path fill="none" stroke="#64748b" d="M655.47,-87.52C670.15,-78.18 688.36,-66.59 703.93,-56.68"/>
<polygon fill="#64748b" stroke="#64748b" points="705.01,-58.9 709.6,-53.07 702.38,-54.76 705.01,-58.9"/>
</g>
<!-- n9 -->
<g id="node13" class="node">
<title>n9</title>
<g id="a_node13"><a xlink:href="vscode://vscode-remote/wsl+Ubuntu/home/gavin/statlib/Statlib/StatFoundation/RandomVariable/SubGaussian/subgaussian_exp_sq_le_at_one_third.lean:166" xlink:title="theorem · Statlib/StatFoundation/RandomVariable/SubGaussian/subgaussian_exp_sq_le_at_one_third.lean:166" target="_blank">
<path fill="#ffe6a3" stroke="#d4a017" d="M947.3,-124C947.3,-124 750.7,-124 750.7,-124 744.7,-124 738.7,-118 738.7,-112 738.7,-112 738.7,-100 738.7,-100 738.7,-94 744.7,-88 750.7,-88 750.7,-88 947.3,-88 947.3,-88 953.3,-88 959.3,-94 959.3,-100 959.3,-100 959.3,-112 959.3,-112 959.3,-118 953.3,-124 947.3,-124"/>
<text xml:space="preserve" text-anchor="middle" x="849" y="-103" font-family="Helvetica,sans-Serif" font-size="10.00">subgaussian_integrable_exp_sq_at_one_third</text>
</a>
</g>
</g>
<!-- n9&#45;&gt;n7 -->
<g id="edge3" class="edge">
<title>n9&#45;&gt;n7</title>
<path fill="none" stroke="#64748b" d="M821.28,-87.52C806.46,-78.18 788.1,-66.59 772.38,-56.68"/>
<polygon fill="#64748b" stroke="#64748b" points="773.88,-54.73 766.65,-53.07 771.26,-58.87 773.88,-54.73"/>
</g>
<!-- n10&#45;&gt;n5 -->
<g id="edge4" class="edge">
<title>n10&#45;&gt;n5</title>
<path fill="none" stroke="#64748b" d="M647.66,-159.54C661.03,-156.74 674.89,-154.09 688,-152 811.51,-132.35 845.04,-146.84 968,-124 968.38,-123.93 968.77,-123.86 969.16,-123.78"/>
<polygon fill="#64748b" stroke="#64748b" points="969.54,-126.21 975.89,-122.38 968.54,-121.41 969.54,-126.21"/>
</g>
<!-- n10&#45;&gt;n6 -->
<g id="edge5" class="edge">
<title>n10&#45;&gt;n6</title>
<path fill="none" stroke="#64748b" d="M547.03,-159.52C532.61,-150.18 514.74,-138.59 499.45,-128.68"/>
<polygon fill="#64748b" stroke="#64748b" points="501.11,-126.84 493.9,-125.08 498.44,-130.95 501.11,-126.84"/>
</g>
<!-- n10&#45;&gt;n8 -->
<g id="edge6" class="edge">
<title>n10&#45;&gt;n8</title>
<path fill="none" stroke="#64748b" d="M587.35,-159.7C594.08,-150.97 602.36,-140.24 609.68,-130.75"/>
<polygon fill="#64748b" stroke="#64748b" points="611.54,-132.34 613.88,-125.3 607.67,-129.35 611.54,-132.34"/>
</g>
<!-- n10&#45;&gt;n9 -->
<g id="edge7" class="edge">
<title>n10&#45;&gt;n9</title>
<path fill="none" stroke="#64748b" d="M642.68,-159.52C682.21,-149.46 731.95,-136.79 772.69,-126.42"/>
<polygon fill="#64748b" stroke="#64748b" points="773.07,-128.86 779.25,-124.76 771.86,-124.11 773.07,-128.86"/>
</g>
<!-- n12&#45;&gt;n3 -->
<g id="edge10" class="edge">
<title>n12&#45;&gt;n3</title>
<path fill="none" stroke="#64748b" d="M1030.96,-159.52C1055.41,-149.79 1085.97,-137.64 1111.54,-127.47"/>
<polygon fill="#64748b" stroke="#64748b" points="1112.29,-129.8 1117.89,-124.94 1110.48,-125.25 1112.29,-129.8"/>
</g>
</g>
</svg>
