<?xml version="1.0" encoding="UTF-8" standalone="no"?>
<!DOCTYPE svg PUBLIC "-//W3C//DTD SVG 1.1//EN"
 "http://www.w3.org/Graphics/SVG/1.1/DTD/svg11.dtd">
<!-- Generated by graphviz version 15.0.0 (20260523.1842)
 -->
<!-- Title: johnson_lindenstrauss Pages: 1 -->
<svg width="1269pt" height="555pt"
 viewBox="0.00 0.00 1269.00 555.00" xmlns="http://www.w3.org/2000/svg" xmlns:xlink="http://www.w3.org/1999/xlink">
<g id="graph0" class="graph" transform="scale(1 1) rotate(0) translate(4 551.2)">
<title>johnson_lindenstrauss</title>
<polygon fill="white" stroke="none" points="-4,4 -4,-551.2 1265,-551.2 1265,4 -4,4"/>
<text xml:space="preserve" text-anchor="middle" x="630.5" y="-530.6" font-family="Helvetica,sans-Serif" font-size="14.00">Proof narrative — johnson_lindenstrauss &#160;(16 decls)</text>
<g id="clust1" class="cluster">
<title>cluster_0</title>
<path fill="none" stroke="#cbd5e1" stroke-dasharray="5,2" d="M20,-152C20,-152 406,-152 406,-152 412,-152 418,-158 418,-164 418,-164 418,-502.4 418,-502.4 418,-508.4 412,-514.4 406,-514.4 406,-514.4 20,-514.4 20,-514.4 14,-514.4 8,-508.4 8,-502.4 8,-502.4 8,-164 8,-164 8,-158 14,-152 20,-152"/>
<text xml:space="preserve" text-anchor="middle" x="213" y="-500.5" font-family="Helvetica,sans-Serif" font-size="11.00">HighDim</text>
</g>
<g id="clust2" class="cluster">
<title>cluster_1</title>
<path fill="none" stroke="#cbd5e1" stroke-dasharray="5,2" d="M438,-8C438,-8 1241,-8 1241,-8 1247,-8 1253,-14 1253,-20 1253,-20 1253,-213.2 1253,-213.2 1253,-219.2 1247,-225.2 1241,-225.2 1241,-225.2 438,-225.2 438,-225.2 432,-225.2 426,-219.2 426,-213.2 426,-213.2 426,-20 426,-20 426,-14 432,-8 438,-8"/>
<text xml:space="preserve" text-anchor="middle" x="839.5" y="-211.3" font-family="Helvetica,sans-Serif" font-size="11.00">StatFoundation</text>
</g>
<!-- n0 -->
<g id="node1" class="node">
<title>n0</title>
<g id="a_node1"><a xlink:href="vscode://vscode-remote/wsl+Ubuntu/home/ai4stat/statlib/Statlib/HighDim/Vocabulary/Norms.lean:13" xlink:title="noncomputable def · Statlib/HighDim/Vocabulary/Norms.lean:13" target="_blank">
<path fill="#d6e9ff" stroke="#3b82f6" d="M70.23,-196C70.23,-196 33.77,-196 33.77,-196 27.77,-196 21.77,-190 21.77,-184 21.77,-184 21.77,-172 21.77,-172 21.77,-166 27.77,-160 33.77,-160 33.77,-160 70.23,-160 70.23,-160 76.23,-160 82.23,-166 82.23,-172 82.23,-172 82.23,-184 82.23,-184 82.23,-190 76.23,-196 70.23,-196"/>
<text xml:space="preserve" text-anchor="middle" x="52" y="-175" font-family="Helvetica,sans-Serif" font-size="10.00">l2NormSq</text>
</a>
</g>
</g>
<!-- n1 -->
<g id="node2" class="node">
<title>n1</title>
<g id="a_node2"><a xlink:href="vscode://vscode-remote/wsl+Ubuntu/home/ai4stat/statlib/Statlib/HighDim/Vocabulary/Norms.lean:21" xlink:title="lemma · Statlib/HighDim/Vocabulary/Norms.lean:21" target="_blank">
<path fill="#eef2f6" stroke="#94a3b8" d="M167.64,-269.2C167.64,-269.2 88.36,-269.2 88.36,-269.2 82.36,-269.2 76.36,-263.2 76.36,-257.2 76.36,-257.2 76.36,-245.2 76.36,-245.2 76.36,-239.2 82.36,-233.2 88.36,-233.2 88.36,-233.2 167.64,-233.2 167.64,-233.2 173.64,-233.2 179.64,-239.2 179.64,-245.2 179.64,-245.2 179.64,-257.2 179.64,-257.2 179.64,-263.2 173.64,-269.2 167.64,-269.2"/>
<text xml:space="preserve" text-anchor="middle" x="128" y="-248.2" font-family="Helvetica,sans-Serif" font-size="10.00">euclidean_norm_sq</text>
</a>
</g>
</g>
<!-- n1&#45;&gt;n0 -->
<g id="edge1" class="edge">
<title>n1&#45;&gt;n0</title>
<path fill="none" stroke="#64748b" d="M109.6,-232.96C99.69,-223.68 87.32,-212.09 76.59,-202.04"/>
<polygon fill="#64748b" stroke="#64748b" points="78.38,-200.36 71.6,-197.36 75.03,-203.93 78.38,-200.36"/>
</g>
<!-- n4 -->
<g id="node3" class="node">
<title>n4</title>
<g id="a_node3"><a xlink:href="vscode://vscode-remote/wsl+Ubuntu/home/ai4stat/statlib/Statlib/HighDim/CovarianceMatrix/SampleCovariance.lean:393" xlink:title="lemma · Statlib/HighDim/CovarianceMatrix/SampleCovariance.lean:393" target="_blank">
<path fill="#eef2f6" stroke="#94a3b8" d="M379.22,-196C379.22,-196 228.78,-196 228.78,-196 222.78,-196 216.78,-190 216.78,-184 216.78,-184 216.78,-172 216.78,-172 216.78,-166 222.78,-160 228.78,-160 228.78,-160 379.22,-160 379.22,-160 385.22,-160 391.22,-166 391.22,-172 391.22,-172 391.22,-184 391.22,-184 391.22,-190 385.22,-196 379.22,-196"/>
<text xml:space="preserve" text-anchor="middle" x="304" y="-175" font-family="Helvetica,sans-Serif" font-size="10.00">scalar_sq_centered_exp_integrable</text>
</a>
</g>
</g>
<!-- n11 -->
<g id="node4" class="node">
<title>n11</title>
<g id="a_node4"><a xlink:href="vscode://vscode-remote/wsl+Ubuntu/home/ai4stat/statlib/Statlib/HighDim/CovarianceMatrix/SampleCovariance.lean:451" xlink:title="lemma · Statlib/HighDim/CovarianceMatrix/SampleCovariance.lean:451" target="_blank">
<path fill="#eef2f6" stroke="#94a3b8" d="M398.12,-269.2C398.12,-269.2 209.88,-269.2 209.88,-269.2 203.88,-269.2 197.88,-263.2 197.88,-257.2 197.88,-257.2 197.88,-245.2 197.88,-245.2 197.88,-239.2 203.88,-233.2 209.88,-233.2 209.88,-233.2 398.12,-233.2 398.12,-233.2 404.12,-233.2 410.12,-239.2 410.12,-245.2 410.12,-245.2 410.12,-257.2 410.12,-257.2 410.12,-263.2 404.12,-269.2 398.12,-269.2"/>
<text xml:space="preserve" text-anchor="middle" x="304" y="-248.2" font-family="Helvetica,sans-Serif" font-size="10.00">scalar_sq_centered_subexponential_explicit</text>
</a>
</g>
</g>
<!-- n11&#45;&gt;n4 -->
<g id="edge8" class="edge">
<title>n11&#45;&gt;n4</title>
<path fill="none" stroke="#64748b" d="M304,-232.96C304,-224.39 304,-213.87 304,-204.39"/>
<polygon fill="#64748b" stroke="#64748b" points="306.45,-204.59 304,-197.59 301.55,-204.59 306.45,-204.59"/>
</g>
<!-- n10 -->
<g id="node15" class="node">
<title>n10</title>
<g id="a_node15"><a xlink:href="vscode://vscode-remote/wsl+Ubuntu/home/ai4stat/statlib/Statlib/StatFoundation/RandomVariable/SubExponential/subexp_mgf_le_of_sq_subgaussian.lean:72" xlink:title="theorem · Statlib/StatFoundation/RandomVariable/SubExponential/subexp_mgf_le_of_sq_subgaussian.lean:72" target="_blank">
<path fill="#ffe6a3" stroke="#d4a017" d="M687.84,-196C687.84,-196 500.16,-196 500.16,-196 494.16,-196 488.16,-190 488.16,-184 488.16,-184 488.16,-172 488.16,-172 488.16,-166 494.16,-160 500.16,-160 500.16,-160 687.84,-160 687.84,-160 693.84,-160 699.84,-166 699.84,-172 699.84,-172 699.84,-184 699.84,-184 699.84,-190 693.84,-196 687.84,-196"/>
<text xml:space="preserve" text-anchor="middle" x="594" y="-175" font-family="Helvetica,sans-Serif" font-size="10.00">subexp_mgf_le_of_sq_subgaussian_explicit</text>
</a>
</g>
</g>
<!-- n11&#45;&gt;n10 -->
<g id="edge9" class="edge">
<title>n11&#45;&gt;n10</title>
<path fill="none" stroke="#64748b" d="M389.2,-232.72C400.26,-230.28 411.41,-227.74 422,-225.2 455.67,-217.12 492.8,-207.26 523.92,-198.74"/>
<polygon fill="#64748b" stroke="#64748b" points="524.55,-201.1 530.65,-196.89 523.25,-196.38 524.55,-201.1"/>
</g>
<!-- n13 -->
<g id="node5" class="node">
<title>n13</title>
<g id="a_node5"><a xlink:href="vscode://vscode-remote/wsl+Ubuntu/home/ai4stat/statlib/Statlib/HighDim/Geometry/JohnsonLindenstrauss.lean:47" xlink:title="theorem · Statlib/HighDim/Geometry/JohnsonLindenstrauss.lean:47" target="_blank">
<path fill="#ffe6a3" stroke="#d4a017" d="M329.18,-341.2C329.18,-341.2 278.82,-341.2 278.82,-341.2 272.82,-341.2 266.82,-335.2 266.82,-329.2 266.82,-329.2 266.82,-317.2 266.82,-317.2 266.82,-311.2 272.82,-305.2 278.82,-305.2 278.82,-305.2 329.18,-305.2 329.18,-305.2 335.18,-305.2 341.18,-311.2 341.18,-317.2 341.18,-317.2 341.18,-329.2 341.18,-329.2 341.18,-335.2 335.18,-341.2 329.18,-341.2"/>
<text xml:space="preserve" text-anchor="middle" x="304" y="-320.2" font-family="Helvetica,sans-Serif" font-size="10.00">jl_single_pair</text>
</a>
</g>
</g>
<!-- n13&#45;&gt;n0 -->
<g id="edge11" class="edge">
<title>n13&#45;&gt;n0</title>
<path fill="none" stroke="#64748b" d="M266.58,-318.87C206.85,-312.75 93.95,-297.68 67,-269.2 50.94,-252.22 48.39,-224.94 49.12,-204.83"/>
<polygon fill="#64748b" stroke="#64748b" points="51.56,-205.07 49.54,-197.93 46.67,-204.77 51.56,-205.07"/>
</g>
<!-- n13&#45;&gt;n1 -->
<g id="edge12" class="edge">
<title>n13&#45;&gt;n1</title>
<path fill="none" stroke="#64748b" d="M266.67,-307.35C241.31,-297.27 207.43,-283.79 179.5,-272.68"/>
<polygon fill="#64748b" stroke="#64748b" points="180.61,-270.49 173.2,-270.18 178.8,-275.04 180.61,-270.49"/>
</g>
<!-- n13&#45;&gt;n11 -->
<g id="edge15" class="edge">
<title>n13&#45;&gt;n11</title>
<path fill="none" stroke="#64748b" d="M304,-304.9C304,-296.67 304,-286.68 304,-277.62"/>
<polygon fill="#64748b" stroke="#64748b" points="306.45,-277.82 304,-270.82 301.55,-277.82 306.45,-277.82"/>
</g>
<!-- n2 -->
<g id="node8" class="node">
<title>n2</title>
<g id="a_node8"><a xlink:href="vscode://vscode-remote/wsl+Ubuntu/home/ai4stat/statlib/Statlib/StatFoundation/RandomVariable/SubGaussian/subgaussian_exp_sq_le.lean:22" xlink:title="theorem · Statlib/StatFoundation/RandomVariable/SubGaussian/subgaussian_exp_sq_le.lean:22" target="_blank">
<path fill="#ffe6a3" stroke="#d4a017" d="M828.65,-196C828.65,-196 729.35,-196 729.35,-196 723.35,-196 717.35,-190 717.35,-184 717.35,-184 717.35,-172 717.35,-172 717.35,-166 723.35,-160 729.35,-160 729.35,-160 828.65,-160 828.65,-160 834.65,-160 840.65,-166 840.65,-172 840.65,-172 840.65,-184 840.65,-184 840.65,-190 834.65,-196 828.65,-196"/>
<text xml:space="preserve" text-anchor="middle" x="779" y="-175" font-family="Helvetica,sans-Serif" font-size="10.00">subgaussian_exp_sq_le</text>
</a>
</g>
</g>
<!-- n13&#45;&gt;n2 -->
<g id="edge13" class="edge">
<title>n13&#45;&gt;n2</title>
<path fill="none" stroke="#64748b" d="M341.68,-317.63C414.94,-307.8 580.65,-280.87 709,-225.2 723.41,-218.95 738.1,-209.77 750.27,-201.23"/>
<polygon fill="#64748b" stroke="#64748b" points="751.65,-203.27 755.9,-197.19 748.79,-199.29 751.65,-203.27"/>
</g>
<!-- n3 -->
<g id="node9" class="node">
<title>n3</title>
<g id="a_node9"><a xlink:href="vscode://vscode-remote/wsl+Ubuntu/home/ai4stat/statlib/Statlib/StatFoundation/Vocabulary/RandomVariable.lean:74" xlink:title="structure · Statlib/StatFoundation/Vocabulary/RandomVariable.lean:74" target="_blank">
<path fill="#e8dcff" stroke="#8b5cf6" d="M1233.47,-124C1233.47,-124 1132.53,-124 1132.53,-124 1126.53,-124 1120.53,-118 1120.53,-112 1120.53,-112 1120.53,-100 1120.53,-100 1120.53,-94 1126.53,-88 1132.53,-88 1132.53,-88 1233.47,-88 1233.47,-88 1239.47,-88 1245.47,-94 1245.47,-100 1245.47,-100 1245.47,-112 1245.47,-112 1245.47,-118 1239.47,-124 1233.47,-124"/>
<text xml:space="preserve" text-anchor="middle" x="1183" y="-103" font-family="Helvetica,sans-Serif" font-size="10.00">HasSubexponentialMGF</text>
</a>
</g>
</g>
<!-- n13&#45;&gt;n3 -->
<g id="edge14" class="edge">
<title>n13&#45;&gt;n3</title>
<path fill="none" stroke="#64748b" d="M341.57,-322.2C484.1,-321.54 989.77,-312.95 1119,-225.2 1151.19,-203.34 1168.6,-159.81 1176.83,-132.11"/>
<polygon fill="#64748b" stroke="#64748b" points="1179.14,-132.93 1178.68,-125.52 1174.43,-131.6 1179.14,-132.93"/>
</g>
<!-- n12 -->
<g id="node16" class="node">
<title>n12</title>
<g id="a_node16"><a xlink:href="vscode://vscode-remote/wsl+Ubuntu/home/ai4stat/statlib/Statlib/StatFoundation/Concentration/ExponentialType/bernstein_sum_meas_abs_ge_le_two_exp.lean:13" xlink:title="theorem · Statlib/StatFoundation/Concentration/ExponentialType/bernstein_sum_meas_abs_ge_le_two_exp.lean:13" target="_blank">
<path fill="#ffe6a3" stroke="#d4a017" d="M1098.06,-196C1098.06,-196 915.94,-196 915.94,-196 909.94,-196 903.94,-190 903.94,-184 903.94,-184 903.94,-172 903.94,-172 903.94,-166 909.94,-160 915.94,-160 915.94,-160 1098.06,-160 1098.06,-160 1104.06,-160 1110.06,-166 1110.06,-172 1110.06,-172 1110.06,-184 1110.06,-184 1110.06,-190 1104.06,-196 1098.06,-196"/>
<text xml:space="preserve" text-anchor="middle" x="1007" y="-175" font-family="Helvetica,sans-Serif" font-size="10.00">bernstein_sum_meas_abs_ge_le_two_exp</text>
</a>
</g>
</g>
<!-- n13&#45;&gt;n12 -->
<g id="edge16" class="edge">
<title>n13&#45;&gt;n12</title>
<path fill="none" stroke="#64748b" d="M341.59,-317.36C405.7,-308.91 540.21,-290.33 653,-269.2 741.18,-252.68 763.14,-247.65 850,-225.2 880.8,-217.24 914.69,-207.4 943.08,-198.86"/>
<polygon fill="#64748b" stroke="#64748b" points="943.49,-201.29 949.49,-196.92 942.08,-196.6 943.49,-201.29"/>
</g>
<!-- n14 -->
<g id="node6" class="node">
<title>n14</title>
<g id="a_node6"><a xlink:href="vscode://vscode-remote/wsl+Ubuntu/home/ai4stat/statlib/Statlib/HighDim/Geometry/JohnsonLindenstrauss.lean:502" xlink:title="theorem · Statlib/HighDim/Geometry/JohnsonLindenstrauss.lean:502" target="_blank">
<path fill="#ffe6a3" stroke="#d4a017" d="M148.47,-413.2C148.47,-413.2 47.53,-413.2 47.53,-413.2 41.53,-413.2 35.53,-407.2 35.53,-401.2 35.53,-401.2 35.53,-389.2 35.53,-389.2 35.53,-383.2 41.53,-377.2 47.53,-377.2 47.53,-377.2 148.47,-377.2 148.47,-377.2 154.47,-377.2 160.47,-383.2 160.47,-389.2 160.47,-389.2 160.47,-401.2 160.47,-401.2 160.47,-407.2 154.47,-413.2 148.47,-413.2"/>
<text xml:space="preserve" text-anchor="middle" x="98" y="-392.2" font-family="Helvetica,sans-Serif" font-size="10.00">jl_distortion_probabilistic</text>
</a>
</g>
</g>
<!-- n14&#45;&gt;n0 -->
<g id="edge17" class="edge">
<title>n14&#45;&gt;n0</title>
<path fill="none" stroke="#64748b" d="M88.5,-377.07C76.07,-353.58 54.94,-309.68 47,-269.2 42.8,-247.77 44.64,-222.98 47.2,-204.81"/>
<polygon fill="#64748b" stroke="#64748b" points="49.61,-205.26 48.26,-197.96 44.77,-204.51 49.61,-205.26"/>
</g>
<!-- n14&#45;&gt;n13 -->
<g id="edge18" class="edge">
<title>n14&#45;&gt;n13</title>
<path fill="none" stroke="#64748b" d="M149.45,-376.72C182.96,-365.33 226.27,-350.61 258.52,-339.66"/>
<polygon fill="#64748b" stroke="#64748b" points="259.19,-342.01 265.03,-337.44 257.62,-337.37 259.19,-342.01"/>
</g>
<!-- n15 -->
<g id="node7" class="node">
<title>n15</title>
<g id="a_node7"><a xlink:href="vscode://vscode-remote/wsl+Ubuntu/home/ai4stat/statlib/Statlib/HighDim/Geometry/JohnsonLindenstrauss.lean:702" xlink:title="theorem · Statlib/HighDim/Geometry/JohnsonLindenstrauss.lean:702" target="_blank">
<path fill="#ffe6a3" stroke="#d4a017" stroke-width="3" d="M131.76,-485.2C131.76,-485.2 40.24,-485.2 40.24,-485.2 34.24,-485.2 28.24,-479.2 28.24,-473.2 28.24,-473.2 28.24,-461.2 28.24,-461.2 28.24,-455.2 34.24,-449.2 40.24,-449.2 40.24,-449.2 131.76,-449.2 131.76,-449.2 137.76,-449.2 143.76,-455.2 143.76,-461.2 143.76,-461.2 143.76,-473.2 143.76,-473.2 143.76,-479.2 137.76,-485.2 131.76,-485.2"/>
<text xml:space="preserve" text-anchor="middle" x="86" y="-464.2" font-family="Helvetica,sans-Serif" font-size="10.00">johnson_lindenstrauss</text>
</a>
</g>
</g>
<!-- n15&#45;&gt;n0 -->
<g id="edge19" class="edge">
<title>n15&#45;&gt;n0</title>
<path fill="none" stroke="#64748b" d="M56.65,-447.89C45.14,-438.98 33.22,-427.16 27,-413.2 -4.51,-342.53 24.22,-248.38 41.35,-204.07"/>
<polygon fill="#64748b" stroke="#64748b" points="43.54,-205.21 43.84,-197.8 38.98,-203.4 43.54,-205.21"/>
</g>
<!-- n15&#45;&gt;n14 -->
<g id="edge20" class="edge">
<title>n15&#45;&gt;n14</title>
<path fill="none" stroke="#64748b" d="M89.15,-447.81C90.53,-439.79 92.16,-430.25 93.65,-421.57"/>
<polygon fill="#64748b" stroke="#64748b" points="96.05,-422.07 94.82,-414.76 91.22,-421.25 96.05,-422.07"/>
</g>
<!-- n5 -->
<g id="node10" class="node">
<title>n5</title>
<g id="a_node10"><a xlink:href="vscode://vscode-remote/wsl+Ubuntu/home/ai4stat/statlib/Statlib/StatFoundation/RandomVariable/SubExponential/subexp_mgf_le_of_sq_subgaussian.lean:13" xlink:title="lemma · Statlib/StatFoundation/RandomVariable/SubExponential/subexp_mgf_le_of_sq_subgaussian.lean:13" target="_blank">
<path fill="#eef2f6" stroke="#94a3b8" d="M1090.2,-124C1090.2,-124 1009.8,-124 1009.8,-124 1003.8,-124 997.8,-118 997.8,-112 997.8,-112 997.8,-100 997.8,-100 997.8,-94 1003.8,-88 1009.8,-88 1009.8,-88 1090.2,-88 1090.2,-88 1096.2,-88 1102.2,-94 1102.2,-100 1102.2,-100 1102.2,-112 1102.2,-112 1102.2,-118 1096.2,-124 1090.2,-124"/>
<text xml:space="preserve" text-anchor="middle" x="1050" y="-103" font-family="Helvetica,sans-Serif" font-size="10.00">sub_gauss_tail_abs</text>
</a>
</g>
</g>
<!-- n6 -->
<g id="node11" class="node">
<title>n6</title>
<g id="a_node11"><a xlink:href="vscode://vscode-remote/wsl+Ubuntu/home/ai4stat/statlib/Statlib/StatFoundation/RandomVariable/SubGaussian/sq_le_two_mul_exp.lean:10" xlink:title="lemma · Statlib/StatFoundation/RandomVariable/SubGaussian/sq_le_two_mul_exp.lean:10" target="_blank">
<path fill="#eef2f6" stroke="#94a3b8" d="M526.19,-124C526.19,-124 445.81,-124 445.81,-124 439.81,-124 433.81,-118 433.81,-112 433.81,-112 433.81,-100 433.81,-100 433.81,-94 439.81,-88 445.81,-88 445.81,-88 526.19,-88 526.19,-88 532.19,-88 538.19,-94 538.19,-100 538.19,-100 538.19,-112 538.19,-112 538.19,-118 532.19,-124 526.19,-124"/>
<text xml:space="preserve" text-anchor="middle" x="486" y="-103" font-family="Helvetica,sans-Serif" font-size="10.00">sq_le_two_mul_exp</text>
</a>
</g>
</g>
<!-- n7 -->
<g id="node12" class="node">
<title>n7</title>
<g id="a_node12"><a xlink:href="vscode://vscode-remote/wsl+Ubuntu/home/ai4stat/statlib/Statlib/StatFoundation/RandomVariable/SubGaussian/subgaussian_meas_abs_ge_le_two_exp.lean:9" xlink:title="theorem · Statlib/StatFoundation/RandomVariable/SubGaussian/subgaussian_meas_abs_ge_le_two_exp.lean:9" target="_blank">
<path fill="#ffe6a3" stroke="#d4a017" d="M844.34,-52C844.34,-52 671.66,-52 671.66,-52 665.66,-52 659.66,-46 659.66,-40 659.66,-40 659.66,-28 659.66,-28 659.66,-22 665.66,-16 671.66,-16 671.66,-16 844.34,-16 844.34,-16 850.34,-16 856.34,-22 856.34,-28 856.34,-28 856.34,-40 856.34,-40 856.34,-46 850.34,-52 844.34,-52"/>
<text xml:space="preserve" text-anchor="middle" x="758" y="-31" font-family="Helvetica,sans-Serif" font-size="10.00">subgaussian_meas_abs_ge_le_two_exp</text>
</a>
</g>
</g>
<!-- n8 -->
<g id="node13" class="node">
<title>n8</title>
<g id="a_node13"><a xlink:href="vscode://vscode-remote/wsl+Ubuntu/home/ai4stat/statlib/Statlib/StatFoundation/RandomVariable/SubGaussian/subgaussian_exp_sq_le_at_one_third.lean:14" xlink:title="theorem · Statlib/StatFoundation/RandomVariable/SubGaussian/subgaussian_exp_sq_le_at_one_third.lean:14" target="_blank">
<path fill="#ffe6a3" stroke="#d4a017" d="M728.23,-124C728.23,-124 567.77,-124 567.77,-124 561.77,-124 555.77,-118 555.77,-112 555.77,-112 555.77,-100 555.77,-100 555.77,-94 561.77,-88 567.77,-88 567.77,-88 728.23,-88 728.23,-88 734.23,-88 740.23,-94 740.23,-100 740.23,-100 740.23,-112 740.23,-112 740.23,-118 734.23,-124 728.23,-124"/>
<text xml:space="preserve" text-anchor="middle" x="648" y="-103" font-family="Helvetica,sans-Serif" font-size="10.00">subgaussian_exp_sq_le_at_one_third</text>
</a>
</g>
</g>
<!-- n8&#45;&gt;n7 -->
<g id="edge2" class="edge">
<title>n8&#45;&gt;n7</title>
<path fill="none" stroke="#64748b" d="M675.47,-87.52C690.15,-78.18 708.36,-66.59 723.93,-56.68"/>
<polygon fill="#64748b" stroke="#64748b" points="725.01,-58.9 729.6,-53.07 722.38,-54.76 725.01,-58.9"/>
</g>
<!-- n9 -->
<g id="node14" class="node">
<title>n9</title>
<g id="a_node14"><a xlink:href="vscode://vscode-remote/wsl+Ubuntu/home/ai4stat/statlib/Statlib/StatFoundation/RandomVariable/SubGaussian/subgaussian_exp_sq_le_at_one_third.lean:165" xlink:title="theorem · Statlib/StatFoundation/RandomVariable/SubGaussian/subgaussian_exp_sq_le_at_one_third.lean:165" target="_blank">
<path fill="#ffe6a3" stroke="#d4a017" d="M967.3,-124C967.3,-124 770.7,-124 770.7,-124 764.7,-124 758.7,-118 758.7,-112 758.7,-112 758.7,-100 758.7,-100 758.7,-94 764.7,-88 770.7,-88 770.7,-88 967.3,-88 967.3,-88 973.3,-88 979.3,-94 979.3,-100 979.3,-100 979.3,-112 979.3,-112 979.3,-118 973.3,-124 967.3,-124"/>
<text xml:space="preserve" text-anchor="middle" x="869" y="-103" font-family="Helvetica,sans-Serif" font-size="10.00">subgaussian_integrable_exp_sq_at_one_third</text>
</a>
</g>
</g>
<!-- n9&#45;&gt;n7 -->
<g id="edge3" class="edge">
<title>n9&#45;&gt;n7</title>
<path fill="none" stroke="#64748b" d="M841.28,-87.52C826.46,-78.18 808.1,-66.59 792.38,-56.68"/>
<polygon fill="#64748b" stroke="#64748b" points="793.88,-54.73 786.65,-53.07 791.26,-58.87 793.88,-54.73"/>
</g>
<!-- n10&#45;&gt;n5 -->
<g id="edge4" class="edge">
<title>n10&#45;&gt;n5</title>
<path fill="none" stroke="#64748b" d="M667.66,-159.54C681.03,-156.74 694.89,-154.09 708,-152 831.51,-132.35 865.04,-146.84 988,-124 988.38,-123.93 988.77,-123.86 989.16,-123.78"/>
<polygon fill="#64748b" stroke="#64748b" points="989.54,-126.21 995.89,-122.38 988.54,-121.41 989.54,-126.21"/>
</g>
<!-- n10&#45;&gt;n6 -->
<g id="edge5" class="edge">
<title>n10&#45;&gt;n6</title>
<path fill="none" stroke="#64748b" d="M567.03,-159.52C552.61,-150.18 534.74,-138.59 519.45,-128.68"/>
<polygon fill="#64748b" stroke="#64748b" points="521.11,-126.84 513.9,-125.08 518.44,-130.95 521.11,-126.84"/>
</g>
<!-- n10&#45;&gt;n8 -->
<g id="edge6" class="edge">
<title>n10&#45;&gt;n8</title>
<path fill="none" stroke="#64748b" d="M607.35,-159.7C614.08,-150.97 622.36,-140.24 629.68,-130.75"/>
<polygon fill="#64748b" stroke="#64748b" points="631.54,-132.34 633.88,-125.3 627.67,-129.35 631.54,-132.34"/>
</g>
<!-- n10&#45;&gt;n9 -->
<g id="edge7" class="edge">
<title>n10&#45;&gt;n9</title>
<path fill="none" stroke="#64748b" d="M662.68,-159.52C702.21,-149.46 751.95,-136.79 792.69,-126.42"/>
<polygon fill="#64748b" stroke="#64748b" points="793.07,-128.86 799.25,-124.76 791.86,-124.11 793.07,-128.86"/>
</g>
<!-- n12&#45;&gt;n3 -->
<g id="edge10" class="edge">
<title>n12&#45;&gt;n3</title>
<path fill="none" stroke="#64748b" d="M1050.96,-159.52C1075.41,-149.79 1105.97,-137.64 1131.54,-127.47"/>
<polygon fill="#64748b" stroke="#64748b" points="1132.29,-129.8 1137.89,-124.94 1130.48,-125.25 1132.29,-129.8"/>
</g>
</g>
</svg>
