<?xml version="1.0" encoding="UTF-8" standalone="no"?>
<!DOCTYPE svg PUBLIC "-//W3C//DTD SVG 1.1//EN"
 "http://www.w3.org/Graphics/SVG/1.1/DTD/svg11.dtd">
<!-- Generated by graphviz version 15.0.0 (20260523.1842)
 -->
<!-- Title: lasso_oracle_support_l2_of_uniformSupportRE Pages: 1 -->
<svg width="714pt" height="626pt"
 viewBox="0.00 0.00 714.00 626.00" xmlns="http://www.w3.org/2000/svg" xmlns:xlink="http://www.w3.org/1999/xlink">
<g id="graph0" class="graph" transform="scale(1 1) rotate(0) translate(4 622)">
<title>lasso_oracle_support_l2_of_uniformSupportRE</title>
<polygon fill="white" stroke="none" points="-4,4 -4,-622 710,-622 710,4 -4,4"/>
<text xml:space="preserve" text-anchor="middle" x="353" y="-601.4" font-family="Helvetica,sans-Serif" font-size="14.00">Proof narrative — lasso_oracle_support_l2_of_uniformSupportRE &#160;(14 decls)</text>
<g id="clust1" class="cluster">
<title>cluster_0</title>
<path fill="none" stroke="#cbd5e1" stroke-dasharray="5,2" d="M20,-8C20,-8 686,-8 686,-8 692,-8 698,-14 698,-20 698,-20 698,-573.2 698,-573.2 698,-579.2 692,-585.2 686,-585.2 686,-585.2 20,-585.2 20,-585.2 14,-585.2 8,-579.2 8,-573.2 8,-573.2 8,-20 8,-20 8,-14 14,-8 20,-8"/>
<text xml:space="preserve" text-anchor="middle" x="353" y="-571.3" font-family="Helvetica,sans-Serif" font-size="11.00">HighDim</text>
</g>
<!-- n0 -->
<g id="node1" class="node">
<title>n0</title>
<g id="a_node1"><a xlink:href="https://github.com/statopia/statlib/blob/main/Statlib/HighDim/Vocabulary/Sparse.lean#L49" xlink:title="def · Statlib/HighDim/Vocabulary/Sparse.lean:49" target="_blank">
<path fill="#d6e9ff" stroke="#3b82f6" d="M334.01,-268C334.01,-268 301.99,-268 301.99,-268 295.99,-268 289.99,-262 289.99,-256 289.99,-256 289.99,-244 289.99,-244 289.99,-238 295.99,-232 301.99,-232 301.99,-232 334.01,-232 334.01,-232 340.01,-232 346.01,-238 346.01,-244 346.01,-244 346.01,-256 346.01,-256 346.01,-262 340.01,-268 334.01,-268"/>
<text xml:space="preserve" text-anchor="middle" x="318" y="-247" font-family="Helvetica,sans-Serif" font-size="10.00">IsInCone</text>
</a>
</g>
</g>
<!-- n1 -->
<g id="node2" class="node">
<title>n1</title>
<g id="a_node2"><a xlink:href="https://github.com/statopia/statlib/blob/main/Statlib/HighDim/Vocabulary/Norms.lean#L13" xlink:title="noncomputable def · Statlib/HighDim/Vocabulary/Norms.lean:13" target="_blank">
<path fill="#d6e9ff" stroke="#3b82f6" d="M336.23,-52C336.23,-52 299.77,-52 299.77,-52 293.77,-52 287.77,-46 287.77,-40 287.77,-40 287.77,-28 287.77,-28 287.77,-22 293.77,-16 299.77,-16 299.77,-16 336.23,-16 336.23,-16 342.23,-16 348.23,-22 348.23,-28 348.23,-28 348.23,-40 348.23,-40 348.23,-46 342.23,-52 336.23,-52"/>
<text xml:space="preserve" text-anchor="middle" x="318" y="-31" font-family="Helvetica,sans-Serif" font-size="10.00">l2NormSq</text>
</a>
</g>
</g>
<!-- n2 -->
<g id="node3" class="node">
<title>n2</title>
<g id="a_node3"><a xlink:href="https://github.com/statopia/statlib/blob/main/Statlib/HighDim/Vocabulary/DesignMatrix.lean#L82" xlink:title="structure · Statlib/HighDim/Vocabulary/DesignMatrix.lean:82" target="_blank">
<path fill="#e8dcff" stroke="#8b5cf6" d="M551.86,-340C551.86,-340 438.14,-340 438.14,-340 432.14,-340 426.14,-334 426.14,-328 426.14,-328 426.14,-316 426.14,-316 426.14,-310 432.14,-304 438.14,-304 438.14,-304 551.86,-304 551.86,-304 557.86,-304 563.86,-310 563.86,-316 563.86,-316 563.86,-328 563.86,-328 563.86,-334 557.86,-340 551.86,-340"/>
<text xml:space="preserve" text-anchor="middle" x="495" y="-319" font-family="Helvetica,sans-Serif" font-size="10.00">SatisfiesUniformSupportRE</text>
</a>
</g>
</g>
<!-- n2&#45;&gt;n0 -->
<g id="edge1" class="edge">
<title>n2&#45;&gt;n0</title>
<path fill="none" stroke="#64748b" d="M450.79,-303.52C420.94,-291.71 382.02,-276.32 354.04,-265.25"/>
<polygon fill="#64748b" stroke="#64748b" points="355.28,-263.11 347.86,-262.81 353.47,-267.66 355.28,-263.11"/>
</g>
<!-- n2&#45;&gt;n1 -->
<g id="edge2" class="edge">
<title>n2&#45;&gt;n1</title>
<path fill="none" stroke="#64748b" d="M484.19,-303.54C453.88,-254.56 367.98,-115.76 333.05,-59.32"/>
<polygon fill="#64748b" stroke="#64748b" points="335.23,-58.18 329.46,-53.52 331.06,-60.76 335.23,-58.18"/>
</g>
<!-- n3 -->
<g id="node4" class="node">
<title>n3</title>
<g id="a_node4"><a xlink:href="https://github.com/statopia/statlib/blob/main/Statlib/HighDim/Regression/LassoOracle.lean#L48" xlink:title="noncomputable def · Statlib/HighDim/Regression/LassoOracle.lean:48" target="_blank">
<path fill="#d6e9ff" stroke="#3b82f6" d="M216.45,-124C216.45,-124 185.55,-124 185.55,-124 179.55,-124 173.55,-118 173.55,-112 173.55,-112 173.55,-100 173.55,-100 173.55,-94 179.55,-88 185.55,-88 185.55,-88 216.45,-88 216.45,-88 222.45,-88 228.45,-94 228.45,-100 228.45,-100 228.45,-112 228.45,-112 228.45,-118 222.45,-124 216.45,-124"/>
<text xml:space="preserve" text-anchor="middle" x="201" y="-103" font-family="Helvetica,sans-Serif" font-size="10.00">lassoObj</text>
</a>
</g>
</g>
<!-- n3&#45;&gt;n1 -->
<g id="edge3" class="edge">
<title>n3&#45;&gt;n1</title>
<path fill="none" stroke="#64748b" d="M228.73,-88.41C244.57,-78.93 264.63,-66.93 281.72,-56.71"/>
<polygon fill="#64748b" stroke="#64748b" points="282.79,-58.92 287.54,-53.22 280.28,-54.72 282.79,-58.92"/>
</g>
<!-- n4 -->
<g id="node5" class="node">
<title>n4</title>
<g id="a_node5"><a xlink:href="https://github.com/statopia/statlib/blob/main/Statlib/HighDim/Regression/LassoOracle.lean#L53" xlink:title="def · Statlib/HighDim/Regression/LassoOracle.lean:53" target="_blank">
<path fill="#d6e9ff" stroke="#3b82f6" d="M170.3,-196C170.3,-196 107.7,-196 107.7,-196 101.7,-196 95.7,-190 95.7,-184 95.7,-184 95.7,-172 95.7,-172 95.7,-166 101.7,-160 107.7,-160 107.7,-160 170.3,-160 170.3,-160 176.3,-160 182.3,-166 182.3,-172 182.3,-172 182.3,-184 182.3,-184 182.3,-190 176.3,-196 170.3,-196"/>
<text xml:space="preserve" text-anchor="middle" x="139" y="-175" font-family="Helvetica,sans-Serif" font-size="10.00">IsLassoSolution</text>
</a>
</g>
</g>
<!-- n4&#45;&gt;n3 -->
<g id="edge4" class="edge">
<title>n4&#45;&gt;n3</title>
<path fill="none" stroke="#64748b" d="M154.33,-159.7C162.13,-150.88 171.74,-140.03 180.21,-130.47"/>
<polygon fill="#64748b" stroke="#64748b" points="182.04,-132.1 184.85,-125.24 178.37,-128.85 182.04,-132.1"/>
</g>
<!-- n5 -->
<g id="node6" class="node">
<title>n5</title>
<g id="a_node6"><a xlink:href="https://github.com/statopia/statlib/blob/main/Statlib/HighDim/Vocabulary/DesignMatrix.lean#L50" xlink:title="structure · Statlib/HighDim/Vocabulary/DesignMatrix.lean:50" target="_blank">
<path fill="#e8dcff" stroke="#8b5cf6" d="M396.35,-340C396.35,-340 317.65,-340 317.65,-340 311.65,-340 305.65,-334 305.65,-328 305.65,-328 305.65,-316 305.65,-316 305.65,-310 311.65,-304 317.65,-304 317.65,-304 396.35,-304 396.35,-304 402.35,-304 408.35,-310 408.35,-316 408.35,-316 408.35,-328 408.35,-328 408.35,-334 402.35,-340 396.35,-340"/>
<text xml:space="preserve" text-anchor="middle" x="357" y="-319" font-family="Helvetica,sans-Serif" font-size="10.00">SatisfiesSupportRE</text>
</a>
</g>
</g>
<!-- n5&#45;&gt;n0 -->
<g id="edge5" class="edge">
<title>n5&#45;&gt;n0</title>
<path fill="none" stroke="#64748b" d="M347.36,-303.7C342.59,-295.14 336.75,-284.66 331.54,-275.3"/>
<polygon fill="#64748b" stroke="#64748b" points="333.81,-274.35 328.27,-269.43 329.53,-276.73 333.81,-274.35"/>
</g>
<!-- n5&#45;&gt;n1 -->
<g id="edge6" class="edge">
<title>n5&#45;&gt;n1</title>
<path fill="none" stroke="#64748b" d="M357.45,-303.55C357.71,-285.57 357.58,-256.75 355,-232 348.48,-169.58 332.78,-97.33 324.07,-60.08"/>
<polygon fill="#64748b" stroke="#64748b" points="326.57,-59.98 322.57,-53.73 321.8,-61.1 326.57,-59.98"/>
</g>
<!-- n6 -->
<g id="node7" class="node">
<title>n6</title>
<g id="a_node7"><a xlink:href="https://github.com/statopia/statlib/blob/main/Statlib/HighDim/Regression/LassoOracle.lean#L65" xlink:title="lemma · Statlib/HighDim/Regression/LassoOracle.lean:65" target="_blank">
<path fill="#eef2f6" stroke="#94a3b8" d="M240.03,-268C240.03,-268 147.97,-268 147.97,-268 141.97,-268 135.97,-262 135.97,-256 135.97,-256 135.97,-244 135.97,-244 135.97,-238 141.97,-232 147.97,-232 147.97,-232 240.03,-232 240.03,-232 246.03,-232 252.03,-238 252.03,-244 252.03,-244 252.03,-256 252.03,-256 252.03,-262 246.03,-268 240.03,-268"/>
<text xml:space="preserve" text-anchor="middle" x="194" y="-247" font-family="Helvetica,sans-Serif" font-size="10.00">lasso_basic_inequality</text>
</a>
</g>
</g>
<!-- n6&#45;&gt;n1 -->
<g id="edge8" class="edge">
<title>n6&#45;&gt;n1</title>
<path fill="none" stroke="#64748b" d="M199.52,-231.52C209.7,-200.79 233.41,-135.82 266,-88 273.25,-77.35 282.77,-66.94 291.68,-58.21"/>
<polygon fill="#64748b" stroke="#64748b" points="293.24,-60.1 296.61,-53.49 289.86,-56.55 293.24,-60.1"/>
</g>
<!-- n6&#45;&gt;n3 -->
<g id="edge9" class="edge">
<title>n6&#45;&gt;n3</title>
<path fill="none" stroke="#64748b" d="M194.86,-231.59C196.08,-206.76 198.34,-161.01 199.75,-132.4"/>
<polygon fill="#64748b" stroke="#64748b" points="202.18,-132.73 200.08,-125.62 197.29,-132.49 202.18,-132.73"/>
</g>
<!-- n6&#45;&gt;n4 -->
<g id="edge7" class="edge">
<title>n6&#45;&gt;n4</title>
<path fill="none" stroke="#64748b" d="M180.4,-231.7C173.54,-222.97 165.12,-212.24 157.66,-202.75"/>
<polygon fill="#64748b" stroke="#64748b" points="159.63,-201.29 153.37,-197.29 155.77,-204.31 159.63,-201.29"/>
</g>
<!-- n7 -->
<g id="node8" class="node">
<title>n7</title>
<g id="a_node8"><a xlink:href="https://github.com/statopia/statlib/blob/main/Statlib/HighDim/Regression/LassoOracle.lean#L257" xlink:title="lemma · Statlib/HighDim/Regression/LassoOracle.lean:257" target="_blank">
<path fill="#eef2f6" stroke="#94a3b8" d="M236.09,-340C236.09,-340 147.91,-340 147.91,-340 141.91,-340 135.91,-334 135.91,-328 135.91,-328 135.91,-316 135.91,-316 135.91,-310 141.91,-304 147.91,-304 147.91,-304 236.09,-304 236.09,-304 242.09,-304 248.09,-310 248.09,-316 248.09,-316 248.09,-328 248.09,-328 248.09,-334 242.09,-340 236.09,-340"/>
<text xml:space="preserve" text-anchor="middle" x="192" y="-319" font-family="Helvetica,sans-Serif" font-size="10.00">lasso_cone_condition</text>
</a>
</g>
</g>
<!-- n7&#45;&gt;n0 -->
<g id="edge11" class="edge">
<title>n7&#45;&gt;n0</title>
<path fill="none" stroke="#64748b" d="M223.47,-303.52C241.36,-293.58 263.82,-281.1 282.36,-270.8"/>
<polygon fill="#64748b" stroke="#64748b" points="283.26,-273.1 288.19,-267.56 280.88,-268.82 283.26,-273.1"/>
</g>
<!-- n7&#45;&gt;n1 -->
<g id="edge12" class="edge">
<title>n7&#45;&gt;n1</title>
<path fill="none" stroke="#64748b" d="M223.1,-303.72C236.62,-294.72 251.51,-282.55 261,-268 304.08,-201.94 314.61,-106.11 317.18,-60.71"/>
<polygon fill="#64748b" stroke="#64748b" points="319.62,-60.95 317.52,-53.83 314.73,-60.7 319.62,-60.95"/>
</g>
<!-- n7&#45;&gt;n4 -->
<g id="edge10" class="edge">
<title>n7&#45;&gt;n4</title>
<path fill="none" stroke="#64748b" d="M160.08,-303.54C147.31,-294.72 134,-282.73 127,-268 117.49,-247.97 122.25,-222.73 128.36,-204.25"/>
<polygon fill="#64748b" stroke="#64748b" points="130.65,-205.11 130.7,-197.7 126.04,-203.46 130.65,-205.11"/>
</g>
<!-- n7&#45;&gt;n6 -->
<g id="edge13" class="edge">
<title>n7&#45;&gt;n6</title>
<path fill="none" stroke="#64748b" d="M192.49,-303.7C192.73,-295.47 193.01,-285.48 193.27,-276.42"/>
<polygon fill="#64748b" stroke="#64748b" points="195.72,-276.68 193.47,-269.62 190.82,-276.54 195.72,-276.68"/>
</g>
<!-- n8 -->
<g id="node9" class="node">
<title>n8</title>
<g id="a_node9"><a xlink:href="https://github.com/statopia/statlib/blob/main/Statlib/HighDim/Regression/LassoOracle.lean#L416" xlink:title="theorem · Statlib/HighDim/Regression/LassoOracle.lean:416" target="_blank">
<path fill="#ffe6a3" stroke="#d4a017" d="M251.89,-412C251.89,-412 88.11,-412 88.11,-412 82.11,-412 76.11,-406 76.11,-400 76.11,-400 76.11,-388 76.11,-388 76.11,-382 82.11,-376 88.11,-376 88.11,-376 251.89,-376 251.89,-376 257.89,-376 263.89,-382 263.89,-388 263.89,-388 263.89,-400 263.89,-400 263.89,-406 257.89,-412 251.89,-412"/>
<text xml:space="preserve" text-anchor="middle" x="170" y="-391" font-family="Helvetica,sans-Serif" font-size="10.00">lasso_oracle_prediction_of_supportRE</text>
</a>
</g>
</g>
<!-- n8&#45;&gt;n0 -->
<g id="edge17" class="edge">
<title>n8&#45;&gt;n0</title>
<path fill="none" stroke="#64748b" d="M205.81,-375.68C222.52,-366.53 241.98,-354.23 257,-340 258.42,-338.65 284.03,-301.07 301.61,-275.18"/>
<polygon fill="#64748b" stroke="#64748b" points="303.57,-276.64 305.48,-269.48 299.52,-273.89 303.57,-276.64"/>
</g>
<!-- n8&#45;&gt;n1 -->
<g id="edge16" class="edge">
<title>n8&#45;&gt;n1</title>
<path fill="none" stroke="#64748b" d="M141.27,-375.69C128.24,-366.54 113.63,-354.24 104,-340 80.85,-305.75 77,-292.34 77,-251 77,-251 77,-251 77,-177 77,-84.32 210.93,-50.91 279.11,-39.9"/>
<polygon fill="#64748b" stroke="#64748b" points="279.44,-42.33 285.98,-38.84 278.69,-37.49 279.44,-42.33"/>
</g>
<!-- n8&#45;&gt;n4 -->
<g id="edge15" class="edge">
<title>n8&#45;&gt;n4</title>
<path fill="none" stroke="#64748b" d="M145.98,-375.68C135.25,-366.44 123.75,-354.08 118,-340 99.84,-295.57 109,-279.15 118,-232 119.82,-222.47 123.32,-212.47 126.95,-203.76"/>
<polygon fill="#64748b" stroke="#64748b" points="129.11,-204.95 129.67,-197.55 124.62,-202.98 129.11,-204.95"/>
</g>
<!-- n8&#45;&gt;n5 -->
<g id="edge14" class="edge">
<title>n8&#45;&gt;n5</title>
<path fill="none" stroke="#64748b" d="M216.71,-375.52C242.8,-365.75 275.44,-353.53 302.67,-343.34"/>
<polygon fill="#64748b" stroke="#64748b" points="303.45,-345.66 309.15,-340.91 301.73,-341.07 303.45,-345.66"/>
</g>
<!-- n8&#45;&gt;n6 -->
<g id="edge19" class="edge">
<title>n8&#45;&gt;n6</title>
<path fill="none" stroke="#64748b" d="M150.96,-375.84C141.82,-366.3 131.83,-353.62 127,-340 121.65,-324.92 120.03,-318.4 127,-304 132.94,-291.73 143.25,-281.44 154.03,-273.28"/>
<polygon fill="#64748b" stroke="#64748b" points="155.25,-275.42 159.54,-269.36 152.41,-271.43 155.25,-275.42"/>
</g>
<!-- n8&#45;&gt;n7 -->
<g id="edge18" class="edge">
<title>n8&#45;&gt;n7</title>
<path fill="none" stroke="#64748b" d="M175.44,-375.7C178.05,-367.39 181.23,-357.28 184.1,-348.14"/>
<polygon fill="#64748b" stroke="#64748b" points="186.41,-348.96 186.17,-341.55 181.73,-347.49 186.41,-348.96"/>
</g>
<!-- n9 -->
<g id="node10" class="node">
<title>n9</title>
<g id="a_node10"><a xlink:href="https://github.com/statopia/statlib/blob/main/Statlib/HighDim/Regression/LassoOracle.lean#L910" xlink:title="theorem · Statlib/HighDim/Regression/LassoOracle.lean:910" target="_blank">
<path fill="#ffe6a3" stroke="#d4a017" d="M366.56,-484C366.56,-484 199.44,-484 199.44,-484 193.44,-484 187.44,-478 187.44,-472 187.44,-472 187.44,-460 187.44,-460 187.44,-454 193.44,-448 199.44,-448 199.44,-448 366.56,-448 366.56,-448 372.56,-448 378.56,-454 378.56,-460 378.56,-460 378.56,-472 378.56,-472 378.56,-478 372.56,-484 366.56,-484"/>
<text xml:space="preserve" text-anchor="middle" x="283" y="-463" font-family="Helvetica,sans-Serif" font-size="10.00">lasso_oracle_support_l2_of_supportRE</text>
</a>
</g>
</g>
<!-- n9&#45;&gt;n0 -->
<g id="edge22" class="edge">
<title>n9&#45;&gt;n0</title>
<path fill="none" stroke="#64748b" d="M283.88,-447.57C285.78,-411.74 290.65,-330.9 297,-304 299.23,-294.56 302.83,-284.58 306.42,-275.86"/>
<polygon fill="#64748b" stroke="#64748b" points="308.58,-277.04 309.09,-269.64 304.08,-275.11 308.58,-277.04"/>
</g>
<!-- n9&#45;&gt;n1 -->
<g id="edge24" class="edge">
<title>n9&#45;&gt;n1</title>
<path fill="none" stroke="#64748b" d="M187.22,-454.26C130.75,-445.93 66.6,-432.33 47,-412 -3.52,-359.6 17,-323.79 17,-251 17,-251 17,-251 17,-177 17,-62.44 197.56,-40.15 278.99,-35.93"/>
<polygon fill="#64748b" stroke="#64748b" points="279.09,-38.38 285.97,-35.61 278.86,-33.48 279.09,-38.38"/>
</g>
<!-- n9&#45;&gt;n4 -->
<g id="edge21" class="edge">
<title>n9&#45;&gt;n4</title>
<path fill="none" stroke="#64748b" d="M187.03,-453.18C136.67,-444.8 82.31,-431.52 67,-412 16.67,-347.83 82.84,-248.32 118.69,-202.98"/>
<polygon fill="#64748b" stroke="#64748b" points="120.52,-204.61 123,-197.62 116.7,-201.54 120.52,-204.61"/>
</g>
<!-- n9&#45;&gt;n5 -->
<g id="edge20" class="edge">
<title>n9&#45;&gt;n5</title>
<path fill="none" stroke="#64748b" d="M292.07,-447.59C305.18,-422.43 329.47,-375.83 344.34,-347.3"/>
<polygon fill="#64748b" stroke="#64748b" points="346.32,-348.79 347.38,-341.45 341.98,-346.53 346.32,-348.79"/>
</g>
<!-- n9&#45;&gt;n7 -->
<g id="edge23" class="edge">
<title>n9&#45;&gt;n7</title>
<path fill="none" stroke="#64748b" d="M285.2,-447.54C286.71,-428.51 286.45,-397.85 273,-376 265.05,-363.08 252.63,-352.68 239.89,-344.63"/>
<polygon fill="#64748b" stroke="#64748b" points="241.37,-342.66 234.1,-341.18 238.85,-346.87 241.37,-342.66"/>
</g>
<!-- n9&#45;&gt;n8 -->
<g id="edge25" class="edge">
<title>n9&#45;&gt;n8</title>
<path fill="none" stroke="#64748b" d="M254.78,-447.52C239.7,-438.18 221,-426.59 205,-416.68"/>
<polygon fill="#64748b" stroke="#64748b" points="206.39,-414.66 199.15,-413.06 203.81,-418.83 206.39,-414.66"/>
</g>
<!-- n10 -->
<g id="node11" class="node">
<title>n10</title>
<g id="a_node11"><a xlink:href="https://github.com/statopia/statlib/blob/main/Statlib/HighDim/Vocabulary/DesignMatrix.lean#L65" xlink:title="structure · Statlib/HighDim/Vocabulary/DesignMatrix.lean:65" target="_blank">
<path fill="#e8dcff" stroke="#8b5cf6" d="M637.84,-340C637.84,-340 594.16,-340 594.16,-340 588.16,-340 582.16,-334 582.16,-328 582.16,-328 582.16,-316 582.16,-316 582.16,-310 588.16,-304 594.16,-304 594.16,-304 637.84,-304 637.84,-304 643.84,-304 649.84,-310 649.84,-316 649.84,-316 649.84,-328 649.84,-328 649.84,-334 643.84,-340 637.84,-340"/>
<text xml:space="preserve" text-anchor="middle" x="616" y="-319" font-family="Helvetica,sans-Serif" font-size="10.00">SatisfiesRE</text>
</a>
</g>
</g>
<!-- n10&#45;&gt;n0 -->
<g id="edge26" class="edge">
<title>n10&#45;&gt;n0</title>
<path fill="none" stroke="#64748b" d="M581.92,-306.91C578.92,-305.86 575.92,-304.87 573,-304 496.63,-281.15 404.51,-264.64 354.55,-256.57"/>
<polygon fill="#64748b" stroke="#64748b" points="355.11,-254.18 347.81,-255.49 354.34,-259.02 355.11,-254.18"/>
</g>
<!-- n10&#45;&gt;n1 -->
<g id="edge27" class="edge">
<title>n10&#45;&gt;n1</title>
<path fill="none" stroke="#64748b" d="M597.81,-303.54C546.36,-254.16 399.78,-113.49 341.92,-57.95"/>
<polygon fill="#64748b" stroke="#64748b" points="343.79,-56.36 337.05,-53.28 340.4,-59.89 343.79,-56.36"/>
</g>
<!-- n11 -->
<g id="node12" class="node">
<title>n11</title>
<g id="a_node12"><a xlink:href="https://github.com/statopia/statlib/blob/main/Statlib/HighDim/Vocabulary/Sparse.lean#L54" xlink:title="lemma · Statlib/HighDim/Vocabulary/Sparse.lean:54" target="_blank">
<path fill="#eef2f6" stroke="#94a3b8" d="M678.03,-196C678.03,-196 575.97,-196 575.97,-196 569.97,-196 563.97,-190 563.97,-184 563.97,-184 563.97,-172 563.97,-172 563.97,-166 569.97,-160 575.97,-160 575.97,-160 678.03,-160 678.03,-160 684.03,-160 690.03,-166 690.03,-172 690.03,-172 690.03,-184 690.03,-184 690.03,-190 684.03,-196 678.03,-196"/>
<text xml:space="preserve" text-anchor="middle" x="627" y="-175" font-family="Helvetica,sans-Serif" font-size="10.00">support_l2_le_l2NormSq</text>
</a>
</g>
</g>
<!-- n11&#45;&gt;n1 -->
<g id="edge28" class="edge">
<title>n11&#45;&gt;n1</title>
<path fill="none" stroke="#64748b" d="M616.85,-159.67C603.96,-139.27 579.77,-105.89 550,-88 489.03,-51.36 405.14,-40.03 356.73,-36.54"/>
<polygon fill="#64748b" stroke="#64748b" points="357.06,-34.11 349.92,-36.09 356.74,-39 357.06,-34.11"/>
</g>
<!-- n12 -->
<g id="node13" class="node">
<title>n12</title>
<g id="a_node13"><a xlink:href="https://github.com/statopia/statlib/blob/main/Statlib/HighDim/Vocabulary/DesignMatrix.lean#L110" xlink:title="lemma · Statlib/HighDim/Vocabulary/DesignMatrix.lean:110" target="_blank">
<path fill="#eef2f6" stroke="#94a3b8" d="M557.63,-412C557.63,-412 508.37,-412 508.37,-412 502.37,-412 496.37,-406 496.37,-400 496.37,-400 496.37,-388 496.37,-388 496.37,-382 502.37,-376 508.37,-376 508.37,-376 557.63,-376 557.63,-376 563.63,-376 569.63,-382 569.63,-388 569.63,-388 569.63,-400 569.63,-400 569.63,-406 563.63,-412 557.63,-412"/>
<text xml:space="preserve" text-anchor="middle" x="533" y="-391" font-family="Helvetica,sans-Serif" font-size="10.00">toSupportRE</text>
</a>
</g>
</g>
<!-- n12&#45;&gt;n1 -->
<g id="edge32" class="edge">
<title>n12&#45;&gt;n1</title>
<path fill="none" stroke="#64748b" d="M570.08,-388.46C599.7,-382.66 639.37,-369.55 659,-340 667.85,-326.67 665.82,-318.47 659,-304 626.53,-235.15 433.16,-107.57 352.89,-56.73"/>
<polygon fill="#64748b" stroke="#64748b" points="354.45,-54.82 347.22,-53.15 351.83,-58.96 354.45,-54.82"/>
</g>
<!-- n12&#45;&gt;n2 -->
<g id="edge33" class="edge">
<title>n12&#45;&gt;n2</title>
<path fill="none" stroke="#64748b" d="M523.61,-375.7C519.01,-367.22 513.38,-356.86 508.34,-347.58"/>
<polygon fill="#64748b" stroke="#64748b" points="510.5,-346.42 505.01,-341.43 506.19,-348.76 510.5,-346.42"/>
</g>
<!-- n12&#45;&gt;n5 -->
<g id="edge30" class="edge">
<title>n12&#45;&gt;n5</title>
<path fill="none" stroke="#64748b" d="M496.1,-378.33C470.68,-368.21 436.53,-354.63 408.44,-343.46"/>
<polygon fill="#64748b" stroke="#64748b" points="409.5,-341.24 402.09,-340.93 407.69,-345.8 409.5,-341.24"/>
</g>
<!-- n12&#45;&gt;n10 -->
<g id="edge29" class="edge">
<title>n12&#45;&gt;n10</title>
<path fill="none" stroke="#64748b" d="M553.52,-375.7C564.29,-366.61 577.63,-355.36 589.21,-345.6"/>
<polygon fill="#64748b" stroke="#64748b" points="590.5,-347.71 594.27,-341.32 587.34,-343.96 590.5,-347.71"/>
</g>
<!-- n12&#45;&gt;n11 -->
<g id="edge31" class="edge">
<title>n12&#45;&gt;n11</title>
<path fill="none" stroke="#64748b" d="M570.1,-390.41C603.5,-385.88 650.78,-373.54 674,-340 703.56,-297.31 669.14,-235.98 645.52,-202.69"/>
<polygon fill="#64748b" stroke="#64748b" points="647.67,-201.47 641.57,-197.25 643.7,-204.35 647.67,-201.47"/>
</g>
<!-- n13 -->
<g id="node14" class="node">
<title>n13</title>
<g id="a_node14"><a xlink:href="https://github.com/statopia/statlib/blob/main/Statlib/HighDim/Regression/LassoOracle.lean#L950" xlink:title="theorem · Statlib/HighDim/Regression/LassoOracle.lean:950" target="_blank">
<path fill="#ffe6a3" stroke="#d4a017" stroke-width="3" d="M471.06,-556C471.06,-556 268.94,-556 268.94,-556 262.94,-556 256.94,-550 256.94,-544 256.94,-544 256.94,-532 256.94,-532 256.94,-526 262.94,-520 268.94,-520 268.94,-520 471.06,-520 471.06,-520 477.06,-520 483.06,-526 483.06,-532 483.06,-532 483.06,-544 483.06,-544 483.06,-550 477.06,-556 471.06,-556"/>
<text xml:space="preserve" text-anchor="middle" x="370" y="-535" font-family="Helvetica,sans-Serif" font-size="10.00">lasso_oracle_support_l2_of_uniformSupportRE</text>
</a>
</g>
</g>
<!-- n13&#45;&gt;n2 -->
<g id="edge34" class="edge">
<title>n13&#45;&gt;n2</title>
<path fill="none" stroke="#64748b" d="M380.66,-518.75C403.1,-480.33 455.26,-391.04 480.63,-347.61"/>
<polygon fill="#64748b" stroke="#64748b" points="482.72,-348.89 484.13,-341.61 478.49,-346.42 482.72,-348.89"/>
</g>
<!-- n13&#45;&gt;n4 -->
<g id="edge35" class="edge">
<title>n13&#45;&gt;n4</title>
<path fill="none" stroke="#64748b" d="M255.84,-527.36C181.24,-514.23 89.97,-483.51 47,-412 5.4,-342.77 24.81,-297.55 72,-232 80.48,-220.23 92.25,-209.72 103.58,-201.22"/>
<polygon fill="#64748b" stroke="#64748b" points="104.7,-203.43 108.93,-197.34 101.83,-199.46 104.7,-203.43"/>
</g>
<!-- n13&#45;&gt;n9 -->
<g id="edge36" class="edge">
<title>n13&#45;&gt;n9</title>
<path fill="none" stroke="#64748b" d="M347.14,-518.61C336.12,-509.74 322.79,-499.01 311.14,-489.64"/>
<polygon fill="#64748b" stroke="#64748b" points="312.68,-487.73 305.69,-485.25 309.61,-491.55 312.68,-487.73"/>
</g>
<!-- n13&#45;&gt;n12 -->
<g id="edge37" class="edge">
<title>n13&#45;&gt;n12</title>
<path fill="none" stroke="#64748b" d="M409.26,-518.57C426.43,-509.5 446.2,-497.58 462,-484 484.06,-465.03 504.23,-438.45 517.38,-419.29"/>
<polygon fill="#64748b" stroke="#64748b" points="519.34,-420.76 521.22,-413.59 515.28,-418.02 519.34,-420.76"/>
</g>
</g>
</svg>
