<?xml version="1.0" encoding="UTF-8" standalone="no"?>
<!DOCTYPE svg PUBLIC "-//W3C//DTD SVG 1.1//EN"
 "http://www.w3.org/Graphics/SVG/1.1/DTD/svg11.dtd">
<!-- Generated by graphviz version 15.0.0 (20260523.1842)
 -->
<!-- Title: lasso_oracle_prediction_of_uniformSupportRE Pages: 1 -->
<svg width="674pt" height="554pt"
 viewBox="0.00 0.00 674.00 554.00" xmlns="http://www.w3.org/2000/svg" xmlns:xlink="http://www.w3.org/1999/xlink">
<g id="graph0" class="graph" transform="scale(1 1) rotate(0) translate(4 550)">
<title>lasso_oracle_prediction_of_uniformSupportRE</title>
<polygon fill="white" stroke="none" points="-4,4 -4,-550 670,-550 670,4 -4,4"/>
<text xml:space="preserve" text-anchor="middle" x="333" y="-529.4" font-family="Helvetica,sans-Serif" font-size="14.00">Proof narrative — lasso_oracle_prediction_of_uniformSupportRE &#160;(13 decls)</text>
<g id="clust1" class="cluster">
<title>cluster_0</title>
<path fill="none" stroke="#cbd5e1" stroke-dasharray="5,2" d="M20,-8C20,-8 646,-8 646,-8 652,-8 658,-14 658,-20 658,-20 658,-501.2 658,-501.2 658,-507.2 652,-513.2 646,-513.2 646,-513.2 20,-513.2 20,-513.2 14,-513.2 8,-507.2 8,-501.2 8,-501.2 8,-20 8,-20 8,-14 14,-8 20,-8"/>
<text xml:space="preserve" text-anchor="middle" x="333" y="-499.3" font-family="Helvetica,sans-Serif" font-size="11.00">HighDim</text>
</g>
<!-- n0 -->
<g id="node1" class="node">
<title>n0</title>
<g id="a_node1"><a xlink:href="https://github.com/statopia/statlib/blob/main/Statlib/HighDim/Vocabulary/Sparse.lean#L49" xlink:title="def · Statlib/HighDim/Vocabulary/Sparse.lean:49" target="_blank">
<path fill="#d6e9ff" stroke="#3b82f6" d="M411.01,-268C411.01,-268 378.99,-268 378.99,-268 372.99,-268 366.99,-262 366.99,-256 366.99,-256 366.99,-244 366.99,-244 366.99,-238 372.99,-232 378.99,-232 378.99,-232 411.01,-232 411.01,-232 417.01,-232 423.01,-238 423.01,-244 423.01,-244 423.01,-256 423.01,-256 423.01,-262 417.01,-268 411.01,-268"/>
<text xml:space="preserve" text-anchor="middle" x="395" y="-247" font-family="Helvetica,sans-Serif" font-size="10.00">IsInCone</text>
</a>
</g>
</g>
<!-- n1 -->
<g id="node2" class="node">
<title>n1</title>
<g id="a_node2"><a xlink:href="https://github.com/statopia/statlib/blob/main/Statlib/HighDim/Vocabulary/Norms.lean#L13" xlink:title="noncomputable def · Statlib/HighDim/Vocabulary/Norms.lean:13" target="_blank">
<path fill="#d6e9ff" stroke="#3b82f6" d="M413.23,-52C413.23,-52 376.77,-52 376.77,-52 370.77,-52 364.77,-46 364.77,-40 364.77,-40 364.77,-28 364.77,-28 364.77,-22 370.77,-16 376.77,-16 376.77,-16 413.23,-16 413.23,-16 419.23,-16 425.23,-22 425.23,-28 425.23,-28 425.23,-40 425.23,-40 425.23,-46 419.23,-52 413.23,-52"/>
<text xml:space="preserve" text-anchor="middle" x="395" y="-31" font-family="Helvetica,sans-Serif" font-size="10.00">l2NormSq</text>
</a>
</g>
</g>
<!-- n2 -->
<g id="node3" class="node">
<title>n2</title>
<g id="a_node3"><a xlink:href="https://github.com/statopia/statlib/blob/main/Statlib/HighDim/Vocabulary/DesignMatrix.lean#L82" xlink:title="structure · Statlib/HighDim/Vocabulary/DesignMatrix.lean:82" target="_blank">
<path fill="#e8dcff" stroke="#8b5cf6" d="M181.86,-340C181.86,-340 68.14,-340 68.14,-340 62.14,-340 56.14,-334 56.14,-328 56.14,-328 56.14,-316 56.14,-316 56.14,-310 62.14,-304 68.14,-304 68.14,-304 181.86,-304 181.86,-304 187.86,-304 193.86,-310 193.86,-316 193.86,-316 193.86,-328 193.86,-328 193.86,-334 187.86,-340 181.86,-340"/>
<text xml:space="preserve" text-anchor="middle" x="125" y="-319" font-family="Helvetica,sans-Serif" font-size="10.00">SatisfiesUniformSupportRE</text>
</a>
</g>
</g>
<!-- n2&#45;&gt;n0 -->
<g id="edge1" class="edge">
<title>n2&#45;&gt;n0</title>
<path fill="none" stroke="#64748b" d="M194.28,-304.61C236.03,-294.53 290.21,-281.06 338,-268 344.73,-266.16 351.88,-264.11 358.75,-262.08"/>
<polygon fill="#64748b" stroke="#64748b" points="359.2,-264.51 365.21,-260.16 357.8,-259.81 359.2,-264.51"/>
</g>
<!-- n2&#45;&gt;n1 -->
<g id="edge2" class="edge">
<title>n2&#45;&gt;n1</title>
<path fill="none" stroke="#64748b" d="M122.62,-303.71C119.23,-272.74 116,-206.64 142,-160 185.77,-81.49 296.76,-51.31 356.13,-40.51"/>
<polygon fill="#64748b" stroke="#64748b" points="356.53,-42.93 363.01,-39.31 355.69,-38.1 356.53,-42.93"/>
</g>
<!-- n3 -->
<g id="node4" class="node">
<title>n3</title>
<g id="a_node4"><a xlink:href="https://github.com/statopia/statlib/blob/main/Statlib/HighDim/Regression/LassoOracle.lean#L48" xlink:title="noncomputable def · Statlib/HighDim/Regression/LassoOracle.lean:48" target="_blank">
<path fill="#d6e9ff" stroke="#3b82f6" d="M286.45,-124C286.45,-124 255.55,-124 255.55,-124 249.55,-124 243.55,-118 243.55,-112 243.55,-112 243.55,-100 243.55,-100 243.55,-94 249.55,-88 255.55,-88 255.55,-88 286.45,-88 286.45,-88 292.45,-88 298.45,-94 298.45,-100 298.45,-100 298.45,-112 298.45,-112 298.45,-118 292.45,-124 286.45,-124"/>
<text xml:space="preserve" text-anchor="middle" x="271" y="-103" font-family="Helvetica,sans-Serif" font-size="10.00">lassoObj</text>
</a>
</g>
</g>
<!-- n3&#45;&gt;n1 -->
<g id="edge3" class="edge">
<title>n3&#45;&gt;n1</title>
<path fill="none" stroke="#64748b" d="M298.83,-89.29C316.1,-79.54 338.52,-66.89 357.36,-56.25"/>
<polygon fill="#64748b" stroke="#64748b" points="358.45,-58.45 363.34,-52.87 356.04,-54.18 358.45,-58.45"/>
</g>
<!-- n4 -->
<g id="node5" class="node">
<title>n4</title>
<g id="a_node5"><a xlink:href="https://github.com/statopia/statlib/blob/main/Statlib/HighDim/Regression/LassoOracle.lean#L53" xlink:title="def · Statlib/HighDim/Regression/LassoOracle.lean:53" target="_blank">
<path fill="#d6e9ff" stroke="#3b82f6" d="M225.3,-196C225.3,-196 162.7,-196 162.7,-196 156.7,-196 150.7,-190 150.7,-184 150.7,-184 150.7,-172 150.7,-172 150.7,-166 156.7,-160 162.7,-160 162.7,-160 225.3,-160 225.3,-160 231.3,-160 237.3,-166 237.3,-172 237.3,-172 237.3,-184 237.3,-184 237.3,-190 231.3,-196 225.3,-196"/>
<text xml:space="preserve" text-anchor="middle" x="194" y="-175" font-family="Helvetica,sans-Serif" font-size="10.00">IsLassoSolution</text>
</a>
</g>
</g>
<!-- n4&#45;&gt;n3 -->
<g id="edge4" class="edge">
<title>n4&#45;&gt;n3</title>
<path fill="none" stroke="#64748b" d="M213.03,-159.7C222.94,-150.69 235.17,-139.57 245.84,-129.87"/>
<polygon fill="#64748b" stroke="#64748b" points="247.27,-131.89 250.8,-125.37 243.97,-128.26 247.27,-131.89"/>
</g>
<!-- n5 -->
<g id="node6" class="node">
<title>n5</title>
<g id="a_node6"><a xlink:href="https://github.com/statopia/statlib/blob/main/Statlib/HighDim/Vocabulary/DesignMatrix.lean#L50" xlink:title="structure · Statlib/HighDim/Vocabulary/DesignMatrix.lean:50" target="_blank">
<path fill="#e8dcff" stroke="#8b5cf6" d="M512.35,-340C512.35,-340 433.65,-340 433.65,-340 427.65,-340 421.65,-334 421.65,-328 421.65,-328 421.65,-316 421.65,-316 421.65,-310 427.65,-304 433.65,-304 433.65,-304 512.35,-304 512.35,-304 518.35,-304 524.35,-310 524.35,-316 524.35,-316 524.35,-328 524.35,-328 524.35,-334 518.35,-340 512.35,-340"/>
<text xml:space="preserve" text-anchor="middle" x="473" y="-319" font-family="Helvetica,sans-Serif" font-size="10.00">SatisfiesSupportRE</text>
</a>
</g>
</g>
<!-- n5&#45;&gt;n0 -->
<g id="edge5" class="edge">
<title>n5&#45;&gt;n0</title>
<path fill="none" stroke="#64748b" d="M453.72,-303.7C443.69,-294.69 431.29,-283.57 420.48,-273.87"/>
<polygon fill="#64748b" stroke="#64748b" points="422.3,-272.21 415.46,-269.36 419.03,-275.86 422.3,-272.21"/>
</g>
<!-- n5&#45;&gt;n1 -->
<g id="edge6" class="edge">
<title>n5&#45;&gt;n1</title>
<path fill="none" stroke="#64748b" d="M474.78,-303.59C478.11,-263.39 482.11,-161.9 447,-88 441.65,-76.74 432.93,-66.43 424.14,-57.95"/>
<polygon fill="#64748b" stroke="#64748b" points="426.01,-56.34 419.2,-53.41 422.69,-59.95 426.01,-56.34"/>
</g>
<!-- n6 -->
<g id="node7" class="node">
<title>n6</title>
<g id="a_node7"><a xlink:href="https://github.com/statopia/statlib/blob/main/Statlib/HighDim/Regression/LassoOracle.lean#L65" xlink:title="lemma · Statlib/HighDim/Regression/LassoOracle.lean:65" target="_blank">
<path fill="#eef2f6" stroke="#94a3b8" d="M317.03,-268C317.03,-268 224.97,-268 224.97,-268 218.97,-268 212.97,-262 212.97,-256 212.97,-256 212.97,-244 212.97,-244 212.97,-238 218.97,-232 224.97,-232 224.97,-232 317.03,-232 317.03,-232 323.03,-232 329.03,-238 329.03,-244 329.03,-244 329.03,-256 329.03,-256 329.03,-262 323.03,-268 317.03,-268"/>
<text xml:space="preserve" text-anchor="middle" x="271" y="-247" font-family="Helvetica,sans-Serif" font-size="10.00">lasso_basic_inequality</text>
</a>
</g>
</g>
<!-- n6&#45;&gt;n1 -->
<g id="edge8" class="edge">
<title>n6&#45;&gt;n1</title>
<path fill="none" stroke="#64748b" d="M276.52,-231.52C286.7,-200.79 310.41,-135.82 343,-88 350.25,-77.35 359.77,-66.94 368.68,-58.21"/>
<polygon fill="#64748b" stroke="#64748b" points="370.24,-60.1 373.61,-53.49 366.86,-56.55 370.24,-60.1"/>
</g>
<!-- n6&#45;&gt;n3 -->
<g id="edge9" class="edge">
<title>n6&#45;&gt;n3</title>
<path fill="none" stroke="#64748b" d="M271,-231.59C271,-206.76 271,-161.01 271,-132.4"/>
<polygon fill="#64748b" stroke="#64748b" points="273.45,-132.62 271,-125.62 268.55,-132.62 273.45,-132.62"/>
</g>
<!-- n6&#45;&gt;n4 -->
<g id="edge7" class="edge">
<title>n6&#45;&gt;n4</title>
<path fill="none" stroke="#64748b" d="M251.97,-231.7C242.06,-222.69 229.83,-211.57 219.16,-201.87"/>
<polygon fill="#64748b" stroke="#64748b" points="221.03,-200.26 214.2,-197.37 217.73,-203.89 221.03,-200.26"/>
</g>
<!-- n7 -->
<g id="node8" class="node">
<title>n7</title>
<g id="a_node8"><a xlink:href="https://github.com/statopia/statlib/blob/main/Statlib/HighDim/Regression/LassoOracle.lean#L257" xlink:title="lemma · Statlib/HighDim/Regression/LassoOracle.lean:257" target="_blank">
<path fill="#eef2f6" stroke="#94a3b8" d="M352.09,-340C352.09,-340 263.91,-340 263.91,-340 257.91,-340 251.91,-334 251.91,-328 251.91,-328 251.91,-316 251.91,-316 251.91,-310 257.91,-304 263.91,-304 263.91,-304 352.09,-304 352.09,-304 358.09,-304 364.09,-310 364.09,-316 364.09,-316 364.09,-328 364.09,-328 364.09,-334 358.09,-340 352.09,-340"/>
<text xml:space="preserve" text-anchor="middle" x="308" y="-319" font-family="Helvetica,sans-Serif" font-size="10.00">lasso_cone_condition</text>
</a>
</g>
</g>
<!-- n7&#45;&gt;n0 -->
<g id="edge11" class="edge">
<title>n7&#45;&gt;n0</title>
<path fill="none" stroke="#64748b" d="M329.51,-303.7C340.8,-294.61 354.78,-283.36 366.91,-273.6"/>
<polygon fill="#64748b" stroke="#64748b" points="368.34,-275.59 372.26,-269.3 365.27,-271.78 368.34,-275.59"/>
</g>
<!-- n7&#45;&gt;n1 -->
<g id="edge12" class="edge">
<title>n7&#45;&gt;n1</title>
<path fill="none" stroke="#64748b" d="M319.26,-303.94C325.51,-293.83 333.01,-280.58 338,-268 366.72,-195.57 383.91,-104.54 391.08,-60.8"/>
<polygon fill="#64748b" stroke="#64748b" points="393.49,-61.25 392.18,-53.95 388.65,-60.47 393.49,-61.25"/>
</g>
<!-- n7&#45;&gt;n4 -->
<g id="edge10" class="edge">
<title>n7&#45;&gt;n4</title>
<path fill="none" stroke="#64748b" d="M251.52,-304.26C233.56,-296.16 215.42,-284.49 204,-268 191.26,-249.6 189.68,-223.75 190.75,-204.65"/>
<polygon fill="#64748b" stroke="#64748b" points="193.17,-205.08 191.27,-197.91 188.29,-204.7 193.17,-205.08"/>
</g>
<!-- n7&#45;&gt;n6 -->
<g id="edge13" class="edge">
<title>n7&#45;&gt;n6</title>
<path fill="none" stroke="#64748b" d="M298.85,-303.7C294.37,-295.22 288.9,-284.86 283.99,-275.58"/>
<polygon fill="#64748b" stroke="#64748b" points="286.19,-274.49 280.75,-269.44 281.85,-276.78 286.19,-274.49"/>
</g>
<!-- n8 -->
<g id="node9" class="node">
<title>n8</title>
<g id="a_node9"><a xlink:href="https://github.com/statopia/statlib/blob/main/Statlib/HighDim/Regression/LassoOracle.lean#L416" xlink:title="theorem · Statlib/HighDim/Regression/LassoOracle.lean:416" target="_blank">
<path fill="#ffe6a3" stroke="#d4a017" d="M389.89,-412C389.89,-412 226.11,-412 226.11,-412 220.11,-412 214.11,-406 214.11,-400 214.11,-400 214.11,-388 214.11,-388 214.11,-382 220.11,-376 226.11,-376 226.11,-376 389.89,-376 389.89,-376 395.89,-376 401.89,-382 401.89,-388 401.89,-388 401.89,-400 401.89,-400 401.89,-406 395.89,-412 389.89,-412"/>
<text xml:space="preserve" text-anchor="middle" x="308" y="-391" font-family="Helvetica,sans-Serif" font-size="10.00">lasso_oracle_prediction_of_supportRE</text>
</a>
</g>
</g>
<!-- n8&#45;&gt;n0 -->
<g id="edge17" class="edge">
<title>n8&#45;&gt;n0</title>
<path fill="none" stroke="#64748b" d="M336.95,-375.59C349.77,-366.49 363.96,-354.27 373,-340 385.13,-320.85 390.57,-295.45 393.01,-276.69"/>
<polygon fill="#64748b" stroke="#64748b" points="395.44,-277.07 393.79,-269.84 390.57,-276.51 395.44,-277.07"/>
</g>
<!-- n8&#45;&gt;n1 -->
<g id="edge16" class="edge">
<title>n8&#45;&gt;n1</title>
<path fill="none" stroke="#64748b" d="M338.97,-375.59C353.93,-366.25 371.51,-353.82 385,-340 398.34,-326.32 426.55,-286.31 432,-268 453.94,-194.24 423.75,-103.24 406.12,-60.04"/>
<polygon fill="#64748b" stroke="#64748b" points="408.43,-59.21 403.47,-53.7 403.91,-61.1 408.43,-59.21"/>
</g>
<!-- n8&#45;&gt;n4 -->
<g id="edge15" class="edge">
<title>n8&#45;&gt;n4</title>
<path fill="none" stroke="#64748b" d="M279.05,-375.55C264.81,-366.11 247.96,-353.62 235,-340 208.66,-312.32 198.9,-304.63 188,-268 181.85,-247.34 184.17,-222.83 187.56,-204.76"/>
<polygon fill="#64748b" stroke="#64748b" points="189.95,-205.29 188.97,-197.94 185.15,-204.3 189.95,-205.29"/>
</g>
<!-- n8&#45;&gt;n5 -->
<g id="edge14" class="edge">
<title>n8&#45;&gt;n5</title>
<path fill="none" stroke="#64748b" d="M349.21,-375.52C372.04,-365.83 400.54,-353.74 424.44,-343.6"/>
<polygon fill="#64748b" stroke="#64748b" points="425.15,-345.96 430.64,-340.97 423.23,-341.45 425.15,-345.96"/>
</g>
<!-- n8&#45;&gt;n6 -->
<g id="edge19" class="edge">
<title>n8&#45;&gt;n6</title>
<path fill="none" stroke="#64748b" d="M276.08,-375.54C263.31,-366.72 250,-354.73 243,-340 233,-318.95 243.09,-293.44 253.84,-275.14"/>
<polygon fill="#64748b" stroke="#64748b" points="255.7,-276.79 257.32,-269.55 251.54,-274.2 255.7,-276.79"/>
</g>
<!-- n8&#45;&gt;n7 -->
<g id="edge18" class="edge">
<title>n8&#45;&gt;n7</title>
<path fill="none" stroke="#64748b" d="M308,-375.7C308,-367.47 308,-357.48 308,-348.42"/>
<polygon fill="#64748b" stroke="#64748b" points="310.45,-348.62 308,-341.62 305.55,-348.62 310.45,-348.62"/>
</g>
<!-- n9 -->
<g id="node10" class="node">
<title>n9</title>
<g id="a_node10"><a xlink:href="https://github.com/statopia/statlib/blob/main/Statlib/HighDim/Vocabulary/DesignMatrix.lean#L65" xlink:title="structure · Statlib/HighDim/Vocabulary/DesignMatrix.lean:65" target="_blank">
<path fill="#e8dcff" stroke="#8b5cf6" d="M597.84,-340C597.84,-340 554.16,-340 554.16,-340 548.16,-340 542.16,-334 542.16,-328 542.16,-328 542.16,-316 542.16,-316 542.16,-310 548.16,-304 554.16,-304 554.16,-304 597.84,-304 597.84,-304 603.84,-304 609.84,-310 609.84,-316 609.84,-316 609.84,-328 609.84,-328 609.84,-334 603.84,-340 597.84,-340"/>
<text xml:space="preserve" text-anchor="middle" x="576" y="-319" font-family="Helvetica,sans-Serif" font-size="10.00">SatisfiesRE</text>
</a>
</g>
</g>
<!-- n9&#45;&gt;n0 -->
<g id="edge20" class="edge">
<title>n9&#45;&gt;n0</title>
<path fill="none" stroke="#64748b" d="M541.74,-307.42C538.79,-306.26 535.84,-305.11 533,-304 498.5,-290.56 459.06,-275.43 431.21,-264.79"/>
<polygon fill="#64748b" stroke="#64748b" points="432.14,-262.53 424.73,-262.32 430.39,-267.11 432.14,-262.53"/>
</g>
<!-- n9&#45;&gt;n1 -->
<g id="edge21" class="edge">
<title>n9&#45;&gt;n1</title>
<path fill="none" stroke="#64748b" d="M564.17,-303.75C548.29,-280.13 519.79,-236.08 500,-196 477.2,-149.82 487.97,-129.88 458,-88 449.8,-76.55 438.58,-66.06 427.88,-57.49"/>
<polygon fill="#64748b" stroke="#64748b" points="429.54,-55.68 422.51,-53.33 426.55,-59.55 429.54,-55.68"/>
</g>
<!-- n10 -->
<g id="node11" class="node">
<title>n10</title>
<g id="a_node11"><a xlink:href="https://github.com/statopia/statlib/blob/main/Statlib/HighDim/Vocabulary/Sparse.lean#L54" xlink:title="lemma · Statlib/HighDim/Vocabulary/Sparse.lean:54" target="_blank">
<path fill="#eef2f6" stroke="#94a3b8" d="M638.03,-196C638.03,-196 535.97,-196 535.97,-196 529.97,-196 523.97,-190 523.97,-184 523.97,-184 523.97,-172 523.97,-172 523.97,-166 529.97,-160 535.97,-160 535.97,-160 638.03,-160 638.03,-160 644.03,-160 650.03,-166 650.03,-172 650.03,-172 650.03,-184 650.03,-184 650.03,-190 644.03,-196 638.03,-196"/>
<text xml:space="preserve" text-anchor="middle" x="587" y="-175" font-family="Helvetica,sans-Serif" font-size="10.00">support_l2_le_l2NormSq</text>
</a>
</g>
</g>
<!-- n10&#45;&gt;n1 -->
<g id="edge22" class="edge">
<title>n10&#45;&gt;n1</title>
<path fill="none" stroke="#64748b" d="M575.44,-159.64C561.73,-140.13 537.27,-108.51 510,-88 486.64,-70.43 456.52,-56.82 432.96,-47.79"/>
<polygon fill="#64748b" stroke="#64748b" points="434.08,-45.59 426.67,-45.43 432.36,-50.18 434.08,-45.59"/>
</g>
<!-- n11 -->
<g id="node12" class="node">
<title>n11</title>
<g id="a_node12"><a xlink:href="https://github.com/statopia/statlib/blob/main/Statlib/HighDim/Vocabulary/DesignMatrix.lean#L110" xlink:title="lemma · Statlib/HighDim/Vocabulary/DesignMatrix.lean:110" target="_blank">
<path fill="#eef2f6" stroke="#94a3b8" d="M548.63,-412C548.63,-412 499.37,-412 499.37,-412 493.37,-412 487.37,-406 487.37,-400 487.37,-400 487.37,-388 487.37,-388 487.37,-382 493.37,-376 499.37,-376 499.37,-376 548.63,-376 548.63,-376 554.63,-376 560.63,-382 560.63,-388 560.63,-388 560.63,-400 560.63,-400 560.63,-406 554.63,-412 548.63,-412"/>
<text xml:space="preserve" text-anchor="middle" x="524" y="-391" font-family="Helvetica,sans-Serif" font-size="10.00">toSupportRE</text>
</a>
</g>
</g>
<!-- n11&#45;&gt;n1 -->
<g id="edge26" class="edge">
<title>n11&#45;&gt;n1</title>
<path fill="none" stroke="#64748b" d="M560.87,-382.69C581.89,-374.71 606.47,-361.33 619,-340 627.1,-326.2 624.98,-318.84 619,-304 594.08,-242.2 551.11,-252 515,-196 487,-152.58 504.22,-128.39 472,-88 461.4,-74.71 446.58,-63.43 432.77,-54.73"/>
<polygon fill="#64748b" stroke="#64748b" points="434.22,-52.74 426.97,-51.2 431.68,-56.93 434.22,-52.74"/>
</g>
<!-- n11&#45;&gt;n2 -->
<g id="edge27" class="edge">
<title>n11&#45;&gt;n2</title>
<path fill="none" stroke="#64748b" d="M487.18,-386.54C422.7,-375.23 288.07,-351.61 202.35,-336.57"/>
<polygon fill="#64748b" stroke="#64748b" points="203.02,-334.2 195.71,-335.4 202.18,-339.03 203.02,-334.2"/>
</g>
<!-- n11&#45;&gt;n5 -->
<g id="edge24" class="edge">
<title>n11&#45;&gt;n5</title>
<path fill="none" stroke="#64748b" d="M511.39,-375.7C505.03,-366.97 497.22,-356.24 490.3,-346.75"/>
<polygon fill="#64748b" stroke="#64748b" points="492.46,-345.54 486.35,-341.33 488.49,-348.43 492.46,-345.54"/>
</g>
<!-- n11&#45;&gt;n9 -->
<g id="edge23" class="edge">
<title>n11&#45;&gt;n9</title>
<path fill="none" stroke="#64748b" d="M536.85,-375.7C543.34,-366.97 551.31,-356.24 558.36,-346.75"/>
<polygon fill="#64748b" stroke="#64748b" points="560.18,-348.4 562.39,-341.32 556.25,-345.48 560.18,-348.4"/>
</g>
<!-- n11&#45;&gt;n10 -->
<g id="edge25" class="edge">
<title>n11&#45;&gt;n10</title>
<path fill="none" stroke="#64748b" d="M561.02,-385.85C586.35,-378.82 618.1,-365.31 634,-340 661.48,-296.26 628.31,-235.84 605.35,-202.85"/>
<polygon fill="#64748b" stroke="#64748b" points="607.57,-201.75 601.51,-197.48 603.58,-204.6 607.57,-201.75"/>
</g>
<!-- n12 -->
<g id="node13" class="node">
<title>n12</title>
<g id="a_node13"><a xlink:href="https://github.com/statopia/statlib/blob/main/Statlib/HighDim/Regression/LassoOracle.lean#L613" xlink:title="theorem · Statlib/HighDim/Regression/LassoOracle.lean:613" target="_blank">
<path fill="#ffe6a3" stroke="#d4a017" stroke-width="3" d="M226.39,-484C226.39,-484 27.61,-484 27.61,-484 21.61,-484 15.61,-478 15.61,-472 15.61,-472 15.61,-460 15.61,-460 15.61,-454 21.61,-448 27.61,-448 27.61,-448 226.39,-448 226.39,-448 232.39,-448 238.39,-454 238.39,-460 238.39,-460 238.39,-472 238.39,-472 238.39,-478 232.39,-484 226.39,-484"/>
<text xml:space="preserve" text-anchor="middle" x="127" y="-463" font-family="Helvetica,sans-Serif" font-size="10.00">lasso_oracle_prediction_of_uniformSupportRE</text>
</a>
</g>
</g>
<!-- n12&#45;&gt;n1 -->
<g id="edge30" class="edge">
<title>n12&#45;&gt;n1</title>
<path fill="none" stroke="#64748b" d="M90.2,-446.59C75.7,-437.8 59.94,-426.1 49,-412 23.24,-378.78 17,-365.03 17,-323 17,-323 17,-323 17,-177 17,-105.12 259.54,-57.28 356.06,-41.09"/>
<polygon fill="#64748b" stroke="#64748b" points="356.39,-43.52 362.89,-39.96 355.59,-38.69 356.39,-43.52"/>
</g>
<!-- n12&#45;&gt;n2 -->
<g id="edge28" class="edge">
<title>n12&#45;&gt;n2</title>
<path fill="none" stroke="#64748b" d="M126.74,-446.73C126.39,-421.75 125.76,-376.81 125.36,-348.52"/>
<polygon fill="#64748b" stroke="#64748b" points="127.81,-348.79 125.27,-341.83 122.91,-348.86 127.81,-348.79"/>
</g>
<!-- n12&#45;&gt;n4 -->
<g id="edge29" class="edge">
<title>n12&#45;&gt;n4</title>
<path fill="none" stroke="#64748b" d="M106.11,-446.57C75.05,-416.82 22.83,-356.27 47,-304 68.59,-257.3 117.18,-221.65 152.6,-200.59"/>
<polygon fill="#64748b" stroke="#64748b" points="153.82,-202.72 158.64,-197.08 151.36,-198.48 153.82,-202.72"/>
</g>
<!-- n12&#45;&gt;n8 -->
<g id="edge31" class="edge">
<title>n12&#45;&gt;n8</title>
<path fill="none" stroke="#64748b" d="M174.56,-446.61C199.33,-437.03 229.69,-425.28 255.2,-415.42"/>
<polygon fill="#64748b" stroke="#64748b" points="255.89,-417.78 261.53,-412.97 254.12,-413.21 255.89,-417.78"/>
</g>
<!-- n12&#45;&gt;n11 -->
<g id="edge32" class="edge">
<title>n12&#45;&gt;n11</title>
<path fill="none" stroke="#64748b" d="M231.83,-446.52C312.35,-432.32 419.55,-413.42 479.17,-402.9"/>
<polygon fill="#64748b" stroke="#64748b" points="479.3,-405.37 485.77,-401.74 478.45,-400.54 479.3,-405.37"/>
</g>
</g>
</svg>
