<?xml version="1.0" encoding="UTF-8" standalone="no"?>
<!DOCTYPE svg PUBLIC "-//W3C//DTD SVG 1.1//EN"
 "http://www.w3.org/Graphics/SVG/1.1/DTD/svg11.dtd">
<!-- Generated by graphviz version 15.0.0 (20260523.1842)
 -->
<!-- Title: lasso_oracle_l1_of_uniformSupportRE Pages: 1 -->
<svg width="654pt" height="554pt"
 viewBox="0.00 0.00 654.00 554.00" xmlns="http://www.w3.org/2000/svg" xmlns:xlink="http://www.w3.org/1999/xlink">
<g id="graph0" class="graph" transform="scale(1 1) rotate(0) translate(4 550)">
<title>lasso_oracle_l1_of_uniformSupportRE</title>
<polygon fill="white" stroke="none" points="-4,4 -4,-550 650,-550 650,4 -4,4"/>
<text xml:space="preserve" text-anchor="middle" x="323" y="-529.4" font-family="Helvetica,sans-Serif" font-size="14.00">Proof narrative — lasso_oracle_l1_of_uniformSupportRE &#160;(13 decls)</text>
<g id="clust1" class="cluster">
<title>cluster_0</title>
<path fill="none" stroke="#cbd5e1" stroke-dasharray="5,2" d="M20,-8C20,-8 626,-8 626,-8 632,-8 638,-14 638,-20 638,-20 638,-501.2 638,-501.2 638,-507.2 632,-513.2 626,-513.2 626,-513.2 20,-513.2 20,-513.2 14,-513.2 8,-507.2 8,-501.2 8,-501.2 8,-20 8,-20 8,-14 14,-8 20,-8"/>
<text xml:space="preserve" text-anchor="middle" x="323" y="-499.3" font-family="Helvetica,sans-Serif" font-size="11.00">HighDim</text>
</g>
<!-- n0 -->
<g id="node1" class="node">
<title>n0</title>
<g id="a_node1"><a xlink:href="https://github.com/statopia/statlib/blob/main/Statlib/HighDim/Vocabulary/Sparse.lean#L49" xlink:title="def · Statlib/HighDim/Vocabulary/Sparse.lean:49" target="_blank">
<path fill="#d6e9ff" stroke="#3b82f6" d="M303.01,-268C303.01,-268 270.99,-268 270.99,-268 264.99,-268 258.99,-262 258.99,-256 258.99,-256 258.99,-244 258.99,-244 258.99,-238 264.99,-232 270.99,-232 270.99,-232 303.01,-232 303.01,-232 309.01,-232 315.01,-238 315.01,-244 315.01,-244 315.01,-256 315.01,-256 315.01,-262 309.01,-268 303.01,-268"/>
<text xml:space="preserve" text-anchor="middle" x="287" y="-247" font-family="Helvetica,sans-Serif" font-size="10.00">IsInCone</text>
</a>
</g>
</g>
<!-- n1 -->
<g id="node2" class="node">
<title>n1</title>
<g id="a_node2"><a xlink:href="https://github.com/statopia/statlib/blob/main/Statlib/HighDim/Vocabulary/Norms.lean#L13" xlink:title="noncomputable def · Statlib/HighDim/Vocabulary/Norms.lean:13" target="_blank">
<path fill="#d6e9ff" stroke="#3b82f6" d="M352.23,-52C352.23,-52 315.77,-52 315.77,-52 309.77,-52 303.77,-46 303.77,-40 303.77,-40 303.77,-28 303.77,-28 303.77,-22 309.77,-16 315.77,-16 315.77,-16 352.23,-16 352.23,-16 358.23,-16 364.23,-22 364.23,-28 364.23,-28 364.23,-40 364.23,-40 364.23,-46 358.23,-52 352.23,-52"/>
<text xml:space="preserve" text-anchor="middle" x="334" y="-31" font-family="Helvetica,sans-Serif" font-size="10.00">l2NormSq</text>
</a>
</g>
</g>
<!-- n2 -->
<g id="node3" class="node">
<title>n2</title>
<g id="a_node3"><a xlink:href="https://github.com/statopia/statlib/blob/main/Statlib/HighDim/Vocabulary/DesignMatrix.lean#L82" xlink:title="structure · Statlib/HighDim/Vocabulary/DesignMatrix.lean:82" target="_blank">
<path fill="#e8dcff" stroke="#8b5cf6" d="M491.86,-340C491.86,-340 378.14,-340 378.14,-340 372.14,-340 366.14,-334 366.14,-328 366.14,-328 366.14,-316 366.14,-316 366.14,-310 372.14,-304 378.14,-304 378.14,-304 491.86,-304 491.86,-304 497.86,-304 503.86,-310 503.86,-316 503.86,-316 503.86,-328 503.86,-328 503.86,-334 497.86,-340 491.86,-340"/>
<text xml:space="preserve" text-anchor="middle" x="435" y="-319" font-family="Helvetica,sans-Serif" font-size="10.00">SatisfiesUniformSupportRE</text>
</a>
</g>
</g>
<!-- n2&#45;&gt;n0 -->
<g id="edge1" class="edge">
<title>n2&#45;&gt;n0</title>
<path fill="none" stroke="#64748b" d="M398.04,-303.52C374.96,-292.6 345.41,-278.63 322.59,-267.83"/>
<polygon fill="#64748b" stroke="#64748b" points="323.88,-265.73 316.5,-264.95 321.78,-270.16 323.88,-265.73"/>
</g>
<!-- n2&#45;&gt;n1 -->
<g id="edge2" class="edge">
<title>n2&#45;&gt;n1</title>
<path fill="none" stroke="#64748b" d="M428.83,-303.54C411.61,-254.76 362.92,-116.89 342.83,-60.02"/>
<polygon fill="#64748b" stroke="#64748b" points="345.23,-59.44 340.59,-53.66 340.61,-61.08 345.23,-59.44"/>
</g>
<!-- n3 -->
<g id="node4" class="node">
<title>n3</title>
<g id="a_node4"><a xlink:href="https://github.com/statopia/statlib/blob/main/Statlib/HighDim/Regression/LassoOracle.lean#L48" xlink:title="noncomputable def · Statlib/HighDim/Regression/LassoOracle.lean:48" target="_blank">
<path fill="#d6e9ff" stroke="#3b82f6" d="M149.45,-124C149.45,-124 118.55,-124 118.55,-124 112.55,-124 106.55,-118 106.55,-112 106.55,-112 106.55,-100 106.55,-100 106.55,-94 112.55,-88 118.55,-88 118.55,-88 149.45,-88 149.45,-88 155.45,-88 161.45,-94 161.45,-100 161.45,-100 161.45,-112 161.45,-112 161.45,-118 155.45,-124 149.45,-124"/>
<text xml:space="preserve" text-anchor="middle" x="134" y="-103" font-family="Helvetica,sans-Serif" font-size="10.00">lassoObj</text>
</a>
</g>
</g>
<!-- n3&#45;&gt;n1 -->
<g id="edge3" class="edge">
<title>n3&#45;&gt;n1</title>
<path fill="none" stroke="#64748b" d="M161.69,-94.65C167.72,-92.43 174.07,-90.12 180,-88 219.24,-74 264.32,-58.56 295.52,-47.97"/>
<polygon fill="#64748b" stroke="#64748b" points="296.26,-50.31 302.11,-45.74 294.69,-45.67 296.26,-50.31"/>
</g>
<!-- n4 -->
<g id="node5" class="node">
<title>n4</title>
<g id="a_node5"><a xlink:href="https://github.com/statopia/statlib/blob/main/Statlib/HighDim/Regression/LassoOracle.lean#L53" xlink:title="def · Statlib/HighDim/Regression/LassoOracle.lean:53" target="_blank">
<path fill="#d6e9ff" stroke="#3b82f6" d="M90.3,-196C90.3,-196 27.7,-196 27.7,-196 21.7,-196 15.7,-190 15.7,-184 15.7,-184 15.7,-172 15.7,-172 15.7,-166 21.7,-160 27.7,-160 27.7,-160 90.3,-160 90.3,-160 96.3,-160 102.3,-166 102.3,-172 102.3,-172 102.3,-184 102.3,-184 102.3,-190 96.3,-196 90.3,-196"/>
<text xml:space="preserve" text-anchor="middle" x="59" y="-175" font-family="Helvetica,sans-Serif" font-size="10.00">IsLassoSolution</text>
</a>
</g>
</g>
<!-- n4&#45;&gt;n3 -->
<g id="edge4" class="edge">
<title>n4&#45;&gt;n3</title>
<path fill="none" stroke="#64748b" d="M77.54,-159.7C87.09,-150.78 98.88,-139.78 109.21,-130.14"/>
<polygon fill="#64748b" stroke="#64748b" points="110.86,-131.95 114.31,-125.38 107.52,-128.36 110.86,-131.95"/>
</g>
<!-- n5 -->
<g id="node6" class="node">
<title>n5</title>
<g id="a_node6"><a xlink:href="https://github.com/statopia/statlib/blob/main/Statlib/HighDim/Vocabulary/DesignMatrix.lean#L50" xlink:title="structure · Statlib/HighDim/Vocabulary/DesignMatrix.lean:50" target="_blank">
<path fill="#e8dcff" stroke="#8b5cf6" d="M336.35,-340C336.35,-340 257.65,-340 257.65,-340 251.65,-340 245.65,-334 245.65,-328 245.65,-328 245.65,-316 245.65,-316 245.65,-310 251.65,-304 257.65,-304 257.65,-304 336.35,-304 336.35,-304 342.35,-304 348.35,-310 348.35,-316 348.35,-316 348.35,-328 348.35,-328 348.35,-334 342.35,-340 336.35,-340"/>
<text xml:space="preserve" text-anchor="middle" x="297" y="-319" font-family="Helvetica,sans-Serif" font-size="10.00">SatisfiesSupportRE</text>
</a>
</g>
</g>
<!-- n5&#45;&gt;n0 -->
<g id="edge5" class="edge">
<title>n5&#45;&gt;n0</title>
<path fill="none" stroke="#64748b" d="M294.53,-303.7C293.35,-295.47 291.93,-285.48 290.63,-276.42"/>
<polygon fill="#64748b" stroke="#64748b" points="293.07,-276.19 289.66,-269.6 288.22,-276.88 293.07,-276.19"/>
</g>
<!-- n5&#45;&gt;n1 -->
<g id="edge6" class="edge">
<title>n5&#45;&gt;n1</title>
<path fill="none" stroke="#64748b" d="M308.26,-303.61C314.1,-293.62 320.69,-280.58 324,-268 343.26,-194.73 339.71,-104.1 336.4,-60.62"/>
<polygon fill="#64748b" stroke="#64748b" points="338.86,-60.62 335.85,-53.84 333.97,-61.01 338.86,-60.62"/>
</g>
<!-- n6 -->
<g id="node7" class="node">
<title>n6</title>
<g id="a_node7"><a xlink:href="https://github.com/statopia/statlib/blob/main/Statlib/HighDim/Regression/LassoOracle.lean#L65" xlink:title="lemma · Statlib/HighDim/Regression/LassoOracle.lean:65" target="_blank">
<path fill="#eef2f6" stroke="#94a3b8" d="M180.03,-268C180.03,-268 87.97,-268 87.97,-268 81.97,-268 75.97,-262 75.97,-256 75.97,-256 75.97,-244 75.97,-244 75.97,-238 81.97,-232 87.97,-232 87.97,-232 180.03,-232 180.03,-232 186.03,-232 192.03,-238 192.03,-244 192.03,-244 192.03,-256 192.03,-256 192.03,-262 186.03,-268 180.03,-268"/>
<text xml:space="preserve" text-anchor="middle" x="134" y="-247" font-family="Helvetica,sans-Serif" font-size="10.00">lasso_basic_inequality</text>
</a>
</g>
</g>
<!-- n6&#45;&gt;n1 -->
<g id="edge8" class="edge">
<title>n6&#45;&gt;n1</title>
<path fill="none" stroke="#64748b" d="M137.35,-231.53C144.43,-199.05 163.85,-128.98 206,-88 230.64,-64.04 267.65,-50.31 295.55,-42.86"/>
<polygon fill="#64748b" stroke="#64748b" points="295.88,-45.31 302.06,-41.21 294.67,-40.56 295.88,-45.31"/>
</g>
<!-- n6&#45;&gt;n3 -->
<g id="edge9" class="edge">
<title>n6&#45;&gt;n3</title>
<path fill="none" stroke="#64748b" d="M134,-231.59C134,-206.76 134,-161.01 134,-132.4"/>
<polygon fill="#64748b" stroke="#64748b" points="136.45,-132.62 134,-125.62 131.55,-132.62 136.45,-132.62"/>
</g>
<!-- n6&#45;&gt;n4 -->
<g id="edge7" class="edge">
<title>n6&#45;&gt;n4</title>
<path fill="none" stroke="#64748b" d="M115.46,-231.7C105.91,-222.78 94.12,-211.78 83.79,-202.14"/>
<polygon fill="#64748b" stroke="#64748b" points="85.48,-200.36 78.69,-197.38 82.14,-203.95 85.48,-200.36"/>
</g>
<!-- n7 -->
<g id="node8" class="node">
<title>n7</title>
<g id="a_node8"><a xlink:href="https://github.com/statopia/statlib/blob/main/Statlib/HighDim/Regression/LassoOracle.lean#L257" xlink:title="lemma · Statlib/HighDim/Regression/LassoOracle.lean:257" target="_blank">
<path fill="#eef2f6" stroke="#94a3b8" d="M176.09,-340C176.09,-340 87.91,-340 87.91,-340 81.91,-340 75.91,-334 75.91,-328 75.91,-328 75.91,-316 75.91,-316 75.91,-310 81.91,-304 87.91,-304 87.91,-304 176.09,-304 176.09,-304 182.09,-304 188.09,-310 188.09,-316 188.09,-316 188.09,-328 188.09,-328 188.09,-334 182.09,-340 176.09,-340"/>
<text xml:space="preserve" text-anchor="middle" x="132" y="-319" font-family="Helvetica,sans-Serif" font-size="10.00">lasso_cone_condition</text>
</a>
</g>
</g>
<!-- n7&#45;&gt;n0 -->
<g id="edge11" class="edge">
<title>n7&#45;&gt;n0</title>
<path fill="none" stroke="#64748b" d="M170.71,-303.52C195.31,-292.41 226.93,-278.13 250.99,-267.26"/>
<polygon fill="#64748b" stroke="#64748b" points="251.76,-269.6 257.13,-264.49 249.75,-265.14 251.76,-269.6"/>
</g>
<!-- n7&#45;&gt;n1 -->
<g id="edge12" class="edge">
<title>n7&#45;&gt;n1</title>
<path fill="none" stroke="#64748b" d="M164.5,-303.67C177.97,-294.81 192.42,-282.75 201,-268 241.61,-198.19 178.66,-153.44 226,-88 242.61,-65.04 271.94,-51.53 295.85,-43.91"/>
<polygon fill="#64748b" stroke="#64748b" points="296.28,-46.34 302.28,-41.97 294.87,-41.64 296.28,-46.34"/>
</g>
<!-- n7&#45;&gt;n4 -->
<g id="edge10" class="edge">
<title>n7&#45;&gt;n4</title>
<path fill="none" stroke="#64748b" d="M101.38,-303.7C88.53,-294.77 74.79,-282.66 67,-268 56.64,-248.48 55.33,-223.13 56.21,-204.48"/>
<polygon fill="#64748b" stroke="#64748b" points="58.64,-204.83 56.66,-197.68 53.75,-204.5 58.64,-204.83"/>
</g>
<!-- n7&#45;&gt;n6 -->
<g id="edge13" class="edge">
<title>n7&#45;&gt;n6</title>
<path fill="none" stroke="#64748b" d="M132.49,-303.7C132.73,-295.47 133.01,-285.48 133.27,-276.42"/>
<polygon fill="#64748b" stroke="#64748b" points="135.72,-276.68 133.47,-269.62 130.82,-276.54 135.72,-276.68"/>
</g>
<!-- n8 -->
<g id="node9" class="node">
<title>n8</title>
<g id="a_node9"><a xlink:href="https://github.com/statopia/statlib/blob/main/Statlib/HighDim/Regression/LassoOracle.lean#L663" xlink:title="theorem · Statlib/HighDim/Regression/LassoOracle.lean:663" target="_blank">
<path fill="#ffe6a3" stroke="#d4a017" d="M271.1,-412C271.1,-412 142.9,-412 142.9,-412 136.9,-412 130.9,-406 130.9,-400 130.9,-400 130.9,-388 130.9,-388 130.9,-382 136.9,-376 142.9,-376 142.9,-376 271.1,-376 271.1,-376 277.1,-376 283.1,-382 283.1,-388 283.1,-388 283.1,-400 283.1,-400 283.1,-406 277.1,-412 271.1,-412"/>
<text xml:space="preserve" text-anchor="middle" x="207" y="-391" font-family="Helvetica,sans-Serif" font-size="10.00">lasso_oracle_l1_of_supportRE</text>
</a>
</g>
</g>
<!-- n8&#45;&gt;n0 -->
<g id="edge16" class="edge">
<title>n8&#45;&gt;n0</title>
<path fill="none" stroke="#64748b" d="M210.51,-375.66C214.79,-357 223.24,-326.93 237,-304 243.39,-293.35 252.23,-283.08 260.71,-274.45"/>
<polygon fill="#64748b" stroke="#64748b" points="262.42,-276.2 265.69,-269.55 258.99,-272.71 262.42,-276.2"/>
</g>
<!-- n8&#45;&gt;n1 -->
<g id="edge18" class="edge">
<title>n8&#45;&gt;n1</title>
<path fill="none" stroke="#64748b" d="M207.42,-375.66C208.22,-357.51 210.5,-328.34 217,-304 242.16,-209.82 295.11,-106.08 320.23,-59.73"/>
<polygon fill="#64748b" stroke="#64748b" points="322.37,-60.93 323.57,-53.61 318.06,-58.58 322.37,-60.93"/>
</g>
<!-- n8&#45;&gt;n4 -->
<g id="edge15" class="edge">
<title>n8&#45;&gt;n4</title>
<path fill="none" stroke="#64748b" d="M130.55,-383.76C103.03,-376.41 74.48,-363.31 57,-340 27.27,-300.35 39.68,-238.4 50.12,-204.06"/>
<polygon fill="#64748b" stroke="#64748b" points="52.32,-205.21 52.11,-197.8 47.65,-203.72 52.32,-205.21"/>
</g>
<!-- n8&#45;&gt;n5 -->
<g id="edge14" class="edge">
<title>n8&#45;&gt;n5</title>
<path fill="none" stroke="#64748b" d="M229.25,-375.7C241.04,-366.53 255.66,-355.16 268.29,-345.33"/>
<polygon fill="#64748b" stroke="#64748b" points="269.48,-347.51 273.5,-341.28 266.47,-343.64 269.48,-347.51"/>
</g>
<!-- n8&#45;&gt;n6 -->
<g id="edge19" class="edge">
<title>n8&#45;&gt;n6</title>
<path fill="none" stroke="#64748b" d="M130.48,-381.65C106.12,-374.02 81.7,-361.28 67,-340 57.91,-326.83 60.03,-318.4 67,-304 72.94,-291.73 83.25,-281.44 94.03,-273.28"/>
<polygon fill="#64748b" stroke="#64748b" points="95.25,-275.42 99.54,-269.36 92.41,-271.43 95.25,-275.42"/>
</g>
<!-- n8&#45;&gt;n7 -->
<g id="edge17" class="edge">
<title>n8&#45;&gt;n7</title>
<path fill="none" stroke="#64748b" d="M188.46,-375.7C178.91,-366.78 167.12,-355.78 156.79,-346.14"/>
<polygon fill="#64748b" stroke="#64748b" points="158.48,-344.36 151.69,-341.38 155.14,-347.95 158.48,-344.36"/>
</g>
<!-- n9 -->
<g id="node10" class="node">
<title>n9</title>
<g id="a_node10"><a xlink:href="https://github.com/statopia/statlib/blob/main/Statlib/HighDim/Vocabulary/DesignMatrix.lean#L65" xlink:title="structure · Statlib/HighDim/Vocabulary/DesignMatrix.lean:65" target="_blank">
<path fill="#e8dcff" stroke="#8b5cf6" d="M577.84,-340C577.84,-340 534.16,-340 534.16,-340 528.16,-340 522.16,-334 522.16,-328 522.16,-328 522.16,-316 522.16,-316 522.16,-310 528.16,-304 534.16,-304 534.16,-304 577.84,-304 577.84,-304 583.84,-304 589.84,-310 589.84,-316 589.84,-316 589.84,-328 589.84,-328 589.84,-334 583.84,-340 577.84,-340"/>
<text xml:space="preserve" text-anchor="middle" x="556" y="-319" font-family="Helvetica,sans-Serif" font-size="10.00">SatisfiesRE</text>
</a>
</g>
</g>
<!-- n9&#45;&gt;n0 -->
<g id="edge20" class="edge">
<title>n9&#45;&gt;n0</title>
<path fill="none" stroke="#64748b" d="M521.89,-307C518.91,-305.93 515.91,-304.91 513,-304 447.24,-283.41 368.51,-266.68 323.46,-257.84"/>
<polygon fill="#64748b" stroke="#64748b" points="324.01,-255.45 316.67,-256.52 323.08,-260.26 324.01,-255.45"/>
</g>
<!-- n9&#45;&gt;n1 -->
<g id="edge21" class="edge">
<title>n9&#45;&gt;n1</title>
<path fill="none" stroke="#64748b" d="M542.45,-303.54C504.27,-254.36 395.81,-114.63 352.34,-58.63"/>
<polygon fill="#64748b" stroke="#64748b" points="354.53,-57.45 348.3,-53.43 350.66,-60.46 354.53,-57.45"/>
</g>
<!-- n10 -->
<g id="node11" class="node">
<title>n10</title>
<g id="a_node11"><a xlink:href="https://github.com/statopia/statlib/blob/main/Statlib/HighDim/Vocabulary/Sparse.lean#L54" xlink:title="lemma · Statlib/HighDim/Vocabulary/Sparse.lean:54" target="_blank">
<path fill="#eef2f6" stroke="#94a3b8" d="M618.03,-196C618.03,-196 515.97,-196 515.97,-196 509.97,-196 503.97,-190 503.97,-184 503.97,-184 503.97,-172 503.97,-172 503.97,-166 509.97,-160 515.97,-160 515.97,-160 618.03,-160 618.03,-160 624.03,-160 630.03,-166 630.03,-172 630.03,-172 630.03,-184 630.03,-184 630.03,-190 624.03,-196 618.03,-196"/>
<text xml:space="preserve" text-anchor="middle" x="567" y="-175" font-family="Helvetica,sans-Serif" font-size="10.00">support_l2_le_l2NormSq</text>
</a>
</g>
</g>
<!-- n10&#45;&gt;n1 -->
<g id="edge22" class="edge">
<title>n10&#45;&gt;n1</title>
<path fill="none" stroke="#64748b" d="M556.29,-159.83C543.03,-139.89 518.64,-107.28 490,-88 454.02,-63.78 405.92,-49.65 372.69,-42.16"/>
<polygon fill="#64748b" stroke="#64748b" points="373.42,-39.82 366.06,-40.72 372.38,-44.6 373.42,-39.82"/>
</g>
<!-- n11 -->
<g id="node12" class="node">
<title>n11</title>
<g id="a_node12"><a xlink:href="https://github.com/statopia/statlib/blob/main/Statlib/HighDim/Vocabulary/DesignMatrix.lean#L110" xlink:title="lemma · Statlib/HighDim/Vocabulary/DesignMatrix.lean:110" target="_blank">
<path fill="#eef2f6" stroke="#94a3b8" d="M506.63,-412C506.63,-412 457.37,-412 457.37,-412 451.37,-412 445.37,-406 445.37,-400 445.37,-400 445.37,-388 445.37,-388 445.37,-382 451.37,-376 457.37,-376 457.37,-376 506.63,-376 506.63,-376 512.63,-376 518.63,-382 518.63,-388 518.63,-388 518.63,-400 518.63,-400 518.63,-406 512.63,-412 506.63,-412"/>
<text xml:space="preserve" text-anchor="middle" x="482" y="-391" font-family="Helvetica,sans-Serif" font-size="10.00">toSupportRE</text>
</a>
</g>
</g>
<!-- n11&#45;&gt;n1 -->
<g id="edge26" class="edge">
<title>n11&#45;&gt;n1</title>
<path fill="none" stroke="#64748b" d="M519.03,-387.07C546.27,-380.57 581.48,-367.17 599,-340 607.67,-326.55 604.98,-318.84 599,-304 574.08,-242.2 540.87,-244.34 495,-196 449.76,-148.33 441.13,-133.81 394,-88 383.52,-77.81 371.52,-67.05 361.02,-57.9"/>
<polygon fill="#64748b" stroke="#64748b" points="362.75,-56.16 355.85,-53.43 359.54,-59.86 362.75,-56.16"/>
</g>
<!-- n11&#45;&gt;n2 -->
<g id="edge27" class="edge">
<title>n11&#45;&gt;n2</title>
<path fill="none" stroke="#64748b" d="M470.38,-375.7C464.58,-367.05 457.46,-356.45 451.13,-347.03"/>
<polygon fill="#64748b" stroke="#64748b" points="453.26,-345.81 447.33,-341.36 449.2,-348.54 453.26,-345.81"/>
</g>
<!-- n11&#45;&gt;n5 -->
<g id="edge24" class="edge">
<title>n11&#45;&gt;n5</title>
<path fill="none" stroke="#64748b" d="M445.01,-379C418.1,-368.82 381.24,-354.88 351.04,-343.45"/>
<polygon fill="#64748b" stroke="#64748b" points="351.95,-341.17 344.53,-340.99 350.21,-345.75 351.95,-341.17"/>
</g>
<!-- n11&#45;&gt;n9 -->
<g id="edge23" class="edge">
<title>n11&#45;&gt;n9</title>
<path fill="none" stroke="#64748b" d="M500.29,-375.7C509.72,-366.78 521.35,-355.78 531.54,-346.14"/>
<polygon fill="#64748b" stroke="#64748b" points="533.16,-347.98 536.56,-341.39 529.79,-344.42 533.16,-347.98"/>
</g>
<!-- n11&#45;&gt;n10 -->
<g id="edge25" class="edge">
<title>n11&#45;&gt;n10</title>
<path fill="none" stroke="#64748b" d="M518.94,-389.31C550.1,-384.03 592.91,-371.2 614,-340 642.93,-297.21 609.2,-236.42 585.76,-203.12"/>
<polygon fill="#64748b" stroke="#64748b" points="587.91,-201.91 581.83,-197.67 583.94,-204.78 587.91,-201.91"/>
</g>
<!-- n12 -->
<g id="node13" class="node">
<title>n12</title>
<g id="a_node13"><a xlink:href="https://github.com/statopia/statlib/blob/main/Statlib/HighDim/Regression/LassoOracle.lean#L862" xlink:title="theorem · Statlib/HighDim/Regression/LassoOracle.lean:862" target="_blank">
<path fill="#ffe6a3" stroke="#d4a017" stroke-width="3" d="M378.61,-484C378.61,-484 215.39,-484 215.39,-484 209.39,-484 203.39,-478 203.39,-472 203.39,-472 203.39,-460 203.39,-460 203.39,-454 209.39,-448 215.39,-448 215.39,-448 378.61,-448 378.61,-448 384.61,-448 390.61,-454 390.61,-460 390.61,-460 390.61,-472 390.61,-472 390.61,-478 384.61,-484 378.61,-484"/>
<text xml:space="preserve" text-anchor="middle" x="297" y="-463" font-family="Helvetica,sans-Serif" font-size="10.00">lasso_oracle_l1_of_uniformSupportRE</text>
</a>
</g>
</g>
<!-- n12&#45;&gt;n2 -->
<g id="edge28" class="edge">
<title>n12&#45;&gt;n2</title>
<path fill="none" stroke="#64748b" d="M314.76,-446.73C339.66,-421.1 384.97,-374.48 412.3,-346.36"/>
<polygon fill="#64748b" stroke="#64748b" points="414,-348.13 417.12,-341.4 410.48,-344.71 414,-348.13"/>
</g>
<!-- n12&#45;&gt;n4 -->
<g id="edge29" class="edge">
<title>n12&#45;&gt;n4</title>
<path fill="none" stroke="#64748b" d="M201.95,-449.69C140.68,-433.98 67.04,-402.52 37,-340 16.21,-296.73 24.87,-278.93 35,-232 37.06,-222.48 40.97,-212.6 45.05,-204"/>
<polygon fill="#64748b" stroke="#64748b" points="47.18,-205.21 48.12,-197.85 42.8,-203.02 47.18,-205.21"/>
</g>
<!-- n12&#45;&gt;n8 -->
<g id="edge30" class="edge">
<title>n12&#45;&gt;n8</title>
<path fill="none" stroke="#64748b" d="M273.35,-446.61C261.84,-437.65 247.9,-426.81 235.77,-417.38"/>
<polygon fill="#64748b" stroke="#64748b" points="237.48,-415.6 230.45,-413.24 234.47,-419.47 237.48,-415.6"/>
</g>
<!-- n12&#45;&gt;n11 -->
<g id="edge31" class="edge">
<title>n12&#45;&gt;n11</title>
<path fill="none" stroke="#64748b" d="M345.61,-446.61C373.96,-435.88 409.48,-422.44 437.16,-411.97"/>
<polygon fill="#64748b" stroke="#64748b" points="438.02,-414.26 443.7,-409.49 436.28,-409.68 438.02,-414.26"/>
</g>
</g>
</svg>
