<?xml version="1.0" encoding="UTF-8" standalone="no"?>
<!DOCTYPE svg PUBLIC "-//W3C//DTD SVG 1.1//EN"
 "http://www.w3.org/Graphics/SVG/1.1/DTD/svg11.dtd">
<!-- Generated by graphviz version 15.0.0 (20260523.1842)
 -->
<!-- Title: lasso_oracle_l2_of_uniformRE Pages: 1 -->
<svg width="814pt" height="698pt"
 viewBox="0.00 0.00 814.00 698.00" xmlns="http://www.w3.org/2000/svg" xmlns:xlink="http://www.w3.org/1999/xlink">
<g id="graph0" class="graph" transform="scale(1 1) rotate(0) translate(4 694)">
<title>lasso_oracle_l2_of_uniformRE</title>
<polygon fill="white" stroke="none" points="-4,4 -4,-694 810,-694 810,4 -4,4"/>
<text xml:space="preserve" text-anchor="middle" x="403" y="-673.4" font-family="Helvetica,sans-Serif" font-size="14.00">Proof narrative — lasso_oracle_l2_of_uniformRE &#160;(17 decls)</text>
<g id="clust1" class="cluster">
<title>cluster_0</title>
<path fill="none" stroke="#cbd5e1" stroke-dasharray="5,2" d="M20,-8C20,-8 786,-8 786,-8 792,-8 798,-14 798,-20 798,-20 798,-645.2 798,-645.2 798,-651.2 792,-657.2 786,-657.2 786,-657.2 20,-657.2 20,-657.2 14,-657.2 8,-651.2 8,-645.2 8,-645.2 8,-20 8,-20 8,-14 14,-8 20,-8"/>
<text xml:space="preserve" text-anchor="middle" x="403" y="-643.3" font-family="Helvetica,sans-Serif" font-size="11.00">HighDim</text>
</g>
<!-- n0 -->
<g id="node1" class="node">
<title>n0</title>
<g id="a_node1"><a xlink:href="https://github.com/statopia/statlib/blob/main/Statlib/HighDim/Vocabulary/Sparse.lean#L49" xlink:title="def · Statlib/HighDim/Vocabulary/Sparse.lean:49" target="_blank">
<path fill="#d6e9ff" stroke="#3b82f6" d="M436.01,-268C436.01,-268 403.99,-268 403.99,-268 397.99,-268 391.99,-262 391.99,-256 391.99,-256 391.99,-244 391.99,-244 391.99,-238 397.99,-232 403.99,-232 403.99,-232 436.01,-232 436.01,-232 442.01,-232 448.01,-238 448.01,-244 448.01,-244 448.01,-256 448.01,-256 448.01,-262 442.01,-268 436.01,-268"/>
<text xml:space="preserve" text-anchor="middle" x="420" y="-247" font-family="Helvetica,sans-Serif" font-size="10.00">IsInCone</text>
</a>
</g>
</g>
<!-- n1 -->
<g id="node2" class="node">
<title>n1</title>
<g id="a_node2"><a xlink:href="https://github.com/statopia/statlib/blob/main/Statlib/HighDim/Vocabulary/Norms.lean#L13" xlink:title="noncomputable def · Statlib/HighDim/Vocabulary/Norms.lean:13" target="_blank">
<path fill="#d6e9ff" stroke="#3b82f6" d="M368.23,-52C368.23,-52 331.77,-52 331.77,-52 325.77,-52 319.77,-46 319.77,-40 319.77,-40 319.77,-28 319.77,-28 319.77,-22 325.77,-16 331.77,-16 331.77,-16 368.23,-16 368.23,-16 374.23,-16 380.23,-22 380.23,-28 380.23,-28 380.23,-40 380.23,-40 380.23,-46 374.23,-52 368.23,-52"/>
<text xml:space="preserve" text-anchor="middle" x="350" y="-31" font-family="Helvetica,sans-Serif" font-size="10.00">l2NormSq</text>
</a>
</g>
</g>
<!-- n2 -->
<g id="node3" class="node">
<title>n2</title>
<g id="a_node3"><a xlink:href="https://github.com/statopia/statlib/blob/main/Statlib/HighDim/Vocabulary/DesignMatrix.lean#L65" xlink:title="structure · Statlib/HighDim/Vocabulary/DesignMatrix.lean:65" target="_blank">
<path fill="#e8dcff" stroke="#8b5cf6" d="M737.84,-340C737.84,-340 694.16,-340 694.16,-340 688.16,-340 682.16,-334 682.16,-328 682.16,-328 682.16,-316 682.16,-316 682.16,-310 688.16,-304 694.16,-304 694.16,-304 737.84,-304 737.84,-304 743.84,-304 749.84,-310 749.84,-316 749.84,-316 749.84,-328 749.84,-328 749.84,-334 743.84,-340 737.84,-340"/>
<text xml:space="preserve" text-anchor="middle" x="716" y="-319" font-family="Helvetica,sans-Serif" font-size="10.00">SatisfiesRE</text>
</a>
</g>
</g>
<!-- n2&#45;&gt;n0 -->
<g id="edge1" class="edge">
<title>n2&#45;&gt;n0</title>
<path fill="none" stroke="#64748b" d="M681.76,-312.9C625.48,-299.59 513.94,-273.22 456.33,-259.59"/>
<polygon fill="#64748b" stroke="#64748b" points="457.08,-257.25 449.71,-258.03 455.95,-262.02 457.08,-257.25"/>
</g>
<!-- n2&#45;&gt;n1 -->
<g id="edge2" class="edge">
<title>n2&#45;&gt;n1</title>
<path fill="none" stroke="#64748b" d="M718.34,-303.62C723.11,-260.25 728.85,-146.58 668,-88 628.69,-50.16 464.78,-39.21 388.88,-36.15"/>
<polygon fill="#64748b" stroke="#64748b" points="389.11,-33.7 382.02,-35.89 388.92,-38.6 389.11,-33.7"/>
</g>
<!-- n3 -->
<g id="node4" class="node">
<title>n3</title>
<g id="a_node4"><a xlink:href="https://github.com/statopia/statlib/blob/main/Statlib/HighDim/Vocabulary/DesignMatrix.lean#L99" xlink:title="structure · Statlib/HighDim/Vocabulary/DesignMatrix.lean:99" target="_blank">
<path fill="#e8dcff" stroke="#8b5cf6" d="M778.34,-412C778.34,-412 699.66,-412 699.66,-412 693.66,-412 687.66,-406 687.66,-400 687.66,-400 687.66,-388 687.66,-388 687.66,-382 693.66,-376 699.66,-376 699.66,-376 778.34,-376 778.34,-376 784.34,-376 790.34,-382 790.34,-388 790.34,-388 790.34,-400 790.34,-400 790.34,-406 784.34,-412 778.34,-412"/>
<text xml:space="preserve" text-anchor="middle" x="739" y="-391" font-family="Helvetica,sans-Serif" font-size="10.00">SatisfiesUniformRE</text>
</a>
</g>
</g>
<!-- n3&#45;&gt;n0 -->
<g id="edge3" class="edge">
<title>n3&#45;&gt;n0</title>
<path fill="none" stroke="#64748b" d="M750.6,-375.85C762.28,-356.23 776.3,-324.21 759,-304 720.37,-258.86 536.1,-251.89 456.63,-251.01"/>
<polygon fill="#64748b" stroke="#64748b" points="456.9,-248.56 449.88,-250.95 456.86,-253.46 456.9,-248.56"/>
</g>
<!-- n3&#45;&gt;n1 -->
<g id="edge4" class="edge">
<title>n3&#45;&gt;n1</title>
<path fill="none" stroke="#64748b" d="M749.89,-375.9C755.94,-365.79 763.19,-352.54 768,-340 782.55,-302.05 789,-291.64 789,-251 789,-251 789,-251 789,-177 789,-116.5 740.88,-113.47 686,-88 586.03,-41.6 453.26,-34.69 388.63,-34.35"/>
<polygon fill="#64748b" stroke="#64748b" points="388.86,-31.9 381.86,-34.34 388.86,-36.8 388.86,-31.9"/>
</g>
<!-- n3&#45;&gt;n2 -->
<g id="edge5" class="edge">
<title>n3&#45;&gt;n2</title>
<path fill="none" stroke="#64748b" d="M733.31,-375.7C730.59,-367.39 727.26,-357.28 724.26,-348.14"/>
<polygon fill="#64748b" stroke="#64748b" points="726.61,-347.43 722.09,-341.54 721.95,-348.96 726.61,-347.43"/>
</g>
<!-- n4 -->
<g id="node5" class="node">
<title>n4</title>
<g id="a_node5"><a xlink:href="https://github.com/statopia/statlib/blob/main/Statlib/HighDim/Regression/LassoOracle.lean#L48" xlink:title="noncomputable def · Statlib/HighDim/Regression/LassoOracle.lean:48" target="_blank">
<path fill="#d6e9ff" stroke="#3b82f6" d="M290.45,-124C290.45,-124 259.55,-124 259.55,-124 253.55,-124 247.55,-118 247.55,-112 247.55,-112 247.55,-100 247.55,-100 247.55,-94 253.55,-88 259.55,-88 259.55,-88 290.45,-88 290.45,-88 296.45,-88 302.45,-94 302.45,-100 302.45,-100 302.45,-112 302.45,-112 302.45,-118 296.45,-124 290.45,-124"/>
<text xml:space="preserve" text-anchor="middle" x="275" y="-103" font-family="Helvetica,sans-Serif" font-size="10.00">lassoObj</text>
</a>
</g>
</g>
<!-- n4&#45;&gt;n1 -->
<g id="edge6" class="edge">
<title>n4&#45;&gt;n1</title>
<path fill="none" stroke="#64748b" d="M293.54,-87.7C303.09,-78.78 314.88,-67.78 325.21,-58.14"/>
<polygon fill="#64748b" stroke="#64748b" points="326.86,-59.95 330.31,-53.38 323.52,-56.36 326.86,-59.95"/>
</g>
<!-- n5 -->
<g id="node6" class="node">
<title>n5</title>
<g id="a_node6"><a xlink:href="https://github.com/statopia/statlib/blob/main/Statlib/HighDim/Regression/LassoOracle.lean#L53" xlink:title="def · Statlib/HighDim/Regression/LassoOracle.lean:53" target="_blank">
<path fill="#d6e9ff" stroke="#3b82f6" d="M244.3,-196C244.3,-196 181.7,-196 181.7,-196 175.7,-196 169.7,-190 169.7,-184 169.7,-184 169.7,-172 169.7,-172 169.7,-166 175.7,-160 181.7,-160 181.7,-160 244.3,-160 244.3,-160 250.3,-160 256.3,-166 256.3,-172 256.3,-172 256.3,-184 256.3,-184 256.3,-190 250.3,-196 244.3,-196"/>
<text xml:space="preserve" text-anchor="middle" x="213" y="-175" font-family="Helvetica,sans-Serif" font-size="10.00">IsLassoSolution</text>
</a>
</g>
</g>
<!-- n5&#45;&gt;n4 -->
<g id="edge7" class="edge">
<title>n5&#45;&gt;n4</title>
<path fill="none" stroke="#64748b" d="M228.33,-159.7C236.13,-150.88 245.74,-140.03 254.21,-130.47"/>
<polygon fill="#64748b" stroke="#64748b" points="256.04,-132.1 258.85,-125.24 252.37,-128.85 256.04,-132.1"/>
</g>
<!-- n6 -->
<g id="node7" class="node">
<title>n6</title>
<g id="a_node7"><a xlink:href="https://github.com/statopia/statlib/blob/main/Statlib/HighDim/Regression/LassoOracle.lean#L65" xlink:title="lemma · Statlib/HighDim/Regression/LassoOracle.lean:65" target="_blank">
<path fill="#eef2f6" stroke="#94a3b8" d="M319.03,-268C319.03,-268 226.97,-268 226.97,-268 220.97,-268 214.97,-262 214.97,-256 214.97,-256 214.97,-244 214.97,-244 214.97,-238 220.97,-232 226.97,-232 226.97,-232 319.03,-232 319.03,-232 325.03,-232 331.03,-238 331.03,-244 331.03,-244 331.03,-256 331.03,-256 331.03,-262 325.03,-268 319.03,-268"/>
<text xml:space="preserve" text-anchor="middle" x="273" y="-247" font-family="Helvetica,sans-Serif" font-size="10.00">lasso_basic_inequality</text>
</a>
</g>
</g>
<!-- n6&#45;&gt;n1 -->
<g id="edge9" class="edge">
<title>n6&#45;&gt;n1</title>
<path fill="none" stroke="#64748b" d="M279.17,-231.85C292.72,-194.21 325.1,-104.2 340.95,-60.15"/>
<polygon fill="#64748b" stroke="#64748b" points="343.22,-61.07 343.29,-53.66 338.61,-59.41 343.22,-61.07"/>
</g>
<!-- n6&#45;&gt;n4 -->
<g id="edge10" class="edge">
<title>n6&#45;&gt;n4</title>
<path fill="none" stroke="#64748b" d="M273.25,-231.59C273.59,-206.76 274.24,-161.01 274.64,-132.4"/>
<polygon fill="#64748b" stroke="#64748b" points="277.09,-132.66 274.74,-125.62 272.19,-132.59 277.09,-132.66"/>
</g>
<!-- n6&#45;&gt;n5 -->
<g id="edge8" class="edge">
<title>n6&#45;&gt;n5</title>
<path fill="none" stroke="#64748b" d="M258.17,-231.7C250.61,-222.88 241.31,-212.03 233.12,-202.47"/>
<polygon fill="#64748b" stroke="#64748b" points="235.06,-200.97 228.65,-197.25 231.34,-204.16 235.06,-200.97"/>
</g>
<!-- n7 -->
<g id="node8" class="node">
<title>n7</title>
<g id="a_node8"><a xlink:href="https://github.com/statopia/statlib/blob/main/Statlib/HighDim/Regression/LassoOracle.lean#L257" xlink:title="lemma · Statlib/HighDim/Regression/LassoOracle.lean:257" target="_blank">
<path fill="#eef2f6" stroke="#94a3b8" d="M216.09,-340C216.09,-340 127.91,-340 127.91,-340 121.91,-340 115.91,-334 115.91,-328 115.91,-328 115.91,-316 115.91,-316 115.91,-310 121.91,-304 127.91,-304 127.91,-304 216.09,-304 216.09,-304 222.09,-304 228.09,-310 228.09,-316 228.09,-316 228.09,-328 228.09,-328 228.09,-334 222.09,-340 216.09,-340"/>
<text xml:space="preserve" text-anchor="middle" x="172" y="-319" font-family="Helvetica,sans-Serif" font-size="10.00">lasso_cone_condition</text>
</a>
</g>
</g>
<!-- n7&#45;&gt;n0 -->
<g id="edge12" class="edge">
<title>n7&#45;&gt;n0</title>
<path fill="none" stroke="#64748b" d="M228.59,-305.03C276.2,-291.59 342.86,-272.77 383.65,-261.26"/>
<polygon fill="#64748b" stroke="#64748b" points="384.16,-263.66 390.24,-259.4 382.83,-258.94 384.16,-263.66"/>
</g>
<!-- n7&#45;&gt;n1 -->
<g id="edge13" class="edge">
<title>n7&#45;&gt;n1</title>
<path fill="none" stroke="#64748b" d="M165.77,-303.66C155.88,-273.14 139.76,-208.51 161,-160 188.22,-97.83 264.59,-62.68 311.5,-46.37"/>
<polygon fill="#64748b" stroke="#64748b" points="312.05,-48.78 317.89,-44.22 310.48,-44.13 312.05,-48.78"/>
</g>
<!-- n7&#45;&gt;n5 -->
<g id="edge11" class="edge">
<title>n7&#45;&gt;n5</title>
<path fill="none" stroke="#64748b" d="M174.73,-303.7C177.8,-285.59 183.39,-256.44 191,-232 193.9,-222.68 197.81,-212.73 201.52,-203.99"/>
<polygon fill="#64748b" stroke="#64748b" points="203.69,-205.15 204.24,-197.76 199.2,-203.19 203.69,-205.15"/>
</g>
<!-- n7&#45;&gt;n6 -->
<g id="edge14" class="edge">
<title>n7&#45;&gt;n6</title>
<path fill="none" stroke="#64748b" d="M197.23,-303.52C210.58,-294.26 227.12,-282.8 241.33,-272.95"/>
<polygon fill="#64748b" stroke="#64748b" points="242.49,-275.12 246.85,-269.12 239.7,-271.1 242.49,-275.12"/>
</g>
<!-- n8 -->
<g id="node9" class="node">
<title>n8</title>
<g id="a_node9"><a xlink:href="https://github.com/statopia/statlib/blob/main/Statlib/HighDim/Vocabulary/DesignMatrix.lean#L50" xlink:title="structure · Statlib/HighDim/Vocabulary/DesignMatrix.lean:50" target="_blank">
<path fill="#e8dcff" stroke="#8b5cf6" d="M416.35,-340C416.35,-340 337.65,-340 337.65,-340 331.65,-340 325.65,-334 325.65,-328 325.65,-328 325.65,-316 325.65,-316 325.65,-310 331.65,-304 337.65,-304 337.65,-304 416.35,-304 416.35,-304 422.35,-304 428.35,-310 428.35,-316 428.35,-316 428.35,-328 428.35,-328 428.35,-334 422.35,-340 416.35,-340"/>
<text xml:space="preserve" text-anchor="middle" x="377" y="-319" font-family="Helvetica,sans-Serif" font-size="10.00">SatisfiesSupportRE</text>
</a>
</g>
</g>
<!-- n8&#45;&gt;n0 -->
<g id="edge15" class="edge">
<title>n8&#45;&gt;n0</title>
<path fill="none" stroke="#64748b" d="M387.63,-303.7C392.89,-295.14 399.33,-284.66 405.07,-275.3"/>
<polygon fill="#64748b" stroke="#64748b" points="407.12,-276.64 408.7,-269.39 402.95,-274.08 407.12,-276.64"/>
</g>
<!-- n8&#45;&gt;n1 -->
<g id="edge16" class="edge">
<title>n8&#45;&gt;n1</title>
<path fill="none" stroke="#64748b" d="M375.35,-303.54C370.76,-254.86 357.78,-117.46 352.39,-60.37"/>
<polygon fill="#64748b" stroke="#64748b" points="354.87,-60.48 351.77,-53.74 349.99,-60.94 354.87,-60.48"/>
</g>
<!-- n9 -->
<g id="node10" class="node">
<title>n9</title>
<g id="a_node10"><a xlink:href="https://github.com/statopia/statlib/blob/main/Statlib/HighDim/Regression/LassoOracle.lean#L416" xlink:title="theorem · Statlib/HighDim/Regression/LassoOracle.lean:416" target="_blank">
<path fill="#ffe6a3" stroke="#d4a017" d="M368.89,-412C368.89,-412 205.11,-412 205.11,-412 199.11,-412 193.11,-406 193.11,-400 193.11,-400 193.11,-388 193.11,-388 193.11,-382 199.11,-376 205.11,-376 205.11,-376 368.89,-376 368.89,-376 374.89,-376 380.89,-382 380.89,-388 380.89,-388 380.89,-400 380.89,-400 380.89,-406 374.89,-412 368.89,-412"/>
<text xml:space="preserve" text-anchor="middle" x="287" y="-391" font-family="Helvetica,sans-Serif" font-size="10.00">lasso_oracle_prediction_of_supportRE</text>
</a>
</g>
</g>
<!-- n9&#45;&gt;n0 -->
<g id="edge20" class="edge">
<title>n9&#45;&gt;n0</title>
<path fill="none" stroke="#64748b" d="M288.92,-375.69C291.89,-356.23 299.24,-324.64 317,-304 334.52,-283.63 361.8,-270.09 383.89,-261.79"/>
<polygon fill="#64748b" stroke="#64748b" points="384.58,-264.15 390.34,-259.48 382.92,-259.54 384.58,-264.15"/>
</g>
<!-- n9&#45;&gt;n1 -->
<g id="edge19" class="edge">
<title>n9&#45;&gt;n1</title>
<path fill="none" stroke="#64748b" d="M284.44,-375.8C282.49,-356.99 281.91,-326.53 294,-304 306.28,-281.13 328.13,-291.09 340,-268 358.24,-232.51 354.32,-113.56 351.55,-60.69"/>
<polygon fill="#64748b" stroke="#64748b" points="354,-60.58 351.17,-53.72 349.11,-60.85 354,-60.58"/>
</g>
<!-- n9&#45;&gt;n5 -->
<g id="edge18" class="edge">
<title>n9&#45;&gt;n5</title>
<path fill="none" stroke="#64748b" d="M278.56,-375.66C269.32,-357.27 253.58,-327.66 237,-304 224.88,-286.71 213.35,-287.79 206,-268 198.38,-247.46 201.3,-222.47 205.46,-204.2"/>
<polygon fill="#64748b" stroke="#64748b" points="207.74,-205.18 207.05,-197.79 202.99,-204 207.74,-205.18"/>
</g>
<!-- n9&#45;&gt;n6 -->
<g id="edge22" class="edge">
<title>n9&#45;&gt;n6</title>
<path fill="none" stroke="#64748b" d="M285.28,-375.59C282.84,-350.76 278.33,-305.01 275.5,-276.4"/>
<polygon fill="#64748b" stroke="#64748b" points="277.96,-276.34 274.84,-269.62 273.08,-276.82 277.96,-276.34"/>
</g>
<!-- n9&#45;&gt;n7 -->
<g id="edge21" class="edge">
<title>n9&#45;&gt;n7</title>
<path fill="none" stroke="#64748b" d="M258.28,-375.52C242.93,-366.18 223.9,-354.59 207.62,-344.68"/>
<polygon fill="#64748b" stroke="#64748b" points="208.9,-342.59 201.65,-341.05 206.36,-346.78 208.9,-342.59"/>
</g>
<!-- n9&#45;&gt;n8 -->
<g id="edge17" class="edge">
<title>n9&#45;&gt;n8</title>
<path fill="none" stroke="#64748b" d="M309.25,-375.7C321.04,-366.53 335.66,-355.16 348.29,-345.33"/>
<polygon fill="#64748b" stroke="#64748b" points="349.48,-347.51 353.5,-341.28 346.47,-343.64 349.48,-347.51"/>
</g>
<!-- n10 -->
<g id="node11" class="node">
<title>n10</title>
<g id="a_node11"><a xlink:href="https://github.com/statopia/statlib/blob/main/Statlib/HighDim/Vocabulary/Sparse.lean#L54" xlink:title="lemma · Statlib/HighDim/Vocabulary/Sparse.lean:54" target="_blank">
<path fill="#eef2f6" stroke="#94a3b8" d="M629.03,-196C629.03,-196 526.97,-196 526.97,-196 520.97,-196 514.97,-190 514.97,-184 514.97,-184 514.97,-172 514.97,-172 514.97,-166 520.97,-160 526.97,-160 526.97,-160 629.03,-160 629.03,-160 635.03,-160 641.03,-166 641.03,-172 641.03,-172 641.03,-184 641.03,-184 641.03,-190 635.03,-196 629.03,-196"/>
<text xml:space="preserve" text-anchor="middle" x="578" y="-175" font-family="Helvetica,sans-Serif" font-size="10.00">support_l2_le_l2NormSq</text>
</a>
</g>
</g>
<!-- n10&#45;&gt;n1 -->
<g id="edge23" class="edge">
<title>n10&#45;&gt;n1</title>
<path fill="none" stroke="#64748b" d="M565.81,-159.63C551.09,-139.81 524.59,-107.61 495,-88 462.08,-66.18 419.03,-51.92 388.41,-43.75"/>
<polygon fill="#64748b" stroke="#64748b" points="389.37,-41.47 381.98,-42.08 388.14,-46.21 389.37,-41.47"/>
</g>
<!-- n11 -->
<g id="node12" class="node">
<title>n11</title>
<g id="a_node12"><a xlink:href="https://github.com/statopia/statlib/blob/main/Statlib/HighDim/Vocabulary/DesignMatrix.lean#L82" xlink:title="structure · Statlib/HighDim/Vocabulary/DesignMatrix.lean:82" target="_blank">
<path fill="#e8dcff" stroke="#8b5cf6" d="M611.86,-340C611.86,-340 498.14,-340 498.14,-340 492.14,-340 486.14,-334 486.14,-328 486.14,-328 486.14,-316 486.14,-316 486.14,-310 492.14,-304 498.14,-304 498.14,-304 611.86,-304 611.86,-304 617.86,-304 623.86,-310 623.86,-316 623.86,-316 623.86,-328 623.86,-328 623.86,-334 617.86,-340 611.86,-340"/>
<text xml:space="preserve" text-anchor="middle" x="555" y="-319" font-family="Helvetica,sans-Serif" font-size="10.00">SatisfiesUniformSupportRE</text>
</a>
</g>
</g>
<!-- n11&#45;&gt;n0 -->
<g id="edge24" class="edge">
<title>n11&#45;&gt;n0</title>
<path fill="none" stroke="#64748b" d="M521.28,-303.52C501.34,-293.18 476.09,-280.08 455.8,-269.56"/>
<polygon fill="#64748b" stroke="#64748b" points="456.97,-267.41 449.62,-266.36 454.71,-271.76 456.97,-267.41"/>
</g>
<!-- n11&#45;&gt;n1 -->
<g id="edge25" class="edge">
<title>n11&#45;&gt;n1</title>
<path fill="none" stroke="#64748b" d="M542.48,-303.54C507.3,-254.46 407.48,-115.2 367.19,-58.98"/>
<polygon fill="#64748b" stroke="#64748b" points="369.3,-57.72 363.23,-53.46 365.32,-60.58 369.3,-57.72"/>
</g>
<!-- n12 -->
<g id="node13" class="node">
<title>n12</title>
<g id="a_node13"><a xlink:href="https://github.com/statopia/statlib/blob/main/Statlib/HighDim/Vocabulary/DesignMatrix.lean#L110" xlink:title="lemma · Statlib/HighDim/Vocabulary/DesignMatrix.lean:110" target="_blank">
<path fill="#eef2f6" stroke="#94a3b8" d="M579.63,-412C579.63,-412 530.37,-412 530.37,-412 524.37,-412 518.37,-406 518.37,-400 518.37,-400 518.37,-388 518.37,-388 518.37,-382 524.37,-376 530.37,-376 530.37,-376 579.63,-376 579.63,-376 585.63,-376 591.63,-382 591.63,-388 591.63,-388 591.63,-400 591.63,-400 591.63,-406 585.63,-412 579.63,-412"/>
<text xml:space="preserve" text-anchor="middle" x="555" y="-391" font-family="Helvetica,sans-Serif" font-size="10.00">toSupportRE</text>
</a>
</g>
</g>
<!-- n12&#45;&gt;n1 -->
<g id="edge29" class="edge">
<title>n12&#45;&gt;n1</title>
<path fill="none" stroke="#64748b" d="M589.31,-375.65C610.47,-364.3 634.89,-349.81 642,-340 665.87,-307.1 663,-291.64 663,-251 663,-251 663,-251 663,-177 663,-57.99 473.02,-38.23 389.08,-35.3"/>
<polygon fill="#64748b" stroke="#64748b" points="389.16,-32.86 382.09,-35.1 389.02,-37.75 389.16,-32.86"/>
</g>
<!-- n12&#45;&gt;n2 -->
<g id="edge26" class="edge">
<title>n12&#45;&gt;n2</title>
<path fill="none" stroke="#64748b" d="M591.94,-376.94C616.42,-366.3 648.6,-352.31 674.04,-341.24"/>
<polygon fill="#64748b" stroke="#64748b" points="674.88,-343.55 680.32,-338.51 672.93,-339.06 674.88,-343.55"/>
</g>
<!-- n12&#45;&gt;n8 -->
<g id="edge27" class="edge">
<title>n12&#45;&gt;n8</title>
<path fill="none" stroke="#64748b" d="M518.12,-378.5C492.43,-368.39 457.79,-354.77 429.27,-343.55"/>
<polygon fill="#64748b" stroke="#64748b" points="430.21,-341.29 422.8,-341.01 428.42,-345.85 430.21,-341.29"/>
</g>
<!-- n12&#45;&gt;n10 -->
<g id="edge28" class="edge">
<title>n12&#45;&gt;n10</title>
<path fill="none" stroke="#64748b" d="M591.9,-377.62C607.55,-369.02 624.19,-356.64 633,-340 657.39,-293.94 622.03,-234.89 597.7,-202.63"/>
<polygon fill="#64748b" stroke="#64748b" points="599.85,-201.41 593.62,-197.37 595.97,-204.41 599.85,-201.41"/>
</g>
<!-- n12&#45;&gt;n11 -->
<g id="edge30" class="edge">
<title>n12&#45;&gt;n11</title>
<path fill="none" stroke="#64748b" d="M555,-375.7C555,-367.47 555,-357.48 555,-348.42"/>
<polygon fill="#64748b" stroke="#64748b" points="557.45,-348.62 555,-341.62 552.55,-348.62 557.45,-348.62"/>
</g>
<!-- n13 -->
<g id="node14" class="node">
<title>n13</title>
<g id="a_node14"><a xlink:href="https://github.com/statopia/statlib/blob/main/Statlib/HighDim/Regression/LassoOracle.lean#L629" xlink:title="theorem · Statlib/HighDim/Regression/LassoOracle.lean:629" target="_blank">
<path fill="#ffe6a3" stroke="#d4a017" d="M575.53,-484C575.53,-484 478.47,-484 478.47,-484 472.47,-484 466.47,-478 466.47,-472 466.47,-472 466.47,-460 466.47,-460 466.47,-454 472.47,-448 478.47,-448 478.47,-448 575.53,-448 575.53,-448 581.53,-448 587.53,-454 587.53,-460 587.53,-460 587.53,-472 587.53,-472 587.53,-478 581.53,-484 575.53,-484"/>
<text xml:space="preserve" text-anchor="middle" x="527" y="-463" font-family="Helvetica,sans-Serif" font-size="10.00">lasso_oracle_prediction</text>
</a>
</g>
</g>
<!-- n13&#45;&gt;n1 -->
<g id="edge33" class="edge">
<title>n13&#45;&gt;n1</title>
<path fill="none" stroke="#64748b" d="M465.99,-465.27C395.16,-463.43 276.28,-453.61 184,-412 127.61,-386.58 77,-384.86 77,-323 77,-323 77,-323 77,-177 77,-72.7 235.77,-44.9 311.15,-37.57"/>
<polygon fill="#64748b" stroke="#64748b" points="311.22,-40.03 317.97,-36.95 310.78,-35.15 311.22,-40.03"/>
</g>
<!-- n13&#45;&gt;n2 -->
<g id="edge31" class="edge">
<title>n13&#45;&gt;n2</title>
<path fill="none" stroke="#64748b" d="M555.83,-447.69C570.31,-438.2 587.58,-425.62 601,-412 614.67,-398.13 611.72,-389.25 626,-376 640.29,-362.74 658.46,-351.27 674.72,-342.42"/>
<polygon fill="#64748b" stroke="#64748b" points="675.66,-344.69 680.7,-339.25 673.37,-340.36 675.66,-344.69"/>
</g>
<!-- n13&#45;&gt;n5 -->
<g id="edge32" class="edge">
<title>n13&#45;&gt;n5</title>
<path fill="none" stroke="#64748b" d="M518.75,-447.58C507.78,-423.78 488.44,-379.51 477,-340 463.42,-293.11 490.98,-267.05 457,-232 430.9,-205.08 328.66,-190.34 265.1,-183.61"/>
<polygon fill="#64748b" stroke="#64748b" points="265.5,-181.19 258.29,-182.91 265,-186.07 265.5,-181.19"/>
</g>
<!-- n13&#45;&gt;n9 -->
<g id="edge34" class="edge">
<title>n13&#45;&gt;n9</title>
<path fill="none" stroke="#64748b" d="M467.06,-447.52C432.85,-437.54 389.87,-425 354.49,-414.68"/>
<polygon fill="#64748b" stroke="#64748b" points="355.45,-412.41 348.05,-412.81 354.08,-417.12 355.45,-412.41"/>
</g>
<!-- n13&#45;&gt;n12 -->
<g id="edge35" class="edge">
<title>n13&#45;&gt;n12</title>
<path fill="none" stroke="#64748b" d="M533.92,-447.7C537.28,-439.3 541.37,-429.07 545.06,-419.86"/>
<polygon fill="#64748b" stroke="#64748b" points="547.27,-420.92 547.6,-413.51 542.72,-419.1 547.27,-420.92"/>
</g>
<!-- n14 -->
<g id="node15" class="node">
<title>n14</title>
<g id="a_node15"><a xlink:href="https://github.com/statopia/statlib/blob/main/Statlib/HighDim/Regression/LassoOracle.lean#L980" xlink:title="theorem · Statlib/HighDim/Regression/LassoOracle.lean:980" target="_blank">
<path fill="#ffe6a3" stroke="#d4a017" d="M313.74,-556C313.74,-556 252.26,-556 252.26,-556 246.26,-556 240.26,-550 240.26,-544 240.26,-544 240.26,-532 240.26,-532 240.26,-526 246.26,-520 252.26,-520 252.26,-520 313.74,-520 313.74,-520 319.74,-520 325.74,-526 325.74,-532 325.74,-532 325.74,-544 325.74,-544 325.74,-550 319.74,-556 313.74,-556"/>
<text xml:space="preserve" text-anchor="middle" x="283" y="-535" font-family="Helvetica,sans-Serif" font-size="10.00">lasso_oracle_l2</text>
</a>
</g>
</g>
<!-- n14&#45;&gt;n0 -->
<g id="edge39" class="edge">
<title>n14&#45;&gt;n0</title>
<path fill="none" stroke="#64748b" d="M304.32,-519.74C340.81,-488.54 413.6,-418.64 437,-340 443.3,-318.82 437.57,-294.08 431.11,-276.07"/>
<polygon fill="#64748b" stroke="#64748b" points="433.47,-275.38 428.67,-269.72 428.89,-277.13 433.47,-275.38"/>
</g>
<!-- n14&#45;&gt;n1 -->
<g id="edge38" class="edge">
<title>n14&#45;&gt;n1</title>
<path fill="none" stroke="#64748b" d="M239.76,-532.19C202.63,-526.19 149.35,-512.92 112,-484 75.23,-455.53 57,-441.5 57,-395 57,-395 57,-395 57,-177 57,-134.5 59.47,-115.36 92,-88 124.74,-60.46 247.43,-44.87 311.11,-38.47"/>
<polygon fill="#64748b" stroke="#64748b" points="311.08,-40.93 317.81,-37.81 310.6,-36.05 311.08,-40.93"/>
</g>
<!-- n14&#45;&gt;n2 -->
<g id="edge36" class="edge">
<title>n14&#45;&gt;n2</title>
<path fill="none" stroke="#64748b" d="M326,-531.67C406.65,-521.38 574.56,-498.54 597,-484 645.41,-452.63 633.78,-421.69 669,-376 676.73,-365.97 685.85,-355.43 693.99,-346.41"/>
<polygon fill="#64748b" stroke="#64748b" points="695.78,-348.09 698.69,-341.27 692.16,-344.79 695.78,-348.09"/>
</g>
<!-- n14&#45;&gt;n5 -->
<g id="edge37" class="edge">
<title>n14&#45;&gt;n5</title>
<path fill="none" stroke="#64748b" d="M239.86,-525.01C184.91,-506.81 97,-466.5 97,-395 97,-395 97,-395 97,-321 97,-269.07 144.1,-225.67 178.27,-201"/>
<polygon fill="#64748b" stroke="#64748b" points="179.37,-203.23 183.68,-197.2 176.55,-199.22 179.37,-203.23"/>
</g>
<!-- n14&#45;&gt;n7 -->
<g id="edge40" class="edge">
<title>n14&#45;&gt;n7</title>
<path fill="none" stroke="#64748b" d="M264.03,-519.61C240.91,-497.18 202.63,-455.82 184,-412 175.46,-391.9 172.67,-367.15 171.9,-348.86"/>
<polygon fill="#64748b" stroke="#64748b" points="174.35,-348.89 171.71,-341.96 169.45,-349.02 174.35,-348.89"/>
</g>
<!-- n14&#45;&gt;n13 -->
<g id="edge41" class="edge">
<title>n14&#45;&gt;n13</title>
<path fill="none" stroke="#64748b" d="M326.06,-524.65C362.56,-514.17 415.59,-498.96 458,-486.79"/>
<polygon fill="#64748b" stroke="#64748b" points="458.56,-489.18 464.61,-484.9 457.2,-484.47 458.56,-489.18"/>
</g>
<!-- n15 -->
<g id="node16" class="node">
<title>n15</title>
<g id="a_node16"><a xlink:href="https://github.com/statopia/statlib/blob/main/Statlib/HighDim/Vocabulary/DesignMatrix.lean#L151" xlink:title="lemma · Statlib/HighDim/Vocabulary/DesignMatrix.lean:151" target="_blank">
<path fill="#eef2f6" stroke="#94a3b8" d="M692,-484C692,-484 662,-484 662,-484 656,-484 650,-478 650,-472 650,-472 650,-460 650,-460 650,-454 656,-448 662,-448 662,-448 692,-448 692,-448 698,-448 704,-454 704,-460 704,-460 704,-472 704,-472 704,-478 698,-484 692,-484"/>
<text xml:space="preserve" text-anchor="middle" x="677" y="-463" font-family="Helvetica,sans-Serif" font-size="10.00">toRE</text>
</a>
</g>
</g>
<!-- n15&#45;&gt;n2 -->
<g id="edge43" class="edge">
<title>n15&#45;&gt;n2</title>
<path fill="none" stroke="#64748b" d="M674.5,-447.78C672.5,-429.48 671.17,-399.95 679,-376 682.41,-365.56 688.62,-355.36 694.99,-346.74"/>
<polygon fill="#64748b" stroke="#64748b" points="696.79,-348.42 699.15,-341.39 692.92,-345.41 696.79,-348.42"/>
</g>
<!-- n15&#45;&gt;n3 -->
<g id="edge42" class="edge">
<title>n15&#45;&gt;n3</title>
<path fill="none" stroke="#64748b" d="M692.33,-447.7C700.13,-438.88 709.74,-428.03 718.21,-418.47"/>
<polygon fill="#64748b" stroke="#64748b" points="720.04,-420.1 722.85,-413.24 716.37,-416.85 720.04,-420.1"/>
</g>
<!-- n16 -->
<g id="node17" class="node">
<title>n16</title>
<g id="a_node17"><a xlink:href="https://github.com/statopia/statlib/blob/main/Statlib/HighDim/Regression/LassoOracle.lean#L1028" xlink:title="theorem · Statlib/HighDim/Regression/LassoOracle.lean:1028" target="_blank">
<path fill="#ffe6a3" stroke="#d4a017" stroke-width="3" d="M347.09,-628C347.09,-628 218.91,-628 218.91,-628 212.91,-628 206.91,-622 206.91,-616 206.91,-616 206.91,-604 206.91,-604 206.91,-598 212.91,-592 218.91,-592 218.91,-592 347.09,-592 347.09,-592 353.09,-592 359.09,-598 359.09,-604 359.09,-604 359.09,-616 359.09,-616 359.09,-622 353.09,-628 347.09,-628"/>
<text xml:space="preserve" text-anchor="middle" x="283" y="-607" font-family="Helvetica,sans-Serif" font-size="10.00">lasso_oracle_l2_of_uniformRE</text>
</a>
</g>
</g>
<!-- n16&#45;&gt;n1 -->
<g id="edge46" class="edge">
<title>n16&#45;&gt;n1</title>
<path fill="none" stroke="#64748b" d="M205.68,-598.8C148.52,-589.87 76.82,-575.31 54,-556 21.29,-528.33 17,-509.84 17,-467 17,-467 17,-467 17,-177 17,-133.07 25.05,-114.61 60,-88 98.94,-58.36 241.52,-43.43 311.18,-37.77"/>
<polygon fill="#64748b" stroke="#64748b" points="311,-40.24 317.79,-37.24 310.62,-35.36 311,-40.24"/>
</g>
<!-- n16&#45;&gt;n3 -->
<g id="edge44" class="edge">
<title>n16&#45;&gt;n3</title>
<path fill="none" stroke="#64748b" d="M360.18,-608.53C456.39,-603.63 619.5,-580.41 713,-484 729.4,-467.09 735.55,-440.43 737.8,-420.69"/>
<polygon fill="#64748b" stroke="#64748b" points="740.22,-421.14 738.43,-413.94 735.34,-420.69 740.22,-421.14"/>
</g>
<!-- n16&#45;&gt;n5 -->
<g id="edge45" class="edge">
<title>n16&#45;&gt;n5</title>
<path fill="none" stroke="#64748b" d="M205.5,-597.43C133.39,-581.76 37,-546.02 37,-467 37,-467 37,-467 37,-321 37,-256.4 109.72,-216.17 161.67,-195.68"/>
<polygon fill="#64748b" stroke="#64748b" points="162.42,-198.02 168.08,-193.22 160.67,-193.44 162.42,-198.02"/>
</g>
<!-- n16&#45;&gt;n14 -->
<g id="edge47" class="edge">
<title>n16&#45;&gt;n14</title>
<path fill="none" stroke="#64748b" d="M283,-590.61C283,-582.59 283,-573.05 283,-564.37"/>
<polygon fill="#64748b" stroke="#64748b" points="285.45,-564.58 283,-557.58 280.55,-564.58 285.45,-564.58"/>
</g>
<!-- n16&#45;&gt;n15 -->
<g id="edge48" class="edge">
<title>n16&#45;&gt;n15</title>
<path fill="none" stroke="#64748b" d="M338.06,-590.51C407.79,-566.86 531.46,-524.15 636,-484 637.95,-483.25 639.95,-482.47 641.96,-481.67"/>
<polygon fill="#64748b" stroke="#64748b" points="642.75,-483.99 648.33,-479.11 640.92,-479.45 642.75,-483.99"/>
</g>
</g>
</svg>
