<?xml version="1.0" encoding="UTF-8" standalone="no"?>
<!DOCTYPE svg PUBLIC "-//W3C//DTD SVG 1.1//EN"
 "http://www.w3.org/Graphics/SVG/1.1/DTD/svg11.dtd">
<!-- Generated by graphviz version 15.0.0 (20260523.1842)
 -->
<!-- Title: lasso_oracle_l1_of_uniformRE Pages: 1 -->
<svg width="714pt" height="626pt"
 viewBox="0.00 0.00 714.00 626.00" xmlns="http://www.w3.org/2000/svg" xmlns:xlink="http://www.w3.org/1999/xlink">
<g id="graph0" class="graph" transform="scale(1 1) rotate(0) translate(4 622)">
<title>lasso_oracle_l1_of_uniformRE</title>
<polygon fill="white" stroke="none" points="-4,4 -4,-622 710,-622 710,4 -4,4"/>
<text xml:space="preserve" text-anchor="middle" x="353" y="-601.4" font-family="Helvetica,sans-Serif" font-size="14.00">Proof narrative — lasso_oracle_l1_of_uniformRE &#160;(16 decls)</text>
<g id="clust1" class="cluster">
<title>cluster_0</title>
<path fill="none" stroke="#cbd5e1" stroke-dasharray="5,2" d="M20,-8C20,-8 686,-8 686,-8 692,-8 698,-14 698,-20 698,-20 698,-573.2 698,-573.2 698,-579.2 692,-585.2 686,-585.2 686,-585.2 20,-585.2 20,-585.2 14,-585.2 8,-579.2 8,-573.2 8,-573.2 8,-20 8,-20 8,-14 14,-8 20,-8"/>
<text xml:space="preserve" text-anchor="middle" x="353" y="-571.3" font-family="Helvetica,sans-Serif" font-size="11.00">HighDim</text>
</g>
<!-- n0 -->
<g id="node1" class="node">
<title>n0</title>
<g id="a_node1"><a xlink:href="https://github.com/statopia/statlib/blob/main/Statlib/HighDim/Vocabulary/Sparse.lean#L49" xlink:title="def · Statlib/HighDim/Vocabulary/Sparse.lean:49" target="_blank">
<path fill="#d6e9ff" stroke="#3b82f6" d="M370.01,-268C370.01,-268 337.99,-268 337.99,-268 331.99,-268 325.99,-262 325.99,-256 325.99,-256 325.99,-244 325.99,-244 325.99,-238 331.99,-232 337.99,-232 337.99,-232 370.01,-232 370.01,-232 376.01,-232 382.01,-238 382.01,-244 382.01,-244 382.01,-256 382.01,-256 382.01,-262 376.01,-268 370.01,-268"/>
<text xml:space="preserve" text-anchor="middle" x="354" y="-247" font-family="Helvetica,sans-Serif" font-size="10.00">IsInCone</text>
</a>
</g>
</g>
<!-- n1 -->
<g id="node2" class="node">
<title>n1</title>
<g id="a_node2"><a xlink:href="https://github.com/statopia/statlib/blob/main/Statlib/HighDim/Vocabulary/Norms.lean#L13" xlink:title="noncomputable def · Statlib/HighDim/Vocabulary/Norms.lean:13" target="_blank">
<path fill="#d6e9ff" stroke="#3b82f6" d="M374.23,-52C374.23,-52 337.77,-52 337.77,-52 331.77,-52 325.77,-46 325.77,-40 325.77,-40 325.77,-28 325.77,-28 325.77,-22 331.77,-16 337.77,-16 337.77,-16 374.23,-16 374.23,-16 380.23,-16 386.23,-22 386.23,-28 386.23,-28 386.23,-40 386.23,-40 386.23,-46 380.23,-52 374.23,-52"/>
<text xml:space="preserve" text-anchor="middle" x="356" y="-31" font-family="Helvetica,sans-Serif" font-size="10.00">l2NormSq</text>
</a>
</g>
</g>
<!-- n2 -->
<g id="node3" class="node">
<title>n2</title>
<g id="a_node3"><a xlink:href="https://github.com/statopia/statlib/blob/main/Statlib/HighDim/Vocabulary/DesignMatrix.lean#L65" xlink:title="structure · Statlib/HighDim/Vocabulary/DesignMatrix.lean:65" target="_blank">
<path fill="#e8dcff" stroke="#8b5cf6" d="M111.84,-340C111.84,-340 68.16,-340 68.16,-340 62.16,-340 56.16,-334 56.16,-328 56.16,-328 56.16,-316 56.16,-316 56.16,-310 62.16,-304 68.16,-304 68.16,-304 111.84,-304 111.84,-304 117.84,-304 123.84,-310 123.84,-316 123.84,-316 123.84,-328 123.84,-328 123.84,-334 117.84,-340 111.84,-340"/>
<text xml:space="preserve" text-anchor="middle" x="90" y="-319" font-family="Helvetica,sans-Serif" font-size="10.00">SatisfiesRE</text>
</a>
</g>
</g>
<!-- n2&#45;&gt;n0 -->
<g id="edge1" class="edge">
<title>n2&#45;&gt;n0</title>
<path fill="none" stroke="#64748b" d="M124.24,-311.92C174.2,-298.67 266.65,-274.16 317.73,-260.62"/>
<polygon fill="#64748b" stroke="#64748b" points="318.26,-263.01 324.4,-258.85 317,-258.27 318.26,-263.01"/>
</g>
<!-- n2&#45;&gt;n1 -->
<g id="edge2" class="edge">
<title>n2&#45;&gt;n1</title>
<path fill="none" stroke="#64748b" d="M87.89,-303.57C83.75,-260.58 79.49,-148.62 138,-88 162.51,-62.61 261.54,-46.61 317.32,-39.43"/>
<polygon fill="#64748b" stroke="#64748b" points="317.41,-41.89 324.05,-38.58 316.8,-37.02 317.41,-41.89"/>
</g>
<!-- n3 -->
<g id="node4" class="node">
<title>n3</title>
<g id="a_node4"><a xlink:href="https://github.com/statopia/statlib/blob/main/Statlib/HighDim/Vocabulary/DesignMatrix.lean#L99" xlink:title="structure · Statlib/HighDim/Vocabulary/DesignMatrix.lean:99" target="_blank">
<path fill="#e8dcff" stroke="#8b5cf6" d="M106.34,-412C106.34,-412 27.66,-412 27.66,-412 21.66,-412 15.66,-406 15.66,-400 15.66,-400 15.66,-388 15.66,-388 15.66,-382 21.66,-376 27.66,-376 27.66,-376 106.34,-376 106.34,-376 112.34,-376 118.34,-382 118.34,-388 118.34,-388 118.34,-400 118.34,-400 118.34,-406 112.34,-412 106.34,-412"/>
<text xml:space="preserve" text-anchor="middle" x="67" y="-391" font-family="Helvetica,sans-Serif" font-size="10.00">SatisfiesUniformRE</text>
</a>
</g>
</g>
<!-- n3&#45;&gt;n0 -->
<g id="edge3" class="edge">
<title>n3&#45;&gt;n0</title>
<path fill="none" stroke="#64748b" d="M55.25,-375.54C43.67,-355.94 29.96,-324.23 47,-304 81.22,-263.37 243.67,-253.89 317.42,-251.67"/>
<polygon fill="#64748b" stroke="#64748b" points="317.1,-254.13 324.03,-251.49 316.97,-249.24 317.1,-254.13"/>
</g>
<!-- n3&#45;&gt;n1 -->
<g id="edge4" class="edge">
<title>n3&#45;&gt;n1</title>
<path fill="none" stroke="#64748b" d="M54.43,-375.64C47.74,-365.66 39.91,-352.62 35,-340 20.35,-302.39 17,-291.36 17,-251 17,-251 17,-251 17,-177 17,-48.25 227.61,-34.24 316.82,-34.08"/>
<polygon fill="#64748b" stroke="#64748b" points="316.8,-36.53 323.8,-34.11 316.81,-31.63 316.8,-36.53"/>
</g>
<!-- n3&#45;&gt;n2 -->
<g id="edge5" class="edge">
<title>n3&#45;&gt;n2</title>
<path fill="none" stroke="#64748b" d="M72.69,-375.7C75.41,-367.39 78.74,-357.28 81.74,-348.14"/>
<polygon fill="#64748b" stroke="#64748b" points="84.05,-348.96 83.91,-341.54 79.39,-347.43 84.05,-348.96"/>
</g>
<!-- n4 -->
<g id="node5" class="node">
<title>n4</title>
<g id="a_node5"><a xlink:href="https://github.com/statopia/statlib/blob/main/Statlib/HighDim/Regression/LassoOracle.lean#L48" xlink:title="noncomputable def · Statlib/HighDim/Regression/LassoOracle.lean:48" target="_blank">
<path fill="#d6e9ff" stroke="#3b82f6" d="M567.45,-124C567.45,-124 536.55,-124 536.55,-124 530.55,-124 524.55,-118 524.55,-112 524.55,-112 524.55,-100 524.55,-100 524.55,-94 530.55,-88 536.55,-88 536.55,-88 567.45,-88 567.45,-88 573.45,-88 579.45,-94 579.45,-100 579.45,-100 579.45,-112 579.45,-112 579.45,-118 573.45,-124 567.45,-124"/>
<text xml:space="preserve" text-anchor="middle" x="552" y="-103" font-family="Helvetica,sans-Serif" font-size="10.00">lassoObj</text>
</a>
</g>
</g>
<!-- n4&#45;&gt;n1 -->
<g id="edge6" class="edge">
<title>n4&#45;&gt;n1</title>
<path fill="none" stroke="#64748b" d="M524.29,-94.69C518.27,-92.47 511.93,-90.14 506,-88 468.09,-74.3 424.65,-58.99 394.31,-48.36"/>
<polygon fill="#64748b" stroke="#64748b" points="395.34,-46.13 387.93,-46.13 393.72,-50.76 395.34,-46.13"/>
</g>
<!-- n5 -->
<g id="node6" class="node">
<title>n5</title>
<g id="a_node6"><a xlink:href="https://github.com/statopia/statlib/blob/main/Statlib/HighDim/Regression/LassoOracle.lean#L53" xlink:title="def · Statlib/HighDim/Regression/LassoOracle.lean:53" target="_blank">
<path fill="#d6e9ff" stroke="#3b82f6" d="M669.3,-196C669.3,-196 606.7,-196 606.7,-196 600.7,-196 594.7,-190 594.7,-184 594.7,-184 594.7,-172 594.7,-172 594.7,-166 600.7,-160 606.7,-160 606.7,-160 669.3,-160 669.3,-160 675.3,-160 681.3,-166 681.3,-172 681.3,-172 681.3,-184 681.3,-184 681.3,-190 675.3,-196 669.3,-196"/>
<text xml:space="preserve" text-anchor="middle" x="638" y="-175" font-family="Helvetica,sans-Serif" font-size="10.00">IsLassoSolution</text>
</a>
</g>
</g>
<!-- n5&#45;&gt;n4 -->
<g id="edge7" class="edge">
<title>n5&#45;&gt;n4</title>
<path fill="none" stroke="#64748b" d="M616.74,-159.7C605.58,-150.61 591.76,-139.36 579.76,-129.6"/>
<polygon fill="#64748b" stroke="#64748b" points="581.46,-127.82 574.49,-125.3 578.37,-131.62 581.46,-127.82"/>
</g>
<!-- n6 -->
<g id="node7" class="node">
<title>n6</title>
<g id="a_node7"><a xlink:href="https://github.com/statopia/statlib/blob/main/Statlib/HighDim/Vocabulary/DesignMatrix.lean#L50" xlink:title="structure · Statlib/HighDim/Vocabulary/DesignMatrix.lean:50" target="_blank">
<path fill="#e8dcff" stroke="#8b5cf6" d="M448.35,-340C448.35,-340 369.65,-340 369.65,-340 363.65,-340 357.65,-334 357.65,-328 357.65,-328 357.65,-316 357.65,-316 357.65,-310 363.65,-304 369.65,-304 369.65,-304 448.35,-304 448.35,-304 454.35,-304 460.35,-310 460.35,-316 460.35,-316 460.35,-328 460.35,-328 460.35,-334 454.35,-340 448.35,-340"/>
<text xml:space="preserve" text-anchor="middle" x="409" y="-319" font-family="Helvetica,sans-Serif" font-size="10.00">SatisfiesSupportRE</text>
</a>
</g>
</g>
<!-- n6&#45;&gt;n0 -->
<g id="edge8" class="edge">
<title>n6&#45;&gt;n0</title>
<path fill="none" stroke="#64748b" d="M395.4,-303.7C388.54,-294.97 380.12,-284.24 372.66,-274.75"/>
<polygon fill="#64748b" stroke="#64748b" points="374.63,-273.29 368.37,-269.29 370.77,-276.31 374.63,-273.29"/>
</g>
<!-- n6&#45;&gt;n1 -->
<g id="edge9" class="edge">
<title>n6&#45;&gt;n1</title>
<path fill="none" stroke="#64748b" d="M405.76,-303.54C396.74,-254.86 371.28,-117.46 360.7,-60.37"/>
<polygon fill="#64748b" stroke="#64748b" points="363.15,-60.16 359.47,-53.72 358.34,-61.05 363.15,-60.16"/>
</g>
<!-- n7 -->
<g id="node8" class="node">
<title>n7</title>
<g id="a_node8"><a xlink:href="https://github.com/statopia/statlib/blob/main/Statlib/HighDim/Regression/LassoOracle.lean#L65" xlink:title="lemma · Statlib/HighDim/Regression/LassoOracle.lean:65" target="_blank">
<path fill="#eef2f6" stroke="#94a3b8" d="M598.03,-268C598.03,-268 505.97,-268 505.97,-268 499.97,-268 493.97,-262 493.97,-256 493.97,-256 493.97,-244 493.97,-244 493.97,-238 499.97,-232 505.97,-232 505.97,-232 598.03,-232 598.03,-232 604.03,-232 610.03,-238 610.03,-244 610.03,-244 610.03,-256 610.03,-256 610.03,-262 604.03,-268 598.03,-268"/>
<text xml:space="preserve" text-anchor="middle" x="552" y="-247" font-family="Helvetica,sans-Serif" font-size="10.00">lasso_basic_inequality</text>
</a>
</g>
</g>
<!-- n7&#45;&gt;n1 -->
<g id="edge11" class="edge">
<title>n7&#45;&gt;n1</title>
<path fill="none" stroke="#64748b" d="M548.61,-231.57C541.46,-199.17 521.91,-129.22 480,-88 456.55,-64.94 421.5,-51.23 394.64,-43.55"/>
<polygon fill="#64748b" stroke="#64748b" points="395.45,-41.23 388.05,-41.76 394.16,-45.96 395.45,-41.23"/>
</g>
<!-- n7&#45;&gt;n4 -->
<g id="edge12" class="edge">
<title>n7&#45;&gt;n4</title>
<path fill="none" stroke="#64748b" d="M552,-231.59C552,-206.76 552,-161.01 552,-132.4"/>
<polygon fill="#64748b" stroke="#64748b" points="554.45,-132.62 552,-125.62 549.55,-132.62 554.45,-132.62"/>
</g>
<!-- n7&#45;&gt;n5 -->
<g id="edge10" class="edge">
<title>n7&#45;&gt;n5</title>
<path fill="none" stroke="#64748b" d="M573.26,-231.7C584.42,-222.61 598.24,-211.36 610.24,-201.6"/>
<polygon fill="#64748b" stroke="#64748b" points="611.63,-203.62 615.51,-197.3 608.54,-199.82 611.63,-203.62"/>
</g>
<!-- n8 -->
<g id="node9" class="node">
<title>n8</title>
<g id="a_node9"><a xlink:href="https://github.com/statopia/statlib/blob/main/Statlib/HighDim/Regression/LassoOracle.lean#L257" xlink:title="lemma · Statlib/HighDim/Regression/LassoOracle.lean:257" target="_blank">
<path fill="#eef2f6" stroke="#94a3b8" d="M598.09,-340C598.09,-340 509.91,-340 509.91,-340 503.91,-340 497.91,-334 497.91,-328 497.91,-328 497.91,-316 497.91,-316 497.91,-310 503.91,-304 509.91,-304 509.91,-304 598.09,-304 598.09,-304 604.09,-304 610.09,-310 610.09,-316 610.09,-316 610.09,-328 610.09,-328 610.09,-334 604.09,-340 598.09,-340"/>
<text xml:space="preserve" text-anchor="middle" x="554" y="-319" font-family="Helvetica,sans-Serif" font-size="10.00">lasso_cone_condition</text>
</a>
</g>
</g>
<!-- n8&#45;&gt;n0 -->
<g id="edge14" class="edge">
<title>n8&#45;&gt;n0</title>
<path fill="none" stroke="#64748b" d="M504.05,-303.52C468.64,-291.12 421.94,-274.78 390.11,-263.64"/>
<polygon fill="#64748b" stroke="#64748b" points="391.2,-261.42 383.78,-261.42 389.58,-266.05 391.2,-261.42"/>
</g>
<!-- n8&#45;&gt;n1 -->
<g id="edge15" class="edge">
<title>n8&#45;&gt;n1</title>
<path fill="none" stroke="#64748b" d="M521.5,-303.67C508.03,-294.81 493.58,-282.75 485,-268 444.39,-198.19 506.85,-153.79 460,-88 444.44,-66.14 417.16,-52.72 394.44,-44.85"/>
<polygon fill="#64748b" stroke="#64748b" points="395.48,-42.61 388.06,-42.77 393.95,-47.27 395.48,-42.61"/>
</g>
<!-- n8&#45;&gt;n5 -->
<g id="edge13" class="edge">
<title>n8&#45;&gt;n5</title>
<path fill="none" stroke="#64748b" d="M583.15,-303.72C596.02,-294.65 610.19,-282.41 619,-268 630.74,-248.8 635.29,-223.41 637.03,-204.67"/>
<polygon fill="#64748b" stroke="#64748b" points="639.46,-204.98 637.54,-197.82 634.57,-204.62 639.46,-204.98"/>
</g>
<!-- n8&#45;&gt;n7 -->
<g id="edge16" class="edge">
<title>n8&#45;&gt;n7</title>
<path fill="none" stroke="#64748b" d="M553.51,-303.7C553.27,-295.47 552.99,-285.48 552.73,-276.42"/>
<polygon fill="#64748b" stroke="#64748b" points="555.18,-276.54 552.53,-269.62 550.28,-276.68 555.18,-276.54"/>
</g>
<!-- n9 -->
<g id="node10" class="node">
<title>n9</title>
<g id="a_node10"><a xlink:href="https://github.com/statopia/statlib/blob/main/Statlib/HighDim/Regression/LassoOracle.lean#L663" xlink:title="theorem · Statlib/HighDim/Regression/LassoOracle.lean:663" target="_blank">
<path fill="#ffe6a3" stroke="#d4a017" d="M543.1,-412C543.1,-412 414.9,-412 414.9,-412 408.9,-412 402.9,-406 402.9,-400 402.9,-400 402.9,-388 402.9,-388 402.9,-382 408.9,-376 414.9,-376 414.9,-376 543.1,-376 543.1,-376 549.1,-376 555.1,-382 555.1,-388 555.1,-388 555.1,-400 555.1,-400 555.1,-406 549.1,-412 543.1,-412"/>
<text xml:space="preserve" text-anchor="middle" x="479" y="-391" font-family="Helvetica,sans-Serif" font-size="10.00">lasso_oracle_l1_of_supportRE</text>
</a>
</g>
</g>
<!-- n9&#45;&gt;n0 -->
<g id="edge19" class="edge">
<title>n9&#45;&gt;n0</title>
<path fill="none" stroke="#64748b" d="M402.7,-378.53C381.82,-370.69 361.51,-358.61 349,-340 336.52,-321.43 339.73,-295.44 344.89,-276.34"/>
<polygon fill="#64748b" stroke="#64748b" points="347.19,-277.22 346.83,-269.81 342.49,-275.82 347.19,-277.22"/>
</g>
<!-- n9&#45;&gt;n1 -->
<g id="edge21" class="edge">
<title>n9&#45;&gt;n1</title>
<path fill="none" stroke="#64748b" d="M478.51,-375.67C477.67,-357.54 475.35,-328.38 469,-304 444.56,-210.16 393.49,-106.25 369.28,-59.8"/>
<polygon fill="#64748b" stroke="#64748b" points="371.48,-58.73 366.06,-53.67 367.14,-61.01 371.48,-58.73"/>
</g>
<!-- n9&#45;&gt;n5 -->
<g id="edge18" class="edge">
<title>n9&#45;&gt;n5</title>
<path fill="none" stroke="#64748b" d="M555.46,-383.08C582.24,-375.63 609.88,-362.64 627,-340 656.84,-300.55 650.75,-238.95 644.1,-204.5"/>
<polygon fill="#64748b" stroke="#64748b" points="646.54,-204.2 642.73,-197.84 641.74,-205.2 646.54,-204.2"/>
</g>
<!-- n9&#45;&gt;n6 -->
<g id="edge17" class="edge">
<title>n9&#45;&gt;n6</title>
<path fill="none" stroke="#64748b" d="M461.7,-375.7C452.71,-366.71 441.61,-355.61 431.92,-345.92"/>
<polygon fill="#64748b" stroke="#64748b" points="433.86,-344.39 427.17,-341.17 430.39,-347.86 433.86,-344.39"/>
</g>
<!-- n9&#45;&gt;n7 -->
<g id="edge22" class="edge">
<title>n9&#45;&gt;n7</title>
<path fill="none" stroke="#64748b" d="M555.52,-381.65C579.88,-374.02 604.3,-361.28 619,-340 628.09,-326.83 625.97,-318.4 619,-304 613.06,-291.73 602.75,-281.44 591.97,-273.28"/>
<polygon fill="#64748b" stroke="#64748b" points="593.59,-271.43 586.46,-269.36 590.75,-275.42 593.59,-271.43"/>
</g>
<!-- n9&#45;&gt;n8 -->
<g id="edge20" class="edge">
<title>n9&#45;&gt;n8</title>
<path fill="none" stroke="#64748b" d="M497.54,-375.7C507.09,-366.78 518.88,-355.78 529.21,-346.14"/>
<polygon fill="#64748b" stroke="#64748b" points="530.86,-347.95 534.31,-341.38 527.52,-344.36 530.86,-347.95"/>
</g>
<!-- n10 -->
<g id="node11" class="node">
<title>n10</title>
<g id="a_node11"><a xlink:href="https://github.com/statopia/statlib/blob/main/Statlib/HighDim/Vocabulary/Sparse.lean#L54" xlink:title="lemma · Statlib/HighDim/Vocabulary/Sparse.lean:54" target="_blank">
<path fill="#eef2f6" stroke="#94a3b8" d="M276.03,-196C276.03,-196 173.97,-196 173.97,-196 167.97,-196 161.97,-190 161.97,-184 161.97,-184 161.97,-172 161.97,-172 161.97,-166 167.97,-160 173.97,-160 173.97,-160 276.03,-160 276.03,-160 282.03,-160 288.03,-166 288.03,-172 288.03,-172 288.03,-184 288.03,-184 288.03,-190 282.03,-196 276.03,-196"/>
<text xml:space="preserve" text-anchor="middle" x="225" y="-175" font-family="Helvetica,sans-Serif" font-size="10.00">support_l2_le_l2NormSq</text>
</a>
</g>
</g>
<!-- n10&#45;&gt;n1 -->
<g id="edge23" class="edge">
<title>n10&#45;&gt;n1</title>
<path fill="none" stroke="#64748b" d="M239.36,-159.57C254.53,-141.36 279.34,-112.13 302,-88 311.44,-77.95 322.22,-67.22 331.66,-58.07"/>
<polygon fill="#64748b" stroke="#64748b" points="333.21,-59.98 336.54,-53.36 329.8,-56.45 333.21,-59.98"/>
</g>
<!-- n11 -->
<g id="node12" class="node">
<title>n11</title>
<g id="a_node12"><a xlink:href="https://github.com/statopia/statlib/blob/main/Statlib/HighDim/Vocabulary/DesignMatrix.lean#L82" xlink:title="structure · Statlib/HighDim/Vocabulary/DesignMatrix.lean:82" target="_blank">
<path fill="#e8dcff" stroke="#8b5cf6" d="M307.86,-340C307.86,-340 194.14,-340 194.14,-340 188.14,-340 182.14,-334 182.14,-328 182.14,-328 182.14,-316 182.14,-316 182.14,-310 188.14,-304 194.14,-304 194.14,-304 307.86,-304 307.86,-304 313.86,-304 319.86,-310 319.86,-316 319.86,-316 319.86,-328 319.86,-328 319.86,-334 313.86,-340 307.86,-340"/>
<text xml:space="preserve" text-anchor="middle" x="251" y="-319" font-family="Helvetica,sans-Serif" font-size="10.00">SatisfiesUniformSupportRE</text>
</a>
</g>
</g>
<!-- n11&#45;&gt;n0 -->
<g id="edge24" class="edge">
<title>n11&#45;&gt;n0</title>
<path fill="none" stroke="#64748b" d="M276.73,-303.52C290.35,-294.26 307.21,-282.8 321.7,-272.95"/>
<polygon fill="#64748b" stroke="#64748b" points="322.94,-275.07 327.35,-269.11 320.18,-271.02 322.94,-275.07"/>
</g>
<!-- n11&#45;&gt;n1 -->
<g id="edge25" class="edge">
<title>n11&#45;&gt;n1</title>
<path fill="none" stroke="#64748b" d="M257.41,-303.61C266.3,-279.47 282.89,-234.42 297,-196 314.62,-148.03 335.14,-92 346.74,-60.29"/>
<polygon fill="#64748b" stroke="#64748b" points="349.01,-61.23 349.11,-53.82 344.41,-59.55 349.01,-61.23"/>
</g>
<!-- n12 -->
<g id="node13" class="node">
<title>n12</title>
<g id="a_node13"><a xlink:href="https://github.com/statopia/statlib/blob/main/Statlib/HighDim/Vocabulary/DesignMatrix.lean#L110" xlink:title="lemma · Statlib/HighDim/Vocabulary/DesignMatrix.lean:110" target="_blank">
<path fill="#eef2f6" stroke="#94a3b8" d="M245.63,-412C245.63,-412 196.37,-412 196.37,-412 190.37,-412 184.37,-406 184.37,-400 184.37,-400 184.37,-388 184.37,-388 184.37,-382 190.37,-376 196.37,-376 196.37,-376 245.63,-376 245.63,-376 251.63,-376 257.63,-382 257.63,-388 257.63,-388 257.63,-400 257.63,-400 257.63,-406 251.63,-412 245.63,-412"/>
<text xml:space="preserve" text-anchor="middle" x="221" y="-391" font-family="Helvetica,sans-Serif" font-size="10.00">toSupportRE</text>
</a>
</g>
</g>
<!-- n12&#45;&gt;n1 -->
<g id="edge29" class="edge">
<title>n12&#45;&gt;n1</title>
<path fill="none" stroke="#64748b" d="M197.72,-375.65C186.61,-366.25 174.02,-353.74 166,-340 145.4,-304.72 143,-291.86 143,-251 143,-251 143,-251 143,-177 143,-94.06 256.19,-56.58 317.55,-42.36"/>
<polygon fill="#64748b" stroke="#64748b" points="317.71,-44.83 324.01,-40.91 316.64,-40.05 317.71,-44.83"/>
</g>
<!-- n12&#45;&gt;n2 -->
<g id="edge26" class="edge">
<title>n12&#45;&gt;n2</title>
<path fill="none" stroke="#64748b" d="M188.28,-375.52C170.48,-366.01 148.34,-354.17 129.58,-344.15"/>
<polygon fill="#64748b" stroke="#64748b" points="130.97,-342.11 123.64,-340.97 128.66,-346.43 130.97,-342.11"/>
</g>
<!-- n12&#45;&gt;n6 -->
<g id="edge27" class="edge">
<title>n12&#45;&gt;n6</title>
<path fill="none" stroke="#64748b" d="M257.69,-379.34C285.18,-369.1 323.23,-354.93 354.3,-343.37"/>
<polygon fill="#64748b" stroke="#64748b" points="354.91,-345.75 360.62,-341.01 353.2,-341.16 354.91,-345.75"/>
</g>
<!-- n12&#45;&gt;n10 -->
<g id="edge28" class="edge">
<title>n12&#45;&gt;n10</title>
<path fill="none" stroke="#64748b" d="M199.04,-375.55C189.06,-366.21 178.31,-353.78 173,-340 167.24,-325.07 169.87,-319.69 173,-304 180.31,-267.4 198.56,-228.1 211.37,-203.54"/>
<polygon fill="#64748b" stroke="#64748b" points="213.49,-204.78 214.6,-197.44 209.16,-202.48 213.49,-204.78"/>
</g>
<!-- n12&#45;&gt;n11 -->
<g id="edge30" class="edge">
<title>n12&#45;&gt;n11</title>
<path fill="none" stroke="#64748b" d="M228.42,-375.7C232.01,-367.3 236.4,-357.07 240.35,-347.86"/>
<polygon fill="#64748b" stroke="#64748b" points="242.57,-348.89 243.07,-341.5 238.06,-346.96 242.57,-348.89"/>
</g>
<!-- n13 -->
<g id="node14" class="node">
<title>n13</title>
<g id="a_node14"><a xlink:href="https://github.com/statopia/statlib/blob/main/Statlib/HighDim/Regression/LassoOracle.lean#L877" xlink:title="theorem · Statlib/HighDim/Regression/LassoOracle.lean:877" target="_blank">
<path fill="#ffe6a3" stroke="#d4a017" d="M254.74,-484C254.74,-484 193.26,-484 193.26,-484 187.26,-484 181.26,-478 181.26,-472 181.26,-472 181.26,-460 181.26,-460 181.26,-454 187.26,-448 193.26,-448 193.26,-448 254.74,-448 254.74,-448 260.74,-448 266.74,-454 266.74,-460 266.74,-460 266.74,-472 266.74,-472 266.74,-478 260.74,-484 254.74,-484"/>
<text xml:space="preserve" text-anchor="middle" x="224" y="-463" font-family="Helvetica,sans-Serif" font-size="10.00">lasso_oracle_l1</text>
</a>
</g>
</g>
<!-- n13&#45;&gt;n2 -->
<g id="edge31" class="edge">
<title>n13&#45;&gt;n2</title>
<path fill="none" stroke="#64748b" d="M207.57,-447.59C183.53,-422.11 138.72,-374.63 111.91,-346.21"/>
<polygon fill="#64748b" stroke="#64748b" points="113.77,-344.62 107.19,-341.21 110.21,-347.98 113.77,-344.62"/>
</g>
<!-- n13&#45;&gt;n5 -->
<g id="edge32" class="edge">
<title>n13&#45;&gt;n5</title>
<path fill="none" stroke="#64748b" d="M267.16,-461.49C346.58,-454.5 512.45,-437.31 564,-412 605.76,-391.49 617.6,-380.78 640,-340 655.69,-311.43 650.87,-300.45 654,-268 655.53,-252.07 656.34,-247.83 654,-232 652.64,-222.78 650.01,-212.93 647.27,-204.26"/>
<polygon fill="#64748b" stroke="#64748b" points="649.66,-203.68 645.13,-197.81 645.01,-205.22 649.66,-203.68"/>
</g>
<!-- n13&#45;&gt;n9 -->
<g id="edge33" class="edge">
<title>n13&#45;&gt;n9</title>
<path fill="none" stroke="#64748b" d="M266.97,-453.2C305.26,-442.69 362.08,-427.1 407.26,-414.69"/>
<polygon fill="#64748b" stroke="#64748b" points="407.7,-417.11 413.8,-412.9 406.4,-412.39 407.7,-417.11"/>
</g>
<!-- n13&#45;&gt;n12 -->
<g id="edge34" class="edge">
<title>n13&#45;&gt;n12</title>
<path fill="none" stroke="#64748b" d="M223.26,-447.7C222.91,-439.47 222.48,-429.48 222.09,-420.42"/>
<polygon fill="#64748b" stroke="#64748b" points="224.55,-420.51 221.8,-413.62 219.65,-420.72 224.55,-420.51"/>
</g>
<!-- n14 -->
<g id="node15" class="node">
<title>n14</title>
<g id="a_node15"><a xlink:href="https://github.com/statopia/statlib/blob/main/Statlib/HighDim/Vocabulary/DesignMatrix.lean#L151" xlink:title="lemma · Statlib/HighDim/Vocabulary/DesignMatrix.lean:151" target="_blank">
<path fill="#eef2f6" stroke="#94a3b8" d="M151,-484C151,-484 121,-484 121,-484 115,-484 109,-478 109,-472 109,-472 109,-460 109,-460 109,-454 115,-448 121,-448 121,-448 151,-448 151,-448 157,-448 163,-454 163,-460 163,-460 163,-472 163,-472 163,-478 157,-484 151,-484"/>
<text xml:space="preserve" text-anchor="middle" x="136" y="-463" font-family="Helvetica,sans-Serif" font-size="10.00">toRE</text>
</a>
</g>
</g>
<!-- n14&#45;&gt;n2 -->
<g id="edge36" class="edge">
<title>n14&#45;&gt;n2</title>
<path fill="none" stroke="#64748b" d="M136.78,-447.69C137.04,-429.33 135.8,-399.73 127,-376 123.18,-365.71 116.88,-355.54 110.55,-346.9"/>
<polygon fill="#64748b" stroke="#64748b" points="112.63,-345.6 106.43,-341.54 108.74,-348.58 112.63,-345.6"/>
</g>
<!-- n14&#45;&gt;n3 -->
<g id="edge35" class="edge">
<title>n14&#45;&gt;n3</title>
<path fill="none" stroke="#64748b" d="M118.94,-447.7C110.09,-438.71 99.15,-427.61 89.6,-417.92"/>
<polygon fill="#64748b" stroke="#64748b" points="91.58,-416.45 84.92,-413.18 88.09,-419.89 91.58,-416.45"/>
</g>
<!-- n15 -->
<g id="node16" class="node">
<title>n15</title>
<g id="a_node16"><a xlink:href="https://github.com/statopia/statlib/blob/main/Statlib/HighDim/Regression/LassoOracle.lean#L892" xlink:title="theorem · Statlib/HighDim/Regression/LassoOracle.lean:892" target="_blank">
<path fill="#ffe6a3" stroke="#d4a017" stroke-width="3" d="M244.09,-556C244.09,-556 115.91,-556 115.91,-556 109.91,-556 103.91,-550 103.91,-544 103.91,-544 103.91,-532 103.91,-532 103.91,-526 109.91,-520 115.91,-520 115.91,-520 244.09,-520 244.09,-520 250.09,-520 256.09,-526 256.09,-532 256.09,-532 256.09,-544 256.09,-544 256.09,-550 250.09,-556 244.09,-556"/>
<text xml:space="preserve" text-anchor="middle" x="180" y="-535" font-family="Helvetica,sans-Serif" font-size="10.00">lasso_oracle_l1_of_uniformRE</text>
</a>
</g>
</g>
<!-- n15&#45;&gt;n3 -->
<g id="edge37" class="edge">
<title>n15&#45;&gt;n3</title>
<path fill="none" stroke="#64748b" d="M142.32,-518.72C127.46,-509.95 111.28,-498.23 100,-484 85.26,-465.41 76.66,-439.59 71.96,-420.54"/>
<polygon fill="#64748b" stroke="#64748b" points="74.37,-420.06 70.41,-413.79 69.59,-421.16 74.37,-420.06"/>
</g>
<!-- n15&#45;&gt;n5 -->
<g id="edge38" class="edge">
<title>n15&#45;&gt;n5</title>
<path fill="none" stroke="#64748b" d="M257.58,-531.49C400.07,-519.24 689,-483.47 689,-395 689,-395 689,-395 689,-321 689,-277.66 667.7,-231.03 652.63,-203.47"/>
<polygon fill="#64748b" stroke="#64748b" points="654.87,-202.44 649.31,-197.53 650.59,-204.84 654.87,-202.44"/>
</g>
<!-- n15&#45;&gt;n13 -->
<g id="edge39" class="edge">
<title>n15&#45;&gt;n13</title>
<path fill="none" stroke="#64748b" d="M191.56,-518.61C196.86,-510.17 203.22,-500.06 208.9,-491.02"/>
<polygon fill="#64748b" stroke="#64748b" points="210.82,-492.58 212.47,-485.35 206.67,-489.97 210.82,-492.58"/>
</g>
<!-- n15&#45;&gt;n14 -->
<g id="edge40" class="edge">
<title>n15&#45;&gt;n14</title>
<path fill="none" stroke="#64748b" d="M168.44,-518.61C163.14,-510.17 156.78,-500.06 151.1,-491.02"/>
<polygon fill="#64748b" stroke="#64748b" points="153.33,-489.97 147.53,-485.35 149.18,-492.58 153.33,-489.97"/>
</g>
</g>
</svg>
