<?xml version="1.0" encoding="UTF-8" standalone="no"?>
<!DOCTYPE svg PUBLIC "-//W3C//DTD SVG 1.1//EN"
 "http://www.w3.org/Graphics/SVG/1.1/DTD/svg11.dtd">
<!-- Generated by graphviz version 15.0.0 (20260523.1842)
 -->
<!-- Title: lasso_oracle_prediction_of_uniformRE Pages: 1 -->
<svg width="754pt" height="626pt"
 viewBox="0.00 0.00 754.00 626.00" xmlns="http://www.w3.org/2000/svg" xmlns:xlink="http://www.w3.org/1999/xlink">
<g id="graph0" class="graph" transform="scale(1 1) rotate(0) translate(4 622)">
<title>lasso_oracle_prediction_of_uniformRE</title>
<polygon fill="white" stroke="none" points="-4,4 -4,-622 750,-622 750,4 -4,4"/>
<text xml:space="preserve" text-anchor="middle" x="373" y="-601.4" font-family="Helvetica,sans-Serif" font-size="14.00">Proof narrative — lasso_oracle_prediction_of_uniformRE &#160;(16 decls)</text>
<g id="clust1" class="cluster">
<title>cluster_0</title>
<path fill="none" stroke="#cbd5e1" stroke-dasharray="5,2" d="M20,-8C20,-8 726,-8 726,-8 732,-8 738,-14 738,-20 738,-20 738,-573.2 738,-573.2 738,-579.2 732,-585.2 726,-585.2 726,-585.2 20,-585.2 20,-585.2 14,-585.2 8,-579.2 8,-573.2 8,-573.2 8,-20 8,-20 8,-14 14,-8 20,-8"/>
<text xml:space="preserve" text-anchor="middle" x="373" y="-571.3" font-family="Helvetica,sans-Serif" font-size="11.00">HighDim</text>
</g>
<!-- n0 -->
<g id="node1" class="node">
<title>n0</title>
<g id="a_node1"><a xlink:href="https://github.com/statopia/statlib/blob/main/Statlib/HighDim/Vocabulary/Sparse.lean#L49" xlink:title="def · Statlib/HighDim/Vocabulary/Sparse.lean:49" target="_blank">
<path fill="#d6e9ff" stroke="#3b82f6" d="M351.01,-268C351.01,-268 318.99,-268 318.99,-268 312.99,-268 306.99,-262 306.99,-256 306.99,-256 306.99,-244 306.99,-244 306.99,-238 312.99,-232 318.99,-232 318.99,-232 351.01,-232 351.01,-232 357.01,-232 363.01,-238 363.01,-244 363.01,-244 363.01,-256 363.01,-256 363.01,-262 357.01,-268 351.01,-268"/>
<text xml:space="preserve" text-anchor="middle" x="335" y="-247" font-family="Helvetica,sans-Serif" font-size="10.00">IsInCone</text>
</a>
</g>
</g>
<!-- n1 -->
<g id="node2" class="node">
<title>n1</title>
<g id="a_node2"><a xlink:href="https://github.com/statopia/statlib/blob/main/Statlib/HighDim/Vocabulary/Norms.lean#L13" xlink:title="noncomputable def · Statlib/HighDim/Vocabulary/Norms.lean:13" target="_blank">
<path fill="#d6e9ff" stroke="#3b82f6" d="M369.23,-52C369.23,-52 332.77,-52 332.77,-52 326.77,-52 320.77,-46 320.77,-40 320.77,-40 320.77,-28 320.77,-28 320.77,-22 326.77,-16 332.77,-16 332.77,-16 369.23,-16 369.23,-16 375.23,-16 381.23,-22 381.23,-28 381.23,-28 381.23,-40 381.23,-40 381.23,-46 375.23,-52 369.23,-52"/>
<text xml:space="preserve" text-anchor="middle" x="351" y="-31" font-family="Helvetica,sans-Serif" font-size="10.00">l2NormSq</text>
</a>
</g>
</g>
<!-- n2 -->
<g id="node3" class="node">
<title>n2</title>
<g id="a_node3"><a xlink:href="https://github.com/statopia/statlib/blob/main/Statlib/HighDim/Vocabulary/DesignMatrix.lean#L65" xlink:title="structure · Statlib/HighDim/Vocabulary/DesignMatrix.lean:65" target="_blank">
<path fill="#e8dcff" stroke="#8b5cf6" d="M131.84,-340C131.84,-340 88.16,-340 88.16,-340 82.16,-340 76.16,-334 76.16,-328 76.16,-328 76.16,-316 76.16,-316 76.16,-310 82.16,-304 88.16,-304 88.16,-304 131.84,-304 131.84,-304 137.84,-304 143.84,-310 143.84,-316 143.84,-316 143.84,-328 143.84,-328 143.84,-334 137.84,-340 131.84,-340"/>
<text xml:space="preserve" text-anchor="middle" x="110" y="-319" font-family="Helvetica,sans-Serif" font-size="10.00">SatisfiesRE</text>
</a>
</g>
</g>
<!-- n2&#45;&gt;n0 -->
<g id="edge1" class="edge">
<title>n2&#45;&gt;n0</title>
<path fill="none" stroke="#64748b" d="M144.17,-310.37C185.87,-297.4 256.05,-275.56 298.69,-262.3"/>
<polygon fill="#64748b" stroke="#64748b" points="299.18,-264.71 305.13,-260.29 297.72,-260.03 299.18,-264.71"/>
</g>
<!-- n2&#45;&gt;n1 -->
<g id="edge2" class="edge">
<title>n2&#45;&gt;n1</title>
<path fill="none" stroke="#64748b" d="M101.83,-303.82C88.46,-273 65.77,-207.15 91,-160 134.79,-78.18 251.39,-49.32 312.47,-39.62"/>
<polygon fill="#64748b" stroke="#64748b" points="312.65,-42.07 319.21,-38.6 311.92,-37.22 312.65,-42.07"/>
</g>
<!-- n3 -->
<g id="node4" class="node">
<title>n3</title>
<g id="a_node4"><a xlink:href="https://github.com/statopia/statlib/blob/main/Statlib/HighDim/Vocabulary/DesignMatrix.lean#L99" xlink:title="structure · Statlib/HighDim/Vocabulary/DesignMatrix.lean:99" target="_blank">
<path fill="#e8dcff" stroke="#8b5cf6" d="M126.34,-412C126.34,-412 47.66,-412 47.66,-412 41.66,-412 35.66,-406 35.66,-400 35.66,-400 35.66,-388 35.66,-388 35.66,-382 41.66,-376 47.66,-376 47.66,-376 126.34,-376 126.34,-376 132.34,-376 138.34,-382 138.34,-388 138.34,-388 138.34,-400 138.34,-400 138.34,-406 132.34,-412 126.34,-412"/>
<text xml:space="preserve" text-anchor="middle" x="87" y="-391" font-family="Helvetica,sans-Serif" font-size="10.00">SatisfiesUniformRE</text>
</a>
</g>
</g>
<!-- n3&#45;&gt;n0 -->
<g id="edge3" class="edge">
<title>n3&#45;&gt;n0</title>
<path fill="none" stroke="#64748b" d="M75.34,-375.62C63.84,-356.08 50.21,-324.43 67,-304 95.95,-268.77 232.59,-256.56 298.83,-252.67"/>
<polygon fill="#64748b" stroke="#64748b" points="298.57,-255.14 305.42,-252.3 298.29,-250.24 298.57,-255.14"/>
</g>
<!-- n3&#45;&gt;n1 -->
<g id="edge4" class="edge">
<title>n3&#45;&gt;n1</title>
<path fill="none" stroke="#64748b" d="M74.43,-375.64C67.74,-365.66 59.91,-352.62 55,-340 40.35,-302.39 37,-291.36 37,-251 37,-251 37,-251 37,-177 37,-57.56 227.97,-38.05 312.05,-35.25"/>
<polygon fill="#64748b" stroke="#64748b" points="311.88,-37.71 318.81,-35.06 311.74,-32.81 311.88,-37.71"/>
</g>
<!-- n3&#45;&gt;n2 -->
<g id="edge5" class="edge">
<title>n3&#45;&gt;n2</title>
<path fill="none" stroke="#64748b" d="M92.69,-375.7C95.41,-367.39 98.74,-357.28 101.74,-348.14"/>
<polygon fill="#64748b" stroke="#64748b" points="104.05,-348.96 103.91,-341.54 99.39,-347.43 104.05,-348.96"/>
</g>
<!-- n4 -->
<g id="node5" class="node">
<title>n4</title>
<g id="a_node5"><a xlink:href="https://github.com/statopia/statlib/blob/main/Statlib/HighDim/Regression/LassoOracle.lean#L48" xlink:title="noncomputable def · Statlib/HighDim/Regression/LassoOracle.lean:48" target="_blank">
<path fill="#d6e9ff" stroke="#3b82f6" d="M607.45,-124C607.45,-124 576.55,-124 576.55,-124 570.55,-124 564.55,-118 564.55,-112 564.55,-112 564.55,-100 564.55,-100 564.55,-94 570.55,-88 576.55,-88 576.55,-88 607.45,-88 607.45,-88 613.45,-88 619.45,-94 619.45,-100 619.45,-100 619.45,-112 619.45,-112 619.45,-118 613.45,-124 607.45,-124"/>
<text xml:space="preserve" text-anchor="middle" x="592" y="-103" font-family="Helvetica,sans-Serif" font-size="10.00">lassoObj</text>
</a>
</g>
</g>
<!-- n4&#45;&gt;n1 -->
<g id="edge6" class="edge">
<title>n4&#45;&gt;n1</title>
<path fill="none" stroke="#64748b" d="M564.41,-94.35C558.38,-92.15 552,-89.92 546,-88 492.35,-70.83 429.28,-54.35 389.72,-44.45"/>
<polygon fill="#64748b" stroke="#64748b" points="390.5,-42.11 383.11,-42.8 389.31,-46.87 390.5,-42.11"/>
</g>
<!-- n5 -->
<g id="node6" class="node">
<title>n5</title>
<g id="a_node6"><a xlink:href="https://github.com/statopia/statlib/blob/main/Statlib/HighDim/Regression/LassoOracle.lean#L53" xlink:title="def · Statlib/HighDim/Regression/LassoOracle.lean:53" target="_blank">
<path fill="#d6e9ff" stroke="#3b82f6" d="M709.3,-196C709.3,-196 646.7,-196 646.7,-196 640.7,-196 634.7,-190 634.7,-184 634.7,-184 634.7,-172 634.7,-172 634.7,-166 640.7,-160 646.7,-160 646.7,-160 709.3,-160 709.3,-160 715.3,-160 721.3,-166 721.3,-172 721.3,-172 721.3,-184 721.3,-184 721.3,-190 715.3,-196 709.3,-196"/>
<text xml:space="preserve" text-anchor="middle" x="678" y="-175" font-family="Helvetica,sans-Serif" font-size="10.00">IsLassoSolution</text>
</a>
</g>
</g>
<!-- n5&#45;&gt;n4 -->
<g id="edge7" class="edge">
<title>n5&#45;&gt;n4</title>
<path fill="none" stroke="#64748b" d="M656.74,-159.7C645.58,-150.61 631.76,-139.36 619.76,-129.6"/>
<polygon fill="#64748b" stroke="#64748b" points="621.46,-127.82 614.49,-125.3 618.37,-131.62 621.46,-127.82"/>
</g>
<!-- n6 -->
<g id="node7" class="node">
<title>n6</title>
<g id="a_node7"><a xlink:href="https://github.com/statopia/statlib/blob/main/Statlib/HighDim/Vocabulary/DesignMatrix.lean#L50" xlink:title="structure · Statlib/HighDim/Vocabulary/DesignMatrix.lean:50" target="_blank">
<path fill="#e8dcff" stroke="#8b5cf6" d="M448.35,-340C448.35,-340 369.65,-340 369.65,-340 363.65,-340 357.65,-334 357.65,-328 357.65,-328 357.65,-316 357.65,-316 357.65,-310 363.65,-304 369.65,-304 369.65,-304 448.35,-304 448.35,-304 454.35,-304 460.35,-310 460.35,-316 460.35,-316 460.35,-328 460.35,-328 460.35,-334 454.35,-340 448.35,-340"/>
<text xml:space="preserve" text-anchor="middle" x="409" y="-319" font-family="Helvetica,sans-Serif" font-size="10.00">SatisfiesSupportRE</text>
</a>
</g>
</g>
<!-- n6&#45;&gt;n0 -->
<g id="edge8" class="edge">
<title>n6&#45;&gt;n0</title>
<path fill="none" stroke="#64748b" d="M390.71,-303.7C381.28,-294.78 369.65,-283.78 359.46,-274.14"/>
<polygon fill="#64748b" stroke="#64748b" points="361.21,-272.42 354.44,-269.39 357.84,-275.98 361.21,-272.42"/>
</g>
<!-- n6&#45;&gt;n1 -->
<g id="edge9" class="edge">
<title>n6&#45;&gt;n1</title>
<path fill="none" stroke="#64748b" d="M405.46,-303.54C395.59,-254.86 367.72,-117.46 356.14,-60.37"/>
<polygon fill="#64748b" stroke="#64748b" points="358.59,-60.09 354.8,-53.71 353.79,-61.06 358.59,-60.09"/>
</g>
<!-- n7 -->
<g id="node8" class="node">
<title>n7</title>
<g id="a_node8"><a xlink:href="https://github.com/statopia/statlib/blob/main/Statlib/HighDim/Regression/LassoOracle.lean#L65" xlink:title="lemma · Statlib/HighDim/Regression/LassoOracle.lean:65" target="_blank">
<path fill="#eef2f6" stroke="#94a3b8" d="M638.03,-268C638.03,-268 545.97,-268 545.97,-268 539.97,-268 533.97,-262 533.97,-256 533.97,-256 533.97,-244 533.97,-244 533.97,-238 539.97,-232 545.97,-232 545.97,-232 638.03,-232 638.03,-232 644.03,-232 650.03,-238 650.03,-244 650.03,-244 650.03,-256 650.03,-256 650.03,-262 644.03,-268 638.03,-268"/>
<text xml:space="preserve" text-anchor="middle" x="592" y="-247" font-family="Helvetica,sans-Serif" font-size="10.00">lasso_basic_inequality</text>
</a>
</g>
</g>
<!-- n7&#45;&gt;n1 -->
<g id="edge11" class="edge">
<title>n7&#45;&gt;n1</title>
<path fill="none" stroke="#64748b" d="M589.09,-231.68C582.65,-198.84 564.15,-127.28 520,-88 483.48,-55.51 427.14,-42.93 389.69,-38.07"/>
<polygon fill="#64748b" stroke="#64748b" points="390.27,-35.67 383.03,-37.27 389.69,-40.53 390.27,-35.67"/>
</g>
<!-- n7&#45;&gt;n4 -->
<g id="edge12" class="edge">
<title>n7&#45;&gt;n4</title>
<path fill="none" stroke="#64748b" d="M592,-231.59C592,-206.76 592,-161.01 592,-132.4"/>
<polygon fill="#64748b" stroke="#64748b" points="594.45,-132.62 592,-125.62 589.55,-132.62 594.45,-132.62"/>
</g>
<!-- n7&#45;&gt;n5 -->
<g id="edge10" class="edge">
<title>n7&#45;&gt;n5</title>
<path fill="none" stroke="#64748b" d="M613.26,-231.7C624.42,-222.61 638.24,-211.36 650.24,-201.6"/>
<polygon fill="#64748b" stroke="#64748b" points="651.63,-203.62 655.51,-197.3 648.54,-199.82 651.63,-203.62"/>
</g>
<!-- n8 -->
<g id="node9" class="node">
<title>n8</title>
<g id="a_node9"><a xlink:href="https://github.com/statopia/statlib/blob/main/Statlib/HighDim/Regression/LassoOracle.lean#L257" xlink:title="lemma · Statlib/HighDim/Regression/LassoOracle.lean:257" target="_blank">
<path fill="#eef2f6" stroke="#94a3b8" d="M638.09,-340C638.09,-340 549.91,-340 549.91,-340 543.91,-340 537.91,-334 537.91,-328 537.91,-328 537.91,-316 537.91,-316 537.91,-310 543.91,-304 549.91,-304 549.91,-304 638.09,-304 638.09,-304 644.09,-304 650.09,-310 650.09,-316 650.09,-316 650.09,-328 650.09,-328 650.09,-334 644.09,-340 638.09,-340"/>
<text xml:space="preserve" text-anchor="middle" x="594" y="-319" font-family="Helvetica,sans-Serif" font-size="10.00">lasso_cone_condition</text>
</a>
</g>
</g>
<!-- n8&#45;&gt;n0 -->
<g id="edge14" class="edge">
<title>n8&#45;&gt;n0</title>
<path fill="none" stroke="#64748b" d="M537.48,-305.72C487,-292.08 414.56,-272.5 371.39,-260.84"/>
<polygon fill="#64748b" stroke="#64748b" points="372.28,-258.54 364.89,-259.08 371.01,-263.27 372.28,-258.54"/>
</g>
<!-- n8&#45;&gt;n1 -->
<g id="edge15" class="edge">
<title>n8&#45;&gt;n1</title>
<path fill="none" stroke="#64748b" d="M561.5,-303.67C548.03,-294.81 533.58,-282.75 525,-268 484.39,-198.19 551.01,-150.62 500,-88 473.23,-55.13 424.54,-42.63 390.12,-37.89"/>
<polygon fill="#64748b" stroke="#64748b" points="390.45,-35.46 383.2,-37.03 389.84,-40.32 390.45,-35.46"/>
</g>
<!-- n8&#45;&gt;n5 -->
<g id="edge13" class="edge">
<title>n8&#45;&gt;n5</title>
<path fill="none" stroke="#64748b" d="M623.15,-303.72C636.02,-294.65 650.19,-282.41 659,-268 670.74,-248.8 675.29,-223.41 677.03,-204.67"/>
<polygon fill="#64748b" stroke="#64748b" points="679.46,-204.98 677.54,-197.82 674.57,-204.62 679.46,-204.98"/>
</g>
<!-- n8&#45;&gt;n7 -->
<g id="edge16" class="edge">
<title>n8&#45;&gt;n7</title>
<path fill="none" stroke="#64748b" d="M593.51,-303.7C593.27,-295.47 592.99,-285.48 592.73,-276.42"/>
<polygon fill="#64748b" stroke="#64748b" points="595.18,-276.54 592.53,-269.62 590.28,-276.68 595.18,-276.54"/>
</g>
<!-- n9 -->
<g id="node10" class="node">
<title>n9</title>
<g id="a_node10"><a xlink:href="https://github.com/statopia/statlib/blob/main/Statlib/HighDim/Regression/LassoOracle.lean#L416" xlink:title="theorem · Statlib/HighDim/Regression/LassoOracle.lean:416" target="_blank">
<path fill="#ffe6a3" stroke="#d4a017" d="M673.89,-412C673.89,-412 510.11,-412 510.11,-412 504.11,-412 498.11,-406 498.11,-400 498.11,-400 498.11,-388 498.11,-388 498.11,-382 504.11,-376 510.11,-376 510.11,-376 673.89,-376 673.89,-376 679.89,-376 685.89,-382 685.89,-388 685.89,-388 685.89,-400 685.89,-400 685.89,-406 679.89,-412 673.89,-412"/>
<text xml:space="preserve" text-anchor="middle" x="592" y="-391" font-family="Helvetica,sans-Serif" font-size="10.00">lasso_oracle_prediction_of_supportRE</text>
</a>
</g>
</g>
<!-- n9&#45;&gt;n0 -->
<g id="edge20" class="edge">
<title>n9&#45;&gt;n0</title>
<path fill="none" stroke="#64748b" d="M565.29,-375.59C550.06,-365.49 530.73,-352.35 514,-340 493.39,-324.79 491.15,-316.85 469,-304 437.68,-285.83 398.95,-271.27 371.2,-262.04"/>
<polygon fill="#64748b" stroke="#64748b" points="372.17,-259.78 364.76,-259.93 370.65,-264.44 372.17,-259.78"/>
</g>
<!-- n9&#45;&gt;n1 -->
<g id="edge19" class="edge">
<title>n9&#45;&gt;n1</title>
<path fill="none" stroke="#64748b" d="M564.84,-375.72C552.31,-366.49 538.21,-354.13 529,-340 510.8,-312.07 515.24,-300.54 508,-268 499.2,-228.49 505.06,-119.79 480,-88 458.08,-60.19 419.1,-46.86 389.71,-40.54"/>
<polygon fill="#64748b" stroke="#64748b" points="390.53,-38.2 383.18,-39.23 389.57,-43.01 390.53,-38.2"/>
</g>
<!-- n9&#45;&gt;n5 -->
<g id="edge18" class="edge">
<title>n9&#45;&gt;n5</title>
<path fill="none" stroke="#64748b" d="M629.37,-375.63C643.63,-367.01 658.49,-355.15 667,-340 690.94,-297.4 687.36,-238.11 682.65,-204.65"/>
<polygon fill="#64748b" stroke="#64748b" points="685.09,-204.38 681.61,-197.83 680.25,-205.12 685.09,-204.38"/>
</g>
<!-- n9&#45;&gt;n6 -->
<g id="edge17" class="edge">
<title>n9&#45;&gt;n6</title>
<path fill="none" stroke="#64748b" d="M546.29,-375.52C520.76,-365.75 488.82,-353.53 462.17,-343.34"/>
<polygon fill="#64748b" stroke="#64748b" points="463.27,-341.14 455.85,-340.92 461.52,-345.71 463.27,-341.14"/>
</g>
<!-- n9&#45;&gt;n7 -->
<g id="edge22" class="edge">
<title>n9&#45;&gt;n7</title>
<path fill="none" stroke="#64748b" d="M625.23,-375.51C638.28,-366.75 651.83,-354.82 659,-340 665.97,-325.6 665.97,-318.4 659,-304 653.06,-291.73 642.75,-281.44 631.97,-273.28"/>
<polygon fill="#64748b" stroke="#64748b" points="633.59,-271.43 626.46,-269.36 630.75,-275.42 633.59,-271.43"/>
</g>
<!-- n9&#45;&gt;n8 -->
<g id="edge21" class="edge">
<title>n9&#45;&gt;n8</title>
<path fill="none" stroke="#64748b" d="M592.49,-375.7C592.73,-367.47 593.01,-357.48 593.27,-348.42"/>
<polygon fill="#64748b" stroke="#64748b" points="595.72,-348.68 593.47,-341.62 590.82,-348.54 595.72,-348.68"/>
</g>
<!-- n10 -->
<g id="node11" class="node">
<title>n10</title>
<g id="a_node11"><a xlink:href="https://github.com/statopia/statlib/blob/main/Statlib/HighDim/Vocabulary/Sparse.lean#L54" xlink:title="lemma · Statlib/HighDim/Vocabulary/Sparse.lean:54" target="_blank">
<path fill="#eef2f6" stroke="#94a3b8" d="M214.03,-196C214.03,-196 111.97,-196 111.97,-196 105.97,-196 99.97,-190 99.97,-184 99.97,-184 99.97,-172 99.97,-172 99.97,-166 105.97,-160 111.97,-160 111.97,-160 214.03,-160 214.03,-160 220.03,-160 226.03,-166 226.03,-172 226.03,-172 226.03,-184 226.03,-184 226.03,-190 220.03,-196 214.03,-196"/>
<text xml:space="preserve" text-anchor="middle" x="163" y="-175" font-family="Helvetica,sans-Serif" font-size="10.00">support_l2_le_l2NormSq</text>
</a>
</g>
</g>
<!-- n10&#45;&gt;n1 -->
<g id="edge23" class="edge">
<title>n10&#45;&gt;n1</title>
<path fill="none" stroke="#64748b" d="M174.61,-159.71C188.37,-140.26 212.87,-108.69 240,-88 262.03,-71.2 290.23,-57.82 312.69,-48.71"/>
<polygon fill="#64748b" stroke="#64748b" points="313.37,-51.07 318.97,-46.22 311.56,-46.52 313.37,-51.07"/>
</g>
<!-- n11 -->
<g id="node12" class="node">
<title>n11</title>
<g id="a_node12"><a xlink:href="https://github.com/statopia/statlib/blob/main/Statlib/HighDim/Vocabulary/DesignMatrix.lean#L82" xlink:title="structure · Statlib/HighDim/Vocabulary/DesignMatrix.lean:82" target="_blank">
<path fill="#e8dcff" stroke="#8b5cf6" d="M327.86,-340C327.86,-340 214.14,-340 214.14,-340 208.14,-340 202.14,-334 202.14,-328 202.14,-328 202.14,-316 202.14,-316 202.14,-310 208.14,-304 214.14,-304 214.14,-304 327.86,-304 327.86,-304 333.86,-304 339.86,-310 339.86,-316 339.86,-316 339.86,-328 339.86,-328 339.86,-334 333.86,-340 327.86,-340"/>
<text xml:space="preserve" text-anchor="middle" x="271" y="-319" font-family="Helvetica,sans-Serif" font-size="10.00">SatisfiesUniformSupportRE</text>
</a>
</g>
</g>
<!-- n11&#45;&gt;n0 -->
<g id="edge24" class="edge">
<title>n11&#45;&gt;n0</title>
<path fill="none" stroke="#64748b" d="M286.82,-303.7C294.96,-294.8 304.99,-283.82 313.79,-274.2"/>
<polygon fill="#64748b" stroke="#64748b" points="315.43,-276.04 318.34,-269.22 311.81,-272.73 315.43,-276.04"/>
</g>
<!-- n11&#45;&gt;n1 -->
<g id="edge25" class="edge">
<title>n11&#45;&gt;n1</title>
<path fill="none" stroke="#64748b" d="M275.88,-303.54C289.5,-254.86 327.93,-117.46 343.9,-60.37"/>
<polygon fill="#64748b" stroke="#64748b" points="346.25,-61.09 345.77,-53.69 341.53,-59.77 346.25,-61.09"/>
</g>
<!-- n12 -->
<g id="node13" class="node">
<title>n12</title>
<g id="a_node13"><a xlink:href="https://github.com/statopia/statlib/blob/main/Statlib/HighDim/Vocabulary/DesignMatrix.lean#L110" xlink:title="lemma · Statlib/HighDim/Vocabulary/DesignMatrix.lean:110" target="_blank">
<path fill="#eef2f6" stroke="#94a3b8" d="M276.63,-412C276.63,-412 227.37,-412 227.37,-412 221.37,-412 215.37,-406 215.37,-400 215.37,-400 215.37,-388 215.37,-388 215.37,-382 221.37,-376 227.37,-376 227.37,-376 276.63,-376 276.63,-376 282.63,-376 288.63,-382 288.63,-388 288.63,-388 288.63,-400 288.63,-400 288.63,-406 282.63,-412 276.63,-412"/>
<text xml:space="preserve" text-anchor="middle" x="252" y="-391" font-family="Helvetica,sans-Serif" font-size="10.00">toSupportRE</text>
</a>
</g>
</g>
<!-- n12&#45;&gt;n1 -->
<g id="edge29" class="edge">
<title>n12&#45;&gt;n1</title>
<path fill="none" stroke="#64748b" d="M223.89,-375.64C212.01,-366.63 199.45,-354.46 193,-340 186.48,-325.39 188.8,-319.44 193,-304 220.17,-204.08 294.88,-103.37 330.97,-58.78"/>
<polygon fill="#64748b" stroke="#64748b" points="332.72,-60.51 335.25,-53.54 328.93,-57.41 332.72,-60.51"/>
</g>
<!-- n12&#45;&gt;n2 -->
<g id="edge26" class="edge">
<title>n12&#45;&gt;n2</title>
<path fill="none" stroke="#64748b" d="M216.53,-375.52C196.78,-365.78 172.08,-353.6 151.44,-343.43"/>
<polygon fill="#64748b" stroke="#64748b" points="152.76,-341.35 145.39,-340.45 150.59,-345.74 152.76,-341.35"/>
</g>
<!-- n12&#45;&gt;n6 -->
<g id="edge27" class="edge">
<title>n12&#45;&gt;n6</title>
<path fill="none" stroke="#64748b" d="M288.81,-376.59C310.71,-366.82 338.72,-354.34 362.19,-343.87"/>
<polygon fill="#64748b" stroke="#64748b" points="363.18,-346.11 368.57,-341.03 361.18,-341.64 363.18,-346.11"/>
</g>
<!-- n12&#45;&gt;n10 -->
<g id="edge28" class="edge">
<title>n12&#45;&gt;n10</title>
<path fill="none" stroke="#64748b" d="M215.69,-375.66C201.53,-366.98 186.65,-355.08 178,-340 153.63,-297.54 155.5,-238.2 159.17,-204.7"/>
<polygon fill="#64748b" stroke="#64748b" points="161.59,-205.11 160,-197.86 156.73,-204.52 161.59,-205.11"/>
</g>
<!-- n12&#45;&gt;n11 -->
<g id="edge30" class="edge">
<title>n12&#45;&gt;n11</title>
<path fill="none" stroke="#64748b" d="M256.7,-375.7C258.95,-367.39 261.7,-357.28 264.18,-348.14"/>
<polygon fill="#64748b" stroke="#64748b" points="266.49,-348.96 265.96,-341.57 261.76,-347.68 266.49,-348.96"/>
</g>
<!-- n13 -->
<g id="node14" class="node">
<title>n13</title>
<g id="a_node14"><a xlink:href="https://github.com/statopia/statlib/blob/main/Statlib/HighDim/Regression/LassoOracle.lean#L629" xlink:title="theorem · Statlib/HighDim/Regression/LassoOracle.lean:629" target="_blank">
<path fill="#ffe6a3" stroke="#d4a017" d="M416.53,-484C416.53,-484 319.47,-484 319.47,-484 313.47,-484 307.47,-478 307.47,-472 307.47,-472 307.47,-460 307.47,-460 307.47,-454 313.47,-448 319.47,-448 319.47,-448 416.53,-448 416.53,-448 422.53,-448 428.53,-454 428.53,-460 428.53,-460 428.53,-472 428.53,-472 428.53,-478 422.53,-484 416.53,-484"/>
<text xml:space="preserve" text-anchor="middle" x="368" y="-463" font-family="Helvetica,sans-Serif" font-size="10.00">lasso_oracle_prediction</text>
</a>
</g>
</g>
<!-- n13&#45;&gt;n1 -->
<g id="edge33" class="edge">
<title>n13&#45;&gt;n1</title>
<path fill="none" stroke="#64748b" d="M388.75,-447.69C413.38,-425.64 453.1,-384.98 469,-340 474.33,-324.91 472.28,-319.66 469,-304 448.97,-208.5 392.96,-105.47 365.95,-59.53"/>
<polygon fill="#64748b" stroke="#64748b" points="368.17,-58.47 362.49,-53.7 363.95,-60.97 368.17,-58.47"/>
</g>
<!-- n13&#45;&gt;n2 -->
<g id="edge31" class="edge">
<title>n13&#45;&gt;n2</title>
<path fill="none" stroke="#64748b" d="M307.27,-451.79C275.68,-443.31 237.24,-430.38 206,-412 176.31,-394.53 148.12,-366.54 130.06,-346.62"/>
<polygon fill="#64748b" stroke="#64748b" points="132.06,-345.18 125.57,-341.58 128.41,-348.44 132.06,-345.18"/>
</g>
<!-- n13&#45;&gt;n5 -->
<g id="edge32" class="edge">
<title>n13&#45;&gt;n5</title>
<path fill="none" stroke="#64748b" d="M428.83,-464.17C513.83,-461.58 661.5,-451.36 695,-412 745.57,-352.58 710.54,-250.89 690,-204.01"/>
<polygon fill="#64748b" stroke="#64748b" points="692.32,-203.21 687.22,-197.83 687.85,-205.22 692.32,-203.21"/>
</g>
<!-- n13&#45;&gt;n9 -->
<g id="edge34" class="edge">
<title>n13&#45;&gt;n9</title>
<path fill="none" stroke="#64748b" d="M423.95,-447.52C455.74,-437.58 495.65,-425.11 528.6,-414.81"/>
<polygon fill="#64748b" stroke="#64748b" points="528.98,-417.26 534.93,-412.83 527.52,-412.58 528.98,-417.26"/>
</g>
<!-- n13&#45;&gt;n12 -->
<g id="edge35" class="edge">
<title>n13&#45;&gt;n12</title>
<path fill="none" stroke="#64748b" d="M339.03,-447.52C323.41,-438.09 304.01,-426.38 287.49,-416.41"/>
<polygon fill="#64748b" stroke="#64748b" points="289.16,-414.56 281.9,-413.04 286.63,-418.76 289.16,-414.56"/>
</g>
<!-- n14 -->
<g id="node15" class="node">
<title>n14</title>
<g id="a_node15"><a xlink:href="https://github.com/statopia/statlib/blob/main/Statlib/HighDim/Vocabulary/DesignMatrix.lean#L151" xlink:title="lemma · Statlib/HighDim/Vocabulary/DesignMatrix.lean:151" target="_blank">
<path fill="#eef2f6" stroke="#94a3b8" d="M166,-484C166,-484 136,-484 136,-484 130,-484 124,-478 124,-472 124,-472 124,-460 124,-460 124,-454 130,-448 136,-448 136,-448 166,-448 166,-448 172,-448 178,-454 178,-460 178,-460 178,-472 178,-472 178,-478 172,-484 166,-484"/>
<text xml:space="preserve" text-anchor="middle" x="151" y="-463" font-family="Helvetica,sans-Serif" font-size="10.00">toRE</text>
</a>
</g>
</g>
<!-- n14&#45;&gt;n2 -->
<g id="edge37" class="edge">
<title>n14&#45;&gt;n2</title>
<path fill="none" stroke="#64748b" d="M153.01,-447.75C154.51,-429.43 155.1,-399.87 147,-376 143.47,-365.6 137.24,-355.41 130.88,-346.79"/>
<polygon fill="#64748b" stroke="#64748b" points="132.95,-345.46 126.73,-341.43 129.08,-348.46 132.95,-345.46"/>
</g>
<!-- n14&#45;&gt;n3 -->
<g id="edge36" class="edge">
<title>n14&#45;&gt;n3</title>
<path fill="none" stroke="#64748b" d="M135.18,-447.7C127.04,-438.8 117.01,-427.82 108.21,-418.2"/>
<polygon fill="#64748b" stroke="#64748b" points="110.19,-416.73 103.66,-413.22 106.57,-420.04 110.19,-416.73"/>
</g>
<!-- n15 -->
<g id="node16" class="node">
<title>n15</title>
<g id="a_node16"><a xlink:href="https://github.com/statopia/statlib/blob/main/Statlib/HighDim/Regression/LassoOracle.lean#L645" xlink:title="theorem · Statlib/HighDim/Regression/LassoOracle.lean:645" target="_blank">
<path fill="#ffe6a3" stroke="#d4a017" stroke-width="3" d="M232.88,-556C232.88,-556 69.12,-556 69.12,-556 63.12,-556 57.12,-550 57.12,-544 57.12,-544 57.12,-532 57.12,-532 57.12,-526 63.12,-520 69.12,-520 69.12,-520 232.88,-520 232.88,-520 238.88,-520 244.88,-526 244.88,-532 244.88,-532 244.88,-544 244.88,-544 244.88,-550 238.88,-556 232.88,-556"/>
<text xml:space="preserve" text-anchor="middle" x="151" y="-535" font-family="Helvetica,sans-Serif" font-size="10.00">lasso_oracle_prediction_of_uniformRE</text>
</a>
</g>
</g>
<!-- n15&#45;&gt;n1 -->
<g id="edge40" class="edge">
<title>n15&#45;&gt;n1</title>
<path fill="none" stroke="#64748b" d="M114.74,-518.59C75.05,-495.56 17,-452.12 17,-395 17,-395 17,-395 17,-177 17,-134.81 17.6,-115.02 50,-88 89.26,-55.27 239.92,-41.78 312.06,-37.12"/>
<polygon fill="#64748b" stroke="#64748b" points="312.11,-39.57 318.94,-36.68 311.8,-34.68 312.11,-39.57"/>
</g>
<!-- n15&#45;&gt;n3 -->
<g id="edge38" class="edge">
<title>n15&#45;&gt;n3</title>
<path fill="none" stroke="#64748b" d="M136.59,-518.68C129.36,-508.82 120.91,-496.22 115,-484 105.03,-463.39 97.53,-438.41 92.82,-420.16"/>
<polygon fill="#64748b" stroke="#64748b" points="95.29,-419.96 91.21,-413.76 90.54,-421.15 95.29,-419.96"/>
</g>
<!-- n15&#45;&gt;n5 -->
<g id="edge39" class="edge">
<title>n15&#45;&gt;n5</title>
<path fill="none" stroke="#64748b" d="M246.12,-533.14C410.19,-523.88 729,-493.23 729,-395 729,-395 729,-395 729,-321 729,-280.73 726.92,-269.4 712,-232 708.01,-222 702.06,-211.86 696.25,-203.16"/>
<polygon fill="#64748b" stroke="#64748b" points="698.31,-201.83 692.31,-197.47 694.28,-204.62 698.31,-201.83"/>
</g>
<!-- n15&#45;&gt;n13 -->
<g id="edge41" class="edge">
<title>n15&#45;&gt;n13</title>
<path fill="none" stroke="#64748b" d="M208.3,-518.52C238.38,-508.81 275.28,-496.91 306.03,-486.99"/>
<polygon fill="#64748b" stroke="#64748b" points="306.77,-489.33 312.68,-484.85 305.26,-484.66 306.77,-489.33"/>
</g>
<!-- n15&#45;&gt;n14 -->
<g id="edge42" class="edge">
<title>n15&#45;&gt;n14</title>
<path fill="none" stroke="#64748b" d="M151,-518.61C151,-510.59 151,-501.05 151,-492.37"/>
<polygon fill="#64748b" stroke="#64748b" points="153.45,-492.58 151,-485.58 148.55,-492.58 153.45,-492.58"/>
</g>
</g>
</svg>
