<?xml version="1.0" encoding="UTF-8" standalone="no"?>
<!DOCTYPE svg PUBLIC "-//W3C//DTD SVG 1.1//EN"
 "http://www.w3.org/Graphics/SVG/1.1/DTD/svg11.dtd">
<!-- Generated by graphviz version 15.0.0 (20260523.1842)
 -->
<!-- Title: lasso_oracle_support_l2_of_uniformRE Pages: 1 -->
<svg width="774pt" height="698pt"
 viewBox="0.00 0.00 774.00 698.00" xmlns="http://www.w3.org/2000/svg" xmlns:xlink="http://www.w3.org/1999/xlink">
<g id="graph0" class="graph" transform="scale(1 1) rotate(0) translate(4 694)">
<title>lasso_oracle_support_l2_of_uniformRE</title>
<polygon fill="white" stroke="none" points="-4,4 -4,-694 770,-694 770,4 -4,4"/>
<text xml:space="preserve" text-anchor="middle" x="383" y="-673.4" font-family="Helvetica,sans-Serif" font-size="14.00">Proof narrative — lasso_oracle_support_l2_of_uniformRE &#160;(17 decls)</text>
<g id="clust1" class="cluster">
<title>cluster_0</title>
<path fill="none" stroke="#cbd5e1" stroke-dasharray="5,2" d="M20,-8C20,-8 746,-8 746,-8 752,-8 758,-14 758,-20 758,-20 758,-645.2 758,-645.2 758,-651.2 752,-657.2 746,-657.2 746,-657.2 20,-657.2 20,-657.2 14,-657.2 8,-651.2 8,-645.2 8,-645.2 8,-20 8,-20 8,-14 14,-8 20,-8"/>
<text xml:space="preserve" text-anchor="middle" x="383" y="-643.3" font-family="Helvetica,sans-Serif" font-size="11.00">HighDim</text>
</g>
<!-- n0 -->
<g id="node1" class="node">
<title>n0</title>
<g id="a_node1"><a xlink:href="https://github.com/statopia/statlib/blob/main/Statlib/HighDim/Vocabulary/Sparse.lean#L49" xlink:title="def · Statlib/HighDim/Vocabulary/Sparse.lean:49" target="_blank">
<path fill="#d6e9ff" stroke="#3b82f6" d="M402.01,-268C402.01,-268 369.99,-268 369.99,-268 363.99,-268 357.99,-262 357.99,-256 357.99,-256 357.99,-244 357.99,-244 357.99,-238 363.99,-232 369.99,-232 369.99,-232 402.01,-232 402.01,-232 408.01,-232 414.01,-238 414.01,-244 414.01,-244 414.01,-256 414.01,-256 414.01,-262 408.01,-268 402.01,-268"/>
<text xml:space="preserve" text-anchor="middle" x="386" y="-247" font-family="Helvetica,sans-Serif" font-size="10.00">IsInCone</text>
</a>
</g>
</g>
<!-- n1 -->
<g id="node2" class="node">
<title>n1</title>
<g id="a_node2"><a xlink:href="https://github.com/statopia/statlib/blob/main/Statlib/HighDim/Vocabulary/Norms.lean#L13" xlink:title="noncomputable def · Statlib/HighDim/Vocabulary/Norms.lean:13" target="_blank">
<path fill="#d6e9ff" stroke="#3b82f6" d="M357.23,-52C357.23,-52 320.77,-52 320.77,-52 314.77,-52 308.77,-46 308.77,-40 308.77,-40 308.77,-28 308.77,-28 308.77,-22 314.77,-16 320.77,-16 320.77,-16 357.23,-16 357.23,-16 363.23,-16 369.23,-22 369.23,-28 369.23,-28 369.23,-40 369.23,-40 369.23,-46 363.23,-52 357.23,-52"/>
<text xml:space="preserve" text-anchor="middle" x="339" y="-31" font-family="Helvetica,sans-Serif" font-size="10.00">l2NormSq</text>
</a>
</g>
</g>
<!-- n2 -->
<g id="node3" class="node">
<title>n2</title>
<g id="a_node3"><a xlink:href="https://github.com/statopia/statlib/blob/main/Statlib/HighDim/Vocabulary/DesignMatrix.lean#L65" xlink:title="structure · Statlib/HighDim/Vocabulary/DesignMatrix.lean:65" target="_blank">
<path fill="#e8dcff" stroke="#8b5cf6" d="M111.84,-340C111.84,-340 68.16,-340 68.16,-340 62.16,-340 56.16,-334 56.16,-328 56.16,-328 56.16,-316 56.16,-316 56.16,-310 62.16,-304 68.16,-304 68.16,-304 111.84,-304 111.84,-304 117.84,-304 123.84,-310 123.84,-316 123.84,-316 123.84,-328 123.84,-328 123.84,-334 117.84,-340 111.84,-340"/>
<text xml:space="preserve" text-anchor="middle" x="90" y="-319" font-family="Helvetica,sans-Serif" font-size="10.00">SatisfiesRE</text>
</a>
</g>
</g>
<!-- n2&#45;&gt;n0 -->
<g id="edge1" class="edge">
<title>n2&#45;&gt;n0</title>
<path fill="none" stroke="#64748b" d="M124.24,-312.9C180.52,-299.59 292.06,-273.22 349.67,-259.59"/>
<polygon fill="#64748b" stroke="#64748b" points="350.05,-262.02 356.29,-258.03 348.92,-257.25 350.05,-262.02"/>
</g>
<!-- n2&#45;&gt;n1 -->
<g id="edge2" class="edge">
<title>n2&#45;&gt;n1</title>
<path fill="none" stroke="#64748b" d="M81.83,-303.82C68.46,-273 45.77,-207.15 71,-160 116.21,-75.53 237.93,-47.79 300.58,-38.95"/>
<polygon fill="#64748b" stroke="#64748b" points="300.53,-41.43 307.15,-38.08 299.89,-36.57 300.53,-41.43"/>
</g>
<!-- n3 -->
<g id="node4" class="node">
<title>n3</title>
<g id="a_node4"><a xlink:href="https://github.com/statopia/statlib/blob/main/Statlib/HighDim/Vocabulary/DesignMatrix.lean#L99" xlink:title="structure · Statlib/HighDim/Vocabulary/DesignMatrix.lean:99" target="_blank">
<path fill="#e8dcff" stroke="#8b5cf6" d="M106.34,-412C106.34,-412 27.66,-412 27.66,-412 21.66,-412 15.66,-406 15.66,-400 15.66,-400 15.66,-388 15.66,-388 15.66,-382 21.66,-376 27.66,-376 27.66,-376 106.34,-376 106.34,-376 112.34,-376 118.34,-382 118.34,-388 118.34,-388 118.34,-400 118.34,-400 118.34,-406 112.34,-412 106.34,-412"/>
<text xml:space="preserve" text-anchor="middle" x="67" y="-391" font-family="Helvetica,sans-Serif" font-size="10.00">SatisfiesUniformRE</text>
</a>
</g>
</g>
<!-- n3&#45;&gt;n0 -->
<g id="edge3" class="edge">
<title>n3&#45;&gt;n0</title>
<path fill="none" stroke="#64748b" d="M55.4,-375.85C43.72,-356.23 29.7,-324.21 47,-304 85.63,-258.86 269.9,-251.89 349.37,-251.01"/>
<polygon fill="#64748b" stroke="#64748b" points="349.14,-253.46 356.12,-250.95 349.1,-248.56 349.14,-253.46"/>
</g>
<!-- n3&#45;&gt;n1 -->
<g id="edge4" class="edge">
<title>n3&#45;&gt;n1</title>
<path fill="none" stroke="#64748b" d="M54.43,-375.64C47.74,-365.66 39.91,-352.62 35,-340 20.35,-302.39 17,-291.36 17,-251 17,-251 17,-251 17,-177 17,-54.58 214.26,-36.8 299.99,-34.86"/>
<polygon fill="#64748b" stroke="#64748b" points="299.95,-37.31 306.9,-34.74 299.86,-32.41 299.95,-37.31"/>
</g>
<!-- n3&#45;&gt;n2 -->
<g id="edge5" class="edge">
<title>n3&#45;&gt;n2</title>
<path fill="none" stroke="#64748b" d="M72.69,-375.7C75.41,-367.39 78.74,-357.28 81.74,-348.14"/>
<polygon fill="#64748b" stroke="#64748b" points="84.05,-348.96 83.91,-341.54 79.39,-347.43 84.05,-348.96"/>
</g>
<!-- n4 -->
<g id="node5" class="node">
<title>n4</title>
<g id="a_node5"><a xlink:href="https://github.com/statopia/statlib/blob/main/Statlib/HighDim/Regression/LassoOracle.lean#L48" xlink:title="noncomputable def · Statlib/HighDim/Regression/LassoOracle.lean:48" target="_blank">
<path fill="#d6e9ff" stroke="#3b82f6" d="M607.45,-124C607.45,-124 576.55,-124 576.55,-124 570.55,-124 564.55,-118 564.55,-112 564.55,-112 564.55,-100 564.55,-100 564.55,-94 570.55,-88 576.55,-88 576.55,-88 607.45,-88 607.45,-88 613.45,-88 619.45,-94 619.45,-100 619.45,-100 619.45,-112 619.45,-112 619.45,-118 613.45,-124 607.45,-124"/>
<text xml:space="preserve" text-anchor="middle" x="592" y="-103" font-family="Helvetica,sans-Serif" font-size="10.00">lassoObj</text>
</a>
</g>
</g>
<!-- n4&#45;&gt;n1 -->
<g id="edge6" class="edge">
<title>n4&#45;&gt;n1</title>
<path fill="none" stroke="#64748b" d="M564.43,-94.28C558.4,-92.09 552.01,-89.88 546,-88 488.02,-69.92 419.54,-53.29 377.7,-43.65"/>
<polygon fill="#64748b" stroke="#64748b" points="378.29,-41.27 370.92,-42.09 377.19,-46.04 378.29,-41.27"/>
</g>
<!-- n5 -->
<g id="node6" class="node">
<title>n5</title>
<g id="a_node6"><a xlink:href="https://github.com/statopia/statlib/blob/main/Statlib/HighDim/Regression/LassoOracle.lean#L53" xlink:title="def · Statlib/HighDim/Regression/LassoOracle.lean:53" target="_blank">
<path fill="#d6e9ff" stroke="#3b82f6" d="M720.3,-196C720.3,-196 657.7,-196 657.7,-196 651.7,-196 645.7,-190 645.7,-184 645.7,-184 645.7,-172 645.7,-172 645.7,-166 651.7,-160 657.7,-160 657.7,-160 720.3,-160 720.3,-160 726.3,-160 732.3,-166 732.3,-172 732.3,-172 732.3,-184 732.3,-184 732.3,-190 726.3,-196 720.3,-196"/>
<text xml:space="preserve" text-anchor="middle" x="689" y="-175" font-family="Helvetica,sans-Serif" font-size="10.00">IsLassoSolution</text>
</a>
</g>
</g>
<!-- n5&#45;&gt;n4 -->
<g id="edge7" class="edge">
<title>n5&#45;&gt;n4</title>
<path fill="none" stroke="#64748b" d="M665.02,-159.7C652.31,-150.53 636.56,-139.16 622.94,-129.33"/>
<polygon fill="#64748b" stroke="#64748b" points="624.38,-127.34 617.27,-125.23 621.51,-131.32 624.38,-127.34"/>
</g>
<!-- n6 -->
<g id="node7" class="node">
<title>n6</title>
<g id="a_node7"><a xlink:href="https://github.com/statopia/statlib/blob/main/Statlib/HighDim/Vocabulary/DesignMatrix.lean#L50" xlink:title="structure · Statlib/HighDim/Vocabulary/DesignMatrix.lean:50" target="_blank">
<path fill="#e8dcff" stroke="#8b5cf6" d="M468.35,-340C468.35,-340 389.65,-340 389.65,-340 383.65,-340 377.65,-334 377.65,-328 377.65,-328 377.65,-316 377.65,-316 377.65,-310 383.65,-304 389.65,-304 389.65,-304 468.35,-304 468.35,-304 474.35,-304 480.35,-310 480.35,-316 480.35,-316 480.35,-328 480.35,-328 480.35,-334 474.35,-340 468.35,-340"/>
<text xml:space="preserve" text-anchor="middle" x="429" y="-319" font-family="Helvetica,sans-Serif" font-size="10.00">SatisfiesSupportRE</text>
</a>
</g>
</g>
<!-- n6&#45;&gt;n0 -->
<g id="edge8" class="edge">
<title>n6&#45;&gt;n0</title>
<path fill="none" stroke="#64748b" d="M418.37,-303.7C413.11,-295.14 406.67,-284.66 400.93,-275.3"/>
<polygon fill="#64748b" stroke="#64748b" points="403.05,-274.08 397.3,-269.39 398.88,-276.64 403.05,-274.08"/>
</g>
<!-- n6&#45;&gt;n1 -->
<g id="edge9" class="edge">
<title>n6&#45;&gt;n1</title>
<path fill="none" stroke="#64748b" d="M429.53,-303.68C429.7,-285.56 428.85,-256.4 423,-232 407.39,-166.85 372.14,-95.82 352.63,-59.46"/>
<polygon fill="#64748b" stroke="#64748b" points="354.93,-58.56 349.44,-53.57 350.62,-60.89 354.93,-58.56"/>
</g>
<!-- n7 -->
<g id="node8" class="node">
<title>n7</title>
<g id="a_node8"><a xlink:href="https://github.com/statopia/statlib/blob/main/Statlib/HighDim/Regression/LassoOracle.lean#L65" xlink:title="lemma · Statlib/HighDim/Regression/LassoOracle.lean:65" target="_blank">
<path fill="#eef2f6" stroke="#94a3b8" d="M638.03,-268C638.03,-268 545.97,-268 545.97,-268 539.97,-268 533.97,-262 533.97,-256 533.97,-256 533.97,-244 533.97,-244 533.97,-238 539.97,-232 545.97,-232 545.97,-232 638.03,-232 638.03,-232 644.03,-232 650.03,-238 650.03,-244 650.03,-244 650.03,-256 650.03,-256 650.03,-262 644.03,-268 638.03,-268"/>
<text xml:space="preserve" text-anchor="middle" x="592" y="-247" font-family="Helvetica,sans-Serif" font-size="10.00">lasso_basic_inequality</text>
</a>
</g>
</g>
<!-- n7&#45;&gt;n1 -->
<g id="edge11" class="edge">
<title>n7&#45;&gt;n1</title>
<path fill="none" stroke="#64748b" d="M589.15,-231.61C582.84,-198.63 564.52,-126.86 520,-88 480.01,-53.1 418.09,-41.15 378.05,-37.07"/>
<polygon fill="#64748b" stroke="#64748b" points="378.3,-34.64 371.11,-36.44 377.86,-39.52 378.3,-34.64"/>
</g>
<!-- n7&#45;&gt;n4 -->
<g id="edge12" class="edge">
<title>n7&#45;&gt;n4</title>
<path fill="none" stroke="#64748b" d="M592,-231.59C592,-206.76 592,-161.01 592,-132.4"/>
<polygon fill="#64748b" stroke="#64748b" points="594.45,-132.62 592,-125.62 589.55,-132.62 594.45,-132.62"/>
</g>
<!-- n7&#45;&gt;n5 -->
<g id="edge10" class="edge">
<title>n7&#45;&gt;n5</title>
<path fill="none" stroke="#64748b" d="M615.98,-231.7C628.69,-222.53 644.44,-211.16 658.06,-201.33"/>
<polygon fill="#64748b" stroke="#64748b" points="659.49,-203.32 663.73,-197.23 656.62,-199.34 659.49,-203.32"/>
</g>
<!-- n8 -->
<g id="node9" class="node">
<title>n8</title>
<g id="a_node9"><a xlink:href="https://github.com/statopia/statlib/blob/main/Statlib/HighDim/Regression/LassoOracle.lean#L257" xlink:title="lemma · Statlib/HighDim/Regression/LassoOracle.lean:257" target="_blank">
<path fill="#eef2f6" stroke="#94a3b8" d="M618.09,-340C618.09,-340 529.91,-340 529.91,-340 523.91,-340 517.91,-334 517.91,-328 517.91,-328 517.91,-316 517.91,-316 517.91,-310 523.91,-304 529.91,-304 529.91,-304 618.09,-304 618.09,-304 624.09,-304 630.09,-310 630.09,-316 630.09,-316 630.09,-328 630.09,-328 630.09,-334 624.09,-340 618.09,-340"/>
<text xml:space="preserve" text-anchor="middle" x="574" y="-319" font-family="Helvetica,sans-Serif" font-size="10.00">lasso_cone_condition</text>
</a>
</g>
</g>
<!-- n8&#45;&gt;n0 -->
<g id="edge14" class="edge">
<title>n8&#45;&gt;n0</title>
<path fill="none" stroke="#64748b" d="M527.04,-303.52C494.5,-291.4 451.81,-275.5 421.96,-264.39"/>
<polygon fill="#64748b" stroke="#64748b" points="423.11,-262.2 415.7,-262.06 421.4,-266.8 423.11,-262.2"/>
</g>
<!-- n8&#45;&gt;n1 -->
<g id="edge15" class="edge">
<title>n8&#45;&gt;n1</title>
<path fill="none" stroke="#64748b" d="M550.23,-303.69C537.6,-293.93 522.2,-281.08 510,-268 442.88,-196.02 440.25,-166.59 381,-88 373.68,-78.29 365.41,-67.76 358.15,-58.66"/>
<polygon fill="#64748b" stroke="#64748b" points="360.07,-57.14 353.78,-53.2 356.24,-60.2 360.07,-57.14"/>
</g>
<!-- n8&#45;&gt;n5 -->
<g id="edge13" class="edge">
<title>n8&#45;&gt;n5</title>
<path fill="none" stroke="#64748b" d="M613.83,-303.59C629.77,-294.9 647.13,-283 659,-268 673.56,-249.59 681.23,-223.74 685.16,-204.64"/>
<polygon fill="#64748b" stroke="#64748b" points="687.54,-205.21 686.43,-197.88 682.73,-204.31 687.54,-205.21"/>
</g>
<!-- n8&#45;&gt;n7 -->
<g id="edge16" class="edge">
<title>n8&#45;&gt;n7</title>
<path fill="none" stroke="#64748b" d="M578.45,-303.7C580.59,-295.39 583.19,-285.28 585.54,-276.14"/>
<polygon fill="#64748b" stroke="#64748b" points="587.85,-276.96 587.22,-269.57 583.11,-275.74 587.85,-276.96"/>
</g>
<!-- n9 -->
<g id="node10" class="node">
<title>n9</title>
<g id="a_node10"><a xlink:href="https://github.com/statopia/statlib/blob/main/Statlib/HighDim/Regression/LassoOracle.lean#L416" xlink:title="theorem · Statlib/HighDim/Regression/LassoOracle.lean:416" target="_blank">
<path fill="#ffe6a3" stroke="#d4a017" d="M655.89,-412C655.89,-412 492.11,-412 492.11,-412 486.11,-412 480.11,-406 480.11,-400 480.11,-400 480.11,-388 480.11,-388 480.11,-382 486.11,-376 492.11,-376 492.11,-376 655.89,-376 655.89,-376 661.89,-376 667.89,-382 667.89,-388 667.89,-388 667.89,-400 667.89,-400 667.89,-406 661.89,-412 655.89,-412"/>
<text xml:space="preserve" text-anchor="middle" x="574" y="-391" font-family="Helvetica,sans-Serif" font-size="10.00">lasso_oracle_prediction_of_supportRE</text>
</a>
</g>
</g>
<!-- n9&#45;&gt;n0 -->
<g id="edge20" class="edge">
<title>n9&#45;&gt;n0</title>
<path fill="none" stroke="#64748b" d="M548.27,-375.6C535.45,-366.09 520.31,-353.51 509,-340 497.25,-325.96 502.15,-316.73 489,-304 469.96,-285.56 443.22,-272.06 421.76,-263.3"/>
<polygon fill="#64748b" stroke="#64748b" points="422.93,-261.13 415.52,-260.84 421.14,-265.68 422.93,-261.13"/>
</g>
<!-- n9&#45;&gt;n1 -->
<g id="edge19" class="edge">
<title>n9&#45;&gt;n1</title>
<path fill="none" stroke="#64748b" d="M605.92,-375.54C618.69,-366.72 632,-354.73 639,-340 645.86,-325.55 648.46,-316.91 639,-304 607.59,-261.14 567.78,-299.51 525,-268 509.32,-256.45 511.15,-247.97 500,-232 455.26,-167.9 451.1,-146.28 399,-88 389.49,-77.36 377.95,-66.73 367.55,-57.81"/>
<polygon fill="#64748b" stroke="#64748b" points="369.33,-56.11 362.4,-53.47 366.17,-59.85 369.33,-56.11"/>
</g>
<!-- n9&#45;&gt;n5 -->
<g id="edge18" class="edge">
<title>n9&#45;&gt;n5</title>
<path fill="none" stroke="#64748b" d="M618.74,-375.59C634.77,-367.18 651.47,-355.48 662,-340 689.95,-298.92 692.28,-238.59 690.97,-204.65"/>
<polygon fill="#64748b" stroke="#64748b" points="693.42,-204.59 690.63,-197.72 688.53,-204.84 693.42,-204.59"/>
</g>
<!-- n9&#45;&gt;n6 -->
<g id="edge17" class="edge">
<title>n9&#45;&gt;n6</title>
<path fill="none" stroke="#64748b" d="M537.78,-375.52C517.99,-365.96 493.33,-354.05 472.49,-344"/>
<polygon fill="#64748b" stroke="#64748b" points="473.74,-341.88 466.37,-341.04 471.61,-346.29 473.74,-341.88"/>
</g>
<!-- n9&#45;&gt;n7 -->
<g id="edge22" class="edge">
<title>n9&#45;&gt;n7</title>
<path fill="none" stroke="#64748b" d="M616.03,-375.52C630.78,-367.1 645.72,-355.41 654,-340 661.57,-325.9 660.7,-318.53 654,-304 648.46,-291.97 638.69,-281.66 628.53,-273.41"/>
<polygon fill="#64748b" stroke="#64748b" points="630.08,-271.52 623.03,-269.22 627.11,-275.41 630.08,-271.52"/>
</g>
<!-- n9&#45;&gt;n8 -->
<g id="edge21" class="edge">
<title>n9&#45;&gt;n8</title>
<path fill="none" stroke="#64748b" d="M574,-375.7C574,-367.47 574,-357.48 574,-348.42"/>
<polygon fill="#64748b" stroke="#64748b" points="576.45,-348.62 574,-341.62 571.55,-348.62 576.45,-348.62"/>
</g>
<!-- n10 -->
<g id="node11" class="node">
<title>n10</title>
<g id="a_node11"><a xlink:href="https://github.com/statopia/statlib/blob/main/Statlib/HighDim/Regression/LassoOracle.lean#L910" xlink:title="theorem · Statlib/HighDim/Regression/LassoOracle.lean:910" target="_blank">
<path fill="#ffe6a3" stroke="#d4a017" d="M512.56,-484C512.56,-484 345.44,-484 345.44,-484 339.44,-484 333.44,-478 333.44,-472 333.44,-472 333.44,-460 333.44,-460 333.44,-454 339.44,-448 345.44,-448 345.44,-448 512.56,-448 512.56,-448 518.56,-448 524.56,-454 524.56,-460 524.56,-460 524.56,-472 524.56,-472 524.56,-478 518.56,-484 512.56,-484"/>
<text xml:space="preserve" text-anchor="middle" x="429" y="-463" font-family="Helvetica,sans-Serif" font-size="10.00">lasso_oracle_support_l2_of_supportRE</text>
</a>
</g>
</g>
<!-- n10&#45;&gt;n0 -->
<g id="edge25" class="edge">
<title>n10&#45;&gt;n0</title>
<path fill="none" stroke="#64748b" d="M417.59,-447.71C402.95,-424.41 378.35,-381.08 369,-340 364.13,-318.58 369.63,-294.06 375.63,-276.18"/>
<polygon fill="#64748b" stroke="#64748b" points="377.83,-277.31 377.88,-269.89 373.22,-275.66 377.83,-277.31"/>
</g>
<!-- n10&#45;&gt;n1 -->
<g id="edge27" class="edge">
<title>n10&#45;&gt;n1</title>
<path fill="none" stroke="#64748b" d="M408.58,-447.54C382.02,-422.77 339,-374.66 339,-323 339,-323 339,-323 339,-177 339,-136.34 339,-89.13 339,-60.68"/>
<polygon fill="#64748b" stroke="#64748b" points="341.45,-61 339,-54 336.55,-61 341.45,-61"/>
</g>
<!-- n10&#45;&gt;n5 -->
<g id="edge24" class="edge">
<title>n10&#45;&gt;n5</title>
<path fill="none" stroke="#64748b" d="M524.8,-456C585.56,-448.2 656.47,-434.54 677,-412 729.5,-354.38 709.85,-251.72 696.86,-204.3"/>
<polygon fill="#64748b" stroke="#64748b" points="699.29,-203.89 695.02,-197.83 694.57,-205.23 699.29,-203.89"/>
</g>
<!-- n10&#45;&gt;n6 -->
<g id="edge23" class="edge">
<title>n10&#45;&gt;n6</title>
<path fill="none" stroke="#64748b" d="M429,-447.59C429,-422.76 429,-377.01 429,-348.4"/>
<polygon fill="#64748b" stroke="#64748b" points="431.45,-348.62 429,-341.62 426.55,-348.62 431.45,-348.62"/>
</g>
<!-- n10&#45;&gt;n8 -->
<g id="edge26" class="edge">
<title>n10&#45;&gt;n8</title>
<path fill="none" stroke="#64748b" d="M433.51,-447.65C439.34,-428.14 451.17,-396.52 471,-376 483.85,-362.71 500.75,-352.13 517.13,-344.02"/>
<polygon fill="#64748b" stroke="#64748b" points="517.97,-346.34 523.24,-341.12 515.87,-341.91 517.97,-346.34"/>
</g>
<!-- n10&#45;&gt;n9 -->
<g id="edge28" class="edge">
<title>n10&#45;&gt;n9</title>
<path fill="none" stroke="#64748b" d="M465.22,-447.52C485.01,-437.96 509.67,-426.05 530.51,-416"/>
<polygon fill="#64748b" stroke="#64748b" points="531.39,-418.29 536.63,-413.04 529.26,-413.88 531.39,-418.29"/>
</g>
<!-- n11 -->
<g id="node12" class="node">
<title>n11</title>
<g id="a_node12"><a xlink:href="https://github.com/statopia/statlib/blob/main/Statlib/HighDim/Vocabulary/Sparse.lean#L54" xlink:title="lemma · Statlib/HighDim/Vocabulary/Sparse.lean:54" target="_blank">
<path fill="#eef2f6" stroke="#94a3b8" d="M194.03,-196C194.03,-196 91.97,-196 91.97,-196 85.97,-196 79.97,-190 79.97,-184 79.97,-184 79.97,-172 79.97,-172 79.97,-166 85.97,-160 91.97,-160 91.97,-160 194.03,-160 194.03,-160 200.03,-160 206.03,-166 206.03,-172 206.03,-172 206.03,-184 206.03,-184 206.03,-190 200.03,-196 194.03,-196"/>
<text xml:space="preserve" text-anchor="middle" x="143" y="-175" font-family="Helvetica,sans-Serif" font-size="10.00">support_l2_le_l2NormSq</text>
</a>
</g>
</g>
<!-- n11&#45;&gt;n1 -->
<g id="edge29" class="edge">
<title>n11&#45;&gt;n1</title>
<path fill="none" stroke="#64748b" d="M154.51,-159.58C168.18,-140.01 192.6,-108.33 220,-88 244.4,-69.9 275.95,-56.2 300.44,-47.27"/>
<polygon fill="#64748b" stroke="#64748b" points="301.25,-49.58 307.02,-44.93 299.61,-44.97 301.25,-49.58"/>
</g>
<!-- n12 -->
<g id="node13" class="node">
<title>n12</title>
<g id="a_node13"><a xlink:href="https://github.com/statopia/statlib/blob/main/Statlib/HighDim/Vocabulary/DesignMatrix.lean#L82" xlink:title="structure · Statlib/HighDim/Vocabulary/DesignMatrix.lean:82" target="_blank">
<path fill="#e8dcff" stroke="#8b5cf6" d="M307.86,-340C307.86,-340 194.14,-340 194.14,-340 188.14,-340 182.14,-334 182.14,-328 182.14,-328 182.14,-316 182.14,-316 182.14,-310 188.14,-304 194.14,-304 194.14,-304 307.86,-304 307.86,-304 313.86,-304 319.86,-310 319.86,-316 319.86,-316 319.86,-328 319.86,-328 319.86,-334 313.86,-340 307.86,-340"/>
<text xml:space="preserve" text-anchor="middle" x="251" y="-319" font-family="Helvetica,sans-Serif" font-size="10.00">SatisfiesUniformSupportRE</text>
</a>
</g>
</g>
<!-- n12&#45;&gt;n0 -->
<g id="edge30" class="edge">
<title>n12&#45;&gt;n0</title>
<path fill="none" stroke="#64748b" d="M284.72,-303.52C304.66,-293.18 329.91,-280.08 350.2,-269.56"/>
<polygon fill="#64748b" stroke="#64748b" points="351.29,-271.76 356.38,-266.36 349.03,-267.41 351.29,-271.76"/>
</g>
<!-- n12&#45;&gt;n1 -->
<g id="edge31" class="edge">
<title>n12&#45;&gt;n1</title>
<path fill="none" stroke="#64748b" d="M256.37,-303.54C271.35,-254.86 313.63,-117.46 331.2,-60.37"/>
<polygon fill="#64748b" stroke="#64748b" points="333.54,-61.09 333.25,-53.68 328.85,-59.65 333.54,-61.09"/>
</g>
<!-- n13 -->
<g id="node14" class="node">
<title>n13</title>
<g id="a_node14"><a xlink:href="https://github.com/statopia/statlib/blob/main/Statlib/HighDim/Vocabulary/DesignMatrix.lean#L110" xlink:title="lemma · Statlib/HighDim/Vocabulary/DesignMatrix.lean:110" target="_blank">
<path fill="#eef2f6" stroke="#94a3b8" d="M257.63,-412C257.63,-412 208.37,-412 208.37,-412 202.37,-412 196.37,-406 196.37,-400 196.37,-400 196.37,-388 196.37,-388 196.37,-382 202.37,-376 208.37,-376 208.37,-376 257.63,-376 257.63,-376 263.63,-376 269.63,-382 269.63,-388 269.63,-388 269.63,-400 269.63,-400 269.63,-406 263.63,-412 257.63,-412"/>
<text xml:space="preserve" text-anchor="middle" x="233" y="-391" font-family="Helvetica,sans-Serif" font-size="10.00">toSupportRE</text>
</a>
</g>
</g>
<!-- n13&#45;&gt;n1 -->
<g id="edge35" class="edge">
<title>n13&#45;&gt;n1</title>
<path fill="none" stroke="#64748b" d="M204.11,-375.5C192.12,-366.53 179.51,-354.44 173,-340 166.42,-325.41 168.63,-319.39 173,-304 201.64,-203.07 280.09,-102.86 317.97,-58.59"/>
<polygon fill="#64748b" stroke="#64748b" points="319.76,-60.26 322.49,-53.37 316.05,-57.06 319.76,-60.26"/>
</g>
<!-- n13&#45;&gt;n2 -->
<g id="edge32" class="edge">
<title>n13&#45;&gt;n2</title>
<path fill="none" stroke="#64748b" d="M197.28,-375.52C177.39,-365.78 152.52,-353.6 131.73,-343.43"/>
<polygon fill="#64748b" stroke="#64748b" points="133,-341.32 125.64,-340.44 130.85,-345.72 133,-341.32"/>
</g>
<!-- n13&#45;&gt;n6 -->
<g id="edge33" class="edge">
<title>n13&#45;&gt;n6</title>
<path fill="none" stroke="#64748b" d="M269.87,-379.83C298.71,-369.53 339.33,-355.03 372.31,-343.25"/>
<polygon fill="#64748b" stroke="#64748b" points="372.89,-345.64 378.65,-340.98 371.24,-341.03 372.89,-345.64"/>
</g>
<!-- n13&#45;&gt;n11 -->
<g id="edge34" class="edge">
<title>n13&#45;&gt;n11</title>
<path fill="none" stroke="#64748b" d="M196.21,-375.76C181.86,-367.1 166.78,-355.18 158,-340 133.49,-297.61 135.42,-238.25 139.13,-204.72"/>
<polygon fill="#64748b" stroke="#64748b" points="141.55,-205.13 139.97,-197.88 136.69,-204.53 141.55,-205.13"/>
</g>
<!-- n13&#45;&gt;n12 -->
<g id="edge36" class="edge">
<title>n13&#45;&gt;n12</title>
<path fill="none" stroke="#64748b" d="M237.45,-375.7C239.59,-367.39 242.19,-357.28 244.54,-348.14"/>
<polygon fill="#64748b" stroke="#64748b" points="246.85,-348.96 246.22,-341.57 242.11,-347.74 246.85,-348.96"/>
</g>
<!-- n14 -->
<g id="node15" class="node">
<title>n14</title>
<g id="a_node15"><a xlink:href="https://github.com/statopia/statlib/blob/main/Statlib/HighDim/Regression/LassoOracle.lean#L965" xlink:title="theorem · Statlib/HighDim/Regression/LassoOracle.lean:965" target="_blank">
<path fill="#ffe6a3" stroke="#d4a017" d="M283.2,-556C283.2,-556 182.8,-556 182.8,-556 176.8,-556 170.8,-550 170.8,-544 170.8,-544 170.8,-532 170.8,-532 170.8,-526 176.8,-520 182.8,-520 182.8,-520 283.2,-520 283.2,-520 289.2,-520 295.2,-526 295.2,-532 295.2,-532 295.2,-544 295.2,-544 295.2,-550 289.2,-556 283.2,-556"/>
<text xml:space="preserve" text-anchor="middle" x="233" y="-535" font-family="Helvetica,sans-Serif" font-size="10.00">lasso_oracle_support_l2</text>
</a>
</g>
</g>
<!-- n14&#45;&gt;n2 -->
<g id="edge37" class="edge">
<title>n14&#45;&gt;n2</title>
<path fill="none" stroke="#64748b" d="M223.55,-519.51C206.98,-489.32 171.01,-425.88 135,-376 127.72,-365.92 119.02,-355.37 111.21,-346.36"/>
<polygon fill="#64748b" stroke="#64748b" points="113.17,-344.89 106.71,-341.24 109.49,-348.12 113.17,-344.89"/>
</g>
<!-- n14&#45;&gt;n5 -->
<g id="edge38" class="edge">
<title>n14&#45;&gt;n5</title>
<path fill="none" stroke="#64748b" d="M295.57,-532.29C428.91,-520.54 729,-484.18 729,-395 729,-395 729,-395 729,-321 729,-278.81 712.44,-232.11 700.63,-204.19"/>
<polygon fill="#64748b" stroke="#64748b" points="702.92,-203.32 697.89,-197.87 698.43,-205.27 702.92,-203.32"/>
</g>
<!-- n14&#45;&gt;n10 -->
<g id="edge39" class="edge">
<title>n14&#45;&gt;n10</title>
<path fill="none" stroke="#64748b" d="M281.95,-519.52C309.42,-509.71 343.81,-497.43 372.42,-487.21"/>
<polygon fill="#64748b" stroke="#64748b" points="373.14,-489.55 378.91,-484.89 371.49,-484.94 373.14,-489.55"/>
</g>
<!-- n14&#45;&gt;n13 -->
<g id="edge40" class="edge">
<title>n14&#45;&gt;n13</title>
<path fill="none" stroke="#64748b" d="M233,-519.59C233,-494.76 233,-449.01 233,-420.4"/>
<polygon fill="#64748b" stroke="#64748b" points="235.45,-420.62 233,-413.62 230.55,-420.62 235.45,-420.62"/>
</g>
<!-- n15 -->
<g id="node16" class="node">
<title>n15</title>
<g id="a_node16"><a xlink:href="https://github.com/statopia/statlib/blob/main/Statlib/HighDim/Vocabulary/DesignMatrix.lean#L151" xlink:title="lemma · Statlib/HighDim/Vocabulary/DesignMatrix.lean:151" target="_blank">
<path fill="#eef2f6" stroke="#94a3b8" d="M146,-484C146,-484 116,-484 116,-484 110,-484 104,-478 104,-472 104,-472 104,-460 104,-460 104,-454 110,-448 116,-448 116,-448 146,-448 146,-448 152,-448 158,-454 158,-460 158,-460 158,-472 158,-472 158,-478 152,-484 146,-484"/>
<text xml:space="preserve" text-anchor="middle" x="131" y="-463" font-family="Helvetica,sans-Serif" font-size="10.00">toRE</text>
</a>
</g>
</g>
<!-- n15&#45;&gt;n2 -->
<g id="edge42" class="edge">
<title>n15&#45;&gt;n2</title>
<path fill="none" stroke="#64748b" d="M133.01,-447.75C134.51,-429.43 135.1,-399.87 127,-376 123.47,-365.6 117.24,-355.41 110.88,-346.79"/>
<polygon fill="#64748b" stroke="#64748b" points="112.95,-345.46 106.73,-341.43 109.08,-348.46 112.95,-345.46"/>
</g>
<!-- n15&#45;&gt;n3 -->
<g id="edge41" class="edge">
<title>n15&#45;&gt;n3</title>
<path fill="none" stroke="#64748b" d="M115.18,-447.7C107.04,-438.8 97.01,-427.82 88.21,-418.2"/>
<polygon fill="#64748b" stroke="#64748b" points="90.19,-416.73 83.66,-413.22 86.57,-420.04 90.19,-416.73"/>
</g>
<!-- n16 -->
<g id="node17" class="node">
<title>n16</title>
<g id="a_node17"><a xlink:href="https://github.com/statopia/statlib/blob/main/Statlib/HighDim/Regression/LassoOracle.lean#L1013" xlink:title="theorem · Statlib/HighDim/Regression/LassoOracle.lean:1013" target="_blank">
<path fill="#ffe6a3" stroke="#d4a017" stroke-width="3" d="M275.55,-628C275.55,-628 108.45,-628 108.45,-628 102.45,-628 96.45,-622 96.45,-616 96.45,-616 96.45,-604 96.45,-604 96.45,-598 102.45,-592 108.45,-592 108.45,-592 275.55,-592 275.55,-592 281.55,-592 287.55,-598 287.55,-604 287.55,-604 287.55,-616 287.55,-616 287.55,-622 281.55,-628 275.55,-628"/>
<text xml:space="preserve" text-anchor="middle" x="192" y="-607" font-family="Helvetica,sans-Serif" font-size="10.00">lasso_oracle_support_l2_of_uniformRE</text>
</a>
</g>
</g>
<!-- n16&#45;&gt;n3 -->
<g id="edge43" class="edge">
<title>n16&#45;&gt;n3</title>
<path fill="none" stroke="#64748b" d="M174.92,-590.82C165.75,-580.8 154.42,-567.99 145,-556 120.92,-525.37 112.15,-518.98 95,-484 84.92,-463.44 77.43,-438.45 72.75,-420.19"/>
<polygon fill="#64748b" stroke="#64748b" points="75.23,-419.99 71.16,-413.79 70.47,-421.17 75.23,-419.99"/>
</g>
<!-- n16&#45;&gt;n5 -->
<g id="edge44" class="edge">
<title>n16&#45;&gt;n5</title>
<path fill="none" stroke="#64748b" d="M289.02,-604.12C448.61,-593.42 749,-560.81 749,-467 749,-467 749,-467 749,-321 749,-276.78 724,-230.48 706.28,-203.22"/>
<polygon fill="#64748b" stroke="#64748b" points="708.48,-202.11 702.56,-197.64 704.4,-204.82 708.48,-202.11"/>
</g>
<!-- n16&#45;&gt;n14 -->
<g id="edge45" class="edge">
<title>n16&#45;&gt;n14</title>
<path fill="none" stroke="#64748b" d="M202.77,-590.61C207.67,-582.25 213.52,-572.26 218.77,-563.29"/>
<polygon fill="#64748b" stroke="#64748b" points="220.81,-564.65 222.24,-557.37 216.59,-562.18 220.81,-564.65"/>
</g>
<!-- n16&#45;&gt;n15 -->
<g id="edge46" class="edge">
<title>n16&#45;&gt;n15</title>
<path fill="none" stroke="#64748b" d="M180.61,-590.78C174.61,-580.75 167.41,-567.94 162,-556 152.52,-535.06 144.11,-510.3 138.45,-492.22"/>
<polygon fill="#64748b" stroke="#64748b" points="140.89,-491.84 136.49,-485.87 136.21,-493.28 140.89,-491.84"/>
</g>
</g>
</svg>
