<?xml version="1.0" encoding="UTF-8" standalone="no"?>
<!DOCTYPE svg PUBLIC "-//W3C//DTD SVG 1.1//EN"
 "http://www.w3.org/Graphics/SVG/1.1/DTD/svg11.dtd">
<!-- Generated by graphviz version 15.0.0 (20260523.1842)
 -->
<!-- Title: offdiag_hanson_wright_tail_high_of_const_decoupling_and_decoupled_tail Pages: 1 -->
<svg width="1274pt" height="410pt"
 viewBox="0.00 0.00 1274.00 410.00" xmlns="http://www.w3.org/2000/svg" xmlns:xlink="http://www.w3.org/1999/xlink">
<g id="graph0" class="graph" transform="scale(1 1) rotate(0) translate(4 406)">
<title>offdiag_hanson_wright_tail_high_of_const_decoupling_and_decoupled_tail</title>
<polygon fill="white" stroke="none" points="-4,4 -4,-406 1270,-406 1270,4 -4,4"/>
<text xml:space="preserve" text-anchor="middle" x="633" y="-385.4" font-family="Helvetica,sans-Serif" font-size="14.00">Proof narrative — offdiag_hanson_wright_tail_high_of_const_decoupling_and_decoupled_tail &#160;(17 decls)</text>
<g id="clust1" class="cluster">
<title>cluster_0</title>
<path fill="none" stroke="#cbd5e1" stroke-dasharray="5,2" d="M20,-8C20,-8 1246,-8 1246,-8 1252,-8 1258,-14 1258,-20 1258,-20 1258,-357.2 1258,-357.2 1258,-363.2 1252,-369.2 1246,-369.2 1246,-369.2 20,-369.2 20,-369.2 14,-369.2 8,-363.2 8,-357.2 8,-357.2 8,-20 8,-20 8,-14 14,-8 20,-8"/>
<text xml:space="preserve" text-anchor="middle" x="633" y="-355.3" font-family="Helvetica,sans-Serif" font-size="11.00">HighDim</text>
</g>
<!-- n0 -->
<g id="node1" class="node">
<title>n0</title>
<g id="a_node1"><a xlink:href="vscode://vscode-remote/wsl+Ubuntu/home/ai4stat/statlib/Statlib/HighDim/Vocabulary/RandomVector.lean:83" xlink:title="structure · Statlib/HighDim/Vocabulary/RandomVector.lean:83" target="_blank">
<path fill="#e8dcff" stroke="#8b5cf6" d="M1186.4,-52C1186.4,-52 1151.6,-52 1151.6,-52 1145.6,-52 1139.6,-46 1139.6,-40 1139.6,-40 1139.6,-28 1139.6,-28 1139.6,-22 1145.6,-16 1151.6,-16 1151.6,-16 1186.4,-16 1186.4,-16 1192.4,-16 1198.4,-22 1198.4,-28 1198.4,-28 1198.4,-40 1198.4,-40 1198.4,-46 1192.4,-52 1186.4,-52"/>
<text xml:space="preserve" text-anchor="middle" x="1169" y="-31" font-family="Helvetica,sans-Serif" font-size="10.00">HasMean</text>
</a>
</g>
</g>
<!-- n1 -->
<g id="node2" class="node">
<title>n1</title>
<g id="a_node2"><a xlink:href="vscode://vscode-remote/wsl+Ubuntu/home/ai4stat/statlib/Statlib/HighDim/Vocabulary/QuadraticForms.lean:15" xlink:title="noncomputable def · Statlib/HighDim/Vocabulary/QuadraticForms.lean:15" target="_blank">
<path fill="#d6e9ff" stroke="#3b82f6" d="M713.79,-52C713.79,-52 676.21,-52 676.21,-52 670.21,-52 664.21,-46 664.21,-40 664.21,-40 664.21,-28 664.21,-28 664.21,-22 670.21,-16 676.21,-16 676.21,-16 713.79,-16 713.79,-16 719.79,-16 725.79,-22 725.79,-28 725.79,-28 725.79,-40 725.79,-40 725.79,-46 719.79,-52 713.79,-52"/>
<text xml:space="preserve" text-anchor="middle" x="695" y="-31" font-family="Helvetica,sans-Serif" font-size="10.00">quadForm</text>
</a>
</g>
</g>
<!-- n2 -->
<g id="node3" class="node">
<title>n2</title>
<g id="a_node3"><a xlink:href="vscode://vscode-remote/wsl+Ubuntu/home/ai4stat/statlib/Statlib/HighDim/Vocabulary/QuadraticForms.lean:52" xlink:title="def · Statlib/HighDim/Vocabulary/QuadraticForms.lean:52" target="_blank">
<path fill="#d6e9ff" stroke="#3b82f6" d="M100.62,-52C100.62,-52 41.38,-52 41.38,-52 35.38,-52 29.38,-46 29.38,-40 29.38,-40 29.38,-28 29.38,-28 29.38,-22 35.38,-16 41.38,-16 41.38,-16 100.62,-16 100.62,-16 106.62,-16 112.62,-22 112.62,-28 112.62,-28 112.62,-40 112.62,-40 112.62,-46 106.62,-52 100.62,-52"/>
<text xml:space="preserve" text-anchor="middle" x="71" y="-31" font-family="Helvetica,sans-Serif" font-size="10.00">zeroDiagMatrix</text>
</a>
</g>
</g>
<!-- n3 -->
<g id="node4" class="node">
<title>n3</title>
<g id="a_node4"><a xlink:href="vscode://vscode-remote/wsl+Ubuntu/home/ai4stat/statlib/Statlib/HighDim/Vocabulary/QuadraticForms.lean:33" xlink:title="noncomputable def · Statlib/HighDim/Vocabulary/QuadraticForms.lean:33" target="_blank">
<path fill="#d6e9ff" stroke="#3b82f6" d="M167.92,-196C167.92,-196 48.08,-196 48.08,-196 42.08,-196 36.08,-190 36.08,-184 36.08,-184 36.08,-172 36.08,-172 36.08,-166 42.08,-160 48.08,-160 48.08,-160 167.92,-160 167.92,-160 173.92,-160 179.92,-166 179.92,-172 179.92,-172 179.92,-184 179.92,-184 179.92,-190 173.92,-196 167.92,-196"/>
<text xml:space="preserve" text-anchor="middle" x="108" y="-175" font-family="Helvetica,sans-Serif" font-size="10.00">decoupledOffDiagQuadForm</text>
</a>
</g>
</g>
<!-- n4 -->
<g id="node5" class="node">
<title>n4</title>
<g id="a_node5"><a xlink:href="vscode://vscode-remote/wsl+Ubuntu/home/ai4stat/statlib/Statlib/HighDim/Vocabulary/Norms.lean:37" xlink:title="noncomputable def · Statlib/HighDim/Vocabulary/Norms.lean:37" target="_blank">
<path fill="#d6e9ff" stroke="#3b82f6" d="M299.91,-196C299.91,-196 230.09,-196 230.09,-196 224.09,-196 218.09,-190 218.09,-184 218.09,-184 218.09,-172 218.09,-172 218.09,-166 224.09,-160 230.09,-160 230.09,-160 299.91,-160 299.91,-160 305.91,-160 311.91,-166 311.91,-172 311.91,-172 311.91,-184 311.91,-184 311.91,-190 305.91,-196 299.91,-196"/>
<text xml:space="preserve" text-anchor="middle" x="265" y="-175" font-family="Helvetica,sans-Serif" font-size="10.00">frobeniusNormSq</text>
</a>
</g>
</g>
<!-- n5 -->
<g id="node6" class="node">
<title>n5</title>
<g id="a_node6"><a xlink:href="vscode://vscode-remote/wsl+Ubuntu/home/ai4stat/statlib/Statlib/HighDim/Vocabulary/QuadraticForms.lean:27" xlink:title="noncomputable def · Statlib/HighDim/Vocabulary/QuadraticForms.lean:27" target="_blank">
<path fill="#d6e9ff" stroke="#3b82f6" d="M612.74,-52C612.74,-52 541.26,-52 541.26,-52 535.26,-52 529.26,-46 529.26,-40 529.26,-40 529.26,-28 529.26,-28 529.26,-22 535.26,-16 541.26,-16 541.26,-16 612.74,-16 612.74,-16 618.74,-16 624.74,-22 624.74,-28 624.74,-28 624.74,-40 624.74,-40 624.74,-46 618.74,-52 612.74,-52"/>
<text xml:space="preserve" text-anchor="middle" x="577" y="-31" font-family="Helvetica,sans-Serif" font-size="10.00">offDiagQuadForm</text>
</a>
</g>
</g>
<!-- n6 -->
<g id="node7" class="node">
<title>n6</title>
<g id="a_node7"><a xlink:href="vscode://vscode-remote/wsl+Ubuntu/home/ai4stat/statlib/Statlib/HighDim/Vocabulary/QuadraticForms.lean:21" xlink:title="noncomputable def · Statlib/HighDim/Vocabulary/QuadraticForms.lean:21" target="_blank">
<path fill="#d6e9ff" stroke="#3b82f6" d="M208.35,-52C208.35,-52 149.65,-52 149.65,-52 143.65,-52 137.65,-46 137.65,-40 137.65,-40 137.65,-28 137.65,-28 137.65,-22 143.65,-16 149.65,-16 149.65,-16 208.35,-16 208.35,-16 214.35,-16 220.35,-22 220.35,-28 220.35,-28 220.35,-40 220.35,-40 220.35,-46 214.35,-52 208.35,-52"/>
<text xml:space="preserve" text-anchor="middle" x="179" y="-31" font-family="Helvetica,sans-Serif" font-size="10.00">diagQuadForm</text>
</a>
</g>
</g>
<!-- n7 -->
<g id="node8" class="node">
<title>n7</title>
<g id="a_node8"><a xlink:href="vscode://vscode-remote/wsl+Ubuntu/home/ai4stat/statlib/Statlib/HighDim/Concentration/HansonWright.lean:284" xlink:title="lemma · Statlib/HighDim/Concentration/HansonWright.lean:284" target="_blank">
<path fill="#eef2f6" stroke="#94a3b8" d="M624.28,-124C624.28,-124 487.72,-124 487.72,-124 481.72,-124 475.72,-118 475.72,-112 475.72,-112 475.72,-100 475.72,-100 475.72,-94 481.72,-88 487.72,-88 487.72,-88 624.28,-88 624.28,-88 630.28,-88 636.28,-94 636.28,-100 636.28,-100 636.28,-112 636.28,-112 636.28,-118 630.28,-124 624.28,-124"/>
<text xml:space="preserve" text-anchor="middle" x="556" y="-103" font-family="Helvetica,sans-Serif" font-size="10.00">quadForm_eq_diag_add_offdiag</text>
</a>
</g>
</g>
<!-- n7&#45;&gt;n1 -->
<g id="edge1" class="edge">
<title>n7&#45;&gt;n1</title>
<path fill="none" stroke="#64748b" d="M590.72,-87.52C610.77,-77.42 636.03,-64.7 656.66,-54.31"/>
<polygon fill="#64748b" stroke="#64748b" points="657.54,-56.61 662.69,-51.27 655.33,-52.23 657.54,-56.61"/>
</g>
<!-- n7&#45;&gt;n5 -->
<g id="edge3" class="edge">
<title>n7&#45;&gt;n5</title>
<path fill="none" stroke="#64748b" d="M561.19,-87.7C563.68,-79.39 566.72,-69.28 569.46,-60.14"/>
<polygon fill="#64748b" stroke="#64748b" points="571.77,-60.96 571.43,-53.55 567.08,-59.55 571.77,-60.96"/>
</g>
<!-- n7&#45;&gt;n6 -->
<g id="edge2" class="edge">
<title>n7&#45;&gt;n6</title>
<path fill="none" stroke="#64748b" d="M475.47,-89.59C472.61,-89.05 469.78,-88.52 467,-88 383.42,-72.33 286.1,-54.51 228.68,-44.04"/>
<polygon fill="#64748b" stroke="#64748b" points="229.32,-41.66 222,-42.82 228.45,-46.49 229.32,-41.66"/>
</g>
<!-- n8 -->
<g id="node9" class="node">
<title>n8</title>
<g id="a_node9"><a xlink:href="vscode://vscode-remote/wsl+Ubuntu/home/ai4stat/statlib/Statlib/HighDim/Concentration/HansonWright.lean:302" xlink:title="lemma · Statlib/HighDim/Concentration/HansonWright.lean:302" target="_blank">
<path fill="#eef2f6" stroke="#94a3b8" d="M239.75,-124C239.75,-124 108.25,-124 108.25,-124 102.25,-124 96.25,-118 96.25,-112 96.25,-112 96.25,-100 96.25,-100 96.25,-94 102.25,-88 108.25,-88 108.25,-88 239.75,-88 239.75,-88 245.75,-88 251.75,-94 251.75,-100 251.75,-100 251.75,-112 251.75,-112 251.75,-118 245.75,-124 239.75,-124"/>
<text xml:space="preserve" text-anchor="middle" x="174" y="-103" font-family="Helvetica,sans-Serif" font-size="10.00">diagQuadForm_zeroDiagMatrix</text>
</a>
</g>
</g>
<!-- n8&#45;&gt;n2 -->
<g id="edge5" class="edge">
<title>n8&#45;&gt;n2</title>
<path fill="none" stroke="#64748b" d="M148.27,-87.52C134.65,-78.26 117.79,-66.8 103.3,-56.95"/>
<polygon fill="#64748b" stroke="#64748b" points="104.82,-55.02 97.65,-53.11 102.06,-59.07 104.82,-55.02"/>
</g>
<!-- n8&#45;&gt;n6 -->
<g id="edge4" class="edge">
<title>n8&#45;&gt;n6</title>
<path fill="none" stroke="#64748b" d="M175.24,-87.7C175.82,-79.47 176.54,-69.48 177.18,-60.42"/>
<polygon fill="#64748b" stroke="#64748b" points="179.62,-60.77 177.67,-53.61 174.73,-60.42 179.62,-60.77"/>
</g>
<!-- n9 -->
<g id="node10" class="node">
<title>n9</title>
<g id="a_node10"><a xlink:href="vscode://vscode-remote/wsl+Ubuntu/home/ai4stat/statlib/Statlib/HighDim/Concentration/HansonWright.lean:308" xlink:title="lemma · Statlib/HighDim/Concentration/HansonWright.lean:308" target="_blank">
<path fill="#eef2f6" stroke="#94a3b8" d="M446.14,-124C446.14,-124 301.86,-124 301.86,-124 295.86,-124 289.86,-118 289.86,-112 289.86,-112 289.86,-100 289.86,-100 289.86,-94 295.86,-88 301.86,-88 301.86,-88 446.14,-88 446.14,-88 452.14,-88 458.14,-94 458.14,-100 458.14,-100 458.14,-112 458.14,-112 458.14,-118 452.14,-124 446.14,-124"/>
<text xml:space="preserve" text-anchor="middle" x="374" y="-103" font-family="Helvetica,sans-Serif" font-size="10.00">offDiagQuadForm_zeroDiagMatrix</text>
</a>
</g>
</g>
<!-- n9&#45;&gt;n2 -->
<g id="edge7" class="edge">
<title>n9&#45;&gt;n2</title>
<path fill="none" stroke="#64748b" d="M289.46,-88.28C242.08,-78.52 182.04,-65.49 129,-52 126.41,-51.34 123.75,-50.64 121.08,-49.92"/>
<polygon fill="#64748b" stroke="#64748b" points="121.89,-47.61 114.49,-48.11 120.59,-52.33 121.89,-47.61"/>
</g>
<!-- n9&#45;&gt;n5 -->
<g id="edge6" class="edge">
<title>n9&#45;&gt;n5</title>
<path fill="none" stroke="#64748b" d="M424.7,-87.52C454.02,-77.41 490.97,-64.67 521.12,-54.27"/>
<polygon fill="#64748b" stroke="#64748b" points="521.79,-56.63 527.61,-52.03 520.19,-52 521.79,-56.63"/>
</g>
<!-- n10 -->
<g id="node11" class="node">
<title>n10</title>
<g id="a_node11"><a xlink:href="vscode://vscode-remote/wsl+Ubuntu/home/ai4stat/statlib/Statlib/HighDim/Concentration/HansonWright.lean:319" xlink:title="lemma · Statlib/HighDim/Concentration/HansonWright.lean:319" target="_blank">
<path fill="#eef2f6" stroke="#94a3b8" d="M662.05,-196C662.05,-196 449.95,-196 449.95,-196 443.95,-196 437.95,-190 437.95,-184 437.95,-184 437.95,-172 437.95,-172 437.95,-166 443.95,-160 449.95,-160 449.95,-160 662.05,-160 662.05,-160 668.05,-160 674.05,-166 674.05,-172 674.05,-172 674.05,-184 674.05,-184 674.05,-190 668.05,-196 662.05,-196"/>
<text xml:space="preserve" text-anchor="middle" x="556" y="-175" font-family="Helvetica,sans-Serif" font-size="10.00">quadForm_zeroDiagMatrix_eq_offDiagQuadForm</text>
</a>
</g>
</g>
<!-- n10&#45;&gt;n1 -->
<g id="edge8" class="edge">
<title>n10&#45;&gt;n1</title>
<path fill="none" stroke="#64748b" d="M601.03,-159.7C618.94,-151.09 638.65,-139.22 653,-124 670.05,-105.91 681.28,-79.64 687.81,-60.33"/>
<polygon fill="#64748b" stroke="#64748b" points="690.13,-61.12 689.93,-53.7 685.46,-59.62 690.13,-61.12"/>
</g>
<!-- n10&#45;&gt;n2 -->
<g id="edge9" class="edge">
<title>n10&#45;&gt;n2</title>
<path fill="none" stroke="#64748b" d="M437.67,-167.16C302.95,-155.43 99.73,-135.92 87,-124 70.03,-108.11 67.34,-80.82 68.09,-60.64"/>
<polygon fill="#64748b" stroke="#64748b" points="70.53,-60.86 68.52,-53.72 65.64,-60.55 70.53,-60.86"/>
</g>
<!-- n10&#45;&gt;n5 -->
<g id="edge10" class="edge">
<title>n10&#45;&gt;n5</title>
<path fill="none" stroke="#64748b" d="M604.5,-159.61C620.28,-151.37 636.02,-139.79 645,-124 652.91,-110.09 652.02,-102.38 645,-88 638.96,-75.64 628.49,-65.32 617.55,-57.17"/>
<polygon fill="#64748b" stroke="#64748b" points="619.09,-55.26 611.95,-53.25 616.28,-59.27 619.09,-55.26"/>
</g>
<!-- n10&#45;&gt;n7 -->
<g id="edge11" class="edge">
<title>n10&#45;&gt;n7</title>
<path fill="none" stroke="#64748b" d="M556,-159.7C556,-151.47 556,-141.48 556,-132.42"/>
<polygon fill="#64748b" stroke="#64748b" points="558.45,-132.62 556,-125.62 553.55,-132.62 558.45,-132.62"/>
</g>
<!-- n10&#45;&gt;n8 -->
<g id="edge12" class="edge">
<title>n10&#45;&gt;n8</title>
<path fill="none" stroke="#64748b" d="M460.59,-159.52C399.17,-148.26 319.99,-133.75 260.42,-122.84"/>
<polygon fill="#64748b" stroke="#64748b" points="260.96,-120.44 253.64,-121.59 260.08,-125.26 260.96,-120.44"/>
</g>
<!-- n10&#45;&gt;n9 -->
<g id="edge13" class="edge">
<title>n10&#45;&gt;n9</title>
<path fill="none" stroke="#64748b" d="M510.54,-159.52C485.15,-149.75 453.38,-137.53 426.88,-127.34"/>
<polygon fill="#64748b" stroke="#64748b" points="428.02,-125.15 420.61,-124.93 426.26,-129.72 428.02,-125.15"/>
</g>
<!-- n11 -->
<g id="node12" class="node">
<title>n11</title>
<g id="a_node12"><a xlink:href="vscode://vscode-remote/wsl+Ubuntu/home/ai4stat/statlib/Statlib/HighDim/Concentration/HansonWright.lean:1280" xlink:title="lemma · Statlib/HighDim/Concentration/HansonWright.lean:1280" target="_blank">
<path fill="#eef2f6" stroke="#94a3b8" d="M953.84,-124C953.84,-124 786.16,-124 786.16,-124 780.16,-124 774.16,-118 774.16,-112 774.16,-112 774.16,-100 774.16,-100 774.16,-94 780.16,-88 786.16,-88 786.16,-88 953.84,-88 953.84,-88 959.84,-88 965.84,-94 965.84,-100 965.84,-100 965.84,-112 965.84,-112 965.84,-118 959.84,-124 953.84,-124"/>
<text xml:space="preserve" text-anchor="middle" x="870" y="-103" font-family="Helvetica,sans-Serif" font-size="10.00">coord_mul_integrable_of_sq_integrable</text>
</a>
</g>
</g>
<!-- n12 -->
<g id="node13" class="node">
<title>n12</title>
<g id="a_node13"><a xlink:href="vscode://vscode-remote/wsl+Ubuntu/home/ai4stat/statlib/Statlib/HighDim/Concentration/HansonWright.lean:1297" xlink:title="lemma · Statlib/HighDim/Concentration/HansonWright.lean:1297" target="_blank">
<path fill="#eef2f6" stroke="#94a3b8" d="M1198.34,-124C1198.34,-124 1035.66,-124 1035.66,-124 1029.66,-124 1023.66,-118 1023.66,-112 1023.66,-112 1023.66,-100 1023.66,-100 1023.66,-94 1029.66,-88 1035.66,-88 1035.66,-88 1198.34,-88 1198.34,-88 1204.34,-88 1210.34,-94 1210.34,-100 1210.34,-100 1210.34,-112 1210.34,-112 1210.34,-118 1204.34,-124 1198.34,-124"/>
<text xml:space="preserve" text-anchor="middle" x="1117" y="-103" font-family="Helvetica,sans-Serif" font-size="10.00">coord_mul_integral_eq_zero_of_indep</text>
</a>
</g>
</g>
<!-- n12&#45;&gt;n0 -->
<g id="edge14" class="edge">
<title>n12&#45;&gt;n0</title>
<path fill="none" stroke="#64748b" d="M1129.85,-87.7C1136.34,-78.97 1144.31,-68.24 1151.36,-58.75"/>
<polygon fill="#64748b" stroke="#64748b" points="1153.18,-60.4 1155.39,-53.32 1149.25,-57.48 1153.18,-60.4"/>
</g>
<!-- n13 -->
<g id="node14" class="node">
<title>n13</title>
<g id="a_node14"><a xlink:href="vscode://vscode-remote/wsl+Ubuntu/home/ai4stat/statlib/Statlib/HighDim/Concentration/HansonWright.lean:1331" xlink:title="lemma · Statlib/HighDim/Concentration/HansonWright.lean:1331" target="_blank">
<path fill="#eef2f6" stroke="#94a3b8" d="M967.73,-196C967.73,-196 772.27,-196 772.27,-196 766.27,-196 760.27,-190 760.27,-184 760.27,-184 760.27,-172 760.27,-172 760.27,-166 766.27,-160 772.27,-160 772.27,-160 967.73,-160 967.73,-160 973.73,-160 979.73,-166 979.73,-172 979.73,-172 979.73,-184 979.73,-184 979.73,-190 973.73,-196 967.73,-196"/>
<text xml:space="preserve" text-anchor="middle" x="870" y="-175" font-family="Helvetica,sans-Serif" font-size="10.00">offDiagQuadForm_integral_eq_zero_of_indep</text>
</a>
</g>
</g>
<!-- n13&#45;&gt;n0 -->
<g id="edge15" class="edge">
<title>n13&#45;&gt;n0</title>
<path fill="none" stroke="#64748b" d="M910.8,-159.5C930.85,-150.14 954.95,-137.72 975,-124 994.74,-110.49 994.39,-100.14 1015,-88 1051.84,-66.31 1098.88,-51.75 1131.22,-43.47"/>
<polygon fill="#64748b" stroke="#64748b" points="1131.44,-45.94 1137.64,-41.87 1130.26,-41.19 1131.44,-45.94"/>
</g>
<!-- n13&#45;&gt;n5 -->
<g id="edge16" class="edge">
<title>n13&#45;&gt;n5</title>
<path fill="none" stroke="#64748b" d="M831.04,-159.71C810.79,-150.13 785.96,-137.47 765,-124 743.45,-110.16 742.29,-100.61 720,-88 692.73,-72.57 660.12,-60.09 632.94,-51.12"/>
<polygon fill="#64748b" stroke="#64748b" points="633.91,-48.85 626.49,-49.03 632.4,-53.52 633.91,-48.85"/>
</g>
<!-- n13&#45;&gt;n11 -->
<g id="edge17" class="edge">
<title>n13&#45;&gt;n11</title>
<path fill="none" stroke="#64748b" d="M870,-159.7C870,-151.47 870,-141.48 870,-132.42"/>
<polygon fill="#64748b" stroke="#64748b" points="872.45,-132.62 870,-125.62 867.55,-132.62 872.45,-132.62"/>
</g>
<!-- n13&#45;&gt;n12 -->
<g id="edge18" class="edge">
<title>n13&#45;&gt;n12</title>
<path fill="none" stroke="#64748b" d="M931.69,-159.52C966.89,-149.54 1011.13,-137 1047.55,-126.68"/>
<polygon fill="#64748b" stroke="#64748b" points="1048.14,-129.06 1054.21,-124.79 1046.81,-124.35 1048.14,-129.06"/>
</g>
<!-- n14 -->
<g id="node15" class="node">
<title>n14</title>
<g id="a_node15"><a xlink:href="vscode://vscode-remote/wsl+Ubuntu/home/ai4stat/statlib/Statlib/HighDim/Concentration/HansonWright.lean:2968" xlink:title="lemma · Statlib/HighDim/Concentration/HansonWright.lean:2968" target="_blank">
<path fill="#eef2f6" stroke="#94a3b8" d="M810.24,-268C810.24,-268 619.76,-268 619.76,-268 613.76,-268 607.76,-262 607.76,-256 607.76,-256 607.76,-244 607.76,-244 607.76,-238 613.76,-232 619.76,-232 619.76,-232 810.24,-232 810.24,-232 816.24,-232 822.24,-238 822.24,-244 822.24,-244 822.24,-256 822.24,-256 822.24,-262 816.24,-268 810.24,-268"/>
<text xml:space="preserve" text-anchor="middle" x="715" y="-247" font-family="Helvetica,sans-Serif" font-size="10.00">offdiag_tail_of_zeroDiag_centered_quad_tail</text>
</a>
</g>
</g>
<!-- n14&#45;&gt;n0 -->
<g id="edge19" class="edge">
<title>n14&#45;&gt;n0</title>
<path fill="none" stroke="#64748b" d="M822.71,-238.19C956.41,-222.24 1172.56,-187.2 1219,-124 1234.5,-102.9 1215.47,-76.52 1196.59,-57.98"/>
<polygon fill="#64748b" stroke="#64748b" points="1198.65,-56.55 1191.87,-53.53 1195.28,-60.11 1198.65,-56.55"/>
</g>
<!-- n14&#45;&gt;n1 -->
<g id="edge20" class="edge">
<title>n14&#45;&gt;n1</title>
<path fill="none" stroke="#64748b" d="M718.3,-231.82C723.41,-202.08 731.49,-139.3 720,-88 717.85,-78.42 713.78,-68.54 709.53,-59.94"/>
<polygon fill="#64748b" stroke="#64748b" points="711.73,-58.86 706.32,-53.79 707.38,-61.13 711.73,-58.86"/>
</g>
<!-- n14&#45;&gt;n2 -->
<g id="edge21" class="edge">
<title>n14&#45;&gt;n2</title>
<path fill="none" stroke="#64748b" d="M607.28,-232.67C553.35,-223.57 487.31,-211.04 429,-196 380.01,-183.36 370.25,-171.58 321,-160 265.29,-146.9 103.53,-167.2 66,-124 51.08,-106.83 54.94,-80.03 60.94,-60.32"/>
<polygon fill="#64748b" stroke="#64748b" points="63.22,-61.21 63.11,-53.8 58.58,-59.67 63.22,-61.21"/>
</g>
<!-- n14&#45;&gt;n5 -->
<g id="edge22" class="edge">
<title>n14&#45;&gt;n5</title>
<path fill="none" stroke="#64748b" d="M711.98,-231.75C705.74,-200.24 688.9,-132.54 653,-88 643.21,-75.85 629.92,-65.29 617.19,-56.87"/>
<polygon fill="#64748b" stroke="#64748b" points="618.7,-54.93 611.48,-53.23 616.07,-59.06 618.7,-54.93"/>
</g>
<!-- n14&#45;&gt;n10 -->
<g id="edge23" class="edge">
<title>n14&#45;&gt;n10</title>
<path fill="none" stroke="#64748b" d="M675.29,-231.52C653.39,-221.88 626.06,-209.84 603.09,-199.73"/>
<polygon fill="#64748b" stroke="#64748b" points="604.26,-197.57 596.87,-196.99 602.29,-202.05 604.26,-197.57"/>
</g>
<!-- n14&#45;&gt;n13 -->
<g id="edge24" class="edge">
<title>n14&#45;&gt;n13</title>
<path fill="none" stroke="#64748b" d="M753.71,-231.52C774.97,-221.92 801.47,-209.95 823.8,-199.86"/>
<polygon fill="#64748b" stroke="#64748b" points="824.76,-202.12 830.13,-197 822.74,-197.65 824.76,-202.12"/>
</g>
<!-- n15 -->
<g id="node16" class="node">
<title>n15</title>
<g id="a_node16"><a xlink:href="vscode://vscode-remote/wsl+Ubuntu/home/ai4stat/statlib/Statlib/HighDim/Concentration/HansonWright.lean:3046" xlink:title="theorem · Statlib/HighDim/Concentration/HansonWright.lean:3046" target="_blank">
<path fill="#ffe6a3" stroke="#d4a017" d="M449.59,-268C449.59,-268 68.41,-268 68.41,-268 62.41,-268 56.41,-262 56.41,-256 56.41,-256 56.41,-244 56.41,-244 56.41,-238 62.41,-232 68.41,-232 68.41,-232 449.59,-232 449.59,-232 455.59,-232 461.59,-238 461.59,-244 461.59,-244 461.59,-256 461.59,-256 461.59,-262 455.59,-268 449.59,-268"/>
<text xml:space="preserve" text-anchor="middle" x="259" y="-247" font-family="Helvetica,sans-Serif" font-size="10.00">zeroDiag_centered_quadratic_form_tail_high_of_const_decoupling_and_decoupled_tail</text>
</a>
</g>
</g>
<!-- n15&#45;&gt;n1 -->
<g id="edge25" class="edge">
<title>n15&#45;&gt;n1</title>
<path fill="none" stroke="#64748b" d="M462.01,-235.11C562.91,-226.16 666.81,-213.02 683,-196 717.52,-159.71 709.7,-95.65 701.82,-60.26"/>
<polygon fill="#64748b" stroke="#64748b" points="704.29,-60.05 700.3,-53.8 699.52,-61.18 704.29,-60.05"/>
</g>
<!-- n15&#45;&gt;n2 -->
<g id="edge26" class="edge">
<title>n15&#45;&gt;n2</title>
<path fill="none" stroke="#64748b" d="M240.7,-231.83C230.67,-221.9 218.41,-208.86 209,-196 198.19,-181.23 203.46,-171.23 189,-160 139.28,-121.38 90.45,-173.85 52,-124 37.78,-105.55 46.24,-78.84 55.97,-59.49"/>
<polygon fill="#64748b" stroke="#64748b" points="58.01,-60.88 59.15,-53.55 53.69,-58.57 58.01,-60.88"/>
</g>
<!-- n15&#45;&gt;n3 -->
<g id="edge27" class="edge">
<title>n15&#45;&gt;n3</title>
<path fill="none" stroke="#64748b" d="M221.29,-231.52C200.58,-221.92 174.76,-209.95 153.01,-199.86"/>
<polygon fill="#64748b" stroke="#64748b" points="154.25,-197.74 146.87,-197.02 152.19,-202.19 154.25,-197.74"/>
</g>
<!-- n15&#45;&gt;n4 -->
<g id="edge28" class="edge">
<title>n15&#45;&gt;n4</title>
<path fill="none" stroke="#64748b" d="M260.48,-231.7C261.19,-223.47 262.04,-213.48 262.82,-204.42"/>
<polygon fill="#64748b" stroke="#64748b" points="265.25,-204.8 263.4,-197.61 260.37,-204.38 265.25,-204.8"/>
</g>
<!-- n16 -->
<g id="node17" class="node">
<title>n16</title>
<g id="a_node17"><a xlink:href="vscode://vscode-remote/wsl+Ubuntu/home/ai4stat/statlib/Statlib/HighDim/Concentration/HansonWright.lean:3892" xlink:title="theorem · Statlib/HighDim/Concentration/HansonWright.lean:3892" target="_blank">
<path fill="#ffe6a3" stroke="#d4a017" stroke-width="3" d="M653.52,-340C653.52,-340 328.48,-340 328.48,-340 322.48,-340 316.48,-334 316.48,-328 316.48,-328 316.48,-316 316.48,-316 316.48,-310 322.48,-304 328.48,-304 328.48,-304 653.52,-304 653.52,-304 659.52,-304 665.52,-310 665.52,-316 665.52,-316 665.52,-328 665.52,-328 665.52,-334 659.52,-340 653.52,-340"/>
<text xml:space="preserve" text-anchor="middle" x="491" y="-319" font-family="Helvetica,sans-Serif" font-size="10.00">offdiag_hanson_wright_tail_high_of_const_decoupling_and_decoupled_tail</text>
</a>
</g>
</g>
<!-- n16&#45;&gt;n0 -->
<g id="edge29" class="edge">
<title>n16&#45;&gt;n0</title>
<path fill="none" stroke="#64748b" d="M666.85,-311.37C798.78,-298.34 980.73,-267.76 1125,-196 1174.68,-171.29 1201.47,-173.27 1227,-124 1234.36,-109.79 1233.45,-102.64 1227,-88 1221.81,-76.23 1212.57,-65.93 1202.97,-57.63"/>
<polygon fill="#64748b" stroke="#64748b" points="1204.79,-55.95 1197.82,-53.42 1201.69,-59.74 1204.79,-55.95"/>
</g>
<!-- n16&#45;&gt;n1 -->
<g id="edge30" class="edge">
<title>n16&#45;&gt;n1</title>
<path fill="none" stroke="#64748b" d="M664.05,-302.51C793.26,-284.42 953.4,-251.34 989,-196 1003.27,-173.82 982.35,-95.32 975,-88 941.7,-54.87 803.76,-41.73 734.72,-37.15"/>
<polygon fill="#64748b" stroke="#64748b" points="734.91,-34.71 727.77,-36.71 734.6,-39.6 734.91,-34.71"/>
</g>
<!-- n16&#45;&gt;n2 -->
<g id="edge31" class="edge">
<title>n16&#45;&gt;n2</title>
<path fill="none" stroke="#64748b" d="M315.11,-310.84C195.79,-302.21 56.19,-288.02 36,-268 -20.82,-211.66 12.27,-163.06 40,-88 43.64,-78.16 49.06,-68.05 54.36,-59.33"/>
<polygon fill="#64748b" stroke="#64748b" points="56.28,-60.88 57.93,-53.66 52.13,-58.27 56.28,-60.88"/>
</g>
<!-- n16&#45;&gt;n3 -->
<g id="edge32" class="edge">
<title>n16&#45;&gt;n3</title>
<path fill="none" stroke="#64748b" d="M315.24,-311.02C199.19,-302.59 65.25,-288.56 47,-268 28.36,-247 52.46,-220.08 75.65,-201.37"/>
<polygon fill="#64748b" stroke="#64748b" points="76.92,-203.49 80.93,-197.25 73.9,-199.62 76.92,-203.49"/>
</g>
<!-- n16&#45;&gt;n4 -->
<g id="edge33" class="edge">
<title>n16&#45;&gt;n4</title>
<path fill="none" stroke="#64748b" d="M492.14,-302.7C492.33,-282.64 489.38,-250.8 471,-232 424.57,-184.53 390.21,-212.91 326,-196 324.05,-195.49 322.06,-194.96 320.05,-194.42"/>
<polygon fill="#64748b" stroke="#64748b" points="321.11,-192.17 313.71,-192.71 319.83,-196.9 321.11,-192.17"/>
</g>
<!-- n16&#45;&gt;n5 -->
<g id="edge34" class="edge">
<title>n16&#45;&gt;n5</title>
<path fill="none" stroke="#64748b" d="M494.64,-302.68C497.42,-283.47 498.74,-253.18 485,-232 457.08,-188.97 307.46,-167.94 281,-124 272.75,-110.29 270.73,-100.27 281,-88 310.94,-52.22 443.37,-40.57 520.57,-36.79"/>
<polygon fill="#64748b" stroke="#64748b" points="520.39,-39.25 527.27,-36.48 520.16,-34.36 520.39,-39.25"/>
</g>
<!-- n16&#45;&gt;n14 -->
<g id="edge35" class="edge">
<title>n16&#45;&gt;n14</title>
<path fill="none" stroke="#64748b" d="M550.15,-302.52C581.33,-292.77 619.62,-280.81 651.44,-270.86"/>
<polygon fill="#64748b" stroke="#64748b" points="651.98,-273.26 657.93,-268.83 650.52,-268.58 651.98,-273.26"/>
</g>
<!-- n16&#45;&gt;n15 -->
<g id="edge36" class="edge">
<title>n16&#45;&gt;n15</title>
<path fill="none" stroke="#64748b" d="M429.74,-302.52C397.3,-292.73 357.45,-280.71 324.42,-270.74"/>
<polygon fill="#64748b" stroke="#64748b" points="325.47,-268.5 318.06,-268.82 324.05,-273.19 325.47,-268.5"/>
</g>
</g>
</svg>
