<?xml version="1.0" encoding="UTF-8" standalone="no"?>
<!DOCTYPE svg PUBLIC "-//W3C//DTD SVG 1.1//EN"
 "http://www.w3.org/Graphics/SVG/1.1/DTD/svg11.dtd">
<!-- Generated by graphviz version 15.0.0 (20260523.1842)
 -->
<!-- Title: offdiag_hanson_wright_tail_high_of_const_decoupling_norm_bernstein_absorb_of_exponents_ Pages: 1 -->
<svg width="1234pt" height="410pt"
 viewBox="0.00 0.00 1234.00 410.00" xmlns="http://www.w3.org/2000/svg" xmlns:xlink="http://www.w3.org/1999/xlink">
<g id="graph0" class="graph" transform="scale(1 1) rotate(0) translate(4 406)">
<title>offdiag_hanson_wright_tail_high_of_const_decoupling_norm_bernstein_absorb_of_exponents_</title>
<polygon fill="white" stroke="none" points="-4,4 -4,-406 1230,-406 1230,4 -4,4"/>
<text xml:space="preserve" text-anchor="middle" x="613" y="-385.4" font-family="Helvetica,sans-Serif" font-size="14.00">Proof narrative — offdiag_hanson_wright_tail_high_of_const_decoupling_norm_bernstein_absorb_of_exponents&#39; &#160;(19 decls)</text>
<g id="clust1" class="cluster">
<title>cluster_0</title>
<path fill="none" stroke="#cbd5e1" stroke-dasharray="5,2" d="M20,-8C20,-8 1206,-8 1206,-8 1212,-8 1218,-14 1218,-20 1218,-20 1218,-357.2 1218,-357.2 1218,-363.2 1212,-369.2 1206,-369.2 1206,-369.2 20,-369.2 20,-369.2 14,-369.2 8,-363.2 8,-357.2 8,-357.2 8,-20 8,-20 8,-14 14,-8 20,-8"/>
<text xml:space="preserve" text-anchor="middle" x="613" y="-355.3" font-family="Helvetica,sans-Serif" font-size="11.00">HighDim</text>
</g>
<!-- n0 -->
<g id="node1" class="node">
<title>n0</title>
<g id="a_node1"><a xlink:href="https://github.com/statopia/statlib/blob/main/Statlib/HighDim/Vocabulary/RandomVector.lean#L83" xlink:title="structure · Statlib/HighDim/Vocabulary/RandomVector.lean:83" target="_blank">
<path fill="#e8dcff" stroke="#8b5cf6" d="M1192.4,-52C1192.4,-52 1157.6,-52 1157.6,-52 1151.6,-52 1145.6,-46 1145.6,-40 1145.6,-40 1145.6,-28 1145.6,-28 1145.6,-22 1151.6,-16 1157.6,-16 1157.6,-16 1192.4,-16 1192.4,-16 1198.4,-16 1204.4,-22 1204.4,-28 1204.4,-28 1204.4,-40 1204.4,-40 1204.4,-46 1198.4,-52 1192.4,-52"/>
<text xml:space="preserve" text-anchor="middle" x="1175" y="-31" font-family="Helvetica,sans-Serif" font-size="10.00">HasMean</text>
</a>
</g>
</g>
<!-- n1 -->
<g id="node2" class="node">
<title>n1</title>
<g id="a_node2"><a xlink:href="https://github.com/statopia/statlib/blob/main/Statlib/HighDim/Vocabulary/RandomVector.lean#L52" xlink:title="structure · Statlib/HighDim/Vocabulary/RandomVector.lean:52" target="_blank">
<path fill="#e8dcff" stroke="#8b5cf6" d="M116.36,-196C116.36,-196 27.64,-196 27.64,-196 21.64,-196 15.64,-190 15.64,-184 15.64,-184 15.64,-172 15.64,-172 15.64,-166 21.64,-160 27.64,-160 27.64,-160 116.36,-160 116.36,-160 122.36,-160 128.36,-166 128.36,-172 128.36,-172 128.36,-184 128.36,-184 128.36,-190 122.36,-196 116.36,-196"/>
<text xml:space="preserve" text-anchor="middle" x="72" y="-175" font-family="Helvetica,sans-Serif" font-size="10.00">IsSubGaussianVector</text>
</a>
</g>
</g>
<!-- n2 -->
<g id="node3" class="node">
<title>n2</title>
<g id="a_node3"><a xlink:href="https://github.com/statopia/statlib/blob/main/Statlib/HighDim/Vocabulary/Norms.lean#L37" xlink:title="noncomputable def · Statlib/HighDim/Vocabulary/Norms.lean:37" target="_blank">
<path fill="#d6e9ff" stroke="#3b82f6" d="M271.91,-268C271.91,-268 202.09,-268 202.09,-268 196.09,-268 190.09,-262 190.09,-256 190.09,-256 190.09,-244 190.09,-244 190.09,-238 196.09,-232 202.09,-232 202.09,-232 271.91,-232 271.91,-232 277.91,-232 283.91,-238 283.91,-244 283.91,-244 283.91,-256 283.91,-256 283.91,-262 277.91,-268 271.91,-268"/>
<text xml:space="preserve" text-anchor="middle" x="237" y="-247" font-family="Helvetica,sans-Serif" font-size="10.00">frobeniusNormSq</text>
</a>
</g>
</g>
<!-- n3 -->
<g id="node4" class="node">
<title>n3</title>
<g id="a_node4"><a xlink:href="https://github.com/statopia/statlib/blob/main/Statlib/HighDim/Vocabulary/QuadraticForms.lean#L15" xlink:title="noncomputable def · Statlib/HighDim/Vocabulary/QuadraticForms.lean:15" target="_blank">
<path fill="#d6e9ff" stroke="#3b82f6" d="M75.79,-52C75.79,-52 38.21,-52 38.21,-52 32.21,-52 26.21,-46 26.21,-40 26.21,-40 26.21,-28 26.21,-28 26.21,-22 32.21,-16 38.21,-16 38.21,-16 75.79,-16 75.79,-16 81.79,-16 87.79,-22 87.79,-28 87.79,-28 87.79,-40 87.79,-40 87.79,-46 81.79,-52 75.79,-52"/>
<text xml:space="preserve" text-anchor="middle" x="57" y="-31" font-family="Helvetica,sans-Serif" font-size="10.00">quadForm</text>
</a>
</g>
</g>
<!-- n4 -->
<g id="node5" class="node">
<title>n4</title>
<g id="a_node5"><a xlink:href="https://github.com/statopia/statlib/blob/main/Statlib/HighDim/Vocabulary/QuadraticForms.lean#L52" xlink:title="def · Statlib/HighDim/Vocabulary/QuadraticForms.lean:52" target="_blank">
<path fill="#d6e9ff" stroke="#3b82f6" d="M176.62,-52C176.62,-52 117.38,-52 117.38,-52 111.38,-52 105.38,-46 105.38,-40 105.38,-40 105.38,-28 105.38,-28 105.38,-22 111.38,-16 117.38,-16 117.38,-16 176.62,-16 176.62,-16 182.62,-16 188.62,-22 188.62,-28 188.62,-28 188.62,-40 188.62,-40 188.62,-46 182.62,-52 176.62,-52"/>
<text xml:space="preserve" text-anchor="middle" x="147" y="-31" font-family="Helvetica,sans-Serif" font-size="10.00">zeroDiagMatrix</text>
</a>
</g>
</g>
<!-- n5 -->
<g id="node6" class="node">
<title>n5</title>
<g id="a_node6"><a xlink:href="https://github.com/statopia/statlib/blob/main/Statlib/HighDim/Vocabulary/QuadraticForms.lean#L33" xlink:title="noncomputable def · Statlib/HighDim/Vocabulary/QuadraticForms.lean:33" target="_blank">
<path fill="#d6e9ff" stroke="#3b82f6" d="M473.92,-268C473.92,-268 354.08,-268 354.08,-268 348.08,-268 342.08,-262 342.08,-256 342.08,-256 342.08,-244 342.08,-244 342.08,-238 348.08,-232 354.08,-232 354.08,-232 473.92,-232 473.92,-232 479.92,-232 485.92,-238 485.92,-244 485.92,-244 485.92,-256 485.92,-256 485.92,-262 479.92,-268 473.92,-268"/>
<text xml:space="preserve" text-anchor="middle" x="414" y="-247" font-family="Helvetica,sans-Serif" font-size="10.00">decoupledOffDiagQuadForm</text>
</a>
</g>
</g>
<!-- n6 -->
<g id="node7" class="node">
<title>n6</title>
<g id="a_node7"><a xlink:href="https://github.com/statopia/statlib/blob/main/Statlib/HighDim/Vocabulary/QuadraticForms.lean#L27" xlink:title="noncomputable def · Statlib/HighDim/Vocabulary/QuadraticForms.lean:27" target="_blank">
<path fill="#d6e9ff" stroke="#3b82f6" d="M720.74,-52C720.74,-52 649.26,-52 649.26,-52 643.26,-52 637.26,-46 637.26,-40 637.26,-40 637.26,-28 637.26,-28 637.26,-22 643.26,-16 649.26,-16 649.26,-16 720.74,-16 720.74,-16 726.74,-16 732.74,-22 732.74,-28 732.74,-28 732.74,-40 732.74,-40 732.74,-46 726.74,-52 720.74,-52"/>
<text xml:space="preserve" text-anchor="middle" x="685" y="-31" font-family="Helvetica,sans-Serif" font-size="10.00">offDiagQuadForm</text>
</a>
</g>
</g>
<!-- n7 -->
<g id="node8" class="node">
<title>n7</title>
<g id="a_node8"><a xlink:href="https://github.com/statopia/statlib/blob/main/Statlib/HighDim/Vocabulary/Norms.lean#L32" xlink:title="lemma · Statlib/HighDim/Vocabulary/Norms.lean:32" target="_blank">
<path fill="#eef2f6" stroke="#94a3b8" d="M213.69,-196C213.69,-196 158.31,-196 158.31,-196 152.31,-196 146.31,-190 146.31,-184 146.31,-184 146.31,-172 146.31,-172 146.31,-166 152.31,-160 158.31,-160 158.31,-160 213.69,-160 213.69,-160 219.69,-160 225.69,-166 225.69,-172 225.69,-172 225.69,-184 225.69,-184 225.69,-190 219.69,-196 213.69,-196"/>
<text xml:space="preserve" text-anchor="middle" x="186" y="-175" font-family="Helvetica,sans-Serif" font-size="10.00">inner_eq_sum</text>
</a>
</g>
</g>
<!-- n8 -->
<g id="node9" class="node">
<title>n8</title>
<g id="a_node9"><a xlink:href="https://github.com/statopia/statlib/blob/main/Statlib/HighDim/Concentration/HansonWright.lean#L1341" xlink:title="lemma · Statlib/HighDim/Concentration/HansonWright.lean:1341" target="_blank">
<path fill="#eef2f6" stroke="#94a3b8" d="M159.76,-268C159.76,-268 48.24,-268 48.24,-268 42.24,-268 36.24,-262 36.24,-256 36.24,-256 36.24,-244 36.24,-244 36.24,-238 42.24,-232 48.24,-232 48.24,-232 159.76,-232 159.76,-232 165.76,-232 171.76,-238 171.76,-244 171.76,-244 171.76,-256 171.76,-256 171.76,-262 165.76,-268 159.76,-268"/>
<text xml:space="preserve" text-anchor="middle" x="104" y="-247" font-family="Helvetica,sans-Serif" font-size="10.00">subgaussian_vector_coord</text>
</a>
</g>
</g>
<!-- n8&#45;&gt;n1 -->
<g id="edge1" class="edge">
<title>n8&#45;&gt;n1</title>
<path fill="none" stroke="#64748b" d="M96.09,-231.7C92.21,-223.22 87.48,-212.86 83.24,-203.58"/>
<polygon fill="#64748b" stroke="#64748b" points="85.59,-202.83 80.45,-197.48 81.13,-204.87 85.59,-202.83"/>
</g>
<!-- n8&#45;&gt;n7 -->
<g id="edge2" class="edge">
<title>n8&#45;&gt;n7</title>
<path fill="none" stroke="#64748b" d="M124.27,-231.7C134.82,-222.69 147.84,-211.57 159.21,-201.87"/>
<polygon fill="#64748b" stroke="#64748b" points="160.79,-203.74 164.53,-197.33 157.61,-200.01 160.79,-203.74"/>
</g>
<!-- n9 -->
<g id="node10" class="node">
<title>n9</title>
<g id="a_node10"><a xlink:href="https://github.com/statopia/statlib/blob/main/Statlib/HighDim/Vocabulary/QuadraticForms.lean#L21" xlink:title="noncomputable def · Statlib/HighDim/Vocabulary/QuadraticForms.lean:21" target="_blank">
<path fill="#d6e9ff" stroke="#3b82f6" d="M348.35,-52C348.35,-52 289.65,-52 289.65,-52 283.65,-52 277.65,-46 277.65,-40 277.65,-40 277.65,-28 277.65,-28 277.65,-22 283.65,-16 289.65,-16 289.65,-16 348.35,-16 348.35,-16 354.35,-16 360.35,-22 360.35,-28 360.35,-28 360.35,-40 360.35,-40 360.35,-46 354.35,-52 348.35,-52"/>
<text xml:space="preserve" text-anchor="middle" x="319" y="-31" font-family="Helvetica,sans-Serif" font-size="10.00">diagQuadForm</text>
</a>
</g>
</g>
<!-- n10 -->
<g id="node11" class="node">
<title>n10</title>
<g id="a_node11"><a xlink:href="https://github.com/statopia/statlib/blob/main/Statlib/HighDim/Concentration/HansonWright.lean#L236" xlink:title="lemma · Statlib/HighDim/Concentration/HansonWright.lean:236" target="_blank">
<path fill="#eef2f6" stroke="#94a3b8" d="M458.28,-124C458.28,-124 321.72,-124 321.72,-124 315.72,-124 309.72,-118 309.72,-112 309.72,-112 309.72,-100 309.72,-100 309.72,-94 315.72,-88 321.72,-88 321.72,-88 458.28,-88 458.28,-88 464.28,-88 470.28,-94 470.28,-100 470.28,-100 470.28,-112 470.28,-112 470.28,-118 464.28,-124 458.28,-124"/>
<text xml:space="preserve" text-anchor="middle" x="390" y="-103" font-family="Helvetica,sans-Serif" font-size="10.00">quadForm_eq_diag_add_offdiag</text>
</a>
</g>
</g>
<!-- n10&#45;&gt;n3 -->
<g id="edge3" class="edge">
<title>n10&#45;&gt;n3</title>
<path fill="none" stroke="#64748b" d="M309.48,-89.56C306.62,-89.03 303.79,-88.51 301,-88 212.59,-71.79 186.07,-78.27 96.28,-51.79"/>
<polygon fill="#64748b" stroke="#64748b" points="97.12,-49.48 89.71,-49.82 95.71,-54.18 97.12,-49.48"/>
</g>
<!-- n10&#45;&gt;n6 -->
<g id="edge5" class="edge">
<title>n10&#45;&gt;n6</title>
<path fill="none" stroke="#64748b" d="M463.68,-87.52C514.88,-75.37 582.06,-59.43 628.92,-48.31"/>
<polygon fill="#64748b" stroke="#64748b" points="629.41,-50.71 635.66,-46.71 628.28,-45.94 629.41,-50.71"/>
</g>
<!-- n10&#45;&gt;n9 -->
<g id="edge4" class="edge">
<title>n10&#45;&gt;n9</title>
<path fill="none" stroke="#64748b" d="M372.45,-87.7C363.34,-78.71 352.08,-67.61 342.25,-57.92"/>
<polygon fill="#64748b" stroke="#64748b" points="344.13,-56.34 337.43,-53.17 340.69,-59.83 344.13,-56.34"/>
</g>
<!-- n11 -->
<g id="node12" class="node">
<title>n11</title>
<g id="a_node12"><a xlink:href="https://github.com/statopia/statlib/blob/main/Statlib/HighDim/Concentration/HansonWright.lean#L254" xlink:title="lemma · Statlib/HighDim/Concentration/HansonWright.lean:254" target="_blank">
<path fill="#eef2f6" stroke="#94a3b8" d="M279.75,-124C279.75,-124 148.25,-124 148.25,-124 142.25,-124 136.25,-118 136.25,-112 136.25,-112 136.25,-100 136.25,-100 136.25,-94 142.25,-88 148.25,-88 148.25,-88 279.75,-88 279.75,-88 285.75,-88 291.75,-94 291.75,-100 291.75,-100 291.75,-112 291.75,-112 291.75,-118 285.75,-124 279.75,-124"/>
<text xml:space="preserve" text-anchor="middle" x="214" y="-103" font-family="Helvetica,sans-Serif" font-size="10.00">diagQuadForm_zeroDiagMatrix</text>
</a>
</g>
</g>
<!-- n11&#45;&gt;n4 -->
<g id="edge7" class="edge">
<title>n11&#45;&gt;n4</title>
<path fill="none" stroke="#64748b" d="M197.44,-87.7C188.92,-78.8 178.42,-67.82 169.2,-58.2"/>
<polygon fill="#64748b" stroke="#64748b" points="171.03,-56.56 164.42,-53.2 167.49,-59.95 171.03,-56.56"/>
</g>
<!-- n11&#45;&gt;n9 -->
<g id="edge6" class="edge">
<title>n11&#45;&gt;n9</title>
<path fill="none" stroke="#64748b" d="M240.23,-87.52C254.11,-78.26 271.3,-66.8 286.07,-56.95"/>
<polygon fill="#64748b" stroke="#64748b" points="287.38,-59.02 291.85,-53.1 284.67,-54.94 287.38,-59.02"/>
</g>
<!-- n12 -->
<g id="node13" class="node">
<title>n12</title>
<g id="a_node13"><a xlink:href="https://github.com/statopia/statlib/blob/main/Statlib/HighDim/Concentration/HansonWright.lean#L260" xlink:title="lemma · Statlib/HighDim/Concentration/HansonWright.lean:260" target="_blank">
<path fill="#eef2f6" stroke="#94a3b8" d="M644.14,-124C644.14,-124 499.86,-124 499.86,-124 493.86,-124 487.86,-118 487.86,-112 487.86,-112 487.86,-100 487.86,-100 487.86,-94 493.86,-88 499.86,-88 499.86,-88 644.14,-88 644.14,-88 650.14,-88 656.14,-94 656.14,-100 656.14,-100 656.14,-112 656.14,-112 656.14,-118 650.14,-124 644.14,-124"/>
<text xml:space="preserve" text-anchor="middle" x="572" y="-103" font-family="Helvetica,sans-Serif" font-size="10.00">offDiagQuadForm_zeroDiagMatrix</text>
</a>
</g>
</g>
<!-- n12&#45;&gt;n4 -->
<g id="edge9" class="edge">
<title>n12&#45;&gt;n4</title>
<path fill="none" stroke="#64748b" d="M487.37,-89.45C484.55,-88.95 481.75,-88.47 479,-88 379.14,-70.9 262.07,-52.63 197.03,-42.63"/>
<polygon fill="#64748b" stroke="#64748b" points="197.76,-40.26 190.47,-41.62 197.02,-45.11 197.76,-40.26"/>
</g>
<!-- n12&#45;&gt;n6 -->
<g id="edge8" class="edge">
<title>n12&#45;&gt;n6</title>
<path fill="none" stroke="#64748b" d="M600.22,-87.52C615.3,-78.18 634,-66.59 650,-56.68"/>
<polygon fill="#64748b" stroke="#64748b" points="651.19,-58.83 655.85,-53.06 648.61,-54.66 651.19,-58.83"/>
</g>
<!-- n13 -->
<g id="node14" class="node">
<title>n13</title>
<g id="a_node14"><a xlink:href="https://github.com/statopia/statlib/blob/main/Statlib/HighDim/Concentration/HansonWright.lean#L271" xlink:title="lemma · Statlib/HighDim/Concentration/HansonWright.lean:271" target="_blank">
<path fill="#eef2f6" stroke="#94a3b8" d="M548.05,-196C548.05,-196 335.95,-196 335.95,-196 329.95,-196 323.95,-190 323.95,-184 323.95,-184 323.95,-172 323.95,-172 323.95,-166 329.95,-160 335.95,-160 335.95,-160 548.05,-160 548.05,-160 554.05,-160 560.05,-166 560.05,-172 560.05,-172 560.05,-184 560.05,-184 560.05,-190 554.05,-196 548.05,-196"/>
<text xml:space="preserve" text-anchor="middle" x="442" y="-175" font-family="Helvetica,sans-Serif" font-size="10.00">quadForm_zeroDiagMatrix_eq_offDiagQuadForm</text>
</a>
</g>
</g>
<!-- n13&#45;&gt;n3 -->
<g id="edge10" class="edge">
<title>n13&#45;&gt;n3</title>
<path fill="none" stroke="#64748b" d="M323.83,-162.57C237.55,-151.24 132.68,-135.51 115,-124 91.67,-108.81 75.68,-80.59 66.5,-59.98"/>
<polygon fill="#64748b" stroke="#64748b" points="68.78,-59.1 63.79,-53.62 64.27,-61.02 68.78,-59.1"/>
</g>
<!-- n13&#45;&gt;n4 -->
<g id="edge11" class="edge">
<title>n13&#45;&gt;n4</title>
<path fill="none" stroke="#64748b" d="M323.77,-160.72C237.17,-148.21 133.6,-131.81 127,-124 111.92,-106.17 120.84,-79.36 131.12,-59.83"/>
<polygon fill="#64748b" stroke="#64748b" points="133.22,-61.1 134.5,-53.79 128.94,-58.71 133.22,-61.1"/>
</g>
<!-- n13&#45;&gt;n6 -->
<g id="edge12" class="edge">
<title>n13&#45;&gt;n6</title>
<path fill="none" stroke="#64748b" d="M560.34,-160.43C605.3,-151.82 649.44,-139.75 665,-124 681.38,-107.41 685.54,-80.47 686.11,-60.57"/>
<polygon fill="#64748b" stroke="#64748b" points="688.56,-60.78 686.15,-53.77 683.66,-60.75 688.56,-60.78"/>
</g>
<!-- n13&#45;&gt;n10 -->
<g id="edge13" class="edge">
<title>n13&#45;&gt;n10</title>
<path fill="none" stroke="#64748b" d="M429.15,-159.7C422.66,-150.97 414.69,-140.24 407.64,-130.75"/>
<polygon fill="#64748b" stroke="#64748b" points="409.75,-129.48 403.61,-125.32 405.82,-132.4 409.75,-129.48"/>
</g>
<!-- n13&#45;&gt;n11 -->
<g id="edge14" class="edge">
<title>n13&#45;&gt;n11</title>
<path fill="none" stroke="#64748b" d="M385.05,-159.52C352.7,-149.58 312.07,-137.11 278.54,-126.81"/>
<polygon fill="#64748b" stroke="#64748b" points="279.47,-124.54 272.06,-124.83 278.03,-129.22 279.47,-124.54"/>
</g>
<!-- n13&#45;&gt;n12 -->
<g id="edge15" class="edge">
<title>n13&#45;&gt;n12</title>
<path fill="none" stroke="#64748b" d="M474.47,-159.52C492.13,-150.01 514.11,-138.17 532.73,-128.15"/>
<polygon fill="#64748b" stroke="#64748b" points="533.61,-130.45 538.61,-124.98 531.29,-126.14 533.61,-130.45"/>
</g>
<!-- n14 -->
<g id="node15" class="node">
<title>n14</title>
<g id="a_node15"><a xlink:href="https://github.com/statopia/statlib/blob/main/Statlib/HighDim/Concentration/HansonWright.lean#L1232" xlink:title="lemma · Statlib/HighDim/Concentration/HansonWright.lean:1232" target="_blank">
<path fill="#eef2f6" stroke="#94a3b8" d="M933.84,-124C933.84,-124 766.16,-124 766.16,-124 760.16,-124 754.16,-118 754.16,-112 754.16,-112 754.16,-100 754.16,-100 754.16,-94 760.16,-88 766.16,-88 766.16,-88 933.84,-88 933.84,-88 939.84,-88 945.84,-94 945.84,-100 945.84,-100 945.84,-112 945.84,-112 945.84,-118 939.84,-124 933.84,-124"/>
<text xml:space="preserve" text-anchor="middle" x="850" y="-103" font-family="Helvetica,sans-Serif" font-size="10.00">coord_mul_integrable_of_sq_integrable</text>
</a>
</g>
</g>
<!-- n15 -->
<g id="node16" class="node">
<title>n15</title>
<g id="a_node16"><a xlink:href="https://github.com/statopia/statlib/blob/main/Statlib/HighDim/Concentration/HansonWright.lean#L1249" xlink:title="lemma · Statlib/HighDim/Concentration/HansonWright.lean:1249" target="_blank">
<path fill="#eef2f6" stroke="#94a3b8" d="M1138.34,-124C1138.34,-124 975.66,-124 975.66,-124 969.66,-124 963.66,-118 963.66,-112 963.66,-112 963.66,-100 963.66,-100 963.66,-94 969.66,-88 975.66,-88 975.66,-88 1138.34,-88 1138.34,-88 1144.34,-88 1150.34,-94 1150.34,-100 1150.34,-100 1150.34,-112 1150.34,-112 1150.34,-118 1144.34,-124 1138.34,-124"/>
<text xml:space="preserve" text-anchor="middle" x="1057" y="-103" font-family="Helvetica,sans-Serif" font-size="10.00">coord_mul_integral_eq_zero_of_indep</text>
</a>
</g>
</g>
<!-- n15&#45;&gt;n0 -->
<g id="edge16" class="edge">
<title>n15&#45;&gt;n0</title>
<path fill="none" stroke="#64748b" d="M1086.47,-87.52C1102.36,-78.09 1122.1,-66.38 1138.9,-56.41"/>
<polygon fill="#64748b" stroke="#64748b" points="1139.83,-58.71 1144.6,-53.03 1137.33,-54.5 1139.83,-58.71"/>
</g>
<!-- n16 -->
<g id="node17" class="node">
<title>n16</title>
<g id="a_node17"><a xlink:href="https://github.com/statopia/statlib/blob/main/Statlib/HighDim/Concentration/HansonWright.lean#L1283" xlink:title="lemma · Statlib/HighDim/Concentration/HansonWright.lean:1283" target="_blank">
<path fill="#eef2f6" stroke="#94a3b8" d="M947.73,-196C947.73,-196 752.27,-196 752.27,-196 746.27,-196 740.27,-190 740.27,-184 740.27,-184 740.27,-172 740.27,-172 740.27,-166 746.27,-160 752.27,-160 752.27,-160 947.73,-160 947.73,-160 953.73,-160 959.73,-166 959.73,-172 959.73,-172 959.73,-184 959.73,-184 959.73,-190 953.73,-196 947.73,-196"/>
<text xml:space="preserve" text-anchor="middle" x="850" y="-175" font-family="Helvetica,sans-Serif" font-size="10.00">offDiagQuadForm_integral_eq_zero_of_indep</text>
</a>
</g>
</g>
<!-- n16&#45;&gt;n0 -->
<g id="edge17" class="edge">
<title>n16&#45;&gt;n0</title>
<path fill="none" stroke="#64748b" d="M960.11,-171.26C1037.21,-164.87 1131.23,-151.55 1159,-124 1175.41,-107.72 1178.24,-80.74 1177.68,-60.74"/>
<polygon fill="#64748b" stroke="#64748b" points="1180.13,-60.75 1177.32,-53.89 1175.24,-61.01 1180.13,-60.75"/>
</g>
<!-- n16&#45;&gt;n6 -->
<g id="edge18" class="edge">
<title>n16&#45;&gt;n6</title>
<path fill="none" stroke="#64748b" d="M803.2,-159.56C783.8,-150.84 761.93,-138.92 745,-124 743.54,-122.71 718.37,-85.11 701.1,-59.2"/>
<polygon fill="#64748b" stroke="#64748b" points="703.22,-57.97 697.3,-53.5 699.15,-60.68 703.22,-57.97"/>
</g>
<!-- n16&#45;&gt;n14 -->
<g id="edge19" class="edge">
<title>n16&#45;&gt;n14</title>
<path fill="none" stroke="#64748b" d="M850,-159.7C850,-151.47 850,-141.48 850,-132.42"/>
<polygon fill="#64748b" stroke="#64748b" points="852.45,-132.62 850,-125.62 847.55,-132.62 852.45,-132.62"/>
</g>
<!-- n16&#45;&gt;n15 -->
<g id="edge20" class="edge">
<title>n16&#45;&gt;n15</title>
<path fill="none" stroke="#64748b" d="M901.7,-159.52C930.83,-149.67 967.34,-137.32 997.64,-127.07"/>
<polygon fill="#64748b" stroke="#64748b" points="998.32,-129.43 1004.17,-124.87 996.75,-124.79 998.32,-129.43"/>
</g>
<!-- n17 -->
<g id="node18" class="node">
<title>n17</title>
<g id="a_node18"><a xlink:href="https://github.com/statopia/statlib/blob/main/Statlib/HighDim/Concentration/HansonWright.lean#L2885" xlink:title="lemma · Statlib/HighDim/Concentration/HansonWright.lean:2885" target="_blank">
<path fill="#eef2f6" stroke="#94a3b8" d="M706.24,-268C706.24,-268 515.76,-268 515.76,-268 509.76,-268 503.76,-262 503.76,-256 503.76,-256 503.76,-244 503.76,-244 503.76,-238 509.76,-232 515.76,-232 515.76,-232 706.24,-232 706.24,-232 712.24,-232 718.24,-238 718.24,-244 718.24,-244 718.24,-256 718.24,-256 718.24,-262 712.24,-268 706.24,-268"/>
<text xml:space="preserve" text-anchor="middle" x="611" y="-247" font-family="Helvetica,sans-Serif" font-size="10.00">offdiag_tail_of_zeroDiag_centered_quad_tail</text>
</a>
</g>
</g>
<!-- n17&#45;&gt;n0 -->
<g id="edge21" class="edge">
<title>n17&#45;&gt;n0</title>
<path fill="none" stroke="#64748b" d="M718.72,-241.41C866.35,-228.42 1119.29,-196.02 1172,-124 1185.22,-105.93 1184.45,-79.83 1181.28,-60.56"/>
<polygon fill="#64748b" stroke="#64748b" points="1183.69,-60.14 1179.98,-53.72 1178.88,-61.06 1183.69,-60.14"/>
</g>
<!-- n17&#45;&gt;n3 -->
<g id="edge22" class="edge">
<title>n17&#45;&gt;n3</title>
<path fill="none" stroke="#64748b" d="M503.4,-232.71C413.97,-218.93 299.8,-200.71 290,-196 268.45,-185.63 271.13,-171.2 250,-160 190.95,-128.71 156.66,-165.15 104,-124 83.43,-107.92 70.86,-80.3 63.96,-60.08"/>
<polygon fill="#64748b" stroke="#64748b" points="66.36,-59.55 61.89,-53.63 61.7,-61.05 66.36,-59.55"/>
</g>
<!-- n17&#45;&gt;n4 -->
<g id="edge23" class="edge">
<title>n17&#45;&gt;n4</title>
<path fill="none" stroke="#64748b" d="M503.38,-231.72C422.11,-218.34 323.18,-201.25 315,-196 298.61,-185.48 306.26,-170.73 290,-160 223.73,-116.26 165.17,-185.55 115,-124 99.66,-105.18 112.71,-78.42 126.48,-59.16"/>
<polygon fill="#64748b" stroke="#64748b" points="128.38,-60.71 130.62,-53.64 124.46,-57.77 128.38,-60.71"/>
</g>
<!-- n17&#45;&gt;n6 -->
<g id="edge24" class="edge">
<title>n17&#45;&gt;n6</title>
<path fill="none" stroke="#64748b" d="M623.49,-231.85C639.59,-208.68 666.94,-165.52 679,-124 685.02,-103.3 686.26,-78.79 686.15,-60.74"/>
<polygon fill="#64748b" stroke="#64748b" points="688.6,-60.91 686.03,-53.96 683.7,-61 688.6,-60.91"/>
</g>
<!-- n17&#45;&gt;n13 -->
<g id="edge25" class="edge">
<title>n17&#45;&gt;n13</title>
<path fill="none" stroke="#64748b" d="M568.79,-231.52C545.41,-221.83 516.22,-209.74 491.73,-199.6"/>
<polygon fill="#64748b" stroke="#64748b" points="492.77,-197.38 485.36,-196.96 490.89,-201.9 492.77,-197.38"/>
</g>
<!-- n17&#45;&gt;n16 -->
<g id="edge26" class="edge">
<title>n17&#45;&gt;n16</title>
<path fill="none" stroke="#64748b" d="M670.69,-231.52C704.76,-221.54 747.55,-209 782.79,-198.68"/>
<polygon fill="#64748b" stroke="#64748b" points="783.17,-201.13 789.2,-196.81 781.79,-196.42 783.17,-201.13"/>
</g>
<!-- n18 -->
<g id="node19" class="node">
<title>n18</title>
<g id="a_node19"><a xlink:href="https://github.com/statopia/statlib/blob/main/Statlib/HighDim/Concentration/HansonWright.lean#L3746" xlink:title="theorem · Statlib/HighDim/Concentration/HansonWright.lean:3746" target="_blank">
<path fill="#ffe6a3" stroke="#d4a017" stroke-width="3" d="M528.72,-340C528.72,-340 117.28,-340 117.28,-340 111.28,-340 105.28,-334 105.28,-328 105.28,-328 105.28,-316 105.28,-316 105.28,-310 111.28,-304 117.28,-304 117.28,-304 528.72,-304 528.72,-304 534.72,-304 540.72,-310 540.72,-316 540.72,-316 540.72,-328 540.72,-328 540.72,-334 534.72,-340 528.72,-340"/>
<text xml:space="preserve" text-anchor="middle" x="323" y="-319" font-family="Helvetica,sans-Serif" font-size="10.00">offdiag_hanson_wright_tail_high_of_const_decoupling_norm_bernstein_absorb_of_exponents&#39;</text>
</a>
</g>
</g>
<!-- n18&#45;&gt;n0 -->
<g id="edge27" class="edge">
<title>n18&#45;&gt;n0</title>
<path fill="none" stroke="#64748b" d="M541.83,-312.01C696.56,-299.22 906.03,-268.65 1077,-196 1129.42,-173.73 1156.34,-174.33 1183,-124 1193.39,-104.38 1189.67,-78.89 1184.36,-60.22"/>
<polygon fill="#64748b" stroke="#64748b" points="1186.72,-59.57 1182.3,-53.61 1182.04,-61.02 1186.72,-59.57"/>
</g>
<!-- n18&#45;&gt;n1 -->
<g id="edge28" class="edge">
<title>n18&#45;&gt;n1</title>
<path fill="none" stroke="#64748b" d="M112.39,-302.56C73.07,-294.77 40.15,-283.71 27,-268 10.38,-248.15 28.53,-221.12 46.5,-202.07"/>
<polygon fill="#64748b" stroke="#64748b" points="47.82,-204.23 50.97,-197.52 44.32,-200.8 47.82,-204.23"/>
</g>
<!-- n18&#45;&gt;n2 -->
<g id="edge29" class="edge">
<title>n18&#45;&gt;n2</title>
<path fill="none" stroke="#64748b" d="M300.4,-302.61C289.5,-293.74 276.33,-283.01 264.82,-273.64"/>
<polygon fill="#64748b" stroke="#64748b" points="266.41,-271.78 259.44,-269.26 263.32,-275.58 266.41,-271.78"/>
</g>
<!-- n18&#45;&gt;n3 -->
<g id="edge30" class="edge">
<title>n18&#45;&gt;n3</title>
<path fill="none" stroke="#64748b" d="M318.09,-302.67C311.86,-280.2 300.96,-243.65 293,-232 278.94,-211.42 264.77,-216.08 250,-196 239.73,-182.04 248.11,-171.34 235,-160 186.08,-117.69 142.91,-166.32 94,-124 75.29,-107.81 65.85,-80.63 61.21,-60.55"/>
<polygon fill="#64748b" stroke="#64748b" points="63.66,-60.27 59.82,-53.92 58.86,-61.27 63.66,-60.27"/>
</g>
<!-- n18&#45;&gt;n4 -->
<g id="edge31" class="edge">
<title>n18&#45;&gt;n4</title>
<path fill="none" stroke="#64748b" d="M322.61,-302.83C321.61,-284.28 318.35,-255.01 308,-232 299.57,-213.26 267.33,-171.04 250,-160 193.63,-124.09 145.21,-176.61 104,-124 88.31,-103.97 105.21,-77.3 122.22,-58.39"/>
<polygon fill="#64748b" stroke="#64748b" points="123.9,-60.18 126.91,-53.4 120.33,-56.82 123.9,-60.18"/>
</g>
<!-- n18&#45;&gt;n5 -->
<g id="edge32" class="edge">
<title>n18&#45;&gt;n5</title>
<path fill="none" stroke="#64748b" d="M346.91,-302.61C358.55,-293.65 372.65,-282.81 384.91,-273.38"/>
<polygon fill="#64748b" stroke="#64748b" points="386.25,-275.44 390.3,-269.23 383.26,-271.56 386.25,-275.44"/>
</g>
<!-- n18&#45;&gt;n6 -->
<g id="edge33" class="edge">
<title>n18&#45;&gt;n6</title>
<path fill="none" stroke="#64748b" d="M542.04,-304.53C629.8,-295.67 713.51,-283.37 727,-268 740.63,-252.46 706.9,-117.46 691.83,-60.35"/>
<polygon fill="#64748b" stroke="#64748b" points="694.22,-59.79 690.05,-53.66 689.48,-61.05 694.22,-59.79"/>
</g>
<!-- n18&#45;&gt;n8 -->
<g id="edge34" class="edge">
<title>n18&#45;&gt;n8</title>
<path fill="none" stroke="#64748b" d="M265.17,-302.52C234.68,-292.77 197.26,-280.81 166.14,-270.86"/>
<polygon fill="#64748b" stroke="#64748b" points="167.23,-268.64 159.82,-268.84 165.74,-273.31 167.23,-268.64"/>
</g>
<!-- n18&#45;&gt;n17 -->
<g id="edge35" class="edge">
<title>n18&#45;&gt;n17</title>
<path fill="none" stroke="#64748b" d="M399.05,-302.52C439.82,-292.61 490.03,-280.4 531.35,-270.36"/>
<polygon fill="#64748b" stroke="#64748b" points="531.79,-272.77 538.02,-268.74 530.64,-268.01 531.79,-272.77"/>
</g>
</g>
</svg>
