<?xml version="1.0" encoding="UTF-8" standalone="no"?>
<!DOCTYPE svg PUBLIC "-//W3C//DTD SVG 1.1//EN"
 "http://www.w3.org/Graphics/SVG/1.1/DTD/svg11.dtd">
<!-- Generated by graphviz version 15.0.0 (20260523.1842)
 -->
<!-- Title: restrictByEquiv_subgaussian Pages: 1 -->
<svg width="552pt" height="410pt"
 viewBox="0.00 0.00 552.00 410.00" xmlns="http://www.w3.org/2000/svg" xmlns:xlink="http://www.w3.org/1999/xlink">
<g id="graph0" class="graph" transform="scale(1 1) rotate(0) translate(4 406)">
<title>restrictByEquiv_subgaussian</title>
<polygon fill="white" stroke="none" points="-4,4 -4,-406 548,-406 548,4 -4,4"/>
<text xml:space="preserve" text-anchor="middle" x="272" y="-385.4" font-family="Helvetica,sans-Serif" font-size="14.00">Proof narrative — restrictByEquiv_subgaussian &#160;(11 decls)</text>
<g id="clust1" class="cluster">
<title>cluster_0</title>
<path fill="none" stroke="#cbd5e1" stroke-dasharray="5,2" d="M20,-8C20,-8 524,-8 524,-8 530,-8 536,-14 536,-20 536,-20 536,-357.2 536,-357.2 536,-363.2 530,-369.2 524,-369.2 524,-369.2 20,-369.2 20,-369.2 14,-369.2 8,-363.2 8,-357.2 8,-357.2 8,-20 8,-20 8,-14 14,-8 20,-8"/>
<text xml:space="preserve" text-anchor="middle" x="272" y="-355.3" font-family="Helvetica,sans-Serif" font-size="11.00">HighDim</text>
</g>
<!-- n0 -->
<g id="node1" class="node">
<title>n0</title>
<g id="a_node1"><a xlink:href="vscode://vscode-remote/wsl+Ubuntu/home/gavin/statlib/Statlib/HighDim/Vocabulary/RandomVector.lean:52" xlink:title="structure · Statlib/HighDim/Vocabulary/RandomVector.lean:52" target="_blank">
<path fill="#e8dcff" stroke="#8b5cf6" d="M116.36,-268C116.36,-268 27.64,-268 27.64,-268 21.64,-268 15.64,-262 15.64,-256 15.64,-256 15.64,-244 15.64,-244 15.64,-238 21.64,-232 27.64,-232 27.64,-232 116.36,-232 116.36,-232 122.36,-232 128.36,-238 128.36,-244 128.36,-244 128.36,-256 128.36,-256 128.36,-262 122.36,-268 116.36,-268"/>
<text xml:space="preserve" text-anchor="middle" x="72" y="-247" font-family="Helvetica,sans-Serif" font-size="10.00">IsSubGaussianVector</text>
</a>
</g>
</g>
<!-- n1 -->
<g id="node2" class="node">
<title>n1</title>
<g id="a_node2"><a xlink:href="vscode://vscode-remote/wsl+Ubuntu/home/gavin/statlib/Statlib/HighDim/Vocabulary/Restrictions.lean:15" xlink:title="def · Statlib/HighDim/Vocabulary/Restrictions.lean:15" target="_blank">
<path fill="#d6e9ff" stroke="#3b82f6" d="M86.34,-196C86.34,-196 27.66,-196 27.66,-196 21.66,-196 15.66,-190 15.66,-184 15.66,-184 15.66,-172 15.66,-172 15.66,-166 21.66,-160 27.66,-160 27.66,-160 86.34,-160 86.34,-160 92.34,-160 98.34,-166 98.34,-172 98.34,-172 98.34,-184 98.34,-184 98.34,-190 92.34,-196 86.34,-196"/>
<text xml:space="preserve" text-anchor="middle" x="57" y="-175" font-family="Helvetica,sans-Serif" font-size="10.00">restrictByEquiv</text>
</a>
</g>
</g>
<!-- n2 -->
<g id="node3" class="node">
<title>n2</title>
<g id="a_node3"><a xlink:href="vscode://vscode-remote/wsl+Ubuntu/home/gavin/statlib/Statlib/HighDim/Vocabulary/Restrictions.lean:20" xlink:title="def · Statlib/HighDim/Vocabulary/Restrictions.lean:20" target="_blank">
<path fill="#d6e9ff" stroke="#3b82f6" d="M274.35,-124C274.35,-124 215.65,-124 215.65,-124 209.65,-124 203.65,-118 203.65,-112 203.65,-112 203.65,-100 203.65,-100 203.65,-94 209.65,-88 215.65,-88 215.65,-88 274.35,-88 274.35,-88 280.35,-88 286.35,-94 286.35,-100 286.35,-100 286.35,-112 286.35,-112 286.35,-118 280.35,-124 274.35,-124"/>
<text xml:space="preserve" text-anchor="middle" x="245" y="-103" font-family="Helvetica,sans-Serif" font-size="10.00">extendByEquiv</text>
</a>
</g>
</g>
<!-- n3 -->
<g id="node4" class="node">
<title>n3</title>
<g id="a_node4"><a xlink:href="vscode://vscode-remote/wsl+Ubuntu/home/gavin/statlib/Statlib/HighDim/Vocabulary/Norms.lean:13" xlink:title="noncomputable def · Statlib/HighDim/Vocabulary/Norms.lean:13" target="_blank">
<path fill="#d6e9ff" stroke="#3b82f6" d="M429.23,-52C429.23,-52 392.77,-52 392.77,-52 386.77,-52 380.77,-46 380.77,-40 380.77,-40 380.77,-28 380.77,-28 380.77,-22 386.77,-16 392.77,-16 392.77,-16 429.23,-16 429.23,-16 435.23,-16 441.23,-22 441.23,-28 441.23,-28 441.23,-40 441.23,-40 441.23,-46 435.23,-52 429.23,-52"/>
<text xml:space="preserve" text-anchor="middle" x="411" y="-31" font-family="Helvetica,sans-Serif" font-size="10.00">l2NormSq</text>
</a>
</g>
</g>
<!-- n4 -->
<g id="node5" class="node">
<title>n4</title>
<g id="a_node5"><a xlink:href="vscode://vscode-remote/wsl+Ubuntu/home/gavin/statlib/Statlib/HighDim/Vocabulary/Norms.lean:21" xlink:title="lemma · Statlib/HighDim/Vocabulary/Norms.lean:21" target="_blank">
<path fill="#eef2f6" stroke="#94a3b8" d="M450.64,-124C450.64,-124 371.36,-124 371.36,-124 365.36,-124 359.36,-118 359.36,-112 359.36,-112 359.36,-100 359.36,-100 359.36,-94 365.36,-88 371.36,-88 371.36,-88 450.64,-88 450.64,-88 456.64,-88 462.64,-94 462.64,-100 462.64,-100 462.64,-112 462.64,-112 462.64,-118 456.64,-124 450.64,-124"/>
<text xml:space="preserve" text-anchor="middle" x="411" y="-103" font-family="Helvetica,sans-Serif" font-size="10.00">euclidean_norm_sq</text>
</a>
</g>
</g>
<!-- n4&#45;&gt;n3 -->
<g id="edge1" class="edge">
<title>n4&#45;&gt;n3</title>
<path fill="none" stroke="#64748b" d="M411,-87.7C411,-79.47 411,-69.48 411,-60.42"/>
<polygon fill="#64748b" stroke="#64748b" points="413.45,-60.62 411,-53.62 408.55,-60.62 413.45,-60.62"/>
</g>
<!-- n5 -->
<g id="node6" class="node">
<title>n5</title>
<g id="a_node6"><a xlink:href="vscode://vscode-remote/wsl+Ubuntu/home/gavin/statlib/Statlib/HighDim/Vocabulary/Norms.lean:27" xlink:title="lemma · Statlib/HighDim/Vocabulary/Norms.lean:27" target="_blank">
<path fill="#eef2f6" stroke="#94a3b8" d="M515.92,-196C515.92,-196 436.08,-196 436.08,-196 430.08,-196 424.08,-190 424.08,-184 424.08,-184 424.08,-172 424.08,-172 424.08,-166 430.08,-160 436.08,-160 436.08,-160 515.92,-160 515.92,-160 521.92,-160 527.92,-166 527.92,-172 527.92,-172 527.92,-184 527.92,-184 527.92,-190 521.92,-196 515.92,-196"/>
<text xml:space="preserve" text-anchor="middle" x="476" y="-175" font-family="Helvetica,sans-Serif" font-size="10.00">euclidean_norm_eq</text>
</a>
</g>
</g>
<!-- n5&#45;&gt;n3 -->
<g id="edge2" class="edge">
<title>n5&#45;&gt;n3</title>
<path fill="none" stroke="#64748b" d="M479.1,-159.63C481.57,-140.94 483.04,-110.84 472,-88 466.24,-76.08 456.44,-65.75 446.37,-57.46"/>
<polygon fill="#64748b" stroke="#64748b" points="447.97,-55.6 440.94,-53.23 444.96,-59.47 447.97,-55.6"/>
</g>
<!-- n5&#45;&gt;n4 -->
<g id="edge3" class="edge">
<title>n5&#45;&gt;n4</title>
<path fill="none" stroke="#64748b" d="M459.93,-159.7C451.67,-150.8 441.48,-139.82 432.54,-130.2"/>
<polygon fill="#64748b" stroke="#64748b" points="434.47,-128.68 427.91,-125.21 430.88,-132.01 434.47,-128.68"/>
</g>
<!-- n6 -->
<g id="node7" class="node">
<title>n6</title>
<g id="a_node7"><a xlink:href="vscode://vscode-remote/wsl+Ubuntu/home/gavin/statlib/Statlib/HighDim/Geometry/RIPConstruction.lean:368" xlink:title="lemma · Statlib/HighDim/Geometry/RIPConstruction.lean:368" target="_blank">
<path fill="#eef2f6" stroke="#94a3b8" d="M394.36,-196C394.36,-196 285.64,-196 285.64,-196 279.64,-196 273.64,-190 273.64,-184 273.64,-184 273.64,-172 273.64,-172 273.64,-166 279.64,-160 285.64,-160 285.64,-160 394.36,-160 394.36,-160 400.36,-160 406.36,-166 406.36,-172 406.36,-172 406.36,-184 406.36,-184 406.36,-190 400.36,-196 394.36,-196"/>
<text xml:space="preserve" text-anchor="middle" x="340" y="-175" font-family="Helvetica,sans-Serif" font-size="10.00">extendByEquiv_l2NormSq</text>
</a>
</g>
</g>
<!-- n6&#45;&gt;n2 -->
<g id="edge5" class="edge">
<title>n6&#45;&gt;n2</title>
<path fill="none" stroke="#64748b" d="M316.52,-159.7C304.07,-150.53 288.64,-139.16 275.3,-129.33"/>
<polygon fill="#64748b" stroke="#64748b" points="276.85,-127.42 269.76,-125.24 273.94,-131.37 276.85,-127.42"/>
</g>
<!-- n6&#45;&gt;n3 -->
<g id="edge4" class="edge">
<title>n6&#45;&gt;n3</title>
<path fill="none" stroke="#64748b" d="M338.35,-159.53C337.37,-140.75 338.14,-110.57 350,-88 356.21,-76.18 366.23,-65.83 376.37,-57.48"/>
<polygon fill="#64748b" stroke="#64748b" points="377.81,-59.46 381.82,-53.22 374.8,-55.6 377.81,-59.46"/>
</g>
<!-- n7 -->
<g id="node8" class="node">
<title>n7</title>
<g id="a_node8"><a xlink:href="vscode://vscode-remote/wsl+Ubuntu/home/gavin/statlib/Statlib/HighDim/Geometry/RIPConstruction.lean:398" xlink:title="lemma · Statlib/HighDim/Geometry/RIPConstruction.lean:398" target="_blank">
<path fill="#eef2f6" stroke="#94a3b8" d="M431.53,-268C431.53,-268 344.47,-268 344.47,-268 338.47,-268 332.47,-262 332.47,-256 332.47,-256 332.47,-244 332.47,-244 332.47,-238 338.47,-232 344.47,-232 344.47,-232 431.53,-232 431.53,-232 437.53,-232 443.53,-238 443.53,-244 443.53,-244 443.53,-256 443.53,-256 443.53,-262 437.53,-268 431.53,-268"/>
<text xml:space="preserve" text-anchor="middle" x="388" y="-247" font-family="Helvetica,sans-Serif" font-size="10.00">extendByEquiv_norm</text>
</a>
</g>
</g>
<!-- n7&#45;&gt;n2 -->
<g id="edge6" class="edge">
<title>n7&#45;&gt;n2</title>
<path fill="none" stroke="#64748b" d="M332.07,-237C308.17,-229.14 281.92,-216.4 265,-196 250.36,-178.35 245.88,-152.19 244.75,-132.79"/>
<polygon fill="#64748b" stroke="#64748b" points="247.21,-132.83 244.5,-125.92 242.31,-133.01 247.21,-132.83"/>
</g>
<!-- n7&#45;&gt;n5 -->
<g id="edge7" class="edge">
<title>n7&#45;&gt;n5</title>
<path fill="none" stroke="#64748b" d="M409.75,-231.7C421.18,-222.61 435.31,-211.36 447.59,-201.6"/>
<polygon fill="#64748b" stroke="#64748b" points="449.05,-203.56 453.01,-197.29 446,-199.73 449.05,-203.56"/>
</g>
<!-- n7&#45;&gt;n6 -->
<g id="edge8" class="edge">
<title>n7&#45;&gt;n6</title>
<path fill="none" stroke="#64748b" d="M376.13,-231.7C370.21,-223.05 362.94,-212.45 356.48,-203.03"/>
<polygon fill="#64748b" stroke="#64748b" points="358.56,-201.74 352.58,-197.35 354.52,-204.51 358.56,-201.74"/>
</g>
<!-- n8 -->
<g id="node9" class="node">
<title>n8</title>
<g id="a_node9"><a xlink:href="vscode://vscode-remote/wsl+Ubuntu/home/gavin/statlib/Statlib/HighDim/Vocabulary/Norms.lean:32" xlink:title="lemma · Statlib/HighDim/Vocabulary/Norms.lean:32" target="_blank">
<path fill="#eef2f6" stroke="#94a3b8" d="M183.69,-196C183.69,-196 128.31,-196 128.31,-196 122.31,-196 116.31,-190 116.31,-184 116.31,-184 116.31,-172 116.31,-172 116.31,-166 122.31,-160 128.31,-160 128.31,-160 183.69,-160 183.69,-160 189.69,-160 195.69,-166 195.69,-172 195.69,-172 195.69,-184 195.69,-184 195.69,-190 189.69,-196 183.69,-196"/>
<text xml:space="preserve" text-anchor="middle" x="156" y="-175" font-family="Helvetica,sans-Serif" font-size="10.00">inner_eq_sum</text>
</a>
</g>
</g>
<!-- n9 -->
<g id="node10" class="node">
<title>n9</title>
<g id="a_node10"><a xlink:href="vscode://vscode-remote/wsl+Ubuntu/home/gavin/statlib/Statlib/HighDim/Geometry/RIPConstruction.lean:442" xlink:title="lemma · Statlib/HighDim/Geometry/RIPConstruction.lean:442" target="_blank">
<path fill="#eef2f6" stroke="#94a3b8" d="M281.58,-268C281.58,-268 178.42,-268 178.42,-268 172.42,-268 166.42,-262 166.42,-256 166.42,-256 166.42,-244 166.42,-244 166.42,-238 172.42,-232 178.42,-232 178.42,-232 281.58,-232 281.58,-232 287.58,-232 293.58,-238 293.58,-244 293.58,-244 293.58,-256 293.58,-256 293.58,-262 287.58,-268 281.58,-268"/>
<text xml:space="preserve" text-anchor="middle" x="230" y="-247" font-family="Helvetica,sans-Serif" font-size="10.00">restrictByEquiv_inner_eq</text>
</a>
</g>
</g>
<!-- n9&#45;&gt;n1 -->
<g id="edge9" class="edge">
<title>n9&#45;&gt;n1</title>
<path fill="none" stroke="#64748b" d="M186.79,-231.52C162.39,-221.64 131.8,-209.27 106.45,-199.01"/>
<polygon fill="#64748b" stroke="#64748b" points="107.57,-196.82 100.17,-196.47 105.74,-201.36 107.57,-196.82"/>
</g>
<!-- n9&#45;&gt;n2 -->
<g id="edge10" class="edge">
<title>n9&#45;&gt;n2</title>
<path fill="none" stroke="#64748b" d="M228.59,-231.51C227.46,-213.49 226.58,-184.64 230,-160 231.28,-150.81 233.74,-140.98 236.3,-132.31"/>
<polygon fill="#64748b" stroke="#64748b" points="238.57,-133.26 238.31,-125.85 233.89,-131.81 238.57,-133.26"/>
</g>
<!-- n9&#45;&gt;n8 -->
<g id="edge11" class="edge">
<title>n9&#45;&gt;n8</title>
<path fill="none" stroke="#64748b" d="M211.71,-231.7C202.28,-222.78 190.65,-211.78 180.46,-202.14"/>
<polygon fill="#64748b" stroke="#64748b" points="182.21,-200.42 175.44,-197.39 178.84,-203.98 182.21,-200.42"/>
</g>
<!-- n10 -->
<g id="node11" class="node">
<title>n10</title>
<g id="a_node11"><a xlink:href="vscode://vscode-remote/wsl+Ubuntu/home/gavin/statlib/Statlib/HighDim/Geometry/RIPConstruction.lean:472" xlink:title="lemma · Statlib/HighDim/Geometry/RIPConstruction.lean:472" target="_blank">
<path fill="#eef2f6" stroke="#94a3b8" stroke-width="3" d="M290.2,-340C290.2,-340 169.8,-340 169.8,-340 163.8,-340 157.8,-334 157.8,-328 157.8,-328 157.8,-316 157.8,-316 157.8,-310 163.8,-304 169.8,-304 169.8,-304 290.2,-304 290.2,-304 296.2,-304 302.2,-310 302.2,-316 302.2,-316 302.2,-328 302.2,-328 302.2,-334 296.2,-340 290.2,-340"/>
<text xml:space="preserve" text-anchor="middle" x="230" y="-319" font-family="Helvetica,sans-Serif" font-size="10.00">restrictByEquiv_subgaussian</text>
</a>
</g>
</g>
<!-- n10&#45;&gt;n0 -->
<g id="edge12" class="edge">
<title>n10&#45;&gt;n0</title>
<path fill="none" stroke="#64748b" d="M188.49,-302.61C167.14,-293.15 141.04,-281.59 118.96,-271.81"/>
<polygon fill="#64748b" stroke="#64748b" points="120.11,-269.63 112.72,-269.04 118.12,-274.11 120.11,-269.63"/>
</g>
<!-- n10&#45;&gt;n1 -->
<g id="edge13" class="edge">
<title>n10&#45;&gt;n1</title>
<path fill="none" stroke="#64748b" d="M198.46,-302.51C184.61,-293.34 168.84,-281.36 157,-268 144.86,-254.3 149.43,-245.44 137,-232 125.83,-219.92 111.36,-209.27 97.81,-200.75"/>
<polygon fill="#64748b" stroke="#64748b" points="99.38,-198.83 92.13,-197.27 96.83,-203.01 99.38,-198.83"/>
</g>
<!-- n10&#45;&gt;n2 -->
<g id="edge14" class="edge">
<title>n10&#45;&gt;n2</title>
<path fill="none" stroke="#64748b" d="M268.44,-302.73C281.91,-294.2 295.53,-282.65 303,-268 310.27,-253.75 310.78,-245.98 303,-232 288.25,-205.49 259.75,-222.51 245,-196 234.3,-176.77 235.51,-151.38 238.68,-132.65"/>
<polygon fill="#64748b" stroke="#64748b" points="241.09,-133.12 240.01,-125.78 236.28,-132.19 241.09,-133.12"/>
</g>
<!-- n10&#45;&gt;n7 -->
<g id="edge15" class="edge">
<title>n10&#45;&gt;n7</title>
<path fill="none" stroke="#64748b" d="M271.51,-302.61C292.86,-293.15 318.96,-281.59 341.04,-271.81"/>
<polygon fill="#64748b" stroke="#64748b" points="341.88,-274.11 347.28,-269.04 339.89,-269.63 341.88,-274.11"/>
</g>
<!-- n10&#45;&gt;n9 -->
<g id="edge16" class="edge">
<title>n10&#45;&gt;n9</title>
<path fill="none" stroke="#64748b" d="M230,-302.61C230,-294.59 230,-285.05 230,-276.37"/>
<polygon fill="#64748b" stroke="#64748b" points="232.45,-276.58 230,-269.58 227.55,-276.58 232.45,-276.58"/>
</g>
</g>
</svg>
