<?xml version="1.0" encoding="UTF-8" standalone="no"?>
<!DOCTYPE svg PUBLIC "-//W3C//DTD SVG 1.1//EN"
 "http://www.w3.org/Graphics/SVG/1.1/DTD/svg11.dtd">
<!-- Generated by graphviz version 15.0.0 (20260523.1842)
 -->
<!-- Title: rip_cross_term_abs_le_half_delta_sum Pages: 1 -->
<svg width="897pt" height="338pt"
 viewBox="0.00 0.00 897.00 338.00" xmlns="http://www.w3.org/2000/svg" xmlns:xlink="http://www.w3.org/1999/xlink">
<g id="graph0" class="graph" transform="scale(1 1) rotate(0) translate(4 334)">
<title>rip_cross_term_abs_le_half_delta_sum</title>
<polygon fill="white" stroke="none" points="-4,4 -4,-334 893,-334 893,4 -4,4"/>
<text xml:space="preserve" text-anchor="middle" x="444.5" y="-313.4" font-family="Helvetica,sans-Serif" font-size="14.00">Proof narrative — rip_cross_term_abs_le_half_delta_sum &#160;(11 decls)</text>
<g id="clust1" class="cluster">
<title>cluster_0</title>
<path fill="none" stroke="#cbd5e1" stroke-dasharray="5,2" d="M20,-8C20,-8 869,-8 869,-8 875,-8 881,-14 881,-20 881,-20 881,-285.2 881,-285.2 881,-291.2 875,-297.2 869,-297.2 869,-297.2 20,-297.2 20,-297.2 14,-297.2 8,-291.2 8,-285.2 8,-285.2 8,-20 8,-20 8,-14 14,-8 20,-8"/>
<text xml:space="preserve" text-anchor="middle" x="444.5" y="-283.3" font-family="Helvetica,sans-Serif" font-size="11.00">HighDim</text>
</g>
<!-- n0 -->
<g id="node1" class="node">
<title>n0</title>
<g id="a_node1"><a xlink:href="vscode://vscode-remote/wsl+Ubuntu/home/gavin/statlib/Statlib/HighDim/Vocabulary/Sparse.lean:36" xlink:title="def · Statlib/HighDim/Vocabulary/Sparse.lean:36" target="_blank">
<path fill="#d6e9ff" stroke="#3b82f6" d="M233.73,-52C233.73,-52 202.27,-52 202.27,-52 196.27,-52 190.27,-46 190.27,-40 190.27,-40 190.27,-28 190.27,-28 190.27,-22 196.27,-16 202.27,-16 202.27,-16 233.73,-16 233.73,-16 239.73,-16 245.73,-22 245.73,-28 245.73,-28 245.73,-40 245.73,-40 245.73,-46 239.73,-52 233.73,-52"/>
<text xml:space="preserve" text-anchor="middle" x="218" y="-31" font-family="Helvetica,sans-Serif" font-size="10.00">IsSparse</text>
</a>
</g>
</g>
<!-- n1 -->
<g id="node2" class="node">
<title>n1</title>
<g id="a_node2"><a xlink:href="vscode://vscode-remote/wsl+Ubuntu/home/gavin/statlib/Statlib/HighDim/Vocabulary/Norms.lean:13" xlink:title="noncomputable def · Statlib/HighDim/Vocabulary/Norms.lean:13" target="_blank">
<path fill="#d6e9ff" stroke="#3b82f6" d="M573.23,-124C573.23,-124 536.77,-124 536.77,-124 530.77,-124 524.77,-118 524.77,-112 524.77,-112 524.77,-100 524.77,-100 524.77,-94 530.77,-88 536.77,-88 536.77,-88 573.23,-88 573.23,-88 579.23,-88 585.23,-94 585.23,-100 585.23,-100 585.23,-112 585.23,-112 585.23,-118 579.23,-124 573.23,-124"/>
<text xml:space="preserve" text-anchor="middle" x="555" y="-103" font-family="Helvetica,sans-Serif" font-size="10.00">l2NormSq</text>
</a>
</g>
</g>
<!-- n2 -->
<g id="node3" class="node">
<title>n2</title>
<g id="a_node3"><a xlink:href="vscode://vscode-remote/wsl+Ubuntu/home/gavin/statlib/Statlib/HighDim/Vocabulary/DesignMatrix.lean:62" xlink:title="def · Statlib/HighDim/Vocabulary/DesignMatrix.lean:62" target="_blank">
<path fill="#d6e9ff" stroke="#3b82f6" d="M228.23,-196C228.23,-196 181.77,-196 181.77,-196 175.77,-196 169.77,-190 169.77,-184 169.77,-184 169.77,-172 169.77,-172 169.77,-166 175.77,-160 181.77,-160 181.77,-160 228.23,-160 228.23,-160 234.23,-160 240.23,-166 240.23,-172 240.23,-172 240.23,-184 240.23,-184 240.23,-190 234.23,-196 228.23,-196"/>
<text xml:space="preserve" text-anchor="middle" x="205" y="-175" font-family="Helvetica,sans-Serif" font-size="10.00">SatisfiesRIP</text>
</a>
</g>
</g>
<!-- n2&#45;&gt;n0 -->
<g id="edge1" class="edge">
<title>n2&#45;&gt;n0</title>
<path fill="none" stroke="#64748b" d="M240.38,-163.59C280.72,-148.26 341.23,-125.12 342,-124 351.05,-110.8 350.81,-101.35 342,-88 322.69,-58.75 283.55,-45.58 254.39,-39.69"/>
<polygon fill="#64748b" stroke="#64748b" points="254.89,-37.29 247.56,-38.43 253.99,-42.11 254.89,-37.29"/>
</g>
<!-- n2&#45;&gt;n1 -->
<g id="edge2" class="edge">
<title>n2&#45;&gt;n1</title>
<path fill="none" stroke="#64748b" d="M240.66,-162.83C243.79,-161.8 246.94,-160.84 250,-160 343.89,-134.36 457.57,-118.47 516.06,-111.37"/>
<polygon fill="#64748b" stroke="#64748b" points="516.12,-113.83 522.78,-110.57 515.53,-108.97 516.12,-113.83"/>
</g>
<!-- n3 -->
<g id="node4" class="node">
<title>n3</title>
<g id="a_node4"><a xlink:href="vscode://vscode-remote/wsl+Ubuntu/home/gavin/statlib/Statlib/HighDim/Geometry/RIPConstruction.lean:85" xlink:title="lemma · Statlib/HighDim/Geometry/RIPConstruction.lean:85" target="_blank">
<path fill="#eef2f6" stroke="#94a3b8" d="M320.74,-124C320.74,-124 259.26,-124 259.26,-124 253.26,-124 247.26,-118 247.26,-112 247.26,-112 247.26,-100 247.26,-100 247.26,-94 253.26,-88 259.26,-88 259.26,-88 320.74,-88 320.74,-88 326.74,-88 332.74,-94 332.74,-100 332.74,-100 332.74,-112 332.74,-112 332.74,-118 326.74,-124 320.74,-124"/>
<text xml:space="preserve" text-anchor="middle" x="290" y="-103" font-family="Helvetica,sans-Serif" font-size="10.00">isSparse_mono</text>
</a>
</g>
</g>
<!-- n3&#45;&gt;n0 -->
<g id="edge3" class="edge">
<title>n3&#45;&gt;n0</title>
<path fill="none" stroke="#64748b" d="M272.2,-87.7C263.03,-78.78 251.72,-67.78 241.8,-58.14"/>
<polygon fill="#64748b" stroke="#64748b" points="243.65,-56.52 236.93,-53.4 240.24,-60.04 243.65,-56.52"/>
</g>
<!-- n4 -->
<g id="node5" class="node">
<title>n4</title>
<g id="a_node5"><a xlink:href="vscode://vscode-remote/wsl+Ubuntu/home/gavin/statlib/Statlib/HighDim/Geometry/RIPConstruction.lean:97" xlink:title="lemma · Statlib/HighDim/Geometry/RIPConstruction.lean:97" target="_blank">
<path fill="#eef2f6" stroke="#94a3b8" d="M81.58,-124C81.58,-124 28.42,-124 28.42,-124 22.42,-124 16.42,-118 16.42,-112 16.42,-112 16.42,-100 16.42,-100 16.42,-94 22.42,-88 28.42,-88 28.42,-88 81.58,-88 81.58,-88 87.58,-88 93.58,-94 93.58,-100 93.58,-100 93.58,-112 93.58,-112 93.58,-118 87.58,-124 81.58,-124"/>
<text xml:space="preserve" text-anchor="middle" x="55" y="-103" font-family="Helvetica,sans-Serif" font-size="10.00">isSparse_add</text>
</a>
</g>
</g>
<!-- n4&#45;&gt;n0 -->
<g id="edge4" class="edge">
<title>n4&#45;&gt;n0</title>
<path fill="none" stroke="#64748b" d="M94.04,-88.23C120.84,-76.72 156.14,-61.56 182.22,-50.37"/>
<polygon fill="#64748b" stroke="#64748b" points="183.14,-52.64 188.6,-47.63 181.2,-48.14 183.14,-52.64"/>
</g>
<!-- n5 -->
<g id="node6" class="node">
<title>n5</title>
<g id="a_node6"><a xlink:href="vscode://vscode-remote/wsl+Ubuntu/home/gavin/statlib/Statlib/HighDim/Geometry/RIPConstruction.lean:90" xlink:title="lemma · Statlib/HighDim/Geometry/RIPConstruction.lean:90" target="_blank">
<path fill="#eef2f6" stroke="#94a3b8" d="M176.58,-124C176.58,-124 123.42,-124 123.42,-124 117.42,-124 111.42,-118 111.42,-112 111.42,-112 111.42,-100 111.42,-100 111.42,-94 117.42,-88 123.42,-88 123.42,-88 176.58,-88 176.58,-88 182.58,-88 188.58,-94 188.58,-100 188.58,-100 188.58,-112 188.58,-112 188.58,-118 182.58,-124 176.58,-124"/>
<text xml:space="preserve" text-anchor="middle" x="150" y="-103" font-family="Helvetica,sans-Serif" font-size="10.00">isSparse_neg</text>
</a>
</g>
</g>
<!-- n5&#45;&gt;n0 -->
<g id="edge5" class="edge">
<title>n5&#45;&gt;n0</title>
<path fill="none" stroke="#64748b" d="M166.81,-87.7C175.46,-78.8 186.11,-67.82 195.46,-58.2"/>
<polygon fill="#64748b" stroke="#64748b" points="197.21,-59.92 200.33,-53.19 193.69,-56.5 197.21,-59.92"/>
</g>
<!-- n6 -->
<g id="node7" class="node">
<title>n6</title>
<g id="a_node7"><a xlink:href="vscode://vscode-remote/wsl+Ubuntu/home/gavin/statlib/Statlib/HighDim/Geometry/RIPConstruction.lean:115" xlink:title="lemma · Statlib/HighDim/Geometry/RIPConstruction.lean:115" target="_blank">
<path fill="#eef2f6" stroke="#94a3b8" d="M100.3,-196C100.3,-196 47.7,-196 47.7,-196 41.7,-196 35.7,-190 35.7,-184 35.7,-184 35.7,-172 35.7,-172 35.7,-166 41.7,-160 47.7,-160 47.7,-160 100.3,-160 100.3,-160 106.3,-160 112.3,-166 112.3,-172 112.3,-172 112.3,-184 112.3,-184 112.3,-190 106.3,-196 100.3,-196"/>
<text xml:space="preserve" text-anchor="middle" x="74" y="-175" font-family="Helvetica,sans-Serif" font-size="10.00">isSparse_sub</text>
</a>
</g>
</g>
<!-- n6&#45;&gt;n0 -->
<g id="edge6" class="edge">
<title>n6&#45;&gt;n0</title>
<path fill="none" stroke="#64748b" d="M112.65,-162.52C146.82,-149.4 192.12,-131.06 198,-124 212.67,-106.37 217.14,-80.2 218.26,-60.8"/>
<polygon fill="#64748b" stroke="#64748b" points="220.7,-61.02 218.51,-53.93 215.81,-60.84 220.7,-61.02"/>
</g>
<!-- n6&#45;&gt;n4 -->
<g id="edge7" class="edge">
<title>n6&#45;&gt;n4</title>
<path fill="none" stroke="#64748b" d="M69.3,-159.7C67.05,-151.39 64.3,-141.28 61.82,-132.14"/>
<polygon fill="#64748b" stroke="#64748b" points="64.24,-131.68 60.04,-125.57 59.51,-132.96 64.24,-131.68"/>
</g>
<!-- n6&#45;&gt;n5 -->
<g id="edge8" class="edge">
<title>n6&#45;&gt;n5</title>
<path fill="none" stroke="#64748b" d="M92.79,-159.7C102.56,-150.69 114.64,-139.57 125.17,-129.87"/>
<polygon fill="#64748b" stroke="#64748b" points="126.56,-131.92 130.05,-125.37 123.24,-128.31 126.56,-131.92"/>
</g>
<!-- n7 -->
<g id="node8" class="node">
<title>n7</title>
<g id="a_node8"><a xlink:href="vscode://vscode-remote/wsl+Ubuntu/home/gavin/statlib/Statlib/HighDim/Geometry/RIPConstruction.lean:189" xlink:title="lemma · Statlib/HighDim/Geometry/RIPConstruction.lean:189" target="_blank">
<path fill="#eef2f6" stroke="#94a3b8" d="M860.62,-196C860.62,-196 677.38,-196 677.38,-196 671.38,-196 665.38,-190 665.38,-184 665.38,-184 665.38,-172 665.38,-172 665.38,-166 671.38,-160 677.38,-160 677.38,-160 860.62,-160 860.62,-160 866.62,-160 872.62,-166 872.62,-172 872.62,-172 872.62,-184 872.62,-184 872.62,-190 866.62,-196 860.62,-196"/>
<text xml:space="preserve" text-anchor="middle" x="769" y="-175" font-family="Helvetica,sans-Serif" font-size="10.00">l2NormSq_add_of_pointwise_mul_eq_zero</text>
</a>
</g>
</g>
<!-- n7&#45;&gt;n1 -->
<g id="edge9" class="edge">
<title>n7&#45;&gt;n1</title>
<path fill="none" stroke="#64748b" d="M715.55,-159.52C677.61,-147.11 627.58,-130.74 593.51,-119.6"/>
<polygon fill="#64748b" stroke="#64748b" points="594.5,-117.34 587.08,-117.49 592.97,-122 594.5,-117.34"/>
</g>
<!-- n8 -->
<g id="node9" class="node">
<title>n8</title>
<g id="a_node9"><a xlink:href="vscode://vscode-remote/wsl+Ubuntu/home/gavin/statlib/Statlib/HighDim/Geometry/RIPConstruction.lean:199" xlink:title="lemma · Statlib/HighDim/Geometry/RIPConstruction.lean:199" target="_blank">
<path fill="#eef2f6" stroke="#94a3b8" d="M453.33,-196C453.33,-196 270.67,-196 270.67,-196 264.67,-196 258.67,-190 258.67,-184 258.67,-184 258.67,-172 258.67,-172 258.67,-166 264.67,-160 270.67,-160 270.67,-160 453.33,-160 453.33,-160 459.33,-160 465.33,-166 465.33,-172 465.33,-172 465.33,-184 465.33,-184 465.33,-190 459.33,-196 453.33,-196"/>
<text xml:space="preserve" text-anchor="middle" x="362" y="-175" font-family="Helvetica,sans-Serif" font-size="10.00">l2NormSq_sub_of_pointwise_mul_eq_zero</text>
</a>
</g>
</g>
<!-- n8&#45;&gt;n1 -->
<g id="edge10" class="edge">
<title>n8&#45;&gt;n1</title>
<path fill="none" stroke="#64748b" d="M410.2,-159.52C443.1,-147.58 486.1,-131.99 516.66,-120.9"/>
<polygon fill="#64748b" stroke="#64748b" points="517.38,-123.25 523.12,-118.56 515.71,-118.65 517.38,-123.25"/>
</g>
<!-- n9 -->
<g id="node10" class="node">
<title>n9</title>
<g id="a_node10"><a xlink:href="vscode://vscode-remote/wsl+Ubuntu/home/gavin/statlib/Statlib/HighDim/Geometry/RIPConstruction.lean:223" xlink:title="lemma · Statlib/HighDim/Geometry/RIPConstruction.lean:223" target="_blank">
<path fill="#eef2f6" stroke="#94a3b8" d="M614.65,-196C614.65,-196 495.35,-196 495.35,-196 489.35,-196 483.35,-190 483.35,-184 483.35,-184 483.35,-172 483.35,-172 483.35,-166 489.35,-160 495.35,-160 495.35,-160 614.65,-160 614.65,-160 620.65,-160 626.65,-166 626.65,-172 626.65,-172 626.65,-184 626.65,-184 626.65,-190 620.65,-196 614.65,-196"/>
<text xml:space="preserve" text-anchor="middle" x="555" y="-175" font-family="Helvetica,sans-Serif" font-size="10.00">mulVec_l2NormSq_add_sub</text>
</a>
</g>
</g>
<!-- n9&#45;&gt;n1 -->
<g id="edge11" class="edge">
<title>n9&#45;&gt;n1</title>
<path fill="none" stroke="#64748b" d="M555,-159.7C555,-151.47 555,-141.48 555,-132.42"/>
<polygon fill="#64748b" stroke="#64748b" points="557.45,-132.62 555,-125.62 552.55,-132.62 557.45,-132.62"/>
</g>
<!-- n10 -->
<g id="node11" class="node">
<title>n10</title>
<g id="a_node11"><a xlink:href="vscode://vscode-remote/wsl+Ubuntu/home/gavin/statlib/Statlib/HighDim/Geometry/RIPConstruction.lean:242" xlink:title="lemma · Statlib/HighDim/Geometry/RIPConstruction.lean:242" target="_blank">
<path fill="#eef2f6" stroke="#94a3b8" stroke-width="3" d="M288.27,-268C288.27,-268 121.73,-268 121.73,-268 115.73,-268 109.73,-262 109.73,-256 109.73,-256 109.73,-244 109.73,-244 109.73,-238 115.73,-232 121.73,-232 121.73,-232 288.27,-232 288.27,-232 294.27,-232 300.27,-238 300.27,-244 300.27,-244 300.27,-256 300.27,-256 300.27,-262 294.27,-268 288.27,-268"/>
<text xml:space="preserve" text-anchor="middle" x="205" y="-247" font-family="Helvetica,sans-Serif" font-size="10.00">rip_cross_term_abs_le_half_delta_sum</text>
</a>
</g>
</g>
<!-- n10&#45;&gt;n0 -->
<g id="edge13" class="edge">
<title>n10&#45;&gt;n0</title>
<path fill="none" stroke="#64748b" d="M179.13,-230.58C168.61,-221.5 157.63,-209.59 152,-196 145.88,-181.22 144.17,-173.95 152,-160 167.04,-133.21 194.93,-150.18 211,-124 222.55,-105.19 223.42,-79.76 221.91,-60.9"/>
<polygon fill="#64748b" stroke="#64748b" points="224.35,-60.7 221.2,-53.99 219.48,-61.2 224.35,-60.7"/>
</g>
<!-- n10&#45;&gt;n1 -->
<g id="edge14" class="edge">
<title>n10&#45;&gt;n1</title>
<path fill="none" stroke="#64748b" d="M301.61,-243.8C421.87,-236.31 614.21,-220.63 636,-196 646.6,-184.02 643.61,-174.07 636,-160 626.71,-142.82 609.17,-130.32 592.77,-121.79"/>
<polygon fill="#64748b" stroke="#64748b" points="594.08,-119.7 586.72,-118.81 591.92,-124.09 594.08,-119.7"/>
</g>
<!-- n10&#45;&gt;n2 -->
<g id="edge12" class="edge">
<title>n10&#45;&gt;n2</title>
<path fill="none" stroke="#64748b" d="M205,-230.61C205,-222.59 205,-213.05 205,-204.37"/>
<polygon fill="#64748b" stroke="#64748b" points="207.45,-204.58 205,-197.58 202.55,-204.58 207.45,-204.58"/>
</g>
<!-- n10&#45;&gt;n3 -->
<g id="edge15" class="edge">
<title>n10&#45;&gt;n3</title>
<path fill="none" stroke="#64748b" d="M184.6,-230.5C166.67,-211.95 145.65,-182.91 161,-160 165.81,-152.82 205.34,-137.18 239.39,-124.74"/>
<polygon fill="#64748b" stroke="#64748b" points="239.84,-127.18 245.58,-122.49 238.17,-122.58 239.84,-127.18"/>
</g>
<!-- n10&#45;&gt;n4 -->
<g id="edge16" class="edge">
<title>n10&#45;&gt;n4</title>
<path fill="none" stroke="#64748b" d="M108.67,-231.06C72.58,-222.22 37.7,-210.35 27,-196 12.75,-176.89 24.14,-150.33 36.4,-131.21"/>
<polygon fill="#64748b" stroke="#64748b" points="38.35,-132.7 40.24,-125.53 34.29,-129.95 38.35,-132.7"/>
</g>
<!-- n10&#45;&gt;n6 -->
<g id="edge17" class="edge">
<title>n10&#45;&gt;n6</title>
<path fill="none" stroke="#64748b" d="M170.58,-230.61C153.05,-221.24 131.65,-209.8 113.45,-200.08"/>
<polygon fill="#64748b" stroke="#64748b" points="115.05,-198.16 107.72,-197.02 112.74,-202.48 115.05,-198.16"/>
</g>
<!-- n10&#45;&gt;n7 -->
<g id="edge18" class="edge">
<title>n10&#45;&gt;n7</title>
<path fill="none" stroke="#64748b" d="M301.66,-238.21C392.05,-227.96 530.78,-211.8 651,-196 652.88,-195.75 654.77,-195.5 656.67,-195.25"/>
<polygon fill="#64748b" stroke="#64748b" points="656.99,-197.68 663.6,-194.32 656.33,-192.82 656.99,-197.68"/>
</g>
<!-- n10&#45;&gt;n8 -->
<g id="edge19" class="edge">
<title>n10&#45;&gt;n8</title>
<path fill="none" stroke="#64748b" d="M246.25,-230.61C267.46,-221.15 293.4,-209.59 315.34,-199.81"/>
<polygon fill="#64748b" stroke="#64748b" points="316.14,-202.13 321.53,-197.04 314.14,-197.65 316.14,-202.13"/>
</g>
<!-- n10&#45;&gt;n9 -->
<g id="edge20" class="edge">
<title>n10&#45;&gt;n9</title>
<path fill="none" stroke="#64748b" d="M300.29,-230.52C351.77,-220.47 416.39,-207.72 474,-196 474.28,-195.94 474.55,-195.89 474.83,-195.83"/>
<polygon fill="#64748b" stroke="#64748b" points="475.17,-198.26 481.54,-194.46 474.19,-193.46 475.17,-198.26"/>
</g>
</g>
</svg>
