<?xml version="1.0" encoding="UTF-8" standalone="no"?>
<!DOCTYPE svg PUBLIC "-//W3C//DTD SVG 1.1//EN"
 "http://www.w3.org/Graphics/SVG/1.1/DTD/svg11.dtd">
<!-- Generated by graphviz version 15.0.0 (20260523.1842)
 -->
<!-- Title: sample_cov_min_eig_lower Pages: 1 -->
<svg width="2196pt" height="555pt"
 viewBox="0.00 0.00 2196.00 555.00" xmlns="http://www.w3.org/2000/svg" xmlns:xlink="http://www.w3.org/1999/xlink">
<g id="graph0" class="graph" transform="scale(1 1) rotate(0) translate(4 551.2)">
<title>sample_cov_min_eig_lower</title>
<polygon fill="white" stroke="none" points="-4,4 -4,-551.2 2192,-551.2 2192,4 -4,4"/>
<text xml:space="preserve" text-anchor="middle" x="1094" y="-530.6" font-family="Helvetica,sans-Serif" font-size="14.00">Proof narrative — sample_cov_min_eig_lower &#160;(33 decls)</text>
<g id="clust1" class="cluster">
<title>cluster_0</title>
<path fill="none" stroke="#cbd5e1" stroke-dasharray="5,2" d="M20,-8C20,-8 1477,-8 1477,-8 1483,-8 1489,-14 1489,-20 1489,-20 1489,-502.4 1489,-502.4 1489,-508.4 1483,-514.4 1477,-514.4 1477,-514.4 20,-514.4 20,-514.4 14,-514.4 8,-508.4 8,-502.4 8,-502.4 8,-20 8,-20 8,-14 14,-8 20,-8"/>
<text xml:space="preserve" text-anchor="middle" x="748.5" y="-500.5" font-family="Helvetica,sans-Serif" font-size="11.00">HighDim</text>
</g>
<g id="clust2" class="cluster">
<title>cluster_1</title>
<path fill="none" stroke="#cbd5e1" stroke-dasharray="5,2" d="M1509,-8C1509,-8 2168,-8 2168,-8 2174,-8 2180,-14 2180,-20 2180,-20 2180,-285.2 2180,-285.2 2180,-291.2 2174,-297.2 2168,-297.2 2168,-297.2 1509,-297.2 1509,-297.2 1503,-297.2 1497,-291.2 1497,-285.2 1497,-285.2 1497,-20 1497,-20 1497,-14 1503,-8 1509,-8"/>
<text xml:space="preserve" text-anchor="middle" x="1838.5" y="-283.3" font-family="Helvetica,sans-Serif" font-size="11.00">StatFoundation</text>
</g>
<!-- n0 -->
<g id="node1" class="node">
<title>n0</title>
<g id="a_node1"><a xlink:href="vscode://vscode-remote/wsl+Ubuntu/tmp/statlib-main-refresh.tmBBiR/Statlib/HighDim/Vocabulary/RandomVector.lean:83" xlink:title="structure · Statlib/HighDim/Vocabulary/RandomVector.lean:83" target="_blank">
<path fill="#e8dcff" stroke="#8b5cf6" d="M1469.4,-268C1469.4,-268 1434.6,-268 1434.6,-268 1428.6,-268 1422.6,-262 1422.6,-256 1422.6,-256 1422.6,-244 1422.6,-244 1422.6,-238 1428.6,-232 1434.6,-232 1434.6,-232 1469.4,-232 1469.4,-232 1475.4,-232 1481.4,-238 1481.4,-244 1481.4,-244 1481.4,-256 1481.4,-256 1481.4,-262 1475.4,-268 1469.4,-268"/>
<text xml:space="preserve" text-anchor="middle" x="1452" y="-247" font-family="Helvetica,sans-Serif" font-size="10.00">HasMean</text>
</a>
</g>
</g>
<!-- n1 -->
<g id="node2" class="node">
<title>n1</title>
<g id="a_node2"><a xlink:href="vscode://vscode-remote/wsl+Ubuntu/tmp/statlib-main-refresh.tmBBiR/Statlib/HighDim/Vocabulary/RandomVector.lean:101" xlink:title="structure · Statlib/HighDim/Vocabulary/RandomVector.lean:101" target="_blank">
<path fill="#e8dcff" stroke="#8b5cf6" d="M215.79,-124C215.79,-124 128.21,-124 128.21,-124 122.21,-124 116.21,-118 116.21,-112 116.21,-112 116.21,-100 116.21,-100 116.21,-94 122.21,-88 128.21,-88 128.21,-88 215.79,-88 215.79,-88 221.79,-88 227.79,-94 227.79,-100 227.79,-100 227.79,-112 227.79,-112 227.79,-118 221.79,-124 215.79,-124"/>
<text xml:space="preserve" text-anchor="middle" x="172" y="-103" font-family="Helvetica,sans-Serif" font-size="10.00">HasCovarianceMatrix</text>
</a>
</g>
</g>
<!-- n2 -->
<g id="node3" class="node">
<title>n2</title>
<g id="a_node3"><a xlink:href="vscode://vscode-remote/wsl+Ubuntu/tmp/statlib-main-refresh.tmBBiR/Statlib/HighDim/Vocabulary/RandomVector.lean:52" xlink:title="structure · Statlib/HighDim/Vocabulary/RandomVector.lean:52" target="_blank">
<path fill="#e8dcff" stroke="#8b5cf6" d="M194.36,-268C194.36,-268 105.64,-268 105.64,-268 99.64,-268 93.64,-262 93.64,-256 93.64,-256 93.64,-244 93.64,-244 93.64,-238 99.64,-232 105.64,-232 105.64,-232 194.36,-232 194.36,-232 200.36,-232 206.36,-238 206.36,-244 206.36,-244 206.36,-256 206.36,-256 206.36,-262 200.36,-268 194.36,-268"/>
<text xml:space="preserve" text-anchor="middle" x="150" y="-247" font-family="Helvetica,sans-Serif" font-size="10.00">IsSubGaussianVector</text>
</a>
</g>
</g>
<!-- n3 -->
<g id="node4" class="node">
<title>n3</title>
<g id="a_node4"><a xlink:href="vscode://vscode-remote/wsl+Ubuntu/tmp/statlib-main-refresh.tmBBiR/Statlib/HighDim/CovarianceMatrix/SampleCovariance.lean:193" xlink:title="noncomputable def · Statlib/HighDim/CovarianceMatrix/SampleCovariance.lean:193" target="_blank">
<path fill="#d6e9ff" stroke="#3b82f6" d="M1055.14,-124C1055.14,-124 960.86,-124 960.86,-124 954.86,-124 948.86,-118 948.86,-112 948.86,-112 948.86,-100 948.86,-100 948.86,-94 954.86,-88 960.86,-88 960.86,-88 1055.14,-88 1055.14,-88 1061.14,-88 1067.14,-94 1067.14,-100 1067.14,-100 1067.14,-112 1067.14,-112 1067.14,-118 1061.14,-124 1055.14,-124"/>
<text xml:space="preserve" text-anchor="middle" x="1008" y="-103" font-family="Helvetica,sans-Serif" font-size="10.00">sampleSecondMoment</text>
</a>
</g>
</g>
<!-- n4 -->
<g id="node5" class="node">
<title>n4</title>
<g id="a_node5"><a xlink:href="vscode://vscode-remote/wsl+Ubuntu/tmp/statlib-main-refresh.tmBBiR/Statlib/HighDim/CovarianceMatrix/SampleCovariance.lean:213" xlink:title="lemma · Statlib/HighDim/CovarianceMatrix/SampleCovariance.lean:213" target="_blank">
<path fill="#eef2f6" stroke="#94a3b8" d="M255.82,-196C255.82,-196 88.18,-196 88.18,-196 82.18,-196 76.18,-190 76.18,-184 76.18,-184 76.18,-172 76.18,-172 76.18,-166 82.18,-160 88.18,-160 88.18,-160 255.82,-160 255.82,-160 261.82,-160 267.82,-166 267.82,-172 267.82,-172 267.82,-184 267.82,-184 267.82,-190 261.82,-196 255.82,-196"/>
<text xml:space="preserve" text-anchor="middle" x="172" y="-175" font-family="Helvetica,sans-Serif" font-size="10.00">covariance_isSymm_of_hasCovariance</text>
</a>
</g>
</g>
<!-- n4&#45;&gt;n1 -->
<g id="edge1" class="edge">
<title>n4&#45;&gt;n1</title>
<path fill="none" stroke="#64748b" d="M172,-159.7C172,-151.47 172,-141.48 172,-132.42"/>
<polygon fill="#64748b" stroke="#64748b" points="174.45,-132.62 172,-125.62 169.55,-132.62 174.45,-132.62"/>
</g>
<!-- n5 -->
<g id="node6" class="node">
<title>n5</title>
<g id="a_node6"><a xlink:href="vscode://vscode-remote/wsl+Ubuntu/tmp/statlib-main-refresh.tmBBiR/Statlib/HighDim/CovarianceMatrix/SampleCovariance.lean:199" xlink:title="lemma · Statlib/HighDim/CovarianceMatrix/SampleCovariance.lean:199" target="_blank">
<path fill="#eef2f6" stroke="#94a3b8" d="M1186.69,-196C1186.69,-196 1051.31,-196 1051.31,-196 1045.31,-196 1039.31,-190 1039.31,-184 1039.31,-184 1039.31,-172 1039.31,-172 1039.31,-166 1045.31,-160 1051.31,-160 1051.31,-160 1186.69,-160 1186.69,-160 1192.69,-160 1198.69,-166 1198.69,-172 1198.69,-172 1198.69,-184 1198.69,-184 1198.69,-190 1192.69,-196 1186.69,-196"/>
<text xml:space="preserve" text-anchor="middle" x="1119" y="-175" font-family="Helvetica,sans-Serif" font-size="10.00">sampleSecondMoment_isSymm</text>
</a>
</g>
</g>
<!-- n5&#45;&gt;n3 -->
<g id="edge2" class="edge">
<title>n5&#45;&gt;n3</title>
<path fill="none" stroke="#64748b" d="M1091.28,-159.52C1076.46,-150.18 1058.1,-138.59 1042.38,-128.68"/>
<polygon fill="#64748b" stroke="#64748b" points="1043.88,-126.73 1036.65,-125.07 1041.26,-130.87 1043.88,-126.73"/>
</g>
<!-- n6 -->
<g id="node7" class="node">
<title>n6</title>
<g id="a_node7"><a xlink:href="vscode://vscode-remote/wsl+Ubuntu/tmp/statlib-main-refresh.tmBBiR/Statlib/HighDim/CovarianceMatrix/SampleCovariance.lean:181" xlink:title="lemma · Statlib/HighDim/CovarianceMatrix/SampleCovariance.lean:181" target="_blank">
<path fill="#eef2f6" stroke="#94a3b8" d="M1017.63,-268C1017.63,-268 898.37,-268 898.37,-268 892.37,-268 886.37,-262 886.37,-256 886.37,-256 886.37,-244 886.37,-244 886.37,-238 892.37,-232 898.37,-232 898.37,-232 1017.63,-232 1017.63,-232 1023.63,-232 1029.63,-238 1029.63,-244 1029.63,-244 1029.63,-256 1029.63,-256 1029.63,-262 1023.63,-268 1017.63,-268"/>
<text xml:space="preserve" text-anchor="middle" x="958" y="-247" font-family="Helvetica,sans-Serif" font-size="10.00">real_isHermitian_of_isSymm</text>
</a>
</g>
</g>
<!-- n7 -->
<g id="node8" class="node">
<title>n7</title>
<g id="a_node8"><a xlink:href="vscode://vscode-remote/wsl+Ubuntu/tmp/statlib-main-refresh.tmBBiR/Statlib/HighDim/Vocabulary/Norms.lean:41" xlink:title="noncomputable def · Statlib/HighDim/Vocabulary/Norms.lean:41" target="_blank">
<path fill="#d6e9ff" stroke="#3b82f6" d="M952.13,-52C952.13,-52 907.87,-52 907.87,-52 901.87,-52 895.87,-46 895.87,-40 895.87,-40 895.87,-28 895.87,-28 895.87,-22 901.87,-16 907.87,-16 907.87,-16 952.13,-16 952.13,-16 958.13,-16 964.13,-22 964.13,-28 964.13,-28 964.13,-40 964.13,-40 964.13,-46 958.13,-52 952.13,-52"/>
<text xml:space="preserve" text-anchor="middle" x="930" y="-31" font-family="Helvetica,sans-Serif" font-size="10.00">toEuclidean</text>
</a>
</g>
</g>
<!-- n8 -->
<g id="node9" class="node">
<title>n8</title>
<g id="a_node9"><a xlink:href="vscode://vscode-remote/wsl+Ubuntu/tmp/statlib-main-refresh.tmBBiR/Statlib/HighDim/CovarianceMatrix/SampleCovariance.lean:41" xlink:title="lemma · Statlib/HighDim/CovarianceMatrix/SampleCovariance.lean:41" target="_blank">
<path fill="#eef2f6" stroke="#94a3b8" d="M1317.23,-124C1317.23,-124 1136.77,-124 1136.77,-124 1130.77,-124 1124.77,-118 1124.77,-112 1124.77,-112 1124.77,-100 1124.77,-100 1124.77,-94 1130.77,-88 1136.77,-88 1136.77,-88 1317.23,-88 1317.23,-88 1323.23,-88 1329.23,-94 1329.23,-100 1329.23,-100 1329.23,-112 1329.23,-112 1329.23,-118 1323.23,-124 1317.23,-124"/>
<text xml:space="preserve" text-anchor="middle" x="1227" y="-103" font-family="Helvetica,sans-Serif" font-size="10.00">hermitian_norm_eq_diagonal_eigenvalues</text>
</a>
</g>
</g>
<!-- n9 -->
<g id="node10" class="node">
<title>n9</title>
<g id="a_node10"><a xlink:href="vscode://vscode-remote/wsl+Ubuntu/tmp/statlib-main-refresh.tmBBiR/Statlib/HighDim/CovarianceMatrix/SampleCovariance.lean:61" xlink:title="lemma · Statlib/HighDim/CovarianceMatrix/SampleCovariance.lean:61" target="_blank">
<path fill="#eef2f6" stroke="#94a3b8" d="M1469.21,-124C1469.21,-124 1358.79,-124 1358.79,-124 1352.79,-124 1346.79,-118 1346.79,-112 1346.79,-112 1346.79,-100 1346.79,-100 1346.79,-94 1352.79,-88 1358.79,-88 1358.79,-88 1469.21,-88 1469.21,-88 1475.21,-88 1481.21,-94 1481.21,-100 1481.21,-100 1481.21,-112 1481.21,-112 1481.21,-118 1475.21,-124 1469.21,-124"/>
<text xml:space="preserve" text-anchor="middle" x="1414" y="-103" font-family="Helvetica,sans-Serif" font-size="10.00">pi_real_norm_eq_sup_abs</text>
</a>
</g>
</g>
<!-- n10 -->
<g id="node11" class="node">
<title>n10</title>
<g id="a_node11"><a xlink:href="vscode://vscode-remote/wsl+Ubuntu/tmp/statlib-main-refresh.tmBBiR/Statlib/HighDim/CovarianceMatrix/SampleCovariance.lean:71" xlink:title="lemma · Statlib/HighDim/CovarianceMatrix/SampleCovariance.lean:71" target="_blank">
<path fill="#eef2f6" stroke="#94a3b8" d="M1469.23,-196C1469.23,-196 1288.77,-196 1288.77,-196 1282.77,-196 1276.77,-190 1276.77,-184 1276.77,-184 1276.77,-172 1276.77,-172 1276.77,-166 1282.77,-160 1288.77,-160 1288.77,-160 1469.23,-160 1469.23,-160 1475.23,-160 1481.23,-166 1481.23,-172 1481.23,-172 1481.23,-184 1481.23,-184 1481.23,-190 1475.23,-196 1469.23,-196"/>
<text xml:space="preserve" text-anchor="middle" x="1379" y="-175" font-family="Helvetica,sans-Serif" font-size="10.00">hermitian_norm_eq_sup_abs_eigenvalues</text>
</a>
</g>
</g>
<!-- n10&#45;&gt;n8 -->
<g id="edge3" class="edge">
<title>n10&#45;&gt;n8</title>
<path fill="none" stroke="#64748b" d="M1341.04,-159.52C1320.19,-149.92 1294.2,-137.95 1272.3,-127.86"/>
<polygon fill="#64748b" stroke="#64748b" points="1273.5,-125.72 1266.12,-125.01 1271.45,-130.17 1273.5,-125.72"/>
</g>
<!-- n10&#45;&gt;n9 -->
<g id="edge4" class="edge">
<title>n10&#45;&gt;n9</title>
<path fill="none" stroke="#64748b" d="M1387.65,-159.7C1391.89,-151.22 1397.07,-140.86 1401.71,-131.58"/>
<polygon fill="#64748b" stroke="#64748b" points="1403.83,-132.81 1404.77,-125.46 1399.45,-130.62 1403.83,-132.81"/>
</g>
<!-- n11 -->
<g id="node12" class="node">
<title>n11</title>
<g id="a_node12"><a xlink:href="vscode://vscode-remote/wsl+Ubuntu/tmp/statlib-main-refresh.tmBBiR/Statlib/HighDim/CovarianceMatrix/SampleCovariance.lean:80" xlink:title="lemma · Statlib/HighDim/CovarianceMatrix/SampleCovariance.lean:80" target="_blank">
<path fill="#eef2f6" stroke="#94a3b8" d="M1392.54,-268C1392.54,-268 1255.46,-268 1255.46,-268 1249.46,-268 1243.46,-262 1243.46,-256 1243.46,-256 1243.46,-244 1243.46,-244 1243.46,-238 1249.46,-232 1255.46,-232 1255.46,-232 1392.54,-232 1392.54,-232 1398.54,-232 1404.54,-238 1404.54,-244 1404.54,-244 1404.54,-256 1404.54,-256 1404.54,-262 1398.54,-268 1392.54,-268"/>
<text xml:space="preserve" text-anchor="middle" x="1324" y="-247" font-family="Helvetica,sans-Serif" font-size="10.00">hermitian_norm_le_two_net_sup</text>
</a>
</g>
</g>
<!-- n11&#45;&gt;n7 -->
<g id="edge5" class="edge">
<title>n11&#45;&gt;n7</title>
<path fill="none" stroke="#64748b" d="M1303.58,-231.54C1292.51,-221.62 1278.91,-208.69 1268,-196 1255.3,-181.23 1258.85,-171.32 1243,-160 1195.25,-125.91 1163.75,-158.09 1116,-124 1100.15,-112.68 1106.61,-99.65 1091,-88 1055.84,-61.77 1007.05,-48.12 972.41,-41.29"/>
<polygon fill="#64748b" stroke="#64748b" points="973.19,-38.94 965.86,-40.06 972.28,-43.76 973.19,-38.94"/>
</g>
<!-- n11&#45;&gt;n10 -->
<g id="edge6" class="edge">
<title>n11&#45;&gt;n10</title>
<path fill="none" stroke="#64748b" d="M1337.6,-231.7C1344.46,-222.97 1352.88,-212.24 1360.34,-202.75"/>
<polygon fill="#64748b" stroke="#64748b" points="1362.23,-204.31 1364.63,-197.29 1358.37,-201.29 1362.23,-204.31"/>
</g>
<!-- n12 -->
<g id="node13" class="node">
<title>n12</title>
<g id="a_node13"><a xlink:href="vscode://vscode-remote/wsl+Ubuntu/tmp/statlib-main-refresh.tmBBiR/Statlib/HighDim/Vocabulary/Norms.lean:32" xlink:title="lemma · Statlib/HighDim/Vocabulary/Norms.lean:32" target="_blank">
<path fill="#eef2f6" stroke="#94a3b8" d="M591.69,-52C591.69,-52 536.31,-52 536.31,-52 530.31,-52 524.31,-46 524.31,-40 524.31,-40 524.31,-28 524.31,-28 524.31,-22 530.31,-16 536.31,-16 536.31,-16 591.69,-16 591.69,-16 597.69,-16 603.69,-22 603.69,-28 603.69,-28 603.69,-40 603.69,-40 603.69,-46 597.69,-52 591.69,-52"/>
<text xml:space="preserve" text-anchor="middle" x="564" y="-31" font-family="Helvetica,sans-Serif" font-size="10.00">inner_eq_sum</text>
</a>
</g>
</g>
<!-- n13 -->
<g id="node14" class="node">
<title>n13</title>
<g id="a_node14"><a xlink:href="vscode://vscode-remote/wsl+Ubuntu/tmp/statlib-main-refresh.tmBBiR/Statlib/HighDim/CovarianceMatrix/SampleCovariance.lean:318" xlink:title="lemma · Statlib/HighDim/CovarianceMatrix/SampleCovariance.lean:318" target="_blank">
<path fill="#eef2f6" stroke="#94a3b8" d="M722.53,-124C722.53,-124 615.47,-124 615.47,-124 609.47,-124 603.47,-118 603.47,-112 603.47,-112 603.47,-100 603.47,-100 603.47,-94 609.47,-88 615.47,-88 615.47,-88 722.53,-88 722.53,-88 728.53,-88 734.53,-94 734.53,-100 734.53,-100 734.53,-112 734.53,-112 734.53,-118 728.53,-124 722.53,-124"/>
<text xml:space="preserve" text-anchor="middle" x="669" y="-103" font-family="Helvetica,sans-Serif" font-size="10.00">matrix_quadratic_eq_sum</text>
</a>
</g>
</g>
<!-- n13&#45;&gt;n7 -->
<g id="edge7" class="edge">
<title>n13&#45;&gt;n7</title>
<path fill="none" stroke="#64748b" d="M734.19,-87.52C782.17,-74.65 846.03,-57.52 887.57,-46.38"/>
<polygon fill="#64748b" stroke="#64748b" points="887.98,-48.81 894.11,-44.63 886.71,-44.07 887.98,-48.81"/>
</g>
<!-- n13&#45;&gt;n12 -->
<g id="edge8" class="edge">
<title>n13&#45;&gt;n12</title>
<path fill="none" stroke="#64748b" d="M642.77,-87.52C628.89,-78.26 611.7,-66.8 596.93,-56.95"/>
<polygon fill="#64748b" stroke="#64748b" points="598.33,-54.94 591.15,-53.1 595.62,-59.02 598.33,-54.94"/>
</g>
<!-- n14 -->
<g id="node15" class="node">
<title>n14</title>
<g id="a_node15"><a xlink:href="vscode://vscode-remote/wsl+Ubuntu/tmp/statlib-main-refresh.tmBBiR/Statlib/HighDim/CovarianceMatrix/SampleCovariance.lean:250" xlink:title="lemma · Statlib/HighDim/CovarianceMatrix/SampleCovariance.lean:250" target="_blank">
<path fill="#eef2f6" stroke="#94a3b8" d="M635.17,-196C635.17,-196 460.83,-196 460.83,-196 454.83,-196 448.83,-190 448.83,-184 448.83,-184 448.83,-172 448.83,-172 448.83,-166 454.83,-160 460.83,-160 460.83,-160 635.17,-160 635.17,-160 641.17,-160 647.17,-166 647.17,-172 647.17,-172 647.17,-184 647.17,-184 647.17,-190 641.17,-196 635.17,-196"/>
<text xml:space="preserve" text-anchor="middle" x="548" y="-175" font-family="Helvetica,sans-Serif" font-size="10.00">projection_sq_integral_eq_cov_quadratic</text>
</a>
</g>
</g>
<!-- n14&#45;&gt;n1 -->
<g id="edge9" class="edge">
<title>n14&#45;&gt;n1</title>
<path fill="none" stroke="#64748b" d="M454.09,-159.52C386.26,-146.89 296.42,-130.16 236.53,-119.01"/>
<polygon fill="#64748b" stroke="#64748b" points="237.11,-116.63 229.78,-117.76 236.21,-121.45 237.11,-116.63"/>
</g>
<!-- n14&#45;&gt;n12 -->
<g id="edge10" class="edge">
<title>n14&#45;&gt;n12</title>
<path fill="none" stroke="#64748b" d="M549.96,-159.59C552.76,-134.76 557.91,-89.01 561.14,-60.4"/>
<polygon fill="#64748b" stroke="#64748b" points="563.55,-60.85 561.9,-53.61 558.68,-60.3 563.55,-60.85"/>
</g>
<!-- n15 -->
<g id="node16" class="node">
<title>n15</title>
<g id="a_node16"><a xlink:href="vscode://vscode-remote/wsl+Ubuntu/tmp/statlib-main-refresh.tmBBiR/Statlib/HighDim/CovarianceMatrix/SampleCovariance.lean:330" xlink:title="lemma · Statlib/HighDim/CovarianceMatrix/SampleCovariance.lean:330" target="_blank">
<path fill="#eef2f6" stroke="#94a3b8" d="M857.08,-124C857.08,-124 768.92,-124 768.92,-124 762.92,-124 756.92,-118 756.92,-112 756.92,-112 756.92,-100 756.92,-100 756.92,-94 762.92,-88 768.92,-88 768.92,-88 857.08,-88 857.08,-88 863.08,-88 869.08,-94 869.08,-100 869.08,-100 869.08,-112 869.08,-112 869.08,-118 863.08,-124 857.08,-124"/>
<text xml:space="preserve" text-anchor="middle" x="813" y="-103" font-family="Helvetica,sans-Serif" font-size="10.00">fin_sum_comm_three</text>
</a>
</g>
</g>
<!-- n16 -->
<g id="node17" class="node">
<title>n16</title>
<g id="a_node17"><a xlink:href="vscode://vscode-remote/wsl+Ubuntu/tmp/statlib-main-refresh.tmBBiR/Statlib/HighDim/CovarianceMatrix/SampleCovariance.lean:340" xlink:title="lemma · Statlib/HighDim/CovarianceMatrix/SampleCovariance.lean:340" target="_blank">
<path fill="#eef2f6" stroke="#94a3b8" d="M928.52,-196C928.52,-196 697.48,-196 697.48,-196 691.48,-196 685.48,-190 685.48,-184 685.48,-184 685.48,-172 685.48,-172 685.48,-166 691.48,-160 697.48,-160 697.48,-160 928.52,-160 928.52,-160 934.52,-160 940.52,-166 940.52,-172 940.52,-172 940.52,-184 940.52,-184 940.52,-190 934.52,-196 928.52,-196"/>
<text xml:space="preserve" text-anchor="middle" x="813" y="-175" font-family="Helvetica,sans-Serif" font-size="10.00">sampleSecondMoment_quadratic_eq_projection_sum</text>
</a>
</g>
</g>
<!-- n16&#45;&gt;n3 -->
<g id="edge12" class="edge">
<title>n16&#45;&gt;n3</title>
<path fill="none" stroke="#64748b" d="M861.7,-159.52C889.03,-149.71 923.24,-137.43 951.71,-127.21"/>
<polygon fill="#64748b" stroke="#64748b" points="952.39,-129.56 958.15,-124.89 950.74,-124.95 952.39,-129.56"/>
</g>
<!-- n16&#45;&gt;n7 -->
<g id="edge11" class="edge">
<title>n16&#45;&gt;n7</title>
<path fill="none" stroke="#64748b" d="M838.29,-159.73C851.15,-150.17 866.45,-137.5 878,-124 894.8,-104.37 909.19,-78.57 918.54,-59.81"/>
<polygon fill="#64748b" stroke="#64748b" points="920.71,-60.96 921.57,-53.6 916.3,-58.82 920.71,-60.96"/>
</g>
<!-- n16&#45;&gt;n12 -->
<g id="edge15" class="edge">
<title>n16&#45;&gt;n12</title>
<path fill="none" stroke="#64748b" d="M698.11,-159.54C653.9,-150.74 610.12,-138.76 594,-124 576.3,-107.79 569.04,-80.79 566.06,-60.77"/>
<polygon fill="#64748b" stroke="#64748b" points="568.5,-60.54 565.19,-53.9 563.64,-61.16 568.5,-60.54"/>
</g>
<!-- n16&#45;&gt;n13 -->
<g id="edge13" class="edge">
<title>n16&#45;&gt;n13</title>
<path fill="none" stroke="#64748b" d="M777.03,-159.52C757.3,-149.92 732.7,-137.96 711.96,-127.88"/>
<polygon fill="#64748b" stroke="#64748b" points="713.24,-125.78 705.87,-124.92 711.09,-130.19 713.24,-125.78"/>
</g>
<!-- n16&#45;&gt;n15 -->
<g id="edge14" class="edge">
<title>n16&#45;&gt;n15</title>
<path fill="none" stroke="#64748b" d="M813,-159.7C813,-151.47 813,-141.48 813,-132.42"/>
<polygon fill="#64748b" stroke="#64748b" points="815.45,-132.62 813,-125.62 810.55,-132.62 815.45,-132.62"/>
</g>
<!-- n17 -->
<g id="node18" class="node">
<title>n17</title>
<g id="a_node18"><a xlink:href="vscode://vscode-remote/wsl+Ubuntu/tmp/statlib-main-refresh.tmBBiR/Statlib/HighDim/CovarianceMatrix/SampleCovariance.lean:365" xlink:title="lemma · Statlib/HighDim/CovarianceMatrix/SampleCovariance.lean:365" target="_blank">
<path fill="#eef2f6" stroke="#94a3b8" d="M815.7,-268C815.7,-268 556.3,-268 556.3,-268 550.3,-268 544.3,-262 544.3,-256 544.3,-256 544.3,-244 544.3,-244 544.3,-238 550.3,-232 556.3,-232 556.3,-232 815.7,-232 815.7,-232 821.7,-232 827.7,-238 827.7,-244 827.7,-244 827.7,-256 827.7,-256 827.7,-262 821.7,-268 815.7,-268"/>
<text xml:space="preserve" text-anchor="middle" x="686" y="-247" font-family="Helvetica,sans-Serif" font-size="10.00">sample_covariance_quadratic_eq_centered_projection_sum</text>
</a>
</g>
</g>
<!-- n17&#45;&gt;n1 -->
<g id="edge16" class="edge">
<title>n17&#45;&gt;n1</title>
<path fill="none" stroke="#64748b" d="M544.04,-242.87C449.84,-236.34 336.53,-223.02 297,-196 281.89,-185.67 290.2,-172.68 277,-160 263.28,-146.81 245.62,-136.2 228.72,-128.03"/>
<polygon fill="#64748b" stroke="#64748b" points="229.78,-125.82 222.4,-125.09 227.71,-130.27 229.78,-125.82"/>
</g>
<!-- n17&#45;&gt;n3 -->
<g id="edge18" class="edge">
<title>n17&#45;&gt;n3</title>
<path fill="none" stroke="#64748b" d="M828.09,-233.9C885.19,-225.43 942.75,-213.06 965,-196 985.26,-180.47 996.49,-152.94 1002.35,-132.59"/>
<polygon fill="#64748b" stroke="#64748b" points="1004.71,-133.23 1004.15,-125.84 999.98,-131.97 1004.71,-133.23"/>
</g>
<!-- n17&#45;&gt;n7 -->
<g id="edge17" class="edge">
<title>n17&#45;&gt;n7</title>
<path fill="none" stroke="#64748b" d="M808.65,-231.54C872.97,-221.13 940.41,-207.71 950,-196 960.14,-183.62 952.16,-175.85 950,-160 947.76,-143.55 943.16,-140.3 940,-124 935.88,-102.75 933.29,-78.29 931.77,-60.4"/>
<polygon fill="#64748b" stroke="#64748b" points="934.24,-60.48 931.24,-53.69 929.35,-60.87 934.24,-60.48"/>
</g>
<!-- n17&#45;&gt;n13 -->
<g id="edge19" class="edge">
<title>n17&#45;&gt;n13</title>
<path fill="none" stroke="#64748b" d="M682.29,-231.89C680.16,-221.54 677.61,-208.07 676,-196 673.17,-174.74 671.35,-150.47 670.28,-132.64"/>
<polygon fill="#64748b" stroke="#64748b" points="672.75,-132.81 669.9,-125.96 667.85,-133.09 672.75,-132.81"/>
</g>
<!-- n17&#45;&gt;n14 -->
<g id="edge20" class="edge">
<title>n17&#45;&gt;n14</title>
<path fill="none" stroke="#64748b" d="M651.53,-231.52C632.7,-221.97 609.25,-210.07 589.43,-200.01"/>
<polygon fill="#64748b" stroke="#64748b" points="590.73,-197.93 583.38,-196.95 588.51,-202.3 590.73,-197.93"/>
</g>
<!-- n17&#45;&gt;n16 -->
<g id="edge21" class="edge">
<title>n17&#45;&gt;n16</title>
<path fill="none" stroke="#64748b" d="M717.72,-231.52C734.97,-222.01 756.44,-210.17 774.63,-200.15"/>
<polygon fill="#64748b" stroke="#64748b" points="775.41,-202.52 780.36,-196.99 773.05,-198.22 775.41,-202.52"/>
</g>
<!-- n18 -->
<g id="node19" class="node">
<title>n18</title>
<g id="a_node19"><a xlink:href="vscode://vscode-remote/wsl+Ubuntu/tmp/statlib-main-refresh.tmBBiR/Statlib/HighDim/CovarianceMatrix/SampleCovariance.lean:225" xlink:title="lemma · Statlib/HighDim/CovarianceMatrix/SampleCovariance.lean:225" target="_blank">
<path fill="#eef2f6" stroke="#94a3b8" d="M1213.59,-268C1213.59,-268 1120.41,-268 1120.41,-268 1114.41,-268 1108.41,-262 1108.41,-256 1108.41,-256 1108.41,-244 1108.41,-244 1108.41,-238 1114.41,-232 1120.41,-232 1120.41,-232 1213.59,-232 1213.59,-232 1219.59,-232 1225.59,-238 1225.59,-244 1225.59,-244 1225.59,-256 1225.59,-256 1225.59,-262 1219.59,-268 1213.59,-268"/>
<text xml:space="preserve" text-anchor="middle" x="1167" y="-247" font-family="Helvetica,sans-Serif" font-size="10.00">projection_measurable</text>
</a>
</g>
</g>
<!-- n19 -->
<g id="node20" class="node">
<title>n19</title>
<g id="a_node20"><a xlink:href="vscode://vscode-remote/wsl+Ubuntu/tmp/statlib-main-refresh.tmBBiR/Statlib/HighDim/CovarianceMatrix/SampleCovariance.lean:299" xlink:title="lemma · Statlib/HighDim/CovarianceMatrix/SampleCovariance.lean:299" target="_blank">
<path fill="#eef2f6" stroke="#94a3b8" d="M418.48,-196C418.48,-196 317.52,-196 317.52,-196 311.52,-196 305.52,-190 305.52,-184 305.52,-184 305.52,-172 305.52,-172 305.52,-166 311.52,-160 317.52,-160 317.52,-160 418.48,-160 418.48,-160 424.48,-160 430.48,-166 430.48,-172 430.48,-172 430.48,-184 430.48,-184 430.48,-190 424.48,-196 418.48,-196"/>
<text xml:space="preserve" text-anchor="middle" x="368" y="-175" font-family="Helvetica,sans-Serif" font-size="10.00">projection_sq_integrable</text>
</a>
</g>
</g>
<!-- n19&#45;&gt;n1 -->
<g id="edge22" class="edge">
<title>n19&#45;&gt;n1</title>
<path fill="none" stroke="#64748b" d="M319.05,-159.52C291.58,-149.71 257.19,-137.43 228.58,-127.21"/>
<polygon fill="#64748b" stroke="#64748b" points="229.51,-124.94 222.09,-124.89 227.86,-129.55 229.51,-124.94"/>
</g>
<!-- n19&#45;&gt;n12 -->
<g id="edge23" class="edge">
<title>n19&#45;&gt;n12</title>
<path fill="none" stroke="#64748b" d="M392.03,-159.59C427.69,-133.75 494.58,-85.29 533.6,-57.03"/>
<polygon fill="#64748b" stroke="#64748b" points="534.62,-59.31 538.85,-53.22 531.75,-55.34 534.62,-59.31"/>
</g>
<!-- n30 -->
<g id="node21" class="node">
<title>n30</title>
<g id="a_node21"><a xlink:href="vscode://vscode-remote/wsl+Ubuntu/tmp/statlib-main-refresh.tmBBiR/Statlib/HighDim/CovarianceMatrix/SampleCovariance.lean:445" xlink:title="theorem · Statlib/HighDim/CovarianceMatrix/SampleCovariance.lean:445" target="_blank">
<path fill="#ffe6a3" stroke="#d4a017" d="M1119.21,-341.2C1119.21,-341.2 978.79,-341.2 978.79,-341.2 972.79,-341.2 966.79,-335.2 966.79,-329.2 966.79,-329.2 966.79,-317.2 966.79,-317.2 966.79,-311.2 972.79,-305.2 978.79,-305.2 978.79,-305.2 1119.21,-305.2 1119.21,-305.2 1125.21,-305.2 1131.21,-311.2 1131.21,-317.2 1131.21,-317.2 1131.21,-329.2 1131.21,-329.2 1131.21,-335.2 1125.21,-341.2 1119.21,-341.2"/>
<text xml:space="preserve" text-anchor="middle" x="1049" y="-320.2" font-family="Helvetica,sans-Serif" font-size="10.00">sampleCovariance_concentration</text>
</a>
</g>
</g>
<!-- n30&#45;&gt;n0 -->
<g id="edge35" class="edge">
<title>n30&#45;&gt;n0</title>
<path fill="none" stroke="#64748b" d="M1131.52,-316.09C1177.07,-312.77 1234.65,-308.65 1286,-305.2 1300.22,-304.25 1401.31,-303.68 1414,-297.2 1423.68,-292.25 1431.8,-283.63 1438.01,-275.16"/>
<polygon fill="#64748b" stroke="#64748b" points="1440.01,-276.58 1441.93,-269.41 1435.96,-273.82 1440.01,-276.58"/>
</g>
<!-- n30&#45;&gt;n1 -->
<g id="edge36" class="edge">
<title>n30&#45;&gt;n1</title>
<path fill="none" stroke="#64748b" d="M966.38,-319.52C862.11,-316.14 677.27,-310.18 519,-305.2 504.61,-304.75 272.64,-304.09 260,-297.2 229.08,-280.36 244.01,-251.96 215,-232 159.23,-193.63 108.83,-249.23 67,-196 57.11,-183.42 58.61,-173.63 67,-160 76.51,-144.54 92.08,-133.43 108.35,-125.51"/>
<polygon fill="#64748b" stroke="#64748b" points="109.12,-127.85 114.47,-122.72 107.09,-123.39 109.12,-127.85"/>
</g>
<!-- n30&#45;&gt;n2 -->
<g id="edge37" class="edge">
<title>n30&#45;&gt;n2</title>
<path fill="none" stroke="#64748b" d="M966.34,-318.29C882.6,-314.45 749.32,-308.68 634,-305.2 611.01,-304.51 241.97,-304.03 220,-297.2 204.16,-292.28 188.56,-282.59 176.12,-273.35"/>
<polygon fill="#64748b" stroke="#64748b" points="177.79,-271.55 170.75,-269.22 174.8,-275.43 177.79,-271.55"/>
</g>
<!-- n30&#45;&gt;n3 -->
<g id="edge38" class="edge">
<title>n30&#45;&gt;n3</title>
<path fill="none" stroke="#64748b" d="M1058.44,-304.88C1059.7,-302.33 1060.93,-299.72 1062,-297.2 1073.98,-269.06 1061.92,-253.16 1084,-232 1125.44,-192.3 1173.54,-241.89 1208,-196 1217.61,-183.21 1217.76,-172.68 1208,-160 1203.78,-154.51 1132.11,-136.41 1075.76,-122.88"/>
<polygon fill="#64748b" stroke="#64748b" points="1076.41,-120.52 1069.04,-121.27 1075.27,-125.29 1076.41,-120.52"/>
</g>
<!-- n30&#45;&gt;n4 -->
<g id="edge39" class="edge">
<title>n30&#45;&gt;n4</title>
<path fill="none" stroke="#64748b" d="M966.54,-319.78C802.53,-314.84 448.9,-303.54 423,-297.2 340.84,-277.09 253.29,-228.95 206.41,-200.7"/>
<polygon fill="#64748b" stroke="#64748b" points="207.79,-198.67 200.53,-197.13 205.24,-202.86 207.79,-198.67"/>
</g>
<!-- n30&#45;&gt;n5 -->
<g id="edge40" class="edge">
<title>n30&#45;&gt;n5</title>
<path fill="none" stroke="#64748b" d="M1048.72,-304.9C1049.1,-285.95 1051.8,-255.18 1064,-232 1069.97,-220.65 1079.28,-210.32 1088.55,-201.85"/>
<polygon fill="#64748b" stroke="#64748b" points="1090.11,-203.73 1093.78,-197.29 1086.89,-200.04 1090.11,-203.73"/>
</g>
<!-- n30&#45;&gt;n6 -->
<g id="edge41" class="edge">
<title>n30&#45;&gt;n6</title>
<path fill="none" stroke="#64748b" d="M1026.97,-304.96C1014.88,-295.5 999.74,-283.66 986.72,-273.47"/>
<polygon fill="#64748b" stroke="#64748b" points="988.36,-271.64 981.33,-269.26 985.34,-275.5 988.36,-271.64"/>
</g>
<!-- n30&#45;&gt;n7 -->
<g id="edge43" class="edge">
<title>n30&#45;&gt;n7</title>
<path fill="none" stroke="#64748b" d="M1071.83,-304.77C1074.12,-302.4 1076.24,-299.86 1078,-297.2 1094.82,-271.83 1077.31,-253.36 1099,-232 1138.07,-193.53 1184.37,-240.07 1217,-196 1226.52,-183.14 1226.64,-172.77 1217,-160 1181.93,-113.5 1134.51,-162.72 1091,-124 1078.05,-112.48 1088.54,-99.97 1076,-88 1047.8,-61.08 1004.88,-47.66 972.87,-41.08"/>
<polygon fill="#64748b" stroke="#64748b" points="973.39,-38.69 966.05,-39.76 972.46,-43.5 973.39,-38.69"/>
</g>
<!-- n30&#45;&gt;n11 -->
<g id="edge42" class="edge">
<title>n30&#45;&gt;n11</title>
<path fill="none" stroke="#64748b" d="M1131.36,-317.28C1164.17,-313.74 1201.91,-307.66 1235,-297.2 1253.86,-291.24 1273.5,-281.47 1289.53,-272.45"/>
<polygon fill="#64748b" stroke="#64748b" points="1290.46,-274.74 1295.31,-269.13 1288.02,-270.49 1290.46,-274.74"/>
</g>
<!-- n30&#45;&gt;n17 -->
<g id="edge44" class="edge">
<title>n30&#45;&gt;n17</title>
<path fill="none" stroke="#64748b" d="M966.5,-311.8C938.05,-307.79 906.03,-302.81 877,-297.2 837.92,-289.65 794.79,-279.39 759.41,-270.45"/>
<polygon fill="#64748b" stroke="#64748b" points="760.38,-268.17 752.99,-268.82 759.17,-272.92 760.38,-268.17"/>
</g>
<!-- n30&#45;&gt;n18 -->
<g id="edge45" class="edge">
<title>n30&#45;&gt;n18</title>
<path fill="none" stroke="#64748b" d="M1080.6,-304.94C1085.12,-302.39 1089.7,-299.75 1094,-297.2 1106.94,-289.52 1120.95,-280.77 1133.2,-272.96"/>
<polygon fill="#64748b" stroke="#64748b" points="1134.34,-275.14 1138.91,-269.3 1131.7,-271.01 1134.34,-275.14"/>
</g>
<!-- n30&#45;&gt;n19 -->
<g id="edge46" class="edge">
<title>n30&#45;&gt;n19</title>
<path fill="none" stroke="#64748b" d="M966.4,-318.77C823.67,-312.77 545.04,-300.66 535,-297.2 477.01,-277.19 421.25,-230.38 391.11,-202.04"/>
<polygon fill="#64748b" stroke="#64748b" points="392.93,-200.39 386.17,-197.33 389.55,-203.93 392.93,-200.39"/>
</g>
<!-- n28 -->
<g id="node32" class="node">
<title>n28</title>
<g id="a_node32"><a xlink:href="vscode://vscode-remote/wsl+Ubuntu/tmp/statlib-main-refresh.tmBBiR/Statlib/StatFoundation/RandomVariable/SubExponential/scalar_sq_centered_subexponential_explicit.lean:16" xlink:title="lemma · Statlib/StatFoundation/RandomVariable/SubExponential/scalar_sq_centered_subexponential_explicit.lean:16" target="_blank">
<path fill="#eef2f6" stroke="#94a3b8" d="M1751.12,-268C1751.12,-268 1562.88,-268 1562.88,-268 1556.88,-268 1550.88,-262 1550.88,-256 1550.88,-256 1550.88,-244 1550.88,-244 1550.88,-238 1556.88,-232 1562.88,-232 1562.88,-232 1751.12,-232 1751.12,-232 1757.12,-232 1763.12,-238 1763.12,-244 1763.12,-244 1763.12,-256 1763.12,-256 1763.12,-262 1757.12,-268 1751.12,-268"/>
<text xml:space="preserve" text-anchor="middle" x="1657" y="-247" font-family="Helvetica,sans-Serif" font-size="10.00">scalar_sq_centered_subexponential_explicit</text>
</a>
</g>
</g>
<!-- n30&#45;&gt;n28 -->
<g id="edge47" class="edge">
<title>n30&#45;&gt;n28</title>
<path fill="none" stroke="#64748b" d="M1131.43,-322.91C1221.02,-322.45 1368.11,-318.05 1493,-297.2 1528.35,-291.3 1566.98,-280.63 1597.86,-271.04"/>
<polygon fill="#64748b" stroke="#64748b" points="1598.56,-273.38 1604.51,-268.95 1597.09,-268.71 1598.56,-273.38"/>
</g>
<!-- n29 -->
<g id="node33" class="node">
<title>n29</title>
<g id="a_node33"><a xlink:href="vscode://vscode-remote/wsl+Ubuntu/tmp/statlib-main-refresh.tmBBiR/Statlib/StatFoundation/Concentration/ExponentialType/bernstein_sum_meas_abs_ge_le_two_exp.lean:13" xlink:title="theorem · Statlib/StatFoundation/Concentration/ExponentialType/bernstein_sum_meas_abs_ge_le_two_exp.lean:13" target="_blank">
<path fill="#ffe6a3" stroke="#d4a017" d="M2060.06,-268C2060.06,-268 1877.94,-268 1877.94,-268 1871.94,-268 1865.94,-262 1865.94,-256 1865.94,-256 1865.94,-244 1865.94,-244 1865.94,-238 1871.94,-232 1877.94,-232 1877.94,-232 2060.06,-232 2060.06,-232 2066.06,-232 2072.06,-238 2072.06,-244 2072.06,-244 2072.06,-256 2072.06,-256 2072.06,-262 2066.06,-268 2060.06,-268"/>
<text xml:space="preserve" text-anchor="middle" x="1969" y="-247" font-family="Helvetica,sans-Serif" font-size="10.00">bernstein_sum_meas_abs_ge_le_two_exp</text>
</a>
</g>
</g>
<!-- n30&#45;&gt;n29 -->
<g id="edge48" class="edge">
<title>n30&#45;&gt;n29</title>
<path fill="none" stroke="#64748b" d="M1131.6,-321.38C1294.2,-319.42 1650.54,-313.38 1772,-297.2 1815.24,-291.44 1862.88,-280.4 1900.48,-270.55"/>
<polygon fill="#64748b" stroke="#64748b" points="1900.74,-273.02 1906.88,-268.86 1899.49,-268.28 1900.74,-273.02"/>
</g>
<!-- n31 -->
<g id="node22" class="node">
<title>n31</title>
<g id="a_node22"><a xlink:href="vscode://vscode-remote/wsl+Ubuntu/tmp/statlib-main-refresh.tmBBiR/Statlib/HighDim/CovarianceMatrix/SampleCovariance.lean:1230" xlink:title="theorem · Statlib/HighDim/CovarianceMatrix/SampleCovariance.lean:1230" target="_blank">
<path fill="#ffe6a3" stroke="#d4a017" d="M1006.37,-413.2C1006.37,-413.2 877.63,-413.2 877.63,-413.2 871.63,-413.2 865.63,-407.2 865.63,-401.2 865.63,-401.2 865.63,-389.2 865.63,-389.2 865.63,-383.2 871.63,-377.2 877.63,-377.2 877.63,-377.2 1006.37,-377.2 1006.37,-377.2 1012.37,-377.2 1018.37,-383.2 1018.37,-389.2 1018.37,-389.2 1018.37,-401.2 1018.37,-401.2 1018.37,-407.2 1012.37,-413.2 1006.37,-413.2"/>
<text xml:space="preserve" text-anchor="middle" x="942" y="-392.2" font-family="Helvetica,sans-Serif" font-size="10.00">sampleCovariance_confidence</text>
</a>
</g>
</g>
<!-- n31&#45;&gt;n0 -->
<g id="edge49" class="edge">
<title>n31&#45;&gt;n0</title>
<path fill="none" stroke="#64748b" d="M1018.78,-378.46C1152.36,-351.08 1413.47,-297.52 1414,-297.2 1423.03,-291.75 1430.88,-283.36 1437.06,-275.21"/>
<polygon fill="#64748b" stroke="#64748b" points="1438.9,-276.85 1440.97,-269.72 1434.91,-274 1438.9,-276.85"/>
</g>
<!-- n31&#45;&gt;n1 -->
<g id="edge50" class="edge">
<title>n31&#45;&gt;n1</title>
<path fill="none" stroke="#64748b" d="M865.15,-390.46C665.73,-380.06 143.16,-348.2 85,-297.2 38.14,-256.11 22.31,-212.43 56,-160 67.83,-141.58 87.83,-129.48 107.92,-121.57"/>
<polygon fill="#64748b" stroke="#64748b" points="108.76,-123.88 114.49,-119.16 107.07,-119.28 108.76,-123.88"/>
</g>
<!-- n31&#45;&gt;n2 -->
<g id="edge51" class="edge">
<title>n31&#45;&gt;n2</title>
<path fill="none" stroke="#64748b" d="M865.18,-379.21C757.91,-358.91 556.95,-323.16 384,-305.2 347.71,-301.43 254.68,-308.54 220,-297.2 204.35,-292.08 188.87,-282.47 176.46,-273.34"/>
<polygon fill="#64748b" stroke="#64748b" points="178.16,-271.55 171.11,-269.26 175.19,-275.45 178.16,-271.55"/>
</g>
<!-- n31&#45;&gt;n3 -->
<g id="edge52" class="edge">
<title>n31&#45;&gt;n3</title>
<path fill="none" stroke="#64748b" d="M924.79,-377.07C895.42,-345.74 842.01,-278.19 877,-232 912.68,-184.89 968.53,-242.5 1005,-196 1018.88,-178.3 1017.95,-151.98 1014.57,-132.55"/>
<polygon fill="#64748b" stroke="#64748b" points="1017.01,-132.29 1013.24,-125.91 1012.21,-133.25 1017.01,-132.29"/>
</g>
<!-- n31&#45;&gt;n30 -->
<g id="edge53" class="edge">
<title>n31&#45;&gt;n30</title>
<path fill="none" stroke="#64748b" d="M968.72,-376.72C983,-367.38 1000.71,-355.79 1015.86,-345.88"/>
<polygon fill="#64748b" stroke="#64748b" points="1016.83,-348.17 1021.35,-342.29 1014.15,-344.07 1016.83,-348.17"/>
</g>
<!-- n32 -->
<g id="node23" class="node">
<title>n32</title>
<g id="a_node23"><a xlink:href="vscode://vscode-remote/wsl+Ubuntu/tmp/statlib-main-refresh.tmBBiR/Statlib/HighDim/CovarianceMatrix/SampleCovEigenvalueLower.lean:21" xlink:title="theorem · Statlib/HighDim/CovarianceMatrix/SampleCovEigenvalueLower.lean:21" target="_blank">
<path fill="#ffe6a3" stroke="#d4a017" stroke-width="3" d="M904.7,-485.2C904.7,-485.2 789.3,-485.2 789.3,-485.2 783.3,-485.2 777.3,-479.2 777.3,-473.2 777.3,-473.2 777.3,-461.2 777.3,-461.2 777.3,-455.2 783.3,-449.2 789.3,-449.2 789.3,-449.2 904.7,-449.2 904.7,-449.2 910.7,-449.2 916.7,-455.2 916.7,-461.2 916.7,-461.2 916.7,-473.2 916.7,-473.2 916.7,-479.2 910.7,-485.2 904.7,-485.2"/>
<text xml:space="preserve" text-anchor="middle" x="847" y="-464.2" font-family="Helvetica,sans-Serif" font-size="10.00">sample_cov_min_eig_lower</text>
</a>
</g>
</g>
<!-- n32&#45;&gt;n0 -->
<g id="edge54" class="edge">
<title>n32&#45;&gt;n0</title>
<path fill="none" stroke="#64748b" d="M918.15,-448.28C1006.96,-425.46 1163.25,-383.86 1295,-341.2 1348.65,-323.83 1368.05,-329.89 1414,-297.2 1422.46,-291.18 1430.11,-282.81 1436.29,-274.85"/>
<polygon fill="#64748b" stroke="#64748b" points="1438.03,-276.62 1440.22,-269.54 1434.09,-273.71 1438.03,-276.62"/>
</g>
<!-- n32&#45;&gt;n1 -->
<g id="edge55" class="edge">
<title>n32&#45;&gt;n1</title>
<path fill="none" stroke="#64748b" d="M775.88,-461.5C574.85,-447.28 17,-400.9 17,-324.2 17,-324.2 17,-324.2 17,-249 17,-208.55 9.8,-190.81 36,-160 54.23,-138.57 82.22,-125.76 108.08,-118.12"/>
<polygon fill="#64748b" stroke="#64748b" points="108.48,-120.55 114.57,-116.32 107.17,-115.83 108.48,-120.55"/>
</g>
<!-- n32&#45;&gt;n2 -->
<g id="edge56" class="edge">
<title>n32&#45;&gt;n2</title>
<path fill="none" stroke="#64748b" d="M775.84,-454.69C656.86,-433.79 411.7,-383.57 220,-297.2 205.8,-290.8 191.24,-281.68 179.1,-273.23"/>
<polygon fill="#64748b" stroke="#64748b" points="180.61,-271.3 173.49,-269.24 177.77,-275.29 180.61,-271.3"/>
</g>
<!-- n32&#45;&gt;n3 -->
<g id="edge57" class="edge">
<title>n32&#45;&gt;n3</title>
<path fill="none" stroke="#64748b" d="M845.57,-447.72C842.15,-398.38 835.62,-265.03 862,-232 897.28,-187.83 944.5,-236.44 984,-196 1000.46,-179.15 1005.93,-152.24 1007.6,-132.42"/>
<polygon fill="#64748b" stroke="#64748b" points="1010.03,-132.8 1008.02,-125.66 1005.14,-132.49 1010.03,-132.8"/>
</g>
<!-- n32&#45;&gt;n31 -->
<g id="edge58" class="edge">
<title>n32&#45;&gt;n31</title>
<path fill="none" stroke="#64748b" d="M871.96,-447.81C884.23,-438.77 899.1,-427.81 911.98,-418.32"/>
<polygon fill="#64748b" stroke="#64748b" points="913.11,-420.53 917.29,-414.4 910.21,-416.58 913.11,-420.53"/>
</g>
<!-- n20 -->
<g id="node24" class="node">
<title>n20</title>
<g id="a_node24"><a xlink:href="vscode://vscode-remote/wsl+Ubuntu/tmp/statlib-main-refresh.tmBBiR/Statlib/StatFoundation/Vocabulary/RandomVariable.lean:74" xlink:title="structure · Statlib/StatFoundation/Vocabulary/RandomVariable.lean:74" target="_blank">
<path fill="#e8dcff" stroke="#8b5cf6" d="M2062.47,-196C2062.47,-196 1961.53,-196 1961.53,-196 1955.53,-196 1949.53,-190 1949.53,-184 1949.53,-184 1949.53,-172 1949.53,-172 1949.53,-166 1955.53,-160 1961.53,-160 1961.53,-160 2062.47,-160 2062.47,-160 2068.47,-160 2074.47,-166 2074.47,-172 2074.47,-172 2074.47,-184 2074.47,-184 2074.47,-190 2068.47,-196 2062.47,-196"/>
<text xml:space="preserve" text-anchor="middle" x="2012" y="-175" font-family="Helvetica,sans-Serif" font-size="10.00">HasSubexponentialMGF</text>
</a>
</g>
</g>
<!-- n21 -->
<g id="node25" class="node">
<title>n21</title>
<g id="a_node25"><a xlink:href="vscode://vscode-remote/wsl+Ubuntu/tmp/statlib-main-refresh.tmBBiR/Statlib/StatFoundation/RandomVariable/SubGaussian/subgaussian_meas_abs_ge_le_two_exp.lean:9" xlink:title="theorem · Statlib/StatFoundation/RandomVariable/SubGaussian/subgaussian_meas_abs_ge_le_two_exp.lean:9" target="_blank">
<path fill="#ffe6a3" stroke="#d4a017" d="M1811.34,-52C1811.34,-52 1638.66,-52 1638.66,-52 1632.66,-52 1626.66,-46 1626.66,-40 1626.66,-40 1626.66,-28 1626.66,-28 1626.66,-22 1632.66,-16 1638.66,-16 1638.66,-16 1811.34,-16 1811.34,-16 1817.34,-16 1823.34,-22 1823.34,-28 1823.34,-28 1823.34,-40 1823.34,-40 1823.34,-46 1817.34,-52 1811.34,-52"/>
<text xml:space="preserve" text-anchor="middle" x="1725" y="-31" font-family="Helvetica,sans-Serif" font-size="10.00">subgaussian_meas_abs_ge_le_two_exp</text>
</a>
</g>
</g>
<!-- n22 -->
<g id="node26" class="node">
<title>n22</title>
<g id="a_node26"><a xlink:href="vscode://vscode-remote/wsl+Ubuntu/tmp/statlib-main-refresh.tmBBiR/Statlib/StatFoundation/RandomVariable/SubGaussian/subgaussian_exp_sq_le_at_one_third.lean:165" xlink:title="theorem · Statlib/StatFoundation/RandomVariable/SubGaussian/subgaussian_exp_sq_le_at_one_third.lean:165" target="_blank">
<path fill="#ffe6a3" stroke="#d4a017" d="M1713.3,-124C1713.3,-124 1516.7,-124 1516.7,-124 1510.7,-124 1504.7,-118 1504.7,-112 1504.7,-112 1504.7,-100 1504.7,-100 1504.7,-94 1510.7,-88 1516.7,-88 1516.7,-88 1713.3,-88 1713.3,-88 1719.3,-88 1725.3,-94 1725.3,-100 1725.3,-100 1725.3,-112 1725.3,-112 1725.3,-118 1719.3,-124 1713.3,-124"/>
<text xml:space="preserve" text-anchor="middle" x="1615" y="-103" font-family="Helvetica,sans-Serif" font-size="10.00">subgaussian_integrable_exp_sq_at_one_third</text>
</a>
</g>
</g>
<!-- n22&#45;&gt;n21 -->
<g id="edge24" class="edge">
<title>n22&#45;&gt;n21</title>
<path fill="none" stroke="#64748b" d="M1642.47,-87.52C1657.15,-78.18 1675.36,-66.59 1690.93,-56.68"/>
<polygon fill="#64748b" stroke="#64748b" points="1692.01,-58.9 1696.6,-53.07 1689.38,-54.76 1692.01,-58.9"/>
</g>
<!-- n23 -->
<g id="node27" class="node">
<title>n23</title>
<g id="a_node27"><a xlink:href="vscode://vscode-remote/wsl+Ubuntu/tmp/statlib-main-refresh.tmBBiR/Statlib/StatFoundation/RandomVariable/SubExponential/scalar_sq_centered_exp_integrable.lean:12" xlink:title="lemma · Statlib/StatFoundation/RandomVariable/SubExponential/scalar_sq_centered_exp_integrable.lean:12" target="_blank">
<path fill="#eef2f6" stroke="#94a3b8" d="M1690.22,-196C1690.22,-196 1539.78,-196 1539.78,-196 1533.78,-196 1527.78,-190 1527.78,-184 1527.78,-184 1527.78,-172 1527.78,-172 1527.78,-166 1533.78,-160 1539.78,-160 1539.78,-160 1690.22,-160 1690.22,-160 1696.22,-160 1702.22,-166 1702.22,-172 1702.22,-172 1702.22,-184 1702.22,-184 1702.22,-190 1696.22,-196 1690.22,-196"/>
<text xml:space="preserve" text-anchor="middle" x="1615" y="-175" font-family="Helvetica,sans-Serif" font-size="10.00">scalar_sq_centered_exp_integrable</text>
</a>
</g>
</g>
<!-- n23&#45;&gt;n22 -->
<g id="edge25" class="edge">
<title>n23&#45;&gt;n22</title>
<path fill="none" stroke="#64748b" d="M1615,-159.7C1615,-151.47 1615,-141.48 1615,-132.42"/>
<polygon fill="#64748b" stroke="#64748b" points="1617.45,-132.62 1615,-125.62 1612.55,-132.62 1617.45,-132.62"/>
</g>
<!-- n24 -->
<g id="node28" class="node">
<title>n24</title>
<g id="a_node28"><a xlink:href="vscode://vscode-remote/wsl+Ubuntu/tmp/statlib-main-refresh.tmBBiR/Statlib/StatFoundation/RandomVariable/SubExponential/subexp_mgf_le_of_sq_subgaussian.lean:13" xlink:title="lemma · Statlib/StatFoundation/RandomVariable/SubExponential/subexp_mgf_le_of_sq_subgaussian.lean:13" target="_blank">
<path fill="#eef2f6" stroke="#94a3b8" d="M2038.2,-124C2038.2,-124 1957.8,-124 1957.8,-124 1951.8,-124 1945.8,-118 1945.8,-112 1945.8,-112 1945.8,-100 1945.8,-100 1945.8,-94 1951.8,-88 1957.8,-88 1957.8,-88 2038.2,-88 2038.2,-88 2044.2,-88 2050.2,-94 2050.2,-100 2050.2,-100 2050.2,-112 2050.2,-112 2050.2,-118 2044.2,-124 2038.2,-124"/>
<text xml:space="preserve" text-anchor="middle" x="1998" y="-103" font-family="Helvetica,sans-Serif" font-size="10.00">sub_gauss_tail_abs</text>
</a>
</g>
</g>
<!-- n25 -->
<g id="node29" class="node">
<title>n25</title>
<g id="a_node29"><a xlink:href="vscode://vscode-remote/wsl+Ubuntu/tmp/statlib-main-refresh.tmBBiR/Statlib/StatFoundation/RandomVariable/SubGaussian/sq_le_two_mul_exp.lean:10" xlink:title="lemma · Statlib/StatFoundation/RandomVariable/SubGaussian/sq_le_two_mul_exp.lean:10" target="_blank">
<path fill="#eef2f6" stroke="#94a3b8" d="M2160.19,-124C2160.19,-124 2079.81,-124 2079.81,-124 2073.81,-124 2067.81,-118 2067.81,-112 2067.81,-112 2067.81,-100 2067.81,-100 2067.81,-94 2073.81,-88 2079.81,-88 2079.81,-88 2160.19,-88 2160.19,-88 2166.19,-88 2172.19,-94 2172.19,-100 2172.19,-100 2172.19,-112 2172.19,-112 2172.19,-118 2166.19,-124 2160.19,-124"/>
<text xml:space="preserve" text-anchor="middle" x="2120" y="-103" font-family="Helvetica,sans-Serif" font-size="10.00">sq_le_two_mul_exp</text>
</a>
</g>
</g>
<!-- n26 -->
<g id="node30" class="node">
<title>n26</title>
<g id="a_node30"><a xlink:href="vscode://vscode-remote/wsl+Ubuntu/tmp/statlib-main-refresh.tmBBiR/Statlib/StatFoundation/RandomVariable/SubGaussian/subgaussian_exp_sq_le_at_one_third.lean:14" xlink:title="theorem · Statlib/StatFoundation/RandomVariable/SubGaussian/subgaussian_exp_sq_le_at_one_third.lean:14" target="_blank">
<path fill="#ffe6a3" stroke="#d4a017" d="M1916.23,-124C1916.23,-124 1755.77,-124 1755.77,-124 1749.77,-124 1743.77,-118 1743.77,-112 1743.77,-112 1743.77,-100 1743.77,-100 1743.77,-94 1749.77,-88 1755.77,-88 1755.77,-88 1916.23,-88 1916.23,-88 1922.23,-88 1928.23,-94 1928.23,-100 1928.23,-100 1928.23,-112 1928.23,-112 1928.23,-118 1922.23,-124 1916.23,-124"/>
<text xml:space="preserve" text-anchor="middle" x="1836" y="-103" font-family="Helvetica,sans-Serif" font-size="10.00">subgaussian_exp_sq_le_at_one_third</text>
</a>
</g>
</g>
<!-- n26&#45;&gt;n21 -->
<g id="edge26" class="edge">
<title>n26&#45;&gt;n21</title>
<path fill="none" stroke="#64748b" d="M1808.28,-87.52C1793.46,-78.18 1775.1,-66.59 1759.38,-56.68"/>
<polygon fill="#64748b" stroke="#64748b" points="1760.88,-54.73 1753.65,-53.07 1758.26,-58.87 1760.88,-54.73"/>
</g>
<!-- n27 -->
<g id="node31" class="node">
<title>n27</title>
<g id="a_node31"><a xlink:href="vscode://vscode-remote/wsl+Ubuntu/tmp/statlib-main-refresh.tmBBiR/Statlib/StatFoundation/RandomVariable/SubExponential/subexp_mgf_le_of_sq_subgaussian.lean:72" xlink:title="theorem · Statlib/StatFoundation/RandomVariable/SubExponential/subexp_mgf_le_of_sq_subgaussian.lean:72" target="_blank">
<path fill="#ffe6a3" stroke="#d4a017" d="M1919.84,-196C1919.84,-196 1732.16,-196 1732.16,-196 1726.16,-196 1720.16,-190 1720.16,-184 1720.16,-184 1720.16,-172 1720.16,-172 1720.16,-166 1726.16,-160 1732.16,-160 1732.16,-160 1919.84,-160 1919.84,-160 1925.84,-160 1931.84,-166 1931.84,-172 1931.84,-172 1931.84,-184 1931.84,-184 1931.84,-190 1925.84,-196 1919.84,-196"/>
<text xml:space="preserve" text-anchor="middle" x="1826" y="-175" font-family="Helvetica,sans-Serif" font-size="10.00">subexp_mgf_le_of_sq_subgaussian_explicit</text>
</a>
</g>
</g>
<!-- n27&#45;&gt;n22 -->
<g id="edge30" class="edge">
<title>n27&#45;&gt;n22</title>
<path fill="none" stroke="#64748b" d="M1773.3,-159.52C1743.48,-149.62 1706.08,-137.22 1675.12,-126.94"/>
<polygon fill="#64748b" stroke="#64748b" points="1676.25,-124.74 1668.83,-124.86 1674.7,-129.39 1676.25,-124.74"/>
</g>
<!-- n27&#45;&gt;n24 -->
<g id="edge27" class="edge">
<title>n27&#45;&gt;n24</title>
<path fill="none" stroke="#64748b" d="M1868.96,-159.52C1892.86,-149.79 1922.72,-137.64 1947.71,-127.47"/>
<polygon fill="#64748b" stroke="#64748b" points="1948.33,-129.86 1953.89,-124.95 1946.48,-125.32 1948.33,-129.86"/>
</g>
<!-- n27&#45;&gt;n25 -->
<g id="edge28" class="edge">
<title>n27&#45;&gt;n25</title>
<path fill="none" stroke="#64748b" d="M1907.1,-159.56C1952,-149.65 2008.73,-136.72 2059,-124 2059.09,-123.98 2059.17,-123.96 2059.26,-123.93"/>
<polygon fill="#64748b" stroke="#64748b" points="2059.84,-126.31 2066,-122.19 2058.61,-121.57 2059.84,-126.31"/>
</g>
<!-- n27&#45;&gt;n26 -->
<g id="edge29" class="edge">
<title>n27&#45;&gt;n26</title>
<path fill="none" stroke="#64748b" d="M1828.47,-159.7C1829.65,-151.47 1831.07,-141.48 1832.37,-132.42"/>
<polygon fill="#64748b" stroke="#64748b" points="1834.78,-132.88 1833.34,-125.6 1829.93,-132.19 1834.78,-132.88"/>
</g>
<!-- n28&#45;&gt;n20 -->
<g id="edge31" class="edge">
<title>n28&#45;&gt;n20</title>
<path fill="none" stroke="#64748b" d="M1757.46,-231.53C1811.91,-221.74 1880.29,-208.92 1941,-196 1941.09,-195.98 1941.17,-195.96 1941.26,-195.95"/>
<polygon fill="#64748b" stroke="#64748b" points="1941.52,-198.4 1947.84,-194.51 1940.48,-193.61 1941.52,-198.4"/>
</g>
<!-- n28&#45;&gt;n23 -->
<g id="edge32" class="edge">
<title>n28&#45;&gt;n23</title>
<path fill="none" stroke="#64748b" d="M1646.62,-231.7C1641.48,-223.14 1635.19,-212.66 1629.58,-203.3"/>
<polygon fill="#64748b" stroke="#64748b" points="1631.74,-202.14 1626.04,-197.4 1627.54,-204.67 1631.74,-202.14"/>
</g>
<!-- n28&#45;&gt;n27 -->
<g id="edge33" class="edge">
<title>n28&#45;&gt;n27</title>
<path fill="none" stroke="#64748b" d="M1699.21,-231.52C1722.59,-221.83 1751.78,-209.74 1776.27,-199.6"/>
<polygon fill="#64748b" stroke="#64748b" points="1777.11,-201.9 1782.64,-196.96 1775.23,-197.38 1777.11,-201.9"/>
</g>
<!-- n29&#45;&gt;n20 -->
<g id="edge34" class="edge">
<title>n29&#45;&gt;n20</title>
<path fill="none" stroke="#64748b" d="M1979.63,-231.7C1984.89,-223.14 1991.33,-212.66 1997.07,-203.3"/>
<polygon fill="#64748b" stroke="#64748b" points="1999.12,-204.64 2000.7,-197.39 1994.95,-202.08 1999.12,-204.64"/>
</g>
</g>
</svg>
