<?xml version="1.0" encoding="UTF-8" standalone="no"?>
<!DOCTYPE svg PUBLIC "-//W3C//DTD SVG 1.1//EN"
 "http://www.w3.org/Graphics/SVG/1.1/DTD/svg11.dtd">
<!-- Generated by graphviz version 15.0.0 (20260523.1842)
 -->
<!-- Title: sampleSecondMoment_upper_to_column_bound Pages: 1 -->
<svg width="614pt" height="410pt"
 viewBox="0.00 0.00 614.00 410.00" xmlns="http://www.w3.org/2000/svg" xmlns:xlink="http://www.w3.org/1999/xlink">
<g id="graph0" class="graph" transform="scale(1 1) rotate(0) translate(4 406)">
<title>sampleSecondMoment_upper_to_column_bound</title>
<polygon fill="white" stroke="none" points="-4,4 -4,-406 610,-406 610,4 -4,4"/>
<text xml:space="preserve" text-anchor="middle" x="303" y="-385.4" font-family="Helvetica,sans-Serif" font-size="14.00">Proof narrative — sampleSecondMoment_upper_to_column_bound &#160;(11 decls)</text>
<g id="clust1" class="cluster">
<title>cluster_0</title>
<path fill="none" stroke="#cbd5e1" stroke-dasharray="5,2" d="M20,-8C20,-8 586,-8 586,-8 592,-8 598,-14 598,-20 598,-20 598,-357.2 598,-357.2 598,-363.2 592,-369.2 586,-369.2 586,-369.2 20,-369.2 20,-369.2 14,-369.2 8,-363.2 8,-357.2 8,-357.2 8,-20 8,-20 8,-14 14,-8 20,-8"/>
<text xml:space="preserve" text-anchor="middle" x="303" y="-355.3" font-family="Helvetica,sans-Serif" font-size="11.00">HighDim</text>
</g>
<!-- n0 -->
<g id="node1" class="node">
<title>n0</title>
<g id="a_node1"><a xlink:href="https://github.com/statopia/statlib/blob/main/Statlib/HighDim/CovarianceMatrix/SampleCovariance.lean#L199" xlink:title="noncomputable def · Statlib/HighDim/CovarianceMatrix/SampleCovariance.lean:199" target="_blank">
<path fill="#d6e9ff" stroke="#3b82f6" d="M142.14,-124C142.14,-124 47.86,-124 47.86,-124 41.86,-124 35.86,-118 35.86,-112 35.86,-112 35.86,-100 35.86,-100 35.86,-94 41.86,-88 47.86,-88 47.86,-88 142.14,-88 142.14,-88 148.14,-88 154.14,-94 154.14,-100 154.14,-100 154.14,-112 154.14,-112 154.14,-118 148.14,-124 142.14,-124"/>
<text xml:space="preserve" text-anchor="middle" x="95" y="-103" font-family="Helvetica,sans-Serif" font-size="10.00">sampleSecondMoment</text>
</a>
</g>
</g>
<!-- n1 -->
<g id="node2" class="node">
<title>n1</title>
<g id="a_node2"><a xlink:href="https://github.com/statopia/statlib/blob/main/Statlib/HighDim/Regression/SampleCovarianceDesignBridge.lean#L24" xlink:title="noncomputable def · Statlib/HighDim/Regression/SampleCovarianceDesignBridge.lean:24" target="_blank">
<path fill="#d6e9ff" stroke="#3b82f6" d="M577.51,-196C577.51,-196 480.49,-196 480.49,-196 474.49,-196 468.49,-190 468.49,-184 468.49,-184 468.49,-172 468.49,-172 468.49,-166 474.49,-160 480.49,-160 480.49,-160 577.51,-160 577.51,-160 583.51,-160 589.51,-166 589.51,-172 589.51,-172 589.51,-184 589.51,-184 589.51,-190 583.51,-196 577.51,-196"/>
<text xml:space="preserve" text-anchor="middle" x="529" y="-175" font-family="Helvetica,sans-Serif" font-size="10.00">designMatrixFromRows</text>
</a>
</g>
</g>
<!-- n2 -->
<g id="node3" class="node">
<title>n2</title>
<g id="a_node3"><a xlink:href="https://github.com/statopia/statlib/blob/main/Statlib/HighDim/Vocabulary/Norms.lean#L13" xlink:title="noncomputable def · Statlib/HighDim/Vocabulary/Norms.lean:13" target="_blank">
<path fill="#d6e9ff" stroke="#3b82f6" d="M438.23,-196C438.23,-196 401.77,-196 401.77,-196 395.77,-196 389.77,-190 389.77,-184 389.77,-184 389.77,-172 389.77,-172 389.77,-166 395.77,-160 401.77,-160 401.77,-160 438.23,-160 438.23,-160 444.23,-160 450.23,-166 450.23,-172 450.23,-172 450.23,-184 450.23,-184 450.23,-190 444.23,-196 438.23,-196"/>
<text xml:space="preserve" text-anchor="middle" x="420" y="-175" font-family="Helvetica,sans-Serif" font-size="10.00">l2NormSq</text>
</a>
</g>
</g>
<!-- n3 -->
<g id="node4" class="node">
<title>n3</title>
<g id="a_node4"><a xlink:href="https://github.com/statopia/statlib/blob/main/Statlib/HighDim/Vocabulary/Norms.lean#L41" xlink:title="noncomputable def · Statlib/HighDim/Vocabulary/Norms.lean:41" target="_blank">
<path fill="#d6e9ff" stroke="#3b82f6" d="M430.13,-52C430.13,-52 385.87,-52 385.87,-52 379.87,-52 373.87,-46 373.87,-40 373.87,-40 373.87,-28 373.87,-28 373.87,-22 379.87,-16 385.87,-16 385.87,-16 430.13,-16 430.13,-16 436.13,-16 442.13,-22 442.13,-28 442.13,-28 442.13,-40 442.13,-40 442.13,-46 436.13,-52 430.13,-52"/>
<text xml:space="preserve" text-anchor="middle" x="408" y="-31" font-family="Helvetica,sans-Serif" font-size="10.00">toEuclidean</text>
</a>
</g>
</g>
<!-- n4 -->
<g id="node5" class="node">
<title>n4</title>
<g id="a_node5"><a xlink:href="https://github.com/statopia/statlib/blob/main/Statlib/HighDim/Vocabulary/Norms.lean#L32" xlink:title="lemma · Statlib/HighDim/Vocabulary/Norms.lean:32" target="_blank">
<path fill="#eef2f6" stroke="#94a3b8" d="M200.69,-52C200.69,-52 145.31,-52 145.31,-52 139.31,-52 133.31,-46 133.31,-40 133.31,-40 133.31,-28 133.31,-28 133.31,-22 139.31,-16 145.31,-16 145.31,-16 200.69,-16 200.69,-16 206.69,-16 212.69,-22 212.69,-28 212.69,-28 212.69,-40 212.69,-40 212.69,-46 206.69,-52 200.69,-52"/>
<text xml:space="preserve" text-anchor="middle" x="173" y="-31" font-family="Helvetica,sans-Serif" font-size="10.00">inner_eq_sum</text>
</a>
</g>
</g>
<!-- n5 -->
<g id="node6" class="node">
<title>n5</title>
<g id="a_node6"><a xlink:href="https://github.com/statopia/statlib/blob/main/Statlib/HighDim/CovarianceMatrix/SampleCovariance.lean#L324" xlink:title="lemma · Statlib/HighDim/CovarianceMatrix/SampleCovariance.lean:324" target="_blank">
<path fill="#eef2f6" stroke="#94a3b8" d="M461.53,-124C461.53,-124 354.47,-124 354.47,-124 348.47,-124 342.47,-118 342.47,-112 342.47,-112 342.47,-100 342.47,-100 342.47,-94 348.47,-88 354.47,-88 354.47,-88 461.53,-88 461.53,-88 467.53,-88 473.53,-94 473.53,-100 473.53,-100 473.53,-112 473.53,-112 473.53,-118 467.53,-124 461.53,-124"/>
<text xml:space="preserve" text-anchor="middle" x="408" y="-103" font-family="Helvetica,sans-Serif" font-size="10.00">matrix_quadratic_eq_sum</text>
</a>
</g>
</g>
<!-- n5&#45;&gt;n3 -->
<g id="edge1" class="edge">
<title>n5&#45;&gt;n3</title>
<path fill="none" stroke="#64748b" d="M408,-87.7C408,-79.47 408,-69.48 408,-60.42"/>
<polygon fill="#64748b" stroke="#64748b" points="410.45,-60.62 408,-53.62 405.55,-60.62 410.45,-60.62"/>
</g>
<!-- n5&#45;&gt;n4 -->
<g id="edge2" class="edge">
<title>n5&#45;&gt;n4</title>
<path fill="none" stroke="#64748b" d="M349.31,-87.52C309.58,-75.68 257.77,-60.25 220.61,-49.18"/>
<polygon fill="#64748b" stroke="#64748b" points="221.77,-46.97 214.36,-47.32 220.37,-51.67 221.77,-46.97"/>
</g>
<!-- n6 -->
<g id="node7" class="node">
<title>n6</title>
<g id="a_node7"><a xlink:href="https://github.com/statopia/statlib/blob/main/Statlib/HighDim/CovarianceMatrix/SampleCovariance.lean#L336" xlink:title="lemma · Statlib/HighDim/CovarianceMatrix/SampleCovariance.lean:336" target="_blank">
<path fill="#eef2f6" stroke="#94a3b8" d="M292.08,-124C292.08,-124 203.92,-124 203.92,-124 197.92,-124 191.92,-118 191.92,-112 191.92,-112 191.92,-100 191.92,-100 191.92,-94 197.92,-88 203.92,-88 203.92,-88 292.08,-88 292.08,-88 298.08,-88 304.08,-94 304.08,-100 304.08,-100 304.08,-112 304.08,-112 304.08,-118 298.08,-124 292.08,-124"/>
<text xml:space="preserve" text-anchor="middle" x="248" y="-103" font-family="Helvetica,sans-Serif" font-size="10.00">fin_sum_comm_three</text>
</a>
</g>
</g>
<!-- n7 -->
<g id="node8" class="node">
<title>n7</title>
<g id="a_node8"><a xlink:href="https://github.com/statopia/statlib/blob/main/Statlib/HighDim/CovarianceMatrix/SampleCovariance.lean#L346" xlink:title="lemma · Statlib/HighDim/CovarianceMatrix/SampleCovariance.lean:346" target="_blank">
<path fill="#eef2f6" stroke="#94a3b8" d="M319.52,-196C319.52,-196 88.48,-196 88.48,-196 82.48,-196 76.48,-190 76.48,-184 76.48,-184 76.48,-172 76.48,-172 76.48,-166 82.48,-160 88.48,-160 88.48,-160 319.52,-160 319.52,-160 325.52,-160 331.52,-166 331.52,-172 331.52,-172 331.52,-184 331.52,-184 331.52,-190 325.52,-196 319.52,-196"/>
<text xml:space="preserve" text-anchor="middle" x="204" y="-175" font-family="Helvetica,sans-Serif" font-size="10.00">sampleSecondMoment_quadratic_eq_projection_sum</text>
</a>
</g>
</g>
<!-- n7&#45;&gt;n0 -->
<g id="edge4" class="edge">
<title>n7&#45;&gt;n0</title>
<path fill="none" stroke="#64748b" d="M176.78,-159.52C162.23,-150.18 144.19,-138.59 128.76,-128.68"/>
<polygon fill="#64748b" stroke="#64748b" points="130.36,-126.8 123.15,-125.08 127.72,-130.92 130.36,-126.8"/>
</g>
<!-- n7&#45;&gt;n3 -->
<g id="edge3" class="edge">
<title>n7&#45;&gt;n3</title>
<path fill="none" stroke="#64748b" d="M255.73,-159.53C275.33,-151.06 296.8,-139.34 313,-124 326.29,-111.42 320.78,-101.62 333,-88 343.6,-76.19 357.3,-65.54 370.09,-56.95"/>
<polygon fill="#64748b" stroke="#64748b" points="371.28,-59.1 375.8,-53.22 368.6,-54.99 371.28,-59.1"/>
</g>
<!-- n7&#45;&gt;n4 -->
<g id="edge7" class="edge">
<title>n7&#45;&gt;n4</title>
<path fill="none" stroke="#64748b" d="M195.8,-159.72C191.32,-149.54 186.07,-136.29 183,-124 177.76,-103 175.26,-78.52 174.07,-60.55"/>
<polygon fill="#64748b" stroke="#64748b" points="176.53,-60.66 173.68,-53.81 171.64,-60.94 176.53,-60.66"/>
</g>
<!-- n7&#45;&gt;n5 -->
<g id="edge5" class="edge">
<title>n7&#45;&gt;n5</title>
<path fill="none" stroke="#64748b" d="M254.95,-159.52C283.66,-149.67 319.64,-137.32 349.5,-127.07"/>
<polygon fill="#64748b" stroke="#64748b" points="350.09,-129.46 355.91,-124.87 348.5,-124.83 350.09,-129.46"/>
</g>
<!-- n7&#45;&gt;n6 -->
<g id="edge6" class="edge">
<title>n7&#45;&gt;n6</title>
<path fill="none" stroke="#64748b" d="M214.88,-159.7C220.26,-151.14 226.84,-140.66 232.72,-131.3"/>
<polygon fill="#64748b" stroke="#64748b" points="234.79,-132.62 236.44,-125.39 230.64,-130.01 234.79,-132.62"/>
</g>
<!-- n8 -->
<g id="node9" class="node">
<title>n8</title>
<g id="a_node9"><a xlink:href="https://github.com/statopia/statlib/blob/main/Statlib/HighDim/Regression/SampleCovarianceDesignBridge.lean#L30" xlink:title="lemma · Statlib/HighDim/Regression/SampleCovarianceDesignBridge.lean:30" target="_blank">
<path fill="#eef2f6" stroke="#94a3b8" d="M315.53,-268C315.53,-268 54.47,-268 54.47,-268 48.47,-268 42.47,-262 42.47,-256 42.47,-256 42.47,-244 42.47,-244 42.47,-238 48.47,-232 54.47,-232 54.47,-232 315.53,-232 315.53,-232 321.53,-232 327.53,-238 327.53,-244 327.53,-244 327.53,-256 327.53,-256 327.53,-262 321.53,-268 315.53,-268"/>
<text xml:space="preserve" text-anchor="middle" x="185" y="-247" font-family="Helvetica,sans-Serif" font-size="10.00">design_l2NormSq_div_eq_sampleSecondMoment_quadratic</text>
</a>
</g>
</g>
<!-- n8&#45;&gt;n0 -->
<g id="edge10" class="edge">
<title>n8&#45;&gt;n0</title>
<path fill="none" stroke="#64748b" d="M112.19,-231.51C94.45,-223.65 77.55,-212.31 67,-196 54.18,-176.19 65.02,-150.11 76.74,-131.31"/>
<polygon fill="#64748b" stroke="#64748b" points="78.76,-132.69 80.56,-125.5 74.67,-130 78.76,-132.69"/>
</g>
<!-- n8&#45;&gt;n1 -->
<g id="edge9" class="edge">
<title>n8&#45;&gt;n1</title>
<path fill="none" stroke="#64748b" d="M281.28,-231.53C333.91,-221.68 400.18,-208.82 459,-196 459.38,-195.92 459.76,-195.83 460.15,-195.75"/>
<polygon fill="#64748b" stroke="#64748b" points="460.56,-198.17 466.86,-194.25 459.49,-193.39 460.56,-198.17"/>
</g>
<!-- n8&#45;&gt;n2 -->
<g id="edge8" class="edge">
<title>n8&#45;&gt;n2</title>
<path fill="none" stroke="#64748b" d="M254,-231.6C290.53,-221.95 335.98,-209.25 376,-196 377.77,-195.41 379.57,-194.8 381.39,-194.16"/>
<polygon fill="#64748b" stroke="#64748b" points="382.19,-196.48 387.94,-191.79 380.53,-191.87 382.19,-196.48"/>
</g>
<!-- n8&#45;&gt;n3 -->
<g id="edge12" class="edge">
<title>n8&#45;&gt;n3</title>
<path fill="none" stroke="#64748b" d="M286.24,-231.51C311.78,-223.67 337.9,-212.34 359,-196 373.83,-184.52 366.43,-171.8 381,-160 418.36,-129.74 455.23,-163.24 483,-124 492.24,-110.94 490.36,-102.21 483,-88 475.7,-73.9 462.73,-62.76 449.61,-54.39"/>
<polygon fill="#64748b" stroke="#64748b" points="450.91,-52.31 443.64,-50.81 448.39,-56.51 450.91,-52.31"/>
</g>
<!-- n8&#45;&gt;n4 -->
<g id="edge14" class="edge">
<title>n8&#45;&gt;n4</title>
<path fill="none" stroke="#64748b" d="M115.66,-231.5C94.74,-223.48 73.09,-212.05 57,-196 32.46,-171.51 33.8,-157.99 27,-124 23.86,-108.31 17.82,-101.1 27,-88 48.9,-56.75 91.2,-43.86 124.65,-38.57"/>
<polygon fill="#64748b" stroke="#64748b" points="124.87,-41.01 131.45,-37.6 124.18,-36.16 124.87,-41.01"/>
</g>
<!-- n8&#45;&gt;n5 -->
<g id="edge13" class="edge">
<title>n8&#45;&gt;n5</title>
<path fill="none" stroke="#64748b" d="M267.55,-231.63C292.79,-223.62 319.52,-212.18 341,-196 356.56,-184.28 354.39,-175.64 366,-160 373.14,-150.38 381.25,-140.02 388.44,-131.02"/>
<polygon fill="#64748b" stroke="#64748b" points="390.3,-132.62 392.77,-125.63 386.48,-129.55 390.3,-132.62"/>
</g>
<!-- n8&#45;&gt;n7 -->
<g id="edge11" class="edge">
<title>n8&#45;&gt;n7</title>
<path fill="none" stroke="#64748b" d="M189.7,-231.7C191.95,-223.39 194.7,-213.28 197.18,-204.14"/>
<polygon fill="#64748b" stroke="#64748b" points="199.49,-204.96 198.96,-197.57 194.76,-203.68 199.49,-204.96"/>
</g>
<!-- n9 -->
<g id="node10" class="node">
<title>n9</title>
<g id="a_node10"><a xlink:href="https://github.com/statopia/statlib/blob/main/Statlib/HighDim/Regression/SampleCovarianceDesignBridge.lean#L127" xlink:title="lemma · Statlib/HighDim/Regression/SampleCovarianceDesignBridge.lean:127" target="_blank">
<path fill="#eef2f6" stroke="#94a3b8" d="M557.66,-268C557.66,-268 378.34,-268 378.34,-268 372.34,-268 366.34,-262 366.34,-256 366.34,-256 366.34,-244 366.34,-244 366.34,-238 372.34,-232 378.34,-232 378.34,-232 557.66,-232 557.66,-232 563.66,-232 569.66,-238 569.66,-244 569.66,-244 569.66,-256 569.66,-256 569.66,-262 563.66,-268 557.66,-268"/>
<text xml:space="preserve" text-anchor="middle" x="468" y="-247" font-family="Helvetica,sans-Serif" font-size="10.00">design_l2NormSq_basis_eq_column_sum</text>
</a>
</g>
</g>
<!-- n9&#45;&gt;n1 -->
<g id="edge16" class="edge">
<title>n9&#45;&gt;n1</title>
<path fill="none" stroke="#64748b" d="M483.08,-231.7C490.76,-222.88 500.21,-212.03 508.54,-202.47"/>
<polygon fill="#64748b" stroke="#64748b" points="510.35,-204.13 513.1,-197.25 506.65,-200.91 510.35,-204.13"/>
</g>
<!-- n9&#45;&gt;n2 -->
<g id="edge15" class="edge">
<title>n9&#45;&gt;n2</title>
<path fill="none" stroke="#64748b" d="M456.13,-231.7C450.21,-223.05 442.94,-212.45 436.48,-203.03"/>
<polygon fill="#64748b" stroke="#64748b" points="438.56,-201.74 432.58,-197.35 434.52,-204.51 438.56,-201.74"/>
</g>
<!-- n10 -->
<g id="node11" class="node">
<title>n10</title>
<g id="a_node11"><a xlink:href="https://github.com/statopia/statlib/blob/main/Statlib/HighDim/Regression/SampleCovarianceDesignBridge.lean#L137" xlink:title="lemma · Statlib/HighDim/Regression/SampleCovarianceDesignBridge.lean:137" target="_blank">
<path fill="#eef2f6" stroke="#94a3b8" stroke-width="3" d="M452.24,-340C452.24,-340 241.76,-340 241.76,-340 235.76,-340 229.76,-334 229.76,-328 229.76,-328 229.76,-316 229.76,-316 229.76,-310 235.76,-304 241.76,-304 241.76,-304 452.24,-304 452.24,-304 458.24,-304 464.24,-310 464.24,-316 464.24,-316 464.24,-328 464.24,-328 464.24,-334 458.24,-340 452.24,-340"/>
<text xml:space="preserve" text-anchor="middle" x="347" y="-319" font-family="Helvetica,sans-Serif" font-size="10.00">sampleSecondMoment_upper_to_column_bound</text>
</a>
</g>
</g>
<!-- n10&#45;&gt;n0 -->
<g id="edge17" class="edge">
<title>n10&#45;&gt;n0</title>
<path fill="none" stroke="#64748b" d="M228.65,-316.51C150.53,-310.77 58.12,-297.71 33,-268 -1.77,-226.87 42.89,-164.09 72.55,-130.37"/>
<polygon fill="#64748b" stroke="#64748b" points="74.03,-132.39 76.88,-125.54 70.38,-129.11 74.03,-132.39"/>
</g>
<!-- n10&#45;&gt;n1 -->
<g id="edge18" class="edge">
<title>n10&#45;&gt;n1</title>
<path fill="none" stroke="#64748b" d="M465.54,-307.65C514.81,-299.43 564.03,-286.78 579,-268 595.42,-247.4 575.92,-220.73 556.68,-201.97"/>
<polygon fill="#64748b" stroke="#64748b" points="558.64,-200.45 551.86,-197.45 555.29,-204.03 558.64,-200.45"/>
</g>
<!-- n10&#45;&gt;n2 -->
<g id="edge19" class="edge">
<title>n10&#45;&gt;n2</title>
<path fill="none" stroke="#64748b" d="M345.25,-302.8C344.26,-283.95 345.11,-254.21 357,-232 363.43,-220 373.79,-209.59 384.27,-201.26"/>
<polygon fill="#64748b" stroke="#64748b" points="385.47,-203.42 389.57,-197.25 382.51,-199.52 385.47,-203.42"/>
</g>
<!-- n10&#45;&gt;n8 -->
<g id="edge20" class="edge">
<title>n10&#45;&gt;n8</title>
<path fill="none" stroke="#64748b" d="M304.44,-302.61C282.45,-293.11 255.55,-281.49 232.85,-271.68"/>
<polygon fill="#64748b" stroke="#64748b" points="234.11,-269.55 226.72,-269.03 232.17,-274.05 234.11,-269.55"/>
</g>
<!-- n10&#45;&gt;n9 -->
<g id="edge21" class="edge">
<title>n10&#45;&gt;n9</title>
<path fill="none" stroke="#64748b" d="M378.79,-302.61C394.84,-293.32 414.41,-282.01 431.12,-272.34"/>
<polygon fill="#64748b" stroke="#64748b" points="431.94,-274.69 436.77,-269.06 429.49,-270.45 431.94,-274.69"/>
</g>
</g>
</svg>
