<?xml version="1.0" encoding="UTF-8" standalone="no"?>
<!DOCTYPE svg PUBLIC "-//W3C//DTD SVG 1.1//EN"
 "http://www.w3.org/Graphics/SVG/1.1/DTD/svg11.dtd">
<!-- Generated by graphviz version 15.0.0 (20260523.1842)
 -->
<!-- Title: sample_cov_min_eig_lower Pages: 1 -->
<svg width="2628pt" height="555pt"
 viewBox="0.00 0.00 2628.00 555.00" xmlns="http://www.w3.org/2000/svg" xmlns:xlink="http://www.w3.org/1999/xlink">
<g id="graph0" class="graph" transform="scale(1 1) rotate(0) translate(4 551.2)">
<title>sample_cov_min_eig_lower</title>
<polygon fill="white" stroke="none" points="-4,4 -4,-551.2 2624,-551.2 2624,4 -4,4"/>
<text xml:space="preserve" text-anchor="middle" x="1310" y="-530.6" font-family="Helvetica,sans-Serif" font-size="14.00">Proof narrative — sample_cov_min_eig_lower &#160;(34 decls)</text>
<g id="clust1" class="cluster">
<title>cluster_0</title>
<path fill="none" stroke="#cbd5e1" stroke-dasharray="5,2" d="M20,-8C20,-8 1765,-8 1765,-8 1771,-8 1777,-14 1777,-20 1777,-20 1777,-502.4 1777,-502.4 1777,-508.4 1771,-514.4 1765,-514.4 1765,-514.4 20,-514.4 20,-514.4 14,-514.4 8,-508.4 8,-502.4 8,-502.4 8,-20 8,-20 8,-14 14,-8 20,-8"/>
<text xml:space="preserve" text-anchor="middle" x="892.5" y="-500.5" font-family="Helvetica,sans-Serif" font-size="11.00">HighDim</text>
</g>
<g id="clust2" class="cluster">
<title>cluster_1</title>
<path fill="none" stroke="#cbd5e1" stroke-dasharray="5,2" d="M1797,-8C1797,-8 2600,-8 2600,-8 2606,-8 2612,-14 2612,-20 2612,-20 2612,-213.2 2612,-213.2 2612,-219.2 2606,-225.2 2600,-225.2 2600,-225.2 1797,-225.2 1797,-225.2 1791,-225.2 1785,-219.2 1785,-213.2 1785,-213.2 1785,-20 1785,-20 1785,-14 1791,-8 1797,-8"/>
<text xml:space="preserve" text-anchor="middle" x="2198.5" y="-211.3" font-family="Helvetica,sans-Serif" font-size="11.00">StatFoundation</text>
</g>
<!-- n0 -->
<g id="node1" class="node">
<title>n0</title>
<g id="a_node1"><a xlink:href="vscode://vscode-remote/wsl+Ubuntu/home/ai4stat/statlib/Statlib/HighDim/Vocabulary/RandomVector.lean:83" xlink:title="structure · Statlib/HighDim/Vocabulary/RandomVector.lean:83" target="_blank">
<path fill="#e8dcff" stroke="#8b5cf6" d="M1525.4,-196C1525.4,-196 1490.6,-196 1490.6,-196 1484.6,-196 1478.6,-190 1478.6,-184 1478.6,-184 1478.6,-172 1478.6,-172 1478.6,-166 1484.6,-160 1490.6,-160 1490.6,-160 1525.4,-160 1525.4,-160 1531.4,-160 1537.4,-166 1537.4,-172 1537.4,-172 1537.4,-184 1537.4,-184 1537.4,-190 1531.4,-196 1525.4,-196"/>
<text xml:space="preserve" text-anchor="middle" x="1508" y="-175" font-family="Helvetica,sans-Serif" font-size="10.00">HasMean</text>
</a>
</g>
</g>
<!-- n1 -->
<g id="node2" class="node">
<title>n1</title>
<g id="a_node2"><a xlink:href="vscode://vscode-remote/wsl+Ubuntu/home/ai4stat/statlib/Statlib/HighDim/Vocabulary/RandomVector.lean:101" xlink:title="structure · Statlib/HighDim/Vocabulary/RandomVector.lean:101" target="_blank">
<path fill="#e8dcff" stroke="#8b5cf6" d="M1245.79,-124C1245.79,-124 1158.21,-124 1158.21,-124 1152.21,-124 1146.21,-118 1146.21,-112 1146.21,-112 1146.21,-100 1146.21,-100 1146.21,-94 1152.21,-88 1158.21,-88 1158.21,-88 1245.79,-88 1245.79,-88 1251.79,-88 1257.79,-94 1257.79,-100 1257.79,-100 1257.79,-112 1257.79,-112 1257.79,-118 1251.79,-124 1245.79,-124"/>
<text xml:space="preserve" text-anchor="middle" x="1202" y="-103" font-family="Helvetica,sans-Serif" font-size="10.00">HasCovarianceMatrix</text>
</a>
</g>
</g>
<!-- n2 -->
<g id="node3" class="node">
<title>n2</title>
<g id="a_node3"><a xlink:href="vscode://vscode-remote/wsl+Ubuntu/home/ai4stat/statlib/Statlib/HighDim/Vocabulary/RandomVector.lean:52" xlink:title="structure · Statlib/HighDim/Vocabulary/RandomVector.lean:52" target="_blank">
<path fill="#e8dcff" stroke="#8b5cf6" d="M1487.36,-269.2C1487.36,-269.2 1398.64,-269.2 1398.64,-269.2 1392.64,-269.2 1386.64,-263.2 1386.64,-257.2 1386.64,-257.2 1386.64,-245.2 1386.64,-245.2 1386.64,-239.2 1392.64,-233.2 1398.64,-233.2 1398.64,-233.2 1487.36,-233.2 1487.36,-233.2 1493.36,-233.2 1499.36,-239.2 1499.36,-245.2 1499.36,-245.2 1499.36,-257.2 1499.36,-257.2 1499.36,-263.2 1493.36,-269.2 1487.36,-269.2"/>
<text xml:space="preserve" text-anchor="middle" x="1443" y="-248.2" font-family="Helvetica,sans-Serif" font-size="10.00">IsSubGaussianVector</text>
</a>
</g>
</g>
<!-- n3 -->
<g id="node4" class="node">
<title>n3</title>
<g id="a_node4"><a xlink:href="vscode://vscode-remote/wsl+Ubuntu/home/ai4stat/statlib/Statlib/HighDim/CovarianceMatrix/SampleCovariance.lean:190" xlink:title="noncomputable def · Statlib/HighDim/CovarianceMatrix/SampleCovariance.lean:190" target="_blank">
<path fill="#d6e9ff" stroke="#3b82f6" d="M122.14,-124C122.14,-124 27.86,-124 27.86,-124 21.86,-124 15.86,-118 15.86,-112 15.86,-112 15.86,-100 15.86,-100 15.86,-94 21.86,-88 27.86,-88 27.86,-88 122.14,-88 122.14,-88 128.14,-88 134.14,-94 134.14,-100 134.14,-100 134.14,-112 134.14,-112 134.14,-118 128.14,-124 122.14,-124"/>
<text xml:space="preserve" text-anchor="middle" x="75" y="-103" font-family="Helvetica,sans-Serif" font-size="10.00">sampleSecondMoment</text>
</a>
</g>
</g>
<!-- n4 -->
<g id="node5" class="node">
<title>n4</title>
<g id="a_node5"><a xlink:href="vscode://vscode-remote/wsl+Ubuntu/home/ai4stat/statlib/Statlib/HighDim/CovarianceMatrix/SampleCovariance.lean:210" xlink:title="lemma · Statlib/HighDim/CovarianceMatrix/SampleCovariance.lean:210" target="_blank">
<path fill="#eef2f6" stroke="#94a3b8" d="M1285.82,-196C1285.82,-196 1118.18,-196 1118.18,-196 1112.18,-196 1106.18,-190 1106.18,-184 1106.18,-184 1106.18,-172 1106.18,-172 1106.18,-166 1112.18,-160 1118.18,-160 1118.18,-160 1285.82,-160 1285.82,-160 1291.82,-160 1297.82,-166 1297.82,-172 1297.82,-172 1297.82,-184 1297.82,-184 1297.82,-190 1291.82,-196 1285.82,-196"/>
<text xml:space="preserve" text-anchor="middle" x="1202" y="-175" font-family="Helvetica,sans-Serif" font-size="10.00">covariance_isSymm_of_hasCovariance</text>
</a>
</g>
</g>
<!-- n4&#45;&gt;n1 -->
<g id="edge1" class="edge">
<title>n4&#45;&gt;n1</title>
<path fill="none" stroke="#64748b" d="M1202,-159.7C1202,-151.47 1202,-141.48 1202,-132.42"/>
<polygon fill="#64748b" stroke="#64748b" points="1204.45,-132.62 1202,-125.62 1199.55,-132.62 1204.45,-132.62"/>
</g>
<!-- n5 -->
<g id="node6" class="node">
<title>n5</title>
<g id="a_node6"><a xlink:href="vscode://vscode-remote/wsl+Ubuntu/home/ai4stat/statlib/Statlib/HighDim/CovarianceMatrix/SampleCovariance.lean:196" xlink:title="lemma · Statlib/HighDim/CovarianceMatrix/SampleCovariance.lean:196" target="_blank">
<path fill="#eef2f6" stroke="#94a3b8" d="M223.69,-196C223.69,-196 88.31,-196 88.31,-196 82.31,-196 76.31,-190 76.31,-184 76.31,-184 76.31,-172 76.31,-172 76.31,-166 82.31,-160 88.31,-160 88.31,-160 223.69,-160 223.69,-160 229.69,-160 235.69,-166 235.69,-172 235.69,-172 235.69,-184 235.69,-184 235.69,-190 229.69,-196 223.69,-196"/>
<text xml:space="preserve" text-anchor="middle" x="156" y="-175" font-family="Helvetica,sans-Serif" font-size="10.00">sampleSecondMoment_isSymm</text>
</a>
</g>
</g>
<!-- n5&#45;&gt;n3 -->
<g id="edge2" class="edge">
<title>n5&#45;&gt;n3</title>
<path fill="none" stroke="#64748b" d="M135.98,-159.7C125.56,-150.69 112.69,-139.57 101.46,-129.87"/>
<polygon fill="#64748b" stroke="#64748b" points="103.12,-128.06 96.22,-125.34 99.91,-131.77 103.12,-128.06"/>
</g>
<!-- n6 -->
<g id="node7" class="node">
<title>n6</title>
<g id="a_node7"><a xlink:href="vscode://vscode-remote/wsl+Ubuntu/home/ai4stat/statlib/Statlib/HighDim/CovarianceMatrix/SampleCovariance.lean:178" xlink:title="lemma · Statlib/HighDim/CovarianceMatrix/SampleCovariance.lean:178" target="_blank">
<path fill="#eef2f6" stroke="#94a3b8" d="M987.63,-269.2C987.63,-269.2 868.37,-269.2 868.37,-269.2 862.37,-269.2 856.37,-263.2 856.37,-257.2 856.37,-257.2 856.37,-245.2 856.37,-245.2 856.37,-239.2 862.37,-233.2 868.37,-233.2 868.37,-233.2 987.63,-233.2 987.63,-233.2 993.63,-233.2 999.63,-239.2 999.63,-245.2 999.63,-245.2 999.63,-257.2 999.63,-257.2 999.63,-263.2 993.63,-269.2 987.63,-269.2"/>
<text xml:space="preserve" text-anchor="middle" x="928" y="-248.2" font-family="Helvetica,sans-Serif" font-size="10.00">real_isHermitian_of_isSymm</text>
</a>
</g>
</g>
<!-- n7 -->
<g id="node8" class="node">
<title>n7</title>
<g id="a_node8"><a xlink:href="vscode://vscode-remote/wsl+Ubuntu/home/ai4stat/statlib/Statlib/HighDim/Vocabulary/Norms.lean:41" xlink:title="noncomputable def · Statlib/HighDim/Vocabulary/Norms.lean:41" target="_blank">
<path fill="#d6e9ff" stroke="#3b82f6" d="M589.13,-52C589.13,-52 544.87,-52 544.87,-52 538.87,-52 532.87,-46 532.87,-40 532.87,-40 532.87,-28 532.87,-28 532.87,-22 538.87,-16 544.87,-16 544.87,-16 589.13,-16 589.13,-16 595.13,-16 601.13,-22 601.13,-28 601.13,-28 601.13,-40 601.13,-40 601.13,-46 595.13,-52 589.13,-52"/>
<text xml:space="preserve" text-anchor="middle" x="567" y="-31" font-family="Helvetica,sans-Serif" font-size="10.00">toEuclidean</text>
</a>
</g>
</g>
<!-- n8 -->
<g id="node9" class="node">
<title>n8</title>
<g id="a_node9"><a xlink:href="vscode://vscode-remote/wsl+Ubuntu/home/ai4stat/statlib/Statlib/HighDim/CovarianceMatrix/SampleCovariance.lean:38" xlink:title="lemma · Statlib/HighDim/CovarianceMatrix/SampleCovariance.lean:38" target="_blank">
<path fill="#eef2f6" stroke="#94a3b8" d="M364.23,-124C364.23,-124 183.77,-124 183.77,-124 177.77,-124 171.77,-118 171.77,-112 171.77,-112 171.77,-100 171.77,-100 171.77,-94 177.77,-88 183.77,-88 183.77,-88 364.23,-88 364.23,-88 370.23,-88 376.23,-94 376.23,-100 376.23,-100 376.23,-112 376.23,-112 376.23,-118 370.23,-124 364.23,-124"/>
<text xml:space="preserve" text-anchor="middle" x="274" y="-103" font-family="Helvetica,sans-Serif" font-size="10.00">hermitian_norm_eq_diagonal_eigenvalues</text>
</a>
</g>
</g>
<!-- n9 -->
<g id="node10" class="node">
<title>n9</title>
<g id="a_node10"><a xlink:href="vscode://vscode-remote/wsl+Ubuntu/home/ai4stat/statlib/Statlib/HighDim/CovarianceMatrix/SampleCovariance.lean:58" xlink:title="lemma · Statlib/HighDim/CovarianceMatrix/SampleCovariance.lean:58" target="_blank">
<path fill="#eef2f6" stroke="#94a3b8" d="M516.21,-124C516.21,-124 405.79,-124 405.79,-124 399.79,-124 393.79,-118 393.79,-112 393.79,-112 393.79,-100 393.79,-100 393.79,-94 399.79,-88 405.79,-88 405.79,-88 516.21,-88 516.21,-88 522.21,-88 528.21,-94 528.21,-100 528.21,-100 528.21,-112 528.21,-112 528.21,-118 522.21,-124 516.21,-124"/>
<text xml:space="preserve" text-anchor="middle" x="461" y="-103" font-family="Helvetica,sans-Serif" font-size="10.00">pi_real_norm_eq_sup_abs</text>
</a>
</g>
</g>
<!-- n10 -->
<g id="node11" class="node">
<title>n10</title>
<g id="a_node11"><a xlink:href="vscode://vscode-remote/wsl+Ubuntu/home/ai4stat/statlib/Statlib/HighDim/CovarianceMatrix/SampleCovariance.lean:68" xlink:title="lemma · Statlib/HighDim/CovarianceMatrix/SampleCovariance.lean:68" target="_blank">
<path fill="#eef2f6" stroke="#94a3b8" d="M486.23,-196C486.23,-196 305.77,-196 305.77,-196 299.77,-196 293.77,-190 293.77,-184 293.77,-184 293.77,-172 293.77,-172 293.77,-166 299.77,-160 305.77,-160 305.77,-160 486.23,-160 486.23,-160 492.23,-160 498.23,-166 498.23,-172 498.23,-172 498.23,-184 498.23,-184 498.23,-190 492.23,-196 486.23,-196"/>
<text xml:space="preserve" text-anchor="middle" x="396" y="-175" font-family="Helvetica,sans-Serif" font-size="10.00">hermitian_norm_eq_sup_abs_eigenvalues</text>
</a>
</g>
</g>
<!-- n10&#45;&gt;n8 -->
<g id="edge3" class="edge">
<title>n10&#45;&gt;n8</title>
<path fill="none" stroke="#64748b" d="M365.53,-159.52C349.1,-150.09 328.7,-138.38 311.32,-128.41"/>
<polygon fill="#64748b" stroke="#64748b" points="312.69,-126.37 305.4,-125.01 310.25,-130.62 312.69,-126.37"/>
</g>
<!-- n10&#45;&gt;n9 -->
<g id="edge4" class="edge">
<title>n10&#45;&gt;n9</title>
<path fill="none" stroke="#64748b" d="M412.07,-159.7C420.33,-150.8 430.52,-139.82 439.46,-130.2"/>
<polygon fill="#64748b" stroke="#64748b" points="441.12,-132.01 444.09,-125.21 437.53,-128.68 441.12,-132.01"/>
</g>
<!-- n11 -->
<g id="node12" class="node">
<title>n11</title>
<g id="a_node12"><a xlink:href="vscode://vscode-remote/wsl+Ubuntu/home/ai4stat/statlib/Statlib/HighDim/CovarianceMatrix/SampleCovariance.lean:77" xlink:title="lemma · Statlib/HighDim/CovarianceMatrix/SampleCovariance.lean:77" target="_blank">
<path fill="#eef2f6" stroke="#94a3b8" d="M504.54,-269.2C504.54,-269.2 367.46,-269.2 367.46,-269.2 361.46,-269.2 355.46,-263.2 355.46,-257.2 355.46,-257.2 355.46,-245.2 355.46,-245.2 355.46,-239.2 361.46,-233.2 367.46,-233.2 367.46,-233.2 504.54,-233.2 504.54,-233.2 510.54,-233.2 516.54,-239.2 516.54,-245.2 516.54,-245.2 516.54,-257.2 516.54,-257.2 516.54,-263.2 510.54,-269.2 504.54,-269.2"/>
<text xml:space="preserve" text-anchor="middle" x="436" y="-248.2" font-family="Helvetica,sans-Serif" font-size="10.00">hermitian_norm_le_two_net_sup</text>
</a>
</g>
</g>
<!-- n11&#45;&gt;n7 -->
<g id="edge5" class="edge">
<title>n11&#45;&gt;n7</title>
<path fill="none" stroke="#64748b" d="M497.93,-232.74C501.21,-230.52 504.27,-228.02 507,-225.2 512.9,-219.1 544.99,-110.68 559.66,-60.32"/>
<polygon fill="#64748b" stroke="#64748b" points="562,-61.06 561.6,-53.65 557.3,-59.69 562,-61.06"/>
</g>
<!-- n11&#45;&gt;n10 -->
<g id="edge6" class="edge">
<title>n11&#45;&gt;n10</title>
<path fill="none" stroke="#64748b" d="M426.32,-232.96C421.31,-224.04 415.1,-213 409.62,-203.24"/>
<polygon fill="#64748b" stroke="#64748b" points="411.9,-202.3 406.34,-197.4 407.63,-204.7 411.9,-202.3"/>
</g>
<!-- n12 -->
<g id="node13" class="node">
<title>n12</title>
<g id="a_node13"><a xlink:href="vscode://vscode-remote/wsl+Ubuntu/home/ai4stat/statlib/Statlib/HighDim/Vocabulary/Norms.lean:32" xlink:title="lemma · Statlib/HighDim/Vocabulary/Norms.lean:32" target="_blank">
<path fill="#eef2f6" stroke="#94a3b8" d="M976.69,-52C976.69,-52 921.31,-52 921.31,-52 915.31,-52 909.31,-46 909.31,-40 909.31,-40 909.31,-28 909.31,-28 909.31,-22 915.31,-16 921.31,-16 921.31,-16 976.69,-16 976.69,-16 982.69,-16 988.69,-22 988.69,-28 988.69,-28 988.69,-40 988.69,-40 988.69,-46 982.69,-52 976.69,-52"/>
<text xml:space="preserve" text-anchor="middle" x="949" y="-31" font-family="Helvetica,sans-Serif" font-size="10.00">inner_eq_sum</text>
</a>
</g>
</g>
<!-- n13 -->
<g id="node14" class="node">
<title>n13</title>
<g id="a_node14"><a xlink:href="vscode://vscode-remote/wsl+Ubuntu/home/ai4stat/statlib/Statlib/HighDim/CovarianceMatrix/SampleCovariance.lean:315" xlink:title="lemma · Statlib/HighDim/CovarianceMatrix/SampleCovariance.lean:315" target="_blank">
<path fill="#eef2f6" stroke="#94a3b8" d="M884.53,-124C884.53,-124 777.47,-124 777.47,-124 771.47,-124 765.47,-118 765.47,-112 765.47,-112 765.47,-100 765.47,-100 765.47,-94 771.47,-88 777.47,-88 777.47,-88 884.53,-88 884.53,-88 890.53,-88 896.53,-94 896.53,-100 896.53,-100 896.53,-112 896.53,-112 896.53,-118 890.53,-124 884.53,-124"/>
<text xml:space="preserve" text-anchor="middle" x="831" y="-103" font-family="Helvetica,sans-Serif" font-size="10.00">matrix_quadratic_eq_sum</text>
</a>
</g>
</g>
<!-- n13&#45;&gt;n7 -->
<g id="edge7" class="edge">
<title>n13&#45;&gt;n7</title>
<path fill="none" stroke="#64748b" d="M765.06,-87.52C716.38,-74.61 651.55,-57.42 609.54,-46.28"/>
<polygon fill="#64748b" stroke="#64748b" points="610.32,-43.95 602.92,-44.52 609.06,-48.69 610.32,-43.95"/>
</g>
<!-- n13&#45;&gt;n12 -->
<g id="edge8" class="edge">
<title>n13&#45;&gt;n12</title>
<path fill="none" stroke="#64748b" d="M860.47,-87.52C876.36,-78.09 896.1,-66.38 912.9,-56.41"/>
<polygon fill="#64748b" stroke="#64748b" points="913.83,-58.71 918.6,-53.03 911.33,-54.5 913.83,-58.71"/>
</g>
<!-- n14 -->
<g id="node15" class="node">
<title>n14</title>
<g id="a_node15"><a xlink:href="vscode://vscode-remote/wsl+Ubuntu/home/ai4stat/statlib/Statlib/HighDim/CovarianceMatrix/SampleCovariance.lean:247" xlink:title="lemma · Statlib/HighDim/CovarianceMatrix/SampleCovariance.lean:247" target="_blank">
<path fill="#eef2f6" stroke="#94a3b8" d="M1036.17,-196C1036.17,-196 861.83,-196 861.83,-196 855.83,-196 849.83,-190 849.83,-184 849.83,-184 849.83,-172 849.83,-172 849.83,-166 855.83,-160 861.83,-160 861.83,-160 1036.17,-160 1036.17,-160 1042.17,-160 1048.17,-166 1048.17,-172 1048.17,-172 1048.17,-184 1048.17,-184 1048.17,-190 1042.17,-196 1036.17,-196"/>
<text xml:space="preserve" text-anchor="middle" x="949" y="-175" font-family="Helvetica,sans-Serif" font-size="10.00">projection_sq_integral_eq_cov_quadratic</text>
</a>
</g>
</g>
<!-- n14&#45;&gt;n1 -->
<g id="edge9" class="edge">
<title>n14&#45;&gt;n1</title>
<path fill="none" stroke="#64748b" d="M1012.19,-159.52C1050.59,-148.89 1099.47,-135.37 1138.01,-124.71"/>
<polygon fill="#64748b" stroke="#64748b" points="1138.52,-127.11 1144.61,-122.88 1137.21,-122.38 1138.52,-127.11"/>
</g>
<!-- n14&#45;&gt;n12 -->
<g id="edge10" class="edge">
<title>n14&#45;&gt;n12</title>
<path fill="none" stroke="#64748b" d="M949,-159.59C949,-134.76 949,-89.01 949,-60.4"/>
<polygon fill="#64748b" stroke="#64748b" points="951.45,-60.62 949,-53.62 946.55,-60.62 951.45,-60.62"/>
</g>
<!-- n15 -->
<g id="node16" class="node">
<title>n15</title>
<g id="a_node16"><a xlink:href="vscode://vscode-remote/wsl+Ubuntu/home/ai4stat/statlib/Statlib/HighDim/CovarianceMatrix/SampleCovariance.lean:327" xlink:title="lemma · Statlib/HighDim/CovarianceMatrix/SampleCovariance.lean:327" target="_blank">
<path fill="#eef2f6" stroke="#94a3b8" d="M715.08,-124C715.08,-124 626.92,-124 626.92,-124 620.92,-124 614.92,-118 614.92,-112 614.92,-112 614.92,-100 614.92,-100 614.92,-94 620.92,-88 626.92,-88 626.92,-88 715.08,-88 715.08,-88 721.08,-88 727.08,-94 727.08,-100 727.08,-100 727.08,-112 727.08,-112 727.08,-118 721.08,-124 715.08,-124"/>
<text xml:space="preserve" text-anchor="middle" x="671" y="-103" font-family="Helvetica,sans-Serif" font-size="10.00">fin_sum_comm_three</text>
</a>
</g>
</g>
<!-- n16 -->
<g id="node17" class="node">
<title>n16</title>
<g id="a_node17"><a xlink:href="vscode://vscode-remote/wsl+Ubuntu/home/ai4stat/statlib/Statlib/HighDim/CovarianceMatrix/SampleCovariance.lean:337" xlink:title="lemma · Statlib/HighDim/CovarianceMatrix/SampleCovariance.lean:337" target="_blank">
<path fill="#eef2f6" stroke="#94a3b8" d="M799.52,-196C799.52,-196 568.48,-196 568.48,-196 562.48,-196 556.48,-190 556.48,-184 556.48,-184 556.48,-172 556.48,-172 556.48,-166 562.48,-160 568.48,-160 568.48,-160 799.52,-160 799.52,-160 805.52,-160 811.52,-166 811.52,-172 811.52,-172 811.52,-184 811.52,-184 811.52,-190 805.52,-196 799.52,-196"/>
<text xml:space="preserve" text-anchor="middle" x="684" y="-175" font-family="Helvetica,sans-Serif" font-size="10.00">sampleSecondMoment_quadratic_eq_projection_sum</text>
</a>
</g>
</g>
<!-- n16&#45;&gt;n3 -->
<g id="edge12" class="edge">
<title>n16&#45;&gt;n3</title>
<path fill="none" stroke="#64748b" d="M556.29,-164.61C414.62,-150.77 200.89,-129.58 163,-124 156.36,-123.02 149.46,-121.89 142.58,-120.69"/>
<polygon fill="#64748b" stroke="#64748b" points="143.33,-118.34 136.01,-119.51 142.47,-123.16 143.33,-118.34"/>
</g>
<!-- n16&#45;&gt;n7 -->
<g id="edge11" class="edge">
<title>n16&#45;&gt;n7</title>
<path fill="none" stroke="#64748b" d="M650.03,-159.65C635,-150.64 618.04,-138.48 606,-124 590.41,-105.24 579.99,-79.28 573.87,-60.23"/>
<polygon fill="#64748b" stroke="#64748b" points="576.27,-59.7 571.88,-53.73 571.58,-61.14 576.27,-59.7"/>
</g>
<!-- n16&#45;&gt;n12 -->
<g id="edge15" class="edge">
<title>n16&#45;&gt;n12</title>
<path fill="none" stroke="#64748b" d="M703.09,-159.95C713.53,-150.06 726.28,-137.01 736,-124 746.95,-109.34 741.61,-99.31 756,-88 797.8,-55.17 858.55,-42.65 900.68,-37.89"/>
<polygon fill="#64748b" stroke="#64748b" points="900.9,-40.33 907.61,-37.17 900.39,-35.46 900.9,-40.33"/>
</g>
<!-- n16&#45;&gt;n13 -->
<g id="edge13" class="edge">
<title>n16&#45;&gt;n13</title>
<path fill="none" stroke="#64748b" d="M720.72,-159.52C740.79,-149.96 765.79,-138.05 786.91,-128"/>
<polygon fill="#64748b" stroke="#64748b" points="787.87,-130.25 793.13,-125.03 785.76,-125.83 787.87,-130.25"/>
</g>
<!-- n16&#45;&gt;n15 -->
<g id="edge14" class="edge">
<title>n16&#45;&gt;n15</title>
<path fill="none" stroke="#64748b" d="M680.79,-159.7C679.26,-151.47 677.4,-141.48 675.72,-132.42"/>
<polygon fill="#64748b" stroke="#64748b" points="678.14,-132.03 674.45,-125.59 673.32,-132.92 678.14,-132.03"/>
</g>
<!-- n17 -->
<g id="node18" class="node">
<title>n17</title>
<g id="a_node18"><a xlink:href="vscode://vscode-remote/wsl+Ubuntu/home/ai4stat/statlib/Statlib/HighDim/CovarianceMatrix/SampleCovariance.lean:362" xlink:title="lemma · Statlib/HighDim/CovarianceMatrix/SampleCovariance.lean:362" target="_blank">
<path fill="#eef2f6" stroke="#94a3b8" d="M805.7,-269.2C805.7,-269.2 546.3,-269.2 546.3,-269.2 540.3,-269.2 534.3,-263.2 534.3,-257.2 534.3,-257.2 534.3,-245.2 534.3,-245.2 534.3,-239.2 540.3,-233.2 546.3,-233.2 546.3,-233.2 805.7,-233.2 805.7,-233.2 811.7,-233.2 817.7,-239.2 817.7,-245.2 817.7,-245.2 817.7,-257.2 817.7,-257.2 817.7,-263.2 811.7,-269.2 805.7,-269.2"/>
<text xml:space="preserve" text-anchor="middle" x="676" y="-248.2" font-family="Helvetica,sans-Serif" font-size="10.00">sample_covariance_quadratic_eq_centered_projection_sum</text>
</a>
</g>
</g>
<!-- n17&#45;&gt;n1 -->
<g id="edge16" class="edge">
<title>n17&#45;&gt;n1</title>
<path fill="none" stroke="#64748b" d="M817.95,-234.29C822.69,-233.9 827.38,-233.53 832,-233.2 844.48,-232.3 1046.82,-232.47 1057,-225.2 1082.26,-207.17 1060.61,-182.48 1082,-160 1097.18,-144.05 1118,-132.59 1138.05,-124.5"/>
<polygon fill="#64748b" stroke="#64748b" points="1138.9,-126.8 1144.56,-122 1137.15,-122.22 1138.9,-126.8"/>
</g>
<!-- n17&#45;&gt;n3 -->
<g id="edge18" class="edge">
<title>n17&#45;&gt;n3</title>
<path fill="none" stroke="#64748b" d="M533.91,-233.81C531.25,-233.59 528.61,-233.39 526,-233.2 512.64,-232.22 296.58,-231.94 285,-225.2 255.61,-208.11 271.83,-180.88 245,-160 228.62,-147.25 182.67,-133.3 142.67,-122.91"/>
<polygon fill="#64748b" stroke="#64748b" points="143.35,-120.56 135.96,-121.19 142.13,-125.3 143.35,-120.56"/>
</g>
<!-- n17&#45;&gt;n7 -->
<g id="edge17" class="edge">
<title>n17&#45;&gt;n7</title>
<path fill="none" stroke="#64748b" d="M557.88,-232.74C553.08,-230.52 549.32,-228.02 547,-225.2 528.56,-202.85 544.7,-188.89 547,-160 547.77,-150.26 557.13,-93.68 562.77,-60.07"/>
<polygon fill="#64748b" stroke="#64748b" points="565.12,-60.87 563.86,-53.56 560.29,-60.05 565.12,-60.87"/>
</g>
<!-- n17&#45;&gt;n13 -->
<g id="edge19" class="edge">
<title>n17&#45;&gt;n13</title>
<path fill="none" stroke="#64748b" d="M809.44,-232.75C814.44,-230.53 818.41,-228.02 821,-225.2 843.74,-200.41 841.53,-159.14 836.96,-132.51"/>
<polygon fill="#64748b" stroke="#64748b" points="839.41,-132.32 835.7,-125.9 834.6,-133.24 839.41,-132.32"/>
</g>
<!-- n17&#45;&gt;n14 -->
<g id="edge20" class="edge">
<title>n17&#45;&gt;n14</title>
<path fill="none" stroke="#64748b" d="M804.94,-232.74C815.51,-230.5 825.98,-227.99 836,-225.2 859.36,-218.7 884.4,-208.78 904.96,-199.8"/>
<polygon fill="#64748b" stroke="#64748b" points="905.82,-202.1 911.22,-197.03 903.83,-197.62 905.82,-202.1"/>
</g>
<!-- n17&#45;&gt;n16 -->
<g id="edge21" class="edge">
<title>n17&#45;&gt;n16</title>
<path fill="none" stroke="#64748b" d="M677.94,-232.96C678.9,-224.39 680.08,-213.87 681.15,-204.39"/>
<polygon fill="#64748b" stroke="#64748b" points="683.57,-204.81 681.91,-197.58 678.7,-204.26 683.57,-204.81"/>
</g>
<!-- n18 -->
<g id="node19" class="node">
<title>n18</title>
<g id="a_node19"><a xlink:href="vscode://vscode-remote/wsl+Ubuntu/home/ai4stat/statlib/Statlib/HighDim/CovarianceMatrix/SampleCovariance.lean:222" xlink:title="lemma · Statlib/HighDim/CovarianceMatrix/SampleCovariance.lean:222" target="_blank">
<path fill="#eef2f6" stroke="#94a3b8" d="M1143.59,-269.2C1143.59,-269.2 1050.41,-269.2 1050.41,-269.2 1044.41,-269.2 1038.41,-263.2 1038.41,-257.2 1038.41,-257.2 1038.41,-245.2 1038.41,-245.2 1038.41,-239.2 1044.41,-233.2 1050.41,-233.2 1050.41,-233.2 1143.59,-233.2 1143.59,-233.2 1149.59,-233.2 1155.59,-239.2 1155.59,-245.2 1155.59,-245.2 1155.59,-257.2 1155.59,-257.2 1155.59,-263.2 1149.59,-269.2 1143.59,-269.2"/>
<text xml:space="preserve" text-anchor="middle" x="1097" y="-248.2" font-family="Helvetica,sans-Serif" font-size="10.00">projection_measurable</text>
</a>
</g>
</g>
<!-- n19 -->
<g id="node20" class="node">
<title>n19</title>
<g id="a_node20"><a xlink:href="vscode://vscode-remote/wsl+Ubuntu/home/ai4stat/statlib/Statlib/HighDim/CovarianceMatrix/SampleCovariance.lean:296" xlink:title="lemma · Statlib/HighDim/CovarianceMatrix/SampleCovariance.lean:296" target="_blank">
<path fill="#eef2f6" stroke="#94a3b8" d="M1448.48,-196C1448.48,-196 1347.52,-196 1347.52,-196 1341.52,-196 1335.52,-190 1335.52,-184 1335.52,-184 1335.52,-172 1335.52,-172 1335.52,-166 1341.52,-160 1347.52,-160 1347.52,-160 1448.48,-160 1448.48,-160 1454.48,-160 1460.48,-166 1460.48,-172 1460.48,-172 1460.48,-184 1460.48,-184 1460.48,-190 1454.48,-196 1448.48,-196"/>
<text xml:space="preserve" text-anchor="middle" x="1398" y="-175" font-family="Helvetica,sans-Serif" font-size="10.00">projection_sq_integrable</text>
</a>
</g>
</g>
<!-- n19&#45;&gt;n1 -->
<g id="edge22" class="edge">
<title>n19&#45;&gt;n1</title>
<path fill="none" stroke="#64748b" d="M1349.05,-159.52C1321.58,-149.71 1287.19,-137.43 1258.58,-127.21"/>
<polygon fill="#64748b" stroke="#64748b" points="1259.51,-124.94 1252.09,-124.89 1257.86,-129.55 1259.51,-124.94"/>
</g>
<!-- n19&#45;&gt;n12 -->
<g id="edge23" class="edge">
<title>n19&#45;&gt;n12</title>
<path fill="none" stroke="#64748b" d="M1378.27,-159.5C1353.92,-138.92 1310.39,-105.38 1267,-88 1176.25,-51.65 1061.31,-40.23 997.43,-36.64"/>
<polygon fill="#64748b" stroke="#64748b" points="997.77,-34.21 990.65,-36.29 997.51,-39.1 997.77,-34.21"/>
</g>
<!-- n20 -->
<g id="node21" class="node">
<title>n20</title>
<g id="a_node21"><a xlink:href="vscode://vscode-remote/wsl+Ubuntu/home/ai4stat/statlib/Statlib/HighDim/CovarianceMatrix/SampleCovariance.lean:227" xlink:title="lemma · Statlib/HighDim/CovarianceMatrix/SampleCovariance.lean:227" target="_blank">
<path fill="#eef2f6" stroke="#94a3b8" d="M1356.48,-269.2C1356.48,-269.2 1265.52,-269.2 1265.52,-269.2 1259.52,-269.2 1253.52,-263.2 1253.52,-257.2 1253.52,-257.2 1253.52,-245.2 1253.52,-245.2 1253.52,-239.2 1259.52,-233.2 1265.52,-233.2 1265.52,-233.2 1356.48,-233.2 1356.48,-233.2 1362.48,-233.2 1368.48,-239.2 1368.48,-245.2 1368.48,-245.2 1368.48,-257.2 1368.48,-257.2 1368.48,-263.2 1362.48,-269.2 1356.48,-269.2"/>
<text xml:space="preserve" text-anchor="middle" x="1311" y="-248.2" font-family="Helvetica,sans-Serif" font-size="10.00">projection_mean_zero</text>
</a>
</g>
</g>
<!-- n20&#45;&gt;n0 -->
<g id="edge24" class="edge">
<title>n20&#45;&gt;n0</title>
<path fill="none" stroke="#64748b" d="M1368.62,-234.95C1371.78,-234.31 1374.92,-233.72 1378,-233.2 1398.01,-229.8 1450.98,-234.55 1469,-225.2 1478.85,-220.09 1487.22,-211.32 1493.65,-202.78"/>
<polygon fill="#64748b" stroke="#64748b" points="1495.48,-204.43 1497.5,-197.3 1491.47,-201.61 1495.48,-204.43"/>
</g>
<!-- n20&#45;&gt;n12 -->
<g id="edge25" class="edge">
<title>n20&#45;&gt;n12</title>
<path fill="none" stroke="#64748b" d="M1368.96,-234.74C1372.01,-234.16 1375.03,-233.64 1378,-233.2 1387.24,-231.82 1539.55,-231.96 1546,-225.2 1566,-204.23 1563.32,-183.23 1546,-160 1480.18,-71.75 1127.42,-44.39 997.27,-37.23"/>
<polygon fill="#64748b" stroke="#64748b" points="997.66,-34.8 990.54,-36.87 997.4,-39.69 997.66,-34.8"/>
</g>
<!-- n21 -->
<g id="node22" class="node">
<title>n21</title>
<g id="a_node22"><a xlink:href="vscode://vscode-remote/wsl+Ubuntu/home/ai4stat/statlib/Statlib/HighDim/CovarianceMatrix/SampleCovariance.lean:393" xlink:title="lemma · Statlib/HighDim/CovarianceMatrix/SampleCovariance.lean:393" target="_blank">
<path fill="#eef2f6" stroke="#94a3b8" d="M1757.22,-196C1757.22,-196 1606.78,-196 1606.78,-196 1600.78,-196 1594.78,-190 1594.78,-184 1594.78,-184 1594.78,-172 1594.78,-172 1594.78,-166 1600.78,-160 1606.78,-160 1606.78,-160 1757.22,-160 1757.22,-160 1763.22,-160 1769.22,-166 1769.22,-172 1769.22,-172 1769.22,-184 1769.22,-184 1769.22,-190 1763.22,-196 1757.22,-196"/>
<text xml:space="preserve" text-anchor="middle" x="1682" y="-175" font-family="Helvetica,sans-Serif" font-size="10.00">scalar_sq_centered_exp_integrable</text>
</a>
</g>
</g>
<!-- n28 -->
<g id="node23" class="node">
<title>n28</title>
<g id="a_node23"><a xlink:href="vscode://vscode-remote/wsl+Ubuntu/home/ai4stat/statlib/Statlib/HighDim/CovarianceMatrix/SampleCovariance.lean:451" xlink:title="lemma · Statlib/HighDim/CovarianceMatrix/SampleCovariance.lean:451" target="_blank">
<path fill="#eef2f6" stroke="#94a3b8" d="M1757.12,-269.2C1757.12,-269.2 1568.88,-269.2 1568.88,-269.2 1562.88,-269.2 1556.88,-263.2 1556.88,-257.2 1556.88,-257.2 1556.88,-245.2 1556.88,-245.2 1556.88,-239.2 1562.88,-233.2 1568.88,-233.2 1568.88,-233.2 1757.12,-233.2 1757.12,-233.2 1763.12,-233.2 1769.12,-239.2 1769.12,-245.2 1769.12,-245.2 1769.12,-257.2 1769.12,-257.2 1769.12,-263.2 1763.12,-269.2 1757.12,-269.2"/>
<text xml:space="preserve" text-anchor="middle" x="1663" y="-248.2" font-family="Helvetica,sans-Serif" font-size="10.00">scalar_sq_centered_subexponential_explicit</text>
</a>
</g>
</g>
<!-- n28&#45;&gt;n21 -->
<g id="edge32" class="edge">
<title>n28&#45;&gt;n21</title>
<path fill="none" stroke="#64748b" d="M1667.6,-232.96C1669.91,-224.31 1672.75,-213.65 1675.3,-204.1"/>
<polygon fill="#64748b" stroke="#64748b" points="1677.62,-204.93 1677.05,-197.54 1672.88,-203.67 1677.62,-204.93"/>
</g>
<!-- n27 -->
<g id="node32" class="node">
<title>n27</title>
<g id="a_node32"><a xlink:href="vscode://vscode-remote/wsl+Ubuntu/home/ai4stat/statlib/Statlib/StatFoundation/RandomVariable/SubExponential/subexp_mgf_le_of_sq_subgaussian.lean:72" xlink:title="theorem · Statlib/StatFoundation/RandomVariable/SubExponential/subexp_mgf_le_of_sq_subgaussian.lean:72" target="_blank">
<path fill="#ffe6a3" stroke="#d4a017" d="M2199.84,-196C2199.84,-196 2012.16,-196 2012.16,-196 2006.16,-196 2000.16,-190 2000.16,-184 2000.16,-184 2000.16,-172 2000.16,-172 2000.16,-166 2006.16,-160 2012.16,-160 2012.16,-160 2199.84,-160 2199.84,-160 2205.84,-160 2211.84,-166 2211.84,-172 2211.84,-172 2211.84,-184 2211.84,-184 2211.84,-190 2205.84,-196 2199.84,-196"/>
<text xml:space="preserve" text-anchor="middle" x="2106" y="-175" font-family="Helvetica,sans-Serif" font-size="10.00">subexp_mgf_le_of_sq_subgaussian_explicit</text>
</a>
</g>
</g>
<!-- n28&#45;&gt;n27 -->
<g id="edge33" class="edge">
<title>n28&#45;&gt;n27</title>
<path fill="none" stroke="#64748b" d="M1769.39,-233.1C1836.43,-222.33 1922.94,-208.42 1991.47,-197.41"/>
<polygon fill="#64748b" stroke="#64748b" points="1991.72,-199.85 1998.24,-196.32 1990.94,-195.01 1991.72,-199.85"/>
</g>
<!-- n31 -->
<g id="node24" class="node">
<title>n31</title>
<g id="a_node24"><a xlink:href="vscode://vscode-remote/wsl+Ubuntu/home/ai4stat/statlib/Statlib/HighDim/CovarianceMatrix/SampleCovariance.lean:529" xlink:title="theorem · Statlib/HighDim/CovarianceMatrix/SampleCovariance.lean:529" target="_blank">
<path fill="#ffe6a3" stroke="#d4a017" d="M1186.21,-341.2C1186.21,-341.2 1045.79,-341.2 1045.79,-341.2 1039.79,-341.2 1033.79,-335.2 1033.79,-329.2 1033.79,-329.2 1033.79,-317.2 1033.79,-317.2 1033.79,-311.2 1039.79,-305.2 1045.79,-305.2 1045.79,-305.2 1186.21,-305.2 1186.21,-305.2 1192.21,-305.2 1198.21,-311.2 1198.21,-317.2 1198.21,-317.2 1198.21,-329.2 1198.21,-329.2 1198.21,-335.2 1192.21,-341.2 1186.21,-341.2"/>
<text xml:space="preserve" text-anchor="middle" x="1116" y="-320.2" font-family="Helvetica,sans-Serif" font-size="10.00">sampleCovariance_concentration</text>
</a>
</g>
</g>
<!-- n31&#45;&gt;n0 -->
<g id="edge35" class="edge">
<title>n31&#45;&gt;n0</title>
<path fill="none" stroke="#64748b" d="M1148.75,-304.76C1165.01,-295.33 1184.44,-282.84 1200,-269.2 1215.67,-255.48 1211.29,-242.35 1230,-233.2 1277.74,-209.86 1421.19,-248.39 1469,-225.2 1478.99,-220.36 1487.38,-211.63 1493.78,-203.06"/>
<polygon fill="#64748b" stroke="#64748b" points="1495.64,-204.68 1497.63,-197.54 1491.62,-201.88 1495.64,-204.68"/>
</g>
<!-- n31&#45;&gt;n1 -->
<g id="edge36" class="edge">
<title>n31&#45;&gt;n1</title>
<path fill="none" stroke="#64748b" d="M1134.95,-304.89C1144.85,-295.12 1156.61,-282.28 1165,-269.2 1174.36,-254.61 1165.89,-243.26 1180,-233.2 1203.02,-216.78 1287.64,-245.81 1307,-225.2 1326.84,-204.08 1322.19,-184.68 1307,-160 1297.49,-144.54 1281.92,-133.43 1265.65,-125.51"/>
<polygon fill="#64748b" stroke="#64748b" points="1266.91,-123.39 1259.53,-122.72 1264.88,-127.85 1266.91,-123.39"/>
</g>
<!-- n31&#45;&gt;n2 -->
<g id="edge37" class="edge">
<title>n31&#45;&gt;n2</title>
<path fill="none" stroke="#64748b" d="M1198.52,-306.58C1249.99,-296.55 1317.52,-282.89 1377,-269.2 1377.37,-269.11 1377.75,-269.03 1378.13,-268.94"/>
<polygon fill="#64748b" stroke="#64748b" points="1378.44,-271.38 1384.69,-267.39 1377.32,-266.61 1378.44,-271.38"/>
</g>
<!-- n31&#45;&gt;n3 -->
<g id="edge38" class="edge">
<title>n31&#45;&gt;n3</title>
<path fill="none" stroke="#64748b" d="M1033.54,-320.28C839.01,-315.29 355.94,-300.09 197,-269.2 137.12,-257.56 102.55,-274.77 67,-225.2 47.53,-198.05 55.99,-157.77 64.77,-131.95"/>
<polygon fill="#64748b" stroke="#64748b" points="67.01,-132.95 67.08,-125.54 62.4,-131.29 67.01,-132.95"/>
</g>
<!-- n31&#45;&gt;n4 -->
<g id="edge39" class="edge">
<title>n31&#45;&gt;n4</title>
<path fill="none" stroke="#64748b" d="M1069.02,-304.81C1053.44,-296.54 1037.84,-284.93 1029,-269.2 1021.16,-255.25 1018.42,-245.21 1029,-233.2 1038.33,-222.61 1078.37,-228.85 1092,-225.2 1114.96,-219.04 1139.44,-209.12 1159.47,-200.05"/>
<polygon fill="#64748b" stroke="#64748b" points="1160.48,-202.28 1165.82,-197.12 1158.43,-197.83 1160.48,-202.28"/>
</g>
<!-- n31&#45;&gt;n5 -->
<g id="edge40" class="edge">
<title>n31&#45;&gt;n5</title>
<path fill="none" stroke="#64748b" d="M1033.52,-320.38C831,-315.45 320.54,-300.1 250,-269.2 217.66,-255.03 189.81,-224.6 173,-203.01"/>
<polygon fill="#64748b" stroke="#64748b" points="175.03,-201.64 168.85,-197.55 171.13,-204.61 175.03,-201.64"/>
</g>
<!-- n31&#45;&gt;n6 -->
<g id="edge41" class="edge">
<title>n31&#45;&gt;n6</title>
<path fill="none" stroke="#64748b" d="M1069.04,-304.72C1042.81,-294.95 1010,-282.73 982.62,-272.54"/>
<polygon fill="#64748b" stroke="#64748b" points="983.52,-270.26 976.1,-270.11 981.81,-274.85 983.52,-270.26"/>
</g>
<!-- n31&#45;&gt;n7 -->
<g id="edge43" class="edge">
<title>n31&#45;&gt;n7</title>
<path fill="none" stroke="#64748b" d="M1033.57,-322.21C861.66,-321.31 470.52,-314.2 346,-269.2 314.56,-257.84 307.74,-249.7 285,-225.2 261.87,-200.28 270.62,-182.34 245,-160 215,-133.84 184.76,-157.32 163,-124 154.25,-110.6 152.45,-100.03 163,-88 186.6,-61.1 425.31,-43.61 524.32,-37.46"/>
<polygon fill="#64748b" stroke="#64748b" points="524.26,-39.92 531.1,-37.05 523.96,-35.03 524.26,-39.92"/>
</g>
<!-- n31&#45;&gt;n11 -->
<g id="edge42" class="edge">
<title>n31&#45;&gt;n11</title>
<path fill="none" stroke="#64748b" d="M1033.48,-317.4C920.65,-310.24 711.81,-294.94 525.25,-269.17"/>
<polygon fill="#64748b" stroke="#64748b" points="525.72,-266.76 518.45,-268.22 525.04,-271.62 525.72,-266.76"/>
</g>
<!-- n31&#45;&gt;n17 -->
<g id="edge44" class="edge">
<title>n31&#45;&gt;n17</title>
<path fill="none" stroke="#64748b" d="M1033.5,-309.07C966.03,-298.34 869.77,-283.03 794.13,-270.99"/>
<polygon fill="#64748b" stroke="#64748b" points="794.74,-268.61 787.44,-269.93 793.97,-273.45 794.74,-268.61"/>
</g>
<!-- n31&#45;&gt;n18 -->
<g id="edge45" class="edge">
<title>n31&#45;&gt;n18</title>
<path fill="none" stroke="#64748b" d="M1111.3,-304.9C1109.05,-296.59 1106.3,-286.48 1103.82,-277.34"/>
<polygon fill="#64748b" stroke="#64748b" points="1106.24,-276.88 1102.04,-270.77 1101.51,-278.16 1106.24,-276.88"/>
</g>
<!-- n31&#45;&gt;n19 -->
<g id="edge46" class="edge">
<title>n31&#45;&gt;n19</title>
<path fill="none" stroke="#64748b" d="M1139.09,-304.77C1151.67,-294.87 1167.23,-281.93 1180,-269.2 1194.75,-254.5 1191.47,-242.7 1210,-233.2 1232.2,-221.82 1298.23,-232.78 1322,-225.2 1338.66,-219.89 1355.46,-210.23 1369,-201.12"/>
<polygon fill="#64748b" stroke="#64748b" points="1370.17,-203.29 1374.53,-197.29 1367.38,-199.26 1370.17,-203.29"/>
</g>
<!-- n31&#45;&gt;n20 -->
<g id="edge47" class="edge">
<title>n31&#45;&gt;n20</title>
<path fill="none" stroke="#64748b" d="M1164.7,-304.72C1192.03,-294.91 1226.24,-282.63 1254.71,-272.41"/>
<polygon fill="#64748b" stroke="#64748b" points="1255.39,-274.76 1261.15,-270.09 1253.74,-270.15 1255.39,-274.76"/>
</g>
<!-- n31&#45;&gt;n28 -->
<g id="edge48" class="edge">
<title>n31&#45;&gt;n28</title>
<path fill="none" stroke="#64748b" d="M1198.48,-311.64C1291.62,-299.73 1443.77,-280.25 1548.41,-266.86"/>
<polygon fill="#64748b" stroke="#64748b" points="1548.67,-269.3 1555.31,-265.98 1548.05,-264.44 1548.67,-269.3"/>
</g>
<!-- n30 -->
<g id="node34" class="node">
<title>n30</title>
<g id="a_node34"><a xlink:href="vscode://vscode-remote/wsl+Ubuntu/home/ai4stat/statlib/Statlib/StatFoundation/Concentration/ExponentialType/bernstein_sum_meas_abs_ge_le_two_exp.lean:13" xlink:title="theorem · Statlib/StatFoundation/Concentration/ExponentialType/bernstein_sum_meas_abs_ge_le_two_exp.lean:13" target="_blank">
<path fill="#ffe6a3" stroke="#d4a017" d="M2508.06,-196C2508.06,-196 2325.94,-196 2325.94,-196 2319.94,-196 2313.94,-190 2313.94,-184 2313.94,-184 2313.94,-172 2313.94,-172 2313.94,-166 2319.94,-160 2325.94,-160 2325.94,-160 2508.06,-160 2508.06,-160 2514.06,-160 2520.06,-166 2520.06,-172 2520.06,-172 2520.06,-184 2520.06,-184 2520.06,-190 2514.06,-196 2508.06,-196"/>
<text xml:space="preserve" text-anchor="middle" x="2417" y="-175" font-family="Helvetica,sans-Serif" font-size="10.00">bernstein_sum_meas_abs_ge_le_two_exp</text>
</a>
</g>
</g>
<!-- n31&#45;&gt;n30 -->
<g id="edge49" class="edge">
<title>n31&#45;&gt;n30</title>
<path fill="none" stroke="#64748b" d="M1198.68,-319.33C1383.23,-311.97 1842.28,-288.36 2221,-225.2 2262.2,-218.33 2307.63,-207.81 2344.37,-198.54"/>
<polygon fill="#64748b" stroke="#64748b" points="2344.9,-200.94 2351.08,-196.84 2343.69,-196.19 2344.9,-200.94"/>
</g>
<!-- n32 -->
<g id="node25" class="node">
<title>n32</title>
<g id="a_node25"><a xlink:href="vscode://vscode-remote/wsl+Ubuntu/home/ai4stat/statlib/Statlib/HighDim/CovarianceMatrix/SampleCovariance.lean:1316" xlink:title="theorem · Statlib/HighDim/CovarianceMatrix/SampleCovariance.lean:1316" target="_blank">
<path fill="#ffe6a3" stroke="#d4a017" d="M1240.37,-413.2C1240.37,-413.2 1111.63,-413.2 1111.63,-413.2 1105.63,-413.2 1099.63,-407.2 1099.63,-401.2 1099.63,-401.2 1099.63,-389.2 1099.63,-389.2 1099.63,-383.2 1105.63,-377.2 1111.63,-377.2 1111.63,-377.2 1240.37,-377.2 1240.37,-377.2 1246.37,-377.2 1252.37,-383.2 1252.37,-389.2 1252.37,-389.2 1252.37,-401.2 1252.37,-401.2 1252.37,-407.2 1246.37,-413.2 1240.37,-413.2"/>
<text xml:space="preserve" text-anchor="middle" x="1176" y="-392.2" font-family="Helvetica,sans-Serif" font-size="10.00">sampleCovariance_confidence</text>
</a>
</g>
</g>
<!-- n32&#45;&gt;n0 -->
<g id="edge50" class="edge">
<title>n32&#45;&gt;n0</title>
<path fill="none" stroke="#64748b" d="M1187.2,-376.99C1193.52,-366.83 1201.27,-353.58 1207,-341.2 1228.39,-295.03 1204.01,-263.35 1245,-233.2 1265.06,-218.45 1446.6,-236.09 1469,-225.2 1478.98,-220.35 1487.37,-211.62 1493.78,-203.05"/>
<polygon fill="#64748b" stroke="#64748b" points="1495.63,-204.67 1497.62,-197.53 1491.61,-201.87 1495.63,-204.67"/>
</g>
<!-- n32&#45;&gt;n1 -->
<g id="edge51" class="edge">
<title>n32&#45;&gt;n1</title>
<path fill="none" stroke="#64748b" d="M1099.18,-384.06C978.02,-365.22 764.4,-318.75 847,-233.2 864.61,-214.96 1054.67,-240.34 1075,-225.2 1099.53,-206.93 1076.96,-183.11 1097,-160 1108.83,-146.35 1125.02,-135.81 1141.15,-127.86"/>
<polygon fill="#64748b" stroke="#64748b" points="1141.88,-130.22 1147.17,-125.02 1139.79,-125.79 1141.88,-130.22"/>
</g>
<!-- n32&#45;&gt;n2 -->
<g id="edge52" class="edge">
<title>n32&#45;&gt;n2</title>
<path fill="none" stroke="#64748b" d="M1208.74,-376.79C1257.81,-350.69 1350.32,-301.49 1403.22,-273.36"/>
<polygon fill="#64748b" stroke="#64748b" points="1404.04,-275.69 1409.07,-270.24 1401.74,-271.37 1404.04,-275.69"/>
</g>
<!-- n32&#45;&gt;n3 -->
<g id="edge53" class="edge">
<title>n32&#45;&gt;n3</title>
<path fill="none" stroke="#64748b" d="M1099.27,-395.08C876.55,-396.18 235.38,-388.65 71,-269.2 31.09,-240.19 40.59,-208.23 51,-160 53.06,-150.48 56.97,-140.6 61.05,-132"/>
<polygon fill="#64748b" stroke="#64748b" points="63.18,-133.21 64.12,-125.85 58.8,-131.02 63.18,-133.21"/>
</g>
<!-- n32&#45;&gt;n31 -->
<g id="edge54" class="edge">
<title>n32&#45;&gt;n31</title>
<path fill="none" stroke="#64748b" d="M1161.17,-376.9C1153.61,-368.08 1144.31,-357.23 1136.12,-347.67"/>
<polygon fill="#64748b" stroke="#64748b" points="1138.06,-346.17 1131.65,-342.45 1134.34,-349.36 1138.06,-346.17"/>
</g>
<!-- n33 -->
<g id="node26" class="node">
<title>n33</title>
<g id="a_node26"><a xlink:href="vscode://vscode-remote/wsl+Ubuntu/home/ai4stat/statlib/Statlib/HighDim/CovarianceMatrix/SampleCovEigenvalueLower.lean:21" xlink:title="theorem · Statlib/HighDim/CovarianceMatrix/SampleCovEigenvalueLower.lean:21" target="_blank">
<path fill="#ffe6a3" stroke="#d4a017" stroke-width="3" d="M1500.7,-485.2C1500.7,-485.2 1385.3,-485.2 1385.3,-485.2 1379.3,-485.2 1373.3,-479.2 1373.3,-473.2 1373.3,-473.2 1373.3,-461.2 1373.3,-461.2 1373.3,-455.2 1379.3,-449.2 1385.3,-449.2 1385.3,-449.2 1500.7,-449.2 1500.7,-449.2 1506.7,-449.2 1512.7,-455.2 1512.7,-461.2 1512.7,-461.2 1512.7,-473.2 1512.7,-473.2 1512.7,-479.2 1506.7,-485.2 1500.7,-485.2"/>
<text xml:space="preserve" text-anchor="middle" x="1443" y="-464.2" font-family="Helvetica,sans-Serif" font-size="10.00">sample_cov_min_eig_lower</text>
</a>
</g>
</g>
<!-- n33&#45;&gt;n0 -->
<g id="edge55" class="edge">
<title>n33&#45;&gt;n0</title>
<path fill="none" stroke="#64748b" d="M1451.22,-447.95C1466.11,-413.75 1497.06,-337.29 1508,-269.2 1511.46,-247.67 1511.16,-222.89 1510.16,-204.75"/>
<polygon fill="#64748b" stroke="#64748b" points="1512.62,-204.76 1509.72,-197.93 1507.73,-205.07 1512.62,-204.76"/>
</g>
<!-- n33&#45;&gt;n1 -->
<g id="edge56" class="edge">
<title>n33&#45;&gt;n1</title>
<path fill="none" stroke="#64748b" d="M1456.77,-447.72C1463.73,-437.82 1471.96,-425.22 1478,-413.2 1517.87,-333.79 1530.66,-312.72 1546,-225.2 1551,-196.66 1564.87,-182 1546,-160 1510.7,-118.84 1355.84,-109.34 1266.4,-107.34"/>
<polygon fill="#64748b" stroke="#64748b" points="1266.51,-104.9 1259.46,-107.2 1266.41,-109.79 1266.51,-104.9"/>
</g>
<!-- n33&#45;&gt;n2 -->
<g id="edge57" class="edge">
<title>n33&#45;&gt;n2</title>
<path fill="none" stroke="#64748b" d="M1443,-447.95C1443,-409.85 1443,-321.71 1443,-277.89"/>
<polygon fill="#64748b" stroke="#64748b" points="1445.45,-278.01 1443,-271.01 1440.55,-278.01 1445.45,-278.01"/>
</g>
<!-- n33&#45;&gt;n3 -->
<g id="edge58" class="edge">
<title>n33&#45;&gt;n3</title>
<path fill="none" stroke="#64748b" d="M1372.28,-466.66C1084.55,-467.64 17,-461.97 17,-324.2 17,-324.2 17,-324.2 17,-250.2 17,-209.04 21.25,-197.6 38,-160 42.54,-149.81 49.13,-139.54 55.5,-130.79"/>
<polygon fill="#64748b" stroke="#64748b" points="57.35,-132.4 59.61,-125.34 53.44,-129.46 57.35,-132.4"/>
</g>
<!-- n33&#45;&gt;n32 -->
<g id="edge59" class="edge">
<title>n33&#45;&gt;n32</title>
<path fill="none" stroke="#64748b" d="M1372.5,-447.72C1334.85,-437.85 1288.53,-425.7 1250.32,-415.69"/>
<polygon fill="#64748b" stroke="#64748b" points="1251.15,-413.37 1243.76,-413.97 1249.91,-418.11 1251.15,-413.37"/>
</g>
<!-- n22 -->
<g id="node27" class="node">
<title>n22</title>
<g id="a_node27"><a xlink:href="vscode://vscode-remote/wsl+Ubuntu/home/ai4stat/statlib/Statlib/StatFoundation/RandomVariable/SubExponential/subexp_mgf_le_of_sq_subgaussian.lean:13" xlink:title="lemma · Statlib/StatFoundation/RandomVariable/SubExponential/subexp_mgf_le_of_sq_subgaussian.lean:13" target="_blank">
<path fill="#eef2f6" stroke="#94a3b8" d="M2327.2,-124C2327.2,-124 2246.8,-124 2246.8,-124 2240.8,-124 2234.8,-118 2234.8,-112 2234.8,-112 2234.8,-100 2234.8,-100 2234.8,-94 2240.8,-88 2246.8,-88 2246.8,-88 2327.2,-88 2327.2,-88 2333.2,-88 2339.2,-94 2339.2,-100 2339.2,-100 2339.2,-112 2339.2,-112 2339.2,-118 2333.2,-124 2327.2,-124"/>
<text xml:space="preserve" text-anchor="middle" x="2287" y="-103" font-family="Helvetica,sans-Serif" font-size="10.00">sub_gauss_tail_abs</text>
</a>
</g>
</g>
<!-- n23 -->
<g id="node28" class="node">
<title>n23</title>
<g id="a_node28"><a xlink:href="vscode://vscode-remote/wsl+Ubuntu/home/ai4stat/statlib/Statlib/StatFoundation/RandomVariable/SubGaussian/sq_le_two_mul_exp.lean:10" xlink:title="lemma · Statlib/StatFoundation/RandomVariable/SubGaussian/sq_le_two_mul_exp.lean:10" target="_blank">
<path fill="#eef2f6" stroke="#94a3b8" d="M2449.19,-124C2449.19,-124 2368.81,-124 2368.81,-124 2362.81,-124 2356.81,-118 2356.81,-112 2356.81,-112 2356.81,-100 2356.81,-100 2356.81,-94 2362.81,-88 2368.81,-88 2368.81,-88 2449.19,-88 2449.19,-88 2455.19,-88 2461.19,-94 2461.19,-100 2461.19,-100 2461.19,-112 2461.19,-112 2461.19,-118 2455.19,-124 2449.19,-124"/>
<text xml:space="preserve" text-anchor="middle" x="2409" y="-103" font-family="Helvetica,sans-Serif" font-size="10.00">sq_le_two_mul_exp</text>
</a>
</g>
</g>
<!-- n24 -->
<g id="node29" class="node">
<title>n24</title>
<g id="a_node29"><a xlink:href="vscode://vscode-remote/wsl+Ubuntu/home/ai4stat/statlib/Statlib/StatFoundation/RandomVariable/SubGaussian/subgaussian_meas_abs_ge_le_two_exp.lean:9" xlink:title="theorem · Statlib/StatFoundation/RandomVariable/SubGaussian/subgaussian_meas_abs_ge_le_two_exp.lean:9" target="_blank">
<path fill="#ffe6a3" stroke="#d4a017" d="M2084.34,-52C2084.34,-52 1911.66,-52 1911.66,-52 1905.66,-52 1899.66,-46 1899.66,-40 1899.66,-40 1899.66,-28 1899.66,-28 1899.66,-22 1905.66,-16 1911.66,-16 1911.66,-16 2084.34,-16 2084.34,-16 2090.34,-16 2096.34,-22 2096.34,-28 2096.34,-28 2096.34,-40 2096.34,-40 2096.34,-46 2090.34,-52 2084.34,-52"/>
<text xml:space="preserve" text-anchor="middle" x="1998" y="-31" font-family="Helvetica,sans-Serif" font-size="10.00">subgaussian_meas_abs_ge_le_two_exp</text>
</a>
</g>
</g>
<!-- n25 -->
<g id="node30" class="node">
<title>n25</title>
<g id="a_node30"><a xlink:href="vscode://vscode-remote/wsl+Ubuntu/home/ai4stat/statlib/Statlib/StatFoundation/RandomVariable/SubGaussian/subgaussian_exp_sq_le_at_one_third.lean:14" xlink:title="theorem · Statlib/StatFoundation/RandomVariable/SubGaussian/subgaussian_exp_sq_le_at_one_third.lean:14" target="_blank">
<path fill="#ffe6a3" stroke="#d4a017" d="M1965.23,-124C1965.23,-124 1804.77,-124 1804.77,-124 1798.77,-124 1792.77,-118 1792.77,-112 1792.77,-112 1792.77,-100 1792.77,-100 1792.77,-94 1798.77,-88 1804.77,-88 1804.77,-88 1965.23,-88 1965.23,-88 1971.23,-88 1977.23,-94 1977.23,-100 1977.23,-100 1977.23,-112 1977.23,-112 1977.23,-118 1971.23,-124 1965.23,-124"/>
<text xml:space="preserve" text-anchor="middle" x="1885" y="-103" font-family="Helvetica,sans-Serif" font-size="10.00">subgaussian_exp_sq_le_at_one_third</text>
</a>
</g>
</g>
<!-- n25&#45;&gt;n24 -->
<g id="edge26" class="edge">
<title>n25&#45;&gt;n24</title>
<path fill="none" stroke="#64748b" d="M1913.22,-87.52C1928.3,-78.18 1947,-66.59 1963,-56.68"/>
<polygon fill="#64748b" stroke="#64748b" points="1964.19,-58.83 1968.85,-53.06 1961.61,-54.66 1964.19,-58.83"/>
</g>
<!-- n26 -->
<g id="node31" class="node">
<title>n26</title>
<g id="a_node31"><a xlink:href="vscode://vscode-remote/wsl+Ubuntu/home/ai4stat/statlib/Statlib/StatFoundation/RandomVariable/SubGaussian/subgaussian_exp_sq_le_at_one_third.lean:166" xlink:title="theorem · Statlib/StatFoundation/RandomVariable/SubGaussian/subgaussian_exp_sq_le_at_one_third.lean:166" target="_blank">
<path fill="#ffe6a3" stroke="#d4a017" d="M2204.3,-124C2204.3,-124 2007.7,-124 2007.7,-124 2001.7,-124 1995.7,-118 1995.7,-112 1995.7,-112 1995.7,-100 1995.7,-100 1995.7,-94 2001.7,-88 2007.7,-88 2007.7,-88 2204.3,-88 2204.3,-88 2210.3,-88 2216.3,-94 2216.3,-100 2216.3,-100 2216.3,-112 2216.3,-112 2216.3,-118 2210.3,-124 2204.3,-124"/>
<text xml:space="preserve" text-anchor="middle" x="2106" y="-103" font-family="Helvetica,sans-Serif" font-size="10.00">subgaussian_integrable_exp_sq_at_one_third</text>
</a>
</g>
</g>
<!-- n26&#45;&gt;n24 -->
<g id="edge27" class="edge">
<title>n26&#45;&gt;n24</title>
<path fill="none" stroke="#64748b" d="M2079.03,-87.52C2064.61,-78.18 2046.74,-66.59 2031.45,-56.68"/>
<polygon fill="#64748b" stroke="#64748b" points="2033.11,-54.84 2025.9,-53.08 2030.44,-58.95 2033.11,-54.84"/>
</g>
<!-- n27&#45;&gt;n22 -->
<g id="edge28" class="edge">
<title>n27&#45;&gt;n22</title>
<path fill="none" stroke="#64748b" d="M2151.21,-159.52C2176.46,-149.75 2208.06,-137.53 2234.41,-127.34"/>
<polygon fill="#64748b" stroke="#64748b" points="2235,-129.74 2240.64,-124.93 2233.23,-125.17 2235,-129.74"/>
</g>
<!-- n27&#45;&gt;n23 -->
<g id="edge29" class="edge">
<title>n27&#45;&gt;n23</title>
<path fill="none" stroke="#64748b" d="M2191.39,-159.52C2237.85,-149.71 2296.24,-136.87 2348,-124 2348.09,-123.98 2348.17,-123.96 2348.26,-123.94"/>
<polygon fill="#64748b" stroke="#64748b" points="2348.83,-126.32 2355.01,-122.21 2347.62,-121.57 2348.83,-126.32"/>
</g>
<!-- n27&#45;&gt;n25 -->
<g id="edge30" class="edge">
<title>n27&#45;&gt;n25</title>
<path fill="none" stroke="#64748b" d="M2050.8,-159.52C2019.57,-149.62 1980.39,-137.22 1947.97,-126.94"/>
<polygon fill="#64748b" stroke="#64748b" points="1948.73,-124.62 1941.32,-124.84 1947.25,-129.29 1948.73,-124.62"/>
</g>
<!-- n27&#45;&gt;n26 -->
<g id="edge31" class="edge">
<title>n27&#45;&gt;n26</title>
<path fill="none" stroke="#64748b" d="M2106,-159.7C2106,-151.47 2106,-141.48 2106,-132.42"/>
<polygon fill="#64748b" stroke="#64748b" points="2108.45,-132.62 2106,-125.62 2103.55,-132.62 2108.45,-132.62"/>
</g>
<!-- n29 -->
<g id="node33" class="node">
<title>n29</title>
<g id="a_node33"><a xlink:href="vscode://vscode-remote/wsl+Ubuntu/home/ai4stat/statlib/Statlib/StatFoundation/Vocabulary/RandomVariable.lean:74" xlink:title="structure · Statlib/StatFoundation/Vocabulary/RandomVariable.lean:74" target="_blank">
<path fill="#e8dcff" stroke="#8b5cf6" d="M2592.47,-124C2592.47,-124 2491.53,-124 2491.53,-124 2485.53,-124 2479.53,-118 2479.53,-112 2479.53,-112 2479.53,-100 2479.53,-100 2479.53,-94 2485.53,-88 2491.53,-88 2491.53,-88 2592.47,-88 2592.47,-88 2598.47,-88 2604.47,-94 2604.47,-100 2604.47,-100 2604.47,-112 2604.47,-112 2604.47,-118 2598.47,-124 2592.47,-124"/>
<text xml:space="preserve" text-anchor="middle" x="2542" y="-103" font-family="Helvetica,sans-Serif" font-size="10.00">HasSubexponentialMGF</text>
</a>
</g>
</g>
<!-- n30&#45;&gt;n29 -->
<g id="edge34" class="edge">
<title>n30&#45;&gt;n29</title>
<path fill="none" stroke="#64748b" d="M2448.22,-159.52C2465.05,-150.09 2485.96,-138.38 2503.76,-128.41"/>
<polygon fill="#64748b" stroke="#64748b" points="2504.95,-130.56 2509.86,-125 2502.55,-126.28 2504.95,-130.56"/>
</g>
</g>
</svg>
