<?xml version="1.0" encoding="UTF-8" standalone="no"?>
<!DOCTYPE svg PUBLIC "-//W3C//DTD SVG 1.1//EN"
 "http://www.w3.org/Graphics/SVG/1.1/DTD/svg11.dtd">
<!-- Generated by graphviz version 15.0.0 (20260523.1842)
 -->
<!-- Title: sample_cov_max_eig_upper Pages: 1 -->
<svg width="1735pt" height="555pt"
 viewBox="0.00 0.00 1735.00 555.00" xmlns="http://www.w3.org/2000/svg" xmlns:xlink="http://www.w3.org/1999/xlink">
<g id="graph0" class="graph" transform="scale(1 1) rotate(0) translate(4 551.2)">
<title>sample_cov_max_eig_upper</title>
<polygon fill="white" stroke="none" points="-4,4 -4,-551.2 1731,-551.2 1731,4 -4,4"/>
<text xml:space="preserve" text-anchor="middle" x="863.5" y="-530.6" font-family="Helvetica,sans-Serif" font-size="14.00">Proof narrative — sample_cov_max_eig_upper &#160;(25 decls)</text>
<g id="clust1" class="cluster">
<title>cluster_0</title>
<path fill="none" stroke="#cbd5e1" stroke-dasharray="5,2" d="M20,-8C20,-8 1477,-8 1477,-8 1483,-8 1489,-14 1489,-20 1489,-20 1489,-502.4 1489,-502.4 1489,-508.4 1483,-514.4 1477,-514.4 1477,-514.4 20,-514.4 20,-514.4 14,-514.4 8,-508.4 8,-502.4 8,-502.4 8,-20 8,-20 8,-14 14,-8 20,-8"/>
<text xml:space="preserve" text-anchor="middle" x="748.5" y="-500.5" font-family="Helvetica,sans-Serif" font-size="11.00">HighDim</text>
</g>
<g id="clust2" class="cluster">
<title>cluster_1</title>
<path fill="none" stroke="#cbd5e1" stroke-dasharray="5,2" d="M1509,-152C1509,-152 1707,-152 1707,-152 1713,-152 1719,-158 1719,-164 1719,-164 1719,-285.2 1719,-285.2 1719,-291.2 1713,-297.2 1707,-297.2 1707,-297.2 1509,-297.2 1509,-297.2 1503,-297.2 1497,-291.2 1497,-285.2 1497,-285.2 1497,-164 1497,-164 1497,-158 1503,-152 1509,-152"/>
<text xml:space="preserve" text-anchor="middle" x="1608" y="-283.3" font-family="Helvetica,sans-Serif" font-size="11.00">StatFoundation</text>
</g>
<!-- n0 -->
<g id="node1" class="node">
<title>n0</title>
<g id="a_node1"><a xlink:href="https://github.com/statopia/statlib/blob/main/Statlib/HighDim/Vocabulary/RandomVector.lean#L83" xlink:title="structure · Statlib/HighDim/Vocabulary/RandomVector.lean:83" target="_blank">
<path fill="#e8dcff" stroke="#8b5cf6" d="M1469.4,-268C1469.4,-268 1434.6,-268 1434.6,-268 1428.6,-268 1422.6,-262 1422.6,-256 1422.6,-256 1422.6,-244 1422.6,-244 1422.6,-238 1428.6,-232 1434.6,-232 1434.6,-232 1469.4,-232 1469.4,-232 1475.4,-232 1481.4,-238 1481.4,-244 1481.4,-244 1481.4,-256 1481.4,-256 1481.4,-262 1475.4,-268 1469.4,-268"/>
<text xml:space="preserve" text-anchor="middle" x="1452" y="-247" font-family="Helvetica,sans-Serif" font-size="10.00">HasMean</text>
</a>
</g>
</g>
<!-- n1 -->
<g id="node2" class="node">
<title>n1</title>
<g id="a_node2"><a xlink:href="https://github.com/statopia/statlib/blob/main/Statlib/HighDim/Vocabulary/RandomVector.lean#L101" xlink:title="structure · Statlib/HighDim/Vocabulary/RandomVector.lean:101" target="_blank">
<path fill="#e8dcff" stroke="#8b5cf6" d="M215.79,-124C215.79,-124 128.21,-124 128.21,-124 122.21,-124 116.21,-118 116.21,-112 116.21,-112 116.21,-100 116.21,-100 116.21,-94 122.21,-88 128.21,-88 128.21,-88 215.79,-88 215.79,-88 221.79,-88 227.79,-94 227.79,-100 227.79,-100 227.79,-112 227.79,-112 227.79,-118 221.79,-124 215.79,-124"/>
<text xml:space="preserve" text-anchor="middle" x="172" y="-103" font-family="Helvetica,sans-Serif" font-size="10.00">HasCovarianceMatrix</text>
</a>
</g>
</g>
<!-- n2 -->
<g id="node3" class="node">
<title>n2</title>
<g id="a_node3"><a xlink:href="https://github.com/statopia/statlib/blob/main/Statlib/HighDim/Vocabulary/RandomVector.lean#L52" xlink:title="structure · Statlib/HighDim/Vocabulary/RandomVector.lean:52" target="_blank">
<path fill="#e8dcff" stroke="#8b5cf6" d="M194.36,-268C194.36,-268 105.64,-268 105.64,-268 99.64,-268 93.64,-262 93.64,-256 93.64,-256 93.64,-244 93.64,-244 93.64,-238 99.64,-232 105.64,-232 105.64,-232 194.36,-232 194.36,-232 200.36,-232 206.36,-238 206.36,-244 206.36,-244 206.36,-256 206.36,-256 206.36,-262 200.36,-268 194.36,-268"/>
<text xml:space="preserve" text-anchor="middle" x="150" y="-247" font-family="Helvetica,sans-Serif" font-size="10.00">IsSubGaussianVector</text>
</a>
</g>
</g>
<!-- n3 -->
<g id="node4" class="node">
<title>n3</title>
<g id="a_node4"><a xlink:href="https://github.com/statopia/statlib/blob/main/Statlib/HighDim/CovarianceMatrix/SampleCovariance.lean#L199" xlink:title="noncomputable def · Statlib/HighDim/CovarianceMatrix/SampleCovariance.lean:199" target="_blank">
<path fill="#d6e9ff" stroke="#3b82f6" d="M1055.14,-124C1055.14,-124 960.86,-124 960.86,-124 954.86,-124 948.86,-118 948.86,-112 948.86,-112 948.86,-100 948.86,-100 948.86,-94 954.86,-88 960.86,-88 960.86,-88 1055.14,-88 1055.14,-88 1061.14,-88 1067.14,-94 1067.14,-100 1067.14,-100 1067.14,-112 1067.14,-112 1067.14,-118 1061.14,-124 1055.14,-124"/>
<text xml:space="preserve" text-anchor="middle" x="1008" y="-103" font-family="Helvetica,sans-Serif" font-size="10.00">sampleSecondMoment</text>
</a>
</g>
</g>
<!-- n4 -->
<g id="node5" class="node">
<title>n4</title>
<g id="a_node5"><a xlink:href="https://github.com/statopia/statlib/blob/main/Statlib/HighDim/CovarianceMatrix/SampleCovariance.lean#L219" xlink:title="lemma · Statlib/HighDim/CovarianceMatrix/SampleCovariance.lean:219" target="_blank">
<path fill="#eef2f6" stroke="#94a3b8" d="M255.82,-196C255.82,-196 88.18,-196 88.18,-196 82.18,-196 76.18,-190 76.18,-184 76.18,-184 76.18,-172 76.18,-172 76.18,-166 82.18,-160 88.18,-160 88.18,-160 255.82,-160 255.82,-160 261.82,-160 267.82,-166 267.82,-172 267.82,-172 267.82,-184 267.82,-184 267.82,-190 261.82,-196 255.82,-196"/>
<text xml:space="preserve" text-anchor="middle" x="172" y="-175" font-family="Helvetica,sans-Serif" font-size="10.00">covariance_isSymm_of_hasCovariance</text>
</a>
</g>
</g>
<!-- n4&#45;&gt;n1 -->
<g id="edge1" class="edge">
<title>n4&#45;&gt;n1</title>
<path fill="none" stroke="#64748b" d="M172,-159.7C172,-151.47 172,-141.48 172,-132.42"/>
<polygon fill="#64748b" stroke="#64748b" points="174.45,-132.62 172,-125.62 169.55,-132.62 174.45,-132.62"/>
</g>
<!-- n5 -->
<g id="node6" class="node">
<title>n5</title>
<g id="a_node6"><a xlink:href="https://github.com/statopia/statlib/blob/main/Statlib/HighDim/CovarianceMatrix/SampleCovariance.lean#L205" xlink:title="lemma · Statlib/HighDim/CovarianceMatrix/SampleCovariance.lean:205" target="_blank">
<path fill="#eef2f6" stroke="#94a3b8" d="M1186.69,-196C1186.69,-196 1051.31,-196 1051.31,-196 1045.31,-196 1039.31,-190 1039.31,-184 1039.31,-184 1039.31,-172 1039.31,-172 1039.31,-166 1045.31,-160 1051.31,-160 1051.31,-160 1186.69,-160 1186.69,-160 1192.69,-160 1198.69,-166 1198.69,-172 1198.69,-172 1198.69,-184 1198.69,-184 1198.69,-190 1192.69,-196 1186.69,-196"/>
<text xml:space="preserve" text-anchor="middle" x="1119" y="-175" font-family="Helvetica,sans-Serif" font-size="10.00">sampleSecondMoment_isSymm</text>
</a>
</g>
</g>
<!-- n5&#45;&gt;n3 -->
<g id="edge2" class="edge">
<title>n5&#45;&gt;n3</title>
<path fill="none" stroke="#64748b" d="M1091.28,-159.52C1076.46,-150.18 1058.1,-138.59 1042.38,-128.68"/>
<polygon fill="#64748b" stroke="#64748b" points="1043.88,-126.73 1036.65,-125.07 1041.26,-130.87 1043.88,-126.73"/>
</g>
<!-- n6 -->
<g id="node7" class="node">
<title>n6</title>
<g id="a_node7"><a xlink:href="https://github.com/statopia/statlib/blob/main/Statlib/HighDim/CovarianceMatrix/SampleCovariance.lean#L187" xlink:title="lemma · Statlib/HighDim/CovarianceMatrix/SampleCovariance.lean:187" target="_blank">
<path fill="#eef2f6" stroke="#94a3b8" d="M1017.63,-268C1017.63,-268 898.37,-268 898.37,-268 892.37,-268 886.37,-262 886.37,-256 886.37,-256 886.37,-244 886.37,-244 886.37,-238 892.37,-232 898.37,-232 898.37,-232 1017.63,-232 1017.63,-232 1023.63,-232 1029.63,-238 1029.63,-244 1029.63,-244 1029.63,-256 1029.63,-256 1029.63,-262 1023.63,-268 1017.63,-268"/>
<text xml:space="preserve" text-anchor="middle" x="958" y="-247" font-family="Helvetica,sans-Serif" font-size="10.00">real_isHermitian_of_isSymm</text>
</a>
</g>
</g>
<!-- n7 -->
<g id="node8" class="node">
<title>n7</title>
<g id="a_node8"><a xlink:href="https://github.com/statopia/statlib/blob/main/Statlib/HighDim/Vocabulary/Norms.lean#L41" xlink:title="noncomputable def · Statlib/HighDim/Vocabulary/Norms.lean:41" target="_blank">
<path fill="#d6e9ff" stroke="#3b82f6" d="M952.13,-52C952.13,-52 907.87,-52 907.87,-52 901.87,-52 895.87,-46 895.87,-40 895.87,-40 895.87,-28 895.87,-28 895.87,-22 901.87,-16 907.87,-16 907.87,-16 952.13,-16 952.13,-16 958.13,-16 964.13,-22 964.13,-28 964.13,-28 964.13,-40 964.13,-40 964.13,-46 958.13,-52 952.13,-52"/>
<text xml:space="preserve" text-anchor="middle" x="930" y="-31" font-family="Helvetica,sans-Serif" font-size="10.00">toEuclidean</text>
</a>
</g>
</g>
<!-- n8 -->
<g id="node9" class="node">
<title>n8</title>
<g id="a_node9"><a xlink:href="https://github.com/statopia/statlib/blob/main/Statlib/HighDim/CovarianceMatrix/SampleCovariance.lean#L42" xlink:title="lemma · Statlib/HighDim/CovarianceMatrix/SampleCovariance.lean:42" target="_blank">
<path fill="#eef2f6" stroke="#94a3b8" d="M1317.23,-124C1317.23,-124 1136.77,-124 1136.77,-124 1130.77,-124 1124.77,-118 1124.77,-112 1124.77,-112 1124.77,-100 1124.77,-100 1124.77,-94 1130.77,-88 1136.77,-88 1136.77,-88 1317.23,-88 1317.23,-88 1323.23,-88 1329.23,-94 1329.23,-100 1329.23,-100 1329.23,-112 1329.23,-112 1329.23,-118 1323.23,-124 1317.23,-124"/>
<text xml:space="preserve" text-anchor="middle" x="1227" y="-103" font-family="Helvetica,sans-Serif" font-size="10.00">hermitian_norm_eq_diagonal_eigenvalues</text>
</a>
</g>
</g>
<!-- n9 -->
<g id="node10" class="node">
<title>n9</title>
<g id="a_node10"><a xlink:href="https://github.com/statopia/statlib/blob/main/Statlib/HighDim/CovarianceMatrix/SampleCovariance.lean#L62" xlink:title="lemma · Statlib/HighDim/CovarianceMatrix/SampleCovariance.lean:62" target="_blank">
<path fill="#eef2f6" stroke="#94a3b8" d="M1469.21,-124C1469.21,-124 1358.79,-124 1358.79,-124 1352.79,-124 1346.79,-118 1346.79,-112 1346.79,-112 1346.79,-100 1346.79,-100 1346.79,-94 1352.79,-88 1358.79,-88 1358.79,-88 1469.21,-88 1469.21,-88 1475.21,-88 1481.21,-94 1481.21,-100 1481.21,-100 1481.21,-112 1481.21,-112 1481.21,-118 1475.21,-124 1469.21,-124"/>
<text xml:space="preserve" text-anchor="middle" x="1414" y="-103" font-family="Helvetica,sans-Serif" font-size="10.00">pi_real_norm_eq_sup_abs</text>
</a>
</g>
</g>
<!-- n10 -->
<g id="node11" class="node">
<title>n10</title>
<g id="a_node11"><a xlink:href="https://github.com/statopia/statlib/blob/main/Statlib/HighDim/CovarianceMatrix/SampleCovariance.lean#L72" xlink:title="lemma · Statlib/HighDim/CovarianceMatrix/SampleCovariance.lean:72" target="_blank">
<path fill="#eef2f6" stroke="#94a3b8" d="M1469.23,-196C1469.23,-196 1288.77,-196 1288.77,-196 1282.77,-196 1276.77,-190 1276.77,-184 1276.77,-184 1276.77,-172 1276.77,-172 1276.77,-166 1282.77,-160 1288.77,-160 1288.77,-160 1469.23,-160 1469.23,-160 1475.23,-160 1481.23,-166 1481.23,-172 1481.23,-172 1481.23,-184 1481.23,-184 1481.23,-190 1475.23,-196 1469.23,-196"/>
<text xml:space="preserve" text-anchor="middle" x="1379" y="-175" font-family="Helvetica,sans-Serif" font-size="10.00">hermitian_norm_eq_sup_abs_eigenvalues</text>
</a>
</g>
</g>
<!-- n10&#45;&gt;n8 -->
<g id="edge3" class="edge">
<title>n10&#45;&gt;n8</title>
<path fill="none" stroke="#64748b" d="M1341.04,-159.52C1320.19,-149.92 1294.2,-137.95 1272.3,-127.86"/>
<polygon fill="#64748b" stroke="#64748b" points="1273.5,-125.72 1266.12,-125.01 1271.45,-130.17 1273.5,-125.72"/>
</g>
<!-- n10&#45;&gt;n9 -->
<g id="edge4" class="edge">
<title>n10&#45;&gt;n9</title>
<path fill="none" stroke="#64748b" d="M1387.65,-159.7C1391.89,-151.22 1397.07,-140.86 1401.71,-131.58"/>
<polygon fill="#64748b" stroke="#64748b" points="1403.83,-132.81 1404.77,-125.46 1399.45,-130.62 1403.83,-132.81"/>
</g>
<!-- n11 -->
<g id="node12" class="node">
<title>n11</title>
<g id="a_node12"><a xlink:href="https://github.com/statopia/statlib/blob/main/Statlib/HighDim/CovarianceMatrix/SampleCovariance.lean#L81" xlink:title="lemma · Statlib/HighDim/CovarianceMatrix/SampleCovariance.lean:81" target="_blank">
<path fill="#eef2f6" stroke="#94a3b8" d="M1392.54,-268C1392.54,-268 1255.46,-268 1255.46,-268 1249.46,-268 1243.46,-262 1243.46,-256 1243.46,-256 1243.46,-244 1243.46,-244 1243.46,-238 1249.46,-232 1255.46,-232 1255.46,-232 1392.54,-232 1392.54,-232 1398.54,-232 1404.54,-238 1404.54,-244 1404.54,-244 1404.54,-256 1404.54,-256 1404.54,-262 1398.54,-268 1392.54,-268"/>
<text xml:space="preserve" text-anchor="middle" x="1324" y="-247" font-family="Helvetica,sans-Serif" font-size="10.00">hermitian_norm_le_two_net_sup</text>
</a>
</g>
</g>
<!-- n11&#45;&gt;n7 -->
<g id="edge5" class="edge">
<title>n11&#45;&gt;n7</title>
<path fill="none" stroke="#64748b" d="M1302.86,-231.68C1291.7,-221.91 1278.24,-209.06 1268,-196 1254.12,-178.3 1261.1,-165.35 1243,-152 1196.49,-117.69 1164.02,-156.18 1116,-124 1099.82,-113.16 1106.61,-99.65 1091,-88 1055.84,-61.77 1007.05,-48.12 972.41,-41.29"/>
<polygon fill="#64748b" stroke="#64748b" points="973.19,-38.94 965.86,-40.06 972.28,-43.76 973.19,-38.94"/>
</g>
<!-- n11&#45;&gt;n10 -->
<g id="edge6" class="edge">
<title>n11&#45;&gt;n10</title>
<path fill="none" stroke="#64748b" d="M1337.6,-231.7C1344.46,-222.97 1352.88,-212.24 1360.34,-202.75"/>
<polygon fill="#64748b" stroke="#64748b" points="1362.23,-204.31 1364.63,-197.29 1358.37,-201.29 1362.23,-204.31"/>
</g>
<!-- n12 -->
<g id="node13" class="node">
<title>n12</title>
<g id="a_node13"><a xlink:href="https://github.com/statopia/statlib/blob/main/Statlib/HighDim/Vocabulary/Norms.lean#L32" xlink:title="lemma · Statlib/HighDim/Vocabulary/Norms.lean:32" target="_blank">
<path fill="#eef2f6" stroke="#94a3b8" d="M591.69,-52C591.69,-52 536.31,-52 536.31,-52 530.31,-52 524.31,-46 524.31,-40 524.31,-40 524.31,-28 524.31,-28 524.31,-22 530.31,-16 536.31,-16 536.31,-16 591.69,-16 591.69,-16 597.69,-16 603.69,-22 603.69,-28 603.69,-28 603.69,-40 603.69,-40 603.69,-46 597.69,-52 591.69,-52"/>
<text xml:space="preserve" text-anchor="middle" x="564" y="-31" font-family="Helvetica,sans-Serif" font-size="10.00">inner_eq_sum</text>
</a>
</g>
</g>
<!-- n13 -->
<g id="node14" class="node">
<title>n13</title>
<g id="a_node14"><a xlink:href="https://github.com/statopia/statlib/blob/main/Statlib/HighDim/CovarianceMatrix/SampleCovariance.lean#L324" xlink:title="lemma · Statlib/HighDim/CovarianceMatrix/SampleCovariance.lean:324" target="_blank">
<path fill="#eef2f6" stroke="#94a3b8" d="M722.53,-124C722.53,-124 615.47,-124 615.47,-124 609.47,-124 603.47,-118 603.47,-112 603.47,-112 603.47,-100 603.47,-100 603.47,-94 609.47,-88 615.47,-88 615.47,-88 722.53,-88 722.53,-88 728.53,-88 734.53,-94 734.53,-100 734.53,-100 734.53,-112 734.53,-112 734.53,-118 728.53,-124 722.53,-124"/>
<text xml:space="preserve" text-anchor="middle" x="669" y="-103" font-family="Helvetica,sans-Serif" font-size="10.00">matrix_quadratic_eq_sum</text>
</a>
</g>
</g>
<!-- n13&#45;&gt;n7 -->
<g id="edge7" class="edge">
<title>n13&#45;&gt;n7</title>
<path fill="none" stroke="#64748b" d="M734.19,-87.52C782.17,-74.65 846.03,-57.52 887.57,-46.38"/>
<polygon fill="#64748b" stroke="#64748b" points="887.98,-48.81 894.11,-44.63 886.71,-44.07 887.98,-48.81"/>
</g>
<!-- n13&#45;&gt;n12 -->
<g id="edge8" class="edge">
<title>n13&#45;&gt;n12</title>
<path fill="none" stroke="#64748b" d="M642.77,-87.52C628.89,-78.26 611.7,-66.8 596.93,-56.95"/>
<polygon fill="#64748b" stroke="#64748b" points="598.33,-54.94 591.15,-53.1 595.62,-59.02 598.33,-54.94"/>
</g>
<!-- n14 -->
<g id="node15" class="node">
<title>n14</title>
<g id="a_node15"><a xlink:href="https://github.com/statopia/statlib/blob/main/Statlib/HighDim/CovarianceMatrix/SampleCovariance.lean#L256" xlink:title="lemma · Statlib/HighDim/CovarianceMatrix/SampleCovariance.lean:256" target="_blank">
<path fill="#eef2f6" stroke="#94a3b8" d="M635.17,-196C635.17,-196 460.83,-196 460.83,-196 454.83,-196 448.83,-190 448.83,-184 448.83,-184 448.83,-172 448.83,-172 448.83,-166 454.83,-160 460.83,-160 460.83,-160 635.17,-160 635.17,-160 641.17,-160 647.17,-166 647.17,-172 647.17,-172 647.17,-184 647.17,-184 647.17,-190 641.17,-196 635.17,-196"/>
<text xml:space="preserve" text-anchor="middle" x="548" y="-175" font-family="Helvetica,sans-Serif" font-size="10.00">projection_sq_integral_eq_cov_quadratic</text>
</a>
</g>
</g>
<!-- n14&#45;&gt;n1 -->
<g id="edge9" class="edge">
<title>n14&#45;&gt;n1</title>
<path fill="none" stroke="#64748b" d="M474.54,-159.54C462.68,-156.89 450.52,-154.29 439,-152 370.04,-138.29 290.52,-125.24 236.31,-116.76"/>
<polygon fill="#64748b" stroke="#64748b" points="236.96,-114.38 229.67,-115.72 236.21,-119.22 236.96,-114.38"/>
</g>
<!-- n14&#45;&gt;n12 -->
<g id="edge10" class="edge">
<title>n14&#45;&gt;n12</title>
<path fill="none" stroke="#64748b" d="M549.96,-159.59C552.76,-134.76 557.91,-89.01 561.14,-60.4"/>
<polygon fill="#64748b" stroke="#64748b" points="563.55,-60.85 561.9,-53.61 558.68,-60.3 563.55,-60.85"/>
</g>
<!-- n15 -->
<g id="node16" class="node">
<title>n15</title>
<g id="a_node16"><a xlink:href="https://github.com/statopia/statlib/blob/main/Statlib/HighDim/CovarianceMatrix/SampleCovariance.lean#L336" xlink:title="lemma · Statlib/HighDim/CovarianceMatrix/SampleCovariance.lean:336" target="_blank">
<path fill="#eef2f6" stroke="#94a3b8" d="M857.08,-124C857.08,-124 768.92,-124 768.92,-124 762.92,-124 756.92,-118 756.92,-112 756.92,-112 756.92,-100 756.92,-100 756.92,-94 762.92,-88 768.92,-88 768.92,-88 857.08,-88 857.08,-88 863.08,-88 869.08,-94 869.08,-100 869.08,-100 869.08,-112 869.08,-112 869.08,-118 863.08,-124 857.08,-124"/>
<text xml:space="preserve" text-anchor="middle" x="813" y="-103" font-family="Helvetica,sans-Serif" font-size="10.00">fin_sum_comm_three</text>
</a>
</g>
</g>
<!-- n16 -->
<g id="node17" class="node">
<title>n16</title>
<g id="a_node17"><a xlink:href="https://github.com/statopia/statlib/blob/main/Statlib/HighDim/CovarianceMatrix/SampleCovariance.lean#L346" xlink:title="lemma · Statlib/HighDim/CovarianceMatrix/SampleCovariance.lean:346" target="_blank">
<path fill="#eef2f6" stroke="#94a3b8" d="M928.52,-196C928.52,-196 697.48,-196 697.48,-196 691.48,-196 685.48,-190 685.48,-184 685.48,-184 685.48,-172 685.48,-172 685.48,-166 691.48,-160 697.48,-160 697.48,-160 928.52,-160 928.52,-160 934.52,-160 940.52,-166 940.52,-172 940.52,-172 940.52,-184 940.52,-184 940.52,-190 934.52,-196 928.52,-196"/>
<text xml:space="preserve" text-anchor="middle" x="813" y="-175" font-family="Helvetica,sans-Serif" font-size="10.00">sampleSecondMoment_quadratic_eq_projection_sum</text>
</a>
</g>
</g>
<!-- n16&#45;&gt;n3 -->
<g id="edge12" class="edge">
<title>n16&#45;&gt;n3</title>
<path fill="none" stroke="#64748b" d="M861.7,-159.52C889.03,-149.71 923.24,-137.43 951.71,-127.21"/>
<polygon fill="#64748b" stroke="#64748b" points="952.39,-129.56 958.15,-124.89 950.74,-124.95 952.39,-129.56"/>
</g>
<!-- n16&#45;&gt;n7 -->
<g id="edge11" class="edge">
<title>n16&#45;&gt;n7</title>
<path fill="none" stroke="#64748b" d="M838.29,-159.73C851.15,-150.17 866.45,-137.5 878,-124 894.8,-104.37 909.19,-78.57 918.54,-59.81"/>
<polygon fill="#64748b" stroke="#64748b" points="920.71,-60.96 921.57,-53.6 916.3,-58.82 920.71,-60.96"/>
</g>
<!-- n16&#45;&gt;n12 -->
<g id="edge15" class="edge">
<title>n16&#45;&gt;n12</title>
<path fill="none" stroke="#64748b" d="M698.11,-159.54C653.9,-150.74 610.12,-138.76 594,-124 576.3,-107.79 569.04,-80.79 566.06,-60.77"/>
<polygon fill="#64748b" stroke="#64748b" points="568.5,-60.54 565.19,-53.9 563.64,-61.16 568.5,-60.54"/>
</g>
<!-- n16&#45;&gt;n13 -->
<g id="edge13" class="edge">
<title>n16&#45;&gt;n13</title>
<path fill="none" stroke="#64748b" d="M777.03,-159.52C757.3,-149.92 732.7,-137.96 711.96,-127.88"/>
<polygon fill="#64748b" stroke="#64748b" points="713.24,-125.78 705.87,-124.92 711.09,-130.19 713.24,-125.78"/>
</g>
<!-- n16&#45;&gt;n15 -->
<g id="edge14" class="edge">
<title>n16&#45;&gt;n15</title>
<path fill="none" stroke="#64748b" d="M813,-159.7C813,-151.47 813,-141.48 813,-132.42"/>
<polygon fill="#64748b" stroke="#64748b" points="815.45,-132.62 813,-125.62 810.55,-132.62 815.45,-132.62"/>
</g>
<!-- n17 -->
<g id="node18" class="node">
<title>n17</title>
<g id="a_node18"><a xlink:href="https://github.com/statopia/statlib/blob/main/Statlib/HighDim/CovarianceMatrix/SampleCovariance.lean#L371" xlink:title="lemma · Statlib/HighDim/CovarianceMatrix/SampleCovariance.lean:371" target="_blank">
<path fill="#eef2f6" stroke="#94a3b8" d="M815.7,-268C815.7,-268 556.3,-268 556.3,-268 550.3,-268 544.3,-262 544.3,-256 544.3,-256 544.3,-244 544.3,-244 544.3,-238 550.3,-232 556.3,-232 556.3,-232 815.7,-232 815.7,-232 821.7,-232 827.7,-238 827.7,-244 827.7,-244 827.7,-256 827.7,-256 827.7,-262 821.7,-268 815.7,-268"/>
<text xml:space="preserve" text-anchor="middle" x="686" y="-247" font-family="Helvetica,sans-Serif" font-size="10.00">sample_covariance_quadratic_eq_centered_projection_sum</text>
</a>
</g>
</g>
<!-- n17&#45;&gt;n1 -->
<g id="edge16" class="edge">
<title>n17&#45;&gt;n1</title>
<path fill="none" stroke="#64748b" d="M543.86,-243.86C449.24,-237.81 335.48,-224.64 297,-196 279.77,-183.18 292.35,-167.02 277,-152 265.47,-140.72 250.67,-132.07 235.84,-125.51"/>
<polygon fill="#64748b" stroke="#64748b" points="236.9,-123.29 229.5,-122.85 235.01,-127.81 236.9,-123.29"/>
</g>
<!-- n17&#45;&gt;n3 -->
<g id="edge18" class="edge">
<title>n17&#45;&gt;n3</title>
<path fill="none" stroke="#64748b" d="M828.09,-233.9C885.19,-225.43 942.75,-213.06 965,-196 975.84,-187.69 989.83,-155.28 998.86,-131.97"/>
<polygon fill="#64748b" stroke="#64748b" points="1001.09,-132.99 1001.29,-125.58 996.51,-131.25 1001.09,-132.99"/>
</g>
<!-- n17&#45;&gt;n7 -->
<g id="edge17" class="edge">
<title>n17&#45;&gt;n7</title>
<path fill="none" stroke="#64748b" d="M808.65,-231.54C872.97,-221.13 940.41,-207.71 950,-196 962.39,-180.87 953.34,-171.27 950,-152 947.74,-138.98 942.98,-136.87 940,-124 935.12,-102.91 932.59,-78.44 931.3,-60.5"/>
<polygon fill="#64748b" stroke="#64748b" points="933.76,-60.6 930.86,-53.77 928.87,-60.92 933.76,-60.6"/>
</g>
<!-- n17&#45;&gt;n13 -->
<g id="edge19" class="edge">
<title>n17&#45;&gt;n13</title>
<path fill="none" stroke="#64748b" d="M682.29,-231.89C680.16,-221.54 677.61,-208.07 676,-196 673.17,-174.74 671.35,-150.47 670.28,-132.64"/>
<polygon fill="#64748b" stroke="#64748b" points="672.75,-132.81 669.9,-125.96 667.85,-133.09 672.75,-132.81"/>
</g>
<!-- n17&#45;&gt;n14 -->
<g id="edge20" class="edge">
<title>n17&#45;&gt;n14</title>
<path fill="none" stroke="#64748b" d="M651.53,-231.52C632.7,-221.97 609.25,-210.07 589.43,-200.01"/>
<polygon fill="#64748b" stroke="#64748b" points="590.73,-197.93 583.38,-196.95 588.51,-202.3 590.73,-197.93"/>
</g>
<!-- n17&#45;&gt;n16 -->
<g id="edge21" class="edge">
<title>n17&#45;&gt;n16</title>
<path fill="none" stroke="#64748b" d="M717.72,-231.52C734.97,-222.01 756.44,-210.17 774.63,-200.15"/>
<polygon fill="#64748b" stroke="#64748b" points="775.41,-202.52 780.36,-196.99 773.05,-198.22 775.41,-202.52"/>
</g>
<!-- n18 -->
<g id="node19" class="node">
<title>n18</title>
<g id="a_node19"><a xlink:href="https://github.com/statopia/statlib/blob/main/Statlib/HighDim/CovarianceMatrix/SampleCovariance.lean#L231" xlink:title="lemma · Statlib/HighDim/CovarianceMatrix/SampleCovariance.lean:231" target="_blank">
<path fill="#eef2f6" stroke="#94a3b8" d="M1213.59,-268C1213.59,-268 1120.41,-268 1120.41,-268 1114.41,-268 1108.41,-262 1108.41,-256 1108.41,-256 1108.41,-244 1108.41,-244 1108.41,-238 1114.41,-232 1120.41,-232 1120.41,-232 1213.59,-232 1213.59,-232 1219.59,-232 1225.59,-238 1225.59,-244 1225.59,-244 1225.59,-256 1225.59,-256 1225.59,-262 1219.59,-268 1213.59,-268"/>
<text xml:space="preserve" text-anchor="middle" x="1167" y="-247" font-family="Helvetica,sans-Serif" font-size="10.00">projection_measurable</text>
</a>
</g>
</g>
<!-- n19 -->
<g id="node20" class="node">
<title>n19</title>
<g id="a_node20"><a xlink:href="https://github.com/statopia/statlib/blob/main/Statlib/HighDim/CovarianceMatrix/SampleCovariance.lean#L305" xlink:title="lemma · Statlib/HighDim/CovarianceMatrix/SampleCovariance.lean:305" target="_blank">
<path fill="#eef2f6" stroke="#94a3b8" d="M418.48,-196C418.48,-196 317.52,-196 317.52,-196 311.52,-196 305.52,-190 305.52,-184 305.52,-184 305.52,-172 305.52,-172 305.52,-166 311.52,-160 317.52,-160 317.52,-160 418.48,-160 418.48,-160 424.48,-160 430.48,-166 430.48,-172 430.48,-172 430.48,-184 430.48,-184 430.48,-190 424.48,-196 418.48,-196"/>
<text xml:space="preserve" text-anchor="middle" x="368" y="-175" font-family="Helvetica,sans-Serif" font-size="10.00">projection_sq_integrable</text>
</a>
</g>
</g>
<!-- n19&#45;&gt;n1 -->
<g id="edge22" class="edge">
<title>n19&#45;&gt;n1</title>
<path fill="none" stroke="#64748b" d="M319.05,-159.52C291.58,-149.71 257.19,-137.43 228.58,-127.21"/>
<polygon fill="#64748b" stroke="#64748b" points="229.51,-124.94 222.09,-124.89 227.86,-129.55 229.51,-124.94"/>
</g>
<!-- n19&#45;&gt;n12 -->
<g id="edge23" class="edge">
<title>n19&#45;&gt;n12</title>
<path fill="none" stroke="#64748b" d="M392.03,-159.59C427.69,-133.75 494.58,-85.29 533.6,-57.03"/>
<polygon fill="#64748b" stroke="#64748b" points="534.62,-59.31 538.85,-53.22 531.75,-55.34 534.62,-59.31"/>
</g>
<!-- n22 -->
<g id="node21" class="node">
<title>n22</title>
<g id="a_node21"><a xlink:href="https://github.com/statopia/statlib/blob/main/Statlib/HighDim/CovarianceMatrix/SampleCovariance.lean#L455" xlink:title="theorem · Statlib/HighDim/CovarianceMatrix/SampleCovariance.lean:455" target="_blank">
<path fill="#ffe6a3" stroke="#d4a017" d="M1078.21,-341.2C1078.21,-341.2 937.79,-341.2 937.79,-341.2 931.79,-341.2 925.79,-335.2 925.79,-329.2 925.79,-329.2 925.79,-317.2 925.79,-317.2 925.79,-311.2 931.79,-305.2 937.79,-305.2 937.79,-305.2 1078.21,-305.2 1078.21,-305.2 1084.21,-305.2 1090.21,-311.2 1090.21,-317.2 1090.21,-317.2 1090.21,-329.2 1090.21,-329.2 1090.21,-335.2 1084.21,-341.2 1078.21,-341.2"/>
<text xml:space="preserve" text-anchor="middle" x="1008" y="-320.2" font-family="Helvetica,sans-Serif" font-size="10.00">sampleCovariance_concentration</text>
</a>
</g>
</g>
<!-- n22&#45;&gt;n0 -->
<g id="edge25" class="edge">
<title>n22&#45;&gt;n0</title>
<path fill="none" stroke="#64748b" d="M1090.45,-316.49C1140.85,-313.06 1206.64,-308.7 1265,-305.2 1281.55,-304.21 1399.2,-304.68 1414,-297.2 1423.7,-292.29 1431.82,-283.68 1438.04,-275.2"/>
<polygon fill="#64748b" stroke="#64748b" points="1440.04,-276.62 1441.95,-269.45 1435.98,-273.86 1440.04,-276.62"/>
</g>
<!-- n22&#45;&gt;n1 -->
<g id="edge26" class="edge">
<title>n22&#45;&gt;n1</title>
<path fill="none" stroke="#64748b" d="M925.52,-318.07C846.99,-314.26 725.46,-308.68 620,-305.2 600.01,-304.54 277.61,-306.69 260,-297.2 229.01,-280.49 244.01,-251.96 215,-232 159.23,-193.63 108.83,-249.23 67,-196 54.92,-180.62 56.23,-168.33 67,-152 76.57,-137.49 91.9,-127.64 107.92,-120.96"/>
<polygon fill="#64748b" stroke="#64748b" points="108.74,-123.26 114.4,-118.47 106.99,-118.69 108.74,-123.26"/>
</g>
<!-- n22&#45;&gt;n2 -->
<g id="edge27" class="edge">
<title>n22&#45;&gt;n2</title>
<path fill="none" stroke="#64748b" d="M925.32,-316.09C870.74,-312.3 797.65,-307.7 733,-305.2 704.52,-304.1 247.23,-305.61 220,-297.2 204.15,-292.31 188.55,-282.62 176.11,-273.38"/>
<polygon fill="#64748b" stroke="#64748b" points="177.78,-271.57 170.74,-269.24 174.79,-275.46 177.78,-271.57"/>
</g>
<!-- n22&#45;&gt;n3 -->
<g id="edge28" class="edge">
<title>n22&#45;&gt;n3</title>
<path fill="none" stroke="#64748b" d="M1048.25,-304.83C1051.43,-302.55 1054.41,-300.01 1057,-297.2 1078.28,-274.16 1060.64,-252.92 1084,-232 1126.75,-193.71 1173.54,-241.89 1208,-196 1219.74,-180.36 1220.25,-167.24 1208,-152 1171.8,-106.94 1137.37,-136.78 1081,-124 1079.2,-123.59 1077.37,-123.17 1075.52,-122.75"/>
<polygon fill="#64748b" stroke="#64748b" points="1076.19,-120.39 1068.82,-121.22 1075.1,-125.17 1076.19,-120.39"/>
</g>
<!-- n22&#45;&gt;n4 -->
<g id="edge29" class="edge">
<title>n22&#45;&gt;n4</title>
<path fill="none" stroke="#64748b" d="M925.5,-318.51C846.96,-315.01 725.43,-309.65 620,-305.2 576.23,-303.35 465.55,-307.63 423,-297.2 340.85,-277.07 253.3,-228.94 206.41,-200.69"/>
<polygon fill="#64748b" stroke="#64748b" points="207.79,-198.66 200.53,-197.12 205.24,-202.85 207.79,-198.66"/>
</g>
<!-- n22&#45;&gt;n5 -->
<g id="edge30" class="edge">
<title>n22&#45;&gt;n5</title>
<path fill="none" stroke="#64748b" d="M1032.27,-304.82C1034.74,-302.44 1037.05,-299.88 1039,-297.2 1057.26,-272.11 1046.86,-257.87 1064,-232 1071.33,-220.94 1081.33,-210.42 1090.8,-201.72"/>
<polygon fill="#64748b" stroke="#64748b" points="1092.18,-203.77 1095.78,-197.28 1088.92,-200.11 1092.18,-203.77"/>
</g>
<!-- n22&#45;&gt;n6 -->
<g id="edge31" class="edge">
<title>n22&#45;&gt;n6</title>
<path fill="none" stroke="#64748b" d="M995.9,-304.96C989.57,-295.96 981.73,-284.79 974.82,-274.95"/>
<polygon fill="#64748b" stroke="#64748b" points="976.89,-273.64 970.86,-269.32 972.88,-276.45 976.89,-273.64"/>
</g>
<!-- n22&#45;&gt;n7 -->
<g id="edge33" class="edge">
<title>n22&#45;&gt;n7</title>
<path fill="none" stroke="#64748b" d="M1066.58,-304.85C1069.99,-302.6 1073.17,-300.06 1076,-297.2 1097.58,-275.33 1076.81,-253.26 1099,-232 1138.6,-194.07 1184.37,-240.07 1217,-196 1228.64,-180.28 1229.24,-167.25 1217,-152 1181.1,-107.25 1134.97,-160.84 1091,-124 1077.71,-112.87 1088.54,-99.97 1076,-88 1047.8,-61.08 1004.88,-47.66 972.87,-41.08"/>
<polygon fill="#64748b" stroke="#64748b" points="973.39,-38.69 966.05,-39.76 972.46,-43.5 973.39,-38.69"/>
</g>
<!-- n22&#45;&gt;n11 -->
<g id="edge32" class="edge">
<title>n22&#45;&gt;n11</title>
<path fill="none" stroke="#64748b" d="M1090.62,-320.4C1134.32,-317.64 1188.42,-311.31 1235,-297.2 1254.07,-291.42 1273.88,-281.57 1289.96,-272.45"/>
<polygon fill="#64748b" stroke="#64748b" points="1290.93,-274.72 1295.76,-269.09 1288.47,-270.48 1290.93,-274.72"/>
</g>
<!-- n22&#45;&gt;n17 -->
<g id="edge34" class="edge">
<title>n22&#45;&gt;n17</title>
<path fill="none" stroke="#64748b" d="M925.42,-307.07C909.33,-303.95 892.62,-300.58 877,-297.2 839.34,-289.06 797.73,-279.11 762.99,-270.53"/>
<polygon fill="#64748b" stroke="#64748b" points="763.62,-268.16 756.24,-268.86 762.45,-272.92 763.62,-268.16"/>
</g>
<!-- n22&#45;&gt;n18 -->
<g id="edge35" class="edge">
<title>n22&#45;&gt;n18</title>
<path fill="none" stroke="#64748b" d="M1074.88,-304.79C1081.43,-302.48 1087.9,-299.95 1094,-297.2 1108.65,-290.59 1123.83,-281.42 1136.52,-272.99"/>
<polygon fill="#64748b" stroke="#64748b" points="1137.62,-275.21 1142.05,-269.25 1134.88,-271.15 1137.62,-275.21"/>
</g>
<!-- n22&#45;&gt;n19 -->
<g id="edge36" class="edge">
<title>n22&#45;&gt;n19</title>
<path fill="none" stroke="#64748b" d="M925.29,-316.63C870.71,-313.06 797.61,-308.5 733,-305.2 711.01,-304.08 555.84,-304.3 535,-297.2 476.92,-277.43 421.2,-230.53 391.09,-202.11"/>
<polygon fill="#64748b" stroke="#64748b" points="392.9,-200.46 386.15,-197.39 389.51,-204 392.9,-200.46"/>
</g>
<!-- n21 -->
<g id="node25" class="node">
<title>n21</title>
<g id="a_node25"><a xlink:href="https://github.com/statopia/statlib/blob/main/Statlib/StatFoundation/Concentration/ExponentialType/bernstein_sum_meas_abs_ge_le_two_exp.lean#L13" xlink:title="theorem · Statlib/StatFoundation/Concentration/ExponentialType/bernstein_sum_meas_abs_ge_le_two_exp.lean:13" target="_blank">
<path fill="#ffe6a3" stroke="#d4a017" d="M1699.06,-268C1699.06,-268 1516.94,-268 1516.94,-268 1510.94,-268 1504.94,-262 1504.94,-256 1504.94,-256 1504.94,-244 1504.94,-244 1504.94,-238 1510.94,-232 1516.94,-232 1516.94,-232 1699.06,-232 1699.06,-232 1705.06,-232 1711.06,-238 1711.06,-244 1711.06,-244 1711.06,-256 1711.06,-256 1711.06,-262 1705.06,-268 1699.06,-268"/>
<text xml:space="preserve" text-anchor="middle" x="1608" y="-247" font-family="Helvetica,sans-Serif" font-size="10.00">bernstein_sum_meas_abs_ge_le_two_exp</text>
</a>
</g>
</g>
<!-- n22&#45;&gt;n21 -->
<g id="edge37" class="edge">
<title>n22&#45;&gt;n21</title>
<path fill="none" stroke="#64748b" d="M1090.28,-321.23C1208.06,-319.28 1418.69,-313.56 1493,-297.2 1517.89,-291.72 1544.37,-281.42 1565.64,-271.93"/>
<polygon fill="#64748b" stroke="#64748b" points="1566.48,-274.24 1571.84,-269.11 1564.46,-269.78 1566.48,-274.24"/>
</g>
<!-- n23 -->
<g id="node22" class="node">
<title>n23</title>
<g id="a_node22"><a xlink:href="https://github.com/statopia/statlib/blob/main/Statlib/HighDim/CovarianceMatrix/SampleCovariance.lean#L1259" xlink:title="theorem · Statlib/HighDim/CovarianceMatrix/SampleCovariance.lean:1259" target="_blank">
<path fill="#ffe6a3" stroke="#d4a017" d="M1006.37,-413.2C1006.37,-413.2 877.63,-413.2 877.63,-413.2 871.63,-413.2 865.63,-407.2 865.63,-401.2 865.63,-401.2 865.63,-389.2 865.63,-389.2 865.63,-383.2 871.63,-377.2 877.63,-377.2 877.63,-377.2 1006.37,-377.2 1006.37,-377.2 1012.37,-377.2 1018.37,-383.2 1018.37,-389.2 1018.37,-389.2 1018.37,-401.2 1018.37,-401.2 1018.37,-407.2 1012.37,-413.2 1006.37,-413.2"/>
<text xml:space="preserve" text-anchor="middle" x="942" y="-392.2" font-family="Helvetica,sans-Serif" font-size="10.00">sampleCovariance_confidence</text>
</a>
</g>
</g>
<!-- n23&#45;&gt;n0 -->
<g id="edge38" class="edge">
<title>n23&#45;&gt;n0</title>
<path fill="none" stroke="#64748b" d="M1018.79,-377.07C1103.58,-358.4 1244.22,-328.12 1366,-305.2 1387.25,-301.2 1395.27,-308.02 1414,-297.2 1423.27,-291.84 1431.24,-283.3 1437.45,-275.02"/>
<polygon fill="#64748b" stroke="#64748b" points="1439.36,-276.57 1441.38,-269.43 1435.35,-273.75 1439.36,-276.57"/>
</g>
<!-- n23&#45;&gt;n1 -->
<g id="edge39" class="edge">
<title>n23&#45;&gt;n1</title>
<path fill="none" stroke="#64748b" d="M865.3,-390.28C666.25,-379.46 144.5,-346.62 85,-297.2 34.24,-255.04 16.56,-206.34 54,-152 66.41,-133.99 87.06,-123.18 107.66,-116.7"/>
<polygon fill="#64748b" stroke="#64748b" points="108.33,-119.05 114.38,-114.76 106.97,-114.34 108.33,-119.05"/>
</g>
<!-- n23&#45;&gt;n2 -->
<g id="edge40" class="edge">
<title>n23&#45;&gt;n2</title>
<path fill="none" stroke="#64748b" d="M876.4,-376.72C793.08,-355.4 644.56,-320.34 515,-305.2 482.43,-301.4 251.27,-307.05 220,-297.2 204.3,-292.25 188.81,-282.66 176.41,-273.5"/>
<polygon fill="#64748b" stroke="#64748b" points="178.11,-271.71 171.06,-269.4 175.13,-275.6 178.11,-271.71"/>
</g>
<!-- n23&#45;&gt;n3 -->
<g id="edge41" class="edge">
<title>n23&#45;&gt;n3</title>
<path fill="none" stroke="#64748b" d="M924.79,-377.07C895.42,-345.74 842.01,-278.19 877,-232 912.68,-184.89 968.53,-242.5 1005,-196 1018.88,-178.3 1017.95,-151.98 1014.57,-132.55"/>
<polygon fill="#64748b" stroke="#64748b" points="1017.01,-132.29 1013.24,-125.91 1012.21,-133.25 1017.01,-132.29"/>
</g>
<!-- n23&#45;&gt;n22 -->
<g id="edge42" class="edge">
<title>n23&#45;&gt;n22</title>
<path fill="none" stroke="#64748b" d="M958.31,-376.9C966.71,-368 977.05,-357.02 986.13,-347.4"/>
<polygon fill="#64748b" stroke="#64748b" points="987.82,-349.18 990.83,-342.41 984.25,-345.82 987.82,-349.18"/>
</g>
<!-- n24 -->
<g id="node23" class="node">
<title>n24</title>
<g id="a_node23"><a xlink:href="https://github.com/statopia/statlib/blob/main/Statlib/HighDim/CovarianceMatrix/SampleCovEigenvalueUpper.lean#L22" xlink:title="theorem · Statlib/HighDim/CovarianceMatrix/SampleCovEigenvalueUpper.lean:22" target="_blank">
<path fill="#ffe6a3" stroke="#d4a017" stroke-width="3" d="M906.93,-485.2C906.93,-485.2 787.07,-485.2 787.07,-485.2 781.07,-485.2 775.07,-479.2 775.07,-473.2 775.07,-473.2 775.07,-461.2 775.07,-461.2 775.07,-455.2 781.07,-449.2 787.07,-449.2 787.07,-449.2 906.93,-449.2 906.93,-449.2 912.93,-449.2 918.93,-455.2 918.93,-461.2 918.93,-461.2 918.93,-473.2 918.93,-473.2 918.93,-479.2 912.93,-485.2 906.93,-485.2"/>
<text xml:space="preserve" text-anchor="middle" x="847" y="-464.2" font-family="Helvetica,sans-Serif" font-size="10.00">sample_cov_max_eig_upper</text>
</a>
</g>
</g>
<!-- n24&#45;&gt;n0 -->
<g id="edge43" class="edge">
<title>n24&#45;&gt;n0</title>
<path fill="none" stroke="#64748b" d="M914.87,-447.76C1000.87,-424.16 1153.49,-381.49 1283,-341.2 1341.65,-322.95 1363.42,-332.04 1414,-297.2 1422.55,-291.31 1430.22,-282.97 1436.39,-275"/>
<polygon fill="#64748b" stroke="#64748b" points="1438.14,-276.75 1440.31,-269.66 1434.19,-273.85 1438.14,-276.75"/>
</g>
<!-- n24&#45;&gt;n1 -->
<g id="edge44" class="edge">
<title>n24&#45;&gt;n1</title>
<path fill="none" stroke="#64748b" d="M773.71,-461.35C570.87,-446.95 17,-400.63 17,-324.2 17,-324.2 17,-324.2 17,-249 17,-205.44 2.85,-185.24 31,-152 50.04,-129.51 80.32,-118.14 107.94,-112.44"/>
<polygon fill="#64748b" stroke="#64748b" points="108.12,-114.9 114.55,-111.19 107.21,-110.08 108.12,-114.9"/>
</g>
<!-- n24&#45;&gt;n2 -->
<g id="edge45" class="edge">
<title>n24&#45;&gt;n2</title>
<path fill="none" stroke="#64748b" d="M773.92,-454.35C654.23,-433.25 410.67,-383.11 220,-297.2 205.8,-290.8 191.24,-281.68 179.1,-273.23"/>
<polygon fill="#64748b" stroke="#64748b" points="180.61,-271.3 173.49,-269.24 177.77,-275.29 180.61,-271.3"/>
</g>
<!-- n24&#45;&gt;n3 -->
<g id="edge46" class="edge">
<title>n24&#45;&gt;n3</title>
<path fill="none" stroke="#64748b" d="M845.58,-447.73C842.18,-398.4 835.7,-265.09 862,-232 896.65,-188.41 942.77,-235.51 982,-196 998.7,-179.18 1004.79,-152.28 1006.95,-132.44"/>
<polygon fill="#64748b" stroke="#64748b" points="1009.37,-132.86 1007.54,-125.67 1004.49,-132.43 1009.37,-132.86"/>
</g>
<!-- n24&#45;&gt;n23 -->
<g id="edge47" class="edge">
<title>n24&#45;&gt;n23</title>
<path fill="none" stroke="#64748b" d="M871.96,-447.81C884.23,-438.77 899.1,-427.81 911.98,-418.32"/>
<polygon fill="#64748b" stroke="#64748b" points="913.11,-420.53 917.29,-414.4 910.21,-416.58 913.11,-420.53"/>
</g>
<!-- n20 -->
<g id="node24" class="node">
<title>n20</title>
<g id="a_node24"><a xlink:href="https://github.com/statopia/statlib/blob/main/Statlib/StatFoundation/Vocabulary/RandomVariable.lean#L74" xlink:title="structure · Statlib/StatFoundation/Vocabulary/RandomVariable.lean:74" target="_blank">
<path fill="#e8dcff" stroke="#8b5cf6" d="M1658.47,-196C1658.47,-196 1557.53,-196 1557.53,-196 1551.53,-196 1545.53,-190 1545.53,-184 1545.53,-184 1545.53,-172 1545.53,-172 1545.53,-166 1551.53,-160 1557.53,-160 1557.53,-160 1658.47,-160 1658.47,-160 1664.47,-160 1670.47,-166 1670.47,-172 1670.47,-172 1670.47,-184 1670.47,-184 1670.47,-190 1664.47,-196 1658.47,-196"/>
<text xml:space="preserve" text-anchor="middle" x="1608" y="-175" font-family="Helvetica,sans-Serif" font-size="10.00">HasSubexponentialMGF</text>
</a>
</g>
</g>
<!-- n21&#45;&gt;n20 -->
<g id="edge24" class="edge">
<title>n21&#45;&gt;n20</title>
<path fill="none" stroke="#64748b" d="M1608,-231.7C1608,-223.47 1608,-213.48 1608,-204.42"/>
<polygon fill="#64748b" stroke="#64748b" points="1610.45,-204.62 1608,-197.62 1605.55,-204.62 1610.45,-204.62"/>
</g>
</g>
</svg>
