<?xml version="1.0" encoding="UTF-8" standalone="no"?>
<!DOCTYPE svg PUBLIC "-//W3C//DTD SVG 1.1//EN"
 "http://www.w3.org/Graphics/SVG/1.1/DTD/svg11.dtd">
<!-- Generated by graphviz version 15.0.0 (20260523.1842)
 -->
<!-- Title: sampleSecondMoment_cone_lower_to_SatisfiesSupportRE Pages: 1 -->
<svg width="1012pt" height="482pt"
 viewBox="0.00 0.00 1012.00 482.00" xmlns="http://www.w3.org/2000/svg" xmlns:xlink="http://www.w3.org/1999/xlink">
<g id="graph0" class="graph" transform="scale(1 1) rotate(0) translate(4 478)">
<title>sampleSecondMoment_cone_lower_to_SatisfiesSupportRE</title>
<polygon fill="white" stroke="none" points="-4,4 -4,-478 1008,-478 1008,4 -4,4"/>
<text xml:space="preserve" text-anchor="middle" x="502" y="-457.4" font-family="Helvetica,sans-Serif" font-size="14.00">Proof narrative — sampleSecondMoment_cone_lower_to_SatisfiesSupportRE &#160;(17 decls)</text>
<g id="clust1" class="cluster">
<title>cluster_0</title>
<path fill="none" stroke="#cbd5e1" stroke-dasharray="5,2" d="M20,-8C20,-8 984,-8 984,-8 990,-8 996,-14 996,-20 996,-20 996,-429.2 996,-429.2 996,-435.2 990,-441.2 984,-441.2 984,-441.2 20,-441.2 20,-441.2 14,-441.2 8,-435.2 8,-429.2 8,-429.2 8,-20 8,-20 8,-14 14,-8 20,-8"/>
<text xml:space="preserve" text-anchor="middle" x="502" y="-427.3" font-family="Helvetica,sans-Serif" font-size="11.00">HighDim</text>
</g>
<!-- n0 -->
<g id="node1" class="node">
<title>n0</title>
<g id="a_node1"><a xlink:href="https://github.com/statopia/statlib/blob/main/Statlib/HighDim/Vocabulary/Sparse.lean#L49" xlink:title="def · Statlib/HighDim/Vocabulary/Sparse.lean:49" target="_blank">
<path fill="#d6e9ff" stroke="#3b82f6" d="M574.01,-196C574.01,-196 541.99,-196 541.99,-196 535.99,-196 529.99,-190 529.99,-184 529.99,-184 529.99,-172 529.99,-172 529.99,-166 535.99,-160 541.99,-160 541.99,-160 574.01,-160 574.01,-160 580.01,-160 586.01,-166 586.01,-172 586.01,-172 586.01,-184 586.01,-184 586.01,-190 580.01,-196 574.01,-196"/>
<text xml:space="preserve" text-anchor="middle" x="558" y="-175" font-family="Helvetica,sans-Serif" font-size="10.00">IsInCone</text>
</a>
</g>
</g>
<!-- n1 -->
<g id="node2" class="node">
<title>n1</title>
<g id="a_node2"><a xlink:href="https://github.com/statopia/statlib/blob/main/Statlib/HighDim/Vocabulary/Norms.lean#L13" xlink:title="noncomputable def · Statlib/HighDim/Vocabulary/Norms.lean:13" target="_blank">
<path fill="#d6e9ff" stroke="#3b82f6" d="M693.23,-196C693.23,-196 656.77,-196 656.77,-196 650.77,-196 644.77,-190 644.77,-184 644.77,-184 644.77,-172 644.77,-172 644.77,-166 650.77,-160 656.77,-160 656.77,-160 693.23,-160 693.23,-160 699.23,-160 705.23,-166 705.23,-172 705.23,-172 705.23,-184 705.23,-184 705.23,-190 699.23,-196 693.23,-196"/>
<text xml:space="preserve" text-anchor="middle" x="675" y="-175" font-family="Helvetica,sans-Serif" font-size="10.00">l2NormSq</text>
</a>
</g>
</g>
<!-- n2 -->
<g id="node3" class="node">
<title>n2</title>
<g id="a_node3"><a xlink:href="https://github.com/statopia/statlib/blob/main/Statlib/HighDim/CovarianceMatrix/SampleCovariance.lean#L199" xlink:title="noncomputable def · Statlib/HighDim/CovarianceMatrix/SampleCovariance.lean:199" target="_blank">
<path fill="#d6e9ff" stroke="#3b82f6" d="M596.14,-124C596.14,-124 501.86,-124 501.86,-124 495.86,-124 489.86,-118 489.86,-112 489.86,-112 489.86,-100 489.86,-100 489.86,-94 495.86,-88 501.86,-88 501.86,-88 596.14,-88 596.14,-88 602.14,-88 608.14,-94 608.14,-100 608.14,-100 608.14,-112 608.14,-112 608.14,-118 602.14,-124 596.14,-124"/>
<text xml:space="preserve" text-anchor="middle" x="549" y="-103" font-family="Helvetica,sans-Serif" font-size="10.00">sampleSecondMoment</text>
</a>
</g>
</g>
<!-- n3 -->
<g id="node4" class="node">
<title>n3</title>
<g id="a_node4"><a xlink:href="https://github.com/statopia/statlib/blob/main/Statlib/HighDim/Vocabulary/DesignMatrix.lean#L50" xlink:title="structure · Statlib/HighDim/Vocabulary/DesignMatrix.lean:50" target="_blank">
<path fill="#e8dcff" stroke="#8b5cf6" d="M616.35,-268C616.35,-268 537.65,-268 537.65,-268 531.65,-268 525.65,-262 525.65,-256 525.65,-256 525.65,-244 525.65,-244 525.65,-238 531.65,-232 537.65,-232 537.65,-232 616.35,-232 616.35,-232 622.35,-232 628.35,-238 628.35,-244 628.35,-244 628.35,-256 628.35,-256 628.35,-262 622.35,-268 616.35,-268"/>
<text xml:space="preserve" text-anchor="middle" x="577" y="-247" font-family="Helvetica,sans-Serif" font-size="10.00">SatisfiesSupportRE</text>
</a>
</g>
</g>
<!-- n3&#45;&gt;n0 -->
<g id="edge1" class="edge">
<title>n3&#45;&gt;n0</title>
<path fill="none" stroke="#64748b" d="M572.3,-231.7C570.05,-223.39 567.3,-213.28 564.82,-204.14"/>
<polygon fill="#64748b" stroke="#64748b" points="567.24,-203.68 563.04,-197.57 562.51,-204.96 567.24,-203.68"/>
</g>
<!-- n3&#45;&gt;n1 -->
<g id="edge2" class="edge">
<title>n3&#45;&gt;n1</title>
<path fill="none" stroke="#64748b" d="M601.48,-231.52C614.44,-222.26 630.48,-210.8 644.27,-200.95"/>
<polygon fill="#64748b" stroke="#64748b" points="645.33,-203.2 649.6,-197.14 642.48,-199.22 645.33,-203.2"/>
</g>
<!-- n4 -->
<g id="node5" class="node">
<title>n4</title>
<g id="a_node5"><a xlink:href="https://github.com/statopia/statlib/blob/main/Statlib/HighDim/Regression/SampleCovarianceDesignBridge.lean#L24" xlink:title="noncomputable def · Statlib/HighDim/Regression/SampleCovarianceDesignBridge.lean:24" target="_blank">
<path fill="#d6e9ff" stroke="#3b82f6" d="M125.51,-196C125.51,-196 28.49,-196 28.49,-196 22.49,-196 16.49,-190 16.49,-184 16.49,-184 16.49,-172 16.49,-172 16.49,-166 22.49,-160 28.49,-160 28.49,-160 125.51,-160 125.51,-160 131.51,-160 137.51,-166 137.51,-172 137.51,-172 137.51,-184 137.51,-184 137.51,-190 131.51,-196 125.51,-196"/>
<text xml:space="preserve" text-anchor="middle" x="77" y="-175" font-family="Helvetica,sans-Serif" font-size="10.00">designMatrixFromRows</text>
</a>
</g>
</g>
<!-- n5 -->
<g id="node6" class="node">
<title>n5</title>
<g id="a_node6"><a xlink:href="https://github.com/statopia/statlib/blob/main/Statlib/HighDim/Vocabulary/DesignMatrix.lean#L65" xlink:title="structure · Statlib/HighDim/Vocabulary/DesignMatrix.lean:65" target="_blank">
<path fill="#e8dcff" stroke="#8b5cf6" d="M475.84,-268C475.84,-268 432.16,-268 432.16,-268 426.16,-268 420.16,-262 420.16,-256 420.16,-256 420.16,-244 420.16,-244 420.16,-238 426.16,-232 432.16,-232 432.16,-232 475.84,-232 475.84,-232 481.84,-232 487.84,-238 487.84,-244 487.84,-244 487.84,-256 487.84,-256 487.84,-262 481.84,-268 475.84,-268"/>
<text xml:space="preserve" text-anchor="middle" x="454" y="-247" font-family="Helvetica,sans-Serif" font-size="10.00">SatisfiesRE</text>
</a>
</g>
</g>
<!-- n5&#45;&gt;n0 -->
<g id="edge3" class="edge">
<title>n5&#45;&gt;n0</title>
<path fill="none" stroke="#64748b" d="M479.98,-231.52C493.73,-222.26 510.75,-210.8 525.39,-200.95"/>
<polygon fill="#64748b" stroke="#64748b" points="526.66,-203.05 531.1,-197.11 523.92,-198.98 526.66,-203.05"/>
</g>
<!-- n5&#45;&gt;n1 -->
<g id="edge4" class="edge">
<title>n5&#45;&gt;n1</title>
<path fill="none" stroke="#64748b" d="M488.29,-236.65C492.89,-235.06 497.55,-233.47 502,-232 547.98,-216.82 601.31,-200.71 636.47,-190.29"/>
<polygon fill="#64748b" stroke="#64748b" points="637.09,-192.66 643.11,-188.32 635.7,-187.96 637.09,-192.66"/>
</g>
<!-- n6 -->
<g id="node7" class="node">
<title>n6</title>
<g id="a_node7"><a xlink:href="https://github.com/statopia/statlib/blob/main/Statlib/HighDim/Vocabulary/Norms.lean#L41" xlink:title="noncomputable def · Statlib/HighDim/Vocabulary/Norms.lean:41" target="_blank">
<path fill="#d6e9ff" stroke="#3b82f6" d="M173.13,-52C173.13,-52 128.87,-52 128.87,-52 122.87,-52 116.87,-46 116.87,-40 116.87,-40 116.87,-28 116.87,-28 116.87,-22 122.87,-16 128.87,-16 128.87,-16 173.13,-16 173.13,-16 179.13,-16 185.13,-22 185.13,-28 185.13,-28 185.13,-40 185.13,-40 185.13,-46 179.13,-52 173.13,-52"/>
<text xml:space="preserve" text-anchor="middle" x="151" y="-31" font-family="Helvetica,sans-Serif" font-size="10.00">toEuclidean</text>
</a>
</g>
</g>
<!-- n7 -->
<g id="node8" class="node">
<title>n7</title>
<g id="a_node8"><a xlink:href="https://github.com/statopia/statlib/blob/main/Statlib/HighDim/Vocabulary/Norms.lean#L32" xlink:title="lemma · Statlib/HighDim/Vocabulary/Norms.lean:32" target="_blank">
<path fill="#eef2f6" stroke="#94a3b8" d="M348.69,-52C348.69,-52 293.31,-52 293.31,-52 287.31,-52 281.31,-46 281.31,-40 281.31,-40 281.31,-28 281.31,-28 281.31,-22 287.31,-16 293.31,-16 293.31,-16 348.69,-16 348.69,-16 354.69,-16 360.69,-22 360.69,-28 360.69,-28 360.69,-40 360.69,-40 360.69,-46 354.69,-52 348.69,-52"/>
<text xml:space="preserve" text-anchor="middle" x="321" y="-31" font-family="Helvetica,sans-Serif" font-size="10.00">inner_eq_sum</text>
</a>
</g>
</g>
<!-- n8 -->
<g id="node9" class="node">
<title>n8</title>
<g id="a_node9"><a xlink:href="https://github.com/statopia/statlib/blob/main/Statlib/HighDim/CovarianceMatrix/SampleCovariance.lean#L324" xlink:title="lemma · Statlib/HighDim/CovarianceMatrix/SampleCovariance.lean:324" target="_blank">
<path fill="#eef2f6" stroke="#94a3b8" d="M289.53,-124C289.53,-124 182.47,-124 182.47,-124 176.47,-124 170.47,-118 170.47,-112 170.47,-112 170.47,-100 170.47,-100 170.47,-94 176.47,-88 182.47,-88 182.47,-88 289.53,-88 289.53,-88 295.53,-88 301.53,-94 301.53,-100 301.53,-100 301.53,-112 301.53,-112 301.53,-118 295.53,-124 289.53,-124"/>
<text xml:space="preserve" text-anchor="middle" x="236" y="-103" font-family="Helvetica,sans-Serif" font-size="10.00">matrix_quadratic_eq_sum</text>
</a>
</g>
</g>
<!-- n8&#45;&gt;n6 -->
<g id="edge5" class="edge">
<title>n8&#45;&gt;n6</title>
<path fill="none" stroke="#64748b" d="M214.99,-87.7C203.95,-78.61 190.3,-67.36 178.44,-57.6"/>
<polygon fill="#64748b" stroke="#64748b" points="180.19,-55.87 173.23,-53.31 177.08,-59.65 180.19,-55.87"/>
</g>
<!-- n8&#45;&gt;n7 -->
<g id="edge6" class="edge">
<title>n8&#45;&gt;n7</title>
<path fill="none" stroke="#64748b" d="M257.01,-87.7C268.05,-78.61 281.7,-67.36 293.56,-57.6"/>
<polygon fill="#64748b" stroke="#64748b" points="294.92,-59.65 298.77,-53.31 291.81,-55.87 294.92,-59.65"/>
</g>
<!-- n9 -->
<g id="node10" class="node">
<title>n9</title>
<g id="a_node10"><a xlink:href="https://github.com/statopia/statlib/blob/main/Statlib/HighDim/CovarianceMatrix/SampleCovariance.lean#L336" xlink:title="lemma · Statlib/HighDim/CovarianceMatrix/SampleCovariance.lean:336" target="_blank">
<path fill="#eef2f6" stroke="#94a3b8" d="M440.08,-124C440.08,-124 351.92,-124 351.92,-124 345.92,-124 339.92,-118 339.92,-112 339.92,-112 339.92,-100 339.92,-100 339.92,-94 345.92,-88 351.92,-88 351.92,-88 440.08,-88 440.08,-88 446.08,-88 452.08,-94 452.08,-100 452.08,-100 452.08,-112 452.08,-112 452.08,-118 446.08,-124 440.08,-124"/>
<text xml:space="preserve" text-anchor="middle" x="396" y="-103" font-family="Helvetica,sans-Serif" font-size="10.00">fin_sum_comm_three</text>
</a>
</g>
</g>
<!-- n10 -->
<g id="node11" class="node">
<title>n10</title>
<g id="a_node11"><a xlink:href="https://github.com/statopia/statlib/blob/main/Statlib/HighDim/CovarianceMatrix/SampleCovariance.lean#L346" xlink:title="lemma · Statlib/HighDim/CovarianceMatrix/SampleCovariance.lean:346" target="_blank">
<path fill="#eef2f6" stroke="#94a3b8" d="M439.52,-196C439.52,-196 208.48,-196 208.48,-196 202.48,-196 196.48,-190 196.48,-184 196.48,-184 196.48,-172 196.48,-172 196.48,-166 202.48,-160 208.48,-160 208.48,-160 439.52,-160 439.52,-160 445.52,-160 451.52,-166 451.52,-172 451.52,-172 451.52,-184 451.52,-184 451.52,-190 445.52,-196 439.52,-196"/>
<text xml:space="preserve" text-anchor="middle" x="324" y="-175" font-family="Helvetica,sans-Serif" font-size="10.00">sampleSecondMoment_quadratic_eq_projection_sum</text>
</a>
</g>
</g>
<!-- n10&#45;&gt;n2 -->
<g id="edge8" class="edge">
<title>n10&#45;&gt;n2</title>
<path fill="none" stroke="#64748b" d="M380.2,-159.52C412.13,-149.58 452.22,-137.11 485.31,-126.81"/>
<polygon fill="#64748b" stroke="#64748b" points="485.73,-129.25 491.69,-124.83 484.27,-124.57 485.73,-129.25"/>
</g>
<!-- n10&#45;&gt;n6 -->
<g id="edge7" class="edge">
<title>n10&#45;&gt;n6</title>
<path fill="none" stroke="#64748b" d="M212.58,-159.62C192.84,-151.74 174.35,-140.37 161,-124 146.77,-106.55 145.44,-80.36 146.97,-60.91"/>
<polygon fill="#64748b" stroke="#64748b" points="149.4,-61.22 147.68,-54 144.52,-60.71 149.4,-61.22"/>
</g>
<!-- n10&#45;&gt;n7 -->
<g id="edge11" class="edge">
<title>n10&#45;&gt;n7</title>
<path fill="none" stroke="#64748b" d="M323.63,-159.59C323.11,-134.76 322.14,-89.01 321.54,-60.4"/>
<polygon fill="#64748b" stroke="#64748b" points="323.99,-60.57 321.39,-53.62 319.09,-60.67 323.99,-60.57"/>
</g>
<!-- n10&#45;&gt;n8 -->
<g id="edge9" class="edge">
<title>n10&#45;&gt;n8</title>
<path fill="none" stroke="#64748b" d="M302.25,-159.7C290.82,-150.61 276.69,-139.36 264.41,-129.6"/>
<polygon fill="#64748b" stroke="#64748b" points="266,-127.73 258.99,-125.29 262.95,-131.56 266,-127.73"/>
</g>
<!-- n10&#45;&gt;n9 -->
<g id="edge10" class="edge">
<title>n10&#45;&gt;n9</title>
<path fill="none" stroke="#64748b" d="M341.8,-159.7C350.97,-150.78 362.28,-139.78 372.2,-130.14"/>
<polygon fill="#64748b" stroke="#64748b" points="373.76,-132.04 377.07,-125.4 370.35,-128.52 373.76,-132.04"/>
</g>
<!-- n11 -->
<g id="node12" class="node">
<title>n11</title>
<g id="a_node12"><a xlink:href="https://github.com/statopia/statlib/blob/main/Statlib/HighDim/Regression/SampleCovarianceDesignBridge.lean#L30" xlink:title="lemma · Statlib/HighDim/Regression/SampleCovarianceDesignBridge.lean:30" target="_blank">
<path fill="#eef2f6" stroke="#94a3b8" d="M329.53,-268C329.53,-268 68.47,-268 68.47,-268 62.47,-268 56.47,-262 56.47,-256 56.47,-256 56.47,-244 56.47,-244 56.47,-238 62.47,-232 68.47,-232 68.47,-232 329.53,-232 329.53,-232 335.53,-232 341.53,-238 341.53,-244 341.53,-244 341.53,-256 341.53,-256 341.53,-262 335.53,-268 329.53,-268"/>
<text xml:space="preserve" text-anchor="middle" x="199" y="-247" font-family="Helvetica,sans-Serif" font-size="10.00">design_l2NormSq_div_eq_sampleSecondMoment_quadratic</text>
</a>
</g>
</g>
<!-- n11&#45;&gt;n1 -->
<g id="edge12" class="edge">
<title>n11&#45;&gt;n1</title>
<path fill="none" stroke="#64748b" d="M341.91,-232.55C417.38,-223.18 511.44,-210.45 595,-196 608.43,-193.68 623.03,-190.71 636.04,-187.9"/>
<polygon fill="#64748b" stroke="#64748b" points="636.54,-190.3 642.86,-186.41 635.49,-185.51 636.54,-190.3"/>
</g>
<!-- n11&#45;&gt;n2 -->
<g id="edge14" class="edge">
<title>n11&#45;&gt;n2</title>
<path fill="none" stroke="#64748b" d="M336.88,-231.51C393.7,-222.49 451.85,-210.36 476,-196 476.91,-195.46 508.32,-156.98 529.64,-130.8"/>
<polygon fill="#64748b" stroke="#64748b" points="531.34,-132.59 533.86,-125.61 527.54,-129.5 531.34,-132.59"/>
</g>
<!-- n11&#45;&gt;n4 -->
<g id="edge13" class="edge">
<title>n11&#45;&gt;n4</title>
<path fill="none" stroke="#64748b" d="M168.53,-231.52C152.1,-222.09 131.7,-210.38 114.32,-200.41"/>
<polygon fill="#64748b" stroke="#64748b" points="115.69,-198.37 108.4,-197.01 113.25,-202.62 115.69,-198.37"/>
</g>
<!-- n11&#45;&gt;n6 -->
<g id="edge16" class="edge">
<title>n11&#45;&gt;n6</title>
<path fill="none" stroke="#64748b" d="M188.34,-231.6C174.67,-208.16 151.7,-164.69 143,-124 138.49,-102.88 141.25,-78.41 144.71,-60.48"/>
<polygon fill="#64748b" stroke="#64748b" points="147.08,-61.08 146.12,-53.73 142.29,-60.08 147.08,-61.08"/>
</g>
<!-- n11&#45;&gt;n7 -->
<g id="edge18" class="edge">
<title>n11&#45;&gt;n7</title>
<path fill="none" stroke="#64748b" d="M320.36,-231.55C384.3,-221.11 451.47,-207.65 461,-196 476.2,-177.42 474.64,-107.75 461,-88 440.53,-58.36 401.18,-45.28 369.4,-39.51"/>
<polygon fill="#64748b" stroke="#64748b" points="369.88,-37.11 362.57,-38.39 369.08,-41.94 369.88,-37.11"/>
</g>
<!-- n11&#45;&gt;n8 -->
<g id="edge17" class="edge">
<title>n11&#45;&gt;n8</title>
<path fill="none" stroke="#64748b" d="M191.73,-231.67C185.13,-213.28 177.74,-183.67 187,-160 191.42,-148.72 199.49,-138.4 207.82,-129.92"/>
<polygon fill="#64748b" stroke="#64748b" points="209.16,-132.03 212.5,-125.41 205.76,-128.5 209.16,-132.03"/>
</g>
<!-- n11&#45;&gt;n10 -->
<g id="edge15" class="edge">
<title>n11&#45;&gt;n10</title>
<path fill="none" stroke="#64748b" d="M230.22,-231.52C247.05,-222.09 267.96,-210.38 285.76,-200.41"/>
<polygon fill="#64748b" stroke="#64748b" points="286.95,-202.56 291.86,-197 284.55,-198.28 286.95,-202.56"/>
</g>
<!-- n12 -->
<g id="node13" class="node">
<title>n12</title>
<g id="a_node13"><a xlink:href="https://github.com/statopia/statlib/blob/main/Statlib/HighDim/Regression/SampleCovarianceDesignBridge.lean#L94" xlink:title="lemma · Statlib/HighDim/Regression/SampleCovarianceDesignBridge.lean:94" target="_blank">
<path fill="#eef2f6" stroke="#94a3b8" d="M421.06,-340C421.06,-340 198.94,-340 198.94,-340 192.94,-340 186.94,-334 186.94,-328 186.94,-328 186.94,-316 186.94,-316 186.94,-310 192.94,-304 198.94,-304 198.94,-304 421.06,-304 421.06,-304 427.06,-304 433.06,-310 433.06,-316 433.06,-316 433.06,-328 433.06,-328 433.06,-334 427.06,-340 421.06,-340"/>
<text xml:space="preserve" text-anchor="middle" x="310" y="-319" font-family="Helvetica,sans-Serif" font-size="10.00">sampleSecondMoment_cone_lower_to_SatisfiesRE</text>
</a>
</g>
</g>
<!-- n12&#45;&gt;n0 -->
<g id="edge19" class="edge">
<title>n12&#45;&gt;n0</title>
<path fill="none" stroke="#64748b" d="M329.46,-303.63C340.49,-293.54 354.36,-280.39 366,-268 380.25,-252.82 378.62,-243.48 396,-232 442.46,-201.31 463.47,-214.47 516,-196 517.95,-195.32 519.94,-194.59 521.94,-193.85"/>
<polygon fill="#64748b" stroke="#64748b" points="522.6,-196.22 528.26,-191.43 520.84,-191.64 522.6,-196.22"/>
</g>
<!-- n12&#45;&gt;n1 -->
<g id="edge20" class="edge">
<title>n12&#45;&gt;n1</title>
<path fill="none" stroke="#64748b" d="M425.09,-303.62C450.62,-295.79 476.24,-284.45 497,-268 511.35,-256.63 502.93,-243.7 517,-232 535.37,-216.73 595.78,-199.11 636.35,-188.52"/>
<polygon fill="#64748b" stroke="#64748b" points="636.8,-190.93 642.97,-186.81 635.58,-186.19 636.8,-190.93"/>
</g>
<!-- n12&#45;&gt;n2 -->
<g id="edge21" class="edge">
<title>n12&#45;&gt;n2</title>
<path fill="none" stroke="#64748b" d="M325.28,-303.68C333.59,-293.71 343.63,-280.67 351,-268 359.71,-253.02 353.02,-243.48 366,-232 410.59,-192.57 447.57,-231.97 495,-196 500.91,-191.52 521.41,-156.24 535.39,-131.47"/>
<polygon fill="#64748b" stroke="#64748b" points="537.46,-132.79 538.75,-125.49 533.18,-130.39 537.46,-132.79"/>
</g>
<!-- n12&#45;&gt;n4 -->
<g id="edge23" class="edge">
<title>n12&#45;&gt;n4</title>
<path fill="none" stroke="#64748b" d="M186.57,-311.04C127.32,-303.43 65.26,-290.3 47,-268 31.73,-249.35 44.1,-222.55 57.28,-203.25"/>
<polygon fill="#64748b" stroke="#64748b" points="59.15,-204.84 61.24,-197.73 55.17,-201.99 59.15,-204.84"/>
</g>
<!-- n12&#45;&gt;n5 -->
<g id="edge22" class="edge">
<title>n12&#45;&gt;n5</title>
<path fill="none" stroke="#64748b" d="M345.97,-303.52C366.15,-293.71 391.42,-281.42 412.44,-271.2"/>
<polygon fill="#64748b" stroke="#64748b" points="413.39,-273.46 418.62,-268.2 411.25,-269.06 413.39,-273.46"/>
</g>
<!-- n12&#45;&gt;n11 -->
<g id="edge24" class="edge">
<title>n12&#45;&gt;n11</title>
<path fill="none" stroke="#64748b" d="M282.28,-303.52C267.46,-294.18 249.1,-282.59 233.38,-272.68"/>
<polygon fill="#64748b" stroke="#64748b" points="234.88,-270.73 227.65,-269.07 232.26,-274.87 234.88,-270.73"/>
</g>
<!-- n13 -->
<g id="node14" class="node">
<title>n13</title>
<g id="a_node14"><a xlink:href="https://github.com/statopia/statlib/blob/main/Statlib/HighDim/Vocabulary/Sparse.lean#L54" xlink:title="lemma · Statlib/HighDim/Vocabulary/Sparse.lean:54" target="_blank">
<path fill="#eef2f6" stroke="#94a3b8" d="M916.03,-268C916.03,-268 813.97,-268 813.97,-268 807.97,-268 801.97,-262 801.97,-256 801.97,-256 801.97,-244 801.97,-244 801.97,-238 807.97,-232 813.97,-232 813.97,-232 916.03,-232 916.03,-232 922.03,-232 928.03,-238 928.03,-244 928.03,-244 928.03,-256 928.03,-256 928.03,-262 922.03,-268 916.03,-268"/>
<text xml:space="preserve" text-anchor="middle" x="865" y="-247" font-family="Helvetica,sans-Serif" font-size="10.00">support_l2_le_l2NormSq</text>
</a>
</g>
</g>
<!-- n13&#45;&gt;n1 -->
<g id="edge25" class="edge">
<title>n13&#45;&gt;n1</title>
<path fill="none" stroke="#64748b" d="M817.55,-231.52C785.36,-219.66 743.36,-204.19 713.3,-193.11"/>
<polygon fill="#64748b" stroke="#64748b" points="714.38,-190.9 706.97,-190.78 712.69,-195.5 714.38,-190.9"/>
</g>
<!-- n14 -->
<g id="node15" class="node">
<title>n14</title>
<g id="a_node15"><a xlink:href="https://github.com/statopia/statlib/blob/main/Statlib/HighDim/Vocabulary/DesignMatrix.lean#L82" xlink:title="structure · Statlib/HighDim/Vocabulary/DesignMatrix.lean:82" target="_blank">
<path fill="#e8dcff" stroke="#8b5cf6" d="M771.86,-268C771.86,-268 658.14,-268 658.14,-268 652.14,-268 646.14,-262 646.14,-256 646.14,-256 646.14,-244 646.14,-244 646.14,-238 652.14,-232 658.14,-232 658.14,-232 771.86,-232 771.86,-232 777.86,-232 783.86,-238 783.86,-244 783.86,-244 783.86,-256 783.86,-256 783.86,-262 777.86,-268 771.86,-268"/>
<text xml:space="preserve" text-anchor="middle" x="715" y="-247" font-family="Helvetica,sans-Serif" font-size="10.00">SatisfiesUniformSupportRE</text>
</a>
</g>
</g>
<!-- n14&#45;&gt;n0 -->
<g id="edge26" class="edge">
<title>n14&#45;&gt;n0</title>
<path fill="none" stroke="#64748b" d="M675.79,-231.52C650.71,-220.34 618.42,-205.94 594,-195.05"/>
<polygon fill="#64748b" stroke="#64748b" points="595.14,-192.87 587.74,-192.26 593.14,-197.35 595.14,-192.87"/>
</g>
<!-- n14&#45;&gt;n1 -->
<g id="edge27" class="edge">
<title>n14&#45;&gt;n1</title>
<path fill="none" stroke="#64748b" d="M705.11,-231.7C700.22,-223.14 694.23,-212.66 688.89,-203.3"/>
<polygon fill="#64748b" stroke="#64748b" points="691.13,-202.28 685.52,-197.42 686.87,-204.71 691.13,-202.28"/>
</g>
<!-- n15 -->
<g id="node16" class="node">
<title>n15</title>
<g id="a_node16"><a xlink:href="https://github.com/statopia/statlib/blob/main/Statlib/HighDim/Vocabulary/DesignMatrix.lean#L110" xlink:title="lemma · Statlib/HighDim/Vocabulary/DesignMatrix.lean:110" target="_blank">
<path fill="#eef2f6" stroke="#94a3b8" d="M698.63,-340C698.63,-340 649.37,-340 649.37,-340 643.37,-340 637.37,-334 637.37,-328 637.37,-328 637.37,-316 637.37,-316 637.37,-310 643.37,-304 649.37,-304 649.37,-304 698.63,-304 698.63,-304 704.63,-304 710.63,-310 710.63,-316 710.63,-316 710.63,-328 710.63,-328 710.63,-334 704.63,-340 698.63,-340"/>
<text xml:space="preserve" text-anchor="middle" x="674" y="-319" font-family="Helvetica,sans-Serif" font-size="10.00">toSupportRE</text>
</a>
</g>
</g>
<!-- n15&#45;&gt;n1 -->
<g id="edge31" class="edge">
<title>n15&#45;&gt;n1</title>
<path fill="none" stroke="#64748b" d="M711.06,-319.13C776.64,-314.95 908.86,-302.38 937,-268 998.33,-193.08 800.71,-180.96 713.85,-179.2"/>
<polygon fill="#64748b" stroke="#64748b" points="714.11,-176.75 707.07,-179.08 714.03,-181.65 714.11,-176.75"/>
</g>
<!-- n15&#45;&gt;n3 -->
<g id="edge29" class="edge">
<title>n15&#45;&gt;n3</title>
<path fill="none" stroke="#64748b" d="M650.02,-303.7C637.31,-294.53 621.56,-283.16 607.94,-273.33"/>
<polygon fill="#64748b" stroke="#64748b" points="609.38,-271.34 602.27,-269.23 606.51,-275.32 609.38,-271.34"/>
</g>
<!-- n15&#45;&gt;n5 -->
<g id="edge28" class="edge">
<title>n15&#45;&gt;n5</title>
<path fill="none" stroke="#64748b" d="M637.18,-309.28C598.19,-296.88 536.75,-277.33 495.92,-264.34"/>
<polygon fill="#64748b" stroke="#64748b" points="496.9,-262.08 489.49,-262.29 495.42,-266.75 496.9,-262.08"/>
</g>
<!-- n15&#45;&gt;n13 -->
<g id="edge30" class="edge">
<title>n15&#45;&gt;n13</title>
<path fill="none" stroke="#64748b" d="M710.83,-307.5C738.81,-297.25 777.76,-282.97 809.51,-271.34"/>
<polygon fill="#64748b" stroke="#64748b" points="810.27,-273.67 816,-268.96 808.58,-269.07 810.27,-273.67"/>
</g>
<!-- n15&#45;&gt;n14 -->
<g id="edge32" class="edge">
<title>n15&#45;&gt;n14</title>
<path fill="none" stroke="#64748b" d="M684.13,-303.7C689.15,-295.14 695.29,-284.66 700.76,-275.3"/>
<polygon fill="#64748b" stroke="#64748b" points="702.79,-276.69 704.22,-269.41 698.56,-274.21 702.79,-276.69"/>
</g>
<!-- n16 -->
<g id="node17" class="node">
<title>n16</title>
<g id="a_node17"><a xlink:href="https://github.com/statopia/statlib/blob/main/Statlib/HighDim/Regression/SampleCovarianceDesignBridge.lean#L115" xlink:title="lemma · Statlib/HighDim/Regression/SampleCovarianceDesignBridge.lean:115" target="_blank">
<path fill="#eef2f6" stroke="#94a3b8" stroke-width="3" d="M705.58,-412C705.58,-412 448.42,-412 448.42,-412 442.42,-412 436.42,-406 436.42,-400 436.42,-400 436.42,-388 436.42,-388 436.42,-382 442.42,-376 448.42,-376 448.42,-376 705.58,-376 705.58,-376 711.58,-376 717.58,-382 717.58,-388 717.58,-388 717.58,-400 717.58,-400 717.58,-406 711.58,-412 705.58,-412"/>
<text xml:space="preserve" text-anchor="middle" x="577" y="-391" font-family="Helvetica,sans-Serif" font-size="10.00">sampleSecondMoment_cone_lower_to_SatisfiesSupportRE</text>
</a>
</g>
</g>
<!-- n16&#45;&gt;n0 -->
<g id="edge33" class="edge">
<title>n16&#45;&gt;n0</title>
<path fill="none" stroke="#64748b" d="M546.36,-374.62C502.52,-347.61 425.57,-297.22 411,-268 403.86,-253.68 401.7,-245.02 411,-232 439.67,-191.86 469.78,-213.26 516,-196 517.93,-195.28 519.91,-194.52 521.91,-193.75"/>
<polygon fill="#64748b" stroke="#64748b" points="522.58,-196.12 528.21,-191.28 520.79,-191.56 522.58,-196.12"/>
</g>
<!-- n16&#45;&gt;n1 -->
<g id="edge34" class="edge">
<title>n16&#45;&gt;n1</title>
<path fill="none" stroke="#64748b" d="M718.83,-384.42C800.12,-371.35 896.06,-340.31 948,-268 1006.75,-186.2 802.76,-178.08 714.13,-178.29"/>
<polygon fill="#64748b" stroke="#64748b" points="714.17,-175.84 707.19,-178.33 714.2,-180.74 714.17,-175.84"/>
</g>
<!-- n16&#45;&gt;n2 -->
<g id="edge35" class="edge">
<title>n16&#45;&gt;n2</title>
<path fill="none" stroke="#64748b" d="M718.88,-381.95C854.13,-365.63 1027.63,-326.09 958,-232 917.2,-176.87 722.28,-136.21 616.93,-117.85"/>
<polygon fill="#64748b" stroke="#64748b" points="617.38,-115.44 610.07,-116.66 616.55,-120.27 617.38,-115.44"/>
</g>
<!-- n16&#45;&gt;n3 -->
<g id="edge36" class="edge">
<title>n16&#45;&gt;n3</title>
<path fill="none" stroke="#64748b" d="M577,-374.73C577,-349.75 577,-304.81 577,-276.52"/>
<polygon fill="#64748b" stroke="#64748b" points="579.45,-276.83 577,-269.83 574.55,-276.83 579.45,-276.83"/>
</g>
<!-- n16&#45;&gt;n4 -->
<g id="edge37" class="edge">
<title>n16&#45;&gt;n4</title>
<path fill="none" stroke="#64748b" d="M435.1,-385.81C357.74,-379.01 261.1,-365.77 178,-340 110.41,-319.04 73.03,-328.3 36,-268 22.96,-246.77 38.26,-220.71 53.74,-202.28"/>
<polygon fill="#64748b" stroke="#64748b" points="55.17,-204.36 57.95,-197.48 51.49,-201.13 55.17,-204.36"/>
</g>
<!-- n16&#45;&gt;n12 -->
<g id="edge38" class="edge">
<title>n16&#45;&gt;n12</title>
<path fill="none" stroke="#64748b" d="M506.5,-374.52C468.85,-364.65 422.53,-352.5 384.32,-342.49"/>
<polygon fill="#64748b" stroke="#64748b" points="385.15,-340.17 377.76,-340.77 383.91,-344.91 385.15,-340.17"/>
</g>
<!-- n16&#45;&gt;n15 -->
<g id="edge39" class="edge">
<title>n16&#45;&gt;n15</title>
<path fill="none" stroke="#64748b" d="M602.49,-374.61C615.01,-365.57 630.2,-354.61 643.35,-345.12"/>
<polygon fill="#64748b" stroke="#64748b" points="644.55,-347.27 648.79,-341.19 641.68,-343.3 644.55,-347.27"/>
</g>
</g>
</svg>
