<?xml version="1.0" encoding="UTF-8" standalone="no"?>
<!DOCTYPE svg PUBLIC "-//W3C//DTD SVG 1.1//EN"
 "http://www.w3.org/Graphics/SVG/1.1/DTD/svg11.dtd">
<!-- Generated by graphviz version 15.0.0 (20260523.1842)
 -->
<!-- Title: sampleSecondMoment_lower_to_SatisfiesUniformSupportRE Pages: 1 -->
<svg width="926pt" height="482pt"
 viewBox="0.00 0.00 926.00 482.00" xmlns="http://www.w3.org/2000/svg" xmlns:xlink="http://www.w3.org/1999/xlink">
<g id="graph0" class="graph" transform="scale(1 1) rotate(0) translate(4 478)">
<title>sampleSecondMoment_lower_to_SatisfiesUniformSupportRE</title>
<polygon fill="white" stroke="none" points="-4,4 -4,-478 922,-478 922,4 -4,4"/>
<text xml:space="preserve" text-anchor="middle" x="459" y="-457.4" font-family="Helvetica,sans-Serif" font-size="14.00">Proof narrative — sampleSecondMoment_lower_to_SatisfiesUniformSupportRE &#160;(17 decls)</text>
<g id="clust1" class="cluster">
<title>cluster_0</title>
<path fill="none" stroke="#cbd5e1" stroke-dasharray="5,2" d="M20,-8C20,-8 898,-8 898,-8 904,-8 910,-14 910,-20 910,-20 910,-429.2 910,-429.2 910,-435.2 904,-441.2 898,-441.2 898,-441.2 20,-441.2 20,-441.2 14,-441.2 8,-435.2 8,-429.2 8,-429.2 8,-20 8,-20 8,-14 14,-8 20,-8"/>
<text xml:space="preserve" text-anchor="middle" x="459" y="-427.3" font-family="Helvetica,sans-Serif" font-size="11.00">HighDim</text>
</g>
<!-- n0 -->
<g id="node1" class="node">
<title>n0</title>
<g id="a_node1"><a xlink:href="https://github.com/statopia/statlib/blob/main/Statlib/HighDim/CovarianceMatrix/SampleCovariance.lean#L199" xlink:title="noncomputable def · Statlib/HighDim/CovarianceMatrix/SampleCovariance.lean:199" target="_blank">
<path fill="#d6e9ff" stroke="#3b82f6" d="M154.14,-124C154.14,-124 59.86,-124 59.86,-124 53.86,-124 47.86,-118 47.86,-112 47.86,-112 47.86,-100 47.86,-100 47.86,-94 53.86,-88 59.86,-88 59.86,-88 154.14,-88 154.14,-88 160.14,-88 166.14,-94 166.14,-100 166.14,-100 166.14,-112 166.14,-112 166.14,-118 160.14,-124 154.14,-124"/>
<text xml:space="preserve" text-anchor="middle" x="107" y="-103" font-family="Helvetica,sans-Serif" font-size="10.00">sampleSecondMoment</text>
</a>
</g>
</g>
<!-- n1 -->
<g id="node2" class="node">
<title>n1</title>
<g id="a_node2"><a xlink:href="https://github.com/statopia/statlib/blob/main/Statlib/HighDim/Vocabulary/Sparse.lean#L49" xlink:title="def · Statlib/HighDim/Vocabulary/Sparse.lean:49" target="_blank">
<path fill="#d6e9ff" stroke="#3b82f6" d="M620.01,-124C620.01,-124 587.99,-124 587.99,-124 581.99,-124 575.99,-118 575.99,-112 575.99,-112 575.99,-100 575.99,-100 575.99,-94 581.99,-88 587.99,-88 587.99,-88 620.01,-88 620.01,-88 626.01,-88 632.01,-94 632.01,-100 632.01,-100 632.01,-112 632.01,-112 632.01,-118 626.01,-124 620.01,-124"/>
<text xml:space="preserve" text-anchor="middle" x="604" y="-103" font-family="Helvetica,sans-Serif" font-size="10.00">IsInCone</text>
</a>
</g>
</g>
<!-- n2 -->
<g id="node3" class="node">
<title>n2</title>
<g id="a_node3"><a xlink:href="https://github.com/statopia/statlib/blob/main/Statlib/HighDim/Vocabulary/Norms.lean#L13" xlink:title="noncomputable def · Statlib/HighDim/Vocabulary/Norms.lean:13" target="_blank">
<path fill="#d6e9ff" stroke="#3b82f6" d="M735.23,-124C735.23,-124 698.77,-124 698.77,-124 692.77,-124 686.77,-118 686.77,-112 686.77,-112 686.77,-100 686.77,-100 686.77,-94 692.77,-88 698.77,-88 698.77,-88 735.23,-88 735.23,-88 741.23,-88 747.23,-94 747.23,-100 747.23,-100 747.23,-112 747.23,-112 747.23,-118 741.23,-124 735.23,-124"/>
<text xml:space="preserve" text-anchor="middle" x="717" y="-103" font-family="Helvetica,sans-Serif" font-size="10.00">l2NormSq</text>
</a>
</g>
</g>
<!-- n3 -->
<g id="node4" class="node">
<title>n3</title>
<g id="a_node4"><a xlink:href="https://github.com/statopia/statlib/blob/main/Statlib/HighDim/Vocabulary/DesignMatrix.lean#L82" xlink:title="structure · Statlib/HighDim/Vocabulary/DesignMatrix.lean:82" target="_blank">
<path fill="#e8dcff" stroke="#8b5cf6" d="M793.86,-268C793.86,-268 680.14,-268 680.14,-268 674.14,-268 668.14,-262 668.14,-256 668.14,-256 668.14,-244 668.14,-244 668.14,-238 674.14,-232 680.14,-232 680.14,-232 793.86,-232 793.86,-232 799.86,-232 805.86,-238 805.86,-244 805.86,-244 805.86,-256 805.86,-256 805.86,-262 799.86,-268 793.86,-268"/>
<text xml:space="preserve" text-anchor="middle" x="737" y="-247" font-family="Helvetica,sans-Serif" font-size="10.00">SatisfiesUniformSupportRE</text>
</a>
</g>
</g>
<!-- n3&#45;&gt;n1 -->
<g id="edge1" class="edge">
<title>n3&#45;&gt;n1</title>
<path fill="none" stroke="#64748b" d="M667.97,-238.79C642.57,-231.32 616.3,-218.38 601,-196 588.38,-177.54 590.98,-151.54 595.62,-132.41"/>
<polygon fill="#64748b" stroke="#64748b" points="597.93,-133.27 597.38,-125.87 593.2,-131.99 597.93,-133.27"/>
</g>
<!-- n3&#45;&gt;n2 -->
<g id="edge2" class="edge">
<title>n3&#45;&gt;n2</title>
<path fill="none" stroke="#64748b" d="M734.55,-231.59C731.05,-206.76 724.61,-161.01 720.58,-132.4"/>
<polygon fill="#64748b" stroke="#64748b" points="723.02,-132.2 719.62,-125.61 718.17,-132.88 723.02,-132.2"/>
</g>
<!-- n4 -->
<g id="node5" class="node">
<title>n4</title>
<g id="a_node5"><a xlink:href="https://github.com/statopia/statlib/blob/main/Statlib/HighDim/Regression/SampleCovarianceDesignBridge.lean#L24" xlink:title="noncomputable def · Statlib/HighDim/Regression/SampleCovarianceDesignBridge.lean:24" target="_blank">
<path fill="#d6e9ff" stroke="#3b82f6" d="M165.51,-196C165.51,-196 68.49,-196 68.49,-196 62.49,-196 56.49,-190 56.49,-184 56.49,-184 56.49,-172 56.49,-172 56.49,-166 62.49,-160 68.49,-160 68.49,-160 165.51,-160 165.51,-160 171.51,-160 177.51,-166 177.51,-172 177.51,-172 177.51,-184 177.51,-184 177.51,-190 171.51,-196 165.51,-196"/>
<text xml:space="preserve" text-anchor="middle" x="117" y="-175" font-family="Helvetica,sans-Serif" font-size="10.00">designMatrixFromRows</text>
</a>
</g>
</g>
<!-- n5 -->
<g id="node6" class="node">
<title>n5</title>
<g id="a_node6"><a xlink:href="https://github.com/statopia/statlib/blob/main/Statlib/HighDim/Vocabulary/DesignMatrix.lean#L65" xlink:title="structure · Statlib/HighDim/Vocabulary/DesignMatrix.lean:65" target="_blank">
<path fill="#e8dcff" stroke="#8b5cf6" d="M665.84,-196C665.84,-196 622.16,-196 622.16,-196 616.16,-196 610.16,-190 610.16,-184 610.16,-184 610.16,-172 610.16,-172 610.16,-166 616.16,-160 622.16,-160 622.16,-160 665.84,-160 665.84,-160 671.84,-160 677.84,-166 677.84,-172 677.84,-172 677.84,-184 677.84,-184 677.84,-190 671.84,-196 665.84,-196"/>
<text xml:space="preserve" text-anchor="middle" x="644" y="-175" font-family="Helvetica,sans-Serif" font-size="10.00">SatisfiesRE</text>
</a>
</g>
</g>
<!-- n5&#45;&gt;n1 -->
<g id="edge3" class="edge">
<title>n5&#45;&gt;n1</title>
<path fill="none" stroke="#64748b" d="M634.11,-159.7C629.22,-151.14 623.23,-140.66 617.89,-131.3"/>
<polygon fill="#64748b" stroke="#64748b" points="620.13,-130.28 614.52,-125.42 615.87,-132.71 620.13,-130.28"/>
</g>
<!-- n5&#45;&gt;n2 -->
<g id="edge4" class="edge">
<title>n5&#45;&gt;n2</title>
<path fill="none" stroke="#64748b" d="M662.04,-159.7C671.35,-150.78 682.82,-139.78 692.87,-130.14"/>
<polygon fill="#64748b" stroke="#64748b" points="694.46,-132.01 697.82,-125.39 691.07,-128.47 694.46,-132.01"/>
</g>
<!-- n6 -->
<g id="node7" class="node">
<title>n6</title>
<g id="a_node7"><a xlink:href="https://github.com/statopia/statlib/blob/main/Statlib/HighDim/Vocabulary/DesignMatrix.lean#L99" xlink:title="structure · Statlib/HighDim/Vocabulary/DesignMatrix.lean:99" target="_blank">
<path fill="#e8dcff" stroke="#8b5cf6" d="M618.34,-268C618.34,-268 539.66,-268 539.66,-268 533.66,-268 527.66,-262 527.66,-256 527.66,-256 527.66,-244 527.66,-244 527.66,-238 533.66,-232 539.66,-232 539.66,-232 618.34,-232 618.34,-232 624.34,-232 630.34,-238 630.34,-244 630.34,-244 630.34,-256 630.34,-256 630.34,-262 624.34,-268 618.34,-268"/>
<text xml:space="preserve" text-anchor="middle" x="579" y="-247" font-family="Helvetica,sans-Serif" font-size="10.00">SatisfiesUniformRE</text>
</a>
</g>
</g>
<!-- n6&#45;&gt;n1 -->
<g id="edge5" class="edge">
<title>n6&#45;&gt;n1</title>
<path fill="none" stroke="#64748b" d="M579.09,-231.76C579.48,-213.7 580.94,-184.59 586,-160 587.9,-150.77 590.94,-140.92 593.99,-132.25"/>
<polygon fill="#64748b" stroke="#64748b" points="596.26,-133.2 596.36,-125.78 591.65,-131.52 596.26,-133.2"/>
</g>
<!-- n6&#45;&gt;n2 -->
<g id="edge6" class="edge">
<title>n6&#45;&gt;n2</title>
<path fill="none" stroke="#64748b" d="M630.64,-233.35C650.58,-225.04 672.13,-212.96 687,-196 702.57,-178.24 710.12,-152.1 713.75,-132.73"/>
<polygon fill="#64748b" stroke="#64748b" points="716.16,-133.17 714.9,-125.86 711.33,-132.36 716.16,-133.17"/>
</g>
<!-- n6&#45;&gt;n5 -->
<g id="edge7" class="edge">
<title>n6&#45;&gt;n5</title>
<path fill="none" stroke="#64748b" d="M595.07,-231.7C603.33,-222.8 613.52,-211.82 622.46,-202.2"/>
<polygon fill="#64748b" stroke="#64748b" points="624.12,-204.01 627.09,-197.21 620.53,-200.68 624.12,-204.01"/>
</g>
<!-- n7 -->
<g id="node8" class="node">
<title>n7</title>
<g id="a_node8"><a xlink:href="https://github.com/statopia/statlib/blob/main/Statlib/HighDim/Vocabulary/Norms.lean#L41" xlink:title="noncomputable def · Statlib/HighDim/Vocabulary/Norms.lean:41" target="_blank">
<path fill="#d6e9ff" stroke="#3b82f6" d="M259.13,-52C259.13,-52 214.87,-52 214.87,-52 208.87,-52 202.87,-46 202.87,-40 202.87,-40 202.87,-28 202.87,-28 202.87,-22 208.87,-16 214.87,-16 214.87,-16 259.13,-16 259.13,-16 265.13,-16 271.13,-22 271.13,-28 271.13,-28 271.13,-40 271.13,-40 271.13,-46 265.13,-52 259.13,-52"/>
<text xml:space="preserve" text-anchor="middle" x="237" y="-31" font-family="Helvetica,sans-Serif" font-size="10.00">toEuclidean</text>
</a>
</g>
</g>
<!-- n8 -->
<g id="node9" class="node">
<title>n8</title>
<g id="a_node9"><a xlink:href="https://github.com/statopia/statlib/blob/main/Statlib/HighDim/Vocabulary/Norms.lean#L32" xlink:title="lemma · Statlib/HighDim/Vocabulary/Norms.lean:32" target="_blank">
<path fill="#eef2f6" stroke="#94a3b8" d="M499.69,-52C499.69,-52 444.31,-52 444.31,-52 438.31,-52 432.31,-46 432.31,-40 432.31,-40 432.31,-28 432.31,-28 432.31,-22 438.31,-16 444.31,-16 444.31,-16 499.69,-16 499.69,-16 505.69,-16 511.69,-22 511.69,-28 511.69,-28 511.69,-40 511.69,-40 511.69,-46 505.69,-52 499.69,-52"/>
<text xml:space="preserve" text-anchor="middle" x="472" y="-31" font-family="Helvetica,sans-Serif" font-size="10.00">inner_eq_sum</text>
</a>
</g>
</g>
<!-- n9 -->
<g id="node10" class="node">
<title>n9</title>
<g id="a_node10"><a xlink:href="https://github.com/statopia/statlib/blob/main/Statlib/HighDim/CovarianceMatrix/SampleCovariance.lean#L324" xlink:title="lemma · Statlib/HighDim/CovarianceMatrix/SampleCovariance.lean:324" target="_blank">
<path fill="#eef2f6" stroke="#94a3b8" d="M525.53,-124C525.53,-124 418.47,-124 418.47,-124 412.47,-124 406.47,-118 406.47,-112 406.47,-112 406.47,-100 406.47,-100 406.47,-94 412.47,-88 418.47,-88 418.47,-88 525.53,-88 525.53,-88 531.53,-88 537.53,-94 537.53,-100 537.53,-100 537.53,-112 537.53,-112 537.53,-118 531.53,-124 525.53,-124"/>
<text xml:space="preserve" text-anchor="middle" x="472" y="-103" font-family="Helvetica,sans-Serif" font-size="10.00">matrix_quadratic_eq_sum</text>
</a>
</g>
</g>
<!-- n9&#45;&gt;n7 -->
<g id="edge8" class="edge">
<title>n9&#45;&gt;n7</title>
<path fill="none" stroke="#64748b" d="M413.31,-87.52C371.55,-75.08 316.44,-58.66 279.03,-47.52"/>
<polygon fill="#64748b" stroke="#64748b" points="280.19,-45.31 272.78,-45.66 278.79,-50 280.19,-45.31"/>
</g>
<!-- n9&#45;&gt;n8 -->
<g id="edge9" class="edge">
<title>n9&#45;&gt;n8</title>
<path fill="none" stroke="#64748b" d="M472,-87.7C472,-79.47 472,-69.48 472,-60.42"/>
<polygon fill="#64748b" stroke="#64748b" points="474.45,-60.62 472,-53.62 469.55,-60.62 474.45,-60.62"/>
</g>
<!-- n10 -->
<g id="node11" class="node">
<title>n10</title>
<g id="a_node11"><a xlink:href="https://github.com/statopia/statlib/blob/main/Statlib/HighDim/CovarianceMatrix/SampleCovariance.lean#L336" xlink:title="lemma · Statlib/HighDim/CovarianceMatrix/SampleCovariance.lean:336" target="_blank">
<path fill="#eef2f6" stroke="#94a3b8" d="M376.08,-124C376.08,-124 287.92,-124 287.92,-124 281.92,-124 275.92,-118 275.92,-112 275.92,-112 275.92,-100 275.92,-100 275.92,-94 281.92,-88 287.92,-88 287.92,-88 376.08,-88 376.08,-88 382.08,-88 388.08,-94 388.08,-100 388.08,-100 388.08,-112 388.08,-112 388.08,-118 382.08,-124 376.08,-124"/>
<text xml:space="preserve" text-anchor="middle" x="332" y="-103" font-family="Helvetica,sans-Serif" font-size="10.00">fin_sum_comm_three</text>
</a>
</g>
</g>
<!-- n11 -->
<g id="node12" class="node">
<title>n11</title>
<g id="a_node12"><a xlink:href="https://github.com/statopia/statlib/blob/main/Statlib/HighDim/CovarianceMatrix/SampleCovariance.lean#L346" xlink:title="lemma · Statlib/HighDim/CovarianceMatrix/SampleCovariance.lean:346" target="_blank">
<path fill="#eef2f6" stroke="#94a3b8" d="M479.52,-196C479.52,-196 248.48,-196 248.48,-196 242.48,-196 236.48,-190 236.48,-184 236.48,-184 236.48,-172 236.48,-172 236.48,-166 242.48,-160 248.48,-160 248.48,-160 479.52,-160 479.52,-160 485.52,-160 491.52,-166 491.52,-172 491.52,-172 491.52,-184 491.52,-184 491.52,-190 485.52,-196 479.52,-196"/>
<text xml:space="preserve" text-anchor="middle" x="364" y="-175" font-family="Helvetica,sans-Serif" font-size="10.00">sampleSecondMoment_quadratic_eq_projection_sum</text>
</a>
</g>
</g>
<!-- n11&#45;&gt;n0 -->
<g id="edge11" class="edge">
<title>n11&#45;&gt;n0</title>
<path fill="none" stroke="#64748b" d="M299.81,-159.52C261.64,-149.12 213.27,-135.94 174.53,-125.39"/>
<polygon fill="#64748b" stroke="#64748b" points="175.27,-123.06 167.87,-123.58 173.98,-127.78 175.27,-123.06"/>
</g>
<!-- n11&#45;&gt;n7 -->
<g id="edge10" class="edge">
<title>n11&#45;&gt;n7</title>
<path fill="none" stroke="#64748b" d="M305.19,-159.55C286.98,-151.45 268.46,-139.97 256,-124 241.93,-105.96 237.7,-79.85 236.68,-60.57"/>
<polygon fill="#64748b" stroke="#64748b" points="239.13,-60.68 236.46,-53.76 234.23,-60.84 239.13,-60.68"/>
</g>
<!-- n11&#45;&gt;n8 -->
<g id="edge14" class="edge">
<title>n11&#45;&gt;n8</title>
<path fill="none" stroke="#64748b" d="M309.22,-159.59C292.72,-151.5 276.5,-140.01 267,-124 258.84,-110.24 257.2,-100.65 267,-88 286.05,-63.39 369.57,-48.15 423.95,-40.65"/>
<polygon fill="#64748b" stroke="#64748b" points="423.97,-43.12 430.58,-39.76 423.32,-38.27 423.97,-43.12"/>
</g>
<!-- n11&#45;&gt;n9 -->
<g id="edge12" class="edge">
<title>n11&#45;&gt;n9</title>
<path fill="none" stroke="#64748b" d="M390.97,-159.52C405.39,-150.18 423.26,-138.59 438.55,-128.68"/>
<polygon fill="#64748b" stroke="#64748b" points="439.56,-130.95 444.1,-125.08 436.89,-126.84 439.56,-130.95"/>
</g>
<!-- n11&#45;&gt;n10 -->
<g id="edge13" class="edge">
<title>n11&#45;&gt;n10</title>
<path fill="none" stroke="#64748b" d="M356.09,-159.7C352.21,-151.22 347.48,-140.86 343.24,-131.58"/>
<polygon fill="#64748b" stroke="#64748b" points="345.59,-130.83 340.45,-125.48 341.13,-132.87 345.59,-130.83"/>
</g>
<!-- n12 -->
<g id="node13" class="node">
<title>n12</title>
<g id="a_node13"><a xlink:href="https://github.com/statopia/statlib/blob/main/Statlib/HighDim/Regression/SampleCovarianceDesignBridge.lean#L30" xlink:title="lemma · Statlib/HighDim/Regression/SampleCovarianceDesignBridge.lean:30" target="_blank">
<path fill="#eef2f6" stroke="#94a3b8" d="M494.53,-268C494.53,-268 233.47,-268 233.47,-268 227.47,-268 221.47,-262 221.47,-256 221.47,-256 221.47,-244 221.47,-244 221.47,-238 227.47,-232 233.47,-232 233.47,-232 494.53,-232 494.53,-232 500.53,-232 506.53,-238 506.53,-244 506.53,-244 506.53,-256 506.53,-256 506.53,-262 500.53,-268 494.53,-268"/>
<text xml:space="preserve" text-anchor="middle" x="364" y="-247" font-family="Helvetica,sans-Serif" font-size="10.00">design_l2NormSq_div_eq_sampleSecondMoment_quadratic</text>
</a>
</g>
</g>
<!-- n12&#45;&gt;n0 -->
<g id="edge17" class="edge">
<title>n12&#45;&gt;n0</title>
<path fill="none" stroke="#64748b" d="M284.35,-231.54C259.52,-223.5 233.14,-212.06 212,-196 196.49,-184.22 200.92,-173.62 187,-160 174.93,-148.19 159.88,-137.43 146.1,-128.73"/>
<polygon fill="#64748b" stroke="#64748b" points="147.57,-126.76 140.32,-125.17 145,-130.93 147.57,-126.76"/>
</g>
<!-- n12&#45;&gt;n2 -->
<g id="edge15" class="edge">
<title>n12&#45;&gt;n2</title>
<path fill="none" stroke="#64748b" d="M432.13,-231.52C464.21,-222.41 502.65,-210.19 536,-196 566.39,-183.07 571.52,-174.87 601,-160 626.64,-147.07 656.08,-133.63 678.88,-123.53"/>
<polygon fill="#64748b" stroke="#64748b" points="679.85,-125.78 685.27,-120.71 677.88,-121.29 679.85,-125.78"/>
</g>
<!-- n12&#45;&gt;n4 -->
<g id="edge16" class="edge">
<title>n12&#45;&gt;n4</title>
<path fill="none" stroke="#64748b" d="M302.31,-231.52C266.97,-221.5 222.54,-208.91 186.04,-198.57"/>
<polygon fill="#64748b" stroke="#64748b" points="186.76,-196.22 179.36,-196.67 185.43,-200.94 186.76,-196.22"/>
</g>
<!-- n12&#45;&gt;n7 -->
<g id="edge19" class="edge">
<title>n12&#45;&gt;n7</title>
<path fill="none" stroke="#64748b" d="M273.72,-231.56C255.36,-223.74 238.25,-212.41 227,-196 199,-155.15 214.45,-93.92 226.69,-59.95"/>
<polygon fill="#64748b" stroke="#64748b" points="228.85,-61.17 229.01,-53.75 224.26,-59.45 228.85,-61.17"/>
</g>
<!-- n12&#45;&gt;n8 -->
<g id="edge21" class="edge">
<title>n12&#45;&gt;n8</title>
<path fill="none" stroke="#64748b" d="M443.41,-231.58C466.48,-223.62 490.43,-212.22 509,-196 536.26,-172.2 538.3,-159.12 547,-124 550.85,-108.47 554.36,-102.21 547,-88 540.38,-75.22 529.1,-64.86 517.27,-56.81"/>
<polygon fill="#64748b" stroke="#64748b" points="518.77,-54.85 511.55,-53.14 516.13,-58.98 518.77,-54.85"/>
</g>
<!-- n12&#45;&gt;n9 -->
<g id="edge20" class="edge">
<title>n12&#45;&gt;n9</title>
<path fill="none" stroke="#64748b" d="M454.28,-231.56C472.64,-223.74 489.75,-212.41 501,-196 514.5,-176.3 502.95,-149.89 490.65,-130.97"/>
<polygon fill="#64748b" stroke="#64748b" points="492.96,-130 486.99,-125.61 488.92,-132.77 492.96,-130"/>
</g>
<!-- n12&#45;&gt;n11 -->
<g id="edge18" class="edge">
<title>n12&#45;&gt;n11</title>
<path fill="none" stroke="#64748b" d="M364,-231.7C364,-223.47 364,-213.48 364,-204.42"/>
<polygon fill="#64748b" stroke="#64748b" points="366.45,-204.62 364,-197.62 361.55,-204.62 366.45,-204.62"/>
</g>
<!-- n13 -->
<g id="node14" class="node">
<title>n13</title>
<g id="a_node14"><a xlink:href="https://github.com/statopia/statlib/blob/main/Statlib/HighDim/Regression/SampleCovarianceDesignBridge.lean#L62" xlink:title="lemma · Statlib/HighDim/Regression/SampleCovarianceDesignBridge.lean:62" target="_blank">
<path fill="#eef2f6" stroke="#94a3b8" d="M478.94,-340C478.94,-340 249.06,-340 249.06,-340 243.06,-340 237.06,-334 237.06,-328 237.06,-328 237.06,-316 237.06,-316 237.06,-310 243.06,-304 249.06,-304 249.06,-304 478.94,-304 478.94,-304 484.94,-304 490.94,-310 490.94,-316 490.94,-316 490.94,-328 490.94,-328 490.94,-334 484.94,-340 478.94,-340"/>
<text xml:space="preserve" text-anchor="middle" x="364" y="-319" font-family="Helvetica,sans-Serif" font-size="10.00">sampleSecondMoment_lower_to_SatisfiesUniformRE</text>
</a>
</g>
</g>
<!-- n13&#45;&gt;n0 -->
<g id="edge22" class="edge">
<title>n13&#45;&gt;n0</title>
<path fill="none" stroke="#64748b" d="M236.79,-308.89C165.86,-294.51 84.46,-263.34 47,-196 39.22,-182.02 40.42,-174.59 47,-160 52.34,-148.15 61.79,-137.89 71.63,-129.63"/>
<polygon fill="#64748b" stroke="#64748b" points="72.96,-131.7 76.92,-125.44 69.91,-127.86 72.96,-131.7"/>
</g>
<!-- n13&#45;&gt;n2 -->
<g id="edge25" class="edge">
<title>n13&#45;&gt;n2</title>
<path fill="none" stroke="#64748b" d="M478.66,-303.56C547.99,-292.21 625.54,-277.75 639,-268 653.82,-257.26 647.34,-246.11 659,-232 674.87,-212.78 689.61,-217.63 702,-196 713.1,-176.63 716.49,-151.27 717.31,-132.57"/>
<polygon fill="#64748b" stroke="#64748b" points="719.76,-132.81 717.49,-125.75 714.86,-132.69 719.76,-132.81"/>
</g>
<!-- n13&#45;&gt;n4 -->
<g id="edge24" class="edge">
<title>n13&#45;&gt;n4</title>
<path fill="none" stroke="#64748b" d="M294.7,-303.53C267.76,-295.06 237.35,-283.34 212,-268 182.69,-250.26 154.78,-222.32 136.89,-202.49"/>
<polygon fill="#64748b" stroke="#64748b" points="138.93,-201.09 132.45,-197.48 135.26,-204.34 138.93,-201.09"/>
</g>
<!-- n13&#45;&gt;n6 -->
<g id="edge23" class="edge">
<title>n13&#45;&gt;n6</title>
<path fill="none" stroke="#64748b" d="M417.7,-303.52C448.66,-293.44 487.64,-280.75 519.52,-270.37"/>
<polygon fill="#64748b" stroke="#64748b" points="520.13,-272.74 526.03,-268.25 518.61,-268.08 520.13,-272.74"/>
</g>
<!-- n13&#45;&gt;n12 -->
<g id="edge26" class="edge">
<title>n13&#45;&gt;n12</title>
<path fill="none" stroke="#64748b" d="M364,-303.7C364,-295.47 364,-285.48 364,-276.42"/>
<polygon fill="#64748b" stroke="#64748b" points="366.45,-276.62 364,-269.62 361.55,-276.62 366.45,-276.62"/>
</g>
<!-- n14 -->
<g id="node15" class="node">
<title>n14</title>
<g id="a_node15"><a xlink:href="https://github.com/statopia/statlib/blob/main/Statlib/HighDim/Vocabulary/Sparse.lean#L54" xlink:title="lemma · Statlib/HighDim/Vocabulary/Sparse.lean:54" target="_blank">
<path fill="#eef2f6" stroke="#94a3b8" d="M870.03,-196C870.03,-196 767.97,-196 767.97,-196 761.97,-196 755.97,-190 755.97,-184 755.97,-184 755.97,-172 755.97,-172 755.97,-166 761.97,-160 767.97,-160 767.97,-160 870.03,-160 870.03,-160 876.03,-160 882.03,-166 882.03,-172 882.03,-172 882.03,-184 882.03,-184 882.03,-190 876.03,-196 870.03,-196"/>
<text xml:space="preserve" text-anchor="middle" x="819" y="-175" font-family="Helvetica,sans-Serif" font-size="10.00">support_l2_le_l2NormSq</text>
</a>
</g>
</g>
<!-- n14&#45;&gt;n2 -->
<g id="edge27" class="edge">
<title>n14&#45;&gt;n2</title>
<path fill="none" stroke="#64748b" d="M793.52,-159.52C780.04,-150.26 763.34,-138.8 748.98,-128.95"/>
<polygon fill="#64748b" stroke="#64748b" points="750.56,-127.06 743.4,-125.12 747.78,-131.1 750.56,-127.06"/>
</g>
<!-- n15 -->
<g id="node16" class="node">
<title>n15</title>
<g id="a_node16"><a xlink:href="https://github.com/statopia/statlib/blob/main/Statlib/HighDim/Vocabulary/DesignMatrix.lean#L161" xlink:title="lemma · Statlib/HighDim/Vocabulary/DesignMatrix.lean:161" target="_blank">
<path fill="#eef2f6" stroke="#94a3b8" d="M779.13,-340C779.13,-340 694.87,-340 694.87,-340 688.87,-340 682.87,-334 682.87,-328 682.87,-328 682.87,-316 682.87,-316 682.87,-310 688.87,-304 694.87,-304 694.87,-304 779.13,-304 779.13,-304 785.13,-304 791.13,-310 791.13,-316 791.13,-316 791.13,-328 791.13,-328 791.13,-334 785.13,-340 779.13,-340"/>
<text xml:space="preserve" text-anchor="middle" x="737" y="-319" font-family="Helvetica,sans-Serif" font-size="10.00">toUniformSupportRE</text>
</a>
</g>
</g>
<!-- n15&#45;&gt;n2 -->
<g id="edge31" class="edge">
<title>n15&#45;&gt;n2</title>
<path fill="none" stroke="#64748b" d="M776.75,-303.53C835.27,-275.34 933.36,-217.19 891,-160 860.11,-118.31 797.19,-108.3 756.09,-106.48"/>
<polygon fill="#64748b" stroke="#64748b" points="756.25,-104.04 749.18,-106.26 756.09,-108.93 756.25,-104.04"/>
</g>
<!-- n15&#45;&gt;n3 -->
<g id="edge29" class="edge">
<title>n15&#45;&gt;n3</title>
<path fill="none" stroke="#64748b" d="M737,-303.7C737,-295.47 737,-285.48 737,-276.42"/>
<polygon fill="#64748b" stroke="#64748b" points="739.45,-276.62 737,-269.62 734.55,-276.62 739.45,-276.62"/>
</g>
<!-- n15&#45;&gt;n6 -->
<g id="edge28" class="edge">
<title>n15&#45;&gt;n6</title>
<path fill="none" stroke="#64748b" d="M697.54,-303.52C675.78,-293.88 648.62,-281.84 625.79,-271.73"/>
<polygon fill="#64748b" stroke="#64748b" points="627.01,-269.59 619.62,-268.99 625.02,-274.07 627.01,-269.59"/>
</g>
<!-- n15&#45;&gt;n14 -->
<g id="edge30" class="edge">
<title>n15&#45;&gt;n14</title>
<path fill="none" stroke="#64748b" d="M776.83,-303.58C791.43,-295.06 806.46,-283.29 815,-268 825.74,-248.77 825.77,-223.38 823.68,-204.65"/>
<polygon fill="#64748b" stroke="#64748b" points="826.12,-204.41 822.76,-197.8 821.26,-205.06 826.12,-204.41"/>
</g>
<!-- n16 -->
<g id="node17" class="node">
<title>n16</title>
<g id="a_node17"><a xlink:href="https://github.com/statopia/statlib/blob/main/Statlib/HighDim/Regression/SampleCovarianceDesignBridge.lean#L81" xlink:title="lemma · Statlib/HighDim/Regression/SampleCovarianceDesignBridge.lean:81" target="_blank">
<path fill="#eef2f6" stroke="#94a3b8" stroke-width="3" d="M496.46,-412C496.46,-412 231.54,-412 231.54,-412 225.54,-412 219.54,-406 219.54,-400 219.54,-400 219.54,-388 219.54,-388 219.54,-382 225.54,-376 231.54,-376 231.54,-376 496.46,-376 496.46,-376 502.46,-376 508.46,-382 508.46,-388 508.46,-388 508.46,-400 508.46,-400 508.46,-406 502.46,-412 496.46,-412"/>
<text xml:space="preserve" text-anchor="middle" x="364" y="-391" font-family="Helvetica,sans-Serif" font-size="10.00">sampleSecondMoment_lower_to_SatisfiesUniformSupportRE</text>
</a>
</g>
</g>
<!-- n16&#45;&gt;n0 -->
<g id="edge32" class="edge">
<title>n16&#45;&gt;n0</title>
<path fill="none" stroke="#64748b" d="M270.84,-374.51C207.09,-357.24 125.16,-325.22 74,-268 40.28,-230.28 15.63,-205.38 38,-160 44.14,-147.55 54.76,-137.2 65.86,-129.06"/>
<polygon fill="#64748b" stroke="#64748b" points="67.18,-131.12 71.56,-125.13 64.4,-127.09 67.18,-131.12"/>
</g>
<!-- n16&#45;&gt;n3 -->
<g id="edge33" class="edge">
<title>n16&#45;&gt;n3</title>
<path fill="none" stroke="#64748b" d="M412.38,-374.58C482.18,-348.01 610.7,-299.08 683.33,-271.43"/>
<polygon fill="#64748b" stroke="#64748b" points="683.96,-273.81 689.63,-269.03 682.22,-269.23 683.96,-273.81"/>
</g>
<!-- n16&#45;&gt;n4 -->
<g id="edge34" class="edge">
<title>n16&#45;&gt;n4</title>
<path fill="none" stroke="#64748b" d="M299.01,-374.6C275.44,-366.19 249.38,-354.75 228,-340 177.73,-305.31 143.3,-239.87 127.27,-204.03"/>
<polygon fill="#64748b" stroke="#64748b" points="129.6,-203.25 124.56,-197.82 125.11,-205.21 129.6,-203.25"/>
</g>
<!-- n16&#45;&gt;n13 -->
<g id="edge35" class="edge">
<title>n16&#45;&gt;n13</title>
<path fill="none" stroke="#64748b" d="M364,-374.61C364,-366.59 364,-357.05 364,-348.37"/>
<polygon fill="#64748b" stroke="#64748b" points="366.45,-348.58 364,-341.58 361.55,-348.58 366.45,-348.58"/>
</g>
<!-- n16&#45;&gt;n15 -->
<g id="edge36" class="edge">
<title>n16&#45;&gt;n15</title>
<path fill="none" stroke="#64748b" d="M462.49,-374.52C529.55,-361.93 616.32,-345.65 674.18,-334.79"/>
<polygon fill="#64748b" stroke="#64748b" points="674.58,-337.21 681.01,-333.51 673.68,-332.39 674.58,-337.21"/>
</g>
</g>
</svg>
