<?xml version="1.0" encoding="UTF-8" standalone="no"?>
<!DOCTYPE svg PUBLIC "-//W3C//DTD SVG 1.1//EN"
 "http://www.w3.org/Graphics/SVG/1.1/DTD/svg11.dtd">
<!-- Generated by graphviz version 15.0.0 (20260523.1842)
 -->
<!-- Title: subgaussian_rip_sample_complexity Pages: 1 -->
<svg width="3086pt" height="627pt"
 viewBox="0.00 0.00 3086.00 627.00" xmlns="http://www.w3.org/2000/svg" xmlns:xlink="http://www.w3.org/1999/xlink">
<g id="graph0" class="graph" transform="scale(1 1) rotate(0) translate(4 623.2)">
<title>subgaussian_rip_sample_complexity</title>
<polygon fill="white" stroke="none" points="-4,4 -4,-623.2 3082,-623.2 3082,4 -4,4"/>
<text xml:space="preserve" text-anchor="middle" x="1539" y="-602.6" font-family="Helvetica,sans-Serif" font-size="14.00">Proof narrative — subgaussian_rip_sample_complexity &#160;(51 decls)</text>
<g id="clust1" class="cluster">
<title>cluster_0</title>
<path fill="none" stroke="#cbd5e1" stroke-dasharray="5,2" d="M20,-8C20,-8 2224,-8 2224,-8 2230,-8 2236,-14 2236,-20 2236,-20 2236,-574.4 2236,-574.4 2236,-580.4 2230,-586.4 2224,-586.4 2224,-586.4 20,-586.4 20,-586.4 14,-586.4 8,-580.4 8,-574.4 8,-574.4 8,-20 8,-20 8,-14 14,-8 20,-8"/>
<text xml:space="preserve" text-anchor="middle" x="1122" y="-572.5" font-family="Helvetica,sans-Serif" font-size="11.00">HighDim</text>
</g>
<g id="clust2" class="cluster">
<title>cluster_1</title>
<path fill="none" stroke="#cbd5e1" stroke-dasharray="5,2" d="M2256,-152C2256,-152 3058,-152 3058,-152 3064,-152 3070,-158 3070,-164 3070,-164 3070,-357.2 3070,-357.2 3070,-363.2 3064,-369.2 3058,-369.2 3058,-369.2 2256,-369.2 2256,-369.2 2250,-369.2 2244,-363.2 2244,-357.2 2244,-357.2 2244,-164 2244,-164 2244,-158 2250,-152 2256,-152"/>
<text xml:space="preserve" text-anchor="middle" x="2657" y="-355.3" font-family="Helvetica,sans-Serif" font-size="11.00">StatFoundation</text>
</g>
<!-- n0 -->
<g id="node1" class="node">
<title>n0</title>
<g id="a_node1"><a xlink:href="vscode://vscode-remote/wsl+Ubuntu/home/ai4stat/statlib/Statlib/HighDim/Vocabulary/RandomVector.lean:101" xlink:title="structure · Statlib/HighDim/Vocabulary/RandomVector.lean:101" target="_blank">
<path fill="#e8dcff" stroke="#8b5cf6" d="M215.79,-340C215.79,-340 128.21,-340 128.21,-340 122.21,-340 116.21,-334 116.21,-328 116.21,-328 116.21,-316 116.21,-316 116.21,-310 122.21,-304 128.21,-304 128.21,-304 215.79,-304 215.79,-304 221.79,-304 227.79,-310 227.79,-316 227.79,-316 227.79,-328 227.79,-328 227.79,-334 221.79,-340 215.79,-340"/>
<text xml:space="preserve" text-anchor="middle" x="172" y="-319" font-family="Helvetica,sans-Serif" font-size="10.00">HasCovarianceMatrix</text>
</a>
</g>
</g>
<!-- n1 -->
<g id="node2" class="node">
<title>n1</title>
<g id="a_node2"><a xlink:href="vscode://vscode-remote/wsl+Ubuntu/home/ai4stat/statlib/Statlib/HighDim/Vocabulary/RandomVector.lean:109" xlink:title="def · Statlib/HighDim/Vocabulary/RandomVector.lean:109" target="_blank">
<path fill="#d6e9ff" stroke="#3b82f6" d="M195.79,-413.2C195.79,-413.2 158.21,-413.2 158.21,-413.2 152.21,-413.2 146.21,-407.2 146.21,-401.2 146.21,-401.2 146.21,-389.2 146.21,-389.2 146.21,-383.2 152.21,-377.2 158.21,-377.2 158.21,-377.2 195.79,-377.2 195.79,-377.2 201.79,-377.2 207.79,-383.2 207.79,-389.2 207.79,-389.2 207.79,-401.2 207.79,-401.2 207.79,-407.2 201.79,-413.2 195.79,-413.2"/>
<text xml:space="preserve" text-anchor="middle" x="177" y="-392.2" font-family="Helvetica,sans-Serif" font-size="10.00">IsIsotropic</text>
</a>
</g>
</g>
<!-- n1&#45;&gt;n0 -->
<g id="edge1" class="edge">
<title>n1&#45;&gt;n0</title>
<path fill="none" stroke="#64748b" d="M175.79,-376.96C175.19,-368.39 174.45,-357.87 173.78,-348.39"/>
<polygon fill="#64748b" stroke="#64748b" points="176.24,-348.4 173.31,-341.59 171.35,-348.74 176.24,-348.4"/>
</g>
<!-- n2 -->
<g id="node3" class="node">
<title>n2</title>
<g id="a_node3"><a xlink:href="vscode://vscode-remote/wsl+Ubuntu/home/ai4stat/statlib/Statlib/HighDim/Vocabulary/RandomVector.lean:52" xlink:title="structure · Statlib/HighDim/Vocabulary/RandomVector.lean:52" target="_blank">
<path fill="#e8dcff" stroke="#8b5cf6" d="M116.36,-413.2C116.36,-413.2 27.64,-413.2 27.64,-413.2 21.64,-413.2 15.64,-407.2 15.64,-401.2 15.64,-401.2 15.64,-389.2 15.64,-389.2 15.64,-383.2 21.64,-377.2 27.64,-377.2 27.64,-377.2 116.36,-377.2 116.36,-377.2 122.36,-377.2 128.36,-383.2 128.36,-389.2 128.36,-389.2 128.36,-401.2 128.36,-401.2 128.36,-407.2 122.36,-413.2 116.36,-413.2"/>
<text xml:space="preserve" text-anchor="middle" x="72" y="-392.2" font-family="Helvetica,sans-Serif" font-size="10.00">IsSubGaussianVector</text>
</a>
</g>
</g>
<!-- n3 -->
<g id="node4" class="node">
<title>n3</title>
<g id="a_node4"><a xlink:href="vscode://vscode-remote/wsl+Ubuntu/home/ai4stat/statlib/Statlib/HighDim/Vocabulary/Sparse.lean:36" xlink:title="def · Statlib/HighDim/Vocabulary/Sparse.lean:36" target="_blank">
<path fill="#d6e9ff" stroke="#3b82f6" d="M2003.73,-340C2003.73,-340 1972.27,-340 1972.27,-340 1966.27,-340 1960.27,-334 1960.27,-328 1960.27,-328 1960.27,-316 1960.27,-316 1960.27,-310 1966.27,-304 1972.27,-304 1972.27,-304 2003.73,-304 2003.73,-304 2009.73,-304 2015.73,-310 2015.73,-316 2015.73,-316 2015.73,-328 2015.73,-328 2015.73,-334 2009.73,-340 2003.73,-340"/>
<text xml:space="preserve" text-anchor="middle" x="1988" y="-319" font-family="Helvetica,sans-Serif" font-size="10.00">IsSparse</text>
</a>
</g>
</g>
<!-- n4 -->
<g id="node5" class="node">
<title>n4</title>
<g id="a_node5"><a xlink:href="vscode://vscode-remote/wsl+Ubuntu/home/ai4stat/statlib/Statlib/HighDim/Vocabulary/Norms.lean:13" xlink:title="noncomputable def · Statlib/HighDim/Vocabulary/Norms.lean:13" target="_blank">
<path fill="#d6e9ff" stroke="#3b82f6" d="M1608.23,-52C1608.23,-52 1571.77,-52 1571.77,-52 1565.77,-52 1559.77,-46 1559.77,-40 1559.77,-40 1559.77,-28 1559.77,-28 1559.77,-22 1565.77,-16 1571.77,-16 1571.77,-16 1608.23,-16 1608.23,-16 1614.23,-16 1620.23,-22 1620.23,-28 1620.23,-28 1620.23,-40 1620.23,-40 1620.23,-46 1614.23,-52 1608.23,-52"/>
<text xml:space="preserve" text-anchor="middle" x="1590" y="-31" font-family="Helvetica,sans-Serif" font-size="10.00">l2NormSq</text>
</a>
</g>
</g>
<!-- n5 -->
<g id="node6" class="node">
<title>n5</title>
<g id="a_node6"><a xlink:href="vscode://vscode-remote/wsl+Ubuntu/home/ai4stat/statlib/Statlib/HighDim/Vocabulary/DesignMatrix.lean:62" xlink:title="def · Statlib/HighDim/Vocabulary/DesignMatrix.lean:62" target="_blank">
<path fill="#d6e9ff" stroke="#3b82f6" d="M1986.23,-413.2C1986.23,-413.2 1939.77,-413.2 1939.77,-413.2 1933.77,-413.2 1927.77,-407.2 1927.77,-401.2 1927.77,-401.2 1927.77,-389.2 1927.77,-389.2 1927.77,-383.2 1933.77,-377.2 1939.77,-377.2 1939.77,-377.2 1986.23,-377.2 1986.23,-377.2 1992.23,-377.2 1998.23,-383.2 1998.23,-389.2 1998.23,-389.2 1998.23,-401.2 1998.23,-401.2 1998.23,-407.2 1992.23,-413.2 1986.23,-413.2"/>
<text xml:space="preserve" text-anchor="middle" x="1963" y="-392.2" font-family="Helvetica,sans-Serif" font-size="10.00">SatisfiesRIP</text>
</a>
</g>
</g>
<!-- n5&#45;&gt;n3 -->
<g id="edge2" class="edge">
<title>n5&#45;&gt;n3</title>
<path fill="none" stroke="#64748b" d="M1969.05,-376.96C1972.09,-368.31 1975.83,-357.65 1979.19,-348.1"/>
<polygon fill="#64748b" stroke="#64748b" points="1981.5,-348.92 1981.5,-341.5 1976.87,-347.3 1981.5,-348.92"/>
</g>
<!-- n5&#45;&gt;n4 -->
<g id="edge3" class="edge">
<title>n5&#45;&gt;n4</title>
<path fill="none" stroke="#64748b" d="M1998.61,-380.27C2012.16,-374.9 2024.51,-369.87 2025,-369.2 2056.31,-326.79 2035,-303.72 2035,-251 2035,-251 2035,-251 2035,-177 2035,-120.43 1994.66,-113.19 1944,-88 1889.17,-60.74 1708.98,-44.04 1628.92,-37.8"/>
<polygon fill="#64748b" stroke="#64748b" points="1629.26,-35.37 1622.09,-37.27 1628.88,-40.25 1629.26,-35.37"/>
</g>
<!-- n6 -->
<g id="node7" class="node">
<title>n6</title>
<g id="a_node7"><a xlink:href="vscode://vscode-remote/wsl+Ubuntu/home/ai4stat/statlib/Statlib/HighDim/Vocabulary/Norms.lean:32" xlink:title="lemma · Statlib/HighDim/Vocabulary/Norms.lean:32" target="_blank">
<path fill="#eef2f6" stroke="#94a3b8" d="M1183.69,-196C1183.69,-196 1128.31,-196 1128.31,-196 1122.31,-196 1116.31,-190 1116.31,-184 1116.31,-184 1116.31,-172 1116.31,-172 1116.31,-166 1122.31,-160 1128.31,-160 1128.31,-160 1183.69,-160 1183.69,-160 1189.69,-160 1195.69,-166 1195.69,-172 1195.69,-172 1195.69,-184 1195.69,-184 1195.69,-190 1189.69,-196 1183.69,-196"/>
<text xml:space="preserve" text-anchor="middle" x="1156" y="-175" font-family="Helvetica,sans-Serif" font-size="10.00">inner_eq_sum</text>
</a>
</g>
</g>
<!-- n9 -->
<g id="node8" class="node">
<title>n9</title>
<g id="a_node8"><a xlink:href="vscode://vscode-remote/wsl+Ubuntu/home/ai4stat/statlib/Statlib/HighDim/Vocabulary/Norms.lean:21" xlink:title="lemma · Statlib/HighDim/Vocabulary/Norms.lean:21" target="_blank">
<path fill="#eef2f6" stroke="#94a3b8" d="M1005.64,-124C1005.64,-124 926.36,-124 926.36,-124 920.36,-124 914.36,-118 914.36,-112 914.36,-112 914.36,-100 914.36,-100 914.36,-94 920.36,-88 926.36,-88 926.36,-88 1005.64,-88 1005.64,-88 1011.64,-88 1017.64,-94 1017.64,-100 1017.64,-100 1017.64,-112 1017.64,-112 1017.64,-118 1011.64,-124 1005.64,-124"/>
<text xml:space="preserve" text-anchor="middle" x="966" y="-103" font-family="Helvetica,sans-Serif" font-size="10.00">euclidean_norm_sq</text>
</a>
</g>
</g>
<!-- n9&#45;&gt;n4 -->
<g id="edge4" class="edge">
<title>n9&#45;&gt;n4</title>
<path fill="none" stroke="#64748b" d="M1018.13,-99.15C1140.33,-85.44 1443.09,-51.48 1551.01,-39.37"/>
<polygon fill="#64748b" stroke="#64748b" points="1551.16,-41.82 1557.84,-38.61 1550.61,-36.95 1551.16,-41.82"/>
</g>
<!-- n11 -->
<g id="node9" class="node">
<title>n11</title>
<g id="a_node9"><a xlink:href="vscode://vscode-remote/wsl+Ubuntu/home/ai4stat/statlib/Statlib/HighDim/CovarianceMatrix/SampleCovariance.lean:393" xlink:title="lemma · Statlib/HighDim/CovarianceMatrix/SampleCovariance.lean:393" target="_blank">
<path fill="#eef2f6" stroke="#94a3b8" d="M2216.22,-340C2216.22,-340 2065.78,-340 2065.78,-340 2059.78,-340 2053.78,-334 2053.78,-328 2053.78,-328 2053.78,-316 2053.78,-316 2053.78,-310 2059.78,-304 2065.78,-304 2065.78,-304 2216.22,-304 2216.22,-304 2222.22,-304 2228.22,-310 2228.22,-316 2228.22,-316 2228.22,-328 2228.22,-328 2228.22,-334 2222.22,-340 2216.22,-340"/>
<text xml:space="preserve" text-anchor="middle" x="2141" y="-319" font-family="Helvetica,sans-Serif" font-size="10.00">scalar_sq_centered_exp_integrable</text>
</a>
</g>
</g>
<!-- n18 -->
<g id="node10" class="node">
<title>n18</title>
<g id="a_node10"><a xlink:href="vscode://vscode-remote/wsl+Ubuntu/home/ai4stat/statlib/Statlib/HighDim/CovarianceMatrix/SampleCovariance.lean:451" xlink:title="lemma · Statlib/HighDim/CovarianceMatrix/SampleCovariance.lean:451" target="_blank">
<path fill="#eef2f6" stroke="#94a3b8" d="M2216.12,-413.2C2216.12,-413.2 2027.88,-413.2 2027.88,-413.2 2021.88,-413.2 2015.88,-407.2 2015.88,-401.2 2015.88,-401.2 2015.88,-389.2 2015.88,-389.2 2015.88,-383.2 2021.88,-377.2 2027.88,-377.2 2027.88,-377.2 2216.12,-377.2 2216.12,-377.2 2222.12,-377.2 2228.12,-383.2 2228.12,-389.2 2228.12,-389.2 2228.12,-401.2 2228.12,-401.2 2228.12,-407.2 2222.12,-413.2 2216.12,-413.2"/>
<text xml:space="preserve" text-anchor="middle" x="2122" y="-392.2" font-family="Helvetica,sans-Serif" font-size="10.00">scalar_sq_centered_subexponential_explicit</text>
</a>
</g>
</g>
<!-- n18&#45;&gt;n11 -->
<g id="edge11" class="edge">
<title>n18&#45;&gt;n11</title>
<path fill="none" stroke="#64748b" d="M2126.6,-376.96C2128.91,-368.31 2131.75,-357.65 2134.3,-348.1"/>
<polygon fill="#64748b" stroke="#64748b" points="2136.62,-348.93 2136.05,-341.54 2131.88,-347.67 2136.62,-348.93"/>
</g>
<!-- n17 -->
<g id="node50" class="node">
<title>n17</title>
<g id="a_node50"><a xlink:href="vscode://vscode-remote/wsl+Ubuntu/home/ai4stat/statlib/Statlib/StatFoundation/RandomVariable/SubExponential/subexp_mgf_le_of_sq_subgaussian.lean:72" xlink:title="theorem · Statlib/StatFoundation/RandomVariable/SubExponential/subexp_mgf_le_of_sq_subgaussian.lean:72" target="_blank">
<path fill="#ffe6a3" stroke="#d4a017" d="M2451.84,-340C2451.84,-340 2264.16,-340 2264.16,-340 2258.16,-340 2252.16,-334 2252.16,-328 2252.16,-328 2252.16,-316 2252.16,-316 2252.16,-310 2258.16,-304 2264.16,-304 2264.16,-304 2451.84,-304 2451.84,-304 2457.84,-304 2463.84,-310 2463.84,-316 2463.84,-316 2463.84,-328 2463.84,-328 2463.84,-334 2457.84,-340 2451.84,-340"/>
<text xml:space="preserve" text-anchor="middle" x="2358" y="-319" font-family="Helvetica,sans-Serif" font-size="10.00">subexp_mgf_le_of_sq_subgaussian_explicit</text>
</a>
</g>
</g>
<!-- n18&#45;&gt;n17 -->
<g id="edge12" class="edge">
<title>n18&#45;&gt;n17</title>
<path fill="none" stroke="#64748b" d="M2211.95,-376.76C2221.47,-374.43 2230.97,-371.9 2240,-369.2 2263.65,-362.12 2289.24,-352.37 2310.53,-343.65"/>
<polygon fill="#64748b" stroke="#64748b" points="2311.23,-346.01 2316.76,-341.07 2309.36,-341.48 2311.23,-346.01"/>
</g>
<!-- n20 -->
<g id="node11" class="node">
<title>n20</title>
<g id="a_node11"><a xlink:href="vscode://vscode-remote/wsl+Ubuntu/home/ai4stat/statlib/Statlib/HighDim/Geometry/CoveringNumbers.lean:42" xlink:title="theorem · Statlib/HighDim/Geometry/CoveringNumbers.lean:42" target="_blank">
<path fill="#ffe6a3" stroke="#d4a017" d="M1910.38,-340C1910.38,-340 1771.62,-340 1771.62,-340 1765.62,-340 1759.62,-334 1759.62,-328 1759.62,-328 1759.62,-316 1759.62,-316 1759.62,-310 1765.62,-304 1771.62,-304 1771.62,-304 1910.38,-304 1910.38,-304 1916.38,-304 1922.38,-310 1922.38,-316 1922.38,-316 1922.38,-328 1922.38,-328 1922.38,-334 1916.38,-340 1910.38,-340"/>
<text xml:space="preserve" text-anchor="middle" x="1841" y="-319" font-family="Helvetica,sans-Serif" font-size="10.00">covering_number_euclidean_ball</text>
</a>
</g>
</g>
<!-- n21 -->
<g id="node12" class="node">
<title>n21</title>
<g id="a_node12"><a xlink:href="vscode://vscode-remote/wsl+Ubuntu/home/ai4stat/statlib/Statlib/HighDim/Vocabulary/Norms.lean:27" xlink:title="lemma · Statlib/HighDim/Vocabulary/Norms.lean:27" target="_blank">
<path fill="#eef2f6" stroke="#94a3b8" d="M1076.92,-196C1076.92,-196 997.08,-196 997.08,-196 991.08,-196 985.08,-190 985.08,-184 985.08,-184 985.08,-172 985.08,-172 985.08,-166 991.08,-160 997.08,-160 997.08,-160 1076.92,-160 1076.92,-160 1082.92,-160 1088.92,-166 1088.92,-172 1088.92,-172 1088.92,-184 1088.92,-184 1088.92,-190 1082.92,-196 1076.92,-196"/>
<text xml:space="preserve" text-anchor="middle" x="1037" y="-175" font-family="Helvetica,sans-Serif" font-size="10.00">euclidean_norm_eq</text>
</a>
</g>
</g>
<!-- n21&#45;&gt;n4 -->
<g id="edge14" class="edge">
<title>n21&#45;&gt;n4</title>
<path fill="none" stroke="#64748b" d="M1083.86,-159.56C1091.55,-156.91 1099.47,-154.29 1107,-152 1269.85,-102.53 1468.53,-59.83 1551.11,-42.84"/>
<polygon fill="#64748b" stroke="#64748b" points="1551.59,-45.24 1557.96,-41.43 1550.61,-40.44 1551.59,-45.24"/>
</g>
<!-- n21&#45;&gt;n9 -->
<g id="edge15" class="edge">
<title>n21&#45;&gt;n9</title>
<path fill="none" stroke="#64748b" d="M1019.45,-159.7C1010.34,-150.71 999.08,-139.61 989.25,-129.92"/>
<polygon fill="#64748b" stroke="#64748b" points="991.13,-128.34 984.43,-125.17 987.69,-131.83 991.13,-128.34"/>
</g>
<!-- n22 -->
<g id="node13" class="node">
<title>n22</title>
<g id="a_node13"><a xlink:href="vscode://vscode-remote/wsl+Ubuntu/home/ai4stat/statlib/Statlib/HighDim/Geometry/CoveringNumbers.lean:405" xlink:title="theorem · Statlib/HighDim/Geometry/CoveringNumbers.lean:405" target="_blank">
<path fill="#ffe6a3" stroke="#d4a017" d="M1698.98,-413.2C1698.98,-413.2 1573.02,-413.2 1573.02,-413.2 1567.02,-413.2 1561.02,-407.2 1561.02,-401.2 1561.02,-401.2 1561.02,-389.2 1561.02,-389.2 1561.02,-383.2 1567.02,-377.2 1573.02,-377.2 1573.02,-377.2 1698.98,-377.2 1698.98,-377.2 1704.98,-377.2 1710.98,-383.2 1710.98,-389.2 1710.98,-389.2 1710.98,-401.2 1710.98,-401.2 1710.98,-407.2 1704.98,-413.2 1698.98,-413.2"/>
<text xml:space="preserve" text-anchor="middle" x="1636" y="-392.2" font-family="Helvetica,sans-Serif" font-size="10.00">covering_number_sparse_ball</text>
</a>
</g>
</g>
<!-- n22&#45;&gt;n3 -->
<g id="edge16" class="edge">
<title>n22&#45;&gt;n3</title>
<path fill="none" stroke="#64748b" d="M1711.46,-378.32C1714.34,-377.91 1717.19,-377.53 1720,-377.2 1744.95,-374.25 1923.2,-379.77 1946,-369.2 1956.4,-364.38 1965.37,-355.66 1972.32,-347.08"/>
<polygon fill="#64748b" stroke="#64748b" points="1974.26,-348.58 1976.54,-341.52 1970.36,-345.62 1974.26,-348.58"/>
</g>
<!-- n22&#45;&gt;n4 -->
<g id="edge18" class="edge">
<title>n22&#45;&gt;n4</title>
<path fill="none" stroke="#64748b" d="M1711.46,-378.33C1714.34,-377.91 1717.19,-377.54 1720,-377.2 1731.65,-375.81 1922.51,-377.3 1931,-369.2 1969.14,-332.8 1941,-303.72 1941,-251 1941,-251 1941,-251 1941,-177 1941,-137.2 1958.54,-116.73 1931,-88 1890.1,-45.33 1709.68,-36.95 1629.1,-35.35"/>
<polygon fill="#64748b" stroke="#64748b" points="1629.26,-32.9 1622.21,-35.23 1629.17,-37.8 1629.26,-32.9"/>
</g>
<!-- n22&#45;&gt;n20 -->
<g id="edge17" class="edge">
<title>n22&#45;&gt;n20</title>
<path fill="none" stroke="#64748b" d="M1711.42,-378.36C1725.93,-375 1738.84,-371.72 1746,-369.2 1765.06,-362.5 1785.3,-353.02 1802.18,-344.38"/>
<polygon fill="#64748b" stroke="#64748b" points="1803.25,-346.58 1808.34,-341.18 1801,-342.23 1803.25,-346.58"/>
</g>
<!-- n22&#45;&gt;n21 -->
<g id="edge19" class="edge">
<title>n22&#45;&gt;n21</title>
<path fill="none" stroke="#64748b" d="M1560.65,-383.81C1538.57,-381.17 1514.36,-378.67 1492,-377.2 1483.75,-376.66 902.8,-375.08 897,-369.2 876.65,-348.57 881.63,-328.57 897,-304 916.4,-272.99 943.22,-291.79 971,-268 985.79,-255.33 984.48,-247.71 996,-232 1003.02,-222.43 1010.95,-212.07 1017.96,-203.07"/>
<polygon fill="#64748b" stroke="#64748b" points="1019.79,-204.71 1022.17,-197.69 1015.93,-201.69 1019.79,-204.71"/>
</g>
<!-- n23 -->
<g id="node14" class="node">
<title>n23</title>
<g id="a_node14"><a xlink:href="vscode://vscode-remote/wsl+Ubuntu/home/ai4stat/statlib/Statlib/HighDim/Geometry/RIPConstruction.lean:217" xlink:title="lemma · Statlib/HighDim/Geometry/RIPConstruction.lean:217" target="_blank">
<path fill="#eef2f6" stroke="#94a3b8" d="M351.57,-413.2C351.57,-413.2 278.43,-413.2 278.43,-413.2 272.43,-413.2 266.43,-407.2 266.43,-401.2 266.43,-401.2 266.43,-389.2 266.43,-389.2 266.43,-383.2 272.43,-377.2 278.43,-377.2 278.43,-377.2 351.57,-377.2 351.57,-377.2 357.57,-377.2 363.57,-383.2 363.57,-389.2 363.57,-389.2 363.57,-401.2 363.57,-401.2 363.57,-407.2 357.57,-413.2 351.57,-413.2"/>
<text xml:space="preserve" text-anchor="middle" x="315" y="-392.2" font-family="Helvetica,sans-Serif" font-size="10.00">mulVec_smul_vec</text>
</a>
</g>
</g>
<!-- n24 -->
<g id="node15" class="node">
<title>n24</title>
<g id="a_node15"><a xlink:href="vscode://vscode-remote/wsl+Ubuntu/home/ai4stat/statlib/Statlib/HighDim/Geometry/RIPConstruction.lean:209" xlink:title="lemma · Statlib/HighDim/Geometry/RIPConstruction.lean:209" target="_blank">
<path fill="#eef2f6" stroke="#94a3b8" d="M1909.57,-124C1909.57,-124 1846.43,-124 1846.43,-124 1840.43,-124 1834.43,-118 1834.43,-112 1834.43,-112 1834.43,-100 1834.43,-100 1834.43,-94 1840.43,-88 1846.43,-88 1846.43,-88 1909.57,-88 1909.57,-88 1915.57,-88 1921.57,-94 1921.57,-100 1921.57,-100 1921.57,-112 1921.57,-112 1921.57,-118 1915.57,-124 1909.57,-124"/>
<text xml:space="preserve" text-anchor="middle" x="1878" y="-103" font-family="Helvetica,sans-Serif" font-size="10.00">l2NormSq_smul</text>
</a>
</g>
</g>
<!-- n24&#45;&gt;n4 -->
<g id="edge20" class="edge">
<title>n24&#45;&gt;n4</title>
<path fill="none" stroke="#64748b" d="M1834.06,-91.83C1829.32,-90.49 1824.57,-89.19 1820,-88 1753.2,-70.53 1674.68,-53.09 1628.82,-43.22"/>
<polygon fill="#64748b" stroke="#64748b" points="1629.49,-40.85 1622.13,-41.78 1628.46,-45.65 1629.49,-40.85"/>
</g>
<!-- n25 -->
<g id="node16" class="node">
<title>n25</title>
<g id="a_node16"><a xlink:href="vscode://vscode-remote/wsl+Ubuntu/home/ai4stat/statlib/Statlib/HighDim/CovarianceMatrix/SampleCovariance.lean:190" xlink:title="noncomputable def · Statlib/HighDim/CovarianceMatrix/SampleCovariance.lean:190" target="_blank">
<path fill="#d6e9ff" stroke="#3b82f6" d="M620.14,-268C620.14,-268 525.86,-268 525.86,-268 519.86,-268 513.86,-262 513.86,-256 513.86,-256 513.86,-244 513.86,-244 513.86,-238 519.86,-232 525.86,-232 525.86,-232 620.14,-232 620.14,-232 626.14,-232 632.14,-238 632.14,-244 632.14,-244 632.14,-256 632.14,-256 632.14,-262 626.14,-268 620.14,-268"/>
<text xml:space="preserve" text-anchor="middle" x="573" y="-247" font-family="Helvetica,sans-Serif" font-size="10.00">sampleSecondMoment</text>
</a>
</g>
</g>
<!-- n26 -->
<g id="node17" class="node">
<title>n26</title>
<g id="a_node17"><a xlink:href="vscode://vscode-remote/wsl+Ubuntu/home/ai4stat/statlib/Statlib/HighDim/Vocabulary/Restrictions.lean:15" xlink:title="def · Statlib/HighDim/Vocabulary/Restrictions.lean:15" target="_blank">
<path fill="#d6e9ff" stroke="#3b82f6" d="M444.34,-196C444.34,-196 385.66,-196 385.66,-196 379.66,-196 373.66,-190 373.66,-184 373.66,-184 373.66,-172 373.66,-172 373.66,-166 379.66,-160 385.66,-160 385.66,-160 444.34,-160 444.34,-160 450.34,-160 456.34,-166 456.34,-172 456.34,-172 456.34,-184 456.34,-184 456.34,-190 450.34,-196 444.34,-196"/>
<text xml:space="preserve" text-anchor="middle" x="415" y="-175" font-family="Helvetica,sans-Serif" font-size="10.00">restrictByEquiv</text>
</a>
</g>
</g>
<!-- n27 -->
<g id="node18" class="node">
<title>n27</title>
<g id="a_node18"><a xlink:href="vscode://vscode-remote/wsl+Ubuntu/home/ai4stat/statlib/Statlib/HighDim/Vocabulary/Restrictions.lean:20" xlink:title="def · Statlib/HighDim/Vocabulary/Restrictions.lean:20" target="_blank">
<path fill="#d6e9ff" stroke="#3b82f6" d="M680.35,-124C680.35,-124 621.65,-124 621.65,-124 615.65,-124 609.65,-118 609.65,-112 609.65,-112 609.65,-100 609.65,-100 609.65,-94 615.65,-88 621.65,-88 621.65,-88 680.35,-88 680.35,-88 686.35,-88 692.35,-94 692.35,-100 692.35,-100 692.35,-112 692.35,-112 692.35,-118 686.35,-124 680.35,-124"/>
<text xml:space="preserve" text-anchor="middle" x="651" y="-103" font-family="Helvetica,sans-Serif" font-size="10.00">extendByEquiv</text>
</a>
</g>
</g>
<!-- n28 -->
<g id="node19" class="node">
<title>n28</title>
<g id="a_node19"><a xlink:href="vscode://vscode-remote/wsl+Ubuntu/home/ai4stat/statlib/Statlib/HighDim/Geometry/RIPConstruction.lean:368" xlink:title="lemma · Statlib/HighDim/Geometry/RIPConstruction.lean:368" target="_blank">
<path fill="#eef2f6" stroke="#94a3b8" d="M830.36,-196C830.36,-196 721.64,-196 721.64,-196 715.64,-196 709.64,-190 709.64,-184 709.64,-184 709.64,-172 709.64,-172 709.64,-166 715.64,-160 721.64,-160 721.64,-160 830.36,-160 830.36,-160 836.36,-160 842.36,-166 842.36,-172 842.36,-172 842.36,-184 842.36,-184 842.36,-190 836.36,-196 830.36,-196"/>
<text xml:space="preserve" text-anchor="middle" x="776" y="-175" font-family="Helvetica,sans-Serif" font-size="10.00">extendByEquiv_l2NormSq</text>
</a>
</g>
</g>
<!-- n28&#45;&gt;n4 -->
<g id="edge21" class="edge">
<title>n28&#45;&gt;n4</title>
<path fill="none" stroke="#64748b" d="M794.3,-159.59C817.82,-138.43 860.89,-103.63 905,-88 1025.48,-45.3 1424.36,-36.95 1551.03,-35.36"/>
<polygon fill="#64748b" stroke="#64748b" points="1550.84,-37.81 1557.81,-35.28 1550.78,-32.91 1550.84,-37.81"/>
</g>
<!-- n28&#45;&gt;n27 -->
<g id="edge22" class="edge">
<title>n28&#45;&gt;n27</title>
<path fill="none" stroke="#64748b" d="M744.78,-159.52C727.95,-150.09 707.04,-138.38 689.24,-128.41"/>
<polygon fill="#64748b" stroke="#64748b" points="690.45,-126.28 683.14,-125 688.05,-130.56 690.45,-126.28"/>
</g>
<!-- n29 -->
<g id="node20" class="node">
<title>n29</title>
<g id="a_node20"><a xlink:href="vscode://vscode-remote/wsl+Ubuntu/home/ai4stat/statlib/Statlib/HighDim/Geometry/RIPConstruction.lean:398" xlink:title="lemma · Statlib/HighDim/Geometry/RIPConstruction.lean:398" target="_blank">
<path fill="#eef2f6" stroke="#94a3b8" d="M769.53,-268C769.53,-268 682.47,-268 682.47,-268 676.47,-268 670.47,-262 670.47,-256 670.47,-256 670.47,-244 670.47,-244 670.47,-238 676.47,-232 682.47,-232 682.47,-232 769.53,-232 769.53,-232 775.53,-232 781.53,-238 781.53,-244 781.53,-244 781.53,-256 781.53,-256 781.53,-262 775.53,-268 769.53,-268"/>
<text xml:space="preserve" text-anchor="middle" x="726" y="-247" font-family="Helvetica,sans-Serif" font-size="10.00">extendByEquiv_norm</text>
</a>
</g>
</g>
<!-- n29&#45;&gt;n21 -->
<g id="edge24" class="edge">
<title>n29&#45;&gt;n21</title>
<path fill="none" stroke="#64748b" d="M781.81,-234.01C784.57,-233.32 787.32,-232.64 790,-232 853.43,-216.78 926.52,-201.36 976.64,-191.1"/>
<polygon fill="#64748b" stroke="#64748b" points="976.94,-193.54 983.31,-189.74 975.96,-188.74 976.94,-193.54"/>
</g>
<!-- n29&#45;&gt;n27 -->
<g id="edge23" class="edge">
<title>n29&#45;&gt;n27</title>
<path fill="none" stroke="#64748b" d="M711.02,-231.68C702.9,-221.71 693.1,-208.67 686,-196 674.53,-175.52 665.06,-150.53 658.87,-132.24"/>
<polygon fill="#64748b" stroke="#64748b" points="661.26,-131.67 656.74,-125.79 656.61,-133.21 661.26,-131.67"/>
</g>
<!-- n29&#45;&gt;n28 -->
<g id="edge25" class="edge">
<title>n29&#45;&gt;n28</title>
<path fill="none" stroke="#64748b" d="M738.36,-231.7C744.54,-223.05 752.11,-212.45 758.84,-203.03"/>
<polygon fill="#64748b" stroke="#64748b" points="760.83,-204.46 762.9,-197.34 756.84,-201.61 760.83,-204.46"/>
</g>
<!-- n30 -->
<g id="node21" class="node">
<title>n30</title>
<g id="a_node21"><a xlink:href="vscode://vscode-remote/wsl+Ubuntu/home/ai4stat/statlib/Statlib/HighDim/Geometry/RIPConstruction.lean:403" xlink:title="lemma · Statlib/HighDim/Geometry/RIPConstruction.lean:403" target="_blank">
<path fill="#eef2f6" stroke="#94a3b8" d="M383.89,-268C383.89,-268 200.11,-268 200.11,-268 194.11,-268 188.11,-262 188.11,-256 188.11,-256 188.11,-244 188.11,-244 188.11,-238 194.11,-232 200.11,-232 200.11,-232 383.89,-232 383.89,-232 389.89,-232 395.89,-238 395.89,-244 395.89,-244 395.89,-256 395.89,-256 395.89,-262 389.89,-268 383.89,-268"/>
<text xml:space="preserve" text-anchor="middle" x="292" y="-247" font-family="Helvetica,sans-Serif" font-size="10.00">extendByEquiv_restrictByEquiv_of_support</text>
</a>
</g>
</g>
<!-- n30&#45;&gt;n26 -->
<g id="edge27" class="edge">
<title>n30&#45;&gt;n26</title>
<path fill="none" stroke="#64748b" d="M322.72,-231.52C339.28,-222.09 359.86,-210.38 377.37,-200.41"/>
<polygon fill="#64748b" stroke="#64748b" points="378.48,-202.6 383.36,-197.01 376.06,-198.34 378.48,-202.6"/>
</g>
<!-- n30&#45;&gt;n27 -->
<g id="edge26" class="edge">
<title>n30&#45;&gt;n27</title>
<path fill="none" stroke="#64748b" d="M299.8,-231.72C310.88,-209.35 333.38,-170.99 365,-152 403.82,-128.69 529.67,-115.9 600.81,-110.37"/>
<polygon fill="#64748b" stroke="#64748b" points="600.9,-112.82 607.7,-109.85 600.53,-107.93 600.9,-112.82"/>
</g>
<!-- n31 -->
<g id="node22" class="node">
<title>n31</title>
<g id="a_node22"><a xlink:href="vscode://vscode-remote/wsl+Ubuntu/home/ai4stat/statlib/Statlib/HighDim/Geometry/RIPConstruction.lean:420" xlink:title="lemma · Statlib/HighDim/Geometry/RIPConstruction.lean:420" target="_blank">
<path fill="#eef2f6" stroke="#94a3b8" d="M497.92,-340C497.92,-340 358.08,-340 358.08,-340 352.08,-340 346.08,-334 346.08,-328 346.08,-328 346.08,-316 346.08,-316 346.08,-310 352.08,-304 358.08,-304 358.08,-304 497.92,-304 497.92,-304 503.92,-304 509.92,-310 509.92,-316 509.92,-316 509.92,-328 509.92,-328 509.92,-334 503.92,-340 497.92,-340"/>
<text xml:space="preserve" text-anchor="middle" x="428" y="-319" font-family="Helvetica,sans-Serif" font-size="10.00">restrictByEquiv_norm_of_support</text>
</a>
</g>
</g>
<!-- n31&#45;&gt;n26 -->
<g id="edge28" class="edge">
<title>n31&#45;&gt;n26</title>
<path fill="none" stroke="#64748b" d="M433.9,-303.78C439.25,-285.74 445.52,-256.65 440,-232 437.85,-222.42 433.78,-212.54 429.53,-203.94"/>
<polygon fill="#64748b" stroke="#64748b" points="431.73,-202.86 426.32,-197.79 427.38,-205.13 431.73,-202.86"/>
</g>
<!-- n31&#45;&gt;n29 -->
<g id="edge29" class="edge">
<title>n31&#45;&gt;n29</title>
<path fill="none" stroke="#64748b" d="M502.43,-303.52C551.54,-291.98 615.22,-277.02 662.05,-266.02"/>
<polygon fill="#64748b" stroke="#64748b" points="662.57,-268.42 668.82,-264.43 661.45,-263.65 662.57,-268.42"/>
</g>
<!-- n31&#45;&gt;n30 -->
<g id="edge30" class="edge">
<title>n31&#45;&gt;n30</title>
<path fill="none" stroke="#64748b" d="M394.03,-303.52C375.56,-294.01 352.57,-282.17 333.09,-272.15"/>
<polygon fill="#64748b" stroke="#64748b" points="334.23,-269.98 326.88,-268.95 331.98,-274.34 334.23,-269.98"/>
</g>
<!-- n32 -->
<g id="node23" class="node">
<title>n32</title>
<g id="a_node23"><a xlink:href="vscode://vscode-remote/wsl+Ubuntu/home/ai4stat/statlib/Statlib/HighDim/Geometry/RIPConstruction.lean:428" xlink:title="lemma · Statlib/HighDim/Geometry/RIPConstruction.lean:428" target="_blank">
<path fill="#eef2f6" stroke="#94a3b8" d="M566.31,-413.2C566.31,-413.2 433.69,-413.2 433.69,-413.2 427.69,-413.2 421.69,-407.2 421.69,-401.2 421.69,-401.2 421.69,-389.2 421.69,-389.2 421.69,-383.2 427.69,-377.2 433.69,-377.2 433.69,-377.2 566.31,-377.2 566.31,-377.2 572.31,-377.2 578.31,-383.2 578.31,-389.2 578.31,-389.2 578.31,-401.2 578.31,-401.2 578.31,-407.2 572.31,-413.2 566.31,-413.2"/>
<text xml:space="preserve" text-anchor="middle" x="500" y="-392.2" font-family="Helvetica,sans-Serif" font-size="10.00">restrictByEquiv_dist_of_support</text>
</a>
</g>
</g>
<!-- n32&#45;&gt;n26 -->
<g id="edge31" class="edge">
<title>n32&#45;&gt;n26</title>
<path fill="none" stroke="#64748b" d="M421.27,-379.27C416.78,-378.54 412.34,-377.84 408,-377.2 392.29,-374.87 347.58,-381.04 337,-369.2 317.69,-347.59 321.1,-328.23 337,-304 359.06,-270.38 397.94,-301.62 420,-268 432.28,-249.29 429.09,-223.32 423.99,-204.26"/>
<polygon fill="#64748b" stroke="#64748b" points="426.4,-203.78 422.07,-197.75 421.7,-205.16 426.4,-203.78"/>
</g>
<!-- n32&#45;&gt;n31 -->
<g id="edge32" class="edge">
<title>n32&#45;&gt;n31</title>
<path fill="none" stroke="#64748b" d="M482.57,-376.96C473.18,-367.68 461.46,-356.09 451.3,-346.04"/>
<polygon fill="#64748b" stroke="#64748b" points="453.29,-344.57 446.59,-341.39 449.85,-348.05 453.29,-344.57"/>
</g>
<!-- n33 -->
<g id="node24" class="node">
<title>n33</title>
<g id="a_node24"><a xlink:href="vscode://vscode-remote/wsl+Ubuntu/home/ai4stat/statlib/Statlib/HighDim/Geometry/RIPConstruction.lean:413" xlink:title="lemma · Statlib/HighDim/Geometry/RIPConstruction.lean:413" target="_blank">
<path fill="#eef2f6" stroke="#94a3b8" d="M158.48,-268C158.48,-268 27.52,-268 27.52,-268 21.52,-268 15.52,-262 15.52,-256 15.52,-256 15.52,-244 15.52,-244 15.52,-238 21.52,-232 27.52,-232 27.52,-232 158.48,-232 158.48,-232 164.48,-232 170.48,-238 170.48,-244 170.48,-244 170.48,-256 170.48,-256 170.48,-262 164.48,-268 158.48,-268"/>
<text xml:space="preserve" text-anchor="middle" x="93" y="-247" font-family="Helvetica,sans-Serif" font-size="10.00">restrictByEquiv_extendByEquiv</text>
</a>
</g>
</g>
<!-- n33&#45;&gt;n26 -->
<g id="edge33" class="edge">
<title>n33&#45;&gt;n26</title>
<path fill="none" stroke="#64748b" d="M170.95,-232.05C231.37,-218.92 313.28,-201.11 365.15,-189.84"/>
<polygon fill="#64748b" stroke="#64748b" points="365.4,-192.29 371.72,-188.41 364.36,-187.5 365.4,-192.29"/>
</g>
<!-- n33&#45;&gt;n27 -->
<g id="edge34" class="edge">
<title>n33&#45;&gt;n27</title>
<path fill="none" stroke="#64748b" d="M125.36,-231.6C168.01,-209.47 245.96,-171.76 317,-152 415.52,-124.6 535.2,-113.64 601.22,-109.44"/>
<polygon fill="#64748b" stroke="#64748b" points="601.04,-111.91 607.88,-109.03 600.74,-107.01 601.04,-111.91"/>
</g>
<!-- n34 -->
<g id="node25" class="node">
<title>n34</title>
<g id="a_node25"><a xlink:href="vscode://vscode-remote/wsl+Ubuntu/home/ai4stat/statlib/Statlib/HighDim/CovarianceMatrix/SampleCovariance.lean:196" xlink:title="lemma · Statlib/HighDim/CovarianceMatrix/SampleCovariance.lean:196" target="_blank">
<path fill="#eef2f6" stroke="#94a3b8" d="M735.69,-340C735.69,-340 600.31,-340 600.31,-340 594.31,-340 588.31,-334 588.31,-328 588.31,-328 588.31,-316 588.31,-316 588.31,-310 594.31,-304 600.31,-304 600.31,-304 735.69,-304 735.69,-304 741.69,-304 747.69,-310 747.69,-316 747.69,-316 747.69,-328 747.69,-328 747.69,-334 741.69,-340 735.69,-340"/>
<text xml:space="preserve" text-anchor="middle" x="668" y="-319" font-family="Helvetica,sans-Serif" font-size="10.00">sampleSecondMoment_isSymm</text>
</a>
</g>
</g>
<!-- n34&#45;&gt;n25 -->
<g id="edge35" class="edge">
<title>n34&#45;&gt;n25</title>
<path fill="none" stroke="#64748b" d="M644.52,-303.7C632.07,-294.53 616.64,-283.16 603.3,-273.33"/>
<polygon fill="#64748b" stroke="#64748b" points="604.85,-271.42 597.76,-269.24 601.94,-275.37 604.85,-271.42"/>
</g>
<!-- n35 -->
<g id="node26" class="node">
<title>n35</title>
<g id="a_node26"><a xlink:href="vscode://vscode-remote/wsl+Ubuntu/home/ai4stat/statlib/Statlib/HighDim/CovarianceMatrix/SampleCovariance.lean:178" xlink:title="lemma · Statlib/HighDim/CovarianceMatrix/SampleCovariance.lean:178" target="_blank">
<path fill="#eef2f6" stroke="#94a3b8" d="M787.63,-413.2C787.63,-413.2 668.37,-413.2 668.37,-413.2 662.37,-413.2 656.37,-407.2 656.37,-401.2 656.37,-401.2 656.37,-389.2 656.37,-389.2 656.37,-383.2 662.37,-377.2 668.37,-377.2 668.37,-377.2 787.63,-377.2 787.63,-377.2 793.63,-377.2 799.63,-383.2 799.63,-389.2 799.63,-389.2 799.63,-401.2 799.63,-401.2 799.63,-407.2 793.63,-413.2 787.63,-413.2"/>
<text xml:space="preserve" text-anchor="middle" x="728" y="-392.2" font-family="Helvetica,sans-Serif" font-size="10.00">real_isHermitian_of_isSymm</text>
</a>
</g>
</g>
<!-- n36 -->
<g id="node27" class="node">
<title>n36</title>
<g id="a_node27"><a xlink:href="vscode://vscode-remote/wsl+Ubuntu/home/ai4stat/statlib/Statlib/HighDim/Vocabulary/Norms.lean:41" xlink:title="noncomputable def · Statlib/HighDim/Vocabulary/Norms.lean:41" target="_blank">
<path fill="#d6e9ff" stroke="#3b82f6" d="M1789.13,-196C1789.13,-196 1744.87,-196 1744.87,-196 1738.87,-196 1732.87,-190 1732.87,-184 1732.87,-184 1732.87,-172 1732.87,-172 1732.87,-166 1738.87,-160 1744.87,-160 1744.87,-160 1789.13,-160 1789.13,-160 1795.13,-160 1801.13,-166 1801.13,-172 1801.13,-172 1801.13,-184 1801.13,-184 1801.13,-190 1795.13,-196 1789.13,-196"/>
<text xml:space="preserve" text-anchor="middle" x="1767" y="-175" font-family="Helvetica,sans-Serif" font-size="10.00">toEuclidean</text>
</a>
</g>
</g>
<!-- n37 -->
<g id="node28" class="node">
<title>n37</title>
<g id="a_node28"><a xlink:href="vscode://vscode-remote/wsl+Ubuntu/home/ai4stat/statlib/Statlib/HighDim/CovarianceMatrix/SampleCovariance.lean:38" xlink:title="lemma · Statlib/HighDim/CovarianceMatrix/SampleCovariance.lean:38" target="_blank">
<path fill="#eef2f6" stroke="#94a3b8" d="M1577.23,-268C1577.23,-268 1396.77,-268 1396.77,-268 1390.77,-268 1384.77,-262 1384.77,-256 1384.77,-256 1384.77,-244 1384.77,-244 1384.77,-238 1390.77,-232 1396.77,-232 1396.77,-232 1577.23,-232 1577.23,-232 1583.23,-232 1589.23,-238 1589.23,-244 1589.23,-244 1589.23,-256 1589.23,-256 1589.23,-262 1583.23,-268 1577.23,-268"/>
<text xml:space="preserve" text-anchor="middle" x="1487" y="-247" font-family="Helvetica,sans-Serif" font-size="10.00">hermitian_norm_eq_diagonal_eigenvalues</text>
</a>
</g>
</g>
<!-- n38 -->
<g id="node29" class="node">
<title>n38</title>
<g id="a_node29"><a xlink:href="vscode://vscode-remote/wsl+Ubuntu/home/ai4stat/statlib/Statlib/HighDim/CovarianceMatrix/SampleCovariance.lean:58" xlink:title="lemma · Statlib/HighDim/CovarianceMatrix/SampleCovariance.lean:58" target="_blank">
<path fill="#eef2f6" stroke="#94a3b8" d="M1729.21,-268C1729.21,-268 1618.79,-268 1618.79,-268 1612.79,-268 1606.79,-262 1606.79,-256 1606.79,-256 1606.79,-244 1606.79,-244 1606.79,-238 1612.79,-232 1618.79,-232 1618.79,-232 1729.21,-232 1729.21,-232 1735.21,-232 1741.21,-238 1741.21,-244 1741.21,-244 1741.21,-256 1741.21,-256 1741.21,-262 1735.21,-268 1729.21,-268"/>
<text xml:space="preserve" text-anchor="middle" x="1674" y="-247" font-family="Helvetica,sans-Serif" font-size="10.00">pi_real_norm_eq_sup_abs</text>
</a>
</g>
</g>
<!-- n39 -->
<g id="node30" class="node">
<title>n39</title>
<g id="a_node30"><a xlink:href="vscode://vscode-remote/wsl+Ubuntu/home/ai4stat/statlib/Statlib/HighDim/CovarianceMatrix/SampleCovariance.lean:68" xlink:title="lemma · Statlib/HighDim/CovarianceMatrix/SampleCovariance.lean:68" target="_blank">
<path fill="#eef2f6" stroke="#94a3b8" d="M1452.23,-340C1452.23,-340 1271.77,-340 1271.77,-340 1265.77,-340 1259.77,-334 1259.77,-328 1259.77,-328 1259.77,-316 1259.77,-316 1259.77,-310 1265.77,-304 1271.77,-304 1271.77,-304 1452.23,-304 1452.23,-304 1458.23,-304 1464.23,-310 1464.23,-316 1464.23,-316 1464.23,-328 1464.23,-328 1464.23,-334 1458.23,-340 1452.23,-340"/>
<text xml:space="preserve" text-anchor="middle" x="1362" y="-319" font-family="Helvetica,sans-Serif" font-size="10.00">hermitian_norm_eq_sup_abs_eigenvalues</text>
</a>
</g>
</g>
<!-- n39&#45;&gt;n37 -->
<g id="edge36" class="edge">
<title>n39&#45;&gt;n37</title>
<path fill="none" stroke="#64748b" d="M1393.22,-303.52C1410.05,-294.09 1430.96,-282.38 1448.76,-272.41"/>
<polygon fill="#64748b" stroke="#64748b" points="1449.95,-274.56 1454.86,-269 1447.55,-270.28 1449.95,-274.56"/>
</g>
<!-- n39&#45;&gt;n38 -->
<g id="edge37" class="edge">
<title>n39&#45;&gt;n38</title>
<path fill="none" stroke="#64748b" d="M1439.93,-303.52C1488.3,-292.66 1550.16,-278.78 1598.14,-268.02"/>
<polygon fill="#64748b" stroke="#64748b" points="1598.55,-270.44 1604.85,-266.52 1597.48,-265.66 1598.55,-270.44"/>
</g>
<!-- n40 -->
<g id="node31" class="node">
<title>n40</title>
<g id="a_node31"><a xlink:href="vscode://vscode-remote/wsl+Ubuntu/home/ai4stat/statlib/Statlib/HighDim/CovarianceMatrix/SampleCovariance.lean:77" xlink:title="lemma · Statlib/HighDim/CovarianceMatrix/SampleCovariance.lean:77" target="_blank">
<path fill="#eef2f6" stroke="#94a3b8" d="M1253.54,-413.2C1253.54,-413.2 1116.46,-413.2 1116.46,-413.2 1110.46,-413.2 1104.46,-407.2 1104.46,-401.2 1104.46,-401.2 1104.46,-389.2 1104.46,-389.2 1104.46,-383.2 1110.46,-377.2 1116.46,-377.2 1116.46,-377.2 1253.54,-377.2 1253.54,-377.2 1259.54,-377.2 1265.54,-383.2 1265.54,-389.2 1265.54,-389.2 1265.54,-401.2 1265.54,-401.2 1265.54,-407.2 1259.54,-413.2 1253.54,-413.2"/>
<text xml:space="preserve" text-anchor="middle" x="1185" y="-392.2" font-family="Helvetica,sans-Serif" font-size="10.00">hermitian_norm_le_two_net_sup</text>
</a>
</g>
</g>
<!-- n40&#45;&gt;n36 -->
<g id="edge38" class="edge">
<title>n40&#45;&gt;n36</title>
<path fill="none" stroke="#64748b" d="M1265.93,-378.2C1268.65,-377.84 1271.34,-377.5 1274,-377.2 1285.82,-375.86 1478.32,-376.12 1488,-369.2 1513.24,-351.14 1488.74,-323.35 1513,-304 1601.45,-233.45 1689.92,-352.63 1765,-268 1780.01,-251.08 1778.51,-224.42 1774.48,-204.69"/>
<polygon fill="#64748b" stroke="#64748b" points="1776.87,-204.17 1772.9,-197.91 1772.1,-205.28 1776.87,-204.17"/>
</g>
<!-- n40&#45;&gt;n39 -->
<g id="edge39" class="edge">
<title>n40&#45;&gt;n39</title>
<path fill="none" stroke="#64748b" d="M1228.3,-376.78C1253.26,-366.74 1284.79,-354.06 1310.95,-343.53"/>
<polygon fill="#64748b" stroke="#64748b" points="1311.55,-345.93 1317.13,-341.05 1309.72,-341.39 1311.55,-345.93"/>
</g>
<!-- n41 -->
<g id="node32" class="node">
<title>n41</title>
<g id="a_node32"><a xlink:href="vscode://vscode-remote/wsl+Ubuntu/home/ai4stat/statlib/Statlib/HighDim/CovarianceMatrix/SampleCovariance.lean:315" xlink:title="lemma · Statlib/HighDim/CovarianceMatrix/SampleCovariance.lean:315" target="_blank">
<path fill="#eef2f6" stroke="#94a3b8" d="M1294.53,-268C1294.53,-268 1187.47,-268 1187.47,-268 1181.47,-268 1175.47,-262 1175.47,-256 1175.47,-256 1175.47,-244 1175.47,-244 1175.47,-238 1181.47,-232 1187.47,-232 1187.47,-232 1294.53,-232 1294.53,-232 1300.53,-232 1306.53,-238 1306.53,-244 1306.53,-244 1306.53,-256 1306.53,-256 1306.53,-262 1300.53,-268 1294.53,-268"/>
<text xml:space="preserve" text-anchor="middle" x="1241" y="-247" font-family="Helvetica,sans-Serif" font-size="10.00">matrix_quadratic_eq_sum</text>
</a>
</g>
</g>
<!-- n41&#45;&gt;n6 -->
<g id="edge41" class="edge">
<title>n41&#45;&gt;n6</title>
<path fill="none" stroke="#64748b" d="M1219.99,-231.7C1208.95,-222.61 1195.3,-211.36 1183.44,-201.6"/>
<polygon fill="#64748b" stroke="#64748b" points="1185.19,-199.87 1178.23,-197.31 1182.08,-203.65 1185.19,-199.87"/>
</g>
<!-- n41&#45;&gt;n36 -->
<g id="edge40" class="edge">
<title>n41&#45;&gt;n36</title>
<path fill="none" stroke="#64748b" d="M1306.83,-237.38C1318.21,-235.49 1329.94,-233.63 1341,-232 1480.97,-211.41 1647.6,-192.21 1724.39,-183.66"/>
<polygon fill="#64748b" stroke="#64748b" points="1724.23,-186.15 1730.91,-182.94 1723.69,-181.28 1724.23,-186.15"/>
</g>
<!-- n42 -->
<g id="node33" class="node">
<title>n42</title>
<g id="a_node33"><a xlink:href="vscode://vscode-remote/wsl+Ubuntu/home/ai4stat/statlib/Statlib/HighDim/CovarianceMatrix/SampleCovariance.lean:327" xlink:title="lemma · Statlib/HighDim/CovarianceMatrix/SampleCovariance.lean:327" target="_blank">
<path fill="#eef2f6" stroke="#94a3b8" d="M1105.08,-268C1105.08,-268 1016.92,-268 1016.92,-268 1010.92,-268 1004.92,-262 1004.92,-256 1004.92,-256 1004.92,-244 1004.92,-244 1004.92,-238 1010.92,-232 1016.92,-232 1016.92,-232 1105.08,-232 1105.08,-232 1111.08,-232 1117.08,-238 1117.08,-244 1117.08,-244 1117.08,-256 1117.08,-256 1117.08,-262 1111.08,-268 1105.08,-268"/>
<text xml:space="preserve" text-anchor="middle" x="1061" y="-247" font-family="Helvetica,sans-Serif" font-size="10.00">fin_sum_comm_three</text>
</a>
</g>
</g>
<!-- n43 -->
<g id="node34" class="node">
<title>n43</title>
<g id="a_node34"><a xlink:href="vscode://vscode-remote/wsl+Ubuntu/home/ai4stat/statlib/Statlib/HighDim/CovarianceMatrix/SampleCovariance.lean:337" xlink:title="lemma · Statlib/HighDim/CovarianceMatrix/SampleCovariance.lean:337" target="_blank">
<path fill="#eef2f6" stroke="#94a3b8" d="M1149.52,-340C1149.52,-340 918.48,-340 918.48,-340 912.48,-340 906.48,-334 906.48,-328 906.48,-328 906.48,-316 906.48,-316 906.48,-310 912.48,-304 918.48,-304 918.48,-304 1149.52,-304 1149.52,-304 1155.52,-304 1161.52,-310 1161.52,-316 1161.52,-316 1161.52,-328 1161.52,-328 1161.52,-334 1155.52,-340 1149.52,-340"/>
<text xml:space="preserve" text-anchor="middle" x="1034" y="-319" font-family="Helvetica,sans-Serif" font-size="10.00">sampleSecondMoment_quadratic_eq_projection_sum</text>
</a>
</g>
</g>
<!-- n43&#45;&gt;n6 -->
<g id="edge46" class="edge">
<title>n43&#45;&gt;n6</title>
<path fill="none" stroke="#64748b" d="M1078.51,-303.54C1095.37,-295.02 1113.5,-283.25 1126,-268 1140.97,-249.74 1148.6,-223.66 1152.41,-204.45"/>
<polygon fill="#64748b" stroke="#64748b" points="1154.81,-204.97 1153.63,-197.64 1149.98,-204.1 1154.81,-204.97"/>
</g>
<!-- n43&#45;&gt;n25 -->
<g id="edge43" class="edge">
<title>n43&#45;&gt;n25</title>
<path fill="none" stroke="#64748b" d="M906.01,-304.41C833.91,-294.67 742.28,-281.62 661,-268 654.38,-266.89 647.5,-265.67 640.62,-264.42"/>
<polygon fill="#64748b" stroke="#64748b" points="641.39,-262.07 634.06,-263.2 640.5,-266.88 641.39,-262.07"/>
</g>
<!-- n43&#45;&gt;n36 -->
<g id="edge42" class="edge">
<title>n43&#45;&gt;n36</title>
<path fill="none" stroke="#64748b" d="M1161.91,-306.77C1211.15,-298.77 1267.22,-286.53 1316,-268 1345.07,-256.95 1346.66,-242.3 1376,-232 1497.36,-189.4 1651.04,-180.78 1724.34,-179.21"/>
<polygon fill="#64748b" stroke="#64748b" points="1723.98,-181.67 1730.94,-179.09 1723.89,-176.77 1723.98,-181.67"/>
</g>
<!-- n43&#45;&gt;n41 -->
<g id="edge44" class="edge">
<title>n43&#45;&gt;n41</title>
<path fill="none" stroke="#64748b" d="M1085.7,-303.52C1114.83,-293.67 1151.34,-281.32 1181.64,-271.07"/>
<polygon fill="#64748b" stroke="#64748b" points="1182.32,-273.43 1188.17,-268.87 1180.75,-268.79 1182.32,-273.43"/>
</g>
<!-- n43&#45;&gt;n42 -->
<g id="edge45" class="edge">
<title>n43&#45;&gt;n42</title>
<path fill="none" stroke="#64748b" d="M1040.67,-303.7C1043.91,-295.3 1047.86,-285.07 1051.41,-275.86"/>
<polygon fill="#64748b" stroke="#64748b" points="1053.62,-276.93 1053.86,-269.52 1049.05,-275.17 1053.62,-276.93"/>
</g>
<!-- n44 -->
<g id="node35" class="node">
<title>n44</title>
<g id="a_node35"><a xlink:href="vscode://vscode-remote/wsl+Ubuntu/home/ai4stat/statlib/Statlib/HighDim/Geometry/RIPConstruction.lean:442" xlink:title="lemma · Statlib/HighDim/Geometry/RIPConstruction.lean:442" target="_blank">
<path fill="#eef2f6" stroke="#94a3b8" d="M914.58,-268C914.58,-268 811.42,-268 811.42,-268 805.42,-268 799.42,-262 799.42,-256 799.42,-256 799.42,-244 799.42,-244 799.42,-238 805.42,-232 811.42,-232 811.42,-232 914.58,-232 914.58,-232 920.58,-232 926.58,-238 926.58,-244 926.58,-244 926.58,-256 926.58,-256 926.58,-262 920.58,-268 914.58,-268"/>
<text xml:space="preserve" text-anchor="middle" x="863" y="-247" font-family="Helvetica,sans-Serif" font-size="10.00">restrictByEquiv_inner_eq</text>
</a>
</g>
</g>
<!-- n44&#45;&gt;n6 -->
<g id="edge49" class="edge">
<title>n44&#45;&gt;n6</title>
<path fill="none" stroke="#64748b" d="M926.6,-235.8C974.03,-225.67 1040.31,-210.95 1098,-196 1101.17,-195.18 1104.42,-194.31 1107.7,-193.41"/>
<polygon fill="#64748b" stroke="#64748b" points="1108.3,-195.78 1114.38,-191.54 1106.98,-191.06 1108.3,-195.78"/>
</g>
<!-- n44&#45;&gt;n26 -->
<g id="edge47" class="edge">
<title>n44&#45;&gt;n26</title>
<path fill="none" stroke="#64748b" d="M799.07,-233.59C796.35,-233.03 793.65,-232.5 791,-232 674.81,-210.14 536.89,-192.9 464.7,-184.53"/>
<polygon fill="#64748b" stroke="#64748b" points="465.39,-182.15 458.16,-183.78 464.83,-187.01 465.39,-182.15"/>
</g>
<!-- n44&#45;&gt;n27 -->
<g id="edge48" class="edge">
<title>n44&#45;&gt;n27</title>
<path fill="none" stroke="#64748b" d="M799.04,-233.71C760.45,-223.44 715.94,-209.37 701,-196 685,-181.67 691.44,-170.78 681,-152 677.11,-145.01 672.49,-137.69 668.05,-131.03"/>
<polygon fill="#64748b" stroke="#64748b" points="670.17,-129.78 664.21,-125.37 666.11,-132.53 670.17,-129.78"/>
</g>
<!-- n45 -->
<g id="node36" class="node">
<title>n45</title>
<g id="a_node36"><a xlink:href="vscode://vscode-remote/wsl+Ubuntu/home/ai4stat/statlib/Statlib/HighDim/Geometry/RIPConstruction.lean:490" xlink:title="lemma · Statlib/HighDim/Geometry/RIPConstruction.lean:490" target="_blank">
<path fill="#eef2f6" stroke="#94a3b8" d="M1053.61,-413.2C1053.61,-413.2 890.39,-413.2 890.39,-413.2 884.39,-413.2 878.39,-407.2 878.39,-401.2 878.39,-401.2 878.39,-389.2 878.39,-389.2 878.39,-383.2 884.39,-377.2 890.39,-377.2 890.39,-377.2 1053.61,-377.2 1053.61,-377.2 1059.61,-377.2 1065.61,-383.2 1065.61,-389.2 1065.61,-389.2 1065.61,-401.2 1065.61,-401.2 1065.61,-407.2 1059.61,-413.2 1053.61,-413.2"/>
<text xml:space="preserve" text-anchor="middle" x="972" y="-392.2" font-family="Helvetica,sans-Serif" font-size="10.00">restricted_sample_deviation_quadratic</text>
</a>
</g>
</g>
<!-- n45&#45;&gt;n4 -->
<g id="edge53" class="edge">
<title>n45&#45;&gt;n4</title>
<path fill="none" stroke="#64748b" d="M1065.94,-380.57C1075.74,-379.34 1085.57,-378.19 1095,-377.2 1119.6,-374.62 1184.53,-381.47 1206,-369.2 1236.57,-351.73 1224.91,-327.64 1251,-304 1275.47,-281.82 1288.84,-286.79 1316,-268 1414.82,-199.63 1519.91,-102.38 1566,-58.31"/>
<polygon fill="#64748b" stroke="#64748b" points="1567.65,-60.11 1571.01,-53.5 1564.26,-56.58 1567.65,-60.11"/>
</g>
<!-- n45&#45;&gt;n6 -->
<g id="edge59" class="edge">
<title>n45&#45;&gt;n6</title>
<path fill="none" stroke="#64748b" d="M1065.9,-379.02C1070.66,-378.38 1075.38,-377.77 1080,-377.2 1090.07,-375.97 1164.14,-376.68 1171,-369.2 1201.42,-335.99 1171.61,-312.68 1166,-268 1163.32,-246.65 1160.61,-222.39 1158.7,-204.59"/>
<polygon fill="#64748b" stroke="#64748b" points="1161.16,-204.62 1157.98,-197.92 1156.29,-205.14 1161.16,-204.62"/>
</g>
<!-- n45&#45;&gt;n9 -->
<g id="edge56" class="edge">
<title>n45&#45;&gt;n9</title>
<path fill="none" stroke="#64748b" d="M887.46,-376.97C884.72,-374.67 882.21,-372.09 880,-369.2 862.4,-346.18 864.83,-328.69 880,-304 898.52,-273.85 931.1,-297.26 951,-268 978.8,-227.13 975.45,-166.31 970.65,-132.33"/>
<polygon fill="#64748b" stroke="#64748b" points="973.13,-132.34 969.65,-125.79 968.29,-133.08 973.13,-132.34"/>
</g>
<!-- n45&#45;&gt;n25 -->
<g id="edge52" class="edge">
<title>n45&#45;&gt;n25</title>
<path fill="none" stroke="#64748b" d="M877.9,-387.68C858.69,-383.86 839.13,-378.03 822,-369.2 785.63,-350.45 792.23,-324.82 757,-304 737.06,-292.22 684.32,-277.56 640.39,-266.65"/>
<polygon fill="#64748b" stroke="#64748b" points="641.16,-264.31 633.77,-265.02 639.99,-269.07 641.16,-264.31"/>
</g>
<!-- n45&#45;&gt;n26 -->
<g id="edge50" class="edge">
<title>n45&#45;&gt;n26</title>
<path fill="none" stroke="#64748b" d="M878.14,-383.29C855.53,-380.97 831.42,-378.76 809,-377.2 783.49,-375.43 602.06,-380.25 579,-369.2 569.24,-364.52 475.94,-252.65 434.58,-202.7"/>
<polygon fill="#64748b" stroke="#64748b" points="436.65,-201.36 430.3,-197.53 432.87,-204.49 436.65,-201.36"/>
</g>
<!-- n45&#45;&gt;n27 -->
<g id="edge54" class="edge">
<title>n45&#45;&gt;n27</title>
<path fill="none" stroke="#64748b" d="M878.04,-384.19C866.05,-380.56 854.36,-375.69 844,-369.2 813.28,-349.96 825.03,-324.3 795,-304 743.91,-269.47 700.02,-315.75 661,-268 629.63,-229.62 636.86,-167.35 644.31,-132.57"/>
<polygon fill="#64748b" stroke="#64748b" points="646.68,-133.2 645.85,-125.83 641.9,-132.11 646.68,-133.2"/>
</g>
<!-- n45&#45;&gt;n36 -->
<g id="edge51" class="edge">
<title>n45&#45;&gt;n36</title>
<path fill="none" stroke="#64748b" d="M1065.9,-380.08C1075.71,-378.95 1085.54,-377.95 1095,-377.2 1105.47,-376.37 1464.85,-375.83 1473,-369.2 1496.07,-350.44 1466.05,-324.06 1488,-304 1574.75,-224.69 1664.75,-348.92 1750,-268 1758.95,-259.5 1763.32,-227.97 1765.36,-204.84"/>
<polygon fill="#64748b" stroke="#64748b" points="1767.79,-205.14 1765.91,-197.97 1762.91,-204.75 1767.79,-205.14"/>
</g>
<!-- n45&#45;&gt;n41 -->
<g id="edge55" class="edge">
<title>n45&#45;&gt;n41</title>
<path fill="none" stroke="#64748b" d="M1065.89,-378.95C1070.66,-378.33 1075.38,-377.74 1080,-377.2 1091.73,-375.84 1176.3,-375.94 1186,-369.2 1212.19,-350.99 1202.53,-332.91 1216,-304 1220.32,-294.73 1225.1,-284.56 1229.32,-275.64"/>
<polygon fill="#64748b" stroke="#64748b" points="1231.43,-276.91 1232.21,-269.53 1227,-274.82 1231.43,-276.91"/>
</g>
<!-- n45&#45;&gt;n43 -->
<g id="edge57" class="edge">
<title>n45&#45;&gt;n43</title>
<path fill="none" stroke="#64748b" d="M987.01,-376.96C995,-367.78 1004.96,-356.35 1013.64,-346.38"/>
<polygon fill="#64748b" stroke="#64748b" points="1015.39,-348.11 1018.14,-341.22 1011.69,-344.89 1015.39,-348.11"/>
</g>
<!-- n45&#45;&gt;n44 -->
<g id="edge58" class="edge">
<title>n45&#45;&gt;n44</title>
<path fill="none" stroke="#64748b" d="M877.96,-378.78C870.63,-376.05 864.93,-372.87 862,-369.2 841.21,-343.15 847.2,-302.58 854.36,-276.39"/>
<polygon fill="#64748b" stroke="#64748b" points="856.65,-277.29 856.27,-269.89 851.95,-275.91 856.65,-277.29"/>
</g>
<!-- n46 -->
<g id="node37" class="node">
<title>n46</title>
<g id="a_node37"><a xlink:href="vscode://vscode-remote/wsl+Ubuntu/home/ai4stat/statlib/Statlib/HighDim/Geometry/RIPConstruction.lean:120" xlink:title="lemma · Statlib/HighDim/Geometry/RIPConstruction.lean:120" target="_blank">
<path fill="#eef2f6" stroke="#94a3b8" d="M1897.27,-413.2C1897.27,-413.2 1740.73,-413.2 1740.73,-413.2 1734.73,-413.2 1728.73,-407.2 1728.73,-401.2 1728.73,-401.2 1728.73,-389.2 1728.73,-389.2 1728.73,-383.2 1734.73,-377.2 1740.73,-377.2 1740.73,-377.2 1897.27,-377.2 1897.27,-377.2 1903.27,-377.2 1909.27,-383.2 1909.27,-389.2 1909.27,-389.2 1909.27,-401.2 1909.27,-401.2 1909.27,-407.2 1903.27,-413.2 1897.27,-413.2"/>
<text xml:space="preserve" text-anchor="middle" x="1819" y="-392.2" font-family="Helvetica,sans-Serif" font-size="10.00">exists_support_card_eq_of_isSparse</text>
</a>
</g>
</g>
<!-- n46&#45;&gt;n3 -->
<g id="edge60" class="edge">
<title>n46&#45;&gt;n3</title>
<path fill="none" stroke="#64748b" d="M1909.7,-378.39C1927.52,-374.84 1941.99,-371.46 1946,-369.2 1955.93,-363.6 1964.79,-354.8 1971.78,-346.38"/>
<polygon fill="#64748b" stroke="#64748b" points="1973.41,-348.27 1975.82,-341.26 1969.56,-345.24 1973.41,-348.27"/>
</g>
<!-- n47 -->
<g id="node38" class="node">
<title>n47</title>
<g id="a_node38"><a xlink:href="vscode://vscode-remote/wsl+Ubuntu/home/ai4stat/statlib/Statlib/HighDim/SpectralPerturbation/Eigenvalues.lean:159" xlink:title="lemma · Statlib/HighDim/SpectralPerturbation/Eigenvalues.lean:159" target="_blank">
<path fill="#eef2f6" stroke="#94a3b8" d="M1650.26,-340C1650.26,-340 1533.74,-340 1533.74,-340 1527.74,-340 1521.74,-334 1521.74,-328 1521.74,-328 1521.74,-316 1521.74,-316 1521.74,-310 1527.74,-304 1533.74,-304 1533.74,-304 1650.26,-304 1650.26,-304 1656.26,-304 1662.26,-310 1662.26,-316 1662.26,-316 1662.26,-328 1662.26,-328 1662.26,-334 1656.26,-340 1650.26,-340"/>
<text xml:space="preserve" text-anchor="middle" x="1592" y="-319" font-family="Helvetica,sans-Serif" font-size="10.00">abs_rayleigh_le_l2_opNorm</text>
</a>
</g>
</g>
<!-- n48 -->
<g id="node39" class="node">
<title>n48</title>
<g id="a_node39"><a xlink:href="vscode://vscode-remote/wsl+Ubuntu/home/ai4stat/statlib/Statlib/HighDim/Geometry/RIPConstruction.lean:549" xlink:title="lemma · Statlib/HighDim/Geometry/RIPConstruction.lean:549" target="_blank">
<path fill="#eef2f6" stroke="#94a3b8" d="M1470.72,-413.2C1470.72,-413.2 1295.28,-413.2 1295.28,-413.2 1289.28,-413.2 1283.28,-407.2 1283.28,-401.2 1283.28,-401.2 1283.28,-389.2 1283.28,-389.2 1283.28,-383.2 1289.28,-377.2 1295.28,-377.2 1295.28,-377.2 1470.72,-377.2 1470.72,-377.2 1476.72,-377.2 1482.72,-383.2 1482.72,-389.2 1482.72,-389.2 1482.72,-401.2 1482.72,-401.2 1482.72,-407.2 1476.72,-413.2 1470.72,-413.2"/>
<text xml:space="preserve" text-anchor="middle" x="1383" y="-392.2" font-family="Helvetica,sans-Serif" font-size="10.00">abs_quadratic_le_opNorm_mul_norm_sq</text>
</a>
</g>
</g>
<!-- n48&#45;&gt;n36 -->
<g id="edge61" class="edge">
<title>n48&#45;&gt;n36</title>
<path fill="none" stroke="#64748b" d="M1483.02,-378.69C1487.74,-378.15 1492.42,-377.65 1497,-377.2 1516.26,-375.33 1655.31,-380.53 1671,-369.2 1696.16,-351.03 1674.26,-326.14 1696,-304 1725.9,-273.55 1761.15,-303.38 1785,-268 1797.86,-248.93 1790.21,-222.69 1781.26,-203.64"/>
<polygon fill="#64748b" stroke="#64748b" points="1783.54,-202.73 1778.21,-197.57 1779.16,-204.93 1783.54,-202.73"/>
</g>
<!-- n48&#45;&gt;n47 -->
<g id="edge62" class="edge">
<title>n48&#45;&gt;n47</title>
<path fill="none" stroke="#64748b" d="M1483.04,-377.06C1491.57,-374.73 1500,-372.12 1508,-369.2 1525.33,-362.87 1543.4,-353.36 1558.33,-344.61"/>
<polygon fill="#64748b" stroke="#64748b" points="1559.33,-346.86 1564.08,-341.17 1556.82,-342.66 1559.33,-346.86"/>
</g>
<!-- n49 -->
<g id="node40" class="node">
<title>n49</title>
<g id="a_node40"><a xlink:href="vscode://vscode-remote/wsl+Ubuntu/home/ai4stat/statlib/Statlib/HighDim/Geometry/RIPConstruction.lean:582" xlink:title="theorem · Statlib/HighDim/Geometry/RIPConstruction.lean:582" target="_blank">
<path fill="#ffe6a3" stroke="#d4a017" d="M900.59,-485.2C900.59,-485.2 817.41,-485.2 817.41,-485.2 811.41,-485.2 805.41,-479.2 805.41,-473.2 805.41,-473.2 805.41,-461.2 805.41,-461.2 805.41,-455.2 811.41,-449.2 817.41,-449.2 817.41,-449.2 900.59,-449.2 900.59,-449.2 906.59,-449.2 912.59,-455.2 912.59,-461.2 912.59,-461.2 912.59,-473.2 912.59,-473.2 912.59,-479.2 906.59,-485.2 900.59,-485.2"/>
<text xml:space="preserve" text-anchor="middle" x="859" y="-464.2" font-family="Helvetica,sans-Serif" font-size="10.00">subgaussian_rip_tail</text>
</a>
</g>
</g>
<!-- n49&#45;&gt;n0 -->
<g id="edge67" class="edge">
<title>n49&#45;&gt;n0</title>
<path fill="none" stroke="#64748b" d="M805.13,-464.18C663.84,-458.52 290.15,-441.07 242,-413.2 225.14,-403.44 228.79,-392.71 217,-377.2 209.26,-367.01 200.33,-356.1 192.48,-346.76"/>
<polygon fill="#64748b" stroke="#64748b" points="194.35,-345.18 187.96,-341.42 190.61,-348.35 194.35,-345.18"/>
</g>
<!-- n49&#45;&gt;n1 -->
<g id="edge63" class="edge">
<title>n49&#45;&gt;n1</title>
<path fill="none" stroke="#64748b" d="M805.06,-462.12C656.47,-450.83 250.26,-419.58 222,-413.2 220,-412.75 217.98,-412.23 215.95,-411.66"/>
<polygon fill="#64748b" stroke="#64748b" points="216.99,-409.41 209.57,-409.68 215.53,-414.09 216.99,-409.41"/>
</g>
<!-- n49&#45;&gt;n2 -->
<g id="edge64" class="edge">
<title>n49&#45;&gt;n2</title>
<path fill="none" stroke="#64748b" d="M805.16,-465.6C684.66,-463.52 384.35,-454.27 137,-413.2 136.91,-413.19 136.83,-413.17 136.74,-413.16"/>
<polygon fill="#64748b" stroke="#64748b" points="137.41,-410.79 130.08,-411.93 136.52,-415.61 137.41,-410.79"/>
</g>
<!-- n49&#45;&gt;n4 -->
<g id="edge66" class="edge">
<title>n49&#45;&gt;n4</title>
<path fill="none" stroke="#64748b" d="M912.9,-464.88C1060.13,-460.84 1461.4,-446.84 1510,-413.2 1524.55,-403.13 1512.27,-387 1527,-377.2 1543.76,-366.05 1692.26,-381.75 1708,-369.2 1731.51,-350.47 1706.72,-327.06 1726,-304 1749.72,-275.63 1779.4,-298.01 1801,-268 1831.21,-226.03 1836.63,-196.33 1810,-152 1770.56,-86.35 1680.46,-55.55 1628.63,-42.79"/>
<polygon fill="#64748b" stroke="#64748b" points="1629.5,-40.48 1622.13,-41.25 1628.37,-45.25 1629.5,-40.48"/>
</g>
<!-- n49&#45;&gt;n5 -->
<g id="edge65" class="edge">
<title>n49&#45;&gt;n5</title>
<path fill="none" stroke="#64748b" d="M912.79,-464.49C1114.48,-457.93 1819.34,-433.78 1918,-413.2 1918.49,-413.1 1918.97,-412.99 1919.46,-412.88"/>
<polygon fill="#64748b" stroke="#64748b" points="1919.83,-415.32 1925.98,-411.16 1918.58,-410.58 1919.83,-415.32"/>
</g>
<!-- n49&#45;&gt;n6 -->
<g id="edge68" class="edge">
<title>n49&#45;&gt;n6</title>
<path fill="none" stroke="#64748b" d="M912.96,-464.78C960.06,-460.98 1028.05,-449.05 1075,-413.2 1089.55,-402.09 1079.57,-387.04 1095,-377.2 1115.85,-363.9 1184.53,-381.47 1206,-369.2 1236.57,-351.73 1224.91,-327.64 1251,-304 1275.47,-281.82 1299.23,-296.45 1316,-268 1324.12,-254.22 1325.37,-244.97 1316,-232 1290.75,-197.04 1241.56,-184.77 1204.35,-180.65"/>
<polygon fill="#64748b" stroke="#64748b" points="1204.84,-178.23 1197.64,-179.99 1204.37,-183.11 1204.84,-178.23"/>
</g>
<!-- n49&#45;&gt;n9 -->
<g id="edge71" class="edge">
<title>n49&#45;&gt;n9</title>
<path fill="none" stroke="#64748b" d="M854.2,-448.91C846.49,-417.31 835.01,-349.33 864,-304 883.28,-273.86 914.47,-296.57 936,-268 951.79,-247.05 960.4,-172.64 963.98,-132.73"/>
<polygon fill="#64748b" stroke="#64748b" points="966.42,-133 964.58,-125.82 961.54,-132.58 966.42,-133"/>
</g>
<!-- n49&#45;&gt;n18 -->
<g id="edge73" class="edge">
<title>n49&#45;&gt;n18</title>
<path fill="none" stroke="#64748b" d="M912.93,-465.64C1077.4,-463.5 1586.98,-453.84 2007,-413.2 2007.09,-413.19 2007.18,-413.18 2007.26,-413.17"/>
<polygon fill="#64748b" stroke="#64748b" points="2007.32,-415.63 2014.03,-412.48 2006.81,-410.76 2007.32,-415.63"/>
</g>
<!-- n49&#45;&gt;n22 -->
<g id="edge75" class="edge">
<title>n49&#45;&gt;n22</title>
<path fill="none" stroke="#64748b" d="M912.74,-464.11C1028.9,-459.14 1311.89,-444.61 1547,-413.2 1548.84,-412.95 1550.69,-412.7 1552.56,-412.43"/>
<polygon fill="#64748b" stroke="#64748b" points="1552.78,-414.87 1559.34,-411.4 1552.05,-410.03 1552.78,-414.87"/>
</g>
<!-- n49&#45;&gt;n23 -->
<g id="edge76" class="edge">
<title>n49&#45;&gt;n23</title>
<path fill="none" stroke="#64748b" d="M805.22,-462.98C715.89,-457.04 531.55,-442.2 378,-413.2 376,-412.82 373.98,-412.42 371.94,-411.98"/>
<polygon fill="#64748b" stroke="#64748b" points="372.86,-409.68 365.49,-410.54 371.78,-414.46 372.86,-409.68"/>
</g>
<!-- n49&#45;&gt;n24 -->
<g id="edge77" class="edge">
<title>n49&#45;&gt;n24</title>
<path fill="none" stroke="#64748b" d="M912.95,-464.56C1062.41,-459.64 1474.29,-443.48 1527,-413.2 1543.89,-403.5 1534.95,-386.62 1552,-377.2 1568.94,-367.84 1710.31,-380.53 1726,-369.2 1751.16,-351.03 1729.05,-325.94 1751,-304 1782.64,-272.37 1816.06,-302.11 1845,-268 1877.67,-229.49 1880.94,-167.27 1879.85,-132.53"/>
<polygon fill="#64748b" stroke="#64748b" points="1882.31,-132.72 1879.56,-125.84 1877.41,-132.94 1882.31,-132.72"/>
</g>
<!-- n49&#45;&gt;n25 -->
<g id="edge78" class="edge">
<title>n49&#45;&gt;n25</title>
<path fill="none" stroke="#64748b" d="M805.05,-463.2C759.43,-458.34 694.14,-445.75 647,-413.2 630.97,-402.13 638.36,-387.78 622,-377.2 605.68,-366.65 591.8,-383.83 579,-369.2 556.9,-343.94 560.56,-302.8 566.1,-276.33"/>
<polygon fill="#64748b" stroke="#64748b" points="568.43,-277.13 567.6,-269.76 563.65,-276.04 568.43,-277.13"/>
</g>
<!-- n49&#45;&gt;n26 -->
<g id="edge79" class="edge">
<title>n49&#45;&gt;n26</title>
<path fill="none" stroke="#64748b" d="M805.2,-465.58C701.12,-463.46 476.83,-454.14 413,-413.2 397.22,-403.08 406.81,-387.27 391,-377.2 377.61,-368.67 330.58,-381.04 320,-369.2 300.69,-347.59 304,-328.16 320,-304 342.66,-269.8 380.47,-300.88 405,-268 418.47,-249.95 419.9,-223.84 418.6,-204.57"/>
<polygon fill="#64748b" stroke="#64748b" points="421.05,-204.5 417.98,-197.75 416.17,-204.95 421.05,-204.5"/>
</g>
<!-- n49&#45;&gt;n27 -->
<g id="edge81" class="edge">
<title>n49&#45;&gt;n27</title>
<path fill="none" stroke="#64748b" d="M805.13,-459.71C744.19,-451.43 649.82,-435.46 622,-413.2 608.18,-402.15 619.1,-387.9 605,-377.2 588.12,-364.39 575.14,-381.66 558,-369.2 547.73,-361.74 508.03,-280.33 505,-268 501.18,-252.46 498.31,-246.53 505,-232 526.43,-185.45 574.69,-149.76 609.88,-128.66"/>
<polygon fill="#64748b" stroke="#64748b" points="611.07,-130.8 615.87,-125.15 608.59,-126.58 611.07,-130.8"/>
</g>
<!-- n49&#45;&gt;n29 -->
<g id="edge82" class="edge">
<title>n49&#45;&gt;n29</title>
<path fill="none" stroke="#64748b" d="M857.38,-448.91C854.5,-428.54 846.6,-395.21 825,-377.2 810.07,-364.75 796.94,-381.64 782,-369.2 758.15,-349.34 770.43,-331.98 757,-304 752.39,-294.39 746.65,-284.2 741.36,-275.35"/>
<polygon fill="#64748b" stroke="#64748b" points="743.58,-274.28 737.86,-269.57 739.39,-276.82 743.58,-274.28"/>
</g>
<!-- n49&#45;&gt;n30 -->
<g id="edge89" class="edge">
<title>n49&#45;&gt;n30</title>
<path fill="none" stroke="#64748b" d="M805.25,-465.49C698.79,-463.22 465.58,-453.63 398,-413.2 381.28,-403.2 389.73,-387.18 373,-377.2 359.37,-369.06 313.07,-380.58 302,-369.2 278.42,-344.95 280.98,-303.17 285.84,-276.33"/>
<polygon fill="#64748b" stroke="#64748b" points="288.21,-277.01 287.18,-269.67 283.4,-276.05 288.21,-277.01"/>
</g>
<!-- n49&#45;&gt;n31 -->
<g id="edge80" class="edge">
<title>n49&#45;&gt;n31</title>
<path fill="none" stroke="#64748b" d="M804.99,-465.82C751.78,-463.01 670.22,-451.98 612,-413.2 595.79,-402.4 603.66,-387.3 587,-377.2 562.87,-362.57 551.07,-377.2 524,-369.2 503.67,-363.19 482.3,-353.3 464.89,-344.21"/>
<polygon fill="#64748b" stroke="#64748b" points="466.36,-342.21 459.03,-341.09 464.06,-346.54 466.36,-342.21"/>
</g>
<!-- n49&#45;&gt;n32 -->
<g id="edge83" class="edge">
<title>n49&#45;&gt;n32</title>
<path fill="none" stroke="#64748b" d="M805.25,-455.72C747.55,-444.47 655,-426.42 586.92,-413.15"/>
<polygon fill="#64748b" stroke="#64748b" points="587.57,-410.78 580.23,-411.84 586.63,-415.59 587.57,-410.78"/>
</g>
<!-- n49&#45;&gt;n33 -->
<g id="edge84" class="edge">
<title>n49&#45;&gt;n33</title>
<path fill="none" stroke="#64748b" d="M804.93,-465.12C664.63,-461.8 297.07,-449.69 257,-413.2 220.52,-379.98 268.77,-341.75 237,-304 227.16,-292.31 197.21,-280.45 167.15,-270.92"/>
<polygon fill="#64748b" stroke="#64748b" points="167.97,-268.61 160.55,-268.87 166.51,-273.29 167.97,-268.61"/>
</g>
<!-- n49&#45;&gt;n34 -->
<g id="edge85" class="edge">
<title>n49&#45;&gt;n34</title>
<path fill="none" stroke="#64748b" d="M850.33,-448.95C837.84,-424.4 815.56,-381.82 809,-377.2 791.68,-365 782.16,-375.72 762,-369.2 742.49,-362.89 721.94,-353.18 705.04,-344.29"/>
<polygon fill="#64748b" stroke="#64748b" points="706.21,-342.14 698.89,-340.99 703.9,-346.45 706.21,-342.14"/>
</g>
<!-- n49&#45;&gt;n35 -->
<g id="edge86" class="edge">
<title>n49&#45;&gt;n35</title>
<path fill="none" stroke="#64748b" d="M826.28,-448.72C808.48,-439.21 786.34,-427.37 767.58,-417.35"/>
<polygon fill="#64748b" stroke="#64748b" points="768.97,-415.31 761.64,-414.17 766.66,-419.63 768.97,-415.31"/>
</g>
<!-- n49&#45;&gt;n36 -->
<g id="edge88" class="edge">
<title>n49&#45;&gt;n36</title>
<path fill="none" stroke="#64748b" d="M912.96,-464.3C1056.89,-458.88 1442.43,-441.82 1492,-413.2 1508.87,-403.46 1499.95,-386.63 1517,-377.2 1550.48,-358.68 1657.69,-391.19 1689,-369.2 1714.67,-351.17 1694.32,-326.67 1716,-304 1742.11,-276.7 1772.72,-299.87 1793,-268 1805.59,-248.22 1795.43,-222.13 1784.34,-203.32"/>
<polygon fill="#64748b" stroke="#64748b" points="1786.51,-202.17 1780.73,-197.53 1782.36,-204.77 1786.51,-202.17"/>
</g>
<!-- n49&#45;&gt;n40 -->
<g id="edge87" class="edge">
<title>n49&#45;&gt;n40</title>
<path fill="none" stroke="#64748b" d="M912.83,-454.64C962.58,-443.96 1037.42,-427.89 1096.05,-415.3"/>
<polygon fill="#64748b" stroke="#64748b" points="1096.4,-417.73 1102.73,-413.87 1095.37,-412.94 1096.4,-417.73"/>
</g>
<!-- n49&#45;&gt;n45 -->
<g id="edge90" class="edge">
<title>n49&#45;&gt;n45</title>
<path fill="none" stroke="#64748b" d="M887.22,-448.72C902.3,-439.38 921,-427.79 937,-417.88"/>
<polygon fill="#64748b" stroke="#64748b" points="938.19,-420.03 942.85,-414.26 935.61,-415.86 938.19,-420.03"/>
</g>
<!-- n49&#45;&gt;n46 -->
<g id="edge91" class="edge">
<title>n49&#45;&gt;n46</title>
<path fill="none" stroke="#64748b" d="M913.08,-464.91C1047.88,-461.26 1409.72,-448.76 1720.17,-413.11"/>
<polygon fill="#64748b" stroke="#64748b" points="1720.24,-415.57 1726.92,-412.33 1719.68,-410.7 1720.24,-415.57"/>
</g>
<!-- n49&#45;&gt;n48 -->
<g id="edge92" class="edge">
<title>n49&#45;&gt;n48</title>
<path fill="none" stroke="#64748b" d="M912.92,-459.84C990.75,-450.56 1139.31,-432.4 1274.9,-413.2"/>
<polygon fill="#64748b" stroke="#64748b" points="1274.9,-415.67 1281.49,-412.26 1274.21,-410.82 1274.9,-415.67"/>
</g>
<!-- n7 -->
<g id="node42" class="node">
<title>n7</title>
<g id="a_node42"><a xlink:href="vscode://vscode-remote/wsl+Ubuntu/home/ai4stat/statlib/Statlib/StatFoundation/RandomVariable/SubGaussian/subgaussian_fourth_moment_le.lean:8" xlink:title="lemma · Statlib/StatFoundation/RandomVariable/SubGaussian/subgaussian_fourth_moment_le.lean:8" target="_blank">
<path fill="#eef2f6" stroke="#94a3b8" d="M2606.05,-340C2606.05,-340 2493.95,-340 2493.95,-340 2487.95,-340 2481.95,-334 2481.95,-328 2481.95,-328 2481.95,-316 2481.95,-316 2481.95,-310 2487.95,-304 2493.95,-304 2493.95,-304 2606.05,-304 2606.05,-304 2612.05,-304 2618.05,-310 2618.05,-316 2618.05,-316 2618.05,-328 2618.05,-328 2618.05,-334 2612.05,-340 2606.05,-340"/>
<text xml:space="preserve" text-anchor="middle" x="2550" y="-319" font-family="Helvetica,sans-Serif" font-size="10.00">cosh_ge_one_add_half_sq</text>
</a>
</g>
</g>
<!-- n49&#45;&gt;n7 -->
<g id="edge69" class="edge">
<title>n49&#45;&gt;n7</title>
<path fill="none" stroke="#64748b" d="M912.98,-465.18C1134.36,-460.82 1973.49,-442.67 2237,-413.2 2343.04,-401.34 2373.23,-407.02 2473,-369.2 2489.14,-363.08 2505.72,-353.62 2519.34,-344.84"/>
<polygon fill="#64748b" stroke="#64748b" points="2520.41,-347.07 2524.91,-341.17 2517.72,-342.98 2520.41,-347.07"/>
</g>
<!-- n8 -->
<g id="node43" class="node">
<title>n8</title>
<g id="a_node43"><a xlink:href="vscode://vscode-remote/wsl+Ubuntu/home/ai4stat/statlib/Statlib/StatFoundation/RandomVariable/SubGaussian/subgaussian_variance_le.lean:8" xlink:title="theorem · Statlib/StatFoundation/RandomVariable/SubGaussian/subgaussian_variance_le.lean:8" target="_blank">
<path fill="#ffe6a3" stroke="#d4a017" d="M2752.43,-340C2752.43,-340 2647.57,-340 2647.57,-340 2641.57,-340 2635.57,-334 2635.57,-328 2635.57,-328 2635.57,-316 2635.57,-316 2635.57,-310 2641.57,-304 2647.57,-304 2647.57,-304 2752.43,-304 2752.43,-304 2758.43,-304 2764.43,-310 2764.43,-316 2764.43,-316 2764.43,-328 2764.43,-328 2764.43,-334 2758.43,-340 2752.43,-340"/>
<text xml:space="preserve" text-anchor="middle" x="2700" y="-319" font-family="Helvetica,sans-Serif" font-size="10.00">subgaussian_variance_le</text>
</a>
</g>
</g>
<!-- n49&#45;&gt;n8 -->
<g id="edge70" class="edge">
<title>n49&#45;&gt;n8</title>
<path fill="none" stroke="#64748b" d="M912.94,-466.76C1108.02,-468.25 1795.02,-468.97 2358,-413.2 2478.55,-401.26 2513.76,-412.24 2627,-369.2 2642.5,-363.31 2658.22,-353.89 2671.09,-345.09"/>
<polygon fill="#64748b" stroke="#64748b" points="2672.36,-347.19 2676.68,-341.17 2669.54,-343.18 2672.36,-347.19"/>
</g>
<!-- n10 -->
<g id="node44" class="node">
<title>n10</title>
<g id="a_node44"><a xlink:href="vscode://vscode-remote/wsl+Ubuntu/home/ai4stat/statlib/Statlib/StatFoundation/Vocabulary/RandomVariable.lean:74" xlink:title="structure · Statlib/StatFoundation/Vocabulary/RandomVariable.lean:74" target="_blank">
<path fill="#e8dcff" stroke="#8b5cf6" d="M3050.47,-268C3050.47,-268 2949.53,-268 2949.53,-268 2943.53,-268 2937.53,-262 2937.53,-256 2937.53,-256 2937.53,-244 2937.53,-244 2937.53,-238 2943.53,-232 2949.53,-232 2949.53,-232 3050.47,-232 3050.47,-232 3056.47,-232 3062.47,-238 3062.47,-244 3062.47,-244 3062.47,-256 3062.47,-256 3062.47,-262 3056.47,-268 3050.47,-268"/>
<text xml:space="preserve" text-anchor="middle" x="3000" y="-247" font-family="Helvetica,sans-Serif" font-size="10.00">HasSubexponentialMGF</text>
</a>
</g>
</g>
<!-- n49&#45;&gt;n10 -->
<g id="edge72" class="edge">
<title>n49&#45;&gt;n10</title>
<path fill="none" stroke="#64748b" d="M912.73,-466.35C1128.69,-466.58 1954.25,-463.9 2631,-413.2 2794.38,-400.96 2886.74,-490.38 2997,-369.2 3019.56,-344.4 3014.56,-303.14 3007.98,-276.51"/>
<polygon fill="#64748b" stroke="#64748b" points="3010.38,-276.01 3006.21,-269.88 3005.64,-277.27 3010.38,-276.01"/>
</g>
<!-- n19 -->
<g id="node51" class="node">
<title>n19</title>
<g id="a_node51"><a xlink:href="vscode://vscode-remote/wsl+Ubuntu/home/ai4stat/statlib/Statlib/StatFoundation/Concentration/ExponentialType/bernstein_sum_meas_abs_ge_le_two_exp.lean:13" xlink:title="theorem · Statlib/StatFoundation/Concentration/ExponentialType/bernstein_sum_meas_abs_ge_le_two_exp.lean:13" target="_blank">
<path fill="#ffe6a3" stroke="#d4a017" d="M2976.06,-340C2976.06,-340 2793.94,-340 2793.94,-340 2787.94,-340 2781.94,-334 2781.94,-328 2781.94,-328 2781.94,-316 2781.94,-316 2781.94,-310 2787.94,-304 2793.94,-304 2793.94,-304 2976.06,-304 2976.06,-304 2982.06,-304 2988.06,-310 2988.06,-316 2988.06,-316 2988.06,-328 2988.06,-328 2988.06,-334 2982.06,-340 2976.06,-340"/>
<text xml:space="preserve" text-anchor="middle" x="2885" y="-319" font-family="Helvetica,sans-Serif" font-size="10.00">bernstein_sum_meas_abs_ge_le_two_exp</text>
</a>
</g>
</g>
<!-- n49&#45;&gt;n19 -->
<g id="edge74" class="edge">
<title>n49&#45;&gt;n19</title>
<path fill="none" stroke="#64748b" d="M912.76,-465.36C1158.5,-461.36 2176.63,-443.25 2494,-413.2 2618.97,-401.37 2652.14,-403.15 2773,-369.2 2796.16,-362.69 2820.99,-352.78 2841.36,-343.8"/>
<polygon fill="#64748b" stroke="#64748b" points="2842.17,-346.12 2847.56,-341.03 2840.17,-341.65 2842.17,-346.12"/>
</g>
<!-- n50 -->
<g id="node41" class="node">
<title>n50</title>
<g id="a_node41"><a xlink:href="vscode://vscode-remote/wsl+Ubuntu/home/ai4stat/statlib/Statlib/HighDim/Geometry/RIPConstruction.lean:1617" xlink:title="theorem · Statlib/HighDim/Geometry/RIPConstruction.lean:1617" target="_blank">
<path fill="#ffe6a3" stroke="#d4a017" stroke-width="3" d="M813.71,-557.2C813.71,-557.2 658.29,-557.2 658.29,-557.2 652.29,-557.2 646.29,-551.2 646.29,-545.2 646.29,-545.2 646.29,-533.2 646.29,-533.2 646.29,-527.2 652.29,-521.2 658.29,-521.2 658.29,-521.2 813.71,-521.2 813.71,-521.2 819.71,-521.2 825.71,-527.2 825.71,-533.2 825.71,-533.2 825.71,-545.2 825.71,-545.2 825.71,-551.2 819.71,-557.2 813.71,-557.2"/>
<text xml:space="preserve" text-anchor="middle" x="736" y="-536.2" font-family="Helvetica,sans-Serif" font-size="10.00">subgaussian_rip_sample_complexity</text>
</a>
</g>
</g>
<!-- n50&#45;&gt;n1 -->
<g id="edge93" class="edge">
<title>n50&#45;&gt;n1</title>
<path fill="none" stroke="#64748b" d="M645.49,-519.71C542.09,-497.78 368.3,-458.44 222,-413.2 219.98,-412.57 217.91,-411.91 215.83,-411.21"/>
<polygon fill="#64748b" stroke="#64748b" points="216.66,-408.9 209.24,-408.91 215.04,-413.53 216.66,-408.9"/>
</g>
<!-- n50&#45;&gt;n2 -->
<g id="edge94" class="edge">
<title>n50&#45;&gt;n2</title>
<path fill="none" stroke="#64748b" d="M645.13,-529.65C568.1,-521.4 454.99,-506.94 358,-485.2 276.34,-466.9 184.33,-436.43 127.25,-416.33"/>
<polygon fill="#64748b" stroke="#64748b" points="128.27,-414.1 120.86,-414.07 126.64,-418.72 128.27,-414.1"/>
</g>
<!-- n50&#45;&gt;n5 -->
<g id="edge95" class="edge">
<title>n50&#45;&gt;n5</title>
<path fill="none" stroke="#64748b" d="M827.04,-536.47C1027.09,-530.95 1518.98,-508.01 1918,-413.2 1918.48,-413.09 1918.97,-412.97 1919.45,-412.84"/>
<polygon fill="#64748b" stroke="#64748b" points="1919.88,-415.27 1925.94,-411 1918.54,-410.56 1919.88,-415.27"/>
</g>
<!-- n50&#45;&gt;n49 -->
<g id="edge96" class="edge">
<title>n50&#45;&gt;n49</title>
<path fill="none" stroke="#64748b" d="M768.32,-519.81C784.63,-510.52 804.52,-499.21 821.51,-489.54"/>
<polygon fill="#64748b" stroke="#64748b" points="822.4,-491.85 827.28,-486.25 819.98,-487.59 822.4,-491.85"/>
</g>
<!-- n12 -->
<g id="node45" class="node">
<title>n12</title>
<g id="a_node45"><a xlink:href="vscode://vscode-remote/wsl+Ubuntu/home/ai4stat/statlib/Statlib/StatFoundation/RandomVariable/SubExponential/subexp_mgf_le_of_sq_subgaussian.lean:13" xlink:title="lemma · Statlib/StatFoundation/RandomVariable/SubExponential/subexp_mgf_le_of_sq_subgaussian.lean:13" target="_blank">
<path fill="#eef2f6" stroke="#94a3b8" d="M2583.2,-268C2583.2,-268 2502.8,-268 2502.8,-268 2496.8,-268 2490.8,-262 2490.8,-256 2490.8,-256 2490.8,-244 2490.8,-244 2490.8,-238 2496.8,-232 2502.8,-232 2502.8,-232 2583.2,-232 2583.2,-232 2589.2,-232 2595.2,-238 2595.2,-244 2595.2,-244 2595.2,-256 2595.2,-256 2595.2,-262 2589.2,-268 2583.2,-268"/>
<text xml:space="preserve" text-anchor="middle" x="2543" y="-247" font-family="Helvetica,sans-Serif" font-size="10.00">sub_gauss_tail_abs</text>
</a>
</g>
</g>
<!-- n13 -->
<g id="node46" class="node">
<title>n13</title>
<g id="a_node46"><a xlink:href="vscode://vscode-remote/wsl+Ubuntu/home/ai4stat/statlib/Statlib/StatFoundation/RandomVariable/SubGaussian/sq_le_two_mul_exp.lean:10" xlink:title="lemma · Statlib/StatFoundation/RandomVariable/SubGaussian/sq_le_two_mul_exp.lean:10" target="_blank">
<path fill="#eef2f6" stroke="#94a3b8" d="M2705.19,-268C2705.19,-268 2624.81,-268 2624.81,-268 2618.81,-268 2612.81,-262 2612.81,-256 2612.81,-256 2612.81,-244 2612.81,-244 2612.81,-238 2618.81,-232 2624.81,-232 2624.81,-232 2705.19,-232 2705.19,-232 2711.19,-232 2717.19,-238 2717.19,-244 2717.19,-244 2717.19,-256 2717.19,-256 2717.19,-262 2711.19,-268 2705.19,-268"/>
<text xml:space="preserve" text-anchor="middle" x="2665" y="-247" font-family="Helvetica,sans-Serif" font-size="10.00">sq_le_two_mul_exp</text>
</a>
</g>
</g>
<!-- n14 -->
<g id="node47" class="node">
<title>n14</title>
<g id="a_node47"><a xlink:href="vscode://vscode-remote/wsl+Ubuntu/home/ai4stat/statlib/Statlib/StatFoundation/RandomVariable/SubGaussian/subgaussian_meas_abs_ge_le_two_exp.lean:9" xlink:title="theorem · Statlib/StatFoundation/RandomVariable/SubGaussian/subgaussian_meas_abs_ge_le_two_exp.lean:9" target="_blank">
<path fill="#ffe6a3" stroke="#d4a017" d="M2680.34,-196C2680.34,-196 2507.66,-196 2507.66,-196 2501.66,-196 2495.66,-190 2495.66,-184 2495.66,-184 2495.66,-172 2495.66,-172 2495.66,-166 2501.66,-160 2507.66,-160 2507.66,-160 2680.34,-160 2680.34,-160 2686.34,-160 2692.34,-166 2692.34,-172 2692.34,-172 2692.34,-184 2692.34,-184 2692.34,-190 2686.34,-196 2680.34,-196"/>
<text xml:space="preserve" text-anchor="middle" x="2594" y="-175" font-family="Helvetica,sans-Serif" font-size="10.00">subgaussian_meas_abs_ge_le_two_exp</text>
</a>
</g>
</g>
<!-- n15 -->
<g id="node48" class="node">
<title>n15</title>
<g id="a_node48"><a xlink:href="vscode://vscode-remote/wsl+Ubuntu/home/ai4stat/statlib/Statlib/StatFoundation/RandomVariable/SubGaussian/subgaussian_exp_sq_le_at_one_third.lean:14" xlink:title="theorem · Statlib/StatFoundation/RandomVariable/SubGaussian/subgaussian_exp_sq_le_at_one_third.lean:14" target="_blank">
<path fill="#ffe6a3" stroke="#d4a017" d="M2907.23,-268C2907.23,-268 2746.77,-268 2746.77,-268 2740.77,-268 2734.77,-262 2734.77,-256 2734.77,-256 2734.77,-244 2734.77,-244 2734.77,-238 2740.77,-232 2746.77,-232 2746.77,-232 2907.23,-232 2907.23,-232 2913.23,-232 2919.23,-238 2919.23,-244 2919.23,-244 2919.23,-256 2919.23,-256 2919.23,-262 2913.23,-268 2907.23,-268"/>
<text xml:space="preserve" text-anchor="middle" x="2827" y="-247" font-family="Helvetica,sans-Serif" font-size="10.00">subgaussian_exp_sq_le_at_one_third</text>
</a>
</g>
</g>
<!-- n15&#45;&gt;n14 -->
<g id="edge5" class="edge">
<title>n15&#45;&gt;n14</title>
<path fill="none" stroke="#64748b" d="M2768.81,-231.52C2735.74,-221.58 2694.22,-209.11 2659.95,-198.81"/>
<polygon fill="#64748b" stroke="#64748b" points="2660.71,-196.48 2653.31,-196.82 2659.3,-201.18 2660.71,-196.48"/>
</g>
<!-- n16 -->
<g id="node49" class="node">
<title>n16</title>
<g id="a_node49"><a xlink:href="vscode://vscode-remote/wsl+Ubuntu/home/ai4stat/statlib/Statlib/StatFoundation/RandomVariable/SubGaussian/subgaussian_exp_sq_le_at_one_third.lean:165" xlink:title="theorem · Statlib/StatFoundation/RandomVariable/SubGaussian/subgaussian_exp_sq_le_at_one_third.lean:165" target="_blank">
<path fill="#ffe6a3" stroke="#d4a017" d="M2460.3,-268C2460.3,-268 2263.7,-268 2263.7,-268 2257.7,-268 2251.7,-262 2251.7,-256 2251.7,-256 2251.7,-244 2251.7,-244 2251.7,-238 2257.7,-232 2263.7,-232 2263.7,-232 2460.3,-232 2460.3,-232 2466.3,-232 2472.3,-238 2472.3,-244 2472.3,-244 2472.3,-256 2472.3,-256 2472.3,-262 2466.3,-268 2460.3,-268"/>
<text xml:space="preserve" text-anchor="middle" x="2362" y="-247" font-family="Helvetica,sans-Serif" font-size="10.00">subgaussian_integrable_exp_sq_at_one_third</text>
</a>
</g>
</g>
<!-- n16&#45;&gt;n14 -->
<g id="edge6" class="edge">
<title>n16&#45;&gt;n14</title>
<path fill="none" stroke="#64748b" d="M2419.94,-231.52C2452.87,-221.58 2494.21,-209.11 2528.33,-198.81"/>
<polygon fill="#64748b" stroke="#64748b" points="2528.95,-201.19 2534.94,-196.82 2527.53,-196.5 2528.95,-201.19"/>
</g>
<!-- n17&#45;&gt;n12 -->
<g id="edge7" class="edge">
<title>n17&#45;&gt;n12</title>
<path fill="none" stroke="#64748b" d="M2404.21,-303.52C2430.02,-293.75 2462.31,-281.53 2489.25,-271.34"/>
<polygon fill="#64748b" stroke="#64748b" points="2489.97,-273.69 2495.65,-268.92 2488.23,-269.1 2489.97,-273.69"/>
</g>
<!-- n17&#45;&gt;n13 -->
<g id="edge8" class="edge">
<title>n17&#45;&gt;n13</title>
<path fill="none" stroke="#64748b" d="M2445.1,-303.55C2492.28,-293.77 2551.51,-280.96 2604,-268 2604.09,-267.98 2604.17,-267.96 2604.26,-267.94"/>
<polygon fill="#64748b" stroke="#64748b" points="2604.83,-270.32 2611.01,-266.22 2603.63,-265.57 2604.83,-270.32"/>
</g>
<!-- n17&#45;&gt;n15 -->
<g id="edge9" class="edge">
<title>n17&#45;&gt;n15</title>
<path fill="none" stroke="#64748b" d="M2464.2,-305.28C2467.17,-304.85 2470.1,-304.42 2473,-304 2582.77,-288.08 2612.39,-285.54 2725.95,-267.99"/>
<polygon fill="#64748b" stroke="#64748b" points="2726.24,-270.43 2732.78,-266.93 2725.49,-265.58 2726.24,-270.43"/>
</g>
<!-- n17&#45;&gt;n16 -->
<g id="edge10" class="edge">
<title>n17&#45;&gt;n16</title>
<path fill="none" stroke="#64748b" d="M2358.99,-303.7C2359.46,-295.47 2360.03,-285.48 2360.55,-276.42"/>
<polygon fill="#64748b" stroke="#64748b" points="2362.98,-276.74 2360.94,-269.62 2358.09,-276.46 2362.98,-276.74"/>
</g>
<!-- n19&#45;&gt;n10 -->
<g id="edge13" class="edge">
<title>n19&#45;&gt;n10</title>
<path fill="none" stroke="#64748b" d="M2913.72,-303.52C2929.07,-294.18 2948.1,-282.59 2964.38,-272.68"/>
<polygon fill="#64748b" stroke="#64748b" points="2965.64,-274.78 2970.35,-269.05 2963.1,-270.59 2965.64,-274.78"/>
</g>
</g>
</svg>
