<?xml version="1.0" encoding="UTF-8" standalone="no"?>
<!DOCTYPE svg PUBLIC "-//W3C//DTD SVG 1.1//EN"
 "http://www.w3.org/Graphics/SVG/1.1/DTD/svg11.dtd">
<!-- Generated by graphviz version 15.0.0 (20260523.1842)
 -->
<!-- Title: subgaussian_rip_sample_complexity Pages: 1 -->
<svg width="2557pt" height="627pt"
 viewBox="0.00 0.00 2557.00 627.00" xmlns="http://www.w3.org/2000/svg" xmlns:xlink="http://www.w3.org/1999/xlink">
<g id="graph0" class="graph" transform="scale(1 1) rotate(0) translate(4 623.2)">
<title>subgaussian_rip_sample_complexity</title>
<polygon fill="white" stroke="none" points="-4,4 -4,-623.2 2553.42,-623.2 2553.42,4 -4,4"/>
<text xml:space="preserve" text-anchor="middle" x="1274.71" y="-602.6" font-family="Helvetica,sans-Serif" font-size="14.00">Proof narrative — subgaussian_rip_sample_complexity &#160;(43 decls)</text>
<g id="clust1" class="cluster">
<title>cluster_0</title>
<path fill="none" stroke="#cbd5e1" stroke-dasharray="5,2" d="M20,-8C20,-8 1993,-8 1993,-8 1999,-8 2005,-14 2005,-20 2005,-20 2005,-574.4 2005,-574.4 2005,-580.4 1999,-586.4 1993,-586.4 1993,-586.4 20,-586.4 20,-586.4 14,-586.4 8,-580.4 8,-574.4 8,-574.4 8,-20 8,-20 8,-14 14,-8 20,-8"/>
<text xml:space="preserve" text-anchor="middle" x="1006.5" y="-572.5" font-family="Helvetica,sans-Serif" font-size="11.00">HighDim</text>
</g>
<g id="clust2" class="cluster">
<title>cluster_1</title>
<path fill="none" stroke="#cbd5e1" stroke-dasharray="5,2" d="M2025,-296C2025,-296 2523,-296 2523,-296 2529,-296 2535,-302 2535,-308 2535,-308 2535,-429.2 2535,-429.2 2535,-435.2 2529,-441.2 2523,-441.2 2523,-441.2 2025,-441.2 2025,-441.2 2019,-441.2 2013,-435.2 2013,-429.2 2013,-429.2 2013,-308 2013,-308 2013,-302 2019,-296 2025,-296"/>
<text xml:space="preserve" text-anchor="middle" x="2274" y="-427.3" font-family="Helvetica,sans-Serif" font-size="11.00">StatFoundation</text>
</g>
<!-- n0 -->
<g id="node1" class="node">
<title>n0</title>
<g id="a_node1"><a xlink:href="https://github.com/statopia/statlib/blob/main/Statlib/HighDim/Vocabulary/RandomVector.lean#L101" xlink:title="structure · Statlib/HighDim/Vocabulary/RandomVector.lean:101" target="_blank">
<path fill="#e8dcff" stroke="#8b5cf6" d="M115.79,-340C115.79,-340 28.21,-340 28.21,-340 22.21,-340 16.21,-334 16.21,-328 16.21,-328 16.21,-316 16.21,-316 16.21,-310 22.21,-304 28.21,-304 28.21,-304 115.79,-304 115.79,-304 121.79,-304 127.79,-310 127.79,-316 127.79,-316 127.79,-328 127.79,-328 127.79,-334 121.79,-340 115.79,-340"/>
<text xml:space="preserve" text-anchor="middle" x="72" y="-319" font-family="Helvetica,sans-Serif" font-size="10.00">HasCovarianceMatrix</text>
</a>
</g>
</g>
<!-- n1 -->
<g id="node2" class="node">
<title>n1</title>
<g id="a_node2"><a xlink:href="https://github.com/statopia/statlib/blob/main/Statlib/HighDim/Vocabulary/RandomVector.lean#L109" xlink:title="def · Statlib/HighDim/Vocabulary/RandomVector.lean:109" target="_blank">
<path fill="#d6e9ff" stroke="#3b82f6" d="M195.79,-412C195.79,-412 158.21,-412 158.21,-412 152.21,-412 146.21,-406 146.21,-400 146.21,-400 146.21,-388 146.21,-388 146.21,-382 152.21,-376 158.21,-376 158.21,-376 195.79,-376 195.79,-376 201.79,-376 207.79,-382 207.79,-388 207.79,-388 207.79,-400 207.79,-400 207.79,-406 201.79,-412 195.79,-412"/>
<text xml:space="preserve" text-anchor="middle" x="177" y="-391" font-family="Helvetica,sans-Serif" font-size="10.00">IsIsotropic</text>
</a>
</g>
</g>
<!-- n1&#45;&gt;n0 -->
<g id="edge1" class="edge">
<title>n1&#45;&gt;n0</title>
<path fill="none" stroke="#64748b" d="M150.77,-375.52C136.89,-366.26 119.7,-354.8 104.93,-344.95"/>
<polygon fill="#64748b" stroke="#64748b" points="106.33,-342.94 99.15,-341.1 103.62,-347.02 106.33,-342.94"/>
</g>
<!-- n2 -->
<g id="node3" class="node">
<title>n2</title>
<g id="a_node3"><a xlink:href="https://github.com/statopia/statlib/blob/main/Statlib/HighDim/Vocabulary/RandomVector.lean#L52" xlink:title="structure · Statlib/HighDim/Vocabulary/RandomVector.lean:52" target="_blank">
<path fill="#e8dcff" stroke="#8b5cf6" d="M116.36,-412C116.36,-412 27.64,-412 27.64,-412 21.64,-412 15.64,-406 15.64,-400 15.64,-400 15.64,-388 15.64,-388 15.64,-382 21.64,-376 27.64,-376 27.64,-376 116.36,-376 116.36,-376 122.36,-376 128.36,-382 128.36,-388 128.36,-388 128.36,-400 128.36,-400 128.36,-406 122.36,-412 116.36,-412"/>
<text xml:space="preserve" text-anchor="middle" x="72" y="-391" font-family="Helvetica,sans-Serif" font-size="10.00">IsSubGaussianVector</text>
</a>
</g>
</g>
<!-- n3 -->
<g id="node4" class="node">
<title>n3</title>
<g id="a_node4"><a xlink:href="https://github.com/statopia/statlib/blob/main/Statlib/HighDim/Vocabulary/Sparse.lean#L36" xlink:title="def · Statlib/HighDim/Vocabulary/Sparse.lean:36" target="_blank">
<path fill="#d6e9ff" stroke="#3b82f6" d="M1924.73,-340C1924.73,-340 1893.27,-340 1893.27,-340 1887.27,-340 1881.27,-334 1881.27,-328 1881.27,-328 1881.27,-316 1881.27,-316 1881.27,-310 1887.27,-304 1893.27,-304 1893.27,-304 1924.73,-304 1924.73,-304 1930.73,-304 1936.73,-310 1936.73,-316 1936.73,-316 1936.73,-328 1936.73,-328 1936.73,-334 1930.73,-340 1924.73,-340"/>
<text xml:space="preserve" text-anchor="middle" x="1909" y="-319" font-family="Helvetica,sans-Serif" font-size="10.00">IsSparse</text>
</a>
</g>
</g>
<!-- n4 -->
<g id="node5" class="node">
<title>n4</title>
<g id="a_node5"><a xlink:href="https://github.com/statopia/statlib/blob/main/Statlib/HighDim/Vocabulary/Norms.lean#L13" xlink:title="noncomputable def · Statlib/HighDim/Vocabulary/Norms.lean:13" target="_blank">
<path fill="#d6e9ff" stroke="#3b82f6" d="M1698.23,-52C1698.23,-52 1661.77,-52 1661.77,-52 1655.77,-52 1649.77,-46 1649.77,-40 1649.77,-40 1649.77,-28 1649.77,-28 1649.77,-22 1655.77,-16 1661.77,-16 1661.77,-16 1698.23,-16 1698.23,-16 1704.23,-16 1710.23,-22 1710.23,-28 1710.23,-28 1710.23,-40 1710.23,-40 1710.23,-46 1704.23,-52 1698.23,-52"/>
<text xml:space="preserve" text-anchor="middle" x="1680" y="-31" font-family="Helvetica,sans-Serif" font-size="10.00">l2NormSq</text>
</a>
</g>
</g>
<!-- n5 -->
<g id="node6" class="node">
<title>n5</title>
<g id="a_node6"><a xlink:href="https://github.com/statopia/statlib/blob/main/Statlib/HighDim/Vocabulary/DesignMatrix.lean#L241" xlink:title="def · Statlib/HighDim/Vocabulary/DesignMatrix.lean:241" target="_blank">
<path fill="#d6e9ff" stroke="#3b82f6" d="M1985.23,-412C1985.23,-412 1938.77,-412 1938.77,-412 1932.77,-412 1926.77,-406 1926.77,-400 1926.77,-400 1926.77,-388 1926.77,-388 1926.77,-382 1932.77,-376 1938.77,-376 1938.77,-376 1985.23,-376 1985.23,-376 1991.23,-376 1997.23,-382 1997.23,-388 1997.23,-388 1997.23,-400 1997.23,-400 1997.23,-406 1991.23,-412 1985.23,-412"/>
<text xml:space="preserve" text-anchor="middle" x="1962" y="-391" font-family="Helvetica,sans-Serif" font-size="10.00">SatisfiesRIP</text>
</a>
</g>
</g>
<!-- n5&#45;&gt;n3 -->
<g id="edge2" class="edge">
<title>n5&#45;&gt;n3</title>
<path fill="none" stroke="#64748b" d="M1948.9,-375.7C1942.29,-366.97 1934.17,-356.24 1926.98,-346.75"/>
<polygon fill="#64748b" stroke="#64748b" points="1929.04,-345.41 1922.86,-341.31 1925.14,-348.37 1929.04,-345.41"/>
</g>
<!-- n5&#45;&gt;n4 -->
<g id="edge3" class="edge">
<title>n5&#45;&gt;n4</title>
<path fill="none" stroke="#64748b" d="M1969.13,-375.58C1973.09,-365.36 1977.84,-352.11 1981,-340 1991.14,-301.19 1996,-291.11 1996,-251 1996,-251 1996,-251 1996,-177 1996,-136.89 2009.26,-116.47 1981,-88 1944.9,-51.63 1791.93,-39.97 1718.99,-36.44"/>
<polygon fill="#64748b" stroke="#64748b" points="1719.13,-33.99 1712.02,-36.12 1718.9,-38.89 1719.13,-33.99"/>
</g>
<!-- n6 -->
<g id="node7" class="node">
<title>n6</title>
<g id="a_node7"><a xlink:href="https://github.com/statopia/statlib/blob/main/Statlib/HighDim/Vocabulary/Norms.lean#L32" xlink:title="lemma · Statlib/HighDim/Vocabulary/Norms.lean:32" target="_blank">
<path fill="#eef2f6" stroke="#94a3b8" d="M709.69,-196C709.69,-196 654.31,-196 654.31,-196 648.31,-196 642.31,-190 642.31,-184 642.31,-184 642.31,-172 642.31,-172 642.31,-166 648.31,-160 654.31,-160 654.31,-160 709.69,-160 709.69,-160 715.69,-160 721.69,-166 721.69,-172 721.69,-172 721.69,-184 721.69,-184 721.69,-190 715.69,-196 709.69,-196"/>
<text xml:space="preserve" text-anchor="middle" x="682" y="-175" font-family="Helvetica,sans-Serif" font-size="10.00">inner_eq_sum</text>
</a>
</g>
</g>
<!-- n9 -->
<g id="node8" class="node">
<title>n9</title>
<g id="a_node8"><a xlink:href="https://github.com/statopia/statlib/blob/main/Statlib/HighDim/Vocabulary/Norms.lean#L21" xlink:title="lemma · Statlib/HighDim/Vocabulary/Norms.lean:21" target="_blank">
<path fill="#eef2f6" stroke="#94a3b8" d="M1379.64,-124C1379.64,-124 1300.36,-124 1300.36,-124 1294.36,-124 1288.36,-118 1288.36,-112 1288.36,-112 1288.36,-100 1288.36,-100 1288.36,-94 1294.36,-88 1300.36,-88 1300.36,-88 1379.64,-88 1379.64,-88 1385.64,-88 1391.64,-94 1391.64,-100 1391.64,-100 1391.64,-112 1391.64,-112 1391.64,-118 1385.64,-124 1379.64,-124"/>
<text xml:space="preserve" text-anchor="middle" x="1340" y="-103" font-family="Helvetica,sans-Serif" font-size="10.00">euclidean_norm_sq</text>
</a>
</g>
</g>
<!-- n9&#45;&gt;n4 -->
<g id="edge4" class="edge">
<title>n9&#45;&gt;n4</title>
<path fill="none" stroke="#64748b" d="M1392.01,-94.29C1460.59,-80.17 1579.72,-55.65 1641.05,-43.02"/>
<polygon fill="#64748b" stroke="#64748b" points="1641.46,-45.44 1647.82,-41.62 1640.47,-40.64 1641.46,-45.44"/>
</g>
<!-- n12 -->
<g id="node9" class="node">
<title>n12</title>
<g id="a_node9"><a xlink:href="https://github.com/statopia/statlib/blob/main/Statlib/HighDim/Geometry/CoveringNumbers.lean#L42" xlink:title="theorem · Statlib/HighDim/Geometry/CoveringNumbers.lean:42" target="_blank">
<path fill="#ffe6a3" stroke="#d4a017" d="M1831.38,-340C1831.38,-340 1692.62,-340 1692.62,-340 1686.62,-340 1680.62,-334 1680.62,-328 1680.62,-328 1680.62,-316 1680.62,-316 1680.62,-310 1686.62,-304 1692.62,-304 1692.62,-304 1831.38,-304 1831.38,-304 1837.38,-304 1843.38,-310 1843.38,-316 1843.38,-316 1843.38,-328 1843.38,-328 1843.38,-334 1837.38,-340 1831.38,-340"/>
<text xml:space="preserve" text-anchor="middle" x="1762" y="-319" font-family="Helvetica,sans-Serif" font-size="10.00">covering_number_euclidean_ball</text>
</a>
</g>
</g>
<!-- n13 -->
<g id="node10" class="node">
<title>n13</title>
<g id="a_node10"><a xlink:href="https://github.com/statopia/statlib/blob/main/Statlib/HighDim/Vocabulary/Norms.lean#L27" xlink:title="lemma · Statlib/HighDim/Vocabulary/Norms.lean:27" target="_blank">
<path fill="#eef2f6" stroke="#94a3b8" d="M1138.92,-196C1138.92,-196 1059.08,-196 1059.08,-196 1053.08,-196 1047.08,-190 1047.08,-184 1047.08,-184 1047.08,-172 1047.08,-172 1047.08,-166 1053.08,-160 1059.08,-160 1059.08,-160 1138.92,-160 1138.92,-160 1144.92,-160 1150.92,-166 1150.92,-172 1150.92,-172 1150.92,-184 1150.92,-184 1150.92,-190 1144.92,-196 1138.92,-196"/>
<text xml:space="preserve" text-anchor="middle" x="1099" y="-175" font-family="Helvetica,sans-Serif" font-size="10.00">euclidean_norm_eq</text>
</a>
</g>
</g>
<!-- n13&#45;&gt;n4 -->
<g id="edge6" class="edge">
<title>n13&#45;&gt;n4</title>
<path fill="none" stroke="#64748b" d="M1126.79,-159.64C1161.17,-139.03 1222.13,-105.3 1279,-88 1407.63,-48.87 1568.16,-38.62 1640.92,-35.95"/>
<polygon fill="#64748b" stroke="#64748b" points="1640.93,-38.4 1647.84,-35.71 1640.76,-33.5 1640.93,-38.4"/>
</g>
<!-- n13&#45;&gt;n9 -->
<g id="edge7" class="edge">
<title>n13&#45;&gt;n9</title>
<path fill="none" stroke="#64748b" d="M1151.29,-161.81C1189.32,-150.77 1240.86,-135.8 1280.47,-124.29"/>
<polygon fill="#64748b" stroke="#64748b" points="1280.73,-126.77 1286.77,-122.46 1279.36,-122.06 1280.73,-126.77"/>
</g>
<!-- n14 -->
<g id="node11" class="node">
<title>n14</title>
<g id="a_node11"><a xlink:href="https://github.com/statopia/statlib/blob/main/Statlib/HighDim/Geometry/CoveringNumbers.lean#L477" xlink:title="theorem · Statlib/HighDim/Geometry/CoveringNumbers.lean:477" target="_blank">
<path fill="#ffe6a3" stroke="#d4a017" d="M1658.98,-412C1658.98,-412 1533.02,-412 1533.02,-412 1527.02,-412 1521.02,-406 1521.02,-400 1521.02,-400 1521.02,-388 1521.02,-388 1521.02,-382 1527.02,-376 1533.02,-376 1533.02,-376 1658.98,-376 1658.98,-376 1664.98,-376 1670.98,-382 1670.98,-388 1670.98,-388 1670.98,-400 1670.98,-400 1670.98,-406 1664.98,-412 1658.98,-412"/>
<text xml:space="preserve" text-anchor="middle" x="1596" y="-391" font-family="Helvetica,sans-Serif" font-size="10.00">covering_number_sparse_ball</text>
</a>
</g>
</g>
<!-- n14&#45;&gt;n3 -->
<g id="edge8" class="edge">
<title>n14&#45;&gt;n3</title>
<path fill="none" stroke="#64748b" d="M1671.1,-377.76C1674.1,-377.17 1677.08,-376.58 1680,-376 1763.03,-359.61 1785.83,-363.99 1867,-340 1868.98,-339.41 1871,-338.77 1873.02,-338.09"/>
<polygon fill="#64748b" stroke="#64748b" points="1873.62,-340.47 1879.38,-335.8 1871.96,-335.86 1873.62,-340.47"/>
</g>
<!-- n14&#45;&gt;n4 -->
<g id="edge10" class="edge">
<title>n14&#45;&gt;n4</title>
<path fill="none" stroke="#64748b" d="M1671.48,-377.66C1746.73,-362.33 1851.27,-340.9 1852,-340 1878.61,-307.32 1869.04,-235.57 1825,-160 1798.91,-115.23 1750.82,-78.63 1717.2,-56.85"/>
<polygon fill="#64748b" stroke="#64748b" points="1718.75,-54.94 1711.53,-53.24 1716.12,-59.07 1718.75,-54.94"/>
</g>
<!-- n14&#45;&gt;n12 -->
<g id="edge9" class="edge">
<title>n14&#45;&gt;n12</title>
<path fill="none" stroke="#64748b" d="M1637.46,-375.52C1660.42,-365.83 1689.1,-353.74 1713.15,-343.6"/>
<polygon fill="#64748b" stroke="#64748b" points="1713.89,-345.95 1719.39,-340.97 1711.98,-341.43 1713.89,-345.95"/>
</g>
<!-- n14&#45;&gt;n13 -->
<g id="edge11" class="edge">
<title>n14&#45;&gt;n13</title>
<path fill="none" stroke="#64748b" d="M1520.61,-381.47C1469.9,-372.27 1408.96,-357.98 1390,-340 1353.48,-305.38 1393.34,-265.73 1356,-232 1327.67,-206.41 1226.3,-191.61 1159.66,-184.44"/>
<polygon fill="#64748b" stroke="#64748b" points="1160.03,-182.02 1152.81,-183.72 1159.52,-186.89 1160.03,-182.02"/>
</g>
<!-- n15 -->
<g id="node12" class="node">
<title>n15</title>
<g id="a_node12"><a xlink:href="https://github.com/statopia/statlib/blob/main/Statlib/HighDim/Geometry/RIPConstruction.lean#L198" xlink:title="lemma · Statlib/HighDim/Geometry/RIPConstruction.lean:198" target="_blank">
<path fill="#eef2f6" stroke="#94a3b8" d="M1013.57,-412C1013.57,-412 940.43,-412 940.43,-412 934.43,-412 928.43,-406 928.43,-400 928.43,-400 928.43,-388 928.43,-388 928.43,-382 934.43,-376 940.43,-376 940.43,-376 1013.57,-376 1013.57,-376 1019.57,-376 1025.57,-382 1025.57,-388 1025.57,-388 1025.57,-400 1025.57,-400 1025.57,-406 1019.57,-412 1013.57,-412"/>
<text xml:space="preserve" text-anchor="middle" x="977" y="-391" font-family="Helvetica,sans-Serif" font-size="10.00">mulVec_smul_vec</text>
</a>
</g>
</g>
<!-- n16 -->
<g id="node13" class="node">
<title>n16</title>
<g id="a_node13"><a xlink:href="https://github.com/statopia/statlib/blob/main/Statlib/HighDim/Geometry/RIPConstruction.lean#L190" xlink:title="lemma · Statlib/HighDim/Geometry/RIPConstruction.lean:190" target="_blank">
<path fill="#eef2f6" stroke="#94a3b8" d="M1944.57,-124C1944.57,-124 1881.43,-124 1881.43,-124 1875.43,-124 1869.43,-118 1869.43,-112 1869.43,-112 1869.43,-100 1869.43,-100 1869.43,-94 1875.43,-88 1881.43,-88 1881.43,-88 1944.57,-88 1944.57,-88 1950.57,-88 1956.57,-94 1956.57,-100 1956.57,-100 1956.57,-112 1956.57,-112 1956.57,-118 1950.57,-124 1944.57,-124"/>
<text xml:space="preserve" text-anchor="middle" x="1913" y="-103" font-family="Helvetica,sans-Serif" font-size="10.00">l2NormSq_smul</text>
</a>
</g>
</g>
<!-- n16&#45;&gt;n4 -->
<g id="edge12" class="edge">
<title>n16&#45;&gt;n4</title>
<path fill="none" stroke="#64748b" d="M1869.17,-91.83C1825.8,-78.8 1760.04,-59.04 1718.58,-46.59"/>
<polygon fill="#64748b" stroke="#64748b" points="1719.49,-44.3 1712.08,-44.64 1718.08,-49 1719.49,-44.3"/>
</g>
<!-- n17 -->
<g id="node14" class="node">
<title>n17</title>
<g id="a_node14"><a xlink:href="https://github.com/statopia/statlib/blob/main/Statlib/HighDim/CovarianceMatrix/SampleCovariance.lean#L199" xlink:title="noncomputable def · Statlib/HighDim/CovarianceMatrix/SampleCovariance.lean:199" target="_blank">
<path fill="#d6e9ff" stroke="#3b82f6" d="M1335.14,-268C1335.14,-268 1240.86,-268 1240.86,-268 1234.86,-268 1228.86,-262 1228.86,-256 1228.86,-256 1228.86,-244 1228.86,-244 1228.86,-238 1234.86,-232 1240.86,-232 1240.86,-232 1335.14,-232 1335.14,-232 1341.14,-232 1347.14,-238 1347.14,-244 1347.14,-244 1347.14,-256 1347.14,-256 1347.14,-262 1341.14,-268 1335.14,-268"/>
<text xml:space="preserve" text-anchor="middle" x="1288" y="-247" font-family="Helvetica,sans-Serif" font-size="10.00">sampleSecondMoment</text>
</a>
</g>
</g>
<!-- n18 -->
<g id="node15" class="node">
<title>n18</title>
<g id="a_node15"><a xlink:href="https://github.com/statopia/statlib/blob/main/Statlib/HighDim/Vocabulary/Restrictions.lean#L15" xlink:title="def · Statlib/HighDim/Vocabulary/Restrictions.lean:15" target="_blank">
<path fill="#d6e9ff" stroke="#3b82f6" d="M352.34,-196C352.34,-196 293.66,-196 293.66,-196 287.66,-196 281.66,-190 281.66,-184 281.66,-184 281.66,-172 281.66,-172 281.66,-166 287.66,-160 293.66,-160 293.66,-160 352.34,-160 352.34,-160 358.34,-160 364.34,-166 364.34,-172 364.34,-172 364.34,-184 364.34,-184 364.34,-190 358.34,-196 352.34,-196"/>
<text xml:space="preserve" text-anchor="middle" x="323" y="-175" font-family="Helvetica,sans-Serif" font-size="10.00">restrictByEquiv</text>
</a>
</g>
</g>
<!-- n19 -->
<g id="node16" class="node">
<title>n19</title>
<g id="a_node16"><a xlink:href="https://github.com/statopia/statlib/blob/main/Statlib/HighDim/Vocabulary/Restrictions.lean#L20" xlink:title="def · Statlib/HighDim/Vocabulary/Restrictions.lean:20" target="_blank">
<path fill="#d6e9ff" stroke="#3b82f6" d="M627.35,-124C627.35,-124 568.65,-124 568.65,-124 562.65,-124 556.65,-118 556.65,-112 556.65,-112 556.65,-100 556.65,-100 556.65,-94 562.65,-88 568.65,-88 568.65,-88 627.35,-88 627.35,-88 633.35,-88 639.35,-94 639.35,-100 639.35,-100 639.35,-112 639.35,-112 639.35,-118 633.35,-124 627.35,-124"/>
<text xml:space="preserve" text-anchor="middle" x="598" y="-103" font-family="Helvetica,sans-Serif" font-size="10.00">extendByEquiv</text>
</a>
</g>
</g>
<!-- n20 -->
<g id="node17" class="node">
<title>n20</title>
<g id="a_node17"><a xlink:href="https://github.com/statopia/statlib/blob/main/Statlib/HighDim/Geometry/RIPConstruction.lean#L349" xlink:title="lemma · Statlib/HighDim/Geometry/RIPConstruction.lean:349" target="_blank">
<path fill="#eef2f6" stroke="#94a3b8" d="M900.36,-196C900.36,-196 791.64,-196 791.64,-196 785.64,-196 779.64,-190 779.64,-184 779.64,-184 779.64,-172 779.64,-172 779.64,-166 785.64,-160 791.64,-160 791.64,-160 900.36,-160 900.36,-160 906.36,-160 912.36,-166 912.36,-172 912.36,-172 912.36,-184 912.36,-184 912.36,-190 906.36,-196 900.36,-196"/>
<text xml:space="preserve" text-anchor="middle" x="846" y="-175" font-family="Helvetica,sans-Serif" font-size="10.00">extendByEquiv_l2NormSq</text>
</a>
</g>
</g>
<!-- n20&#45;&gt;n4 -->
<g id="edge13" class="edge">
<title>n20&#45;&gt;n4</title>
<path fill="none" stroke="#64748b" d="M902.78,-159.53C970.35,-139.39 1086.87,-106.66 1189,-88 1355.58,-57.57 1557.39,-42.54 1640.91,-37.27"/>
<polygon fill="#64748b" stroke="#64748b" points="1640.98,-39.72 1647.81,-36.84 1640.67,-34.83 1640.98,-39.72"/>
</g>
<!-- n20&#45;&gt;n19 -->
<g id="edge14" class="edge">
<title>n20&#45;&gt;n19</title>
<path fill="none" stroke="#64748b" d="M784.06,-159.52C742,-147.65 687.11,-132.15 647.87,-121.08"/>
<polygon fill="#64748b" stroke="#64748b" points="648.6,-118.74 641.2,-119.19 647.27,-123.45 648.6,-118.74"/>
</g>
<!-- n21 -->
<g id="node18" class="node">
<title>n21</title>
<g id="a_node18"><a xlink:href="https://github.com/statopia/statlib/blob/main/Statlib/HighDim/Geometry/RIPConstruction.lean#L379" xlink:title="lemma · Statlib/HighDim/Geometry/RIPConstruction.lean:379" target="_blank">
<path fill="#eef2f6" stroke="#94a3b8" d="M859.53,-268C859.53,-268 772.47,-268 772.47,-268 766.47,-268 760.47,-262 760.47,-256 760.47,-256 760.47,-244 760.47,-244 760.47,-238 766.47,-232 772.47,-232 772.47,-232 859.53,-232 859.53,-232 865.53,-232 871.53,-238 871.53,-244 871.53,-244 871.53,-256 871.53,-256 871.53,-262 865.53,-268 859.53,-268"/>
<text xml:space="preserve" text-anchor="middle" x="816" y="-247" font-family="Helvetica,sans-Serif" font-size="10.00">extendByEquiv_norm</text>
</a>
</g>
</g>
<!-- n21&#45;&gt;n13 -->
<g id="edge16" class="edge">
<title>n21&#45;&gt;n13</title>
<path fill="none" stroke="#64748b" d="M871.83,-234.09C874.59,-233.38 877.33,-232.68 880,-232 933.54,-218.41 994.65,-203.69 1038.69,-193.22"/>
<polygon fill="#64748b" stroke="#64748b" points="1038.99,-195.66 1045.23,-191.66 1037.86,-190.9 1038.99,-195.66"/>
</g>
<!-- n21&#45;&gt;n19 -->
<g id="edge15" class="edge">
<title>n21&#45;&gt;n19</title>
<path fill="none" stroke="#64748b" d="M800.56,-231.69C791.67,-221.5 780.42,-208.25 771,-196 759.13,-180.56 761.46,-171.85 746,-160 717.16,-137.9 678.3,-124.46 647.64,-116.64"/>
<polygon fill="#64748b" stroke="#64748b" points="648.48,-114.32 641.1,-115.04 647.31,-119.08 648.48,-114.32"/>
</g>
<!-- n21&#45;&gt;n20 -->
<g id="edge17" class="edge">
<title>n21&#45;&gt;n20</title>
<path fill="none" stroke="#64748b" d="M823.42,-231.7C827.01,-223.3 831.4,-213.07 835.35,-203.86"/>
<polygon fill="#64748b" stroke="#64748b" points="837.57,-204.89 838.07,-197.5 833.06,-202.96 837.57,-204.89"/>
</g>
<!-- n22 -->
<g id="node19" class="node">
<title>n22</title>
<g id="a_node19"><a xlink:href="https://github.com/statopia/statlib/blob/main/Statlib/HighDim/Geometry/RIPConstruction.lean#L384" xlink:title="lemma · Statlib/HighDim/Geometry/RIPConstruction.lean:384" target="_blank">
<path fill="#eef2f6" stroke="#94a3b8" d="M291.89,-268C291.89,-268 108.11,-268 108.11,-268 102.11,-268 96.11,-262 96.11,-256 96.11,-256 96.11,-244 96.11,-244 96.11,-238 102.11,-232 108.11,-232 108.11,-232 291.89,-232 291.89,-232 297.89,-232 303.89,-238 303.89,-244 303.89,-244 303.89,-256 303.89,-256 303.89,-262 297.89,-268 291.89,-268"/>
<text xml:space="preserve" text-anchor="middle" x="200" y="-247" font-family="Helvetica,sans-Serif" font-size="10.00">extendByEquiv_restrictByEquiv_of_support</text>
</a>
</g>
</g>
<!-- n22&#45;&gt;n18 -->
<g id="edge19" class="edge">
<title>n22&#45;&gt;n18</title>
<path fill="none" stroke="#64748b" d="M230.72,-231.52C247.28,-222.09 267.86,-210.38 285.37,-200.41"/>
<polygon fill="#64748b" stroke="#64748b" points="286.48,-202.6 291.36,-197.01 284.06,-198.34 286.48,-202.6"/>
</g>
<!-- n22&#45;&gt;n19 -->
<g id="edge18" class="edge">
<title>n22&#45;&gt;n19</title>
<path fill="none" stroke="#64748b" d="M209.01,-231.72C220.77,-211.04 243.39,-177.06 273,-160 318.94,-133.53 468.93,-117.59 548.07,-110.82"/>
<polygon fill="#64748b" stroke="#64748b" points="548.16,-113.27 554.93,-110.25 547.74,-108.39 548.16,-113.27"/>
</g>
<!-- n23 -->
<g id="node20" class="node">
<title>n23</title>
<g id="a_node20"><a xlink:href="https://github.com/statopia/statlib/blob/main/Statlib/HighDim/Geometry/RIPConstruction.lean#L401" xlink:title="lemma · Statlib/HighDim/Geometry/RIPConstruction.lean:401" target="_blank">
<path fill="#eef2f6" stroke="#94a3b8" d="M478.92,-340C478.92,-340 339.08,-340 339.08,-340 333.08,-340 327.08,-334 327.08,-328 327.08,-328 327.08,-316 327.08,-316 327.08,-310 333.08,-304 339.08,-304 339.08,-304 478.92,-304 478.92,-304 484.92,-304 490.92,-310 490.92,-316 490.92,-316 490.92,-328 490.92,-328 490.92,-334 484.92,-340 478.92,-340"/>
<text xml:space="preserve" text-anchor="middle" x="409" y="-319" font-family="Helvetica,sans-Serif" font-size="10.00">restrictByEquiv_norm_of_support</text>
</a>
</g>
</g>
<!-- n23&#45;&gt;n18 -->
<g id="edge20" class="edge">
<title>n23&#45;&gt;n18</title>
<path fill="none" stroke="#64748b" d="M371.47,-303.55C357.08,-294.91 341.97,-283.07 333,-268 321.67,-248.97 319.85,-223.56 320.47,-204.77"/>
<polygon fill="#64748b" stroke="#64748b" points="322.91,-205.02 320.84,-197.9 318.02,-204.76 322.91,-205.02"/>
</g>
<!-- n23&#45;&gt;n21 -->
<g id="edge21" class="edge">
<title>n23&#45;&gt;n21</title>
<path fill="none" stroke="#64748b" d="M491.36,-306.83C568.26,-293.61 681.43,-274.14 751.82,-262.04"/>
<polygon fill="#64748b" stroke="#64748b" points="752.22,-264.46 758.7,-260.85 751.39,-259.63 752.22,-264.46"/>
</g>
<!-- n23&#45;&gt;n22 -->
<g id="edge22" class="edge">
<title>n23&#45;&gt;n22</title>
<path fill="none" stroke="#64748b" d="M356.8,-303.52C327.39,-293.67 290.53,-281.32 259.94,-271.07"/>
<polygon fill="#64748b" stroke="#64748b" points="260.75,-268.76 253.33,-268.86 259.19,-273.41 260.75,-268.76"/>
</g>
<!-- n24 -->
<g id="node21" class="node">
<title>n24</title>
<g id="a_node21"><a xlink:href="https://github.com/statopia/statlib/blob/main/Statlib/HighDim/Geometry/RIPConstruction.lean#L409" xlink:title="lemma · Statlib/HighDim/Geometry/RIPConstruction.lean:409" target="_blank">
<path fill="#eef2f6" stroke="#94a3b8" d="M572.31,-412C572.31,-412 439.69,-412 439.69,-412 433.69,-412 427.69,-406 427.69,-400 427.69,-400 427.69,-388 427.69,-388 427.69,-382 433.69,-376 439.69,-376 439.69,-376 572.31,-376 572.31,-376 578.31,-376 584.31,-382 584.31,-388 584.31,-388 584.31,-400 584.31,-400 584.31,-406 578.31,-412 572.31,-412"/>
<text xml:space="preserve" text-anchor="middle" x="506" y="-391" font-family="Helvetica,sans-Serif" font-size="10.00">restrictByEquiv_dist_of_support</text>
</a>
</g>
</g>
<!-- n24&#45;&gt;n18 -->
<g id="edge23" class="edge">
<title>n24&#45;&gt;n18</title>
<path fill="none" stroke="#64748b" d="M434.28,-375.51C395.28,-365.69 346.3,-352.85 303,-340 290.87,-336.4 94.4,-278.26 87,-268 38.61,-200.86 190.32,-184.34 273.03,-180.3"/>
<polygon fill="#64748b" stroke="#64748b" points="272.91,-182.76 279.79,-179.99 272.68,-177.86 272.91,-182.76"/>
</g>
<!-- n24&#45;&gt;n23 -->
<g id="edge24" class="edge">
<title>n24&#45;&gt;n23</title>
<path fill="none" stroke="#64748b" d="M482.02,-375.7C469.31,-366.53 453.56,-355.16 439.94,-345.33"/>
<polygon fill="#64748b" stroke="#64748b" points="441.38,-343.34 434.27,-341.23 438.51,-347.32 441.38,-343.34"/>
</g>
<!-- n25 -->
<g id="node22" class="node">
<title>n25</title>
<g id="a_node22"><a xlink:href="https://github.com/statopia/statlib/blob/main/Statlib/HighDim/Geometry/RIPConstruction.lean#L394" xlink:title="lemma · Statlib/HighDim/Geometry/RIPConstruction.lean:394" target="_blank">
<path fill="#eef2f6" stroke="#94a3b8" d="M484.48,-268C484.48,-268 353.52,-268 353.52,-268 347.52,-268 341.52,-262 341.52,-256 341.52,-256 341.52,-244 341.52,-244 341.52,-238 347.52,-232 353.52,-232 353.52,-232 484.48,-232 484.48,-232 490.48,-232 496.48,-238 496.48,-244 496.48,-244 496.48,-256 496.48,-256 496.48,-262 490.48,-268 484.48,-268"/>
<text xml:space="preserve" text-anchor="middle" x="419" y="-247" font-family="Helvetica,sans-Serif" font-size="10.00">restrictByEquiv_extendByEquiv</text>
</a>
</g>
</g>
<!-- n25&#45;&gt;n18 -->
<g id="edge25" class="edge">
<title>n25&#45;&gt;n18</title>
<path fill="none" stroke="#64748b" d="M395.27,-231.7C382.69,-222.53 367.1,-211.16 353.62,-201.33"/>
<polygon fill="#64748b" stroke="#64748b" points="355.11,-199.38 348.01,-197.24 352.23,-203.34 355.11,-199.38"/>
</g>
<!-- n25&#45;&gt;n19 -->
<g id="edge26" class="edge">
<title>n25&#45;&gt;n19</title>
<path fill="none" stroke="#64748b" d="M440.95,-231.59C473.38,-205.86 534.1,-157.69 569.79,-129.38"/>
<polygon fill="#64748b" stroke="#64748b" points="571,-131.54 574.97,-125.27 567.96,-127.7 571,-131.54"/>
</g>
<!-- n26 -->
<g id="node23" class="node">
<title>n26</title>
<g id="a_node23"><a xlink:href="https://github.com/statopia/statlib/blob/main/Statlib/HighDim/CovarianceMatrix/SampleCovariance.lean#L205" xlink:title="lemma · Statlib/HighDim/CovarianceMatrix/SampleCovariance.lean:205" target="_blank">
<path fill="#eef2f6" stroke="#94a3b8" d="M1170.69,-340C1170.69,-340 1035.31,-340 1035.31,-340 1029.31,-340 1023.31,-334 1023.31,-328 1023.31,-328 1023.31,-316 1023.31,-316 1023.31,-310 1029.31,-304 1035.31,-304 1035.31,-304 1170.69,-304 1170.69,-304 1176.69,-304 1182.69,-310 1182.69,-316 1182.69,-316 1182.69,-328 1182.69,-328 1182.69,-334 1176.69,-340 1170.69,-340"/>
<text xml:space="preserve" text-anchor="middle" x="1103" y="-319" font-family="Helvetica,sans-Serif" font-size="10.00">sampleSecondMoment_isSymm</text>
</a>
</g>
</g>
<!-- n26&#45;&gt;n17 -->
<g id="edge27" class="edge">
<title>n26&#45;&gt;n17</title>
<path fill="none" stroke="#64748b" d="M1149.21,-303.52C1175.02,-293.75 1207.31,-281.53 1234.25,-271.34"/>
<polygon fill="#64748b" stroke="#64748b" points="1234.97,-273.69 1240.65,-268.92 1233.23,-269.1 1234.97,-273.69"/>
</g>
<!-- n27 -->
<g id="node24" class="node">
<title>n27</title>
<g id="a_node24"><a xlink:href="https://github.com/statopia/statlib/blob/main/Statlib/HighDim/CovarianceMatrix/SampleCovariance.lean#L187" xlink:title="lemma · Statlib/HighDim/CovarianceMatrix/SampleCovariance.lean:187" target="_blank">
<path fill="#eef2f6" stroke="#94a3b8" d="M377.63,-412C377.63,-412 258.37,-412 258.37,-412 252.37,-412 246.37,-406 246.37,-400 246.37,-400 246.37,-388 246.37,-388 246.37,-382 252.37,-376 258.37,-376 258.37,-376 377.63,-376 377.63,-376 383.63,-376 389.63,-382 389.63,-388 389.63,-388 389.63,-400 389.63,-400 389.63,-406 383.63,-412 377.63,-412"/>
<text xml:space="preserve" text-anchor="middle" x="318" y="-391" font-family="Helvetica,sans-Serif" font-size="10.00">real_isHermitian_of_isSymm</text>
</a>
</g>
</g>
<!-- n28 -->
<g id="node25" class="node">
<title>n28</title>
<g id="a_node25"><a xlink:href="https://github.com/statopia/statlib/blob/main/Statlib/HighDim/Vocabulary/Norms.lean#L41" xlink:title="noncomputable def · Statlib/HighDim/Vocabulary/Norms.lean:41" target="_blank">
<path fill="#d6e9ff" stroke="#3b82f6" d="M1327.13,-196C1327.13,-196 1282.87,-196 1282.87,-196 1276.87,-196 1270.87,-190 1270.87,-184 1270.87,-184 1270.87,-172 1270.87,-172 1270.87,-166 1276.87,-160 1282.87,-160 1282.87,-160 1327.13,-160 1327.13,-160 1333.13,-160 1339.13,-166 1339.13,-172 1339.13,-172 1339.13,-184 1339.13,-184 1339.13,-190 1333.13,-196 1327.13,-196"/>
<text xml:space="preserve" text-anchor="middle" x="1305" y="-175" font-family="Helvetica,sans-Serif" font-size="10.00">toEuclidean</text>
</a>
</g>
</g>
<!-- n29 -->
<g id="node26" class="node">
<title>n29</title>
<g id="a_node26"><a xlink:href="https://github.com/statopia/statlib/blob/main/Statlib/HighDim/CovarianceMatrix/SampleCovariance.lean#L42" xlink:title="lemma · Statlib/HighDim/CovarianceMatrix/SampleCovariance.lean:42" target="_blank">
<path fill="#eef2f6" stroke="#94a3b8" d="M1597.23,-268C1597.23,-268 1416.77,-268 1416.77,-268 1410.77,-268 1404.77,-262 1404.77,-256 1404.77,-256 1404.77,-244 1404.77,-244 1404.77,-238 1410.77,-232 1416.77,-232 1416.77,-232 1597.23,-232 1597.23,-232 1603.23,-232 1609.23,-238 1609.23,-244 1609.23,-244 1609.23,-256 1609.23,-256 1609.23,-262 1603.23,-268 1597.23,-268"/>
<text xml:space="preserve" text-anchor="middle" x="1507" y="-247" font-family="Helvetica,sans-Serif" font-size="10.00">hermitian_norm_eq_diagonal_eigenvalues</text>
</a>
</g>
</g>
<!-- n30 -->
<g id="node27" class="node">
<title>n30</title>
<g id="a_node27"><a xlink:href="https://github.com/statopia/statlib/blob/main/Statlib/HighDim/CovarianceMatrix/SampleCovariance.lean#L62" xlink:title="lemma · Statlib/HighDim/CovarianceMatrix/SampleCovariance.lean:62" target="_blank">
<path fill="#eef2f6" stroke="#94a3b8" d="M1749.21,-268C1749.21,-268 1638.79,-268 1638.79,-268 1632.79,-268 1626.79,-262 1626.79,-256 1626.79,-256 1626.79,-244 1626.79,-244 1626.79,-238 1632.79,-232 1638.79,-232 1638.79,-232 1749.21,-232 1749.21,-232 1755.21,-232 1761.21,-238 1761.21,-244 1761.21,-244 1761.21,-256 1761.21,-256 1761.21,-262 1755.21,-268 1749.21,-268"/>
<text xml:space="preserve" text-anchor="middle" x="1694" y="-247" font-family="Helvetica,sans-Serif" font-size="10.00">pi_real_norm_eq_sup_abs</text>
</a>
</g>
</g>
<!-- n31 -->
<g id="node28" class="node">
<title>n31</title>
<g id="a_node28"><a xlink:href="https://github.com/statopia/statlib/blob/main/Statlib/HighDim/CovarianceMatrix/SampleCovariance.lean#L72" xlink:title="lemma · Statlib/HighDim/CovarianceMatrix/SampleCovariance.lean:72" target="_blank">
<path fill="#eef2f6" stroke="#94a3b8" d="M1591.23,-340C1591.23,-340 1410.77,-340 1410.77,-340 1404.77,-340 1398.77,-334 1398.77,-328 1398.77,-328 1398.77,-316 1398.77,-316 1398.77,-310 1404.77,-304 1410.77,-304 1410.77,-304 1591.23,-304 1591.23,-304 1597.23,-304 1603.23,-310 1603.23,-316 1603.23,-316 1603.23,-328 1603.23,-328 1603.23,-334 1597.23,-340 1591.23,-340"/>
<text xml:space="preserve" text-anchor="middle" x="1501" y="-319" font-family="Helvetica,sans-Serif" font-size="10.00">hermitian_norm_eq_sup_abs_eigenvalues</text>
</a>
</g>
</g>
<!-- n31&#45;&gt;n29 -->
<g id="edge28" class="edge">
<title>n31&#45;&gt;n29</title>
<path fill="none" stroke="#64748b" d="M1502.48,-303.7C1503.19,-295.47 1504.04,-285.48 1504.82,-276.42"/>
<polygon fill="#64748b" stroke="#64748b" points="1507.25,-276.8 1505.4,-269.61 1502.37,-276.38 1507.25,-276.8"/>
</g>
<!-- n31&#45;&gt;n30 -->
<g id="edge29" class="edge">
<title>n31&#45;&gt;n30</title>
<path fill="none" stroke="#64748b" d="M1549.2,-303.52C1576.25,-293.71 1610.11,-281.43 1638.29,-271.21"/>
<polygon fill="#64748b" stroke="#64748b" points="1638.91,-273.59 1644.65,-268.9 1637.24,-268.98 1638.91,-273.59"/>
</g>
<!-- n32 -->
<g id="node29" class="node">
<title>n32</title>
<g id="a_node29"><a xlink:href="https://github.com/statopia/statlib/blob/main/Statlib/HighDim/CovarianceMatrix/SampleCovariance.lean#L81" xlink:title="lemma · Statlib/HighDim/CovarianceMatrix/SampleCovariance.lean:81" target="_blank">
<path fill="#eef2f6" stroke="#94a3b8" d="M1450.54,-412C1450.54,-412 1313.46,-412 1313.46,-412 1307.46,-412 1301.46,-406 1301.46,-400 1301.46,-400 1301.46,-388 1301.46,-388 1301.46,-382 1307.46,-376 1313.46,-376 1313.46,-376 1450.54,-376 1450.54,-376 1456.54,-376 1462.54,-382 1462.54,-388 1462.54,-388 1462.54,-400 1462.54,-400 1462.54,-406 1456.54,-412 1450.54,-412"/>
<text xml:space="preserve" text-anchor="middle" x="1382" y="-391" font-family="Helvetica,sans-Serif" font-size="10.00">hermitian_norm_le_two_net_sup</text>
</a>
</g>
</g>
<!-- n32&#45;&gt;n28 -->
<g id="edge30" class="edge">
<title>n32&#45;&gt;n28</title>
<path fill="none" stroke="#64748b" d="M1462.85,-377.68C1524.11,-365.52 1599.78,-349.1 1612,-340 1630.04,-326.56 1618.84,-309.27 1637,-296 1685.78,-260.37 1731.94,-314.91 1770,-268 1780.08,-255.58 1780.65,-243.94 1770,-232 1742.09,-200.72 1456.99,-185.43 1347.5,-180.68"/>
<polygon fill="#64748b" stroke="#64748b" points="1347.92,-178.24 1340.82,-180.39 1347.71,-183.14 1347.92,-178.24"/>
</g>
<!-- n32&#45;&gt;n31 -->
<g id="edge31" class="edge">
<title>n32&#45;&gt;n31</title>
<path fill="none" stroke="#64748b" d="M1411.72,-375.52C1427.74,-366.09 1447.65,-354.38 1464.6,-344.41"/>
<polygon fill="#64748b" stroke="#64748b" points="1465.56,-346.69 1470.35,-341.03 1463.08,-342.47 1465.56,-346.69"/>
</g>
<!-- n33 -->
<g id="node30" class="node">
<title>n33</title>
<g id="a_node30"><a xlink:href="https://github.com/statopia/statlib/blob/main/Statlib/HighDim/CovarianceMatrix/SampleCovariance.lean#L324" xlink:title="lemma · Statlib/HighDim/CovarianceMatrix/SampleCovariance.lean:324" target="_blank">
<path fill="#eef2f6" stroke="#94a3b8" d="M1008.53,-268C1008.53,-268 901.47,-268 901.47,-268 895.47,-268 889.47,-262 889.47,-256 889.47,-256 889.47,-244 889.47,-244 889.47,-238 895.47,-232 901.47,-232 901.47,-232 1008.53,-232 1008.53,-232 1014.53,-232 1020.53,-238 1020.53,-244 1020.53,-244 1020.53,-256 1020.53,-256 1020.53,-262 1014.53,-268 1008.53,-268"/>
<text xml:space="preserve" text-anchor="middle" x="955" y="-247" font-family="Helvetica,sans-Serif" font-size="10.00">matrix_quadratic_eq_sum</text>
</a>
</g>
</g>
<!-- n33&#45;&gt;n6 -->
<g id="edge33" class="edge">
<title>n33&#45;&gt;n6</title>
<path fill="none" stroke="#64748b" d="M889.26,-232.14C840.1,-219.54 774.01,-202.59 729.8,-191.26"/>
<polygon fill="#64748b" stroke="#64748b" points="730.67,-188.95 723.28,-189.58 729.45,-193.7 730.67,-188.95"/>
</g>
<!-- n33&#45;&gt;n28 -->
<g id="edge32" class="edge">
<title>n33&#45;&gt;n28</title>
<path fill="none" stroke="#64748b" d="M1020.82,-233.95C1023.92,-233.28 1026.99,-232.63 1030,-232 1111.98,-214.81 1208.17,-196.76 1262.31,-186.78"/>
<polygon fill="#64748b" stroke="#64748b" points="1262.7,-189.2 1269.14,-185.53 1261.81,-184.38 1262.7,-189.2"/>
</g>
<!-- n34 -->
<g id="node31" class="node">
<title>n34</title>
<g id="a_node31"><a xlink:href="https://github.com/statopia/statlib/blob/main/Statlib/HighDim/CovarianceMatrix/SampleCovariance.lean#L336" xlink:title="lemma · Statlib/HighDim/CovarianceMatrix/SampleCovariance.lean:336" target="_blank">
<path fill="#eef2f6" stroke="#94a3b8" d="M1139.08,-268C1139.08,-268 1050.92,-268 1050.92,-268 1044.92,-268 1038.92,-262 1038.92,-256 1038.92,-256 1038.92,-244 1038.92,-244 1038.92,-238 1044.92,-232 1050.92,-232 1050.92,-232 1139.08,-232 1139.08,-232 1145.08,-232 1151.08,-238 1151.08,-244 1151.08,-244 1151.08,-256 1151.08,-256 1151.08,-262 1145.08,-268 1139.08,-268"/>
<text xml:space="preserve" text-anchor="middle" x="1095" y="-247" font-family="Helvetica,sans-Serif" font-size="10.00">fin_sum_comm_three</text>
</a>
</g>
</g>
<!-- n35 -->
<g id="node32" class="node">
<title>n35</title>
<g id="a_node32"><a xlink:href="https://github.com/statopia/statlib/blob/main/Statlib/HighDim/CovarianceMatrix/SampleCovariance.lean#L346" xlink:title="lemma · Statlib/HighDim/CovarianceMatrix/SampleCovariance.lean:346" target="_blank">
<path fill="#eef2f6" stroke="#94a3b8" d="M912.52,-340C912.52,-340 681.48,-340 681.48,-340 675.48,-340 669.48,-334 669.48,-328 669.48,-328 669.48,-316 669.48,-316 669.48,-310 675.48,-304 681.48,-304 681.48,-304 912.52,-304 912.52,-304 918.52,-304 924.52,-310 924.52,-316 924.52,-316 924.52,-328 924.52,-328 924.52,-334 918.52,-340 912.52,-340"/>
<text xml:space="preserve" text-anchor="middle" x="797" y="-319" font-family="Helvetica,sans-Serif" font-size="10.00">sampleSecondMoment_quadratic_eq_projection_sum</text>
</a>
</g>
</g>
<!-- n35&#45;&gt;n6 -->
<g id="edge38" class="edge">
<title>n35&#45;&gt;n6</title>
<path fill="none" stroke="#64748b" d="M781.42,-303.54C772.39,-293.31 760.89,-280.06 751,-268 733.11,-246.19 713.46,-220.7 699.73,-202.6"/>
<polygon fill="#64748b" stroke="#64748b" points="702.04,-201.59 695.86,-197.49 698.14,-204.55 702.04,-201.59"/>
</g>
<!-- n35&#45;&gt;n17 -->
<g id="edge35" class="edge">
<title>n35&#45;&gt;n17</title>
<path fill="none" stroke="#64748b" d="M923.28,-303.53C941.96,-300.98 960.98,-298.41 979,-296 1074.95,-283.19 1099.36,-282.93 1195,-268 1203.23,-266.71 1211.86,-265.27 1220.4,-263.78"/>
<polygon fill="#64748b" stroke="#64748b" points="1220.59,-266.24 1227.05,-262.61 1219.73,-261.41 1220.59,-266.24"/>
</g>
<!-- n35&#45;&gt;n28 -->
<g id="edge34" class="edge">
<title>n35&#45;&gt;n28</title>
<path fill="none" stroke="#64748b" d="M908.95,-303.5C925.72,-300.95 942.81,-298.38 959,-296 1048.24,-282.9 1077.16,-303.67 1160,-268 1183.52,-257.87 1183.59,-246.06 1205,-232 1223.56,-219.81 1245.22,-208.06 1263.62,-198.73"/>
<polygon fill="#64748b" stroke="#64748b" points="1264.26,-201.15 1269.41,-195.82 1262.06,-196.77 1264.26,-201.15"/>
</g>
<!-- n35&#45;&gt;n33 -->
<g id="edge36" class="edge">
<title>n35&#45;&gt;n33</title>
<path fill="none" stroke="#64748b" d="M836.46,-303.52C858.22,-293.88 885.38,-281.84 908.21,-271.73"/>
<polygon fill="#64748b" stroke="#64748b" points="908.98,-274.07 914.38,-268.99 906.99,-269.59 908.98,-274.07"/>
</g>
<!-- n35&#45;&gt;n34 -->
<g id="edge37" class="edge">
<title>n35&#45;&gt;n34</title>
<path fill="none" stroke="#64748b" d="M876.68,-303.54C921.76,-293.5 979.12,-280.44 1030,-268 1030.18,-267.96 1030.35,-267.91 1030.53,-267.87"/>
<polygon fill="#64748b" stroke="#64748b" points="1030.98,-270.28 1037.19,-266.22 1029.8,-265.53 1030.98,-270.28"/>
</g>
<!-- n36 -->
<g id="node33" class="node">
<title>n36</title>
<g id="a_node33"><a xlink:href="https://github.com/statopia/statlib/blob/main/Statlib/HighDim/Geometry/RIPConstruction.lean#L423" xlink:title="lemma · Statlib/HighDim/Geometry/RIPConstruction.lean:423" target="_blank">
<path fill="#eef2f6" stroke="#94a3b8" d="M649.58,-268C649.58,-268 546.42,-268 546.42,-268 540.42,-268 534.42,-262 534.42,-256 534.42,-256 534.42,-244 534.42,-244 534.42,-238 540.42,-232 546.42,-232 546.42,-232 649.58,-232 649.58,-232 655.58,-232 661.58,-238 661.58,-244 661.58,-244 661.58,-256 661.58,-256 661.58,-262 655.58,-268 649.58,-268"/>
<text xml:space="preserve" text-anchor="middle" x="598" y="-247" font-family="Helvetica,sans-Serif" font-size="10.00">restrictByEquiv_inner_eq</text>
</a>
</g>
</g>
<!-- n36&#45;&gt;n6 -->
<g id="edge41" class="edge">
<title>n36&#45;&gt;n6</title>
<path fill="none" stroke="#64748b" d="M618.76,-231.7C629.67,-222.61 643.16,-211.36 654.88,-201.6"/>
<polygon fill="#64748b" stroke="#64748b" points="656.21,-203.68 660.02,-197.32 653.07,-199.92 656.21,-203.68"/>
</g>
<!-- n36&#45;&gt;n18 -->
<g id="edge39" class="edge">
<title>n36&#45;&gt;n18</title>
<path fill="none" stroke="#64748b" d="M534.22,-232.76C485.08,-220.26 418.1,-203.21 372.84,-191.69"/>
<polygon fill="#64748b" stroke="#64748b" points="373.51,-189.33 366.12,-189.98 372.3,-194.08 373.51,-189.33"/>
</g>
<!-- n36&#45;&gt;n19 -->
<g id="edge40" class="edge">
<title>n36&#45;&gt;n19</title>
<path fill="none" stroke="#64748b" d="M598,-231.59C598,-206.76 598,-161.01 598,-132.4"/>
<polygon fill="#64748b" stroke="#64748b" points="600.45,-132.62 598,-125.62 595.55,-132.62 600.45,-132.62"/>
</g>
<!-- n37 -->
<g id="node34" class="node">
<title>n37</title>
<g id="a_node34"><a xlink:href="https://github.com/statopia/statlib/blob/main/Statlib/HighDim/Geometry/RIPConstruction.lean#L471" xlink:title="lemma · Statlib/HighDim/Geometry/RIPConstruction.lean:471" target="_blank">
<path fill="#eef2f6" stroke="#94a3b8" d="M877.61,-412C877.61,-412 714.39,-412 714.39,-412 708.39,-412 702.39,-406 702.39,-400 702.39,-400 702.39,-388 702.39,-388 702.39,-382 708.39,-376 714.39,-376 714.39,-376 877.61,-376 877.61,-376 883.61,-376 889.61,-382 889.61,-388 889.61,-388 889.61,-400 889.61,-400 889.61,-406 883.61,-412 877.61,-412"/>
<text xml:space="preserve" text-anchor="middle" x="796" y="-391" font-family="Helvetica,sans-Serif" font-size="10.00">restricted_sample_deviation_quadratic</text>
</a>
</g>
</g>
<!-- n37&#45;&gt;n4 -->
<g id="edge45" class="edge">
<title>n37&#45;&gt;n4</title>
<path fill="none" stroke="#64748b" d="M701.92,-384.73C584.09,-373.99 389.05,-354.87 318,-340 291.69,-334.49 102.93,-289.65 87,-268 75.81,-252.79 74.81,-177.91 91,-160 198.29,-41.32 1408.53,-35.05 1641.37,-34.95"/>
<polygon fill="#64748b" stroke="#64748b" points="1641.04,-37.4 1648.04,-34.95 1641.04,-32.5 1641.04,-37.4"/>
</g>
<!-- n37&#45;&gt;n6 -->
<g id="edge51" class="edge">
<title>n37&#45;&gt;n6</title>
<path fill="none" stroke="#64748b" d="M702.14,-377.94C660.25,-369.11 617.5,-356.44 605,-340 593.16,-324.43 593.65,-311.93 605,-296 627.1,-264.98 663.9,-299.02 686,-268 699.05,-249.67 695.98,-223.44 690.89,-204.2"/>
<polygon fill="#64748b" stroke="#64748b" points="693.29,-203.65 688.97,-197.62 688.58,-205.02 693.29,-203.65"/>
</g>
<!-- n37&#45;&gt;n9 -->
<g id="edge48" class="edge">
<title>n37&#45;&gt;n9</title>
<path fill="none" stroke="#64748b" d="M876.06,-375.51C897.14,-367.62 918.34,-356.27 934,-340 948.33,-325.11 933.03,-309.1 949,-296 1022.13,-236 1079.72,-318.04 1160,-268 1176.32,-257.83 1171.51,-246.62 1184,-232 1214.63,-196.12 1225.05,-189.34 1262,-160 1275.65,-149.16 1291.43,-138.17 1305.22,-129.03"/>
<polygon fill="#64748b" stroke="#64748b" points="1306.45,-131.16 1310.95,-125.26 1303.76,-127.06 1306.45,-131.16"/>
</g>
<!-- n37&#45;&gt;n17 -->
<g id="edge44" class="edge">
<title>n37&#45;&gt;n17</title>
<path fill="none" stroke="#64748b" d="M889.83,-376.59C917.16,-368.68 945.86,-357.05 969,-340 988.06,-325.96 978.83,-308.38 999,-296 1081.49,-245.35 1119.74,-285.22 1215,-268 1216.82,-267.67 1218.66,-267.33 1220.52,-266.97"/>
<polygon fill="#64748b" stroke="#64748b" points="1220.87,-269.4 1227.26,-265.62 1219.91,-264.59 1220.87,-269.4"/>
</g>
<!-- n37&#45;&gt;n18 -->
<g id="edge42" class="edge">
<title>n37&#45;&gt;n18</title>
<path fill="none" stroke="#64748b" d="M701.95,-377.75C650.96,-368.11 594.15,-354.72 573,-340 541.43,-318.03 545.02,-300.84 525,-268 515.47,-252.37 519.31,-243.42 505,-232 467.06,-201.72 412.41,-188.74 372.91,-183.17"/>
<polygon fill="#64748b" stroke="#64748b" points="373.49,-180.78 366.23,-182.29 372.85,-185.64 373.49,-180.78"/>
</g>
<!-- n37&#45;&gt;n19 -->
<g id="edge46" class="edge">
<title>n37&#45;&gt;n19</title>
<path fill="none" stroke="#64748b" d="M702.22,-378.75C680.67,-370.88 660.22,-358.73 647,-340 635.72,-324.02 637.18,-312.91 647,-296 659.59,-274.31 678.86,-286.32 696,-268 730.47,-231.15 759.32,-201.76 731,-160 712.45,-132.64 677.28,-119.4 647.76,-113"/>
<polygon fill="#64748b" stroke="#64748b" points="648.43,-110.63 641.09,-111.66 647.47,-115.44 648.43,-110.63"/>
</g>
<!-- n37&#45;&gt;n28 -->
<g id="edge43" class="edge">
<title>n37&#45;&gt;n28</title>
<path fill="none" stroke="#64748b" d="M884.76,-375.6C907.73,-367.73 931.02,-356.37 949,-340 964.88,-325.53 951.71,-308.75 969,-296 1047.96,-237.74 1101.22,-313.8 1188,-268 1206.93,-258.01 1203.64,-245.8 1220,-232 1233.82,-220.34 1250.44,-209.41 1265.3,-200.53"/>
<polygon fill="#64748b" stroke="#64748b" points="1266.33,-202.77 1271.13,-197.12 1263.85,-198.54 1266.33,-202.77"/>
</g>
<!-- n37&#45;&gt;n33 -->
<g id="edge47" class="edge">
<title>n37&#45;&gt;n33</title>
<path fill="none" stroke="#64748b" d="M706.71,-375.58C688.35,-367.76 671.23,-356.42 660,-340 648.96,-323.86 647.07,-310.67 660,-296 691.26,-260.53 819.94,-275.18 881.13,-267.67"/>
<polygon fill="#64748b" stroke="#64748b" points="881.24,-270.13 887.81,-266.67 880.52,-265.28 881.24,-270.13"/>
</g>
<!-- n37&#45;&gt;n35 -->
<g id="edge49" class="edge">
<title>n37&#45;&gt;n35</title>
<path fill="none" stroke="#64748b" d="M796.25,-375.7C796.36,-367.47 796.51,-357.48 796.64,-348.42"/>
<polygon fill="#64748b" stroke="#64748b" points="799.08,-348.65 796.73,-341.62 794.18,-348.58 799.08,-348.65"/>
</g>
<!-- n37&#45;&gt;n36 -->
<g id="edge50" class="edge">
<title>n37&#45;&gt;n36</title>
<path fill="none" stroke="#64748b" d="M701.94,-380.85C652.82,-372.36 599.89,-359.1 585,-340 570.9,-321.93 577.25,-295.32 585.22,-275.91"/>
<polygon fill="#64748b" stroke="#64748b" points="587.37,-277.11 587.95,-269.72 582.89,-275.14 587.37,-277.11"/>
</g>
<!-- n38 -->
<g id="node35" class="node">
<title>n38</title>
<g id="a_node35"><a xlink:href="https://github.com/statopia/statlib/blob/main/Statlib/HighDim/Geometry/RIPConstruction.lean#L101" xlink:title="lemma · Statlib/HighDim/Geometry/RIPConstruction.lean:101" target="_blank">
<path fill="#eef2f6" stroke="#94a3b8" d="M1857.27,-412C1857.27,-412 1700.73,-412 1700.73,-412 1694.73,-412 1688.73,-406 1688.73,-400 1688.73,-400 1688.73,-388 1688.73,-388 1688.73,-382 1694.73,-376 1700.73,-376 1700.73,-376 1857.27,-376 1857.27,-376 1863.27,-376 1869.27,-382 1869.27,-388 1869.27,-388 1869.27,-400 1869.27,-400 1869.27,-406 1863.27,-412 1857.27,-412"/>
<text xml:space="preserve" text-anchor="middle" x="1779" y="-391" font-family="Helvetica,sans-Serif" font-size="10.00">exists_support_card_eq_of_isSparse</text>
</a>
</g>
</g>
<!-- n38&#45;&gt;n3 -->
<g id="edge52" class="edge">
<title>n38&#45;&gt;n3</title>
<path fill="none" stroke="#64748b" d="M1811.47,-375.52C1830.32,-365.36 1854.1,-352.56 1873.46,-342.14"/>
<polygon fill="#64748b" stroke="#64748b" points="1874.58,-344.32 1879.58,-338.84 1872.25,-340 1874.58,-344.32"/>
</g>
<!-- n39 -->
<g id="node36" class="node">
<title>n39</title>
<g id="a_node36"><a xlink:href="https://github.com/statopia/statlib/blob/main/Statlib/HighDim/SpectralPerturbation/Eigenvalues.lean#L162" xlink:title="lemma · Statlib/HighDim/SpectralPerturbation/Eigenvalues.lean:162" target="_blank">
<path fill="#eef2f6" stroke="#94a3b8" d="M1329.26,-340C1329.26,-340 1212.74,-340 1212.74,-340 1206.74,-340 1200.74,-334 1200.74,-328 1200.74,-328 1200.74,-316 1200.74,-316 1200.74,-310 1206.74,-304 1212.74,-304 1212.74,-304 1329.26,-304 1329.26,-304 1335.26,-304 1341.26,-310 1341.26,-316 1341.26,-316 1341.26,-328 1341.26,-328 1341.26,-334 1335.26,-340 1329.26,-340"/>
<text xml:space="preserve" text-anchor="middle" x="1271" y="-319" font-family="Helvetica,sans-Serif" font-size="10.00">abs_rayleigh_le_l2_opNorm</text>
</a>
</g>
</g>
<!-- n40 -->
<g id="node37" class="node">
<title>n40</title>
<g id="a_node37"><a xlink:href="https://github.com/statopia/statlib/blob/main/Statlib/HighDim/Geometry/RIPConstruction.lean#L530" xlink:title="lemma · Statlib/HighDim/Geometry/RIPConstruction.lean:530" target="_blank">
<path fill="#eef2f6" stroke="#94a3b8" d="M1271.72,-412C1271.72,-412 1096.28,-412 1096.28,-412 1090.28,-412 1084.28,-406 1084.28,-400 1084.28,-400 1084.28,-388 1084.28,-388 1084.28,-382 1090.28,-376 1096.28,-376 1096.28,-376 1271.72,-376 1271.72,-376 1277.72,-376 1283.72,-382 1283.72,-388 1283.72,-388 1283.72,-400 1283.72,-400 1283.72,-406 1277.72,-412 1271.72,-412"/>
<text xml:space="preserve" text-anchor="middle" x="1184" y="-391" font-family="Helvetica,sans-Serif" font-size="10.00">abs_quadratic_le_opNorm_mul_norm_sq</text>
</a>
</g>
</g>
<!-- n40&#45;&gt;n28 -->
<g id="edge53" class="edge">
<title>n40&#45;&gt;n28</title>
<path fill="none" stroke="#64748b" d="M1267.01,-375.57C1302.74,-366.31 1338.88,-353.96 1350,-340 1379.95,-302.39 1373.97,-276.59 1356,-232 1351.42,-220.64 1343.12,-210.36 1334.53,-201.94"/>
<polygon fill="#64748b" stroke="#64748b" points="1336.48,-200.41 1329.68,-197.44 1333.15,-204 1336.48,-200.41"/>
</g>
<!-- n40&#45;&gt;n39 -->
<g id="edge54" class="edge">
<title>n40&#45;&gt;n39</title>
<path fill="none" stroke="#64748b" d="M1205.51,-375.7C1216.8,-366.61 1230.78,-355.36 1242.91,-345.6"/>
<polygon fill="#64748b" stroke="#64748b" points="1244.34,-347.59 1248.26,-341.3 1241.27,-343.78 1244.34,-347.59"/>
</g>
<!-- n41 -->
<g id="node38" class="node">
<title>n41</title>
<g id="a_node38"><a xlink:href="https://github.com/statopia/statlib/blob/main/Statlib/HighDim/Geometry/RIPConstruction.lean#L564" xlink:title="theorem · Statlib/HighDim/Geometry/RIPConstruction.lean:564" target="_blank">
<path fill="#ffe6a3" stroke="#d4a017" d="M1052.59,-485.2C1052.59,-485.2 969.41,-485.2 969.41,-485.2 963.41,-485.2 957.41,-479.2 957.41,-473.2 957.41,-473.2 957.41,-461.2 957.41,-461.2 957.41,-455.2 963.41,-449.2 969.41,-449.2 969.41,-449.2 1052.59,-449.2 1052.59,-449.2 1058.59,-449.2 1064.59,-455.2 1064.59,-461.2 1064.59,-461.2 1064.59,-473.2 1064.59,-473.2 1064.59,-479.2 1058.59,-485.2 1052.59,-485.2"/>
<text xml:space="preserve" text-anchor="middle" x="1011" y="-464.2" font-family="Helvetica,sans-Serif" font-size="10.00">subgaussian_rip_tail</text>
</a>
</g>
</g>
<!-- n41&#45;&gt;n0 -->
<g id="edge59" class="edge">
<title>n41&#45;&gt;n0</title>
<path fill="none" stroke="#64748b" d="M957.07,-465.6C815.03,-463.79 440.09,-457.49 419,-441.2 395.01,-422.67 421.95,-395.8 399,-376 358.67,-341.2 214.51,-348.95 162,-340 153.68,-338.58 144.95,-337.02 136.33,-335.44"/>
<polygon fill="#64748b" stroke="#64748b" points="136.93,-333.06 129.6,-334.2 136.04,-337.88 136.93,-333.06"/>
</g>
<!-- n41&#45;&gt;n1 -->
<g id="edge55" class="edge">
<title>n41&#45;&gt;n1</title>
<path fill="none" stroke="#64748b" d="M956.92,-463.77C875.27,-460.17 715.66,-453.39 580,-449.2 560.12,-448.59 240.24,-449.14 222,-441.2 211.04,-436.43 201.39,-427.6 193.87,-418.93"/>
<polygon fill="#64748b" stroke="#64748b" points="195.82,-417.45 189.5,-413.57 192.03,-420.54 195.82,-417.45"/>
</g>
<!-- n41&#45;&gt;n2 -->
<g id="edge56" class="edge">
<title>n41&#45;&gt;n2</title>
<path fill="none" stroke="#64748b" d="M957.04,-465.08C769.52,-461.12 156.5,-447.73 137,-441.2 122.29,-436.27 108.01,-426.81 96.6,-417.73"/>
<polygon fill="#64748b" stroke="#64748b" points="98.35,-416 91.4,-413.43 95.23,-419.78 98.35,-416"/>
</g>
<!-- n41&#45;&gt;n4 -->
<g id="edge58" class="edge">
<title>n41&#45;&gt;n4</title>
<path fill="none" stroke="#64748b" d="M1064.79,-465.09C1255.38,-461.1 1887.61,-447.41 1896,-441.2 1920.59,-423.01 1901.36,-401.66 1918,-376 1930.84,-356.21 1945.32,-360.5 1957,-340 1977.02,-304.86 1976,-291.45 1976,-251 1976,-251 1976,-251 1976,-177 1976,-157.1 1979.56,-102.57 1966,-88 1933.02,-52.57 1789.05,-40.48 1718.81,-36.65"/>
<polygon fill="#64748b" stroke="#64748b" points="1719.26,-34.22 1712.14,-36.3 1719,-39.11 1719.26,-34.22"/>
</g>
<!-- n41&#45;&gt;n5 -->
<g id="edge57" class="edge">
<title>n41&#45;&gt;n5</title>
<path fill="none" stroke="#64748b" d="M1064.93,-464.25C1159.91,-460.86 1363.26,-453.8 1535,-449.2 1556,-448.64 1893.56,-449.16 1913,-441.2 1924.67,-436.42 1935.2,-427.47 1943.48,-418.71"/>
<polygon fill="#64748b" stroke="#64748b" points="1945.25,-420.41 1948.09,-413.56 1941.6,-417.15 1945.25,-420.41"/>
</g>
<!-- n41&#45;&gt;n6 -->
<g id="edge60" class="edge">
<title>n41&#45;&gt;n6</title>
<path fill="none" stroke="#64748b" d="M956.96,-465.06C871.73,-462.81 713.6,-456.59 693,-441.2 668.14,-422.63 689.09,-398.77 668,-376 642.6,-348.58 611.99,-371.58 592,-340 581.54,-323.48 580.72,-311.97 592,-296 613.5,-265.58 647.68,-297.05 671,-268 685.12,-250.42 686.78,-224.25 685.57,-204.83"/>
<polygon fill="#64748b" stroke="#64748b" points="688.01,-204.71 684.97,-197.95 683.13,-205.13 688.01,-204.71"/>
</g>
<!-- n41&#45;&gt;n9 -->
<g id="edge63" class="edge">
<title>n41&#45;&gt;n9</title>
<path fill="none" stroke="#64748b" d="M1064.97,-466.75C1183.13,-467.46 1456.82,-466.36 1490,-441.2 1514.37,-422.72 1489.65,-396.87 1512,-376 1558.01,-333.03 1599.77,-379.25 1649,-340 1666.25,-326.24 1654.61,-309.58 1672,-296 1713.8,-263.36 1755.19,-309.67 1788,-268 1892.39,-135.41 1545.27,-111.91 1400.46,-107.82"/>
<polygon fill="#64748b" stroke="#64748b" points="1400.63,-105.38 1393.57,-107.64 1400.5,-110.27 1400.63,-105.38"/>
</g>
<!-- n41&#45;&gt;n14 -->
<g id="edge66" class="edge">
<title>n41&#45;&gt;n14</title>
<path fill="none" stroke="#64748b" d="M1064.83,-466.37C1175.5,-466.24 1425.03,-463.41 1507,-441.2 1526.53,-435.91 1546.66,-425.9 1562.83,-416.55"/>
<polygon fill="#64748b" stroke="#64748b" points="1563.9,-418.77 1568.67,-413.09 1561.4,-414.56 1563.9,-418.77"/>
</g>
<!-- n41&#45;&gt;n15 -->
<g id="edge67" class="edge">
<title>n41&#45;&gt;n15</title>
<path fill="none" stroke="#64748b" d="M1002.77,-448.96C998.55,-440.13 993.34,-429.22 988.71,-419.53"/>
<polygon fill="#64748b" stroke="#64748b" points="991.03,-418.7 985.81,-413.44 986.61,-420.82 991.03,-418.7"/>
</g>
<!-- n41&#45;&gt;n16 -->
<g id="edge68" class="edge">
<title>n41&#45;&gt;n16</title>
<path fill="none" stroke="#64748b" d="M1064.98,-465.04C1253.21,-460.95 1869.67,-447.1 1878,-441.2 1903.32,-423.25 1884.97,-401.26 1903,-376 1917.48,-355.71 1935.45,-362.58 1946,-340 1978.71,-269.95 1945.04,-176.16 1925.24,-131.99"/>
<polygon fill="#64748b" stroke="#64748b" points="1927.51,-131.05 1922.36,-125.72 1923.05,-133.1 1927.51,-131.05"/>
</g>
<!-- n41&#45;&gt;n17 -->
<g id="edge69" class="edge">
<title>n41&#45;&gt;n17</title>
<path fill="none" stroke="#64748b" d="M1030.65,-448.81C1032.4,-446.43 1033.92,-443.88 1035,-441.2 1045.82,-414.32 1042.56,-403.97 1035,-376 1030.17,-358.12 1018.83,-357.88 1014,-340 1008.9,-321.12 1001.16,-310.75 1014,-296 1043.61,-261.98 1170.66,-276.23 1215,-268 1216.82,-267.66 1218.66,-267.31 1220.52,-266.94"/>
<polygon fill="#64748b" stroke="#64748b" points="1220.88,-269.37 1227.25,-265.58 1219.9,-264.57 1220.88,-269.37"/>
</g>
<!-- n41&#45;&gt;n18 -->
<g id="edge70" class="edge">
<title>n41&#45;&gt;n18</title>
<path fill="none" stroke="#64748b" d="M957.16,-464.67C782.19,-459.66 240.58,-443.94 237,-441.2 212.92,-422.79 235.5,-400.01 217,-376 198.48,-351.97 179.45,-362.42 159,-340 144.27,-323.85 152.81,-311.1 137,-296 114.85,-274.83 90.7,-293.69 74,-268 65.28,-254.58 63.93,-244.44 74,-232 98.57,-201.65 207.84,-187.95 273.19,-182.37"/>
<polygon fill="#64748b" stroke="#64748b" points="273.04,-184.84 279.81,-181.82 272.64,-179.96 273.04,-184.84"/>
</g>
<!-- n41&#45;&gt;n19 -->
<g id="edge72" class="edge">
<title>n41&#45;&gt;n19</title>
<path fill="none" stroke="#64748b" d="M957.3,-466.38C853.68,-466.23 634.03,-463.27 608,-441.2 585.32,-421.97 615.25,-395.72 593,-376 536.13,-325.61 326.48,-359.34 253,-340 233.56,-334.88 98.03,-284.81 87,-268 26.92,-176.45 167.75,-179.58 230,-160 340.05,-125.38 475.82,-113.27 547.74,-109.11"/>
<polygon fill="#64748b" stroke="#64748b" points="547.83,-111.56 554.68,-108.72 547.56,-106.67 547.83,-111.56"/>
</g>
<!-- n41&#45;&gt;n21 -->
<g id="edge73" class="edge">
<title>n41&#45;&gt;n21</title>
<path fill="none" stroke="#64748b" d="M957.18,-461C943.28,-457.31 929.35,-451.22 919,-441.2 897.22,-420.12 921.96,-395.79 899,-376 817.63,-305.87 730.07,-421.42 660,-340 647.24,-325.18 648.24,-311.63 660,-296 662.99,-292.02 710.27,-278.71 751.99,-267.59"/>
<polygon fill="#64748b" stroke="#64748b" points="752.38,-270.02 758.52,-265.86 751.12,-265.29 752.38,-270.02"/>
</g>
<!-- n41&#45;&gt;n22 -->
<g id="edge80" class="edge">
<title>n41&#45;&gt;n22</title>
<path fill="none" stroke="#64748b" d="M957.03,-466.02C857.57,-465.22 653.18,-461.12 628,-441.2 604.23,-422.4 631.22,-395.49 608,-376 508.52,-292.5 438.38,-388.76 318,-340 298.4,-332.06 255.14,-297.47 226.8,-273.82"/>
<polygon fill="#64748b" stroke="#64748b" points="228.39,-271.96 221.45,-269.34 225.24,-275.71 228.39,-271.96"/>
</g>
<!-- n41&#45;&gt;n23 -->
<g id="edge71" class="edge">
<title>n41&#45;&gt;n23</title>
<path fill="none" stroke="#64748b" d="M957.13,-465.37C864.34,-463.52 681.97,-457.78 658,-441.2 631.77,-423.05 652.63,-396.27 628,-376 617.6,-367.44 555,-352.75 499.38,-341.01"/>
<polygon fill="#64748b" stroke="#64748b" points="500.07,-338.65 492.72,-339.61 499.06,-343.44 500.07,-338.65"/>
</g>
<!-- n41&#45;&gt;n24 -->
<g id="edge74" class="edge">
<title>n41&#45;&gt;n24</title>
<path fill="none" stroke="#64748b" d="M957.08,-465.63C861.02,-464.16 664.16,-459.01 598,-441.2 578.09,-435.84 557.45,-425.93 540.77,-416.66"/>
<polygon fill="#64748b" stroke="#64748b" points="542.02,-414.55 534.72,-413.22 539.59,-418.81 542.02,-414.55"/>
</g>
<!-- n41&#45;&gt;n25 -->
<g id="edge75" class="edge">
<title>n41&#45;&gt;n25</title>
<path fill="none" stroke="#64748b" d="M957.03,-465.12C868.58,-462.91 700.32,-456.71 678,-441.2 651.8,-423 671.9,-397.13 648,-376 608.51,-341.09 578.39,-369.92 535,-340 514.43,-325.82 519.06,-312.15 500,-296 489.43,-287.04 476.8,-279.02 464.7,-272.32"/>
<polygon fill="#64748b" stroke="#64748b" points="465.92,-270.19 458.59,-269.03 463.6,-274.5 465.92,-270.19"/>
</g>
<!-- n41&#45;&gt;n26 -->
<g id="edge76" class="edge">
<title>n41&#45;&gt;n26</title>
<path fill="none" stroke="#64748b" d="M1042.34,-448.81C1045.15,-446.48 1047.77,-443.94 1050,-441.2 1069.6,-417.14 1062.17,-404.26 1075,-376 1079.26,-366.62 1084.41,-356.57 1089.13,-347.77"/>
<polygon fill="#64748b" stroke="#64748b" points="1091.22,-349.05 1092.41,-341.73 1086.91,-346.71 1091.22,-349.05"/>
</g>
<!-- n41&#45;&gt;n27 -->
<g id="edge77" class="edge">
<title>n41&#45;&gt;n27</title>
<path fill="none" stroke="#64748b" d="M956.94,-464.05C808.83,-458.16 407.32,-442.11 404,-441.2 385,-436 365.53,-426 349.93,-416.63"/>
<polygon fill="#64748b" stroke="#64748b" points="351.59,-414.78 344.34,-413.19 349.01,-418.95 351.59,-414.78"/>
</g>
<!-- n41&#45;&gt;n28 -->
<g id="edge79" class="edge">
<title>n41&#45;&gt;n28</title>
<path fill="none" stroke="#64748b" d="M1065.02,-466.53C1179.73,-466.75 1439.81,-464.64 1472,-441.2 1497.09,-422.93 1473.97,-396.8 1497,-376 1542.45,-334.96 1580.97,-376.69 1630,-340 1648.37,-326.25 1638.37,-309.39 1657,-296 1702.18,-263.54 1744.34,-311.52 1779,-268 1788.97,-255.48 1789.67,-243.93 1779,-232 1750.49,-200.12 1459.23,-185.18 1347.93,-180.6"/>
<polygon fill="#64748b" stroke="#64748b" points="1348.21,-178.16 1341.11,-180.32 1348.01,-183.05 1348.21,-178.16"/>
</g>
<!-- n41&#45;&gt;n32 -->
<g id="edge78" class="edge">
<title>n41&#45;&gt;n32</title>
<path fill="none" stroke="#64748b" d="M1064.83,-463.92C1134.43,-460.54 1251.59,-453.27 1293,-441.2 1312.13,-435.62 1331.95,-425.8 1348.01,-416.64"/>
<polygon fill="#64748b" stroke="#64748b" points="1349,-418.9 1353.81,-413.25 1346.53,-414.67 1349,-418.9"/>
</g>
<!-- n41&#45;&gt;n37 -->
<g id="edge81" class="edge">
<title>n41&#45;&gt;n37</title>
<path fill="none" stroke="#64748b" d="M957.16,-455.55C939.99,-451.64 921.04,-446.79 904,-441.2 882.54,-434.16 859.44,-424.57 840.13,-415.95"/>
<polygon fill="#64748b" stroke="#64748b" points="841.14,-413.72 833.76,-413.07 839.13,-418.18 841.14,-413.72"/>
</g>
<!-- n41&#45;&gt;n38 -->
<g id="edge82" class="edge">
<title>n41&#45;&gt;n38</title>
<path fill="none" stroke="#64748b" d="M1064.92,-464.47C1221.34,-459.41 1665.12,-444.79 1680,-441.2 1701.62,-435.98 1724.2,-425.85 1742.33,-416.4"/>
<polygon fill="#64748b" stroke="#64748b" points="1743.45,-418.58 1748.48,-413.12 1741.15,-414.26 1743.45,-418.58"/>
</g>
<!-- n41&#45;&gt;n40 -->
<g id="edge83" class="edge">
<title>n41&#45;&gt;n40</title>
<path fill="none" stroke="#64748b" d="M1053.32,-448.78C1077.62,-438.78 1108.27,-426.17 1133.78,-415.67"/>
<polygon fill="#64748b" stroke="#64748b" points="1134.58,-417.99 1140.12,-413.06 1132.71,-413.46 1134.58,-417.99"/>
</g>
<!-- n7 -->
<g id="node40" class="node">
<title>n7</title>
<g id="a_node40"><a xlink:href="https://github.com/statopia/statlib/blob/main/Statlib/StatFoundation/RandomVariable/SubGaussian/subgaussian_fourth_moment_le.lean#L8" xlink:title="lemma · Statlib/StatFoundation/RandomVariable/SubGaussian/subgaussian_fourth_moment_le.lean:8" target="_blank">
<path fill="#eef2f6" stroke="#94a3b8" d="M2145.05,-412C2145.05,-412 2032.95,-412 2032.95,-412 2026.95,-412 2020.95,-406 2020.95,-400 2020.95,-400 2020.95,-388 2020.95,-388 2020.95,-382 2026.95,-376 2032.95,-376 2032.95,-376 2145.05,-376 2145.05,-376 2151.05,-376 2157.05,-382 2157.05,-388 2157.05,-388 2157.05,-400 2157.05,-400 2157.05,-406 2151.05,-412 2145.05,-412"/>
<text xml:space="preserve" text-anchor="middle" x="2089" y="-391" font-family="Helvetica,sans-Serif" font-size="10.00">cosh_ge_one_add_half_sq</text>
</a>
</g>
</g>
<!-- n41&#45;&gt;n7 -->
<g id="edge61" class="edge">
<title>n41&#45;&gt;n7</title>
<path fill="none" stroke="#64748b" d="M1064.76,-466.4C1259.05,-466.93 1918.13,-466.78 2009,-441.2 2026.91,-436.16 2045.02,-426.2 2059.47,-416.81"/>
<polygon fill="#64748b" stroke="#64748b" points="2060.53,-419.05 2064.99,-413.12 2057.81,-414.97 2060.53,-419.05"/>
</g>
<!-- n8 -->
<g id="node41" class="node">
<title>n8</title>
<g id="a_node41"><a xlink:href="https://github.com/statopia/statlib/blob/main/Statlib/StatFoundation/RandomVariable/SubGaussian/subgaussian_variance_le.lean#L8" xlink:title="theorem · Statlib/StatFoundation/RandomVariable/SubGaussian/subgaussian_variance_le.lean:8" target="_blank">
<path fill="#ffe6a3" stroke="#d4a017" d="M2291.43,-412C2291.43,-412 2186.57,-412 2186.57,-412 2180.57,-412 2174.57,-406 2174.57,-400 2174.57,-400 2174.57,-388 2174.57,-388 2174.57,-382 2180.57,-376 2186.57,-376 2186.57,-376 2291.43,-376 2291.43,-376 2297.43,-376 2303.43,-382 2303.43,-388 2303.43,-388 2303.43,-400 2303.43,-400 2303.43,-406 2297.43,-412 2291.43,-412"/>
<text xml:space="preserve" text-anchor="middle" x="2239" y="-391" font-family="Helvetica,sans-Serif" font-size="10.00">subgaussian_variance_le</text>
</a>
</g>
</g>
<!-- n41&#45;&gt;n8 -->
<g id="edge62" class="edge">
<title>n41&#45;&gt;n8</title>
<path fill="none" stroke="#64748b" d="M1065.01,-465.84C1286.07,-464.25 2112.8,-457.25 2166,-441.2 2182.51,-436.22 2198.91,-426.4 2211.97,-417.08"/>
<polygon fill="#64748b" stroke="#64748b" points="2213.08,-419.31 2217.26,-413.19 2210.18,-415.37 2213.08,-419.31"/>
</g>
<!-- n10 -->
<g id="node42" class="node">
<title>n10</title>
<g id="a_node42"><a xlink:href="https://github.com/statopia/statlib/blob/main/Statlib/StatFoundation/Vocabulary/RandomVariable.lean#L74" xlink:title="structure · Statlib/StatFoundation/Vocabulary/RandomVariable.lean:74" target="_blank">
<path fill="#e8dcff" stroke="#8b5cf6" d="M2494.47,-340C2494.47,-340 2393.53,-340 2393.53,-340 2387.53,-340 2381.53,-334 2381.53,-328 2381.53,-328 2381.53,-316 2381.53,-316 2381.53,-310 2387.53,-304 2393.53,-304 2393.53,-304 2494.47,-304 2494.47,-304 2500.47,-304 2506.47,-310 2506.47,-316 2506.47,-316 2506.47,-328 2506.47,-328 2506.47,-334 2500.47,-340 2494.47,-340"/>
<text xml:space="preserve" text-anchor="middle" x="2444" y="-319" font-family="Helvetica,sans-Serif" font-size="10.00">HasSubexponentialMGF</text>
</a>
</g>
</g>
<!-- n41&#45;&gt;n10 -->
<g id="edge64" class="edge">
<title>n41&#45;&gt;n10</title>
<path fill="none" stroke="#64748b" d="M1064.7,-466.34C1332.27,-466.93 2509.67,-467.97 2536,-441.2 2556.32,-420.54 2550.5,-401.09 2536,-376 2528.15,-362.41 2515.34,-352 2501.74,-344.15"/>
<polygon fill="#64748b" stroke="#64748b" points="2503.23,-342.17 2495.91,-341 2500.9,-346.48 2503.23,-342.17"/>
</g>
<!-- n11 -->
<g id="node43" class="node">
<title>n11</title>
<g id="a_node43"><a xlink:href="https://github.com/statopia/statlib/blob/main/Statlib/StatFoundation/Concentration/ExponentialType/bernstein_sum_meas_abs_ge_le_two_exp.lean#L13" xlink:title="theorem · Statlib/StatFoundation/Concentration/ExponentialType/bernstein_sum_meas_abs_ge_le_two_exp.lean:13" target="_blank">
<path fill="#ffe6a3" stroke="#d4a017" d="M2515.06,-412C2515.06,-412 2332.94,-412 2332.94,-412 2326.94,-412 2320.94,-406 2320.94,-400 2320.94,-400 2320.94,-388 2320.94,-388 2320.94,-382 2326.94,-376 2332.94,-376 2332.94,-376 2515.06,-376 2515.06,-376 2521.06,-376 2527.06,-382 2527.06,-388 2527.06,-388 2527.06,-400 2527.06,-400 2527.06,-406 2521.06,-412 2515.06,-412"/>
<text xml:space="preserve" text-anchor="middle" x="2424" y="-391" font-family="Helvetica,sans-Serif" font-size="10.00">bernstein_sum_meas_abs_ge_le_two_exp</text>
</a>
</g>
</g>
<!-- n41&#45;&gt;n11 -->
<g id="edge65" class="edge">
<title>n41&#45;&gt;n11</title>
<path fill="none" stroke="#64748b" d="M1064.91,-466.34C1295.01,-466.79 2188.84,-466.84 2312,-441.2 2336.76,-436.05 2362.97,-425.54 2383.8,-415.85"/>
<polygon fill="#64748b" stroke="#64748b" points="2384.58,-418.19 2389.85,-412.98 2382.48,-413.77 2384.58,-418.19"/>
</g>
<!-- n42 -->
<g id="node39" class="node">
<title>n42</title>
<g id="a_node39"><a xlink:href="https://github.com/statopia/statlib/blob/main/Statlib/HighDim/Geometry/RIPConstruction.lean#L1626" xlink:title="theorem · Statlib/HighDim/Geometry/RIPConstruction.lean:1626" target="_blank">
<path fill="#ffe6a3" stroke="#d4a017" stroke-width="3" d="M870.71,-557.2C870.71,-557.2 715.29,-557.2 715.29,-557.2 709.29,-557.2 703.29,-551.2 703.29,-545.2 703.29,-545.2 703.29,-533.2 703.29,-533.2 703.29,-527.2 709.29,-521.2 715.29,-521.2 715.29,-521.2 870.71,-521.2 870.71,-521.2 876.71,-521.2 882.71,-527.2 882.71,-533.2 882.71,-533.2 882.71,-545.2 882.71,-545.2 882.71,-551.2 876.71,-557.2 870.71,-557.2"/>
<text xml:space="preserve" text-anchor="middle" x="793" y="-536.2" font-family="Helvetica,sans-Serif" font-size="10.00">subgaussian_rip_sample_complexity</text>
</a>
</g>
</g>
<!-- n42&#45;&gt;n1 -->
<g id="edge84" class="edge">
<title>n42&#45;&gt;n1</title>
<path fill="none" stroke="#64748b" d="M703.11,-519.76C604.73,-500.09 442.18,-469.09 301,-449.2 283.53,-446.74 237.89,-448.87 222,-441.2 211.39,-436.08 201.91,-427.37 194.41,-418.88"/>
<polygon fill="#64748b" stroke="#64748b" points="196.41,-417.46 190.05,-413.66 192.65,-420.6 196.41,-417.46"/>
</g>
<!-- n42&#45;&gt;n2 -->
<g id="edge85" class="edge">
<title>n42&#45;&gt;n2</title>
<path fill="none" stroke="#64748b" d="M702.16,-532.64C602.96,-525.59 439.71,-511.12 301,-485.2 226.82,-471.34 205.28,-473.35 137,-441.2 123.72,-434.95 110.3,-425.95 99.12,-417.56"/>
<polygon fill="#64748b" stroke="#64748b" points="100.71,-415.69 93.67,-413.36 97.72,-419.58 100.71,-415.69"/>
</g>
<!-- n42&#45;&gt;n5 -->
<g id="edge86" class="edge">
<title>n42&#45;&gt;n5</title>
<path fill="none" stroke="#64748b" d="M883.91,-537.95C1116.86,-536.1 1729.65,-523.34 1913,-441.2 1924.51,-436.05 1935.01,-427.04 1943.32,-418.34"/>
<polygon fill="#64748b" stroke="#64748b" points="1945.06,-420.06 1947.95,-413.23 1941.43,-416.77 1945.06,-420.06"/>
</g>
<!-- n42&#45;&gt;n41 -->
<g id="edge87" class="edge">
<title>n42&#45;&gt;n41</title>
<path fill="none" stroke="#64748b" d="M850.56,-519.72C881.03,-509.93 918.46,-497.92 949.49,-487.95"/>
<polygon fill="#64748b" stroke="#64748b" points="949.88,-490.4 955.8,-485.93 948.39,-485.73 949.88,-490.4"/>
</g>
<!-- n11&#45;&gt;n10 -->
<g id="edge5" class="edge">
<title>n11&#45;&gt;n10</title>
<path fill="none" stroke="#64748b" d="M2428.94,-375.7C2431.32,-367.39 2434.21,-357.28 2436.82,-348.14"/>
<polygon fill="#64748b" stroke="#64748b" points="2439.13,-348.96 2438.7,-341.56 2434.42,-347.62 2439.13,-348.96"/>
</g>
</g>
</svg>
