<?xml version="1.0" encoding="UTF-8" standalone="no"?>
<!DOCTYPE svg PUBLIC "-//W3C//DTD SVG 1.1//EN"
 "http://www.w3.org/Graphics/SVG/1.1/DTD/svg11.dtd">
<!-- Generated by graphviz version 15.0.0 (20260523.1842)
 -->
<!-- Title: subgaussian_rip_tail_anisotropic Pages: 1 -->
<svg width="1335pt" height="410pt"
 viewBox="0.00 0.00 1335.00 410.00" xmlns="http://www.w3.org/2000/svg" xmlns:xlink="http://www.w3.org/1999/xlink">
<g id="graph0" class="graph" transform="scale(1 1) rotate(0) translate(4 406)">
<title>subgaussian_rip_tail_anisotropic</title>
<polygon fill="white" stroke="none" points="-4,4 -4,-406 1331,-406 1331,4 -4,4"/>
<text xml:space="preserve" text-anchor="middle" x="663.5" y="-385.4" font-family="Helvetica,sans-Serif" font-size="14.00">Proof narrative — subgaussian_rip_tail_anisotropic &#160;(26 decls)</text>
<g id="clust1" class="cluster">
<title>cluster_0</title>
<path fill="none" stroke="#cbd5e1" stroke-dasharray="5,2" d="M20,-8C20,-8 1307,-8 1307,-8 1313,-8 1319,-14 1319,-20 1319,-20 1319,-357.2 1319,-357.2 1319,-363.2 1313,-369.2 1307,-369.2 1307,-369.2 20,-369.2 20,-369.2 14,-369.2 8,-363.2 8,-357.2 8,-357.2 8,-20 8,-20 8,-14 14,-8 20,-8"/>
<text xml:space="preserve" text-anchor="middle" x="663.5" y="-355.3" font-family="Helvetica,sans-Serif" font-size="11.00">HighDim</text>
</g>
<!-- n0 -->
<g id="node1" class="node">
<title>n0</title>
<g id="a_node1"><a xlink:href="https://github.com/statopia/statlib/blob/main/Statlib/HighDim/Vocabulary/RandomVector.lean#L101" xlink:title="structure · Statlib/HighDim/Vocabulary/RandomVector.lean:101" target="_blank">
<path fill="#e8dcff" stroke="#8b5cf6" d="M778.79,-196C778.79,-196 691.21,-196 691.21,-196 685.21,-196 679.21,-190 679.21,-184 679.21,-184 679.21,-172 679.21,-172 679.21,-166 685.21,-160 691.21,-160 691.21,-160 778.79,-160 778.79,-160 784.79,-160 790.79,-166 790.79,-172 790.79,-172 790.79,-184 790.79,-184 790.79,-190 784.79,-196 778.79,-196"/>
<text xml:space="preserve" text-anchor="middle" x="735" y="-175" font-family="Helvetica,sans-Serif" font-size="10.00">HasCovarianceMatrix</text>
</a>
</g>
</g>
<!-- n1 -->
<g id="node2" class="node">
<title>n1</title>
<g id="a_node2"><a xlink:href="https://github.com/statopia/statlib/blob/main/Statlib/HighDim/Vocabulary/RandomVector.lean#L52" xlink:title="structure · Statlib/HighDim/Vocabulary/RandomVector.lean:52" target="_blank">
<path fill="#e8dcff" stroke="#8b5cf6" d="M552.36,-196C552.36,-196 463.64,-196 463.64,-196 457.64,-196 451.64,-190 451.64,-184 451.64,-184 451.64,-172 451.64,-172 451.64,-166 457.64,-160 463.64,-160 463.64,-160 552.36,-160 552.36,-160 558.36,-160 564.36,-166 564.36,-172 564.36,-172 564.36,-184 564.36,-184 564.36,-190 558.36,-196 552.36,-196"/>
<text xml:space="preserve" text-anchor="middle" x="508" y="-175" font-family="Helvetica,sans-Serif" font-size="10.00">IsSubGaussianVector</text>
</a>
</g>
</g>
<!-- n2 -->
<g id="node3" class="node">
<title>n2</title>
<g id="a_node3"><a xlink:href="https://github.com/statopia/statlib/blob/main/Statlib/HighDim/Vocabulary/Sparse.lean#L36" xlink:title="def · Statlib/HighDim/Vocabulary/Sparse.lean:36" target="_blank">
<path fill="#d6e9ff" stroke="#3b82f6" d="M99.73,-196C99.73,-196 68.27,-196 68.27,-196 62.27,-196 56.27,-190 56.27,-184 56.27,-184 56.27,-172 56.27,-172 56.27,-166 62.27,-160 68.27,-160 68.27,-160 99.73,-160 99.73,-160 105.73,-160 111.73,-166 111.73,-172 111.73,-172 111.73,-184 111.73,-184 111.73,-190 105.73,-196 99.73,-196"/>
<text xml:space="preserve" text-anchor="middle" x="84" y="-175" font-family="Helvetica,sans-Serif" font-size="10.00">IsSparse</text>
</a>
</g>
</g>
<!-- n3 -->
<g id="node4" class="node">
<title>n3</title>
<g id="a_node4"><a xlink:href="https://github.com/statopia/statlib/blob/main/Statlib/HighDim/Vocabulary/Norms.lean#L13" xlink:title="noncomputable def · Statlib/HighDim/Vocabulary/Norms.lean:13" target="_blank">
<path fill="#d6e9ff" stroke="#3b82f6" d="M165.23,-52C165.23,-52 128.77,-52 128.77,-52 122.77,-52 116.77,-46 116.77,-40 116.77,-40 116.77,-28 116.77,-28 116.77,-22 122.77,-16 128.77,-16 128.77,-16 165.23,-16 165.23,-16 171.23,-16 177.23,-22 177.23,-28 177.23,-28 177.23,-40 177.23,-40 177.23,-46 171.23,-52 165.23,-52"/>
<text xml:space="preserve" text-anchor="middle" x="147" y="-31" font-family="Helvetica,sans-Serif" font-size="10.00">l2NormSq</text>
</a>
</g>
</g>
<!-- n4 -->
<g id="node5" class="node">
<title>n4</title>
<g id="a_node5"><a xlink:href="https://github.com/statopia/statlib/blob/main/Statlib/HighDim/Geometry/CoveringNumbers.lean#L42" xlink:title="theorem · Statlib/HighDim/Geometry/CoveringNumbers.lean:42" target="_blank">
<path fill="#ffe6a3" stroke="#d4a017" d="M402.38,-196C402.38,-196 263.62,-196 263.62,-196 257.62,-196 251.62,-190 251.62,-184 251.62,-184 251.62,-172 251.62,-172 251.62,-166 257.62,-160 263.62,-160 263.62,-160 402.38,-160 402.38,-160 408.38,-160 414.38,-166 414.38,-172 414.38,-172 414.38,-184 414.38,-184 414.38,-190 408.38,-196 402.38,-196"/>
<text xml:space="preserve" text-anchor="middle" x="333" y="-175" font-family="Helvetica,sans-Serif" font-size="10.00">covering_number_euclidean_ball</text>
</a>
</g>
</g>
<!-- n5 -->
<g id="node6" class="node">
<title>n5</title>
<g id="a_node6"><a xlink:href="https://github.com/statopia/statlib/blob/main/Statlib/HighDim/Vocabulary/Norms.lean#L21" xlink:title="lemma · Statlib/HighDim/Vocabulary/Norms.lean:21" target="_blank">
<path fill="#eef2f6" stroke="#94a3b8" d="M150.64,-124C150.64,-124 71.36,-124 71.36,-124 65.36,-124 59.36,-118 59.36,-112 59.36,-112 59.36,-100 59.36,-100 59.36,-94 65.36,-88 71.36,-88 71.36,-88 150.64,-88 150.64,-88 156.64,-88 162.64,-94 162.64,-100 162.64,-100 162.64,-112 162.64,-112 162.64,-118 156.64,-124 150.64,-124"/>
<text xml:space="preserve" text-anchor="middle" x="111" y="-103" font-family="Helvetica,sans-Serif" font-size="10.00">euclidean_norm_sq</text>
</a>
</g>
</g>
<!-- n5&#45;&gt;n3 -->
<g id="edge1" class="edge">
<title>n5&#45;&gt;n3</title>
<path fill="none" stroke="#64748b" d="M119.9,-87.7C124.26,-79.22 129.58,-68.86 134.36,-59.58"/>
<polygon fill="#64748b" stroke="#64748b" points="136.49,-60.8 137.51,-53.45 132.13,-58.55 136.49,-60.8"/>
</g>
<!-- n6 -->
<g id="node7" class="node">
<title>n6</title>
<g id="a_node7"><a xlink:href="https://github.com/statopia/statlib/blob/main/Statlib/HighDim/Vocabulary/Norms.lean#L27" xlink:title="lemma · Statlib/HighDim/Vocabulary/Norms.lean:27" target="_blank">
<path fill="#eef2f6" stroke="#94a3b8" d="M221.92,-196C221.92,-196 142.08,-196 142.08,-196 136.08,-196 130.08,-190 130.08,-184 130.08,-184 130.08,-172 130.08,-172 130.08,-166 136.08,-160 142.08,-160 142.08,-160 221.92,-160 221.92,-160 227.92,-160 233.92,-166 233.92,-172 233.92,-172 233.92,-184 233.92,-184 233.92,-190 227.92,-196 221.92,-196"/>
<text xml:space="preserve" text-anchor="middle" x="182" y="-175" font-family="Helvetica,sans-Serif" font-size="10.00">euclidean_norm_eq</text>
</a>
</g>
</g>
<!-- n6&#45;&gt;n3 -->
<g id="edge2" class="edge">
<title>n6&#45;&gt;n3</title>
<path fill="none" stroke="#64748b" d="M181.72,-159.62C181.05,-141.44 178.87,-112.23 172,-88 169.28,-78.41 164.98,-68.39 160.71,-59.68"/>
<polygon fill="#64748b" stroke="#64748b" points="162.89,-58.57 157.52,-53.45 158.52,-60.8 162.89,-58.57"/>
</g>
<!-- n6&#45;&gt;n5 -->
<g id="edge3" class="edge">
<title>n6&#45;&gt;n5</title>
<path fill="none" stroke="#64748b" d="M164.45,-159.7C155.34,-150.71 144.08,-139.61 134.25,-129.92"/>
<polygon fill="#64748b" stroke="#64748b" points="136.13,-128.34 129.43,-125.17 132.69,-131.83 136.13,-128.34"/>
</g>
<!-- n7 -->
<g id="node8" class="node">
<title>n7</title>
<g id="a_node8"><a xlink:href="https://github.com/statopia/statlib/blob/main/Statlib/HighDim/Geometry/CoveringNumbers.lean#L477" xlink:title="theorem · Statlib/HighDim/Geometry/CoveringNumbers.lean:477" target="_blank">
<path fill="#ffe6a3" stroke="#d4a017" d="M284.98,-268C284.98,-268 159.02,-268 159.02,-268 153.02,-268 147.02,-262 147.02,-256 147.02,-256 147.02,-244 147.02,-244 147.02,-238 153.02,-232 159.02,-232 159.02,-232 284.98,-232 284.98,-232 290.98,-232 296.98,-238 296.98,-244 296.98,-244 296.98,-256 296.98,-256 296.98,-262 290.98,-268 284.98,-268"/>
<text xml:space="preserve" text-anchor="middle" x="222" y="-247" font-family="Helvetica,sans-Serif" font-size="10.00">covering_number_sparse_ball</text>
</a>
</g>
</g>
<!-- n7&#45;&gt;n2 -->
<g id="edge4" class="edge">
<title>n7&#45;&gt;n2</title>
<path fill="none" stroke="#64748b" d="M187.53,-231.52C166.77,-220.99 140.39,-207.6 119.45,-196.98"/>
<polygon fill="#64748b" stroke="#64748b" points="120.71,-194.87 113.36,-193.89 118.49,-199.24 120.71,-194.87"/>
</g>
<!-- n7&#45;&gt;n3 -->
<g id="edge6" class="edge">
<title>n7&#45;&gt;n3</title>
<path fill="none" stroke="#64748b" d="M297.26,-233.77C350.93,-222.15 414.97,-206.42 423,-196 432.77,-183.33 431.67,-173.45 423,-160 369.93,-77.71 248.12,-49 185.59,-39.46"/>
<polygon fill="#64748b" stroke="#64748b" points="186.31,-37.09 179.03,-38.51 185.6,-41.94 186.31,-37.09"/>
</g>
<!-- n7&#45;&gt;n4 -->
<g id="edge5" class="edge">
<title>n7&#45;&gt;n4</title>
<path fill="none" stroke="#64748b" d="M249.72,-231.52C264.54,-222.18 282.9,-210.59 298.62,-200.68"/>
<polygon fill="#64748b" stroke="#64748b" points="299.74,-202.87 304.35,-197.07 297.12,-198.73 299.74,-202.87"/>
</g>
<!-- n7&#45;&gt;n6 -->
<g id="edge7" class="edge">
<title>n7&#45;&gt;n6</title>
<path fill="none" stroke="#64748b" d="M212.11,-231.7C207.22,-223.14 201.23,-212.66 195.89,-203.3"/>
<polygon fill="#64748b" stroke="#64748b" points="198.13,-202.28 192.52,-197.42 193.87,-204.71 198.13,-202.28"/>
</g>
<!-- n8 -->
<g id="node9" class="node">
<title>n8</title>
<g id="a_node9"><a xlink:href="https://github.com/statopia/statlib/blob/main/Statlib/HighDim/Vocabulary/Norms.lean#L32" xlink:title="lemma · Statlib/HighDim/Vocabulary/Norms.lean:32" target="_blank">
<path fill="#eef2f6" stroke="#94a3b8" d="M649.69,-196C649.69,-196 594.31,-196 594.31,-196 588.31,-196 582.31,-190 582.31,-184 582.31,-184 582.31,-172 582.31,-172 582.31,-166 588.31,-160 594.31,-160 594.31,-160 649.69,-160 649.69,-160 655.69,-160 661.69,-166 661.69,-172 661.69,-172 661.69,-184 661.69,-184 661.69,-190 655.69,-196 649.69,-196"/>
<text xml:space="preserve" text-anchor="middle" x="622" y="-175" font-family="Helvetica,sans-Serif" font-size="10.00">inner_eq_sum</text>
</a>
</g>
</g>
<!-- n9 -->
<g id="node10" class="node">
<title>n9</title>
<g id="a_node10"><a xlink:href="https://github.com/statopia/statlib/blob/main/Statlib/HighDim/CovarianceMatrix/SampleCovariance.lean#L256" xlink:title="lemma · Statlib/HighDim/CovarianceMatrix/SampleCovariance.lean:256" target="_blank">
<path fill="#eef2f6" stroke="#94a3b8" d="M707.17,-268C707.17,-268 532.83,-268 532.83,-268 526.83,-268 520.83,-262 520.83,-256 520.83,-256 520.83,-244 520.83,-244 520.83,-238 526.83,-232 532.83,-232 532.83,-232 707.17,-232 707.17,-232 713.17,-232 719.17,-238 719.17,-244 719.17,-244 719.17,-256 719.17,-256 719.17,-262 713.17,-268 707.17,-268"/>
<text xml:space="preserve" text-anchor="middle" x="620" y="-247" font-family="Helvetica,sans-Serif" font-size="10.00">projection_sq_integral_eq_cov_quadratic</text>
</a>
</g>
</g>
<!-- n9&#45;&gt;n0 -->
<g id="edge8" class="edge">
<title>n9&#45;&gt;n0</title>
<path fill="none" stroke="#64748b" d="M648.72,-231.52C664.07,-222.18 683.1,-210.59 699.38,-200.68"/>
<polygon fill="#64748b" stroke="#64748b" points="700.64,-202.78 705.35,-197.05 698.1,-198.59 700.64,-202.78"/>
</g>
<!-- n9&#45;&gt;n8 -->
<g id="edge9" class="edge">
<title>n9&#45;&gt;n8</title>
<path fill="none" stroke="#64748b" d="M620.49,-231.7C620.73,-223.47 621.01,-213.48 621.27,-204.42"/>
<polygon fill="#64748b" stroke="#64748b" points="623.72,-204.68 621.47,-197.62 618.82,-204.54 623.72,-204.68"/>
</g>
<!-- n10 -->
<g id="node11" class="node">
<title>n10</title>
<g id="a_node11"><a xlink:href="https://github.com/statopia/statlib/blob/main/Statlib/HighDim/CovarianceMatrix/Properties.lean#L142" xlink:title="lemma · Statlib/HighDim/CovarianceMatrix/Properties.lean:142" target="_blank">
<path fill="#eef2f6" stroke="#94a3b8" d="M471.44,-268C471.44,-268 346.56,-268 346.56,-268 340.56,-268 334.56,-262 334.56,-256 334.56,-256 334.56,-244 334.56,-244 334.56,-238 340.56,-232 346.56,-232 346.56,-232 471.44,-232 471.44,-232 477.44,-232 483.44,-238 483.44,-244 483.44,-244 483.44,-256 483.44,-256 483.44,-262 477.44,-268 471.44,-268"/>
<text xml:space="preserve" text-anchor="middle" x="409" y="-247" font-family="Helvetica,sans-Serif" font-size="10.00">subgaussian_variance_bound</text>
</a>
</g>
</g>
<!-- n10&#45;&gt;n0 -->
<g id="edge11" class="edge">
<title>n10&#45;&gt;n0</title>
<path fill="none" stroke="#64748b" d="M483.79,-235.11C534.29,-225.44 602.6,-211.8 670.57,-196.05"/>
<polygon fill="#64748b" stroke="#64748b" points="671.12,-198.44 677.38,-194.46 670.01,-193.66 671.12,-198.44"/>
</g>
<!-- n10&#45;&gt;n1 -->
<g id="edge10" class="edge">
<title>n10&#45;&gt;n1</title>
<path fill="none" stroke="#64748b" d="M433.73,-231.52C446.82,-222.26 463.03,-210.8 476.96,-200.95"/>
<polygon fill="#64748b" stroke="#64748b" points="478.05,-203.18 482.35,-197.13 475.22,-199.18 478.05,-203.18"/>
</g>
<!-- n11 -->
<g id="node12" class="node">
<title>n11</title>
<g id="a_node12"><a xlink:href="https://github.com/statopia/statlib/blob/main/Statlib/HighDim/Vocabulary/Norms.lean#L41" xlink:title="noncomputable def · Statlib/HighDim/Vocabulary/Norms.lean:41" target="_blank">
<path fill="#d6e9ff" stroke="#3b82f6" d="M813.13,-268C813.13,-268 768.87,-268 768.87,-268 762.87,-268 756.87,-262 756.87,-256 756.87,-256 756.87,-244 756.87,-244 756.87,-238 762.87,-232 768.87,-232 768.87,-232 813.13,-232 813.13,-232 819.13,-232 825.13,-238 825.13,-244 825.13,-244 825.13,-256 825.13,-256 825.13,-262 819.13,-268 813.13,-268"/>
<text xml:space="preserve" text-anchor="middle" x="791" y="-247" font-family="Helvetica,sans-Serif" font-size="10.00">toEuclidean</text>
</a>
</g>
</g>
<!-- n12 -->
<g id="node13" class="node">
<title>n12</title>
<g id="a_node13"><a xlink:href="https://github.com/statopia/statlib/blob/main/Statlib/HighDim/Geometry/SubGaussianRIPTailAnisotropic.lean#L34" xlink:title="private noncomputable def · Statlib/HighDim/Geometry/SubGaussianRIPTailAnisotropic.lean:34" target="_blank">
<path fill="#f1f5f9" stroke="#94a3b8" d="M955,-52C955,-52 925,-52 925,-52 919,-52 913,-46 913,-40 913,-40 913,-28 913,-28 913,-22 919,-16 925,-16 925,-16 955,-16 955,-16 961,-16 967,-22 967,-28 967,-28 967,-40 967,-40 967,-46 961,-52 955,-52"/>
<text xml:space="preserve" text-anchor="middle" x="940" y="-31" font-family="Helvetica,sans-Serif" font-size="10.00">bilD</text>
</a>
</g>
</g>
<!-- n13 -->
<g id="node14" class="node">
<title>n13</title>
<g id="a_node14"><a xlink:href="https://github.com/statopia/statlib/blob/main/Statlib/HighDim/Geometry/SubGaussianRIPTailAnisotropic.lean#L119" xlink:title="private lemma · Statlib/HighDim/Geometry/SubGaussianRIPTailAnisotropic.lean:119" target="_blank">
<path fill="#eef2f6" stroke="#94a3b8" d="M810.81,-124C810.81,-124 723.19,-124 723.19,-124 717.19,-124 711.19,-118 711.19,-112 711.19,-112 711.19,-100 711.19,-100 711.19,-94 717.19,-88 723.19,-88 723.19,-88 810.81,-88 810.81,-88 816.81,-88 822.81,-94 822.81,-100 822.81,-100 822.81,-112 822.81,-112 822.81,-118 816.81,-124 810.81,-124"/>
<text xml:space="preserve" text-anchor="middle" x="767" y="-103" font-family="Helvetica,sans-Serif" font-size="10.00">bilD_diag_continuous</text>
</a>
</g>
</g>
<!-- n13&#45;&gt;n12 -->
<g id="edge12" class="edge">
<title>n13&#45;&gt;n12</title>
<path fill="none" stroke="#64748b" d="M810.21,-87.52C839.45,-75.69 877.58,-60.26 904.93,-49.19"/>
<polygon fill="#64748b" stroke="#64748b" points="905.73,-51.51 911.3,-46.61 903.89,-46.97 905.73,-51.51"/>
</g>
<!-- n14 -->
<g id="node15" class="node">
<title>n14</title>
<g id="a_node15"><a xlink:href="https://github.com/statopia/statlib/blob/main/Statlib/HighDim/Geometry/SubGaussianRIPTailAnisotropic.lean#L42" xlink:title="private lemma · Statlib/HighDim/Geometry/SubGaussianRIPTailAnisotropic.lean:42" target="_blank">
<path fill="#eef2f6" stroke="#94a3b8" d="M1054.39,-52C1054.39,-52 1019.61,-52 1019.61,-52 1013.61,-52 1007.61,-46 1007.61,-40 1007.61,-40 1007.61,-28 1007.61,-28 1007.61,-22 1013.61,-16 1019.61,-16 1019.61,-16 1054.39,-16 1054.39,-16 1060.39,-16 1066.39,-22 1066.39,-28 1066.39,-28 1066.39,-40 1066.39,-40 1066.39,-46 1060.39,-52 1054.39,-52"/>
<text xml:space="preserve" text-anchor="middle" x="1037" y="-31" font-family="Helvetica,sans-Serif" font-size="10.00">row_smul</text>
</a>
</g>
</g>
<!-- n15 -->
<g id="node16" class="node">
<title>n15</title>
<g id="a_node16"><a xlink:href="https://github.com/statopia/statlib/blob/main/Statlib/HighDim/Geometry/SubGaussianRIPTailAnisotropic.lean#L66" xlink:title="private lemma · Statlib/HighDim/Geometry/SubGaussianRIPTailAnisotropic.lean:66" target="_blank">
<path fill="#eef2f6" stroke="#94a3b8" d="M967.4,-124C967.4,-124 912.6,-124 912.6,-124 906.6,-124 900.6,-118 900.6,-112 900.6,-112 900.6,-100 900.6,-100 900.6,-94 906.6,-88 912.6,-88 912.6,-88 967.4,-88 967.4,-88 973.4,-88 979.4,-94 979.4,-100 979.4,-100 979.4,-112 979.4,-112 979.4,-118 973.4,-124 967.4,-124"/>
<text xml:space="preserve" text-anchor="middle" x="940" y="-103" font-family="Helvetica,sans-Serif" font-size="10.00">bilD_smul_left</text>
</a>
</g>
</g>
<!-- n15&#45;&gt;n12 -->
<g id="edge13" class="edge">
<title>n15&#45;&gt;n12</title>
<path fill="none" stroke="#64748b" d="M940,-87.7C940,-79.47 940,-69.48 940,-60.42"/>
<polygon fill="#64748b" stroke="#64748b" points="942.45,-60.62 940,-53.62 937.55,-60.62 942.45,-60.62"/>
</g>
<!-- n15&#45;&gt;n14 -->
<g id="edge14" class="edge">
<title>n15&#45;&gt;n14</title>
<path fill="none" stroke="#64748b" d="M963.98,-87.7C976.69,-78.53 992.44,-67.16 1006.06,-57.33"/>
<polygon fill="#64748b" stroke="#64748b" points="1007.49,-59.32 1011.73,-53.23 1004.62,-55.34 1007.49,-59.32"/>
</g>
<!-- n16 -->
<g id="node17" class="node">
<title>n16</title>
<g id="a_node17"><a xlink:href="https://github.com/statopia/statlib/blob/main/Statlib/HighDim/Geometry/SubGaussianRIPTailAnisotropic.lean#L142" xlink:title="private lemma · Statlib/HighDim/Geometry/SubGaussianRIPTailAnisotropic.lean:142" target="_blank">
<path fill="#eef2f6" stroke="#94a3b8" d="M934.57,-196C934.57,-196 881.43,-196 881.43,-196 875.43,-196 869.43,-190 869.43,-184 869.43,-184 869.43,-172 869.43,-172 869.43,-166 875.43,-160 881.43,-160 881.43,-160 934.57,-160 934.57,-160 940.57,-160 946.57,-166 946.57,-172 946.57,-172 946.57,-184 946.57,-184 946.57,-190 940.57,-196 934.57,-196"/>
<text xml:space="preserve" text-anchor="middle" x="908" y="-175" font-family="Helvetica,sans-Serif" font-size="10.00">bilD_zero_left</text>
</a>
</g>
</g>
<!-- n16&#45;&gt;n12 -->
<g id="edge15" class="edge">
<title>n16&#45;&gt;n12</title>
<path fill="none" stroke="#64748b" d="M894.01,-159.53C881.2,-141.29 865.81,-112.03 877,-88 883.2,-74.68 894.59,-63.51 905.99,-54.91"/>
<polygon fill="#64748b" stroke="#64748b" points="907.15,-57.08 911.43,-51.03 904.31,-53.1 907.15,-57.08"/>
</g>
<!-- n16&#45;&gt;n15 -->
<g id="edge16" class="edge">
<title>n16&#45;&gt;n15</title>
<path fill="none" stroke="#64748b" d="M915.91,-159.7C919.79,-151.22 924.52,-140.86 928.76,-131.58"/>
<polygon fill="#64748b" stroke="#64748b" points="930.87,-132.87 931.55,-125.48 926.41,-130.83 930.87,-132.87"/>
</g>
<!-- n17 -->
<g id="node18" class="node">
<title>n17</title>
<g id="a_node18"><a xlink:href="https://github.com/statopia/statlib/blob/main/Statlib/HighDim/Geometry/SubGaussianRIPTailAnisotropic.lean#L101" xlink:title="private lemma · Statlib/HighDim/Geometry/SubGaussianRIPTailAnisotropic.lean:101" target="_blank">
<path fill="#eef2f6" stroke="#94a3b8" d="M1089.46,-124C1089.46,-124 1028.54,-124 1028.54,-124 1022.54,-124 1016.54,-118 1016.54,-112 1016.54,-112 1016.54,-100 1016.54,-100 1016.54,-94 1022.54,-88 1028.54,-88 1028.54,-88 1089.46,-88 1089.46,-88 1095.46,-88 1101.46,-94 1101.46,-100 1101.46,-100 1101.46,-112 1101.46,-112 1101.46,-118 1095.46,-124 1089.46,-124"/>
<text xml:space="preserve" text-anchor="middle" x="1059" y="-103" font-family="Helvetica,sans-Serif" font-size="10.00">bilD_smul_right</text>
</a>
</g>
</g>
<!-- n17&#45;&gt;n12 -->
<g id="edge17" class="edge">
<title>n17&#45;&gt;n12</title>
<path fill="none" stroke="#64748b" d="M1029.28,-87.52C1012.65,-77.74 991.85,-65.5 974.51,-55.3"/>
<polygon fill="#64748b" stroke="#64748b" points="975.89,-53.27 968.61,-51.83 973.4,-57.49 975.89,-53.27"/>
</g>
<!-- n17&#45;&gt;n14 -->
<g id="edge18" class="edge">
<title>n17&#45;&gt;n14</title>
<path fill="none" stroke="#64748b" d="M1053.56,-87.7C1050.95,-79.39 1047.77,-69.28 1044.9,-60.14"/>
<polygon fill="#64748b" stroke="#64748b" points="1047.27,-59.49 1042.83,-53.55 1042.59,-60.96 1047.27,-59.49"/>
</g>
<!-- n18 -->
<g id="node19" class="node">
<title>n18</title>
<g id="a_node19"><a xlink:href="https://github.com/statopia/statlib/blob/main/Statlib/HighDim/Geometry/SubGaussianRIPTailAnisotropic.lean#L146" xlink:title="private lemma · Statlib/HighDim/Geometry/SubGaussianRIPTailAnisotropic.lean:146" target="_blank">
<path fill="#eef2f6" stroke="#94a3b8" d="M1037.18,-196C1037.18,-196 976.82,-196 976.82,-196 970.82,-196 964.82,-190 964.82,-184 964.82,-184 964.82,-172 964.82,-172 964.82,-166 970.82,-160 976.82,-160 976.82,-160 1037.18,-160 1037.18,-160 1043.18,-160 1049.18,-166 1049.18,-172 1049.18,-172 1049.18,-184 1049.18,-184 1049.18,-190 1043.18,-196 1037.18,-196"/>
<text xml:space="preserve" text-anchor="middle" x="1007" y="-175" font-family="Helvetica,sans-Serif" font-size="10.00">bilD_diag_smul</text>
</a>
</g>
</g>
<!-- n18&#45;&gt;n12 -->
<g id="edge19" class="edge">
<title>n18&#45;&gt;n12</title>
<path fill="none" stroke="#64748b" d="M964.51,-162.87C935.36,-152.22 900.48,-137.24 892,-124 878.22,-102.48 895.63,-76.66 913.21,-58.39"/>
<polygon fill="#64748b" stroke="#64748b" points="914.83,-60.24 918.06,-53.57 911.37,-56.76 914.83,-60.24"/>
</g>
<!-- n18&#45;&gt;n15 -->
<g id="edge20" class="edge">
<title>n18&#45;&gt;n15</title>
<path fill="none" stroke="#64748b" d="M990.44,-159.7C981.92,-150.8 971.42,-139.82 962.2,-130.2"/>
<polygon fill="#64748b" stroke="#64748b" points="964.03,-128.56 957.42,-125.2 960.49,-131.95 964.03,-128.56"/>
</g>
<!-- n18&#45;&gt;n17 -->
<g id="edge21" class="edge">
<title>n18&#45;&gt;n17</title>
<path fill="none" stroke="#64748b" d="M1019.85,-159.7C1026.34,-150.97 1034.31,-140.24 1041.36,-130.75"/>
<polygon fill="#64748b" stroke="#64748b" points="1043.18,-132.4 1045.39,-125.32 1039.25,-129.48 1043.18,-132.4"/>
</g>
<!-- n19 -->
<g id="node20" class="node">
<title>n19</title>
<g id="a_node20"><a xlink:href="https://github.com/statopia/statlib/blob/main/Statlib/HighDim/Geometry/SubGaussianRIPTailAnisotropic.lean#L38" xlink:title="private lemma · Statlib/HighDim/Geometry/SubGaussianRIPTailAnisotropic.lean:38" target="_blank">
<path fill="#eef2f6" stroke="#94a3b8" d="M1241.18,-52C1241.18,-52 1210.82,-52 1210.82,-52 1204.82,-52 1198.82,-46 1198.82,-40 1198.82,-40 1198.82,-28 1198.82,-28 1198.82,-22 1204.82,-16 1210.82,-16 1210.82,-16 1241.18,-16 1241.18,-16 1247.18,-16 1253.18,-22 1253.18,-28 1253.18,-28 1253.18,-40 1253.18,-40 1253.18,-46 1247.18,-52 1241.18,-52"/>
<text xml:space="preserve" text-anchor="middle" x="1226" y="-31" font-family="Helvetica,sans-Serif" font-size="10.00">row_add</text>
</a>
</g>
</g>
<!-- n20 -->
<g id="node21" class="node">
<title>n20</title>
<g id="a_node21"><a xlink:href="https://github.com/statopia/statlib/blob/main/Statlib/HighDim/Geometry/SubGaussianRIPTailAnisotropic.lean#L48" xlink:title="private lemma · Statlib/HighDim/Geometry/SubGaussianRIPTailAnisotropic.lean:48" target="_blank">
<path fill="#eef2f6" stroke="#94a3b8" d="M1299.19,-124C1299.19,-124 1248.81,-124 1248.81,-124 1242.81,-124 1236.81,-118 1236.81,-112 1236.81,-112 1236.81,-100 1236.81,-100 1236.81,-94 1242.81,-88 1248.81,-88 1248.81,-88 1299.19,-88 1299.19,-88 1305.19,-88 1311.19,-94 1311.19,-100 1311.19,-100 1311.19,-112 1311.19,-112 1311.19,-118 1305.19,-124 1299.19,-124"/>
<text xml:space="preserve" text-anchor="middle" x="1274" y="-103" font-family="Helvetica,sans-Serif" font-size="10.00">bilD_add_left</text>
</a>
</g>
</g>
<!-- n20&#45;&gt;n12 -->
<g id="edge22" class="edge">
<title>n20&#45;&gt;n12</title>
<path fill="none" stroke="#64748b" d="M1236.54,-90.47C1233.67,-89.57 1230.8,-88.73 1228,-88 1128.3,-62.02 1099.58,-74.31 999,-52 991.36,-50.31 983.24,-48.18 975.56,-46.02"/>
<polygon fill="#64748b" stroke="#64748b" points="976.29,-43.68 968.89,-44.09 974.93,-48.39 976.29,-43.68"/>
</g>
<!-- n20&#45;&gt;n19 -->
<g id="edge23" class="edge">
<title>n20&#45;&gt;n19</title>
<path fill="none" stroke="#64748b" d="M1262.13,-87.7C1256.21,-79.05 1248.94,-68.45 1242.48,-59.03"/>
<polygon fill="#64748b" stroke="#64748b" points="1244.56,-57.74 1238.58,-53.35 1240.52,-60.51 1244.56,-57.74"/>
</g>
<!-- n21 -->
<g id="node22" class="node">
<title>n21</title>
<g id="a_node22"><a xlink:href="https://github.com/statopia/statlib/blob/main/Statlib/HighDim/Geometry/SubGaussianRIPTailAnisotropic.lean#L83" xlink:title="private lemma · Statlib/HighDim/Geometry/SubGaussianRIPTailAnisotropic.lean:83" target="_blank">
<path fill="#eef2f6" stroke="#94a3b8" d="M1207.24,-124C1207.24,-124 1150.76,-124 1150.76,-124 1144.76,-124 1138.76,-118 1138.76,-112 1138.76,-112 1138.76,-100 1138.76,-100 1138.76,-94 1144.76,-88 1150.76,-88 1150.76,-88 1207.24,-88 1207.24,-88 1213.24,-88 1219.24,-94 1219.24,-100 1219.24,-100 1219.24,-112 1219.24,-112 1219.24,-118 1213.24,-124 1207.24,-124"/>
<text xml:space="preserve" text-anchor="middle" x="1179" y="-103" font-family="Helvetica,sans-Serif" font-size="10.00">bilD_add_right</text>
</a>
</g>
</g>
<!-- n21&#45;&gt;n12 -->
<g id="edge24" class="edge">
<title>n21&#45;&gt;n12</title>
<path fill="none" stroke="#64748b" d="M1138.35,-92.07C1133.85,-90.68 1129.33,-89.3 1125,-88 1069.22,-71.25 1054.98,-68.06 999,-52 991.24,-49.77 982.9,-47.38 975.02,-45.1"/>
<polygon fill="#64748b" stroke="#64748b" points="976.17,-42.89 968.77,-43.3 974.82,-47.6 976.17,-42.89"/>
</g>
<!-- n21&#45;&gt;n19 -->
<g id="edge25" class="edge">
<title>n21&#45;&gt;n19</title>
<path fill="none" stroke="#64748b" d="M1190.62,-87.7C1196.42,-79.05 1203.54,-68.45 1209.87,-59.03"/>
<polygon fill="#64748b" stroke="#64748b" points="1211.8,-60.54 1213.67,-53.36 1207.74,-57.81 1211.8,-60.54"/>
</g>
<!-- n22 -->
<g id="node23" class="node">
<title>n22</title>
<g id="a_node23"><a xlink:href="https://github.com/statopia/statlib/blob/main/Statlib/HighDim/Geometry/SubGaussianRIPTailAnisotropic.lean#L138" xlink:title="private lemma · Statlib/HighDim/Geometry/SubGaussianRIPTailAnisotropic.lean:138" target="_blank">
<path fill="#eef2f6" stroke="#94a3b8" d="M1158.63,-196C1158.63,-196 1099.37,-196 1099.37,-196 1093.37,-196 1087.37,-190 1087.37,-184 1087.37,-184 1087.37,-172 1087.37,-172 1087.37,-166 1093.37,-160 1099.37,-160 1099.37,-160 1158.63,-160 1158.63,-160 1164.63,-160 1170.63,-166 1170.63,-172 1170.63,-172 1170.63,-184 1170.63,-184 1170.63,-190 1164.63,-196 1158.63,-196"/>
<text xml:space="preserve" text-anchor="middle" x="1129" y="-175" font-family="Helvetica,sans-Serif" font-size="10.00">bilD_zero_right</text>
</a>
</g>
</g>
<!-- n22&#45;&gt;n12 -->
<g id="edge26" class="edge">
<title>n22&#45;&gt;n12</title>
<path fill="none" stroke="#64748b" d="M1087.09,-166.08C1061.86,-157.83 1030.39,-144.37 1008,-124 994.46,-111.68 998.66,-102.88 988,-88 980.67,-77.77 971.62,-67.33 963.36,-58.45"/>
<polygon fill="#64748b" stroke="#64748b" points="965.15,-56.78 958.56,-53.38 961.59,-60.15 965.15,-56.78"/>
</g>
<!-- n22&#45;&gt;n17 -->
<g id="edge27" class="edge">
<title>n22&#45;&gt;n17</title>
<path fill="none" stroke="#64748b" d="M1111.7,-159.7C1102.71,-150.71 1091.61,-139.61 1081.92,-129.92"/>
<polygon fill="#64748b" stroke="#64748b" points="1083.86,-128.39 1077.17,-125.17 1080.39,-131.86 1083.86,-128.39"/>
</g>
<!-- n23 -->
<g id="node24" class="node">
<title>n23</title>
<g id="a_node24"><a xlink:href="https://github.com/statopia/statlib/blob/main/Statlib/HighDim/Geometry/SubGaussianRIPTailAnisotropic.lean#L150" xlink:title="private lemma · Statlib/HighDim/Geometry/SubGaussianRIPTailAnisotropic.lean:150" target="_blank">
<path fill="#eef2f6" stroke="#94a3b8" d="M1258.51,-196C1258.51,-196 1221.49,-196 1221.49,-196 1215.49,-196 1209.49,-190 1209.49,-184 1209.49,-184 1209.49,-172 1209.49,-172 1209.49,-166 1215.49,-160 1221.49,-160 1221.49,-160 1258.51,-160 1258.51,-160 1264.51,-160 1270.51,-166 1270.51,-172 1270.51,-172 1270.51,-184 1270.51,-184 1270.51,-190 1264.51,-196 1258.51,-196"/>
<text xml:space="preserve" text-anchor="middle" x="1240" y="-175" font-family="Helvetica,sans-Serif" font-size="10.00">bilD_polar</text>
</a>
</g>
</g>
<!-- n23&#45;&gt;n12 -->
<g id="edge28" class="edge">
<title>n23&#45;&gt;n12</title>
<path fill="none" stroke="#64748b" d="M1208.99,-167.82C1185.12,-159.49 1152.51,-145.24 1130,-124 1116.69,-111.44 1124.2,-99.55 1110,-88 1104.63,-83.63 1023.53,-59.42 975.32,-45.28"/>
<polygon fill="#64748b" stroke="#64748b" points="976.16,-42.98 968.76,-43.36 974.79,-47.68 976.16,-42.98"/>
</g>
<!-- n23&#45;&gt;n15 -->
<g id="edge31" class="edge">
<title>n23&#45;&gt;n15</title>
<path fill="none" stroke="#64748b" d="M1209.28,-167.85C1199.91,-165.18 1189.57,-162.35 1180,-160 1104.16,-141.34 1084.12,-141.47 1008,-124 1001.44,-122.49 994.53,-120.84 987.74,-119.18"/>
<polygon fill="#64748b" stroke="#64748b" points="988.7,-116.9 981.32,-117.6 987.53,-121.65 988.7,-116.9"/>
</g>
<!-- n23&#45;&gt;n17 -->
<g id="edge32" class="edge">
<title>n23&#45;&gt;n17</title>
<path fill="none" stroke="#64748b" d="M1209.3,-165.13C1181.94,-154.54 1141.38,-138.86 1109.29,-126.45"/>
<polygon fill="#64748b" stroke="#64748b" points="1110.57,-124.32 1103.16,-124.08 1108.81,-128.89 1110.57,-124.32"/>
</g>
<!-- n23&#45;&gt;n20 -->
<g id="edge29" class="edge">
<title>n23&#45;&gt;n20</title>
<path fill="none" stroke="#64748b" d="M1248.4,-159.7C1252.52,-151.22 1257.55,-140.86 1262.06,-131.58"/>
<polygon fill="#64748b" stroke="#64748b" points="1264.18,-132.83 1265.03,-125.47 1259.77,-130.69 1264.18,-132.83"/>
</g>
<!-- n23&#45;&gt;n21 -->
<g id="edge30" class="edge">
<title>n23&#45;&gt;n21</title>
<path fill="none" stroke="#64748b" d="M1224.92,-159.7C1217.24,-150.88 1207.79,-140.03 1199.46,-130.47"/>
<polygon fill="#64748b" stroke="#64748b" points="1201.35,-128.91 1194.9,-125.25 1197.65,-132.13 1201.35,-128.91"/>
</g>
<!-- n24 -->
<g id="node25" class="node">
<title>n24</title>
<g id="a_node25"><a xlink:href="https://github.com/statopia/statlib/blob/main/Statlib/HighDim/Geometry/SubGaussianRIPTailAnisotropic.lean#L163" xlink:title="private lemma · Statlib/HighDim/Geometry/SubGaussianRIPTailAnisotropic.lean:163" target="_blank">
<path fill="#eef2f6" stroke="#94a3b8" d="M1129.33,-268C1129.33,-268 1006.67,-268 1006.67,-268 1000.67,-268 994.67,-262 994.67,-256 994.67,-256 994.67,-244 994.67,-244 994.67,-238 1000.67,-232 1006.67,-232 1006.67,-232 1129.33,-232 1129.33,-232 1135.33,-232 1141.33,-238 1141.33,-244 1141.33,-244 1141.33,-256 1141.33,-256 1141.33,-262 1135.33,-268 1129.33,-268"/>
<text xml:space="preserve" text-anchor="middle" x="1068" y="-247" font-family="Helvetica,sans-Serif" font-size="10.00">sparse_quadform_net_bound</text>
</a>
</g>
</g>
<!-- n24&#45;&gt;n12 -->
<g id="edge33" class="edge">
<title>n24&#45;&gt;n12</title>
<path fill="none" stroke="#64748b" d="M994.22,-239.82C941.33,-231.55 876.61,-217.37 860,-196 847.8,-180.3 858.39,-106.23 869,-88 877.56,-73.28 892,-61.38 905.62,-52.62"/>
<polygon fill="#64748b" stroke="#64748b" points="906.66,-54.85 911.35,-49.11 904.1,-50.68 906.66,-54.85"/>
</g>
<!-- n24&#45;&gt;n13 -->
<g id="edge34" class="edge">
<title>n24&#45;&gt;n13</title>
<path fill="none" stroke="#64748b" d="M994.19,-243.36C948.42,-237.09 889.99,-223.88 845,-196 827.3,-185.03 828.66,-175.72 815,-160 806.4,-150.1 796.73,-139.35 788.33,-130.13"/>
<polygon fill="#64748b" stroke="#64748b" points="790.3,-128.66 783.77,-125.14 786.68,-131.96 790.3,-128.66"/>
</g>
<!-- n24&#45;&gt;n15 -->
<g id="edge40" class="edge">
<title>n24&#45;&gt;n15</title>
<path fill="none" stroke="#64748b" d="M1070.76,-231.81C1072.9,-212.46 1073.3,-180.98 1058,-160 1049.02,-147.69 1016.39,-133.53 987.71,-122.95"/>
<polygon fill="#64748b" stroke="#64748b" points="988.59,-120.66 981.17,-120.58 986.92,-125.27 988.59,-120.66"/>
</g>
<!-- n24&#45;&gt;n16 -->
<g id="edge35" class="edge">
<title>n24&#45;&gt;n16</title>
<path fill="none" stroke="#64748b" d="M1028.04,-231.52C1005.75,-221.77 977.88,-209.57 954.6,-199.39"/>
<polygon fill="#64748b" stroke="#64748b" points="955.68,-197.19 948.29,-196.63 953.72,-201.68 955.68,-197.19"/>
</g>
<!-- n24&#45;&gt;n17 -->
<g id="edge41" class="edge">
<title>n24&#45;&gt;n17</title>
<path fill="none" stroke="#64748b" d="M1135.43,-231.55C1152.91,-223.64 1169.7,-212.27 1180,-196 1188.56,-182.48 1188.75,-173.39 1180,-160 1171.59,-147.14 1138.82,-133.22 1109.51,-122.87"/>
<polygon fill="#64748b" stroke="#64748b" points="1110.6,-120.65 1103.18,-120.68 1108.99,-125.28 1110.6,-120.65"/>
</g>
<!-- n24&#45;&gt;n18 -->
<g id="edge36" class="edge">
<title>n24&#45;&gt;n18</title>
<path fill="none" stroke="#64748b" d="M1052.92,-231.7C1045.24,-222.88 1035.79,-212.03 1027.46,-202.47"/>
<polygon fill="#64748b" stroke="#64748b" points="1029.35,-200.91 1022.9,-197.25 1025.65,-204.13 1029.35,-200.91"/>
</g>
<!-- n24&#45;&gt;n20 -->
<g id="edge37" class="edge">
<title>n24&#45;&gt;n20</title>
<path fill="none" stroke="#64748b" d="M1141.68,-241.01C1198.33,-233.17 1269.89,-218.99 1288,-196 1302.21,-177.97 1295.52,-151.35 1287.23,-131.93"/>
<polygon fill="#64748b" stroke="#64748b" points="1289.53,-131.07 1284.39,-125.73 1285.08,-133.11 1289.53,-131.07"/>
</g>
<!-- n24&#45;&gt;n21 -->
<g id="edge38" class="edge">
<title>n24&#45;&gt;n21</title>
<path fill="none" stroke="#64748b" d="M1141.79,-240.23C1195.94,-232.1 1262.9,-217.9 1280,-196 1289.85,-183.39 1288.28,-173.69 1280,-160 1273.69,-149.57 1250.1,-136.92 1227.31,-126.59"/>
<polygon fill="#64748b" stroke="#64748b" points="1228.41,-124.4 1221.02,-123.8 1226.42,-128.88 1228.41,-124.4"/>
</g>
<!-- n24&#45;&gt;n22 -->
<g id="edge39" class="edge">
<title>n24&#45;&gt;n22</title>
<path fill="none" stroke="#64748b" d="M1083.08,-231.7C1090.76,-222.88 1100.21,-212.03 1108.54,-202.47"/>
<polygon fill="#64748b" stroke="#64748b" points="1110.35,-204.13 1113.1,-197.25 1106.65,-200.91 1110.35,-204.13"/>
</g>
<!-- n24&#45;&gt;n23 -->
<g id="edge42" class="edge">
<title>n24&#45;&gt;n23</title>
<path fill="none" stroke="#64748b" d="M1110.96,-231.52C1138.76,-220.2 1174.65,-205.6 1201.52,-194.66"/>
<polygon fill="#64748b" stroke="#64748b" points="1202.23,-197.01 1207.79,-192.11 1200.39,-192.48 1202.23,-197.01"/>
</g>
<!-- n25 -->
<g id="node26" class="node">
<title>n25</title>
<g id="a_node26"><a xlink:href="https://github.com/statopia/statlib/blob/main/Statlib/HighDim/Geometry/SubGaussianRIPTailAnisotropic.lean#L381" xlink:title="theorem · Statlib/HighDim/Geometry/SubGaussianRIPTailAnisotropic.lean:381" target="_blank">
<path fill="#ffe6a3" stroke="#d4a017" stroke-width="3" d="M570.55,-340C570.55,-340 433.45,-340 433.45,-340 427.45,-340 421.45,-334 421.45,-328 421.45,-328 421.45,-316 421.45,-316 421.45,-310 427.45,-304 433.45,-304 433.45,-304 570.55,-304 570.55,-304 576.55,-304 582.55,-310 582.55,-316 582.55,-316 582.55,-328 582.55,-328 582.55,-334 576.55,-340 570.55,-340"/>
<text xml:space="preserve" text-anchor="middle" x="502" y="-319" font-family="Helvetica,sans-Serif" font-size="10.00">subgaussian_rip_tail_anisotropic</text>
</a>
</g>
</g>
<!-- n25&#45;&gt;n0 -->
<g id="edge43" class="edge">
<title>n25&#45;&gt;n0</title>
<path fill="none" stroke="#64748b" d="M583.96,-311.96C640.67,-303.89 709.2,-289.9 728,-268 742.78,-250.79 742.95,-224.17 740.38,-204.53"/>
<polygon fill="#64748b" stroke="#64748b" points="742.83,-204.35 739.33,-197.81 737.99,-205.11 742.83,-204.35"/>
</g>
<!-- n25&#45;&gt;n1 -->
<g id="edge44" class="edge">
<title>n25&#45;&gt;n1</title>
<path fill="none" stroke="#64748b" d="M420.01,-308.87C360.46,-296.42 295.28,-272.94 326,-232 329.74,-227.02 392.71,-209.39 443.55,-195.82"/>
<polygon fill="#64748b" stroke="#64748b" points="444,-198.24 450.13,-194.07 442.74,-193.5 444,-198.24"/>
</g>
<!-- n25&#45;&gt;n2 -->
<g id="edge45" class="edge">
<title>n25&#45;&gt;n2</title>
<path fill="none" stroke="#64748b" d="M420.04,-317.12C327.21,-311.35 182.99,-297.8 138,-268 115.25,-252.93 100.56,-224.69 92.32,-204.05"/>
<polygon fill="#64748b" stroke="#64748b" points="94.69,-203.37 89.92,-197.69 90.11,-205.11 94.69,-203.37"/>
</g>
<!-- n25&#45;&gt;n3 -->
<g id="edge46" class="edge">
<title>n25&#45;&gt;n3</title>
<path fill="none" stroke="#64748b" d="M420.15,-316.4C297.87,-308.79 78.9,-291.98 52,-268 -7.72,-214.76 2.35,-152.26 50,-88 64.43,-68.54 88.22,-55.38 108.62,-47.05"/>
<polygon fill="#64748b" stroke="#64748b" points="109.49,-49.34 115.13,-44.53 107.72,-44.77 109.49,-49.34"/>
</g>
<!-- n25&#45;&gt;n5 -->
<g id="edge52" class="edge">
<title>n25&#45;&gt;n5</title>
<path fill="none" stroke="#64748b" d="M420.1,-317.5C319.15,-311.94 154.51,-298.42 102,-268 55.39,-241 24.08,-208.75 47,-160 52.74,-147.78 62.84,-137.42 73.34,-129.18"/>
<polygon fill="#64748b" stroke="#64748b" points="74.51,-131.36 78.68,-125.23 71.59,-127.42 74.51,-131.36"/>
</g>
<!-- n25&#45;&gt;n7 -->
<g id="edge47" class="edge">
<title>n25&#45;&gt;n7</title>
<path fill="none" stroke="#64748b" d="M428.07,-302.52C388.5,-292.63 339.81,-280.45 299.69,-270.42"/>
<polygon fill="#64748b" stroke="#64748b" points="300.38,-268.07 292.99,-268.75 299.19,-272.82 300.38,-268.07"/>
</g>
<!-- n25&#45;&gt;n8 -->
<g id="edge49" class="edge">
<title>n25&#45;&gt;n8</title>
<path fill="none" stroke="#64748b" d="M499.23,-302.84C497.29,-283.48 497.25,-252.8 512,-232 520.01,-220.71 548.48,-207.14 574.44,-196.56"/>
<polygon fill="#64748b" stroke="#64748b" points="575.05,-198.96 580.63,-194.08 573.22,-194.41 575.05,-198.96"/>
</g>
<!-- n25&#45;&gt;n9 -->
<g id="edge48" class="edge">
<title>n25&#45;&gt;n9</title>
<path fill="none" stroke="#64748b" d="M533,-302.61C548.52,-293.4 567.39,-282.21 583.59,-272.6"/>
<polygon fill="#64748b" stroke="#64748b" points="584.75,-274.76 589.52,-269.08 582.25,-270.54 584.75,-274.76"/>
</g>
<!-- n25&#45;&gt;n10 -->
<g id="edge50" class="edge">
<title>n25&#45;&gt;n10</title>
<path fill="none" stroke="#64748b" d="M477.57,-302.61C465.67,-293.65 451.26,-282.81 438.73,-273.38"/>
<polygon fill="#64748b" stroke="#64748b" points="440.27,-271.47 433.2,-269.22 437.32,-275.38 440.27,-271.47"/>
</g>
<!-- n25&#45;&gt;n11 -->
<g id="edge51" class="edge">
<title>n25&#45;&gt;n11</title>
<path fill="none" stroke="#64748b" d="M583.79,-305.64C630.73,-296.17 690.59,-282.98 743,-268 744.8,-267.49 746.62,-266.94 748.46,-266.38"/>
<polygon fill="#64748b" stroke="#64748b" points="749.2,-268.71 755.12,-264.24 747.7,-264.05 749.2,-268.71"/>
</g>
<!-- n25&#45;&gt;n12 -->
<g id="edge53" class="edge">
<title>n25&#45;&gt;n12</title>
<path fill="none" stroke="#64748b" d="M583.8,-319.65C671.51,-316.27 802.46,-304.97 834,-268 844.38,-255.83 837.85,-247.53 834,-232 829.65,-214.44 822.71,-212.37 815,-196 807.61,-180.32 812.52,-171.99 800,-160 766.5,-127.9 728.56,-162.05 702,-124 692.84,-110.88 691.99,-100.48 702,-88 726.99,-56.84 844.47,-42.82 904.5,-37.6"/>
<polygon fill="#64748b" stroke="#64748b" points="904.64,-40.05 911.41,-37.02 904.23,-35.16 904.64,-40.05"/>
</g>
<!-- n25&#45;&gt;n18 -->
<g id="edge55" class="edge">
<title>n25&#45;&gt;n18</title>
<path fill="none" stroke="#64748b" d="M583.92,-316.83C655.52,-311.24 761.44,-298.22 849,-268 895.84,-251.84 944.8,-221.91 975.58,-201.25"/>
<polygon fill="#64748b" stroke="#64748b" points="976.95,-203.28 981.36,-197.32 974.2,-199.23 976.95,-203.28"/>
</g>
<!-- n25&#45;&gt;n24 -->
<g id="edge54" class="edge">
<title>n25&#45;&gt;n24</title>
<path fill="none" stroke="#64748b" d="M584,-310.86C691.49,-297.56 878.95,-274.38 986.29,-261.11"/>
<polygon fill="#64748b" stroke="#64748b" points="986.37,-263.56 993.02,-260.27 985.77,-258.7 986.37,-263.56"/>
</g>
</g>
</svg>
