<?xml version="1.0" encoding="UTF-8" standalone="no"?>
<!DOCTYPE svg PUBLIC "-//W3C//DTD SVG 1.1//EN"
 "http://www.w3.org/Graphics/SVG/1.1/DTD/svg11.dtd">
<!-- Generated by graphviz version 15.0.0 (20260523.1842)
 -->
<!-- Title: subgaussian_rip_sample_complexity Pages: 1 -->
<svg width="2789pt" height="627pt"
 viewBox="0.00 0.00 2789.00 627.00" xmlns="http://www.w3.org/2000/svg" xmlns:xlink="http://www.w3.org/1999/xlink">
<g id="graph0" class="graph" transform="scale(1 1) rotate(0) translate(4 623.2)">
<title>subgaussian_rip_sample_complexity</title>
<polygon fill="white" stroke="none" points="-4,4 -4,-623.2 2784.74,-623.2 2784.74,4 -4,4"/>
<text xml:space="preserve" text-anchor="middle" x="1390.37" y="-602.6" font-family="Helvetica,sans-Serif" font-size="14.00">Proof narrative — subgaussian_rip_sample_complexity &#160;(51 decls)</text>
<g id="clust1" class="cluster">
<title>cluster_0</title>
<path fill="none" stroke="#cbd5e1" stroke-dasharray="5,2" d="M20,-8C20,-8 1993,-8 1993,-8 1999,-8 2005,-14 2005,-20 2005,-20 2005,-574.4 2005,-574.4 2005,-580.4 1999,-586.4 1993,-586.4 1993,-586.4 20,-586.4 20,-586.4 14,-586.4 8,-580.4 8,-574.4 8,-574.4 8,-20 8,-20 8,-14 14,-8 20,-8"/>
<text xml:space="preserve" text-anchor="middle" x="1006.5" y="-572.5" font-family="Helvetica,sans-Serif" font-size="11.00">HighDim</text>
</g>
<g id="clust2" class="cluster">
<title>cluster_1</title>
<path fill="none" stroke="#cbd5e1" stroke-dasharray="5,2" d="M2025,-152C2025,-152 2754,-152 2754,-152 2760,-152 2766,-158 2766,-164 2766,-164 2766,-429.2 2766,-429.2 2766,-435.2 2760,-441.2 2754,-441.2 2754,-441.2 2025,-441.2 2025,-441.2 2019,-441.2 2013,-435.2 2013,-429.2 2013,-429.2 2013,-164 2013,-164 2013,-158 2019,-152 2025,-152"/>
<text xml:space="preserve" text-anchor="middle" x="2389.5" y="-427.3" font-family="Helvetica,sans-Serif" font-size="11.00">StatFoundation</text>
</g>
<!-- n0 -->
<g id="node1" class="node">
<title>n0</title>
<g id="a_node1"><a xlink:href="vscode://vscode-remote/wsl+Ubuntu/tmp/statlib-main-refresh.tmBBiR/Statlib/HighDim/Vocabulary/RandomVector.lean:101" xlink:title="structure · Statlib/HighDim/Vocabulary/RandomVector.lean:101" target="_blank">
<path fill="#e8dcff" stroke="#8b5cf6" d="M115.79,-340C115.79,-340 28.21,-340 28.21,-340 22.21,-340 16.21,-334 16.21,-328 16.21,-328 16.21,-316 16.21,-316 16.21,-310 22.21,-304 28.21,-304 28.21,-304 115.79,-304 115.79,-304 121.79,-304 127.79,-310 127.79,-316 127.79,-316 127.79,-328 127.79,-328 127.79,-334 121.79,-340 115.79,-340"/>
<text xml:space="preserve" text-anchor="middle" x="72" y="-319" font-family="Helvetica,sans-Serif" font-size="10.00">HasCovarianceMatrix</text>
</a>
</g>
</g>
<!-- n1 -->
<g id="node2" class="node">
<title>n1</title>
<g id="a_node2"><a xlink:href="vscode://vscode-remote/wsl+Ubuntu/tmp/statlib-main-refresh.tmBBiR/Statlib/HighDim/Vocabulary/RandomVector.lean:109" xlink:title="def · Statlib/HighDim/Vocabulary/RandomVector.lean:109" target="_blank">
<path fill="#d6e9ff" stroke="#3b82f6" d="M195.79,-412C195.79,-412 158.21,-412 158.21,-412 152.21,-412 146.21,-406 146.21,-400 146.21,-400 146.21,-388 146.21,-388 146.21,-382 152.21,-376 158.21,-376 158.21,-376 195.79,-376 195.79,-376 201.79,-376 207.79,-382 207.79,-388 207.79,-388 207.79,-400 207.79,-400 207.79,-406 201.79,-412 195.79,-412"/>
<text xml:space="preserve" text-anchor="middle" x="177" y="-391" font-family="Helvetica,sans-Serif" font-size="10.00">IsIsotropic</text>
</a>
</g>
</g>
<!-- n1&#45;&gt;n0 -->
<g id="edge1" class="edge">
<title>n1&#45;&gt;n0</title>
<path fill="none" stroke="#64748b" d="M150.77,-375.52C136.89,-366.26 119.7,-354.8 104.93,-344.95"/>
<polygon fill="#64748b" stroke="#64748b" points="106.33,-342.94 99.15,-341.1 103.62,-347.02 106.33,-342.94"/>
</g>
<!-- n2 -->
<g id="node3" class="node">
<title>n2</title>
<g id="a_node3"><a xlink:href="vscode://vscode-remote/wsl+Ubuntu/tmp/statlib-main-refresh.tmBBiR/Statlib/HighDim/Vocabulary/RandomVector.lean:52" xlink:title="structure · Statlib/HighDim/Vocabulary/RandomVector.lean:52" target="_blank">
<path fill="#e8dcff" stroke="#8b5cf6" d="M116.36,-412C116.36,-412 27.64,-412 27.64,-412 21.64,-412 15.64,-406 15.64,-400 15.64,-400 15.64,-388 15.64,-388 15.64,-382 21.64,-376 27.64,-376 27.64,-376 116.36,-376 116.36,-376 122.36,-376 128.36,-382 128.36,-388 128.36,-388 128.36,-400 128.36,-400 128.36,-406 122.36,-412 116.36,-412"/>
<text xml:space="preserve" text-anchor="middle" x="72" y="-391" font-family="Helvetica,sans-Serif" font-size="10.00">IsSubGaussianVector</text>
</a>
</g>
</g>
<!-- n3 -->
<g id="node4" class="node">
<title>n3</title>
<g id="a_node4"><a xlink:href="vscode://vscode-remote/wsl+Ubuntu/tmp/statlib-main-refresh.tmBBiR/Statlib/HighDim/Vocabulary/Sparse.lean:36" xlink:title="def · Statlib/HighDim/Vocabulary/Sparse.lean:36" target="_blank">
<path fill="#d6e9ff" stroke="#3b82f6" d="M1924.73,-340C1924.73,-340 1893.27,-340 1893.27,-340 1887.27,-340 1881.27,-334 1881.27,-328 1881.27,-328 1881.27,-316 1881.27,-316 1881.27,-310 1887.27,-304 1893.27,-304 1893.27,-304 1924.73,-304 1924.73,-304 1930.73,-304 1936.73,-310 1936.73,-316 1936.73,-316 1936.73,-328 1936.73,-328 1936.73,-334 1930.73,-340 1924.73,-340"/>
<text xml:space="preserve" text-anchor="middle" x="1909" y="-319" font-family="Helvetica,sans-Serif" font-size="10.00">IsSparse</text>
</a>
</g>
</g>
<!-- n4 -->
<g id="node5" class="node">
<title>n4</title>
<g id="a_node5"><a xlink:href="vscode://vscode-remote/wsl+Ubuntu/tmp/statlib-main-refresh.tmBBiR/Statlib/HighDim/Vocabulary/Norms.lean:13" xlink:title="noncomputable def · Statlib/HighDim/Vocabulary/Norms.lean:13" target="_blank">
<path fill="#d6e9ff" stroke="#3b82f6" d="M1698.23,-52C1698.23,-52 1661.77,-52 1661.77,-52 1655.77,-52 1649.77,-46 1649.77,-40 1649.77,-40 1649.77,-28 1649.77,-28 1649.77,-22 1655.77,-16 1661.77,-16 1661.77,-16 1698.23,-16 1698.23,-16 1704.23,-16 1710.23,-22 1710.23,-28 1710.23,-28 1710.23,-40 1710.23,-40 1710.23,-46 1704.23,-52 1698.23,-52"/>
<text xml:space="preserve" text-anchor="middle" x="1680" y="-31" font-family="Helvetica,sans-Serif" font-size="10.00">l2NormSq</text>
</a>
</g>
</g>
<!-- n5 -->
<g id="node6" class="node">
<title>n5</title>
<g id="a_node6"><a xlink:href="vscode://vscode-remote/wsl+Ubuntu/tmp/statlib-main-refresh.tmBBiR/Statlib/HighDim/Vocabulary/DesignMatrix.lean:62" xlink:title="def · Statlib/HighDim/Vocabulary/DesignMatrix.lean:62" target="_blank">
<path fill="#d6e9ff" stroke="#3b82f6" d="M1985.23,-412C1985.23,-412 1938.77,-412 1938.77,-412 1932.77,-412 1926.77,-406 1926.77,-400 1926.77,-400 1926.77,-388 1926.77,-388 1926.77,-382 1932.77,-376 1938.77,-376 1938.77,-376 1985.23,-376 1985.23,-376 1991.23,-376 1997.23,-382 1997.23,-388 1997.23,-388 1997.23,-400 1997.23,-400 1997.23,-406 1991.23,-412 1985.23,-412"/>
<text xml:space="preserve" text-anchor="middle" x="1962" y="-391" font-family="Helvetica,sans-Serif" font-size="10.00">SatisfiesRIP</text>
</a>
</g>
</g>
<!-- n5&#45;&gt;n3 -->
<g id="edge2" class="edge">
<title>n5&#45;&gt;n3</title>
<path fill="none" stroke="#64748b" d="M1948.9,-375.7C1942.29,-366.97 1934.17,-356.24 1926.98,-346.75"/>
<polygon fill="#64748b" stroke="#64748b" points="1929.04,-345.41 1922.86,-341.31 1925.14,-348.37 1929.04,-345.41"/>
</g>
<!-- n5&#45;&gt;n4 -->
<g id="edge3" class="edge">
<title>n5&#45;&gt;n4</title>
<path fill="none" stroke="#64748b" d="M1969.13,-375.58C1973.09,-365.36 1977.84,-352.11 1981,-340 1991.14,-301.19 1996,-291.11 1996,-251 1996,-251 1996,-251 1996,-177 1996,-136.89 2009.26,-116.47 1981,-88 1944.9,-51.63 1791.93,-39.97 1718.99,-36.44"/>
<polygon fill="#64748b" stroke="#64748b" points="1719.13,-33.99 1712.02,-36.12 1718.9,-38.89 1719.13,-33.99"/>
</g>
<!-- n6 -->
<g id="node7" class="node">
<title>n6</title>
<g id="a_node7"><a xlink:href="vscode://vscode-remote/wsl+Ubuntu/tmp/statlib-main-refresh.tmBBiR/Statlib/HighDim/Vocabulary/Norms.lean:32" xlink:title="lemma · Statlib/HighDim/Vocabulary/Norms.lean:32" target="_blank">
<path fill="#eef2f6" stroke="#94a3b8" d="M709.69,-196C709.69,-196 654.31,-196 654.31,-196 648.31,-196 642.31,-190 642.31,-184 642.31,-184 642.31,-172 642.31,-172 642.31,-166 648.31,-160 654.31,-160 654.31,-160 709.69,-160 709.69,-160 715.69,-160 721.69,-166 721.69,-172 721.69,-172 721.69,-184 721.69,-184 721.69,-190 715.69,-196 709.69,-196"/>
<text xml:space="preserve" text-anchor="middle" x="682" y="-175" font-family="Helvetica,sans-Serif" font-size="10.00">inner_eq_sum</text>
</a>
</g>
</g>
<!-- n9 -->
<g id="node8" class="node">
<title>n9</title>
<g id="a_node8"><a xlink:href="vscode://vscode-remote/wsl+Ubuntu/tmp/statlib-main-refresh.tmBBiR/Statlib/HighDim/Vocabulary/Norms.lean:21" xlink:title="lemma · Statlib/HighDim/Vocabulary/Norms.lean:21" target="_blank">
<path fill="#eef2f6" stroke="#94a3b8" d="M1379.64,-124C1379.64,-124 1300.36,-124 1300.36,-124 1294.36,-124 1288.36,-118 1288.36,-112 1288.36,-112 1288.36,-100 1288.36,-100 1288.36,-94 1294.36,-88 1300.36,-88 1300.36,-88 1379.64,-88 1379.64,-88 1385.64,-88 1391.64,-94 1391.64,-100 1391.64,-100 1391.64,-112 1391.64,-112 1391.64,-118 1385.64,-124 1379.64,-124"/>
<text xml:space="preserve" text-anchor="middle" x="1340" y="-103" font-family="Helvetica,sans-Serif" font-size="10.00">euclidean_norm_sq</text>
</a>
</g>
</g>
<!-- n9&#45;&gt;n4 -->
<g id="edge4" class="edge">
<title>n9&#45;&gt;n4</title>
<path fill="none" stroke="#64748b" d="M1392.01,-94.29C1460.59,-80.17 1579.72,-55.65 1641.05,-43.02"/>
<polygon fill="#64748b" stroke="#64748b" points="1641.46,-45.44 1647.82,-41.62 1640.47,-40.64 1641.46,-45.44"/>
</g>
<!-- n20 -->
<g id="node9" class="node">
<title>n20</title>
<g id="a_node9"><a xlink:href="vscode://vscode-remote/wsl+Ubuntu/tmp/statlib-main-refresh.tmBBiR/Statlib/HighDim/Geometry/CoveringNumbers.lean:42" xlink:title="theorem · Statlib/HighDim/Geometry/CoveringNumbers.lean:42" target="_blank">
<path fill="#ffe6a3" stroke="#d4a017" d="M1831.38,-340C1831.38,-340 1692.62,-340 1692.62,-340 1686.62,-340 1680.62,-334 1680.62,-328 1680.62,-328 1680.62,-316 1680.62,-316 1680.62,-310 1686.62,-304 1692.62,-304 1692.62,-304 1831.38,-304 1831.38,-304 1837.38,-304 1843.38,-310 1843.38,-316 1843.38,-316 1843.38,-328 1843.38,-328 1843.38,-334 1837.38,-340 1831.38,-340"/>
<text xml:space="preserve" text-anchor="middle" x="1762" y="-319" font-family="Helvetica,sans-Serif" font-size="10.00">covering_number_euclidean_ball</text>
</a>
</g>
</g>
<!-- n21 -->
<g id="node10" class="node">
<title>n21</title>
<g id="a_node10"><a xlink:href="vscode://vscode-remote/wsl+Ubuntu/tmp/statlib-main-refresh.tmBBiR/Statlib/HighDim/Vocabulary/Norms.lean:27" xlink:title="lemma · Statlib/HighDim/Vocabulary/Norms.lean:27" target="_blank">
<path fill="#eef2f6" stroke="#94a3b8" d="M1138.92,-196C1138.92,-196 1059.08,-196 1059.08,-196 1053.08,-196 1047.08,-190 1047.08,-184 1047.08,-184 1047.08,-172 1047.08,-172 1047.08,-166 1053.08,-160 1059.08,-160 1059.08,-160 1138.92,-160 1138.92,-160 1144.92,-160 1150.92,-166 1150.92,-172 1150.92,-172 1150.92,-184 1150.92,-184 1150.92,-190 1144.92,-196 1138.92,-196"/>
<text xml:space="preserve" text-anchor="middle" x="1099" y="-175" font-family="Helvetica,sans-Serif" font-size="10.00">euclidean_norm_eq</text>
</a>
</g>
</g>
<!-- n21&#45;&gt;n4 -->
<g id="edge16" class="edge">
<title>n21&#45;&gt;n4</title>
<path fill="none" stroke="#64748b" d="M1126.79,-159.64C1161.17,-139.03 1222.13,-105.3 1279,-88 1407.63,-48.87 1568.16,-38.62 1640.92,-35.95"/>
<polygon fill="#64748b" stroke="#64748b" points="1640.93,-38.4 1647.84,-35.71 1640.76,-33.5 1640.93,-38.4"/>
</g>
<!-- n21&#45;&gt;n9 -->
<g id="edge17" class="edge">
<title>n21&#45;&gt;n9</title>
<path fill="none" stroke="#64748b" d="M1143.14,-159.51C1150.4,-156.86 1157.87,-154.26 1165,-152 1202.79,-140.02 1245.91,-128.91 1279.9,-120.72"/>
<polygon fill="#64748b" stroke="#64748b" points="1280.18,-123.17 1286.41,-119.16 1279.04,-118.4 1280.18,-123.17"/>
</g>
<!-- n22 -->
<g id="node11" class="node">
<title>n22</title>
<g id="a_node11"><a xlink:href="vscode://vscode-remote/wsl+Ubuntu/tmp/statlib-main-refresh.tmBBiR/Statlib/HighDim/Geometry/CoveringNumbers.lean:405" xlink:title="theorem · Statlib/HighDim/Geometry/CoveringNumbers.lean:405" target="_blank">
<path fill="#ffe6a3" stroke="#d4a017" d="M1658.98,-412C1658.98,-412 1533.02,-412 1533.02,-412 1527.02,-412 1521.02,-406 1521.02,-400 1521.02,-400 1521.02,-388 1521.02,-388 1521.02,-382 1527.02,-376 1533.02,-376 1533.02,-376 1658.98,-376 1658.98,-376 1664.98,-376 1670.98,-382 1670.98,-388 1670.98,-388 1670.98,-400 1670.98,-400 1670.98,-406 1664.98,-412 1658.98,-412"/>
<text xml:space="preserve" text-anchor="middle" x="1596" y="-391" font-family="Helvetica,sans-Serif" font-size="10.00">covering_number_sparse_ball</text>
</a>
</g>
</g>
<!-- n22&#45;&gt;n3 -->
<g id="edge18" class="edge">
<title>n22&#45;&gt;n3</title>
<path fill="none" stroke="#64748b" d="M1671.1,-377.76C1674.1,-377.17 1677.08,-376.58 1680,-376 1763.03,-359.61 1785.83,-363.99 1867,-340 1868.98,-339.41 1871,-338.77 1873.02,-338.09"/>
<polygon fill="#64748b" stroke="#64748b" points="1873.62,-340.47 1879.38,-335.8 1871.96,-335.86 1873.62,-340.47"/>
</g>
<!-- n22&#45;&gt;n4 -->
<g id="edge20" class="edge">
<title>n22&#45;&gt;n4</title>
<path fill="none" stroke="#64748b" d="M1671.48,-377.66C1746.73,-362.33 1851.27,-340.9 1852,-340 1865.87,-322.97 1865.07,-219.79 1825,-152 1799.42,-108.72 1751.44,-74.86 1717.7,-54.94"/>
<polygon fill="#64748b" stroke="#64748b" points="1719.32,-53.05 1712.04,-51.66 1716.87,-57.29 1719.32,-53.05"/>
</g>
<!-- n22&#45;&gt;n20 -->
<g id="edge19" class="edge">
<title>n22&#45;&gt;n20</title>
<path fill="none" stroke="#64748b" d="M1637.46,-375.52C1660.42,-365.83 1689.1,-353.74 1713.15,-343.6"/>
<polygon fill="#64748b" stroke="#64748b" points="1713.89,-345.95 1719.39,-340.97 1711.98,-341.43 1713.89,-345.95"/>
</g>
<!-- n22&#45;&gt;n21 -->
<g id="edge21" class="edge">
<title>n22&#45;&gt;n21</title>
<path fill="none" stroke="#64748b" d="M1520.61,-381.47C1469.9,-372.27 1408.96,-357.98 1390,-340 1353.48,-305.38 1393.34,-265.73 1356,-232 1327.67,-206.41 1226.3,-191.61 1159.66,-184.44"/>
<polygon fill="#64748b" stroke="#64748b" points="1160.03,-182.02 1152.81,-183.72 1159.52,-186.89 1160.03,-182.02"/>
</g>
<!-- n23 -->
<g id="node12" class="node">
<title>n23</title>
<g id="a_node12"><a xlink:href="vscode://vscode-remote/wsl+Ubuntu/tmp/statlib-main-refresh.tmBBiR/Statlib/HighDim/Geometry/RIPConstruction.lean:195" xlink:title="lemma · Statlib/HighDim/Geometry/RIPConstruction.lean:195" target="_blank">
<path fill="#eef2f6" stroke="#94a3b8" d="M1013.57,-412C1013.57,-412 940.43,-412 940.43,-412 934.43,-412 928.43,-406 928.43,-400 928.43,-400 928.43,-388 928.43,-388 928.43,-382 934.43,-376 940.43,-376 940.43,-376 1013.57,-376 1013.57,-376 1019.57,-376 1025.57,-382 1025.57,-388 1025.57,-388 1025.57,-400 1025.57,-400 1025.57,-406 1019.57,-412 1013.57,-412"/>
<text xml:space="preserve" text-anchor="middle" x="977" y="-391" font-family="Helvetica,sans-Serif" font-size="10.00">mulVec_smul_vec</text>
</a>
</g>
</g>
<!-- n24 -->
<g id="node13" class="node">
<title>n24</title>
<g id="a_node13"><a xlink:href="vscode://vscode-remote/wsl+Ubuntu/tmp/statlib-main-refresh.tmBBiR/Statlib/HighDim/Geometry/RIPConstruction.lean:187" xlink:title="lemma · Statlib/HighDim/Geometry/RIPConstruction.lean:187" target="_blank">
<path fill="#eef2f6" stroke="#94a3b8" d="M1944.57,-124C1944.57,-124 1881.43,-124 1881.43,-124 1875.43,-124 1869.43,-118 1869.43,-112 1869.43,-112 1869.43,-100 1869.43,-100 1869.43,-94 1875.43,-88 1881.43,-88 1881.43,-88 1944.57,-88 1944.57,-88 1950.57,-88 1956.57,-94 1956.57,-100 1956.57,-100 1956.57,-112 1956.57,-112 1956.57,-118 1950.57,-124 1944.57,-124"/>
<text xml:space="preserve" text-anchor="middle" x="1913" y="-103" font-family="Helvetica,sans-Serif" font-size="10.00">l2NormSq_smul</text>
</a>
</g>
</g>
<!-- n24&#45;&gt;n4 -->
<g id="edge22" class="edge">
<title>n24&#45;&gt;n4</title>
<path fill="none" stroke="#64748b" d="M1869.17,-91.83C1825.8,-78.8 1760.04,-59.04 1718.58,-46.59"/>
<polygon fill="#64748b" stroke="#64748b" points="1719.49,-44.3 1712.08,-44.64 1718.08,-49 1719.49,-44.3"/>
</g>
<!-- n25 -->
<g id="node14" class="node">
<title>n25</title>
<g id="a_node14"><a xlink:href="vscode://vscode-remote/wsl+Ubuntu/tmp/statlib-main-refresh.tmBBiR/Statlib/HighDim/CovarianceMatrix/SampleCovariance.lean:193" xlink:title="noncomputable def · Statlib/HighDim/CovarianceMatrix/SampleCovariance.lean:193" target="_blank">
<path fill="#d6e9ff" stroke="#3b82f6" d="M1335.14,-268C1335.14,-268 1240.86,-268 1240.86,-268 1234.86,-268 1228.86,-262 1228.86,-256 1228.86,-256 1228.86,-244 1228.86,-244 1228.86,-238 1234.86,-232 1240.86,-232 1240.86,-232 1335.14,-232 1335.14,-232 1341.14,-232 1347.14,-238 1347.14,-244 1347.14,-244 1347.14,-256 1347.14,-256 1347.14,-262 1341.14,-268 1335.14,-268"/>
<text xml:space="preserve" text-anchor="middle" x="1288" y="-247" font-family="Helvetica,sans-Serif" font-size="10.00">sampleSecondMoment</text>
</a>
</g>
</g>
<!-- n26 -->
<g id="node15" class="node">
<title>n26</title>
<g id="a_node15"><a xlink:href="vscode://vscode-remote/wsl+Ubuntu/tmp/statlib-main-refresh.tmBBiR/Statlib/HighDim/Vocabulary/Restrictions.lean:15" xlink:title="def · Statlib/HighDim/Vocabulary/Restrictions.lean:15" target="_blank">
<path fill="#d6e9ff" stroke="#3b82f6" d="M352.34,-196C352.34,-196 293.66,-196 293.66,-196 287.66,-196 281.66,-190 281.66,-184 281.66,-184 281.66,-172 281.66,-172 281.66,-166 287.66,-160 293.66,-160 293.66,-160 352.34,-160 352.34,-160 358.34,-160 364.34,-166 364.34,-172 364.34,-172 364.34,-184 364.34,-184 364.34,-190 358.34,-196 352.34,-196"/>
<text xml:space="preserve" text-anchor="middle" x="323" y="-175" font-family="Helvetica,sans-Serif" font-size="10.00">restrictByEquiv</text>
</a>
</g>
</g>
<!-- n27 -->
<g id="node16" class="node">
<title>n27</title>
<g id="a_node16"><a xlink:href="vscode://vscode-remote/wsl+Ubuntu/tmp/statlib-main-refresh.tmBBiR/Statlib/HighDim/Vocabulary/Restrictions.lean:20" xlink:title="def · Statlib/HighDim/Vocabulary/Restrictions.lean:20" target="_blank">
<path fill="#d6e9ff" stroke="#3b82f6" d="M627.35,-124C627.35,-124 568.65,-124 568.65,-124 562.65,-124 556.65,-118 556.65,-112 556.65,-112 556.65,-100 556.65,-100 556.65,-94 562.65,-88 568.65,-88 568.65,-88 627.35,-88 627.35,-88 633.35,-88 639.35,-94 639.35,-100 639.35,-100 639.35,-112 639.35,-112 639.35,-118 633.35,-124 627.35,-124"/>
<text xml:space="preserve" text-anchor="middle" x="598" y="-103" font-family="Helvetica,sans-Serif" font-size="10.00">extendByEquiv</text>
</a>
</g>
</g>
<!-- n28 -->
<g id="node17" class="node">
<title>n28</title>
<g id="a_node17"><a xlink:href="vscode://vscode-remote/wsl+Ubuntu/tmp/statlib-main-refresh.tmBBiR/Statlib/HighDim/Geometry/RIPConstruction.lean:346" xlink:title="lemma · Statlib/HighDim/Geometry/RIPConstruction.lean:346" target="_blank">
<path fill="#eef2f6" stroke="#94a3b8" d="M900.36,-196C900.36,-196 791.64,-196 791.64,-196 785.64,-196 779.64,-190 779.64,-184 779.64,-184 779.64,-172 779.64,-172 779.64,-166 785.64,-160 791.64,-160 791.64,-160 900.36,-160 900.36,-160 906.36,-160 912.36,-166 912.36,-172 912.36,-172 912.36,-184 912.36,-184 912.36,-190 906.36,-196 900.36,-196"/>
<text xml:space="preserve" text-anchor="middle" x="846" y="-175" font-family="Helvetica,sans-Serif" font-size="10.00">extendByEquiv_l2NormSq</text>
</a>
</g>
</g>
<!-- n28&#45;&gt;n4 -->
<g id="edge23" class="edge">
<title>n28&#45;&gt;n4</title>
<path fill="none" stroke="#64748b" d="M902.78,-159.53C970.35,-139.39 1086.87,-106.66 1189,-88 1355.58,-57.57 1557.39,-42.54 1640.91,-37.27"/>
<polygon fill="#64748b" stroke="#64748b" points="1640.98,-39.72 1647.81,-36.84 1640.67,-34.83 1640.98,-39.72"/>
</g>
<!-- n28&#45;&gt;n27 -->
<g id="edge24" class="edge">
<title>n28&#45;&gt;n27</title>
<path fill="none" stroke="#64748b" d="M791.44,-159.62C782.94,-157.01 774.25,-154.39 766,-152 726.27,-140.48 680.94,-128.4 647.39,-119.66"/>
<polygon fill="#64748b" stroke="#64748b" points="648.41,-117.39 641.02,-118 647.18,-122.14 648.41,-117.39"/>
</g>
<!-- n29 -->
<g id="node18" class="node">
<title>n29</title>
<g id="a_node18"><a xlink:href="vscode://vscode-remote/wsl+Ubuntu/tmp/statlib-main-refresh.tmBBiR/Statlib/HighDim/Geometry/RIPConstruction.lean:376" xlink:title="lemma · Statlib/HighDim/Geometry/RIPConstruction.lean:376" target="_blank">
<path fill="#eef2f6" stroke="#94a3b8" d="M859.53,-268C859.53,-268 772.47,-268 772.47,-268 766.47,-268 760.47,-262 760.47,-256 760.47,-256 760.47,-244 760.47,-244 760.47,-238 766.47,-232 772.47,-232 772.47,-232 859.53,-232 859.53,-232 865.53,-232 871.53,-238 871.53,-244 871.53,-244 871.53,-256 871.53,-256 871.53,-262 865.53,-268 859.53,-268"/>
<text xml:space="preserve" text-anchor="middle" x="816" y="-247" font-family="Helvetica,sans-Serif" font-size="10.00">extendByEquiv_norm</text>
</a>
</g>
</g>
<!-- n29&#45;&gt;n21 -->
<g id="edge26" class="edge">
<title>n29&#45;&gt;n21</title>
<path fill="none" stroke="#64748b" d="M871.83,-234.09C874.59,-233.38 877.33,-232.68 880,-232 933.54,-218.41 994.65,-203.69 1038.69,-193.22"/>
<polygon fill="#64748b" stroke="#64748b" points="1038.99,-195.66 1045.23,-191.66 1037.86,-190.9 1038.99,-195.66"/>
</g>
<!-- n29&#45;&gt;n27 -->
<g id="edge25" class="edge">
<title>n29&#45;&gt;n27</title>
<path fill="none" stroke="#64748b" d="M799.72,-231.52C790.75,-221.5 779.72,-208.46 771,-196 758.11,-177.57 763.56,-166.05 746,-152 717.89,-129.52 678.65,-118.24 647.64,-112.6"/>
<polygon fill="#64748b" stroke="#64748b" points="648.34,-110.24 641.03,-111.47 647.51,-115.07 648.34,-110.24"/>
</g>
<!-- n29&#45;&gt;n28 -->
<g id="edge27" class="edge">
<title>n29&#45;&gt;n28</title>
<path fill="none" stroke="#64748b" d="M823.42,-231.7C827.01,-223.3 831.4,-213.07 835.35,-203.86"/>
<polygon fill="#64748b" stroke="#64748b" points="837.57,-204.89 838.07,-197.5 833.06,-202.96 837.57,-204.89"/>
</g>
<!-- n30 -->
<g id="node19" class="node">
<title>n30</title>
<g id="a_node19"><a xlink:href="vscode://vscode-remote/wsl+Ubuntu/tmp/statlib-main-refresh.tmBBiR/Statlib/HighDim/Geometry/RIPConstruction.lean:381" xlink:title="lemma · Statlib/HighDim/Geometry/RIPConstruction.lean:381" target="_blank">
<path fill="#eef2f6" stroke="#94a3b8" d="M291.89,-268C291.89,-268 108.11,-268 108.11,-268 102.11,-268 96.11,-262 96.11,-256 96.11,-256 96.11,-244 96.11,-244 96.11,-238 102.11,-232 108.11,-232 108.11,-232 291.89,-232 291.89,-232 297.89,-232 303.89,-238 303.89,-244 303.89,-244 303.89,-256 303.89,-256 303.89,-262 297.89,-268 291.89,-268"/>
<text xml:space="preserve" text-anchor="middle" x="200" y="-247" font-family="Helvetica,sans-Serif" font-size="10.00">extendByEquiv_restrictByEquiv_of_support</text>
</a>
</g>
</g>
<!-- n30&#45;&gt;n26 -->
<g id="edge29" class="edge">
<title>n30&#45;&gt;n26</title>
<path fill="none" stroke="#64748b" d="M230.72,-231.52C247.28,-222.09 267.86,-210.38 285.37,-200.41"/>
<polygon fill="#64748b" stroke="#64748b" points="286.48,-202.6 291.36,-197.01 284.06,-198.34 286.48,-202.6"/>
</g>
<!-- n30&#45;&gt;n27 -->
<g id="edge28" class="edge">
<title>n30&#45;&gt;n27</title>
<path fill="none" stroke="#64748b" d="M207.75,-231.63C218.77,-209.16 241.21,-170.7 273,-152 318.54,-125.22 468.71,-113.62 547.98,-109.27"/>
<polygon fill="#64748b" stroke="#64748b" points="547.99,-111.72 554.84,-108.9 547.72,-106.83 547.99,-111.72"/>
</g>
<!-- n31 -->
<g id="node20" class="node">
<title>n31</title>
<g id="a_node20"><a xlink:href="vscode://vscode-remote/wsl+Ubuntu/tmp/statlib-main-refresh.tmBBiR/Statlib/HighDim/Geometry/RIPConstruction.lean:398" xlink:title="lemma · Statlib/HighDim/Geometry/RIPConstruction.lean:398" target="_blank">
<path fill="#eef2f6" stroke="#94a3b8" d="M478.92,-340C478.92,-340 339.08,-340 339.08,-340 333.08,-340 327.08,-334 327.08,-328 327.08,-328 327.08,-316 327.08,-316 327.08,-310 333.08,-304 339.08,-304 339.08,-304 478.92,-304 478.92,-304 484.92,-304 490.92,-310 490.92,-316 490.92,-316 490.92,-328 490.92,-328 490.92,-334 484.92,-340 478.92,-340"/>
<text xml:space="preserve" text-anchor="middle" x="409" y="-319" font-family="Helvetica,sans-Serif" font-size="10.00">restrictByEquiv_norm_of_support</text>
</a>
</g>
</g>
<!-- n31&#45;&gt;n26 -->
<g id="edge30" class="edge">
<title>n31&#45;&gt;n26</title>
<path fill="none" stroke="#64748b" d="M371.47,-303.55C357.08,-294.91 341.97,-283.07 333,-268 321.67,-248.97 319.85,-223.56 320.47,-204.77"/>
<polygon fill="#64748b" stroke="#64748b" points="322.91,-205.02 320.84,-197.9 318.02,-204.76 322.91,-205.02"/>
</g>
<!-- n31&#45;&gt;n29 -->
<g id="edge31" class="edge">
<title>n31&#45;&gt;n29</title>
<path fill="none" stroke="#64748b" d="M491.36,-306.83C568.26,-293.61 681.43,-274.14 751.82,-262.04"/>
<polygon fill="#64748b" stroke="#64748b" points="752.22,-264.46 758.7,-260.85 751.39,-259.63 752.22,-264.46"/>
</g>
<!-- n31&#45;&gt;n30 -->
<g id="edge32" class="edge">
<title>n31&#45;&gt;n30</title>
<path fill="none" stroke="#64748b" d="M356.8,-303.52C327.39,-293.67 290.53,-281.32 259.94,-271.07"/>
<polygon fill="#64748b" stroke="#64748b" points="260.75,-268.76 253.33,-268.86 259.19,-273.41 260.75,-268.76"/>
</g>
<!-- n32 -->
<g id="node21" class="node">
<title>n32</title>
<g id="a_node21"><a xlink:href="vscode://vscode-remote/wsl+Ubuntu/tmp/statlib-main-refresh.tmBBiR/Statlib/HighDim/Geometry/RIPConstruction.lean:406" xlink:title="lemma · Statlib/HighDim/Geometry/RIPConstruction.lean:406" target="_blank">
<path fill="#eef2f6" stroke="#94a3b8" d="M572.31,-412C572.31,-412 439.69,-412 439.69,-412 433.69,-412 427.69,-406 427.69,-400 427.69,-400 427.69,-388 427.69,-388 427.69,-382 433.69,-376 439.69,-376 439.69,-376 572.31,-376 572.31,-376 578.31,-376 584.31,-382 584.31,-388 584.31,-388 584.31,-400 584.31,-400 584.31,-406 578.31,-412 572.31,-412"/>
<text xml:space="preserve" text-anchor="middle" x="506" y="-391" font-family="Helvetica,sans-Serif" font-size="10.00">restrictByEquiv_dist_of_support</text>
</a>
</g>
</g>
<!-- n32&#45;&gt;n26 -->
<g id="edge33" class="edge">
<title>n32&#45;&gt;n26</title>
<path fill="none" stroke="#64748b" d="M429.59,-375.51C314.38,-348.37 107.39,-296.29 87,-268 38.61,-200.86 190.32,-184.34 273.03,-180.3"/>
<polygon fill="#64748b" stroke="#64748b" points="272.91,-182.76 279.79,-179.99 272.68,-177.86 272.91,-182.76"/>
</g>
<!-- n32&#45;&gt;n31 -->
<g id="edge34" class="edge">
<title>n32&#45;&gt;n31</title>
<path fill="none" stroke="#64748b" d="M482.02,-375.7C469.31,-366.53 453.56,-355.16 439.94,-345.33"/>
<polygon fill="#64748b" stroke="#64748b" points="441.38,-343.34 434.27,-341.23 438.51,-347.32 441.38,-343.34"/>
</g>
<!-- n33 -->
<g id="node22" class="node">
<title>n33</title>
<g id="a_node22"><a xlink:href="vscode://vscode-remote/wsl+Ubuntu/tmp/statlib-main-refresh.tmBBiR/Statlib/HighDim/Geometry/RIPConstruction.lean:391" xlink:title="lemma · Statlib/HighDim/Geometry/RIPConstruction.lean:391" target="_blank">
<path fill="#eef2f6" stroke="#94a3b8" d="M484.48,-268C484.48,-268 353.52,-268 353.52,-268 347.52,-268 341.52,-262 341.52,-256 341.52,-256 341.52,-244 341.52,-244 341.52,-238 347.52,-232 353.52,-232 353.52,-232 484.48,-232 484.48,-232 490.48,-232 496.48,-238 496.48,-244 496.48,-244 496.48,-256 496.48,-256 496.48,-262 490.48,-268 484.48,-268"/>
<text xml:space="preserve" text-anchor="middle" x="419" y="-247" font-family="Helvetica,sans-Serif" font-size="10.00">restrictByEquiv_extendByEquiv</text>
</a>
</g>
</g>
<!-- n33&#45;&gt;n26 -->
<g id="edge35" class="edge">
<title>n33&#45;&gt;n26</title>
<path fill="none" stroke="#64748b" d="M395.27,-231.7C382.69,-222.53 367.1,-211.16 353.62,-201.33"/>
<polygon fill="#64748b" stroke="#64748b" points="355.11,-199.38 348.01,-197.24 352.23,-203.34 355.11,-199.38"/>
</g>
<!-- n33&#45;&gt;n27 -->
<g id="edge36" class="edge">
<title>n33&#45;&gt;n27</title>
<path fill="none" stroke="#64748b" d="M440.95,-231.59C473.38,-205.86 534.1,-157.69 569.79,-129.38"/>
<polygon fill="#64748b" stroke="#64748b" points="571,-131.54 574.97,-125.27 567.96,-127.7 571,-131.54"/>
</g>
<!-- n34 -->
<g id="node23" class="node">
<title>n34</title>
<g id="a_node23"><a xlink:href="vscode://vscode-remote/wsl+Ubuntu/tmp/statlib-main-refresh.tmBBiR/Statlib/HighDim/CovarianceMatrix/SampleCovariance.lean:199" xlink:title="lemma · Statlib/HighDim/CovarianceMatrix/SampleCovariance.lean:199" target="_blank">
<path fill="#eef2f6" stroke="#94a3b8" d="M1170.69,-340C1170.69,-340 1035.31,-340 1035.31,-340 1029.31,-340 1023.31,-334 1023.31,-328 1023.31,-328 1023.31,-316 1023.31,-316 1023.31,-310 1029.31,-304 1035.31,-304 1035.31,-304 1170.69,-304 1170.69,-304 1176.69,-304 1182.69,-310 1182.69,-316 1182.69,-316 1182.69,-328 1182.69,-328 1182.69,-334 1176.69,-340 1170.69,-340"/>
<text xml:space="preserve" text-anchor="middle" x="1103" y="-319" font-family="Helvetica,sans-Serif" font-size="10.00">sampleSecondMoment_isSymm</text>
</a>
</g>
</g>
<!-- n34&#45;&gt;n25 -->
<g id="edge37" class="edge">
<title>n34&#45;&gt;n25</title>
<path fill="none" stroke="#64748b" d="M1149.21,-303.52C1175.02,-293.75 1207.31,-281.53 1234.25,-271.34"/>
<polygon fill="#64748b" stroke="#64748b" points="1234.97,-273.69 1240.65,-268.92 1233.23,-269.1 1234.97,-273.69"/>
</g>
<!-- n35 -->
<g id="node24" class="node">
<title>n35</title>
<g id="a_node24"><a xlink:href="vscode://vscode-remote/wsl+Ubuntu/tmp/statlib-main-refresh.tmBBiR/Statlib/HighDim/CovarianceMatrix/SampleCovariance.lean:181" xlink:title="lemma · Statlib/HighDim/CovarianceMatrix/SampleCovariance.lean:181" target="_blank">
<path fill="#eef2f6" stroke="#94a3b8" d="M377.63,-412C377.63,-412 258.37,-412 258.37,-412 252.37,-412 246.37,-406 246.37,-400 246.37,-400 246.37,-388 246.37,-388 246.37,-382 252.37,-376 258.37,-376 258.37,-376 377.63,-376 377.63,-376 383.63,-376 389.63,-382 389.63,-388 389.63,-388 389.63,-400 389.63,-400 389.63,-406 383.63,-412 377.63,-412"/>
<text xml:space="preserve" text-anchor="middle" x="318" y="-391" font-family="Helvetica,sans-Serif" font-size="10.00">real_isHermitian_of_isSymm</text>
</a>
</g>
</g>
<!-- n36 -->
<g id="node25" class="node">
<title>n36</title>
<g id="a_node25"><a xlink:href="vscode://vscode-remote/wsl+Ubuntu/tmp/statlib-main-refresh.tmBBiR/Statlib/HighDim/Vocabulary/Norms.lean:41" xlink:title="noncomputable def · Statlib/HighDim/Vocabulary/Norms.lean:41" target="_blank">
<path fill="#d6e9ff" stroke="#3b82f6" d="M1327.13,-196C1327.13,-196 1282.87,-196 1282.87,-196 1276.87,-196 1270.87,-190 1270.87,-184 1270.87,-184 1270.87,-172 1270.87,-172 1270.87,-166 1276.87,-160 1282.87,-160 1282.87,-160 1327.13,-160 1327.13,-160 1333.13,-160 1339.13,-166 1339.13,-172 1339.13,-172 1339.13,-184 1339.13,-184 1339.13,-190 1333.13,-196 1327.13,-196"/>
<text xml:space="preserve" text-anchor="middle" x="1305" y="-175" font-family="Helvetica,sans-Serif" font-size="10.00">toEuclidean</text>
</a>
</g>
</g>
<!-- n37 -->
<g id="node26" class="node">
<title>n37</title>
<g id="a_node26"><a xlink:href="vscode://vscode-remote/wsl+Ubuntu/tmp/statlib-main-refresh.tmBBiR/Statlib/HighDim/CovarianceMatrix/SampleCovariance.lean:41" xlink:title="lemma · Statlib/HighDim/CovarianceMatrix/SampleCovariance.lean:41" target="_blank">
<path fill="#eef2f6" stroke="#94a3b8" d="M1597.23,-268C1597.23,-268 1416.77,-268 1416.77,-268 1410.77,-268 1404.77,-262 1404.77,-256 1404.77,-256 1404.77,-244 1404.77,-244 1404.77,-238 1410.77,-232 1416.77,-232 1416.77,-232 1597.23,-232 1597.23,-232 1603.23,-232 1609.23,-238 1609.23,-244 1609.23,-244 1609.23,-256 1609.23,-256 1609.23,-262 1603.23,-268 1597.23,-268"/>
<text xml:space="preserve" text-anchor="middle" x="1507" y="-247" font-family="Helvetica,sans-Serif" font-size="10.00">hermitian_norm_eq_diagonal_eigenvalues</text>
</a>
</g>
</g>
<!-- n38 -->
<g id="node27" class="node">
<title>n38</title>
<g id="a_node27"><a xlink:href="vscode://vscode-remote/wsl+Ubuntu/tmp/statlib-main-refresh.tmBBiR/Statlib/HighDim/CovarianceMatrix/SampleCovariance.lean:61" xlink:title="lemma · Statlib/HighDim/CovarianceMatrix/SampleCovariance.lean:61" target="_blank">
<path fill="#eef2f6" stroke="#94a3b8" d="M1749.21,-268C1749.21,-268 1638.79,-268 1638.79,-268 1632.79,-268 1626.79,-262 1626.79,-256 1626.79,-256 1626.79,-244 1626.79,-244 1626.79,-238 1632.79,-232 1638.79,-232 1638.79,-232 1749.21,-232 1749.21,-232 1755.21,-232 1761.21,-238 1761.21,-244 1761.21,-244 1761.21,-256 1761.21,-256 1761.21,-262 1755.21,-268 1749.21,-268"/>
<text xml:space="preserve" text-anchor="middle" x="1694" y="-247" font-family="Helvetica,sans-Serif" font-size="10.00">pi_real_norm_eq_sup_abs</text>
</a>
</g>
</g>
<!-- n39 -->
<g id="node28" class="node">
<title>n39</title>
<g id="a_node28"><a xlink:href="vscode://vscode-remote/wsl+Ubuntu/tmp/statlib-main-refresh.tmBBiR/Statlib/HighDim/CovarianceMatrix/SampleCovariance.lean:71" xlink:title="lemma · Statlib/HighDim/CovarianceMatrix/SampleCovariance.lean:71" target="_blank">
<path fill="#eef2f6" stroke="#94a3b8" d="M1591.23,-340C1591.23,-340 1410.77,-340 1410.77,-340 1404.77,-340 1398.77,-334 1398.77,-328 1398.77,-328 1398.77,-316 1398.77,-316 1398.77,-310 1404.77,-304 1410.77,-304 1410.77,-304 1591.23,-304 1591.23,-304 1597.23,-304 1603.23,-310 1603.23,-316 1603.23,-316 1603.23,-328 1603.23,-328 1603.23,-334 1597.23,-340 1591.23,-340"/>
<text xml:space="preserve" text-anchor="middle" x="1501" y="-319" font-family="Helvetica,sans-Serif" font-size="10.00">hermitian_norm_eq_sup_abs_eigenvalues</text>
</a>
</g>
</g>
<!-- n39&#45;&gt;n37 -->
<g id="edge38" class="edge">
<title>n39&#45;&gt;n37</title>
<path fill="none" stroke="#64748b" d="M1502.48,-303.7C1503.19,-295.47 1504.04,-285.48 1504.82,-276.42"/>
<polygon fill="#64748b" stroke="#64748b" points="1507.25,-276.8 1505.4,-269.61 1502.37,-276.38 1507.25,-276.8"/>
</g>
<!-- n39&#45;&gt;n38 -->
<g id="edge39" class="edge">
<title>n39&#45;&gt;n38</title>
<path fill="none" stroke="#64748b" d="M1549.2,-303.52C1576.25,-293.71 1610.11,-281.43 1638.29,-271.21"/>
<polygon fill="#64748b" stroke="#64748b" points="1638.91,-273.59 1644.65,-268.9 1637.24,-268.98 1638.91,-273.59"/>
</g>
<!-- n40 -->
<g id="node29" class="node">
<title>n40</title>
<g id="a_node29"><a xlink:href="vscode://vscode-remote/wsl+Ubuntu/tmp/statlib-main-refresh.tmBBiR/Statlib/HighDim/CovarianceMatrix/SampleCovariance.lean:80" xlink:title="lemma · Statlib/HighDim/CovarianceMatrix/SampleCovariance.lean:80" target="_blank">
<path fill="#eef2f6" stroke="#94a3b8" d="M1450.54,-412C1450.54,-412 1313.46,-412 1313.46,-412 1307.46,-412 1301.46,-406 1301.46,-400 1301.46,-400 1301.46,-388 1301.46,-388 1301.46,-382 1307.46,-376 1313.46,-376 1313.46,-376 1450.54,-376 1450.54,-376 1456.54,-376 1462.54,-382 1462.54,-388 1462.54,-388 1462.54,-400 1462.54,-400 1462.54,-406 1456.54,-412 1450.54,-412"/>
<text xml:space="preserve" text-anchor="middle" x="1382" y="-391" font-family="Helvetica,sans-Serif" font-size="10.00">hermitian_norm_le_two_net_sup</text>
</a>
</g>
</g>
<!-- n40&#45;&gt;n36 -->
<g id="edge40" class="edge">
<title>n40&#45;&gt;n36</title>
<path fill="none" stroke="#64748b" d="M1462.95,-377.32C1524.03,-365 1599.4,-348.53 1612,-340 1628.13,-329.08 1621.08,-315.22 1637,-304 1687.05,-268.71 1732.78,-316.63 1770,-268 1779.72,-255.29 1780.65,-243.94 1770,-232 1742.09,-200.72 1456.99,-185.43 1347.5,-180.68"/>
<polygon fill="#64748b" stroke="#64748b" points="1347.92,-178.24 1340.82,-180.39 1347.71,-183.14 1347.92,-178.24"/>
</g>
<!-- n40&#45;&gt;n39 -->
<g id="edge41" class="edge">
<title>n40&#45;&gt;n39</title>
<path fill="none" stroke="#64748b" d="M1411.72,-375.52C1427.74,-366.09 1447.65,-354.38 1464.6,-344.41"/>
<polygon fill="#64748b" stroke="#64748b" points="1465.56,-346.69 1470.35,-341.03 1463.08,-342.47 1465.56,-346.69"/>
</g>
<!-- n41 -->
<g id="node30" class="node">
<title>n41</title>
<g id="a_node30"><a xlink:href="vscode://vscode-remote/wsl+Ubuntu/tmp/statlib-main-refresh.tmBBiR/Statlib/HighDim/CovarianceMatrix/SampleCovariance.lean:318" xlink:title="lemma · Statlib/HighDim/CovarianceMatrix/SampleCovariance.lean:318" target="_blank">
<path fill="#eef2f6" stroke="#94a3b8" d="M1008.53,-268C1008.53,-268 901.47,-268 901.47,-268 895.47,-268 889.47,-262 889.47,-256 889.47,-256 889.47,-244 889.47,-244 889.47,-238 895.47,-232 901.47,-232 901.47,-232 1008.53,-232 1008.53,-232 1014.53,-232 1020.53,-238 1020.53,-244 1020.53,-244 1020.53,-256 1020.53,-256 1020.53,-262 1014.53,-268 1008.53,-268"/>
<text xml:space="preserve" text-anchor="middle" x="955" y="-247" font-family="Helvetica,sans-Serif" font-size="10.00">matrix_quadratic_eq_sum</text>
</a>
</g>
</g>
<!-- n41&#45;&gt;n6 -->
<g id="edge43" class="edge">
<title>n41&#45;&gt;n6</title>
<path fill="none" stroke="#64748b" d="M889.26,-232.14C840.1,-219.54 774.01,-202.59 729.8,-191.26"/>
<polygon fill="#64748b" stroke="#64748b" points="730.67,-188.95 723.28,-189.58 729.45,-193.7 730.67,-188.95"/>
</g>
<!-- n41&#45;&gt;n36 -->
<g id="edge42" class="edge">
<title>n41&#45;&gt;n36</title>
<path fill="none" stroke="#64748b" d="M1020.82,-233.95C1023.92,-233.28 1026.99,-232.63 1030,-232 1111.98,-214.81 1208.17,-196.76 1262.31,-186.78"/>
<polygon fill="#64748b" stroke="#64748b" points="1262.7,-189.2 1269.14,-185.53 1261.81,-184.38 1262.7,-189.2"/>
</g>
<!-- n42 -->
<g id="node31" class="node">
<title>n42</title>
<g id="a_node31"><a xlink:href="vscode://vscode-remote/wsl+Ubuntu/tmp/statlib-main-refresh.tmBBiR/Statlib/HighDim/CovarianceMatrix/SampleCovariance.lean:330" xlink:title="lemma · Statlib/HighDim/CovarianceMatrix/SampleCovariance.lean:330" target="_blank">
<path fill="#eef2f6" stroke="#94a3b8" d="M1139.08,-268C1139.08,-268 1050.92,-268 1050.92,-268 1044.92,-268 1038.92,-262 1038.92,-256 1038.92,-256 1038.92,-244 1038.92,-244 1038.92,-238 1044.92,-232 1050.92,-232 1050.92,-232 1139.08,-232 1139.08,-232 1145.08,-232 1151.08,-238 1151.08,-244 1151.08,-244 1151.08,-256 1151.08,-256 1151.08,-262 1145.08,-268 1139.08,-268"/>
<text xml:space="preserve" text-anchor="middle" x="1095" y="-247" font-family="Helvetica,sans-Serif" font-size="10.00">fin_sum_comm_three</text>
</a>
</g>
</g>
<!-- n43 -->
<g id="node32" class="node">
<title>n43</title>
<g id="a_node32"><a xlink:href="vscode://vscode-remote/wsl+Ubuntu/tmp/statlib-main-refresh.tmBBiR/Statlib/HighDim/CovarianceMatrix/SampleCovariance.lean:340" xlink:title="lemma · Statlib/HighDim/CovarianceMatrix/SampleCovariance.lean:340" target="_blank">
<path fill="#eef2f6" stroke="#94a3b8" d="M912.52,-340C912.52,-340 681.48,-340 681.48,-340 675.48,-340 669.48,-334 669.48,-328 669.48,-328 669.48,-316 669.48,-316 669.48,-310 675.48,-304 681.48,-304 681.48,-304 912.52,-304 912.52,-304 918.52,-304 924.52,-310 924.52,-316 924.52,-316 924.52,-328 924.52,-328 924.52,-334 918.52,-340 912.52,-340"/>
<text xml:space="preserve" text-anchor="middle" x="797" y="-319" font-family="Helvetica,sans-Serif" font-size="10.00">sampleSecondMoment_quadratic_eq_projection_sum</text>
</a>
</g>
</g>
<!-- n43&#45;&gt;n6 -->
<g id="edge48" class="edge">
<title>n43&#45;&gt;n6</title>
<path fill="none" stroke="#64748b" d="M781.42,-303.54C772.39,-293.31 760.89,-280.06 751,-268 733.11,-246.19 713.46,-220.7 699.73,-202.6"/>
<polygon fill="#64748b" stroke="#64748b" points="702.04,-201.59 695.86,-197.49 698.14,-204.55 702.04,-201.59"/>
</g>
<!-- n43&#45;&gt;n25 -->
<g id="edge45" class="edge">
<title>n43&#45;&gt;n25</title>
<path fill="none" stroke="#64748b" d="M924.94,-305.56C1003.09,-295.73 1104.97,-282.21 1195,-268 1203.23,-266.7 1211.86,-265.25 1220.39,-263.75"/>
<polygon fill="#64748b" stroke="#64748b" points="1220.58,-266.21 1227.05,-262.58 1219.73,-261.38 1220.58,-266.21"/>
</g>
<!-- n43&#45;&gt;n36 -->
<g id="edge44" class="edge">
<title>n43&#45;&gt;n36</title>
<path fill="none" stroke="#64748b" d="M924.77,-305.67C1020.44,-293.64 1138.39,-277.39 1160,-268 1183.49,-257.79 1183.59,-246.06 1205,-232 1223.56,-219.81 1245.22,-208.06 1263.62,-198.73"/>
<polygon fill="#64748b" stroke="#64748b" points="1264.26,-201.15 1269.41,-195.82 1262.06,-196.77 1264.26,-201.15"/>
</g>
<!-- n43&#45;&gt;n41 -->
<g id="edge46" class="edge">
<title>n43&#45;&gt;n41</title>
<path fill="none" stroke="#64748b" d="M836.46,-303.52C858.22,-293.88 885.38,-281.84 908.21,-271.73"/>
<polygon fill="#64748b" stroke="#64748b" points="908.98,-274.07 914.38,-268.99 906.99,-269.59 908.98,-274.07"/>
</g>
<!-- n43&#45;&gt;n42 -->
<g id="edge47" class="edge">
<title>n43&#45;&gt;n42</title>
<path fill="none" stroke="#64748b" d="M876.68,-303.54C921.76,-293.5 979.12,-280.44 1030,-268 1030.18,-267.96 1030.35,-267.91 1030.53,-267.87"/>
<polygon fill="#64748b" stroke="#64748b" points="1030.98,-270.28 1037.19,-266.22 1029.8,-265.53 1030.98,-270.28"/>
</g>
<!-- n44 -->
<g id="node33" class="node">
<title>n44</title>
<g id="a_node33"><a xlink:href="vscode://vscode-remote/wsl+Ubuntu/tmp/statlib-main-refresh.tmBBiR/Statlib/HighDim/Geometry/RIPConstruction.lean:420" xlink:title="lemma · Statlib/HighDim/Geometry/RIPConstruction.lean:420" target="_blank">
<path fill="#eef2f6" stroke="#94a3b8" d="M649.58,-268C649.58,-268 546.42,-268 546.42,-268 540.42,-268 534.42,-262 534.42,-256 534.42,-256 534.42,-244 534.42,-244 534.42,-238 540.42,-232 546.42,-232 546.42,-232 649.58,-232 649.58,-232 655.58,-232 661.58,-238 661.58,-244 661.58,-244 661.58,-256 661.58,-256 661.58,-262 655.58,-268 649.58,-268"/>
<text xml:space="preserve" text-anchor="middle" x="598" y="-247" font-family="Helvetica,sans-Serif" font-size="10.00">restrictByEquiv_inner_eq</text>
</a>
</g>
</g>
<!-- n44&#45;&gt;n6 -->
<g id="edge51" class="edge">
<title>n44&#45;&gt;n6</title>
<path fill="none" stroke="#64748b" d="M618.76,-231.7C629.67,-222.61 643.16,-211.36 654.88,-201.6"/>
<polygon fill="#64748b" stroke="#64748b" points="656.21,-203.68 660.02,-197.32 653.07,-199.92 656.21,-203.68"/>
</g>
<!-- n44&#45;&gt;n26 -->
<g id="edge49" class="edge">
<title>n44&#45;&gt;n26</title>
<path fill="none" stroke="#64748b" d="M534.22,-232.76C485.08,-220.26 418.1,-203.21 372.84,-191.69"/>
<polygon fill="#64748b" stroke="#64748b" points="373.51,-189.33 366.12,-189.98 372.3,-194.08 373.51,-189.33"/>
</g>
<!-- n44&#45;&gt;n27 -->
<g id="edge50" class="edge">
<title>n44&#45;&gt;n27</title>
<path fill="none" stroke="#64748b" d="M598,-231.59C598,-206.76 598,-161.01 598,-132.4"/>
<polygon fill="#64748b" stroke="#64748b" points="600.45,-132.62 598,-125.62 595.55,-132.62 600.45,-132.62"/>
</g>
<!-- n45 -->
<g id="node34" class="node">
<title>n45</title>
<g id="a_node34"><a xlink:href="vscode://vscode-remote/wsl+Ubuntu/tmp/statlib-main-refresh.tmBBiR/Statlib/HighDim/Geometry/RIPConstruction.lean:468" xlink:title="lemma · Statlib/HighDim/Geometry/RIPConstruction.lean:468" target="_blank">
<path fill="#eef2f6" stroke="#94a3b8" d="M877.61,-412C877.61,-412 714.39,-412 714.39,-412 708.39,-412 702.39,-406 702.39,-400 702.39,-400 702.39,-388 702.39,-388 702.39,-382 708.39,-376 714.39,-376 714.39,-376 877.61,-376 877.61,-376 883.61,-376 889.61,-382 889.61,-388 889.61,-388 889.61,-400 889.61,-400 889.61,-406 883.61,-412 877.61,-412"/>
<text xml:space="preserve" text-anchor="middle" x="796" y="-391" font-family="Helvetica,sans-Serif" font-size="10.00">restricted_sample_deviation_quadratic</text>
</a>
</g>
</g>
<!-- n45&#45;&gt;n4 -->
<g id="edge55" class="edge">
<title>n45&#45;&gt;n4</title>
<path fill="none" stroke="#64748b" d="M701.92,-384.73C584.09,-373.99 389.05,-354.87 318,-340 265.37,-328.99 118.87,-311.31 87,-268 56.45,-226.47 53.14,-190.88 87,-152 192.29,-31.09 1407.4,-33.15 1641.21,-34.68"/>
<polygon fill="#64748b" stroke="#64748b" points="1640.9,-37.13 1647.91,-34.73 1640.93,-32.23 1640.9,-37.13"/>
</g>
<!-- n45&#45;&gt;n6 -->
<g id="edge61" class="edge">
<title>n45&#45;&gt;n6</title>
<path fill="none" stroke="#64748b" d="M702.14,-377.94C660.25,-369.11 617.5,-356.44 605,-340 595.32,-327.26 596.28,-317.42 605,-304 626.47,-270.97 664.53,-301.03 686,-268 698.19,-249.25 695.33,-223.28 690.54,-204.24"/>
<polygon fill="#64748b" stroke="#64748b" points="692.97,-203.83 688.73,-197.74 688.24,-205.14 692.97,-203.83"/>
</g>
<!-- n45&#45;&gt;n9 -->
<g id="edge58" class="edge">
<title>n45&#45;&gt;n9</title>
<path fill="none" stroke="#64748b" d="M873.22,-375.62C894.98,-367.68 917.26,-356.28 934,-340 946.43,-327.92 935.44,-314.8 949,-304 1023.42,-244.74 1080.21,-319.81 1160,-268 1176.13,-257.53 1171.9,-246.95 1184,-232 1215.24,-193.4 1222.79,-182.47 1262,-152 1273.04,-143.42 1285.89,-135.34 1297.93,-128.46"/>
<polygon fill="#64748b" stroke="#64748b" points="1299.07,-130.64 1303.98,-125.08 1296.67,-126.36 1299.07,-130.64"/>
</g>
<!-- n45&#45;&gt;n25 -->
<g id="edge54" class="edge">
<title>n45&#45;&gt;n25</title>
<path fill="none" stroke="#64748b" d="M887.5,-375.57C915.19,-367.59 944.67,-356.17 969,-340 986.34,-328.47 980.93,-314.36 999,-304 1083.43,-255.59 1119.56,-287.05 1215,-268 1216.81,-267.64 1218.65,-267.26 1220.51,-266.88"/>
<polygon fill="#64748b" stroke="#64748b" points="1220.89,-269.3 1227.23,-265.45 1219.87,-264.51 1220.89,-269.3"/>
</g>
<!-- n45&#45;&gt;n26 -->
<g id="edge52" class="edge">
<title>n45&#45;&gt;n26</title>
<path fill="none" stroke="#64748b" d="M701.95,-377.75C650.96,-368.11 594.15,-354.72 573,-340 541.43,-318.03 545.02,-300.84 525,-268 515.47,-252.37 519.31,-243.42 505,-232 467.06,-201.72 412.41,-188.74 372.91,-183.17"/>
<polygon fill="#64748b" stroke="#64748b" points="373.49,-180.78 366.23,-182.29 372.85,-185.64 373.49,-180.78"/>
</g>
<!-- n45&#45;&gt;n27 -->
<g id="edge56" class="edge">
<title>n45&#45;&gt;n27</title>
<path fill="none" stroke="#64748b" d="M701.93,-377.91C681.23,-370.04 661.71,-358.09 649,-340 639.8,-326.91 641.99,-318.38 649,-304 660.37,-280.66 678.57,-288.1 695,-268 717.64,-240.3 722.78,-230.82 731,-196 735.49,-176.97 742.4,-167.89 731,-152 712.17,-125.75 677.19,-114.62 647.82,-109.99"/>
<polygon fill="#64748b" stroke="#64748b" points="648.48,-107.6 641.21,-109.06 647.8,-112.46 648.48,-107.6"/>
</g>
<!-- n45&#45;&gt;n36 -->
<g id="edge53" class="edge">
<title>n45&#45;&gt;n36</title>
<path fill="none" stroke="#64748b" d="M881.13,-375.57C904.96,-367.65 929.63,-356.27 949,-340 963.02,-328.23 954.03,-314.54 969,-304 1049.66,-247.23 1101.6,-315.6 1188,-268 1206.75,-257.67 1203.64,-245.8 1220,-232 1233.82,-220.34 1250.44,-209.41 1265.3,-200.53"/>
<polygon fill="#64748b" stroke="#64748b" points="1266.33,-202.77 1271.13,-197.12 1263.85,-198.54 1266.33,-202.77"/>
</g>
<!-- n45&#45;&gt;n41 -->
<g id="edge57" class="edge">
<title>n45&#45;&gt;n41</title>
<path fill="none" stroke="#64748b" d="M706.71,-375.58C688.35,-367.76 671.23,-356.42 660,-340 650.97,-326.79 649.64,-316.19 660,-304 690.78,-267.8 819.82,-276.64 881.1,-267.71"/>
<polygon fill="#64748b" stroke="#64748b" points="881.29,-270.17 887.79,-266.58 880.48,-265.33 881.29,-270.17"/>
</g>
<!-- n45&#45;&gt;n43 -->
<g id="edge59" class="edge">
<title>n45&#45;&gt;n43</title>
<path fill="none" stroke="#64748b" d="M796.25,-375.7C796.36,-367.47 796.51,-357.48 796.64,-348.42"/>
<polygon fill="#64748b" stroke="#64748b" points="799.08,-348.65 796.73,-341.62 794.18,-348.58 799.08,-348.65"/>
</g>
<!-- n45&#45;&gt;n44 -->
<g id="edge60" class="edge">
<title>n45&#45;&gt;n44</title>
<path fill="none" stroke="#64748b" d="M701.94,-380.85C652.82,-372.36 599.89,-359.1 585,-340 570.9,-321.93 577.25,-295.32 585.22,-275.91"/>
<polygon fill="#64748b" stroke="#64748b" points="587.37,-277.11 587.95,-269.72 582.89,-275.14 587.37,-277.11"/>
</g>
<!-- n46 -->
<g id="node35" class="node">
<title>n46</title>
<g id="a_node35"><a xlink:href="vscode://vscode-remote/wsl+Ubuntu/tmp/statlib-main-refresh.tmBBiR/Statlib/HighDim/Geometry/RIPConstruction.lean:98" xlink:title="lemma · Statlib/HighDim/Geometry/RIPConstruction.lean:98" target="_blank">
<path fill="#eef2f6" stroke="#94a3b8" d="M1857.27,-412C1857.27,-412 1700.73,-412 1700.73,-412 1694.73,-412 1688.73,-406 1688.73,-400 1688.73,-400 1688.73,-388 1688.73,-388 1688.73,-382 1694.73,-376 1700.73,-376 1700.73,-376 1857.27,-376 1857.27,-376 1863.27,-376 1869.27,-382 1869.27,-388 1869.27,-388 1869.27,-400 1869.27,-400 1869.27,-406 1863.27,-412 1857.27,-412"/>
<text xml:space="preserve" text-anchor="middle" x="1779" y="-391" font-family="Helvetica,sans-Serif" font-size="10.00">exists_support_card_eq_of_isSparse</text>
</a>
</g>
</g>
<!-- n46&#45;&gt;n3 -->
<g id="edge62" class="edge">
<title>n46&#45;&gt;n3</title>
<path fill="none" stroke="#64748b" d="M1811.47,-375.52C1830.32,-365.36 1854.1,-352.56 1873.46,-342.14"/>
<polygon fill="#64748b" stroke="#64748b" points="1874.58,-344.32 1879.58,-338.84 1872.25,-340 1874.58,-344.32"/>
</g>
<!-- n47 -->
<g id="node36" class="node">
<title>n47</title>
<g id="a_node36"><a xlink:href="vscode://vscode-remote/wsl+Ubuntu/tmp/statlib-main-refresh.tmBBiR/Statlib/HighDim/SpectralPerturbation/Eigenvalues.lean:161" xlink:title="lemma · Statlib/HighDim/SpectralPerturbation/Eigenvalues.lean:161" target="_blank">
<path fill="#eef2f6" stroke="#94a3b8" d="M1329.26,-340C1329.26,-340 1212.74,-340 1212.74,-340 1206.74,-340 1200.74,-334 1200.74,-328 1200.74,-328 1200.74,-316 1200.74,-316 1200.74,-310 1206.74,-304 1212.74,-304 1212.74,-304 1329.26,-304 1329.26,-304 1335.26,-304 1341.26,-310 1341.26,-316 1341.26,-316 1341.26,-328 1341.26,-328 1341.26,-334 1335.26,-340 1329.26,-340"/>
<text xml:space="preserve" text-anchor="middle" x="1271" y="-319" font-family="Helvetica,sans-Serif" font-size="10.00">abs_rayleigh_le_l2_opNorm</text>
</a>
</g>
</g>
<!-- n48 -->
<g id="node37" class="node">
<title>n48</title>
<g id="a_node37"><a xlink:href="vscode://vscode-remote/wsl+Ubuntu/tmp/statlib-main-refresh.tmBBiR/Statlib/HighDim/Geometry/RIPConstruction.lean:527" xlink:title="lemma · Statlib/HighDim/Geometry/RIPConstruction.lean:527" target="_blank">
<path fill="#eef2f6" stroke="#94a3b8" d="M1271.72,-412C1271.72,-412 1096.28,-412 1096.28,-412 1090.28,-412 1084.28,-406 1084.28,-400 1084.28,-400 1084.28,-388 1084.28,-388 1084.28,-382 1090.28,-376 1096.28,-376 1096.28,-376 1271.72,-376 1271.72,-376 1277.72,-376 1283.72,-382 1283.72,-388 1283.72,-388 1283.72,-400 1283.72,-400 1283.72,-406 1277.72,-412 1271.72,-412"/>
<text xml:space="preserve" text-anchor="middle" x="1184" y="-391" font-family="Helvetica,sans-Serif" font-size="10.00">abs_quadratic_le_opNorm_mul_norm_sq</text>
</a>
</g>
</g>
<!-- n48&#45;&gt;n36 -->
<g id="edge63" class="edge">
<title>n48&#45;&gt;n36</title>
<path fill="none" stroke="#64748b" d="M1267.01,-375.57C1302.74,-366.31 1338.88,-353.96 1350,-340 1379.95,-302.39 1373.97,-276.59 1356,-232 1351.42,-220.64 1343.12,-210.36 1334.53,-201.94"/>
<polygon fill="#64748b" stroke="#64748b" points="1336.48,-200.41 1329.68,-197.44 1333.15,-204 1336.48,-200.41"/>
</g>
<!-- n48&#45;&gt;n47 -->
<g id="edge64" class="edge">
<title>n48&#45;&gt;n47</title>
<path fill="none" stroke="#64748b" d="M1205.51,-375.7C1216.8,-366.61 1230.78,-355.36 1242.91,-345.6"/>
<polygon fill="#64748b" stroke="#64748b" points="1244.34,-347.59 1248.26,-341.3 1241.27,-343.78 1244.34,-347.59"/>
</g>
<!-- n49 -->
<g id="node38" class="node">
<title>n49</title>
<g id="a_node38"><a xlink:href="vscode://vscode-remote/wsl+Ubuntu/tmp/statlib-main-refresh.tmBBiR/Statlib/HighDim/Geometry/RIPConstruction.lean:560" xlink:title="theorem · Statlib/HighDim/Geometry/RIPConstruction.lean:560" target="_blank">
<path fill="#ffe6a3" stroke="#d4a017" d="M1086.59,-485.2C1086.59,-485.2 1003.41,-485.2 1003.41,-485.2 997.41,-485.2 991.41,-479.2 991.41,-473.2 991.41,-473.2 991.41,-461.2 991.41,-461.2 991.41,-455.2 997.41,-449.2 1003.41,-449.2 1003.41,-449.2 1086.59,-449.2 1086.59,-449.2 1092.59,-449.2 1098.59,-455.2 1098.59,-461.2 1098.59,-461.2 1098.59,-473.2 1098.59,-473.2 1098.59,-479.2 1092.59,-485.2 1086.59,-485.2"/>
<text xml:space="preserve" text-anchor="middle" x="1045" y="-464.2" font-family="Helvetica,sans-Serif" font-size="10.00">subgaussian_rip_tail</text>
</a>
</g>
</g>
<!-- n49&#45;&gt;n0 -->
<g id="edge69" class="edge">
<title>n49&#45;&gt;n0</title>
<path fill="none" stroke="#64748b" d="M990.93,-465.73C843.06,-464.21 441.47,-458.51 419,-441.2 394.99,-422.7 421.95,-395.8 399,-376 358.67,-341.2 214.51,-348.95 162,-340 153.68,-338.58 144.95,-337.02 136.33,-335.44"/>
<polygon fill="#64748b" stroke="#64748b" points="136.93,-333.06 129.6,-334.2 136.04,-337.88 136.93,-333.06"/>
</g>
<!-- n49&#45;&gt;n1 -->
<g id="edge65" class="edge">
<title>n49&#45;&gt;n1</title>
<path fill="none" stroke="#64748b" d="M991.16,-462.31C933.33,-458.3 838.71,-452.22 757,-449.2 742.15,-448.65 235.65,-447.08 222,-441.2 211.02,-436.47 201.37,-427.65 193.85,-418.97"/>
<polygon fill="#64748b" stroke="#64748b" points="195.8,-417.49 189.49,-413.61 192,-420.58 195.8,-417.49"/>
</g>
<!-- n49&#45;&gt;n2 -->
<g id="edge66" class="edge">
<title>n49&#45;&gt;n2</title>
<path fill="none" stroke="#64748b" d="M990.95,-465.14C798.54,-461.29 157.33,-448 137,-441.2 122.29,-436.28 108.01,-426.82 96.6,-417.74"/>
<polygon fill="#64748b" stroke="#64748b" points="98.35,-416.01 91.4,-413.43 95.23,-419.78 98.35,-416.01"/>
</g>
<!-- n49&#45;&gt;n4 -->
<g id="edge68" class="edge">
<title>n49&#45;&gt;n4</title>
<path fill="none" stroke="#64748b" d="M1098.95,-465.02C1284.87,-460.92 1887.96,-447.15 1896,-441.2 1920.58,-423 1901.52,-401.77 1918,-376 1930.53,-356.4 1944.51,-360.23 1956,-340 1976.03,-304.75 1976,-291.54 1976,-251 1976,-251 1976,-251 1976,-177 1976,-157.1 1979.56,-102.57 1966,-88 1933.02,-52.57 1789.05,-40.48 1718.81,-36.65"/>
<polygon fill="#64748b" stroke="#64748b" points="1719.26,-34.22 1712.14,-36.3 1719,-39.11 1719.26,-34.22"/>
</g>
<!-- n49&#45;&gt;n5 -->
<g id="edge67" class="edge">
<title>n49&#45;&gt;n5</title>
<path fill="none" stroke="#64748b" d="M1099.01,-464.09C1189.28,-460.61 1376.52,-453.63 1535,-449.2 1556,-448.61 1893.56,-449.16 1913,-441.2 1924.67,-436.42 1935.2,-427.47 1943.48,-418.71"/>
<polygon fill="#64748b" stroke="#64748b" points="1945.25,-420.41 1948.09,-413.56 1941.6,-417.15 1945.25,-420.41"/>
</g>
<!-- n49&#45;&gt;n6 -->
<g id="edge70" class="edge">
<title>n49&#45;&gt;n6</title>
<path fill="none" stroke="#64748b" d="M991.17,-465.52C898.47,-463.89 716.35,-458.5 693,-441.2 668.07,-422.72 688.97,-398.87 668,-376 643.28,-349.04 613.4,-371.01 594,-340 585.51,-326.44 585.41,-317.5 594,-304 614.28,-272.13 648.8,-298.57 671,-268 684.25,-249.76 686.03,-223.67 685.08,-204.46"/>
<polygon fill="#64748b" stroke="#64748b" points="687.53,-204.48 684.59,-197.67 682.65,-204.83 687.53,-204.48"/>
</g>
<!-- n49&#45;&gt;n9 -->
<g id="edge73" class="edge">
<title>n49&#45;&gt;n9</title>
<path fill="none" stroke="#64748b" d="M1098.91,-466.51C1210.62,-466.66 1459.56,-464.37 1490,-441.2 1514.33,-422.67 1489.65,-396.87 1512,-376 1558.01,-333.03 1598.12,-377.07 1649,-340 1664.35,-328.82 1656.9,-315.51 1672,-304 1714.92,-271.26 1755.98,-311.46 1788,-268 1887.97,-132.3 1544.35,-110.63 1400.45,-107.43"/>
<polygon fill="#64748b" stroke="#64748b" points="1400.66,-104.98 1393.61,-107.29 1400.56,-109.88 1400.66,-104.98"/>
</g>
<!-- n49&#45;&gt;n22 -->
<g id="edge77" class="edge">
<title>n49&#45;&gt;n22</title>
<path fill="none" stroke="#64748b" d="M1098.73,-466.13C1203.52,-465.52 1431.54,-461.79 1507,-441.2 1526.52,-435.87 1546.65,-425.86 1562.83,-416.52"/>
<polygon fill="#64748b" stroke="#64748b" points="1563.88,-418.74 1568.66,-413.06 1561.39,-414.52 1563.88,-418.74"/>
</g>
<!-- n49&#45;&gt;n23 -->
<g id="edge78" class="edge">
<title>n49&#45;&gt;n23</title>
<path fill="none" stroke="#64748b" d="M1028.54,-448.96C1019.69,-439.69 1008.65,-428.14 999.06,-418.1"/>
<polygon fill="#64748b" stroke="#64748b" points="1000.96,-416.54 994.35,-413.17 997.42,-419.93 1000.96,-416.54"/>
</g>
<!-- n49&#45;&gt;n24 -->
<g id="edge79" class="edge">
<title>n49&#45;&gt;n24</title>
<path fill="none" stroke="#64748b" d="M1099.07,-464.97C1282.49,-460.76 1870.04,-446.85 1878,-441.2 1903.31,-423.24 1884.97,-401.26 1903,-376 1917.48,-355.71 1935.45,-362.58 1946,-340 1978.71,-269.95 1945.04,-176.16 1925.24,-131.99"/>
<polygon fill="#64748b" stroke="#64748b" points="1927.51,-131.05 1922.36,-125.72 1923.05,-133.1 1927.51,-131.05"/>
</g>
<!-- n49&#45;&gt;n25 -->
<g id="edge80" class="edge">
<title>n49&#45;&gt;n25</title>
<path fill="none" stroke="#64748b" d="M1045.19,-448.79C1044.91,-430.28 1043.06,-400.38 1035,-376 1024.54,-344.35 992.61,-329.56 1014,-304 1043.12,-269.2 1170.55,-277.15 1215,-268 1216.81,-267.63 1218.65,-267.24 1220.5,-266.85"/>
<polygon fill="#64748b" stroke="#64748b" points="1220.89,-269.27 1227.21,-265.4 1219.86,-264.48 1220.89,-269.27"/>
</g>
<!-- n49&#45;&gt;n26 -->
<g id="edge81" class="edge">
<title>n49&#45;&gt;n26</title>
<path fill="none" stroke="#64748b" d="M991.01,-464.74C810.76,-459.82 240.76,-444.07 237,-441.2 212.91,-422.81 235,-400.39 217,-376 200.09,-353.09 184.6,-359.66 164,-340 149.53,-326.19 151.99,-317.24 137,-304 112.82,-282.66 90.19,-295.89 74,-268 65.97,-254.16 63.93,-244.44 74,-232 98.57,-201.65 207.84,-187.95 273.19,-182.37"/>
<polygon fill="#64748b" stroke="#64748b" points="273.04,-184.84 279.81,-181.82 272.64,-179.96 273.04,-184.84"/>
</g>
<!-- n49&#45;&gt;n27 -->
<g id="edge83" class="edge">
<title>n49&#45;&gt;n27</title>
<path fill="none" stroke="#64748b" d="M991.04,-466.67C880.58,-467.13 636.64,-465.37 608,-441.2 585.27,-422.02 615.25,-395.73 593,-376 536.48,-325.89 328.08,-359.09 255,-340 215.7,-329.73 109.36,-301.91 87,-268 28.68,-179.56 164.45,-172.25 225,-152 336.24,-114.8 475.24,-107.66 548.12,-106.7"/>
<polygon fill="#64748b" stroke="#64748b" points="547.76,-109.16 554.73,-106.63 547.71,-104.26 547.76,-109.16"/>
</g>
<!-- n49&#45;&gt;n29 -->
<g id="edge84" class="edge">
<title>n49&#45;&gt;n29</title>
<path fill="none" stroke="#64748b" d="M990.96,-461.01C961.83,-457.16 929.72,-450.88 919,-441.2 896.5,-420.89 921.96,-395.79 899,-376 817.63,-305.87 730.07,-421.42 660,-340 649.56,-327.87 650.68,-317.01 660,-304 665.82,-295.88 711.73,-280.84 752.26,-268.85"/>
<polygon fill="#64748b" stroke="#64748b" points="752.8,-271.25 758.82,-266.92 751.42,-266.55 752.8,-271.25"/>
</g>
<!-- n49&#45;&gt;n30 -->
<g id="edge91" class="edge">
<title>n49&#45;&gt;n30</title>
<path fill="none" stroke="#64748b" d="M991.21,-466.34C884.95,-466.15 655.9,-463.14 628,-441.2 604.18,-422.46 631.22,-395.49 608,-376 508.52,-292.5 438.38,-388.76 318,-340 280.83,-324.94 245.06,-295.09 222.84,-274.13"/>
<polygon fill="#64748b" stroke="#64748b" points="224.78,-272.6 218.03,-269.52 221.39,-276.13 224.78,-272.6"/>
</g>
<!-- n49&#45;&gt;n31 -->
<g id="edge82" class="edge">
<title>n49&#45;&gt;n31</title>
<path fill="none" stroke="#64748b" d="M990.94,-463.06C885.3,-456.88 661.39,-443.53 658,-441.2 631.71,-423.14 652.63,-396.27 628,-376 617.6,-367.44 555,-352.75 499.38,-341.01"/>
<polygon fill="#64748b" stroke="#64748b" points="500.07,-338.65 492.72,-339.61 499.06,-343.44 500.07,-338.65"/>
</g>
<!-- n49&#45;&gt;n32 -->
<g id="edge85" class="edge">
<title>n49&#45;&gt;n32</title>
<path fill="none" stroke="#64748b" d="M991.13,-462.88C933.28,-459.35 838.65,-453.66 757,-449.2 721.67,-447.27 632.21,-450.22 598,-441.2 577.92,-435.9 557.11,-425.9 540.38,-416.55"/>
<polygon fill="#64748b" stroke="#64748b" points="541.59,-414.42 534.3,-413.07 539.16,-418.67 541.59,-414.42"/>
</g>
<!-- n49&#45;&gt;n33 -->
<g id="edge86" class="edge">
<title>n49&#45;&gt;n33</title>
<path fill="none" stroke="#64748b" d="M991.27,-465.54C895.54,-463.92 703.14,-458.54 678,-441.2 651.74,-423.09 671.79,-397.25 648,-376 609.96,-342 582.96,-365.89 539,-340 518.67,-328.03 518.6,-318.51 500,-304 485.77,-292.9 469.21,-281.78 454.8,-272.62"/>
<polygon fill="#64748b" stroke="#64748b" points="456.42,-270.74 449.19,-269.09 453.81,-274.89 456.42,-270.74"/>
</g>
<!-- n49&#45;&gt;n34 -->
<g id="edge87" class="edge">
<title>n49&#45;&gt;n34</title>
<path fill="none" stroke="#64748b" d="M1049.82,-448.93C1055.16,-430.54 1064.44,-400.74 1075,-376 1079.05,-366.53 1084.15,-356.45 1088.89,-347.66"/>
<polygon fill="#64748b" stroke="#64748b" points="1090.97,-348.95 1092.19,-341.64 1086.68,-346.6 1090.97,-348.95"/>
</g>
<!-- n49&#45;&gt;n35 -->
<g id="edge88" class="edge">
<title>n49&#45;&gt;n35</title>
<path fill="none" stroke="#64748b" d="M991.15,-462.44C933.32,-458.53 838.7,-452.54 757,-449.2 717.8,-447.6 441.94,-451.2 404,-441.2 384.81,-436.14 365.19,-426.05 349.54,-416.58"/>
<polygon fill="#64748b" stroke="#64748b" points="351.17,-414.71 343.93,-413.1 348.59,-418.87 351.17,-414.71"/>
</g>
<!-- n49&#45;&gt;n36 -->
<g id="edge90" class="edge">
<title>n49&#45;&gt;n36</title>
<path fill="none" stroke="#64748b" d="M1098.71,-466.27C1206.74,-465.94 1442.56,-462.74 1472,-441.2 1497.05,-422.88 1473.97,-396.8 1497,-376 1542.45,-334.96 1579.31,-374.37 1630,-340 1646.55,-328.78 1640.57,-315.41 1657,-304 1703.43,-271.75 1745.15,-313.28 1779,-268 1788.58,-255.18 1789.67,-243.93 1779,-232 1750.49,-200.12 1459.23,-185.18 1347.93,-180.6"/>
<polygon fill="#64748b" stroke="#64748b" points="1348.21,-178.16 1341.11,-180.32 1348.01,-183.05 1348.21,-178.16"/>
</g>
<!-- n49&#45;&gt;n40 -->
<g id="edge89" class="edge">
<title>n49&#45;&gt;n40</title>
<path fill="none" stroke="#64748b" d="M1098.86,-466.57C1149.87,-465.58 1228.1,-460.54 1293,-441.2 1312.1,-435.51 1331.91,-425.67 1347.98,-416.53"/>
<polygon fill="#64748b" stroke="#64748b" points="1348.96,-418.8 1353.78,-413.16 1346.5,-414.56 1348.96,-418.8"/>
</g>
<!-- n49&#45;&gt;n45 -->
<g id="edge92" class="edge">
<title>n49&#45;&gt;n45</title>
<path fill="none" stroke="#64748b" d="M991.1,-459.6C964.54,-455.6 932.23,-449.62 904,-441.2 881.74,-434.56 857.92,-424.69 838.32,-415.77"/>
<polygon fill="#64748b" stroke="#64748b" points="839.51,-413.62 832.13,-412.91 837.46,-418.07 839.51,-413.62"/>
</g>
<!-- n49&#45;&gt;n46 -->
<g id="edge93" class="edge">
<title>n49&#45;&gt;n46</title>
<path fill="none" stroke="#64748b" d="M1098.85,-464.36C1249.63,-459.18 1665.96,-444.61 1680,-441.2 1701.61,-435.96 1724.19,-425.83 1742.32,-416.38"/>
<polygon fill="#64748b" stroke="#64748b" points="1743.45,-418.56 1748.47,-413.11 1741.14,-414.24 1743.45,-418.56"/>
</g>
<!-- n49&#45;&gt;n48 -->
<g id="edge94" class="edge">
<title>n49&#45;&gt;n48</title>
<path fill="none" stroke="#64748b" d="M1079,-448.78C1098.1,-439 1122.09,-426.71 1142.32,-416.35"/>
<polygon fill="#64748b" stroke="#64748b" points="1143.41,-418.55 1148.52,-413.17 1141.17,-414.19 1143.41,-418.55"/>
</g>
<!-- n7 -->
<g id="node40" class="node">
<title>n7</title>
<g id="a_node40"><a xlink:href="vscode://vscode-remote/wsl+Ubuntu/tmp/statlib-main-refresh.tmBBiR/Statlib/StatFoundation/RandomVariable/SubGaussian/subgaussian_fourth_moment_le.lean:8" xlink:title="lemma · Statlib/StatFoundation/RandomVariable/SubGaussian/subgaussian_fourth_moment_le.lean:8" target="_blank">
<path fill="#eef2f6" stroke="#94a3b8" d="M2145.05,-412C2145.05,-412 2032.95,-412 2032.95,-412 2026.95,-412 2020.95,-406 2020.95,-400 2020.95,-400 2020.95,-388 2020.95,-388 2020.95,-382 2026.95,-376 2032.95,-376 2032.95,-376 2145.05,-376 2145.05,-376 2151.05,-376 2157.05,-382 2157.05,-388 2157.05,-388 2157.05,-400 2157.05,-400 2157.05,-406 2151.05,-412 2145.05,-412"/>
<text xml:space="preserve" text-anchor="middle" x="2089" y="-391" font-family="Helvetica,sans-Serif" font-size="10.00">cosh_ge_one_add_half_sq</text>
</a>
</g>
</g>
<!-- n49&#45;&gt;n7 -->
<g id="edge71" class="edge">
<title>n49&#45;&gt;n7</title>
<path fill="none" stroke="#64748b" d="M1098.89,-466.35C1288.98,-466.67 1921.53,-465.86 2009,-441.2 2026.91,-436.15 2045.02,-426.19 2059.46,-416.81"/>
<polygon fill="#64748b" stroke="#64748b" points="2060.53,-419.04 2064.99,-413.11 2057.81,-414.97 2060.53,-419.04"/>
</g>
<!-- n8 -->
<g id="node41" class="node">
<title>n8</title>
<g id="a_node41"><a xlink:href="vscode://vscode-remote/wsl+Ubuntu/tmp/statlib-main-refresh.tmBBiR/Statlib/StatFoundation/RandomVariable/SubGaussian/subgaussian_variance_le.lean:8" xlink:title="theorem · Statlib/StatFoundation/RandomVariable/SubGaussian/subgaussian_variance_le.lean:8" target="_blank">
<path fill="#ffe6a3" stroke="#d4a017" d="M2291.43,-412C2291.43,-412 2186.57,-412 2186.57,-412 2180.57,-412 2174.57,-406 2174.57,-400 2174.57,-400 2174.57,-388 2174.57,-388 2174.57,-382 2180.57,-376 2186.57,-376 2186.57,-376 2291.43,-376 2291.43,-376 2297.43,-376 2303.43,-382 2303.43,-388 2303.43,-388 2303.43,-400 2303.43,-400 2303.43,-406 2297.43,-412 2291.43,-412"/>
<text xml:space="preserve" text-anchor="middle" x="2239" y="-391" font-family="Helvetica,sans-Serif" font-size="10.00">subgaussian_variance_le</text>
</a>
</g>
</g>
<!-- n49&#45;&gt;n8 -->
<g id="edge72" class="edge">
<title>n49&#45;&gt;n8</title>
<path fill="none" stroke="#64748b" d="M1098.88,-465.8C1315.59,-464.09 2114.49,-456.75 2166,-441.2 2182.51,-436.22 2198.91,-426.39 2211.97,-417.08"/>
<polygon fill="#64748b" stroke="#64748b" points="2213.08,-419.31 2217.26,-413.18 2210.17,-415.36 2213.08,-419.31"/>
</g>
<!-- n10 -->
<g id="node42" class="node">
<title>n10</title>
<g id="a_node42"><a xlink:href="vscode://vscode-remote/wsl+Ubuntu/tmp/statlib-main-refresh.tmBBiR/Statlib/StatFoundation/Vocabulary/RandomVariable.lean:74" xlink:title="structure · Statlib/StatFoundation/Vocabulary/RandomVariable.lean:74" target="_blank">
<path fill="#e8dcff" stroke="#8b5cf6" d="M2705.47,-340C2705.47,-340 2604.53,-340 2604.53,-340 2598.53,-340 2592.53,-334 2592.53,-328 2592.53,-328 2592.53,-316 2592.53,-316 2592.53,-310 2598.53,-304 2604.53,-304 2604.53,-304 2705.47,-304 2705.47,-304 2711.47,-304 2717.47,-310 2717.47,-316 2717.47,-316 2717.47,-328 2717.47,-328 2717.47,-334 2711.47,-340 2705.47,-340"/>
<text xml:space="preserve" text-anchor="middle" x="2655" y="-319" font-family="Helvetica,sans-Serif" font-size="10.00">HasSubexponentialMGF</text>
</a>
</g>
</g>
<!-- n49&#45;&gt;n10 -->
<g id="edge74" class="edge">
<title>n49&#45;&gt;n10</title>
<path fill="none" stroke="#64748b" d="M1098.87,-465.93C1388.89,-464.4 2752,-456.42 2767,-441.2 2787.34,-420.56 2782.5,-400.48 2767,-376 2757.27,-360.63 2741.75,-349.63 2725.33,-341.8"/>
<polygon fill="#64748b" stroke="#64748b" points="2726.51,-339.64 2719.12,-339.03 2724.51,-344.12 2726.51,-339.64"/>
</g>
<!-- n18 -->
<g id="node50" class="node">
<title>n18</title>
<g id="a_node50"><a xlink:href="vscode://vscode-remote/wsl+Ubuntu/tmp/statlib-main-refresh.tmBBiR/Statlib/StatFoundation/RandomVariable/SubExponential/scalar_sq_centered_subexponential_explicit.lean:16" xlink:title="lemma · Statlib/StatFoundation/RandomVariable/SubExponential/scalar_sq_centered_subexponential_explicit.lean:16" target="_blank">
<path fill="#eef2f6" stroke="#94a3b8" d="M2522.12,-412C2522.12,-412 2333.88,-412 2333.88,-412 2327.88,-412 2321.88,-406 2321.88,-400 2321.88,-400 2321.88,-388 2321.88,-388 2321.88,-382 2327.88,-376 2333.88,-376 2333.88,-376 2522.12,-376 2522.12,-376 2528.12,-376 2534.12,-382 2534.12,-388 2534.12,-388 2534.12,-400 2534.12,-400 2534.12,-406 2528.12,-412 2522.12,-412"/>
<text xml:space="preserve" text-anchor="middle" x="2428" y="-391" font-family="Helvetica,sans-Serif" font-size="10.00">scalar_sq_centered_subexponential_explicit</text>
</a>
</g>
</g>
<!-- n49&#45;&gt;n18 -->
<g id="edge75" class="edge">
<title>n49&#45;&gt;n18</title>
<path fill="none" stroke="#64748b" d="M1099.01,-466.27C1325.46,-466.43 2192.18,-465.41 2312,-441.2 2337.45,-436.06 2364.48,-425.61 2386.04,-415.95"/>
<polygon fill="#64748b" stroke="#64748b" points="2387,-418.21 2392.35,-413.07 2384.96,-413.75 2387,-418.21"/>
</g>
<!-- n19 -->
<g id="node51" class="node">
<title>n19</title>
<g id="a_node51"><a xlink:href="vscode://vscode-remote/wsl+Ubuntu/tmp/statlib-main-refresh.tmBBiR/Statlib/StatFoundation/Concentration/ExponentialType/bernstein_sum_meas_abs_ge_le_two_exp.lean:13" xlink:title="theorem · Statlib/StatFoundation/Concentration/ExponentialType/bernstein_sum_meas_abs_ge_le_two_exp.lean:13" target="_blank">
<path fill="#ffe6a3" stroke="#d4a017" d="M2746.06,-412C2746.06,-412 2563.94,-412 2563.94,-412 2557.94,-412 2551.94,-406 2551.94,-400 2551.94,-400 2551.94,-388 2551.94,-388 2551.94,-382 2557.94,-376 2563.94,-376 2563.94,-376 2746.06,-376 2746.06,-376 2752.06,-376 2758.06,-382 2758.06,-388 2758.06,-388 2758.06,-400 2758.06,-400 2758.06,-406 2752.06,-412 2746.06,-412"/>
<text xml:space="preserve" text-anchor="middle" x="2655" y="-391" font-family="Helvetica,sans-Serif" font-size="10.00">bernstein_sum_meas_abs_ge_le_two_exp</text>
</a>
</g>
</g>
<!-- n49&#45;&gt;n19 -->
<g id="edge76" class="edge">
<title>n49&#45;&gt;n19</title>
<path fill="none" stroke="#64748b" d="M1098.93,-465.86C1358.66,-464.17 2471.04,-456.08 2543,-441.2 2567.77,-436.08 2593.97,-425.58 2614.81,-415.88"/>
<polygon fill="#64748b" stroke="#64748b" points="2615.59,-418.22 2620.86,-413 2613.48,-413.79 2615.59,-418.22"/>
</g>
<!-- n50 -->
<g id="node39" class="node">
<title>n50</title>
<g id="a_node39"><a xlink:href="vscode://vscode-remote/wsl+Ubuntu/tmp/statlib-main-refresh.tmBBiR/Statlib/HighDim/Geometry/RIPConstruction.lean:1595" xlink:title="theorem · Statlib/HighDim/Geometry/RIPConstruction.lean:1595" target="_blank">
<path fill="#ffe6a3" stroke="#d4a017" stroke-width="3" d="M975.71,-557.2C975.71,-557.2 820.29,-557.2 820.29,-557.2 814.29,-557.2 808.29,-551.2 808.29,-545.2 808.29,-545.2 808.29,-533.2 808.29,-533.2 808.29,-527.2 814.29,-521.2 820.29,-521.2 820.29,-521.2 975.71,-521.2 975.71,-521.2 981.71,-521.2 987.71,-527.2 987.71,-533.2 987.71,-533.2 987.71,-545.2 987.71,-545.2 987.71,-551.2 981.71,-557.2 975.71,-557.2"/>
<text xml:space="preserve" text-anchor="middle" x="898" y="-536.2" font-family="Helvetica,sans-Serif" font-size="10.00">subgaussian_rip_sample_complexity</text>
</a>
</g>
</g>
<!-- n50&#45;&gt;n1 -->
<g id="edge95" class="edge">
<title>n50&#45;&gt;n1</title>
<path fill="none" stroke="#64748b" d="M807.03,-523.55C689.45,-504.88 478.28,-472.28 297,-449.2 263.75,-444.97 252.15,-455.85 222,-441.2 211.41,-436.05 201.92,-427.33 194.42,-418.85"/>
<polygon fill="#64748b" stroke="#64748b" points="196.43,-417.43 190.06,-413.63 192.67,-420.57 196.43,-417.43"/>
</g>
<!-- n50&#45;&gt;n2 -->
<g id="edge96" class="edge">
<title>n50&#45;&gt;n2</title>
<path fill="none" stroke="#64748b" d="M806.96,-535.28C688.64,-530.32 475.99,-517.43 297,-485.2 224.42,-472.13 203.63,-472.82 137,-441.2 123.74,-434.91 110.32,-425.91 99.14,-417.52"/>
<polygon fill="#64748b" stroke="#64748b" points="100.73,-415.65 93.69,-413.32 97.75,-419.53 100.73,-415.65"/>
</g>
<!-- n50&#45;&gt;n5 -->
<g id="edge97" class="edge">
<title>n50&#45;&gt;n5</title>
<path fill="none" stroke="#64748b" d="M989.06,-537C1206.34,-532.93 1749.26,-515.43 1913,-441.2 1924.48,-435.99 1934.99,-426.98 1943.3,-418.28"/>
<polygon fill="#64748b" stroke="#64748b" points="1945.03,-420.02 1947.93,-413.19 1941.4,-416.72 1945.03,-420.02"/>
</g>
<!-- n50&#45;&gt;n49 -->
<g id="edge98" class="edge">
<title>n50&#45;&gt;n49</title>
<path fill="none" stroke="#64748b" d="M936.62,-519.81C956.31,-510.43 980.34,-498.99 1000.77,-489.26"/>
<polygon fill="#64748b" stroke="#64748b" points="1001.77,-491.5 1007.04,-486.28 999.67,-487.07 1001.77,-491.5"/>
</g>
<!-- n11 -->
<g id="node43" class="node">
<title>n11</title>
<g id="a_node43"><a xlink:href="vscode://vscode-remote/wsl+Ubuntu/tmp/statlib-main-refresh.tmBBiR/Statlib/StatFoundation/RandomVariable/SubGaussian/subgaussian_meas_abs_ge_le_two_exp.lean:9" xlink:title="theorem · Statlib/StatFoundation/RandomVariable/SubGaussian/subgaussian_meas_abs_ge_le_two_exp.lean:9" target="_blank">
<path fill="#ffe6a3" stroke="#d4a017" d="M2397.34,-196C2397.34,-196 2224.66,-196 2224.66,-196 2218.66,-196 2212.66,-190 2212.66,-184 2212.66,-184 2212.66,-172 2212.66,-172 2212.66,-166 2218.66,-160 2224.66,-160 2224.66,-160 2397.34,-160 2397.34,-160 2403.34,-160 2409.34,-166 2409.34,-172 2409.34,-172 2409.34,-184 2409.34,-184 2409.34,-190 2403.34,-196 2397.34,-196"/>
<text xml:space="preserve" text-anchor="middle" x="2311" y="-175" font-family="Helvetica,sans-Serif" font-size="10.00">subgaussian_meas_abs_ge_le_two_exp</text>
</a>
</g>
</g>
<!-- n12 -->
<g id="node44" class="node">
<title>n12</title>
<g id="a_node44"><a xlink:href="vscode://vscode-remote/wsl+Ubuntu/tmp/statlib-main-refresh.tmBBiR/Statlib/StatFoundation/RandomVariable/SubGaussian/subgaussian_exp_sq_le_at_one_third.lean:165" xlink:title="theorem · Statlib/StatFoundation/RandomVariable/SubGaussian/subgaussian_exp_sq_le_at_one_third.lean:165" target="_blank">
<path fill="#ffe6a3" stroke="#d4a017" d="M2299.3,-268C2299.3,-268 2102.7,-268 2102.7,-268 2096.7,-268 2090.7,-262 2090.7,-256 2090.7,-256 2090.7,-244 2090.7,-244 2090.7,-238 2096.7,-232 2102.7,-232 2102.7,-232 2299.3,-232 2299.3,-232 2305.3,-232 2311.3,-238 2311.3,-244 2311.3,-244 2311.3,-256 2311.3,-256 2311.3,-262 2305.3,-268 2299.3,-268"/>
<text xml:space="preserve" text-anchor="middle" x="2201" y="-247" font-family="Helvetica,sans-Serif" font-size="10.00">subgaussian_integrable_exp_sq_at_one_third</text>
</a>
</g>
</g>
<!-- n12&#45;&gt;n11 -->
<g id="edge5" class="edge">
<title>n12&#45;&gt;n11</title>
<path fill="none" stroke="#64748b" d="M2228.47,-231.52C2243.15,-222.18 2261.36,-210.59 2276.93,-200.68"/>
<polygon fill="#64748b" stroke="#64748b" points="2278.01,-202.9 2282.6,-197.07 2275.38,-198.76 2278.01,-202.9"/>
</g>
<!-- n13 -->
<g id="node45" class="node">
<title>n13</title>
<g id="a_node45"><a xlink:href="vscode://vscode-remote/wsl+Ubuntu/tmp/statlib-main-refresh.tmBBiR/Statlib/StatFoundation/RandomVariable/SubExponential/scalar_sq_centered_exp_integrable.lean:12" xlink:title="lemma · Statlib/StatFoundation/RandomVariable/SubExponential/scalar_sq_centered_exp_integrable.lean:12" target="_blank">
<path fill="#eef2f6" stroke="#94a3b8" d="M2284.22,-340C2284.22,-340 2133.78,-340 2133.78,-340 2127.78,-340 2121.78,-334 2121.78,-328 2121.78,-328 2121.78,-316 2121.78,-316 2121.78,-310 2127.78,-304 2133.78,-304 2133.78,-304 2284.22,-304 2284.22,-304 2290.22,-304 2296.22,-310 2296.22,-316 2296.22,-316 2296.22,-328 2296.22,-328 2296.22,-334 2290.22,-340 2284.22,-340"/>
<text xml:space="preserve" text-anchor="middle" x="2209" y="-319" font-family="Helvetica,sans-Serif" font-size="10.00">scalar_sq_centered_exp_integrable</text>
</a>
</g>
</g>
<!-- n13&#45;&gt;n12 -->
<g id="edge6" class="edge">
<title>n13&#45;&gt;n12</title>
<path fill="none" stroke="#64748b" d="M2207.02,-303.7C2206.08,-295.47 2204.94,-285.48 2203.91,-276.42"/>
<polygon fill="#64748b" stroke="#64748b" points="2206.36,-276.28 2203.13,-269.61 2201.49,-276.84 2206.36,-276.28"/>
</g>
<!-- n14 -->
<g id="node46" class="node">
<title>n14</title>
<g id="a_node46"><a xlink:href="vscode://vscode-remote/wsl+Ubuntu/tmp/statlib-main-refresh.tmBBiR/Statlib/StatFoundation/RandomVariable/SubExponential/subexp_mgf_le_of_sq_subgaussian.lean:13" xlink:title="lemma · Statlib/StatFoundation/RandomVariable/SubExponential/subexp_mgf_le_of_sq_subgaussian.lean:13" target="_blank">
<path fill="#eef2f6" stroke="#94a3b8" d="M2624.2,-268C2624.2,-268 2543.8,-268 2543.8,-268 2537.8,-268 2531.8,-262 2531.8,-256 2531.8,-256 2531.8,-244 2531.8,-244 2531.8,-238 2537.8,-232 2543.8,-232 2543.8,-232 2624.2,-232 2624.2,-232 2630.2,-232 2636.2,-238 2636.2,-244 2636.2,-244 2636.2,-256 2636.2,-256 2636.2,-262 2630.2,-268 2624.2,-268"/>
<text xml:space="preserve" text-anchor="middle" x="2584" y="-247" font-family="Helvetica,sans-Serif" font-size="10.00">sub_gauss_tail_abs</text>
</a>
</g>
</g>
<!-- n15 -->
<g id="node47" class="node">
<title>n15</title>
<g id="a_node47"><a xlink:href="vscode://vscode-remote/wsl+Ubuntu/tmp/statlib-main-refresh.tmBBiR/Statlib/StatFoundation/RandomVariable/SubGaussian/sq_le_two_mul_exp.lean:10" xlink:title="lemma · Statlib/StatFoundation/RandomVariable/SubGaussian/sq_le_two_mul_exp.lean:10" target="_blank">
<path fill="#eef2f6" stroke="#94a3b8" d="M2746.19,-268C2746.19,-268 2665.81,-268 2665.81,-268 2659.81,-268 2653.81,-262 2653.81,-256 2653.81,-256 2653.81,-244 2653.81,-244 2653.81,-238 2659.81,-232 2665.81,-232 2665.81,-232 2746.19,-232 2746.19,-232 2752.19,-232 2758.19,-238 2758.19,-244 2758.19,-244 2758.19,-256 2758.19,-256 2758.19,-262 2752.19,-268 2746.19,-268"/>
<text xml:space="preserve" text-anchor="middle" x="2706" y="-247" font-family="Helvetica,sans-Serif" font-size="10.00">sq_le_two_mul_exp</text>
</a>
</g>
</g>
<!-- n16 -->
<g id="node48" class="node">
<title>n16</title>
<g id="a_node48"><a xlink:href="vscode://vscode-remote/wsl+Ubuntu/tmp/statlib-main-refresh.tmBBiR/Statlib/StatFoundation/RandomVariable/SubGaussian/subgaussian_exp_sq_le_at_one_third.lean:14" xlink:title="theorem · Statlib/StatFoundation/RandomVariable/SubGaussian/subgaussian_exp_sq_le_at_one_third.lean:14" target="_blank">
<path fill="#ffe6a3" stroke="#d4a017" d="M2502.23,-268C2502.23,-268 2341.77,-268 2341.77,-268 2335.77,-268 2329.77,-262 2329.77,-256 2329.77,-256 2329.77,-244 2329.77,-244 2329.77,-238 2335.77,-232 2341.77,-232 2341.77,-232 2502.23,-232 2502.23,-232 2508.23,-232 2514.23,-238 2514.23,-244 2514.23,-244 2514.23,-256 2514.23,-256 2514.23,-262 2508.23,-268 2502.23,-268"/>
<text xml:space="preserve" text-anchor="middle" x="2422" y="-247" font-family="Helvetica,sans-Serif" font-size="10.00">subgaussian_exp_sq_le_at_one_third</text>
</a>
</g>
</g>
<!-- n16&#45;&gt;n11 -->
<g id="edge7" class="edge">
<title>n16&#45;&gt;n11</title>
<path fill="none" stroke="#64748b" d="M2394.28,-231.52C2379.46,-222.18 2361.1,-210.59 2345.38,-200.68"/>
<polygon fill="#64748b" stroke="#64748b" points="2346.88,-198.73 2339.65,-197.07 2344.26,-202.87 2346.88,-198.73"/>
</g>
<!-- n17 -->
<g id="node49" class="node">
<title>n17</title>
<g id="a_node49"><a xlink:href="vscode://vscode-remote/wsl+Ubuntu/tmp/statlib-main-refresh.tmBBiR/Statlib/StatFoundation/RandomVariable/SubExponential/subexp_mgf_le_of_sq_subgaussian.lean:72" xlink:title="theorem · Statlib/StatFoundation/RandomVariable/SubExponential/subexp_mgf_le_of_sq_subgaussian.lean:72" target="_blank">
<path fill="#ffe6a3" stroke="#d4a017" d="M2521.84,-340C2521.84,-340 2334.16,-340 2334.16,-340 2328.16,-340 2322.16,-334 2322.16,-328 2322.16,-328 2322.16,-316 2322.16,-316 2322.16,-310 2328.16,-304 2334.16,-304 2334.16,-304 2521.84,-304 2521.84,-304 2527.84,-304 2533.84,-310 2533.84,-316 2533.84,-316 2533.84,-328 2533.84,-328 2533.84,-334 2527.84,-340 2521.84,-340"/>
<text xml:space="preserve" text-anchor="middle" x="2428" y="-319" font-family="Helvetica,sans-Serif" font-size="10.00">subexp_mgf_le_of_sq_subgaussian_explicit</text>
</a>
</g>
</g>
<!-- n17&#45;&gt;n12 -->
<g id="edge11" class="edge">
<title>n17&#45;&gt;n12</title>
<path fill="none" stroke="#64748b" d="M2371.3,-303.52C2339.09,-293.58 2298.64,-281.11 2265.25,-270.81"/>
<polygon fill="#64748b" stroke="#64748b" points="2266.22,-268.55 2258.81,-268.83 2264.78,-273.23 2266.22,-268.55"/>
</g>
<!-- n17&#45;&gt;n14 -->
<g id="edge8" class="edge">
<title>n17&#45;&gt;n14</title>
<path fill="none" stroke="#64748b" d="M2466.96,-303.52C2488.36,-293.92 2515.03,-281.95 2537.5,-271.86"/>
<polygon fill="#64748b" stroke="#64748b" points="2538.5,-274.1 2543.88,-269 2536.49,-269.63 2538.5,-274.1"/>
</g>
<!-- n17&#45;&gt;n15 -->
<g id="edge9" class="edge">
<title>n17&#45;&gt;n15</title>
<path fill="none" stroke="#64748b" d="M2501.97,-303.56C2543.99,-293.49 2597.54,-280.41 2645,-268 2645.09,-267.98 2645.17,-267.95 2645.26,-267.93"/>
<polygon fill="#64748b" stroke="#64748b" points="2645.86,-270.31 2651.99,-266.15 2644.6,-265.57 2645.86,-270.31"/>
</g>
<!-- n17&#45;&gt;n16 -->
<g id="edge10" class="edge">
<title>n17&#45;&gt;n16</title>
<path fill="none" stroke="#64748b" d="M2426.52,-303.7C2425.81,-295.47 2424.96,-285.48 2424.18,-276.42"/>
<polygon fill="#64748b" stroke="#64748b" points="2426.63,-276.38 2423.6,-269.61 2421.75,-276.8 2426.63,-276.38"/>
</g>
<!-- n18&#45;&gt;n10 -->
<g id="edge12" class="edge">
<title>n18&#45;&gt;n10</title>
<path fill="none" stroke="#64748b" d="M2484.7,-375.52C2516.91,-365.58 2557.36,-353.11 2590.75,-342.81"/>
<polygon fill="#64748b" stroke="#64748b" points="2591.22,-345.23 2597.19,-340.83 2589.78,-340.55 2591.22,-345.23"/>
</g>
<!-- n18&#45;&gt;n13 -->
<g id="edge13" class="edge">
<title>n18&#45;&gt;n13</title>
<path fill="none" stroke="#64748b" d="M2373.3,-375.52C2342.35,-365.62 2303.53,-353.22 2271.4,-342.94"/>
<polygon fill="#64748b" stroke="#64748b" points="2272.24,-340.64 2264.82,-340.84 2270.74,-345.31 2272.24,-340.64"/>
</g>
<!-- n18&#45;&gt;n17 -->
<g id="edge14" class="edge">
<title>n18&#45;&gt;n17</title>
<path fill="none" stroke="#64748b" d="M2428,-375.7C2428,-367.47 2428,-357.48 2428,-348.42"/>
<polygon fill="#64748b" stroke="#64748b" points="2430.45,-348.62 2428,-341.62 2425.55,-348.62 2430.45,-348.62"/>
</g>
<!-- n19&#45;&gt;n10 -->
<g id="edge15" class="edge">
<title>n19&#45;&gt;n10</title>
<path fill="none" stroke="#64748b" d="M2655,-375.7C2655,-367.47 2655,-357.48 2655,-348.42"/>
<polygon fill="#64748b" stroke="#64748b" points="2657.45,-348.62 2655,-341.62 2652.55,-348.62 2657.45,-348.62"/>
</g>
</g>
</svg>
