<?xml version="1.0" encoding="UTF-8" standalone="no"?>
<!DOCTYPE svg PUBLIC "-//W3C//DTD SVG 1.1//EN"
 "http://www.w3.org/Graphics/SVG/1.1/DTD/svg11.dtd">
<!-- Generated by graphviz version 15.0.0 (20260523.1842)
 -->
<!-- Title: subgaussian_rip_sample_complexity Pages: 1 -->
<svg width="3256pt" height="627pt"
 viewBox="0.00 0.00 3256.00 627.00" xmlns="http://www.w3.org/2000/svg" xmlns:xlink="http://www.w3.org/1999/xlink">
<g id="graph0" class="graph" transform="scale(1 1) rotate(0) translate(4 623.2)">
<title>subgaussian_rip_sample_complexity</title>
<polygon fill="white" stroke="none" points="-4,4 -4,-623.2 3252,-623.2 3252,4 -4,4"/>
<text xml:space="preserve" text-anchor="middle" x="1624" y="-602.6" font-family="Helvetica,sans-Serif" font-size="14.00">Proof narrative — subgaussian_rip_sample_complexity &#160;(52 decls)</text>
<g id="clust1" class="cluster">
<title>cluster_0</title>
<path fill="none" stroke="#cbd5e1" stroke-dasharray="5,2" d="M20,-8C20,-8 2394,-8 2394,-8 2400,-8 2406,-14 2406,-20 2406,-20 2406,-574.4 2406,-574.4 2406,-580.4 2400,-586.4 2394,-586.4 2394,-586.4 20,-586.4 20,-586.4 14,-586.4 8,-580.4 8,-574.4 8,-574.4 8,-20 8,-20 8,-14 14,-8 20,-8"/>
<text xml:space="preserve" text-anchor="middle" x="1207" y="-572.5" font-family="Helvetica,sans-Serif" font-size="11.00">HighDim</text>
</g>
<g id="clust2" class="cluster">
<title>cluster_1</title>
<path fill="none" stroke="#cbd5e1" stroke-dasharray="5,2" d="M2426,-152C2426,-152 3228,-152 3228,-152 3234,-152 3240,-158 3240,-164 3240,-164 3240,-357.2 3240,-357.2 3240,-363.2 3234,-369.2 3228,-369.2 3228,-369.2 2426,-369.2 2426,-369.2 2420,-369.2 2414,-363.2 2414,-357.2 2414,-357.2 2414,-164 2414,-164 2414,-158 2420,-152 2426,-152"/>
<text xml:space="preserve" text-anchor="middle" x="2827" y="-355.3" font-family="Helvetica,sans-Serif" font-size="11.00">StatFoundation</text>
</g>
<!-- n0 -->
<g id="node1" class="node">
<title>n0</title>
<g id="a_node1"><a xlink:href="vscode://vscode-remote/wsl+Ubuntu/home/ai4stat/statlib/Statlib/HighDim/Vocabulary/RandomVector.lean:101" xlink:title="structure · Statlib/HighDim/Vocabulary/RandomVector.lean:101" target="_blank">
<path fill="#e8dcff" stroke="#8b5cf6" d="M215.79,-340C215.79,-340 128.21,-340 128.21,-340 122.21,-340 116.21,-334 116.21,-328 116.21,-328 116.21,-316 116.21,-316 116.21,-310 122.21,-304 128.21,-304 128.21,-304 215.79,-304 215.79,-304 221.79,-304 227.79,-310 227.79,-316 227.79,-316 227.79,-328 227.79,-328 227.79,-334 221.79,-340 215.79,-340"/>
<text xml:space="preserve" text-anchor="middle" x="172" y="-319" font-family="Helvetica,sans-Serif" font-size="10.00">HasCovarianceMatrix</text>
</a>
</g>
</g>
<!-- n1 -->
<g id="node2" class="node">
<title>n1</title>
<g id="a_node2"><a xlink:href="vscode://vscode-remote/wsl+Ubuntu/home/ai4stat/statlib/Statlib/HighDim/Vocabulary/RandomVector.lean:109" xlink:title="def · Statlib/HighDim/Vocabulary/RandomVector.lean:109" target="_blank">
<path fill="#d6e9ff" stroke="#3b82f6" d="M195.79,-413.2C195.79,-413.2 158.21,-413.2 158.21,-413.2 152.21,-413.2 146.21,-407.2 146.21,-401.2 146.21,-401.2 146.21,-389.2 146.21,-389.2 146.21,-383.2 152.21,-377.2 158.21,-377.2 158.21,-377.2 195.79,-377.2 195.79,-377.2 201.79,-377.2 207.79,-383.2 207.79,-389.2 207.79,-389.2 207.79,-401.2 207.79,-401.2 207.79,-407.2 201.79,-413.2 195.79,-413.2"/>
<text xml:space="preserve" text-anchor="middle" x="177" y="-392.2" font-family="Helvetica,sans-Serif" font-size="10.00">IsIsotropic</text>
</a>
</g>
</g>
<!-- n1&#45;&gt;n0 -->
<g id="edge1" class="edge">
<title>n1&#45;&gt;n0</title>
<path fill="none" stroke="#64748b" d="M175.79,-376.96C175.19,-368.39 174.45,-357.87 173.78,-348.39"/>
<polygon fill="#64748b" stroke="#64748b" points="176.24,-348.4 173.31,-341.59 171.35,-348.74 176.24,-348.4"/>
</g>
<!-- n2 -->
<g id="node3" class="node">
<title>n2</title>
<g id="a_node3"><a xlink:href="vscode://vscode-remote/wsl+Ubuntu/home/ai4stat/statlib/Statlib/HighDim/Vocabulary/RandomVector.lean:52" xlink:title="structure · Statlib/HighDim/Vocabulary/RandomVector.lean:52" target="_blank">
<path fill="#e8dcff" stroke="#8b5cf6" d="M116.36,-413.2C116.36,-413.2 27.64,-413.2 27.64,-413.2 21.64,-413.2 15.64,-407.2 15.64,-401.2 15.64,-401.2 15.64,-389.2 15.64,-389.2 15.64,-383.2 21.64,-377.2 27.64,-377.2 27.64,-377.2 116.36,-377.2 116.36,-377.2 122.36,-377.2 128.36,-383.2 128.36,-389.2 128.36,-389.2 128.36,-401.2 128.36,-401.2 128.36,-407.2 122.36,-413.2 116.36,-413.2"/>
<text xml:space="preserve" text-anchor="middle" x="72" y="-392.2" font-family="Helvetica,sans-Serif" font-size="10.00">IsSubGaussianVector</text>
</a>
</g>
</g>
<!-- n3 -->
<g id="node4" class="node">
<title>n3</title>
<g id="a_node4"><a xlink:href="vscode://vscode-remote/wsl+Ubuntu/home/ai4stat/statlib/Statlib/HighDim/Vocabulary/Sparse.lean:36" xlink:title="def · Statlib/HighDim/Vocabulary/Sparse.lean:36" target="_blank">
<path fill="#d6e9ff" stroke="#3b82f6" d="M549.73,-340C549.73,-340 518.27,-340 518.27,-340 512.27,-340 506.27,-334 506.27,-328 506.27,-328 506.27,-316 506.27,-316 506.27,-310 512.27,-304 518.27,-304 518.27,-304 549.73,-304 549.73,-304 555.73,-304 561.73,-310 561.73,-316 561.73,-316 561.73,-328 561.73,-328 561.73,-334 555.73,-340 549.73,-340"/>
<text xml:space="preserve" text-anchor="middle" x="534" y="-319" font-family="Helvetica,sans-Serif" font-size="10.00">IsSparse</text>
</a>
</g>
</g>
<!-- n4 -->
<g id="node5" class="node">
<title>n4</title>
<g id="a_node5"><a xlink:href="vscode://vscode-remote/wsl+Ubuntu/home/ai4stat/statlib/Statlib/HighDim/Vocabulary/Norms.lean:13" xlink:title="noncomputable def · Statlib/HighDim/Vocabulary/Norms.lean:13" target="_blank">
<path fill="#d6e9ff" stroke="#3b82f6" d="M545.23,-52C545.23,-52 508.77,-52 508.77,-52 502.77,-52 496.77,-46 496.77,-40 496.77,-40 496.77,-28 496.77,-28 496.77,-22 502.77,-16 508.77,-16 508.77,-16 545.23,-16 545.23,-16 551.23,-16 557.23,-22 557.23,-28 557.23,-28 557.23,-40 557.23,-40 557.23,-46 551.23,-52 545.23,-52"/>
<text xml:space="preserve" text-anchor="middle" x="527" y="-31" font-family="Helvetica,sans-Serif" font-size="10.00">l2NormSq</text>
</a>
</g>
</g>
<!-- n5 -->
<g id="node6" class="node">
<title>n5</title>
<g id="a_node6"><a xlink:href="vscode://vscode-remote/wsl+Ubuntu/home/ai4stat/statlib/Statlib/HighDim/Vocabulary/DesignMatrix.lean:62" xlink:title="def · Statlib/HighDim/Vocabulary/DesignMatrix.lean:62" target="_blank">
<path fill="#d6e9ff" stroke="#3b82f6" d="M2156.23,-413.2C2156.23,-413.2 2109.77,-413.2 2109.77,-413.2 2103.77,-413.2 2097.77,-407.2 2097.77,-401.2 2097.77,-401.2 2097.77,-389.2 2097.77,-389.2 2097.77,-383.2 2103.77,-377.2 2109.77,-377.2 2109.77,-377.2 2156.23,-377.2 2156.23,-377.2 2162.23,-377.2 2168.23,-383.2 2168.23,-389.2 2168.23,-389.2 2168.23,-401.2 2168.23,-401.2 2168.23,-407.2 2162.23,-413.2 2156.23,-413.2"/>
<text xml:space="preserve" text-anchor="middle" x="2133" y="-392.2" font-family="Helvetica,sans-Serif" font-size="10.00">SatisfiesRIP</text>
</a>
</g>
</g>
<!-- n5&#45;&gt;n3 -->
<g id="edge2" class="edge">
<title>n5&#45;&gt;n3</title>
<path fill="none" stroke="#64748b" d="M2097.44,-383.04C2088.27,-380.64 2078.34,-378.45 2069,-377.2 1992.01,-366.93 747.61,-381.99 671,-369.2 635.62,-363.29 597.05,-349.58 569.88,-338.63"/>
<polygon fill="#64748b" stroke="#64748b" points="570.99,-336.43 563.58,-336.05 569.13,-340.97 570.99,-336.43"/>
</g>
<!-- n5&#45;&gt;n4 -->
<g id="edge3" class="edge">
<title>n5&#45;&gt;n4</title>
<path fill="none" stroke="#64748b" d="M2168.51,-380.14C2179.06,-375.67 2188.29,-371.33 2190,-369.2 2209.61,-344.77 2231.8,-110.49 2210,-88 2180.42,-57.48 815.01,-38.66 565.82,-35.48"/>
<polygon fill="#64748b" stroke="#64748b" points="565.97,-33.03 558.94,-35.39 565.91,-37.93 565.97,-33.03"/>
</g>
<!-- n6 -->
<g id="node7" class="node">
<title>n6</title>
<g id="a_node7"><a xlink:href="vscode://vscode-remote/wsl+Ubuntu/home/ai4stat/statlib/Statlib/HighDim/Vocabulary/Norms.lean:32" xlink:title="lemma · Statlib/HighDim/Vocabulary/Norms.lean:32" target="_blank">
<path fill="#eef2f6" stroke="#94a3b8" d="M1437.69,-196C1437.69,-196 1382.31,-196 1382.31,-196 1376.31,-196 1370.31,-190 1370.31,-184 1370.31,-184 1370.31,-172 1370.31,-172 1370.31,-166 1376.31,-160 1382.31,-160 1382.31,-160 1437.69,-160 1437.69,-160 1443.69,-160 1449.69,-166 1449.69,-172 1449.69,-172 1449.69,-184 1449.69,-184 1449.69,-190 1443.69,-196 1437.69,-196"/>
<text xml:space="preserve" text-anchor="middle" x="1410" y="-175" font-family="Helvetica,sans-Serif" font-size="10.00">inner_eq_sum</text>
</a>
</g>
</g>
<!-- n9 -->
<g id="node8" class="node">
<title>n9</title>
<g id="a_node8"><a xlink:href="vscode://vscode-remote/wsl+Ubuntu/home/ai4stat/statlib/Statlib/HighDim/Vocabulary/Norms.lean:21" xlink:title="lemma · Statlib/HighDim/Vocabulary/Norms.lean:21" target="_blank">
<path fill="#eef2f6" stroke="#94a3b8" d="M457.64,-124C457.64,-124 378.36,-124 378.36,-124 372.36,-124 366.36,-118 366.36,-112 366.36,-112 366.36,-100 366.36,-100 366.36,-94 372.36,-88 378.36,-88 378.36,-88 457.64,-88 457.64,-88 463.64,-88 469.64,-94 469.64,-100 469.64,-100 469.64,-112 469.64,-112 469.64,-118 463.64,-124 457.64,-124"/>
<text xml:space="preserve" text-anchor="middle" x="418" y="-103" font-family="Helvetica,sans-Serif" font-size="10.00">euclidean_norm_sq</text>
</a>
</g>
</g>
<!-- n9&#45;&gt;n4 -->
<g id="edge4" class="edge">
<title>n9&#45;&gt;n4</title>
<path fill="none" stroke="#64748b" d="M445.22,-87.52C459.77,-78.18 477.81,-66.59 493.24,-56.68"/>
<polygon fill="#64748b" stroke="#64748b" points="494.28,-58.92 498.85,-53.08 491.64,-54.8 494.28,-58.92"/>
</g>
<!-- n11 -->
<g id="node9" class="node">
<title>n11</title>
<g id="a_node9"><a xlink:href="vscode://vscode-remote/wsl+Ubuntu/home/ai4stat/statlib/Statlib/HighDim/Geometry/RIPConstruction.lean:46" xlink:title="lemma · Statlib/HighDim/Geometry/RIPConstruction.lean:46" target="_blank">
<path fill="#eef2f6" stroke="#94a3b8" d="M426.11,-413.2C426.11,-413.2 297.89,-413.2 297.89,-413.2 291.89,-413.2 285.89,-407.2 285.89,-401.2 285.89,-401.2 285.89,-389.2 285.89,-389.2 285.89,-383.2 291.89,-377.2 297.89,-377.2 297.89,-377.2 426.11,-377.2 426.11,-377.2 432.11,-377.2 438.11,-383.2 438.11,-389.2 438.11,-389.2 438.11,-401.2 438.11,-401.2 438.11,-407.2 432.11,-413.2 426.11,-413.2"/>
<text xml:space="preserve" text-anchor="middle" x="362" y="-392.2" font-family="Helvetica,sans-Serif" font-size="10.00">subgaussian_integral_eq_zero</text>
</a>
</g>
</g>
<!-- n12 -->
<g id="node10" class="node">
<title>n12</title>
<g id="a_node10"><a xlink:href="vscode://vscode-remote/wsl+Ubuntu/home/ai4stat/statlib/Statlib/HighDim/CovarianceMatrix/SampleCovariance.lean:393" xlink:title="lemma · Statlib/HighDim/CovarianceMatrix/SampleCovariance.lean:393" target="_blank">
<path fill="#eef2f6" stroke="#94a3b8" d="M2386.22,-340C2386.22,-340 2235.78,-340 2235.78,-340 2229.78,-340 2223.78,-334 2223.78,-328 2223.78,-328 2223.78,-316 2223.78,-316 2223.78,-310 2229.78,-304 2235.78,-304 2235.78,-304 2386.22,-304 2386.22,-304 2392.22,-304 2398.22,-310 2398.22,-316 2398.22,-316 2398.22,-328 2398.22,-328 2398.22,-334 2392.22,-340 2386.22,-340"/>
<text xml:space="preserve" text-anchor="middle" x="2311" y="-319" font-family="Helvetica,sans-Serif" font-size="10.00">scalar_sq_centered_exp_integrable</text>
</a>
</g>
</g>
<!-- n19 -->
<g id="node11" class="node">
<title>n19</title>
<g id="a_node11"><a xlink:href="vscode://vscode-remote/wsl+Ubuntu/home/ai4stat/statlib/Statlib/HighDim/CovarianceMatrix/SampleCovariance.lean:451" xlink:title="lemma · Statlib/HighDim/CovarianceMatrix/SampleCovariance.lean:451" target="_blank">
<path fill="#eef2f6" stroke="#94a3b8" d="M2386.12,-413.2C2386.12,-413.2 2197.88,-413.2 2197.88,-413.2 2191.88,-413.2 2185.88,-407.2 2185.88,-401.2 2185.88,-401.2 2185.88,-389.2 2185.88,-389.2 2185.88,-383.2 2191.88,-377.2 2197.88,-377.2 2197.88,-377.2 2386.12,-377.2 2386.12,-377.2 2392.12,-377.2 2398.12,-383.2 2398.12,-389.2 2398.12,-389.2 2398.12,-401.2 2398.12,-401.2 2398.12,-407.2 2392.12,-413.2 2386.12,-413.2"/>
<text xml:space="preserve" text-anchor="middle" x="2292" y="-392.2" font-family="Helvetica,sans-Serif" font-size="10.00">scalar_sq_centered_subexponential_explicit</text>
</a>
</g>
</g>
<!-- n19&#45;&gt;n12 -->
<g id="edge11" class="edge">
<title>n19&#45;&gt;n12</title>
<path fill="none" stroke="#64748b" d="M2296.6,-376.96C2298.91,-368.31 2301.75,-357.65 2304.3,-348.1"/>
<polygon fill="#64748b" stroke="#64748b" points="2306.62,-348.93 2306.05,-341.54 2301.88,-347.67 2306.62,-348.93"/>
</g>
<!-- n18 -->
<g id="node51" class="node">
<title>n18</title>
<g id="a_node51"><a xlink:href="vscode://vscode-remote/wsl+Ubuntu/home/ai4stat/statlib/Statlib/StatFoundation/RandomVariable/SubExponential/subexp_mgf_le_of_sq_subgaussian.lean:72" xlink:title="theorem · Statlib/StatFoundation/RandomVariable/SubExponential/subexp_mgf_le_of_sq_subgaussian.lean:72" target="_blank">
<path fill="#ffe6a3" stroke="#d4a017" d="M2621.84,-340C2621.84,-340 2434.16,-340 2434.16,-340 2428.16,-340 2422.16,-334 2422.16,-328 2422.16,-328 2422.16,-316 2422.16,-316 2422.16,-310 2428.16,-304 2434.16,-304 2434.16,-304 2621.84,-304 2621.84,-304 2627.84,-304 2633.84,-310 2633.84,-316 2633.84,-316 2633.84,-328 2633.84,-328 2633.84,-334 2627.84,-340 2621.84,-340"/>
<text xml:space="preserve" text-anchor="middle" x="2528" y="-319" font-family="Helvetica,sans-Serif" font-size="10.00">subexp_mgf_le_of_sq_subgaussian_explicit</text>
</a>
</g>
</g>
<!-- n19&#45;&gt;n18 -->
<g id="edge12" class="edge">
<title>n19&#45;&gt;n18</title>
<path fill="none" stroke="#64748b" d="M2381.95,-376.76C2391.47,-374.43 2400.97,-371.9 2410,-369.2 2433.65,-362.12 2459.24,-352.37 2480.53,-343.65"/>
<polygon fill="#64748b" stroke="#64748b" points="2481.23,-346.01 2486.76,-341.07 2479.36,-341.48 2481.23,-346.01"/>
</g>
<!-- n21 -->
<g id="node12" class="node">
<title>n21</title>
<g id="a_node12"><a xlink:href="vscode://vscode-remote/wsl+Ubuntu/home/ai4stat/statlib/Statlib/HighDim/Geometry/CoveringNumbers.lean:42" xlink:title="theorem · Statlib/HighDim/Geometry/CoveringNumbers.lean:42" target="_blank">
<path fill="#ffe6a3" stroke="#d4a017" d="M456.38,-340C456.38,-340 317.62,-340 317.62,-340 311.62,-340 305.62,-334 305.62,-328 305.62,-328 305.62,-316 305.62,-316 305.62,-310 311.62,-304 317.62,-304 317.62,-304 456.38,-304 456.38,-304 462.38,-304 468.38,-310 468.38,-316 468.38,-316 468.38,-328 468.38,-328 468.38,-334 462.38,-340 456.38,-340"/>
<text xml:space="preserve" text-anchor="middle" x="387" y="-319" font-family="Helvetica,sans-Serif" font-size="10.00">covering_number_euclidean_ball</text>
</a>
</g>
</g>
<!-- n22 -->
<g id="node13" class="node">
<title>n22</title>
<g id="a_node13"><a xlink:href="vscode://vscode-remote/wsl+Ubuntu/home/ai4stat/statlib/Statlib/HighDim/Vocabulary/Norms.lean:27" xlink:title="lemma · Statlib/HighDim/Vocabulary/Norms.lean:27" target="_blank">
<path fill="#eef2f6" stroke="#94a3b8" d="M492.92,-196C492.92,-196 413.08,-196 413.08,-196 407.08,-196 401.08,-190 401.08,-184 401.08,-184 401.08,-172 401.08,-172 401.08,-166 407.08,-160 413.08,-160 413.08,-160 492.92,-160 492.92,-160 498.92,-160 504.92,-166 504.92,-172 504.92,-172 504.92,-184 504.92,-184 504.92,-190 498.92,-196 492.92,-196"/>
<text xml:space="preserve" text-anchor="middle" x="453" y="-175" font-family="Helvetica,sans-Serif" font-size="10.00">euclidean_norm_eq</text>
</a>
</g>
</g>
<!-- n22&#45;&gt;n4 -->
<g id="edge14" class="edge">
<title>n22&#45;&gt;n4</title>
<path fill="none" stroke="#64748b" d="M462.07,-159.59C475.18,-134.43 499.47,-87.83 514.34,-59.3"/>
<polygon fill="#64748b" stroke="#64748b" points="516.32,-60.79 517.38,-53.45 511.98,-58.53 516.32,-60.79"/>
</g>
<!-- n22&#45;&gt;n9 -->
<g id="edge15" class="edge">
<title>n22&#45;&gt;n9</title>
<path fill="none" stroke="#64748b" d="M444.35,-159.7C440.11,-151.22 434.93,-140.86 430.29,-131.58"/>
<polygon fill="#64748b" stroke="#64748b" points="432.55,-130.62 427.23,-125.46 428.17,-132.81 432.55,-130.62"/>
</g>
<!-- n23 -->
<g id="node14" class="node">
<title>n23</title>
<g id="a_node14"><a xlink:href="vscode://vscode-remote/wsl+Ubuntu/home/ai4stat/statlib/Statlib/HighDim/Geometry/CoveringNumbers.lean:405" xlink:title="theorem · Statlib/HighDim/Geometry/CoveringNumbers.lean:405" target="_blank">
<path fill="#ffe6a3" stroke="#d4a017" d="M593.98,-413.2C593.98,-413.2 468.02,-413.2 468.02,-413.2 462.02,-413.2 456.02,-407.2 456.02,-401.2 456.02,-401.2 456.02,-389.2 456.02,-389.2 456.02,-383.2 462.02,-377.2 468.02,-377.2 468.02,-377.2 593.98,-377.2 593.98,-377.2 599.98,-377.2 605.98,-383.2 605.98,-389.2 605.98,-389.2 605.98,-401.2 605.98,-401.2 605.98,-407.2 599.98,-413.2 593.98,-413.2"/>
<text xml:space="preserve" text-anchor="middle" x="531" y="-392.2" font-family="Helvetica,sans-Serif" font-size="10.00">covering_number_sparse_ball</text>
</a>
</g>
</g>
<!-- n23&#45;&gt;n3 -->
<g id="edge16" class="edge">
<title>n23&#45;&gt;n3</title>
<path fill="none" stroke="#64748b" d="M531.73,-376.96C532.09,-368.39 532.53,-357.87 532.93,-348.39"/>
<polygon fill="#64748b" stroke="#64748b" points="535.37,-348.69 533.22,-341.59 530.47,-348.48 535.37,-348.69"/>
</g>
<!-- n23&#45;&gt;n4 -->
<g id="edge18" class="edge">
<title>n23&#45;&gt;n4</title>
<path fill="none" stroke="#64748b" d="M455.53,-378.38C452.66,-377.95 449.8,-377.56 447,-377.2 430.44,-375.09 308.98,-380.82 297,-369.2 259.15,-332.51 287,-303.72 287,-251 287,-251 287,-251 287,-177 287,-84.61 420.37,-51.05 488.27,-39.96"/>
<polygon fill="#64748b" stroke="#64748b" points="488.57,-42.39 495.11,-38.89 487.81,-37.55 488.57,-42.39"/>
</g>
<!-- n23&#45;&gt;n21 -->
<g id="edge17" class="edge">
<title>n23&#45;&gt;n21</title>
<path fill="none" stroke="#64748b" d="M495.77,-376.78C475.9,-366.96 450.92,-354.6 429.91,-344.21"/>
<polygon fill="#64748b" stroke="#64748b" points="431.08,-342.06 423.72,-341.16 428.91,-346.45 431.08,-342.06"/>
</g>
<!-- n23&#45;&gt;n22 -->
<g id="edge19" class="edge">
<title>n23&#45;&gt;n22</title>
<path fill="none" stroke="#64748b" d="M503.84,-376.88C501.3,-374.52 498.95,-371.95 497,-369.2 479.46,-344.48 494.17,-328.98 477,-304 462.29,-282.61 442.37,-291.34 431,-268 421.06,-247.59 429.02,-222.3 438.03,-203.9"/>
<polygon fill="#64748b" stroke="#64748b" points="440.14,-205.15 441.2,-197.81 435.79,-202.89 440.14,-205.15"/>
</g>
<!-- n24 -->
<g id="node15" class="node">
<title>n24</title>
<g id="a_node15"><a xlink:href="vscode://vscode-remote/wsl+Ubuntu/home/ai4stat/statlib/Statlib/HighDim/Geometry/RIPConstruction.lean:217" xlink:title="lemma · Statlib/HighDim/Geometry/RIPConstruction.lean:217" target="_blank">
<path fill="#eef2f6" stroke="#94a3b8" d="M907.57,-413.2C907.57,-413.2 834.43,-413.2 834.43,-413.2 828.43,-413.2 822.43,-407.2 822.43,-401.2 822.43,-401.2 822.43,-389.2 822.43,-389.2 822.43,-383.2 828.43,-377.2 834.43,-377.2 834.43,-377.2 907.57,-377.2 907.57,-377.2 913.57,-377.2 919.57,-383.2 919.57,-389.2 919.57,-389.2 919.57,-401.2 919.57,-401.2 919.57,-407.2 913.57,-413.2 907.57,-413.2"/>
<text xml:space="preserve" text-anchor="middle" x="871" y="-392.2" font-family="Helvetica,sans-Serif" font-size="10.00">mulVec_smul_vec</text>
</a>
</g>
</g>
<!-- n25 -->
<g id="node16" class="node">
<title>n25</title>
<g id="a_node16"><a xlink:href="vscode://vscode-remote/wsl+Ubuntu/home/ai4stat/statlib/Statlib/HighDim/Geometry/RIPConstruction.lean:209" xlink:title="lemma · Statlib/HighDim/Geometry/RIPConstruction.lean:209" target="_blank">
<path fill="#eef2f6" stroke="#94a3b8" d="M255.57,-124C255.57,-124 192.43,-124 192.43,-124 186.43,-124 180.43,-118 180.43,-112 180.43,-112 180.43,-100 180.43,-100 180.43,-94 186.43,-88 192.43,-88 192.43,-88 255.57,-88 255.57,-88 261.57,-88 267.57,-94 267.57,-100 267.57,-100 267.57,-112 267.57,-112 267.57,-118 261.57,-124 255.57,-124"/>
<text xml:space="preserve" text-anchor="middle" x="224" y="-103" font-family="Helvetica,sans-Serif" font-size="10.00">l2NormSq_smul</text>
</a>
</g>
</g>
<!-- n25&#45;&gt;n4 -->
<g id="edge20" class="edge">
<title>n25&#45;&gt;n4</title>
<path fill="none" stroke="#64748b" d="M267.93,-91.76C272.66,-90.44 277.42,-89.16 282,-88 354.21,-69.63 439.43,-52.13 487.95,-42.54"/>
<polygon fill="#64748b" stroke="#64748b" points="488.4,-44.95 494.79,-41.2 487.45,-40.15 488.4,-44.95"/>
</g>
<!-- n26 -->
<g id="node17" class="node">
<title>n26</title>
<g id="a_node17"><a xlink:href="vscode://vscode-remote/wsl+Ubuntu/home/ai4stat/statlib/Statlib/HighDim/CovarianceMatrix/SampleCovariance.lean:190" xlink:title="noncomputable def · Statlib/HighDim/CovarianceMatrix/SampleCovariance.lean:190" target="_blank">
<path fill="#d6e9ff" stroke="#3b82f6" d="M982.14,-268C982.14,-268 887.86,-268 887.86,-268 881.86,-268 875.86,-262 875.86,-256 875.86,-256 875.86,-244 875.86,-244 875.86,-238 881.86,-232 887.86,-232 887.86,-232 982.14,-232 982.14,-232 988.14,-232 994.14,-238 994.14,-244 994.14,-244 994.14,-256 994.14,-256 994.14,-262 988.14,-268 982.14,-268"/>
<text xml:space="preserve" text-anchor="middle" x="935" y="-247" font-family="Helvetica,sans-Serif" font-size="10.00">sampleSecondMoment</text>
</a>
</g>
</g>
<!-- n27 -->
<g id="node18" class="node">
<title>n27</title>
<g id="a_node18"><a xlink:href="vscode://vscode-remote/wsl+Ubuntu/home/ai4stat/statlib/Statlib/HighDim/Vocabulary/Restrictions.lean:15" xlink:title="def · Statlib/HighDim/Vocabulary/Restrictions.lean:15" target="_blank">
<path fill="#d6e9ff" stroke="#3b82f6" d="M783.34,-196C783.34,-196 724.66,-196 724.66,-196 718.66,-196 712.66,-190 712.66,-184 712.66,-184 712.66,-172 712.66,-172 712.66,-166 718.66,-160 724.66,-160 724.66,-160 783.34,-160 783.34,-160 789.34,-160 795.34,-166 795.34,-172 795.34,-172 795.34,-184 795.34,-184 795.34,-190 789.34,-196 783.34,-196"/>
<text xml:space="preserve" text-anchor="middle" x="754" y="-175" font-family="Helvetica,sans-Serif" font-size="10.00">restrictByEquiv</text>
</a>
</g>
</g>
<!-- n28 -->
<g id="node19" class="node">
<title>n28</title>
<g id="a_node19"><a xlink:href="vscode://vscode-remote/wsl+Ubuntu/home/ai4stat/statlib/Statlib/HighDim/Vocabulary/Restrictions.lean:20" xlink:title="def · Statlib/HighDim/Vocabulary/Restrictions.lean:20" target="_blank">
<path fill="#d6e9ff" stroke="#3b82f6" d="M843.35,-124C843.35,-124 784.65,-124 784.65,-124 778.65,-124 772.65,-118 772.65,-112 772.65,-112 772.65,-100 772.65,-100 772.65,-94 778.65,-88 784.65,-88 784.65,-88 843.35,-88 843.35,-88 849.35,-88 855.35,-94 855.35,-100 855.35,-100 855.35,-112 855.35,-112 855.35,-118 849.35,-124 843.35,-124"/>
<text xml:space="preserve" text-anchor="middle" x="814" y="-103" font-family="Helvetica,sans-Serif" font-size="10.00">extendByEquiv</text>
</a>
</g>
</g>
<!-- n29 -->
<g id="node20" class="node">
<title>n29</title>
<g id="a_node20"><a xlink:href="vscode://vscode-remote/wsl+Ubuntu/home/ai4stat/statlib/Statlib/HighDim/Geometry/RIPConstruction.lean:368" xlink:title="lemma · Statlib/HighDim/Geometry/RIPConstruction.lean:368" target="_blank">
<path fill="#eef2f6" stroke="#94a3b8" d="M643.36,-196C643.36,-196 534.64,-196 534.64,-196 528.64,-196 522.64,-190 522.64,-184 522.64,-184 522.64,-172 522.64,-172 522.64,-166 528.64,-160 534.64,-160 534.64,-160 643.36,-160 643.36,-160 649.36,-160 655.36,-166 655.36,-172 655.36,-172 655.36,-184 655.36,-184 655.36,-190 649.36,-196 643.36,-196"/>
<text xml:space="preserve" text-anchor="middle" x="589" y="-175" font-family="Helvetica,sans-Serif" font-size="10.00">extendByEquiv_l2NormSq</text>
</a>
</g>
</g>
<!-- n29&#45;&gt;n4 -->
<g id="edge21" class="edge">
<title>n29&#45;&gt;n4</title>
<path fill="none" stroke="#64748b" d="M581.4,-159.59C570.46,-134.54 550.24,-88.22 537.77,-59.66"/>
<polygon fill="#64748b" stroke="#64748b" points="540.12,-58.93 535.08,-53.5 535.63,-60.89 540.12,-58.93"/>
</g>
<!-- n29&#45;&gt;n28 -->
<g id="edge22" class="edge">
<title>n29&#45;&gt;n28</title>
<path fill="none" stroke="#64748b" d="M644.94,-159.5C653.02,-156.98 661.22,-154.42 669,-152 700.72,-142.12 736.36,-131.06 764.37,-122.38"/>
<polygon fill="#64748b" stroke="#64748b" points="765.02,-124.74 770.98,-120.33 763.57,-120.06 765.02,-124.74"/>
</g>
<!-- n30 -->
<g id="node21" class="node">
<title>n30</title>
<g id="a_node21"><a xlink:href="vscode://vscode-remote/wsl+Ubuntu/home/ai4stat/statlib/Statlib/HighDim/Geometry/RIPConstruction.lean:398" xlink:title="lemma · Statlib/HighDim/Geometry/RIPConstruction.lean:398" target="_blank">
<path fill="#eef2f6" stroke="#94a3b8" d="M539.53,-268C539.53,-268 452.47,-268 452.47,-268 446.47,-268 440.47,-262 440.47,-256 440.47,-256 440.47,-244 440.47,-244 440.47,-238 446.47,-232 452.47,-232 452.47,-232 539.53,-232 539.53,-232 545.53,-232 551.53,-238 551.53,-244 551.53,-244 551.53,-256 551.53,-256 551.53,-262 545.53,-268 539.53,-268"/>
<text xml:space="preserve" text-anchor="middle" x="496" y="-247" font-family="Helvetica,sans-Serif" font-size="10.00">extendByEquiv_norm</text>
</a>
</g>
</g>
<!-- n30&#45;&gt;n22 -->
<g id="edge24" class="edge">
<title>n30&#45;&gt;n22</title>
<path fill="none" stroke="#64748b" d="M485.37,-231.7C480.11,-223.14 473.67,-212.66 467.93,-203.3"/>
<polygon fill="#64748b" stroke="#64748b" points="470.05,-202.08 464.3,-197.39 465.88,-204.64 470.05,-202.08"/>
</g>
<!-- n30&#45;&gt;n28 -->
<g id="edge23" class="edge">
<title>n30&#45;&gt;n28</title>
<path fill="none" stroke="#64748b" d="M551.73,-233.61C597.05,-220.73 654.93,-203.33 664,-196 681.49,-181.86 671.79,-166.49 689,-152 710.32,-134.05 739.36,-123.02 764.09,-116.37"/>
<polygon fill="#64748b" stroke="#64748b" points="764.65,-118.76 770.83,-114.66 763.44,-114.01 764.65,-118.76"/>
</g>
<!-- n30&#45;&gt;n29 -->
<g id="edge25" class="edge">
<title>n30&#45;&gt;n29</title>
<path fill="none" stroke="#64748b" d="M518.99,-231.7C531.17,-222.53 546.28,-211.16 559.34,-201.33"/>
<polygon fill="#64748b" stroke="#64748b" points="560.62,-203.42 564.74,-197.26 557.68,-199.51 560.62,-203.42"/>
</g>
<!-- n31 -->
<g id="node22" class="node">
<title>n31</title>
<g id="a_node22"><a xlink:href="vscode://vscode-remote/wsl+Ubuntu/home/ai4stat/statlib/Statlib/HighDim/Geometry/RIPConstruction.lean:403" xlink:title="lemma · Statlib/HighDim/Geometry/RIPConstruction.lean:403" target="_blank">
<path fill="#eef2f6" stroke="#94a3b8" d="M845.89,-268C845.89,-268 662.11,-268 662.11,-268 656.11,-268 650.11,-262 650.11,-256 650.11,-256 650.11,-244 650.11,-244 650.11,-238 656.11,-232 662.11,-232 662.11,-232 845.89,-232 845.89,-232 851.89,-232 857.89,-238 857.89,-244 857.89,-244 857.89,-256 857.89,-256 857.89,-262 851.89,-268 845.89,-268"/>
<text xml:space="preserve" text-anchor="middle" x="754" y="-247" font-family="Helvetica,sans-Serif" font-size="10.00">extendByEquiv_restrictByEquiv_of_support</text>
</a>
</g>
</g>
<!-- n31&#45;&gt;n27 -->
<g id="edge27" class="edge">
<title>n31&#45;&gt;n27</title>
<path fill="none" stroke="#64748b" d="M754,-231.7C754,-223.47 754,-213.48 754,-204.42"/>
<polygon fill="#64748b" stroke="#64748b" points="756.45,-204.62 754,-197.62 751.55,-204.62 756.45,-204.62"/>
</g>
<!-- n31&#45;&gt;n28 -->
<g id="edge26" class="edge">
<title>n31&#45;&gt;n28</title>
<path fill="none" stroke="#64748b" d="M775.94,-231.68C786.23,-222.28 797.62,-209.77 804,-196 813.22,-176.12 815.32,-151.15 815.34,-132.73"/>
<polygon fill="#64748b" stroke="#64748b" points="817.79,-132.73 815.23,-125.77 812.89,-132.81 817.79,-132.73"/>
</g>
<!-- n32 -->
<g id="node23" class="node">
<title>n32</title>
<g id="a_node23"><a xlink:href="vscode://vscode-remote/wsl+Ubuntu/home/ai4stat/statlib/Statlib/HighDim/Geometry/RIPConstruction.lean:420" xlink:title="lemma · Statlib/HighDim/Geometry/RIPConstruction.lean:420" target="_blank">
<path fill="#eef2f6" stroke="#94a3b8" d="M831.92,-340C831.92,-340 692.08,-340 692.08,-340 686.08,-340 680.08,-334 680.08,-328 680.08,-328 680.08,-316 680.08,-316 680.08,-310 686.08,-304 692.08,-304 692.08,-304 831.92,-304 831.92,-304 837.92,-304 843.92,-310 843.92,-316 843.92,-316 843.92,-328 843.92,-328 843.92,-334 837.92,-340 831.92,-340"/>
<text xml:space="preserve" text-anchor="middle" x="762" y="-319" font-family="Helvetica,sans-Serif" font-size="10.00">restrictByEquiv_norm_of_support</text>
</a>
</g>
</g>
<!-- n32&#45;&gt;n27 -->
<g id="edge28" class="edge">
<title>n32&#45;&gt;n27</title>
<path fill="none" stroke="#64748b" d="M686.75,-303.63C668.79,-295.77 651.73,-284.41 641,-268 632.25,-254.61 632.42,-245.5 641,-232 648.56,-220.1 677.64,-206.6 704.41,-196.2"/>
<polygon fill="#64748b" stroke="#64748b" points="705.16,-198.54 710.83,-193.76 703.42,-193.96 705.16,-198.54"/>
</g>
<!-- n32&#45;&gt;n30 -->
<g id="edge29" class="edge">
<title>n32&#45;&gt;n30</title>
<path fill="none" stroke="#64748b" d="M695.56,-303.52C654.02,-292.58 600.79,-278.58 559.76,-267.78"/>
<polygon fill="#64748b" stroke="#64748b" points="560.58,-265.46 553.19,-266.05 559.33,-270.2 560.58,-265.46"/>
</g>
<!-- n32&#45;&gt;n31 -->
<g id="edge30" class="edge">
<title>n32&#45;&gt;n31</title>
<path fill="none" stroke="#64748b" d="M760.02,-303.7C759.08,-295.47 757.94,-285.48 756.91,-276.42"/>
<polygon fill="#64748b" stroke="#64748b" points="759.36,-276.28 756.13,-269.61 754.49,-276.84 759.36,-276.28"/>
</g>
<!-- n33 -->
<g id="node24" class="node">
<title>n33</title>
<g id="a_node24"><a xlink:href="vscode://vscode-remote/wsl+Ubuntu/home/ai4stat/statlib/Statlib/HighDim/Geometry/RIPConstruction.lean:428" xlink:title="lemma · Statlib/HighDim/Geometry/RIPConstruction.lean:428" target="_blank">
<path fill="#eef2f6" stroke="#94a3b8" d="M1142.31,-413.2C1142.31,-413.2 1009.69,-413.2 1009.69,-413.2 1003.69,-413.2 997.69,-407.2 997.69,-401.2 997.69,-401.2 997.69,-389.2 997.69,-389.2 997.69,-383.2 1003.69,-377.2 1009.69,-377.2 1009.69,-377.2 1142.31,-377.2 1142.31,-377.2 1148.31,-377.2 1154.31,-383.2 1154.31,-389.2 1154.31,-389.2 1154.31,-401.2 1154.31,-401.2 1154.31,-407.2 1148.31,-413.2 1142.31,-413.2"/>
<text xml:space="preserve" text-anchor="middle" x="1076" y="-392.2" font-family="Helvetica,sans-Serif" font-size="10.00">restrictByEquiv_dist_of_support</text>
</a>
</g>
</g>
<!-- n33&#45;&gt;n27 -->
<g id="edge31" class="edge">
<title>n33&#45;&gt;n27</title>
<path fill="none" stroke="#64748b" d="M997.32,-378.82C992.83,-378.2 988.36,-377.66 984,-377.2 966.7,-375.39 685.3,-379.1 671,-369.2 644.84,-351.08 612.47,-258.56 630,-232 634.57,-225.08 672.04,-209.59 704.61,-197.14"/>
<polygon fill="#64748b" stroke="#64748b" points="705.24,-199.52 710.91,-194.74 703.5,-194.94 705.24,-199.52"/>
</g>
<!-- n33&#45;&gt;n32 -->
<g id="edge32" class="edge">
<title>n33&#45;&gt;n32</title>
<path fill="none" stroke="#64748b" d="M999.19,-376.78C953.19,-366.35 894.64,-353.08 847.22,-342.32"/>
<polygon fill="#64748b" stroke="#64748b" points="847.95,-339.98 840.58,-340.82 846.87,-344.76 847.95,-339.98"/>
</g>
<!-- n34 -->
<g id="node25" class="node">
<title>n34</title>
<g id="a_node25"><a xlink:href="vscode://vscode-remote/wsl+Ubuntu/home/ai4stat/statlib/Statlib/HighDim/Geometry/RIPConstruction.lean:413" xlink:title="lemma · Statlib/HighDim/Geometry/RIPConstruction.lean:413" target="_blank">
<path fill="#eef2f6" stroke="#94a3b8" d="M1174.48,-268C1174.48,-268 1043.52,-268 1043.52,-268 1037.52,-268 1031.52,-262 1031.52,-256 1031.52,-256 1031.52,-244 1031.52,-244 1031.52,-238 1037.52,-232 1043.52,-232 1043.52,-232 1174.48,-232 1174.48,-232 1180.48,-232 1186.48,-238 1186.48,-244 1186.48,-244 1186.48,-256 1186.48,-256 1186.48,-262 1180.48,-268 1174.48,-268"/>
<text xml:space="preserve" text-anchor="middle" x="1109" y="-247" font-family="Helvetica,sans-Serif" font-size="10.00">restrictByEquiv_extendByEquiv</text>
</a>
</g>
</g>
<!-- n34&#45;&gt;n27 -->
<g id="edge33" class="edge">
<title>n34&#45;&gt;n27</title>
<path fill="none" stroke="#64748b" d="M1031.09,-233.64C961.89,-219.99 862.83,-200.46 803.8,-188.82"/>
<polygon fill="#64748b" stroke="#64748b" points="804.57,-186.48 797.23,-187.52 803.63,-191.28 804.57,-186.48"/>
</g>
<!-- n34&#45;&gt;n28 -->
<g id="edge34" class="edge">
<title>n34&#45;&gt;n28</title>
<path fill="none" stroke="#64748b" d="M1072.83,-231.59C1018.49,-205.43 915.98,-156.09 857.6,-127.98"/>
<polygon fill="#64748b" stroke="#64748b" points="858.74,-125.82 851.37,-124.99 856.62,-130.23 858.74,-125.82"/>
</g>
<!-- n35 -->
<g id="node26" class="node">
<title>n35</title>
<g id="a_node26"><a xlink:href="vscode://vscode-remote/wsl+Ubuntu/home/ai4stat/statlib/Statlib/HighDim/CovarianceMatrix/SampleCovariance.lean:196" xlink:title="lemma · Statlib/HighDim/CovarianceMatrix/SampleCovariance.lean:196" target="_blank">
<path fill="#eef2f6" stroke="#94a3b8" d="M1239.69,-340C1239.69,-340 1104.31,-340 1104.31,-340 1098.31,-340 1092.31,-334 1092.31,-328 1092.31,-328 1092.31,-316 1092.31,-316 1092.31,-310 1098.31,-304 1104.31,-304 1104.31,-304 1239.69,-304 1239.69,-304 1245.69,-304 1251.69,-310 1251.69,-316 1251.69,-316 1251.69,-328 1251.69,-328 1251.69,-334 1245.69,-340 1239.69,-340"/>
<text xml:space="preserve" text-anchor="middle" x="1172" y="-319" font-family="Helvetica,sans-Serif" font-size="10.00">sampleSecondMoment_isSymm</text>
</a>
</g>
</g>
<!-- n35&#45;&gt;n26 -->
<g id="edge35" class="edge">
<title>n35&#45;&gt;n26</title>
<path fill="none" stroke="#64748b" d="M1112.81,-303.52C1079.03,-293.54 1036.59,-281 1001.64,-270.68"/>
<polygon fill="#64748b" stroke="#64748b" points="1002.71,-268.44 995.3,-268.81 1001.32,-273.14 1002.71,-268.44"/>
</g>
<!-- n36 -->
<g id="node27" class="node">
<title>n36</title>
<g id="a_node27"><a xlink:href="vscode://vscode-remote/wsl+Ubuntu/home/ai4stat/statlib/Statlib/HighDim/CovarianceMatrix/SampleCovariance.lean:178" xlink:title="lemma · Statlib/HighDim/CovarianceMatrix/SampleCovariance.lean:178" target="_blank">
<path fill="#eef2f6" stroke="#94a3b8" d="M1383.63,-413.2C1383.63,-413.2 1264.37,-413.2 1264.37,-413.2 1258.37,-413.2 1252.37,-407.2 1252.37,-401.2 1252.37,-401.2 1252.37,-389.2 1252.37,-389.2 1252.37,-383.2 1258.37,-377.2 1264.37,-377.2 1264.37,-377.2 1383.63,-377.2 1383.63,-377.2 1389.63,-377.2 1395.63,-383.2 1395.63,-389.2 1395.63,-389.2 1395.63,-401.2 1395.63,-401.2 1395.63,-407.2 1389.63,-413.2 1383.63,-413.2"/>
<text xml:space="preserve" text-anchor="middle" x="1324" y="-392.2" font-family="Helvetica,sans-Serif" font-size="10.00">real_isHermitian_of_isSymm</text>
</a>
</g>
</g>
<!-- n37 -->
<g id="node28" class="node">
<title>n37</title>
<g id="a_node28"><a xlink:href="vscode://vscode-remote/wsl+Ubuntu/home/ai4stat/statlib/Statlib/HighDim/Vocabulary/Norms.lean:41" xlink:title="noncomputable def · Statlib/HighDim/Vocabulary/Norms.lean:41" target="_blank">
<path fill="#d6e9ff" stroke="#3b82f6" d="M1970.13,-196C1970.13,-196 1925.87,-196 1925.87,-196 1919.87,-196 1913.87,-190 1913.87,-184 1913.87,-184 1913.87,-172 1913.87,-172 1913.87,-166 1919.87,-160 1925.87,-160 1925.87,-160 1970.13,-160 1970.13,-160 1976.13,-160 1982.13,-166 1982.13,-172 1982.13,-172 1982.13,-184 1982.13,-184 1982.13,-190 1976.13,-196 1970.13,-196"/>
<text xml:space="preserve" text-anchor="middle" x="1948" y="-175" font-family="Helvetica,sans-Serif" font-size="10.00">toEuclidean</text>
</a>
</g>
</g>
<!-- n38 -->
<g id="node29" class="node">
<title>n38</title>
<g id="a_node29"><a xlink:href="vscode://vscode-remote/wsl+Ubuntu/home/ai4stat/statlib/Statlib/HighDim/CovarianceMatrix/SampleCovariance.lean:38" xlink:title="lemma · Statlib/HighDim/CovarianceMatrix/SampleCovariance.lean:38" target="_blank">
<path fill="#eef2f6" stroke="#94a3b8" d="M2114.23,-268C2114.23,-268 1933.77,-268 1933.77,-268 1927.77,-268 1921.77,-262 1921.77,-256 1921.77,-256 1921.77,-244 1921.77,-244 1921.77,-238 1927.77,-232 1933.77,-232 1933.77,-232 2114.23,-232 2114.23,-232 2120.23,-232 2126.23,-238 2126.23,-244 2126.23,-244 2126.23,-256 2126.23,-256 2126.23,-262 2120.23,-268 2114.23,-268"/>
<text xml:space="preserve" text-anchor="middle" x="2024" y="-247" font-family="Helvetica,sans-Serif" font-size="10.00">hermitian_norm_eq_diagonal_eigenvalues</text>
</a>
</g>
</g>
<!-- n39 -->
<g id="node30" class="node">
<title>n39</title>
<g id="a_node30"><a xlink:href="vscode://vscode-remote/wsl+Ubuntu/home/ai4stat/statlib/Statlib/HighDim/CovarianceMatrix/SampleCovariance.lean:58" xlink:title="lemma · Statlib/HighDim/CovarianceMatrix/SampleCovariance.lean:58" target="_blank">
<path fill="#eef2f6" stroke="#94a3b8" d="M1892.21,-268C1892.21,-268 1781.79,-268 1781.79,-268 1775.79,-268 1769.79,-262 1769.79,-256 1769.79,-256 1769.79,-244 1769.79,-244 1769.79,-238 1775.79,-232 1781.79,-232 1781.79,-232 1892.21,-232 1892.21,-232 1898.21,-232 1904.21,-238 1904.21,-244 1904.21,-244 1904.21,-256 1904.21,-256 1904.21,-262 1898.21,-268 1892.21,-268"/>
<text xml:space="preserve" text-anchor="middle" x="1837" y="-247" font-family="Helvetica,sans-Serif" font-size="10.00">pi_real_norm_eq_sup_abs</text>
</a>
</g>
</g>
<!-- n40 -->
<g id="node31" class="node">
<title>n40</title>
<g id="a_node31"><a xlink:href="vscode://vscode-remote/wsl+Ubuntu/home/ai4stat/statlib/Statlib/HighDim/CovarianceMatrix/SampleCovariance.lean:68" xlink:title="lemma · Statlib/HighDim/CovarianceMatrix/SampleCovariance.lean:68" target="_blank">
<path fill="#eef2f6" stroke="#94a3b8" d="M1936.23,-340C1936.23,-340 1755.77,-340 1755.77,-340 1749.77,-340 1743.77,-334 1743.77,-328 1743.77,-328 1743.77,-316 1743.77,-316 1743.77,-310 1749.77,-304 1755.77,-304 1755.77,-304 1936.23,-304 1936.23,-304 1942.23,-304 1948.23,-310 1948.23,-316 1948.23,-316 1948.23,-328 1948.23,-328 1948.23,-334 1942.23,-340 1936.23,-340"/>
<text xml:space="preserve" text-anchor="middle" x="1846" y="-319" font-family="Helvetica,sans-Serif" font-size="10.00">hermitian_norm_eq_sup_abs_eigenvalues</text>
</a>
</g>
</g>
<!-- n40&#45;&gt;n38 -->
<g id="edge36" class="edge">
<title>n40&#45;&gt;n38</title>
<path fill="none" stroke="#64748b" d="M1890.46,-303.52C1915.19,-293.79 1946.1,-281.64 1971.95,-271.47"/>
<polygon fill="#64748b" stroke="#64748b" points="1972.77,-273.78 1978.39,-268.94 1970.98,-269.22 1972.77,-273.78"/>
</g>
<!-- n40&#45;&gt;n39 -->
<g id="edge37" class="edge">
<title>n40&#45;&gt;n39</title>
<path fill="none" stroke="#64748b" d="M1843.78,-303.7C1842.72,-295.47 1841.43,-285.48 1840.27,-276.42"/>
<polygon fill="#64748b" stroke="#64748b" points="1842.71,-276.24 1839.39,-269.61 1837.85,-276.86 1842.71,-276.24"/>
</g>
<!-- n41 -->
<g id="node32" class="node">
<title>n41</title>
<g id="a_node32"><a xlink:href="vscode://vscode-remote/wsl+Ubuntu/home/ai4stat/statlib/Statlib/HighDim/CovarianceMatrix/SampleCovariance.lean:77" xlink:title="lemma · Statlib/HighDim/CovarianceMatrix/SampleCovariance.lean:77" target="_blank">
<path fill="#eef2f6" stroke="#94a3b8" d="M1809.54,-413.2C1809.54,-413.2 1672.46,-413.2 1672.46,-413.2 1666.46,-413.2 1660.46,-407.2 1660.46,-401.2 1660.46,-401.2 1660.46,-389.2 1660.46,-389.2 1660.46,-383.2 1666.46,-377.2 1672.46,-377.2 1672.46,-377.2 1809.54,-377.2 1809.54,-377.2 1815.54,-377.2 1821.54,-383.2 1821.54,-389.2 1821.54,-389.2 1821.54,-401.2 1821.54,-401.2 1821.54,-407.2 1815.54,-413.2 1809.54,-413.2"/>
<text xml:space="preserve" text-anchor="middle" x="1741" y="-392.2" font-family="Helvetica,sans-Serif" font-size="10.00">hermitian_norm_le_two_net_sup</text>
</a>
</g>
</g>
<!-- n41&#45;&gt;n37 -->
<g id="edge38" class="edge">
<title>n41&#45;&gt;n37</title>
<path fill="none" stroke="#64748b" d="M1822.02,-379.08C1826.74,-378.39 1831.43,-377.76 1836,-377.2 1849.37,-375.57 1946.16,-377.2 1957,-369.2 1981.98,-350.78 1958.62,-324.41 1982,-304 2034.62,-258.05 2091.63,-322.76 2135,-268 2176.69,-215.36 2058.02,-192.16 1990.79,-183.46"/>
<polygon fill="#64748b" stroke="#64748b" points="1991.21,-181.04 1983.96,-182.61 1990.6,-185.9 1991.21,-181.04"/>
</g>
<!-- n41&#45;&gt;n40 -->
<g id="edge39" class="edge">
<title>n41&#45;&gt;n40</title>
<path fill="none" stroke="#64748b" d="M1766.69,-376.78C1780.8,-367.21 1798.44,-355.25 1813.5,-345.04"/>
<polygon fill="#64748b" stroke="#64748b" points="1814.54,-347.29 1818.96,-341.33 1811.79,-343.23 1814.54,-347.29"/>
</g>
<!-- n42 -->
<g id="node33" class="node">
<title>n42</title>
<g id="a_node33"><a xlink:href="vscode://vscode-remote/wsl+Ubuntu/home/ai4stat/statlib/Statlib/HighDim/CovarianceMatrix/SampleCovariance.lean:315" xlink:title="lemma · Statlib/HighDim/CovarianceMatrix/SampleCovariance.lean:315" target="_blank">
<path fill="#eef2f6" stroke="#94a3b8" d="M1659.53,-268C1659.53,-268 1552.47,-268 1552.47,-268 1546.47,-268 1540.47,-262 1540.47,-256 1540.47,-256 1540.47,-244 1540.47,-244 1540.47,-238 1546.47,-232 1552.47,-232 1552.47,-232 1659.53,-232 1659.53,-232 1665.53,-232 1671.53,-238 1671.53,-244 1671.53,-244 1671.53,-256 1671.53,-256 1671.53,-262 1665.53,-268 1659.53,-268"/>
<text xml:space="preserve" text-anchor="middle" x="1606" y="-247" font-family="Helvetica,sans-Serif" font-size="10.00">matrix_quadratic_eq_sum</text>
</a>
</g>
</g>
<!-- n42&#45;&gt;n6 -->
<g id="edge41" class="edge">
<title>n42&#45;&gt;n6</title>
<path fill="none" stroke="#64748b" d="M1557.05,-231.52C1526.76,-220.7 1488.05,-206.87 1457.95,-196.12"/>
<polygon fill="#64748b" stroke="#64748b" points="1458.94,-193.88 1451.52,-193.83 1457.29,-198.49 1458.94,-193.88"/>
</g>
<!-- n42&#45;&gt;n37 -->
<g id="edge40" class="edge">
<title>n42&#45;&gt;n37</title>
<path fill="none" stroke="#64748b" d="M1671.94,-235.5C1740.76,-221.42 1846.65,-199.74 1905.27,-187.75"/>
<polygon fill="#64748b" stroke="#64748b" points="1905.71,-190.16 1912.08,-186.35 1904.73,-185.36 1905.71,-190.16"/>
</g>
<!-- n43 -->
<g id="node34" class="node">
<title>n43</title>
<g id="a_node34"><a xlink:href="vscode://vscode-remote/wsl+Ubuntu/home/ai4stat/statlib/Statlib/HighDim/CovarianceMatrix/SampleCovariance.lean:327" xlink:title="lemma · Statlib/HighDim/CovarianceMatrix/SampleCovariance.lean:327" target="_blank">
<path fill="#eef2f6" stroke="#94a3b8" d="M1510.08,-268C1510.08,-268 1421.92,-268 1421.92,-268 1415.92,-268 1409.92,-262 1409.92,-256 1409.92,-256 1409.92,-244 1409.92,-244 1409.92,-238 1415.92,-232 1421.92,-232 1421.92,-232 1510.08,-232 1510.08,-232 1516.08,-232 1522.08,-238 1522.08,-244 1522.08,-244 1522.08,-256 1522.08,-256 1522.08,-262 1516.08,-268 1510.08,-268"/>
<text xml:space="preserve" text-anchor="middle" x="1466" y="-247" font-family="Helvetica,sans-Serif" font-size="10.00">fin_sum_comm_three</text>
</a>
</g>
</g>
<!-- n44 -->
<g id="node35" class="node">
<title>n44</title>
<g id="a_node35"><a xlink:href="vscode://vscode-remote/wsl+Ubuntu/home/ai4stat/statlib/Statlib/HighDim/CovarianceMatrix/SampleCovariance.lean:337" xlink:title="lemma · Statlib/HighDim/CovarianceMatrix/SampleCovariance.lean:337" target="_blank">
<path fill="#eef2f6" stroke="#94a3b8" d="M1633.52,-340C1633.52,-340 1402.48,-340 1402.48,-340 1396.48,-340 1390.48,-334 1390.48,-328 1390.48,-328 1390.48,-316 1390.48,-316 1390.48,-310 1396.48,-304 1402.48,-304 1402.48,-304 1633.52,-304 1633.52,-304 1639.52,-304 1645.52,-310 1645.52,-316 1645.52,-316 1645.52,-328 1645.52,-328 1645.52,-334 1639.52,-340 1633.52,-340"/>
<text xml:space="preserve" text-anchor="middle" x="1518" y="-319" font-family="Helvetica,sans-Serif" font-size="10.00">sampleSecondMoment_quadratic_eq_projection_sum</text>
</a>
</g>
</g>
<!-- n44&#45;&gt;n6 -->
<g id="edge46" class="edge">
<title>n44&#45;&gt;n6</title>
<path fill="none" stroke="#64748b" d="M1446.1,-303.52C1428.39,-295.65 1411.51,-284.3 1401,-268 1388.83,-249.13 1393.28,-223.18 1399.46,-204.17"/>
<polygon fill="#64748b" stroke="#64748b" points="1401.74,-205.08 1401.76,-197.66 1397.12,-203.44 1401.74,-205.08"/>
</g>
<!-- n44&#45;&gt;n26 -->
<g id="edge43" class="edge">
<title>n44&#45;&gt;n26</title>
<path fill="none" stroke="#64748b" d="M1390.2,-310.29C1290.02,-301.18 1147.26,-286.62 1023,-268 1016.36,-267.01 1009.47,-265.86 1002.58,-264.65"/>
<polygon fill="#64748b" stroke="#64748b" points="1003.34,-262.3 996.02,-263.47 1002.47,-267.12 1003.34,-262.3"/>
</g>
<!-- n44&#45;&gt;n37 -->
<g id="edge42" class="edge">
<title>n44&#45;&gt;n37</title>
<path fill="none" stroke="#64748b" d="M1580.96,-303.6C1611.65,-294.35 1648.8,-282 1681,-268 1711.29,-254.83 1715.35,-244.29 1746,-232 1799.21,-210.67 1863.74,-195.47 1905.32,-186.97"/>
<polygon fill="#64748b" stroke="#64748b" points="1905.71,-189.39 1912.09,-185.6 1904.74,-184.58 1905.71,-189.39"/>
</g>
<!-- n44&#45;&gt;n42 -->
<g id="edge44" class="edge">
<title>n44&#45;&gt;n42</title>
<path fill="none" stroke="#64748b" d="M1539.75,-303.7C1551.18,-294.61 1565.31,-283.36 1577.59,-273.6"/>
<polygon fill="#64748b" stroke="#64748b" points="1579.05,-275.56 1583.01,-269.29 1576,-271.73 1579.05,-275.56"/>
</g>
<!-- n44&#45;&gt;n43 -->
<g id="edge45" class="edge">
<title>n44&#45;&gt;n43</title>
<path fill="none" stroke="#64748b" d="M1505.15,-303.7C1498.66,-294.97 1490.69,-284.24 1483.64,-274.75"/>
<polygon fill="#64748b" stroke="#64748b" points="1485.75,-273.48 1479.61,-269.32 1481.82,-276.4 1485.75,-273.48"/>
</g>
<!-- n45 -->
<g id="node36" class="node">
<title>n45</title>
<g id="a_node36"><a xlink:href="vscode://vscode-remote/wsl+Ubuntu/home/ai4stat/statlib/Statlib/HighDim/Geometry/RIPConstruction.lean:442" xlink:title="lemma · Statlib/HighDim/Geometry/RIPConstruction.lean:442" target="_blank">
<path fill="#eef2f6" stroke="#94a3b8" d="M1319.58,-268C1319.58,-268 1216.42,-268 1216.42,-268 1210.42,-268 1204.42,-262 1204.42,-256 1204.42,-256 1204.42,-244 1204.42,-244 1204.42,-238 1210.42,-232 1216.42,-232 1216.42,-232 1319.58,-232 1319.58,-232 1325.58,-232 1331.58,-238 1331.58,-244 1331.58,-244 1331.58,-256 1331.58,-256 1331.58,-262 1325.58,-268 1319.58,-268"/>
<text xml:space="preserve" text-anchor="middle" x="1268" y="-247" font-family="Helvetica,sans-Serif" font-size="10.00">restrictByEquiv_inner_eq</text>
</a>
</g>
</g>
<!-- n45&#45;&gt;n6 -->
<g id="edge49" class="edge">
<title>n45&#45;&gt;n6</title>
<path fill="none" stroke="#64748b" d="M1303.47,-231.52C1322.84,-221.97 1346.97,-210.07 1367.37,-200.01"/>
<polygon fill="#64748b" stroke="#64748b" points="1368.43,-202.22 1373.63,-196.93 1366.27,-197.83 1368.43,-202.22"/>
</g>
<!-- n45&#45;&gt;n27 -->
<g id="edge47" class="edge">
<title>n45&#45;&gt;n27</title>
<path fill="none" stroke="#64748b" d="M1203.99,-233.68C1200.95,-233.08 1197.95,-232.52 1195,-232 1054.02,-207.19 885.63,-190.49 803.7,-183.19"/>
<polygon fill="#64748b" stroke="#64748b" points="804.26,-180.78 797.07,-182.6 803.83,-185.66 804.26,-180.78"/>
</g>
<!-- n45&#45;&gt;n28 -->
<g id="edge48" class="edge">
<title>n45&#45;&gt;n28</title>
<path fill="none" stroke="#64748b" d="M1212.28,-231.56C1150.23,-212.14 1046.94,-179.81 958,-152 926.6,-142.18 891.35,-131.17 863.58,-122.49"/>
<polygon fill="#64748b" stroke="#64748b" points="864.45,-120.19 857.04,-120.44 862.99,-124.87 864.45,-120.19"/>
</g>
<!-- n46 -->
<g id="node37" class="node">
<title>n46</title>
<g id="a_node37"><a xlink:href="vscode://vscode-remote/wsl+Ubuntu/home/ai4stat/statlib/Statlib/HighDim/Geometry/RIPConstruction.lean:490" xlink:title="lemma · Statlib/HighDim/Geometry/RIPConstruction.lean:490" target="_blank">
<path fill="#eef2f6" stroke="#94a3b8" d="M1609.61,-413.2C1609.61,-413.2 1446.39,-413.2 1446.39,-413.2 1440.39,-413.2 1434.39,-407.2 1434.39,-401.2 1434.39,-401.2 1434.39,-389.2 1434.39,-389.2 1434.39,-383.2 1440.39,-377.2 1446.39,-377.2 1446.39,-377.2 1609.61,-377.2 1609.61,-377.2 1615.61,-377.2 1621.61,-383.2 1621.61,-389.2 1621.61,-389.2 1621.61,-401.2 1621.61,-401.2 1621.61,-407.2 1615.61,-413.2 1609.61,-413.2"/>
<text xml:space="preserve" text-anchor="middle" x="1528" y="-392.2" font-family="Helvetica,sans-Serif" font-size="10.00">restricted_sample_deviation_quadratic</text>
</a>
</g>
</g>
<!-- n46&#45;&gt;n4 -->
<g id="edge53" class="edge">
<title>n46&#45;&gt;n4</title>
<path fill="none" stroke="#64748b" d="M1621.74,-377.73C1645.96,-373.37 1665.49,-369.72 1666,-369.2 1687.34,-347.17 1698.63,-257.1 1681,-232 1549.09,-44.25 752.15,-34.44 565.91,-34.74"/>
<polygon fill="#64748b" stroke="#64748b" points="566.01,-32.29 559.02,-34.76 566.02,-37.19 566.01,-32.29"/>
</g>
<!-- n46&#45;&gt;n6 -->
<g id="edge59" class="edge">
<title>n46&#45;&gt;n6</title>
<path fill="none" stroke="#64748b" d="M1433.98,-379.38C1405.85,-374.73 1382.07,-370.47 1381,-369.2 1341.1,-321.94 1374.09,-243.55 1395.4,-203.78"/>
<polygon fill="#64748b" stroke="#64748b" points="1397.52,-205 1398.75,-197.69 1393.23,-202.64 1397.52,-205"/>
</g>
<!-- n46&#45;&gt;n9 -->
<g id="edge56" class="edge">
<title>n46&#45;&gt;n9</title>
<path fill="none" stroke="#64748b" d="M1434.11,-379.98C1424.3,-378.87 1414.46,-377.9 1405,-377.2 1364.33,-374.18 710.03,-381.03 671,-369.2 620.22,-353.81 619.56,-325.38 571,-304 512.2,-278.11 481.63,-307.54 431,-268 388.13,-234.52 377.91,-204.54 392,-152 393.88,-144.98 397.15,-137.93 400.75,-131.56"/>
<polygon fill="#64748b" stroke="#64748b" points="402.75,-132.98 404.28,-125.73 398.56,-130.45 402.75,-132.98"/>
</g>
<!-- n46&#45;&gt;n26 -->
<g id="edge52" class="edge">
<title>n46&#45;&gt;n26</title>
<path fill="none" stroke="#64748b" d="M1434.06,-380.53C1424.26,-379.31 1414.44,-378.17 1405,-377.2 1391.82,-375.85 1296.66,-377.07 1286,-369.2 1261.03,-350.77 1285.27,-323.35 1261,-304 1216.59,-268.6 1063.82,-278.45 1008,-268 1006.18,-267.66 1004.34,-267.3 1002.48,-266.94"/>
<polygon fill="#64748b" stroke="#64748b" points="1003.1,-264.56 995.75,-265.56 1002.12,-269.36 1003.1,-264.56"/>
</g>
<!-- n46&#45;&gt;n27 -->
<g id="edge50" class="edge">
<title>n46&#45;&gt;n27</title>
<path fill="none" stroke="#64748b" d="M1434.04,-380.71C1424.25,-379.45 1414.43,-378.26 1405,-377.2 1384.39,-374.89 1329.19,-380.81 1312,-369.2 1285.09,-351.02 1305.41,-322.9 1279,-304 1185.55,-237.15 1117.72,-333.04 1023,-268 1007.91,-257.64 1017.72,-242.88 1003,-232 971.97,-209.05 867.37,-192.75 804.04,-184.7"/>
<polygon fill="#64748b" stroke="#64748b" points="804.52,-182.29 797.27,-183.86 803.92,-187.16 804.52,-182.29"/>
</g>
<!-- n46&#45;&gt;n28 -->
<g id="edge54" class="edge">
<title>n46&#45;&gt;n28</title>
<path fill="none" stroke="#64748b" d="M1433.98,-379.98C1427.56,-379.03 1421.18,-378.1 1415,-377.2 1402.34,-375.36 1366.97,-378.32 1358,-369.2 1314.9,-325.4 1381.55,-278.16 1341,-232 1247.09,-125.1 1169.59,-184.23 1031,-152 973.97,-138.74 908.05,-125.34 863.97,-116.65"/>
<polygon fill="#64748b" stroke="#64748b" points="864.56,-114.27 857.22,-115.33 863.61,-119.08 864.56,-114.27"/>
</g>
<!-- n46&#45;&gt;n37 -->
<g id="edge51" class="edge">
<title>n46&#45;&gt;n37</title>
<path fill="none" stroke="#64748b" d="M1621.96,-381.44C1655.91,-376.51 1686.79,-371.5 1690,-369.2 1745.75,-329.13 1707.82,-275.42 1761,-232 1802.36,-198.23 1864.04,-185.96 1905.12,-181.51"/>
<polygon fill="#64748b" stroke="#64748b" points="1905.32,-183.95 1912.05,-180.82 1904.84,-179.07 1905.32,-183.95"/>
</g>
<!-- n46&#45;&gt;n42 -->
<g id="edge55" class="edge">
<title>n46&#45;&gt;n42</title>
<path fill="none" stroke="#64748b" d="M1621.82,-379.85C1638.84,-376.37 1652.16,-372.65 1655,-369.2 1673.41,-346.82 1665.56,-330.98 1655,-304 1650.58,-292.72 1642.51,-282.4 1634.18,-273.92"/>
<polygon fill="#64748b" stroke="#64748b" points="1636.24,-272.5 1629.5,-269.41 1632.84,-276.03 1636.24,-272.5"/>
</g>
<!-- n46&#45;&gt;n44 -->
<g id="edge57" class="edge">
<title>n46&#45;&gt;n44</title>
<path fill="none" stroke="#64748b" d="M1525.58,-376.96C1524.38,-368.39 1522.9,-357.87 1521.57,-348.39"/>
<polygon fill="#64748b" stroke="#64748b" points="1524.01,-348.17 1520.61,-341.58 1519.16,-348.85 1524.01,-348.17"/>
</g>
<!-- n46&#45;&gt;n45 -->
<g id="edge58" class="edge">
<title>n46&#45;&gt;n45</title>
<path fill="none" stroke="#64748b" d="M1434.09,-379.14C1429.33,-378.46 1424.61,-377.81 1420,-377.2 1403.6,-375.02 1359.43,-378.86 1346,-369.2 1320.11,-350.57 1333.58,-330.62 1316,-304 1309.17,-293.66 1300.38,-283.33 1292.18,-274.57"/>
<polygon fill="#64748b" stroke="#64748b" points="1294.02,-272.95 1287.41,-269.59 1290.48,-276.34 1294.02,-272.95"/>
</g>
<!-- n47 -->
<g id="node38" class="node">
<title>n47</title>
<g id="a_node38"><a xlink:href="vscode://vscode-remote/wsl+Ubuntu/home/ai4stat/statlib/Statlib/HighDim/Geometry/RIPConstruction.lean:120" xlink:title="lemma · Statlib/HighDim/Geometry/RIPConstruction.lean:120" target="_blank">
<path fill="#eef2f6" stroke="#94a3b8" d="M792.27,-413.2C792.27,-413.2 635.73,-413.2 635.73,-413.2 629.73,-413.2 623.73,-407.2 623.73,-401.2 623.73,-401.2 623.73,-389.2 623.73,-389.2 623.73,-383.2 629.73,-377.2 635.73,-377.2 635.73,-377.2 792.27,-377.2 792.27,-377.2 798.27,-377.2 804.27,-383.2 804.27,-389.2 804.27,-389.2 804.27,-401.2 804.27,-401.2 804.27,-407.2 798.27,-413.2 792.27,-413.2"/>
<text xml:space="preserve" text-anchor="middle" x="714" y="-392.2" font-family="Helvetica,sans-Serif" font-size="10.00">exists_support_card_eq_of_isSparse</text>
</a>
</g>
</g>
<!-- n47&#45;&gt;n3 -->
<g id="edge60" class="edge">
<title>n47&#45;&gt;n3</title>
<path fill="none" stroke="#64748b" d="M623.44,-378.35C598.25,-373.83 577.32,-369.93 576,-369.2 566.03,-363.67 557.16,-354.89 550.17,-346.46"/>
<polygon fill="#64748b" stroke="#64748b" points="552.39,-345.32 546.14,-341.33 548.54,-348.34 552.39,-345.32"/>
</g>
<!-- n48 -->
<g id="node39" class="node">
<title>n48</title>
<g id="a_node39"><a xlink:href="vscode://vscode-remote/wsl+Ubuntu/home/ai4stat/statlib/Statlib/HighDim/SpectralPerturbation/Eigenvalues.lean:159" xlink:title="lemma · Statlib/HighDim/SpectralPerturbation/Eigenvalues.lean:159" target="_blank">
<path fill="#eef2f6" stroke="#94a3b8" d="M2134.26,-340C2134.26,-340 2017.74,-340 2017.74,-340 2011.74,-340 2005.74,-334 2005.74,-328 2005.74,-328 2005.74,-316 2005.74,-316 2005.74,-310 2011.74,-304 2017.74,-304 2017.74,-304 2134.26,-304 2134.26,-304 2140.26,-304 2146.26,-310 2146.26,-316 2146.26,-316 2146.26,-328 2146.26,-328 2146.26,-334 2140.26,-340 2134.26,-340"/>
<text xml:space="preserve" text-anchor="middle" x="2076" y="-319" font-family="Helvetica,sans-Serif" font-size="10.00">abs_rayleigh_le_l2_opNorm</text>
</a>
</g>
</g>
<!-- n49 -->
<g id="node40" class="node">
<title>n49</title>
<g id="a_node40"><a xlink:href="vscode://vscode-remote/wsl+Ubuntu/home/ai4stat/statlib/Statlib/HighDim/Geometry/RIPConstruction.lean:549" xlink:title="lemma · Statlib/HighDim/Geometry/RIPConstruction.lean:549" target="_blank">
<path fill="#eef2f6" stroke="#94a3b8" d="M2047.72,-413.2C2047.72,-413.2 1872.28,-413.2 1872.28,-413.2 1866.28,-413.2 1860.28,-407.2 1860.28,-401.2 1860.28,-401.2 1860.28,-389.2 1860.28,-389.2 1860.28,-383.2 1866.28,-377.2 1872.28,-377.2 1872.28,-377.2 2047.72,-377.2 2047.72,-377.2 2053.72,-377.2 2059.72,-383.2 2059.72,-389.2 2059.72,-389.2 2059.72,-401.2 2059.72,-401.2 2059.72,-407.2 2053.72,-413.2 2047.72,-413.2"/>
<text xml:space="preserve" text-anchor="middle" x="1960" y="-392.2" font-family="Helvetica,sans-Serif" font-size="10.00">abs_quadratic_le_opNorm_mul_norm_sq</text>
</a>
</g>
</g>
<!-- n49&#45;&gt;n37 -->
<g id="edge61" class="edge">
<title>n49&#45;&gt;n37</title>
<path fill="none" stroke="#64748b" d="M2060.05,-378.99C2064.77,-378.37 2069.43,-377.77 2074,-377.2 2091.95,-374.98 2141.9,-381.67 2155,-369.2 2177.21,-348.05 2189,-256.07 2170,-232 2148.06,-204.21 2048.57,-189.39 1990.49,-182.98"/>
<polygon fill="#64748b" stroke="#64748b" points="1990.96,-180.56 1983.74,-182.25 1990.44,-185.43 1990.96,-180.56"/>
</g>
<!-- n49&#45;&gt;n48 -->
<g id="edge62" class="edge">
<title>n49&#45;&gt;n48</title>
<path fill="none" stroke="#64748b" d="M1988.38,-376.78C2004.11,-367.13 2023.81,-355.04 2040.54,-344.76"/>
<polygon fill="#64748b" stroke="#64748b" points="2041.54,-347.03 2046.22,-341.28 2038.98,-342.85 2041.54,-347.03"/>
</g>
<!-- n50 -->
<g id="node41" class="node">
<title>n50</title>
<g id="a_node41"><a xlink:href="vscode://vscode-remote/wsl+Ubuntu/home/ai4stat/statlib/Statlib/HighDim/Geometry/RIPConstruction.lean:582" xlink:title="theorem · Statlib/HighDim/Geometry/RIPConstruction.lean:582" target="_blank">
<path fill="#ffe6a3" stroke="#d4a017" d="M1244.59,-485.2C1244.59,-485.2 1161.41,-485.2 1161.41,-485.2 1155.41,-485.2 1149.41,-479.2 1149.41,-473.2 1149.41,-473.2 1149.41,-461.2 1149.41,-461.2 1149.41,-455.2 1155.41,-449.2 1161.41,-449.2 1161.41,-449.2 1244.59,-449.2 1244.59,-449.2 1250.59,-449.2 1256.59,-455.2 1256.59,-461.2 1256.59,-461.2 1256.59,-473.2 1256.59,-473.2 1256.59,-479.2 1250.59,-485.2 1244.59,-485.2"/>
<text xml:space="preserve" text-anchor="middle" x="1203" y="-464.2" font-family="Helvetica,sans-Serif" font-size="10.00">subgaussian_rip_tail</text>
</a>
</g>
</g>
<!-- n50&#45;&gt;n0 -->
<g id="edge67" class="edge">
<title>n50&#45;&gt;n0</title>
<path fill="none" stroke="#64748b" d="M1149.06,-465.97C958.08,-464.77 321.23,-457.46 242,-413.2 224.99,-403.7 228.79,-392.71 217,-377.2 209.26,-367.01 200.33,-356.1 192.48,-346.76"/>
<polygon fill="#64748b" stroke="#64748b" points="194.35,-345.18 187.96,-341.42 190.61,-348.35 194.35,-345.18"/>
</g>
<!-- n50&#45;&gt;n1 -->
<g id="edge63" class="edge">
<title>n50&#45;&gt;n1</title>
<path fill="none" stroke="#64748b" d="M1149.21,-463.35C944.84,-452.51 227.72,-414.41 222,-413.2 220,-412.78 217.97,-412.28 215.93,-411.73"/>
<polygon fill="#64748b" stroke="#64748b" points="216.96,-409.48 209.55,-409.79 215.54,-414.17 216.96,-409.48"/>
</g>
<!-- n50&#45;&gt;n2 -->
<g id="edge64" class="edge">
<title>n50&#45;&gt;n2</title>
<path fill="none" stroke="#64748b" d="M1149.18,-464.99C961.32,-460.54 335.36,-443.74 137,-413.2 136.91,-413.19 136.83,-413.17 136.74,-413.16"/>
<polygon fill="#64748b" stroke="#64748b" points="137.38,-410.79 130.07,-411.99 136.54,-415.61 137.38,-410.79"/>
</g>
<!-- n50&#45;&gt;n4 -->
<g id="edge66" class="edge">
<title>n50&#45;&gt;n4</title>
<path fill="none" stroke="#64748b" d="M1256.98,-464.32C1441.04,-457.73 2034.57,-434.9 2069,-413.2 2084.48,-403.44 2073.69,-387.24 2089,-377.2 2104.31,-367.16 2158.11,-382.2 2171,-369.2 2192.51,-347.5 2196.88,-257.47 2180,-232 2129.62,-155.96 2079.26,-175.05 1991,-152 1709.94,-78.6 769.43,-43.17 566.01,-36.27"/>
<polygon fill="#64748b" stroke="#64748b" points="566.3,-33.83 559.22,-36.04 566.13,-38.73 566.3,-33.83"/>
</g>
<!-- n50&#45;&gt;n5 -->
<g id="edge65" class="edge">
<title>n50&#45;&gt;n5</title>
<path fill="none" stroke="#64748b" d="M1256.84,-464.89C1422.71,-460.55 1924.34,-445.07 2084,-413.2 2085.79,-412.84 2087.61,-412.43 2089.44,-411.99"/>
<polygon fill="#64748b" stroke="#64748b" points="2089.89,-414.4 2095.99,-410.19 2088.6,-409.68 2089.89,-414.4"/>
</g>
<!-- n50&#45;&gt;n6 -->
<g id="edge68" class="edge">
<title>n50&#45;&gt;n6</title>
<path fill="none" stroke="#64748b" d="M1256.73,-465.5C1357.7,-463.24 1571.02,-453.66 1631,-413.2 1646.17,-402.96 1637.95,-390.03 1651,-377.2 1656.39,-371.9 1661.65,-375.38 1666,-369.2 1701.34,-319.06 1719.99,-279.35 1681,-232 1653.33,-198.39 1528.52,-185.79 1458.33,-181.31"/>
<polygon fill="#64748b" stroke="#64748b" points="1458.7,-178.88 1451.56,-180.9 1458.4,-183.77 1458.7,-178.88"/>
</g>
<!-- n50&#45;&gt;n9 -->
<g id="edge71" class="edge">
<title>n50&#45;&gt;n9</title>
<path fill="none" stroke="#64748b" d="M1149.18,-465.14C955.95,-461.07 307.09,-445.07 277,-413.2 220.62,-353.5 370.19,-169.55 382,-152 386.78,-144.9 392.38,-137.53 397.72,-130.85"/>
<polygon fill="#64748b" stroke="#64748b" points="399.46,-132.59 401.98,-125.62 395.66,-129.5 399.46,-132.59"/>
</g>
<!-- n50&#45;&gt;n11 -->
<g id="edge73" class="edge">
<title>n50&#45;&gt;n11</title>
<path fill="none" stroke="#64748b" d="M1149.15,-463.32C999.92,-455.2 583.1,-431.51 447,-413.2 446.91,-413.19 446.82,-413.18 446.73,-413.16"/>
<polygon fill="#64748b" stroke="#64748b" points="447.16,-410.75 439.88,-412.17 446.45,-415.6 447.16,-410.75"/>
</g>
<!-- n50&#45;&gt;n19 -->
<g id="edge74" class="edge">
<title>n50&#45;&gt;n19</title>
<path fill="none" stroke="#64748b" d="M1256.99,-465.01C1404.62,-461.39 1827.38,-448.48 2177,-413.2 2177.09,-413.19 2177.18,-413.18 2177.26,-413.17"/>
<polygon fill="#64748b" stroke="#64748b" points="2177.32,-415.63 2184.03,-412.45 2176.81,-410.76 2177.32,-415.63"/>
</g>
<!-- n50&#45;&gt;n23 -->
<g id="edge76" class="edge">
<title>n50&#45;&gt;n23</title>
<path fill="none" stroke="#64748b" d="M1149.26,-463.34C1045.55,-457.37 810.75,-441.74 615,-413.2 614.72,-413.16 614.45,-413.12 614.17,-413.08"/>
<polygon fill="#64748b" stroke="#64748b" points="614.82,-410.7 607.53,-412.04 614.07,-415.54 614.82,-410.7"/>
</g>
<!-- n50&#45;&gt;n24 -->
<g id="edge77" class="edge">
<title>n50&#45;&gt;n24</title>
<path fill="none" stroke="#64748b" d="M1148.92,-456.68C1094.43,-446.82 1008.05,-430.46 934,-413.2 931.97,-412.73 929.91,-412.23 927.83,-411.73"/>
<polygon fill="#64748b" stroke="#64748b" points="928.61,-409.4 921.22,-410.08 927.42,-414.15 928.61,-409.4"/>
</g>
<!-- n50&#45;&gt;n25 -->
<g id="edge78" class="edge">
<title>n50&#45;&gt;n25</title>
<path fill="none" stroke="#64748b" d="M1149.01,-465.04C953.6,-460.6 292.94,-443.39 260,-413.2 230.14,-385.83 247,-363.5 247,-323 247,-323 247,-323 247,-249 247,-207.81 237.45,-160.75 230.66,-132.48"/>
<polygon fill="#64748b" stroke="#64748b" points="233.07,-132.02 229.02,-125.81 228.31,-133.19 233.07,-132.02"/>
</g>
<!-- n50&#45;&gt;n26 -->
<g id="edge79" class="edge">
<title>n50&#45;&gt;n26</title>
<path fill="none" stroke="#64748b" d="M1208.02,-448.8C1212.66,-428.64 1216.37,-395.82 1198,-377.2 1180.01,-358.97 1103.59,-384.44 1083,-369.2 1058.05,-350.74 1079.49,-326.39 1058,-304 1042.93,-288.3 1022.44,-277 1002.51,-268.98"/>
<polygon fill="#64748b" stroke="#64748b" points="1003.44,-266.71 996.03,-266.49 1001.69,-271.29 1003.44,-266.71"/>
</g>
<!-- n50&#45;&gt;n27 -->
<g id="edge80" class="edge">
<title>n50&#45;&gt;n27</title>
<path fill="none" stroke="#64748b" d="M1149.01,-463.36C1102.93,-458.62 1036.75,-446.1 989,-413.2 972.96,-402.15 981.15,-386.43 964,-377.2 947.71,-368.43 644.56,-381.79 631,-369.2 608.59,-348.4 603.85,-257.3 621,-232 626.09,-224.49 668.61,-208.32 704.23,-195.8"/>
<polygon fill="#64748b" stroke="#64748b" points="704.94,-198.14 710.74,-193.52 703.32,-193.52 704.94,-198.14"/>
</g>
<!-- n50&#45;&gt;n28 -->
<g id="edge82" class="edge">
<title>n50&#45;&gt;n28</title>
<path fill="none" stroke="#64748b" d="M1148.95,-459.8C1087.51,-451.58 992.1,-435.65 964,-413.2 950.17,-402.16 961.83,-386.85 947,-377.2 931.16,-366.9 620.2,-382.72 607,-369.2 603.82,-365.95 606.23,-234.79 608,-232 627.61,-201.13 656,-221.72 682,-196 697.54,-180.62 687.97,-166.87 704,-152 720.76,-136.46 743.62,-125.94 764.15,-119.01"/>
<polygon fill="#64748b" stroke="#64748b" points="764.83,-121.36 770.75,-116.89 763.34,-116.7 764.83,-121.36"/>
</g>
<!-- n50&#45;&gt;n30 -->
<g id="edge83" class="edge">
<title>n50&#45;&gt;n30</title>
<path fill="none" stroke="#64748b" d="M1149.06,-465.95C1095.43,-463.27 1012.89,-452.35 954,-413.2 937.78,-402.41 946.15,-386.43 929,-377.2 896.41,-359.65 626.24,-390.53 596,-369.2 570.64,-351.31 590.05,-328.5 571,-304 561.5,-291.79 548.43,-281.22 535.86,-272.8"/>
<polygon fill="#64748b" stroke="#64748b" points="537.43,-270.9 530.22,-269.17 534.78,-275.02 537.43,-270.9"/>
</g>
<!-- n50&#45;&gt;n31 -->
<g id="edge90" class="edge">
<title>n50&#45;&gt;n31</title>
<path fill="none" stroke="#64748b" d="M1200.54,-448.95C1196.85,-425.71 1189.09,-386.2 1178,-377.2 1167.62,-368.78 1071.04,-372.1 1058,-369.2 960.66,-347.57 853.39,-299.77 795.91,-272.04"/>
<polygon fill="#64748b" stroke="#64748b" points="797.21,-269.94 789.84,-269.09 795.07,-274.35 797.21,-269.94"/>
</g>
<!-- n50&#45;&gt;n32 -->
<g id="edge81" class="edge">
<title>n50&#45;&gt;n32</title>
<path fill="none" stroke="#64748b" d="M1197.57,-448.85C1189.87,-425.48 1175.37,-385.82 1163,-377.2 1152.49,-369.87 1060.72,-370.67 1048,-369.2 982.28,-361.62 908.59,-349.63 852.48,-339.77"/>
<polygon fill="#64748b" stroke="#64748b" points="853.14,-337.4 845.82,-338.59 852.28,-342.22 853.14,-337.4"/>
</g>
<!-- n50&#45;&gt;n33 -->
<g id="edge84" class="edge">
<title>n50&#45;&gt;n33</title>
<path fill="none" stroke="#64748b" d="M1171.28,-448.72C1154.03,-439.21 1132.56,-427.37 1114.37,-417.35"/>
<polygon fill="#64748b" stroke="#64748b" points="1115.95,-415.42 1108.64,-414.19 1113.59,-419.72 1115.95,-415.42"/>
</g>
<!-- n50&#45;&gt;n34 -->
<g id="edge85" class="edge">
<title>n50&#45;&gt;n34</title>
<path fill="none" stroke="#64748b" d="M1256.91,-460.94C1331.44,-451.69 1451.8,-428.4 1405,-377.2 1391.6,-362.54 1333.61,-378.37 1316,-369.2 1282.37,-351.7 1292.23,-325.49 1261,-304 1240.32,-289.77 1215.43,-278.99 1191.84,-271.01"/>
<polygon fill="#64748b" stroke="#64748b" points="1192.75,-268.73 1185.33,-268.88 1191.22,-273.38 1192.75,-268.73"/>
</g>
<!-- n50&#45;&gt;n35 -->
<g id="edge86" class="edge">
<title>n50&#45;&gt;n35</title>
<path fill="none" stroke="#64748b" d="M1210.99,-448.99C1218.31,-430.7 1226.8,-401.18 1218,-377.2 1213.82,-365.83 1206.09,-355.21 1198.13,-346.43"/>
<polygon fill="#64748b" stroke="#64748b" points="1200.01,-344.85 1193.4,-341.48 1196.46,-348.23 1200.01,-344.85"/>
</g>
<!-- n50&#45;&gt;n36 -->
<g id="edge87" class="edge">
<title>n50&#45;&gt;n36</title>
<path fill="none" stroke="#64748b" d="M1233.22,-448.72C1249.51,-439.29 1269.75,-427.58 1286.98,-417.61"/>
<polygon fill="#64748b" stroke="#64748b" points="1288.02,-419.84 1292.85,-414.22 1285.57,-415.6 1288.02,-419.84"/>
</g>
<!-- n50&#45;&gt;n37 -->
<g id="edge89" class="edge">
<title>n50&#45;&gt;n37</title>
<path fill="none" stroke="#64748b" d="M1256.95,-464.53C1400.35,-459.7 1783.34,-444.02 1831,-413.2 1846.37,-403.26 1835.53,-386.99 1851,-377.2 1874.34,-362.44 1953.1,-386.02 1975,-369.2 1999.26,-350.57 1974.47,-324.68 1997,-304 2046.55,-258.51 2102.48,-320.92 2144,-268 2187.51,-212.55 2060.55,-190.5 1990.67,-182.73"/>
<polygon fill="#64748b" stroke="#64748b" points="1991.17,-180.32 1983.95,-182.01 1990.65,-185.19 1991.17,-180.32"/>
</g>
<!-- n50&#45;&gt;n41 -->
<g id="edge88" class="edge">
<title>n50&#45;&gt;n41</title>
<path fill="none" stroke="#64748b" d="M1257.01,-460.76C1340.58,-452.11 1506.19,-434.06 1646,-413.2 1648.03,-412.9 1650.08,-412.58 1652.15,-412.26"/>
<polygon fill="#64748b" stroke="#64748b" points="1652.18,-414.74 1658.71,-411.22 1651.41,-409.9 1652.18,-414.74"/>
</g>
<!-- n50&#45;&gt;n46 -->
<g id="edge91" class="edge">
<title>n50&#45;&gt;n46</title>
<path fill="none" stroke="#64748b" d="M1257.03,-454.56C1306.51,-443.91 1380.67,-427.93 1438.91,-415.39"/>
<polygon fill="#64748b" stroke="#64748b" points="1439.21,-417.83 1445.54,-413.96 1438.18,-413.04 1439.21,-417.83"/>
</g>
<!-- n50&#45;&gt;n47 -->
<g id="edge92" class="edge">
<title>n50&#45;&gt;n47</title>
<path fill="none" stroke="#64748b" d="M1148.97,-459.46C1075.23,-450.14 938.73,-432.39 812.89,-413.16"/>
<polygon fill="#64748b" stroke="#64748b" points="813.4,-410.76 806.11,-412.12 812.66,-415.6 813.4,-410.76"/>
</g>
<!-- n50&#45;&gt;n49 -->
<g id="edge93" class="edge">
<title>n50&#45;&gt;n49</title>
<path fill="none" stroke="#64748b" d="M1256.89,-462.96C1367.52,-456.04 1628.19,-438.39 1846,-413.2 1847.86,-412.99 1849.73,-412.76 1851.62,-412.54"/>
<polygon fill="#64748b" stroke="#64748b" points="1851.81,-414.98 1858.46,-411.69 1851.21,-410.12 1851.81,-414.98"/>
</g>
<!-- n7 -->
<g id="node43" class="node">
<title>n7</title>
<g id="a_node43"><a xlink:href="vscode://vscode-remote/wsl+Ubuntu/home/ai4stat/statlib/Statlib/StatFoundation/RandomVariable/SubGaussian/subgaussian_fourth_moment_le.lean:8" xlink:title="lemma · Statlib/StatFoundation/RandomVariable/SubGaussian/subgaussian_fourth_moment_le.lean:8" target="_blank">
<path fill="#eef2f6" stroke="#94a3b8" d="M2776.05,-340C2776.05,-340 2663.95,-340 2663.95,-340 2657.95,-340 2651.95,-334 2651.95,-328 2651.95,-328 2651.95,-316 2651.95,-316 2651.95,-310 2657.95,-304 2663.95,-304 2663.95,-304 2776.05,-304 2776.05,-304 2782.05,-304 2788.05,-310 2788.05,-316 2788.05,-316 2788.05,-328 2788.05,-328 2788.05,-334 2782.05,-340 2776.05,-340"/>
<text xml:space="preserve" text-anchor="middle" x="2720" y="-319" font-family="Helvetica,sans-Serif" font-size="10.00">cosh_ge_one_add_half_sq</text>
</a>
</g>
</g>
<!-- n50&#45;&gt;n7 -->
<g id="edge69" class="edge">
<title>n50&#45;&gt;n7</title>
<path fill="none" stroke="#64748b" d="M1256.91,-466.52C1426.66,-466.93 1965.02,-463.88 2407,-413.2 2513,-401.05 2543.23,-407.02 2643,-369.2 2659.14,-363.08 2675.72,-353.62 2689.34,-344.84"/>
<polygon fill="#64748b" stroke="#64748b" points="2690.41,-347.07 2694.91,-341.17 2687.72,-342.98 2690.41,-347.07"/>
</g>
<!-- n8 -->
<g id="node44" class="node">
<title>n8</title>
<g id="a_node44"><a xlink:href="vscode://vscode-remote/wsl+Ubuntu/home/ai4stat/statlib/Statlib/StatFoundation/RandomVariable/SubGaussian/subgaussian_variance_le.lean:8" xlink:title="theorem · Statlib/StatFoundation/RandomVariable/SubGaussian/subgaussian_variance_le.lean:8" target="_blank">
<path fill="#ffe6a3" stroke="#d4a017" d="M2922.43,-340C2922.43,-340 2817.57,-340 2817.57,-340 2811.57,-340 2805.57,-334 2805.57,-328 2805.57,-328 2805.57,-316 2805.57,-316 2805.57,-310 2811.57,-304 2817.57,-304 2817.57,-304 2922.43,-304 2922.43,-304 2928.43,-304 2934.43,-310 2934.43,-316 2934.43,-316 2934.43,-328 2934.43,-328 2934.43,-334 2928.43,-340 2922.43,-340"/>
<text xml:space="preserve" text-anchor="middle" x="2870" y="-319" font-family="Helvetica,sans-Serif" font-size="10.00">subgaussian_variance_le</text>
</a>
</g>
</g>
<!-- n50&#45;&gt;n8 -->
<g id="edge70" class="edge">
<title>n50&#45;&gt;n8</title>
<path fill="none" stroke="#64748b" d="M1256.81,-466.4C1437.09,-466.57 2036.13,-463.08 2528,-413.2 2648.53,-400.98 2683.76,-412.24 2797,-369.2 2812.5,-363.31 2828.22,-353.89 2841.09,-345.09"/>
<polygon fill="#64748b" stroke="#64748b" points="2842.36,-347.19 2846.68,-341.17 2839.54,-343.18 2842.36,-347.19"/>
</g>
<!-- n10 -->
<g id="node45" class="node">
<title>n10</title>
<g id="a_node45"><a xlink:href="vscode://vscode-remote/wsl+Ubuntu/home/ai4stat/statlib/Statlib/StatFoundation/Vocabulary/RandomVariable.lean:74" xlink:title="structure · Statlib/StatFoundation/Vocabulary/RandomVariable.lean:74" target="_blank">
<path fill="#e8dcff" stroke="#8b5cf6" d="M3220.47,-268C3220.47,-268 3119.53,-268 3119.53,-268 3113.53,-268 3107.53,-262 3107.53,-256 3107.53,-256 3107.53,-244 3107.53,-244 3107.53,-238 3113.53,-232 3119.53,-232 3119.53,-232 3220.47,-232 3220.47,-232 3226.47,-232 3232.47,-238 3232.47,-244 3232.47,-244 3232.47,-256 3232.47,-256 3232.47,-262 3226.47,-268 3220.47,-268"/>
<text xml:space="preserve" text-anchor="middle" x="3170" y="-247" font-family="Helvetica,sans-Serif" font-size="10.00">HasSubexponentialMGF</text>
</a>
</g>
</g>
<!-- n50&#45;&gt;n10 -->
<g id="edge72" class="edge">
<title>n50&#45;&gt;n10</title>
<path fill="none" stroke="#64748b" d="M1256.89,-466.1C1459.7,-465.37 2196.25,-459.49 2801,-413.2 2964.36,-400.7 3056.74,-490.38 3167,-369.2 3189.56,-344.4 3184.56,-303.14 3177.98,-276.51"/>
<polygon fill="#64748b" stroke="#64748b" points="3180.38,-276.01 3176.21,-269.88 3175.64,-277.27 3180.38,-276.01"/>
</g>
<!-- n20 -->
<g id="node52" class="node">
<title>n20</title>
<g id="a_node52"><a xlink:href="vscode://vscode-remote/wsl+Ubuntu/home/ai4stat/statlib/Statlib/StatFoundation/Concentration/ExponentialType/bernstein_sum_meas_abs_ge_le_two_exp.lean:13" xlink:title="theorem · Statlib/StatFoundation/Concentration/ExponentialType/bernstein_sum_meas_abs_ge_le_two_exp.lean:13" target="_blank">
<path fill="#ffe6a3" stroke="#d4a017" d="M3146.06,-340C3146.06,-340 2963.94,-340 2963.94,-340 2957.94,-340 2951.94,-334 2951.94,-328 2951.94,-328 2951.94,-316 2951.94,-316 2951.94,-310 2957.94,-304 2963.94,-304 2963.94,-304 3146.06,-304 3146.06,-304 3152.06,-304 3158.06,-310 3158.06,-316 3158.06,-316 3158.06,-328 3158.06,-328 3158.06,-334 3152.06,-340 3146.06,-340"/>
<text xml:space="preserve" text-anchor="middle" x="3055" y="-319" font-family="Helvetica,sans-Serif" font-size="10.00">bernstein_sum_meas_abs_ge_le_two_exp</text>
</a>
</g>
</g>
<!-- n50&#45;&gt;n20 -->
<g id="edge75" class="edge">
<title>n50&#45;&gt;n20</title>
<path fill="none" stroke="#64748b" d="M1256.88,-466.58C1448.75,-467.42 2116.41,-466.12 2664,-413.2 2788.95,-401.12 2822.14,-403.15 2943,-369.2 2966.16,-362.69 2990.99,-352.78 3011.36,-343.8"/>
<polygon fill="#64748b" stroke="#64748b" points="3012.17,-346.12 3017.56,-341.03 3010.17,-341.65 3012.17,-346.12"/>
</g>
<!-- n51 -->
<g id="node42" class="node">
<title>n51</title>
<g id="a_node42"><a xlink:href="vscode://vscode-remote/wsl+Ubuntu/home/ai4stat/statlib/Statlib/HighDim/Geometry/RIPConstruction.lean:1619" xlink:title="theorem · Statlib/HighDim/Geometry/RIPConstruction.lean:1619" target="_blank">
<path fill="#ffe6a3" stroke="#d4a017" stroke-width="3" d="M1115.71,-557.2C1115.71,-557.2 960.29,-557.2 960.29,-557.2 954.29,-557.2 948.29,-551.2 948.29,-545.2 948.29,-545.2 948.29,-533.2 948.29,-533.2 948.29,-527.2 954.29,-521.2 960.29,-521.2 960.29,-521.2 1115.71,-521.2 1115.71,-521.2 1121.71,-521.2 1127.71,-527.2 1127.71,-533.2 1127.71,-533.2 1127.71,-545.2 1127.71,-545.2 1127.71,-551.2 1121.71,-557.2 1115.71,-557.2"/>
<text xml:space="preserve" text-anchor="middle" x="1038" y="-536.2" font-family="Helvetica,sans-Serif" font-size="10.00">subgaussian_rip_sample_complexity</text>
</a>
</g>
</g>
<!-- n51&#45;&gt;n1 -->
<g id="edge94" class="edge">
<title>n51&#45;&gt;n1</title>
<path fill="none" stroke="#64748b" d="M947.09,-530.53C795.04,-516.33 480.37,-480.99 222,-413.2 220.02,-412.68 218.01,-412.11 215.99,-411.49"/>
<polygon fill="#64748b" stroke="#64748b" points="217.05,-409.26 209.64,-409.41 215.53,-413.92 217.05,-409.26"/>
</g>
<!-- n51&#45;&gt;n2 -->
<g id="edge95" class="edge">
<title>n51&#45;&gt;n2</title>
<path fill="none" stroke="#64748b" d="M946.92,-536.07C821.53,-531.93 589.09,-519.87 394,-485.2 300.77,-468.63 195.49,-437 131.44,-416.25"/>
<polygon fill="#64748b" stroke="#64748b" points="132.31,-413.96 124.9,-414.12 130.79,-418.62 132.31,-413.96"/>
</g>
<!-- n51&#45;&gt;n5 -->
<g id="edge96" class="edge">
<title>n51&#45;&gt;n5</title>
<path fill="none" stroke="#64748b" d="M1129.02,-533.91C1312.02,-523.85 1736.69,-493.22 2084,-413.2 2085.78,-412.79 2087.59,-412.34 2089.41,-411.85"/>
<polygon fill="#64748b" stroke="#64748b" points="2089.9,-414.26 2095.95,-409.96 2088.54,-409.55 2089.9,-414.26"/>
</g>
<!-- n51&#45;&gt;n50 -->
<g id="edge97" class="edge">
<title>n51&#45;&gt;n50</title>
<path fill="none" stroke="#64748b" d="M1081.35,-519.81C1103.74,-510.31 1131.14,-498.69 1154.26,-488.88"/>
<polygon fill="#64748b" stroke="#64748b" points="1155.04,-491.21 1160.53,-486.22 1153.13,-486.7 1155.04,-491.21"/>
</g>
<!-- n13 -->
<g id="node46" class="node">
<title>n13</title>
<g id="a_node46"><a xlink:href="vscode://vscode-remote/wsl+Ubuntu/home/ai4stat/statlib/Statlib/StatFoundation/RandomVariable/SubExponential/subexp_mgf_le_of_sq_subgaussian.lean:13" xlink:title="lemma · Statlib/StatFoundation/RandomVariable/SubExponential/subexp_mgf_le_of_sq_subgaussian.lean:13" target="_blank">
<path fill="#eef2f6" stroke="#94a3b8" d="M2753.2,-268C2753.2,-268 2672.8,-268 2672.8,-268 2666.8,-268 2660.8,-262 2660.8,-256 2660.8,-256 2660.8,-244 2660.8,-244 2660.8,-238 2666.8,-232 2672.8,-232 2672.8,-232 2753.2,-232 2753.2,-232 2759.2,-232 2765.2,-238 2765.2,-244 2765.2,-244 2765.2,-256 2765.2,-256 2765.2,-262 2759.2,-268 2753.2,-268"/>
<text xml:space="preserve" text-anchor="middle" x="2713" y="-247" font-family="Helvetica,sans-Serif" font-size="10.00">sub_gauss_tail_abs</text>
</a>
</g>
</g>
<!-- n14 -->
<g id="node47" class="node">
<title>n14</title>
<g id="a_node47"><a xlink:href="vscode://vscode-remote/wsl+Ubuntu/home/ai4stat/statlib/Statlib/StatFoundation/RandomVariable/SubGaussian/sq_le_two_mul_exp.lean:10" xlink:title="lemma · Statlib/StatFoundation/RandomVariable/SubGaussian/sq_le_two_mul_exp.lean:10" target="_blank">
<path fill="#eef2f6" stroke="#94a3b8" d="M2875.19,-268C2875.19,-268 2794.81,-268 2794.81,-268 2788.81,-268 2782.81,-262 2782.81,-256 2782.81,-256 2782.81,-244 2782.81,-244 2782.81,-238 2788.81,-232 2794.81,-232 2794.81,-232 2875.19,-232 2875.19,-232 2881.19,-232 2887.19,-238 2887.19,-244 2887.19,-244 2887.19,-256 2887.19,-256 2887.19,-262 2881.19,-268 2875.19,-268"/>
<text xml:space="preserve" text-anchor="middle" x="2835" y="-247" font-family="Helvetica,sans-Serif" font-size="10.00">sq_le_two_mul_exp</text>
</a>
</g>
</g>
<!-- n15 -->
<g id="node48" class="node">
<title>n15</title>
<g id="a_node48"><a xlink:href="vscode://vscode-remote/wsl+Ubuntu/home/ai4stat/statlib/Statlib/StatFoundation/RandomVariable/SubGaussian/subgaussian_meas_abs_ge_le_two_exp.lean:9" xlink:title="theorem · Statlib/StatFoundation/RandomVariable/SubGaussian/subgaussian_meas_abs_ge_le_two_exp.lean:9" target="_blank">
<path fill="#ffe6a3" stroke="#d4a017" d="M2850.34,-196C2850.34,-196 2677.66,-196 2677.66,-196 2671.66,-196 2665.66,-190 2665.66,-184 2665.66,-184 2665.66,-172 2665.66,-172 2665.66,-166 2671.66,-160 2677.66,-160 2677.66,-160 2850.34,-160 2850.34,-160 2856.34,-160 2862.34,-166 2862.34,-172 2862.34,-172 2862.34,-184 2862.34,-184 2862.34,-190 2856.34,-196 2850.34,-196"/>
<text xml:space="preserve" text-anchor="middle" x="2764" y="-175" font-family="Helvetica,sans-Serif" font-size="10.00">subgaussian_meas_abs_ge_le_two_exp</text>
</a>
</g>
</g>
<!-- n16 -->
<g id="node49" class="node">
<title>n16</title>
<g id="a_node49"><a xlink:href="vscode://vscode-remote/wsl+Ubuntu/home/ai4stat/statlib/Statlib/StatFoundation/RandomVariable/SubGaussian/subgaussian_exp_sq_le_at_one_third.lean:14" xlink:title="theorem · Statlib/StatFoundation/RandomVariable/SubGaussian/subgaussian_exp_sq_le_at_one_third.lean:14" target="_blank">
<path fill="#ffe6a3" stroke="#d4a017" d="M3077.23,-268C3077.23,-268 2916.77,-268 2916.77,-268 2910.77,-268 2904.77,-262 2904.77,-256 2904.77,-256 2904.77,-244 2904.77,-244 2904.77,-238 2910.77,-232 2916.77,-232 2916.77,-232 3077.23,-232 3077.23,-232 3083.23,-232 3089.23,-238 3089.23,-244 3089.23,-244 3089.23,-256 3089.23,-256 3089.23,-262 3083.23,-268 3077.23,-268"/>
<text xml:space="preserve" text-anchor="middle" x="2997" y="-247" font-family="Helvetica,sans-Serif" font-size="10.00">subgaussian_exp_sq_le_at_one_third</text>
</a>
</g>
</g>
<!-- n16&#45;&gt;n15 -->
<g id="edge5" class="edge">
<title>n16&#45;&gt;n15</title>
<path fill="none" stroke="#64748b" d="M2938.81,-231.52C2905.74,-221.58 2864.22,-209.11 2829.95,-198.81"/>
<polygon fill="#64748b" stroke="#64748b" points="2830.71,-196.48 2823.31,-196.82 2829.3,-201.18 2830.71,-196.48"/>
</g>
<!-- n17 -->
<g id="node50" class="node">
<title>n17</title>
<g id="a_node50"><a xlink:href="vscode://vscode-remote/wsl+Ubuntu/home/ai4stat/statlib/Statlib/StatFoundation/RandomVariable/SubGaussian/subgaussian_exp_sq_le_at_one_third.lean:166" xlink:title="theorem · Statlib/StatFoundation/RandomVariable/SubGaussian/subgaussian_exp_sq_le_at_one_third.lean:166" target="_blank">
<path fill="#ffe6a3" stroke="#d4a017" d="M2630.3,-268C2630.3,-268 2433.7,-268 2433.7,-268 2427.7,-268 2421.7,-262 2421.7,-256 2421.7,-256 2421.7,-244 2421.7,-244 2421.7,-238 2427.7,-232 2433.7,-232 2433.7,-232 2630.3,-232 2630.3,-232 2636.3,-232 2642.3,-238 2642.3,-244 2642.3,-244 2642.3,-256 2642.3,-256 2642.3,-262 2636.3,-268 2630.3,-268"/>
<text xml:space="preserve" text-anchor="middle" x="2532" y="-247" font-family="Helvetica,sans-Serif" font-size="10.00">subgaussian_integrable_exp_sq_at_one_third</text>
</a>
</g>
</g>
<!-- n17&#45;&gt;n15 -->
<g id="edge6" class="edge">
<title>n17&#45;&gt;n15</title>
<path fill="none" stroke="#64748b" d="M2589.94,-231.52C2622.87,-221.58 2664.21,-209.11 2698.33,-198.81"/>
<polygon fill="#64748b" stroke="#64748b" points="2698.95,-201.19 2704.94,-196.82 2697.53,-196.5 2698.95,-201.19"/>
</g>
<!-- n18&#45;&gt;n13 -->
<g id="edge7" class="edge">
<title>n18&#45;&gt;n13</title>
<path fill="none" stroke="#64748b" d="M2574.21,-303.52C2600.02,-293.75 2632.31,-281.53 2659.25,-271.34"/>
<polygon fill="#64748b" stroke="#64748b" points="2659.97,-273.69 2665.65,-268.92 2658.23,-269.1 2659.97,-273.69"/>
</g>
<!-- n18&#45;&gt;n14 -->
<g id="edge8" class="edge">
<title>n18&#45;&gt;n14</title>
<path fill="none" stroke="#64748b" d="M2615.1,-303.55C2662.28,-293.77 2721.51,-280.96 2774,-268 2774.09,-267.98 2774.17,-267.96 2774.26,-267.94"/>
<polygon fill="#64748b" stroke="#64748b" points="2774.83,-270.32 2781.01,-266.22 2773.63,-265.57 2774.83,-270.32"/>
</g>
<!-- n18&#45;&gt;n16 -->
<g id="edge9" class="edge">
<title>n18&#45;&gt;n16</title>
<path fill="none" stroke="#64748b" d="M2634.2,-305.28C2637.17,-304.85 2640.1,-304.42 2643,-304 2752.77,-288.08 2782.39,-285.54 2895.95,-267.99"/>
<polygon fill="#64748b" stroke="#64748b" points="2896.24,-270.43 2902.78,-266.93 2895.49,-265.58 2896.24,-270.43"/>
</g>
<!-- n18&#45;&gt;n17 -->
<g id="edge10" class="edge">
<title>n18&#45;&gt;n17</title>
<path fill="none" stroke="#64748b" d="M2528.99,-303.7C2529.46,-295.47 2530.03,-285.48 2530.55,-276.42"/>
<polygon fill="#64748b" stroke="#64748b" points="2532.98,-276.74 2530.94,-269.62 2528.09,-276.46 2532.98,-276.74"/>
</g>
<!-- n20&#45;&gt;n10 -->
<g id="edge13" class="edge">
<title>n20&#45;&gt;n10</title>
<path fill="none" stroke="#64748b" d="M3083.72,-303.52C3099.07,-294.18 3118.1,-282.59 3134.38,-272.68"/>
<polygon fill="#64748b" stroke="#64748b" points="3135.64,-274.78 3140.35,-269.05 3133.1,-270.59 3135.64,-274.78"/>
</g>
</g>
</svg>
