<?xml version="1.0" encoding="UTF-8" standalone="no"?>
<!DOCTYPE svg PUBLIC "-//W3C//DTD SVG 1.1//EN"
 "http://www.w3.org/Graphics/SVG/1.1/DTD/svg11.dtd">
<!-- Generated by graphviz version 15.0.0 (20260523.1842)
 -->
<!-- Title: trace_exp_add_log_simpleFunc_jensen_posDef Pages: 1 -->
<svg width="2044pt" height="986pt"
 viewBox="0.00 0.00 2044.00 986.00" xmlns="http://www.w3.org/2000/svg" xmlns:xlink="http://www.w3.org/1999/xlink">
<g id="graph0" class="graph" transform="scale(1 1) rotate(0) translate(4 982)">
<title>trace_exp_add_log_simpleFunc_jensen_posDef</title>
<polygon fill="white" stroke="none" points="-4,4 -4,-982 2040,-982 2040,4 -4,4"/>
<text xml:space="preserve" text-anchor="middle" x="1018" y="-961.4" font-family="Helvetica,sans-Serif" font-size="14.00">Proof narrative — trace_exp_add_log_simpleFunc_jensen_posDef &#160;(43 decls)</text>
<g id="clust1" class="cluster">
<title>cluster_0</title>
<path fill="none" stroke="#cbd5e1" stroke-dasharray="5,2" d="M20,-8C20,-8 2016,-8 2016,-8 2022,-8 2028,-14 2028,-20 2028,-20 2028,-933.2 2028,-933.2 2028,-939.2 2022,-945.2 2016,-945.2 2016,-945.2 20,-945.2 20,-945.2 14,-945.2 8,-939.2 8,-933.2 8,-933.2 8,-20 8,-20 8,-14 14,-8 20,-8"/>
<text xml:space="preserve" text-anchor="middle" x="1018" y="-931.3" font-family="Helvetica,sans-Serif" font-size="11.00">HighDim</text>
</g>
<!-- n0 -->
<g id="node1" class="node">
<title>n0</title>
<g id="a_node1"><a xlink:href="https://github.com/statopia/statlib/blob/main/Statlib/HighDim/MatrixAnalysis/LiebTraceConcavity.lean#L43" xlink:title="theorem · Statlib/HighDim/MatrixAnalysis/LiebTraceConcavity.lean:43" target="_blank">
<path fill="#ffe6a3" stroke="#d4a017" d="M1449.15,-628C1449.15,-628 1324.85,-628 1324.85,-628 1318.85,-628 1312.85,-622 1312.85,-616 1312.85,-616 1312.85,-604 1312.85,-604 1312.85,-598 1318.85,-592 1324.85,-592 1324.85,-592 1449.15,-592 1449.15,-592 1455.15,-592 1461.15,-598 1461.15,-604 1461.15,-604 1461.15,-616 1461.15,-616 1461.15,-622 1455.15,-628 1449.15,-628"/>
<text xml:space="preserve" text-anchor="middle" x="1387" y="-607" font-family="Helvetica,sans-Serif" font-size="10.00">matrix_posDef_weighted_add</text>
</a>
</g>
</g>
<!-- n1 -->
<g id="node2" class="node">
<title>n1</title>
<g id="a_node2"><a xlink:href="https://github.com/statopia/statlib/blob/main/Statlib/HighDim/MatrixAnalysis/LiebTraceConcavity.lean#L59" xlink:title="theorem · Statlib/HighDim/MatrixAnalysis/LiebTraceConcavity.lean:59" target="_blank">
<path fill="#ffe6a3" stroke="#d4a017" d="M1483.48,-700C1483.48,-700 1362.52,-700 1362.52,-700 1356.52,-700 1350.52,-694 1350.52,-688 1350.52,-688 1350.52,-676 1350.52,-676 1350.52,-670 1356.52,-664 1362.52,-664 1362.52,-664 1483.48,-664 1483.48,-664 1489.48,-664 1495.48,-670 1495.48,-676 1495.48,-676 1495.48,-688 1495.48,-688 1495.48,-694 1489.48,-700 1483.48,-700"/>
<text xml:space="preserve" text-anchor="middle" x="1423" y="-679" font-family="Helvetica,sans-Serif" font-size="10.00">matrix_posDef_cone_convex</text>
</a>
</g>
</g>
<!-- n1&#45;&gt;n0 -->
<g id="edge1" class="edge">
<title>n1&#45;&gt;n0</title>
<path fill="none" stroke="#64748b" d="M1414.1,-663.7C1409.74,-655.22 1404.42,-644.86 1399.64,-635.58"/>
<polygon fill="#64748b" stroke="#64748b" points="1401.87,-634.55 1396.49,-629.45 1397.51,-636.8 1401.87,-634.55"/>
</g>
<!-- n2 -->
<g id="node3" class="node">
<title>n2</title>
<g id="a_node3"><a xlink:href="https://github.com/statopia/statlib/blob/main/Statlib/HighDim/MatrixAnalysis/LiebTraceConcavity.lean#L27" xlink:title="private theorem · Statlib/HighDim/MatrixAnalysis/LiebTraceConcavity.lean:27" target="_blank">
<path fill="#ffe6a3" stroke="#d4a017" d="M1773.25,-628C1773.25,-628 1676.75,-628 1676.75,-628 1670.75,-628 1664.75,-622 1664.75,-616 1664.75,-616 1664.75,-604 1664.75,-604 1664.75,-598 1670.75,-592 1676.75,-592 1676.75,-592 1773.25,-592 1773.25,-592 1779.25,-592 1785.25,-598 1785.25,-604 1785.25,-604 1785.25,-616 1785.25,-616 1785.25,-622 1779.25,-628 1773.25,-628"/>
<text xml:space="preserve" text-anchor="middle" x="1725" y="-607" font-family="Helvetica,sans-Serif" font-size="10.00">posDef_convex_combo</text>
</a>
</g>
</g>
<!-- n3 -->
<g id="node4" class="node">
<title>n3</title>
<g id="a_node4"><a xlink:href="https://github.com/statopia/statlib/blob/main/Statlib/HighDim/Vocabulary/Quantum.lean#L17" xlink:title="noncomputable def · Statlib/HighDim/Vocabulary/Quantum.lean:17" target="_blank">
<path fill="#d6e9ff" stroke="#3b82f6" d="M1701.75,-412C1701.75,-412 1600.25,-412 1600.25,-412 1594.25,-412 1588.25,-406 1588.25,-400 1588.25,-400 1588.25,-388 1588.25,-388 1588.25,-382 1594.25,-376 1600.25,-376 1600.25,-376 1701.75,-376 1701.75,-376 1707.75,-376 1713.75,-382 1713.75,-388 1713.75,-388 1713.75,-400 1713.75,-400 1713.75,-406 1707.75,-412 1701.75,-412"/>
<text xml:space="preserve" text-anchor="middle" x="1651" y="-391" font-family="Helvetica,sans-Serif" font-size="10.00">quantumRelativeEntropy</text>
</a>
</g>
</g>
<!-- n4 -->
<g id="node5" class="node">
<title>n4</title>
<g id="a_node5"><a xlink:href="https://github.com/statopia/statlib/blob/main/Statlib/HighDim/MatrixAnalysis/TraceExp.lean#L89" xlink:title="theorem · Statlib/HighDim/MatrixAnalysis/TraceExp.lean:89" target="_blank">
<path fill="#ffe6a3" stroke="#d4a017" d="M1356.54,-340C1356.54,-340 1189.46,-340 1189.46,-340 1183.46,-340 1177.46,-334 1177.46,-328 1177.46,-328 1177.46,-316 1177.46,-316 1177.46,-310 1183.46,-304 1189.46,-304 1189.46,-304 1356.54,-304 1356.54,-304 1362.54,-304 1368.54,-310 1368.54,-316 1368.54,-316 1368.54,-328 1368.54,-328 1368.54,-334 1362.54,-340 1356.54,-340"/>
<text xml:space="preserve" text-anchor="middle" x="1273" y="-319" font-family="Helvetica,sans-Serif" font-size="10.00">real_log_matrix_isHermitian_of_posDef</text>
</a>
</g>
</g>
<!-- n5 -->
<g id="node6" class="node">
<title>n5</title>
<g id="a_node6"><a xlink:href="https://github.com/statopia/statlib/blob/main/Statlib/HighDim/MatrixAnalysis/TraceExp.lean#L74" xlink:title="theorem · Statlib/HighDim/MatrixAnalysis/TraceExp.lean:74" target="_blank">
<path fill="#ffe6a3" stroke="#d4a017" d="M2007.59,-268C2007.59,-268 1894.41,-268 1894.41,-268 1888.41,-268 1882.41,-262 1882.41,-256 1882.41,-256 1882.41,-244 1882.41,-244 1882.41,-238 1888.41,-232 1894.41,-232 1894.41,-232 2007.59,-232 2007.59,-232 2013.59,-232 2019.59,-238 2019.59,-244 2019.59,-244 2019.59,-256 2019.59,-256 2019.59,-262 2013.59,-268 2007.59,-268"/>
<text xml:space="preserve" text-anchor="middle" x="1951" y="-247" font-family="Helvetica,sans-Serif" font-size="10.00">hermitian_exp_posSemidef</text>
</a>
</g>
</g>
<!-- n6 -->
<g id="node7" class="node">
<title>n6</title>
<g id="a_node7"><a xlink:href="https://github.com/statopia/statlib/blob/main/Statlib/HighDim/MatrixAnalysis/TraceExp.lean#L83" xlink:title="theorem · Statlib/HighDim/MatrixAnalysis/TraceExp.lean:83" target="_blank">
<path fill="#ffe6a3" stroke="#d4a017" d="M2008.03,-340C2008.03,-340 1915.97,-340 1915.97,-340 1909.97,-340 1903.97,-334 1903.97,-328 1903.97,-328 1903.97,-316 1903.97,-316 1903.97,-310 1909.97,-304 1915.97,-304 1915.97,-304 2008.03,-304 2008.03,-304 2014.03,-304 2020.03,-310 2020.03,-316 2020.03,-316 2020.03,-328 2020.03,-328 2020.03,-334 2014.03,-340 2008.03,-340"/>
<text xml:space="preserve" text-anchor="middle" x="1962" y="-319" font-family="Helvetica,sans-Serif" font-size="10.00">hermitian_exp_posDef</text>
</a>
</g>
</g>
<!-- n6&#45;&gt;n5 -->
<g id="edge2" class="edge">
<title>n6&#45;&gt;n5</title>
<path fill="none" stroke="#64748b" d="M1959.28,-303.7C1957.99,-295.47 1956.42,-285.48 1954.99,-276.42"/>
<polygon fill="#64748b" stroke="#64748b" points="1957.43,-276.13 1953.92,-269.6 1952.59,-276.9 1957.43,-276.13"/>
</g>
<!-- n7 -->
<g id="node8" class="node">
<title>n7</title>
<g id="a_node8"><a xlink:href="https://github.com/statopia/statlib/blob/main/Statlib/HighDim/SpectralPerturbation/Eigenvalues.lean#L582" xlink:title="lemma · Statlib/HighDim/SpectralPerturbation/Eigenvalues.lean:582" target="_blank">
<path fill="#eef2f6" stroke="#94a3b8" d="M1819.69,-412C1819.69,-412 1764.31,-412 1764.31,-412 1758.31,-412 1752.31,-406 1752.31,-400 1752.31,-400 1752.31,-388 1752.31,-388 1752.31,-382 1758.31,-376 1764.31,-376 1764.31,-376 1819.69,-376 1819.69,-376 1825.69,-376 1831.69,-382 1831.69,-388 1831.69,-388 1831.69,-400 1831.69,-400 1831.69,-406 1825.69,-412 1819.69,-412"/>
<text xml:space="preserve" text-anchor="middle" x="1792" y="-391" font-family="Helvetica,sans-Serif" font-size="10.00">add_hermitian</text>
</a>
</g>
</g>
<!-- n8 -->
<g id="node9" class="node">
<title>n8</title>
<g id="a_node9"><a xlink:href="https://github.com/statopia/statlib/blob/main/Statlib/HighDim/MatrixAnalysis/KleinTraceExpVariationalLb.lean#L9" xlink:title="theorem · Statlib/HighDim/MatrixAnalysis/KleinTraceExpVariationalLb.lean:9" target="_blank">
<path fill="#ffe6a3" stroke="#d4a017" d="M2008.27,-412C2008.27,-412 1881.73,-412 1881.73,-412 1875.73,-412 1869.73,-406 1869.73,-400 1869.73,-400 1869.73,-388 1869.73,-388 1869.73,-382 1875.73,-376 1881.73,-376 1881.73,-376 2008.27,-376 2008.27,-376 2014.27,-376 2020.27,-382 2020.27,-388 2020.27,-388 2020.27,-400 2020.27,-400 2020.27,-406 2014.27,-412 2008.27,-412"/>
<text xml:space="preserve" text-anchor="middle" x="1945" y="-391" font-family="Helvetica,sans-Serif" font-size="10.00">klein_trace_exp_variational_lb</text>
</a>
</g>
</g>
<!-- n8&#45;&gt;n6 -->
<g id="edge3" class="edge">
<title>n8&#45;&gt;n6</title>
<path fill="none" stroke="#64748b" d="M1949.2,-375.7C1951.22,-367.39 1953.68,-357.28 1955.89,-348.14"/>
<polygon fill="#64748b" stroke="#64748b" points="1958.22,-348.96 1957.49,-341.58 1953.46,-347.8 1958.22,-348.96"/>
</g>
<!-- n9 -->
<g id="node10" class="node">
<title>n9</title>
<g id="a_node10"><a xlink:href="https://github.com/statopia/statlib/blob/main/Statlib/HighDim/MatrixAnalysis/TraceExpVariationalFormula.lean#L13" xlink:title="theorem · Statlib/HighDim/MatrixAnalysis/TraceExpVariationalFormula.lean:13" target="_blank">
<path fill="#ffe6a3" stroke="#d4a017" d="M1862.98,-484C1862.98,-484 1737.02,-484 1737.02,-484 1731.02,-484 1725.02,-478 1725.02,-472 1725.02,-472 1725.02,-460 1725.02,-460 1725.02,-454 1731.02,-448 1737.02,-448 1737.02,-448 1862.98,-448 1862.98,-448 1868.98,-448 1874.98,-454 1874.98,-460 1874.98,-460 1874.98,-472 1874.98,-472 1874.98,-478 1868.98,-484 1862.98,-484"/>
<text xml:space="preserve" text-anchor="middle" x="1800" y="-463" font-family="Helvetica,sans-Serif" font-size="10.00">trace_exp_variational_formula</text>
</a>
</g>
</g>
<!-- n9&#45;&gt;n3 -->
<g id="edge4" class="edge">
<title>n9&#45;&gt;n3</title>
<path fill="none" stroke="#64748b" d="M1762.79,-447.52C1742.44,-437.96 1717.1,-426.05 1695.69,-416"/>
<polygon fill="#64748b" stroke="#64748b" points="1696.75,-413.78 1689.37,-413.03 1694.66,-418.22 1696.75,-413.78"/>
</g>
<!-- n9&#45;&gt;n4 -->
<g id="edge5" class="edge">
<title>n9&#45;&gt;n4</title>
<path fill="none" stroke="#64748b" d="M1778.13,-447.54C1766.81,-437.83 1753.25,-425.08 1743,-412 1731.71,-397.59 1738.27,-386.09 1723,-376 1660.51,-334.73 1466.29,-349.25 1377.29,-339.89"/>
<polygon fill="#64748b" stroke="#64748b" points="1377.76,-337.48 1370.52,-339.08 1377.18,-342.34 1377.76,-337.48"/>
</g>
<!-- n9&#45;&gt;n6 -->
<g id="edge6" class="edge">
<title>n9&#45;&gt;n6</title>
<path fill="none" stroke="#64748b" d="M1814.35,-447.82C1822.56,-437.68 1832.81,-424.43 1841,-412 1851.07,-396.72 1847.9,-388.79 1861,-376 1874.39,-362.92 1891.66,-352.28 1908.13,-344.05"/>
<polygon fill="#64748b" stroke="#64748b" points="1909.01,-346.34 1914.25,-341.1 1906.88,-341.93 1909.01,-346.34"/>
</g>
<!-- n9&#45;&gt;n7 -->
<g id="edge7" class="edge">
<title>n9&#45;&gt;n7</title>
<path fill="none" stroke="#64748b" d="M1798.02,-447.7C1797.08,-439.47 1795.94,-429.48 1794.91,-420.42"/>
<polygon fill="#64748b" stroke="#64748b" points="1797.36,-420.28 1794.13,-413.61 1792.49,-420.84 1797.36,-420.28"/>
</g>
<!-- n9&#45;&gt;n8 -->
<g id="edge8" class="edge">
<title>n9&#45;&gt;n8</title>
<path fill="none" stroke="#64748b" d="M1836.22,-447.52C1856.01,-437.96 1880.67,-426.05 1901.51,-416"/>
<polygon fill="#64748b" stroke="#64748b" points="1902.39,-418.29 1907.63,-413.04 1900.26,-413.88 1902.39,-418.29"/>
</g>
<!-- n10 -->
<g id="node11" class="node">
<title>n10</title>
<g id="a_node11"><a xlink:href="https://github.com/statopia/statlib/blob/main/Statlib/HighDim/MatrixAnalysis/RelativeEntropyJointConvex.lean#L101" xlink:title="noncomputable def · Statlib/HighDim/MatrixAnalysis/RelativeEntropyJointConvex.lean:101" target="_blank">
<path fill="#d6e9ff" stroke="#3b82f6" d="M1165.97,-412C1165.97,-412 1100.03,-412 1100.03,-412 1094.03,-412 1088.03,-406 1088.03,-400 1088.03,-400 1088.03,-388 1088.03,-388 1088.03,-382 1094.03,-376 1100.03,-376 1100.03,-376 1165.97,-376 1165.97,-376 1171.97,-376 1177.97,-382 1177.97,-388 1177.97,-388 1177.97,-400 1177.97,-400 1177.97,-406 1171.97,-412 1165.97,-412"/>
<text xml:space="preserve" text-anchor="middle" x="1133" y="-391" font-family="Helvetica,sans-Serif" font-size="10.00">perspectiveInner</text>
</a>
</g>
</g>
<!-- n11 -->
<g id="node12" class="node">
<title>n11</title>
<g id="a_node12"><a xlink:href="https://github.com/statopia/statlib/blob/main/Statlib/HighDim/MatrixAnalysis/RelativeEntropyJointConvex.lean#L16" xlink:title="def · Statlib/HighDim/MatrixAnalysis/RelativeEntropyJointConvex.lean:16" target="_blank">
<path fill="#d6e9ff" stroke="#3b82f6" d="M1632.51,-268C1632.51,-268 1565.49,-268 1565.49,-268 1559.49,-268 1553.49,-262 1553.49,-256 1553.49,-256 1553.49,-244 1553.49,-244 1553.49,-238 1559.49,-232 1565.49,-232 1565.49,-232 1632.51,-232 1632.51,-232 1638.51,-232 1644.51,-238 1644.51,-244 1644.51,-244 1644.51,-256 1644.51,-256 1644.51,-262 1638.51,-268 1632.51,-268"/>
<text xml:space="preserve" text-anchor="middle" x="1599" y="-247" font-family="Helvetica,sans-Serif" font-size="10.00">leftMulKronecker</text>
</a>
</g>
</g>
<!-- n12 -->
<g id="node13" class="node">
<title>n12</title>
<g id="a_node13"><a xlink:href="https://github.com/statopia/statlib/blob/main/Statlib/HighDim/MatrixAnalysis/RelativeEntropyJointConvex.lean#L22" xlink:title="def · Statlib/HighDim/MatrixAnalysis/RelativeEntropyJointConvex.lean:22" target="_blank">
<path fill="#d6e9ff" stroke="#3b82f6" d="M373.57,-268C373.57,-268 300.43,-268 300.43,-268 294.43,-268 288.43,-262 288.43,-256 288.43,-256 288.43,-244 288.43,-244 288.43,-238 294.43,-232 300.43,-232 300.43,-232 373.57,-232 373.57,-232 379.57,-232 385.57,-238 385.57,-244 385.57,-244 385.57,-256 385.57,-256 385.57,-262 379.57,-268 373.57,-268"/>
<text xml:space="preserve" text-anchor="middle" x="337" y="-247" font-family="Helvetica,sans-Serif" font-size="10.00">rightMulKronecker</text>
</a>
</g>
</g>
<!-- n13 -->
<g id="node14" class="node">
<title>n13</title>
<g id="a_node14"><a xlink:href="https://github.com/statopia/statlib/blob/main/Statlib/HighDim/MatrixAnalysis/RelativeEntropyJointConvex.lean#L27" xlink:title="def · Statlib/HighDim/MatrixAnalysis/RelativeEntropyJointConvex.lean:27" target="_blank">
<path fill="#d6e9ff" stroke="#3b82f6" d="M1057.75,-412C1057.75,-412 966.25,-412 966.25,-412 960.25,-412 954.25,-406 954.25,-400 954.25,-400 954.25,-388 954.25,-388 954.25,-382 960.25,-376 966.25,-376 966.25,-376 1057.75,-376 1057.75,-376 1063.75,-376 1069.75,-382 1069.75,-388 1069.75,-388 1069.75,-400 1069.75,-400 1069.75,-406 1063.75,-412 1057.75,-412"/>
<text xml:space="preserve" text-anchor="middle" x="1012" y="-391" font-family="Helvetica,sans-Serif" font-size="10.00">hilbertSchmidtVecOne</text>
</a>
</g>
</g>
<!-- n14 -->
<g id="node15" class="node">
<title>n14</title>
<g id="a_node15"><a xlink:href="https://github.com/statopia/statlib/blob/main/Statlib/HighDim/MatrixAnalysis/RelativeEntropyJointConvex.lean#L66" xlink:title="lemma · Statlib/HighDim/MatrixAnalysis/RelativeEntropyJointConvex.lean:66" target="_blank">
<path fill="#eef2f6" stroke="#94a3b8" d="M1498.14,-412C1498.14,-412 1393.86,-412 1393.86,-412 1387.86,-412 1381.86,-406 1381.86,-400 1381.86,-400 1381.86,-388 1381.86,-388 1381.86,-382 1387.86,-376 1393.86,-376 1393.86,-376 1498.14,-376 1498.14,-376 1504.14,-376 1510.14,-382 1510.14,-388 1510.14,-388 1510.14,-400 1510.14,-400 1510.14,-406 1504.14,-412 1498.14,-412"/>
<text xml:space="preserve" text-anchor="middle" x="1446" y="-391" font-family="Helvetica,sans-Serif" font-size="10.00">leftMulKronecker_posDef</text>
</a>
</g>
</g>
<!-- n14&#45;&gt;n11 -->
<g id="edge9" class="edge">
<title>n14&#45;&gt;n11</title>
<path fill="none" stroke="#64748b" d="M1510.44,-378.41C1574.15,-363.83 1662.53,-343.14 1665,-340 1674.89,-327.43 1671.92,-318.43 1665,-304 1659.11,-291.71 1648.82,-281.37 1638.1,-273.18"/>
<polygon fill="#64748b" stroke="#64748b" points="1639.74,-271.34 1632.63,-269.24 1636.88,-275.32 1639.74,-271.34"/>
</g>
<!-- n15 -->
<g id="node16" class="node">
<title>n15</title>
<g id="a_node16"><a xlink:href="https://github.com/statopia/statlib/blob/main/Statlib/HighDim/MatrixAnalysis/RelativeEntropyJointConvex.lean#L70" xlink:title="lemma · Statlib/HighDim/MatrixAnalysis/RelativeEntropyJointConvex.lean:70" target="_blank">
<path fill="#eef2f6" stroke="#94a3b8" d="M478.19,-412C478.19,-412 367.81,-412 367.81,-412 361.81,-412 355.81,-406 355.81,-400 355.81,-400 355.81,-388 355.81,-388 355.81,-382 361.81,-376 367.81,-376 367.81,-376 478.19,-376 478.19,-376 484.19,-376 490.19,-382 490.19,-388 490.19,-388 490.19,-400 490.19,-400 490.19,-406 484.19,-412 478.19,-412"/>
<text xml:space="preserve" text-anchor="middle" x="423" y="-391" font-family="Helvetica,sans-Serif" font-size="10.00">rightMulKronecker_posDef</text>
</a>
</g>
</g>
<!-- n15&#45;&gt;n12 -->
<g id="edge10" class="edge">
<title>n15&#45;&gt;n12</title>
<path fill="none" stroke="#64748b" d="M402.87,-375.65C392.59,-365.97 380.48,-353.22 372,-340 359.25,-320.13 349.86,-294.87 344.04,-276.34"/>
<polygon fill="#64748b" stroke="#64748b" points="346.43,-275.78 342.05,-269.79 341.74,-277.2 346.43,-275.78"/>
</g>
<!-- n16 -->
<g id="node17" class="node">
<title>n16</title>
<g id="a_node17"><a xlink:href="https://github.com/statopia/statlib/blob/main/Statlib/HighDim/MatrixAnalysis/RelativeEntropyJointConvex.lean#L77" xlink:title="lemma · Statlib/HighDim/MatrixAnalysis/RelativeEntropyJointConvex.lean:77" target="_blank">
<path fill="#eef2f6" stroke="#94a3b8" d="M770.26,-340C770.26,-340 583.74,-340 583.74,-340 577.74,-340 571.74,-334 571.74,-328 571.74,-328 571.74,-316 571.74,-316 571.74,-310 577.74,-304 583.74,-304 583.74,-304 770.26,-304 770.26,-304 776.26,-304 782.26,-310 782.26,-316 782.26,-316 782.26,-328 782.26,-328 782.26,-334 776.26,-340 770.26,-340"/>
<text xml:space="preserve" text-anchor="middle" x="677" y="-319" font-family="Helvetica,sans-Serif" font-size="10.00">leftMulKronecker_comm_rightMulKronecker</text>
</a>
</g>
</g>
<!-- n16&#45;&gt;n11 -->
<g id="edge11" class="edge">
<title>n16&#45;&gt;n11</title>
<path fill="none" stroke="#64748b" d="M782.57,-308.77C798.78,-307.06 815.33,-305.41 831,-304 970.06,-291.53 1393.66,-264.11 1544.75,-254.45"/>
<polygon fill="#64748b" stroke="#64748b" points="1544.68,-256.91 1551.51,-254.02 1544.37,-252.02 1544.68,-256.91"/>
</g>
<!-- n16&#45;&gt;n12 -->
<g id="edge12" class="edge">
<title>n16&#45;&gt;n12</title>
<path fill="none" stroke="#64748b" d="M592.08,-303.52C530.16,-290.77 447.94,-273.84 393.8,-262.69"/>
<polygon fill="#64748b" stroke="#64748b" points="394.52,-260.34 387.17,-261.33 393.53,-265.14 394.52,-260.34"/>
</g>
<!-- n17 -->
<g id="node18" class="node">
<title>n17</title>
<g id="a_node18"><a xlink:href="https://github.com/statopia/statlib/blob/main/Statlib/HighDim/MatrixAnalysis/TraceExp.lean#L94" xlink:title="theorem · Statlib/HighDim/MatrixAnalysis/TraceExp.lean:94" target="_blank">
<path fill="#ffe6a3" stroke="#d4a017" d="M1147.6,-340C1147.6,-340 1014.4,-340 1014.4,-340 1008.4,-340 1002.4,-334 1002.4,-328 1002.4,-328 1002.4,-316 1002.4,-316 1002.4,-310 1008.4,-304 1014.4,-304 1014.4,-304 1147.6,-304 1147.6,-304 1153.6,-304 1159.6,-310 1159.6,-316 1159.6,-316 1159.6,-328 1159.6,-328 1159.6,-334 1153.6,-340 1147.6,-340"/>
<text xml:space="preserve" text-anchor="middle" x="1081" y="-319" font-family="Helvetica,sans-Serif" font-size="10.00">real_matrix_exp_log_of_posDef</text>
</a>
</g>
</g>
<!-- n18 -->
<g id="node19" class="node">
<title>n18</title>
<g id="a_node19"><a xlink:href="https://github.com/statopia/statlib/blob/main/Statlib/HighDim/MatrixAnalysis/RelativeEntropyJointConvex.lean#L30" xlink:title="lemma · Statlib/HighDim/MatrixAnalysis/RelativeEntropyJointConvex.lean:30" target="_blank">
<path fill="#eef2f6" stroke="#94a3b8" d="M1833.53,-340C1833.53,-340 1706.47,-340 1706.47,-340 1700.47,-340 1694.47,-334 1694.47,-328 1694.47,-328 1694.47,-316 1694.47,-316 1694.47,-310 1700.47,-304 1706.47,-304 1706.47,-304 1833.53,-304 1833.53,-304 1839.53,-304 1845.53,-310 1845.53,-316 1845.53,-316 1845.53,-328 1845.53,-328 1845.53,-334 1839.53,-340 1833.53,-340"/>
<text xml:space="preserve" text-anchor="middle" x="1770" y="-319" font-family="Helvetica,sans-Serif" font-size="10.00">leftMulKronecker_mulVec_vec</text>
</a>
</g>
</g>
<!-- n18&#45;&gt;n11 -->
<g id="edge13" class="edge">
<title>n18&#45;&gt;n11</title>
<path fill="none" stroke="#64748b" d="M1727.29,-303.52C1703.64,-293.83 1674.09,-281.74 1649.32,-271.6"/>
<polygon fill="#64748b" stroke="#64748b" points="1650.27,-269.34 1642.86,-268.96 1648.41,-273.87 1650.27,-269.34"/>
</g>
<!-- n19 -->
<g id="node20" class="node">
<title>n19</title>
<g id="a_node20"><a xlink:href="https://github.com/statopia/statlib/blob/main/Statlib/HighDim/MatrixAnalysis/RelativeEntropyJointConvex.lean#L35" xlink:title="lemma · Statlib/HighDim/MatrixAnalysis/RelativeEntropyJointConvex.lean:35" target="_blank">
<path fill="#eef2f6" stroke="#94a3b8" d="M541.59,-340C541.59,-340 408.41,-340 408.41,-340 402.41,-340 396.41,-334 396.41,-328 396.41,-328 396.41,-316 396.41,-316 396.41,-310 402.41,-304 408.41,-304 408.41,-304 541.59,-304 541.59,-304 547.59,-304 553.59,-310 553.59,-316 553.59,-316 553.59,-328 553.59,-328 553.59,-334 547.59,-340 541.59,-340"/>
<text xml:space="preserve" text-anchor="middle" x="475" y="-319" font-family="Helvetica,sans-Serif" font-size="10.00">rightMulKronecker_mulVec_vec</text>
</a>
</g>
</g>
<!-- n19&#45;&gt;n12 -->
<g id="edge14" class="edge">
<title>n19&#45;&gt;n12</title>
<path fill="none" stroke="#64748b" d="M440.53,-303.52C421.7,-293.97 398.25,-282.07 378.43,-272.01"/>
<polygon fill="#64748b" stroke="#64748b" points="379.73,-269.93 372.38,-268.95 377.51,-274.3 379.73,-269.93"/>
</g>
<!-- n20 -->
<g id="node21" class="node">
<title>n20</title>
<g id="a_node21"><a xlink:href="https://github.com/statopia/statlib/blob/main/Statlib/HighDim/MatrixAnalysis/RelativeEntropyJointConvex.lean#L115" xlink:title="lemma · Statlib/HighDim/MatrixAnalysis/RelativeEntropyJointConvex.lean:115" target="_blank">
<path fill="#eef2f6" stroke="#94a3b8" d="M1295.84,-484C1295.84,-484 1098.16,-484 1098.16,-484 1092.16,-484 1086.16,-478 1086.16,-472 1086.16,-472 1086.16,-460 1086.16,-460 1086.16,-454 1092.16,-448 1098.16,-448 1098.16,-448 1295.84,-448 1295.84,-448 1301.84,-448 1307.84,-454 1307.84,-460 1307.84,-460 1307.84,-472 1307.84,-472 1307.84,-478 1301.84,-484 1295.84,-484"/>
<text xml:space="preserve" text-anchor="middle" x="1197" y="-463" font-family="Helvetica,sans-Serif" font-size="10.00">quantumRelativeEntropy_eq_perspectiveInner</text>
</a>
</g>
</g>
<!-- n20&#45;&gt;n3 -->
<g id="edge15" class="edge">
<title>n20&#45;&gt;n3</title>
<path fill="none" stroke="#64748b" d="M1308.07,-449.27C1378.59,-439.1 1471.73,-425.31 1554,-412 1562.31,-410.65 1571.02,-409.2 1579.66,-407.72"/>
<polygon fill="#64748b" stroke="#64748b" points="1579.93,-410.16 1586.41,-406.56 1579.1,-405.33 1579.93,-410.16"/>
</g>
<!-- n20&#45;&gt;n4 -->
<g id="edge23" class="edge">
<title>n20&#45;&gt;n4</title>
<path fill="none" stroke="#64748b" d="M1200.69,-447.77C1205.14,-429.21 1213.71,-399.21 1227,-376 1233.04,-365.45 1241.36,-355.07 1249.27,-346.34"/>
<polygon fill="#64748b" stroke="#64748b" points="1250.89,-348.18 1253.88,-341.39 1247.31,-344.84 1250.89,-348.18"/>
</g>
<!-- n20&#45;&gt;n10 -->
<g id="edge16" class="edge">
<title>n20&#45;&gt;n10</title>
<path fill="none" stroke="#64748b" d="M1181.18,-447.7C1173.04,-438.8 1163.01,-427.82 1154.21,-418.2"/>
<polygon fill="#64748b" stroke="#64748b" points="1156.19,-416.73 1149.66,-413.22 1152.57,-420.04 1156.19,-416.73"/>
</g>
<!-- n20&#45;&gt;n11 -->
<g id="edge17" class="edge">
<title>n20&#45;&gt;n11</title>
<path fill="none" stroke="#64748b" d="M1308.1,-456.74C1392.11,-448.83 1499.23,-434.69 1537,-412 1554.14,-401.7 1546.7,-386.03 1564,-376 1620.38,-343.33 1811.85,-388.82 1855,-340 1914.15,-273.08 1744.83,-256.47 1653.33,-252.35"/>
<polygon fill="#64748b" stroke="#64748b" points="1653.61,-249.91 1646.51,-252.06 1653.41,-254.81 1653.61,-249.91"/>
</g>
<!-- n20&#45;&gt;n12 -->
<g id="edge18" class="edge">
<title>n20&#45;&gt;n12</title>
<path fill="none" stroke="#64748b" d="M1086.08,-454.93C1060.44,-452.63 1033.27,-450.21 1008,-448 819.6,-431.53 767.58,-457.44 584,-412 544.18,-402.14 537.46,-390.29 499,-376 449.99,-357.79 427.05,-373.61 387,-340 373.14,-328.37 376.79,-319.81 368,-304 362.74,-294.54 356.77,-284.24 351.49,-275.26"/>
<polygon fill="#64748b" stroke="#64748b" points="353.68,-274.16 348.01,-269.38 349.47,-276.65 353.68,-274.16"/>
</g>
<!-- n20&#45;&gt;n13 -->
<g id="edge19" class="edge">
<title>n20&#45;&gt;n13</title>
<path fill="none" stroke="#64748b" d="M1150.79,-447.52C1124.98,-437.75 1092.69,-425.53 1065.75,-415.34"/>
<polygon fill="#64748b" stroke="#64748b" points="1066.77,-413.1 1059.35,-412.92 1065.03,-417.69 1066.77,-413.1"/>
</g>
<!-- n20&#45;&gt;n14 -->
<g id="edge20" class="edge">
<title>n20&#45;&gt;n14</title>
<path fill="none" stroke="#64748b" d="M1259.19,-447.52C1294.68,-437.54 1339.27,-425 1375.98,-414.68"/>
<polygon fill="#64748b" stroke="#64748b" points="1376.64,-417.04 1382.71,-412.79 1375.31,-412.33 1376.64,-417.04"/>
</g>
<!-- n20&#45;&gt;n15 -->
<g id="edge21" class="edge">
<title>n20&#45;&gt;n15</title>
<path fill="none" stroke="#64748b" d="M1086.1,-454.68C1060.46,-452.39 1033.29,-450.04 1008,-448 784.16,-429.94 726.4,-443.14 504,-412 502.21,-411.75 500.4,-411.48 498.57,-411.2"/>
<polygon fill="#64748b" stroke="#64748b" points="499.3,-408.84 492,-410.13 498.51,-413.67 499.3,-408.84"/>
</g>
<!-- n20&#45;&gt;n16 -->
<g id="edge22" class="edge">
<title>n20&#45;&gt;n16</title>
<path fill="none" stroke="#64748b" d="M1085.89,-454.18C945.87,-440.34 722.41,-417.5 715,-412 704.26,-404.03 692.18,-371.54 684.58,-348.12"/>
<polygon fill="#64748b" stroke="#64748b" points="687,-347.64 682.55,-341.71 682.33,-349.13 687,-347.64"/>
</g>
<!-- n20&#45;&gt;n17 -->
<g id="edge24" class="edge">
<title>n20&#45;&gt;n17</title>
<path fill="none" stroke="#64748b" d="M1199.64,-447.58C1201.59,-428.3 1201.78,-397.16 1187,-376 1177.33,-362.15 1162.97,-351.74 1147.92,-343.98"/>
<polygon fill="#64748b" stroke="#64748b" points="1149.22,-341.89 1141.85,-341.04 1147.08,-346.3 1149.22,-341.89"/>
</g>
<!-- n20&#45;&gt;n18 -->
<g id="edge25" class="edge">
<title>n20&#45;&gt;n18</title>
<path fill="none" stroke="#64748b" d="M1308.17,-455.95C1386.94,-447.83 1484.51,-433.79 1519,-412 1535.47,-401.6 1527.89,-386.95 1544,-376 1556.06,-367.8 1626.68,-351.94 1685.82,-339.7"/>
<polygon fill="#64748b" stroke="#64748b" points="1686.24,-342.11 1692.6,-338.3 1685.25,-337.31 1686.24,-342.11"/>
</g>
<!-- n20&#45;&gt;n19 -->
<g id="edge26" class="edge">
<title>n20&#45;&gt;n19</title>
<path fill="none" stroke="#64748b" d="M1085.68,-455.04C948.31,-442.49 728.22,-421.41 691,-412 627.75,-396.01 558.72,-364.98 516.13,-344.12"/>
<polygon fill="#64748b" stroke="#64748b" points="517.47,-342.05 510.11,-341.15 515.3,-346.45 517.47,-342.05"/>
</g>
<!-- n21 -->
<g id="node22" class="node">
<title>n21</title>
<g id="a_node22"><a xlink:href="https://github.com/statopia/statlib/blob/main/Statlib/HighDim/MatrixAnalysis/RelativeEntropyJointConvex.lean#L40" xlink:title="lemma · Statlib/HighDim/MatrixAnalysis/RelativeEntropyJointConvex.lean:40" target="_blank">
<path fill="#eef2f6" stroke="#94a3b8" d="M1643.64,-340C1643.64,-340 1554.36,-340 1554.36,-340 1548.36,-340 1542.36,-334 1542.36,-328 1542.36,-328 1542.36,-316 1542.36,-316 1542.36,-310 1548.36,-304 1554.36,-304 1554.36,-304 1643.64,-304 1643.64,-304 1649.64,-304 1655.64,-310 1655.64,-316 1655.64,-316 1655.64,-328 1655.64,-328 1655.64,-334 1649.64,-340 1643.64,-340"/>
<text xml:space="preserve" text-anchor="middle" x="1599" y="-319" font-family="Helvetica,sans-Serif" font-size="10.00">leftMulKronecker_add</text>
</a>
</g>
</g>
<!-- n21&#45;&gt;n11 -->
<g id="edge27" class="edge">
<title>n21&#45;&gt;n11</title>
<path fill="none" stroke="#64748b" d="M1599,-303.7C1599,-295.47 1599,-285.48 1599,-276.42"/>
<polygon fill="#64748b" stroke="#64748b" points="1601.45,-276.62 1599,-269.62 1596.55,-276.62 1601.45,-276.62"/>
</g>
<!-- n22 -->
<g id="node23" class="node">
<title>n22</title>
<g id="a_node23"><a xlink:href="https://github.com/statopia/statlib/blob/main/Statlib/HighDim/MatrixAnalysis/RelativeEntropyJointConvex.lean#L44" xlink:title="lemma · Statlib/HighDim/MatrixAnalysis/RelativeEntropyJointConvex.lean:44" target="_blank">
<path fill="#eef2f6" stroke="#94a3b8" d="M1491.85,-340C1491.85,-340 1398.15,-340 1398.15,-340 1392.15,-340 1386.15,-334 1386.15,-328 1386.15,-328 1386.15,-316 1386.15,-316 1386.15,-310 1392.15,-304 1398.15,-304 1398.15,-304 1491.85,-304 1491.85,-304 1497.85,-304 1503.85,-310 1503.85,-316 1503.85,-316 1503.85,-328 1503.85,-328 1503.85,-334 1497.85,-340 1491.85,-340"/>
<text xml:space="preserve" text-anchor="middle" x="1445" y="-319" font-family="Helvetica,sans-Serif" font-size="10.00">leftMulKronecker_smul</text>
</a>
</g>
</g>
<!-- n22&#45;&gt;n11 -->
<g id="edge28" class="edge">
<title>n22&#45;&gt;n11</title>
<path fill="none" stroke="#64748b" d="M1483.46,-303.52C1504.58,-293.92 1530.91,-281.95 1553.1,-271.86"/>
<polygon fill="#64748b" stroke="#64748b" points="1554.02,-274.14 1559.38,-269.01 1552,-269.67 1554.02,-274.14"/>
</g>
<!-- n23 -->
<g id="node24" class="node">
<title>n23</title>
<g id="a_node24"><a xlink:href="https://github.com/statopia/statlib/blob/main/Statlib/HighDim/MatrixAnalysis/RelativeEntropyJointConvex.lean#L56" xlink:title="lemma · Statlib/HighDim/MatrixAnalysis/RelativeEntropyJointConvex.lean:56" target="_blank">
<path fill="#eef2f6" stroke="#94a3b8" d="M1352.14,-412C1352.14,-412 1247.86,-412 1247.86,-412 1241.86,-412 1235.86,-406 1235.86,-400 1235.86,-400 1235.86,-388 1235.86,-388 1235.86,-382 1241.86,-376 1247.86,-376 1247.86,-376 1352.14,-376 1352.14,-376 1358.14,-376 1364.14,-382 1364.14,-388 1364.14,-388 1364.14,-400 1364.14,-400 1364.14,-406 1358.14,-412 1352.14,-412"/>
<text xml:space="preserve" text-anchor="middle" x="1300" y="-391" font-family="Helvetica,sans-Serif" font-size="10.00">leftMulKronecker_convex</text>
</a>
</g>
</g>
<!-- n23&#45;&gt;n11 -->
<g id="edge29" class="edge">
<title>n23&#45;&gt;n11</title>
<path fill="none" stroke="#64748b" d="M1364.4,-377.62C1425.98,-362.82 1509.95,-342.34 1513,-340 1527.53,-328.87 1521.2,-317.99 1533,-304 1542.58,-292.64 1554.9,-281.98 1566.29,-273.24"/>
<polygon fill="#64748b" stroke="#64748b" points="1567.51,-275.39 1571.65,-269.24 1564.57,-271.47 1567.51,-275.39"/>
</g>
<!-- n23&#45;&gt;n21 -->
<g id="edge30" class="edge">
<title>n23&#45;&gt;n21</title>
<path fill="none" stroke="#64748b" d="M1364.49,-377.98C1367.36,-377.31 1370.21,-376.65 1373,-376 1441.88,-359.98 1459.17,-356.23 1528,-340 1530,-339.53 1532.03,-339.05 1534.07,-338.56"/>
<polygon fill="#64748b" stroke="#64748b" points="1534.32,-341.02 1540.57,-337.02 1533.19,-336.26 1534.32,-341.02"/>
</g>
<!-- n23&#45;&gt;n22 -->
<g id="edge31" class="edge">
<title>n23&#45;&gt;n22</title>
<path fill="none" stroke="#64748b" d="M1336.22,-375.52C1356.01,-365.96 1380.67,-354.05 1401.51,-344"/>
<polygon fill="#64748b" stroke="#64748b" points="1402.39,-346.29 1407.63,-341.04 1400.26,-341.88 1402.39,-346.29"/>
</g>
<!-- n24 -->
<g id="node25" class="node">
<title>n24</title>
<g id="a_node25"><a xlink:href="https://github.com/statopia/statlib/blob/main/Statlib/HighDim/MatrixAnalysis/RelativeEntropyJointConvex.lean#L48" xlink:title="lemma · Statlib/HighDim/MatrixAnalysis/RelativeEntropyJointConvex.lean:48" target="_blank">
<path fill="#eef2f6" stroke="#94a3b8" d="M163.69,-340C163.69,-340 68.31,-340 68.31,-340 62.31,-340 56.31,-334 56.31,-328 56.31,-328 56.31,-316 56.31,-316 56.31,-310 62.31,-304 68.31,-304 68.31,-304 163.69,-304 163.69,-304 169.69,-304 175.69,-310 175.69,-316 175.69,-316 175.69,-328 175.69,-328 175.69,-334 169.69,-340 163.69,-340"/>
<text xml:space="preserve" text-anchor="middle" x="116" y="-319" font-family="Helvetica,sans-Serif" font-size="10.00">rightMulKronecker_add</text>
</a>
</g>
</g>
<!-- n24&#45;&gt;n12 -->
<g id="edge32" class="edge">
<title>n24&#45;&gt;n12</title>
<path fill="none" stroke="#64748b" d="M171.2,-303.52C204.46,-292.98 246.72,-279.59 280.26,-268.97"/>
<polygon fill="#64748b" stroke="#64748b" points="280.77,-271.38 286.7,-266.93 279.29,-266.71 280.77,-271.38"/>
</g>
<!-- n25 -->
<g id="node26" class="node">
<title>n25</title>
<g id="a_node26"><a xlink:href="https://github.com/statopia/statlib/blob/main/Statlib/HighDim/MatrixAnalysis/RelativeEntropyJointConvex.lean#L52" xlink:title="lemma · Statlib/HighDim/MatrixAnalysis/RelativeEntropyJointConvex.lean:52" target="_blank">
<path fill="#eef2f6" stroke="#94a3b8" d="M305.91,-340C305.91,-340 206.09,-340 206.09,-340 200.09,-340 194.09,-334 194.09,-328 194.09,-328 194.09,-316 194.09,-316 194.09,-310 200.09,-304 206.09,-304 206.09,-304 305.91,-304 305.91,-304 311.91,-304 317.91,-310 317.91,-316 317.91,-316 317.91,-328 317.91,-328 317.91,-334 311.91,-340 305.91,-340"/>
<text xml:space="preserve" text-anchor="middle" x="256" y="-319" font-family="Helvetica,sans-Serif" font-size="10.00">rightMulKronecker_smul</text>
</a>
</g>
</g>
<!-- n25&#45;&gt;n12 -->
<g id="edge33" class="edge">
<title>n25&#45;&gt;n12</title>
<path fill="none" stroke="#64748b" d="M276.02,-303.7C286.44,-294.69 299.31,-283.57 310.54,-273.87"/>
<polygon fill="#64748b" stroke="#64748b" points="312.09,-275.77 315.78,-269.34 308.88,-272.06 312.09,-275.77"/>
</g>
<!-- n26 -->
<g id="node27" class="node">
<title>n26</title>
<g id="a_node27"><a xlink:href="https://github.com/statopia/statlib/blob/main/Statlib/HighDim/MatrixAnalysis/RelativeEntropyJointConvex.lean#L61" xlink:title="lemma · Statlib/HighDim/MatrixAnalysis/RelativeEntropyJointConvex.lean:61" target="_blank">
<path fill="#eef2f6" stroke="#94a3b8" d="M239.19,-412C239.19,-412 128.81,-412 128.81,-412 122.81,-412 116.81,-406 116.81,-400 116.81,-400 116.81,-388 116.81,-388 116.81,-382 122.81,-376 128.81,-376 128.81,-376 239.19,-376 239.19,-376 245.19,-376 251.19,-382 251.19,-388 251.19,-388 251.19,-400 251.19,-400 251.19,-406 245.19,-412 239.19,-412"/>
<text xml:space="preserve" text-anchor="middle" x="184" y="-391" font-family="Helvetica,sans-Serif" font-size="10.00">rightMulKronecker_convex</text>
</a>
</g>
</g>
<!-- n26&#45;&gt;n12 -->
<g id="edge34" class="edge">
<title>n26&#45;&gt;n12</title>
<path fill="none" stroke="#64748b" d="M116.62,-383.53C90.38,-376.18 62.86,-363.14 47,-340 37.95,-326.8 36.75,-316.29 47,-304 76.05,-269.15 203.95,-257.15 279.85,-253.07"/>
<polygon fill="#64748b" stroke="#64748b" points="279.56,-255.54 286.43,-252.73 279.31,-250.64 279.56,-255.54"/>
</g>
<!-- n26&#45;&gt;n24 -->
<g id="edge35" class="edge">
<title>n26&#45;&gt;n24</title>
<path fill="none" stroke="#64748b" d="M167.19,-375.7C158.54,-366.8 147.89,-355.82 138.54,-346.2"/>
<polygon fill="#64748b" stroke="#64748b" points="140.31,-344.5 133.67,-341.19 136.79,-347.92 140.31,-344.5"/>
</g>
<!-- n26&#45;&gt;n25 -->
<g id="edge36" class="edge">
<title>n26&#45;&gt;n25</title>
<path fill="none" stroke="#64748b" d="M201.8,-375.7C210.97,-366.78 222.28,-355.78 232.2,-346.14"/>
<polygon fill="#64748b" stroke="#64748b" points="233.76,-348.04 237.07,-341.4 230.35,-344.52 233.76,-348.04"/>
</g>
<!-- n27 -->
<g id="node28" class="node">
<title>n27</title>
<g id="a_node28"><a xlink:href="https://github.com/statopia/statlib/blob/main/Statlib/HighDim/MatrixAnalysis/TraceExp.lean#L316" xlink:title="theorem · Statlib/HighDim/MatrixAnalysis/TraceExp.lean:316" target="_blank">
<path fill="#ffe6a3" stroke="#d4a017" d="M1326.94,-196C1326.94,-196 1167.06,-196 1167.06,-196 1161.06,-196 1155.06,-190 1155.06,-184 1155.06,-184 1155.06,-172 1155.06,-172 1155.06,-166 1161.06,-160 1167.06,-160 1167.06,-160 1326.94,-160 1326.94,-160 1332.94,-160 1338.94,-166 1338.94,-172 1338.94,-172 1338.94,-184 1338.94,-184 1338.94,-190 1332.94,-196 1326.94,-196"/>
<text xml:space="preserve" text-anchor="middle" x="1247" y="-175" font-family="Helvetica,sans-Serif" font-size="10.00">matrix_integrable_of_entry_integrable</text>
</a>
</g>
</g>
<!-- n28 -->
<g id="node29" class="node">
<title>n28</title>
<g id="a_node29"><a xlink:href="https://github.com/statopia/statlib/blob/main/Statlib/HighDim/MatrixAnalysis/TraceExp.lean#L274" xlink:title="private theorem · Statlib/HighDim/MatrixAnalysis/TraceExp.lean:274" target="_blank">
<path fill="#ffe6a3" stroke="#d4a017" d="M971.37,-52C971.37,-52 812.63,-52 812.63,-52 806.63,-52 800.63,-46 800.63,-40 800.63,-40 800.63,-28 800.63,-28 800.63,-22 806.63,-16 812.63,-16 812.63,-16 971.37,-16 971.37,-16 977.37,-16 983.37,-22 983.37,-28 983.37,-28 983.37,-40 983.37,-40 983.37,-46 977.37,-52 971.37,-52"/>
<text xml:space="preserve" text-anchor="middle" x="892" y="-31" font-family="Helvetica,sans-Serif" font-size="10.00">matrix_entry_abs_le_l2_opNorm_rect</text>
</a>
</g>
</g>
<!-- n29 -->
<g id="node30" class="node">
<title>n29</title>
<g id="a_node30"><a xlink:href="https://github.com/statopia/statlib/blob/main/Statlib/HighDim/MatrixAnalysis/TraceExp.lean#L299" xlink:title="private def · Statlib/HighDim/MatrixAnalysis/TraceExp.lean:299" target="_blank">
<path fill="#d6e9ff" stroke="#3b82f6" d="M923.84,-124C923.84,-124 860.16,-124 860.16,-124 854.16,-124 848.16,-118 848.16,-112 848.16,-112 848.16,-100 848.16,-100 848.16,-94 854.16,-88 860.16,-88 860.16,-88 923.84,-88 923.84,-88 929.84,-88 935.84,-94 935.84,-100 935.84,-100 935.84,-112 935.84,-112 935.84,-118 929.84,-124 923.84,-124"/>
<text xml:space="preserve" text-anchor="middle" x="892" y="-103" font-family="Helvetica,sans-Serif" font-size="10.00">matrixEntryCLM</text>
</a>
</g>
</g>
<!-- n29&#45;&gt;n28 -->
<g id="edge37" class="edge">
<title>n29&#45;&gt;n28</title>
<path fill="none" stroke="#64748b" d="M892,-87.7C892,-79.47 892,-69.48 892,-60.42"/>
<polygon fill="#64748b" stroke="#64748b" points="894.45,-60.62 892,-53.62 889.55,-60.62 894.45,-60.62"/>
</g>
<!-- n30 -->
<g id="node31" class="node">
<title>n30</title>
<g id="a_node31"><a xlink:href="https://github.com/statopia/statlib/blob/main/Statlib/HighDim/MatrixAnalysis/TraceExp.lean#L309" xlink:title="theorem · Statlib/HighDim/MatrixAnalysis/TraceExp.lean:309" target="_blank">
<path fill="#ffe6a3" stroke="#d4a017" d="M1020.22,-196C1020.22,-196 869.78,-196 869.78,-196 863.78,-196 857.78,-190 857.78,-184 857.78,-184 857.78,-172 857.78,-172 857.78,-166 863.78,-160 869.78,-160 869.78,-160 1020.22,-160 1020.22,-160 1026.22,-160 1032.22,-166 1032.22,-172 1032.22,-172 1032.22,-184 1032.22,-184 1032.22,-190 1026.22,-196 1020.22,-196"/>
<text xml:space="preserve" text-anchor="middle" x="945" y="-175" font-family="Helvetica,sans-Serif" font-size="10.00">matrix_integral_apply_of_integrable</text>
</a>
</g>
</g>
<!-- n30&#45;&gt;n29 -->
<g id="edge38" class="edge">
<title>n30&#45;&gt;n29</title>
<path fill="none" stroke="#64748b" d="M931.9,-159.7C925.29,-150.97 917.17,-140.24 909.98,-130.75"/>
<polygon fill="#64748b" stroke="#64748b" points="912.04,-129.41 905.86,-125.31 908.14,-132.37 912.04,-129.41"/>
</g>
<!-- n31 -->
<g id="node32" class="node">
<title>n31</title>
<g id="a_node32"><a xlink:href="https://github.com/statopia/statlib/blob/main/Statlib/HighDim/MatrixAnalysis/MatrixLogIntegralRep.lean#L8" xlink:title="theorem · Statlib/HighDim/MatrixAnalysis/MatrixLogIntegralRep.lean:8" target="_blank">
<path fill="#ffe6a3" stroke="#d4a017" d="M1295.25,-268C1295.25,-268 1198.75,-268 1198.75,-268 1192.75,-268 1186.75,-262 1186.75,-256 1186.75,-256 1186.75,-244 1186.75,-244 1186.75,-238 1192.75,-232 1198.75,-232 1198.75,-232 1295.25,-232 1295.25,-232 1301.25,-232 1307.25,-238 1307.25,-244 1307.25,-244 1307.25,-256 1307.25,-256 1307.25,-262 1301.25,-268 1295.25,-268"/>
<text xml:space="preserve" text-anchor="middle" x="1247" y="-247" font-family="Helvetica,sans-Serif" font-size="10.00">matrix_log_integral_rep</text>
</a>
</g>
</g>
<!-- n31&#45;&gt;n27 -->
<g id="edge39" class="edge">
<title>n31&#45;&gt;n27</title>
<path fill="none" stroke="#64748b" d="M1247,-231.7C1247,-223.47 1247,-213.48 1247,-204.42"/>
<polygon fill="#64748b" stroke="#64748b" points="1249.45,-204.62 1247,-197.62 1244.55,-204.62 1249.45,-204.62"/>
</g>
<!-- n31&#45;&gt;n30 -->
<g id="edge40" class="edge">
<title>n31&#45;&gt;n30</title>
<path fill="none" stroke="#64748b" d="M1186.43,-234.01C1183.58,-233.33 1180.76,-232.65 1178,-232 1129.64,-220.54 1075.52,-208.2 1031.62,-198.32"/>
<polygon fill="#64748b" stroke="#64748b" points="1032.39,-195.98 1025.02,-196.83 1031.31,-200.76 1032.39,-195.98"/>
</g>
<!-- n32 -->
<g id="node33" class="node">
<title>n32</title>
<g id="a_node33"><a xlink:href="https://github.com/statopia/statlib/blob/main/Statlib/HighDim/MatrixAnalysis/LiebRuskaiConjInvJointlyConvex.lean#L7" xlink:title="theorem · Statlib/HighDim/MatrixAnalysis/LiebRuskaiConjInvJointlyConvex.lean:7" target="_blank">
<path fill="#ffe6a3" stroke="#d4a017" d="M1157.21,-268C1157.21,-268 1006.79,-268 1006.79,-268 1000.79,-268 994.79,-262 994.79,-256 994.79,-256 994.79,-244 994.79,-244 994.79,-238 1000.79,-232 1006.79,-232 1006.79,-232 1157.21,-232 1157.21,-232 1163.21,-232 1169.21,-238 1169.21,-244 1169.21,-244 1169.21,-256 1169.21,-256 1169.21,-262 1163.21,-268 1157.21,-268"/>
<text xml:space="preserve" text-anchor="middle" x="1082" y="-247" font-family="Helvetica,sans-Serif" font-size="10.00">lieb_ruskai_conj_inv_jointly_convex</text>
</a>
</g>
</g>
<!-- n33 -->
<g id="node34" class="node">
<title>n33</title>
<g id="a_node34"><a xlink:href="https://github.com/statopia/statlib/blob/main/Statlib/HighDim/MatrixAnalysis/TraceExp.lean#L334" xlink:title="theorem · Statlib/HighDim/MatrixAnalysis/TraceExp.lean:334" target="_blank">
<path fill="#ffe6a3" stroke="#d4a017" d="M965.27,-268C965.27,-268 818.73,-268 818.73,-268 812.73,-268 806.73,-262 806.73,-256 806.73,-256 806.73,-244 806.73,-244 806.73,-238 812.73,-232 818.73,-232 818.73,-232 965.27,-232 965.27,-232 971.27,-232 977.27,-238 977.27,-244 977.27,-244 977.27,-256 977.27,-256 977.27,-262 971.27,-268 965.27,-268"/>
<text xml:space="preserve" text-anchor="middle" x="892" y="-247" font-family="Helvetica,sans-Serif" font-size="10.00">matrix_integral_posSemidef_of_ae</text>
</a>
</g>
</g>
<!-- n33&#45;&gt;n29 -->
<g id="edge42" class="edge">
<title>n33&#45;&gt;n29</title>
<path fill="none" stroke="#64748b" d="M872.96,-231.84C863.82,-222.3 853.83,-209.62 849,-196 843.65,-180.92 843.65,-175.08 849,-160 852.85,-149.14 859.98,-138.89 867.34,-130.35"/>
<polygon fill="#64748b" stroke="#64748b" points="869.04,-132.11 871.94,-125.28 865.42,-128.81 869.04,-132.11"/>
</g>
<!-- n33&#45;&gt;n30 -->
<g id="edge41" class="edge">
<title>n33&#45;&gt;n30</title>
<path fill="none" stroke="#64748b" d="M905.1,-231.7C911.71,-222.97 919.83,-212.24 927.02,-202.75"/>
<polygon fill="#64748b" stroke="#64748b" points="928.86,-204.37 931.14,-197.31 924.96,-201.41 928.86,-204.37"/>
</g>
<!-- n34 -->
<g id="node35" class="node">
<title>n34</title>
<g id="a_node35"><a xlink:href="https://github.com/statopia/statlib/blob/main/Statlib/HighDim/MatrixAnalysis/OperatorConvexMulLog.lean#L14" xlink:title="theorem · Statlib/HighDim/MatrixAnalysis/OperatorConvexMulLog.lean:14" target="_blank">
<path fill="#ffe6a3" stroke="#d4a017" d="M932.48,-340C932.48,-340 851.52,-340 851.52,-340 845.52,-340 839.52,-334 839.52,-328 839.52,-328 839.52,-316 839.52,-316 839.52,-310 845.52,-304 851.52,-304 851.52,-304 932.48,-304 932.48,-304 938.48,-304 944.48,-310 944.48,-316 944.48,-316 944.48,-328 944.48,-328 944.48,-334 938.48,-340 932.48,-340"/>
<text xml:space="preserve" text-anchor="middle" x="892" y="-319" font-family="Helvetica,sans-Serif" font-size="10.00">op_convex_mul_log</text>
</a>
</g>
</g>
<!-- n34&#45;&gt;n31 -->
<g id="edge43" class="edge">
<title>n34&#45;&gt;n31</title>
<path fill="none" stroke="#64748b" d="M944.86,-306.94C949.29,-305.9 953.72,-304.9 958,-304 1054.96,-283.62 1080.93,-287.87 1178,-268 1178.09,-267.98 1178.17,-267.96 1178.26,-267.95"/>
<polygon fill="#64748b" stroke="#64748b" points="1178.66,-270.37 1185,-266.51 1177.64,-265.57 1178.66,-270.37"/>
</g>
<!-- n34&#45;&gt;n32 -->
<g id="edge44" class="edge">
<title>n34&#45;&gt;n32</title>
<path fill="none" stroke="#64748b" d="M939.45,-303.52C966.08,-293.71 999.42,-281.43 1027.16,-271.21"/>
<polygon fill="#64748b" stroke="#64748b" points="1027.68,-273.62 1033.4,-268.9 1025.99,-269.03 1027.68,-273.62"/>
</g>
<!-- n34&#45;&gt;n33 -->
<g id="edge45" class="edge">
<title>n34&#45;&gt;n33</title>
<path fill="none" stroke="#64748b" d="M892,-303.7C892,-295.47 892,-285.48 892,-276.42"/>
<polygon fill="#64748b" stroke="#64748b" points="894.45,-276.62 892,-269.62 889.55,-276.62 894.45,-276.62"/>
</g>
<!-- n35 -->
<g id="node36" class="node">
<title>n35</title>
<g id="a_node36"><a xlink:href="https://github.com/statopia/statlib/blob/main/Statlib/HighDim/MatrixAnalysis/HansenPedersenJensenMulLog.lean#L28" xlink:title="theorem · Statlib/HighDim/MatrixAnalysis/HansenPedersenJensenMulLog.lean:28" target="_blank">
<path fill="#ffe6a3" stroke="#d4a017" d="M883.84,-412C883.84,-412 736.16,-412 736.16,-412 730.16,-412 724.16,-406 724.16,-400 724.16,-400 724.16,-388 724.16,-388 724.16,-382 730.16,-376 736.16,-376 736.16,-376 883.84,-376 883.84,-376 889.84,-376 895.84,-382 895.84,-388 895.84,-388 895.84,-400 895.84,-400 895.84,-406 889.84,-412 883.84,-412"/>
<text xml:space="preserve" text-anchor="middle" x="810" y="-391" font-family="Helvetica,sans-Serif" font-size="10.00">hansen_pedersen_jensen_mul_log</text>
</a>
</g>
</g>
<!-- n35&#45;&gt;n4 -->
<g id="edge47" class="edge">
<title>n35&#45;&gt;n4</title>
<path fill="none" stroke="#64748b" d="M896.01,-380.68C966.78,-370.46 1069.95,-355.35 1168.65,-340.05"/>
<polygon fill="#64748b" stroke="#64748b" points="1168.92,-342.48 1175.47,-338.99 1168.17,-337.64 1168.92,-342.48"/>
</g>
<!-- n35&#45;&gt;n17 -->
<g id="edge48" class="edge">
<title>n35&#45;&gt;n17</title>
<path fill="none" stroke="#64748b" d="M877.69,-375.52C916.55,-365.48 965.45,-352.85 1005.55,-342.49"/>
<polygon fill="#64748b" stroke="#64748b" points="1006.08,-344.88 1012.24,-340.76 1004.85,-340.14 1006.08,-344.88"/>
</g>
<!-- n35&#45;&gt;n30 -->
<g id="edge50" class="edge">
<title>n35&#45;&gt;n30</title>
<path fill="none" stroke="#64748b" d="M806.04,-375.73C798.03,-339.02 782.01,-254.76 798,-232 810.44,-214.28 829.42,-202.46 849.64,-194.58"/>
<polygon fill="#64748b" stroke="#64748b" points="850.27,-196.96 856.01,-192.27 848.6,-192.35 850.27,-196.96"/>
</g>
<!-- n35&#45;&gt;n31 -->
<g id="edge49" class="edge">
<title>n35&#45;&gt;n31</title>
<path fill="none" stroke="#64748b" d="M882.74,-375.52C906.73,-367.39 932.49,-355.9 953,-340 968.4,-328.07 961.61,-314.53 978,-304 1053.99,-255.19 1089.66,-286.81 1178,-268 1178.09,-267.98 1178.17,-267.96 1178.26,-267.94"/>
<polygon fill="#64748b" stroke="#64748b" points="1178.68,-270.36 1184.99,-266.47 1177.63,-265.58 1178.68,-270.36"/>
</g>
<!-- n35&#45;&gt;n33 -->
<g id="edge51" class="edge">
<title>n35&#45;&gt;n33</title>
<path fill="none" stroke="#64748b" d="M810.94,-375.76C812.64,-356.91 817.45,-326.42 831,-304 837.96,-292.48 848.28,-282.14 858.46,-273.73"/>
<polygon fill="#64748b" stroke="#64748b" points="859.93,-275.69 863.9,-269.42 856.89,-271.84 859.93,-275.69"/>
</g>
<!-- n35&#45;&gt;n34 -->
<g id="edge46" class="edge">
<title>n35&#45;&gt;n34</title>
<path fill="none" stroke="#64748b" d="M830.27,-375.7C840.82,-366.69 853.84,-355.57 865.21,-345.87"/>
<polygon fill="#64748b" stroke="#64748b" points="866.79,-347.74 870.53,-341.33 863.61,-344.01 866.79,-347.74"/>
</g>
<!-- n36 -->
<g id="node37" class="node">
<title>n36</title>
<g id="a_node37"><a xlink:href="https://github.com/statopia/statlib/blob/main/Statlib/HighDim/MatrixAnalysis/RelativeEntropyJointConvex.lean#L388" xlink:title="lemma · Statlib/HighDim/MatrixAnalysis/RelativeEntropyJointConvex.lean:388" target="_blank">
<path fill="#eef2f6" stroke="#94a3b8" d="M986.87,-484C986.87,-484 863.13,-484 863.13,-484 857.13,-484 851.13,-478 851.13,-472 851.13,-472 851.13,-460 851.13,-460 851.13,-454 857.13,-448 863.13,-448 863.13,-448 986.87,-448 986.87,-448 992.87,-448 998.87,-454 998.87,-460 998.87,-460 998.87,-472 998.87,-472 998.87,-478 992.87,-484 986.87,-484"/>
<text xml:space="preserve" text-anchor="middle" x="925" y="-463" font-family="Helvetica,sans-Serif" font-size="10.00">perspectiveInner_jointConvex</text>
</a>
</g>
</g>
<!-- n36&#45;&gt;n4 -->
<g id="edge61" class="edge">
<title>n36&#45;&gt;n4</title>
<path fill="none" stroke="#64748b" d="M923.6,-447.5C923.03,-427.25 925.5,-394.33 945,-376 980.08,-343.02 1107.08,-347.56 1168.95,-339.84"/>
<polygon fill="#64748b" stroke="#64748b" points="1169.15,-342.29 1175.73,-338.88 1168.46,-337.44 1169.15,-342.29"/>
</g>
<!-- n36&#45;&gt;n10 -->
<g id="edge52" class="edge">
<title>n36&#45;&gt;n10</title>
<path fill="none" stroke="#64748b" d="M976.95,-447.52C1008.34,-436.95 1048.26,-423.52 1079.86,-412.88"/>
<polygon fill="#64748b" stroke="#64748b" points="1080.42,-415.28 1086.28,-410.72 1078.86,-410.64 1080.42,-415.28"/>
</g>
<!-- n36&#45;&gt;n11 -->
<g id="edge53" class="edge">
<title>n36&#45;&gt;n11</title>
<path fill="none" stroke="#64748b" d="M920.02,-447.56C915.67,-428.82 911.66,-398.67 923,-376 934.93,-352.15 953.06,-359.73 971,-340 983.61,-326.13 977.06,-313.88 993,-304 1016.3,-289.56 1400.38,-263.68 1544.73,-254.42"/>
<polygon fill="#64748b" stroke="#64748b" points="1544.73,-256.87 1551.56,-253.98 1544.42,-251.98 1544.73,-256.87"/>
</g>
<!-- n36&#45;&gt;n12 -->
<g id="edge54" class="edge">
<title>n36&#45;&gt;n12</title>
<path fill="none" stroke="#64748b" d="M850.87,-463.48C702.75,-459.7 381.44,-447.47 347,-412 328.92,-393.38 331.78,-317.29 334.74,-276.73"/>
<polygon fill="#64748b" stroke="#64748b" points="337.16,-277.09 335.26,-269.93 332.28,-276.72 337.16,-277.09"/>
</g>
<!-- n36&#45;&gt;n13 -->
<g id="edge55" class="edge">
<title>n36&#45;&gt;n13</title>
<path fill="none" stroke="#64748b" d="M946.51,-447.7C957.8,-438.61 971.78,-427.36 983.91,-417.6"/>
<polygon fill="#64748b" stroke="#64748b" points="985.34,-419.59 989.26,-413.3 982.27,-415.78 985.34,-419.59"/>
</g>
<!-- n36&#45;&gt;n14 -->
<g id="edge56" class="edge">
<title>n36&#45;&gt;n14</title>
<path fill="none" stroke="#64748b" d="M999.12,-456.69C1116.89,-443.41 1337.13,-418.28 1373,-412 1373.09,-411.98 1373.18,-411.97 1373.26,-411.95"/>
<polygon fill="#64748b" stroke="#64748b" points="1373.67,-414.37 1380.1,-410.68 1372.78,-409.55 1373.67,-414.37"/>
</g>
<!-- n36&#45;&gt;n15 -->
<g id="edge57" class="edge">
<title>n36&#45;&gt;n15</title>
<path fill="none" stroke="#64748b" d="M850.96,-457.53C766.67,-448.6 624.97,-432.27 504,-412 502.22,-411.7 500.41,-411.39 498.59,-411.07"/>
<polygon fill="#64748b" stroke="#64748b" points="499.36,-408.72 492.03,-409.88 498.48,-413.54 499.36,-408.72"/>
</g>
<!-- n36&#45;&gt;n16 -->
<g id="edge60" class="edge">
<title>n36&#45;&gt;n16</title>
<path fill="none" stroke="#64748b" d="M850.85,-455.88C793.84,-447.39 721.33,-432.88 700,-412 683.21,-395.57 678.12,-368.6 676.83,-348.65"/>
<polygon fill="#64748b" stroke="#64748b" points="679.29,-348.72 676.55,-341.83 674.39,-348.92 679.29,-348.72"/>
</g>
<!-- n36&#45;&gt;n23 -->
<g id="edge58" class="edge">
<title>n36&#45;&gt;n23</title>
<path fill="none" stroke="#64748b" d="M999.09,-451.17C1065.2,-438.83 1161.46,-420.86 1227.18,-408.59"/>
<polygon fill="#64748b" stroke="#64748b" points="1227.53,-411.02 1233.96,-407.33 1226.63,-406.2 1227.53,-411.02"/>
</g>
<!-- n36&#45;&gt;n26 -->
<g id="edge59" class="edge">
<title>n36&#45;&gt;n26</title>
<path fill="none" stroke="#64748b" d="M850.98,-458.99C738.7,-449.73 518.63,-431.06 332,-412 308.51,-409.6 282.96,-406.75 259.79,-404.08"/>
<polygon fill="#64748b" stroke="#64748b" points="260.11,-401.65 252.88,-403.28 259.55,-406.52 260.11,-401.65"/>
</g>
<!-- n36&#45;&gt;n35 -->
<g id="edge62" class="edge">
<title>n36&#45;&gt;n35</title>
<path fill="none" stroke="#64748b" d="M896.28,-447.52C880.93,-438.18 861.9,-426.59 845.62,-416.68"/>
<polygon fill="#64748b" stroke="#64748b" points="846.9,-414.59 839.65,-413.05 844.36,-418.78 846.9,-414.59"/>
</g>
<!-- n37 -->
<g id="node38" class="node">
<title>n37</title>
<g id="a_node38"><a xlink:href="https://github.com/statopia/statlib/blob/main/Statlib/HighDim/MatrixAnalysis/RelativeEntropyJointConvex.lean#L990" xlink:title="theorem · Statlib/HighDim/MatrixAnalysis/RelativeEntropyJointConvex.lean:990" target="_blank">
<path fill="#ffe6a3" stroke="#d4a017" d="M1211.66,-556C1211.66,-556 1052.34,-556 1052.34,-556 1046.34,-556 1040.34,-550 1040.34,-544 1040.34,-544 1040.34,-532 1040.34,-532 1040.34,-526 1046.34,-520 1052.34,-520 1052.34,-520 1211.66,-520 1211.66,-520 1217.66,-520 1223.66,-526 1223.66,-532 1223.66,-532 1223.66,-544 1223.66,-544 1223.66,-550 1217.66,-556 1211.66,-556"/>
<text xml:space="preserve" text-anchor="middle" x="1132" y="-535" font-family="Helvetica,sans-Serif" font-size="10.00">quantumRelativeEntropy_jointConvex</text>
</a>
</g>
</g>
<!-- n37&#45;&gt;n3 -->
<g id="edge63" class="edge">
<title>n37&#45;&gt;n3</title>
<path fill="none" stroke="#64748b" d="M1224.09,-533.72C1335.43,-528.43 1515.22,-515.23 1574,-484 1577.78,-481.99 1609.68,-444.38 1631.22,-418.71"/>
<polygon fill="#64748b" stroke="#64748b" points="1632.86,-420.56 1635.47,-413.62 1629.1,-417.42 1632.86,-420.56"/>
</g>
<!-- n37&#45;&gt;n10 -->
<g id="edge64" class="edge">
<title>n37&#45;&gt;n10</title>
<path fill="none" stroke="#64748b" d="M1106.33,-519.72C1095.08,-510.58 1083.07,-498.28 1077,-484 1070.74,-469.28 1070.67,-462.7 1077,-448 1081.99,-436.41 1090.89,-426.17 1100.16,-417.86"/>
<polygon fill="#64748b" stroke="#64748b" points="1101.67,-419.79 1105.43,-413.4 1098.5,-416.05 1101.67,-419.79"/>
</g>
<!-- n37&#45;&gt;n11 -->
<g id="edge65" class="edge">
<title>n37&#45;&gt;n11</title>
<path fill="none" stroke="#64748b" d="M1193.73,-519.54C1229.72,-509.31 1275.97,-496.06 1317,-484 1423.44,-452.72 1467.51,-478.91 1556,-412 1571.14,-400.55 1562.95,-386.14 1579,-376 1633.34,-341.66 1823.47,-388.2 1866,-340 1927.9,-269.85 1747.84,-254.85 1653.14,-251.74"/>
<polygon fill="#64748b" stroke="#64748b" points="1653.39,-249.3 1646.32,-251.54 1653.24,-254.2 1653.39,-249.3"/>
</g>
<!-- n37&#45;&gt;n12 -->
<g id="edge66" class="edge">
<title>n37&#45;&gt;n12</title>
<path fill="none" stroke="#64748b" d="M1039.92,-533.4C820.23,-523.61 271.51,-491.68 108,-412 56.14,-386.73 -1.09,-348.19 36,-304 66.49,-267.68 201.13,-256.24 279.63,-252.64"/>
<polygon fill="#64748b" stroke="#64748b" points="279.58,-255.1 286.46,-252.35 279.37,-250.2 279.58,-255.1"/>
</g>
<!-- n37&#45;&gt;n13 -->
<g id="edge67" class="edge">
<title>n37&#45;&gt;n13</title>
<path fill="none" stroke="#64748b" d="M1107.29,-519.51C1094.69,-509.88 1079.61,-497.23 1068,-484 1050.46,-464.01 1034.75,-437.96 1024.46,-419.21"/>
<polygon fill="#64748b" stroke="#64748b" points="1026.86,-418.49 1021.38,-413.49 1022.55,-420.82 1026.86,-418.49"/>
</g>
<!-- n37&#45;&gt;n20 -->
<g id="edge68" class="edge">
<title>n37&#45;&gt;n20</title>
<path fill="none" stroke="#64748b" d="M1148.07,-519.7C1156.33,-510.8 1166.52,-499.82 1175.46,-490.2"/>
<polygon fill="#64748b" stroke="#64748b" points="1177.12,-492.01 1180.09,-485.21 1173.53,-488.68 1177.12,-492.01"/>
</g>
<!-- n37&#45;&gt;n36 -->
<g id="edge69" class="edge">
<title>n37&#45;&gt;n36</title>
<path fill="none" stroke="#64748b" d="M1080.3,-519.52C1051.17,-509.67 1014.66,-497.32 984.36,-487.07"/>
<polygon fill="#64748b" stroke="#64748b" points="985.25,-484.79 977.83,-484.87 983.68,-489.43 985.25,-484.79"/>
</g>
<!-- n38 -->
<g id="node39" class="node">
<title>n38</title>
<g id="a_node39"><a xlink:href="https://github.com/statopia/statlib/blob/main/Statlib/HighDim/MatrixAnalysis/RelativeEntropyJointConvex.lean#L1053" xlink:title="theorem · Statlib/HighDim/MatrixAnalysis/RelativeEntropyJointConvex.lean:1053" target="_blank">
<path fill="#ffe6a3" stroke="#d4a017" d="M1615.15,-628C1615.15,-628 1490.85,-628 1490.85,-628 1484.85,-628 1478.85,-622 1478.85,-616 1478.85,-616 1478.85,-604 1478.85,-604 1478.85,-598 1484.85,-592 1490.85,-592 1490.85,-592 1615.15,-592 1615.15,-592 1621.15,-592 1627.15,-598 1627.15,-604 1627.15,-604 1627.15,-616 1627.15,-616 1627.15,-622 1621.15,-628 1615.15,-628"/>
<text xml:space="preserve" text-anchor="middle" x="1553" y="-607" font-family="Helvetica,sans-Serif" font-size="10.00">relative_entropy_joint_convex</text>
</a>
</g>
</g>
<!-- n38&#45;&gt;n3 -->
<g id="edge70" class="edge">
<title>n38&#45;&gt;n3</title>
<path fill="none" stroke="#64748b" d="M1560.85,-591.85C1578.13,-554.13 1619.48,-463.83 1639.61,-419.88"/>
<polygon fill="#64748b" stroke="#64748b" points="1641.79,-420.99 1642.48,-413.61 1637.34,-418.95 1641.79,-420.99"/>
</g>
<!-- n38&#45;&gt;n37 -->
<g id="edge71" class="edge">
<title>n38&#45;&gt;n37</title>
<path fill="none" stroke="#64748b" d="M1478.37,-593.54C1475.55,-593.01 1472.75,-592.5 1470,-592 1390.24,-577.59 1299.48,-563.48 1232.1,-553.45"/>
<polygon fill="#64748b" stroke="#64748b" points="1232.79,-551.07 1225.5,-552.47 1232.07,-555.92 1232.79,-551.07"/>
</g>
<!-- n39 -->
<g id="node40" class="node">
<title>n39</title>
<g id="a_node40"><a xlink:href="https://github.com/statopia/statlib/blob/main/Statlib/HighDim/MatrixAnalysis/LiebTraceConcavity.lean#L75" xlink:title="theorem · Statlib/HighDim/MatrixAnalysis/LiebTraceConcavity.lean:75" target="_blank">
<path fill="#ffe6a3" stroke="#d4a017" d="M1730.12,-700C1730.12,-700 1561.88,-700 1561.88,-700 1555.88,-700 1549.88,-694 1549.88,-688 1549.88,-688 1549.88,-676 1549.88,-676 1549.88,-670 1555.88,-664 1561.88,-664 1561.88,-664 1730.12,-664 1730.12,-664 1736.12,-664 1742.12,-670 1742.12,-676 1742.12,-676 1742.12,-688 1742.12,-688 1742.12,-694 1736.12,-700 1730.12,-700"/>
<text xml:space="preserve" text-anchor="middle" x="1646" y="-679" font-family="Helvetica,sans-Serif" font-size="10.00">trace_exp_add_log_concave_two_point</text>
</a>
</g>
</g>
<!-- n39&#45;&gt;n2 -->
<g id="edge72" class="edge">
<title>n39&#45;&gt;n2</title>
<path fill="none" stroke="#64748b" d="M1665.53,-663.7C1675.69,-654.69 1688.24,-643.57 1699.19,-633.87"/>
<polygon fill="#64748b" stroke="#64748b" points="1700.68,-635.83 1704.29,-629.35 1697.43,-632.16 1700.68,-635.83"/>
</g>
<!-- n39&#45;&gt;n3 -->
<g id="edge74" class="edge">
<title>n39&#45;&gt;n3</title>
<path fill="none" stroke="#64748b" d="M1646.31,-663.54C1647.15,-614.96 1649.55,-478.02 1650.55,-420.72"/>
<polygon fill="#64748b" stroke="#64748b" points="1653,-420.79 1650.67,-413.74 1648.1,-420.7 1653,-420.79"/>
</g>
<!-- n39&#45;&gt;n9 -->
<g id="edge73" class="edge">
<title>n39&#45;&gt;n9</title>
<path fill="none" stroke="#64748b" d="M1742.53,-664.82C1762.53,-656.95 1781.34,-645.29 1794,-628 1823.17,-588.16 1814.96,-526.7 1807.06,-492.39"/>
<polygon fill="#64748b" stroke="#64748b" points="1809.48,-491.97 1805.44,-485.75 1804.72,-493.13 1809.48,-491.97"/>
</g>
<!-- n39&#45;&gt;n38 -->
<g id="edge75" class="edge">
<title>n39&#45;&gt;n38</title>
<path fill="none" stroke="#64748b" d="M1623.01,-663.7C1610.83,-654.53 1595.72,-643.16 1582.66,-633.33"/>
<polygon fill="#64748b" stroke="#64748b" points="1584.32,-631.51 1577.26,-629.26 1581.38,-635.42 1584.32,-631.51"/>
</g>
<!-- n40 -->
<g id="node41" class="node">
<title>n40</title>
<g id="a_node41"><a xlink:href="https://github.com/statopia/statlib/blob/main/Statlib/HighDim/MatrixAnalysis/LiebTraceConcavity.lean#L143" xlink:title="theorem · Statlib/HighDim/MatrixAnalysis/LiebTraceConcavity.lean:143" target="_blank">
<path fill="#ffe6a3" stroke="#d4a017" d="M1593.94,-772C1593.94,-772 1474.06,-772 1474.06,-772 1468.06,-772 1462.06,-766 1462.06,-760 1462.06,-760 1462.06,-748 1462.06,-748 1462.06,-742 1468.06,-736 1474.06,-736 1474.06,-736 1593.94,-736 1593.94,-736 1599.94,-736 1605.94,-742 1605.94,-748 1605.94,-748 1605.94,-760 1605.94,-760 1605.94,-766 1599.94,-772 1593.94,-772"/>
<text xml:space="preserve" text-anchor="middle" x="1534" y="-751" font-family="Helvetica,sans-Serif" font-size="10.00">trace_exp_add_log_concave</text>
</a>
</g>
</g>
<!-- n40&#45;&gt;n1 -->
<g id="edge76" class="edge">
<title>n40&#45;&gt;n1</title>
<path fill="none" stroke="#64748b" d="M1506.28,-735.52C1491.46,-726.18 1473.1,-714.59 1457.38,-704.68"/>
<polygon fill="#64748b" stroke="#64748b" points="1458.88,-702.73 1451.65,-701.07 1456.26,-706.87 1458.88,-702.73"/>
</g>
<!-- n40&#45;&gt;n39 -->
<g id="edge77" class="edge">
<title>n40&#45;&gt;n39</title>
<path fill="none" stroke="#64748b" d="M1561.97,-735.52C1576.92,-726.18 1595.45,-714.59 1611.31,-704.68"/>
<polygon fill="#64748b" stroke="#64748b" points="1612.46,-706.85 1617.1,-701.06 1609.87,-702.7 1612.46,-706.85"/>
</g>
<!-- n41 -->
<g id="node42" class="node">
<title>n41</title>
<g id="a_node42"><a xlink:href="https://github.com/statopia/statlib/blob/main/Statlib/HighDim/MatrixAnalysis/LiebTraceConcavity.lean#L165" xlink:title="theorem · Statlib/HighDim/MatrixAnalysis/LiebTraceConcavity.lean:165" target="_blank">
<path fill="#ffe6a3" stroke="#d4a017" d="M1623.4,-844C1623.4,-844 1444.6,-844 1444.6,-844 1438.6,-844 1432.6,-838 1432.6,-832 1432.6,-832 1432.6,-820 1432.6,-820 1432.6,-814 1438.6,-808 1444.6,-808 1444.6,-808 1623.4,-808 1623.4,-808 1629.4,-808 1635.4,-814 1635.4,-820 1635.4,-820 1635.4,-832 1635.4,-832 1635.4,-838 1629.4,-844 1623.4,-844"/>
<text xml:space="preserve" text-anchor="middle" x="1534" y="-823" font-family="Helvetica,sans-Serif" font-size="10.00">trace_exp_add_log_finset_jensen_posDef</text>
</a>
</g>
</g>
<!-- n41&#45;&gt;n40 -->
<g id="edge78" class="edge">
<title>n41&#45;&gt;n40</title>
<path fill="none" stroke="#64748b" d="M1534,-807.7C1534,-799.47 1534,-789.48 1534,-780.42"/>
<polygon fill="#64748b" stroke="#64748b" points="1536.45,-780.62 1534,-773.62 1531.55,-780.62 1536.45,-780.62"/>
</g>
<!-- n42 -->
<g id="node43" class="node">
<title>n42</title>
<g id="a_node43"><a xlink:href="https://github.com/statopia/statlib/blob/main/Statlib/HighDim/MatrixAnalysis/LiebTraceConcavity.lean#L198" xlink:title="theorem · Statlib/HighDim/MatrixAnalysis/LiebTraceConcavity.lean:198" target="_blank">
<path fill="#ffe6a3" stroke="#d4a017" stroke-width="3" d="M1637.02,-916C1637.02,-916 1430.98,-916 1430.98,-916 1424.98,-916 1418.98,-910 1418.98,-904 1418.98,-904 1418.98,-892 1418.98,-892 1418.98,-886 1424.98,-880 1430.98,-880 1430.98,-880 1637.02,-880 1637.02,-880 1643.02,-880 1649.02,-886 1649.02,-892 1649.02,-892 1649.02,-904 1649.02,-904 1649.02,-910 1643.02,-916 1637.02,-916"/>
<text xml:space="preserve" text-anchor="middle" x="1534" y="-895" font-family="Helvetica,sans-Serif" font-size="10.00">trace_exp_add_log_simpleFunc_jensen_posDef</text>
</a>
</g>
</g>
<!-- n42&#45;&gt;n41 -->
<g id="edge79" class="edge">
<title>n42&#45;&gt;n41</title>
<path fill="none" stroke="#64748b" d="M1534,-878.61C1534,-870.59 1534,-861.05 1534,-852.37"/>
<polygon fill="#64748b" stroke="#64748b" points="1536.45,-852.58 1534,-845.58 1531.55,-852.58 1536.45,-852.58"/>
</g>
</g>
</svg>
