<?xml version="1.0" encoding="UTF-8" standalone="no"?>
<!DOCTYPE svg PUBLIC "-//W3C//DTD SVG 1.1//EN"
 "http://www.w3.org/Graphics/SVG/1.1/DTD/svg11.dtd">
<!-- Generated by graphviz version 15.0.0 (20260523.1842)
 -->
<!-- Title: zeroDiag_centered_quadratic_form_tail_high_of_decoupling_norm_bernstein_absorb Pages: 1 -->
<svg width="3272pt" height="915pt"
 viewBox="0.00 0.00 3272.00 915.00" xmlns="http://www.w3.org/2000/svg" xmlns:xlink="http://www.w3.org/1999/xlink">
<g id="graph0" class="graph" transform="scale(1 1) rotate(0) translate(4 911.2)">
<title>zeroDiag_centered_quadratic_form_tail_high_of_decoupling_norm_bernstein_absorb</title>
<polygon fill="white" stroke="none" points="-4,4 -4,-911.2 3268,-911.2 3268,4 -4,4"/>
<text xml:space="preserve" text-anchor="middle" x="1632" y="-890.6" font-family="Helvetica,sans-Serif" font-size="14.00">Proof narrative — zeroDiag_centered_quadratic_form_tail_high_of_decoupling_norm_bernstein_absorb &#160;(57 decls)</text>
<g id="clust1" class="cluster">
<title>cluster_0</title>
<path fill="none" stroke="#cbd5e1" stroke-dasharray="5,2" d="M20,-8C20,-8 2410,-8 2410,-8 2416,-8 2422,-14 2422,-20 2422,-20 2422,-862.4 2422,-862.4 2422,-868.4 2416,-874.4 2410,-874.4 2410,-874.4 20,-874.4 20,-874.4 14,-874.4 8,-868.4 8,-862.4 8,-862.4 8,-20 8,-20 8,-14 14,-8 20,-8"/>
<text xml:space="preserve" text-anchor="middle" x="1215" y="-860.5" font-family="Helvetica,sans-Serif" font-size="11.00">HighDim</text>
</g>
<g id="clust2" class="cluster">
<title>cluster_1</title>
<path fill="none" stroke="#cbd5e1" stroke-dasharray="5,2" d="M2442,-8C2442,-8 3244,-8 3244,-8 3250,-8 3256,-14 3256,-20 3256,-20 3256,-213.2 3256,-213.2 3256,-219.2 3250,-225.2 3244,-225.2 3244,-225.2 2442,-225.2 2442,-225.2 2436,-225.2 2430,-219.2 2430,-213.2 2430,-213.2 2430,-20 2430,-20 2430,-14 2436,-8 2442,-8"/>
<text xml:space="preserve" text-anchor="middle" x="2843" y="-211.3" font-family="Helvetica,sans-Serif" font-size="11.00">StatFoundation</text>
</g>
<!-- n0 -->
<g id="node1" class="node">
<title>n0</title>
<g id="a_node1"><a xlink:href="vscode://vscode-remote/wsl+Ubuntu/home/ai4stat/statlib/Statlib/HighDim/Vocabulary/RandomVector.lean:83" xlink:title="structure · Statlib/HighDim/Vocabulary/RandomVector.lean:83" target="_blank">
<path fill="#e8dcff" stroke="#8b5cf6" d="M2402.4,-269.2C2402.4,-269.2 2367.6,-269.2 2367.6,-269.2 2361.6,-269.2 2355.6,-263.2 2355.6,-257.2 2355.6,-257.2 2355.6,-245.2 2355.6,-245.2 2355.6,-239.2 2361.6,-233.2 2367.6,-233.2 2367.6,-233.2 2402.4,-233.2 2402.4,-233.2 2408.4,-233.2 2414.4,-239.2 2414.4,-245.2 2414.4,-245.2 2414.4,-257.2 2414.4,-257.2 2414.4,-263.2 2408.4,-269.2 2402.4,-269.2"/>
<text xml:space="preserve" text-anchor="middle" x="2385" y="-248.2" font-family="Helvetica,sans-Serif" font-size="10.00">HasMean</text>
</a>
</g>
</g>
<!-- n1 -->
<g id="node2" class="node">
<title>n1</title>
<g id="a_node2"><a xlink:href="vscode://vscode-remote/wsl+Ubuntu/home/ai4stat/statlib/Statlib/HighDim/Vocabulary/RandomVector.lean:52" xlink:title="structure · Statlib/HighDim/Vocabulary/RandomVector.lean:52" target="_blank">
<path fill="#e8dcff" stroke="#8b5cf6" d="M1786.36,-196C1786.36,-196 1697.64,-196 1697.64,-196 1691.64,-196 1685.64,-190 1685.64,-184 1685.64,-184 1685.64,-172 1685.64,-172 1685.64,-166 1691.64,-160 1697.64,-160 1697.64,-160 1786.36,-160 1786.36,-160 1792.36,-160 1798.36,-166 1798.36,-172 1798.36,-172 1798.36,-184 1798.36,-184 1798.36,-190 1792.36,-196 1786.36,-196"/>
<text xml:space="preserve" text-anchor="middle" x="1742" y="-175" font-family="Helvetica,sans-Serif" font-size="10.00">IsSubGaussianVector</text>
</a>
</g>
</g>
<!-- n2 -->
<g id="node3" class="node">
<title>n2</title>
<g id="a_node3"><a xlink:href="vscode://vscode-remote/wsl+Ubuntu/home/ai4stat/statlib/Statlib/HighDim/Vocabulary/Norms.lean:37" xlink:title="noncomputable def · Statlib/HighDim/Vocabulary/Norms.lean:37" target="_blank">
<path fill="#d6e9ff" stroke="#3b82f6" d="M137.91,-773.2C137.91,-773.2 68.09,-773.2 68.09,-773.2 62.09,-773.2 56.09,-767.2 56.09,-761.2 56.09,-761.2 56.09,-749.2 56.09,-749.2 56.09,-743.2 62.09,-737.2 68.09,-737.2 68.09,-737.2 137.91,-737.2 137.91,-737.2 143.91,-737.2 149.91,-743.2 149.91,-749.2 149.91,-749.2 149.91,-761.2 149.91,-761.2 149.91,-767.2 143.91,-773.2 137.91,-773.2"/>
<text xml:space="preserve" text-anchor="middle" x="103" y="-752.2" font-family="Helvetica,sans-Serif" font-size="10.00">frobeniusNormSq</text>
</a>
</g>
</g>
<!-- n3 -->
<g id="node4" class="node">
<title>n3</title>
<g id="a_node4"><a xlink:href="vscode://vscode-remote/wsl+Ubuntu/home/ai4stat/statlib/Statlib/HighDim/Vocabulary/QuadraticForms.lean:15" xlink:title="noncomputable def · Statlib/HighDim/Vocabulary/QuadraticForms.lean:15" target="_blank">
<path fill="#d6e9ff" stroke="#3b82f6" d="M145.79,-701.2C145.79,-701.2 108.21,-701.2 108.21,-701.2 102.21,-701.2 96.21,-695.2 96.21,-689.2 96.21,-689.2 96.21,-677.2 96.21,-677.2 96.21,-671.2 102.21,-665.2 108.21,-665.2 108.21,-665.2 145.79,-665.2 145.79,-665.2 151.79,-665.2 157.79,-671.2 157.79,-677.2 157.79,-677.2 157.79,-689.2 157.79,-689.2 157.79,-695.2 151.79,-701.2 145.79,-701.2"/>
<text xml:space="preserve" text-anchor="middle" x="127" y="-680.2" font-family="Helvetica,sans-Serif" font-size="10.00">quadForm</text>
</a>
</g>
</g>
<!-- n4 -->
<g id="node5" class="node">
<title>n4</title>
<g id="a_node5"><a xlink:href="vscode://vscode-remote/wsl+Ubuntu/home/ai4stat/statlib/Statlib/HighDim/Vocabulary/QuadraticForms.lean:52" xlink:title="def · Statlib/HighDim/Vocabulary/QuadraticForms.lean:52" target="_blank">
<path fill="#d6e9ff" stroke="#3b82f6" d="M227.62,-124C227.62,-124 168.38,-124 168.38,-124 162.38,-124 156.38,-118 156.38,-112 156.38,-112 156.38,-100 156.38,-100 156.38,-94 162.38,-88 168.38,-88 168.38,-88 227.62,-88 227.62,-88 233.62,-88 239.62,-94 239.62,-100 239.62,-100 239.62,-112 239.62,-112 239.62,-118 233.62,-124 227.62,-124"/>
<text xml:space="preserve" text-anchor="middle" x="198" y="-103" font-family="Helvetica,sans-Serif" font-size="10.00">zeroDiagMatrix</text>
</a>
</g>
</g>
<!-- n5 -->
<g id="node6" class="node">
<title>n5</title>
<g id="a_node6"><a xlink:href="vscode://vscode-remote/wsl+Ubuntu/home/ai4stat/statlib/Statlib/HighDim/Vocabulary/QuadraticForms.lean:33" xlink:title="noncomputable def · Statlib/HighDim/Vocabulary/QuadraticForms.lean:33" target="_blank">
<path fill="#d6e9ff" stroke="#3b82f6" d="M1076.92,-52C1076.92,-52 957.08,-52 957.08,-52 951.08,-52 945.08,-46 945.08,-40 945.08,-40 945.08,-28 945.08,-28 945.08,-22 951.08,-16 957.08,-16 957.08,-16 1076.92,-16 1076.92,-16 1082.92,-16 1088.92,-22 1088.92,-28 1088.92,-28 1088.92,-40 1088.92,-40 1088.92,-46 1082.92,-52 1076.92,-52"/>
<text xml:space="preserve" text-anchor="middle" x="1017" y="-31" font-family="Helvetica,sans-Serif" font-size="10.00">decoupledOffDiagQuadForm</text>
</a>
</g>
</g>
<!-- n6 -->
<g id="node7" class="node">
<title>n6</title>
<g id="a_node7"><a xlink:href="vscode://vscode-remote/wsl+Ubuntu/home/ai4stat/statlib/Statlib/HighDim/Vocabulary/Norms.lean:13" xlink:title="noncomputable def · Statlib/HighDim/Vocabulary/Norms.lean:13" target="_blank">
<path fill="#d6e9ff" stroke="#3b82f6" d="M1941.23,-196C1941.23,-196 1904.77,-196 1904.77,-196 1898.77,-196 1892.77,-190 1892.77,-184 1892.77,-184 1892.77,-172 1892.77,-172 1892.77,-166 1898.77,-160 1904.77,-160 1904.77,-160 1941.23,-160 1941.23,-160 1947.23,-160 1953.23,-166 1953.23,-172 1953.23,-172 1953.23,-184 1953.23,-184 1953.23,-190 1947.23,-196 1941.23,-196"/>
<text xml:space="preserve" text-anchor="middle" x="1923" y="-175" font-family="Helvetica,sans-Serif" font-size="10.00">l2NormSq</text>
</a>
</g>
</g>
<!-- n7 -->
<g id="node8" class="node">
<title>n7</title>
<g id="a_node8"><a xlink:href="vscode://vscode-remote/wsl+Ubuntu/home/ai4stat/statlib/Statlib/HighDim/Vocabulary/Norms.lean:21" xlink:title="lemma · Statlib/HighDim/Vocabulary/Norms.lean:21" target="_blank">
<path fill="#eef2f6" stroke="#94a3b8" d="M2285.64,-269.2C2285.64,-269.2 2206.36,-269.2 2206.36,-269.2 2200.36,-269.2 2194.36,-263.2 2194.36,-257.2 2194.36,-257.2 2194.36,-245.2 2194.36,-245.2 2194.36,-239.2 2200.36,-233.2 2206.36,-233.2 2206.36,-233.2 2285.64,-233.2 2285.64,-233.2 2291.64,-233.2 2297.64,-239.2 2297.64,-245.2 2297.64,-245.2 2297.64,-257.2 2297.64,-257.2 2297.64,-263.2 2291.64,-269.2 2285.64,-269.2"/>
<text xml:space="preserve" text-anchor="middle" x="2246" y="-248.2" font-family="Helvetica,sans-Serif" font-size="10.00">euclidean_norm_sq</text>
</a>
</g>
</g>
<!-- n7&#45;&gt;n6 -->
<g id="edge1" class="edge">
<title>n7&#45;&gt;n6</title>
<path fill="none" stroke="#64748b" d="M2194.1,-238.76C2129.18,-224.45 2019.5,-200.27 1961.55,-187.5"/>
<polygon fill="#64748b" stroke="#64748b" points="1962.22,-185.14 1954.86,-186.02 1961.17,-189.92 1962.22,-185.14"/>
</g>
<!-- n8 -->
<g id="node9" class="node">
<title>n8</title>
<g id="a_node9"><a xlink:href="vscode://vscode-remote/wsl+Ubuntu/home/ai4stat/statlib/Statlib/HighDim/Vocabulary/Norms.lean:32" xlink:title="lemma · Statlib/HighDim/Vocabulary/Norms.lean:32" target="_blank">
<path fill="#eef2f6" stroke="#94a3b8" d="M1863.69,-124C1863.69,-124 1808.31,-124 1808.31,-124 1802.31,-124 1796.31,-118 1796.31,-112 1796.31,-112 1796.31,-100 1796.31,-100 1796.31,-94 1802.31,-88 1808.31,-88 1808.31,-88 1863.69,-88 1863.69,-88 1869.69,-88 1875.69,-94 1875.69,-100 1875.69,-100 1875.69,-112 1875.69,-112 1875.69,-118 1869.69,-124 1863.69,-124"/>
<text xml:space="preserve" text-anchor="middle" x="1836" y="-103" font-family="Helvetica,sans-Serif" font-size="10.00">inner_eq_sum</text>
</a>
</g>
</g>
<!-- n9 -->
<g id="node10" class="node">
<title>n9</title>
<g id="a_node10"><a xlink:href="vscode://vscode-remote/wsl+Ubuntu/home/ai4stat/statlib/Statlib/HighDim/Concentration/HansonWright.lean:1389" xlink:title="lemma · Statlib/HighDim/Concentration/HansonWright.lean:1389" target="_blank">
<path fill="#eef2f6" stroke="#94a3b8" d="M1891.76,-269.2C1891.76,-269.2 1780.24,-269.2 1780.24,-269.2 1774.24,-269.2 1768.24,-263.2 1768.24,-257.2 1768.24,-257.2 1768.24,-245.2 1768.24,-245.2 1768.24,-239.2 1774.24,-233.2 1780.24,-233.2 1780.24,-233.2 1891.76,-233.2 1891.76,-233.2 1897.76,-233.2 1903.76,-239.2 1903.76,-245.2 1903.76,-245.2 1903.76,-257.2 1903.76,-257.2 1903.76,-263.2 1897.76,-269.2 1891.76,-269.2"/>
<text xml:space="preserve" text-anchor="middle" x="1836" y="-248.2" font-family="Helvetica,sans-Serif" font-size="10.00">subgaussian_vector_coord</text>
</a>
</g>
</g>
<!-- n9&#45;&gt;n1 -->
<g id="edge2" class="edge">
<title>n9&#45;&gt;n1</title>
<path fill="none" stroke="#64748b" d="M1813.25,-232.96C1800.64,-223.42 1784.83,-211.44 1771.3,-201.19"/>
<polygon fill="#64748b" stroke="#64748b" points="1773.14,-199.51 1766.08,-197.24 1770.18,-203.42 1773.14,-199.51"/>
</g>
<!-- n9&#45;&gt;n8 -->
<g id="edge3" class="edge">
<title>n9&#45;&gt;n8</title>
<path fill="none" stroke="#64748b" d="M1836,-232.93C1836,-207.98 1836,-161.7 1836,-132.73"/>
<polygon fill="#64748b" stroke="#64748b" points="1838.45,-132.85 1836,-125.85 1833.55,-132.85 1838.45,-132.85"/>
</g>
<!-- n11 -->
<g id="node11" class="node">
<title>n11</title>
<g id="a_node11"><a xlink:href="vscode://vscode-remote/wsl+Ubuntu/home/ai4stat/statlib/Statlib/HighDim/Concentration/HansonWright.lean:519" xlink:title="lemma · Statlib/HighDim/Concentration/HansonWright.lean:519" target="_blank">
<path fill="#eef2f6" stroke="#94a3b8" d="M2143.96,-269.2C2143.96,-269.2 1954.04,-269.2 1954.04,-269.2 1948.04,-269.2 1942.04,-263.2 1942.04,-257.2 1942.04,-257.2 1942.04,-245.2 1942.04,-245.2 1942.04,-239.2 1948.04,-233.2 1954.04,-233.2 1954.04,-233.2 2143.96,-233.2 2143.96,-233.2 2149.96,-233.2 2155.96,-239.2 2155.96,-245.2 2155.96,-245.2 2155.96,-257.2 2155.96,-257.2 2155.96,-263.2 2149.96,-269.2 2143.96,-269.2"/>
<text xml:space="preserve" text-anchor="middle" x="2049" y="-248.2" font-family="Helvetica,sans-Serif" font-size="10.00">subgaussian_projection_second_moment_le</text>
</a>
</g>
</g>
<!-- n11&#45;&gt;n1 -->
<g id="edge4" class="edge">
<title>n11&#45;&gt;n1</title>
<path fill="none" stroke="#64748b" d="M1941.55,-236.53C1922.29,-233.34 1902.47,-229.57 1884,-225.2 1854.85,-218.3 1823.09,-208.22 1797.01,-199.23"/>
<polygon fill="#64748b" stroke="#64748b" points="1797.95,-196.96 1790.53,-196.98 1796.34,-201.59 1797.95,-196.96"/>
</g>
<!-- n10 -->
<g id="node49" class="node">
<title>n10</title>
<g id="a_node49"><a xlink:href="vscode://vscode-remote/wsl+Ubuntu/home/ai4stat/statlib/Statlib/StatFoundation/RandomVariable/SubGaussian/subgaussian_variance_le.lean:8" xlink:title="theorem · Statlib/StatFoundation/RandomVariable/SubGaussian/subgaussian_variance_le.lean:8" target="_blank">
<path fill="#ffe6a3" stroke="#d4a017" d="M2554.43,-196C2554.43,-196 2449.57,-196 2449.57,-196 2443.57,-196 2437.57,-190 2437.57,-184 2437.57,-184 2437.57,-172 2437.57,-172 2437.57,-166 2443.57,-160 2449.57,-160 2449.57,-160 2554.43,-160 2554.43,-160 2560.43,-160 2566.43,-166 2566.43,-172 2566.43,-172 2566.43,-184 2566.43,-184 2566.43,-190 2560.43,-196 2554.43,-196"/>
<text xml:space="preserve" text-anchor="middle" x="2502" y="-175" font-family="Helvetica,sans-Serif" font-size="10.00">subgaussian_variance_le</text>
</a>
</g>
</g>
<!-- n11&#45;&gt;n10 -->
<g id="edge5" class="edge">
<title>n11&#45;&gt;n10</title>
<path fill="none" stroke="#64748b" d="M2156.18,-235.88C2165.91,-234.86 2175.63,-233.94 2185,-233.2 2211.71,-231.09 2400.32,-232.85 2426,-225.2 2442.89,-220.17 2459.82,-210.44 2473.4,-201.21"/>
<polygon fill="#64748b" stroke="#64748b" points="2474.62,-203.35 2478.94,-197.32 2471.8,-199.33 2474.62,-203.35"/>
</g>
<!-- n12 -->
<g id="node12" class="node">
<title>n12</title>
<g id="a_node12"><a xlink:href="vscode://vscode-remote/wsl+Ubuntu/home/ai4stat/statlib/Statlib/HighDim/Concentration/HansonWright.lean:2406" xlink:title="lemma · Statlib/HighDim/Concentration/HansonWright.lean:2406" target="_blank">
<path fill="#eef2f6" stroke="#94a3b8" d="M1805.11,-341.2C1805.11,-341.2 1646.89,-341.2 1646.89,-341.2 1640.89,-341.2 1634.89,-335.2 1634.89,-329.2 1634.89,-329.2 1634.89,-317.2 1634.89,-317.2 1634.89,-311.2 1640.89,-305.2 1646.89,-305.2 1646.89,-305.2 1805.11,-305.2 1805.11,-305.2 1811.11,-305.2 1817.11,-311.2 1817.11,-317.2 1817.11,-317.2 1817.11,-329.2 1817.11,-329.2 1817.11,-335.2 1811.11,-341.2 1805.11,-341.2"/>
<text xml:space="preserve" text-anchor="middle" x="1726" y="-320.2" font-family="Helvetica,sans-Serif" font-size="10.00">subgaussian_norm_sq_mean_le_dim</text>
</a>
</g>
</g>
<!-- n12&#45;&gt;n1 -->
<g id="edge6" class="edge">
<title>n12&#45;&gt;n1</title>
<path fill="none" stroke="#64748b" d="M1727.93,-304.93C1730.72,-279.98 1735.89,-233.7 1739.13,-204.73"/>
<polygon fill="#64748b" stroke="#64748b" points="1741.55,-205.07 1739.9,-197.84 1736.68,-204.52 1741.55,-205.07"/>
</g>
<!-- n12&#45;&gt;n6 -->
<g id="edge8" class="edge">
<title>n12&#45;&gt;n6</title>
<path fill="none" stroke="#64748b" d="M1817.43,-306.25C1858.19,-297.21 1899.95,-284.62 1913,-269.2 1927.9,-251.6 1929.03,-224.65 1927.27,-204.78"/>
<polygon fill="#64748b" stroke="#64748b" points="1929.72,-204.67 1926.5,-197.99 1924.85,-205.22 1929.72,-204.67"/>
</g>
<!-- n12&#45;&gt;n7 -->
<g id="edge7" class="edge">
<title>n12&#45;&gt;n7</title>
<path fill="none" stroke="#64748b" d="M1817.58,-307.05C1822.11,-306.4 1826.61,-305.78 1831,-305.2 1985.58,-284.73 2026.51,-296.72 2180,-269.2 2181.85,-268.87 2183.71,-268.51 2185.6,-268.14"/>
<polygon fill="#64748b" stroke="#64748b" points="2186.1,-270.54 2192.44,-266.69 2185.08,-265.74 2186.1,-270.54"/>
</g>
<!-- n12&#45;&gt;n8 -->
<g id="edge10" class="edge">
<title>n12&#45;&gt;n8</title>
<path fill="none" stroke="#64748b" d="M1817.58,-307.08C1822.12,-306.42 1826.61,-305.79 1831,-305.2 1904.98,-295.23 2115.12,-324.74 2165,-269.2 2251.15,-173.26 1995.22,-127.62 1884.43,-112.73"/>
<polygon fill="#64748b" stroke="#64748b" points="1884.84,-110.31 1877.58,-111.82 1884.2,-115.17 1884.84,-110.31"/>
</g>
<!-- n12&#45;&gt;n9 -->
<g id="edge9" class="edge">
<title>n12&#45;&gt;n9</title>
<path fill="none" stroke="#64748b" d="M1753.47,-304.72C1768.15,-295.38 1786.36,-283.79 1801.93,-273.88"/>
<polygon fill="#64748b" stroke="#64748b" points="1803.01,-276.1 1807.6,-270.27 1800.38,-271.96 1803.01,-276.1"/>
</g>
<!-- n12&#45;&gt;n11 -->
<g id="edge11" class="edge">
<title>n12&#45;&gt;n11</title>
<path fill="none" stroke="#64748b" d="M1806.67,-304.72C1853.39,-294.59 1912.27,-281.83 1960.3,-271.42"/>
<polygon fill="#64748b" stroke="#64748b" points="1960.71,-273.84 1967.04,-269.96 1959.68,-269.05 1960.71,-273.84"/>
</g>
<!-- n16 -->
<g id="node13" class="node">
<title>n16</title>
<g id="a_node13"><a xlink:href="vscode://vscode-remote/wsl+Ubuntu/home/ai4stat/statlib/Statlib/HighDim/Concentration/HansonWright.lean:2109" xlink:title="lemma · Statlib/HighDim/Concentration/HansonWright.lean:2109" target="_blank">
<path fill="#eef2f6" stroke="#94a3b8" d="M2261.62,-341.2C2261.62,-341.2 2078.38,-341.2 2078.38,-341.2 2072.38,-341.2 2066.38,-335.2 2066.38,-329.2 2066.38,-329.2 2066.38,-317.2 2066.38,-317.2 2066.38,-311.2 2072.38,-305.2 2078.38,-305.2 2078.38,-305.2 2261.62,-305.2 2261.62,-305.2 2267.62,-305.2 2273.62,-311.2 2273.62,-317.2 2273.62,-317.2 2273.62,-329.2 2273.62,-329.2 2273.62,-335.2 2267.62,-341.2 2261.62,-341.2"/>
<text xml:space="preserve" text-anchor="middle" x="2170" y="-320.2" font-family="Helvetica,sans-Serif" font-size="10.00">coord_sq_centered_scaled_exp_integrable</text>
</a>
</g>
</g>
<!-- n16&#45;&gt;n0 -->
<g id="edge13" class="edge">
<title>n16&#45;&gt;n0</title>
<path fill="none" stroke="#64748b" d="M2230.47,-304.82C2263.61,-294.98 2305.3,-282.09 2342,-269.2 2343.92,-268.53 2345.89,-267.82 2347.86,-267.09"/>
<polygon fill="#64748b" stroke="#64748b" points="2348.4,-269.5 2354.09,-264.74 2346.67,-264.92 2348.4,-269.5"/>
</g>
<!-- n16&#45;&gt;n1 -->
<g id="edge14" class="edge">
<title>n16&#45;&gt;n1</title>
<path fill="none" stroke="#64748b" d="M2246.39,-304.74C2298.27,-289.56 2352.23,-265.01 2321,-233.2 2312.49,-224.54 1895.97,-227.21 1884,-225.2 1852.7,-219.94 1818.87,-209.15 1792.08,-199.32"/>
<polygon fill="#64748b" stroke="#64748b" points="1793.19,-197.12 1785.78,-196.97 1791.48,-201.71 1793.19,-197.12"/>
</g>
<!-- n16&#45;&gt;n9 -->
<g id="edge15" class="edge">
<title>n16&#45;&gt;n9</title>
<path fill="none" stroke="#64748b" d="M2086.58,-304.72C2033.12,-293.51 1964.25,-279.08 1912.25,-268.18"/>
<polygon fill="#64748b" stroke="#64748b" points="1912.89,-265.81 1905.54,-266.77 1911.89,-270.61 1912.89,-265.81"/>
</g>
<!-- n15 -->
<g id="node52" class="node">
<title>n15</title>
<g id="a_node52"><a xlink:href="vscode://vscode-remote/wsl+Ubuntu/home/ai4stat/statlib/Statlib/StatFoundation/RandomVariable/SubGaussian/subgaussian_exp_sq_le_at_one_third.lean:166" xlink:title="theorem · Statlib/StatFoundation/RandomVariable/SubGaussian/subgaussian_exp_sq_le_at_one_third.lean:166" target="_blank">
<path fill="#ffe6a3" stroke="#d4a017" d="M3093.3,-124C3093.3,-124 2896.7,-124 2896.7,-124 2890.7,-124 2884.7,-118 2884.7,-112 2884.7,-112 2884.7,-100 2884.7,-100 2884.7,-94 2890.7,-88 2896.7,-88 2896.7,-88 3093.3,-88 3093.3,-88 3099.3,-88 3105.3,-94 3105.3,-100 3105.3,-100 3105.3,-112 3105.3,-112 3105.3,-118 3099.3,-124 3093.3,-124"/>
<text xml:space="preserve" text-anchor="middle" x="2995" y="-103" font-family="Helvetica,sans-Serif" font-size="10.00">subgaussian_integrable_exp_sq_at_one_third</text>
</a>
</g>
</g>
<!-- n16&#45;&gt;n15 -->
<g id="edge16" class="edge">
<title>n16&#45;&gt;n15</title>
<path fill="none" stroke="#64748b" d="M2273.85,-318.09C2491.48,-308.4 2979.44,-280.67 3029,-225.2 3052.51,-198.89 3031.5,-157.3 3013.66,-131.12"/>
<polygon fill="#64748b" stroke="#64748b" points="3015.89,-130.03 3009.85,-125.73 3011.89,-132.86 3015.89,-130.03"/>
</g>
<!-- n21 -->
<g id="node14" class="node">
<title>n21</title>
<g id="a_node14"><a xlink:href="vscode://vscode-remote/wsl+Ubuntu/home/ai4stat/statlib/Statlib/HighDim/Concentration/HansonWright.lean:2044" xlink:title="lemma · Statlib/HighDim/Concentration/HansonWright.lean:2044" target="_blank">
<path fill="#eef2f6" stroke="#94a3b8" d="M2036.67,-341.2C2036.67,-341.2 1867.33,-341.2 1867.33,-341.2 1861.33,-341.2 1855.33,-335.2 1855.33,-329.2 1855.33,-329.2 1855.33,-317.2 1855.33,-317.2 1855.33,-311.2 1861.33,-305.2 1867.33,-305.2 1867.33,-305.2 2036.67,-305.2 2036.67,-305.2 2042.67,-305.2 2048.67,-311.2 2048.67,-317.2 2048.67,-317.2 2048.67,-329.2 2048.67,-329.2 2048.67,-335.2 2042.67,-341.2 2036.67,-341.2"/>
<text xml:space="preserve" text-anchor="middle" x="1952" y="-320.2" font-family="Helvetica,sans-Serif" font-size="10.00">coord_sq_centered_mgf_bound_explicit</text>
</a>
</g>
</g>
<!-- n21&#45;&gt;n0 -->
<g id="edge22" class="edge">
<title>n21&#45;&gt;n0</title>
<path fill="none" stroke="#64748b" d="M2048.96,-306.41C2051.67,-306 2054.35,-305.59 2057,-305.2 2174.56,-287.7 2205.49,-292.73 2322,-269.2 2330.25,-267.53 2339.01,-265.41 2347.29,-263.22"/>
<polygon fill="#64748b" stroke="#64748b" points="2347.8,-265.62 2353.92,-261.43 2346.52,-260.89 2347.8,-265.62"/>
</g>
<!-- n21&#45;&gt;n1 -->
<g id="edge23" class="edge">
<title>n21&#45;&gt;n1</title>
<path fill="none" stroke="#64748b" d="M2048.96,-306.44C2051.67,-306.02 2054.35,-305.6 2057,-305.2 2171.3,-287.72 2387.98,-315.73 2307,-233.2 2298.77,-224.81 1895.59,-227.15 1884,-225.2 1852.7,-219.93 1818.87,-209.14 1792.08,-199.31"/>
<polygon fill="#64748b" stroke="#64748b" points="1793.19,-197.11 1785.78,-196.96 1791.48,-201.7 1793.19,-197.11"/>
</g>
<!-- n21&#45;&gt;n9 -->
<g id="edge24" class="edge">
<title>n21&#45;&gt;n9</title>
<path fill="none" stroke="#64748b" d="M1923.03,-304.72C1907.41,-295.29 1888.01,-283.58 1871.49,-273.61"/>
<polygon fill="#64748b" stroke="#64748b" points="1873.16,-271.76 1865.9,-270.24 1870.63,-275.96 1873.16,-271.76"/>
</g>
<!-- n20 -->
<g id="node56" class="node">
<title>n20</title>
<g id="a_node56"><a xlink:href="vscode://vscode-remote/wsl+Ubuntu/home/ai4stat/statlib/Statlib/StatFoundation/RandomVariable/SubExponential/subexp_mgf_le_of_sq_subgaussian.lean:72" xlink:title="theorem · Statlib/StatFoundation/RandomVariable/SubExponential/subexp_mgf_le_of_sq_subgaussian.lean:72" target="_blank">
<path fill="#ffe6a3" stroke="#d4a017" d="M2783.84,-196C2783.84,-196 2596.16,-196 2596.16,-196 2590.16,-196 2584.16,-190 2584.16,-184 2584.16,-184 2584.16,-172 2584.16,-172 2584.16,-166 2590.16,-160 2596.16,-160 2596.16,-160 2783.84,-160 2783.84,-160 2789.84,-160 2795.84,-166 2795.84,-172 2795.84,-172 2795.84,-184 2795.84,-184 2795.84,-190 2789.84,-196 2783.84,-196"/>
<text xml:space="preserve" text-anchor="middle" x="2690" y="-175" font-family="Helvetica,sans-Serif" font-size="10.00">subexp_mgf_le_of_sq_subgaussian_explicit</text>
</a>
</g>
</g>
<!-- n21&#45;&gt;n20 -->
<g id="edge25" class="edge">
<title>n21&#45;&gt;n20</title>
<path fill="none" stroke="#64748b" d="M2048.94,-306.28C2051.65,-305.91 2054.34,-305.55 2057,-305.2 2219.09,-284.13 2262.49,-300.05 2423,-269.2 2492.06,-255.92 2508.51,-248.12 2575,-225.2 2597.19,-217.55 2621.34,-208.04 2641.76,-199.63"/>
<polygon fill="#64748b" stroke="#64748b" points="2642.46,-201.99 2647.99,-197.05 2640.59,-197.46 2642.46,-201.99"/>
</g>
<!-- n22 -->
<g id="node15" class="node">
<title>n22</title>
<g id="a_node15"><a xlink:href="vscode://vscode-remote/wsl+Ubuntu/home/ai4stat/statlib/Statlib/HighDim/Concentration/HansonWright.lean:2192" xlink:title="lemma · Statlib/HighDim/Concentration/HansonWright.lean:2192" target="_blank">
<path fill="#eef2f6" stroke="#94a3b8" d="M2282.04,-413.2C2282.04,-413.2 2015.96,-413.2 2015.96,-413.2 2009.96,-413.2 2003.96,-407.2 2003.96,-401.2 2003.96,-401.2 2003.96,-389.2 2003.96,-389.2 2003.96,-383.2 2009.96,-377.2 2015.96,-377.2 2015.96,-377.2 2282.04,-377.2 2282.04,-377.2 2288.04,-377.2 2294.04,-383.2 2294.04,-389.2 2294.04,-389.2 2294.04,-401.2 2294.04,-401.2 2294.04,-407.2 2288.04,-413.2 2282.04,-413.2"/>
<text xml:space="preserve" text-anchor="middle" x="2149" y="-392.2" font-family="Helvetica,sans-Serif" font-size="10.00">coord_sq_centered_scaled_subexponential_explicit_of_range</text>
</a>
</g>
</g>
<!-- n22&#45;&gt;n0 -->
<g id="edge26" class="edge">
<title>n22&#45;&gt;n0</title>
<path fill="none" stroke="#64748b" d="M2215.11,-376.7C2238.16,-368.46 2263.2,-356.9 2283,-341.2 2298.27,-329.1 2294.2,-318.95 2308,-305.2 2319.95,-293.3 2334.88,-282.33 2348.4,-273.5"/>
<polygon fill="#64748b" stroke="#64748b" points="2349.47,-275.72 2354.05,-269.89 2346.83,-271.59 2349.47,-275.72"/>
</g>
<!-- n22&#45;&gt;n1 -->
<g id="edge27" class="edge">
<title>n22&#45;&gt;n1</title>
<path fill="none" stroke="#64748b" d="M2003.63,-389.3C1857.72,-382.84 1651.03,-368.9 1626,-341.2 1576.02,-285.9 1691.99,-271.2 1694,-269.2 1712.46,-250.78 1725.55,-223.77 1733.34,-204.11"/>
<polygon fill="#64748b" stroke="#64748b" points="1735.62,-205.01 1735.82,-197.6 1731.04,-203.27 1735.62,-205.01"/>
</g>
<!-- n22&#45;&gt;n16 -->
<g id="edge29" class="edge">
<title>n22&#45;&gt;n16</title>
<path fill="none" stroke="#64748b" d="M2154.19,-376.9C2156.68,-368.59 2159.72,-358.48 2162.46,-349.34"/>
<polygon fill="#64748b" stroke="#64748b" points="2164.77,-350.16 2164.43,-342.75 2160.08,-348.75 2164.77,-350.16"/>
</g>
<!-- n22&#45;&gt;n21 -->
<g id="edge30" class="edge">
<title>n22&#45;&gt;n21</title>
<path fill="none" stroke="#64748b" d="M2099.8,-376.72C2072.19,-366.91 2037.63,-354.63 2008.86,-344.41"/>
<polygon fill="#64748b" stroke="#64748b" points="2009.76,-342.12 2002.34,-342.09 2008.12,-346.74 2009.76,-342.12"/>
</g>
<!-- n13 -->
<g id="node50" class="node">
<title>n13</title>
<g id="a_node50"><a xlink:href="vscode://vscode-remote/wsl+Ubuntu/home/ai4stat/statlib/Statlib/StatFoundation/Vocabulary/RandomVariable.lean:74" xlink:title="structure · Statlib/StatFoundation/Vocabulary/RandomVariable.lean:74" target="_blank">
<path fill="#e8dcff" stroke="#8b5cf6" d="M3236.47,-124C3236.47,-124 3135.53,-124 3135.53,-124 3129.53,-124 3123.53,-118 3123.53,-112 3123.53,-112 3123.53,-100 3123.53,-100 3123.53,-94 3129.53,-88 3135.53,-88 3135.53,-88 3236.47,-88 3236.47,-88 3242.47,-88 3248.47,-94 3248.47,-100 3248.47,-100 3248.47,-112 3248.47,-112 3248.47,-118 3242.47,-124 3236.47,-124"/>
<text xml:space="preserve" text-anchor="middle" x="3186" y="-103" font-family="Helvetica,sans-Serif" font-size="10.00">HasSubexponentialMGF</text>
</a>
</g>
</g>
<!-- n22&#45;&gt;n13 -->
<g id="edge28" class="edge">
<title>n22&#45;&gt;n13</title>
<path fill="none" stroke="#64748b" d="M2294.26,-378.11C2494.75,-354.86 2845.31,-310.15 2967,-269.2 3050.64,-241.05 3128.66,-167.82 3164.84,-130.14"/>
<polygon fill="#64748b" stroke="#64748b" points="3166.2,-132.27 3169.25,-125.5 3162.65,-128.89 3166.2,-132.27"/>
</g>
<!-- n24 -->
<g id="node16" class="node">
<title>n24</title>
<g id="a_node16"><a xlink:href="vscode://vscode-remote/wsl+Ubuntu/home/ai4stat/statlib/Statlib/HighDim/Concentration/HansonWright.lean:2248" xlink:title="lemma · Statlib/HighDim/Concentration/HansonWright.lean:2248" target="_blank">
<path fill="#eef2f6" stroke="#94a3b8" d="M2250.07,-485.2C2250.07,-485.2 2047.93,-485.2 2047.93,-485.2 2041.93,-485.2 2035.93,-479.2 2035.93,-473.2 2035.93,-473.2 2035.93,-461.2 2035.93,-461.2 2035.93,-455.2 2041.93,-449.2 2047.93,-449.2 2047.93,-449.2 2250.07,-449.2 2250.07,-449.2 2256.07,-449.2 2262.07,-455.2 2262.07,-461.2 2262.07,-461.2 2262.07,-473.2 2262.07,-473.2 2262.07,-479.2 2256.07,-485.2 2250.07,-485.2"/>
<text xml:space="preserve" text-anchor="middle" x="2149" y="-464.2" font-family="Helvetica,sans-Serif" font-size="10.00">weighted_coord_sq_centered_sum_tail_explicit</text>
</a>
</g>
</g>
<!-- n24&#45;&gt;n0 -->
<g id="edge32" class="edge">
<title>n24&#45;&gt;n0</title>
<path fill="none" stroke="#64748b" d="M2247.41,-448.73C2268.17,-440.9 2288.24,-429.58 2303,-413.2 2335.98,-376.6 2303.32,-347.84 2328,-305.2 2334.61,-293.78 2344.46,-283.37 2354.13,-274.85"/>
<polygon fill="#64748b" stroke="#64748b" points="2355.5,-276.9 2359.26,-270.51 2352.34,-273.16 2355.5,-276.9"/>
</g>
<!-- n24&#45;&gt;n1 -->
<g id="edge33" class="edge">
<title>n24&#45;&gt;n1</title>
<path fill="none" stroke="#64748b" d="M2035.47,-462.83C1915.36,-457.65 1734.93,-444.74 1674,-413.2 1624.45,-387.55 1581.83,-353.36 1610,-305.2 1626.48,-277.03 1650.98,-292.34 1674,-269.2 1686.91,-256.22 1683.43,-248.14 1694,-233.2 1701.55,-222.53 1710.89,-211.58 1719.32,-202.35"/>
<polygon fill="#64748b" stroke="#64748b" points="1720.98,-204.16 1723.94,-197.36 1717.39,-200.83 1720.98,-204.16"/>
</g>
<!-- n24&#45;&gt;n9 -->
<g id="edge36" class="edge">
<title>n24&#45;&gt;n9</title>
<path fill="none" stroke="#64748b" d="M2035.49,-455.29C1897.28,-439.39 1676.03,-404.59 1626,-341.2 1616.09,-328.64 1616.17,-317.82 1626,-305.2 1634.53,-294.24 1703.15,-278.28 1759.67,-266.74"/>
<polygon fill="#64748b" stroke="#64748b" points="1760.05,-269.16 1766.43,-265.37 1759.08,-264.36 1760.05,-269.16"/>
</g>
<!-- n24&#45;&gt;n22 -->
<g id="edge35" class="edge">
<title>n24&#45;&gt;n22</title>
<path fill="none" stroke="#64748b" d="M2149,-448.9C2149,-440.67 2149,-430.68 2149,-421.62"/>
<polygon fill="#64748b" stroke="#64748b" points="2151.45,-421.82 2149,-414.82 2146.55,-421.82 2151.45,-421.82"/>
</g>
<!-- n24&#45;&gt;n13 -->
<g id="edge34" class="edge">
<title>n24&#45;&gt;n13</title>
<path fill="none" stroke="#64748b" d="M2262.12,-462.2C2528.69,-451.28 3174,-415.43 3174,-324.2 3174,-324.2 3174,-324.2 3174,-250.2 3174,-208.82 3179.04,-160.96 3182.58,-132.38"/>
<polygon fill="#64748b" stroke="#64748b" points="3184.99,-132.91 3183.44,-125.66 3180.12,-132.29 3184.99,-132.91"/>
</g>
<!-- n23 -->
<g id="node57" class="node">
<title>n23</title>
<g id="a_node57"><a xlink:href="vscode://vscode-remote/wsl+Ubuntu/home/ai4stat/statlib/Statlib/StatFoundation/Concentration/ExponentialType/bernstein_sum_meas_abs_ge_le_two_exp.lean:13" xlink:title="theorem · Statlib/StatFoundation/Concentration/ExponentialType/bernstein_sum_meas_abs_ge_le_two_exp.lean:13" target="_blank">
<path fill="#ffe6a3" stroke="#d4a017" d="M3008.06,-196C3008.06,-196 2825.94,-196 2825.94,-196 2819.94,-196 2813.94,-190 2813.94,-184 2813.94,-184 2813.94,-172 2813.94,-172 2813.94,-166 2819.94,-160 2825.94,-160 2825.94,-160 3008.06,-160 3008.06,-160 3014.06,-160 3020.06,-166 3020.06,-172 3020.06,-172 3020.06,-184 3020.06,-184 3020.06,-190 3014.06,-196 3008.06,-196"/>
<text xml:space="preserve" text-anchor="middle" x="2917" y="-175" font-family="Helvetica,sans-Serif" font-size="10.00">bernstein_sum_meas_abs_ge_le_two_exp</text>
</a>
</g>
</g>
<!-- n24&#45;&gt;n23 -->
<g id="edge37" class="edge">
<title>n24&#45;&gt;n23</title>
<path fill="none" stroke="#64748b" d="M2206.86,-448.77C2239.14,-438.81 2279.97,-425.83 2316,-413.2 2523.02,-340.63 2765.13,-241.98 2867.41,-199.67"/>
<polygon fill="#64748b" stroke="#64748b" points="2868.18,-202 2873.71,-197.05 2866.31,-197.47 2868.18,-202"/>
</g>
<!-- n25 -->
<g id="node17" class="node">
<title>n25</title>
<g id="a_node17"><a xlink:href="vscode://vscode-remote/wsl+Ubuntu/home/ai4stat/statlib/Statlib/HighDim/Concentration/HansonWright.lean:2446" xlink:title="lemma · Statlib/HighDim/Concentration/HansonWright.lean:2446" target="_blank">
<path fill="#eef2f6" stroke="#94a3b8" d="M1720.9,-557.2C1720.9,-557.2 1527.1,-557.2 1527.1,-557.2 1521.1,-557.2 1515.1,-551.2 1515.1,-545.2 1515.1,-545.2 1515.1,-533.2 1515.1,-533.2 1515.1,-527.2 1521.1,-521.2 1527.1,-521.2 1527.1,-521.2 1720.9,-521.2 1720.9,-521.2 1726.9,-521.2 1732.9,-527.2 1732.9,-533.2 1732.9,-533.2 1732.9,-545.2 1732.9,-545.2 1732.9,-551.2 1726.9,-557.2 1720.9,-557.2"/>
<text xml:space="preserve" text-anchor="middle" x="1624" y="-536.2" font-family="Helvetica,sans-Serif" font-size="10.00">subgaussian_norm_sq_tail_bernstein_explicit</text>
</a>
</g>
</g>
<!-- n25&#45;&gt;n0 -->
<g id="edge38" class="edge">
<title>n25&#45;&gt;n0</title>
<path fill="none" stroke="#64748b" d="M1733.33,-534.57C1905.84,-528.04 2226.3,-512.42 2271,-485.2 2345.32,-439.95 2310.25,-383.6 2348,-305.2 2352.84,-295.15 2359.5,-284.91 2365.84,-276.15"/>
<polygon fill="#64748b" stroke="#64748b" points="2367.69,-277.76 2369.91,-270.68 2363.76,-274.83 2367.69,-277.76"/>
</g>
<!-- n25&#45;&gt;n1 -->
<g id="edge39" class="edge">
<title>n25&#45;&gt;n1</title>
<path fill="none" stroke="#64748b" d="M1572.4,-520.8C1556.25,-512.64 1540.24,-501.11 1531,-485.2 1510.9,-450.62 1507.01,-337.21 1531,-305.2 1565.15,-259.62 1609.5,-304.76 1654,-269.2 1668.3,-257.77 1662.17,-247.17 1674,-233.2 1683.95,-221.45 1696.76,-210.46 1708.58,-201.49"/>
<polygon fill="#64748b" stroke="#64748b" points="1710,-203.48 1714.18,-197.35 1707.09,-199.54 1710,-203.48"/>
</g>
<!-- n25&#45;&gt;n6 -->
<g id="edge43" class="edge">
<title>n25&#45;&gt;n6</title>
<path fill="none" stroke="#64748b" d="M1610.44,-521.11C1603.36,-511.21 1595.3,-498.16 1591,-485.2 1565.83,-409.26 1544.85,-369.83 1592,-305.2 1597.95,-297.04 1749.31,-236.05 1759,-233.2 1779.75,-227.1 1786.17,-231.01 1807,-225.2 1833.71,-217.75 1862.69,-206.21 1885,-196.53"/>
<polygon fill="#64748b" stroke="#64748b" points="1885.79,-198.86 1891.22,-193.8 1883.82,-194.37 1885.79,-198.86"/>
</g>
<!-- n25&#45;&gt;n7 -->
<g id="edge42" class="edge">
<title>n25&#45;&gt;n7</title>
<path fill="none" stroke="#64748b" d="M1645.47,-520.93C1684.71,-488.61 1769.19,-415.54 1826,-341.2 1837.11,-326.66 1830.75,-315.32 1846,-305.2 1908.03,-264.06 2105.75,-282.39 2179,-269.2 2181.33,-268.78 2183.69,-268.33 2186.07,-267.84"/>
<polygon fill="#64748b" stroke="#64748b" points="2186.4,-270.28 2192.74,-266.42 2185.38,-265.49 2186.4,-270.28"/>
</g>
<!-- n25&#45;&gt;n9 -->
<g id="edge41" class="edge">
<title>n25&#45;&gt;n9</title>
<path fill="none" stroke="#64748b" d="M1616.58,-520.98C1599.77,-478.97 1563.99,-369.89 1615,-305.2 1624.24,-293.49 1699.67,-277.12 1759.87,-265.68"/>
<polygon fill="#64748b" stroke="#64748b" points="1759.97,-268.16 1766.39,-264.45 1759.06,-263.34 1759.97,-268.16"/>
</g>
<!-- n25&#45;&gt;n12 -->
<g id="edge40" class="edge">
<title>n25&#45;&gt;n12</title>
<path fill="none" stroke="#64748b" d="M1632.17,-521.05C1650.15,-483.33 1693.19,-393.03 1714.14,-349.08"/>
<polygon fill="#64748b" stroke="#64748b" points="1716.33,-350.17 1717.14,-342.8 1711.91,-348.06 1716.33,-350.17"/>
</g>
<!-- n25&#45;&gt;n24 -->
<g id="edge44" class="edge">
<title>n25&#45;&gt;n24</title>
<path fill="none" stroke="#64748b" d="M1733.1,-523.65C1818.9,-512.21 1938.38,-496.28 2027.27,-484.43"/>
<polygon fill="#64748b" stroke="#64748b" points="2027.39,-486.89 2034.01,-483.53 2026.74,-482.03 2027.39,-486.89"/>
</g>
<!-- n26 -->
<g id="node18" class="node">
<title>n26</title>
<g id="a_node18"><a xlink:href="vscode://vscode-remote/wsl+Ubuntu/home/ai4stat/statlib/Statlib/HighDim/Vocabulary/QuadraticForms.lean:46" xlink:title="noncomputable def · Statlib/HighDim/Vocabulary/QuadraticForms.lean:46" target="_blank">
<path fill="#d6e9ff" stroke="#3b82f6" d="M736.41,-124C736.41,-124 671.59,-124 671.59,-124 665.59,-124 659.59,-118 659.59,-112 659.59,-112 659.59,-100 659.59,-100 659.59,-94 665.59,-88 671.59,-88 671.59,-88 736.41,-88 736.41,-88 742.41,-88 748.41,-94 748.41,-100 748.41,-100 748.41,-112 748.41,-112 748.41,-118 742.41,-124 736.41,-124"/>
<text xml:space="preserve" text-anchor="middle" x="704" y="-103" font-family="Helvetica,sans-Serif" font-size="10.00">offDiagCoeffVec</text>
</a>
</g>
</g>
<!-- n27 -->
<g id="node19" class="node">
<title>n27</title>
<g id="a_node19"><a xlink:href="vscode://vscode-remote/wsl+Ubuntu/home/ai4stat/statlib/Statlib/HighDim/Concentration/HansonWright.lean:86" xlink:title="lemma · Statlib/HighDim/Concentration/HansonWright.lean:86" target="_blank">
<path fill="#eef2f6" stroke="#94a3b8" d="M1235.83,-124C1235.83,-124 1058.17,-124 1058.17,-124 1052.17,-124 1046.17,-118 1046.17,-112 1046.17,-112 1046.17,-100 1046.17,-100 1046.17,-94 1052.17,-88 1058.17,-88 1058.17,-88 1235.83,-88 1235.83,-88 1241.83,-88 1247.83,-94 1247.83,-100 1247.83,-100 1247.83,-112 1247.83,-112 1247.83,-118 1241.83,-124 1235.83,-124"/>
<text xml:space="preserve" text-anchor="middle" x="1147" y="-103" font-family="Helvetica,sans-Serif" font-size="10.00">decoupledOffDiagQuadForm_measurable</text>
</a>
</g>
</g>
<!-- n27&#45;&gt;n5 -->
<g id="edge45" class="edge">
<title>n27&#45;&gt;n5</title>
<path fill="none" stroke="#64748b" d="M1114.53,-87.52C1096.87,-78.01 1074.89,-66.17 1056.27,-56.15"/>
<polygon fill="#64748b" stroke="#64748b" points="1057.71,-54.14 1050.39,-52.98 1055.39,-58.45 1057.71,-54.14"/>
</g>
<!-- n28 -->
<g id="node20" class="node">
<title>n28</title>
<g id="a_node20"><a xlink:href="vscode://vscode-remote/wsl+Ubuntu/home/ai4stat/statlib/Statlib/HighDim/Concentration/HansonWright.lean:95" xlink:title="lemma · Statlib/HighDim/Concentration/HansonWright.lean:95" target="_blank">
<path fill="#eef2f6" stroke="#94a3b8" d="M1241.62,-196C1241.62,-196 1038.38,-196 1038.38,-196 1032.38,-196 1026.38,-190 1026.38,-184 1026.38,-184 1026.38,-172 1026.38,-172 1026.38,-166 1032.38,-160 1038.38,-160 1038.38,-160 1241.62,-160 1241.62,-160 1247.62,-160 1253.62,-166 1253.62,-172 1253.62,-172 1253.62,-184 1253.62,-184 1253.62,-190 1247.62,-196 1241.62,-196"/>
<text xml:space="preserve" text-anchor="middle" x="1140" y="-175" font-family="Helvetica,sans-Serif" font-size="10.00">decoupledOffDiagQuadForm_prod_measurable</text>
</a>
</g>
</g>
<!-- n28&#45;&gt;n5 -->
<g id="edge46" class="edge">
<title>n28&#45;&gt;n5</title>
<path fill="none" stroke="#64748b" d="M1085.31,-159.54C1067.53,-151.36 1049.24,-139.83 1037,-124 1022.97,-105.86 1018.41,-79.76 1017.1,-60.51"/>
<polygon fill="#64748b" stroke="#64748b" points="1019.56,-60.59 1016.78,-53.72 1014.66,-60.83 1019.56,-60.59"/>
</g>
<!-- n28&#45;&gt;n27 -->
<g id="edge47" class="edge">
<title>n28&#45;&gt;n27</title>
<path fill="none" stroke="#64748b" d="M1141.73,-159.7C1142.55,-151.47 1143.55,-141.48 1144.46,-132.42"/>
<polygon fill="#64748b" stroke="#64748b" points="1146.88,-132.82 1145.14,-125.61 1142,-132.33 1146.88,-132.82"/>
</g>
<!-- n29 -->
<g id="node21" class="node">
<title>n29</title>
<g id="a_node21"><a xlink:href="vscode://vscode-remote/wsl+Ubuntu/home/ai4stat/statlib/Statlib/HighDim/Concentration/HansonWright.lean:105" xlink:title="lemma · Statlib/HighDim/Concentration/HansonWright.lean:105" target="_blank">
<path fill="#eef2f6" stroke="#94a3b8" d="M1132.29,-269.2C1132.29,-269.2 895.71,-269.2 895.71,-269.2 889.71,-269.2 883.71,-263.2 883.71,-257.2 883.71,-257.2 883.71,-245.2 883.71,-245.2 883.71,-239.2 889.71,-233.2 895.71,-233.2 895.71,-233.2 1132.29,-233.2 1132.29,-233.2 1138.29,-233.2 1144.29,-239.2 1144.29,-245.2 1144.29,-245.2 1144.29,-257.2 1144.29,-257.2 1144.29,-263.2 1138.29,-269.2 1132.29,-269.2"/>
<text xml:space="preserve" text-anchor="middle" x="1014" y="-248.2" font-family="Helvetica,sans-Serif" font-size="10.00">decoupledOffDiagQuadForm_prod_tail_measurableSet</text>
</a>
</g>
</g>
<!-- n29&#45;&gt;n5 -->
<g id="edge48" class="edge">
<title>n29&#45;&gt;n5</title>
<path fill="none" stroke="#64748b" d="M1014.24,-232.95C1014.77,-195.18 1016.02,-104.97 1016.64,-60.57"/>
<polygon fill="#64748b" stroke="#64748b" points="1019.09,-60.88 1016.74,-53.84 1014.19,-60.81 1019.09,-60.88"/>
</g>
<!-- n29&#45;&gt;n28 -->
<g id="edge49" class="edge">
<title>n29&#45;&gt;n28</title>
<path fill="none" stroke="#64748b" d="M1044.82,-232.78C1062.06,-223.04 1083.69,-210.82 1101.97,-200.49"/>
<polygon fill="#64748b" stroke="#64748b" points="1102.85,-202.81 1107.74,-197.23 1100.44,-198.54 1102.85,-202.81"/>
</g>
<!-- n30 -->
<g id="node22" class="node">
<title>n30</title>
<g id="a_node22"><a xlink:href="vscode://vscode-remote/wsl+Ubuntu/home/ai4stat/statlib/Statlib/HighDim/Concentration/HansonWright.lean:670" xlink:title="lemma · Statlib/HighDim/Concentration/HansonWright.lean:670" target="_blank">
<path fill="#eef2f6" stroke="#94a3b8" d="M896.32,-196C896.32,-196 743.68,-196 743.68,-196 737.68,-196 731.68,-190 731.68,-184 731.68,-184 731.68,-172 731.68,-172 731.68,-166 737.68,-160 743.68,-160 743.68,-160 896.32,-160 896.32,-160 902.32,-160 908.32,-166 908.32,-172 908.32,-172 908.32,-184 908.32,-184 908.32,-190 902.32,-196 896.32,-196"/>
<text xml:space="preserve" text-anchor="middle" x="820" y="-175" font-family="Helvetica,sans-Serif" font-size="10.00">offDiagCoeffVec_comp_measurable</text>
</a>
</g>
</g>
<!-- n30&#45;&gt;n26 -->
<g id="edge50" class="edge">
<title>n30&#45;&gt;n26</title>
<path fill="none" stroke="#64748b" d="M791.03,-159.52C775.41,-150.09 756.01,-138.38 739.49,-128.41"/>
<polygon fill="#64748b" stroke="#64748b" points="741.16,-126.56 733.9,-125.04 738.63,-130.76 741.16,-126.56"/>
</g>
<!-- n31 -->
<g id="node23" class="node">
<title>n31</title>
<g id="a_node23"><a xlink:href="vscode://vscode-remote/wsl+Ubuntu/home/ai4stat/statlib/Statlib/HighDim/Concentration/HansonWright.lean:678" xlink:title="lemma · Statlib/HighDim/Concentration/HansonWright.lean:678" target="_blank">
<path fill="#eef2f6" stroke="#94a3b8" d="M793.55,-269.2C793.55,-269.2 626.45,-269.2 626.45,-269.2 620.45,-269.2 614.45,-263.2 614.45,-257.2 614.45,-257.2 614.45,-245.2 614.45,-245.2 614.45,-239.2 620.45,-233.2 626.45,-233.2 626.45,-233.2 793.55,-233.2 793.55,-233.2 799.55,-233.2 805.55,-239.2 805.55,-245.2 805.55,-245.2 805.55,-257.2 805.55,-257.2 805.55,-263.2 799.55,-269.2 793.55,-269.2"/>
<text xml:space="preserve" text-anchor="middle" x="710" y="-248.2" font-family="Helvetica,sans-Serif" font-size="10.00">offDiagCoeffVec_norm_sq_measurable</text>
</a>
</g>
</g>
<!-- n31&#45;&gt;n26 -->
<g id="edge51" class="edge">
<title>n31&#45;&gt;n26</title>
<path fill="none" stroke="#64748b" d="M709.28,-232.93C708.23,-207.98 706.29,-161.7 705.08,-132.73"/>
<polygon fill="#64748b" stroke="#64748b" points="707.53,-132.74 704.79,-125.85 702.63,-132.94 707.53,-132.74"/>
</g>
<!-- n31&#45;&gt;n30 -->
<g id="edge52" class="edge">
<title>n31&#45;&gt;n30</title>
<path fill="none" stroke="#64748b" d="M736.91,-232.78C751.69,-223.21 770.17,-211.25 785.95,-201.04"/>
<polygon fill="#64748b" stroke="#64748b" points="787.17,-203.17 791.72,-197.31 784.51,-199.05 787.17,-203.17"/>
</g>
<!-- n32 -->
<g id="node24" class="node">
<title>n32</title>
<g id="a_node24"><a xlink:href="vscode://vscode-remote/wsl+Ubuntu/home/ai4stat/statlib/Statlib/HighDim/Concentration/HansonWright.lean:156" xlink:title="lemma · Statlib/HighDim/Concentration/HansonWright.lean:156" target="_blank">
<path fill="#eef2f6" stroke="#94a3b8" d="M1192.43,-341.2C1192.43,-341.2 1057.57,-341.2 1057.57,-341.2 1051.57,-341.2 1045.57,-335.2 1045.57,-329.2 1045.57,-329.2 1045.57,-317.2 1045.57,-317.2 1045.57,-311.2 1051.57,-305.2 1057.57,-305.2 1057.57,-305.2 1192.43,-305.2 1192.43,-305.2 1198.43,-305.2 1204.43,-311.2 1204.43,-317.2 1204.43,-317.2 1204.43,-329.2 1204.43,-329.2 1204.43,-335.2 1198.43,-341.2 1192.43,-341.2"/>
<text xml:space="preserve" text-anchor="middle" x="1125" y="-320.2" font-family="Helvetica,sans-Serif" font-size="10.00">subgaussian_mgf_mono_param</text>
</a>
</g>
</g>
<!-- n33 -->
<g id="node25" class="node">
<title>n33</title>
<g id="a_node25"><a xlink:href="vscode://vscode-remote/wsl+Ubuntu/home/ai4stat/statlib/Statlib/HighDim/Vocabulary/QuadraticForms.lean:39" xlink:title="noncomputable def · Statlib/HighDim/Vocabulary/QuadraticForms.lean:39" target="_blank">
<path fill="#d6e9ff" stroke="#3b82f6" d="M1708.79,-52C1708.79,-52 1661.21,-52 1661.21,-52 1655.21,-52 1649.21,-46 1649.21,-40 1649.21,-40 1649.21,-28 1649.21,-28 1649.21,-22 1655.21,-16 1661.21,-16 1661.21,-16 1708.79,-16 1708.79,-16 1714.79,-16 1720.79,-22 1720.79,-28 1720.79,-28 1720.79,-40 1720.79,-40 1720.79,-46 1714.79,-52 1708.79,-52"/>
<text xml:space="preserve" text-anchor="middle" x="1685" y="-31" font-family="Helvetica,sans-Serif" font-size="10.00">offDiagCoeff</text>
</a>
</g>
</g>
<!-- n34 -->
<g id="node26" class="node">
<title>n34</title>
<g id="a_node26"><a xlink:href="vscode://vscode-remote/wsl+Ubuntu/home/ai4stat/statlib/Statlib/HighDim/Concentration/HansonWright.lean:42" xlink:title="lemma · Statlib/HighDim/Concentration/HansonWright.lean:42" target="_blank">
<path fill="#eef2f6" stroke="#94a3b8" d="M1654.11,-124C1654.11,-124 1465.89,-124 1465.89,-124 1459.89,-124 1453.89,-118 1453.89,-112 1453.89,-112 1453.89,-100 1453.89,-100 1453.89,-94 1459.89,-88 1465.89,-88 1465.89,-88 1654.11,-88 1654.11,-88 1660.11,-88 1666.11,-94 1666.11,-100 1666.11,-100 1666.11,-112 1666.11,-112 1666.11,-118 1660.11,-124 1654.11,-124"/>
<text xml:space="preserve" text-anchor="middle" x="1560" y="-103" font-family="Helvetica,sans-Serif" font-size="10.00">decoupledOffDiagQuadForm_eq_sum_coeff</text>
</a>
</g>
</g>
<!-- n34&#45;&gt;n5 -->
<g id="edge53" class="edge">
<title>n34&#45;&gt;n5</title>
<path fill="none" stroke="#64748b" d="M1453.68,-89.85C1449.06,-89.22 1444.48,-88.6 1440,-88 1320.9,-72.1 1182.75,-55.05 1097.6,-44.71"/>
<polygon fill="#64748b" stroke="#64748b" points="1098.02,-42.29 1090.78,-43.88 1097.43,-47.16 1098.02,-42.29"/>
</g>
<!-- n34&#45;&gt;n33 -->
<g id="edge54" class="edge">
<title>n34&#45;&gt;n33</title>
<path fill="none" stroke="#64748b" d="M1591.22,-87.52C1608.05,-78.09 1628.96,-66.38 1646.76,-56.41"/>
<polygon fill="#64748b" stroke="#64748b" points="1647.95,-58.56 1652.86,-53 1645.55,-54.28 1647.95,-58.56"/>
</g>
<!-- n35 -->
<g id="node27" class="node">
<title>n35</title>
<g id="a_node27"><a xlink:href="vscode://vscode-remote/wsl+Ubuntu/home/ai4stat/statlib/Statlib/HighDim/Concentration/HansonWright.lean:61" xlink:title="lemma · Statlib/HighDim/Concentration/HansonWright.lean:61" target="_blank">
<path fill="#eef2f6" stroke="#94a3b8" d="M1655.79,-196C1655.79,-196 1464.21,-196 1464.21,-196 1458.21,-196 1452.21,-190 1452.21,-184 1452.21,-184 1452.21,-172 1452.21,-172 1452.21,-166 1458.21,-160 1464.21,-160 1464.21,-160 1655.79,-160 1655.79,-160 1661.79,-160 1667.79,-166 1667.79,-172 1667.79,-172 1667.79,-184 1667.79,-184 1667.79,-190 1661.79,-196 1655.79,-196"/>
<text xml:space="preserve" text-anchor="middle" x="1560" y="-175" font-family="Helvetica,sans-Serif" font-size="10.00">decoupledOffDiagQuadForm_eq_inner_coeff</text>
</a>
</g>
</g>
<!-- n35&#45;&gt;n5 -->
<g id="edge55" class="edge">
<title>n35&#45;&gt;n5</title>
<path fill="none" stroke="#64748b" d="M1507.08,-159.52C1486.29,-150.96 1463.11,-139.19 1445,-124 1430.07,-111.48 1436.63,-98.14 1420,-88 1367.47,-55.99 1199.57,-43 1097.81,-37.97"/>
<polygon fill="#64748b" stroke="#64748b" points="1098.01,-35.52 1090.9,-37.63 1097.77,-40.42 1098.01,-35.52"/>
</g>
<!-- n35&#45;&gt;n8 -->
<g id="edge58" class="edge">
<title>n35&#45;&gt;n8</title>
<path fill="none" stroke="#64748b" d="M1628.93,-159.52C1678.43,-146.96 1743.91,-130.36 1787.86,-119.21"/>
<polygon fill="#64748b" stroke="#64748b" points="1788.43,-121.59 1794.61,-117.5 1787.23,-116.84 1788.43,-121.59"/>
</g>
<!-- n35&#45;&gt;n33 -->
<g id="edge56" class="edge">
<title>n35&#45;&gt;n33</title>
<path fill="none" stroke="#64748b" d="M1643.75,-159.53C1661.93,-151.71 1678.99,-140.38 1690,-124 1702.48,-105.43 1699.27,-79.44 1694.11,-60.34"/>
<polygon fill="#64748b" stroke="#64748b" points="1696.51,-59.82 1692.17,-53.81 1691.81,-61.22 1696.51,-59.82"/>
</g>
<!-- n35&#45;&gt;n34 -->
<g id="edge57" class="edge">
<title>n35&#45;&gt;n34</title>
<path fill="none" stroke="#64748b" d="M1560,-159.7C1560,-151.47 1560,-141.48 1560,-132.42"/>
<polygon fill="#64748b" stroke="#64748b" points="1562.45,-132.62 1560,-125.62 1557.55,-132.62 1562.45,-132.62"/>
</g>
<!-- n36 -->
<g id="node28" class="node">
<title>n36</title>
<g id="a_node28"><a xlink:href="vscode://vscode-remote/wsl+Ubuntu/home/ai4stat/statlib/Statlib/HighDim/Concentration/HansonWright.lean:35" xlink:title="lemma · Statlib/HighDim/Concentration/HansonWright.lean:35" target="_blank">
<path fill="#eef2f6" stroke="#94a3b8" d="M1401.52,-196C1401.52,-196 1324.48,-196 1324.48,-196 1318.48,-196 1312.48,-190 1312.48,-184 1312.48,-184 1312.48,-172 1312.48,-172 1312.48,-166 1318.48,-160 1324.48,-160 1324.48,-160 1401.52,-160 1401.52,-160 1407.52,-160 1413.52,-166 1413.52,-172 1413.52,-172 1413.52,-184 1413.52,-184 1413.52,-190 1407.52,-196 1401.52,-196"/>
<text xml:space="preserve" text-anchor="middle" x="1363" y="-175" font-family="Helvetica,sans-Serif" font-size="10.00">offDiagCoeff_const</text>
</a>
</g>
</g>
<!-- n36&#45;&gt;n26 -->
<g id="edge60" class="edge">
<title>n36&#45;&gt;n26</title>
<path fill="none" stroke="#64748b" d="M1311.98,-167.58C1296.3,-164.89 1278.97,-162.11 1263,-160 1077.77,-135.51 856.56,-117.98 757.07,-110.72"/>
<polygon fill="#64748b" stroke="#64748b" points="757.36,-108.28 750.2,-110.22 757,-113.17 757.36,-108.28"/>
</g>
<!-- n36&#45;&gt;n33 -->
<g id="edge59" class="edge">
<title>n36&#45;&gt;n33</title>
<path fill="none" stroke="#64748b" d="M1413.7,-165.78C1423.41,-163.76 1433.5,-161.74 1443,-160 1494.31,-150.57 1638.89,-161.66 1675,-124 1690.84,-107.48 1691.77,-80.53 1689.7,-60.6"/>
<polygon fill="#64748b" stroke="#64748b" points="1692.14,-60.41 1688.82,-53.78 1687.28,-61.04 1692.14,-60.41"/>
</g>
<!-- n37 -->
<g id="node29" class="node">
<title>n37</title>
<g id="a_node29"><a xlink:href="vscode://vscode-remote/wsl+Ubuntu/home/ai4stat/statlib/Statlib/HighDim/Concentration/HansonWright.lean:69" xlink:title="lemma · Statlib/HighDim/Concentration/HansonWright.lean:69" target="_blank">
<path fill="#eef2f6" stroke="#94a3b8" d="M1457.64,-269.2C1457.64,-269.2 1194.36,-269.2 1194.36,-269.2 1188.36,-269.2 1182.36,-263.2 1182.36,-257.2 1182.36,-257.2 1182.36,-245.2 1182.36,-245.2 1182.36,-239.2 1188.36,-233.2 1194.36,-233.2 1194.36,-233.2 1457.64,-233.2 1457.64,-233.2 1463.64,-233.2 1469.64,-239.2 1469.64,-245.2 1469.64,-245.2 1469.64,-257.2 1469.64,-257.2 1469.64,-263.2 1463.64,-269.2 1457.64,-269.2"/>
<text xml:space="preserve" text-anchor="middle" x="1326" y="-248.2" font-family="Helvetica,sans-Serif" font-size="10.00">decoupledOffDiagQuadForm_const_right_eq_inner_coeffVec</text>
</a>
</g>
</g>
<!-- n37&#45;&gt;n5 -->
<g id="edge61" class="edge">
<title>n37&#45;&gt;n5</title>
<path fill="none" stroke="#64748b" d="M1307.84,-232.82C1305.99,-230.4 1304.31,-227.84 1303,-225.2 1275.37,-169.72 1321.39,-132.27 1278,-88 1253.2,-62.69 1164.54,-48.69 1097.38,-41.53"/>
<polygon fill="#64748b" stroke="#64748b" points="1098.02,-39.13 1090.8,-40.85 1097.51,-44.01 1098.02,-39.13"/>
</g>
<!-- n37&#45;&gt;n26 -->
<g id="edge62" class="edge">
<title>n37&#45;&gt;n26</title>
<path fill="none" stroke="#64748b" d="M1182.08,-235.63C1172.24,-234.76 1162.48,-233.94 1153,-233.2 1137.91,-232.02 1030.19,-232.63 1017,-225.2 986.32,-207.93 1001.43,-179.32 972,-160 937.31,-137.22 824.79,-120.82 757.08,-112.72"/>
<polygon fill="#64748b" stroke="#64748b" points="757.38,-110.29 750.15,-111.9 756.81,-115.15 757.38,-110.29"/>
</g>
<!-- n37&#45;&gt;n35 -->
<g id="edge63" class="edge">
<title>n37&#45;&gt;n35</title>
<path fill="none" stroke="#64748b" d="M1396.37,-232.71C1405.36,-230.29 1414.41,-227.75 1423,-225.2 1449.6,-217.3 1478.77,-207.61 1503.33,-199.15"/>
<polygon fill="#64748b" stroke="#64748b" points="1503.89,-201.54 1509.7,-196.94 1502.29,-196.91 1503.89,-201.54"/>
</g>
<!-- n37&#45;&gt;n36 -->
<g id="edge64" class="edge">
<title>n37&#45;&gt;n36</title>
<path fill="none" stroke="#64748b" d="M1334.96,-232.96C1339.55,-224.13 1345.22,-213.22 1350.25,-203.53"/>
<polygon fill="#64748b" stroke="#64748b" points="1352.37,-204.76 1353.43,-197.42 1348.03,-202.5 1352.37,-204.76"/>
</g>
<!-- n38 -->
<g id="node30" class="node">
<title>n38</title>
<g id="a_node30"><a xlink:href="vscode://vscode-remote/wsl+Ubuntu/home/ai4stat/statlib/Statlib/HighDim/Concentration/HansonWright.lean:76" xlink:title="lemma · Statlib/HighDim/Concentration/HansonWright.lean:76" target="_blank">
<path fill="#eef2f6" stroke="#94a3b8" d="M1016.02,-341.2C1016.02,-341.2 779.98,-341.2 779.98,-341.2 773.98,-341.2 767.98,-335.2 767.98,-329.2 767.98,-329.2 767.98,-317.2 767.98,-317.2 767.98,-311.2 773.98,-305.2 779.98,-305.2 779.98,-305.2 1016.02,-305.2 1016.02,-305.2 1022.02,-305.2 1028.02,-311.2 1028.02,-317.2 1028.02,-317.2 1028.02,-329.2 1028.02,-329.2 1028.02,-335.2 1022.02,-341.2 1016.02,-341.2"/>
<text xml:space="preserve" text-anchor="middle" x="898" y="-320.2" font-family="Helvetica,sans-Serif" font-size="10.00">decoupledOffDiagQuadForm_const_right_subgaussian</text>
</a>
</g>
</g>
<!-- n38&#45;&gt;n1 -->
<g id="edge65" class="edge">
<title>n38&#45;&gt;n1</title>
<path fill="none" stroke="#64748b" d="M1028.2,-306.1C1031.16,-305.79 1034.1,-305.49 1037,-305.2 1138.36,-295.01 1403.52,-316 1494,-269.2 1512.5,-259.63 1505.38,-242.52 1524,-233.2 1554.44,-217.96 1644.85,-236.4 1677,-225.2 1691.65,-220.1 1705.92,-210.62 1717.34,-201.56"/>
<polygon fill="#64748b" stroke="#64748b" points="1718.7,-203.62 1722.55,-197.28 1715.59,-199.84 1718.7,-203.62"/>
</g>
<!-- n38&#45;&gt;n5 -->
<g id="edge66" class="edge">
<title>n38&#45;&gt;n5</title>
<path fill="none" stroke="#64748b" d="M1028.2,-306.11C1031.16,-305.8 1034.1,-305.5 1037,-305.2 1086.02,-300.21 1445.6,-305.43 1479,-269.2 1489.84,-257.44 1489.01,-245.68 1479,-233.2 1468.74,-220.41 1455.04,-236.32 1443,-225.2 1420.74,-204.63 1442.13,-183.51 1423,-160 1381.07,-108.46 1354.49,-110.56 1292,-88 1228.71,-65.15 1153.48,-51.52 1097.71,-43.81"/>
<polygon fill="#64748b" stroke="#64748b" points="1098.05,-41.38 1090.79,-42.87 1097.39,-46.24 1098.05,-41.38"/>
</g>
<!-- n38&#45;&gt;n26 -->
<g id="edge67" class="edge">
<title>n38&#45;&gt;n26</title>
<path fill="none" stroke="#64748b" d="M885.25,-304.7C872.63,-285.06 857.51,-253.31 875,-233.2 891.78,-213.89 915.22,-244.51 932,-225.2 951.01,-203.33 950.02,-182.69 932,-160 910.58,-133.03 817.54,-118.53 757.14,-111.82"/>
<polygon fill="#64748b" stroke="#64748b" points="757.57,-109.41 750.35,-111.09 757.04,-114.28 757.57,-109.41"/>
</g>
<!-- n38&#45;&gt;n37 -->
<g id="edge68" class="edge">
<title>n38&#45;&gt;n37</title>
<path fill="none" stroke="#64748b" d="M1004.9,-304.72C1067.7,-294.44 1147.09,-281.46 1211.21,-270.97"/>
<polygon fill="#64748b" stroke="#64748b" points="1211.35,-273.43 1217.86,-269.89 1210.55,-268.6 1211.35,-273.43"/>
</g>
<!-- n39 -->
<g id="node31" class="node">
<title>n39</title>
<g id="a_node31"><a xlink:href="vscode://vscode-remote/wsl+Ubuntu/home/ai4stat/statlib/Statlib/HighDim/Concentration/HansonWright.lean:122" xlink:title="lemma · Statlib/HighDim/Concentration/HansonWright.lean:122" target="_blank">
<path fill="#eef2f6" stroke="#94a3b8" d="M1345.21,-341.2C1345.21,-341.2 1234.79,-341.2 1234.79,-341.2 1228.79,-341.2 1222.79,-335.2 1222.79,-329.2 1222.79,-329.2 1222.79,-317.2 1222.79,-317.2 1222.79,-311.2 1228.79,-305.2 1234.79,-305.2 1234.79,-305.2 1345.21,-305.2 1345.21,-305.2 1351.21,-305.2 1357.21,-311.2 1357.21,-317.2 1357.21,-317.2 1357.21,-329.2 1357.21,-329.2 1357.21,-335.2 1351.21,-341.2 1345.21,-341.2"/>
<text xml:space="preserve" text-anchor="middle" x="1290" y="-320.2" font-family="Helvetica,sans-Serif" font-size="10.00">subgaussian_abs_tail_real</text>
</a>
</g>
</g>
<!-- n40 -->
<g id="node32" class="node">
<title>n40</title>
<g id="a_node32"><a xlink:href="vscode://vscode-remote/wsl+Ubuntu/home/ai4stat/statlib/Statlib/HighDim/Concentration/HansonWright.lean:846" xlink:title="lemma · Statlib/HighDim/Concentration/HansonWright.lean:846" target="_blank">
<path fill="#eef2f6" stroke="#94a3b8" d="M1095.77,-413.2C1095.77,-413.2 760.23,-413.2 760.23,-413.2 754.23,-413.2 748.23,-407.2 748.23,-401.2 748.23,-401.2 748.23,-389.2 748.23,-389.2 748.23,-383.2 754.23,-377.2 760.23,-377.2 760.23,-377.2 1095.77,-377.2 1095.77,-377.2 1101.77,-377.2 1107.77,-383.2 1107.77,-389.2 1107.77,-389.2 1107.77,-401.2 1107.77,-401.2 1107.77,-407.2 1101.77,-413.2 1095.77,-413.2"/>
<text xml:space="preserve" text-anchor="middle" x="928" y="-392.2" font-family="Helvetica,sans-Serif" font-size="10.00">decoupledOffDiagQuadForm_const_right_abs_tail_real_of_coeff_norm_sq_le</text>
</a>
</g>
</g>
<!-- n40&#45;&gt;n1 -->
<g id="edge69" class="edge">
<title>n40&#45;&gt;n1</title>
<path fill="none" stroke="#64748b" d="M1099.37,-376.73C1217.08,-364.19 1354.19,-348.31 1366,-341.2 1382.69,-331.15 1375.19,-316.59 1391,-305.2 1437.22,-271.91 1466.37,-300.43 1514,-269.2 1531.42,-257.78 1525.41,-242.6 1544,-233.2 1570.42,-219.84 1649.08,-235.05 1677,-225.2 1691.63,-220.04 1705.9,-210.55 1717.32,-201.51"/>
<polygon fill="#64748b" stroke="#64748b" points="1718.68,-203.57 1722.53,-197.23 1715.57,-199.78 1718.68,-203.57"/>
</g>
<!-- n40&#45;&gt;n5 -->
<g id="edge71" class="edge">
<title>n40&#45;&gt;n5</title>
<path fill="none" stroke="#64748b" d="M834.89,-376.75C780.42,-362.56 727.93,-339.24 759,-305.2 818.27,-240.26 1079.33,-317.19 1153,-269.2 1168.34,-259.21 1157.65,-243.17 1173,-233.2 1189.84,-222.26 1249.45,-240.01 1263,-225.2 1283.6,-202.69 1277.08,-110.98 1257,-88 1236.14,-64.13 1158.65,-50.12 1097.29,-42.56"/>
<polygon fill="#64748b" stroke="#64748b" points="1097.87,-40.16 1090.63,-41.76 1097.29,-45.02 1097.87,-40.16"/>
</g>
<!-- n40&#45;&gt;n26 -->
<g id="edge70" class="edge">
<title>n40&#45;&gt;n26</title>
<path fill="none" stroke="#64748b" d="M828.96,-376.76C791.49,-367.97 755.14,-356.01 744,-341.2 734.38,-328.42 735.63,-318.83 744,-305.2 762.52,-275.05 784.96,-287.88 815,-269.2 837.64,-255.12 838.39,-243.47 863,-233.2 874.2,-228.53 909.08,-234.38 917,-225.2 935.93,-203.26 934.85,-182.83 917,-160 897.48,-135.03 813.42,-120.14 756.92,-112.76"/>
<polygon fill="#64748b" stroke="#64748b" points="757.55,-110.37 750.29,-111.92 756.93,-115.23 757.55,-110.37"/>
</g>
<!-- n40&#45;&gt;n32 -->
<g id="edge72" class="edge">
<title>n40&#45;&gt;n32</title>
<path fill="none" stroke="#64748b" d="M977.2,-376.72C1004.81,-366.91 1039.37,-354.63 1068.14,-344.41"/>
<polygon fill="#64748b" stroke="#64748b" points="1068.88,-346.74 1074.66,-342.09 1067.24,-342.12 1068.88,-346.74"/>
</g>
<!-- n40&#45;&gt;n38 -->
<g id="edge73" class="edge">
<title>n40&#45;&gt;n38</title>
<path fill="none" stroke="#64748b" d="M920.58,-376.9C916.99,-368.5 912.6,-358.27 908.65,-349.06"/>
<polygon fill="#64748b" stroke="#64748b" points="910.94,-348.16 905.93,-342.7 906.43,-350.09 910.94,-348.16"/>
</g>
<!-- n40&#45;&gt;n39 -->
<g id="edge74" class="edge">
<title>n40&#45;&gt;n39</title>
<path fill="none" stroke="#64748b" d="M1026.42,-376.73C1081.4,-366.77 1151.11,-353.78 1213,-341.2 1213.39,-341.12 1213.77,-341.04 1214.16,-340.96"/>
<polygon fill="#64748b" stroke="#64748b" points="1214.58,-343.38 1220.94,-339.56 1213.59,-338.58 1214.58,-343.38"/>
</g>
<!-- n41 -->
<g id="node33" class="node">
<title>n41</title>
<g id="a_node33"><a xlink:href="vscode://vscode-remote/wsl+Ubuntu/home/ai4stat/statlib/Statlib/HighDim/Concentration/HansonWright.lean:114" xlink:title="lemma · Statlib/HighDim/Concentration/HansonWright.lean:114" target="_blank">
<path fill="#eef2f6" stroke="#94a3b8" d="M1308.5,-413.2C1308.5,-413.2 1137.5,-413.2 1137.5,-413.2 1131.5,-413.2 1125.5,-407.2 1125.5,-401.2 1125.5,-401.2 1125.5,-389.2 1125.5,-389.2 1125.5,-383.2 1131.5,-377.2 1137.5,-377.2 1137.5,-377.2 1308.5,-377.2 1308.5,-377.2 1314.5,-377.2 1320.5,-383.2 1320.5,-389.2 1320.5,-389.2 1320.5,-401.2 1320.5,-401.2 1320.5,-407.2 1314.5,-413.2 1308.5,-413.2"/>
<text xml:space="preserve" text-anchor="middle" x="1223" y="-392.2" font-family="Helvetica,sans-Serif" font-size="10.00">measure_le_ofReal_of_measureReal_le</text>
</a>
</g>
</g>
<!-- n42 -->
<g id="node34" class="node">
<title>n42</title>
<g id="a_node34"><a xlink:href="vscode://vscode-remote/wsl+Ubuntu/home/ai4stat/statlib/Statlib/HighDim/Concentration/HansonWright.lean:1021" xlink:title="lemma · Statlib/HighDim/Concentration/HansonWright.lean:1021" target="_blank">
<path fill="#eef2f6" stroke="#94a3b8" d="M914.54,-485.2C914.54,-485.2 663.46,-485.2 663.46,-485.2 657.46,-485.2 651.46,-479.2 651.46,-473.2 651.46,-473.2 651.46,-461.2 651.46,-461.2 651.46,-455.2 657.46,-449.2 663.46,-449.2 663.46,-449.2 914.54,-449.2 914.54,-449.2 920.54,-449.2 926.54,-455.2 926.54,-461.2 926.54,-461.2 926.54,-473.2 926.54,-473.2 926.54,-479.2 920.54,-485.2 914.54,-485.2"/>
<text xml:space="preserve" text-anchor="middle" x="789" y="-464.2" font-family="Helvetica,sans-Serif" font-size="10.00">decoupledOffDiagQuadForm_prod_tail_le_bad_plus_good</text>
</a>
</g>
</g>
<!-- n42&#45;&gt;n1 -->
<g id="edge75" class="edge">
<title>n42&#45;&gt;n1</title>
<path fill="none" stroke="#64748b" d="M926.99,-465.03C1063.8,-461.69 1262.34,-450.33 1329,-413.2 1364.18,-393.61 1359.7,-373.31 1384,-341.2 1396.07,-325.25 1394.56,-316.59 1411,-305.2 1457.82,-272.76 1486.37,-300.43 1534,-269.2 1551.42,-257.78 1545.46,-242.69 1564,-233.2 1586.41,-221.72 1653.3,-233.7 1677,-225.2 1691.49,-220 1705.65,-210.61 1717.04,-201.64"/>
<polygon fill="#64748b" stroke="#64748b" points="1718.36,-203.72 1722.23,-197.4 1715.26,-199.93 1718.36,-203.72"/>
</g>
<!-- n42&#45;&gt;n5 -->
<g id="edge76" class="edge">
<title>n42&#45;&gt;n5</title>
<path fill="none" stroke="#64748b" d="M761.36,-448.74C749.67,-439.71 737.33,-427.55 731,-413.2 723.98,-397.28 722.07,-321.44 733,-305.2 755.22,-272.18 779.64,-287.48 815,-269.2 842.63,-254.92 845.94,-244.28 875,-233.2 892.76,-226.43 901.73,-236.51 917,-225.2 972.84,-183.84 1000.36,-101.99 1011.21,-60.45"/>
<polygon fill="#64748b" stroke="#64748b" points="1013.58,-61.09 1012.91,-53.7 1008.83,-59.89 1013.58,-61.09"/>
</g>
<!-- n42&#45;&gt;n26 -->
<g id="edge77" class="edge">
<title>n42&#45;&gt;n26</title>
<path fill="none" stroke="#64748b" d="M723.99,-448.77C703.41,-440.68 681.9,-429.2 666,-413.2 617,-363.9 618.83,-337.32 605,-269.2 601.82,-253.52 594.32,-245.11 605,-233.2 615.89,-221.05 665.86,-236.1 678,-225.2 691.5,-213.07 698.62,-163.49 701.82,-132.52"/>
<polygon fill="#64748b" stroke="#64748b" points="704.23,-133.04 702.48,-125.83 699.36,-132.56 704.23,-133.04"/>
</g>
<!-- n42&#45;&gt;n29 -->
<g id="edge78" class="edge">
<title>n42&#45;&gt;n29</title>
<path fill="none" stroke="#64748b" d="M766.14,-448.93C755.75,-439.63 744.56,-427.19 739,-413.2 731.16,-393.46 736.05,-314.2 744,-305.2 762.19,-284.59 818.6,-271.8 875.18,-263.96"/>
<polygon fill="#64748b" stroke="#64748b" points="875.41,-266.4 882.02,-263.04 874.76,-261.55 875.41,-266.4"/>
</g>
<!-- n42&#45;&gt;n31 -->
<g id="edge79" class="edge">
<title>n42&#45;&gt;n31</title>
<path fill="none" stroke="#64748b" d="M727.61,-448.77C710.53,-440.79 693.95,-429.37 684,-413.2 658.84,-372.32 673.15,-351.96 684,-305.2 686.24,-295.57 690.48,-285.67 694.9,-277.07"/>
<polygon fill="#64748b" stroke="#64748b" points="697.05,-278.24 698.23,-270.92 692.74,-275.91 697.05,-278.24"/>
</g>
<!-- n42&#45;&gt;n40 -->
<g id="edge80" class="edge">
<title>n42&#45;&gt;n40</title>
<path fill="none" stroke="#64748b" d="M823.72,-448.72C842.68,-439.17 866.31,-427.27 886.27,-417.21"/>
<polygon fill="#64748b" stroke="#64748b" points="887.22,-419.48 892.37,-414.14 885.02,-415.1 887.22,-419.48"/>
</g>
<!-- n42&#45;&gt;n41 -->
<g id="edge81" class="edge">
<title>n42&#45;&gt;n41</title>
<path fill="none" stroke="#64748b" d="M897.4,-448.72C964.59,-437.88 1050.5,-424.02 1117.2,-413.26"/>
<polygon fill="#64748b" stroke="#64748b" points="1117.22,-415.74 1123.74,-412.21 1116.44,-410.91 1117.22,-415.74"/>
</g>
<!-- n43 -->
<g id="node35" class="node">
<title>n43</title>
<g id="a_node35"><a xlink:href="vscode://vscode-remote/wsl+Ubuntu/home/ai4stat/statlib/Statlib/HighDim/Concentration/HansonWright.lean:251" xlink:title="lemma · Statlib/HighDim/Concentration/HansonWright.lean:251" target="_blank">
<path fill="#eef2f6" stroke="#94a3b8" d="M421.61,-196C421.61,-196 228.39,-196 228.39,-196 222.39,-196 216.39,-190 216.39,-184 216.39,-184 216.39,-172 216.39,-172 216.39,-166 222.39,-160 228.39,-160 228.39,-160 421.61,-160 421.61,-160 427.61,-160 433.61,-166 433.61,-172 433.61,-172 433.61,-184 433.61,-184 433.61,-190 427.61,-196 421.61,-196"/>
<text xml:space="preserve" text-anchor="middle" x="325" y="-175" font-family="Helvetica,sans-Serif" font-size="10.00">offDiagCoeffVec_eq_zeroDiagMatrix_mulVec</text>
</a>
</g>
</g>
<!-- n43&#45;&gt;n4 -->
<g id="edge83" class="edge">
<title>n43&#45;&gt;n4</title>
<path fill="none" stroke="#64748b" d="M293.28,-159.52C276.03,-150.01 254.56,-138.17 236.37,-128.15"/>
<polygon fill="#64748b" stroke="#64748b" points="237.95,-126.22 230.64,-124.99 235.59,-130.52 237.95,-126.22"/>
</g>
<!-- n43&#45;&gt;n26 -->
<g id="edge82" class="edge">
<title>n43&#45;&gt;n26</title>
<path fill="none" stroke="#64748b" d="M433.79,-160.02C509.35,-148 603.17,-132.55 642,-124 644.95,-123.35 647.98,-122.65 651.02,-121.91"/>
<polygon fill="#64748b" stroke="#64748b" points="651.43,-124.33 657.63,-120.26 650.24,-119.58 651.43,-124.33"/>
</g>
<!-- n44 -->
<g id="node36" class="node">
<title>n44</title>
<g id="a_node36"><a xlink:href="vscode://vscode-remote/wsl+Ubuntu/home/ai4stat/statlib/Statlib/HighDim/Concentration/HansonWright.lean:276" xlink:title="lemma · Statlib/HighDim/Concentration/HansonWright.lean:276" target="_blank">
<path fill="#eef2f6" stroke="#94a3b8" d="M340.04,-269.2C340.04,-269.2 187.96,-269.2 187.96,-269.2 181.96,-269.2 175.96,-263.2 175.96,-257.2 175.96,-257.2 175.96,-245.2 175.96,-245.2 175.96,-239.2 181.96,-233.2 187.96,-233.2 187.96,-233.2 340.04,-233.2 340.04,-233.2 346.04,-233.2 352.04,-239.2 352.04,-245.2 352.04,-245.2 352.04,-257.2 352.04,-257.2 352.04,-263.2 346.04,-269.2 340.04,-269.2"/>
<text xml:space="preserve" text-anchor="middle" x="264" y="-248.2" font-family="Helvetica,sans-Serif" font-size="10.00">offDiagCoeffVec_norm_le_zeroDiag</text>
</a>
</g>
</g>
<!-- n44&#45;&gt;n4 -->
<g id="edge85" class="edge">
<title>n44&#45;&gt;n4</title>
<path fill="none" stroke="#64748b" d="M198.91,-232.71C196.33,-230.5 193.99,-228 192,-225.2 172.66,-198.01 180.27,-157.74 188.43,-131.93"/>
<polygon fill="#64748b" stroke="#64748b" points="190.67,-132.95 190.58,-125.53 186.02,-131.39 190.67,-132.95"/>
</g>
<!-- n44&#45;&gt;n26 -->
<g id="edge84" class="edge">
<title>n44&#45;&gt;n26</title>
<path fill="none" stroke="#64748b" d="M352.48,-234.18C355.35,-233.82 358.19,-233.49 361,-233.2 385.55,-230.62 561.35,-237.06 583,-225.2 613.88,-208.28 603.16,-184.96 628,-160 639.49,-148.46 653.78,-137.75 666.86,-129.03"/>
<polygon fill="#64748b" stroke="#64748b" points="668.17,-131.1 672.7,-125.22 665.5,-126.99 668.17,-131.1"/>
</g>
<!-- n44&#45;&gt;n43 -->
<g id="edge86" class="edge">
<title>n44&#45;&gt;n43</title>
<path fill="none" stroke="#64748b" d="M278.77,-232.96C286.63,-223.78 296.42,-212.35 304.97,-202.38"/>
<polygon fill="#64748b" stroke="#64748b" points="306.69,-204.14 309.38,-197.23 302.97,-200.95 306.69,-204.14"/>
</g>
<!-- n45 -->
<g id="node37" class="node">
<title>n45</title>
<g id="a_node37"><a xlink:href="vscode://vscode-remote/wsl+Ubuntu/home/ai4stat/statlib/Statlib/HighDim/Vocabulary/QuadraticForms.lean:57" xlink:title="def · Statlib/HighDim/Vocabulary/QuadraticForms.lean:57" target="_blank">
<path fill="#d6e9ff" stroke="#3b82f6" d="M621.23,-124C621.23,-124 564.77,-124 564.77,-124 558.77,-124 552.77,-118 552.77,-112 552.77,-112 552.77,-100 552.77,-100 552.77,-94 558.77,-88 564.77,-88 564.77,-88 621.23,-88 621.23,-88 627.23,-88 633.23,-94 633.23,-100 633.23,-100 633.23,-112 633.23,-112 633.23,-118 627.23,-124 621.23,-124"/>
<text xml:space="preserve" text-anchor="middle" x="593" y="-103" font-family="Helvetica,sans-Serif" font-size="10.00">diagPartMatrix</text>
</a>
</g>
</g>
<!-- n46 -->
<g id="node38" class="node">
<title>n46</title>
<g id="a_node38"><a xlink:href="vscode://vscode-remote/wsl+Ubuntu/home/ai4stat/statlib/Statlib/HighDim/Concentration/HansonWright.lean:398" xlink:title="lemma · Statlib/HighDim/Concentration/HansonWright.lean:398" target="_blank">
<path fill="#eef2f6" stroke="#94a3b8" d="M523.26,-124C523.26,-124 386.74,-124 386.74,-124 380.74,-124 374.74,-118 374.74,-112 374.74,-112 374.74,-100 374.74,-100 374.74,-94 380.74,-88 386.74,-88 386.74,-88 523.26,-88 523.26,-88 529.26,-88 535.26,-94 535.26,-100 535.26,-100 535.26,-112 535.26,-112 535.26,-118 529.26,-124 523.26,-124"/>
<text xml:space="preserve" text-anchor="middle" x="455" y="-103" font-family="Helvetica,sans-Serif" font-size="10.00">matrix_entry_abs_le_l2_opNorm</text>
</a>
</g>
</g>
<!-- n47 -->
<g id="node39" class="node">
<title>n47</title>
<g id="a_node39"><a xlink:href="vscode://vscode-remote/wsl+Ubuntu/home/ai4stat/statlib/Statlib/HighDim/Concentration/HansonWright.lean:685" xlink:title="lemma · Statlib/HighDim/Concentration/HansonWright.lean:685" target="_blank">
<path fill="#eef2f6" stroke="#94a3b8" d="M562.08,-196C562.08,-196 463.92,-196 463.92,-196 457.92,-196 451.92,-190 451.92,-184 451.92,-184 451.92,-172 451.92,-172 451.92,-166 457.92,-160 463.92,-160 463.92,-160 562.08,-160 562.08,-160 568.08,-160 574.08,-166 574.08,-172 574.08,-172 574.08,-184 574.08,-184 574.08,-190 568.08,-196 562.08,-196"/>
<text xml:space="preserve" text-anchor="middle" x="513" y="-175" font-family="Helvetica,sans-Serif" font-size="10.00">diagPartMatrix_norm_le</text>
</a>
</g>
</g>
<!-- n47&#45;&gt;n45 -->
<g id="edge87" class="edge">
<title>n47&#45;&gt;n45</title>
<path fill="none" stroke="#64748b" d="M532.78,-159.7C543.06,-150.69 555.78,-139.57 566.86,-129.87"/>
<polygon fill="#64748b" stroke="#64748b" points="568.38,-131.8 572.04,-125.34 565.15,-128.11 568.38,-131.8"/>
</g>
<!-- n47&#45;&gt;n46 -->
<g id="edge88" class="edge">
<title>n47&#45;&gt;n46</title>
<path fill="none" stroke="#64748b" d="M498.66,-159.7C491.36,-150.88 482.37,-140.03 474.45,-130.47"/>
<polygon fill="#64748b" stroke="#64748b" points="476.49,-129.1 470.14,-125.27 472.72,-132.22 476.49,-129.1"/>
</g>
<!-- n48 -->
<g id="node40" class="node">
<title>n48</title>
<g id="a_node40"><a xlink:href="vscode://vscode-remote/wsl+Ubuntu/home/ai4stat/statlib/Statlib/HighDim/Concentration/HansonWright.lean:704" xlink:title="lemma · Statlib/HighDim/Concentration/HansonWright.lean:704" target="_blank">
<path fill="#eef2f6" stroke="#94a3b8" d="M504.03,-269.2C504.03,-269.2 381.97,-269.2 381.97,-269.2 375.97,-269.2 369.97,-263.2 369.97,-257.2 369.97,-257.2 369.97,-245.2 369.97,-245.2 369.97,-239.2 375.97,-233.2 381.97,-233.2 381.97,-233.2 504.03,-233.2 504.03,-233.2 510.03,-233.2 516.03,-239.2 516.03,-245.2 516.03,-245.2 516.03,-257.2 516.03,-257.2 516.03,-263.2 510.03,-269.2 504.03,-269.2"/>
<text xml:space="preserve" text-anchor="middle" x="443" y="-248.2" font-family="Helvetica,sans-Serif" font-size="10.00">zeroDiagMatrix_norm_le_two</text>
</a>
</g>
</g>
<!-- n48&#45;&gt;n4 -->
<g id="edge89" class="edge">
<title>n48&#45;&gt;n4</title>
<path fill="none" stroke="#64748b" d="M369.78,-234.44C366.82,-233.99 363.88,-233.57 361,-233.2 344.01,-231.01 219.26,-237.17 207,-225.2 194.28,-212.78 194.63,-163.3 196.2,-132.43"/>
<polygon fill="#64748b" stroke="#64748b" points="198.63,-132.9 196.58,-125.77 193.74,-132.62 198.63,-132.9"/>
</g>
<!-- n48&#45;&gt;n45 -->
<g id="edge90" class="edge">
<title>n48&#45;&gt;n45</title>
<path fill="none" stroke="#64748b" d="M516.06,-235.69C520.77,-234.82 525.45,-233.99 530,-233.2 541.74,-231.17 574.86,-233.89 583,-225.2 605.99,-200.65 603.72,-159.32 599.06,-132.6"/>
<polygon fill="#64748b" stroke="#64748b" points="601.51,-132.38 597.78,-125.97 596.7,-133.31 601.51,-132.38"/>
</g>
<!-- n48&#45;&gt;n47 -->
<g id="edge91" class="edge">
<title>n48&#45;&gt;n47</title>
<path fill="none" stroke="#64748b" d="M459.95,-232.96C469.06,-223.69 480.42,-212.14 490.29,-202.1"/>
<polygon fill="#64748b" stroke="#64748b" points="491.99,-203.87 495.15,-197.16 488.5,-200.43 491.99,-203.87"/>
</g>
<!-- n49 -->
<g id="node41" class="node">
<title>n49</title>
<g id="a_node41"><a xlink:href="vscode://vscode-remote/wsl+Ubuntu/home/ai4stat/statlib/Statlib/HighDim/Concentration/HansonWright.lean:733" xlink:title="lemma · Statlib/HighDim/Concentration/HansonWright.lean:733" target="_blank">
<path fill="#eef2f6" stroke="#94a3b8" d="M496.25,-341.2C496.25,-341.2 389.75,-341.2 389.75,-341.2 383.75,-341.2 377.75,-335.2 377.75,-329.2 377.75,-329.2 377.75,-317.2 377.75,-317.2 377.75,-311.2 383.75,-305.2 389.75,-305.2 389.75,-305.2 496.25,-305.2 496.25,-305.2 502.25,-305.2 508.25,-311.2 508.25,-317.2 508.25,-317.2 508.25,-329.2 508.25,-329.2 508.25,-335.2 502.25,-341.2 496.25,-341.2"/>
<text xml:space="preserve" text-anchor="middle" x="443" y="-320.2" font-family="Helvetica,sans-Serif" font-size="10.00">offDiagCoeffVec_norm_le</text>
</a>
</g>
</g>
<!-- n49&#45;&gt;n4 -->
<g id="edge93" class="edge">
<title>n49&#45;&gt;n4</title>
<path fill="none" stroke="#64748b" d="M377.49,-318.96C304.47,-313.82 193.18,-300.89 167,-269.2 134.27,-229.58 162.57,-165.92 182.49,-131.31"/>
<polygon fill="#64748b" stroke="#64748b" points="184.36,-132.96 185.81,-125.69 180.14,-130.47 184.36,-132.96"/>
</g>
<!-- n49&#45;&gt;n26 -->
<g id="edge92" class="edge">
<title>n49&#45;&gt;n26</title>
<path fill="none" stroke="#64748b" d="M476.26,-304.72C492.08,-295.45 510.62,-283.11 525,-269.2 539,-255.66 533.36,-243.33 550,-233.2 573.35,-218.98 588.32,-240.47 611,-225.2 638.64,-206.59 627.45,-186.23 648,-160 656.4,-149.28 666.96,-138.71 676.65,-129.87"/>
<polygon fill="#64748b" stroke="#64748b" points="678.14,-131.82 681.72,-125.33 674.87,-128.17 678.14,-131.82"/>
</g>
<!-- n49&#45;&gt;n44 -->
<g id="edge94" class="edge">
<title>n49&#45;&gt;n44</title>
<path fill="none" stroke="#64748b" d="M398.29,-304.72C373.42,-294.99 342.34,-282.84 316.34,-272.67"/>
<polygon fill="#64748b" stroke="#64748b" points="317.27,-270.4 309.86,-270.13 315.48,-274.96 317.27,-270.4"/>
</g>
<!-- n49&#45;&gt;n48 -->
<g id="edge95" class="edge">
<title>n49&#45;&gt;n48</title>
<path fill="none" stroke="#64748b" d="M443,-304.9C443,-296.67 443,-286.68 443,-277.62"/>
<polygon fill="#64748b" stroke="#64748b" points="445.45,-277.82 443,-270.82 440.55,-277.82 445.45,-277.82"/>
</g>
<!-- n50 -->
<g id="node42" class="node">
<title>n50</title>
<g id="a_node42"><a xlink:href="vscode://vscode-remote/wsl+Ubuntu/home/ai4stat/statlib/Statlib/HighDim/Concentration/HansonWright.lean:752" xlink:title="lemma · Statlib/HighDim/Concentration/HansonWright.lean:752" target="_blank">
<path fill="#eef2f6" stroke="#94a3b8" d="M544.31,-413.2C544.31,-413.2 421.69,-413.2 421.69,-413.2 415.69,-413.2 409.69,-407.2 409.69,-401.2 409.69,-401.2 409.69,-389.2 409.69,-389.2 409.69,-383.2 415.69,-377.2 421.69,-377.2 421.69,-377.2 544.31,-377.2 544.31,-377.2 550.31,-377.2 556.31,-383.2 556.31,-389.2 556.31,-389.2 556.31,-401.2 556.31,-401.2 556.31,-407.2 550.31,-413.2 544.31,-413.2"/>
<text xml:space="preserve" text-anchor="middle" x="483" y="-392.2" font-family="Helvetica,sans-Serif" font-size="10.00">offDiagCoeffVec_norm_sq_le</text>
</a>
</g>
</g>
<!-- n50&#45;&gt;n26 -->
<g id="edge96" class="edge">
<title>n50&#45;&gt;n26</title>
<path fill="none" stroke="#64748b" d="M494.85,-376.84C501.63,-366.64 510.13,-353.39 517,-341.2 530.13,-317.91 548.22,-248.7 570,-233.2 593.71,-216.32 611.18,-241.93 635,-225.2 661.58,-206.53 651.51,-187.98 668,-160 673.7,-150.32 680.51,-140.03 686.66,-131.12"/>
<polygon fill="#64748b" stroke="#64748b" points="688.56,-132.68 690.56,-125.54 684.54,-129.88 688.56,-132.68"/>
</g>
<!-- n50&#45;&gt;n49 -->
<g id="edge97" class="edge">
<title>n50&#45;&gt;n49</title>
<path fill="none" stroke="#64748b" d="M473.11,-376.9C468.22,-368.34 462.23,-357.86 456.89,-348.5"/>
<polygon fill="#64748b" stroke="#64748b" points="459.13,-347.48 453.52,-342.62 454.87,-349.91 459.13,-347.48"/>
</g>
<!-- n51 -->
<g id="node43" class="node">
<title>n51</title>
<g id="a_node43"><a xlink:href="vscode://vscode-remote/wsl+Ubuntu/home/ai4stat/statlib/Statlib/HighDim/Concentration/HansonWright.lean:1170" xlink:title="lemma · Statlib/HighDim/Concentration/HansonWright.lean:1170" target="_blank">
<path fill="#eef2f6" stroke="#94a3b8" d="M621.72,-485.2C621.72,-485.2 436.28,-485.2 436.28,-485.2 430.28,-485.2 424.28,-479.2 424.28,-473.2 424.28,-473.2 424.28,-461.2 424.28,-461.2 424.28,-455.2 430.28,-449.2 436.28,-449.2 436.28,-449.2 621.72,-449.2 621.72,-449.2 627.72,-449.2 633.72,-455.2 633.72,-461.2 633.72,-461.2 633.72,-473.2 633.72,-473.2 633.72,-479.2 627.72,-485.2 621.72,-485.2"/>
<text xml:space="preserve" text-anchor="middle" x="529" y="-464.2" font-family="Helvetica,sans-Serif" font-size="10.00">offDiagCoeffVec_norm_sq_tail_le_norm_sq</text>
</a>
</g>
</g>
<!-- n51&#45;&gt;n26 -->
<g id="edge98" class="edge">
<title>n51&#45;&gt;n26</title>
<path fill="none" stroke="#64748b" d="M543.39,-449.14C550.99,-439.25 559.79,-426.21 565,-413.2 595.15,-337.91 536.6,-289.48 595,-233.2 615,-213.92 635.64,-242.97 657,-225.2 680.41,-205.73 666.6,-188.23 678,-160 681.8,-150.59 686.55,-140.53 690.94,-131.74"/>
<polygon fill="#64748b" stroke="#64748b" points="693.01,-133.08 694,-125.73 688.64,-130.86 693.01,-133.08"/>
</g>
<!-- n51&#45;&gt;n50 -->
<g id="edge99" class="edge">
<title>n51&#45;&gt;n50</title>
<path fill="none" stroke="#64748b" d="M517.63,-448.9C511.95,-440.25 504.98,-429.65 498.79,-420.23"/>
<polygon fill="#64748b" stroke="#64748b" points="500.96,-419.07 495.07,-414.57 496.87,-421.76 500.96,-419.07"/>
</g>
<!-- n52 -->
<g id="node44" class="node">
<title>n52</title>
<g id="a_node44"><a xlink:href="vscode://vscode-remote/wsl+Ubuntu/home/ai4stat/statlib/Statlib/HighDim/Concentration/HansonWright.lean:1202" xlink:title="lemma · Statlib/HighDim/Concentration/HansonWright.lean:1202" target="_blank">
<path fill="#eef2f6" stroke="#94a3b8" d="M928.71,-557.2C928.71,-557.2 649.29,-557.2 649.29,-557.2 643.29,-557.2 637.29,-551.2 637.29,-545.2 637.29,-545.2 637.29,-533.2 637.29,-533.2 637.29,-527.2 643.29,-521.2 649.29,-521.2 649.29,-521.2 928.71,-521.2 928.71,-521.2 934.71,-521.2 940.71,-527.2 940.71,-533.2 940.71,-533.2 940.71,-545.2 940.71,-545.2 940.71,-551.2 934.71,-557.2 928.71,-557.2"/>
<text xml:space="preserve" text-anchor="middle" x="789" y="-536.2" font-family="Helvetica,sans-Serif" font-size="10.00">decoupledOffDiagQuadForm_prod_tail_le_norm_bad_plus_good</text>
</a>
</g>
</g>
<!-- n52&#45;&gt;n1 -->
<g id="edge100" class="edge">
<title>n52&#45;&gt;n1</title>
<path fill="none" stroke="#64748b" d="M941.18,-533.02C1061.05,-522.52 1227.88,-493.17 1351,-413.2 1363.52,-405.07 1418.75,-313.74 1431,-305.2 1477.72,-272.62 1506.37,-300.43 1554,-269.2 1571.42,-257.78 1565.54,-242.83 1584,-233.2 1620.78,-214.01 1638.06,-239.5 1677,-225.2 1691.45,-219.89 1705.61,-210.48 1717,-201.53"/>
<polygon fill="#64748b" stroke="#64748b" points="1718.32,-203.62 1722.2,-197.31 1715.22,-199.82 1718.32,-203.62"/>
</g>
<!-- n52&#45;&gt;n5 -->
<g id="edge101" class="edge">
<title>n52&#45;&gt;n5</title>
<path fill="none" stroke="#64748b" d="M636.96,-535.1C444.3,-526.95 137,-498 137,-396.2 137,-396.2 137,-396.2 137,-177 137,-137.2 118.14,-115.42 147,-88 175.38,-61.03 726.61,-43.03 936.65,-37.12"/>
<polygon fill="#64748b" stroke="#64748b" points="936.45,-39.58 943.37,-36.93 936.31,-34.68 936.45,-39.58"/>
</g>
<!-- n52&#45;&gt;n42 -->
<g id="edge102" class="edge">
<title>n52&#45;&gt;n42</title>
<path fill="none" stroke="#64748b" d="M789,-520.9C789,-512.67 789,-502.68 789,-493.62"/>
<polygon fill="#64748b" stroke="#64748b" points="791.45,-493.82 789,-486.82 786.55,-493.82 791.45,-493.82"/>
</g>
<!-- n52&#45;&gt;n51 -->
<g id="edge103" class="edge">
<title>n52&#45;&gt;n51</title>
<path fill="none" stroke="#64748b" d="M724.06,-520.72C686.85,-510.7 640.06,-498.1 601.63,-487.75"/>
<polygon fill="#64748b" stroke="#64748b" points="602.42,-485.43 595.02,-485.98 601.14,-490.16 602.42,-485.43"/>
</g>
<!-- n53 -->
<g id="node45" class="node">
<title>n53</title>
<g id="a_node45"><a xlink:href="vscode://vscode-remote/wsl+Ubuntu/home/ai4stat/statlib/Statlib/HighDim/Concentration/HansonWright.lean:2527" xlink:title="lemma · Statlib/HighDim/Concentration/HansonWright.lean:2527" target="_blank">
<path fill="#eef2f6" stroke="#94a3b8" d="M1445.17,-629.2C1445.17,-629.2 1106.83,-629.2 1106.83,-629.2 1100.83,-629.2 1094.83,-623.2 1094.83,-617.2 1094.83,-617.2 1094.83,-605.2 1094.83,-605.2 1094.83,-599.2 1100.83,-593.2 1106.83,-593.2 1106.83,-593.2 1445.17,-593.2 1445.17,-593.2 1451.17,-593.2 1457.17,-599.2 1457.17,-605.2 1457.17,-605.2 1457.17,-617.2 1457.17,-617.2 1457.17,-623.2 1451.17,-629.2 1445.17,-629.2"/>
<text xml:space="preserve" text-anchor="middle" x="1276" y="-608.2" font-family="Helvetica,sans-Serif" font-size="10.00">decoupledOffDiagQuadForm_prod_tail_le_norm_bernstein_plus_good_ofReal</text>
</a>
</g>
</g>
<!-- n53&#45;&gt;n0 -->
<g id="edge104" class="edge">
<title>n53&#45;&gt;n0</title>
<path fill="none" stroke="#64748b" d="M1457.48,-604.47C1764.42,-592.34 2353,-557.43 2353,-468.2 2353,-468.2 2353,-468.2 2353,-394.2 2353,-352.34 2366.4,-305.2 2375.86,-277.14"/>
<polygon fill="#64748b" stroke="#64748b" points="2378.06,-278.25 2378.03,-270.84 2373.43,-276.65 2378.06,-278.25"/>
</g>
<!-- n53&#45;&gt;n1 -->
<g id="edge105" class="edge">
<title>n53&#45;&gt;n1</title>
<path fill="none" stroke="#64748b" d="M1331.47,-592.72C1384.36,-572.17 1456,-532.48 1456,-468.2 1456,-468.2 1456,-468.2 1456,-394.2 1456,-354.09 1444.35,-335.18 1471,-305.2 1508.84,-262.62 1546.37,-300.43 1594,-269.2 1611.42,-257.78 1605.85,-243.42 1624,-233.2 1644.76,-221.51 1654.91,-234.12 1677,-225.2 1691.06,-219.52 1704.98,-210.25 1716.32,-201.49"/>
<polygon fill="#64748b" stroke="#64748b" points="1717.54,-203.65 1721.49,-197.37 1714.49,-199.82 1717.54,-203.65"/>
</g>
<!-- n53&#45;&gt;n5 -->
<g id="edge106" class="edge">
<title>n53&#45;&gt;n5</title>
<path fill="none" stroke="#64748b" d="M1094.45,-599.06C799.77,-579.59 242.57,-536.53 168,-485.2 130.45,-459.35 117,-441.79 117,-396.2 117,-396.2 117,-396.2 117,-177 117,-137.2 98.13,-115.4 127,-88 156.12,-60.37 722.63,-42.71 936.34,-37.01"/>
<polygon fill="#64748b" stroke="#64748b" points="936.27,-39.47 943.2,-36.83 936.14,-34.57 936.27,-39.47"/>
</g>
<!-- n53&#45;&gt;n25 -->
<g id="edge107" class="edge">
<title>n53&#45;&gt;n25</title>
<path fill="none" stroke="#64748b" d="M1362.92,-592.72C1413.46,-582.55 1477.22,-569.73 1529.07,-559.3"/>
<polygon fill="#64748b" stroke="#64748b" points="1529.42,-561.72 1535.8,-557.94 1528.46,-556.92 1529.42,-561.72"/>
</g>
<!-- n53&#45;&gt;n52 -->
<g id="edge108" class="edge">
<title>n53&#45;&gt;n52</title>
<path fill="none" stroke="#64748b" d="M1154.37,-592.72C1082.61,-582.4 991.84,-569.36 918.72,-558.85"/>
<polygon fill="#64748b" stroke="#64748b" points="919.12,-556.43 911.85,-557.86 918.43,-561.28 919.12,-556.43"/>
</g>
<!-- n54 -->
<g id="node46" class="node">
<title>n54</title>
<g id="a_node46"><a xlink:href="vscode://vscode-remote/wsl+Ubuntu/home/ai4stat/statlib/Statlib/HighDim/Concentration/HansonWright.lean:2603" xlink:title="lemma · Statlib/HighDim/Concentration/HansonWright.lean:2603" target="_blank">
<path fill="#eef2f6" stroke="#94a3b8" d="M1412.93,-701.2C1412.93,-701.2 1139.07,-701.2 1139.07,-701.2 1133.07,-701.2 1127.07,-695.2 1127.07,-689.2 1127.07,-689.2 1127.07,-677.2 1127.07,-677.2 1127.07,-671.2 1133.07,-665.2 1139.07,-665.2 1139.07,-665.2 1412.93,-665.2 1412.93,-665.2 1418.93,-665.2 1424.93,-671.2 1424.93,-677.2 1424.93,-677.2 1424.93,-689.2 1424.93,-689.2 1424.93,-695.2 1418.93,-701.2 1412.93,-701.2"/>
<text xml:space="preserve" text-anchor="middle" x="1276" y="-680.2" font-family="Helvetica,sans-Serif" font-size="10.00">decoupled_zeroDiag_quadratic_form_tail_high_norm_bernstein</text>
</a>
</g>
</g>
<!-- n54&#45;&gt;n0 -->
<g id="edge109" class="edge">
<title>n54&#45;&gt;n0</title>
<path fill="none" stroke="#64748b" d="M1425.37,-678.07C1725.44,-667.78 2373,-634.63 2373,-540.2 2373,-540.2 2373,-540.2 2373,-394.2 2373,-353.39 2377.98,-306.22 2381.53,-277.83"/>
<polygon fill="#64748b" stroke="#64748b" points="2383.92,-278.4 2382.38,-271.15 2379.06,-277.78 2383.92,-278.4"/>
</g>
<!-- n54&#45;&gt;n1 -->
<g id="edge110" class="edge">
<title>n54&#45;&gt;n1</title>
<path fill="none" stroke="#64748b" d="M1376.4,-664.74C1415.31,-655.88 1453.51,-643.87 1466,-629.2 1491.8,-598.89 1476,-580 1476,-540.2 1476,-540.2 1476,-540.2 1476,-394.2 1476,-354.09 1464.35,-335.18 1491,-305.2 1528.84,-262.62 1566.37,-300.43 1614,-269.2 1631.42,-257.78 1626.32,-244.21 1644,-233.2 1656.81,-225.22 1663.27,-231.46 1677,-225.2 1690.46,-219.06 1704,-210 1715.22,-201.53"/>
<polygon fill="#64748b" stroke="#64748b" points="1716.66,-203.51 1720.68,-197.29 1713.65,-199.64 1716.66,-203.51"/>
</g>
<!-- n54&#45;&gt;n5 -->
<g id="edge111" class="edge">
<title>n54&#45;&gt;n5</title>
<path fill="none" stroke="#64748b" d="M1126.83,-678.35C801.48,-665.9 57,-613.65 57,-396.2 57,-396.2 57,-396.2 57,-177 57,-131.63 68.53,-112.04 107,-88 176.36,-44.65 727.17,-36.75 936.58,-35.32"/>
<polygon fill="#64748b" stroke="#64748b" points="936.3,-37.77 943.28,-35.27 936.26,-32.87 936.3,-37.77"/>
</g>
<!-- n54&#45;&gt;n53 -->
<g id="edge112" class="edge">
<title>n54&#45;&gt;n53</title>
<path fill="none" stroke="#64748b" d="M1276,-664.9C1276,-656.67 1276,-646.68 1276,-637.62"/>
<polygon fill="#64748b" stroke="#64748b" points="1278.45,-637.82 1276,-630.82 1273.55,-637.82 1278.45,-637.82"/>
</g>
<!-- n55 -->
<g id="node47" class="node">
<title>n55</title>
<g id="a_node47"><a xlink:href="vscode://vscode-remote/wsl+Ubuntu/home/ai4stat/statlib/Statlib/HighDim/Concentration/HansonWright.lean:3172" xlink:title="theorem · Statlib/HighDim/Concentration/HansonWright.lean:3172" target="_blank">
<path fill="#ffe6a3" stroke="#d4a017" d="M534.23,-773.2C534.23,-773.2 199.77,-773.2 199.77,-773.2 193.77,-773.2 187.77,-767.2 187.77,-761.2 187.77,-761.2 187.77,-749.2 187.77,-749.2 187.77,-743.2 193.77,-737.2 199.77,-737.2 199.77,-737.2 534.23,-737.2 534.23,-737.2 540.23,-737.2 546.23,-743.2 546.23,-749.2 546.23,-749.2 546.23,-761.2 546.23,-761.2 546.23,-767.2 540.23,-773.2 534.23,-773.2"/>
<text xml:space="preserve" text-anchor="middle" x="367" y="-752.2" font-family="Helvetica,sans-Serif" font-size="10.00">zeroDiag_centered_quadratic_form_tail_high_norm_bernstein_of_decoupling</text>
</a>
</g>
</g>
<!-- n55&#45;&gt;n0 -->
<g id="edge113" class="edge">
<title>n55&#45;&gt;n0</title>
<path fill="none" stroke="#64748b" d="M546.35,-750.92C1041.82,-740.69 2393,-704.34 2393,-612.2 2393,-612.2 2393,-612.2 2393,-394.2 2393,-353.47 2389.68,-306.28 2387.32,-277.86"/>
<polygon fill="#64748b" stroke="#64748b" points="2389.78,-277.95 2386.75,-271.18 2384.9,-278.36 2389.78,-277.95"/>
</g>
<!-- n55&#45;&gt;n1 -->
<g id="edge114" class="edge">
<title>n55&#45;&gt;n1</title>
<path fill="none" stroke="#64748b" d="M444.23,-736.76C599.69,-700.32 959.88,-609.1 1245,-485.2 1303.8,-459.65 1322.14,-455.86 1370,-413.2 1375.57,-408.23 1443.87,-309.46 1450,-305.2 1497.11,-272.42 1529.13,-304.98 1574,-269.2 1588.31,-257.79 1578.69,-243.23 1594,-233.2 1609.5,-223.05 1659.64,-231.68 1677,-225.2 1691.42,-219.82 1705.58,-210.4 1716.98,-201.46"/>
<polygon fill="#64748b" stroke="#64748b" points="1718.28,-203.56 1722.18,-197.24 1715.2,-199.75 1718.28,-203.56"/>
</g>
<!-- n55&#45;&gt;n3 -->
<g id="edge115" class="edge">
<title>n55&#45;&gt;n3</title>
<path fill="none" stroke="#64748b" d="M296.57,-736.8C259.29,-727.15 212.88,-714.44 172,-701.2 169.98,-700.55 167.93,-699.86 165.85,-699.14"/>
<polygon fill="#64748b" stroke="#64748b" points="166.69,-696.84 159.27,-696.81 165.05,-701.46 166.69,-696.84"/>
</g>
<!-- n55&#45;&gt;n4 -->
<g id="edge116" class="edge">
<title>n55&#45;&gt;n4</title>
<path fill="none" stroke="#64748b" d="M330.02,-736.78C256.08,-699.08 97,-602.38 97,-468.2 97,-468.2 97,-468.2 97,-250.2 97,-200.07 138.85,-155.14 168.67,-129.49"/>
<polygon fill="#64748b" stroke="#64748b" points="169.89,-131.67 173.67,-125.29 166.73,-127.92 169.89,-131.67"/>
</g>
<!-- n55&#45;&gt;n5 -->
<g id="edge117" class="edge">
<title>n55&#45;&gt;n5</title>
<path fill="none" stroke="#64748b" d="M297.23,-736.77C270.36,-728.33 240.13,-716.62 215,-701.2 175.61,-677.04 167.81,-666.1 140,-629.2 71.87,-538.77 37,-509.42 37,-396.2 37,-396.2 37,-396.2 37,-177 37,-135.53 32.26,-113.45 65,-88 132.98,-35.15 719.37,-33.2 936.55,-34.32"/>
<polygon fill="#64748b" stroke="#64748b" points="936.21,-36.77 943.22,-34.36 936.24,-31.87 936.21,-36.77"/>
</g>
<!-- n55&#45;&gt;n54 -->
<g id="edge118" class="edge">
<title>n55&#45;&gt;n54</title>
<path fill="none" stroke="#64748b" d="M546.59,-740.37C713.31,-727.53 959.1,-708.6 1118.39,-696.34"/>
<polygon fill="#64748b" stroke="#64748b" points="1118.55,-698.78 1125.34,-695.8 1118.17,-693.9 1118.55,-698.78"/>
</g>
<!-- n56 -->
<g id="node48" class="node">
<title>n56</title>
<g id="a_node48"><a xlink:href="vscode://vscode-remote/wsl+Ubuntu/home/ai4stat/statlib/Statlib/HighDim/Concentration/HansonWright.lean:3407" xlink:title="theorem · Statlib/HighDim/Concentration/HansonWright.lean:3407" target="_blank">
<path fill="#ffe6a3" stroke="#d4a017" stroke-width="3" d="M398.29,-845.2C398.29,-845.2 27.71,-845.2 27.71,-845.2 21.71,-845.2 15.71,-839.2 15.71,-833.2 15.71,-833.2 15.71,-821.2 15.71,-821.2 15.71,-815.2 21.71,-809.2 27.71,-809.2 27.71,-809.2 398.29,-809.2 398.29,-809.2 404.29,-809.2 410.29,-815.2 410.29,-821.2 410.29,-821.2 410.29,-833.2 410.29,-833.2 410.29,-839.2 404.29,-845.2 398.29,-845.2"/>
<text xml:space="preserve" text-anchor="middle" x="213" y="-824.2" font-family="Helvetica,sans-Serif" font-size="10.00">zeroDiag_centered_quadratic_form_tail_high_of_decoupling_norm_bernstein_absorb</text>
</a>
</g>
</g>
<!-- n56&#45;&gt;n0 -->
<g id="edge119" class="edge">
<title>n56&#45;&gt;n0</title>
<path fill="none" stroke="#64748b" d="M411.63,-823.66C952.79,-815.43 2413,-783.98 2413,-684.2 2413,-684.2 2413,-684.2 2413,-394.2 2413,-352.76 2401.38,-305.77 2393.11,-277.59"/>
<polygon fill="#64748b" stroke="#64748b" points="2395.47,-276.92 2391.1,-270.92 2390.77,-278.33 2395.47,-276.92"/>
</g>
<!-- n56&#45;&gt;n1 -->
<g id="edge120" class="edge">
<title>n56&#45;&gt;n1</title>
<path fill="none" stroke="#64748b" d="M411.71,-824.21C771.96,-817.94 1496,-791.94 1496,-684.2 1496,-684.2 1496,-684.2 1496,-394.2 1496,-353.84 1486.8,-335.02 1514,-305.2 1551.52,-264.06 1590.62,-304.11 1634,-269.2 1648.26,-257.73 1639.99,-244.98 1654,-233.2 1662.28,-226.23 1667.38,-230.16 1677,-225.2 1689.84,-218.58 1703.01,-209.68 1714.11,-201.46"/>
<polygon fill="#64748b" stroke="#64748b" points="1715.42,-203.54 1719.52,-197.37 1712.46,-199.63 1715.42,-203.54"/>
</g>
<!-- n56&#45;&gt;n2 -->
<g id="edge121" class="edge">
<title>n56&#45;&gt;n2</title>
<path fill="none" stroke="#64748b" d="M184.1,-807.81C169.77,-798.69 152.36,-787.61 137.35,-778.06"/>
<polygon fill="#64748b" stroke="#64748b" points="138.69,-776.01 131.47,-774.32 136.06,-780.14 138.69,-776.01"/>
</g>
<!-- n56&#45;&gt;n3 -->
<g id="edge122" class="edge">
<title>n56&#45;&gt;n3</title>
<path fill="none" stroke="#64748b" d="M92.21,-807.87C74.51,-799.96 58.42,-788.83 47,-773.2 37.56,-760.28 39.43,-751.3 47,-737.2 55.95,-720.53 72.72,-708.21 88.59,-699.68"/>
<polygon fill="#64748b" stroke="#64748b" points="89.31,-702.06 94.44,-696.7 87.09,-697.69 89.31,-702.06"/>
</g>
<!-- n56&#45;&gt;n4 -->
<g id="edge123" class="edge">
<title>n56&#45;&gt;n4</title>
<path fill="none" stroke="#64748b" d="M200.75,-807.74C194.15,-797.63 185.95,-784.84 179,-773.2 169.61,-757.49 172.22,-749.86 159,-737.2 133.16,-712.46 107.48,-730.53 87,-701.2 64.21,-668.56 77,-652 77,-612.2 77,-612.2 77,-612.2 77,-250.2 77,-209.14 72.06,-192.62 97,-160 109.96,-143.06 129.89,-130.99 148.63,-122.7"/>
<polygon fill="#64748b" stroke="#64748b" points="149.12,-125.15 154.62,-120.18 147.22,-120.63 149.12,-125.15"/>
</g>
<!-- n56&#45;&gt;n5 -->
<g id="edge124" class="edge">
<title>n56&#45;&gt;n5</title>
<path fill="none" stroke="#64748b" d="M90.68,-807.78C70.57,-799.94 51.57,-788.85 37,-773.2 9.37,-743.53 17,-724.74 17,-684.2 17,-684.2 17,-684.2 17,-177 17,-136.55 5.25,-114.28 36,-88 70.02,-58.92 707.79,-41.9 936.35,-36.71"/>
<polygon fill="#64748b" stroke="#64748b" points="936.18,-39.16 943.12,-36.56 936.07,-34.26 936.18,-39.16"/>
</g>
<!-- n56&#45;&gt;n55 -->
<g id="edge125" class="edge">
<title>n56&#45;&gt;n55</title>
<path fill="none" stroke="#64748b" d="M253.46,-807.81C274.18,-798.39 299.49,-786.89 320.95,-777.13"/>
<polygon fill="#64748b" stroke="#64748b" points="321.93,-779.38 327.29,-774.25 319.9,-774.92 321.93,-779.38"/>
</g>
<!-- n14 -->
<g id="node51" class="node">
<title>n14</title>
<g id="a_node51"><a xlink:href="vscode://vscode-remote/wsl+Ubuntu/home/ai4stat/statlib/Statlib/StatFoundation/RandomVariable/SubGaussian/subgaussian_meas_abs_ge_le_two_exp.lean:9" xlink:title="theorem · Statlib/StatFoundation/RandomVariable/SubGaussian/subgaussian_meas_abs_ge_le_two_exp.lean:9" target="_blank">
<path fill="#ffe6a3" stroke="#d4a017" d="M2851.34,-52C2851.34,-52 2678.66,-52 2678.66,-52 2672.66,-52 2666.66,-46 2666.66,-40 2666.66,-40 2666.66,-28 2666.66,-28 2666.66,-22 2672.66,-16 2678.66,-16 2678.66,-16 2851.34,-16 2851.34,-16 2857.34,-16 2863.34,-22 2863.34,-28 2863.34,-28 2863.34,-40 2863.34,-40 2863.34,-46 2857.34,-52 2851.34,-52"/>
<text xml:space="preserve" text-anchor="middle" x="2765" y="-31" font-family="Helvetica,sans-Serif" font-size="10.00">subgaussian_meas_abs_ge_le_two_exp</text>
</a>
</g>
</g>
<!-- n15&#45;&gt;n14 -->
<g id="edge12" class="edge">
<title>n15&#45;&gt;n14</title>
<path fill="none" stroke="#64748b" d="M2937.55,-87.52C2904.91,-77.58 2863.93,-65.11 2830.1,-54.81"/>
<polygon fill="#64748b" stroke="#64748b" points="2830.97,-52.52 2823.56,-52.82 2829.54,-57.2 2830.97,-52.52"/>
</g>
<!-- n17 -->
<g id="node53" class="node">
<title>n17</title>
<g id="a_node53"><a xlink:href="vscode://vscode-remote/wsl+Ubuntu/home/ai4stat/statlib/Statlib/StatFoundation/RandomVariable/SubExponential/subexp_mgf_le_of_sq_subgaussian.lean:13" xlink:title="lemma · Statlib/StatFoundation/RandomVariable/SubExponential/subexp_mgf_le_of_sq_subgaussian.lean:13" target="_blank">
<path fill="#eef2f6" stroke="#94a3b8" d="M2854.2,-124C2854.2,-124 2773.8,-124 2773.8,-124 2767.8,-124 2761.8,-118 2761.8,-112 2761.8,-112 2761.8,-100 2761.8,-100 2761.8,-94 2767.8,-88 2773.8,-88 2773.8,-88 2854.2,-88 2854.2,-88 2860.2,-88 2866.2,-94 2866.2,-100 2866.2,-100 2866.2,-112 2866.2,-112 2866.2,-118 2860.2,-124 2854.2,-124"/>
<text xml:space="preserve" text-anchor="middle" x="2814" y="-103" font-family="Helvetica,sans-Serif" font-size="10.00">sub_gauss_tail_abs</text>
</a>
</g>
</g>
<!-- n18 -->
<g id="node54" class="node">
<title>n18</title>
<g id="a_node54"><a xlink:href="vscode://vscode-remote/wsl+Ubuntu/home/ai4stat/statlib/Statlib/StatFoundation/RandomVariable/SubGaussian/sq_le_two_mul_exp.lean:10" xlink:title="lemma · Statlib/StatFoundation/RandomVariable/SubGaussian/sq_le_two_mul_exp.lean:10" target="_blank">
<path fill="#eef2f6" stroke="#94a3b8" d="M2732.19,-124C2732.19,-124 2651.81,-124 2651.81,-124 2645.81,-124 2639.81,-118 2639.81,-112 2639.81,-112 2639.81,-100 2639.81,-100 2639.81,-94 2645.81,-88 2651.81,-88 2651.81,-88 2732.19,-88 2732.19,-88 2738.19,-88 2744.19,-94 2744.19,-100 2744.19,-100 2744.19,-112 2744.19,-112 2744.19,-118 2738.19,-124 2732.19,-124"/>
<text xml:space="preserve" text-anchor="middle" x="2692" y="-103" font-family="Helvetica,sans-Serif" font-size="10.00">sq_le_two_mul_exp</text>
</a>
</g>
</g>
<!-- n19 -->
<g id="node55" class="node">
<title>n19</title>
<g id="a_node55"><a xlink:href="vscode://vscode-remote/wsl+Ubuntu/home/ai4stat/statlib/Statlib/StatFoundation/RandomVariable/SubGaussian/subgaussian_exp_sq_le_at_one_third.lean:14" xlink:title="theorem · Statlib/StatFoundation/RandomVariable/SubGaussian/subgaussian_exp_sq_le_at_one_third.lean:14" target="_blank">
<path fill="#ffe6a3" stroke="#d4a017" d="M2610.23,-124C2610.23,-124 2449.77,-124 2449.77,-124 2443.77,-124 2437.77,-118 2437.77,-112 2437.77,-112 2437.77,-100 2437.77,-100 2437.77,-94 2443.77,-88 2449.77,-88 2449.77,-88 2610.23,-88 2610.23,-88 2616.23,-88 2622.23,-94 2622.23,-100 2622.23,-100 2622.23,-112 2622.23,-112 2622.23,-118 2616.23,-124 2610.23,-124"/>
<text xml:space="preserve" text-anchor="middle" x="2530" y="-103" font-family="Helvetica,sans-Serif" font-size="10.00">subgaussian_exp_sq_le_at_one_third</text>
</a>
</g>
</g>
<!-- n19&#45;&gt;n14 -->
<g id="edge17" class="edge">
<title>n19&#45;&gt;n14</title>
<path fill="none" stroke="#64748b" d="M2588.69,-87.52C2622.19,-77.54 2664.27,-65 2698.92,-54.68"/>
<polygon fill="#64748b" stroke="#64748b" points="2699.19,-57.16 2705.2,-52.81 2697.79,-52.46 2699.19,-57.16"/>
</g>
<!-- n20&#45;&gt;n15 -->
<g id="edge21" class="edge">
<title>n20&#45;&gt;n15</title>
<path fill="none" stroke="#64748b" d="M2766.18,-159.52C2810.2,-149.41 2865.66,-136.68 2910.96,-126.29"/>
<polygon fill="#64748b" stroke="#64748b" points="2911.25,-128.73 2917.53,-124.78 2910.16,-123.96 2911.25,-128.73"/>
</g>
<!-- n20&#45;&gt;n17 -->
<g id="edge18" class="edge">
<title>n20&#45;&gt;n17</title>
<path fill="none" stroke="#64748b" d="M2720.97,-159.52C2737.67,-150.09 2758.41,-138.38 2776.07,-128.41"/>
<polygon fill="#64748b" stroke="#64748b" points="2777.21,-130.58 2782.11,-125 2774.81,-126.31 2777.21,-130.58"/>
</g>
<!-- n20&#45;&gt;n18 -->
<g id="edge19" class="edge">
<title>n20&#45;&gt;n18</title>
<path fill="none" stroke="#64748b" d="M2690.49,-159.7C2690.73,-151.47 2691.01,-141.48 2691.27,-132.42"/>
<polygon fill="#64748b" stroke="#64748b" points="2693.72,-132.68 2691.47,-125.62 2688.82,-132.54 2693.72,-132.68"/>
</g>
<!-- n20&#45;&gt;n19 -->
<g id="edge20" class="edge">
<title>n20&#45;&gt;n19</title>
<path fill="none" stroke="#64748b" d="M2650.04,-159.52C2628,-149.88 2600.5,-137.84 2577.39,-127.73"/>
<polygon fill="#64748b" stroke="#64748b" points="2578.51,-125.55 2571.12,-124.99 2576.55,-130.04 2578.51,-125.55"/>
</g>
<!-- n23&#45;&gt;n13 -->
<g id="edge31" class="edge">
<title>n23&#45;&gt;n13</title>
<path fill="none" stroke="#64748b" d="M2984.19,-159.52C3024.08,-149.14 3074.61,-135.99 3115.13,-125.44"/>
<polygon fill="#64748b" stroke="#64748b" points="3115.74,-127.82 3121.89,-123.68 3114.5,-123.07 3115.74,-127.82"/>
</g>
</g>
</svg>
