<?xml version="1.0" encoding="UTF-8" standalone="no"?>
<!DOCTYPE svg PUBLIC "-//W3C//DTD SVG 1.1//EN"
 "http://www.w3.org/Graphics/SVG/1.1/DTD/svg11.dtd">
<!-- Generated by graphviz version 15.0.0 (20260523.1842)
 -->
<!-- Title: zeroDiag_centered_quadratic_form_tail_high_of_decoupling_norm_bernstein_absorb Pages: 1 -->
<svg width="3195pt" height="915pt"
 viewBox="0.00 0.00 3195.00 915.00" xmlns="http://www.w3.org/2000/svg" xmlns:xlink="http://www.w3.org/1999/xlink">
<g id="graph0" class="graph" transform="scale(1 1) rotate(0) translate(4 911.2)">
<title>zeroDiag_centered_quadratic_form_tail_high_of_decoupling_norm_bernstein_absorb</title>
<polygon fill="white" stroke="none" points="-4,4 -4,-911.2 3191,-911.2 3191,4 -4,4"/>
<text xml:space="preserve" text-anchor="middle" x="1593.5" y="-890.6" font-family="Helvetica,sans-Serif" font-size="14.00">Proof narrative — zeroDiag_centered_quadratic_form_tail_high_of_decoupling_norm_bernstein_absorb &#160;(56 decls)</text>
<g id="clust1" class="cluster">
<title>cluster_0</title>
<path fill="none" stroke="#cbd5e1" stroke-dasharray="5,2" d="M20,-8C20,-8 2334,-8 2334,-8 2340,-8 2346,-14 2346,-20 2346,-20 2346,-862.4 2346,-862.4 2346,-868.4 2340,-874.4 2334,-874.4 2334,-874.4 20,-874.4 20,-874.4 14,-874.4 8,-868.4 8,-862.4 8,-862.4 8,-20 8,-20 8,-14 14,-8 20,-8"/>
<text xml:space="preserve" text-anchor="middle" x="1177" y="-860.5" font-family="Helvetica,sans-Serif" font-size="11.00">HighDim</text>
</g>
<g id="clust2" class="cluster">
<title>cluster_1</title>
<path fill="none" stroke="#cbd5e1" stroke-dasharray="5,2" d="M2366,-8C2366,-8 3167,-8 3167,-8 3173,-8 3179,-14 3179,-20 3179,-20 3179,-213.2 3179,-213.2 3179,-219.2 3173,-225.2 3167,-225.2 3167,-225.2 2366,-225.2 2366,-225.2 2360,-225.2 2354,-219.2 2354,-213.2 2354,-213.2 2354,-20 2354,-20 2354,-14 2360,-8 2366,-8"/>
<text xml:space="preserve" text-anchor="middle" x="2766.5" y="-211.3" font-family="Helvetica,sans-Serif" font-size="11.00">StatFoundation</text>
</g>
<!-- n0 -->
<g id="node1" class="node">
<title>n0</title>
<g id="a_node1"><a xlink:href="vscode://vscode-remote/wsl+Ubuntu/home/ai4stat/statlib/Statlib/HighDim/Vocabulary/RandomVector.lean:52" xlink:title="structure · Statlib/HighDim/Vocabulary/RandomVector.lean:52" target="_blank">
<path fill="#e8dcff" stroke="#8b5cf6" d="M1883.36,-196C1883.36,-196 1794.64,-196 1794.64,-196 1788.64,-196 1782.64,-190 1782.64,-184 1782.64,-184 1782.64,-172 1782.64,-172 1782.64,-166 1788.64,-160 1794.64,-160 1794.64,-160 1883.36,-160 1883.36,-160 1889.36,-160 1895.36,-166 1895.36,-172 1895.36,-172 1895.36,-184 1895.36,-184 1895.36,-190 1889.36,-196 1883.36,-196"/>
<text xml:space="preserve" text-anchor="middle" x="1839" y="-175" font-family="Helvetica,sans-Serif" font-size="10.00">IsSubGaussianVector</text>
</a>
</g>
</g>
<!-- n1 -->
<g id="node2" class="node">
<title>n1</title>
<g id="a_node2"><a xlink:href="vscode://vscode-remote/wsl+Ubuntu/home/ai4stat/statlib/Statlib/HighDim/Vocabulary/Norms.lean:37" xlink:title="noncomputable def · Statlib/HighDim/Vocabulary/Norms.lean:37" target="_blank">
<path fill="#d6e9ff" stroke="#3b82f6" d="M1510.91,-773.2C1510.91,-773.2 1441.09,-773.2 1441.09,-773.2 1435.09,-773.2 1429.09,-767.2 1429.09,-761.2 1429.09,-761.2 1429.09,-749.2 1429.09,-749.2 1429.09,-743.2 1435.09,-737.2 1441.09,-737.2 1441.09,-737.2 1510.91,-737.2 1510.91,-737.2 1516.91,-737.2 1522.91,-743.2 1522.91,-749.2 1522.91,-749.2 1522.91,-761.2 1522.91,-761.2 1522.91,-767.2 1516.91,-773.2 1510.91,-773.2"/>
<text xml:space="preserve" text-anchor="middle" x="1476" y="-752.2" font-family="Helvetica,sans-Serif" font-size="10.00">frobeniusNormSq</text>
</a>
</g>
</g>
<!-- n2 -->
<g id="node3" class="node">
<title>n2</title>
<g id="a_node3"><a xlink:href="vscode://vscode-remote/wsl+Ubuntu/home/ai4stat/statlib/Statlib/HighDim/Vocabulary/QuadraticForms.lean:15" xlink:title="noncomputable def · Statlib/HighDim/Vocabulary/QuadraticForms.lean:15" target="_blank">
<path fill="#d6e9ff" stroke="#3b82f6" d="M1346.79,-701.2C1346.79,-701.2 1309.21,-701.2 1309.21,-701.2 1303.21,-701.2 1297.21,-695.2 1297.21,-689.2 1297.21,-689.2 1297.21,-677.2 1297.21,-677.2 1297.21,-671.2 1303.21,-665.2 1309.21,-665.2 1309.21,-665.2 1346.79,-665.2 1346.79,-665.2 1352.79,-665.2 1358.79,-671.2 1358.79,-677.2 1358.79,-677.2 1358.79,-689.2 1358.79,-689.2 1358.79,-695.2 1352.79,-701.2 1346.79,-701.2"/>
<text xml:space="preserve" text-anchor="middle" x="1328" y="-680.2" font-family="Helvetica,sans-Serif" font-size="10.00">quadForm</text>
</a>
</g>
</g>
<!-- n3 -->
<g id="node4" class="node">
<title>n3</title>
<g id="a_node4"><a xlink:href="vscode://vscode-remote/wsl+Ubuntu/home/ai4stat/statlib/Statlib/HighDim/Vocabulary/QuadraticForms.lean:52" xlink:title="def · Statlib/HighDim/Vocabulary/QuadraticForms.lean:52" target="_blank">
<path fill="#d6e9ff" stroke="#3b82f6" d="M1723.62,-124C1723.62,-124 1664.38,-124 1664.38,-124 1658.38,-124 1652.38,-118 1652.38,-112 1652.38,-112 1652.38,-100 1652.38,-100 1652.38,-94 1658.38,-88 1664.38,-88 1664.38,-88 1723.62,-88 1723.62,-88 1729.62,-88 1735.62,-94 1735.62,-100 1735.62,-100 1735.62,-112 1735.62,-112 1735.62,-118 1729.62,-124 1723.62,-124"/>
<text xml:space="preserve" text-anchor="middle" x="1694" y="-103" font-family="Helvetica,sans-Serif" font-size="10.00">zeroDiagMatrix</text>
</a>
</g>
</g>
<!-- n4 -->
<g id="node5" class="node">
<title>n4</title>
<g id="a_node5"><a xlink:href="vscode://vscode-remote/wsl+Ubuntu/home/ai4stat/statlib/Statlib/HighDim/Vocabulary/QuadraticForms.lean:33" xlink:title="noncomputable def · Statlib/HighDim/Vocabulary/QuadraticForms.lean:33" target="_blank">
<path fill="#d6e9ff" stroke="#3b82f6" d="M206.92,-52C206.92,-52 87.08,-52 87.08,-52 81.08,-52 75.08,-46 75.08,-40 75.08,-40 75.08,-28 75.08,-28 75.08,-22 81.08,-16 87.08,-16 87.08,-16 206.92,-16 206.92,-16 212.92,-16 218.92,-22 218.92,-28 218.92,-28 218.92,-40 218.92,-40 218.92,-46 212.92,-52 206.92,-52"/>
<text xml:space="preserve" text-anchor="middle" x="147" y="-31" font-family="Helvetica,sans-Serif" font-size="10.00">decoupledOffDiagQuadForm</text>
</a>
</g>
</g>
<!-- n5 -->
<g id="node6" class="node">
<title>n5</title>
<g id="a_node6"><a xlink:href="vscode://vscode-remote/wsl+Ubuntu/home/ai4stat/statlib/Statlib/HighDim/Vocabulary/Norms.lean:13" xlink:title="noncomputable def · Statlib/HighDim/Vocabulary/Norms.lean:13" target="_blank">
<path fill="#d6e9ff" stroke="#3b82f6" d="M1693.23,-196C1693.23,-196 1656.77,-196 1656.77,-196 1650.77,-196 1644.77,-190 1644.77,-184 1644.77,-184 1644.77,-172 1644.77,-172 1644.77,-166 1650.77,-160 1656.77,-160 1656.77,-160 1693.23,-160 1693.23,-160 1699.23,-160 1705.23,-166 1705.23,-172 1705.23,-172 1705.23,-184 1705.23,-184 1705.23,-190 1699.23,-196 1693.23,-196"/>
<text xml:space="preserve" text-anchor="middle" x="1675" y="-175" font-family="Helvetica,sans-Serif" font-size="10.00">l2NormSq</text>
</a>
</g>
</g>
<!-- n6 -->
<g id="node7" class="node">
<title>n6</title>
<g id="a_node7"><a xlink:href="vscode://vscode-remote/wsl+Ubuntu/home/ai4stat/statlib/Statlib/HighDim/Vocabulary/Norms.lean:21" xlink:title="lemma · Statlib/HighDim/Vocabulary/Norms.lean:21" target="_blank">
<path fill="#eef2f6" stroke="#94a3b8" d="M1639.64,-269.2C1639.64,-269.2 1560.36,-269.2 1560.36,-269.2 1554.36,-269.2 1548.36,-263.2 1548.36,-257.2 1548.36,-257.2 1548.36,-245.2 1548.36,-245.2 1548.36,-239.2 1554.36,-233.2 1560.36,-233.2 1560.36,-233.2 1639.64,-233.2 1639.64,-233.2 1645.64,-233.2 1651.64,-239.2 1651.64,-245.2 1651.64,-245.2 1651.64,-257.2 1651.64,-257.2 1651.64,-263.2 1645.64,-269.2 1639.64,-269.2"/>
<text xml:space="preserve" text-anchor="middle" x="1600" y="-248.2" font-family="Helvetica,sans-Serif" font-size="10.00">euclidean_norm_sq</text>
</a>
</g>
</g>
<!-- n6&#45;&gt;n5 -->
<g id="edge1" class="edge">
<title>n6&#45;&gt;n5</title>
<path fill="none" stroke="#64748b" d="M1622.31,-232.79C1625.29,-230.3 1628.25,-227.73 1631,-225.2 1638.77,-218.05 1646.85,-209.82 1653.94,-202.3"/>
<polygon fill="#64748b" stroke="#64748b" points="1655.61,-204.1 1658.59,-197.31 1652.03,-200.76 1655.61,-204.1"/>
</g>
<!-- n7 -->
<g id="node8" class="node">
<title>n7</title>
<g id="a_node8"><a xlink:href="vscode://vscode-remote/wsl+Ubuntu/home/ai4stat/statlib/Statlib/HighDim/Vocabulary/Norms.lean:32" xlink:title="lemma · Statlib/HighDim/Vocabulary/Norms.lean:32" target="_blank">
<path fill="#eef2f6" stroke="#94a3b8" d="M1622.69,-124C1622.69,-124 1567.31,-124 1567.31,-124 1561.31,-124 1555.31,-118 1555.31,-112 1555.31,-112 1555.31,-100 1555.31,-100 1555.31,-94 1561.31,-88 1567.31,-88 1567.31,-88 1622.69,-88 1622.69,-88 1628.69,-88 1634.69,-94 1634.69,-100 1634.69,-100 1634.69,-112 1634.69,-112 1634.69,-118 1628.69,-124 1622.69,-124"/>
<text xml:space="preserve" text-anchor="middle" x="1595" y="-103" font-family="Helvetica,sans-Serif" font-size="10.00">inner_eq_sum</text>
</a>
</g>
</g>
<!-- n8 -->
<g id="node9" class="node">
<title>n8</title>
<g id="a_node9"><a xlink:href="vscode://vscode-remote/wsl+Ubuntu/home/ai4stat/statlib/Statlib/HighDim/Concentration/HansonWright.lean:1389" xlink:title="lemma · Statlib/HighDim/Concentration/HansonWright.lean:1389" target="_blank">
<path fill="#eef2f6" stroke="#94a3b8" d="M2225.76,-269.2C2225.76,-269.2 2114.24,-269.2 2114.24,-269.2 2108.24,-269.2 2102.24,-263.2 2102.24,-257.2 2102.24,-257.2 2102.24,-245.2 2102.24,-245.2 2102.24,-239.2 2108.24,-233.2 2114.24,-233.2 2114.24,-233.2 2225.76,-233.2 2225.76,-233.2 2231.76,-233.2 2237.76,-239.2 2237.76,-245.2 2237.76,-245.2 2237.76,-257.2 2237.76,-257.2 2237.76,-263.2 2231.76,-269.2 2225.76,-269.2"/>
<text xml:space="preserve" text-anchor="middle" x="2170" y="-248.2" font-family="Helvetica,sans-Serif" font-size="10.00">subgaussian_vector_coord</text>
</a>
</g>
</g>
<!-- n8&#45;&gt;n0 -->
<g id="edge2" class="edge">
<title>n8&#45;&gt;n0</title>
<path fill="none" stroke="#64748b" d="M2102.04,-235.84C2097.29,-234.92 2092.58,-234.03 2088,-233.2 2065.43,-229.09 2059.52,-229.59 2037,-225.2 1992.2,-216.47 1942.14,-204.77 1903.57,-195.33"/>
<polygon fill="#64748b" stroke="#64748b" points="1904.37,-193.01 1896.99,-193.72 1903.2,-197.77 1904.37,-193.01"/>
</g>
<!-- n8&#45;&gt;n7 -->
<g id="edge3" class="edge">
<title>n8&#45;&gt;n7</title>
<path fill="none" stroke="#64748b" d="M2126.97,-232.77C2074.97,-212.39 1984.44,-179 1904,-160 1792.6,-133.68 1758.31,-150.88 1643.22,-123.82"/>
<polygon fill="#64748b" stroke="#64748b" points="1644,-121.49 1636.62,-122.24 1642.86,-126.26 1644,-121.49"/>
</g>
<!-- n10 -->
<g id="node10" class="node">
<title>n10</title>
<g id="a_node10"><a xlink:href="vscode://vscode-remote/wsl+Ubuntu/home/ai4stat/statlib/Statlib/HighDim/Concentration/HansonWright.lean:519" xlink:title="lemma · Statlib/HighDim/Concentration/HansonWright.lean:519" target="_blank">
<path fill="#eef2f6" stroke="#94a3b8" d="M1991.96,-269.2C1991.96,-269.2 1802.04,-269.2 1802.04,-269.2 1796.04,-269.2 1790.04,-263.2 1790.04,-257.2 1790.04,-257.2 1790.04,-245.2 1790.04,-245.2 1790.04,-239.2 1796.04,-233.2 1802.04,-233.2 1802.04,-233.2 1991.96,-233.2 1991.96,-233.2 1997.96,-233.2 2003.96,-239.2 2003.96,-245.2 2003.96,-245.2 2003.96,-257.2 2003.96,-257.2 2003.96,-263.2 1997.96,-269.2 1991.96,-269.2"/>
<text xml:space="preserve" text-anchor="middle" x="1897" y="-248.2" font-family="Helvetica,sans-Serif" font-size="10.00">subgaussian_projection_second_moment_le</text>
</a>
</g>
</g>
<!-- n10&#45;&gt;n0 -->
<g id="edge4" class="edge">
<title>n10&#45;&gt;n0</title>
<path fill="none" stroke="#64748b" d="M1882.96,-232.96C1875.55,-223.87 1866.35,-212.57 1858.28,-202.67"/>
<polygon fill="#64748b" stroke="#64748b" points="1860.19,-201.13 1853.87,-197.25 1856.39,-204.22 1860.19,-201.13"/>
</g>
<!-- n9 -->
<g id="node48" class="node">
<title>n9</title>
<g id="a_node48"><a xlink:href="vscode://vscode-remote/wsl+Ubuntu/home/ai4stat/statlib/Statlib/StatFoundation/RandomVariable/SubGaussian/subgaussian_variance_le.lean:8" xlink:title="theorem · Statlib/StatFoundation/RandomVariable/SubGaussian/subgaussian_variance_le.lean:8" target="_blank">
<path fill="#ffe6a3" stroke="#d4a017" d="M2478.43,-196C2478.43,-196 2373.57,-196 2373.57,-196 2367.57,-196 2361.57,-190 2361.57,-184 2361.57,-184 2361.57,-172 2361.57,-172 2361.57,-166 2367.57,-160 2373.57,-160 2373.57,-160 2478.43,-160 2478.43,-160 2484.43,-160 2490.43,-166 2490.43,-172 2490.43,-172 2490.43,-184 2490.43,-184 2490.43,-190 2484.43,-196 2478.43,-196"/>
<text xml:space="preserve" text-anchor="middle" x="2426" y="-175" font-family="Helvetica,sans-Serif" font-size="10.00">subgaussian_variance_le</text>
</a>
</g>
</g>
<!-- n10&#45;&gt;n9 -->
<g id="edge5" class="edge">
<title>n10&#45;&gt;n9</title>
<path fill="none" stroke="#64748b" d="M2004.24,-239.82C2033.04,-237.33 2064.19,-234.9 2093,-233.2 2121.52,-231.52 2322.61,-233.33 2350,-225.2 2366.89,-220.18 2383.82,-210.46 2397.41,-201.22"/>
<polygon fill="#64748b" stroke="#64748b" points="2398.62,-203.36 2402.95,-197.33 2395.81,-199.35 2398.62,-203.36"/>
</g>
<!-- n11 -->
<g id="node11" class="node">
<title>n11</title>
<g id="a_node11"><a xlink:href="vscode://vscode-remote/wsl+Ubuntu/home/ai4stat/statlib/Statlib/HighDim/Concentration/HansonWright.lean:2396" xlink:title="lemma · Statlib/HighDim/Concentration/HansonWright.lean:2396" target="_blank">
<path fill="#eef2f6" stroke="#94a3b8" d="M1669.11,-341.2C1669.11,-341.2 1510.89,-341.2 1510.89,-341.2 1504.89,-341.2 1498.89,-335.2 1498.89,-329.2 1498.89,-329.2 1498.89,-317.2 1498.89,-317.2 1498.89,-311.2 1504.89,-305.2 1510.89,-305.2 1510.89,-305.2 1669.11,-305.2 1669.11,-305.2 1675.11,-305.2 1681.11,-311.2 1681.11,-317.2 1681.11,-317.2 1681.11,-329.2 1681.11,-329.2 1681.11,-335.2 1675.11,-341.2 1669.11,-341.2"/>
<text xml:space="preserve" text-anchor="middle" x="1590" y="-320.2" font-family="Helvetica,sans-Serif" font-size="10.00">subgaussian_norm_sq_mean_le_dim</text>
</a>
</g>
</g>
<!-- n11&#45;&gt;n0 -->
<g id="edge6" class="edge">
<title>n11&#45;&gt;n0</title>
<path fill="none" stroke="#64748b" d="M1660.87,-304.77C1686.01,-296.52 1713.6,-284.93 1736,-269.2 1753.05,-257.23 1750.87,-247.51 1766,-233.2 1778.21,-221.66 1792.89,-210.34 1805.87,-201.06"/>
<polygon fill="#64748b" stroke="#64748b" points="1806.93,-203.31 1811.24,-197.28 1804.11,-199.3 1806.93,-203.31"/>
</g>
<!-- n11&#45;&gt;n5 -->
<g id="edge8" class="edge">
<title>n11&#45;&gt;n5</title>
<path fill="none" stroke="#64748b" d="M1623.69,-304.77C1637.42,-295.95 1652.12,-283.96 1661,-269.2 1672.71,-249.74 1675.7,-223.8 1676.06,-204.74"/>
<polygon fill="#64748b" stroke="#64748b" points="1678.51,-204.76 1676.06,-197.76 1673.61,-204.76 1678.51,-204.76"/>
</g>
<!-- n11&#45;&gt;n6 -->
<g id="edge7" class="edge">
<title>n11&#45;&gt;n6</title>
<path fill="none" stroke="#64748b" d="M1592.47,-304.9C1593.65,-296.67 1595.07,-286.68 1596.37,-277.62"/>
<polygon fill="#64748b" stroke="#64748b" points="1598.78,-278.08 1597.34,-270.8 1593.93,-277.39 1598.78,-278.08"/>
</g>
<!-- n11&#45;&gt;n7 -->
<g id="edge10" class="edge">
<title>n11&#45;&gt;n7</title>
<path fill="none" stroke="#64748b" d="M1566.43,-304.78C1555.91,-295.53 1544.63,-283.18 1539,-269.2 1533.02,-254.36 1532.88,-247.98 1539,-233.2 1540.92,-228.55 1544.22,-229.39 1547,-225.2 1566.47,-195.85 1580.27,-157.35 1587.93,-132.4"/>
<polygon fill="#64748b" stroke="#64748b" points="1590.21,-133.35 1589.86,-125.94 1585.51,-131.94 1590.21,-133.35"/>
</g>
<!-- n11&#45;&gt;n8 -->
<g id="edge9" class="edge">
<title>n11&#45;&gt;n8</title>
<path fill="none" stroke="#64748b" d="M1681.58,-311.15C1795.34,-297.42 1987.34,-274.25 2093.57,-261.42"/>
<polygon fill="#64748b" stroke="#64748b" points="2093.85,-263.86 2100.5,-260.59 2093.26,-258.99 2093.85,-263.86"/>
</g>
<!-- n11&#45;&gt;n10 -->
<g id="edge11" class="edge">
<title>n11&#45;&gt;n10</title>
<path fill="none" stroke="#64748b" d="M1666.68,-304.72C1710.99,-294.61 1766.82,-281.88 1812.41,-271.49"/>
<polygon fill="#64748b" stroke="#64748b" points="1812.75,-273.92 1819.03,-269.98 1811.66,-269.15 1812.75,-273.92"/>
</g>
<!-- n15 -->
<g id="node12" class="node">
<title>n15</title>
<g id="a_node12"><a xlink:href="vscode://vscode-remote/wsl+Ubuntu/home/ai4stat/statlib/Statlib/HighDim/Concentration/HansonWright.lean:2101" xlink:title="lemma · Statlib/HighDim/Concentration/HansonWright.lean:2101" target="_blank">
<path fill="#eef2f6" stroke="#94a3b8" d="M2265.62,-341.2C2265.62,-341.2 2082.38,-341.2 2082.38,-341.2 2076.38,-341.2 2070.38,-335.2 2070.38,-329.2 2070.38,-329.2 2070.38,-317.2 2070.38,-317.2 2070.38,-311.2 2076.38,-305.2 2082.38,-305.2 2082.38,-305.2 2265.62,-305.2 2265.62,-305.2 2271.62,-305.2 2277.62,-311.2 2277.62,-317.2 2277.62,-317.2 2277.62,-329.2 2277.62,-329.2 2277.62,-335.2 2271.62,-341.2 2265.62,-341.2"/>
<text xml:space="preserve" text-anchor="middle" x="2174" y="-320.2" font-family="Helvetica,sans-Serif" font-size="10.00">coord_sq_centered_scaled_exp_integrable</text>
</a>
</g>
</g>
<!-- n15&#45;&gt;n0 -->
<g id="edge13" class="edge">
<title>n15&#45;&gt;n0</title>
<path fill="none" stroke="#64748b" d="M2217.48,-304.71C2232.46,-296.33 2247.57,-284.68 2256,-269.2 2263.65,-255.15 2266.56,-245.22 2256,-233.2 2233.17,-207.21 2015.51,-189.99 1904.07,-182.8"/>
<polygon fill="#64748b" stroke="#64748b" points="1904.23,-180.36 1897.09,-182.36 1903.92,-185.25 1904.23,-180.36"/>
</g>
<!-- n15&#45;&gt;n8 -->
<g id="edge14" class="edge">
<title>n15&#45;&gt;n8</title>
<path fill="none" stroke="#64748b" d="M2173.01,-304.9C2172.54,-296.67 2171.97,-286.68 2171.45,-277.62"/>
<polygon fill="#64748b" stroke="#64748b" points="2173.91,-277.66 2171.06,-270.82 2169.02,-277.94 2173.91,-277.66"/>
</g>
<!-- n14 -->
<g id="node51" class="node">
<title>n14</title>
<g id="a_node51"><a xlink:href="vscode://vscode-remote/wsl+Ubuntu/home/ai4stat/statlib/Statlib/StatFoundation/RandomVariable/SubGaussian/subgaussian_exp_sq_le_at_one_third.lean:165" xlink:title="theorem · Statlib/StatFoundation/RandomVariable/SubGaussian/subgaussian_exp_sq_le_at_one_third.lean:165" target="_blank">
<path fill="#ffe6a3" stroke="#d4a017" d="M3016.3,-124C3016.3,-124 2819.7,-124 2819.7,-124 2813.7,-124 2807.7,-118 2807.7,-112 2807.7,-112 2807.7,-100 2807.7,-100 2807.7,-94 2813.7,-88 2819.7,-88 2819.7,-88 3016.3,-88 3016.3,-88 3022.3,-88 3028.3,-94 3028.3,-100 3028.3,-100 3028.3,-112 3028.3,-112 3028.3,-118 3022.3,-124 3016.3,-124"/>
<text xml:space="preserve" text-anchor="middle" x="2918" y="-103" font-family="Helvetica,sans-Serif" font-size="10.00">subgaussian_integrable_exp_sq_at_one_third</text>
</a>
</g>
</g>
<!-- n15&#45;&gt;n14 -->
<g id="edge15" class="edge">
<title>n15&#45;&gt;n14</title>
<path fill="none" stroke="#64748b" d="M2278.12,-316.78C2480.05,-305.21 2909.02,-275 2953,-225.2 2976.41,-198.69 2955.02,-157.16 2936.91,-131.04"/>
<polygon fill="#64748b" stroke="#64748b" points="2939.12,-129.92 2933.05,-125.66 2935.14,-132.78 2939.12,-129.92"/>
</g>
<!-- n20 -->
<g id="node13" class="node">
<title>n20</title>
<g id="a_node13"><a xlink:href="vscode://vscode-remote/wsl+Ubuntu/home/ai4stat/statlib/Statlib/HighDim/Concentration/HansonWright.lean:2038" xlink:title="lemma · Statlib/HighDim/Concentration/HansonWright.lean:2038" target="_blank">
<path fill="#eef2f6" stroke="#94a3b8" d="M2040.67,-341.2C2040.67,-341.2 1871.33,-341.2 1871.33,-341.2 1865.33,-341.2 1859.33,-335.2 1859.33,-329.2 1859.33,-329.2 1859.33,-317.2 1859.33,-317.2 1859.33,-311.2 1865.33,-305.2 1871.33,-305.2 1871.33,-305.2 2040.67,-305.2 2040.67,-305.2 2046.67,-305.2 2052.67,-311.2 2052.67,-317.2 2052.67,-317.2 2052.67,-329.2 2052.67,-329.2 2052.67,-335.2 2046.67,-341.2 2040.67,-341.2"/>
<text xml:space="preserve" text-anchor="middle" x="1956" y="-320.2" font-family="Helvetica,sans-Serif" font-size="10.00">coord_sq_centered_mgf_bound_explicit</text>
</a>
</g>
</g>
<!-- n20&#45;&gt;n0 -->
<g id="edge21" class="edge">
<title>n20&#45;&gt;n0</title>
<path fill="none" stroke="#64748b" d="M2053.05,-306.02C2136.43,-291.88 2243.79,-273.04 2247,-269.2 2257.25,-256.91 2257.54,-245.24 2247,-233.2 2224.77,-207.83 2013.35,-190.4 1903.93,-183"/>
<polygon fill="#64748b" stroke="#64748b" points="1904.25,-180.56 1897.11,-182.54 1903.93,-185.45 1904.25,-180.56"/>
</g>
<!-- n20&#45;&gt;n8 -->
<g id="edge22" class="edge">
<title>n20&#45;&gt;n8</title>
<path fill="none" stroke="#64748b" d="M2009.45,-304.72C2039.69,-294.82 2077.63,-282.42 2109.03,-272.14"/>
<polygon fill="#64748b" stroke="#64748b" points="2109.53,-274.56 2115.42,-270.05 2108.01,-269.9 2109.53,-274.56"/>
</g>
<!-- n19 -->
<g id="node55" class="node">
<title>n19</title>
<g id="a_node55"><a xlink:href="vscode://vscode-remote/wsl+Ubuntu/home/ai4stat/statlib/Statlib/StatFoundation/RandomVariable/SubExponential/subexp_mgf_le_of_sq_subgaussian.lean:72" xlink:title="theorem · Statlib/StatFoundation/RandomVariable/SubExponential/subexp_mgf_le_of_sq_subgaussian.lean:72" target="_blank">
<path fill="#ffe6a3" stroke="#d4a017" d="M2707.84,-196C2707.84,-196 2520.16,-196 2520.16,-196 2514.16,-196 2508.16,-190 2508.16,-184 2508.16,-184 2508.16,-172 2508.16,-172 2508.16,-166 2514.16,-160 2520.16,-160 2520.16,-160 2707.84,-160 2707.84,-160 2713.84,-160 2719.84,-166 2719.84,-172 2719.84,-172 2719.84,-184 2719.84,-184 2719.84,-190 2713.84,-196 2707.84,-196"/>
<text xml:space="preserve" text-anchor="middle" x="2614" y="-175" font-family="Helvetica,sans-Serif" font-size="10.00">subexp_mgf_le_of_sq_subgaussian_explicit</text>
</a>
</g>
</g>
<!-- n20&#45;&gt;n19 -->
<g id="edge23" class="edge">
<title>n20&#45;&gt;n19</title>
<path fill="none" stroke="#64748b" d="M2053.01,-306C2197.52,-281.69 2456.9,-237.33 2499,-225.2 2522.37,-218.46 2547.53,-208.67 2568.34,-199.83"/>
<polygon fill="#64748b" stroke="#64748b" points="2569.24,-202.11 2574.7,-197.09 2567.3,-197.61 2569.24,-202.11"/>
</g>
<!-- n21 -->
<g id="node14" class="node">
<title>n21</title>
<g id="a_node14"><a xlink:href="vscode://vscode-remote/wsl+Ubuntu/home/ai4stat/statlib/Statlib/HighDim/Concentration/HansonWright.lean:2182" xlink:title="lemma · Statlib/HighDim/Concentration/HansonWright.lean:2182" target="_blank">
<path fill="#eef2f6" stroke="#94a3b8" d="M2117.04,-413.2C2117.04,-413.2 1850.96,-413.2 1850.96,-413.2 1844.96,-413.2 1838.96,-407.2 1838.96,-401.2 1838.96,-401.2 1838.96,-389.2 1838.96,-389.2 1838.96,-383.2 1844.96,-377.2 1850.96,-377.2 1850.96,-377.2 2117.04,-377.2 2117.04,-377.2 2123.04,-377.2 2129.04,-383.2 2129.04,-389.2 2129.04,-389.2 2129.04,-401.2 2129.04,-401.2 2129.04,-407.2 2123.04,-413.2 2117.04,-413.2"/>
<text xml:space="preserve" text-anchor="middle" x="1984" y="-392.2" font-family="Helvetica,sans-Serif" font-size="10.00">coord_sq_centered_scaled_subexponential_explicit_of_range</text>
</a>
</g>
</g>
<!-- n21&#45;&gt;n0 -->
<g id="edge24" class="edge">
<title>n21&#45;&gt;n0</title>
<path fill="none" stroke="#64748b" d="M1896.69,-376.81C1878.34,-368.99 1861.18,-357.65 1850,-341.2 1841,-327.97 1839.65,-317.4 1850,-305.2 1913.53,-230.32 2004.47,-344.08 2068,-269.2 2078.35,-257 2079.04,-244.78 2068,-233.2 2055.1,-219.68 1917.57,-231.57 1900,-225.2 1886.14,-220.17 1872.84,-210.82 1862.21,-201.84"/>
<polygon fill="#64748b" stroke="#64748b" points="1863.96,-200.13 1857.09,-197.34 1860.73,-203.81 1863.96,-200.13"/>
</g>
<!-- n21&#45;&gt;n15 -->
<g id="edge26" class="edge">
<title>n21&#45;&gt;n15</title>
<path fill="none" stroke="#64748b" d="M2031.45,-376.72C2058.08,-366.91 2091.42,-354.63 2119.16,-344.41"/>
<polygon fill="#64748b" stroke="#64748b" points="2119.68,-346.82 2125.4,-342.1 2117.99,-342.23 2119.68,-346.82"/>
</g>
<!-- n21&#45;&gt;n20 -->
<g id="edge27" class="edge">
<title>n21&#45;&gt;n20</title>
<path fill="none" stroke="#64748b" d="M1977.08,-376.9C1973.72,-368.5 1969.63,-358.27 1965.94,-349.06"/>
<polygon fill="#64748b" stroke="#64748b" points="1968.28,-348.3 1963.4,-342.71 1963.73,-350.12 1968.28,-348.3"/>
</g>
<!-- n12 -->
<g id="node49" class="node">
<title>n12</title>
<g id="a_node49"><a xlink:href="vscode://vscode-remote/wsl+Ubuntu/home/ai4stat/statlib/Statlib/StatFoundation/Vocabulary/RandomVariable.lean:74" xlink:title="structure · Statlib/StatFoundation/Vocabulary/RandomVariable.lean:74" target="_blank">
<path fill="#e8dcff" stroke="#8b5cf6" d="M3159.47,-124C3159.47,-124 3058.53,-124 3058.53,-124 3052.53,-124 3046.53,-118 3046.53,-112 3046.53,-112 3046.53,-100 3046.53,-100 3046.53,-94 3052.53,-88 3058.53,-88 3058.53,-88 3159.47,-88 3159.47,-88 3165.47,-88 3171.47,-94 3171.47,-100 3171.47,-100 3171.47,-112 3171.47,-112 3171.47,-118 3165.47,-124 3159.47,-124"/>
<text xml:space="preserve" text-anchor="middle" x="3109" y="-103" font-family="Helvetica,sans-Serif" font-size="10.00">HasSubexponentialMGF</text>
</a>
</g>
</g>
<!-- n21&#45;&gt;n12 -->
<g id="edge25" class="edge">
<title>n21&#45;&gt;n12</title>
<path fill="none" stroke="#64748b" d="M2129.2,-388.75C2309.99,-378.66 2626.51,-350.02 2885,-269.2 2970.69,-242.41 3050.71,-168.21 3087.63,-130.16"/>
<polygon fill="#64748b" stroke="#64748b" points="3089.05,-132.22 3092.13,-125.47 3085.51,-128.82 3089.05,-132.22"/>
</g>
<!-- n23 -->
<g id="node15" class="node">
<title>n23</title>
<g id="a_node15"><a xlink:href="vscode://vscode-remote/wsl+Ubuntu/home/ai4stat/statlib/Statlib/HighDim/Concentration/HansonWright.lean:2238" xlink:title="lemma · Statlib/HighDim/Concentration/HansonWright.lean:2238" target="_blank">
<path fill="#eef2f6" stroke="#94a3b8" d="M2049.07,-485.2C2049.07,-485.2 1846.93,-485.2 1846.93,-485.2 1840.93,-485.2 1834.93,-479.2 1834.93,-473.2 1834.93,-473.2 1834.93,-461.2 1834.93,-461.2 1834.93,-455.2 1840.93,-449.2 1846.93,-449.2 1846.93,-449.2 2049.07,-449.2 2049.07,-449.2 2055.07,-449.2 2061.07,-455.2 2061.07,-461.2 2061.07,-461.2 2061.07,-473.2 2061.07,-473.2 2061.07,-479.2 2055.07,-485.2 2049.07,-485.2"/>
<text xml:space="preserve" text-anchor="middle" x="1948" y="-464.2" font-family="Helvetica,sans-Serif" font-size="10.00">weighted_coord_sq_centered_sum_tail_explicit</text>
</a>
</g>
</g>
<!-- n23&#45;&gt;n0 -->
<g id="edge29" class="edge">
<title>n23&#45;&gt;n0</title>
<path fill="none" stroke="#64748b" d="M1867.13,-448.77C1849,-440.94 1831.93,-429.6 1821,-413.2 1808.02,-393.72 1820.32,-316.16 1831,-305.2 1899.21,-235.17 1984.78,-343.77 2048,-269.2 2058.35,-257 2059,-244.82 2048,-233.2 2036.67,-221.24 1915.46,-230.86 1900,-225.2 1886.16,-220.13 1872.85,-210.77 1862.22,-201.8"/>
<polygon fill="#64748b" stroke="#64748b" points="1863.98,-200.08 1857.11,-197.3 1860.75,-203.77 1863.98,-200.08"/>
</g>
<!-- n23&#45;&gt;n8 -->
<g id="edge32" class="edge">
<title>n23&#45;&gt;n8</title>
<path fill="none" stroke="#64748b" d="M1875.19,-448.71C1857.45,-440.85 1840.55,-429.51 1830,-413.2 1813.25,-387.32 1846.18,-308.63 1850,-305.2 1886.53,-272.39 2019.56,-277.24 2068,-269.2 2076.32,-267.82 2085.02,-266.37 2093.69,-264.93"/>
<polygon fill="#64748b" stroke="#64748b" points="2093.97,-267.37 2100.48,-263.8 2093.17,-262.53 2093.97,-267.37"/>
</g>
<!-- n23&#45;&gt;n21 -->
<g id="edge31" class="edge">
<title>n23&#45;&gt;n21</title>
<path fill="none" stroke="#64748b" d="M1956.9,-448.9C1961.26,-440.42 1966.58,-430.06 1971.36,-420.78"/>
<polygon fill="#64748b" stroke="#64748b" points="1973.49,-422 1974.51,-414.65 1969.13,-419.75 1973.49,-422"/>
</g>
<!-- n23&#45;&gt;n12 -->
<g id="edge30" class="edge">
<title>n23&#45;&gt;n12</title>
<path fill="none" stroke="#64748b" d="M2061.52,-463.69C2348.08,-455.85 3078,-425.9 3078,-324.2 3078,-324.2 3078,-324.2 3078,-250.2 3078,-208.06 3090.98,-160.5 3100.14,-132.18"/>
<polygon fill="#64748b" stroke="#64748b" points="3102.37,-133.23 3102.25,-125.81 3097.72,-131.68 3102.37,-133.23"/>
</g>
<!-- n22 -->
<g id="node56" class="node">
<title>n22</title>
<g id="a_node56"><a xlink:href="vscode://vscode-remote/wsl+Ubuntu/home/ai4stat/statlib/Statlib/StatFoundation/Concentration/ExponentialType/bernstein_sum_meas_abs_ge_le_two_exp.lean:13" xlink:title="theorem · Statlib/StatFoundation/Concentration/ExponentialType/bernstein_sum_meas_abs_ge_le_two_exp.lean:13" target="_blank">
<path fill="#ffe6a3" stroke="#d4a017" d="M2932.06,-196C2932.06,-196 2749.94,-196 2749.94,-196 2743.94,-196 2737.94,-190 2737.94,-184 2737.94,-184 2737.94,-172 2737.94,-172 2737.94,-166 2743.94,-160 2749.94,-160 2749.94,-160 2932.06,-160 2932.06,-160 2938.06,-160 2944.06,-166 2944.06,-172 2944.06,-172 2944.06,-184 2944.06,-184 2944.06,-190 2938.06,-196 2932.06,-196"/>
<text xml:space="preserve" text-anchor="middle" x="2841" y="-175" font-family="Helvetica,sans-Serif" font-size="10.00">bernstein_sum_meas_abs_ge_le_two_exp</text>
</a>
</g>
</g>
<!-- n23&#45;&gt;n22 -->
<g id="edge33" class="edge">
<title>n23&#45;&gt;n22</title>
<path fill="none" stroke="#64748b" d="M2012.8,-448.74C2049.61,-438.67 2096.49,-425.59 2138,-413.2 2402.13,-334.38 2470.04,-319.61 2729,-225.2 2750.28,-217.44 2773.48,-208.03 2793.22,-199.74"/>
<polygon fill="#64748b" stroke="#64748b" points="2793.99,-202.07 2799.49,-197.09 2792.09,-197.56 2793.99,-202.07"/>
</g>
<!-- n24 -->
<g id="node16" class="node">
<title>n24</title>
<g id="a_node16"><a xlink:href="vscode://vscode-remote/wsl+Ubuntu/home/ai4stat/statlib/Statlib/HighDim/Concentration/HansonWright.lean:2436" xlink:title="lemma · Statlib/HighDim/Concentration/HansonWright.lean:2436" target="_blank">
<path fill="#eef2f6" stroke="#94a3b8" d="M1708.9,-557.2C1708.9,-557.2 1515.1,-557.2 1515.1,-557.2 1509.1,-557.2 1503.1,-551.2 1503.1,-545.2 1503.1,-545.2 1503.1,-533.2 1503.1,-533.2 1503.1,-527.2 1509.1,-521.2 1515.1,-521.2 1515.1,-521.2 1708.9,-521.2 1708.9,-521.2 1714.9,-521.2 1720.9,-527.2 1720.9,-533.2 1720.9,-533.2 1720.9,-545.2 1720.9,-545.2 1720.9,-551.2 1714.9,-557.2 1708.9,-557.2"/>
<text xml:space="preserve" text-anchor="middle" x="1612" y="-536.2" font-family="Helvetica,sans-Serif" font-size="10.00">subgaussian_norm_sq_tail_bernstein_explicit</text>
</a>
</g>
</g>
<!-- n24&#45;&gt;n0 -->
<g id="edge34" class="edge">
<title>n24&#45;&gt;n0</title>
<path fill="none" stroke="#64748b" d="M1626.7,-520.72C1634.73,-510.7 1644.54,-497.66 1652,-485.2 1697.24,-409.61 1692.74,-382.5 1735,-305.2 1744.11,-288.54 1768.86,-247.8 1781,-233.2 1790.2,-222.14 1801.53,-211.1 1811.73,-201.89"/>
<polygon fill="#64748b" stroke="#64748b" points="1813.17,-203.89 1816.78,-197.41 1809.92,-200.23 1813.17,-203.89"/>
</g>
<!-- n24&#45;&gt;n5 -->
<g id="edge38" class="edge">
<title>n24&#45;&gt;n5</title>
<path fill="none" stroke="#64748b" d="M1621.43,-520.95C1639.12,-487.49 1676.7,-410.94 1690,-341.2 1699.15,-293.26 1689.14,-236.24 1681.65,-204.17"/>
<polygon fill="#64748b" stroke="#64748b" points="1684.11,-203.9 1680.08,-197.67 1679.35,-205.05 1684.11,-203.9"/>
</g>
<!-- n24&#45;&gt;n6 -->
<g id="edge37" class="edge">
<title>n24&#45;&gt;n6</title>
<path fill="none" stroke="#64748b" d="M1596.47,-520.84C1568.59,-488.39 1511.03,-415.1 1490,-341.2 1485.62,-325.81 1481.49,-318.75 1490,-305.2 1501.35,-287.13 1520.77,-275.08 1540.17,-267.11"/>
<polygon fill="#64748b" stroke="#64748b" points="1540.81,-269.49 1546.47,-264.69 1539.05,-264.91 1540.81,-269.49"/>
</g>
<!-- n24&#45;&gt;n8 -->
<g id="edge36" class="edge">
<title>n24&#45;&gt;n8</title>
<path fill="none" stroke="#64748b" d="M1665.72,-520.74C1685.93,-512.3 1708.1,-500.59 1725,-485.2 1793.65,-422.7 1754.21,-357.38 1831,-305.2 1841.8,-297.86 1996.92,-275.7 2093.54,-262.47"/>
<polygon fill="#64748b" stroke="#64748b" points="2093.73,-264.92 2100.34,-261.54 2093.07,-260.06 2093.73,-264.92"/>
</g>
<!-- n24&#45;&gt;n11 -->
<g id="edge35" class="edge">
<title>n24&#45;&gt;n11</title>
<path fill="none" stroke="#64748b" d="M1610.24,-521.05C1606.37,-483.48 1597.15,-393.78 1592.61,-349.63"/>
<polygon fill="#64748b" stroke="#64748b" points="1595.08,-349.65 1591.93,-342.94 1590.21,-350.15 1595.08,-349.65"/>
</g>
<!-- n24&#45;&gt;n23 -->
<g id="edge39" class="edge">
<title>n24&#45;&gt;n23</title>
<path fill="none" stroke="#64748b" d="M1695.92,-520.72C1744.62,-510.57 1806.02,-497.78 1856.03,-487.36"/>
<polygon fill="#64748b" stroke="#64748b" points="1856.44,-489.78 1862.79,-485.95 1855.44,-484.98 1856.44,-489.78"/>
</g>
<!-- n25 -->
<g id="node17" class="node">
<title>n25</title>
<g id="a_node17"><a xlink:href="vscode://vscode-remote/wsl+Ubuntu/home/ai4stat/statlib/Statlib/HighDim/Vocabulary/QuadraticForms.lean:46" xlink:title="noncomputable def · Statlib/HighDim/Vocabulary/QuadraticForms.lean:46" target="_blank">
<path fill="#d6e9ff" stroke="#3b82f6" d="M1092.41,-124C1092.41,-124 1027.59,-124 1027.59,-124 1021.59,-124 1015.59,-118 1015.59,-112 1015.59,-112 1015.59,-100 1015.59,-100 1015.59,-94 1021.59,-88 1027.59,-88 1027.59,-88 1092.41,-88 1092.41,-88 1098.41,-88 1104.41,-94 1104.41,-100 1104.41,-100 1104.41,-112 1104.41,-112 1104.41,-118 1098.41,-124 1092.41,-124"/>
<text xml:space="preserve" text-anchor="middle" x="1060" y="-103" font-family="Helvetica,sans-Serif" font-size="10.00">offDiagCoeffVec</text>
</a>
</g>
</g>
<!-- n26 -->
<g id="node18" class="node">
<title>n26</title>
<g id="a_node18"><a xlink:href="vscode://vscode-remote/wsl+Ubuntu/home/ai4stat/statlib/Statlib/HighDim/Concentration/HansonWright.lean:86" xlink:title="lemma · Statlib/HighDim/Concentration/HansonWright.lean:86" target="_blank">
<path fill="#eef2f6" stroke="#94a3b8" d="M365.83,-124C365.83,-124 188.17,-124 188.17,-124 182.17,-124 176.17,-118 176.17,-112 176.17,-112 176.17,-100 176.17,-100 176.17,-94 182.17,-88 188.17,-88 188.17,-88 365.83,-88 365.83,-88 371.83,-88 377.83,-94 377.83,-100 377.83,-100 377.83,-112 377.83,-112 377.83,-118 371.83,-124 365.83,-124"/>
<text xml:space="preserve" text-anchor="middle" x="277" y="-103" font-family="Helvetica,sans-Serif" font-size="10.00">decoupledOffDiagQuadForm_measurable</text>
</a>
</g>
</g>
<!-- n26&#45;&gt;n4 -->
<g id="edge40" class="edge">
<title>n26&#45;&gt;n4</title>
<path fill="none" stroke="#64748b" d="M244.53,-87.52C226.87,-78.01 204.89,-66.17 186.27,-56.15"/>
<polygon fill="#64748b" stroke="#64748b" points="187.71,-54.14 180.39,-52.98 185.39,-58.45 187.71,-54.14"/>
</g>
<!-- n27 -->
<g id="node19" class="node">
<title>n27</title>
<g id="a_node19"><a xlink:href="vscode://vscode-remote/wsl+Ubuntu/home/ai4stat/statlib/Statlib/HighDim/Concentration/HansonWright.lean:95" xlink:title="lemma · Statlib/HighDim/Concentration/HansonWright.lean:95" target="_blank">
<path fill="#eef2f6" stroke="#94a3b8" d="M391.62,-196C391.62,-196 188.38,-196 188.38,-196 182.38,-196 176.38,-190 176.38,-184 176.38,-184 176.38,-172 176.38,-172 176.38,-166 182.38,-160 188.38,-160 188.38,-160 391.62,-160 391.62,-160 397.62,-160 403.62,-166 403.62,-172 403.62,-172 403.62,-184 403.62,-184 403.62,-190 397.62,-196 391.62,-196"/>
<text xml:space="preserve" text-anchor="middle" x="290" y="-175" font-family="Helvetica,sans-Serif" font-size="10.00">decoupledOffDiagQuadForm_prod_measurable</text>
</a>
</g>
</g>
<!-- n27&#45;&gt;n4 -->
<g id="edge41" class="edge">
<title>n27&#45;&gt;n4</title>
<path fill="none" stroke="#64748b" d="M344.78,-159.59C361.28,-151.5 377.5,-140.01 387,-124 395.16,-110.24 397.02,-100.47 387,-88 367.12,-63.25 289.25,-49.36 227.53,-42.07"/>
<polygon fill="#64748b" stroke="#64748b" points="228.05,-39.67 220.82,-41.31 227.5,-44.54 228.05,-39.67"/>
</g>
<!-- n27&#45;&gt;n26 -->
<g id="edge42" class="edge">
<title>n27&#45;&gt;n26</title>
<path fill="none" stroke="#64748b" d="M286.79,-159.7C285.26,-151.47 283.4,-141.48 281.72,-132.42"/>
<polygon fill="#64748b" stroke="#64748b" points="284.14,-132.03 280.45,-125.59 279.32,-132.92 284.14,-132.03"/>
</g>
<!-- n28 -->
<g id="node20" class="node">
<title>n28</title>
<g id="a_node20"><a xlink:href="vscode://vscode-remote/wsl+Ubuntu/home/ai4stat/statlib/Statlib/HighDim/Concentration/HansonWright.lean:105" xlink:title="lemma · Statlib/HighDim/Concentration/HansonWright.lean:105" target="_blank">
<path fill="#eef2f6" stroke="#94a3b8" d="M404.29,-269.2C404.29,-269.2 167.71,-269.2 167.71,-269.2 161.71,-269.2 155.71,-263.2 155.71,-257.2 155.71,-257.2 155.71,-245.2 155.71,-245.2 155.71,-239.2 161.71,-233.2 167.71,-233.2 167.71,-233.2 404.29,-233.2 404.29,-233.2 410.29,-233.2 416.29,-239.2 416.29,-245.2 416.29,-245.2 416.29,-257.2 416.29,-257.2 416.29,-263.2 410.29,-269.2 404.29,-269.2"/>
<text xml:space="preserve" text-anchor="middle" x="286" y="-248.2" font-family="Helvetica,sans-Serif" font-size="10.00">decoupledOffDiagQuadForm_prod_tail_measurableSet</text>
</a>
</g>
</g>
<!-- n28&#45;&gt;n4 -->
<g id="edge43" class="edge">
<title>n28&#45;&gt;n4</title>
<path fill="none" stroke="#64748b" d="M401.85,-232.86C406.79,-230.6 410.64,-228.06 413,-225.2 432.53,-201.45 417.11,-109.37 395,-88 371.33,-65.13 290.69,-50.89 227.72,-43.01"/>
<polygon fill="#64748b" stroke="#64748b" points="228.1,-40.59 220.85,-42.17 227.5,-45.45 228.1,-40.59"/>
</g>
<!-- n28&#45;&gt;n27 -->
<g id="edge44" class="edge">
<title>n28&#45;&gt;n27</title>
<path fill="none" stroke="#64748b" d="M286.97,-232.96C287.45,-224.39 288.04,-213.87 288.57,-204.39"/>
<polygon fill="#64748b" stroke="#64748b" points="291.01,-204.71 288.96,-197.59 286.12,-204.44 291.01,-204.71"/>
</g>
<!-- n29 -->
<g id="node21" class="node">
<title>n29</title>
<g id="a_node21"><a xlink:href="vscode://vscode-remote/wsl+Ubuntu/home/ai4stat/statlib/Statlib/HighDim/Concentration/HansonWright.lean:670" xlink:title="lemma · Statlib/HighDim/Concentration/HansonWright.lean:670" target="_blank">
<path fill="#eef2f6" stroke="#94a3b8" d="M1019.32,-196C1019.32,-196 866.68,-196 866.68,-196 860.68,-196 854.68,-190 854.68,-184 854.68,-184 854.68,-172 854.68,-172 854.68,-166 860.68,-160 866.68,-160 866.68,-160 1019.32,-160 1019.32,-160 1025.32,-160 1031.32,-166 1031.32,-172 1031.32,-172 1031.32,-184 1031.32,-184 1031.32,-190 1025.32,-196 1019.32,-196"/>
<text xml:space="preserve" text-anchor="middle" x="943" y="-175" font-family="Helvetica,sans-Serif" font-size="10.00">offDiagCoeffVec_comp_measurable</text>
</a>
</g>
</g>
<!-- n29&#45;&gt;n25 -->
<g id="edge45" class="edge">
<title>n29&#45;&gt;n25</title>
<path fill="none" stroke="#64748b" d="M972.22,-159.52C987.98,-150.09 1007.55,-138.38 1024.21,-128.41"/>
<polygon fill="#64748b" stroke="#64748b" points="1025.1,-130.73 1029.85,-125.04 1022.59,-126.53 1025.1,-130.73"/>
</g>
<!-- n30 -->
<g id="node22" class="node">
<title>n30</title>
<g id="a_node22"><a xlink:href="vscode://vscode-remote/wsl+Ubuntu/home/ai4stat/statlib/Statlib/HighDim/Concentration/HansonWright.lean:678" xlink:title="lemma · Statlib/HighDim/Concentration/HansonWright.lean:678" target="_blank">
<path fill="#eef2f6" stroke="#94a3b8" d="M959.55,-269.2C959.55,-269.2 792.45,-269.2 792.45,-269.2 786.45,-269.2 780.45,-263.2 780.45,-257.2 780.45,-257.2 780.45,-245.2 780.45,-245.2 780.45,-239.2 786.45,-233.2 792.45,-233.2 792.45,-233.2 959.55,-233.2 959.55,-233.2 965.55,-233.2 971.55,-239.2 971.55,-245.2 971.55,-245.2 971.55,-257.2 971.55,-257.2 971.55,-263.2 965.55,-269.2 959.55,-269.2"/>
<text xml:space="preserve" text-anchor="middle" x="876" y="-248.2" font-family="Helvetica,sans-Serif" font-size="10.00">offDiagCoeffVec_norm_sq_measurable</text>
</a>
</g>
</g>
<!-- n30&#45;&gt;n25 -->
<g id="edge46" class="edge">
<title>n30&#45;&gt;n25</title>
<path fill="none" stroke="#64748b" d="M971.98,-235.33C976.72,-234.61 981.41,-233.89 986,-233.2 997.99,-231.38 1031.33,-233.69 1040,-225.2 1064.42,-201.28 1065.74,-159.41 1063.55,-132.46"/>
<polygon fill="#64748b" stroke="#64748b" points="1066.01,-132.51 1062.88,-125.78 1061.14,-132.99 1066.01,-132.51"/>
</g>
<!-- n30&#45;&gt;n29 -->
<g id="edge47" class="edge">
<title>n30&#45;&gt;n29</title>
<path fill="none" stroke="#64748b" d="M892.22,-232.96C900.94,-223.69 911.82,-212.14 921.27,-202.1"/>
<polygon fill="#64748b" stroke="#64748b" points="922.88,-203.96 925.89,-197.18 919.31,-200.6 922.88,-203.96"/>
</g>
<!-- n31 -->
<g id="node23" class="node">
<title>n31</title>
<g id="a_node23"><a xlink:href="vscode://vscode-remote/wsl+Ubuntu/home/ai4stat/statlib/Statlib/HighDim/Concentration/HansonWright.lean:156" xlink:title="lemma · Statlib/HighDim/Concentration/HansonWright.lean:156" target="_blank">
<path fill="#eef2f6" stroke="#94a3b8" d="M393.43,-341.2C393.43,-341.2 258.57,-341.2 258.57,-341.2 252.57,-341.2 246.57,-335.2 246.57,-329.2 246.57,-329.2 246.57,-317.2 246.57,-317.2 246.57,-311.2 252.57,-305.2 258.57,-305.2 258.57,-305.2 393.43,-305.2 393.43,-305.2 399.43,-305.2 405.43,-311.2 405.43,-317.2 405.43,-317.2 405.43,-329.2 405.43,-329.2 405.43,-335.2 399.43,-341.2 393.43,-341.2"/>
<text xml:space="preserve" text-anchor="middle" x="326" y="-320.2" font-family="Helvetica,sans-Serif" font-size="10.00">subgaussian_mgf_mono_param</text>
</a>
</g>
</g>
<!-- n32 -->
<g id="node24" class="node">
<title>n32</title>
<g id="a_node24"><a xlink:href="vscode://vscode-remote/wsl+Ubuntu/home/ai4stat/statlib/Statlib/HighDim/Vocabulary/QuadraticForms.lean:39" xlink:title="noncomputable def · Statlib/HighDim/Vocabulary/QuadraticForms.lean:39" target="_blank">
<path fill="#d6e9ff" stroke="#3b82f6" d="M716.79,-52C716.79,-52 669.21,-52 669.21,-52 663.21,-52 657.21,-46 657.21,-40 657.21,-40 657.21,-28 657.21,-28 657.21,-22 663.21,-16 669.21,-16 669.21,-16 716.79,-16 716.79,-16 722.79,-16 728.79,-22 728.79,-28 728.79,-28 728.79,-40 728.79,-40 728.79,-46 722.79,-52 716.79,-52"/>
<text xml:space="preserve" text-anchor="middle" x="693" y="-31" font-family="Helvetica,sans-Serif" font-size="10.00">offDiagCoeff</text>
</a>
</g>
</g>
<!-- n33 -->
<g id="node25" class="node">
<title>n33</title>
<g id="a_node25"><a xlink:href="vscode://vscode-remote/wsl+Ubuntu/home/ai4stat/statlib/Statlib/HighDim/Concentration/HansonWright.lean:42" xlink:title="lemma · Statlib/HighDim/Concentration/HansonWright.lean:42" target="_blank">
<path fill="#eef2f6" stroke="#94a3b8" d="M662.11,-124C662.11,-124 473.89,-124 473.89,-124 467.89,-124 461.89,-118 461.89,-112 461.89,-112 461.89,-100 461.89,-100 461.89,-94 467.89,-88 473.89,-88 473.89,-88 662.11,-88 662.11,-88 668.11,-88 674.11,-94 674.11,-100 674.11,-100 674.11,-112 674.11,-112 674.11,-118 668.11,-124 662.11,-124"/>
<text xml:space="preserve" text-anchor="middle" x="568" y="-103" font-family="Helvetica,sans-Serif" font-size="10.00">decoupledOffDiagQuadForm_eq_sum_coeff</text>
</a>
</g>
</g>
<!-- n33&#45;&gt;n4 -->
<g id="edge48" class="edge">
<title>n33&#45;&gt;n4</title>
<path fill="none" stroke="#64748b" d="M462.85,-87.52C389.83,-75.38 294.02,-59.45 227.16,-48.33"/>
<polygon fill="#64748b" stroke="#64748b" points="227.95,-45.98 220.64,-47.24 227.14,-50.81 227.95,-45.98"/>
</g>
<!-- n33&#45;&gt;n32 -->
<g id="edge49" class="edge">
<title>n33&#45;&gt;n32</title>
<path fill="none" stroke="#64748b" d="M599.22,-87.52C616.05,-78.09 636.96,-66.38 654.76,-56.41"/>
<polygon fill="#64748b" stroke="#64748b" points="655.95,-58.56 660.86,-53 653.55,-54.28 655.95,-58.56"/>
</g>
<!-- n34 -->
<g id="node26" class="node">
<title>n34</title>
<g id="a_node26"><a xlink:href="vscode://vscode-remote/wsl+Ubuntu/home/ai4stat/statlib/Statlib/HighDim/Concentration/HansonWright.lean:61" xlink:title="lemma · Statlib/HighDim/Concentration/HansonWright.lean:61" target="_blank">
<path fill="#eef2f6" stroke="#94a3b8" d="M645.79,-196C645.79,-196 454.21,-196 454.21,-196 448.21,-196 442.21,-190 442.21,-184 442.21,-184 442.21,-172 442.21,-172 442.21,-166 448.21,-160 454.21,-160 454.21,-160 645.79,-160 645.79,-160 651.79,-160 657.79,-166 657.79,-172 657.79,-172 657.79,-184 657.79,-184 657.79,-190 651.79,-196 645.79,-196"/>
<text xml:space="preserve" text-anchor="middle" x="550" y="-175" font-family="Helvetica,sans-Serif" font-size="10.00">decoupledOffDiagQuadForm_eq_inner_coeff</text>
</a>
</g>
</g>
<!-- n34&#45;&gt;n4 -->
<g id="edge50" class="edge">
<title>n34&#45;&gt;n4</title>
<path fill="none" stroke="#64748b" d="M508.6,-159.66C490.29,-150.73 469.27,-138.62 453,-124 438.51,-110.98 444.35,-98.6 428,-88 395.51,-66.94 298.28,-51.87 227.28,-43.3"/>
<polygon fill="#64748b" stroke="#64748b" points="227.93,-40.91 220.69,-42.52 227.35,-45.78 227.93,-40.91"/>
</g>
<!-- n34&#45;&gt;n7 -->
<g id="edge53" class="edge">
<title>n34&#45;&gt;n7</title>
<path fill="none" stroke="#64748b" d="M658.01,-160.79C660.7,-160.51 663.37,-160.25 666,-160 1055.74,-123.57 1161.42,-196.93 1546,-124 1546.27,-123.95 1546.55,-123.89 1546.82,-123.84"/>
<polygon fill="#64748b" stroke="#64748b" points="1547.14,-126.28 1553.4,-122.31 1546.03,-121.51 1547.14,-126.28"/>
</g>
<!-- n34&#45;&gt;n32 -->
<g id="edge51" class="edge">
<title>n34&#45;&gt;n32</title>
<path fill="none" stroke="#64748b" d="M632.98,-159.57C652.11,-151.74 670.49,-140.4 683,-124 696.66,-106.1 698.06,-79.97 696.71,-60.65"/>
<polygon fill="#64748b" stroke="#64748b" points="699.16,-60.55 696.07,-53.81 694.28,-61.01 699.16,-60.55"/>
</g>
<!-- n34&#45;&gt;n33 -->
<g id="edge52" class="edge">
<title>n34&#45;&gt;n33</title>
<path fill="none" stroke="#64748b" d="M554.45,-159.7C556.59,-151.39 559.19,-141.28 561.54,-132.14"/>
<polygon fill="#64748b" stroke="#64748b" points="563.85,-132.96 563.22,-125.57 559.11,-131.74 563.85,-132.96"/>
</g>
<!-- n35 -->
<g id="node27" class="node">
<title>n35</title>
<g id="a_node27"><a xlink:href="vscode://vscode-remote/wsl+Ubuntu/home/ai4stat/statlib/Statlib/HighDim/Concentration/HansonWright.lean:35" xlink:title="lemma · Statlib/HighDim/Concentration/HansonWright.lean:35" target="_blank">
<path fill="#eef2f6" stroke="#94a3b8" d="M764.52,-196C764.52,-196 687.48,-196 687.48,-196 681.48,-196 675.48,-190 675.48,-184 675.48,-184 675.48,-172 675.48,-172 675.48,-166 681.48,-160 687.48,-160 687.48,-160 764.52,-160 764.52,-160 770.52,-160 776.52,-166 776.52,-172 776.52,-172 776.52,-184 776.52,-184 776.52,-190 770.52,-196 764.52,-196"/>
<text xml:space="preserve" text-anchor="middle" x="726" y="-175" font-family="Helvetica,sans-Serif" font-size="10.00">offDiagCoeff_const</text>
</a>
</g>
</g>
<!-- n35&#45;&gt;n25 -->
<g id="edge55" class="edge">
<title>n35&#45;&gt;n25</title>
<path fill="none" stroke="#64748b" d="M777.02,-163.34C781.74,-162.17 786.45,-161.04 791,-160 865.8,-142.87 953.08,-126.29 1007.45,-116.37"/>
<polygon fill="#64748b" stroke="#64748b" points="1007.62,-118.83 1014.07,-115.16 1006.74,-114.01 1007.62,-118.83"/>
</g>
<!-- n35&#45;&gt;n32 -->
<g id="edge54" class="edge">
<title>n35&#45;&gt;n32</title>
<path fill="none" stroke="#64748b" d="M721.95,-159.59C716.18,-134.76 705.55,-89.01 698.9,-60.4"/>
<polygon fill="#64748b" stroke="#64748b" points="701.29,-59.85 697.32,-53.59 696.52,-60.96 701.29,-59.85"/>
</g>
<!-- n36 -->
<g id="node28" class="node">
<title>n36</title>
<g id="a_node28"><a xlink:href="vscode://vscode-remote/wsl+Ubuntu/home/ai4stat/statlib/Statlib/HighDim/Concentration/HansonWright.lean:69" xlink:title="lemma · Statlib/HighDim/Concentration/HansonWright.lean:69" target="_blank">
<path fill="#eef2f6" stroke="#94a3b8" d="M709.64,-269.2C709.64,-269.2 446.36,-269.2 446.36,-269.2 440.36,-269.2 434.36,-263.2 434.36,-257.2 434.36,-257.2 434.36,-245.2 434.36,-245.2 434.36,-239.2 440.36,-233.2 446.36,-233.2 446.36,-233.2 709.64,-233.2 709.64,-233.2 715.64,-233.2 721.64,-239.2 721.64,-245.2 721.64,-245.2 721.64,-257.2 721.64,-257.2 721.64,-263.2 715.64,-269.2 709.64,-269.2"/>
<text xml:space="preserve" text-anchor="middle" x="578" y="-248.2" font-family="Helvetica,sans-Serif" font-size="10.00">decoupledOffDiagQuadForm_const_right_eq_inner_coeffVec</text>
</a>
</g>
</g>
<!-- n36&#45;&gt;n4 -->
<g id="edge56" class="edge">
<title>n36&#45;&gt;n4</title>
<path fill="none" stroke="#64748b" d="M433.88,-233.86C430.9,-233.63 427.93,-233.41 425,-233.2 410.7,-232.19 177.51,-234.96 167,-225.2 143.63,-203.49 144.07,-107.25 145.75,-60.57"/>
<polygon fill="#64748b" stroke="#64748b" points="148.19,-60.79 146.02,-53.7 143.3,-60.6 148.19,-60.79"/>
</g>
<!-- n36&#45;&gt;n25 -->
<g id="edge57" class="edge">
<title>n36&#45;&gt;n25</title>
<path fill="none" stroke="#64748b" d="M722.13,-234.22C756.73,-230.12 784.34,-226.49 786,-225.2 810.48,-206.12 787.41,-180.16 811,-160 839.94,-135.27 942.68,-119.82 1006.8,-112.36"/>
<polygon fill="#64748b" stroke="#64748b" points="1007.01,-114.81 1013.68,-111.58 1006.45,-109.94 1007.01,-114.81"/>
</g>
<!-- n36&#45;&gt;n34 -->
<g id="edge58" class="edge">
<title>n36&#45;&gt;n34</title>
<path fill="none" stroke="#64748b" d="M571.22,-232.96C567.78,-224.22 563.54,-213.44 559.76,-203.82"/>
<polygon fill="#64748b" stroke="#64748b" points="562.11,-203.1 557.27,-197.49 557.55,-204.9 562.11,-203.1"/>
</g>
<!-- n36&#45;&gt;n35 -->
<g id="edge59" class="edge">
<title>n36&#45;&gt;n35</title>
<path fill="none" stroke="#64748b" d="M649.4,-232.86C655.47,-230.58 661.42,-228.03 667,-225.2 679.18,-219.02 691.3,-210.14 701.35,-201.81"/>
<polygon fill="#64748b" stroke="#64748b" points="702.75,-203.84 706.49,-197.44 699.57,-200.11 702.75,-203.84"/>
</g>
<!-- n37 -->
<g id="node29" class="node">
<title>n37</title>
<g id="a_node29"><a xlink:href="vscode://vscode-remote/wsl+Ubuntu/home/ai4stat/statlib/Statlib/HighDim/Concentration/HansonWright.lean:76" xlink:title="lemma · Statlib/HighDim/Concentration/HansonWright.lean:76" target="_blank">
<path fill="#eef2f6" stroke="#94a3b8" d="M883.02,-341.2C883.02,-341.2 646.98,-341.2 646.98,-341.2 640.98,-341.2 634.98,-335.2 634.98,-329.2 634.98,-329.2 634.98,-317.2 634.98,-317.2 634.98,-311.2 640.98,-305.2 646.98,-305.2 646.98,-305.2 883.02,-305.2 883.02,-305.2 889.02,-305.2 895.02,-311.2 895.02,-317.2 895.02,-317.2 895.02,-329.2 895.02,-329.2 895.02,-335.2 889.02,-341.2 883.02,-341.2"/>
<text xml:space="preserve" text-anchor="middle" x="765" y="-320.2" font-family="Helvetica,sans-Serif" font-size="10.00">decoupledOffDiagQuadForm_const_right_subgaussian</text>
</a>
</g>
</g>
<!-- n37&#45;&gt;n0 -->
<g id="edge60" class="edge">
<title>n37&#45;&gt;n0</title>
<path fill="none" stroke="#64748b" d="M895.45,-320.88C1070.45,-317.66 1371.14,-306.67 1474,-269.2 1499.73,-259.83 1498.12,-242.15 1524,-233.2 1563.94,-219.38 1672.57,-233.52 1714,-225.2 1741.21,-219.74 1770.36,-209.25 1793.66,-199.65"/>
<polygon fill="#64748b" stroke="#64748b" points="1794.42,-201.99 1799.93,-197.02 1792.53,-197.47 1794.42,-201.99"/>
</g>
<!-- n37&#45;&gt;n4 -->
<g id="edge61" class="edge">
<title>n37&#45;&gt;n4</title>
<path fill="none" stroke="#64748b" d="M634.78,-308.41C623.36,-307.29 611.97,-306.2 601,-305.2 550.61,-300.59 182.58,-305.18 147,-269.2 118.57,-240.46 134.31,-115.05 142.75,-60.5"/>
<polygon fill="#64748b" stroke="#64748b" points="145.13,-61.17 143.8,-53.87 140.29,-60.4 145.13,-61.17"/>
</g>
<!-- n37&#45;&gt;n25 -->
<g id="edge62" class="edge">
<title>n37&#45;&gt;n25</title>
<path fill="none" stroke="#64748b" d="M760.5,-305.05C756.39,-285.13 753.36,-252.53 771,-233.2 786.17,-216.58 803.52,-239.38 821,-225.2 845.1,-205.65 822.74,-180.55 846,-160 890.37,-120.79 959.27,-109.61 1006.85,-106.91"/>
<polygon fill="#64748b" stroke="#64748b" points="1006.79,-109.37 1013.66,-106.58 1006.55,-104.47 1006.79,-109.37"/>
</g>
<!-- n37&#45;&gt;n36 -->
<g id="edge63" class="edge">
<title>n37&#45;&gt;n36</title>
<path fill="none" stroke="#64748b" d="M718.29,-304.72C692.2,-294.95 659.56,-282.73 632.33,-272.54"/>
<polygon fill="#64748b" stroke="#64748b" points="633.27,-270.27 625.85,-270.11 631.55,-274.86 633.27,-270.27"/>
</g>
<!-- n38 -->
<g id="node30" class="node">
<title>n38</title>
<g id="a_node30"><a xlink:href="vscode://vscode-remote/wsl+Ubuntu/home/ai4stat/statlib/Statlib/HighDim/Concentration/HansonWright.lean:122" xlink:title="lemma · Statlib/HighDim/Concentration/HansonWright.lean:122" target="_blank">
<path fill="#eef2f6" stroke="#94a3b8" d="M565.21,-341.2C565.21,-341.2 454.79,-341.2 454.79,-341.2 448.79,-341.2 442.79,-335.2 442.79,-329.2 442.79,-329.2 442.79,-317.2 442.79,-317.2 442.79,-311.2 448.79,-305.2 454.79,-305.2 454.79,-305.2 565.21,-305.2 565.21,-305.2 571.21,-305.2 577.21,-311.2 577.21,-317.2 577.21,-317.2 577.21,-329.2 577.21,-329.2 577.21,-335.2 571.21,-341.2 565.21,-341.2"/>
<text xml:space="preserve" text-anchor="middle" x="510" y="-320.2" font-family="Helvetica,sans-Serif" font-size="10.00">subgaussian_abs_tail_real</text>
</a>
</g>
</g>
<!-- n39 -->
<g id="node31" class="node">
<title>n39</title>
<g id="a_node31"><a xlink:href="vscode://vscode-remote/wsl+Ubuntu/home/ai4stat/statlib/Statlib/HighDim/Concentration/HansonWright.lean:846" xlink:title="lemma · Statlib/HighDim/Concentration/HansonWright.lean:846" target="_blank">
<path fill="#eef2f6" stroke="#94a3b8" d="M564.77,-413.2C564.77,-413.2 229.23,-413.2 229.23,-413.2 223.23,-413.2 217.23,-407.2 217.23,-401.2 217.23,-401.2 217.23,-389.2 217.23,-389.2 217.23,-383.2 223.23,-377.2 229.23,-377.2 229.23,-377.2 564.77,-377.2 564.77,-377.2 570.77,-377.2 576.77,-383.2 576.77,-389.2 576.77,-389.2 576.77,-401.2 576.77,-401.2 576.77,-407.2 570.77,-413.2 564.77,-413.2"/>
<text xml:space="preserve" text-anchor="middle" x="397" y="-392.2" font-family="Helvetica,sans-Serif" font-size="10.00">decoupledOffDiagQuadForm_const_right_abs_tail_real_of_coeff_norm_sq_le</text>
</a>
</g>
</g>
<!-- n39&#45;&gt;n0 -->
<g id="edge64" class="edge">
<title>n39&#45;&gt;n0</title>
<path fill="none" stroke="#64748b" d="M314.11,-376.77C260.54,-361.96 206.27,-337.88 238,-305.2 285.08,-256.71 1396.26,-304.33 1454,-269.2 1469.64,-259.69 1458.38,-242.74 1474,-233.2 1496.77,-219.29 1687.82,-230.34 1714,-225.2 1741.33,-219.84 1770.6,-209.3 1793.94,-199.64"/>
<polygon fill="#64748b" stroke="#64748b" points="1794.72,-201.97 1800.22,-197 1792.82,-197.46 1794.72,-201.97"/>
</g>
<!-- n39&#45;&gt;n4 -->
<g id="edge66" class="edge">
<title>n39&#45;&gt;n4</title>
<path fill="none" stroke="#64748b" d="M407.87,-376.89C418.74,-357.12 431.55,-324.96 414,-305.2 324.25,-204.12 201.75,-370.28 112,-269.2 58.53,-208.98 88.83,-165.13 112,-88 115.07,-77.77 120.83,-67.69 126.8,-59.12"/>
<polygon fill="#64748b" stroke="#64748b" points="128.75,-60.61 130.92,-53.52 124.8,-57.71 128.75,-60.61"/>
</g>
<!-- n39&#45;&gt;n25 -->
<g id="edge65" class="edge">
<title>n39&#45;&gt;n25</title>
<path fill="none" stroke="#64748b" d="M301.8,-376.78C246.4,-362.61 193.21,-339.34 225,-305.2 301.83,-222.71 634.12,-326.83 731,-269.2 747.32,-259.49 738.12,-243.61 754,-233.2 772.82,-220.86 787.34,-240.33 804,-225.2 826.17,-205.07 799.44,-180.78 821,-160 847.17,-134.77 945.09,-119.59 1007.18,-112.3"/>
<polygon fill="#64748b" stroke="#64748b" points="1007.14,-114.77 1013.81,-111.54 1006.58,-109.9 1007.14,-114.77"/>
</g>
<!-- n39&#45;&gt;n31 -->
<g id="edge67" class="edge">
<title>n39&#45;&gt;n31</title>
<path fill="none" stroke="#64748b" d="M379.45,-376.9C370.34,-367.91 359.08,-356.81 349.25,-347.12"/>
<polygon fill="#64748b" stroke="#64748b" points="351.13,-345.54 344.43,-342.37 347.69,-349.03 351.13,-345.54"/>
</g>
<!-- n39&#45;&gt;n37 -->
<g id="edge68" class="edge">
<title>n39&#45;&gt;n37</title>
<path fill="none" stroke="#64748b" d="M488.91,-376.72C542.47,-366.53 610.06,-353.67 664.95,-343.23"/>
<polygon fill="#64748b" stroke="#64748b" points="665.4,-345.64 671.82,-341.93 664.48,-340.83 665.4,-345.64"/>
</g>
<!-- n39&#45;&gt;n38 -->
<g id="edge69" class="edge">
<title>n39&#45;&gt;n38</title>
<path fill="none" stroke="#64748b" d="M425.22,-376.72C440.3,-367.38 459,-355.79 475,-345.88"/>
<polygon fill="#64748b" stroke="#64748b" points="476.19,-348.03 480.85,-342.26 473.61,-343.86 476.19,-348.03"/>
</g>
<!-- n40 -->
<g id="node32" class="node">
<title>n40</title>
<g id="a_node32"><a xlink:href="vscode://vscode-remote/wsl+Ubuntu/home/ai4stat/statlib/Statlib/HighDim/Concentration/HansonWright.lean:114" xlink:title="lemma · Statlib/HighDim/Concentration/HansonWright.lean:114" target="_blank">
<path fill="#eef2f6" stroke="#94a3b8" d="M1200.5,-413.2C1200.5,-413.2 1029.5,-413.2 1029.5,-413.2 1023.5,-413.2 1017.5,-407.2 1017.5,-401.2 1017.5,-401.2 1017.5,-389.2 1017.5,-389.2 1017.5,-383.2 1023.5,-377.2 1029.5,-377.2 1029.5,-377.2 1200.5,-377.2 1200.5,-377.2 1206.5,-377.2 1212.5,-383.2 1212.5,-389.2 1212.5,-389.2 1212.5,-401.2 1212.5,-401.2 1212.5,-407.2 1206.5,-413.2 1200.5,-413.2"/>
<text xml:space="preserve" text-anchor="middle" x="1115" y="-392.2" font-family="Helvetica,sans-Serif" font-size="10.00">measure_le_ofReal_of_measureReal_le</text>
</a>
</g>
</g>
<!-- n41 -->
<g id="node33" class="node">
<title>n41</title>
<g id="a_node33"><a xlink:href="vscode://vscode-remote/wsl+Ubuntu/home/ai4stat/statlib/Statlib/HighDim/Concentration/HansonWright.lean:1021" xlink:title="lemma · Statlib/HighDim/Concentration/HansonWright.lean:1021" target="_blank">
<path fill="#eef2f6" stroke="#94a3b8" d="M1077.54,-485.2C1077.54,-485.2 826.46,-485.2 826.46,-485.2 820.46,-485.2 814.46,-479.2 814.46,-473.2 814.46,-473.2 814.46,-461.2 814.46,-461.2 814.46,-455.2 820.46,-449.2 826.46,-449.2 826.46,-449.2 1077.54,-449.2 1077.54,-449.2 1083.54,-449.2 1089.54,-455.2 1089.54,-461.2 1089.54,-461.2 1089.54,-473.2 1089.54,-473.2 1089.54,-479.2 1083.54,-485.2 1077.54,-485.2"/>
<text xml:space="preserve" text-anchor="middle" x="952" y="-464.2" font-family="Helvetica,sans-Serif" font-size="10.00">decoupledOffDiagQuadForm_prod_tail_le_bad_plus_good</text>
</a>
</g>
</g>
<!-- n41&#45;&gt;n0 -->
<g id="edge70" class="edge">
<title>n41&#45;&gt;n0</title>
<path fill="none" stroke="#64748b" d="M962.64,-448.73C978.13,-423.44 1005.43,-379.37 1009,-377.2 1082.96,-332.17 1315.43,-370.27 1397,-341.2 1450.99,-321.95 1460.01,-305.95 1504,-269.2 1521.13,-254.89 1518.65,-242.35 1539,-233.2 1574.5,-217.23 1675.85,-232.93 1714,-225.2 1741.2,-219.69 1770.35,-209.2 1793.65,-199.61"/>
<polygon fill="#64748b" stroke="#64748b" points="1794.41,-201.95 1799.92,-196.98 1792.52,-197.43 1794.41,-201.95"/>
</g>
<!-- n41&#45;&gt;n4 -->
<g id="edge71" class="edge">
<title>n41&#45;&gt;n4</title>
<path fill="none" stroke="#64748b" d="M814.19,-454.56C769.34,-446.88 720.46,-434.19 679,-413.2 636.91,-391.89 628.03,-379.87 601,-341.2 591.07,-326.99 600.03,-315.37 586,-305.2 503.52,-245.41 199.83,-342.42 129,-269.2 101,-240.26 124.01,-127.66 131,-88 132.62,-78.82 135.31,-68.99 138.02,-60.31"/>
<polygon fill="#64748b" stroke="#64748b" points="140.29,-61.27 140.13,-53.85 135.63,-59.75 140.29,-61.27"/>
</g>
<!-- n41&#45;&gt;n25 -->
<g id="edge72" class="edge">
<title>n41&#45;&gt;n25</title>
<path fill="none" stroke="#64748b" d="M953.55,-448.86C958.27,-400.01 974.15,-262.83 1006,-233.2 1022.8,-217.57 1041.87,-242.44 1057,-225.2 1079.11,-200 1074.23,-158.84 1067.8,-132.35"/>
<polygon fill="#64748b" stroke="#64748b" points="1070.22,-131.91 1066.07,-125.76 1065.48,-133.16 1070.22,-131.91"/>
</g>
<!-- n41&#45;&gt;n28 -->
<g id="edge73" class="edge">
<title>n41&#45;&gt;n28</title>
<path fill="none" stroke="#64748b" d="M868.46,-448.78C798.17,-430.91 697.91,-397.58 626,-341.2 610.67,-329.18 617.45,-315.63 601,-305.2 585.52,-295.38 502.05,-281.57 424.92,-270.51"/>
<polygon fill="#64748b" stroke="#64748b" points="425.29,-268.09 418.02,-269.53 424.6,-272.94 425.29,-268.09"/>
</g>
<!-- n41&#45;&gt;n30 -->
<g id="edge74" class="edge">
<title>n41&#45;&gt;n30</title>
<path fill="none" stroke="#64748b" d="M948.03,-448.9C940.9,-418.99 924.74,-355.96 904,-305.2 900.1,-295.66 895.03,-285.58 890.28,-276.79"/>
<polygon fill="#64748b" stroke="#64748b" points="892.49,-275.72 886.95,-270.78 888.2,-278.09 892.49,-275.72"/>
</g>
<!-- n41&#45;&gt;n39 -->
<g id="edge75" class="edge">
<title>n41&#45;&gt;n39</title>
<path fill="none" stroke="#64748b" d="M814.1,-448.81C731.92,-438.44 627.66,-425.29 543.93,-414.73"/>
<polygon fill="#64748b" stroke="#64748b" points="544.39,-412.32 537.14,-413.88 543.78,-417.18 544.39,-412.32"/>
</g>
<!-- n41&#45;&gt;n40 -->
<g id="edge76" class="edge">
<title>n41&#45;&gt;n40</title>
<path fill="none" stroke="#64748b" d="M992.71,-448.72C1015.16,-439.08 1043.18,-427.04 1066.72,-416.93"/>
<polygon fill="#64748b" stroke="#64748b" points="1067.67,-419.19 1073.13,-414.18 1065.74,-414.69 1067.67,-419.19"/>
</g>
<!-- n42 -->
<g id="node34" class="node">
<title>n42</title>
<g id="a_node34"><a xlink:href="vscode://vscode-remote/wsl+Ubuntu/home/ai4stat/statlib/Statlib/HighDim/Concentration/HansonWright.lean:251" xlink:title="lemma · Statlib/HighDim/Concentration/HansonWright.lean:251" target="_blank">
<path fill="#eef2f6" stroke="#94a3b8" d="M1374.61,-196C1374.61,-196 1181.39,-196 1181.39,-196 1175.39,-196 1169.39,-190 1169.39,-184 1169.39,-184 1169.39,-172 1169.39,-172 1169.39,-166 1175.39,-160 1181.39,-160 1181.39,-160 1374.61,-160 1374.61,-160 1380.61,-160 1386.61,-166 1386.61,-172 1386.61,-172 1386.61,-184 1386.61,-184 1386.61,-190 1380.61,-196 1374.61,-196"/>
<text xml:space="preserve" text-anchor="middle" x="1278" y="-175" font-family="Helvetica,sans-Serif" font-size="10.00">offDiagCoeffVec_eq_zeroDiagMatrix_mulVec</text>
</a>
</g>
</g>
<!-- n42&#45;&gt;n3 -->
<g id="edge78" class="edge">
<title>n42&#45;&gt;n3</title>
<path fill="none" stroke="#64748b" d="M1386.69,-161.32C1482.27,-147.52 1610.44,-129 1644.21,-123.33"/>
<polygon fill="#64748b" stroke="#64748b" points="1644.23,-125.82 1650.66,-122.13 1643.33,-121 1644.23,-125.82"/>
</g>
<!-- n42&#45;&gt;n25 -->
<g id="edge77" class="edge">
<title>n42&#45;&gt;n25</title>
<path fill="none" stroke="#64748b" d="M1223.55,-159.52C1189.58,-148.61 1146.07,-134.64 1112.48,-123.85"/>
<polygon fill="#64748b" stroke="#64748b" points="1113.45,-121.59 1106.04,-121.78 1111.95,-126.26 1113.45,-121.59"/>
</g>
<!-- n43 -->
<g id="node35" class="node">
<title>n43</title>
<g id="a_node35"><a xlink:href="vscode://vscode-remote/wsl+Ubuntu/home/ai4stat/statlib/Statlib/HighDim/Concentration/HansonWright.lean:276" xlink:title="lemma · Statlib/HighDim/Concentration/HansonWright.lean:276" target="_blank">
<path fill="#eef2f6" stroke="#94a3b8" d="M1234.04,-269.2C1234.04,-269.2 1081.96,-269.2 1081.96,-269.2 1075.96,-269.2 1069.96,-263.2 1069.96,-257.2 1069.96,-257.2 1069.96,-245.2 1069.96,-245.2 1069.96,-239.2 1075.96,-233.2 1081.96,-233.2 1081.96,-233.2 1234.04,-233.2 1234.04,-233.2 1240.04,-233.2 1246.04,-239.2 1246.04,-245.2 1246.04,-245.2 1246.04,-257.2 1246.04,-257.2 1246.04,-263.2 1240.04,-269.2 1234.04,-269.2"/>
<text xml:space="preserve" text-anchor="middle" x="1158" y="-248.2" font-family="Helvetica,sans-Serif" font-size="10.00">offDiagCoeffVec_norm_le_zeroDiag</text>
</a>
</g>
</g>
<!-- n43&#45;&gt;n3 -->
<g id="edge80" class="edge">
<title>n43&#45;&gt;n3</title>
<path fill="none" stroke="#64748b" d="M1246.47,-234.15C1249.35,-233.8 1252.19,-233.48 1255,-233.2 1270.54,-231.63 1522.71,-233.41 1536,-225.2 1563.98,-207.92 1546.77,-182.24 1571,-160 1582.44,-149.5 1615.43,-135.53 1644.36,-124.57"/>
<polygon fill="#64748b" stroke="#64748b" points="1644.89,-126.99 1650.58,-122.24 1643.17,-122.4 1644.89,-126.99"/>
</g>
<!-- n43&#45;&gt;n25 -->
<g id="edge79" class="edge">
<title>n43&#45;&gt;n25</title>
<path fill="none" stroke="#64748b" d="M1157.11,-232.79C1155.36,-213.47 1150.21,-182.1 1135,-160 1126.54,-147.7 1114.24,-137.31 1102.03,-129.08"/>
<polygon fill="#64748b" stroke="#64748b" points="1103.37,-127.03 1096.16,-125.3 1100.72,-131.15 1103.37,-127.03"/>
</g>
<!-- n43&#45;&gt;n42 -->
<g id="edge81" class="edge">
<title>n43&#45;&gt;n42</title>
<path fill="none" stroke="#64748b" d="M1187.36,-232.78C1203.63,-223.13 1224.01,-211.04 1241.32,-200.76"/>
<polygon fill="#64748b" stroke="#64748b" points="1242.46,-202.94 1247.23,-197.26 1239.96,-198.72 1242.46,-202.94"/>
</g>
<!-- n44 -->
<g id="node36" class="node">
<title>n44</title>
<g id="a_node36"><a xlink:href="vscode://vscode-remote/wsl+Ubuntu/home/ai4stat/statlib/Statlib/HighDim/Vocabulary/QuadraticForms.lean:57" xlink:title="def · Statlib/HighDim/Vocabulary/QuadraticForms.lean:57" target="_blank">
<path fill="#d6e9ff" stroke="#3b82f6" d="M1525.23,-124C1525.23,-124 1468.77,-124 1468.77,-124 1462.77,-124 1456.77,-118 1456.77,-112 1456.77,-112 1456.77,-100 1456.77,-100 1456.77,-94 1462.77,-88 1468.77,-88 1468.77,-88 1525.23,-88 1525.23,-88 1531.23,-88 1537.23,-94 1537.23,-100 1537.23,-100 1537.23,-112 1537.23,-112 1537.23,-118 1531.23,-124 1525.23,-124"/>
<text xml:space="preserve" text-anchor="middle" x="1497" y="-103" font-family="Helvetica,sans-Serif" font-size="10.00">diagPartMatrix</text>
</a>
</g>
</g>
<!-- n45 -->
<g id="node37" class="node">
<title>n45</title>
<g id="a_node37"><a xlink:href="vscode://vscode-remote/wsl+Ubuntu/home/ai4stat/statlib/Statlib/HighDim/Concentration/HansonWright.lean:398" xlink:title="lemma · Statlib/HighDim/Concentration/HansonWright.lean:398" target="_blank">
<path fill="#eef2f6" stroke="#94a3b8" d="M1427.26,-124C1427.26,-124 1290.74,-124 1290.74,-124 1284.74,-124 1278.74,-118 1278.74,-112 1278.74,-112 1278.74,-100 1278.74,-100 1278.74,-94 1284.74,-88 1290.74,-88 1290.74,-88 1427.26,-88 1427.26,-88 1433.26,-88 1439.26,-94 1439.26,-100 1439.26,-100 1439.26,-112 1439.26,-112 1439.26,-118 1433.26,-124 1427.26,-124"/>
<text xml:space="preserve" text-anchor="middle" x="1359" y="-103" font-family="Helvetica,sans-Serif" font-size="10.00">matrix_entry_abs_le_l2_opNorm</text>
</a>
</g>
</g>
<!-- n46 -->
<g id="node38" class="node">
<title>n46</title>
<g id="a_node38"><a xlink:href="vscode://vscode-remote/wsl+Ubuntu/home/ai4stat/statlib/Statlib/HighDim/Concentration/HansonWright.lean:685" xlink:title="lemma · Statlib/HighDim/Concentration/HansonWright.lean:685" target="_blank">
<path fill="#eef2f6" stroke="#94a3b8" d="M1515.08,-196C1515.08,-196 1416.92,-196 1416.92,-196 1410.92,-196 1404.92,-190 1404.92,-184 1404.92,-184 1404.92,-172 1404.92,-172 1404.92,-166 1410.92,-160 1416.92,-160 1416.92,-160 1515.08,-160 1515.08,-160 1521.08,-160 1527.08,-166 1527.08,-172 1527.08,-172 1527.08,-184 1527.08,-184 1527.08,-190 1521.08,-196 1515.08,-196"/>
<text xml:space="preserve" text-anchor="middle" x="1466" y="-175" font-family="Helvetica,sans-Serif" font-size="10.00">diagPartMatrix_norm_le</text>
</a>
</g>
</g>
<!-- n46&#45;&gt;n44 -->
<g id="edge82" class="edge">
<title>n46&#45;&gt;n44</title>
<path fill="none" stroke="#64748b" d="M1473.66,-159.7C1477.38,-151.3 1481.91,-141.07 1485.99,-131.86"/>
<polygon fill="#64748b" stroke="#64748b" points="1488.22,-132.88 1488.81,-125.49 1483.74,-130.9 1488.22,-132.88"/>
</g>
<!-- n46&#45;&gt;n45 -->
<g id="edge83" class="edge">
<title>n46&#45;&gt;n45</title>
<path fill="none" stroke="#64748b" d="M1439.28,-159.52C1425,-150.18 1407.29,-138.59 1392.14,-128.68"/>
<polygon fill="#64748b" stroke="#64748b" points="1393.85,-126.87 1386.65,-125.09 1391.17,-130.97 1393.85,-126.87"/>
</g>
<!-- n47 -->
<g id="node39" class="node">
<title>n47</title>
<g id="a_node39"><a xlink:href="vscode://vscode-remote/wsl+Ubuntu/home/ai4stat/statlib/Statlib/HighDim/Concentration/HansonWright.lean:704" xlink:title="lemma · Statlib/HighDim/Concentration/HansonWright.lean:704" target="_blank">
<path fill="#eef2f6" stroke="#94a3b8" d="M1398.03,-269.2C1398.03,-269.2 1275.97,-269.2 1275.97,-269.2 1269.97,-269.2 1263.97,-263.2 1263.97,-257.2 1263.97,-257.2 1263.97,-245.2 1263.97,-245.2 1263.97,-239.2 1269.97,-233.2 1275.97,-233.2 1275.97,-233.2 1398.03,-233.2 1398.03,-233.2 1404.03,-233.2 1410.03,-239.2 1410.03,-245.2 1410.03,-245.2 1410.03,-257.2 1410.03,-257.2 1410.03,-263.2 1404.03,-269.2 1398.03,-269.2"/>
<text xml:space="preserve" text-anchor="middle" x="1337" y="-248.2" font-family="Helvetica,sans-Serif" font-size="10.00">zeroDiagMatrix_norm_le_two</text>
</a>
</g>
</g>
<!-- n47&#45;&gt;n3 -->
<g id="edge84" class="edge">
<title>n47&#45;&gt;n3</title>
<path fill="none" stroke="#64748b" d="M1410.46,-235.1C1415.03,-234.39 1419.57,-233.75 1424,-233.2 1440.23,-231.18 1557.47,-234.4 1571,-225.2 1597.38,-207.27 1579.44,-183.51 1601,-160 1613.09,-146.82 1629.23,-136.05 1644.67,-127.76"/>
<polygon fill="#64748b" stroke="#64748b" points="1645.74,-129.96 1650.83,-124.57 1643.49,-125.61 1645.74,-129.96"/>
</g>
<!-- n47&#45;&gt;n44 -->
<g id="edge85" class="edge">
<title>n47&#45;&gt;n44</title>
<path fill="none" stroke="#64748b" d="M1410.47,-235.19C1415.04,-234.46 1419.58,-233.79 1424,-233.2 1436.37,-231.56 1527.5,-234.33 1536,-225.2 1555.75,-203.99 1545.04,-187.53 1536,-160 1532.57,-149.55 1526.2,-139.47 1519.6,-130.95"/>
<polygon fill="#64748b" stroke="#64748b" points="1521.59,-129.51 1515.26,-125.65 1517.8,-132.62 1521.59,-129.51"/>
</g>
<!-- n47&#45;&gt;n46 -->
<g id="edge86" class="edge">
<title>n47&#45;&gt;n46</title>
<path fill="none" stroke="#64748b" d="M1380.6,-232.79C1385.86,-230.38 1391.1,-227.83 1396,-225.2 1409.3,-218.07 1423.31,-209.14 1435.27,-201.03"/>
<polygon fill="#64748b" stroke="#64748b" points="1436.42,-203.22 1440.8,-197.23 1433.65,-199.18 1436.42,-203.22"/>
</g>
<!-- n48 -->
<g id="node40" class="node">
<title>n48</title>
<g id="a_node40"><a xlink:href="vscode://vscode-remote/wsl+Ubuntu/home/ai4stat/statlib/Statlib/HighDim/Concentration/HansonWright.lean:733" xlink:title="lemma · Statlib/HighDim/Concentration/HansonWright.lean:733" target="_blank">
<path fill="#eef2f6" stroke="#94a3b8" d="M1376.25,-341.2C1376.25,-341.2 1269.75,-341.2 1269.75,-341.2 1263.75,-341.2 1257.75,-335.2 1257.75,-329.2 1257.75,-329.2 1257.75,-317.2 1257.75,-317.2 1257.75,-311.2 1263.75,-305.2 1269.75,-305.2 1269.75,-305.2 1376.25,-305.2 1376.25,-305.2 1382.25,-305.2 1388.25,-311.2 1388.25,-317.2 1388.25,-317.2 1388.25,-329.2 1388.25,-329.2 1388.25,-335.2 1382.25,-341.2 1376.25,-341.2"/>
<text xml:space="preserve" text-anchor="middle" x="1323" y="-320.2" font-family="Helvetica,sans-Serif" font-size="10.00">offDiagCoeffVec_norm_le</text>
</a>
</g>
</g>
<!-- n48&#45;&gt;n3 -->
<g id="edge88" class="edge">
<title>n48&#45;&gt;n3</title>
<path fill="none" stroke="#64748b" d="M1354.29,-304.81C1392.93,-284.18 1461.25,-250.42 1524,-233.2 1552.92,-225.26 1565.32,-240.69 1591,-225.2 1621.15,-207.01 1612.86,-186.53 1636,-160 1645.28,-149.36 1656.54,-138.66 1666.66,-129.68"/>
<polygon fill="#64748b" stroke="#64748b" points="1667.98,-131.78 1671.64,-125.33 1664.76,-128.09 1667.98,-131.78"/>
</g>
<!-- n48&#45;&gt;n25 -->
<g id="edge87" class="edge">
<title>n48&#45;&gt;n25</title>
<path fill="none" stroke="#64748b" d="M1257.35,-318.18C1188,-312.41 1085.35,-298.97 1061,-269.2 1050.87,-256.82 1050.55,-245.31 1061,-233.2 1076.85,-214.83 1099.15,-243.57 1115,-225.2 1133.93,-203.26 1126.34,-186.67 1115,-160 1110.07,-148.4 1101.22,-138.11 1092.03,-129.75"/>
<polygon fill="#64748b" stroke="#64748b" points="1093.72,-127.97 1086.82,-125.27 1090.53,-131.69 1093.72,-127.97"/>
</g>
<!-- n48&#45;&gt;n43 -->
<g id="edge89" class="edge">
<title>n48&#45;&gt;n43</title>
<path fill="none" stroke="#64748b" d="M1281.79,-304.72C1258.96,-295.03 1230.46,-282.94 1206.56,-272.8"/>
<polygon fill="#64748b" stroke="#64748b" points="1207.77,-270.65 1200.36,-270.17 1205.85,-275.16 1207.77,-270.65"/>
</g>
<!-- n48&#45;&gt;n47 -->
<g id="edge90" class="edge">
<title>n48&#45;&gt;n47</title>
<path fill="none" stroke="#64748b" d="M1326.46,-304.9C1328.11,-296.67 1330.1,-286.68 1331.92,-277.62"/>
<polygon fill="#64748b" stroke="#64748b" points="1334.31,-278.13 1333.28,-270.79 1329.51,-277.17 1334.31,-278.13"/>
</g>
<!-- n49 -->
<g id="node41" class="node">
<title>n49</title>
<g id="a_node41"><a xlink:href="vscode://vscode-remote/wsl+Ubuntu/home/ai4stat/statlib/Statlib/HighDim/Concentration/HansonWright.lean:752" xlink:title="lemma · Statlib/HighDim/Concentration/HansonWright.lean:752" target="_blank">
<path fill="#eef2f6" stroke="#94a3b8" d="M1384.31,-413.2C1384.31,-413.2 1261.69,-413.2 1261.69,-413.2 1255.69,-413.2 1249.69,-407.2 1249.69,-401.2 1249.69,-401.2 1249.69,-389.2 1249.69,-389.2 1249.69,-383.2 1255.69,-377.2 1261.69,-377.2 1261.69,-377.2 1384.31,-377.2 1384.31,-377.2 1390.31,-377.2 1396.31,-383.2 1396.31,-389.2 1396.31,-389.2 1396.31,-401.2 1396.31,-401.2 1396.31,-407.2 1390.31,-413.2 1384.31,-413.2"/>
<text xml:space="preserve" text-anchor="middle" x="1323" y="-392.2" font-family="Helvetica,sans-Serif" font-size="10.00">offDiagCoeffVec_norm_sq_le</text>
</a>
</g>
</g>
<!-- n49&#45;&gt;n25 -->
<g id="edge91" class="edge">
<title>n49&#45;&gt;n25</title>
<path fill="none" stroke="#64748b" d="M1267.36,-376.75C1194.74,-352.72 1073.95,-308.01 1049,-269.2 1040.35,-255.74 1038.7,-245.44 1049,-233.2 1062.36,-217.32 1081.64,-241.08 1095,-225.2 1117.67,-198.25 1096.74,-157.12 1078.89,-131.17"/>
<polygon fill="#64748b" stroke="#64748b" points="1080.92,-129.78 1074.86,-125.5 1076.93,-132.63 1080.92,-129.78"/>
</g>
<!-- n49&#45;&gt;n48 -->
<g id="edge92" class="edge">
<title>n49&#45;&gt;n48</title>
<path fill="none" stroke="#64748b" d="M1323,-376.9C1323,-368.67 1323,-358.68 1323,-349.62"/>
<polygon fill="#64748b" stroke="#64748b" points="1325.45,-349.82 1323,-342.82 1320.55,-349.82 1325.45,-349.82"/>
</g>
<!-- n50 -->
<g id="node42" class="node">
<title>n50</title>
<g id="a_node42"><a xlink:href="vscode://vscode-remote/wsl+Ubuntu/home/ai4stat/statlib/Statlib/HighDim/Concentration/HansonWright.lean:1170" xlink:title="lemma · Statlib/HighDim/Concentration/HansonWright.lean:1170" target="_blank">
<path fill="#eef2f6" stroke="#94a3b8" d="M1327.72,-485.2C1327.72,-485.2 1142.28,-485.2 1142.28,-485.2 1136.28,-485.2 1130.28,-479.2 1130.28,-473.2 1130.28,-473.2 1130.28,-461.2 1130.28,-461.2 1130.28,-455.2 1136.28,-449.2 1142.28,-449.2 1142.28,-449.2 1327.72,-449.2 1327.72,-449.2 1333.72,-449.2 1339.72,-455.2 1339.72,-461.2 1339.72,-461.2 1339.72,-473.2 1339.72,-473.2 1339.72,-479.2 1333.72,-485.2 1327.72,-485.2"/>
<text xml:space="preserve" text-anchor="middle" x="1235" y="-464.2" font-family="Helvetica,sans-Serif" font-size="10.00">offDiagCoeffVec_norm_sq_tail_le_norm_sq</text>
</a>
</g>
</g>
<!-- n50&#45;&gt;n25 -->
<g id="edge93" class="edge">
<title>n50&#45;&gt;n25</title>
<path fill="none" stroke="#64748b" d="M1237.37,-448.83C1239.05,-429.01 1238.49,-396.81 1221,-377.2 1181.09,-332.46 1140.37,-375.21 1091,-341.2 1058.28,-318.66 1050.4,-306.95 1038,-269.2 1033.01,-254 1028.15,-245.81 1038,-233.2 1047.02,-221.64 1060.98,-236.76 1070,-225.2 1090.67,-198.72 1080.94,-157.99 1071.16,-131.93"/>
<polygon fill="#64748b" stroke="#64748b" points="1073.57,-131.36 1068.71,-125.75 1069.01,-133.16 1073.57,-131.36"/>
</g>
<!-- n50&#45;&gt;n49 -->
<g id="edge94" class="edge">
<title>n50&#45;&gt;n49</title>
<path fill="none" stroke="#64748b" d="M1256.75,-448.9C1268.18,-439.81 1282.31,-428.56 1294.59,-418.8"/>
<polygon fill="#64748b" stroke="#64748b" points="1296.05,-420.76 1300.01,-414.49 1293,-416.93 1296.05,-420.76"/>
</g>
<!-- n51 -->
<g id="node43" class="node">
<title>n51</title>
<g id="a_node43"><a xlink:href="vscode://vscode-remote/wsl+Ubuntu/home/ai4stat/statlib/Statlib/HighDim/Concentration/HansonWright.lean:1202" xlink:title="lemma · Statlib/HighDim/Concentration/HansonWright.lean:1202" target="_blank">
<path fill="#eef2f6" stroke="#94a3b8" d="M1374.71,-557.2C1374.71,-557.2 1095.29,-557.2 1095.29,-557.2 1089.29,-557.2 1083.29,-551.2 1083.29,-545.2 1083.29,-545.2 1083.29,-533.2 1083.29,-533.2 1083.29,-527.2 1089.29,-521.2 1095.29,-521.2 1095.29,-521.2 1374.71,-521.2 1374.71,-521.2 1380.71,-521.2 1386.71,-527.2 1386.71,-533.2 1386.71,-533.2 1386.71,-545.2 1386.71,-545.2 1386.71,-551.2 1380.71,-557.2 1374.71,-557.2"/>
<text xml:space="preserve" text-anchor="middle" x="1235" y="-536.2" font-family="Helvetica,sans-Serif" font-size="10.00">decoupledOffDiagQuadForm_prod_tail_le_norm_bad_plus_good</text>
</a>
</g>
</g>
<!-- n51&#45;&gt;n0 -->
<g id="edge95" class="edge">
<title>n51&#45;&gt;n0</title>
<path fill="none" stroke="#64748b" d="M1285.62,-520.74C1306.53,-512.04 1330.22,-500.16 1349,-485.2 1380.71,-459.95 1381.51,-446.24 1405,-413.2 1438.15,-366.58 1427.58,-337.19 1475,-305.2 1544.8,-258.11 1581.86,-297.95 1661,-269.2 1692.04,-257.92 1696.66,-248.35 1726,-233.2 1748.13,-221.78 1773.05,-209.74 1793.86,-199.91"/>
<polygon fill="#64748b" stroke="#64748b" points="1794.66,-202.24 1799.95,-197.04 1792.57,-197.81 1794.66,-202.24"/>
</g>
<!-- n51&#45;&gt;n4 -->
<g id="edge96" class="edge">
<title>n51&#45;&gt;n4</title>
<path fill="none" stroke="#64748b" d="M1083.15,-533.14C835.12,-522.66 355.88,-492.55 208,-413.2 133.83,-373.4 116.8,-347.13 85,-269.2 54.51,-194.5 58.81,-159.6 96,-88 101.74,-76.95 110.5,-66.63 119.16,-58.09"/>
<polygon fill="#64748b" stroke="#64748b" points="120.6,-60.1 123.99,-53.51 117.23,-56.54 120.6,-60.1"/>
</g>
<!-- n51&#45;&gt;n41 -->
<g id="edge97" class="edge">
<title>n51&#45;&gt;n41</title>
<path fill="none" stroke="#64748b" d="M1164.32,-520.72C1123.64,-510.66 1072.45,-497.99 1030.53,-487.62"/>
<polygon fill="#64748b" stroke="#64748b" points="1031.12,-485.25 1023.74,-485.95 1029.95,-490 1031.12,-485.25"/>
</g>
<!-- n51&#45;&gt;n50 -->
<g id="edge98" class="edge">
<title>n51&#45;&gt;n50</title>
<path fill="none" stroke="#64748b" d="M1235,-520.9C1235,-512.67 1235,-502.68 1235,-493.62"/>
<polygon fill="#64748b" stroke="#64748b" points="1237.45,-493.82 1235,-486.82 1232.55,-493.82 1237.45,-493.82"/>
</g>
<!-- n52 -->
<g id="node44" class="node">
<title>n52</title>
<g id="a_node44"><a xlink:href="vscode://vscode-remote/wsl+Ubuntu/home/ai4stat/statlib/Statlib/HighDim/Concentration/HansonWright.lean:2517" xlink:title="lemma · Statlib/HighDim/Concentration/HansonWright.lean:2517" target="_blank">
<path fill="#eef2f6" stroke="#94a3b8" d="M1649.17,-629.2C1649.17,-629.2 1310.83,-629.2 1310.83,-629.2 1304.83,-629.2 1298.83,-623.2 1298.83,-617.2 1298.83,-617.2 1298.83,-605.2 1298.83,-605.2 1298.83,-599.2 1304.83,-593.2 1310.83,-593.2 1310.83,-593.2 1649.17,-593.2 1649.17,-593.2 1655.17,-593.2 1661.17,-599.2 1661.17,-605.2 1661.17,-605.2 1661.17,-617.2 1661.17,-617.2 1661.17,-623.2 1655.17,-629.2 1649.17,-629.2"/>
<text xml:space="preserve" text-anchor="middle" x="1480" y="-608.2" font-family="Helvetica,sans-Serif" font-size="10.00">decoupledOffDiagQuadForm_prod_tail_le_norm_bernstein_plus_good_ofReal</text>
</a>
</g>
</g>
<!-- n52&#45;&gt;n0 -->
<g id="edge99" class="edge">
<title>n52&#45;&gt;n0</title>
<path fill="none" stroke="#64748b" d="M1480,-592.71C1480,-565.91 1480,-513.07 1480,-468.2 1480,-468.2 1480,-468.2 1480,-394.2 1480,-354.4 1462.69,-334.16 1490,-305.2 1554.67,-236.62 1615.01,-311.98 1699,-269.2 1719.44,-258.79 1717.43,-246.68 1736,-233.2 1753.47,-220.52 1774.29,-208.98 1792.63,-199.84"/>
<polygon fill="#64748b" stroke="#64748b" points="1793.22,-202.28 1798.43,-197 1791.06,-197.88 1793.22,-202.28"/>
</g>
<!-- n52&#45;&gt;n4 -->
<g id="edge100" class="edge">
<title>n52&#45;&gt;n4</title>
<path fill="none" stroke="#64748b" d="M1298.52,-608.63C1065.32,-602.6 649.83,-578.23 308,-485.2 161.13,-445.23 57,-404.41 57,-252.2 57,-252.2 57,-252.2 57,-177 57,-136.64 53.29,-122.02 75,-88 82.89,-75.64 94.76,-65.18 106.59,-56.91"/>
<polygon fill="#64748b" stroke="#64748b" points="107.8,-59.05 112.27,-53.13 105.09,-54.97 107.8,-59.05"/>
</g>
<!-- n52&#45;&gt;n24 -->
<g id="edge101" class="edge">
<title>n52&#45;&gt;n24</title>
<path fill="none" stroke="#64748b" d="M1512.97,-592.72C1530.9,-583.21 1553.22,-571.37 1572.12,-561.35"/>
<polygon fill="#64748b" stroke="#64748b" points="1573.08,-563.61 1578.11,-558.17 1570.78,-559.28 1573.08,-563.61"/>
</g>
<!-- n52&#45;&gt;n51 -->
<g id="edge102" class="edge">
<title>n52&#45;&gt;n51</title>
<path fill="none" stroke="#64748b" d="M1418.81,-592.72C1383.89,-582.74 1340.02,-570.2 1303.89,-559.88"/>
<polygon fill="#64748b" stroke="#64748b" points="1304.7,-557.56 1297.29,-558 1303.35,-562.28 1304.7,-557.56"/>
</g>
<!-- n53 -->
<g id="node45" class="node">
<title>n53</title>
<g id="a_node45"><a xlink:href="vscode://vscode-remote/wsl+Ubuntu/home/ai4stat/statlib/Statlib/HighDim/Concentration/HansonWright.lean:2592" xlink:title="lemma · Statlib/HighDim/Concentration/HansonWright.lean:2592" target="_blank">
<path fill="#eef2f6" stroke="#94a3b8" d="M1662.93,-701.2C1662.93,-701.2 1389.07,-701.2 1389.07,-701.2 1383.07,-701.2 1377.07,-695.2 1377.07,-689.2 1377.07,-689.2 1377.07,-677.2 1377.07,-677.2 1377.07,-671.2 1383.07,-665.2 1389.07,-665.2 1389.07,-665.2 1662.93,-665.2 1662.93,-665.2 1668.93,-665.2 1674.93,-671.2 1674.93,-677.2 1674.93,-677.2 1674.93,-689.2 1674.93,-689.2 1674.93,-695.2 1668.93,-701.2 1662.93,-701.2"/>
<text xml:space="preserve" text-anchor="middle" x="1526" y="-680.2" font-family="Helvetica,sans-Serif" font-size="10.00">decoupled_zeroDiag_quadratic_form_tail_high_norm_bernstein</text>
</a>
</g>
</g>
<!-- n53&#45;&gt;n0 -->
<g id="edge103" class="edge">
<title>n53&#45;&gt;n0</title>
<path fill="none" stroke="#64748b" d="M1376.73,-666.04C1373.8,-665.76 1370.88,-665.48 1368,-665.2 1222.33,-651.3 57,-686.53 57,-540.2 57,-540.2 57,-540.2 57,-466.2 57,-362.78 129.63,-345.2 225,-305.2 347.4,-253.86 1297.53,-322.69 1419,-269.2 1439.42,-260.21 1433.58,-242.2 1454,-233.2 1480.45,-221.54 1685.63,-230.73 1714,-225.2 1741.34,-219.87 1770.61,-209.34 1793.95,-199.67"/>
<polygon fill="#64748b" stroke="#64748b" points="1794.73,-202 1800.23,-197.03 1792.83,-197.49 1794.73,-202"/>
</g>
<!-- n53&#45;&gt;n4 -->
<g id="edge104" class="edge">
<title>n53&#45;&gt;n4</title>
<path fill="none" stroke="#64748b" d="M1376.75,-665.83C1373.81,-665.61 1370.89,-665.4 1368,-665.2 1231.15,-655.86 261.49,-679.81 134,-629.2 79.62,-607.61 37,-598.71 37,-540.2 37,-540.2 37,-540.2 37,-177 37,-136.64 31.43,-120.75 55,-88 64.54,-74.75 78.49,-64.32 92.65,-56.36"/>
<polygon fill="#64748b" stroke="#64748b" points="93.7,-58.58 98.72,-53.12 91.39,-54.25 93.7,-58.58"/>
</g>
<!-- n53&#45;&gt;n52 -->
<g id="edge105" class="edge">
<title>n53&#45;&gt;n52</title>
<path fill="none" stroke="#64748b" d="M1514.63,-664.9C1508.95,-656.25 1501.98,-645.65 1495.79,-636.23"/>
<polygon fill="#64748b" stroke="#64748b" points="1497.96,-635.07 1492.07,-630.57 1493.87,-637.76 1497.96,-635.07"/>
</g>
<!-- n54 -->
<g id="node46" class="node">
<title>n54</title>
<g id="a_node46"><a xlink:href="vscode://vscode-remote/wsl+Ubuntu/home/ai4stat/statlib/Statlib/HighDim/Concentration/HansonWright.lean:3154" xlink:title="theorem · Statlib/HighDim/Concentration/HansonWright.lean:3154" target="_blank">
<path fill="#ffe6a3" stroke="#d4a017" d="M1907.23,-773.2C1907.23,-773.2 1572.77,-773.2 1572.77,-773.2 1566.77,-773.2 1560.77,-767.2 1560.77,-761.2 1560.77,-761.2 1560.77,-749.2 1560.77,-749.2 1560.77,-743.2 1566.77,-737.2 1572.77,-737.2 1572.77,-737.2 1907.23,-737.2 1907.23,-737.2 1913.23,-737.2 1919.23,-743.2 1919.23,-749.2 1919.23,-749.2 1919.23,-761.2 1919.23,-761.2 1919.23,-767.2 1913.23,-773.2 1907.23,-773.2"/>
<text xml:space="preserve" text-anchor="middle" x="1740" y="-752.2" font-family="Helvetica,sans-Serif" font-size="10.00">zeroDiag_centered_quadratic_form_tail_high_norm_bernstein_of_decoupling</text>
</a>
</g>
</g>
<!-- n54&#45;&gt;n0 -->
<g id="edge106" class="edge">
<title>n54&#45;&gt;n0</title>
<path fill="none" stroke="#64748b" d="M1740,-736.71C1740,-709.91 1740,-657.07 1740,-612.2 1740,-612.2 1740,-612.2 1740,-394.2 1740,-354.09 1726.24,-333.16 1755,-305.2 1838.02,-224.5 1937,-356.54 2013,-269.2 2023.5,-257.13 2023.91,-244.91 2013,-233.2 2004.42,-223.99 1911.78,-229.63 1900,-225.2 1886.3,-220.05 1873.1,-210.78 1862.5,-201.89"/>
<polygon fill="#64748b" stroke="#64748b" points="1864.28,-200.19 1857.4,-197.44 1861.06,-203.89 1864.28,-200.19"/>
</g>
<!-- n54&#45;&gt;n2 -->
<g id="edge107" class="edge">
<title>n54&#45;&gt;n2</title>
<path fill="none" stroke="#64748b" d="M1560.66,-738.22C1498.89,-730.2 1429.74,-718.4 1368,-701.2 1367.73,-701.12 1367.45,-701.05 1367.18,-700.97"/>
<polygon fill="#64748b" stroke="#64748b" points="1368.02,-698.66 1360.6,-698.82 1366.5,-703.32 1368.02,-698.66"/>
</g>
<!-- n54&#45;&gt;n3 -->
<g id="edge108" class="edge">
<title>n54&#45;&gt;n3</title>
<path fill="none" stroke="#64748b" d="M1803.6,-736.72C1955.78,-690.76 2325.57,-552.7 2287,-305.2 2281.83,-272.01 2288.09,-256.61 2264,-233.2 2189.57,-160.87 1869.44,-123.5 1744.36,-111.45"/>
<polygon fill="#64748b" stroke="#64748b" points="1744.76,-109.02 1737.56,-110.8 1744.29,-113.9 1744.76,-109.02"/>
</g>
<!-- n54&#45;&gt;n4 -->
<g id="edge109" class="edge">
<title>n54&#45;&gt;n4</title>
<path fill="none" stroke="#64748b" d="M1829.02,-736.72C1867.97,-727.91 1913.85,-715.94 1954,-701.2 2133.97,-635.13 2317,-659.91 2317,-468.2 2317,-468.2 2317,-468.2 2317,-177 2317,-24.37 1288.18,-73.37 648,-52 499.67,-47.05 326.65,-41.15 227.64,-37.76"/>
<polygon fill="#64748b" stroke="#64748b" points="227.77,-35.32 220.69,-37.53 227.6,-40.21 227.77,-35.32"/>
</g>
<!-- n54&#45;&gt;n53 -->
<g id="edge110" class="edge">
<title>n54&#45;&gt;n53</title>
<path fill="none" stroke="#64748b" d="M1686.55,-736.72C1656.31,-726.82 1618.37,-714.42 1586.97,-704.14"/>
<polygon fill="#64748b" stroke="#64748b" points="1587.99,-701.9 1580.58,-702.05 1586.47,-706.56 1587.99,-701.9"/>
</g>
<!-- n55 -->
<g id="node47" class="node">
<title>n55</title>
<g id="a_node47"><a xlink:href="vscode://vscode-remote/wsl+Ubuntu/home/ai4stat/statlib/Statlib/HighDim/Concentration/HansonWright.lean:3387" xlink:title="theorem · Statlib/HighDim/Concentration/HansonWright.lean:3387" target="_blank">
<path fill="#ffe6a3" stroke="#d4a017" stroke-width="3" d="M1826.29,-845.2C1826.29,-845.2 1455.71,-845.2 1455.71,-845.2 1449.71,-845.2 1443.71,-839.2 1443.71,-833.2 1443.71,-833.2 1443.71,-821.2 1443.71,-821.2 1443.71,-815.2 1449.71,-809.2 1455.71,-809.2 1455.71,-809.2 1826.29,-809.2 1826.29,-809.2 1832.29,-809.2 1838.29,-815.2 1838.29,-821.2 1838.29,-821.2 1838.29,-833.2 1838.29,-833.2 1838.29,-839.2 1832.29,-845.2 1826.29,-845.2"/>
<text xml:space="preserve" text-anchor="middle" x="1641" y="-824.2" font-family="Helvetica,sans-Serif" font-size="10.00">zeroDiag_centered_quadratic_form_tail_high_of_decoupling_norm_bernstein_absorb</text>
</a>
</g>
</g>
<!-- n55&#45;&gt;n0 -->
<g id="edge111" class="edge">
<title>n55&#45;&gt;n0</title>
<path fill="none" stroke="#64748b" d="M1819.66,-807.7C1867.01,-799.66 1909.98,-788.48 1928,-773.2 1953.95,-751.19 1948.13,-734.71 1954,-701.2 1973.24,-591.28 1870.66,-587.46 1826,-485.2 1793.92,-411.75 1761.73,-365.08 1815,-305.2 1877.07,-235.43 1961.89,-340.66 2022,-269.2 2032.3,-256.96 2032.94,-244.88 2022,-233.2 2012.71,-223.28 1912.73,-229.95 1900,-225.2 1886.29,-220.09 1873.09,-210.82 1862.49,-201.93"/>
<polygon fill="#64748b" stroke="#64748b" points="1864.27,-200.23 1857.39,-197.47 1861.05,-203.92 1864.27,-200.23"/>
</g>
<!-- n55&#45;&gt;n1 -->
<g id="edge112" class="edge">
<title>n55&#45;&gt;n1</title>
<path fill="none" stroke="#64748b" d="M1597.65,-807.81C1575.26,-798.31 1547.86,-786.69 1524.74,-776.88"/>
<polygon fill="#64748b" stroke="#64748b" points="1525.87,-774.7 1518.47,-774.22 1523.96,-779.21 1525.87,-774.7"/>
</g>
<!-- n55&#45;&gt;n2 -->
<g id="edge113" class="edge">
<title>n55&#45;&gt;n2</title>
<path fill="none" stroke="#64748b" d="M1600.17,-807.76C1583.81,-798.96 1565.65,-787.27 1552,-773.2 1539.25,-760.06 1546.68,-748.13 1532,-737.2 1472.14,-692.64 1439.09,-723.89 1368,-701.2 1367.73,-701.11 1367.46,-701.03 1367.19,-700.94"/>
<polygon fill="#64748b" stroke="#64748b" points="1368.08,-698.65 1360.66,-698.63 1366.44,-703.27 1368.08,-698.65"/>
</g>
<!-- n55&#45;&gt;n3 -->
<g id="edge114" class="edge">
<title>n55&#45;&gt;n3</title>
<path fill="none" stroke="#64748b" d="M1839.51,-823.81C2045.23,-815.79 2337,-786.4 2337,-684.2 2337,-684.2 2337,-684.2 2337,-250.2 2337,-128.84 1895.05,-110.28 1743.95,-107.48"/>
<polygon fill="#64748b" stroke="#64748b" points="1744.25,-105.04 1737.21,-107.37 1744.16,-109.94 1744.25,-105.04"/>
</g>
<!-- n55&#45;&gt;n4 -->
<g id="edge115" class="edge">
<title>n55&#45;&gt;n4</title>
<path fill="none" stroke="#64748b" d="M1442.27,-818.96C1008.83,-801.85 17,-754.98 17,-684.2 17,-684.2 17,-684.2 17,-177 17,-136.73 9.29,-119.8 34,-88 44.84,-74.05 60.23,-63.61 76.18,-55.86"/>
<polygon fill="#64748b" stroke="#64748b" points="76.81,-58.26 82.15,-53.12 74.77,-53.81 76.81,-58.26"/>
</g>
<!-- n55&#45;&gt;n54 -->
<g id="edge116" class="edge">
<title>n55&#45;&gt;n54</title>
<path fill="none" stroke="#64748b" d="M1667.01,-807.81C1679.79,-798.77 1695.29,-787.81 1708.72,-778.32"/>
<polygon fill="#64748b" stroke="#64748b" points="1709.99,-780.42 1714.29,-774.38 1707.16,-776.42 1709.99,-780.42"/>
</g>
<!-- n13 -->
<g id="node50" class="node">
<title>n13</title>
<g id="a_node50"><a xlink:href="vscode://vscode-remote/wsl+Ubuntu/home/ai4stat/statlib/Statlib/StatFoundation/RandomVariable/SubGaussian/subgaussian_meas_abs_ge_le_two_exp.lean:9" xlink:title="theorem · Statlib/StatFoundation/RandomVariable/SubGaussian/subgaussian_meas_abs_ge_le_two_exp.lean:9" target="_blank">
<path fill="#ffe6a3" stroke="#d4a017" d="M2833.34,-52C2833.34,-52 2660.66,-52 2660.66,-52 2654.66,-52 2648.66,-46 2648.66,-40 2648.66,-40 2648.66,-28 2648.66,-28 2648.66,-22 2654.66,-16 2660.66,-16 2660.66,-16 2833.34,-16 2833.34,-16 2839.34,-16 2845.34,-22 2845.34,-28 2845.34,-28 2845.34,-40 2845.34,-40 2845.34,-46 2839.34,-52 2833.34,-52"/>
<text xml:space="preserve" text-anchor="middle" x="2747" y="-31" font-family="Helvetica,sans-Serif" font-size="10.00">subgaussian_meas_abs_ge_le_two_exp</text>
</a>
</g>
</g>
<!-- n14&#45;&gt;n13 -->
<g id="edge12" class="edge">
<title>n14&#45;&gt;n13</title>
<path fill="none" stroke="#64748b" d="M2875.29,-87.52C2851.64,-77.83 2822.09,-65.74 2797.32,-55.6"/>
<polygon fill="#64748b" stroke="#64748b" points="2798.27,-53.34 2790.86,-52.96 2796.41,-57.87 2798.27,-53.34"/>
</g>
<!-- n16 -->
<g id="node52" class="node">
<title>n16</title>
<g id="a_node52"><a xlink:href="vscode://vscode-remote/wsl+Ubuntu/home/ai4stat/statlib/Statlib/StatFoundation/RandomVariable/SubExponential/subexp_mgf_le_of_sq_subgaussian.lean:13" xlink:title="lemma · Statlib/StatFoundation/RandomVariable/SubExponential/subexp_mgf_le_of_sq_subgaussian.lean:13" target="_blank">
<path fill="#eef2f6" stroke="#94a3b8" d="M2454.2,-124C2454.2,-124 2373.8,-124 2373.8,-124 2367.8,-124 2361.8,-118 2361.8,-112 2361.8,-112 2361.8,-100 2361.8,-100 2361.8,-94 2367.8,-88 2373.8,-88 2373.8,-88 2454.2,-88 2454.2,-88 2460.2,-88 2466.2,-94 2466.2,-100 2466.2,-100 2466.2,-112 2466.2,-112 2466.2,-118 2460.2,-124 2454.2,-124"/>
<text xml:space="preserve" text-anchor="middle" x="2414" y="-103" font-family="Helvetica,sans-Serif" font-size="10.00">sub_gauss_tail_abs</text>
</a>
</g>
</g>
<!-- n17 -->
<g id="node53" class="node">
<title>n17</title>
<g id="a_node53"><a xlink:href="vscode://vscode-remote/wsl+Ubuntu/home/ai4stat/statlib/Statlib/StatFoundation/RandomVariable/SubGaussian/sq_le_two_mul_exp.lean:10" xlink:title="lemma · Statlib/StatFoundation/RandomVariable/SubGaussian/sq_le_two_mul_exp.lean:10" target="_blank">
<path fill="#eef2f6" stroke="#94a3b8" d="M2778.19,-124C2778.19,-124 2697.81,-124 2697.81,-124 2691.81,-124 2685.81,-118 2685.81,-112 2685.81,-112 2685.81,-100 2685.81,-100 2685.81,-94 2691.81,-88 2697.81,-88 2697.81,-88 2778.19,-88 2778.19,-88 2784.19,-88 2790.19,-94 2790.19,-100 2790.19,-100 2790.19,-112 2790.19,-112 2790.19,-118 2784.19,-124 2778.19,-124"/>
<text xml:space="preserve" text-anchor="middle" x="2738" y="-103" font-family="Helvetica,sans-Serif" font-size="10.00">sq_le_two_mul_exp</text>
</a>
</g>
</g>
<!-- n18 -->
<g id="node54" class="node">
<title>n18</title>
<g id="a_node54"><a xlink:href="vscode://vscode-remote/wsl+Ubuntu/home/ai4stat/statlib/Statlib/StatFoundation/RandomVariable/SubGaussian/subgaussian_exp_sq_le_at_one_third.lean:14" xlink:title="theorem · Statlib/StatFoundation/RandomVariable/SubGaussian/subgaussian_exp_sq_le_at_one_third.lean:14" target="_blank">
<path fill="#ffe6a3" stroke="#d4a017" d="M2656.23,-124C2656.23,-124 2495.77,-124 2495.77,-124 2489.77,-124 2483.77,-118 2483.77,-112 2483.77,-112 2483.77,-100 2483.77,-100 2483.77,-94 2489.77,-88 2495.77,-88 2495.77,-88 2656.23,-88 2656.23,-88 2662.23,-88 2668.23,-94 2668.23,-100 2668.23,-100 2668.23,-112 2668.23,-112 2668.23,-118 2662.23,-124 2656.23,-124"/>
<text xml:space="preserve" text-anchor="middle" x="2576" y="-103" font-family="Helvetica,sans-Serif" font-size="10.00">subgaussian_exp_sq_le_at_one_third</text>
</a>
</g>
</g>
<!-- n18&#45;&gt;n13 -->
<g id="edge16" class="edge">
<title>n18&#45;&gt;n13</title>
<path fill="none" stroke="#64748b" d="M2618.71,-87.52C2642.36,-77.83 2671.91,-65.74 2696.68,-55.6"/>
<polygon fill="#64748b" stroke="#64748b" points="2697.59,-57.87 2703.14,-52.96 2695.73,-53.34 2697.59,-57.87"/>
</g>
<!-- n19&#45;&gt;n14 -->
<g id="edge20" class="edge">
<title>n19&#45;&gt;n14</title>
<path fill="none" stroke="#64748b" d="M2689.93,-159.52C2733.81,-149.41 2789.09,-136.68 2834.23,-126.29"/>
<polygon fill="#64748b" stroke="#64748b" points="2834.5,-128.74 2840.78,-124.78 2833.4,-123.97 2834.5,-128.74"/>
</g>
<!-- n19&#45;&gt;n16 -->
<g id="edge17" class="edge">
<title>n19&#45;&gt;n16</title>
<path fill="none" stroke="#64748b" d="M2564.05,-159.52C2535.9,-149.67 2500.63,-137.32 2471.36,-127.07"/>
<polygon fill="#64748b" stroke="#64748b" points="2472.51,-124.88 2465.09,-124.88 2470.89,-129.51 2472.51,-124.88"/>
</g>
<!-- n19&#45;&gt;n17 -->
<g id="edge18" class="edge">
<title>n19&#45;&gt;n17</title>
<path fill="none" stroke="#64748b" d="M2644.97,-159.52C2661.67,-150.09 2682.41,-138.38 2700.07,-128.41"/>
<polygon fill="#64748b" stroke="#64748b" points="2701.21,-130.58 2706.11,-125 2698.81,-126.31 2701.21,-130.58"/>
</g>
<!-- n19&#45;&gt;n18 -->
<g id="edge19" class="edge">
<title>n19&#45;&gt;n18</title>
<path fill="none" stroke="#64748b" d="M2604.61,-159.7C2600.01,-151.22 2594.38,-140.86 2589.34,-131.58"/>
<polygon fill="#64748b" stroke="#64748b" points="2591.5,-130.42 2586.01,-125.43 2587.19,-132.76 2591.5,-130.42"/>
</g>
<!-- n22&#45;&gt;n12 -->
<g id="edge28" class="edge">
<title>n22&#45;&gt;n12</title>
<path fill="none" stroke="#64748b" d="M2907.94,-159.52C2947.53,-149.17 2997.66,-136.08 3037.95,-125.56"/>
<polygon fill="#64748b" stroke="#64748b" points="3038.52,-127.94 3044.67,-123.8 3037.28,-123.2 3038.52,-127.94"/>
</g>
</g>
</svg>
