<?xml version="1.0" encoding="UTF-8" standalone="no"?>
<!DOCTYPE svg PUBLIC "-//W3C//DTD SVG 1.1//EN"
 "http://www.w3.org/Graphics/SVG/1.1/DTD/svg11.dtd">
<!-- Generated by graphviz version 15.0.0 (20260523.1842)
 -->
<!-- Title: fejerCDF_mem_Icc Pages: 1 -->
<svg width="656pt" height="914pt"
 viewBox="0.00 0.00 656.00 914.00" xmlns="http://www.w3.org/2000/svg" xmlns:xlink="http://www.w3.org/1999/xlink">
<g id="graph0" class="graph" transform="scale(1 1) rotate(0) translate(4 910)">
<title>fejerCDF_mem_Icc</title>
<polygon fill="white" stroke="none" points="-4,4 -4,-910 652,-910 652,4 -4,4"/>
<text xml:space="preserve" text-anchor="middle" x="324" y="-889.4" font-family="Helvetica,sans-Serif" font-size="14.00">Proof narrative — fejerCDF_mem_Icc &#160;(25 decls)</text>
<g id="clust1" class="cluster">
<title>cluster_0</title>
<path fill="none" stroke="#cbd5e1" stroke-dasharray="5,2" d="M20,-8C20,-8 628,-8 628,-8 634,-8 640,-14 640,-20 640,-20 640,-861.2 640,-861.2 640,-867.2 634,-873.2 628,-873.2 628,-873.2 20,-873.2 20,-873.2 14,-873.2 8,-867.2 8,-861.2 8,-861.2 8,-20 8,-20 8,-14 14,-8 20,-8"/>
<text xml:space="preserve" text-anchor="middle" x="324" y="-859.3" font-family="Helvetica,sans-Serif" font-size="11.00">Fourier</text>
</g>
<!-- n0 -->
<g id="node1" class="node">
<title>n0</title>
<g id="a_node1"><a xlink:href="vscode://vscode-remote/wsl+Ubuntu/home/gavin/statlib/Statlib/Fourier/fejerKernel.lean:9" xlink:title="noncomputable def · Statlib/Fourier/fejerKernel.lean:9" target="_blank">
<path fill="#d6e9ff" stroke="#3b82f6" d="M419.18,-412C419.18,-412 378.82,-412 378.82,-412 372.82,-412 366.82,-406 366.82,-400 366.82,-400 366.82,-388 366.82,-388 366.82,-382 372.82,-376 378.82,-376 378.82,-376 419.18,-376 419.18,-376 425.18,-376 431.18,-382 431.18,-388 431.18,-388 431.18,-400 431.18,-400 431.18,-406 425.18,-412 419.18,-412"/>
<text xml:space="preserve" text-anchor="middle" x="399" y="-391" font-family="Helvetica,sans-Serif" font-size="10.00">fejerKernel</text>
</a>
</g>
</g>
<!-- n1 -->
<g id="node2" class="node">
<title>n1</title>
<g id="a_node2"><a xlink:href="vscode://vscode-remote/wsl+Ubuntu/home/gavin/statlib/Statlib/Fourier/fejerCDF.lean:11" xlink:title="noncomputable def · Statlib/Fourier/fejerCDF.lean:11" target="_blank">
<path fill="#d6e9ff" stroke="#3b82f6" d="M613,-700C613,-700 581,-700 581,-700 575,-700 569,-694 569,-688 569,-688 569,-676 569,-676 569,-670 575,-664 581,-664 581,-664 613,-664 613,-664 619,-664 625,-670 625,-676 625,-676 625,-688 625,-688 625,-694 619,-700 613,-700"/>
<text xml:space="preserve" text-anchor="middle" x="597" y="-679" font-family="Helvetica,sans-Serif" font-size="10.00">fejerCDF</text>
</a>
</g>
</g>
<!-- n1&#45;&gt;n0 -->
<g id="edge1" class="edge">
<title>n1&#45;&gt;n0</title>
<path fill="none" stroke="#64748b" d="M604.83,-663.52C622.38,-621.37 659.53,-512.87 609,-448 588.39,-421.55 494.58,-406.23 439.56,-399.37"/>
<polygon fill="#64748b" stroke="#64748b" points="440.15,-396.97 432.91,-398.56 439.56,-401.84 440.15,-396.97"/>
</g>
<!-- n2 -->
<g id="node3" class="node">
<title>n2</title>
<g id="a_node3"><a xlink:href="vscode://vscode-remote/wsl+Ubuntu/home/gavin/statlib/Statlib/Fourier/fejerKernel_nonneg.lean:9" xlink:title="lemma · Statlib/Fourier/fejerKernel_nonneg.lean:9" target="_blank">
<path fill="#eef2f6" stroke="#94a3b8" d="M581.65,-556C581.65,-556 502.35,-556 502.35,-556 496.35,-556 490.35,-550 490.35,-544 490.35,-544 490.35,-532 490.35,-532 490.35,-526 496.35,-520 502.35,-520 502.35,-520 581.65,-520 581.65,-520 587.65,-520 593.65,-526 593.65,-532 593.65,-532 593.65,-544 593.65,-544 593.65,-550 587.65,-556 581.65,-556"/>
<text xml:space="preserve" text-anchor="middle" x="542" y="-535" font-family="Helvetica,sans-Serif" font-size="10.00">fejerKernel_nonneg</text>
</a>
</g>
</g>
<!-- n2&#45;&gt;n0 -->
<g id="edge2" class="edge">
<title>n2&#45;&gt;n0</title>
<path fill="none" stroke="#64748b" d="M570.11,-519.64C581.99,-510.63 594.55,-498.46 601,-484 607.52,-469.39 610.77,-460.67 601,-448 581.45,-422.66 492.79,-407.06 439.64,-399.82"/>
<polygon fill="#64748b" stroke="#64748b" points="440.19,-397.43 432.93,-398.93 439.55,-402.28 440.19,-397.43"/>
</g>
<!-- n3 -->
<g id="node4" class="node">
<title>n3</title>
<g id="a_node4"><a xlink:href="vscode://vscode-remote/wsl+Ubuntu/home/gavin/statlib/Statlib/Fourier/fejerCDF_nonneg.lean:10" xlink:title="lemma · Statlib/Fourier/fejerCDF_nonneg.lean:10" target="_blank">
<path fill="#eef2f6" stroke="#94a3b8" d="M577.47,-772C577.47,-772 506.53,-772 506.53,-772 500.53,-772 494.53,-766 494.53,-760 494.53,-760 494.53,-748 494.53,-748 494.53,-742 500.53,-736 506.53,-736 506.53,-736 577.47,-736 577.47,-736 583.47,-736 589.47,-742 589.47,-748 589.47,-748 589.47,-760 589.47,-760 589.47,-766 583.47,-772 577.47,-772"/>
<text xml:space="preserve" text-anchor="middle" x="542" y="-751" font-family="Helvetica,sans-Serif" font-size="10.00">fejerCDF_nonneg</text>
</a>
</g>
</g>
<!-- n3&#45;&gt;n1 -->
<g id="edge3" class="edge">
<title>n3&#45;&gt;n1</title>
<path fill="none" stroke="#64748b" d="M555.6,-735.7C562.46,-726.97 570.88,-716.24 578.34,-706.75"/>
<polygon fill="#64748b" stroke="#64748b" points="580.23,-708.31 582.63,-701.29 576.37,-705.29 580.23,-708.31"/>
</g>
<!-- n3&#45;&gt;n2 -->
<g id="edge4" class="edge">
<title>n3&#45;&gt;n2</title>
<path fill="none" stroke="#64748b" d="M542,-735.85C542,-698.36 542,-608.95 542,-564.7"/>
<polygon fill="#64748b" stroke="#64748b" points="544.45,-564.75 542,-557.75 539.55,-564.75 544.45,-564.75"/>
</g>
<!-- n4 -->
<g id="node5" class="node">
<title>n4</title>
<g id="a_node5"><a xlink:href="vscode://vscode-remote/wsl+Ubuntu/home/gavin/statlib/Statlib/Fourier/fejerKernel_measurable.lean:9" xlink:title="lemma · Statlib/Fourier/fejerKernel_measurable.lean:9" target="_blank">
<path fill="#eef2f6" stroke="#94a3b8" d="M580.09,-484C580.09,-484 481.91,-484 481.91,-484 475.91,-484 469.91,-478 469.91,-472 469.91,-472 469.91,-460 469.91,-460 469.91,-454 475.91,-448 481.91,-448 481.91,-448 580.09,-448 580.09,-448 586.09,-448 592.09,-454 592.09,-460 592.09,-460 592.09,-472 592.09,-472 592.09,-478 586.09,-484 580.09,-484"/>
<text xml:space="preserve" text-anchor="middle" x="531" y="-463" font-family="Helvetica,sans-Serif" font-size="10.00">fejerKernel_measurable</text>
</a>
</g>
</g>
<!-- n4&#45;&gt;n0 -->
<g id="edge5" class="edge">
<title>n4&#45;&gt;n0</title>
<path fill="none" stroke="#64748b" d="M498.03,-447.52C480.1,-438.01 457.78,-426.17 438.88,-416.15"/>
<polygon fill="#64748b" stroke="#64748b" points="440.22,-414.08 432.89,-412.97 437.92,-418.41 440.22,-414.08"/>
</g>
<!-- n5 -->
<g id="node6" class="node">
<title>n5</title>
<g id="a_node6"><a xlink:href="vscode://vscode-remote/wsl+Ubuntu/home/gavin/statlib/Statlib/Fourier/fejerKernel_zero.lean:8" xlink:title="lemma · Statlib/Fourier/fejerKernel_zero.lean:8" target="_blank">
<path fill="#eef2f6" stroke="#94a3b8" d="M399.69,-484C399.69,-484 334.31,-484 334.31,-484 328.31,-484 322.31,-478 322.31,-472 322.31,-472 322.31,-460 322.31,-460 322.31,-454 328.31,-448 334.31,-448 334.31,-448 399.69,-448 399.69,-448 405.69,-448 411.69,-454 411.69,-460 411.69,-460 411.69,-472 411.69,-472 411.69,-478 405.69,-484 399.69,-484"/>
<text xml:space="preserve" text-anchor="middle" x="367" y="-463" font-family="Helvetica,sans-Serif" font-size="10.00">fejerKernel_zero</text>
</a>
</g>
</g>
<!-- n5&#45;&gt;n0 -->
<g id="edge6" class="edge">
<title>n5&#45;&gt;n0</title>
<path fill="none" stroke="#64748b" d="M374.91,-447.7C378.79,-439.22 383.52,-428.86 387.76,-419.58"/>
<polygon fill="#64748b" stroke="#64748b" points="389.87,-420.87 390.55,-413.48 385.41,-418.83 389.87,-420.87"/>
</g>
<!-- n6 -->
<g id="node7" class="node">
<title>n6</title>
<g id="a_node7"><a xlink:href="vscode://vscode-remote/wsl+Ubuntu/home/gavin/statlib/Statlib/Fourier/fejerKernel_ne_zero.lean:8" xlink:title="lemma · Statlib/Fourier/fejerKernel_ne_zero.lean:8" target="_blank">
<path fill="#eef2f6" stroke="#94a3b8" d="M292.03,-484C292.03,-484 209.97,-484 209.97,-484 203.97,-484 197.97,-478 197.97,-472 197.97,-472 197.97,-460 197.97,-460 197.97,-454 203.97,-448 209.97,-448 209.97,-448 292.03,-448 292.03,-448 298.03,-448 304.03,-454 304.03,-460 304.03,-460 304.03,-472 304.03,-472 304.03,-478 298.03,-484 292.03,-484"/>
<text xml:space="preserve" text-anchor="middle" x="251" y="-463" font-family="Helvetica,sans-Serif" font-size="10.00">fejerKernel_ne_zero</text>
</a>
</g>
</g>
<!-- n6&#45;&gt;n0 -->
<g id="edge7" class="edge">
<title>n6&#45;&gt;n0</title>
<path fill="none" stroke="#64748b" d="M287.96,-447.52C309.56,-437.3 336.83,-424.4 358.94,-413.95"/>
<polygon fill="#64748b" stroke="#64748b" points="359.88,-416.21 365.16,-411.01 357.78,-411.78 359.88,-416.21"/>
</g>
<!-- n7 -->
<g id="node8" class="node">
<title>n7</title>
<g id="a_node8"><a xlink:href="vscode://vscode-remote/wsl+Ubuntu/home/gavin/statlib/Statlib/Fourier/fejerKernel_le_const.lean:11" xlink:title="lemma · Statlib/Fourier/fejerKernel_le_const.lean:11" target="_blank">
<path fill="#eef2f6" stroke="#94a3b8" d="M416.58,-556C416.58,-556 333.42,-556 333.42,-556 327.42,-556 321.42,-550 321.42,-544 321.42,-544 321.42,-532 321.42,-532 321.42,-526 327.42,-520 333.42,-520 333.42,-520 416.58,-520 416.58,-520 422.58,-520 428.58,-526 428.58,-532 428.58,-532 428.58,-544 428.58,-544 428.58,-550 422.58,-556 416.58,-556"/>
<text xml:space="preserve" text-anchor="middle" x="375" y="-535" font-family="Helvetica,sans-Serif" font-size="10.00">fejerKernel_le_const</text>
</a>
</g>
</g>
<!-- n7&#45;&gt;n0 -->
<g id="edge8" class="edge">
<title>n7&#45;&gt;n0</title>
<path fill="none" stroke="#64748b" d="M395.82,-519.62C405.46,-510.2 415.89,-497.7 421,-484 428.89,-462.86 421.3,-437.85 412.95,-419.73"/>
<polygon fill="#64748b" stroke="#64748b" points="415.31,-418.98 410.03,-413.78 410.91,-421.14 415.31,-418.98"/>
</g>
<!-- n7&#45;&gt;n5 -->
<g id="edge9" class="edge">
<title>n7&#45;&gt;n5</title>
<path fill="none" stroke="#64748b" d="M373.02,-519.7C372.08,-511.47 370.94,-501.48 369.91,-492.42"/>
<polygon fill="#64748b" stroke="#64748b" points="372.36,-492.28 369.13,-485.61 367.49,-492.84 372.36,-492.28"/>
</g>
<!-- n7&#45;&gt;n6 -->
<g id="edge10" class="edge">
<title>n7&#45;&gt;n6</title>
<path fill="none" stroke="#64748b" d="M344.03,-519.52C327.33,-510.09 306.59,-498.38 288.93,-488.41"/>
<polygon fill="#64748b" stroke="#64748b" points="290.19,-486.31 282.89,-485 287.79,-490.58 290.19,-486.31"/>
</g>
<!-- n8 -->
<g id="node9" class="node">
<title>n8</title>
<g id="a_node9"><a xlink:href="vscode://vscode-remote/wsl+Ubuntu/home/gavin/statlib/Statlib/Fourier/fejerKernel_neg.lean:9" xlink:title="lemma · Statlib/Fourier/fejerKernel_neg.lean:9" target="_blank">
<path fill="#eef2f6" stroke="#94a3b8" d="M263.3,-556C263.3,-556 200.7,-556 200.7,-556 194.7,-556 188.7,-550 188.7,-544 188.7,-544 188.7,-532 188.7,-532 188.7,-526 194.7,-520 200.7,-520 200.7,-520 263.3,-520 263.3,-520 269.3,-520 275.3,-526 275.3,-532 275.3,-532 275.3,-544 275.3,-544 275.3,-550 269.3,-556 263.3,-556"/>
<text xml:space="preserve" text-anchor="middle" x="232" y="-535" font-family="Helvetica,sans-Serif" font-size="10.00">fejerKernel_neg</text>
</a>
</g>
</g>
<!-- n8&#45;&gt;n0 -->
<g id="edge11" class="edge">
<title>n8&#45;&gt;n0</title>
<path fill="none" stroke="#64748b" d="M212.97,-519.72C194.49,-500.85 171.6,-470.34 189,-448 209.61,-421.55 303.42,-406.23 358.44,-399.37"/>
<polygon fill="#64748b" stroke="#64748b" points="358.44,-401.84 365.09,-398.56 357.85,-396.97 358.44,-401.84"/>
</g>
<!-- n9 -->
<g id="node10" class="node">
<title>n9</title>
<g id="a_node10"><a xlink:href="vscode://vscode-remote/wsl+Ubuntu/home/gavin/statlib/Statlib/Fourier/fejerKernel_integrable.lean:14" xlink:title="lemma · Statlib/Fourier/fejerKernel_integrable.lean:14" target="_blank">
<path fill="#eef2f6" stroke="#94a3b8" d="M437.92,-628C437.92,-628 348.08,-628 348.08,-628 342.08,-628 336.08,-622 336.08,-616 336.08,-616 336.08,-604 336.08,-604 336.08,-598 342.08,-592 348.08,-592 348.08,-592 437.92,-592 437.92,-592 443.92,-592 449.92,-598 449.92,-604 449.92,-604 449.92,-616 449.92,-616 449.92,-622 443.92,-628 437.92,-628"/>
<text xml:space="preserve" text-anchor="middle" x="393" y="-607" font-family="Helvetica,sans-Serif" font-size="10.00">fejerKernel_integrable</text>
</a>
</g>
</g>
<!-- n9&#45;&gt;n0 -->
<g id="edge12" class="edge">
<title>n9&#45;&gt;n0</title>
<path fill="none" stroke="#64748b" d="M413.38,-591.53C422.81,-582.09 433.01,-569.6 438,-556 446.38,-533.17 429.39,-452.22 428,-448 424.79,-438.3 419.82,-428.3 414.9,-419.64"/>
<polygon fill="#64748b" stroke="#64748b" points="417.07,-418.5 411.4,-413.72 412.85,-420.99 417.07,-418.5"/>
</g>
<!-- n9&#45;&gt;n2 -->
<g id="edge14" class="edge">
<title>n9&#45;&gt;n2</title>
<path fill="none" stroke="#64748b" d="M430.21,-591.52C450.56,-581.96 475.9,-570.05 497.31,-560"/>
<polygon fill="#64748b" stroke="#64748b" points="498.34,-562.22 503.63,-557.03 496.25,-557.78 498.34,-562.22"/>
</g>
<!-- n9&#45;&gt;n4 -->
<g id="edge13" class="edge">
<title>n9&#45;&gt;n4</title>
<path fill="none" stroke="#64748b" d="M416.45,-591.71C428.91,-581.94 444.06,-569.1 456,-556 469.12,-541.6 468.73,-535.13 481,-520 489.29,-509.78 499.1,-499.12 507.82,-490.06"/>
<polygon fill="#64748b" stroke="#64748b" points="509.47,-491.88 512.6,-485.15 505.96,-488.46 509.47,-491.88"/>
</g>
<!-- n9&#45;&gt;n6 -->
<g id="edge16" class="edge">
<title>n9&#45;&gt;n6</title>
<path fill="none" stroke="#64748b" d="M360.51,-591.73C344.8,-582.42 326.29,-569.99 312,-556 301.37,-545.6 280.45,-513.85 266.1,-491.24"/>
<polygon fill="#64748b" stroke="#64748b" points="268.31,-490.15 262.5,-485.54 264.17,-492.77 268.31,-490.15"/>
</g>
<!-- n9&#45;&gt;n7 -->
<g id="edge15" class="edge">
<title>n9&#45;&gt;n7</title>
<path fill="none" stroke="#64748b" d="M388.55,-591.7C386.41,-583.39 383.81,-573.28 381.46,-564.14"/>
<polygon fill="#64748b" stroke="#64748b" points="383.89,-563.74 379.78,-557.57 379.15,-564.96 383.89,-563.74"/>
</g>
<!-- n9&#45;&gt;n8 -->
<g id="edge17" class="edge">
<title>n9&#45;&gt;n8</title>
<path fill="none" stroke="#64748b" d="M352.79,-591.52C330.61,-581.88 302.94,-569.84 279.68,-559.73"/>
<polygon fill="#64748b" stroke="#64748b" points="280.76,-557.53 273.37,-556.99 278.81,-562.02 280.76,-557.53"/>
</g>
<!-- n10 -->
<g id="node11" class="node">
<title>n10</title>
<g id="a_node11"><a xlink:href="vscode://vscode-remote/wsl+Ubuntu/home/gavin/statlib/Statlib/Fourier/integrableOn_exp_neg_mul_Ioi.lean:7" xlink:title="lemma · Statlib/Fourier/integrableOn_exp_neg_mul_Ioi.lean:7" target="_blank">
<path fill="#eef2f6" stroke="#94a3b8" d="M260.49,-52C260.49,-52 129.51,-52 129.51,-52 123.51,-52 117.51,-46 117.51,-40 117.51,-40 117.51,-28 117.51,-28 117.51,-22 123.51,-16 129.51,-16 129.51,-16 260.49,-16 260.49,-16 266.49,-16 272.49,-22 272.49,-28 272.49,-28 272.49,-40 272.49,-40 272.49,-46 266.49,-52 260.49,-52"/>
<text xml:space="preserve" text-anchor="middle" x="195" y="-31" font-family="Helvetica,sans-Serif" font-size="10.00">integrableOn_exp_neg_mul_Ioi</text>
</a>
</g>
</g>
<!-- n11 -->
<g id="node12" class="node">
<title>n11</title>
<g id="a_node12"><a xlink:href="vscode://vscode-remote/wsl+Ubuntu/home/gavin/statlib/Statlib/Fourier/integrableOn_exp_sinc_sq_Ioi.lean:9" xlink:title="lemma · Statlib/Fourier/integrableOn_exp_sinc_sq_Ioi.lean:9" target="_blank">
<path fill="#eef2f6" stroke="#94a3b8" d="M154.27,-196C154.27,-196 27.73,-196 27.73,-196 21.73,-196 15.73,-190 15.73,-184 15.73,-184 15.73,-172 15.73,-172 15.73,-166 21.73,-160 27.73,-160 27.73,-160 154.27,-160 154.27,-160 160.27,-160 166.27,-166 166.27,-172 166.27,-172 166.27,-184 166.27,-184 166.27,-190 160.27,-196 154.27,-196"/>
<text xml:space="preserve" text-anchor="middle" x="91" y="-175" font-family="Helvetica,sans-Serif" font-size="10.00">integrableOn_exp_sinc_sq_Ioi</text>
</a>
</g>
</g>
<!-- n11&#45;&gt;n10 -->
<g id="edge18" class="edge">
<title>n11&#45;&gt;n10</title>
<path fill="none" stroke="#64748b" d="M103.75,-159.59C122.25,-134.33 156.6,-87.43 177.47,-58.93"/>
<polygon fill="#64748b" stroke="#64748b" points="179.41,-60.43 181.57,-53.33 175.46,-57.53 179.41,-60.43"/>
</g>
<!-- n12 -->
<g id="node13" class="node">
<title>n12</title>
<g id="a_node13"><a xlink:href="vscode://vscode-remote/wsl+Ubuntu/home/gavin/statlib/Statlib/Fourier/hasDerivAt_sinc_sq_pointwise.lean:7" xlink:title="lemma · Statlib/Fourier/hasDerivAt_sinc_sq_pointwise.lean:7" target="_blank">
<path fill="#eef2f6" stroke="#94a3b8" d="M343.81,-268C343.81,-268 216.19,-268 216.19,-268 210.19,-268 204.19,-262 204.19,-256 204.19,-256 204.19,-244 204.19,-244 204.19,-238 210.19,-232 216.19,-232 216.19,-232 343.81,-232 343.81,-232 349.81,-232 355.81,-238 355.81,-244 355.81,-244 355.81,-256 355.81,-256 355.81,-262 349.81,-268 343.81,-268"/>
<text xml:space="preserve" text-anchor="middle" x="280" y="-247" font-family="Helvetica,sans-Serif" font-size="10.00">hasDerivAt_sinc_sq_pointwise</text>
</a>
</g>
</g>
<!-- n13 -->
<g id="node14" class="node">
<title>n13</title>
<g id="a_node14"><a xlink:href="vscode://vscode-remote/wsl+Ubuntu/home/gavin/statlib/Statlib/Fourier/integrableOn_exp_sinc_Ioi.lean:8" xlink:title="lemma · Statlib/Fourier/integrableOn_exp_sinc_Ioi.lean:8" target="_blank">
<path fill="#eef2f6" stroke="#94a3b8" d="M449.21,-124C449.21,-124 338.79,-124 338.79,-124 332.79,-124 326.79,-118 326.79,-112 326.79,-112 326.79,-100 326.79,-100 326.79,-94 332.79,-88 338.79,-88 338.79,-88 449.21,-88 449.21,-88 455.21,-88 461.21,-94 461.21,-100 461.21,-100 461.21,-112 461.21,-112 461.21,-118 455.21,-124 449.21,-124"/>
<text xml:space="preserve" text-anchor="middle" x="394" y="-103" font-family="Helvetica,sans-Serif" font-size="10.00">integrableOn_exp_sinc_Ioi</text>
</a>
</g>
</g>
<!-- n13&#45;&gt;n10 -->
<g id="edge19" class="edge">
<title>n13&#45;&gt;n10</title>
<path fill="none" stroke="#64748b" d="M344.3,-87.52C316.41,-77.71 281.5,-65.43 252.44,-55.21"/>
<polygon fill="#64748b" stroke="#64748b" points="253.26,-52.9 245.84,-52.88 251.63,-57.52 253.26,-52.9"/>
</g>
<!-- n14 -->
<g id="node15" class="node">
<title>n14</title>
<g id="a_node15"><a xlink:href="vscode://vscode-remote/wsl+Ubuntu/home/gavin/statlib/Statlib/Fourier/laplace_cos_Ioi.lean:9" xlink:title="lemma · Statlib/Fourier/laplace_cos_Ioi.lean:9" target="_blank">
<path fill="#eef2f6" stroke="#94a3b8" d="M296.47,-124C296.47,-124 235.53,-124 235.53,-124 229.53,-124 223.53,-118 223.53,-112 223.53,-112 223.53,-100 223.53,-100 223.53,-94 229.53,-88 235.53,-88 235.53,-88 296.47,-88 296.47,-88 302.47,-88 308.47,-94 308.47,-100 308.47,-100 308.47,-112 308.47,-112 308.47,-118 302.47,-124 296.47,-124"/>
<text xml:space="preserve" text-anchor="middle" x="266" y="-103" font-family="Helvetica,sans-Serif" font-size="10.00">laplace_cos_Ioi</text>
</a>
</g>
</g>
<!-- n15 -->
<g id="node16" class="node">
<title>n15</title>
<g id="a_node16"><a xlink:href="vscode://vscode-remote/wsl+Ubuntu/home/gavin/statlib/Statlib/Fourier/hasDerivAt_abel_sinc.lean:12" xlink:title="lemma · Statlib/Fourier/hasDerivAt_abel_sinc.lean:12" target="_blank">
<path fill="#eef2f6" stroke="#94a3b8" d="M321.36,-196C321.36,-196 232.64,-196 232.64,-196 226.64,-196 220.64,-190 220.64,-184 220.64,-184 220.64,-172 220.64,-172 220.64,-166 226.64,-160 232.64,-160 232.64,-160 321.36,-160 321.36,-160 327.36,-160 333.36,-166 333.36,-172 333.36,-172 333.36,-184 333.36,-184 333.36,-190 327.36,-196 321.36,-196"/>
<text xml:space="preserve" text-anchor="middle" x="277" y="-175" font-family="Helvetica,sans-Serif" font-size="10.00">hasDerivAt_abel_sinc</text>
</a>
</g>
</g>
<!-- n15&#45;&gt;n10 -->
<g id="edge21" class="edge">
<title>n15&#45;&gt;n10</title>
<path fill="none" stroke="#64748b" d="M249.58,-159.64C237.24,-150.48 223.55,-138.19 215,-124 203.36,-104.68 198.48,-79.3 196.44,-60.6"/>
<polygon fill="#64748b" stroke="#64748b" points="198.9,-60.51 195.81,-53.77 194.02,-60.96 198.9,-60.51"/>
</g>
<!-- n15&#45;&gt;n13 -->
<g id="edge20" class="edge">
<title>n15&#45;&gt;n13</title>
<path fill="none" stroke="#64748b" d="M306.22,-159.52C321.98,-150.09 341.55,-138.38 358.21,-128.41"/>
<polygon fill="#64748b" stroke="#64748b" points="359.1,-130.73 363.85,-125.04 356.59,-126.53 359.1,-130.73"/>
</g>
<!-- n15&#45;&gt;n14 -->
<g id="edge22" class="edge">
<title>n15&#45;&gt;n14</title>
<path fill="none" stroke="#64748b" d="M274.28,-159.7C272.99,-151.47 271.42,-141.48 269.99,-132.42"/>
<polygon fill="#64748b" stroke="#64748b" points="272.43,-132.13 268.92,-125.6 267.59,-132.9 272.43,-132.13"/>
</g>
<!-- n16 -->
<g id="node17" class="node">
<title>n16</title>
<g id="a_node17"><a xlink:href="vscode://vscode-remote/wsl+Ubuntu/home/gavin/statlib/Statlib/Fourier/hasDerivAt_arctan_div.lean:7" xlink:title="lemma · Statlib/Fourier/hasDerivAt_arctan_div.lean:7" target="_blank">
<path fill="#eef2f6" stroke="#94a3b8" d="M468.3,-196C468.3,-196 375.7,-196 375.7,-196 369.7,-196 363.7,-190 363.7,-184 363.7,-184 363.7,-172 363.7,-172 363.7,-166 369.7,-160 375.7,-160 375.7,-160 468.3,-160 468.3,-160 474.3,-160 480.3,-166 480.3,-172 480.3,-172 480.3,-184 480.3,-184 480.3,-190 474.3,-196 468.3,-196"/>
<text xml:space="preserve" text-anchor="middle" x="422" y="-175" font-family="Helvetica,sans-Serif" font-size="10.00">hasDerivAt_arctan_div</text>
</a>
</g>
</g>
<!-- n17 -->
<g id="node18" class="node">
<title>n17</title>
<g id="a_node18"><a xlink:href="vscode://vscode-remote/wsl+Ubuntu/home/gavin/statlib/Statlib/Fourier/abel_sinc_integral.lean:15" xlink:title="lemma · Statlib/Fourier/abel_sinc_integral.lean:15" target="_blank">
<path fill="#eef2f6" stroke="#94a3b8" d="M458.31,-268C458.31,-268 385.69,-268 385.69,-268 379.69,-268 373.69,-262 373.69,-256 373.69,-256 373.69,-244 373.69,-244 373.69,-238 379.69,-232 385.69,-232 385.69,-232 458.31,-232 458.31,-232 464.31,-232 470.31,-238 470.31,-244 470.31,-244 470.31,-256 470.31,-256 470.31,-262 464.31,-268 458.31,-268"/>
<text xml:space="preserve" text-anchor="middle" x="422" y="-247" font-family="Helvetica,sans-Serif" font-size="10.00">abel_sinc_integral</text>
</a>
</g>
</g>
<!-- n17&#45;&gt;n15 -->
<g id="edge23" class="edge">
<title>n17&#45;&gt;n15</title>
<path fill="none" stroke="#64748b" d="M385.78,-231.52C365.99,-221.96 341.33,-210.05 320.49,-200"/>
<polygon fill="#64748b" stroke="#64748b" points="321.74,-197.88 314.37,-197.04 319.61,-202.29 321.74,-197.88"/>
</g>
<!-- n17&#45;&gt;n16 -->
<g id="edge24" class="edge">
<title>n17&#45;&gt;n16</title>
<path fill="none" stroke="#64748b" d="M422,-231.7C422,-223.47 422,-213.48 422,-204.42"/>
<polygon fill="#64748b" stroke="#64748b" points="424.45,-204.62 422,-197.62 419.55,-204.62 424.45,-204.62"/>
</g>
<!-- n18 -->
<g id="node19" class="node">
<title>n18</title>
<g id="a_node19"><a xlink:href="vscode://vscode-remote/wsl+Ubuntu/home/gavin/statlib/Statlib/Fourier/hasDerivAt_abel_sinc_sq.lean:13" xlink:title="lemma · Statlib/Fourier/hasDerivAt_abel_sinc_sq.lean:13" target="_blank">
<path fill="#eef2f6" stroke="#94a3b8" d="M237.42,-340C237.42,-340 132.58,-340 132.58,-340 126.58,-340 120.58,-334 120.58,-328 120.58,-328 120.58,-316 120.58,-316 120.58,-310 126.58,-304 132.58,-304 132.58,-304 237.42,-304 237.42,-304 243.42,-304 249.42,-310 249.42,-316 249.42,-316 249.42,-328 249.42,-328 249.42,-334 243.42,-340 237.42,-340"/>
<text xml:space="preserve" text-anchor="middle" x="185" y="-319" font-family="Helvetica,sans-Serif" font-size="10.00">hasDerivAt_abel_sinc_sq</text>
</a>
</g>
</g>
<!-- n18&#45;&gt;n10 -->
<g id="edge25" class="edge">
<title>n18&#45;&gt;n10</title>
<path fill="none" stroke="#64748b" d="M185.61,-303.54C187.31,-254.96 192.1,-118.02 194.1,-60.72"/>
<polygon fill="#64748b" stroke="#64748b" points="196.55,-60.83 194.34,-53.74 191.65,-60.65 196.55,-60.83"/>
</g>
<!-- n18&#45;&gt;n11 -->
<g id="edge26" class="edge">
<title>n18&#45;&gt;n11</title>
<path fill="none" stroke="#64748b" d="M173.47,-303.59C156.75,-278.33 125.71,-231.43 106.84,-202.93"/>
<polygon fill="#64748b" stroke="#64748b" points="109.07,-201.86 103.16,-197.37 104.98,-204.56 109.07,-201.86"/>
</g>
<!-- n18&#45;&gt;n12 -->
<g id="edge27" class="edge">
<title>n18&#45;&gt;n12</title>
<path fill="none" stroke="#64748b" d="M208.48,-303.7C220.93,-294.53 236.36,-283.16 249.7,-273.33"/>
<polygon fill="#64748b" stroke="#64748b" points="251.06,-275.37 255.24,-269.24 248.15,-271.42 251.06,-275.37"/>
</g>
<!-- n18&#45;&gt;n17 -->
<g id="edge28" class="edge">
<title>n18&#45;&gt;n17</title>
<path fill="none" stroke="#64748b" d="M244.61,-303.51C279.67,-293.2 324.86,-279.89 365,-268 365.17,-267.95 365.35,-267.9 365.52,-267.85"/>
<polygon fill="#64748b" stroke="#64748b" points="366.03,-270.25 372.04,-265.91 364.63,-265.55 366.03,-270.25"/>
</g>
<!-- n19 -->
<g id="node20" class="node">
<title>n19</title>
<g id="a_node20"><a xlink:href="vscode://vscode-remote/wsl+Ubuntu/home/gavin/statlib/Statlib/Fourier/abel_sinc_sq_eq_interval.lean:13" xlink:title="lemma · Statlib/Fourier/abel_sinc_sq_eq_interval.lean:13" target="_blank">
<path fill="#eef2f6" stroke="#94a3b8" d="M185.43,-412C185.43,-412 80.57,-412 80.57,-412 74.57,-412 68.57,-406 68.57,-400 68.57,-400 68.57,-388 68.57,-388 68.57,-382 74.57,-376 80.57,-376 80.57,-376 185.43,-376 185.43,-376 191.43,-376 197.43,-382 197.43,-388 197.43,-388 197.43,-400 197.43,-400 197.43,-406 191.43,-412 185.43,-412"/>
<text xml:space="preserve" text-anchor="middle" x="133" y="-391" font-family="Helvetica,sans-Serif" font-size="10.00">abel_sinc_sq_eq_interval</text>
</a>
</g>
</g>
<!-- n19&#45;&gt;n18 -->
<g id="edge29" class="edge">
<title>n19&#45;&gt;n18</title>
<path fill="none" stroke="#64748b" d="M145.85,-375.7C152.34,-366.97 160.31,-356.24 167.36,-346.75"/>
<polygon fill="#64748b" stroke="#64748b" points="169.18,-348.4 171.39,-341.32 165.25,-345.48 169.18,-348.4"/>
</g>
<!-- n20 -->
<g id="node21" class="node">
<title>n20</title>
<g id="a_node21"><a xlink:href="vscode://vscode-remote/wsl+Ubuntu/home/gavin/statlib/Statlib/Fourier/integral_sinc_sq_Ioi.lean:10" xlink:title="theorem · Statlib/Fourier/integral_sinc_sq_Ioi.lean:10" target="_blank">
<path fill="#ffe6a3" stroke="#d4a017" d="M108.19,-484C108.19,-484 27.81,-484 27.81,-484 21.81,-484 15.81,-478 15.81,-472 15.81,-472 15.81,-460 15.81,-460 15.81,-454 21.81,-448 27.81,-448 27.81,-448 108.19,-448 108.19,-448 114.19,-448 120.19,-454 120.19,-460 120.19,-460 120.19,-472 120.19,-472 120.19,-478 114.19,-484 108.19,-484"/>
<text xml:space="preserve" text-anchor="middle" x="68" y="-463" font-family="Helvetica,sans-Serif" font-size="10.00">integral_sinc_sq_Ioi</text>
</a>
</g>
</g>
<!-- n20&#45;&gt;n19 -->
<g id="edge30" class="edge">
<title>n20&#45;&gt;n19</title>
<path fill="none" stroke="#64748b" d="M84.07,-447.7C92.33,-438.8 102.52,-427.82 111.46,-418.2"/>
<polygon fill="#64748b" stroke="#64748b" points="113.12,-420.01 116.09,-413.21 109.53,-416.68 113.12,-420.01"/>
</g>
<!-- n21 -->
<g id="node22" class="node">
<title>n21</title>
<g id="a_node22"><a xlink:href="vscode://vscode-remote/wsl+Ubuntu/home/gavin/statlib/Statlib/Fourier/fejerKernel_half_integral.lean:13" xlink:title="lemma · Statlib/Fourier/fejerKernel_half_integral.lean:13" target="_blank">
<path fill="#eef2f6" stroke="#94a3b8" d="M128.2,-556C128.2,-556 27.8,-556 27.8,-556 21.8,-556 15.8,-550 15.8,-544 15.8,-544 15.8,-532 15.8,-532 15.8,-526 21.8,-520 27.8,-520 27.8,-520 128.2,-520 128.2,-520 134.2,-520 140.2,-526 140.2,-532 140.2,-532 140.2,-544 140.2,-544 140.2,-550 134.2,-556 128.2,-556"/>
<text xml:space="preserve" text-anchor="middle" x="78" y="-535" font-family="Helvetica,sans-Serif" font-size="10.00">fejerKernel_half_integral</text>
</a>
</g>
</g>
<!-- n21&#45;&gt;n0 -->
<g id="edge31" class="edge">
<title>n21&#45;&gt;n0</title>
<path fill="none" stroke="#64748b" d="M96.21,-519.51C106.29,-509.48 118.8,-496.44 129,-484 141.35,-468.93 137.8,-458.81 154,-448 216.58,-406.24 306.37,-396.71 358.08,-394.93"/>
<polygon fill="#64748b" stroke="#64748b" points="357.9,-397.38 364.83,-394.74 357.77,-392.48 357.9,-397.38"/>
</g>
<!-- n21&#45;&gt;n6 -->
<g id="edge32" class="edge">
<title>n21&#45;&gt;n6</title>
<path fill="none" stroke="#64748b" d="M121.21,-519.52C145.24,-509.79 175.29,-497.64 200.41,-487.47"/>
<polygon fill="#64748b" stroke="#64748b" points="201.07,-489.85 206.64,-484.95 199.23,-485.3 201.07,-489.85"/>
</g>
<!-- n21&#45;&gt;n20 -->
<g id="edge33" class="edge">
<title>n21&#45;&gt;n20</title>
<path fill="none" stroke="#64748b" d="M75.53,-519.7C74.35,-511.47 72.93,-501.48 71.63,-492.42"/>
<polygon fill="#64748b" stroke="#64748b" points="74.07,-492.19 70.66,-485.6 69.22,-492.88 74.07,-492.19"/>
</g>
<!-- n22 -->
<g id="node23" class="node">
<title>n22</title>
<g id="a_node23"><a xlink:href="vscode://vscode-remote/wsl+Ubuntu/home/gavin/statlib/Statlib/Fourier/fejerKernel_integral_one.lean:16" xlink:title="theorem · Statlib/Fourier/fejerKernel_integral_one.lean:16" target="_blank">
<path fill="#ffe6a3" stroke="#d4a017" d="M282.48,-700C282.48,-700 181.52,-700 181.52,-700 175.52,-700 169.52,-694 169.52,-688 169.52,-688 169.52,-676 169.52,-676 169.52,-670 175.52,-664 181.52,-664 181.52,-664 282.48,-664 282.48,-664 288.48,-664 294.48,-670 294.48,-676 294.48,-676 294.48,-688 294.48,-688 294.48,-694 288.48,-700 282.48,-700"/>
<text xml:space="preserve" text-anchor="middle" x="232" y="-679" font-family="Helvetica,sans-Serif" font-size="10.00">fejerKernel_integral_one</text>
</a>
</g>
</g>
<!-- n22&#45;&gt;n0 -->
<g id="edge34" class="edge">
<title>n22&#45;&gt;n0</title>
<path fill="none" stroke="#64748b" d="M219.42,-663.68C190.75,-621.9 126.89,-514.16 179,-448 200.9,-420.2 300.91,-405.28 358.26,-398.88"/>
<polygon fill="#64748b" stroke="#64748b" points="358.2,-401.35 364.9,-398.16 357.67,-396.48 358.2,-401.35"/>
</g>
<!-- n22&#45;&gt;n8 -->
<g id="edge36" class="edge">
<title>n22&#45;&gt;n8</title>
<path fill="none" stroke="#64748b" d="M232,-663.59C232,-638.76 232,-593.01 232,-564.4"/>
<polygon fill="#64748b" stroke="#64748b" points="234.45,-564.62 232,-557.62 229.55,-564.62 234.45,-564.62"/>
</g>
<!-- n22&#45;&gt;n9 -->
<g id="edge35" class="edge">
<title>n22&#45;&gt;n9</title>
<path fill="none" stroke="#64748b" d="M272.21,-663.52C294.39,-653.88 322.06,-641.84 345.32,-631.73"/>
<polygon fill="#64748b" stroke="#64748b" points="346.19,-634.02 351.63,-628.99 344.24,-629.53 346.19,-634.02"/>
</g>
<!-- n22&#45;&gt;n21 -->
<g id="edge37" class="edge">
<title>n22&#45;&gt;n21</title>
<path fill="none" stroke="#64748b" d="M202.49,-663.59C187.29,-653.99 168.88,-641.33 154,-628 131.76,-608.08 110.01,-581.7 95.51,-562.84"/>
<polygon fill="#64748b" stroke="#64748b" points="97.62,-561.56 91.43,-557.47 93.71,-564.52 97.62,-561.56"/>
</g>
<!-- n23 -->
<g id="node24" class="node">
<title>n23</title>
<g id="a_node24"><a xlink:href="vscode://vscode-remote/wsl+Ubuntu/home/gavin/statlib/Statlib/Fourier/fejerCDF_le_one.lean:12" xlink:title="lemma · Statlib/Fourier/fejerCDF_le_one.lean:12" target="_blank">
<path fill="#eef2f6" stroke="#94a3b8" d="M464.8,-772C464.8,-772 397.2,-772 397.2,-772 391.2,-772 385.2,-766 385.2,-760 385.2,-760 385.2,-748 385.2,-748 385.2,-742 391.2,-736 397.2,-736 397.2,-736 464.8,-736 464.8,-736 470.8,-736 476.8,-742 476.8,-748 476.8,-748 476.8,-760 476.8,-760 476.8,-766 470.8,-772 464.8,-772"/>
<text xml:space="preserve" text-anchor="middle" x="431" y="-751" font-family="Helvetica,sans-Serif" font-size="10.00">fejerCDF_le_one</text>
</a>
</g>
</g>
<!-- n23&#45;&gt;n1 -->
<g id="edge38" class="edge">
<title>n23&#45;&gt;n1</title>
<path fill="none" stroke="#64748b" d="M472.46,-735.52C499.61,-724.07 534.76,-709.25 560.79,-698.27"/>
<polygon fill="#64748b" stroke="#64748b" points="561.66,-700.56 567.16,-695.58 559.76,-696.05 561.66,-700.56"/>
</g>
<!-- n23&#45;&gt;n2 -->
<g id="edge41" class="edge">
<title>n23&#45;&gt;n2</title>
<path fill="none" stroke="#64748b" d="M439.9,-735.85C459.5,-698.05 506.49,-607.45 529.24,-563.6"/>
<polygon fill="#64748b" stroke="#64748b" points="531.32,-564.92 532.36,-557.58 526.97,-562.66 531.32,-564.92"/>
</g>
<!-- n23&#45;&gt;n9 -->
<g id="edge40" class="edge">
<title>n23&#45;&gt;n9</title>
<path fill="none" stroke="#64748b" d="M426.34,-735.59C419.67,-710.65 407.35,-664.62 399.7,-636.03"/>
<polygon fill="#64748b" stroke="#64748b" points="402.15,-635.7 397.97,-629.57 397.41,-636.97 402.15,-635.7"/>
</g>
<!-- n23&#45;&gt;n22 -->
<g id="edge39" class="edge">
<title>n23&#45;&gt;n22</title>
<path fill="none" stroke="#64748b" d="M384.85,-736.76C356.49,-726.79 319.94,-713.93 289.68,-703.29"/>
<polygon fill="#64748b" stroke="#64748b" points="290.58,-701.01 283.16,-701 288.95,-705.63 290.58,-701.01"/>
</g>
<!-- n24 -->
<g id="node25" class="node">
<title>n24</title>
<g id="a_node25"><a xlink:href="vscode://vscode-remote/wsl+Ubuntu/home/gavin/statlib/Statlib/Fourier/fejerCDF_mem_Icc.lean:11" xlink:title="lemma · Statlib/Fourier/fejerCDF_mem_Icc.lean:11" target="_blank">
<path fill="#eef2f6" stroke="#94a3b8" stroke-width="3" d="M581.06,-844C581.06,-844 502.94,-844 502.94,-844 496.94,-844 490.94,-838 490.94,-832 490.94,-832 490.94,-820 490.94,-820 490.94,-814 496.94,-808 502.94,-808 502.94,-808 581.06,-808 581.06,-808 587.06,-808 593.06,-814 593.06,-820 593.06,-820 593.06,-832 593.06,-832 593.06,-838 587.06,-844 581.06,-844"/>
<text xml:space="preserve" text-anchor="middle" x="542" y="-823" font-family="Helvetica,sans-Serif" font-size="10.00">fejerCDF_mem_Icc</text>
</a>
</g>
</g>
<!-- n24&#45;&gt;n1 -->
<g id="edge42" class="edge">
<title>n24&#45;&gt;n1</title>
<path fill="none" stroke="#64748b" d="M569.6,-806.63C580.61,-797.64 592.07,-785.77 598,-772 606.69,-751.81 605.41,-726.59 602.57,-708.15"/>
<polygon fill="#64748b" stroke="#64748b" points="605.06,-708.17 601.44,-701.69 600.23,-709.01 605.06,-708.17"/>
</g>
<!-- n24&#45;&gt;n3 -->
<g id="edge43" class="edge">
<title>n24&#45;&gt;n3</title>
<path fill="none" stroke="#64748b" d="M542,-806.61C542,-798.59 542,-789.05 542,-780.37"/>
<polygon fill="#64748b" stroke="#64748b" points="544.45,-780.58 542,-773.58 539.55,-780.58 544.45,-780.58"/>
</g>
<!-- n24&#45;&gt;n23 -->
<g id="edge44" class="edge">
<title>n24&#45;&gt;n23</title>
<path fill="none" stroke="#64748b" d="M512.84,-806.61C498.24,-797.4 480.49,-786.21 465.25,-776.6"/>
<polygon fill="#64748b" stroke="#64748b" points="466.95,-774.78 459.72,-773.11 464.34,-778.92 466.95,-774.78"/>
</g>
</g>
</svg>
