<?xml version="1.0" encoding="UTF-8" standalone="no"?>
<!DOCTYPE svg PUBLIC "-//W3C//DTD SVG 1.1//EN"
 "http://www.w3.org/Graphics/SVG/1.1/DTD/svg11.dtd">
<!-- Generated by graphviz version 15.0.0 (20260523.1842)
 -->
<!-- Title: jackson_kernel_tail_bound Pages: 1 -->
<svg width="624pt" height="554pt"
 viewBox="0.00 0.00 624.00 554.00" xmlns="http://www.w3.org/2000/svg" xmlns:xlink="http://www.w3.org/1999/xlink">
<g id="graph0" class="graph" transform="scale(1 1) rotate(0) translate(4 550)">
<title>jackson_kernel_tail_bound</title>
<polygon fill="white" stroke="none" points="-4,4 -4,-550 620,-550 620,4 -4,4"/>
<text xml:space="preserve" text-anchor="middle" x="308" y="-529.4" font-family="Helvetica,sans-Serif" font-size="14.00">Proof narrative — jackson_kernel_tail_bound &#160;(13 decls)</text>
<g id="clust1" class="cluster">
<title>cluster_0</title>
<path fill="none" stroke="#cbd5e1" stroke-dasharray="5,2" d="M20,-8C20,-8 596,-8 596,-8 602,-8 608,-14 608,-20 608,-20 608,-501.2 608,-501.2 608,-507.2 602,-513.2 596,-513.2 596,-513.2 20,-513.2 20,-513.2 14,-513.2 8,-507.2 8,-501.2 8,-501.2 8,-20 8,-20 8,-14 14,-8 20,-8"/>
<text xml:space="preserve" text-anchor="middle" x="308" y="-499.3" font-family="Helvetica,sans-Serif" font-size="11.00">Fourier</text>
</g>
<!-- n0 -->
<g id="node1" class="node">
<title>n0</title>
<g id="a_node1"><a xlink:href="vscode://vscode-remote/wsl+Ubuntu/home/gavin/statlib/Statlib/Fourier/triangleKernel.lean:7" xlink:title="noncomputable def · Statlib/Fourier/triangleKernel.lean:7" target="_blank">
<path fill="#d6e9ff" stroke="#3b82f6" d="M354.85,-52C354.85,-52 301.15,-52 301.15,-52 295.15,-52 289.15,-46 289.15,-40 289.15,-40 289.15,-28 289.15,-28 289.15,-22 295.15,-16 301.15,-16 301.15,-16 354.85,-16 354.85,-16 360.85,-16 366.85,-22 366.85,-28 366.85,-28 366.85,-40 366.85,-40 366.85,-46 360.85,-52 354.85,-52"/>
<text xml:space="preserve" text-anchor="middle" x="328" y="-31" font-family="Helvetica,sans-Serif" font-size="10.00">triangleKernel</text>
</a>
</g>
</g>
<!-- n1 -->
<g id="node2" class="node">
<title>n1</title>
<g id="a_node2"><a xlink:href="vscode://vscode-remote/wsl+Ubuntu/home/gavin/statlib/Statlib/Fourier/triangleKernel_continuous.lean:8" xlink:title="lemma · Statlib/Fourier/triangleKernel_continuous.lean:8" target="_blank">
<path fill="#eef2f6" stroke="#94a3b8" d="M487.82,-268C487.82,-268 380.18,-268 380.18,-268 374.18,-268 368.18,-262 368.18,-256 368.18,-256 368.18,-244 368.18,-244 368.18,-238 374.18,-232 380.18,-232 380.18,-232 487.82,-232 487.82,-232 493.82,-232 499.82,-238 499.82,-244 499.82,-244 499.82,-256 499.82,-256 499.82,-262 493.82,-268 487.82,-268"/>
<text xml:space="preserve" text-anchor="middle" x="434" y="-247" font-family="Helvetica,sans-Serif" font-size="10.00">triangleKernel_continuous</text>
</a>
</g>
</g>
<!-- n1&#45;&gt;n0 -->
<g id="edge1" class="edge">
<title>n1&#45;&gt;n0</title>
<path fill="none" stroke="#64748b" d="M417.81,-231.86C409.05,-221.94 398.51,-208.9 391,-196 364.8,-151 345.17,-93.05 335.25,-60.37"/>
<polygon fill="#64748b" stroke="#64748b" points="337.6,-59.69 333.25,-53.69 332.91,-61.1 337.6,-59.69"/>
</g>
<!-- n2 -->
<g id="node3" class="node">
<title>n2</title>
<g id="a_node3"><a xlink:href="vscode://vscode-remote/wsl+Ubuntu/home/gavin/statlib/Statlib/Fourier/triangleKernel_nonneg.lean:8" xlink:title="lemma · Statlib/Fourier/triangleKernel_nonneg.lean:8" target="_blank">
<path fill="#eef2f6" stroke="#94a3b8" d="M160.32,-340C160.32,-340 67.68,-340 67.68,-340 61.68,-340 55.68,-334 55.68,-328 55.68,-328 55.68,-316 55.68,-316 55.68,-310 61.68,-304 67.68,-304 67.68,-304 160.32,-304 160.32,-304 166.32,-304 172.32,-310 172.32,-316 172.32,-316 172.32,-328 172.32,-328 172.32,-334 166.32,-340 160.32,-340"/>
<text xml:space="preserve" text-anchor="middle" x="114" y="-319" font-family="Helvetica,sans-Serif" font-size="10.00">triangleKernel_nonneg</text>
</a>
</g>
</g>
<!-- n2&#45;&gt;n0 -->
<g id="edge2" class="edge">
<title>n2&#45;&gt;n0</title>
<path fill="none" stroke="#64748b" d="M95.4,-303.76C86.47,-294.2 76.71,-281.53 72,-268 45.69,-192.45 21.49,-150.04 72,-88 97.8,-56.31 213.94,-42.98 280.58,-37.86"/>
<polygon fill="#64748b" stroke="#64748b" points="280.54,-40.32 287.34,-37.36 280.18,-35.43 280.54,-40.32"/>
</g>
<!-- n3 -->
<g id="node4" class="node">
<title>n3</title>
<g id="a_node4"><a xlink:href="vscode://vscode-remote/wsl+Ubuntu/home/gavin/statlib/Statlib/Fourier/triangleKernel_zero_of_abs_ge.lean:8" xlink:title="lemma · Statlib/Fourier/triangleKernel_zero_of_abs_ge.lean:8" target="_blank">
<path fill="#eef2f6" stroke="#94a3b8" d="M238.49,-124C238.49,-124 107.51,-124 107.51,-124 101.51,-124 95.51,-118 95.51,-112 95.51,-112 95.51,-100 95.51,-100 95.51,-94 101.51,-88 107.51,-88 107.51,-88 238.49,-88 238.49,-88 244.49,-88 250.49,-94 250.49,-100 250.49,-100 250.49,-112 250.49,-112 250.49,-118 244.49,-124 238.49,-124"/>
<text xml:space="preserve" text-anchor="middle" x="173" y="-103" font-family="Helvetica,sans-Serif" font-size="10.00">triangleKernel_zero_of_abs_ge</text>
</a>
</g>
</g>
<!-- n3&#45;&gt;n0 -->
<g id="edge3" class="edge">
<title>n3&#45;&gt;n0</title>
<path fill="none" stroke="#64748b" d="M211.71,-87.52C232.97,-77.92 259.47,-65.95 281.8,-55.86"/>
<polygon fill="#64748b" stroke="#64748b" points="282.76,-58.12 288.13,-53 280.74,-53.65 282.76,-58.12"/>
</g>
<!-- n4 -->
<g id="node5" class="node">
<title>n4</title>
<g id="a_node5"><a xlink:href="vscode://vscode-remote/wsl+Ubuntu/home/gavin/statlib/Statlib/Fourier/triangleKernel_support_subset.lean:9" xlink:title="lemma · Statlib/Fourier/triangleKernel_support_subset.lean:9" target="_blank">
<path fill="#eef2f6" stroke="#94a3b8" d="M286.82,-196C286.82,-196 159.18,-196 159.18,-196 153.18,-196 147.18,-190 147.18,-184 147.18,-184 147.18,-172 147.18,-172 147.18,-166 153.18,-160 159.18,-160 159.18,-160 286.82,-160 286.82,-160 292.82,-160 298.82,-166 298.82,-172 298.82,-172 298.82,-184 298.82,-184 298.82,-190 292.82,-196 286.82,-196"/>
<text xml:space="preserve" text-anchor="middle" x="223" y="-175" font-family="Helvetica,sans-Serif" font-size="10.00">triangleKernel_support_subset</text>
</a>
</g>
</g>
<!-- n4&#45;&gt;n0 -->
<g id="edge4" class="edge">
<title>n4&#45;&gt;n0</title>
<path fill="none" stroke="#64748b" d="M235.88,-159.59C254.55,-134.33 289.23,-87.43 310.3,-58.93"/>
<polygon fill="#64748b" stroke="#64748b" points="312.26,-60.41 314.45,-53.33 308.32,-57.5 312.26,-60.41"/>
</g>
<!-- n4&#45;&gt;n3 -->
<g id="edge5" class="edge">
<title>n4&#45;&gt;n3</title>
<path fill="none" stroke="#64748b" d="M210.64,-159.7C204.46,-151.05 196.89,-140.45 190.16,-131.03"/>
<polygon fill="#64748b" stroke="#64748b" points="192.16,-129.61 186.1,-125.34 188.17,-132.46 192.16,-129.61"/>
</g>
<!-- n5 -->
<g id="node6" class="node">
<title>n5</title>
<g id="a_node6"><a xlink:href="vscode://vscode-remote/wsl+Ubuntu/home/gavin/statlib/Statlib/Fourier/triangleKernel_hasCompactSupport.lean:9" xlink:title="lemma · Statlib/Fourier/triangleKernel_hasCompactSupport.lean:9" target="_blank">
<path fill="#eef2f6" stroke="#94a3b8" d="M318.21,-268C318.21,-268 167.79,-268 167.79,-268 161.79,-268 155.79,-262 155.79,-256 155.79,-256 155.79,-244 155.79,-244 155.79,-238 161.79,-232 167.79,-232 167.79,-232 318.21,-232 318.21,-232 324.21,-232 330.21,-238 330.21,-244 330.21,-244 330.21,-256 330.21,-256 330.21,-262 324.21,-268 318.21,-268"/>
<text xml:space="preserve" text-anchor="middle" x="243" y="-247" font-family="Helvetica,sans-Serif" font-size="10.00">triangleKernel_hasCompactSupport</text>
</a>
</g>
</g>
<!-- n5&#45;&gt;n0 -->
<g id="edge6" class="edge">
<title>n5&#45;&gt;n0</title>
<path fill="none" stroke="#64748b" d="M273.4,-231.58C286.2,-222.62 299.97,-210.53 308,-196 331.77,-153.01 332.44,-93.87 330.44,-60.53"/>
<polygon fill="#64748b" stroke="#64748b" points="332.9,-60.57 329.97,-53.76 328.02,-60.91 332.9,-60.57"/>
</g>
<!-- n5&#45;&gt;n4 -->
<g id="edge7" class="edge">
<title>n5&#45;&gt;n4</title>
<path fill="none" stroke="#64748b" d="M238.06,-231.7C235.68,-223.39 232.79,-213.28 230.18,-204.14"/>
<polygon fill="#64748b" stroke="#64748b" points="232.58,-203.62 228.3,-197.56 227.87,-204.96 232.58,-203.62"/>
</g>
<!-- n6 -->
<g id="node7" class="node">
<title>n6</title>
<g id="a_node7"><a xlink:href="vscode://vscode-remote/wsl+Ubuntu/home/gavin/statlib/Statlib/Fourier/triangleKernel_integrable.lean:10" xlink:title="lemma · Statlib/Fourier/triangleKernel_integrable.lean:10" target="_blank">
<path fill="#eef2f6" stroke="#94a3b8" d="M405.59,-340C405.59,-340 302.41,-340 302.41,-340 296.41,-340 290.41,-334 290.41,-328 290.41,-328 290.41,-316 290.41,-316 290.41,-310 296.41,-304 302.41,-304 302.41,-304 405.59,-304 405.59,-304 411.59,-304 417.59,-310 417.59,-316 417.59,-316 417.59,-328 417.59,-328 417.59,-334 411.59,-340 405.59,-340"/>
<text xml:space="preserve" text-anchor="middle" x="354" y="-319" font-family="Helvetica,sans-Serif" font-size="10.00">triangleKernel_integrable</text>
</a>
</g>
</g>
<!-- n6&#45;&gt;n0 -->
<g id="edge8" class="edge">
<title>n6&#45;&gt;n0</title>
<path fill="none" stroke="#64748b" d="M352.47,-303.75C349.04,-265.12 340.44,-168.69 333,-88 332.17,-79.03 331.25,-69.2 330.42,-60.47"/>
<polygon fill="#64748b" stroke="#64748b" points="332.88,-60.43 329.78,-53.69 328,-60.89 332.88,-60.43"/>
</g>
<!-- n6&#45;&gt;n1 -->
<g id="edge9" class="edge">
<title>n6&#45;&gt;n1</title>
<path fill="none" stroke="#64748b" d="M373.78,-303.7C384.06,-294.69 396.78,-283.57 407.86,-273.87"/>
<polygon fill="#64748b" stroke="#64748b" points="409.38,-275.8 413.04,-269.34 406.15,-272.11 409.38,-275.8"/>
</g>
<!-- n6&#45;&gt;n5 -->
<g id="edge10" class="edge">
<title>n6&#45;&gt;n5</title>
<path fill="none" stroke="#64748b" d="M326.28,-303.52C311.46,-294.18 293.1,-282.59 277.38,-272.68"/>
<polygon fill="#64748b" stroke="#64748b" points="278.88,-270.73 271.65,-269.07 276.26,-274.87 278.88,-270.73"/>
</g>
<!-- n7 -->
<g id="node8" class="node">
<title>n7</title>
<g id="a_node8"><a xlink:href="vscode://vscode-remote/wsl+Ubuntu/home/gavin/statlib/Statlib/Fourier/triangleKernel_eq_on_nonpos.lean:8" xlink:title="lemma · Statlib/Fourier/triangleKernel_eq_on_nonpos.lean:8" target="_blank">
<path fill="#eef2f6" stroke="#94a3b8" d="M514.72,-124C514.72,-124 389.28,-124 389.28,-124 383.28,-124 377.28,-118 377.28,-112 377.28,-112 377.28,-100 377.28,-100 377.28,-94 383.28,-88 389.28,-88 389.28,-88 514.72,-88 514.72,-88 520.72,-88 526.72,-94 526.72,-100 526.72,-100 526.72,-112 526.72,-112 526.72,-118 520.72,-124 514.72,-124"/>
<text xml:space="preserve" text-anchor="middle" x="452" y="-103" font-family="Helvetica,sans-Serif" font-size="10.00">triangleKernel_eq_on_nonpos</text>
</a>
</g>
</g>
<!-- n7&#45;&gt;n0 -->
<g id="edge11" class="edge">
<title>n7&#45;&gt;n0</title>
<path fill="none" stroke="#64748b" d="M421.03,-87.52C404.33,-78.09 383.59,-66.38 365.93,-56.41"/>
<polygon fill="#64748b" stroke="#64748b" points="367.19,-54.31 359.89,-53 364.79,-58.58 367.19,-54.31"/>
</g>
<!-- n8 -->
<g id="node9" class="node">
<title>n8</title>
<g id="a_node9"><a xlink:href="vscode://vscode-remote/wsl+Ubuntu/home/gavin/statlib/Statlib/Fourier/triangleKernel_eq_on_nonneg.lean:8" xlink:title="lemma · Statlib/Fourier/triangleKernel_eq_on_nonneg.lean:8" target="_blank">
<path fill="#eef2f6" stroke="#94a3b8" d="M548,-196C548,-196 422,-196 422,-196 416,-196 410,-190 410,-184 410,-184 410,-172 410,-172 410,-166 416,-160 422,-160 422,-160 548,-160 548,-160 554,-160 560,-166 560,-172 560,-172 560,-184 560,-184 560,-190 554,-196 548,-196"/>
<text xml:space="preserve" text-anchor="middle" x="485" y="-175" font-family="Helvetica,sans-Serif" font-size="10.00">triangleKernel_eq_on_nonneg</text>
</a>
</g>
</g>
<!-- n8&#45;&gt;n0 -->
<g id="edge12" class="edge">
<title>n8&#45;&gt;n0</title>
<path fill="none" stroke="#64748b" d="M506.97,-159.71C527.95,-141.1 553.92,-111.06 536,-88 516.48,-62.88 430.48,-47.69 375.36,-40.36"/>
<polygon fill="#64748b" stroke="#64748b" points="375.88,-37.96 368.62,-39.49 375.25,-42.82 375.88,-37.96"/>
</g>
<!-- n9 -->
<g id="node10" class="node">
<title>n9</title>
<g id="a_node10"><a xlink:href="vscode://vscode-remote/wsl+Ubuntu/home/gavin/statlib/Statlib/Fourier/triangleKernel_integral.lean:13" xlink:title="lemma · Statlib/Fourier/triangleKernel_integral.lean:13" target="_blank">
<path fill="#eef2f6" stroke="#94a3b8" d="M563.03,-340C563.03,-340 470.97,-340 470.97,-340 464.97,-340 458.97,-334 458.97,-328 458.97,-328 458.97,-316 458.97,-316 458.97,-310 464.97,-304 470.97,-304 470.97,-304 563.03,-304 563.03,-304 569.03,-304 575.03,-310 575.03,-316 575.03,-316 575.03,-328 575.03,-328 575.03,-334 569.03,-340 563.03,-340"/>
<text xml:space="preserve" text-anchor="middle" x="517" y="-319" font-family="Helvetica,sans-Serif" font-size="10.00">triangleKernel_integral</text>
</a>
</g>
</g>
<!-- n9&#45;&gt;n0 -->
<g id="edge13" class="edge">
<title>n9&#45;&gt;n0</title>
<path fill="none" stroke="#64748b" d="M530.17,-303.66C537.22,-293.68 545.54,-280.65 551,-268 582.74,-194.5 603.2,-141.9 544,-88 519.56,-65.75 431.2,-49.55 375.35,-41.27"/>
<polygon fill="#64748b" stroke="#64748b" points="375.79,-38.86 368.51,-40.27 375.09,-43.71 375.79,-38.86"/>
</g>
<!-- n9&#45;&gt;n1 -->
<g id="edge15" class="edge">
<title>n9&#45;&gt;n1</title>
<path fill="none" stroke="#64748b" d="M496.48,-303.7C485.71,-294.61 472.37,-283.36 460.79,-273.6"/>
<polygon fill="#64748b" stroke="#64748b" points="462.66,-271.96 455.73,-269.32 459.5,-275.71 462.66,-271.96"/>
</g>
<!-- n9&#45;&gt;n4 -->
<g id="edge14" class="edge">
<title>n9&#45;&gt;n4</title>
<path fill="none" stroke="#64748b" d="M521.03,-303.51C524.51,-283.58 526.55,-251.27 509,-232 495.38,-217.04 386.75,-200.04 307.39,-189.42"/>
<polygon fill="#64748b" stroke="#64748b" points="308.08,-187.04 300.82,-188.55 307.44,-191.9 308.08,-187.04"/>
</g>
<!-- n9&#45;&gt;n7 -->
<g id="edge16" class="edge">
<title>n9&#45;&gt;n7</title>
<path fill="none" stroke="#64748b" d="M523.7,-303.72C530.02,-284.28 536.42,-252.72 521,-232 487.76,-187.33 434.24,-240.67 401,-196 385.3,-174.89 404.7,-148.51 423.92,-129.97"/>
<polygon fill="#64748b" stroke="#64748b" points="425.26,-132.07 428.73,-125.51 421.93,-128.47 425.26,-132.07"/>
</g>
<!-- n9&#45;&gt;n8 -->
<g id="edge17" class="edge">
<title>n9&#45;&gt;n8</title>
<path fill="none" stroke="#64748b" d="M529.34,-303.81C540.84,-285.55 554.72,-256.04 544,-232 538.71,-220.14 529.31,-209.82 519.54,-201.52"/>
<polygon fill="#64748b" stroke="#64748b" points="521.28,-199.78 514.29,-197.31 518.22,-203.6 521.28,-199.78"/>
</g>
<!-- n10 -->
<g id="node11" class="node">
<title>n10</title>
<g id="a_node11"><a xlink:href="vscode://vscode-remote/wsl+Ubuntu/home/gavin/statlib/Statlib/Fourier/triangleKernel_first_moment.lean:14" xlink:title="lemma · Statlib/Fourier/triangleKernel_first_moment.lean:14" target="_blank">
<path fill="#eef2f6" stroke="#94a3b8" d="M270.53,-412C270.53,-412 153.47,-412 153.47,-412 147.47,-412 141.47,-406 141.47,-400 141.47,-400 141.47,-388 141.47,-388 141.47,-382 147.47,-376 153.47,-376 153.47,-376 270.53,-376 270.53,-376 276.53,-376 282.53,-382 282.53,-388 282.53,-388 282.53,-400 282.53,-400 282.53,-406 276.53,-412 270.53,-412"/>
<text xml:space="preserve" text-anchor="middle" x="212" y="-391" font-family="Helvetica,sans-Serif" font-size="10.00">triangleKernel_first_moment</text>
</a>
</g>
</g>
<!-- n10&#45;&gt;n0 -->
<g id="edge18" class="edge">
<title>n10&#45;&gt;n0</title>
<path fill="none" stroke="#64748b" d="M206.77,-375.54C199.34,-351.17 186.08,-309.33 181,-304 151.58,-273.1 116.46,-302.96 92,-268 69.06,-235.21 61.93,-119.19 87,-88 110.83,-58.36 217.51,-44.34 280.67,-38.53"/>
<polygon fill="#64748b" stroke="#64748b" points="280.64,-41 287.39,-37.93 280.2,-36.11 280.64,-41"/>
</g>
<!-- n10&#45;&gt;n1 -->
<g id="edge21" class="edge">
<title>n10&#45;&gt;n1</title>
<path fill="none" stroke="#64748b" d="M221.19,-375.82C232.68,-355.88 254.15,-323.26 281,-304 304.29,-287.29 333.29,-275.49 359.77,-267.33"/>
<polygon fill="#64748b" stroke="#64748b" points="360.43,-269.69 366.44,-265.34 359.03,-264.99 360.43,-269.69"/>
</g>
<!-- n10&#45;&gt;n2 -->
<g id="edge19" class="edge">
<title>n10&#45;&gt;n2</title>
<path fill="none" stroke="#64748b" d="M187.52,-375.52C174.56,-366.26 158.52,-354.8 144.73,-344.95"/>
<polygon fill="#64748b" stroke="#64748b" points="146.52,-343.22 139.4,-341.14 143.67,-347.2 146.52,-343.22"/>
</g>
<!-- n10&#45;&gt;n3 -->
<g id="edge20" class="edge">
<title>n10&#45;&gt;n3</title>
<path fill="none" stroke="#64748b" d="M213.46,-375.65C214.16,-356.14 212.32,-324.52 196,-304 170.72,-272.21 134.36,-301.91 112,-268 85.58,-227.93 92.09,-203.68 112,-160 117.44,-148.06 127.05,-137.77 137.05,-129.52"/>
<polygon fill="#64748b" stroke="#64748b" points="138.42,-131.56 142.44,-125.33 135.42,-127.69 138.42,-131.56"/>
</g>
<!-- n10&#45;&gt;n4 -->
<g id="edge22" class="edge">
<title>n10&#45;&gt;n4</title>
<path fill="none" stroke="#64748b" d="M218.17,-375.53C223.74,-356.49 229.23,-325.82 216,-304 198.07,-274.42 164.93,-297.58 147,-268 138.71,-254.32 139.6,-246.19 147,-232 153.66,-219.24 164.94,-208.93 176.8,-200.91"/>
<polygon fill="#64748b" stroke="#64748b" points="177.95,-203.09 182.55,-197.27 175.32,-198.95 177.95,-203.09"/>
</g>
<!-- n10&#45;&gt;n6 -->
<g id="edge23" class="edge">
<title>n10&#45;&gt;n6</title>
<path fill="none" stroke="#64748b" d="M247.47,-375.52C266.84,-365.97 290.97,-354.07 311.37,-344.01"/>
<polygon fill="#64748b" stroke="#64748b" points="312.43,-346.22 317.63,-340.93 310.27,-341.83 312.43,-346.22"/>
</g>
<!-- n10&#45;&gt;n9 -->
<g id="edge24" class="edge">
<title>n10&#45;&gt;n9</title>
<path fill="none" stroke="#64748b" d="M282.74,-376.76C333.42,-365.13 401.19,-349.58 450.8,-338.19"/>
<polygon fill="#64748b" stroke="#64748b" points="451.16,-340.62 457.44,-336.67 450.07,-335.85 451.16,-340.62"/>
</g>
<!-- n11 -->
<g id="node12" class="node">
<title>n11</title>
<g id="a_node12"><a xlink:href="vscode://vscode-remote/wsl+Ubuntu/home/gavin/statlib/Statlib/Fourier/triangleKernel_tail.lean:12" xlink:title="lemma · Statlib/Fourier/triangleKernel_tail.lean:12" target="_blank">
<path fill="#eef2f6" stroke="#94a3b8" d="M405.02,-412C405.02,-412 332.98,-412 332.98,-412 326.98,-412 320.98,-406 320.98,-400 320.98,-400 320.98,-388 320.98,-388 320.98,-382 326.98,-376 332.98,-376 332.98,-376 405.02,-376 405.02,-376 411.02,-376 417.02,-382 417.02,-388 417.02,-388 417.02,-400 417.02,-400 417.02,-406 411.02,-412 405.02,-412"/>
<text xml:space="preserve" text-anchor="middle" x="369" y="-391" font-family="Helvetica,sans-Serif" font-size="10.00">triangleKernel_tail</text>
</a>
</g>
</g>
<!-- n11&#45;&gt;n0 -->
<g id="edge25" class="edge">
<title>n11&#45;&gt;n0</title>
<path fill="none" stroke="#64748b" d="M417.47,-387.25C473.74,-379.56 561.71,-364.02 584,-340 611.29,-310.6 599,-291.11 599,-251 599,-251 599,-251 599,-177 599,-134.33 595.52,-115.62 563,-88 535.14,-64.34 435.78,-48.28 375.54,-40.47"/>
<polygon fill="#64748b" stroke="#64748b" points="376.07,-38.07 368.81,-39.62 375.45,-42.93 376.07,-38.07"/>
</g>
<!-- n11&#45;&gt;n2 -->
<g id="edge28" class="edge">
<title>n11&#45;&gt;n2</title>
<path fill="none" stroke="#64748b" d="M320.74,-379.75C281.18,-368.89 224.77,-353.41 180.86,-341.35"/>
<polygon fill="#64748b" stroke="#64748b" points="181.68,-339.04 174.28,-339.55 180.38,-343.76 181.68,-339.04"/>
</g>
<!-- n11&#45;&gt;n3 -->
<g id="edge26" class="edge">
<title>n11&#45;&gt;n3</title>
<path fill="none" stroke="#64748b" d="M337.92,-375.73C277.18,-341.96 148.51,-270.24 147,-268 120.16,-228.01 124.14,-206.13 138,-160 141.07,-149.77 146.83,-139.69 152.8,-131.12"/>
<polygon fill="#64748b" stroke="#64748b" points="154.75,-132.61 156.92,-125.52 150.8,-129.71 154.75,-132.61"/>
</g>
<!-- n11&#45;&gt;n6 -->
<g id="edge27" class="edge">
<title>n11&#45;&gt;n6</title>
<path fill="none" stroke="#64748b" d="M365.29,-375.7C363.53,-367.47 361.39,-357.48 359.45,-348.42"/>
<polygon fill="#64748b" stroke="#64748b" points="361.84,-347.92 357.98,-341.58 357.05,-348.94 361.84,-347.92"/>
</g>
<!-- n11&#45;&gt;n9 -->
<g id="edge29" class="edge">
<title>n11&#45;&gt;n9</title>
<path fill="none" stroke="#64748b" d="M405.96,-375.52C426.17,-365.96 451.34,-354.05 472.61,-344"/>
<polygon fill="#64748b" stroke="#64748b" points="473.6,-346.24 478.88,-341.03 471.51,-341.81 473.6,-346.24"/>
</g>
<!-- n12 -->
<g id="node13" class="node">
<title>n12</title>
<g id="a_node13"><a xlink:href="vscode://vscode-remote/wsl+Ubuntu/home/gavin/statlib/Statlib/Fourier/jackson_kernel_tail_bound.lean:32" xlink:title="lemma · Statlib/Fourier/jackson_kernel_tail_bound.lean:32" target="_blank">
<path fill="#eef2f6" stroke="#94a3b8" stroke-width="3" d="M312.21,-484C312.21,-484 201.79,-484 201.79,-484 195.79,-484 189.79,-478 189.79,-472 189.79,-472 189.79,-460 189.79,-460 189.79,-454 195.79,-448 201.79,-448 201.79,-448 312.21,-448 312.21,-448 318.21,-448 324.21,-454 324.21,-460 324.21,-460 324.21,-472 324.21,-472 324.21,-478 318.21,-484 312.21,-484"/>
<text xml:space="preserve" text-anchor="middle" x="257" y="-463" font-family="Helvetica,sans-Serif" font-size="10.00">jackson_kernel_tail_bound</text>
</a>
</g>
</g>
<!-- n12&#45;&gt;n0 -->
<g id="edge30" class="edge">
<title>n12&#45;&gt;n0</title>
<path fill="none" stroke="#64748b" d="M188.77,-462.82C144.95,-458.02 89.44,-445.14 52,-412 20.17,-383.83 17,-365.5 17,-323 17,-323 17,-323 17,-177 17,-135.4 14.74,-115.46 46,-88 80.21,-57.95 209.38,-43.79 280.43,-38.15"/>
<polygon fill="#64748b" stroke="#64748b" points="280.49,-40.6 287.29,-37.62 280.12,-35.72 280.49,-40.6"/>
</g>
<!-- n12&#45;&gt;n1 -->
<g id="edge31" class="edge">
<title>n12&#45;&gt;n1</title>
<path fill="none" stroke="#64748b" d="M325.57,-461.52C361.32,-455.86 402.39,-442.53 426,-412 441.8,-391.57 438.98,-316.93 436.17,-276.85"/>
<polygon fill="#64748b" stroke="#64748b" points="438.62,-276.7 435.65,-269.9 433.73,-277.06 438.62,-276.7"/>
</g>
<!-- n12&#45;&gt;n2 -->
<g id="edge32" class="edge">
<title>n12&#45;&gt;n2</title>
<path fill="none" stroke="#64748b" d="M188.32,-449.31C167.47,-441.36 146.31,-429.53 132,-412 117.56,-394.32 113.7,-368.16 113.07,-348.77"/>
<polygon fill="#64748b" stroke="#64748b" points="115.52,-348.88 112.99,-341.91 110.62,-348.94 115.52,-348.88"/>
</g>
<!-- n12&#45;&gt;n3 -->
<g id="edge37" class="edge">
<title>n12&#45;&gt;n3</title>
<path fill="none" stroke="#64748b" d="M188.3,-451C123.75,-433.37 37,-396.08 37,-323 37,-323 37,-323 37,-249 37,-194.21 90.46,-152.3 130.35,-128.66"/>
<polygon fill="#64748b" stroke="#64748b" points="131.48,-130.84 136.31,-125.22 129.02,-126.6 131.48,-130.84"/>
</g>
<!-- n12&#45;&gt;n6 -->
<g id="edge33" class="edge">
<title>n12&#45;&gt;n6</title>
<path fill="none" stroke="#64748b" d="M269.66,-446.58C276.47,-436.49 284.91,-423.69 292,-412 301.49,-396.35 301.84,-391.22 312,-376 318.65,-366.04 326.67,-355.6 333.91,-346.65"/>
<polygon fill="#64748b" stroke="#64748b" points="335.75,-348.26 338.3,-341.3 331.96,-345.16 335.75,-348.26"/>
</g>
<!-- n12&#45;&gt;n9 -->
<g id="edge34" class="edge">
<title>n12&#45;&gt;n9</title>
<path fill="none" stroke="#64748b" d="M325.66,-455.31C362.38,-447.77 407.09,-434.61 442,-412 467.53,-395.47 488.96,-367.61 502.29,-347.46"/>
<polygon fill="#64748b" stroke="#64748b" points="504.28,-348.9 506.01,-341.69 500.16,-346.25 504.28,-348.9"/>
</g>
<!-- n12&#45;&gt;n10 -->
<g id="edge35" class="edge">
<title>n12&#45;&gt;n10</title>
<path fill="none" stroke="#64748b" d="M245.18,-446.61C239.75,-438.17 233.25,-428.06 227.44,-419.02"/>
<polygon fill="#64748b" stroke="#64748b" points="229.64,-417.9 223.79,-413.34 225.52,-420.55 229.64,-417.9"/>
</g>
<!-- n12&#45;&gt;n11 -->
<g id="edge36" class="edge">
<title>n12&#45;&gt;n11</title>
<path fill="none" stroke="#64748b" d="M286.43,-446.61C301.15,-437.4 319.07,-426.21 334.44,-416.6"/>
<polygon fill="#64748b" stroke="#64748b" points="335.39,-418.9 340.03,-413.11 332.79,-414.74 335.39,-418.9"/>
</g>
</g>
</svg>
