<?xml version="1.0" encoding="UTF-8" standalone="no"?>
<!DOCTYPE svg PUBLIC "-//W3C//DTD SVG 1.1//EN"
 "http://www.w3.org/Graphics/SVG/1.1/DTD/svg11.dtd">
<!-- Generated by graphviz version 15.0.0 (20260523.1842)
 -->
<!-- Title: sinc4Kernel_integral Pages: 1 -->
<svg width="610pt" height="482pt"
 viewBox="0.00 0.00 610.00 482.00" xmlns="http://www.w3.org/2000/svg" xmlns:xlink="http://www.w3.org/1999/xlink">
<g id="graph0" class="graph" transform="scale(1 1) rotate(0) translate(4 478)">
<title>sinc4Kernel_integral</title>
<polygon fill="white" stroke="none" points="-4,4 -4,-478 606,-478 606,4 -4,4"/>
<text xml:space="preserve" text-anchor="middle" x="301" y="-457.4" font-family="Helvetica,sans-Serif" font-size="14.00">Proof narrative — sinc4Kernel_integral &#160;(11 decls)</text>
<g id="clust1" class="cluster">
<title>cluster_0</title>
<path fill="none" stroke="#cbd5e1" stroke-dasharray="5,2" d="M20,-8C20,-8 582,-8 582,-8 588,-8 594,-14 594,-20 594,-20 594,-429.2 594,-429.2 594,-435.2 588,-441.2 582,-441.2 582,-441.2 20,-441.2 20,-441.2 14,-441.2 8,-435.2 8,-429.2 8,-429.2 8,-20 8,-20 8,-14 14,-8 20,-8"/>
<text xml:space="preserve" text-anchor="middle" x="301" y="-427.3" font-family="Helvetica,sans-Serif" font-size="11.00">Fourier</text>
</g>
<!-- n0 -->
<g id="node1" class="node">
<title>n0</title>
<g id="a_node1"><a xlink:href="vscode://vscode-remote/wsl+Ubuntu/home/gavin/statlib/Statlib/Fourier/triangleKernel.lean:7" xlink:title="noncomputable def · Statlib/Fourier/triangleKernel.lean:7" target="_blank">
<path fill="#d6e9ff" stroke="#3b82f6" d="M265.85,-52C265.85,-52 212.15,-52 212.15,-52 206.15,-52 200.15,-46 200.15,-40 200.15,-40 200.15,-28 200.15,-28 200.15,-22 206.15,-16 212.15,-16 212.15,-16 265.85,-16 265.85,-16 271.85,-16 277.85,-22 277.85,-28 277.85,-28 277.85,-40 277.85,-40 277.85,-46 271.85,-52 265.85,-52"/>
<text xml:space="preserve" text-anchor="middle" x="239" y="-31" font-family="Helvetica,sans-Serif" font-size="10.00">triangleKernel</text>
</a>
</g>
</g>
<!-- n1 -->
<g id="node2" class="node">
<title>n1</title>
<g id="a_node2"><a xlink:href="vscode://vscode-remote/wsl+Ubuntu/home/gavin/statlib/Statlib/Fourier/sinc4Kernel.lean:9" xlink:title="noncomputable def · Statlib/Fourier/sinc4Kernel.lean:9" target="_blank">
<path fill="#d6e9ff" stroke="#3b82f6" d="M72.13,-124C72.13,-124 27.87,-124 27.87,-124 21.87,-124 15.87,-118 15.87,-112 15.87,-112 15.87,-100 15.87,-100 15.87,-94 21.87,-88 27.87,-88 27.87,-88 72.13,-88 72.13,-88 78.13,-88 84.13,-94 84.13,-100 84.13,-100 84.13,-112 84.13,-112 84.13,-118 78.13,-124 72.13,-124"/>
<text xml:space="preserve" text-anchor="middle" x="50" y="-103" font-family="Helvetica,sans-Serif" font-size="10.00">sinc4Kernel</text>
</a>
</g>
</g>
<!-- n1&#45;&gt;n0 -->
<g id="edge1" class="edge">
<title>n1&#45;&gt;n0</title>
<path fill="none" stroke="#64748b" d="M84.23,-92.32C114.36,-81.16 158.53,-64.8 191.98,-52.41"/>
<polygon fill="#64748b" stroke="#64748b" points="192.67,-54.77 198.39,-50.04 190.97,-50.18 192.67,-54.77"/>
</g>
<!-- n2 -->
<g id="node3" class="node">
<title>n2</title>
<g id="a_node3"><a xlink:href="vscode://vscode-remote/wsl+Ubuntu/home/gavin/statlib/Statlib/Fourier/triangleKernel_continuous.lean:8" xlink:title="lemma · Statlib/Fourier/triangleKernel_continuous.lean:8" target="_blank">
<path fill="#eef2f6" stroke="#94a3b8" d="M365.82,-196C365.82,-196 258.18,-196 258.18,-196 252.18,-196 246.18,-190 246.18,-184 246.18,-184 246.18,-172 246.18,-172 246.18,-166 252.18,-160 258.18,-160 258.18,-160 365.82,-160 365.82,-160 371.82,-160 377.82,-166 377.82,-172 377.82,-172 377.82,-184 377.82,-184 377.82,-190 371.82,-196 365.82,-196"/>
<text xml:space="preserve" text-anchor="middle" x="312" y="-175" font-family="Helvetica,sans-Serif" font-size="10.00">triangleKernel_continuous</text>
</a>
</g>
</g>
<!-- n2&#45;&gt;n0 -->
<g id="edge2" class="edge">
<title>n2&#45;&gt;n0</title>
<path fill="none" stroke="#64748b" d="M320.52,-159.79C328.53,-140.97 337.56,-110.5 325,-88 316.33,-72.47 301.03,-60.93 285.72,-52.65"/>
<polygon fill="#64748b" stroke="#64748b" points="286.93,-50.52 279.58,-49.53 284.71,-54.89 286.93,-50.52"/>
</g>
<!-- n3 -->
<g id="node4" class="node">
<title>n3</title>
<g id="a_node4"><a xlink:href="vscode://vscode-remote/wsl+Ubuntu/home/gavin/statlib/Statlib/Fourier/triangleKernel_zero_of_abs_ge.lean:8" xlink:title="lemma · Statlib/Fourier/triangleKernel_zero_of_abs_ge.lean:8" target="_blank">
<path fill="#eef2f6" stroke="#94a3b8" d="M304.49,-124C304.49,-124 173.51,-124 173.51,-124 167.51,-124 161.51,-118 161.51,-112 161.51,-112 161.51,-100 161.51,-100 161.51,-94 167.51,-88 173.51,-88 173.51,-88 304.49,-88 304.49,-88 310.49,-88 316.49,-94 316.49,-100 316.49,-100 316.49,-112 316.49,-112 316.49,-118 310.49,-124 304.49,-124"/>
<text xml:space="preserve" text-anchor="middle" x="239" y="-103" font-family="Helvetica,sans-Serif" font-size="10.00">triangleKernel_zero_of_abs_ge</text>
</a>
</g>
</g>
<!-- n3&#45;&gt;n0 -->
<g id="edge3" class="edge">
<title>n3&#45;&gt;n0</title>
<path fill="none" stroke="#64748b" d="M239,-87.7C239,-79.47 239,-69.48 239,-60.42"/>
<polygon fill="#64748b" stroke="#64748b" points="241.45,-60.62 239,-53.62 236.55,-60.62 241.45,-60.62"/>
</g>
<!-- n4 -->
<g id="node5" class="node">
<title>n4</title>
<g id="a_node5"><a xlink:href="vscode://vscode-remote/wsl+Ubuntu/home/gavin/statlib/Statlib/Fourier/triangleKernel_support_subset.lean:9" xlink:title="lemma · Statlib/Fourier/triangleKernel_support_subset.lean:9" target="_blank">
<path fill="#eef2f6" stroke="#94a3b8" d="M215.82,-196C215.82,-196 88.18,-196 88.18,-196 82.18,-196 76.18,-190 76.18,-184 76.18,-184 76.18,-172 76.18,-172 76.18,-166 82.18,-160 88.18,-160 88.18,-160 215.82,-160 215.82,-160 221.82,-160 227.82,-166 227.82,-172 227.82,-172 227.82,-184 227.82,-184 227.82,-190 221.82,-196 215.82,-196"/>
<text xml:space="preserve" text-anchor="middle" x="152" y="-175" font-family="Helvetica,sans-Serif" font-size="10.00">triangleKernel_support_subset</text>
</a>
</g>
</g>
<!-- n4&#45;&gt;n0 -->
<g id="edge4" class="edge">
<title>n4&#45;&gt;n0</title>
<path fill="none" stroke="#64748b" d="M147.53,-159.67C143.66,-140.75 140.45,-110.19 153,-88 161.76,-72.52 177.07,-60.99 192.37,-52.71"/>
<polygon fill="#64748b" stroke="#64748b" points="193.38,-54.94 198.51,-49.58 191.16,-50.58 193.38,-54.94"/>
</g>
<!-- n4&#45;&gt;n3 -->
<g id="edge5" class="edge">
<title>n4&#45;&gt;n3</title>
<path fill="none" stroke="#64748b" d="M173.51,-159.7C184.8,-150.61 198.78,-139.36 210.91,-129.6"/>
<polygon fill="#64748b" stroke="#64748b" points="212.34,-131.59 216.26,-125.3 209.27,-127.78 212.34,-131.59"/>
</g>
<!-- n5 -->
<g id="node6" class="node">
<title>n5</title>
<g id="a_node6"><a xlink:href="vscode://vscode-remote/wsl+Ubuntu/home/gavin/statlib/Statlib/Fourier/triangleKernel_hasCompactSupport.lean:9" xlink:title="lemma · Statlib/Fourier/triangleKernel_hasCompactSupport.lean:9" target="_blank">
<path fill="#eef2f6" stroke="#94a3b8" d="M222.21,-268C222.21,-268 71.79,-268 71.79,-268 65.79,-268 59.79,-262 59.79,-256 59.79,-256 59.79,-244 59.79,-244 59.79,-238 65.79,-232 71.79,-232 71.79,-232 222.21,-232 222.21,-232 228.21,-232 234.21,-238 234.21,-244 234.21,-244 234.21,-256 234.21,-256 234.21,-262 228.21,-268 222.21,-268"/>
<text xml:space="preserve" text-anchor="middle" x="147" y="-247" font-family="Helvetica,sans-Serif" font-size="10.00">triangleKernel_hasCompactSupport</text>
</a>
</g>
</g>
<!-- n5&#45;&gt;n0 -->
<g id="edge6" class="edge">
<title>n5&#45;&gt;n0</title>
<path fill="none" stroke="#64748b" d="M104.97,-231.52C90.22,-223.1 75.28,-211.41 67,-196 59.43,-181.9 60.4,-174.58 67,-160 77,-137.91 90.8,-141.09 108,-124 123.18,-108.91 123.19,-101.26 140,-88 155.94,-75.43 175.29,-64.32 192.64,-55.55"/>
<polygon fill="#64748b" stroke="#64748b" points="193.39,-57.92 198.58,-52.62 191.22,-53.52 193.39,-57.92"/>
</g>
<!-- n5&#45;&gt;n4 -->
<g id="edge7" class="edge">
<title>n5&#45;&gt;n4</title>
<path fill="none" stroke="#64748b" d="M148.24,-231.7C148.82,-223.47 149.54,-213.48 150.18,-204.42"/>
<polygon fill="#64748b" stroke="#64748b" points="152.62,-204.77 150.67,-197.61 147.73,-204.42 152.62,-204.77"/>
</g>
<!-- n6 -->
<g id="node7" class="node">
<title>n6</title>
<g id="a_node7"><a xlink:href="vscode://vscode-remote/wsl+Ubuntu/home/gavin/statlib/Statlib/Fourier/triangleKernel_integrable.lean:10" xlink:title="lemma · Statlib/Fourier/triangleKernel_integrable.lean:10" target="_blank">
<path fill="#eef2f6" stroke="#94a3b8" d="M198.59,-340C198.59,-340 95.41,-340 95.41,-340 89.41,-340 83.41,-334 83.41,-328 83.41,-328 83.41,-316 83.41,-316 83.41,-310 89.41,-304 95.41,-304 95.41,-304 198.59,-304 198.59,-304 204.59,-304 210.59,-310 210.59,-316 210.59,-316 210.59,-328 210.59,-328 210.59,-334 204.59,-340 198.59,-340"/>
<text xml:space="preserve" text-anchor="middle" x="147" y="-319" font-family="Helvetica,sans-Serif" font-size="10.00">triangleKernel_integrable</text>
</a>
</g>
</g>
<!-- n6&#45;&gt;n0 -->
<g id="edge8" class="edge">
<title>n6&#45;&gt;n0</title>
<path fill="none" stroke="#64748b" d="M93.02,-303.59C76.61,-295.48 60.43,-283.99 51,-268 41.62,-252.1 50.03,-177.19 58,-160 67.39,-139.75 80.71,-142.63 93,-124 102.54,-109.53 95.68,-100.19 108,-88 130.77,-65.46 164.41,-52.12 191.89,-44.47"/>
<polygon fill="#64748b" stroke="#64748b" points="192.23,-46.91 198.37,-42.75 190.98,-42.17 192.23,-46.91"/>
</g>
<!-- n6&#45;&gt;n2 -->
<g id="edge9" class="edge">
<title>n6&#45;&gt;n2</title>
<path fill="none" stroke="#64748b" d="M186.68,-303.67C204.94,-294.59 226.22,-282.36 243,-268 264.86,-249.29 284.4,-222.67 297.05,-203.42"/>
<polygon fill="#64748b" stroke="#64748b" points="299,-204.92 300.73,-197.71 294.88,-202.27 299,-204.92"/>
</g>
<!-- n6&#45;&gt;n5 -->
<g id="edge10" class="edge">
<title>n6&#45;&gt;n5</title>
<path fill="none" stroke="#64748b" d="M147,-303.7C147,-295.47 147,-285.48 147,-276.42"/>
<polygon fill="#64748b" stroke="#64748b" points="149.45,-276.62 147,-269.62 144.55,-276.62 149.45,-276.62"/>
</g>
<!-- n7 -->
<g id="node8" class="node">
<title>n7</title>
<g id="a_node8"><a xlink:href="vscode://vscode-remote/wsl+Ubuntu/home/gavin/statlib/Statlib/Fourier/triangleKernel_eq_on_nonpos.lean:8" xlink:title="lemma · Statlib/Fourier/triangleKernel_eq_on_nonpos.lean:8" target="_blank">
<path fill="#eef2f6" stroke="#94a3b8" d="M491.72,-124C491.72,-124 366.28,-124 366.28,-124 360.28,-124 354.28,-118 354.28,-112 354.28,-112 354.28,-100 354.28,-100 354.28,-94 360.28,-88 366.28,-88 366.28,-88 491.72,-88 491.72,-88 497.72,-88 503.72,-94 503.72,-100 503.72,-100 503.72,-112 503.72,-112 503.72,-118 497.72,-124 491.72,-124"/>
<text xml:space="preserve" text-anchor="middle" x="429" y="-103" font-family="Helvetica,sans-Serif" font-size="10.00">triangleKernel_eq_on_nonpos</text>
</a>
</g>
</g>
<!-- n7&#45;&gt;n0 -->
<g id="edge11" class="edge">
<title>n7&#45;&gt;n0</title>
<path fill="none" stroke="#64748b" d="M381.55,-87.52C352.41,-76.78 315.23,-63.09 286.15,-52.37"/>
<polygon fill="#64748b" stroke="#64748b" points="287.01,-50.08 279.6,-49.96 285.32,-54.68 287.01,-50.08"/>
</g>
<!-- n8 -->
<g id="node9" class="node">
<title>n8</title>
<g id="a_node9"><a xlink:href="vscode://vscode-remote/wsl+Ubuntu/home/gavin/statlib/Statlib/Fourier/triangleKernel_eq_on_nonneg.lean:8" xlink:title="lemma · Statlib/Fourier/triangleKernel_eq_on_nonneg.lean:8" target="_blank">
<path fill="#eef2f6" stroke="#94a3b8" d="M554,-196C554,-196 428,-196 428,-196 422,-196 416,-190 416,-184 416,-184 416,-172 416,-172 416,-166 422,-160 428,-160 428,-160 554,-160 554,-160 560,-160 566,-166 566,-172 566,-172 566,-184 566,-184 566,-190 560,-196 554,-196"/>
<text xml:space="preserve" text-anchor="middle" x="491" y="-175" font-family="Helvetica,sans-Serif" font-size="10.00">triangleKernel_eq_on_nonneg</text>
</a>
</g>
</g>
<!-- n8&#45;&gt;n0 -->
<g id="edge12" class="edge">
<title>n8&#45;&gt;n0</title>
<path fill="none" stroke="#64748b" d="M503.26,-159.64C515.4,-140.13 529.92,-108.5 513,-88 484.81,-53.84 357.15,-41.44 286.46,-37.14"/>
<polygon fill="#64748b" stroke="#64748b" points="286.78,-34.71 279.64,-36.75 286.49,-39.6 286.78,-34.71"/>
</g>
<!-- n9 -->
<g id="node10" class="node">
<title>n9</title>
<g id="a_node10"><a xlink:href="vscode://vscode-remote/wsl+Ubuntu/home/gavin/statlib/Statlib/Fourier/triangleKernel_integral.lean:13" xlink:title="lemma · Statlib/Fourier/triangleKernel_integral.lean:13" target="_blank">
<path fill="#eef2f6" stroke="#94a3b8" d="M424.03,-268C424.03,-268 331.97,-268 331.97,-268 325.97,-268 319.97,-262 319.97,-256 319.97,-256 319.97,-244 319.97,-244 319.97,-238 325.97,-232 331.97,-232 331.97,-232 424.03,-232 424.03,-232 430.03,-232 436.03,-238 436.03,-244 436.03,-244 436.03,-256 436.03,-256 436.03,-262 430.03,-268 424.03,-268"/>
<text xml:space="preserve" text-anchor="middle" x="378" y="-247" font-family="Helvetica,sans-Serif" font-size="10.00">triangleKernel_integral</text>
</a>
</g>
</g>
<!-- n9&#45;&gt;n0 -->
<g id="edge13" class="edge">
<title>n9&#45;&gt;n0</title>
<path fill="none" stroke="#64748b" d="M436.51,-241.17C488.27,-232.91 558.14,-218 575,-196 584.73,-183.3 579.99,-175.2 575,-160 562.6,-122.25 555.65,-109.13 522,-88 483.46,-63.8 356.56,-47.21 286.5,-39.65"/>
<polygon fill="#64748b" stroke="#64748b" points="286.97,-37.24 279.75,-38.93 286.45,-42.11 286.97,-37.24"/>
</g>
<!-- n9&#45;&gt;n2 -->
<g id="edge15" class="edge">
<title>n9&#45;&gt;n2</title>
<path fill="none" stroke="#64748b" d="M361.69,-231.7C353.29,-222.8 342.95,-211.82 333.87,-202.2"/>
<polygon fill="#64748b" stroke="#64748b" points="335.75,-200.62 329.17,-197.21 332.18,-203.98 335.75,-200.62"/>
</g>
<!-- n9&#45;&gt;n4 -->
<g id="edge14" class="edge">
<title>n9&#45;&gt;n4</title>
<path fill="none" stroke="#64748b" d="M321.55,-231.52C289.48,-221.58 249.21,-209.11 215.97,-198.81"/>
<polygon fill="#64748b" stroke="#64748b" points="216.98,-196.56 209.56,-196.83 215.53,-201.24 216.98,-196.56"/>
</g>
<!-- n9&#45;&gt;n7 -->
<g id="edge16" class="edge">
<title>n9&#45;&gt;n7</title>
<path fill="none" stroke="#64748b" d="M383.16,-231.8C388.68,-213.77 397.87,-184.69 407,-160 410.44,-150.7 414.53,-140.62 418.25,-131.77"/>
<polygon fill="#64748b" stroke="#64748b" points="420.45,-132.85 420.93,-125.44 415.94,-130.93 420.45,-132.85"/>
</g>
<!-- n9&#45;&gt;n8 -->
<g id="edge17" class="edge">
<title>n9&#45;&gt;n8</title>
<path fill="none" stroke="#64748b" d="M406.22,-231.52C421.3,-222.18 440,-210.59 456,-200.68"/>
<polygon fill="#64748b" stroke="#64748b" points="457.19,-202.83 461.85,-197.06 454.61,-198.66 457.19,-202.83"/>
</g>
<!-- n10 -->
<g id="node11" class="node">
<title>n10</title>
<g id="a_node11"><a xlink:href="vscode://vscode-remote/wsl+Ubuntu/home/gavin/statlib/Statlib/Fourier/sinc4Kernel_integral.lean:11" xlink:title="lemma · Statlib/Fourier/sinc4Kernel_integral.lean:11" target="_blank">
<path fill="#eef2f6" stroke="#94a3b8" stroke-width="3" d="M188.31,-412C188.31,-412 105.69,-412 105.69,-412 99.69,-412 93.69,-406 93.69,-400 93.69,-400 93.69,-388 93.69,-388 93.69,-382 99.69,-376 105.69,-376 105.69,-376 188.31,-376 188.31,-376 194.31,-376 200.31,-382 200.31,-388 200.31,-388 200.31,-400 200.31,-400 200.31,-406 194.31,-412 188.31,-412"/>
<text xml:space="preserve" text-anchor="middle" x="147" y="-391" font-family="Helvetica,sans-Serif" font-size="10.00">sinc4Kernel_integral</text>
</a>
</g>
</g>
<!-- n10&#45;&gt;n1 -->
<g id="edge18" class="edge">
<title>n10&#45;&gt;n1</title>
<path fill="none" stroke="#64748b" d="M114.09,-374.56C100.3,-365.55 84.96,-353.7 74,-340 52.24,-312.79 50.03,-302.12 43,-268 33.29,-220.91 39.77,-164.49 45.08,-132.49"/>
<polygon fill="#64748b" stroke="#64748b" points="47.49,-132.95 46.27,-125.63 42.66,-132.11 47.49,-132.95"/>
</g>
<!-- n10&#45;&gt;n6 -->
<g id="edge19" class="edge">
<title>n10&#45;&gt;n6</title>
<path fill="none" stroke="#64748b" d="M147,-374.61C147,-366.59 147,-357.05 147,-348.37"/>
<polygon fill="#64748b" stroke="#64748b" points="149.45,-348.58 147,-341.58 144.55,-348.58 149.45,-348.58"/>
</g>
<!-- n10&#45;&gt;n9 -->
<g id="edge20" class="edge">
<title>n10&#45;&gt;n9</title>
<path fill="none" stroke="#64748b" d="M176.73,-374.73C219.29,-348.56 297.46,-300.51 342.84,-272.61"/>
<polygon fill="#64748b" stroke="#64748b" points="343.86,-274.86 348.54,-269.11 341.3,-270.69 343.86,-274.86"/>
</g>
</g>
</svg>
