<?xml version="1.0" encoding="UTF-8" standalone="no"?>
<!DOCTYPE svg PUBLIC "-//W3C//DTD SVG 1.1//EN"
 "http://www.w3.org/Graphics/SVG/1.1/DTD/svg11.dtd">
<!-- Generated by graphviz version 15.0.0 (20260523.1842)
 -->
<!-- Title: bh_fdr_le Pages: 1 -->
<svg width="1052pt" height="626pt"
 viewBox="0.00 0.00 1052.00 626.00" xmlns="http://www.w3.org/2000/svg" xmlns:xlink="http://www.w3.org/1999/xlink">
<g id="graph0" class="graph" transform="scale(1 1) rotate(0) translate(4 622)">
<title>bh_fdr_le</title>
<polygon fill="white" stroke="none" points="-4,4 -4,-622 1048,-622 1048,4 -4,4"/>
<text xml:space="preserve" text-anchor="middle" x="522" y="-601.4" font-family="Helvetica,sans-Serif" font-size="14.00">Proof narrative — bh_fdr_le &#160;(24 decls)</text>
<g id="clust1" class="cluster">
<title>cluster_0</title>
<path fill="none" stroke="#cbd5e1" stroke-dasharray="5,2" d="M20,-8C20,-8 1024,-8 1024,-8 1030,-8 1036,-14 1036,-20 1036,-20 1036,-573.2 1036,-573.2 1036,-579.2 1030,-585.2 1024,-585.2 1024,-585.2 20,-585.2 20,-585.2 14,-585.2 8,-579.2 8,-573.2 8,-573.2 8,-20 8,-20 8,-14 14,-8 20,-8"/>
<text xml:space="preserve" text-anchor="middle" x="522" y="-571.3" font-family="Helvetica,sans-Serif" font-size="11.00">MultipleTesting</text>
</g>
<!-- n0 -->
<g id="node1" class="node">
<title>n0</title>
<g id="a_node1"><a xlink:href="vscode://vscode-remote/wsl+Ubuntu/home/gavin/statlib/Statlib/MultipleTesting/Basic.lean:51" xlink:title="structure · Statlib/MultipleTesting/Basic.lean:51" target="_blank">
<path fill="#e8dcff" stroke="#8b5cf6" d="M174.13,-412C174.13,-412 119.87,-412 119.87,-412 113.87,-412 107.87,-406 107.87,-400 107.87,-400 107.87,-388 107.87,-388 107.87,-382 113.87,-376 119.87,-376 119.87,-376 174.13,-376 174.13,-376 180.13,-376 186.13,-382 186.13,-388 186.13,-388 186.13,-400 186.13,-400 186.13,-406 180.13,-412 174.13,-412"/>
<text xml:space="preserve" text-anchor="middle" x="147" y="-391" font-family="Helvetica,sans-Serif" font-size="10.00">IsValidPValue</text>
</a>
</g>
</g>
<!-- n1 -->
<g id="node2" class="node">
<title>n1</title>
<g id="a_node2"><a xlink:href="vscode://vscode-remote/wsl+Ubuntu/home/gavin/statlib/Statlib/MultipleTesting/Basic.lean:69" xlink:title="noncomputable def · Statlib/MultipleTesting/Basic.lean:69" target="_blank">
<path fill="#d6e9ff" stroke="#3b82f6" d="M58,-412C58,-412 28,-412 28,-412 22,-412 16,-406 16,-400 16,-400 16,-388 16,-388 16,-382 22,-376 28,-376 28,-376 58,-376 58,-376 64,-376 70,-382 70,-388 70,-388 70,-400 70,-400 70,-406 64,-412 58,-412"/>
<text xml:space="preserve" text-anchor="middle" x="43" y="-391" font-family="Helvetica,sans-Serif" font-size="10.00">fdp</text>
</a>
</g>
</g>
<!-- n2 -->
<g id="node3" class="node">
<title>n2</title>
<g id="a_node3"><a xlink:href="vscode://vscode-remote/wsl+Ubuntu/home/gavin/statlib/Statlib/MultipleTesting/Basic.lean:76" xlink:title="noncomputable def · Statlib/MultipleTesting/Basic.lean:76" target="_blank">
<path fill="#d6e9ff" stroke="#3b82f6" d="M78,-484C78,-484 48,-484 48,-484 42,-484 36,-478 36,-472 36,-472 36,-460 36,-460 36,-454 42,-448 48,-448 48,-448 78,-448 78,-448 84,-448 90,-454 90,-460 90,-460 90,-472 90,-472 90,-478 84,-484 78,-484"/>
<text xml:space="preserve" text-anchor="middle" x="63" y="-463" font-family="Helvetica,sans-Serif" font-size="10.00">fdr</text>
</a>
</g>
</g>
<!-- n2&#45;&gt;n1 -->
<g id="edge1" class="edge">
<title>n2&#45;&gt;n1</title>
<path fill="none" stroke="#64748b" d="M58.06,-447.7C55.68,-439.39 52.79,-429.28 50.18,-420.14"/>
<polygon fill="#64748b" stroke="#64748b" points="52.58,-419.62 48.3,-413.56 47.87,-420.96 52.58,-419.62"/>
</g>
<!-- n3 -->
<g id="node4" class="node">
<title>n3</title>
<g id="a_node4"><a xlink:href="vscode://vscode-remote/wsl+Ubuntu/home/gavin/statlib/Statlib/MultipleTesting/Basic.lean:111" xlink:title="noncomputable def · Statlib/MultipleTesting/Basic.lean:111" target="_blank">
<path fill="#d6e9ff" stroke="#3b82f6" d="M688,-124C688,-124 658,-124 658,-124 652,-124 646,-118 646,-112 646,-112 646,-100 646,-100 646,-94 652,-88 658,-88 658,-88 688,-88 688,-88 694,-88 700,-94 700,-100 700,-100 700,-112 700,-112 700,-118 694,-124 688,-124"/>
<text xml:space="preserve" text-anchor="middle" x="673" y="-103" font-family="Helvetica,sans-Serif" font-size="10.00">bhCutoff</text>
</a>
</g>
</g>
<!-- n4 -->
<g id="node5" class="node">
<title>n4</title>
<g id="a_node5"><a xlink:href="vscode://vscode-remote/wsl+Ubuntu/home/gavin/statlib/Statlib/MultipleTesting/Basic.lean:125" xlink:title="noncomputable def · Statlib/MultipleTesting/Basic.lean:125" target="_blank">
<path fill="#d6e9ff" stroke="#3b82f6" d="M143.73,-196C143.73,-196 112.27,-196 112.27,-196 106.27,-196 100.27,-190 100.27,-184 100.27,-184 100.27,-172 100.27,-172 100.27,-166 106.27,-160 112.27,-160 112.27,-160 143.73,-160 143.73,-160 149.73,-160 155.73,-166 155.73,-172 155.73,-172 155.73,-184 155.73,-184 155.73,-190 149.73,-196 143.73,-196"/>
<text xml:space="preserve" text-anchor="middle" x="128" y="-175" font-family="Helvetica,sans-Serif" font-size="10.00">bhReject</text>
</a>
</g>
</g>
<!-- n4&#45;&gt;n3 -->
<g id="edge2" class="edge">
<title>n4&#45;&gt;n3</title>
<path fill="none" stroke="#64748b" d="M156.15,-173.38C247.54,-161.65 535.85,-124.61 637.28,-111.59"/>
<polygon fill="#64748b" stroke="#64748b" points="637.53,-114.03 644.16,-110.7 636.91,-109.17 637.53,-114.03"/>
</g>
<!-- n5 -->
<g id="node6" class="node">
<title>n5</title>
<g id="a_node6"><a xlink:href="vscode://vscode-remote/wsl+Ubuntu/home/gavin/statlib/Statlib/MultipleTesting/bhRejectionCount.lean:11" xlink:title="noncomputable def · Statlib/MultipleTesting/bhRejectionCount.lean:11" target="_blank">
<path fill="#d6e9ff" stroke="#3b82f6" d="M335.75,-268C335.75,-268 264.25,-268 264.25,-268 258.25,-268 252.25,-262 252.25,-256 252.25,-256 252.25,-244 252.25,-244 252.25,-238 258.25,-232 264.25,-232 264.25,-232 335.75,-232 335.75,-232 341.75,-232 347.75,-238 347.75,-244 347.75,-244 347.75,-256 347.75,-256 347.75,-262 341.75,-268 335.75,-268"/>
<text xml:space="preserve" text-anchor="middle" x="300" y="-247" font-family="Helvetica,sans-Serif" font-size="10.00">bhRejectionCount</text>
</a>
</g>
</g>
<!-- n5&#45;&gt;n4 -->
<g id="edge3" class="edge">
<title>n5&#45;&gt;n4</title>
<path fill="none" stroke="#64748b" d="M257.04,-231.52C228.33,-219.83 191,-204.64 163.88,-193.6"/>
<polygon fill="#64748b" stroke="#64748b" points="164.98,-191.4 157.57,-191.04 163.13,-195.94 164.98,-191.4"/>
</g>
<!-- n6 -->
<g id="node7" class="node">
<title>n6</title>
<g id="a_node7"><a xlink:href="vscode://vscode-remote/wsl+Ubuntu/home/gavin/statlib/Statlib/MultipleTesting/sorted_get_le_iff_countP_BH.lean:14" xlink:title="lemma · Statlib/MultipleTesting/sorted_get_le_iff_countP_BH.lean:14" target="_blank">
<path fill="#eef2f6" stroke="#94a3b8" d="M852.04,-124C852.04,-124 729.96,-124 729.96,-124 723.96,-124 717.96,-118 717.96,-112 717.96,-112 717.96,-100 717.96,-100 717.96,-94 723.96,-88 729.96,-88 729.96,-88 852.04,-88 852.04,-88 858.04,-88 864.04,-94 864.04,-100 864.04,-100 864.04,-112 864.04,-112 864.04,-118 858.04,-124 852.04,-124"/>
<text xml:space="preserve" text-anchor="middle" x="791" y="-103" font-family="Helvetica,sans-Serif" font-size="10.00">sorted_get_le_iff_countP_BH</text>
</a>
</g>
</g>
<!-- n7 -->
<g id="node8" class="node">
<title>n7</title>
<g id="a_node8"><a xlink:href="vscode://vscode-remote/wsl+Ubuntu/home/gavin/statlib/Statlib/MultipleTesting/countP_ofFn_eq_card_filter_BH.lean:16" xlink:title="lemma · Statlib/MultipleTesting/countP_ofFn_eq_card_filter_BH.lean:16" target="_blank">
<path fill="#eef2f6" stroke="#94a3b8" d="M1016.15,-52C1016.15,-52 881.85,-52 881.85,-52 875.85,-52 869.85,-46 869.85,-40 869.85,-40 869.85,-28 869.85,-28 869.85,-22 875.85,-16 881.85,-16 881.85,-16 1016.15,-16 1016.15,-16 1022.15,-16 1028.15,-22 1028.15,-28 1028.15,-28 1028.15,-40 1028.15,-40 1028.15,-46 1022.15,-52 1016.15,-52"/>
<text xml:space="preserve" text-anchor="middle" x="949" y="-31" font-family="Helvetica,sans-Serif" font-size="10.00">countP_ofFn_eq_card_filter_BH</text>
</a>
</g>
</g>
<!-- n8 -->
<g id="node9" class="node">
<title>n8</title>
<g id="a_node9"><a xlink:href="vscode://vscode-remote/wsl+Ubuntu/home/gavin/statlib/Statlib/MultipleTesting/card_filter_eq_countP_sorted.lean:14" xlink:title="lemma · Statlib/MultipleTesting/card_filter_eq_countP_sorted.lean:14" target="_blank">
<path fill="#eef2f6" stroke="#94a3b8" d="M1016.32,-124C1016.32,-124 893.68,-124 893.68,-124 887.68,-124 881.68,-118 881.68,-112 881.68,-112 881.68,-100 881.68,-100 881.68,-94 887.68,-88 893.68,-88 893.68,-88 1016.32,-88 1016.32,-88 1022.32,-88 1028.32,-94 1028.32,-100 1028.32,-100 1028.32,-112 1028.32,-112 1028.32,-118 1022.32,-124 1016.32,-124"/>
<text xml:space="preserve" text-anchor="middle" x="955" y="-103" font-family="Helvetica,sans-Serif" font-size="10.00">card_filter_eq_countP_sorted</text>
</a>
</g>
</g>
<!-- n8&#45;&gt;n7 -->
<g id="edge4" class="edge">
<title>n8&#45;&gt;n7</title>
<path fill="none" stroke="#64748b" d="M953.52,-87.7C952.81,-79.47 951.96,-69.48 951.18,-60.42"/>
<polygon fill="#64748b" stroke="#64748b" points="953.63,-60.38 950.6,-53.61 948.75,-60.8 953.63,-60.38"/>
</g>
<!-- n9 -->
<g id="node10" class="node">
<title>n9</title>
<g id="a_node10"><a xlink:href="vscode://vscode-remote/wsl+Ubuntu/home/gavin/statlib/Statlib/MultipleTesting/bhCutoff_measurable.lean:21" xlink:title="lemma · Statlib/MultipleTesting/bhCutoff_measurable.lean:21" target="_blank">
<path fill="#eef2f6" stroke="#94a3b8" d="M834.81,-196C834.81,-196 747.19,-196 747.19,-196 741.19,-196 735.19,-190 735.19,-184 735.19,-184 735.19,-172 735.19,-172 735.19,-166 741.19,-160 747.19,-160 747.19,-160 834.81,-160 834.81,-160 840.81,-160 846.81,-166 846.81,-172 846.81,-172 846.81,-184 846.81,-184 846.81,-190 840.81,-196 834.81,-196"/>
<text xml:space="preserve" text-anchor="middle" x="791" y="-175" font-family="Helvetica,sans-Serif" font-size="10.00">bhCutoff_measurable</text>
</a>
</g>
</g>
<!-- n9&#45;&gt;n3 -->
<g id="edge5" class="edge">
<title>n9&#45;&gt;n3</title>
<path fill="none" stroke="#64748b" d="M761.53,-159.52C745.16,-149.81 724.71,-137.68 707.59,-127.52"/>
<polygon fill="#64748b" stroke="#64748b" points="709.05,-125.54 701.78,-124.07 706.55,-129.75 709.05,-125.54"/>
</g>
<!-- n9&#45;&gt;n6 -->
<g id="edge6" class="edge">
<title>n9&#45;&gt;n6</title>
<path fill="none" stroke="#64748b" d="M791,-159.7C791,-151.47 791,-141.48 791,-132.42"/>
<polygon fill="#64748b" stroke="#64748b" points="793.45,-132.62 791,-125.62 788.55,-132.62 793.45,-132.62"/>
</g>
<!-- n9&#45;&gt;n8 -->
<g id="edge7" class="edge">
<title>n9&#45;&gt;n8</title>
<path fill="none" stroke="#64748b" d="M831.96,-159.52C854.65,-149.83 882.98,-137.74 906.74,-127.6"/>
<polygon fill="#64748b" stroke="#64748b" points="907.41,-129.98 912.89,-124.98 905.49,-125.47 907.41,-129.98"/>
</g>
<!-- n10 -->
<g id="node11" class="node">
<title>n10</title>
<g id="a_node11"><a xlink:href="vscode://vscode-remote/wsl+Ubuntu/home/gavin/statlib/Statlib/MultipleTesting/bhReject_measurableSet.lean:12" xlink:title="lemma · Statlib/MultipleTesting/bhReject_measurableSet.lean:12" target="_blank">
<path fill="#eef2f6" stroke="#94a3b8" d="M222.15,-268C222.15,-268 117.85,-268 117.85,-268 111.85,-268 105.85,-262 105.85,-256 105.85,-256 105.85,-244 105.85,-244 105.85,-238 111.85,-232 117.85,-232 117.85,-232 222.15,-232 222.15,-232 228.15,-232 234.15,-238 234.15,-244 234.15,-244 234.15,-256 234.15,-256 234.15,-262 228.15,-268 222.15,-268"/>
<text xml:space="preserve" text-anchor="middle" x="170" y="-247" font-family="Helvetica,sans-Serif" font-size="10.00">bhReject_measurableSet</text>
</a>
</g>
</g>
<!-- n10&#45;&gt;n4 -->
<g id="edge8" class="edge">
<title>n10&#45;&gt;n4</title>
<path fill="none" stroke="#64748b" d="M159.62,-231.7C154.48,-223.14 148.19,-212.66 142.58,-203.3"/>
<polygon fill="#64748b" stroke="#64748b" points="144.74,-202.14 139.04,-197.4 140.54,-204.67 144.74,-202.14"/>
</g>
<!-- n10&#45;&gt;n9 -->
<g id="edge9" class="edge">
<title>n10&#45;&gt;n9</title>
<path fill="none" stroke="#64748b" d="M234.39,-233.52C237.3,-232.97 240.17,-232.46 243,-232 416.62,-203.52 623.89,-188.59 726.65,-182.45"/>
<polygon fill="#64748b" stroke="#64748b" points="726.71,-184.91 733.56,-182.05 726.42,-180.01 726.71,-184.91"/>
</g>
<!-- n11 -->
<g id="node12" class="node">
<title>n11</title>
<g id="a_node12"><a xlink:href="vscode://vscode-remote/wsl+Ubuntu/home/gavin/statlib/Statlib/MultipleTesting/bhRejectionCount_measurable.lean:13" xlink:title="lemma · Statlib/MultipleTesting/bhRejectionCount_measurable.lean:13" target="_blank">
<path fill="#eef2f6" stroke="#94a3b8" d="M197.65,-340C197.65,-340 68.35,-340 68.35,-340 62.35,-340 56.35,-334 56.35,-328 56.35,-328 56.35,-316 56.35,-316 56.35,-310 62.35,-304 68.35,-304 68.35,-304 197.65,-304 197.65,-304 203.65,-304 209.65,-310 209.65,-316 209.65,-316 209.65,-328 209.65,-328 209.65,-334 203.65,-340 197.65,-340"/>
<text xml:space="preserve" text-anchor="middle" x="133" y="-319" font-family="Helvetica,sans-Serif" font-size="10.00">bhRejectionCount_measurable</text>
</a>
</g>
</g>
<!-- n11&#45;&gt;n4 -->
<g id="edge11" class="edge">
<title>n11&#45;&gt;n4</title>
<path fill="none" stroke="#64748b" d="M117.39,-303.77C109.63,-294.03 101.05,-281.18 97,-268 92.3,-252.71 92.82,-247.44 97,-232 99.74,-221.87 104.96,-211.7 110.34,-203.01"/>
<polygon fill="#64748b" stroke="#64748b" points="112.26,-204.56 114.03,-197.36 108.15,-201.88 112.26,-204.56"/>
</g>
<!-- n11&#45;&gt;n5 -->
<g id="edge10" class="edge">
<title>n11&#45;&gt;n5</title>
<path fill="none" stroke="#64748b" d="M174.71,-303.52C197.81,-293.83 226.66,-281.74 250.85,-271.6"/>
<polygon fill="#64748b" stroke="#64748b" points="251.63,-273.93 257.14,-268.97 249.73,-269.41 251.63,-273.93"/>
</g>
<!-- n11&#45;&gt;n10 -->
<g id="edge12" class="edge">
<title>n11&#45;&gt;n10</title>
<path fill="none" stroke="#64748b" d="M142.15,-303.7C146.63,-295.22 152.1,-284.86 157.01,-275.58"/>
<polygon fill="#64748b" stroke="#64748b" points="159.15,-276.78 160.25,-269.44 154.81,-274.49 159.15,-276.78"/>
</g>
<!-- n12 -->
<g id="node13" class="node">
<title>n12</title>
<g id="a_node13"><a xlink:href="vscode://vscode-remote/wsl+Ubuntu/home/gavin/statlib/Statlib/MultipleTesting/bhReplaced.lean:11" xlink:title="def · Statlib/MultipleTesting/bhReplaced.lean:11" target="_blank">
<path fill="#d6e9ff" stroke="#3b82f6" d="M601.69,-268C601.69,-268 556.31,-268 556.31,-268 550.31,-268 544.31,-262 544.31,-256 544.31,-256 544.31,-244 544.31,-244 544.31,-238 550.31,-232 556.31,-232 556.31,-232 601.69,-232 601.69,-232 607.69,-232 613.69,-238 613.69,-244 613.69,-244 613.69,-256 613.69,-256 613.69,-262 607.69,-268 601.69,-268"/>
<text xml:space="preserve" text-anchor="middle" x="579" y="-247" font-family="Helvetica,sans-Serif" font-size="10.00">bhReplaced</text>
</a>
</g>
</g>
<!-- n13 -->
<g id="node14" class="node">
<title>n13</title>
<g id="a_node14"><a xlink:href="vscode://vscode-remote/wsl+Ubuntu/home/gavin/statlib/Statlib/MultipleTesting/bhReplaced_component_measurable.lean:14" xlink:title="lemma · Statlib/MultipleTesting/bhReplaced_component_measurable.lean:14" target="_blank">
<path fill="#eef2f6" stroke="#94a3b8" d="M518.11,-340C518.11,-340 359.89,-340 359.89,-340 353.89,-340 347.89,-334 347.89,-328 347.89,-328 347.89,-316 347.89,-316 347.89,-310 353.89,-304 359.89,-304 359.89,-304 518.11,-304 518.11,-304 524.11,-304 530.11,-310 530.11,-316 530.11,-316 530.11,-328 530.11,-328 530.11,-334 524.11,-340 518.11,-340"/>
<text xml:space="preserve" text-anchor="middle" x="439" y="-319" font-family="Helvetica,sans-Serif" font-size="10.00">bhReplaced_component_measurable</text>
</a>
</g>
</g>
<!-- n13&#45;&gt;n12 -->
<g id="edge13" class="edge">
<title>n13&#45;&gt;n12</title>
<path fill="none" stroke="#64748b" d="M473.97,-303.52C493.07,-293.97 516.86,-282.07 536.97,-272.01"/>
<polygon fill="#64748b" stroke="#64748b" points="537.96,-274.26 543.13,-268.94 535.77,-269.88 537.96,-274.26"/>
</g>
<!-- n14 -->
<g id="node15" class="node">
<title>n14</title>
<g id="a_node15"><a xlink:href="vscode://vscode-remote/wsl+Ubuntu/home/gavin/statlib/Statlib/MultipleTesting/bhReplaced_measurable.lean:18" xlink:title="theorem · Statlib/MultipleTesting/bhReplaced_measurable.lean:18" target="_blank">
<path fill="#ffe6a3" stroke="#d4a017" d="M477.59,-412C477.59,-412 374.41,-412 374.41,-412 368.41,-412 362.41,-406 362.41,-400 362.41,-400 362.41,-388 362.41,-388 362.41,-382 368.41,-376 374.41,-376 374.41,-376 477.59,-376 477.59,-376 483.59,-376 489.59,-382 489.59,-388 489.59,-388 489.59,-400 489.59,-400 489.59,-406 483.59,-412 477.59,-412"/>
<text xml:space="preserve" text-anchor="middle" x="426" y="-391" font-family="Helvetica,sans-Serif" font-size="10.00">bhReplaced_measurable</text>
</a>
</g>
</g>
<!-- n14&#45;&gt;n5 -->
<g id="edge14" class="edge">
<title>n14&#45;&gt;n5</title>
<path fill="none" stroke="#64748b" d="M386.76,-375.71C370.32,-366.92 352.04,-354.91 339,-340 322.95,-321.63 312.58,-295.62 306.61,-276.46"/>
<polygon fill="#64748b" stroke="#64748b" points="309,-275.92 304.67,-269.9 304.3,-277.31 309,-275.92"/>
</g>
<!-- n14&#45;&gt;n11 -->
<g id="edge16" class="edge">
<title>n14&#45;&gt;n11</title>
<path fill="none" stroke="#64748b" d="M362.06,-377.72C318.7,-367.36 261,-353.58 214.37,-342.44"/>
<polygon fill="#64748b" stroke="#64748b" points="214.94,-340.06 207.56,-340.81 213.8,-344.82 214.94,-340.06"/>
</g>
<!-- n14&#45;&gt;n12 -->
<g id="edge15" class="edge">
<title>n14&#45;&gt;n12</title>
<path fill="none" stroke="#64748b" d="M482.94,-375.52C502.62,-367.25 523.57,-355.68 539,-340 556.28,-322.43 566.84,-296.09 572.74,-276.62"/>
<polygon fill="#64748b" stroke="#64748b" points="575.08,-277.34 574.64,-269.94 570.37,-276 575.08,-277.34"/>
</g>
<!-- n14&#45;&gt;n13 -->
<g id="edge17" class="edge">
<title>n14&#45;&gt;n13</title>
<path fill="none" stroke="#64748b" d="M429.21,-375.7C430.74,-367.47 432.6,-357.48 434.28,-348.42"/>
<polygon fill="#64748b" stroke="#64748b" points="436.68,-348.92 435.55,-341.59 431.86,-348.03 436.68,-348.92"/>
</g>
<!-- n15 -->
<g id="node16" class="node">
<title>n15</title>
<g id="a_node16"><a xlink:href="vscode://vscode-remote/wsl+Ubuntu/home/gavin/statlib/Statlib/MultipleTesting/bhRejectionCount_eq_iff.lean:18" xlink:title="theorem · Statlib/MultipleTesting/bhRejectionCount_eq_iff.lean:18" target="_blank">
<path fill="#ffe6a3" stroke="#d4a017" d="M995.76,-340C995.76,-340 894.24,-340 894.24,-340 888.24,-340 882.24,-334 882.24,-328 882.24,-328 882.24,-316 882.24,-316 882.24,-310 888.24,-304 894.24,-304 894.24,-304 995.76,-304 995.76,-304 1001.76,-304 1007.76,-310 1007.76,-316 1007.76,-316 1007.76,-328 1007.76,-328 1007.76,-334 1001.76,-340 995.76,-340"/>
<text xml:space="preserve" text-anchor="middle" x="945" y="-319" font-family="Helvetica,sans-Serif" font-size="10.00">bhRejectionCount_eq_iff</text>
</a>
</g>
</g>
<!-- n15&#45;&gt;n3 -->
<g id="edge19" class="edge">
<title>n15&#45;&gt;n3</title>
<path fill="none" stroke="#64748b" d="M900.33,-303.66C852.7,-283.45 777.23,-246.3 726,-196 715.85,-186.04 698.02,-154.43 685.87,-131.71"/>
<polygon fill="#64748b" stroke="#64748b" points="688.14,-130.77 682.69,-125.73 683.81,-133.06 688.14,-130.77"/>
</g>
<!-- n15&#45;&gt;n5 -->
<g id="edge18" class="edge">
<title>n15&#45;&gt;n5</title>
<path fill="none" stroke="#64748b" d="M881.78,-313.87C854.47,-310.8 822.17,-307.2 793,-304 634.72,-286.64 447.78,-266.7 356.24,-256.97"/>
<polygon fill="#64748b" stroke="#64748b" points="356.67,-254.55 349.45,-256.25 356.15,-259.42 356.67,-254.55"/>
</g>
<!-- n15&#45;&gt;n6 -->
<g id="edge21" class="edge">
<title>n15&#45;&gt;n6</title>
<path fill="none" stroke="#64748b" d="M940.5,-303.76C931.6,-272.28 909.22,-204.63 871,-160 860.39,-147.61 846.19,-136.94 832.7,-128.49"/>
<polygon fill="#64748b" stroke="#64748b" points="834.28,-126.59 827.03,-125.06 831.75,-130.78 834.28,-126.59"/>
</g>
<!-- n15&#45;&gt;n8 -->
<g id="edge20" class="edge">
<title>n15&#45;&gt;n8</title>
<path fill="none" stroke="#64748b" d="M945.8,-303.85C947.55,-266.36 951.73,-176.95 953.8,-132.7"/>
<polygon fill="#64748b" stroke="#64748b" points="956.24,-132.85 954.12,-125.74 951.35,-132.62 956.24,-132.85"/>
</g>
<!-- n16 -->
<g id="node17" class="node">
<title>n16</title>
<g id="a_node17"><a xlink:href="vscode://vscode-remote/wsl+Ubuntu/home/gavin/statlib/Statlib/MultipleTesting/bhReplaced_filter_card_eq.lean:15" xlink:title="lemma · Statlib/MultipleTesting/bhReplaced_filter_card_eq.lean:15" target="_blank">
<path fill="#eef2f6" stroke="#94a3b8" d="M771.76,-340C771.76,-340 660.24,-340 660.24,-340 654.24,-340 648.24,-334 648.24,-328 648.24,-328 648.24,-316 648.24,-316 648.24,-310 654.24,-304 660.24,-304 660.24,-304 771.76,-304 771.76,-304 777.76,-304 783.76,-310 783.76,-316 783.76,-316 783.76,-328 783.76,-328 783.76,-334 777.76,-340 771.76,-340"/>
<text xml:space="preserve" text-anchor="middle" x="716" y="-319" font-family="Helvetica,sans-Serif" font-size="10.00">bhReplaced_filter_card_eq</text>
</a>
</g>
</g>
<!-- n16&#45;&gt;n12 -->
<g id="edge22" class="edge">
<title>n16&#45;&gt;n12</title>
<path fill="none" stroke="#64748b" d="M681.78,-303.52C663.09,-293.97 639.81,-282.07 620.13,-272.01"/>
<polygon fill="#64748b" stroke="#64748b" points="621.48,-269.95 614.13,-268.95 619.25,-274.32 621.48,-269.95"/>
</g>
<!-- n17 -->
<g id="node18" class="node">
<title>n17</title>
<g id="a_node18"><a xlink:href="vscode://vscode-remote/wsl+Ubuntu/home/gavin/statlib/Statlib/MultipleTesting/bhCutoff_replace_invariant.lean:29" xlink:title="theorem · Statlib/MultipleTesting/bhCutoff_replace_invariant.lean:29" target="_blank">
<path fill="#ffe6a3" stroke="#d4a017" d="M811.76,-412C811.76,-412 700.24,-412 700.24,-412 694.24,-412 688.24,-406 688.24,-400 688.24,-400 688.24,-388 688.24,-388 688.24,-382 694.24,-376 700.24,-376 700.24,-376 811.76,-376 811.76,-376 817.76,-376 823.76,-382 823.76,-388 823.76,-388 823.76,-400 823.76,-400 823.76,-406 817.76,-412 811.76,-412"/>
<text xml:space="preserve" text-anchor="middle" x="756" y="-391" font-family="Helvetica,sans-Serif" font-size="10.00">bhCutoff_replace_invariant</text>
</a>
</g>
</g>
<!-- n17&#45;&gt;n3 -->
<g id="edge24" class="edge">
<title>n17&#45;&gt;n3</title>
<path fill="none" stroke="#64748b" d="M775.72,-375.69C794.51,-357.05 817.67,-326.99 801,-304 770.81,-262.35 723.46,-307.9 691,-268 659.58,-229.38 663.01,-167.2 668.11,-132.5"/>
<polygon fill="#64748b" stroke="#64748b" points="670.5,-133.1 669.18,-125.8 665.66,-132.32 670.5,-133.1"/>
</g>
<!-- n17&#45;&gt;n5 -->
<g id="edge23" class="edge">
<title>n17&#45;&gt;n5</title>
<path fill="none" stroke="#64748b" d="M715.28,-375.52C692.61,-365.55 664.01,-352.56 639,-340 609.49,-325.17 605.04,-315.28 574,-304 501.23,-277.57 412.55,-263.48 356.17,-256.63"/>
<polygon fill="#64748b" stroke="#64748b" points="356.49,-254.2 349.25,-255.81 355.92,-259.07 356.49,-254.2"/>
</g>
<!-- n17&#45;&gt;n6 -->
<g id="edge29" class="edge">
<title>n17&#45;&gt;n6</title>
<path fill="none" stroke="#64748b" d="M789.89,-375.5C803.76,-366.67 818.7,-354.69 828,-340 862.86,-284.9 849.75,-260.9 856,-196 857.53,-180.07 862.86,-174.45 856,-160 850.21,-147.8 840.08,-137.48 829.52,-129.29"/>
<polygon fill="#64748b" stroke="#64748b" points="831.24,-127.51 824.14,-125.35 828.34,-131.46 831.24,-127.51"/>
</g>
<!-- n17&#45;&gt;n8 -->
<g id="edge28" class="edge">
<title>n17&#45;&gt;n8</title>
<path fill="none" stroke="#64748b" d="M824.23,-388.7C893.25,-382.77 993.08,-369.27 1017,-340 1068.15,-277.42 1006.87,-176.69 973.66,-130.96"/>
<polygon fill="#64748b" stroke="#64748b" points="975.82,-129.76 969.69,-125.58 971.88,-132.67 975.82,-129.76"/>
</g>
<!-- n17&#45;&gt;n12 -->
<g id="edge25" class="edge">
<title>n17&#45;&gt;n12</title>
<path fill="none" stroke="#64748b" d="M773.15,-375.5C789.73,-356.43 810.02,-325.74 793,-304 782.41,-290.47 681.4,-269.85 622.02,-258.74"/>
<polygon fill="#64748b" stroke="#64748b" points="622.75,-256.38 615.42,-257.51 621.85,-261.2 622.75,-256.38"/>
</g>
<!-- n17&#45;&gt;n15 -->
<g id="edge26" class="edge">
<title>n17&#45;&gt;n15</title>
<path fill="none" stroke="#64748b" d="M803.21,-375.52C829.58,-365.75 862.57,-353.53 890.09,-343.34"/>
<polygon fill="#64748b" stroke="#64748b" points="890.94,-345.64 896.65,-340.91 889.23,-341.04 890.94,-345.64"/>
</g>
<!-- n17&#45;&gt;n16 -->
<g id="edge27" class="edge">
<title>n17&#45;&gt;n16</title>
<path fill="none" stroke="#64748b" d="M746.11,-375.7C741.22,-367.14 735.23,-356.66 729.89,-347.3"/>
<polygon fill="#64748b" stroke="#64748b" points="732.13,-346.28 726.52,-341.42 727.87,-348.71 732.13,-346.28"/>
</g>
<!-- n18 -->
<g id="node19" class="node">
<title>n18</title>
<g id="a_node19"><a xlink:href="vscode://vscode-remote/wsl+Ubuntu/home/gavin/statlib/Statlib/MultipleTesting/bhReplaced_eventEq.lean:27" xlink:title="theorem · Statlib/MultipleTesting/bhReplaced_eventEq.lean:27" target="_blank">
<path fill="#ffe6a3" stroke="#d4a017" d="M753.81,-484C753.81,-484 666.19,-484 666.19,-484 660.19,-484 654.19,-478 654.19,-472 654.19,-472 654.19,-460 654.19,-460 654.19,-454 660.19,-448 666.19,-448 666.19,-448 753.81,-448 753.81,-448 759.81,-448 765.81,-454 765.81,-460 765.81,-460 765.81,-472 765.81,-472 765.81,-478 759.81,-484 753.81,-484"/>
<text xml:space="preserve" text-anchor="middle" x="710" y="-463" font-family="Helvetica,sans-Serif" font-size="10.00">bhReplaced_eventEq</text>
</a>
</g>
</g>
<!-- n18&#45;&gt;n3 -->
<g id="edge32" class="edge">
<title>n18&#45;&gt;n3</title>
<path fill="none" stroke="#64748b" d="M766.04,-447.59C794.55,-437.47 824.88,-424.33 833,-412 841.79,-398.63 835.56,-391.79 833,-376 827.6,-342.7 827.82,-331.99 809,-304 795.28,-283.6 784.67,-285.09 767,-268 735.8,-237.82 722.7,-233.6 701,-196 689.54,-176.14 682.19,-151.02 677.91,-132.54"/>
<polygon fill="#64748b" stroke="#64748b" points="680.32,-132.1 676.43,-125.79 675.54,-133.15 680.32,-132.1"/>
</g>
<!-- n18&#45;&gt;n5 -->
<g id="edge30" class="edge">
<title>n18&#45;&gt;n5</title>
<path fill="none" stroke="#64748b" d="M690.31,-447.54C663.57,-423.67 614.47,-379.35 574,-340 558,-324.44 558.49,-314.87 539,-304 481.87,-272.13 407.03,-259.42 356.44,-254.36"/>
<polygon fill="#64748b" stroke="#64748b" points="356.93,-251.94 349.73,-253.72 356.46,-256.82 356.93,-251.94"/>
</g>
<!-- n18&#45;&gt;n12 -->
<g id="edge31" class="edge">
<title>n18&#45;&gt;n12</title>
<path fill="none" stroke="#64748b" d="M699.77,-447.61C678.71,-411.85 631.04,-331.15 614,-304 607.99,-294.42 601.17,-284.01 595.16,-274.97"/>
<polygon fill="#64748b" stroke="#64748b" points="597.31,-273.78 591.39,-269.32 593.24,-276.5 597.31,-273.78"/>
</g>
<!-- n18&#45;&gt;n15 -->
<g id="edge34" class="edge">
<title>n18&#45;&gt;n15</title>
<path fill="none" stroke="#64748b" d="M766.28,-450.55C792.66,-442.05 823.59,-429.48 848,-412 864.93,-399.88 863.09,-390.54 878,-376 889.1,-365.18 902.3,-354.37 914.04,-345.35"/>
<polygon fill="#64748b" stroke="#64748b" points="915.44,-347.36 919.54,-341.18 912.48,-343.45 915.44,-347.36"/>
</g>
<!-- n18&#45;&gt;n17 -->
<g id="edge33" class="edge">
<title>n18&#45;&gt;n17</title>
<path fill="none" stroke="#64748b" d="M721.37,-447.7C727.05,-439.05 734.02,-428.45 740.21,-419.03"/>
<polygon fill="#64748b" stroke="#64748b" points="742.13,-420.56 743.93,-413.37 738.04,-417.87 742.13,-420.56"/>
</g>
<!-- n19 -->
<g id="node20" class="node">
<title>n19</title>
<g id="a_node20"><a xlink:href="vscode://vscode-remote/wsl+Ubuntu/home/gavin/statlib/Statlib/MultipleTesting/indep_loo.lean:22" xlink:title="theorem · Statlib/MultipleTesting/indep_loo.lean:22" target="_blank">
<path fill="#ffe6a3" stroke="#d4a017" d="M271.69,-412C271.69,-412 236.31,-412 236.31,-412 230.31,-412 224.31,-406 224.31,-400 224.31,-400 224.31,-388 224.31,-388 224.31,-382 230.31,-376 236.31,-376 236.31,-376 271.69,-376 271.69,-376 277.69,-376 283.69,-382 283.69,-388 283.69,-388 283.69,-400 283.69,-400 283.69,-406 277.69,-412 271.69,-412"/>
<text xml:space="preserve" text-anchor="middle" x="254" y="-391" font-family="Helvetica,sans-Serif" font-size="10.00">indep_loo</text>
</a>
</g>
</g>
<!-- n19&#45;&gt;n4 -->
<g id="edge38" class="edge">
<title>n19&#45;&gt;n4</title>
<path fill="none" stroke="#64748b" d="M224.05,-384.11C214.76,-381.42 204.48,-378.52 195,-376 129.57,-358.62 88.83,-393.23 47,-340 12.27,-295.81 66.15,-234.38 101.39,-201.65"/>
<polygon fill="#64748b" stroke="#64748b" points="102.66,-203.81 106.18,-197.28 99.36,-200.19 102.66,-203.81"/>
</g>
<!-- n19&#45;&gt;n5 -->
<g id="edge35" class="edge">
<title>n19&#45;&gt;n5</title>
<path fill="none" stroke="#64748b" d="M247.03,-375.51C240.77,-357 233.98,-327.28 244,-304 248.99,-292.41 257.89,-282.17 267.16,-273.86"/>
<polygon fill="#64748b" stroke="#64748b" points="268.67,-275.79 272.43,-269.4 265.5,-272.05 268.67,-275.79"/>
</g>
<!-- n19&#45;&gt;n11 -->
<g id="edge37" class="edge">
<title>n19&#45;&gt;n11</title>
<path fill="none" stroke="#64748b" d="M224.09,-375.7C207.8,-366.27 187.5,-354.53 170.2,-344.52"/>
<polygon fill="#64748b" stroke="#64748b" points="171.58,-342.49 164.3,-341.1 169.13,-346.73 171.58,-342.49"/>
</g>
<!-- n19&#45;&gt;n12 -->
<g id="edge36" class="edge">
<title>n19&#45;&gt;n12</title>
<path fill="none" stroke="#64748b" d="M258.86,-375.58C265.53,-355.09 279.56,-321.62 304,-304 340.45,-277.72 467.64,-261.76 535.52,-254.92"/>
<polygon fill="#64748b" stroke="#64748b" points="535.66,-257.36 542.39,-254.24 535.18,-252.49 535.66,-257.36"/>
</g>
<!-- n20 -->
<g id="node21" class="node">
<title>n20</title>
<g id="a_node21"><a xlink:href="vscode://vscode-remote/wsl+Ubuntu/home/gavin/statlib/Statlib/MultipleTesting/indep_factor.lean:14" xlink:title="theorem · Statlib/MultipleTesting/indep_factor.lean:14" target="_blank">
<path fill="#ffe6a3" stroke="#d4a017" d="M361.52,-484C361.52,-484 314.48,-484 314.48,-484 308.48,-484 302.48,-478 302.48,-472 302.48,-472 302.48,-460 302.48,-460 302.48,-454 308.48,-448 314.48,-448 314.48,-448 361.52,-448 361.52,-448 367.52,-448 373.52,-454 373.52,-460 373.52,-460 373.52,-472 373.52,-472 373.52,-478 367.52,-484 361.52,-484"/>
<text xml:space="preserve" text-anchor="middle" x="338" y="-463" font-family="Helvetica,sans-Serif" font-size="10.00">indep_factor</text>
</a>
</g>
</g>
<!-- n20&#45;&gt;n5 -->
<g id="edge39" class="edge">
<title>n20&#45;&gt;n5</title>
<path fill="none" stroke="#64748b" d="M330.56,-447.69C322.36,-429.31 308.3,-399.71 293,-376 281.86,-358.74 270.83,-359.38 264,-340 258.68,-324.91 259.3,-319.29 264,-304 267.2,-293.6 273.21,-283.4 279.42,-274.78"/>
<polygon fill="#64748b" stroke="#64748b" points="281.2,-276.49 283.48,-269.43 277.29,-273.53 281.2,-276.49"/>
</g>
<!-- n20&#45;&gt;n12 -->
<g id="edge40" class="edge">
<title>n20&#45;&gt;n12</title>
<path fill="none" stroke="#64748b" d="M331.83,-447.67C321.57,-415.43 305.26,-345.74 339,-304 363.28,-273.97 473.18,-259.91 535.51,-254.25"/>
<polygon fill="#64748b" stroke="#64748b" points="535.71,-256.69 542.47,-253.64 535.28,-251.81 535.71,-256.69"/>
</g>
<!-- n20&#45;&gt;n19 -->
<g id="edge41" class="edge">
<title>n20&#45;&gt;n19</title>
<path fill="none" stroke="#64748b" d="M317.24,-447.7C306.33,-438.61 292.84,-427.36 281.12,-417.6"/>
<polygon fill="#64748b" stroke="#64748b" points="282.93,-415.92 275.98,-413.32 279.79,-419.68 282.93,-415.92"/>
</g>
<!-- n21 -->
<g id="node22" class="node">
<title>n21</title>
<g id="a_node22"><a xlink:href="vscode://vscode-remote/wsl+Ubuntu/home/gavin/statlib/Statlib/MultipleTesting/pvalue_validity_ofReal.lean:12" xlink:title="theorem · Statlib/MultipleTesting/pvalue_validity_ofReal.lean:12" target="_blank">
<path fill="#ffe6a3" stroke="#d4a017" d="M252.03,-484C252.03,-484 159.97,-484 159.97,-484 153.97,-484 147.97,-478 147.97,-472 147.97,-472 147.97,-460 147.97,-460 147.97,-454 153.97,-448 159.97,-448 159.97,-448 252.03,-448 252.03,-448 258.03,-448 264.03,-454 264.03,-460 264.03,-460 264.03,-472 264.03,-472 264.03,-478 258.03,-484 252.03,-484"/>
<text xml:space="preserve" text-anchor="middle" x="206" y="-463" font-family="Helvetica,sans-Serif" font-size="10.00">pvalue_validity_ofReal</text>
</a>
</g>
</g>
<!-- n21&#45;&gt;n0 -->
<g id="edge42" class="edge">
<title>n21&#45;&gt;n0</title>
<path fill="none" stroke="#64748b" d="M191.42,-447.7C183.99,-438.88 174.84,-428.03 166.79,-418.47"/>
<polygon fill="#64748b" stroke="#64748b" points="168.78,-417.04 162.39,-413.26 165.03,-420.19 168.78,-417.04"/>
</g>
<!-- n22 -->
<g id="node23" class="node">
<title>n22</title>
<g id="a_node23"><a xlink:href="vscode://vscode-remote/wsl+Ubuntu/home/gavin/statlib/Statlib/MultipleTesting/sum_pmf_le_one.lean:11" xlink:title="theorem · Statlib/MultipleTesting/sum_pmf_le_one.lean:11" target="_blank">
<path fill="#ffe6a3" stroke="#d4a017" d="M982.36,-484C982.36,-484 913.64,-484 913.64,-484 907.64,-484 901.64,-478 901.64,-472 901.64,-472 901.64,-460 901.64,-460 901.64,-454 907.64,-448 913.64,-448 913.64,-448 982.36,-448 982.36,-448 988.36,-448 994.36,-454 994.36,-460 994.36,-460 994.36,-472 994.36,-472 994.36,-478 988.36,-484 982.36,-484"/>
<text xml:space="preserve" text-anchor="middle" x="948" y="-463" font-family="Helvetica,sans-Serif" font-size="10.00">sum_pmf_le_one</text>
</a>
</g>
</g>
<!-- n23 -->
<g id="node24" class="node">
<title>n23</title>
<g id="a_node24"><a xlink:href="vscode://vscode-remote/wsl+Ubuntu/home/gavin/statlib/Statlib/MultipleTesting/bh_fdr_le.lean:59" xlink:title="theorem · Statlib/MultipleTesting/bh_fdr_le.lean:59" target="_blank">
<path fill="#ffe6a3" stroke="#d4a017" stroke-width="3" d="M354.85,-556C354.85,-556 321.15,-556 321.15,-556 315.15,-556 309.15,-550 309.15,-544 309.15,-544 309.15,-532 309.15,-532 309.15,-526 315.15,-520 321.15,-520 321.15,-520 354.85,-520 354.85,-520 360.85,-520 366.85,-526 366.85,-532 366.85,-532 366.85,-544 366.85,-544 366.85,-550 360.85,-556 354.85,-556"/>
<text xml:space="preserve" text-anchor="middle" x="338" y="-535" font-family="Helvetica,sans-Serif" font-size="10.00">bh_fdr_le</text>
</a>
</g>
</g>
<!-- n23&#45;&gt;n0 -->
<g id="edge43" class="edge">
<title>n23&#45;&gt;n0</title>
<path fill="none" stroke="#64748b" d="M307.67,-533.41C257.2,-526.74 159.48,-510.65 139,-484 125.19,-466.03 129.75,-439.57 136.21,-420.18"/>
<polygon fill="#64748b" stroke="#64748b" points="138.45,-421.18 138.53,-413.77 133.84,-419.51 138.45,-421.18"/>
</g>
<!-- n23&#45;&gt;n1 -->
<g id="edge50" class="edge">
<title>n23&#45;&gt;n1</title>
<path fill="none" stroke="#64748b" d="M307.88,-536.58C236.97,-534.9 62.81,-526.43 27,-484 11.98,-466.21 19.74,-439.16 28.92,-419.55"/>
<polygon fill="#64748b" stroke="#64748b" points="30.99,-420.89 31.92,-413.53 26.6,-418.7 30.99,-420.89"/>
</g>
<!-- n23&#45;&gt;n2 -->
<g id="edge44" class="edge">
<title>n23&#45;&gt;n2</title>
<path fill="none" stroke="#64748b" d="M308.02,-531.9C263.07,-523.88 175.85,-506.85 104,-484 102.01,-483.37 99.98,-482.68 97.94,-481.95"/>
<polygon fill="#64748b" stroke="#64748b" points="98.94,-479.71 91.52,-479.53 97.21,-484.29 98.94,-479.71"/>
</g>
<!-- n23&#45;&gt;n4 -->
<g id="edge45" class="edge">
<title>n23&#45;&gt;n4</title>
<path fill="none" stroke="#64748b" d="M307.94,-537.45C263.15,-536.54 178.55,-528.5 126,-484 86.05,-450.17 111.25,-417.23 79,-376 62.79,-355.28 43.65,-363.59 32,-340 20.53,-316.77 41.87,-236.68 45,-232 56.48,-214.88 75.55,-202.13 92.51,-193.44"/>
<polygon fill="#64748b" stroke="#64748b" points="93.55,-195.66 98.77,-190.39 91.4,-191.25 93.55,-195.66"/>
</g>
<!-- n23&#45;&gt;n5 -->
<g id="edge46" class="edge">
<title>n23&#45;&gt;n5</title>
<path fill="none" stroke="#64748b" d="M359.32,-518.58C368.48,-509.26 378.17,-497.14 383,-484 388.52,-468.98 388.45,-463.04 383,-448 375.91,-428.42 364.78,-429.18 353,-412 332.3,-381.81 324.73,-374.68 313,-340 306.04,-319.41 302.8,-294.89 301.3,-276.81"/>
<polygon fill="#64748b" stroke="#64748b" points="303.76,-276.81 300.8,-270 298.87,-277.16 303.76,-276.81"/>
</g>
<!-- n23&#45;&gt;n11 -->
<g id="edge47" class="edge">
<title>n23&#45;&gt;n11</title>
<path fill="none" stroke="#64748b" d="M320.81,-518.59C311.99,-508.71 301.38,-496.11 293,-484 282.58,-468.95 285.63,-461.25 273,-448 252.07,-426.03 235.93,-433.97 215,-412 202.37,-398.75 206.58,-390.17 195,-376 185.95,-364.92 174.38,-354.33 163.7,-345.57"/>
<polygon fill="#64748b" stroke="#64748b" points="165.37,-343.77 158.37,-341.31 162.31,-347.6 165.37,-343.77"/>
</g>
<!-- n23&#45;&gt;n12 -->
<g id="edge48" class="edge">
<title>n23&#45;&gt;n12</title>
<path fill="none" stroke="#64748b" d="M368.12,-520.16C417.31,-490.81 513.66,-425.19 556,-340 566.04,-319.8 572.01,-294.77 575.33,-276.41"/>
<polygon fill="#64748b" stroke="#64748b" points="577.67,-277.28 576.43,-269.97 572.84,-276.46 577.67,-277.28"/>
</g>
<!-- n23&#45;&gt;n14 -->
<g id="edge49" class="edge">
<title>n23&#45;&gt;n14</title>
<path fill="none" stroke="#64748b" d="M364.63,-518.68C376.3,-509.46 389.29,-497.4 398,-484 410.57,-464.65 417.82,-439.28 421.78,-420.58"/>
<polygon fill="#64748b" stroke="#64748b" points="424.18,-421.07 423.13,-413.73 419.37,-420.13 424.18,-421.07"/>
</g>
<!-- n23&#45;&gt;n15 -->
<g id="edge51" class="edge">
<title>n23&#45;&gt;n15</title>
<path fill="none" stroke="#64748b" d="M368.07,-535.43C454.26,-530.62 700.77,-514.49 775,-484 844.38,-455.5 902.06,-384.44 928.87,-346.98"/>
<polygon fill="#64748b" stroke="#64748b" points="930.61,-348.77 932.64,-341.63 926.6,-345.95 930.61,-348.77"/>
</g>
<!-- n23&#45;&gt;n18 -->
<g id="edge52" class="edge">
<title>n23&#45;&gt;n18</title>
<path fill="none" stroke="#64748b" d="M368.13,-531.33C428.33,-520 564.66,-494.35 645.8,-479.08"/>
<polygon fill="#64748b" stroke="#64748b" points="646.05,-481.53 652.47,-477.82 645.14,-476.71 646.05,-481.53"/>
</g>
<!-- n23&#45;&gt;n20 -->
<g id="edge53" class="edge">
<title>n23&#45;&gt;n20</title>
<path fill="none" stroke="#64748b" d="M338,-518.61C338,-510.59 338,-501.05 338,-492.37"/>
<polygon fill="#64748b" stroke="#64748b" points="340.45,-492.58 338,-485.58 335.55,-492.58 340.45,-492.58"/>
</g>
<!-- n23&#45;&gt;n21 -->
<g id="edge54" class="edge">
<title>n23&#45;&gt;n21</title>
<path fill="none" stroke="#64748b" d="M307.72,-520.94C289.49,-511.28 266.07,-498.86 246.3,-488.37"/>
<polygon fill="#64748b" stroke="#64748b" points="247.59,-486.28 240.25,-485.17 245.29,-490.61 247.59,-486.28"/>
</g>
<!-- n23&#45;&gt;n22 -->
<g id="edge55" class="edge">
<title>n23&#45;&gt;n22</title>
<path fill="none" stroke="#64748b" d="M368.08,-536C451.38,-532.83 691.91,-520.92 888,-484 889.77,-483.67 891.57,-483.3 893.38,-482.92"/>
<polygon fill="#64748b" stroke="#64748b" points="893.6,-485.38 899.88,-481.43 892.51,-480.6 893.6,-485.38"/>
</g>
</g>
</svg>
