<?xml version="1.0" encoding="UTF-8" standalone="no"?>
<!DOCTYPE svg PUBLIC "-//W3C//DTD SVG 1.1//EN"
 "http://www.w3.org/Graphics/SVG/1.1/DTD/svg11.dtd">
<!-- Generated by graphviz version 15.0.0 (20260523.1842)
 -->
<!-- Title: split_marginal_coverage_upper Pages: 1 -->
<svg width="1006pt" height="626pt"
 viewBox="0.00 0.00 1006.00 626.00" xmlns="http://www.w3.org/2000/svg" xmlns:xlink="http://www.w3.org/1999/xlink">
<g id="graph0" class="graph" transform="scale(1 1) rotate(0) translate(4 622)">
<title>split_marginal_coverage_upper</title>
<polygon fill="white" stroke="none" points="-4,4 -4,-622 1001.72,-622 1001.72,4 -4,4"/>
<text xml:space="preserve" text-anchor="middle" x="498.86" y="-601.4" font-family="Helvetica,sans-Serif" font-size="14.00">Proof narrative — split_marginal_coverage_upper &#160;(25 decls)</text>
<g id="clust1" class="cluster">
<title>cluster_0</title>
<path fill="none" stroke="#cbd5e1" stroke-dasharray="5,2" d="M20.72,-8C20.72,-8 977.72,-8 977.72,-8 983.72,-8 989.72,-14 989.72,-20 989.72,-20 989.72,-573.2 989.72,-573.2 989.72,-579.2 983.72,-585.2 977.72,-585.2 977.72,-585.2 20.72,-585.2 20.72,-585.2 14.72,-585.2 8.72,-579.2 8.72,-573.2 8.72,-573.2 8.72,-20 8.72,-20 8.72,-14 14.72,-8 20.72,-8"/>
<text xml:space="preserve" text-anchor="middle" x="499.22" y="-571.3" font-family="Helvetica,sans-Serif" font-size="11.00">Conformal</text>
</g>
<!-- n0 -->
<g id="node1" class="node">
<title>n0</title>
<g id="a_node1"><a xlink:href="vscode://vscode-remote/wsl+Ubuntu/home/gavin/statlib/Statlib/Conformal/Basic.lean:53" xlink:title="def · Statlib/Conformal/Basic.lean:53" target="_blank">
<path fill="#d6e9ff" stroke="#3b82f6" d="M676.41,-196C676.41,-196 621.03,-196 621.03,-196 615.03,-196 609.03,-190 609.03,-184 609.03,-184 609.03,-172 609.03,-172 609.03,-166 615.03,-160 621.03,-160 621.03,-160 676.41,-160 676.41,-160 682.41,-160 688.41,-166 688.41,-172 688.41,-172 688.41,-184 688.41,-184 688.41,-190 682.41,-196 676.41,-196"/>
<text xml:space="preserve" text-anchor="middle" x="648.72" y="-175" font-family="Helvetica,sans-Serif" font-size="10.00">Exchangeable</text>
</a>
</g>
</g>
<!-- n1 -->
<g id="node2" class="node">
<title>n1</title>
<g id="a_node2"><a xlink:href="vscode://vscode-remote/wsl+Ubuntu/home/gavin/statlib/Statlib/Conformal/Basic.lean:65" xlink:title="noncomputable def · Statlib/Conformal/Basic.lean:65" target="_blank">
<path fill="#d6e9ff" stroke="#3b82f6" d="M969.28,-268C969.28,-268 936.15,-268 936.15,-268 930.15,-268 924.15,-262 924.15,-256 924.15,-256 924.15,-244 924.15,-244 924.15,-238 930.15,-232 936.15,-232 936.15,-232 969.28,-232 969.28,-232 975.28,-232 981.28,-238 981.28,-244 981.28,-244 981.28,-256 981.28,-256 981.28,-262 975.28,-268 969.28,-268"/>
<text xml:space="preserve" text-anchor="middle" x="952.72" y="-247" font-family="Helvetica,sans-Serif" font-size="10.00">orderStat</text>
</a>
</g>
</g>
<!-- n2 -->
<g id="node3" class="node">
<title>n2</title>
<g id="a_node3"><a xlink:href="vscode://vscode-remote/wsl+Ubuntu/home/gavin/statlib/Statlib/Conformal/Basic.lean:78" xlink:title="noncomputable def · Statlib/Conformal/Basic.lean:78" target="_blank">
<path fill="#d6e9ff" stroke="#3b82f6" d="M969.29,-340C969.29,-340 896.14,-340 896.14,-340 890.14,-340 884.14,-334 884.14,-328 884.14,-328 884.14,-316 884.14,-316 884.14,-310 890.14,-304 896.14,-304 896.14,-304 969.29,-304 969.29,-304 975.29,-304 981.29,-310 981.29,-316 981.29,-316 981.29,-328 981.29,-328 981.29,-334 975.29,-340 969.29,-340"/>
<text xml:space="preserve" text-anchor="middle" x="932.72" y="-319" font-family="Helvetica,sans-Serif" font-size="10.00">conformalQuantile</text>
</a>
</g>
</g>
<!-- n2&#45;&gt;n1 -->
<g id="edge1" class="edge">
<title>n2&#45;&gt;n1</title>
<path fill="none" stroke="#64748b" d="M937.66,-303.7C940.04,-295.39 942.93,-285.28 945.54,-276.14"/>
<polygon fill="#64748b" stroke="#64748b" points="947.85,-276.96 947.42,-269.56 943.14,-275.62 947.85,-276.96"/>
</g>
<!-- n3 -->
<g id="node4" class="node">
<title>n3</title>
<g id="a_node4"><a xlink:href="vscode://vscode-remote/wsl+Ubuntu/home/gavin/statlib/Statlib/Conformal/rankOfLast.lean:13" xlink:title="noncomputable def · Statlib/Conformal/rankOfLast.lean:13" target="_blank">
<path fill="#d6e9ff" stroke="#3b82f6" d="M812.17,-52C812.17,-52 771.26,-52 771.26,-52 765.26,-52 759.26,-46 759.26,-40 759.26,-40 759.26,-28 759.26,-28 759.26,-22 765.26,-16 771.26,-16 771.26,-16 812.17,-16 812.17,-16 818.17,-16 824.17,-22 824.17,-28 824.17,-28 824.17,-40 824.17,-40 824.17,-46 818.17,-52 812.17,-52"/>
<text xml:space="preserve" text-anchor="middle" x="791.72" y="-31" font-family="Helvetica,sans-Serif" font-size="10.00">rankOfLast</text>
</a>
</g>
</g>
<!-- n4 -->
<g id="node5" class="node">
<title>n4</title>
<g id="a_node5"><a xlink:href="vscode://vscode-remote/wsl+Ubuntu/home/gavin/statlib/Statlib/Conformal/sorted_get_le_iff_countP.lean:13" xlink:title="lemma · Statlib/Conformal/sorted_get_le_iff_countP.lean:13" target="_blank">
<path fill="#eef2f6" stroke="#94a3b8" d="M854.04,-340C854.04,-340 751.4,-340 751.4,-340 745.4,-340 739.4,-334 739.4,-328 739.4,-328 739.4,-316 739.4,-316 739.4,-310 745.4,-304 751.4,-304 751.4,-304 854.04,-304 854.04,-304 860.04,-304 866.04,-310 866.04,-316 866.04,-316 866.04,-328 866.04,-328 866.04,-334 860.04,-340 854.04,-340"/>
<text xml:space="preserve" text-anchor="middle" x="802.72" y="-319" font-family="Helvetica,sans-Serif" font-size="10.00">sorted_get_le_iff_countP</text>
</a>
</g>
</g>
<!-- n5 -->
<g id="node6" class="node">
<title>n5</title>
<g id="a_node6"><a xlink:href="vscode://vscode-remote/wsl+Ubuntu/home/gavin/statlib/Statlib/Conformal/countP_ofFn_eq_card_filter.lean:13" xlink:title="lemma · Statlib/Conformal/countP_ofFn_eq_card_filter.lean:13" target="_blank">
<path fill="#eef2f6" stroke="#94a3b8" d="M709.15,-340C709.15,-340 594.29,-340 594.29,-340 588.29,-340 582.29,-334 582.29,-328 582.29,-328 582.29,-316 582.29,-316 582.29,-310 588.29,-304 594.29,-304 594.29,-304 709.15,-304 709.15,-304 715.15,-304 721.15,-310 721.15,-316 721.15,-316 721.15,-328 721.15,-328 721.15,-334 715.15,-340 709.15,-340"/>
<text xml:space="preserve" text-anchor="middle" x="651.72" y="-319" font-family="Helvetica,sans-Serif" font-size="10.00">countP_ofFn_eq_card_filter</text>
</a>
</g>
</g>
<!-- n6 -->
<g id="node7" class="node">
<title>n6</title>
<g id="a_node7"><a xlink:href="vscode://vscode-remote/wsl+Ubuntu/home/gavin/statlib/Statlib/Conformal/rankOfLast_decomp.lean:12" xlink:title="lemma · Statlib/Conformal/rankOfLast_decomp.lean:12" target="_blank">
<path fill="#eef2f6" stroke="#94a3b8" d="M893.74,-268C893.74,-268 811.69,-268 811.69,-268 805.69,-268 799.69,-262 799.69,-256 799.69,-256 799.69,-244 799.69,-244 799.69,-238 805.69,-232 811.69,-232 811.69,-232 893.74,-232 893.74,-232 899.74,-232 905.74,-238 905.74,-244 905.74,-244 905.74,-256 905.74,-256 905.74,-262 899.74,-268 893.74,-268"/>
<text xml:space="preserve" text-anchor="middle" x="852.72" y="-247" font-family="Helvetica,sans-Serif" font-size="10.00">rankOfLast_decomp</text>
</a>
</g>
</g>
<!-- n6&#45;&gt;n3 -->
<g id="edge2" class="edge">
<title>n6&#45;&gt;n3</title>
<path fill="none" stroke="#64748b" d="M898.72,-231.74C914.27,-223.43 929.91,-211.77 938.72,-196 962.12,-154.09 966.31,-127.28 938.72,-88 914.9,-54.09 867.17,-41.78 832.54,-37.36"/>
<polygon fill="#64748b" stroke="#64748b" points="833.22,-34.97 825.99,-36.62 832.67,-39.84 833.22,-34.97"/>
</g>
<!-- n7 -->
<g id="node8" class="node">
<title>n7</title>
<g id="a_node8"><a xlink:href="vscode://vscode-remote/wsl+Ubuntu/home/gavin/statlib/Statlib/Conformal/coverage_event_iff_rank_le.lean:27" xlink:title="theorem · Statlib/Conformal/coverage_event_iff_rank_le.lean:27" target="_blank">
<path fill="#ffe6a3" stroke="#d4a017" d="M655.15,-412C655.15,-412 540.29,-412 540.29,-412 534.29,-412 528.29,-406 528.29,-400 528.29,-400 528.29,-388 528.29,-388 528.29,-382 534.29,-376 540.29,-376 540.29,-376 655.15,-376 655.15,-376 661.15,-376 667.15,-382 667.15,-388 667.15,-388 667.15,-400 667.15,-400 667.15,-406 661.15,-412 655.15,-412"/>
<text xml:space="preserve" text-anchor="middle" x="597.72" y="-391" font-family="Helvetica,sans-Serif" font-size="10.00">coverage_event_iff_rank_le</text>
</a>
</g>
</g>
<!-- n7&#45;&gt;n1 -->
<g id="edge5" class="edge">
<title>n7&#45;&gt;n1</title>
<path fill="none" stroke="#64748b" d="M584.78,-375.76C571.69,-356.07 555.73,-323.98 573.72,-304 624.69,-247.36 841.14,-287.8 914.72,-268 915.2,-267.87 915.68,-267.74 916.16,-267.6"/>
<polygon fill="#64748b" stroke="#64748b" points="916.72,-269.99 922.58,-265.45 915.17,-265.35 916.72,-269.99"/>
</g>
<!-- n7&#45;&gt;n2 -->
<g id="edge3" class="edge">
<title>n7&#45;&gt;n2</title>
<path fill="none" stroke="#64748b" d="M667.56,-381.55C723.81,-371.87 804.76,-356.9 874.72,-340 875,-339.93 875.27,-339.87 875.55,-339.8"/>
<polygon fill="#64748b" stroke="#64748b" points="876.11,-342.18 882.29,-338.08 874.9,-337.43 876.11,-342.18"/>
</g>
<!-- n7&#45;&gt;n3 -->
<g id="edge4" class="edge">
<title>n7&#45;&gt;n3</title>
<path fill="none" stroke="#64748b" d="M576.09,-375.71C555.04,-356.83 528.8,-326.3 547.72,-304 611.25,-229.12 682.71,-320.47 765.72,-268 782.18,-257.59 774.85,-243.3 790.72,-232 838.85,-197.71 883.03,-243.11 918.72,-196 947.7,-157.74 945.33,-127.95 918.72,-88 899.65,-59.38 861.86,-46.18 832.44,-40.12"/>
<polygon fill="#64748b" stroke="#64748b" points="833.21,-37.77 825.88,-38.88 832.3,-42.59 833.21,-37.77"/>
</g>
<!-- n7&#45;&gt;n4 -->
<g id="edge6" class="edge">
<title>n7&#45;&gt;n4</title>
<path fill="none" stroke="#64748b" d="M648.92,-375.52C677.77,-365.67 713.92,-353.32 743.93,-343.07"/>
<polygon fill="#64748b" stroke="#64748b" points="744.55,-345.45 750.38,-340.87 742.97,-340.81 744.55,-345.45"/>
</g>
<!-- n7&#45;&gt;n5 -->
<g id="edge7" class="edge">
<title>n7&#45;&gt;n5</title>
<path fill="none" stroke="#64748b" d="M611.07,-375.7C617.8,-366.97 626.08,-356.24 633.4,-346.75"/>
<polygon fill="#64748b" stroke="#64748b" points="635.26,-348.34 637.6,-341.3 631.38,-345.35 635.26,-348.34"/>
</g>
<!-- n7&#45;&gt;n6 -->
<g id="edge8" class="edge">
<title>n7&#45;&gt;n6</title>
<path fill="none" stroke="#64748b" d="M579.9,-375.63C562.33,-356.4 540.53,-325.3 558.72,-304 591.89,-265.16 735.69,-278.29 785.72,-268 787.53,-267.63 789.37,-267.24 791.23,-266.83"/>
<polygon fill="#64748b" stroke="#64748b" points="791.66,-269.25 797.95,-265.32 790.58,-264.47 791.66,-269.25"/>
</g>
<!-- n8 -->
<g id="node9" class="node">
<title>n8</title>
<g id="a_node9"><a xlink:href="vscode://vscode-remote/wsl+Ubuntu/home/gavin/statlib/Statlib/Conformal/rankOfLast_pos.lean:13" xlink:title="lemma · Statlib/Conformal/rankOfLast_pos.lean:13" target="_blank">
<path fill="#eef2f6" stroke="#94a3b8" d="M823.02,-124C823.02,-124 760.42,-124 760.42,-124 754.42,-124 748.42,-118 748.42,-112 748.42,-112 748.42,-100 748.42,-100 748.42,-94 754.42,-88 760.42,-88 760.42,-88 823.02,-88 823.02,-88 829.02,-88 835.02,-94 835.02,-100 835.02,-100 835.02,-112 835.02,-112 835.02,-118 829.02,-124 823.02,-124"/>
<text xml:space="preserve" text-anchor="middle" x="791.72" y="-103" font-family="Helvetica,sans-Serif" font-size="10.00">rankOfLast_pos</text>
</a>
</g>
</g>
<!-- n8&#45;&gt;n3 -->
<g id="edge9" class="edge">
<title>n8&#45;&gt;n3</title>
<path fill="none" stroke="#64748b" d="M791.72,-87.7C791.72,-79.47 791.72,-69.48 791.72,-60.42"/>
<polygon fill="#64748b" stroke="#64748b" points="794.17,-60.62 791.72,-53.62 789.27,-60.62 794.17,-60.62"/>
</g>
<!-- n9 -->
<g id="node10" class="node">
<title>n9</title>
<g id="a_node10"><a xlink:href="vscode://vscode-remote/wsl+Ubuntu/home/gavin/statlib/Statlib/Conformal/rankOfLast_le_eq_iUnion.lean:12" xlink:title="lemma · Statlib/Conformal/rankOfLast_le_eq_iUnion.lean:12" target="_blank">
<path fill="#eef2f6" stroke="#94a3b8" d="M823.14,-196C823.14,-196 718.29,-196 718.29,-196 712.29,-196 706.29,-190 706.29,-184 706.29,-184 706.29,-172 706.29,-172 706.29,-166 712.29,-160 718.29,-160 718.29,-160 823.14,-160 823.14,-160 829.14,-160 835.14,-166 835.14,-172 835.14,-172 835.14,-184 835.14,-184 835.14,-190 829.14,-196 823.14,-196"/>
<text xml:space="preserve" text-anchor="middle" x="770.72" y="-175" font-family="Helvetica,sans-Serif" font-size="10.00">rankOfLast_le_eq_iUnion</text>
</a>
</g>
</g>
<!-- n9&#45;&gt;n3 -->
<g id="edge10" class="edge">
<title>n9&#45;&gt;n3</title>
<path fill="none" stroke="#64748b" d="M757.19,-159.74C744.77,-141.66 729.69,-112.54 739.72,-88 744.39,-76.56 752.86,-66.25 761.62,-57.84"/>
<polygon fill="#64748b" stroke="#64748b" points="763.04,-59.86 766.57,-53.34 759.74,-56.24 763.04,-59.86"/>
</g>
<!-- n9&#45;&gt;n8 -->
<g id="edge11" class="edge">
<title>n9&#45;&gt;n8</title>
<path fill="none" stroke="#64748b" d="M775.91,-159.7C778.4,-151.39 781.44,-141.28 784.18,-132.14"/>
<polygon fill="#64748b" stroke="#64748b" points="786.49,-132.96 786.15,-125.55 781.79,-131.55 786.49,-132.96"/>
</g>
<!-- n10 -->
<g id="node11" class="node">
<title>n10</title>
<g id="a_node11"><a xlink:href="vscode://vscode-remote/wsl+Ubuntu/home/gavin/statlib/Statlib/Conformal/rank_pairwiseDisjoint.lean:10" xlink:title="lemma · Statlib/Conformal/rank_pairwiseDisjoint.lean:10" target="_blank">
<path fill="#eef2f6" stroke="#94a3b8" d="M518.96,-268C518.96,-268 432.48,-268 432.48,-268 426.48,-268 420.48,-262 420.48,-256 420.48,-256 420.48,-244 420.48,-244 420.48,-238 426.48,-232 432.48,-232 432.48,-232 518.96,-232 518.96,-232 524.96,-232 530.96,-238 530.96,-244 530.96,-244 530.96,-256 530.96,-256 530.96,-262 524.96,-268 518.96,-268"/>
<text xml:space="preserve" text-anchor="middle" x="475.72" y="-247" font-family="Helvetica,sans-Serif" font-size="10.00">rank_pairwiseDisjoint</text>
</a>
</g>
</g>
<!-- n10&#45;&gt;n3 -->
<g id="edge12" class="edge">
<title>n10&#45;&gt;n3</title>
<path fill="none" stroke="#64748b" d="M531.27,-233.93C534.46,-233.24 537.62,-232.59 540.72,-232 607.34,-219.39 798.69,-246.7 843.72,-196 859.66,-178.06 852.8,-110.22 843.72,-88 839.04,-76.56 830.58,-66.25 821.81,-57.84"/>
<polygon fill="#64748b" stroke="#64748b" points="823.69,-56.24 816.86,-53.34 820.4,-59.86 823.69,-56.24"/>
</g>
<!-- n11 -->
<g id="node12" class="node">
<title>n11</title>
<g id="a_node12"><a xlink:href="vscode://vscode-remote/wsl+Ubuntu/home/gavin/statlib/Statlib/Conformal/measurableSet_rankOfLast_eq_loc.lean:13" xlink:title="lemma · Statlib/Conformal/measurableSet_rankOfLast_eq_loc.lean:13" target="_blank">
<path fill="#eef2f6" stroke="#94a3b8" d="M710.1,-268C710.1,-268 561.34,-268 561.34,-268 555.34,-268 549.34,-262 549.34,-256 549.34,-256 549.34,-244 549.34,-244 549.34,-238 555.34,-232 561.34,-232 561.34,-232 710.1,-232 710.1,-232 716.1,-232 722.1,-238 722.1,-244 722.1,-244 722.1,-256 722.1,-256 722.1,-262 716.1,-268 710.1,-268"/>
<text xml:space="preserve" text-anchor="middle" x="635.72" y="-247" font-family="Helvetica,sans-Serif" font-size="10.00">measurableSet_rankOfLast_eq_loc</text>
</a>
</g>
</g>
<!-- n11&#45;&gt;n3 -->
<g id="edge13" class="edge">
<title>n11&#45;&gt;n3</title>
<path fill="none" stroke="#64748b" d="M722.55,-233.66C781.35,-222.39 849.9,-207.16 858.72,-196 888.48,-158.34 879.63,-131.21 858.72,-88 852.73,-75.62 842.28,-65.25 831.4,-57.06"/>
<polygon fill="#64748b" stroke="#64748b" points="832.96,-55.17 825.83,-53.13 830.13,-59.17 832.96,-55.17"/>
</g>
<!-- n12 -->
<g id="node13" class="node">
<title>n12</title>
<g id="a_node13"><a xlink:href="vscode://vscode-remote/wsl+Ubuntu/home/gavin/statlib/Statlib/Conformal/rankOf.lean:18" xlink:title="noncomputable def · Statlib/Conformal/rankOf.lean:18" target="_blank">
<path fill="#d6e9ff" stroke="#3b82f6" d="M333.72,-52C333.72,-52 303.72,-52 303.72,-52 297.72,-52 291.72,-46 291.72,-40 291.72,-40 291.72,-28 291.72,-28 291.72,-22 297.72,-16 303.72,-16 303.72,-16 333.72,-16 333.72,-16 339.72,-16 345.72,-22 345.72,-28 345.72,-28 345.72,-40 345.72,-40 345.72,-46 339.72,-52 333.72,-52"/>
<text xml:space="preserve" text-anchor="middle" x="318.72" y="-31" font-family="Helvetica,sans-Serif" font-size="10.00">rankOf</text>
</a>
</g>
</g>
<!-- n13 -->
<g id="node14" class="node">
<title>n13</title>
<g id="a_node14"><a xlink:href="vscode://vscode-remote/wsl+Ubuntu/home/gavin/statlib/Statlib/Conformal/measurableSet_rankOf_eq.lean:11" xlink:title="lemma · Statlib/Conformal/measurableSet_rankOf_eq.lean:11" target="_blank">
<path fill="#eef2f6" stroke="#94a3b8" d="M436.48,-124C436.48,-124 324.96,-124 324.96,-124 318.96,-124 312.96,-118 312.96,-112 312.96,-112 312.96,-100 312.96,-100 312.96,-94 318.96,-88 324.96,-88 324.96,-88 436.48,-88 436.48,-88 442.48,-88 448.48,-94 448.48,-100 448.48,-100 448.48,-112 448.48,-112 448.48,-118 442.48,-124 436.48,-124"/>
<text xml:space="preserve" text-anchor="middle" x="380.72" y="-103" font-family="Helvetica,sans-Serif" font-size="10.00">measurableSet_rankOf_eq</text>
</a>
</g>
</g>
<!-- n13&#45;&gt;n12 -->
<g id="edge14" class="edge">
<title>n13&#45;&gt;n12</title>
<path fill="none" stroke="#64748b" d="M365.39,-87.7C357.58,-78.88 347.98,-68.03 339.51,-58.47"/>
<polygon fill="#64748b" stroke="#64748b" points="341.35,-56.85 334.87,-53.24 337.68,-60.1 341.35,-56.85"/>
</g>
<!-- n14 -->
<g id="node15" class="node">
<title>n14</title>
<g id="a_node15"><a xlink:href="vscode://vscode-remote/wsl+Ubuntu/home/gavin/statlib/Statlib/Conformal/measurableSet_rankOfLast_eq.lean:11" xlink:title="lemma · Statlib/Conformal/measurableSet_rankOfLast_eq.lean:11" target="_blank">
<path fill="#eef2f6" stroke="#94a3b8" d="M386.93,-196C386.93,-196 256.51,-196 256.51,-196 250.51,-196 244.51,-190 244.51,-184 244.51,-184 244.51,-172 244.51,-172 244.51,-166 250.51,-160 256.51,-160 256.51,-160 386.93,-160 386.93,-160 392.93,-160 398.93,-166 398.93,-172 398.93,-172 398.93,-184 398.93,-184 398.93,-190 392.93,-196 386.93,-196"/>
<text xml:space="preserve" text-anchor="middle" x="321.72" y="-175" font-family="Helvetica,sans-Serif" font-size="10.00">measurableSet_rankOfLast_eq</text>
</a>
</g>
</g>
<!-- n14&#45;&gt;n3 -->
<g id="edge15" class="edge">
<title>n14&#45;&gt;n3</title>
<path fill="none" stroke="#64748b" d="M372.32,-159.59C398.3,-150.08 430.19,-137.5 457.72,-124 485.64,-110.31 488.68,-99.12 517.72,-88 596.96,-57.65 696.01,-44.02 750.69,-38.44"/>
<polygon fill="#64748b" stroke="#64748b" points="750.84,-40.89 757.57,-37.76 750.36,-36.01 750.84,-40.89"/>
</g>
<!-- n14&#45;&gt;n13 -->
<g id="edge16" class="edge">
<title>n14&#45;&gt;n13</title>
<path fill="none" stroke="#64748b" d="M336.3,-159.7C343.73,-150.88 352.88,-140.03 360.93,-130.47"/>
<polygon fill="#64748b" stroke="#64748b" points="362.69,-132.19 365.33,-125.26 358.94,-129.04 362.69,-132.19"/>
</g>
<!-- n15 -->
<g id="node16" class="node">
<title>n15</title>
<g id="a_node16"><a xlink:href="vscode://vscode-remote/wsl+Ubuntu/home/gavin/statlib/Statlib/Conformal/rankOfLast_comp_perm.lean:13" xlink:title="lemma · Statlib/Conformal/rankOfLast_comp_perm.lean:13" target="_blank">
<path fill="#eef2f6" stroke="#94a3b8" d="M638.35,-124C638.35,-124 539.08,-124 539.08,-124 533.08,-124 527.08,-118 527.08,-112 527.08,-112 527.08,-100 527.08,-100 527.08,-94 533.08,-88 539.08,-88 539.08,-88 638.35,-88 638.35,-88 644.35,-88 650.35,-94 650.35,-100 650.35,-100 650.35,-112 650.35,-112 650.35,-118 644.35,-124 638.35,-124"/>
<text xml:space="preserve" text-anchor="middle" x="588.72" y="-103" font-family="Helvetica,sans-Serif" font-size="10.00">rankOfLast_comp_perm</text>
</a>
</g>
</g>
<!-- n15&#45;&gt;n3 -->
<g id="edge17" class="edge">
<title>n15&#45;&gt;n3</title>
<path fill="none" stroke="#64748b" d="M639.42,-87.52C673.85,-75.65 718.78,-60.15 750.9,-49.08"/>
<polygon fill="#64748b" stroke="#64748b" points="751.53,-51.45 757.35,-46.85 749.93,-46.82 751.53,-51.45"/>
</g>
<!-- n15&#45;&gt;n12 -->
<g id="edge18" class="edge">
<title>n15&#45;&gt;n12</title>
<path fill="none" stroke="#64748b" d="M526.78,-88.94C473.24,-75.06 397.78,-55.5 353.98,-44.14"/>
<polygon fill="#64748b" stroke="#64748b" points="354.78,-41.82 347.39,-42.43 353.55,-46.56 354.78,-41.82"/>
</g>
<!-- n16 -->
<g id="node17" class="node">
<title>n16</title>
<g id="a_node17"><a xlink:href="vscode://vscode-remote/wsl+Ubuntu/home/gavin/statlib/Statlib/Conformal/rankOfLast_swap_last.lean:13" xlink:title="lemma · Statlib/Conformal/rankOfLast_swap_last.lean:13" target="_blank">
<path fill="#eef2f6" stroke="#94a3b8" d="M539.19,-196C539.19,-196 448.25,-196 448.25,-196 442.25,-196 436.25,-190 436.25,-184 436.25,-184 436.25,-172 436.25,-172 436.25,-166 442.25,-160 448.25,-160 448.25,-160 539.19,-160 539.19,-160 545.19,-160 551.19,-166 551.19,-172 551.19,-172 551.19,-184 551.19,-184 551.19,-190 545.19,-196 539.19,-196"/>
<text xml:space="preserve" text-anchor="middle" x="493.72" y="-175" font-family="Helvetica,sans-Serif" font-size="10.00">rankOfLast_swap_last</text>
</a>
</g>
</g>
<!-- n16&#45;&gt;n3 -->
<g id="edge19" class="edge">
<title>n16&#45;&gt;n3</title>
<path fill="none" stroke="#64748b" d="M551.6,-162.76C592.22,-151.99 642.26,-136.9 659.72,-124 675.38,-112.42 669.97,-100.72 684.72,-88 704.15,-71.24 729.81,-58.29 751.13,-49.39"/>
<polygon fill="#64748b" stroke="#64748b" points="751.8,-51.76 757.37,-46.87 749.96,-47.22 751.8,-51.76"/>
</g>
<!-- n16&#45;&gt;n12 -->
<g id="edge20" class="edge">
<title>n16&#45;&gt;n12</title>
<path fill="none" stroke="#64748b" d="M494.32,-159.69C494.07,-139.93 490.61,-107.78 472.72,-88 442.25,-54.32 389.39,-42.04 354.23,-37.57"/>
<polygon fill="#64748b" stroke="#64748b" points="354.87,-35.17 347.64,-36.81 354.31,-40.04 354.87,-35.17"/>
</g>
<!-- n16&#45;&gt;n15 -->
<g id="edge21" class="edge">
<title>n16&#45;&gt;n15</title>
<path fill="none" stroke="#64748b" d="M517.2,-159.7C529.65,-150.53 545.08,-139.16 558.42,-129.33"/>
<polygon fill="#64748b" stroke="#64748b" points="559.78,-131.37 563.96,-125.24 556.87,-127.42 559.78,-131.37"/>
</g>
<!-- n17 -->
<g id="node18" class="node">
<title>n17</title>
<g id="a_node18"><a xlink:href="vscode://vscode-remote/wsl+Ubuntu/home/gavin/statlib/Statlib/Conformal/measure_rankOf_eq_measure_rankOfLast.lean:15" xlink:title="lemma · Statlib/Conformal/measure_rankOf_eq_measure_rankOfLast.lean:15" target="_blank">
<path fill="#eef2f6" stroke="#94a3b8" d="M270.77,-268C270.77,-268 88.67,-268 88.67,-268 82.67,-268 76.67,-262 76.67,-256 76.67,-256 76.67,-244 76.67,-244 76.67,-238 82.67,-232 88.67,-232 88.67,-232 270.77,-232 270.77,-232 276.77,-232 282.77,-238 282.77,-244 282.77,-244 282.77,-256 282.77,-256 282.77,-262 276.77,-268 270.77,-268"/>
<text xml:space="preserve" text-anchor="middle" x="179.72" y="-247" font-family="Helvetica,sans-Serif" font-size="10.00">measure_rankOf_eq_measure_rankOfLast</text>
</a>
</g>
</g>
<!-- n17&#45;&gt;n0 -->
<g id="edge22" class="edge">
<title>n17&#45;&gt;n0</title>
<path fill="none" stroke="#64748b" d="M283.1,-236.23C380.89,-223.95 520.51,-205.84 574.72,-196 583.07,-194.48 591.91,-192.65 600.45,-190.76"/>
<polygon fill="#64748b" stroke="#64748b" points="600.77,-193.21 607.06,-189.28 599.69,-188.43 600.77,-193.21"/>
</g>
<!-- n17&#45;&gt;n3 -->
<g id="edge24" class="edge">
<title>n17&#45;&gt;n3</title>
<path fill="none" stroke="#64748b" d="M283.07,-233.94C287.68,-233.28 292.25,-232.63 296.72,-232 413.54,-215.52 459.13,-257.66 559.72,-196 576.33,-185.82 569.41,-172.04 584.72,-160 619.55,-132.6 642.39,-150.76 677.72,-124 693.66,-111.92 689.91,-101.44 704.72,-88 718.8,-75.22 736.4,-63.82 752.08,-54.9"/>
<polygon fill="#64748b" stroke="#64748b" points="752.88,-57.26 757.81,-51.72 750.5,-52.98 752.88,-57.26"/>
</g>
<!-- n17&#45;&gt;n12 -->
<g id="edge23" class="edge">
<title>n17&#45;&gt;n12</title>
<path fill="none" stroke="#64748b" d="M283.01,-233.36C333.48,-224.08 387.6,-211.17 407.72,-196 422.33,-184.98 417.37,-175.1 427.72,-160 439.49,-142.82 450.63,-143.58 457.72,-124 463.17,-108.96 466.8,-101.18 457.72,-88 434.55,-54.37 386.98,-42.07 353.99,-37.57"/>
<polygon fill="#64748b" stroke="#64748b" points="354.69,-35.19 347.44,-36.77 354.09,-40.05 354.69,-35.19"/>
</g>
<!-- n17&#45;&gt;n14 -->
<g id="edge25" class="edge">
<title>n17&#45;&gt;n14</title>
<path fill="none" stroke="#64748b" d="M215.18,-231.52C234.56,-221.97 258.69,-210.07 279.09,-200.01"/>
<polygon fill="#64748b" stroke="#64748b" points="280.15,-202.22 285.35,-196.93 277.98,-197.83 280.15,-202.22"/>
</g>
<!-- n17&#45;&gt;n16 -->
<g id="edge26" class="edge">
<title>n17&#45;&gt;n16</title>
<path fill="none" stroke="#64748b" d="M261.92,-231.5C309.04,-221.37 369.26,-208.23 422.72,-196 424.48,-195.6 426.26,-195.19 428.05,-194.77"/>
<polygon fill="#64748b" stroke="#64748b" points="428.27,-197.24 434.53,-193.27 427.16,-192.47 428.27,-197.24"/>
</g>
<!-- n18 -->
<g id="node19" class="node">
<title>n18</title>
<g id="a_node19"><a xlink:href="vscode://vscode-remote/wsl+Ubuntu/home/gavin/statlib/Statlib/Conformal/rankOf_injective_of_injective.lean:12" xlink:title="lemma · Statlib/Conformal/rankOf_injective_of_injective.lean:12" target="_blank">
<path fill="#eef2f6" stroke="#94a3b8" d="M188.36,-124C188.36,-124 69.07,-124 69.07,-124 63.07,-124 57.07,-118 57.07,-112 57.07,-112 57.07,-100 57.07,-100 57.07,-94 63.07,-88 69.07,-88 69.07,-88 188.36,-88 188.36,-88 194.36,-88 200.36,-94 200.36,-100 200.36,-100 200.36,-112 200.36,-112 200.36,-118 194.36,-124 188.36,-124"/>
<text xml:space="preserve" text-anchor="middle" x="128.72" y="-103" font-family="Helvetica,sans-Serif" font-size="10.00">rankOf_injective_of_injective</text>
</a>
</g>
</g>
<!-- n18&#45;&gt;n12 -->
<g id="edge27" class="edge">
<title>n18&#45;&gt;n12</title>
<path fill="none" stroke="#64748b" d="M176.17,-87.52C209.47,-75.25 253.27,-59.11 283.48,-47.98"/>
<polygon fill="#64748b" stroke="#64748b" points="284.1,-50.37 289.82,-45.65 282.4,-45.77 284.1,-50.37"/>
</g>
<!-- n19 -->
<g id="node20" class="node">
<title>n19</title>
<g id="a_node20"><a xlink:href="vscode://vscode-remote/wsl+Ubuntu/home/gavin/statlib/Statlib/Conformal/rankOf_range.lean:11" xlink:title="lemma · Statlib/Conformal/rankOf_range.lean:11" target="_blank">
<path fill="#eef2f6" stroke="#94a3b8" d="M283.29,-124C283.29,-124 230.14,-124 230.14,-124 224.14,-124 218.14,-118 218.14,-112 218.14,-112 218.14,-100 218.14,-100 218.14,-94 224.14,-88 230.14,-88 230.14,-88 283.29,-88 283.29,-88 289.29,-88 295.29,-94 295.29,-100 295.29,-100 295.29,-112 295.29,-112 295.29,-118 289.29,-124 283.29,-124"/>
<text xml:space="preserve" text-anchor="middle" x="256.72" y="-103" font-family="Helvetica,sans-Serif" font-size="10.00">rankOf_range</text>
</a>
</g>
</g>
<!-- n19&#45;&gt;n12 -->
<g id="edge28" class="edge">
<title>n19&#45;&gt;n12</title>
<path fill="none" stroke="#64748b" d="M272.04,-87.7C279.85,-78.88 289.46,-68.03 297.93,-58.47"/>
<polygon fill="#64748b" stroke="#64748b" points="299.76,-60.1 302.57,-53.24 296.09,-56.85 299.76,-60.1"/>
</g>
<!-- n20 -->
<g id="node21" class="node">
<title>n20</title>
<g id="a_node21"><a xlink:href="vscode://vscode-remote/wsl+Ubuntu/home/gavin/statlib/Statlib/Conformal/card_filter_rankOf_eq_one.lean:14" xlink:title="lemma · Statlib/Conformal/card_filter_rankOf_eq_one.lean:14" target="_blank">
<path fill="#eef2f6" stroke="#94a3b8" d="M158.92,-196C158.92,-196 48.51,-196 48.51,-196 42.51,-196 36.51,-190 36.51,-184 36.51,-184 36.51,-172 36.51,-172 36.51,-166 42.51,-160 48.51,-160 48.51,-160 158.92,-160 158.92,-160 164.92,-160 170.92,-166 170.92,-172 170.92,-172 170.92,-184 170.92,-184 170.92,-190 164.92,-196 158.92,-196"/>
<text xml:space="preserve" text-anchor="middle" x="103.72" y="-175" font-family="Helvetica,sans-Serif" font-size="10.00">card_filter_rankOf_eq_one</text>
</a>
</g>
</g>
<!-- n20&#45;&gt;n12 -->
<g id="edge29" class="edge">
<title>n20&#45;&gt;n12</title>
<path fill="none" stroke="#64748b" d="M79.85,-159.73C57.02,-141.14 28.69,-111.11 47.72,-88 77.16,-52.24 216.56,-40.27 283.15,-36.55"/>
<polygon fill="#64748b" stroke="#64748b" points="282.9,-39.01 289.76,-36.19 282.64,-34.12 282.9,-39.01"/>
</g>
<!-- n20&#45;&gt;n18 -->
<g id="edge30" class="edge">
<title>n20&#45;&gt;n18</title>
<path fill="none" stroke="#64748b" d="M109.9,-159.7C112.9,-151.3 116.55,-141.07 119.84,-131.86"/>
<polygon fill="#64748b" stroke="#64748b" points="122.05,-132.95 122.1,-125.53 117.44,-131.3 122.05,-132.95"/>
</g>
<!-- n20&#45;&gt;n19 -->
<g id="edge31" class="edge">
<title>n20&#45;&gt;n19</title>
<path fill="none" stroke="#64748b" d="M141.93,-159.52C162.91,-149.92 189.07,-137.95 211.12,-127.86"/>
<polygon fill="#64748b" stroke="#64748b" points="212,-130.15 217.35,-125.01 209.97,-125.7 212,-130.15"/>
</g>
<!-- n21 -->
<g id="node22" class="node">
<title>n21</title>
<g id="a_node22"><a xlink:href="vscode://vscode-remote/wsl+Ubuntu/home/gavin/statlib/Statlib/Conformal/rank_uniform_of_exchangeable.lean:32" xlink:title="theorem · Statlib/Conformal/rank_uniform_of_exchangeable.lean:32" target="_blank">
<path fill="#ffe6a3" stroke="#d4a017" d="M245.77,-340C245.77,-340 113.67,-340 113.67,-340 107.67,-340 101.67,-334 101.67,-328 101.67,-328 101.67,-316 101.67,-316 101.67,-310 107.67,-304 113.67,-304 113.67,-304 245.77,-304 245.77,-304 251.77,-304 257.77,-310 257.77,-316 257.77,-316 257.77,-328 257.77,-328 257.77,-334 251.77,-340 245.77,-340"/>
<text xml:space="preserve" text-anchor="middle" x="179.72" y="-319" font-family="Helvetica,sans-Serif" font-size="10.00">rank_uniform_of_exchangeable</text>
</a>
</g>
</g>
<!-- n21&#45;&gt;n0 -->
<g id="edge32" class="edge">
<title>n21&#45;&gt;n0</title>
<path fill="none" stroke="#64748b" d="M237.48,-303.58C260.35,-295.04 286.05,-283.25 306.72,-268 323.48,-255.63 318.51,-242.12 336.72,-232 437.91,-175.75 481.78,-221.47 594.72,-196 596.73,-195.55 598.78,-195.05 600.84,-194.53"/>
<polygon fill="#64748b" stroke="#64748b" points="601.23,-196.96 607.36,-192.77 599.96,-192.23 601.23,-196.96"/>
</g>
<!-- n21&#45;&gt;n3 -->
<g id="edge33" class="edge">
<title>n21&#45;&gt;n3</title>
<path fill="none" stroke="#64748b" d="M236.68,-303.53C256.13,-295.29 276.72,-283.72 291.72,-268 303.68,-255.46 292.96,-242.55 306.72,-232 403.15,-158.08 475.9,-262.3 577.72,-196 593.43,-185.77 585.24,-171.92 599.72,-160 635.22,-130.77 658.01,-148.83 696.72,-124 715.76,-111.78 716.3,-103.57 732.72,-88 743.31,-77.96 755.25,-67.15 765.6,-57.92"/>
<polygon fill="#64748b" stroke="#64748b" points="767.07,-59.89 770.68,-53.41 763.82,-56.23 767.07,-59.89"/>
</g>
<!-- n21&#45;&gt;n12 -->
<g id="edge34" class="edge">
<title>n21&#45;&gt;n12</title>
<path fill="none" stroke="#64748b" d="M101.41,-305.01C80.02,-297.13 58.65,-285.41 43.72,-268 -8.39,-207.24 -17.49,-145.95 37.72,-88 70.97,-53.1 215.47,-40.65 283.3,-36.67"/>
<polygon fill="#64748b" stroke="#64748b" points="283.21,-39.13 290.06,-36.29 282.94,-34.24 283.21,-39.13"/>
</g>
<!-- n21&#45;&gt;n13 -->
<g id="edge37" class="edge">
<title>n21&#45;&gt;n13</title>
<path fill="none" stroke="#64748b" d="M112.28,-303.55C94.8,-295.64 78.02,-284.27 67.72,-268 59.16,-254.48 58.29,-244.93 67.72,-232 98.52,-189.75 132.44,-218.33 179.72,-196 206.47,-183.37 209.22,-173.16 235.72,-160 261.28,-147.31 290.67,-136 316.27,-127.13"/>
<polygon fill="#64748b" stroke="#64748b" points="316.82,-129.53 322.65,-124.94 315.24,-124.89 316.82,-129.53"/>
</g>
<!-- n21&#45;&gt;n17 -->
<g id="edge35" class="edge">
<title>n21&#45;&gt;n17</title>
<path fill="none" stroke="#64748b" d="M179.72,-303.7C179.72,-295.47 179.72,-285.48 179.72,-276.42"/>
<polygon fill="#64748b" stroke="#64748b" points="182.17,-276.62 179.72,-269.62 177.27,-276.62 182.17,-276.62"/>
</g>
<!-- n21&#45;&gt;n20 -->
<g id="edge36" class="edge">
<title>n21&#45;&gt;n20</title>
<path fill="none" stroke="#64748b" d="M101.49,-304.68C82.39,-296.83 64.18,-285.2 52.72,-268 38.22,-246.24 57.13,-220.17 75.89,-201.89"/>
<polygon fill="#64748b" stroke="#64748b" points="77.13,-204.08 80.56,-197.51 73.78,-200.5 77.13,-204.08"/>
</g>
<!-- n22 -->
<g id="node23" class="node">
<title>n22</title>
<g id="a_node23"><a xlink:href="vscode://vscode-remote/wsl+Ubuntu/home/gavin/statlib/Statlib/Conformal/measure_rank_le_eq.lean:16" xlink:title="lemma · Statlib/Conformal/measure_rank_le_eq.lean:16" target="_blank">
<path fill="#eef2f6" stroke="#94a3b8" d="M478.69,-412C478.69,-412 392.74,-412 392.74,-412 386.74,-412 380.74,-406 380.74,-400 380.74,-400 380.74,-388 380.74,-388 380.74,-382 386.74,-376 392.74,-376 392.74,-376 478.69,-376 478.69,-376 484.69,-376 490.69,-382 490.69,-388 490.69,-388 490.69,-400 490.69,-400 490.69,-406 484.69,-412 478.69,-412"/>
<text xml:space="preserve" text-anchor="middle" x="435.72" y="-391" font-family="Helvetica,sans-Serif" font-size="10.00">measure_rank_le_eq</text>
</a>
</g>
</g>
<!-- n22&#45;&gt;n0 -->
<g id="edge38" class="edge">
<title>n22&#45;&gt;n0</title>
<path fill="none" stroke="#64748b" d="M418.42,-375.52C410.13,-365.9 401.07,-353.24 396.72,-340 381.75,-294.39 365.96,-268.85 396.72,-232 425.37,-197.67 551.3,-206.74 594.72,-196 596.72,-195.5 598.76,-194.98 600.81,-194.42"/>
<polygon fill="#64748b" stroke="#64748b" points="601.24,-196.85 607.31,-192.6 599.91,-192.13 601.24,-196.85"/>
</g>
<!-- n22&#45;&gt;n3 -->
<g id="edge39" class="edge">
<title>n22&#45;&gt;n3</title>
<path fill="none" stroke="#64748b" d="M447.94,-375.56C466,-349.8 497.8,-304.57 498.72,-304 587.44,-249.07 642.25,-323.33 730.72,-268 747.23,-257.67 739.99,-243.49 755.72,-232 799.64,-199.9 840.4,-239.76 872.72,-196 881.2,-184.52 884.57,-113.13 870.72,-88 862.08,-72.34 846.62,-60.44 831.65,-51.93"/>
<polygon fill="#64748b" stroke="#64748b" points="833.03,-49.89 825.71,-48.74 830.71,-54.21 833.03,-49.89"/>
</g>
<!-- n22&#45;&gt;n9 -->
<g id="edge40" class="edge">
<title>n22&#45;&gt;n9</title>
<path fill="none" stroke="#64748b" d="M425.52,-375.98C407.6,-343.64 375.64,-272.9 411.72,-232 452.52,-185.74 621.45,-205.65 697.54,-195.74"/>
<polygon fill="#64748b" stroke="#64748b" points="697.87,-198.17 704.42,-194.69 697.13,-193.33 697.87,-198.17"/>
</g>
<!-- n22&#45;&gt;n10 -->
<g id="edge41" class="edge">
<title>n22&#45;&gt;n10</title>
<path fill="none" stroke="#64748b" d="M439.18,-375.79C442.95,-357.75 449.41,-328.66 456.72,-304 459.48,-294.67 462.97,-284.59 466.2,-275.74"/>
<polygon fill="#64748b" stroke="#64748b" points="468.4,-276.86 468.54,-269.44 463.8,-275.15 468.4,-276.86"/>
</g>
<!-- n22&#45;&gt;n11 -->
<g id="edge42" class="edge">
<title>n22&#45;&gt;n11</title>
<path fill="none" stroke="#64748b" d="M442.22,-375.68C451.14,-352.75 467.33,-314.05 478.72,-304 496.37,-288.42 518.79,-277.38 541.11,-269.58"/>
<polygon fill="#64748b" stroke="#64748b" points="541.7,-271.97 547.56,-267.43 540.15,-267.32 541.7,-271.97"/>
</g>
<!-- n22&#45;&gt;n21 -->
<g id="edge43" class="edge">
<title>n22&#45;&gt;n21</title>
<path fill="none" stroke="#64748b" d="M380.49,-377.9C342.73,-367.57 292.32,-353.79 251.46,-342.62"/>
<polygon fill="#64748b" stroke="#64748b" points="252.28,-340.3 244.88,-340.82 250.99,-345.03 252.28,-340.3"/>
</g>
<!-- n23 -->
<g id="node24" class="node">
<title>n23</title>
<g id="a_node24"><a xlink:href="vscode://vscode-remote/wsl+Ubuntu/home/gavin/statlib/Statlib/Conformal/marginal_coverage_upper.lean:18" xlink:title="theorem · Statlib/Conformal/marginal_coverage_upper.lean:18" target="_blank">
<path fill="#ffe6a3" stroke="#d4a017" d="M563.81,-484C563.81,-484 455.63,-484 455.63,-484 449.63,-484 443.63,-478 443.63,-472 443.63,-472 443.63,-460 443.63,-460 443.63,-454 449.63,-448 455.63,-448 455.63,-448 563.81,-448 563.81,-448 569.81,-448 575.81,-454 575.81,-460 575.81,-460 575.81,-472 575.81,-472 575.81,-478 569.81,-484 563.81,-484"/>
<text xml:space="preserve" text-anchor="middle" x="509.72" y="-463" font-family="Helvetica,sans-Serif" font-size="10.00">marginal_coverage_upper</text>
</a>
</g>
</g>
<!-- n23&#45;&gt;n0 -->
<g id="edge44" class="edge">
<title>n23&#45;&gt;n0</title>
<path fill="none" stroke="#64748b" d="M443.3,-456.04C416.45,-448.8 388,-435.69 371.72,-412 359.86,-394.74 331.14,-283.06 375.72,-232 408.16,-194.85 546.74,-207.43 594.72,-196 596.73,-195.52 598.77,-195.01 600.82,-194.47"/>
<polygon fill="#64748b" stroke="#64748b" points="601.24,-196.89 607.33,-192.67 599.93,-192.17 601.24,-196.89"/>
</g>
<!-- n23&#45;&gt;n2 -->
<g id="edge45" class="edge">
<title>n23&#45;&gt;n2</title>
<path fill="none" stroke="#64748b" d="M565.54,-447.55C597.8,-437.37 639.12,-424.18 675.72,-412 744.97,-388.96 824.28,-361.3 876.26,-342.99"/>
<polygon fill="#64748b" stroke="#64748b" points="876.83,-345.39 882.62,-340.75 875.2,-340.77 876.83,-345.39"/>
</g>
<!-- n23&#45;&gt;n3 -->
<g id="edge46" class="edge">
<title>n23&#45;&gt;n3</title>
<path fill="none" stroke="#64748b" d="M506.61,-447.61C501.76,-414.31 496.73,-341.52 536.72,-304 606.41,-238.61 672.57,-325.76 748.72,-268 762.82,-257.31 752.38,-243.62 765.72,-232 806.11,-196.83 849.01,-239.16 880.72,-196 888.89,-184.87 894.52,-113.77 879.72,-88 869.3,-69.87 849.97,-57.23 832.07,-48.85"/>
<polygon fill="#64748b" stroke="#64748b" points="833.3,-46.71 825.9,-46.13 831.32,-51.2 833.3,-46.71"/>
</g>
<!-- n23&#45;&gt;n7 -->
<g id="edge47" class="edge">
<title>n23&#45;&gt;n7</title>
<path fill="none" stroke="#64748b" d="M531.47,-447.7C542.89,-438.61 557.03,-427.36 569.31,-417.6"/>
<polygon fill="#64748b" stroke="#64748b" points="570.77,-419.56 574.73,-413.29 567.72,-415.73 570.77,-419.56"/>
</g>
<!-- n23&#45;&gt;n22 -->
<g id="edge48" class="edge">
<title>n23&#45;&gt;n22</title>
<path fill="none" stroke="#64748b" d="M491.43,-447.7C482,-438.78 470.37,-427.78 460.18,-418.14"/>
<polygon fill="#64748b" stroke="#64748b" points="461.93,-416.42 455.16,-413.39 458.56,-419.98 461.93,-416.42"/>
</g>
<!-- n24 -->
<g id="node25" class="node">
<title>n24</title>
<g id="a_node25"><a xlink:href="vscode://vscode-remote/wsl+Ubuntu/home/gavin/statlib/Statlib/Conformal/split_marginal_coverage_upper.lean:16" xlink:title="theorem · Statlib/Conformal/split_marginal_coverage_upper.lean:16" target="_blank">
<path fill="#ffe6a3" stroke="#d4a017" stroke-width="3" d="M575.48,-556C575.48,-556 443.95,-556 443.95,-556 437.95,-556 431.95,-550 431.95,-544 431.95,-544 431.95,-532 431.95,-532 431.95,-526 437.95,-520 443.95,-520 443.95,-520 575.48,-520 575.48,-520 581.48,-520 587.48,-526 587.48,-532 587.48,-532 587.48,-544 587.48,-544 587.48,-550 581.48,-556 575.48,-556"/>
<text xml:space="preserve" text-anchor="middle" x="509.72" y="-535" font-family="Helvetica,sans-Serif" font-size="10.00">split_marginal_coverage_upper</text>
</a>
</g>
</g>
<!-- n24&#45;&gt;n0 -->
<g id="edge49" class="edge">
<title>n24&#45;&gt;n0</title>
<path fill="none" stroke="#64748b" d="M458.4,-518.65C408.99,-497.3 341.72,-456.87 341.72,-395 341.72,-395 341.72,-395 341.72,-321 341.72,-281.09 325.71,-260.43 353.72,-232 391.57,-193.58 541.14,-208 593.72,-196 596,-195.48 598.33,-194.91 600.67,-194.31"/>
<polygon fill="#64748b" stroke="#64748b" points="601.08,-196.74 607.2,-192.54 599.8,-192.01 601.08,-196.74"/>
</g>
<!-- n24&#45;&gt;n2 -->
<g id="edge50" class="edge">
<title>n24&#45;&gt;n2</title>
<path fill="none" stroke="#64748b" d="M546.15,-518.57C624.45,-478.96 808.36,-385.92 891.1,-344.06"/>
<polygon fill="#64748b" stroke="#64748b" points="891.81,-346.44 896.95,-341.09 889.6,-342.07 891.81,-346.44"/>
</g>
<!-- n24&#45;&gt;n23 -->
<g id="edge51" class="edge">
<title>n24&#45;&gt;n23</title>
<path fill="none" stroke="#64748b" d="M509.72,-518.61C509.72,-510.59 509.72,-501.05 509.72,-492.37"/>
<polygon fill="#64748b" stroke="#64748b" points="512.17,-492.58 509.72,-485.58 507.27,-492.58 512.17,-492.58"/>
</g>
</g>
</svg>
