<?xml version="1.0" encoding="UTF-8" standalone="no"?>
<!DOCTYPE svg PUBLIC "-//W3C//DTD SVG 1.1//EN"
 "http://www.w3.org/Graphics/SVG/1.1/DTD/svg11.dtd">
<!-- Generated by graphviz version 15.0.0 (20260523.1842)
 -->
<!-- Title: cramer_wold_iff Pages: 1 -->
<svg width="604pt" height="482pt"
 viewBox="0.00 0.00 604.00 482.00" xmlns="http://www.w3.org/2000/svg" xmlns:xlink="http://www.w3.org/1999/xlink">
<g id="graph0" class="graph" transform="scale(1 1) rotate(0) translate(4 478)">
<title>cramer_wold_iff</title>
<polygon fill="white" stroke="none" points="-4,4 -4,-478 600,-478 600,4 -4,4"/>
<text xml:space="preserve" text-anchor="middle" x="298" y="-457.4" font-family="Helvetica,sans-Serif" font-size="14.00">Proof narrative — cramer_wold_iff &#160;(14 decls)</text>
<g id="clust1" class="cluster">
<title>cluster_0</title>
<path fill="none" stroke="#cbd5e1" stroke-dasharray="5,2" d="M20,-8C20,-8 576,-8 576,-8 582,-8 588,-14 588,-20 588,-20 588,-429.2 588,-429.2 588,-435.2 582,-441.2 576,-441.2 576,-441.2 20,-441.2 20,-441.2 14,-441.2 8,-435.2 8,-429.2 8,-429.2 8,-20 8,-20 8,-14 14,-8 20,-8"/>
<text xml:space="preserve" text-anchor="middle" x="298" y="-427.3" font-family="Helvetica,sans-Serif" font-size="11.00">LimitTheorems</text>
</g>
<!-- n0 -->
<g id="node1" class="node">
<title>n0</title>
<g id="a_node1"><a xlink:href="vscode://vscode-remote/wsl+Ubuntu/home/gavin/statlib/Statlib/LimitTheorems/cramer_wold_forward.lean:16" xlink:title="theorem · Statlib/LimitTheorems/cramer_wold_forward.lean:16" target="_blank">
<path fill="#ffe6a3" stroke="#d4a017" d="M116.07,-340C116.07,-340 27.93,-340 27.93,-340 21.93,-340 15.93,-334 15.93,-328 15.93,-328 15.93,-316 15.93,-316 15.93,-310 21.93,-304 27.93,-304 27.93,-304 116.07,-304 116.07,-304 122.07,-304 128.07,-310 128.07,-316 128.07,-316 128.07,-328 128.07,-328 128.07,-334 122.07,-340 116.07,-340"/>
<text xml:space="preserve" text-anchor="middle" x="72" y="-319" font-family="Helvetica,sans-Serif" font-size="10.00">cramer_wold_forward</text>
</a>
</g>
</g>
<!-- n1 -->
<g id="node2" class="node">
<title>n1</title>
<g id="a_node2"><a xlink:href="vscode://vscode-remote/wsl+Ubuntu/home/gavin/statlib/Statlib/LimitTheorems/levy_forward.lean:20" xlink:title="theorem · Statlib/LimitTheorems/levy_forward.lean:20" target="_blank">
<path fill="#ffe6a3" stroke="#d4a017" d="M76.34,-268C76.34,-268 27.66,-268 27.66,-268 21.66,-268 15.66,-262 15.66,-256 15.66,-256 15.66,-244 15.66,-244 15.66,-238 21.66,-232 27.66,-232 27.66,-232 76.34,-232 76.34,-232 82.34,-232 88.34,-238 88.34,-244 88.34,-244 88.34,-256 88.34,-256 88.34,-262 82.34,-268 76.34,-268"/>
<text xml:space="preserve" text-anchor="middle" x="52" y="-247" font-family="Helvetica,sans-Serif" font-size="10.00">levy_forward</text>
</a>
</g>
</g>
<!-- n2 -->
<g id="node3" class="node">
<title>n2</title>
<g id="a_node3"><a xlink:href="vscode://vscode-remote/wsl+Ubuntu/home/gavin/statlib/Statlib/LimitTheorems/charFun_map_innerSL.lean:13" xlink:title="lemma · Statlib/LimitTheorems/charFun_map_innerSL.lean:13" target="_blank">
<path fill="#eef2f6" stroke="#94a3b8" d="M175.86,-124C175.86,-124 82.14,-124 82.14,-124 76.14,-124 70.14,-118 70.14,-112 70.14,-112 70.14,-100 70.14,-100 70.14,-94 76.14,-88 82.14,-88 82.14,-88 175.86,-88 175.86,-88 181.86,-88 187.86,-94 187.86,-100 187.86,-100 187.86,-112 187.86,-112 187.86,-118 181.86,-124 175.86,-124"/>
<text xml:space="preserve" text-anchor="middle" x="129" y="-103" font-family="Helvetica,sans-Serif" font-size="10.00">charFun_map_innerSL</text>
</a>
</g>
</g>
<!-- n3 -->
<g id="node4" class="node">
<title>n3</title>
<g id="a_node4"><a xlink:href="vscode://vscode-remote/wsl+Ubuntu/home/gavin/statlib/Statlib/LimitTheorems/continuous_charFun.lean:13" xlink:title="lemma · Statlib/LimitTheorems/continuous_charFun.lean:13" target="_blank">
<path fill="#eef2f6" stroke="#94a3b8" d="M220.31,-268C220.31,-268 137.69,-268 137.69,-268 131.69,-268 125.69,-262 125.69,-256 125.69,-256 125.69,-244 125.69,-244 125.69,-238 131.69,-232 137.69,-232 137.69,-232 220.31,-232 220.31,-232 226.31,-232 232.31,-238 232.31,-244 232.31,-244 232.31,-256 232.31,-256 232.31,-262 226.31,-268 220.31,-268"/>
<text xml:space="preserve" text-anchor="middle" x="179" y="-247" font-family="Helvetica,sans-Serif" font-size="10.00">continuous_charFun</text>
</a>
</g>
</g>
<!-- n4 -->
<g id="node5" class="node">
<title>n4</title>
<g id="a_node5"><a xlink:href="vscode://vscode-remote/wsl+Ubuntu/home/gavin/statlib/Statlib/LimitTheorems/compl_Icc_eq_abs_gt.lean:16" xlink:title="lemma · Statlib/LimitTheorems/compl_Icc_eq_abs_gt.lean:16" target="_blank">
<path fill="#eef2f6" stroke="#94a3b8" d="M311.64,-52C311.64,-52 222.36,-52 222.36,-52 216.36,-52 210.36,-46 210.36,-40 210.36,-40 210.36,-28 210.36,-28 210.36,-22 216.36,-16 222.36,-16 222.36,-16 311.64,-16 311.64,-16 317.64,-16 323.64,-22 323.64,-28 323.64,-28 323.64,-40 323.64,-40 323.64,-46 317.64,-52 311.64,-52"/>
<text xml:space="preserve" text-anchor="middle" x="267" y="-31" font-family="Helvetica,sans-Serif" font-size="10.00">compl_Icc_eq_abs_gt</text>
</a>
</g>
</g>
<!-- n5 -->
<g id="node6" class="node">
<title>n5</title>
<g id="a_node6"><a xlink:href="vscode://vscode-remote/wsl+Ubuntu/home/gavin/statlib/Statlib/LimitTheorems/isTight_finiteRange.lean:16" xlink:title="theorem · Statlib/LimitTheorems/isTight_finiteRange.lean:16" target="_blank">
<path fill="#ffe6a3" stroke="#d4a017" d="M430.8,-52C430.8,-52 353.2,-52 353.2,-52 347.2,-52 341.2,-46 341.2,-40 341.2,-40 341.2,-28 341.2,-28 341.2,-22 347.2,-16 353.2,-16 353.2,-16 430.8,-16 430.8,-16 436.8,-16 442.8,-22 442.8,-28 442.8,-28 442.8,-40 442.8,-40 442.8,-46 436.8,-52 430.8,-52"/>
<text xml:space="preserve" text-anchor="middle" x="392" y="-31" font-family="Helvetica,sans-Serif" font-size="10.00">isTight_finiteRange</text>
</a>
</g>
</g>
<!-- n6 -->
<g id="node7" class="node">
<title>n6</title>
<g id="a_node7"><a xlink:href="vscode://vscode-remote/wsl+Ubuntu/home/gavin/statlib/Statlib/LimitTheorems/isTight_of_charFun_tendsto.lean:23" xlink:title="theorem · Statlib/LimitTheorems/isTight_of_charFun_tendsto.lean:23" target="_blank">
<path fill="#ffe6a3" stroke="#d4a017" d="M387.98,-124C387.98,-124 272.02,-124 272.02,-124 266.02,-124 260.02,-118 260.02,-112 260.02,-112 260.02,-100 260.02,-100 260.02,-94 266.02,-88 272.02,-88 272.02,-88 387.98,-88 387.98,-88 393.98,-88 399.98,-94 399.98,-100 399.98,-100 399.98,-112 399.98,-112 399.98,-118 393.98,-124 387.98,-124"/>
<text xml:space="preserve" text-anchor="middle" x="330" y="-103" font-family="Helvetica,sans-Serif" font-size="10.00">isTight_of_charFun_tendsto</text>
</a>
</g>
</g>
<!-- n6&#45;&gt;n4 -->
<g id="edge1" class="edge">
<title>n6&#45;&gt;n4</title>
<path fill="none" stroke="#64748b" d="M314.43,-87.7C306.42,-78.8 296.54,-67.82 287.88,-58.2"/>
<polygon fill="#64748b" stroke="#64748b" points="289.91,-56.79 283.41,-53.23 286.27,-60.07 289.91,-56.79"/>
</g>
<!-- n6&#45;&gt;n5 -->
<g id="edge2" class="edge">
<title>n6&#45;&gt;n5</title>
<path fill="none" stroke="#64748b" d="M345.33,-87.7C353.13,-78.88 362.74,-68.03 371.21,-58.47"/>
<polygon fill="#64748b" stroke="#64748b" points="373.04,-60.1 375.85,-53.24 369.37,-56.85 373.04,-60.1"/>
</g>
<!-- n7 -->
<g id="node8" class="node">
<title>n7</title>
<g id="a_node8"><a xlink:href="vscode://vscode-remote/wsl+Ubuntu/home/gavin/statlib/Statlib/LimitTheorems/isTight_of_charFun_tendsto_inner.lean:14" xlink:title="lemma · Statlib/LimitTheorems/isTight_of_charFun_tendsto_inner.lean:14" target="_blank">
<path fill="#eef2f6" stroke="#94a3b8" d="M401.88,-196C401.88,-196 258.12,-196 258.12,-196 252.12,-196 246.12,-190 246.12,-184 246.12,-184 246.12,-172 246.12,-172 246.12,-166 252.12,-160 258.12,-160 258.12,-160 401.88,-160 401.88,-160 407.88,-160 413.88,-166 413.88,-172 413.88,-172 413.88,-184 413.88,-184 413.88,-190 407.88,-196 401.88,-196"/>
<text xml:space="preserve" text-anchor="middle" x="330" y="-175" font-family="Helvetica,sans-Serif" font-size="10.00">isTight_of_charFun_tendsto_inner</text>
</a>
</g>
</g>
<!-- n7&#45;&gt;n2 -->
<g id="edge4" class="edge">
<title>n7&#45;&gt;n2</title>
<path fill="none" stroke="#64748b" d="M279.8,-159.52C251.51,-149.67 216.06,-137.32 186.64,-127.07"/>
<polygon fill="#64748b" stroke="#64748b" points="187.76,-124.87 180.34,-124.88 186.14,-129.5 187.76,-124.87"/>
</g>
<!-- n7&#45;&gt;n6 -->
<g id="edge3" class="edge">
<title>n7&#45;&gt;n6</title>
<path fill="none" stroke="#64748b" d="M330,-159.7C330,-151.47 330,-141.48 330,-132.42"/>
<polygon fill="#64748b" stroke="#64748b" points="332.45,-132.62 330,-125.62 327.55,-132.62 332.45,-132.62"/>
</g>
<!-- n8 -->
<g id="node9" class="node">
<title>n8</title>
<g id="a_node9"><a xlink:href="vscode://vscode-remote/wsl+Ubuntu/home/gavin/statlib/Statlib/LimitTheorems/levy_forward_inner.lean:18" xlink:title="theorem · Statlib/LimitTheorems/levy_forward_inner.lean:18" target="_blank">
<path fill="#ffe6a3" stroke="#d4a017" d="M544.24,-124C544.24,-124 467.76,-124 467.76,-124 461.76,-124 455.76,-118 455.76,-112 455.76,-112 455.76,-100 455.76,-100 455.76,-94 461.76,-88 467.76,-88 467.76,-88 544.24,-88 544.24,-88 550.24,-88 556.24,-94 556.24,-100 556.24,-100 556.24,-112 556.24,-112 556.24,-118 550.24,-124 544.24,-124"/>
<text xml:space="preserve" text-anchor="middle" x="506" y="-103" font-family="Helvetica,sans-Serif" font-size="10.00">levy_forward_inner</text>
</a>
</g>
</g>
<!-- n9 -->
<g id="node10" class="node">
<title>n9</title>
<g id="a_node10"><a xlink:href="vscode://vscode-remote/wsl+Ubuntu/home/gavin/statlib/Statlib/LimitTheorems/charFun_eq_of_subseq_inner.lean:14" xlink:title="lemma · Statlib/LimitTheorems/charFun_eq_of_subseq_inner.lean:14" target="_blank">
<path fill="#eef2f6" stroke="#94a3b8" d="M568.44,-196C568.44,-196 443.56,-196 443.56,-196 437.56,-196 431.56,-190 431.56,-184 431.56,-184 431.56,-172 431.56,-172 431.56,-166 437.56,-160 443.56,-160 443.56,-160 568.44,-160 568.44,-160 574.44,-160 580.44,-166 580.44,-172 580.44,-172 580.44,-184 580.44,-184 580.44,-190 574.44,-196 568.44,-196"/>
<text xml:space="preserve" text-anchor="middle" x="506" y="-175" font-family="Helvetica,sans-Serif" font-size="10.00">charFun_eq_of_subseq_inner</text>
</a>
</g>
</g>
<!-- n9&#45;&gt;n8 -->
<g id="edge5" class="edge">
<title>n9&#45;&gt;n8</title>
<path fill="none" stroke="#64748b" d="M506,-159.7C506,-151.47 506,-141.48 506,-132.42"/>
<polygon fill="#64748b" stroke="#64748b" points="508.45,-132.62 506,-125.62 503.55,-132.62 508.45,-132.62"/>
</g>
<!-- n10 -->
<g id="node11" class="node">
<title>n10</title>
<g id="a_node11"><a xlink:href="vscode://vscode-remote/wsl+Ubuntu/home/gavin/statlib/Statlib/LimitTheorems/probMeasure_eq_of_charFun_eq_inner.lean:13" xlink:title="lemma · Statlib/LimitTheorems/probMeasure_eq_of_charFun_eq_inner.lean:13" target="_blank">
<path fill="#eef2f6" stroke="#94a3b8" d="M216.12,-196C216.12,-196 47.88,-196 47.88,-196 41.88,-196 35.88,-190 35.88,-184 35.88,-184 35.88,-172 35.88,-172 35.88,-166 41.88,-160 47.88,-160 47.88,-160 216.12,-160 216.12,-160 222.12,-160 228.12,-166 228.12,-172 228.12,-172 228.12,-184 228.12,-184 228.12,-190 222.12,-196 216.12,-196"/>
<text xml:space="preserve" text-anchor="middle" x="132" y="-175" font-family="Helvetica,sans-Serif" font-size="10.00">probMeasure_eq_of_charFun_eq_inner</text>
</a>
</g>
</g>
<!-- n11 -->
<g id="node12" class="node">
<title>n11</title>
<g id="a_node12"><a xlink:href="vscode://vscode-remote/wsl+Ubuntu/home/gavin/statlib/Statlib/LimitTheorems/cramer_wold_charFun.lean:19" xlink:title="theorem · Statlib/LimitTheorems/cramer_wold_charFun.lean:19" target="_blank">
<path fill="#ffe6a3" stroke="#d4a017" d="M374.74,-268C374.74,-268 283.26,-268 283.26,-268 277.26,-268 271.26,-262 271.26,-256 271.26,-256 271.26,-244 271.26,-244 271.26,-238 277.26,-232 283.26,-232 283.26,-232 374.74,-232 374.74,-232 380.74,-232 386.74,-238 386.74,-244 386.74,-244 386.74,-256 386.74,-256 386.74,-262 380.74,-268 374.74,-268"/>
<text xml:space="preserve" text-anchor="middle" x="329" y="-247" font-family="Helvetica,sans-Serif" font-size="10.00">cramer_wold_charFun</text>
</a>
</g>
</g>
<!-- n11&#45;&gt;n7 -->
<g id="edge6" class="edge">
<title>n11&#45;&gt;n7</title>
<path fill="none" stroke="#64748b" d="M329.25,-231.7C329.36,-223.47 329.51,-213.48 329.64,-204.42"/>
<polygon fill="#64748b" stroke="#64748b" points="332.08,-204.65 329.73,-197.62 327.18,-204.58 332.08,-204.65"/>
</g>
<!-- n11&#45;&gt;n9 -->
<g id="edge7" class="edge">
<title>n11&#45;&gt;n9</title>
<path fill="none" stroke="#64748b" d="M373.21,-231.52C397.8,-221.79 428.54,-209.64 454.24,-199.47"/>
<polygon fill="#64748b" stroke="#64748b" points="455.03,-201.79 460.64,-196.94 453.23,-197.23 455.03,-201.79"/>
</g>
<!-- n11&#45;&gt;n10 -->
<g id="edge8" class="edge">
<title>n11&#45;&gt;n10</title>
<path fill="none" stroke="#64748b" d="M279.8,-231.52C252.19,-221.71 217.63,-209.43 188.86,-199.21"/>
<polygon fill="#64748b" stroke="#64748b" points="189.76,-196.92 182.34,-196.89 188.12,-201.54 189.76,-196.92"/>
</g>
<!-- n12 -->
<g id="node13" class="node">
<title>n12</title>
<g id="a_node13"><a xlink:href="vscode://vscode-remote/wsl+Ubuntu/home/gavin/statlib/Statlib/LimitTheorems/cramer_wold_reverse.lean:19" xlink:title="theorem · Statlib/LimitTheorems/cramer_wold_reverse.lean:19" target="_blank">
<path fill="#ffe6a3" stroke="#d4a017" d="M246.07,-340C246.07,-340 157.93,-340 157.93,-340 151.93,-340 145.93,-334 145.93,-328 145.93,-328 145.93,-316 145.93,-316 145.93,-310 151.93,-304 157.93,-304 157.93,-304 246.07,-304 246.07,-304 252.07,-304 258.07,-310 258.07,-316 258.07,-316 258.07,-328 258.07,-328 258.07,-334 252.07,-340 246.07,-340"/>
<text xml:space="preserve" text-anchor="middle" x="202" y="-319" font-family="Helvetica,sans-Serif" font-size="10.00">cramer_wold_reverse</text>
</a>
</g>
</g>
<!-- n12&#45;&gt;n1 -->
<g id="edge9" class="edge">
<title>n12&#45;&gt;n1</title>
<path fill="none" stroke="#64748b" d="M164.54,-303.52C143.81,-293.84 117.93,-281.77 96.22,-271.64"/>
<polygon fill="#64748b" stroke="#64748b" points="97.48,-269.52 90.1,-268.78 95.41,-273.96 97.48,-269.52"/>
</g>
<!-- n12&#45;&gt;n2 -->
<g id="edge10" class="edge">
<title>n12&#45;&gt;n2</title>
<path fill="none" stroke="#64748b" d="M165.59,-303.67C149.33,-294.66 130.78,-282.49 117,-268 104.39,-254.74 110.15,-244.73 97,-232 71.87,-207.66 45.22,-225.86 27,-196 18.67,-182.34 18.69,-173.68 27,-160 35.34,-146.27 48.51,-135.94 62.66,-128.22"/>
<polygon fill="#64748b" stroke="#64748b" points="63.65,-130.47 68.77,-125.11 61.43,-126.1 63.65,-130.47"/>
</g>
<!-- n12&#45;&gt;n3 -->
<g id="edge11" class="edge">
<title>n12&#45;&gt;n3</title>
<path fill="none" stroke="#64748b" d="M196.31,-303.7C193.59,-295.39 190.26,-285.28 187.26,-276.14"/>
<polygon fill="#64748b" stroke="#64748b" points="189.61,-275.43 185.09,-269.54 184.95,-276.96 189.61,-275.43"/>
</g>
<!-- n12&#45;&gt;n10 -->
<g id="edge13" class="edge">
<title>n12&#45;&gt;n10</title>
<path fill="none" stroke="#64748b" d="M219.48,-303.53C235.79,-285.02 255.59,-255.31 241,-232 232.27,-218.05 218.7,-207.68 204.07,-200"/>
<polygon fill="#64748b" stroke="#64748b" points="205.54,-197.99 198.17,-197.11 203.38,-202.39 205.54,-197.99"/>
</g>
<!-- n12&#45;&gt;n11 -->
<g id="edge12" class="edge">
<title>n12&#45;&gt;n11</title>
<path fill="none" stroke="#64748b" d="M233.72,-303.52C250.97,-294.01 272.44,-282.17 290.63,-272.15"/>
<polygon fill="#64748b" stroke="#64748b" points="291.41,-274.52 296.36,-268.99 289.05,-270.22 291.41,-274.52"/>
</g>
<!-- n13 -->
<g id="node14" class="node">
<title>n13</title>
<g id="a_node14"><a xlink:href="vscode://vscode-remote/wsl+Ubuntu/home/gavin/statlib/Statlib/LimitTheorems/cramer_wold_iff.lean:20" xlink:title="theorem · Statlib/LimitTheorems/cramer_wold_iff.lean:20" target="_blank">
<path fill="#ffe6a3" stroke="#d4a017" stroke-width="3" d="M168.29,-412C168.29,-412 105.71,-412 105.71,-412 99.71,-412 93.71,-406 93.71,-400 93.71,-400 93.71,-388 93.71,-388 93.71,-382 99.71,-376 105.71,-376 105.71,-376 168.29,-376 168.29,-376 174.29,-376 180.29,-382 180.29,-388 180.29,-388 180.29,-400 180.29,-400 180.29,-406 174.29,-412 168.29,-412"/>
<text xml:space="preserve" text-anchor="middle" x="137" y="-391" font-family="Helvetica,sans-Serif" font-size="10.00">cramer_wold_iff</text>
</a>
</g>
</g>
<!-- n13&#45;&gt;n0 -->
<g id="edge14" class="edge">
<title>n13&#45;&gt;n0</title>
<path fill="none" stroke="#64748b" d="M119.92,-374.61C111.85,-365.92 102.13,-355.45 93.56,-346.22"/>
<polygon fill="#64748b" stroke="#64748b" points="95.44,-344.64 88.88,-341.18 91.85,-347.97 95.44,-344.64"/>
</g>
<!-- n13&#45;&gt;n12 -->
<g id="edge15" class="edge">
<title>n13&#45;&gt;n12</title>
<path fill="none" stroke="#64748b" d="M154.08,-374.61C162.15,-365.92 171.87,-355.45 180.44,-346.22"/>
<polygon fill="#64748b" stroke="#64748b" points="182.15,-347.97 185.12,-341.18 178.56,-344.64 182.15,-347.97"/>
</g>
</g>
</svg>
