<?xml version="1.0" encoding="UTF-8" standalone="no"?>
<!DOCTYPE svg PUBLIC "-//W3C//DTD SVG 1.1//EN"
 "http://www.w3.org/Graphics/SVG/1.1/DTD/svg11.dtd">
<!-- Generated by graphviz version 15.0.0 (20260523.1842)
 -->
<!-- Title: multivariate_clt Pages: 1 -->
<svg width="1510pt" height="555pt"
 viewBox="0.00 0.00 1510.00 555.00" xmlns="http://www.w3.org/2000/svg" xmlns:xlink="http://www.w3.org/1999/xlink">
<g id="graph0" class="graph" transform="scale(1 1) rotate(0) translate(4 551.2)">
<title>multivariate_clt</title>
<polygon fill="white" stroke="none" points="-4,4 -4,-551.2 1506,-551.2 1506,4 -4,4"/>
<text xml:space="preserve" text-anchor="middle" x="751" y="-530.6" font-family="Helvetica,sans-Serif" font-size="14.00">Proof narrative — multivariate_clt &#160;(28 decls)</text>
<g id="clust1" class="cluster">
<title>cluster_0</title>
<path fill="none" stroke="#cbd5e1" stroke-dasharray="5,2" d="M578,-8C578,-8 1482,-8 1482,-8 1488,-8 1494,-14 1494,-20 1494,-20 1494,-357.2 1494,-357.2 1494,-363.2 1488,-369.2 1482,-369.2 1482,-369.2 578,-369.2 578,-369.2 572,-369.2 566,-363.2 566,-357.2 566,-357.2 566,-20 566,-20 566,-14 572,-8 578,-8"/>
<text xml:space="preserve" text-anchor="middle" x="1030" y="-355.3" font-family="Helvetica,sans-Serif" font-size="11.00">CharFun</text>
</g>
<g id="clust2" class="cluster">
<title>cluster_1</title>
<path fill="none" stroke="#cbd5e1" stroke-dasharray="5,2" d="M20,-152C20,-152 546,-152 546,-152 552,-152 558,-158 558,-164 558,-164 558,-502.4 558,-502.4 558,-508.4 552,-514.4 546,-514.4 546,-514.4 20,-514.4 20,-514.4 14,-514.4 8,-508.4 8,-502.4 8,-502.4 8,-164 8,-164 8,-158 14,-152 20,-152"/>
<text xml:space="preserve" text-anchor="middle" x="283" y="-500.5" font-family="Helvetica,sans-Serif" font-size="11.00">LimitTheorems</text>
</g>
<!-- n5 -->
<g id="node1" class="node">
<title>n5</title>
<g id="a_node1"><a xlink:href="vscode://vscode-remote/wsl+Ubuntu/home/gavin/statlib/Statlib/CharFun/lyapunov_third_moment.lean:19" xlink:title="lemma · Statlib/CharFun/lyapunov_third_moment.lean:19" target="_blank">
<path fill="#eef2f6" stroke="#94a3b8" d="M684.36,-268C684.36,-268 585.64,-268 585.64,-268 579.64,-268 573.64,-262 573.64,-256 573.64,-256 573.64,-244 573.64,-244 573.64,-238 579.64,-232 585.64,-232 585.64,-232 684.36,-232 684.36,-232 690.36,-232 696.36,-238 696.36,-244 696.36,-244 696.36,-256 696.36,-256 696.36,-262 690.36,-268 684.36,-268"/>
<text xml:space="preserve" text-anchor="middle" x="635" y="-247" font-family="Helvetica,sans-Serif" font-size="10.00">lyapunov_third_moment</text>
</a>
</g>
</g>
<!-- n6 -->
<g id="node2" class="node">
<title>n6</title>
<g id="a_node2"><a xlink:href="vscode://vscode-remote/wsl+Ubuntu/home/gavin/statlib/Statlib/CharFun/charfun_sum_indep.lean:19" xlink:title="lemma · Statlib/CharFun/charfun_sum_indep.lean:19" target="_blank">
<path fill="#eef2f6" stroke="#94a3b8" d="M819.92,-196C819.92,-196 740.08,-196 740.08,-196 734.08,-196 728.08,-190 728.08,-184 728.08,-184 728.08,-172 728.08,-172 728.08,-166 734.08,-160 740.08,-160 740.08,-160 819.92,-160 819.92,-160 825.92,-160 831.92,-166 831.92,-172 831.92,-172 831.92,-184 831.92,-184 831.92,-190 825.92,-196 819.92,-196"/>
<text xml:space="preserve" text-anchor="middle" x="780" y="-175" font-family="Helvetica,sans-Serif" font-size="10.00">charfun_sum_indep</text>
</a>
</g>
</g>
<!-- n7 -->
<g id="node3" class="node">
<title>n7</title>
<g id="a_node3"><a xlink:href="vscode://vscode-remote/wsl+Ubuntu/home/gavin/statlib/Statlib/CharFun/charfun_iid_sum_eq_prod.lean:20" xlink:title="lemma · Statlib/CharFun/charfun_iid_sum_eq_prod.lean:20" target="_blank">
<path fill="#eef2f6" stroke="#94a3b8" d="M833.82,-268C833.82,-268 726.18,-268 726.18,-268 720.18,-268 714.18,-262 714.18,-256 714.18,-256 714.18,-244 714.18,-244 714.18,-238 720.18,-232 726.18,-232 726.18,-232 833.82,-232 833.82,-232 839.82,-232 845.82,-238 845.82,-244 845.82,-244 845.82,-256 845.82,-256 845.82,-262 839.82,-268 833.82,-268"/>
<text xml:space="preserve" text-anchor="middle" x="780" y="-247" font-family="Helvetica,sans-Serif" font-size="10.00">charfun_iid_sum_eq_prod</text>
</a>
</g>
</g>
<!-- n7&#45;&gt;n6 -->
<g id="edge3" class="edge">
<title>n7&#45;&gt;n6</title>
<path fill="none" stroke="#64748b" d="M780,-231.7C780,-223.47 780,-213.48 780,-204.42"/>
<polygon fill="#64748b" stroke="#64748b" points="782.45,-204.62 780,-197.62 777.55,-204.62 782.45,-204.62"/>
</g>
<!-- n8 -->
<g id="node4" class="node">
<title>n8</title>
<g id="a_node4"><a xlink:href="vscode://vscode-remote/wsl+Ubuntu/home/gavin/statlib/Statlib/CharFun/charFun_gaussianReal_standard.lean:18" xlink:title="lemma · Statlib/CharFun/charFun_gaussianReal_standard.lean:18" target="_blank">
<path fill="#eef2f6" stroke="#94a3b8" d="M1014.66,-268C1014.66,-268 875.34,-268 875.34,-268 869.34,-268 863.34,-262 863.34,-256 863.34,-256 863.34,-244 863.34,-244 863.34,-238 869.34,-232 875.34,-232 875.34,-232 1014.66,-232 1014.66,-232 1020.66,-232 1026.66,-238 1026.66,-244 1026.66,-244 1026.66,-256 1026.66,-256 1026.66,-262 1020.66,-268 1014.66,-268"/>
<text xml:space="preserve" text-anchor="middle" x="945" y="-247" font-family="Helvetica,sans-Serif" font-size="10.00">charFun_gaussianReal_standard</text>
</a>
</g>
</g>
<!-- n9 -->
<g id="node5" class="node">
<title>n9</title>
<g id="a_node5"><a xlink:href="vscode://vscode-remote/wsl+Ubuntu/home/gavin/statlib/Statlib/CharFun/norm_ofReal_mul_I.lean:17" xlink:title="lemma · Statlib/CharFun/norm_ofReal_mul_I.lean:17" target="_blank">
<path fill="#eef2f6" stroke="#94a3b8" d="M980.63,-52C980.63,-52 901.37,-52 901.37,-52 895.37,-52 889.37,-46 889.37,-40 889.37,-40 889.37,-28 889.37,-28 889.37,-22 895.37,-16 901.37,-16 901.37,-16 980.63,-16 980.63,-16 986.63,-16 992.63,-22 992.63,-28 992.63,-28 992.63,-40 992.63,-40 992.63,-46 986.63,-52 980.63,-52"/>
<text xml:space="preserve" text-anchor="middle" x="941" y="-31" font-family="Helvetica,sans-Serif" font-size="10.00">norm_ofReal_mul_I</text>
</a>
</g>
</g>
<!-- n10 -->
<g id="node6" class="node">
<title>n10</title>
<g id="a_node6"><a xlink:href="vscode://vscode-remote/wsl+Ubuntu/home/gavin/statlib/Statlib/CharFun/norm_cexp_sub_quadratic_le.lean:19" xlink:title="lemma · Statlib/CharFun/norm_cexp_sub_quadratic_le.lean:19" target="_blank">
<path fill="#eef2f6" stroke="#94a3b8" d="M1002.6,-124C1002.6,-124 879.4,-124 879.4,-124 873.4,-124 867.4,-118 867.4,-112 867.4,-112 867.4,-100 867.4,-100 867.4,-94 873.4,-88 879.4,-88 879.4,-88 1002.6,-88 1002.6,-88 1008.6,-88 1014.6,-94 1014.6,-100 1014.6,-100 1014.6,-112 1014.6,-112 1014.6,-118 1008.6,-124 1002.6,-124"/>
<text xml:space="preserve" text-anchor="middle" x="941" y="-103" font-family="Helvetica,sans-Serif" font-size="10.00">norm_cexp_sub_quadratic_le</text>
</a>
</g>
</g>
<!-- n10&#45;&gt;n9 -->
<g id="edge4" class="edge">
<title>n10&#45;&gt;n9</title>
<path fill="none" stroke="#64748b" d="M941,-87.7C941,-79.47 941,-69.48 941,-60.42"/>
<polygon fill="#64748b" stroke="#64748b" points="943.45,-60.62 941,-53.62 938.55,-60.62 943.45,-60.62"/>
</g>
<!-- n11 -->
<g id="node7" class="node">
<title>n11</title>
<g id="a_node7"><a xlink:href="vscode://vscode-remote/wsl+Ubuntu/home/gavin/statlib/Statlib/CharFun/charfun_taylor_third_moment.lean:22" xlink:title="lemma · Statlib/CharFun/charfun_taylor_third_moment.lean:22" target="_blank">
<path fill="#eef2f6" stroke="#94a3b8" d="M1002.03,-196C1002.03,-196 879.97,-196 879.97,-196 873.97,-196 867.97,-190 867.97,-184 867.97,-184 867.97,-172 867.97,-172 867.97,-166 873.97,-160 879.97,-160 879.97,-160 1002.03,-160 1002.03,-160 1008.03,-160 1014.03,-166 1014.03,-172 1014.03,-172 1014.03,-184 1014.03,-184 1014.03,-190 1008.03,-196 1002.03,-196"/>
<text xml:space="preserve" text-anchor="middle" x="941" y="-175" font-family="Helvetica,sans-Serif" font-size="10.00">charfun_taylor_third_moment</text>
</a>
</g>
</g>
<!-- n11&#45;&gt;n10 -->
<g id="edge5" class="edge">
<title>n11&#45;&gt;n10</title>
<path fill="none" stroke="#64748b" d="M941,-159.7C941,-151.47 941,-141.48 941,-132.42"/>
<polygon fill="#64748b" stroke="#64748b" points="943.45,-132.62 941,-125.62 938.55,-132.62 943.45,-132.62"/>
</g>
<!-- n12 -->
<g id="node8" class="node">
<title>n12</title>
<g id="a_node8"><a xlink:href="vscode://vscode-remote/wsl+Ubuntu/home/gavin/statlib/Statlib/CharFun/norm_prod_sub_prod_le_sum.lean:19" xlink:title="lemma · Statlib/CharFun/norm_prod_sub_prod_le_sum.lean:19" target="_blank">
<path fill="#eef2f6" stroke="#94a3b8" d="M1169.71,-196C1169.71,-196 1044.29,-196 1044.29,-196 1038.29,-196 1032.29,-190 1032.29,-184 1032.29,-184 1032.29,-172 1032.29,-172 1032.29,-166 1038.29,-160 1044.29,-160 1044.29,-160 1169.71,-160 1169.71,-160 1175.71,-160 1181.71,-166 1181.71,-172 1181.71,-172 1181.71,-184 1181.71,-184 1181.71,-190 1175.71,-196 1169.71,-196"/>
<text xml:space="preserve" text-anchor="middle" x="1107" y="-175" font-family="Helvetica,sans-Serif" font-size="10.00">norm_prod_sub_prod_le_sum</text>
</a>
</g>
</g>
<!-- n13 -->
<g id="node9" class="node">
<title>n13</title>
<g id="a_node9"><a xlink:href="vscode://vscode-remote/wsl+Ubuntu/home/gavin/statlib/Statlib/CharFun/charfun_prod_vs_pow_bound.lean:21" xlink:title="lemma · Statlib/CharFun/charfun_prod_vs_pow_bound.lean:21" target="_blank">
<path fill="#eef2f6" stroke="#94a3b8" d="M1180.88,-268C1180.88,-268 1057.12,-268 1057.12,-268 1051.12,-268 1045.12,-262 1045.12,-256 1045.12,-256 1045.12,-244 1045.12,-244 1045.12,-238 1051.12,-232 1057.12,-232 1057.12,-232 1180.88,-232 1180.88,-232 1186.88,-232 1192.88,-238 1192.88,-244 1192.88,-244 1192.88,-256 1192.88,-256 1192.88,-262 1186.88,-268 1180.88,-268"/>
<text xml:space="preserve" text-anchor="middle" x="1119" y="-247" font-family="Helvetica,sans-Serif" font-size="10.00">charfun_prod_vs_pow_bound</text>
</a>
</g>
</g>
<!-- n13&#45;&gt;n11 -->
<g id="edge6" class="edge">
<title>n13&#45;&gt;n11</title>
<path fill="none" stroke="#64748b" d="M1074.54,-231.52C1049.81,-221.79 1018.9,-209.64 993.05,-199.47"/>
<polygon fill="#64748b" stroke="#64748b" points="994.02,-197.22 986.61,-196.94 992.23,-201.78 994.02,-197.22"/>
</g>
<!-- n13&#45;&gt;n12 -->
<g id="edge7" class="edge">
<title>n13&#45;&gt;n12</title>
<path fill="none" stroke="#64748b" d="M1116.03,-231.7C1114.62,-223.47 1112.91,-213.48 1111.36,-204.42"/>
<polygon fill="#64748b" stroke="#64748b" points="1113.79,-204.08 1110.19,-197.6 1108.96,-204.91 1113.79,-204.08"/>
</g>
<!-- n14 -->
<g id="node10" class="node">
<title>n14</title>
<g id="a_node10"><a xlink:href="vscode://vscode-remote/wsl+Ubuntu/home/gavin/statlib/Statlib/CharFun/complex_pow_approx_exp_decay.lean:21" xlink:title="lemma · Statlib/CharFun/complex_pow_approx_exp_decay.lean:21" target="_blank">
<path fill="#eef2f6" stroke="#94a3b8" d="M1354.61,-196C1354.61,-196 1211.39,-196 1211.39,-196 1205.39,-196 1199.39,-190 1199.39,-184 1199.39,-184 1199.39,-172 1199.39,-172 1199.39,-166 1205.39,-160 1211.39,-160 1211.39,-160 1354.61,-160 1354.61,-160 1360.61,-160 1366.61,-166 1366.61,-172 1366.61,-172 1366.61,-184 1366.61,-184 1366.61,-190 1360.61,-196 1354.61,-196"/>
<text xml:space="preserve" text-anchor="middle" x="1283" y="-175" font-family="Helvetica,sans-Serif" font-size="10.00">complex_pow_approx_exp_decay</text>
</a>
</g>
</g>
<!-- n15 -->
<g id="node11" class="node">
<title>n15</title>
<g id="a_node11"><a xlink:href="vscode://vscode-remote/wsl+Ubuntu/home/gavin/statlib/Statlib/CharFun/complex_pow_approx_exp.lean:18" xlink:title="lemma · Statlib/CharFun/complex_pow_approx_exp.lean:18" target="_blank">
<path fill="#eef2f6" stroke="#94a3b8" d="M1333.48,-268C1333.48,-268 1222.52,-268 1222.52,-268 1216.52,-268 1210.52,-262 1210.52,-256 1210.52,-256 1210.52,-244 1210.52,-244 1210.52,-238 1216.52,-232 1222.52,-232 1222.52,-232 1333.48,-232 1333.48,-232 1339.48,-232 1345.48,-238 1345.48,-244 1345.48,-244 1345.48,-256 1345.48,-256 1345.48,-262 1339.48,-268 1333.48,-268"/>
<text xml:space="preserve" text-anchor="middle" x="1278" y="-247" font-family="Helvetica,sans-Serif" font-size="10.00">complex_pow_approx_exp</text>
</a>
</g>
</g>
<!-- n15&#45;&gt;n14 -->
<g id="edge8" class="edge">
<title>n15&#45;&gt;n14</title>
<path fill="none" stroke="#64748b" d="M1279.24,-231.7C1279.82,-223.47 1280.54,-213.48 1281.18,-204.42"/>
<polygon fill="#64748b" stroke="#64748b" points="1283.62,-204.77 1281.67,-197.61 1278.73,-204.42 1283.62,-204.77"/>
</g>
<!-- n16 -->
<g id="node12" class="node">
<title>n16</title>
<g id="a_node12"><a xlink:href="vscode://vscode-remote/wsl+Ubuntu/home/gavin/statlib/Statlib/CharFun/charfun_arith_aux.lean:17" xlink:title="lemma · Statlib/CharFun/charfun_arith_aux.lean:17" target="_blank">
<path fill="#eef2f6" stroke="#94a3b8" d="M1469.03,-196C1469.03,-196 1396.97,-196 1396.97,-196 1390.97,-196 1384.97,-190 1384.97,-184 1384.97,-184 1384.97,-172 1384.97,-172 1384.97,-166 1390.97,-160 1396.97,-160 1396.97,-160 1469.03,-160 1469.03,-160 1475.03,-160 1481.03,-166 1481.03,-172 1481.03,-172 1481.03,-184 1481.03,-184 1481.03,-190 1475.03,-196 1469.03,-196"/>
<text xml:space="preserve" text-anchor="middle" x="1433" y="-175" font-family="Helvetica,sans-Serif" font-size="10.00">charfun_arith_aux</text>
</a>
</g>
</g>
<!-- n17 -->
<g id="node13" class="node">
<title>n17</title>
<g id="a_node13"><a xlink:href="vscode://vscode-remote/wsl+Ubuntu/home/gavin/statlib/Statlib/CharFun/charfun_final_arithmetic.lean:18" xlink:title="lemma · Statlib/CharFun/charfun_final_arithmetic.lean:18" target="_blank">
<path fill="#eef2f6" stroke="#94a3b8" d="M1474.08,-268C1474.08,-268 1375.92,-268 1375.92,-268 1369.92,-268 1363.92,-262 1363.92,-256 1363.92,-256 1363.92,-244 1363.92,-244 1363.92,-238 1369.92,-232 1375.92,-232 1375.92,-232 1474.08,-232 1474.08,-232 1480.08,-232 1486.08,-238 1486.08,-244 1486.08,-244 1486.08,-256 1486.08,-256 1486.08,-262 1480.08,-268 1474.08,-268"/>
<text xml:space="preserve" text-anchor="middle" x="1425" y="-247" font-family="Helvetica,sans-Serif" font-size="10.00">charfun_final_arithmetic</text>
</a>
</g>
</g>
<!-- n17&#45;&gt;n16 -->
<g id="edge9" class="edge">
<title>n17&#45;&gt;n16</title>
<path fill="none" stroke="#64748b" d="M1426.98,-231.7C1427.92,-223.47 1429.06,-213.48 1430.09,-204.42"/>
<polygon fill="#64748b" stroke="#64748b" points="1432.51,-204.84 1430.87,-197.61 1427.64,-204.28 1432.51,-204.84"/>
</g>
<!-- n18 -->
<g id="node14" class="node">
<title>n18</title>
<g id="a_node14"><a xlink:href="vscode://vscode-remote/wsl+Ubuntu/home/gavin/statlib/Statlib/CharFun/charfun_normalized_sum_bound.lean:32" xlink:title="lemma · Statlib/CharFun/charfun_normalized_sum_bound.lean:32" target="_blank">
<path fill="#eef2f6" stroke="#94a3b8" d="M1013.82,-340C1013.82,-340 876.18,-340 876.18,-340 870.18,-340 864.18,-334 864.18,-328 864.18,-328 864.18,-316 864.18,-316 864.18,-310 870.18,-304 876.18,-304 876.18,-304 1013.82,-304 1013.82,-304 1019.82,-304 1025.82,-310 1025.82,-316 1025.82,-316 1025.82,-328 1025.82,-328 1025.82,-334 1019.82,-340 1013.82,-340"/>
<text xml:space="preserve" text-anchor="middle" x="945" y="-319" font-family="Helvetica,sans-Serif" font-size="10.00">charfun_normalized_sum_bound</text>
</a>
</g>
</g>
<!-- n18&#45;&gt;n5 -->
<g id="edge10" class="edge">
<title>n18&#45;&gt;n5</title>
<path fill="none" stroke="#64748b" d="M863.81,-303.51C819.36,-293.83 763.11,-281.41 705.03,-267.99"/>
<polygon fill="#64748b" stroke="#64748b" points="705.67,-265.62 698.29,-266.43 704.56,-270.4 705.67,-265.62"/>
</g>
<!-- n18&#45;&gt;n7 -->
<g id="edge11" class="edge">
<title>n18&#45;&gt;n7</title>
<path fill="none" stroke="#64748b" d="M903.79,-303.52C880.96,-293.83 852.46,-281.74 828.56,-271.6"/>
<polygon fill="#64748b" stroke="#64748b" points="829.77,-269.45 822.36,-268.97 827.85,-273.96 829.77,-269.45"/>
</g>
<!-- n18&#45;&gt;n8 -->
<g id="edge12" class="edge">
<title>n18&#45;&gt;n8</title>
<path fill="none" stroke="#64748b" d="M945,-303.7C945,-295.47 945,-285.48 945,-276.42"/>
<polygon fill="#64748b" stroke="#64748b" points="947.45,-276.62 945,-269.62 942.55,-276.62 947.45,-276.62"/>
</g>
<!-- n18&#45;&gt;n13 -->
<g id="edge13" class="edge">
<title>n18&#45;&gt;n13</title>
<path fill="none" stroke="#64748b" d="M988.46,-303.52C1012.63,-293.79 1042.85,-281.64 1068.12,-271.47"/>
<polygon fill="#64748b" stroke="#64748b" points="1068.81,-273.83 1074.39,-268.95 1066.98,-269.29 1068.81,-273.83"/>
</g>
<!-- n18&#45;&gt;n15 -->
<g id="edge14" class="edge">
<title>n18&#45;&gt;n15</title>
<path fill="none" stroke="#64748b" d="M1026.1,-304.64C1074.64,-294.76 1137.78,-281.75 1201.84,-268.02"/>
<polygon fill="#64748b" stroke="#64748b" points="1202.25,-270.44 1208.58,-266.57 1201.22,-265.65 1202.25,-270.44"/>
</g>
<!-- n18&#45;&gt;n17 -->
<g id="edge15" class="edge">
<title>n18&#45;&gt;n17</title>
<path fill="none" stroke="#64748b" d="M1026.1,-313.06C1108.91,-304.35 1240.98,-288.79 1354,-268 1354.39,-267.93 1354.78,-267.86 1355.17,-267.78"/>
<polygon fill="#64748b" stroke="#64748b" points="1355.63,-270.19 1362.03,-266.44 1354.69,-265.38 1355.63,-270.19"/>
</g>
<!-- n0 -->
<g id="node15" class="node">
<title>n0</title>
<g id="a_node15"><a xlink:href="vscode://vscode-remote/wsl+Ubuntu/home/gavin/statlib/Statlib/LimitTheorems/measurable_proj.lean:25" xlink:title="lemma · Statlib/LimitTheorems/measurable_proj.lean:25" target="_blank">
<path fill="#eef2f6" stroke="#94a3b8" d="M98.24,-340C98.24,-340 31.76,-340 31.76,-340 25.76,-340 19.76,-334 19.76,-328 19.76,-328 19.76,-316 19.76,-316 19.76,-310 25.76,-304 31.76,-304 31.76,-304 98.24,-304 98.24,-304 104.24,-304 110.24,-310 110.24,-316 110.24,-316 110.24,-328 110.24,-328 110.24,-334 104.24,-340 98.24,-340"/>
<text xml:space="preserve" text-anchor="middle" x="65" y="-319" font-family="Helvetica,sans-Serif" font-size="10.00">measurable_proj</text>
</a>
</g>
</g>
<!-- n1 -->
<g id="node16" class="node">
<title>n1</title>
<g id="a_node16"><a xlink:href="vscode://vscode-remote/wsl+Ubuntu/home/gavin/statlib/Statlib/LimitTheorems/iIndepFun_proj.lean:26" xlink:title="lemma · Statlib/LimitTheorems/iIndepFun_proj.lean:26" target="_blank">
<path fill="#eef2f6" stroke="#94a3b8" d="M110.36,-413.2C110.36,-413.2 51.64,-413.2 51.64,-413.2 45.64,-413.2 39.64,-407.2 39.64,-401.2 39.64,-401.2 39.64,-389.2 39.64,-389.2 39.64,-383.2 45.64,-377.2 51.64,-377.2 51.64,-377.2 110.36,-377.2 110.36,-377.2 116.36,-377.2 122.36,-383.2 122.36,-389.2 122.36,-389.2 122.36,-401.2 122.36,-401.2 122.36,-407.2 116.36,-413.2 110.36,-413.2"/>
<text xml:space="preserve" text-anchor="middle" x="81" y="-392.2" font-family="Helvetica,sans-Serif" font-size="10.00">iIndepFun_proj</text>
</a>
</g>
</g>
<!-- n2 -->
<g id="node17" class="node">
<title>n2</title>
<g id="a_node17"><a xlink:href="vscode://vscode-remote/wsl+Ubuntu/home/gavin/statlib/Statlib/LimitTheorems/identDistrib_proj.lean:27" xlink:title="lemma · Statlib/LimitTheorems/identDistrib_proj.lean:27" target="_blank">
<path fill="#eef2f6" stroke="#94a3b8" d="M216.13,-413.2C216.13,-413.2 151.87,-413.2 151.87,-413.2 145.87,-413.2 139.87,-407.2 139.87,-401.2 139.87,-401.2 139.87,-389.2 139.87,-389.2 139.87,-383.2 145.87,-377.2 151.87,-377.2 151.87,-377.2 216.13,-377.2 216.13,-377.2 222.13,-377.2 228.13,-383.2 228.13,-389.2 228.13,-389.2 228.13,-401.2 228.13,-401.2 228.13,-407.2 222.13,-413.2 216.13,-413.2"/>
<text xml:space="preserve" text-anchor="middle" x="184" y="-392.2" font-family="Helvetica,sans-Serif" font-size="10.00">identDistrib_proj</text>
</a>
</g>
</g>
<!-- n2&#45;&gt;n0 -->
<g id="edge1" class="edge">
<title>n2&#45;&gt;n0</title>
<path fill="none" stroke="#64748b" d="M144.05,-376.72C139.25,-374.33 134.47,-371.79 130,-369.2 117.7,-362.07 104.81,-353.22 93.78,-345.19"/>
<polygon fill="#64748b" stroke="#64748b" points="95.48,-343.4 88.4,-341.21 92.57,-347.34 95.48,-343.4"/>
</g>
<!-- n3 -->
<g id="node18" class="node">
<title>n3</title>
<g id="a_node18"><a xlink:href="vscode://vscode-remote/wsl+Ubuntu/home/gavin/statlib/Statlib/LimitTheorems/Sn.lean:13" xlink:title="abbrev · Statlib/LimitTheorems/Sn.lean:13" target="_blank">
<path fill="#d6e9ff" stroke="#3b82f6" d="M58,-268C58,-268 28,-268 28,-268 22,-268 16,-262 16,-256 16,-256 16,-244 16,-244 16,-238 22,-232 28,-232 28,-232 58,-232 58,-232 64,-232 70,-238 70,-244 70,-244 70,-256 70,-256 70,-262 64,-268 58,-268"/>
<text xml:space="preserve" text-anchor="middle" x="43" y="-247" font-family="Helvetica,sans-Serif" font-size="10.00">Sn</text>
</a>
</g>
</g>
<!-- n4 -->
<g id="node19" class="node">
<title>n4</title>
<g id="a_node19"><a xlink:href="vscode://vscode-remote/wsl+Ubuntu/home/gavin/statlib/Statlib/LimitTheorems/measurable_Sn.lean:13" xlink:title="lemma · Statlib/LimitTheorems/measurable_Sn.lean:13" target="_blank">
<path fill="#eef2f6" stroke="#94a3b8" d="M231.02,-340C231.02,-340 168.98,-340 168.98,-340 162.98,-340 156.98,-334 156.98,-328 156.98,-328 156.98,-316 156.98,-316 156.98,-310 162.98,-304 168.98,-304 168.98,-304 231.02,-304 231.02,-304 237.02,-304 243.02,-310 243.02,-316 243.02,-316 243.02,-328 243.02,-328 243.02,-334 237.02,-340 231.02,-340"/>
<text xml:space="preserve" text-anchor="middle" x="200" y="-319" font-family="Helvetica,sans-Serif" font-size="10.00">measurable_Sn</text>
</a>
</g>
</g>
<!-- n4&#45;&gt;n3 -->
<g id="edge2" class="edge">
<title>n4&#45;&gt;n3</title>
<path fill="none" stroke="#64748b" d="M159.54,-303.62C135.97,-293.41 105.72,-280.16 79,-268 78.65,-267.84 78.31,-267.68 77.96,-267.52"/>
<polygon fill="#64748b" stroke="#64748b" points="79.24,-265.42 71.85,-264.71 77.18,-269.87 79.24,-265.42"/>
</g>
<!-- n19 -->
<g id="node20" class="node">
<title>n19</title>
<g id="a_node20"><a xlink:href="vscode://vscode-remote/wsl+Ubuntu/home/gavin/statlib/Statlib/LimitTheorems/compl_Icc_eq_abs_gt.lean:16" xlink:title="lemma · Statlib/LimitTheorems/compl_Icc_eq_abs_gt.lean:16" target="_blank">
<path fill="#eef2f6" stroke="#94a3b8" d="M119.64,-196C119.64,-196 30.36,-196 30.36,-196 24.36,-196 18.36,-190 18.36,-184 18.36,-184 18.36,-172 18.36,-172 18.36,-166 24.36,-160 30.36,-160 30.36,-160 119.64,-160 119.64,-160 125.64,-160 131.64,-166 131.64,-172 131.64,-172 131.64,-184 131.64,-184 131.64,-190 125.64,-196 119.64,-196"/>
<text xml:space="preserve" text-anchor="middle" x="75" y="-175" font-family="Helvetica,sans-Serif" font-size="10.00">compl_Icc_eq_abs_gt</text>
</a>
</g>
</g>
<!-- n20 -->
<g id="node21" class="node">
<title>n20</title>
<g id="a_node21"><a xlink:href="vscode://vscode-remote/wsl+Ubuntu/home/gavin/statlib/Statlib/LimitTheorems/isTight_finiteRange.lean:16" xlink:title="theorem · Statlib/LimitTheorems/isTight_finiteRange.lean:16" target="_blank">
<path fill="#ffe6a3" stroke="#d4a017" d="M238.8,-196C238.8,-196 161.2,-196 161.2,-196 155.2,-196 149.2,-190 149.2,-184 149.2,-184 149.2,-172 149.2,-172 149.2,-166 155.2,-160 161.2,-160 161.2,-160 238.8,-160 238.8,-160 244.8,-160 250.8,-166 250.8,-172 250.8,-172 250.8,-184 250.8,-184 250.8,-190 244.8,-196 238.8,-196"/>
<text xml:space="preserve" text-anchor="middle" x="200" y="-175" font-family="Helvetica,sans-Serif" font-size="10.00">isTight_finiteRange</text>
</a>
</g>
</g>
<!-- n21 -->
<g id="node22" class="node">
<title>n21</title>
<g id="a_node22"><a xlink:href="vscode://vscode-remote/wsl+Ubuntu/home/gavin/statlib/Statlib/LimitTheorems/isTight_of_charFun_tendsto.lean:23" xlink:title="theorem · Statlib/LimitTheorems/isTight_of_charFun_tendsto.lean:23" target="_blank">
<path fill="#ffe6a3" stroke="#d4a017" d="M215.98,-268C215.98,-268 100.02,-268 100.02,-268 94.02,-268 88.02,-262 88.02,-256 88.02,-256 88.02,-244 88.02,-244 88.02,-238 94.02,-232 100.02,-232 100.02,-232 215.98,-232 215.98,-232 221.98,-232 227.98,-238 227.98,-244 227.98,-244 227.98,-256 227.98,-256 227.98,-262 221.98,-268 215.98,-268"/>
<text xml:space="preserve" text-anchor="middle" x="158" y="-247" font-family="Helvetica,sans-Serif" font-size="10.00">isTight_of_charFun_tendsto</text>
</a>
</g>
</g>
<!-- n21&#45;&gt;n19 -->
<g id="edge16" class="edge">
<title>n21&#45;&gt;n19</title>
<path fill="none" stroke="#64748b" d="M137.48,-231.7C126.71,-222.61 113.37,-211.36 101.79,-201.6"/>
<polygon fill="#64748b" stroke="#64748b" points="103.66,-199.96 96.73,-197.32 100.5,-203.71 103.66,-199.96"/>
</g>
<!-- n21&#45;&gt;n20 -->
<g id="edge17" class="edge">
<title>n21&#45;&gt;n20</title>
<path fill="none" stroke="#64748b" d="M168.38,-231.7C173.52,-223.14 179.81,-212.66 185.42,-203.3"/>
<polygon fill="#64748b" stroke="#64748b" points="187.46,-204.67 188.96,-197.4 183.26,-202.14 187.46,-204.67"/>
</g>
<!-- n22 -->
<g id="node23" class="node">
<title>n22</title>
<g id="a_node23"><a xlink:href="vscode://vscode-remote/wsl+Ubuntu/home/gavin/statlib/Statlib/LimitTheorems/levy_forward.lean:20" xlink:title="theorem · Statlib/LimitTheorems/levy_forward.lean:20" target="_blank">
<path fill="#ffe6a3" stroke="#d4a017" d="M331.34,-196C331.34,-196 282.66,-196 282.66,-196 276.66,-196 270.66,-190 270.66,-184 270.66,-184 270.66,-172 270.66,-172 270.66,-166 276.66,-160 282.66,-160 282.66,-160 331.34,-160 331.34,-160 337.34,-160 343.34,-166 343.34,-172 343.34,-172 343.34,-184 343.34,-184 343.34,-190 337.34,-196 331.34,-196"/>
<text xml:space="preserve" text-anchor="middle" x="307" y="-175" font-family="Helvetica,sans-Serif" font-size="10.00">levy_forward</text>
</a>
</g>
</g>
<!-- n23 -->
<g id="node24" class="node">
<title>n23</title>
<g id="a_node24"><a xlink:href="vscode://vscode-remote/wsl+Ubuntu/home/gavin/statlib/Statlib/LimitTheorems/charFun_eq_of_subseq.lean:17" xlink:title="lemma · Statlib/LimitTheorems/charFun_eq_of_subseq.lean:17" target="_blank">
<path fill="#eef2f6" stroke="#94a3b8" d="M355.54,-268C355.54,-268 258.46,-268 258.46,-268 252.46,-268 246.46,-262 246.46,-256 246.46,-256 246.46,-244 246.46,-244 246.46,-238 252.46,-232 258.46,-232 258.46,-232 355.54,-232 355.54,-232 361.54,-232 367.54,-238 367.54,-244 367.54,-244 367.54,-256 367.54,-256 367.54,-262 361.54,-268 355.54,-268"/>
<text xml:space="preserve" text-anchor="middle" x="307" y="-247" font-family="Helvetica,sans-Serif" font-size="10.00">charFun_eq_of_subseq</text>
</a>
</g>
</g>
<!-- n23&#45;&gt;n22 -->
<g id="edge18" class="edge">
<title>n23&#45;&gt;n22</title>
<path fill="none" stroke="#64748b" d="M307,-231.7C307,-223.47 307,-213.48 307,-204.42"/>
<polygon fill="#64748b" stroke="#64748b" points="309.45,-204.62 307,-197.62 304.55,-204.62 309.45,-204.62"/>
</g>
<!-- n24 -->
<g id="node25" class="node">
<title>n24</title>
<g id="a_node25"><a xlink:href="vscode://vscode-remote/wsl+Ubuntu/home/gavin/statlib/Statlib/LimitTheorems/probMeasure_eq_of_charFun_eq.lean:17" xlink:title="lemma · Statlib/LimitTheorems/probMeasure_eq_of_charFun_eq.lean:17" target="_blank">
<path fill="#eef2f6" stroke="#94a3b8" d="M538.22,-268C538.22,-268 397.78,-268 397.78,-268 391.78,-268 385.78,-262 385.78,-256 385.78,-256 385.78,-244 385.78,-244 385.78,-238 391.78,-232 397.78,-232 397.78,-232 538.22,-232 538.22,-232 544.22,-232 550.22,-238 550.22,-244 550.22,-244 550.22,-256 550.22,-256 550.22,-262 544.22,-268 538.22,-268"/>
<text xml:space="preserve" text-anchor="middle" x="468" y="-247" font-family="Helvetica,sans-Serif" font-size="10.00">probMeasure_eq_of_charFun_eq</text>
</a>
</g>
</g>
<!-- n25 -->
<g id="node26" class="node">
<title>n25</title>
<g id="a_node26"><a xlink:href="vscode://vscode-remote/wsl+Ubuntu/home/gavin/statlib/Statlib/LimitTheorems/levy_continuity.lean:25" xlink:title="theorem · Statlib/LimitTheorems/levy_continuity.lean:25" target="_blank">
<path fill="#ffe6a3" stroke="#d4a017" d="M332.8,-340C332.8,-340 275.2,-340 275.2,-340 269.2,-340 263.2,-334 263.2,-328 263.2,-328 263.2,-316 263.2,-316 263.2,-310 269.2,-304 275.2,-304 275.2,-304 332.8,-304 332.8,-304 338.8,-304 344.8,-310 344.8,-316 344.8,-316 344.8,-328 344.8,-328 344.8,-334 338.8,-340 332.8,-340"/>
<text xml:space="preserve" text-anchor="middle" x="304" y="-319" font-family="Helvetica,sans-Serif" font-size="10.00">levy_continuity</text>
</a>
</g>
</g>
<!-- n25&#45;&gt;n21 -->
<g id="edge19" class="edge">
<title>n25&#45;&gt;n21</title>
<path fill="none" stroke="#64748b" d="M267.53,-303.52C247.6,-293.96 222.77,-282.05 201.79,-272"/>
<polygon fill="#64748b" stroke="#64748b" points="202.99,-269.85 195.62,-269.04 200.87,-274.27 202.99,-269.85"/>
</g>
<!-- n25&#45;&gt;n23 -->
<g id="edge20" class="edge">
<title>n25&#45;&gt;n23</title>
<path fill="none" stroke="#64748b" d="M304.74,-303.7C305.09,-295.47 305.52,-285.48 305.91,-276.42"/>
<polygon fill="#64748b" stroke="#64748b" points="308.35,-276.72 306.2,-269.62 303.45,-276.51 308.35,-276.72"/>
</g>
<!-- n25&#45;&gt;n24 -->
<g id="edge21" class="edge">
<title>n25&#45;&gt;n24</title>
<path fill="none" stroke="#64748b" d="M344.96,-303.52C367.65,-293.83 395.98,-281.74 419.74,-271.6"/>
<polygon fill="#64748b" stroke="#64748b" points="420.41,-273.98 425.89,-268.98 418.49,-269.47 420.41,-273.98"/>
</g>
<!-- n26 -->
<g id="node27" class="node">
<title>n26</title>
<g id="a_node27"><a xlink:href="vscode://vscode-remote/wsl+Ubuntu/home/gavin/statlib/Statlib/LimitTheorems/central_limit_theorem.lean:20" xlink:title="theorem · Statlib/LimitTheorems/central_limit_theorem.lean:20" target="_blank">
<path fill="#ffe6a3" stroke="#d4a017" d="M345.8,-413.2C345.8,-413.2 258.2,-413.2 258.2,-413.2 252.2,-413.2 246.2,-407.2 246.2,-401.2 246.2,-401.2 246.2,-389.2 246.2,-389.2 246.2,-383.2 252.2,-377.2 258.2,-377.2 258.2,-377.2 345.8,-377.2 345.8,-377.2 351.8,-377.2 357.8,-383.2 357.8,-389.2 357.8,-389.2 357.8,-401.2 357.8,-401.2 357.8,-407.2 351.8,-413.2 345.8,-413.2"/>
<text xml:space="preserve" text-anchor="middle" x="302" y="-392.2" font-family="Helvetica,sans-Serif" font-size="10.00">central_limit_theorem</text>
</a>
</g>
</g>
<!-- n26&#45;&gt;n18 -->
<g id="edge24" class="edge">
<title>n26&#45;&gt;n18</title>
<path fill="none" stroke="#64748b" d="M358.08,-389.2C410.77,-384.41 491.78,-376.81 562,-369.2 662.7,-358.29 778.09,-344.14 855.67,-334.4"/>
<polygon fill="#64748b" stroke="#64748b" points="855.86,-336.84 862.5,-333.54 855.25,-331.98 855.86,-336.84"/>
</g>
<!-- n26&#45;&gt;n3 -->
<g id="edge22" class="edge">
<title>n26&#45;&gt;n3</title>
<path fill="none" stroke="#64748b" d="M245.76,-378.88C242.8,-378.27 239.87,-377.7 237,-377.2 217.44,-373.79 164.15,-380.75 148,-369.2 122.21,-350.75 139.19,-328.46 119,-304 107.66,-290.27 91.92,-278.5 77.7,-269.57"/>
<polygon fill="#64748b" stroke="#64748b" points="78.98,-267.48 71.73,-265.94 76.44,-271.67 78.98,-267.48"/>
</g>
<!-- n26&#45;&gt;n4 -->
<g id="edge23" class="edge">
<title>n26&#45;&gt;n4</title>
<path fill="none" stroke="#64748b" d="M266.34,-376.8C262.1,-374.38 257.89,-371.83 254,-369.2 243.8,-362.31 233.34,-353.77 224.39,-345.92"/>
<polygon fill="#64748b" stroke="#64748b" points="226.14,-344.2 219.28,-341.36 222.87,-347.85 226.14,-344.2"/>
</g>
<!-- n26&#45;&gt;n25 -->
<g id="edge25" class="edge">
<title>n26&#45;&gt;n25</title>
<path fill="none" stroke="#64748b" d="M302.48,-376.96C302.72,-368.39 303.02,-357.87 303.29,-348.39"/>
<polygon fill="#64748b" stroke="#64748b" points="305.73,-348.66 303.48,-341.59 300.83,-348.52 305.73,-348.66"/>
</g>
<!-- n27 -->
<g id="node28" class="node">
<title>n27</title>
<g id="a_node28"><a xlink:href="vscode://vscode-remote/wsl+Ubuntu/home/gavin/statlib/Statlib/LimitTheorems/multivariate_clt.lean:38" xlink:title="theorem · Statlib/LimitTheorems/multivariate_clt.lean:38" target="_blank">
<path fill="#ffe6a3" stroke="#d4a017" stroke-width="3" d="M161.34,-485.2C161.34,-485.2 102.66,-485.2 102.66,-485.2 96.66,-485.2 90.66,-479.2 90.66,-473.2 90.66,-473.2 90.66,-461.2 90.66,-461.2 90.66,-455.2 96.66,-449.2 102.66,-449.2 102.66,-449.2 161.34,-449.2 161.34,-449.2 167.34,-449.2 173.34,-455.2 173.34,-461.2 173.34,-461.2 173.34,-473.2 173.34,-473.2 173.34,-479.2 167.34,-485.2 161.34,-485.2"/>
<text xml:space="preserve" text-anchor="middle" x="132" y="-464.2" font-family="Helvetica,sans-Serif" font-size="10.00">multivariate_clt</text>
</a>
</g>
</g>
<!-- n27&#45;&gt;n0 -->
<g id="edge26" class="edge">
<title>n27&#45;&gt;n0</title>
<path fill="none" stroke="#64748b" d="M89.27,-455.22C67.8,-447.3 43.7,-434.21 31,-413.2 18.35,-392.28 31.21,-365.87 44.58,-347.04"/>
<polygon fill="#64748b" stroke="#64748b" points="46.35,-348.76 48.58,-341.69 42.42,-345.83 46.35,-348.76"/>
</g>
<!-- n27&#45;&gt;n1 -->
<g id="edge27" class="edge">
<title>n27&#45;&gt;n1</title>
<path fill="none" stroke="#64748b" d="M118.6,-447.81C112.39,-439.29 104.94,-429.05 98.31,-419.96"/>
<polygon fill="#64748b" stroke="#64748b" points="100.43,-418.71 94.33,-414.49 96.47,-421.59 100.43,-418.71"/>
</g>
<!-- n27&#45;&gt;n2 -->
<g id="edge28" class="edge">
<title>n27&#45;&gt;n2</title>
<path fill="none" stroke="#64748b" d="M145.66,-447.81C151.99,-439.29 159.59,-429.05 166.35,-419.96"/>
<polygon fill="#64748b" stroke="#64748b" points="168.21,-421.56 170.42,-414.48 164.28,-418.64 168.21,-421.56"/>
</g>
<!-- n27&#45;&gt;n26 -->
<g id="edge29" class="edge">
<title>n27&#45;&gt;n26</title>
<path fill="none" stroke="#64748b" d="M174.46,-448.72C197.98,-439.03 227.35,-426.94 251.97,-416.8"/>
<polygon fill="#64748b" stroke="#64748b" points="252.85,-419.09 258.39,-414.16 250.98,-414.56 252.85,-419.09"/>
</g>
</g>
</svg>
