<?xml version="1.0" encoding="UTF-8" standalone="no"?>
<!DOCTYPE svg PUBLIC "-//W3C//DTD SVG 1.1//EN"
 "http://www.w3.org/Graphics/SVG/1.1/DTD/svg11.dtd">
<!-- Generated by graphviz version 15.0.0 (20260523.1842)
 -->
<!-- Title: shao_prop_2_3 Pages: 1 -->
<svg width="1635pt" height="338pt"
 viewBox="0.00 0.00 1635.00 338.00" xmlns="http://www.w3.org/2000/svg" xmlns:xlink="http://www.w3.org/1999/xlink">
<g id="graph0" class="graph" transform="scale(1 1) rotate(0) translate(4 334)">
<title>shao_prop_2_3</title>
<polygon fill="white" stroke="none" points="-4,4 -4,-334 1631,-334 1631,4 -4,4"/>
<text xml:space="preserve" text-anchor="middle" x="813.5" y="-313.4" font-family="Helvetica,sans-Serif" font-size="14.00">Proof narrative — shao_prop_2_3 &#160;(17 decls)</text>
<g id="clust1" class="cluster">
<title>cluster_0</title>
<path fill="none" stroke="#cbd5e1" stroke-dasharray="5,2" d="M20,-8C20,-8 1607,-8 1607,-8 1613,-8 1619,-14 1619,-20 1619,-20 1619,-285.2 1619,-285.2 1619,-291.2 1613,-297.2 1607,-297.2 1607,-297.2 20,-297.2 20,-297.2 14,-297.2 8,-291.2 8,-285.2 8,-285.2 8,-20 8,-20 8,-14 14,-8 20,-8"/>
<text xml:space="preserve" text-anchor="middle" x="813.5" y="-283.3" font-family="Helvetica,sans-Serif" font-size="11.00">LimitTheorems</text>
</g>
<!-- n0 -->
<g id="node1" class="node">
<title>n0</title>
<g id="a_node1"><a xlink:href="vscode://vscode-remote/wsl+Ubuntu/home/gavin/statlib/Statlib/LimitTheorems/IsAsymptoticExpectation.lean:22" xlink:title="structure · Statlib/LimitTheorems/IsAsymptoticExpectation.lean:22" target="_blank">
<path fill="#e8dcff" stroke="#8b5cf6" d="M616.47,-124C616.47,-124 515.53,-124 515.53,-124 509.53,-124 503.53,-118 503.53,-112 503.53,-112 503.53,-100 503.53,-100 503.53,-94 509.53,-88 515.53,-88 515.53,-88 616.47,-88 616.47,-88 622.47,-88 628.47,-94 628.47,-100 628.47,-100 628.47,-112 628.47,-112 628.47,-118 622.47,-124 616.47,-124"/>
<text xml:space="preserve" text-anchor="middle" x="566" y="-103" font-family="Helvetica,sans-Serif" font-size="10.00">IsAsymptoticExpectation</text>
</a>
</g>
</g>
<!-- n1 -->
<g id="node2" class="node">
<title>n1</title>
<g id="a_node2"><a xlink:href="vscode://vscode-remote/wsl+Ubuntu/home/gavin/statlib/Statlib/LimitTheorems/Prop23Conclusion.lean:17" xlink:title="def · Statlib/LimitTheorems/Prop23Conclusion.lean:17" target="_blank">
<path fill="#d6e9ff" stroke="#3b82f6" d="M473.86,-124C473.86,-124 400.14,-124 400.14,-124 394.14,-124 388.14,-118 388.14,-112 388.14,-112 388.14,-100 388.14,-100 388.14,-94 394.14,-88 400.14,-88 400.14,-88 473.86,-88 473.86,-88 479.86,-88 485.86,-94 485.86,-100 485.86,-100 485.86,-112 485.86,-112 485.86,-118 479.86,-124 473.86,-124"/>
<text xml:space="preserve" text-anchor="middle" x="437" y="-103" font-family="Helvetica,sans-Serif" font-size="10.00">Prop23Conclusion</text>
</a>
</g>
</g>
<!-- n2 -->
<g id="node3" class="node">
<title>n2</title>
<g id="a_node3"><a xlink:href="vscode://vscode-remote/wsl+Ubuntu/home/gavin/statlib/Statlib/LimitTheorems/IsAlmostSurelyConstant.lean:15" xlink:title="def · Statlib/LimitTheorems/IsAlmostSurelyConstant.lean:15" target="_blank">
<path fill="#d6e9ff" stroke="#3b82f6" d="M358.35,-124C358.35,-124 259.65,-124 259.65,-124 253.65,-124 247.65,-118 247.65,-112 247.65,-112 247.65,-100 247.65,-100 247.65,-94 253.65,-88 259.65,-88 259.65,-88 358.35,-88 358.35,-88 364.35,-88 370.35,-94 370.35,-100 370.35,-100 370.35,-112 370.35,-112 370.35,-118 364.35,-124 358.35,-124"/>
<text xml:space="preserve" text-anchor="middle" x="309" y="-103" font-family="Helvetica,sans-Serif" font-size="10.00">IsAlmostSurelyConstant</text>
</a>
</g>
</g>
<!-- n3 -->
<g id="node4" class="node">
<title>n3</title>
<g id="a_node4"><a xlink:href="vscode://vscode-remote/wsl+Ubuntu/home/gavin/statlib/Statlib/LimitTheorems/td_to_const_of_ae_eq.lean:18" xlink:title="lemma · Statlib/LimitTheorems/td_to_const_of_ae_eq.lean:18" target="_blank">
<path fill="#eef2f6" stroke="#94a3b8" d="M217.49,-124C217.49,-124 126.51,-124 126.51,-124 120.51,-124 114.51,-118 114.51,-112 114.51,-112 114.51,-100 114.51,-100 114.51,-94 120.51,-88 126.51,-88 126.51,-88 217.49,-88 217.49,-88 223.49,-88 229.49,-94 229.49,-100 229.49,-100 229.49,-112 229.49,-112 229.49,-118 223.49,-124 217.49,-124"/>
<text xml:space="preserve" text-anchor="middle" x="172" y="-103" font-family="Helvetica,sans-Serif" font-size="10.00">td_to_const_of_ae_eq</text>
</a>
</g>
</g>
<!-- n4 -->
<g id="node5" class="node">
<title>n4</title>
<g id="a_node5"><a xlink:href="vscode://vscode-remote/wsl+Ubuntu/home/gavin/statlib/Statlib/LimitTheorems/tendstoInDistribution_const_to_measure.lean:26" xlink:title="lemma · Statlib/LimitTheorems/tendstoInDistribution_const_to_measure.lean:26" target="_blank">
<path fill="#eef2f6" stroke="#94a3b8" d="M829.5,-124C829.5,-124 658.5,-124 658.5,-124 652.5,-124 646.5,-118 646.5,-112 646.5,-112 646.5,-100 646.5,-100 646.5,-94 652.5,-88 658.5,-88 658.5,-88 829.5,-88 829.5,-88 835.5,-88 841.5,-94 841.5,-100 841.5,-100 841.5,-112 841.5,-112 841.5,-118 835.5,-124 829.5,-124"/>
<text xml:space="preserve" text-anchor="middle" x="744" y="-103" font-family="Helvetica,sans-Serif" font-size="10.00">tendstoInDistribution_const_to_measure</text>
</a>
</g>
</g>
<!-- n5 -->
<g id="node6" class="node">
<title>n5</title>
<g id="a_node6"><a xlink:href="vscode://vscode-remote/wsl+Ubuntu/home/gavin/statlib/Statlib/LimitTheorems/aux_ratio_limit.lean:24" xlink:title="lemma · Statlib/LimitTheorems/aux_ratio_limit.lean:24" target="_blank">
<path fill="#eef2f6" stroke="#94a3b8" d="M84.24,-124C84.24,-124 27.76,-124 27.76,-124 21.76,-124 15.76,-118 15.76,-112 15.76,-112 15.76,-100 15.76,-100 15.76,-94 21.76,-88 27.76,-88 27.76,-88 84.24,-88 84.24,-88 90.24,-88 96.24,-94 96.24,-100 96.24,-100 96.24,-112 96.24,-112 96.24,-118 90.24,-124 84.24,-124"/>
<text xml:space="preserve" text-anchor="middle" x="56" y="-103" font-family="Helvetica,sans-Serif" font-size="10.00">aux_ratio_limit</text>
</a>
</g>
</g>
<!-- n6 -->
<g id="node7" class="node">
<title>n6</title>
<g id="a_node7"><a xlink:href="vscode://vscode-remote/wsl+Ubuntu/home/gavin/statlib/Statlib/LimitTheorems/shao_prop_2_3_case_both_const.lean:31" xlink:title="theorem · Statlib/LimitTheorems/shao_prop_2_3_case_both_const.lean:31" target="_blank">
<path fill="#ffe6a3" stroke="#d4a017" d="M352.34,-196C352.34,-196 209.66,-196 209.66,-196 203.66,-196 197.66,-190 197.66,-184 197.66,-184 197.66,-172 197.66,-172 197.66,-166 203.66,-160 209.66,-160 209.66,-160 352.34,-160 352.34,-160 358.34,-160 364.34,-166 364.34,-172 364.34,-172 364.34,-184 364.34,-184 364.34,-190 358.34,-196 352.34,-196"/>
<text xml:space="preserve" text-anchor="middle" x="281" y="-175" font-family="Helvetica,sans-Serif" font-size="10.00">shao_prop_2_3_case_both_const</text>
</a>
</g>
</g>
<!-- n6&#45;&gt;n0 -->
<g id="edge1" class="edge">
<title>n6&#45;&gt;n0</title>
<path fill="none" stroke="#64748b" d="M352.18,-159.52C395.95,-148.77 451.82,-135.04 495.47,-124.32"/>
<polygon fill="#64748b" stroke="#64748b" points="495.79,-126.77 502,-122.72 494.62,-122.01 495.79,-126.77"/>
</g>
<!-- n6&#45;&gt;n1 -->
<g id="edge3" class="edge">
<title>n6&#45;&gt;n1</title>
<path fill="none" stroke="#64748b" d="M319.96,-159.52C341.36,-149.92 368.03,-137.95 390.5,-127.86"/>
<polygon fill="#64748b" stroke="#64748b" points="391.5,-130.1 396.88,-125 389.49,-125.63 391.5,-130.1"/>
</g>
<!-- n6&#45;&gt;n2 -->
<g id="edge2" class="edge">
<title>n6&#45;&gt;n2</title>
<path fill="none" stroke="#64748b" d="M287.92,-159.7C291.28,-151.3 295.37,-141.07 299.06,-131.86"/>
<polygon fill="#64748b" stroke="#64748b" points="301.27,-132.92 301.6,-125.51 296.72,-131.1 301.27,-132.92"/>
</g>
<!-- n6&#45;&gt;n3 -->
<g id="edge4" class="edge">
<title>n6&#45;&gt;n3</title>
<path fill="none" stroke="#64748b" d="M253.78,-159.52C239.23,-150.18 221.19,-138.59 205.76,-128.68"/>
<polygon fill="#64748b" stroke="#64748b" points="207.36,-126.8 200.15,-125.08 204.72,-130.92 207.36,-126.8"/>
</g>
<!-- n6&#45;&gt;n4 -->
<g id="edge5" class="edge">
<title>n6&#45;&gt;n4</title>
<path fill="none" stroke="#64748b" d="M364.78,-164.24C374.3,-162.81 383.86,-161.37 393,-160 501.41,-143.77 528.65,-140.6 637,-124 637.28,-123.96 637.56,-123.91 637.84,-123.87"/>
<polygon fill="#64748b" stroke="#64748b" points="638,-126.32 644.55,-122.84 637.26,-121.48 638,-126.32"/>
</g>
<!-- n6&#45;&gt;n5 -->
<g id="edge6" class="edge">
<title>n6&#45;&gt;n5</title>
<path fill="none" stroke="#64748b" d="M221.71,-159.58C187.75,-149.47 144.38,-136.33 106,-124 105.52,-123.85 105.04,-123.69 104.56,-123.54"/>
<polygon fill="#64748b" stroke="#64748b" points="105.47,-121.26 98.06,-121.41 103.95,-125.91 105.47,-121.26"/>
</g>
<!-- n7 -->
<g id="node8" class="node">
<title>n7</title>
<g id="a_node8"><a xlink:href="vscode://vscode-remote/wsl+Ubuntu/home/gavin/statlib/Statlib/LimitTheorems/Prop23Conclusion_swap.lean:16" xlink:title="lemma · Statlib/LimitTheorems/Prop23Conclusion_swap.lean:16" target="_blank">
<path fill="#eef2f6" stroke="#94a3b8" d="M513.92,-196C513.92,-196 414.08,-196 414.08,-196 408.08,-196 402.08,-190 402.08,-184 402.08,-184 402.08,-172 402.08,-172 402.08,-166 408.08,-160 414.08,-160 414.08,-160 513.92,-160 513.92,-160 519.92,-160 525.92,-166 525.92,-172 525.92,-172 525.92,-184 525.92,-184 525.92,-190 519.92,-196 513.92,-196"/>
<text xml:space="preserve" text-anchor="middle" x="464" y="-175" font-family="Helvetica,sans-Serif" font-size="10.00">Prop23Conclusion.swap</text>
</a>
</g>
</g>
<!-- n7&#45;&gt;n1 -->
<g id="edge7" class="edge">
<title>n7&#45;&gt;n1</title>
<path fill="none" stroke="#64748b" d="M457.33,-159.7C454.09,-151.3 450.14,-141.07 446.59,-131.86"/>
<polygon fill="#64748b" stroke="#64748b" points="448.95,-131.17 444.14,-125.52 444.38,-132.93 448.95,-131.17"/>
</g>
<!-- n8 -->
<g id="node9" class="node">
<title>n8</title>
<g id="a_node9"><a xlink:href="vscode://vscode-remote/wsl+Ubuntu/home/gavin/statlib/Statlib/LimitTheorems/tendstoInMeasure_const_of_tendsto.lean:18" xlink:title="lemma · Statlib/LimitTheorems/tendstoInMeasure_const_of_tendsto.lean:18" target="_blank">
<path fill="#eef2f6" stroke="#94a3b8" d="M1024.89,-124C1024.89,-124 871.11,-124 871.11,-124 865.11,-124 859.11,-118 859.11,-112 859.11,-112 859.11,-100 859.11,-100 859.11,-94 865.11,-88 871.11,-88 871.11,-88 1024.89,-88 1024.89,-88 1030.89,-88 1036.89,-94 1036.89,-100 1036.89,-100 1036.89,-112 1036.89,-112 1036.89,-118 1030.89,-124 1024.89,-124"/>
<text xml:space="preserve" text-anchor="middle" x="948" y="-103" font-family="Helvetica,sans-Serif" font-size="10.00">tendstoInMeasure_const_of_tendsto</text>
</a>
</g>
</g>
<!-- n9 -->
<g id="node10" class="node">
<title>n9</title>
<g id="a_node10"><a xlink:href="vscode://vscode-remote/wsl+Ubuntu/home/gavin/statlib/Statlib/LimitTheorems/slutsky_mul.lean:14" xlink:title="theorem · Statlib/LimitTheorems/slutsky_mul.lean:14" target="_blank">
<path fill="#ffe6a3" stroke="#d4a017" d="M1244.12,-52C1244.12,-52 1199.88,-52 1199.88,-52 1193.88,-52 1187.88,-46 1187.88,-40 1187.88,-40 1187.88,-28 1187.88,-28 1187.88,-22 1193.88,-16 1199.88,-16 1199.88,-16 1244.12,-16 1244.12,-16 1250.12,-16 1256.12,-22 1256.12,-28 1256.12,-28 1256.12,-40 1256.12,-40 1256.12,-46 1250.12,-52 1244.12,-52"/>
<text xml:space="preserve" text-anchor="middle" x="1222" y="-31" font-family="Helvetica,sans-Serif" font-size="10.00">slutsky_mul</text>
</a>
</g>
</g>
<!-- n10 -->
<g id="node11" class="node">
<title>n10</title>
<g id="a_node11"><a xlink:href="vscode://vscode-remote/wsl+Ubuntu/home/gavin/statlib/Statlib/LimitTheorems/ae_eq_const_of_map_eq_dirac.lean:18" xlink:title="lemma · Statlib/LimitTheorems/ae_eq_const_of_map_eq_dirac.lean:18" target="_blank">
<path fill="#eef2f6" stroke="#94a3b8" d="M1219.05,-124C1219.05,-124 1086.95,-124 1086.95,-124 1080.95,-124 1074.95,-118 1074.95,-112 1074.95,-112 1074.95,-100 1074.95,-100 1074.95,-94 1080.95,-88 1086.95,-88 1086.95,-88 1219.05,-88 1219.05,-88 1225.05,-88 1231.05,-94 1231.05,-100 1231.05,-100 1231.05,-112 1231.05,-112 1231.05,-118 1225.05,-124 1219.05,-124"/>
<text xml:space="preserve" text-anchor="middle" x="1153" y="-103" font-family="Helvetica,sans-Serif" font-size="10.00">ae_eq_const_of_map_eq_dirac</text>
</a>
</g>
</g>
<!-- n11 -->
<g id="node12" class="node">
<title>n11</title>
<g id="a_node12"><a xlink:href="vscode://vscode-remote/wsl+Ubuntu/home/gavin/statlib/Statlib/LimitTheorems/tendstoInMeasure_const_of_rescaled_tendstoInDistribution.lean:24" xlink:title="theorem · Statlib/LimitTheorems/tendstoInMeasure_const_of_rescaled_tendstoInDistribution.lean:24" target="_blank">
<path fill="#ffe6a3" stroke="#d4a017" d="M1516.75,-124C1516.75,-124 1261.25,-124 1261.25,-124 1255.25,-124 1249.25,-118 1249.25,-112 1249.25,-112 1249.25,-100 1249.25,-100 1249.25,-94 1255.25,-88 1261.25,-88 1261.25,-88 1516.75,-88 1516.75,-88 1522.75,-88 1528.75,-94 1528.75,-100 1528.75,-100 1528.75,-112 1528.75,-112 1528.75,-118 1522.75,-124 1516.75,-124"/>
<text xml:space="preserve" text-anchor="middle" x="1389" y="-103" font-family="Helvetica,sans-Serif" font-size="10.00">tendstoInMeasure_const_of_rescaled_tendstoInDistribution</text>
</a>
</g>
</g>
<!-- n12 -->
<g id="node13" class="node">
<title>n12</title>
<g id="a_node13"><a xlink:href="vscode://vscode-remote/wsl+Ubuntu/home/gavin/statlib/Statlib/LimitTheorems/tendstoInMeasure_inv_of_ne_zero.lean:17" xlink:title="theorem · Statlib/LimitTheorems/tendstoInMeasure_inv_of_ne_zero.lean:17" target="_blank">
<path fill="#ffe6a3" stroke="#d4a017" d="M1599,-52C1599,-52 1453,-52 1453,-52 1447,-52 1441,-46 1441,-40 1441,-40 1441,-28 1441,-28 1441,-22 1447,-16 1453,-16 1453,-16 1599,-16 1599,-16 1605,-16 1611,-22 1611,-28 1611,-28 1611,-40 1611,-40 1611,-46 1605,-52 1599,-52"/>
<text xml:space="preserve" text-anchor="middle" x="1526" y="-31" font-family="Helvetica,sans-Serif" font-size="10.00">tendstoInMeasure_inv_of_ne_zero</text>
</a>
</g>
</g>
<!-- n13 -->
<g id="node14" class="node">
<title>n13</title>
<g id="a_node14"><a xlink:href="vscode://vscode-remote/wsl+Ubuntu/home/gavin/statlib/Statlib/LimitTheorems/slutsky_div.lean:17" xlink:title="theorem · Statlib/LimitTheorems/slutsky_div.lean:17" target="_blank">
<path fill="#ffe6a3" stroke="#d4a017" d="M1599.45,-124C1599.45,-124 1558.55,-124 1558.55,-124 1552.55,-124 1546.55,-118 1546.55,-112 1546.55,-112 1546.55,-100 1546.55,-100 1546.55,-94 1552.55,-88 1558.55,-88 1558.55,-88 1599.45,-88 1599.45,-88 1605.45,-88 1611.45,-94 1611.45,-100 1611.45,-100 1611.45,-112 1611.45,-112 1611.45,-118 1605.45,-124 1599.45,-124"/>
<text xml:space="preserve" text-anchor="middle" x="1579" y="-103" font-family="Helvetica,sans-Serif" font-size="10.00">slutsky_div</text>
</a>
</g>
</g>
<!-- n13&#45;&gt;n9 -->
<g id="edge8" class="edge">
<title>n13&#45;&gt;n9</title>
<path fill="none" stroke="#64748b" d="M1546.11,-90.61C1543.39,-89.65 1540.67,-88.77 1538,-88 1442.25,-60.51 1325.83,-45.54 1264.51,-39.03"/>
<polygon fill="#64748b" stroke="#64748b" points="1264.96,-36.62 1257.74,-38.33 1264.45,-41.49 1264.96,-36.62"/>
</g>
<!-- n13&#45;&gt;n12 -->
<g id="edge9" class="edge">
<title>n13&#45;&gt;n12</title>
<path fill="none" stroke="#64748b" d="M1565.9,-87.7C1559.29,-78.97 1551.17,-68.24 1543.98,-58.75"/>
<polygon fill="#64748b" stroke="#64748b" points="1546.04,-57.41 1539.86,-53.31 1542.14,-60.37 1546.04,-57.41"/>
</g>
<!-- n14 -->
<g id="node15" class="node">
<title>n14</title>
<g id="a_node15"><a xlink:href="vscode://vscode-remote/wsl+Ubuntu/home/gavin/statlib/Statlib/LimitTheorems/shao_prop_2_3_case_ii.lean:32" xlink:title="theorem · Statlib/LimitTheorems/shao_prop_2_3_case_ii.lean:32" target="_blank">
<path fill="#ffe6a3" stroke="#d4a017" d="M946.1,-196C946.1,-196 847.9,-196 847.9,-196 841.9,-196 835.9,-190 835.9,-184 835.9,-184 835.9,-172 835.9,-172 835.9,-166 841.9,-160 847.9,-160 847.9,-160 946.1,-160 946.1,-160 952.1,-160 958.1,-166 958.1,-172 958.1,-172 958.1,-184 958.1,-184 958.1,-190 952.1,-196 946.1,-196"/>
<text xml:space="preserve" text-anchor="middle" x="897" y="-175" font-family="Helvetica,sans-Serif" font-size="10.00">shao_prop_2_3_case_ii</text>
</a>
</g>
</g>
<!-- n14&#45;&gt;n0 -->
<g id="edge10" class="edge">
<title>n14&#45;&gt;n0</title>
<path fill="none" stroke="#64748b" d="M835.66,-164.99C783.11,-154.57 705.46,-138.86 638,-124 637.62,-123.92 637.25,-123.83 636.87,-123.75"/>
<polygon fill="#64748b" stroke="#64748b" points="637.65,-121.41 630.28,-122.28 636.58,-126.2 637.65,-121.41"/>
</g>
<!-- n14&#45;&gt;n1 -->
<g id="edge12" class="edge">
<title>n14&#45;&gt;n1</title>
<path fill="none" stroke="#64748b" d="M835.7,-170.09C739.79,-159.08 558.62,-137.43 495,-124 494.82,-123.96 494.64,-123.92 494.46,-123.89"/>
<polygon fill="#64748b" stroke="#64748b" points="495.08,-121.51 487.7,-122.33 493.98,-126.29 495.08,-121.51"/>
</g>
<!-- n14&#45;&gt;n2 -->
<g id="edge11" class="edge">
<title>n14&#45;&gt;n2</title>
<path fill="none" stroke="#64748b" d="M835.56,-170.77C709.92,-158.02 431.53,-129.73 378.93,-123.54"/>
<polygon fill="#64748b" stroke="#64748b" points="379.5,-121.14 372.24,-122.67 378.87,-126 379.5,-121.14"/>
</g>
<!-- n14&#45;&gt;n4 -->
<g id="edge13" class="edge">
<title>n14&#45;&gt;n4</title>
<path fill="none" stroke="#64748b" d="M858.79,-159.52C837.8,-149.92 811.65,-137.95 789.6,-127.86"/>
<polygon fill="#64748b" stroke="#64748b" points="790.75,-125.7 783.37,-125.01 788.71,-130.15 790.75,-125.7"/>
</g>
<!-- n14&#45;&gt;n8 -->
<g id="edge14" class="edge">
<title>n14&#45;&gt;n8</title>
<path fill="none" stroke="#64748b" d="M909.61,-159.7C915.97,-150.97 923.78,-140.24 930.7,-130.75"/>
<polygon fill="#64748b" stroke="#64748b" points="932.51,-132.43 934.65,-125.33 928.54,-129.54 932.51,-132.43"/>
</g>
<!-- n14&#45;&gt;n9 -->
<g id="edge15" class="edge">
<title>n14&#45;&gt;n9</title>
<path fill="none" stroke="#64748b" d="M958.29,-165.75C987.4,-157.94 1021.17,-145.03 1046,-124 1059.97,-112.17 1051.95,-99.73 1066,-88 1098.39,-60.96 1145.24,-47.49 1179.14,-40.92"/>
<polygon fill="#64748b" stroke="#64748b" points="1179.53,-43.34 1185.97,-39.67 1178.65,-38.52 1179.53,-43.34"/>
</g>
<!-- n14&#45;&gt;n10 -->
<g id="edge16" class="edge">
<title>n14&#45;&gt;n10</title>
<path fill="none" stroke="#64748b" d="M958.32,-160.23C995.19,-150.15 1042.3,-137.27 1080.95,-126.7"/>
<polygon fill="#64748b" stroke="#64748b" points="1081.49,-129.09 1087.6,-124.88 1080.2,-124.37 1081.49,-129.09"/>
</g>
<!-- n14&#45;&gt;n11 -->
<g id="edge17" class="edge">
<title>n14&#45;&gt;n11</title>
<path fill="none" stroke="#64748b" d="M958.32,-168.28C1032.91,-157.66 1160.88,-139.46 1258,-125.64"/>
<polygon fill="#64748b" stroke="#64748b" points="1258.33,-128.07 1264.91,-124.66 1257.63,-123.22 1258.33,-128.07"/>
</g>
<!-- n14&#45;&gt;n13 -->
<g id="edge18" class="edge">
<title>n14&#45;&gt;n13</title>
<path fill="none" stroke="#64748b" d="M958.46,-174.35C1093.7,-168.13 1414.24,-151.18 1537.97,-123.56"/>
<polygon fill="#64748b" stroke="#64748b" points="1538.45,-125.96 1544.7,-121.98 1537.33,-121.19 1538.45,-125.96"/>
</g>
<!-- n15 -->
<g id="node16" class="node">
<title>n15</title>
<g id="a_node16"><a xlink:href="vscode://vscode-remote/wsl+Ubuntu/home/gavin/statlib/Statlib/LimitTheorems/shao_prop_2_3_case_both_nondeg.lean:46" xlink:title="axiom · Statlib/LimitTheorems/shao_prop_2_3_case_both_nondeg.lean:46" target="_blank">
<path fill="#ffd6d6" stroke="#c0392b" d="M708.07,-196C708.07,-196 555.93,-196 555.93,-196 549.93,-196 543.93,-190 543.93,-184 543.93,-184 543.93,-172 543.93,-172 543.93,-166 549.93,-160 555.93,-160 555.93,-160 708.07,-160 708.07,-160 714.07,-160 720.07,-166 720.07,-172 720.07,-172 720.07,-184 720.07,-184 720.07,-190 714.07,-196 708.07,-196"/>
<text xml:space="preserve" text-anchor="middle" x="632" y="-175" font-family="Helvetica,sans-Serif" font-size="10.00">shao_prop_2_3_case_both_nondeg</text>
</a>
</g>
</g>
<!-- n15&#45;&gt;n0 -->
<g id="edge19" class="edge">
<title>n15&#45;&gt;n0</title>
<path fill="none" stroke="#64748b" d="M615.69,-159.7C607.29,-150.8 596.95,-139.82 587.87,-130.2"/>
<polygon fill="#64748b" stroke="#64748b" points="589.75,-128.62 583.17,-125.21 586.18,-131.98 589.75,-128.62"/>
</g>
<!-- n15&#45;&gt;n1 -->
<g id="edge21" class="edge">
<title>n15&#45;&gt;n1</title>
<path fill="none" stroke="#64748b" d="M583.3,-159.52C555.97,-149.71 521.76,-137.43 493.29,-127.21"/>
<polygon fill="#64748b" stroke="#64748b" points="494.26,-124.95 486.85,-124.89 492.61,-129.56 494.26,-124.95"/>
</g>
<!-- n15&#45;&gt;n2 -->
<g id="edge20" class="edge">
<title>n15&#45;&gt;n2</title>
<path fill="none" stroke="#64748b" d="M545.2,-159.53C498.4,-149.94 439.47,-137.59 378.97,-123.97"/>
<polygon fill="#64748b" stroke="#64748b" points="379.66,-121.61 372.29,-122.46 378.58,-126.39 379.66,-121.61"/>
</g>
<!-- n16 -->
<g id="node17" class="node">
<title>n16</title>
<g id="a_node17"><a xlink:href="vscode://vscode-remote/wsl+Ubuntu/home/gavin/statlib/Statlib/LimitTheorems/shao_prop_2_3.lean:39" xlink:title="theorem · Statlib/LimitTheorems/shao_prop_2_3.lean:39" target="_blank">
<path fill="#ffe6a3" stroke="#d4a017" stroke-width="3" d="M494.75,-268C494.75,-268 433.25,-268 433.25,-268 427.25,-268 421.25,-262 421.25,-256 421.25,-256 421.25,-244 421.25,-244 421.25,-238 427.25,-232 433.25,-232 433.25,-232 494.75,-232 494.75,-232 500.75,-232 506.75,-238 506.75,-244 506.75,-244 506.75,-256 506.75,-256 506.75,-262 500.75,-268 494.75,-268"/>
<text xml:space="preserve" text-anchor="middle" x="464" y="-247" font-family="Helvetica,sans-Serif" font-size="10.00">shao_prop_2_3</text>
</a>
</g>
</g>
<!-- n16&#45;&gt;n0 -->
<g id="edge22" class="edge">
<title>n16&#45;&gt;n0</title>
<path fill="none" stroke="#64748b" d="M508.05,-246.74C576.03,-242.23 701.56,-229.47 729,-196 739.14,-183.63 738.4,-172.95 729,-160 723.1,-151.87 678.09,-137.58 636.87,-125.88"/>
<polygon fill="#64748b" stroke="#64748b" points="637.54,-123.53 630.14,-123.99 636.21,-128.24 637.54,-123.53"/>
</g>
<!-- n16&#45;&gt;n1 -->
<g id="edge23" class="edge">
<title>n16&#45;&gt;n1</title>
<path fill="none" stroke="#64748b" d="M426.59,-230.5C413.48,-221.95 400.24,-210.44 393,-196 385.83,-181.7 387.57,-175.05 393,-160 396.95,-149.06 404.24,-138.79 411.77,-130.25"/>
<polygon fill="#64748b" stroke="#64748b" points="413.51,-131.98 416.49,-125.19 409.93,-128.64 413.51,-131.98"/>
</g>
<!-- n16&#45;&gt;n2 -->
<g id="edge24" class="edge">
<title>n16&#45;&gt;n2</title>
<path fill="none" stroke="#64748b" d="M420.02,-247.1C349.92,-243.05 217.79,-230.87 189,-196 178.81,-183.66 180.27,-173.41 189,-160 196.18,-148.98 221.33,-137.11 246.76,-127.4"/>
<polygon fill="#64748b" stroke="#64748b" points="247.52,-129.73 253.22,-124.99 245.81,-125.14 247.52,-129.73"/>
</g>
<!-- n16&#45;&gt;n6 -->
<g id="edge25" class="edge">
<title>n16&#45;&gt;n6</title>
<path fill="none" stroke="#64748b" d="M420.17,-232.23C394.47,-222.4 361.82,-209.91 334.6,-199.5"/>
<polygon fill="#64748b" stroke="#64748b" points="335.53,-197.24 328.12,-197.02 333.78,-201.81 335.53,-197.24"/>
</g>
<!-- n16&#45;&gt;n7 -->
<g id="edge26" class="edge">
<title>n16&#45;&gt;n7</title>
<path fill="none" stroke="#64748b" d="M464,-230.61C464,-222.59 464,-213.05 464,-204.37"/>
<polygon fill="#64748b" stroke="#64748b" points="466.45,-204.58 464,-197.58 461.55,-204.58 466.45,-204.58"/>
</g>
<!-- n16&#45;&gt;n14 -->
<g id="edge27" class="edge">
<title>n16&#45;&gt;n14</title>
<path fill="none" stroke="#64748b" d="M507.9,-241.9C583.17,-229.74 737.41,-204.8 827.44,-190.24"/>
<polygon fill="#64748b" stroke="#64748b" points="827.67,-192.69 834.19,-189.15 826.89,-187.85 827.67,-192.69"/>
</g>
<!-- n16&#45;&gt;n15 -->
<g id="edge28" class="edge">
<title>n16&#45;&gt;n15</title>
<path fill="none" stroke="#64748b" d="M508.14,-230.61C530.94,-221.11 558.83,-209.49 582.38,-199.68"/>
<polygon fill="#64748b" stroke="#64748b" points="583.26,-201.96 588.78,-197.01 581.38,-197.44 583.26,-201.96"/>
</g>
</g>
</svg>
