<?xml version="1.0" encoding="UTF-8" standalone="no"?>
<!DOCTYPE svg PUBLIC "-//W3C//DTD SVG 1.1//EN"
 "http://www.w3.org/Graphics/SVG/1.1/DTD/svg11.dtd">
<!-- Generated by graphviz version 15.0.0 (20260523.1842)
 -->
<!-- Title: uniform_slln Pages: 1 -->
<svg width="794pt" height="338pt"
 viewBox="0.00 0.00 794.00 338.00" xmlns="http://www.w3.org/2000/svg" xmlns:xlink="http://www.w3.org/1999/xlink">
<g id="graph0" class="graph" transform="scale(1 1) rotate(0) translate(4 334)">
<title>uniform_slln</title>
<polygon fill="white" stroke="none" points="-4,4 -4,-334 790,-334 790,4 -4,4"/>
<text xml:space="preserve" text-anchor="middle" x="393" y="-313.4" font-family="Helvetica,sans-Serif" font-size="14.00">Proof narrative — uniform_slln &#160;(14 decls)</text>
<g id="clust1" class="cluster">
<title>cluster_0</title>
<path fill="none" stroke="#cbd5e1" stroke-dasharray="5,2" d="M20,-8C20,-8 766,-8 766,-8 772,-8 778,-14 778,-20 778,-20 778,-285.2 778,-285.2 778,-291.2 772,-297.2 766,-297.2 766,-297.2 20,-297.2 20,-297.2 14,-297.2 8,-291.2 8,-285.2 8,-285.2 8,-20 8,-20 8,-14 14,-8 20,-8"/>
<text xml:space="preserve" text-anchor="middle" x="393" y="-283.3" font-family="Helvetica,sans-Serif" font-size="11.00">LimitTheorems</text>
</g>
<!-- n0 -->
<g id="node1" class="node">
<title>n0</title>
<g id="a_node1"><a xlink:href="vscode://vscode-remote/wsl+Ubuntu/home/gavin/statlib/Statlib/LimitTheorems/sampleAvg.lean:12" xlink:title="noncomputable def · Statlib/LimitTheorems/sampleAvg.lean:12" target="_blank">
<path fill="#d6e9ff" stroke="#3b82f6" d="M757.73,-52C757.73,-52 716.27,-52 716.27,-52 710.27,-52 704.27,-46 704.27,-40 704.27,-40 704.27,-28 704.27,-28 704.27,-22 710.27,-16 716.27,-16 716.27,-16 757.73,-16 757.73,-16 763.73,-16 769.73,-22 769.73,-28 769.73,-28 769.73,-40 769.73,-40 769.73,-46 763.73,-52 757.73,-52"/>
<text xml:space="preserve" text-anchor="middle" x="737" y="-31" font-family="Helvetica,sans-Serif" font-size="10.00">sampleAvg</text>
</a>
</g>
</g>
<!-- n1 -->
<g id="node2" class="node">
<title>n1</title>
<g id="a_node2"><a xlink:href="vscode://vscode-remote/wsl+Ubuntu/home/gavin/statlib/Statlib/LimitTheorems/popMean.lean:10" xlink:title="noncomputable def · Statlib/LimitTheorems/popMean.lean:10" target="_blank">
<path fill="#d6e9ff" stroke="#3b82f6" d="M541.85,-52C541.85,-52 508.15,-52 508.15,-52 502.15,-52 496.15,-46 496.15,-40 496.15,-40 496.15,-28 496.15,-28 496.15,-22 502.15,-16 508.15,-16 508.15,-16 541.85,-16 541.85,-16 547.85,-16 553.85,-22 553.85,-28 553.85,-28 553.85,-40 553.85,-40 553.85,-46 547.85,-52 541.85,-52"/>
<text xml:space="preserve" text-anchor="middle" x="525" y="-31" font-family="Helvetica,sans-Serif" font-size="10.00">popMean</text>
</a>
</g>
</g>
<!-- n2 -->
<g id="node3" class="node">
<title>n2</title>
<g id="a_node3"><a xlink:href="vscode://vscode-remote/wsl+Ubuntu/home/gavin/statlib/Statlib/LimitTheorems/popMean_continuous.lean:12" xlink:title="lemma · Statlib/LimitTheorems/popMean_continuous.lean:12" target="_blank">
<path fill="#eef2f6" stroke="#94a3b8" d="M581.81,-196C581.81,-196 494.19,-196 494.19,-196 488.19,-196 482.19,-190 482.19,-184 482.19,-184 482.19,-172 482.19,-172 482.19,-166 488.19,-160 494.19,-160 494.19,-160 581.81,-160 581.81,-160 587.81,-160 593.81,-166 593.81,-172 593.81,-172 593.81,-184 593.81,-184 593.81,-190 587.81,-196 581.81,-196"/>
<text xml:space="preserve" text-anchor="middle" x="538" y="-175" font-family="Helvetica,sans-Serif" font-size="10.00">popMean_continuous</text>
</a>
</g>
</g>
<!-- n2&#45;&gt;n1 -->
<g id="edge1" class="edge">
<title>n2&#45;&gt;n1</title>
<path fill="none" stroke="#64748b" d="M558.38,-159.53C567.81,-150.09 578.01,-137.6 583,-124 588.52,-108.98 589.45,-102.64 583,-88 577.81,-76.23 568.57,-65.93 558.97,-57.63"/>
<polygon fill="#64748b" stroke="#64748b" points="560.79,-55.95 553.82,-53.42 557.69,-59.74 560.79,-55.95"/>
</g>
<!-- n3 -->
<g id="node4" class="node">
<title>n3</title>
<g id="a_node4"><a xlink:href="vscode://vscode-remote/wsl+Ubuntu/home/gavin/statlib/Statlib/LimitTheorems/oscEnvelope.lean:11" xlink:title="noncomputable def · Statlib/LimitTheorems/oscEnvelope.lean:11" target="_blank">
<path fill="#d6e9ff" stroke="#3b82f6" d="M345.63,-52C345.63,-52 296.37,-52 296.37,-52 290.37,-52 284.37,-46 284.37,-40 284.37,-40 284.37,-28 284.37,-28 284.37,-22 290.37,-16 296.37,-16 296.37,-16 345.63,-16 345.63,-16 351.63,-16 357.63,-22 357.63,-28 357.63,-28 357.63,-40 357.63,-40 357.63,-46 351.63,-52 345.63,-52"/>
<text xml:space="preserve" text-anchor="middle" x="321" y="-31" font-family="Helvetica,sans-Serif" font-size="10.00">oscEnvelope</text>
</a>
</g>
</g>
<!-- n4 -->
<g id="node5" class="node">
<title>n4</title>
<g id="a_node5"><a xlink:href="vscode://vscode-remote/wsl+Ubuntu/home/gavin/statlib/Statlib/LimitTheorems/oscEnvelope_measurable.lean:11" xlink:title="lemma · Statlib/LimitTheorems/oscEnvelope_measurable.lean:11" target="_blank">
<path fill="#eef2f6" stroke="#94a3b8" d="M135.54,-124C135.54,-124 28.46,-124 28.46,-124 22.46,-124 16.46,-118 16.46,-112 16.46,-112 16.46,-100 16.46,-100 16.46,-94 22.46,-88 28.46,-88 28.46,-88 135.54,-88 135.54,-88 141.54,-88 147.54,-94 147.54,-100 147.54,-100 147.54,-112 147.54,-112 147.54,-118 141.54,-124 135.54,-124"/>
<text xml:space="preserve" text-anchor="middle" x="82" y="-103" font-family="Helvetica,sans-Serif" font-size="10.00">oscEnvelope_measurable</text>
</a>
</g>
</g>
<!-- n4&#45;&gt;n3 -->
<g id="edge2" class="edge">
<title>n4&#45;&gt;n3</title>
<path fill="none" stroke="#64748b" d="M141.69,-87.52C183.39,-75.31 238.17,-59.26 276.15,-48.13"/>
<polygon fill="#64748b" stroke="#64748b" points="276.51,-50.58 282.54,-46.26 275.14,-45.88 276.51,-50.58"/>
</g>
<!-- n5 -->
<g id="node6" class="node">
<title>n5</title>
<g id="a_node6"><a xlink:href="vscode://vscode-remote/wsl+Ubuntu/home/gavin/statlib/Statlib/LimitTheorems/iSup_prop_le.lean:22" xlink:title="lemma · Statlib/LimitTheorems/iSup_prop_le.lean:22" target="_blank">
<path fill="#eef2f6" stroke="#94a3b8" d="M452.47,-52C452.47,-52 401.53,-52 401.53,-52 395.53,-52 389.53,-46 389.53,-40 389.53,-40 389.53,-28 389.53,-28 389.53,-22 395.53,-16 401.53,-16 401.53,-16 452.47,-16 452.47,-16 458.47,-16 464.47,-22 464.47,-28 464.47,-28 464.47,-40 464.47,-40 464.47,-46 458.47,-52 452.47,-52"/>
<text xml:space="preserve" text-anchor="middle" x="427" y="-31" font-family="Helvetica,sans-Serif" font-size="10.00">iSup_prop_le</text>
</a>
</g>
</g>
<!-- n6 -->
<g id="node7" class="node">
<title>n6</title>
<g id="a_node7"><a xlink:href="vscode://vscode-remote/wsl+Ubuntu/home/gavin/statlib/Statlib/LimitTheorems/oscEnvelope_le_two_mul.lean:12" xlink:title="lemma · Statlib/LimitTheorems/oscEnvelope_le_two_mul.lean:12" target="_blank">
<path fill="#eef2f6" stroke="#94a3b8" d="M561.7,-124C561.7,-124 456.3,-124 456.3,-124 450.3,-124 444.3,-118 444.3,-112 444.3,-112 444.3,-100 444.3,-100 444.3,-94 450.3,-88 456.3,-88 456.3,-88 561.7,-88 561.7,-88 567.7,-88 573.7,-94 573.7,-100 573.7,-100 573.7,-112 573.7,-112 573.7,-118 567.7,-124 561.7,-124"/>
<text xml:space="preserve" text-anchor="middle" x="509" y="-103" font-family="Helvetica,sans-Serif" font-size="10.00">oscEnvelope_le_two_mul</text>
</a>
</g>
</g>
<!-- n6&#45;&gt;n3 -->
<g id="edge3" class="edge">
<title>n6&#45;&gt;n3</title>
<path fill="none" stroke="#64748b" d="M462.04,-87.52C432.62,-76.56 394.91,-62.52 365.88,-51.71"/>
<polygon fill="#64748b" stroke="#64748b" points="366.77,-49.43 359.36,-49.28 365.06,-54.02 366.77,-49.43"/>
</g>
<!-- n6&#45;&gt;n5 -->
<g id="edge4" class="edge">
<title>n6&#45;&gt;n5</title>
<path fill="none" stroke="#64748b" d="M488.73,-87.7C478.18,-78.69 465.16,-67.57 453.79,-57.87"/>
<polygon fill="#64748b" stroke="#64748b" points="455.39,-56.01 448.47,-53.33 452.21,-59.74 455.39,-56.01"/>
</g>
<!-- n7 -->
<g id="node8" class="node">
<title>n7</title>
<g id="a_node8"><a xlink:href="vscode://vscode-remote/wsl+Ubuntu/home/gavin/statlib/Statlib/LimitTheorems/le_oscEnvelope.lean:14" xlink:title="lemma · Statlib/LimitTheorems/le_oscEnvelope.lean:14" target="_blank">
<path fill="#eef2f6" stroke="#94a3b8" d="M414.3,-124C414.3,-124 351.7,-124 351.7,-124 345.7,-124 339.7,-118 339.7,-112 339.7,-112 339.7,-100 339.7,-100 339.7,-94 345.7,-88 351.7,-88 351.7,-88 414.3,-88 414.3,-88 420.3,-88 426.3,-94 426.3,-100 426.3,-100 426.3,-112 426.3,-112 426.3,-118 420.3,-124 414.3,-124"/>
<text xml:space="preserve" text-anchor="middle" x="383" y="-103" font-family="Helvetica,sans-Serif" font-size="10.00">le_oscEnvelope</text>
</a>
</g>
</g>
<!-- n7&#45;&gt;n3 -->
<g id="edge5" class="edge">
<title>n7&#45;&gt;n3</title>
<path fill="none" stroke="#64748b" d="M367.67,-87.7C359.87,-78.88 350.26,-68.03 341.79,-58.47"/>
<polygon fill="#64748b" stroke="#64748b" points="343.63,-56.85 337.15,-53.24 339.96,-60.1 343.63,-56.85"/>
</g>
<!-- n7&#45;&gt;n5 -->
<g id="edge6" class="edge">
<title>n7&#45;&gt;n5</title>
<path fill="none" stroke="#64748b" d="M393.88,-87.7C399.26,-79.14 405.84,-68.66 411.72,-59.3"/>
<polygon fill="#64748b" stroke="#64748b" points="413.79,-60.62 415.44,-53.39 409.64,-58.01 413.79,-60.62"/>
</g>
<!-- n8 -->
<g id="node9" class="node">
<title>n8</title>
<g id="a_node9"><a xlink:href="vscode://vscode-remote/wsl+Ubuntu/home/gavin/statlib/Statlib/LimitTheorems/oscEnvelope_tendsto_zero.lean:11" xlink:title="lemma · Statlib/LimitTheorems/oscEnvelope_tendsto_zero.lean:11" target="_blank">
<path fill="#eef2f6" stroke="#94a3b8" d="M290.32,-124C290.32,-124 177.68,-124 177.68,-124 171.68,-124 165.68,-118 165.68,-112 165.68,-112 165.68,-100 165.68,-100 165.68,-94 171.68,-88 177.68,-88 177.68,-88 290.32,-88 290.32,-88 296.32,-88 302.32,-94 302.32,-100 302.32,-100 302.32,-112 302.32,-112 302.32,-118 296.32,-124 290.32,-124"/>
<text xml:space="preserve" text-anchor="middle" x="234" y="-103" font-family="Helvetica,sans-Serif" font-size="10.00">oscEnvelope_tendsto_zero</text>
</a>
</g>
</g>
<!-- n8&#45;&gt;n3 -->
<g id="edge7" class="edge">
<title>n8&#45;&gt;n3</title>
<path fill="none" stroke="#64748b" d="M255.51,-87.7C266.8,-78.61 280.78,-67.36 292.91,-57.6"/>
<polygon fill="#64748b" stroke="#64748b" points="294.34,-59.59 298.26,-53.3 291.27,-55.78 294.34,-59.59"/>
</g>
<!-- n9 -->
<g id="node10" class="node">
<title>n9</title>
<g id="a_node10"><a xlink:href="vscode://vscode-remote/wsl+Ubuntu/home/gavin/statlib/Statlib/LimitTheorems/slln_oscillation_bound.lean:14" xlink:title="lemma · Statlib/LimitTheorems/slln_oscillation_bound.lean:14" target="_blank">
<path fill="#eef2f6" stroke="#94a3b8" d="M396.92,-196C396.92,-196 307.08,-196 307.08,-196 301.08,-196 295.08,-190 295.08,-184 295.08,-184 295.08,-172 295.08,-172 295.08,-166 301.08,-160 307.08,-160 307.08,-160 396.92,-160 396.92,-160 402.92,-160 408.92,-166 408.92,-172 408.92,-172 408.92,-184 408.92,-184 408.92,-190 402.92,-196 396.92,-196"/>
<text xml:space="preserve" text-anchor="middle" x="352" y="-175" font-family="Helvetica,sans-Serif" font-size="10.00">slln_oscillation_bound</text>
</a>
</g>
</g>
<!-- n9&#45;&gt;n3 -->
<g id="edge8" class="edge">
<title>n9&#45;&gt;n3</title>
<path fill="none" stroke="#64748b" d="M343.8,-159.72C339.32,-149.54 334.07,-136.29 331,-124 325.76,-103 323.26,-78.52 322.07,-60.55"/>
<polygon fill="#64748b" stroke="#64748b" points="324.53,-60.66 321.68,-53.81 319.64,-60.94 324.53,-60.66"/>
</g>
<!-- n9&#45;&gt;n4 -->
<g id="edge9" class="edge">
<title>n9&#45;&gt;n4</title>
<path fill="none" stroke="#64748b" d="M294.74,-162.15C254.23,-151.65 199.55,-137.48 155.77,-126.12"/>
<polygon fill="#64748b" stroke="#64748b" points="156.58,-123.81 149.19,-124.42 155.35,-128.55 156.58,-123.81"/>
</g>
<!-- n9&#45;&gt;n6 -->
<g id="edge10" class="edge">
<title>n9&#45;&gt;n6</title>
<path fill="none" stroke="#64748b" d="M391.21,-159.52C412.84,-149.88 439.82,-137.84 462.5,-127.73"/>
<polygon fill="#64748b" stroke="#64748b" points="463.24,-130.09 468.63,-125 461.24,-125.61 463.24,-130.09"/>
</g>
<!-- n9&#45;&gt;n7 -->
<g id="edge11" class="edge">
<title>n9&#45;&gt;n7</title>
<path fill="none" stroke="#64748b" d="M359.66,-159.7C363.38,-151.3 367.91,-141.07 371.99,-131.86"/>
<polygon fill="#64748b" stroke="#64748b" points="374.22,-132.88 374.81,-125.49 369.74,-130.9 374.22,-132.88"/>
</g>
<!-- n9&#45;&gt;n8 -->
<g id="edge12" class="edge">
<title>n9&#45;&gt;n8</title>
<path fill="none" stroke="#64748b" d="M322.53,-159.52C306.64,-150.09 286.9,-138.38 270.1,-128.41"/>
<polygon fill="#64748b" stroke="#64748b" points="271.67,-126.5 264.4,-125.03 269.17,-130.71 271.67,-126.5"/>
</g>
<!-- n10 -->
<g id="node11" class="node">
<title>n10</title>
<g id="a_node11"><a xlink:href="vscode://vscode-remote/wsl+Ubuntu/home/gavin/statlib/Statlib/LimitTheorems/integrable_U_comp_X.lean:11" xlink:title="lemma · Statlib/LimitTheorems/integrable_U_comp_X.lean:11" target="_blank">
<path fill="#eef2f6" stroke="#94a3b8" d="M674.48,-52C674.48,-52 583.52,-52 583.52,-52 577.52,-52 571.52,-46 571.52,-40 571.52,-40 571.52,-28 571.52,-28 571.52,-22 577.52,-16 583.52,-16 583.52,-16 674.48,-16 674.48,-16 680.48,-16 686.48,-22 686.48,-28 686.48,-28 686.48,-40 686.48,-40 686.48,-46 680.48,-52 674.48,-52"/>
<text xml:space="preserve" text-anchor="middle" x="629" y="-31" font-family="Helvetica,sans-Serif" font-size="10.00">integrable_U_comp_X</text>
</a>
</g>
</g>
<!-- n11 -->
<g id="node12" class="node">
<title>n11</title>
<g id="a_node12"><a xlink:href="vscode://vscode-remote/wsl+Ubuntu/home/gavin/statlib/Statlib/LimitTheorems/slln_pointwise.lean:15" xlink:title="lemma · Statlib/LimitTheorems/slln_pointwise.lean:15" target="_blank">
<path fill="#eef2f6" stroke="#94a3b8" d="M718.13,-124C718.13,-124 663.87,-124 663.87,-124 657.87,-124 651.87,-118 651.87,-112 651.87,-112 651.87,-100 651.87,-100 651.87,-94 657.87,-88 663.87,-88 663.87,-88 718.13,-88 718.13,-88 724.13,-88 730.13,-94 730.13,-100 730.13,-100 730.13,-112 730.13,-112 730.13,-118 724.13,-124 718.13,-124"/>
<text xml:space="preserve" text-anchor="middle" x="691" y="-103" font-family="Helvetica,sans-Serif" font-size="10.00">slln_pointwise</text>
</a>
</g>
</g>
<!-- n11&#45;&gt;n0 -->
<g id="edge13" class="edge">
<title>n11&#45;&gt;n0</title>
<path fill="none" stroke="#64748b" d="M702.37,-87.7C708.05,-79.05 715.02,-68.45 721.21,-59.03"/>
<polygon fill="#64748b" stroke="#64748b" points="723.13,-60.56 724.93,-53.37 719.04,-57.87 723.13,-60.56"/>
</g>
<!-- n11&#45;&gt;n1 -->
<g id="edge14" class="edge">
<title>n11&#45;&gt;n1</title>
<path fill="none" stroke="#64748b" d="M651.38,-88.93C626.03,-78.57 592.49,-64.7 563,-52 562.54,-51.8 562.08,-51.61 561.62,-51.41"/>
<polygon fill="#64748b" stroke="#64748b" points="562.79,-49.24 555.4,-48.68 560.83,-53.73 562.79,-49.24"/>
</g>
<!-- n11&#45;&gt;n10 -->
<g id="edge15" class="edge">
<title>n11&#45;&gt;n10</title>
<path fill="none" stroke="#64748b" d="M675.67,-87.7C667.87,-78.88 658.26,-68.03 649.79,-58.47"/>
<polygon fill="#64748b" stroke="#64748b" points="651.63,-56.85 645.15,-53.24 647.96,-60.1 651.63,-56.85"/>
</g>
<!-- n12 -->
<g id="node13" class="node">
<title>n12</title>
<g id="a_node13"><a xlink:href="vscode://vscode-remote/wsl+Ubuntu/home/gavin/statlib/Statlib/LimitTheorems/slln_finset_ae.lean:15" xlink:title="lemma · Statlib/LimitTheorems/slln_finset_ae.lean:15" target="_blank">
<path fill="#eef2f6" stroke="#94a3b8" d="M707.58,-196C707.58,-196 654.42,-196 654.42,-196 648.42,-196 642.42,-190 642.42,-184 642.42,-184 642.42,-172 642.42,-172 642.42,-166 648.42,-160 654.42,-160 654.42,-160 707.58,-160 707.58,-160 713.58,-160 719.58,-166 719.58,-172 719.58,-172 719.58,-184 719.58,-184 719.58,-190 713.58,-196 707.58,-196"/>
<text xml:space="preserve" text-anchor="middle" x="681" y="-175" font-family="Helvetica,sans-Serif" font-size="10.00">slln_finset_ae</text>
</a>
</g>
</g>
<!-- n12&#45;&gt;n0 -->
<g id="edge16" class="edge">
<title>n12&#45;&gt;n0</title>
<path fill="none" stroke="#64748b" d="M708.64,-159.54C720.33,-150.51 732.67,-138.35 739,-124 747.83,-103.98 746.28,-78.88 743.13,-60.45"/>
<polygon fill="#64748b" stroke="#64748b" points="745.57,-60.13 741.84,-53.72 740.75,-61.06 745.57,-60.13"/>
</g>
<!-- n12&#45;&gt;n1 -->
<g id="edge17" class="edge">
<title>n12&#45;&gt;n1</title>
<path fill="none" stroke="#64748b" d="M668.61,-159.86C661.15,-149.51 651.49,-136.03 643,-124 631.77,-108.08 632.37,-101.15 618,-88 608.76,-79.55 583.48,-65.31 561.6,-53.71"/>
<polygon fill="#64748b" stroke="#64748b" points="563.02,-51.69 555.68,-50.6 560.74,-56.03 563.02,-51.69"/>
</g>
<!-- n12&#45;&gt;n11 -->
<g id="edge18" class="edge">
<title>n12&#45;&gt;n11</title>
<path fill="none" stroke="#64748b" d="M683.47,-159.7C684.65,-151.47 686.07,-141.48 687.37,-132.42"/>
<polygon fill="#64748b" stroke="#64748b" points="689.78,-132.88 688.34,-125.6 684.93,-132.19 689.78,-132.88"/>
</g>
<!-- n13 -->
<g id="node14" class="node">
<title>n13</title>
<g id="a_node14"><a xlink:href="vscode://vscode-remote/wsl+Ubuntu/home/gavin/statlib/Statlib/LimitTheorems/uniform_slln.lean:20" xlink:title="theorem · Statlib/LimitTheorems/uniform_slln.lean:20" target="_blank">
<path fill="#ffe6a3" stroke="#d4a017" stroke-width="3" d="M635.96,-268C635.96,-268 590.04,-268 590.04,-268 584.04,-268 578.04,-262 578.04,-256 578.04,-256 578.04,-244 578.04,-244 578.04,-238 584.04,-232 590.04,-232 590.04,-232 635.96,-232 635.96,-232 641.96,-232 647.96,-238 647.96,-244 647.96,-244 647.96,-256 647.96,-256 647.96,-262 641.96,-268 635.96,-268"/>
<text xml:space="preserve" text-anchor="middle" x="613" y="-247" font-family="Helvetica,sans-Serif" font-size="10.00">uniform_slln</text>
</a>
</g>
</g>
<!-- n13&#45;&gt;n0 -->
<g id="edge19" class="edge">
<title>n13&#45;&gt;n0</title>
<path fill="none" stroke="#64748b" d="M649.29,-241.29C675.17,-233.94 708.83,-220.26 729,-196 760.67,-157.91 752.37,-95.53 744.23,-60.65"/>
<polygon fill="#64748b" stroke="#64748b" points="746.62,-60.08 742.55,-53.88 741.86,-61.26 746.62,-60.08"/>
</g>
<!-- n13&#45;&gt;n1 -->
<g id="edge20" class="edge">
<title>n13&#45;&gt;n1</title>
<path fill="none" stroke="#64748b" d="M614.7,-230.64C616.73,-199.12 616.96,-133.73 590,-88 582.84,-75.85 571.78,-65.3 560.81,-56.89"/>
<polygon fill="#64748b" stroke="#64748b" points="562.35,-54.97 555.25,-52.82 559.45,-58.93 562.35,-54.97"/>
</g>
<!-- n13&#45;&gt;n2 -->
<g id="edge21" class="edge">
<title>n13&#45;&gt;n2</title>
<path fill="none" stroke="#64748b" d="M593.29,-230.61C583.88,-221.82 572.51,-211.21 562.54,-201.9"/>
<polygon fill="#64748b" stroke="#64748b" points="564.44,-200.32 557.65,-197.34 561.09,-203.91 564.44,-200.32"/>
</g>
<!-- n13&#45;&gt;n9 -->
<g id="edge22" class="edge">
<title>n13&#45;&gt;n9</title>
<path fill="none" stroke="#64748b" d="M576.71,-239.27C535.49,-228.21 467.43,-209.96 416.99,-196.43"/>
<polygon fill="#64748b" stroke="#64748b" points="417.91,-194.14 410.52,-194.69 416.64,-198.87 417.91,-194.14"/>
</g>
<!-- n13&#45;&gt;n12 -->
<g id="edge23" class="edge">
<title>n13&#45;&gt;n12</title>
<path fill="none" stroke="#64748b" d="M630.87,-230.61C639.39,-221.84 649.67,-211.25 658.7,-201.96"/>
<polygon fill="#64748b" stroke="#64748b" points="660.24,-203.88 663.37,-197.15 656.73,-200.47 660.24,-203.88"/>
</g>
</g>
</svg>
