<?xml version="1.0" encoding="UTF-8" standalone="no"?>
<!DOCTYPE svg PUBLIC "-//W3C//DTD SVG 1.1//EN"
 "http://www.w3.org/Graphics/SVG/1.1/DTD/svg11.dtd">
<!-- Generated by graphviz version 15.0.0 (20260523.1842)
 -->
<!-- Title: dudley_finite_chaining Pages: 1 -->
<svg width="1712pt" height="410pt"
 viewBox="0.00 0.00 1712.00 410.00" xmlns="http://www.w3.org/2000/svg" xmlns:xlink="http://www.w3.org/1999/xlink">
<g id="graph0" class="graph" transform="scale(1 1) rotate(0) translate(4 406)">
<title>dudley_finite_chaining</title>
<polygon fill="white" stroke="none" points="-4,4 -4,-406 1708,-406 1708,4 -4,4"/>
<text xml:space="preserve" text-anchor="middle" x="852" y="-385.4" font-family="Helvetica,sans-Serif" font-size="14.00">Proof narrative — dudley_finite_chaining &#160;(30 decls)</text>
<g id="clust1" class="cluster">
<title>cluster_0</title>
<path fill="none" stroke="#cbd5e1" stroke-dasharray="5,2" d="M20,-8C20,-8 1684,-8 1684,-8 1690,-8 1696,-14 1696,-20 1696,-20 1696,-357.2 1696,-357.2 1696,-363.2 1690,-369.2 1684,-369.2 1684,-369.2 20,-369.2 20,-369.2 14,-369.2 8,-363.2 8,-357.2 8,-357.2 8,-20 8,-20 8,-14 14,-8 20,-8"/>
<text xml:space="preserve" text-anchor="middle" x="852" y="-355.3" font-family="Helvetica,sans-Serif" font-size="11.00">EmpiricalProcess</text>
</g>
<!-- n0 -->
<g id="node1" class="node">
<title>n0</title>
<g id="a_node1"><a xlink:href="vscode://vscode-remote/wsl+Ubuntu/home/gavin/statlib/Statlib/EmpiricalProcess/Dudley.lean:188" xlink:title="structure · Statlib/EmpiricalProcess/Dudley.lean:188" target="_blank">
<path fill="#e8dcff" stroke="#8b5cf6" d="M983.97,-52C983.97,-52 888.03,-52 888.03,-52 882.03,-52 876.03,-46 876.03,-40 876.03,-40 876.03,-28 876.03,-28 876.03,-22 882.03,-16 888.03,-16 888.03,-16 983.97,-16 983.97,-16 989.97,-16 995.97,-22 995.97,-28 995.97,-28 995.97,-40 995.97,-40 995.97,-46 989.97,-52 983.97,-52"/>
<text xml:space="preserve" text-anchor="middle" x="936" y="-31" font-family="Helvetica,sans-Serif" font-size="10.00">IsSubGaussianProcess</text>
</a>
</g>
</g>
<!-- n1 -->
<g id="node2" class="node">
<title>n1</title>
<g id="a_node2"><a xlink:href="vscode://vscode-remote/wsl+Ubuntu/home/gavin/statlib/Statlib/EmpiricalProcess/CoveringNumber.lean:103" xlink:title="noncomputable def · Statlib/EmpiricalProcess/CoveringNumber.lean:103" target="_blank">
<path fill="#d6e9ff" stroke="#3b82f6" d="M219.07,-196C219.07,-196 170.93,-196 170.93,-196 164.93,-196 158.93,-190 158.93,-184 158.93,-184 158.93,-172 158.93,-172 158.93,-166 164.93,-160 170.93,-160 170.93,-160 219.07,-160 219.07,-160 225.07,-160 231.07,-166 231.07,-172 231.07,-172 231.07,-184 231.07,-184 231.07,-190 225.07,-196 219.07,-196"/>
<text xml:space="preserve" text-anchor="middle" x="195" y="-175" font-family="Helvetica,sans-Serif" font-size="10.00">nearestPoint</text>
</a>
</g>
</g>
<!-- n2 -->
<g id="node3" class="node">
<title>n2</title>
<g id="a_node3"><a xlink:href="vscode://vscode-remote/wsl+Ubuntu/home/gavin/statlib/Statlib/EmpiricalProcess/Dudley.lean:1117" xlink:title="private lemma · Statlib/EmpiricalProcess/Dudley.lean:1117" target="_blank">
<path fill="#eef2f6" stroke="#94a3b8" d="M159.81,-52C159.81,-52 114.19,-52 114.19,-52 108.19,-52 102.19,-46 102.19,-40 102.19,-40 102.19,-28 102.19,-28 102.19,-22 108.19,-16 114.19,-16 114.19,-16 159.81,-16 159.81,-16 165.81,-16 171.81,-22 171.81,-28 171.81,-28 171.81,-40 171.81,-40 171.81,-46 165.81,-52 159.81,-52"/>
<text xml:space="preserve" text-anchor="middle" x="137" y="-31" font-family="Helvetica,sans-Serif" font-size="10.00">sup&#39;_add_le</text>
</a>
</g>
</g>
<!-- n3 -->
<g id="node4" class="node">
<title>n3</title>
<g id="a_node4"><a xlink:href="vscode://vscode-remote/wsl+Ubuntu/home/gavin/statlib/Statlib/EmpiricalProcess/Dudley.lean:1121" xlink:title="private lemma · Statlib/EmpiricalProcess/Dudley.lean:1121" target="_blank">
<path fill="#eef2f6" stroke="#94a3b8" d="M72.03,-52C72.03,-52 31.97,-52 31.97,-52 25.97,-52 19.97,-46 19.97,-40 19.97,-40 19.97,-28 19.97,-28 19.97,-22 25.97,-16 31.97,-16 31.97,-16 72.03,-16 72.03,-16 78.03,-16 84.03,-22 84.03,-28 84.03,-28 84.03,-40 84.03,-40 84.03,-46 78.03,-52 72.03,-52"/>
<text xml:space="preserve" text-anchor="middle" x="52" y="-31" font-family="Helvetica,sans-Serif" font-size="10.00">inf&#39;_add_le</text>
</a>
</g>
</g>
<!-- n4 -->
<g id="node5" class="node">
<title>n4</title>
<g id="a_node5"><a xlink:href="vscode://vscode-remote/wsl+Ubuntu/home/gavin/statlib/Statlib/EmpiricalProcess/Dudley.lean:1126" xlink:title="theorem · Statlib/EmpiricalProcess/Dudley.lean:1126" target="_blank">
<path fill="#ffe6a3" stroke="#d4a017" d="M81.58,-124C81.58,-124 28.42,-124 28.42,-124 22.42,-124 16.42,-118 16.42,-112 16.42,-112 16.42,-100 16.42,-100 16.42,-94 22.42,-88 28.42,-88 28.42,-88 81.58,-88 81.58,-88 87.58,-88 93.58,-94 93.58,-100 93.58,-100 93.58,-112 93.58,-112 93.58,-118 87.58,-124 81.58,-124"/>
<text xml:space="preserve" text-anchor="middle" x="55" y="-103" font-family="Helvetica,sans-Serif" font-size="10.00">range_add_le</text>
</a>
</g>
</g>
<!-- n4&#45;&gt;n2 -->
<g id="edge1" class="edge">
<title>n4&#45;&gt;n2</title>
<path fill="none" stroke="#64748b" d="M75.27,-87.7C85.82,-78.69 98.84,-67.57 110.21,-57.87"/>
<polygon fill="#64748b" stroke="#64748b" points="111.79,-59.74 115.53,-53.33 108.61,-56.01 111.79,-59.74"/>
</g>
<!-- n4&#45;&gt;n3 -->
<g id="edge2" class="edge">
<title>n4&#45;&gt;n3</title>
<path fill="none" stroke="#64748b" d="M54.26,-87.7C53.91,-79.47 53.48,-69.48 53.09,-60.42"/>
<polygon fill="#64748b" stroke="#64748b" points="55.55,-60.51 52.8,-53.62 50.65,-60.72 55.55,-60.51"/>
</g>
<!-- n5 -->
<g id="node6" class="node">
<title>n5</title>
<g id="a_node6"><a xlink:href="vscode://vscode-remote/wsl+Ubuntu/home/gavin/statlib/Statlib/EmpiricalProcess/Dudley.lean:1132" xlink:title="theorem · Statlib/EmpiricalProcess/Dudley.lean:1132" target="_blank">
<path fill="#ffe6a3" stroke="#d4a017" d="M176.7,-124C176.7,-124 123.3,-124 123.3,-124 117.3,-124 111.3,-118 111.3,-112 111.3,-112 111.3,-100 111.3,-100 111.3,-94 117.3,-88 123.3,-88 123.3,-88 176.7,-88 176.7,-88 182.7,-88 188.7,-94 188.7,-100 188.7,-100 188.7,-112 188.7,-112 188.7,-118 182.7,-124 176.7,-124"/>
<text xml:space="preserve" text-anchor="middle" x="150" y="-103" font-family="Helvetica,sans-Serif" font-size="10.00">sup&#39;_comp_le</text>
</a>
</g>
</g>
<!-- n6 -->
<g id="node7" class="node">
<title>n6</title>
<g id="a_node7"><a xlink:href="vscode://vscode-remote/wsl+Ubuntu/home/gavin/statlib/Statlib/EmpiricalProcess/Dudley.lean:1138" xlink:title="theorem · Statlib/EmpiricalProcess/Dudley.lean:1138" target="_blank">
<path fill="#ffe6a3" stroke="#d4a017" d="M266.92,-124C266.92,-124 219.08,-124 219.08,-124 213.08,-124 207.08,-118 207.08,-112 207.08,-112 207.08,-100 207.08,-100 207.08,-94 213.08,-88 219.08,-88 219.08,-88 266.92,-88 266.92,-88 272.92,-88 278.92,-94 278.92,-100 278.92,-100 278.92,-112 278.92,-112 278.92,-118 272.92,-124 266.92,-124"/>
<text xml:space="preserve" text-anchor="middle" x="243" y="-103" font-family="Helvetica,sans-Serif" font-size="10.00">inf&#39;_comp_le</text>
</a>
</g>
</g>
<!-- n7 -->
<g id="node8" class="node">
<title>n7</title>
<g id="a_node8"><a xlink:href="vscode://vscode-remote/wsl+Ubuntu/home/gavin/statlib/Statlib/EmpiricalProcess/Dudley.lean:1152" xlink:title="theorem · Statlib/EmpiricalProcess/Dudley.lean:1152" target="_blank">
<path fill="#ffe6a3" stroke="#d4a017" d="M128.48,-196C128.48,-196 27.52,-196 27.52,-196 21.52,-196 15.52,-190 15.52,-184 15.52,-184 15.52,-172 15.52,-172 15.52,-166 21.52,-160 27.52,-160 27.52,-160 128.48,-160 128.48,-160 134.48,-160 140.48,-166 140.48,-172 140.48,-172 140.48,-184 140.48,-184 140.48,-190 134.48,-196 128.48,-196"/>
<text xml:space="preserve" text-anchor="middle" x="78" y="-175" font-family="Helvetica,sans-Serif" font-size="10.00">chaining_step_pointwise</text>
</a>
</g>
</g>
<!-- n7&#45;&gt;n4 -->
<g id="edge3" class="edge">
<title>n7&#45;&gt;n4</title>
<path fill="none" stroke="#64748b" d="M72.31,-159.7C69.59,-151.39 66.26,-141.28 63.26,-132.14"/>
<polygon fill="#64748b" stroke="#64748b" points="65.61,-131.43 61.09,-125.54 60.95,-132.96 65.61,-131.43"/>
</g>
<!-- n7&#45;&gt;n5 -->
<g id="edge4" class="edge">
<title>n7&#45;&gt;n5</title>
<path fill="none" stroke="#64748b" d="M95.8,-159.7C104.97,-150.78 116.28,-139.78 126.2,-130.14"/>
<polygon fill="#64748b" stroke="#64748b" points="127.76,-132.04 131.07,-125.4 124.35,-128.52 127.76,-132.04"/>
</g>
<!-- n7&#45;&gt;n6 -->
<g id="edge5" class="edge">
<title>n7&#45;&gt;n6</title>
<path fill="none" stroke="#64748b" d="M119.21,-159.52C143.5,-149.21 174.22,-136.18 198.98,-125.67"/>
<polygon fill="#64748b" stroke="#64748b" points="199.92,-127.94 205.4,-122.95 198,-123.43 199.92,-127.94"/>
</g>
<!-- n8 -->
<g id="node9" class="node">
<title>n8</title>
<g id="a_node9"><a xlink:href="vscode://vscode-remote/wsl+Ubuntu/home/gavin/statlib/Statlib/EmpiricalProcess/Dudley.lean:1176" xlink:title="theorem · Statlib/EmpiricalProcess/Dudley.lean:1176" target="_blank">
<path fill="#ffe6a3" stroke="#d4a017" d="M216.38,-268C216.38,-268 107.62,-268 107.62,-268 101.62,-268 95.62,-262 95.62,-256 95.62,-256 95.62,-244 95.62,-244 95.62,-238 101.62,-232 107.62,-232 107.62,-232 216.38,-232 216.38,-232 222.38,-232 228.38,-238 228.38,-244 228.38,-244 228.38,-256 228.38,-256 228.38,-262 222.38,-268 216.38,-268"/>
<text xml:space="preserve" text-anchor="middle" x="162" y="-247" font-family="Helvetica,sans-Serif" font-size="10.00">chaining_telescope_range</text>
</a>
</g>
</g>
<!-- n8&#45;&gt;n7 -->
<g id="edge6" class="edge">
<title>n8&#45;&gt;n7</title>
<path fill="none" stroke="#64748b" d="M141.24,-231.7C130.33,-222.61 116.84,-211.36 105.12,-201.6"/>
<polygon fill="#64748b" stroke="#64748b" points="106.93,-199.92 99.98,-197.32 103.79,-203.68 106.93,-199.92"/>
</g>
<!-- n9 -->
<g id="node10" class="node">
<title>n9</title>
<g id="a_node10"><a xlink:href="vscode://vscode-remote/wsl+Ubuntu/home/gavin/statlib/Statlib/EmpiricalProcess/CoveringNumber.lean:109" xlink:title="theorem · Statlib/EmpiricalProcess/CoveringNumber.lean:109" target="_blank">
<path fill="#ffe6a3" stroke="#d4a017" d="M434.97,-268C434.97,-268 359.03,-268 359.03,-268 353.03,-268 347.03,-262 347.03,-256 347.03,-256 347.03,-244 347.03,-244 347.03,-238 353.03,-232 359.03,-232 359.03,-232 434.97,-232 434.97,-232 440.97,-232 446.97,-238 446.97,-244 446.97,-244 446.97,-256 446.97,-256 446.97,-262 440.97,-268 434.97,-268"/>
<text xml:space="preserve" text-anchor="middle" x="397" y="-247" font-family="Helvetica,sans-Serif" font-size="10.00">nearestPoint_mem</text>
</a>
</g>
</g>
<!-- n9&#45;&gt;n1 -->
<g id="edge7" class="edge">
<title>n9&#45;&gt;n1</title>
<path fill="none" stroke="#64748b" d="M346.55,-231.52C313.58,-220.09 270.94,-205.32 239.29,-194.35"/>
<polygon fill="#64748b" stroke="#64748b" points="240.34,-192.12 232.92,-192.14 238.73,-196.75 240.34,-192.12"/>
</g>
<!-- n10 -->
<g id="node11" class="node">
<title>n10</title>
<g id="a_node11"><a xlink:href="vscode://vscode-remote/wsl+Ubuntu/home/gavin/statlib/Statlib/EmpiricalProcess/Dudley.lean:752" xlink:title="private lemma · Statlib/EmpiricalProcess/Dudley.lean:752" target="_blank">
<path fill="#eef2f6" stroke="#94a3b8" d="M867.6,-196C867.6,-196 776.4,-196 776.4,-196 770.4,-196 764.4,-190 764.4,-184 764.4,-184 764.4,-172 764.4,-172 764.4,-166 770.4,-160 776.4,-160 776.4,-160 867.6,-160 867.6,-160 873.6,-160 879.6,-166 879.6,-172 879.6,-172 879.6,-184 879.6,-184 879.6,-190 873.6,-196 867.6,-196"/>
<text xml:space="preserve" text-anchor="middle" x="822" y="-175" font-family="Helvetica,sans-Serif" font-size="10.00">finset_sup&#39;_add_const</text>
</a>
</g>
</g>
<!-- n11 -->
<g id="node12" class="node">
<title>n11</title>
<g id="a_node12"><a xlink:href="vscode://vscode-remote/wsl+Ubuntu/home/gavin/statlib/Statlib/EmpiricalProcess/Dudley.lean:761" xlink:title="private lemma · Statlib/EmpiricalProcess/Dudley.lean:761" target="_blank">
<path fill="#eef2f6" stroke="#94a3b8" d="M386.82,-196C386.82,-196 301.18,-196 301.18,-196 295.18,-196 289.18,-190 289.18,-184 289.18,-184 289.18,-172 289.18,-172 289.18,-166 295.18,-160 301.18,-160 301.18,-160 386.82,-160 386.82,-160 392.82,-160 398.82,-166 398.82,-172 398.82,-172 398.82,-184 398.82,-184 398.82,-190 392.82,-196 386.82,-196"/>
<text xml:space="preserve" text-anchor="middle" x="344" y="-175" font-family="Helvetica,sans-Serif" font-size="10.00">finset_inf&#39;_add_const</text>
</a>
</g>
</g>
<!-- n12 -->
<g id="node13" class="node">
<title>n12</title>
<g id="a_node13"><a xlink:href="vscode://vscode-remote/wsl+Ubuntu/home/gavin/statlib/Statlib/EmpiricalProcess/Dudley.lean:720" xlink:title="private lemma · Statlib/EmpiricalProcess/Dudley.lean:720" target="_blank">
<path fill="#eef2f6" stroke="#94a3b8" d="M1018.49,-196C1018.49,-196 929.51,-196 929.51,-196 923.51,-196 917.51,-190 917.51,-184 917.51,-184 917.51,-172 917.51,-172 917.51,-166 923.51,-160 929.51,-160 929.51,-160 1018.49,-160 1018.49,-160 1024.49,-160 1030.49,-166 1030.49,-172 1030.49,-172 1030.49,-184 1030.49,-184 1030.49,-190 1024.49,-196 1018.49,-196"/>
<text xml:space="preserve" text-anchor="middle" x="974" y="-175" font-family="Helvetica,sans-Serif" font-size="10.00">integrable_finset_sup&#39;</text>
</a>
</g>
</g>
<!-- n13 -->
<g id="node14" class="node">
<title>n13</title>
<g id="a_node14"><a xlink:href="vscode://vscode-remote/wsl+Ubuntu/home/gavin/statlib/Statlib/EmpiricalProcess/Dudley.lean:736" xlink:title="private lemma · Statlib/EmpiricalProcess/Dudley.lean:736" target="_blank">
<path fill="#eef2f6" stroke="#94a3b8" d="M1143.71,-196C1143.71,-196 1060.29,-196 1060.29,-196 1054.29,-196 1048.29,-190 1048.29,-184 1048.29,-184 1048.29,-172 1048.29,-172 1048.29,-166 1054.29,-160 1060.29,-160 1060.29,-160 1143.71,-160 1143.71,-160 1149.71,-160 1155.71,-166 1155.71,-172 1155.71,-172 1155.71,-184 1155.71,-184 1155.71,-190 1149.71,-196 1143.71,-196"/>
<text xml:space="preserve" text-anchor="middle" x="1102" y="-175" font-family="Helvetica,sans-Serif" font-size="10.00">integrable_finset_inf&#39;</text>
</a>
</g>
</g>
<!-- n14 -->
<g id="node15" class="node">
<title>n14</title>
<g id="a_node15"><a xlink:href="vscode://vscode-remote/wsl+Ubuntu/home/gavin/statlib/Statlib/EmpiricalProcess/Dudley.lean:288" xlink:title="private lemma · Statlib/EmpiricalProcess/Dudley.lean:288" target="_blank">
<path fill="#eef2f6" stroke="#94a3b8" d="M588.61,-52C588.61,-52 445.39,-52 445.39,-52 439.39,-52 433.39,-46 433.39,-40 433.39,-40 433.39,-28 433.39,-28 433.39,-22 439.39,-16 445.39,-16 445.39,-16 588.61,-16 588.61,-16 594.61,-16 600.61,-22 600.61,-28 600.61,-28 600.61,-40 600.61,-40 600.61,-46 594.61,-52 588.61,-52"/>
<text xml:space="preserve" text-anchor="middle" x="517" y="-31" font-family="Helvetica,sans-Serif" font-size="10.00">lintegral_subgaussian_tail_ne_top</text>
</a>
</g>
</g>
<!-- n15 -->
<g id="node16" class="node">
<title>n15</title>
<g id="a_node16"><a xlink:href="vscode://vscode-remote/wsl+Ubuntu/home/gavin/statlib/Statlib/EmpiricalProcess/Dudley.lean:302" xlink:title="private lemma · Statlib/EmpiricalProcess/Dudley.lean:302" target="_blank">
<path fill="#eef2f6" stroke="#94a3b8" d="M403.77,-52C403.77,-52 262.23,-52 262.23,-52 256.23,-52 250.23,-46 250.23,-40 250.23,-40 250.23,-28 250.23,-28 250.23,-22 256.23,-16 262.23,-16 262.23,-16 403.77,-16 403.77,-16 409.77,-16 415.77,-22 415.77,-28 415.77,-28 415.77,-40 415.77,-40 415.77,-46 409.77,-52 403.77,-52"/>
<text xml:space="preserve" text-anchor="middle" x="333" y="-31" font-family="Helvetica,sans-Serif" font-size="10.00">lintegral_subgaussian_tail_toReal</text>
</a>
</g>
</g>
<!-- n16 -->
<g id="node17" class="node">
<title>n16</title>
<g id="a_node17"><a xlink:href="vscode://vscode-remote/wsl+Ubuntu/home/gavin/statlib/Statlib/EmpiricalProcess/Dudley.lean:345" xlink:title="theorem · Statlib/EmpiricalProcess/Dudley.lean:345" target="_blank">
<path fill="#ffe6a3" stroke="#d4a017" d="M476.84,-124C476.84,-124 309.16,-124 309.16,-124 303.16,-124 297.16,-118 297.16,-112 297.16,-112 297.16,-100 297.16,-100 297.16,-94 303.16,-88 309.16,-88 309.16,-88 476.84,-88 476.84,-88 482.84,-88 488.84,-94 488.84,-100 488.84,-100 488.84,-112 488.84,-112 488.84,-118 482.84,-124 476.84,-124"/>
<text xml:space="preserve" text-anchor="middle" x="393" y="-103" font-family="Helvetica,sans-Serif" font-size="10.00">expected_value_from_subgaussian_tail</text>
</a>
</g>
</g>
<!-- n16&#45;&gt;n14 -->
<g id="edge8" class="edge">
<title>n16&#45;&gt;n14</title>
<path fill="none" stroke="#64748b" d="M423.97,-87.52C440.67,-78.09 461.41,-66.38 479.07,-56.41"/>
<polygon fill="#64748b" stroke="#64748b" points="480.21,-58.58 485.11,-53 477.81,-54.31 480.21,-58.58"/>
</g>
<!-- n16&#45;&gt;n15 -->
<g id="edge9" class="edge">
<title>n16&#45;&gt;n15</title>
<path fill="none" stroke="#64748b" d="M378.17,-87.7C370.61,-78.88 361.31,-68.03 353.12,-58.47"/>
<polygon fill="#64748b" stroke="#64748b" points="355.06,-56.97 348.65,-53.25 351.34,-60.16 355.06,-56.97"/>
</g>
<!-- n17 -->
<g id="node18" class="node">
<title>n17</title>
<g id="a_node18"><a xlink:href="vscode://vscode-remote/wsl+Ubuntu/home/gavin/statlib/Statlib/EmpiricalProcess/Dudley.lean:773" xlink:title="lemma · Statlib/EmpiricalProcess/Dudley.lean:773" target="_blank">
<path fill="#eef2f6" stroke="#94a3b8" d="M1098.26,-124C1098.26,-124 1013.74,-124 1013.74,-124 1007.74,-124 1001.74,-118 1001.74,-112 1001.74,-112 1001.74,-100 1001.74,-100 1001.74,-94 1007.74,-88 1013.74,-88 1013.74,-88 1098.26,-88 1098.26,-88 1104.26,-88 1110.26,-94 1110.26,-100 1110.26,-100 1110.26,-112 1110.26,-112 1110.26,-118 1104.26,-124 1098.26,-124"/>
<text xml:space="preserve" text-anchor="middle" x="1056" y="-103" font-family="Helvetica,sans-Serif" font-size="10.00">sup&#39;_tail_le_sum_tail</text>
</a>
</g>
</g>
<!-- n18 -->
<g id="node19" class="node">
<title>n18</title>
<g id="a_node19"><a xlink:href="vscode://vscode-remote/wsl+Ubuntu/home/gavin/statlib/Statlib/EmpiricalProcess/Dudley.lean:626" xlink:title="theorem · Statlib/EmpiricalProcess/Dudley.lean:626" target="_blank">
<path fill="#ffe6a3" stroke="#d4a017" d="M841.96,-52C841.96,-52 766.04,-52 766.04,-52 760.04,-52 754.04,-46 754.04,-40 754.04,-40 754.04,-28 754.04,-28 754.04,-22 760.04,-16 766.04,-16 766.04,-16 841.96,-16 841.96,-16 847.96,-16 853.96,-22 853.96,-28 853.96,-28 853.96,-40 853.96,-40 853.96,-46 847.96,-52 841.96,-52"/>
<text xml:space="preserve" text-anchor="middle" x="804" y="-31" font-family="Helvetica,sans-Serif" font-size="10.00">chernoff_from_mgf</text>
</a>
</g>
</g>
<!-- n19 -->
<g id="node20" class="node">
<title>n19</title>
<g id="a_node20"><a xlink:href="vscode://vscode-remote/wsl+Ubuntu/home/gavin/statlib/Statlib/EmpiricalProcess/Dudley.lean:673" xlink:title="lemma · Statlib/EmpiricalProcess/Dudley.lean:673" target="_blank">
<path fill="#eef2f6" stroke="#94a3b8" d="M864.77,-124C864.77,-124 743.23,-124 743.23,-124 737.23,-124 731.23,-118 731.23,-112 731.23,-112 731.23,-100 731.23,-100 731.23,-94 737.23,-88 743.23,-88 743.23,-88 864.77,-88 864.77,-88 870.77,-88 876.77,-94 876.77,-100 876.77,-100 876.77,-112 876.77,-112 876.77,-118 870.77,-124 864.77,-124"/>
<text xml:space="preserve" text-anchor="middle" x="804" y="-103" font-family="Helvetica,sans-Serif" font-size="10.00">subgaussian_chernoff_single</text>
</a>
</g>
</g>
<!-- n19&#45;&gt;n0 -->
<g id="edge10" class="edge">
<title>n19&#45;&gt;n0</title>
<path fill="none" stroke="#64748b" d="M836.97,-87.52C854.9,-78.01 877.22,-66.17 896.12,-56.15"/>
<polygon fill="#64748b" stroke="#64748b" points="897.08,-58.41 902.11,-52.97 894.78,-54.08 897.08,-58.41"/>
</g>
<!-- n19&#45;&gt;n18 -->
<g id="edge11" class="edge">
<title>n19&#45;&gt;n18</title>
<path fill="none" stroke="#64748b" d="M804,-87.7C804,-79.47 804,-69.48 804,-60.42"/>
<polygon fill="#64748b" stroke="#64748b" points="806.45,-60.62 804,-53.62 801.55,-60.62 806.45,-60.62"/>
</g>
<!-- n20 -->
<g id="node21" class="node">
<title>n20</title>
<g id="a_node21"><a xlink:href="vscode://vscode-remote/wsl+Ubuntu/home/gavin/statlib/Statlib/EmpiricalProcess/Dudley.lean:819" xlink:title="lemma · Statlib/EmpiricalProcess/Dudley.lean:819" target="_blank">
<path fill="#eef2f6" stroke="#94a3b8" d="M734.73,-196C734.73,-196 611.27,-196 611.27,-196 605.27,-196 599.27,-190 599.27,-184 599.27,-184 599.27,-172 599.27,-172 599.27,-166 605.27,-160 611.27,-160 611.27,-160 734.73,-160 734.73,-160 740.73,-160 746.73,-166 746.73,-172 746.73,-172 746.73,-184 746.73,-184 746.73,-190 740.73,-196 734.73,-196"/>
<text xml:space="preserve" text-anchor="middle" x="673" y="-175" font-family="Helvetica,sans-Serif" font-size="10.00">subgaussian_sup&#39;_tail_bound</text>
</a>
</g>
</g>
<!-- n20&#45;&gt;n0 -->
<g id="edge12" class="edge">
<title>n20&#45;&gt;n0</title>
<path fill="none" stroke="#64748b" d="M747.04,-161.6C803.94,-149.26 874.67,-132.64 886,-124 907.06,-107.94 920.57,-80.31 928.17,-60.09"/>
<polygon fill="#64748b" stroke="#64748b" points="930.43,-61.04 930.47,-53.62 925.81,-59.4 930.43,-61.04"/>
</g>
<!-- n20&#45;&gt;n17 -->
<g id="edge13" class="edge">
<title>n20&#45;&gt;n17</title>
<path fill="none" stroke="#64748b" d="M747.18,-161.52C749.82,-161 752.43,-160.49 755,-160 837,-144.28 931.91,-127.87 992.89,-117.54"/>
<polygon fill="#64748b" stroke="#64748b" points="993.27,-119.96 999.77,-116.38 992.46,-115.13 993.27,-119.96"/>
</g>
<!-- n20&#45;&gt;n18 -->
<g id="edge14" class="edge">
<title>n20&#45;&gt;n18</title>
<path fill="none" stroke="#64748b" d="M682.51,-159.6C696.57,-133.9 721.31,-88.74 722,-88 733.42,-75.75 748.23,-65.06 762.12,-56.56"/>
<polygon fill="#64748b" stroke="#64748b" points="763.21,-58.76 767.98,-53.08 760.71,-54.55 763.21,-58.76"/>
</g>
<!-- n20&#45;&gt;n19 -->
<g id="edge15" class="edge">
<title>n20&#45;&gt;n19</title>
<path fill="none" stroke="#64748b" d="M705.72,-159.52C723.52,-150.01 745.66,-138.17 764.42,-128.15"/>
<polygon fill="#64748b" stroke="#64748b" points="765.34,-130.43 770.36,-124.97 763.03,-126.11 765.34,-130.43"/>
</g>
<!-- n21 -->
<g id="node22" class="node">
<title>n21</title>
<g id="a_node22"><a xlink:href="vscode://vscode-remote/wsl+Ubuntu/home/gavin/statlib/Statlib/EmpiricalProcess/Dudley.lean:791" xlink:title="lemma · Statlib/EmpiricalProcess/Dudley.lean:791" target="_blank">
<path fill="#eef2f6" stroke="#94a3b8" d="M680.6,-124C680.6,-124 579.4,-124 579.4,-124 573.4,-124 567.4,-118 567.4,-112 567.4,-112 567.4,-100 567.4,-100 567.4,-94 573.4,-88 579.4,-88 579.4,-88 680.6,-88 680.6,-88 686.6,-88 692.6,-94 692.6,-100 692.6,-100 692.6,-112 692.6,-112 692.6,-118 686.6,-124 680.6,-124"/>
<text xml:space="preserve" text-anchor="middle" x="630" y="-103" font-family="Helvetica,sans-Serif" font-size="10.00">neg_inf&#39;_tail_le_sum_tail</text>
</a>
</g>
</g>
<!-- n22 -->
<g id="node23" class="node">
<title>n22</title>
<g id="a_node23"><a xlink:href="vscode://vscode-remote/wsl+Ubuntu/home/gavin/statlib/Statlib/EmpiricalProcess/Dudley.lean:874" xlink:title="lemma · Statlib/EmpiricalProcess/Dudley.lean:874" target="_blank">
<path fill="#eef2f6" stroke="#94a3b8" d="M569.07,-196C569.07,-196 428.93,-196 428.93,-196 422.93,-196 416.93,-190 416.93,-184 416.93,-184 416.93,-172 416.93,-172 416.93,-166 422.93,-160 428.93,-160 428.93,-160 569.07,-160 569.07,-160 575.07,-160 581.07,-166 581.07,-172 581.07,-172 581.07,-184 581.07,-184 581.07,-190 575.07,-196 569.07,-196"/>
<text xml:space="preserve" text-anchor="middle" x="499" y="-175" font-family="Helvetica,sans-Serif" font-size="10.00">subgaussian_neg_inf&#39;_tail_bound</text>
</a>
</g>
</g>
<!-- n22&#45;&gt;n0 -->
<g id="edge16" class="edge">
<title>n22&#45;&gt;n0</title>
<path fill="none" stroke="#64748b" d="M510.32,-159.87C527.39,-134.06 557.77,-88.14 558,-88 616.13,-52.24 795.77,-63.76 863,-52 864.41,-51.75 865.83,-51.5 867.27,-51.23"/>
<polygon fill="#64748b" stroke="#64748b" points="867.67,-53.65 874.07,-49.91 866.73,-48.84 867.67,-53.65"/>
</g>
<!-- n22&#45;&gt;n18 -->
<g id="edge18" class="edge">
<title>n22&#45;&gt;n18</title>
<path fill="none" stroke="#64748b" d="M502.7,-159.67C508,-139.26 519.78,-105.87 543,-88 574.05,-64.1 678.4,-48.61 745.38,-40.88"/>
<polygon fill="#64748b" stroke="#64748b" points="745.57,-43.32 752.25,-40.1 745.02,-38.45 745.57,-43.32"/>
</g>
<!-- n22&#45;&gt;n19 -->
<g id="edge19" class="edge">
<title>n22&#45;&gt;n19</title>
<path fill="none" stroke="#64748b" d="M575.18,-159.52C620.12,-149.2 676.98,-136.15 722.77,-125.64"/>
<polygon fill="#64748b" stroke="#64748b" points="723.14,-128.07 729.42,-124.12 722.05,-123.3 723.14,-128.07"/>
</g>
<!-- n22&#45;&gt;n21 -->
<g id="edge17" class="edge">
<title>n22&#45;&gt;n21</title>
<path fill="none" stroke="#64748b" d="M531.72,-159.52C549.52,-150.01 571.66,-138.17 590.42,-128.15"/>
<polygon fill="#64748b" stroke="#64748b" points="591.34,-130.43 596.36,-124.97 589.03,-126.11 591.34,-130.43"/>
</g>
<!-- n23 -->
<g id="node24" class="node">
<title>n23</title>
<g id="a_node24"><a xlink:href="vscode://vscode-remote/wsl+Ubuntu/home/gavin/statlib/Statlib/EmpiricalProcess/Dudley.lean:939" xlink:title="theorem · Statlib/EmpiricalProcess/Dudley.lean:939" target="_blank">
<path fill="#ffe6a3" stroke="#d4a017" d="M736.27,-268C736.27,-268 609.73,-268 609.73,-268 603.73,-268 597.73,-262 597.73,-256 597.73,-256 597.73,-244 597.73,-244 597.73,-238 603.73,-232 609.73,-232 609.73,-232 736.27,-232 736.27,-232 742.27,-232 748.27,-238 748.27,-244 748.27,-244 748.27,-256 748.27,-256 748.27,-262 742.27,-268 736.27,-268"/>
<text xml:space="preserve" text-anchor="middle" x="673" y="-247" font-family="Helvetica,sans-Serif" font-size="10.00">hFiniteBound_of_subgaussian</text>
</a>
</g>
</g>
<!-- n23&#45;&gt;n0 -->
<g id="edge20" class="edge">
<title>n23&#45;&gt;n0</title>
<path fill="none" stroke="#64748b" d="M597.3,-244.09C488.99,-236.28 300.53,-219.49 280,-196 269.47,-183.95 269.65,-172.2 280,-160 343.53,-85.12 411.64,-170.76 498,-124 517.09,-113.67 511.63,-97.8 531,-88 663.43,-20.99 716.68,-76.88 863,-52 864.41,-51.76 865.84,-51.51 867.27,-51.25"/>
<polygon fill="#64748b" stroke="#64748b" points="867.66,-53.67 874.08,-49.95 866.74,-48.86 867.66,-53.67"/>
</g>
<!-- n23&#45;&gt;n10 -->
<g id="edge21" class="edge">
<title>n23&#45;&gt;n10</title>
<path fill="none" stroke="#64748b" d="M710.21,-231.52C730.56,-221.96 755.9,-210.05 777.31,-200"/>
<polygon fill="#64748b" stroke="#64748b" points="778.34,-202.22 783.63,-197.03 776.25,-197.78 778.34,-202.22"/>
</g>
<!-- n23&#45;&gt;n11 -->
<g id="edge22" class="edge">
<title>n23&#45;&gt;n11</title>
<path fill="none" stroke="#64748b" d="M597.34,-235.17C544.19,-225.13 471.52,-210.77 408,-196 407.73,-195.94 407.45,-195.87 407.18,-195.81"/>
<polygon fill="#64748b" stroke="#64748b" points="407.95,-193.47 400.58,-194.22 406.81,-198.24 407.95,-193.47"/>
</g>
<!-- n23&#45;&gt;n12 -->
<g id="edge23" class="edge">
<title>n23&#45;&gt;n12</title>
<path fill="none" stroke="#64748b" d="M748.18,-231.52C797.73,-219.99 861.95,-205.06 909.23,-194.06"/>
<polygon fill="#64748b" stroke="#64748b" points="909.52,-196.51 915.78,-192.54 908.41,-191.74 909.52,-196.51"/>
</g>
<!-- n23&#45;&gt;n13 -->
<g id="edge24" class="edge">
<title>n23&#45;&gt;n13</title>
<path fill="none" stroke="#64748b" d="M748.46,-233.79C752.02,-233.16 755.55,-232.56 759,-232 882.84,-211.82 915.93,-220.4 1039,-196 1039.18,-195.96 1039.36,-195.93 1039.54,-195.89"/>
<polygon fill="#64748b" stroke="#64748b" points="1040,-198.3 1046.33,-194.44 1038.98,-193.51 1040,-198.3"/>
</g>
<!-- n23&#45;&gt;n16 -->
<g id="edge25" class="edge">
<title>n23&#45;&gt;n16</title>
<path fill="none" stroke="#64748b" d="M597.37,-241.76C482.43,-230.38 275.86,-208.36 265,-196 254.44,-183.98 256.11,-173.3 265,-160 274.42,-145.91 288.35,-135.56 303.6,-127.96"/>
<polygon fill="#64748b" stroke="#64748b" points="304.48,-130.25 309.8,-125.08 302.42,-125.8 304.48,-130.25"/>
</g>
<!-- n23&#45;&gt;n20 -->
<g id="edge26" class="edge">
<title>n23&#45;&gt;n20</title>
<path fill="none" stroke="#64748b" d="M673,-231.7C673,-223.47 673,-213.48 673,-204.42"/>
<polygon fill="#64748b" stroke="#64748b" points="675.45,-204.62 673,-197.62 670.55,-204.62 675.45,-204.62"/>
</g>
<!-- n23&#45;&gt;n22 -->
<g id="edge27" class="edge">
<title>n23&#45;&gt;n22</title>
<path fill="none" stroke="#64748b" d="M629.54,-231.52C605.37,-221.79 575.15,-209.64 549.88,-199.47"/>
<polygon fill="#64748b" stroke="#64748b" points="551.02,-197.29 543.61,-196.95 549.19,-201.83 551.02,-197.29"/>
</g>
<!-- n24 -->
<g id="node25" class="node">
<title>n24</title>
<g id="a_node25"><a xlink:href="vscode://vscode-remote/wsl+Ubuntu/home/gavin/statlib/Statlib/EmpiricalProcess/Dudley.lean:483" xlink:title="theorem · Statlib/EmpiricalProcess/Dudley.lean:483" target="_blank">
<path fill="#ffe6a3" stroke="#d4a017" d="M1384.12,-196C1384.12,-196 1185.88,-196 1185.88,-196 1179.88,-196 1173.88,-190 1173.88,-184 1173.88,-184 1173.88,-172 1173.88,-172 1173.88,-166 1179.88,-160 1185.88,-160 1185.88,-160 1384.12,-160 1384.12,-160 1390.12,-160 1396.12,-166 1396.12,-172 1396.12,-172 1396.12,-184 1396.12,-184 1396.12,-190 1390.12,-196 1384.12,-196"/>
<text xml:space="preserve" text-anchor="middle" x="1285" y="-175" font-family="Helvetica,sans-Serif" font-size="10.00">sharp_expected_value_from_subgaussian_tail</text>
</a>
</g>
</g>
<!-- n24&#45;&gt;n16 -->
<g id="edge28" class="edge">
<title>n24&#45;&gt;n16</title>
<path fill="none" stroke="#64748b" d="M1173.57,-160.9C1170.69,-160.58 1167.83,-160.28 1165,-160 896.1,-133.02 827.37,-145.85 558,-124 538.32,-122.4 517.35,-120.44 497.19,-118.43"/>
<polygon fill="#64748b" stroke="#64748b" points="497.63,-116.01 490.42,-117.74 497.13,-120.88 497.63,-116.01"/>
</g>
<!-- n25 -->
<g id="node26" class="node">
<title>n25</title>
<g id="a_node26"><a xlink:href="vscode://vscode-remote/wsl+Ubuntu/home/gavin/statlib/Statlib/EmpiricalProcess/Dudley.lean:1042" xlink:title="theorem · Statlib/EmpiricalProcess/Dudley.lean:1042" target="_blank">
<path fill="#ffe6a3" stroke="#d4a017" d="M937.56,-268C937.56,-268 780.44,-268 780.44,-268 774.44,-268 768.44,-262 768.44,-256 768.44,-256 768.44,-244 768.44,-244 768.44,-238 774.44,-232 780.44,-232 780.44,-232 937.56,-232 937.56,-232 943.56,-232 949.56,-238 949.56,-244 949.56,-244 949.56,-256 949.56,-256 949.56,-262 943.56,-268 937.56,-268"/>
<text xml:space="preserve" text-anchor="middle" x="859" y="-247" font-family="Helvetica,sans-Serif" font-size="10.00">sharp_hFiniteBound_of_subgaussian</text>
</a>
</g>
</g>
<!-- n25&#45;&gt;n0 -->
<g id="edge29" class="edge">
<title>n25&#45;&gt;n0</title>
<path fill="none" stroke="#64748b" d="M870.05,-231.85C876.24,-221.72 883.74,-208.47 889,-196 908.55,-149.71 923.1,-92.66 930.51,-60.4"/>
<polygon fill="#64748b" stroke="#64748b" points="932.84,-61.21 931.99,-53.85 928.06,-60.13 932.84,-61.21"/>
</g>
<!-- n25&#45;&gt;n10 -->
<g id="edge32" class="edge">
<title>n25&#45;&gt;n10</title>
<path fill="none" stroke="#64748b" d="M849.85,-231.7C845.37,-223.22 839.9,-212.86 834.99,-203.58"/>
<polygon fill="#64748b" stroke="#64748b" points="837.19,-202.49 831.75,-197.44 832.85,-204.78 837.19,-202.49"/>
</g>
<!-- n25&#45;&gt;n11 -->
<g id="edge33" class="edge">
<title>n25&#45;&gt;n11</title>
<path fill="none" stroke="#64748b" d="M768.12,-233.56C764.36,-233.01 760.65,-232.49 757,-232 602.46,-211.17 561.38,-224.1 408,-196 407.72,-195.95 407.45,-195.9 407.17,-195.85"/>
<polygon fill="#64748b" stroke="#64748b" points="407.86,-193.49 400.52,-194.5 406.89,-198.29 407.86,-193.49"/>
</g>
<!-- n25&#45;&gt;n12 -->
<g id="edge30" class="edge">
<title>n25&#45;&gt;n12</title>
<path fill="none" stroke="#64748b" d="M887.72,-231.52C903.07,-222.18 922.1,-210.59 938.38,-200.68"/>
<polygon fill="#64748b" stroke="#64748b" points="939.64,-202.78 944.35,-197.05 937.1,-198.59 939.64,-202.78"/>
</g>
<!-- n25&#45;&gt;n13 -->
<g id="edge31" class="edge">
<title>n25&#45;&gt;n13</title>
<path fill="none" stroke="#64748b" d="M919.69,-231.52C956.44,-220.93 1003.19,-207.46 1040.14,-196.82"/>
<polygon fill="#64748b" stroke="#64748b" points="1040.37,-199.3 1046.42,-195.01 1039.01,-194.59 1040.37,-199.3"/>
</g>
<!-- n25&#45;&gt;n20 -->
<g id="edge35" class="edge">
<title>n25&#45;&gt;n20</title>
<path fill="none" stroke="#64748b" d="M812.54,-231.52C786.59,-221.75 754.12,-209.53 727.04,-199.34"/>
<polygon fill="#64748b" stroke="#64748b" points="728.02,-197.09 720.6,-196.91 726.29,-201.67 728.02,-197.09"/>
</g>
<!-- n25&#45;&gt;n22 -->
<g id="edge36" class="edge">
<title>n25&#45;&gt;n22</title>
<path fill="none" stroke="#64748b" d="M769.09,-231.52C714.31,-220.87 644.55,-207.3 589.64,-196.62"/>
<polygon fill="#64748b" stroke="#64748b" points="590.13,-194.22 582.79,-195.29 589.2,-199.03 590.13,-194.22"/>
</g>
<!-- n25&#45;&gt;n24 -->
<g id="edge34" class="edge">
<title>n25&#45;&gt;n24</title>
<path fill="none" stroke="#64748b" d="M949.87,-234.07C1014.32,-223.48 1101.31,-209.18 1170.52,-197.81"/>
<polygon fill="#64748b" stroke="#64748b" points="1170.86,-200.24 1177.37,-196.69 1170.07,-195.4 1170.86,-200.24"/>
</g>
<!-- n26 -->
<g id="node27" class="node">
<title>n26</title>
<g id="a_node27"><a xlink:href="vscode://vscode-remote/wsl+Ubuntu/home/gavin/statlib/Statlib/EmpiricalProcess/Dudley.lean:1211" xlink:title="theorem · Statlib/EmpiricalProcess/Dudley.lean:1211" target="_blank">
<path fill="#ffe6a3" stroke="#d4a017" d="M1635.97,-196C1635.97,-196 1560.03,-196 1560.03,-196 1554.03,-196 1548.03,-190 1548.03,-184 1548.03,-184 1548.03,-172 1548.03,-172 1548.03,-166 1554.03,-160 1560.03,-160 1560.03,-160 1635.97,-160 1635.97,-160 1641.97,-160 1647.97,-166 1647.97,-172 1647.97,-172 1647.97,-184 1647.97,-184 1647.97,-190 1641.97,-196 1635.97,-196"/>
<text xml:space="preserve" text-anchor="middle" x="1598" y="-175" font-family="Helvetica,sans-Serif" font-size="10.00">increment_sup_tail</text>
</a>
</g>
</g>
<!-- n26&#45;&gt;n0 -->
<g id="edge37" class="edge">
<title>n26&#45;&gt;n0</title>
<path fill="none" stroke="#64748b" d="M1547.85,-162.31C1544.86,-161.51 1541.89,-160.73 1539,-160 1346.87,-111.42 1116.83,-67.65 1004.51,-47.2"/>
<polygon fill="#64748b" stroke="#64748b" points="1005.12,-44.82 997.79,-45.98 1004.24,-49.64 1005.12,-44.82"/>
</g>
<!-- n26&#45;&gt;n17 -->
<g id="edge38" class="edge">
<title>n26&#45;&gt;n17</title>
<path fill="none" stroke="#64748b" d="M1547.61,-161.87C1544.71,-161.19 1541.82,-160.56 1539,-160 1528.79,-157.98 1247.1,-127.56 1118.7,-113.74"/>
<polygon fill="#64748b" stroke="#64748b" points="1119.2,-111.33 1111.98,-113.02 1118.67,-116.2 1119.2,-111.33"/>
</g>
<!-- n26&#45;&gt;n18 -->
<g id="edge39" class="edge">
<title>n26&#45;&gt;n18</title>
<path fill="none" stroke="#64748b" d="M1547.61,-161.88C1544.71,-161.2 1541.82,-160.56 1539,-160 1401.69,-132.52 1362.67,-154.49 1226,-124 1177.03,-113.07 1167.82,-99.6 1119,-88 1008.93,-61.85 977.82,-74.78 867,-52 865.46,-51.68 863.9,-51.35 862.33,-51.01"/>
<polygon fill="#64748b" stroke="#64748b" points="863.26,-48.71 855.89,-49.52 862.17,-53.48 863.26,-48.71"/>
</g>
<!-- n26&#45;&gt;n19 -->
<g id="edge40" class="edge">
<title>n26&#45;&gt;n19</title>
<path fill="none" stroke="#64748b" d="M1547.64,-161.72C1544.73,-161.08 1541.84,-160.5 1539,-160 1299.44,-118.09 1235.46,-142.89 993,-124 957.72,-121.25 918.78,-117.82 885.46,-114.76"/>
<polygon fill="#64748b" stroke="#64748b" points="885.82,-112.33 878.62,-114.13 885.37,-117.21 885.82,-112.33"/>
</g>
<!-- n27 -->
<g id="node28" class="node">
<title>n27</title>
<g id="a_node28"><a xlink:href="vscode://vscode-remote/wsl+Ubuntu/home/gavin/statlib/Statlib/EmpiricalProcess/Dudley.lean:1250" xlink:title="theorem · Statlib/EmpiricalProcess/Dudley.lean:1250" target="_blank">
<path fill="#ffe6a3" stroke="#d4a017" d="M1518.31,-196C1518.31,-196 1425.69,-196 1425.69,-196 1419.69,-196 1413.69,-190 1413.69,-184 1413.69,-184 1413.69,-172 1413.69,-172 1413.69,-166 1419.69,-160 1425.69,-160 1425.69,-160 1518.31,-160 1518.31,-160 1524.31,-160 1530.31,-166 1530.31,-172 1530.31,-172 1530.31,-184 1530.31,-184 1530.31,-190 1524.31,-196 1518.31,-196"/>
<text xml:space="preserve" text-anchor="middle" x="1472" y="-175" font-family="Helvetica,sans-Serif" font-size="10.00">increment_neg_inf_tail</text>
</a>
</g>
</g>
<!-- n27&#45;&gt;n0 -->
<g id="edge41" class="edge">
<title>n27&#45;&gt;n0</title>
<path fill="none" stroke="#64748b" d="M1413.36,-161.47C1313.42,-134.99 1110.62,-81.26 1004.39,-53.12"/>
<polygon fill="#64748b" stroke="#64748b" points="1005.15,-50.78 997.75,-51.36 1003.89,-55.52 1005.15,-50.78"/>
</g>
<!-- n27&#45;&gt;n18 -->
<g id="edge43" class="edge">
<title>n27&#45;&gt;n18</title>
<path fill="none" stroke="#64748b" d="M1413.29,-161.53C1410.49,-160.98 1407.72,-160.46 1405,-160 1223.77,-129.3 1170.46,-171.9 993,-124 936.7,-108.8 876.57,-77.59 839.63,-56.47"/>
<polygon fill="#64748b" stroke="#64748b" points="841.15,-54.52 833.86,-53.15 838.7,-58.77 841.15,-54.52"/>
</g>
<!-- n27&#45;&gt;n19 -->
<g id="edge44" class="edge">
<title>n27&#45;&gt;n19</title>
<path fill="none" stroke="#64748b" d="M1413.3,-161.47C1410.5,-160.93 1407.73,-160.44 1405,-160 1178.89,-123.69 1118.03,-154.02 891,-124 889.14,-123.75 887.26,-123.49 885.37,-123.22"/>
<polygon fill="#64748b" stroke="#64748b" points="885.78,-120.8 878.49,-122.17 885.04,-125.65 885.78,-120.8"/>
</g>
<!-- n27&#45;&gt;n21 -->
<g id="edge42" class="edge">
<title>n27&#45;&gt;n21</title>
<path fill="none" stroke="#64748b" d="M1413.31,-161.42C1410.51,-160.89 1407.73,-160.41 1405,-160 1104.46,-114.4 1023.87,-159.69 722,-124 715.16,-123.19 708.06,-122.18 700.98,-121.07"/>
<polygon fill="#64748b" stroke="#64748b" points="701.48,-118.67 694.18,-119.95 700.69,-123.5 701.48,-118.67"/>
</g>
<!-- n28 -->
<g id="node29" class="node">
<title>n28</title>
<g id="a_node29"><a xlink:href="vscode://vscode-remote/wsl+Ubuntu/home/gavin/statlib/Statlib/EmpiricalProcess/Dudley.lean:1299" xlink:title="theorem · Statlib/EmpiricalProcess/Dudley.lean:1299" target="_blank">
<path fill="#ffe6a3" stroke="#d4a017" d="M1335.21,-268C1335.21,-268 1234.79,-268 1234.79,-268 1228.79,-268 1222.79,-262 1222.79,-256 1222.79,-256 1222.79,-244 1222.79,-244 1222.79,-238 1228.79,-232 1234.79,-232 1234.79,-232 1335.21,-232 1335.21,-232 1341.21,-232 1347.21,-238 1347.21,-244 1347.21,-244 1347.21,-256 1347.21,-256 1347.21,-262 1341.21,-268 1335.21,-268"/>
<text xml:space="preserve" text-anchor="middle" x="1285" y="-247" font-family="Helvetica,sans-Serif" font-size="10.00">increment_range_bound</text>
</a>
</g>
</g>
<!-- n28&#45;&gt;n0 -->
<g id="edge45" class="edge">
<title>n28&#45;&gt;n0</title>
<path fill="none" stroke="#64748b" d="M1347.39,-249.54C1442.7,-248.88 1617.67,-241.33 1657,-196 1667.49,-183.91 1667.11,-172.4 1657,-160 1575.32,-59.86 1168.13,-39.94 1004.37,-35.98"/>
<polygon fill="#64748b" stroke="#64748b" points="1004.85,-33.54 997.8,-35.83 1004.74,-38.44 1004.85,-33.54"/>
</g>
<!-- n28&#45;&gt;n12 -->
<g id="edge46" class="edge">
<title>n28&#45;&gt;n12</title>
<path fill="none" stroke="#64748b" d="M1222.4,-236.3C1172.58,-226 1101.15,-210.82 1039,-196 1038.91,-195.98 1038.83,-195.96 1038.74,-195.94"/>
<polygon fill="#64748b" stroke="#64748b" points="1039.54,-193.61 1032.15,-194.34 1038.38,-198.37 1039.54,-193.61"/>
</g>
<!-- n28&#45;&gt;n13 -->
<g id="edge47" class="edge">
<title>n28&#45;&gt;n13</title>
<path fill="none" stroke="#64748b" d="M1239.29,-231.52C1213.76,-221.75 1181.82,-209.53 1155.17,-199.34"/>
<polygon fill="#64748b" stroke="#64748b" points="1156.27,-197.14 1148.85,-196.92 1154.52,-201.71 1156.27,-197.14"/>
</g>
<!-- n28&#45;&gt;n24 -->
<g id="edge48" class="edge">
<title>n28&#45;&gt;n24</title>
<path fill="none" stroke="#64748b" d="M1285,-231.7C1285,-223.47 1285,-213.48 1285,-204.42"/>
<polygon fill="#64748b" stroke="#64748b" points="1287.45,-204.62 1285,-197.62 1282.55,-204.62 1287.45,-204.62"/>
</g>
<!-- n28&#45;&gt;n26 -->
<g id="edge49" class="edge">
<title>n28&#45;&gt;n26</title>
<path fill="none" stroke="#64748b" d="M1347.67,-237.28C1399.26,-227.31 1474.18,-212.08 1539,-196 1539.17,-195.96 1539.35,-195.91 1539.52,-195.87"/>
<polygon fill="#64748b" stroke="#64748b" points="1539.9,-198.3 1546.07,-194.19 1538.68,-193.56 1539.9,-198.3"/>
</g>
<!-- n28&#45;&gt;n27 -->
<g id="edge50" class="edge">
<title>n28&#45;&gt;n27</title>
<path fill="none" stroke="#64748b" d="M1331.71,-231.52C1357.8,-221.75 1390.44,-209.53 1417.67,-199.34"/>
<polygon fill="#64748b" stroke="#64748b" points="1418.45,-201.66 1424.15,-196.91 1416.73,-197.07 1418.45,-201.66"/>
</g>
<!-- n29 -->
<g id="node30" class="node">
<title>n29</title>
<g id="a_node30"><a xlink:href="vscode://vscode-remote/wsl+Ubuntu/home/gavin/statlib/Statlib/EmpiricalProcess/Dudley.lean:1388" xlink:title="theorem · Statlib/EmpiricalProcess/Dudley.lean:1388" target="_blank">
<path fill="#ffe6a3" stroke="#d4a017" stroke-width="3" d="M904.48,-340C904.48,-340 813.52,-340 813.52,-340 807.52,-340 801.52,-334 801.52,-328 801.52,-328 801.52,-316 801.52,-316 801.52,-310 807.52,-304 813.52,-304 813.52,-304 904.48,-304 904.48,-304 910.48,-304 916.48,-310 916.48,-316 916.48,-316 916.48,-328 916.48,-328 916.48,-334 910.48,-340 904.48,-340"/>
<text xml:space="preserve" text-anchor="middle" x="859" y="-319" font-family="Helvetica,sans-Serif" font-size="10.00">dudley_finite_chaining</text>
</a>
</g>
</g>
<!-- n29&#45;&gt;n0 -->
<g id="edge51" class="edge">
<title>n29&#45;&gt;n0</title>
<path fill="none" stroke="#64748b" d="M917.92,-321.63C1087.96,-322.04 1573.24,-312.77 1666,-196 1722.31,-125.11 1605.86,-104.26 1560,-88 1459.15,-52.25 1144.5,-40.14 1004.44,-36.46"/>
<polygon fill="#64748b" stroke="#64748b" points="1004.85,-34.02 997.79,-36.28 1004.72,-38.91 1004.85,-34.02"/>
</g>
<!-- n29&#45;&gt;n1 -->
<g id="edge52" class="edge">
<title>n29&#45;&gt;n1</title>
<path fill="none" stroke="#64748b" d="M800.45,-318.38C682.93,-312.56 422.32,-296.79 338,-268 294.12,-253.02 249.74,-222.45 222.31,-201.35"/>
<polygon fill="#64748b" stroke="#64748b" points="223.93,-199.51 216.9,-197.14 220.92,-203.38 223.93,-199.51"/>
</g>
<!-- n29&#45;&gt;n8 -->
<g id="edge53" class="edge">
<title>n29&#45;&gt;n8</title>
<path fill="none" stroke="#64748b" d="M800.17,-317.62C692.07,-311.01 454.68,-294.64 256,-268 249.76,-267.16 243.3,-266.2 236.83,-265.17"/>
<polygon fill="#64748b" stroke="#64748b" points="237.44,-262.78 230.13,-264.07 236.64,-267.62 237.44,-262.78"/>
</g>
<!-- n29&#45;&gt;n9 -->
<g id="edge54" class="edge">
<title>n29&#45;&gt;n9</title>
<path fill="none" stroke="#64748b" d="M800.02,-312.06C711.17,-298.6 544.01,-273.27 455.47,-259.86"/>
<polygon fill="#64748b" stroke="#64748b" points="455.94,-257.45 448.65,-258.83 455.2,-262.3 455.94,-257.45"/>
</g>
<!-- n29&#45;&gt;n12 -->
<g id="edge56" class="edge">
<title>n29&#45;&gt;n12</title>
<path fill="none" stroke="#64748b" d="M914.68,-302.57C931.31,-294.45 948.02,-283.22 959,-268 972.2,-249.71 975.3,-223.85 975.48,-204.71"/>
<polygon fill="#64748b" stroke="#64748b" points="977.93,-204.93 975.4,-197.96 973.03,-204.99 977.93,-204.93"/>
</g>
<!-- n29&#45;&gt;n13 -->
<g id="edge57" class="edge">
<title>n29&#45;&gt;n13</title>
<path fill="none" stroke="#64748b" d="M902.07,-302.51C923.23,-292.95 948.87,-280.65 971,-268 1007.15,-247.33 1046.38,-219.96 1072.39,-201.06"/>
<polygon fill="#64748b" stroke="#64748b" points="1073.61,-203.21 1077.82,-197.1 1070.72,-199.25 1073.61,-203.21"/>
</g>
<!-- n29&#45;&gt;n23 -->
<g id="edge55" class="edge">
<title>n29&#45;&gt;n23</title>
<path fill="none" stroke="#64748b" d="M810.13,-302.61C784.67,-293.03 753.47,-281.28 727.26,-271.42"/>
<polygon fill="#64748b" stroke="#64748b" points="728.13,-269.13 720.72,-268.96 726.41,-273.72 728.13,-269.13"/>
</g>
<!-- n29&#45;&gt;n25 -->
<g id="edge58" class="edge">
<title>n29&#45;&gt;n25</title>
<path fill="none" stroke="#64748b" d="M859,-302.61C859,-294.59 859,-285.05 859,-276.37"/>
<polygon fill="#64748b" stroke="#64748b" points="861.45,-276.58 859,-269.58 856.55,-276.58 861.45,-276.58"/>
</g>
<!-- n29&#45;&gt;n28 -->
<g id="edge59" class="edge">
<title>n29&#45;&gt;n28</title>
<path fill="none" stroke="#64748b" d="M917.79,-311.34C995.13,-298.63 1130.95,-276.31 1213.96,-262.67"/>
<polygon fill="#64748b" stroke="#64748b" points="1214.32,-265.1 1220.83,-261.54 1213.52,-260.26 1214.32,-265.1"/>
</g>
</g>
</svg>
