<?xml version="1.0" encoding="UTF-8" standalone="no"?>
<!DOCTYPE svg PUBLIC "-//W3C//DTD SVG 1.1//EN"
 "http://www.w3.org/Graphics/SVG/1.1/DTD/svg11.dtd">
<!-- Generated by graphviz version 15.0.0 (20260523.1842)
 -->
<!-- Title: causalEffectMap_identification Pages: 1 -->
<svg width="748pt" height="338pt"
 viewBox="0.00 0.00 748.00 338.00" xmlns="http://www.w3.org/2000/svg" xmlns:xlink="http://www.w3.org/1999/xlink">
<g id="graph0" class="graph" transform="scale(1 1) rotate(0) translate(4 334)">
<title>causalEffectMap_identification</title>
<polygon fill="white" stroke="none" points="-4,4 -4,-334 744,-334 744,4 -4,4"/>
<text xml:space="preserve" text-anchor="middle" x="370" y="-313.4" font-family="Helvetica,sans-Serif" font-size="14.00">Proof narrative — causalEffectMap_identification &#160;(11 decls)</text>
<g id="clust1" class="cluster">
<title>cluster_0</title>
<path fill="none" stroke="#cbd5e1" stroke-dasharray="5,2" d="M20,-8C20,-8 720,-8 720,-8 726,-8 732,-14 732,-20 732,-20 732,-285.2 732,-285.2 732,-291.2 726,-297.2 720,-297.2 720,-297.2 20,-297.2 20,-297.2 14,-297.2 8,-291.2 8,-285.2 8,-285.2 8,-20 8,-20 8,-14 14,-8 20,-8"/>
<text xml:space="preserve" text-anchor="middle" x="370" y="-283.3" font-family="Helvetica,sans-Serif" font-size="11.00">Causal</text>
</g>
<!-- n0 -->
<g id="node1" class="node">
<title>n0</title>
<g id="a_node1"><a xlink:href="vscode://vscode-remote/wsl+Ubuntu/home/gavin/statlib/Statlib/Causal/Basic.lean:32" xlink:title="structure · Statlib/Causal/Basic.lean:32" target="_blank">
<path fill="#e8dcff" stroke="#8b5cf6" d="M78.18,-196C78.18,-196 27.82,-196 27.82,-196 21.82,-196 15.82,-190 15.82,-184 15.82,-184 15.82,-172 15.82,-172 15.82,-166 21.82,-160 27.82,-160 27.82,-160 78.18,-160 78.18,-160 84.18,-160 90.18,-166 90.18,-172 90.18,-172 90.18,-184 90.18,-184 90.18,-190 84.18,-196 78.18,-196"/>
<text xml:space="preserve" text-anchor="middle" x="53" y="-175" font-family="Helvetica,sans-Serif" font-size="10.00">CausalModel</text>
</a>
</g>
</g>
<!-- n1 -->
<g id="node2" class="node">
<title>n1</title>
<g id="a_node2"><a xlink:href="vscode://vscode-remote/wsl+Ubuntu/home/gavin/statlib/Statlib/Causal/Basic.lean:61" xlink:title="def · Statlib/Causal/Basic.lean:61" target="_blank">
<path fill="#d6e9ff" stroke="#3b82f6" d="M157,-52C157,-52 127,-52 127,-52 121,-52 115,-46 115,-40 115,-40 115,-28 115,-28 115,-22 121,-16 127,-16 127,-16 157,-16 157,-16 163,-16 169,-22 169,-28 169,-28 169,-40 169,-40 169,-46 163,-52 157,-52"/>
<text xml:space="preserve" text-anchor="middle" x="142" y="-31" font-family="Helvetica,sans-Serif" font-size="10.00">sigmaX</text>
</a>
</g>
</g>
<!-- n2 -->
<g id="node3" class="node">
<title>n2</title>
<g id="a_node3"><a xlink:href="vscode://vscode-remote/wsl+Ubuntu/home/gavin/statlib/Statlib/Causal/Basic.lean:65" xlink:title="theorem · Statlib/Causal/Basic.lean:65" target="_blank">
<path fill="#ffe6a3" stroke="#d4a017" d="M161.34,-124C161.34,-124 122.66,-124 122.66,-124 116.66,-124 110.66,-118 110.66,-112 110.66,-112 110.66,-100 110.66,-100 110.66,-94 116.66,-88 122.66,-88 122.66,-88 161.34,-88 161.34,-88 167.34,-88 173.34,-94 173.34,-100 173.34,-100 173.34,-112 173.34,-112 173.34,-118 167.34,-124 161.34,-124"/>
<text xml:space="preserve" text-anchor="middle" x="142" y="-103" font-family="Helvetica,sans-Serif" font-size="10.00">sigmaX_le</text>
</a>
</g>
</g>
<!-- n2&#45;&gt;n1 -->
<g id="edge1" class="edge">
<title>n2&#45;&gt;n1</title>
<path fill="none" stroke="#64748b" d="M142,-87.7C142,-79.47 142,-69.48 142,-60.42"/>
<polygon fill="#64748b" stroke="#64748b" points="144.45,-60.62 142,-53.62 139.55,-60.62 144.45,-60.62"/>
</g>
<!-- n3 -->
<g id="node4" class="node">
<title>n3</title>
<g id="a_node4"><a xlink:href="vscode://vscode-remote/wsl+Ubuntu/home/gavin/statlib/Statlib/Causal/Basic.lean:75" xlink:title="def · Statlib/Causal/Basic.lean:75" target="_blank">
<path fill="#d6e9ff" stroke="#3b82f6" d="M160.18,-196C160.18,-196 119.82,-196 119.82,-196 113.82,-196 107.82,-190 107.82,-184 107.82,-184 107.82,-172 107.82,-172 107.82,-166 113.82,-160 119.82,-160 119.82,-160 160.18,-160 160.18,-160 166.18,-160 172.18,-166 172.18,-172 172.18,-172 172.18,-184 172.18,-184 172.18,-190 166.18,-196 160.18,-196"/>
<text xml:space="preserve" text-anchor="middle" x="140" y="-175" font-family="Helvetica,sans-Serif" font-size="10.00">Ignorability</text>
</a>
</g>
</g>
<!-- n3&#45;&gt;n1 -->
<g id="edge2" class="edge">
<title>n3&#45;&gt;n1</title>
<path fill="none" stroke="#64748b" d="M123.54,-159.92C115.35,-150.22 106.3,-137.37 102,-124 97.1,-108.77 96.92,-103.17 102,-88 105.53,-77.48 112.06,-67.37 118.83,-58.86"/>
<polygon fill="#64748b" stroke="#64748b" points="120.66,-60.49 123.29,-53.56 116.91,-57.34 120.66,-60.49"/>
</g>
<!-- n3&#45;&gt;n2 -->
<g id="edge3" class="edge">
<title>n3&#45;&gt;n2</title>
<path fill="none" stroke="#64748b" d="M140.49,-159.7C140.73,-151.47 141.01,-141.48 141.27,-132.42"/>
<polygon fill="#64748b" stroke="#64748b" points="143.72,-132.68 141.47,-125.62 138.82,-132.54 143.72,-132.68"/>
</g>
<!-- n4 -->
<g id="node5" class="node">
<title>n4</title>
<g id="a_node5"><a xlink:href="vscode://vscode-remote/wsl+Ubuntu/home/gavin/statlib/Statlib/Causal/Basic.lean:86" xlink:title="noncomputable def · Statlib/Causal/Basic.lean:86" target="_blank">
<path fill="#d6e9ff" stroke="#3b82f6" d="M267.13,-124C267.13,-124 202.87,-124 202.87,-124 196.87,-124 190.87,-118 190.87,-112 190.87,-112 190.87,-100 190.87,-100 190.87,-94 196.87,-88 202.87,-88 202.87,-88 267.13,-88 267.13,-88 273.13,-88 279.13,-94 279.13,-100 279.13,-100 279.13,-112 279.13,-112 279.13,-118 273.13,-124 267.13,-124"/>
<text xml:space="preserve" text-anchor="middle" x="235" y="-103" font-family="Helvetica,sans-Serif" font-size="10.00">propensityScore</text>
</a>
</g>
</g>
<!-- n4&#45;&gt;n1 -->
<g id="edge4" class="edge">
<title>n4&#45;&gt;n1</title>
<path fill="none" stroke="#64748b" d="M212.01,-87.7C199.83,-78.53 184.72,-67.16 171.66,-57.33"/>
<polygon fill="#64748b" stroke="#64748b" points="173.32,-55.51 166.26,-53.26 170.38,-59.42 173.32,-55.51"/>
</g>
<!-- n5 -->
<g id="node6" class="node">
<title>n5</title>
<g id="a_node6"><a xlink:href="vscode://vscode-remote/wsl+Ubuntu/home/gavin/statlib/Statlib/Causal/Basic.lean:95" xlink:title="def · Statlib/Causal/Basic.lean:95" target="_blank">
<path fill="#d6e9ff" stroke="#3b82f6" d="M253.73,-196C253.73,-196 222.27,-196 222.27,-196 216.27,-196 210.27,-190 210.27,-184 210.27,-184 210.27,-172 210.27,-172 210.27,-166 216.27,-160 222.27,-160 222.27,-160 253.73,-160 253.73,-160 259.73,-160 265.73,-166 265.73,-172 265.73,-172 265.73,-184 265.73,-184 265.73,-190 259.73,-196 253.73,-196"/>
<text xml:space="preserve" text-anchor="middle" x="238" y="-175" font-family="Helvetica,sans-Serif" font-size="10.00">Positivity</text>
</a>
</g>
</g>
<!-- n5&#45;&gt;n4 -->
<g id="edge5" class="edge">
<title>n5&#45;&gt;n4</title>
<path fill="none" stroke="#64748b" d="M237.26,-159.7C236.91,-151.47 236.48,-141.48 236.09,-132.42"/>
<polygon fill="#64748b" stroke="#64748b" points="238.55,-132.51 235.8,-125.62 233.65,-132.72 238.55,-132.51"/>
</g>
<!-- n6 -->
<g id="node7" class="node">
<title>n6</title>
<g id="a_node7"><a xlink:href="vscode://vscode-remote/wsl+Ubuntu/home/gavin/statlib/Statlib/Causal/Basic.lean:117" xlink:title="def · Statlib/Causal/Basic.lean:117" target="_blank">
<path fill="#d6e9ff" stroke="#3b82f6" d="M369.85,-196C369.85,-196 296.15,-196 296.15,-196 290.15,-196 284.15,-190 284.15,-184 284.15,-184 284.15,-172 284.15,-172 284.15,-166 290.15,-160 296.15,-160 296.15,-160 369.85,-160 369.85,-160 375.85,-160 381.85,-166 381.85,-172 381.85,-172 381.85,-184 381.85,-184 381.85,-190 375.85,-196 369.85,-196"/>
<text xml:space="preserve" text-anchor="middle" x="333" y="-175" font-family="Helvetica,sans-Serif" font-size="10.00">observedOutcome</text>
</a>
</g>
</g>
<!-- n7 -->
<g id="node8" class="node">
<title>n7</title>
<g id="a_node8"><a xlink:href="vscode://vscode-remote/wsl+Ubuntu/home/gavin/statlib/Statlib/Causal/OptimalTransport.lean:34" xlink:title="noncomputable def · Statlib/Causal/OptimalTransport.lean:34" target="_blank">
<path fill="#d6e9ff" stroke="#3b82f6" d="M531.69,-124C531.69,-124 466.31,-124 466.31,-124 460.31,-124 454.31,-118 454.31,-112 454.31,-112 454.31,-100 454.31,-100 454.31,-94 460.31,-88 466.31,-88 466.31,-88 531.69,-88 531.69,-88 537.69,-88 543.69,-94 543.69,-100 543.69,-100 543.69,-112 543.69,-112 543.69,-118 537.69,-124 531.69,-124"/>
<text xml:space="preserve" text-anchor="middle" x="499" y="-103" font-family="Helvetica,sans-Serif" font-size="10.00">quantileFunction</text>
</a>
</g>
</g>
<!-- n8 -->
<g id="node9" class="node">
<title>n8</title>
<g id="a_node9"><a xlink:href="vscode://vscode-remote/wsl+Ubuntu/home/gavin/statlib/Statlib/Causal/OptimalTransport.lean:367" xlink:title="def · Statlib/Causal/OptimalTransport.lean:367" target="_blank">
<path fill="#d6e9ff" stroke="#3b82f6" d="M565.58,-196C565.58,-196 432.42,-196 432.42,-196 426.42,-196 420.42,-190 420.42,-184 420.42,-184 420.42,-172 420.42,-172 420.42,-166 426.42,-160 432.42,-160 432.42,-160 565.58,-160 565.58,-160 571.58,-160 577.58,-166 577.58,-172 577.58,-172 577.58,-184 577.58,-184 577.58,-190 571.58,-196 565.58,-196"/>
<text xml:space="preserve" text-anchor="middle" x="499" y="-175" font-family="Helvetica,sans-Serif" font-size="10.00">WassersteinBarycentreProperty</text>
</a>
</g>
</g>
<!-- n8&#45;&gt;n7 -->
<g id="edge6" class="edge">
<title>n8&#45;&gt;n7</title>
<path fill="none" stroke="#64748b" d="M499,-159.7C499,-151.47 499,-141.48 499,-132.42"/>
<polygon fill="#64748b" stroke="#64748b" points="501.45,-132.62 499,-125.62 496.55,-132.62 501.45,-132.62"/>
</g>
<!-- n9 -->
<g id="node10" class="node">
<title>n9</title>
<g id="a_node10"><a xlink:href="vscode://vscode-remote/wsl+Ubuntu/home/gavin/statlib/Statlib/Causal/OptimalTransport.lean:269" xlink:title="noncomputable def · Statlib/Causal/OptimalTransport.lean:269" target="_blank">
<path fill="#d6e9ff" stroke="#3b82f6" d="M712.14,-196C712.14,-196 607.86,-196 607.86,-196 601.86,-196 595.86,-190 595.86,-184 595.86,-184 595.86,-172 595.86,-172 595.86,-166 601.86,-160 607.86,-160 607.86,-160 712.14,-160 712.14,-160 718.14,-160 724.14,-166 724.14,-172 724.14,-172 724.14,-184 724.14,-184 724.14,-190 718.14,-196 712.14,-196"/>
<text xml:space="preserve" text-anchor="middle" x="660" y="-175" font-family="Helvetica,sans-Serif" font-size="10.00">averageCausalEffectMap</text>
</a>
</g>
</g>
<!-- n9&#45;&gt;n7 -->
<g id="edge7" class="edge">
<title>n9&#45;&gt;n7</title>
<path fill="none" stroke="#64748b" d="M619.79,-159.52C597.61,-149.88 569.94,-137.84 546.68,-127.73"/>
<polygon fill="#64748b" stroke="#64748b" points="547.76,-125.53 540.37,-124.99 545.81,-130.02 547.76,-125.53"/>
</g>
<!-- n10 -->
<g id="node11" class="node">
<title>n10</title>
<g id="a_node11"><a xlink:href="vscode://vscode-remote/wsl+Ubuntu/home/gavin/statlib/Statlib/Causal/OptimalTransport.lean:482" xlink:title="theorem · Statlib/Causal/OptimalTransport.lean:482" target="_blank">
<path fill="#ffe6a3" stroke="#d4a017" stroke-width="3" d="M348.54,-268C348.54,-268 221.46,-268 221.46,-268 215.46,-268 209.46,-262 209.46,-256 209.46,-256 209.46,-244 209.46,-244 209.46,-238 215.46,-232 221.46,-232 221.46,-232 348.54,-232 348.54,-232 354.54,-232 360.54,-238 360.54,-244 360.54,-244 360.54,-256 360.54,-256 360.54,-262 354.54,-268 348.54,-268"/>
<text xml:space="preserve" text-anchor="middle" x="285" y="-247" font-family="Helvetica,sans-Serif" font-size="10.00">causalEffectMap_identification</text>
</a>
</g>
</g>
<!-- n10&#45;&gt;n0 -->
<g id="edge8" class="edge">
<title>n10&#45;&gt;n0</title>
<path fill="none" stroke="#64748b" d="M215.72,-230.61C180.56,-220.94 137.3,-208.51 99,-196 98.83,-195.94 98.66,-195.89 98.48,-195.83"/>
<polygon fill="#64748b" stroke="#64748b" points="99.42,-193.56 92.01,-193.64 97.85,-198.2 99.42,-193.56"/>
</g>
<!-- n10&#45;&gt;n3 -->
<g id="edge9" class="edge">
<title>n10&#45;&gt;n3</title>
<path fill="none" stroke="#64748b" d="M246.9,-230.61C226.28,-220.65 200.82,-208.36 179.92,-198.27"/>
<polygon fill="#64748b" stroke="#64748b" points="181.17,-196.16 173.8,-195.32 179.04,-200.57 181.17,-196.16"/>
</g>
<!-- n10&#45;&gt;n4 -->
<g id="edge14" class="edge">
<title>n10&#45;&gt;n4</title>
<path fill="none" stroke="#64748b" d="M238.27,-230.52C223.67,-222.26 209.24,-210.95 201,-196 189.4,-174.97 201.89,-149.17 214.88,-130.78"/>
<polygon fill="#64748b" stroke="#64748b" points="216.54,-132.65 218.74,-125.57 212.6,-129.73 216.54,-132.65"/>
</g>
<!-- n10&#45;&gt;n5 -->
<g id="edge10" class="edge">
<title>n10&#45;&gt;n5</title>
<path fill="none" stroke="#64748b" d="M272.65,-230.61C266.99,-222.17 260.19,-212.06 254.13,-203.02"/>
<polygon fill="#64748b" stroke="#64748b" points="256.24,-201.77 250.3,-197.32 252.17,-204.5 256.24,-201.77"/>
</g>
<!-- n10&#45;&gt;n6 -->
<g id="edge11" class="edge">
<title>n10&#45;&gt;n6</title>
<path fill="none" stroke="#64748b" d="M297.61,-230.61C303.4,-222.17 310.33,-212.06 316.53,-203.02"/>
<polygon fill="#64748b" stroke="#64748b" points="318.5,-204.47 320.44,-197.32 314.46,-201.7 318.5,-204.47"/>
</g>
<!-- n10&#45;&gt;n7 -->
<g id="edge13" class="edge">
<title>n10&#45;&gt;n7</title>
<path fill="none" stroke="#64748b" d="M336.93,-230.54C355.54,-222.1 375.69,-210.66 391,-196 404.22,-183.34 398.29,-173.17 411,-160 423.14,-147.43 438.87,-136.72 453.67,-128.29"/>
<polygon fill="#64748b" stroke="#64748b" points="454.57,-130.59 459.52,-125.06 452.21,-126.3 454.57,-130.59"/>
</g>
<!-- n10&#45;&gt;n8 -->
<g id="edge12" class="edge">
<title>n10&#45;&gt;n8</title>
<path fill="none" stroke="#64748b" d="M341.51,-230.52C371.17,-220.81 407.56,-208.91 437.89,-198.99"/>
<polygon fill="#64748b" stroke="#64748b" points="438.53,-201.36 444.42,-196.85 437.01,-196.7 438.53,-201.36"/>
</g>
<!-- n10&#45;&gt;n9 -->
<g id="edge15" class="edge">
<title>n10&#45;&gt;n9</title>
<path fill="none" stroke="#64748b" d="M361.87,-236.71C423.03,-226.64 510.72,-211.56 587,-196 587.09,-195.98 587.18,-195.96 587.26,-195.95"/>
<polygon fill="#64748b" stroke="#64748b" points="587.72,-198.35 594.07,-194.52 586.72,-193.56 587.72,-198.35"/>
</g>
</g>
</svg>
