<?xml version="1.0" encoding="UTF-8" standalone="no"?>
<!DOCTYPE svg PUBLIC "-//W3C//DTD SVG 1.1//EN"
 "http://www.w3.org/Graphics/SVG/1.1/DTD/svg11.dtd">
<!-- Generated by graphviz version 15.0.0 (20260523.1842)
 -->
<!-- Title: optimal_transport_map_injective Pages: 1 -->
<svg width="455pt" height="482pt"
 viewBox="0.00 0.00 455.00 482.00" xmlns="http://www.w3.org/2000/svg" xmlns:xlink="http://www.w3.org/1999/xlink">
<g id="graph0" class="graph" transform="scale(1 1) rotate(0) translate(4 478)">
<title>optimal_transport_map_injective</title>
<polygon fill="white" stroke="none" points="-4,4 -4,-478 451,-478 451,4 -4,4"/>
<text xml:space="preserve" text-anchor="middle" x="223.5" y="-457.4" font-family="Helvetica,sans-Serif" font-size="14.00">Proof narrative — optimal_transport_map_injective &#160;(11 decls)</text>
<g id="clust1" class="cluster">
<title>cluster_0</title>
<path fill="none" stroke="#cbd5e1" stroke-dasharray="5,2" d="M20,-8C20,-8 427,-8 427,-8 433,-8 439,-14 439,-20 439,-20 439,-429.2 439,-429.2 439,-435.2 433,-441.2 427,-441.2 427,-441.2 20,-441.2 20,-441.2 14,-441.2 8,-435.2 8,-429.2 8,-429.2 8,-20 8,-20 8,-14 14,-8 20,-8"/>
<text xml:space="preserve" text-anchor="middle" x="223.5" y="-427.3" font-family="Helvetica,sans-Serif" font-size="11.00">Causal</text>
</g>
<!-- n0 -->
<g id="node1" class="node">
<title>n0</title>
<g id="a_node1"><a xlink:href="vscode://vscode-remote/wsl+Ubuntu/home/gavin/statlib/Statlib/Causal/OptimalTransport.lean:34" xlink:title="noncomputable def · Statlib/Causal/OptimalTransport.lean:34" target="_blank">
<path fill="#d6e9ff" stroke="#3b82f6" d="M414.69,-52C414.69,-52 349.31,-52 349.31,-52 343.31,-52 337.31,-46 337.31,-40 337.31,-40 337.31,-28 337.31,-28 337.31,-22 343.31,-16 349.31,-16 349.31,-16 414.69,-16 414.69,-16 420.69,-16 426.69,-22 426.69,-28 426.69,-28 426.69,-40 426.69,-40 426.69,-46 420.69,-52 414.69,-52"/>
<text xml:space="preserve" text-anchor="middle" x="382" y="-31" font-family="Helvetica,sans-Serif" font-size="10.00">quantileFunction</text>
</a>
</g>
</g>
<!-- n1 -->
<g id="node2" class="node">
<title>n1</title>
<g id="a_node2"><a xlink:href="vscode://vscode-remote/wsl+Ubuntu/home/gavin/statlib/Statlib/Causal/OptimalTransport.lean:136" xlink:title="noncomputable def · Statlib/Causal/OptimalTransport.lean:136" target="_blank">
<path fill="#d6e9ff" stroke="#3b82f6" d="M398.63,-268C398.63,-268 299.37,-268 299.37,-268 293.37,-268 287.37,-262 287.37,-256 287.37,-256 287.37,-244 287.37,-244 287.37,-238 293.37,-232 299.37,-232 299.37,-232 398.63,-232 398.63,-232 404.63,-232 410.63,-238 410.63,-244 410.63,-244 410.63,-256 410.63,-256 410.63,-262 404.63,-268 398.63,-268"/>
<text xml:space="preserve" text-anchor="middle" x="349" y="-247" font-family="Helvetica,sans-Serif" font-size="10.00">optimalTransportMap1D</text>
</a>
</g>
</g>
<!-- n1&#45;&gt;n0 -->
<g id="edge1" class="edge">
<title>n1&#45;&gt;n0</title>
<path fill="none" stroke="#64748b" d="M369.82,-231.62C379.46,-222.2 389.89,-209.7 395,-196 412.02,-150.42 400,-92.67 390.48,-60.19"/>
<polygon fill="#64748b" stroke="#64748b" points="392.85,-59.53 388.46,-53.56 388.16,-60.97 392.85,-59.53"/>
</g>
<!-- n2 -->
<g id="node3" class="node">
<title>n2</title>
<g id="a_node3"><a xlink:href="vscode://vscode-remote/wsl+Ubuntu/home/gavin/statlib/Statlib/Causal/OptimalTransport.lean:155" xlink:title="private lemma · Statlib/Causal/OptimalTransport.lean:155" target="_blank">
<path fill="#eef2f6" stroke="#94a3b8" d="M399.3,-340C399.3,-340 326.7,-340 326.7,-340 320.7,-340 314.7,-334 314.7,-328 314.7,-328 314.7,-316 314.7,-316 314.7,-310 320.7,-304 326.7,-304 326.7,-304 399.3,-304 399.3,-304 405.3,-304 411.3,-310 411.3,-316 411.3,-316 411.3,-328 411.3,-328 411.3,-334 405.3,-340 399.3,-340"/>
<text xml:space="preserve" text-anchor="middle" x="363" y="-319" font-family="Helvetica,sans-Serif" font-size="10.00">cdf_surjective_Ioo</text>
</a>
</g>
</g>
<!-- n3 -->
<g id="node4" class="node">
<title>n3</title>
<g id="a_node4"><a xlink:href="vscode://vscode-remote/wsl+Ubuntu/home/gavin/statlib/Statlib/Causal/OptimalTransport.lean:38" xlink:title="private lemma · Statlib/Causal/OptimalTransport.lean:38" target="_blank">
<path fill="#eef2f6" stroke="#94a3b8" d="M146.82,-52C146.82,-52 29.18,-52 29.18,-52 23.18,-52 17.18,-46 17.18,-40 17.18,-40 17.18,-28 17.18,-28 17.18,-22 23.18,-16 29.18,-16 29.18,-16 146.82,-16 146.82,-16 152.82,-16 158.82,-22 158.82,-28 158.82,-28 158.82,-40 158.82,-40 158.82,-46 152.82,-52 146.82,-52"/>
<text xml:space="preserve" text-anchor="middle" x="88" y="-31" font-family="Helvetica,sans-Serif" font-size="10.00">quantile_levelSet_nonempty</text>
</a>
</g>
</g>
<!-- n4 -->
<g id="node5" class="node">
<title>n4</title>
<g id="a_node5"><a xlink:href="vscode://vscode-remote/wsl+Ubuntu/home/gavin/statlib/Statlib/Causal/OptimalTransport.lean:48" xlink:title="private lemma · Statlib/Causal/OptimalTransport.lean:48" target="_blank">
<path fill="#eef2f6" stroke="#94a3b8" d="M306.82,-52C306.82,-52 189.18,-52 189.18,-52 183.18,-52 177.18,-46 177.18,-40 177.18,-40 177.18,-28 177.18,-28 177.18,-22 183.18,-16 189.18,-16 189.18,-16 306.82,-16 306.82,-16 312.82,-16 318.82,-22 318.82,-28 318.82,-28 318.82,-40 318.82,-40 318.82,-46 312.82,-52 306.82,-52"/>
<text xml:space="preserve" text-anchor="middle" x="248" y="-31" font-family="Helvetica,sans-Serif" font-size="10.00">quantile_levelSet_bddBelow</text>
</a>
</g>
</g>
<!-- n5 -->
<g id="node6" class="node">
<title>n5</title>
<g id="a_node6"><a xlink:href="vscode://vscode-remote/wsl+Ubuntu/home/gavin/statlib/Statlib/Causal/OptimalTransport.lean:76" xlink:title="lemma · Statlib/Causal/OptimalTransport.lean:76" target="_blank">
<path fill="#eef2f6" stroke="#94a3b8" d="M152.44,-124C152.44,-124 27.56,-124 27.56,-124 21.56,-124 15.56,-118 15.56,-112 15.56,-112 15.56,-100 15.56,-100 15.56,-94 21.56,-88 27.56,-88 27.56,-88 152.44,-88 152.44,-88 158.44,-88 164.44,-94 164.44,-100 164.44,-100 164.44,-112 164.44,-112 164.44,-118 158.44,-124 152.44,-124"/>
<text xml:space="preserve" text-anchor="middle" x="90" y="-103" font-family="Helvetica,sans-Serif" font-size="10.00">le_cdf_of_quantileFunction_le</text>
</a>
</g>
</g>
<!-- n5&#45;&gt;n0 -->
<g id="edge2" class="edge">
<title>n5&#45;&gt;n0</title>
<path fill="none" stroke="#64748b" d="M164.89,-89.06C222.67,-76.62 297.69,-60.13 328,-52 328.28,-51.93 328.55,-51.85 328.83,-51.78"/>
<polygon fill="#64748b" stroke="#64748b" points="329.47,-54.14 335.55,-49.89 328.14,-49.42 329.47,-54.14"/>
</g>
<!-- n5&#45;&gt;n3 -->
<g id="edge3" class="edge">
<title>n5&#45;&gt;n3</title>
<path fill="none" stroke="#64748b" d="M89.51,-87.7C89.27,-79.47 88.99,-69.48 88.73,-60.42"/>
<polygon fill="#64748b" stroke="#64748b" points="91.18,-60.54 88.53,-53.62 86.28,-60.68 91.18,-60.54"/>
</g>
<!-- n5&#45;&gt;n4 -->
<g id="edge4" class="edge">
<title>n5&#45;&gt;n4</title>
<path fill="none" stroke="#64748b" d="M129.46,-87.52C151.22,-77.88 178.38,-65.84 201.21,-55.73"/>
<polygon fill="#64748b" stroke="#64748b" points="201.98,-58.07 207.38,-52.99 199.99,-53.59 201.98,-58.07"/>
</g>
<!-- n6 -->
<g id="node7" class="node">
<title>n6</title>
<g id="a_node7"><a xlink:href="vscode://vscode-remote/wsl+Ubuntu/home/gavin/statlib/Statlib/Causal/OptimalTransport.lean:69" xlink:title="lemma · Statlib/Causal/OptimalTransport.lean:69" target="_blank">
<path fill="#eef2f6" stroke="#94a3b8" d="M319.44,-124C319.44,-124 194.56,-124 194.56,-124 188.56,-124 182.56,-118 182.56,-112 182.56,-112 182.56,-100 182.56,-100 182.56,-94 188.56,-88 194.56,-88 194.56,-88 319.44,-88 319.44,-88 325.44,-88 331.44,-94 331.44,-100 331.44,-100 331.44,-112 331.44,-112 331.44,-118 325.44,-124 319.44,-124"/>
<text xml:space="preserve" text-anchor="middle" x="257" y="-103" font-family="Helvetica,sans-Serif" font-size="10.00">quantileFunction_le_of_le_cdf</text>
</a>
</g>
</g>
<!-- n6&#45;&gt;n0 -->
<g id="edge5" class="edge">
<title>n6&#45;&gt;n0</title>
<path fill="none" stroke="#64748b" d="M288.22,-87.52C305.05,-78.09 325.96,-66.38 343.76,-56.41"/>
<polygon fill="#64748b" stroke="#64748b" points="344.95,-58.56 349.86,-53 342.55,-54.28 344.95,-58.56"/>
</g>
<!-- n6&#45;&gt;n4 -->
<g id="edge6" class="edge">
<title>n6&#45;&gt;n4</title>
<path fill="none" stroke="#64748b" d="M254.78,-87.7C253.72,-79.47 252.43,-69.48 251.27,-60.42"/>
<polygon fill="#64748b" stroke="#64748b" points="253.71,-60.24 250.39,-53.61 248.85,-60.86 253.71,-60.24"/>
</g>
<!-- n7 -->
<g id="node8" class="node">
<title>n7</title>
<g id="a_node8"><a xlink:href="vscode://vscode-remote/wsl+Ubuntu/home/gavin/statlib/Statlib/Causal/OptimalTransport.lean:122" xlink:title="theorem · Statlib/Causal/OptimalTransport.lean:122" target="_blank">
<path fill="#ffe6a3" stroke="#d4a017" d="M272.81,-196C272.81,-196 195.19,-196 195.19,-196 189.19,-196 183.19,-190 183.19,-184 183.19,-184 183.19,-172 183.19,-172 183.19,-166 189.19,-160 195.19,-160 195.19,-160 272.81,-160 272.81,-160 278.81,-160 284.81,-166 284.81,-172 284.81,-172 284.81,-184 284.81,-184 284.81,-190 278.81,-196 272.81,-196"/>
<text xml:space="preserve" text-anchor="middle" x="234" y="-175" font-family="Helvetica,sans-Serif" font-size="10.00">quantile_cdf_galois</text>
</a>
</g>
</g>
<!-- n7&#45;&gt;n0 -->
<g id="edge7" class="edge">
<title>n7&#45;&gt;n0</title>
<path fill="none" stroke="#64748b" d="M285.1,-159.68C304.16,-151.25 324.83,-139.52 340,-124 357.37,-106.23 368.56,-79.91 374.99,-60.51"/>
<polygon fill="#64748b" stroke="#64748b" points="377.32,-61.25 377.08,-53.84 372.65,-59.78 377.32,-61.25"/>
</g>
<!-- n7&#45;&gt;n5 -->
<g id="edge8" class="edge">
<title>n7&#45;&gt;n5</title>
<path fill="none" stroke="#64748b" d="M198.03,-159.52C178.3,-149.92 153.7,-137.96 132.96,-127.88"/>
<polygon fill="#64748b" stroke="#64748b" points="134.24,-125.78 126.87,-124.92 132.09,-130.19 134.24,-125.78"/>
</g>
<!-- n7&#45;&gt;n6 -->
<g id="edge9" class="edge">
<title>n7&#45;&gt;n6</title>
<path fill="none" stroke="#64748b" d="M239.69,-159.7C242.41,-151.39 245.74,-141.28 248.74,-132.14"/>
<polygon fill="#64748b" stroke="#64748b" points="251.05,-132.96 250.91,-125.54 246.39,-131.43 251.05,-132.96"/>
</g>
<!-- n8 -->
<g id="node9" class="node">
<title>n8</title>
<g id="a_node9"><a xlink:href="vscode://vscode-remote/wsl+Ubuntu/home/gavin/statlib/Statlib/Causal/OptimalTransport.lean:185" xlink:title="private lemma · Statlib/Causal/OptimalTransport.lean:185" target="_blank">
<path fill="#eef2f6" stroke="#94a3b8" d="M237.02,-268C237.02,-268 184.98,-268 184.98,-268 178.98,-268 172.98,-262 172.98,-256 172.98,-256 172.98,-244 172.98,-244 172.98,-238 178.98,-232 184.98,-232 184.98,-232 237.02,-232 237.02,-232 243.02,-232 249.02,-238 249.02,-244 249.02,-244 249.02,-256 249.02,-256 249.02,-262 243.02,-268 237.02,-268"/>
<text xml:space="preserve" text-anchor="middle" x="211" y="-247" font-family="Helvetica,sans-Serif" font-size="10.00">cdf_lt_absurd</text>
</a>
</g>
</g>
<!-- n8&#45;&gt;n0 -->
<g id="edge10" class="edge">
<title>n8&#45;&gt;n0</title>
<path fill="none" stroke="#64748b" d="M242.81,-231.58C258.91,-222.06 278.31,-209.49 294,-196 326.24,-168.28 336.75,-161.39 357,-124 367.82,-104.02 374.32,-78.92 377.97,-60.47"/>
<polygon fill="#64748b" stroke="#64748b" points="380.35,-61.07 379.21,-53.74 375.53,-60.18 380.35,-61.07"/>
</g>
<!-- n8&#45;&gt;n7 -->
<g id="edge11" class="edge">
<title>n8&#45;&gt;n7</title>
<path fill="none" stroke="#64748b" d="M216.69,-231.7C219.41,-223.39 222.74,-213.28 225.74,-204.14"/>
<polygon fill="#64748b" stroke="#64748b" points="228.05,-204.96 227.91,-197.54 223.39,-203.43 228.05,-204.96"/>
</g>
<!-- n9 -->
<g id="node10" class="node">
<title>n9</title>
<g id="a_node10"><a xlink:href="vscode://vscode-remote/wsl+Ubuntu/home/gavin/statlib/Statlib/Causal/OptimalTransport.lean:203" xlink:title="private lemma · Statlib/Causal/OptimalTransport.lean:203" target="_blank">
<path fill="#eef2f6" stroke="#94a3b8" d="M264.67,-340C264.67,-340 135.33,-340 135.33,-340 129.33,-340 123.33,-334 123.33,-328 123.33,-328 123.33,-316 123.33,-316 123.33,-310 129.33,-304 135.33,-304 135.33,-304 264.67,-304 264.67,-304 270.67,-304 276.67,-310 276.67,-316 276.67,-316 276.67,-328 276.67,-328 276.67,-334 270.67,-340 264.67,-340"/>
<text xml:space="preserve" text-anchor="middle" x="200" y="-319" font-family="Helvetica,sans-Serif" font-size="10.00">cdf_eq_of_quantile_eq_on_Ioo</text>
</a>
</g>
</g>
<!-- n9&#45;&gt;n0 -->
<g id="edge12" class="edge">
<title>n9&#45;&gt;n0</title>
<path fill="none" stroke="#64748b" d="M222.28,-303.61C233.8,-293.91 247.6,-281.16 258,-268 269.35,-253.64 266.51,-246.25 278,-232 293.22,-213.12 302.85,-214.09 319,-196 344.94,-166.93 354.69,-160.24 369,-124 377.03,-103.65 380.17,-78.93 381.36,-60.7"/>
<polygon fill="#64748b" stroke="#64748b" points="383.8,-60.96 381.72,-53.84 378.9,-60.7 383.8,-60.96"/>
</g>
<!-- n9&#45;&gt;n8 -->
<g id="edge13" class="edge">
<title>n9&#45;&gt;n8</title>
<path fill="none" stroke="#64748b" d="M202.72,-303.7C204.01,-295.47 205.58,-285.48 207.01,-276.42"/>
<polygon fill="#64748b" stroke="#64748b" points="209.41,-276.9 208.08,-269.6 204.57,-276.13 209.41,-276.9"/>
</g>
<!-- n10 -->
<g id="node11" class="node">
<title>n10</title>
<g id="a_node11"><a xlink:href="vscode://vscode-remote/wsl+Ubuntu/home/gavin/statlib/Statlib/Causal/OptimalTransport.lean:220" xlink:title="theorem · Statlib/Causal/OptimalTransport.lean:220" target="_blank">
<path fill="#ffe6a3" stroke="#d4a017" stroke-width="3" d="M390.98,-412C390.98,-412 255.02,-412 255.02,-412 249.02,-412 243.02,-406 243.02,-400 243.02,-400 243.02,-388 243.02,-388 243.02,-382 249.02,-376 255.02,-376 255.02,-376 390.98,-376 390.98,-376 396.98,-376 402.98,-382 402.98,-388 402.98,-388 402.98,-400 402.98,-400 402.98,-406 396.98,-412 390.98,-412"/>
<text xml:space="preserve" text-anchor="middle" x="323" y="-391" font-family="Helvetica,sans-Serif" font-size="10.00">optimal_transport_map_injective</text>
</a>
</g>
</g>
<!-- n10&#45;&gt;n0 -->
<g id="edge15" class="edge">
<title>n10&#45;&gt;n0</title>
<path fill="none" stroke="#64748b" d="M377.53,-374.57C393.69,-366.45 409.78,-355.21 420,-340 442.19,-306.95 430,-290.8 430,-251 430,-251 430,-251 430,-177 430,-133.95 409.95,-87.23 395.77,-59.57"/>
<polygon fill="#64748b" stroke="#64748b" points="398.07,-58.69 392.65,-53.63 393.74,-60.97 398.07,-58.69"/>
</g>
<!-- n10&#45;&gt;n1 -->
<g id="edge14" class="edge">
<title>n10&#45;&gt;n1</title>
<path fill="none" stroke="#64748b" d="M313.93,-374.5C306.22,-356.2 297.64,-327.57 306,-304 309.85,-293.14 316.98,-282.89 324.34,-274.35"/>
<polygon fill="#64748b" stroke="#64748b" points="326.04,-276.11 328.94,-269.28 322.42,-272.81 326.04,-276.11"/>
</g>
<!-- n10&#45;&gt;n2 -->
<g id="edge16" class="edge">
<title>n10&#45;&gt;n2</title>
<path fill="none" stroke="#64748b" d="M333.51,-374.61C338.28,-366.25 344,-356.26 349.12,-347.29"/>
<polygon fill="#64748b" stroke="#64748b" points="351.15,-348.68 352.5,-341.38 346.9,-346.24 351.15,-348.68"/>
</g>
<!-- n10&#45;&gt;n9 -->
<g id="edge17" class="edge">
<title>n10&#45;&gt;n9</title>
<path fill="none" stroke="#64748b" d="M290.68,-374.61C274.37,-365.32 254.48,-354.01 237.49,-344.34"/>
<polygon fill="#64748b" stroke="#64748b" points="239.02,-342.39 231.72,-341.05 236.6,-346.65 239.02,-342.39"/>
</g>
</g>
</svg>
