<?xml version="1.0" encoding="UTF-8" standalone="no"?>
<!DOCTYPE svg PUBLIC "-//W3C//DTD SVG 1.1//EN"
 "http://www.w3.org/Graphics/SVG/1.1/DTD/svg11.dtd">
<!-- Generated by graphviz version 15.0.0 (20260523.1842)
 -->
<!-- Title: gaussianMollify_coord_lipschitz Pages: 1 -->
<svg width="675pt" height="555pt"
 viewBox="0.00 0.00 675.00 555.00" xmlns="http://www.w3.org/2000/svg" xmlns:xlink="http://www.w3.org/1999/xlink">
<g id="graph0" class="graph" transform="scale(1 1) rotate(0) translate(4 551.2)">
<title>gaussianMollify_coord_lipschitz</title>
<polygon fill="white" stroke="none" points="-4,4 -4,-551.2 670.64,-551.2 670.64,4 -4,4"/>
<text xml:space="preserve" text-anchor="middle" x="333.32" y="-530.6" font-family="Helvetica,sans-Serif" font-size="14.00">Proof narrative — gaussianMollify_coord_lipschitz &#160;(11 decls)</text>
<g id="clust1" class="cluster">
<title>cluster_0</title>
<path fill="none" stroke="#cbd5e1" stroke-dasharray="5,2" d="M434,-8C434,-8 610,-8 610,-8 616,-8 622,-14 622,-20 622,-20 622,-285.2 622,-285.2 622,-291.2 616,-297.2 610,-297.2 610,-297.2 434,-297.2 434,-297.2 428,-297.2 422,-291.2 422,-285.2 422,-285.2 422,-20 422,-20 422,-14 428,-8 434,-8"/>
<text xml:space="preserve" text-anchor="middle" x="522" y="-283.3" font-family="Helvetica,sans-Serif" font-size="11.00">Gaussian</text>
</g>
<g id="clust2" class="cluster">
<title>cluster_1</title>
<path fill="none" stroke="#cbd5e1" stroke-dasharray="5,2" d="M20,-224C20,-224 402,-224 402,-224 408,-224 414,-230 414,-236 414,-236 414,-502.4 414,-502.4 414,-508.4 408,-514.4 402,-514.4 402,-514.4 20,-514.4 20,-514.4 14,-514.4 8,-508.4 8,-502.4 8,-502.4 8,-236 8,-236 8,-230 14,-224 20,-224"/>
<text xml:space="preserve" text-anchor="middle" x="211" y="-500.5" font-family="Helvetica,sans-Serif" font-size="11.00">SubGaussian</text>
</g>
<!-- n0 -->
<g id="node1" class="node">
<title>n0</title>
<g id="a_node1"><a xlink:href="vscode://vscode-remote/wsl+Ubuntu/home/gavin/statlib/Statlib/Gaussian/Basic.lean:29" xlink:title="abbrev · Statlib/Gaussian/Basic.lean:29" target="_blank">
<path fill="#d6e9ff" stroke="#3b82f6" d="M538.79,-52C538.79,-52 491.21,-52 491.21,-52 485.21,-52 479.21,-46 479.21,-40 479.21,-40 479.21,-28 479.21,-28 479.21,-22 485.21,-16 491.21,-16 491.21,-16 538.79,-16 538.79,-16 544.79,-16 550.79,-22 550.79,-28 550.79,-28 550.79,-40 550.79,-40 550.79,-46 544.79,-52 538.79,-52"/>
<text xml:space="preserve" text-anchor="middle" x="515" y="-31" font-family="Helvetica,sans-Serif" font-size="10.00">stdGaussian</text>
</a>
</g>
</g>
<!-- n1 -->
<g id="node2" class="node">
<title>n1</title>
<g id="a_node2"><a xlink:href="vscode://vscode-remote/wsl+Ubuntu/home/gavin/statlib/Statlib/Gaussian/Basic.lean:32" xlink:title="def · Statlib/Gaussian/Basic.lean:32" target="_blank">
<path fill="#d6e9ff" stroke="#3b82f6" d="M602.24,-124C602.24,-124 545.76,-124 545.76,-124 539.76,-124 533.76,-118 533.76,-112 533.76,-112 533.76,-100 533.76,-100 533.76,-94 539.76,-88 545.76,-88 545.76,-88 602.24,-88 602.24,-88 608.24,-88 614.24,-94 614.24,-100 614.24,-100 614.24,-112 614.24,-112 614.24,-118 608.24,-124 602.24,-124"/>
<text xml:space="preserve" text-anchor="middle" x="574" y="-103" font-family="Helvetica,sans-Serif" font-size="10.00">stdGaussianPi</text>
</a>
</g>
</g>
<!-- n1&#45;&gt;n0 -->
<g id="edge1" class="edge">
<title>n1&#45;&gt;n0</title>
<path fill="none" stroke="#64748b" d="M559.42,-87.7C551.99,-78.88 542.84,-68.03 534.79,-58.47"/>
<polygon fill="#64748b" stroke="#64748b" points="536.78,-57.04 530.39,-53.26 533.03,-60.19 536.78,-57.04"/>
</g>
<!-- n5 -->
<g id="node3" class="node">
<title>n5</title>
<g id="a_node3"><a xlink:href="vscode://vscode-remote/wsl+Ubuntu/home/gavin/statlib/Statlib/Gaussian/Basic.lean:195" xlink:title="lemma · Statlib/Gaussian/Basic.lean:195" target="_blank">
<path fill="#eef2f6" stroke="#94a3b8" d="M581.65,-196C581.65,-196 462.35,-196 462.35,-196 456.35,-196 450.35,-190 450.35,-184 450.35,-184 450.35,-172 450.35,-172 450.35,-166 456.35,-160 462.35,-160 462.35,-160 581.65,-160 581.65,-160 587.65,-160 593.65,-166 593.65,-172 593.65,-172 593.65,-184 593.65,-184 593.65,-190 587.65,-196 581.65,-196"/>
<text xml:space="preserve" text-anchor="middle" x="522" y="-175" font-family="Helvetica,sans-Serif" font-size="10.00">integrable_id_stdGaussianPi</text>
</a>
</g>
</g>
<!-- n5&#45;&gt;n0 -->
<g id="edge5" class="edge">
<title>n5&#45;&gt;n0</title>
<path fill="none" stroke="#64748b" d="M521.14,-159.59C519.92,-134.76 517.66,-89.01 516.25,-60.4"/>
<polygon fill="#64748b" stroke="#64748b" points="518.71,-60.49 515.92,-53.62 513.82,-60.73 518.71,-60.49"/>
</g>
<!-- n5&#45;&gt;n1 -->
<g id="edge4" class="edge">
<title>n5&#45;&gt;n1</title>
<path fill="none" stroke="#64748b" d="M534.85,-159.7C541.34,-150.97 549.31,-140.24 556.36,-130.75"/>
<polygon fill="#64748b" stroke="#64748b" points="558.18,-132.4 560.39,-125.32 554.25,-129.48 558.18,-132.4"/>
</g>
<!-- n6 -->
<g id="node4" class="node">
<title>n6</title>
<g id="a_node4"><a xlink:href="vscode://vscode-remote/wsl+Ubuntu/home/gavin/statlib/Statlib/Gaussian/Basic.lean:209" xlink:title="lemma · Statlib/Gaussian/Basic.lean:209" target="_blank">
<path fill="#eef2f6" stroke="#94a3b8" d="M602.49,-268C602.49,-268 441.51,-268 441.51,-268 435.51,-268 429.51,-262 429.51,-256 429.51,-256 429.51,-244 429.51,-244 429.51,-238 435.51,-232 441.51,-232 441.51,-232 602.49,-232 602.49,-232 608.49,-232 614.49,-238 614.49,-244 614.49,-244 614.49,-256 614.49,-256 614.49,-262 608.49,-268 602.49,-268"/>
<text xml:space="preserve" text-anchor="middle" x="522" y="-247" font-family="Helvetica,sans-Serif" font-size="10.00">integrable_of_lipschitz_stdGaussianPi</text>
</a>
</g>
</g>
<!-- n6&#45;&gt;n0 -->
<g id="edge7" class="edge">
<title>n6&#45;&gt;n0</title>
<path fill="none" stroke="#64748b" d="M479.46,-231.64C464.53,-223.23 449.39,-211.52 441,-196 415.21,-148.31 460.01,-89.97 490.42,-58.25"/>
<polygon fill="#64748b" stroke="#64748b" points="492.07,-60.07 495.23,-53.36 488.58,-56.64 492.07,-60.07"/>
</g>
<!-- n6&#45;&gt;n1 -->
<g id="edge6" class="edge">
<title>n6&#45;&gt;n1</title>
<path fill="none" stroke="#64748b" d="M564.54,-231.64C579.47,-223.23 594.61,-211.52 603,-196 614.12,-175.43 603.58,-149.86 592.21,-131.42"/>
<polygon fill="#64748b" stroke="#64748b" points="594.39,-130.27 588.52,-125.75 590.28,-132.95 594.39,-130.27"/>
</g>
<!-- n6&#45;&gt;n5 -->
<g id="edge8" class="edge">
<title>n6&#45;&gt;n5</title>
<path fill="none" stroke="#64748b" d="M522,-231.7C522,-223.47 522,-213.48 522,-204.42"/>
<polygon fill="#64748b" stroke="#64748b" points="524.45,-204.62 522,-197.62 519.55,-204.62 524.45,-204.62"/>
</g>
<!-- n2 -->
<g id="node5" class="node">
<title>n2</title>
<g id="a_node5"><a xlink:href="vscode://vscode-remote/wsl+Ubuntu/home/gavin/statlib/Statlib/SubGaussian/gaussianMollify.lean:18" xlink:title="noncomputable def · Statlib/SubGaussian/gaussianMollify.lean:18" target="_blank">
<path fill="#d6e9ff" stroke="#3b82f6" d="M214.18,-341.2C214.18,-341.2 153.82,-341.2 153.82,-341.2 147.82,-341.2 141.82,-335.2 141.82,-329.2 141.82,-329.2 141.82,-317.2 141.82,-317.2 141.82,-311.2 147.82,-305.2 153.82,-305.2 153.82,-305.2 214.18,-305.2 214.18,-305.2 220.18,-305.2 226.18,-311.2 226.18,-317.2 226.18,-317.2 226.18,-329.2 226.18,-329.2 226.18,-335.2 220.18,-341.2 214.18,-341.2"/>
<text xml:space="preserve" text-anchor="middle" x="184" y="-320.2" font-family="Helvetica,sans-Serif" font-size="10.00">gaussianMollify</text>
</a>
</g>
</g>
<!-- n2&#45;&gt;n1 -->
<g id="edge2" class="edge">
<title>n2&#45;&gt;n1</title>
<path fill="none" stroke="#64748b" d="M226.63,-307.07C229.44,-306.36 232.25,-305.72 235,-305.2 251.18,-302.12 369.52,-306.67 383,-297.2 437.17,-259.14 393.7,-206.32 441,-160 463.95,-137.52 497.63,-124.23 525.35,-116.58"/>
<polygon fill="#64748b" stroke="#64748b" points="525.75,-119.01 531.9,-114.86 524.51,-114.27 525.75,-119.01"/>
</g>
<!-- n3 -->
<g id="node6" class="node">
<title>n3</title>
<g id="a_node6"><a xlink:href="vscode://vscode-remote/wsl+Ubuntu/home/gavin/statlib/Statlib/SubGaussian/lipschitzWith_update.lean:12" xlink:title="lemma · Statlib/SubGaussian/lipschitzWith_update.lean:12" target="_blank">
<path fill="#eef2f6" stroke="#94a3b8" d="M111.86,-341.2C111.86,-341.2 28.14,-341.2 28.14,-341.2 22.14,-341.2 16.14,-335.2 16.14,-329.2 16.14,-329.2 16.14,-317.2 16.14,-317.2 16.14,-311.2 22.14,-305.2 28.14,-305.2 28.14,-305.2 111.86,-305.2 111.86,-305.2 117.86,-305.2 123.86,-311.2 123.86,-317.2 123.86,-317.2 123.86,-329.2 123.86,-329.2 123.86,-335.2 117.86,-341.2 111.86,-341.2"/>
<text xml:space="preserve" text-anchor="middle" x="70" y="-320.2" font-family="Helvetica,sans-Serif" font-size="10.00">lipschitzWith_update</text>
</a>
</g>
</g>
<!-- n4 -->
<g id="node7" class="node">
<title>n4</title>
<g id="a_node7"><a xlink:href="vscode://vscode-remote/wsl+Ubuntu/home/gavin/statlib/Statlib/SubGaussian/lipschitz_coord_slice.lean:13" xlink:title="lemma · Statlib/SubGaussian/lipschitz_coord_slice.lean:13" target="_blank">
<path fill="#eef2f6" stroke="#94a3b8" d="M131.85,-413.2C131.85,-413.2 48.15,-413.2 48.15,-413.2 42.15,-413.2 36.15,-407.2 36.15,-401.2 36.15,-401.2 36.15,-389.2 36.15,-389.2 36.15,-383.2 42.15,-377.2 48.15,-377.2 48.15,-377.2 131.85,-377.2 131.85,-377.2 137.85,-377.2 143.85,-383.2 143.85,-389.2 143.85,-389.2 143.85,-401.2 143.85,-401.2 143.85,-407.2 137.85,-413.2 131.85,-413.2"/>
<text xml:space="preserve" text-anchor="middle" x="90" y="-392.2" font-family="Helvetica,sans-Serif" font-size="10.00">lipschitz_coord_slice</text>
</a>
</g>
</g>
<!-- n4&#45;&gt;n3 -->
<g id="edge3" class="edge">
<title>n4&#45;&gt;n3</title>
<path fill="none" stroke="#64748b" d="M85.06,-376.9C82.68,-368.59 79.79,-358.48 77.18,-349.34"/>
<polygon fill="#64748b" stroke="#64748b" points="79.58,-348.82 75.3,-342.76 74.87,-350.16 79.58,-348.82"/>
</g>
<!-- n7 -->
<g id="node8" class="node">
<title>n7</title>
<g id="a_node8"><a xlink:href="vscode://vscode-remote/wsl+Ubuntu/home/gavin/statlib/Statlib/SubGaussian/lipschitzWith_affine.lean:13" xlink:title="lemma · Statlib/SubGaussian/lipschitzWith_affine.lean:13" target="_blank">
<path fill="#eef2f6" stroke="#94a3b8" d="M361.8,-268C361.8,-268 284.2,-268 284.2,-268 278.2,-268 272.2,-262 272.2,-256 272.2,-256 272.2,-244 272.2,-244 272.2,-238 278.2,-232 284.2,-232 284.2,-232 361.8,-232 361.8,-232 367.8,-232 373.8,-238 373.8,-244 373.8,-244 373.8,-256 373.8,-256 373.8,-262 367.8,-268 361.8,-268"/>
<text xml:space="preserve" text-anchor="middle" x="323" y="-247" font-family="Helvetica,sans-Serif" font-size="10.00">lipschitzWith_affine</text>
</a>
</g>
</g>
<!-- n8 -->
<g id="node9" class="node">
<title>n8</title>
<g id="a_node9"><a xlink:href="vscode://vscode-remote/wsl+Ubuntu/home/gavin/statlib/Statlib/SubGaussian/lipschitz_comp_affine_integrable.lean:14" xlink:title="lemma · Statlib/SubGaussian/lipschitz_comp_affine_integrable.lean:14" target="_blank">
<path fill="#eef2f6" stroke="#94a3b8" d="M393.54,-341.2C393.54,-341.2 256.46,-341.2 256.46,-341.2 250.46,-341.2 244.46,-335.2 244.46,-329.2 244.46,-329.2 244.46,-317.2 244.46,-317.2 244.46,-311.2 250.46,-305.2 256.46,-305.2 256.46,-305.2 393.54,-305.2 393.54,-305.2 399.54,-305.2 405.54,-311.2 405.54,-317.2 405.54,-317.2 405.54,-329.2 405.54,-329.2 405.54,-335.2 399.54,-341.2 393.54,-341.2"/>
<text xml:space="preserve" text-anchor="middle" x="325" y="-320.2" font-family="Helvetica,sans-Serif" font-size="10.00">lipschitz_comp_affine_integrable</text>
</a>
</g>
</g>
<!-- n8&#45;&gt;n1 -->
<g id="edge9" class="edge">
<title>n8&#45;&gt;n1</title>
<path fill="none" stroke="#64748b" d="M405.7,-320.94C488.9,-318.79 608.5,-312.96 623,-297.2 666.09,-250.34 620.27,-170.67 592.3,-130.97"/>
<polygon fill="#64748b" stroke="#64748b" points="594.61,-129.97 588.53,-125.72 590.63,-132.83 594.61,-129.97"/>
</g>
<!-- n8&#45;&gt;n6 -->
<g id="edge10" class="edge">
<title>n8&#45;&gt;n6</title>
<path fill="none" stroke="#64748b" d="M394.69,-304.74C402.6,-302.38 410.51,-299.85 418,-297.2 438.37,-289.99 460.32,-280.5 478.78,-272.01"/>
<polygon fill="#64748b" stroke="#64748b" points="479.77,-274.25 485.09,-269.07 477.71,-269.8 479.77,-274.25"/>
</g>
<!-- n8&#45;&gt;n7 -->
<g id="edge11" class="edge">
<title>n8&#45;&gt;n7</title>
<path fill="none" stroke="#64748b" d="M324.52,-304.96C324.28,-296.39 323.98,-285.87 323.71,-276.39"/>
<polygon fill="#64748b" stroke="#64748b" points="326.17,-276.52 323.52,-269.59 321.27,-276.66 326.17,-276.52"/>
</g>
<!-- n9 -->
<g id="node10" class="node">
<title>n9</title>
<g id="a_node10"><a xlink:href="vscode://vscode-remote/wsl+Ubuntu/home/gavin/statlib/Statlib/SubGaussian/gaussianMollify_lipschitz.lean:17" xlink:title="lemma · Statlib/SubGaussian/gaussianMollify_lipschitz.lean:17" target="_blank">
<path fill="#eef2f6" stroke="#94a3b8" d="M345.75,-413.2C345.75,-413.2 244.25,-413.2 244.25,-413.2 238.25,-413.2 232.25,-407.2 232.25,-401.2 232.25,-401.2 232.25,-389.2 232.25,-389.2 232.25,-383.2 238.25,-377.2 244.25,-377.2 244.25,-377.2 345.75,-377.2 345.75,-377.2 351.75,-377.2 357.75,-383.2 357.75,-389.2 357.75,-389.2 357.75,-401.2 357.75,-401.2 357.75,-407.2 351.75,-413.2 345.75,-413.2"/>
<text xml:space="preserve" text-anchor="middle" x="295" y="-392.2" font-family="Helvetica,sans-Serif" font-size="10.00">gaussianMollify_lipschitz</text>
</a>
</g>
</g>
<!-- n9&#45;&gt;n1 -->
<g id="edge14" class="edge">
<title>n9&#45;&gt;n1</title>
<path fill="none" stroke="#64748b" d="M358.05,-385.94C449.34,-372.53 611.25,-342.85 646,-297.2 683.07,-248.49 664.22,-213.23 634,-160 627.41,-148.4 617.33,-138.05 607.3,-129.64"/>
<polygon fill="#64748b" stroke="#64748b" points="608.94,-127.81 601.94,-125.35 605.87,-131.63 608.94,-127.81"/>
</g>
<!-- n9&#45;&gt;n2 -->
<g id="edge12" class="edge">
<title>n9&#45;&gt;n2</title>
<path fill="none" stroke="#64748b" d="M267.28,-376.72C252.46,-367.38 234.1,-355.79 218.38,-345.88"/>
<polygon fill="#64748b" stroke="#64748b" points="219.88,-343.93 212.65,-342.27 217.26,-348.07 219.88,-343.93"/>
</g>
<!-- n9&#45;&gt;n8 -->
<g id="edge13" class="edge">
<title>n9&#45;&gt;n8</title>
<path fill="none" stroke="#64748b" d="M302.42,-376.9C306.01,-368.5 310.4,-358.27 314.35,-349.06"/>
<polygon fill="#64748b" stroke="#64748b" points="316.57,-350.09 317.07,-342.7 312.06,-348.16 316.57,-350.09"/>
</g>
<!-- n10 -->
<g id="node11" class="node">
<title>n10</title>
<g id="a_node11"><a xlink:href="vscode://vscode-remote/wsl+Ubuntu/home/gavin/statlib/Statlib/SubGaussian/gaussianMollify_coord_lipschitz.lean:15" xlink:title="lemma · Statlib/SubGaussian/gaussianMollify_coord_lipschitz.lean:15" target="_blank">
<path fill="#eef2f6" stroke="#94a3b8" stroke-width="3" d="M250.03,-485.2C250.03,-485.2 117.97,-485.2 117.97,-485.2 111.97,-485.2 105.97,-479.2 105.97,-473.2 105.97,-473.2 105.97,-461.2 105.97,-461.2 105.97,-455.2 111.97,-449.2 117.97,-449.2 117.97,-449.2 250.03,-449.2 250.03,-449.2 256.03,-449.2 262.03,-455.2 262.03,-461.2 262.03,-461.2 262.03,-473.2 262.03,-473.2 262.03,-479.2 256.03,-485.2 250.03,-485.2"/>
<text xml:space="preserve" text-anchor="middle" x="184" y="-464.2" font-family="Helvetica,sans-Serif" font-size="10.00">gaussianMollify_coord_lipschitz</text>
</a>
</g>
</g>
<!-- n10&#45;&gt;n2 -->
<g id="edge15" class="edge">
<title>n10&#45;&gt;n2</title>
<path fill="none" stroke="#64748b" d="M184,-447.93C184,-422.95 184,-378.01 184,-349.72"/>
<polygon fill="#64748b" stroke="#64748b" points="186.45,-350.03 184,-343.03 181.55,-350.03 186.45,-350.03"/>
</g>
<!-- n10&#45;&gt;n4 -->
<g id="edge16" class="edge">
<title>n10&#45;&gt;n4</title>
<path fill="none" stroke="#64748b" d="M159.3,-447.81C147.28,-438.85 132.72,-428.01 120.05,-418.58"/>
<polygon fill="#64748b" stroke="#64748b" points="121.53,-416.63 114.45,-414.41 118.6,-420.56 121.53,-416.63"/>
</g>
<!-- n10&#45;&gt;n9 -->
<g id="edge17" class="edge">
<title>n10&#45;&gt;n9</title>
<path fill="none" stroke="#64748b" d="M213.16,-447.81C227.76,-438.6 245.51,-427.41 260.75,-417.8"/>
<polygon fill="#64748b" stroke="#64748b" points="261.66,-420.12 266.28,-414.31 259.05,-415.98 261.66,-420.12"/>
</g>
</g>
</svg>
