<?xml version="1.0" encoding="UTF-8" standalone="no"?>
<!DOCTYPE svg PUBLIC "-//W3C//DTD SVG 1.1//EN"
 "http://www.w3.org/Graphics/SVG/1.1/DTD/svg11.dtd">
<!-- Generated by graphviz version 15.0.0 (20260523.1842)
 -->
<!-- Title: compactSpectralTruncationOfTotal Pages: 1 -->
<svg width="1333pt" height="554pt"
 viewBox="0.00 0.00 1333.00 554.00" xmlns="http://www.w3.org/2000/svg" xmlns:xlink="http://www.w3.org/1999/xlink">
<g id="graph0" class="graph" transform="scale(1 1) rotate(0) translate(4 550)">
<title>compactSpectralTruncationOfTotal</title>
<polygon fill="white" stroke="none" points="-4,4 -4,-550 1329,-550 1329,4 -4,4"/>
<text xml:space="preserve" text-anchor="middle" x="662.5" y="-529.4" font-family="Helvetica,sans-Serif" font-size="14.00">Proof narrative — compactSpectralTruncationOfTotal &#160;(23 decls)</text>
<g id="clust1" class="cluster">
<title>cluster_0</title>
<path fill="none" stroke="#cbd5e1" stroke-dasharray="5,2" d="M20,-8C20,-8 1305,-8 1305,-8 1311,-8 1317,-14 1317,-20 1317,-20 1317,-501.2 1317,-501.2 1317,-507.2 1311,-513.2 1305,-513.2 1305,-513.2 20,-513.2 20,-513.2 14,-513.2 8,-507.2 8,-501.2 8,-501.2 8,-20 8,-20 8,-14 14,-8 20,-8"/>
<text xml:space="preserve" text-anchor="middle" x="662.5" y="-499.3" font-family="Helvetica,sans-Serif" font-size="11.00">Mathlib</text>
</g>
<!-- n0 -->
<g id="node1" class="node">
<title>n0</title>
<g id="a_node1"><a xlink:href="vscode://vscode-remote/wsl+Ubuntu/home/gavin/statlib/Statlib/Mathlib/Analysis/SpectralCompactSelfAdjoint.lean:299" xlink:title="structure · Statlib/Mathlib/Analysis/SpectralCompactSelfAdjoint.lean:299" target="_blank">
<path fill="#e8dcff" stroke="#8b5cf6" d="M746.03,-52C746.03,-52 623.97,-52 623.97,-52 617.97,-52 611.97,-46 611.97,-40 611.97,-40 611.97,-28 611.97,-28 611.97,-22 617.97,-16 623.97,-16 623.97,-16 746.03,-16 746.03,-16 752.03,-16 758.03,-22 758.03,-28 758.03,-28 758.03,-40 758.03,-40 758.03,-46 752.03,-52 746.03,-52"/>
<text xml:space="preserve" text-anchor="middle" x="685" y="-31" font-family="Helvetica,sans-Serif" font-size="10.00">SpectralTheoremCompactSA</text>
</a>
</g>
</g>
<!-- n1 -->
<g id="node2" class="node">
<title>n1</title>
<g id="a_node2"><a xlink:href="vscode://vscode-remote/wsl+Ubuntu/home/gavin/statlib/Statlib/Mathlib/Analysis/BesselCompactSA.lean:63" xlink:title="structure · Statlib/Mathlib/Analysis/BesselCompactSA.lean:63" target="_blank">
<path fill="#e8dcff" stroke="#8b5cf6" d="M1276.81,-268C1276.81,-268 1169.19,-268 1169.19,-268 1163.19,-268 1157.19,-262 1157.19,-256 1157.19,-256 1157.19,-244 1157.19,-244 1157.19,-238 1163.19,-232 1169.19,-232 1169.19,-232 1276.81,-232 1276.81,-232 1282.81,-232 1288.81,-238 1288.81,-244 1288.81,-244 1288.81,-256 1288.81,-256 1288.81,-262 1282.81,-268 1276.81,-268"/>
<text xml:space="preserve" text-anchor="middle" x="1223" y="-247" font-family="Helvetica,sans-Serif" font-size="10.00">SpectralEigenbasisIsTotal</text>
</a>
</g>
</g>
<!-- n1&#45;&gt;n0 -->
<g id="edge1" class="edge">
<title>n1&#45;&gt;n0</title>
<path fill="none" stroke="#64748b" d="M1221.63,-231.73C1217.96,-197.97 1204.7,-123.45 1158,-88 1098.31,-42.68 885.72,-34.98 766.89,-34.33"/>
<polygon fill="#64748b" stroke="#64748b" points="767.02,-31.88 760.01,-34.31 767,-36.78 767.02,-31.88"/>
</g>
<!-- n2 -->
<g id="node3" class="node">
<title>n2</title>
<g id="a_node3"><a xlink:href="vscode://vscode-remote/wsl+Ubuntu/home/gavin/statlib/Statlib/Mathlib/Analysis/SpectralCompactSelfAdjoint.lean:258" xlink:title="structure · Statlib/Mathlib/Analysis/SpectralCompactSelfAdjoint.lean:258" target="_blank">
<path fill="#e8dcff" stroke="#8b5cf6" d="M143.97,-340C143.97,-340 28.03,-340 28.03,-340 22.03,-340 16.03,-334 16.03,-328 16.03,-328 16.03,-316 16.03,-316 16.03,-310 22.03,-304 28.03,-304 28.03,-304 143.97,-304 143.97,-304 149.97,-304 155.97,-310 155.97,-316 155.97,-316 155.97,-328 155.97,-328 155.97,-334 149.97,-340 143.97,-340"/>
<text xml:space="preserve" text-anchor="middle" x="86" y="-319" font-family="Helvetica,sans-Serif" font-size="10.00">CompactSpectralTruncation</text>
</a>
</g>
</g>
<!-- n3 -->
<g id="node4" class="node">
<title>n3</title>
<g id="a_node4"><a xlink:href="vscode://vscode-remote/wsl+Ubuntu/home/gavin/statlib/Statlib/Mathlib/Analysis/SpectralTruncation.lean:98" xlink:title="noncomputable def · Statlib/Mathlib/Analysis/SpectralTruncation.lean:98" target="_blank">
<path fill="#d6e9ff" stroke="#3b82f6" d="M588.24,-124C588.24,-124 521.76,-124 521.76,-124 515.76,-124 509.76,-118 509.76,-112 509.76,-112 509.76,-100 509.76,-100 509.76,-94 515.76,-88 521.76,-88 521.76,-88 588.24,-88 588.24,-88 594.24,-88 600.24,-94 600.24,-100 600.24,-100 600.24,-112 600.24,-112 600.24,-118 594.24,-124 588.24,-124"/>
<text xml:space="preserve" text-anchor="middle" x="555" y="-103" font-family="Helvetica,sans-Serif" font-size="10.00">spectralTruncate</text>
</a>
</g>
</g>
<!-- n3&#45;&gt;n0 -->
<g id="edge2" class="edge">
<title>n3&#45;&gt;n0</title>
<path fill="none" stroke="#64748b" d="M587.47,-87.52C605.13,-78.01 627.11,-66.17 645.73,-56.15"/>
<polygon fill="#64748b" stroke="#64748b" points="646.61,-58.45 651.61,-52.98 644.29,-54.14 646.61,-58.45"/>
</g>
<!-- n4 -->
<g id="node5" class="node">
<title>n4</title>
<g id="a_node5"><a xlink:href="vscode://vscode-remote/wsl+Ubuntu/home/gavin/statlib/Statlib/Mathlib/Analysis/SpectralTruncationConv.lean:162" xlink:title="structure · Statlib/Mathlib/Analysis/SpectralTruncationConv.lean:162" target="_blank">
<path fill="#e8dcff" stroke="#8b5cf6" d="M391.59,-196C391.59,-196 278.41,-196 278.41,-196 272.41,-196 266.41,-190 266.41,-184 266.41,-184 266.41,-172 266.41,-172 266.41,-166 272.41,-160 278.41,-160 278.41,-160 391.59,-160 391.59,-160 397.59,-160 403.59,-166 403.59,-172 403.59,-172 403.59,-184 403.59,-184 403.59,-190 397.59,-196 391.59,-196"/>
<text xml:space="preserve" text-anchor="middle" x="335" y="-175" font-family="Helvetica,sans-Serif" font-size="10.00">BesselSquaredNormBound</text>
</a>
</g>
</g>
<!-- n4&#45;&gt;n0 -->
<g id="edge3" class="edge">
<title>n4&#45;&gt;n0</title>
<path fill="none" stroke="#64748b" d="M353.74,-159.54C376.45,-139.32 416.71,-106.44 457,-88 503.26,-66.82 558.81,-53.68 603.5,-45.78"/>
<polygon fill="#64748b" stroke="#64748b" points="603.74,-48.23 610.22,-44.62 602.91,-43.4 603.74,-48.23"/>
</g>
<!-- n4&#45;&gt;n3 -->
<g id="edge4" class="edge">
<title>n4&#45;&gt;n3</title>
<path fill="none" stroke="#64748b" d="M389.95,-159.52C424,-148.68 467.53,-134.83 501.34,-124.07"/>
<polygon fill="#64748b" stroke="#64748b" points="501.91,-126.46 507.83,-122.01 500.42,-121.8 501.91,-126.46"/>
</g>
<!-- n5 -->
<g id="node6" class="node">
<title>n5</title>
<g id="a_node6"><a xlink:href="vscode://vscode-remote/wsl+Ubuntu/home/gavin/statlib/Statlib/Mathlib/Analysis/SpectralTruncation.lean:107" xlink:title="lemma · Statlib/Mathlib/Analysis/SpectralTruncation.lean:107" target="_blank">
<path fill="#eef2f6" stroke="#94a3b8" d="M666,-196C666,-196 636,-196 636,-196 630,-196 624,-190 624,-184 624,-184 624,-172 624,-172 624,-166 630,-160 636,-160 636,-160 666,-160 666,-160 672,-160 678,-166 678,-172 678,-172 678,-184 678,-184 678,-190 672,-196 666,-196"/>
<text xml:space="preserve" text-anchor="middle" x="651" y="-175" font-family="Helvetica,sans-Serif" font-size="10.00">apply</text>
</a>
</g>
</g>
<!-- n5&#45;&gt;n0 -->
<g id="edge5" class="edge">
<title>n5&#45;&gt;n0</title>
<path fill="none" stroke="#64748b" d="M655.17,-159.59C661.14,-134.65 672.16,-88.62 679.01,-60.03"/>
<polygon fill="#64748b" stroke="#64748b" points="681.3,-60.96 680.55,-53.58 676.54,-59.82 681.3,-60.96"/>
</g>
<!-- n5&#45;&gt;n3 -->
<g id="edge6" class="edge">
<title>n5&#45;&gt;n3</title>
<path fill="none" stroke="#64748b" d="M627.27,-159.7C614.69,-150.53 599.1,-139.16 585.62,-129.33"/>
<polygon fill="#64748b" stroke="#64748b" points="587.11,-127.38 580.01,-125.24 584.23,-131.34 587.11,-127.38"/>
</g>
<!-- n6 -->
<g id="node7" class="node">
<title>n6</title>
<g id="a_node7"><a xlink:href="vscode://vscode-remote/wsl+Ubuntu/home/gavin/statlib/Statlib/Mathlib/Analysis/SpectralTruncation.lean:148" xlink:title="theorem · Statlib/Mathlib/Analysis/SpectralTruncation.lean:148" target="_blank">
<path fill="#ffe6a3" stroke="#d4a017" d="M513.66,-268C513.66,-268 334.34,-268 334.34,-268 328.34,-268 322.34,-262 322.34,-256 322.34,-256 322.34,-244 322.34,-244 322.34,-238 328.34,-232 334.34,-232 334.34,-232 513.66,-232 513.66,-232 519.66,-232 525.66,-238 525.66,-244 525.66,-244 525.66,-256 525.66,-256 525.66,-262 519.66,-268 513.66,-268"/>
<text xml:space="preserve" text-anchor="middle" x="424" y="-247" font-family="Helvetica,sans-Serif" font-size="10.00">spectralTruncate_finiteDimensional_range</text>
</a>
</g>
</g>
<!-- n6&#45;&gt;n0 -->
<g id="edge7" class="edge">
<title>n6&#45;&gt;n0</title>
<path fill="none" stroke="#64748b" d="M427.4,-231.57C434.77,-198.53 455.36,-126.64 501,-88 529.54,-63.84 568.52,-50.68 603.26,-43.51"/>
<polygon fill="#64748b" stroke="#64748b" points="603.64,-45.94 610.04,-42.19 602.7,-41.13 603.64,-45.94"/>
</g>
<!-- n6&#45;&gt;n3 -->
<g id="edge8" class="edge">
<title>n6&#45;&gt;n3</title>
<path fill="none" stroke="#64748b" d="M440.06,-231.59C463.56,-206.11 507.37,-158.63 533.58,-130.21"/>
<polygon fill="#64748b" stroke="#64748b" points="535.24,-132.03 538.19,-125.22 531.64,-128.71 535.24,-132.03"/>
</g>
<!-- n6&#45;&gt;n5 -->
<g id="edge9" class="edge">
<title>n6&#45;&gt;n5</title>
<path fill="none" stroke="#64748b" d="M480.7,-231.52C523.06,-218.45 579.65,-201 615.72,-189.88"/>
<polygon fill="#64748b" stroke="#64748b" points="616.12,-192.32 622.09,-187.91 614.68,-187.64 616.12,-192.32"/>
</g>
<!-- n7 -->
<g id="node8" class="node">
<title>n7</title>
<g id="a_node8"><a xlink:href="vscode://vscode-remote/wsl+Ubuntu/home/gavin/statlib/Statlib/Mathlib/Analysis/SpectralTruncation.lean:121" xlink:title="lemma · Statlib/Mathlib/Analysis/SpectralTruncation.lean:121" target="_blank">
<path fill="#eef2f6" stroke="#94a3b8" d="M176.47,-124C176.47,-124 85.53,-124 85.53,-124 79.53,-124 73.53,-118 73.53,-112 73.53,-112 73.53,-100 73.53,-100 73.53,-94 79.53,-88 85.53,-88 85.53,-88 176.47,-88 176.47,-88 182.47,-88 188.47,-94 188.47,-100 188.47,-100 188.47,-112 188.47,-112 188.47,-118 182.47,-124 176.47,-124"/>
<text xml:space="preserve" text-anchor="middle" x="131" y="-103" font-family="Helvetica,sans-Serif" font-size="10.00">isSelfAdjoint_rankOne</text>
</a>
</g>
</g>
<!-- n8 -->
<g id="node9" class="node">
<title>n8</title>
<g id="a_node9"><a xlink:href="vscode://vscode-remote/wsl+Ubuntu/home/gavin/statlib/Statlib/Mathlib/Analysis/SpectralTruncation.lean:134" xlink:title="theorem · Statlib/Mathlib/Analysis/SpectralTruncation.lean:134" target="_blank">
<path fill="#ffe6a3" stroke="#d4a017" d="M175.53,-196C175.53,-196 48.47,-196 48.47,-196 42.47,-196 36.47,-190 36.47,-184 36.47,-184 36.47,-172 36.47,-172 36.47,-166 42.47,-160 48.47,-160 48.47,-160 175.53,-160 175.53,-160 181.53,-160 187.53,-166 187.53,-172 187.53,-172 187.53,-184 187.53,-184 187.53,-190 181.53,-196 175.53,-196"/>
<text xml:space="preserve" text-anchor="middle" x="112" y="-175" font-family="Helvetica,sans-Serif" font-size="10.00">spectralTruncate_isSelfAdjoint</text>
</a>
</g>
</g>
<!-- n8&#45;&gt;n0 -->
<g id="edge10" class="edge">
<title>n8&#45;&gt;n0</title>
<path fill="none" stroke="#64748b" d="M91.38,-159.66C70.97,-140.44 45.38,-109.37 65,-88 100.69,-49.13 443.04,-38.72 603.17,-35.97"/>
<polygon fill="#64748b" stroke="#64748b" points="603.12,-38.42 610.08,-35.85 603.04,-33.52 603.12,-38.42"/>
</g>
<!-- n8&#45;&gt;n3 -->
<g id="edge11" class="edge">
<title>n8&#45;&gt;n3</title>
<path fill="none" stroke="#64748b" d="M187.9,-165.01C277.12,-150.91 422.93,-127.87 501.24,-115.5"/>
<polygon fill="#64748b" stroke="#64748b" points="501.5,-117.93 508.03,-114.42 500.73,-113.09 501.5,-117.93"/>
</g>
<!-- n8&#45;&gt;n7 -->
<g id="edge12" class="edge">
<title>n8&#45;&gt;n7</title>
<path fill="none" stroke="#64748b" d="M116.7,-159.7C118.95,-151.39 121.7,-141.28 124.18,-132.14"/>
<polygon fill="#64748b" stroke="#64748b" points="126.49,-132.96 125.96,-125.57 121.76,-131.68 126.49,-132.96"/>
</g>
<!-- n9 -->
<g id="node10" class="node">
<title>n9</title>
<g id="a_node10"><a xlink:href="vscode://vscode-remote/wsl+Ubuntu/home/gavin/statlib/Statlib/Mathlib/Analysis/SpectralTruncationConv.lean:178" xlink:title="theorem · Statlib/Mathlib/Analysis/SpectralTruncationConv.lean:178" target="_blank">
<path fill="#ffe6a3" stroke="#d4a017" d="M212.43,-268C212.43,-268 87.57,-268 87.57,-268 81.57,-268 75.57,-262 75.57,-256 75.57,-256 75.57,-244 75.57,-244 75.57,-238 81.57,-232 87.57,-232 87.57,-232 212.43,-232 212.43,-232 218.43,-232 224.43,-238 224.43,-244 224.43,-244 224.43,-256 224.43,-256 224.43,-262 218.43,-268 212.43,-268"/>
<text xml:space="preserve" text-anchor="middle" x="150" y="-247" font-family="Helvetica,sans-Serif" font-size="10.00">spectralTruncate_op_norm_le</text>
</a>
</g>
</g>
<!-- n9&#45;&gt;n0 -->
<g id="edge13" class="edge">
<title>n9&#45;&gt;n0</title>
<path fill="none" stroke="#64748b" d="M174.19,-231.63C186.47,-222.04 201.07,-209.38 212,-196 223.58,-181.83 218.47,-172.32 232,-160 335.55,-65.69 503.94,-41.66 603.63,-36.06"/>
<polygon fill="#64748b" stroke="#64748b" points="603.5,-38.52 610.36,-35.71 603.25,-33.62 603.5,-38.52"/>
</g>
<!-- n9&#45;&gt;n3 -->
<g id="edge15" class="edge">
<title>n9&#45;&gt;n3</title>
<path fill="none" stroke="#64748b" d="M183.26,-231.52C199.08,-222.25 217.62,-209.91 232,-196 246,-182.46 240.6,-170.51 257,-160 296.57,-134.64 426.31,-118.85 500.91,-111.63"/>
<polygon fill="#64748b" stroke="#64748b" points="501.03,-114.08 507.77,-110.98 500.57,-109.2 501.03,-114.08"/>
</g>
<!-- n9&#45;&gt;n4 -->
<g id="edge14" class="edge">
<title>n9&#45;&gt;n4</title>
<path fill="none" stroke="#64748b" d="M196.21,-231.52C222.02,-221.75 254.31,-209.53 281.25,-199.34"/>
<polygon fill="#64748b" stroke="#64748b" points="281.97,-201.69 287.65,-196.92 280.23,-197.1 281.97,-201.69"/>
</g>
<!-- n10 -->
<g id="node11" class="node">
<title>n10</title>
<g id="a_node11"><a xlink:href="vscode://vscode-remote/wsl+Ubuntu/home/gavin/statlib/Statlib/Mathlib/Analysis/SpectralTruncationConv.lean:215" xlink:title="theorem · Statlib/Mathlib/Analysis/SpectralTruncationConv.lean:215" target="_blank">
<path fill="#ffe6a3" stroke="#d4a017" d="M424.12,-340C424.12,-340 225.88,-340 225.88,-340 219.88,-340 213.88,-334 213.88,-328 213.88,-328 213.88,-316 213.88,-316 213.88,-310 219.88,-304 225.88,-304 225.88,-304 424.12,-304 424.12,-304 430.12,-304 436.12,-310 436.12,-316 436.12,-316 436.12,-328 436.12,-328 436.12,-334 430.12,-340 424.12,-340"/>
<text xml:space="preserve" text-anchor="middle" x="325" y="-319" font-family="Helvetica,sans-Serif" font-size="10.00">spectralTruncate_tendsto_op_norm_of_bessel</text>
</a>
</g>
</g>
<!-- n10&#45;&gt;n0 -->
<g id="edge16" class="edge">
<title>n10&#45;&gt;n0</title>
<path fill="none" stroke="#64748b" d="M213.47,-304.75C148.23,-294.1 76.77,-279.98 67,-268 56.89,-255.6 57.31,-244.73 67,-232 103.3,-184.28 152.05,-235.67 197,-196 210,-184.53 202.67,-174.61 212,-160 235.37,-123.41 239.48,-108.01 278,-88 332.97,-59.44 501,-45.23 603.17,-39.05"/>
<polygon fill="#64748b" stroke="#64748b" points="603.27,-41.5 610.11,-38.63 602.98,-36.6 603.27,-41.5"/>
</g>
<!-- n10&#45;&gt;n3 -->
<g id="edge18" class="edge">
<title>n10&#45;&gt;n3</title>
<path fill="none" stroke="#64748b" d="M316.08,-303.59C307.58,-284.31 298.12,-253.17 313,-232 340.16,-193.35 370.56,-216.73 413,-196 439.92,-182.85 444.62,-175.93 470,-160 486.48,-149.66 504.79,-138.24 520.18,-128.65"/>
<polygon fill="#64748b" stroke="#64748b" points="521.1,-130.96 525.74,-125.19 518.51,-126.8 521.1,-130.96"/>
</g>
<!-- n10&#45;&gt;n4 -->
<g id="edge17" class="edge">
<title>n10&#45;&gt;n4</title>
<path fill="none" stroke="#64748b" d="M291.77,-303.51C278.72,-294.75 265.17,-282.82 258,-268 251.03,-253.6 250.56,-246.16 258,-232 264.75,-219.15 276.19,-208.81 288.21,-200.79"/>
<polygon fill="#64748b" stroke="#64748b" points="289.41,-202.94 294.04,-197.15 286.81,-198.78 289.41,-202.94"/>
</g>
<!-- n10&#45;&gt;n9 -->
<g id="edge19" class="edge">
<title>n10&#45;&gt;n9</title>
<path fill="none" stroke="#64748b" d="M281.29,-303.52C256.98,-293.79 226.59,-281.64 201.17,-271.47"/>
<polygon fill="#64748b" stroke="#64748b" points="202.27,-269.27 194.86,-268.94 200.45,-273.82 202.27,-269.27"/>
</g>
<!-- n11 -->
<g id="node12" class="node">
<title>n11</title>
<g id="a_node12"><a xlink:href="vscode://vscode-remote/wsl+Ubuntu/home/gavin/statlib/Statlib/Mathlib/Analysis/SpectralTruncationConv.lean:242" xlink:title="noncomputable def · Statlib/Mathlib/Analysis/SpectralTruncationConv.lean:242" target="_blank">
<path fill="#d6e9ff" stroke="#3b82f6" d="M467.15,-412C467.15,-412 312.85,-412 312.85,-412 306.85,-412 300.85,-406 300.85,-400 300.85,-400 300.85,-388 300.85,-388 300.85,-382 306.85,-376 312.85,-376 312.85,-376 467.15,-376 467.15,-376 473.15,-376 479.15,-382 479.15,-388 479.15,-388 479.15,-400 479.15,-400 479.15,-406 473.15,-412 467.15,-412"/>
<text xml:space="preserve" text-anchor="middle" x="390" y="-391" font-family="Helvetica,sans-Serif" font-size="10.00">compactSpectralTruncationOfBessel</text>
</a>
</g>
</g>
<!-- n11&#45;&gt;n0 -->
<g id="edge20" class="edge">
<title>n11&#45;&gt;n0</title>
<path fill="none" stroke="#64748b" d="M300.63,-378.67C252.17,-369.33 198.47,-355.93 180,-340 166.87,-328.68 177.91,-315.56 165,-304 122.57,-266 80.65,-309.84 42,-268 -12.4,-209.1 -9.93,-136.39 54,-88 96.84,-55.57 442.25,-41.76 603.11,-37.05"/>
<polygon fill="#64748b" stroke="#64748b" points="603.13,-39.5 610.06,-36.85 602.99,-34.6 603.13,-39.5"/>
</g>
<!-- n11&#45;&gt;n2 -->
<g id="edge22" class="edge">
<title>n11&#45;&gt;n2</title>
<path fill="none" stroke="#64748b" d="M314.07,-375.52C268.45,-365.01 210.51,-351.67 164.44,-341.06"/>
<polygon fill="#64748b" stroke="#64748b" points="165.12,-338.7 157.75,-339.52 164.02,-343.48 165.12,-338.7"/>
</g>
<!-- n11&#45;&gt;n3 -->
<g id="edge23" class="edge">
<title>n11&#45;&gt;n3</title>
<path fill="none" stroke="#64748b" d="M423.08,-375.65C458.15,-355.2 511.63,-317.61 535,-268 555.82,-223.79 557.61,-165.56 556.6,-132.61"/>
<polygon fill="#64748b" stroke="#64748b" points="559.06,-132.82 556.33,-125.93 554.16,-133.02 559.06,-132.82"/>
</g>
<!-- n11&#45;&gt;n4 -->
<g id="edge21" class="edge">
<title>n11&#45;&gt;n4</title>
<path fill="none" stroke="#64748b" d="M413.45,-375.76C435.88,-357.18 463.71,-327.18 445,-304 397.3,-244.92 325.7,-327.08 278,-268 260.9,-246.82 282.76,-220.3 304.17,-201.74"/>
<polygon fill="#64748b" stroke="#64748b" points="305.49,-203.83 309.3,-197.46 302.35,-200.07 305.49,-203.83"/>
</g>
<!-- n11&#45;&gt;n6 -->
<g id="edge24" class="edge">
<title>n11&#45;&gt;n6</title>
<path fill="none" stroke="#64748b" d="M425.05,-375.6C438.56,-366.91 452.54,-355.01 460,-340 470.71,-318.47 457.91,-292.93 444.7,-274.75"/>
<polygon fill="#64748b" stroke="#64748b" points="446.97,-273.69 440.78,-269.61 443.08,-276.66 446.97,-273.69"/>
</g>
<!-- n11&#45;&gt;n8 -->
<g id="edge25" class="edge">
<title>n11&#45;&gt;n8</title>
<path fill="none" stroke="#64748b" d="M300.73,-380.3C268.39,-372.53 232.98,-360.03 205,-340 189.16,-328.66 195.87,-315.3 180,-304 131.87,-269.71 87.68,-315.11 52,-268 42.34,-255.25 45.42,-246.59 52,-232 57.34,-220.15 66.79,-209.89 76.63,-201.63"/>
<polygon fill="#64748b" stroke="#64748b" points="77.96,-203.7 81.92,-197.44 74.91,-199.86 77.96,-203.7"/>
</g>
<!-- n11&#45;&gt;n10 -->
<g id="edge26" class="edge">
<title>n11&#45;&gt;n10</title>
<path fill="none" stroke="#64748b" d="M373.93,-375.7C365.67,-366.8 355.48,-355.82 346.54,-346.2"/>
<polygon fill="#64748b" stroke="#64748b" points="348.47,-344.68 341.91,-341.21 344.88,-348.01 348.47,-344.68"/>
</g>
<!-- n12 -->
<g id="node13" class="node">
<title>n12</title>
<g id="a_node13"><a xlink:href="vscode://vscode-remote/wsl+Ubuntu/home/gavin/statlib/Statlib/Mathlib/MeasureTheory/L2Separable.lean:108" xlink:title="structure · Statlib/Mathlib/MeasureTheory/L2Separable.lean:108" target="_blank">
<path fill="#e8dcff" stroke="#8b5cf6" d="M1156.58,-196C1156.58,-196 1073.42,-196 1073.42,-196 1067.42,-196 1061.42,-190 1061.42,-184 1061.42,-184 1061.42,-172 1061.42,-172 1061.42,-166 1067.42,-160 1073.42,-160 1073.42,-160 1156.58,-160 1156.58,-160 1162.58,-160 1168.58,-166 1168.58,-172 1168.58,-172 1168.58,-184 1168.58,-184 1168.58,-190 1162.58,-196 1156.58,-196"/>
<text xml:space="preserve" text-anchor="middle" x="1115" y="-175" font-family="Helvetica,sans-Serif" font-size="10.00">OrthonormalBasisL2</text>
</a>
</g>
</g>
<!-- n13 -->
<g id="node14" class="node">
<title>n13</title>
<g id="a_node14"><a xlink:href="vscode://vscode-remote/wsl+Ubuntu/home/gavin/statlib/Statlib/Mathlib/MeasureTheory/L2Separable.lean:153" xlink:title="noncomputable def · Statlib/Mathlib/MeasureTheory/L2Separable.lean:153" target="_blank">
<path fill="#d6e9ff" stroke="#3b82f6" d="M1126.84,-268C1126.84,-268 1073.16,-268 1073.16,-268 1067.16,-268 1061.16,-262 1061.16,-256 1061.16,-256 1061.16,-244 1061.16,-244 1061.16,-238 1067.16,-232 1073.16,-232 1073.16,-232 1126.84,-232 1126.84,-232 1132.84,-232 1138.84,-238 1138.84,-244 1138.84,-244 1138.84,-256 1138.84,-256 1138.84,-262 1132.84,-268 1126.84,-268"/>
<text xml:space="preserve" text-anchor="middle" x="1100" y="-247" font-family="Helvetica,sans-Serif" font-size="10.00">toHilbertBasis</text>
</a>
</g>
</g>
<!-- n13&#45;&gt;n12 -->
<g id="edge27" class="edge">
<title>n13&#45;&gt;n12</title>
<path fill="none" stroke="#64748b" d="M1103.71,-231.7C1105.47,-223.47 1107.61,-213.48 1109.55,-204.42"/>
<polygon fill="#64748b" stroke="#64748b" points="1111.95,-204.94 1111.02,-197.58 1107.16,-203.92 1111.95,-204.94"/>
</g>
<!-- n14 -->
<g id="node15" class="node">
<title>n14</title>
<g id="a_node15"><a xlink:href="vscode://vscode-remote/wsl+Ubuntu/home/gavin/statlib/Statlib/Mathlib/Analysis/SpectralCompactSelfAdjoint.lean:323" xlink:title="theorem · Statlib/Mathlib/Analysis/SpectralCompactSelfAdjoint.lean:323" target="_blank">
<path fill="#ffe6a3" stroke="#d4a017" d="M1136.86,-124C1136.86,-124 1053.14,-124 1053.14,-124 1047.14,-124 1041.14,-118 1041.14,-112 1041.14,-112 1041.14,-100 1041.14,-100 1041.14,-94 1047.14,-88 1053.14,-88 1053.14,-88 1136.86,-88 1136.86,-88 1142.86,-88 1148.86,-94 1148.86,-100 1148.86,-100 1148.86,-112 1148.86,-112 1148.86,-118 1142.86,-124 1136.86,-124"/>
<text xml:space="preserve" text-anchor="middle" x="1095" y="-103" font-family="Helvetica,sans-Serif" font-size="10.00">orthonormal_eigenfn</text>
</a>
</g>
</g>
<!-- n14&#45;&gt;n0 -->
<g id="edge28" class="edge">
<title>n14&#45;&gt;n0</title>
<path fill="none" stroke="#64748b" d="M1040.91,-91C1036.22,-89.93 1031.53,-88.92 1027,-88 938.57,-70.13 836.23,-54.99 766.71,-45.53"/>
<polygon fill="#64748b" stroke="#64748b" points="767.16,-43.12 759.89,-44.6 766.5,-47.97 767.16,-43.12"/>
</g>
<!-- n15 -->
<g id="node16" class="node">
<title>n15</title>
<g id="a_node16"><a xlink:href="vscode://vscode-remote/wsl+Ubuntu/home/gavin/statlib/Statlib/Mathlib/Analysis/BesselCompactSA.lean:77" xlink:title="noncomputable def · Statlib/Mathlib/Analysis/BesselCompactSA.lean:77" target="_blank">
<path fill="#d6e9ff" stroke="#3b82f6" d="M971.26,-340C971.26,-340 784.74,-340 784.74,-340 778.74,-340 772.74,-334 772.74,-328 772.74,-328 772.74,-316 772.74,-316 772.74,-310 778.74,-304 784.74,-304 784.74,-304 971.26,-304 971.26,-304 977.26,-304 983.26,-310 983.26,-316 983.26,-316 983.26,-328 983.26,-328 983.26,-334 977.26,-340 971.26,-340"/>
<text xml:space="preserve" text-anchor="middle" x="878" y="-319" font-family="Helvetica,sans-Serif" font-size="10.00">SpectralTheoremCompactSA.toHilbertBasis</text>
</a>
</g>
</g>
<!-- n15&#45;&gt;n0 -->
<g id="edge30" class="edge">
<title>n15&#45;&gt;n0</title>
<path fill="none" stroke="#64748b" d="M960.79,-303.54C978.95,-295.72 996.01,-284.39 1007,-268 1029.27,-234.77 1032.89,-118.49 1007,-88 976.75,-52.37 851.72,-40.65 766.66,-36.82"/>
<polygon fill="#64748b" stroke="#64748b" points="766.91,-34.38 759.81,-36.53 766.7,-39.28 766.91,-34.38"/>
</g>
<!-- n15&#45;&gt;n1 -->
<g id="edge31" class="edge">
<title>n15&#45;&gt;n1</title>
<path fill="none" stroke="#64748b" d="M970.61,-303.51C1022.79,-293.48 1089.11,-280.45 1148,-268 1148.18,-267.96 1148.36,-267.92 1148.54,-267.89"/>
<polygon fill="#64748b" stroke="#64748b" points="1148.96,-270.3 1155.29,-266.44 1147.93,-265.51 1148.96,-270.3"/>
</g>
<!-- n15&#45;&gt;n13 -->
<g id="edge29" class="edge">
<title>n15&#45;&gt;n13</title>
<path fill="none" stroke="#64748b" d="M933.98,-303.54C966.9,-293.25 1009.34,-279.95 1047,-268 1048.97,-267.37 1050.99,-266.73 1053.03,-266.08"/>
<polygon fill="#64748b" stroke="#64748b" points="1053.57,-268.48 1059.49,-264.02 1052.08,-263.82 1053.57,-268.48"/>
</g>
<!-- n15&#45;&gt;n14 -->
<g id="edge32" class="edge">
<title>n15&#45;&gt;n14</title>
<path fill="none" stroke="#64748b" d="M971.71,-303.54C992.35,-295.72 1012.38,-284.39 1027,-268 1059.79,-231.23 1030.37,-204.27 1052,-160 1057.14,-149.48 1064.72,-139.19 1072.09,-130.51"/>
<polygon fill="#64748b" stroke="#64748b" points="1073.85,-132.22 1076.64,-125.35 1070.17,-128.98 1073.85,-132.22"/>
</g>
<!-- n16 -->
<g id="node17" class="node">
<title>n16</title>
<g id="a_node17"><a xlink:href="vscode://vscode-remote/wsl+Ubuntu/home/gavin/statlib/Statlib/Mathlib/Analysis/Parseval.lean:80" xlink:title="theorem · Statlib/Mathlib/Analysis/Parseval.lean:80" target="_blank">
<path fill="#ffe6a3" stroke="#d4a017" d="M1102.64,-340C1102.64,-340 1013.36,-340 1013.36,-340 1007.36,-340 1001.36,-334 1001.36,-328 1001.36,-328 1001.36,-316 1001.36,-316 1001.36,-310 1007.36,-304 1013.36,-304 1013.36,-304 1102.64,-304 1102.64,-304 1108.64,-304 1114.64,-310 1114.64,-316 1114.64,-316 1114.64,-328 1114.64,-328 1114.64,-334 1108.64,-340 1102.64,-340"/>
<text xml:space="preserve" text-anchor="middle" x="1058" y="-319" font-family="Helvetica,sans-Serif" font-size="10.00">parseval_identity_real</text>
</a>
</g>
</g>
<!-- n17 -->
<g id="node18" class="node">
<title>n17</title>
<g id="a_node18"><a xlink:href="vscode://vscode-remote/wsl+Ubuntu/home/gavin/statlib/Statlib/Mathlib/Analysis/BesselCompactSA.lean:93" xlink:title="private lemma · Statlib/Mathlib/Analysis/BesselCompactSA.lean:93" target="_blank">
<path fill="#eef2f6" stroke="#94a3b8" d="M950.6,-268C950.6,-268 807.4,-268 807.4,-268 801.4,-268 795.4,-262 795.4,-256 795.4,-256 795.4,-244 795.4,-244 795.4,-238 801.4,-232 807.4,-232 807.4,-232 950.6,-232 950.6,-232 956.6,-232 962.6,-238 962.6,-244 962.6,-244 962.6,-256 962.6,-256 962.6,-262 956.6,-268 950.6,-268"/>
<text xml:space="preserve" text-anchor="middle" x="879" y="-247" font-family="Helvetica,sans-Serif" font-size="10.00">inner_eigenfn_spectralTruncate_lt</text>
</a>
</g>
</g>
<!-- n17&#45;&gt;n0 -->
<g id="edge33" class="edge">
<title>n17&#45;&gt;n0</title>
<path fill="none" stroke="#64748b" d="M863.45,-231.85C828.9,-193.74 745.69,-101.95 706.33,-58.52"/>
<polygon fill="#64748b" stroke="#64748b" points="708.16,-56.89 701.64,-53.35 704.52,-60.19 708.16,-56.89"/>
</g>
<!-- n17&#45;&gt;n3 -->
<g id="edge34" class="edge">
<title>n17&#45;&gt;n3</title>
<path fill="none" stroke="#64748b" d="M842.8,-231.53C804.39,-213.16 741.8,-183.69 687,-160 661.12,-148.82 632.08,-137.07 607.84,-127.48"/>
<polygon fill="#64748b" stroke="#64748b" points="608.97,-125.3 601.55,-125.01 607.17,-129.85 608.97,-125.3"/>
</g>
<!-- n17&#45;&gt;n5 -->
<g id="edge35" class="edge">
<title>n17&#45;&gt;n5</title>
<path fill="none" stroke="#64748b" d="M822.05,-231.52C779.38,-218.42 722.34,-200.9 686.12,-189.78"/>
<polygon fill="#64748b" stroke="#64748b" points="687.14,-187.53 679.73,-187.82 685.7,-192.22 687.14,-187.53"/>
</g>
<!-- n18 -->
<g id="node19" class="node">
<title>n18</title>
<g id="a_node19"><a xlink:href="vscode://vscode-remote/wsl+Ubuntu/home/gavin/statlib/Statlib/Mathlib/Analysis/BesselCompactSA.lean:123" xlink:title="private lemma · Statlib/Mathlib/Analysis/BesselCompactSA.lean:123" target="_blank">
<path fill="#eef2f6" stroke="#94a3b8" d="M765.66,-268C765.66,-268 616.34,-268 616.34,-268 610.34,-268 604.34,-262 604.34,-256 604.34,-256 604.34,-244 604.34,-244 604.34,-238 610.34,-232 616.34,-232 616.34,-232 765.66,-232 765.66,-232 771.66,-232 777.66,-238 777.66,-244 777.66,-244 777.66,-256 777.66,-256 777.66,-262 771.66,-268 765.66,-268"/>
<text xml:space="preserve" text-anchor="middle" x="691" y="-247" font-family="Helvetica,sans-Serif" font-size="10.00">inner_eigenfn_spectralTruncate_ge</text>
</a>
</g>
</g>
<!-- n18&#45;&gt;n0 -->
<g id="edge36" class="edge">
<title>n18&#45;&gt;n0</title>
<path fill="none" stroke="#64748b" d="M690.52,-231.85C689.47,-194.36 686.96,-104.95 685.72,-60.7"/>
<polygon fill="#64748b" stroke="#64748b" points="688.17,-60.67 685.53,-53.75 683.27,-60.81 688.17,-60.67"/>
</g>
<!-- n18&#45;&gt;n3 -->
<g id="edge37" class="edge">
<title>n18&#45;&gt;n3</title>
<path fill="none" stroke="#64748b" d="M660.91,-231.67C646.09,-222.26 628.54,-209.76 615,-196 612.28,-193.24 587.76,-156.48 570.92,-131.08"/>
<polygon fill="#64748b" stroke="#64748b" points="573.14,-130 567.23,-125.51 569.06,-132.7 573.14,-130"/>
</g>
<!-- n18&#45;&gt;n5 -->
<g id="edge38" class="edge">
<title>n18&#45;&gt;n5</title>
<path fill="none" stroke="#64748b" d="M681.11,-231.7C676.22,-223.14 670.23,-212.66 664.89,-203.3"/>
<polygon fill="#64748b" stroke="#64748b" points="667.13,-202.28 661.52,-197.42 662.87,-204.71 667.13,-202.28"/>
</g>
<!-- n19 -->
<g id="node20" class="node">
<title>n19</title>
<g id="a_node20"><a xlink:href="vscode://vscode-remote/wsl+Ubuntu/home/gavin/statlib/Statlib/Mathlib/Analysis/BesselCompactSA.lean:142" xlink:title="private lemma · Statlib/Mathlib/Analysis/BesselCompactSA.lean:142" target="_blank">
<path fill="#eef2f6" stroke="#94a3b8" d="M722.59,-340C722.59,-340 629.41,-340 629.41,-340 623.41,-340 617.41,-334 617.41,-328 617.41,-328 617.41,-316 617.41,-316 617.41,-310 623.41,-304 629.41,-304 629.41,-304 722.59,-304 722.59,-304 728.59,-304 734.59,-310 734.59,-316 734.59,-316 734.59,-328 734.59,-328 734.59,-334 728.59,-340 722.59,-340"/>
<text xml:space="preserve" text-anchor="middle" x="676" y="-319" font-family="Helvetica,sans-Serif" font-size="10.00">inner_eigenfn_residual</text>
</a>
</g>
</g>
<!-- n19&#45;&gt;n0 -->
<g id="edge39" class="edge">
<title>n19&#45;&gt;n0</title>
<path fill="none" stroke="#64748b" d="M734.89,-306.92C739.66,-305.89 744.4,-304.91 749,-304 798.25,-294.3 939.46,-306.22 972,-268 1050.95,-175.28 855.18,-92 748.57,-55.11"/>
<polygon fill="#64748b" stroke="#64748b" points="749.59,-52.87 742.18,-52.92 748,-57.5 749.59,-52.87"/>
</g>
<!-- n19&#45;&gt;n3 -->
<g id="edge40" class="edge">
<title>n19&#45;&gt;n3</title>
<path fill="none" stroke="#64748b" d="M636.92,-303.5C621.73,-294.86 605.49,-283.02 595,-268 566.8,-227.6 582.27,-207.72 570,-160 567.65,-150.88 564.89,-140.93 562.38,-132.14"/>
<polygon fill="#64748b" stroke="#64748b" points="564.79,-131.63 560.49,-125.58 560.08,-132.99 564.79,-131.63"/>
</g>
<!-- n19&#45;&gt;n17 -->
<g id="edge41" class="edge">
<title>n19&#45;&gt;n17</title>
<path fill="none" stroke="#64748b" d="M726.7,-303.52C755.27,-293.67 791.07,-281.32 820.78,-271.07"/>
<polygon fill="#64748b" stroke="#64748b" points="821.34,-273.47 827.16,-268.88 819.75,-268.84 821.34,-273.47"/>
</g>
<!-- n19&#45;&gt;n18 -->
<g id="edge42" class="edge">
<title>n19&#45;&gt;n18</title>
<path fill="none" stroke="#64748b" d="M679.71,-303.7C681.47,-295.47 683.61,-285.48 685.55,-276.42"/>
<polygon fill="#64748b" stroke="#64748b" points="687.95,-276.94 687.02,-269.58 683.16,-275.92 687.95,-276.94"/>
</g>
<!-- n20 -->
<g id="node21" class="node">
<title>n20</title>
<g id="a_node21"><a xlink:href="vscode://vscode-remote/wsl+Ubuntu/home/gavin/statlib/Statlib/Mathlib/Analysis/Parseval.lean:94" xlink:title="theorem · Statlib/Mathlib/Analysis/Parseval.lean:94" target="_blank">
<path fill="#ffe6a3" stroke="#d4a017" d="M1217.3,-340C1217.3,-340 1144.7,-340 1144.7,-340 1138.7,-340 1132.7,-334 1132.7,-328 1132.7,-328 1132.7,-316 1132.7,-316 1132.7,-310 1138.7,-304 1144.7,-304 1144.7,-304 1217.3,-304 1217.3,-304 1223.3,-304 1229.3,-310 1229.3,-316 1229.3,-316 1229.3,-328 1229.3,-328 1229.3,-334 1223.3,-340 1217.3,-340"/>
<text xml:space="preserve" text-anchor="middle" x="1181" y="-319" font-family="Helvetica,sans-Serif" font-size="10.00">bessel_summable</text>
</a>
</g>
</g>
<!-- n21 -->
<g id="node22" class="node">
<title>n21</title>
<g id="a_node22"><a xlink:href="vscode://vscode-remote/wsl+Ubuntu/home/gavin/statlib/Statlib/Mathlib/Analysis/BesselCompactSA.lean:177" xlink:title="theorem · Statlib/Mathlib/Analysis/BesselCompactSA.lean:177" target="_blank">
<path fill="#ffe6a3" stroke="#d4a017" d="M953.22,-412C953.22,-412 802.78,-412 802.78,-412 796.78,-412 790.78,-406 790.78,-400 790.78,-400 790.78,-388 790.78,-388 790.78,-382 796.78,-376 802.78,-376 802.78,-376 953.22,-376 953.22,-376 959.22,-376 965.22,-382 965.22,-388 965.22,-388 965.22,-400 965.22,-400 965.22,-406 959.22,-412 953.22,-412"/>
<text xml:space="preserve" text-anchor="middle" x="878" y="-391" font-family="Helvetica,sans-Serif" font-size="10.00">besselSquaredNormBound_of_total</text>
</a>
</g>
</g>
<!-- n21&#45;&gt;n0 -->
<g id="edge43" class="edge">
<title>n21&#45;&gt;n0</title>
<path fill="none" stroke="#64748b" d="M808.79,-375.54C791.22,-367.64 774.39,-356.29 764,-340 755.4,-326.51 753.63,-316.19 764,-304 828.78,-227.87 921.22,-344.13 986,-268 999.88,-251.69 986,-177.79 975,-160 930.87,-88.64 835.87,-57.93 766.59,-44.77"/>
<polygon fill="#64748b" stroke="#64748b" points="767.09,-42.37 759.77,-43.52 766.21,-47.19 767.09,-42.37"/>
</g>
<!-- n21&#45;&gt;n1 -->
<g id="edge44" class="edge">
<title>n21&#45;&gt;n1</title>
<path fill="none" stroke="#64748b" d="M965.34,-393.1C1062.73,-391.13 1211.29,-381.21 1247,-340 1262.52,-322.09 1252.05,-295.12 1240.47,-275.57"/>
<polygon fill="#64748b" stroke="#64748b" points="1242.62,-274.39 1236.83,-269.75 1238.47,-276.98 1242.62,-274.39"/>
</g>
<!-- n21&#45;&gt;n3 -->
<g id="edge48" class="edge">
<title>n21&#45;&gt;n3</title>
<path fill="none" stroke="#64748b" d="M790.57,-384.51C722.83,-376.37 635.95,-362.03 608,-340 580.35,-318.21 584.62,-301.86 575,-268 571.39,-255.29 562.33,-174.71 557.74,-132.58"/>
<polygon fill="#64748b" stroke="#64748b" points="560.19,-132.42 557,-125.72 555.32,-132.94 560.19,-132.42"/>
</g>
<!-- n21&#45;&gt;n4 -->
<g id="edge45" class="edge">
<title>n21&#45;&gt;n4</title>
<path fill="none" stroke="#64748b" d="M790.51,-382.25C726.2,-373.42 636.97,-359.23 560,-340 511.32,-327.84 501.11,-318.26 453,-304 391.4,-285.74 352.37,-318.77 313,-268 298.62,-249.46 308.1,-222.75 318.73,-203.44"/>
<polygon fill="#64748b" stroke="#64748b" points="320.79,-204.76 322.2,-197.48 316.56,-202.29 320.79,-204.76"/>
</g>
<!-- n21&#45;&gt;n13 -->
<g id="edge47" class="edge">
<title>n21&#45;&gt;n13</title>
<path fill="none" stroke="#64748b" d="M965.35,-392.72C1060.4,-390.34 1203.47,-379.98 1238,-340 1248.46,-327.89 1247.06,-317.19 1238,-304 1236.59,-301.95 1186.2,-282.92 1146.71,-268.24"/>
<polygon fill="#64748b" stroke="#64748b" points="1147.82,-266.03 1140.4,-265.89 1146.11,-270.63 1147.82,-266.03"/>
</g>
<!-- n21&#45;&gt;n15 -->
<g id="edge46" class="edge">
<title>n21&#45;&gt;n15</title>
<path fill="none" stroke="#64748b" d="M878,-375.7C878,-367.47 878,-357.48 878,-348.42"/>
<polygon fill="#64748b" stroke="#64748b" points="880.45,-348.62 878,-341.62 875.55,-348.62 880.45,-348.62"/>
</g>
<!-- n21&#45;&gt;n16 -->
<g id="edge49" class="edge">
<title>n21&#45;&gt;n16</title>
<path fill="none" stroke="#64748b" d="M922.96,-375.52C948.07,-365.75 979.49,-353.53 1005.71,-343.34"/>
<polygon fill="#64748b" stroke="#64748b" points="1006.26,-345.75 1011.89,-340.93 1004.48,-341.18 1006.26,-345.75"/>
</g>
<!-- n21&#45;&gt;n19 -->
<g id="edge50" class="edge">
<title>n21&#45;&gt;n19</title>
<path fill="none" stroke="#64748b" d="M827.55,-375.52C799.12,-365.67 763.5,-353.32 733.93,-343.07"/>
<polygon fill="#64748b" stroke="#64748b" points="735.01,-340.85 727.59,-340.88 733.4,-345.48 735.01,-340.85"/>
</g>
<!-- n21&#45;&gt;n20 -->
<g id="edge51" class="edge">
<title>n21&#45;&gt;n20</title>
<path fill="none" stroke="#64748b" d="M965.48,-375.87C1012.65,-366.21 1071.74,-353.4 1124,-340 1124.08,-339.98 1124.17,-339.96 1124.25,-339.93"/>
<polygon fill="#64748b" stroke="#64748b" points="1124.65,-342.36 1130.79,-338.2 1123.39,-337.63 1124.65,-342.36"/>
</g>
<!-- n22 -->
<g id="node23" class="node">
<title>n22</title>
<g id="a_node23"><a xlink:href="vscode://vscode-remote/wsl+Ubuntu/home/gavin/statlib/Statlib/Mathlib/Analysis/BesselCompactSA.lean:309" xlink:title="noncomputable def · Statlib/Mathlib/Analysis/BesselCompactSA.lean:309" target="_blank">
<path fill="#d6e9ff" stroke="#3b82f6" stroke-width="3" d="M951.26,-484C951.26,-484 804.74,-484 804.74,-484 798.74,-484 792.74,-478 792.74,-472 792.74,-472 792.74,-460 792.74,-460 792.74,-454 798.74,-448 804.74,-448 804.74,-448 951.26,-448 951.26,-448 957.26,-448 963.26,-454 963.26,-460 963.26,-460 963.26,-472 963.26,-472 963.26,-478 957.26,-484 951.26,-484"/>
<text xml:space="preserve" text-anchor="middle" x="878" y="-463" font-family="Helvetica,sans-Serif" font-size="10.00">compactSpectralTruncationOfTotal</text>
</a>
</g>
</g>
<!-- n22&#45;&gt;n0 -->
<g id="edge52" class="edge">
<title>n22&#45;&gt;n0</title>
<path fill="none" stroke="#64748b" d="M964.58,-462.93C1031.51,-458.5 1125.07,-446.02 1200,-412 1256.63,-386.29 1308,-385.2 1308,-323 1308,-323 1308,-323 1308,-177 1308,-67.23 935.66,-42.31 766.68,-36.66"/>
<polygon fill="#64748b" stroke="#64748b" points="766.89,-34.22 759.81,-36.44 766.73,-39.11 766.89,-34.22"/>
</g>
<!-- n22&#45;&gt;n1 -->
<g id="edge53" class="edge">
<title>n22&#45;&gt;n1</title>
<path fill="none" stroke="#64748b" d="M964.46,-463.71C1053.98,-457.18 1189.81,-431.6 1256,-340 1270.18,-320.37 1257.21,-293.95 1243.58,-275"/>
<polygon fill="#64748b" stroke="#64748b" points="1245.67,-273.7 1239.49,-269.6 1241.76,-276.66 1245.67,-273.7"/>
</g>
<!-- n22&#45;&gt;n2 -->
<g id="edge54" class="edge">
<title>n22&#45;&gt;n2</title>
<path fill="none" stroke="#64748b" d="M791.66,-465.68C676.07,-464.67 465.5,-456.12 292,-412 231.34,-396.58 165.69,-365.46 125.2,-344.42"/>
<polygon fill="#64748b" stroke="#64748b" points="126.37,-342.27 119.04,-341.19 124.1,-346.61 126.37,-342.27"/>
</g>
<!-- n22&#45;&gt;n11 -->
<g id="edge55" class="edge">
<title>n22&#45;&gt;n11</title>
<path fill="none" stroke="#64748b" d="M791.32,-452.57C706.19,-440.36 576.54,-421.76 487.78,-409.03"/>
<polygon fill="#64748b" stroke="#64748b" points="488.36,-406.63 481.09,-408.07 487.67,-411.48 488.36,-406.63"/>
</g>
<!-- n22&#45;&gt;n21 -->
<g id="edge56" class="edge">
<title>n22&#45;&gt;n21</title>
<path fill="none" stroke="#64748b" d="M878,-446.61C878,-438.59 878,-429.05 878,-420.37"/>
<polygon fill="#64748b" stroke="#64748b" points="880.45,-420.58 878,-413.58 875.55,-420.58 880.45,-420.58"/>
</g>
</g>
</svg>
