<?xml version="1.0" encoding="UTF-8" standalone="no"?>
<!DOCTYPE svg PUBLIC "-//W3C//DTD SVG 1.1//EN"
 "http://www.w3.org/Graphics/SVG/1.1/DTD/svg11.dtd">
<!-- Generated by graphviz version 15.0.0 (20260523.1842)
 -->
<!-- Title: dudleySum_le_2D_sup_log_root Pages: 1 -->
<svg width="677pt" height="338pt"
 viewBox="0.00 0.00 677.00 338.00" xmlns="http://www.w3.org/2000/svg" xmlns:xlink="http://www.w3.org/1999/xlink">
<g id="graph0" class="graph" transform="scale(1 1) rotate(0) translate(4 334)">
<title>dudleySum_le_2D_sup_log_root</title>
<polygon fill="white" stroke="none" points="-4,4 -4,-334 673,-334 673,4 -4,4"/>
<text xml:space="preserve" text-anchor="middle" x="334.5" y="-313.4" font-family="Helvetica,sans-Serif" font-size="14.00">Proof narrative — dudleySum_le_2D_sup_log_root &#160;(13 decls)</text>
<g id="clust1" class="cluster">
<title>cluster_0</title>
<path fill="none" stroke="#cbd5e1" stroke-dasharray="5,2" d="M20,-8C20,-8 649,-8 649,-8 655,-8 661,-14 661,-20 661,-20 661,-285.2 661,-285.2 661,-291.2 655,-297.2 649,-297.2 649,-297.2 20,-297.2 20,-297.2 14,-297.2 8,-291.2 8,-285.2 8,-285.2 8,-20 8,-20 8,-14 14,-8 20,-8"/>
<text xml:space="preserve" text-anchor="middle" x="334.5" y="-283.3" font-family="Helvetica,sans-Serif" font-size="11.00">Mathlib</text>
</g>
<!-- n0 -->
<g id="node1" class="node">
<title>n0</title>
<g id="a_node1"><a xlink:href="vscode://vscode-remote/wsl+Ubuntu/home/gavin/statlib/Statlib/Mathlib/EmpiricalProcess/VWChaining.lean:300" xlink:title="noncomputable def · Statlib/Mathlib/EmpiricalProcess/VWChaining.lean:300" target="_blank">
<path fill="#d6e9ff" stroke="#3b82f6" d="M73.01,-124C73.01,-124 30.99,-124 30.99,-124 24.99,-124 18.99,-118 18.99,-112 18.99,-112 18.99,-100 18.99,-100 18.99,-94 24.99,-88 30.99,-88 30.99,-88 73.01,-88 73.01,-88 79.01,-88 85.01,-94 85.01,-100 85.01,-100 85.01,-112 85.01,-112 85.01,-118 79.01,-124 73.01,-124"/>
<text xml:space="preserve" text-anchor="middle" x="52" y="-103" font-family="Helvetica,sans-Serif" font-size="10.00">dudleySum</text>
</a>
</g>
</g>
<!-- n1 -->
<g id="node2" class="node">
<title>n1</title>
<g id="a_node2"><a xlink:href="vscode://vscode-remote/wsl+Ubuntu/home/gavin/statlib/Statlib/Mathlib/EmpiricalProcess/VWChaining.lean:101" xlink:title="noncomputable def · Statlib/Mathlib/EmpiricalProcess/VWChaining.lean:101" target="_blank">
<path fill="#d6e9ff" stroke="#3b82f6" d="M292.96,-52C292.96,-52 247.04,-52 247.04,-52 241.04,-52 235.04,-46 235.04,-40 235.04,-40 235.04,-28 235.04,-28 235.04,-22 241.04,-16 247.04,-16 247.04,-16 292.96,-16 292.96,-16 298.96,-16 304.96,-22 304.96,-28 304.96,-28 304.96,-40 304.96,-40 304.96,-46 298.96,-52 292.96,-52"/>
<text xml:space="preserve" text-anchor="middle" x="270" y="-31" font-family="Helvetica,sans-Serif" font-size="10.00">dyadicScale</text>
</a>
</g>
</g>
<!-- n2 -->
<g id="node3" class="node">
<title>n2</title>
<g id="a_node3"><a xlink:href="vscode://vscode-remote/wsl+Ubuntu/home/gavin/statlib/Statlib/Mathlib/EmpiricalProcess/VWChaining.lean:132" xlink:title="lemma · Statlib/Mathlib/EmpiricalProcess/VWChaining.lean:132" target="_blank">
<path fill="#eef2f6" stroke="#94a3b8" d="M228.76,-124C228.76,-124 137.24,-124 137.24,-124 131.24,-124 125.24,-118 125.24,-112 125.24,-112 125.24,-100 125.24,-100 125.24,-94 131.24,-88 137.24,-88 137.24,-88 228.76,-88 228.76,-88 234.76,-88 240.76,-94 240.76,-100 240.76,-100 240.76,-112 240.76,-112 240.76,-118 234.76,-124 228.76,-124"/>
<text xml:space="preserve" text-anchor="middle" x="183" y="-103" font-family="Helvetica,sans-Serif" font-size="10.00">dyadicScale_eq_zpow</text>
</a>
</g>
</g>
<!-- n2&#45;&gt;n1 -->
<g id="edge1" class="edge">
<title>n2&#45;&gt;n1</title>
<path fill="none" stroke="#64748b" d="M204.51,-87.7C215.8,-78.61 229.78,-67.36 241.91,-57.6"/>
<polygon fill="#64748b" stroke="#64748b" points="243.34,-59.59 247.26,-53.3 240.27,-55.78 243.34,-59.59"/>
</g>
<!-- n3 -->
<g id="node4" class="node">
<title>n3</title>
<g id="a_node4"><a xlink:href="vscode://vscode-remote/wsl+Ubuntu/home/gavin/statlib/Statlib/Mathlib/EmpiricalProcess/VWChaining.lean:327" xlink:title="lemma · Statlib/Mathlib/EmpiricalProcess/VWChaining.lean:327" target="_blank">
<path fill="#eef2f6" stroke="#94a3b8" d="M190.32,-196C190.32,-196 47.68,-196 47.68,-196 41.68,-196 35.68,-190 35.68,-184 35.68,-184 35.68,-172 35.68,-172 35.68,-166 41.68,-160 47.68,-160 47.68,-160 190.32,-160 190.32,-160 196.32,-160 202.32,-166 202.32,-172 202.32,-172 202.32,-184 202.32,-184 202.32,-190 196.32,-196 190.32,-196"/>
<text xml:space="preserve" text-anchor="middle" x="119" y="-175" font-family="Helvetica,sans-Serif" font-size="10.00">dudleySum_eq_sum_dyadicScale</text>
</a>
</g>
</g>
<!-- n3&#45;&gt;n0 -->
<g id="edge2" class="edge">
<title>n3&#45;&gt;n0</title>
<path fill="none" stroke="#64748b" d="M102.44,-159.7C93.92,-150.8 83.42,-139.82 74.2,-130.2"/>
<polygon fill="#64748b" stroke="#64748b" points="76.03,-128.56 69.42,-125.2 72.49,-131.95 76.03,-128.56"/>
</g>
<!-- n3&#45;&gt;n1 -->
<g id="edge3" class="edge">
<title>n3&#45;&gt;n1</title>
<path fill="none" stroke="#64748b" d="M112.73,-159.83C106.85,-140.49 101.01,-109.02 116,-88 140.86,-53.16 190.16,-40.99 226.31,-36.86"/>
<polygon fill="#64748b" stroke="#64748b" points="226.5,-39.31 233.22,-36.17 226.01,-34.43 226.5,-39.31"/>
</g>
<!-- n3&#45;&gt;n2 -->
<g id="edge4" class="edge">
<title>n3&#45;&gt;n2</title>
<path fill="none" stroke="#64748b" d="M134.82,-159.7C142.96,-150.8 152.99,-139.82 161.79,-130.2"/>
<polygon fill="#64748b" stroke="#64748b" points="163.43,-132.04 166.34,-125.22 159.81,-128.73 163.43,-132.04"/>
</g>
<!-- n4 -->
<g id="node5" class="node">
<title>n4</title>
<g id="a_node5"><a xlink:href="vscode://vscode-remote/wsl+Ubuntu/home/gavin/statlib/Statlib/Mathlib/Analysis/SpectralCompactSelfAdjoint.lean:299" xlink:title="structure · Statlib/Mathlib/Analysis/SpectralCompactSelfAdjoint.lean:299" target="_blank">
<path fill="#e8dcff" stroke="#8b5cf6" d="M623.03,-52C623.03,-52 500.97,-52 500.97,-52 494.97,-52 488.97,-46 488.97,-40 488.97,-40 488.97,-28 488.97,-28 488.97,-22 494.97,-16 500.97,-16 500.97,-16 623.03,-16 623.03,-16 629.03,-16 635.03,-22 635.03,-28 635.03,-28 635.03,-40 635.03,-40 635.03,-46 629.03,-52 623.03,-52"/>
<text xml:space="preserve" text-anchor="middle" x="562" y="-31" font-family="Helvetica,sans-Serif" font-size="10.00">SpectralTheoremCompactSA</text>
</a>
</g>
</g>
<!-- n5 -->
<g id="node6" class="node">
<title>n5</title>
<g id="a_node6"><a xlink:href="vscode://vscode-remote/wsl+Ubuntu/home/gavin/statlib/Statlib/Mathlib/Analysis/SpectralTruncation.lean:98" xlink:title="noncomputable def · Statlib/Mathlib/Analysis/SpectralTruncation.lean:98" target="_blank">
<path fill="#d6e9ff" stroke="#3b82f6" d="M641.24,-124C641.24,-124 574.76,-124 574.76,-124 568.76,-124 562.76,-118 562.76,-112 562.76,-112 562.76,-100 562.76,-100 562.76,-94 568.76,-88 574.76,-88 574.76,-88 641.24,-88 641.24,-88 647.24,-88 653.24,-94 653.24,-100 653.24,-100 653.24,-112 653.24,-112 653.24,-118 647.24,-124 641.24,-124"/>
<text xml:space="preserve" text-anchor="middle" x="608" y="-103" font-family="Helvetica,sans-Serif" font-size="10.00">spectralTruncate</text>
</a>
</g>
</g>
<!-- n5&#45;&gt;n4 -->
<g id="edge5" class="edge">
<title>n5&#45;&gt;n4</title>
<path fill="none" stroke="#64748b" d="M596.63,-87.7C590.95,-79.05 583.98,-68.45 577.79,-59.03"/>
<polygon fill="#64748b" stroke="#64748b" points="579.96,-57.87 574.07,-53.37 575.87,-60.56 579.96,-57.87"/>
</g>
<!-- n6 -->
<g id="node7" class="node">
<title>n6</title>
<g id="a_node7"><a xlink:href="vscode://vscode-remote/wsl+Ubuntu/home/gavin/statlib/Statlib/Mathlib/Analysis/SpectralTruncation.lean:107" xlink:title="lemma · Statlib/Mathlib/Analysis/SpectralTruncation.lean:107" target="_blank">
<path fill="#eef2f6" stroke="#94a3b8" d="M641,-196C641,-196 611,-196 611,-196 605,-196 599,-190 599,-184 599,-184 599,-172 599,-172 599,-166 605,-160 611,-160 611,-160 641,-160 641,-160 647,-160 653,-166 653,-172 653,-172 653,-184 653,-184 653,-190 647,-196 641,-196"/>
<text xml:space="preserve" text-anchor="middle" x="626" y="-175" font-family="Helvetica,sans-Serif" font-size="10.00">apply</text>
</a>
</g>
</g>
<!-- n6&#45;&gt;n4 -->
<g id="edge6" class="edge">
<title>n6&#45;&gt;n4</title>
<path fill="none" stroke="#64748b" d="M598.56,-164.81C582.38,-156.01 563.31,-142.42 554,-124 544.04,-104.31 547.62,-79.03 552.76,-60.45"/>
<polygon fill="#64748b" stroke="#64748b" points="555.07,-61.28 554.76,-53.87 550.38,-59.86 555.07,-61.28"/>
</g>
<!-- n6&#45;&gt;n5 -->
<g id="edge7" class="edge">
<title>n6&#45;&gt;n5</title>
<path fill="none" stroke="#64748b" d="M621.55,-159.7C619.41,-151.39 616.81,-141.28 614.46,-132.14"/>
<polygon fill="#64748b" stroke="#64748b" points="616.89,-131.74 612.78,-125.57 612.15,-132.96 616.89,-131.74"/>
</g>
<!-- n7 -->
<g id="node8" class="node">
<title>n7</title>
<g id="a_node8"><a xlink:href="vscode://vscode-remote/wsl+Ubuntu/home/gavin/statlib/Statlib/Mathlib/EmpiricalProcess/VWChaining.lean:118" xlink:title="lemma · Statlib/Mathlib/EmpiricalProcess/VWChaining.lean:118" target="_blank">
<path fill="#eef2f6" stroke="#94a3b8" d="M317.43,-196C317.43,-196 232.57,-196 232.57,-196 226.57,-196 220.57,-190 220.57,-184 220.57,-184 220.57,-172 220.57,-172 220.57,-166 226.57,-160 232.57,-160 232.57,-160 317.43,-160 317.43,-160 323.43,-160 329.43,-166 329.43,-172 329.43,-172 329.43,-184 329.43,-184 329.43,-190 323.43,-196 317.43,-196"/>
<text xml:space="preserve" text-anchor="middle" x="275" y="-175" font-family="Helvetica,sans-Serif" font-size="10.00">dyadicScale_nonneg</text>
</a>
</g>
</g>
<!-- n7&#45;&gt;n1 -->
<g id="edge8" class="edge">
<title>n7&#45;&gt;n1</title>
<path fill="none" stroke="#64748b" d="M274.39,-159.59C273.51,-134.76 271.9,-89.01 270.89,-60.4"/>
<polygon fill="#64748b" stroke="#64748b" points="273.35,-60.53 270.66,-53.62 268.45,-60.71 273.35,-60.53"/>
</g>
<!-- n8 -->
<g id="node9" class="node">
<title>n8</title>
<g id="a_node9"><a xlink:href="vscode://vscode-remote/wsl+Ubuntu/home/gavin/statlib/Statlib/Mathlib/Statistics/LeCamThirdLemma.lean:86" xlink:title="def · Statlib/Mathlib/Statistics/LeCamThirdLemma.lean:86" target="_blank">
<path fill="#d6e9ff" stroke="#3b82f6" d="M513.23,-124C513.23,-124 476.77,-124 476.77,-124 470.77,-124 464.77,-118 464.77,-112 464.77,-112 464.77,-100 464.77,-100 464.77,-94 470.77,-88 476.77,-88 476.77,-88 513.23,-88 513.23,-88 519.23,-88 525.23,-94 525.23,-100 525.23,-100 525.23,-112 525.23,-112 525.23,-118 519.23,-124 513.23,-124"/>
<text xml:space="preserve" text-anchor="middle" x="495" y="-103" font-family="Helvetica,sans-Serif" font-size="10.00">Contiguity</text>
</a>
</g>
</g>
<!-- n9 -->
<g id="node10" class="node">
<title>n9</title>
<g id="a_node10"><a xlink:href="vscode://vscode-remote/wsl+Ubuntu/home/gavin/statlib/Statlib/Mathlib/Statistics/LeCamThirdLemma.lean:104" xlink:title="theorem · Statlib/Mathlib/Statistics/LeCamThirdLemma.lean:104" target="_blank">
<path fill="#ffe6a3" stroke="#d4a017" d="M569,-196C569,-196 539,-196 539,-196 533,-196 527,-190 527,-184 527,-184 527,-172 527,-172 527,-166 533,-160 539,-160 539,-160 569,-160 569,-160 575,-160 581,-166 581,-172 581,-172 581,-184 581,-184 581,-190 575,-196 569,-196"/>
<text xml:space="preserve" text-anchor="middle" x="554" y="-175" font-family="Helvetica,sans-Serif" font-size="10.00">trans</text>
</a>
</g>
</g>
<!-- n9&#45;&gt;n8 -->
<g id="edge9" class="edge">
<title>n9&#45;&gt;n8</title>
<path fill="none" stroke="#64748b" d="M539.42,-159.7C531.99,-150.88 522.84,-140.03 514.79,-130.47"/>
<polygon fill="#64748b" stroke="#64748b" points="516.78,-129.04 510.39,-125.26 513.03,-132.19 516.78,-129.04"/>
</g>
<!-- n10 -->
<g id="node11" class="node">
<title>n10</title>
<g id="a_node11"><a xlink:href="vscode://vscode-remote/wsl+Ubuntu/home/gavin/statlib/Statlib/Mathlib/EmpiricalProcess/VWChaining.lean:140" xlink:title="lemma · Statlib/Mathlib/EmpiricalProcess/VWChaining.lean:140" target="_blank">
<path fill="#eef2f6" stroke="#94a3b8" d="M415.43,-124C415.43,-124 310.57,-124 310.57,-124 304.57,-124 298.57,-118 298.57,-112 298.57,-112 298.57,-100 298.57,-100 298.57,-94 304.57,-88 310.57,-88 310.57,-88 415.43,-88 415.43,-88 421.43,-88 427.43,-94 427.43,-100 427.43,-100 427.43,-112 427.43,-112 427.43,-118 421.43,-124 415.43,-124"/>
<text xml:space="preserve" text-anchor="middle" x="363" y="-103" font-family="Helvetica,sans-Serif" font-size="10.00">dyadicScale_eq_div_pow</text>
</a>
</g>
</g>
<!-- n10&#45;&gt;n1 -->
<g id="edge10" class="edge">
<title>n10&#45;&gt;n1</title>
<path fill="none" stroke="#64748b" d="M340.01,-87.7C327.83,-78.53 312.72,-67.16 299.66,-57.33"/>
<polygon fill="#64748b" stroke="#64748b" points="301.32,-55.51 294.26,-53.26 298.38,-59.42 301.32,-55.51"/>
</g>
<!-- n11 -->
<g id="node12" class="node">
<title>n11</title>
<g id="a_node12"><a xlink:href="vscode://vscode-remote/wsl+Ubuntu/home/gavin/statlib/Statlib/Mathlib/EmpiricalProcess/VWChaining.lean:166" xlink:title="lemma · Statlib/Mathlib/EmpiricalProcess/VWChaining.lean:166" target="_blank">
<path fill="#eef2f6" stroke="#94a3b8" d="M476.81,-196C476.81,-196 359.19,-196 359.19,-196 353.19,-196 347.19,-190 347.19,-184 347.19,-184 347.19,-172 347.19,-172 347.19,-166 353.19,-160 359.19,-160 359.19,-160 476.81,-160 476.81,-160 482.81,-160 488.81,-166 488.81,-172 488.81,-172 488.81,-184 488.81,-184 488.81,-190 482.81,-196 476.81,-196"/>
<text xml:space="preserve" text-anchor="middle" x="418" y="-175" font-family="Helvetica,sans-Serif" font-size="10.00">sum_dyadicScale_le_two_D</text>
</a>
</g>
</g>
<!-- n11&#45;&gt;n1 -->
<g id="edge11" class="edge">
<title>n11&#45;&gt;n1</title>
<path fill="none" stroke="#64748b" d="M346.92,-161.1C325.91,-153.16 304.64,-141.39 290,-124 282,-114.49 276.29,-83.19 273.07,-60.39"/>
<polygon fill="#64748b" stroke="#64748b" points="275.52,-60.24 272.16,-53.63 270.67,-60.9 275.52,-60.24"/>
</g>
<!-- n11&#45;&gt;n10 -->
<g id="edge12" class="edge">
<title>n11&#45;&gt;n10</title>
<path fill="none" stroke="#64748b" d="M404.4,-159.7C397.54,-150.97 389.12,-140.24 381.66,-130.75"/>
<polygon fill="#64748b" stroke="#64748b" points="383.63,-129.29 377.37,-125.29 379.77,-132.31 383.63,-129.29"/>
</g>
<!-- n12 -->
<g id="node13" class="node">
<title>n12</title>
<g id="a_node13"><a xlink:href="vscode://vscode-remote/wsl+Ubuntu/home/gavin/statlib/Statlib/Mathlib/EmpiricalProcess/VWChaining.lean:343" xlink:title="theorem · Statlib/Mathlib/EmpiricalProcess/VWChaining.lean:343" target="_blank">
<path fill="#ffe6a3" stroke="#d4a017" stroke-width="3" d="M486.55,-268C486.55,-268 349.45,-268 349.45,-268 343.45,-268 337.45,-262 337.45,-256 337.45,-256 337.45,-244 337.45,-244 337.45,-238 343.45,-232 349.45,-232 349.45,-232 486.55,-232 486.55,-232 492.55,-232 498.55,-238 498.55,-244 498.55,-244 498.55,-256 498.55,-256 498.55,-262 492.55,-268 486.55,-268"/>
<text xml:space="preserve" text-anchor="middle" x="418" y="-247" font-family="Helvetica,sans-Serif" font-size="10.00">dudleySum_le_2D_sup_log_root</text>
</a>
</g>
</g>
<!-- n12&#45;&gt;n0 -->
<g id="edge13" class="edge">
<title>n12&#45;&gt;n0</title>
<path fill="none" stroke="#64748b" d="M336.35,-243.6C227.75,-235.57 47.03,-218.93 27,-196 11.36,-178.1 22.18,-151.13 34.08,-131.57"/>
<polygon fill="#64748b" stroke="#64748b" points="36.1,-132.96 37.82,-125.75 31.98,-130.31 36.1,-132.96"/>
</g>
<!-- n12&#45;&gt;n1 -->
<g id="edge15" class="edge">
<title>n12&#45;&gt;n1</title>
<path fill="none" stroke="#64748b" d="M461.71,-230.54C475.91,-222.2 490.04,-210.82 498,-196 505.57,-181.9 504.69,-174.54 498,-160 487.73,-137.66 471.55,-143.05 456,-124 444.43,-109.82 450.16,-99.6 436,-88 400.9,-59.25 349.95,-45.99 313.77,-39.95"/>
<polygon fill="#64748b" stroke="#64748b" points="314.16,-37.53 306.87,-38.86 313.4,-42.37 314.16,-37.53"/>
</g>
<!-- n12&#45;&gt;n3 -->
<g id="edge14" class="edge">
<title>n12&#45;&gt;n3</title>
<path fill="none" stroke="#64748b" d="M339.05,-230.52C296.71,-220.6 244.57,-208.4 201.67,-198.35"/>
<polygon fill="#64748b" stroke="#64748b" points="202.35,-196 194.97,-196.79 201.23,-200.77 202.35,-196"/>
</g>
<!-- n12&#45;&gt;n6 -->
<g id="edge16" class="edge">
<title>n12&#45;&gt;n6</title>
<path fill="none" stroke="#64748b" d="M485.74,-230.55C517.72,-221.22 556.21,-209.11 590,-196 590.35,-195.86 590.71,-195.72 591.07,-195.58"/>
<polygon fill="#64748b" stroke="#64748b" points="591.75,-197.95 597.26,-192.99 589.86,-193.43 591.75,-197.95"/>
</g>
<!-- n12&#45;&gt;n7 -->
<g id="edge17" class="edge">
<title>n12&#45;&gt;n7</title>
<path fill="none" stroke="#64748b" d="M380.43,-230.61C361.2,-221.2 337.72,-209.7 317.8,-199.95"/>
<polygon fill="#64748b" stroke="#64748b" points="319.08,-197.85 311.71,-196.97 316.92,-202.25 319.08,-197.85"/>
</g>
<!-- n12&#45;&gt;n9 -->
<g id="edge18" class="edge">
<title>n12&#45;&gt;n9</title>
<path fill="none" stroke="#64748b" d="M453.73,-230.61C473.97,-220.19 499.17,-207.22 519.25,-196.89"/>
<polygon fill="#64748b" stroke="#64748b" points="520.22,-199.14 525.32,-193.76 517.98,-194.79 520.22,-199.14"/>
</g>
<!-- n12&#45;&gt;n11 -->
<g id="edge19" class="edge">
<title>n12&#45;&gt;n11</title>
<path fill="none" stroke="#64748b" d="M418,-230.61C418,-222.59 418,-213.05 418,-204.37"/>
<polygon fill="#64748b" stroke="#64748b" points="420.45,-204.58 418,-197.58 415.55,-204.58 420.45,-204.58"/>
</g>
</g>
</svg>
