<?xml version="1.0" encoding="UTF-8" standalone="no"?>
<!DOCTYPE svg PUBLIC "-//W3C//DTD SVG 1.1//EN"
 "http://www.w3.org/Graphics/SVG/1.1/DTD/svg11.dtd">
<!-- Generated by graphviz version 15.0.0 (20260523.1842)
 -->
<!-- Title: fromCoxScoreSample Pages: 1 -->
<svg width="704pt" height="339pt"
 viewBox="0.00 0.00 704.00 339.00" xmlns="http://www.w3.org/2000/svg" xmlns:xlink="http://www.w3.org/1999/xlink">
<g id="graph0" class="graph" transform="scale(1 1) rotate(0) translate(4 335.2)">
<title>fromCoxScoreSample</title>
<polygon fill="white" stroke="none" points="-4,4 -4,-335.2 700,-335.2 700,4 -4,4"/>
<text xml:space="preserve" text-anchor="middle" x="348" y="-314.6" font-family="Helvetica,sans-Serif" font-size="14.00">Proof narrative — fromCoxScoreSample &#160;(13 decls)</text>
<g id="clust1" class="cluster">
<title>cluster_0</title>
<path fill="none" stroke="#cbd5e1" stroke-dasharray="5,2" d="M548,-8C548,-8 676,-8 676,-8 682,-8 688,-14 688,-20 688,-20 688,-141.2 688,-141.2 688,-147.2 682,-153.2 676,-153.2 676,-153.2 548,-153.2 548,-153.2 542,-153.2 536,-147.2 536,-141.2 536,-141.2 536,-20 536,-20 536,-14 542,-8 548,-8"/>
<text xml:space="preserve" text-anchor="middle" x="612" y="-139.3" font-family="Helvetica,sans-Serif" font-size="11.00">CoxChangePoint</text>
</g>
<g id="clust2" class="cluster">
<title>cluster_1</title>
<path fill="none" stroke="#cbd5e1" stroke-dasharray="5,2" d="M20,-8C20,-8 516,-8 516,-8 522,-8 528,-14 528,-20 528,-20 528,-286.4 528,-286.4 528,-292.4 522,-298.4 516,-298.4 516,-298.4 20,-298.4 20,-298.4 14,-298.4 8,-292.4 8,-286.4 8,-286.4 8,-20 8,-20 8,-14 14,-8 20,-8"/>
<text xml:space="preserve" text-anchor="middle" x="268" y="-284.5" font-family="Helvetica,sans-Serif" font-size="11.00">Mathlib</text>
</g>
<!-- n0 -->
<g id="node1" class="node">
<title>n0</title>
<g id="a_node1"><a xlink:href="vscode://vscode-remote/wsl+Ubuntu/home/gavin/statlib/Statlib/CoxChangePoint/Foundation.lean:38" xlink:title="structure · Statlib/CoxChangePoint/Foundation.lean:38" target="_blank">
<path fill="#e8dcff" stroke="#8b5cf6" d="M586,-52C586,-52 556,-52 556,-52 550,-52 544,-46 544,-40 544,-40 544,-28 544,-28 544,-22 550,-16 556,-16 556,-16 586,-16 586,-16 592,-16 598,-22 598,-28 598,-28 598,-40 598,-40 598,-46 592,-52 586,-52"/>
<text xml:space="preserve" text-anchor="middle" x="571" y="-31" font-family="Helvetica,sans-Serif" font-size="10.00">CoxObs</text>
</a>
</g>
</g>
<!-- n1 -->
<g id="node2" class="node">
<title>n1</title>
<g id="a_node2"><a xlink:href="vscode://vscode-remote/wsl+Ubuntu/home/gavin/statlib/Statlib/CoxChangePoint/Foundation.lean:127" xlink:title="def · Statlib/CoxChangePoint/Foundation.lean:127" target="_blank">
<path fill="#d6e9ff" stroke="#3b82f6" d="M586,-124C586,-124 556,-124 556,-124 550,-124 544,-118 544,-112 544,-112 544,-100 544,-100 544,-94 550,-88 556,-88 556,-88 586,-88 586,-88 592,-88 598,-94 598,-100 598,-100 598,-112 598,-112 598,-118 592,-124 586,-124"/>
<text xml:space="preserve" text-anchor="middle" x="571" y="-103" font-family="Helvetica,sans-Serif" font-size="10.00">Sample</text>
</a>
</g>
</g>
<!-- n1&#45;&gt;n0 -->
<g id="edge1" class="edge">
<title>n1&#45;&gt;n0</title>
<path fill="none" stroke="#64748b" d="M571,-87.7C571,-79.47 571,-69.48 571,-60.42"/>
<polygon fill="#64748b" stroke="#64748b" points="573.45,-60.62 571,-53.62 568.55,-60.62 573.45,-60.62"/>
</g>
<!-- n2 -->
<g id="node3" class="node">
<title>n2</title>
<g id="a_node3"><a xlink:href="vscode://vscode-remote/wsl+Ubuntu/home/gavin/statlib/Statlib/CoxChangePoint/Foundation.lean:57" xlink:title="structure · Statlib/CoxChangePoint/Foundation.lean:57" target="_blank">
<path fill="#e8dcff" stroke="#8b5cf6" d="M667.62,-124C667.62,-124 628.38,-124 628.38,-124 622.38,-124 616.38,-118 616.38,-112 616.38,-112 616.38,-100 616.38,-100 616.38,-94 622.38,-88 628.38,-88 628.38,-88 667.62,-88 667.62,-88 673.62,-88 679.62,-94 679.62,-100 679.62,-100 679.62,-112 679.62,-112 679.62,-118 673.62,-124 667.62,-124"/>
<text xml:space="preserve" text-anchor="middle" x="648" y="-103" font-family="Helvetica,sans-Serif" font-size="10.00">CoxParam</text>
</a>
</g>
</g>
<!-- n3 -->
<g id="node4" class="node">
<title>n3</title>
<g id="a_node4"><a xlink:href="vscode://vscode-remote/wsl+Ubuntu/home/gavin/statlib/Statlib/Mathlib/ProbabilityTheory/CoxIIDInstance.lean:92" xlink:title="structure · Statlib/Mathlib/ProbabilityTheory/CoxIIDInstance.lean:92" target="_blank">
<path fill="#e8dcff" stroke="#8b5cf6" d="M417.91,-197.2C417.91,-197.2 348.09,-197.2 348.09,-197.2 342.09,-197.2 336.09,-191.2 336.09,-185.2 336.09,-185.2 336.09,-173.2 336.09,-173.2 336.09,-167.2 342.09,-161.2 348.09,-161.2 348.09,-161.2 417.91,-161.2 417.91,-161.2 423.91,-161.2 429.91,-167.2 429.91,-173.2 429.91,-173.2 429.91,-185.2 429.91,-185.2 429.91,-191.2 423.91,-197.2 417.91,-197.2"/>
<text xml:space="preserve" text-anchor="middle" x="383" y="-176.2" font-family="Helvetica,sans-Serif" font-size="10.00">CoxScoreSample</text>
</a>
</g>
</g>
<!-- n3&#45;&gt;n1 -->
<g id="edge2" class="edge">
<title>n3&#45;&gt;n1</title>
<path fill="none" stroke="#64748b" d="M430.18,-163.12C433.15,-162.41 436.11,-161.76 439,-161.2 459.37,-157.28 513.58,-162.74 532,-153.2 541.86,-148.1 550.22,-139.33 556.65,-130.79"/>
<polygon fill="#64748b" stroke="#64748b" points="558.48,-132.44 560.51,-125.31 554.48,-129.62 558.48,-132.44"/>
</g>
<!-- n3&#45;&gt;n2 -->
<g id="edge3" class="edge">
<title>n3&#45;&gt;n2</title>
<path fill="none" stroke="#64748b" d="M430.16,-162.99C433.13,-162.31 436.1,-161.7 439,-161.2 475.83,-154.83 573.28,-169.33 607,-153.2 617.23,-148.31 626,-139.57 632.78,-131.01"/>
<polygon fill="#64748b" stroke="#64748b" points="634.68,-132.55 636.87,-125.47 630.74,-129.64 634.68,-132.55"/>
</g>
<!-- n4 -->
<g id="node5" class="node">
<title>n4</title>
<g id="a_node5"><a xlink:href="vscode://vscode-remote/wsl+Ubuntu/home/gavin/statlib/Statlib/Mathlib/ProbabilityTheory/CoxIIDInstance.lean:121" xlink:title="structure · Statlib/Mathlib/ProbabilityTheory/CoxIIDInstance.lean:121" target="_blank">
<path fill="#e8dcff" stroke="#8b5cf6" d="M508.34,-197.2C508.34,-197.2 459.66,-197.2 459.66,-197.2 453.66,-197.2 447.66,-191.2 447.66,-185.2 447.66,-185.2 447.66,-173.2 447.66,-173.2 447.66,-167.2 453.66,-161.2 459.66,-161.2 459.66,-161.2 508.34,-161.2 508.34,-161.2 514.34,-161.2 520.34,-167.2 520.34,-173.2 520.34,-173.2 520.34,-185.2 520.34,-185.2 520.34,-191.2 514.34,-197.2 508.34,-197.2"/>
<text xml:space="preserve" text-anchor="middle" x="484" y="-176.2" font-family="Helvetica,sans-Serif" font-size="10.00">CoxScoreIID</text>
</a>
</g>
</g>
<!-- n4&#45;&gt;n1 -->
<g id="edge4" class="edge">
<title>n4&#45;&gt;n1</title>
<path fill="none" stroke="#64748b" d="M520.6,-161.09C524.59,-158.66 528.48,-156.02 532,-153.2 540.07,-146.74 547.7,-138.42 554.03,-130.62"/>
<polygon fill="#64748b" stroke="#64748b" points="555.71,-132.46 558.1,-125.44 551.85,-129.44 555.71,-132.46"/>
</g>
<!-- n4&#45;&gt;n2 -->
<g id="edge5" class="edge">
<title>n4&#45;&gt;n2</title>
<path fill="none" stroke="#64748b" d="M520.6,-176.83C546.26,-174.48 580.57,-168.43 607,-153.2 616.77,-147.57 625.44,-138.76 632.25,-130.35"/>
<polygon fill="#64748b" stroke="#64748b" points="633.85,-132.29 636.17,-125.24 629.97,-129.3 633.85,-132.29"/>
</g>
<!-- n5 -->
<g id="node6" class="node">
<title>n5</title>
<g id="a_node6"><a xlink:href="vscode://vscode-remote/wsl+Ubuntu/home/gavin/statlib/Statlib/Mathlib/Statistics/LAN.lean:152" xlink:title="structure · Statlib/Mathlib/Statistics/LAN.lean:152" target="_blank">
<path fill="#e8dcff" stroke="#8b5cf6" d="M106.08,-124C106.08,-124 47.92,-124 47.92,-124 41.92,-124 35.92,-118 35.92,-112 35.92,-112 35.92,-100 35.92,-100 35.92,-94 41.92,-88 47.92,-88 47.92,-88 106.08,-88 106.08,-88 112.08,-88 118.08,-94 118.08,-100 118.08,-100 118.08,-112 118.08,-112 118.08,-118 112.08,-124 106.08,-124"/>
<text xml:space="preserve" text-anchor="middle" x="77" y="-103" font-family="Helvetica,sans-Serif" font-size="10.00">LANExpansion</text>
</a>
</g>
</g>
<!-- n6 -->
<g id="node7" class="node">
<title>n6</title>
<g id="a_node7"><a xlink:href="vscode://vscode-remote/wsl+Ubuntu/home/gavin/statlib/Statlib/Mathlib/Statistics/LeCamThirdLemma.lean:86" xlink:title="def · Statlib/Mathlib/Statistics/LeCamThirdLemma.lean:86" target="_blank">
<path fill="#d6e9ff" stroke="#3b82f6" d="M204.23,-124C204.23,-124 167.77,-124 167.77,-124 161.77,-124 155.77,-118 155.77,-112 155.77,-112 155.77,-100 155.77,-100 155.77,-94 161.77,-88 167.77,-88 167.77,-88 204.23,-88 204.23,-88 210.23,-88 216.23,-94 216.23,-100 216.23,-100 216.23,-112 216.23,-112 216.23,-118 210.23,-124 204.23,-124"/>
<text xml:space="preserve" text-anchor="middle" x="186" y="-103" font-family="Helvetica,sans-Serif" font-size="10.00">Contiguity</text>
</a>
</g>
</g>
<!-- n7 -->
<g id="node8" class="node">
<title>n7</title>
<g id="a_node8"><a xlink:href="vscode://vscode-remote/wsl+Ubuntu/home/gavin/statlib/Statlib/Mathlib/ProbabilityTheory/MultivariateCLT.lean:138" xlink:title="structure · Statlib/Mathlib/ProbabilityTheory/MultivariateCLT.lean:138" target="_blank">
<path fill="#e8dcff" stroke="#8b5cf6" d="M254.75,-52C254.75,-52 143.25,-52 143.25,-52 137.25,-52 131.25,-46 131.25,-40 131.25,-40 131.25,-28 131.25,-28 131.25,-22 137.25,-16 143.25,-16 143.25,-16 254.75,-16 254.75,-16 260.75,-16 266.75,-22 266.75,-28 266.75,-28 266.75,-40 266.75,-40 266.75,-46 260.75,-52 254.75,-52"/>
<text xml:space="preserve" text-anchor="middle" x="199" y="-31" font-family="Helvetica,sans-Serif" font-size="10.00">MultivariateCLTConclusion</text>
</a>
</g>
</g>
<!-- n8 -->
<g id="node9" class="node">
<title>n8</title>
<g id="a_node9"><a xlink:href="vscode://vscode-remote/wsl+Ubuntu/home/gavin/statlib/Statlib/Mathlib/Statistics/LeCamInstance.lean:112" xlink:title="structure · Statlib/Mathlib/Statistics/LeCamInstance.lean:112" target="_blank">
<path fill="#e8dcff" stroke="#8b5cf6" d="M154.25,-197.2C154.25,-197.2 67.75,-197.2 67.75,-197.2 61.75,-197.2 55.75,-191.2 55.75,-185.2 55.75,-185.2 55.75,-173.2 55.75,-173.2 55.75,-167.2 61.75,-161.2 67.75,-161.2 67.75,-161.2 154.25,-161.2 154.25,-161.2 160.25,-161.2 166.25,-167.2 166.25,-173.2 166.25,-173.2 166.25,-185.2 166.25,-185.2 166.25,-191.2 160.25,-197.2 154.25,-197.2"/>
<text xml:space="preserve" text-anchor="middle" x="111" y="-176.2" font-family="Helvetica,sans-Serif" font-size="10.00">LANToLeCamBundle</text>
</a>
</g>
</g>
<!-- n8&#45;&gt;n5 -->
<g id="edge6" class="edge">
<title>n8&#45;&gt;n5</title>
<path fill="none" stroke="#64748b" d="M102.77,-160.96C98.55,-152.13 93.34,-141.22 88.71,-131.53"/>
<polygon fill="#64748b" stroke="#64748b" points="91.03,-130.7 85.81,-125.44 86.61,-132.82 91.03,-130.7"/>
</g>
<!-- n8&#45;&gt;n6 -->
<g id="edge8" class="edge">
<title>n8&#45;&gt;n6</title>
<path fill="none" stroke="#64748b" d="M133.31,-160.79C136.29,-158.3 139.25,-155.73 142,-153.2 149.77,-146.05 157.85,-137.82 164.94,-130.3"/>
<polygon fill="#64748b" stroke="#64748b" points="166.61,-132.1 169.59,-125.31 163.03,-128.76 166.61,-132.1"/>
</g>
<!-- n8&#45;&gt;n7 -->
<g id="edge7" class="edge">
<title>n8&#45;&gt;n7</title>
<path fill="none" stroke="#64748b" d="M122.98,-160.78C124.44,-158.3 125.83,-155.73 127,-153.2 139.73,-125.69 131.5,-114.05 147,-88 153.48,-77.11 162.65,-66.77 171.49,-58.16"/>
<polygon fill="#64748b" stroke="#64748b" points="173,-60.11 176.42,-53.53 169.64,-56.53 173,-60.11"/>
</g>
<!-- n9 -->
<g id="node10" class="node">
<title>n9</title>
<g id="a_node10"><a xlink:href="vscode://vscode-remote/wsl+Ubuntu/home/gavin/statlib/Statlib/Mathlib/ProbabilityTheory/CLTSums.lean:129" xlink:title="structure · Statlib/Mathlib/ProbabilityTheory/CLTSums.lean:129" target="_blank">
<path fill="#e8dcff" stroke="#8b5cf6" d="M435.81,-124C435.81,-124 338.19,-124 338.19,-124 332.19,-124 326.19,-118 326.19,-112 326.19,-112 326.19,-100 326.19,-100 326.19,-94 332.19,-88 338.19,-88 338.19,-88 435.81,-88 435.81,-88 441.81,-88 447.81,-94 447.81,-100 447.81,-100 447.81,-112 447.81,-112 447.81,-118 441.81,-124 435.81,-124"/>
<text xml:space="preserve" text-anchor="middle" x="387" y="-103" font-family="Helvetica,sans-Serif" font-size="10.00">IIDBoundedHypotheses</text>
</a>
</g>
</g>
<!-- n10 -->
<g id="node11" class="node">
<title>n10</title>
<g id="a_node11"><a xlink:href="vscode://vscode-remote/wsl+Ubuntu/home/gavin/statlib/Statlib/Mathlib/ProbabilityTheory/MultivariateCLT.lean:161" xlink:title="def · Statlib/Mathlib/ProbabilityTheory/MultivariateCLT.lean:161" target="_blank">
<path fill="#d6e9ff" stroke="#3b82f6" d="M276,-124C276,-124 246,-124 246,-124 240,-124 234,-118 234,-112 234,-112 234,-100 234,-100 234,-94 240,-88 246,-88 246,-88 276,-88 276,-88 282,-88 288,-94 288,-100 288,-100 288,-112 288,-112 288,-118 282,-124 276,-124"/>
<text xml:space="preserve" text-anchor="middle" x="261" y="-103" font-family="Helvetica,sans-Serif" font-size="10.00">trivial</text>
</a>
</g>
</g>
<!-- n10&#45;&gt;n7 -->
<g id="edge9" class="edge">
<title>n10&#45;&gt;n7</title>
<path fill="none" stroke="#64748b" d="M245.67,-87.7C237.87,-78.88 228.26,-68.03 219.79,-58.47"/>
<polygon fill="#64748b" stroke="#64748b" points="221.63,-56.85 215.15,-53.24 217.96,-60.1 221.63,-56.85"/>
</g>
<!-- n11 -->
<g id="node12" class="node">
<title>n11</title>
<g id="a_node12"><a xlink:href="vscode://vscode-remote/wsl+Ubuntu/home/gavin/statlib/Statlib/Mathlib/ProbabilityTheory/CLTSums.lean:171" xlink:title="def · Statlib/Mathlib/ProbabilityTheory/CLTSums.lean:171" target="_blank">
<path fill="#d6e9ff" stroke="#3b82f6" d="M285.91,-197.2C285.91,-197.2 236.09,-197.2 236.09,-197.2 230.09,-197.2 224.09,-191.2 224.09,-185.2 224.09,-185.2 224.09,-173.2 224.09,-173.2 224.09,-167.2 230.09,-161.2 236.09,-161.2 236.09,-161.2 285.91,-161.2 285.91,-161.2 291.91,-161.2 297.91,-167.2 297.91,-173.2 297.91,-173.2 297.91,-185.2 297.91,-185.2 297.91,-191.2 291.91,-197.2 285.91,-197.2"/>
<text xml:space="preserve" text-anchor="middle" x="261" y="-176.2" font-family="Helvetica,sans-Serif" font-size="10.00">toConclusion</text>
</a>
</g>
</g>
<!-- n11&#45;&gt;n7 -->
<g id="edge11" class="edge">
<title>n11&#45;&gt;n7</title>
<path fill="none" stroke="#64748b" d="M291.31,-160.93C293.55,-158.61 295.52,-156.03 297,-153.2 310.43,-127.52 311.84,-112.89 297,-88 288.86,-74.35 275.85,-64 261.93,-56.24"/>
<polygon fill="#64748b" stroke="#64748b" points="263.28,-54.18 255.94,-53.11 261.01,-58.52 263.28,-54.18"/>
</g>
<!-- n11&#45;&gt;n9 -->
<g id="edge10" class="edge">
<title>n11&#45;&gt;n9</title>
<path fill="none" stroke="#64748b" d="M297.71,-160.73C302.56,-158.27 307.42,-155.72 312,-153.2 325.79,-145.6 340.61,-136.64 353.41,-128.65"/>
<polygon fill="#64748b" stroke="#64748b" points="354.39,-130.92 359.01,-125.12 351.78,-126.78 354.39,-130.92"/>
</g>
<!-- n11&#45;&gt;n10 -->
<g id="edge12" class="edge">
<title>n11&#45;&gt;n10</title>
<path fill="none" stroke="#64748b" d="M261,-160.96C261,-152.39 261,-141.87 261,-132.39"/>
<polygon fill="#64748b" stroke="#64748b" points="263.45,-132.59 261,-125.59 258.55,-132.59 263.45,-132.59"/>
</g>
<!-- n12 -->
<g id="node13" class="node">
<title>n12</title>
<g id="a_node13"><a xlink:href="vscode://vscode-remote/wsl+Ubuntu/home/gavin/statlib/Statlib/Mathlib/Statistics/LeCamInstance.lean:324" xlink:title="noncomputable def · Statlib/Mathlib/Statistics/LeCamInstance.lean:324" target="_blank">
<path fill="#d6e9ff" stroke="#3b82f6" stroke-width="3" d="M249.91,-269.2C249.91,-269.2 160.09,-269.2 160.09,-269.2 154.09,-269.2 148.09,-263.2 148.09,-257.2 148.09,-257.2 148.09,-245.2 148.09,-245.2 148.09,-239.2 154.09,-233.2 160.09,-233.2 160.09,-233.2 249.91,-233.2 249.91,-233.2 255.91,-233.2 261.91,-239.2 261.91,-245.2 261.91,-245.2 261.91,-257.2 261.91,-257.2 261.91,-263.2 255.91,-269.2 249.91,-269.2"/>
<text xml:space="preserve" text-anchor="middle" x="205" y="-248.2" font-family="Helvetica,sans-Serif" font-size="10.00">fromCoxScoreSample</text>
</a>
</g>
</g>
<!-- n12&#45;&gt;n3 -->
<g id="edge13" class="edge">
<title>n12&#45;&gt;n3</title>
<path fill="none" stroke="#64748b" d="M251.77,-231.81C276.13,-222.23 305.99,-210.48 331.07,-200.62"/>
<polygon fill="#64748b" stroke="#64748b" points="331.66,-203.02 337.28,-198.18 329.87,-198.46 331.66,-203.02"/>
</g>
<!-- n12&#45;&gt;n4 -->
<g id="edge14" class="edge">
<title>n12&#45;&gt;n4</title>
<path fill="none" stroke="#64748b" d="M263.28,-239.33C310.98,-229.89 379.96,-214.94 439,-197.2 439.08,-197.17 439.17,-197.15 439.26,-197.12"/>
<polygon fill="#64748b" stroke="#64748b" points="439.95,-199.47 445.86,-195 438.45,-194.81 439.95,-199.47"/>
</g>
<!-- n12&#45;&gt;n5 -->
<g id="edge15" class="edge">
<title>n12&#45;&gt;n5</title>
<path fill="none" stroke="#64748b" d="M146.98,-247.01C111.87,-241.72 69.64,-228.67 47,-197.2 32.75,-177.39 44.97,-150.38 57.83,-131.09"/>
<polygon fill="#64748b" stroke="#64748b" points="59.67,-132.74 61.68,-125.6 55.66,-129.92 59.67,-132.74"/>
</g>
<!-- n12&#45;&gt;n6 -->
<g id="edge16" class="edge">
<title>n12&#45;&gt;n6</title>
<path fill="none" stroke="#64748b" d="M202.55,-231.77C199.21,-206.58 193.2,-161.27 189.41,-132.74"/>
<polygon fill="#64748b" stroke="#64748b" points="191.87,-132.58 188.52,-125.96 187.01,-133.22 191.87,-132.58"/>
</g>
<!-- n12&#45;&gt;n7 -->
<g id="edge19" class="edge">
<title>n12&#45;&gt;n7</title>
<path fill="none" stroke="#64748b" d="M146.63,-246.23C110.16,-240.65 64.97,-227.57 37,-197.2 23.41,-182.45 29.24,-173.13 27,-153.2 23.77,-124.4 9.79,-111.31 27,-88 48.99,-58.21 87.48,-44.64 122.48,-38.66"/>
<polygon fill="#64748b" stroke="#64748b" points="122.78,-41.1 129.32,-37.6 122.03,-36.25 122.78,-41.1"/>
</g>
<!-- n12&#45;&gt;n8 -->
<g id="edge17" class="edge">
<title>n12&#45;&gt;n8</title>
<path fill="none" stroke="#64748b" d="M180.3,-231.81C168.28,-222.85 153.72,-212.01 141.05,-202.58"/>
<polygon fill="#64748b" stroke="#64748b" points="142.53,-200.63 135.45,-198.41 139.6,-204.56 142.53,-200.63"/>
</g>
<!-- n12&#45;&gt;n9 -->
<g id="edge18" class="edge">
<title>n12&#45;&gt;n9</title>
<path fill="none" stroke="#64748b" d="M254.18,-231.76C272.31,-223.24 292.05,-211.74 307,-197.2 320.12,-184.44 315.61,-175.53 327,-161.2 336.04,-149.82 347.58,-138.79 358.12,-129.67"/>
<polygon fill="#64748b" stroke="#64748b" points="359.6,-131.63 363.37,-125.24 356.44,-127.89 359.6,-131.63"/>
</g>
<!-- n12&#45;&gt;n10 -->
<g id="edge21" class="edge">
<title>n12&#45;&gt;n10</title>
<path fill="none" stroke="#64748b" d="M203.13,-231.94C202.06,-213.04 202.84,-183.26 215,-161.2 217.75,-156.22 221,-157.25 225,-153.2 231.67,-146.44 238.27,-138.46 243.96,-131.06"/>
<polygon fill="#64748b" stroke="#64748b" points="245.75,-132.75 247.99,-125.68 241.83,-129.81 245.75,-132.75"/>
</g>
<!-- n12&#45;&gt;n11 -->
<g id="edge20" class="edge">
<title>n12&#45;&gt;n11</title>
<path fill="none" stroke="#64748b" d="M219.71,-231.81C226.6,-223.2 234.88,-212.85 242.21,-203.69"/>
<polygon fill="#64748b" stroke="#64748b" points="243.94,-205.45 246.4,-198.45 240.11,-202.39 243.94,-205.45"/>
</g>
</g>
</svg>
