<?xml version="1.0" encoding="UTF-8" standalone="no"?>
<!DOCTYPE svg PUBLIC "-//W3C//DTD SVG 1.1//EN"
 "http://www.w3.org/Graphics/SVG/1.1/DTD/svg11.dtd">
<!-- Generated by graphviz version 15.0.0 (20260523.1842)
 -->
<!-- Title: identityCov Pages: 1 -->
<svg width="538pt" height="410pt"
 viewBox="0.00 0.00 538.00 410.00" xmlns="http://www.w3.org/2000/svg" xmlns:xlink="http://www.w3.org/1999/xlink">
<g id="graph0" class="graph" transform="scale(1 1) rotate(0) translate(4 406)">
<title>identityCov</title>
<polygon fill="white" stroke="none" points="-4,4 -4,-406 534,-406 534,4 -4,4"/>
<text xml:space="preserve" text-anchor="middle" x="265" y="-385.4" font-family="Helvetica,sans-Serif" font-size="14.00">Proof narrative — identityCov &#160;(11 decls)</text>
<g id="clust1" class="cluster">
<title>cluster_0</title>
<path fill="none" stroke="#cbd5e1" stroke-dasharray="5,2" d="M20,-8C20,-8 510,-8 510,-8 516,-8 522,-14 522,-20 522,-20 522,-357.2 522,-357.2 522,-363.2 516,-369.2 510,-369.2 510,-369.2 20,-369.2 20,-369.2 14,-369.2 8,-363.2 8,-357.2 8,-357.2 8,-20 8,-20 8,-14 14,-8 20,-8"/>
<text xml:space="preserve" text-anchor="middle" x="265" y="-355.3" font-family="Helvetica,sans-Serif" font-size="11.00">Mathlib</text>
</g>
<!-- n0 -->
<g id="node1" class="node">
<title>n0</title>
<g id="a_node1"><a xlink:href="vscode://vscode-remote/wsl+Ubuntu/home/gavin/statlib/Statlib/Mathlib/Statistics/LAN.lean:152" xlink:title="structure · Statlib/Mathlib/Statistics/LAN.lean:152" target="_blank">
<path fill="#e8dcff" stroke="#8b5cf6" d="M270.08,-196C270.08,-196 211.92,-196 211.92,-196 205.92,-196 199.92,-190 199.92,-184 199.92,-184 199.92,-172 199.92,-172 199.92,-166 205.92,-160 211.92,-160 211.92,-160 270.08,-160 270.08,-160 276.08,-160 282.08,-166 282.08,-172 282.08,-172 282.08,-184 282.08,-184 282.08,-190 276.08,-196 270.08,-196"/>
<text xml:space="preserve" text-anchor="middle" x="241" y="-175" font-family="Helvetica,sans-Serif" font-size="10.00">LANExpansion</text>
</a>
</g>
</g>
<!-- n1 -->
<g id="node2" class="node">
<title>n1</title>
<g id="a_node2"><a xlink:href="vscode://vscode-remote/wsl+Ubuntu/home/gavin/statlib/Statlib/Mathlib/Statistics/LAN.lean:79" xlink:title="structure · Statlib/Mathlib/Statistics/LAN.lean:79" target="_blank">
<path fill="#e8dcff" stroke="#8b5cf6" d="M97.62,-196C97.62,-196 28.38,-196 28.38,-196 22.38,-196 16.38,-190 16.38,-184 16.38,-184 16.38,-172 16.38,-172 16.38,-166 22.38,-160 28.38,-160 28.38,-160 97.62,-160 97.62,-160 103.62,-160 109.62,-166 109.62,-172 109.62,-172 109.62,-184 109.62,-184 109.62,-190 103.62,-196 97.62,-196"/>
<text xml:space="preserve" text-anchor="middle" x="63" y="-175" font-family="Helvetica,sans-Serif" font-size="10.00">InformationMatrix</text>
</a>
</g>
</g>
<!-- n2 -->
<g id="node3" class="node">
<title>n2</title>
<g id="a_node3"><a xlink:href="vscode://vscode-remote/wsl+Ubuntu/home/gavin/statlib/Statlib/Mathlib/Analysis/SpectralCompactSelfAdjoint.lean:299" xlink:title="structure · Statlib/Mathlib/Analysis/SpectralCompactSelfAdjoint.lean:299" target="_blank">
<path fill="#e8dcff" stroke="#8b5cf6" d="M216.03,-52C216.03,-52 93.97,-52 93.97,-52 87.97,-52 81.97,-46 81.97,-40 81.97,-40 81.97,-28 81.97,-28 81.97,-22 87.97,-16 93.97,-16 93.97,-16 216.03,-16 216.03,-16 222.03,-16 228.03,-22 228.03,-28 228.03,-28 228.03,-40 228.03,-40 228.03,-46 222.03,-52 216.03,-52"/>
<text xml:space="preserve" text-anchor="middle" x="155" y="-31" font-family="Helvetica,sans-Serif" font-size="10.00">SpectralTheoremCompactSA</text>
</a>
</g>
</g>
<!-- n3 -->
<g id="node4" class="node">
<title>n3</title>
<g id="a_node4"><a xlink:href="vscode://vscode-remote/wsl+Ubuntu/home/gavin/statlib/Statlib/Mathlib/Analysis/SpectralTruncation.lean:98" xlink:title="noncomputable def · Statlib/Mathlib/Analysis/SpectralTruncation.lean:98" target="_blank">
<path fill="#d6e9ff" stroke="#3b82f6" d="M220.24,-124C220.24,-124 153.76,-124 153.76,-124 147.76,-124 141.76,-118 141.76,-112 141.76,-112 141.76,-100 141.76,-100 141.76,-94 147.76,-88 153.76,-88 153.76,-88 220.24,-88 220.24,-88 226.24,-88 232.24,-94 232.24,-100 232.24,-100 232.24,-112 232.24,-112 232.24,-118 226.24,-124 220.24,-124"/>
<text xml:space="preserve" text-anchor="middle" x="187" y="-103" font-family="Helvetica,sans-Serif" font-size="10.00">spectralTruncate</text>
</a>
</g>
</g>
<!-- n3&#45;&gt;n2 -->
<g id="edge1" class="edge">
<title>n3&#45;&gt;n2</title>
<path fill="none" stroke="#64748b" d="M179.09,-87.7C175.21,-79.22 170.48,-68.86 166.24,-59.58"/>
<polygon fill="#64748b" stroke="#64748b" points="168.59,-58.83 163.45,-53.48 164.13,-60.87 168.59,-58.83"/>
</g>
<!-- n4 -->
<g id="node5" class="node">
<title>n4</title>
<g id="a_node5"><a xlink:href="vscode://vscode-remote/wsl+Ubuntu/home/gavin/statlib/Statlib/Mathlib/Analysis/SpectralTruncation.lean:107" xlink:title="lemma · Statlib/Mathlib/Analysis/SpectralTruncation.lean:107" target="_blank">
<path fill="#eef2f6" stroke="#94a3b8" d="M170,-196C170,-196 140,-196 140,-196 134,-196 128,-190 128,-184 128,-184 128,-172 128,-172 128,-166 134,-160 140,-160 140,-160 170,-160 170,-160 176,-160 182,-166 182,-172 182,-172 182,-184 182,-184 182,-190 176,-196 170,-196"/>
<text xml:space="preserve" text-anchor="middle" x="155" y="-175" font-family="Helvetica,sans-Serif" font-size="10.00">apply</text>
</a>
</g>
</g>
<!-- n4&#45;&gt;n2 -->
<g id="edge2" class="edge">
<title>n4&#45;&gt;n2</title>
<path fill="none" stroke="#64748b" d="M145.87,-159.88C140.99,-149.76 135.49,-136.51 133,-124 129.87,-108.31 129.87,-103.69 133,-88 134.91,-78.42 138.58,-68.41 142.38,-59.7"/>
<polygon fill="#64748b" stroke="#64748b" points="144.54,-60.88 145.24,-53.5 140.09,-58.83 144.54,-60.88"/>
</g>
<!-- n4&#45;&gt;n3 -->
<g id="edge3" class="edge">
<title>n4&#45;&gt;n3</title>
<path fill="none" stroke="#64748b" d="M162.91,-159.7C166.79,-151.22 171.52,-140.86 175.76,-131.58"/>
<polygon fill="#64748b" stroke="#64748b" points="177.87,-132.87 178.55,-125.48 173.41,-130.83 177.87,-132.87"/>
</g>
<!-- n5 -->
<g id="node6" class="node">
<title>n5</title>
<g id="a_node6"><a xlink:href="vscode://vscode-remote/wsl+Ubuntu/home/gavin/statlib/Statlib/Mathlib/Statistics/LAN.lean:95" xlink:title="def · Statlib/Mathlib/Statistics/LAN.lean:95" target="_blank">
<path fill="#d6e9ff" stroke="#3b82f6" d="M170,-268C170,-268 140,-268 140,-268 134,-268 128,-262 128,-256 128,-256 128,-244 128,-244 128,-238 134,-232 140,-232 140,-232 170,-232 170,-232 176,-232 182,-238 182,-244 182,-244 182,-256 182,-256 182,-262 176,-268 170,-268"/>
<text xml:space="preserve" text-anchor="middle" x="155" y="-247" font-family="Helvetica,sans-Serif" font-size="10.00">identity</text>
</a>
</g>
</g>
<!-- n5&#45;&gt;n1 -->
<g id="edge4" class="edge">
<title>n5&#45;&gt;n1</title>
<path fill="none" stroke="#64748b" d="M132.26,-231.7C120.21,-222.53 105.26,-211.16 92.34,-201.33"/>
<polygon fill="#64748b" stroke="#64748b" points="94.06,-199.55 87,-197.26 91.09,-203.45 94.06,-199.55"/>
</g>
<!-- n5&#45;&gt;n4 -->
<g id="edge5" class="edge">
<title>n5&#45;&gt;n4</title>
<path fill="none" stroke="#64748b" d="M155,-231.7C155,-223.47 155,-213.48 155,-204.42"/>
<polygon fill="#64748b" stroke="#64748b" points="157.45,-204.62 155,-197.62 152.55,-204.62 157.45,-204.62"/>
</g>
<!-- n6 -->
<g id="node7" class="node">
<title>n6</title>
<g id="a_node7"><a xlink:href="vscode://vscode-remote/wsl+Ubuntu/home/gavin/statlib/Statlib/Mathlib/Statistics/LeCamThirdLemma.lean:86" xlink:title="def · Statlib/Mathlib/Statistics/LeCamThirdLemma.lean:86" target="_blank">
<path fill="#d6e9ff" stroke="#3b82f6" d="M348.23,-196C348.23,-196 311.77,-196 311.77,-196 305.77,-196 299.77,-190 299.77,-184 299.77,-184 299.77,-172 299.77,-172 299.77,-166 305.77,-160 311.77,-160 311.77,-160 348.23,-160 348.23,-160 354.23,-160 360.23,-166 360.23,-172 360.23,-172 360.23,-184 360.23,-184 360.23,-190 354.23,-196 348.23,-196"/>
<text xml:space="preserve" text-anchor="middle" x="330" y="-175" font-family="Helvetica,sans-Serif" font-size="10.00">Contiguity</text>
</a>
</g>
</g>
<!-- n7 -->
<g id="node8" class="node">
<title>n7</title>
<g id="a_node8"><a xlink:href="vscode://vscode-remote/wsl+Ubuntu/home/gavin/statlib/Statlib/Mathlib/ProbabilityTheory/MultivariateCLT.lean:138" xlink:title="structure · Statlib/Mathlib/ProbabilityTheory/MultivariateCLT.lean:138" target="_blank">
<path fill="#e8dcff" stroke="#8b5cf6" d="M501.75,-196C501.75,-196 390.25,-196 390.25,-196 384.25,-196 378.25,-190 378.25,-184 378.25,-184 378.25,-172 378.25,-172 378.25,-166 384.25,-160 390.25,-160 390.25,-160 501.75,-160 501.75,-160 507.75,-160 513.75,-166 513.75,-172 513.75,-172 513.75,-184 513.75,-184 513.75,-190 507.75,-196 501.75,-196"/>
<text xml:space="preserve" text-anchor="middle" x="446" y="-175" font-family="Helvetica,sans-Serif" font-size="10.00">MultivariateCLTConclusion</text>
</a>
</g>
</g>
<!-- n8 -->
<g id="node9" class="node">
<title>n8</title>
<g id="a_node9"><a xlink:href="vscode://vscode-remote/wsl+Ubuntu/home/gavin/statlib/Statlib/Mathlib/Statistics/LeCamInstance.lean:112" xlink:title="structure · Statlib/Mathlib/Statistics/LeCamInstance.lean:112" target="_blank">
<path fill="#e8dcff" stroke="#8b5cf6" d="M378.25,-268C378.25,-268 291.75,-268 291.75,-268 285.75,-268 279.75,-262 279.75,-256 279.75,-256 279.75,-244 279.75,-244 279.75,-238 285.75,-232 291.75,-232 291.75,-232 378.25,-232 378.25,-232 384.25,-232 390.25,-238 390.25,-244 390.25,-244 390.25,-256 390.25,-256 390.25,-262 384.25,-268 378.25,-268"/>
<text xml:space="preserve" text-anchor="middle" x="335" y="-247" font-family="Helvetica,sans-Serif" font-size="10.00">LANToLeCamBundle</text>
</a>
</g>
</g>
<!-- n8&#45;&gt;n0 -->
<g id="edge6" class="edge">
<title>n8&#45;&gt;n0</title>
<path fill="none" stroke="#64748b" d="M311.76,-231.7C299.45,-222.53 284.18,-211.16 270.98,-201.33"/>
<polygon fill="#64748b" stroke="#64748b" points="272.59,-199.47 265.51,-197.25 269.66,-203.4 272.59,-199.47"/>
</g>
<!-- n8&#45;&gt;n6 -->
<g id="edge8" class="edge">
<title>n8&#45;&gt;n6</title>
<path fill="none" stroke="#64748b" d="M333.76,-231.7C333.18,-223.47 332.46,-213.48 331.82,-204.42"/>
<polygon fill="#64748b" stroke="#64748b" points="334.27,-204.42 331.33,-197.61 329.38,-204.77 334.27,-204.42"/>
</g>
<!-- n8&#45;&gt;n7 -->
<g id="edge7" class="edge">
<title>n8&#45;&gt;n7</title>
<path fill="none" stroke="#64748b" d="M362.72,-231.52C377.54,-222.18 395.9,-210.59 411.62,-200.68"/>
<polygon fill="#64748b" stroke="#64748b" points="412.74,-202.87 417.35,-197.07 410.12,-198.73 412.74,-202.87"/>
</g>
<!-- n9 -->
<g id="node10" class="node">
<title>n9</title>
<g id="a_node10"><a xlink:href="vscode://vscode-remote/wsl+Ubuntu/home/gavin/statlib/Statlib/Mathlib/ProbabilityTheory/MultivariateCLT.lean:161" xlink:title="def · Statlib/Mathlib/ProbabilityTheory/MultivariateCLT.lean:161" target="_blank">
<path fill="#d6e9ff" stroke="#3b82f6" d="M455,-268C455,-268 425,-268 425,-268 419,-268 413,-262 413,-256 413,-256 413,-244 413,-244 413,-238 419,-232 425,-232 425,-232 455,-232 455,-232 461,-232 467,-238 467,-244 467,-244 467,-256 467,-256 467,-262 461,-268 455,-268"/>
<text xml:space="preserve" text-anchor="middle" x="440" y="-247" font-family="Helvetica,sans-Serif" font-size="10.00">trivial</text>
</a>
</g>
</g>
<!-- n9&#45;&gt;n7 -->
<g id="edge9" class="edge">
<title>n9&#45;&gt;n7</title>
<path fill="none" stroke="#64748b" d="M441.48,-231.7C442.19,-223.47 443.04,-213.48 443.82,-204.42"/>
<polygon fill="#64748b" stroke="#64748b" points="446.25,-204.8 444.4,-197.61 441.37,-204.38 446.25,-204.8"/>
</g>
<!-- n10 -->
<g id="node11" class="node">
<title>n10</title>
<g id="a_node11"><a xlink:href="vscode://vscode-remote/wsl+Ubuntu/home/gavin/statlib/Statlib/Mathlib/Statistics/LeCamInstance.lean:413" xlink:title="def · Statlib/Mathlib/Statistics/LeCamInstance.lean:413" target="_blank">
<path fill="#d6e9ff" stroke="#3b82f6" stroke-width="3" d="M281.73,-340C281.73,-340 240.27,-340 240.27,-340 234.27,-340 228.27,-334 228.27,-328 228.27,-328 228.27,-316 228.27,-316 228.27,-310 234.27,-304 240.27,-304 240.27,-304 281.73,-304 281.73,-304 287.73,-304 293.73,-310 293.73,-316 293.73,-316 293.73,-328 293.73,-328 293.73,-334 287.73,-340 281.73,-340"/>
<text xml:space="preserve" text-anchor="middle" x="261" y="-319" font-family="Helvetica,sans-Serif" font-size="10.00">identityCov</text>
</a>
</g>
</g>
<!-- n10&#45;&gt;n0 -->
<g id="edge10" class="edge">
<title>n10&#45;&gt;n0</title>
<path fill="none" stroke="#64748b" d="M258.43,-302.73C254.91,-277.75 248.58,-232.81 244.59,-204.52"/>
<polygon fill="#64748b" stroke="#64748b" points="247.05,-204.4 243.65,-197.81 242.2,-205.09 247.05,-204.4"/>
</g>
<!-- n10&#45;&gt;n5 -->
<g id="edge11" class="edge">
<title>n10&#45;&gt;n5</title>
<path fill="none" stroke="#64748b" d="M233.15,-302.61C219.34,-293.49 202.56,-282.41 188.1,-272.86"/>
<polygon fill="#64748b" stroke="#64748b" points="189.66,-270.95 182.47,-269.14 186.96,-275.04 189.66,-270.95"/>
</g>
<!-- n10&#45;&gt;n6 -->
<g id="edge12" class="edge">
<title>n10&#45;&gt;n6</title>
<path fill="none" stroke="#64748b" d="M259.38,-302.52C258.54,-283.72 259.54,-254.26 271,-232 277,-220.35 286.69,-210.04 296.5,-201.68"/>
<polygon fill="#64748b" stroke="#64748b" points="297.85,-203.74 301.75,-197.43 294.77,-199.93 297.85,-203.74"/>
</g>
<!-- n10&#45;&gt;n8 -->
<g id="edge13" class="edge">
<title>n10&#45;&gt;n8</title>
<path fill="none" stroke="#64748b" d="M280.44,-302.61C289.73,-293.82 300.95,-283.21 310.79,-273.9"/>
<polygon fill="#64748b" stroke="#64748b" points="312.2,-275.94 315.61,-269.35 308.84,-272.38 312.2,-275.94"/>
</g>
<!-- n10&#45;&gt;n9 -->
<g id="edge14" class="edge">
<title>n10&#45;&gt;n9</title>
<path fill="none" stroke="#64748b" d="M295.12,-308.18C323.11,-297.6 363.72,-282.08 399,-268 400.94,-267.22 402.93,-266.42 404.94,-265.61"/>
<polygon fill="#64748b" stroke="#64748b" points="405.74,-267.93 411.29,-263.01 403.89,-263.39 405.74,-267.93"/>
</g>
</g>
</svg>
