<?xml version="1.0" encoding="UTF-8" standalone="no"?>
<!DOCTYPE svg PUBLIC "-//W3C//DTD SVG 1.1//EN"
 "http://www.w3.org/Graphics/SVG/1.1/DTD/svg11.dtd">
<!-- Generated by graphviz version 15.0.0 (20260523.1842)
 -->
<!-- Title: IsHilbertSchmidt.isCompactOperator_of_truncationLimit Pages: 1 -->
<svg width="550pt" height="482pt"
 viewBox="0.00 0.00 550.00 482.00" xmlns="http://www.w3.org/2000/svg" xmlns:xlink="http://www.w3.org/1999/xlink">
<g id="graph0" class="graph" transform="scale(1 1) rotate(0) translate(4 478)">
<title>IsHilbertSchmidt.isCompactOperator_of_truncationLimit</title>
<polygon fill="white" stroke="none" points="-4,4 -4,-478 545.99,-478 545.99,4 -4,4"/>
<text xml:space="preserve" text-anchor="middle" x="271" y="-457.4" font-family="Helvetica,sans-Serif" font-size="14.00">Proof narrative — IsHilbertSchmidt.isCompactOperator_of_truncationLimit &#160;(12 decls)</text>
<g id="clust1" class="cluster">
<title>cluster_0</title>
<path fill="none" stroke="#cbd5e1" stroke-dasharray="5,2" d="M46.5,-8C46.5,-8 495.5,-8 495.5,-8 501.5,-8 507.5,-14 507.5,-20 507.5,-20 507.5,-429.2 507.5,-429.2 507.5,-435.2 501.5,-441.2 495.5,-441.2 495.5,-441.2 46.5,-441.2 46.5,-441.2 40.5,-441.2 34.5,-435.2 34.5,-429.2 34.5,-429.2 34.5,-20 34.5,-20 34.5,-14 40.5,-8 46.5,-8"/>
<text xml:space="preserve" text-anchor="middle" x="271" y="-427.3" font-family="Helvetica,sans-Serif" font-size="11.00">Mathlib</text>
</g>
<!-- n0 -->
<g id="node1" class="node">
<title>n0</title>
<g id="a_node1"><a xlink:href="vscode://vscode-remote/wsl+Ubuntu/home/gavin/statlib/Statlib/Mathlib/Analysis/HilbertSchmidt.lean:74" xlink:title="structure · Statlib/Mathlib/Analysis/HilbertSchmidt.lean:74" target="_blank">
<path fill="#e8dcff" stroke="#8b5cf6" d="M146.79,-268C146.79,-268 54.21,-268 54.21,-268 48.21,-268 42.21,-262 42.21,-256 42.21,-256 42.21,-244 42.21,-244 42.21,-238 48.21,-232 54.21,-232 54.21,-232 146.79,-232 146.79,-232 152.79,-232 158.79,-238 158.79,-244 158.79,-244 158.79,-256 158.79,-256 158.79,-262 152.79,-268 146.79,-268"/>
<text xml:space="preserve" text-anchor="middle" x="100.5" y="-247" font-family="Helvetica,sans-Serif" font-size="10.00">HilbertSchmidtWitness</text>
</a>
</g>
</g>
<!-- n1 -->
<g id="node2" class="node">
<title>n1</title>
<g id="a_node2"><a xlink:href="vscode://vscode-remote/wsl+Ubuntu/home/gavin/statlib/Statlib/Mathlib/Analysis/HilbertSchmidt.lean:88" xlink:title="def · Statlib/Mathlib/Analysis/HilbertSchmidt.lean:88" target="_blank">
<path fill="#d6e9ff" stroke="#3b82f6" d="M139.89,-340C139.89,-340 75.1,-340 75.1,-340 69.1,-340 63.1,-334 63.1,-328 63.1,-328 63.1,-316 63.1,-316 63.1,-310 69.1,-304 75.1,-304 75.1,-304 139.89,-304 139.89,-304 145.89,-304 151.89,-310 151.89,-316 151.89,-316 151.89,-328 151.89,-328 151.89,-334 145.89,-340 139.89,-340"/>
<text xml:space="preserve" text-anchor="middle" x="107.5" y="-319" font-family="Helvetica,sans-Serif" font-size="10.00">IsHilbertSchmidt</text>
</a>
</g>
</g>
<!-- n1&#45;&gt;n0 -->
<g id="edge1" class="edge">
<title>n1&#45;&gt;n0</title>
<path fill="none" stroke="#64748b" d="M105.77,-303.7C104.94,-295.47 103.94,-285.48 103.04,-276.42"/>
<polygon fill="#64748b" stroke="#64748b" points="105.49,-276.33 102.36,-269.61 100.62,-276.82 105.49,-276.33"/>
</g>
<!-- n2 -->
<g id="node3" class="node">
<title>n2</title>
<g id="a_node3"><a xlink:href="vscode://vscode-remote/wsl+Ubuntu/home/gavin/statlib/Statlib/Mathlib/Analysis/HilbertSchmidtCompact.lean:92" xlink:title="noncomputable def · Statlib/Mathlib/Analysis/HilbertSchmidtCompact.lean:92" target="_blank">
<path fill="#d6e9ff" stroke="#3b82f6" d="M253.5,-124C253.5,-124 223.5,-124 223.5,-124 217.5,-124 211.5,-118 211.5,-112 211.5,-112 211.5,-100 211.5,-100 211.5,-94 217.5,-88 223.5,-88 223.5,-88 253.5,-88 253.5,-88 259.5,-88 265.5,-94 265.5,-100 265.5,-100 265.5,-112 265.5,-112 265.5,-118 259.5,-124 253.5,-124"/>
<text xml:space="preserve" text-anchor="middle" x="238.5" y="-103" font-family="Helvetica,sans-Serif" font-size="10.00">truncate</text>
</a>
</g>
</g>
<!-- n3 -->
<g id="node4" class="node">
<title>n3</title>
<g id="a_node4"><a xlink:href="vscode://vscode-remote/wsl+Ubuntu/home/gavin/statlib/Statlib/Mathlib/Analysis/SpectralCompactSelfAdjoint.lean:111" xlink:title="theorem · Statlib/Mathlib/Analysis/SpectralCompactSelfAdjoint.lean:111" target="_blank">
<path fill="#ffe6a3" stroke="#d4a017" d="M295.09,-196C295.09,-196 181.9,-196 181.9,-196 175.9,-196 169.9,-190 169.9,-184 169.9,-184 169.9,-172 169.9,-172 169.9,-166 175.9,-160 181.9,-160 181.9,-160 295.09,-160 295.09,-160 301.09,-160 307.09,-166 307.09,-172 307.09,-172 307.09,-184 307.09,-184 307.09,-190 301.09,-196 295.09,-196"/>
<text xml:space="preserve" text-anchor="middle" x="238.5" y="-175" font-family="Helvetica,sans-Serif" font-size="10.00">of_target_finiteDimensional</text>
</a>
</g>
</g>
<!-- n4 -->
<g id="node5" class="node">
<title>n4</title>
<g id="a_node5"><a xlink:href="vscode://vscode-remote/wsl+Ubuntu/home/gavin/statlib/Statlib/Mathlib/Analysis/SpectralCompactSelfAdjoint.lean:131" xlink:title="theorem · Statlib/Mathlib/Analysis/SpectralCompactSelfAdjoint.lean:131" target="_blank">
<path fill="#ffe6a3" stroke="#d4a017" d="M342.09,-268C342.09,-268 228.9,-268 228.9,-268 222.9,-268 216.9,-262 216.9,-256 216.9,-256 216.9,-244 216.9,-244 216.9,-238 222.9,-232 228.9,-232 228.9,-232 342.09,-232 342.09,-232 348.09,-232 354.09,-238 354.09,-244 354.09,-244 354.09,-256 354.09,-256 354.09,-262 348.09,-268 342.09,-268"/>
<text xml:space="preserve" text-anchor="middle" x="285.5" y="-247" font-family="Helvetica,sans-Serif" font-size="10.00">of_finiteDimensional_range</text>
</a>
</g>
</g>
<!-- n4&#45;&gt;n3 -->
<g id="edge2" class="edge">
<title>n4&#45;&gt;n3</title>
<path fill="none" stroke="#64748b" d="M273.88,-231.7C268.07,-223.05 260.95,-212.45 254.63,-203.03"/>
<polygon fill="#64748b" stroke="#64748b" points="256.76,-201.81 250.82,-197.36 252.69,-204.54 256.76,-201.81"/>
</g>
<!-- n5 -->
<g id="node6" class="node">
<title>n5</title>
<g id="a_node6"><a xlink:href="vscode://vscode-remote/wsl+Ubuntu/home/gavin/statlib/Statlib/Mathlib/Analysis/HilbertSchmidtCompact.lean:98" xlink:title="theorem · Statlib/Mathlib/Analysis/HilbertSchmidtCompact.lean:98" target="_blank">
<path fill="#ffe6a3" stroke="#d4a017" d="M415.3,-196C415.3,-196 357.7,-196 357.7,-196 351.7,-196 345.7,-190 345.7,-184 345.7,-184 345.7,-172 345.7,-172 345.7,-166 351.7,-160 357.7,-160 357.7,-160 415.3,-160 415.3,-160 421.3,-160 427.3,-166 427.3,-172 427.3,-172 427.3,-184 427.3,-184 427.3,-190 421.3,-196 415.3,-196"/>
<text xml:space="preserve" text-anchor="middle" x="386.5" y="-175" font-family="Helvetica,sans-Serif" font-size="10.00">truncate_apply</text>
</a>
</g>
</g>
<!-- n5&#45;&gt;n2 -->
<g id="edge3" class="edge">
<title>n5&#45;&gt;n2</title>
<path fill="none" stroke="#64748b" d="M349.53,-159.52C326.15,-148.46 296.11,-134.25 273.18,-123.4"/>
<polygon fill="#64748b" stroke="#64748b" points="274.44,-121.29 267.06,-120.51 272.34,-125.72 274.44,-121.29"/>
</g>
<!-- n6 -->
<g id="node7" class="node">
<title>n6</title>
<g id="a_node7"><a xlink:href="vscode://vscode-remote/wsl+Ubuntu/home/gavin/statlib/Statlib/Mathlib/Analysis/SpectralCompactSelfAdjoint.lean:299" xlink:title="structure · Statlib/Mathlib/Analysis/SpectralCompactSelfAdjoint.lean:299" target="_blank">
<path fill="#e8dcff" stroke="#8b5cf6" d="M469.52,-52C469.52,-52 347.47,-52 347.47,-52 341.47,-52 335.47,-46 335.47,-40 335.47,-40 335.47,-28 335.47,-28 335.47,-22 341.47,-16 347.47,-16 347.47,-16 469.52,-16 469.52,-16 475.52,-16 481.52,-22 481.52,-28 481.52,-28 481.52,-40 481.52,-40 481.52,-46 475.52,-52 469.52,-52"/>
<text xml:space="preserve" text-anchor="middle" x="408.5" y="-31" font-family="Helvetica,sans-Serif" font-size="10.00">SpectralTheoremCompactSA</text>
</a>
</g>
</g>
<!-- n7 -->
<g id="node8" class="node">
<title>n7</title>
<g id="a_node8"><a xlink:href="vscode://vscode-remote/wsl+Ubuntu/home/gavin/statlib/Statlib/Mathlib/Analysis/SpectralTruncation.lean:98" xlink:title="noncomputable def · Statlib/Mathlib/Analysis/SpectralTruncation.lean:98" target="_blank">
<path fill="#d6e9ff" stroke="#3b82f6" d="M487.73,-124C487.73,-124 421.26,-124 421.26,-124 415.26,-124 409.26,-118 409.26,-112 409.26,-112 409.26,-100 409.26,-100 409.26,-94 415.26,-88 421.26,-88 421.26,-88 487.73,-88 487.73,-88 493.73,-88 499.73,-94 499.73,-100 499.73,-100 499.73,-112 499.73,-112 499.73,-118 493.73,-124 487.73,-124"/>
<text xml:space="preserve" text-anchor="middle" x="454.5" y="-103" font-family="Helvetica,sans-Serif" font-size="10.00">spectralTruncate</text>
</a>
</g>
</g>
<!-- n7&#45;&gt;n6 -->
<g id="edge4" class="edge">
<title>n7&#45;&gt;n6</title>
<path fill="none" stroke="#64748b" d="M443.12,-87.7C437.44,-79.05 430.48,-68.45 424.28,-59.03"/>
<polygon fill="#64748b" stroke="#64748b" points="426.46,-57.87 420.57,-53.37 422.36,-60.56 426.46,-57.87"/>
</g>
<!-- n8 -->
<g id="node9" class="node">
<title>n8</title>
<g id="a_node9"><a xlink:href="vscode://vscode-remote/wsl+Ubuntu/home/gavin/statlib/Statlib/Mathlib/Analysis/SpectralTruncation.lean:107" xlink:title="lemma · Statlib/Mathlib/Analysis/SpectralTruncation.lean:107" target="_blank">
<path fill="#eef2f6" stroke="#94a3b8" d="M487.5,-196C487.5,-196 457.5,-196 457.5,-196 451.5,-196 445.5,-190 445.5,-184 445.5,-184 445.5,-172 445.5,-172 445.5,-166 451.5,-160 457.5,-160 457.5,-160 487.5,-160 487.5,-160 493.5,-160 499.5,-166 499.5,-172 499.5,-172 499.5,-184 499.5,-184 499.5,-190 493.5,-196 487.5,-196"/>
<text xml:space="preserve" text-anchor="middle" x="472.5" y="-175" font-family="Helvetica,sans-Serif" font-size="10.00">apply</text>
</a>
</g>
</g>
<!-- n8&#45;&gt;n6 -->
<g id="edge5" class="edge">
<title>n8&#45;&gt;n6</title>
<path fill="none" stroke="#64748b" d="M445.05,-164.81C428.88,-156.01 409.81,-142.42 400.5,-124 390.54,-104.31 394.12,-79.03 399.26,-60.45"/>
<polygon fill="#64748b" stroke="#64748b" points="401.57,-61.28 401.25,-53.87 396.88,-59.86 401.57,-61.28"/>
</g>
<!-- n8&#45;&gt;n7 -->
<g id="edge6" class="edge">
<title>n8&#45;&gt;n7</title>
<path fill="none" stroke="#64748b" d="M468.05,-159.7C465.91,-151.39 463.31,-141.28 460.96,-132.14"/>
<polygon fill="#64748b" stroke="#64748b" points="463.39,-131.74 459.27,-125.57 458.64,-132.96 463.39,-131.74"/>
</g>
<!-- n9 -->
<g id="node10" class="node">
<title>n9</title>
<g id="a_node10"><a xlink:href="vscode://vscode-remote/wsl+Ubuntu/home/gavin/statlib/Statlib/Mathlib/Analysis/HilbertSchmidtCompact.lean:110" xlink:title="theorem · Statlib/Mathlib/Analysis/HilbertSchmidtCompact.lean:110" target="_blank">
<path fill="#ffe6a3" stroke="#d4a017" d="M487.36,-268C487.36,-268 383.63,-268 383.63,-268 377.63,-268 371.63,-262 371.63,-256 371.63,-256 371.63,-244 371.63,-244 371.63,-238 377.63,-232 383.63,-232 383.63,-232 487.36,-232 487.36,-232 493.36,-232 499.36,-238 499.36,-244 499.36,-244 499.36,-256 499.36,-256 499.36,-262 493.36,-268 487.36,-268"/>
<text xml:space="preserve" text-anchor="middle" x="435.5" y="-247" font-family="Helvetica,sans-Serif" font-size="10.00">truncate_finiteDim_range</text>
</a>
</g>
</g>
<!-- n9&#45;&gt;n2 -->
<g id="edge7" class="edge">
<title>n9&#45;&gt;n2</title>
<path fill="none" stroke="#64748b" d="M390.28,-231.51C372.02,-222.84 351.71,-210.98 336.5,-196 323.45,-183.16 328.84,-173.51 316.5,-160 304.06,-146.4 287.48,-134.51 272.8,-125.46"/>
<polygon fill="#64748b" stroke="#64748b" points="274.34,-123.52 267.07,-122.02 271.82,-127.72 274.34,-123.52"/>
</g>
<!-- n9&#45;&gt;n5 -->
<g id="edge8" class="edge">
<title>n9&#45;&gt;n5</title>
<path fill="none" stroke="#64748b" d="M423.38,-231.7C417.33,-223.05 409.91,-212.45 403.31,-203.03"/>
<polygon fill="#64748b" stroke="#64748b" points="405.36,-201.67 399.34,-197.34 401.34,-204.48 405.36,-201.67"/>
</g>
<!-- n9&#45;&gt;n8 -->
<g id="edge9" class="edge">
<title>n9&#45;&gt;n8</title>
<path fill="none" stroke="#64748b" d="M444.64,-231.7C449.12,-223.22 454.6,-212.86 459.5,-203.58"/>
<polygon fill="#64748b" stroke="#64748b" points="461.64,-204.78 462.75,-197.44 457.31,-202.49 461.64,-204.78"/>
</g>
<!-- n10 -->
<g id="node11" class="node">
<title>n10</title>
<g id="a_node11"><a xlink:href="vscode://vscode-remote/wsl+Ubuntu/home/gavin/statlib/Statlib/Mathlib/Analysis/HilbertSchmidtCompact.lean:132" xlink:title="theorem · Statlib/Mathlib/Analysis/HilbertSchmidtCompact.lean:132" target="_blank">
<path fill="#ffe6a3" stroke="#d4a017" d="M336.69,-340C336.69,-340 216.3,-340 216.3,-340 210.3,-340 204.3,-334 204.3,-328 204.3,-328 204.3,-316 204.3,-316 204.3,-310 210.3,-304 216.3,-304 216.3,-304 336.69,-304 336.69,-304 342.69,-304 348.69,-310 348.69,-316 348.69,-316 348.69,-328 348.69,-328 348.69,-334 342.69,-340 336.69,-340"/>
<text xml:space="preserve" text-anchor="middle" x="276.5" y="-319" font-family="Helvetica,sans-Serif" font-size="10.00">truncate_isCompactOperator</text>
</a>
</g>
</g>
<!-- n10&#45;&gt;n2 -->
<g id="edge10" class="edge">
<title>n10&#45;&gt;n2</title>
<path fill="none" stroke="#64748b" d="M249.53,-303.52C236.01,-293.98 219.91,-281.41 207.5,-268 204.25,-264.5 161.86,-200.58 160.5,-196 155.93,-180.66 153.01,-174.14 160.5,-160 169.73,-142.56 187.56,-129.79 203.85,-121.16"/>
<polygon fill="#64748b" stroke="#64748b" points="204.67,-123.49 209.83,-118.17 202.47,-119.11 204.67,-123.49"/>
</g>
<!-- n10&#45;&gt;n4 -->
<g id="edge11" class="edge">
<title>n10&#45;&gt;n4</title>
<path fill="none" stroke="#64748b" d="M278.72,-303.7C279.78,-295.47 281.06,-285.48 282.23,-276.42"/>
<polygon fill="#64748b" stroke="#64748b" points="284.64,-276.86 283.1,-269.61 279.78,-276.24 284.64,-276.86"/>
</g>
<!-- n10&#45;&gt;n9 -->
<g id="edge12" class="edge">
<title>n10&#45;&gt;n9</title>
<path fill="none" stroke="#64748b" d="M316.21,-303.52C338.11,-293.88 365.43,-281.84 388.41,-271.73"/>
<polygon fill="#64748b" stroke="#64748b" points="389.21,-274.05 394.63,-268.99 387.24,-269.57 389.21,-274.05"/>
</g>
<!-- n11 -->
<g id="node12" class="node">
<title>n11</title>
<g id="a_node12"><a xlink:href="vscode://vscode-remote/wsl+Ubuntu/home/gavin/statlib/Statlib/Mathlib/Analysis/HilbertSchmidtCompact.lean:153" xlink:title="theorem · Statlib/Mathlib/Analysis/HilbertSchmidtCompact.lean:153" target="_blank">
<path fill="#ffe6a3" stroke="#d4a017" stroke-width="3" d="M296.88,-412C296.88,-412 58.11,-412 58.11,-412 52.11,-412 46.11,-406 46.11,-400 46.11,-400 46.11,-388 46.11,-388 46.11,-382 52.11,-376 58.11,-376 58.11,-376 296.88,-376 296.88,-376 302.88,-376 308.88,-382 308.88,-388 308.88,-388 308.88,-400 308.88,-400 308.88,-406 302.88,-412 296.88,-412"/>
<text xml:space="preserve" text-anchor="middle" x="177.5" y="-391" font-family="Helvetica,sans-Serif" font-size="10.00">IsHilbertSchmidt.isCompactOperator_of_truncationLimit</text>
</a>
</g>
</g>
<!-- n11&#45;&gt;n1 -->
<g id="edge13" class="edge">
<title>n11&#45;&gt;n1</title>
<path fill="none" stroke="#64748b" d="M159.1,-374.61C150.33,-365.84 139.75,-355.25 130.45,-345.96"/>
<polygon fill="#64748b" stroke="#64748b" points="132.32,-344.36 125.63,-341.14 128.85,-347.82 132.32,-344.36"/>
</g>
<!-- n11&#45;&gt;n2 -->
<g id="edge14" class="edge">
<title>n11&#45;&gt;n2</title>
<path fill="none" stroke="#64748b" d="M178.44,-374.82C179.55,-344.66 179.88,-282.6 167.5,-232 159.7,-200.16 135.44,-188.58 151.5,-160 162.61,-140.21 184.44,-126.95 203.45,-118.63"/>
<polygon fill="#64748b" stroke="#64748b" points="204.18,-120.99 209.72,-116.05 202.31,-116.46 204.18,-120.99"/>
</g>
<!-- n11&#45;&gt;n10 -->
<g id="edge15" class="edge">
<title>n11&#45;&gt;n10</title>
<path fill="none" stroke="#64748b" d="M203.51,-374.61C216.29,-365.57 231.79,-354.61 245.21,-345.12"/>
<polygon fill="#64748b" stroke="#64748b" points="246.48,-347.22 250.78,-341.18 243.65,-343.22 246.48,-347.22"/>
</g>
</g>
</svg>
