<?xml version="1.0" encoding="UTF-8" standalone="no"?>
<!DOCTYPE svg PUBLIC "-//W3C//DTD SVG 1.1//EN"
 "http://www.w3.org/Graphics/SVG/1.1/DTD/svg11.dtd">
<!-- Generated by graphviz version 15.0.0 (20260523.1842)
 -->
<!-- Title: IsHilbertSchmidt.isCompactOperator Pages: 1 -->
<svg width="572pt" height="555pt"
 viewBox="0.00 0.00 572.00 555.00" xmlns="http://www.w3.org/2000/svg" xmlns:xlink="http://www.w3.org/1999/xlink">
<g id="graph0" class="graph" transform="scale(1 1) rotate(0) translate(4 551.2)">
<title>IsHilbertSchmidt.isCompactOperator</title>
<polygon fill="white" stroke="none" points="-4,4 -4,-551.2 568,-551.2 568,4 -4,4"/>
<text xml:space="preserve" text-anchor="middle" x="282" y="-530.6" font-family="Helvetica,sans-Serif" font-size="14.00">Proof narrative — IsHilbertSchmidt.isCompactOperator &#160;(14 decls)</text>
<g id="clust1" class="cluster">
<title>cluster_0</title>
<path fill="none" stroke="#cbd5e1" stroke-dasharray="5,2" d="M222,-8C222,-8 544,-8 544,-8 550,-8 556,-14 556,-20 556,-20 556,-213.2 556,-213.2 556,-219.2 550,-225.2 544,-225.2 544,-225.2 222,-225.2 222,-225.2 216,-225.2 210,-219.2 210,-213.2 210,-213.2 210,-20 210,-20 210,-14 216,-8 222,-8"/>
<text xml:space="preserve" text-anchor="middle" x="383" y="-211.3" font-family="Helvetica,sans-Serif" font-size="11.00">CoxChangePoint</text>
</g>
<g id="clust2" class="cluster">
<title>cluster_1</title>
<path fill="none" stroke="#cbd5e1" stroke-dasharray="5,2" d="M20,-80C20,-80 190,-80 190,-80 196,-80 202,-86 202,-92 202,-92 202,-502.4 202,-502.4 202,-508.4 196,-514.4 190,-514.4 190,-514.4 20,-514.4 20,-514.4 14,-514.4 8,-508.4 8,-502.4 8,-502.4 8,-92 8,-92 8,-86 14,-80 20,-80"/>
<text xml:space="preserve" text-anchor="middle" x="105" y="-500.5" font-family="Helvetica,sans-Serif" font-size="11.00">Mathlib</text>
</g>
<!-- n0 -->
<g id="node1" class="node">
<title>n0</title>
<g id="a_node1"><a xlink:href="vscode://vscode-remote/wsl+Ubuntu/home/gavin/statlib/Statlib/CoxChangePoint/SpectralOperator.lean:103" xlink:title="structure · Statlib/CoxChangePoint/SpectralOperator.lean:103" target="_blank">
<path fill="#e8dcff" stroke="#8b5cf6" d="M339.8,-52C339.8,-52 232.2,-52 232.2,-52 226.2,-52 220.2,-46 220.2,-40 220.2,-40 220.2,-28 220.2,-28 220.2,-22 226.2,-16 232.2,-16 232.2,-16 339.8,-16 339.8,-16 345.8,-16 351.8,-22 351.8,-28 351.8,-28 351.8,-40 351.8,-40 351.8,-46 345.8,-52 339.8,-52"/>
<text xml:space="preserve" text-anchor="middle" x="286" y="-31" font-family="Helvetica,sans-Serif" font-size="10.00">SymmetricKernelOperator</text>
</a>
</g>
</g>
<!-- n1 -->
<g id="node2" class="node">
<title>n1</title>
<g id="a_node2"><a xlink:href="vscode://vscode-remote/wsl+Ubuntu/home/gavin/statlib/Statlib/CoxChangePoint/L2Operator.lean:212" xlink:title="structure · Statlib/CoxChangePoint/L2Operator.lean:212" target="_blank">
<path fill="#e8dcff" stroke="#8b5cf6" d="M341.77,-124C341.77,-124 230.23,-124 230.23,-124 224.23,-124 218.23,-118 218.23,-112 218.23,-112 218.23,-100 218.23,-100 218.23,-94 224.23,-88 230.23,-88 230.23,-88 341.77,-88 341.77,-88 347.77,-88 353.77,-94 353.77,-100 353.77,-100 353.77,-112 353.77,-112 353.77,-118 347.77,-124 341.77,-124"/>
<text xml:space="preserve" text-anchor="middle" x="286" y="-103" font-family="Helvetica,sans-Serif" font-size="10.00">L2BoundedKernelOperator</text>
</a>
</g>
</g>
<!-- n1&#45;&gt;n0 -->
<g id="edge1" class="edge">
<title>n1&#45;&gt;n0</title>
<path fill="none" stroke="#64748b" d="M286,-87.7C286,-79.47 286,-69.48 286,-60.42"/>
<polygon fill="#64748b" stroke="#64748b" points="288.45,-60.62 286,-53.62 283.55,-60.62 288.45,-60.62"/>
</g>
<!-- n2 -->
<g id="node3" class="node">
<title>n2</title>
<g id="a_node3"><a xlink:href="vscode://vscode-remote/wsl+Ubuntu/home/gavin/statlib/Statlib/CoxChangePoint/Foundation.lean:57" xlink:title="structure · Statlib/CoxChangePoint/Foundation.lean:57" target="_blank">
<path fill="#e8dcff" stroke="#8b5cf6" d="M494.62,-52C494.62,-52 455.38,-52 455.38,-52 449.38,-52 443.38,-46 443.38,-40 443.38,-40 443.38,-28 443.38,-28 443.38,-22 449.38,-16 455.38,-16 455.38,-16 494.62,-16 494.62,-16 500.62,-16 506.62,-22 506.62,-28 506.62,-28 506.62,-40 506.62,-40 506.62,-46 500.62,-52 494.62,-52"/>
<text xml:space="preserve" text-anchor="middle" x="475" y="-31" font-family="Helvetica,sans-Serif" font-size="10.00">CoxParam</text>
</a>
</g>
</g>
<!-- n3 -->
<g id="node4" class="node">
<title>n3</title>
<g id="a_node4"><a xlink:href="vscode://vscode-remote/wsl+Ubuntu/home/gavin/statlib/Statlib/CoxChangePoint/Foundation.lean:38" xlink:title="structure · Statlib/CoxChangePoint/Foundation.lean:38" target="_blank">
<path fill="#e8dcff" stroke="#8b5cf6" d="M413,-52C413,-52 383,-52 383,-52 377,-52 371,-46 371,-40 371,-40 371,-28 371,-28 371,-22 377,-16 383,-16 383,-16 413,-16 413,-16 419,-16 425,-22 425,-28 425,-28 425,-40 425,-40 425,-46 419,-52 413,-52"/>
<text xml:space="preserve" text-anchor="middle" x="398" y="-31" font-family="Helvetica,sans-Serif" font-size="10.00">CoxObs</text>
</a>
</g>
</g>
<!-- n4 -->
<g id="node5" class="node">
<title>n4</title>
<g id="a_node5"><a xlink:href="vscode://vscode-remote/wsl+Ubuntu/home/gavin/statlib/Statlib/CoxChangePoint/Foundation.lean:68" xlink:title="noncomputable def · Statlib/CoxChangePoint/Foundation.lean:68" target="_blank">
<path fill="#d6e9ff" stroke="#3b82f6" d="M414,-124C414,-124 384,-124 384,-124 378,-124 372,-118 372,-112 372,-112 372,-100 372,-100 372,-94 378,-88 384,-88 384,-88 414,-88 414,-88 420,-88 426,-94 426,-100 426,-100 426,-112 426,-112 426,-118 420,-124 414,-124"/>
<text xml:space="preserve" text-anchor="middle" x="399" y="-103" font-family="Helvetica,sans-Serif" font-size="10.00">g</text>
</a>
</g>
</g>
<!-- n4&#45;&gt;n2 -->
<g id="edge2" class="edge">
<title>n4&#45;&gt;n2</title>
<path fill="none" stroke="#64748b" d="M417.79,-87.7C427.56,-78.69 439.64,-67.57 450.17,-57.87"/>
<polygon fill="#64748b" stroke="#64748b" points="451.56,-59.92 455.05,-53.37 448.24,-56.31 451.56,-59.92"/>
</g>
<!-- n4&#45;&gt;n3 -->
<g id="edge3" class="edge">
<title>n4&#45;&gt;n3</title>
<path fill="none" stroke="#64748b" d="M398.75,-87.7C398.64,-79.47 398.49,-69.48 398.36,-60.42"/>
<polygon fill="#64748b" stroke="#64748b" points="400.82,-60.58 398.27,-53.62 395.92,-60.65 400.82,-60.58"/>
</g>
<!-- n5 -->
<g id="node6" class="node">
<title>n5</title>
<g id="a_node6"><a xlink:href="vscode://vscode-remote/wsl+Ubuntu/home/gavin/statlib/Statlib/CoxChangePoint/L2OperatorMap.lean:204" xlink:title="structure · Statlib/CoxChangePoint/L2OperatorMap.lean:204" target="_blank">
<path fill="#e8dcff" stroke="#8b5cf6" d="M302.3,-196C302.3,-196 229.7,-196 229.7,-196 223.7,-196 217.7,-190 217.7,-184 217.7,-184 217.7,-172 217.7,-172 217.7,-166 223.7,-160 229.7,-160 229.7,-160 302.3,-160 302.3,-160 308.3,-160 314.3,-166 314.3,-172 314.3,-172 314.3,-184 314.3,-184 314.3,-190 308.3,-196 302.3,-196"/>
<text xml:space="preserve" text-anchor="middle" x="266" y="-175" font-family="Helvetica,sans-Serif" font-size="10.00">L2KernelMapData</text>
</a>
</g>
</g>
<!-- n5&#45;&gt;n1 -->
<g id="edge4" class="edge">
<title>n5&#45;&gt;n1</title>
<path fill="none" stroke="#64748b" d="M270.94,-159.7C273.32,-151.39 276.21,-141.28 278.82,-132.14"/>
<polygon fill="#64748b" stroke="#64748b" points="281.13,-132.96 280.7,-125.56 276.42,-131.62 281.13,-132.96"/>
</g>
<!-- n5&#45;&gt;n4 -->
<g id="edge5" class="edge">
<title>n5&#45;&gt;n4</title>
<path fill="none" stroke="#64748b" d="M299.22,-159.52C319,-149.1 344.08,-135.9 364.15,-125.34"/>
<polygon fill="#64748b" stroke="#64748b" points="365.18,-127.57 370.24,-122.14 362.9,-123.23 365.18,-127.57"/>
</g>
<!-- n8 -->
<g id="node7" class="node">
<title>n8</title>
<g id="a_node7"><a xlink:href="vscode://vscode-remote/wsl+Ubuntu/home/gavin/statlib/Statlib/CoxChangePoint/L2OperatorMap.lean:239" xlink:title="def · Statlib/CoxChangePoint/L2OperatorMap.lean:239" target="_blank">
<path fill="#d6e9ff" stroke="#3b82f6" d="M536.09,-196C536.09,-196 437.91,-196 437.91,-196 431.91,-196 425.91,-190 425.91,-184 425.91,-184 425.91,-172 425.91,-172 425.91,-166 431.91,-160 437.91,-160 437.91,-160 536.09,-160 536.09,-160 542.09,-160 548.09,-166 548.09,-172 548.09,-172 548.09,-184 548.09,-184 548.09,-190 542.09,-196 536.09,-196"/>
<text xml:space="preserve" text-anchor="middle" x="487" y="-175" font-family="Helvetica,sans-Serif" font-size="10.00">toContinuousLinearMap</text>
</a>
</g>
</g>
<!-- n9 -->
<g id="node8" class="node">
<title>n9</title>
<g id="a_node8"><a xlink:href="vscode://vscode-remote/wsl+Ubuntu/home/gavin/statlib/Statlib/CoxChangePoint/L2Operator.lean:233" xlink:title="lemma · Statlib/CoxChangePoint/L2Operator.lean:233" target="_blank">
<path fill="#eef2f6" stroke="#94a3b8" d="M395.73,-196C395.73,-196 344.27,-196 344.27,-196 338.27,-196 332.27,-190 332.27,-184 332.27,-184 332.27,-172 332.27,-172 332.27,-166 338.27,-160 344.27,-160 344.27,-160 395.73,-160 395.73,-160 401.73,-160 407.73,-166 407.73,-172 407.73,-172 407.73,-184 407.73,-184 407.73,-190 401.73,-196 395.73,-196"/>
<text xml:space="preserve" text-anchor="middle" x="370" y="-175" font-family="Helvetica,sans-Serif" font-size="10.00">kernel_symm</text>
</a>
</g>
</g>
<!-- n6 -->
<g id="node9" class="node">
<title>n6</title>
<g id="a_node9"><a xlink:href="vscode://vscode-remote/wsl+Ubuntu/home/gavin/statlib/Statlib/Mathlib/Analysis/HilbertSchmidt.lean:74" xlink:title="structure · Statlib/Mathlib/Analysis/HilbertSchmidt.lean:74" target="_blank">
<path fill="#e8dcff" stroke="#8b5cf6" d="M120.29,-124C120.29,-124 27.71,-124 27.71,-124 21.71,-124 15.71,-118 15.71,-112 15.71,-112 15.71,-100 15.71,-100 15.71,-94 21.71,-88 27.71,-88 27.71,-88 120.29,-88 120.29,-88 126.29,-88 132.29,-94 132.29,-100 132.29,-100 132.29,-112 132.29,-112 132.29,-118 126.29,-124 120.29,-124"/>
<text xml:space="preserve" text-anchor="middle" x="74" y="-103" font-family="Helvetica,sans-Serif" font-size="10.00">HilbertSchmidtWitness</text>
</a>
</g>
</g>
<!-- n7 -->
<g id="node10" class="node">
<title>n7</title>
<g id="a_node10"><a xlink:href="vscode://vscode-remote/wsl+Ubuntu/home/gavin/statlib/Statlib/Mathlib/Analysis/HilbertSchmidt.lean:88" xlink:title="def · Statlib/Mathlib/Analysis/HilbertSchmidt.lean:88" target="_blank">
<path fill="#d6e9ff" stroke="#3b82f6" d="M106.4,-196C106.4,-196 41.6,-196 41.6,-196 35.6,-196 29.6,-190 29.6,-184 29.6,-184 29.6,-172 29.6,-172 29.6,-166 35.6,-160 41.6,-160 41.6,-160 106.4,-160 106.4,-160 112.4,-160 118.4,-166 118.4,-172 118.4,-172 118.4,-184 118.4,-184 118.4,-190 112.4,-196 106.4,-196"/>
<text xml:space="preserve" text-anchor="middle" x="74" y="-175" font-family="Helvetica,sans-Serif" font-size="10.00">IsHilbertSchmidt</text>
</a>
</g>
</g>
<!-- n7&#45;&gt;n6 -->
<g id="edge6" class="edge">
<title>n7&#45;&gt;n6</title>
<path fill="none" stroke="#64748b" d="M74,-159.7C74,-151.47 74,-141.48 74,-132.42"/>
<polygon fill="#64748b" stroke="#64748b" points="76.45,-132.62 74,-125.62 71.55,-132.62 76.45,-132.62"/>
</g>
<!-- n10 -->
<g id="node11" class="node">
<title>n10</title>
<g id="a_node11"><a xlink:href="vscode://vscode-remote/wsl+Ubuntu/home/gavin/statlib/Statlib/Mathlib/Analysis/L2CompactSAInstance.lean:92" xlink:title="structure · Statlib/Mathlib/Analysis/L2CompactSAInstance.lean:92" target="_blank">
<path fill="#e8dcff" stroke="#8b5cf6" d="M181.75,-269.2C181.75,-269.2 110.25,-269.2 110.25,-269.2 104.25,-269.2 98.25,-263.2 98.25,-257.2 98.25,-257.2 98.25,-245.2 98.25,-245.2 98.25,-239.2 104.25,-233.2 110.25,-233.2 110.25,-233.2 181.75,-233.2 181.75,-233.2 187.75,-233.2 193.75,-239.2 193.75,-245.2 193.75,-245.2 193.75,-257.2 193.75,-257.2 193.75,-263.2 187.75,-269.2 181.75,-269.2"/>
<text xml:space="preserve" text-anchor="middle" x="146" y="-248.2" font-family="Helvetica,sans-Serif" font-size="10.00">L2KernelOperator</text>
</a>
</g>
</g>
<!-- n10&#45;&gt;n1 -->
<g id="edge11" class="edge">
<title>n10&#45;&gt;n1</title>
<path fill="none" stroke="#64748b" d="M155.54,-232.88C166.69,-213.64 186.5,-182.34 209,-160 220.77,-148.31 235.41,-137.51 248.76,-128.75"/>
<polygon fill="#64748b" stroke="#64748b" points="249.75,-131.02 254.32,-125.18 247.11,-126.9 249.75,-131.02"/>
</g>
<!-- n10&#45;&gt;n5 -->
<g id="edge7" class="edge">
<title>n10&#45;&gt;n5</title>
<path fill="none" stroke="#64748b" d="M191.5,-232.74C196.49,-230.39 201.41,-227.86 206,-225.2 217.66,-218.44 229.61,-209.68 239.74,-201.61"/>
<polygon fill="#64748b" stroke="#64748b" points="241.05,-203.7 244.94,-197.39 237.96,-199.9 241.05,-203.7"/>
</g>
<!-- n10&#45;&gt;n8 -->
<g id="edge9" class="edge">
<title>n10&#45;&gt;n8</title>
<path fill="none" stroke="#64748b" d="M194.23,-246.05C270.73,-239.43 411.81,-227.02 417,-225.2 432.42,-219.79 447.77,-210.24 460.15,-201.23"/>
<polygon fill="#64748b" stroke="#64748b" points="461.37,-203.38 465.49,-197.21 458.43,-199.46 461.37,-203.38"/>
</g>
<!-- n10&#45;&gt;n9 -->
<g id="edge10" class="edge">
<title>n10&#45;&gt;n9</title>
<path fill="none" stroke="#64748b" d="M193.87,-246.82C238.35,-243.08 300.95,-236.09 323,-225.2 333.79,-219.87 343.65,-211.12 351.52,-202.66"/>
<polygon fill="#64748b" stroke="#64748b" points="353.33,-204.31 356.13,-197.45 349.66,-201.07 353.33,-204.31"/>
</g>
<!-- n10&#45;&gt;n7 -->
<g id="edge8" class="edge">
<title>n10&#45;&gt;n7</title>
<path fill="none" stroke="#64748b" d="M128.57,-232.96C119.18,-223.68 107.46,-212.09 97.3,-202.04"/>
<polygon fill="#64748b" stroke="#64748b" points="99.29,-200.57 92.59,-197.39 95.85,-204.05 99.29,-200.57"/>
</g>
<!-- n11 -->
<g id="node12" class="node">
<title>n11</title>
<g id="a_node12"><a xlink:href="vscode://vscode-remote/wsl+Ubuntu/home/gavin/statlib/Statlib/Mathlib/Analysis/L2CompactSAInstance.lean:119" xlink:title="def · Statlib/Mathlib/Analysis/L2CompactSAInstance.lean:119" target="_blank">
<path fill="#d6e9ff" stroke="#3b82f6" d="M182,-341.2C182,-341.2 152,-341.2 152,-341.2 146,-341.2 140,-335.2 140,-329.2 140,-329.2 140,-317.2 140,-317.2 140,-311.2 146,-305.2 152,-305.2 152,-305.2 182,-305.2 182,-305.2 188,-305.2 194,-311.2 194,-317.2 194,-317.2 194,-329.2 194,-329.2 194,-335.2 188,-341.2 182,-341.2"/>
<text xml:space="preserve" text-anchor="middle" x="167" y="-320.2" font-family="Helvetica,sans-Serif" font-size="10.00">toCLM</text>
</a>
</g>
</g>
<!-- n11&#45;&gt;n8 -->
<g id="edge13" class="edge">
<title>n11&#45;&gt;n8</title>
<path fill="none" stroke="#64748b" d="M194.46,-313.69C241.38,-298.67 339.44,-265.26 417,-225.2 430.52,-218.22 444.66,-209.24 456.67,-201.06"/>
<polygon fill="#64748b" stroke="#64748b" points="457.87,-203.21 462.23,-197.21 455.08,-199.18 457.87,-203.21"/>
</g>
<!-- n11&#45;&gt;n10 -->
<g id="edge12" class="edge">
<title>n11&#45;&gt;n10</title>
<path fill="none" stroke="#64748b" d="M161.81,-304.9C159.32,-296.59 156.28,-286.48 153.54,-277.34"/>
<polygon fill="#64748b" stroke="#64748b" points="155.92,-276.75 151.57,-270.75 151.23,-278.16 155.92,-276.75"/>
</g>
<!-- n12 -->
<g id="node13" class="node">
<title>n12</title>
<g id="a_node13"><a xlink:href="vscode://vscode-remote/wsl+Ubuntu/home/gavin/statlib/Statlib/Mathlib/Analysis/L2CompactSAInstance.lean:159" xlink:title="theorem · Statlib/Mathlib/Analysis/L2CompactSAInstance.lean:159" target="_blank">
<path fill="#ffe6a3" stroke="#d4a017" d="M182.35,-413.2C182.35,-413.2 103.65,-413.2 103.65,-413.2 97.65,-413.2 91.65,-407.2 91.65,-401.2 91.65,-401.2 91.65,-389.2 91.65,-389.2 91.65,-383.2 97.65,-377.2 103.65,-377.2 103.65,-377.2 182.35,-377.2 182.35,-377.2 188.35,-377.2 194.35,-383.2 194.35,-389.2 194.35,-389.2 194.35,-401.2 194.35,-401.2 194.35,-407.2 188.35,-413.2 182.35,-413.2"/>
<text xml:space="preserve" text-anchor="middle" x="143" y="-392.2" font-family="Helvetica,sans-Serif" font-size="10.00">isCompactOperator</text>
</a>
</g>
</g>
<!-- n12&#45;&gt;n10 -->
<g id="edge14" class="edge">
<title>n12&#45;&gt;n10</title>
<path fill="none" stroke="#64748b" d="M138.01,-376.7C135.34,-366.45 132.34,-353.2 131,-341.2 129.22,-325.3 128.8,-321.05 131,-305.2 132.28,-296.01 134.74,-286.18 137.3,-277.51"/>
<polygon fill="#64748b" stroke="#64748b" points="139.57,-278.46 139.31,-271.05 134.89,-277.01 139.57,-278.46"/>
</g>
<!-- n12&#45;&gt;n11 -->
<g id="edge15" class="edge">
<title>n12&#45;&gt;n11</title>
<path fill="none" stroke="#64748b" d="M148.93,-376.9C151.78,-368.59 155.25,-358.48 158.38,-349.34"/>
<polygon fill="#64748b" stroke="#64748b" points="160.69,-350.15 160.64,-342.74 156.06,-348.56 160.69,-350.15"/>
</g>
<!-- n13 -->
<g id="node14" class="node">
<title>n13</title>
<g id="a_node14"><a xlink:href="vscode://vscode-remote/wsl+Ubuntu/home/gavin/statlib/Statlib/Mathlib/Analysis/HilbertSchmidt.lean:172" xlink:title="theorem · Statlib/Mathlib/Analysis/HilbertSchmidt.lean:172" target="_blank">
<path fill="#ffe6a3" stroke="#d4a017" stroke-width="3" d="M182.14,-485.2C182.14,-485.2 27.86,-485.2 27.86,-485.2 21.86,-485.2 15.86,-479.2 15.86,-473.2 15.86,-473.2 15.86,-461.2 15.86,-461.2 15.86,-455.2 21.86,-449.2 27.86,-449.2 27.86,-449.2 182.14,-449.2 182.14,-449.2 188.14,-449.2 194.14,-455.2 194.14,-461.2 194.14,-461.2 194.14,-473.2 194.14,-473.2 194.14,-479.2 188.14,-485.2 182.14,-485.2"/>
<text xml:space="preserve" text-anchor="middle" x="105" y="-464.2" font-family="Helvetica,sans-Serif" font-size="10.00">IsHilbertSchmidt.isCompactOperator</text>
</a>
</g>
</g>
<!-- n13&#45;&gt;n7 -->
<g id="edge17" class="edge">
<title>n13&#45;&gt;n7</title>
<path fill="none" stroke="#64748b" d="M95.6,-448.08C90.89,-438.08 85.65,-425.27 83,-413.2 66.69,-338.83 69.41,-248.06 72.06,-204.6"/>
<polygon fill="#64748b" stroke="#64748b" points="74.49,-204.96 72.5,-197.82 69.6,-204.64 74.49,-204.96"/>
</g>
<!-- n13&#45;&gt;n12 -->
<g id="edge16" class="edge">
<title>n13&#45;&gt;n12</title>
<path fill="none" stroke="#64748b" d="M114.98,-447.81C119.52,-439.45 124.95,-429.46 129.81,-420.49"/>
<polygon fill="#64748b" stroke="#64748b" points="131.83,-421.92 133.01,-414.6 127.52,-419.58 131.83,-421.92"/>
</g>
</g>
</svg>
