<?xml version="1.0" encoding="UTF-8" standalone="no"?>
<!DOCTYPE svg PUBLIC "-//W3C//DTD SVG 1.1//EN"
 "http://www.w3.org/Graphics/SVG/1.1/DTD/svg11.dtd">
<!-- Generated by graphviz version 15.0.0 (20260523.1842)
 -->
<!-- Title: polynomialBracketingClass_integrand_pointwise_bound Pages: 1 -->
<svg width="552pt" height="555pt"
 viewBox="0.00 0.00 552.00 555.00" xmlns="http://www.w3.org/2000/svg" xmlns:xlink="http://www.w3.org/1999/xlink">
<g id="graph0" class="graph" transform="scale(1 1) rotate(0) translate(4 551.2)">
<title>polynomialBracketingClass_integrand_pointwise_bound</title>
<polygon fill="white" stroke="none" points="-4,4 -4,-551.2 548,-551.2 548,4 -4,4"/>
<text xml:space="preserve" text-anchor="middle" x="272" y="-530.6" font-family="Helvetica,sans-Serif" font-size="14.00">Proof narrative — polynomialBracketingClass_integrand_pointwise_bound &#160;(12 decls)</text>
<g id="clust1" class="cluster">
<title>cluster_0</title>
<path fill="none" stroke="#cbd5e1" stroke-dasharray="5,2" d="M414,-8C414,-8 524,-8 524,-8 530,-8 536,-14 536,-20 536,-20 536,-285.2 536,-285.2 536,-291.2 530,-297.2 524,-297.2 524,-297.2 414,-297.2 414,-297.2 408,-297.2 402,-291.2 402,-285.2 402,-285.2 402,-20 402,-20 402,-14 408,-8 414,-8"/>
<text xml:space="preserve" text-anchor="middle" x="469" y="-283.3" font-family="Helvetica,sans-Serif" font-size="11.00">CoxChangePoint</text>
</g>
<g id="clust2" class="cluster">
<title>cluster_1</title>
<path fill="none" stroke="#cbd5e1" stroke-dasharray="5,2" d="M20,-152C20,-152 382,-152 382,-152 388,-152 394,-158 394,-164 394,-164 394,-502.4 394,-502.4 394,-508.4 388,-514.4 382,-514.4 382,-514.4 20,-514.4 20,-514.4 14,-514.4 8,-508.4 8,-502.4 8,-502.4 8,-164 8,-164 8,-158 14,-152 20,-152"/>
<text xml:space="preserve" text-anchor="middle" x="201" y="-500.5" font-family="Helvetica,sans-Serif" font-size="11.00">Mathlib</text>
</g>
<!-- n0 -->
<g id="node1" class="node">
<title>n0</title>
<g id="a_node1"><a xlink:href="vscode://vscode-remote/wsl+Ubuntu/home/gavin/statlib/Statlib/CoxChangePoint/BracketingEntropy.lean:58" xlink:title="structure · Statlib/CoxChangePoint/BracketingEntropy.lean:58" target="_blank">
<path fill="#e8dcff" stroke="#8b5cf6" d="M468,-52C468,-52 438,-52 438,-52 432,-52 426,-46 426,-40 426,-40 426,-28 426,-28 426,-22 432,-16 438,-16 438,-16 468,-16 468,-16 474,-16 480,-22 480,-28 480,-28 480,-40 480,-40 480,-46 474,-52 468,-52"/>
<text xml:space="preserve" text-anchor="middle" x="453" y="-31" font-family="Helvetica,sans-Serif" font-size="10.00">Bracket</text>
</a>
</g>
</g>
<!-- n1 -->
<g id="node2" class="node">
<title>n1</title>
<g id="a_node2"><a xlink:href="vscode://vscode-remote/wsl+Ubuntu/home/gavin/statlib/Statlib/CoxChangePoint/BracketingEntropy.lean:79" xlink:title="def · Statlib/CoxChangePoint/BracketingEntropy.lean:79" target="_blank">
<path fill="#d6e9ff" stroke="#3b82f6" d="M499,-124C499,-124 469,-124 469,-124 463,-124 457,-118 457,-112 457,-112 457,-100 457,-100 457,-94 463,-88 469,-88 469,-88 499,-88 499,-88 505,-88 511,-94 511,-100 511,-100 511,-112 511,-112 511,-118 505,-124 499,-124"/>
<text xml:space="preserve" text-anchor="middle" x="484" y="-103" font-family="Helvetica,sans-Serif" font-size="10.00">contains</text>
</a>
</g>
</g>
<!-- n1&#45;&gt;n0 -->
<g id="edge1" class="edge">
<title>n1&#45;&gt;n0</title>
<path fill="none" stroke="#64748b" d="M476.34,-87.7C472.62,-79.3 468.09,-69.07 464.01,-59.86"/>
<polygon fill="#64748b" stroke="#64748b" points="466.26,-58.9 461.19,-53.49 461.78,-60.88 466.26,-58.9"/>
</g>
<!-- n2 -->
<g id="node3" class="node">
<title>n2</title>
<g id="a_node3"><a xlink:href="vscode://vscode-remote/wsl+Ubuntu/home/gavin/statlib/Statlib/CoxChangePoint/BracketingEntropy.lean:111" xlink:title="def · Statlib/CoxChangePoint/BracketingEntropy.lean:111" target="_blank">
<path fill="#d6e9ff" stroke="#3b82f6" d="M515.58,-196C515.58,-196 422.42,-196 422.42,-196 416.42,-196 410.42,-190 410.42,-184 410.42,-184 410.42,-172 410.42,-172 410.42,-166 416.42,-160 422.42,-160 422.42,-160 515.58,-160 515.58,-160 521.58,-160 527.58,-166 527.58,-172 527.58,-172 527.58,-184 527.58,-184 527.58,-190 521.58,-196 515.58,-196"/>
<text xml:space="preserve" text-anchor="middle" x="469" y="-175" font-family="Helvetica,sans-Serif" font-size="10.00">bracketingCardinalities</text>
</a>
</g>
</g>
<!-- n2&#45;&gt;n0 -->
<g id="edge2" class="edge">
<title>n2&#45;&gt;n0</title>
<path fill="none" stroke="#64748b" d="M460.28,-159.83C455.63,-149.69 450.38,-136.44 448,-124 443.96,-102.84 445.79,-78.37 448.31,-60.45"/>
<polygon fill="#64748b" stroke="#64748b" points="450.7,-61.01 449.34,-53.72 445.86,-60.27 450.7,-61.01"/>
</g>
<!-- n2&#45;&gt;n1 -->
<g id="edge3" class="edge">
<title>n2&#45;&gt;n1</title>
<path fill="none" stroke="#64748b" d="M472.71,-159.7C474.47,-151.47 476.61,-141.48 478.55,-132.42"/>
<polygon fill="#64748b" stroke="#64748b" points="480.95,-132.94 480.02,-125.58 476.16,-131.92 480.95,-132.94"/>
</g>
<!-- n3 -->
<g id="node4" class="node">
<title>n3</title>
<g id="a_node4"><a xlink:href="vscode://vscode-remote/wsl+Ubuntu/home/gavin/statlib/Statlib/CoxChangePoint/BracketingEntropy.lean:120" xlink:title="noncomputable def · Statlib/CoxChangePoint/BracketingEntropy.lean:120" target="_blank">
<path fill="#d6e9ff" stroke="#3b82f6" d="M501.41,-268C501.41,-268 426.59,-268 426.59,-268 420.59,-268 414.59,-262 414.59,-256 414.59,-256 414.59,-244 414.59,-244 414.59,-238 420.59,-232 426.59,-232 426.59,-232 501.41,-232 501.41,-232 507.41,-232 513.41,-238 513.41,-244 513.41,-244 513.41,-256 513.41,-256 513.41,-262 507.41,-268 501.41,-268"/>
<text xml:space="preserve" text-anchor="middle" x="464" y="-247" font-family="Helvetica,sans-Serif" font-size="10.00">BracketingNumber</text>
</a>
</g>
</g>
<!-- n3&#45;&gt;n2 -->
<g id="edge4" class="edge">
<title>n3&#45;&gt;n2</title>
<path fill="none" stroke="#64748b" d="M465.24,-231.7C465.82,-223.47 466.54,-213.48 467.18,-204.42"/>
<polygon fill="#64748b" stroke="#64748b" points="469.62,-204.77 467.67,-197.61 464.73,-204.42 469.62,-204.77"/>
</g>
<!-- n4 -->
<g id="node5" class="node">
<title>n4</title>
<g id="a_node5"><a xlink:href="vscode://vscode-remote/wsl+Ubuntu/home/gavin/statlib/Statlib/Mathlib/EmpiricalProcess/BracketingIntegralConv.lean:164" xlink:title="structure · Statlib/Mathlib/EmpiricalProcess/BracketingIntegralConv.lean:164" target="_blank">
<path fill="#e8dcff" stroke="#8b5cf6" d="M333.58,-341.2C333.58,-341.2 220.42,-341.2 220.42,-341.2 214.42,-341.2 208.42,-335.2 208.42,-329.2 208.42,-329.2 208.42,-317.2 208.42,-317.2 208.42,-311.2 214.42,-305.2 220.42,-305.2 220.42,-305.2 333.58,-305.2 333.58,-305.2 339.58,-305.2 345.58,-311.2 345.58,-317.2 345.58,-317.2 345.58,-329.2 345.58,-329.2 345.58,-335.2 339.58,-341.2 333.58,-341.2"/>
<text xml:space="preserve" text-anchor="middle" x="277" y="-320.2" font-family="Helvetica,sans-Serif" font-size="10.00">PolynomialBracketingClass</text>
</a>
</g>
</g>
<!-- n4&#45;&gt;n3 -->
<g id="edge5" class="edge">
<title>n4&#45;&gt;n3</title>
<path fill="none" stroke="#64748b" d="M346.01,-312.97C363.41,-309.3 381.75,-304.21 398,-297.2 411.96,-291.18 425.96,-281.95 437.45,-273.31"/>
<polygon fill="#64748b" stroke="#64748b" points="438.67,-275.47 442.71,-269.25 435.67,-271.59 438.67,-275.47"/>
</g>
<!-- n5 -->
<g id="node6" class="node">
<title>n5</title>
<g id="a_node6"><a xlink:href="vscode://vscode-remote/wsl+Ubuntu/home/gavin/statlib/Statlib/Mathlib/Analysis/SpectralCompactSelfAdjoint.lean:299" xlink:title="structure · Statlib/Mathlib/Analysis/SpectralCompactSelfAdjoint.lean:299" target="_blank">
<path fill="#e8dcff" stroke="#8b5cf6" d="M161.03,-196C161.03,-196 38.97,-196 38.97,-196 32.97,-196 26.97,-190 26.97,-184 26.97,-184 26.97,-172 26.97,-172 26.97,-166 32.97,-160 38.97,-160 38.97,-160 161.03,-160 161.03,-160 167.03,-160 173.03,-166 173.03,-172 173.03,-172 173.03,-184 173.03,-184 173.03,-190 167.03,-196 161.03,-196"/>
<text xml:space="preserve" text-anchor="middle" x="100" y="-175" font-family="Helvetica,sans-Serif" font-size="10.00">SpectralTheoremCompactSA</text>
</a>
</g>
</g>
<!-- n6 -->
<g id="node7" class="node">
<title>n6</title>
<g id="a_node7"><a xlink:href="vscode://vscode-remote/wsl+Ubuntu/home/gavin/statlib/Statlib/Mathlib/Analysis/SpectralTruncation.lean:98" xlink:title="noncomputable def · Statlib/Mathlib/Analysis/SpectralTruncation.lean:98" target="_blank">
<path fill="#d6e9ff" stroke="#3b82f6" d="M139.24,-268C139.24,-268 72.76,-268 72.76,-268 66.76,-268 60.76,-262 60.76,-256 60.76,-256 60.76,-244 60.76,-244 60.76,-238 66.76,-232 72.76,-232 72.76,-232 139.24,-232 139.24,-232 145.24,-232 151.24,-238 151.24,-244 151.24,-244 151.24,-256 151.24,-256 151.24,-262 145.24,-268 139.24,-268"/>
<text xml:space="preserve" text-anchor="middle" x="106" y="-247" font-family="Helvetica,sans-Serif" font-size="10.00">spectralTruncate</text>
</a>
</g>
</g>
<!-- n6&#45;&gt;n5 -->
<g id="edge6" class="edge">
<title>n6&#45;&gt;n5</title>
<path fill="none" stroke="#64748b" d="M104.52,-231.7C103.81,-223.47 102.96,-213.48 102.18,-204.42"/>
<polygon fill="#64748b" stroke="#64748b" points="104.63,-204.38 101.6,-197.61 99.75,-204.8 104.63,-204.38"/>
</g>
<!-- n7 -->
<g id="node8" class="node">
<title>n7</title>
<g id="a_node8"><a xlink:href="vscode://vscode-remote/wsl+Ubuntu/home/gavin/statlib/Statlib/Mathlib/Analysis/SpectralTruncation.lean:107" xlink:title="lemma · Statlib/Mathlib/Analysis/SpectralTruncation.lean:107" target="_blank">
<path fill="#eef2f6" stroke="#94a3b8" d="M67,-341.2C67,-341.2 37,-341.2 37,-341.2 31,-341.2 25,-335.2 25,-329.2 25,-329.2 25,-317.2 25,-317.2 25,-311.2 31,-305.2 37,-305.2 37,-305.2 67,-305.2 67,-305.2 73,-305.2 79,-311.2 79,-317.2 79,-317.2 79,-329.2 79,-329.2 79,-335.2 73,-341.2 67,-341.2"/>
<text xml:space="preserve" text-anchor="middle" x="52" y="-320.2" font-family="Helvetica,sans-Serif" font-size="10.00">apply</text>
</a>
</g>
</g>
<!-- n7&#45;&gt;n5 -->
<g id="edge7" class="edge">
<title>n7&#45;&gt;n5</title>
<path fill="none" stroke="#64748b" d="M48.42,-304.91C45.36,-286.24 42.76,-255.96 52,-232 56.32,-220.8 64.22,-210.5 72.39,-202.02"/>
<polygon fill="#64748b" stroke="#64748b" points="73.69,-204.17 76.96,-197.51 70.25,-200.68 73.69,-204.17"/>
</g>
<!-- n7&#45;&gt;n6 -->
<g id="edge8" class="edge">
<title>n7&#45;&gt;n6</title>
<path fill="none" stroke="#64748b" d="M65.07,-304.96C71.97,-295.87 80.54,-284.57 88.05,-274.67"/>
<polygon fill="#64748b" stroke="#64748b" points="89.86,-276.34 92.13,-269.28 85.95,-273.38 89.86,-276.34"/>
</g>
<!-- n8 -->
<g id="node9" class="node">
<title>n8</title>
<g id="a_node9"><a xlink:href="vscode://vscode-remote/wsl+Ubuntu/home/gavin/statlib/Statlib/Mathlib/EmpiricalProcess/BracketingIntegralConv.lean:82" xlink:title="lemma · Statlib/Mathlib/EmpiricalProcess/BracketingIntegralConv.lean:82" target="_blank">
<path fill="#eef2f6" stroke="#94a3b8" d="M173.41,-341.2C173.41,-341.2 108.59,-341.2 108.59,-341.2 102.59,-341.2 96.59,-335.2 96.59,-329.2 96.59,-329.2 96.59,-317.2 96.59,-317.2 96.59,-311.2 102.59,-305.2 108.59,-305.2 108.59,-305.2 173.41,-305.2 173.41,-305.2 179.41,-305.2 185.41,-311.2 185.41,-317.2 185.41,-317.2 185.41,-329.2 185.41,-329.2 185.41,-335.2 179.41,-341.2 173.41,-341.2"/>
<text xml:space="preserve" text-anchor="middle" x="141" y="-320.2" font-family="Helvetica,sans-Serif" font-size="10.00">subadditive_sqrt</text>
</a>
</g>
</g>
<!-- n9 -->
<g id="node10" class="node">
<title>n9</title>
<g id="a_node10"><a xlink:href="vscode://vscode-remote/wsl+Ubuntu/home/gavin/statlib/Statlib/Mathlib/EmpiricalProcess/BracketingIntegralConv.lean:223" xlink:title="theorem · Statlib/Mathlib/EmpiricalProcess/BracketingIntegralConv.lean:223" target="_blank">
<path fill="#ffe6a3" stroke="#d4a017" d="M246.12,-413.2C246.12,-413.2 27.88,-413.2 27.88,-413.2 21.88,-413.2 15.88,-407.2 15.88,-401.2 15.88,-401.2 15.88,-389.2 15.88,-389.2 15.88,-383.2 21.88,-377.2 27.88,-377.2 27.88,-377.2 246.12,-377.2 246.12,-377.2 252.12,-377.2 258.12,-383.2 258.12,-389.2 258.12,-389.2 258.12,-401.2 258.12,-401.2 258.12,-407.2 252.12,-413.2 246.12,-413.2"/>
<text xml:space="preserve" text-anchor="middle" x="137" y="-392.2" font-family="Helvetica,sans-Serif" font-size="10.00">polynomialBracketingClass_sqrt_log_bracketing_le</text>
</a>
</g>
</g>
<!-- n9&#45;&gt;n4 -->
<g id="edge9" class="edge">
<title>n9&#45;&gt;n4</title>
<path fill="none" stroke="#64748b" d="M171.97,-376.72C191.07,-367.17 214.86,-355.27 234.97,-345.21"/>
<polygon fill="#64748b" stroke="#64748b" points="235.96,-347.46 241.13,-342.14 233.77,-343.08 235.96,-347.46"/>
</g>
<!-- n9&#45;&gt;n7 -->
<g id="edge10" class="edge">
<title>n9&#45;&gt;n7</title>
<path fill="none" stroke="#64748b" d="M115.99,-376.9C104.95,-367.81 91.3,-356.56 79.44,-346.8"/>
<polygon fill="#64748b" stroke="#64748b" points="81.19,-345.07 74.23,-342.51 78.08,-348.85 81.19,-345.07"/>
</g>
<!-- n9&#45;&gt;n8 -->
<g id="edge11" class="edge">
<title>n9&#45;&gt;n8</title>
<path fill="none" stroke="#64748b" d="M137.99,-376.9C138.46,-368.67 139.03,-358.68 139.55,-349.62"/>
<polygon fill="#64748b" stroke="#64748b" points="141.98,-349.94 139.94,-342.82 137.09,-349.66 141.98,-349.94"/>
</g>
<!-- n10 -->
<g id="node11" class="node">
<title>n10</title>
<g id="a_node11"><a xlink:href="vscode://vscode-remote/wsl+Ubuntu/home/gavin/statlib/Statlib/Mathlib/EmpiricalProcess/BracketingIntegralConv.lean:100" xlink:title="lemma · Statlib/Mathlib/EmpiricalProcess/BracketingIntegralConv.lean:100" target="_blank">
<path fill="#eef2f6" stroke="#94a3b8" d="M374.25,-413.2C374.25,-413.2 307.75,-413.2 307.75,-413.2 301.75,-413.2 295.75,-407.2 295.75,-401.2 295.75,-401.2 295.75,-389.2 295.75,-389.2 295.75,-383.2 301.75,-377.2 307.75,-377.2 307.75,-377.2 374.25,-377.2 374.25,-377.2 380.25,-377.2 386.25,-383.2 386.25,-389.2 386.25,-389.2 386.25,-401.2 386.25,-401.2 386.25,-407.2 380.25,-413.2 374.25,-413.2"/>
<text xml:space="preserve" text-anchor="middle" x="341" y="-392.2" font-family="Helvetica,sans-Serif" font-size="10.00">sqrt_le_add_one</text>
</a>
</g>
</g>
<!-- n11 -->
<g id="node12" class="node">
<title>n11</title>
<g id="a_node12"><a xlink:href="vscode://vscode-remote/wsl+Ubuntu/home/gavin/statlib/Statlib/Mathlib/EmpiricalProcess/BracketingIntegralConv.lean:263" xlink:title="theorem · Statlib/Mathlib/EmpiricalProcess/BracketingIntegralConv.lean:263" target="_blank">
<path fill="#ffe6a3" stroke="#d4a017" stroke-width="3" d="M373.97,-485.2C373.97,-485.2 134.03,-485.2 134.03,-485.2 128.03,-485.2 122.03,-479.2 122.03,-473.2 122.03,-473.2 122.03,-461.2 122.03,-461.2 122.03,-455.2 128.03,-449.2 134.03,-449.2 134.03,-449.2 373.97,-449.2 373.97,-449.2 379.97,-449.2 385.97,-455.2 385.97,-461.2 385.97,-461.2 385.97,-473.2 385.97,-473.2 385.97,-479.2 379.97,-485.2 373.97,-485.2"/>
<text xml:space="preserve" text-anchor="middle" x="254" y="-464.2" font-family="Helvetica,sans-Serif" font-size="10.00">polynomialBracketingClass_integrand_pointwise_bound</text>
</a>
</g>
</g>
<!-- n11&#45;&gt;n4 -->
<g id="edge12" class="edge">
<title>n11&#45;&gt;n4</title>
<path fill="none" stroke="#64748b" d="M259.03,-448.17C261.73,-437.98 264.91,-424.95 267,-413.2 270.77,-392.02 273.39,-367.74 274.99,-349.89"/>
<polygon fill="#64748b" stroke="#64748b" points="277.41,-350.38 275.57,-343.2 272.53,-349.96 277.41,-350.38"/>
</g>
<!-- n11&#45;&gt;n9 -->
<g id="edge13" class="edge">
<title>n11&#45;&gt;n9</title>
<path fill="none" stroke="#64748b" d="M223.26,-447.81C207.88,-438.6 189.16,-427.41 173.1,-417.8"/>
<polygon fill="#64748b" stroke="#64748b" points="174.49,-415.77 167.22,-414.28 171.97,-419.98 174.49,-415.77"/>
</g>
<!-- n11&#45;&gt;n10 -->
<g id="edge14" class="edge">
<title>n11&#45;&gt;n10</title>
<path fill="none" stroke="#64748b" d="M276.86,-447.81C287.88,-438.94 301.21,-428.21 312.86,-418.84"/>
<polygon fill="#64748b" stroke="#64748b" points="314.39,-420.75 318.31,-414.45 311.32,-416.93 314.39,-420.75"/>
</g>
</g>
</svg>
