<?xml version="1.0" encoding="UTF-8" standalone="no"?>
<!DOCTYPE svg PUBLIC "-//W3C//DTD SVG 1.1//EN"
 "http://www.w3.org/Graphics/SVG/1.1/DTD/svg11.dtd">
<!-- Generated by graphviz version 15.0.0 (20260523.1842)
 -->
<!-- Title: spectralTruncate_tendsto_op_norm_complete Pages: 1 -->
<svg width="1051pt" height="554pt"
 viewBox="0.00 0.00 1051.00 554.00" xmlns="http://www.w3.org/2000/svg" xmlns:xlink="http://www.w3.org/1999/xlink">
<g id="graph0" class="graph" transform="scale(1 1) rotate(0) translate(4 550)">
<title>spectralTruncate_tendsto_op_norm_complete</title>
<polygon fill="white" stroke="none" points="-4,4 -4,-550 1047,-550 1047,4 -4,4"/>
<text xml:space="preserve" text-anchor="middle" x="521.5" y="-529.4" font-family="Helvetica,sans-Serif" font-size="14.00">Proof narrative — spectralTruncate_tendsto_op_norm_complete &#160;(18 decls)</text>
<g id="clust1" class="cluster">
<title>cluster_0</title>
<path fill="none" stroke="#cbd5e1" stroke-dasharray="5,2" d="M20,-8C20,-8 1023,-8 1023,-8 1029,-8 1035,-14 1035,-20 1035,-20 1035,-501.2 1035,-501.2 1035,-507.2 1029,-513.2 1023,-513.2 1023,-513.2 20,-513.2 20,-513.2 14,-513.2 8,-507.2 8,-501.2 8,-501.2 8,-20 8,-20 8,-14 14,-8 20,-8"/>
<text xml:space="preserve" text-anchor="middle" x="521.5" y="-499.3" font-family="Helvetica,sans-Serif" font-size="11.00">Mathlib</text>
</g>
<!-- n0 -->
<g id="node1" class="node">
<title>n0</title>
<g id="a_node1"><a xlink:href="vscode://vscode-remote/wsl+Ubuntu/home/gavin/statlib/Statlib/Mathlib/Analysis/SpectralCompactSelfAdjoint.lean:299" xlink:title="structure · Statlib/Mathlib/Analysis/SpectralCompactSelfAdjoint.lean:299" target="_blank">
<path fill="#e8dcff" stroke="#8b5cf6" d="M523.03,-52C523.03,-52 400.97,-52 400.97,-52 394.97,-52 388.97,-46 388.97,-40 388.97,-40 388.97,-28 388.97,-28 388.97,-22 394.97,-16 400.97,-16 400.97,-16 523.03,-16 523.03,-16 529.03,-16 535.03,-22 535.03,-28 535.03,-28 535.03,-40 535.03,-40 535.03,-46 529.03,-52 523.03,-52"/>
<text xml:space="preserve" text-anchor="middle" x="462" y="-31" font-family="Helvetica,sans-Serif" font-size="10.00">SpectralTheoremCompactSA</text>
</a>
</g>
</g>
<!-- n1 -->
<g id="node2" class="node">
<title>n1</title>
<g id="a_node2"><a xlink:href="vscode://vscode-remote/wsl+Ubuntu/home/gavin/statlib/Statlib/Mathlib/Analysis/BesselCompactSA.lean:63" xlink:title="structure · Statlib/Mathlib/Analysis/BesselCompactSA.lean:63" target="_blank">
<path fill="#e8dcff" stroke="#8b5cf6" d="M155.81,-268C155.81,-268 48.19,-268 48.19,-268 42.19,-268 36.19,-262 36.19,-256 36.19,-256 36.19,-244 36.19,-244 36.19,-238 42.19,-232 48.19,-232 48.19,-232 155.81,-232 155.81,-232 161.81,-232 167.81,-238 167.81,-244 167.81,-244 167.81,-256 167.81,-256 167.81,-262 161.81,-268 155.81,-268"/>
<text xml:space="preserve" text-anchor="middle" x="102" y="-247" font-family="Helvetica,sans-Serif" font-size="10.00">SpectralEigenbasisIsTotal</text>
</a>
</g>
</g>
<!-- n1&#45;&gt;n0 -->
<g id="edge1" class="edge">
<title>n1&#45;&gt;n0</title>
<path fill="none" stroke="#64748b" d="M105.31,-231.68C112.68,-198.17 133.74,-124.57 182,-88 212.66,-64.77 309.39,-50.21 380.61,-42.35"/>
<polygon fill="#64748b" stroke="#64748b" points="380.52,-44.82 387.22,-41.63 380,-39.95 380.52,-44.82"/>
</g>
<!-- n2 -->
<g id="node3" class="node">
<title>n2</title>
<g id="a_node3"><a xlink:href="vscode://vscode-remote/wsl+Ubuntu/home/gavin/statlib/Statlib/Mathlib/Analysis/SpectralTruncation.lean:98" xlink:title="noncomputable def · Statlib/Mathlib/Analysis/SpectralTruncation.lean:98" target="_blank">
<path fill="#d6e9ff" stroke="#3b82f6" d="M642.24,-124C642.24,-124 575.76,-124 575.76,-124 569.76,-124 563.76,-118 563.76,-112 563.76,-112 563.76,-100 563.76,-100 563.76,-94 569.76,-88 575.76,-88 575.76,-88 642.24,-88 642.24,-88 648.24,-88 654.24,-94 654.24,-100 654.24,-100 654.24,-112 654.24,-112 654.24,-118 648.24,-124 642.24,-124"/>
<text xml:space="preserve" text-anchor="middle" x="609" y="-103" font-family="Helvetica,sans-Serif" font-size="10.00">spectralTruncate</text>
</a>
</g>
</g>
<!-- n2&#45;&gt;n0 -->
<g id="edge2" class="edge">
<title>n2&#45;&gt;n0</title>
<path fill="none" stroke="#64748b" d="M572.28,-87.52C552.21,-77.96 527.21,-66.05 506.09,-56"/>
<polygon fill="#64748b" stroke="#64748b" points="507.24,-53.83 499.87,-53.03 505.13,-58.25 507.24,-53.83"/>
</g>
<!-- n3 -->
<g id="node4" class="node">
<title>n3</title>
<g id="a_node4"><a xlink:href="vscode://vscode-remote/wsl+Ubuntu/home/gavin/statlib/Statlib/Mathlib/Analysis/SpectralTruncationConv.lean:162" xlink:title="structure · Statlib/Mathlib/Analysis/SpectralTruncationConv.lean:162" target="_blank">
<path fill="#e8dcff" stroke="#8b5cf6" d="M381.59,-196C381.59,-196 268.41,-196 268.41,-196 262.41,-196 256.41,-190 256.41,-184 256.41,-184 256.41,-172 256.41,-172 256.41,-166 262.41,-160 268.41,-160 268.41,-160 381.59,-160 381.59,-160 387.59,-160 393.59,-166 393.59,-172 393.59,-172 393.59,-184 393.59,-184 393.59,-190 387.59,-196 381.59,-196"/>
<text xml:space="preserve" text-anchor="middle" x="325" y="-175" font-family="Helvetica,sans-Serif" font-size="10.00">BesselSquaredNormBound</text>
</a>
</g>
</g>
<!-- n3&#45;&gt;n0 -->
<g id="edge3" class="edge">
<title>n3&#45;&gt;n0</title>
<path fill="none" stroke="#64748b" d="M319.87,-159.56C315.32,-140.25 311.41,-109.09 326,-88 338.97,-69.25 359.62,-57.14 380.94,-49.31"/>
<polygon fill="#64748b" stroke="#64748b" points="381.56,-51.69 387.39,-47.1 379.97,-47.05 381.56,-51.69"/>
</g>
<!-- n3&#45;&gt;n2 -->
<g id="edge4" class="edge">
<title>n3&#45;&gt;n2</title>
<path fill="none" stroke="#64748b" d="M393.75,-160.05C443.46,-147.8 509.66,-131.48 555.46,-120.2"/>
<polygon fill="#64748b" stroke="#64748b" points="555.8,-122.64 562.01,-118.58 554.63,-117.88 555.8,-122.64"/>
</g>
<!-- n4 -->
<g id="node5" class="node">
<title>n4</title>
<g id="a_node5"><a xlink:href="vscode://vscode-remote/wsl+Ubuntu/home/gavin/statlib/Statlib/Mathlib/Analysis/SpectralTruncationConv.lean:178" xlink:title="theorem · Statlib/Mathlib/Analysis/SpectralTruncationConv.lean:178" target="_blank">
<path fill="#ffe6a3" stroke="#d4a017" d="M342.43,-268C342.43,-268 217.57,-268 217.57,-268 211.57,-268 205.57,-262 205.57,-256 205.57,-256 205.57,-244 205.57,-244 205.57,-238 211.57,-232 217.57,-232 217.57,-232 342.43,-232 342.43,-232 348.43,-232 354.43,-238 354.43,-244 354.43,-244 354.43,-256 354.43,-256 354.43,-262 348.43,-268 342.43,-268"/>
<text xml:space="preserve" text-anchor="middle" x="280" y="-247" font-family="Helvetica,sans-Serif" font-size="10.00">spectralTruncate_op_norm_le</text>
</a>
</g>
</g>
<!-- n4&#45;&gt;n0 -->
<g id="edge5" class="edge">
<title>n4&#45;&gt;n0</title>
<path fill="none" stroke="#64748b" d="M260.53,-231.92C251.18,-222.4 240.95,-209.72 236,-196 230.57,-180.95 229.68,-174.7 236,-160 260.91,-102.09 326.62,-70.09 380.8,-53"/>
<polygon fill="#64748b" stroke="#64748b" points="381.28,-55.42 387.26,-51.03 379.85,-50.73 381.28,-55.42"/>
</g>
<!-- n4&#45;&gt;n2 -->
<g id="edge7" class="edge">
<title>n4&#45;&gt;n2</title>
<path fill="none" stroke="#64748b" d="M264.28,-231.76C248.53,-212.35 229,-180.82 247,-160 257,-148.43 456.93,-124.26 555.28,-113.01"/>
<polygon fill="#64748b" stroke="#64748b" points="555.44,-115.46 562.11,-112.23 554.88,-110.59 555.44,-115.46"/>
</g>
<!-- n4&#45;&gt;n3 -->
<g id="edge6" class="edge">
<title>n4&#45;&gt;n3</title>
<path fill="none" stroke="#64748b" d="M291.12,-231.7C296.68,-223.05 303.5,-212.45 309.55,-203.03"/>
<polygon fill="#64748b" stroke="#64748b" points="311.46,-204.59 313.19,-197.38 307.34,-201.94 311.46,-204.59"/>
</g>
<!-- n5 -->
<g id="node6" class="node">
<title>n5</title>
<g id="a_node6"><a xlink:href="vscode://vscode-remote/wsl+Ubuntu/home/gavin/statlib/Statlib/Mathlib/Analysis/SpectralTruncationConv.lean:215" xlink:title="theorem · Statlib/Mathlib/Analysis/SpectralTruncationConv.lean:215" target="_blank">
<path fill="#ffe6a3" stroke="#d4a017" d="M286.12,-340C286.12,-340 87.88,-340 87.88,-340 81.88,-340 75.88,-334 75.88,-328 75.88,-328 75.88,-316 75.88,-316 75.88,-310 81.88,-304 87.88,-304 87.88,-304 286.12,-304 286.12,-304 292.12,-304 298.12,-310 298.12,-316 298.12,-316 298.12,-328 298.12,-328 298.12,-334 292.12,-340 286.12,-340"/>
<text xml:space="preserve" text-anchor="middle" x="187" y="-319" font-family="Helvetica,sans-Serif" font-size="10.00">spectralTruncate_tendsto_op_norm_of_bessel</text>
</a>
</g>
</g>
<!-- n5&#45;&gt;n0 -->
<g id="edge8" class="edge">
<title>n5&#45;&gt;n0</title>
<path fill="none" stroke="#64748b" d="M186.36,-303.71C185.78,-260.05 190.8,-144.82 256,-88 290.19,-58.2 338.99,-44.8 380.5,-38.91"/>
<polygon fill="#64748b" stroke="#64748b" points="380.58,-41.37 387.2,-38.03 379.94,-36.52 380.58,-41.37"/>
</g>
<!-- n5&#45;&gt;n2 -->
<g id="edge10" class="edge">
<title>n5&#45;&gt;n2</title>
<path fill="none" stroke="#64748b" d="M287.05,-303.5C315.65,-295.58 345.86,-284.22 371,-268 423.99,-233.82 411.2,-195.95 463,-160 490.74,-140.75 526.28,-127.65 555.35,-119.29"/>
<polygon fill="#64748b" stroke="#64748b" points="555.82,-121.7 561.9,-117.46 554.5,-116.98 555.82,-121.7"/>
</g>
<!-- n5&#45;&gt;n3 -->
<g id="edge9" class="edge">
<title>n5&#45;&gt;n3</title>
<path fill="none" stroke="#64748b" d="M279.85,-303.53C316.38,-294.6 352.2,-282.53 363,-268 377.86,-248.01 362.76,-221.33 347.43,-202.41"/>
<polygon fill="#64748b" stroke="#64748b" points="349.63,-201.22 343.24,-197.46 345.89,-204.39 349.63,-201.22"/>
</g>
<!-- n5&#45;&gt;n4 -->
<g id="edge11" class="edge">
<title>n5&#45;&gt;n4</title>
<path fill="none" stroke="#64748b" d="M209.99,-303.7C222.17,-294.53 237.28,-283.16 250.34,-273.33"/>
<polygon fill="#64748b" stroke="#64748b" points="251.62,-275.42 255.74,-269.26 248.68,-271.51 251.62,-275.42"/>
</g>
<!-- n6 -->
<g id="node7" class="node">
<title>n6</title>
<g id="a_node7"><a xlink:href="vscode://vscode-remote/wsl+Ubuntu/home/gavin/statlib/Statlib/Mathlib/MeasureTheory/L2Separable.lean:108" xlink:title="structure · Statlib/Mathlib/MeasureTheory/L2Separable.lean:108" target="_blank">
<path fill="#e8dcff" stroke="#8b5cf6" d="M567.58,-196C567.58,-196 484.42,-196 484.42,-196 478.42,-196 472.42,-190 472.42,-184 472.42,-184 472.42,-172 472.42,-172 472.42,-166 478.42,-160 484.42,-160 484.42,-160 567.58,-160 567.58,-160 573.58,-160 579.58,-166 579.58,-172 579.58,-172 579.58,-184 579.58,-184 579.58,-190 573.58,-196 567.58,-196"/>
<text xml:space="preserve" text-anchor="middle" x="526" y="-175" font-family="Helvetica,sans-Serif" font-size="10.00">OrthonormalBasisL2</text>
</a>
</g>
</g>
<!-- n7 -->
<g id="node8" class="node">
<title>n7</title>
<g id="a_node8"><a xlink:href="vscode://vscode-remote/wsl+Ubuntu/home/gavin/statlib/Statlib/Mathlib/MeasureTheory/L2Separable.lean:153" xlink:title="noncomputable def · Statlib/Mathlib/MeasureTheory/L2Separable.lean:153" target="_blank">
<path fill="#d6e9ff" stroke="#3b82f6" d="M537.84,-268C537.84,-268 484.16,-268 484.16,-268 478.16,-268 472.16,-262 472.16,-256 472.16,-256 472.16,-244 472.16,-244 472.16,-238 478.16,-232 484.16,-232 484.16,-232 537.84,-232 537.84,-232 543.84,-232 549.84,-238 549.84,-244 549.84,-244 549.84,-256 549.84,-256 549.84,-262 543.84,-268 537.84,-268"/>
<text xml:space="preserve" text-anchor="middle" x="511" y="-247" font-family="Helvetica,sans-Serif" font-size="10.00">toHilbertBasis</text>
</a>
</g>
</g>
<!-- n7&#45;&gt;n6 -->
<g id="edge12" class="edge">
<title>n7&#45;&gt;n6</title>
<path fill="none" stroke="#64748b" d="M514.71,-231.7C516.47,-223.47 518.61,-213.48 520.55,-204.42"/>
<polygon fill="#64748b" stroke="#64748b" points="522.95,-204.94 522.02,-197.58 518.16,-203.92 522.95,-204.94"/>
</g>
<!-- n8 -->
<g id="node9" class="node">
<title>n8</title>
<g id="a_node9"><a xlink:href="vscode://vscode-remote/wsl+Ubuntu/home/gavin/statlib/Statlib/Mathlib/Analysis/SpectralCompactSelfAdjoint.lean:323" xlink:title="theorem · Statlib/Mathlib/Analysis/SpectralCompactSelfAdjoint.lean:323" target="_blank">
<path fill="#ffe6a3" stroke="#d4a017" d="M430.86,-124C430.86,-124 347.14,-124 347.14,-124 341.14,-124 335.14,-118 335.14,-112 335.14,-112 335.14,-100 335.14,-100 335.14,-94 341.14,-88 347.14,-88 347.14,-88 430.86,-88 430.86,-88 436.86,-88 442.86,-94 442.86,-100 442.86,-100 442.86,-112 442.86,-112 442.86,-118 436.86,-124 430.86,-124"/>
<text xml:space="preserve" text-anchor="middle" x="389" y="-103" font-family="Helvetica,sans-Serif" font-size="10.00">orthonormal_eigenfn</text>
</a>
</g>
</g>
<!-- n8&#45;&gt;n0 -->
<g id="edge13" class="edge">
<title>n8&#45;&gt;n0</title>
<path fill="none" stroke="#64748b" d="M407.04,-87.7C416.35,-78.78 427.82,-67.78 437.87,-58.14"/>
<polygon fill="#64748b" stroke="#64748b" points="439.46,-60.01 442.82,-53.39 436.07,-56.47 439.46,-60.01"/>
</g>
<!-- n9 -->
<g id="node10" class="node">
<title>n9</title>
<g id="a_node10"><a xlink:href="vscode://vscode-remote/wsl+Ubuntu/home/gavin/statlib/Statlib/Mathlib/Analysis/BesselCompactSA.lean:77" xlink:title="noncomputable def · Statlib/Mathlib/Analysis/BesselCompactSA.lean:77" target="_blank">
<path fill="#d6e9ff" stroke="#3b82f6" d="M534.26,-340C534.26,-340 347.74,-340 347.74,-340 341.74,-340 335.74,-334 335.74,-328 335.74,-328 335.74,-316 335.74,-316 335.74,-310 341.74,-304 347.74,-304 347.74,-304 534.26,-304 534.26,-304 540.26,-304 546.26,-310 546.26,-316 546.26,-316 546.26,-328 546.26,-328 546.26,-334 540.26,-340 534.26,-340"/>
<text xml:space="preserve" text-anchor="middle" x="441" y="-319" font-family="Helvetica,sans-Serif" font-size="10.00">SpectralTheoremCompactSA.toHilbertBasis</text>
</a>
</g>
</g>
<!-- n9&#45;&gt;n0 -->
<g id="edge15" class="edge">
<title>n9&#45;&gt;n0</title>
<path fill="none" stroke="#64748b" d="M442.28,-303.54C445.85,-254.96 455.9,-118.02 460.11,-60.72"/>
<polygon fill="#64748b" stroke="#64748b" points="462.55,-60.9 460.62,-53.74 457.67,-60.54 462.55,-60.9"/>
</g>
<!-- n9&#45;&gt;n1 -->
<g id="edge16" class="edge">
<title>n9&#45;&gt;n1</title>
<path fill="none" stroke="#64748b" d="M356.33,-303.52C300.93,-292.08 229.24,-277.27 176.1,-266.3"/>
<polygon fill="#64748b" stroke="#64748b" points="176.9,-263.96 169.55,-264.95 175.91,-268.76 176.9,-263.96"/>
</g>
<!-- n9&#45;&gt;n7 -->
<g id="edge14" class="edge">
<title>n9&#45;&gt;n7</title>
<path fill="none" stroke="#64748b" d="M458.3,-303.7C467.29,-294.71 478.39,-283.61 488.08,-273.92"/>
<polygon fill="#64748b" stroke="#64748b" points="489.61,-275.86 492.83,-269.17 486.14,-272.39 489.61,-275.86"/>
</g>
<!-- n9&#45;&gt;n8 -->
<g id="edge17" class="edge">
<title>n9&#45;&gt;n8</title>
<path fill="none" stroke="#64748b" d="M437.05,-303.57C430.3,-273.99 416.03,-212.1 403,-160 400.73,-150.9 398.13,-140.96 395.79,-132.17"/>
<polygon fill="#64748b" stroke="#64748b" points="398.22,-131.75 394.05,-125.62 393.48,-133.01 398.22,-131.75"/>
</g>
<!-- n10 -->
<g id="node11" class="node">
<title>n10</title>
<g id="a_node11"><a xlink:href="vscode://vscode-remote/wsl+Ubuntu/home/gavin/statlib/Statlib/Mathlib/Analysis/Parseval.lean:80" xlink:title="theorem · Statlib/Mathlib/Analysis/Parseval.lean:80" target="_blank">
<path fill="#ffe6a3" stroke="#d4a017" d="M665.64,-340C665.64,-340 576.36,-340 576.36,-340 570.36,-340 564.36,-334 564.36,-328 564.36,-328 564.36,-316 564.36,-316 564.36,-310 570.36,-304 576.36,-304 576.36,-304 665.64,-304 665.64,-304 671.64,-304 677.64,-310 677.64,-316 677.64,-316 677.64,-328 677.64,-328 677.64,-334 671.64,-340 665.64,-340"/>
<text xml:space="preserve" text-anchor="middle" x="621" y="-319" font-family="Helvetica,sans-Serif" font-size="10.00">parseval_identity_real</text>
</a>
</g>
</g>
<!-- n11 -->
<g id="node12" class="node">
<title>n11</title>
<g id="a_node12"><a xlink:href="vscode://vscode-remote/wsl+Ubuntu/home/gavin/statlib/Statlib/Mathlib/Analysis/SpectralTruncation.lean:107" xlink:title="lemma · Statlib/Mathlib/Analysis/SpectralTruncation.lean:107" target="_blank">
<path fill="#eef2f6" stroke="#94a3b8" d="M760,-196C760,-196 730,-196 730,-196 724,-196 718,-190 718,-184 718,-184 718,-172 718,-172 718,-166 724,-160 730,-160 730,-160 760,-160 760,-160 766,-160 772,-166 772,-172 772,-172 772,-184 772,-184 772,-190 766,-196 760,-196"/>
<text xml:space="preserve" text-anchor="middle" x="745" y="-175" font-family="Helvetica,sans-Serif" font-size="10.00">apply</text>
</a>
</g>
</g>
<!-- n11&#45;&gt;n0 -->
<g id="edge18" class="edge">
<title>n11&#45;&gt;n0</title>
<path fill="none" stroke="#64748b" d="M741.86,-159.75C737.22,-139.43 726.54,-106.13 704,-88 679.47,-68.27 603.89,-53.78 543.64,-44.98"/>
<polygon fill="#64748b" stroke="#64748b" points="544.02,-42.56 536.75,-43.99 543.33,-47.41 544.02,-42.56"/>
</g>
<!-- n11&#45;&gt;n2 -->
<g id="edge19" class="edge">
<title>n11&#45;&gt;n2</title>
<path fill="none" stroke="#64748b" d="M717.81,-163C698.53,-153.08 672.31,-139.59 650.44,-128.33"/>
<polygon fill="#64748b" stroke="#64748b" points="651.59,-126.17 644.25,-125.14 649.35,-130.52 651.59,-126.17"/>
</g>
<!-- n12 -->
<g id="node13" class="node">
<title>n12</title>
<g id="a_node13"><a xlink:href="vscode://vscode-remote/wsl+Ubuntu/home/gavin/statlib/Statlib/Mathlib/Analysis/BesselCompactSA.lean:93" xlink:title="private lemma · Statlib/Mathlib/Analysis/BesselCompactSA.lean:93" target="_blank">
<path fill="#eef2f6" stroke="#94a3b8" d="M783.6,-268C783.6,-268 640.4,-268 640.4,-268 634.4,-268 628.4,-262 628.4,-256 628.4,-256 628.4,-244 628.4,-244 628.4,-238 634.4,-232 640.4,-232 640.4,-232 783.6,-232 783.6,-232 789.6,-232 795.6,-238 795.6,-244 795.6,-244 795.6,-256 795.6,-256 795.6,-262 789.6,-268 783.6,-268"/>
<text xml:space="preserve" text-anchor="middle" x="712" y="-247" font-family="Helvetica,sans-Serif" font-size="10.00">inner_eigenfn_spectralTruncate_lt</text>
</a>
</g>
</g>
<!-- n12&#45;&gt;n0 -->
<g id="edge20" class="edge">
<title>n12&#45;&gt;n0</title>
<path fill="none" stroke="#64748b" d="M711.94,-231.65C710.84,-198.76 703.62,-127.12 663,-88 631.26,-57.44 584.08,-43.97 543.41,-38.25"/>
<polygon fill="#64748b" stroke="#64748b" points="543.86,-35.83 536.6,-37.36 543.23,-40.69 543.86,-35.83"/>
</g>
<!-- n12&#45;&gt;n2 -->
<g id="edge21" class="edge">
<title>n12&#45;&gt;n2</title>
<path fill="none" stroke="#64748b" d="M699.37,-231.59C681.05,-206.33 647.03,-159.43 626.36,-130.93"/>
<polygon fill="#64748b" stroke="#64748b" points="628.39,-129.56 622.3,-125.34 624.43,-132.44 628.39,-129.56"/>
</g>
<!-- n12&#45;&gt;n11 -->
<g id="edge22" class="edge">
<title>n12&#45;&gt;n11</title>
<path fill="none" stroke="#64748b" d="M720.16,-231.7C724.15,-223.22 729.04,-212.86 733.41,-203.58"/>
<polygon fill="#64748b" stroke="#64748b" points="735.52,-204.85 736.29,-197.47 731.09,-202.76 735.52,-204.85"/>
</g>
<!-- n13 -->
<g id="node14" class="node">
<title>n13</title>
<g id="a_node14"><a xlink:href="vscode://vscode-remote/wsl+Ubuntu/home/gavin/statlib/Statlib/Mathlib/Analysis/BesselCompactSA.lean:123" xlink:title="private lemma · Statlib/Mathlib/Analysis/BesselCompactSA.lean:123" target="_blank">
<path fill="#eef2f6" stroke="#94a3b8" d="M974.66,-268C974.66,-268 825.34,-268 825.34,-268 819.34,-268 813.34,-262 813.34,-256 813.34,-256 813.34,-244 813.34,-244 813.34,-238 819.34,-232 825.34,-232 825.34,-232 974.66,-232 974.66,-232 980.66,-232 986.66,-238 986.66,-244 986.66,-244 986.66,-256 986.66,-256 986.66,-262 980.66,-268 974.66,-268"/>
<text xml:space="preserve" text-anchor="middle" x="900" y="-247" font-family="Helvetica,sans-Serif" font-size="10.00">inner_eigenfn_spectralTruncate_ge</text>
</a>
</g>
</g>
<!-- n13&#45;&gt;n0 -->
<g id="edge23" class="edge">
<title>n13&#45;&gt;n0</title>
<path fill="none" stroke="#64748b" d="M886.43,-231.66C859.16,-198.13 794.14,-124.48 722,-88 666.39,-59.88 596.96,-46.68 543.84,-40.48"/>
<polygon fill="#64748b" stroke="#64748b" points="544.19,-38.06 536.96,-39.71 543.65,-42.93 544.19,-38.06"/>
</g>
<!-- n13&#45;&gt;n2 -->
<g id="edge24" class="edge">
<title>n13&#45;&gt;n2</title>
<path fill="none" stroke="#64748b" d="M813.11,-233.71C779.28,-225.54 741.03,-213.46 709,-196 700.45,-191.34 660.25,-154.65 633.49,-129.86"/>
<polygon fill="#64748b" stroke="#64748b" points="635.25,-128.14 628.45,-125.17 631.92,-131.73 635.25,-128.14"/>
</g>
<!-- n13&#45;&gt;n11 -->
<g id="edge25" class="edge">
<title>n13&#45;&gt;n11</title>
<path fill="none" stroke="#64748b" d="M861.29,-231.52C836.2,-220.19 803.82,-205.56 779.6,-194.62"/>
<polygon fill="#64748b" stroke="#64748b" points="780.81,-192.48 773.42,-191.83 778.79,-196.95 780.81,-192.48"/>
</g>
<!-- n14 -->
<g id="node15" class="node">
<title>n14</title>
<g id="a_node15"><a xlink:href="vscode://vscode-remote/wsl+Ubuntu/home/gavin/statlib/Statlib/Mathlib/Analysis/BesselCompactSA.lean:142" xlink:title="private lemma · Statlib/Mathlib/Analysis/BesselCompactSA.lean:142" target="_blank">
<path fill="#eef2f6" stroke="#94a3b8" d="M975.59,-340C975.59,-340 882.41,-340 882.41,-340 876.41,-340 870.41,-334 870.41,-328 870.41,-328 870.41,-316 870.41,-316 870.41,-310 876.41,-304 882.41,-304 882.41,-304 975.59,-304 975.59,-304 981.59,-304 987.59,-310 987.59,-316 987.59,-316 987.59,-328 987.59,-328 987.59,-334 981.59,-340 975.59,-340"/>
<text xml:space="preserve" text-anchor="middle" x="929" y="-319" font-family="Helvetica,sans-Serif" font-size="10.00">inner_eigenfn_residual</text>
</a>
</g>
</g>
<!-- n14&#45;&gt;n0 -->
<g id="edge26" class="edge">
<title>n14&#45;&gt;n0</title>
<path fill="none" stroke="#64748b" d="M962.23,-303.51C975.28,-294.75 988.83,-282.82 996,-268 1002.97,-253.6 1003.9,-245.92 996,-232 934.42,-123.48 871.83,-131.81 755,-88 686.24,-62.21 603.56,-48.73 543.59,-41.83"/>
<polygon fill="#64748b" stroke="#64748b" points="544.01,-39.41 536.78,-41.06 543.47,-44.28 544.01,-39.41"/>
</g>
<!-- n14&#45;&gt;n2 -->
<g id="edge27" class="edge">
<title>n14&#45;&gt;n2</title>
<path fill="none" stroke="#64748b" d="M870.12,-306.87C865.35,-305.86 860.6,-304.88 856,-304 803.69,-293.95 653.72,-308.4 619,-268 608.57,-255.87 617.9,-247.96 619,-232 620.11,-215.88 622.89,-212.12 624,-196 625.1,-180.04 626.2,-175.85 624,-160 622.72,-150.81 620.26,-140.98 617.7,-132.31"/>
<polygon fill="#64748b" stroke="#64748b" points="620.11,-131.81 615.69,-125.85 615.43,-133.26 620.11,-131.81"/>
</g>
<!-- n14&#45;&gt;n12 -->
<g id="edge28" class="edge">
<title>n14&#45;&gt;n12</title>
<path fill="none" stroke="#64748b" d="M874.8,-303.52C844.13,-293.62 805.67,-281.22 773.83,-270.94"/>
<polygon fill="#64748b" stroke="#64748b" points="774.74,-268.66 767.32,-268.85 773.23,-273.33 774.74,-268.66"/>
</g>
<!-- n14&#45;&gt;n13 -->
<g id="edge29" class="edge">
<title>n14&#45;&gt;n13</title>
<path fill="none" stroke="#64748b" d="M921.83,-303.7C918.35,-295.3 914.11,-285.07 910.3,-275.86"/>
<polygon fill="#64748b" stroke="#64748b" points="912.61,-275.03 907.67,-269.5 908.08,-276.91 912.61,-275.03"/>
</g>
<!-- n15 -->
<g id="node16" class="node">
<title>n15</title>
<g id="a_node16"><a xlink:href="vscode://vscode-remote/wsl+Ubuntu/home/gavin/statlib/Statlib/Mathlib/Analysis/Parseval.lean:94" xlink:title="theorem · Statlib/Mathlib/Analysis/Parseval.lean:94" target="_blank">
<path fill="#ffe6a3" stroke="#d4a017" d="M800.3,-340C800.3,-340 727.7,-340 727.7,-340 721.7,-340 715.7,-334 715.7,-328 715.7,-328 715.7,-316 715.7,-316 715.7,-310 721.7,-304 727.7,-304 727.7,-304 800.3,-304 800.3,-304 806.3,-304 812.3,-310 812.3,-316 812.3,-316 812.3,-328 812.3,-328 812.3,-334 806.3,-340 800.3,-340"/>
<text xml:space="preserve" text-anchor="middle" x="764" y="-319" font-family="Helvetica,sans-Serif" font-size="10.00">bessel_summable</text>
</a>
</g>
</g>
<!-- n16 -->
<g id="node17" class="node">
<title>n16</title>
<g id="a_node17"><a xlink:href="vscode://vscode-remote/wsl+Ubuntu/home/gavin/statlib/Statlib/Mathlib/Analysis/BesselCompactSA.lean:177" xlink:title="theorem · Statlib/Mathlib/Analysis/BesselCompactSA.lean:177" target="_blank">
<path fill="#ffe6a3" stroke="#d4a017" d="M734.22,-412C734.22,-412 583.78,-412 583.78,-412 577.78,-412 571.78,-406 571.78,-400 571.78,-400 571.78,-388 571.78,-388 571.78,-382 577.78,-376 583.78,-376 583.78,-376 734.22,-376 734.22,-376 740.22,-376 746.22,-382 746.22,-388 746.22,-388 746.22,-400 746.22,-400 746.22,-406 740.22,-412 734.22,-412"/>
<text xml:space="preserve" text-anchor="middle" x="659" y="-391" font-family="Helvetica,sans-Serif" font-size="10.00">besselSquaredNormBound_of_total</text>
</a>
</g>
</g>
<!-- n16&#45;&gt;n0 -->
<g id="edge30" class="edge">
<title>n16&#45;&gt;n0</title>
<path fill="none" stroke="#64748b" d="M746.63,-389.48C833.98,-384.22 960.27,-371.3 997,-340 1028.67,-313.02 1026,-292.6 1026,-251 1026,-251 1026,-251 1026,-177 1026,-78.73 699.96,-47.81 543.67,-38.63"/>
<polygon fill="#64748b" stroke="#64748b" points="544.08,-36.2 536.95,-38.24 543.8,-41.09 544.08,-36.2"/>
</g>
<!-- n16&#45;&gt;n1 -->
<g id="edge31" class="edge">
<title>n16&#45;&gt;n1</title>
<path fill="none" stroke="#64748b" d="M571.54,-391.54C415.07,-388.03 100.34,-376.46 67,-340 50.26,-321.7 64.98,-294.45 80.14,-274.93"/>
<polygon fill="#64748b" stroke="#64748b" points="82,-276.52 84.51,-269.55 78.19,-273.43 82,-276.52"/>
</g>
<!-- n16&#45;&gt;n2 -->
<g id="edge35" class="edge">
<title>n16&#45;&gt;n2</title>
<path fill="none" stroke="#64748b" d="M746.68,-375.73C799.09,-361.49 850.29,-338.07 821,-304 751.55,-223.2 653.45,-348.8 584,-268 575.31,-257.89 592.97,-175.37 602.89,-132.56"/>
<polygon fill="#64748b" stroke="#64748b" points="605.27,-133.16 604.48,-125.79 600.5,-132.05 605.27,-133.16"/>
</g>
<!-- n16&#45;&gt;n3 -->
<g id="edge32" class="edge">
<title>n16&#45;&gt;n3</title>
<path fill="none" stroke="#64748b" d="M571.61,-391.43C484.03,-387.78 357.87,-376.19 327,-340 316.62,-327.83 320.15,-318.46 327,-304 337.82,-281.17 360.18,-290.83 371,-268 377.85,-253.54 376.6,-246.99 371,-232 366.92,-221.09 359.47,-210.93 351.74,-202.49"/>
<polygon fill="#64748b" stroke="#64748b" points="353.51,-200.79 346.88,-197.47 349.99,-204.2 353.51,-200.79"/>
</g>
<!-- n16&#45;&gt;n7 -->
<g id="edge34" class="edge">
<title>n16&#45;&gt;n7</title>
<path fill="none" stroke="#64748b" d="M672.93,-375.71C686.56,-356.55 703.12,-325.52 687,-304 652.85,-258.42 618.46,-284.7 564,-268 562.06,-267.41 560.08,-266.79 558.08,-266.17"/>
<polygon fill="#64748b" stroke="#64748b" points="559.18,-263.95 551.77,-264.19 557.72,-268.62 559.18,-263.95"/>
</g>
<!-- n16&#45;&gt;n9 -->
<g id="edge33" class="edge">
<title>n16&#45;&gt;n9</title>
<path fill="none" stroke="#64748b" d="M604.55,-375.52C573.74,-365.62 535.1,-353.22 503.11,-342.94"/>
<polygon fill="#64748b" stroke="#64748b" points="503.99,-340.65 496.57,-340.84 502.49,-345.32 503.99,-340.65"/>
</g>
<!-- n16&#45;&gt;n10 -->
<g id="edge36" class="edge">
<title>n16&#45;&gt;n10</title>
<path fill="none" stroke="#64748b" d="M649.61,-375.7C645.01,-367.22 639.38,-356.86 634.34,-347.58"/>
<polygon fill="#64748b" stroke="#64748b" points="636.5,-346.42 631.01,-341.43 632.19,-348.76 636.5,-346.42"/>
</g>
<!-- n16&#45;&gt;n14 -->
<g id="edge37" class="edge">
<title>n16&#45;&gt;n14</title>
<path fill="none" stroke="#64748b" d="M726.44,-375.52C767.88,-364.77 820.76,-351.06 862.1,-340.34"/>
<polygon fill="#64748b" stroke="#64748b" points="862.58,-342.75 868.74,-338.62 861.35,-338.01 862.58,-342.75"/>
</g>
<!-- n16&#45;&gt;n15 -->
<g id="edge38" class="edge">
<title>n16&#45;&gt;n15</title>
<path fill="none" stroke="#64748b" d="M685.23,-375.52C699.11,-366.26 716.3,-354.8 731.07,-344.95"/>
<polygon fill="#64748b" stroke="#64748b" points="732.38,-347.02 736.85,-341.1 729.67,-342.94 732.38,-347.02"/>
</g>
<!-- n17 -->
<g id="node18" class="node">
<title>n17</title>
<g id="a_node18"><a xlink:href="vscode://vscode-remote/wsl+Ubuntu/home/gavin/statlib/Statlib/Mathlib/Analysis/BesselCompactSA.lean:268" xlink:title="theorem · Statlib/Mathlib/Analysis/BesselCompactSA.lean:268" target="_blank">
<path fill="#ffe6a3" stroke="#d4a017" stroke-width="3" d="M285,-484C285,-484 89,-484 89,-484 83,-484 77,-478 77,-472 77,-472 77,-460 77,-460 77,-454 83,-448 89,-448 89,-448 285,-448 285,-448 291,-448 297,-454 297,-460 297,-460 297,-472 297,-472 297,-478 291,-484 285,-484"/>
<text xml:space="preserve" text-anchor="middle" x="187" y="-463" font-family="Helvetica,sans-Serif" font-size="10.00">spectralTruncate_tendsto_op_norm_complete</text>
</a>
</g>
</g>
<!-- n17&#45;&gt;n0 -->
<g id="edge39" class="edge">
<title>n17&#45;&gt;n0</title>
<path fill="none" stroke="#64748b" d="M134.61,-446.63C84.66,-425.37 17,-385.11 17,-323 17,-323 17,-323 17,-177 17,-107.71 80.83,-114.13 145,-88 221.2,-56.98 314.78,-44.11 380.44,-38.77"/>
<polygon fill="#64748b" stroke="#64748b" points="380.41,-41.23 387.2,-38.25 380.03,-36.35 380.41,-41.23"/>
</g>
<!-- n17&#45;&gt;n1 -->
<g id="edge40" class="edge">
<title>n17&#45;&gt;n1</title>
<path fill="none" stroke="#64748b" d="M156.26,-446.54C124.34,-425.37 76.29,-387.4 56,-340 49.7,-325.29 50.4,-318.99 56,-304 60.08,-293.09 67.53,-282.93 75.26,-274.49"/>
<polygon fill="#64748b" stroke="#64748b" points="77.01,-276.2 80.12,-269.47 73.49,-272.79 77.01,-276.2"/>
</g>
<!-- n17&#45;&gt;n2 -->
<g id="edge41" class="edge">
<title>n17&#45;&gt;n2</title>
<path fill="none" stroke="#64748b" d="M298.24,-463.26C440.04,-459.56 676.25,-448.02 755,-412 797.02,-392.78 811.88,-382.51 830,-340 886.12,-208.34 648.37,-312.88 610,-268 593.16,-248.31 600.19,-172.7 605.34,-132.49"/>
<polygon fill="#64748b" stroke="#64748b" points="607.75,-133.01 606.24,-125.75 602.89,-132.36 607.75,-133.01"/>
</g>
<!-- n17&#45;&gt;n5 -->
<g id="edge42" class="edge">
<title>n17&#45;&gt;n5</title>
<path fill="none" stroke="#64748b" d="M187,-446.73C187,-421.75 187,-376.81 187,-348.52"/>
<polygon fill="#64748b" stroke="#64748b" points="189.45,-348.83 187,-341.83 184.55,-348.83 189.45,-348.83"/>
</g>
<!-- n17&#45;&gt;n16 -->
<g id="edge43" class="edge">
<title>n17&#45;&gt;n16</title>
<path fill="none" stroke="#64748b" d="M298.26,-448.5C378.73,-436.57 486.35,-420.61 563.04,-409.23"/>
<polygon fill="#64748b" stroke="#64748b" points="563.24,-411.68 569.81,-408.23 562.52,-406.83 563.24,-411.68"/>
</g>
</g>
</svg>
