<?xml version="1.0" encoding="UTF-8" standalone="no"?>
<!DOCTYPE svg PUBLIC "-//W3C//DTD SVG 1.1//EN"
 "http://www.w3.org/Graphics/SVG/1.1/DTD/svg11.dtd">
<!-- Generated by graphviz version 15.0.0 (20260523.1842)
 -->
<!-- Title: SpectralTheoremCompactSA.toFPCEigensystem Pages: 1 -->
<svg width="822pt" height="771pt"
 viewBox="0.00 0.00 822.00 771.00" xmlns="http://www.w3.org/2000/svg" xmlns:xlink="http://www.w3.org/1999/xlink">
<g id="graph0" class="graph" transform="scale(1 1) rotate(0) translate(4 767.2)">
<title>SpectralTheoremCompactSA.toFPCEigensystem</title>
<polygon fill="white" stroke="none" points="-4,4 -4,-767.2 818,-767.2 818,4 -4,4"/>
<text xml:space="preserve" text-anchor="middle" x="407" y="-746.6" font-family="Helvetica,sans-Serif" font-size="14.00">Proof narrative — SpectralTheoremCompactSA.toFPCEigensystem &#160;(21 decls)</text>
<g id="clust1" class="cluster">
<title>cluster_0</title>
<path fill="none" stroke="#cbd5e1" stroke-dasharray="5,2" d="M380,-8C380,-8 794,-8 794,-8 800,-8 806,-14 806,-20 806,-20 806,-213.2 806,-213.2 806,-219.2 800,-225.2 794,-225.2 794,-225.2 380,-225.2 380,-225.2 374,-225.2 368,-219.2 368,-213.2 368,-213.2 368,-20 368,-20 368,-14 374,-8 380,-8"/>
<text xml:space="preserve" text-anchor="middle" x="587" y="-211.3" font-family="Helvetica,sans-Serif" font-size="11.00">CoxChangePoint</text>
</g>
<g id="clust2" class="cluster">
<title>cluster_1</title>
<path fill="none" stroke="#cbd5e1" stroke-dasharray="5,2" d="M20,-80C20,-80 348,-80 348,-80 354,-80 360,-86 360,-92 360,-92 360,-718.4 360,-718.4 360,-724.4 354,-730.4 348,-730.4 348,-730.4 20,-730.4 20,-730.4 14,-730.4 8,-724.4 8,-718.4 8,-718.4 8,-92 8,-92 8,-86 14,-80 20,-80"/>
<text xml:space="preserve" text-anchor="middle" x="184" y="-716.5" font-family="Helvetica,sans-Serif" font-size="11.00">Mathlib</text>
</g>
<!-- n0 -->
<g id="node1" class="node">
<title>n0</title>
<g id="a_node1"><a xlink:href="vscode://vscode-remote/wsl+Ubuntu/home/gavin/statlib/Statlib/CoxChangePoint/SpectralOperator.lean:103" xlink:title="structure · Statlib/CoxChangePoint/SpectralOperator.lean:103" target="_blank">
<path fill="#e8dcff" stroke="#8b5cf6" d="M496.8,-52C496.8,-52 389.2,-52 389.2,-52 383.2,-52 377.2,-46 377.2,-40 377.2,-40 377.2,-28 377.2,-28 377.2,-22 383.2,-16 389.2,-16 389.2,-16 496.8,-16 496.8,-16 502.8,-16 508.8,-22 508.8,-28 508.8,-28 508.8,-40 508.8,-40 508.8,-46 502.8,-52 496.8,-52"/>
<text xml:space="preserve" text-anchor="middle" x="443" y="-31" font-family="Helvetica,sans-Serif" font-size="10.00">SymmetricKernelOperator</text>
</a>
</g>
</g>
<!-- n1 -->
<g id="node2" class="node">
<title>n1</title>
<g id="a_node2"><a xlink:href="vscode://vscode-remote/wsl+Ubuntu/home/gavin/statlib/Statlib/CoxChangePoint/L2Operator.lean:212" xlink:title="structure · Statlib/CoxChangePoint/L2Operator.lean:212" target="_blank">
<path fill="#e8dcff" stroke="#8b5cf6" d="M499.77,-124C499.77,-124 388.23,-124 388.23,-124 382.23,-124 376.23,-118 376.23,-112 376.23,-112 376.23,-100 376.23,-100 376.23,-94 382.23,-88 388.23,-88 388.23,-88 499.77,-88 499.77,-88 505.77,-88 511.77,-94 511.77,-100 511.77,-100 511.77,-112 511.77,-112 511.77,-118 505.77,-124 499.77,-124"/>
<text xml:space="preserve" text-anchor="middle" x="444" y="-103" font-family="Helvetica,sans-Serif" font-size="10.00">L2BoundedKernelOperator</text>
</a>
</g>
</g>
<!-- n1&#45;&gt;n0 -->
<g id="edge1" class="edge">
<title>n1&#45;&gt;n0</title>
<path fill="none" stroke="#64748b" d="M443.75,-87.7C443.64,-79.47 443.49,-69.48 443.36,-60.42"/>
<polygon fill="#64748b" stroke="#64748b" points="445.82,-60.58 443.27,-53.62 440.92,-60.65 445.82,-60.58"/>
</g>
<!-- n2 -->
<g id="node3" class="node">
<title>n2</title>
<g id="a_node3"><a xlink:href="vscode://vscode-remote/wsl+Ubuntu/home/gavin/statlib/Statlib/CoxChangePoint/Foundation.lean:57" xlink:title="structure · Statlib/CoxChangePoint/Foundation.lean:57" target="_blank">
<path fill="#e8dcff" stroke="#8b5cf6" d="M577.62,-52C577.62,-52 538.38,-52 538.38,-52 532.38,-52 526.38,-46 526.38,-40 526.38,-40 526.38,-28 526.38,-28 526.38,-22 532.38,-16 538.38,-16 538.38,-16 577.62,-16 577.62,-16 583.62,-16 589.62,-22 589.62,-28 589.62,-28 589.62,-40 589.62,-40 589.62,-46 583.62,-52 577.62,-52"/>
<text xml:space="preserve" text-anchor="middle" x="558" y="-31" font-family="Helvetica,sans-Serif" font-size="10.00">CoxParam</text>
</a>
</g>
</g>
<!-- n3 -->
<g id="node4" class="node">
<title>n3</title>
<g id="a_node4"><a xlink:href="vscode://vscode-remote/wsl+Ubuntu/home/gavin/statlib/Statlib/CoxChangePoint/Foundation.lean:38" xlink:title="structure · Statlib/CoxChangePoint/Foundation.lean:38" target="_blank">
<path fill="#e8dcff" stroke="#8b5cf6" d="M650,-52C650,-52 620,-52 620,-52 614,-52 608,-46 608,-40 608,-40 608,-28 608,-28 608,-22 614,-16 620,-16 620,-16 650,-16 650,-16 656,-16 662,-22 662,-28 662,-28 662,-40 662,-40 662,-46 656,-52 650,-52"/>
<text xml:space="preserve" text-anchor="middle" x="635" y="-31" font-family="Helvetica,sans-Serif" font-size="10.00">CoxObs</text>
</a>
</g>
</g>
<!-- n4 -->
<g id="node5" class="node">
<title>n4</title>
<g id="a_node5"><a xlink:href="vscode://vscode-remote/wsl+Ubuntu/home/gavin/statlib/Statlib/CoxChangePoint/Foundation.lean:68" xlink:title="noncomputable def · Statlib/CoxChangePoint/Foundation.lean:68" target="_blank">
<path fill="#d6e9ff" stroke="#3b82f6" d="M573,-124C573,-124 543,-124 543,-124 537,-124 531,-118 531,-112 531,-112 531,-100 531,-100 531,-94 537,-88 543,-88 543,-88 573,-88 573,-88 579,-88 585,-94 585,-100 585,-100 585,-112 585,-112 585,-118 579,-124 573,-124"/>
<text xml:space="preserve" text-anchor="middle" x="558" y="-103" font-family="Helvetica,sans-Serif" font-size="10.00">g</text>
</a>
</g>
</g>
<!-- n4&#45;&gt;n2 -->
<g id="edge2" class="edge">
<title>n4&#45;&gt;n2</title>
<path fill="none" stroke="#64748b" d="M558,-87.7C558,-79.47 558,-69.48 558,-60.42"/>
<polygon fill="#64748b" stroke="#64748b" points="560.45,-60.62 558,-53.62 555.55,-60.62 560.45,-60.62"/>
</g>
<!-- n4&#45;&gt;n3 -->
<g id="edge3" class="edge">
<title>n4&#45;&gt;n3</title>
<path fill="none" stroke="#64748b" d="M577.03,-87.7C586.94,-78.69 599.17,-67.57 609.84,-57.87"/>
<polygon fill="#64748b" stroke="#64748b" points="611.27,-59.89 614.8,-53.37 607.97,-56.26 611.27,-59.89"/>
</g>
<!-- n5 -->
<g id="node6" class="node">
<title>n5</title>
<g id="a_node6"><a xlink:href="vscode://vscode-remote/wsl+Ubuntu/home/gavin/statlib/Statlib/CoxChangePoint/L2OperatorMap.lean:204" xlink:title="structure · Statlib/CoxChangePoint/L2OperatorMap.lean:204" target="_blank">
<path fill="#e8dcff" stroke="#8b5cf6" d="M554.3,-196C554.3,-196 481.7,-196 481.7,-196 475.7,-196 469.7,-190 469.7,-184 469.7,-184 469.7,-172 469.7,-172 469.7,-166 475.7,-160 481.7,-160 481.7,-160 554.3,-160 554.3,-160 560.3,-160 566.3,-166 566.3,-172 566.3,-172 566.3,-184 566.3,-184 566.3,-190 560.3,-196 554.3,-196"/>
<text xml:space="preserve" text-anchor="middle" x="518" y="-175" font-family="Helvetica,sans-Serif" font-size="10.00">L2KernelMapData</text>
</a>
</g>
</g>
<!-- n5&#45;&gt;n1 -->
<g id="edge4" class="edge">
<title>n5&#45;&gt;n1</title>
<path fill="none" stroke="#64748b" d="M499.71,-159.7C490.28,-150.78 478.65,-139.78 468.46,-130.14"/>
<polygon fill="#64748b" stroke="#64748b" points="470.21,-128.42 463.44,-125.39 466.84,-131.98 470.21,-128.42"/>
</g>
<!-- n5&#45;&gt;n4 -->
<g id="edge5" class="edge">
<title>n5&#45;&gt;n4</title>
<path fill="none" stroke="#64748b" d="M527.89,-159.7C532.78,-151.14 538.77,-140.66 544.11,-131.3"/>
<polygon fill="#64748b" stroke="#64748b" points="546.13,-132.71 547.48,-125.42 541.87,-130.28 546.13,-132.71"/>
</g>
<!-- n8 -->
<g id="node7" class="node">
<title>n8</title>
<g id="a_node7"><a xlink:href="vscode://vscode-remote/wsl+Ubuntu/home/gavin/statlib/Statlib/CoxChangePoint/L2OperatorMap.lean:239" xlink:title="def · Statlib/CoxChangePoint/L2OperatorMap.lean:239" target="_blank">
<path fill="#d6e9ff" stroke="#3b82f6" d="M694.09,-196C694.09,-196 595.91,-196 595.91,-196 589.91,-196 583.91,-190 583.91,-184 583.91,-184 583.91,-172 583.91,-172 583.91,-166 589.91,-160 595.91,-160 595.91,-160 694.09,-160 694.09,-160 700.09,-160 706.09,-166 706.09,-172 706.09,-172 706.09,-184 706.09,-184 706.09,-190 700.09,-196 694.09,-196"/>
<text xml:space="preserve" text-anchor="middle" x="645" y="-175" font-family="Helvetica,sans-Serif" font-size="10.00">toContinuousLinearMap</text>
</a>
</g>
</g>
<!-- n9 -->
<g id="node8" class="node">
<title>n9</title>
<g id="a_node8"><a xlink:href="vscode://vscode-remote/wsl+Ubuntu/home/gavin/statlib/Statlib/CoxChangePoint/L2Operator.lean:233" xlink:title="lemma · Statlib/CoxChangePoint/L2Operator.lean:233" target="_blank">
<path fill="#eef2f6" stroke="#94a3b8" d="M439.73,-196C439.73,-196 388.27,-196 388.27,-196 382.27,-196 376.27,-190 376.27,-184 376.27,-184 376.27,-172 376.27,-172 376.27,-166 382.27,-160 388.27,-160 388.27,-160 439.73,-160 439.73,-160 445.73,-160 451.73,-166 451.73,-172 451.73,-172 451.73,-184 451.73,-184 451.73,-190 445.73,-196 439.73,-196"/>
<text xml:space="preserve" text-anchor="middle" x="414" y="-175" font-family="Helvetica,sans-Serif" font-size="10.00">kernel_symm</text>
</a>
</g>
</g>
<!-- n12 -->
<g id="node9" class="node">
<title>n12</title>
<g id="a_node9"><a xlink:href="vscode://vscode-remote/wsl+Ubuntu/home/gavin/statlib/Statlib/CoxChangePoint/FPC.lean:42" xlink:title="structure · Statlib/CoxChangePoint/FPC.lean:42" target="_blank">
<path fill="#e8dcff" stroke="#8b5cf6" d="M785.62,-196C785.62,-196 736.38,-196 736.38,-196 730.38,-196 724.38,-190 724.38,-184 724.38,-184 724.38,-172 724.38,-172 724.38,-166 730.38,-160 736.38,-160 736.38,-160 785.62,-160 785.62,-160 791.62,-160 797.62,-166 797.62,-172 797.62,-172 797.62,-184 797.62,-184 797.62,-190 791.62,-196 785.62,-196"/>
<text xml:space="preserve" text-anchor="middle" x="761" y="-175" font-family="Helvetica,sans-Serif" font-size="10.00">Eigensystem</text>
</a>
</g>
</g>
<!-- n6 -->
<g id="node10" class="node">
<title>n6</title>
<g id="a_node10"><a xlink:href="vscode://vscode-remote/wsl+Ubuntu/home/gavin/statlib/Statlib/Mathlib/Analysis/HilbertSchmidt.lean:74" xlink:title="structure · Statlib/Mathlib/Analysis/HilbertSchmidt.lean:74" target="_blank">
<path fill="#e8dcff" stroke="#8b5cf6" d="M322.29,-124C322.29,-124 229.71,-124 229.71,-124 223.71,-124 217.71,-118 217.71,-112 217.71,-112 217.71,-100 217.71,-100 217.71,-94 223.71,-88 229.71,-88 229.71,-88 322.29,-88 322.29,-88 328.29,-88 334.29,-94 334.29,-100 334.29,-100 334.29,-112 334.29,-112 334.29,-118 328.29,-124 322.29,-124"/>
<text xml:space="preserve" text-anchor="middle" x="276" y="-103" font-family="Helvetica,sans-Serif" font-size="10.00">HilbertSchmidtWitness</text>
</a>
</g>
</g>
<!-- n7 -->
<g id="node11" class="node">
<title>n7</title>
<g id="a_node11"><a xlink:href="vscode://vscode-remote/wsl+Ubuntu/home/gavin/statlib/Statlib/Mathlib/Analysis/HilbertSchmidt.lean:88" xlink:title="def · Statlib/Mathlib/Analysis/HilbertSchmidt.lean:88" target="_blank">
<path fill="#d6e9ff" stroke="#3b82f6" d="M308.4,-196C308.4,-196 243.6,-196 243.6,-196 237.6,-196 231.6,-190 231.6,-184 231.6,-184 231.6,-172 231.6,-172 231.6,-166 237.6,-160 243.6,-160 243.6,-160 308.4,-160 308.4,-160 314.4,-160 320.4,-166 320.4,-172 320.4,-172 320.4,-184 320.4,-184 320.4,-190 314.4,-196 308.4,-196"/>
<text xml:space="preserve" text-anchor="middle" x="276" y="-175" font-family="Helvetica,sans-Serif" font-size="10.00">IsHilbertSchmidt</text>
</a>
</g>
</g>
<!-- n7&#45;&gt;n6 -->
<g id="edge6" class="edge">
<title>n7&#45;&gt;n6</title>
<path fill="none" stroke="#64748b" d="M276,-159.7C276,-151.47 276,-141.48 276,-132.42"/>
<polygon fill="#64748b" stroke="#64748b" points="278.45,-132.62 276,-125.62 273.55,-132.62 278.45,-132.62"/>
</g>
<!-- n10 -->
<g id="node12" class="node">
<title>n10</title>
<g id="a_node12"><a xlink:href="vscode://vscode-remote/wsl+Ubuntu/home/gavin/statlib/Statlib/Mathlib/Analysis/L2CompactSAInstance.lean:92" xlink:title="structure · Statlib/Mathlib/Analysis/L2CompactSAInstance.lean:92" target="_blank">
<path fill="#e8dcff" stroke="#8b5cf6" d="M325.75,-269.2C325.75,-269.2 254.25,-269.2 254.25,-269.2 248.25,-269.2 242.25,-263.2 242.25,-257.2 242.25,-257.2 242.25,-245.2 242.25,-245.2 242.25,-239.2 248.25,-233.2 254.25,-233.2 254.25,-233.2 325.75,-233.2 325.75,-233.2 331.75,-233.2 337.75,-239.2 337.75,-245.2 337.75,-245.2 337.75,-257.2 337.75,-257.2 337.75,-263.2 331.75,-269.2 325.75,-269.2"/>
<text xml:space="preserve" text-anchor="middle" x="290" y="-248.2" font-family="Helvetica,sans-Serif" font-size="10.00">L2KernelOperator</text>
</a>
</g>
</g>
<!-- n10&#45;&gt;n1 -->
<g id="edge11" class="edge">
<title>n10&#45;&gt;n1</title>
<path fill="none" stroke="#64748b" d="M320.51,-232.72C323.54,-230.39 326.44,-227.87 329,-225.2 352.21,-200.99 344.19,-184.59 367,-160 377.99,-148.15 392.08,-137.51 405.19,-128.91"/>
<polygon fill="#64748b" stroke="#64748b" points="406.48,-131 411.07,-125.17 403.85,-126.86 406.48,-131"/>
</g>
<!-- n10&#45;&gt;n5 -->
<g id="edge7" class="edge">
<title>n10&#45;&gt;n5</title>
<path fill="none" stroke="#64748b" d="M337.94,-249.94C373.29,-248.17 421.84,-242.37 461,-225.2 473.63,-219.66 485.78,-210.54 495.58,-201.86"/>
<polygon fill="#64748b" stroke="#64748b" points="497.06,-203.83 500.56,-197.29 493.75,-200.22 497.06,-203.83"/>
</g>
<!-- n10&#45;&gt;n8 -->
<g id="edge9" class="edge">
<title>n10&#45;&gt;n8</title>
<path fill="none" stroke="#64748b" d="M338.1,-246.13C418.62,-239.3 572.23,-226.16 575,-225.2 590.43,-219.82 605.78,-210.28 618.16,-201.26"/>
<polygon fill="#64748b" stroke="#64748b" points="619.38,-203.41 623.5,-197.24 616.44,-199.49 619.38,-203.41"/>
</g>
<!-- n10&#45;&gt;n9 -->
<g id="edge10" class="edge">
<title>n10&#45;&gt;n9</title>
<path fill="none" stroke="#64748b" d="M337.89,-237.32C346.87,-234 355.95,-229.98 364,-225.2 374.57,-218.92 384.8,-210.12 393.23,-201.88"/>
<polygon fill="#64748b" stroke="#64748b" points="394.5,-204.08 397.69,-197.38 391.02,-200.63 394.5,-204.08"/>
</g>
<!-- n10&#45;&gt;n7 -->
<g id="edge8" class="edge">
<title>n10&#45;&gt;n7</title>
<path fill="none" stroke="#64748b" d="M286.61,-232.96C284.93,-224.39 282.86,-213.87 280.99,-204.39"/>
<polygon fill="#64748b" stroke="#64748b" points="283.4,-203.96 279.65,-197.56 278.6,-204.9 283.4,-203.96"/>
</g>
<!-- n11 -->
<g id="node13" class="node">
<title>n11</title>
<g id="a_node13"><a xlink:href="vscode://vscode-remote/wsl+Ubuntu/home/gavin/statlib/Statlib/Mathlib/Analysis/L2CompactSAInstance.lean:119" xlink:title="def · Statlib/Mathlib/Analysis/L2CompactSAInstance.lean:119" target="_blank">
<path fill="#d6e9ff" stroke="#3b82f6" d="M333,-341.2C333,-341.2 303,-341.2 303,-341.2 297,-341.2 291,-335.2 291,-329.2 291,-329.2 291,-317.2 291,-317.2 291,-311.2 297,-305.2 303,-305.2 303,-305.2 333,-305.2 333,-305.2 339,-305.2 345,-311.2 345,-317.2 345,-317.2 345,-329.2 345,-329.2 345,-335.2 339,-341.2 333,-341.2"/>
<text xml:space="preserve" text-anchor="middle" x="318" y="-320.2" font-family="Helvetica,sans-Serif" font-size="10.00">toCLM</text>
</a>
</g>
</g>
<!-- n11&#45;&gt;n8 -->
<g id="edge13" class="edge">
<title>n11&#45;&gt;n8</title>
<path fill="none" stroke="#64748b" d="M345.48,-314.05C393.44,-299.35 494.94,-266.08 575,-225.2 588.55,-218.28 602.7,-209.31 614.71,-201.12"/>
<polygon fill="#64748b" stroke="#64748b" points="615.9,-203.27 620.26,-197.27 613.11,-199.25 615.9,-203.27"/>
</g>
<!-- n11&#45;&gt;n10 -->
<g id="edge12" class="edge">
<title>n11&#45;&gt;n10</title>
<path fill="none" stroke="#64748b" d="M311.08,-304.9C307.72,-296.5 303.63,-286.27 299.94,-277.06"/>
<polygon fill="#64748b" stroke="#64748b" points="302.28,-276.3 297.4,-270.71 297.73,-278.12 302.28,-276.3"/>
</g>
<!-- n13 -->
<g id="node14" class="node">
<title>n13</title>
<g id="a_node14"><a xlink:href="vscode://vscode-remote/wsl+Ubuntu/home/gavin/statlib/Statlib/Mathlib/Analysis/SpectralCompactSelfAdjoint.lean:299" xlink:title="structure · Statlib/Mathlib/Analysis/SpectralCompactSelfAdjoint.lean:299" target="_blank">
<path fill="#e8dcff" stroke="#8b5cf6" d="M150.03,-485.2C150.03,-485.2 27.97,-485.2 27.97,-485.2 21.97,-485.2 15.97,-479.2 15.97,-473.2 15.97,-473.2 15.97,-461.2 15.97,-461.2 15.97,-455.2 21.97,-449.2 27.97,-449.2 27.97,-449.2 150.03,-449.2 150.03,-449.2 156.03,-449.2 162.03,-455.2 162.03,-461.2 162.03,-461.2 162.03,-473.2 162.03,-473.2 162.03,-479.2 156.03,-485.2 150.03,-485.2"/>
<text xml:space="preserve" text-anchor="middle" x="89" y="-464.2" font-family="Helvetica,sans-Serif" font-size="10.00">SpectralTheoremCompactSA</text>
</a>
</g>
</g>
<!-- n14 -->
<g id="node15" class="node">
<title>n14</title>
<g id="a_node15"><a xlink:href="vscode://vscode-remote/wsl+Ubuntu/home/gavin/statlib/Statlib/Mathlib/Analysis/L2CompactSAInstance.lean:133" xlink:title="theorem · Statlib/Mathlib/Analysis/L2CompactSAInstance.lean:133" target="_blank">
<path fill="#ffe6a3" stroke="#d4a017" d="M279.78,-413.2C279.78,-413.2 212.22,-413.2 212.22,-413.2 206.22,-413.2 200.22,-407.2 200.22,-401.2 200.22,-401.2 200.22,-389.2 200.22,-389.2 200.22,-383.2 206.22,-377.2 212.22,-377.2 212.22,-377.2 279.78,-377.2 279.78,-377.2 285.78,-377.2 291.78,-383.2 291.78,-389.2 291.78,-389.2 291.78,-401.2 291.78,-401.2 291.78,-407.2 285.78,-413.2 279.78,-413.2"/>
<text xml:space="preserve" text-anchor="middle" x="246" y="-392.2" font-family="Helvetica,sans-Serif" font-size="10.00">isSymmetric_clm</text>
</a>
</g>
</g>
<!-- n14&#45;&gt;n10 -->
<g id="edge14" class="edge">
<title>n14&#45;&gt;n10</title>
<path fill="none" stroke="#64748b" d="M251.4,-376.79C259.12,-351.85 273.39,-305.82 282.24,-277.23"/>
<polygon fill="#64748b" stroke="#64748b" points="284.52,-278.17 284.25,-270.76 279.84,-276.72 284.52,-278.17"/>
</g>
<!-- n14&#45;&gt;n11 -->
<g id="edge15" class="edge">
<title>n14&#45;&gt;n11</title>
<path fill="none" stroke="#64748b" d="M263.8,-376.9C272.97,-367.98 284.28,-356.98 294.2,-347.34"/>
<polygon fill="#64748b" stroke="#64748b" points="295.76,-349.24 299.07,-342.6 292.35,-345.72 295.76,-349.24"/>
</g>
<!-- n15 -->
<g id="node16" class="node">
<title>n15</title>
<g id="a_node16"><a xlink:href="vscode://vscode-remote/wsl+Ubuntu/home/gavin/statlib/Statlib/Mathlib/Analysis/L2CompactSAInstance.lean:140" xlink:title="theorem · Statlib/Mathlib/Analysis/L2CompactSAInstance.lean:140" target="_blank">
<path fill="#ffe6a3" stroke="#d4a017" d="M300.07,-485.2C300.07,-485.2 231.93,-485.2 231.93,-485.2 225.93,-485.2 219.93,-479.2 219.93,-473.2 219.93,-473.2 219.93,-461.2 219.93,-461.2 219.93,-455.2 225.93,-449.2 231.93,-449.2 231.93,-449.2 300.07,-449.2 300.07,-449.2 306.07,-449.2 312.07,-455.2 312.07,-461.2 312.07,-461.2 312.07,-473.2 312.07,-473.2 312.07,-479.2 306.07,-485.2 300.07,-485.2"/>
<text xml:space="preserve" text-anchor="middle" x="266" y="-464.2" font-family="Helvetica,sans-Serif" font-size="10.00">isSelfAdjoint_clm</text>
</a>
</g>
</g>
<!-- n15&#45;&gt;n10 -->
<g id="edge16" class="edge">
<title>n15&#45;&gt;n10</title>
<path fill="none" stroke="#64748b" d="M227.72,-448.87C213.5,-440.31 198.92,-428.49 191,-413.2 183.64,-398.99 185.74,-392.31 191,-377.2 205.34,-335.98 239.56,-298.13 263.74,-275.13"/>
<polygon fill="#64748b" stroke="#64748b" points="265.1,-277.21 268.55,-270.64 261.76,-273.62 265.1,-277.21"/>
</g>
<!-- n15&#45;&gt;n11 -->
<g id="edge17" class="edge">
<title>n15&#45;&gt;n11</title>
<path fill="none" stroke="#64748b" d="M279.86,-449.04C287.21,-439.11 295.77,-426.07 301,-413.2 309.3,-392.79 313.61,-368.07 315.81,-349.86"/>
<polygon fill="#64748b" stroke="#64748b" points="318.23,-350.23 316.56,-343 313.36,-349.69 318.23,-350.23"/>
</g>
<!-- n15&#45;&gt;n14 -->
<g id="edge18" class="edge">
<title>n15&#45;&gt;n14</title>
<path fill="none" stroke="#64748b" d="M261.06,-448.9C258.68,-440.59 255.79,-430.48 253.18,-421.34"/>
<polygon fill="#64748b" stroke="#64748b" points="255.58,-420.82 251.3,-414.76 250.87,-422.16 255.58,-420.82"/>
</g>
<!-- n16 -->
<g id="node17" class="node">
<title>n16</title>
<g id="a_node17"><a xlink:href="vscode://vscode-remote/wsl+Ubuntu/home/gavin/statlib/Statlib/Mathlib/Analysis/L2CompactSAInstance.lean:177" xlink:title="noncomputable def · Statlib/Mathlib/Analysis/L2CompactSAInstance.lean:177" target="_blank">
<path fill="#d6e9ff" stroke="#3b82f6" d="M218.2,-557.2C218.2,-557.2 87.8,-557.2 87.8,-557.2 81.8,-557.2 75.8,-551.2 75.8,-545.2 75.8,-545.2 75.8,-533.2 75.8,-533.2 75.8,-527.2 81.8,-521.2 87.8,-521.2 87.8,-521.2 218.2,-521.2 218.2,-521.2 224.2,-521.2 230.2,-527.2 230.2,-533.2 230.2,-533.2 230.2,-545.2 230.2,-545.2 230.2,-551.2 224.2,-557.2 218.2,-557.2"/>
<text xml:space="preserve" text-anchor="middle" x="153" y="-536.2" font-family="Helvetica,sans-Serif" font-size="10.00">toSpectralTheoremCompactSA</text>
</a>
</g>
</g>
<!-- n16&#45;&gt;n10 -->
<g id="edge19" class="edge">
<title>n16&#45;&gt;n10</title>
<path fill="none" stroke="#64748b" d="M167.33,-520.77C174.45,-510.96 182.31,-498.12 186,-485.2 190.4,-469.82 186.88,-465.18 186,-449.2 184.23,-417.2 177.06,-408.87 182,-377.2 187.17,-344.01 184.37,-331.71 205,-305.2 215,-292.34 229.07,-281.8 242.88,-273.6"/>
<polygon fill="#64748b" stroke="#64748b" points="243.86,-275.86 248.74,-270.27 241.44,-271.59 243.86,-275.86"/>
</g>
<!-- n16&#45;&gt;n11 -->
<g id="edge20" class="edge">
<title>n16&#45;&gt;n11</title>
<path fill="none" stroke="#64748b" d="M230.61,-522.99C269.06,-513.72 309.65,-500.68 321,-485.2 350.3,-445.23 337.58,-383.4 326.99,-349.17"/>
<polygon fill="#64748b" stroke="#64748b" points="329.46,-348.83 324.97,-342.93 324.79,-350.34 329.46,-348.83"/>
</g>
<!-- n16&#45;&gt;n13 -->
<g id="edge21" class="edge">
<title>n16&#45;&gt;n13</title>
<path fill="none" stroke="#64748b" d="M137.18,-520.9C129.04,-512 119.01,-501.02 110.21,-491.4"/>
<polygon fill="#64748b" stroke="#64748b" points="112.19,-489.93 105.66,-486.42 108.57,-493.24 112.19,-489.93"/>
</g>
<!-- n16&#45;&gt;n15 -->
<g id="edge22" class="edge">
<title>n16&#45;&gt;n15</title>
<path fill="none" stroke="#64748b" d="M181.22,-520.72C196.3,-511.38 215,-499.79 231,-489.88"/>
<polygon fill="#64748b" stroke="#64748b" points="232.19,-492.03 236.85,-486.26 229.61,-487.86 232.19,-492.03"/>
</g>
<!-- n17 -->
<g id="node18" class="node">
<title>n17</title>
<g id="a_node18"><a xlink:href="vscode://vscode-remote/wsl+Ubuntu/home/gavin/statlib/Statlib/Mathlib/Analysis/L2CompactSAInstance.lean:204" xlink:title="noncomputable def · Statlib/Mathlib/Analysis/L2CompactSAInstance.lean:204" target="_blank">
<path fill="#d6e9ff" stroke="#3b82f6" d="M183.79,-629.2C183.79,-629.2 106.21,-629.2 106.21,-629.2 100.21,-629.2 94.21,-623.2 94.21,-617.2 94.21,-617.2 94.21,-605.2 94.21,-605.2 94.21,-599.2 100.21,-593.2 106.21,-593.2 106.21,-593.2 183.79,-593.2 183.79,-593.2 189.79,-593.2 195.79,-599.2 195.79,-605.2 195.79,-605.2 195.79,-617.2 195.79,-617.2 195.79,-623.2 189.79,-629.2 183.79,-629.2"/>
<text xml:space="preserve" text-anchor="middle" x="145" y="-608.2" font-family="Helvetica,sans-Serif" font-size="10.00">toFPCEigensystem</text>
</a>
</g>
</g>
<!-- n17&#45;&gt;n12 -->
<g id="edge25" class="edge">
<title>n17&#45;&gt;n12</title>
<path fill="none" stroke="#64748b" d="M196.02,-595.56C199.05,-594.75 202.06,-593.95 205,-593.2 396.94,-543.89 633,-666.37 633,-468.2 633,-468.2 633,-468.2 633,-322.2 633,-272.15 664.75,-266.63 702,-233.2 707.05,-228.67 709.68,-229.41 715,-225.2 723.77,-218.26 732.62,-209.79 740.19,-202.01"/>
<polygon fill="#64748b" stroke="#64748b" points="741.6,-204.09 744.65,-197.33 738.05,-200.7 741.6,-204.09"/>
</g>
<!-- n17&#45;&gt;n10 -->
<g id="edge23" class="edge">
<title>n17&#45;&gt;n10</title>
<path fill="none" stroke="#64748b" d="M104.41,-592.73C89.89,-584.26 75.12,-572.54 67,-557.2 59.51,-543.06 57.72,-534.23 67,-521.2 95.37,-481.36 141.71,-524.38 171,-485.2 178.19,-475.58 175.14,-389.18 176,-377.2 178.3,-345.13 164.74,-331.66 183,-305.2 195.11,-287.65 214.75,-275.65 233.92,-267.57"/>
<polygon fill="#64748b" stroke="#64748b" points="234.79,-269.86 240.4,-265.01 232.98,-265.31 234.79,-269.86"/>
</g>
<!-- n17&#45;&gt;n11 -->
<g id="edge24" class="edge">
<title>n17&#45;&gt;n11</title>
<path fill="none" stroke="#64748b" d="M186.73,-592.89C204.37,-584.09 224.21,-572.08 239,-557.2 251.9,-544.22 245.68,-533.75 259,-521.2 285.91,-495.85 312.61,-515.36 334,-485.2 361.85,-445.94 352.16,-424.25 342,-377.2 339.94,-367.68 336.03,-357.8 331.95,-349.2"/>
<polygon fill="#64748b" stroke="#64748b" points="334.2,-348.22 328.88,-343.05 329.82,-350.41 334.2,-348.22"/>
</g>
<!-- n17&#45;&gt;n16 -->
<g id="edge26" class="edge">
<title>n17&#45;&gt;n16</title>
<path fill="none" stroke="#64748b" d="M146.98,-592.9C147.92,-584.67 149.06,-574.68 150.09,-565.62"/>
<polygon fill="#64748b" stroke="#64748b" points="152.51,-566.04 150.87,-558.81 147.64,-565.48 152.51,-566.04"/>
</g>
<!-- n18 -->
<g id="node19" class="node">
<title>n18</title>
<g id="a_node19"><a xlink:href="vscode://vscode-remote/wsl+Ubuntu/home/gavin/statlib/Statlib/Mathlib/Analysis/SpectralCompactSelfAdjoint.lean:198" xlink:title="theorem · Statlib/Mathlib/Analysis/SpectralCompactSelfAdjoint.lean:198" target="_blank">
<path fill="#ffe6a3" stroke="#d4a017" d="M340.48,-557.2C340.48,-557.2 279.52,-557.2 279.52,-557.2 273.52,-557.2 267.52,-551.2 267.52,-545.2 267.52,-545.2 267.52,-533.2 267.52,-533.2 267.52,-527.2 273.52,-521.2 279.52,-521.2 279.52,-521.2 340.48,-521.2 340.48,-521.2 346.48,-521.2 352.48,-527.2 352.48,-533.2 352.48,-533.2 352.48,-545.2 352.48,-545.2 352.48,-551.2 346.48,-557.2 340.48,-557.2"/>
<text xml:space="preserve" text-anchor="middle" x="310" y="-536.2" font-family="Helvetica,sans-Serif" font-size="10.00">inner_eigen_eq</text>
</a>
</g>
</g>
<!-- n19 -->
<g id="node20" class="node">
<title>n19</title>
<g id="a_node20"><a xlink:href="vscode://vscode-remote/wsl+Ubuntu/home/gavin/statlib/Statlib/Mathlib/Analysis/SpectralCompactSelfAdjoint.lean:223" xlink:title="theorem · Statlib/Mathlib/Analysis/SpectralCompactSelfAdjoint.lean:223" target="_blank">
<path fill="#ffe6a3" stroke="#d4a017" d="M340.45,-629.2C340.45,-629.2 225.55,-629.2 225.55,-629.2 219.55,-629.2 213.55,-623.2 213.55,-617.2 213.55,-617.2 213.55,-605.2 213.55,-605.2 213.55,-599.2 219.55,-593.2 225.55,-593.2 225.55,-593.2 340.45,-593.2 340.45,-593.2 346.45,-593.2 352.45,-599.2 352.45,-605.2 352.45,-605.2 352.45,-617.2 352.45,-617.2 352.45,-623.2 346.45,-629.2 340.45,-629.2"/>
<text xml:space="preserve" text-anchor="middle" x="283" y="-608.2" font-family="Helvetica,sans-Serif" font-size="10.00">nonneg_eigenvalue_of_psd</text>
</a>
</g>
</g>
<!-- n19&#45;&gt;n18 -->
<g id="edge27" class="edge">
<title>n19&#45;&gt;n18</title>
<path fill="none" stroke="#64748b" d="M289.67,-592.9C292.91,-584.5 296.86,-574.27 300.41,-565.06"/>
<polygon fill="#64748b" stroke="#64748b" points="302.62,-566.13 302.86,-558.72 298.05,-564.37 302.62,-566.13"/>
</g>
<!-- n20 -->
<g id="node21" class="node">
<title>n20</title>
<g id="a_node21"><a xlink:href="vscode://vscode-remote/wsl+Ubuntu/home/gavin/statlib/Statlib/Mathlib/Analysis/SpectralCompactSelfAdjoint.lean:354" xlink:title="noncomputable def · Statlib/Mathlib/Analysis/SpectralCompactSelfAdjoint.lean:354" target="_blank">
<path fill="#d6e9ff" stroke="#3b82f6" stroke-width="3" d="M295.21,-701.2C295.21,-701.2 84.79,-701.2 84.79,-701.2 78.79,-701.2 72.79,-695.2 72.79,-689.2 72.79,-689.2 72.79,-677.2 72.79,-677.2 72.79,-671.2 78.79,-665.2 84.79,-665.2 84.79,-665.2 295.21,-665.2 295.21,-665.2 301.21,-665.2 307.21,-671.2 307.21,-677.2 307.21,-677.2 307.21,-689.2 307.21,-689.2 307.21,-695.2 301.21,-701.2 295.21,-701.2"/>
<text xml:space="preserve" text-anchor="middle" x="190" y="-680.2" font-family="Helvetica,sans-Serif" font-size="10.00">SpectralTheoremCompactSA.toFPCEigensystem</text>
</a>
</g>
</g>
<!-- n20&#45;&gt;n12 -->
<g id="edge30" class="edge">
<title>n20&#45;&gt;n12</title>
<path fill="none" stroke="#64748b" d="M308.7,-673.95C463.84,-659.85 716,-624.03 716,-540.2 716,-540.2 716,-540.2 716,-322.2 716,-278.85 735,-231.37 748.31,-203.43"/>
<polygon fill="#64748b" stroke="#64748b" points="750.36,-204.82 751.23,-197.45 745.96,-202.67 750.36,-204.82"/>
</g>
<!-- n20&#45;&gt;n13 -->
<g id="edge29" class="edge">
<title>n20&#45;&gt;n13</title>
<path fill="none" stroke="#64748b" d="M136.87,-663.78C118.67,-655.44 99.31,-644.06 85,-629.2 50.18,-593.05 36.94,-569.08 52,-521.2 55.29,-510.73 61.48,-500.52 67.86,-491.9"/>
<polygon fill="#64748b" stroke="#64748b" points="69.66,-493.57 72.03,-486.55 65.79,-490.56 69.66,-493.57"/>
</g>
<!-- n20&#45;&gt;n17 -->
<g id="edge28" class="edge">
<title>n20&#45;&gt;n17</title>
<path fill="none" stroke="#64748b" d="M178.18,-663.81C172.75,-655.37 166.25,-645.26 160.44,-636.22"/>
<polygon fill="#64748b" stroke="#64748b" points="162.64,-635.1 156.79,-630.54 158.52,-637.75 162.64,-635.1"/>
</g>
<!-- n20&#45;&gt;n19 -->
<g id="edge31" class="edge">
<title>n20&#45;&gt;n19</title>
<path fill="none" stroke="#64748b" d="M214.43,-663.81C226.33,-654.85 240.74,-644.01 253.27,-634.58"/>
<polygon fill="#64748b" stroke="#64748b" points="254.68,-636.58 258.8,-630.42 251.73,-632.67 254.68,-636.58"/>
</g>
</g>
</svg>
