<?xml version="1.0" encoding="UTF-8" standalone="no"?>
<!DOCTYPE svg PUBLIC "-//W3C//DTD SVG 1.1//EN"
 "http://www.w3.org/Graphics/SVG/1.1/DTD/svg11.dtd">
<!-- Generated by graphviz version 15.0.0 (20260523.1842)
 -->
<!-- Title: toHajekLeCam_eq_viaThird_asymGaussian Pages: 1 -->
<svg width="496pt" height="410pt"
 viewBox="0.00 0.00 496.00 410.00" xmlns="http://www.w3.org/2000/svg" xmlns:xlink="http://www.w3.org/1999/xlink">
<g id="graph0" class="graph" transform="scale(1 1) rotate(0) translate(4 406)">
<title>toHajekLeCam_eq_viaThird_asymGaussian</title>
<polygon fill="white" stroke="none" points="-4,4 -4,-406 492,-406 492,4 -4,4"/>
<text xml:space="preserve" text-anchor="middle" x="244" y="-385.4" font-family="Helvetica,sans-Serif" font-size="14.00">Proof narrative — toHajekLeCam_eq_viaThird_asymGaussian &#160;(13 decls)</text>
<g id="clust1" class="cluster">
<title>cluster_0</title>
<path fill="none" stroke="#cbd5e1" stroke-dasharray="5,2" d="M20,-8C20,-8 468,-8 468,-8 474,-8 480,-14 480,-20 480,-20 480,-357.2 480,-357.2 480,-363.2 474,-369.2 468,-369.2 468,-369.2 20,-369.2 20,-369.2 14,-369.2 8,-363.2 8,-357.2 8,-357.2 8,-20 8,-20 8,-14 14,-8 20,-8"/>
<text xml:space="preserve" text-anchor="middle" x="244" y="-355.3" font-family="Helvetica,sans-Serif" font-size="11.00">Mathlib</text>
</g>
<!-- n0 -->
<g id="node1" class="node">
<title>n0</title>
<g id="a_node1"><a xlink:href="vscode://vscode-remote/wsl+Ubuntu/home/gavin/statlib/Statlib/Mathlib/Statistics/LAN.lean:152" xlink:title="structure · Statlib/Mathlib/Statistics/LAN.lean:152" target="_blank">
<path fill="#e8dcff" stroke="#8b5cf6" d="M228.08,-52C228.08,-52 169.92,-52 169.92,-52 163.92,-52 157.92,-46 157.92,-40 157.92,-40 157.92,-28 157.92,-28 157.92,-22 163.92,-16 169.92,-16 169.92,-16 228.08,-16 228.08,-16 234.08,-16 240.08,-22 240.08,-28 240.08,-28 240.08,-40 240.08,-40 240.08,-46 234.08,-52 228.08,-52"/>
<text xml:space="preserve" text-anchor="middle" x="199" y="-31" font-family="Helvetica,sans-Serif" font-size="10.00">LANExpansion</text>
</a>
</g>
</g>
<!-- n1 -->
<g id="node2" class="node">
<title>n1</title>
<g id="a_node2"><a xlink:href="vscode://vscode-remote/wsl+Ubuntu/home/gavin/statlib/Statlib/Mathlib/ProbabilityTheory/MultivariateCLT.lean:138" xlink:title="structure · Statlib/Mathlib/ProbabilityTheory/MultivariateCLT.lean:138" target="_blank">
<path fill="#e8dcff" stroke="#8b5cf6" d="M381.75,-52C381.75,-52 270.25,-52 270.25,-52 264.25,-52 258.25,-46 258.25,-40 258.25,-40 258.25,-28 258.25,-28 258.25,-22 264.25,-16 270.25,-16 270.25,-16 381.75,-16 381.75,-16 387.75,-16 393.75,-22 393.75,-28 393.75,-28 393.75,-40 393.75,-40 393.75,-46 387.75,-52 381.75,-52"/>
<text xml:space="preserve" text-anchor="middle" x="326" y="-31" font-family="Helvetica,sans-Serif" font-size="10.00">MultivariateCLTConclusion</text>
</a>
</g>
</g>
<!-- n2 -->
<g id="node3" class="node">
<title>n2</title>
<g id="a_node3"><a xlink:href="vscode://vscode-remote/wsl+Ubuntu/home/gavin/statlib/Statlib/Mathlib/Statistics/LeCamThirdLemma.lean:86" xlink:title="def · Statlib/Mathlib/Statistics/LeCamThirdLemma.lean:86" target="_blank">
<path fill="#d6e9ff" stroke="#3b82f6" d="M460.23,-52C460.23,-52 423.77,-52 423.77,-52 417.77,-52 411.77,-46 411.77,-40 411.77,-40 411.77,-28 411.77,-28 411.77,-22 417.77,-16 423.77,-16 423.77,-16 460.23,-16 460.23,-16 466.23,-16 472.23,-22 472.23,-28 472.23,-28 472.23,-40 472.23,-40 472.23,-46 466.23,-52 460.23,-52"/>
<text xml:space="preserve" text-anchor="middle" x="442" y="-31" font-family="Helvetica,sans-Serif" font-size="10.00">Contiguity</text>
</a>
</g>
</g>
<!-- n3 -->
<g id="node4" class="node">
<title>n3</title>
<g id="a_node4"><a xlink:href="vscode://vscode-remote/wsl+Ubuntu/home/gavin/statlib/Statlib/Mathlib/Statistics/LeCamInstance.lean:112" xlink:title="structure · Statlib/Mathlib/Statistics/LeCamInstance.lean:112" target="_blank">
<path fill="#e8dcff" stroke="#8b5cf6" d="M246.25,-124C246.25,-124 159.75,-124 159.75,-124 153.75,-124 147.75,-118 147.75,-112 147.75,-112 147.75,-100 147.75,-100 147.75,-94 153.75,-88 159.75,-88 159.75,-88 246.25,-88 246.25,-88 252.25,-88 258.25,-94 258.25,-100 258.25,-100 258.25,-112 258.25,-112 258.25,-118 252.25,-124 246.25,-124"/>
<text xml:space="preserve" text-anchor="middle" x="203" y="-103" font-family="Helvetica,sans-Serif" font-size="10.00">LANToLeCamBundle</text>
</a>
</g>
</g>
<!-- n3&#45;&gt;n0 -->
<g id="edge1" class="edge">
<title>n3&#45;&gt;n0</title>
<path fill="none" stroke="#64748b" d="M202.01,-87.7C201.54,-79.47 200.97,-69.48 200.45,-60.42"/>
<polygon fill="#64748b" stroke="#64748b" points="202.91,-60.46 200.06,-53.62 198.02,-60.74 202.91,-60.46"/>
</g>
<!-- n3&#45;&gt;n1 -->
<g id="edge2" class="edge">
<title>n3&#45;&gt;n1</title>
<path fill="none" stroke="#64748b" d="M233.72,-87.52C250.28,-78.09 270.86,-66.38 288.37,-56.41"/>
<polygon fill="#64748b" stroke="#64748b" points="289.48,-58.6 294.36,-53.01 287.06,-54.34 289.48,-58.6"/>
</g>
<!-- n3&#45;&gt;n2 -->
<g id="edge3" class="edge">
<title>n3&#45;&gt;n2</title>
<path fill="none" stroke="#64748b" d="M258.5,-90.25C261.38,-89.49 264.22,-88.74 267,-88 327.44,-71.97 343.95,-72.55 403,-52 403.26,-51.91 403.52,-51.82 403.79,-51.72"/>
<polygon fill="#64748b" stroke="#64748b" points="404.42,-54.11 410.1,-49.34 402.69,-49.52 404.42,-54.11"/>
</g>
<!-- n4 -->
<g id="node5" class="node">
<title>n4</title>
<g id="a_node5"><a xlink:href="vscode://vscode-remote/wsl+Ubuntu/home/gavin/statlib/Statlib/Mathlib/Statistics/LAN.lean:220" xlink:title="structure · Statlib/Mathlib/Statistics/LAN.lean:220" target="_blank">
<path fill="#e8dcff" stroke="#8b5cf6" d="M127.64,-52C127.64,-52 28.36,-52 28.36,-52 22.36,-52 16.36,-46 16.36,-40 16.36,-40 16.36,-28 16.36,-28 16.36,-22 22.36,-16 28.36,-16 28.36,-16 127.64,-16 127.64,-16 133.64,-16 139.64,-22 139.64,-28 139.64,-28 139.64,-40 139.64,-40 139.64,-46 133.64,-52 127.64,-52"/>
<text xml:space="preserve" text-anchor="middle" x="78" y="-31" font-family="Helvetica,sans-Serif" font-size="10.00">HajekLeCamConclusion</text>
</a>
</g>
</g>
<!-- n5 -->
<g id="node6" class="node">
<title>n5</title>
<g id="a_node6"><a xlink:href="vscode://vscode-remote/wsl+Ubuntu/home/gavin/statlib/Statlib/Mathlib/Statistics/LAN.lean:256" xlink:title="def · Statlib/Mathlib/Statistics/LAN.lean:256" target="_blank">
<path fill="#d6e9ff" stroke="#3b82f6" d="M118,-124C118,-124 88,-124 88,-124 82,-124 76,-118 76,-112 76,-112 76,-100 76,-100 76,-94 82,-88 88,-88 88,-88 118,-88 118,-88 124,-88 130,-94 130,-100 130,-100 130,-112 130,-112 130,-118 124,-124 118,-124"/>
<text xml:space="preserve" text-anchor="middle" x="103" y="-103" font-family="Helvetica,sans-Serif" font-size="10.00">ofLAN</text>
</a>
</g>
</g>
<!-- n5&#45;&gt;n0 -->
<g id="edge4" class="edge">
<title>n5&#45;&gt;n0</title>
<path fill="none" stroke="#64748b" d="M126.73,-87.7C139.31,-78.53 154.9,-67.16 168.38,-57.33"/>
<polygon fill="#64748b" stroke="#64748b" points="169.77,-59.34 173.99,-53.24 166.89,-55.38 169.77,-59.34"/>
</g>
<!-- n5&#45;&gt;n4 -->
<g id="edge5" class="edge">
<title>n5&#45;&gt;n4</title>
<path fill="none" stroke="#64748b" d="M96.82,-87.7C93.82,-79.3 90.17,-69.07 86.88,-59.86"/>
<polygon fill="#64748b" stroke="#64748b" points="89.28,-59.3 84.62,-53.53 84.66,-60.95 89.28,-59.3"/>
</g>
<!-- n6 -->
<g id="node7" class="node">
<title>n6</title>
<g id="a_node7"><a xlink:href="vscode://vscode-remote/wsl+Ubuntu/home/gavin/statlib/Statlib/Mathlib/Statistics/LeCamInstance.lean:163" xlink:title="def · Statlib/Mathlib/Statistics/LeCamInstance.lean:163" target="_blank">
<path fill="#d6e9ff" stroke="#3b82f6" d="M99.07,-196C99.07,-196 40.93,-196 40.93,-196 34.93,-196 28.93,-190 28.93,-184 28.93,-184 28.93,-172 28.93,-172 28.93,-166 34.93,-160 40.93,-160 40.93,-160 99.07,-160 99.07,-160 105.07,-160 111.07,-166 111.07,-172 111.07,-172 111.07,-184 111.07,-184 111.07,-190 105.07,-196 99.07,-196"/>
<text xml:space="preserve" text-anchor="middle" x="70" y="-175" font-family="Helvetica,sans-Serif" font-size="10.00">toHajekLeCam</text>
</a>
</g>
</g>
<!-- n6&#45;&gt;n3 -->
<g id="edge6" class="edge">
<title>n6&#45;&gt;n3</title>
<path fill="none" stroke="#64748b" d="M103.22,-159.52C121.29,-150.01 143.77,-138.17 162.82,-128.15"/>
<polygon fill="#64748b" stroke="#64748b" points="163.81,-130.39 168.87,-124.97 161.53,-126.06 163.81,-130.39"/>
</g>
<!-- n6&#45;&gt;n4 -->
<g id="edge7" class="edge">
<title>n6&#45;&gt;n4</title>
<path fill="none" stroke="#64748b" d="M62.03,-159.54C54.86,-141.55 46.26,-112.72 52,-88 54.24,-78.37 58.48,-68.47 62.9,-59.87"/>
<polygon fill="#64748b" stroke="#64748b" points="65.05,-61.04 66.23,-53.72 60.74,-58.71 65.05,-61.04"/>
</g>
<!-- n6&#45;&gt;n5 -->
<g id="edge8" class="edge">
<title>n6&#45;&gt;n5</title>
<path fill="none" stroke="#64748b" d="M78.16,-159.7C82.15,-151.22 87.04,-140.86 91.41,-131.58"/>
<polygon fill="#64748b" stroke="#64748b" points="93.52,-132.85 94.29,-125.47 89.09,-130.76 93.52,-132.85"/>
</g>
<!-- n7 -->
<g id="node8" class="node">
<title>n7</title>
<g id="a_node8"><a xlink:href="vscode://vscode-remote/wsl+Ubuntu/home/gavin/statlib/Statlib/Mathlib/Statistics/LeCamThirdLemma.lean:160" xlink:title="structure · Statlib/Mathlib/Statistics/LeCamThirdLemma.lean:160" target="_blank">
<path fill="#e8dcff" stroke="#8b5cf6" d="M368.18,-124C368.18,-124 287.82,-124 287.82,-124 281.82,-124 275.82,-118 275.82,-112 275.82,-112 275.82,-100 275.82,-100 275.82,-94 281.82,-88 287.82,-88 287.82,-88 368.18,-88 368.18,-88 374.18,-88 380.18,-94 380.18,-100 380.18,-100 380.18,-112 380.18,-112 380.18,-118 374.18,-124 368.18,-124"/>
<text xml:space="preserve" text-anchor="middle" x="328" y="-103" font-family="Helvetica,sans-Serif" font-size="10.00">LeCamThirdLemma</text>
</a>
</g>
</g>
<!-- n7&#45;&gt;n2 -->
<g id="edge9" class="edge">
<title>n7&#45;&gt;n2</title>
<path fill="none" stroke="#64748b" d="M356.47,-87.52C371.69,-78.18 390.55,-66.59 406.69,-56.68"/>
<polygon fill="#64748b" stroke="#64748b" points="407.92,-58.8 412.6,-53.05 405.35,-54.63 407.92,-58.8"/>
</g>
<!-- n8 -->
<g id="node9" class="node">
<title>n8</title>
<g id="a_node9"><a xlink:href="vscode://vscode-remote/wsl+Ubuntu/home/gavin/statlib/Statlib/Mathlib/Statistics/LeCamInstance.lean:202" xlink:title="def · Statlib/Mathlib/Statistics/LeCamInstance.lean:202" target="_blank">
<path fill="#d6e9ff" stroke="#3b82f6" d="M297.35,-196C297.35,-196 208.65,-196 208.65,-196 202.65,-196 196.65,-190 196.65,-184 196.65,-184 196.65,-172 196.65,-172 196.65,-166 202.65,-160 208.65,-160 208.65,-160 297.35,-160 297.35,-160 303.35,-160 309.35,-166 309.35,-172 309.35,-172 309.35,-184 309.35,-184 309.35,-190 303.35,-196 297.35,-196"/>
<text xml:space="preserve" text-anchor="middle" x="253" y="-175" font-family="Helvetica,sans-Serif" font-size="10.00">toLeCamThirdLemma</text>
</a>
</g>
</g>
<!-- n8&#45;&gt;n3 -->
<g id="edge10" class="edge">
<title>n8&#45;&gt;n3</title>
<path fill="none" stroke="#64748b" d="M240.64,-159.7C234.46,-151.05 226.89,-140.45 220.16,-131.03"/>
<polygon fill="#64748b" stroke="#64748b" points="222.16,-129.61 216.1,-125.34 218.17,-132.46 222.16,-129.61"/>
</g>
<!-- n8&#45;&gt;n7 -->
<g id="edge11" class="edge">
<title>n8&#45;&gt;n7</title>
<path fill="none" stroke="#64748b" d="M271.54,-159.7C281.09,-150.78 292.88,-139.78 303.21,-130.14"/>
<polygon fill="#64748b" stroke="#64748b" points="304.86,-131.95 308.31,-125.38 301.52,-128.36 304.86,-131.95"/>
</g>
<!-- n9 -->
<g id="node10" class="node">
<title>n9</title>
<g id="a_node10"><a xlink:href="vscode://vscode-remote/wsl+Ubuntu/home/gavin/statlib/Statlib/Mathlib/Statistics/LeCamThirdLemma.lean:98" xlink:title="theorem · Statlib/Mathlib/Statistics/LeCamThirdLemma.lean:98" target="_blank">
<path fill="#ffe6a3" stroke="#d4a017" d="M460,-124C460,-124 430,-124 430,-124 424,-124 418,-118 418,-112 418,-112 418,-100 418,-100 418,-94 424,-88 430,-88 430,-88 460,-88 460,-88 466,-88 472,-94 472,-100 472,-100 472,-112 472,-112 472,-118 466,-124 460,-124"/>
<text xml:space="preserve" text-anchor="middle" x="445" y="-103" font-family="Helvetica,sans-Serif" font-size="10.00">refl</text>
</a>
</g>
</g>
<!-- n9&#45;&gt;n2 -->
<g id="edge12" class="edge">
<title>n9&#45;&gt;n2</title>
<path fill="none" stroke="#64748b" d="M444.26,-87.7C443.91,-79.47 443.48,-69.48 443.09,-60.42"/>
<polygon fill="#64748b" stroke="#64748b" points="445.55,-60.51 442.8,-53.62 440.65,-60.72 445.55,-60.51"/>
</g>
<!-- n10 -->
<g id="node11" class="node">
<title>n10</title>
<g id="a_node11"><a xlink:href="vscode://vscode-remote/wsl+Ubuntu/home/gavin/statlib/Statlib/Mathlib/Statistics/LeCamThirdLemma.lean:184" xlink:title="def · Statlib/Mathlib/Statistics/LeCamThirdLemma.lean:184" target="_blank">
<path fill="#d6e9ff" stroke="#3b82f6" d="M407.35,-196C407.35,-196 368.65,-196 368.65,-196 362.65,-196 356.65,-190 356.65,-184 356.65,-184 356.65,-172 356.65,-172 356.65,-166 362.65,-160 368.65,-160 368.65,-160 407.35,-160 407.35,-160 413.35,-160 419.35,-166 419.35,-172 419.35,-172 419.35,-184 419.35,-184 419.35,-190 413.35,-196 407.35,-196"/>
<text xml:space="preserve" text-anchor="middle" x="388" y="-175" font-family="Helvetica,sans-Serif" font-size="10.00">selfBundle</text>
</a>
</g>
</g>
<!-- n10&#45;&gt;n0 -->
<g id="edge15" class="edge">
<title>n10&#45;&gt;n0</title>
<path fill="none" stroke="#64748b" d="M394.01,-159.6C399.57,-140.05 404.81,-108.39 389,-88 349.63,-37.23 310.57,-70.35 249,-52 248.82,-51.95 248.65,-51.9 248.47,-51.84"/>
<polygon fill="#64748b" stroke="#64748b" points="249.25,-49.52 241.84,-49.79 247.8,-54.2 249.25,-49.52"/>
</g>
<!-- n10&#45;&gt;n7 -->
<g id="edge13" class="edge">
<title>n10&#45;&gt;n7</title>
<path fill="none" stroke="#64748b" d="M373.17,-159.7C365.61,-150.88 356.31,-140.03 348.12,-130.47"/>
<polygon fill="#64748b" stroke="#64748b" points="350.06,-128.97 343.65,-125.25 346.34,-132.16 350.06,-128.97"/>
</g>
<!-- n10&#45;&gt;n9 -->
<g id="edge14" class="edge">
<title>n10&#45;&gt;n9</title>
<path fill="none" stroke="#64748b" d="M402.09,-159.7C409.27,-150.88 418.1,-140.03 425.89,-130.47"/>
<polygon fill="#64748b" stroke="#64748b" points="427.6,-132.25 430.12,-125.28 423.8,-129.16 427.6,-132.25"/>
</g>
<!-- n11 -->
<g id="node12" class="node">
<title>n11</title>
<g id="a_node12"><a xlink:href="vscode://vscode-remote/wsl+Ubuntu/home/gavin/statlib/Statlib/Mathlib/Statistics/LeCamInstance.lean:243" xlink:title="def · Statlib/Mathlib/Statistics/LeCamInstance.lean:243" target="_blank">
<path fill="#d6e9ff" stroke="#3b82f6" d="M256.69,-268C256.69,-268 161.31,-268 161.31,-268 155.31,-268 149.31,-262 149.31,-256 149.31,-256 149.31,-244 149.31,-244 149.31,-238 155.31,-232 161.31,-232 161.31,-232 256.69,-232 256.69,-232 262.69,-232 268.69,-238 268.69,-244 268.69,-244 268.69,-256 268.69,-256 268.69,-262 262.69,-268 256.69,-268"/>
<text xml:space="preserve" text-anchor="middle" x="209" y="-247" font-family="Helvetica,sans-Serif" font-size="10.00">toHajekLeCamViaThird</text>
</a>
</g>
</g>
<!-- n11&#45;&gt;n3 -->
<g id="edge16" class="edge">
<title>n11&#45;&gt;n3</title>
<path fill="none" stroke="#64748b" d="M200.28,-231.83C195.63,-221.69 190.38,-208.44 188,-196 183.9,-174.51 188.73,-149.99 193.97,-132.13"/>
<polygon fill="#64748b" stroke="#64748b" points="196.18,-133.29 195.93,-125.88 191.5,-131.83 196.18,-133.29"/>
</g>
<!-- n11&#45;&gt;n4 -->
<g id="edge17" class="edge">
<title>n11&#45;&gt;n4</title>
<path fill="none" stroke="#64748b" d="M193.48,-231.63C176.37,-212.94 147.62,-182.84 120,-160 98.06,-141.85 80.33,-149.16 67,-124 56.59,-104.34 61.22,-78.91 67.35,-60.27"/>
<polygon fill="#64748b" stroke="#64748b" points="69.58,-61.32 69.62,-53.9 64.96,-59.68 69.58,-61.32"/>
</g>
<!-- n11&#45;&gt;n6 -->
<g id="edge21" class="edge">
<title>n11&#45;&gt;n6</title>
<path fill="none" stroke="#64748b" d="M174.28,-231.52C155.32,-221.97 131.69,-210.07 111.73,-200.01"/>
<polygon fill="#64748b" stroke="#64748b" points="112.98,-197.9 105.63,-196.94 110.78,-202.28 112.98,-197.9"/>
</g>
<!-- n11&#45;&gt;n7 -->
<g id="edge19" class="edge">
<title>n11&#45;&gt;n7</title>
<path fill="none" stroke="#64748b" d="M269,-232.48C287.53,-224.44 306.16,-212.76 318,-196 330.91,-177.72 332.47,-151.86 331.35,-132.72"/>
<polygon fill="#64748b" stroke="#64748b" points="333.81,-132.74 330.81,-125.96 328.93,-133.13 333.81,-132.74"/>
</g>
<!-- n11&#45;&gt;n8 -->
<g id="edge18" class="edge">
<title>n11&#45;&gt;n8</title>
<path fill="none" stroke="#64748b" d="M219.88,-231.7C225.26,-223.14 231.84,-212.66 237.72,-203.3"/>
<polygon fill="#64748b" stroke="#64748b" points="239.79,-204.62 241.44,-197.39 235.64,-202.01 239.79,-204.62"/>
</g>
<!-- n11&#45;&gt;n10 -->
<g id="edge20" class="edge">
<title>n11&#45;&gt;n10</title>
<path fill="none" stroke="#64748b" d="M253.71,-231.52C282.86,-220.12 320.56,-205.37 348.59,-194.41"/>
<polygon fill="#64748b" stroke="#64748b" points="349.18,-196.81 354.81,-191.98 347.4,-192.25 349.18,-196.81"/>
</g>
<!-- n12 -->
<g id="node13" class="node">
<title>n12</title>
<g id="a_node13"><a xlink:href="vscode://vscode-remote/wsl+Ubuntu/home/gavin/statlib/Statlib/Mathlib/Statistics/LeCamInstance.lean:274" xlink:title="theorem · Statlib/Mathlib/Statistics/LeCamInstance.lean:274" target="_blank">
<path fill="#ffe6a3" stroke="#d4a017" stroke-width="3" d="M223.83,-340C223.83,-340 36.17,-340 36.17,-340 30.17,-340 24.17,-334 24.17,-328 24.17,-328 24.17,-316 24.17,-316 24.17,-310 30.17,-304 36.17,-304 36.17,-304 223.83,-304 223.83,-304 229.83,-304 235.83,-310 235.83,-316 235.83,-316 235.83,-328 235.83,-328 235.83,-334 229.83,-340 223.83,-340"/>
<text xml:space="preserve" text-anchor="middle" x="130" y="-319" font-family="Helvetica,sans-Serif" font-size="10.00">toHajekLeCam_eq_viaThird_asymGaussian</text>
</a>
</g>
</g>
<!-- n12&#45;&gt;n3 -->
<g id="edge22" class="edge">
<title>n12&#45;&gt;n3</title>
<path fill="none" stroke="#64748b" d="M130.18,-302.56C130.8,-284.29 132.95,-255.69 140,-232 151,-195.06 172.55,-155.92 187.35,-131.48"/>
<polygon fill="#64748b" stroke="#64748b" points="189.34,-132.92 190.92,-125.67 185.17,-130.35 189.34,-132.92"/>
</g>
<!-- n12&#45;&gt;n6 -->
<g id="edge23" class="edge">
<title>n12&#45;&gt;n6</title>
<path fill="none" stroke="#64748b" d="M122.28,-302.73C111.68,-277.64 92.57,-232.43 80.63,-204.16"/>
<polygon fill="#64748b" stroke="#64748b" points="82.89,-203.2 77.91,-197.71 78.37,-205.11 82.89,-203.2"/>
</g>
<!-- n12&#45;&gt;n11 -->
<g id="edge24" class="edge">
<title>n12&#45;&gt;n11</title>
<path fill="none" stroke="#64748b" d="M150.76,-302.61C160.68,-293.82 172.65,-283.21 183.15,-273.9"/>
<polygon fill="#64748b" stroke="#64748b" points="184.72,-275.79 188.34,-269.31 181.47,-272.12 184.72,-275.79"/>
</g>
</g>
</svg>
