<?xml version="1.0" encoding="UTF-8" standalone="no"?>
<!DOCTYPE svg PUBLIC "-//W3C//DTD SVG 1.1//EN"
 "http://www.w3.org/Graphics/SVG/1.1/DTD/svg11.dtd">
<!-- Generated by graphviz version 15.0.0 (20260523.1842)
 -->
<!-- Title: gaussian_log_sobolev_structured_of_tensorization_at Pages: 1 -->
<svg width="568pt" height="555pt"
 viewBox="0.00 0.00 568.00 555.00" xmlns="http://www.w3.org/2000/svg" xmlns:xlink="http://www.w3.org/1999/xlink">
<g id="graph0" class="graph" transform="scale(1 1) rotate(0) translate(4 551.2)">
<title>gaussian_log_sobolev_structured_of_tensorization_at</title>
<polygon fill="white" stroke="none" points="-4,4 -4,-551.2 564,-551.2 564,4 -4,4"/>
<text xml:space="preserve" text-anchor="middle" x="280" y="-530.6" font-family="Helvetica,sans-Serif" font-size="14.00">Proof narrative — gaussian_log_sobolev_structured_of_tensorization_at &#160;(11 decls)</text>
<g id="clust1" class="cluster">
<title>cluster_0</title>
<path fill="none" stroke="#cbd5e1" stroke-dasharray="5,2" d="M20,-8C20,-8 436,-8 436,-8 442,-8 448,-14 448,-20 448,-20 448,-502.4 448,-502.4 448,-508.4 442,-514.4 436,-514.4 436,-514.4 20,-514.4 20,-514.4 14,-514.4 8,-508.4 8,-502.4 8,-502.4 8,-20 8,-20 8,-14 14,-8 20,-8"/>
<text xml:space="preserve" text-anchor="middle" x="228" y="-500.5" font-family="Helvetica,sans-Serif" font-size="11.00">Entropy</text>
</g>
<g id="clust2" class="cluster">
<title>cluster_1</title>
<path fill="none" stroke="#cbd5e1" stroke-dasharray="5,2" d="M468,-8C468,-8 540,-8 540,-8 546,-8 552,-14 552,-20 552,-20 552,-141.2 552,-141.2 552,-147.2 546,-153.2 540,-153.2 540,-153.2 468,-153.2 468,-153.2 462,-153.2 456,-147.2 456,-141.2 456,-141.2 456,-20 456,-20 456,-14 462,-8 468,-8"/>
<text xml:space="preserve" text-anchor="middle" x="504" y="-139.3" font-family="Helvetica,sans-Serif" font-size="11.00">Gaussian</text>
</g>
<!-- n2 -->
<g id="node1" class="node">
<title>n2</title>
<g id="a_node1"><a xlink:href="vscode://vscode-remote/wsl+Ubuntu/home/gavin/statlib/Statlib/Entropy/Basic.lean:68" xlink:title="structure · Statlib/Entropy/Basic.lean:68" target="_blank">
<path fill="#e8dcff" stroke="#8b5cf6" d="M427.7,-413.2C427.7,-413.2 312.3,-413.2 312.3,-413.2 306.3,-413.2 300.3,-407.2 300.3,-401.2 300.3,-401.2 300.3,-389.2 300.3,-389.2 300.3,-383.2 306.3,-377.2 312.3,-377.2 312.3,-377.2 427.7,-377.2 427.7,-377.2 433.7,-377.2 439.7,-383.2 439.7,-389.2 439.7,-389.2 439.7,-401.2 439.7,-401.2 439.7,-407.2 433.7,-413.2 427.7,-413.2"/>
<text xml:space="preserve" text-anchor="middle" x="370" y="-392.2" font-family="Helvetica,sans-Serif" font-size="10.00">GaussianSobolevRegularity</text>
</a>
</g>
</g>
<!-- n1 -->
<g id="node11" class="node">
<title>n1</title>
<g id="a_node11"><a xlink:href="vscode://vscode-remote/wsl+Ubuntu/home/gavin/statlib/Statlib/Gaussian/Basic.lean:32" xlink:title="def · Statlib/Gaussian/Basic.lean:32" target="_blank">
<path fill="#d6e9ff" stroke="#3b82f6" d="M532.24,-124C532.24,-124 475.76,-124 475.76,-124 469.76,-124 463.76,-118 463.76,-112 463.76,-112 463.76,-100 463.76,-100 463.76,-94 469.76,-88 475.76,-88 475.76,-88 532.24,-88 532.24,-88 538.24,-88 544.24,-94 544.24,-100 544.24,-100 544.24,-112 544.24,-112 544.24,-118 538.24,-124 532.24,-124"/>
<text xml:space="preserve" text-anchor="middle" x="504" y="-103" font-family="Helvetica,sans-Serif" font-size="10.00">stdGaussianPi</text>
</a>
</g>
</g>
<!-- n2&#45;&gt;n1 -->
<g id="edge2" class="edge">
<title>n2&#45;&gt;n1</title>
<path fill="none" stroke="#64748b" d="M377.98,-377.09C400.69,-328.42 465.74,-189.01 492.39,-131.88"/>
<polygon fill="#64748b" stroke="#64748b" points="494.51,-133.13 495.25,-125.75 490.07,-131.06 494.51,-133.13"/>
</g>
<!-- n3 -->
<g id="node2" class="node">
<title>n3</title>
<g id="a_node2"><a xlink:href="vscode://vscode-remote/wsl+Ubuntu/home/gavin/statlib/Statlib/Entropy/Basic.lean:31" xlink:title="def · Statlib/Entropy/Basic.lean:31" target="_blank">
<path fill="#d6e9ff" stroke="#3b82f6" d="M72,-52C72,-52 42,-52 42,-52 36,-52 30,-46 30,-40 30,-40 30,-28 30,-28 30,-22 36,-16 42,-16 42,-16 72,-16 72,-16 78,-16 84,-22 84,-28 84,-28 84,-40 84,-40 84,-46 78,-52 72,-52"/>
<text xml:space="preserve" text-anchor="middle" x="57" y="-31" font-family="Helvetica,sans-Serif" font-size="10.00">entropy</text>
</a>
</g>
</g>
<!-- n4 -->
<g id="node3" class="node">
<title>n4</title>
<g id="a_node3"><a xlink:href="vscode://vscode-remote/wsl+Ubuntu/home/gavin/statlib/Statlib/Entropy/Basic.lean:42" xlink:title="def · Statlib/Entropy/Basic.lean:42" target="_blank">
<path fill="#d6e9ff" stroke="#3b82f6" d="M79.4,-124C79.4,-124 34.6,-124 34.6,-124 28.6,-124 22.6,-118 22.6,-112 22.6,-112 22.6,-100 22.6,-100 22.6,-94 28.6,-88 34.6,-88 34.6,-88 79.4,-88 79.4,-88 85.4,-88 91.4,-94 91.4,-100 91.4,-100 91.4,-112 91.4,-112 91.4,-118 85.4,-124 79.4,-124"/>
<text xml:space="preserve" text-anchor="middle" x="57" y="-103" font-family="Helvetica,sans-Serif" font-size="10.00">SatisfiesLSI</text>
</a>
</g>
</g>
<!-- n4&#45;&gt;n3 -->
<g id="edge3" class="edge">
<title>n4&#45;&gt;n3</title>
<path fill="none" stroke="#64748b" d="M57,-87.7C57,-79.47 57,-69.48 57,-60.42"/>
<polygon fill="#64748b" stroke="#64748b" points="59.45,-60.62 57,-53.62 54.55,-60.62 59.45,-60.62"/>
</g>
<!-- n5 -->
<g id="node4" class="node">
<title>n5</title>
<g id="a_node4"><a xlink:href="vscode://vscode-remote/wsl+Ubuntu/home/gavin/statlib/Statlib/Entropy/Basic.lean:35" xlink:title="def · Statlib/Entropy/Basic.lean:35" target="_blank">
<path fill="#d6e9ff" stroke="#3b82f6" d="M180.12,-124C180.12,-124 145.88,-124 145.88,-124 139.88,-124 133.88,-118 133.88,-112 133.88,-112 133.88,-100 133.88,-100 133.88,-94 139.88,-88 145.88,-88 145.88,-88 180.12,-88 180.12,-88 186.12,-88 192.12,-94 192.12,-100 192.12,-100 192.12,-112 192.12,-112 192.12,-118 186.12,-124 180.12,-124"/>
<text xml:space="preserve" text-anchor="middle" x="163" y="-103" font-family="Helvetica,sans-Serif" font-size="10.00">entropyPi</text>
</a>
</g>
</g>
<!-- n6 -->
<g id="node5" class="node">
<title>n6</title>
<g id="a_node5"><a xlink:href="vscode://vscode-remote/wsl+Ubuntu/home/gavin/statlib/Statlib/Entropy/Basic.lean:52" xlink:title="def · Statlib/Entropy/Basic.lean:52" target="_blank">
<path fill="#d6e9ff" stroke="#3b82f6" d="M270.24,-197.2C270.24,-197.2 193.76,-197.2 193.76,-197.2 187.76,-197.2 181.76,-191.2 181.76,-185.2 181.76,-185.2 181.76,-173.2 181.76,-173.2 181.76,-167.2 187.76,-161.2 193.76,-161.2 193.76,-161.2 270.24,-161.2 270.24,-161.2 276.24,-161.2 282.24,-167.2 282.24,-173.2 282.24,-173.2 282.24,-185.2 282.24,-185.2 282.24,-191.2 276.24,-197.2 270.24,-197.2"/>
<text xml:space="preserve" text-anchor="middle" x="232" y="-176.2" font-family="Helvetica,sans-Serif" font-size="10.00">TensorizationLSIAt</text>
</a>
</g>
</g>
<!-- n6&#45;&gt;n4 -->
<g id="edge4" class="edge">
<title>n6&#45;&gt;n4</title>
<path fill="none" stroke="#64748b" d="M181.5,-170.37C163.23,-166.51 142.73,-160.97 125,-153.2 110.9,-147.02 96.62,-137.85 84.8,-129.3"/>
<polygon fill="#64748b" stroke="#64748b" points="86.45,-127.47 79.37,-125.27 83.53,-131.41 86.45,-127.47"/>
</g>
<!-- n6&#45;&gt;n5 -->
<g id="edge7" class="edge">
<title>n6&#45;&gt;n5</title>
<path fill="none" stroke="#64748b" d="M215.3,-160.96C206.31,-151.69 195.11,-140.14 185.38,-130.1"/>
<polygon fill="#64748b" stroke="#64748b" points="187.23,-128.49 180.6,-125.16 183.71,-131.9 187.23,-128.49"/>
</g>
<!-- n0 -->
<g id="node10" class="node">
<title>n0</title>
<g id="a_node10"><a xlink:href="vscode://vscode-remote/wsl+Ubuntu/home/gavin/statlib/Statlib/Gaussian/Basic.lean:29" xlink:title="abbrev · Statlib/Gaussian/Basic.lean:29" target="_blank">
<path fill="#d6e9ff" stroke="#3b82f6" d="M525.79,-52C525.79,-52 478.21,-52 478.21,-52 472.21,-52 466.21,-46 466.21,-40 466.21,-40 466.21,-28 466.21,-28 466.21,-22 472.21,-16 478.21,-16 478.21,-16 525.79,-16 525.79,-16 531.79,-16 537.79,-22 537.79,-28 537.79,-28 537.79,-40 537.79,-40 537.79,-46 531.79,-52 525.79,-52"/>
<text xml:space="preserve" text-anchor="middle" x="502" y="-31" font-family="Helvetica,sans-Serif" font-size="10.00">stdGaussian</text>
</a>
</g>
</g>
<!-- n6&#45;&gt;n0 -->
<g id="edge5" class="edge">
<title>n6&#45;&gt;n0</title>
<path fill="none" stroke="#64748b" d="M264.84,-160.78C314.5,-134.44 408.59,-84.54 462.12,-56.15"/>
<polygon fill="#64748b" stroke="#64748b" points="463.02,-58.45 468.05,-53 460.72,-54.12 463.02,-58.45"/>
</g>
<!-- n6&#45;&gt;n1 -->
<g id="edge6" class="edge">
<title>n6&#45;&gt;n1</title>
<path fill="none" stroke="#64748b" d="M282.64,-174.07C342.78,-168.91 436.91,-159.94 452,-153.2 463.83,-147.92 474.87,-138.96 483.71,-130.32"/>
<polygon fill="#64748b" stroke="#64748b" points="485.26,-132.24 488.41,-125.53 481.76,-128.82 485.26,-132.24"/>
</g>
<!-- n7 -->
<g id="node6" class="node">
<title>n7</title>
<g id="a_node6"><a xlink:href="vscode://vscode-remote/wsl+Ubuntu/home/gavin/statlib/Statlib/Entropy/LogSobolev.lean:3037" xlink:title="theorem · Statlib/Entropy/LogSobolev.lean:3037" target="_blank">
<path fill="#ffe6a3" stroke="#d4a017" d="M171.85,-269.2C171.85,-269.2 108.15,-269.2 108.15,-269.2 102.15,-269.2 96.15,-263.2 96.15,-257.2 96.15,-257.2 96.15,-245.2 96.15,-245.2 96.15,-239.2 102.15,-233.2 108.15,-233.2 108.15,-233.2 171.85,-233.2 171.85,-233.2 177.85,-233.2 183.85,-239.2 183.85,-245.2 183.85,-245.2 183.85,-257.2 183.85,-257.2 183.85,-263.2 177.85,-269.2 171.85,-269.2"/>
<text xml:space="preserve" text-anchor="middle" x="140" y="-248.2" font-family="Helvetica,sans-Serif" font-size="10.00">tensorization_lsi</text>
</a>
</g>
</g>
<!-- n7&#45;&gt;n4 -->
<g id="edge8" class="edge">
<title>n7&#45;&gt;n4</title>
<path fill="none" stroke="#64748b" d="M129.99,-232.93C115.34,-207.66 88.01,-160.5 71.27,-131.61"/>
<polygon fill="#64748b" stroke="#64748b" points="73.44,-130.47 67.81,-125.64 69.2,-132.93 73.44,-130.47"/>
</g>
<!-- n7&#45;&gt;n5 -->
<g id="edge10" class="edge">
<title>n7&#45;&gt;n5</title>
<path fill="none" stroke="#64748b" d="M142.77,-232.93C146.78,-207.98 154.21,-161.7 158.87,-132.73"/>
<polygon fill="#64748b" stroke="#64748b" points="161.28,-133.13 159.98,-125.83 156.45,-132.35 161.28,-133.13"/>
</g>
<!-- n7&#45;&gt;n6 -->
<g id="edge9" class="edge">
<title>n7&#45;&gt;n6</title>
<path fill="none" stroke="#64748b" d="M162.74,-232.9C174.79,-223.73 189.74,-212.36 202.66,-202.53"/>
<polygon fill="#64748b" stroke="#64748b" points="203.91,-204.65 208,-198.46 200.94,-200.75 203.91,-204.65"/>
</g>
<!-- n8 -->
<g id="node7" class="node">
<title>n8</title>
<g id="a_node7"><a xlink:href="vscode://vscode-remote/wsl+Ubuntu/home/gavin/statlib/Statlib/Entropy/LogSobolev.lean:3051" xlink:title="theorem · Statlib/Entropy/LogSobolev.lean:3051" target="_blank">
<path fill="#ffe6a3" stroke="#d4a017" d="M199.75,-341.2C199.75,-341.2 108.25,-341.2 108.25,-341.2 102.25,-341.2 96.25,-335.2 96.25,-329.2 96.25,-329.2 96.25,-317.2 96.25,-317.2 96.25,-311.2 102.25,-305.2 108.25,-305.2 108.25,-305.2 199.75,-305.2 199.75,-305.2 205.75,-305.2 211.75,-311.2 211.75,-317.2 211.75,-317.2 211.75,-329.2 211.75,-329.2 211.75,-335.2 205.75,-341.2 199.75,-341.2"/>
<text xml:space="preserve" text-anchor="middle" x="154" y="-320.2" font-family="Helvetica,sans-Serif" font-size="10.00">tensorization_lsi_of_at</text>
</a>
</g>
</g>
<!-- n8&#45;&gt;n4 -->
<g id="edge11" class="edge">
<title>n8&#45;&gt;n4</title>
<path fill="none" stroke="#64748b" d="M123.08,-304.74C109.97,-295.78 95.72,-283.68 87,-269.2 61.23,-226.42 56.65,-166.64 56.35,-132.89"/>
<polygon fill="#64748b" stroke="#64748b" points="58.8,-133.01 56.35,-126 53.9,-133 58.8,-133.01"/>
</g>
<!-- n8&#45;&gt;n5 -->
<g id="edge13" class="edge">
<title>n8&#45;&gt;n5</title>
<path fill="none" stroke="#64748b" d="M171.3,-304.72C179.59,-295.1 188.65,-282.44 193,-269.2 197.99,-254 197.01,-248.69 193,-233.2 188.41,-215.48 178.56,-214.64 173,-197.2 166.29,-176.17 163.93,-151.15 163.17,-132.8"/>
<polygon fill="#64748b" stroke="#64748b" points="165.62,-132.81 162.96,-125.89 160.72,-132.96 165.62,-132.81"/>
</g>
<!-- n8&#45;&gt;n6 -->
<g id="edge12" class="edge">
<title>n8&#45;&gt;n6</title>
<path fill="none" stroke="#64748b" d="M176.79,-304.74C187.68,-295.3 200.04,-282.81 208,-269.2 219.44,-249.64 225.56,-224.49 228.76,-205.92"/>
<polygon fill="#64748b" stroke="#64748b" points="231.16,-206.43 229.83,-199.14 226.32,-205.67 231.16,-206.43"/>
</g>
<!-- n8&#45;&gt;n7 -->
<g id="edge14" class="edge">
<title>n8&#45;&gt;n7</title>
<path fill="none" stroke="#64748b" d="M150.54,-304.9C148.89,-296.67 146.9,-286.68 145.08,-277.62"/>
<polygon fill="#64748b" stroke="#64748b" points="147.49,-277.17 143.72,-270.79 142.69,-278.13 147.49,-277.17"/>
</g>
<!-- n9 -->
<g id="node8" class="node">
<title>n9</title>
<g id="a_node8"><a xlink:href="vscode://vscode-remote/wsl+Ubuntu/home/gavin/statlib/Statlib/Entropy/LogSobolev.lean:3070" xlink:title="theorem · Statlib/Entropy/LogSobolev.lean:3070" target="_blank">
<path fill="#ffe6a3" stroke="#d4a017" d="M229.51,-413.2C229.51,-413.2 48.49,-413.2 48.49,-413.2 42.49,-413.2 36.49,-407.2 36.49,-401.2 36.49,-401.2 36.49,-389.2 36.49,-389.2 36.49,-383.2 42.49,-377.2 48.49,-377.2 48.49,-377.2 229.51,-377.2 229.51,-377.2 235.51,-377.2 241.51,-383.2 241.51,-389.2 241.51,-389.2 241.51,-401.2 241.51,-401.2 241.51,-407.2 235.51,-413.2 229.51,-413.2"/>
<text xml:space="preserve" text-anchor="middle" x="139" y="-392.2" font-family="Helvetica,sans-Serif" font-size="10.00">gaussian_log_sobolev_of_tensorization_at</text>
</a>
</g>
</g>
<!-- n9&#45;&gt;n4 -->
<g id="edge15" class="edge">
<title>n9&#45;&gt;n4</title>
<path fill="none" stroke="#64748b" d="M107.34,-376.73C94.24,-367.84 80.22,-355.8 72,-341.2 34.14,-273.97 44.08,-178.05 51.83,-132.67"/>
<polygon fill="#64748b" stroke="#64748b" points="54.24,-133.11 53.06,-125.78 49.41,-132.24 54.24,-133.11"/>
</g>
<!-- n9&#45;&gt;n5 -->
<g id="edge17" class="edge">
<title>n9&#45;&gt;n5</title>
<path fill="none" stroke="#64748b" d="M114.98,-376.88C104.25,-367.64 92.75,-355.28 87,-341.2 68.84,-296.77 74.15,-279.45 87,-233.2 97.84,-194.17 124.36,-155.14 143,-131.04"/>
<polygon fill="#64748b" stroke="#64748b" points="144.92,-132.55 147.33,-125.54 141.08,-129.52 144.92,-132.55"/>
</g>
<!-- n9&#45;&gt;n6 -->
<g id="edge16" class="edge">
<title>n9&#45;&gt;n6</title>
<path fill="none" stroke="#64748b" d="M181.07,-376.88C196.25,-368.43 211.88,-356.68 221,-341.2 245.81,-299.1 241.92,-239.64 236.92,-206.01"/>
<polygon fill="#64748b" stroke="#64748b" points="239.35,-205.66 235.81,-199.14 234.51,-206.44 239.35,-205.66"/>
</g>
<!-- n9&#45;&gt;n8 -->
<g id="edge18" class="edge">
<title>n9&#45;&gt;n8</title>
<path fill="none" stroke="#64748b" d="M142.71,-376.9C144.47,-368.67 146.61,-358.68 148.55,-349.62"/>
<polygon fill="#64748b" stroke="#64748b" points="150.95,-350.14 150.02,-342.78 146.16,-349.12 150.95,-350.14"/>
</g>
<!-- n10 -->
<g id="node9" class="node">
<title>n10</title>
<g id="a_node9"><a xlink:href="vscode://vscode-remote/wsl+Ubuntu/home/gavin/statlib/Statlib/Entropy/LogSobolev.lean:3097" xlink:title="theorem · Statlib/Entropy/LogSobolev.lean:3097" target="_blank">
<path fill="#ffe6a3" stroke="#d4a017" stroke-width="3" d="M376.53,-485.2C376.53,-485.2 145.47,-485.2 145.47,-485.2 139.47,-485.2 133.47,-479.2 133.47,-473.2 133.47,-473.2 133.47,-461.2 133.47,-461.2 133.47,-455.2 139.47,-449.2 145.47,-449.2 145.47,-449.2 376.53,-449.2 376.53,-449.2 382.53,-449.2 388.53,-455.2 388.53,-461.2 388.53,-461.2 388.53,-473.2 388.53,-473.2 388.53,-479.2 382.53,-485.2 376.53,-485.2"/>
<text xml:space="preserve" text-anchor="middle" x="261" y="-464.2" font-family="Helvetica,sans-Serif" font-size="10.00">gaussian_log_sobolev_structured_of_tensorization_at</text>
</a>
</g>
</g>
<!-- n10&#45;&gt;n2 -->
<g id="edge19" class="edge">
<title>n10&#45;&gt;n2</title>
<path fill="none" stroke="#64748b" d="M289.64,-447.81C303.84,-438.69 321.09,-427.61 335.97,-418.06"/>
<polygon fill="#64748b" stroke="#64748b" points="337.21,-420.17 341.78,-414.32 334.56,-416.05 337.21,-420.17"/>
</g>
<!-- n10&#45;&gt;n4 -->
<g id="edge20" class="edge">
<title>n10&#45;&gt;n4</title>
<path fill="none" stroke="#64748b" d="M132.16,-450.4C86.19,-442.07 42.03,-430 27,-413.2 0.46,-383.54 17,-364 17,-324.2 17,-324.2 17,-324.2 17,-250.2 17,-207.44 33.75,-160.06 45.57,-131.94"/>
<polygon fill="#64748b" stroke="#64748b" points="47.79,-132.99 48.31,-125.59 43.29,-131.05 47.79,-132.99"/>
</g>
<!-- n10&#45;&gt;n5 -->
<g id="edge22" class="edge">
<title>n10&#45;&gt;n5</title>
<path fill="none" stroke="#64748b" d="M265.7,-448.1C280.35,-389.9 322.44,-208.66 291,-161.2 271.08,-131.13 230.8,-117.7 200.71,-111.73"/>
<polygon fill="#64748b" stroke="#64748b" points="201.34,-109.35 194.01,-110.5 200.46,-114.17 201.34,-109.35"/>
</g>
<!-- n10&#45;&gt;n6 -->
<g id="edge21" class="edge">
<title>n10&#45;&gt;n6</title>
<path fill="none" stroke="#64748b" d="M260.81,-447.95C260.17,-408.53 257.36,-312.53 245,-233.2 243.56,-223.98 241.31,-214 239.08,-205.22"/>
<polygon fill="#64748b" stroke="#64748b" points="241.51,-204.84 237.36,-198.7 236.77,-206.09 241.51,-204.84"/>
</g>
<!-- n10&#45;&gt;n9 -->
<g id="edge23" class="edge">
<title>n10&#45;&gt;n9</title>
<path fill="none" stroke="#64748b" d="M228.95,-447.81C212.76,-438.52 193.04,-427.21 176.19,-417.54"/>
<polygon fill="#64748b" stroke="#64748b" points="177.77,-415.62 170.47,-414.26 175.33,-419.87 177.77,-415.62"/>
</g>
<!-- n1&#45;&gt;n0 -->
<g id="edge1" class="edge">
<title>n1&#45;&gt;n0</title>
<path fill="none" stroke="#64748b" d="M503.51,-87.7C503.27,-79.47 502.99,-69.48 502.73,-60.42"/>
<polygon fill="#64748b" stroke="#64748b" points="505.18,-60.54 502.53,-53.62 500.28,-60.68 505.18,-60.54"/>
</g>
</g>
</svg>
