<?xml version="1.0" encoding="UTF-8" standalone="no"?>
<!DOCTYPE svg PUBLIC "-//W3C//DTD SVG 1.1//EN"
 "http://www.w3.org/Graphics/SVG/1.1/DTD/svg11.dtd">
<!-- Generated by graphviz version 15.0.0 (20260523.1842)
 -->
<!-- Title: gaussian_log_sobolev_structured_of_universal_tensorization Pages: 1 -->
<svg width="650pt" height="627pt"
 viewBox="0.00 0.00 650.00 627.00" xmlns="http://www.w3.org/2000/svg" xmlns:xlink="http://www.w3.org/1999/xlink">
<g id="graph0" class="graph" transform="scale(1 1) rotate(0) translate(4 623.2)">
<title>gaussian_log_sobolev_structured_of_universal_tensorization</title>
<polygon fill="white" stroke="none" points="-4,4 -4,-623.2 646,-623.2 646,4 -4,4"/>
<text xml:space="preserve" text-anchor="middle" x="321" y="-602.6" font-family="Helvetica,sans-Serif" font-size="14.00">Proof narrative — gaussian_log_sobolev_structured_of_universal_tensorization &#160;(14 decls)</text>
<g id="clust1" class="cluster">
<title>cluster_0</title>
<path fill="none" stroke="#cbd5e1" stroke-dasharray="5,2" d="M20,-8C20,-8 518,-8 518,-8 524,-8 530,-14 530,-20 530,-20 530,-574.4 530,-574.4 530,-580.4 524,-586.4 518,-586.4 518,-586.4 20,-586.4 20,-586.4 14,-586.4 8,-580.4 8,-574.4 8,-574.4 8,-20 8,-20 8,-14 14,-8 20,-8"/>
<text xml:space="preserve" text-anchor="middle" x="269" y="-572.5" font-family="Helvetica,sans-Serif" font-size="11.00">Entropy</text>
</g>
<g id="clust2" class="cluster">
<title>cluster_1</title>
<path fill="none" stroke="#cbd5e1" stroke-dasharray="5,2" d="M550,-8C550,-8 622,-8 622,-8 628,-8 634,-14 634,-20 634,-20 634,-141.2 634,-141.2 634,-147.2 628,-153.2 622,-153.2 622,-153.2 550,-153.2 550,-153.2 544,-153.2 538,-147.2 538,-141.2 538,-141.2 538,-20 538,-20 538,-14 544,-8 550,-8"/>
<text xml:space="preserve" text-anchor="middle" x="586" y="-139.3" font-family="Helvetica,sans-Serif" font-size="11.00">Gaussian</text>
</g>
<!-- n2 -->
<g id="node1" class="node">
<title>n2</title>
<g id="a_node1"><a xlink:href="vscode://vscode-remote/wsl+Ubuntu/home/gavin/statlib/Statlib/Entropy/Basic.lean:68" xlink:title="structure · Statlib/Entropy/Basic.lean:68" target="_blank">
<path fill="#e8dcff" stroke="#8b5cf6" d="M509.7,-485.2C509.7,-485.2 394.3,-485.2 394.3,-485.2 388.3,-485.2 382.3,-479.2 382.3,-473.2 382.3,-473.2 382.3,-461.2 382.3,-461.2 382.3,-455.2 388.3,-449.2 394.3,-449.2 394.3,-449.2 509.7,-449.2 509.7,-449.2 515.7,-449.2 521.7,-455.2 521.7,-461.2 521.7,-461.2 521.7,-473.2 521.7,-473.2 521.7,-479.2 515.7,-485.2 509.7,-485.2"/>
<text xml:space="preserve" text-anchor="middle" x="452" y="-464.2" font-family="Helvetica,sans-Serif" font-size="10.00">GaussianSobolevRegularity</text>
</a>
</g>
</g>
<!-- n1 -->
<g id="node14" class="node">
<title>n1</title>
<g id="a_node14"><a xlink:href="vscode://vscode-remote/wsl+Ubuntu/home/gavin/statlib/Statlib/Gaussian/Basic.lean:32" xlink:title="def · Statlib/Gaussian/Basic.lean:32" target="_blank">
<path fill="#d6e9ff" stroke="#3b82f6" d="M614.24,-124C614.24,-124 557.76,-124 557.76,-124 551.76,-124 545.76,-118 545.76,-112 545.76,-112 545.76,-100 545.76,-100 545.76,-94 551.76,-88 557.76,-88 557.76,-88 614.24,-88 614.24,-88 620.24,-88 626.24,-94 626.24,-100 626.24,-100 626.24,-112 626.24,-112 626.24,-118 620.24,-124 614.24,-124"/>
<text xml:space="preserve" text-anchor="middle" x="586" y="-103" font-family="Helvetica,sans-Serif" font-size="10.00">stdGaussianPi</text>
</a>
</g>
</g>
<!-- n2&#45;&gt;n1 -->
<g id="edge2" class="edge">
<title>n2&#45;&gt;n1</title>
<path fill="none" stroke="#64748b" d="M480.08,-448.87C514.41,-425.28 568,-379.59 568,-324.2 568,-324.2 568,-324.2 568,-250.2 568,-208.64 575.55,-160.83 580.88,-132.31"/>
<polygon fill="#64748b" stroke="#64748b" points="583.25,-132.93 582.16,-125.59 578.44,-132.01 583.25,-132.93"/>
</g>
<!-- n3 -->
<g id="node2" class="node">
<title>n3</title>
<g id="a_node2"><a xlink:href="vscode://vscode-remote/wsl+Ubuntu/home/gavin/statlib/Statlib/Entropy/Basic.lean:31" xlink:title="def · Statlib/Entropy/Basic.lean:31" target="_blank">
<path fill="#d6e9ff" stroke="#3b82f6" d="M111,-52C111,-52 81,-52 81,-52 75,-52 69,-46 69,-40 69,-40 69,-28 69,-28 69,-22 75,-16 81,-16 81,-16 111,-16 111,-16 117,-16 123,-22 123,-28 123,-28 123,-40 123,-40 123,-46 117,-52 111,-52"/>
<text xml:space="preserve" text-anchor="middle" x="96" y="-31" font-family="Helvetica,sans-Serif" font-size="10.00">entropy</text>
</a>
</g>
</g>
<!-- n4 -->
<g id="node3" class="node">
<title>n4</title>
<g id="a_node3"><a xlink:href="vscode://vscode-remote/wsl+Ubuntu/home/gavin/statlib/Statlib/Entropy/Basic.lean:42" xlink:title="def · Statlib/Entropy/Basic.lean:42" target="_blank">
<path fill="#d6e9ff" stroke="#3b82f6" d="M118.4,-124C118.4,-124 73.6,-124 73.6,-124 67.6,-124 61.6,-118 61.6,-112 61.6,-112 61.6,-100 61.6,-100 61.6,-94 67.6,-88 73.6,-88 73.6,-88 118.4,-88 118.4,-88 124.4,-88 130.4,-94 130.4,-100 130.4,-100 130.4,-112 130.4,-112 130.4,-118 124.4,-124 118.4,-124"/>
<text xml:space="preserve" text-anchor="middle" x="96" y="-103" font-family="Helvetica,sans-Serif" font-size="10.00">SatisfiesLSI</text>
</a>
</g>
</g>
<!-- n4&#45;&gt;n3 -->
<g id="edge3" class="edge">
<title>n4&#45;&gt;n3</title>
<path fill="none" stroke="#64748b" d="M96,-87.7C96,-79.47 96,-69.48 96,-60.42"/>
<polygon fill="#64748b" stroke="#64748b" points="98.45,-60.62 96,-53.62 93.55,-60.62 98.45,-60.62"/>
</g>
<!-- n5 -->
<g id="node4" class="node">
<title>n5</title>
<g id="a_node4"><a xlink:href="vscode://vscode-remote/wsl+Ubuntu/home/gavin/statlib/Statlib/Entropy/Basic.lean:35" xlink:title="def · Statlib/Entropy/Basic.lean:35" target="_blank">
<path fill="#d6e9ff" stroke="#3b82f6" d="M221.12,-124C221.12,-124 186.88,-124 186.88,-124 180.88,-124 174.88,-118 174.88,-112 174.88,-112 174.88,-100 174.88,-100 174.88,-94 180.88,-88 186.88,-88 186.88,-88 221.12,-88 221.12,-88 227.12,-88 233.12,-94 233.12,-100 233.12,-100 233.12,-112 233.12,-112 233.12,-118 227.12,-124 221.12,-124"/>
<text xml:space="preserve" text-anchor="middle" x="204" y="-103" font-family="Helvetica,sans-Serif" font-size="10.00">entropyPi</text>
</a>
</g>
</g>
<!-- n6 -->
<g id="node5" class="node">
<title>n6</title>
<g id="a_node5"><a xlink:href="vscode://vscode-remote/wsl+Ubuntu/home/gavin/statlib/Statlib/Entropy/Basic.lean:52" xlink:title="def · Statlib/Entropy/Basic.lean:52" target="_blank">
<path fill="#d6e9ff" stroke="#3b82f6" d="M326.24,-197.2C326.24,-197.2 249.76,-197.2 249.76,-197.2 243.76,-197.2 237.76,-191.2 237.76,-185.2 237.76,-185.2 237.76,-173.2 237.76,-173.2 237.76,-167.2 243.76,-161.2 249.76,-161.2 249.76,-161.2 326.24,-161.2 326.24,-161.2 332.24,-161.2 338.24,-167.2 338.24,-173.2 338.24,-173.2 338.24,-185.2 338.24,-185.2 338.24,-191.2 332.24,-197.2 326.24,-197.2"/>
<text xml:space="preserve" text-anchor="middle" x="288" y="-176.2" font-family="Helvetica,sans-Serif" font-size="10.00">TensorizationLSIAt</text>
</a>
</g>
</g>
<!-- n6&#45;&gt;n4 -->
<g id="edge4" class="edge">
<title>n6&#45;&gt;n4</title>
<path fill="none" stroke="#64748b" d="M237.45,-172.27C214.99,-168.52 188.57,-162.55 166,-153.2 151.38,-147.14 136.56,-137.9 124.34,-129.27"/>
<polygon fill="#64748b" stroke="#64748b" points="125.8,-127.31 118.7,-125.18 122.93,-131.27 125.8,-127.31"/>
</g>
<!-- n6&#45;&gt;n5 -->
<g id="edge7" class="edge">
<title>n6&#45;&gt;n5</title>
<path fill="none" stroke="#64748b" d="M267.67,-160.96C256.6,-151.59 242.78,-139.87 230.85,-129.75"/>
<polygon fill="#64748b" stroke="#64748b" points="232.52,-127.96 225.59,-125.3 229.35,-131.7 232.52,-127.96"/>
</g>
<!-- n0 -->
<g id="node13" class="node">
<title>n0</title>
<g id="a_node13"><a xlink:href="vscode://vscode-remote/wsl+Ubuntu/home/gavin/statlib/Statlib/Gaussian/Basic.lean:29" xlink:title="abbrev · Statlib/Gaussian/Basic.lean:29" target="_blank">
<path fill="#d6e9ff" stroke="#3b82f6" d="M607.79,-52C607.79,-52 560.21,-52 560.21,-52 554.21,-52 548.21,-46 548.21,-40 548.21,-40 548.21,-28 548.21,-28 548.21,-22 554.21,-16 560.21,-16 560.21,-16 607.79,-16 607.79,-16 613.79,-16 619.79,-22 619.79,-28 619.79,-28 619.79,-40 619.79,-40 619.79,-46 613.79,-52 607.79,-52"/>
<text xml:space="preserve" text-anchor="middle" x="584" y="-31" font-family="Helvetica,sans-Serif" font-size="10.00">stdGaussian</text>
</a>
</g>
</g>
<!-- n6&#45;&gt;n0 -->
<g id="edge5" class="edge">
<title>n6&#45;&gt;n0</title>
<path fill="none" stroke="#64748b" d="M324,-160.78C378.56,-134.39 482.01,-84.34 540.63,-55.98"/>
<polygon fill="#64748b" stroke="#64748b" points="541.65,-58.21 546.89,-52.95 539.52,-53.8 541.65,-58.21"/>
</g>
<!-- n6&#45;&gt;n1 -->
<g id="edge6" class="edge">
<title>n6&#45;&gt;n1</title>
<path fill="none" stroke="#64748b" d="M338.62,-176.71C400.19,-174.26 500.1,-168.09 534,-153.2 546.04,-147.91 557.24,-138.77 566.14,-130"/>
<polygon fill="#64748b" stroke="#64748b" points="567.75,-131.86 570.87,-125.13 564.24,-128.45 567.75,-131.86"/>
</g>
<!-- n7 -->
<g id="node6" class="node">
<title>n7</title>
<g id="a_node6"><a xlink:href="vscode://vscode-remote/wsl+Ubuntu/home/gavin/statlib/Statlib/Entropy/Basic.lean:64" xlink:title="def · Statlib/Entropy/Basic.lean:64" target="_blank">
<path fill="#d6e9ff" stroke="#3b82f6" d="M486.36,-341.2C486.36,-341.2 377.64,-341.2 377.64,-341.2 371.64,-341.2 365.64,-335.2 365.64,-329.2 365.64,-329.2 365.64,-317.2 365.64,-317.2 365.64,-311.2 371.64,-305.2 377.64,-305.2 377.64,-305.2 486.36,-305.2 486.36,-305.2 492.36,-305.2 498.36,-311.2 498.36,-317.2 498.36,-317.2 498.36,-329.2 498.36,-329.2 498.36,-335.2 492.36,-341.2 486.36,-341.2"/>
<text xml:space="preserve" text-anchor="middle" x="432" y="-320.2" font-family="Helvetica,sans-Serif" font-size="10.00">UniversalTensorizationLSI</text>
</a>
</g>
</g>
<!-- n7&#45;&gt;n6 -->
<g id="edge8" class="edge">
<title>n7&#45;&gt;n6</title>
<path fill="none" stroke="#64748b" d="M414.34,-304.79C388.4,-279.21 339.95,-231.43 311.18,-203.06"/>
<polygon fill="#64748b" stroke="#64748b" points="313.13,-201.54 306.43,-198.37 309.69,-205.03 313.13,-201.54"/>
</g>
<!-- n8 -->
<g id="node7" class="node">
<title>n8</title>
<g id="a_node7"><a xlink:href="vscode://vscode-remote/wsl+Ubuntu/home/gavin/statlib/Statlib/Entropy/LogSobolev.lean:3037" xlink:title="theorem · Statlib/Entropy/LogSobolev.lean:3037" target="_blank">
<path fill="#ffe6a3" stroke="#d4a017" d="M211.85,-269.2C211.85,-269.2 148.15,-269.2 148.15,-269.2 142.15,-269.2 136.15,-263.2 136.15,-257.2 136.15,-257.2 136.15,-245.2 136.15,-245.2 136.15,-239.2 142.15,-233.2 148.15,-233.2 148.15,-233.2 211.85,-233.2 211.85,-233.2 217.85,-233.2 223.85,-239.2 223.85,-245.2 223.85,-245.2 223.85,-257.2 223.85,-257.2 223.85,-263.2 217.85,-269.2 211.85,-269.2"/>
<text xml:space="preserve" text-anchor="middle" x="180" y="-248.2" font-family="Helvetica,sans-Serif" font-size="10.00">tensorization_lsi</text>
</a>
</g>
</g>
<!-- n8&#45;&gt;n4 -->
<g id="edge9" class="edge">
<title>n8&#45;&gt;n4</title>
<path fill="none" stroke="#64748b" d="M169.87,-232.93C155.05,-207.66 127.38,-160.5 110.44,-131.61"/>
<polygon fill="#64748b" stroke="#64748b" points="112.59,-130.44 106.93,-125.64 108.36,-132.92 112.59,-130.44"/>
</g>
<!-- n8&#45;&gt;n5 -->
<g id="edge11" class="edge">
<title>n8&#45;&gt;n5</title>
<path fill="none" stroke="#64748b" d="M182.89,-232.93C187.08,-207.98 194.83,-161.7 199.69,-132.73"/>
<polygon fill="#64748b" stroke="#64748b" points="202.1,-133.14 200.84,-125.83 197.27,-132.33 202.1,-133.14"/>
</g>
<!-- n8&#45;&gt;n6 -->
<g id="edge10" class="edge">
<title>n8&#45;&gt;n6</title>
<path fill="none" stroke="#64748b" d="M206.97,-232.72C221.39,-223.38 239.26,-211.79 254.55,-201.88"/>
<polygon fill="#64748b" stroke="#64748b" points="255.56,-204.15 260.1,-198.28 252.89,-200.04 255.56,-204.15"/>
</g>
<!-- n9 -->
<g id="node8" class="node">
<title>n9</title>
<g id="a_node8"><a xlink:href="vscode://vscode-remote/wsl+Ubuntu/home/gavin/statlib/Statlib/Entropy/LogSobolev.lean:3051" xlink:title="theorem · Statlib/Entropy/LogSobolev.lean:3051" target="_blank">
<path fill="#ffe6a3" stroke="#d4a017" d="M225.75,-341.2C225.75,-341.2 134.25,-341.2 134.25,-341.2 128.25,-341.2 122.25,-335.2 122.25,-329.2 122.25,-329.2 122.25,-317.2 122.25,-317.2 122.25,-311.2 128.25,-305.2 134.25,-305.2 134.25,-305.2 225.75,-305.2 225.75,-305.2 231.75,-305.2 237.75,-311.2 237.75,-317.2 237.75,-317.2 237.75,-329.2 237.75,-329.2 237.75,-335.2 231.75,-341.2 225.75,-341.2"/>
<text xml:space="preserve" text-anchor="middle" x="180" y="-320.2" font-family="Helvetica,sans-Serif" font-size="10.00">tensorization_lsi_of_at</text>
</a>
</g>
</g>
<!-- n9&#45;&gt;n4 -->
<g id="edge12" class="edge">
<title>n9&#45;&gt;n4</title>
<path fill="none" stroke="#64748b" d="M157.21,-304.9C146.41,-295.51 134.31,-283 127,-269.2 103.59,-225.01 97.69,-165.75 96.31,-132.46"/>
<polygon fill="#64748b" stroke="#64748b" points="98.76,-132.61 96.08,-125.7 93.87,-132.78 98.76,-132.61"/>
</g>
<!-- n9&#45;&gt;n5 -->
<g id="edge14" class="edge">
<title>n9&#45;&gt;n5</title>
<path fill="none" stroke="#64748b" d="M204.75,-304.73C215.6,-295.55 227.17,-283.27 233,-269.2 243.09,-244.83 223.6,-171.42 211.91,-132.26"/>
<polygon fill="#64748b" stroke="#64748b" points="214.36,-131.89 209.98,-125.9 209.67,-133.31 214.36,-131.89"/>
</g>
<!-- n9&#45;&gt;n6 -->
<g id="edge13" class="edge">
<title>n9&#45;&gt;n6</title>
<path fill="none" stroke="#64748b" d="M208.47,-304.71C221.79,-295.44 237.09,-283.09 248,-269.2 263.04,-250.05 273.8,-224.35 280.34,-205.49"/>
<polygon fill="#64748b" stroke="#64748b" points="282.6,-206.46 282.49,-199.04 277.95,-204.91 282.6,-206.46"/>
</g>
<!-- n9&#45;&gt;n8 -->
<g id="edge15" class="edge">
<title>n9&#45;&gt;n8</title>
<path fill="none" stroke="#64748b" d="M180,-304.9C180,-296.67 180,-286.68 180,-277.62"/>
<polygon fill="#64748b" stroke="#64748b" points="182.45,-277.82 180,-270.82 177.55,-277.82 182.45,-277.82"/>
</g>
<!-- n10 -->
<g id="node9" class="node">
<title>n10</title>
<g id="a_node9"><a xlink:href="vscode://vscode-remote/wsl+Ubuntu/home/gavin/statlib/Statlib/Entropy/LogSobolev.lean:3070" xlink:title="theorem · Statlib/Entropy/LogSobolev.lean:3070" target="_blank">
<path fill="#ffe6a3" stroke="#d4a017" d="M269.51,-413.2C269.51,-413.2 88.49,-413.2 88.49,-413.2 82.49,-413.2 76.49,-407.2 76.49,-401.2 76.49,-401.2 76.49,-389.2 76.49,-389.2 76.49,-383.2 82.49,-377.2 88.49,-377.2 88.49,-377.2 269.51,-377.2 269.51,-377.2 275.51,-377.2 281.51,-383.2 281.51,-389.2 281.51,-389.2 281.51,-401.2 281.51,-401.2 281.51,-407.2 275.51,-413.2 269.51,-413.2"/>
<text xml:space="preserve" text-anchor="middle" x="179" y="-392.2" font-family="Helvetica,sans-Serif" font-size="10.00">gaussian_log_sobolev_of_tensorization_at</text>
</a>
</g>
</g>
<!-- n10&#45;&gt;n4 -->
<g id="edge16" class="edge">
<title>n10&#45;&gt;n4</title>
<path fill="none" stroke="#64748b" d="M143.05,-376.82C129.06,-368.14 114.4,-356.24 106,-341.2 68.33,-273.78 81.01,-177.62 90.1,-132.38"/>
<polygon fill="#64748b" stroke="#64748b" points="92.44,-133.12 91.48,-125.77 87.65,-132.12 92.44,-133.12"/>
</g>
<!-- n10&#45;&gt;n5 -->
<g id="edge18" class="edge">
<title>n10&#45;&gt;n5</title>
<path fill="none" stroke="#64748b" d="M146.6,-376.84C133.64,-368.04 120.12,-356.04 113,-341.2 106.08,-326.77 111.47,-321.13 113,-305.2 116.13,-272.75 115.21,-263.59 127,-233.2 141.78,-195.09 167.98,-155.55 185.66,-131.11"/>
<polygon fill="#64748b" stroke="#64748b" points="187.57,-132.65 189.73,-125.55 183.62,-129.75 187.57,-132.65"/>
</g>
<!-- n10&#45;&gt;n6 -->
<g id="edge17" class="edge">
<title>n10&#45;&gt;n6</title>
<path fill="none" stroke="#64748b" d="M209.59,-376.79C222.9,-367.77 237.58,-355.61 247,-341.2 274.53,-299.09 283.58,-239.63 286.55,-206"/>
<polygon fill="#64748b" stroke="#64748b" points="288.98,-206.32 287.09,-199.15 284.1,-205.93 288.98,-206.32"/>
</g>
<!-- n10&#45;&gt;n9 -->
<g id="edge19" class="edge">
<title>n10&#45;&gt;n9</title>
<path fill="none" stroke="#64748b" d="M179.25,-376.9C179.36,-368.67 179.51,-358.68 179.64,-349.62"/>
<polygon fill="#64748b" stroke="#64748b" points="182.08,-349.85 179.73,-342.82 177.18,-349.78 182.08,-349.85"/>
</g>
<!-- n11 -->
<g id="node10" class="node">
<title>n11</title>
<g id="a_node10"><a xlink:href="vscode://vscode-remote/wsl+Ubuntu/home/gavin/statlib/Statlib/Entropy/LogSobolev.lean:3065" xlink:title="lemma · Statlib/Entropy/LogSobolev.lean:3065" target="_blank">
<path fill="#eef2f6" stroke="#94a3b8" d="M469.54,-413.2C469.54,-413.2 332.46,-413.2 332.46,-413.2 326.46,-413.2 320.46,-407.2 320.46,-401.2 320.46,-401.2 320.46,-389.2 320.46,-389.2 320.46,-383.2 326.46,-377.2 332.46,-377.2 332.46,-377.2 469.54,-377.2 469.54,-377.2 475.54,-377.2 481.54,-383.2 481.54,-389.2 481.54,-389.2 481.54,-401.2 481.54,-401.2 481.54,-407.2 475.54,-413.2 469.54,-413.2"/>
<text xml:space="preserve" text-anchor="middle" x="401" y="-392.2" font-family="Helvetica,sans-Serif" font-size="10.00">tensorization_lsi_at_of_universal</text>
</a>
</g>
</g>
<!-- n11&#45;&gt;n6 -->
<g id="edge21" class="edge">
<title>n11&#45;&gt;n6</title>
<path fill="none" stroke="#64748b" d="M384.57,-377.02C375.64,-367.09 364.86,-354.05 357,-341.2 329.36,-296 307.38,-237.75 296.16,-205.15"/>
<polygon fill="#64748b" stroke="#64748b" points="298.6,-204.71 294.03,-198.87 293.96,-206.29 298.6,-204.71"/>
</g>
<!-- n11&#45;&gt;n7 -->
<g id="edge20" class="edge">
<title>n11&#45;&gt;n7</title>
<path fill="none" stroke="#64748b" d="M408.66,-376.9C412.38,-368.5 416.91,-358.27 420.99,-349.06"/>
<polygon fill="#64748b" stroke="#64748b" points="423.22,-350.08 423.81,-342.69 418.74,-348.1 423.22,-350.08"/>
</g>
<!-- n12 -->
<g id="node11" class="node">
<title>n12</title>
<g id="a_node11"><a xlink:href="vscode://vscode-remote/wsl+Ubuntu/home/gavin/statlib/Statlib/Entropy/LogSobolev.lean:3083" xlink:title="theorem · Statlib/Entropy/LogSobolev.lean:3083" target="_blank">
<path fill="#ffe6a3" stroke="#d4a017" d="M332.35,-485.2C332.35,-485.2 119.65,-485.2 119.65,-485.2 113.65,-485.2 107.65,-479.2 107.65,-473.2 107.65,-473.2 107.65,-461.2 107.65,-461.2 107.65,-455.2 113.65,-449.2 119.65,-449.2 119.65,-449.2 332.35,-449.2 332.35,-449.2 338.35,-449.2 344.35,-455.2 344.35,-461.2 344.35,-461.2 344.35,-473.2 344.35,-473.2 344.35,-479.2 338.35,-485.2 332.35,-485.2"/>
<text xml:space="preserve" text-anchor="middle" x="226" y="-464.2" font-family="Helvetica,sans-Serif" font-size="10.00">gaussian_log_sobolev_of_universal_tensorization</text>
</a>
</g>
</g>
<!-- n12&#45;&gt;n4 -->
<g id="edge22" class="edge">
<title>n12&#45;&gt;n4</title>
<path fill="none" stroke="#64748b" d="M118.49,-448.82C98.78,-440.96 80.27,-429.6 67,-413.2 41.96,-382.26 57,-364 57,-324.2 57,-324.2 57,-324.2 57,-250.2 57,-207.52 73.33,-160.12 84.86,-131.97"/>
<polygon fill="#64748b" stroke="#64748b" points="87.07,-133.02 87.52,-125.62 82.55,-131.12 87.07,-133.02"/>
</g>
<!-- n12&#45;&gt;n5 -->
<g id="edge24" class="edge">
<title>n12&#45;&gt;n5</title>
<path fill="none" stroke="#64748b" d="M254.88,-448.74C267.68,-439.63 281.88,-427.42 291,-413.2 321.97,-364.91 379.59,-208.41 347,-161.2 323.5,-127.16 275.64,-114.48 241.77,-109.77"/>
<polygon fill="#64748b" stroke="#64748b" points="242.24,-107.36 234.99,-108.92 241.63,-112.22 242.24,-107.36"/>
</g>
<!-- n12&#45;&gt;n7 -->
<g id="edge23" class="edge">
<title>n12&#45;&gt;n7</title>
<path fill="none" stroke="#64748b" d="M344.64,-449.49C410.5,-438.99 481.15,-425.22 491,-413.2 508.44,-391.93 485.85,-365.42 463.77,-346.89"/>
<polygon fill="#64748b" stroke="#64748b" points="465.45,-345.1 458.46,-342.6 462.37,-348.91 465.45,-345.1"/>
</g>
<!-- n12&#45;&gt;n10 -->
<g id="edge25" class="edge">
<title>n12&#45;&gt;n10</title>
<path fill="none" stroke="#64748b" d="M214.38,-448.9C208.58,-440.25 201.46,-429.65 195.13,-420.23"/>
<polygon fill="#64748b" stroke="#64748b" points="197.26,-419.01 191.33,-414.56 193.2,-421.74 197.26,-419.01"/>
</g>
<!-- n12&#45;&gt;n11 -->
<g id="edge26" class="edge">
<title>n12&#45;&gt;n11</title>
<path fill="none" stroke="#64748b" d="M269.71,-448.72C294.02,-438.99 324.41,-426.84 349.83,-416.67"/>
<polygon fill="#64748b" stroke="#64748b" points="350.55,-419.02 356.14,-414.14 348.73,-414.47 350.55,-419.02"/>
</g>
<!-- n13 -->
<g id="node12" class="node">
<title>n13</title>
<g id="a_node12"><a xlink:href="vscode://vscode-remote/wsl+Ubuntu/home/gavin/statlib/Statlib/Entropy/LogSobolev.lean:3109" xlink:title="theorem · Statlib/Entropy/LogSobolev.lean:3109" target="_blank">
<path fill="#ffe6a3" stroke="#d4a017" stroke-width="3" d="M357.37,-557.2C357.37,-557.2 94.63,-557.2 94.63,-557.2 88.63,-557.2 82.63,-551.2 82.63,-545.2 82.63,-545.2 82.63,-533.2 82.63,-533.2 82.63,-527.2 88.63,-521.2 94.63,-521.2 94.63,-521.2 357.37,-521.2 357.37,-521.2 363.37,-521.2 369.37,-527.2 369.37,-533.2 369.37,-533.2 369.37,-545.2 369.37,-545.2 369.37,-551.2 363.37,-557.2 357.37,-557.2"/>
<text xml:space="preserve" text-anchor="middle" x="226" y="-536.2" font-family="Helvetica,sans-Serif" font-size="10.00">gaussian_log_sobolev_structured_of_universal_tensorization</text>
</a>
</g>
</g>
<!-- n13&#45;&gt;n2 -->
<g id="edge27" class="edge">
<title>n13&#45;&gt;n2</title>
<path fill="none" stroke="#64748b" d="M285.67,-519.72C317.14,-509.97 355.76,-498.01 387.87,-488.06"/>
<polygon fill="#64748b" stroke="#64748b" points="388.47,-490.44 394.44,-486.03 387.03,-485.76 388.47,-490.44"/>
</g>
<!-- n13&#45;&gt;n4 -->
<g id="edge28" class="edge">
<title>n13&#45;&gt;n4</title>
<path fill="none" stroke="#64748b" d="M113.99,-519.74C91.82,-511.96 70.14,-500.91 53,-485.2 21.54,-456.37 17,-438.87 17,-396.2 17,-396.2 17,-396.2 17,-250.2 17,-203.15 50.1,-157.01 73.45,-130.31"/>
<polygon fill="#64748b" stroke="#64748b" points="75,-132.25 77.85,-125.41 71.35,-128.99 75,-132.25"/>
</g>
<!-- n13&#45;&gt;n5 -->
<g id="edge30" class="edge">
<title>n13&#45;&gt;n5</title>
<path fill="none" stroke="#64748b" d="M162.8,-519.73C107.86,-499.32 37,-460.53 37,-396.2 37,-396.2 37,-396.2 37,-322.2 37,-237.25 84.08,-225.14 140,-161.2 150.02,-149.75 162.52,-138.61 173.81,-129.45"/>
<polygon fill="#64748b" stroke="#64748b" points="175.15,-131.51 179.1,-125.23 172.1,-127.68 175.15,-131.51"/>
</g>
<!-- n13&#45;&gt;n7 -->
<g id="edge29" class="edge">
<title>n13&#45;&gt;n7</title>
<path fill="none" stroke="#64748b" d="M293.11,-519.76C314,-511.64 335.99,-500.41 353,-485.2 366.64,-473 358.66,-460.58 373,-449.2 418.61,-412.99 463.93,-459.7 499,-413.2 508.64,-400.43 505.97,-391.6 499,-377.2 493.06,-364.93 482.75,-354.64 471.97,-346.48"/>
<polygon fill="#64748b" stroke="#64748b" points="473.59,-344.63 466.46,-342.56 470.75,-348.62 473.59,-344.63"/>
</g>
<!-- n13&#45;&gt;n12 -->
<g id="edge31" class="edge">
<title>n13&#45;&gt;n12</title>
<path fill="none" stroke="#64748b" d="M226,-519.81C226,-511.79 226,-502.25 226,-493.57"/>
<polygon fill="#64748b" stroke="#64748b" points="228.45,-493.78 226,-486.78 223.55,-493.78 228.45,-493.78"/>
</g>
<!-- n1&#45;&gt;n0 -->
<g id="edge1" class="edge">
<title>n1&#45;&gt;n0</title>
<path fill="none" stroke="#64748b" d="M585.51,-87.7C585.27,-79.47 584.99,-69.48 584.73,-60.42"/>
<polygon fill="#64748b" stroke="#64748b" points="587.18,-60.54 584.53,-53.62 582.28,-60.68 587.18,-60.54"/>
</g>
</g>
</svg>
