<?xml version="1.0" encoding="UTF-8" standalone="no"?>
<!DOCTYPE svg PUBLIC "-//W3C//DTD SVG 1.1//EN"
 "http://www.w3.org/Graphics/SVG/1.1/DTD/svg11.dtd">
<!-- Generated by graphviz version 15.0.0 (20260523.1842)
 -->
<!-- Title: asymptotic_linearity_slutsky_axiom Pages: 1 -->
<svg width="799pt" height="410pt"
 viewBox="0.00 0.00 799.00 410.00" xmlns="http://www.w3.org/2000/svg" xmlns:xlink="http://www.w3.org/1999/xlink">
<g id="graph0" class="graph" transform="scale(1 1) rotate(0) translate(4 406)">
<title>asymptotic_linearity_slutsky_axiom</title>
<polygon fill="white" stroke="none" points="-4,4 -4,-406 795,-406 795,4 -4,4"/>
<text xml:space="preserve" text-anchor="middle" x="395.5" y="-385.4" font-family="Helvetica,sans-Serif" font-size="14.00">Proof narrative — asymptotic_linearity_slutsky_axiom &#160;(12 decls)</text>
<g id="clust1" class="cluster">
<title>cluster_0</title>
<path fill="none" stroke="#cbd5e1" stroke-dasharray="5,2" d="M20,-8C20,-8 771,-8 771,-8 777,-8 783,-14 783,-20 783,-20 783,-357.2 783,-357.2 783,-363.2 777,-369.2 771,-369.2 771,-369.2 20,-369.2 20,-369.2 14,-369.2 8,-363.2 8,-357.2 8,-357.2 8,-20 8,-20 8,-14 14,-8 20,-8"/>
<text xml:space="preserve" text-anchor="middle" x="395.5" y="-355.3" font-family="Helvetica,sans-Serif" font-size="11.00">Semiparametric</text>
</g>
<!-- n0 -->
<g id="node1" class="node">
<title>n0</title>
<g id="a_node1"><a xlink:href="vscode://vscode-remote/wsl+Ubuntu/home/gavin/statlib/Statlib/Semiparametric/IsCenteredL2.lean:14" xlink:title="structure · Statlib/Semiparametric/IsCenteredL2.lean:14" target="_blank">
<path fill="#e8dcff" stroke="#8b5cf6" d="M80.02,-124C80.02,-124 27.98,-124 27.98,-124 21.98,-124 15.98,-118 15.98,-112 15.98,-112 15.98,-100 15.98,-100 15.98,-94 21.98,-88 27.98,-88 27.98,-88 80.02,-88 80.02,-88 86.02,-88 92.02,-94 92.02,-100 92.02,-100 92.02,-112 92.02,-112 92.02,-118 86.02,-124 80.02,-124"/>
<text xml:space="preserve" text-anchor="middle" x="54" y="-103" font-family="Helvetica,sans-Serif" font-size="10.00">IsCenteredL2</text>
</a>
</g>
</g>
<!-- n1 -->
<g id="node2" class="node">
<title>n1</title>
<g id="a_node2"><a xlink:href="vscode://vscode-remote/wsl+Ubuntu/home/gavin/statlib/Statlib/Semiparametric/IsAsymptoticallyLinear.lean:25" xlink:title="def · Statlib/Semiparametric/IsAsymptoticallyLinear.lean:25" target="_blank">
<path fill="#d6e9ff" stroke="#3b82f6" d="M351.74,-196C351.74,-196 260.26,-196 260.26,-196 254.26,-196 248.26,-190 248.26,-184 248.26,-184 248.26,-172 248.26,-172 248.26,-166 254.26,-160 260.26,-160 260.26,-160 351.74,-160 351.74,-160 357.74,-160 363.74,-166 363.74,-172 363.74,-172 363.74,-184 363.74,-184 363.74,-190 357.74,-196 351.74,-196"/>
<text xml:space="preserve" text-anchor="middle" x="306" y="-175" font-family="Helvetica,sans-Serif" font-size="10.00">IsAsymptoticallyLinear</text>
</a>
</g>
</g>
<!-- n1&#45;&gt;n0 -->
<g id="edge1" class="edge">
<title>n1&#45;&gt;n0</title>
<path fill="none" stroke="#64748b" d="M247.99,-162.56C207.94,-152.36 153.54,-138.06 106,-124 104.05,-123.42 102.06,-122.82 100.05,-122.21"/>
<polygon fill="#64748b" stroke="#64748b" points="101.12,-119.97 93.71,-120.23 99.66,-124.65 101.12,-119.97"/>
</g>
<!-- n2 -->
<g id="node3" class="node">
<title>n2</title>
<g id="a_node3"><a xlink:href="vscode://vscode-remote/wsl+Ubuntu/home/gavin/statlib/Statlib/Semiparametric/asymptoticVariance.lean:14" xlink:title="noncomputable def · Statlib/Semiparametric/asymptoticVariance.lean:14" target="_blank">
<path fill="#d6e9ff" stroke="#3b82f6" d="M762.63,-124C762.63,-124 683.37,-124 683.37,-124 677.37,-124 671.37,-118 671.37,-112 671.37,-112 671.37,-100 671.37,-100 671.37,-94 677.37,-88 683.37,-88 683.37,-88 762.63,-88 762.63,-88 768.63,-88 774.63,-94 774.63,-100 774.63,-100 774.63,-112 774.63,-112 774.63,-118 768.63,-124 762.63,-124"/>
<text xml:space="preserve" text-anchor="middle" x="723" y="-103" font-family="Helvetica,sans-Serif" font-size="10.00">asymptoticVariance</text>
</a>
</g>
</g>
<!-- n3 -->
<g id="node4" class="node">
<title>n3</title>
<g id="a_node4"><a xlink:href="vscode://vscode-remote/wsl+Ubuntu/home/gavin/statlib/Statlib/Semiparametric/asymptoticVariance_nonneg.lean:12" xlink:title="theorem · Statlib/Semiparametric/asymptoticVariance_nonneg.lean:12" target="_blank">
<path fill="#ffe6a3" stroke="#d4a017" d="M677.1,-196C677.1,-196 558.9,-196 558.9,-196 552.9,-196 546.9,-190 546.9,-184 546.9,-184 546.9,-172 546.9,-172 546.9,-166 552.9,-160 558.9,-160 558.9,-160 677.1,-160 677.1,-160 683.1,-160 689.1,-166 689.1,-172 689.1,-172 689.1,-184 689.1,-184 689.1,-190 683.1,-196 677.1,-196"/>
<text xml:space="preserve" text-anchor="middle" x="618" y="-175" font-family="Helvetica,sans-Serif" font-size="10.00">asymptoticVariance_nonneg</text>
</a>
</g>
</g>
<!-- n3&#45;&gt;n2 -->
<g id="edge2" class="edge">
<title>n3&#45;&gt;n2</title>
<path fill="none" stroke="#64748b" d="M644.23,-159.52C658.11,-150.26 675.3,-138.8 690.07,-128.95"/>
<polygon fill="#64748b" stroke="#64748b" points="691.38,-131.02 695.85,-125.1 688.67,-126.94 691.38,-131.02"/>
</g>
<!-- n4 -->
<g id="node5" class="node">
<title>n4</title>
<g id="a_node5"><a xlink:href="vscode://vscode-remote/wsl+Ubuntu/home/gavin/statlib/Statlib/Semiparametric/charFun_map_eq_integral.lean:11" xlink:title="lemma · Statlib/Semiparametric/charFun_map_eq_integral.lean:11" target="_blank">
<path fill="#eef2f6" stroke="#94a3b8" d="M492.37,-124C492.37,-124 383.63,-124 383.63,-124 377.63,-124 371.63,-118 371.63,-112 371.63,-112 371.63,-100 371.63,-100 371.63,-94 377.63,-88 383.63,-88 383.63,-88 492.37,-88 492.37,-88 498.37,-88 504.37,-94 504.37,-100 504.37,-100 504.37,-112 504.37,-112 504.37,-118 498.37,-124 492.37,-124"/>
<text xml:space="preserve" text-anchor="middle" x="438" y="-103" font-family="Helvetica,sans-Serif" font-size="10.00">charFun_map_eq_integral</text>
</a>
</g>
</g>
<!-- n5 -->
<g id="node6" class="node">
<title>n5</title>
<g id="a_node6"><a xlink:href="vscode://vscode-remote/wsl+Ubuntu/home/gavin/statlib/Statlib/Semiparametric/aestronglyMeasurable_cexp_real_mul.lean:11" xlink:title="lemma · Statlib/Semiparametric/aestronglyMeasurable_cexp_real_mul.lean:11" target="_blank">
<path fill="#eef2f6" stroke="#94a3b8" d="M429.49,-52C429.49,-52 268.51,-52 268.51,-52 262.51,-52 256.51,-46 256.51,-40 256.51,-40 256.51,-28 256.51,-28 256.51,-22 262.51,-16 268.51,-16 268.51,-16 429.49,-16 429.49,-16 435.49,-16 441.49,-22 441.49,-28 441.49,-28 441.49,-40 441.49,-40 441.49,-46 435.49,-52 429.49,-52"/>
<text xml:space="preserve" text-anchor="middle" x="349" y="-31" font-family="Helvetica,sans-Serif" font-size="10.00">aestronglyMeasurable_cexp_real_mul</text>
</a>
</g>
</g>
<!-- n6 -->
<g id="node7" class="node">
<title>n6</title>
<g id="a_node7"><a xlink:href="vscode://vscode-remote/wsl+Ubuntu/home/gavin/statlib/Statlib/Semiparametric/integrable_cexp_real_mul.lean:12" xlink:title="lemma · Statlib/Semiparametric/integrable_cexp_real_mul.lean:12" target="_blank">
<path fill="#eef2f6" stroke="#94a3b8" d="M641.26,-124C641.26,-124 534.74,-124 534.74,-124 528.74,-124 522.74,-118 522.74,-112 522.74,-112 522.74,-100 522.74,-100 522.74,-94 528.74,-88 534.74,-88 534.74,-88 641.26,-88 641.26,-88 647.26,-88 653.26,-94 653.26,-100 653.26,-100 653.26,-112 653.26,-112 653.26,-118 647.26,-124 641.26,-124"/>
<text xml:space="preserve" text-anchor="middle" x="588" y="-103" font-family="Helvetica,sans-Serif" font-size="10.00">integrable_cexp_real_mul</text>
</a>
</g>
</g>
<!-- n6&#45;&gt;n5 -->
<g id="edge3" class="edge">
<title>n6&#45;&gt;n5</title>
<path fill="none" stroke="#64748b" d="M528.31,-87.52C494.24,-77.54 451.45,-65 416.21,-54.68"/>
<polygon fill="#64748b" stroke="#64748b" points="417.21,-52.42 409.8,-52.81 415.83,-57.13 417.21,-52.42"/>
</g>
<!-- n7 -->
<g id="node8" class="node">
<title>n7</title>
<g id="a_node8"><a xlink:href="vscode://vscode-remote/wsl+Ubuntu/home/gavin/statlib/Statlib/Semiparametric/exp_I_diff_bound.lean:14" xlink:title="lemma · Statlib/Semiparametric/exp_I_diff_bound.lean:14" target="_blank">
<path fill="#eef2f6" stroke="#94a3b8" d="M210.37,-124C210.37,-124 141.63,-124 141.63,-124 135.63,-124 129.63,-118 129.63,-112 129.63,-112 129.63,-100 129.63,-100 129.63,-94 135.63,-88 141.63,-88 141.63,-88 210.37,-88 210.37,-88 216.37,-88 222.37,-94 222.37,-100 222.37,-100 222.37,-112 222.37,-112 222.37,-118 216.37,-124 210.37,-124"/>
<text xml:space="preserve" text-anchor="middle" x="176" y="-103" font-family="Helvetica,sans-Serif" font-size="10.00">exp_I_diff_bound</text>
</a>
</g>
</g>
<!-- n8 -->
<g id="node9" class="node">
<title>n8</title>
<g id="a_node9"><a xlink:href="vscode://vscode-remote/wsl+Ubuntu/home/gavin/statlib/Statlib/Semiparametric/exp_I_diff_bound_two.lean:12" xlink:title="lemma · Statlib/Semiparametric/exp_I_diff_bound_two.lean:12" target="_blank">
<path fill="#eef2f6" stroke="#94a3b8" d="M341.93,-124C341.93,-124 252.07,-124 252.07,-124 246.07,-124 240.07,-118 240.07,-112 240.07,-112 240.07,-100 240.07,-100 240.07,-94 246.07,-88 252.07,-88 252.07,-88 341.93,-88 341.93,-88 347.93,-88 353.93,-94 353.93,-100 353.93,-100 353.93,-112 353.93,-112 353.93,-118 347.93,-124 341.93,-124"/>
<text xml:space="preserve" text-anchor="middle" x="297" y="-103" font-family="Helvetica,sans-Serif" font-size="10.00">exp_I_diff_bound_two</text>
</a>
</g>
</g>
<!-- n9 -->
<g id="node10" class="node">
<title>n9</title>
<g id="a_node10"><a xlink:href="vscode://vscode-remote/wsl+Ubuntu/home/gavin/statlib/Statlib/Semiparametric/charFun_map_sub_le.lean:19" xlink:title="lemma · Statlib/Semiparametric/charFun_map_sub_le.lean:19" target="_blank">
<path fill="#eef2f6" stroke="#94a3b8" d="M482.36,-196C482.36,-196 393.64,-196 393.64,-196 387.64,-196 381.64,-190 381.64,-184 381.64,-184 381.64,-172 381.64,-172 381.64,-166 387.64,-160 393.64,-160 393.64,-160 482.36,-160 482.36,-160 488.36,-160 494.36,-166 494.36,-172 494.36,-172 494.36,-184 494.36,-184 494.36,-190 488.36,-196 482.36,-196"/>
<text xml:space="preserve" text-anchor="middle" x="438" y="-175" font-family="Helvetica,sans-Serif" font-size="10.00">charFun_map_sub_le</text>
</a>
</g>
</g>
<!-- n9&#45;&gt;n4 -->
<g id="edge4" class="edge">
<title>n9&#45;&gt;n4</title>
<path fill="none" stroke="#64748b" d="M438,-159.7C438,-151.47 438,-141.48 438,-132.42"/>
<polygon fill="#64748b" stroke="#64748b" points="440.45,-132.62 438,-125.62 435.55,-132.62 440.45,-132.62"/>
</g>
<!-- n9&#45;&gt;n5 -->
<g id="edge6" class="edge">
<title>n9&#45;&gt;n5</title>
<path fill="none" stroke="#64748b" d="M381.37,-161.78C378.55,-161.15 375.74,-160.55 373,-160 317.55,-148.83 158.06,-166.73 121,-124 78.27,-74.73 168.73,-52.55 248.03,-42.68"/>
<polygon fill="#64748b" stroke="#64748b" points="247.99,-45.16 254.65,-41.89 247.41,-40.29 247.99,-45.16"/>
</g>
<!-- n9&#45;&gt;n6 -->
<g id="edge5" class="edge">
<title>n9&#45;&gt;n6</title>
<path fill="none" stroke="#64748b" d="M475.46,-159.52C496.03,-149.92 521.68,-137.95 543.29,-127.86"/>
<polygon fill="#64748b" stroke="#64748b" points="544.07,-130.2 549.38,-125.02 542,-125.76 544.07,-130.2"/>
</g>
<!-- n9&#45;&gt;n7 -->
<g id="edge7" class="edge">
<title>n9&#45;&gt;n7</title>
<path fill="none" stroke="#64748b" d="M381.29,-162.14C378.48,-161.41 375.71,-160.7 373,-160 309.95,-143.76 293.68,-141.62 231,-124 230.92,-123.98 230.83,-123.95 230.75,-123.93"/>
<polygon fill="#64748b" stroke="#64748b" points="231.62,-121.63 224.21,-122.05 230.26,-126.34 231.62,-121.63"/>
</g>
<!-- n9&#45;&gt;n8 -->
<g id="edge8" class="edge">
<title>n9&#45;&gt;n8</title>
<path fill="none" stroke="#64748b" d="M402.78,-159.52C383.54,-149.97 359.58,-138.07 339.33,-128.01"/>
<polygon fill="#64748b" stroke="#64748b" points="340.48,-125.85 333.12,-124.93 338.3,-130.24 340.48,-125.85"/>
</g>
<!-- n10 -->
<g id="node11" class="node">
<title>n10</title>
<g id="a_node11"><a xlink:href="vscode://vscode-remote/wsl+Ubuntu/home/gavin/statlib/Statlib/Semiparametric/asymptotic_linearity_slutsky.lean:34" xlink:title="theorem · Statlib/Semiparametric/asymptotic_linearity_slutsky.lean:34" target="_blank">
<path fill="#ffe6a3" stroke="#d4a017" d="M585.97,-268C585.97,-268 470.03,-268 470.03,-268 464.03,-268 458.03,-262 458.03,-256 458.03,-256 458.03,-244 458.03,-244 458.03,-238 464.03,-232 470.03,-232 470.03,-232 585.97,-232 585.97,-232 591.97,-232 597.97,-238 597.97,-244 597.97,-244 597.97,-256 597.97,-256 597.97,-262 591.97,-268 585.97,-268"/>
<text xml:space="preserve" text-anchor="middle" x="528" y="-247" font-family="Helvetica,sans-Serif" font-size="10.00">asymptotic_linearity_slutsky</text>
</a>
</g>
</g>
<!-- n10&#45;&gt;n1 -->
<g id="edge9" class="edge">
<title>n10&#45;&gt;n1</title>
<path fill="none" stroke="#64748b" d="M472.55,-231.52C441.05,-221.58 401.49,-209.11 368.84,-198.81"/>
<polygon fill="#64748b" stroke="#64748b" points="369.98,-196.61 362.57,-196.84 368.51,-201.28 369.98,-196.61"/>
</g>
<!-- n10&#45;&gt;n2 -->
<g id="edge10" class="edge">
<title>n10&#45;&gt;n2</title>
<path fill="none" stroke="#64748b" d="M524.75,-231.75C522.1,-212.04 521.14,-179.95 538,-160 539.06,-158.74 609.19,-138.87 662.78,-123.83"/>
<polygon fill="#64748b" stroke="#64748b" points="663.36,-126.21 669.44,-121.96 662.04,-121.5 663.36,-126.21"/>
</g>
<!-- n10&#45;&gt;n3 -->
<g id="edge11" class="edge">
<title>n10&#45;&gt;n3</title>
<path fill="none" stroke="#64748b" d="M550.25,-231.7C562.04,-222.53 576.66,-211.16 589.29,-201.33"/>
<polygon fill="#64748b" stroke="#64748b" points="590.48,-203.51 594.5,-197.28 587.47,-199.64 590.48,-203.51"/>
</g>
<!-- n10&#45;&gt;n9 -->
<g id="edge12" class="edge">
<title>n10&#45;&gt;n9</title>
<path fill="none" stroke="#64748b" d="M505.75,-231.7C493.96,-222.53 479.34,-211.16 466.71,-201.33"/>
<polygon fill="#64748b" stroke="#64748b" points="468.53,-199.64 461.5,-197.28 465.52,-203.51 468.53,-199.64"/>
</g>
<!-- n11 -->
<g id="node12" class="node">
<title>n11</title>
<g id="a_node12"><a xlink:href="vscode://vscode-remote/wsl+Ubuntu/home/gavin/statlib/Statlib/Semiparametric/asymptotic_linearity_slutsky_axiom.lean:16" xlink:title="theorem · Statlib/Semiparametric/asymptotic_linearity_slutsky_axiom.lean:16" target="_blank">
<path fill="#ffe6a3" stroke="#d4a017" stroke-width="3" d="M647.09,-340C647.09,-340 498.91,-340 498.91,-340 492.91,-340 486.91,-334 486.91,-328 486.91,-328 486.91,-316 486.91,-316 486.91,-310 492.91,-304 498.91,-304 498.91,-304 647.09,-304 647.09,-304 653.09,-304 659.09,-310 659.09,-316 659.09,-316 659.09,-328 659.09,-328 659.09,-334 653.09,-340 647.09,-340"/>
<text xml:space="preserve" text-anchor="middle" x="573" y="-319" font-family="Helvetica,sans-Serif" font-size="10.00">asymptotic_linearity_slutsky_axiom</text>
</a>
</g>
</g>
<!-- n11&#45;&gt;n1 -->
<g id="edge13" class="edge">
<title>n11&#45;&gt;n1</title>
<path fill="none" stroke="#64748b" d="M525.11,-302.53C501.76,-293.02 473.5,-280.76 449,-268 409.67,-247.51 366.76,-220.06 338.31,-201.09"/>
<polygon fill="#64748b" stroke="#64748b" points="339.83,-199.17 332.65,-197.31 337.1,-203.24 339.83,-199.17"/>
</g>
<!-- n11&#45;&gt;n2 -->
<g id="edge14" class="edge">
<title>n11&#45;&gt;n2</title>
<path fill="none" stroke="#64748b" d="M597.92,-302.62C626.26,-280.42 671.95,-240.5 698,-196 709.48,-176.39 715.91,-151.25 719.36,-132.69"/>
<polygon fill="#64748b" stroke="#64748b" points="721.76,-133.23 720.53,-125.91 716.93,-132.39 721.76,-133.23"/>
</g>
<!-- n11&#45;&gt;n3 -->
<g id="edge15" class="edge">
<title>n11&#45;&gt;n3</title>
<path fill="none" stroke="#64748b" d="M587.47,-302.95C594.53,-293.17 602.47,-280.54 607,-268 614.41,-247.49 617,-222.78 617.83,-204.6"/>
<polygon fill="#64748b" stroke="#64748b" points="620.28,-204.84 618.06,-197.77 615.38,-204.68 620.28,-204.84"/>
</g>
<!-- n11&#45;&gt;n10 -->
<g id="edge16" class="edge">
<title>n11&#45;&gt;n10</title>
<path fill="none" stroke="#64748b" d="M561.18,-302.61C555.75,-294.17 549.25,-284.06 543.44,-275.02"/>
<polygon fill="#64748b" stroke="#64748b" points="545.64,-273.9 539.79,-269.34 541.52,-276.55 545.64,-273.9"/>
</g>
</g>
</svg>
