<?xml version="1.0" encoding="UTF-8" standalone="no"?>
<!DOCTYPE svg PUBLIC "-//W3C//DTD SVG 1.1//EN"
 "http://www.w3.org/Graphics/SVG/1.1/DTD/svg11.dtd">
<!-- Generated by graphviz version 15.0.0 (20260523.1842)
 -->
<!-- Title: influence_function_asymptotic_normality Pages: 1 -->
<svg width="799pt" height="410pt"
 viewBox="0.00 0.00 799.00 410.00" xmlns="http://www.w3.org/2000/svg" xmlns:xlink="http://www.w3.org/1999/xlink">
<g id="graph0" class="graph" transform="scale(1 1) rotate(0) translate(4 406)">
<title>influence_function_asymptotic_normality</title>
<polygon fill="white" stroke="none" points="-4,4 -4,-406 795,-406 795,4 -4,4"/>
<text xml:space="preserve" text-anchor="middle" x="395.5" y="-385.4" font-family="Helvetica,sans-Serif" font-size="14.00">Proof narrative — influence_function_asymptotic_normality &#160;(13 decls)</text>
<g id="clust1" class="cluster">
<title>cluster_0</title>
<path fill="none" stroke="#cbd5e1" stroke-dasharray="5,2" d="M20,-8C20,-8 771,-8 771,-8 777,-8 783,-14 783,-20 783,-20 783,-357.2 783,-357.2 783,-363.2 777,-369.2 771,-369.2 771,-369.2 20,-369.2 20,-369.2 14,-369.2 8,-363.2 8,-357.2 8,-357.2 8,-20 8,-20 8,-14 14,-8 20,-8"/>
<text xml:space="preserve" text-anchor="middle" x="395.5" y="-355.3" font-family="Helvetica,sans-Serif" font-size="11.00">Semiparametric</text>
</g>
<!-- n0 -->
<g id="node1" class="node">
<title>n0</title>
<g id="a_node1"><a xlink:href="vscode://vscode-remote/wsl+Ubuntu/home/gavin/statlib/Statlib/Semiparametric/IsCenteredL2.lean:14" xlink:title="structure · Statlib/Semiparametric/IsCenteredL2.lean:14" target="_blank">
<path fill="#e8dcff" stroke="#8b5cf6" d="M763.02,-124C763.02,-124 710.98,-124 710.98,-124 704.98,-124 698.98,-118 698.98,-112 698.98,-112 698.98,-100 698.98,-100 698.98,-94 704.98,-88 710.98,-88 710.98,-88 763.02,-88 763.02,-88 769.02,-88 775.02,-94 775.02,-100 775.02,-100 775.02,-112 775.02,-112 775.02,-118 769.02,-124 763.02,-124"/>
<text xml:space="preserve" text-anchor="middle" x="737" y="-103" font-family="Helvetica,sans-Serif" font-size="10.00">IsCenteredL2</text>
</a>
</g>
</g>
<!-- n1 -->
<g id="node2" class="node">
<title>n1</title>
<g id="a_node2"><a xlink:href="vscode://vscode-remote/wsl+Ubuntu/home/gavin/statlib/Statlib/Semiparametric/IsAsymptoticallyLinear.lean:25" xlink:title="def · Statlib/Semiparametric/IsAsymptoticallyLinear.lean:25" target="_blank">
<path fill="#d6e9ff" stroke="#3b82f6" d="M505.74,-196C505.74,-196 414.26,-196 414.26,-196 408.26,-196 402.26,-190 402.26,-184 402.26,-184 402.26,-172 402.26,-172 402.26,-166 408.26,-160 414.26,-160 414.26,-160 505.74,-160 505.74,-160 511.74,-160 517.74,-166 517.74,-172 517.74,-172 517.74,-184 517.74,-184 517.74,-190 511.74,-196 505.74,-196"/>
<text xml:space="preserve" text-anchor="middle" x="460" y="-175" font-family="Helvetica,sans-Serif" font-size="10.00">IsAsymptoticallyLinear</text>
</a>
</g>
</g>
<!-- n1&#45;&gt;n0 -->
<g id="edge1" class="edge">
<title>n1&#45;&gt;n0</title>
<path fill="none" stroke="#64748b" d="M518.16,-165.62C564.96,-155.98 632.22,-141.04 690,-124 690.18,-123.95 690.35,-123.9 690.53,-123.84"/>
<polygon fill="#64748b" stroke="#64748b" points="691.26,-126.18 697.21,-121.75 689.79,-121.51 691.26,-126.18"/>
</g>
<!-- n2 -->
<g id="node3" class="node">
<title>n2</title>
<g id="a_node3"><a xlink:href="vscode://vscode-remote/wsl+Ubuntu/home/gavin/statlib/Statlib/Semiparametric/asymptoticVariance.lean:14" xlink:title="noncomputable def · Statlib/Semiparametric/asymptoticVariance.lean:14" target="_blank">
<path fill="#d6e9ff" stroke="#3b82f6" d="M668.63,-124C668.63,-124 589.37,-124 589.37,-124 583.37,-124 577.37,-118 577.37,-112 577.37,-112 577.37,-100 577.37,-100 577.37,-94 583.37,-88 589.37,-88 589.37,-88 668.63,-88 668.63,-88 674.63,-88 680.63,-94 680.63,-100 680.63,-100 680.63,-112 680.63,-112 680.63,-118 674.63,-124 668.63,-124"/>
<text xml:space="preserve" text-anchor="middle" x="629" y="-103" font-family="Helvetica,sans-Serif" font-size="10.00">asymptoticVariance</text>
</a>
</g>
</g>
<!-- n3 -->
<g id="node4" class="node">
<title>n3</title>
<g id="a_node4"><a xlink:href="vscode://vscode-remote/wsl+Ubuntu/home/gavin/statlib/Statlib/Semiparametric/asymptoticVariance_nonneg.lean:12" xlink:title="theorem · Statlib/Semiparametric/asymptoticVariance_nonneg.lean:12" target="_blank">
<path fill="#ffe6a3" stroke="#d4a017" d="M686.1,-196C686.1,-196 567.9,-196 567.9,-196 561.9,-196 555.9,-190 555.9,-184 555.9,-184 555.9,-172 555.9,-172 555.9,-166 561.9,-160 567.9,-160 567.9,-160 686.1,-160 686.1,-160 692.1,-160 698.1,-166 698.1,-172 698.1,-172 698.1,-184 698.1,-184 698.1,-190 692.1,-196 686.1,-196"/>
<text xml:space="preserve" text-anchor="middle" x="627" y="-175" font-family="Helvetica,sans-Serif" font-size="10.00">asymptoticVariance_nonneg</text>
</a>
</g>
</g>
<!-- n3&#45;&gt;n2 -->
<g id="edge2" class="edge">
<title>n3&#45;&gt;n2</title>
<path fill="none" stroke="#64748b" d="M627.49,-159.7C627.73,-151.47 628.01,-141.48 628.27,-132.42"/>
<polygon fill="#64748b" stroke="#64748b" points="630.72,-132.68 628.47,-125.62 625.82,-132.54 630.72,-132.68"/>
</g>
<!-- n4 -->
<g id="node5" class="node">
<title>n4</title>
<g id="a_node5"><a xlink:href="vscode://vscode-remote/wsl+Ubuntu/home/gavin/statlib/Statlib/Semiparametric/charFun_map_eq_integral.lean:11" xlink:title="lemma · Statlib/Semiparametric/charFun_map_eq_integral.lean:11" target="_blank">
<path fill="#eef2f6" stroke="#94a3b8" d="M136.37,-124C136.37,-124 27.63,-124 27.63,-124 21.63,-124 15.63,-118 15.63,-112 15.63,-112 15.63,-100 15.63,-100 15.63,-94 21.63,-88 27.63,-88 27.63,-88 136.37,-88 136.37,-88 142.37,-88 148.37,-94 148.37,-100 148.37,-100 148.37,-112 148.37,-112 148.37,-118 142.37,-124 136.37,-124"/>
<text xml:space="preserve" text-anchor="middle" x="82" y="-103" font-family="Helvetica,sans-Serif" font-size="10.00">charFun_map_eq_integral</text>
</a>
</g>
</g>
<!-- n5 -->
<g id="node6" class="node">
<title>n5</title>
<g id="a_node6"><a xlink:href="vscode://vscode-remote/wsl+Ubuntu/home/gavin/statlib/Statlib/Semiparametric/aestronglyMeasurable_cexp_real_mul.lean:11" xlink:title="lemma · Statlib/Semiparametric/aestronglyMeasurable_cexp_real_mul.lean:11" target="_blank">
<path fill="#eef2f6" stroke="#94a3b8" d="M289.49,-52C289.49,-52 128.51,-52 128.51,-52 122.51,-52 116.51,-46 116.51,-40 116.51,-40 116.51,-28 116.51,-28 116.51,-22 122.51,-16 128.51,-16 128.51,-16 289.49,-16 289.49,-16 295.49,-16 301.49,-22 301.49,-28 301.49,-28 301.49,-40 301.49,-40 301.49,-46 295.49,-52 289.49,-52"/>
<text xml:space="preserve" text-anchor="middle" x="209" y="-31" font-family="Helvetica,sans-Serif" font-size="10.00">aestronglyMeasurable_cexp_real_mul</text>
</a>
</g>
</g>
<!-- n6 -->
<g id="node7" class="node">
<title>n6</title>
<g id="a_node7"><a xlink:href="vscode://vscode-remote/wsl+Ubuntu/home/gavin/statlib/Statlib/Semiparametric/integrable_cexp_real_mul.lean:12" xlink:title="lemma · Statlib/Semiparametric/integrable_cexp_real_mul.lean:12" target="_blank">
<path fill="#eef2f6" stroke="#94a3b8" d="M304.26,-124C304.26,-124 197.74,-124 197.74,-124 191.74,-124 185.74,-118 185.74,-112 185.74,-112 185.74,-100 185.74,-100 185.74,-94 191.74,-88 197.74,-88 197.74,-88 304.26,-88 304.26,-88 310.26,-88 316.26,-94 316.26,-100 316.26,-100 316.26,-112 316.26,-112 316.26,-118 310.26,-124 304.26,-124"/>
<text xml:space="preserve" text-anchor="middle" x="251" y="-103" font-family="Helvetica,sans-Serif" font-size="10.00">integrable_cexp_real_mul</text>
</a>
</g>
</g>
<!-- n6&#45;&gt;n5 -->
<g id="edge3" class="edge">
<title>n6&#45;&gt;n5</title>
<path fill="none" stroke="#64748b" d="M240.62,-87.7C235.48,-79.14 229.19,-68.66 223.58,-59.3"/>
<polygon fill="#64748b" stroke="#64748b" points="225.74,-58.14 220.04,-53.4 221.54,-60.67 225.74,-58.14"/>
</g>
<!-- n7 -->
<g id="node8" class="node">
<title>n7</title>
<g id="a_node8"><a xlink:href="vscode://vscode-remote/wsl+Ubuntu/home/gavin/statlib/Statlib/Semiparametric/exp_I_diff_bound.lean:14" xlink:title="lemma · Statlib/Semiparametric/exp_I_diff_bound.lean:14" target="_blank">
<path fill="#eef2f6" stroke="#94a3b8" d="M415.37,-124C415.37,-124 346.63,-124 346.63,-124 340.63,-124 334.63,-118 334.63,-112 334.63,-112 334.63,-100 334.63,-100 334.63,-94 340.63,-88 346.63,-88 346.63,-88 415.37,-88 415.37,-88 421.37,-88 427.37,-94 427.37,-100 427.37,-100 427.37,-112 427.37,-112 427.37,-118 421.37,-124 415.37,-124"/>
<text xml:space="preserve" text-anchor="middle" x="381" y="-103" font-family="Helvetica,sans-Serif" font-size="10.00">exp_I_diff_bound</text>
</a>
</g>
</g>
<!-- n8 -->
<g id="node9" class="node">
<title>n8</title>
<g id="a_node9"><a xlink:href="vscode://vscode-remote/wsl+Ubuntu/home/gavin/statlib/Statlib/Semiparametric/exp_I_diff_bound_two.lean:12" xlink:title="lemma · Statlib/Semiparametric/exp_I_diff_bound_two.lean:12" target="_blank">
<path fill="#eef2f6" stroke="#94a3b8" d="M546.93,-124C546.93,-124 457.07,-124 457.07,-124 451.07,-124 445.07,-118 445.07,-112 445.07,-112 445.07,-100 445.07,-100 445.07,-94 451.07,-88 457.07,-88 457.07,-88 546.93,-88 546.93,-88 552.93,-88 558.93,-94 558.93,-100 558.93,-100 558.93,-112 558.93,-112 558.93,-118 552.93,-124 546.93,-124"/>
<text xml:space="preserve" text-anchor="middle" x="502" y="-103" font-family="Helvetica,sans-Serif" font-size="10.00">exp_I_diff_bound_two</text>
</a>
</g>
</g>
<!-- n9 -->
<g id="node10" class="node">
<title>n9</title>
<g id="a_node10"><a xlink:href="vscode://vscode-remote/wsl+Ubuntu/home/gavin/statlib/Statlib/Semiparametric/charFun_map_sub_le.lean:19" xlink:title="lemma · Statlib/Semiparametric/charFun_map_sub_le.lean:19" target="_blank">
<path fill="#eef2f6" stroke="#94a3b8" d="M323.36,-196C323.36,-196 234.64,-196 234.64,-196 228.64,-196 222.64,-190 222.64,-184 222.64,-184 222.64,-172 222.64,-172 222.64,-166 228.64,-160 234.64,-160 234.64,-160 323.36,-160 323.36,-160 329.36,-160 335.36,-166 335.36,-172 335.36,-172 335.36,-184 335.36,-184 335.36,-190 329.36,-196 323.36,-196"/>
<text xml:space="preserve" text-anchor="middle" x="279" y="-175" font-family="Helvetica,sans-Serif" font-size="10.00">charFun_map_sub_le</text>
</a>
</g>
</g>
<!-- n9&#45;&gt;n4 -->
<g id="edge4" class="edge">
<title>n9&#45;&gt;n4</title>
<path fill="none" stroke="#64748b" d="M229.8,-159.52C202.19,-149.71 167.63,-137.43 138.86,-127.21"/>
<polygon fill="#64748b" stroke="#64748b" points="139.76,-124.92 132.34,-124.89 138.12,-129.54 139.76,-124.92"/>
</g>
<!-- n9&#45;&gt;n5 -->
<g id="edge6" class="edge">
<title>n9&#45;&gt;n5</title>
<path fill="none" stroke="#64748b" d="M222.27,-160.58C204.66,-152.52 187.2,-140.8 177,-124 164.55,-103.5 176.72,-77.42 189.48,-58.8"/>
<polygon fill="#64748b" stroke="#64748b" points="191.17,-60.64 193.27,-53.53 187.19,-57.78 191.17,-60.64"/>
</g>
<!-- n9&#45;&gt;n6 -->
<g id="edge5" class="edge">
<title>n9&#45;&gt;n6</title>
<path fill="none" stroke="#64748b" d="M272.08,-159.7C268.72,-151.3 264.63,-141.07 260.94,-131.86"/>
<polygon fill="#64748b" stroke="#64748b" points="263.28,-131.1 258.4,-125.51 258.73,-132.92 263.28,-131.1"/>
</g>
<!-- n9&#45;&gt;n7 -->
<g id="edge7" class="edge">
<title>n9&#45;&gt;n7</title>
<path fill="none" stroke="#64748b" d="M304.48,-159.52C317.96,-150.26 334.66,-138.8 349.02,-128.95"/>
<polygon fill="#64748b" stroke="#64748b" points="350.22,-131.1 354.6,-125.12 347.44,-127.06 350.22,-131.1"/>
</g>
<!-- n9&#45;&gt;n8 -->
<g id="edge8" class="edge">
<title>n9&#45;&gt;n8</title>
<path fill="none" stroke="#64748b" d="M334.7,-159.52C366.35,-149.58 406.08,-137.11 438.88,-126.81"/>
<polygon fill="#64748b" stroke="#64748b" points="439.24,-129.27 445.18,-124.84 437.77,-124.59 439.24,-129.27"/>
</g>
<!-- n10 -->
<g id="node11" class="node">
<title>n10</title>
<g id="a_node11"><a xlink:href="vscode://vscode-remote/wsl+Ubuntu/home/gavin/statlib/Statlib/Semiparametric/asymptotic_linearity_slutsky.lean:34" xlink:title="theorem · Statlib/Semiparametric/asymptotic_linearity_slutsky.lean:34" target="_blank">
<path fill="#ffe6a3" stroke="#d4a017" d="M580.97,-268C580.97,-268 465.03,-268 465.03,-268 459.03,-268 453.03,-262 453.03,-256 453.03,-256 453.03,-244 453.03,-244 453.03,-238 459.03,-232 465.03,-232 465.03,-232 580.97,-232 580.97,-232 586.97,-232 592.97,-238 592.97,-244 592.97,-244 592.97,-256 592.97,-256 592.97,-262 586.97,-268 580.97,-268"/>
<text xml:space="preserve" text-anchor="middle" x="523" y="-247" font-family="Helvetica,sans-Serif" font-size="10.00">asymptotic_linearity_slutsky</text>
</a>
</g>
</g>
<!-- n10&#45;&gt;n1 -->
<g id="edge9" class="edge">
<title>n10&#45;&gt;n1</title>
<path fill="none" stroke="#64748b" d="M507.43,-231.7C499.42,-222.8 489.54,-211.82 480.88,-202.2"/>
<polygon fill="#64748b" stroke="#64748b" points="482.91,-200.79 476.41,-197.23 479.27,-204.07 482.91,-200.79"/>
</g>
<!-- n10&#45;&gt;n2 -->
<g id="edge10" class="edge">
<title>n10&#45;&gt;n2</title>
<path fill="none" stroke="#64748b" d="M524.01,-231.69C525.9,-212.51 531.34,-181.46 547,-160 556.27,-147.29 569.6,-136.83 582.82,-128.66"/>
<polygon fill="#64748b" stroke="#64748b" points="584.04,-130.78 588.83,-125.12 581.55,-126.56 584.04,-130.78"/>
</g>
<!-- n10&#45;&gt;n3 -->
<g id="edge11" class="edge">
<title>n10&#45;&gt;n3</title>
<path fill="none" stroke="#64748b" d="M548.98,-231.52C562.73,-222.26 579.75,-210.8 594.39,-200.95"/>
<polygon fill="#64748b" stroke="#64748b" points="595.66,-203.05 600.1,-197.11 592.92,-198.98 595.66,-203.05"/>
</g>
<!-- n10&#45;&gt;n9 -->
<g id="edge12" class="edge">
<title>n10&#45;&gt;n9</title>
<path fill="none" stroke="#64748b" d="M462.06,-231.52C426.1,-221.2 380.61,-208.15 343.97,-197.64"/>
<polygon fill="#64748b" stroke="#64748b" points="344.68,-195.29 337.27,-195.72 343.33,-200 344.68,-195.29"/>
</g>
<!-- n11 -->
<g id="node12" class="node">
<title>n11</title>
<g id="a_node12"><a xlink:href="vscode://vscode-remote/wsl+Ubuntu/home/gavin/statlib/Statlib/Semiparametric/iid_empirical_sum_clt_axiom.lean:36" xlink:title="axiom · Statlib/Semiparametric/iid_empirical_sum_clt_axiom.lean:36" target="_blank">
<path fill="#ffd6d6" stroke="#c0392b" d="M762.91,-268C762.91,-268 643.09,-268 643.09,-268 637.09,-268 631.09,-262 631.09,-256 631.09,-256 631.09,-244 631.09,-244 631.09,-238 637.09,-232 643.09,-232 643.09,-232 762.91,-232 762.91,-232 768.91,-232 774.91,-238 774.91,-244 774.91,-244 774.91,-256 774.91,-256 774.91,-262 768.91,-268 762.91,-268"/>
<text xml:space="preserve" text-anchor="middle" x="703" y="-247" font-family="Helvetica,sans-Serif" font-size="10.00">iid_empirical_sum_clt_axiom</text>
</a>
</g>
</g>
<!-- n11&#45;&gt;n0 -->
<g id="edge13" class="edge">
<title>n11&#45;&gt;n0</title>
<path fill="none" stroke="#64748b" d="M710.13,-231.58C714.09,-221.36 718.84,-208.11 722,-196 727.52,-174.89 731.47,-150.42 733.93,-132.49"/>
<polygon fill="#64748b" stroke="#64748b" points="736.33,-133.01 734.82,-125.75 731.47,-132.37 736.33,-133.01"/>
</g>
<!-- n11&#45;&gt;n2 -->
<g id="edge14" class="edge">
<title>n11&#45;&gt;n2</title>
<path fill="none" stroke="#64748b" d="M708.68,-231.81C713.83,-213.01 718.94,-182.55 707,-160 700.21,-147.18 688.78,-136.88 676.73,-128.9"/>
<polygon fill="#64748b" stroke="#64748b" points="678.12,-126.88 670.88,-125.27 675.53,-131.04 678.12,-126.88"/>
</g>
<!-- n11&#45;&gt;n3 -->
<g id="edge15" class="edge">
<title>n11&#45;&gt;n3</title>
<path fill="none" stroke="#64748b" d="M684.21,-231.7C674.44,-222.69 662.36,-211.57 651.83,-201.87"/>
<polygon fill="#64748b" stroke="#64748b" points="653.76,-200.31 646.95,-197.37 650.44,-203.92 653.76,-200.31"/>
</g>
<!-- n12 -->
<g id="node13" class="node">
<title>n12</title>
<g id="a_node13"><a xlink:href="vscode://vscode-remote/wsl+Ubuntu/home/gavin/statlib/Statlib/Semiparametric/influence_function_asymptotic_normality.lean:28" xlink:title="theorem · Statlib/Semiparametric/influence_function_asymptotic_normality.lean:28" target="_blank">
<path fill="#ffe6a3" stroke="#d4a017" stroke-width="3" d="M609.05,-340C609.05,-340 436.95,-340 436.95,-340 430.95,-340 424.95,-334 424.95,-328 424.95,-328 424.95,-316 424.95,-316 424.95,-310 430.95,-304 436.95,-304 436.95,-304 609.05,-304 609.05,-304 615.05,-304 621.05,-310 621.05,-316 621.05,-316 621.05,-328 621.05,-328 621.05,-334 615.05,-340 609.05,-340"/>
<text xml:space="preserve" text-anchor="middle" x="523" y="-319" font-family="Helvetica,sans-Serif" font-size="10.00">influence_function_asymptotic_normality</text>
</a>
</g>
</g>
<!-- n12&#45;&gt;n1 -->
<g id="edge16" class="edge">
<title>n12&#45;&gt;n1</title>
<path fill="none" stroke="#64748b" d="M480.24,-302.67C466.08,-294.3 451.93,-282.86 444,-268 433.45,-248.21 439.65,-222.79 447.2,-204.19"/>
<polygon fill="#64748b" stroke="#64748b" points="449.43,-205.2 449.99,-197.81 444.94,-203.24 449.43,-205.2"/>
</g>
<!-- n12&#45;&gt;n2 -->
<g id="edge17" class="edge">
<title>n12&#45;&gt;n2</title>
<path fill="none" stroke="#64748b" d="M482.69,-302.73C466.23,-293.89 447.85,-282.12 434,-268 398.05,-231.34 360.56,-199.79 393,-160 443.17,-98.45 490.82,-142.67 568,-124 568.37,-123.91 568.75,-123.82 569.13,-123.73"/>
<polygon fill="#64748b" stroke="#64748b" points="569.49,-126.16 575.68,-122.08 568.3,-121.41 569.49,-126.16"/>
</g>
<!-- n12&#45;&gt;n3 -->
<g id="edge18" class="edge">
<title>n12&#45;&gt;n3</title>
<path fill="none" stroke="#64748b" d="M561.6,-302.58C576.13,-293.92 591.63,-282.31 602,-268 615.55,-249.29 621.77,-223.48 624.61,-204.47"/>
<polygon fill="#64748b" stroke="#64748b" points="627.01,-205.03 625.5,-197.77 622.15,-204.38 627.01,-205.03"/>
</g>
<!-- n12&#45;&gt;n10 -->
<g id="edge19" class="edge">
<title>n12&#45;&gt;n10</title>
<path fill="none" stroke="#64748b" d="M523,-302.61C523,-294.59 523,-285.05 523,-276.37"/>
<polygon fill="#64748b" stroke="#64748b" points="525.45,-276.58 523,-269.58 520.55,-276.58 525.45,-276.58"/>
</g>
<!-- n12&#45;&gt;n11 -->
<g id="edge20" class="edge">
<title>n12&#45;&gt;n11</title>
<path fill="none" stroke="#64748b" d="M570.29,-302.61C594.93,-293.03 625.13,-281.28 650.49,-271.42"/>
<polygon fill="#64748b" stroke="#64748b" points="651.14,-273.79 656.78,-268.97 649.37,-269.23 651.14,-273.79"/>
</g>
</g>
</svg>
