<?xml version="1.0" encoding="UTF-8" standalone="no"?>
<!DOCTYPE svg PUBLIC "-//W3C//DTD SVG 1.1//EN"
 "http://www.w3.org/Graphics/SVG/1.1/DTD/svg11.dtd">
<!-- Generated by graphviz version 15.0.0 (20260523.1842)
 -->
<!-- Title: l1_regression_rate_of_proxy_structured_master_bound Pages: 1 -->
<svg width="732pt" height="698pt"
 viewBox="0.00 0.00 732.00 698.00" xmlns="http://www.w3.org/2000/svg" xmlns:xlink="http://www.w3.org/1999/xlink">
<g id="graph0" class="graph" transform="scale(1 1) rotate(0) translate(4 694)">
<title>l1_regression_rate_of_proxy_structured_master_bound</title>
<polygon fill="white" stroke="none" points="-4,4 -4,-694 728,-694 728,4 -4,4"/>
<text xml:space="preserve" text-anchor="middle" x="362" y="-673.4" font-family="Helvetica,sans-Serif" font-size="14.00">Proof narrative — l1_regression_rate_of_proxy_structured_master_bound &#160;(11 decls)</text>
<g id="clust1" class="cluster">
<title>cluster_0</title>
<path fill="none" stroke="#cbd5e1" stroke-dasharray="5,2" d="M20,-8C20,-8 704,-8 704,-8 710,-8 716,-14 716,-20 716,-20 716,-645.2 716,-645.2 716,-651.2 710,-657.2 704,-657.2 704,-657.2 20,-657.2 20,-657.2 14,-657.2 8,-651.2 8,-645.2 8,-645.2 8,-20 8,-20 8,-14 14,-8 20,-8"/>
<text xml:space="preserve" text-anchor="middle" x="362" y="-643.3" font-family="Helvetica,sans-Serif" font-size="11.00">Regression</text>
</g>
<!-- n0 -->
<g id="node1" class="node">
<title>n0</title>
<g id="a_node1"><a xlink:href="vscode://vscode-remote/wsl+Ubuntu/home/gavin/statlib/Statlib/Regression/Basic.lean:29" xlink:title="structure · Statlib/Regression/Basic.lean:29" target="_blank">
<path fill="#e8dcff" stroke="#8b5cf6" d="M347.91,-52C347.91,-52 278.09,-52 278.09,-52 272.09,-52 266.09,-46 266.09,-40 266.09,-40 266.09,-28 266.09,-28 266.09,-22 272.09,-16 278.09,-16 278.09,-16 347.91,-16 347.91,-16 353.91,-16 359.91,-22 359.91,-28 359.91,-28 359.91,-40 359.91,-40 359.91,-46 353.91,-52 347.91,-52"/>
<text xml:space="preserve" text-anchor="middle" x="313" y="-31" font-family="Helvetica,sans-Serif" font-size="10.00">RegressionModel</text>
</a>
</g>
</g>
<!-- n1 -->
<g id="node2" class="node">
<title>n1</title>
<g id="a_node2"><a xlink:href="vscode://vscode-remote/wsl+Ubuntu/home/gavin/statlib/Statlib/Regression/estimationErrorUpper.lean:11" xlink:title="def · Statlib/Regression/estimationErrorUpper.lean:11" target="_blank">
<path fill="#d6e9ff" stroke="#3b82f6" d="M215.52,-196C215.52,-196 128.48,-196 128.48,-196 122.48,-196 116.48,-190 116.48,-184 116.48,-184 116.48,-172 116.48,-172 116.48,-166 122.48,-160 128.48,-160 128.48,-160 215.52,-160 215.52,-160 221.52,-160 227.52,-166 227.52,-172 227.52,-172 227.52,-184 227.52,-184 227.52,-190 221.52,-196 215.52,-196"/>
<text xml:space="preserve" text-anchor="middle" x="172" y="-175" font-family="Helvetica,sans-Serif" font-size="10.00">estimationErrorUpper</text>
</a>
</g>
</g>
<!-- n1&#45;&gt;n0 -->
<g id="edge1" class="edge">
<title>n1&#45;&gt;n0</title>
<path fill="none" stroke="#64748b" d="M183.44,-159.84C196.41,-141.07 218.78,-110.64 242,-88 253.43,-76.86 267.26,-66.04 279.67,-57.11"/>
<polygon fill="#64748b" stroke="#64748b" points="280.85,-59.27 285.15,-53.23 278.02,-55.27 280.85,-59.27"/>
</g>
<!-- n2 -->
<g id="node3" class="node">
<title>n2</title>
<g id="a_node3"><a xlink:href="vscode://vscode-remote/wsl+Ubuntu/home/gavin/statlib/Statlib/Regression/Basic.lean:44" xlink:title="def · Statlib/Regression/Basic.lean:44" target="_blank">
<path fill="#d6e9ff" stroke="#3b82f6" d="M362.28,-124C362.28,-124 319.72,-124 319.72,-124 313.72,-124 307.72,-118 307.72,-112 307.72,-112 307.72,-100 307.72,-100 307.72,-94 313.72,-88 319.72,-88 319.72,-88 362.28,-88 362.28,-88 368.28,-88 374.28,-94 374.28,-100 374.28,-100 374.28,-112 374.28,-112 374.28,-118 368.28,-124 362.28,-124"/>
<text xml:space="preserve" text-anchor="middle" x="341" y="-103" font-family="Helvetica,sans-Serif" font-size="10.00">excessRisk</text>
</a>
</g>
</g>
<!-- n2&#45;&gt;n0 -->
<g id="edge2" class="edge">
<title>n2&#45;&gt;n0</title>
<path fill="none" stroke="#64748b" d="M334.08,-87.7C330.72,-79.3 326.63,-69.07 322.94,-59.86"/>
<polygon fill="#64748b" stroke="#64748b" points="325.28,-59.1 320.4,-53.51 320.73,-60.92 325.28,-59.1"/>
</g>
<!-- n3 -->
<g id="node4" class="node">
<title>n3</title>
<g id="a_node4"><a xlink:href="vscode://vscode-remote/wsl+Ubuntu/home/gavin/statlib/Statlib/Regression/approximationError.lean:10" xlink:title="def · Statlib/Regression/approximationError.lean:10" target="_blank">
<path fill="#d6e9ff" stroke="#3b82f6" d="M625.52,-196C625.52,-196 548.48,-196 548.48,-196 542.48,-196 536.48,-190 536.48,-184 536.48,-184 536.48,-172 536.48,-172 536.48,-166 542.48,-160 548.48,-160 548.48,-160 625.52,-160 625.52,-160 631.52,-160 637.52,-166 637.52,-172 637.52,-172 637.52,-184 637.52,-184 637.52,-190 631.52,-196 625.52,-196"/>
<text xml:space="preserve" text-anchor="middle" x="587" y="-175" font-family="Helvetica,sans-Serif" font-size="10.00">approximationError</text>
</a>
</g>
</g>
<!-- n3&#45;&gt;n0 -->
<g id="edge3" class="edge">
<title>n3&#45;&gt;n0</title>
<path fill="none" stroke="#64748b" d="M565.7,-159.78C540.96,-140.38 498.36,-108.87 458,-88 429.5,-73.27 395.96,-60.73 368.32,-51.55"/>
<polygon fill="#64748b" stroke="#64748b" points="369.17,-49.25 361.75,-49.4 367.64,-53.9 369.17,-49.25"/>
</g>
<!-- n3&#45;&gt;n2 -->
<g id="edge4" class="edge">
<title>n3&#45;&gt;n2</title>
<path fill="none" stroke="#64748b" d="M536.03,-162.5C490.64,-149.58 425.05,-130.92 382.72,-118.87"/>
<polygon fill="#64748b" stroke="#64748b" points="383.44,-116.53 376.03,-116.97 382.09,-121.24 383.44,-116.53"/>
</g>
<!-- n4 -->
<g id="node5" class="node">
<title>n4</title>
<g id="a_node5"><a xlink:href="vscode://vscode-remote/wsl+Ubuntu/home/gavin/statlib/Statlib/Regression/master_error_bound.lean:17" xlink:title="theorem · Statlib/Regression/master_error_bound.lean:17" target="_blank">
<path fill="#ffe6a3" stroke="#d4a017" d="M310.3,-268C310.3,-268 227.7,-268 227.7,-268 221.7,-268 215.7,-262 215.7,-256 215.7,-256 215.7,-244 215.7,-244 215.7,-238 221.7,-232 227.7,-232 227.7,-232 310.3,-232 310.3,-232 316.3,-232 322.3,-238 322.3,-244 322.3,-244 322.3,-256 322.3,-256 322.3,-262 316.3,-268 310.3,-268"/>
<text xml:space="preserve" text-anchor="middle" x="269" y="-247" font-family="Helvetica,sans-Serif" font-size="10.00">master_error_bound</text>
</a>
</g>
</g>
<!-- n4&#45;&gt;n0 -->
<g id="edge5" class="edge">
<title>n4&#45;&gt;n0</title>
<path fill="none" stroke="#64748b" d="M271.82,-231.52C276.7,-201.87 287.33,-139.87 299,-88 301.06,-78.85 303.6,-68.9 305.96,-60.11"/>
<polygon fill="#64748b" stroke="#64748b" points="308.27,-60.96 307.74,-53.57 303.54,-59.68 308.27,-60.96"/>
</g>
<!-- n4&#45;&gt;n1 -->
<g id="edge8" class="edge">
<title>n4&#45;&gt;n1</title>
<path fill="none" stroke="#64748b" d="M245.02,-231.7C232.31,-222.53 216.56,-211.16 202.94,-201.33"/>
<polygon fill="#64748b" stroke="#64748b" points="204.38,-199.34 197.27,-197.23 201.51,-203.32 204.38,-199.34"/>
</g>
<!-- n4&#45;&gt;n2 -->
<g id="edge6" class="edge">
<title>n4&#45;&gt;n2</title>
<path fill="none" stroke="#64748b" d="M277.83,-231.59C290.53,-206.54 314.01,-160.22 328.49,-131.66"/>
<polygon fill="#64748b" stroke="#64748b" points="330.66,-132.81 331.64,-125.46 326.29,-130.6 330.66,-132.81"/>
</g>
<!-- n4&#45;&gt;n3 -->
<g id="edge7" class="edge">
<title>n4&#45;&gt;n3</title>
<path fill="none" stroke="#64748b" d="M322.58,-237.2C379.47,-224.68 469.13,-204.95 528,-191.99"/>
<polygon fill="#64748b" stroke="#64748b" points="528.3,-194.43 534.61,-190.53 527.25,-189.64 528.3,-194.43"/>
</g>
<!-- n5 -->
<g id="node6" class="node">
<title>n5</title>
<g id="a_node6"><a xlink:href="vscode://vscode-remote/wsl+Ubuntu/home/gavin/statlib/Statlib/Regression/master_error_bound_localized.lean:14" xlink:title="theorem · Statlib/Regression/master_error_bound_localized.lean:14" target="_blank">
<path fill="#ffe6a3" stroke="#d4a017" d="M335.54,-340C335.54,-340 208.46,-340 208.46,-340 202.46,-340 196.46,-334 196.46,-328 196.46,-328 196.46,-316 196.46,-316 196.46,-310 202.46,-304 208.46,-304 208.46,-304 335.54,-304 335.54,-304 341.54,-304 347.54,-310 347.54,-316 347.54,-316 347.54,-328 347.54,-328 347.54,-334 341.54,-340 335.54,-340"/>
<text xml:space="preserve" text-anchor="middle" x="272" y="-319" font-family="Helvetica,sans-Serif" font-size="10.00">master_error_bound_localized</text>
</a>
</g>
</g>
<!-- n5&#45;&gt;n0 -->
<g id="edge9" class="edge">
<title>n5&#45;&gt;n0</title>
<path fill="none" stroke="#64748b" d="M240.08,-303.54C227.31,-294.72 214,-282.73 207,-268 200.14,-253.55 201.55,-247.04 207,-232 214.09,-212.42 225.8,-213.56 237,-196 237.25,-195.61 279.86,-105.27 301.16,-60.1"/>
<polygon fill="#64748b" stroke="#64748b" points="303.34,-61.23 304.11,-53.85 298.91,-59.14 303.34,-61.23"/>
</g>
<!-- n5&#45;&gt;n1 -->
<g id="edge12" class="edge">
<title>n5&#45;&gt;n1</title>
<path fill="none" stroke="#64748b" d="M233.76,-303.67C218.63,-295 202.4,-283.09 192,-268 179.12,-249.31 174.4,-223.66 172.73,-204.69"/>
<polygon fill="#64748b" stroke="#64748b" points="175.18,-204.56 172.25,-197.75 170.29,-204.9 175.18,-204.56"/>
</g>
<!-- n5&#45;&gt;n2 -->
<g id="edge10" class="edge">
<title>n5&#45;&gt;n2</title>
<path fill="none" stroke="#64748b" d="M299.4,-303.69C311.28,-294.61 324.05,-282.38 331,-268 352.27,-224.03 349.2,-165.24 345.08,-132.24"/>
<polygon fill="#64748b" stroke="#64748b" points="347.54,-132.14 344.17,-125.53 342.68,-132.8 347.54,-132.14"/>
</g>
<!-- n5&#45;&gt;n3 -->
<g id="edge11" class="edge">
<title>n5&#45;&gt;n3</title>
<path fill="none" stroke="#64748b" d="M347.97,-317.95C427.97,-313.04 546.51,-300.38 577,-268 592.69,-251.33 593.64,-224.41 591.62,-204.53"/>
<polygon fill="#64748b" stroke="#64748b" points="594.07,-204.36 590.75,-197.72 589.21,-204.98 594.07,-204.36"/>
</g>
<!-- n5&#45;&gt;n4 -->
<g id="edge13" class="edge">
<title>n5&#45;&gt;n4</title>
<path fill="none" stroke="#64748b" d="M271.26,-303.7C270.91,-295.47 270.48,-285.48 270.09,-276.42"/>
<polygon fill="#64748b" stroke="#64748b" points="272.55,-276.51 269.8,-269.62 267.65,-276.72 272.55,-276.51"/>
</g>
<!-- n6 -->
<g id="node7" class="node">
<title>n6</title>
<g id="a_node7"><a xlink:href="vscode://vscode-remote/wsl+Ubuntu/home/gavin/statlib/Statlib/Regression/master_error_bound_localized_structured.lean:14" xlink:title="theorem · Statlib/Regression/master_error_bound_localized_structured.lean:14" target="_blank">
<path fill="#ffe6a3" stroke="#d4a017" d="M365.55,-412C365.55,-412 188.45,-412 188.45,-412 182.45,-412 176.45,-406 176.45,-400 176.45,-400 176.45,-388 176.45,-388 176.45,-382 182.45,-376 188.45,-376 188.45,-376 365.55,-376 365.55,-376 371.55,-376 377.55,-382 377.55,-388 377.55,-388 377.55,-400 377.55,-400 377.55,-406 371.55,-412 365.55,-412"/>
<text xml:space="preserve" text-anchor="middle" x="277" y="-391" font-family="Helvetica,sans-Serif" font-size="10.00">master_error_bound_localized_structured</text>
</a>
</g>
</g>
<!-- n6&#45;&gt;n0 -->
<g id="edge14" class="edge">
<title>n6&#45;&gt;n0</title>
<path fill="none" stroke="#64748b" d="M221.62,-375.58C202.35,-367.3 181.87,-355.7 167,-340 109.01,-278.78 68.55,-235.05 107,-160 136.96,-101.51 207.72,-67.73 257.93,-50.37"/>
<polygon fill="#64748b" stroke="#64748b" points="258.51,-52.75 264.37,-48.2 256.95,-48.11 258.51,-52.75"/>
</g>
<!-- n6&#45;&gt;n1 -->
<g id="edge17" class="edge">
<title>n6&#45;&gt;n1</title>
<path fill="none" stroke="#64748b" d="M231.36,-375.74C214.98,-367.34 197.89,-355.62 187,-340 158.74,-299.45 162.26,-238.51 167.21,-204.42"/>
<polygon fill="#64748b" stroke="#64748b" points="169.57,-205.15 168.25,-197.85 164.73,-204.39 169.57,-205.15"/>
</g>
<!-- n6&#45;&gt;n2 -->
<g id="edge15" class="edge">
<title>n6&#45;&gt;n2</title>
<path fill="none" stroke="#64748b" d="M319.03,-375.52C333.78,-367.1 348.72,-355.41 357,-340 393.39,-272.24 367.07,-176.97 350.99,-132.16"/>
<polygon fill="#64748b" stroke="#64748b" points="353.37,-131.54 348.65,-125.82 348.77,-133.23 353.37,-131.54"/>
</g>
<!-- n6&#45;&gt;n3 -->
<g id="edge16" class="edge">
<title>n6&#45;&gt;n3</title>
<path fill="none" stroke="#64748b" d="M377.99,-381.9C450.04,-368.12 542.16,-337.23 589,-268 601.47,-249.57 599.28,-223.73 594.98,-204.63"/>
<polygon fill="#64748b" stroke="#64748b" points="597.36,-204.04 593.27,-197.85 592.61,-205.24 597.36,-204.04"/>
</g>
<!-- n6&#45;&gt;n5 -->
<g id="edge18" class="edge">
<title>n6&#45;&gt;n5</title>
<path fill="none" stroke="#64748b" d="M275.76,-375.7C275.18,-367.47 274.46,-357.48 273.82,-348.42"/>
<polygon fill="#64748b" stroke="#64748b" points="276.27,-348.42 273.33,-341.61 271.38,-348.77 276.27,-348.42"/>
</g>
<!-- n7 -->
<g id="node8" class="node">
<title>n7</title>
<g id="a_node8"><a xlink:href="vscode://vscode-remote/wsl+Ubuntu/home/gavin/statlib/Statlib/Regression/regression_rate_of_master_bound.lean:11" xlink:title="theorem · Statlib/Regression/regression_rate_of_master_bound.lean:11" target="_blank">
<path fill="#ffe6a3" stroke="#d4a017" d="M556.44,-268C556.44,-268 411.56,-268 411.56,-268 405.56,-268 399.56,-262 399.56,-256 399.56,-256 399.56,-244 399.56,-244 399.56,-238 405.56,-232 411.56,-232 411.56,-232 556.44,-232 556.44,-232 562.44,-232 568.44,-238 568.44,-244 568.44,-244 568.44,-256 568.44,-256 568.44,-262 562.44,-268 556.44,-268"/>
<text xml:space="preserve" text-anchor="middle" x="484" y="-247" font-family="Helvetica,sans-Serif" font-size="10.00">regression_rate_of_master_bound</text>
</a>
</g>
</g>
<!-- n7&#45;&gt;n0 -->
<g id="edge19" class="edge">
<title>n7&#45;&gt;n0</title>
<path fill="none" stroke="#64748b" d="M475.77,-231.63C460.47,-200.52 425.34,-134.23 383,-88 372.59,-76.63 359.47,-65.97 347.42,-57.24"/>
<polygon fill="#64748b" stroke="#64748b" points="348.84,-55.24 341.71,-53.2 346.01,-59.24 348.84,-55.24"/>
</g>
<!-- n7&#45;&gt;n1 -->
<g id="edge22" class="edge">
<title>n7&#45;&gt;n1</title>
<path fill="none" stroke="#64748b" d="M406.07,-231.52C353.58,-219.74 285.21,-204.4 235.92,-193.34"/>
<polygon fill="#64748b" stroke="#64748b" points="236.72,-191.01 229.35,-191.87 235.65,-195.79 236.72,-191.01"/>
</g>
<!-- n7&#45;&gt;n2 -->
<g id="edge20" class="edge">
<title>n7&#45;&gt;n2</title>
<path fill="none" stroke="#64748b" d="M466.47,-231.59C440.7,-206.01 392.59,-158.23 364.02,-129.86"/>
<polygon fill="#64748b" stroke="#64748b" points="366,-128.37 359.31,-125.18 362.55,-131.85 366,-128.37"/>
</g>
<!-- n7&#45;&gt;n3 -->
<g id="edge21" class="edge">
<title>n7&#45;&gt;n3</title>
<path fill="none" stroke="#64748b" d="M509.73,-231.52C523.35,-222.26 540.21,-210.8 554.7,-200.95"/>
<polygon fill="#64748b" stroke="#64748b" points="555.94,-203.07 560.35,-197.11 553.18,-199.02 555.94,-203.07"/>
</g>
<!-- n8 -->
<g id="node9" class="node">
<title>n8</title>
<g id="a_node9"><a xlink:href="vscode://vscode-remote/wsl+Ubuntu/home/gavin/statlib/Statlib/Regression/regression_rate_of_deterministic_structured_master_bound.lean:11" xlink:title="theorem · Statlib/Regression/regression_rate_of_deterministic_structured_master_bound.lean:11" target="_blank">
<path fill="#ffe6a3" stroke="#d4a017" d="M525.29,-484C525.29,-484 268.71,-484 268.71,-484 262.71,-484 256.71,-478 256.71,-472 256.71,-472 256.71,-460 256.71,-460 256.71,-454 262.71,-448 268.71,-448 268.71,-448 525.29,-448 525.29,-448 531.29,-448 537.29,-454 537.29,-460 537.29,-460 537.29,-472 537.29,-472 537.29,-478 531.29,-484 525.29,-484"/>
<text xml:space="preserve" text-anchor="middle" x="397" y="-463" font-family="Helvetica,sans-Serif" font-size="10.00">regression_rate_of_deterministic_structured_master_bound</text>
</a>
</g>
</g>
<!-- n8&#45;&gt;n0 -->
<g id="edge23" class="edge">
<title>n8&#45;&gt;n0</title>
<path fill="none" stroke="#64748b" d="M440.66,-447.62C460.89,-438.52 484.67,-426.3 504,-412 607.53,-335.41 716.27,-268.56 647,-160 587.23,-66.33 447.12,-42.56 368.69,-36.72"/>
<polygon fill="#64748b" stroke="#64748b" points="369.03,-34.29 361.88,-36.26 368.69,-39.18 369.03,-34.29"/>
</g>
<!-- n8&#45;&gt;n1 -->
<g id="edge24" class="edge">
<title>n8&#45;&gt;n1</title>
<path fill="none" stroke="#64748b" d="M259.82,-447.51C218.3,-439.3 180.18,-427.76 167,-412 117.17,-352.41 144.89,-251.17 161.87,-204.25"/>
<polygon fill="#64748b" stroke="#64748b" points="164.11,-205.24 164.26,-197.83 159.52,-203.53 164.11,-205.24"/>
</g>
<!-- n8&#45;&gt;n2 -->
<g id="edge25" class="edge">
<title>n8&#45;&gt;n2</title>
<path fill="none" stroke="#64748b" d="M396.41,-447.85C394.32,-391.82 386.55,-214.56 370,-160 367.03,-150.22 362.12,-140.2 357.18,-131.55"/>
<polygon fill="#64748b" stroke="#64748b" points="359.34,-130.39 353.65,-125.64 355.13,-132.9 359.34,-130.39"/>
</g>
<!-- n8&#45;&gt;n3 -->
<g id="edge26" class="edge">
<title>n8&#45;&gt;n3</title>
<path fill="none" stroke="#64748b" d="M426.11,-447.7C473.01,-417.91 563.61,-351.96 599,-268 607.56,-247.69 603.01,-222.68 597.22,-204.34"/>
<polygon fill="#64748b" stroke="#64748b" points="599.58,-203.69 595,-197.86 594.95,-205.28 599.58,-203.69"/>
</g>
<!-- n8&#45;&gt;n6 -->
<g id="edge27" class="edge">
<title>n8&#45;&gt;n6</title>
<path fill="none" stroke="#64748b" d="M367.03,-447.52C350.87,-438.09 330.8,-426.38 313.71,-416.41"/>
<polygon fill="#64748b" stroke="#64748b" points="315.18,-414.43 307.9,-413.02 312.71,-418.67 315.18,-414.43"/>
</g>
<!-- n8&#45;&gt;n7 -->
<g id="edge28" class="edge">
<title>n8&#45;&gt;n7</title>
<path fill="none" stroke="#64748b" d="M403.97,-447.85C419.31,-410.13 456.02,-319.83 473.89,-275.88"/>
<polygon fill="#64748b" stroke="#64748b" points="476.06,-277.04 476.42,-269.63 471.52,-275.2 476.06,-277.04"/>
</g>
<!-- n9 -->
<g id="node10" class="node">
<title>n9</title>
<g id="a_node10"><a xlink:href="vscode://vscode-remote/wsl+Ubuntu/home/gavin/statlib/Statlib/Regression/l1_regression_rate_of_deterministic_structured_master_bound.lean:11" xlink:title="theorem · Statlib/Regression/l1_regression_rate_of_deterministic_structured_master_bound.lean:11" target="_blank">
<path fill="#ffe6a3" stroke="#d4a017" d="M454.97,-556C454.97,-556 185.03,-556 185.03,-556 179.03,-556 173.03,-550 173.03,-544 173.03,-544 173.03,-532 173.03,-532 173.03,-526 179.03,-520 185.03,-520 185.03,-520 454.97,-520 454.97,-520 460.97,-520 466.97,-526 466.97,-532 466.97,-532 466.97,-544 466.97,-544 466.97,-550 460.97,-556 454.97,-556"/>
<text xml:space="preserve" text-anchor="middle" x="320" y="-535" font-family="Helvetica,sans-Serif" font-size="10.00">l1_regression_rate_of_deterministic_structured_master_bound</text>
</a>
</g>
</g>
<!-- n9&#45;&gt;n0 -->
<g id="edge29" class="edge">
<title>n9&#45;&gt;n0</title>
<path fill="none" stroke="#64748b" d="M444.38,-519.51C494.72,-510.55 545.72,-498.46 566,-484 664.55,-413.73 707,-372.04 707,-251 707,-251 707,-251 707,-177 707,-113.77 653.46,-114.39 596,-88 521.96,-54 427.49,-41.81 368.61,-37.44"/>
<polygon fill="#64748b" stroke="#64748b" points="368.85,-35 361.7,-36.96 368.51,-39.89 368.85,-35"/>
</g>
<!-- n9&#45;&gt;n1 -->
<g id="edge30" class="edge">
<title>n9&#45;&gt;n1</title>
<path fill="none" stroke="#64748b" d="M250.99,-519.55C192.14,-500.03 117,-461.99 117,-395 117,-395 117,-395 117,-321 117,-277.26 139.97,-230.75 156.22,-203.31"/>
<polygon fill="#64748b" stroke="#64748b" points="158.28,-204.65 159.82,-197.39 154.09,-202.11 158.28,-204.65"/>
</g>
<!-- n9&#45;&gt;n2 -->
<g id="edge31" class="edge">
<title>n9&#45;&gt;n2</title>
<path fill="none" stroke="#64748b" d="M199.3,-519.61C175.62,-511.76 152.44,-500.41 134,-484 102,-455.52 97,-437.84 97,-395 97,-395 97,-395 97,-249 97,-209.2 80.46,-189.66 107,-160 132.2,-131.84 239.25,-116.97 299.45,-110.7"/>
<polygon fill="#64748b" stroke="#64748b" points="299.4,-113.17 306.12,-110.02 298.9,-108.29 299.4,-113.17"/>
</g>
<!-- n9&#45;&gt;n3 -->
<g id="edge32" class="edge">
<title>n9&#45;&gt;n3</title>
<path fill="none" stroke="#64748b" d="M443.22,-519.51C487.43,-510.92 530.27,-499.11 546,-484 617.87,-414.99 592.54,-366.72 606,-268 608.16,-252.15 608.74,-247.76 606,-232 604.38,-222.66 601.26,-212.79 598,-204.13"/>
<polygon fill="#64748b" stroke="#64748b" points="600.3,-203.27 595.45,-197.66 595.74,-205.07 600.3,-203.27"/>
</g>
<!-- n9&#45;&gt;n8 -->
<g id="edge33" class="edge">
<title>n9&#45;&gt;n8</title>
<path fill="none" stroke="#64748b" d="M339.03,-519.7C348.94,-510.69 361.17,-499.57 371.84,-489.87"/>
<polygon fill="#64748b" stroke="#64748b" points="373.27,-491.89 376.8,-485.37 369.97,-488.26 373.27,-491.89"/>
</g>
<!-- n10 -->
<g id="node11" class="node">
<title>n10</title>
<g id="a_node11"><a xlink:href="vscode://vscode-remote/wsl+Ubuntu/home/gavin/statlib/Statlib/Regression/l1_regression_rate_of_proxy_structured_master_bound.lean:10" xlink:title="theorem · Statlib/Regression/l1_regression_rate_of_proxy_structured_master_bound.lean:10" target="_blank">
<path fill="#ffe6a3" stroke="#d4a017" stroke-width="3" d="M266.13,-628C266.13,-628 27.87,-628 27.87,-628 21.87,-628 15.87,-622 15.87,-616 15.87,-616 15.87,-604 15.87,-604 15.87,-598 21.87,-592 27.87,-592 27.87,-592 266.13,-592 266.13,-592 272.13,-592 278.13,-598 278.13,-604 278.13,-604 278.13,-616 278.13,-616 278.13,-622 272.13,-628 266.13,-628"/>
<text xml:space="preserve" text-anchor="middle" x="147" y="-607" font-family="Helvetica,sans-Serif" font-size="10.00">l1_regression_rate_of_proxy_structured_master_bound</text>
</a>
</g>
</g>
<!-- n10&#45;&gt;n0 -->
<g id="edge34" class="edge">
<title>n10&#45;&gt;n0</title>
<path fill="none" stroke="#64748b" d="M107.23,-590.62C91.38,-581.84 73.87,-570.13 61,-556 31.29,-523.38 17,-511.13 17,-467 17,-467 17,-467 17,-177 17,-71.51 171.73,-44.33 257.45,-37.37"/>
<polygon fill="#64748b" stroke="#64748b" points="257.47,-39.82 264.26,-36.85 257.1,-34.94 257.47,-39.82"/>
</g>
<!-- n10&#45;&gt;n1 -->
<g id="edge35" class="edge">
<title>n10&#45;&gt;n1</title>
<path fill="none" stroke="#64748b" d="M131.12,-590.68C110.46,-564.91 77,-515.65 77,-467 77,-467 77,-467 77,-321 77,-272.19 116.25,-227.46 144.29,-201.73"/>
<polygon fill="#64748b" stroke="#64748b" points="145.73,-203.73 149.32,-197.23 142.47,-200.08 145.73,-203.73"/>
</g>
<!-- n10&#45;&gt;n2 -->
<g id="edge36" class="edge">
<title>n10&#45;&gt;n2</title>
<path fill="none" stroke="#64748b" d="M119.15,-590.6C107.17,-581.45 93.9,-569.47 85,-556 62.13,-521.41 57,-508.47 57,-467 57,-467 57,-467 57,-249 57,-207.11 56.54,-187.65 88,-160 118.97,-132.78 235.83,-117.33 299.32,-110.78"/>
<polygon fill="#64748b" stroke="#64748b" points="299.31,-113.24 306.03,-110.1 298.82,-108.37 299.31,-113.24"/>
</g>
<!-- n10&#45;&gt;n3 -->
<g id="edge37" class="edge">
<title>n10&#45;&gt;n3</title>
<path fill="none" stroke="#64748b" d="M279.52,-603.18C341.34,-596.63 414.65,-583.2 476,-556 522.83,-535.24 534.02,-524.02 566,-484 627.28,-407.33 608.6,-366.09 612,-268 612.55,-252.01 615.5,-247.61 612,-232 609.85,-222.42 605.78,-212.54 601.53,-203.94"/>
<polygon fill="#64748b" stroke="#64748b" points="603.73,-202.86 598.32,-197.79 599.38,-205.13 603.73,-202.86"/>
</g>
<!-- n10&#45;&gt;n9 -->
<g id="edge38" class="edge">
<title>n10&#45;&gt;n9</title>
<path fill="none" stroke="#64748b" d="M192.45,-590.61C216.03,-581.07 244.9,-569.39 269.21,-559.55"/>
<polygon fill="#64748b" stroke="#64748b" points="269.96,-561.89 275.53,-556.99 268.12,-557.35 269.96,-561.89"/>
</g>
</g>
</svg>
