<?xml version="1.0" encoding="UTF-8" standalone="no"?>
<!DOCTYPE svg PUBLIC "-//W3C//DTD SVG 1.1//EN"
 "http://www.w3.org/Graphics/SVG/1.1/DTD/svg11.dtd">
<!-- Generated by graphviz version 15.0.0 (20260523.1842)
 -->
<!-- Title: lasso_prediction_error Pages: 1 -->
<svg width="622pt" height="555pt"
 viewBox="0.00 0.00 622.00 555.00" xmlns="http://www.w3.org/2000/svg" xmlns:xlink="http://www.w3.org/1999/xlink">
<g id="graph0" class="graph" transform="scale(1 1) rotate(0) translate(4 551.2)">
<title>lasso_prediction_error</title>
<polygon fill="white" stroke="none" points="-4,4 -4,-551.2 618,-551.2 618,4 -4,4"/>
<text xml:space="preserve" text-anchor="middle" x="307" y="-530.6" font-family="Helvetica,sans-Serif" font-size="14.00">Proof narrative — lasso_prediction_error &#160;(12 decls)</text>
<g id="clust1" class="cluster">
<title>cluster_0</title>
<path fill="none" stroke="#cbd5e1" stroke-dasharray="5,2" d="M546,-224C546,-224 594,-224 594,-224 600,-224 606,-230 606,-236 606,-236 606,-357.2 606,-357.2 606,-363.2 600,-369.2 594,-369.2 594,-369.2 546,-369.2 546,-369.2 540,-369.2 534,-363.2 534,-357.2 534,-357.2 534,-236 534,-236 534,-230 540,-224 546,-224"/>
<text xml:space="preserve" text-anchor="middle" x="570" y="-355.3" font-family="Helvetica,sans-Serif" font-size="11.00">HDStats</text>
</g>
<g id="clust2" class="cluster">
<title>cluster_1</title>
<path fill="none" stroke="#cbd5e1" stroke-dasharray="5,2" d="M20,-8C20,-8 482,-8 482,-8 488,-8 494,-14 494,-20 494,-20 494,-502.4 494,-502.4 494,-508.4 488,-514.4 482,-514.4 482,-514.4 20,-514.4 20,-514.4 14,-514.4 8,-508.4 8,-502.4 8,-502.4 8,-20 8,-20 8,-14 14,-8 20,-8"/>
<text xml:space="preserve" text-anchor="middle" x="251" y="-500.5" font-family="Helvetica,sans-Serif" font-size="11.00">Regression</text>
</g>
<!-- n3 -->
<g id="node1" class="node">
<title>n3</title>
<g id="a_node1"><a xlink:href="vscode://vscode-remote/wsl+Ubuntu/home/gavin/statlib/Statlib/HDStats/Basic.lean:51" xlink:title="noncomputable def · Statlib/HDStats/Basic.lean:51" target="_blank">
<path fill="#d6e9ff" stroke="#3b82f6" d="M584,-268C584,-268 554,-268 554,-268 548,-268 542,-262 542,-256 542,-256 542,-244 542,-244 542,-238 548,-232 554,-232 554,-232 584,-232 584,-232 590,-232 596,-238 596,-244 596,-244 596,-256 596,-256 596,-262 590,-268 584,-268"/>
<text xml:space="preserve" text-anchor="middle" x="569" y="-247" font-family="Helvetica,sans-Serif" font-size="10.00">support</text>
</a>
</g>
</g>
<!-- n4 -->
<g id="node2" class="node">
<title>n4</title>
<g id="a_node2"><a xlink:href="vscode://vscode-remote/wsl+Ubuntu/home/gavin/statlib/Statlib/HDStats/Basic.lean:56" xlink:title="def · Statlib/HDStats/Basic.lean:56" target="_blank">
<path fill="#d6e9ff" stroke="#3b82f6" d="M585.73,-340C585.73,-340 554.27,-340 554.27,-340 548.27,-340 542.27,-334 542.27,-328 542.27,-328 542.27,-316 542.27,-316 542.27,-310 548.27,-304 554.27,-304 554.27,-304 585.73,-304 585.73,-304 591.73,-304 597.73,-310 597.73,-316 597.73,-316 597.73,-328 597.73,-328 597.73,-334 591.73,-340 585.73,-340"/>
<text xml:space="preserve" text-anchor="middle" x="570" y="-319" font-family="Helvetica,sans-Serif" font-size="10.00">IsSparse</text>
</a>
</g>
</g>
<!-- n4&#45;&gt;n3 -->
<g id="edge3" class="edge">
<title>n4&#45;&gt;n3</title>
<path fill="none" stroke="#64748b" d="M569.75,-303.7C569.64,-295.47 569.49,-285.48 569.36,-276.42"/>
<polygon fill="#64748b" stroke="#64748b" points="571.82,-276.58 569.27,-269.62 566.92,-276.65 571.82,-276.58"/>
</g>
<!-- n0 -->
<g id="node3" class="node">
<title>n0</title>
<g id="a_node3"><a xlink:href="vscode://vscode-remote/wsl+Ubuntu/home/gavin/statlib/Statlib/Regression/l1Norm.lean:15" xlink:title="def · Statlib/Regression/l1Norm.lean:15" target="_blank">
<path fill="#d6e9ff" stroke="#3b82f6" d="M274,-52C274,-52 244,-52 244,-52 238,-52 232,-46 232,-40 232,-40 232,-28 232,-28 232,-22 238,-16 244,-16 244,-16 274,-16 274,-16 280,-16 286,-22 286,-28 286,-28 286,-40 286,-40 286,-46 280,-52 274,-52"/>
<text xml:space="preserve" text-anchor="middle" x="259" y="-31" font-family="Helvetica,sans-Serif" font-size="10.00">l1Norm</text>
</a>
</g>
</g>
<!-- n1 -->
<g id="node4" class="node">
<title>n1</title>
<g id="a_node4"><a xlink:href="vscode://vscode-remote/wsl+Ubuntu/home/gavin/statlib/Statlib/Regression/lassoLoss.lean:16" xlink:title="noncomputable def · Statlib/Regression/lassoLoss.lean:16" target="_blank">
<path fill="#d6e9ff" stroke="#3b82f6" d="M277.23,-124C277.23,-124 240.77,-124 240.77,-124 234.77,-124 228.77,-118 228.77,-112 228.77,-112 228.77,-100 228.77,-100 228.77,-94 234.77,-88 240.77,-88 240.77,-88 277.23,-88 277.23,-88 283.23,-88 289.23,-94 289.23,-100 289.23,-100 289.23,-112 289.23,-112 289.23,-118 283.23,-124 277.23,-124"/>
<text xml:space="preserve" text-anchor="middle" x="259" y="-103" font-family="Helvetica,sans-Serif" font-size="10.00">lassoLoss</text>
</a>
</g>
</g>
<!-- n1&#45;&gt;n0 -->
<g id="edge1" class="edge">
<title>n1&#45;&gt;n0</title>
<path fill="none" stroke="#64748b" d="M259,-87.7C259,-79.47 259,-69.48 259,-60.42"/>
<polygon fill="#64748b" stroke="#64748b" points="261.45,-60.62 259,-53.62 256.55,-60.62 261.45,-60.62"/>
</g>
<!-- n2 -->
<g id="node5" class="node">
<title>n2</title>
<g id="a_node5"><a xlink:href="vscode://vscode-remote/wsl+Ubuntu/home/gavin/statlib/Statlib/Regression/IsLassoEstimator.lean:15" xlink:title="def · Statlib/Regression/IsLassoEstimator.lean:15" target="_blank">
<path fill="#d6e9ff" stroke="#3b82f6" d="M275.35,-196C275.35,-196 206.65,-196 206.65,-196 200.65,-196 194.65,-190 194.65,-184 194.65,-184 194.65,-172 194.65,-172 194.65,-166 200.65,-160 206.65,-160 206.65,-160 275.35,-160 275.35,-160 281.35,-160 287.35,-166 287.35,-172 287.35,-172 287.35,-184 287.35,-184 287.35,-190 281.35,-196 275.35,-196"/>
<text xml:space="preserve" text-anchor="middle" x="241" y="-175" font-family="Helvetica,sans-Serif" font-size="10.00">IsLassoEstimator</text>
</a>
</g>
</g>
<!-- n2&#45;&gt;n1 -->
<g id="edge2" class="edge">
<title>n2&#45;&gt;n1</title>
<path fill="none" stroke="#64748b" d="M245.45,-159.7C247.59,-151.39 250.19,-141.28 252.54,-132.14"/>
<polygon fill="#64748b" stroke="#64748b" points="254.85,-132.96 254.22,-125.57 250.11,-131.74 254.85,-132.96"/>
</g>
<!-- n5 -->
<g id="node6" class="node">
<title>n5</title>
<g id="a_node6"><a xlink:href="vscode://vscode-remote/wsl+Ubuntu/home/gavin/statlib/Statlib/Regression/RestrictedEigenvalue.lean:18" xlink:title="def · Statlib/Regression/RestrictedEigenvalue.lean:18" target="_blank">
<path fill="#d6e9ff" stroke="#3b82f6" d="M260.25,-340C260.25,-340 173.75,-340 173.75,-340 167.75,-340 161.75,-334 161.75,-328 161.75,-328 161.75,-316 161.75,-316 161.75,-310 167.75,-304 173.75,-304 173.75,-304 260.25,-304 260.25,-304 266.25,-304 272.25,-310 272.25,-316 272.25,-316 272.25,-328 272.25,-328 272.25,-334 266.25,-340 260.25,-340"/>
<text xml:space="preserve" text-anchor="middle" x="217" y="-319" font-family="Helvetica,sans-Serif" font-size="10.00">RestrictedEigenvalue</text>
</a>
</g>
</g>
<!-- n6 -->
<g id="node7" class="node">
<title>n6</title>
<g id="a_node7"><a xlink:href="vscode://vscode-remote/wsl+Ubuntu/home/gavin/statlib/Statlib/Regression/lasso_basic_inequality.lean:31" xlink:title="theorem · Statlib/Regression/lasso_basic_inequality.lean:31" target="_blank">
<path fill="#ffe6a3" stroke="#d4a017" d="M364.03,-268C364.03,-268 271.97,-268 271.97,-268 265.97,-268 259.97,-262 259.97,-256 259.97,-256 259.97,-244 259.97,-244 259.97,-238 265.97,-232 271.97,-232 271.97,-232 364.03,-232 364.03,-232 370.03,-232 376.03,-238 376.03,-244 376.03,-244 376.03,-256 376.03,-256 376.03,-262 370.03,-268 364.03,-268"/>
<text xml:space="preserve" text-anchor="middle" x="318" y="-247" font-family="Helvetica,sans-Serif" font-size="10.00">lasso_basic_inequality</text>
</a>
</g>
</g>
<!-- n6&#45;&gt;n0 -->
<g id="edge5" class="edge">
<title>n6&#45;&gt;n0</title>
<path fill="none" stroke="#64748b" d="M318.66,-231.85C319.22,-201.64 317.71,-137.45 298,-88 293.86,-77.62 287.19,-67.43 280.52,-58.8"/>
<polygon fill="#64748b" stroke="#64748b" points="282.48,-57.33 276.18,-53.42 278.67,-60.41 282.48,-57.33"/>
</g>
<!-- n6&#45;&gt;n1 -->
<g id="edge6" class="edge">
<title>n6&#45;&gt;n1</title>
<path fill="none" stroke="#64748b" d="M315.64,-231.65C312.71,-213.25 306.72,-183.63 296,-160 291.39,-149.84 284.78,-139.58 278.42,-130.82"/>
<polygon fill="#64748b" stroke="#64748b" points="280.49,-129.5 274.32,-125.37 276.57,-132.44 280.49,-129.5"/>
</g>
<!-- n6&#45;&gt;n2 -->
<g id="edge4" class="edge">
<title>n6&#45;&gt;n2</title>
<path fill="none" stroke="#64748b" d="M298.97,-231.7C289.06,-222.69 276.83,-211.57 266.16,-201.87"/>
<polygon fill="#64748b" stroke="#64748b" points="268.03,-200.26 261.2,-197.37 264.73,-203.89 268.03,-200.26"/>
</g>
<!-- n7 -->
<g id="node8" class="node">
<title>n7</title>
<g id="a_node8"><a xlink:href="vscode://vscode-remote/wsl+Ubuntu/home/gavin/statlib/Statlib/Regression/l1Norm_split.lean:14" xlink:title="lemma · Statlib/Regression/l1Norm_split.lean:14" target="_blank">
<path fill="#eef2f6" stroke="#94a3b8" d="M473.79,-268C473.79,-268 426.21,-268 426.21,-268 420.21,-268 414.21,-262 414.21,-256 414.21,-256 414.21,-244 414.21,-244 414.21,-238 420.21,-232 426.21,-232 426.21,-232 473.79,-232 473.79,-232 479.79,-232 485.79,-238 485.79,-244 485.79,-244 485.79,-256 485.79,-256 485.79,-262 479.79,-268 473.79,-268"/>
<text xml:space="preserve" text-anchor="middle" x="450" y="-247" font-family="Helvetica,sans-Serif" font-size="10.00">l1Norm_split</text>
</a>
</g>
</g>
<!-- n7&#45;&gt;n0 -->
<g id="edge7" class="edge">
<title>n7&#45;&gt;n0</title>
<path fill="none" stroke="#64748b" d="M449.42,-231.51C447.4,-199 438.56,-128.88 400,-88 372.16,-58.49 326.28,-45.28 294.45,-39.45"/>
<polygon fill="#64748b" stroke="#64748b" points="295.08,-37.08 287.77,-38.32 294.26,-41.91 295.08,-37.08"/>
</g>
<!-- n8 -->
<g id="node9" class="node">
<title>n8</title>
<g id="a_node9"><a xlink:href="vscode://vscode-remote/wsl+Ubuntu/home/gavin/statlib/Statlib/Regression/lasso_cone_constraint.lean:41" xlink:title="theorem · Statlib/Regression/lasso_cone_constraint.lean:41" target="_blank">
<path fill="#ffe6a3" stroke="#d4a017" d="M453.75,-340C453.75,-340 362.25,-340 362.25,-340 356.25,-340 350.25,-334 350.25,-328 350.25,-328 350.25,-316 350.25,-316 350.25,-310 356.25,-304 362.25,-304 362.25,-304 453.75,-304 453.75,-304 459.75,-304 465.75,-310 465.75,-316 465.75,-316 465.75,-328 465.75,-328 465.75,-334 459.75,-340 453.75,-340"/>
<text xml:space="preserve" text-anchor="middle" x="408" y="-319" font-family="Helvetica,sans-Serif" font-size="10.00">lasso_cone_constraint</text>
</a>
</g>
</g>
<!-- n8&#45;&gt;n0 -->
<g id="edge10" class="edge">
<title>n8&#45;&gt;n0</title>
<path fill="none" stroke="#64748b" d="M405.42,-303.74C402.13,-283.99 395.56,-250.91 385,-224 359.62,-159.34 348.96,-144.1 308,-88 300.43,-77.64 291.08,-67.09 282.59,-58.16"/>
<polygon fill="#64748b" stroke="#64748b" points="284.55,-56.67 277.92,-53.34 281.03,-60.08 284.55,-56.67"/>
</g>
<!-- n8&#45;&gt;n2 -->
<g id="edge8" class="edge">
<title>n8&#45;&gt;n2</title>
<path fill="none" stroke="#64748b" d="M349.95,-308.29C310.72,-298.47 263.82,-283.9 251,-268 236.87,-250.47 235.52,-224.29 237.02,-204.86"/>
<polygon fill="#64748b" stroke="#64748b" points="239.45,-205.18 237.72,-197.97 234.58,-204.68 239.45,-205.18"/>
</g>
<!-- n8&#45;&gt;n6 -->
<g id="edge9" class="edge">
<title>n8&#45;&gt;n6</title>
<path fill="none" stroke="#64748b" d="M385.75,-303.7C373.96,-294.53 359.34,-283.16 346.71,-273.33"/>
<polygon fill="#64748b" stroke="#64748b" points="348.53,-271.64 341.5,-269.28 345.52,-275.51 348.53,-271.64"/>
</g>
<!-- n8&#45;&gt;n7 -->
<g id="edge11" class="edge">
<title>n8&#45;&gt;n7</title>
<path fill="none" stroke="#64748b" d="M418.38,-303.7C423.52,-295.14 429.81,-284.66 435.42,-275.3"/>
<polygon fill="#64748b" stroke="#64748b" points="437.46,-276.67 438.96,-269.4 433.26,-274.14 437.46,-276.67"/>
</g>
<!-- n9 -->
<g id="node10" class="node">
<title>n9</title>
<g id="a_node10"><a xlink:href="vscode://vscode-remote/wsl+Ubuntu/home/gavin/statlib/Statlib/Regression/l1Norm_nonneg.lean:13" xlink:title="lemma · Statlib/Regression/l1Norm_nonneg.lean:13" target="_blank">
<path fill="#eef2f6" stroke="#94a3b8" d="M111.58,-340C111.58,-340 48.42,-340 48.42,-340 42.42,-340 36.42,-334 36.42,-328 36.42,-328 36.42,-316 36.42,-316 36.42,-310 42.42,-304 48.42,-304 48.42,-304 111.58,-304 111.58,-304 117.58,-304 123.58,-310 123.58,-316 123.58,-316 123.58,-328 123.58,-328 123.58,-334 117.58,-340 111.58,-340"/>
<text xml:space="preserve" text-anchor="middle" x="80" y="-319" font-family="Helvetica,sans-Serif" font-size="10.00">l1Norm_nonneg</text>
</a>
</g>
</g>
<!-- n9&#45;&gt;n0 -->
<g id="edge12" class="edge">
<title>n9&#45;&gt;n0</title>
<path fill="none" stroke="#64748b" d="M82.83,-303.53C90.37,-261.89 114.31,-155.23 171,-88 185.28,-71.06 206.43,-58.08 224.42,-49.2"/>
<polygon fill="#64748b" stroke="#64748b" points="225.26,-51.51 230.53,-46.3 223.16,-47.09 225.26,-51.51"/>
</g>
<!-- n10 -->
<g id="node11" class="node">
<title>n10</title>
<g id="a_node11"><a xlink:href="vscode://vscode-remote/wsl+Ubuntu/home/gavin/statlib/Statlib/Regression/lasso_slow_rate.lean:23" xlink:title="theorem · Statlib/Regression/lasso_slow_rate.lean:23" target="_blank">
<path fill="#ffe6a3" stroke="#d4a017" d="M352.85,-413.2C352.85,-413.2 289.15,-413.2 289.15,-413.2 283.15,-413.2 277.15,-407.2 277.15,-401.2 277.15,-401.2 277.15,-389.2 277.15,-389.2 277.15,-383.2 283.15,-377.2 289.15,-377.2 289.15,-377.2 352.85,-377.2 352.85,-377.2 358.85,-377.2 364.85,-383.2 364.85,-389.2 364.85,-389.2 364.85,-401.2 364.85,-401.2 364.85,-407.2 358.85,-413.2 352.85,-413.2"/>
<text xml:space="preserve" text-anchor="middle" x="321" y="-392.2" font-family="Helvetica,sans-Serif" font-size="10.00">lasso_slow_rate</text>
</a>
</g>
</g>
<!-- n10&#45;&gt;n3 -->
<g id="edge17" class="edge">
<title>n10&#45;&gt;n3</title>
<path fill="none" stroke="#64748b" d="M365.01,-391.36C406.59,-387.99 465.44,-381.25 485,-369.2 489.83,-366.23 529.47,-308.88 552.53,-275.18"/>
<polygon fill="#64748b" stroke="#64748b" points="554.4,-276.78 556.33,-269.62 550.36,-274.02 554.4,-276.78"/>
</g>
<!-- n10&#45;&gt;n4 -->
<g id="edge14" class="edge">
<title>n10&#45;&gt;n4</title>
<path fill="none" stroke="#64748b" d="M365.19,-389.25C424.91,-382.51 524.41,-371.06 528,-369.2 538.13,-363.97 547.03,-355.24 553.99,-346.76"/>
<polygon fill="#64748b" stroke="#64748b" points="555.65,-348.63 558.01,-341.59 551.78,-345.62 555.65,-348.63"/>
</g>
<!-- n10&#45;&gt;n0 -->
<g id="edge16" class="edge">
<title>n10&#45;&gt;n0</title>
<path fill="none" stroke="#64748b" d="M301.38,-376.9C299.35,-374.47 297.49,-371.88 296,-369.2 281.59,-343.19 298.39,-328.12 281,-304 263.04,-279.08 242.79,-290.62 222,-268 197.79,-241.66 194.22,-230.82 186,-196 173.76,-144.13 211.71,-88.55 237.4,-58.16"/>
<polygon fill="#64748b" stroke="#64748b" points="238.95,-60.11 241.68,-53.21 235.25,-56.9 238.95,-60.11"/>
</g>
<!-- n10&#45;&gt;n2 -->
<g id="edge13" class="edge">
<title>n10&#45;&gt;n2</title>
<path fill="none" stroke="#64748b" d="M316.98,-377.01C311.14,-352.49 300.51,-309.8 296,-304 276.2,-278.54 249.19,-295.89 233,-268 221.81,-248.71 225.71,-223.03 231.28,-204.21"/>
<polygon fill="#64748b" stroke="#64748b" points="233.53,-205.2 233.35,-197.79 228.87,-203.7 233.53,-205.2"/>
</g>
<!-- n10&#45;&gt;n5 -->
<g id="edge15" class="edge">
<title>n10&#45;&gt;n5</title>
<path fill="none" stroke="#64748b" d="M295.56,-376.78C281.58,-367.21 264.11,-355.25 249.19,-345.04"/>
<polygon fill="#64748b" stroke="#64748b" points="250.95,-343.27 243.79,-341.34 248.18,-347.32 250.95,-343.27"/>
</g>
<!-- n10&#45;&gt;n6 -->
<g id="edge20" class="edge">
<title>n10&#45;&gt;n6</title>
<path fill="none" stroke="#64748b" d="M320.64,-376.93C320.12,-351.98 319.15,-305.7 318.54,-276.73"/>
<polygon fill="#64748b" stroke="#64748b" points="320.99,-276.79 318.39,-269.85 316.09,-276.9 320.99,-276.79"/>
</g>
<!-- n10&#45;&gt;n7 -->
<g id="edge19" class="edge">
<title>n10&#45;&gt;n7</title>
<path fill="none" stroke="#64748b" d="M365.33,-393.18C405.72,-391.2 461.13,-385.5 475,-369.2 497.27,-343.03 480.8,-301.95 466.05,-275.76"/>
<polygon fill="#64748b" stroke="#64748b" points="468.19,-274.57 462.54,-269.77 463.97,-277.05 468.19,-274.57"/>
</g>
<!-- n10&#45;&gt;n8 -->
<g id="edge18" class="edge">
<title>n10&#45;&gt;n8</title>
<path fill="none" stroke="#64748b" d="M342.06,-376.96C353.62,-367.5 368.1,-355.66 380.54,-345.47"/>
<polygon fill="#64748b" stroke="#64748b" points="381.8,-347.61 385.66,-341.28 378.69,-343.82 381.8,-347.61"/>
</g>
<!-- n10&#45;&gt;n9 -->
<g id="edge21" class="edge">
<title>n10&#45;&gt;n9</title>
<path fill="none" stroke="#64748b" d="M276.95,-392.63C242.32,-390.23 193.35,-384.2 153,-369.2 137.46,-363.42 121.73,-354.02 108.87,-345.2"/>
<polygon fill="#64748b" stroke="#64748b" points="110.42,-343.29 103.28,-341.26 107.59,-347.3 110.42,-343.29"/>
</g>
<!-- n11 -->
<g id="node12" class="node">
<title>n11</title>
<g id="a_node12"><a xlink:href="vscode://vscode-remote/wsl+Ubuntu/home/gavin/statlib/Statlib/Regression/lasso_prediction_error.lean:16" xlink:title="theorem · Statlib/Regression/lasso_prediction_error.lean:16" target="_blank">
<path fill="#ffe6a3" stroke="#d4a017" stroke-width="3" d="M225.47,-485.2C225.47,-485.2 134.53,-485.2 134.53,-485.2 128.53,-485.2 122.53,-479.2 122.53,-473.2 122.53,-473.2 122.53,-461.2 122.53,-461.2 122.53,-455.2 128.53,-449.2 134.53,-449.2 134.53,-449.2 225.47,-449.2 225.47,-449.2 231.47,-449.2 237.47,-455.2 237.47,-461.2 237.47,-461.2 237.47,-473.2 237.47,-473.2 237.47,-479.2 231.47,-485.2 225.47,-485.2"/>
<text xml:space="preserve" text-anchor="middle" x="180" y="-464.2" font-family="Helvetica,sans-Serif" font-size="10.00">lasso_prediction_error</text>
</a>
</g>
</g>
<!-- n11&#45;&gt;n4 -->
<g id="edge23" class="edge">
<title>n11&#45;&gt;n4</title>
<path fill="none" stroke="#64748b" d="M238.85,-458.65C309.92,-447.54 431.22,-422.1 522,-369.2 532.35,-363.17 542.19,-354.45 550.23,-346.21"/>
<polygon fill="#64748b" stroke="#64748b" points="551.96,-347.94 554.97,-341.16 548.39,-344.59 551.96,-347.94"/>
</g>
<!-- n11&#45;&gt;n0 -->
<g id="edge26" class="edge">
<title>n11&#45;&gt;n0</title>
<path fill="none" stroke="#64748b" d="M131.93,-447.74C97.47,-432.02 52.74,-406.08 27,-369.2 14.97,-351.97 17,-344.01 17,-323 17,-323 17,-323 17,-177 17,-82.4 156.25,-49.61 223.49,-39.29"/>
<polygon fill="#64748b" stroke="#64748b" points="223.64,-41.75 230.21,-38.31 222.93,-36.9 223.64,-41.75"/>
</g>
<!-- n11&#45;&gt;n2 -->
<g id="edge22" class="edge">
<title>n11&#45;&gt;n2</title>
<path fill="none" stroke="#64748b" d="M171.45,-447.8C158.49,-417.31 136.97,-354.62 153,-304 165.6,-264.22 195.91,-226.16 217.43,-202.7"/>
<polygon fill="#64748b" stroke="#64748b" points="219.22,-204.38 222.21,-197.59 215.64,-201.03 219.22,-204.38"/>
</g>
<!-- n11&#45;&gt;n5 -->
<g id="edge24" class="edge">
<title>n11&#45;&gt;n5</title>
<path fill="none" stroke="#64748b" d="M184.76,-447.77C191.3,-422.47 203.08,-376.88 210.45,-348.37"/>
<polygon fill="#64748b" stroke="#64748b" points="212.73,-349.32 212.11,-341.93 207.99,-348.09 212.73,-349.32"/>
</g>
<!-- n11&#45;&gt;n9 -->
<g id="edge27" class="edge">
<title>n11&#45;&gt;n9</title>
<path fill="none" stroke="#64748b" d="M164.77,-447.9C156.59,-437.85 146.47,-425.04 138,-413.2 122.42,-391.41 106.03,-365.62 94.66,-347.2"/>
<polygon fill="#64748b" stroke="#64748b" points="96.96,-346.26 91.21,-341.58 92.78,-348.83 96.96,-346.26"/>
</g>
<!-- n11&#45;&gt;n10 -->
<g id="edge25" class="edge">
<title>n11&#45;&gt;n10</title>
<path fill="none" stroke="#64748b" d="M217.05,-447.81C235.92,-438.44 258.95,-427 278.54,-417.28"/>
<polygon fill="#64748b" stroke="#64748b" points="279.6,-419.49 284.78,-414.18 277.43,-415.1 279.6,-419.49"/>
</g>
</g>
</svg>
