<?xml version="1.0" encoding="UTF-8" standalone="no"?>
<!DOCTYPE svg PUBLIC "-//W3C//DTD SVG 1.1//EN"
 "http://www.w3.org/Graphics/SVG/1.1/DTD/svg11.dtd">
<!-- Generated by graphviz version 15.0.0 (20260523.1842)
 -->
<!-- Title: lasso_l2_error_on_support Pages: 1 -->
<svg width="624pt" height="555pt"
 viewBox="0.00 0.00 624.00 555.00" xmlns="http://www.w3.org/2000/svg" xmlns:xlink="http://www.w3.org/1999/xlink">
<g id="graph0" class="graph" transform="scale(1 1) rotate(0) translate(4 551.2)">
<title>lasso_l2_error_on_support</title>
<polygon fill="white" stroke="none" points="-4,4 -4,-551.2 620.33,-551.2 620.33,4 -4,4"/>
<text xml:space="preserve" text-anchor="middle" x="308.17" y="-530.6" font-family="Helvetica,sans-Serif" font-size="14.00">Proof narrative — lasso_l2_error_on_support &#160;(12 decls)</text>
<g id="clust1" class="cluster">
<title>cluster_0</title>
<path fill="none" stroke="#cbd5e1" stroke-dasharray="5,2" d="M546,-224C546,-224 594,-224 594,-224 600,-224 606,-230 606,-236 606,-236 606,-357.2 606,-357.2 606,-363.2 600,-369.2 594,-369.2 594,-369.2 546,-369.2 546,-369.2 540,-369.2 534,-363.2 534,-357.2 534,-357.2 534,-236 534,-236 534,-230 540,-224 546,-224"/>
<text xml:space="preserve" text-anchor="middle" x="570" y="-355.3" font-family="Helvetica,sans-Serif" font-size="11.00">HDStats</text>
</g>
<g id="clust2" class="cluster">
<title>cluster_1</title>
<path fill="none" stroke="#cbd5e1" stroke-dasharray="5,2" d="M20,-8C20,-8 482,-8 482,-8 488,-8 494,-14 494,-20 494,-20 494,-502.4 494,-502.4 494,-508.4 488,-514.4 482,-514.4 482,-514.4 20,-514.4 20,-514.4 14,-514.4 8,-508.4 8,-502.4 8,-502.4 8,-20 8,-20 8,-14 14,-8 20,-8"/>
<text xml:space="preserve" text-anchor="middle" x="251" y="-500.5" font-family="Helvetica,sans-Serif" font-size="11.00">Regression</text>
</g>
<!-- n3 -->
<g id="node1" class="node">
<title>n3</title>
<g id="a_node1"><a xlink:href="vscode://vscode-remote/wsl+Ubuntu/home/gavin/statlib/Statlib/HDStats/Basic.lean:51" xlink:title="noncomputable def · Statlib/HDStats/Basic.lean:51" target="_blank">
<path fill="#d6e9ff" stroke="#3b82f6" d="M585,-268C585,-268 555,-268 555,-268 549,-268 543,-262 543,-256 543,-256 543,-244 543,-244 543,-238 549,-232 555,-232 555,-232 585,-232 585,-232 591,-232 597,-238 597,-244 597,-244 597,-256 597,-256 597,-262 591,-268 585,-268"/>
<text xml:space="preserve" text-anchor="middle" x="570" y="-247" font-family="Helvetica,sans-Serif" font-size="10.00">support</text>
</a>
</g>
</g>
<!-- n4 -->
<g id="node2" class="node">
<title>n4</title>
<g id="a_node2"><a xlink:href="vscode://vscode-remote/wsl+Ubuntu/home/gavin/statlib/Statlib/HDStats/Basic.lean:56" xlink:title="def · Statlib/HDStats/Basic.lean:56" target="_blank">
<path fill="#d6e9ff" stroke="#3b82f6" d="M585.73,-340C585.73,-340 554.27,-340 554.27,-340 548.27,-340 542.27,-334 542.27,-328 542.27,-328 542.27,-316 542.27,-316 542.27,-310 548.27,-304 554.27,-304 554.27,-304 585.73,-304 585.73,-304 591.73,-304 597.73,-310 597.73,-316 597.73,-316 597.73,-328 597.73,-328 597.73,-334 591.73,-340 585.73,-340"/>
<text xml:space="preserve" text-anchor="middle" x="570" y="-319" font-family="Helvetica,sans-Serif" font-size="10.00">IsSparse</text>
</a>
</g>
</g>
<!-- n4&#45;&gt;n3 -->
<g id="edge3" class="edge">
<title>n4&#45;&gt;n3</title>
<path fill="none" stroke="#64748b" d="M570,-303.7C570,-295.47 570,-285.48 570,-276.42"/>
<polygon fill="#64748b" stroke="#64748b" points="572.45,-276.62 570,-269.62 567.55,-276.62 572.45,-276.62"/>
</g>
<!-- n0 -->
<g id="node3" class="node">
<title>n0</title>
<g id="a_node3"><a xlink:href="vscode://vscode-remote/wsl+Ubuntu/home/gavin/statlib/Statlib/Regression/l1Norm.lean:15" xlink:title="def · Statlib/Regression/l1Norm.lean:15" target="_blank">
<path fill="#d6e9ff" stroke="#3b82f6" d="M274,-52C274,-52 244,-52 244,-52 238,-52 232,-46 232,-40 232,-40 232,-28 232,-28 232,-22 238,-16 244,-16 244,-16 274,-16 274,-16 280,-16 286,-22 286,-28 286,-28 286,-40 286,-40 286,-46 280,-52 274,-52"/>
<text xml:space="preserve" text-anchor="middle" x="259" y="-31" font-family="Helvetica,sans-Serif" font-size="10.00">l1Norm</text>
</a>
</g>
</g>
<!-- n1 -->
<g id="node4" class="node">
<title>n1</title>
<g id="a_node4"><a xlink:href="vscode://vscode-remote/wsl+Ubuntu/home/gavin/statlib/Statlib/Regression/lassoLoss.lean:16" xlink:title="noncomputable def · Statlib/Regression/lassoLoss.lean:16" target="_blank">
<path fill="#d6e9ff" stroke="#3b82f6" d="M277.23,-124C277.23,-124 240.77,-124 240.77,-124 234.77,-124 228.77,-118 228.77,-112 228.77,-112 228.77,-100 228.77,-100 228.77,-94 234.77,-88 240.77,-88 240.77,-88 277.23,-88 277.23,-88 283.23,-88 289.23,-94 289.23,-100 289.23,-100 289.23,-112 289.23,-112 289.23,-118 283.23,-124 277.23,-124"/>
<text xml:space="preserve" text-anchor="middle" x="259" y="-103" font-family="Helvetica,sans-Serif" font-size="10.00">lassoLoss</text>
</a>
</g>
</g>
<!-- n1&#45;&gt;n0 -->
<g id="edge1" class="edge">
<title>n1&#45;&gt;n0</title>
<path fill="none" stroke="#64748b" d="M259,-87.7C259,-79.47 259,-69.48 259,-60.42"/>
<polygon fill="#64748b" stroke="#64748b" points="261.45,-60.62 259,-53.62 256.55,-60.62 261.45,-60.62"/>
</g>
<!-- n2 -->
<g id="node5" class="node">
<title>n2</title>
<g id="a_node5"><a xlink:href="vscode://vscode-remote/wsl+Ubuntu/home/gavin/statlib/Statlib/Regression/IsLassoEstimator.lean:15" xlink:title="def · Statlib/Regression/IsLassoEstimator.lean:15" target="_blank">
<path fill="#d6e9ff" stroke="#3b82f6" d="M275.35,-196C275.35,-196 206.65,-196 206.65,-196 200.65,-196 194.65,-190 194.65,-184 194.65,-184 194.65,-172 194.65,-172 194.65,-166 200.65,-160 206.65,-160 206.65,-160 275.35,-160 275.35,-160 281.35,-160 287.35,-166 287.35,-172 287.35,-172 287.35,-184 287.35,-184 287.35,-190 281.35,-196 275.35,-196"/>
<text xml:space="preserve" text-anchor="middle" x="241" y="-175" font-family="Helvetica,sans-Serif" font-size="10.00">IsLassoEstimator</text>
</a>
</g>
</g>
<!-- n2&#45;&gt;n1 -->
<g id="edge2" class="edge">
<title>n2&#45;&gt;n1</title>
<path fill="none" stroke="#64748b" d="M245.45,-159.7C247.59,-151.39 250.19,-141.28 252.54,-132.14"/>
<polygon fill="#64748b" stroke="#64748b" points="254.85,-132.96 254.22,-125.57 250.11,-131.74 254.85,-132.96"/>
</g>
<!-- n5 -->
<g id="node6" class="node">
<title>n5</title>
<g id="a_node6"><a xlink:href="vscode://vscode-remote/wsl+Ubuntu/home/gavin/statlib/Statlib/Regression/RestrictedEigenvalue.lean:18" xlink:title="def · Statlib/Regression/RestrictedEigenvalue.lean:18" target="_blank">
<path fill="#d6e9ff" stroke="#3b82f6" d="M260.25,-340C260.25,-340 173.75,-340 173.75,-340 167.75,-340 161.75,-334 161.75,-328 161.75,-328 161.75,-316 161.75,-316 161.75,-310 167.75,-304 173.75,-304 173.75,-304 260.25,-304 260.25,-304 266.25,-304 272.25,-310 272.25,-316 272.25,-316 272.25,-328 272.25,-328 272.25,-334 266.25,-340 260.25,-340"/>
<text xml:space="preserve" text-anchor="middle" x="217" y="-319" font-family="Helvetica,sans-Serif" font-size="10.00">RestrictedEigenvalue</text>
</a>
</g>
</g>
<!-- n6 -->
<g id="node7" class="node">
<title>n6</title>
<g id="a_node7"><a xlink:href="vscode://vscode-remote/wsl+Ubuntu/home/gavin/statlib/Statlib/Regression/lasso_basic_inequality.lean:31" xlink:title="theorem · Statlib/Regression/lasso_basic_inequality.lean:31" target="_blank">
<path fill="#ffe6a3" stroke="#d4a017" d="M364.03,-268C364.03,-268 271.97,-268 271.97,-268 265.97,-268 259.97,-262 259.97,-256 259.97,-256 259.97,-244 259.97,-244 259.97,-238 265.97,-232 271.97,-232 271.97,-232 364.03,-232 364.03,-232 370.03,-232 376.03,-238 376.03,-244 376.03,-244 376.03,-256 376.03,-256 376.03,-262 370.03,-268 364.03,-268"/>
<text xml:space="preserve" text-anchor="middle" x="318" y="-247" font-family="Helvetica,sans-Serif" font-size="10.00">lasso_basic_inequality</text>
</a>
</g>
</g>
<!-- n6&#45;&gt;n0 -->
<g id="edge5" class="edge">
<title>n6&#45;&gt;n0</title>
<path fill="none" stroke="#64748b" d="M318.66,-231.85C319.22,-201.64 317.71,-137.45 298,-88 293.86,-77.62 287.19,-67.43 280.52,-58.8"/>
<polygon fill="#64748b" stroke="#64748b" points="282.48,-57.33 276.18,-53.42 278.67,-60.41 282.48,-57.33"/>
</g>
<!-- n6&#45;&gt;n1 -->
<g id="edge6" class="edge">
<title>n6&#45;&gt;n1</title>
<path fill="none" stroke="#64748b" d="M315.64,-231.65C312.71,-213.25 306.72,-183.63 296,-160 291.39,-149.84 284.78,-139.58 278.42,-130.82"/>
<polygon fill="#64748b" stroke="#64748b" points="280.49,-129.5 274.32,-125.37 276.57,-132.44 280.49,-129.5"/>
</g>
<!-- n6&#45;&gt;n2 -->
<g id="edge4" class="edge">
<title>n6&#45;&gt;n2</title>
<path fill="none" stroke="#64748b" d="M298.97,-231.7C289.06,-222.69 276.83,-211.57 266.16,-201.87"/>
<polygon fill="#64748b" stroke="#64748b" points="268.03,-200.26 261.2,-197.37 264.73,-203.89 268.03,-200.26"/>
</g>
<!-- n7 -->
<g id="node8" class="node">
<title>n7</title>
<g id="a_node8"><a xlink:href="vscode://vscode-remote/wsl+Ubuntu/home/gavin/statlib/Statlib/Regression/l1Norm_split.lean:14" xlink:title="lemma · Statlib/Regression/l1Norm_split.lean:14" target="_blank">
<path fill="#eef2f6" stroke="#94a3b8" d="M453.79,-268C453.79,-268 406.21,-268 406.21,-268 400.21,-268 394.21,-262 394.21,-256 394.21,-256 394.21,-244 394.21,-244 394.21,-238 400.21,-232 406.21,-232 406.21,-232 453.79,-232 453.79,-232 459.79,-232 465.79,-238 465.79,-244 465.79,-244 465.79,-256 465.79,-256 465.79,-262 459.79,-268 453.79,-268"/>
<text xml:space="preserve" text-anchor="middle" x="430" y="-247" font-family="Helvetica,sans-Serif" font-size="10.00">l1Norm_split</text>
</a>
</g>
</g>
<!-- n7&#45;&gt;n0 -->
<g id="edge7" class="edge">
<title>n7&#45;&gt;n0</title>
<path fill="none" stroke="#64748b" d="M417.71,-231.65C396.29,-201.68 350.34,-138.54 308,-88 299.63,-78.01 289.97,-67.39 281.46,-58.3"/>
<polygon fill="#64748b" stroke="#64748b" points="283.4,-56.79 276.81,-53.38 279.84,-60.15 283.4,-56.79"/>
</g>
<!-- n8 -->
<g id="node9" class="node">
<title>n8</title>
<g id="a_node9"><a xlink:href="vscode://vscode-remote/wsl+Ubuntu/home/gavin/statlib/Statlib/Regression/lasso_cone_constraint.lean:41" xlink:title="theorem · Statlib/Regression/lasso_cone_constraint.lean:41" target="_blank">
<path fill="#ffe6a3" stroke="#d4a017" d="M393.75,-340C393.75,-340 302.25,-340 302.25,-340 296.25,-340 290.25,-334 290.25,-328 290.25,-328 290.25,-316 290.25,-316 290.25,-310 296.25,-304 302.25,-304 302.25,-304 393.75,-304 393.75,-304 399.75,-304 405.75,-310 405.75,-316 405.75,-316 405.75,-328 405.75,-328 405.75,-334 399.75,-340 393.75,-340"/>
<text xml:space="preserve" text-anchor="middle" x="348" y="-319" font-family="Helvetica,sans-Serif" font-size="10.00">lasso_cone_constraint</text>
</a>
</g>
</g>
<!-- n8&#45;&gt;n0 -->
<g id="edge10" class="edge">
<title>n8&#45;&gt;n0</title>
<path fill="none" stroke="#64748b" d="M289.92,-305.4C267.34,-297.13 242.51,-285.05 224,-268 197.39,-243.48 194.7,-231.12 186,-196 173.19,-144.27 211.34,-88.64 237.22,-58.2"/>
<polygon fill="#64748b" stroke="#64748b" points="238.79,-60.13 241.54,-53.24 235.09,-56.91 238.79,-60.13"/>
</g>
<!-- n8&#45;&gt;n2 -->
<g id="edge8" class="edge">
<title>n8&#45;&gt;n2</title>
<path fill="none" stroke="#64748b" d="M289.97,-307.47C269.3,-299.55 248.14,-287.18 236,-268 224.03,-249.09 227.18,-223.15 232.18,-204.15"/>
<polygon fill="#64748b" stroke="#64748b" points="234.47,-205.08 234.06,-197.67 229.76,-203.71 234.47,-205.08"/>
</g>
<!-- n8&#45;&gt;n6 -->
<g id="edge9" class="edge">
<title>n8&#45;&gt;n6</title>
<path fill="none" stroke="#64748b" d="M340.58,-303.7C336.99,-295.3 332.6,-285.07 328.65,-275.86"/>
<polygon fill="#64748b" stroke="#64748b" points="330.94,-274.96 325.93,-269.5 326.43,-276.89 330.94,-274.96"/>
</g>
<!-- n8&#45;&gt;n7 -->
<g id="edge11" class="edge">
<title>n8&#45;&gt;n7</title>
<path fill="none" stroke="#64748b" d="M368.27,-303.7C378.82,-294.69 391.84,-283.57 403.21,-273.87"/>
<polygon fill="#64748b" stroke="#64748b" points="404.79,-275.74 408.53,-269.33 401.61,-272.01 404.79,-275.74"/>
</g>
<!-- n9 -->
<g id="node10" class="node">
<title>n9</title>
<g id="a_node10"><a xlink:href="vscode://vscode-remote/wsl+Ubuntu/home/gavin/statlib/Statlib/Regression/l1Norm_nonneg.lean:13" xlink:title="lemma · Statlib/Regression/l1Norm_nonneg.lean:13" target="_blank">
<path fill="#eef2f6" stroke="#94a3b8" d="M131.58,-340C131.58,-340 68.42,-340 68.42,-340 62.42,-340 56.42,-334 56.42,-328 56.42,-328 56.42,-316 56.42,-316 56.42,-310 62.42,-304 68.42,-304 68.42,-304 131.58,-304 131.58,-304 137.58,-304 143.58,-310 143.58,-316 143.58,-316 143.58,-328 143.58,-328 143.58,-334 137.58,-340 131.58,-340"/>
<text xml:space="preserve" text-anchor="middle" x="100" y="-319" font-family="Helvetica,sans-Serif" font-size="10.00">l1Norm_nonneg</text>
</a>
</g>
</g>
<!-- n9&#45;&gt;n0 -->
<g id="edge12" class="edge">
<title>n9&#45;&gt;n0</title>
<path fill="none" stroke="#64748b" d="M103.44,-303.66C112.22,-262.74 138.57,-158.33 191,-88 200.12,-75.76 212.77,-64.86 224.68,-56.18"/>
<polygon fill="#64748b" stroke="#64748b" points="226.03,-58.23 230.34,-52.2 223.21,-54.22 226.03,-58.23"/>
</g>
<!-- n10 -->
<g id="node11" class="node">
<title>n10</title>
<g id="a_node11"><a xlink:href="vscode://vscode-remote/wsl+Ubuntu/home/gavin/statlib/Statlib/Regression/lasso_slow_rate.lean:23" xlink:title="theorem · Statlib/Regression/lasso_slow_rate.lean:23" target="_blank">
<path fill="#ffe6a3" stroke="#d4a017" d="M464.85,-413.2C464.85,-413.2 401.15,-413.2 401.15,-413.2 395.15,-413.2 389.15,-407.2 389.15,-401.2 389.15,-401.2 389.15,-389.2 389.15,-389.2 389.15,-383.2 395.15,-377.2 401.15,-377.2 401.15,-377.2 464.85,-377.2 464.85,-377.2 470.85,-377.2 476.85,-383.2 476.85,-389.2 476.85,-389.2 476.85,-401.2 476.85,-401.2 476.85,-407.2 470.85,-413.2 464.85,-413.2"/>
<text xml:space="preserve" text-anchor="middle" x="433" y="-392.2" font-family="Helvetica,sans-Serif" font-size="10.00">lasso_slow_rate</text>
</a>
</g>
</g>
<!-- n10&#45;&gt;n3 -->
<g id="edge17" class="edge">
<title>n10&#45;&gt;n3</title>
<path fill="none" stroke="#64748b" d="M477.18,-377.97C481.74,-375.39 486.12,-372.47 490,-369.2 516.54,-346.82 513.51,-332.72 533,-304 539.46,-294.48 546.69,-284.07 553.03,-275.03"/>
<polygon fill="#64748b" stroke="#64748b" points="555,-276.48 557.02,-269.34 550.99,-273.67 555,-276.48"/>
</g>
<!-- n10&#45;&gt;n4 -->
<g id="edge14" class="edge">
<title>n10&#45;&gt;n4</title>
<path fill="none" stroke="#64748b" d="M477.18,-388.06C493.96,-384.36 512.69,-378.49 528,-369.2 537.6,-363.38 546.31,-354.7 553.28,-346.44"/>
<polygon fill="#64748b" stroke="#64748b" points="554.82,-348.42 557.3,-341.43 551.01,-345.35 554.82,-348.42"/>
</g>
<!-- n10&#45;&gt;n0 -->
<g id="edge16" class="edge">
<title>n10&#45;&gt;n0</title>
<path fill="none" stroke="#64748b" d="M452.63,-376.91C454.66,-374.48 456.52,-371.89 458,-369.2 484.07,-322.04 485,-304.89 485,-251 485,-251 485,-251 485,-177 485,-88.08 358.03,-52.68 294.43,-40.53"/>
<polygon fill="#64748b" stroke="#64748b" points="295.08,-38.16 287.75,-39.3 294.19,-42.98 295.08,-38.16"/>
</g>
<!-- n10&#45;&gt;n2 -->
<g id="edge13" class="edge">
<title>n10&#45;&gt;n2</title>
<path fill="none" stroke="#64748b" d="M430.57,-376.84C426.96,-352.11 420.06,-309.16 415,-304 362.74,-250.73 300.95,-323.44 251,-268 242.83,-258.93 240.92,-227.53 240.66,-204.59"/>
<polygon fill="#64748b" stroke="#64748b" points="243.12,-204.78 240.64,-197.79 238.22,-204.8 243.12,-204.78"/>
</g>
<!-- n10&#45;&gt;n5 -->
<g id="edge15" class="edge">
<title>n10&#45;&gt;n5</title>
<path fill="none" stroke="#64748b" d="M388.95,-392.31C357.79,-389.71 315.57,-383.58 281,-369.2 267.27,-363.49 253.69,-354.32 242.59,-345.66"/>
<polygon fill="#64748b" stroke="#64748b" points="244.18,-343.8 237.2,-341.31 241.11,-347.61 244.18,-343.8"/>
</g>
<!-- n10&#45;&gt;n6 -->
<g id="edge20" class="edge">
<title>n10&#45;&gt;n6</title>
<path fill="none" stroke="#64748b" d="M437.37,-377.01C441.26,-357.59 444.36,-325.87 430,-304 419.2,-287.56 401.83,-276.1 383.96,-268.16"/>
<polygon fill="#64748b" stroke="#64748b" points="385.09,-265.98 377.68,-265.55 383.21,-270.5 385.09,-265.98"/>
</g>
<!-- n10&#45;&gt;n7 -->
<g id="edge19" class="edge">
<title>n10&#45;&gt;n7</title>
<path fill="none" stroke="#64748b" d="M446.65,-376.84C448.02,-374.39 449.2,-371.81 450,-369.2 458.52,-341.5 455.2,-332.51 450,-304 448.27,-294.52 444.93,-284.53 441.47,-275.81"/>
<polygon fill="#64748b" stroke="#64748b" points="443.84,-275.13 438.89,-269.61 439.32,-277.01 443.84,-275.13"/>
</g>
<!-- n10&#45;&gt;n8 -->
<g id="edge18" class="edge">
<title>n10&#45;&gt;n8</title>
<path fill="none" stroke="#64748b" d="M412.42,-376.96C401.23,-367.59 387.24,-355.87 375.17,-345.75"/>
<polygon fill="#64748b" stroke="#64748b" points="376.78,-343.91 369.84,-341.3 373.63,-347.67 376.78,-343.91"/>
</g>
<!-- n10&#45;&gt;n9 -->
<g id="edge21" class="edge">
<title>n10&#45;&gt;n9</title>
<path fill="none" stroke="#64748b" d="M388.81,-393.56C320.88,-392.02 194.3,-386.81 153,-369.2 140.77,-363.99 129.36,-354.85 120.28,-346.07"/>
<polygon fill="#64748b" stroke="#64748b" points="122.11,-344.44 115.45,-341.18 118.63,-347.88 122.11,-344.44"/>
</g>
<!-- n11 -->
<g id="node12" class="node">
<title>n11</title>
<g id="a_node12"><a xlink:href="vscode://vscode-remote/wsl+Ubuntu/home/gavin/statlib/Statlib/Regression/lasso_l2_error_on_support.lean:15" xlink:title="theorem · Statlib/Regression/lasso_l2_error_on_support.lean:15" target="_blank">
<path fill="#ffe6a3" stroke="#d4a017" stroke-width="3" d="M353.48,-485.2C353.48,-485.2 242.52,-485.2 242.52,-485.2 236.52,-485.2 230.52,-479.2 230.52,-473.2 230.52,-473.2 230.52,-461.2 230.52,-461.2 230.52,-455.2 236.52,-449.2 242.52,-449.2 242.52,-449.2 353.48,-449.2 353.48,-449.2 359.48,-449.2 365.48,-455.2 365.48,-461.2 365.48,-461.2 365.48,-473.2 365.48,-473.2 365.48,-479.2 359.48,-485.2 353.48,-485.2"/>
<text xml:space="preserve" text-anchor="middle" x="298" y="-464.2" font-family="Helvetica,sans-Serif" font-size="10.00">lasso_l2_error_on_support</text>
</a>
</g>
</g>
<!-- n11&#45;&gt;n3 -->
<g id="edge25" class="edge">
<title>n11&#45;&gt;n3</title>
<path fill="none" stroke="#64748b" d="M366.74,-455.24C449.81,-440.32 581.66,-410.63 607,-369.2 622.12,-344.48 615.69,-331.64 607,-304 603.71,-293.53 597.52,-283.32 591.14,-274.7"/>
<polygon fill="#64748b" stroke="#64748b" points="593.21,-273.36 586.97,-269.35 589.34,-276.37 593.21,-273.36"/>
</g>
<!-- n11&#45;&gt;n4 -->
<g id="edge23" class="edge">
<title>n11&#45;&gt;n4</title>
<path fill="none" stroke="#64748b" d="M366.88,-456.11C404.14,-448.43 449.82,-435.28 486,-413.2 513.78,-396.25 538.2,-367.61 553.44,-347.15"/>
<polygon fill="#64748b" stroke="#64748b" points="555.41,-348.61 557.55,-341.51 551.45,-345.72 555.41,-348.61"/>
</g>
<!-- n11&#45;&gt;n0 -->
<g id="edge28" class="edge">
<title>n11&#45;&gt;n0</title>
<path fill="none" stroke="#64748b" d="M229.13,-458.73C165.45,-450.57 76.77,-435.58 50,-413.2 17.25,-385.81 17,-365.69 17,-323 17,-323 17,-323 17,-177 17,-82.4 156.25,-49.61 223.49,-39.29"/>
<polygon fill="#64748b" stroke="#64748b" points="223.64,-41.75 230.21,-38.31 222.93,-36.9 223.64,-41.75"/>
</g>
<!-- n11&#45;&gt;n2 -->
<g id="edge22" class="edge">
<title>n11&#45;&gt;n2</title>
<path fill="none" stroke="#64748b" d="M229.26,-460.51C169.92,-451.55 87.54,-428.49 47,-369.2 -1.42,-298.39 116.88,-232.19 189.44,-199.79"/>
<polygon fill="#64748b" stroke="#64748b" points="190.38,-202.06 195.8,-197 188.4,-197.57 190.38,-202.06"/>
</g>
<!-- n11&#45;&gt;n5 -->
<g id="edge24" class="edge">
<title>n11&#45;&gt;n5</title>
<path fill="none" stroke="#64748b" d="M287.58,-447.77C273.14,-422.25 247.03,-376.09 230.94,-347.64"/>
<polygon fill="#64748b" stroke="#64748b" points="233.2,-346.66 227.62,-341.78 228.94,-349.08 233.2,-346.66"/>
</g>
<!-- n11&#45;&gt;n8 -->
<g id="edge26" class="edge">
<title>n11&#45;&gt;n8</title>
<path fill="none" stroke="#64748b" d="M304.43,-447.77C313.27,-422.47 329.19,-376.88 339.14,-348.37"/>
<polygon fill="#64748b" stroke="#64748b" points="341.41,-349.31 341.4,-341.89 336.78,-347.69 341.41,-349.31"/>
</g>
<!-- n11&#45;&gt;n9 -->
<g id="edge29" class="edge">
<title>n11&#45;&gt;n9</title>
<path fill="none" stroke="#64748b" d="M268.08,-447.76C238.21,-428.99 191.36,-398.56 153,-369.2 143.48,-361.92 133.47,-353.43 124.74,-345.72"/>
<polygon fill="#64748b" stroke="#64748b" points="126.63,-344.12 119.77,-341.29 123.37,-347.78 126.63,-344.12"/>
</g>
<!-- n11&#45;&gt;n10 -->
<g id="edge27" class="edge">
<title>n11&#45;&gt;n10</title>
<path fill="none" stroke="#64748b" d="M333.47,-447.81C351.54,-438.44 373.59,-427 392.35,-417.28"/>
<polygon fill="#64748b" stroke="#64748b" points="393.19,-419.6 398.28,-414.2 390.94,-415.25 393.19,-419.6"/>
</g>
</g>
</svg>
