<?xml version="1.0" encoding="UTF-8" standalone="no"?>
<!DOCTYPE svg PUBLIC "-//W3C//DTD SVG 1.1//EN"
 "http://www.w3.org/Graphics/SVG/1.1/DTD/svg11.dtd">
<!-- Generated by graphviz version 15.0.0 (20260523.1842)
 -->
<!-- Title: lasso_l1_error Pages: 1 -->
<svg width="536pt" height="555pt"
 viewBox="0.00 0.00 536.00 555.00" xmlns="http://www.w3.org/2000/svg" xmlns:xlink="http://www.w3.org/1999/xlink">
<g id="graph0" class="graph" transform="scale(1 1) rotate(0) translate(4 551.2)">
<title>lasso_l1_error</title>
<polygon fill="white" stroke="none" points="-4,4 -4,-551.2 532,-551.2 532,4 -4,4"/>
<text xml:space="preserve" text-anchor="middle" x="264" y="-530.6" font-family="Helvetica,sans-Serif" font-size="14.00">Proof narrative — lasso_l1_error &#160;(12 decls)</text>
<g id="clust1" class="cluster">
<title>cluster_0</title>
<path fill="none" stroke="#cbd5e1" stroke-dasharray="5,2" d="M460,-224C460,-224 508,-224 508,-224 514,-224 520,-230 520,-236 520,-236 520,-357.2 520,-357.2 520,-363.2 514,-369.2 508,-369.2 508,-369.2 460,-369.2 460,-369.2 454,-369.2 448,-363.2 448,-357.2 448,-357.2 448,-236 448,-236 448,-230 454,-224 460,-224"/>
<text xml:space="preserve" text-anchor="middle" x="484" y="-355.3" font-family="Helvetica,sans-Serif" font-size="11.00">HDStats</text>
</g>
<g id="clust2" class="cluster">
<title>cluster_1</title>
<path fill="none" stroke="#cbd5e1" stroke-dasharray="5,2" d="M20,-8C20,-8 396,-8 396,-8 402,-8 408,-14 408,-20 408,-20 408,-502.4 408,-502.4 408,-508.4 402,-514.4 396,-514.4 396,-514.4 20,-514.4 20,-514.4 14,-514.4 8,-508.4 8,-502.4 8,-502.4 8,-20 8,-20 8,-14 14,-8 20,-8"/>
<text xml:space="preserve" text-anchor="middle" x="208" y="-500.5" font-family="Helvetica,sans-Serif" font-size="11.00">Regression</text>
</g>
<!-- n3 -->
<g id="node1" class="node">
<title>n3</title>
<g id="a_node1"><a xlink:href="vscode://vscode-remote/wsl+Ubuntu/home/gavin/statlib/Statlib/HDStats/Basic.lean:51" xlink:title="noncomputable def · Statlib/HDStats/Basic.lean:51" target="_blank">
<path fill="#d6e9ff" stroke="#3b82f6" d="M498,-268C498,-268 468,-268 468,-268 462,-268 456,-262 456,-256 456,-256 456,-244 456,-244 456,-238 462,-232 468,-232 468,-232 498,-232 498,-232 504,-232 510,-238 510,-244 510,-244 510,-256 510,-256 510,-262 504,-268 498,-268"/>
<text xml:space="preserve" text-anchor="middle" x="483" y="-247" font-family="Helvetica,sans-Serif" font-size="10.00">support</text>
</a>
</g>
</g>
<!-- n4 -->
<g id="node2" class="node">
<title>n4</title>
<g id="a_node2"><a xlink:href="vscode://vscode-remote/wsl+Ubuntu/home/gavin/statlib/Statlib/HDStats/Basic.lean:56" xlink:title="def · Statlib/HDStats/Basic.lean:56" target="_blank">
<path fill="#d6e9ff" stroke="#3b82f6" d="M499.73,-340C499.73,-340 468.27,-340 468.27,-340 462.27,-340 456.27,-334 456.27,-328 456.27,-328 456.27,-316 456.27,-316 456.27,-310 462.27,-304 468.27,-304 468.27,-304 499.73,-304 499.73,-304 505.73,-304 511.73,-310 511.73,-316 511.73,-316 511.73,-328 511.73,-328 511.73,-334 505.73,-340 499.73,-340"/>
<text xml:space="preserve" text-anchor="middle" x="484" y="-319" font-family="Helvetica,sans-Serif" font-size="10.00">IsSparse</text>
</a>
</g>
</g>
<!-- n4&#45;&gt;n3 -->
<g id="edge3" class="edge">
<title>n4&#45;&gt;n3</title>
<path fill="none" stroke="#64748b" d="M483.75,-303.7C483.64,-295.47 483.49,-285.48 483.36,-276.42"/>
<polygon fill="#64748b" stroke="#64748b" points="485.82,-276.58 483.27,-269.62 480.92,-276.65 485.82,-276.58"/>
</g>
<!-- n0 -->
<g id="node3" class="node">
<title>n0</title>
<g id="a_node3"><a xlink:href="vscode://vscode-remote/wsl+Ubuntu/home/gavin/statlib/Statlib/Regression/l1Norm.lean:15" xlink:title="def · Statlib/Regression/l1Norm.lean:15" target="_blank">
<path fill="#d6e9ff" stroke="#3b82f6" d="M268,-52C268,-52 238,-52 238,-52 232,-52 226,-46 226,-40 226,-40 226,-28 226,-28 226,-22 232,-16 238,-16 238,-16 268,-16 268,-16 274,-16 280,-22 280,-28 280,-28 280,-40 280,-40 280,-46 274,-52 268,-52"/>
<text xml:space="preserve" text-anchor="middle" x="253" y="-31" font-family="Helvetica,sans-Serif" font-size="10.00">l1Norm</text>
</a>
</g>
</g>
<!-- n1 -->
<g id="node4" class="node">
<title>n1</title>
<g id="a_node4"><a xlink:href="vscode://vscode-remote/wsl+Ubuntu/home/gavin/statlib/Statlib/Regression/lassoLoss.lean:16" xlink:title="noncomputable def · Statlib/Regression/lassoLoss.lean:16" target="_blank">
<path fill="#d6e9ff" stroke="#3b82f6" d="M222.23,-124C222.23,-124 185.77,-124 185.77,-124 179.77,-124 173.77,-118 173.77,-112 173.77,-112 173.77,-100 173.77,-100 173.77,-94 179.77,-88 185.77,-88 185.77,-88 222.23,-88 222.23,-88 228.23,-88 234.23,-94 234.23,-100 234.23,-100 234.23,-112 234.23,-112 234.23,-118 228.23,-124 222.23,-124"/>
<text xml:space="preserve" text-anchor="middle" x="204" y="-103" font-family="Helvetica,sans-Serif" font-size="10.00">lassoLoss</text>
</a>
</g>
</g>
<!-- n1&#45;&gt;n0 -->
<g id="edge1" class="edge">
<title>n1&#45;&gt;n0</title>
<path fill="none" stroke="#64748b" d="M216.11,-87.7C222.16,-79.05 229.59,-68.45 236.18,-59.03"/>
<polygon fill="#64748b" stroke="#64748b" points="238.15,-60.48 240.16,-53.34 234.14,-57.67 238.15,-60.48"/>
</g>
<!-- n2 -->
<g id="node5" class="node">
<title>n2</title>
<g id="a_node5"><a xlink:href="vscode://vscode-remote/wsl+Ubuntu/home/gavin/statlib/Statlib/Regression/IsLassoEstimator.lean:15" xlink:title="def · Statlib/Regression/IsLassoEstimator.lean:15" target="_blank">
<path fill="#d6e9ff" stroke="#3b82f6" d="M202.35,-196C202.35,-196 133.65,-196 133.65,-196 127.65,-196 121.65,-190 121.65,-184 121.65,-184 121.65,-172 121.65,-172 121.65,-166 127.65,-160 133.65,-160 133.65,-160 202.35,-160 202.35,-160 208.35,-160 214.35,-166 214.35,-172 214.35,-172 214.35,-184 214.35,-184 214.35,-190 208.35,-196 202.35,-196"/>
<text xml:space="preserve" text-anchor="middle" x="168" y="-175" font-family="Helvetica,sans-Serif" font-size="10.00">IsLassoEstimator</text>
</a>
</g>
</g>
<!-- n2&#45;&gt;n1 -->
<g id="edge2" class="edge">
<title>n2&#45;&gt;n1</title>
<path fill="none" stroke="#64748b" d="M176.9,-159.7C181.26,-151.22 186.58,-140.86 191.36,-131.58"/>
<polygon fill="#64748b" stroke="#64748b" points="193.49,-132.8 194.51,-125.45 189.13,-130.55 193.49,-132.8"/>
</g>
<!-- n5 -->
<g id="node6" class="node">
<title>n5</title>
<g id="a_node6"><a xlink:href="vscode://vscode-remote/wsl+Ubuntu/home/gavin/statlib/Statlib/Regression/RestrictedEigenvalue.lean:18" xlink:title="def · Statlib/Regression/RestrictedEigenvalue.lean:18" target="_blank">
<path fill="#d6e9ff" stroke="#3b82f6" d="M154.25,-340C154.25,-340 67.75,-340 67.75,-340 61.75,-340 55.75,-334 55.75,-328 55.75,-328 55.75,-316 55.75,-316 55.75,-310 61.75,-304 67.75,-304 67.75,-304 154.25,-304 154.25,-304 160.25,-304 166.25,-310 166.25,-316 166.25,-316 166.25,-328 166.25,-328 166.25,-334 160.25,-340 154.25,-340"/>
<text xml:space="preserve" text-anchor="middle" x="111" y="-319" font-family="Helvetica,sans-Serif" font-size="10.00">RestrictedEigenvalue</text>
</a>
</g>
</g>
<!-- n6 -->
<g id="node7" class="node">
<title>n6</title>
<g id="a_node7"><a xlink:href="vscode://vscode-remote/wsl+Ubuntu/home/gavin/statlib/Statlib/Regression/lasso_basic_inequality.lean:31" xlink:title="theorem · Statlib/Regression/lasso_basic_inequality.lean:31" target="_blank">
<path fill="#ffe6a3" stroke="#d4a017" d="M258.03,-268C258.03,-268 165.97,-268 165.97,-268 159.97,-268 153.97,-262 153.97,-256 153.97,-256 153.97,-244 153.97,-244 153.97,-238 159.97,-232 165.97,-232 165.97,-232 258.03,-232 258.03,-232 264.03,-232 270.03,-238 270.03,-244 270.03,-244 270.03,-256 270.03,-256 270.03,-262 264.03,-268 258.03,-268"/>
<text xml:space="preserve" text-anchor="middle" x="212" y="-247" font-family="Helvetica,sans-Serif" font-size="10.00">lasso_basic_inequality</text>
</a>
</g>
</g>
<!-- n6&#45;&gt;n0 -->
<g id="edge5" class="edge">
<title>n6&#45;&gt;n0</title>
<path fill="none" stroke="#64748b" d="M218.03,-231.96C221.54,-221.64 225.88,-208.17 229,-196 241.07,-148.96 247.75,-92.53 250.84,-60.51"/>
<polygon fill="#64748b" stroke="#64748b" points="253.27,-60.86 251.47,-53.66 248.39,-60.4 253.27,-60.86"/>
</g>
<!-- n6&#45;&gt;n1 -->
<g id="edge6" class="edge">
<title>n6&#45;&gt;n1</title>
<path fill="none" stroke="#64748b" d="M217.19,-231.53C221.84,-213.53 227.29,-184.7 223,-160 221.38,-150.66 218.26,-140.79 215,-132.13"/>
<polygon fill="#64748b" stroke="#64748b" points="217.3,-131.27 212.45,-125.66 212.74,-133.07 217.3,-131.27"/>
</g>
<!-- n6&#45;&gt;n2 -->
<g id="edge4" class="edge">
<title>n6&#45;&gt;n2</title>
<path fill="none" stroke="#64748b" d="M201.12,-231.7C195.74,-223.14 189.16,-212.66 183.28,-203.3"/>
<polygon fill="#64748b" stroke="#64748b" points="185.36,-202.01 179.56,-197.39 181.21,-204.62 185.36,-202.01"/>
</g>
<!-- n7 -->
<g id="node8" class="node">
<title>n7</title>
<g id="a_node8"><a xlink:href="vscode://vscode-remote/wsl+Ubuntu/home/gavin/statlib/Statlib/Regression/l1Norm_split.lean:14" xlink:title="lemma · Statlib/Regression/l1Norm_split.lean:14" target="_blank">
<path fill="#eef2f6" stroke="#94a3b8" d="M347.79,-268C347.79,-268 300.21,-268 300.21,-268 294.21,-268 288.21,-262 288.21,-256 288.21,-256 288.21,-244 288.21,-244 288.21,-238 294.21,-232 300.21,-232 300.21,-232 347.79,-232 347.79,-232 353.79,-232 359.79,-238 359.79,-244 359.79,-244 359.79,-256 359.79,-256 359.79,-262 353.79,-268 347.79,-268"/>
<text xml:space="preserve" text-anchor="middle" x="324" y="-247" font-family="Helvetica,sans-Serif" font-size="10.00">l1Norm_split</text>
</a>
</g>
</g>
<!-- n7&#45;&gt;n0 -->
<g id="edge7" class="edge">
<title>n7&#45;&gt;n0</title>
<path fill="none" stroke="#64748b" d="M307.24,-231.76C298.7,-222.01 288.9,-209.16 283,-196 262.83,-150.98 256.22,-93.04 254.05,-60.36"/>
<polygon fill="#64748b" stroke="#64748b" points="256.52,-60.59 253.66,-53.75 251.63,-60.88 256.52,-60.59"/>
</g>
<!-- n8 -->
<g id="node9" class="node">
<title>n8</title>
<g id="a_node9"><a xlink:href="vscode://vscode-remote/wsl+Ubuntu/home/gavin/statlib/Statlib/Regression/lasso_cone_constraint.lean:41" xlink:title="theorem · Statlib/Regression/lasso_cone_constraint.lean:41" target="_blank">
<path fill="#ffe6a3" stroke="#d4a017" d="M307.75,-340C307.75,-340 216.25,-340 216.25,-340 210.25,-340 204.25,-334 204.25,-328 204.25,-328 204.25,-316 204.25,-316 204.25,-310 210.25,-304 216.25,-304 216.25,-304 307.75,-304 307.75,-304 313.75,-304 319.75,-310 319.75,-316 319.75,-316 319.75,-328 319.75,-328 319.75,-334 313.75,-340 307.75,-340"/>
<text xml:space="preserve" text-anchor="middle" x="262" y="-319" font-family="Helvetica,sans-Serif" font-size="10.00">lasso_cone_constraint</text>
</a>
</g>
</g>
<!-- n8&#45;&gt;n0 -->
<g id="edge10" class="edge">
<title>n8&#45;&gt;n0</title>
<path fill="none" stroke="#64748b" d="M204.03,-308.49C179.76,-300.57 153.04,-287.92 135,-268 112.54,-243.2 117.94,-229.09 113,-196 105.13,-143.31 125.79,-124.07 165,-88 180.85,-73.42 201.33,-60.8 218.54,-51.54"/>
<polygon fill="#64748b" stroke="#64748b" points="219.3,-53.91 224.35,-48.48 217.02,-49.57 219.3,-53.91"/>
</g>
<!-- n8&#45;&gt;n2 -->
<g id="edge8" class="edge">
<title>n8&#45;&gt;n2</title>
<path fill="none" stroke="#64748b" d="M203.91,-308.96C181.55,-301.18 158.23,-288.52 145,-268 132.4,-248.46 141.59,-222.34 151.84,-203.46"/>
<polygon fill="#64748b" stroke="#64748b" points="153.81,-204.95 155.18,-197.66 149.57,-202.51 153.81,-204.95"/>
</g>
<!-- n8&#45;&gt;n6 -->
<g id="edge9" class="edge">
<title>n8&#45;&gt;n6</title>
<path fill="none" stroke="#64748b" d="M249.64,-303.7C243.46,-295.05 235.89,-284.45 229.16,-275.03"/>
<polygon fill="#64748b" stroke="#64748b" points="231.16,-273.61 225.1,-269.34 227.17,-276.46 231.16,-273.61"/>
</g>
<!-- n8&#45;&gt;n7 -->
<g id="edge11" class="edge">
<title>n8&#45;&gt;n7</title>
<path fill="none" stroke="#64748b" d="M277.33,-303.7C285.13,-294.88 294.74,-284.03 303.21,-274.47"/>
<polygon fill="#64748b" stroke="#64748b" points="305.04,-276.1 307.85,-269.24 301.37,-272.85 305.04,-276.1"/>
</g>
<!-- n9 -->
<g id="node10" class="node">
<title>n9</title>
<g id="a_node10"><a xlink:href="vscode://vscode-remote/wsl+Ubuntu/home/gavin/statlib/Statlib/Regression/l1Norm_nonneg.lean:13" xlink:title="lemma · Statlib/Regression/l1Norm_nonneg.lean:13" target="_blank">
<path fill="#eef2f6" stroke="#94a3b8" d="M367.58,-196C367.58,-196 304.42,-196 304.42,-196 298.42,-196 292.42,-190 292.42,-184 292.42,-184 292.42,-172 292.42,-172 292.42,-166 298.42,-160 304.42,-160 304.42,-160 367.58,-160 367.58,-160 373.58,-160 379.58,-166 379.58,-172 379.58,-172 379.58,-184 379.58,-184 379.58,-190 373.58,-196 367.58,-196"/>
<text xml:space="preserve" text-anchor="middle" x="336" y="-175" font-family="Helvetica,sans-Serif" font-size="10.00">l1Norm_nonneg</text>
</a>
</g>
</g>
<!-- n9&#45;&gt;n0 -->
<g id="edge12" class="edge">
<title>n9&#45;&gt;n0</title>
<path fill="none" stroke="#64748b" d="M325.82,-159.59C311.12,-134.43 283.88,-87.83 267.2,-59.3"/>
<polygon fill="#64748b" stroke="#64748b" points="269.41,-58.22 263.77,-53.42 265.18,-60.7 269.41,-58.22"/>
</g>
<!-- n10 -->
<g id="node11" class="node">
<title>n10</title>
<g id="a_node11"><a xlink:href="vscode://vscode-remote/wsl+Ubuntu/home/gavin/statlib/Statlib/Regression/lasso_slow_rate.lean:23" xlink:title="theorem · Statlib/Regression/lasso_slow_rate.lean:23" target="_blank">
<path fill="#ffe6a3" stroke="#d4a017" d="M378.85,-413.2C378.85,-413.2 315.15,-413.2 315.15,-413.2 309.15,-413.2 303.15,-407.2 303.15,-401.2 303.15,-401.2 303.15,-389.2 303.15,-389.2 303.15,-383.2 309.15,-377.2 315.15,-377.2 315.15,-377.2 378.85,-377.2 378.85,-377.2 384.85,-377.2 390.85,-383.2 390.85,-389.2 390.85,-389.2 390.85,-401.2 390.85,-401.2 390.85,-407.2 384.85,-413.2 378.85,-413.2"/>
<text xml:space="preserve" text-anchor="middle" x="347" y="-392.2" font-family="Helvetica,sans-Serif" font-size="10.00">lasso_slow_rate</text>
</a>
</g>
</g>
<!-- n10&#45;&gt;n3 -->
<g id="edge17" class="edge">
<title>n10&#45;&gt;n3</title>
<path fill="none" stroke="#64748b" d="M391.18,-377.97C395.74,-375.39 400.12,-372.47 404,-369.2 430.54,-346.82 427.69,-332.85 447,-304 453.35,-294.52 460.39,-284.13 466.55,-275.07"/>
<polygon fill="#64748b" stroke="#64748b" points="468.5,-276.56 470.42,-269.4 464.45,-273.8 468.5,-276.56"/>
</g>
<!-- n10&#45;&gt;n4 -->
<g id="edge14" class="edge">
<title>n10&#45;&gt;n4</title>
<path fill="none" stroke="#64748b" d="M391.18,-388.06C407.96,-384.36 426.69,-378.49 442,-369.2 451.6,-363.38 460.31,-354.7 467.28,-346.44"/>
<polygon fill="#64748b" stroke="#64748b" points="468.82,-348.42 471.3,-341.43 465.01,-345.35 468.82,-348.42"/>
</g>
<!-- n10&#45;&gt;n0 -->
<g id="edge16" class="edge">
<title>n10&#45;&gt;n0</title>
<path fill="none" stroke="#64748b" d="M365,-376.74C366.88,-374.34 368.61,-371.8 370,-369.2 395.56,-321.53 399,-305.09 399,-251 399,-251 399,-251 399,-177 399,-115.29 331.15,-71.73 287.95,-50.24"/>
<polygon fill="#64748b" stroke="#64748b" points="289.19,-48.12 281.82,-47.27 287.06,-52.53 289.19,-48.12"/>
</g>
<!-- n10&#45;&gt;n2 -->
<g id="edge13" class="edge">
<title>n10&#45;&gt;n2</title>
<path fill="none" stroke="#64748b" d="M302.73,-392.02C263.72,-389.21 210.71,-382.92 195,-369.2 172.17,-349.26 191.3,-329.55 175,-304 162.14,-283.84 144.73,-289.85 135,-268 127.04,-250.14 128.92,-242.59 135,-224 137.43,-216.56 141.62,-209.34 146.21,-202.93"/>
<polygon fill="#64748b" stroke="#64748b" points="148.03,-204.58 150.36,-197.53 144.15,-201.59 148.03,-204.58"/>
</g>
<!-- n10&#45;&gt;n5 -->
<g id="edge15" class="edge">
<title>n10&#45;&gt;n5</title>
<path fill="none" stroke="#64748b" d="M302.75,-392.85C268.29,-390.57 219.78,-384.6 180,-369.2 165.28,-363.5 150.52,-354.22 138.46,-345.47"/>
<polygon fill="#64748b" stroke="#64748b" points="139.98,-343.55 132.9,-341.32 137.04,-347.47 139.98,-343.55"/>
</g>
<!-- n10&#45;&gt;n6 -->
<g id="edge20" class="edge">
<title>n10&#45;&gt;n6</title>
<path fill="none" stroke="#64748b" d="M344.43,-376.97C340.63,-352.41 333.49,-309.66 329,-304 316.08,-287.73 297.07,-276.28 278.11,-268.3"/>
<polygon fill="#64748b" stroke="#64748b" points="279.11,-266.07 271.7,-265.76 277.3,-270.62 279.11,-266.07"/>
</g>
<!-- n10&#45;&gt;n7 -->
<g id="edge19" class="edge">
<title>n10&#45;&gt;n7</title>
<path fill="none" stroke="#64748b" d="M348.09,-376.72C348.85,-358.4 348.97,-328.89 344,-304 342.11,-294.55 338.74,-284.57 335.3,-275.84"/>
<polygon fill="#64748b" stroke="#64748b" points="337.67,-275.17 332.73,-269.64 333.14,-277.05 337.67,-275.17"/>
</g>
<!-- n10&#45;&gt;n8 -->
<g id="edge18" class="edge">
<title>n10&#45;&gt;n8</title>
<path fill="none" stroke="#64748b" d="M326.42,-376.96C315.23,-367.59 301.24,-355.87 289.17,-345.75"/>
<polygon fill="#64748b" stroke="#64748b" points="290.78,-343.91 283.84,-341.3 287.63,-347.67 290.78,-343.91"/>
</g>
<!-- n10&#45;&gt;n9 -->
<g id="edge21" class="edge">
<title>n10&#45;&gt;n9</title>
<path fill="none" stroke="#64748b" d="M354.14,-376.82C365.96,-345.49 386.61,-277.8 369,-224 366.57,-216.56 362.38,-209.34 357.79,-202.93"/>
<polygon fill="#64748b" stroke="#64748b" points="359.85,-201.59 353.64,-197.53 355.97,-204.58 359.85,-201.59"/>
</g>
<!-- n11 -->
<g id="node12" class="node">
<title>n11</title>
<g id="a_node12"><a xlink:href="vscode://vscode-remote/wsl+Ubuntu/home/gavin/statlib/Statlib/Regression/lasso_l1_error.lean:14" xlink:title="theorem · Statlib/Regression/lasso_l1_error.lean:14" target="_blank">
<path fill="#ffe6a3" stroke="#d4a017" stroke-width="3" d="M138.68,-485.2C138.68,-485.2 83.32,-485.2 83.32,-485.2 77.32,-485.2 71.32,-479.2 71.32,-473.2 71.32,-473.2 71.32,-461.2 71.32,-461.2 71.32,-455.2 77.32,-449.2 83.32,-449.2 83.32,-449.2 138.68,-449.2 138.68,-449.2 144.68,-449.2 150.68,-455.2 150.68,-461.2 150.68,-461.2 150.68,-473.2 150.68,-473.2 150.68,-479.2 144.68,-485.2 138.68,-485.2"/>
<text xml:space="preserve" text-anchor="middle" x="111" y="-464.2" font-family="Helvetica,sans-Serif" font-size="10.00">lasso_l1_error</text>
</a>
</g>
</g>
<!-- n11&#45;&gt;n4 -->
<g id="edge23" class="edge">
<title>n11&#45;&gt;n4</title>
<path fill="none" stroke="#64748b" d="M151.97,-466.61C210.53,-465.5 319.92,-457.07 400,-413.2 428.83,-397.4 453.31,-368.08 468.28,-347.16"/>
<polygon fill="#64748b" stroke="#64748b" points="470.12,-348.8 472.12,-341.66 466.1,-346 470.12,-348.8"/>
</g>
<!-- n11&#45;&gt;n0 -->
<g id="edge25" class="edge">
<title>n11&#45;&gt;n0</title>
<path fill="none" stroke="#64748b" d="M81.5,-447.78C69.03,-438.71 55.28,-426.79 46,-413.2 22.26,-378.42 17,-365.11 17,-323 17,-323 17,-323 17,-177 17,-84.37 152.13,-50.62 217.89,-39.68"/>
<polygon fill="#64748b" stroke="#64748b" points="217.91,-42.16 224.43,-38.63 217.13,-37.32 217.91,-42.16"/>
</g>
<!-- n11&#45;&gt;n2 -->
<g id="edge22" class="edge">
<title>n11&#45;&gt;n2</title>
<path fill="none" stroke="#64748b" d="M94.07,-447.86C78.4,-429.52 56.16,-399.73 47,-369.2 38.67,-341.45 36.13,-330.86 47,-304 64.62,-260.46 105.5,-223.68 134.86,-201.53"/>
<polygon fill="#64748b" stroke="#64748b" points="136.29,-203.51 140.47,-197.38 133.38,-199.57 136.29,-203.51"/>
</g>
<!-- n11&#45;&gt;n5 -->
<g id="edge24" class="edge">
<title>n11&#45;&gt;n5</title>
<path fill="none" stroke="#64748b" d="M111,-447.77C111,-422.58 111,-377.27 111,-348.74"/>
<polygon fill="#64748b" stroke="#64748b" points="113.45,-348.97 111,-341.97 108.55,-348.97 113.45,-348.97"/>
</g>
<!-- n11&#45;&gt;n10 -->
<g id="edge26" class="edge">
<title>n11&#45;&gt;n10</title>
<path fill="none" stroke="#64748b" d="M152.11,-454.01C191.69,-442.27 251.7,-424.47 294.67,-411.72"/>
<polygon fill="#64748b" stroke="#64748b" points="295.29,-414.09 301.31,-409.75 293.9,-409.39 295.29,-414.09"/>
</g>
</g>
</svg>
