<?xml version="1.0" encoding="UTF-8" standalone="no"?>
<!DOCTYPE svg PUBLIC "-//W3C//DTD SVG 1.1//EN"
 "http://www.w3.org/Graphics/SVG/1.1/DTD/svg11.dtd">
<!-- Generated by graphviz version 15.0.0 (20260523.1842)
 -->
<!-- Title: linear_regression_full_interface_of_process_and_complexity_structured_master_bound Pages: 1 -->
<svg width="1393pt" height="699pt"
 viewBox="0.00 0.00 1393.00 699.00" xmlns="http://www.w3.org/2000/svg" xmlns:xlink="http://www.w3.org/1999/xlink">
<g id="graph0" class="graph" transform="scale(1 1) rotate(0) translate(4 695.2)">
<title>linear_regression_full_interface_of_process_and_complexity_structured_master_bound</title>
<polygon fill="white" stroke="none" points="-4,4 -4,-695.2 1389.36,-695.2 1389.36,4 -4,4"/>
<text xml:space="preserve" text-anchor="middle" x="692.68" y="-674.6" font-family="Helvetica,sans-Serif" font-size="14.00">Proof narrative — linear_regression_full_interface_of_process_and_complexity_structured_master_bound &#160;(18 decls)</text>
<g id="clust1" class="cluster">
<title>cluster_0</title>
<path fill="none" stroke="#cbd5e1" stroke-dasharray="5,2" d="M1278,-80C1278,-80 1350,-80 1350,-80 1356,-80 1362,-86 1362,-92 1362,-92 1362,-213.2 1362,-213.2 1362,-219.2 1356,-225.2 1350,-225.2 1350,-225.2 1278,-225.2 1278,-225.2 1272,-225.2 1266,-219.2 1266,-213.2 1266,-213.2 1266,-92 1266,-92 1266,-86 1272,-80 1278,-80"/>
<text xml:space="preserve" text-anchor="middle" x="1314" y="-211.3" font-family="Helvetica,sans-Serif" font-size="11.00">Gaussian</text>
</g>
<g id="clust2" class="cluster">
<title>cluster_1</title>
<path fill="none" stroke="#cbd5e1" stroke-dasharray="5,2" d="M20,-8C20,-8 1244,-8 1244,-8 1250,-8 1256,-14 1256,-20 1256,-20 1256,-646.4 1256,-646.4 1256,-652.4 1250,-658.4 1244,-658.4 1244,-658.4 20,-658.4 20,-658.4 14,-658.4 8,-652.4 8,-646.4 8,-646.4 8,-20 8,-20 8,-14 14,-8 20,-8"/>
<text xml:space="preserve" text-anchor="middle" x="632" y="-644.5" font-family="Helvetica,sans-Serif" font-size="11.00">Regression</text>
</g>
<!-- n5 -->
<g id="node1" class="node">
<title>n5</title>
<g id="a_node1"><a xlink:href="vscode://vscode-remote/wsl+Ubuntu/home/gavin/statlib/Statlib/Gaussian/Basic.lean:29" xlink:title="abbrev · Statlib/Gaussian/Basic.lean:29" target="_blank">
<path fill="#d6e9ff" stroke="#3b82f6" d="M1337.79,-124C1337.79,-124 1290.21,-124 1290.21,-124 1284.21,-124 1278.21,-118 1278.21,-112 1278.21,-112 1278.21,-100 1278.21,-100 1278.21,-94 1284.21,-88 1290.21,-88 1290.21,-88 1337.79,-88 1337.79,-88 1343.79,-88 1349.79,-94 1349.79,-100 1349.79,-100 1349.79,-112 1349.79,-112 1349.79,-118 1343.79,-124 1337.79,-124"/>
<text xml:space="preserve" text-anchor="middle" x="1314" y="-103" font-family="Helvetica,sans-Serif" font-size="10.00">stdGaussian</text>
</a>
</g>
</g>
<!-- n6 -->
<g id="node2" class="node">
<title>n6</title>
<g id="a_node2"><a xlink:href="vscode://vscode-remote/wsl+Ubuntu/home/gavin/statlib/Statlib/Gaussian/Basic.lean:32" xlink:title="def · Statlib/Gaussian/Basic.lean:32" target="_blank">
<path fill="#d6e9ff" stroke="#3b82f6" d="M1342.24,-196C1342.24,-196 1285.76,-196 1285.76,-196 1279.76,-196 1273.76,-190 1273.76,-184 1273.76,-184 1273.76,-172 1273.76,-172 1273.76,-166 1279.76,-160 1285.76,-160 1285.76,-160 1342.24,-160 1342.24,-160 1348.24,-160 1354.24,-166 1354.24,-172 1354.24,-172 1354.24,-184 1354.24,-184 1354.24,-190 1348.24,-196 1342.24,-196"/>
<text xml:space="preserve" text-anchor="middle" x="1314" y="-175" font-family="Helvetica,sans-Serif" font-size="10.00">stdGaussianPi</text>
</a>
</g>
</g>
<!-- n6&#45;&gt;n5 -->
<g id="edge6" class="edge">
<title>n6&#45;&gt;n5</title>
<path fill="none" stroke="#64748b" d="M1314,-159.7C1314,-151.47 1314,-141.48 1314,-132.42"/>
<polygon fill="#64748b" stroke="#64748b" points="1316.45,-132.62 1314,-125.62 1311.55,-132.62 1316.45,-132.62"/>
</g>
<!-- n0 -->
<g id="node3" class="node">
<title>n0</title>
<g id="a_node3"><a xlink:href="vscode://vscode-remote/wsl+Ubuntu/home/gavin/statlib/Statlib/Regression/Basic.lean:29" xlink:title="structure · Statlib/Regression/Basic.lean:29" target="_blank">
<path fill="#e8dcff" stroke="#8b5cf6" d="M631.91,-52C631.91,-52 562.09,-52 562.09,-52 556.09,-52 550.09,-46 550.09,-40 550.09,-40 550.09,-28 550.09,-28 550.09,-22 556.09,-16 562.09,-16 562.09,-16 631.91,-16 631.91,-16 637.91,-16 643.91,-22 643.91,-28 643.91,-28 643.91,-40 643.91,-40 643.91,-46 637.91,-52 631.91,-52"/>
<text xml:space="preserve" text-anchor="middle" x="597" y="-31" font-family="Helvetica,sans-Serif" font-size="10.00">RegressionModel</text>
</a>
</g>
</g>
<!-- n1 -->
<g id="node4" class="node">
<title>n1</title>
<g id="a_node4"><a xlink:href="vscode://vscode-remote/wsl+Ubuntu/home/gavin/statlib/Statlib/Regression/empiricalNorm.lean:10" xlink:title="def · Statlib/Regression/empiricalNorm.lean:10" target="_blank">
<path fill="#d6e9ff" stroke="#3b82f6" d="M365.23,-196C365.23,-196 308.77,-196 308.77,-196 302.77,-196 296.77,-190 296.77,-184 296.77,-184 296.77,-172 296.77,-172 296.77,-166 302.77,-160 308.77,-160 308.77,-160 365.23,-160 365.23,-160 371.23,-160 377.23,-166 377.23,-172 377.23,-172 377.23,-184 377.23,-184 377.23,-190 371.23,-196 365.23,-196"/>
<text xml:space="preserve" text-anchor="middle" x="337" y="-175" font-family="Helvetica,sans-Serif" font-size="10.00">empiricalNorm</text>
</a>
</g>
</g>
<!-- n1&#45;&gt;n0 -->
<g id="edge1" class="edge">
<title>n1&#45;&gt;n0</title>
<path fill="none" stroke="#64748b" d="M357.32,-159.62C382.76,-138.54 428.32,-102.98 472,-80 493.91,-68.48 519.41,-58.7 541.65,-51.24"/>
<polygon fill="#64748b" stroke="#64748b" points="542.36,-53.59 548.25,-49.07 540.83,-48.93 542.36,-53.59"/>
</g>
<!-- n2 -->
<g id="node5" class="node">
<title>n2</title>
<g id="a_node5"><a xlink:href="vscode://vscode-remote/wsl+Ubuntu/home/gavin/statlib/Statlib/Regression/estimationErrorUpper.lean:11" xlink:title="def · Statlib/Regression/estimationErrorUpper.lean:11" target="_blank">
<path fill="#d6e9ff" stroke="#3b82f6" d="M737.52,-196C737.52,-196 650.48,-196 650.48,-196 644.48,-196 638.48,-190 638.48,-184 638.48,-184 638.48,-172 638.48,-172 638.48,-166 644.48,-160 650.48,-160 650.48,-160 737.52,-160 737.52,-160 743.52,-160 749.52,-166 749.52,-172 749.52,-172 749.52,-184 749.52,-184 749.52,-190 743.52,-196 737.52,-196"/>
<text xml:space="preserve" text-anchor="middle" x="694" y="-175" font-family="Helvetica,sans-Serif" font-size="10.00">estimationErrorUpper</text>
</a>
</g>
</g>
<!-- n2&#45;&gt;n0 -->
<g id="edge2" class="edge">
<title>n2&#45;&gt;n0</title>
<path fill="none" stroke="#64748b" d="M682.11,-159.59C664.85,-134.33 632.81,-87.43 613.35,-58.93"/>
<polygon fill="#64748b" stroke="#64748b" points="615.51,-57.76 609.54,-53.36 611.47,-60.52 615.51,-57.76"/>
</g>
<!-- n3 -->
<g id="node6" class="node">
<title>n3</title>
<g id="a_node6"><a xlink:href="vscode://vscode-remote/wsl+Ubuntu/home/gavin/statlib/Statlib/Regression/Basic.lean:44" xlink:title="def · Statlib/Regression/Basic.lean:44" target="_blank">
<path fill="#d6e9ff" stroke="#3b82f6" d="M1118.28,-124C1118.28,-124 1075.72,-124 1075.72,-124 1069.72,-124 1063.72,-118 1063.72,-112 1063.72,-112 1063.72,-100 1063.72,-100 1063.72,-94 1069.72,-88 1075.72,-88 1075.72,-88 1118.28,-88 1118.28,-88 1124.28,-88 1130.28,-94 1130.28,-100 1130.28,-100 1130.28,-112 1130.28,-112 1130.28,-118 1124.28,-124 1118.28,-124"/>
<text xml:space="preserve" text-anchor="middle" x="1097" y="-103" font-family="Helvetica,sans-Serif" font-size="10.00">excessRisk</text>
</a>
</g>
</g>
<!-- n3&#45;&gt;n0 -->
<g id="edge3" class="edge">
<title>n3&#45;&gt;n0</title>
<path fill="none" stroke="#64748b" d="M1063.52,-92.93C1049.34,-88.24 1032.53,-83.23 1017,-80 888.06,-53.22 733.34,-41.87 652.46,-37.48"/>
<polygon fill="#64748b" stroke="#64748b" points="653.03,-35.05 645.91,-37.13 652.77,-39.95 653.03,-35.05"/>
</g>
<!-- n4 -->
<g id="node7" class="node">
<title>n4</title>
<g id="a_node7"><a xlink:href="vscode://vscode-remote/wsl+Ubuntu/home/gavin/statlib/Statlib/Regression/approximationError.lean:10" xlink:title="def · Statlib/Regression/approximationError.lean:10" target="_blank">
<path fill="#d6e9ff" stroke="#3b82f6" d="M1135.52,-196C1135.52,-196 1058.48,-196 1058.48,-196 1052.48,-196 1046.48,-190 1046.48,-184 1046.48,-184 1046.48,-172 1046.48,-172 1046.48,-166 1052.48,-160 1058.48,-160 1058.48,-160 1135.52,-160 1135.52,-160 1141.52,-160 1147.52,-166 1147.52,-172 1147.52,-172 1147.52,-184 1147.52,-184 1147.52,-190 1141.52,-196 1135.52,-196"/>
<text xml:space="preserve" text-anchor="middle" x="1097" y="-175" font-family="Helvetica,sans-Serif" font-size="10.00">approximationError</text>
</a>
</g>
</g>
<!-- n4&#45;&gt;n0 -->
<g id="edge4" class="edge">
<title>n4&#45;&gt;n0</title>
<path fill="none" stroke="#64748b" d="M1079.45,-159.53C1055.59,-136.95 1010.52,-98.37 964,-80 908.62,-58.13 740.77,-44.33 652.55,-38.38"/>
<polygon fill="#64748b" stroke="#64748b" points="652.92,-35.95 645.78,-37.93 652.6,-40.84 652.92,-35.95"/>
</g>
<!-- n4&#45;&gt;n3 -->
<g id="edge5" class="edge">
<title>n4&#45;&gt;n3</title>
<path fill="none" stroke="#64748b" d="M1097,-159.7C1097,-151.47 1097,-141.48 1097,-132.42"/>
<polygon fill="#64748b" stroke="#64748b" points="1099.45,-132.62 1097,-125.62 1094.55,-132.62 1099.45,-132.62"/>
</g>
<!-- n7 -->
<g id="node8" class="node">
<title>n7</title>
<g id="a_node8"><a xlink:href="vscode://vscode-remote/wsl+Ubuntu/home/gavin/statlib/Statlib/Regression/LocalizedProbabilityAssumptions.lean:12" xlink:title="structure · Statlib/Regression/LocalizedProbabilityAssumptions.lean:12" target="_blank">
<path fill="#e8dcff" stroke="#8b5cf6" d="M506.09,-269.2C506.09,-269.2 367.91,-269.2 367.91,-269.2 361.91,-269.2 355.91,-263.2 355.91,-257.2 355.91,-257.2 355.91,-245.2 355.91,-245.2 355.91,-239.2 361.91,-233.2 367.91,-233.2 367.91,-233.2 506.09,-233.2 506.09,-233.2 512.09,-233.2 518.09,-239.2 518.09,-245.2 518.09,-245.2 518.09,-257.2 518.09,-257.2 518.09,-263.2 512.09,-269.2 506.09,-269.2"/>
<text xml:space="preserve" text-anchor="middle" x="437" y="-248.2" font-family="Helvetica,sans-Serif" font-size="10.00">LocalizedProbabilityAssumptions</text>
</a>
</g>
</g>
<!-- n7&#45;&gt;n6 -->
<g id="edge8" class="edge">
<title>n7&#45;&gt;n6</title>
<path fill="none" stroke="#64748b" d="M518.52,-244.47C576.61,-240.62 656.57,-235.79 727,-233.2 756.59,-232.11 1232.3,-235.67 1260,-225.2 1272.57,-220.45 1284.21,-211.38 1293.44,-202.53"/>
<polygon fill="#64748b" stroke="#64748b" points="1295.18,-204.26 1298.37,-197.57 1291.7,-200.81 1295.18,-204.26"/>
</g>
<!-- n7&#45;&gt;n0 -->
<g id="edge7" class="edge">
<title>n7&#45;&gt;n0</title>
<path fill="none" stroke="#64748b" d="M443.55,-232.88C456.56,-200.16 488.21,-128.23 532,-80 539.8,-71.41 549.53,-63.59 559.06,-56.97"/>
<polygon fill="#64748b" stroke="#64748b" points="560.23,-59.13 564.69,-53.2 557.51,-55.06 560.23,-59.13"/>
</g>
<!-- n7&#45;&gt;n1 -->
<g id="edge9" class="edge">
<title>n7&#45;&gt;n1</title>
<path fill="none" stroke="#64748b" d="M412.54,-232.78C399.22,-223.3 382.6,-211.47 368.34,-201.32"/>
<polygon fill="#64748b" stroke="#64748b" points="369.91,-199.43 362.79,-197.36 367.07,-203.42 369.91,-199.43"/>
</g>
<!-- n8 -->
<g id="node9" class="node">
<title>n8</title>
<g id="a_node9"><a xlink:href="vscode://vscode-remote/wsl+Ubuntu/home/gavin/statlib/Statlib/Regression/LocalizedProbabilityAssumptions_ofDeterministic.lean:13" xlink:title="lemma · Statlib/Regression/LocalizedProbabilityAssumptions_ofDeterministic.lean:13" target="_blank">
<path fill="#eef2f6" stroke="#94a3b8" d="M335.55,-341.2C335.55,-341.2 128.45,-341.2 128.45,-341.2 122.45,-341.2 116.45,-335.2 116.45,-329.2 116.45,-329.2 116.45,-317.2 116.45,-317.2 116.45,-311.2 122.45,-305.2 128.45,-305.2 128.45,-305.2 335.55,-305.2 335.55,-305.2 341.55,-305.2 347.55,-311.2 347.55,-317.2 347.55,-317.2 347.55,-329.2 347.55,-329.2 347.55,-335.2 341.55,-341.2 335.55,-341.2"/>
<text xml:space="preserve" text-anchor="middle" x="232" y="-320.2" font-family="Helvetica,sans-Serif" font-size="10.00">LocalizedProbabilityAssumptions.ofDeterministic</text>
</a>
</g>
</g>
<!-- n8&#45;&gt;n6 -->
<g id="edge11" class="edge">
<title>n8&#45;&gt;n6</title>
<path fill="none" stroke="#64748b" d="M347.7,-315.73C558.26,-303.81 988.73,-278.74 1057,-269.2 1148.43,-256.43 1177.3,-266.23 1260,-225.2 1271.67,-219.41 1282.91,-210.53 1292.08,-202.1"/>
<polygon fill="#64748b" stroke="#64748b" points="1293.61,-204.03 1296.98,-197.42 1290.22,-200.48 1293.61,-204.03"/>
</g>
<!-- n8&#45;&gt;n0 -->
<g id="edge10" class="edge">
<title>n8&#45;&gt;n0</title>
<path fill="none" stroke="#64748b" d="M234.43,-304.97C239.59,-273.48 254.05,-205.66 288,-160 348.35,-78.84 470.31,-50.24 541.63,-40.26"/>
<polygon fill="#64748b" stroke="#64748b" points="541.53,-42.74 548.15,-39.38 540.88,-37.88 541.53,-42.74"/>
</g>
<!-- n8&#45;&gt;n1 -->
<g id="edge12" class="edge">
<title>n8&#45;&gt;n1</title>
<path fill="none" stroke="#64748b" d="M244.67,-304.93C263.35,-279.45 298.36,-231.7 319.49,-202.88"/>
<polygon fill="#64748b" stroke="#64748b" points="321.23,-204.65 323.39,-197.56 317.28,-201.75 321.23,-204.65"/>
</g>
<!-- n8&#45;&gt;n7 -->
<g id="edge13" class="edge">
<title>n8&#45;&gt;n7</title>
<path fill="none" stroke="#64748b" d="M283.2,-304.72C312.05,-294.87 348.2,-282.52 378.21,-272.27"/>
<polygon fill="#64748b" stroke="#64748b" points="378.83,-274.65 384.66,-270.07 377.25,-270.01 378.83,-274.65"/>
</g>
<!-- n9 -->
<g id="node10" class="node">
<title>n9</title>
<g id="a_node10"><a xlink:href="vscode://vscode-remote/wsl+Ubuntu/home/gavin/statlib/Statlib/Regression/LocalizedProbabilityAssumptions_ofProcessAndComplexity.lean:15" xlink:title="lemma · Statlib/Regression/LocalizedProbabilityAssumptions_ofProcessAndComplexity.lean:15" target="_blank">
<path fill="#eef2f6" stroke="#94a3b8" d="M356.34,-413.2C356.34,-413.2 103.66,-413.2 103.66,-413.2 97.66,-413.2 91.66,-407.2 91.66,-401.2 91.66,-401.2 91.66,-389.2 91.66,-389.2 91.66,-383.2 97.66,-377.2 103.66,-377.2 103.66,-377.2 356.34,-377.2 356.34,-377.2 362.34,-377.2 368.34,-383.2 368.34,-389.2 368.34,-389.2 368.34,-401.2 368.34,-401.2 368.34,-407.2 362.34,-413.2 356.34,-413.2"/>
<text xml:space="preserve" text-anchor="middle" x="230" y="-392.2" font-family="Helvetica,sans-Serif" font-size="10.00">LocalizedProbabilityAssumptions.ofProcessAndComplexity</text>
</a>
</g>
</g>
<!-- n9&#45;&gt;n6 -->
<g id="edge15" class="edge">
<title>n9&#45;&gt;n6</title>
<path fill="none" stroke="#64748b" d="M368.55,-387.7C595.34,-376.77 1027.64,-354.59 1097,-341.2 1196.77,-321.94 1254.53,-351.59 1314,-269.2 1327.33,-250.73 1325.51,-224.12 1321.46,-204.59"/>
<polygon fill="#64748b" stroke="#64748b" points="1323.87,-204.17 1319.89,-197.91 1319.1,-205.28 1323.87,-204.17"/>
</g>
<!-- n9&#45;&gt;n0 -->
<g id="edge14" class="edge">
<title>n9&#45;&gt;n0</title>
<path fill="none" stroke="#64748b" d="M157.9,-376.8C136.29,-368.8 113.87,-357.36 97,-341.2 65.68,-311.2 57,-295.57 57,-252.2 57,-252.2 57,-252.2 57,-177 57,-77.54 403.96,-46.29 541.65,-37.81"/>
<polygon fill="#64748b" stroke="#64748b" points="541.67,-40.26 548.51,-37.39 541.38,-35.37 541.67,-40.26"/>
</g>
<!-- n9&#45;&gt;n1 -->
<g id="edge16" class="edge">
<title>n9&#45;&gt;n1</title>
<path fill="none" stroke="#64748b" d="M152.9,-376.81C134.87,-368.97 117.8,-357.61 107,-341.2 98.21,-327.83 98.85,-318.97 107,-305.2 146.14,-239.08 233.58,-205.3 288.66,-189.95"/>
<polygon fill="#64748b" stroke="#64748b" points="288.96,-192.41 295.08,-188.21 287.68,-187.68 288.96,-192.41"/>
</g>
<!-- n9&#45;&gt;n7 -->
<g id="edge17" class="edge">
<title>n9&#45;&gt;n7</title>
<path fill="none" stroke="#64748b" d="M286.52,-376.75C309.58,-368.11 335.76,-356.27 357,-341.2 382.47,-323.14 405.6,-295.61 420.37,-275.96"/>
<polygon fill="#64748b" stroke="#64748b" points="422.15,-277.67 424.33,-270.58 418.21,-274.76 422.15,-277.67"/>
</g>
<!-- n9&#45;&gt;n8 -->
<g id="edge18" class="edge">
<title>n9&#45;&gt;n8</title>
<path fill="none" stroke="#64748b" d="M230.49,-376.9C230.73,-368.67 231.01,-358.68 231.27,-349.62"/>
<polygon fill="#64748b" stroke="#64748b" points="233.72,-349.88 231.47,-342.82 228.82,-349.74 233.72,-349.88"/>
</g>
<!-- n10 -->
<g id="node11" class="node">
<title>n10</title>
<g id="a_node11"><a xlink:href="vscode://vscode-remote/wsl+Ubuntu/home/gavin/statlib/Statlib/Regression/master_error_bound.lean:17" xlink:title="theorem · Statlib/Regression/master_error_bound.lean:17" target="_blank">
<path fill="#ffe6a3" stroke="#d4a017" d="M1036.3,-269.2C1036.3,-269.2 953.7,-269.2 953.7,-269.2 947.7,-269.2 941.7,-263.2 941.7,-257.2 941.7,-257.2 941.7,-245.2 941.7,-245.2 941.7,-239.2 947.7,-233.2 953.7,-233.2 953.7,-233.2 1036.3,-233.2 1036.3,-233.2 1042.3,-233.2 1048.3,-239.2 1048.3,-245.2 1048.3,-245.2 1048.3,-257.2 1048.3,-257.2 1048.3,-263.2 1042.3,-269.2 1036.3,-269.2"/>
<text xml:space="preserve" text-anchor="middle" x="995" y="-248.2" font-family="Helvetica,sans-Serif" font-size="10.00">master_error_bound</text>
</a>
</g>
</g>
<!-- n10&#45;&gt;n0 -->
<g id="edge19" class="edge">
<title>n10&#45;&gt;n0</title>
<path fill="none" stroke="#64748b" d="M993.75,-232.87C990.22,-197.78 976.96,-118.43 928,-80 886.32,-47.29 735.51,-38.35 652.59,-35.91"/>
<polygon fill="#64748b" stroke="#64748b" points="652.87,-33.47 645.8,-35.72 652.73,-38.36 652.87,-33.47"/>
</g>
<!-- n10&#45;&gt;n2 -->
<g id="edge22" class="edge">
<title>n10&#45;&gt;n2</title>
<path fill="none" stroke="#64748b" d="M941.53,-237.55C890.19,-225.41 812.59,-207.05 757.99,-194.14"/>
<polygon fill="#64748b" stroke="#64748b" points="758.62,-191.77 751.24,-192.54 757.49,-196.54 758.62,-191.77"/>
</g>
<!-- n10&#45;&gt;n3 -->
<g id="edge20" class="edge">
<title>n10&#45;&gt;n3</title>
<path fill="none" stroke="#64748b" d="M996.79,-232.76C999.51,-213.42 1006.16,-182.03 1022,-160 1031.03,-147.44 1043.99,-136.78 1056.6,-128.4"/>
<polygon fill="#64748b" stroke="#64748b" points="1057.68,-130.61 1062.27,-124.79 1055.05,-126.48 1057.68,-130.61"/>
</g>
<!-- n10&#45;&gt;n4 -->
<g id="edge21" class="edge">
<title>n10&#45;&gt;n4</title>
<path fill="none" stroke="#64748b" d="M1019.95,-232.78C1033.54,-223.3 1050.49,-211.47 1065.03,-201.32"/>
<polygon fill="#64748b" stroke="#64748b" points="1066.37,-203.37 1070.71,-197.35 1063.57,-199.35 1066.37,-203.37"/>
</g>
<!-- n11 -->
<g id="node12" class="node">
<title>n11</title>
<g id="a_node12"><a xlink:href="vscode://vscode-remote/wsl+Ubuntu/home/gavin/statlib/Statlib/Regression/master_error_bound_localized.lean:14" xlink:title="theorem · Statlib/Regression/master_error_bound_localized.lean:14" target="_blank">
<path fill="#ffe6a3" stroke="#d4a017" d="M1075.54,-341.2C1075.54,-341.2 948.46,-341.2 948.46,-341.2 942.46,-341.2 936.46,-335.2 936.46,-329.2 936.46,-329.2 936.46,-317.2 936.46,-317.2 936.46,-311.2 942.46,-305.2 948.46,-305.2 948.46,-305.2 1075.54,-305.2 1075.54,-305.2 1081.54,-305.2 1087.54,-311.2 1087.54,-317.2 1087.54,-317.2 1087.54,-329.2 1087.54,-329.2 1087.54,-335.2 1081.54,-341.2 1075.54,-341.2"/>
<text xml:space="preserve" text-anchor="middle" x="1012" y="-320.2" font-family="Helvetica,sans-Serif" font-size="10.00">master_error_bound_localized</text>
</a>
</g>
</g>
<!-- n11&#45;&gt;n0 -->
<g id="edge23" class="edge">
<title>n11&#45;&gt;n0</title>
<path fill="none" stroke="#64748b" d="M978.99,-304.87C963.7,-295.72 946.08,-283.42 933,-269.2 920.61,-255.73 925.21,-246.83 913,-233.2 834.47,-145.54 799.14,-138.47 697,-80 681.66,-71.22 664.31,-62.89 648.4,-55.84"/>
<polygon fill="#64748b" stroke="#64748b" points="649.51,-53.65 642.12,-53.1 647.55,-58.14 649.51,-53.65"/>
</g>
<!-- n11&#45;&gt;n2 -->
<g id="edge26" class="edge">
<title>n11&#45;&gt;n2</title>
<path fill="none" stroke="#64748b" d="M936.25,-310.02C854.57,-296.59 735.05,-276 727,-269.2 707.95,-253.09 699.89,-225 696.49,-204.43"/>
<polygon fill="#64748b" stroke="#64748b" points="698.93,-204.22 695.51,-197.64 694.08,-204.91 698.93,-204.22"/>
</g>
<!-- n11&#45;&gt;n3 -->
<g id="edge24" class="edge">
<title>n11&#45;&gt;n3</title>
<path fill="none" stroke="#64748b" d="M1032.38,-304.73C1041.81,-295.29 1052.01,-282.8 1057,-269.2 1062.52,-254.18 1065.97,-246.45 1057,-233.2 1051.63,-225.27 1042.37,-233.13 1037,-225.2 1020.75,-201.2 1025.09,-186.42 1037,-160 1042.34,-148.15 1051.79,-137.89 1061.63,-129.63"/>
<polygon fill="#64748b" stroke="#64748b" points="1062.96,-131.7 1066.92,-125.44 1059.91,-127.86 1062.96,-131.7"/>
</g>
<!-- n11&#45;&gt;n4 -->
<g id="edge25" class="edge">
<title>n11&#45;&gt;n4</title>
<path fill="none" stroke="#64748b" d="M1037.93,-304.72C1049.88,-295.45 1063.3,-283.11 1072,-269.2 1084.33,-249.49 1090.68,-223.63 1093.89,-204.66"/>
<polygon fill="#64748b" stroke="#64748b" points="1096.28,-205.26 1094.93,-197.97 1091.44,-204.51 1096.28,-205.26"/>
</g>
<!-- n11&#45;&gt;n10 -->
<g id="edge27" class="edge">
<title>n11&#45;&gt;n10</title>
<path fill="none" stroke="#64748b" d="M1007.8,-304.9C1005.78,-296.59 1003.32,-286.48 1001.11,-277.34"/>
<polygon fill="#64748b" stroke="#64748b" points="1003.54,-277 999.51,-270.78 998.78,-278.16 1003.54,-277"/>
</g>
<!-- n12 -->
<g id="node13" class="node">
<title>n12</title>
<g id="a_node13"><a xlink:href="vscode://vscode-remote/wsl+Ubuntu/home/gavin/statlib/Statlib/Regression/master_error_bound_probability_interface_structured.lean:13" xlink:title="theorem · Statlib/Regression/master_error_bound_probability_interface_structured.lean:13" target="_blank">
<path fill="#ffe6a3" stroke="#d4a017" d="M785.84,-341.2C785.84,-341.2 558.16,-341.2 558.16,-341.2 552.16,-341.2 546.16,-335.2 546.16,-329.2 546.16,-329.2 546.16,-317.2 546.16,-317.2 546.16,-311.2 552.16,-305.2 558.16,-305.2 558.16,-305.2 785.84,-305.2 785.84,-305.2 791.84,-305.2 797.84,-311.2 797.84,-317.2 797.84,-317.2 797.84,-329.2 797.84,-329.2 797.84,-335.2 791.84,-341.2 785.84,-341.2"/>
<text xml:space="preserve" text-anchor="middle" x="672" y="-320.2" font-family="Helvetica,sans-Serif" font-size="10.00">master_error_bound_probability_interface_structured</text>
</a>
</g>
</g>
<!-- n12&#45;&gt;n6 -->
<g id="edge30" class="edge">
<title>n12&#45;&gt;n6</title>
<path fill="none" stroke="#64748b" d="M798.02,-313.21C976.02,-300.25 1280.67,-277.03 1290,-269.2 1308.57,-253.61 1313.63,-225.43 1314.63,-204.71"/>
<polygon fill="#64748b" stroke="#64748b" points="1317.08,-204.91 1314.8,-197.85 1312.18,-204.79 1317.08,-204.91"/>
</g>
<!-- n12&#45;&gt;n0 -->
<g id="edge28" class="edge">
<title>n12&#45;&gt;n0</title>
<path fill="none" stroke="#64748b" d="M643.85,-304.74C631.86,-295.71 619.03,-283.55 612,-269.2 578.13,-200.09 586.08,-105.45 592.57,-60.59"/>
<polygon fill="#64748b" stroke="#64748b" points="594.97,-61.09 593.61,-53.8 590.13,-60.35 594.97,-61.09"/>
</g>
<!-- n12&#45;&gt;n1 -->
<g id="edge31" class="edge">
<title>n12&#45;&gt;n1</title>
<path fill="none" stroke="#64748b" d="M641.25,-304.75C625.71,-295.23 607.01,-282.65 592,-269.2 576.49,-255.3 579.69,-244.2 562,-233.2 507.6,-199.38 433.69,-186.66 385.67,-181.88"/>
<polygon fill="#64748b" stroke="#64748b" points="386.02,-179.45 378.82,-181.24 385.56,-184.33 386.02,-179.45"/>
</g>
<!-- n12&#45;&gt;n7 -->
<g id="edge29" class="edge">
<title>n12&#45;&gt;n7</title>
<path fill="none" stroke="#64748b" d="M613.31,-304.72C579.81,-294.74 537.73,-282.2 503.08,-271.88"/>
<polygon fill="#64748b" stroke="#64748b" points="504.21,-269.66 496.8,-270.01 502.81,-274.36 504.21,-269.66"/>
</g>
<!-- n13 -->
<g id="node14" class="node">
<title>n13</title>
<g id="a_node14"><a xlink:href="vscode://vscode-remote/wsl+Ubuntu/home/gavin/statlib/Statlib/Regression/master_error_bound_full_interface_structured.lean:17" xlink:title="theorem · Statlib/Regression/master_error_bound_full_interface_structured.lean:17" target="_blank">
<path fill="#ffe6a3" stroke="#d4a017" d="M886.45,-413.2C886.45,-413.2 691.55,-413.2 691.55,-413.2 685.55,-413.2 679.55,-407.2 679.55,-401.2 679.55,-401.2 679.55,-389.2 679.55,-389.2 679.55,-383.2 685.55,-377.2 691.55,-377.2 691.55,-377.2 886.45,-377.2 886.45,-377.2 892.45,-377.2 898.45,-383.2 898.45,-389.2 898.45,-389.2 898.45,-401.2 898.45,-401.2 898.45,-407.2 892.45,-413.2 886.45,-413.2"/>
<text xml:space="preserve" text-anchor="middle" x="789" y="-392.2" font-family="Helvetica,sans-Serif" font-size="10.00">master_error_bound_full_interface_structured</text>
</a>
</g>
</g>
<!-- n13&#45;&gt;n6 -->
<g id="edge37" class="edge">
<title>n13&#45;&gt;n6</title>
<path fill="none" stroke="#64748b" d="M898.69,-391.93C1057.3,-387.5 1335.19,-374.97 1366,-341.2 1398.35,-305.74 1383.91,-277.73 1366,-233.2 1361.26,-221.4 1352.58,-210.73 1343.66,-202.04"/>
<polygon fill="#64748b" stroke="#64748b" points="1345.41,-200.32 1338.6,-197.37 1342.09,-203.92 1345.41,-200.32"/>
</g>
<!-- n13&#45;&gt;n0 -->
<g id="edge32" class="edge">
<title>n13&#45;&gt;n0</title>
<path fill="none" stroke="#64748b" d="M799.79,-377.01C810.42,-357.64 822.94,-326.15 807,-305.2 770.7,-257.48 729.44,-298.26 677,-269.2 651.69,-255.17 642.82,-250.63 629,-225.2 600.02,-171.86 596.03,-98.68 596.18,-60.51"/>
<polygon fill="#64748b" stroke="#64748b" points="598.62,-61.02 596.26,-53.99 593.72,-60.96 598.62,-61.02"/>
</g>
<!-- n13&#45;&gt;n1 -->
<g id="edge38" class="edge">
<title>n13&#45;&gt;n1</title>
<path fill="none" stroke="#64748b" d="M679.32,-384C620.52,-376.12 556.26,-362.81 537,-341.2 504.93,-305.21 557.78,-270.3 527,-233.2 509,-211.51 435.8,-195.33 385.7,-186.53"/>
<polygon fill="#64748b" stroke="#64748b" points="386.36,-184.15 379.05,-185.38 385.53,-188.98 386.36,-184.15"/>
</g>
<!-- n13&#45;&gt;n2 -->
<g id="edge36" class="edge">
<title>n13&#45;&gt;n2</title>
<path fill="none" stroke="#64748b" d="M825.9,-376.89C839.86,-368.28 854.25,-356.41 862,-341.2 869.27,-326.95 872.07,-317.63 862,-305.2 813.37,-245.2 740.63,-329.2 692,-269.2 677.5,-251.31 680.31,-224.23 685.34,-204.4"/>
<polygon fill="#64748b" stroke="#64748b" points="687.64,-205.26 687.17,-197.86 682.92,-203.94 687.64,-205.26"/>
</g>
<!-- n13&#45;&gt;n3 -->
<g id="edge34" class="edge">
<title>n13&#45;&gt;n3</title>
<path fill="none" stroke="#64748b" d="M898.84,-387.59C978.93,-380.69 1078.85,-367.1 1111,-341.2 1175.7,-289.07 1191.16,-235.74 1157,-160 1151.66,-148.15 1142.21,-137.89 1132.37,-129.63"/>
<polygon fill="#64748b" stroke="#64748b" points="1134.09,-127.86 1127.08,-125.44 1131.04,-131.7 1134.09,-127.86"/>
</g>
<!-- n13&#45;&gt;n4 -->
<g id="edge35" class="edge">
<title>n13&#45;&gt;n4</title>
<path fill="none" stroke="#64748b" d="M898.61,-389.89C976.54,-384.24 1071.7,-371.23 1097,-341.2 1129.34,-302.82 1116.65,-239.27 1105.96,-204.2"/>
<polygon fill="#64748b" stroke="#64748b" points="1108.37,-203.7 1103.91,-197.78 1103.7,-205.19 1108.37,-203.7"/>
</g>
<!-- n13&#45;&gt;n7 -->
<g id="edge33" class="edge">
<title>n13&#45;&gt;n7</title>
<path fill="none" stroke="#64748b" d="M679.24,-387.57C628.87,-380.83 569.84,-367.47 522,-341.2 493.4,-325.49 468.67,-296.85 453.37,-276.29"/>
<polygon fill="#64748b" stroke="#64748b" points="455.54,-275.11 449.44,-270.89 451.58,-277.99 455.54,-275.11"/>
</g>
<!-- n13&#45;&gt;n11 -->
<g id="edge39" class="edge">
<title>n13&#45;&gt;n11</title>
<path fill="none" stroke="#64748b" d="M844.7,-376.72C876.35,-366.78 916.08,-354.31 948.88,-344.01"/>
<polygon fill="#64748b" stroke="#64748b" points="949.24,-346.47 955.18,-342.04 947.77,-341.79 949.24,-346.47"/>
</g>
<!-- n13&#45;&gt;n12 -->
<g id="edge40" class="edge">
<title>n13&#45;&gt;n12</title>
<path fill="none" stroke="#64748b" d="M759.78,-376.72C744.02,-367.29 724.45,-355.58 707.79,-345.61"/>
<polygon fill="#64748b" stroke="#64748b" points="709.41,-343.73 702.15,-342.24 706.9,-347.93 709.41,-343.73"/>
</g>
<!-- n14 -->
<g id="node15" class="node">
<title>n14</title>
<g id="a_node15"><a xlink:href="vscode://vscode-remote/wsl+Ubuntu/home/gavin/statlib/Statlib/Regression/regression_rate_of_master_bound.lean:11" xlink:title="theorem · Statlib/Regression/regression_rate_of_master_bound.lean:11" target="_blank">
<path fill="#ffe6a3" stroke="#d4a017" d="M892.44,-269.2C892.44,-269.2 747.56,-269.2 747.56,-269.2 741.56,-269.2 735.56,-263.2 735.56,-257.2 735.56,-257.2 735.56,-245.2 735.56,-245.2 735.56,-239.2 741.56,-233.2 747.56,-233.2 747.56,-233.2 892.44,-233.2 892.44,-233.2 898.44,-233.2 904.44,-239.2 904.44,-245.2 904.44,-245.2 904.44,-257.2 904.44,-257.2 904.44,-263.2 898.44,-269.2 892.44,-269.2"/>
<text xml:space="preserve" text-anchor="middle" x="820" y="-248.2" font-family="Helvetica,sans-Serif" font-size="10.00">regression_rate_of_master_bound</text>
</a>
</g>
</g>
<!-- n14&#45;&gt;n0 -->
<g id="edge41" class="edge">
<title>n14&#45;&gt;n0</title>
<path fill="none" stroke="#64748b" d="M810.45,-232.73C799.52,-213.63 780.36,-182.74 759,-160 720.06,-118.54 666.46,-80.05 631.77,-57.03"/>
<polygon fill="#64748b" stroke="#64748b" points="633.12,-54.98 625.93,-53.18 630.43,-59.08 633.12,-54.98"/>
</g>
<!-- n14&#45;&gt;n2 -->
<g id="edge44" class="edge">
<title>n14&#45;&gt;n2</title>
<path fill="none" stroke="#64748b" d="M789.18,-232.78C771.94,-223.04 750.31,-210.82 732.03,-200.49"/>
<polygon fill="#64748b" stroke="#64748b" points="733.56,-198.54 726.26,-197.23 731.15,-202.81 733.56,-198.54"/>
</g>
<!-- n14&#45;&gt;n3 -->
<g id="edge42" class="edge">
<title>n14&#45;&gt;n3</title>
<path fill="none" stroke="#64748b" d="M853.67,-232.71C888.7,-214.52 945.18,-185.22 994,-160 1014.51,-149.41 1037.33,-137.66 1056.27,-127.92"/>
<polygon fill="#64748b" stroke="#64748b" points="1057.14,-130.23 1062.24,-124.85 1054.9,-125.87 1057.14,-130.23"/>
</g>
<!-- n14&#45;&gt;n4 -->
<g id="edge43" class="edge">
<title>n14&#45;&gt;n4</title>
<path fill="none" stroke="#64748b" d="M887.76,-232.78C933.75,-220.96 993.96,-205.48 1037.98,-194.17"/>
<polygon fill="#64748b" stroke="#64748b" points="1038.37,-196.6 1044.54,-192.48 1037.15,-191.85 1038.37,-196.6"/>
</g>
<!-- n15 -->
<g id="node16" class="node">
<title>n15</title>
<g id="a_node16"><a xlink:href="vscode://vscode-remote/wsl+Ubuntu/home/gavin/statlib/Statlib/Regression/regression_full_interface_of_probability_structured_master_bound.lean:12" xlink:title="theorem · Statlib/Regression/regression_full_interface_of_probability_structured_master_bound.lean:12" target="_blank">
<path fill="#ffe6a3" stroke="#d4a017" d="M803.76,-485.2C803.76,-485.2 518.24,-485.2 518.24,-485.2 512.24,-485.2 506.24,-479.2 506.24,-473.2 506.24,-473.2 506.24,-461.2 506.24,-461.2 506.24,-455.2 512.24,-449.2 518.24,-449.2 518.24,-449.2 803.76,-449.2 803.76,-449.2 809.76,-449.2 815.76,-455.2 815.76,-461.2 815.76,-461.2 815.76,-473.2 815.76,-473.2 815.76,-479.2 809.76,-485.2 803.76,-485.2"/>
<text xml:space="preserve" text-anchor="middle" x="661" y="-464.2" font-family="Helvetica,sans-Serif" font-size="10.00">regression_full_interface_of_probability_structured_master_bound</text>
</a>
</g>
</g>
<!-- n15&#45;&gt;n0 -->
<g id="edge45" class="edge">
<title>n15&#45;&gt;n0</title>
<path fill="none" stroke="#64748b" d="M634.05,-448.88C603.85,-427.68 556.56,-388.68 537,-341.2 515.83,-289.79 567.19,-123.94 588.38,-60.24"/>
<polygon fill="#64748b" stroke="#64748b" points="590.65,-61.15 590.56,-53.73 586.01,-59.59 590.65,-61.15"/>
</g>
<!-- n15&#45;&gt;n1 -->
<g id="edge50" class="edge">
<title>n15&#45;&gt;n1</title>
<path fill="none" stroke="#64748b" d="M558.64,-448.78C530.6,-440.9 501.27,-429.53 477,-413.2 426.32,-379.1 435.02,-348.56 392,-305.2 373.96,-287.02 359.35,-291.64 347,-269.2 336.18,-249.54 334.3,-223.83 334.77,-204.89"/>
<polygon fill="#64748b" stroke="#64748b" points="337.21,-205.07 335.07,-197.97 332.32,-204.85 337.21,-205.07"/>
</g>
<!-- n15&#45;&gt;n2 -->
<g id="edge47" class="edge">
<title>n15&#45;&gt;n2</title>
<path fill="none" stroke="#64748b" d="M657.51,-448.73C654.62,-428.82 653.43,-396.53 671,-377.2 723.23,-319.72 793.06,-401.51 842,-341.2 852.08,-328.78 852.04,-317.66 842,-305.2 794.92,-246.74 724.08,-327.66 677,-269.2 662.18,-250.79 670.23,-223.44 679.64,-203.68"/>
<polygon fill="#64748b" stroke="#64748b" points="681.74,-204.96 682.72,-197.61 677.37,-202.74 681.74,-204.96"/>
</g>
<!-- n15&#45;&gt;n3 -->
<g id="edge48" class="edge">
<title>n15&#45;&gt;n3</title>
<path fill="none" stroke="#64748b" d="M815.97,-454.42C971.13,-438.23 1187,-401.76 1187,-324.2 1187,-324.2 1187,-324.2 1187,-250.2 1187,-209.49 1192.71,-194.44 1171,-160 1162.75,-146.92 1150,-136.09 1137.38,-127.71"/>
<polygon fill="#64748b" stroke="#64748b" points="1138.92,-125.78 1131.7,-124.11 1136.3,-129.92 1138.92,-125.78"/>
</g>
<!-- n15&#45;&gt;n4 -->
<g id="edge49" class="edge">
<title>n15&#45;&gt;n4</title>
<path fill="none" stroke="#64748b" d="M782.81,-448.72C901.67,-428.92 1070.36,-392.6 1111,-341.2 1140.87,-303.42 1129.6,-280.4 1120,-233.2 1117.98,-223.28 1114.09,-212.93 1110.07,-203.96"/>
<polygon fill="#64748b" stroke="#64748b" points="1112.39,-203.14 1107.19,-197.85 1107.95,-205.23 1112.39,-203.14"/>
</g>
<!-- n15&#45;&gt;n7 -->
<g id="edge46" class="edge">
<title>n15&#45;&gt;n7</title>
<path fill="none" stroke="#64748b" d="M565,-448.82C542.22,-440.99 519.49,-429.64 502,-413.2 481.6,-394.02 456.57,-317.89 444.38,-277.56"/>
<polygon fill="#64748b" stroke="#64748b" points="446.77,-276.99 442.42,-270.99 442.07,-278.39 446.77,-276.99"/>
</g>
<!-- n15&#45;&gt;n13 -->
<g id="edge51" class="edge">
<title>n15&#45;&gt;n13</title>
<path fill="none" stroke="#64748b" d="M692.97,-448.72C710.36,-439.21 732,-427.37 750.33,-417.35"/>
<polygon fill="#64748b" stroke="#64748b" points="751.14,-419.7 756.11,-414.19 748.79,-415.4 751.14,-419.7"/>
</g>
<!-- n15&#45;&gt;n14 -->
<g id="edge52" class="edge">
<title>n15&#45;&gt;n14</title>
<path fill="none" stroke="#64748b" d="M815.7,-448.71C857.12,-440.69 894.03,-429.26 907,-413.2 942.76,-368.92 885.87,-307.78 848.49,-275.05"/>
<polygon fill="#64748b" stroke="#64748b" points="850.27,-273.35 843.37,-270.65 847.08,-277.07 850.27,-273.35"/>
</g>
<!-- n16 -->
<g id="node17" class="node">
<title>n16</title>
<g id="a_node17"><a xlink:href="vscode://vscode-remote/wsl+Ubuntu/home/gavin/statlib/Statlib/Regression/linear_regression_full_interface_of_probability_structured_master_bound.lean:11" xlink:title="theorem · Statlib/Regression/linear_regression_full_interface_of_probability_structured_master_bound.lean:11" target="_blank">
<path fill="#ffe6a3" stroke="#d4a017" d="M773.77,-557.2C773.77,-557.2 458.23,-557.2 458.23,-557.2 452.23,-557.2 446.23,-551.2 446.23,-545.2 446.23,-545.2 446.23,-533.2 446.23,-533.2 446.23,-527.2 452.23,-521.2 458.23,-521.2 458.23,-521.2 773.77,-521.2 773.77,-521.2 779.77,-521.2 785.77,-527.2 785.77,-533.2 785.77,-533.2 785.77,-545.2 785.77,-545.2 785.77,-551.2 779.77,-557.2 773.77,-557.2"/>
<text xml:space="preserve" text-anchor="middle" x="616" y="-536.2" font-family="Helvetica,sans-Serif" font-size="10.00">linear_regression_full_interface_of_probability_structured_master_bound</text>
</a>
</g>
</g>
<!-- n16&#45;&gt;n0 -->
<g id="edge53" class="edge">
<title>n16&#45;&gt;n0</title>
<path fill="none" stroke="#64748b" d="M470.25,-520.74C332.18,-501.32 138,-465.62 83,-413.2 29.13,-361.85 37,-326.62 37,-252.2 37,-252.2 37,-252.2 37,-177 37,-125.83 55.28,-106.57 99,-80 136.12,-57.44 419.61,-42.65 541.54,-37.27"/>
<polygon fill="#64748b" stroke="#64748b" points="541.28,-39.73 548.17,-36.98 541.07,-34.84 541.28,-39.73"/>
</g>
<!-- n16&#45;&gt;n1 -->
<g id="edge58" class="edge">
<title>n16&#45;&gt;n1</title>
<path fill="none" stroke="#64748b" d="M511.23,-520.74C487.17,-512.91 463.08,-501.59 444,-485.2 376.6,-427.3 401.81,-381.93 357,-305.2 347.18,-288.38 337.82,-287.79 332,-269.2 325.37,-248.04 327.59,-222.75 330.9,-204.34"/>
<polygon fill="#64748b" stroke="#64748b" points="333.22,-205.23 332.18,-197.89 328.42,-204.28 333.22,-205.23"/>
</g>
<!-- n16&#45;&gt;n2 -->
<g id="edge55" class="edge">
<title>n16&#45;&gt;n2</title>
<path fill="none" stroke="#64748b" d="M542.28,-520.71C524.5,-512.85 507.59,-501.51 497,-485.2 488.29,-471.78 488.38,-462.68 497,-449.2 538.16,-384.88 580.78,-402.02 653,-377.2 719.47,-354.35 763.32,-396.27 807,-341.2 871.83,-259.47 723.95,-344.96 665,-269.2 649.98,-249.89 662.2,-222.57 675.08,-203.07"/>
<polygon fill="#64748b" stroke="#64748b" points="676.96,-204.65 678.94,-197.51 672.94,-201.86 676.96,-204.65"/>
</g>
<!-- n16&#45;&gt;n3 -->
<g id="edge56" class="edge">
<title>n16&#45;&gt;n3</title>
<path fill="none" stroke="#64748b" d="M786.2,-531.62C966.99,-519.86 1227,-487.13 1227,-396.2 1227,-396.2 1227,-396.2 1227,-250.2 1227,-205.79 1213.76,-192.97 1184,-160 1171.15,-145.77 1153.59,-134.09 1137.6,-125.35"/>
<polygon fill="#64748b" stroke="#64748b" points="1139.07,-123.35 1131.73,-122.25 1136.78,-127.68 1139.07,-123.35"/>
</g>
<!-- n16&#45;&gt;n4 -->
<g id="edge57" class="edge">
<title>n16&#45;&gt;n4</title>
<path fill="none" stroke="#64748b" d="M785.96,-525.29C905.76,-505.91 1056.56,-458.15 1125,-341.2 1149.26,-299.74 1141.66,-279.54 1129,-233.2 1126.17,-222.82 1120.78,-212.41 1115.22,-203.53"/>
<polygon fill="#64748b" stroke="#64748b" points="1117.3,-202.22 1111.4,-197.72 1113.2,-204.92 1117.3,-202.22"/>
</g>
<!-- n16&#45;&gt;n7 -->
<g id="edge54" class="edge">
<title>n16&#45;&gt;n7</title>
<path fill="none" stroke="#64748b" d="M512.94,-520.73C493.42,-512.89 475.04,-501.56 462,-485.2 436.89,-453.71 435.67,-331.57 436.4,-277.83"/>
<polygon fill="#64748b" stroke="#64748b" points="438.85,-278.07 436.51,-271.03 433.95,-277.99 438.85,-278.07"/>
</g>
<!-- n16&#45;&gt;n15 -->
<g id="edge59" class="edge">
<title>n16&#45;&gt;n15</title>
<path fill="none" stroke="#64748b" d="M627.12,-520.9C632.68,-512.25 639.5,-501.65 645.55,-492.23"/>
<polygon fill="#64748b" stroke="#64748b" points="647.46,-493.79 649.19,-486.58 643.34,-491.14 647.46,-493.79"/>
</g>
<!-- n17 -->
<g id="node18" class="node">
<title>n17</title>
<g id="a_node18"><a xlink:href="vscode://vscode-remote/wsl+Ubuntu/home/gavin/statlib/Statlib/Regression/linear_regression_full_interface_of_process_and_complexity_structured_master_bound.lean:11" xlink:title="theorem · Statlib/Regression/linear_regression_full_interface_of_process_and_complexity_structured_master_bound.lean:11" target="_blank">
<path fill="#ffe6a3" stroke="#d4a017" stroke-width="3" d="M711,-629.2C711,-629.2 331,-629.2 331,-629.2 325,-629.2 319,-623.2 319,-617.2 319,-617.2 319,-605.2 319,-605.2 319,-599.2 325,-593.2 331,-593.2 331,-593.2 711,-593.2 711,-593.2 717,-593.2 723,-599.2 723,-605.2 723,-605.2 723,-617.2 723,-617.2 723,-623.2 717,-629.2 711,-629.2"/>
<text xml:space="preserve" text-anchor="middle" x="521" y="-608.2" font-family="Helvetica,sans-Serif" font-size="10.00">linear_regression_full_interface_of_process_and_complexity_structured_master_bound</text>
</a>
</g>
</g>
<!-- n17&#45;&gt;n0 -->
<g id="edge60" class="edge">
<title>n17&#45;&gt;n0</title>
<path fill="none" stroke="#64748b" d="M328.3,-591.72C186.02,-572.54 17,-535.58 17,-468.2 17,-468.2 17,-468.2 17,-177 17,-132.13 10.27,-108.41 45,-80 82.83,-49.06 408.66,-38.88 541.24,-36"/>
<polygon fill="#64748b" stroke="#64748b" points="541.22,-38.45 548.17,-35.86 541.12,-33.56 541.22,-38.45"/>
</g>
<!-- n17&#45;&gt;n1 -->
<g id="edge61" class="edge">
<title>n17&#45;&gt;n1</title>
<path fill="none" stroke="#64748b" d="M392.21,-591.7C288.23,-569.14 148.79,-519.81 83,-413.2 39.34,-342.44 69.27,-285.39 134,-233.2 178.15,-197.6 243.55,-185.25 288.11,-181.04"/>
<polygon fill="#64748b" stroke="#64748b" points="288.18,-183.5 294.94,-180.46 287.76,-178.61 288.18,-183.5"/>
</g>
<!-- n17&#45;&gt;n2 -->
<g id="edge62" class="edge">
<title>n17&#45;&gt;n2</title>
<path fill="none" stroke="#64748b" d="M711.9,-591.7C741.07,-583.76 769.81,-572.66 795,-557.2 864.1,-514.79 880.69,-489.89 907,-413.2 923.47,-365.21 910.28,-336.05 870,-305.2 809.38,-258.77 752.59,-326.4 702,-269.2 693.83,-259.96 692.67,-228.14 693,-204.91"/>
<polygon fill="#64748b" stroke="#64748b" points="695.44,-205.06 693.15,-198 690.54,-204.95 695.44,-205.06"/>
</g>
<!-- n17&#45;&gt;n3 -->
<g id="edge63" class="edge">
<title>n17&#45;&gt;n3</title>
<path fill="none" stroke="#64748b" d="M724.44,-606.38C876.63,-601.01 1070.6,-588.12 1144,-557.2 1199.75,-533.71 1247,-528.7 1247,-468.2 1247,-468.2 1247,-468.2 1247,-250.2 1247,-206.87 1239.87,-191.39 1210,-160 1190.67,-139.69 1162.02,-126.38 1138.4,-118.17"/>
<polygon fill="#64748b" stroke="#64748b" points="1139.46,-115.94 1132.04,-116.06 1137.91,-120.59 1139.46,-115.94"/>
</g>
<!-- n17&#45;&gt;n4 -->
<g id="edge64" class="edge">
<title>n17&#45;&gt;n4</title>
<path fill="none" stroke="#64748b" d="M724.5,-606.94C926.75,-598.02 1207,-567.7 1207,-468.2 1207,-468.2 1207,-468.2 1207,-322.2 1207,-270.98 1162.2,-226.81 1129.78,-201.56"/>
<polygon fill="#64748b" stroke="#64748b" points="1131.33,-199.66 1124.27,-197.38 1128.36,-203.56 1131.33,-199.66"/>
</g>
<!-- n17&#45;&gt;n7 -->
<g id="edge65" class="edge">
<title>n17&#45;&gt;n7</title>
<path fill="none" stroke="#64748b" d="M476.52,-591.92C461.57,-583.54 446.34,-572.1 437,-557.2 415.86,-523.47 427,-508 427,-468.2 427,-468.2 427,-468.2 427,-394.2 427,-353.44 431.15,-306.26 434.1,-277.85"/>
<polygon fill="#64748b" stroke="#64748b" points="436.51,-278.39 434.82,-271.17 431.64,-277.87 436.51,-278.39"/>
</g>
<!-- n17&#45;&gt;n9 -->
<g id="edge66" class="edge">
<title>n17&#45;&gt;n9</title>
<path fill="none" stroke="#64748b" d="M482.32,-591.84C463.58,-582.36 441.06,-570.09 422,-557.2 357.55,-513.61 289.43,-452.33 254.23,-419.37"/>
<polygon fill="#64748b" stroke="#64748b" points="255.93,-417.6 249.16,-414.59 252.57,-421.17 255.93,-417.6"/>
</g>
<!-- n17&#45;&gt;n16 -->
<g id="edge67" class="edge">
<title>n17&#45;&gt;n16</title>
<path fill="none" stroke="#64748b" d="M545.96,-591.81C558.23,-582.77 573.1,-571.81 585.98,-562.32"/>
<polygon fill="#64748b" stroke="#64748b" points="587.11,-564.53 591.29,-558.4 584.21,-560.58 587.11,-564.53"/>
</g>
</g>
</svg>
