<?xml version="1.0" encoding="UTF-8" standalone="no"?>
<!DOCTYPE svg PUBLIC "-//W3C//DTD SVG 1.1//EN"
 "http://www.w3.org/Graphics/SVG/1.1/DTD/svg11.dtd">
<!-- Generated by graphviz version 15.0.0 (20260523.1842)
 -->
<!-- Title: LocalizedDeterministicAssumptions.ofProcessAndComplexity Pages: 1 -->
<svg width="1215pt" height="627pt"
 viewBox="0.00 0.00 1215.00 627.00" xmlns="http://www.w3.org/2000/svg" xmlns:xlink="http://www.w3.org/1999/xlink">
<g id="graph0" class="graph" transform="scale(1 1) rotate(0) translate(4 623.2)">
<title>LocalizedDeterministicAssumptions.ofProcessAndComplexity</title>
<polygon fill="white" stroke="none" points="-4,4 -4,-623.2 1211,-623.2 1211,4 -4,4"/>
<text xml:space="preserve" text-anchor="middle" x="603.5" y="-602.6" font-family="Helvetica,sans-Serif" font-size="14.00">Proof narrative — LocalizedDeterministicAssumptions.ofProcessAndComplexity &#160;(21 decls)</text>
<g id="clust1" class="cluster">
<title>cluster_0</title>
<path fill="none" stroke="#cbd5e1" stroke-dasharray="5,2" d="M1115,-80C1115,-80 1187,-80 1187,-80 1193,-80 1199,-86 1199,-92 1199,-92 1199,-213.2 1199,-213.2 1199,-219.2 1193,-225.2 1187,-225.2 1187,-225.2 1115,-225.2 1115,-225.2 1109,-225.2 1103,-219.2 1103,-213.2 1103,-213.2 1103,-92 1103,-92 1103,-86 1109,-80 1115,-80"/>
<text xml:space="preserve" text-anchor="middle" x="1151" y="-211.3" font-family="Helvetica,sans-Serif" font-size="11.00">Gaussian</text>
</g>
<g id="clust2" class="cluster">
<title>cluster_1</title>
<path fill="none" stroke="#cbd5e1" stroke-dasharray="5,2" d="M20,-8C20,-8 1083,-8 1083,-8 1089,-8 1095,-14 1095,-20 1095,-20 1095,-574.4 1095,-574.4 1095,-580.4 1089,-586.4 1083,-586.4 1083,-586.4 20,-586.4 20,-586.4 14,-586.4 8,-580.4 8,-574.4 8,-574.4 8,-20 8,-20 8,-14 14,-8 20,-8"/>
<text xml:space="preserve" text-anchor="middle" x="551.5" y="-572.5" font-family="Helvetica,sans-Serif" font-size="11.00">Regression</text>
</g>
<!-- n6 -->
<g id="node1" class="node">
<title>n6</title>
<g id="a_node1"><a xlink:href="vscode://vscode-remote/wsl+Ubuntu/home/gavin/statlib/Statlib/Gaussian/Basic.lean:29" xlink:title="abbrev · Statlib/Gaussian/Basic.lean:29" target="_blank">
<path fill="#d6e9ff" stroke="#3b82f6" d="M1174.79,-124C1174.79,-124 1127.21,-124 1127.21,-124 1121.21,-124 1115.21,-118 1115.21,-112 1115.21,-112 1115.21,-100 1115.21,-100 1115.21,-94 1121.21,-88 1127.21,-88 1127.21,-88 1174.79,-88 1174.79,-88 1180.79,-88 1186.79,-94 1186.79,-100 1186.79,-100 1186.79,-112 1186.79,-112 1186.79,-118 1180.79,-124 1174.79,-124"/>
<text xml:space="preserve" text-anchor="middle" x="1151" y="-103" font-family="Helvetica,sans-Serif" font-size="10.00">stdGaussian</text>
</a>
</g>
</g>
<!-- n7 -->
<g id="node2" class="node">
<title>n7</title>
<g id="a_node2"><a xlink:href="vscode://vscode-remote/wsl+Ubuntu/home/gavin/statlib/Statlib/Gaussian/Basic.lean:32" xlink:title="def · Statlib/Gaussian/Basic.lean:32" target="_blank">
<path fill="#d6e9ff" stroke="#3b82f6" d="M1179.24,-196C1179.24,-196 1122.76,-196 1122.76,-196 1116.76,-196 1110.76,-190 1110.76,-184 1110.76,-184 1110.76,-172 1110.76,-172 1110.76,-166 1116.76,-160 1122.76,-160 1122.76,-160 1179.24,-160 1179.24,-160 1185.24,-160 1191.24,-166 1191.24,-172 1191.24,-172 1191.24,-184 1191.24,-184 1191.24,-190 1185.24,-196 1179.24,-196"/>
<text xml:space="preserve" text-anchor="middle" x="1151" y="-175" font-family="Helvetica,sans-Serif" font-size="10.00">stdGaussianPi</text>
</a>
</g>
</g>
<!-- n7&#45;&gt;n6 -->
<g id="edge8" class="edge">
<title>n7&#45;&gt;n6</title>
<path fill="none" stroke="#64748b" d="M1151,-159.7C1151,-151.47 1151,-141.48 1151,-132.42"/>
<polygon fill="#64748b" stroke="#64748b" points="1153.45,-132.62 1151,-125.62 1148.55,-132.62 1153.45,-132.62"/>
</g>
<!-- n0 -->
<g id="node3" class="node">
<title>n0</title>
<g id="a_node3"><a xlink:href="vscode://vscode-remote/wsl+Ubuntu/home/gavin/statlib/Statlib/Regression/Basic.lean:29" xlink:title="structure · Statlib/Regression/Basic.lean:29" target="_blank">
<path fill="#e8dcff" stroke="#8b5cf6" d="M679.91,-52C679.91,-52 610.09,-52 610.09,-52 604.09,-52 598.09,-46 598.09,-40 598.09,-40 598.09,-28 598.09,-28 598.09,-22 604.09,-16 610.09,-16 610.09,-16 679.91,-16 679.91,-16 685.91,-16 691.91,-22 691.91,-28 691.91,-28 691.91,-40 691.91,-40 691.91,-46 685.91,-52 679.91,-52"/>
<text xml:space="preserve" text-anchor="middle" x="645" y="-31" font-family="Helvetica,sans-Serif" font-size="10.00">RegressionModel</text>
</a>
</g>
</g>
<!-- n1 -->
<g id="node4" class="node">
<title>n1</title>
<g id="a_node4"><a xlink:href="vscode://vscode-remote/wsl+Ubuntu/home/gavin/statlib/Statlib/Regression/IsStarShapedClass.lean:10" xlink:title="def · Statlib/Regression/IsStarShapedClass.lean:10" target="_blank">
<path fill="#d6e9ff" stroke="#3b82f6" d="M978.8,-341.2C978.8,-341.2 901.2,-341.2 901.2,-341.2 895.2,-341.2 889.2,-335.2 889.2,-329.2 889.2,-329.2 889.2,-317.2 889.2,-317.2 889.2,-311.2 895.2,-305.2 901.2,-305.2 901.2,-305.2 978.8,-305.2 978.8,-305.2 984.8,-305.2 990.8,-311.2 990.8,-317.2 990.8,-317.2 990.8,-329.2 990.8,-329.2 990.8,-335.2 984.8,-341.2 978.8,-341.2"/>
<text xml:space="preserve" text-anchor="middle" x="940" y="-320.2" font-family="Helvetica,sans-Serif" font-size="10.00">IsStarShapedClass</text>
</a>
</g>
</g>
<!-- n1&#45;&gt;n0 -->
<g id="edge1" class="edge">
<title>n1&#45;&gt;n0</title>
<path fill="none" stroke="#64748b" d="M940.31,-305.02C940.09,-259.41 932.48,-134.99 859,-80 834.35,-61.56 755.05,-48.42 700.23,-41.27"/>
<polygon fill="#64748b" stroke="#64748b" points="700.75,-38.87 693.5,-40.41 700.13,-43.73 700.75,-38.87"/>
</g>
<!-- n2 -->
<g id="node5" class="node">
<title>n2</title>
<g id="a_node5"><a xlink:href="vscode://vscode-remote/wsl+Ubuntu/home/gavin/statlib/Statlib/Regression/shiftedClass.lean:10" xlink:title="def · Statlib/Regression/shiftedClass.lean:10" target="_blank">
<path fill="#d6e9ff" stroke="#3b82f6" d="M839.23,-341.2C839.23,-341.2 792.77,-341.2 792.77,-341.2 786.77,-341.2 780.77,-335.2 780.77,-329.2 780.77,-329.2 780.77,-317.2 780.77,-317.2 780.77,-311.2 786.77,-305.2 792.77,-305.2 792.77,-305.2 839.23,-305.2 839.23,-305.2 845.23,-305.2 851.23,-311.2 851.23,-317.2 851.23,-317.2 851.23,-329.2 851.23,-329.2 851.23,-335.2 845.23,-341.2 839.23,-341.2"/>
<text xml:space="preserve" text-anchor="middle" x="816" y="-320.2" font-family="Helvetica,sans-Serif" font-size="10.00">shiftedClass</text>
</a>
</g>
</g>
<!-- n2&#45;&gt;n0 -->
<g id="edge2" class="edge">
<title>n2&#45;&gt;n0</title>
<path fill="none" stroke="#64748b" d="M835.94,-304.88C854.77,-287.08 881.74,-257.48 893,-225.2 902.54,-197.84 902.38,-187.42 893,-160 878.44,-117.44 868.76,-104.44 831,-80 791.81,-54.64 739.61,-43.56 700.49,-38.73"/>
<polygon fill="#64748b" stroke="#64748b" points="701.08,-36.33 693.85,-37.96 700.52,-41.2 701.08,-36.33"/>
</g>
<!-- n3 -->
<g id="node6" class="node">
<title>n3</title>
<g id="a_node6"><a xlink:href="vscode://vscode-remote/wsl+Ubuntu/home/gavin/statlib/Statlib/Regression/empiricalNorm.lean:10" xlink:title="def · Statlib/Regression/empiricalNorm.lean:10" target="_blank">
<path fill="#d6e9ff" stroke="#3b82f6" d="M794.23,-124C794.23,-124 737.77,-124 737.77,-124 731.77,-124 725.77,-118 725.77,-112 725.77,-112 725.77,-100 725.77,-100 725.77,-94 731.77,-88 737.77,-88 737.77,-88 794.23,-88 794.23,-88 800.23,-88 806.23,-94 806.23,-100 806.23,-100 806.23,-112 806.23,-112 806.23,-118 800.23,-124 794.23,-124"/>
<text xml:space="preserve" text-anchor="middle" x="766" y="-103" font-family="Helvetica,sans-Serif" font-size="10.00">empiricalNorm</text>
</a>
</g>
</g>
<!-- n3&#45;&gt;n0 -->
<g id="edge3" class="edge">
<title>n3&#45;&gt;n0</title>
<path fill="none" stroke="#64748b" d="M735.78,-87.52C719.49,-78.09 699.25,-66.38 682.02,-56.41"/>
<polygon fill="#64748b" stroke="#64748b" points="683.43,-54.4 676.15,-53.02 680.98,-58.64 683.43,-54.4"/>
</g>
<!-- n4 -->
<g id="node7" class="node">
<title>n4</title>
<g id="a_node7"><a xlink:href="vscode://vscode-remote/wsl+Ubuntu/home/gavin/statlib/Statlib/Regression/empiricalSphere.lean:11" xlink:title="def · Statlib/Regression/empiricalSphere.lean:11" target="_blank">
<path fill="#d6e9ff" stroke="#3b82f6" d="M872.13,-196C872.13,-196 807.87,-196 807.87,-196 801.87,-196 795.87,-190 795.87,-184 795.87,-184 795.87,-172 795.87,-172 795.87,-166 801.87,-160 807.87,-160 807.87,-160 872.13,-160 872.13,-160 878.13,-160 884.13,-166 884.13,-172 884.13,-172 884.13,-184 884.13,-184 884.13,-190 878.13,-196 872.13,-196"/>
<text xml:space="preserve" text-anchor="middle" x="840" y="-175" font-family="Helvetica,sans-Serif" font-size="10.00">empiricalSphere</text>
</a>
</g>
</g>
<!-- n4&#45;&gt;n0 -->
<g id="edge4" class="edge">
<title>n4&#45;&gt;n0</title>
<path fill="none" stroke="#64748b" d="M840.51,-159.75C840.17,-138.14 836.2,-101.34 815,-80 785.09,-49.9 737.55,-39.22 700.34,-35.74"/>
<polygon fill="#64748b" stroke="#64748b" points="700.77,-33.32 693.59,-35.2 700.37,-38.2 700.77,-33.32"/>
</g>
<!-- n4&#45;&gt;n3 -->
<g id="edge5" class="edge">
<title>n4&#45;&gt;n3</title>
<path fill="none" stroke="#64748b" d="M821.71,-159.7C812.28,-150.78 800.65,-139.78 790.46,-130.14"/>
<polygon fill="#64748b" stroke="#64748b" points="792.21,-128.42 785.44,-125.39 788.84,-131.98 792.21,-128.42"/>
</g>
<!-- n5 -->
<g id="node8" class="node">
<title>n5</title>
<g id="a_node8"><a xlink:href="vscode://vscode-remote/wsl+Ubuntu/home/gavin/statlib/Statlib/Regression/localizedBall.lean:11" xlink:title="def · Statlib/Regression/localizedBall.lean:11" target="_blank">
<path fill="#d6e9ff" stroke="#3b82f6" d="M765.79,-196C765.79,-196 718.21,-196 718.21,-196 712.21,-196 706.21,-190 706.21,-184 706.21,-184 706.21,-172 706.21,-172 706.21,-166 712.21,-160 718.21,-160 718.21,-160 765.79,-160 765.79,-160 771.79,-160 777.79,-166 777.79,-172 777.79,-172 777.79,-184 777.79,-184 777.79,-190 771.79,-196 765.79,-196"/>
<text xml:space="preserve" text-anchor="middle" x="742" y="-175" font-family="Helvetica,sans-Serif" font-size="10.00">localizedBall</text>
</a>
</g>
</g>
<!-- n5&#45;&gt;n0 -->
<g id="edge6" class="edge">
<title>n5&#45;&gt;n0</title>
<path fill="none" stroke="#64748b" d="M733.9,-159.64C722.55,-135.6 702.15,-93.59 692,-80 686.08,-72.08 678.72,-64.32 671.59,-57.53"/>
<polygon fill="#64748b" stroke="#64748b" points="673.61,-56.06 666.81,-53.1 670.28,-59.65 673.61,-56.06"/>
</g>
<!-- n5&#45;&gt;n3 -->
<g id="edge7" class="edge">
<title>n5&#45;&gt;n3</title>
<path fill="none" stroke="#64748b" d="M747.93,-159.7C750.78,-151.39 754.25,-141.28 757.38,-132.14"/>
<polygon fill="#64748b" stroke="#64748b" points="759.69,-132.95 759.64,-125.54 755.06,-131.36 759.69,-132.95"/>
</g>
<!-- n8 -->
<g id="node9" class="node">
<title>n8</title>
<g id="a_node9"><a xlink:href="vscode://vscode-remote/wsl+Ubuntu/home/gavin/statlib/Statlib/Regression/LocalizedProcessAssumptions.lean:14" xlink:title="structure · Statlib/Regression/LocalizedProcessAssumptions.lean:14" target="_blank">
<path fill="#e8dcff" stroke="#8b5cf6" d="M822.81,-413.2C822.81,-413.2 695.19,-413.2 695.19,-413.2 689.19,-413.2 683.19,-407.2 683.19,-401.2 683.19,-401.2 683.19,-389.2 683.19,-389.2 683.19,-383.2 689.19,-377.2 695.19,-377.2 695.19,-377.2 822.81,-377.2 822.81,-377.2 828.81,-377.2 834.81,-383.2 834.81,-389.2 834.81,-389.2 834.81,-401.2 834.81,-401.2 834.81,-407.2 828.81,-413.2 822.81,-413.2"/>
<text xml:space="preserve" text-anchor="middle" x="759" y="-392.2" font-family="Helvetica,sans-Serif" font-size="10.00">LocalizedProcessAssumptions</text>
</a>
</g>
</g>
<!-- n8&#45;&gt;n7 -->
<g id="edge14" class="edge">
<title>n8&#45;&gt;n7</title>
<path fill="none" stroke="#64748b" d="M835.29,-382.51C894.93,-372.43 972.24,-357.05 1000,-341.2 1060.77,-306.5 1111.41,-239.24 1135.64,-203.19"/>
<polygon fill="#64748b" stroke="#64748b" points="1137.46,-204.87 1139.29,-197.68 1133.38,-202.16 1137.46,-204.87"/>
</g>
<!-- n8&#45;&gt;n0 -->
<g id="edge9" class="edge">
<title>n8&#45;&gt;n0</title>
<path fill="none" stroke="#64748b" d="M752.08,-377.13C739.95,-346.85 714.49,-281.62 697,-225.2 677.28,-161.59 678.76,-143.9 660,-80 658.11,-73.56 655.9,-66.65 653.77,-60.23"/>
<polygon fill="#64748b" stroke="#64748b" points="656.18,-59.72 651.62,-53.87 651.54,-61.28 656.18,-59.72"/>
</g>
<!-- n8&#45;&gt;n1 -->
<g id="edge10" class="edge">
<title>n8&#45;&gt;n1</title>
<path fill="none" stroke="#64748b" d="M804.21,-376.72C829.46,-366.95 861.06,-354.73 887.41,-344.54"/>
<polygon fill="#64748b" stroke="#64748b" points="888,-346.94 893.64,-342.13 886.23,-342.37 888,-346.94"/>
</g>
<!-- n8&#45;&gt;n2 -->
<g id="edge11" class="edge">
<title>n8&#45;&gt;n2</title>
<path fill="none" stroke="#64748b" d="M773.09,-376.9C780.27,-368.08 789.1,-357.23 796.89,-347.67"/>
<polygon fill="#64748b" stroke="#64748b" points="798.6,-349.45 801.12,-342.48 794.8,-346.36 798.6,-349.45"/>
</g>
<!-- n8&#45;&gt;n4 -->
<g id="edge12" class="edge">
<title>n8&#45;&gt;n4</title>
<path fill="none" stroke="#64748b" d="M759.76,-376.73C760.96,-358.48 764.05,-329.22 772,-305.2 784.46,-267.57 807.74,-227.91 823.55,-203.32"/>
<polygon fill="#64748b" stroke="#64748b" points="825.4,-204.96 827.17,-197.76 821.3,-202.29 825.4,-204.96"/>
</g>
<!-- n8&#45;&gt;n5 -->
<g id="edge13" class="edge">
<title>n8&#45;&gt;n5</title>
<path fill="none" stroke="#64748b" d="M757.64,-376.95C754.65,-339.18 747.53,-248.97 744.02,-204.57"/>
<polygon fill="#64748b" stroke="#64748b" points="746.48,-204.62 743.49,-197.84 741.6,-205.01 746.48,-204.62"/>
</g>
<!-- n9 -->
<g id="node10" class="node">
<title>n9</title>
<g id="a_node10"><a xlink:href="vscode://vscode-remote/wsl+Ubuntu/home/gavin/statlib/Statlib/Regression/LocalGaussianComplexity.lean:11" xlink:title="def · Statlib/Regression/LocalGaussianComplexity.lean:11" target="_blank">
<path fill="#d6e9ff" stroke="#3b82f6" d="M635.81,-269.2C635.81,-269.2 528.19,-269.2 528.19,-269.2 522.19,-269.2 516.19,-263.2 516.19,-257.2 516.19,-257.2 516.19,-245.2 516.19,-245.2 516.19,-239.2 522.19,-233.2 528.19,-233.2 528.19,-233.2 635.81,-233.2 635.81,-233.2 641.81,-233.2 647.81,-239.2 647.81,-245.2 647.81,-245.2 647.81,-257.2 647.81,-257.2 647.81,-263.2 641.81,-269.2 635.81,-269.2"/>
<text xml:space="preserve" text-anchor="middle" x="582" y="-248.2" font-family="Helvetica,sans-Serif" font-size="10.00">LocalGaussianComplexity</text>
</a>
</g>
</g>
<!-- n9&#45;&gt;n7 -->
<g id="edge17" class="edge">
<title>n9&#45;&gt;n7</title>
<path fill="none" stroke="#64748b" d="M648.16,-249.45C778.27,-247.62 1058.33,-241.79 1099,-225.2 1111.17,-220.23 1122.4,-211.13 1131.28,-202.32"/>
<polygon fill="#64748b" stroke="#64748b" points="1132.91,-204.15 1135.99,-197.4 1129.38,-200.76 1132.91,-204.15"/>
</g>
<!-- n9&#45;&gt;n0 -->
<g id="edge15" class="edge">
<title>n9&#45;&gt;n0</title>
<path fill="none" stroke="#64748b" d="M587.05,-232.95C598.13,-195.1 624.63,-104.59 637.6,-60.29"/>
<polygon fill="#64748b" stroke="#64748b" points="639.89,-61.19 639.5,-53.78 635.18,-59.81 639.89,-61.19"/>
</g>
<!-- n9&#45;&gt;n5 -->
<g id="edge16" class="edge">
<title>n9&#45;&gt;n5</title>
<path fill="none" stroke="#64748b" d="M621.14,-232.78C644.43,-222.42 674.04,-209.24 698.12,-198.53"/>
<polygon fill="#64748b" stroke="#64748b" points="698.95,-200.84 704.35,-195.76 696.95,-196.36 698.95,-200.84"/>
</g>
<!-- n10 -->
<g id="node11" class="node">
<title>n10</title>
<g id="a_node11"><a xlink:href="vscode://vscode-remote/wsl+Ubuntu/home/gavin/statlib/Statlib/Regression/empiricalMetricImage.lean:11" xlink:title="def · Statlib/Regression/empiricalMetricImage.lean:11" target="_blank">
<path fill="#d6e9ff" stroke="#3b82f6" d="M431.51,-124C431.51,-124 344.49,-124 344.49,-124 338.49,-124 332.49,-118 332.49,-112 332.49,-112 332.49,-100 332.49,-100 332.49,-94 338.49,-88 344.49,-88 344.49,-88 431.51,-88 431.51,-88 437.51,-88 443.51,-94 443.51,-100 443.51,-100 443.51,-112 443.51,-112 443.51,-118 437.51,-124 431.51,-124"/>
<text xml:space="preserve" text-anchor="middle" x="388" y="-103" font-family="Helvetica,sans-Serif" font-size="10.00">empiricalMetricImage</text>
</a>
</g>
</g>
<!-- n10&#45;&gt;n0 -->
<g id="edge18" class="edge">
<title>n10&#45;&gt;n0</title>
<path fill="none" stroke="#64748b" d="M434.46,-87.63C442.27,-84.93 450.33,-82.28 458,-80 501.73,-66.97 552.07,-55.03 589.49,-46.72"/>
<polygon fill="#64748b" stroke="#64748b" points="589.96,-49.13 596.27,-45.23 588.91,-44.34 589.96,-49.13"/>
</g>
<!-- n11 -->
<g id="node12" class="node">
<title>n11</title>
<g id="a_node12"><a xlink:href="vscode://vscode-remote/wsl+Ubuntu/home/gavin/statlib/Statlib/Regression/dudleyEntropyUpper.lean:12" xlink:title="def · Statlib/Regression/dudleyEntropyUpper.lean:12" target="_blank">
<path fill="#d6e9ff" stroke="#3b82f6" d="M418.58,-269.2C418.58,-269.2 335.42,-269.2 335.42,-269.2 329.42,-269.2 323.42,-263.2 323.42,-257.2 323.42,-257.2 323.42,-245.2 323.42,-245.2 323.42,-239.2 329.42,-233.2 335.42,-233.2 335.42,-233.2 418.58,-233.2 418.58,-233.2 424.58,-233.2 430.58,-239.2 430.58,-245.2 430.58,-245.2 430.58,-257.2 430.58,-257.2 430.58,-263.2 424.58,-269.2 418.58,-269.2"/>
<text xml:space="preserve" text-anchor="middle" x="377" y="-248.2" font-family="Helvetica,sans-Serif" font-size="10.00">dudleyEntropyUpper</text>
</a>
</g>
</g>
<!-- n11&#45;&gt;n0 -->
<g id="edge19" class="edge">
<title>n11&#45;&gt;n0</title>
<path fill="none" stroke="#64748b" d="M361.88,-232.81C334.63,-199.34 283.63,-125.26 323,-80 356.89,-41.04 506.82,-34.78 589.61,-34.39"/>
<polygon fill="#64748b" stroke="#64748b" points="589.38,-36.84 596.38,-34.37 589.37,-31.94 589.38,-36.84"/>
</g>
<!-- n11&#45;&gt;n5 -->
<g id="edge21" class="edge">
<title>n11&#45;&gt;n5</title>
<path fill="none" stroke="#64748b" d="M430.86,-239.69C503.22,-225.58 630.47,-200.76 697.62,-187.66"/>
<polygon fill="#64748b" stroke="#64748b" points="698.01,-190.08 704.42,-186.33 697.08,-185.27 698.01,-190.08"/>
</g>
<!-- n11&#45;&gt;n10 -->
<g id="edge20" class="edge">
<title>n11&#45;&gt;n10</title>
<path fill="none" stroke="#64748b" d="M378.33,-232.93C380.24,-207.98 383.8,-161.7 386.02,-132.73"/>
<polygon fill="#64748b" stroke="#64748b" points="388.46,-133.01 386.55,-125.84 383.57,-132.64 388.46,-133.01"/>
</g>
<!-- n12 -->
<g id="node13" class="node">
<title>n12</title>
<g id="a_node13"><a xlink:href="vscode://vscode-remote/wsl+Ubuntu/home/gavin/statlib/Statlib/Regression/estimationErrorUpper.lean:11" xlink:title="def · Statlib/Regression/estimationErrorUpper.lean:11" target="_blank">
<path fill="#d6e9ff" stroke="#3b82f6" d="M236.52,-269.2C236.52,-269.2 149.48,-269.2 149.48,-269.2 143.48,-269.2 137.48,-263.2 137.48,-257.2 137.48,-257.2 137.48,-245.2 137.48,-245.2 137.48,-239.2 143.48,-233.2 149.48,-233.2 149.48,-233.2 236.52,-233.2 236.52,-233.2 242.52,-233.2 248.52,-239.2 248.52,-245.2 248.52,-245.2 248.52,-257.2 248.52,-257.2 248.52,-263.2 242.52,-269.2 236.52,-269.2"/>
<text xml:space="preserve" text-anchor="middle" x="193" y="-248.2" font-family="Helvetica,sans-Serif" font-size="10.00">estimationErrorUpper</text>
</a>
</g>
</g>
<!-- n12&#45;&gt;n0 -->
<g id="edge22" class="edge">
<title>n12&#45;&gt;n0</title>
<path fill="none" stroke="#64748b" d="M197.08,-232.92C206.41,-197.57 232.88,-117.19 288,-80 335.99,-47.62 501.59,-38.54 589.37,-35.99"/>
<polygon fill="#64748b" stroke="#64748b" points="589.43,-38.44 596.36,-35.8 589.3,-33.54 589.43,-38.44"/>
</g>
<!-- n13 -->
<g id="node14" class="node">
<title>n13</title>
<g id="a_node14"><a xlink:href="vscode://vscode-remote/wsl+Ubuntu/home/gavin/statlib/Statlib/Regression/LocalGaussianComplexityProxyAssumptions.lean:13" xlink:title="structure · Statlib/Regression/LocalGaussianComplexityProxyAssumptions.lean:13" target="_blank">
<path fill="#e8dcff" stroke="#8b5cf6" d="M388.21,-341.2C388.21,-341.2 197.79,-341.2 197.79,-341.2 191.79,-341.2 185.79,-335.2 185.79,-329.2 185.79,-329.2 185.79,-317.2 185.79,-317.2 185.79,-311.2 191.79,-305.2 197.79,-305.2 197.79,-305.2 388.21,-305.2 388.21,-305.2 394.21,-305.2 400.21,-311.2 400.21,-317.2 400.21,-317.2 400.21,-329.2 400.21,-329.2 400.21,-335.2 394.21,-341.2 388.21,-341.2"/>
<text xml:space="preserve" text-anchor="middle" x="293" y="-320.2" font-family="Helvetica,sans-Serif" font-size="10.00">LocalGaussianComplexityProxyAssumptions</text>
</a>
</g>
</g>
<!-- n13&#45;&gt;n0 -->
<g id="edge23" class="edge">
<title>n13&#45;&gt;n0</title>
<path fill="none" stroke="#64748b" d="M287.28,-304.75C274.01,-260.6 246.53,-143.48 305,-80 342.28,-39.52 502.99,-34.04 589.44,-34.12"/>
<polygon fill="#64748b" stroke="#64748b" points="589.3,-36.57 596.31,-34.14 589.32,-31.67 589.3,-36.57"/>
</g>
<!-- n13&#45;&gt;n9 -->
<g id="edge24" class="edge">
<title>n13&#45;&gt;n9</title>
<path fill="none" stroke="#64748b" d="M365.18,-304.72C408.78,-294.16 464.21,-280.73 508.11,-270.1"/>
<polygon fill="#64748b" stroke="#64748b" points="508.47,-272.53 514.7,-268.5 507.32,-267.77 508.47,-272.53"/>
</g>
<!-- n13&#45;&gt;n11 -->
<g id="edge25" class="edge">
<title>n13&#45;&gt;n11</title>
<path fill="none" stroke="#64748b" d="M313.76,-304.9C324.67,-295.81 338.16,-284.56 349.88,-274.8"/>
<polygon fill="#64748b" stroke="#64748b" points="351.21,-276.88 355.02,-270.52 348.07,-273.12 351.21,-276.88"/>
</g>
<!-- n13&#45;&gt;n12 -->
<g id="edge26" class="edge">
<title>n13&#45;&gt;n12</title>
<path fill="none" stroke="#64748b" d="M268.02,-304.72C254.8,-295.46 238.43,-284 224.36,-274.15"/>
<polygon fill="#64748b" stroke="#64748b" points="226.04,-272.34 218.9,-270.33 223.23,-276.35 226.04,-272.34"/>
</g>
<!-- n14 -->
<g id="node15" class="node">
<title>n14</title>
<g id="a_node15"><a xlink:href="vscode://vscode-remote/wsl+Ubuntu/home/gavin/statlib/Statlib/Regression/satisfiesCriticalInequality.lean:11" xlink:title="def · Statlib/Regression/satisfiesCriticalInequality.lean:11" target="_blank">
<path fill="#d6e9ff" stroke="#3b82f6" d="M690.74,-341.2C690.74,-341.2 589.26,-341.2 589.26,-341.2 583.26,-341.2 577.26,-335.2 577.26,-329.2 577.26,-329.2 577.26,-317.2 577.26,-317.2 577.26,-311.2 583.26,-305.2 589.26,-305.2 589.26,-305.2 690.74,-305.2 690.74,-305.2 696.74,-305.2 702.74,-311.2 702.74,-317.2 702.74,-317.2 702.74,-329.2 702.74,-329.2 702.74,-335.2 696.74,-341.2 690.74,-341.2"/>
<text xml:space="preserve" text-anchor="middle" x="640" y="-320.2" font-family="Helvetica,sans-Serif" font-size="10.00">satisfiesCriticalInequality</text>
</a>
</g>
</g>
<!-- n14&#45;&gt;n0 -->
<g id="edge27" class="edge">
<title>n14&#45;&gt;n0</title>
<path fill="none" stroke="#64748b" d="M647.07,-304.87C650.84,-294.67 655.09,-281.42 657,-269.2 668.75,-194.13 656.99,-104.03 649.75,-60.73"/>
<polygon fill="#64748b" stroke="#64748b" points="652.19,-60.44 648.59,-53.95 647.36,-61.27 652.19,-60.44"/>
</g>
<!-- n14&#45;&gt;n9 -->
<g id="edge28" class="edge">
<title>n14&#45;&gt;n9</title>
<path fill="none" stroke="#64748b" d="M625.66,-304.9C618.36,-296.08 609.37,-285.23 601.45,-275.67"/>
<polygon fill="#64748b" stroke="#64748b" points="603.49,-274.3 597.14,-270.47 599.72,-277.42 603.49,-274.3"/>
</g>
<!-- n15 -->
<g id="node16" class="node">
<title>n15</title>
<g id="a_node16"><a xlink:href="vscode://vscode-remote/wsl+Ubuntu/home/gavin/statlib/Statlib/Regression/LocalizedDeterministicAssumptions.lean:15" xlink:title="structure · Statlib/Regression/LocalizedDeterministicAssumptions.lean:15" target="_blank">
<path fill="#e8dcff" stroke="#8b5cf6" d="M1054.64,-413.2C1054.64,-413.2 905.36,-413.2 905.36,-413.2 899.36,-413.2 893.36,-407.2 893.36,-401.2 893.36,-401.2 893.36,-389.2 893.36,-389.2 893.36,-383.2 899.36,-377.2 905.36,-377.2 905.36,-377.2 1054.64,-377.2 1054.64,-377.2 1060.64,-377.2 1066.64,-383.2 1066.64,-389.2 1066.64,-389.2 1066.64,-401.2 1066.64,-401.2 1066.64,-407.2 1060.64,-413.2 1054.64,-413.2"/>
<text xml:space="preserve" text-anchor="middle" x="980" y="-392.2" font-family="Helvetica,sans-Serif" font-size="10.00">LocalizedDeterministicAssumptions</text>
</a>
</g>
</g>
<!-- n15&#45;&gt;n7 -->
<g id="edge35" class="edge">
<title>n15&#45;&gt;n7</title>
<path fill="none" stroke="#64748b" d="M1067.06,-380.44C1090.39,-372.63 1113.43,-360.38 1129,-341.2 1160.7,-302.15 1159.08,-239.56 1155.07,-204.65"/>
<polygon fill="#64748b" stroke="#64748b" points="1157.52,-204.54 1154.2,-197.9 1152.66,-205.16 1157.52,-204.54"/>
</g>
<!-- n15&#45;&gt;n0 -->
<g id="edge29" class="edge">
<title>n15&#45;&gt;n0</title>
<path fill="none" stroke="#64748b" d="M990.36,-376.96C1005.01,-350.9 1030,-299.51 1030,-252.2 1030,-252.2 1030,-252.2 1030,-177 1030,-98.72 955.54,-109.4 883,-80 823.32,-55.81 749.87,-44.46 700.49,-39.24"/>
<polygon fill="#64748b" stroke="#64748b" points="700.88,-36.82 693.67,-38.55 700.39,-41.69 700.88,-36.82"/>
</g>
<!-- n15&#45;&gt;n1 -->
<g id="edge32" class="edge">
<title>n15&#45;&gt;n1</title>
<path fill="none" stroke="#64748b" d="M970.11,-376.9C965.22,-368.34 959.23,-357.86 953.89,-348.5"/>
<polygon fill="#64748b" stroke="#64748b" points="956.13,-347.48 950.52,-342.62 951.87,-349.91 956.13,-347.48"/>
</g>
<!-- n15&#45;&gt;n2 -->
<g id="edge31" class="edge">
<title>n15&#45;&gt;n2</title>
<path fill="none" stroke="#64748b" d="M939.04,-376.72C914.81,-366.38 884.14,-353.29 859.49,-342.76"/>
<polygon fill="#64748b" stroke="#64748b" points="860.5,-340.53 853.1,-340.04 858.58,-345.04 860.5,-340.53"/>
</g>
<!-- n15&#45;&gt;n4 -->
<g id="edge33" class="edge">
<title>n15&#45;&gt;n4</title>
<path fill="none" stroke="#64748b" d="M990.28,-377.03C999.94,-358.52 1011.33,-328.57 1000,-305.2 976.41,-256.55 923.97,-221.02 885.53,-200.27"/>
<polygon fill="#64748b" stroke="#64748b" points="886.72,-198.13 879.38,-197.03 884.43,-202.46 886.72,-198.13"/>
</g>
<!-- n15&#45;&gt;n5 -->
<g id="edge34" class="edge">
<title>n15&#45;&gt;n5</title>
<path fill="none" stroke="#64748b" d="M934.33,-376.79C915.88,-368.14 895.36,-356.26 880,-341.2 866.93,-328.39 870.78,-320 860,-305.2 851.98,-294.19 795.9,-235.24 764.03,-201.94"/>
<polygon fill="#64748b" stroke="#64748b" points="766.03,-200.49 759.42,-197.13 762.49,-203.88 766.03,-200.49"/>
</g>
<!-- n15&#45;&gt;n14 -->
<g id="edge30" class="edge">
<title>n15&#45;&gt;n14</title>
<path fill="none" stroke="#64748b" d="M895.08,-376.72C838.39,-365.05 764.7,-349.87 711.11,-338.84"/>
<polygon fill="#64748b" stroke="#64748b" points="711.85,-336.49 704.5,-337.48 710.86,-341.29 711.85,-336.49"/>
</g>
<!-- n16 -->
<g id="node17" class="node">
<title>n16</title>
<g id="a_node17"><a xlink:href="vscode://vscode-remote/wsl+Ubuntu/home/gavin/statlib/Statlib/Regression/local_gaussian_complexity_to_proxy_structured.lean:13" xlink:title="theorem · Statlib/Regression/local_gaussian_complexity_to_proxy_structured.lean:13" target="_blank">
<path fill="#ffe6a3" stroke="#d4a017" d="M352.45,-413.2C352.45,-413.2 147.55,-413.2 147.55,-413.2 141.55,-413.2 135.55,-407.2 135.55,-401.2 135.55,-401.2 135.55,-389.2 135.55,-389.2 135.55,-383.2 141.55,-377.2 147.55,-377.2 147.55,-377.2 352.45,-377.2 352.45,-377.2 358.45,-377.2 364.45,-383.2 364.45,-389.2 364.45,-389.2 364.45,-401.2 364.45,-401.2 364.45,-407.2 358.45,-413.2 352.45,-413.2"/>
<text xml:space="preserve" text-anchor="middle" x="250" y="-392.2" font-family="Helvetica,sans-Serif" font-size="10.00">local_gaussian_complexity_to_proxy_structured</text>
</a>
</g>
</g>
<!-- n16&#45;&gt;n0 -->
<g id="edge36" class="edge">
<title>n16&#45;&gt;n0</title>
<path fill="none" stroke="#64748b" d="M344.92,-376.83C367.97,-368.99 391.11,-357.64 409,-341.2 500.78,-256.89 421.35,-166.57 511,-80 532.2,-59.53 562.99,-48.36 589.72,-42.28"/>
<polygon fill="#64748b" stroke="#64748b" points="590.05,-44.71 596.38,-40.86 589.03,-39.92 590.05,-44.71"/>
</g>
<!-- n16&#45;&gt;n9 -->
<g id="edge38" class="edge">
<title>n16&#45;&gt;n9</title>
<path fill="none" stroke="#64748b" d="M334.09,-376.73C368.36,-368.15 407.87,-356.35 442,-341.2 482.77,-323.1 525.45,-294.33 552.81,-274.42"/>
<polygon fill="#64748b" stroke="#64748b" points="554.01,-276.57 558.2,-270.46 551.11,-272.63 554.01,-276.57"/>
</g>
<!-- n16&#45;&gt;n12 -->
<g id="edge39" class="edge">
<title>n16&#45;&gt;n12</title>
<path fill="none" stroke="#64748b" d="M213.1,-376.89C199.14,-368.28 184.75,-356.41 177,-341.2 166.81,-321.22 172.98,-295.82 180.42,-277.28"/>
<polygon fill="#64748b" stroke="#64748b" points="182.64,-278.32 183.16,-270.92 178.14,-276.38 182.64,-278.32"/>
</g>
<!-- n16&#45;&gt;n13 -->
<g id="edge37" class="edge">
<title>n16&#45;&gt;n13</title>
<path fill="none" stroke="#64748b" d="M260.63,-376.9C265.89,-368.34 272.33,-357.86 278.07,-348.5"/>
<polygon fill="#64748b" stroke="#64748b" points="280.12,-349.84 281.7,-342.59 275.95,-347.28 280.12,-349.84"/>
</g>
<!-- n17 -->
<g id="node18" class="node">
<title>n17</title>
<g id="a_node18"><a xlink:href="vscode://vscode-remote/wsl+Ubuntu/home/gavin/statlib/Statlib/Regression/satisfiesCriticalInequality_of_proxy_bound.lean:13" xlink:title="lemma · Statlib/Regression/satisfiesCriticalInequality_of_proxy_bound.lean:13" target="_blank">
<path fill="#eef2f6" stroke="#94a3b8" d="M573.39,-413.2C573.39,-413.2 394.61,-413.2 394.61,-413.2 388.61,-413.2 382.61,-407.2 382.61,-401.2 382.61,-401.2 382.61,-389.2 382.61,-389.2 382.61,-383.2 388.61,-377.2 394.61,-377.2 394.61,-377.2 573.39,-377.2 573.39,-377.2 579.39,-377.2 585.39,-383.2 585.39,-389.2 585.39,-389.2 585.39,-401.2 585.39,-401.2 585.39,-407.2 579.39,-413.2 573.39,-413.2"/>
<text xml:space="preserve" text-anchor="middle" x="484" y="-392.2" font-family="Helvetica,sans-Serif" font-size="10.00">satisfiesCriticalInequality_of_proxy_bound</text>
</a>
</g>
</g>
<!-- n17&#45;&gt;n0 -->
<g id="edge40" class="edge">
<title>n17&#45;&gt;n0</title>
<path fill="none" stroke="#64748b" d="M486.63,-376.76C490.43,-350.02 497,-297.26 497,-252.2 497,-252.2 497,-252.2 497,-177 497,-120.28 554.3,-79.17 597.59,-56.2"/>
<polygon fill="#64748b" stroke="#64748b" points="598.51,-58.48 603.6,-53.09 596.26,-54.13 598.51,-58.48"/>
</g>
<!-- n17&#45;&gt;n9 -->
<g id="edge41" class="edge">
<title>n17&#45;&gt;n9</title>
<path fill="none" stroke="#64748b" d="M496.02,-376.79C513.45,-351.53 545.82,-304.63 565.48,-276.13"/>
<polygon fill="#64748b" stroke="#64748b" points="567.37,-277.71 569.33,-270.56 563.34,-274.93 567.37,-277.71"/>
</g>
<!-- n17&#45;&gt;n12 -->
<g id="edge42" class="edge">
<title>n17&#45;&gt;n12</title>
<path fill="none" stroke="#64748b" d="M474.18,-376.95C461.68,-356.62 438.18,-323.32 409,-305.2 383.84,-289.58 311.3,-273.65 257.18,-263.39"/>
<polygon fill="#64748b" stroke="#64748b" points="257.81,-261.02 250.48,-262.14 256.91,-265.84 257.81,-261.02"/>
</g>
<!-- n17&#45;&gt;n14 -->
<g id="edge43" class="edge">
<title>n17&#45;&gt;n14</title>
<path fill="none" stroke="#64748b" d="M522.96,-376.72C544.36,-367.12 571.03,-355.15 593.5,-345.06"/>
<polygon fill="#64748b" stroke="#64748b" points="594.5,-347.3 599.88,-342.2 592.49,-342.83 594.5,-347.3"/>
</g>
<!-- n18 -->
<g id="node19" class="node">
<title>n18</title>
<g id="a_node19"><a xlink:href="vscode://vscode-remote/wsl+Ubuntu/home/gavin/statlib/Statlib/Regression/satisfiesCriticalInequality_of_localGaussianComplexityProxyAssumptions.lean:17" xlink:title="lemma · Statlib/Regression/satisfiesCriticalInequality_of_localGaussianComplexityProxyAssumptions.lean:17" target="_blank">
<path fill="#eef2f6" stroke="#94a3b8" d="M518.01,-485.2C518.01,-485.2 201.99,-485.2 201.99,-485.2 195.99,-485.2 189.99,-479.2 189.99,-473.2 189.99,-473.2 189.99,-461.2 189.99,-461.2 189.99,-455.2 195.99,-449.2 201.99,-449.2 201.99,-449.2 518.01,-449.2 518.01,-449.2 524.01,-449.2 530.01,-455.2 530.01,-461.2 530.01,-461.2 530.01,-473.2 530.01,-473.2 530.01,-479.2 524.01,-485.2 518.01,-485.2"/>
<text xml:space="preserve" text-anchor="middle" x="360" y="-464.2" font-family="Helvetica,sans-Serif" font-size="10.00">satisfiesCriticalInequality_of_localGaussianComplexityProxyAssumptions</text>
</a>
</g>
</g>
<!-- n18&#45;&gt;n0 -->
<g id="edge44" class="edge">
<title>n18&#45;&gt;n0</title>
<path fill="none" stroke="#64748b" d="M217.45,-448.75C167.25,-440.23 118.46,-428.47 99,-413.2 64.58,-386.21 57,-367.94 57,-324.2 57,-324.2 57,-324.2 57,-177 57,-68.11 442.82,-42.46 589.41,-36.64"/>
<polygon fill="#64748b" stroke="#64748b" points="589.46,-39.09 596.36,-36.37 589.27,-34.19 589.46,-39.09"/>
</g>
<!-- n18&#45;&gt;n9 -->
<g id="edge48" class="edge">
<title>n18&#45;&gt;n9</title>
<path fill="none" stroke="#64748b" d="M503.14,-448.72C544.17,-440.59 581.29,-429.11 594,-413.2 603.99,-400.7 598.92,-392.42 594,-377.2 587.93,-358.42 574.07,-359.98 568,-341.2 561.24,-320.29 566.11,-295.53 571.89,-277.44"/>
<polygon fill="#64748b" stroke="#64748b" points="574.12,-278.48 574.08,-271.07 569.49,-276.89 574.12,-278.48"/>
</g>
<!-- n18&#45;&gt;n12 -->
<g id="edge46" class="edge">
<title>n18&#45;&gt;n12</title>
<path fill="none" stroke="#64748b" d="M206.25,-448.71C164.87,-440.67 127.95,-429.25 115,-413.2 79.97,-369.78 132.49,-308.04 166.95,-275.05"/>
<polygon fill="#64748b" stroke="#64748b" points="168.2,-277.24 171.63,-270.66 164.85,-273.67 168.2,-277.24"/>
</g>
<!-- n18&#45;&gt;n13 -->
<g id="edge45" class="edge">
<title>n18&#45;&gt;n13</title>
<path fill="none" stroke="#64748b" d="M217.78,-448.71C176.8,-440.58 139.68,-429.09 127,-413.2 100.77,-380.33 142.78,-358.03 191.08,-343.97"/>
<polygon fill="#64748b" stroke="#64748b" points="191.66,-346.35 197.74,-342.11 190.34,-341.63 191.66,-346.35"/>
</g>
<!-- n18&#45;&gt;n14 -->
<g id="edge47" class="edge">
<title>n18&#45;&gt;n14</title>
<path fill="none" stroke="#64748b" d="M499.19,-448.71C546.37,-440.28 591.55,-428.58 609,-413.2 627.17,-397.17 634.69,-369.91 637.81,-349.77"/>
<polygon fill="#64748b" stroke="#64748b" points="640.23,-350.12 638.72,-342.86 635.37,-349.47 640.23,-350.12"/>
</g>
<!-- n18&#45;&gt;n16 -->
<g id="edge49" class="edge">
<title>n18&#45;&gt;n16</title>
<path fill="none" stroke="#64748b" d="M332.53,-448.72C317.85,-439.38 299.64,-427.79 284.07,-417.88"/>
<polygon fill="#64748b" stroke="#64748b" points="285.62,-415.96 278.4,-414.27 282.99,-420.1 285.62,-415.96"/>
</g>
<!-- n18&#45;&gt;n17 -->
<g id="edge50" class="edge">
<title>n18&#45;&gt;n17</title>
<path fill="none" stroke="#64748b" d="M390.97,-448.72C407.67,-439.29 428.41,-427.58 446.07,-417.61"/>
<polygon fill="#64748b" stroke="#64748b" points="447.21,-419.78 452.11,-414.2 444.81,-415.51 447.21,-419.78"/>
</g>
<!-- n19 -->
<g id="node20" class="node">
<title>n19</title>
<g id="a_node20"><a xlink:href="vscode://vscode-remote/wsl+Ubuntu/home/gavin/statlib/Statlib/Regression/LocalizedDeterministicAssumptions_ofProcessAndCI.lean:15" xlink:title="lemma · Statlib/Regression/LocalizedDeterministicAssumptions_ofProcessAndCI.lean:15" target="_blank">
<path fill="#eef2f6" stroke="#94a3b8" d="M986.16,-485.2C986.16,-485.2 761.84,-485.2 761.84,-485.2 755.84,-485.2 749.84,-479.2 749.84,-473.2 749.84,-473.2 749.84,-461.2 749.84,-461.2 749.84,-455.2 755.84,-449.2 761.84,-449.2 761.84,-449.2 986.16,-449.2 986.16,-449.2 992.16,-449.2 998.16,-455.2 998.16,-461.2 998.16,-461.2 998.16,-473.2 998.16,-473.2 998.16,-479.2 992.16,-485.2 986.16,-485.2"/>
<text xml:space="preserve" text-anchor="middle" x="874" y="-464.2" font-family="Helvetica,sans-Serif" font-size="10.00">LocalizedDeterministicAssumptions.ofProcessAndCI</text>
</a>
</g>
</g>
<!-- n19&#45;&gt;n0 -->
<g id="edge51" class="edge">
<title>n19&#45;&gt;n0</title>
<path fill="none" stroke="#64748b" d="M983.99,-448.75C1024.18,-440.08 1063.02,-428.21 1076,-413.2 1102.04,-383.09 1086,-364 1086,-324.2 1086,-324.2 1086,-324.2 1086,-177 1086,-102.76 1018.86,-107.75 950,-80 867.33,-46.69 763.16,-37.67 700.43,-35.44"/>
<polygon fill="#64748b" stroke="#64748b" points="700.83,-33 693.76,-35.23 700.67,-37.9 700.83,-33"/>
</g>
<!-- n19&#45;&gt;n2 -->
<g id="edge54" class="edge">
<title>n19&#45;&gt;n2</title>
<path fill="none" stroke="#64748b" d="M873.66,-448.71C872.72,-430.19 869.51,-400.48 859,-377.2 854.18,-366.53 846.67,-356.2 839.27,-347.54"/>
<polygon fill="#64748b" stroke="#64748b" points="841.18,-345.99 834.69,-342.39 837.52,-349.25 841.18,-345.99"/>
</g>
<!-- n19&#45;&gt;n8 -->
<g id="edge52" class="edge">
<title>n19&#45;&gt;n8</title>
<path fill="none" stroke="#64748b" d="M845.28,-448.72C829.93,-439.38 810.9,-427.79 794.62,-417.88"/>
<polygon fill="#64748b" stroke="#64748b" points="795.9,-415.79 788.65,-414.25 793.36,-419.98 795.9,-415.79"/>
</g>
<!-- n19&#45;&gt;n14 -->
<g id="edge53" class="edge">
<title>n19&#45;&gt;n14</title>
<path fill="none" stroke="#64748b" d="M749.38,-452.36C722.05,-444.41 695.03,-432.12 674,-413.2 655.9,-396.92 647.37,-369.93 643.39,-349.93"/>
<polygon fill="#64748b" stroke="#64748b" points="645.81,-349.53 642.17,-343.06 640.98,-350.38 645.81,-349.53"/>
</g>
<!-- n19&#45;&gt;n15 -->
<g id="edge55" class="edge">
<title>n19&#45;&gt;n15</title>
<path fill="none" stroke="#64748b" d="M900.47,-448.72C914.49,-439.46 931.85,-428 946.76,-418.15"/>
<polygon fill="#64748b" stroke="#64748b" points="948.11,-420.2 952.6,-414.29 945.41,-416.11 948.11,-420.2"/>
</g>
<!-- n20 -->
<g id="node21" class="node">
<title>n20</title>
<g id="a_node21"><a xlink:href="vscode://vscode-remote/wsl+Ubuntu/home/gavin/statlib/Statlib/Regression/LocalizedDeterministicAssumptions_ofProcessAndComplexity.lean:20" xlink:title="lemma · Statlib/Regression/LocalizedDeterministicAssumptions_ofProcessAndComplexity.lean:20" target="_blank">
<path fill="#eef2f6" stroke="#94a3b8" stroke-width="3" d="M775.89,-557.2C775.89,-557.2 512.11,-557.2 512.11,-557.2 506.11,-557.2 500.11,-551.2 500.11,-545.2 500.11,-545.2 500.11,-533.2 500.11,-533.2 500.11,-527.2 506.11,-521.2 512.11,-521.2 512.11,-521.2 775.89,-521.2 775.89,-521.2 781.89,-521.2 787.89,-527.2 787.89,-533.2 787.89,-533.2 787.89,-545.2 787.89,-545.2 787.89,-551.2 781.89,-557.2 775.89,-557.2"/>
<text xml:space="preserve" text-anchor="middle" x="644" y="-536.2" font-family="Helvetica,sans-Serif" font-size="10.00">LocalizedDeterministicAssumptions.ofProcessAndComplexity</text>
</a>
</g>
</g>
<!-- n20&#45;&gt;n0 -->
<g id="edge56" class="edge">
<title>n20&#45;&gt;n0</title>
<path fill="none" stroke="#64748b" d="M498.83,-537.06C358.23,-533.71 156.54,-522.31 88,-485.2 43.5,-461.11 17,-446.8 17,-396.2 17,-396.2 17,-396.2 17,-177 17,-122.23 44.77,-105.96 93,-80 135.98,-56.87 458.02,-42.12 589.42,-37.01"/>
<polygon fill="#64748b" stroke="#64748b" points="589.39,-39.46 596.29,-36.75 589.2,-34.57 589.39,-39.46"/>
</g>
<!-- n20&#45;&gt;n2 -->
<g id="edge59" class="edge">
<title>n20&#45;&gt;n2</title>
<path fill="none" stroke="#64748b" d="M666.99,-519.92C679.17,-509.98 694.22,-497.27 707,-485.2 723,-470.09 722.53,-461.17 741,-449.2 781.69,-422.82 815.93,-452.74 844,-413.2 857.72,-393.87 846.61,-367.57 834.57,-348.57"/>
<polygon fill="#64748b" stroke="#64748b" points="836.73,-347.4 830.8,-342.94 832.66,-350.12 836.73,-347.4"/>
</g>
<!-- n20&#45;&gt;n8 -->
<g id="edge57" class="edge">
<title>n20&#45;&gt;n8</title>
<path fill="none" stroke="#64748b" d="M658.8,-519.93C679.47,-494.41 716.99,-448.07 739.79,-419.91"/>
<polygon fill="#64748b" stroke="#64748b" points="741.52,-421.67 744.03,-414.69 737.72,-418.59 741.52,-421.67"/>
</g>
<!-- n20&#45;&gt;n12 -->
<g id="edge60" class="edge">
<title>n20&#45;&gt;n12</title>
<path fill="none" stroke="#64748b" d="M498.75,-531.41C355.16,-523.44 152.82,-508.28 124,-485.2 61.42,-435.08 68.18,-372.34 112,-305.2 120.37,-292.38 133.04,-281.97 145.9,-273.88"/>
<polygon fill="#64748b" stroke="#64748b" points="146.98,-276.09 151.73,-270.4 144.47,-271.88 146.98,-276.09"/>
</g>
<!-- n20&#45;&gt;n13 -->
<g id="edge58" class="edge">
<title>n20&#45;&gt;n13</title>
<path fill="none" stroke="#64748b" d="M498.83,-532.61C384.23,-526.17 234.97,-512.71 181,-485.2 130.88,-459.65 81.37,-422.3 115,-377.2 125.08,-363.68 156.65,-352.36 190.46,-343.7"/>
<polygon fill="#64748b" stroke="#64748b" points="190.95,-346.1 197.15,-342.03 189.77,-341.34 190.95,-346.1"/>
</g>
<!-- n20&#45;&gt;n14 -->
<g id="edge62" class="edge">
<title>n20&#45;&gt;n14</title>
<path fill="none" stroke="#64748b" d="M643.66,-519.95C642.95,-481.85 641.3,-393.71 640.48,-349.89"/>
<polygon fill="#64748b" stroke="#64748b" points="642.93,-349.97 640.35,-343.01 638.03,-350.06 642.93,-349.97"/>
</g>
<!-- n20&#45;&gt;n15 -->
<g id="edge61" class="edge">
<title>n20&#45;&gt;n15</title>
<path fill="none" stroke="#64748b" d="M789.35,-535.8C877.63,-530.92 978.62,-518.02 1007,-485.2 1022.71,-467.03 1011.05,-439.93 998.52,-420.41"/>
<polygon fill="#64748b" stroke="#64748b" points="1000.71,-419.28 994.76,-414.85 996.65,-422.02 1000.71,-419.28"/>
</g>
<!-- n20&#45;&gt;n18 -->
<g id="edge63" class="edge">
<title>n20&#45;&gt;n18</title>
<path fill="none" stroke="#64748b" d="M569.01,-519.72C528.8,-509.81 479.29,-497.6 438.55,-487.56"/>
<polygon fill="#64748b" stroke="#64748b" points="439.37,-485.24 431.99,-485.94 438.2,-490 439.37,-485.24"/>
</g>
<!-- n20&#45;&gt;n19 -->
<g id="edge64" class="edge">
<title>n20&#45;&gt;n19</title>
<path fill="none" stroke="#64748b" d="M704.73,-519.72C736.89,-509.93 776.39,-497.91 809.15,-487.94"/>
<polygon fill="#64748b" stroke="#64748b" points="809.46,-490.4 815.44,-486.02 808.03,-485.72 809.46,-490.4"/>
</g>
</g>
</svg>
