<?xml version="1.0" encoding="UTF-8" standalone="no"?>
<!DOCTYPE svg PUBLIC "-//W3C//DTD SVG 1.1//EN"
 "http://www.w3.org/Graphics/SVG/1.1/DTD/svg11.dtd">
<!-- Generated by graphviz version 15.0.0 (20260523.1842)
 -->
<!-- Title: LocalizedProxyCriticalAssumptions.ofProcessAndEntropy Pages: 1 -->
<svg width="1523pt" height="627pt"
 viewBox="0.00 0.00 1523.00 627.00" xmlns="http://www.w3.org/2000/svg" xmlns:xlink="http://www.w3.org/1999/xlink">
<g id="graph0" class="graph" transform="scale(1 1) rotate(0) translate(4 623.2)">
<title>LocalizedProxyCriticalAssumptions.ofProcessAndEntropy</title>
<polygon fill="white" stroke="none" points="-4,4 -4,-623.2 1519,-623.2 1519,4 -4,4"/>
<text xml:space="preserve" text-anchor="middle" x="757.5" y="-602.6" font-family="Helvetica,sans-Serif" font-size="14.00">Proof narrative — LocalizedProxyCriticalAssumptions.ofProcessAndEntropy &#160;(21 decls)</text>
<g id="clust1" class="cluster">
<title>cluster_0</title>
<path fill="none" stroke="#cbd5e1" stroke-dasharray="5,2" d="M1423,-80C1423,-80 1495,-80 1495,-80 1501,-80 1507,-86 1507,-92 1507,-92 1507,-213.2 1507,-213.2 1507,-219.2 1501,-225.2 1495,-225.2 1495,-225.2 1423,-225.2 1423,-225.2 1417,-225.2 1411,-219.2 1411,-213.2 1411,-213.2 1411,-92 1411,-92 1411,-86 1417,-80 1423,-80"/>
<text xml:space="preserve" text-anchor="middle" x="1459" y="-211.3" font-family="Helvetica,sans-Serif" font-size="11.00">Gaussian</text>
</g>
<g id="clust2" class="cluster">
<title>cluster_1</title>
<path fill="none" stroke="#cbd5e1" stroke-dasharray="5,2" d="M20,-8C20,-8 1391,-8 1391,-8 1397,-8 1403,-14 1403,-20 1403,-20 1403,-574.4 1403,-574.4 1403,-580.4 1397,-586.4 1391,-586.4 1391,-586.4 20,-586.4 20,-586.4 14,-586.4 8,-580.4 8,-574.4 8,-574.4 8,-20 8,-20 8,-14 14,-8 20,-8"/>
<text xml:space="preserve" text-anchor="middle" x="705.5" y="-572.5" font-family="Helvetica,sans-Serif" font-size="11.00">Regression</text>
</g>
<!-- n6 -->
<g id="node1" class="node">
<title>n6</title>
<g id="a_node1"><a xlink:href="vscode://vscode-remote/wsl+Ubuntu/home/gavin/statlib/Statlib/Gaussian/Basic.lean:29" xlink:title="abbrev · Statlib/Gaussian/Basic.lean:29" target="_blank">
<path fill="#d6e9ff" stroke="#3b82f6" d="M1482.79,-124C1482.79,-124 1435.21,-124 1435.21,-124 1429.21,-124 1423.21,-118 1423.21,-112 1423.21,-112 1423.21,-100 1423.21,-100 1423.21,-94 1429.21,-88 1435.21,-88 1435.21,-88 1482.79,-88 1482.79,-88 1488.79,-88 1494.79,-94 1494.79,-100 1494.79,-100 1494.79,-112 1494.79,-112 1494.79,-118 1488.79,-124 1482.79,-124"/>
<text xml:space="preserve" text-anchor="middle" x="1459" y="-103" font-family="Helvetica,sans-Serif" font-size="10.00">stdGaussian</text>
</a>
</g>
</g>
<!-- n7 -->
<g id="node2" class="node">
<title>n7</title>
<g id="a_node2"><a xlink:href="vscode://vscode-remote/wsl+Ubuntu/home/gavin/statlib/Statlib/Gaussian/Basic.lean:32" xlink:title="def · Statlib/Gaussian/Basic.lean:32" target="_blank">
<path fill="#d6e9ff" stroke="#3b82f6" d="M1487.24,-196C1487.24,-196 1430.76,-196 1430.76,-196 1424.76,-196 1418.76,-190 1418.76,-184 1418.76,-184 1418.76,-172 1418.76,-172 1418.76,-166 1424.76,-160 1430.76,-160 1430.76,-160 1487.24,-160 1487.24,-160 1493.24,-160 1499.24,-166 1499.24,-172 1499.24,-172 1499.24,-184 1499.24,-184 1499.24,-190 1493.24,-196 1487.24,-196"/>
<text xml:space="preserve" text-anchor="middle" x="1459" y="-175" font-family="Helvetica,sans-Serif" font-size="10.00">stdGaussianPi</text>
</a>
</g>
</g>
<!-- n7&#45;&gt;n6 -->
<g id="edge8" class="edge">
<title>n7&#45;&gt;n6</title>
<path fill="none" stroke="#64748b" d="M1459,-159.7C1459,-151.47 1459,-141.48 1459,-132.42"/>
<polygon fill="#64748b" stroke="#64748b" points="1461.45,-132.62 1459,-125.62 1456.55,-132.62 1461.45,-132.62"/>
</g>
<!-- n0 -->
<g id="node3" class="node">
<title>n0</title>
<g id="a_node3"><a xlink:href="vscode://vscode-remote/wsl+Ubuntu/home/gavin/statlib/Statlib/Regression/Basic.lean:29" xlink:title="structure · Statlib/Regression/Basic.lean:29" target="_blank">
<path fill="#e8dcff" stroke="#8b5cf6" d="M811.91,-52C811.91,-52 742.09,-52 742.09,-52 736.09,-52 730.09,-46 730.09,-40 730.09,-40 730.09,-28 730.09,-28 730.09,-22 736.09,-16 742.09,-16 742.09,-16 811.91,-16 811.91,-16 817.91,-16 823.91,-22 823.91,-28 823.91,-28 823.91,-40 823.91,-40 823.91,-46 817.91,-52 811.91,-52"/>
<text xml:space="preserve" text-anchor="middle" x="777" y="-31" font-family="Helvetica,sans-Serif" font-size="10.00">RegressionModel</text>
</a>
</g>
</g>
<!-- n1 -->
<g id="node4" class="node">
<title>n1</title>
<g id="a_node4"><a xlink:href="vscode://vscode-remote/wsl+Ubuntu/home/gavin/statlib/Statlib/Regression/IsStarShapedClass.lean:10" xlink:title="def · Statlib/Regression/IsStarShapedClass.lean:10" target="_blank">
<path fill="#d6e9ff" stroke="#3b82f6" d="M905.8,-269.2C905.8,-269.2 828.2,-269.2 828.2,-269.2 822.2,-269.2 816.2,-263.2 816.2,-257.2 816.2,-257.2 816.2,-245.2 816.2,-245.2 816.2,-239.2 822.2,-233.2 828.2,-233.2 828.2,-233.2 905.8,-233.2 905.8,-233.2 911.8,-233.2 917.8,-239.2 917.8,-245.2 917.8,-245.2 917.8,-257.2 917.8,-257.2 917.8,-263.2 911.8,-269.2 905.8,-269.2"/>
<text xml:space="preserve" text-anchor="middle" x="867" y="-248.2" font-family="Helvetica,sans-Serif" font-size="10.00">IsStarShapedClass</text>
</a>
</g>
</g>
<!-- n1&#45;&gt;n0 -->
<g id="edge1" class="edge">
<title>n1&#45;&gt;n0</title>
<path fill="none" stroke="#64748b" d="M864.48,-232.8C859.32,-200.87 845.52,-131.45 817,-80 812.82,-72.46 807.18,-65.1 801.45,-58.6"/>
<polygon fill="#64748b" stroke="#64748b" points="803.32,-57.01 796.78,-53.52 799.71,-60.33 803.32,-57.01"/>
</g>
<!-- n2 -->
<g id="node5" class="node">
<title>n2</title>
<g id="a_node5"><a xlink:href="vscode://vscode-remote/wsl+Ubuntu/home/gavin/statlib/Statlib/Regression/shiftedClass.lean:10" xlink:title="def · Statlib/Regression/shiftedClass.lean:10" target="_blank">
<path fill="#d6e9ff" stroke="#3b82f6" d="M786.23,-269.2C786.23,-269.2 739.77,-269.2 739.77,-269.2 733.77,-269.2 727.77,-263.2 727.77,-257.2 727.77,-257.2 727.77,-245.2 727.77,-245.2 727.77,-239.2 733.77,-233.2 739.77,-233.2 739.77,-233.2 786.23,-233.2 786.23,-233.2 792.23,-233.2 798.23,-239.2 798.23,-245.2 798.23,-245.2 798.23,-257.2 798.23,-257.2 798.23,-263.2 792.23,-269.2 786.23,-269.2"/>
<text xml:space="preserve" text-anchor="middle" x="763" y="-248.2" font-family="Helvetica,sans-Serif" font-size="10.00">shiftedClass</text>
</a>
</g>
</g>
<!-- n2&#45;&gt;n0 -->
<g id="edge2" class="edge">
<title>n2&#45;&gt;n0</title>
<path fill="none" stroke="#64748b" d="M798.71,-237.47C803.61,-234.22 807.98,-230.18 811,-225.2 844.51,-169.96 823.95,-141.45 804,-80 801.74,-73.02 798.23,-65.99 794.48,-59.61"/>
<polygon fill="#64748b" stroke="#64748b" points="796.61,-58.41 790.83,-53.77 792.46,-61 796.61,-58.41"/>
</g>
<!-- n3 -->
<g id="node6" class="node">
<title>n3</title>
<g id="a_node6"><a xlink:href="vscode://vscode-remote/wsl+Ubuntu/home/gavin/statlib/Statlib/Regression/empiricalNorm.lean:10" xlink:title="def · Statlib/Regression/empiricalNorm.lean:10" target="_blank">
<path fill="#d6e9ff" stroke="#3b82f6" d="M776.23,-124C776.23,-124 719.77,-124 719.77,-124 713.77,-124 707.77,-118 707.77,-112 707.77,-112 707.77,-100 707.77,-100 707.77,-94 713.77,-88 719.77,-88 719.77,-88 776.23,-88 776.23,-88 782.23,-88 788.23,-94 788.23,-100 788.23,-100 788.23,-112 788.23,-112 788.23,-118 782.23,-124 776.23,-124"/>
<text xml:space="preserve" text-anchor="middle" x="748" y="-103" font-family="Helvetica,sans-Serif" font-size="10.00">empiricalNorm</text>
</a>
</g>
</g>
<!-- n3&#45;&gt;n0 -->
<g id="edge3" class="edge">
<title>n3&#45;&gt;n0</title>
<path fill="none" stroke="#64748b" d="M755.17,-87.7C758.65,-79.3 762.89,-69.07 766.7,-59.86"/>
<polygon fill="#64748b" stroke="#64748b" points="768.92,-60.91 769.33,-53.5 764.39,-59.03 768.92,-60.91"/>
</g>
<!-- n4 -->
<g id="node7" class="node">
<title>n4</title>
<g id="a_node7"><a xlink:href="vscode://vscode-remote/wsl+Ubuntu/home/gavin/statlib/Statlib/Regression/empiricalSphere.lean:11" xlink:title="def · Statlib/Regression/empiricalSphere.lean:11" target="_blank">
<path fill="#d6e9ff" stroke="#3b82f6" d="M790.13,-196C790.13,-196 725.87,-196 725.87,-196 719.87,-196 713.87,-190 713.87,-184 713.87,-184 713.87,-172 713.87,-172 713.87,-166 719.87,-160 725.87,-160 725.87,-160 790.13,-160 790.13,-160 796.13,-160 802.13,-166 802.13,-172 802.13,-172 802.13,-184 802.13,-184 802.13,-190 796.13,-196 790.13,-196"/>
<text xml:space="preserve" text-anchor="middle" x="758" y="-175" font-family="Helvetica,sans-Serif" font-size="10.00">empiricalSphere</text>
</a>
</g>
</g>
<!-- n4&#45;&gt;n0 -->
<g id="edge4" class="edge">
<title>n4&#45;&gt;n0</title>
<path fill="none" stroke="#64748b" d="M775.3,-159.52C783.59,-149.9 792.65,-137.24 797,-124 803.1,-105.42 801.06,-99.13 797,-80 795.58,-73.3 793.08,-66.38 790.33,-60.04"/>
<polygon fill="#64748b" stroke="#64748b" points="792.58,-59.06 787.41,-53.75 788.14,-61.13 792.58,-59.06"/>
</g>
<!-- n4&#45;&gt;n3 -->
<g id="edge5" class="edge">
<title>n4&#45;&gt;n3</title>
<path fill="none" stroke="#64748b" d="M755.53,-159.7C754.35,-151.47 752.93,-141.48 751.63,-132.42"/>
<polygon fill="#64748b" stroke="#64748b" points="754.07,-132.19 750.66,-125.6 749.22,-132.88 754.07,-132.19"/>
</g>
<!-- n5 -->
<g id="node8" class="node">
<title>n5</title>
<g id="a_node8"><a xlink:href="vscode://vscode-remote/wsl+Ubuntu/home/gavin/statlib/Statlib/Regression/localizedBall.lean:11" xlink:title="def · Statlib/Regression/localizedBall.lean:11" target="_blank">
<path fill="#d6e9ff" stroke="#3b82f6" d="M657.79,-196C657.79,-196 610.21,-196 610.21,-196 604.21,-196 598.21,-190 598.21,-184 598.21,-184 598.21,-172 598.21,-172 598.21,-166 604.21,-160 610.21,-160 610.21,-160 657.79,-160 657.79,-160 663.79,-160 669.79,-166 669.79,-172 669.79,-172 669.79,-184 669.79,-184 669.79,-190 663.79,-196 657.79,-196"/>
<text xml:space="preserve" text-anchor="middle" x="634" y="-175" font-family="Helvetica,sans-Serif" font-size="10.00">localizedBall</text>
</a>
</g>
</g>
<!-- n5&#45;&gt;n0 -->
<g id="edge6" class="edge">
<title>n5&#45;&gt;n0</title>
<path fill="none" stroke="#64748b" d="M639.2,-159.5C646.29,-138.3 660.8,-102.62 684,-80 694.84,-69.43 708.63,-60.95 722.26,-54.31"/>
<polygon fill="#64748b" stroke="#64748b" points="723.1,-56.62 728.42,-51.45 721.04,-52.18 723.1,-56.62"/>
</g>
<!-- n5&#45;&gt;n3 -->
<g id="edge7" class="edge">
<title>n5&#45;&gt;n3</title>
<path fill="none" stroke="#64748b" d="M662.47,-159.52C677.69,-150.18 696.55,-138.59 712.69,-128.68"/>
<polygon fill="#64748b" stroke="#64748b" points="713.92,-130.8 718.6,-125.05 711.35,-126.63 713.92,-130.8"/>
</g>
<!-- n8 -->
<g id="node9" class="node">
<title>n8</title>
<g id="a_node9"><a xlink:href="vscode://vscode-remote/wsl+Ubuntu/home/gavin/statlib/Statlib/Regression/LocalizedProcessAssumptions.lean:14" xlink:title="structure · Statlib/Regression/LocalizedProcessAssumptions.lean:14" target="_blank">
<path fill="#e8dcff" stroke="#8b5cf6" d="M820.81,-341.2C820.81,-341.2 693.19,-341.2 693.19,-341.2 687.19,-341.2 681.19,-335.2 681.19,-329.2 681.19,-329.2 681.19,-317.2 681.19,-317.2 681.19,-311.2 687.19,-305.2 693.19,-305.2 693.19,-305.2 820.81,-305.2 820.81,-305.2 826.81,-305.2 832.81,-311.2 832.81,-317.2 832.81,-317.2 832.81,-329.2 832.81,-329.2 832.81,-335.2 826.81,-341.2 820.81,-341.2"/>
<text xml:space="preserve" text-anchor="middle" x="757" y="-320.2" font-family="Helvetica,sans-Serif" font-size="10.00">LocalizedProcessAssumptions</text>
</a>
</g>
</g>
<!-- n8&#45;&gt;n7 -->
<g id="edge14" class="edge">
<title>n8&#45;&gt;n7</title>
<path fill="none" stroke="#64748b" d="M833.18,-309.17C842.86,-307.72 852.65,-306.35 862,-305.2 1050.14,-282.03 1101.92,-310.19 1287,-269.2 1342.46,-256.92 1358.25,-254.35 1407,-225.2 1417.68,-218.82 1428.18,-210.09 1436.92,-201.94"/>
<polygon fill="#64748b" stroke="#64748b" points="1438.51,-203.81 1441.86,-197.2 1435.11,-200.28 1438.51,-203.81"/>
</g>
<!-- n8&#45;&gt;n0 -->
<g id="edge9" class="edge">
<title>n8&#45;&gt;n0</title>
<path fill="none" stroke="#64748b" d="M737.42,-304.97C727.87,-295.41 717.13,-282.74 711,-269.2 693.62,-230.82 677.93,-116.48 699,-80 704.55,-70.4 713,-62.66 722.34,-56.5"/>
<polygon fill="#64748b" stroke="#64748b" points="723.6,-58.59 728.32,-52.87 721.06,-54.41 723.6,-58.59"/>
</g>
<!-- n8&#45;&gt;n1 -->
<g id="edge10" class="edge">
<title>n8&#45;&gt;n1</title>
<path fill="none" stroke="#64748b" d="M784.47,-304.72C799.15,-295.38 817.36,-283.79 832.93,-273.88"/>
<polygon fill="#64748b" stroke="#64748b" points="834.01,-276.1 838.6,-270.27 831.38,-271.96 834.01,-276.1"/>
</g>
<!-- n8&#45;&gt;n2 -->
<g id="edge11" class="edge">
<title>n8&#45;&gt;n2</title>
<path fill="none" stroke="#64748b" d="M758.48,-304.9C759.19,-296.67 760.04,-286.68 760.82,-277.62"/>
<polygon fill="#64748b" stroke="#64748b" points="763.25,-278 761.4,-270.81 758.37,-277.58 763.25,-278"/>
</g>
<!-- n8&#45;&gt;n4 -->
<g id="edge12" class="edge">
<title>n8&#45;&gt;n4</title>
<path fill="none" stroke="#64748b" d="M740.54,-305.12C732.35,-295.42 723.3,-282.57 719,-269.2 714.1,-253.97 714.09,-248.43 719,-233.2 722.51,-222.3 729.13,-211.74 735.92,-202.88"/>
<polygon fill="#64748b" stroke="#64748b" points="737.66,-204.62 740.15,-197.64 733.85,-201.54 737.66,-204.62"/>
</g>
<!-- n8&#45;&gt;n5 -->
<g id="edge13" class="edge">
<title>n8&#45;&gt;n5</title>
<path fill="none" stroke="#64748b" d="M727.27,-304.9C712.99,-295.59 696.35,-283.16 684,-269.2 666.76,-249.73 652.99,-223.31 644.3,-204.1"/>
<polygon fill="#64748b" stroke="#64748b" points="646.56,-203.16 641.5,-197.74 642.08,-205.13 646.56,-203.16"/>
</g>
<!-- n9 -->
<g id="node10" class="node">
<title>n9</title>
<g id="a_node10"><a xlink:href="vscode://vscode-remote/wsl+Ubuntu/home/gavin/statlib/Statlib/Regression/LocalGaussianComplexity.lean:11" xlink:title="def · Statlib/Regression/LocalGaussianComplexity.lean:11" target="_blank">
<path fill="#d6e9ff" stroke="#3b82f6" d="M1115.81,-269.2C1115.81,-269.2 1008.19,-269.2 1008.19,-269.2 1002.19,-269.2 996.19,-263.2 996.19,-257.2 996.19,-257.2 996.19,-245.2 996.19,-245.2 996.19,-239.2 1002.19,-233.2 1008.19,-233.2 1008.19,-233.2 1115.81,-233.2 1115.81,-233.2 1121.81,-233.2 1127.81,-239.2 1127.81,-245.2 1127.81,-245.2 1127.81,-257.2 1127.81,-257.2 1127.81,-263.2 1121.81,-269.2 1115.81,-269.2"/>
<text xml:space="preserve" text-anchor="middle" x="1062" y="-248.2" font-family="Helvetica,sans-Serif" font-size="10.00">LocalGaussianComplexity</text>
</a>
</g>
</g>
<!-- n9&#45;&gt;n7 -->
<g id="edge17" class="edge">
<title>n9&#45;&gt;n7</title>
<path fill="none" stroke="#64748b" d="M1128.26,-237.08C1137.87,-235.54 1147.67,-234.18 1157,-233.2 1184.64,-230.3 1381.18,-235.49 1407,-225.2 1419.21,-220.33 1430.44,-211.25 1439.32,-202.42"/>
<polygon fill="#64748b" stroke="#64748b" points="1440.96,-204.24 1444.02,-197.49 1437.42,-200.86 1440.96,-204.24"/>
</g>
<!-- n9&#45;&gt;n0 -->
<g id="edge15" class="edge">
<title>n9&#45;&gt;n0</title>
<path fill="none" stroke="#64748b" d="M1059.07,-232.85C1052.23,-198.08 1031.88,-119.83 982,-80 959.23,-61.82 884.89,-48.79 832.31,-41.57"/>
<polygon fill="#64748b" stroke="#64748b" points="832.83,-39.17 825.57,-40.67 832.18,-44.03 832.83,-39.17"/>
</g>
<!-- n9&#45;&gt;n5 -->
<g id="edge16" class="edge">
<title>n9&#45;&gt;n5</title>
<path fill="none" stroke="#64748b" d="M995.81,-239.53C978.35,-237.07 959.5,-234.73 942,-233.2 915.75,-230.9 730.13,-233.12 705,-225.2 689.14,-220.2 673.44,-210.61 660.85,-201.45"/>
<polygon fill="#64748b" stroke="#64748b" points="662.48,-199.6 655.41,-197.35 659.53,-203.52 662.48,-199.6"/>
</g>
<!-- n10 -->
<g id="node11" class="node">
<title>n10</title>
<g id="a_node11"><a xlink:href="vscode://vscode-remote/wsl+Ubuntu/home/gavin/statlib/Statlib/Regression/empiricalMetricImage.lean:11" xlink:title="def · Statlib/Regression/empiricalMetricImage.lean:11" target="_blank">
<path fill="#d6e9ff" stroke="#3b82f6" d="M489.51,-196C489.51,-196 402.49,-196 402.49,-196 396.49,-196 390.49,-190 390.49,-184 390.49,-184 390.49,-172 390.49,-172 390.49,-166 396.49,-160 402.49,-160 402.49,-160 489.51,-160 489.51,-160 495.51,-160 501.51,-166 501.51,-172 501.51,-172 501.51,-184 501.51,-184 501.51,-190 495.51,-196 489.51,-196"/>
<text xml:space="preserve" text-anchor="middle" x="446" y="-175" font-family="Helvetica,sans-Serif" font-size="10.00">empiricalMetricImage</text>
</a>
</g>
</g>
<!-- n10&#45;&gt;n0 -->
<g id="edge18" class="edge">
<title>n10&#45;&gt;n0</title>
<path fill="none" stroke="#64748b" d="M457.59,-159.87C473.6,-137.66 504.64,-99.49 541,-80 597.64,-49.63 671.6,-39.52 721.5,-36.28"/>
<polygon fill="#64748b" stroke="#64748b" points="721.56,-38.73 728.4,-35.87 721.27,-33.84 721.56,-38.73"/>
</g>
<!-- n11 -->
<g id="node12" class="node">
<title>n11</title>
<g id="a_node12"><a xlink:href="vscode://vscode-remote/wsl+Ubuntu/home/gavin/statlib/Statlib/Regression/dudleyEntropyUpper.lean:12" xlink:title="def · Statlib/Regression/dudleyEntropyUpper.lean:12" target="_blank">
<path fill="#d6e9ff" stroke="#3b82f6" d="M547.58,-269.2C547.58,-269.2 464.42,-269.2 464.42,-269.2 458.42,-269.2 452.42,-263.2 452.42,-257.2 452.42,-257.2 452.42,-245.2 452.42,-245.2 452.42,-239.2 458.42,-233.2 464.42,-233.2 464.42,-233.2 547.58,-233.2 547.58,-233.2 553.58,-233.2 559.58,-239.2 559.58,-245.2 559.58,-245.2 559.58,-257.2 559.58,-257.2 559.58,-263.2 553.58,-269.2 547.58,-269.2"/>
<text xml:space="preserve" text-anchor="middle" x="506" y="-248.2" font-family="Helvetica,sans-Serif" font-size="10.00">dudleyEntropyUpper</text>
</a>
</g>
</g>
<!-- n11&#45;&gt;n0 -->
<g id="edge19" class="edge">
<title>n11&#45;&gt;n0</title>
<path fill="none" stroke="#64748b" d="M510.69,-232.88C521.61,-193.82 549.63,-100.71 574,-80 595.93,-61.36 669.31,-48.48 721.53,-41.42"/>
<polygon fill="#64748b" stroke="#64748b" points="721.6,-43.88 728.22,-40.53 720.96,-39.02 721.6,-43.88"/>
</g>
<!-- n11&#45;&gt;n5 -->
<g id="edge21" class="edge">
<title>n11&#45;&gt;n5</title>
<path fill="none" stroke="#64748b" d="M537.47,-232.72C542.01,-230.2 546.63,-227.63 551,-225.2 565.61,-217.08 581.65,-208.15 595.71,-200.32"/>
<polygon fill="#64748b" stroke="#64748b" points="596.62,-202.62 601.54,-197.07 594.24,-198.34 596.62,-202.62"/>
</g>
<!-- n11&#45;&gt;n10 -->
<g id="edge20" class="edge">
<title>n11&#45;&gt;n10</title>
<path fill="none" stroke="#64748b" d="M491.48,-232.96C483.74,-223.78 474.11,-212.35 465.7,-202.38"/>
<polygon fill="#64748b" stroke="#64748b" points="467.75,-201.01 461.37,-197.23 464,-204.17 467.75,-201.01"/>
</g>
<!-- n12 -->
<g id="node13" class="node">
<title>n12</title>
<g id="a_node13"><a xlink:href="vscode://vscode-remote/wsl+Ubuntu/home/gavin/statlib/Statlib/Regression/LocalGaussianComplexityEntropyAssumptions.lean:14" xlink:title="structure · Statlib/Regression/LocalGaussianComplexityEntropyAssumptions.lean:14" target="_blank">
<path fill="#e8dcff" stroke="#8b5cf6" d="M267.66,-341.2C267.66,-341.2 68.34,-341.2 68.34,-341.2 62.34,-341.2 56.34,-335.2 56.34,-329.2 56.34,-329.2 56.34,-317.2 56.34,-317.2 56.34,-311.2 62.34,-305.2 68.34,-305.2 68.34,-305.2 267.66,-305.2 267.66,-305.2 273.66,-305.2 279.66,-311.2 279.66,-317.2 279.66,-317.2 279.66,-329.2 279.66,-329.2 279.66,-335.2 273.66,-341.2 267.66,-341.2"/>
<text xml:space="preserve" text-anchor="middle" x="168" y="-320.2" font-family="Helvetica,sans-Serif" font-size="10.00">LocalGaussianComplexityEntropyAssumptions</text>
</a>
</g>
</g>
<!-- n12&#45;&gt;n0 -->
<g id="edge22" class="edge">
<title>n12&#45;&gt;n0</title>
<path fill="none" stroke="#64748b" d="M183.67,-304.91C226.44,-259.02 350.8,-133.99 483,-80 561.64,-47.88 660.62,-38.46 721.32,-35.83"/>
<polygon fill="#64748b" stroke="#64748b" points="721.22,-38.28 728.12,-35.56 721.03,-33.39 721.22,-38.28"/>
</g>
<!-- n12&#45;&gt;n5 -->
<g id="edge26" class="edge">
<title>n12&#45;&gt;n5</title>
<path fill="none" stroke="#64748b" d="M212.51,-304.8C266.29,-284.48 359.9,-251.35 443,-233.2 472.73,-226.71 481.43,-232.38 511,-225.2 537.99,-218.65 567.12,-207.88 590.26,-198.39"/>
<polygon fill="#64748b" stroke="#64748b" points="590.94,-200.76 596.47,-195.81 589.06,-196.23 590.94,-200.76"/>
</g>
<!-- n12&#45;&gt;n9 -->
<g id="edge23" class="edge">
<title>n12&#45;&gt;n9</title>
<path fill="none" stroke="#64748b" d="M280.07,-306.02C282.73,-305.73 285.38,-305.46 288,-305.2 571.07,-277.23 643.72,-294.98 927,-269.2 946.66,-267.41 967.87,-264.98 987.52,-262.51"/>
<polygon fill="#64748b" stroke="#64748b" points="987.7,-264.96 994.34,-261.65 987.08,-260.1 987.7,-264.96"/>
</g>
<!-- n12&#45;&gt;n10 -->
<g id="edge25" class="edge">
<title>n12&#45;&gt;n10</title>
<path fill="none" stroke="#64748b" d="M201.81,-304.78C252.94,-278.44 349.82,-228.54 404.93,-200.15"/>
<polygon fill="#64748b" stroke="#64748b" points="405.98,-202.37 411.08,-196.99 403.73,-198.02 405.98,-202.37"/>
</g>
<!-- n12&#45;&gt;n11 -->
<g id="edge24" class="edge">
<title>n12&#45;&gt;n11</title>
<path fill="none" stroke="#64748b" d="M252.42,-304.72C311.94,-292.39 390.31,-276.16 444.08,-265.02"/>
<polygon fill="#64748b" stroke="#64748b" points="444.32,-267.48 450.68,-263.66 443.33,-262.68 444.32,-267.48"/>
</g>
<!-- n13 -->
<g id="node14" class="node">
<title>n13</title>
<g id="a_node14"><a xlink:href="vscode://vscode-remote/wsl+Ubuntu/home/gavin/statlib/Statlib/Regression/estimationErrorUpper.lean:11" xlink:title="def · Statlib/Regression/estimationErrorUpper.lean:11" target="_blank">
<path fill="#d6e9ff" stroke="#3b82f6" d="M1265.52,-269.2C1265.52,-269.2 1178.48,-269.2 1178.48,-269.2 1172.48,-269.2 1166.48,-263.2 1166.48,-257.2 1166.48,-257.2 1166.48,-245.2 1166.48,-245.2 1166.48,-239.2 1172.48,-233.2 1178.48,-233.2 1178.48,-233.2 1265.52,-233.2 1265.52,-233.2 1271.52,-233.2 1277.52,-239.2 1277.52,-245.2 1277.52,-245.2 1277.52,-257.2 1277.52,-257.2 1277.52,-263.2 1271.52,-269.2 1265.52,-269.2"/>
<text xml:space="preserve" text-anchor="middle" x="1222" y="-248.2" font-family="Helvetica,sans-Serif" font-size="10.00">estimationErrorUpper</text>
</a>
</g>
</g>
<!-- n13&#45;&gt;n0 -->
<g id="edge27" class="edge">
<title>n13&#45;&gt;n0</title>
<path fill="none" stroke="#64748b" d="M1220.48,-232.78C1216.4,-197.53 1201.85,-117.9 1152,-80 1103.03,-42.77 924.37,-35.94 832.46,-34.95"/>
<polygon fill="#64748b" stroke="#64748b" points="832.65,-32.5 825.62,-34.89 832.6,-37.4 832.65,-32.5"/>
</g>
<!-- n14 -->
<g id="node15" class="node">
<title>n14</title>
<g id="a_node15"><a xlink:href="vscode://vscode-remote/wsl+Ubuntu/home/gavin/statlib/Statlib/Regression/LocalizedProxyCriticalAssumptions.lean:17" xlink:title="structure · Statlib/Regression/LocalizedProxyCriticalAssumptions.lean:17" target="_blank">
<path fill="#e8dcff" stroke="#8b5cf6" d="M1030.81,-341.2C1030.81,-341.2 883.19,-341.2 883.19,-341.2 877.19,-341.2 871.19,-335.2 871.19,-329.2 871.19,-329.2 871.19,-317.2 871.19,-317.2 871.19,-311.2 877.19,-305.2 883.19,-305.2 883.19,-305.2 1030.81,-305.2 1030.81,-305.2 1036.81,-305.2 1042.81,-311.2 1042.81,-317.2 1042.81,-317.2 1042.81,-329.2 1042.81,-329.2 1042.81,-335.2 1036.81,-341.2 1030.81,-341.2"/>
<text xml:space="preserve" text-anchor="middle" x="957" y="-320.2" font-family="Helvetica,sans-Serif" font-size="10.00">LocalizedProxyCriticalAssumptions</text>
</a>
</g>
</g>
<!-- n14&#45;&gt;n7 -->
<g id="edge35" class="edge">
<title>n14&#45;&gt;n7</title>
<path fill="none" stroke="#64748b" d="M1043.16,-306.46C1046.14,-306.02 1049.09,-305.6 1052,-305.2 1137.15,-293.62 1371.97,-325.37 1437,-269.2 1455.25,-253.44 1459.68,-225.29 1460.22,-204.61"/>
<polygon fill="#64748b" stroke="#64748b" points="1462.67,-204.79 1460.23,-197.78 1457.77,-204.78 1462.67,-204.79"/>
</g>
<!-- n14&#45;&gt;n0 -->
<g id="edge28" class="edge">
<title>n14&#45;&gt;n0</title>
<path fill="none" stroke="#64748b" d="M959.83,-304.86C962.11,-286.47 963.67,-256.85 955,-233.2 926.66,-155.92 851.69,-90.29 808.63,-57.47"/>
<polygon fill="#64748b" stroke="#64748b" points="810.28,-55.65 803.21,-53.4 807.33,-59.57 810.28,-55.65"/>
</g>
<!-- n14&#45;&gt;n1 -->
<g id="edge32" class="edge">
<title>n14&#45;&gt;n1</title>
<path fill="none" stroke="#64748b" d="M934.75,-304.9C922.96,-295.73 908.34,-284.36 895.71,-274.53"/>
<polygon fill="#64748b" stroke="#64748b" points="897.53,-272.84 890.5,-270.48 894.52,-276.71 897.53,-272.84"/>
</g>
<!-- n14&#45;&gt;n2 -->
<g id="edge30" class="edge">
<title>n14&#45;&gt;n2</title>
<path fill="none" stroke="#64748b" d="M906.53,-304.78C877.37,-294.61 840.03,-281.41 807,-269.2 806.74,-269.1 806.48,-269.01 806.22,-268.91"/>
<polygon fill="#64748b" stroke="#64748b" points="807.34,-266.71 799.93,-266.55 805.62,-271.3 807.34,-266.71"/>
</g>
<!-- n14&#45;&gt;n4 -->
<g id="edge33" class="edge">
<title>n14&#45;&gt;n4</title>
<path fill="none" stroke="#64748b" d="M959.09,-304.86C960.47,-285.07 959.47,-252.89 942,-233.2 909.23,-196.26 852.69,-183.93 810.91,-180.09"/>
<polygon fill="#64748b" stroke="#64748b" points="811.18,-177.66 804.01,-179.54 810.79,-182.54 811.18,-177.66"/>
</g>
<!-- n14&#45;&gt;n5 -->
<g id="edge34" class="edge">
<title>n14&#45;&gt;n5</title>
<path fill="none" stroke="#64748b" d="M952.31,-304.9C945.46,-280.28 932.91,-237.61 927,-233.2 907.21,-218.44 728.53,-232.65 705,-225.2 689.15,-220.18 673.45,-210.59 660.86,-201.43"/>
<polygon fill="#64748b" stroke="#64748b" points="662.48,-199.59 655.41,-197.34 659.53,-203.5 662.48,-199.59"/>
</g>
<!-- n14&#45;&gt;n9 -->
<g id="edge29" class="edge">
<title>n14&#45;&gt;n9</title>
<path fill="none" stroke="#64748b" d="M983.23,-304.72C997.11,-295.46 1014.3,-284 1029.07,-274.15"/>
<polygon fill="#64748b" stroke="#64748b" points="1030.38,-276.22 1034.85,-270.3 1027.67,-272.14 1030.38,-276.22"/>
</g>
<!-- n14&#45;&gt;n13 -->
<g id="edge31" class="edge">
<title>n14&#45;&gt;n13</title>
<path fill="none" stroke="#64748b" d="M1023.19,-304.72C1064.44,-293.82 1117.24,-279.87 1158.05,-269.09"/>
<polygon fill="#64748b" stroke="#64748b" points="1158.45,-271.52 1164.59,-267.37 1157.2,-266.78 1158.45,-271.52"/>
</g>
<!-- n15 -->
<g id="node16" class="node">
<title>n15</title>
<g id="a_node16"><a xlink:href="vscode://vscode-remote/wsl+Ubuntu/home/gavin/statlib/Statlib/Regression/LocalGaussianComplexityProxyAssumptions.lean:13" xlink:title="structure · Statlib/Regression/LocalGaussianComplexityProxyAssumptions.lean:13" target="_blank">
<path fill="#e8dcff" stroke="#8b5cf6" d="M1263.21,-341.2C1263.21,-341.2 1072.79,-341.2 1072.79,-341.2 1066.79,-341.2 1060.79,-335.2 1060.79,-329.2 1060.79,-329.2 1060.79,-317.2 1060.79,-317.2 1060.79,-311.2 1066.79,-305.2 1072.79,-305.2 1072.79,-305.2 1263.21,-305.2 1263.21,-305.2 1269.21,-305.2 1275.21,-311.2 1275.21,-317.2 1275.21,-317.2 1275.21,-329.2 1275.21,-329.2 1275.21,-335.2 1269.21,-341.2 1263.21,-341.2"/>
<text xml:space="preserve" text-anchor="middle" x="1168" y="-320.2" font-family="Helvetica,sans-Serif" font-size="10.00">LocalGaussianComplexityProxyAssumptions</text>
</a>
</g>
</g>
<!-- n15&#45;&gt;n0 -->
<g id="edge36" class="edge">
<title>n15&#45;&gt;n0</title>
<path fill="none" stroke="#64748b" d="M1164.04,-304.99C1159.33,-286.45 1150.36,-256.47 1137,-233.2 1092.38,-155.51 1083.36,-125.19 1006,-80 952.42,-48.7 881,-38.75 832.25,-35.8"/>
<polygon fill="#64748b" stroke="#64748b" points="832.66,-33.37 825.54,-35.44 832.4,-38.26 832.66,-33.37"/>
</g>
<!-- n15&#45;&gt;n9 -->
<g id="edge37" class="edge">
<title>n15&#45;&gt;n9</title>
<path fill="none" stroke="#64748b" d="M1141.53,-304.72C1127.51,-295.46 1110.15,-284 1095.24,-274.15"/>
<polygon fill="#64748b" stroke="#64748b" points="1096.59,-272.11 1089.4,-270.29 1093.89,-276.2 1096.59,-272.11"/>
</g>
<!-- n15&#45;&gt;n11 -->
<g id="edge38" class="edge">
<title>n15&#45;&gt;n11</title>
<path fill="none" stroke="#64748b" d="M1060.59,-306.27C1057.69,-305.9 1054.83,-305.54 1052,-305.2 877.06,-283.9 669.74,-265.7 568.26,-257.25"/>
<polygon fill="#64748b" stroke="#64748b" points="568.64,-254.82 561.46,-256.68 568.24,-259.71 568.64,-254.82"/>
</g>
<!-- n15&#45;&gt;n13 -->
<g id="edge39" class="edge">
<title>n15&#45;&gt;n13</title>
<path fill="none" stroke="#64748b" d="M1181.35,-304.9C1188.08,-296.17 1196.36,-285.44 1203.68,-275.95"/>
<polygon fill="#64748b" stroke="#64748b" points="1205.54,-277.54 1207.88,-270.5 1201.67,-274.55 1205.54,-277.54"/>
</g>
<!-- n16 -->
<g id="node17" class="node">
<title>n16</title>
<g id="a_node17"><a xlink:href="vscode://vscode-remote/wsl+Ubuntu/home/gavin/statlib/Statlib/Regression/dudleyEntropyUpper_le_estimationErrorUpper_of_entropyIntegral_le_Msq.lean:15" xlink:title="lemma · Statlib/Regression/dudleyEntropyUpper_le_estimationErrorUpper_of_entropyIntegral_le_Msq.lean:15" target="_blank">
<path fill="#eef2f6" stroke="#94a3b8" d="M630.54,-341.2C630.54,-341.2 309.46,-341.2 309.46,-341.2 303.46,-341.2 297.46,-335.2 297.46,-329.2 297.46,-329.2 297.46,-317.2 297.46,-317.2 297.46,-311.2 303.46,-305.2 309.46,-305.2 309.46,-305.2 630.54,-305.2 630.54,-305.2 636.54,-305.2 642.54,-311.2 642.54,-317.2 642.54,-317.2 642.54,-329.2 642.54,-329.2 642.54,-335.2 636.54,-341.2 630.54,-341.2"/>
<text xml:space="preserve" text-anchor="middle" x="470" y="-320.2" font-family="Helvetica,sans-Serif" font-size="10.00">dudleyEntropyUpper_le_estimationErrorUpper_of_entropyIntegral_le_Msq</text>
</a>
</g>
</g>
<!-- n16&#45;&gt;n0 -->
<g id="edge40" class="edge">
<title>n16&#45;&gt;n0</title>
<path fill="none" stroke="#64748b" d="M522.43,-304.81C539.72,-296.6 557.45,-285.03 569,-269.2 598.08,-229.34 569.05,-205.13 589,-160 607.08,-119.11 613.87,-106.34 650,-80 671.23,-64.52 698.27,-53.97 721.94,-46.99"/>
<polygon fill="#64748b" stroke="#64748b" points="722.3,-49.43 728.37,-45.17 720.97,-44.72 722.3,-49.43"/>
</g>
<!-- n16&#45;&gt;n5 -->
<g id="edge42" class="edge">
<title>n16&#45;&gt;n5</title>
<path fill="none" stroke="#64748b" d="M524.99,-304.82C545.25,-296.43 567.31,-284.75 584,-269.2 603.35,-251.18 617.01,-223.94 625.11,-204.11"/>
<polygon fill="#64748b" stroke="#64748b" points="627.31,-205.2 627.59,-197.79 622.75,-203.41 627.31,-205.2"/>
</g>
<!-- n16&#45;&gt;n10 -->
<g id="edge41" class="edge">
<title>n16&#45;&gt;n10</title>
<path fill="none" stroke="#64748b" d="M458.53,-304.87C452.63,-294.89 446.04,-281.85 443,-269.2 437.88,-247.86 439.26,-222.87 441.56,-204.61"/>
<polygon fill="#64748b" stroke="#64748b" points="443.98,-205 442.53,-197.73 439.13,-204.32 443.98,-205"/>
</g>
<!-- n16&#45;&gt;n11 -->
<g id="edge43" class="edge">
<title>n16&#45;&gt;n11</title>
<path fill="none" stroke="#64748b" d="M478.9,-304.9C483.26,-296.42 488.58,-286.06 493.36,-276.78"/>
<polygon fill="#64748b" stroke="#64748b" points="495.49,-278 496.51,-270.65 491.13,-275.75 495.49,-278"/>
</g>
<!-- n16&#45;&gt;n13 -->
<g id="edge44" class="edge">
<title>n16&#45;&gt;n13</title>
<path fill="none" stroke="#64748b" d="M643,-307.56C652.81,-306.76 662.53,-305.97 672,-305.2 878.61,-288.51 931.67,-297.58 1137,-269.2 1143.86,-268.25 1150.99,-267.1 1158.09,-265.84"/>
<polygon fill="#64748b" stroke="#64748b" points="1158.45,-268.26 1164.89,-264.59 1157.57,-263.44 1158.45,-268.26"/>
</g>
<!-- n17 -->
<g id="node18" class="node">
<title>n17</title>
<g id="a_node18"><a xlink:href="vscode://vscode-remote/wsl+Ubuntu/home/gavin/statlib/Statlib/Regression/LocalGaussianComplexityProxyAssumptions_ofEntropy.lean:13" xlink:title="lemma · Statlib/Regression/LocalGaussianComplexityProxyAssumptions_ofEntropy.lean:13" target="_blank">
<path fill="#eef2f6" stroke="#94a3b8" d="M588,-413.2C588,-413.2 352,-413.2 352,-413.2 346,-413.2 340,-407.2 340,-401.2 340,-401.2 340,-389.2 340,-389.2 340,-383.2 346,-377.2 352,-377.2 352,-377.2 588,-377.2 588,-377.2 594,-377.2 600,-383.2 600,-389.2 600,-389.2 600,-401.2 600,-401.2 600,-407.2 594,-413.2 588,-413.2"/>
<text xml:space="preserve" text-anchor="middle" x="470" y="-392.2" font-family="Helvetica,sans-Serif" font-size="10.00">LocalGaussianComplexityProxyAssumptions.ofEntropy</text>
</a>
</g>
</g>
<!-- n17&#45;&gt;n0 -->
<g id="edge45" class="edge">
<title>n17&#45;&gt;n0</title>
<path fill="none" stroke="#64748b" d="M339.69,-385.93C223.11,-377.24 67.49,-361.95 47,-341.2 19.03,-312.88 37,-292 37,-252.2 37,-252.2 37,-252.2 37,-177 37,-107.33 549.42,-55.28 721.45,-39.77"/>
<polygon fill="#64748b" stroke="#64748b" points="721.61,-42.22 728.36,-39.15 721.17,-37.34 721.61,-42.22"/>
</g>
<!-- n17&#45;&gt;n12 -->
<g id="edge46" class="edge">
<title>n17&#45;&gt;n12</title>
<path fill="none" stroke="#64748b" d="M394.57,-376.72C351.07,-366.63 296.29,-353.94 251.49,-343.55"/>
<polygon fill="#64748b" stroke="#64748b" points="252.1,-341.18 244.73,-341.98 250.99,-345.95 252.1,-341.18"/>
</g>
<!-- n17&#45;&gt;n15 -->
<g id="edge47" class="edge">
<title>n17&#45;&gt;n15</title>
<path fill="none" stroke="#64748b" d="M600.24,-384.39C718.33,-375.01 897.09,-359.59 1052,-341.2 1052.09,-341.19 1052.18,-341.18 1052.27,-341.17"/>
<polygon fill="#64748b" stroke="#64748b" points="1052.43,-343.62 1059.09,-340.34 1051.84,-338.75 1052.43,-343.62"/>
</g>
<!-- n17&#45;&gt;n16 -->
<g id="edge48" class="edge">
<title>n17&#45;&gt;n16</title>
<path fill="none" stroke="#64748b" d="M470,-376.9C470,-368.67 470,-358.68 470,-349.62"/>
<polygon fill="#64748b" stroke="#64748b" points="472.45,-349.82 470,-342.82 467.55,-349.82 472.45,-349.82"/>
</g>
<!-- n18 -->
<g id="node19" class="node">
<title>n18</title>
<g id="a_node19"><a xlink:href="vscode://vscode-remote/wsl+Ubuntu/home/gavin/statlib/Statlib/Regression/local_gaussian_complexity_to_proxy_structured.lean:13" xlink:title="theorem · Statlib/Regression/local_gaussian_complexity_to_proxy_structured.lean:13" target="_blank">
<path fill="#ffe6a3" stroke="#d4a017" d="M1323.45,-413.2C1323.45,-413.2 1118.55,-413.2 1118.55,-413.2 1112.55,-413.2 1106.55,-407.2 1106.55,-401.2 1106.55,-401.2 1106.55,-389.2 1106.55,-389.2 1106.55,-383.2 1112.55,-377.2 1118.55,-377.2 1118.55,-377.2 1323.45,-377.2 1323.45,-377.2 1329.45,-377.2 1335.45,-383.2 1335.45,-389.2 1335.45,-389.2 1335.45,-401.2 1335.45,-401.2 1335.45,-407.2 1329.45,-413.2 1323.45,-413.2"/>
<text xml:space="preserve" text-anchor="middle" x="1221" y="-392.2" font-family="Helvetica,sans-Serif" font-size="10.00">local_gaussian_complexity_to_proxy_structured</text>
</a>
</g>
</g>
<!-- n18&#45;&gt;n0 -->
<g id="edge49" class="edge">
<title>n18&#45;&gt;n0</title>
<path fill="none" stroke="#64748b" d="M1258.42,-376.85C1274.79,-367.91 1293.34,-355.8 1307,-341.2 1337.56,-308.54 1354,-296.93 1354,-252.2 1354,-252.2 1354,-252.2 1354,-177 1354,-70.29 977.18,-43.31 832.58,-36.89"/>
<polygon fill="#64748b" stroke="#64748b" points="832.83,-34.45 825.73,-36.6 832.62,-39.35 832.83,-34.45"/>
</g>
<!-- n18&#45;&gt;n9 -->
<g id="edge51" class="edge">
<title>n18&#45;&gt;n9</title>
<path fill="none" stroke="#64748b" d="M1251.63,-376.77C1264.11,-367.88 1277.18,-355.84 1284,-341.2 1290.75,-326.69 1293.91,-317.76 1284,-305.2 1274.6,-293.29 1197.02,-276.67 1136.18,-265.23"/>
<polygon fill="#64748b" stroke="#64748b" points="1136.92,-262.87 1129.59,-264 1136.02,-267.69 1136.92,-262.87"/>
</g>
<!-- n18&#45;&gt;n13 -->
<g id="edge52" class="edge">
<title>n18&#45;&gt;n13</title>
<path fill="none" stroke="#64748b" d="M1261.59,-376.73C1276.11,-368.26 1290.88,-356.54 1299,-341.2 1306.49,-327.06 1306.44,-319.36 1299,-305.2 1292.25,-292.35 1280.81,-282.01 1268.79,-273.99"/>
<polygon fill="#64748b" stroke="#64748b" points="1270.19,-271.98 1262.96,-270.35 1267.59,-276.14 1270.19,-271.98"/>
</g>
<!-- n18&#45;&gt;n15 -->
<g id="edge50" class="edge">
<title>n18&#45;&gt;n15</title>
<path fill="none" stroke="#64748b" d="M1207.9,-376.9C1201.29,-368.17 1193.17,-357.44 1185.98,-347.95"/>
<polygon fill="#64748b" stroke="#64748b" points="1188.04,-346.61 1181.86,-342.51 1184.14,-349.57 1188.04,-346.61"/>
</g>
<!-- n19 -->
<g id="node20" class="node">
<title>n19</title>
<g id="a_node20"><a xlink:href="vscode://vscode-remote/wsl+Ubuntu/home/gavin/statlib/Statlib/Regression/LocalizedProxyCriticalAssumptions_ofProcessAndComplexity.lean:19" xlink:title="lemma · Statlib/Regression/LocalizedProxyCriticalAssumptions_ofProcessAndComplexity.lean:19" target="_blank">
<path fill="#eef2f6" stroke="#94a3b8" d="M1075.05,-485.2C1075.05,-485.2 812.95,-485.2 812.95,-485.2 806.95,-485.2 800.95,-479.2 800.95,-473.2 800.95,-473.2 800.95,-461.2 800.95,-461.2 800.95,-455.2 806.95,-449.2 812.95,-449.2 812.95,-449.2 1075.05,-449.2 1075.05,-449.2 1081.05,-449.2 1087.05,-455.2 1087.05,-461.2 1087.05,-461.2 1087.05,-473.2 1087.05,-473.2 1087.05,-479.2 1081.05,-485.2 1075.05,-485.2"/>
<text xml:space="preserve" text-anchor="middle" x="944" y="-464.2" font-family="Helvetica,sans-Serif" font-size="10.00">LocalizedProxyCriticalAssumptions.ofProcessAndComplexity</text>
</a>
</g>
</g>
<!-- n19&#45;&gt;n0 -->
<g id="edge53" class="edge">
<title>n19&#45;&gt;n0</title>
<path fill="none" stroke="#64748b" d="M1087.29,-462.14C1187.89,-456.62 1311.57,-443.66 1353,-413.2 1388.09,-387.4 1394,-367.75 1394,-324.2 1394,-324.2 1394,-324.2 1394,-177 1394,-104.2 1330.06,-105.86 1262,-80 1184.77,-50.65 942.85,-39.89 832.67,-36.44"/>
<polygon fill="#64748b" stroke="#64748b" points="832.91,-33.99 825.84,-36.23 832.76,-38.89 832.91,-33.99"/>
</g>
<!-- n19&#45;&gt;n2 -->
<g id="edge56" class="edge">
<title>n19&#45;&gt;n2</title>
<path fill="none" stroke="#64748b" d="M932.18,-449.07C915.87,-425.22 885.77,-380.51 862,-341.2 852.53,-325.54 854.39,-318.67 842,-305.2 830.86,-293.09 816.43,-282.37 802.95,-273.81"/>
<polygon fill="#64748b" stroke="#64748b" points="804.54,-271.91 797.3,-270.32 801.97,-276.08 804.54,-271.91"/>
</g>
<!-- n19&#45;&gt;n8 -->
<g id="edge54" class="edge">
<title>n19&#45;&gt;n8</title>
<path fill="none" stroke="#64748b" d="M906.6,-448.86C887.94,-439.46 865.47,-426.95 847,-413.2 820.71,-393.63 794.51,-366.66 777.21,-347.55"/>
<polygon fill="#64748b" stroke="#64748b" points="779.2,-346.1 772.71,-342.52 775.55,-349.37 779.2,-346.1"/>
</g>
<!-- n19&#45;&gt;n13 -->
<g id="edge57" class="edge">
<title>n19&#45;&gt;n13</title>
<path fill="none" stroke="#64748b" d="M1087.3,-456.36C1195.01,-447.46 1326.86,-432.76 1344,-413.2 1371.98,-381.27 1313.27,-312.01 1307,-305.2 1295.57,-292.78 1280.58,-282.16 1266.38,-273.75"/>
<polygon fill="#64748b" stroke="#64748b" points="1267.66,-271.66 1260.37,-270.32 1265.23,-275.92 1267.66,-271.66"/>
</g>
<!-- n19&#45;&gt;n14 -->
<g id="edge58" class="edge">
<title>n19&#45;&gt;n14</title>
<path fill="none" stroke="#64748b" d="M945.59,-448.79C947.87,-423.96 952.06,-378.21 954.67,-349.6"/>
<polygon fill="#64748b" stroke="#64748b" points="957.1,-350.01 955.3,-342.82 952.22,-349.57 957.1,-350.01"/>
</g>
<!-- n19&#45;&gt;n15 -->
<g id="edge55" class="edge">
<title>n19&#45;&gt;n15</title>
<path fill="none" stroke="#64748b" d="M971.11,-448.71C999.08,-430.69 1044,-401.84 1083,-377.2 1099.45,-366.81 1117.75,-355.38 1133.15,-345.8"/>
<polygon fill="#64748b" stroke="#64748b" points="1134.06,-348.12 1138.71,-342.34 1131.48,-343.96 1134.06,-348.12"/>
</g>
<!-- n19&#45;&gt;n18 -->
<g id="edge59" class="edge">
<title>n19&#45;&gt;n18</title>
<path fill="none" stroke="#64748b" d="M1013.18,-448.72C1053,-438.66 1103.1,-425.99 1144.14,-415.62"/>
<polygon fill="#64748b" stroke="#64748b" points="1144.56,-418.04 1150.75,-413.95 1143.36,-413.29 1144.56,-418.04"/>
</g>
<!-- n20 -->
<g id="node21" class="node">
<title>n20</title>
<g id="a_node21"><a xlink:href="vscode://vscode-remote/wsl+Ubuntu/home/gavin/statlib/Statlib/Regression/LocalizedProxyCriticalAssumptions_ofProcessAndEntropy.lean:20" xlink:title="lemma · Statlib/Regression/LocalizedProxyCriticalAssumptions_ofProcessAndEntropy.lean:20" target="_blank">
<path fill="#eef2f6" stroke="#94a3b8" stroke-width="3" d="M880.56,-557.2C880.56,-557.2 633.44,-557.2 633.44,-557.2 627.44,-557.2 621.44,-551.2 621.44,-545.2 621.44,-545.2 621.44,-533.2 621.44,-533.2 621.44,-527.2 627.44,-521.2 633.44,-521.2 633.44,-521.2 880.56,-521.2 880.56,-521.2 886.56,-521.2 892.56,-527.2 892.56,-533.2 892.56,-533.2 892.56,-545.2 892.56,-545.2 892.56,-551.2 886.56,-557.2 880.56,-557.2"/>
<text xml:space="preserve" text-anchor="middle" x="757" y="-536.2" font-family="Helvetica,sans-Serif" font-size="10.00">LocalizedProxyCriticalAssumptions.ofProcessAndEntropy</text>
</a>
</g>
</g>
<!-- n20&#45;&gt;n0 -->
<g id="edge60" class="edge">
<title>n20&#45;&gt;n0</title>
<path fill="none" stroke="#64748b" d="M619.98,-525.67C406.07,-504.24 17,-456.91 17,-396.2 17,-396.2 17,-396.2 17,-177 17,-141.06 -60.76,-154.2 140,-80 245.93,-40.85 586.7,-35.51 721.43,-34.97"/>
<polygon fill="#64748b" stroke="#64748b" points="721.12,-37.42 728.11,-34.94 721.1,-32.52 721.12,-37.42"/>
</g>
<!-- n20&#45;&gt;n2 -->
<g id="edge63" class="edge">
<title>n20&#45;&gt;n2</title>
<path fill="none" stroke="#64748b" d="M739.88,-519.74C704.35,-479.08 629.3,-379.49 672,-305.2 682.44,-287.03 701.78,-274.51 719.95,-266.22"/>
<polygon fill="#64748b" stroke="#64748b" points="720.78,-268.53 726.25,-263.51 718.85,-264.02 720.78,-268.53"/>
</g>
<!-- n20&#45;&gt;n8 -->
<g id="edge61" class="edge">
<title>n20&#45;&gt;n8</title>
<path fill="none" stroke="#64748b" d="M757,-519.95C757,-481.85 757,-393.71 757,-349.89"/>
<polygon fill="#64748b" stroke="#64748b" points="759.45,-350.01 757,-343.01 754.55,-350.01 759.45,-350.01"/>
</g>
<!-- n20&#45;&gt;n12 -->
<g id="edge62" class="edge">
<title>n20&#45;&gt;n12</title>
<path fill="none" stroke="#64748b" d="M675.13,-519.76C588.02,-498.86 447.04,-461.35 331,-413.2 284.9,-394.07 234.96,-365.54 202.67,-345.96"/>
<polygon fill="#64748b" stroke="#64748b" points="204.2,-344.03 196.95,-342.47 201.65,-348.21 204.2,-344.03"/>
</g>
<!-- n20&#45;&gt;n13 -->
<g id="edge64" class="edge">
<title>n20&#45;&gt;n13</title>
<path fill="none" stroke="#64748b" d="M893.94,-529.81C1052.5,-516.81 1298.92,-485.3 1353,-413.2 1374.68,-384.3 1328.38,-308.96 1325,-305.2 1312.86,-291.72 1296.49,-281.16 1280.38,-273.14"/>
<polygon fill="#64748b" stroke="#64748b" points="1281.75,-271.08 1274.38,-270.28 1279.64,-275.5 1281.75,-271.08"/>
</g>
<!-- n20&#45;&gt;n14 -->
<g id="edge65" class="edge">
<title>n20&#45;&gt;n14</title>
<path fill="none" stroke="#64748b" d="M761.03,-520.04C765.93,-500.95 775.65,-470.77 792,-449.2 825.99,-404.36 880.12,-367.61 917.04,-345.83"/>
<polygon fill="#64748b" stroke="#64748b" points="918.06,-348.07 922.88,-342.44 915.59,-343.84 918.06,-348.07"/>
</g>
<!-- n20&#45;&gt;n15 -->
<g id="edge66" class="edge">
<title>n20&#45;&gt;n15</title>
<path fill="none" stroke="#64748b" d="M893.99,-534.24C976.06,-528.68 1069.48,-515.62 1096,-485.2 1127.55,-449.02 1076.23,-419.99 1098,-377.2 1104.3,-364.82 1114.98,-354.54 1126.12,-346.44"/>
<polygon fill="#64748b" stroke="#64748b" points="1127.44,-348.5 1131.84,-342.53 1124.68,-344.46 1127.44,-348.5"/>
</g>
<!-- n20&#45;&gt;n17 -->
<g id="edge67" class="edge">
<title>n20&#45;&gt;n17</title>
<path fill="none" stroke="#64748b" d="M719.77,-519.78C666.5,-493.42 568.78,-445.07 512.66,-417.31"/>
<polygon fill="#64748b" stroke="#64748b" points="514.08,-415.27 506.72,-414.37 511.9,-419.67 514.08,-415.27"/>
</g>
<!-- n20&#45;&gt;n19 -->
<g id="edge68" class="edge">
<title>n20&#45;&gt;n19</title>
<path fill="none" stroke="#64748b" d="M806.13,-519.81C831.84,-510.19 863.37,-498.38 889.79,-488.49"/>
<polygon fill="#64748b" stroke="#64748b" points="890.33,-490.9 896.03,-486.16 888.62,-486.32 890.33,-490.9"/>
</g>
</g>
</svg>
