<?xml version="1.0" encoding="UTF-8" standalone="no"?>
<!DOCTYPE svg PUBLIC "-//W3C//DTD SVG 1.1//EN"
 "http://www.w3.org/Graphics/SVG/1.1/DTD/svg11.dtd">
<!-- Generated by graphviz version 15.0.0 (20260523.1842)
 -->
<!-- Title: LocalizedDeterministicAssumptions.ofProcessAndEntropy Pages: 1 -->
<svg width="1695pt" height="627pt"
 viewBox="0.00 0.00 1695.00 627.00" xmlns="http://www.w3.org/2000/svg" xmlns:xlink="http://www.w3.org/1999/xlink">
<g id="graph0" class="graph" transform="scale(1 1) rotate(0) translate(4 623.2)">
<title>LocalizedDeterministicAssumptions.ofProcessAndEntropy</title>
<polygon fill="white" stroke="none" points="-4,4 -4,-623.2 1691,-623.2 1691,4 -4,4"/>
<text xml:space="preserve" text-anchor="middle" x="843.5" y="-602.6" font-family="Helvetica,sans-Serif" font-size="14.00">Proof narrative — LocalizedDeterministicAssumptions.ofProcessAndEntropy &#160;(24 decls)</text>
<g id="clust1" class="cluster">
<title>cluster_0</title>
<path fill="none" stroke="#cbd5e1" stroke-dasharray="5,2" d="M1595,-80C1595,-80 1667,-80 1667,-80 1673,-80 1679,-86 1679,-92 1679,-92 1679,-213.2 1679,-213.2 1679,-219.2 1673,-225.2 1667,-225.2 1667,-225.2 1595,-225.2 1595,-225.2 1589,-225.2 1583,-219.2 1583,-213.2 1583,-213.2 1583,-92 1583,-92 1583,-86 1589,-80 1595,-80"/>
<text xml:space="preserve" text-anchor="middle" x="1631" y="-211.3" font-family="Helvetica,sans-Serif" font-size="11.00">Gaussian</text>
</g>
<g id="clust2" class="cluster">
<title>cluster_1</title>
<path fill="none" stroke="#cbd5e1" stroke-dasharray="5,2" d="M20,-8C20,-8 1563,-8 1563,-8 1569,-8 1575,-14 1575,-20 1575,-20 1575,-574.4 1575,-574.4 1575,-580.4 1569,-586.4 1563,-586.4 1563,-586.4 20,-586.4 20,-586.4 14,-586.4 8,-580.4 8,-574.4 8,-574.4 8,-20 8,-20 8,-14 14,-8 20,-8"/>
<text xml:space="preserve" text-anchor="middle" x="791.5" y="-572.5" font-family="Helvetica,sans-Serif" font-size="11.00">Regression</text>
</g>
<!-- n6 -->
<g id="node1" class="node">
<title>n6</title>
<g id="a_node1"><a xlink:href="vscode://vscode-remote/wsl+Ubuntu/home/gavin/statlib/Statlib/Gaussian/Basic.lean:29" xlink:title="abbrev · Statlib/Gaussian/Basic.lean:29" target="_blank">
<path fill="#d6e9ff" stroke="#3b82f6" d="M1654.79,-124C1654.79,-124 1607.21,-124 1607.21,-124 1601.21,-124 1595.21,-118 1595.21,-112 1595.21,-112 1595.21,-100 1595.21,-100 1595.21,-94 1601.21,-88 1607.21,-88 1607.21,-88 1654.79,-88 1654.79,-88 1660.79,-88 1666.79,-94 1666.79,-100 1666.79,-100 1666.79,-112 1666.79,-112 1666.79,-118 1660.79,-124 1654.79,-124"/>
<text xml:space="preserve" text-anchor="middle" x="1631" y="-103" font-family="Helvetica,sans-Serif" font-size="10.00">stdGaussian</text>
</a>
</g>
</g>
<!-- n7 -->
<g id="node2" class="node">
<title>n7</title>
<g id="a_node2"><a xlink:href="vscode://vscode-remote/wsl+Ubuntu/home/gavin/statlib/Statlib/Gaussian/Basic.lean:32" xlink:title="def · Statlib/Gaussian/Basic.lean:32" target="_blank">
<path fill="#d6e9ff" stroke="#3b82f6" d="M1659.24,-196C1659.24,-196 1602.76,-196 1602.76,-196 1596.76,-196 1590.76,-190 1590.76,-184 1590.76,-184 1590.76,-172 1590.76,-172 1590.76,-166 1596.76,-160 1602.76,-160 1602.76,-160 1659.24,-160 1659.24,-160 1665.24,-160 1671.24,-166 1671.24,-172 1671.24,-172 1671.24,-184 1671.24,-184 1671.24,-190 1665.24,-196 1659.24,-196"/>
<text xml:space="preserve" text-anchor="middle" x="1631" y="-175" font-family="Helvetica,sans-Serif" font-size="10.00">stdGaussianPi</text>
</a>
</g>
</g>
<!-- n7&#45;&gt;n6 -->
<g id="edge8" class="edge">
<title>n7&#45;&gt;n6</title>
<path fill="none" stroke="#64748b" d="M1631,-159.7C1631,-151.47 1631,-141.48 1631,-132.42"/>
<polygon fill="#64748b" stroke="#64748b" points="1633.45,-132.62 1631,-125.62 1628.55,-132.62 1633.45,-132.62"/>
</g>
<!-- n0 -->
<g id="node3" class="node">
<title>n0</title>
<g id="a_node3"><a xlink:href="vscode://vscode-remote/wsl+Ubuntu/home/gavin/statlib/Statlib/Regression/Basic.lean:29" xlink:title="structure · Statlib/Regression/Basic.lean:29" target="_blank">
<path fill="#e8dcff" stroke="#8b5cf6" d="M936.91,-52C936.91,-52 867.09,-52 867.09,-52 861.09,-52 855.09,-46 855.09,-40 855.09,-40 855.09,-28 855.09,-28 855.09,-22 861.09,-16 867.09,-16 867.09,-16 936.91,-16 936.91,-16 942.91,-16 948.91,-22 948.91,-28 948.91,-28 948.91,-40 948.91,-40 948.91,-46 942.91,-52 936.91,-52"/>
<text xml:space="preserve" text-anchor="middle" x="902" y="-31" font-family="Helvetica,sans-Serif" font-size="10.00">RegressionModel</text>
</a>
</g>
</g>
<!-- n1 -->
<g id="node4" class="node">
<title>n1</title>
<g id="a_node4"><a xlink:href="vscode://vscode-remote/wsl+Ubuntu/home/gavin/statlib/Statlib/Regression/IsStarShapedClass.lean:10" xlink:title="def · Statlib/Regression/IsStarShapedClass.lean:10" target="_blank">
<path fill="#d6e9ff" stroke="#3b82f6" d="M918.8,-341.2C918.8,-341.2 841.2,-341.2 841.2,-341.2 835.2,-341.2 829.2,-335.2 829.2,-329.2 829.2,-329.2 829.2,-317.2 829.2,-317.2 829.2,-311.2 835.2,-305.2 841.2,-305.2 841.2,-305.2 918.8,-305.2 918.8,-305.2 924.8,-305.2 930.8,-311.2 930.8,-317.2 930.8,-317.2 930.8,-329.2 930.8,-329.2 930.8,-335.2 924.8,-341.2 918.8,-341.2"/>
<text xml:space="preserve" text-anchor="middle" x="880" y="-320.2" font-family="Helvetica,sans-Serif" font-size="10.00">IsStarShapedClass</text>
</a>
</g>
</g>
<!-- n1&#45;&gt;n0 -->
<g id="edge1" class="edge">
<title>n1&#45;&gt;n0</title>
<path fill="none" stroke="#64748b" d="M889.06,-304.91C898.45,-285.96 912.49,-254.35 918,-225.2 928.99,-167.02 916.84,-97.4 908.51,-60.65"/>
<polygon fill="#64748b" stroke="#64748b" points="910.92,-60.2 906.93,-53.94 906.15,-61.32 910.92,-60.2"/>
</g>
<!-- n2 -->
<g id="node5" class="node">
<title>n2</title>
<g id="a_node5"><a xlink:href="vscode://vscode-remote/wsl+Ubuntu/home/gavin/statlib/Statlib/Regression/shiftedClass.lean:10" xlink:title="def · Statlib/Regression/shiftedClass.lean:10" target="_blank">
<path fill="#d6e9ff" stroke="#3b82f6" d="M94.23,-341.2C94.23,-341.2 47.77,-341.2 47.77,-341.2 41.77,-341.2 35.77,-335.2 35.77,-329.2 35.77,-329.2 35.77,-317.2 35.77,-317.2 35.77,-311.2 41.77,-305.2 47.77,-305.2 47.77,-305.2 94.23,-305.2 94.23,-305.2 100.23,-305.2 106.23,-311.2 106.23,-317.2 106.23,-317.2 106.23,-329.2 106.23,-329.2 106.23,-335.2 100.23,-341.2 94.23,-341.2"/>
<text xml:space="preserve" text-anchor="middle" x="71" y="-320.2" font-family="Helvetica,sans-Serif" font-size="10.00">shiftedClass</text>
</a>
</g>
</g>
<!-- n2&#45;&gt;n0 -->
<g id="edge2" class="edge">
<title>n2&#45;&gt;n0</title>
<path fill="none" stroke="#64748b" d="M68.24,-304.72C62.19,-259.45 53.23,-137.9 120,-80 147.4,-56.24 672.42,-40.82 846.47,-36.35"/>
<polygon fill="#64748b" stroke="#64748b" points="846.29,-38.81 853.22,-36.18 846.16,-33.91 846.29,-38.81"/>
</g>
<!-- n3 -->
<g id="node6" class="node">
<title>n3</title>
<g id="a_node6"><a xlink:href="vscode://vscode-remote/wsl+Ubuntu/home/gavin/statlib/Statlib/Regression/empiricalNorm.lean:10" xlink:title="def · Statlib/Regression/empiricalNorm.lean:10" target="_blank">
<path fill="#d6e9ff" stroke="#3b82f6" d="M871.23,-124C871.23,-124 814.77,-124 814.77,-124 808.77,-124 802.77,-118 802.77,-112 802.77,-112 802.77,-100 802.77,-100 802.77,-94 808.77,-88 814.77,-88 814.77,-88 871.23,-88 871.23,-88 877.23,-88 883.23,-94 883.23,-100 883.23,-100 883.23,-112 883.23,-112 883.23,-118 877.23,-124 871.23,-124"/>
<text xml:space="preserve" text-anchor="middle" x="843" y="-103" font-family="Helvetica,sans-Serif" font-size="10.00">empiricalNorm</text>
</a>
</g>
</g>
<!-- n3&#45;&gt;n0 -->
<g id="edge3" class="edge">
<title>n3&#45;&gt;n0</title>
<path fill="none" stroke="#64748b" d="M857.58,-87.7C865.01,-78.88 874.16,-68.03 882.21,-58.47"/>
<polygon fill="#64748b" stroke="#64748b" points="883.97,-60.19 886.61,-53.26 880.22,-57.04 883.97,-60.19"/>
</g>
<!-- n4 -->
<g id="node7" class="node">
<title>n4</title>
<g id="a_node7"><a xlink:href="vscode://vscode-remote/wsl+Ubuntu/home/gavin/statlib/Statlib/Regression/empiricalSphere.lean:11" xlink:title="def · Statlib/Regression/empiricalSphere.lean:11" target="_blank">
<path fill="#d6e9ff" stroke="#3b82f6" d="M897.13,-196C897.13,-196 832.87,-196 832.87,-196 826.87,-196 820.87,-190 820.87,-184 820.87,-184 820.87,-172 820.87,-172 820.87,-166 826.87,-160 832.87,-160 832.87,-160 897.13,-160 897.13,-160 903.13,-160 909.13,-166 909.13,-172 909.13,-172 909.13,-184 909.13,-184 909.13,-190 903.13,-196 897.13,-196"/>
<text xml:space="preserve" text-anchor="middle" x="865" y="-175" font-family="Helvetica,sans-Serif" font-size="10.00">empiricalSphere</text>
</a>
</g>
</g>
<!-- n4&#45;&gt;n0 -->
<g id="edge4" class="edge">
<title>n4&#45;&gt;n0</title>
<path fill="none" stroke="#64748b" d="M875.92,-159.52C881.66,-149.5 888.26,-136.46 892,-124 898.22,-103.27 900.63,-78.76 901.54,-60.72"/>
<polygon fill="#64748b" stroke="#64748b" points="903.98,-61.03 901.81,-53.94 899.08,-60.84 903.98,-61.03"/>
</g>
<!-- n4&#45;&gt;n3 -->
<g id="edge5" class="edge">
<title>n4&#45;&gt;n3</title>
<path fill="none" stroke="#64748b" d="M859.56,-159.7C856.95,-151.39 853.77,-141.28 850.9,-132.14"/>
<polygon fill="#64748b" stroke="#64748b" points="853.27,-131.49 848.83,-125.55 848.59,-132.96 853.27,-131.49"/>
</g>
<!-- n5 -->
<g id="node8" class="node">
<title>n5</title>
<g id="a_node8"><a xlink:href="vscode://vscode-remote/wsl+Ubuntu/home/gavin/statlib/Statlib/Regression/localizedBall.lean:11" xlink:title="def · Statlib/Regression/localizedBall.lean:11" target="_blank">
<path fill="#d6e9ff" stroke="#3b82f6" d="M790.79,-196C790.79,-196 743.21,-196 743.21,-196 737.21,-196 731.21,-190 731.21,-184 731.21,-184 731.21,-172 731.21,-172 731.21,-166 737.21,-160 743.21,-160 743.21,-160 790.79,-160 790.79,-160 796.79,-160 802.79,-166 802.79,-172 802.79,-172 802.79,-184 802.79,-184 802.79,-190 796.79,-196 790.79,-196"/>
<text xml:space="preserve" text-anchor="middle" x="767" y="-175" font-family="Helvetica,sans-Serif" font-size="10.00">localizedBall</text>
</a>
</g>
</g>
<!-- n5&#45;&gt;n0 -->
<g id="edge6" class="edge">
<title>n5&#45;&gt;n0</title>
<path fill="none" stroke="#64748b" d="M767.38,-159.8C768.75,-138.57 774.09,-102.53 794,-80 807.71,-64.48 827.63,-54.19 846.63,-47.42"/>
<polygon fill="#64748b" stroke="#64748b" points="847.4,-49.75 853.27,-45.21 845.85,-45.1 847.4,-49.75"/>
</g>
<!-- n5&#45;&gt;n3 -->
<g id="edge7" class="edge">
<title>n5&#45;&gt;n3</title>
<path fill="none" stroke="#64748b" d="M785.79,-159.7C795.56,-150.69 807.64,-139.57 818.17,-129.87"/>
<polygon fill="#64748b" stroke="#64748b" points="819.56,-131.92 823.05,-125.37 816.24,-128.31 819.56,-131.92"/>
</g>
<!-- n8 -->
<g id="node9" class="node">
<title>n8</title>
<g id="a_node9"><a xlink:href="vscode://vscode-remote/wsl+Ubuntu/home/gavin/statlib/Statlib/Regression/LocalizedProcessAssumptions.lean:14" xlink:title="structure · Statlib/Regression/LocalizedProcessAssumptions.lean:14" target="_blank">
<path fill="#e8dcff" stroke="#8b5cf6" d="M697.81,-413.2C697.81,-413.2 570.19,-413.2 570.19,-413.2 564.19,-413.2 558.19,-407.2 558.19,-401.2 558.19,-401.2 558.19,-389.2 558.19,-389.2 558.19,-383.2 564.19,-377.2 570.19,-377.2 570.19,-377.2 697.81,-377.2 697.81,-377.2 703.81,-377.2 709.81,-383.2 709.81,-389.2 709.81,-389.2 709.81,-401.2 709.81,-401.2 709.81,-407.2 703.81,-413.2 697.81,-413.2"/>
<text xml:space="preserve" text-anchor="middle" x="634" y="-392.2" font-family="Helvetica,sans-Serif" font-size="10.00">LocalizedProcessAssumptions</text>
</a>
</g>
</g>
<!-- n8&#45;&gt;n7 -->
<g id="edge14" class="edge">
<title>n8&#45;&gt;n7</title>
<path fill="none" stroke="#64748b" d="M709.92,-378.28C712.64,-377.89 715.34,-377.52 718,-377.2 810.51,-365.92 1478.57,-393.08 1556,-341.2 1602.65,-309.95 1620.82,-241.81 1627.47,-204.57"/>
<polygon fill="#64748b" stroke="#64748b" points="1629.88,-205.04 1628.61,-197.73 1625.04,-204.23 1629.88,-205.04"/>
</g>
<!-- n8&#45;&gt;n0 -->
<g id="edge9" class="edge">
<title>n8&#45;&gt;n0</title>
<path fill="none" stroke="#64748b" d="M558.07,-378.6C555.01,-378.1 551.98,-377.63 549,-377.2 505.5,-370.88 186.41,-371.96 155,-341.2 126.56,-313.35 145,-292 145,-252.2 145,-252.2 145,-252.2 145,-177 145,-105.63 671.53,-54.54 846.34,-39.54"/>
<polygon fill="#64748b" stroke="#64748b" points="846.37,-42 853.14,-38.96 845.96,-37.11 846.37,-42"/>
</g>
<!-- n8&#45;&gt;n1 -->
<g id="edge10" class="edge">
<title>n8&#45;&gt;n1</title>
<path fill="none" stroke="#64748b" d="M695.44,-376.72C733.84,-365.79 783.02,-351.8 820.95,-341"/>
<polygon fill="#64748b" stroke="#64748b" points="821.35,-343.44 827.42,-339.16 820.01,-338.72 821.35,-343.44"/>
</g>
<!-- n8&#45;&gt;n2 -->
<g id="edge11" class="edge">
<title>n8&#45;&gt;n2</title>
<path fill="none" stroke="#64748b" d="M558.07,-378.59C555.01,-378.09 551.98,-377.63 549,-377.2 368.37,-351.27 320.01,-371.12 140,-341.2 131.78,-339.83 123.1,-338.01 114.78,-336.06"/>
<polygon fill="#64748b" stroke="#64748b" points="115.45,-333.7 108.07,-334.43 114.29,-338.46 115.45,-333.7"/>
</g>
<!-- n8&#45;&gt;n4 -->
<g id="edge12" class="edge">
<title>n8&#45;&gt;n4</title>
<path fill="none" stroke="#64748b" d="M704.58,-376.72C727.25,-368.63 751.3,-357.15 770,-341.2 814.25,-303.45 842.93,-239.66 856.27,-204.37"/>
<polygon fill="#64748b" stroke="#64748b" points="858.54,-205.3 858.66,-197.88 853.94,-203.6 858.54,-205.3"/>
</g>
<!-- n8&#45;&gt;n5 -->
<g id="edge13" class="edge">
<title>n8&#45;&gt;n5</title>
<path fill="none" stroke="#64748b" d="M710.16,-377.83C729.46,-369.96 748.07,-358.34 760,-341.2 774.85,-319.85 771.93,-244.99 769.14,-204.87"/>
<polygon fill="#64748b" stroke="#64748b" points="771.59,-204.71 768.63,-197.91 766.7,-205.07 771.59,-204.71"/>
</g>
<!-- n9 -->
<g id="node10" class="node">
<title>n9</title>
<g id="a_node10"><a xlink:href="vscode://vscode-remote/wsl+Ubuntu/home/gavin/statlib/Statlib/Regression/LocalGaussianComplexity.lean:11" xlink:title="def · Statlib/Regression/LocalGaussianComplexity.lean:11" target="_blank">
<path fill="#d6e9ff" stroke="#3b82f6" d="M1383.81,-269.2C1383.81,-269.2 1276.19,-269.2 1276.19,-269.2 1270.19,-269.2 1264.19,-263.2 1264.19,-257.2 1264.19,-257.2 1264.19,-245.2 1264.19,-245.2 1264.19,-239.2 1270.19,-233.2 1276.19,-233.2 1276.19,-233.2 1383.81,-233.2 1383.81,-233.2 1389.81,-233.2 1395.81,-239.2 1395.81,-245.2 1395.81,-245.2 1395.81,-257.2 1395.81,-257.2 1395.81,-263.2 1389.81,-269.2 1383.81,-269.2"/>
<text xml:space="preserve" text-anchor="middle" x="1330" y="-248.2" font-family="Helvetica,sans-Serif" font-size="10.00">LocalGaussianComplexity</text>
</a>
</g>
</g>
<!-- n9&#45;&gt;n7 -->
<g id="edge17" class="edge">
<title>n9&#45;&gt;n7</title>
<path fill="none" stroke="#64748b" d="M1396.24,-248.14C1458.7,-245.37 1547.32,-239.09 1579,-225.2 1591.04,-219.92 1602.25,-210.77 1611.15,-202.01"/>
<polygon fill="#64748b" stroke="#64748b" points="1612.76,-203.87 1615.87,-197.14 1609.24,-200.46 1612.76,-203.87"/>
</g>
<!-- n9&#45;&gt;n0 -->
<g id="edge15" class="edge">
<title>n9&#45;&gt;n0</title>
<path fill="none" stroke="#64748b" d="M1327.4,-232.75C1321.13,-197.44 1301.71,-117.7 1250,-80 1204.56,-46.87 1043.7,-38.12 957.5,-35.82"/>
<polygon fill="#64748b" stroke="#64748b" points="957.72,-33.37 950.66,-35.65 957.6,-38.27 957.72,-33.37"/>
</g>
<!-- n9&#45;&gt;n5 -->
<g id="edge16" class="edge">
<title>n9&#45;&gt;n5</title>
<path fill="none" stroke="#64748b" d="M1263.75,-236.97C1254.14,-235.45 1244.34,-234.12 1235,-233.2 1211.61,-230.9 833.57,-234.54 812,-225.2 801.03,-220.45 791.38,-211.62 783.86,-202.95"/>
<polygon fill="#64748b" stroke="#64748b" points="785.82,-201.47 779.49,-197.59 782.02,-204.56 785.82,-201.47"/>
</g>
<!-- n10 -->
<g id="node11" class="node">
<title>n10</title>
<g id="a_node11"><a xlink:href="vscode://vscode-remote/wsl+Ubuntu/home/gavin/statlib/Statlib/Regression/empiricalMetricImage.lean:11" xlink:title="def · Statlib/Regression/empiricalMetricImage.lean:11" target="_blank">
<path fill="#d6e9ff" stroke="#3b82f6" d="M620.51,-196C620.51,-196 533.49,-196 533.49,-196 527.49,-196 521.49,-190 521.49,-184 521.49,-184 521.49,-172 521.49,-172 521.49,-166 527.49,-160 533.49,-160 533.49,-160 620.51,-160 620.51,-160 626.51,-160 632.51,-166 632.51,-172 632.51,-172 632.51,-184 632.51,-184 632.51,-190 626.51,-196 620.51,-196"/>
<text xml:space="preserve" text-anchor="middle" x="577" y="-175" font-family="Helvetica,sans-Serif" font-size="10.00">empiricalMetricImage</text>
</a>
</g>
</g>
<!-- n10&#45;&gt;n0 -->
<g id="edge18" class="edge">
<title>n10&#45;&gt;n0</title>
<path fill="none" stroke="#64748b" d="M588.88,-159.51C604.99,-137.28 635.9,-99.47 672,-80 726.68,-50.52 797.94,-40.2 846.56,-36.67"/>
<polygon fill="#64748b" stroke="#64748b" points="846.43,-39.13 853.25,-36.22 846.1,-34.24 846.43,-39.13"/>
</g>
<!-- n11 -->
<g id="node12" class="node">
<title>n11</title>
<g id="a_node12"><a xlink:href="vscode://vscode-remote/wsl+Ubuntu/home/gavin/statlib/Statlib/Regression/dudleyEntropyUpper.lean:12" xlink:title="def · Statlib/Regression/dudleyEntropyUpper.lean:12" target="_blank">
<path fill="#d6e9ff" stroke="#3b82f6" d="M678.58,-269.2C678.58,-269.2 595.42,-269.2 595.42,-269.2 589.42,-269.2 583.42,-263.2 583.42,-257.2 583.42,-257.2 583.42,-245.2 583.42,-245.2 583.42,-239.2 589.42,-233.2 595.42,-233.2 595.42,-233.2 678.58,-233.2 678.58,-233.2 684.58,-233.2 690.58,-239.2 690.58,-245.2 690.58,-245.2 690.58,-257.2 690.58,-257.2 690.58,-263.2 684.58,-269.2 678.58,-269.2"/>
<text xml:space="preserve" text-anchor="middle" x="637" y="-248.2" font-family="Helvetica,sans-Serif" font-size="10.00">dudleyEntropyUpper</text>
</a>
</g>
</g>
<!-- n11&#45;&gt;n0 -->
<g id="edge19" class="edge">
<title>n11&#45;&gt;n0</title>
<path fill="none" stroke="#64748b" d="M641.7,-232.89C652.64,-193.86 680.7,-100.79 705,-80 726.02,-62.02 795.92,-49.11 846.48,-41.85"/>
<polygon fill="#64748b" stroke="#64748b" points="846.65,-44.3 853.24,-40.9 845.97,-39.45 846.65,-44.3"/>
</g>
<!-- n11&#45;&gt;n5 -->
<g id="edge21" class="edge">
<title>n11&#45;&gt;n5</title>
<path fill="none" stroke="#64748b" d="M668.8,-232.78C686.59,-223.04 708.9,-210.82 727.77,-200.49"/>
<polygon fill="#64748b" stroke="#64748b" points="728.79,-202.72 733.75,-197.21 726.43,-198.43 728.79,-202.72"/>
</g>
<!-- n11&#45;&gt;n10 -->
<g id="edge20" class="edge">
<title>n11&#45;&gt;n10</title>
<path fill="none" stroke="#64748b" d="M622.48,-232.96C614.74,-223.78 605.11,-212.35 596.7,-202.38"/>
<polygon fill="#64748b" stroke="#64748b" points="598.75,-201.01 592.37,-197.23 595,-204.17 598.75,-201.01"/>
</g>
<!-- n12 -->
<g id="node13" class="node">
<title>n12</title>
<g id="a_node13"><a xlink:href="vscode://vscode-remote/wsl+Ubuntu/home/gavin/statlib/Statlib/Regression/LocalGaussianComplexityEntropyAssumptions.lean:14" xlink:title="structure · Statlib/Regression/LocalGaussianComplexityEntropyAssumptions.lean:14" target="_blank">
<path fill="#e8dcff" stroke="#8b5cf6" d="M375.66,-341.2C375.66,-341.2 176.34,-341.2 176.34,-341.2 170.34,-341.2 164.34,-335.2 164.34,-329.2 164.34,-329.2 164.34,-317.2 164.34,-317.2 164.34,-311.2 170.34,-305.2 176.34,-305.2 176.34,-305.2 375.66,-305.2 375.66,-305.2 381.66,-305.2 387.66,-311.2 387.66,-317.2 387.66,-317.2 387.66,-329.2 387.66,-329.2 387.66,-335.2 381.66,-341.2 375.66,-341.2"/>
<text xml:space="preserve" text-anchor="middle" x="276" y="-320.2" font-family="Helvetica,sans-Serif" font-size="10.00">LocalGaussianComplexityEntropyAssumptions</text>
</a>
</g>
</g>
<!-- n12&#45;&gt;n0 -->
<g id="edge22" class="edge">
<title>n12&#45;&gt;n0</title>
<path fill="none" stroke="#64748b" d="M293.12,-304.98C339.76,-259.27 474.91,-134.64 614,-80 690.88,-49.8 786.8,-39.81 846.23,-36.55"/>
<polygon fill="#64748b" stroke="#64748b" points="846.35,-38.99 853.22,-36.19 846.1,-34.1 846.35,-38.99"/>
</g>
<!-- n12&#45;&gt;n5 -->
<g id="edge26" class="edge">
<title>n12&#45;&gt;n5</title>
<path fill="none" stroke="#64748b" d="M388.09,-306.24C390.75,-305.89 393.39,-305.54 396,-305.2 463.46,-296.43 641.13,-303.29 700,-269.2 713.69,-261.27 736.93,-227.17 752.13,-203.25"/>
<polygon fill="#64748b" stroke="#64748b" points="754.1,-204.71 755.76,-197.48 749.96,-202.1 754.1,-204.71"/>
</g>
<!-- n12&#45;&gt;n9 -->
<g id="edge23" class="edge">
<title>n12&#45;&gt;n9</title>
<path fill="none" stroke="#64748b" d="M388.06,-305.97C390.73,-305.7 393.38,-305.44 396,-305.2 767.66,-270.98 864.02,-310.16 1235,-269.2 1241.7,-268.46 1248.65,-267.53 1255.59,-266.49"/>
<polygon fill="#64748b" stroke="#64748b" points="1255.69,-268.96 1262.23,-265.46 1254.94,-264.12 1255.69,-268.96"/>
</g>
<!-- n12&#45;&gt;n10 -->
<g id="edge25" class="edge">
<title>n12&#45;&gt;n10</title>
<path fill="none" stroke="#64748b" d="M312.61,-304.78C368.2,-278.34 473.72,-228.14 533.27,-199.81"/>
<polygon fill="#64748b" stroke="#64748b" points="534.01,-202.16 539.28,-196.95 531.91,-197.74 534.01,-202.16"/>
</g>
<!-- n12&#45;&gt;n11 -->
<g id="edge24" class="edge">
<title>n12&#45;&gt;n11</title>
<path fill="none" stroke="#64748b" d="M366.16,-304.72C431.15,-292.11 517.2,-275.43 574.69,-264.28"/>
<polygon fill="#64748b" stroke="#64748b" points="575.07,-266.7 581.47,-262.97 574.13,-261.89 575.07,-266.7"/>
</g>
<!-- n13 -->
<g id="node14" class="node">
<title>n13</title>
<g id="a_node14"><a xlink:href="vscode://vscode-remote/wsl+Ubuntu/home/gavin/statlib/Statlib/Regression/estimationErrorUpper.lean:11" xlink:title="def · Statlib/Regression/estimationErrorUpper.lean:11" target="_blank">
<path fill="#d6e9ff" stroke="#3b82f6" d="M1213.52,-269.2C1213.52,-269.2 1126.48,-269.2 1126.48,-269.2 1120.48,-269.2 1114.48,-263.2 1114.48,-257.2 1114.48,-257.2 1114.48,-245.2 1114.48,-245.2 1114.48,-239.2 1120.48,-233.2 1126.48,-233.2 1126.48,-233.2 1213.52,-233.2 1213.52,-233.2 1219.52,-233.2 1225.52,-239.2 1225.52,-245.2 1225.52,-245.2 1225.52,-257.2 1225.52,-257.2 1225.52,-263.2 1219.52,-269.2 1213.52,-269.2"/>
<text xml:space="preserve" text-anchor="middle" x="1170" y="-248.2" font-family="Helvetica,sans-Serif" font-size="10.00">estimationErrorUpper</text>
</a>
</g>
</g>
<!-- n13&#45;&gt;n0 -->
<g id="edge27" class="edge">
<title>n13&#45;&gt;n0</title>
<path fill="none" stroke="#64748b" d="M1162.76,-232.83C1147.5,-198.38 1108.74,-121.19 1052,-80 1024.35,-59.92 987.69,-48.71 957.54,-42.5"/>
<polygon fill="#64748b" stroke="#64748b" points="958.05,-40.11 950.71,-41.17 957.11,-44.91 958.05,-40.11"/>
</g>
<!-- n14 -->
<g id="node15" class="node">
<title>n14</title>
<g id="a_node15"><a xlink:href="vscode://vscode-remote/wsl+Ubuntu/home/gavin/statlib/Statlib/Regression/satisfiesCriticalInequality.lean:11" xlink:title="def · Statlib/Regression/satisfiesCriticalInequality.lean:11" target="_blank">
<path fill="#d6e9ff" stroke="#3b82f6" d="M1534.74,-341.2C1534.74,-341.2 1433.26,-341.2 1433.26,-341.2 1427.26,-341.2 1421.26,-335.2 1421.26,-329.2 1421.26,-329.2 1421.26,-317.2 1421.26,-317.2 1421.26,-311.2 1427.26,-305.2 1433.26,-305.2 1433.26,-305.2 1534.74,-305.2 1534.74,-305.2 1540.74,-305.2 1546.74,-311.2 1546.74,-317.2 1546.74,-317.2 1546.74,-329.2 1546.74,-329.2 1546.74,-335.2 1540.74,-341.2 1534.74,-341.2"/>
<text xml:space="preserve" text-anchor="middle" x="1484" y="-320.2" font-family="Helvetica,sans-Serif" font-size="10.00">satisfiesCriticalInequality</text>
</a>
</g>
</g>
<!-- n14&#45;&gt;n0 -->
<g id="edge28" class="edge">
<title>n14&#45;&gt;n0</title>
<path fill="none" stroke="#64748b" d="M1485.45,-305.02C1488.22,-259.95 1488.72,-137.83 1420,-80 1385.19,-50.7 1083.91,-39.64 957.48,-36.26"/>
<polygon fill="#64748b" stroke="#64748b" points="957.63,-33.82 950.56,-36.08 957.5,-38.71 957.63,-33.82"/>
</g>
<!-- n14&#45;&gt;n9 -->
<g id="edge29" class="edge">
<title>n14&#45;&gt;n9</title>
<path fill="none" stroke="#64748b" d="M1445.54,-304.72C1424.42,-295.12 1398.09,-283.15 1375.9,-273.06"/>
<polygon fill="#64748b" stroke="#64748b" points="1377,-270.87 1369.62,-270.21 1374.98,-275.34 1377,-270.87"/>
</g>
<!-- n15 -->
<g id="node16" class="node">
<title>n15</title>
<g id="a_node16"><a xlink:href="vscode://vscode-remote/wsl+Ubuntu/home/gavin/statlib/Statlib/Regression/LocalizedDeterministicAssumptions.lean:15" xlink:title="structure · Statlib/Regression/LocalizedDeterministicAssumptions.lean:15" target="_blank">
<path fill="#e8dcff" stroke="#8b5cf6" d="M888.64,-413.2C888.64,-413.2 739.36,-413.2 739.36,-413.2 733.36,-413.2 727.36,-407.2 727.36,-401.2 727.36,-401.2 727.36,-389.2 727.36,-389.2 727.36,-383.2 733.36,-377.2 739.36,-377.2 739.36,-377.2 888.64,-377.2 888.64,-377.2 894.64,-377.2 900.64,-383.2 900.64,-389.2 900.64,-389.2 900.64,-401.2 900.64,-401.2 900.64,-407.2 894.64,-413.2 888.64,-413.2"/>
<text xml:space="preserve" text-anchor="middle" x="814" y="-392.2" font-family="Helvetica,sans-Serif" font-size="10.00">LocalizedDeterministicAssumptions</text>
</a>
</g>
</g>
<!-- n15&#45;&gt;n7 -->
<g id="edge36" class="edge">
<title>n15&#45;&gt;n7</title>
<path fill="none" stroke="#64748b" d="M900.8,-386.17C934.83,-383.16 974.23,-379.83 1010,-377.2 1076.5,-372.32 1560.12,-386.55 1609,-341.2 1646.41,-306.48 1642.16,-240.65 1636.29,-204.44"/>
<polygon fill="#64748b" stroke="#64748b" points="1638.75,-204.3 1635.13,-197.83 1633.92,-205.14 1638.75,-204.3"/>
</g>
<!-- n15&#45;&gt;n0 -->
<g id="edge30" class="edge">
<title>n15&#45;&gt;n0</title>
<path fill="none" stroke="#64748b" d="M896.18,-376.71C916.25,-368.86 935.96,-357.53 950,-341.2 976.43,-310.46 970,-292.74 970,-252.2 970,-252.2 970,-252.2 970,-177 970,-131.84 941.67,-85.82 921.58,-58.86"/>
<polygon fill="#64748b" stroke="#64748b" points="923.54,-57.38 917.34,-53.31 919.64,-60.36 923.54,-57.38"/>
</g>
<!-- n15&#45;&gt;n1 -->
<g id="edge33" class="edge">
<title>n15&#45;&gt;n1</title>
<path fill="none" stroke="#64748b" d="M830.31,-376.9C838.71,-368 849.05,-357.02 858.13,-347.4"/>
<polygon fill="#64748b" stroke="#64748b" points="859.82,-349.18 862.83,-342.41 856.25,-345.82 859.82,-349.18"/>
</g>
<!-- n15&#45;&gt;n2 -->
<g id="edge32" class="edge">
<title>n15&#45;&gt;n2</title>
<path fill="none" stroke="#64748b" d="M727.08,-378.24C724.36,-377.87 721.66,-377.52 719,-377.2 469.64,-347.03 404,-374.19 155,-341.2 141.81,-339.45 127.59,-336.85 114.66,-334.21"/>
<polygon fill="#64748b" stroke="#64748b" points="115.21,-331.82 107.86,-332.78 114.21,-336.62 115.21,-331.82"/>
</g>
<!-- n15&#45;&gt;n4 -->
<g id="edge34" class="edge">
<title>n15&#45;&gt;n4</title>
<path fill="none" stroke="#64748b" d="M893.92,-376.78C912.03,-368.95 929.1,-357.61 940,-341.2 970.54,-295.22 922.4,-234.8 890.19,-202.23"/>
<polygon fill="#64748b" stroke="#64748b" points="892.16,-200.73 885.46,-197.54 888.72,-204.21 892.16,-200.73"/>
</g>
<!-- n15&#45;&gt;n5 -->
<g id="edge35" class="edge">
<title>n15&#45;&gt;n5</title>
<path fill="none" stroke="#64748b" d="M810.23,-376.95C801.98,-339.18 782.28,-248.97 772.58,-204.57"/>
<polygon fill="#64748b" stroke="#64748b" points="774.99,-204.12 771.11,-197.81 770.21,-205.17 774.99,-204.12"/>
</g>
<!-- n15&#45;&gt;n14 -->
<g id="edge31" class="edge">
<title>n15&#45;&gt;n14</title>
<path fill="none" stroke="#64748b" d="M900.9,-385.12C1034.85,-371.13 1289.2,-344.55 1412.89,-331.63"/>
<polygon fill="#64748b" stroke="#64748b" points="1412.99,-334.08 1419.7,-330.92 1412.48,-329.21 1412.99,-334.08"/>
</g>
<!-- n16 -->
<g id="node17" class="node">
<title>n16</title>
<g id="a_node17"><a xlink:href="vscode://vscode-remote/wsl+Ubuntu/home/gavin/statlib/Statlib/Regression/LocalGaussianComplexityProxyAssumptions.lean:13" xlink:title="structure · Statlib/Regression/LocalGaussianComplexityProxyAssumptions.lean:13" target="_blank">
<path fill="#e8dcff" stroke="#8b5cf6" d="M1211.21,-341.2C1211.21,-341.2 1020.79,-341.2 1020.79,-341.2 1014.79,-341.2 1008.79,-335.2 1008.79,-329.2 1008.79,-329.2 1008.79,-317.2 1008.79,-317.2 1008.79,-311.2 1014.79,-305.2 1020.79,-305.2 1020.79,-305.2 1211.21,-305.2 1211.21,-305.2 1217.21,-305.2 1223.21,-311.2 1223.21,-317.2 1223.21,-317.2 1223.21,-329.2 1223.21,-329.2 1223.21,-335.2 1217.21,-341.2 1211.21,-341.2"/>
<text xml:space="preserve" text-anchor="middle" x="1116" y="-320.2" font-family="Helvetica,sans-Serif" font-size="10.00">LocalGaussianComplexityProxyAssumptions</text>
</a>
</g>
</g>
<!-- n16&#45;&gt;n0 -->
<g id="edge37" class="edge">
<title>n16&#45;&gt;n0</title>
<path fill="none" stroke="#64748b" d="M1111.58,-304.94C1099.73,-261.73 1063.4,-147.54 995,-80 984.23,-69.37 970.46,-60.85 956.83,-54.22"/>
<polygon fill="#64748b" stroke="#64748b" points="958.05,-52.08 950.67,-51.36 955.99,-56.53 958.05,-52.08"/>
</g>
<!-- n16&#45;&gt;n9 -->
<g id="edge38" class="edge">
<title>n16&#45;&gt;n9</title>
<path fill="none" stroke="#64748b" d="M1169.45,-304.72C1199.69,-294.82 1237.63,-282.42 1269.03,-272.14"/>
<polygon fill="#64748b" stroke="#64748b" points="1269.53,-274.56 1275.42,-270.05 1268.01,-269.9 1269.53,-274.56"/>
</g>
<!-- n16&#45;&gt;n11 -->
<g id="edge39" class="edge">
<title>n16&#45;&gt;n11</title>
<path fill="none" stroke="#64748b" d="M1008.5,-306.49C913.23,-292.57 777.42,-272.72 699.13,-261.28"/>
<polygon fill="#64748b" stroke="#64748b" points="699.59,-258.87 692.31,-260.28 698.88,-263.72 699.59,-258.87"/>
</g>
<!-- n16&#45;&gt;n13 -->
<g id="edge40" class="edge">
<title>n16&#45;&gt;n13</title>
<path fill="none" stroke="#64748b" d="M1129.35,-304.9C1136.08,-296.17 1144.36,-285.44 1151.68,-275.95"/>
<polygon fill="#64748b" stroke="#64748b" points="1153.54,-277.54 1155.88,-270.5 1149.67,-274.55 1153.54,-277.54"/>
</g>
<!-- n17 -->
<g id="node18" class="node">
<title>n17</title>
<g id="a_node18"><a xlink:href="vscode://vscode-remote/wsl+Ubuntu/home/gavin/statlib/Statlib/Regression/dudleyEntropyUpper_le_estimationErrorUpper_of_entropyIntegral_le_Msq.lean:15" xlink:title="lemma · Statlib/Regression/dudleyEntropyUpper_le_estimationErrorUpper_of_entropyIntegral_le_Msq.lean:15" target="_blank">
<path fill="#eef2f6" stroke="#94a3b8" d="M738.54,-341.2C738.54,-341.2 417.46,-341.2 417.46,-341.2 411.46,-341.2 405.46,-335.2 405.46,-329.2 405.46,-329.2 405.46,-317.2 405.46,-317.2 405.46,-311.2 411.46,-305.2 417.46,-305.2 417.46,-305.2 738.54,-305.2 738.54,-305.2 744.54,-305.2 750.54,-311.2 750.54,-317.2 750.54,-317.2 750.54,-329.2 750.54,-329.2 750.54,-335.2 744.54,-341.2 738.54,-341.2"/>
<text xml:space="preserve" text-anchor="middle" x="578" y="-320.2" font-family="Helvetica,sans-Serif" font-size="10.00">dudleyEntropyUpper_le_estimationErrorUpper_of_entropyIntegral_le_Msq</text>
</a>
</g>
</g>
<!-- n17&#45;&gt;n0 -->
<g id="edge41" class="edge">
<title>n17&#45;&gt;n0</title>
<path fill="none" stroke="#64748b" d="M648.57,-304.76C667.76,-296.84 686.86,-285.45 700,-269.2 731.13,-230.7 704.33,-206.25 722,-160 736.72,-121.48 737.01,-106.02 769,-80 791.1,-62.02 820.73,-51.08 846.42,-44.5"/>
<polygon fill="#64748b" stroke="#64748b" points="846.91,-46.9 853.14,-42.87 845.76,-42.14 846.91,-46.9"/>
</g>
<!-- n17&#45;&gt;n5 -->
<g id="edge43" class="edge">
<title>n17&#45;&gt;n5</title>
<path fill="none" stroke="#64748b" d="M674.11,-304.83C696.31,-297 718.29,-285.65 735,-269.2 752.43,-252.04 760.39,-224.78 764.02,-204.72"/>
<polygon fill="#64748b" stroke="#64748b" points="766.43,-205.14 765.12,-197.84 761.59,-204.37 766.43,-205.14"/>
</g>
<!-- n17&#45;&gt;n10 -->
<g id="edge42" class="edge">
<title>n17&#45;&gt;n10</title>
<path fill="none" stroke="#64748b" d="M576.38,-305.03C575.48,-294.67 574.45,-281.19 574,-269.2 573.18,-247.4 574.14,-222.64 575.18,-204.58"/>
<polygon fill="#64748b" stroke="#64748b" points="577.62,-204.94 575.6,-197.8 572.73,-204.64 577.62,-204.94"/>
</g>
<!-- n17&#45;&gt;n11 -->
<g id="edge44" class="edge">
<title>n17&#45;&gt;n11</title>
<path fill="none" stroke="#64748b" d="M592.58,-304.9C600.01,-296.08 609.16,-285.23 617.21,-275.67"/>
<polygon fill="#64748b" stroke="#64748b" points="618.97,-277.39 621.61,-270.46 615.22,-274.24 618.97,-277.39"/>
</g>
<!-- n17&#45;&gt;n13 -->
<g id="edge45" class="edge">
<title>n17&#45;&gt;n13</title>
<path fill="none" stroke="#64748b" d="M725.86,-304.72C848.07,-290.27 1015.69,-270.45 1106.04,-259.76"/>
<polygon fill="#64748b" stroke="#64748b" points="1106.11,-262.22 1112.77,-258.97 1105.53,-257.36 1106.11,-262.22"/>
</g>
<!-- n18 -->
<g id="node19" class="node">
<title>n18</title>
<g id="a_node19"><a xlink:href="vscode://vscode-remote/wsl+Ubuntu/home/gavin/statlib/Statlib/Regression/LocalGaussianComplexityProxyAssumptions_ofEntropy.lean:13" xlink:title="lemma · Statlib/Regression/LocalGaussianComplexityProxyAssumptions_ofEntropy.lean:13" target="_blank">
<path fill="#eef2f6" stroke="#94a3b8" d="M528,-413.2C528,-413.2 292,-413.2 292,-413.2 286,-413.2 280,-407.2 280,-401.2 280,-401.2 280,-389.2 280,-389.2 280,-383.2 286,-377.2 292,-377.2 292,-377.2 528,-377.2 528,-377.2 534,-377.2 540,-383.2 540,-389.2 540,-389.2 540,-401.2 540,-401.2 540,-407.2 534,-413.2 528,-413.2"/>
<text xml:space="preserve" text-anchor="middle" x="410" y="-392.2" font-family="Helvetica,sans-Serif" font-size="10.00">LocalGaussianComplexityProxyAssumptions.ofEntropy</text>
</a>
</g>
</g>
<!-- n18&#45;&gt;n0 -->
<g id="edge46" class="edge">
<title>n18&#45;&gt;n0</title>
<path fill="none" stroke="#64748b" d="M279.76,-383.79C218.79,-376.09 155.17,-363.02 135,-341.2 107.98,-311.97 125,-292 125,-252.2 125,-252.2 125,-252.2 125,-177 125,-139.8 43.66,-154.92 251,-80 359.93,-40.64 710.15,-35.45 846.73,-34.95"/>
<polygon fill="#64748b" stroke="#64748b" points="846.51,-37.4 853.51,-34.93 846.5,-32.5 846.51,-37.4"/>
</g>
<!-- n18&#45;&gt;n12 -->
<g id="edge47" class="edge">
<title>n18&#45;&gt;n12</title>
<path fill="none" stroke="#64748b" d="M376.53,-376.72C358.33,-367.21 335.67,-355.37 316.48,-345.35"/>
<polygon fill="#64748b" stroke="#64748b" points="317.72,-343.23 310.38,-342.16 315.45,-347.57 317.72,-343.23"/>
</g>
<!-- n18&#45;&gt;n16 -->
<g id="edge48" class="edge">
<title>n18&#45;&gt;n16</title>
<path fill="none" stroke="#64748b" d="M540.21,-378.16C543.16,-377.83 546.1,-377.51 549,-377.2 722.52,-358.61 766.26,-357.59 940,-341.2 959.47,-339.36 980.16,-337.39 1000.24,-335.46"/>
<polygon fill="#64748b" stroke="#64748b" points="1000.27,-337.91 1007,-334.81 999.8,-333.04 1000.27,-337.91"/>
</g>
<!-- n18&#45;&gt;n17 -->
<g id="edge49" class="edge">
<title>n18&#45;&gt;n17</title>
<path fill="none" stroke="#64748b" d="M451.96,-376.72C475.2,-367.03 504.22,-354.94 528.56,-344.8"/>
<polygon fill="#64748b" stroke="#64748b" points="529.37,-347.12 534.89,-342.16 527.48,-342.59 529.37,-347.12"/>
</g>
<!-- n19 -->
<g id="node20" class="node">
<title>n19</title>
<g id="a_node20"><a xlink:href="vscode://vscode-remote/wsl+Ubuntu/home/gavin/statlib/Statlib/Regression/local_gaussian_complexity_to_proxy_structured.lean:13" xlink:title="theorem · Statlib/Regression/local_gaussian_complexity_to_proxy_structured.lean:13" target="_blank">
<path fill="#ffe6a3" stroke="#d4a017" d="M1235.45,-413.2C1235.45,-413.2 1030.55,-413.2 1030.55,-413.2 1024.55,-413.2 1018.55,-407.2 1018.55,-401.2 1018.55,-401.2 1018.55,-389.2 1018.55,-389.2 1018.55,-383.2 1024.55,-377.2 1030.55,-377.2 1030.55,-377.2 1235.45,-377.2 1235.45,-377.2 1241.45,-377.2 1247.45,-383.2 1247.45,-389.2 1247.45,-389.2 1247.45,-401.2 1247.45,-401.2 1247.45,-407.2 1241.45,-413.2 1235.45,-413.2"/>
<text xml:space="preserve" text-anchor="middle" x="1133" y="-392.2" font-family="Helvetica,sans-Serif" font-size="10.00">local_gaussian_complexity_to_proxy_structured</text>
</a>
</g>
</g>
<!-- n19&#45;&gt;n0 -->
<g id="edge50" class="edge">
<title>n19&#45;&gt;n0</title>
<path fill="none" stroke="#64748b" d="M1227.97,-376.81C1246.45,-368.97 1263.6,-357.63 1275,-341.2 1284.12,-328.06 1279.01,-320.69 1275,-305.2 1274.98,-305.13 1235.04,-233.26 1235,-233.2 1176.13,-155.89 1163.68,-127.66 1079,-80 1041.37,-58.82 993.68,-47.44 957.28,-41.42"/>
<polygon fill="#64748b" stroke="#64748b" points="958.02,-39.06 950.72,-40.39 957.26,-43.9 958.02,-39.06"/>
</g>
<!-- n19&#45;&gt;n9 -->
<g id="edge52" class="edge">
<title>n19&#45;&gt;n9</title>
<path fill="none" stroke="#64748b" d="M1239.24,-376.73C1277.94,-368.06 1315.15,-356.2 1327,-341.2 1340.95,-323.56 1340.01,-297.23 1336.6,-277.78"/>
<polygon fill="#64748b" stroke="#64748b" points="1339.05,-277.51 1335.27,-271.13 1334.25,-278.48 1339.05,-277.51"/>
</g>
<!-- n19&#45;&gt;n13 -->
<g id="edge53" class="edge">
<title>n19&#45;&gt;n13</title>
<path fill="none" stroke="#64748b" d="M1220.31,-376.81C1238.66,-368.99 1255.82,-357.65 1267,-341.2 1276,-327.97 1275.16,-318.96 1267,-305.2 1258.91,-291.57 1245.95,-281.21 1232.09,-273.44"/>
<polygon fill="#64748b" stroke="#64748b" points="1233.46,-271.4 1226.13,-270.31 1231.19,-275.73 1233.46,-271.4"/>
</g>
<!-- n19&#45;&gt;n16 -->
<g id="edge51" class="edge">
<title>n19&#45;&gt;n16</title>
<path fill="none" stroke="#64748b" d="M1128.8,-376.9C1126.78,-368.59 1124.32,-358.48 1122.11,-349.34"/>
<polygon fill="#64748b" stroke="#64748b" points="1124.54,-349 1120.51,-342.78 1119.78,-350.16 1124.54,-349"/>
</g>
<!-- n20 -->
<g id="node21" class="node">
<title>n20</title>
<g id="a_node21"><a xlink:href="vscode://vscode-remote/wsl+Ubuntu/home/gavin/statlib/Statlib/Regression/satisfiesCriticalInequality_of_proxy_bound.lean:13" xlink:title="lemma · Statlib/Regression/satisfiesCriticalInequality_of_proxy_bound.lean:13" target="_blank">
<path fill="#eef2f6" stroke="#94a3b8" d="M1475.39,-413.2C1475.39,-413.2 1296.61,-413.2 1296.61,-413.2 1290.61,-413.2 1284.61,-407.2 1284.61,-401.2 1284.61,-401.2 1284.61,-389.2 1284.61,-389.2 1284.61,-383.2 1290.61,-377.2 1296.61,-377.2 1296.61,-377.2 1475.39,-377.2 1475.39,-377.2 1481.39,-377.2 1487.39,-383.2 1487.39,-389.2 1487.39,-389.2 1487.39,-401.2 1487.39,-401.2 1487.39,-407.2 1481.39,-413.2 1475.39,-413.2"/>
<text xml:space="preserve" text-anchor="middle" x="1386" y="-392.2" font-family="Helvetica,sans-Serif" font-size="10.00">satisfiesCriticalInequality_of_proxy_bound</text>
</a>
</g>
</g>
<!-- n20&#45;&gt;n0 -->
<g id="edge54" class="edge">
<title>n20&#45;&gt;n0</title>
<path fill="none" stroke="#64748b" d="M1393.01,-377.14C1404.29,-347.07 1423.43,-283.1 1405,-233.2 1373.97,-149.16 1352.97,-122.31 1274,-80 1220.53,-51.35 1047.56,-40.56 957.57,-36.82"/>
<polygon fill="#64748b" stroke="#64748b" points="957.73,-34.37 950.63,-36.54 957.53,-39.27 957.73,-34.37"/>
</g>
<!-- n20&#45;&gt;n9 -->
<g id="edge55" class="edge">
<title>n20&#45;&gt;n9</title>
<path fill="none" stroke="#64748b" d="M1384.36,-376.85C1382.16,-358.44 1377.26,-328.82 1367,-305.2 1362.55,-294.97 1355.98,-284.69 1349.6,-275.94"/>
<polygon fill="#64748b" stroke="#64748b" points="1351.66,-274.6 1345.49,-270.5 1347.75,-277.56 1351.66,-274.6"/>
</g>
<!-- n20&#45;&gt;n13 -->
<g id="edge56" class="edge">
<title>n20&#45;&gt;n13</title>
<path fill="none" stroke="#64748b" d="M1366.89,-376.82C1345.48,-357.85 1309.28,-327.25 1275,-305.2 1256.5,-293.3 1234.99,-282.03 1216.26,-272.97"/>
<polygon fill="#64748b" stroke="#64748b" points="1217.7,-270.95 1210.33,-270.14 1215.59,-275.37 1217.7,-270.95"/>
</g>
<!-- n20&#45;&gt;n14 -->
<g id="edge57" class="edge">
<title>n20&#45;&gt;n14</title>
<path fill="none" stroke="#64748b" d="M1410.48,-376.72C1423.44,-367.46 1439.48,-356 1453.27,-346.15"/>
<polygon fill="#64748b" stroke="#64748b" points="1454.33,-348.4 1458.6,-342.34 1451.48,-344.42 1454.33,-348.4"/>
</g>
<!-- n21 -->
<g id="node22" class="node">
<title>n21</title>
<g id="a_node22"><a xlink:href="vscode://vscode-remote/wsl+Ubuntu/home/gavin/statlib/Statlib/Regression/satisfiesCriticalInequality_of_localGaussianComplexityProxyAssumptions.lean:17" xlink:title="lemma · Statlib/Regression/satisfiesCriticalInequality_of_localGaussianComplexityProxyAssumptions.lean:17" target="_blank">
<path fill="#eef2f6" stroke="#94a3b8" d="M1376.01,-485.2C1376.01,-485.2 1059.99,-485.2 1059.99,-485.2 1053.99,-485.2 1047.99,-479.2 1047.99,-473.2 1047.99,-473.2 1047.99,-461.2 1047.99,-461.2 1047.99,-455.2 1053.99,-449.2 1059.99,-449.2 1059.99,-449.2 1376.01,-449.2 1376.01,-449.2 1382.01,-449.2 1388.01,-455.2 1388.01,-461.2 1388.01,-461.2 1388.01,-473.2 1388.01,-473.2 1388.01,-479.2 1382.01,-485.2 1376.01,-485.2"/>
<text xml:space="preserve" text-anchor="middle" x="1218" y="-464.2" font-family="Helvetica,sans-Serif" font-size="10.00">satisfiesCriticalInequality_of_localGaussianComplexityProxyAssumptions</text>
</a>
</g>
</g>
<!-- n21&#45;&gt;n0 -->
<g id="edge58" class="edge">
<title>n21&#45;&gt;n0</title>
<path fill="none" stroke="#64748b" d="M1388.19,-449.55C1444.19,-441.3 1497.8,-429.51 1520,-413.2 1555.88,-386.83 1566,-368.73 1566,-324.2 1566,-324.2 1566,-324.2 1566,-177 1566,-107.03 1507.15,-105.53 1442,-80 1354.86,-45.85 1076.96,-37.6 957.48,-35.62"/>
<polygon fill="#64748b" stroke="#64748b" points="957.7,-33.17 950.66,-35.51 957.62,-38.07 957.7,-33.17"/>
</g>
<!-- n21&#45;&gt;n9 -->
<g id="edge62" class="edge">
<title>n21&#45;&gt;n9</title>
<path fill="none" stroke="#64748b" d="M1231.18,-448.88C1238.75,-438.69 1248.25,-425.44 1256,-413.2 1265.79,-397.74 1263.18,-390.26 1276,-377.2 1298.32,-354.46 1322.1,-368.81 1338,-341.2 1349.13,-321.88 1345.24,-296.2 1339.69,-277.39"/>
<polygon fill="#64748b" stroke="#64748b" points="1342.1,-276.89 1337.62,-270.97 1337.43,-278.39 1342.1,-276.89"/>
</g>
<!-- n21&#45;&gt;n13 -->
<g id="edge60" class="edge">
<title>n21&#45;&gt;n13</title>
<path fill="none" stroke="#64748b" d="M1098.8,-448.76C1059.15,-440.34 1022.01,-428.65 1010,-413.2 1000.18,-400.57 999.57,-389.33 1010,-377.2 1079.45,-296.4 1177.55,-422 1247,-341.2 1257.43,-329.07 1254.44,-319.36 1247,-305.2 1240.25,-292.35 1228.81,-282.01 1216.79,-273.99"/>
<polygon fill="#64748b" stroke="#64748b" points="1218.19,-271.98 1210.96,-270.35 1215.59,-276.14 1218.19,-271.98"/>
</g>
<!-- n21&#45;&gt;n14 -->
<g id="edge61" class="edge">
<title>n21&#45;&gt;n14</title>
<path fill="none" stroke="#64748b" d="M1388.19,-453.99C1442.92,-446.26 1493.89,-433.68 1511,-413.2 1526.33,-394.85 1514.89,-367.95 1502.52,-348.53"/>
<polygon fill="#64748b" stroke="#64748b" points="1504.57,-347.19 1498.63,-342.74 1500.5,-349.92 1504.57,-347.19"/>
</g>
<!-- n21&#45;&gt;n16 -->
<g id="edge59" class="edge">
<title>n21&#45;&gt;n16</title>
<path fill="none" stroke="#64748b" d="M1085.14,-448.72C1044.61,-440.49 1007.43,-428.93 995,-413.2 985.08,-400.65 986.25,-390.59 995,-377.2 1004.22,-363.1 1018.12,-352.72 1033.24,-345.1"/>
<polygon fill="#64748b" stroke="#64748b" points="1034.09,-347.41 1039.38,-342.22 1032.01,-342.97 1034.09,-347.41"/>
</g>
<!-- n21&#45;&gt;n19 -->
<g id="edge63" class="edge">
<title>n21&#45;&gt;n19</title>
<path fill="none" stroke="#64748b" d="M1196.99,-448.9C1185.95,-439.81 1172.3,-428.56 1160.44,-418.8"/>
<polygon fill="#64748b" stroke="#64748b" points="1162.19,-417.07 1155.23,-414.51 1159.08,-420.85 1162.19,-417.07"/>
</g>
<!-- n21&#45;&gt;n20 -->
<g id="edge64" class="edge">
<title>n21&#45;&gt;n20</title>
<path fill="none" stroke="#64748b" d="M1259.96,-448.72C1283.2,-439.03 1312.22,-426.94 1336.56,-416.8"/>
<polygon fill="#64748b" stroke="#64748b" points="1337.37,-419.12 1342.89,-414.16 1335.48,-414.59 1337.37,-419.12"/>
</g>
<!-- n22 -->
<g id="node23" class="node">
<title>n22</title>
<g id="a_node23"><a xlink:href="vscode://vscode-remote/wsl+Ubuntu/home/gavin/statlib/Statlib/Regression/LocalizedDeterministicAssumptions_ofProcessAndCI.lean:15" xlink:title="lemma · Statlib/Regression/LocalizedDeterministicAssumptions_ofProcessAndCI.lean:15" target="_blank">
<path fill="#eef2f6" stroke="#94a3b8" d="M889.16,-485.2C889.16,-485.2 664.84,-485.2 664.84,-485.2 658.84,-485.2 652.84,-479.2 652.84,-473.2 652.84,-473.2 652.84,-461.2 652.84,-461.2 652.84,-455.2 658.84,-449.2 664.84,-449.2 664.84,-449.2 889.16,-449.2 889.16,-449.2 895.16,-449.2 901.16,-455.2 901.16,-461.2 901.16,-461.2 901.16,-473.2 901.16,-473.2 901.16,-479.2 895.16,-485.2 889.16,-485.2"/>
<text xml:space="preserve" text-anchor="middle" x="777" y="-464.2" font-family="Helvetica,sans-Serif" font-size="10.00">LocalizedDeterministicAssumptions.ofProcessAndCI</text>
</a>
</g>
</g>
<!-- n22&#45;&gt;n0 -->
<g id="edge65" class="edge">
<title>n22&#45;&gt;n0</title>
<path fill="none" stroke="#64748b" d="M840.95,-448.71C864.17,-440.38 889.67,-428.76 910,-413.2 973.45,-364.64 990,-332.1 990,-252.2 990,-252.2 990,-252.2 990,-177 990,-130.86 979.29,-117.92 953,-80 947.38,-71.89 939.99,-64.27 932.59,-57.7"/>
<polygon fill="#64748b" stroke="#64748b" points="934.47,-56.09 927.56,-53.42 931.3,-59.82 934.47,-56.09"/>
</g>
<!-- n22&#45;&gt;n2 -->
<g id="edge68" class="edge">
<title>n22&#45;&gt;n2</title>
<path fill="none" stroke="#64748b" d="M652.59,-464.01C548.94,-459.62 398.24,-447.26 271,-413.2 211.9,-397.38 148.04,-366.26 108.78,-345.34"/>
<polygon fill="#64748b" stroke="#64748b" points="110.4,-343.43 103.08,-342.28 108.08,-347.75 110.4,-343.43"/>
</g>
<!-- n22&#45;&gt;n8 -->
<g id="edge66" class="edge">
<title>n22&#45;&gt;n8</title>
<path fill="none" stroke="#64748b" d="M741.28,-448.72C721.69,-439.12 697.25,-427.16 676.66,-417.08"/>
<polygon fill="#64748b" stroke="#64748b" points="677.98,-415 670.62,-414.13 675.83,-419.4 677.98,-415"/>
</g>
<!-- n22&#45;&gt;n14 -->
<g id="edge67" class="edge">
<title>n22&#45;&gt;n14</title>
<path fill="none" stroke="#64748b" d="M901.59,-458.08C1106.09,-444.61 1491,-418.58 1496,-413.2 1511.76,-396.23 1505.19,-368.99 1496.9,-349.11"/>
<polygon fill="#64748b" stroke="#64748b" points="1499.15,-348.13 1494.05,-342.74 1494.67,-350.13 1499.15,-348.13"/>
</g>
<!-- n22&#45;&gt;n15 -->
<g id="edge69" class="edge">
<title>n22&#45;&gt;n15</title>
<path fill="none" stroke="#64748b" d="M786.15,-448.9C790.63,-440.42 796.1,-430.06 801.01,-420.78"/>
<polygon fill="#64748b" stroke="#64748b" points="803.15,-421.98 804.25,-414.64 798.81,-419.69 803.15,-421.98"/>
</g>
<!-- n23 -->
<g id="node24" class="node">
<title>n23</title>
<g id="a_node24"><a xlink:href="vscode://vscode-remote/wsl+Ubuntu/home/gavin/statlib/Statlib/Regression/LocalizedDeterministicAssumptions_ofProcessAndEntropy.lean:21" xlink:title="lemma · Statlib/Regression/LocalizedDeterministicAssumptions_ofProcessAndEntropy.lean:21" target="_blank">
<path fill="#eef2f6" stroke="#94a3b8" stroke-width="3" d="M901.39,-557.2C901.39,-557.2 652.61,-557.2 652.61,-557.2 646.61,-557.2 640.61,-551.2 640.61,-545.2 640.61,-545.2 640.61,-533.2 640.61,-533.2 640.61,-527.2 646.61,-521.2 652.61,-521.2 652.61,-521.2 901.39,-521.2 901.39,-521.2 907.39,-521.2 913.39,-527.2 913.39,-533.2 913.39,-533.2 913.39,-545.2 913.39,-545.2 913.39,-551.2 907.39,-557.2 901.39,-557.2"/>
<text xml:space="preserve" text-anchor="middle" x="777" y="-536.2" font-family="Helvetica,sans-Serif" font-size="10.00">LocalizedDeterministicAssumptions.ofProcessAndEntropy</text>
</a>
</g>
</g>
<!-- n23&#45;&gt;n0 -->
<g id="edge70" class="edge">
<title>n23&#45;&gt;n0</title>
<path fill="none" stroke="#64748b" d="M639.14,-536.59C526.46,-532.52 363.84,-520.28 226,-485.2 128.16,-460.3 17,-497.16 17,-396.2 17,-396.2 17,-396.2 17,-177 17,-124.6 38.29,-105.61 84,-80 150.08,-42.98 672.62,-36.41 846.18,-35.25"/>
<polygon fill="#64748b" stroke="#64748b" points="846.17,-37.7 853.15,-35.2 846.14,-32.8 846.17,-37.7"/>
</g>
<!-- n23&#45;&gt;n2 -->
<g id="edge73" class="edge">
<title>n23&#45;&gt;n2</title>
<path fill="none" stroke="#64748b" d="M639.19,-533.71C548.22,-527.93 427.23,-514.82 324,-485.2 252.15,-464.58 234.43,-454.31 172,-413.2 142.76,-393.95 113.16,-366.75 93.63,-347.5"/>
<polygon fill="#64748b" stroke="#64748b" points="95.42,-345.83 88.73,-342.62 91.96,-349.3 95.42,-345.83"/>
</g>
<!-- n23&#45;&gt;n8 -->
<g id="edge71" class="edge">
<title>n23&#45;&gt;n8</title>
<path fill="none" stroke="#64748b" d="M691.61,-519.76C673.35,-511.97 655.99,-500.91 644,-485.2 630.34,-467.3 628.94,-441.17 630.29,-421.85"/>
<polygon fill="#64748b" stroke="#64748b" points="632.72,-422.21 630.93,-415.01 627.84,-421.75 632.72,-422.21"/>
</g>
<!-- n23&#45;&gt;n12 -->
<g id="edge72" class="edge">
<title>n23&#45;&gt;n12</title>
<path fill="none" stroke="#64748b" d="M639.16,-523.43C505.08,-505.85 315.3,-471.31 271,-413.2 257.35,-395.3 260.83,-369 266.38,-349.63"/>
<polygon fill="#64748b" stroke="#64748b" points="268.7,-350.4 268.47,-342.98 264.03,-348.92 268.7,-350.4"/>
</g>
<!-- n23&#45;&gt;n13 -->
<g id="edge74" class="edge">
<title>n23&#45;&gt;n13</title>
<path fill="none" stroke="#64748b" d="M869.43,-519.81C892.9,-511.97 916.86,-500.86 936,-485.2 946.71,-476.44 986.59,-385.03 998,-377.2 1084.78,-317.69 1163.49,-421.06 1232,-341.2 1250.27,-319.91 1226.27,-293.25 1203.02,-274.69"/>
<polygon fill="#64748b" stroke="#64748b" points="1204.75,-272.93 1197.71,-270.6 1201.76,-276.82 1204.75,-272.93"/>
</g>
<!-- n23&#45;&gt;n14 -->
<g id="edge78" class="edge">
<title>n23&#45;&gt;n14</title>
<path fill="none" stroke="#64748b" d="M914.72,-533.5C1069.45,-526.97 1310.32,-512.72 1397,-485.2 1457.37,-466.03 1488.49,-468.15 1520,-413.2 1532.04,-392.21 1518.84,-366.4 1505.17,-348"/>
<polygon fill="#64748b" stroke="#64748b" points="1507.32,-346.77 1501.08,-342.76 1503.46,-349.79 1507.32,-346.77"/>
</g>
<!-- n23&#45;&gt;n15 -->
<g id="edge75" class="edge">
<title>n23&#45;&gt;n15</title>
<path fill="none" stroke="#64748b" d="M865.73,-519.78C883.16,-512 899.33,-500.94 910,-485.2 918.98,-471.96 918.13,-462.98 910,-449.2 901.97,-435.59 889.05,-425.23 875.25,-417.45"/>
<polygon fill="#64748b" stroke="#64748b" points="876.65,-415.42 869.32,-414.32 874.37,-419.75 876.65,-415.42"/>
</g>
<!-- n23&#45;&gt;n16 -->
<g id="edge76" class="edge">
<title>n23&#45;&gt;n16</title>
<path fill="none" stroke="#64748b" d="M853.26,-519.82C875.78,-511.81 899.36,-500.61 918,-485.2 961.35,-449.35 941.05,-413.53 984,-377.2 1000.56,-363.19 1021.3,-352.56 1041.4,-344.63"/>
<polygon fill="#64748b" stroke="#64748b" points="1042.26,-346.92 1047.94,-342.15 1040.53,-342.34 1042.26,-346.92"/>
</g>
<!-- n23&#45;&gt;n18 -->
<g id="edge77" class="edge">
<title>n23&#45;&gt;n18</title>
<path fill="none" stroke="#64748b" d="M722.61,-519.71C694.03,-509.81 658.48,-497.21 627,-485.2 568.5,-462.88 501.99,-435.27 458.19,-416.77"/>
<polygon fill="#64748b" stroke="#64748b" points="459.35,-414.6 451.95,-414.13 457.44,-419.11 459.35,-414.6"/>
</g>
<!-- n23&#45;&gt;n21 -->
<g id="edge79" class="edge">
<title>n23&#45;&gt;n21</title>
<path fill="none" stroke="#64748b" d="M893.44,-519.72C957.19,-509.6 1036,-497.09 1099.99,-486.93"/>
<polygon fill="#64748b" stroke="#64748b" points="1100.1,-489.4 1106.63,-485.88 1099.33,-484.56 1100.1,-489.4"/>
</g>
<!-- n23&#45;&gt;n22 -->
<g id="edge80" class="edge">
<title>n23&#45;&gt;n22</title>
<path fill="none" stroke="#64748b" d="M777,-519.81C777,-511.79 777,-502.25 777,-493.57"/>
<polygon fill="#64748b" stroke="#64748b" points="779.45,-493.78 777,-486.78 774.55,-493.78 779.45,-493.78"/>
</g>
</g>
</svg>
