<?xml version="1.0" encoding="UTF-8" standalone="no"?>
<!DOCTYPE svg PUBLIC "-//W3C//DTD SVG 1.1//EN"
 "http://www.w3.org/Graphics/SVG/1.1/DTD/svg11.dtd">
<!-- Generated by graphviz version 15.0.0 (20260523.1842)
 -->
<!-- Title: LocalizedDeterministicAssumptions.toProcess Pages: 1 -->
<svg width="630pt" height="555pt"
 viewBox="0.00 0.00 630.00 555.00" xmlns="http://www.w3.org/2000/svg" xmlns:xlink="http://www.w3.org/1999/xlink">
<g id="graph0" class="graph" transform="scale(1 1) rotate(0) translate(4 551.2)">
<title>LocalizedDeterministicAssumptions.toProcess</title>
<polygon fill="white" stroke="none" points="-4,4 -4,-551.2 626,-551.2 626,4 -4,4"/>
<text xml:space="preserve" text-anchor="middle" x="311" y="-530.6" font-family="Helvetica,sans-Serif" font-size="14.00">Proof narrative — LocalizedDeterministicAssumptions.toProcess &#160;(13 decls)</text>
<g id="clust1" class="cluster">
<title>cluster_0</title>
<path fill="none" stroke="#cbd5e1" stroke-dasharray="5,2" d="M530,-80C530,-80 602,-80 602,-80 608,-80 614,-86 614,-92 614,-92 614,-213.2 614,-213.2 614,-219.2 608,-225.2 602,-225.2 602,-225.2 530,-225.2 530,-225.2 524,-225.2 518,-219.2 518,-213.2 518,-213.2 518,-92 518,-92 518,-86 524,-80 530,-80"/>
<text xml:space="preserve" text-anchor="middle" x="566" y="-211.3" font-family="Helvetica,sans-Serif" font-size="11.00">Gaussian</text>
</g>
<g id="clust2" class="cluster">
<title>cluster_1</title>
<path fill="none" stroke="#cbd5e1" stroke-dasharray="5,2" d="M20,-8C20,-8 498,-8 498,-8 504,-8 510,-14 510,-20 510,-20 510,-502.4 510,-502.4 510,-508.4 504,-514.4 498,-514.4 498,-514.4 20,-514.4 20,-514.4 14,-514.4 8,-508.4 8,-502.4 8,-502.4 8,-20 8,-20 8,-14 14,-8 20,-8"/>
<text xml:space="preserve" text-anchor="middle" x="259" y="-500.5" font-family="Helvetica,sans-Serif" font-size="11.00">Regression</text>
</g>
<!-- n3 -->
<g id="node1" class="node">
<title>n3</title>
<g id="a_node1"><a xlink:href="vscode://vscode-remote/wsl+Ubuntu/home/gavin/statlib/Statlib/Gaussian/Basic.lean:29" xlink:title="abbrev · Statlib/Gaussian/Basic.lean:29" target="_blank">
<path fill="#d6e9ff" stroke="#3b82f6" d="M589.79,-124C589.79,-124 542.21,-124 542.21,-124 536.21,-124 530.21,-118 530.21,-112 530.21,-112 530.21,-100 530.21,-100 530.21,-94 536.21,-88 542.21,-88 542.21,-88 589.79,-88 589.79,-88 595.79,-88 601.79,-94 601.79,-100 601.79,-100 601.79,-112 601.79,-112 601.79,-118 595.79,-124 589.79,-124"/>
<text xml:space="preserve" text-anchor="middle" x="566" y="-103" font-family="Helvetica,sans-Serif" font-size="10.00">stdGaussian</text>
</a>
</g>
</g>
<!-- n4 -->
<g id="node2" class="node">
<title>n4</title>
<g id="a_node2"><a xlink:href="vscode://vscode-remote/wsl+Ubuntu/home/gavin/statlib/Statlib/Gaussian/Basic.lean:32" xlink:title="def · Statlib/Gaussian/Basic.lean:32" target="_blank">
<path fill="#d6e9ff" stroke="#3b82f6" d="M594.24,-196C594.24,-196 537.76,-196 537.76,-196 531.76,-196 525.76,-190 525.76,-184 525.76,-184 525.76,-172 525.76,-172 525.76,-166 531.76,-160 537.76,-160 537.76,-160 594.24,-160 594.24,-160 600.24,-160 606.24,-166 606.24,-172 606.24,-172 606.24,-184 606.24,-184 606.24,-190 600.24,-196 594.24,-196"/>
<text xml:space="preserve" text-anchor="middle" x="566" y="-175" font-family="Helvetica,sans-Serif" font-size="10.00">stdGaussianPi</text>
</a>
</g>
</g>
<!-- n4&#45;&gt;n3 -->
<g id="edge4" class="edge">
<title>n4&#45;&gt;n3</title>
<path fill="none" stroke="#64748b" d="M566,-159.7C566,-151.47 566,-141.48 566,-132.42"/>
<polygon fill="#64748b" stroke="#64748b" points="568.45,-132.62 566,-125.62 563.55,-132.62 568.45,-132.62"/>
</g>
<!-- n0 -->
<g id="node3" class="node">
<title>n0</title>
<g id="a_node3"><a xlink:href="vscode://vscode-remote/wsl+Ubuntu/home/gavin/statlib/Statlib/Regression/Basic.lean:29" xlink:title="structure · Statlib/Regression/Basic.lean:29" target="_blank">
<path fill="#e8dcff" stroke="#8b5cf6" d="M275.91,-52C275.91,-52 206.09,-52 206.09,-52 200.09,-52 194.09,-46 194.09,-40 194.09,-40 194.09,-28 194.09,-28 194.09,-22 200.09,-16 206.09,-16 206.09,-16 275.91,-16 275.91,-16 281.91,-16 287.91,-22 287.91,-28 287.91,-28 287.91,-40 287.91,-40 287.91,-46 281.91,-52 275.91,-52"/>
<text xml:space="preserve" text-anchor="middle" x="241" y="-31" font-family="Helvetica,sans-Serif" font-size="10.00">RegressionModel</text>
</a>
</g>
</g>
<!-- n1 -->
<g id="node4" class="node">
<title>n1</title>
<g id="a_node4"><a xlink:href="vscode://vscode-remote/wsl+Ubuntu/home/gavin/statlib/Statlib/Regression/empiricalNorm.lean:10" xlink:title="def · Statlib/Regression/empiricalNorm.lean:10" target="_blank">
<path fill="#d6e9ff" stroke="#3b82f6" d="M356.23,-124C356.23,-124 299.77,-124 299.77,-124 293.77,-124 287.77,-118 287.77,-112 287.77,-112 287.77,-100 287.77,-100 287.77,-94 293.77,-88 299.77,-88 299.77,-88 356.23,-88 356.23,-88 362.23,-88 368.23,-94 368.23,-100 368.23,-100 368.23,-112 368.23,-112 368.23,-118 362.23,-124 356.23,-124"/>
<text xml:space="preserve" text-anchor="middle" x="328" y="-103" font-family="Helvetica,sans-Serif" font-size="10.00">empiricalNorm</text>
</a>
</g>
</g>
<!-- n1&#45;&gt;n0 -->
<g id="edge1" class="edge">
<title>n1&#45;&gt;n0</title>
<path fill="none" stroke="#64748b" d="M306.49,-87.7C295.2,-78.61 281.22,-67.36 269.09,-57.6"/>
<polygon fill="#64748b" stroke="#64748b" points="270.73,-55.78 263.74,-53.3 267.66,-59.59 270.73,-55.78"/>
</g>
<!-- n2 -->
<g id="node5" class="node">
<title>n2</title>
<g id="a_node5"><a xlink:href="vscode://vscode-remote/wsl+Ubuntu/home/gavin/statlib/Statlib/Regression/localizedBall.lean:11" xlink:title="def · Statlib/Regression/localizedBall.lean:11" target="_blank">
<path fill="#d6e9ff" stroke="#3b82f6" d="M469.79,-196C469.79,-196 422.21,-196 422.21,-196 416.21,-196 410.21,-190 410.21,-184 410.21,-184 410.21,-172 410.21,-172 410.21,-166 416.21,-160 422.21,-160 422.21,-160 469.79,-160 469.79,-160 475.79,-160 481.79,-166 481.79,-172 481.79,-172 481.79,-184 481.79,-184 481.79,-190 475.79,-196 469.79,-196"/>
<text xml:space="preserve" text-anchor="middle" x="446" y="-175" font-family="Helvetica,sans-Serif" font-size="10.00">localizedBall</text>
</a>
</g>
</g>
<!-- n2&#45;&gt;n0 -->
<g id="edge2" class="edge">
<title>n2&#45;&gt;n0</title>
<path fill="none" stroke="#64748b" d="M441.62,-159.59C435.24,-137.81 421.31,-100.83 396,-80 368,-56.95 328.69,-45.7 296.66,-40.22"/>
<polygon fill="#64748b" stroke="#64748b" points="297.06,-37.8 289.76,-39.12 296.29,-42.64 297.06,-37.8"/>
</g>
<!-- n2&#45;&gt;n1 -->
<g id="edge3" class="edge">
<title>n2&#45;&gt;n1</title>
<path fill="none" stroke="#64748b" d="M416.53,-159.52C400.64,-150.09 380.9,-138.38 364.1,-128.41"/>
<polygon fill="#64748b" stroke="#64748b" points="365.67,-126.5 358.4,-125.03 363.17,-130.71 365.67,-126.5"/>
</g>
<!-- n5 -->
<g id="node6" class="node">
<title>n5</title>
<g id="a_node6"><a xlink:href="vscode://vscode-remote/wsl+Ubuntu/home/gavin/statlib/Statlib/Regression/LocalGaussianComplexity.lean:11" xlink:title="def · Statlib/Regression/LocalGaussianComplexity.lean:11" target="_blank">
<path fill="#d6e9ff" stroke="#3b82f6" d="M489.81,-269.2C489.81,-269.2 382.19,-269.2 382.19,-269.2 376.19,-269.2 370.19,-263.2 370.19,-257.2 370.19,-257.2 370.19,-245.2 370.19,-245.2 370.19,-239.2 376.19,-233.2 382.19,-233.2 382.19,-233.2 489.81,-233.2 489.81,-233.2 495.81,-233.2 501.81,-239.2 501.81,-245.2 501.81,-245.2 501.81,-257.2 501.81,-257.2 501.81,-263.2 495.81,-269.2 489.81,-269.2"/>
<text xml:space="preserve" text-anchor="middle" x="436" y="-248.2" font-family="Helvetica,sans-Serif" font-size="10.00">LocalGaussianComplexity</text>
</a>
</g>
</g>
<!-- n5&#45;&gt;n4 -->
<g id="edge7" class="edge">
<title>n5&#45;&gt;n4</title>
<path fill="none" stroke="#64748b" d="M498.33,-232.86C503.76,-230.57 509.06,-228.02 514,-225.2 524.8,-219.04 535.33,-210.36 544.06,-202.18"/>
<polygon fill="#64748b" stroke="#64748b" points="545.66,-204.04 548.98,-197.41 542.25,-200.52 545.66,-204.04"/>
</g>
<!-- n5&#45;&gt;n0 -->
<g id="edge5" class="edge">
<title>n5&#45;&gt;n0</title>
<path fill="none" stroke="#64748b" d="M484.46,-232.76C486.96,-230.53 489.18,-228.02 491,-225.2 506.69,-200.84 501.57,-186.98 491,-160 473.34,-114.9 458.61,-104.79 417,-80 380.1,-58.01 332.64,-46.68 296.31,-40.9"/>
<polygon fill="#64748b" stroke="#64748b" points="297.05,-38.53 289.76,-39.9 296.32,-43.38 297.05,-38.53"/>
</g>
<!-- n5&#45;&gt;n2 -->
<g id="edge6" class="edge">
<title>n5&#45;&gt;n2</title>
<path fill="none" stroke="#64748b" d="M438.42,-232.96C439.62,-224.39 441.1,-213.87 442.43,-204.39"/>
<polygon fill="#64748b" stroke="#64748b" points="444.84,-204.85 443.39,-197.58 439.99,-204.17 444.84,-204.85"/>
</g>
<!-- n6 -->
<g id="node7" class="node">
<title>n6</title>
<g id="a_node7"><a xlink:href="vscode://vscode-remote/wsl+Ubuntu/home/gavin/statlib/Statlib/Regression/satisfiesCriticalInequality.lean:11" xlink:title="def · Statlib/Regression/satisfiesCriticalInequality.lean:11" target="_blank">
<path fill="#d6e9ff" stroke="#3b82f6" d="M391.74,-341.2C391.74,-341.2 290.26,-341.2 290.26,-341.2 284.26,-341.2 278.26,-335.2 278.26,-329.2 278.26,-329.2 278.26,-317.2 278.26,-317.2 278.26,-311.2 284.26,-305.2 290.26,-305.2 290.26,-305.2 391.74,-305.2 391.74,-305.2 397.74,-305.2 403.74,-311.2 403.74,-317.2 403.74,-317.2 403.74,-329.2 403.74,-329.2 403.74,-335.2 397.74,-341.2 391.74,-341.2"/>
<text xml:space="preserve" text-anchor="middle" x="341" y="-320.2" font-family="Helvetica,sans-Serif" font-size="10.00">satisfiesCriticalInequality</text>
</a>
</g>
</g>
<!-- n6&#45;&gt;n0 -->
<g id="edge8" class="edge">
<title>n6&#45;&gt;n0</title>
<path fill="none" stroke="#64748b" d="M277.99,-320.35C212.31,-314.59 112.72,-294.18 67,-225.2 21.83,-157.04 129.77,-89.29 195.27,-56.08"/>
<polygon fill="#64748b" stroke="#64748b" points="196.13,-58.4 201.29,-53.08 193.94,-54.01 196.13,-58.4"/>
</g>
<!-- n6&#45;&gt;n5 -->
<g id="edge9" class="edge">
<title>n6&#45;&gt;n5</title>
<path fill="none" stroke="#64748b" d="M364.48,-304.9C376.93,-295.73 392.36,-284.36 405.7,-274.53"/>
<polygon fill="#64748b" stroke="#64748b" points="407.06,-276.57 411.24,-270.44 404.15,-272.62 407.06,-276.57"/>
</g>
<!-- n7 -->
<g id="node8" class="node">
<title>n7</title>
<g id="a_node8"><a xlink:href="vscode://vscode-remote/wsl+Ubuntu/home/gavin/statlib/Statlib/Regression/shiftedClass.lean:10" xlink:title="def · Statlib/Regression/shiftedClass.lean:10" target="_blank">
<path fill="#d6e9ff" stroke="#3b82f6" d="M134.23,-196C134.23,-196 87.77,-196 87.77,-196 81.77,-196 75.77,-190 75.77,-184 75.77,-184 75.77,-172 75.77,-172 75.77,-166 81.77,-160 87.77,-160 87.77,-160 134.23,-160 134.23,-160 140.23,-160 146.23,-166 146.23,-172 146.23,-172 146.23,-184 146.23,-184 146.23,-190 140.23,-196 134.23,-196"/>
<text xml:space="preserve" text-anchor="middle" x="111" y="-175" font-family="Helvetica,sans-Serif" font-size="10.00">shiftedClass</text>
</a>
</g>
</g>
<!-- n7&#45;&gt;n0 -->
<g id="edge10" class="edge">
<title>n7&#45;&gt;n0</title>
<path fill="none" stroke="#64748b" d="M126.94,-159.59C150.26,-134.11 193.73,-86.63 219.75,-58.21"/>
<polygon fill="#64748b" stroke="#64748b" points="221.39,-60.04 224.31,-53.23 217.78,-56.74 221.39,-60.04"/>
</g>
<!-- n8 -->
<g id="node9" class="node">
<title>n8</title>
<g id="a_node9"><a xlink:href="vscode://vscode-remote/wsl+Ubuntu/home/gavin/statlib/Statlib/Regression/IsStarShapedClass.lean:10" xlink:title="def · Statlib/Regression/IsStarShapedClass.lean:10" target="_blank">
<path fill="#d6e9ff" stroke="#3b82f6" d="M253.8,-196C253.8,-196 176.2,-196 176.2,-196 170.2,-196 164.2,-190 164.2,-184 164.2,-184 164.2,-172 164.2,-172 164.2,-166 170.2,-160 176.2,-160 176.2,-160 253.8,-160 253.8,-160 259.8,-160 265.8,-166 265.8,-172 265.8,-172 265.8,-184 265.8,-184 265.8,-190 259.8,-196 253.8,-196"/>
<text xml:space="preserve" text-anchor="middle" x="215" y="-175" font-family="Helvetica,sans-Serif" font-size="10.00">IsStarShapedClass</text>
</a>
</g>
</g>
<!-- n8&#45;&gt;n0 -->
<g id="edge11" class="edge">
<title>n8&#45;&gt;n0</title>
<path fill="none" stroke="#64748b" d="M218.19,-159.59C222.73,-134.76 231.11,-89.01 236.35,-60.4"/>
<polygon fill="#64748b" stroke="#64748b" points="238.74,-60.93 237.59,-53.6 233.92,-60.04 238.74,-60.93"/>
</g>
<!-- n9 -->
<g id="node10" class="node">
<title>n9</title>
<g id="a_node10"><a xlink:href="vscode://vscode-remote/wsl+Ubuntu/home/gavin/statlib/Statlib/Regression/empiricalSphere.lean:11" xlink:title="def · Statlib/Regression/empiricalSphere.lean:11" target="_blank">
<path fill="#d6e9ff" stroke="#3b82f6" d="M360.13,-196C360.13,-196 295.87,-196 295.87,-196 289.87,-196 283.87,-190 283.87,-184 283.87,-184 283.87,-172 283.87,-172 283.87,-166 289.87,-160 295.87,-160 295.87,-160 360.13,-160 360.13,-160 366.13,-160 372.13,-166 372.13,-172 372.13,-172 372.13,-184 372.13,-184 372.13,-190 366.13,-196 360.13,-196"/>
<text xml:space="preserve" text-anchor="middle" x="328" y="-175" font-family="Helvetica,sans-Serif" font-size="10.00">empiricalSphere</text>
</a>
</g>
</g>
<!-- n9&#45;&gt;n0 -->
<g id="edge12" class="edge">
<title>n9&#45;&gt;n0</title>
<path fill="none" stroke="#64748b" d="M309.09,-159.66C299.21,-149.88 287.45,-137.04 279,-124 266.01,-103.95 255.72,-78.71 249.15,-60.23"/>
<polygon fill="#64748b" stroke="#64748b" points="251.49,-59.51 246.89,-53.69 246.86,-61.11 251.49,-59.51"/>
</g>
<!-- n9&#45;&gt;n1 -->
<g id="edge13" class="edge">
<title>n9&#45;&gt;n1</title>
<path fill="none" stroke="#64748b" d="M328,-159.7C328,-151.47 328,-141.48 328,-132.42"/>
<polygon fill="#64748b" stroke="#64748b" points="330.45,-132.62 328,-125.62 325.55,-132.62 330.45,-132.62"/>
</g>
<!-- n10 -->
<g id="node11" class="node">
<title>n10</title>
<g id="a_node11"><a xlink:href="vscode://vscode-remote/wsl+Ubuntu/home/gavin/statlib/Statlib/Regression/LocalizedDeterministicAssumptions.lean:15" xlink:title="structure · Statlib/Regression/LocalizedDeterministicAssumptions.lean:15" target="_blank">
<path fill="#e8dcff" stroke="#8b5cf6" d="M235.64,-413.2C235.64,-413.2 86.36,-413.2 86.36,-413.2 80.36,-413.2 74.36,-407.2 74.36,-401.2 74.36,-401.2 74.36,-389.2 74.36,-389.2 74.36,-383.2 80.36,-377.2 86.36,-377.2 86.36,-377.2 235.64,-377.2 235.64,-377.2 241.64,-377.2 247.64,-383.2 247.64,-389.2 247.64,-389.2 247.64,-401.2 247.64,-401.2 247.64,-407.2 241.64,-413.2 235.64,-413.2"/>
<text xml:space="preserve" text-anchor="middle" x="161" y="-392.2" font-family="Helvetica,sans-Serif" font-size="10.00">LocalizedDeterministicAssumptions</text>
</a>
</g>
</g>
<!-- n10&#45;&gt;n4 -->
<g id="edge20" class="edge">
<title>n10&#45;&gt;n4</title>
<path fill="none" stroke="#64748b" d="M248.11,-385.18C298.01,-377.76 360.86,-364.51 413,-341.2 462.34,-319.14 474.46,-309.03 511,-269.2 529.09,-249.48 544.42,-222.94 554.27,-203.76"/>
<polygon fill="#64748b" stroke="#64748b" points="556.39,-205 557.34,-197.64 552.01,-202.8 556.39,-205"/>
</g>
<!-- n10&#45;&gt;n0 -->
<g id="edge14" class="edge">
<title>n10&#45;&gt;n0</title>
<path fill="none" stroke="#64748b" d="M130.03,-376.75C93.3,-353.5 37,-308.66 37,-252.2 37,-252.2 37,-252.2 37,-177 37,-127.66 52.54,-110.92 91,-80 117.94,-58.34 155.12,-47.1 185.72,-41.26"/>
<polygon fill="#64748b" stroke="#64748b" points="185.81,-43.74 192.27,-40.09 184.94,-38.91 185.81,-43.74"/>
</g>
<!-- n10&#45;&gt;n2 -->
<g id="edge19" class="edge">
<title>n10&#45;&gt;n2</title>
<path fill="none" stroke="#64748b" d="M179.5,-376.74C200.24,-357.71 235.39,-327.05 269,-305.2 299,-285.7 315.16,-293.94 341,-269.2 354.22,-256.54 346.72,-244.65 361,-233.2 370.76,-225.37 376.9,-230.98 388,-225.2 399.99,-218.95 411.9,-210.06 421.78,-201.74"/>
<polygon fill="#64748b" stroke="#64748b" points="423.13,-203.81 426.82,-197.38 419.92,-200.11 423.13,-203.81"/>
</g>
<!-- n10&#45;&gt;n6 -->
<g id="edge15" class="edge">
<title>n10&#45;&gt;n6</title>
<path fill="none" stroke="#64748b" d="M205.96,-376.72C231.07,-366.95 262.49,-354.73 288.71,-344.54"/>
<polygon fill="#64748b" stroke="#64748b" points="289.26,-346.95 294.89,-342.13 287.48,-342.38 289.26,-346.95"/>
</g>
<!-- n10&#45;&gt;n7 -->
<g id="edge16" class="edge">
<title>n10&#45;&gt;n7</title>
<path fill="none" stroke="#64748b" d="M151.36,-377.04C146.06,-366.9 139.81,-353.65 136,-341.2 121.68,-294.38 115.32,-237.33 112.69,-204.88"/>
<polygon fill="#64748b" stroke="#64748b" points="115.13,-204.71 112.15,-197.92 110.24,-205.09 115.13,-204.71"/>
</g>
<!-- n10&#45;&gt;n8 -->
<g id="edge17" class="edge">
<title>n10&#45;&gt;n8</title>
<path fill="none" stroke="#64748b" d="M155.78,-376.83C147.6,-346.28 134.74,-281.59 156,-233.2 161.37,-220.98 171,-210.3 180.95,-201.73"/>
<polygon fill="#64748b" stroke="#64748b" points="182.44,-203.68 186.32,-197.36 179.35,-199.88 182.44,-203.68"/>
</g>
<!-- n10&#45;&gt;n9 -->
<g id="edge18" class="edge">
<title>n10&#45;&gt;n9</title>
<path fill="none" stroke="#64748b" d="M159.36,-376.76C156.25,-339.33 151.44,-253.05 171,-233.2 187.27,-216.69 253.62,-234.16 275,-225.2 287.26,-220.06 298.67,-210.94 307.75,-202.15"/>
<polygon fill="#64748b" stroke="#64748b" points="309.41,-203.95 312.58,-197.25 305.92,-200.52 309.41,-203.95"/>
</g>
<!-- n11 -->
<g id="node12" class="node">
<title>n11</title>
<g id="a_node12"><a xlink:href="vscode://vscode-remote/wsl+Ubuntu/home/gavin/statlib/Statlib/Regression/LocalizedProcessAssumptions.lean:14" xlink:title="structure · Statlib/Regression/LocalizedProcessAssumptions.lean:14" target="_blank">
<path fill="#e8dcff" stroke="#8b5cf6" d="M319.81,-269.2C319.81,-269.2 192.19,-269.2 192.19,-269.2 186.19,-269.2 180.19,-263.2 180.19,-257.2 180.19,-257.2 180.19,-245.2 180.19,-245.2 180.19,-239.2 186.19,-233.2 192.19,-233.2 192.19,-233.2 319.81,-233.2 319.81,-233.2 325.81,-233.2 331.81,-239.2 331.81,-245.2 331.81,-245.2 331.81,-257.2 331.81,-257.2 331.81,-263.2 325.81,-269.2 319.81,-269.2"/>
<text xml:space="preserve" text-anchor="middle" x="256" y="-248.2" font-family="Helvetica,sans-Serif" font-size="10.00">LocalizedProcessAssumptions</text>
</a>
</g>
</g>
<!-- n11&#45;&gt;n4 -->
<g id="edge26" class="edge">
<title>n11&#45;&gt;n4</title>
<path fill="none" stroke="#64748b" d="M332.14,-236.88C341.83,-235.48 351.64,-234.2 361,-233.2 394.85,-229.59 482.5,-238.12 514,-225.2 526.16,-220.21 537.39,-211.11 546.27,-202.29"/>
<polygon fill="#64748b" stroke="#64748b" points="547.9,-204.13 550.98,-197.38 544.37,-200.74 547.9,-204.13"/>
</g>
<!-- n11&#45;&gt;n0 -->
<g id="edge21" class="edge">
<title>n11&#45;&gt;n0</title>
<path fill="none" stroke="#64748b" d="M332.2,-235.44C358,-230.36 380.52,-225.78 381,-225.2 388.66,-215.86 379.63,-83.45 377,-80 358.15,-55.23 325.23,-43.93 296.5,-38.84"/>
<polygon fill="#64748b" stroke="#64748b" points="296.92,-36.43 289.62,-37.75 296.15,-41.27 296.92,-36.43"/>
</g>
<!-- n11&#45;&gt;n2 -->
<g id="edge25" class="edge">
<title>n11&#45;&gt;n2</title>
<path fill="none" stroke="#64748b" d="M332.08,-235.67C336.79,-234.82 341.46,-233.99 346,-233.2 368.17,-229.33 375.76,-235.04 396,-225.2 407.4,-219.66 418.03,-210.65 426.52,-202.06"/>
<polygon fill="#64748b" stroke="#64748b" points="427.98,-204.09 431.01,-197.32 424.42,-200.72 427.98,-204.09"/>
</g>
<!-- n11&#45;&gt;n7 -->
<g id="edge23" class="edge">
<title>n11&#45;&gt;n7</title>
<path fill="none" stroke="#64748b" d="M179.7,-236.32C171.08,-233.31 162.65,-229.65 155,-225.2 145.08,-219.44 135.98,-210.77 128.67,-202.5"/>
<polygon fill="#64748b" stroke="#64748b" points="130.8,-201.23 124.41,-197.46 127.05,-204.39 130.8,-201.23"/>
</g>
<!-- n11&#45;&gt;n8 -->
<g id="edge22" class="edge">
<title>n11&#45;&gt;n8</title>
<path fill="none" stroke="#64748b" d="M246.08,-232.96C240.94,-224.04 234.58,-213 228.96,-203.24"/>
<polygon fill="#64748b" stroke="#64748b" points="231.21,-202.23 225.59,-197.39 226.96,-204.68 231.21,-202.23"/>
</g>
<!-- n11&#45;&gt;n9 -->
<g id="edge24" class="edge">
<title>n11&#45;&gt;n9</title>
<path fill="none" stroke="#64748b" d="M273.43,-232.96C282.82,-223.68 294.54,-212.09 304.7,-202.04"/>
<polygon fill="#64748b" stroke="#64748b" points="306.15,-204.05 309.41,-197.39 302.71,-200.57 306.15,-204.05"/>
</g>
<!-- n12 -->
<g id="node13" class="node">
<title>n12</title>
<g id="a_node13"><a xlink:href="vscode://vscode-remote/wsl+Ubuntu/home/gavin/statlib/Statlib/Regression/LocalizedDeterministicAssumptions_toProcess.lean:12" xlink:title="lemma · Statlib/Regression/LocalizedDeterministicAssumptions_toProcess.lean:12" target="_blank">
<path fill="#eef2f6" stroke="#94a3b8" stroke-width="3" d="M259.26,-485.2C259.26,-485.2 62.74,-485.2 62.74,-485.2 56.74,-485.2 50.74,-479.2 50.74,-473.2 50.74,-473.2 50.74,-461.2 50.74,-461.2 50.74,-455.2 56.74,-449.2 62.74,-449.2 62.74,-449.2 259.26,-449.2 259.26,-449.2 265.26,-449.2 271.26,-455.2 271.26,-461.2 271.26,-461.2 271.26,-473.2 271.26,-473.2 271.26,-479.2 265.26,-485.2 259.26,-485.2"/>
<text xml:space="preserve" text-anchor="middle" x="161" y="-464.2" font-family="Helvetica,sans-Serif" font-size="10.00">LocalizedDeterministicAssumptions.toProcess</text>
</a>
</g>
</g>
<!-- n12&#45;&gt;n0 -->
<g id="edge27" class="edge">
<title>n12&#45;&gt;n0</title>
<path fill="none" stroke="#64748b" d="M115.37,-447.7C98.1,-439.09 79.2,-427.54 65,-413.2 33.38,-381.27 17,-369.14 17,-324.2 17,-324.2 17,-324.2 17,-177 17,-132.13 12.41,-110.84 45,-80 65,-61.08 134.75,-48.39 185.36,-41.44"/>
<polygon fill="#64748b" stroke="#64748b" points="185.51,-43.89 192.12,-40.53 184.86,-39.03 185.51,-43.89"/>
</g>
<!-- n12&#45;&gt;n10 -->
<g id="edge28" class="edge">
<title>n12&#45;&gt;n10</title>
<path fill="none" stroke="#64748b" d="M161,-447.81C161,-439.79 161,-430.25 161,-421.57"/>
<polygon fill="#64748b" stroke="#64748b" points="163.45,-421.78 161,-414.78 158.55,-421.78 163.45,-421.78"/>
</g>
<!-- n12&#45;&gt;n11 -->
<g id="edge29" class="edge">
<title>n12&#45;&gt;n11</title>
<path fill="none" stroke="#64748b" d="M249,-447.7C306.51,-430.55 377.35,-398.68 413,-341.2 421.43,-327.6 422.33,-318.2 413,-305.2 403.6,-292.11 372.38,-280.33 340.22,-271.22"/>
<polygon fill="#64748b" stroke="#64748b" points="340.89,-268.86 333.49,-269.36 339.59,-273.59 340.89,-268.86"/>
</g>
</g>
</svg>
