<?xml version="1.0" encoding="UTF-8" standalone="no"?>
<!DOCTYPE svg PUBLIC "-//W3C//DTD SVG 1.1//EN"
 "http://www.w3.org/Graphics/SVG/1.1/DTD/svg11.dtd">
<!-- Generated by graphviz version 15.0.0 (20260523.1842)
 -->
<!-- Title: lse_sigma_hat_distribution_under_a1 Pages: 1 -->
<svg width="522pt" height="554pt"
 viewBox="0.00 0.00 522.00 554.00" xmlns="http://www.w3.org/2000/svg" xmlns:xlink="http://www.w3.org/1999/xlink">
<g id="graph0" class="graph" transform="scale(1 1) rotate(0) translate(4 550)">
<title>lse_sigma_hat_distribution_under_a1</title>
<polygon fill="white" stroke="none" points="-4,4 -4,-550 518,-550 518,4 -4,4"/>
<text xml:space="preserve" text-anchor="middle" x="257" y="-529.4" font-family="Helvetica,sans-Serif" font-size="14.00">Proof narrative — lse_sigma_hat_distribution_under_a1 &#160;(13 decls)</text>
<g id="clust1" class="cluster">
<title>cluster_0</title>
<path fill="none" stroke="#cbd5e1" stroke-dasharray="5,2" d="M20,-8C20,-8 494,-8 494,-8 500,-8 506,-14 506,-20 506,-20 506,-501.2 506,-501.2 506,-507.2 500,-513.2 494,-513.2 494,-513.2 20,-513.2 20,-513.2 14,-513.2 8,-507.2 8,-501.2 8,-501.2 8,-20 8,-20 8,-14 14,-8 20,-8"/>
<text xml:space="preserve" text-anchor="middle" x="257" y="-499.3" font-family="Helvetica,sans-Serif" font-size="11.00">Regression</text>
</g>
<!-- n0 -->
<g id="node1" class="node">
<title>n0</title>
<g id="a_node1"><a xlink:href="vscode://vscode-remote/wsl+Ubuntu/home/gavin/statlib/Statlib/Regression/Setup.lean:20" xlink:title="structure · Statlib/Regression/Setup.lean:20" target="_blank">
<path fill="#e8dcff" stroke="#8b5cf6" d="M309,-340C309,-340 279,-340 279,-340 273,-340 267,-334 267,-328 267,-328 267,-316 267,-316 267,-310 273,-304 279,-304 279,-304 309,-304 309,-304 315,-304 321,-310 321,-316 321,-316 321,-328 321,-328 321,-334 315,-340 309,-340"/>
<text xml:space="preserve" text-anchor="middle" x="294" y="-319" font-family="Helvetica,sans-Serif" font-size="10.00">Setup</text>
</a>
</g>
</g>
<!-- n1 -->
<g id="node2" class="node">
<title>n1</title>
<g id="a_node2"><a xlink:href="vscode://vscode-remote/wsl+Ubuntu/home/gavin/statlib/Statlib/Regression/NormalLinearModel.lean:82" xlink:title="structure · Statlib/Regression/NormalLinearModel.lean:82" target="_blank">
<path fill="#e8dcff" stroke="#8b5cf6" d="M291,-52C291,-52 261,-52 261,-52 255,-52 249,-46 249,-40 249,-40 249,-28 249,-28 249,-22 255,-16 261,-16 261,-16 291,-16 291,-16 297,-16 303,-22 303,-28 303,-28 303,-40 303,-40 303,-46 297,-52 291,-52"/>
<text xml:space="preserve" text-anchor="middle" x="276" y="-31" font-family="Helvetica,sans-Serif" font-size="10.00">Setup</text>
</a>
</g>
</g>
<!-- n2 -->
<g id="node3" class="node">
<title>n2</title>
<g id="a_node3"><a xlink:href="vscode://vscode-remote/wsl+Ubuntu/home/gavin/statlib/Statlib/Regression/AssumptionA1.lean:19" xlink:title="def · Statlib/Regression/AssumptionA1.lean:19" target="_blank">
<path fill="#d6e9ff" stroke="#3b82f6" d="M217.24,-340C217.24,-340 160.76,-340 160.76,-340 154.76,-340 148.76,-334 148.76,-328 148.76,-328 148.76,-316 148.76,-316 148.76,-310 154.76,-304 160.76,-304 160.76,-304 217.24,-304 217.24,-304 223.24,-304 229.24,-310 229.24,-316 229.24,-316 229.24,-328 229.24,-328 229.24,-334 223.24,-340 217.24,-340"/>
<text xml:space="preserve" text-anchor="middle" x="189" y="-319" font-family="Helvetica,sans-Serif" font-size="10.00">AssumptionA1</text>
</a>
</g>
</g>
<!-- n2&#45;&gt;n1 -->
<g id="edge1" class="edge">
<title>n2&#45;&gt;n1</title>
<path fill="none" stroke="#64748b" d="M194.31,-303.54C209.12,-254.86 250.92,-117.46 268.28,-60.37"/>
<polygon fill="#64748b" stroke="#64748b" points="270.62,-61.09 270.32,-53.68 265.94,-59.66 270.62,-61.09"/>
</g>
<!-- n3 -->
<g id="node4" class="node">
<title>n3</title>
<g id="a_node4"><a xlink:href="vscode://vscode-remote/wsl+Ubuntu/home/gavin/statlib/Statlib/Regression/IsEstimable.lean:21" xlink:title="def · Statlib/Regression/IsEstimable.lean:21" target="_blank">
<path fill="#d6e9ff" stroke="#3b82f6" d="M118.84,-340C118.84,-340 75.16,-340 75.16,-340 69.16,-340 63.16,-334 63.16,-328 63.16,-328 63.16,-316 63.16,-316 63.16,-310 69.16,-304 75.16,-304 75.16,-304 118.84,-304 118.84,-304 124.84,-304 130.84,-310 130.84,-316 130.84,-316 130.84,-328 130.84,-328 130.84,-334 124.84,-340 118.84,-340"/>
<text xml:space="preserve" text-anchor="middle" x="97" y="-319" font-family="Helvetica,sans-Serif" font-size="10.00">IsEstimable</text>
</a>
</g>
</g>
<!-- n4 -->
<g id="node5" class="node">
<title>n4</title>
<g id="a_node5"><a xlink:href="vscode://vscode-remote/wsl+Ubuntu/home/gavin/statlib/Statlib/Regression/lse.lean:17" xlink:title="def · Statlib/Regression/lse.lean:17" target="_blank">
<path fill="#d6e9ff" stroke="#3b82f6" d="M199,-124C199,-124 169,-124 169,-124 163,-124 157,-118 157,-112 157,-112 157,-100 157,-100 157,-94 163,-88 169,-88 169,-88 199,-88 199,-88 205,-88 211,-94 211,-100 211,-100 211,-112 211,-112 211,-118 205,-124 199,-124"/>
<text xml:space="preserve" text-anchor="middle" x="184" y="-103" font-family="Helvetica,sans-Serif" font-size="10.00">lse</text>
</a>
</g>
</g>
<!-- n4&#45;&gt;n1 -->
<g id="edge2" class="edge">
<title>n4&#45;&gt;n1</title>
<path fill="none" stroke="#64748b" d="M206.74,-87.7C218.79,-78.53 233.74,-67.16 246.66,-57.33"/>
<polygon fill="#64748b" stroke="#64748b" points="247.91,-59.45 252,-53.26 244.94,-55.55 247.91,-59.45"/>
</g>
<!-- n5 -->
<g id="node6" class="node">
<title>n5</title>
<g id="a_node6"><a xlink:href="vscode://vscode-remote/wsl+Ubuntu/home/gavin/statlib/Statlib/Regression/residual.lean:17" xlink:title="def · Statlib/Regression/residual.lean:17" target="_blank">
<path fill="#d6e9ff" stroke="#3b82f6" d="M291,-196C291,-196 261,-196 261,-196 255,-196 249,-190 249,-184 249,-184 249,-172 249,-172 249,-166 255,-160 261,-160 261,-160 291,-160 291,-160 297,-160 303,-166 303,-172 303,-172 303,-184 303,-184 303,-190 297,-196 291,-196"/>
<text xml:space="preserve" text-anchor="middle" x="276" y="-175" font-family="Helvetica,sans-Serif" font-size="10.00">residual</text>
</a>
</g>
</g>
<!-- n5&#45;&gt;n1 -->
<g id="edge4" class="edge">
<title>n5&#45;&gt;n1</title>
<path fill="none" stroke="#64748b" d="M276,-159.59C276,-134.76 276,-89.01 276,-60.4"/>
<polygon fill="#64748b" stroke="#64748b" points="278.45,-60.62 276,-53.62 273.55,-60.62 278.45,-60.62"/>
</g>
<!-- n5&#45;&gt;n4 -->
<g id="edge3" class="edge">
<title>n5&#45;&gt;n4</title>
<path fill="none" stroke="#64748b" d="M253.26,-159.7C241.21,-150.53 226.26,-139.16 213.34,-129.33"/>
<polygon fill="#64748b" stroke="#64748b" points="215.06,-127.55 208,-125.26 212.09,-131.45 215.06,-127.55"/>
</g>
<!-- n6 -->
<g id="node7" class="node">
<title>n6</title>
<g id="a_node7"><a xlink:href="vscode://vscode-remote/wsl+Ubuntu/home/gavin/statlib/Statlib/Regression/ssr.lean:17" xlink:title="def · Statlib/Regression/ssr.lean:17" target="_blank">
<path fill="#d6e9ff" stroke="#3b82f6" d="M337,-268C337,-268 307,-268 307,-268 301,-268 295,-262 295,-256 295,-256 295,-244 295,-244 295,-238 301,-232 307,-232 307,-232 337,-232 337,-232 343,-232 349,-238 349,-244 349,-244 349,-256 349,-256 349,-262 343,-268 337,-268"/>
<text xml:space="preserve" text-anchor="middle" x="322" y="-247" font-family="Helvetica,sans-Serif" font-size="10.00">ssr</text>
</a>
</g>
</g>
<!-- n6&#45;&gt;n1 -->
<g id="edge6" class="edge">
<title>n6&#45;&gt;n1</title>
<path fill="none" stroke="#64748b" d="M320.93,-231.81C319.61,-213.78 316.91,-184.71 312,-160 305,-124.78 292.81,-85.08 284.57,-60.06"/>
<polygon fill="#64748b" stroke="#64748b" points="286.96,-59.47 282.42,-53.6 282.31,-61.02 286.96,-59.47"/>
</g>
<!-- n6&#45;&gt;n5 -->
<g id="edge5" class="edge">
<title>n6&#45;&gt;n5</title>
<path fill="none" stroke="#64748b" d="M310.63,-231.7C304.95,-223.05 297.98,-212.45 291.79,-203.03"/>
<polygon fill="#64748b" stroke="#64748b" points="293.96,-201.87 288.07,-197.37 289.87,-204.56 293.96,-201.87"/>
</g>
<!-- n7 -->
<g id="node8" class="node">
<title>n7</title>
<g id="a_node8"><a xlink:href="vscode://vscode-remote/wsl+Ubuntu/home/gavin/statlib/Statlib/Regression/sigmaSqHat.lean:17" xlink:title="def · Statlib/Regression/sigmaSqHat.lean:17" target="_blank">
<path fill="#d6e9ff" stroke="#3b82f6" d="M397.23,-340C397.23,-340 350.77,-340 350.77,-340 344.77,-340 338.77,-334 338.77,-328 338.77,-328 338.77,-316 338.77,-316 338.77,-310 344.77,-304 350.77,-304 350.77,-304 397.23,-304 397.23,-304 403.23,-304 409.23,-310 409.23,-316 409.23,-316 409.23,-328 409.23,-328 409.23,-334 403.23,-340 397.23,-340"/>
<text xml:space="preserve" text-anchor="middle" x="374" y="-319" font-family="Helvetica,sans-Serif" font-size="10.00">sigmaSqHat</text>
</a>
</g>
</g>
<!-- n7&#45;&gt;n1 -->
<g id="edge8" class="edge">
<title>n7&#45;&gt;n1</title>
<path fill="none" stroke="#64748b" d="M371.84,-303.73C369.36,-285.65 364.74,-256.52 358,-232 339.88,-166.09 332.02,-150.34 304,-88 299.78,-78.6 294.63,-68.55 289.91,-59.75"/>
<polygon fill="#64748b" stroke="#64748b" points="292.13,-58.69 286.63,-53.72 287.82,-61.04 292.13,-58.69"/>
</g>
<!-- n7&#45;&gt;n6 -->
<g id="edge7" class="edge">
<title>n7&#45;&gt;n6</title>
<path fill="none" stroke="#64748b" d="M361.15,-303.7C354.66,-294.97 346.69,-284.24 339.64,-274.75"/>
<polygon fill="#64748b" stroke="#64748b" points="341.75,-273.48 335.61,-269.32 337.82,-276.4 341.75,-273.48"/>
</g>
<!-- n8 -->
<g id="node9" class="node">
<title>n8</title>
<g id="a_node9"><a xlink:href="vscode://vscode-remote/wsl+Ubuntu/home/gavin/statlib/Statlib/Regression/chiSquared.lean:15" xlink:title="def · Statlib/Regression/chiSquared.lean:15" target="_blank">
<path fill="#d6e9ff" stroke="#3b82f6" d="M484.3,-340C484.3,-340 441.7,-340 441.7,-340 435.7,-340 429.7,-334 429.7,-328 429.7,-328 429.7,-316 429.7,-316 429.7,-310 435.7,-304 441.7,-304 441.7,-304 484.3,-304 484.3,-304 490.3,-304 496.3,-310 496.3,-316 496.3,-316 496.3,-328 496.3,-328 496.3,-334 490.3,-340 484.3,-340"/>
<text xml:space="preserve" text-anchor="middle" x="463" y="-319" font-family="Helvetica,sans-Serif" font-size="10.00">chiSquared</text>
</a>
</g>
</g>
<!-- n9 -->
<g id="node10" class="node">
<title>n9</title>
<g id="a_node10"><a xlink:href="vscode://vscode-remote/wsl+Ubuntu/home/gavin/statlib/Statlib/Regression/lse_indep_sigmaSqHat.lean:46" xlink:title="axiom · Statlib/Regression/lse_indep_sigmaSqHat.lean:46" target="_blank">
<path fill="#ffd6d6" stroke="#c0392b" d="M282.42,-412C282.42,-412 187.58,-412 187.58,-412 181.58,-412 175.58,-406 175.58,-400 175.58,-400 175.58,-388 175.58,-388 175.58,-382 181.58,-376 187.58,-376 187.58,-376 282.42,-376 282.42,-376 288.42,-376 294.42,-382 294.42,-388 294.42,-388 294.42,-400 294.42,-400 294.42,-406 288.42,-412 282.42,-412"/>
<text xml:space="preserve" text-anchor="middle" x="235" y="-391" font-family="Helvetica,sans-Serif" font-size="10.00">lse_indep_sigmaSqHat</text>
</a>
</g>
</g>
<!-- n9&#45;&gt;n0 -->
<g id="edge9" class="edge">
<title>n9&#45;&gt;n0</title>
<path fill="none" stroke="#64748b" d="M249.58,-375.7C257.01,-366.88 266.16,-356.03 274.21,-346.47"/>
<polygon fill="#64748b" stroke="#64748b" points="275.97,-348.19 278.61,-341.26 272.22,-345.04 275.97,-348.19"/>
</g>
<!-- n9&#45;&gt;n2 -->
<g id="edge10" class="edge">
<title>n9&#45;&gt;n2</title>
<path fill="none" stroke="#64748b" d="M223.63,-375.7C217.95,-367.05 210.98,-356.45 204.79,-347.03"/>
<polygon fill="#64748b" stroke="#64748b" points="206.96,-345.87 201.07,-341.37 202.87,-348.56 206.96,-345.87"/>
</g>
<!-- n9&#45;&gt;n3 -->
<g id="edge11" class="edge">
<title>n9&#45;&gt;n3</title>
<path fill="none" stroke="#64748b" d="M200.53,-375.52C181.7,-365.97 158.25,-354.07 138.43,-344.01"/>
<polygon fill="#64748b" stroke="#64748b" points="139.73,-341.93 132.38,-340.95 137.51,-346.3 139.73,-341.93"/>
</g>
<!-- n9&#45;&gt;n4 -->
<g id="edge12" class="edge">
<title>n9&#45;&gt;n4</title>
<path fill="none" stroke="#64748b" d="M237.3,-375.52C239.28,-357.51 241.32,-328.67 238,-304 229.49,-240.77 206.28,-169.13 193.22,-132.12"/>
<polygon fill="#64748b" stroke="#64748b" points="195.62,-131.53 190.96,-125.76 191,-133.17 195.62,-131.53"/>
</g>
<!-- n9&#45;&gt;n7 -->
<g id="edge13" class="edge">
<title>n9&#45;&gt;n7</title>
<path fill="none" stroke="#64748b" d="M269.72,-375.52C288.68,-365.97 312.31,-354.07 332.27,-344.01"/>
<polygon fill="#64748b" stroke="#64748b" points="333.22,-346.28 338.37,-340.94 331.02,-341.9 333.22,-346.28"/>
</g>
<!-- n10 -->
<g id="node11" class="node">
<title>n10</title>
<g id="a_node11"><a xlink:href="vscode://vscode-remote/wsl+Ubuntu/home/gavin/statlib/Statlib/Regression/lse_distribution.lean:45" xlink:title="axiom · Statlib/Regression/lse_distribution.lean:45" target="_blank">
<path fill="#ffd6d6" stroke="#c0392b" d="M126.35,-412C126.35,-412 67.65,-412 67.65,-412 61.65,-412 55.65,-406 55.65,-400 55.65,-400 55.65,-388 55.65,-388 55.65,-382 61.65,-376 67.65,-376 67.65,-376 126.35,-376 126.35,-376 132.35,-376 138.35,-382 138.35,-388 138.35,-388 138.35,-400 138.35,-400 138.35,-406 132.35,-412 126.35,-412"/>
<text xml:space="preserve" text-anchor="middle" x="97" y="-391" font-family="Helvetica,sans-Serif" font-size="10.00">lse_distribution</text>
</a>
</g>
</g>
<!-- n10&#45;&gt;n0 -->
<g id="edge14" class="edge">
<title>n10&#45;&gt;n0</title>
<path fill="none" stroke="#64748b" d="M138.78,-378.15C174.43,-365.49 225.13,-347.47 258.77,-335.52"/>
<polygon fill="#64748b" stroke="#64748b" points="259.31,-337.93 265.08,-333.27 257.67,-333.31 259.31,-337.93"/>
</g>
<!-- n10&#45;&gt;n2 -->
<g id="edge15" class="edge">
<title>n10&#45;&gt;n2</title>
<path fill="none" stroke="#64748b" d="M119.74,-375.7C131.79,-366.53 146.74,-355.16 159.66,-345.33"/>
<polygon fill="#64748b" stroke="#64748b" points="160.91,-347.45 165,-341.26 157.94,-343.55 160.91,-347.45"/>
</g>
<!-- n10&#45;&gt;n3 -->
<g id="edge16" class="edge">
<title>n10&#45;&gt;n3</title>
<path fill="none" stroke="#64748b" d="M97,-375.7C97,-367.47 97,-357.48 97,-348.42"/>
<polygon fill="#64748b" stroke="#64748b" points="99.45,-348.62 97,-341.62 94.55,-348.62 99.45,-348.62"/>
</g>
<!-- n10&#45;&gt;n4 -->
<g id="edge17" class="edge">
<title>n10&#45;&gt;n4</title>
<path fill="none" stroke="#64748b" d="M77.96,-375.84C68.82,-366.3 58.83,-353.62 54,-340 48.65,-324.92 49.4,-319.32 54,-304 75.13,-233.62 130.45,-165.17 161.69,-130.48"/>
<polygon fill="#64748b" stroke="#64748b" points="163.31,-132.35 166.21,-125.53 159.69,-129.05 163.31,-132.35"/>
</g>
<!-- n11 -->
<g id="node12" class="node">
<title>n11</title>
<g id="a_node12"><a xlink:href="vscode://vscode-remote/wsl+Ubuntu/home/gavin/statlib/Statlib/Regression/sigmaSqHat_chiSquared.lean:43" xlink:title="axiom · Statlib/Regression/sigmaSqHat_chiSquared.lean:43" target="_blank">
<path fill="#ffd6d6" stroke="#c0392b" d="M446.31,-412C446.31,-412 343.69,-412 343.69,-412 337.69,-412 331.69,-406 331.69,-400 331.69,-400 331.69,-388 331.69,-388 331.69,-382 337.69,-376 343.69,-376 343.69,-376 446.31,-376 446.31,-376 452.31,-376 458.31,-382 458.31,-388 458.31,-388 458.31,-400 458.31,-400 458.31,-406 452.31,-412 446.31,-412"/>
<text xml:space="preserve" text-anchor="middle" x="395" y="-391" font-family="Helvetica,sans-Serif" font-size="10.00">sigmaSqHat_chiSquared</text>
</a>
</g>
</g>
<!-- n11&#45;&gt;n0 -->
<g id="edge18" class="edge">
<title>n11&#45;&gt;n0</title>
<path fill="none" stroke="#64748b" d="M369.77,-375.52C356.42,-366.26 339.88,-354.8 325.67,-344.95"/>
<polygon fill="#64748b" stroke="#64748b" points="327.3,-343.1 320.15,-341.12 324.51,-347.12 327.3,-343.1"/>
</g>
<!-- n11&#45;&gt;n2 -->
<g id="edge19" class="edge">
<title>n11&#45;&gt;n2</title>
<path fill="none" stroke="#64748b" d="M343.55,-375.52C311.03,-364.47 269.27,-350.28 237.37,-339.43"/>
<polygon fill="#64748b" stroke="#64748b" points="238.33,-337.17 230.91,-337.24 236.75,-341.81 238.33,-337.17"/>
</g>
<!-- n11&#45;&gt;n7 -->
<g id="edge20" class="edge">
<title>n11&#45;&gt;n7</title>
<path fill="none" stroke="#64748b" d="M389.81,-375.7C387.32,-367.39 384.28,-357.28 381.54,-348.14"/>
<polygon fill="#64748b" stroke="#64748b" points="383.92,-347.55 379.57,-341.55 379.23,-348.96 383.92,-347.55"/>
</g>
<!-- n11&#45;&gt;n8 -->
<g id="edge21" class="edge">
<title>n11&#45;&gt;n8</title>
<path fill="none" stroke="#64748b" d="M411.81,-375.7C420.46,-366.8 431.11,-355.82 440.46,-346.2"/>
<polygon fill="#64748b" stroke="#64748b" points="442.21,-347.92 445.33,-341.19 438.69,-344.5 442.21,-347.92"/>
</g>
<!-- n12 -->
<g id="node13" class="node">
<title>n12</title>
<g id="a_node13"><a xlink:href="vscode://vscode-remote/wsl+Ubuntu/home/gavin/statlib/Statlib/Regression/lse_sigma_hat_distribution_under_a1.lean:31" xlink:title="theorem · Statlib/Regression/lse_sigma_hat_distribution_under_a1.lean:31" target="_blank">
<path fill="#ffe6a3" stroke="#d4a017" stroke-width="3" d="M314.11,-484C314.11,-484 155.89,-484 155.89,-484 149.89,-484 143.89,-478 143.89,-472 143.89,-472 143.89,-460 143.89,-460 143.89,-454 149.89,-448 155.89,-448 155.89,-448 314.11,-448 314.11,-448 320.11,-448 326.11,-454 326.11,-460 326.11,-460 326.11,-472 326.11,-472 326.11,-478 320.11,-484 314.11,-484"/>
<text xml:space="preserve" text-anchor="middle" x="235" y="-463" font-family="Helvetica,sans-Serif" font-size="10.00">lse_sigma_hat_distribution_under_a1</text>
</a>
</g>
</g>
<!-- n12&#45;&gt;n0 -->
<g id="edge22" class="edge">
<title>n12&#45;&gt;n0</title>
<path fill="none" stroke="#64748b" d="M270.15,-446.66C282.94,-438.01 295.97,-426.39 303,-412 312.69,-392.15 308.84,-366.89 303.5,-348.35"/>
<polygon fill="#64748b" stroke="#64748b" points="305.87,-347.74 301.44,-341.8 301.2,-349.21 305.87,-347.74"/>
</g>
<!-- n12&#45;&gt;n2 -->
<g id="edge23" class="edge">
<title>n12&#45;&gt;n2</title>
<path fill="none" stroke="#64748b" d="M199.85,-446.66C187.06,-438.01 174.03,-426.39 167,-412 157.04,-391.6 165,-366.31 174.01,-347.9"/>
<polygon fill="#64748b" stroke="#64748b" points="176.13,-349.15 177.19,-341.82 171.78,-346.89 176.13,-349.15"/>
</g>
<!-- n12&#45;&gt;n3 -->
<g id="edge24" class="edge">
<title>n12&#45;&gt;n3</title>
<path fill="none" stroke="#64748b" d="M142.6,-449.75C101.36,-440.88 59.28,-428.22 47,-412 31.1,-391 50.52,-364.38 69.6,-345.75"/>
<polygon fill="#64748b" stroke="#64748b" points="70.94,-347.86 74.37,-341.28 67.59,-344.28 70.94,-347.86"/>
</g>
<!-- n12&#45;&gt;n4 -->
<g id="edge25" class="edge">
<title>n12&#45;&gt;n4</title>
<path fill="none" stroke="#64748b" d="M142.47,-460.63C105.03,-454.18 64.3,-440.43 37,-412 8.92,-382.76 17,-363.54 17,-323 17,-323 17,-323 17,-249 17,-180.32 99.98,-137.91 148.95,-118.86"/>
<polygon fill="#64748b" stroke="#64748b" points="149.7,-121.2 155.38,-116.43 147.97,-116.61 149.7,-121.2"/>
</g>
<!-- n12&#45;&gt;n7 -->
<g id="edge26" class="edge">
<title>n12&#45;&gt;n7</title>
<path fill="none" stroke="#64748b" d="M327.35,-455.63C384.15,-447.75 449.36,-434.13 467,-412 476.97,-399.49 475.04,-389.83 467,-376 461.11,-365.87 438.45,-352.85 416.97,-342.26"/>
<polygon fill="#64748b" stroke="#64748b" points="418.19,-340.12 410.82,-339.28 416.05,-344.53 418.19,-340.12"/>
</g>
<!-- n12&#45;&gt;n8 -->
<g id="edge27" class="edge">
<title>n12&#45;&gt;n8</title>
<path fill="none" stroke="#64748b" d="M327.61,-456.44C387.02,-448.81 456.39,-435.16 475,-412 489.33,-394.16 483.28,-367.52 475.52,-348.04"/>
<polygon fill="#64748b" stroke="#64748b" points="477.86,-347.29 472.85,-341.82 473.36,-349.22 477.86,-347.29"/>
</g>
<!-- n12&#45;&gt;n9 -->
<g id="edge28" class="edge">
<title>n12&#45;&gt;n9</title>
<path fill="none" stroke="#64748b" d="M235,-446.61C235,-438.59 235,-429.05 235,-420.37"/>
<polygon fill="#64748b" stroke="#64748b" points="237.45,-420.58 235,-413.58 232.55,-420.58 237.45,-420.58"/>
</g>
<!-- n12&#45;&gt;n10 -->
<g id="edge29" class="edge">
<title>n12&#45;&gt;n10</title>
<path fill="none" stroke="#64748b" d="M198.74,-446.61C180.27,-437.24 157.73,-425.8 138.56,-416.08"/>
<polygon fill="#64748b" stroke="#64748b" points="139.82,-413.97 132.47,-412.99 137.6,-418.34 139.82,-413.97"/>
</g>
<!-- n12&#45;&gt;n11 -->
<g id="edge30" class="edge">
<title>n12&#45;&gt;n11</title>
<path fill="none" stroke="#64748b" d="M277.04,-446.61C298.65,-437.15 325.09,-425.59 347.45,-415.81"/>
<polygon fill="#64748b" stroke="#64748b" points="348.35,-418.08 353.78,-413.03 346.39,-413.59 348.35,-418.08"/>
</g>
</g>
</svg>
