<?xml version="1.0" encoding="UTF-8" standalone="no"?>
<!DOCTYPE svg PUBLIC "-//W3C//DTD SVG 1.1//EN"
 "http://www.w3.org/Graphics/SVG/1.1/DTD/svg11.dtd">
<!-- Generated by graphviz version 15.0.0 (20260523.1842)
 -->
<!-- Title: master_error_bound_full_interface_of_proxy_critical Pages: 1 -->
<svg width="716pt" height="555pt"
 viewBox="0.00 0.00 716.00 555.00" xmlns="http://www.w3.org/2000/svg" xmlns:xlink="http://www.w3.org/1999/xlink">
<g id="graph0" class="graph" transform="scale(1 1) rotate(0) translate(4 551.2)">
<title>master_error_bound_full_interface_of_proxy_critical</title>
<polygon fill="white" stroke="none" points="-4,4 -4,-551.2 712,-551.2 712,4 -4,4"/>
<text xml:space="preserve" text-anchor="middle" x="354" y="-530.6" font-family="Helvetica,sans-Serif" font-size="14.00">Proof narrative — master_error_bound_full_interface_of_proxy_critical &#160;(12 decls)</text>
<g id="clust1" class="cluster">
<title>cluster_0</title>
<path fill="none" stroke="#cbd5e1" stroke-dasharray="5,2" d="M616,-152C616,-152 688,-152 688,-152 694,-152 700,-158 700,-164 700,-164 700,-285.2 700,-285.2 700,-291.2 694,-297.2 688,-297.2 688,-297.2 616,-297.2 616,-297.2 610,-297.2 604,-291.2 604,-285.2 604,-285.2 604,-164 604,-164 604,-158 610,-152 616,-152"/>
<text xml:space="preserve" text-anchor="middle" x="652" y="-283.3" font-family="Helvetica,sans-Serif" font-size="11.00">Gaussian</text>
</g>
<g id="clust2" class="cluster">
<title>cluster_1</title>
<path fill="none" stroke="#cbd5e1" stroke-dasharray="5,2" d="M20,-8C20,-8 584,-8 584,-8 590,-8 596,-14 596,-20 596,-20 596,-502.4 596,-502.4 596,-508.4 590,-514.4 584,-514.4 584,-514.4 20,-514.4 20,-514.4 14,-514.4 8,-508.4 8,-502.4 8,-502.4 8,-20 8,-20 8,-14 14,-8 20,-8"/>
<text xml:space="preserve" text-anchor="middle" x="302" y="-500.5" font-family="Helvetica,sans-Serif" font-size="11.00">Regression</text>
</g>
<!-- n1 -->
<g id="node1" class="node">
<title>n1</title>
<g id="a_node1"><a xlink:href="vscode://vscode-remote/wsl+Ubuntu/home/gavin/statlib/Statlib/Gaussian/Basic.lean:29" xlink:title="abbrev · Statlib/Gaussian/Basic.lean:29" target="_blank">
<path fill="#d6e9ff" stroke="#3b82f6" d="M675.79,-196C675.79,-196 628.21,-196 628.21,-196 622.21,-196 616.21,-190 616.21,-184 616.21,-184 616.21,-172 616.21,-172 616.21,-166 622.21,-160 628.21,-160 628.21,-160 675.79,-160 675.79,-160 681.79,-160 687.79,-166 687.79,-172 687.79,-172 687.79,-184 687.79,-184 687.79,-190 681.79,-196 675.79,-196"/>
<text xml:space="preserve" text-anchor="middle" x="652" y="-175" font-family="Helvetica,sans-Serif" font-size="10.00">stdGaussian</text>
</a>
</g>
</g>
<!-- n2 -->
<g id="node2" class="node">
<title>n2</title>
<g id="a_node2"><a xlink:href="vscode://vscode-remote/wsl+Ubuntu/home/gavin/statlib/Statlib/Gaussian/Basic.lean:32" xlink:title="def · Statlib/Gaussian/Basic.lean:32" target="_blank">
<path fill="#d6e9ff" stroke="#3b82f6" d="M680.24,-268C680.24,-268 623.76,-268 623.76,-268 617.76,-268 611.76,-262 611.76,-256 611.76,-256 611.76,-244 611.76,-244 611.76,-238 617.76,-232 623.76,-232 623.76,-232 680.24,-232 680.24,-232 686.24,-232 692.24,-238 692.24,-244 692.24,-244 692.24,-256 692.24,-256 692.24,-262 686.24,-268 680.24,-268"/>
<text xml:space="preserve" text-anchor="middle" x="652" y="-247" font-family="Helvetica,sans-Serif" font-size="10.00">stdGaussianPi</text>
</a>
</g>
</g>
<!-- n2&#45;&gt;n1 -->
<g id="edge1" class="edge">
<title>n2&#45;&gt;n1</title>
<path fill="none" stroke="#64748b" d="M652,-231.7C652,-223.47 652,-213.48 652,-204.42"/>
<polygon fill="#64748b" stroke="#64748b" points="654.45,-204.62 652,-197.62 649.55,-204.62 654.45,-204.62"/>
</g>
<!-- n0 -->
<g id="node3" class="node">
<title>n0</title>
<g id="a_node3"><a xlink:href="vscode://vscode-remote/wsl+Ubuntu/home/gavin/statlib/Statlib/Regression/Basic.lean:29" xlink:title="structure · Statlib/Regression/Basic.lean:29" target="_blank">
<path fill="#e8dcff" stroke="#8b5cf6" d="M291.91,-52C291.91,-52 222.09,-52 222.09,-52 216.09,-52 210.09,-46 210.09,-40 210.09,-40 210.09,-28 210.09,-28 210.09,-22 216.09,-16 222.09,-16 222.09,-16 291.91,-16 291.91,-16 297.91,-16 303.91,-22 303.91,-28 303.91,-28 303.91,-40 303.91,-40 303.91,-46 297.91,-52 291.91,-52"/>
<text xml:space="preserve" text-anchor="middle" x="257" y="-31" font-family="Helvetica,sans-Serif" font-size="10.00">RegressionModel</text>
</a>
</g>
</g>
<!-- n3 -->
<g id="node4" class="node">
<title>n3</title>
<g id="a_node4"><a xlink:href="vscode://vscode-remote/wsl+Ubuntu/home/gavin/statlib/Statlib/Regression/empiricalNorm.lean:10" xlink:title="def · Statlib/Regression/empiricalNorm.lean:10" target="_blank">
<path fill="#d6e9ff" stroke="#3b82f6" d="M432.23,-268C432.23,-268 375.77,-268 375.77,-268 369.77,-268 363.77,-262 363.77,-256 363.77,-256 363.77,-244 363.77,-244 363.77,-238 369.77,-232 375.77,-232 375.77,-232 432.23,-232 432.23,-232 438.23,-232 444.23,-238 444.23,-244 444.23,-244 444.23,-256 444.23,-256 444.23,-262 438.23,-268 432.23,-268"/>
<text xml:space="preserve" text-anchor="middle" x="404" y="-247" font-family="Helvetica,sans-Serif" font-size="10.00">empiricalNorm</text>
</a>
</g>
</g>
<!-- n3&#45;&gt;n0 -->
<g id="edge2" class="edge">
<title>n3&#45;&gt;n0</title>
<path fill="none" stroke="#64748b" d="M406.63,-231.81C408.89,-211.54 410.01,-177.4 397,-152 375.32,-109.67 330.91,-76.75 297.89,-56.76"/>
<polygon fill="#64748b" stroke="#64748b" points="299.19,-54.68 291.92,-53.22 296.69,-58.89 299.19,-54.68"/>
</g>
<!-- n4 -->
<g id="node5" class="node">
<title>n4</title>
<g id="a_node5"><a xlink:href="vscode://vscode-remote/wsl+Ubuntu/home/gavin/statlib/Statlib/Regression/Basic.lean:44" xlink:title="def · Statlib/Regression/Basic.lean:44" target="_blank">
<path fill="#d6e9ff" stroke="#3b82f6" d="M127.28,-124C127.28,-124 84.72,-124 84.72,-124 78.72,-124 72.72,-118 72.72,-112 72.72,-112 72.72,-100 72.72,-100 72.72,-94 78.72,-88 84.72,-88 84.72,-88 127.28,-88 127.28,-88 133.28,-88 139.28,-94 139.28,-100 139.28,-100 139.28,-112 139.28,-112 139.28,-118 133.28,-124 127.28,-124"/>
<text xml:space="preserve" text-anchor="middle" x="106" y="-103" font-family="Helvetica,sans-Serif" font-size="10.00">excessRisk</text>
</a>
</g>
</g>
<!-- n4&#45;&gt;n0 -->
<g id="edge3" class="edge">
<title>n4&#45;&gt;n0</title>
<path fill="none" stroke="#64748b" d="M139.51,-89.46C160.74,-79.62 188.47,-66.77 211.66,-56.02"/>
<polygon fill="#64748b" stroke="#64748b" points="212.64,-58.26 217.96,-53.1 210.58,-53.82 212.64,-58.26"/>
</g>
<!-- n5 -->
<g id="node6" class="node">
<title>n5</title>
<g id="a_node6"><a xlink:href="vscode://vscode-remote/wsl+Ubuntu/home/gavin/statlib/Statlib/Regression/approximationError.lean:10" xlink:title="def · Statlib/Regression/approximationError.lean:10" target="_blank">
<path fill="#d6e9ff" stroke="#3b82f6" d="M205.52,-196C205.52,-196 128.48,-196 128.48,-196 122.48,-196 116.48,-190 116.48,-184 116.48,-184 116.48,-172 116.48,-172 116.48,-166 122.48,-160 128.48,-160 128.48,-160 205.52,-160 205.52,-160 211.52,-160 217.52,-166 217.52,-172 217.52,-172 217.52,-184 217.52,-184 217.52,-190 211.52,-196 205.52,-196"/>
<text xml:space="preserve" text-anchor="middle" x="167" y="-175" font-family="Helvetica,sans-Serif" font-size="10.00">approximationError</text>
</a>
</g>
</g>
<!-- n5&#45;&gt;n0 -->
<g id="edge4" class="edge">
<title>n5&#45;&gt;n0</title>
<path fill="none" stroke="#64748b" d="M178.04,-159.59C193.98,-134.43 223.52,-87.83 241.6,-59.3"/>
<polygon fill="#64748b" stroke="#64748b" points="243.67,-60.61 245.34,-53.39 239.53,-57.99 243.67,-60.61"/>
</g>
<!-- n5&#45;&gt;n4 -->
<g id="edge5" class="edge">
<title>n5&#45;&gt;n4</title>
<path fill="none" stroke="#64748b" d="M151.92,-159.7C144.24,-150.88 134.79,-140.03 126.46,-130.47"/>
<polygon fill="#64748b" stroke="#64748b" points="128.35,-128.91 121.9,-125.25 124.65,-132.13 128.35,-128.91"/>
</g>
<!-- n6 -->
<g id="node7" class="node">
<title>n6</title>
<g id="a_node7"><a xlink:href="vscode://vscode-remote/wsl+Ubuntu/home/gavin/statlib/Statlib/Regression/estimationErrorUpper.lean:11" xlink:title="def · Statlib/Regression/estimationErrorUpper.lean:11" target="_blank">
<path fill="#d6e9ff" stroke="#3b82f6" d="M375.52,-196C375.52,-196 288.48,-196 288.48,-196 282.48,-196 276.48,-190 276.48,-184 276.48,-184 276.48,-172 276.48,-172 276.48,-166 282.48,-160 288.48,-160 288.48,-160 375.52,-160 375.52,-160 381.52,-160 387.52,-166 387.52,-172 387.52,-172 387.52,-184 387.52,-184 387.52,-190 381.52,-196 375.52,-196"/>
<text xml:space="preserve" text-anchor="middle" x="332" y="-175" font-family="Helvetica,sans-Serif" font-size="10.00">estimationErrorUpper</text>
</a>
</g>
</g>
<!-- n6&#45;&gt;n0 -->
<g id="edge6" class="edge">
<title>n6&#45;&gt;n0</title>
<path fill="none" stroke="#64748b" d="M322.8,-159.59C309.52,-134.43 284.9,-87.83 269.83,-59.3"/>
<polygon fill="#64748b" stroke="#64748b" points="272.18,-58.49 266.74,-53.45 267.85,-60.78 272.18,-58.49"/>
</g>
<!-- n7 -->
<g id="node8" class="node">
<title>n7</title>
<g id="a_node8"><a xlink:href="vscode://vscode-remote/wsl+Ubuntu/home/gavin/statlib/Statlib/Regression/master_error_bound.lean:17" xlink:title="theorem · Statlib/Regression/master_error_bound.lean:17" target="_blank">
<path fill="#ffe6a3" stroke="#d4a017" d="M272.3,-268C272.3,-268 189.7,-268 189.7,-268 183.7,-268 177.7,-262 177.7,-256 177.7,-256 177.7,-244 177.7,-244 177.7,-238 183.7,-232 189.7,-232 189.7,-232 272.3,-232 272.3,-232 278.3,-232 284.3,-238 284.3,-244 284.3,-244 284.3,-256 284.3,-256 284.3,-262 278.3,-268 272.3,-268"/>
<text xml:space="preserve" text-anchor="middle" x="231" y="-247" font-family="Helvetica,sans-Serif" font-size="10.00">master_error_bound</text>
</a>
</g>
</g>
<!-- n7&#45;&gt;n0 -->
<g id="edge7" class="edge">
<title>n7&#45;&gt;n0</title>
<path fill="none" stroke="#64748b" d="M233.33,-231.82C234.72,-221.45 236.5,-207.97 238,-196 243.97,-148.26 250.44,-92.5 254.08,-60.71"/>
<polygon fill="#64748b" stroke="#64748b" points="256.49,-61.14 254.85,-53.91 251.63,-60.58 256.49,-61.14"/>
</g>
<!-- n7&#45;&gt;n4 -->
<g id="edge8" class="edge">
<title>n7&#45;&gt;n4</title>
<path fill="none" stroke="#64748b" d="M235.57,-231.73C240.03,-210.77 243.93,-175.32 227,-152 208.86,-127.02 175.21,-115.89 147.99,-110.94"/>
<polygon fill="#64748b" stroke="#64748b" points="148.57,-108.56 141.27,-109.84 147.78,-113.39 148.57,-108.56"/>
</g>
<!-- n7&#45;&gt;n5 -->
<g id="edge9" class="edge">
<title>n7&#45;&gt;n5</title>
<path fill="none" stroke="#64748b" d="M215.18,-231.7C207.04,-222.8 197.01,-211.82 188.21,-202.2"/>
<polygon fill="#64748b" stroke="#64748b" points="190.19,-200.73 183.66,-197.22 186.57,-204.04 190.19,-200.73"/>
</g>
<!-- n7&#45;&gt;n6 -->
<g id="edge10" class="edge">
<title>n7&#45;&gt;n6</title>
<path fill="none" stroke="#64748b" d="M256.23,-231.52C269.58,-222.26 286.12,-210.8 300.33,-200.95"/>
<polygon fill="#64748b" stroke="#64748b" points="301.49,-203.12 305.85,-197.12 298.7,-199.1 301.49,-203.12"/>
</g>
<!-- n8 -->
<g id="node9" class="node">
<title>n8</title>
<g id="a_node9"><a xlink:href="vscode://vscode-remote/wsl+Ubuntu/home/gavin/statlib/Statlib/Regression/master_error_bound_localized.lean:14" xlink:title="theorem · Statlib/Regression/master_error_bound_localized.lean:14" target="_blank">
<path fill="#ffe6a3" stroke="#d4a017" d="M235.54,-341.2C235.54,-341.2 108.46,-341.2 108.46,-341.2 102.46,-341.2 96.46,-335.2 96.46,-329.2 96.46,-329.2 96.46,-317.2 96.46,-317.2 96.46,-311.2 102.46,-305.2 108.46,-305.2 108.46,-305.2 235.54,-305.2 235.54,-305.2 241.54,-305.2 247.54,-311.2 247.54,-317.2 247.54,-317.2 247.54,-329.2 247.54,-329.2 247.54,-335.2 241.54,-341.2 235.54,-341.2"/>
<text xml:space="preserve" text-anchor="middle" x="172" y="-320.2" font-family="Helvetica,sans-Serif" font-size="10.00">master_error_bound_localized</text>
</a>
</g>
</g>
<!-- n8&#45;&gt;n0 -->
<g id="edge11" class="edge">
<title>n8&#45;&gt;n0</title>
<path fill="none" stroke="#64748b" d="M118.6,-304.87C115.45,-302.62 112.54,-300.07 110,-297.2 46.97,-225.85 6.28,-163.71 64,-88 80.66,-66.14 150.43,-51.06 201.31,-42.73"/>
<polygon fill="#64748b" stroke="#64748b" points="201.6,-45.16 208.12,-41.64 200.82,-40.32 201.6,-45.16"/>
</g>
<!-- n8&#45;&gt;n4 -->
<g id="edge12" class="edge">
<title>n8&#45;&gt;n4</title>
<path fill="none" stroke="#64748b" d="M151.15,-304.84C148.9,-302.42 146.78,-299.85 145,-297.2 118.21,-257.32 115.85,-243.22 107,-196 103.04,-174.86 103.09,-150.39 103.96,-132.46"/>
<polygon fill="#64748b" stroke="#64748b" points="106.39,-132.88 104.35,-125.75 101.5,-132.59 106.39,-132.88"/>
</g>
<!-- n8&#45;&gt;n5 -->
<g id="edge13" class="edge">
<title>n8&#45;&gt;n5</title>
<path fill="none" stroke="#64748b" d="M157.55,-304.92C156.1,-302.45 154.85,-299.85 154,-297.2 144.02,-266.27 151.23,-228.68 158.27,-204.32"/>
<polygon fill="#64748b" stroke="#64748b" points="160.58,-205.14 160.28,-197.73 155.89,-203.71 160.58,-205.14"/>
</g>
<!-- n8&#45;&gt;n6 -->
<g id="edge14" class="edge">
<title>n8&#45;&gt;n6</title>
<path fill="none" stroke="#64748b" d="M247.79,-308.05C270.95,-303.44 290.94,-299.04 293,-297.2 300.14,-290.84 316.05,-236.77 325.19,-204"/>
<polygon fill="#64748b" stroke="#64748b" points="327.45,-205.03 326.95,-197.63 322.72,-203.73 327.45,-205.03"/>
</g>
<!-- n8&#45;&gt;n7 -->
<g id="edge15" class="edge">
<title>n8&#45;&gt;n7</title>
<path fill="none" stroke="#64748b" d="M186.28,-304.96C193.89,-295.78 203.36,-284.35 211.62,-274.38"/>
<polygon fill="#64748b" stroke="#64748b" points="213.3,-276.2 215.88,-269.24 209.53,-273.07 213.3,-276.2"/>
</g>
<!-- n9 -->
<g id="node10" class="node">
<title>n9</title>
<g id="a_node10"><a xlink:href="vscode://vscode-remote/wsl+Ubuntu/home/gavin/statlib/Statlib/Regression/master_error_bound_probability_interface.lean:12" xlink:title="theorem · Statlib/Regression/master_error_bound_probability_interface.lean:12" target="_blank">
<path fill="#ffe6a3" stroke="#d4a017" d="M555.83,-341.2C555.83,-341.2 378.17,-341.2 378.17,-341.2 372.17,-341.2 366.17,-335.2 366.17,-329.2 366.17,-329.2 366.17,-317.2 366.17,-317.2 366.17,-311.2 372.17,-305.2 378.17,-305.2 378.17,-305.2 555.83,-305.2 555.83,-305.2 561.83,-305.2 567.83,-311.2 567.83,-317.2 567.83,-317.2 567.83,-329.2 567.83,-329.2 567.83,-335.2 561.83,-341.2 555.83,-341.2"/>
<text xml:space="preserve" text-anchor="middle" x="467" y="-320.2" font-family="Helvetica,sans-Serif" font-size="10.00">master_error_bound_probability_interface</text>
</a>
</g>
</g>
<!-- n9&#45;&gt;n2 -->
<g id="edge17" class="edge">
<title>n9&#45;&gt;n2</title>
<path fill="none" stroke="#64748b" d="M568.02,-309.24C579.1,-306.07 589.98,-302.12 600,-297.2 611.63,-291.5 622.64,-282.46 631.51,-273.89"/>
<polygon fill="#64748b" stroke="#64748b" points="633.03,-275.84 636.22,-269.15 629.55,-272.39 633.03,-275.84"/>
</g>
<!-- n9&#45;&gt;n0 -->
<g id="edge16" class="edge">
<title>n9&#45;&gt;n0</title>
<path fill="none" stroke="#64748b" d="M466.19,-304.79C464.9,-286.27 461.56,-256.37 453,-232 428.13,-161.24 421.23,-137.63 365,-88 349.59,-74.39 330.06,-63.42 311.86,-55.06"/>
<polygon fill="#64748b" stroke="#64748b" points="312.93,-52.85 305.54,-52.25 310.94,-57.33 312.93,-52.85"/>
</g>
<!-- n9&#45;&gt;n3 -->
<g id="edge18" class="edge">
<title>n9&#45;&gt;n3</title>
<path fill="none" stroke="#64748b" d="M451.75,-304.96C443.62,-295.78 433.51,-284.35 424.69,-274.38"/>
<polygon fill="#64748b" stroke="#64748b" points="426.59,-272.83 420.11,-269.21 422.92,-276.08 426.59,-272.83"/>
</g>
<!-- n10 -->
<g id="node11" class="node">
<title>n10</title>
<g id="a_node11"><a xlink:href="vscode://vscode-remote/wsl+Ubuntu/home/gavin/statlib/Statlib/Regression/master_error_bound_full_interface.lean:16" xlink:title="theorem · Statlib/Regression/master_error_bound_full_interface.lean:16" target="_blank">
<path fill="#ffe6a3" stroke="#d4a017" d="M369.43,-413.2C369.43,-413.2 224.57,-413.2 224.57,-413.2 218.57,-413.2 212.57,-407.2 212.57,-401.2 212.57,-401.2 212.57,-389.2 212.57,-389.2 212.57,-383.2 218.57,-377.2 224.57,-377.2 224.57,-377.2 369.43,-377.2 369.43,-377.2 375.43,-377.2 381.43,-383.2 381.43,-389.2 381.43,-389.2 381.43,-401.2 381.43,-401.2 381.43,-407.2 375.43,-413.2 369.43,-413.2"/>
<text xml:space="preserve" text-anchor="middle" x="297" y="-392.2" font-family="Helvetica,sans-Serif" font-size="10.00">master_error_bound_full_interface</text>
</a>
</g>
</g>
<!-- n10&#45;&gt;n2 -->
<g id="edge20" class="edge">
<title>n10&#45;&gt;n2</title>
<path fill="none" stroke="#64748b" d="M381.7,-386.41C456.27,-378.23 558.12,-363.43 592,-341.2 615.84,-325.55 632.49,-296.8 642.1,-275.95"/>
<polygon fill="#64748b" stroke="#64748b" points="644.24,-277.17 644.83,-269.78 639.76,-275.19 644.24,-277.17"/>
</g>
<!-- n10&#45;&gt;n0 -->
<g id="edge19" class="edge">
<title>n10&#45;&gt;n0</title>
<path fill="none" stroke="#64748b" d="M381.9,-389.04C454.42,-382.74 551.03,-369.24 577,-341.2 590.7,-326.4 587,-271.17 587,-251 587,-251 587,-251 587,-177 587,-58.94 406.58,-37.83 312.55,-34.85"/>
<polygon fill="#64748b" stroke="#64748b" points="312.86,-32.41 305.79,-34.67 312.73,-37.31 312.86,-32.41"/>
</g>
<!-- n10&#45;&gt;n3 -->
<g id="edge21" class="edge">
<title>n10&#45;&gt;n3</title>
<path fill="none" stroke="#64748b" d="M303.37,-377.01C310.85,-358.21 324.48,-327.76 342,-305.2 350.93,-293.7 362.57,-282.77 373.35,-273.78"/>
<polygon fill="#64748b" stroke="#64748b" points="374.86,-275.71 378.74,-269.39 371.77,-271.91 374.86,-275.71"/>
</g>
<!-- n10&#45;&gt;n4 -->
<g id="edge22" class="edge">
<title>n10&#45;&gt;n4</title>
<path fill="none" stroke="#64748b" d="M212.19,-383.48C161,-375.07 102.71,-361.37 87,-341.2 38.78,-279.29 73.76,-178.18 94.12,-131.74"/>
<polygon fill="#64748b" stroke="#64748b" points="96.24,-133.02 96.87,-125.63 91.77,-131.01 96.24,-133.02"/>
</g>
<!-- n10&#45;&gt;n5 -->
<g id="edge23" class="edge">
<title>n10&#45;&gt;n5</title>
<path fill="none" stroke="#64748b" d="M294.5,-376.84C290.51,-356.08 280.58,-322.02 257,-305.2 241.01,-293.8 182.36,-311.59 169,-297.2 156.93,-284.21 160.24,-234.92 163.67,-204.24"/>
<polygon fill="#64748b" stroke="#64748b" points="166.06,-204.87 164.45,-197.63 161.2,-204.3 166.06,-204.87"/>
</g>
<!-- n10&#45;&gt;n6 -->
<g id="edge24" class="edge">
<title>n10&#45;&gt;n6</title>
<path fill="none" stroke="#64748b" d="M296.93,-376.98C297.65,-357.88 301.27,-326.9 316,-305.2 319.6,-299.9 324.88,-302.8 328,-297.2 343.91,-268.64 341.58,-229.88 337.54,-204.66"/>
<polygon fill="#64748b" stroke="#64748b" points="339.96,-204.3 336.33,-197.83 335.14,-205.15 339.96,-204.3"/>
</g>
<!-- n10&#45;&gt;n8 -->
<g id="edge25" class="edge">
<title>n10&#45;&gt;n8</title>
<path fill="none" stroke="#64748b" d="M265.78,-376.72C248.95,-367.29 228.04,-355.58 210.24,-345.61"/>
<polygon fill="#64748b" stroke="#64748b" points="211.45,-343.48 204.14,-342.2 209.05,-347.76 211.45,-343.48"/>
</g>
<!-- n10&#45;&gt;n9 -->
<g id="edge26" class="edge">
<title>n10&#45;&gt;n9</title>
<path fill="none" stroke="#64748b" d="M339.46,-376.72C362.98,-367.03 392.35,-354.94 416.97,-344.8"/>
<polygon fill="#64748b" stroke="#64748b" points="417.85,-347.09 423.39,-342.16 415.98,-342.56 417.85,-347.09"/>
</g>
<!-- n11 -->
<g id="node12" class="node">
<title>n11</title>
<g id="a_node12"><a xlink:href="vscode://vscode-remote/wsl+Ubuntu/home/gavin/statlib/Statlib/Regression/master_error_bound_full_interface_of_proxy_critical.lean:15" xlink:title="theorem · Statlib/Regression/master_error_bound_full_interface_of_proxy_critical.lean:15" target="_blank">
<path fill="#ffe6a3" stroke="#d4a017" stroke-width="3" d="M305.34,-485.2C305.34,-485.2 82.66,-485.2 82.66,-485.2 76.66,-485.2 70.66,-479.2 70.66,-473.2 70.66,-473.2 70.66,-461.2 70.66,-461.2 70.66,-455.2 76.66,-449.2 82.66,-449.2 82.66,-449.2 305.34,-449.2 305.34,-449.2 311.34,-449.2 317.34,-455.2 317.34,-461.2 317.34,-461.2 317.34,-473.2 317.34,-473.2 317.34,-479.2 311.34,-485.2 305.34,-485.2"/>
<text xml:space="preserve" text-anchor="middle" x="194" y="-464.2" font-family="Helvetica,sans-Serif" font-size="10.00">master_error_bound_full_interface_of_proxy_critical</text>
</a>
</g>
</g>
<!-- n11&#45;&gt;n2 -->
<g id="edge28" class="edge">
<title>n11&#45;&gt;n2</title>
<path fill="none" stroke="#64748b" d="M318.67,-461.18C414.15,-450.74 542.72,-421.37 623,-341.2 640.13,-324.09 647.15,-296.83 650.02,-276.75"/>
<polygon fill="#64748b" stroke="#64748b" points="652.45,-277.11 650.86,-269.87 647.58,-276.52 652.45,-277.11"/>
</g>
<!-- n11&#45;&gt;n0 -->
<g id="edge27" class="edge">
<title>n11&#45;&gt;n0</title>
<path fill="none" stroke="#64748b" d="M138,-447.86C86.14,-426.94 17,-387.23 17,-324.2 17,-324.2 17,-324.2 17,-177 17,-136.14 10.92,-116.7 40,-88 62.63,-65.67 145.26,-50.21 201.77,-41.97"/>
<polygon fill="#64748b" stroke="#64748b" points="201.83,-44.44 208.41,-41.02 201.14,-39.59 201.83,-44.44"/>
</g>
<!-- n11&#45;&gt;n3 -->
<g id="edge29" class="edge">
<title>n11&#45;&gt;n3</title>
<path fill="none" stroke="#64748b" d="M307.46,-447.73C344.42,-439.23 378.86,-427.75 390,-413.2 399.73,-400.5 395.8,-392.11 390,-377.2 382.13,-356.97 364.87,-361.43 357,-341.2 351.2,-326.29 351.41,-320.19 357,-305.2 361.28,-293.74 369.18,-283.1 377.31,-274.34"/>
<polygon fill="#64748b" stroke="#64748b" points="379.01,-276.1 382.16,-269.38 375.51,-272.67 379.01,-276.1"/>
</g>
<!-- n11&#45;&gt;n4 -->
<g id="edge30" class="edge">
<title>n11&#45;&gt;n4</title>
<path fill="none" stroke="#64748b" d="M148.3,-447.82C131.88,-439.34 114.37,-427.84 102,-413.2 66.51,-371.2 68.71,-351.32 59,-297.2 47.58,-233.56 42.43,-211.38 68,-152 71.34,-144.25 76.47,-136.82 81.89,-130.32"/>
<polygon fill="#64748b" stroke="#64748b" points="83.56,-132.13 86.36,-125.27 79.88,-128.89 83.56,-132.13"/>
</g>
<!-- n11&#45;&gt;n5 -->
<g id="edge31" class="edge">
<title>n11&#45;&gt;n5</title>
<path fill="none" stroke="#64748b" d="M170.66,-448C144.52,-425.98 103.64,-386.22 87,-341.2 68.02,-289.84 112.01,-233.19 142,-202.29"/>
<polygon fill="#64748b" stroke="#64748b" points="143.53,-204.23 146.72,-197.54 140.05,-200.78 143.53,-204.23"/>
</g>
<!-- n11&#45;&gt;n6 -->
<g id="edge32" class="edge">
<title>n11&#45;&gt;n6</title>
<path fill="none" stroke="#64748b" d="M191.79,-447.74C190.44,-428.68 190.98,-398.77 204,-377.2 218.71,-352.82 234.59,-358.77 257,-341.2 275.82,-326.45 277.85,-319.53 297,-305.2 302.43,-301.14 306.16,-302.79 310,-297.2 320.11,-282.48 326.53,-234.63 329.68,-204.52"/>
<polygon fill="#64748b" stroke="#64748b" points="332.11,-204.88 330.37,-197.67 327.23,-204.39 332.11,-204.88"/>
</g>
<!-- n11&#45;&gt;n10 -->
<g id="edge33" class="edge">
<title>n11&#45;&gt;n10</title>
<path fill="none" stroke="#64748b" d="M221.06,-447.81C234.48,-438.69 250.78,-427.61 264.84,-418.06"/>
<polygon fill="#64748b" stroke="#64748b" points="265.87,-420.32 270.28,-414.36 263.12,-416.27 265.87,-420.32"/>
</g>
</g>
</svg>
