<?xml version="1.0" encoding="UTF-8" standalone="no"?>
<!DOCTYPE svg PUBLIC "-//W3C//DTD SVG 1.1//EN"
 "http://www.w3.org/Graphics/SVG/1.1/DTD/svg11.dtd">
<!-- Generated by graphviz version 15.0.0 (20260523.1842)
 -->
<!-- Title: master_error_bound_full_interface_of_proxy_structured Pages: 1 -->
<svg width="1141pt" height="555pt"
 viewBox="0.00 0.00 1141.00 555.00" xmlns="http://www.w3.org/2000/svg" xmlns:xlink="http://www.w3.org/1999/xlink">
<g id="graph0" class="graph" transform="scale(1 1) rotate(0) translate(4 551.2)">
<title>master_error_bound_full_interface_of_proxy_structured</title>
<polygon fill="white" stroke="none" points="-4,4 -4,-551.2 1137.34,-551.2 1137.34,4 -4,4"/>
<text xml:space="preserve" text-anchor="middle" x="566.67" y="-530.6" font-family="Helvetica,sans-Serif" font-size="14.00">Proof narrative — master_error_bound_full_interface_of_proxy_structured &#160;(15 decls)</text>
<g id="clust1" class="cluster">
<title>cluster_0</title>
<path fill="none" stroke="#cbd5e1" stroke-dasharray="5,2" d="M1037,-80C1037,-80 1109,-80 1109,-80 1115,-80 1121,-86 1121,-92 1121,-92 1121,-213.2 1121,-213.2 1121,-219.2 1115,-225.2 1109,-225.2 1109,-225.2 1037,-225.2 1037,-225.2 1031,-225.2 1025,-219.2 1025,-213.2 1025,-213.2 1025,-92 1025,-92 1025,-86 1031,-80 1037,-80"/>
<text xml:space="preserve" text-anchor="middle" x="1073" y="-211.3" font-family="Helvetica,sans-Serif" font-size="11.00">Gaussian</text>
</g>
<g id="clust2" class="cluster">
<title>cluster_1</title>
<path fill="none" stroke="#cbd5e1" stroke-dasharray="5,2" d="M20,-8C20,-8 984,-8 984,-8 990,-8 996,-14 996,-20 996,-20 996,-502.4 996,-502.4 996,-508.4 990,-514.4 984,-514.4 984,-514.4 20,-514.4 20,-514.4 14,-514.4 8,-508.4 8,-502.4 8,-502.4 8,-20 8,-20 8,-14 14,-8 20,-8"/>
<text xml:space="preserve" text-anchor="middle" x="502" y="-500.5" font-family="Helvetica,sans-Serif" font-size="11.00">Regression</text>
</g>
<!-- n1 -->
<g id="node1" class="node">
<title>n1</title>
<g id="a_node1"><a xlink:href="vscode://vscode-remote/wsl+Ubuntu/home/gavin/statlib/Statlib/Gaussian/Basic.lean:29" xlink:title="abbrev · Statlib/Gaussian/Basic.lean:29" target="_blank">
<path fill="#d6e9ff" stroke="#3b82f6" d="M1096.79,-124C1096.79,-124 1049.21,-124 1049.21,-124 1043.21,-124 1037.21,-118 1037.21,-112 1037.21,-112 1037.21,-100 1037.21,-100 1037.21,-94 1043.21,-88 1049.21,-88 1049.21,-88 1096.79,-88 1096.79,-88 1102.79,-88 1108.79,-94 1108.79,-100 1108.79,-100 1108.79,-112 1108.79,-112 1108.79,-118 1102.79,-124 1096.79,-124"/>
<text xml:space="preserve" text-anchor="middle" x="1073" y="-103" font-family="Helvetica,sans-Serif" font-size="10.00">stdGaussian</text>
</a>
</g>
</g>
<!-- n2 -->
<g id="node2" class="node">
<title>n2</title>
<g id="a_node2"><a xlink:href="vscode://vscode-remote/wsl+Ubuntu/home/gavin/statlib/Statlib/Gaussian/Basic.lean:32" xlink:title="def · Statlib/Gaussian/Basic.lean:32" target="_blank">
<path fill="#d6e9ff" stroke="#3b82f6" d="M1101.24,-196C1101.24,-196 1044.76,-196 1044.76,-196 1038.76,-196 1032.76,-190 1032.76,-184 1032.76,-184 1032.76,-172 1032.76,-172 1032.76,-166 1038.76,-160 1044.76,-160 1044.76,-160 1101.24,-160 1101.24,-160 1107.24,-160 1113.24,-166 1113.24,-172 1113.24,-172 1113.24,-184 1113.24,-184 1113.24,-190 1107.24,-196 1101.24,-196"/>
<text xml:space="preserve" text-anchor="middle" x="1073" y="-175" font-family="Helvetica,sans-Serif" font-size="10.00">stdGaussianPi</text>
</a>
</g>
</g>
<!-- n2&#45;&gt;n1 -->
<g id="edge1" class="edge">
<title>n2&#45;&gt;n1</title>
<path fill="none" stroke="#64748b" d="M1073,-159.7C1073,-151.47 1073,-141.48 1073,-132.42"/>
<polygon fill="#64748b" stroke="#64748b" points="1075.45,-132.62 1073,-125.62 1070.55,-132.62 1075.45,-132.62"/>
</g>
<!-- n0 -->
<g id="node3" class="node">
<title>n0</title>
<g id="a_node3"><a xlink:href="vscode://vscode-remote/wsl+Ubuntu/home/gavin/statlib/Statlib/Regression/Basic.lean:29" xlink:title="structure · Statlib/Regression/Basic.lean:29" target="_blank">
<path fill="#e8dcff" stroke="#8b5cf6" d="M648.91,-52C648.91,-52 579.09,-52 579.09,-52 573.09,-52 567.09,-46 567.09,-40 567.09,-40 567.09,-28 567.09,-28 567.09,-22 573.09,-16 579.09,-16 579.09,-16 648.91,-16 648.91,-16 654.91,-16 660.91,-22 660.91,-28 660.91,-28 660.91,-40 660.91,-40 660.91,-46 654.91,-52 648.91,-52"/>
<text xml:space="preserve" text-anchor="middle" x="614" y="-31" font-family="Helvetica,sans-Serif" font-size="10.00">RegressionModel</text>
</a>
</g>
</g>
<!-- n3 -->
<g id="node4" class="node">
<title>n3</title>
<g id="a_node4"><a xlink:href="vscode://vscode-remote/wsl+Ubuntu/home/gavin/statlib/Statlib/Regression/empiricalNorm.lean:10" xlink:title="def · Statlib/Regression/empiricalNorm.lean:10" target="_blank">
<path fill="#d6e9ff" stroke="#3b82f6" d="M387.23,-196C387.23,-196 330.77,-196 330.77,-196 324.77,-196 318.77,-190 318.77,-184 318.77,-184 318.77,-172 318.77,-172 318.77,-166 324.77,-160 330.77,-160 330.77,-160 387.23,-160 387.23,-160 393.23,-160 399.23,-166 399.23,-172 399.23,-172 399.23,-184 399.23,-184 399.23,-190 393.23,-196 387.23,-196"/>
<text xml:space="preserve" text-anchor="middle" x="359" y="-175" font-family="Helvetica,sans-Serif" font-size="10.00">empiricalNorm</text>
</a>
</g>
</g>
<!-- n3&#45;&gt;n0 -->
<g id="edge2" class="edge">
<title>n3&#45;&gt;n0</title>
<path fill="none" stroke="#64748b" d="M382.53,-159.64C411.06,-139.06 461.03,-104.47 507,-80 523.66,-71.13 542.45,-62.73 559.59,-55.64"/>
<polygon fill="#64748b" stroke="#64748b" points="560.37,-57.96 565.93,-53.05 558.52,-53.43 560.37,-57.96"/>
</g>
<!-- n4 -->
<g id="node5" class="node">
<title>n4</title>
<g id="a_node5"><a xlink:href="vscode://vscode-remote/wsl+Ubuntu/home/gavin/statlib/Statlib/Regression/Basic.lean:44" xlink:title="def · Statlib/Regression/Basic.lean:44" target="_blank">
<path fill="#d6e9ff" stroke="#3b82f6" d="M667.28,-124C667.28,-124 624.72,-124 624.72,-124 618.72,-124 612.72,-118 612.72,-112 612.72,-112 612.72,-100 612.72,-100 612.72,-94 618.72,-88 624.72,-88 624.72,-88 667.28,-88 667.28,-88 673.28,-88 679.28,-94 679.28,-100 679.28,-100 679.28,-112 679.28,-112 679.28,-118 673.28,-124 667.28,-124"/>
<text xml:space="preserve" text-anchor="middle" x="646" y="-103" font-family="Helvetica,sans-Serif" font-size="10.00">excessRisk</text>
</a>
</g>
</g>
<!-- n4&#45;&gt;n0 -->
<g id="edge3" class="edge">
<title>n4&#45;&gt;n0</title>
<path fill="none" stroke="#64748b" d="M638.09,-87.7C634.21,-79.22 629.48,-68.86 625.24,-59.58"/>
<polygon fill="#64748b" stroke="#64748b" points="627.59,-58.83 622.45,-53.48 623.13,-60.87 627.59,-58.83"/>
</g>
<!-- n5 -->
<g id="node6" class="node">
<title>n5</title>
<g id="a_node6"><a xlink:href="vscode://vscode-remote/wsl+Ubuntu/home/gavin/statlib/Statlib/Regression/approximationError.lean:10" xlink:title="def · Statlib/Regression/approximationError.lean:10" target="_blank">
<path fill="#d6e9ff" stroke="#3b82f6" d="M765.52,-196C765.52,-196 688.48,-196 688.48,-196 682.48,-196 676.48,-190 676.48,-184 676.48,-184 676.48,-172 676.48,-172 676.48,-166 682.48,-160 688.48,-160 688.48,-160 765.52,-160 765.52,-160 771.52,-160 777.52,-166 777.52,-172 777.52,-172 777.52,-184 777.52,-184 777.52,-190 771.52,-196 765.52,-196"/>
<text xml:space="preserve" text-anchor="middle" x="727" y="-175" font-family="Helvetica,sans-Serif" font-size="10.00">approximationError</text>
</a>
</g>
</g>
<!-- n5&#45;&gt;n0 -->
<g id="edge4" class="edge">
<title>n5&#45;&gt;n0</title>
<path fill="none" stroke="#64748b" d="M723.6,-159.85C718.73,-139 708.07,-103.67 688,-80 680.26,-70.87 670.17,-63.06 659.95,-56.64"/>
<polygon fill="#64748b" stroke="#64748b" points="661.44,-54.68 654.18,-53.2 658.93,-58.89 661.44,-54.68"/>
</g>
<!-- n5&#45;&gt;n4 -->
<g id="edge5" class="edge">
<title>n5&#45;&gt;n4</title>
<path fill="none" stroke="#64748b" d="M706.98,-159.7C696.56,-150.69 683.69,-139.57 672.46,-129.87"/>
<polygon fill="#64748b" stroke="#64748b" points="674.12,-128.06 667.22,-125.34 670.91,-131.77 674.12,-128.06"/>
</g>
<!-- n6 -->
<g id="node7" class="node">
<title>n6</title>
<g id="a_node7"><a xlink:href="vscode://vscode-remote/wsl+Ubuntu/home/gavin/statlib/Statlib/Regression/estimationErrorUpper.lean:11" xlink:title="def · Statlib/Regression/estimationErrorUpper.lean:11" target="_blank">
<path fill="#d6e9ff" stroke="#3b82f6" d="M935.52,-196C935.52,-196 848.48,-196 848.48,-196 842.48,-196 836.48,-190 836.48,-184 836.48,-184 836.48,-172 836.48,-172 836.48,-166 842.48,-160 848.48,-160 848.48,-160 935.52,-160 935.52,-160 941.52,-160 947.52,-166 947.52,-172 947.52,-172 947.52,-184 947.52,-184 947.52,-190 941.52,-196 935.52,-196"/>
<text xml:space="preserve" text-anchor="middle" x="892" y="-175" font-family="Helvetica,sans-Serif" font-size="10.00">estimationErrorUpper</text>
</a>
</g>
</g>
<!-- n6&#45;&gt;n0 -->
<g id="edge6" class="edge">
<title>n6&#45;&gt;n0</title>
<path fill="none" stroke="#64748b" d="M884.36,-159.61C873.71,-137.49 852.24,-99.78 822,-80 776.25,-50.07 713.9,-39.7 669.42,-36.29"/>
<polygon fill="#64748b" stroke="#64748b" points="669.72,-33.85 662.57,-35.81 669.38,-38.74 669.72,-33.85"/>
</g>
<!-- n7 -->
<g id="node8" class="node">
<title>n7</title>
<g id="a_node8"><a xlink:href="vscode://vscode-remote/wsl+Ubuntu/home/gavin/statlib/Statlib/Regression/LocalizedProbabilityAssumptions.lean:12" xlink:title="structure · Statlib/Regression/LocalizedProbabilityAssumptions.lean:12" target="_blank">
<path fill="#e8dcff" stroke="#8b5cf6" d="M528.09,-269.2C528.09,-269.2 389.91,-269.2 389.91,-269.2 383.91,-269.2 377.91,-263.2 377.91,-257.2 377.91,-257.2 377.91,-245.2 377.91,-245.2 377.91,-239.2 383.91,-233.2 389.91,-233.2 389.91,-233.2 528.09,-233.2 528.09,-233.2 534.09,-233.2 540.09,-239.2 540.09,-245.2 540.09,-245.2 540.09,-257.2 540.09,-257.2 540.09,-263.2 534.09,-269.2 528.09,-269.2"/>
<text xml:space="preserve" text-anchor="middle" x="459" y="-248.2" font-family="Helvetica,sans-Serif" font-size="10.00">LocalizedProbabilityAssumptions</text>
</a>
</g>
</g>
<!-- n7&#45;&gt;n2 -->
<g id="edge8" class="edge">
<title>n7&#45;&gt;n2</title>
<path fill="none" stroke="#64748b" d="M540.3,-245.38C603.68,-241.72 693.92,-236.73 773,-233.2 798.21,-232.07 975.89,-232.65 1000,-225.2 1016.2,-220.19 1032.33,-210.6 1045.29,-201.44"/>
<polygon fill="#64748b" stroke="#64748b" points="1046.72,-203.43 1050.93,-197.33 1043.83,-199.48 1046.72,-203.43"/>
</g>
<!-- n7&#45;&gt;n0 -->
<g id="edge7" class="edge">
<title>n7&#45;&gt;n0</title>
<path fill="none" stroke="#64748b" d="M470.86,-233.17C492.35,-202.4 539.28,-135.56 580,-80 585.04,-73.13 590.58,-65.73 595.7,-58.96"/>
<polygon fill="#64748b" stroke="#64748b" points="597.45,-60.7 599.73,-53.64 593.55,-57.74 597.45,-60.7"/>
</g>
<!-- n7&#45;&gt;n3 -->
<g id="edge9" class="edge">
<title>n7&#45;&gt;n3</title>
<path fill="none" stroke="#64748b" d="M434.54,-232.78C421.22,-223.3 404.6,-211.47 390.34,-201.32"/>
<polygon fill="#64748b" stroke="#64748b" points="391.91,-199.43 384.79,-197.36 389.07,-203.42 391.91,-199.43"/>
</g>
<!-- n8 -->
<g id="node9" class="node">
<title>n8</title>
<g id="a_node9"><a xlink:href="vscode://vscode-remote/wsl+Ubuntu/home/gavin/statlib/Statlib/Regression/LocalizedProbabilityAssumptions_ofDeterministic.lean:13" xlink:title="lemma · Statlib/Regression/LocalizedProbabilityAssumptions_ofDeterministic.lean:13" target="_blank">
<path fill="#eef2f6" stroke="#94a3b8" d="M315.55,-341.2C315.55,-341.2 108.45,-341.2 108.45,-341.2 102.45,-341.2 96.45,-335.2 96.45,-329.2 96.45,-329.2 96.45,-317.2 96.45,-317.2 96.45,-311.2 102.45,-305.2 108.45,-305.2 108.45,-305.2 315.55,-305.2 315.55,-305.2 321.55,-305.2 327.55,-311.2 327.55,-317.2 327.55,-317.2 327.55,-329.2 327.55,-329.2 327.55,-335.2 321.55,-341.2 315.55,-341.2"/>
<text xml:space="preserve" text-anchor="middle" x="212" y="-320.2" font-family="Helvetica,sans-Serif" font-size="10.00">LocalizedProbabilityAssumptions.ofDeterministic</text>
</a>
</g>
</g>
<!-- n8&#45;&gt;n2 -->
<g id="edge11" class="edge">
<title>n8&#45;&gt;n2</title>
<path fill="none" stroke="#64748b" d="M327.99,-312.42C357.05,-310.02 388.16,-307.48 417,-305.2 630.27,-288.36 689.16,-319.9 897,-269.2 951.19,-255.98 1007.47,-223.22 1041.37,-201.04"/>
<polygon fill="#64748b" stroke="#64748b" points="1042.52,-203.22 1047,-197.31 1039.81,-199.14 1042.52,-203.22"/>
</g>
<!-- n8&#45;&gt;n0 -->
<g id="edge10" class="edge">
<title>n8&#45;&gt;n0</title>
<path fill="none" stroke="#64748b" d="M219.24,-304.82C233.1,-273.07 266,-204.86 310,-160 355.4,-113.71 372.57,-105.93 432,-80 472.77,-62.21 521.88,-50.59 558.8,-43.62"/>
<polygon fill="#64748b" stroke="#64748b" points="559.03,-46.07 565.48,-42.4 558.15,-41.25 559.03,-46.07"/>
</g>
<!-- n8&#45;&gt;n3 -->
<g id="edge12" class="edge">
<title>n8&#45;&gt;n3</title>
<path fill="none" stroke="#64748b" d="M229.73,-304.93C256.11,-279.23 305.73,-230.89 335.23,-202.15"/>
<polygon fill="#64748b" stroke="#64748b" points="336.82,-204.03 340.12,-197.39 333.4,-200.52 336.82,-204.03"/>
</g>
<!-- n8&#45;&gt;n7 -->
<g id="edge13" class="edge">
<title>n8&#45;&gt;n7</title>
<path fill="none" stroke="#64748b" d="M273.69,-304.72C308.89,-294.74 353.13,-282.2 389.55,-271.88"/>
<polygon fill="#64748b" stroke="#64748b" points="390.14,-274.26 396.21,-269.99 388.81,-269.55 390.14,-274.26"/>
</g>
<!-- n9 -->
<g id="node10" class="node">
<title>n9</title>
<g id="a_node10"><a xlink:href="vscode://vscode-remote/wsl+Ubuntu/home/gavin/statlib/Statlib/Regression/LocalizedProbabilityAssumptions_ofProxy.lean:14" xlink:title="lemma · Statlib/Regression/LocalizedProbabilityAssumptions_ofProxy.lean:14" target="_blank">
<path fill="#eef2f6" stroke="#94a3b8" d="M328.43,-413.2C328.43,-413.2 153.57,-413.2 153.57,-413.2 147.57,-413.2 141.57,-407.2 141.57,-401.2 141.57,-401.2 141.57,-389.2 141.57,-389.2 141.57,-383.2 147.57,-377.2 153.57,-377.2 153.57,-377.2 328.43,-377.2 328.43,-377.2 334.43,-377.2 340.43,-383.2 340.43,-389.2 340.43,-389.2 340.43,-401.2 340.43,-401.2 340.43,-407.2 334.43,-413.2 328.43,-413.2"/>
<text xml:space="preserve" text-anchor="middle" x="241" y="-392.2" font-family="Helvetica,sans-Serif" font-size="10.00">LocalizedProbabilityAssumptions.ofProxy</text>
</a>
</g>
</g>
<!-- n9&#45;&gt;n2 -->
<g id="edge15" class="edge">
<title>n9&#45;&gt;n2</title>
<path fill="none" stroke="#64748b" d="M340.89,-392.2C506.1,-387.95 828.75,-375.44 937,-341.2 996.66,-322.33 1022.7,-320.87 1058,-269.2 1070.97,-250.22 1074.07,-223.85 1074.31,-204.52"/>
<polygon fill="#64748b" stroke="#64748b" points="1076.76,-204.68 1074.26,-197.7 1071.86,-204.72 1076.76,-204.68"/>
</g>
<!-- n9&#45;&gt;n0 -->
<g id="edge14" class="edge">
<title>n9&#45;&gt;n0</title>
<path fill="none" stroke="#64748b" d="M141.32,-376.94C117.82,-369.11 94.31,-357.73 76,-341.2 43.94,-312.26 37,-295.39 37,-252.2 37,-252.2 37,-252.2 37,-177 37,-70.29 413.82,-43.31 558.42,-36.89"/>
<polygon fill="#64748b" stroke="#64748b" points="558.38,-39.35 565.27,-36.6 558.17,-34.45 558.38,-39.35"/>
</g>
<!-- n9&#45;&gt;n3 -->
<g id="edge16" class="edge">
<title>n9&#45;&gt;n3</title>
<path fill="none" stroke="#64748b" d="M141.35,-379.6C120.1,-371.7 100.14,-359.61 87,-341.2 77.71,-328.17 78.39,-318.69 87,-305.2 136.19,-228.14 245.9,-197.42 309.94,-185.72"/>
<polygon fill="#64748b" stroke="#64748b" points="310.32,-188.14 316.79,-184.52 309.47,-183.32 310.32,-188.14"/>
</g>
<!-- n9&#45;&gt;n7 -->
<g id="edge17" class="edge">
<title>n9&#45;&gt;n7</title>
<path fill="none" stroke="#64748b" d="M275.6,-376.93C294.24,-367.17 317.38,-354.33 337,-341.2 358.29,-326.96 361.44,-320.47 382,-305.2 396.09,-294.74 412.02,-283.65 425.72,-274.34"/>
<polygon fill="#64748b" stroke="#64748b" points="426.98,-276.45 431.4,-270.5 424.23,-272.39 426.98,-276.45"/>
</g>
<!-- n9&#45;&gt;n8 -->
<g id="edge18" class="edge">
<title>n9&#45;&gt;n8</title>
<path fill="none" stroke="#64748b" d="M233.83,-376.9C230.35,-368.5 226.11,-358.27 222.3,-349.06"/>
<polygon fill="#64748b" stroke="#64748b" points="224.61,-348.23 219.67,-342.7 220.08,-350.11 224.61,-348.23"/>
</g>
<!-- n10 -->
<g id="node11" class="node">
<title>n10</title>
<g id="a_node11"><a xlink:href="vscode://vscode-remote/wsl+Ubuntu/home/gavin/statlib/Statlib/Regression/master_error_bound.lean:17" xlink:title="theorem · Statlib/Regression/master_error_bound.lean:17" target="_blank">
<path fill="#ffe6a3" stroke="#d4a017" d="M876.3,-269.2C876.3,-269.2 793.7,-269.2 793.7,-269.2 787.7,-269.2 781.7,-263.2 781.7,-257.2 781.7,-257.2 781.7,-245.2 781.7,-245.2 781.7,-239.2 787.7,-233.2 793.7,-233.2 793.7,-233.2 876.3,-233.2 876.3,-233.2 882.3,-233.2 888.3,-239.2 888.3,-245.2 888.3,-245.2 888.3,-257.2 888.3,-257.2 888.3,-263.2 882.3,-269.2 876.3,-269.2"/>
<text xml:space="preserve" text-anchor="middle" x="835" y="-248.2" font-family="Helvetica,sans-Serif" font-size="10.00">master_error_bound</text>
</a>
</g>
</g>
<!-- n10&#45;&gt;n0 -->
<g id="edge19" class="edge">
<title>n10&#45;&gt;n0</title>
<path fill="none" stroke="#64748b" d="M829.34,-232.76C820.95,-206.98 806.08,-161.55 805,-160 770.7,-110.77 710.16,-76.05 666.42,-55.89"/>
<polygon fill="#64748b" stroke="#64748b" points="667.5,-53.69 660.11,-53.04 665.48,-58.16 667.5,-53.69"/>
</g>
<!-- n10&#45;&gt;n4 -->
<g id="edge20" class="edge">
<title>n10&#45;&gt;n4</title>
<path fill="none" stroke="#64748b" d="M817.54,-232.84C815.52,-230.39 813.62,-227.81 812,-225.2 795.65,-198.82 809.02,-181.87 787,-160 760.18,-133.35 718.68,-119.9 687.64,-113.24"/>
<polygon fill="#64748b" stroke="#64748b" points="688.41,-110.89 681.07,-111.91 687.44,-115.7 688.41,-110.89"/>
</g>
<!-- n10&#45;&gt;n5 -->
<g id="edge21" class="edge">
<title>n10&#45;&gt;n5</title>
<path fill="none" stroke="#64748b" d="M804.25,-232.78C800.1,-230.3 795.92,-227.73 792,-225.2 780.45,-217.76 768.08,-209.14 757.27,-201.38"/>
<polygon fill="#64748b" stroke="#64748b" points="758.75,-199.43 751.64,-197.31 755.88,-203.4 758.75,-199.43"/>
</g>
<!-- n10&#45;&gt;n6 -->
<g id="edge22" class="edge">
<title>n10&#45;&gt;n6</title>
<path fill="none" stroke="#64748b" d="M848.8,-232.96C856.08,-223.87 865.12,-212.57 873.05,-202.67"/>
<polygon fill="#64748b" stroke="#64748b" points="874.92,-204.25 877.38,-197.26 871.1,-201.19 874.92,-204.25"/>
</g>
<!-- n11 -->
<g id="node12" class="node">
<title>n11</title>
<g id="a_node12"><a xlink:href="vscode://vscode-remote/wsl+Ubuntu/home/gavin/statlib/Statlib/Regression/master_error_bound_localized.lean:14" xlink:title="theorem · Statlib/Regression/master_error_bound_localized.lean:14" target="_blank">
<path fill="#ffe6a3" stroke="#d4a017" d="M915.54,-341.2C915.54,-341.2 788.46,-341.2 788.46,-341.2 782.46,-341.2 776.46,-335.2 776.46,-329.2 776.46,-329.2 776.46,-317.2 776.46,-317.2 776.46,-311.2 782.46,-305.2 788.46,-305.2 788.46,-305.2 915.54,-305.2 915.54,-305.2 921.54,-305.2 927.54,-311.2 927.54,-317.2 927.54,-317.2 927.54,-329.2 927.54,-329.2 927.54,-335.2 921.54,-341.2 915.54,-341.2"/>
<text xml:space="preserve" text-anchor="middle" x="852" y="-320.2" font-family="Helvetica,sans-Serif" font-size="10.00">master_error_bound_localized</text>
</a>
</g>
</g>
<!-- n11&#45;&gt;n0 -->
<g id="edge23" class="edge">
<title>n11&#45;&gt;n0</title>
<path fill="none" stroke="#64748b" d="M881.43,-304.95C906.79,-288.2 941.68,-260.21 957,-225.2 968.62,-198.65 970.15,-185.82 957,-160 904.52,-56.94 752.57,-37.29 669.63,-34.51"/>
<polygon fill="#64748b" stroke="#64748b" points="669.91,-32.06 662.85,-34.32 669.78,-36.96 669.91,-32.06"/>
</g>
<!-- n11&#45;&gt;n4 -->
<g id="edge24" class="edge">
<title>n11&#45;&gt;n4</title>
<path fill="none" stroke="#64748b" d="M816.47,-304.92C795.79,-294.75 769.29,-281.5 746,-269.2 737.12,-264.51 672.83,-233.38 667,-225.2 647.63,-198.02 644.28,-158.6 644.48,-132.88"/>
<polygon fill="#64748b" stroke="#64748b" points="646.93,-132.97 644.64,-125.92 642.03,-132.86 646.93,-132.97"/>
</g>
<!-- n11&#45;&gt;n5 -->
<g id="edge25" class="edge">
<title>n11&#45;&gt;n5</title>
<path fill="none" stroke="#64748b" d="M818.37,-304.84C803.13,-295.76 785.72,-283.53 773,-269.2 755.95,-249.99 743.38,-223.32 735.73,-203.97"/>
<polygon fill="#64748b" stroke="#64748b" points="738.07,-203.24 733.29,-197.58 733.49,-204.99 738.07,-203.24"/>
</g>
<!-- n11&#45;&gt;n6 -->
<g id="edge26" class="edge">
<title>n11&#45;&gt;n6</title>
<path fill="none" stroke="#64748b" d="M872.38,-304.73C881.81,-295.29 892.01,-282.8 897,-269.2 904.66,-248.36 902.31,-222.98 898.69,-204.46"/>
<polygon fill="#64748b" stroke="#64748b" points="901.1,-204.02 897.23,-197.7 896.31,-205.06 901.1,-204.02"/>
</g>
<!-- n11&#45;&gt;n10 -->
<g id="edge27" class="edge">
<title>n11&#45;&gt;n10</title>
<path fill="none" stroke="#64748b" d="M847.8,-304.9C845.78,-296.59 843.32,-286.48 841.11,-277.34"/>
<polygon fill="#64748b" stroke="#64748b" points="843.54,-277 839.51,-270.78 838.78,-278.16 843.54,-277"/>
</g>
<!-- n12 -->
<g id="node13" class="node">
<title>n12</title>
<g id="a_node13"><a xlink:href="vscode://vscode-remote/wsl+Ubuntu/home/gavin/statlib/Statlib/Regression/master_error_bound_probability_interface_structured.lean:13" xlink:title="theorem · Statlib/Regression/master_error_bound_probability_interface_structured.lean:13" target="_blank">
<path fill="#ffe6a3" stroke="#d4a017" d="M665.84,-341.2C665.84,-341.2 438.16,-341.2 438.16,-341.2 432.16,-341.2 426.16,-335.2 426.16,-329.2 426.16,-329.2 426.16,-317.2 426.16,-317.2 426.16,-311.2 432.16,-305.2 438.16,-305.2 438.16,-305.2 665.84,-305.2 665.84,-305.2 671.84,-305.2 677.84,-311.2 677.84,-317.2 677.84,-317.2 677.84,-329.2 677.84,-329.2 677.84,-335.2 671.84,-341.2 665.84,-341.2"/>
<text xml:space="preserve" text-anchor="middle" x="552" y="-320.2" font-family="Helvetica,sans-Serif" font-size="10.00">master_error_bound_probability_interface_structured</text>
</a>
</g>
</g>
<!-- n12&#45;&gt;n2 -->
<g id="edge30" class="edge">
<title>n12&#45;&gt;n2</title>
<path fill="none" stroke="#64748b" d="M678.16,-311.26C814.92,-298.95 1015.73,-279.35 1030,-269.2 1051.37,-254 1062.5,-225.3 1068.03,-204.34"/>
<polygon fill="#64748b" stroke="#64748b" points="1070.38,-205.03 1069.65,-197.65 1065.62,-203.87 1070.38,-205.03"/>
</g>
<!-- n12&#45;&gt;n0 -->
<g id="edge28" class="edge">
<title>n12&#45;&gt;n0</title>
<path fill="none" stroke="#64748b" d="M555.68,-304.86C564.12,-265.09 585.6,-164.24 604,-80 605.42,-73.51 606.97,-66.5 608.41,-59.99"/>
<polygon fill="#64748b" stroke="#64748b" points="610.71,-60.93 609.84,-53.57 605.93,-59.87 610.71,-60.93"/>
</g>
<!-- n12&#45;&gt;n3 -->
<g id="edge31" class="edge">
<title>n12&#45;&gt;n3</title>
<path fill="none" stroke="#64748b" d="M556.93,-304.79C561.33,-285.22 564.9,-253.54 549,-233.2 531.59,-210.93 457.84,-194.87 407.51,-186.25"/>
<polygon fill="#64748b" stroke="#64748b" points="408.14,-183.87 400.83,-185.13 407.33,-188.71 408.14,-183.87"/>
</g>
<!-- n12&#45;&gt;n7 -->
<g id="edge29" class="edge">
<title>n12&#45;&gt;n7</title>
<path fill="none" stroke="#64748b" d="M529.01,-304.9C516.83,-295.73 501.72,-284.36 488.66,-274.53"/>
<polygon fill="#64748b" stroke="#64748b" points="490.32,-272.71 483.26,-270.46 487.38,-276.62 490.32,-272.71"/>
</g>
<!-- n13 -->
<g id="node14" class="node">
<title>n13</title>
<g id="a_node14"><a xlink:href="vscode://vscode-remote/wsl+Ubuntu/home/gavin/statlib/Statlib/Regression/master_error_bound_full_interface_structured.lean:17" xlink:title="theorem · Statlib/Regression/master_error_bound_full_interface_structured.lean:17" target="_blank">
<path fill="#ffe6a3" stroke="#d4a017" d="M949.45,-413.2C949.45,-413.2 754.55,-413.2 754.55,-413.2 748.55,-413.2 742.55,-407.2 742.55,-401.2 742.55,-401.2 742.55,-389.2 742.55,-389.2 742.55,-383.2 748.55,-377.2 754.55,-377.2 754.55,-377.2 949.45,-377.2 949.45,-377.2 955.45,-377.2 961.45,-383.2 961.45,-389.2 961.45,-389.2 961.45,-401.2 961.45,-401.2 961.45,-407.2 955.45,-413.2 949.45,-413.2"/>
<text xml:space="preserve" text-anchor="middle" x="852" y="-392.2" font-family="Helvetica,sans-Serif" font-size="10.00">master_error_bound_full_interface_structured</text>
</a>
</g>
</g>
<!-- n13&#45;&gt;n2 -->
<g id="edge37" class="edge">
<title>n13&#45;&gt;n2</title>
<path fill="none" stroke="#64748b" d="M961.91,-384.92C1021.82,-377.34 1087.46,-364.01 1106,-341.2 1136.28,-303.95 1118.96,-279.42 1106,-233.2 1103.04,-222.65 1097.4,-212.12 1091.61,-203.19"/>
<polygon fill="#64748b" stroke="#64748b" points="1093.8,-202.05 1087.84,-197.65 1089.75,-204.81 1093.8,-202.05"/>
</g>
<!-- n13&#45;&gt;n0 -->
<g id="edge32" class="edge">
<title>n13&#45;&gt;n0</title>
<path fill="none" stroke="#64748b" d="M901.68,-376.8C918.52,-368.53 935.86,-356.92 947,-341.2 993.83,-275.08 992.62,-236.86 967,-160 952.95,-117.84 945.12,-102.84 907,-80 867.95,-56.6 742.92,-44.05 669.41,-38.53"/>
<polygon fill="#64748b" stroke="#64748b" points="669.82,-36.1 662.66,-38.03 669.46,-40.99 669.82,-36.1"/>
</g>
<!-- n13&#45;&gt;n3 -->
<g id="edge38" class="edge">
<title>n13&#45;&gt;n3</title>
<path fill="none" stroke="#64748b" d="M742.25,-392.76C628.06,-389.26 458.71,-377.82 406,-341.2 362.42,-310.92 356.97,-242.38 357.52,-204.82"/>
<polygon fill="#64748b" stroke="#64748b" points="359.96,-204.99 357.71,-197.93 355.06,-204.86 359.96,-204.99"/>
</g>
<!-- n13&#45;&gt;n4 -->
<g id="edge34" class="edge">
<title>n13&#45;&gt;n4</title>
<path fill="none" stroke="#64748b" d="M807.35,-376.71C787.04,-367.67 763.28,-355.52 744,-341.2 716.44,-320.73 653.32,-257.61 642,-225.2 631.34,-194.68 635.31,-157 639.94,-132.5"/>
<polygon fill="#64748b" stroke="#64748b" points="642.29,-133.25 641.28,-125.9 637.48,-132.27 642.29,-133.25"/>
</g>
<!-- n13&#45;&gt;n5 -->
<g id="edge35" class="edge">
<title>n13&#45;&gt;n5</title>
<path fill="none" stroke="#64748b" d="M811.24,-376.93C795.33,-368.33 778.25,-356.45 767,-341.2 736.68,-300.11 729.15,-238.81 727.4,-204.54"/>
<polygon fill="#64748b" stroke="#64748b" points="729.86,-204.85 727.13,-197.95 724.97,-205.05 729.86,-204.85"/>
</g>
<!-- n13&#45;&gt;n6 -->
<g id="edge36" class="edge">
<title>n13&#45;&gt;n6</title>
<path fill="none" stroke="#64748b" d="M897.48,-376.82C912.85,-368.5 928.31,-356.86 937,-341.2 962.05,-296.06 931.1,-235.99 909.51,-203.09"/>
<polygon fill="#64748b" stroke="#64748b" points="911.6,-201.79 905.65,-197.36 907.53,-204.53 911.6,-201.79"/>
</g>
<!-- n13&#45;&gt;n7 -->
<g id="edge33" class="edge">
<title>n13&#45;&gt;n7</title>
<path fill="none" stroke="#64748b" d="M742.27,-388.3C620.52,-380.61 438.28,-365.23 417,-341.2 400.11,-322.12 417.15,-295.07 434.32,-275.8"/>
<polygon fill="#64748b" stroke="#64748b" points="436.1,-277.49 439.07,-270.7 432.51,-274.16 436.1,-277.49"/>
</g>
<!-- n13&#45;&gt;n11 -->
<g id="edge39" class="edge">
<title>n13&#45;&gt;n11</title>
<path fill="none" stroke="#64748b" d="M852,-376.9C852,-368.67 852,-358.68 852,-349.62"/>
<polygon fill="#64748b" stroke="#64748b" points="854.45,-349.82 852,-342.82 849.55,-349.82 854.45,-349.82"/>
</g>
<!-- n13&#45;&gt;n12 -->
<g id="edge40" class="edge">
<title>n13&#45;&gt;n12</title>
<path fill="none" stroke="#64748b" d="M777.07,-376.72C733.86,-366.63 679.44,-353.94 634.94,-343.55"/>
<polygon fill="#64748b" stroke="#64748b" points="635.6,-341.19 628.23,-341.99 634.49,-345.96 635.6,-341.19"/>
</g>
<!-- n14 -->
<g id="node15" class="node">
<title>n14</title>
<g id="a_node15"><a xlink:href="vscode://vscode-remote/wsl+Ubuntu/home/gavin/statlib/Statlib/Regression/master_error_bound_full_interface_of_proxy_structured.lean:16" xlink:title="theorem · Statlib/Regression/master_error_bound_full_interface_of_proxy_structured.lean:16" target="_blank">
<path fill="#ffe6a3" stroke="#d4a017" stroke-width="3" d="M816.4,-485.2C816.4,-485.2 577.6,-485.2 577.6,-485.2 571.6,-485.2 565.6,-479.2 565.6,-473.2 565.6,-473.2 565.6,-461.2 565.6,-461.2 565.6,-455.2 571.6,-449.2 577.6,-449.2 577.6,-449.2 816.4,-449.2 816.4,-449.2 822.4,-449.2 828.4,-455.2 828.4,-461.2 828.4,-461.2 828.4,-473.2 828.4,-473.2 828.4,-479.2 822.4,-485.2 816.4,-485.2"/>
<text xml:space="preserve" text-anchor="middle" x="697" y="-464.2" font-family="Helvetica,sans-Serif" font-size="10.00">master_error_bound_full_interface_of_proxy_structured</text>
</a>
</g>
</g>
<!-- n14&#45;&gt;n2 -->
<g id="edge42" class="edge">
<title>n14&#45;&gt;n2</title>
<path fill="none" stroke="#64748b" d="M827.19,-447.73C942.01,-428.23 1095.95,-393.06 1128,-341.2 1135.46,-329.13 1135.26,-257.26 1125,-233.2 1120.01,-221.51 1111.28,-210.86 1102.38,-202.15"/>
<polygon fill="#64748b" stroke="#64748b" points="1104.14,-200.45 1097.35,-197.48 1100.81,-204.04 1104.14,-200.45"/>
</g>
<!-- n14&#45;&gt;n0 -->
<g id="edge41" class="edge">
<title>n14&#45;&gt;n0</title>
<path fill="none" stroke="#64748b" d="M564.25,-466.71C410.33,-465.22 167.56,-455.85 88,-413.2 43.4,-389.29 17,-374.8 17,-324.2 17,-324.2 17,-324.2 17,-177 17,-127.22 30.96,-106.66 73,-80 113.31,-54.44 428.51,-41.16 558.37,-36.72"/>
<polygon fill="#64748b" stroke="#64748b" points="558.23,-39.18 565.14,-36.5 558.06,-34.28 558.23,-39.18"/>
</g>
<!-- n14&#45;&gt;n3 -->
<g id="edge43" class="edge">
<title>n14&#45;&gt;n3</title>
<path fill="none" stroke="#64748b" d="M564.13,-465.61C421.24,-462.9 204.84,-452.21 133,-413.2 97.13,-393.72 89.41,-379.75 76,-341.2 59.18,-292.86 74.99,-263.83 116,-233.2 173.03,-190.6 257.25,-180.38 310.08,-178.51"/>
<polygon fill="#64748b" stroke="#64748b" points="309.83,-180.97 316.76,-178.32 309.7,-176.07 309.83,-180.97"/>
</g>
<!-- n14&#45;&gt;n4 -->
<g id="edge44" class="edge">
<title>n14&#45;&gt;n4</title>
<path fill="none" stroke="#64748b" d="M697.69,-447.83C698.79,-410.99 699.65,-329.56 687,-305.2 675.19,-282.47 655.83,-290.76 642,-269.2 631.11,-252.24 633.46,-245.21 631,-225.2 627.46,-196.44 627.02,-188.7 631,-160 632.28,-150.81 634.74,-140.98 637.3,-132.31"/>
<polygon fill="#64748b" stroke="#64748b" points="639.57,-133.26 639.31,-125.85 634.89,-131.81 639.57,-133.26"/>
</g>
<!-- n14&#45;&gt;n5 -->
<g id="edge45" class="edge">
<title>n14&#45;&gt;n5</title>
<path fill="none" stroke="#64748b" d="M698.92,-447.8C704.1,-398.2 718.36,-261.68 724.33,-204.61"/>
<polygon fill="#64748b" stroke="#64748b" points="726.76,-204.88 725.05,-197.66 721.89,-204.37 726.76,-204.88"/>
</g>
<!-- n14&#45;&gt;n6 -->
<g id="edge46" class="edge">
<title>n14&#45;&gt;n6</title>
<path fill="none" stroke="#64748b" d="M829.56,-456.28C889.67,-448.76 951.46,-435.69 970,-413.2 996.31,-381.29 1001.96,-359.25 939,-233.2 933.45,-222.08 925.08,-211.4 916.94,-202.5"/>
<polygon fill="#64748b" stroke="#64748b" points="918.74,-200.83 912.14,-197.45 915.19,-204.21 918.74,-200.83"/>
</g>
<!-- n14&#45;&gt;n7 -->
<g id="edge47" class="edge">
<title>n14&#45;&gt;n7</title>
<path fill="none" stroke="#64748b" d="M580.54,-447.78C517.47,-431.22 444.72,-399.97 406,-341.2 397.2,-327.84 399.88,-319.98 406,-305.2 410.73,-293.77 419.26,-283.52 428.11,-275.15"/>
<polygon fill="#64748b" stroke="#64748b" points="429.53,-277.17 433.12,-270.68 426.27,-273.51 429.53,-277.17"/>
</g>
<!-- n14&#45;&gt;n9 -->
<g id="edge48" class="edge">
<title>n14&#45;&gt;n9</title>
<path fill="none" stroke="#64748b" d="M576.59,-447.72C505.98,-436.88 417.5,-423.29 349.12,-412.8"/>
<polygon fill="#64748b" stroke="#64748b" points="349.67,-410.4 342.38,-411.76 348.92,-415.25 349.67,-410.4"/>
</g>
<!-- n14&#45;&gt;n13 -->
<g id="edge49" class="edge">
<title>n14&#45;&gt;n13</title>
<path fill="none" stroke="#64748b" d="M737.72,-447.81C758.67,-438.35 784.27,-426.79 805.93,-417.01"/>
<polygon fill="#64748b" stroke="#64748b" points="806.66,-419.36 812.04,-414.25 804.65,-414.9 806.66,-419.36"/>
</g>
</g>
</svg>
