<?xml version="1.0" encoding="UTF-8" standalone="no"?>
<!DOCTYPE svg PUBLIC "-//W3C//DTD SVG 1.1//EN"
 "http://www.w3.org/Graphics/SVG/1.1/DTD/svg11.dtd">
<!-- Generated by graphviz version 15.0.0 (20260523.1842)
 -->
<!-- Title: regression_full_interface_of_process_and_entropy_structured_master_bound Pages: 1 -->
<svg width="1274pt" height="627pt"
 viewBox="0.00 0.00 1274.00 627.00" xmlns="http://www.w3.org/2000/svg" xmlns:xlink="http://www.w3.org/1999/xlink">
<g id="graph0" class="graph" transform="scale(1 1) rotate(0) translate(4 623.2)">
<title>regression_full_interface_of_process_and_entropy_structured_master_bound</title>
<polygon fill="white" stroke="none" points="-4,4 -4,-623.2 1269.55,-623.2 1269.55,4 -4,4"/>
<text xml:space="preserve" text-anchor="middle" x="632.77" y="-602.6" font-family="Helvetica,sans-Serif" font-size="14.00">Proof narrative — regression_full_interface_of_process_and_entropy_structured_master_bound &#160;(17 decls)</text>
<g id="clust1" class="cluster">
<title>cluster_0</title>
<path fill="none" stroke="#cbd5e1" stroke-dasharray="5,2" d="M1158,-80C1158,-80 1230,-80 1230,-80 1236,-80 1242,-86 1242,-92 1242,-92 1242,-213.2 1242,-213.2 1242,-219.2 1236,-225.2 1230,-225.2 1230,-225.2 1158,-225.2 1158,-225.2 1152,-225.2 1146,-219.2 1146,-213.2 1146,-213.2 1146,-92 1146,-92 1146,-86 1152,-80 1158,-80"/>
<text xml:space="preserve" text-anchor="middle" x="1194" y="-211.3" font-family="Helvetica,sans-Serif" font-size="11.00">Gaussian</text>
</g>
<g id="clust2" class="cluster">
<title>cluster_1</title>
<path fill="none" stroke="#cbd5e1" stroke-dasharray="5,2" d="M20,-8C20,-8 1124,-8 1124,-8 1130,-8 1136,-14 1136,-20 1136,-20 1136,-574.4 1136,-574.4 1136,-580.4 1130,-586.4 1124,-586.4 1124,-586.4 20,-586.4 20,-586.4 14,-586.4 8,-580.4 8,-574.4 8,-574.4 8,-20 8,-20 8,-14 14,-8 20,-8"/>
<text xml:space="preserve" text-anchor="middle" x="572" y="-572.5" font-family="Helvetica,sans-Serif" font-size="11.00">Regression</text>
</g>
<!-- n5 -->
<g id="node1" class="node">
<title>n5</title>
<g id="a_node1"><a xlink:href="vscode://vscode-remote/wsl+Ubuntu/home/gavin/statlib/Statlib/Gaussian/Basic.lean:29" xlink:title="abbrev · Statlib/Gaussian/Basic.lean:29" target="_blank">
<path fill="#d6e9ff" stroke="#3b82f6" d="M1217.79,-124C1217.79,-124 1170.21,-124 1170.21,-124 1164.21,-124 1158.21,-118 1158.21,-112 1158.21,-112 1158.21,-100 1158.21,-100 1158.21,-94 1164.21,-88 1170.21,-88 1170.21,-88 1217.79,-88 1217.79,-88 1223.79,-88 1229.79,-94 1229.79,-100 1229.79,-100 1229.79,-112 1229.79,-112 1229.79,-118 1223.79,-124 1217.79,-124"/>
<text xml:space="preserve" text-anchor="middle" x="1194" y="-103" font-family="Helvetica,sans-Serif" font-size="10.00">stdGaussian</text>
</a>
</g>
</g>
<!-- n6 -->
<g id="node2" class="node">
<title>n6</title>
<g id="a_node2"><a xlink:href="vscode://vscode-remote/wsl+Ubuntu/home/gavin/statlib/Statlib/Gaussian/Basic.lean:32" xlink:title="def · Statlib/Gaussian/Basic.lean:32" target="_blank">
<path fill="#d6e9ff" stroke="#3b82f6" d="M1222.24,-196C1222.24,-196 1165.76,-196 1165.76,-196 1159.76,-196 1153.76,-190 1153.76,-184 1153.76,-184 1153.76,-172 1153.76,-172 1153.76,-166 1159.76,-160 1165.76,-160 1165.76,-160 1222.24,-160 1222.24,-160 1228.24,-160 1234.24,-166 1234.24,-172 1234.24,-172 1234.24,-184 1234.24,-184 1234.24,-190 1228.24,-196 1222.24,-196"/>
<text xml:space="preserve" text-anchor="middle" x="1194" y="-175" font-family="Helvetica,sans-Serif" font-size="10.00">stdGaussianPi</text>
</a>
</g>
</g>
<!-- n6&#45;&gt;n5 -->
<g id="edge6" class="edge">
<title>n6&#45;&gt;n5</title>
<path fill="none" stroke="#64748b" d="M1194,-159.7C1194,-151.47 1194,-141.48 1194,-132.42"/>
<polygon fill="#64748b" stroke="#64748b" points="1196.45,-132.62 1194,-125.62 1191.55,-132.62 1196.45,-132.62"/>
</g>
<!-- n0 -->
<g id="node3" class="node">
<title>n0</title>
<g id="a_node3"><a xlink:href="vscode://vscode-remote/wsl+Ubuntu/home/gavin/statlib/Statlib/Regression/Basic.lean:29" xlink:title="structure · Statlib/Regression/Basic.lean:29" target="_blank">
<path fill="#e8dcff" stroke="#8b5cf6" d="M581.91,-52C581.91,-52 512.09,-52 512.09,-52 506.09,-52 500.09,-46 500.09,-40 500.09,-40 500.09,-28 500.09,-28 500.09,-22 506.09,-16 512.09,-16 512.09,-16 581.91,-16 581.91,-16 587.91,-16 593.91,-22 593.91,-28 593.91,-28 593.91,-40 593.91,-40 593.91,-46 587.91,-52 581.91,-52"/>
<text xml:space="preserve" text-anchor="middle" x="547" y="-31" font-family="Helvetica,sans-Serif" font-size="10.00">RegressionModel</text>
</a>
</g>
</g>
<!-- n1 -->
<g id="node4" class="node">
<title>n1</title>
<g id="a_node4"><a xlink:href="vscode://vscode-remote/wsl+Ubuntu/home/gavin/statlib/Statlib/Regression/empiricalNorm.lean:10" xlink:title="def · Statlib/Regression/empiricalNorm.lean:10" target="_blank">
<path fill="#d6e9ff" stroke="#3b82f6" d="M415.23,-196C415.23,-196 358.77,-196 358.77,-196 352.77,-196 346.77,-190 346.77,-184 346.77,-184 346.77,-172 346.77,-172 346.77,-166 352.77,-160 358.77,-160 358.77,-160 415.23,-160 415.23,-160 421.23,-160 427.23,-166 427.23,-172 427.23,-172 427.23,-184 427.23,-184 427.23,-190 421.23,-196 415.23,-196"/>
<text xml:space="preserve" text-anchor="middle" x="387" y="-175" font-family="Helvetica,sans-Serif" font-size="10.00">empiricalNorm</text>
</a>
</g>
</g>
<!-- n1&#45;&gt;n0 -->
<g id="edge1" class="edge">
<title>n1&#45;&gt;n0</title>
<path fill="none" stroke="#64748b" d="M392.86,-159.69C400.89,-138.36 417.19,-102.2 442,-80 456.16,-67.33 474.43,-57.84 491.75,-50.92"/>
<polygon fill="#64748b" stroke="#64748b" points="492.54,-53.24 498.21,-48.46 490.8,-48.66 492.54,-53.24"/>
</g>
<!-- n2 -->
<g id="node5" class="node">
<title>n2</title>
<g id="a_node5"><a xlink:href="vscode://vscode-remote/wsl+Ubuntu/home/gavin/statlib/Statlib/Regression/estimationErrorUpper.lean:11" xlink:title="def · Statlib/Regression/estimationErrorUpper.lean:11" target="_blank">
<path fill="#d6e9ff" stroke="#3b82f6" d="M1090.52,-196C1090.52,-196 1003.48,-196 1003.48,-196 997.48,-196 991.48,-190 991.48,-184 991.48,-184 991.48,-172 991.48,-172 991.48,-166 997.48,-160 1003.48,-160 1003.48,-160 1090.52,-160 1090.52,-160 1096.52,-160 1102.52,-166 1102.52,-172 1102.52,-172 1102.52,-184 1102.52,-184 1102.52,-190 1096.52,-196 1090.52,-196"/>
<text xml:space="preserve" text-anchor="middle" x="1047" y="-175" font-family="Helvetica,sans-Serif" font-size="10.00">estimationErrorUpper</text>
</a>
</g>
</g>
<!-- n2&#45;&gt;n0 -->
<g id="edge2" class="edge">
<title>n2&#45;&gt;n0</title>
<path fill="none" stroke="#64748b" d="M1032.85,-159.85C1013.09,-137.26 974.94,-98.25 933,-80 874.96,-54.74 694.62,-42.33 602.45,-37.51"/>
<polygon fill="#64748b" stroke="#64748b" points="602.71,-35.07 595.6,-37.16 602.46,-39.96 602.71,-35.07"/>
</g>
<!-- n3 -->
<g id="node6" class="node">
<title>n3</title>
<g id="a_node6"><a xlink:href="vscode://vscode-remote/wsl+Ubuntu/home/gavin/statlib/Statlib/Regression/Basic.lean:44" xlink:title="def · Statlib/Regression/Basic.lean:44" target="_blank">
<path fill="#d6e9ff" stroke="#3b82f6" d="M674.28,-124C674.28,-124 631.72,-124 631.72,-124 625.72,-124 619.72,-118 619.72,-112 619.72,-112 619.72,-100 619.72,-100 619.72,-94 625.72,-88 631.72,-88 631.72,-88 674.28,-88 674.28,-88 680.28,-88 686.28,-94 686.28,-100 686.28,-100 686.28,-112 686.28,-112 686.28,-118 680.28,-124 674.28,-124"/>
<text xml:space="preserve" text-anchor="middle" x="653" y="-103" font-family="Helvetica,sans-Serif" font-size="10.00">excessRisk</text>
</a>
</g>
</g>
<!-- n3&#45;&gt;n0 -->
<g id="edge3" class="edge">
<title>n3&#45;&gt;n0</title>
<path fill="none" stroke="#64748b" d="M626.53,-87.52C612.51,-78.26 595.15,-66.8 580.24,-56.95"/>
<polygon fill="#64748b" stroke="#64748b" points="581.59,-54.91 574.4,-53.09 578.89,-59 581.59,-54.91"/>
</g>
<!-- n4 -->
<g id="node7" class="node">
<title>n4</title>
<g id="a_node7"><a xlink:href="vscode://vscode-remote/wsl+Ubuntu/home/gavin/statlib/Statlib/Regression/approximationError.lean:10" xlink:title="def · Statlib/Regression/approximationError.lean:10" target="_blank">
<path fill="#d6e9ff" stroke="#3b82f6" d="M849.52,-196C849.52,-196 772.48,-196 772.48,-196 766.48,-196 760.48,-190 760.48,-184 760.48,-184 760.48,-172 760.48,-172 760.48,-166 766.48,-160 772.48,-160 772.48,-160 849.52,-160 849.52,-160 855.52,-160 861.52,-166 861.52,-172 861.52,-172 861.52,-184 861.52,-184 861.52,-190 855.52,-196 849.52,-196"/>
<text xml:space="preserve" text-anchor="middle" x="811" y="-175" font-family="Helvetica,sans-Serif" font-size="10.00">approximationError</text>
</a>
</g>
</g>
<!-- n4&#45;&gt;n0 -->
<g id="edge4" class="edge">
<title>n4&#45;&gt;n0</title>
<path fill="none" stroke="#64748b" d="M800.66,-159.77C786.56,-137.83 759.24,-100.32 726,-80 688.38,-57 639.49,-45.73 602.32,-40.21"/>
<polygon fill="#64748b" stroke="#64748b" points="602.86,-37.82 595.59,-39.27 602.18,-42.67 602.86,-37.82"/>
</g>
<!-- n4&#45;&gt;n3 -->
<g id="edge5" class="edge">
<title>n4&#45;&gt;n3</title>
<path fill="none" stroke="#64748b" d="M771.54,-159.52C747.95,-149.07 718.02,-135.81 694.14,-125.23"/>
<polygon fill="#64748b" stroke="#64748b" points="695.39,-123.1 688,-122.51 693.41,-127.58 695.39,-123.1"/>
</g>
<!-- n7 -->
<g id="node8" class="node">
<title>n7</title>
<g id="a_node8"><a xlink:href="vscode://vscode-remote/wsl+Ubuntu/home/gavin/statlib/Statlib/Regression/LocalizedProbabilityAssumptions.lean:12" xlink:title="structure · Statlib/Regression/LocalizedProbabilityAssumptions.lean:12" target="_blank">
<path fill="#e8dcff" stroke="#8b5cf6" d="M396.09,-269.2C396.09,-269.2 257.91,-269.2 257.91,-269.2 251.91,-269.2 245.91,-263.2 245.91,-257.2 245.91,-257.2 245.91,-245.2 245.91,-245.2 245.91,-239.2 251.91,-233.2 257.91,-233.2 257.91,-233.2 396.09,-233.2 396.09,-233.2 402.09,-233.2 408.09,-239.2 408.09,-245.2 408.09,-245.2 408.09,-257.2 408.09,-257.2 408.09,-263.2 402.09,-269.2 396.09,-269.2"/>
<text xml:space="preserve" text-anchor="middle" x="327" y="-248.2" font-family="Helvetica,sans-Serif" font-size="10.00">LocalizedProbabilityAssumptions</text>
</a>
</g>
</g>
<!-- n7&#45;&gt;n6 -->
<g id="edge8" class="edge">
<title>n7&#45;&gt;n6</title>
<path fill="none" stroke="#64748b" d="M408.38,-245.37C477.23,-241.47 578.54,-236.16 667,-233.2 693.27,-232.32 1115.42,-234.52 1140,-225.2 1152.56,-220.44 1164.2,-211.37 1173.44,-202.52"/>
<polygon fill="#64748b" stroke="#64748b" points="1175.17,-204.25 1178.36,-197.56 1171.69,-200.8 1175.17,-204.25"/>
</g>
<!-- n7&#45;&gt;n0 -->
<g id="edge7" class="edge">
<title>n7&#45;&gt;n0</title>
<path fill="none" stroke="#64748b" d="M326.25,-232.82C326.09,-214.08 327.7,-183.74 338,-160 356.46,-117.45 366.47,-105.81 405,-80 430.91,-62.64 463.92,-51.65 491.59,-44.88"/>
<polygon fill="#64748b" stroke="#64748b" points="491.89,-47.33 498.15,-43.34 490.77,-42.56 491.89,-47.33"/>
</g>
<!-- n7&#45;&gt;n1 -->
<g id="edge9" class="edge">
<title>n7&#45;&gt;n1</title>
<path fill="none" stroke="#64748b" d="M341.52,-232.96C349.26,-223.78 358.89,-212.35 367.3,-202.38"/>
<polygon fill="#64748b" stroke="#64748b" points="369,-204.17 371.63,-197.23 365.25,-201.01 369,-204.17"/>
</g>
<!-- n8 -->
<g id="node9" class="node">
<title>n8</title>
<g id="a_node9"><a xlink:href="vscode://vscode-remote/wsl+Ubuntu/home/gavin/statlib/Statlib/Regression/LocalizedProbabilityAssumptions_ofDeterministic.lean:13" xlink:title="lemma · Statlib/Regression/LocalizedProbabilityAssumptions_ofDeterministic.lean:13" target="_blank">
<path fill="#eef2f6" stroke="#94a3b8" d="M315.55,-341.2C315.55,-341.2 108.45,-341.2 108.45,-341.2 102.45,-341.2 96.45,-335.2 96.45,-329.2 96.45,-329.2 96.45,-317.2 96.45,-317.2 96.45,-311.2 102.45,-305.2 108.45,-305.2 108.45,-305.2 315.55,-305.2 315.55,-305.2 321.55,-305.2 327.55,-311.2 327.55,-317.2 327.55,-317.2 327.55,-329.2 327.55,-329.2 327.55,-335.2 321.55,-341.2 315.55,-341.2"/>
<text xml:space="preserve" text-anchor="middle" x="212" y="-320.2" font-family="Helvetica,sans-Serif" font-size="10.00">LocalizedProbabilityAssumptions.ofDeterministic</text>
</a>
</g>
</g>
<!-- n8&#45;&gt;n6 -->
<g id="edge11" class="edge">
<title>n8&#45;&gt;n6</title>
<path fill="none" stroke="#64748b" d="M328.02,-314.75C555.25,-300.15 1037,-269.2 1037,-269.2 1085.42,-257.66 1097.71,-251.46 1140,-225.2 1150.63,-218.6 1161.31,-209.98 1170.33,-201.98"/>
<polygon fill="#64748b" stroke="#64748b" points="1171.93,-203.83 1175.46,-197.31 1168.64,-200.21 1171.93,-203.83"/>
</g>
<!-- n8&#45;&gt;n0 -->
<g id="edge10" class="edge">
<title>n8&#45;&gt;n0</title>
<path fill="none" stroke="#64748b" d="M209.17,-304.75C206.93,-286.26 205.57,-256.57 215,-233.2 249.29,-148.22 274.06,-126.54 353,-80 395.4,-55 450.65,-43.89 491.33,-38.95"/>
<polygon fill="#64748b" stroke="#64748b" points="491.6,-41.39 498.28,-38.16 491.05,-36.52 491.6,-41.39"/>
</g>
<!-- n8&#45;&gt;n1 -->
<g id="edge12" class="edge">
<title>n8&#45;&gt;n1</title>
<path fill="none" stroke="#64748b" d="M212.32,-304.88C213.61,-285.11 218.64,-252.95 237,-233.2 263.24,-204.97 305.3,-191.41 338.21,-184.92"/>
<polygon fill="#64748b" stroke="#64748b" points="338.44,-187.37 344.88,-183.69 337.55,-182.55 338.44,-187.37"/>
</g>
<!-- n8&#45;&gt;n7 -->
<g id="edge13" class="edge">
<title>n8&#45;&gt;n7</title>
<path fill="none" stroke="#64748b" d="M240.72,-304.72C256.07,-295.38 275.1,-283.79 291.38,-273.88"/>
<polygon fill="#64748b" stroke="#64748b" points="292.64,-275.98 297.35,-270.25 290.1,-271.79 292.64,-275.98"/>
</g>
<!-- n9 -->
<g id="node10" class="node">
<title>n9</title>
<g id="a_node10"><a xlink:href="vscode://vscode-remote/wsl+Ubuntu/home/gavin/statlib/Statlib/Regression/LocalizedProbabilityAssumptions_ofProcessAndEntropy.lean:15" xlink:title="lemma · Statlib/Regression/LocalizedProbabilityAssumptions_ofProcessAndEntropy.lean:15" target="_blank">
<path fill="#eef2f6" stroke="#94a3b8" d="M333.84,-413.2C333.84,-413.2 96.16,-413.2 96.16,-413.2 90.16,-413.2 84.16,-407.2 84.16,-401.2 84.16,-401.2 84.16,-389.2 84.16,-389.2 84.16,-383.2 90.16,-377.2 96.16,-377.2 96.16,-377.2 333.84,-377.2 333.84,-377.2 339.84,-377.2 345.84,-383.2 345.84,-389.2 345.84,-389.2 345.84,-401.2 345.84,-401.2 345.84,-407.2 339.84,-413.2 333.84,-413.2"/>
<text xml:space="preserve" text-anchor="middle" x="215" y="-392.2" font-family="Helvetica,sans-Serif" font-size="10.00">LocalizedProbabilityAssumptions.ofProcessAndEntropy</text>
</a>
</g>
</g>
<!-- n9&#45;&gt;n6 -->
<g id="edge15" class="edge">
<title>n9&#45;&gt;n6</title>
<path fill="none" stroke="#64748b" d="M346.03,-389.06C531.21,-381.1 859.99,-364.3 977,-341.2 1076.69,-321.52 1134.53,-351.59 1194,-269.2 1207.33,-250.73 1205.51,-224.12 1201.46,-204.59"/>
<polygon fill="#64748b" stroke="#64748b" points="1203.87,-204.17 1199.89,-197.91 1199.1,-205.28 1203.87,-204.17"/>
</g>
<!-- n9&#45;&gt;n0 -->
<g id="edge14" class="edge">
<title>n9&#45;&gt;n0</title>
<path fill="none" stroke="#64748b" d="M138.78,-376.79C116.8,-368.83 94.15,-357.42 77,-341.2 45.49,-311.4 37,-295.57 37,-252.2 37,-252.2 37,-252.2 37,-177 37,-83.47 359.37,-48.9 491.51,-38.66"/>
<polygon fill="#64748b" stroke="#64748b" points="491.63,-41.11 498.43,-38.14 491.26,-36.22 491.63,-41.11"/>
</g>
<!-- n9&#45;&gt;n1 -->
<g id="edge16" class="edge">
<title>n9&#45;&gt;n1</title>
<path fill="none" stroke="#64748b" d="M133.17,-376.76C115.03,-368.93 97.96,-357.6 87,-341.2 78.11,-327.9 78.92,-319.01 87,-305.2 138.6,-216.97 267.07,-190.42 338.01,-182.43"/>
<polygon fill="#64748b" stroke="#64748b" points="338.16,-184.88 344.86,-181.71 337.65,-180.01 338.16,-184.88"/>
</g>
<!-- n9&#45;&gt;n7 -->
<g id="edge17" class="edge">
<title>n9&#45;&gt;n7</title>
<path fill="none" stroke="#64748b" d="M291.17,-376.82C309.17,-368.97 326.23,-357.61 337,-341.2 349.33,-322.4 344.54,-296.44 338.04,-277.41"/>
<polygon fill="#64748b" stroke="#64748b" points="340.35,-276.59 335.61,-270.88 335.75,-278.3 340.35,-276.59"/>
</g>
<!-- n9&#45;&gt;n8 -->
<g id="edge18" class="edge">
<title>n9&#45;&gt;n8</title>
<path fill="none" stroke="#64748b" d="M214.26,-376.9C213.91,-368.67 213.48,-358.68 213.09,-349.62"/>
<polygon fill="#64748b" stroke="#64748b" points="215.55,-349.71 212.8,-342.82 210.65,-349.92 215.55,-349.71"/>
</g>
<!-- n10 -->
<g id="node11" class="node">
<title>n10</title>
<g id="a_node11"><a xlink:href="vscode://vscode-remote/wsl+Ubuntu/home/gavin/statlib/Statlib/Regression/master_error_bound.lean:17" xlink:title="theorem · Statlib/Regression/master_error_bound.lean:17" target="_blank">
<path fill="#ffe6a3" stroke="#d4a017" d="M770.3,-269.2C770.3,-269.2 687.7,-269.2 687.7,-269.2 681.7,-269.2 675.7,-263.2 675.7,-257.2 675.7,-257.2 675.7,-245.2 675.7,-245.2 675.7,-239.2 681.7,-233.2 687.7,-233.2 687.7,-233.2 770.3,-233.2 770.3,-233.2 776.3,-233.2 782.3,-239.2 782.3,-245.2 782.3,-245.2 782.3,-257.2 782.3,-257.2 782.3,-263.2 776.3,-269.2 770.3,-269.2"/>
<text xml:space="preserve" text-anchor="middle" x="729" y="-248.2" font-family="Helvetica,sans-Serif" font-size="10.00">master_error_bound</text>
</a>
</g>
</g>
<!-- n10&#45;&gt;n0 -->
<g id="edge19" class="edge">
<title>n10&#45;&gt;n0</title>
<path fill="none" stroke="#64748b" d="M730.89,-232.71C733.54,-198.72 734.26,-123.31 695,-80 671.65,-54.25 634.08,-43.03 602.64,-38.24"/>
<polygon fill="#64748b" stroke="#64748b" points="603.14,-35.83 595.87,-37.31 602.47,-40.69 603.14,-35.83"/>
</g>
<!-- n10&#45;&gt;n2 -->
<g id="edge22" class="edge">
<title>n10&#45;&gt;n2</title>
<path fill="none" stroke="#64748b" d="M782.47,-241.86C809.17,-237.42 841.9,-231.57 871,-225.2 908.43,-217.01 949.89,-206.21 983.17,-197.11"/>
<polygon fill="#64748b" stroke="#64748b" points="983.45,-199.58 989.55,-195.36 982.15,-194.85 983.45,-199.58"/>
</g>
<!-- n10&#45;&gt;n3 -->
<g id="edge20" class="edge">
<title>n10&#45;&gt;n3</title>
<path fill="none" stroke="#64748b" d="M719.83,-232.93C706.42,-207.66 681.39,-160.5 666.06,-131.61"/>
<polygon fill="#64748b" stroke="#64748b" points="668.36,-130.71 662.91,-125.67 664.03,-133 668.36,-130.71"/>
</g>
<!-- n10&#45;&gt;n4 -->
<g id="edge21" class="edge">
<title>n10&#45;&gt;n4</title>
<path fill="none" stroke="#64748b" d="M748.85,-232.96C759.65,-223.59 773.14,-211.87 784.79,-201.75"/>
<polygon fill="#64748b" stroke="#64748b" points="786.23,-203.76 789.91,-197.32 783.01,-200.06 786.23,-203.76"/>
</g>
<!-- n11 -->
<g id="node12" class="node">
<title>n11</title>
<g id="a_node12"><a xlink:href="vscode://vscode-remote/wsl+Ubuntu/home/gavin/statlib/Statlib/Regression/master_error_bound_localized.lean:14" xlink:title="theorem · Statlib/Regression/master_error_bound_localized.lean:14" target="_blank">
<path fill="#ffe6a3" stroke="#d4a017" d="M955.54,-341.2C955.54,-341.2 828.46,-341.2 828.46,-341.2 822.46,-341.2 816.46,-335.2 816.46,-329.2 816.46,-329.2 816.46,-317.2 816.46,-317.2 816.46,-311.2 822.46,-305.2 828.46,-305.2 828.46,-305.2 955.54,-305.2 955.54,-305.2 961.54,-305.2 967.54,-311.2 967.54,-317.2 967.54,-317.2 967.54,-329.2 967.54,-329.2 967.54,-335.2 961.54,-341.2 955.54,-341.2"/>
<text xml:space="preserve" text-anchor="middle" x="892" y="-320.2" font-family="Helvetica,sans-Serif" font-size="10.00">master_error_bound_localized</text>
</a>
</g>
</g>
<!-- n11&#45;&gt;n0 -->
<g id="edge23" class="edge">
<title>n11&#45;&gt;n0</title>
<path fill="none" stroke="#64748b" d="M815.99,-310.64C744.06,-299.09 645.03,-281.34 631,-269.2 626.85,-265.61 576.25,-119.83 555.65,-60.12"/>
<polygon fill="#64748b" stroke="#64748b" points="558.04,-59.53 553.44,-53.72 553.4,-61.13 558.04,-59.53"/>
</g>
<!-- n11&#45;&gt;n2 -->
<g id="edge26" class="edge">
<title>n11&#45;&gt;n2</title>
<path fill="none" stroke="#64748b" d="M967.96,-311.09C993.67,-303.49 1020.12,-290.71 1037,-269.2 1051.23,-251.06 1052.46,-224.18 1050.9,-204.49"/>
<polygon fill="#64748b" stroke="#64748b" points="1053.37,-204.49 1050.21,-197.77 1048.49,-204.98 1053.37,-204.49"/>
</g>
<!-- n11&#45;&gt;n3 -->
<g id="edge24" class="edge">
<title>n11&#45;&gt;n3</title>
<path fill="none" stroke="#64748b" d="M816.06,-307.8C747.75,-294.48 657.29,-275.78 652,-269.2 620.65,-230.18 633.32,-167.15 643.99,-132.26"/>
<polygon fill="#64748b" stroke="#64748b" points="646.23,-133.3 646.03,-125.88 641.57,-131.8 646.23,-133.3"/>
</g>
<!-- n11&#45;&gt;n4 -->
<g id="edge25" class="edge">
<title>n11&#45;&gt;n4</title>
<path fill="none" stroke="#64748b" d="M853.65,-304.75C839.31,-296.18 824.46,-284.37 816,-269.2 805.01,-249.48 804.8,-223.42 806.72,-204.38"/>
<polygon fill="#64748b" stroke="#64748b" points="809.12,-204.92 807.54,-197.68 804.25,-204.33 809.12,-204.92"/>
</g>
<!-- n11&#45;&gt;n10 -->
<g id="edge27" class="edge">
<title>n11&#45;&gt;n10</title>
<path fill="none" stroke="#64748b" d="M851.29,-304.72C828.84,-295.08 800.82,-283.04 777.28,-272.93"/>
<polygon fill="#64748b" stroke="#64748b" points="778.26,-270.69 770.87,-270.18 776.33,-275.19 778.26,-270.69"/>
</g>
<!-- n12 -->
<g id="node13" class="node">
<title>n12</title>
<g id="a_node13"><a xlink:href="vscode://vscode-remote/wsl+Ubuntu/home/gavin/statlib/Statlib/Regression/master_error_bound_probability_interface_structured.lean:13" xlink:title="theorem · Statlib/Regression/master_error_bound_probability_interface_structured.lean:13" target="_blank">
<path fill="#ffe6a3" stroke="#d4a017" d="M725.84,-341.2C725.84,-341.2 498.16,-341.2 498.16,-341.2 492.16,-341.2 486.16,-335.2 486.16,-329.2 486.16,-329.2 486.16,-317.2 486.16,-317.2 486.16,-311.2 492.16,-305.2 498.16,-305.2 498.16,-305.2 725.84,-305.2 725.84,-305.2 731.84,-305.2 737.84,-311.2 737.84,-317.2 737.84,-317.2 737.84,-329.2 737.84,-329.2 737.84,-335.2 731.84,-341.2 725.84,-341.2"/>
<text xml:space="preserve" text-anchor="middle" x="612" y="-320.2" font-family="Helvetica,sans-Serif" font-size="10.00">master_error_bound_probability_interface_structured</text>
</a>
</g>
</g>
<!-- n12&#45;&gt;n6 -->
<g id="edge30" class="edge">
<title>n12&#45;&gt;n6</title>
<path fill="none" stroke="#64748b" d="M738.14,-311.11C901.47,-296.62 1165.9,-272.67 1170,-269.2 1188.5,-253.53 1193.57,-225.36 1194.6,-204.66"/>
<polygon fill="#64748b" stroke="#64748b" points="1197.04,-204.88 1194.77,-197.82 1192.14,-204.75 1197.04,-204.88"/>
</g>
<!-- n12&#45;&gt;n0 -->
<g id="edge28" class="edge">
<title>n12&#45;&gt;n0</title>
<path fill="none" stroke="#64748b" d="M583.57,-304.87C571.52,-295.87 558.73,-283.7 552,-269.2 519.67,-199.51 532.33,-105.14 541.19,-60.47"/>
<polygon fill="#64748b" stroke="#64748b" points="543.57,-61.05 542.59,-53.7 538.77,-60.06 543.57,-61.05"/>
</g>
<!-- n12&#45;&gt;n1 -->
<g id="edge31" class="edge">
<title>n12&#45;&gt;n1</title>
<path fill="none" stroke="#64748b" d="M584.86,-304.93C543.89,-278.85 466.3,-229.47 421.42,-200.9"/>
<polygon fill="#64748b" stroke="#64748b" points="422.73,-198.84 415.51,-197.15 420.1,-202.97 422.73,-198.84"/>
</g>
<!-- n12&#45;&gt;n7 -->
<g id="edge29" class="edge">
<title>n12&#45;&gt;n7</title>
<path fill="none" stroke="#64748b" d="M540.82,-304.72C499.77,-294.64 448.09,-281.94 405.82,-271.56"/>
<polygon fill="#64748b" stroke="#64748b" points="406.62,-269.23 399.24,-269.94 405.45,-273.99 406.62,-269.23"/>
</g>
<!-- n13 -->
<g id="node14" class="node">
<title>n13</title>
<g id="a_node14"><a xlink:href="vscode://vscode-remote/wsl+Ubuntu/home/gavin/statlib/Statlib/Regression/master_error_bound_full_interface_structured.lean:17" xlink:title="theorem · Statlib/Regression/master_error_bound_full_interface_structured.lean:17" target="_blank">
<path fill="#ffe6a3" stroke="#d4a017" d="M894.45,-413.2C894.45,-413.2 699.55,-413.2 699.55,-413.2 693.55,-413.2 687.55,-407.2 687.55,-401.2 687.55,-401.2 687.55,-389.2 687.55,-389.2 687.55,-383.2 693.55,-377.2 699.55,-377.2 699.55,-377.2 894.45,-377.2 894.45,-377.2 900.45,-377.2 906.45,-383.2 906.45,-389.2 906.45,-389.2 906.45,-401.2 906.45,-401.2 906.45,-407.2 900.45,-413.2 894.45,-413.2"/>
<text xml:space="preserve" text-anchor="middle" x="797" y="-392.2" font-family="Helvetica,sans-Serif" font-size="10.00">master_error_bound_full_interface_structured</text>
</a>
</g>
</g>
<!-- n13&#45;&gt;n6 -->
<g id="edge37" class="edge">
<title>n13&#45;&gt;n6</title>
<path fill="none" stroke="#64748b" d="M906.91,-388.75C1032.55,-381.37 1223.8,-366.17 1246,-341.2 1277.89,-305.32 1263.91,-277.73 1246,-233.2 1241.26,-221.4 1232.58,-210.73 1223.66,-202.04"/>
<polygon fill="#64748b" stroke="#64748b" points="1225.41,-200.32 1218.6,-197.37 1222.09,-203.92 1225.41,-200.32"/>
</g>
<!-- n13&#45;&gt;n0 -->
<g id="edge32" class="edge">
<title>n13&#45;&gt;n0</title>
<path fill="none" stroke="#64748b" d="M791.8,-376.71C784.88,-356.46 770.67,-323.56 747,-305.2 697.94,-267.14 665.04,-301.49 612,-269.2 589.42,-255.46 583.12,-249.18 572,-225.2 546.77,-170.8 544.66,-98.83 545.63,-60.92"/>
<polygon fill="#64748b" stroke="#64748b" points="548.08,-61.07 545.87,-53.99 543.18,-60.91 548.08,-61.07"/>
</g>
<!-- n13&#45;&gt;n1 -->
<g id="edge38" class="edge">
<title>n13&#45;&gt;n1</title>
<path fill="none" stroke="#64748b" d="M687.15,-387.29C607.75,-380.24 509.05,-366.6 477,-341.2 436.24,-308.91 458.91,-277.7 432,-233.2 425.48,-222.42 416.92,-211.54 409.02,-202.39"/>
<polygon fill="#64748b" stroke="#64748b" points="410.9,-200.81 404.43,-197.19 407.23,-204.05 410.9,-200.81"/>
</g>
<!-- n13&#45;&gt;n2 -->
<g id="edge36" class="edge">
<title>n13&#45;&gt;n2</title>
<path fill="none" stroke="#64748b" d="M905.89,-376.73C934.76,-368.87 964.87,-357.53 990,-341.2 1024.69,-318.66 1035.08,-308.16 1049,-269.2 1056.46,-248.32 1055.06,-222.94 1052.31,-204.44"/>
<polygon fill="#64748b" stroke="#64748b" points="1054.76,-204.2 1051.19,-197.7 1049.93,-205 1054.76,-204.2"/>
</g>
<!-- n13&#45;&gt;n3 -->
<g id="edge34" class="edge">
<title>n13&#45;&gt;n3</title>
<path fill="none" stroke="#64748b" d="M799.25,-377.05C800.83,-357.13 800.09,-324.54 782,-305.2 734.88,-254.81 675.57,-321.86 631,-269.2 598.14,-230.38 621.98,-166.57 639.3,-131.68"/>
<polygon fill="#64748b" stroke="#64748b" points="641.38,-132.98 642.4,-125.63 637.02,-130.74 641.38,-132.98"/>
</g>
<!-- n13&#45;&gt;n4 -->
<g id="edge35" class="edge">
<title>n13&#45;&gt;n4</title>
<path fill="none" stroke="#64748b" d="M892.92,-376.74C929.93,-367.89 966.02,-355.87 977,-341.2 1041.38,-255.13 892.74,-324.8 836,-269.2 818.81,-252.36 813.14,-224.82 811.42,-204.59"/>
<polygon fill="#64748b" stroke="#64748b" points="813.87,-204.5 810.98,-197.66 808.98,-204.8 813.87,-204.5"/>
</g>
<!-- n13&#45;&gt;n7 -->
<g id="edge33" class="edge">
<title>n13&#45;&gt;n7</title>
<path fill="none" stroke="#64748b" d="M687.21,-388.61C620.28,-382.36 534.06,-369.14 462,-341.2 420.91,-325.27 379.46,-295.41 353.53,-274.7"/>
<polygon fill="#64748b" stroke="#64748b" points="355.12,-272.83 348.14,-270.33 352.04,-276.64 355.12,-272.83"/>
</g>
<!-- n13&#45;&gt;n11 -->
<g id="edge39" class="edge">
<title>n13&#45;&gt;n11</title>
<path fill="none" stroke="#64748b" d="M820.48,-376.9C832.93,-367.73 848.36,-356.36 861.7,-346.53"/>
<polygon fill="#64748b" stroke="#64748b" points="863.06,-348.57 867.24,-342.44 860.15,-344.62 863.06,-348.57"/>
</g>
<!-- n13&#45;&gt;n12 -->
<g id="edge40" class="edge">
<title>n13&#45;&gt;n12</title>
<path fill="none" stroke="#64748b" d="M750.79,-376.72C724.98,-366.95 692.69,-354.73 665.75,-344.54"/>
<polygon fill="#64748b" stroke="#64748b" points="666.77,-342.3 659.35,-342.12 665.03,-346.89 666.77,-342.3"/>
</g>
<!-- n14 -->
<g id="node15" class="node">
<title>n14</title>
<g id="a_node15"><a xlink:href="vscode://vscode-remote/wsl+Ubuntu/home/gavin/statlib/Statlib/Regression/regression_rate_of_master_bound.lean:11" xlink:title="theorem · Statlib/Regression/regression_rate_of_master_bound.lean:11" target="_blank">
<path fill="#ffe6a3" stroke="#d4a017" d="M1016.44,-269.2C1016.44,-269.2 871.56,-269.2 871.56,-269.2 865.56,-269.2 859.56,-263.2 859.56,-257.2 859.56,-257.2 859.56,-245.2 859.56,-245.2 859.56,-239.2 865.56,-233.2 871.56,-233.2 871.56,-233.2 1016.44,-233.2 1016.44,-233.2 1022.44,-233.2 1028.44,-239.2 1028.44,-245.2 1028.44,-245.2 1028.44,-257.2 1028.44,-257.2 1028.44,-263.2 1022.44,-269.2 1016.44,-269.2"/>
<text xml:space="preserve" text-anchor="middle" x="944" y="-248.2" font-family="Helvetica,sans-Serif" font-size="10.00">regression_rate_of_master_bound</text>
</a>
</g>
</g>
<!-- n14&#45;&gt;n0 -->
<g id="edge41" class="edge">
<title>n14&#45;&gt;n0</title>
<path fill="none" stroke="#64748b" d="M939.58,-233.04C933.77,-213.37 921.9,-181.12 902,-160 821.92,-74.99 680.61,-47.75 602.61,-39.05"/>
<polygon fill="#64748b" stroke="#64748b" points="603.06,-36.64 595.84,-38.34 602.55,-41.51 603.06,-36.64"/>
</g>
<!-- n14&#45;&gt;n2 -->
<g id="edge44" class="edge">
<title>n14&#45;&gt;n2</title>
<path fill="none" stroke="#64748b" d="M969.2,-232.78C982.91,-223.3 1000.03,-211.47 1014.72,-201.32"/>
<polygon fill="#64748b" stroke="#64748b" points="1016.1,-203.34 1020.46,-197.35 1013.31,-199.31 1016.1,-203.34"/>
</g>
<!-- n14&#45;&gt;n3 -->
<g id="edge42" class="edge">
<title>n14&#45;&gt;n3</title>
<path fill="none" stroke="#64748b" d="M929.26,-232.76C927.15,-230.23 925.01,-227.66 923,-225.2 899.52,-196.52 902.24,-179.94 871,-160 816.6,-125.28 741.3,-113.3 694.94,-109.17"/>
<polygon fill="#64748b" stroke="#64748b" points="695.32,-106.74 688.14,-108.61 694.92,-111.63 695.32,-106.74"/>
</g>
<!-- n14&#45;&gt;n4 -->
<g id="edge43" class="edge">
<title>n14&#45;&gt;n4</title>
<path fill="none" stroke="#64748b" d="M909.4,-232.71C904.55,-230.22 899.64,-227.66 895,-225.2 879.97,-217.24 863.56,-208.27 849.26,-200.37"/>
<polygon fill="#64748b" stroke="#64748b" points="850.63,-198.33 843.31,-197.08 848.25,-202.61 850.63,-198.33"/>
</g>
<!-- n15 -->
<g id="node16" class="node">
<title>n15</title>
<g id="a_node16"><a xlink:href="vscode://vscode-remote/wsl+Ubuntu/home/gavin/statlib/Statlib/Regression/regression_full_interface_of_probability_structured_master_bound.lean:12" xlink:title="theorem · Statlib/Regression/regression_full_interface_of_probability_structured_master_bound.lean:12" target="_blank">
<path fill="#ffe6a3" stroke="#d4a017" d="M939.76,-485.2C939.76,-485.2 654.24,-485.2 654.24,-485.2 648.24,-485.2 642.24,-479.2 642.24,-473.2 642.24,-473.2 642.24,-461.2 642.24,-461.2 642.24,-455.2 648.24,-449.2 654.24,-449.2 654.24,-449.2 939.76,-449.2 939.76,-449.2 945.76,-449.2 951.76,-455.2 951.76,-461.2 951.76,-461.2 951.76,-473.2 951.76,-473.2 951.76,-479.2 945.76,-485.2 939.76,-485.2"/>
<text xml:space="preserve" text-anchor="middle" x="797" y="-464.2" font-family="Helvetica,sans-Serif" font-size="10.00">regression_full_interface_of_probability_structured_master_bound</text>
</a>
</g>
</g>
<!-- n15&#45;&gt;n0 -->
<g id="edge45" class="edge">
<title>n15&#45;&gt;n0</title>
<path fill="none" stroke="#64748b" d="M709.58,-448.78C605.92,-425.57 447,-380.76 447,-324.2 447,-324.2 447,-324.2 447,-177 447,-127.66 487.85,-83.38 517.34,-57.85"/>
<polygon fill="#64748b" stroke="#64748b" points="518.88,-59.75 522.65,-53.36 515.72,-56.01 518.88,-59.75"/>
</g>
<!-- n15&#45;&gt;n1 -->
<g id="edge50" class="edge">
<title>n15&#45;&gt;n1</title>
<path fill="none" stroke="#64748b" d="M641.98,-461.07C559.85,-454.95 470.22,-441.71 442,-413.2 385.18,-355.8 442.54,-309.82 417,-233.2 413.6,-223 408.28,-212.49 403.05,-203.48"/>
<polygon fill="#64748b" stroke="#64748b" points="405.22,-202.34 399.52,-197.6 401.02,-204.86 405.22,-202.34"/>
</g>
<!-- n15&#45;&gt;n2 -->
<g id="edge47" class="edge">
<title>n15&#45;&gt;n2</title>
<path fill="none" stroke="#64748b" d="M950.51,-448.75C993.32,-440.67 1032,-429.21 1046,-413.2 1097.52,-354.3 1072.14,-251.61 1056.37,-204.25"/>
<polygon fill="#64748b" stroke="#64748b" points="1058.74,-203.59 1054.14,-197.77 1054.1,-205.18 1058.74,-203.59"/>
</g>
<!-- n15&#45;&gt;n3 -->
<g id="edge48" class="edge">
<title>n15&#45;&gt;n3</title>
<path fill="none" stroke="#64748b" d="M844.16,-448.71C913.19,-420.62 1028.24,-362.73 977,-305.2 884.75,-201.62 763.62,-368.71 667,-269.2 648.7,-250.35 649.59,-173.38 651.46,-132.61"/>
<polygon fill="#64748b" stroke="#64748b" points="653.9,-132.88 651.8,-125.77 649,-132.64 653.9,-132.88"/>
</g>
<!-- n15&#45;&gt;n4 -->
<g id="edge49" class="edge">
<title>n15&#45;&gt;n4</title>
<path fill="none" stroke="#64748b" d="M905.1,-448.75C943.65,-440.14 980.44,-428.32 992,-413.2 1002.14,-399.94 1007.17,-326.76 990,-305.2 950.24,-255.28 899.67,-310.48 851,-269.2 845.67,-264.68 830.86,-229.21 820.83,-204.13"/>
<polygon fill="#64748b" stroke="#64748b" points="823.18,-203.41 818.32,-197.81 818.63,-205.22 823.18,-203.41"/>
</g>
<!-- n15&#45;&gt;n7 -->
<g id="edge46" class="edge">
<title>n15&#45;&gt;n7</title>
<path fill="none" stroke="#64748b" d="M641.81,-459.08C554.7,-452.26 456.71,-438.98 422,-413.2 379.54,-381.66 400.49,-349.77 372,-305.2 365.41,-294.89 356.98,-284.43 349.2,-275.56"/>
<polygon fill="#64748b" stroke="#64748b" points="351.2,-274.11 344.7,-270.53 347.55,-277.38 351.2,-274.11"/>
</g>
<!-- n15&#45;&gt;n13 -->
<g id="edge51" class="edge">
<title>n15&#45;&gt;n13</title>
<path fill="none" stroke="#64748b" d="M797,-448.9C797,-440.67 797,-430.68 797,-421.62"/>
<polygon fill="#64748b" stroke="#64748b" points="799.45,-421.82 797,-414.82 794.55,-421.82 799.45,-421.82"/>
</g>
<!-- n15&#45;&gt;n14 -->
<g id="edge52" class="edge">
<title>n15&#45;&gt;n14</title>
<path fill="none" stroke="#64748b" d="M941.06,-448.72C982.15,-440.61 1019.27,-429.12 1032,-413.2 1061.98,-375.71 1055.61,-346.99 1032,-305.2 1024.45,-291.84 1012.03,-281.47 998.87,-273.59"/>
<polygon fill="#64748b" stroke="#64748b" points="1000.13,-271.49 992.83,-270.21 997.74,-275.77 1000.13,-271.49"/>
</g>
<!-- n16 -->
<g id="node17" class="node">
<title>n16</title>
<g id="a_node17"><a xlink:href="vscode://vscode-remote/wsl+Ubuntu/home/gavin/statlib/Statlib/Regression/regression_full_interface_of_process_and_entropy_structured_master_bound.lean:11" xlink:title="theorem · Statlib/Regression/regression_full_interface_of_process_and_entropy_structured_master_bound.lean:11" target="_blank">
<path fill="#ffe6a3" stroke="#d4a017" stroke-width="3" d="M555.05,-557.2C555.05,-557.2 218.95,-557.2 218.95,-557.2 212.95,-557.2 206.95,-551.2 206.95,-545.2 206.95,-545.2 206.95,-533.2 206.95,-533.2 206.95,-527.2 212.95,-521.2 218.95,-521.2 218.95,-521.2 555.05,-521.2 555.05,-521.2 561.05,-521.2 567.05,-527.2 567.05,-533.2 567.05,-533.2 567.05,-545.2 567.05,-545.2 567.05,-551.2 561.05,-557.2 555.05,-557.2"/>
<text xml:space="preserve" text-anchor="middle" x="387" y="-536.2" font-family="Helvetica,sans-Serif" font-size="10.00">regression_full_interface_of_process_and_entropy_structured_master_bound</text>
</a>
</g>
</g>
<!-- n16&#45;&gt;n0 -->
<g id="edge53" class="edge">
<title>n16&#45;&gt;n0</title>
<path fill="none" stroke="#64748b" d="M205.55,-521.6C170.17,-513.66 134.36,-502.07 103,-485.2 54.56,-459.14 17,-451.21 17,-396.2 17,-396.2 17,-396.2 17,-177 17,-126.31 33.95,-106.76 77,-80 144.93,-37.77 382.45,-33.78 491.5,-34.26"/>
<polygon fill="#64748b" stroke="#64748b" points="491.23,-36.71 498.24,-34.3 491.26,-31.81 491.23,-36.71"/>
</g>
<!-- n16&#45;&gt;n1 -->
<g id="edge54" class="edge">
<title>n16&#45;&gt;n1</title>
<path fill="none" stroke="#64748b" d="M252.83,-519.77C187.62,-503.31 114.89,-472.16 75,-413.2 29.13,-345.4 48.64,-282.48 114,-233.2 148.71,-207.03 269.5,-190.87 338.21,-183.58"/>
<polygon fill="#64748b" stroke="#64748b" points="338.11,-186.05 344.82,-182.89 337.6,-181.18 338.11,-186.05"/>
</g>
<!-- n16&#45;&gt;n2 -->
<g id="edge55" class="edge">
<title>n16&#45;&gt;n2</title>
<path fill="none" stroke="#64748b" d="M568.45,-532.59C719.15,-526.06 920.74,-512.48 997,-485.2 1062.93,-461.62 1127,-466.22 1127,-396.2 1127,-396.2 1127,-396.2 1127,-322.2 1127,-275.01 1093.48,-228.91 1069.83,-202.26"/>
<polygon fill="#64748b" stroke="#64748b" points="1071.9,-200.89 1065.38,-197.36 1068.27,-204.19 1071.9,-200.89"/>
</g>
<!-- n16&#45;&gt;n3 -->
<g id="edge56" class="edge">
<title>n16&#45;&gt;n3</title>
<path fill="none" stroke="#64748b" d="M419.74,-519.91C473.65,-489.85 584.52,-428.25 679,-377.2 709.09,-360.94 729.36,-370.5 747,-341.2 801.8,-250.18 629.23,-291.11 612,-269.2 606.82,-262.61 606.27,-173.57 611,-160 614.75,-149.22 621.71,-138.99 628.9,-130.43"/>
<polygon fill="#64748b" stroke="#64748b" points="630.58,-132.24 633.39,-125.38 626.91,-128.99 630.58,-132.24"/>
</g>
<!-- n16&#45;&gt;n4 -->
<g id="edge57" class="edge">
<title>n16&#45;&gt;n4</title>
<path fill="none" stroke="#64748b" d="M568.33,-533.27C709.39,-527.25 892.31,-514.03 961,-485.2 1006.65,-466.04 1025.18,-458.12 1046,-413.2 1079.68,-340.53 1092.67,-290.79 1037,-233.2 1028.42,-224.32 994.09,-227.7 982,-225.2 944.38,-217.41 902.76,-206.22 870,-196.81"/>
<polygon fill="#64748b" stroke="#64748b" points="870.73,-194.47 863.33,-194.88 869.37,-199.18 870.73,-194.47"/>
</g>
<!-- n16&#45;&gt;n7 -->
<g id="edge58" class="edge">
<title>n16&#45;&gt;n7</title>
<path fill="none" stroke="#64748b" d="M384.85,-519.84C379.97,-480.2 366.84,-383.81 346,-305.2 343.57,-296.04 340.25,-286.21 337.07,-277.53"/>
<polygon fill="#64748b" stroke="#64748b" points="339.39,-276.73 334.63,-271.05 334.8,-278.46 339.39,-276.73"/>
</g>
<!-- n16&#45;&gt;n9 -->
<g id="edge59" class="edge">
<title>n16&#45;&gt;n9</title>
<path fill="none" stroke="#64748b" d="M364.87,-519.93C333.56,-494.08 276.4,-446.89 242.44,-418.85"/>
<polygon fill="#64748b" stroke="#64748b" points="244.1,-417.05 237.14,-414.48 240.98,-420.82 244.1,-417.05"/>
</g>
<!-- n16&#45;&gt;n15 -->
<g id="edge60" class="edge">
<title>n16&#45;&gt;n15</title>
<path fill="none" stroke="#64748b" d="M495.26,-519.72C554.29,-509.64 627.2,-497.19 686.56,-487.06"/>
<polygon fill="#64748b" stroke="#64748b" points="686.86,-489.49 693.35,-485.9 686.04,-484.66 686.86,-489.49"/>
</g>
</g>
</svg>
