<?xml version="1.0" encoding="UTF-8" standalone="no"?>
<!DOCTYPE svg PUBLIC "-//W3C//DTD SVG 1.1//EN"
 "http://www.w3.org/Graphics/SVG/1.1/DTD/svg11.dtd">
<!-- Generated by graphviz version 15.0.0 (20260523.1842)
 -->
<!-- Title: exists_fullyConnectedReLUNet_taylor_polynomial_approx_on_centered_box_with_depth_bound Pages: 1 -->
<svg width="1846pt" height="770pt"
 viewBox="0.00 0.00 1846.00 770.00" xmlns="http://www.w3.org/2000/svg" xmlns:xlink="http://www.w3.org/1999/xlink">
<g id="graph0" class="graph" transform="scale(1 1) rotate(0) translate(4 766)">
<title>exists_fullyConnectedReLUNet_taylor_polynomial_approx_on_centered_box_with_depth_bound</title>
<polygon fill="white" stroke="none" points="-4,4 -4,-766 1842,-766 1842,4 -4,4"/>
<text xml:space="preserve" text-anchor="middle" x="919" y="-745.4" font-family="Helvetica,sans-Serif" font-size="14.00">Proof narrative — exists_fullyConnectedReLUNet_taylor_polynomial_approx_on_centered_box_with_depth_bound &#160;(31 decls)</text>
<g id="clust1" class="cluster">
<title>cluster_0</title>
<path fill="none" stroke="#cbd5e1" stroke-dasharray="5,2" d="M20,-8C20,-8 1818,-8 1818,-8 1824,-8 1830,-14 1830,-20 1830,-20 1830,-717.2 1830,-717.2 1830,-723.2 1824,-729.2 1818,-729.2 1818,-729.2 20,-729.2 20,-729.2 14,-729.2 8,-723.2 8,-717.2 8,-717.2 8,-20 8,-20 8,-14 14,-8 20,-8"/>
<text xml:space="preserve" text-anchor="middle" x="919" y="-715.3" font-family="Helvetica,sans-Serif" font-size="11.00">Nonparametric</text>
</g>
<!-- n0 -->
<g id="node1" class="node">
<title>n0</title>
<g id="a_node1"><a xlink:href="vscode://vscode-remote/wsl+Ubuntu/home/ai4stat/statlib/Statlib/Nonparametric/Vocabulary/Estimator.lean:28" xlink:title="noncomputable def · Statlib/Nonparametric/Vocabulary/Estimator.lean:28" target="_blank">
<path fill="#d6e9ff" stroke="#3b82f6" d="M1380,-52C1380,-52 1350,-52 1350,-52 1344,-52 1338,-46 1338,-40 1338,-40 1338,-28 1338,-28 1338,-22 1344,-16 1350,-16 1350,-16 1380,-16 1380,-16 1386,-16 1392,-22 1392,-28 1392,-28 1392,-40 1392,-40 1392,-46 1386,-52 1380,-52"/>
<text xml:space="preserve" text-anchor="middle" x="1365" y="-31" font-family="Helvetica,sans-Serif" font-size="10.00">bias</text>
</a>
</g>
</g>
<!-- n1 -->
<g id="node2" class="node">
<title>n1</title>
<g id="a_node2"><a xlink:href="vscode://vscode-remote/wsl+Ubuntu/home/ai4stat/statlib/Statlib/Nonparametric/Vocabulary/NeuralNetwork.lean:23" xlink:title="structure · Statlib/Nonparametric/Vocabulary/NeuralNetwork.lean:23" target="_blank">
<path fill="#e8dcff" stroke="#8b5cf6" d="M1435.96,-124C1435.96,-124 1390.04,-124 1390.04,-124 1384.04,-124 1378.04,-118 1378.04,-112 1378.04,-112 1378.04,-100 1378.04,-100 1378.04,-94 1384.04,-88 1390.04,-88 1390.04,-88 1435.96,-88 1435.96,-88 1441.96,-88 1447.96,-94 1447.96,-100 1447.96,-100 1447.96,-112 1447.96,-112 1447.96,-118 1441.96,-124 1435.96,-124"/>
<text xml:space="preserve" text-anchor="middle" x="1413" y="-103" font-family="Helvetica,sans-Serif" font-size="10.00">DenseLayer</text>
</a>
</g>
</g>
<!-- n1&#45;&gt;n0 -->
<g id="edge1" class="edge">
<title>n1&#45;&gt;n0</title>
<path fill="none" stroke="#64748b" d="M1401.13,-87.7C1395.21,-79.05 1387.94,-68.45 1381.48,-59.03"/>
<polygon fill="#64748b" stroke="#64748b" points="1383.56,-57.74 1377.58,-53.35 1379.52,-60.51 1383.56,-57.74"/>
</g>
<!-- n2 -->
<g id="node3" class="node">
<title>n2</title>
<g id="a_node3"><a xlink:href="vscode://vscode-remote/wsl+Ubuntu/home/ai4stat/statlib/Statlib/Nonparametric/Vocabulary/NeuralNetwork.lean:167" xlink:title="structure · Statlib/Nonparametric/Vocabulary/NeuralNetwork.lean:167" target="_blank">
<path fill="#e8dcff" stroke="#8b5cf6" d="M1587.31,-268C1587.31,-268 1484.69,-268 1484.69,-268 1478.69,-268 1472.69,-262 1472.69,-256 1472.69,-256 1472.69,-244 1472.69,-244 1472.69,-238 1478.69,-232 1484.69,-232 1484.69,-232 1587.31,-232 1587.31,-232 1593.31,-232 1599.31,-238 1599.31,-244 1599.31,-244 1599.31,-256 1599.31,-256 1599.31,-262 1593.31,-268 1587.31,-268"/>
<text xml:space="preserve" text-anchor="middle" x="1536" y="-247" font-family="Helvetica,sans-Serif" font-size="10.00">FullyConnectedReLUNet</text>
</a>
</g>
</g>
<!-- n2&#45;&gt;n1 -->
<g id="edge2" class="edge">
<title>n2&#45;&gt;n1</title>
<path fill="none" stroke="#64748b" d="M1520.92,-231.59C1498.85,-206.11 1457.72,-158.63 1433.11,-130.21"/>
<polygon fill="#64748b" stroke="#64748b" points="1435.25,-128.94 1428.81,-125.25 1431.54,-132.15 1435.25,-128.94"/>
</g>
<!-- n3 -->
<g id="node4" class="node">
<title>n3</title>
<g id="a_node4"><a xlink:href="vscode://vscode-remote/wsl+Ubuntu/home/ai4stat/statlib/Statlib/Nonparametric/Vocabulary/NeuralNetwork.lean:47" xlink:title="structure · Statlib/Nonparametric/Vocabulary/NeuralNetwork.lean:47" target="_blank">
<path fill="#e8dcff" stroke="#8b5cf6" d="M1162.86,-196C1162.86,-196 1079.14,-196 1079.14,-196 1073.14,-196 1067.14,-190 1067.14,-184 1067.14,-184 1067.14,-172 1067.14,-172 1067.14,-166 1073.14,-160 1079.14,-160 1079.14,-160 1162.86,-160 1162.86,-160 1168.86,-160 1174.86,-166 1174.86,-172 1174.86,-172 1174.86,-184 1174.86,-184 1174.86,-190 1168.86,-196 1162.86,-196"/>
<text xml:space="preserve" text-anchor="middle" x="1121" y="-175" font-family="Helvetica,sans-Serif" font-size="10.00">OneHiddenReLUNet</text>
</a>
</g>
</g>
<!-- n3&#45;&gt;n1 -->
<g id="edge3" class="edge">
<title>n3&#45;&gt;n1</title>
<path fill="none" stroke="#64748b" d="M1175.24,-164C1231.44,-150.52 1318.15,-129.74 1369.87,-117.34"/>
<polygon fill="#64748b" stroke="#64748b" points="1370.15,-119.79 1376.38,-115.78 1369.01,-115.03 1370.15,-119.79"/>
</g>
<!-- n4 -->
<g id="node5" class="node">
<title>n4</title>
<g id="a_node5"><a xlink:href="vscode://vscode-remote/wsl+Ubuntu/home/ai4stat/statlib/Statlib/Nonparametric/Vocabulary/NeuralNetwork.lean:15" xlink:title="def · Statlib/Nonparametric/Vocabulary/NeuralNetwork.lean:15" target="_blank">
<path fill="#d6e9ff" stroke="#3b82f6" d="M310,-124C310,-124 280,-124 280,-124 274,-124 268,-118 268,-112 268,-112 268,-100 268,-100 268,-94 274,-88 280,-88 280,-88 310,-88 310,-88 316,-88 322,-94 322,-100 322,-100 322,-112 322,-112 322,-118 316,-124 310,-124"/>
<text xml:space="preserve" text-anchor="middle" x="295" y="-103" font-family="Helvetica,sans-Serif" font-size="10.00">relu</text>
</a>
</g>
</g>
<!-- n5 -->
<g id="node6" class="node">
<title>n5</title>
<g id="a_node6"><a xlink:href="vscode://vscode-remote/wsl+Ubuntu/home/ai4stat/statlib/Statlib/Nonparametric/Vocabulary/NeuralNetwork.lean:30" xlink:title="noncomputable def · Statlib/Nonparametric/Vocabulary/NeuralNetwork.lean:30" target="_blank">
<path fill="#d6e9ff" stroke="#3b82f6" d="M898,-196C898,-196 868,-196 868,-196 862,-196 856,-190 856,-184 856,-184 856,-172 856,-172 856,-166 862,-160 868,-160 868,-160 898,-160 898,-160 904,-160 910,-166 910,-172 910,-172 910,-184 910,-184 910,-190 904,-196 898,-196"/>
<text xml:space="preserve" text-anchor="middle" x="883" y="-175" font-family="Helvetica,sans-Serif" font-size="10.00">apply</text>
</a>
</g>
</g>
<!-- n5&#45;&gt;n0 -->
<g id="edge5" class="edge">
<title>n5&#45;&gt;n0</title>
<path fill="none" stroke="#64748b" d="M907.76,-159.64C938.16,-139.2 991.97,-105.78 1043,-88 1142.94,-53.17 1268.49,-40.95 1329.05,-36.89"/>
<polygon fill="#64748b" stroke="#64748b" points="1329.17,-39.34 1336,-36.44 1328.85,-34.45 1329.17,-39.34"/>
</g>
<!-- n5&#45;&gt;n1 -->
<g id="edge4" class="edge">
<title>n5&#45;&gt;n1</title>
<path fill="none" stroke="#64748b" d="M910.38,-173.38C996.75,-161.98 1263.98,-126.68 1369.5,-112.75"/>
<polygon fill="#64748b" stroke="#64748b" points="1369.59,-115.2 1376.21,-111.86 1368.95,-110.35 1369.59,-115.2"/>
</g>
<!-- n6 -->
<g id="node7" class="node">
<title>n6</title>
<g id="a_node7"><a xlink:href="vscode://vscode-remote/wsl+Ubuntu/home/ai4stat/statlib/Statlib/Nonparametric/Vocabulary/NeuralNetwork.lean:55" xlink:title="noncomputable def · Statlib/Nonparametric/Vocabulary/NeuralNetwork.lean:55" target="_blank">
<path fill="#d6e9ff" stroke="#3b82f6" d="M944,-268C944,-268 914,-268 914,-268 908,-268 902,-262 902,-256 902,-256 902,-244 902,-244 902,-238 908,-232 914,-232 914,-232 944,-232 944,-232 950,-232 956,-238 956,-244 956,-244 956,-256 956,-256 956,-262 950,-268 944,-268"/>
<text xml:space="preserve" text-anchor="middle" x="929" y="-247" font-family="Helvetica,sans-Serif" font-size="10.00">realize</text>
</a>
</g>
</g>
<!-- n6&#45;&gt;n3 -->
<g id="edge6" class="edge">
<title>n6&#45;&gt;n3</title>
<path fill="none" stroke="#64748b" d="M956.37,-235.68C959.27,-234.39 962.18,-233.14 965,-232 995.42,-219.7 1029.9,-207.78 1058.7,-198.37"/>
<polygon fill="#64748b" stroke="#64748b" points="1059.32,-200.74 1065.22,-196.25 1057.8,-196.08 1059.32,-200.74"/>
</g>
<!-- n6&#45;&gt;n4 -->
<g id="edge7" class="edge">
<title>n6&#45;&gt;n4</title>
<path fill="none" stroke="#64748b" d="M932.82,-231.82C936.21,-211.56 938.04,-178.33 919,-160 879.83,-122.3 485.1,-129.37 431,-124 396.77,-120.6 357.84,-115.62 330.43,-111.93"/>
<polygon fill="#64748b" stroke="#64748b" points="331.07,-109.54 323.81,-111.03 330.41,-114.4 331.07,-109.54"/>
</g>
<!-- n6&#45;&gt;n5 -->
<g id="edge8" class="edge">
<title>n6&#45;&gt;n5</title>
<path fill="none" stroke="#64748b" d="M917.63,-231.7C911.95,-223.05 904.98,-212.45 898.79,-203.03"/>
<polygon fill="#64748b" stroke="#64748b" points="900.96,-201.87 895.07,-197.37 896.87,-204.56 900.96,-201.87"/>
</g>
<!-- n7 -->
<g id="node8" class="node">
<title>n7</title>
<g id="a_node8"><a xlink:href="vscode://vscode-remote/wsl+Ubuntu/home/ai4stat/statlib/Statlib/Nonparametric/Vocabulary/NeuralNetwork.lean:384" xlink:title="noncomputable def · Statlib/Nonparametric/Vocabulary/NeuralNetwork.lean:384" target="_blank">
<path fill="#d6e9ff" stroke="#3b82f6" d="M793.53,-484C793.53,-484 696.47,-484 696.47,-484 690.47,-484 684.47,-478 684.47,-472 684.47,-472 684.47,-460 684.47,-460 684.47,-454 690.47,-448 696.47,-448 696.47,-448 793.53,-448 793.53,-448 799.53,-448 805.53,-454 805.53,-460 805.53,-460 805.53,-472 805.53,-472 805.53,-478 799.53,-484 793.53,-484"/>
<text xml:space="preserve" text-anchor="middle" x="745" y="-463" font-family="Helvetica,sans-Serif" font-size="10.00">finiteLinearCombination</text>
</a>
</g>
</g>
<!-- n8 -->
<g id="node9" class="node">
<title>n8</title>
<g id="a_node9"><a xlink:href="vscode://vscode-remote/wsl+Ubuntu/home/ai4stat/statlib/Statlib/Nonparametric/Vocabulary/NeuralNetwork.lean:19" xlink:title="def · Statlib/Nonparametric/Vocabulary/NeuralNetwork.lean:19" target="_blank">
<path fill="#d6e9ff" stroke="#3b82f6" d="M1272,-196C1272,-196 1242,-196 1242,-196 1236,-196 1230,-190 1230,-184 1230,-184 1230,-172 1230,-172 1230,-166 1236,-160 1242,-160 1242,-160 1272,-160 1272,-160 1278,-160 1284,-166 1284,-172 1284,-172 1284,-184 1284,-184 1284,-190 1278,-196 1272,-196"/>
<text xml:space="preserve" text-anchor="middle" x="1257" y="-175" font-family="Helvetica,sans-Serif" font-size="10.00">reluVec</text>
</a>
</g>
</g>
<!-- n8&#45;&gt;n4 -->
<g id="edge9" class="edge">
<title>n8&#45;&gt;n4</title>
<path fill="none" stroke="#64748b" d="M1229.83,-169.44C1216.19,-165.96 1199.34,-162.13 1184,-160 852.15,-113.82 764.81,-152.8 431,-124 396.73,-121.04 357.8,-116.01 330.4,-112.18"/>
<polygon fill="#64748b" stroke="#64748b" points="331.06,-109.8 323.79,-111.25 330.37,-114.65 331.06,-109.8"/>
</g>
<!-- n9 -->
<g id="node10" class="node">
<title>n9</title>
<g id="a_node10"><a xlink:href="vscode://vscode-remote/wsl+Ubuntu/home/ai4stat/statlib/Statlib/Nonparametric/Vocabulary/NeuralNetwork.lean:34" xlink:title="noncomputable def · Statlib/Nonparametric/Vocabulary/NeuralNetwork.lean:34" target="_blank">
<path fill="#d6e9ff" stroke="#3b82f6" d="M1225.84,-268C1225.84,-268 1192.16,-268 1192.16,-268 1186.16,-268 1180.16,-262 1180.16,-256 1180.16,-256 1180.16,-244 1180.16,-244 1180.16,-238 1186.16,-232 1192.16,-232 1192.16,-232 1225.84,-232 1225.84,-232 1231.84,-232 1237.84,-238 1237.84,-244 1237.84,-244 1237.84,-256 1237.84,-256 1237.84,-262 1231.84,-268 1225.84,-268"/>
<text xml:space="preserve" text-anchor="middle" x="1209" y="-247" font-family="Helvetica,sans-Serif" font-size="10.00">reluApply</text>
</a>
</g>
</g>
<!-- n9&#45;&gt;n1 -->
<g id="edge10" class="edge">
<title>n9&#45;&gt;n1</title>
<path fill="none" stroke="#64748b" d="M1206.17,-231.67C1203.99,-211.89 1203.77,-179.73 1221,-160 1240.39,-137.79 1319.12,-121.66 1369.55,-113.35"/>
<polygon fill="#64748b" stroke="#64748b" points="1369.68,-115.82 1376.2,-112.28 1368.9,-110.98 1369.68,-115.82"/>
</g>
<!-- n9&#45;&gt;n5 -->
<g id="edge12" class="edge">
<title>n9&#45;&gt;n5</title>
<path fill="none" stroke="#64748b" d="M1179.74,-242.59C1165.11,-239.4 1147.12,-235.48 1131,-232 1055.28,-215.66 966.5,-196.75 918.38,-186.51"/>
<polygon fill="#64748b" stroke="#64748b" points="919,-184.14 911.64,-185.08 917.98,-188.93 919,-184.14"/>
</g>
<!-- n9&#45;&gt;n8 -->
<g id="edge11" class="edge">
<title>n9&#45;&gt;n8</title>
<path fill="none" stroke="#64748b" d="M1220.87,-231.7C1226.79,-223.05 1234.06,-212.45 1240.52,-203.03"/>
<polygon fill="#64748b" stroke="#64748b" points="1242.48,-204.51 1244.42,-197.35 1238.44,-201.74 1242.48,-204.51"/>
</g>
<!-- n10 -->
<g id="node11" class="node">
<title>n10</title>
<g id="a_node11"><a xlink:href="vscode://vscode-remote/wsl+Ubuntu/home/ai4stat/statlib/Statlib/Nonparametric/Vocabulary/NeuralNetwork.lean:182" xlink:title="noncomputable def · Statlib/Nonparametric/Vocabulary/NeuralNetwork.lean:182" target="_blank">
<path fill="#d6e9ff" stroke="#3b82f6" d="M1163.69,-340C1163.69,-340 1118.31,-340 1118.31,-340 1112.31,-340 1106.31,-334 1106.31,-328 1106.31,-328 1106.31,-316 1106.31,-316 1106.31,-310 1112.31,-304 1118.31,-304 1118.31,-304 1163.69,-304 1163.69,-304 1169.69,-304 1175.69,-310 1175.69,-316 1175.69,-316 1175.69,-328 1175.69,-328 1175.69,-334 1169.69,-340 1163.69,-340"/>
<text xml:space="preserve" text-anchor="middle" x="1141" y="-319" font-family="Helvetica,sans-Serif" font-size="10.00">hiddenState</text>
</a>
</g>
</g>
<!-- n10&#45;&gt;n2 -->
<g id="edge13" class="edge">
<title>n10&#45;&gt;n2</title>
<path fill="none" stroke="#64748b" d="M1175.98,-311.8C1186.84,-309.1 1198.88,-306.27 1210,-304 1296.88,-286.27 1397.75,-270.62 1464.01,-261.01"/>
<polygon fill="#64748b" stroke="#64748b" points="1464.24,-263.45 1470.82,-260.02 1463.54,-258.6 1464.24,-263.45"/>
</g>
<!-- n10&#45;&gt;n9 -->
<g id="edge14" class="edge">
<title>n10&#45;&gt;n9</title>
<path fill="none" stroke="#64748b" d="M1157.81,-303.7C1166.46,-294.8 1177.11,-283.82 1186.46,-274.2"/>
<polygon fill="#64748b" stroke="#64748b" points="1188.21,-275.92 1191.33,-269.19 1184.69,-272.5 1188.21,-275.92"/>
</g>
<!-- n11 -->
<g id="node12" class="node">
<title>n11</title>
<g id="a_node12"><a xlink:href="vscode://vscode-remote/wsl+Ubuntu/home/ai4stat/statlib/Statlib/Nonparametric/Vocabulary/NeuralNetwork.lean:39" xlink:title="def · Statlib/Nonparametric/Vocabulary/NeuralNetwork.lean:39" target="_blank">
<path fill="#d6e9ff" stroke="#3b82f6" d="M1650.13,-340C1650.13,-340 1585.87,-340 1585.87,-340 1579.87,-340 1573.87,-334 1573.87,-328 1573.87,-328 1573.87,-316 1573.87,-316 1573.87,-310 1579.87,-304 1585.87,-304 1585.87,-304 1650.13,-304 1650.13,-304 1656.13,-304 1662.13,-310 1662.13,-316 1662.13,-316 1662.13,-328 1662.13,-328 1662.13,-334 1656.13,-340 1650.13,-340"/>
<text xml:space="preserve" text-anchor="middle" x="1618" y="-319" font-family="Helvetica,sans-Serif" font-size="10.00">parameterCount</text>
</a>
</g>
</g>
<!-- n11&#45;&gt;n1 -->
<g id="edge15" class="edge">
<title>n11&#45;&gt;n1</title>
<path fill="none" stroke="#64748b" d="M1620.24,-303.52C1621.79,-284.46 1621.55,-253.79 1608,-232 1572.97,-175.67 1502.12,-140.03 1456.16,-121.81"/>
<polygon fill="#64748b" stroke="#64748b" points="1457.26,-119.61 1449.85,-119.37 1455.49,-124.18 1457.26,-119.61"/>
</g>
<!-- n12 -->
<g id="node13" class="node">
<title>n12</title>
<g id="a_node13"><a xlink:href="vscode://vscode-remote/wsl+Ubuntu/home/ai4stat/statlib/Statlib/Nonparametric/Vocabulary/NeuralNetwork.lean:292" xlink:title="noncomputable def · Statlib/Nonparametric/Vocabulary/NeuralNetwork.lean:292" target="_blank">
<path fill="#d6e9ff" stroke="#3b82f6" d="M1109.87,-268C1109.87,-268 986.13,-268 986.13,-268 980.13,-268 974.13,-262 974.13,-256 974.13,-256 974.13,-244 974.13,-244 974.13,-238 980.13,-232 986.13,-232 986.13,-232 1109.87,-232 1109.87,-232 1115.87,-232 1121.87,-238 1121.87,-244 1121.87,-244 1121.87,-256 1121.87,-256 1121.87,-262 1115.87,-268 1109.87,-268"/>
<text xml:space="preserve" text-anchor="middle" x="1048" y="-247" font-family="Helvetica,sans-Serif" font-size="10.00">intervalSquareReLUHingeNet</text>
</a>
</g>
</g>
<!-- n12&#45;&gt;n0 -->
<g id="edge17" class="edge">
<title>n12&#45;&gt;n0</title>
<path fill="none" stroke="#64748b" d="M1045.1,-231.72C1042.85,-212.27 1042.33,-180.7 1058,-160 1124.65,-71.96 1263.87,-45.67 1329.42,-38.03"/>
<polygon fill="#64748b" stroke="#64748b" points="1329.59,-40.47 1336.28,-37.27 1329.06,-35.6 1329.59,-40.47"/>
</g>
<!-- n12&#45;&gt;n3 -->
<g id="edge16" class="edge">
<title>n12&#45;&gt;n3</title>
<path fill="none" stroke="#64748b" d="M1066.04,-231.7C1075.35,-222.78 1086.82,-211.78 1096.87,-202.14"/>
<polygon fill="#64748b" stroke="#64748b" points="1098.46,-204.01 1101.82,-197.39 1095.07,-200.47 1098.46,-204.01"/>
</g>
<!-- n13 -->
<g id="node14" class="node">
<title>n13</title>
<g id="a_node14"><a xlink:href="vscode://vscode-remote/wsl+Ubuntu/home/ai4stat/statlib/Statlib/Nonparametric/Vocabulary/NeuralNetwork.lean:70" xlink:title="def · Statlib/Nonparametric/Vocabulary/NeuralNetwork.lean:70" target="_blank">
<path fill="#d6e9ff" stroke="#3b82f6" d="M1403.54,-340C1403.54,-340 1246.46,-340 1246.46,-340 1240.46,-340 1234.46,-334 1234.46,-328 1234.46,-328 1234.46,-316 1234.46,-316 1234.46,-310 1240.46,-304 1246.46,-304 1246.46,-304 1403.54,-304 1403.54,-304 1409.54,-304 1415.54,-310 1415.54,-316 1415.54,-316 1415.54,-328 1415.54,-328 1415.54,-334 1409.54,-340 1403.54,-340"/>
<text xml:space="preserve" text-anchor="middle" x="1325" y="-319" font-family="Helvetica,sans-Serif" font-size="10.00">fullyConnectedReLUParameterCount</text>
</a>
</g>
</g>
<!-- n14 -->
<g id="node15" class="node">
<title>n14</title>
<g id="a_node15"><a xlink:href="vscode://vscode-remote/wsl+Ubuntu/home/ai4stat/statlib/Statlib/Nonparametric/Vocabulary/NeuralNetwork.lean:270" xlink:title="noncomputable def · Statlib/Nonparametric/Vocabulary/NeuralNetwork.lean:270" target="_blank">
<path fill="#d6e9ff" stroke="#3b82f6" d="M355.76,-196C355.76,-196 234.24,-196 234.24,-196 228.24,-196 222.24,-190 222.24,-184 222.24,-184 222.24,-172 222.24,-172 222.24,-166 228.24,-160 234.24,-160 234.24,-160 355.76,-160 355.76,-160 361.76,-160 367.76,-166 367.76,-172 367.76,-172 367.76,-184 367.76,-184 367.76,-190 361.76,-196 355.76,-196"/>
<text xml:space="preserve" text-anchor="middle" x="295" y="-175" font-family="Helvetica,sans-Serif" font-size="10.00">squareReLUHingeInterpolant</text>
</a>
</g>
</g>
<!-- n14&#45;&gt;n4 -->
<g id="edge18" class="edge">
<title>n14&#45;&gt;n4</title>
<path fill="none" stroke="#64748b" d="M295,-159.7C295,-151.47 295,-141.48 295,-132.42"/>
<polygon fill="#64748b" stroke="#64748b" points="297.45,-132.62 295,-125.62 292.55,-132.62 297.45,-132.62"/>
</g>
<!-- n15 -->
<g id="node16" class="node">
<title>n15</title>
<g id="a_node16"><a xlink:href="vscode://vscode-remote/wsl+Ubuntu/home/ai4stat/statlib/Statlib/Nonparametric/Vocabulary/NeuralNetwork.lean:277" xlink:title="noncomputable def · Statlib/Nonparametric/Vocabulary/NeuralNetwork.lean:277" target="_blank">
<path fill="#d6e9ff" stroke="#3b82f6" d="M852.21,-268C852.21,-268 711.79,-268 711.79,-268 705.79,-268 699.79,-262 699.79,-256 699.79,-256 699.79,-244 699.79,-244 699.79,-238 705.79,-232 711.79,-232 711.79,-232 852.21,-232 852.21,-232 858.21,-232 864.21,-238 864.21,-244 864.21,-244 864.21,-256 864.21,-256 864.21,-262 858.21,-268 852.21,-268"/>
<text xml:space="preserve" text-anchor="middle" x="782" y="-247" font-family="Helvetica,sans-Serif" font-size="10.00">unitIntervalSquareReLUHingeNet</text>
</a>
</g>
</g>
<!-- n15&#45;&gt;n0 -->
<g id="edge20" class="edge">
<title>n15&#45;&gt;n0</title>
<path fill="none" stroke="#64748b" d="M791.83,-231.76C803.32,-212.64 823.75,-181.64 847,-160 891.14,-118.91 905.25,-108.4 962,-88 1091.54,-41.44 1257.66,-35.06 1329.39,-34.66"/>
<polygon fill="#64748b" stroke="#64748b" points="1329.16,-37.12 1336.15,-34.65 1329.15,-32.22 1329.16,-37.12"/>
</g>
<!-- n15&#45;&gt;n3 -->
<g id="edge19" class="edge">
<title>n15&#45;&gt;n3</title>
<path fill="none" stroke="#64748b" d="M864.5,-231.97C924.33,-219.61 1004.02,-203.15 1058.61,-191.88"/>
<polygon fill="#64748b" stroke="#64748b" points="1058.97,-194.31 1065.33,-190.5 1057.98,-189.51 1058.97,-194.31"/>
</g>
<!-- n16 -->
<g id="node17" class="node">
<title>n16</title>
<g id="a_node17"><a xlink:href="vscode://vscode-remote/wsl+Ubuntu/home/ai4stat/statlib/Statlib/Nonparametric/Approximation/NeuralNetworkAlgebra.lean:160" xlink:title="theorem · Statlib/Nonparametric/Approximation/NeuralNetworkAlgebra.lean:160" target="_blank">
<path fill="#ffe6a3" stroke="#d4a017" d="M663.72,-340C663.72,-340 488.28,-340 488.28,-340 482.28,-340 476.28,-334 476.28,-328 476.28,-328 476.28,-316 476.28,-316 476.28,-310 482.28,-304 488.28,-304 488.28,-304 663.72,-304 663.72,-304 669.72,-304 675.72,-310 675.72,-316 675.72,-316 675.72,-328 675.72,-328 675.72,-334 669.72,-340 663.72,-340"/>
<text xml:space="preserve" text-anchor="middle" x="576" y="-319" font-family="Helvetica,sans-Serif" font-size="10.00">unitIntervalSquareReLUHingeNet_realize</text>
</a>
</g>
</g>
<!-- n16&#45;&gt;n4 -->
<g id="edge25" class="edge">
<title>n16&#45;&gt;n4</title>
<path fill="none" stroke="#64748b" d="M475.94,-310.42C421.43,-302.36 361.73,-289 345,-268 335.03,-255.49 339.31,-246.96 345,-232 352.61,-211.99 369.39,-216.01 377,-196 382.69,-181.04 384.65,-174.05 377,-160 366.93,-141.5 347.32,-128.47 329.8,-119.97"/>
<polygon fill="#64748b" stroke="#64748b" points="331.21,-117.92 323.83,-117.22 329.17,-122.37 331.21,-117.92"/>
</g>
<!-- n16&#45;&gt;n5 -->
<g id="edge24" class="edge">
<title>n16&#45;&gt;n5</title>
<path fill="none" stroke="#64748b" d="M613.48,-303.62C630.66,-294.53 650.58,-282.31 666,-268 680.28,-254.75 675.11,-243.26 691,-232 738.41,-198.4 806.31,-186.07 847.37,-181.57"/>
<polygon fill="#64748b" stroke="#64748b" points="847.49,-184.02 854.2,-180.88 846.99,-179.15 847.49,-184.02"/>
</g>
<!-- n16&#45;&gt;n6 -->
<g id="edge22" class="edge">
<title>n16&#45;&gt;n6</title>
<path fill="none" stroke="#64748b" d="M675.95,-306.19C733.85,-296.85 807.94,-283.62 873,-268 879.75,-266.38 886.88,-264.42 893.71,-262.4"/>
<polygon fill="#64748b" stroke="#64748b" points="894.1,-264.84 900.1,-260.48 892.69,-260.15 894.1,-264.84"/>
</g>
<!-- n16&#45;&gt;n14 -->
<g id="edge23" class="edge">
<title>n16&#45;&gt;n14</title>
<path fill="none" stroke="#64748b" d="M475.86,-309.13C417.92,-300.43 352.18,-286.84 330,-268 311.18,-252.01 302.41,-224.55 298.37,-204.36"/>
<polygon fill="#64748b" stroke="#64748b" points="300.82,-204.15 297.18,-197.69 296,-205.01 300.82,-204.15"/>
</g>
<!-- n16&#45;&gt;n15 -->
<g id="edge21" class="edge">
<title>n16&#45;&gt;n15</title>
<path fill="none" stroke="#64748b" d="M627.45,-303.52C656.44,-293.67 692.77,-281.32 722.92,-271.07"/>
<polygon fill="#64748b" stroke="#64748b" points="723.58,-273.44 729.42,-268.87 722,-268.8 723.58,-273.44"/>
</g>
<!-- n17 -->
<g id="node18" class="node">
<title>n17</title>
<g id="a_node18"><a xlink:href="vscode://vscode-remote/wsl+Ubuntu/home/ai4stat/statlib/Statlib/Nonparametric/Vocabulary/NeuralNetwork.lean:207" xlink:title="noncomputable def · Statlib/Nonparametric/Vocabulary/NeuralNetwork.lean:207" target="_blank">
<path fill="#d6e9ff" stroke="#3b82f6" d="M955.91,-340C955.91,-340 886.09,-340 886.09,-340 880.09,-340 874.09,-334 874.09,-328 874.09,-328 874.09,-316 874.09,-316 874.09,-310 880.09,-304 886.09,-304 886.09,-304 955.91,-304 955.91,-304 961.91,-304 967.91,-310 967.91,-316 967.91,-316 967.91,-328 967.91,-328 967.91,-334 961.91,-340 955.91,-340"/>
<text xml:space="preserve" text-anchor="middle" x="921" y="-319" font-family="Helvetica,sans-Serif" font-size="10.00">toFullyConnected</text>
</a>
</g>
</g>
<!-- n17&#45;&gt;n2 -->
<g id="edge27" class="edge">
<title>n17&#45;&gt;n2</title>
<path fill="none" stroke="#64748b" d="M968.36,-313.98C990.68,-310.77 1017.68,-307.01 1042,-304 1191.93,-285.43 1367.94,-267.46 1464.16,-257.96"/>
<polygon fill="#64748b" stroke="#64748b" points="1464.14,-260.43 1470.86,-257.3 1463.66,-255.55 1464.14,-260.43"/>
</g>
<!-- n17&#45;&gt;n3 -->
<g id="edge26" class="edge">
<title>n17&#45;&gt;n3</title>
<path fill="none" stroke="#64748b" d="M968.24,-307.66C972.89,-306.4 977.53,-305.16 982,-304 1047.93,-286.85 1088.86,-321.53 1131,-268 1145.05,-250.15 1139.81,-223.68 1132.71,-204.25"/>
<polygon fill="#64748b" stroke="#64748b" points="1135.02,-203.41 1130.17,-197.8 1130.46,-205.21 1135.02,-203.41"/>
</g>
<!-- n18 -->
<g id="node19" class="node">
<title>n18</title>
<g id="a_node19"><a xlink:href="vscode://vscode-remote/wsl+Ubuntu/home/ai4stat/statlib/Statlib/Nonparametric/Vocabulary/NeuralNetwork.lean:286" xlink:title="noncomputable def · Statlib/Nonparametric/Vocabulary/NeuralNetwork.lean:286" target="_blank">
<path fill="#d6e9ff" stroke="#3b82f6" d="M223.72,-268C223.72,-268 68.28,-268 68.28,-268 62.28,-268 56.28,-262 56.28,-256 56.28,-256 56.28,-244 56.28,-244 56.28,-238 62.28,-232 68.28,-232 68.28,-232 223.72,-232 223.72,-232 229.72,-232 235.72,-238 235.72,-244 235.72,-244 235.72,-256 235.72,-256 235.72,-262 229.72,-268 223.72,-268"/>
<text xml:space="preserve" text-anchor="middle" x="146" y="-247" font-family="Helvetica,sans-Serif" font-size="10.00">intervalSquareReLUHingeInterpolant</text>
</a>
</g>
</g>
<!-- n18&#45;&gt;n4 -->
<g id="edge28" class="edge">
<title>n18&#45;&gt;n4</title>
<path fill="none" stroke="#64748b" d="M152.71,-231.76C160.97,-212.36 176.57,-180.83 198,-160 215.74,-142.76 240.2,-129.45 260.13,-120.47"/>
<polygon fill="#64748b" stroke="#64748b" points="260.97,-122.78 266.41,-117.74 259.01,-118.29 260.97,-122.78"/>
</g>
<!-- n18&#45;&gt;n14 -->
<g id="edge29" class="edge">
<title>n18&#45;&gt;n14</title>
<path fill="none" stroke="#64748b" d="M183.21,-231.52C203.56,-221.96 228.9,-210.05 250.31,-200"/>
<polygon fill="#64748b" stroke="#64748b" points="251.34,-202.22 256.63,-197.03 249.25,-197.78 251.34,-202.22"/>
</g>
<!-- n19 -->
<g id="node20" class="node">
<title>n19</title>
<g id="a_node20"><a xlink:href="vscode://vscode-remote/wsl+Ubuntu/home/ai4stat/statlib/Statlib/Nonparametric/Vocabulary/NeuralNetwork.lean:260" xlink:title="noncomputable def · Statlib/Nonparametric/Vocabulary/NeuralNetwork.lean:260" target="_blank">
<path fill="#d6e9ff" stroke="#3b82f6" d="M552.48,-124C552.48,-124 451.52,-124 451.52,-124 445.52,-124 439.52,-118 439.52,-112 439.52,-112 439.52,-100 439.52,-100 439.52,-94 445.52,-88 451.52,-88 451.52,-88 552.48,-88 552.48,-88 558.48,-88 564.48,-94 564.48,-100 564.48,-100 564.48,-112 564.48,-112 564.48,-118 558.48,-124 552.48,-124"/>
<text xml:space="preserve" text-anchor="middle" x="502" y="-103" font-family="Helvetica,sans-Serif" font-size="10.00">squareSecantInterpolant</text>
</a>
</g>
</g>
<!-- n20 -->
<g id="node21" class="node">
<title>n20</title>
<g id="a_node21"><a xlink:href="vscode://vscode-remote/wsl+Ubuntu/home/ai4stat/statlib/Statlib/Nonparametric/Vocabulary/NeuralNetwork.lean:265" xlink:title="noncomputable def · Statlib/Nonparametric/Vocabulary/NeuralNetwork.lean:265" target="_blank">
<path fill="#d6e9ff" stroke="#3b82f6" d="M583.53,-196C583.53,-196 496.47,-196 496.47,-196 490.47,-196 484.47,-190 484.47,-184 484.47,-184 484.47,-172 484.47,-172 484.47,-166 490.47,-160 496.47,-160 496.47,-160 583.53,-160 583.53,-160 589.53,-160 595.53,-166 595.53,-172 595.53,-172 595.53,-184 595.53,-184 595.53,-190 589.53,-196 583.53,-196"/>
<text xml:space="preserve" text-anchor="middle" x="540" y="-175" font-family="Helvetica,sans-Serif" font-size="10.00">squareCellInterpolant</text>
</a>
</g>
</g>
<!-- n20&#45;&gt;n19 -->
<g id="edge30" class="edge">
<title>n20&#45;&gt;n19</title>
<path fill="none" stroke="#64748b" d="M530.61,-159.7C526.01,-151.22 520.38,-140.86 515.34,-131.58"/>
<polygon fill="#64748b" stroke="#64748b" points="517.5,-130.42 512.01,-125.43 513.19,-132.76 517.5,-130.42"/>
</g>
<!-- n21 -->
<g id="node22" class="node">
<title>n21</title>
<g id="a_node22"><a xlink:href="vscode://vscode-remote/wsl+Ubuntu/home/ai4stat/statlib/Statlib/Nonparametric/Approximation/NeuralNetworkAlgebra.lean:18" xlink:title="theorem · Statlib/Nonparametric/Approximation/NeuralNetworkAlgebra.lean:18" target="_blank">
<path fill="#ffe6a3" stroke="#d4a017" d="M589.9,-268C589.9,-268 366.1,-268 366.1,-268 360.1,-268 354.1,-262 354.1,-256 354.1,-256 354.1,-244 354.1,-244 354.1,-238 360.1,-232 366.1,-232 366.1,-232 589.9,-232 589.9,-232 595.9,-232 601.9,-238 601.9,-244 601.9,-244 601.9,-256 601.9,-256 601.9,-262 595.9,-268 589.9,-268"/>
<text xml:space="preserve" text-anchor="middle" x="478" y="-247" font-family="Helvetica,sans-Serif" font-size="10.00">squareReLUHingeInterpolant_error_le_of_mem_cell</text>
</a>
</g>
</g>
<!-- n21&#45;&gt;n4 -->
<g id="edge33" class="edge">
<title>n21&#45;&gt;n4</title>
<path fill="none" stroke="#64748b" d="M464.1,-231.75C448.11,-212.63 420.37,-181.62 392,-160 372.82,-145.38 349.09,-132.34 329.9,-122.85"/>
<polygon fill="#64748b" stroke="#64748b" points="330.99,-120.65 323.62,-119.8 328.85,-125.06 330.99,-120.65"/>
</g>
<!-- n21&#45;&gt;n5 -->
<g id="edge34" class="edge">
<title>n21&#45;&gt;n5</title>
<path fill="none" stroke="#64748b" d="M579.15,-231.52C666.69,-216.39 788.27,-195.37 847.6,-185.12"/>
<polygon fill="#64748b" stroke="#64748b" points="847.91,-187.55 854.4,-183.94 847.08,-182.72 847.91,-187.55"/>
</g>
<!-- n21&#45;&gt;n14 -->
<g id="edge31" class="edge">
<title>n21&#45;&gt;n14</title>
<path fill="none" stroke="#64748b" d="M432.29,-231.52C406.76,-221.75 374.82,-209.53 348.17,-199.34"/>
<polygon fill="#64748b" stroke="#64748b" points="349.27,-197.14 341.85,-196.92 347.52,-201.71 349.27,-197.14"/>
</g>
<!-- n21&#45;&gt;n19 -->
<g id="edge35" class="edge">
<title>n21&#45;&gt;n19</title>
<path fill="none" stroke="#64748b" d="M474.72,-231.66C471.91,-213.52 469.15,-184.35 475,-160 477.35,-150.21 481.82,-140.2 486.46,-131.55"/>
<polygon fill="#64748b" stroke="#64748b" points="488.48,-132.95 489.79,-125.65 484.21,-130.54 488.48,-132.95"/>
</g>
<!-- n21&#45;&gt;n20 -->
<g id="edge32" class="edge">
<title>n21&#45;&gt;n20</title>
<path fill="none" stroke="#64748b" d="M493.33,-231.7C501.13,-222.88 510.74,-212.03 519.21,-202.47"/>
<polygon fill="#64748b" stroke="#64748b" points="521.04,-204.1 523.85,-197.24 517.37,-200.85 521.04,-204.1"/>
</g>
<!-- n22 -->
<g id="node23" class="node">
<title>n22</title>
<g id="a_node23"><a xlink:href="vscode://vscode-remote/wsl+Ubuntu/home/ai4stat/statlib/Statlib/Nonparametric/Approximation/NeuralNetworkAlgebra.lean:191" xlink:title="theorem · Statlib/Nonparametric/Approximation/NeuralNetworkAlgebra.lean:191" target="_blank">
<path fill="#ffe6a3" stroke="#d4a017" d="M385.85,-340C385.85,-340 128.15,-340 128.15,-340 122.15,-340 116.15,-334 116.15,-328 116.15,-328 116.15,-316 116.15,-316 116.15,-310 122.15,-304 128.15,-304 128.15,-304 385.85,-304 385.85,-304 391.85,-304 397.85,-310 397.85,-316 397.85,-316 397.85,-328 397.85,-328 397.85,-334 391.85,-340 385.85,-340"/>
<text xml:space="preserve" text-anchor="middle" x="257" y="-319" font-family="Helvetica,sans-Serif" font-size="10.00">squareReLUHingeInterpolant_error_le_of_mem_unitInterval</text>
</a>
</g>
</g>
<!-- n22&#45;&gt;n14 -->
<g id="edge36" class="edge">
<title>n22&#45;&gt;n14</title>
<path fill="none" stroke="#64748b" d="M265.76,-303.73C270.6,-293.56 276.35,-280.31 280,-268 286.2,-247.09 290.09,-222.6 292.35,-204.61"/>
<polygon fill="#64748b" stroke="#64748b" points="294.76,-205.09 293.16,-197.85 289.9,-204.51 294.76,-205.09"/>
</g>
<!-- n22&#45;&gt;n21 -->
<g id="edge37" class="edge">
<title>n22&#45;&gt;n21</title>
<path fill="none" stroke="#64748b" d="M312.2,-303.52C343.43,-293.62 382.61,-281.22 415.03,-270.94"/>
<polygon fill="#64748b" stroke="#64748b" points="415.75,-273.29 421.68,-268.84 414.27,-268.62 415.75,-273.29"/>
</g>
<!-- n23 -->
<g id="node24" class="node">
<title>n23</title>
<g id="a_node24"><a xlink:href="vscode://vscode-remote/wsl+Ubuntu/home/ai4stat/statlib/Statlib/Nonparametric/Approximation/NeuralNetworkAlgebra.lean:253" xlink:title="theorem · Statlib/Nonparametric/Approximation/NeuralNetworkAlgebra.lean:253" target="_blank">
<path fill="#ffe6a3" stroke="#d4a017" d="M976.24,-412C976.24,-412 735.76,-412 735.76,-412 729.76,-412 723.76,-406 723.76,-400 723.76,-400 723.76,-388 723.76,-388 723.76,-382 729.76,-376 735.76,-376 735.76,-376 976.24,-376 976.24,-376 982.24,-376 988.24,-382 988.24,-388 988.24,-388 988.24,-400 988.24,-400 988.24,-406 982.24,-412 976.24,-412"/>
<text xml:space="preserve" text-anchor="middle" x="856" y="-391" font-family="Helvetica,sans-Serif" font-size="10.00">exists_fullyConnectedReLUNet_interval_square_approx</text>
</a>
</g>
</g>
<!-- n23&#45;&gt;n2 -->
<g id="edge38" class="edge">
<title>n23&#45;&gt;n2</title>
<path fill="none" stroke="#64748b" d="M901.42,-375.58C965.65,-351.03 1077.44,-308.72 1097,-304 1224.05,-273.32 1376.28,-260 1464.01,-254.53"/>
<polygon fill="#64748b" stroke="#64748b" points="1463.94,-256.99 1470.78,-254.11 1463.64,-252.1 1463.94,-256.99"/>
</g>
<!-- n23&#45;&gt;n4 -->
<g id="edge44" class="edge">
<title>n23&#45;&gt;n4</title>
<path fill="none" stroke="#64748b" d="M723.27,-388.41C510.85,-380.41 116.07,-362.59 95,-340 84.09,-328.3 85.09,-316.56 95,-304 137.45,-250.16 202.55,-321.84 245,-268 254.91,-255.44 250.69,-246.96 245,-232 237.39,-211.99 220.61,-216.01 213,-196 207.31,-181.04 205.35,-174.05 213,-160 223.07,-141.5 242.68,-128.47 260.2,-119.97"/>
<polygon fill="#64748b" stroke="#64748b" points="260.83,-122.37 266.17,-117.22 258.79,-117.92 260.83,-122.37"/>
</g>
<!-- n23&#45;&gt;n5 -->
<g id="edge45" class="edge">
<title>n23&#45;&gt;n5</title>
<path fill="none" stroke="#64748b" d="M830.33,-375.72C819.08,-366.58 807.07,-354.28 801,-340 794.74,-325.28 792.59,-317.61 801,-304 819.81,-273.57 852.52,-297.33 873,-268 885.81,-249.65 887.38,-223.79 886.29,-204.68"/>
<polygon fill="#64748b" stroke="#64748b" points="888.75,-204.71 885.76,-197.93 883.87,-205.1 888.75,-204.71"/>
</g>
<!-- n23&#45;&gt;n6 -->
<g id="edge40" class="edge">
<title>n23&#45;&gt;n6</title>
<path fill="none" stroke="#64748b" d="M836.09,-375.71C817.43,-357.36 794.56,-327.78 810,-304 812.5,-300.14 859.89,-279.78 894.1,-265.45"/>
<polygon fill="#64748b" stroke="#64748b" points="894.7,-267.86 900.21,-262.9 892.81,-263.34 894.7,-267.86"/>
</g>
<!-- n23&#45;&gt;n8 -->
<g id="edge51" class="edge">
<title>n23&#45;&gt;n8</title>
<path fill="none" stroke="#64748b" d="M852.09,-375.69C848.68,-355.61 846.76,-322.87 865,-304 906.46,-261.12 1076.87,-293.07 1131,-268 1152.7,-257.95 1151.85,-246.33 1171,-232 1187.32,-219.79 1206.54,-207.74 1222.67,-198.23"/>
<polygon fill="#64748b" stroke="#64748b" points="1223.72,-200.45 1228.53,-194.81 1221.25,-196.22 1223.72,-200.45"/>
</g>
<!-- n23&#45;&gt;n9 -->
<g id="edge50" class="edge">
<title>n23&#45;&gt;n9</title>
<path fill="none" stroke="#64748b" d="M912.91,-375.52C934.48,-367.07 958.31,-355.37 977,-340 992.04,-327.63 985.81,-314.84 1002,-304 1064.01,-262.49 1094.63,-289.79 1166,-268 1168.02,-267.38 1170.07,-266.72 1172.13,-266.01"/>
<polygon fill="#64748b" stroke="#64748b" points="1172.89,-268.34 1178.66,-263.67 1171.24,-263.73 1172.89,-268.34"/>
</g>
<!-- n23&#45;&gt;n10 -->
<g id="edge49" class="edge">
<title>n23&#45;&gt;n10</title>
<path fill="none" stroke="#64748b" d="M927.18,-375.52C980.89,-362.33 1052.8,-344.66 1098.01,-333.56"/>
<polygon fill="#64748b" stroke="#64748b" points="1098.45,-335.97 1104.67,-331.92 1097.28,-331.21 1098.45,-335.97"/>
</g>
<!-- n23&#45;&gt;n11 -->
<g id="edge39" class="edge">
<title>n23&#45;&gt;n11</title>
<path fill="none" stroke="#64748b" d="M988.73,-380.81C1159.25,-365.14 1447.29,-338.68 1565.24,-327.85"/>
<polygon fill="#64748b" stroke="#64748b" points="1565.18,-330.31 1571.93,-327.23 1564.73,-325.43 1565.18,-330.31"/>
</g>
<!-- n23&#45;&gt;n12 -->
<g id="edge41" class="edge">
<title>n23&#45;&gt;n12</title>
<path fill="none" stroke="#64748b" d="M842.5,-375.52C829.32,-356.19 813.49,-325.01 830,-304 834.43,-298.37 905.79,-281.7 965.67,-268.54"/>
<polygon fill="#64748b" stroke="#64748b" points="965.87,-271.01 972.18,-267.12 964.82,-266.22 965.87,-271.01"/>
</g>
<!-- n23&#45;&gt;n13 -->
<g id="edge42" class="edge">
<title>n23&#45;&gt;n13</title>
<path fill="none" stroke="#64748b" d="M973.14,-375.52C1050.86,-363.92 1151.76,-348.86 1225.57,-337.84"/>
<polygon fill="#64748b" stroke="#64748b" points="1225.92,-340.27 1232.48,-336.81 1225.19,-335.42 1225.92,-340.27"/>
</g>
<!-- n23&#45;&gt;n14 -->
<g id="edge43" class="edge">
<title>n23&#45;&gt;n14</title>
<path fill="none" stroke="#64748b" d="M723.68,-388.27C514.21,-380.13 127.68,-362.19 107,-340 96.09,-328.29 97.07,-316.54 107,-304 150.37,-249.24 207.19,-313.73 260,-268 269.89,-259.43 280.87,-227.67 287.85,-204.53"/>
<polygon fill="#64748b" stroke="#64748b" points="290.18,-205.31 289.8,-197.9 285.48,-203.92 290.18,-205.31"/>
</g>
<!-- n23&#45;&gt;n15 -->
<g id="edge46" class="edge">
<title>n23&#45;&gt;n15</title>
<path fill="none" stroke="#64748b" d="M810,-375.74C794.45,-367.43 778.81,-355.77 770,-340 759.08,-320.43 764.2,-294.78 770.8,-276.05"/>
<polygon fill="#64748b" stroke="#64748b" points="773.03,-277.06 773.24,-269.64 768.46,-275.31 773.03,-277.06"/>
</g>
<!-- n23&#45;&gt;n16 -->
<g id="edge47" class="edge">
<title>n23&#45;&gt;n16</title>
<path fill="none" stroke="#64748b" d="M786.07,-375.52C745.82,-365.46 695.18,-352.79 653.69,-342.42"/>
<polygon fill="#64748b" stroke="#64748b" points="654.38,-340.07 647,-340.75 653.19,-344.82 654.38,-340.07"/>
</g>
<!-- n23&#45;&gt;n17 -->
<g id="edge48" class="edge">
<title>n23&#45;&gt;n17</title>
<path fill="none" stroke="#64748b" d="M872.07,-375.7C880.33,-366.8 890.52,-355.82 899.46,-346.2"/>
<polygon fill="#64748b" stroke="#64748b" points="901.12,-348.01 904.09,-341.21 897.53,-344.68 901.12,-348.01"/>
</g>
<!-- n23&#45;&gt;n18 -->
<g id="edge52" class="edge">
<title>n23&#45;&gt;n18</title>
<path fill="none" stroke="#64748b" d="M723.51,-386.34C502.86,-374.93 82.97,-351.74 72,-340 61.07,-328.31 64.69,-318.23 72,-304 78.52,-291.31 89.64,-280.98 101.32,-272.92"/>
<polygon fill="#64748b" stroke="#64748b" points="102.41,-275.13 106.95,-269.26 99.74,-271.02 102.41,-275.13"/>
</g>
<!-- n23&#45;&gt;n22 -->
<g id="edge53" class="edge">
<title>n23&#45;&gt;n22</title>
<path fill="none" stroke="#64748b" d="M723.43,-377.51C629.76,-366.56 504.08,-351.87 406.78,-340.5"/>
<polygon fill="#64748b" stroke="#64748b" points="407.09,-338.07 399.85,-339.69 406.52,-342.94 407.09,-338.07"/>
</g>
<!-- n24 -->
<g id="node25" class="node">
<title>n24</title>
<g id="a_node25"><a xlink:href="vscode://vscode-remote/wsl+Ubuntu/home/ai4stat/statlib/Statlib/Nonparametric/Approximation/NeuralNetworkAlgebra.lean:462" xlink:title="theorem · Statlib/Nonparametric/Approximation/NeuralNetworkAlgebra.lean:462" target="_blank">
<path fill="#ffe6a3" stroke="#d4a017" d="M1140.29,-484C1140.29,-484 913.71,-484 913.71,-484 907.71,-484 901.71,-478 901.71,-472 901.71,-472 901.71,-460 901.71,-460 901.71,-454 907.71,-448 913.71,-448 913.71,-448 1140.29,-448 1140.29,-448 1146.29,-448 1152.29,-454 1152.29,-460 1152.29,-460 1152.29,-472 1152.29,-472 1152.29,-478 1146.29,-484 1140.29,-484"/>
<text xml:space="preserve" text-anchor="middle" x="1027" y="-463" font-family="Helvetica,sans-Serif" font-size="10.00">exists_fullyConnectedReLUNet_mul_approx_on_box</text>
</a>
</g>
</g>
<!-- n24&#45;&gt;n0 -->
<g id="edge58" class="edge">
<title>n24&#45;&gt;n0</title>
<path fill="none" stroke="#64748b" d="M1034.25,-447.77C1051.54,-406.75 1094.01,-306.47 1097,-304 1153.9,-257.07 1201.38,-314.04 1259,-268 1326,-214.46 1352.22,-109.23 1361.07,-60.67"/>
<polygon fill="#64748b" stroke="#64748b" points="1363.49,-61.09 1362.27,-53.78 1358.66,-60.26 1363.49,-61.09"/>
</g>
<!-- n24&#45;&gt;n2 -->
<g id="edge54" class="edge">
<title>n24&#45;&gt;n2</title>
<path fill="none" stroke="#64748b" d="M1056.7,-447.56C1072.66,-437.75 1092.42,-424.92 1109,-412 1115.95,-406.59 1217.11,-307.9 1225,-304 1300.92,-266.46 1398.6,-254.93 1464.05,-251.69"/>
<polygon fill="#64748b" stroke="#64748b" points="1463.87,-254.15 1470.75,-251.39 1463.65,-249.26 1463.87,-254.15"/>
</g>
<!-- n24&#45;&gt;n4 -->
<g id="edge64" class="edge">
<title>n24&#45;&gt;n4</title>
<path fill="none" stroke="#64748b" d="M901.35,-453.31C770.42,-440.96 574.06,-421.93 499,-412 474.55,-408.77 78.69,-357.18 61,-340 26.28,-306.28 23.15,-274.12 47,-232 91.27,-153.82 202.48,-123.22 259.73,-112.36"/>
<polygon fill="#64748b" stroke="#64748b" points="259.84,-114.83 266.29,-111.17 258.96,-110.01 259.84,-114.83"/>
</g>
<!-- n24&#45;&gt;n5 -->
<g id="edge60" class="edge">
<title>n24&#45;&gt;n5</title>
<path fill="none" stroke="#64748b" d="M901.59,-449.08C839.87,-440.16 764.6,-427.66 698,-412 593.32,-387.39 530.73,-426.62 467,-340 457.52,-327.11 456.86,-316.38 467,-304 518.41,-241.22 580.48,-315.88 646,-268 660.78,-257.2 651.45,-243.1 666,-232 719.74,-191.01 800.87,-181.27 847.2,-179.22"/>
<polygon fill="#64748b" stroke="#64748b" points="847.29,-181.67 854.19,-178.97 847.11,-176.78 847.29,-181.67"/>
</g>
<!-- n24&#45;&gt;n6 -->
<g id="edge56" class="edge">
<title>n24&#45;&gt;n6</title>
<path fill="none" stroke="#64748b" d="M901.38,-451.37C820.21,-441.27 727.45,-426.74 715,-412 665.6,-353.5 774.04,-320.34 801,-304 830.55,-286.1 867.23,-271.6 893.75,-262.32"/>
<polygon fill="#64748b" stroke="#64748b" points="894.38,-264.69 900.2,-260.1 892.78,-260.06 894.38,-264.69"/>
</g>
<!-- n24&#45;&gt;n8 -->
<g id="edge63" class="edge">
<title>n24&#45;&gt;n8</title>
<path fill="none" stroke="#64748b" d="M1030.7,-447.52C1039,-410 1060.06,-323.56 1082,-304 1138.02,-254.05 1196.73,-323.73 1247,-268 1262.24,-251.1 1263.32,-224.44 1261.46,-204.7"/>
<polygon fill="#64748b" stroke="#64748b" points="1263.91,-204.61 1260.65,-197.95 1259.05,-205.19 1263.91,-204.61"/>
</g>
<!-- n24&#45;&gt;n9 -->
<g id="edge62" class="edge">
<title>n24&#45;&gt;n9</title>
<path fill="none" stroke="#64748b" d="M1025.63,-447.55C1024.09,-415.1 1025.55,-345.08 1062,-304 1094.47,-267.41 1120.13,-285 1166,-268 1167.98,-267.27 1170,-266.51 1172.04,-265.73"/>
<polygon fill="#64748b" stroke="#64748b" points="1172.86,-268.04 1178.51,-263.24 1171.1,-263.47 1172.86,-268.04"/>
</g>
<!-- n24&#45;&gt;n10 -->
<g id="edge61" class="edge">
<title>n24&#45;&gt;n10</title>
<path fill="none" stroke="#64748b" d="M1052.75,-447.62C1065.58,-438.11 1080.72,-425.53 1092,-412 1108.31,-392.44 1121.81,-366.64 1130.48,-347.85"/>
<polygon fill="#64748b" stroke="#64748b" points="1132.63,-349.04 1133.27,-341.65 1128.16,-347.03 1132.63,-349.04"/>
</g>
<!-- n24&#45;&gt;n11 -->
<g id="edge55" class="edge">
<title>n24&#45;&gt;n11</title>
<path fill="none" stroke="#64748b" d="M1152.53,-457.7C1319.35,-447.42 1595.09,-428.1 1611,-412 1627.04,-395.77 1626.94,-368.77 1623.97,-348.76"/>
<polygon fill="#64748b" stroke="#64748b" points="1626.39,-348.36 1622.76,-341.89 1621.56,-349.2 1626.39,-348.36"/>
</g>
<!-- n24&#45;&gt;n13 -->
<g id="edge59" class="edge">
<title>n24&#45;&gt;n13</title>
<path fill="none" stroke="#64748b" d="M1084.3,-447.55C1112.45,-438.25 1146.57,-425.86 1176,-412 1217.89,-392.27 1263.18,-364.16 1292.7,-344.83"/>
<polygon fill="#64748b" stroke="#64748b" points="1293.72,-347.09 1298.22,-341.2 1291.02,-343 1293.72,-347.09"/>
</g>
<!-- n24&#45;&gt;n23 -->
<g id="edge57" class="edge">
<title>n24&#45;&gt;n23</title>
<path fill="none" stroke="#64748b" d="M984.29,-447.52C960.64,-437.83 931.09,-425.74 906.32,-415.6"/>
<polygon fill="#64748b" stroke="#64748b" points="907.27,-413.34 899.86,-412.96 905.41,-417.87 907.27,-413.34"/>
</g>
<!-- n25 -->
<g id="node26" class="node">
<title>n25</title>
<g id="a_node26"><a xlink:href="vscode://vscode-remote/wsl+Ubuntu/home/ai4stat/statlib/Statlib/Nonparametric/Approximation/NeuralNetworkAlgebra.lean:714" xlink:title="theorem · Statlib/Nonparametric/Approximation/NeuralNetworkAlgebra.lean:714" target="_blank">
<path fill="#ffe6a3" stroke="#d4a017" d="M1589.51,-412C1589.51,-412 1348.49,-412 1348.49,-412 1342.49,-412 1336.49,-406 1336.49,-400 1336.49,-400 1336.49,-388 1336.49,-388 1336.49,-382 1342.49,-376 1348.49,-376 1348.49,-376 1589.51,-376 1589.51,-376 1595.51,-376 1601.51,-382 1601.51,-388 1601.51,-388 1601.51,-400 1601.51,-400 1601.51,-406 1595.51,-412 1589.51,-412"/>
<text xml:space="preserve" text-anchor="middle" x="1469" y="-391" font-family="Helvetica,sans-Serif" font-size="10.00">exists_fullyConnectedReLUNet_linear_combination_two</text>
</a>
</g>
</g>
<!-- n25&#45;&gt;n0 -->
<g id="edge68" class="edge">
<title>n25&#45;&gt;n0</title>
<path fill="none" stroke="#64748b" d="M1490.44,-375.63C1502.61,-365.54 1517.97,-352.4 1531,-340 1546.94,-324.83 1548.98,-319.09 1565,-304 1583.14,-286.91 1597.45,-290.58 1608,-268 1614.77,-253.5 1614.3,-246.71 1608,-232 1568.09,-138.78 1457.13,-76.74 1399.99,-49.99"/>
<polygon fill="#64748b" stroke="#64748b" points="1401.06,-47.79 1393.67,-47.09 1399.01,-52.24 1401.06,-47.79"/>
</g>
<!-- n25&#45;&gt;n2 -->
<g id="edge65" class="edge">
<title>n25&#45;&gt;n2</title>
<path fill="none" stroke="#64748b" d="M1490.99,-375.57C1501.39,-366.15 1513.03,-353.65 1520,-340 1530.06,-320.29 1533.89,-295.31 1535.31,-276.83"/>
<polygon fill="#64748b" stroke="#64748b" points="1537.75,-276.98 1535.73,-269.85 1532.86,-276.69 1537.75,-276.98"/>
</g>
<!-- n25&#45;&gt;n5 -->
<g id="edge73" class="edge">
<title>n25&#45;&gt;n5</title>
<path fill="none" stroke="#64748b" d="M1475.36,-375.77C1481.31,-356.37 1487.22,-324.85 1472,-304 1456.52,-282.8 1272.57,-237.91 1247,-232 1128.2,-204.54 984.14,-188.56 918.57,-182.21"/>
<polygon fill="#64748b" stroke="#64748b" points="918.93,-179.78 911.73,-181.56 918.47,-184.66 918.93,-179.78"/>
</g>
<!-- n25&#45;&gt;n6 -->
<g id="edge67" class="edge">
<title>n25&#45;&gt;n6</title>
<path fill="none" stroke="#64748b" d="M1465.73,-375.74C1460.95,-352.47 1451.37,-312.93 1440,-304 1356.75,-238.62 1067.34,-295.05 965,-268 964.72,-267.93 964.45,-267.85 964.17,-267.78"/>
<polygon fill="#64748b" stroke="#64748b" points="964.98,-265.46 957.56,-265.55 963.41,-270.11 964.98,-265.46"/>
</g>
<!-- n25&#45;&gt;n8 -->
<g id="edge72" class="edge">
<title>n25&#45;&gt;n8</title>
<path fill="none" stroke="#64748b" d="M1483.55,-375.65C1497.32,-356.99 1513.98,-326.91 1500,-304 1476.47,-265.44 1353.46,-215.07 1292.01,-191.8"/>
<polygon fill="#64748b" stroke="#64748b" points="1292.95,-189.54 1285.54,-189.37 1291.23,-194.13 1292.95,-189.54"/>
</g>
<!-- n25&#45;&gt;n9 -->
<g id="edge71" class="edge">
<title>n25&#45;&gt;n9</title>
<path fill="none" stroke="#64748b" d="M1472.79,-375.5C1475.99,-355.56 1477.62,-323.25 1460,-304 1402.56,-241.24 1354.9,-287.1 1272,-268 1263.55,-266.05 1254.52,-263.75 1246.02,-261.48"/>
<polygon fill="#64748b" stroke="#64748b" points="1246.91,-259.19 1239.52,-259.72 1245.63,-263.92 1246.91,-259.19"/>
</g>
<!-- n25&#45;&gt;n10 -->
<g id="edge70" class="edge">
<title>n25&#45;&gt;n10</title>
<path fill="none" stroke="#64748b" d="M1387.08,-375.52C1322.73,-361.78 1235.67,-343.2 1184.21,-332.22"/>
<polygon fill="#64748b" stroke="#64748b" points="1184.8,-329.84 1177.44,-330.78 1183.77,-334.63 1184.8,-329.84"/>
</g>
<!-- n25&#45;&gt;n11 -->
<g id="edge66" class="edge">
<title>n25&#45;&gt;n11</title>
<path fill="none" stroke="#64748b" d="M1506.21,-375.52C1526.56,-365.96 1551.9,-354.05 1573.31,-344"/>
<polygon fill="#64748b" stroke="#64748b" points="1574.34,-346.22 1579.63,-341.03 1572.25,-341.78 1574.34,-346.22"/>
</g>
<!-- n25&#45;&gt;n13 -->
<g id="edge69" class="edge">
<title>n25&#45;&gt;n13</title>
<path fill="none" stroke="#64748b" d="M1433.03,-375.52C1413.3,-365.92 1388.7,-353.96 1367.96,-343.88"/>
<polygon fill="#64748b" stroke="#64748b" points="1369.24,-341.78 1361.87,-340.92 1367.09,-346.19 1369.24,-341.78"/>
</g>
<!-- n26 -->
<g id="node27" class="node">
<title>n26</title>
<g id="a_node27"><a xlink:href="vscode://vscode-remote/wsl+Ubuntu/home/ai4stat/statlib/Statlib/Nonparametric/Approximation/NeuralNetworkAlgebra.lean:844" xlink:title="theorem · Statlib/Nonparametric/Approximation/NeuralNetworkAlgebra.lean:844" target="_blank">
<path fill="#ffe6a3" stroke="#d4a017" d="M1628.58,-484C1628.58,-484 1351.42,-484 1351.42,-484 1345.42,-484 1339.42,-478 1339.42,-472 1339.42,-472 1339.42,-460 1339.42,-460 1339.42,-454 1345.42,-448 1351.42,-448 1351.42,-448 1628.58,-448 1628.58,-448 1634.58,-448 1640.58,-454 1640.58,-460 1640.58,-460 1640.58,-472 1640.58,-472 1640.58,-478 1634.58,-484 1628.58,-484"/>
<text xml:space="preserve" text-anchor="middle" x="1490" y="-463" font-family="Helvetica,sans-Serif" font-size="10.00">exists_fullyConnectedReLUNet_linear_combination_two_approx</text>
</a>
</g>
</g>
<!-- n26&#45;&gt;n2 -->
<g id="edge74" class="edge">
<title>n26&#45;&gt;n2</title>
<path fill="none" stroke="#64748b" d="M1570.38,-447.57C1593.22,-439.64 1616.81,-428.24 1635,-412 1661.69,-388.17 1662.78,-374.82 1671,-340 1674.68,-324.43 1680.01,-317.22 1671,-304 1656.41,-282.6 1631.75,-269.84 1607.46,-262.23"/>
<polygon fill="#64748b" stroke="#64748b" points="1608.47,-259.97 1601.06,-260.36 1607.09,-264.68 1608.47,-259.97"/>
</g>
<!-- n26&#45;&gt;n6 -->
<g id="edge75" class="edge">
<title>n26&#45;&gt;n6</title>
<path fill="none" stroke="#64748b" d="M1374.22,-447.54C1355.72,-439.62 1338.8,-428.25 1327,-412 1274.35,-339.51 1417.99,-350.04 1425,-340 1434.16,-326.88 1435.86,-315.75 1425,-304 1390.19,-266.36 1014.55,-281.16 965,-268 964.72,-267.93 964.45,-267.85 964.17,-267.77"/>
<polygon fill="#64748b" stroke="#64748b" points="964.98,-265.46 957.56,-265.54 963.41,-270.1 964.98,-265.46"/>
</g>
<!-- n26&#45;&gt;n11 -->
<g id="edge76" class="edge">
<title>n26&#45;&gt;n11</title>
<path fill="none" stroke="#64748b" d="M1579.29,-447.58C1597.65,-439.76 1614.77,-428.42 1626,-412 1638.66,-393.48 1634.46,-367.49 1628.42,-348.37"/>
<polygon fill="#64748b" stroke="#64748b" points="1630.75,-347.63 1626.15,-341.81 1626.12,-349.23 1630.75,-347.63"/>
</g>
<!-- n26&#45;&gt;n25 -->
<g id="edge77" class="edge">
<title>n26&#45;&gt;n25</title>
<path fill="none" stroke="#64748b" d="M1484.81,-447.7C1482.32,-439.39 1479.28,-429.28 1476.54,-420.14"/>
<polygon fill="#64748b" stroke="#64748b" points="1478.92,-419.55 1474.57,-413.55 1474.23,-420.96 1478.92,-419.55"/>
</g>
<!-- n27 -->
<g id="node28" class="node">
<title>n27</title>
<g id="a_node28"><a xlink:href="vscode://vscode-remote/wsl+Ubuntu/home/ai4stat/statlib/Statlib/Nonparametric/Approximation/NeuralNetworkAlgebra.lean:964" xlink:title="theorem · Statlib/Nonparametric/Approximation/NeuralNetworkAlgebra.lean:964" target="_blank">
<path fill="#ffe6a3" stroke="#d4a017" d="M1631.36,-556C1631.36,-556 1348.64,-556 1348.64,-556 1342.64,-556 1336.64,-550 1336.64,-544 1336.64,-544 1336.64,-532 1336.64,-532 1336.64,-526 1342.64,-520 1348.64,-520 1348.64,-520 1631.36,-520 1631.36,-520 1637.36,-520 1643.36,-526 1643.36,-532 1643.36,-532 1643.36,-544 1643.36,-544 1643.36,-550 1637.36,-556 1631.36,-556"/>
<text xml:space="preserve" text-anchor="middle" x="1490" y="-535" font-family="Helvetica,sans-Serif" font-size="10.00">exists_fullyConnectedReLUNet_finite_linear_combination_approx</text>
</a>
</g>
</g>
<!-- n27&#45;&gt;n0 -->
<g id="edge82" class="edge">
<title>n27&#45;&gt;n0</title>
<path fill="none" stroke="#64748b" d="M1643.68,-523.36C1722.03,-507.03 1801,-471.57 1801,-395 1801,-395 1801,-395 1801,-177 1801,-92.99 1504.62,-50.98 1400.58,-38.82"/>
<polygon fill="#64748b" stroke="#64748b" points="1401.01,-36.41 1393.78,-38.04 1400.45,-41.28 1401.01,-36.41"/>
</g>
<!-- n27&#45;&gt;n1 -->
<g id="edge83" class="edge">
<title>n27&#45;&gt;n1</title>
<path fill="none" stroke="#64748b" d="M1611.19,-519.63C1635.32,-511.79 1659.03,-500.43 1678,-484 1736.09,-433.7 1741,-399.84 1741,-323 1741,-323 1741,-323 1741,-249 1741,-126.52 1546.01,-108.49 1456.71,-106.66"/>
<polygon fill="#64748b" stroke="#64748b" points="1456.96,-104.21 1449.93,-106.55 1456.89,-109.11 1456.96,-104.21"/>
</g>
<!-- n27&#45;&gt;n2 -->
<g id="edge78" class="edge">
<title>n27&#45;&gt;n2</title>
<path fill="none" stroke="#64748b" d="M1609.35,-519.52C1629.08,-511.6 1647.48,-500.25 1661,-484 1712.39,-422.22 1723.82,-370.01 1678,-304 1661.89,-280.79 1634.3,-267.72 1607.71,-260.38"/>
<polygon fill="#64748b" stroke="#64748b" points="1608.36,-258.01 1600.97,-258.65 1607.14,-262.76 1608.36,-258.01"/>
</g>
<!-- n27&#45;&gt;n6 -->
<g id="edge79" class="edge">
<title>n27&#45;&gt;n6</title>
<path fill="none" stroke="#64748b" d="M1427.01,-519.51C1391.86,-509.54 1347.35,-496.55 1308,-484 1168.6,-439.53 1136.77,-419.27 997,-376 938.91,-358.02 901.91,-388.33 865,-340 855.29,-327.28 858.19,-318.48 865,-304 871.36,-290.47 883.07,-279.2 894.74,-270.59"/>
<polygon fill="#64748b" stroke="#64748b" points="895.99,-272.71 900.33,-266.7 893.19,-268.69 895.99,-272.71"/>
</g>
<!-- n27&#45;&gt;n7 -->
<g id="edge81" class="edge">
<title>n27&#45;&gt;n7</title>
<path fill="none" stroke="#64748b" d="M1336.21,-524.45C1215.58,-514.33 1043.49,-499.32 893,-484 867.22,-481.38 838.96,-478.2 814.1,-475.31"/>
<polygon fill="#64748b" stroke="#64748b" points="814.55,-472.9 807.31,-474.52 813.98,-477.76 814.55,-472.9"/>
</g>
<!-- n27&#45;&gt;n11 -->
<g id="edge80" class="edge">
<title>n27&#45;&gt;n11</title>
<path fill="none" stroke="#64748b" d="M1602.88,-519.5C1621.35,-511.6 1638.26,-500.25 1650,-484 1679.63,-442.98 1652.76,-381.4 1633.51,-347.52"/>
<polygon fill="#64748b" stroke="#64748b" points="1635.72,-346.44 1630.07,-341.64 1631.49,-348.92 1635.72,-346.44"/>
</g>
<!-- n27&#45;&gt;n13 -->
<g id="edge84" class="edge">
<title>n27&#45;&gt;n13</title>
<path fill="none" stroke="#64748b" d="M1386.78,-519.57C1365.64,-511.75 1345.23,-500.41 1330,-484 1296.02,-447.37 1307.03,-383.44 1316.79,-348.17"/>
<polygon fill="#64748b" stroke="#64748b" points="1319.06,-349.12 1318.67,-341.72 1314.36,-347.75 1319.06,-349.12"/>
</g>
<!-- n27&#45;&gt;n26 -->
<g id="edge85" class="edge">
<title>n27&#45;&gt;n26</title>
<path fill="none" stroke="#64748b" d="M1490,-519.7C1490,-511.47 1490,-501.48 1490,-492.42"/>
<polygon fill="#64748b" stroke="#64748b" points="1492.45,-492.62 1490,-485.62 1487.55,-492.62 1492.45,-492.62"/>
</g>
<!-- n28 -->
<g id="node29" class="node">
<title>n28</title>
<g id="a_node29"><a xlink:href="vscode://vscode-remote/wsl+Ubuntu/home/ai4stat/statlib/Statlib/Nonparametric/Approximation/NeuralNetworkAlgebra.lean:2728" xlink:title="theorem · Statlib/Nonparametric/Approximation/NeuralNetworkAlgebra.lean:2728" target="_blank">
<path fill="#ffe6a3" stroke="#d4a017" d="M1259.82,-628C1259.82,-628 794.18,-628 794.18,-628 788.18,-628 782.18,-622 782.18,-616 782.18,-616 782.18,-604 782.18,-604 782.18,-598 788.18,-592 794.18,-592 794.18,-592 1259.82,-592 1259.82,-592 1265.82,-592 1271.82,-598 1271.82,-604 1271.82,-604 1271.82,-616 1271.82,-616 1271.82,-622 1265.82,-628 1259.82,-628"/>
<text xml:space="preserve" text-anchor="middle" x="1027" y="-607" font-family="Helvetica,sans-Serif" font-size="10.00">exists_fullyConnectedReLUNet_finite_centered_monomial_polynomial_approx_on_box_with_depth_bound</text>
</a>
</g>
</g>
<!-- n28&#45;&gt;n0 -->
<g id="edge96" class="edge">
<title>n28&#45;&gt;n0</title>
<path fill="none" stroke="#64748b" d="M1271.93,-603.87C1431.77,-597.82 1624.47,-584.66 1701,-556 1763.18,-532.71 1821,-533.4 1821,-467 1821,-467 1821,-467 1821,-177 1821,-149.93 1860.27,-151.08 1719,-88 1610.39,-39.5 1466.3,-33.9 1400.5,-34.16"/>
<polygon fill="#64748b" stroke="#64748b" points="1400.61,-31.71 1393.63,-34.21 1400.65,-36.61 1400.61,-31.71"/>
</g>
<!-- n28&#45;&gt;n1 -->
<g id="edge95" class="edge">
<title>n28&#45;&gt;n1</title>
<path fill="none" stroke="#64748b" d="M1272.26,-598.78C1441.24,-590.07 1641.5,-575.8 1677,-556 1711.7,-536.64 1715.03,-520.81 1730,-484 1784.33,-350.43 1827.1,-248.18 1713,-160 1673.56,-129.52 1529.57,-115.19 1456.36,-109.75"/>
<polygon fill="#64748b" stroke="#64748b" points="1456.89,-107.34 1449.73,-109.27 1456.54,-112.22 1456.89,-107.34"/>
</g>
<!-- n28&#45;&gt;n2 -->
<g id="edge86" class="edge">
<title>n28&#45;&gt;n2</title>
<path fill="none" stroke="#64748b" d="M1272.08,-600.39C1433.67,-592.64 1621.04,-578.87 1652,-556 1743.27,-488.58 1769.39,-387.91 1693,-304 1671.04,-279.88 1637.74,-266.73 1607.45,-259.57"/>
<polygon fill="#64748b" stroke="#64748b" points="1608.26,-257.23 1600.89,-258.11 1607.2,-262.02 1608.26,-257.23"/>
</g>
<!-- n28&#45;&gt;n4 -->
<g id="edge89" class="edge">
<title>n28&#45;&gt;n4</title>
<path fill="none" stroke="#64748b" d="M965.54,-591.57C942.58,-583.18 917.21,-571.5 897,-556 849.18,-519.32 868.12,-476.47 815,-448 702.16,-387.53 365.53,-437.17 240,-412 144.08,-392.77 90.39,-418.49 32,-340 -16.91,-274.25 5.92,-208.47 72,-160 128.34,-118.68 212.29,-109.11 259.48,-107.17"/>
<polygon fill="#64748b" stroke="#64748b" points="259.42,-109.62 266.34,-106.94 259.26,-104.73 259.42,-109.62"/>
</g>
<!-- n28&#45;&gt;n5 -->
<g id="edge91" class="edge">
<title>n28&#45;&gt;n5</title>
<path fill="none" stroke="#64748b" d="M827.83,-591.5C772.43,-583.46 721.32,-572.02 699,-556 684.3,-545.45 691.51,-533.96 680,-520 598.73,-421.48 511.2,-455.17 456,-340 449.08,-325.57 445.9,-316.41 456,-304 505.55,-243.07 567.31,-316.61 629,-268 642.9,-257.05 632.18,-243.05 646,-232 676.83,-207.33 789.4,-190.39 847.61,-183.07"/>
<polygon fill="#64748b" stroke="#64748b" points="847.64,-185.54 854.28,-182.25 847.04,-180.68 847.64,-185.54"/>
</g>
<!-- n28&#45;&gt;n6 -->
<g id="edge87" class="edge">
<title>n28&#45;&gt;n6</title>
<path fill="none" stroke="#64748b" d="M896.96,-591.5C857.71,-583.54 815.19,-572.16 778,-556 726.77,-533.74 700.81,-533.53 675,-484 655.67,-446.91 698,-330.93 730,-304 780.14,-261.8 809.85,-285.52 873,-268 879.76,-266.13 886.94,-264.03 893.83,-261.96"/>
<polygon fill="#64748b" stroke="#64748b" points="894.3,-264.38 900.28,-260 892.87,-259.69 894.3,-264.38"/>
</g>
<!-- n28&#45;&gt;n7 -->
<g id="edge88" class="edge">
<title>n28&#45;&gt;n7</title>
<path fill="none" stroke="#64748b" d="M906.9,-591.53C877,-583.7 846.08,-572.37 820,-556 794.09,-539.73 772.59,-511.58 759.35,-491.28"/>
<polygon fill="#64748b" stroke="#64748b" points="761.49,-490.07 755.67,-485.48 757.35,-492.7 761.49,-490.07"/>
</g>
<!-- n28&#45;&gt;n8 -->
<g id="edge93" class="edge">
<title>n28&#45;&gt;n8</title>
<path fill="none" stroke="#64748b" d="M1071.94,-591.59C1090.48,-582.88 1111.26,-570.96 1127,-556 1214.11,-473.22 1164.59,-407.88 1225,-304 1236.06,-284.97 1250.87,-288.45 1259,-268 1267.07,-247.7 1265.62,-222.68 1262.7,-204.35"/>
<polygon fill="#64748b" stroke="#64748b" points="1265.2,-204.38 1261.55,-197.92 1260.37,-205.25 1265.2,-204.38"/>
</g>
<!-- n28&#45;&gt;n9 -->
<g id="edge92" class="edge">
<title>n28&#45;&gt;n9</title>
<path fill="none" stroke="#64748b" d="M993.21,-591.6C941.81,-562.8 853.87,-502.95 893,-448 921.37,-408.16 962.04,-446.21 997,-412 1033.58,-376.2 999.72,-339.07 1037,-304 1077.24,-266.14 1103.25,-284.44 1156,-268 1161.21,-266.38 1166.69,-264.64 1172.08,-262.93"/>
<polygon fill="#64748b" stroke="#64748b" points="1172.51,-265.37 1178.43,-260.9 1171.01,-260.7 1172.51,-265.37"/>
</g>
<!-- n28&#45;&gt;n10 -->
<g id="edge90" class="edge">
<title>n28&#45;&gt;n10</title>
<path fill="none" stroke="#64748b" d="M1056.94,-591.66C1089.55,-570.84 1139.88,-532.58 1161,-484 1180.56,-438.99 1164.23,-380.67 1151.81,-348.01"/>
<polygon fill="#64748b" stroke="#64748b" points="1154.16,-347.3 1149.31,-341.69 1149.6,-349.1 1154.16,-347.3"/>
</g>
<!-- n28&#45;&gt;n24 -->
<g id="edge94" class="edge">
<title>n28&#45;&gt;n24</title>
<path fill="none" stroke="#64748b" d="M1027,-591.59C1027,-566.76 1027,-521.01 1027,-492.4"/>
<polygon fill="#64748b" stroke="#64748b" points="1029.45,-492.62 1027,-485.62 1024.55,-492.62 1029.45,-492.62"/>
</g>
<!-- n28&#45;&gt;n27 -->
<g id="edge97" class="edge">
<title>n28&#45;&gt;n27</title>
<path fill="none" stroke="#64748b" d="M1142.64,-591.52C1210.72,-581.22 1296.81,-568.21 1366.25,-557.71"/>
<polygon fill="#64748b" stroke="#64748b" points="1366.58,-560.14 1373.13,-556.67 1365.85,-555.29 1366.58,-560.14"/>
</g>
<!-- n29 -->
<g id="node30" class="node">
<title>n29</title>
<g id="a_node30"><a xlink:href="vscode://vscode-remote/wsl+Ubuntu/home/ai4stat/statlib/Statlib/Nonparametric/Approximation/NeuralNetworkAlgebra.lean:4315" xlink:title="theorem · Statlib/Nonparametric/Approximation/NeuralNetworkAlgebra.lean:4315" target="_blank">
<path fill="#ffe6a3" stroke="#d4a017" d="M659.36,-556C659.36,-556 396.64,-556 396.64,-556 390.64,-556 384.64,-550 384.64,-544 384.64,-544 384.64,-532 384.64,-532 384.64,-526 390.64,-520 396.64,-520 396.64,-520 659.36,-520 659.36,-520 665.36,-520 671.36,-526 671.36,-532 671.36,-532 671.36,-544 671.36,-544 671.36,-550 665.36,-556 659.36,-556"/>
<text xml:space="preserve" text-anchor="middle" x="528" y="-535" font-family="Helvetica,sans-Serif" font-size="10.00">taylor_polynomial_as_finite_centered_coordinate_polynomial</text>
</a>
</g>
</g>
<!-- n29&#45;&gt;n5 -->
<g id="edge99" class="edge">
<title>n29&#45;&gt;n5</title>
<path fill="none" stroke="#64748b" d="M509.82,-519.71C468.61,-478.44 375.87,-372.54 432,-304 483.41,-241.22 543.17,-312.55 611,-268 627.28,-257.31 619.79,-242.8 636,-232 701.39,-188.45 796.21,-179.89 847.26,-178.69"/>
<polygon fill="#64748b" stroke="#64748b" points="847.19,-181.14 854.15,-178.57 847.11,-176.24 847.19,-181.14"/>
</g>
<!-- n29&#45;&gt;n7 -->
<g id="edge98" class="edge">
<title>n29&#45;&gt;n7</title>
<path fill="none" stroke="#64748b" d="M582.2,-519.52C612.87,-509.62 651.33,-497.22 683.17,-486.94"/>
<polygon fill="#64748b" stroke="#64748b" points="683.77,-489.33 689.68,-484.85 682.26,-484.66 683.77,-489.33"/>
</g>
<!-- n30 -->
<g id="node31" class="node">
<title>n30</title>
<g id="a_node31"><a xlink:href="vscode://vscode-remote/wsl+Ubuntu/home/ai4stat/statlib/Statlib/Nonparametric/Approximation/NeuralNetworkAlgebra.lean:6135" xlink:title="theorem · Statlib/Nonparametric/Approximation/NeuralNetworkAlgebra.lean:6135" target="_blank">
<path fill="#ffe6a3" stroke="#d4a017" stroke-width="3" d="M1104.03,-700C1104.03,-700 683.97,-700 683.97,-700 677.97,-700 671.97,-694 671.97,-688 671.97,-688 671.97,-676 671.97,-676 671.97,-670 677.97,-664 683.97,-664 683.97,-664 1104.03,-664 1104.03,-664 1110.03,-664 1116.03,-670 1116.03,-676 1116.03,-676 1116.03,-688 1116.03,-688 1116.03,-694 1110.03,-700 1104.03,-700"/>
<text xml:space="preserve" text-anchor="middle" x="894" y="-679" font-family="Helvetica,sans-Serif" font-size="10.00">exists_fullyConnectedReLUNet_taylor_polynomial_approx_on_centered_box_with_depth_bound</text>
</a>
</g>
</g>
<!-- n30&#45;&gt;n2 -->
<g id="edge100" class="edge">
<title>n30&#45;&gt;n2</title>
<path fill="none" stroke="#64748b" d="M1117.39,-664.71C1315.08,-646.84 1585.92,-612.86 1677,-556 1772.87,-496.16 1794.83,-379.79 1711,-304 1682.77,-278.48 1642.6,-265.24 1607.86,-258.37"/>
<polygon fill="#64748b" stroke="#64748b" points="1608.44,-255.99 1601.11,-257.12 1607.55,-260.8 1608.44,-255.99"/>
</g>
<!-- n30&#45;&gt;n6 -->
<g id="edge101" class="edge">
<title>n30&#45;&gt;n6</title>
<path fill="none" stroke="#64748b" d="M811.58,-662.52C767.46,-652.51 712.21,-639.82 663,-628 530.48,-596.18 308.08,-638.16 376,-520 455.2,-382.2 578.92,-458.35 685,-340 696.69,-326.96 687.38,-315 701,-304 761.76,-254.92 797.34,-287.36 873,-268 879.72,-266.28 886.84,-264.27 893.67,-262.24"/>
<polygon fill="#64748b" stroke="#64748b" points="894.07,-264.68 900.06,-260.31 892.65,-259.99 894.07,-264.68"/>
</g>
<!-- n30&#45;&gt;n28 -->
<g id="edge102" class="edge">
<title>n30&#45;&gt;n28</title>
<path fill="none" stroke="#64748b" d="M928.94,-662.61C946.75,-653.24 968.47,-641.8 986.95,-632.08"/>
<polygon fill="#64748b" stroke="#64748b" points="987.73,-634.44 992.78,-629.01 985.44,-630.1 987.73,-634.44"/>
</g>
<!-- n30&#45;&gt;n29 -->
<g id="edge103" class="edge">
<title>n30&#45;&gt;n29</title>
<path fill="none" stroke="#64748b" d="M846.53,-662.58C778.04,-636.01 651.93,-587.08 580.66,-559.43"/>
<polygon fill="#64748b" stroke="#64748b" points="581.91,-557.29 574.5,-557.04 580.14,-561.86 581.91,-557.29"/>
</g>
</g>
</svg>
