<?xml version="1.0" encoding="UTF-8" standalone="no"?>
<!DOCTYPE svg PUBLIC "-//W3C//DTD SVG 1.1//EN"
 "http://www.w3.org/Graphics/SVG/1.1/DTD/svg11.dtd">
<!-- Generated by graphviz version 15.0.0 (20260523.1842)
 -->
<!-- Title: exists_selectorIndicator_sieve_for_holderBall_of_finite_net Pages: 1 -->
<svg width="1191pt" height="842pt"
 viewBox="0.00 0.00 1191.00 842.00" xmlns="http://www.w3.org/2000/svg" xmlns:xlink="http://www.w3.org/1999/xlink">
<g id="graph0" class="graph" transform="scale(1 1) rotate(0) translate(4 838)">
<title>exists_selectorIndicator_sieve_for_holderBall_of_finite_net</title>
<polygon fill="white" stroke="none" points="-4,4 -4,-838 1187,-838 1187,4 -4,4"/>
<text xml:space="preserve" text-anchor="middle" x="591.5" y="-817.4" font-family="Helvetica,sans-Serif" font-size="14.00">Proof narrative — exists_selectorIndicator_sieve_for_holderBall_of_finite_net &#160;(23 decls)</text>
<g id="clust1" class="cluster">
<title>cluster_0</title>
<path fill="none" stroke="#cbd5e1" stroke-dasharray="5,2" d="M20,-8C20,-8 1163,-8 1163,-8 1169,-8 1175,-14 1175,-20 1175,-20 1175,-789.2 1175,-789.2 1175,-795.2 1169,-801.2 1163,-801.2 1163,-801.2 20,-801.2 20,-801.2 14,-801.2 8,-795.2 8,-789.2 8,-789.2 8,-20 8,-20 8,-14 14,-8 20,-8"/>
<text xml:space="preserve" text-anchor="middle" x="591.5" y="-787.3" font-family="Helvetica,sans-Serif" font-size="11.00">Nonparametric</text>
</g>
<!-- n0 -->
<g id="node1" class="node">
<title>n0</title>
<g id="a_node1"><a xlink:href="https://github.com/statopia/statlib/blob/main/Statlib/Nonparametric/Vocabulary/FunctionClasses.lean#L16" xlink:title="abbrev · Statlib/Nonparametric/Vocabulary/FunctionClasses.lean:16" target="_blank">
<path fill="#d6e9ff" stroke="#3b82f6" d="M123.68,-484C123.68,-484 68.32,-484 68.32,-484 62.32,-484 56.32,-478 56.32,-472 56.32,-472 56.32,-460 56.32,-460 56.32,-454 62.32,-448 68.32,-448 68.32,-448 123.68,-448 123.68,-448 129.68,-448 135.68,-454 135.68,-460 135.68,-460 135.68,-472 135.68,-472 135.68,-478 129.68,-484 123.68,-484"/>
<text xml:space="preserve" text-anchor="middle" x="96" y="-463" font-family="Helvetica,sans-Serif" font-size="10.00">FunctionClass</text>
</a>
</g>
</g>
<!-- n1 -->
<g id="node2" class="node">
<title>n1</title>
<g id="a_node2"><a xlink:href="https://github.com/statopia/statlib/blob/main/Statlib/Nonparametric/Vocabulary/FunctionClasses.lean#L44" xlink:title="def · Statlib/Nonparametric/Vocabulary/FunctionClasses.lean:44" target="_blank">
<path fill="#d6e9ff" stroke="#3b82f6" d="M232.8,-484C232.8,-484 165.2,-484 165.2,-484 159.2,-484 153.2,-478 153.2,-472 153.2,-472 153.2,-460 153.2,-460 153.2,-454 159.2,-448 165.2,-448 165.2,-448 232.8,-448 232.8,-448 238.8,-448 244.8,-454 244.8,-460 244.8,-460 244.8,-472 244.8,-472 244.8,-478 238.8,-484 232.8,-484"/>
<text xml:space="preserve" text-anchor="middle" x="199" y="-463" font-family="Helvetica,sans-Serif" font-size="10.00">IsHolderFunction</text>
</a>
</g>
</g>
<!-- n2 -->
<g id="node3" class="node">
<title>n2</title>
<g id="a_node3"><a xlink:href="https://github.com/statopia/statlib/blob/main/Statlib/Nonparametric/Vocabulary/FunctionClasses.lean#L56" xlink:title="def · Statlib/Nonparametric/Vocabulary/FunctionClasses.lean:56" target="_blank">
<path fill="#d6e9ff" stroke="#3b82f6" d="M218.24,-556C218.24,-556 181.76,-556 181.76,-556 175.76,-556 169.76,-550 169.76,-544 169.76,-544 169.76,-532 169.76,-532 169.76,-526 175.76,-520 181.76,-520 181.76,-520 218.24,-520 218.24,-520 224.24,-520 230.24,-526 230.24,-532 230.24,-532 230.24,-544 230.24,-544 230.24,-550 224.24,-556 218.24,-556"/>
<text xml:space="preserve" text-anchor="middle" x="200" y="-535" font-family="Helvetica,sans-Serif" font-size="10.00">holderBall</text>
</a>
</g>
</g>
<!-- n2&#45;&gt;n0 -->
<g id="edge1" class="edge">
<title>n2&#45;&gt;n0</title>
<path fill="none" stroke="#64748b" d="M174.02,-519.52C160.27,-510.26 143.25,-498.8 128.61,-488.95"/>
<polygon fill="#64748b" stroke="#64748b" points="130.08,-486.98 122.9,-485.11 127.34,-491.05 130.08,-486.98"/>
</g>
<!-- n2&#45;&gt;n1 -->
<g id="edge2" class="edge">
<title>n2&#45;&gt;n1</title>
<path fill="none" stroke="#64748b" d="M199.75,-519.7C199.64,-511.47 199.49,-501.48 199.36,-492.42"/>
<polygon fill="#64748b" stroke="#64748b" points="201.82,-492.58 199.27,-485.62 196.92,-492.65 201.82,-492.58"/>
</g>
<!-- n3 -->
<g id="node4" class="node">
<title>n3</title>
<g id="a_node4"><a xlink:href="https://github.com/statopia/statlib/blob/main/Statlib/Nonparametric/Vocabulary/Risk.lean#L60" xlink:title="noncomputable def · Statlib/Nonparametric/Vocabulary/Risk.lean:60" target="_blank">
<path fill="#d6e9ff" stroke="#3b82f6" d="M961.25,-196C961.25,-196 864.75,-196 864.75,-196 858.75,-196 852.75,-190 852.75,-184 852.75,-184 852.75,-172 852.75,-172 852.75,-166 858.75,-160 864.75,-160 864.75,-160 961.25,-160 961.25,-160 967.25,-160 973.25,-166 973.25,-172 973.25,-172 973.25,-184 973.25,-184 973.25,-190 967.25,-196 961.25,-196"/>
<text xml:space="preserve" text-anchor="middle" x="913" y="-175" font-family="Helvetica,sans-Serif" font-size="10.00">integratedSquaredError</text>
</a>
</g>
</g>
<!-- n4 -->
<g id="node5" class="node">
<title>n4</title>
<g id="a_node5"><a xlink:href="https://github.com/statopia/statlib/blob/main/Statlib/Nonparametric/Vocabulary/Sieve.lean#L27" xlink:title="noncomputable def · Statlib/Nonparametric/Vocabulary/Sieve.lean:27" target="_blank">
<path fill="#d6e9ff" stroke="#3b82f6" d="M532.51,-196C532.51,-196 475.49,-196 475.49,-196 469.49,-196 463.49,-190 463.49,-184 463.49,-184 463.49,-172 463.49,-172 463.49,-166 469.49,-160 475.49,-160 475.49,-160 532.51,-160 532.51,-160 538.51,-160 544.51,-166 544.51,-172 544.51,-172 544.51,-184 544.51,-184 544.51,-190 538.51,-196 532.51,-196"/>
<text xml:space="preserve" text-anchor="middle" x="504" y="-175" font-family="Helvetica,sans-Serif" font-size="10.00">seriesFunction</text>
</a>
</g>
</g>
<!-- n5 -->
<g id="node6" class="node">
<title>n5</title>
<g id="a_node6"><a xlink:href="https://github.com/statopia/statlib/blob/main/Statlib/Nonparametric/Vocabulary/Sieve.lean#L42" xlink:title="noncomputable def · Statlib/Nonparametric/Vocabulary/Sieve.lean:42" target="_blank">
<path fill="#d6e9ff" stroke="#3b82f6" d="M1154.74,-268C1154.74,-268 1053.26,-268 1053.26,-268 1047.26,-268 1041.26,-262 1041.26,-256 1041.26,-256 1041.26,-244 1041.26,-244 1041.26,-238 1047.26,-232 1053.26,-232 1053.26,-232 1154.74,-232 1154.74,-232 1160.74,-232 1166.74,-238 1166.74,-244 1166.74,-244 1166.74,-256 1166.74,-256 1166.74,-262 1160.74,-268 1154.74,-268"/>
<text xml:space="preserve" text-anchor="middle" x="1104" y="-247" font-family="Helvetica,sans-Serif" font-size="10.00">sieveApproximationError</text>
</a>
</g>
</g>
<!-- n5&#45;&gt;n3 -->
<g id="edge3" class="edge">
<title>n5&#45;&gt;n3</title>
<path fill="none" stroke="#64748b" d="M1056.3,-231.52C1029.53,-221.71 996.02,-209.43 968.13,-199.21"/>
<polygon fill="#64748b" stroke="#64748b" points="969.26,-197.01 961.85,-196.9 967.58,-201.61 969.26,-197.01"/>
</g>
<!-- n5&#45;&gt;n4 -->
<g id="edge4" class="edge">
<title>n5&#45;&gt;n4</title>
<path fill="none" stroke="#64748b" d="M1040.92,-241.64C920.7,-227.61 661.09,-197.33 552.89,-184.7"/>
<polygon fill="#64748b" stroke="#64748b" points="553.49,-182.31 546.25,-183.93 552.92,-187.17 553.49,-182.31"/>
</g>
<!-- n6 -->
<g id="node7" class="node">
<title>n6</title>
<g id="a_node7"><a xlink:href="https://github.com/statopia/statlib/blob/main/Statlib/Nonparametric/Approximation/Sieve.lean#L401" xlink:title="def · Statlib/Nonparametric/Approximation/Sieve.lean:401" target="_blank">
<path fill="#d6e9ff" stroke="#3b82f6" d="M319.19,-412C319.19,-412 228.81,-412 228.81,-412 222.81,-412 216.81,-406 216.81,-400 216.81,-400 216.81,-388 216.81,-388 216.81,-382 222.81,-376 228.81,-376 228.81,-376 319.19,-376 319.19,-376 325.19,-376 331.19,-382 331.19,-388 331.19,-388 331.19,-400 331.19,-400 331.19,-406 325.19,-412 319.19,-412"/>
<text xml:space="preserve" text-anchor="middle" x="274" y="-391" font-family="Helvetica,sans-Serif" font-size="10.00">selectorIndicatorSieve</text>
</a>
</g>
</g>
<!-- n7 -->
<g id="node8" class="node">
<title>n7</title>
<g id="a_node8"><a xlink:href="https://github.com/statopia/statlib/blob/main/Statlib/Nonparametric/Approximation/Metric.lean#L10" xlink:title="theorem · Statlib/Nonparametric/Approximation/Metric.lean:10" target="_blank">
<path fill="#ffe6a3" stroke="#d4a017" d="M1015.19,-340C1015.19,-340 810.81,-340 810.81,-340 804.81,-340 798.81,-334 798.81,-328 798.81,-328 798.81,-316 798.81,-316 798.81,-310 804.81,-304 810.81,-304 810.81,-304 1015.19,-304 1015.19,-304 1021.19,-304 1027.19,-310 1027.19,-316 1027.19,-316 1027.19,-328 1027.19,-328 1027.19,-334 1021.19,-340 1015.19,-340"/>
<text xml:space="preserve" text-anchor="middle" x="913" y="-319" font-family="Helvetica,sans-Serif" font-size="10.00">integratedSquaredError_le_of_pointwise_bound</text>
</a>
</g>
</g>
<!-- n7&#45;&gt;n3 -->
<g id="edge5" class="edge">
<title>n7&#45;&gt;n3</title>
<path fill="none" stroke="#64748b" d="M913,-303.59C913,-278.76 913,-233.01 913,-204.4"/>
<polygon fill="#64748b" stroke="#64748b" points="915.45,-204.62 913,-197.62 910.55,-204.62 915.45,-204.62"/>
</g>
<!-- n8 -->
<g id="node9" class="node">
<title>n8</title>
<g id="a_node9"><a xlink:href="https://github.com/statopia/statlib/blob/main/Statlib/Nonparametric/Approximation/Sieve.lean#L107" xlink:title="theorem · Statlib/Nonparametric/Approximation/Sieve.lean:107" target="_blank">
<path fill="#ffe6a3" stroke="#d4a017" d="M769.16,-340C769.16,-340 584.84,-340 584.84,-340 578.84,-340 572.84,-334 572.84,-328 572.84,-328 572.84,-316 572.84,-316 572.84,-310 578.84,-304 584.84,-304 584.84,-304 769.16,-304 769.16,-304 775.16,-304 781.16,-310 781.16,-316 781.16,-316 781.16,-328 781.16,-328 781.16,-334 775.16,-340 769.16,-340"/>
<text xml:space="preserve" text-anchor="middle" x="677" y="-319" font-family="Helvetica,sans-Serif" font-size="10.00">sieveApproximationError_le_of_coefficients</text>
</a>
</g>
</g>
<!-- n8&#45;&gt;n3 -->
<g id="edge6" class="edge">
<title>n8&#45;&gt;n3</title>
<path fill="none" stroke="#64748b" d="M708.54,-303.69C726.89,-293.51 750.39,-280.26 771,-268 808.34,-245.79 850.44,-219.2 879.04,-200.91"/>
<polygon fill="#64748b" stroke="#64748b" points="880.16,-203.1 884.73,-197.26 877.52,-198.97 880.16,-203.1"/>
</g>
<!-- n8&#45;&gt;n4 -->
<g id="edge7" class="edge">
<title>n8&#45;&gt;n4</title>
<path fill="none" stroke="#64748b" d="M723,-303.74C738.55,-295.43 754.19,-283.77 763,-268 770.8,-254.03 773.12,-244.4 763,-232 737.05,-200.2 620.94,-186.97 553.32,-181.88"/>
<polygon fill="#64748b" stroke="#64748b" points="553.59,-179.44 546.43,-181.38 553.23,-184.33 553.59,-179.44"/>
</g>
<!-- n8&#45;&gt;n5 -->
<g id="edge8" class="edge">
<title>n8&#45;&gt;n5</title>
<path fill="none" stroke="#64748b" d="M781.46,-303.88C859.51,-291.08 964.15,-273.93 1032.78,-262.67"/>
<polygon fill="#64748b" stroke="#64748b" points="1032.97,-265.13 1039.48,-261.58 1032.17,-260.29 1032.97,-265.13"/>
</g>
<!-- n9 -->
<g id="node10" class="node">
<title>n9</title>
<g id="a_node10"><a xlink:href="https://github.com/statopia/statlib/blob/main/Statlib/Nonparametric/Approximation/Sieve.lean#L248" xlink:title="theorem · Statlib/Nonparametric/Approximation/Sieve.lean:248" target="_blank">
<path fill="#ffe6a3" stroke="#d4a017" d="M1043.79,-412C1043.79,-412 802.21,-412 802.21,-412 796.21,-412 790.21,-406 790.21,-400 790.21,-400 790.21,-388 790.21,-388 790.21,-382 796.21,-376 802.21,-376 802.21,-376 1043.79,-376 1043.79,-376 1049.79,-376 1055.79,-382 1055.79,-388 1055.79,-388 1055.79,-400 1055.79,-400 1055.79,-406 1049.79,-412 1043.79,-412"/>
<text xml:space="preserve" text-anchor="middle" x="923" y="-391" font-family="Helvetica,sans-Serif" font-size="10.00">sieveApproximationError_le_of_pointwise_series_bound</text>
</a>
</g>
</g>
<!-- n9&#45;&gt;n3 -->
<g id="edge10" class="edge">
<title>n9&#45;&gt;n3</title>
<path fill="none" stroke="#64748b" d="M991.32,-375.54C1008.85,-367.64 1025.66,-356.28 1036,-340 1044.58,-326.5 1042.06,-318.81 1036,-304 1017.98,-259.99 976.16,-223.16 946.3,-201.12"/>
<polygon fill="#64748b" stroke="#64748b" points="948.07,-199.38 940.97,-197.26 945.2,-203.35 948.07,-199.38"/>
</g>
<!-- n9&#45;&gt;n4 -->
<g id="edge9" class="edge">
<title>n9&#45;&gt;n4</title>
<path fill="none" stroke="#64748b" d="M789.75,-390.95C700.11,-386.42 593.18,-373.8 564,-340 553.55,-327.89 553.83,-316.35 564,-304 616.96,-239.67 695.04,-332.33 748,-268 758.17,-255.65 758.04,-244.46 748,-232 724.01,-202.24 617.31,-188.33 553.21,-182.56"/>
<polygon fill="#64748b" stroke="#64748b" points="553.54,-180.13 546.36,-181.96 553.12,-185.01 553.54,-180.13"/>
</g>
<!-- n9&#45;&gt;n5 -->
<g id="edge11" class="edge">
<title>n9&#45;&gt;n5</title>
<path fill="none" stroke="#64748b" d="M987.07,-375.6C1009.06,-367.38 1032.72,-355.81 1051,-340 1071.08,-322.63 1085.63,-295.69 1094.35,-276"/>
<polygon fill="#64748b" stroke="#64748b" points="1096.54,-277.11 1097.02,-269.71 1092.03,-275.19 1096.54,-277.11"/>
</g>
<!-- n9&#45;&gt;n7 -->
<g id="edge12" class="edge">
<title>n9&#45;&gt;n7</title>
<path fill="none" stroke="#64748b" d="M920.53,-375.7C919.35,-367.47 917.93,-357.48 916.63,-348.42"/>
<polygon fill="#64748b" stroke="#64748b" points="919.07,-348.19 915.66,-341.6 914.22,-348.88 919.07,-348.19"/>
</g>
<!-- n9&#45;&gt;n8 -->
<g id="edge13" class="edge">
<title>n9&#45;&gt;n8</title>
<path fill="none" stroke="#64748b" d="M861.56,-375.52C826.5,-365.54 782.45,-353 746.17,-342.68"/>
<polygon fill="#64748b" stroke="#64748b" points="746.94,-340.36 739.54,-340.8 745.6,-345.07 746.94,-340.36"/>
</g>
<!-- n10 -->
<g id="node11" class="node">
<title>n10</title>
<g id="a_node11"><a xlink:href="https://github.com/statopia/statlib/blob/main/Statlib/Nonparametric/Vocabulary/Estimator.lean#L28" xlink:title="noncomputable def · Statlib/Nonparametric/Vocabulary/Estimator.lean:28" target="_blank">
<path fill="#d6e9ff" stroke="#3b82f6" d="M372,-52C372,-52 342,-52 342,-52 336,-52 330,-46 330,-40 330,-40 330,-28 330,-28 330,-22 336,-16 342,-16 342,-16 372,-16 372,-16 378,-16 384,-22 384,-28 384,-28 384,-40 384,-40 384,-46 378,-52 372,-52"/>
<text xml:space="preserve" text-anchor="middle" x="357" y="-31" font-family="Helvetica,sans-Serif" font-size="10.00">bias</text>
</a>
</g>
</g>
<!-- n11 -->
<g id="node12" class="node">
<title>n11</title>
<g id="a_node12"><a xlink:href="https://github.com/statopia/statlib/blob/main/Statlib/Nonparametric/Vocabulary/NeuralNetwork.lean#L23" xlink:title="structure · Statlib/Nonparametric/Vocabulary/NeuralNetwork.lean:23" target="_blank">
<path fill="#e8dcff" stroke="#8b5cf6" d="M406.96,-124C406.96,-124 361.04,-124 361.04,-124 355.04,-124 349.04,-118 349.04,-112 349.04,-112 349.04,-100 349.04,-100 349.04,-94 355.04,-88 361.04,-88 361.04,-88 406.96,-88 406.96,-88 412.96,-88 418.96,-94 418.96,-100 418.96,-100 418.96,-112 418.96,-112 418.96,-118 412.96,-124 406.96,-124"/>
<text xml:space="preserve" text-anchor="middle" x="384" y="-103" font-family="Helvetica,sans-Serif" font-size="10.00">DenseLayer</text>
</a>
</g>
</g>
<!-- n11&#45;&gt;n10 -->
<g id="edge14" class="edge">
<title>n11&#45;&gt;n10</title>
<path fill="none" stroke="#64748b" d="M377.33,-87.7C374.09,-79.3 370.14,-69.07 366.59,-59.86"/>
<polygon fill="#64748b" stroke="#64748b" points="368.95,-59.17 364.14,-53.52 364.38,-60.93 368.95,-59.17"/>
</g>
<!-- n12 -->
<g id="node13" class="node">
<title>n12</title>
<g id="a_node13"><a xlink:href="https://github.com/statopia/statlib/blob/main/Statlib/Nonparametric/Vocabulary/NeuralNetwork.lean#L30" xlink:title="noncomputable def · Statlib/Nonparametric/Vocabulary/NeuralNetwork.lean:30" target="_blank">
<path fill="#d6e9ff" stroke="#3b82f6" d="M372,-196C372,-196 342,-196 342,-196 336,-196 330,-190 330,-184 330,-184 330,-172 330,-172 330,-166 336,-160 342,-160 342,-160 372,-160 372,-160 378,-160 384,-166 384,-172 384,-172 384,-184 384,-184 384,-190 378,-196 372,-196"/>
<text xml:space="preserve" text-anchor="middle" x="357" y="-175" font-family="Helvetica,sans-Serif" font-size="10.00">apply</text>
</a>
</g>
</g>
<!-- n12&#45;&gt;n10 -->
<g id="edge16" class="edge">
<title>n12&#45;&gt;n10</title>
<path fill="none" stroke="#64748b" d="M349.93,-159.67C346.16,-149.47 341.91,-136.22 340,-124 337.53,-108.19 337.53,-103.81 340,-88 341.45,-78.74 344.24,-68.89 347.15,-60.22"/>
<polygon fill="#64748b" stroke="#64748b" points="349.41,-61.18 349.43,-53.76 344.79,-59.55 349.41,-61.18"/>
</g>
<!-- n12&#45;&gt;n11 -->
<g id="edge15" class="edge">
<title>n12&#45;&gt;n11</title>
<path fill="none" stroke="#64748b" d="M363.67,-159.7C366.91,-151.3 370.86,-141.07 374.41,-131.86"/>
<polygon fill="#64748b" stroke="#64748b" points="376.62,-132.93 376.86,-125.52 372.05,-131.17 376.62,-132.93"/>
</g>
<!-- n13 -->
<g id="node14" class="node">
<title>n13</title>
<g id="a_node14"><a xlink:href="https://github.com/statopia/statlib/blob/main/Statlib/Nonparametric/Approximation/Sieve.lean#L121" xlink:title="theorem · Statlib/Nonparametric/Approximation/Sieve.lean:121" target="_blank">
<path fill="#ffe6a3" stroke="#d4a017" d="M727.05,-268C727.05,-268 544.95,-268 544.95,-268 538.95,-268 532.95,-262 532.95,-256 532.95,-256 532.95,-244 532.95,-244 532.95,-238 538.95,-232 544.95,-232 544.95,-232 727.05,-232 727.05,-232 733.05,-232 739.05,-238 739.05,-244 739.05,-244 739.05,-256 739.05,-256 739.05,-262 733.05,-268 727.05,-268"/>
<text xml:space="preserve" text-anchor="middle" x="636" y="-247" font-family="Helvetica,sans-Serif" font-size="10.00">sieveApproximationError_range_bddBelow</text>
</a>
</g>
</g>
<!-- n13&#45;&gt;n3 -->
<g id="edge17" class="edge">
<title>n13&#45;&gt;n3</title>
<path fill="none" stroke="#64748b" d="M705.18,-231.52C747.79,-220.75 802.18,-207 844.63,-196.28"/>
<polygon fill="#64748b" stroke="#64748b" points="845.03,-198.7 851.22,-194.61 843.83,-193.95 845.03,-198.7"/>
</g>
<!-- n13&#45;&gt;n4 -->
<g id="edge18" class="edge">
<title>n13&#45;&gt;n4</title>
<path fill="none" stroke="#64748b" d="M603.03,-231.52C585.1,-222.01 562.78,-210.17 543.88,-200.15"/>
<polygon fill="#64748b" stroke="#64748b" points="545.22,-198.08 537.89,-196.97 542.92,-202.41 545.22,-198.08"/>
</g>
<!-- n13&#45;&gt;n12 -->
<g id="edge19" class="edge">
<title>n13&#45;&gt;n12</title>
<path fill="none" stroke="#64748b" d="M566.32,-231.52C510.97,-217.63 435.87,-198.79 392.3,-187.86"/>
<polygon fill="#64748b" stroke="#64748b" points="393.14,-185.54 385.75,-186.21 391.95,-190.29 393.14,-185.54"/>
</g>
<!-- n14 -->
<g id="node15" class="node">
<title>n14</title>
<g id="a_node15"><a xlink:href="https://github.com/statopia/statlib/blob/main/Statlib/Nonparametric/Approximation/Sieve.lean#L269" xlink:title="theorem · Statlib/Nonparametric/Approximation/Sieve.lean:269" target="_blank">
<path fill="#ffe6a3" stroke="#d4a017" d="M1074.67,-484C1074.67,-484 835.33,-484 835.33,-484 829.33,-484 823.33,-478 823.33,-472 823.33,-472 823.33,-460 823.33,-460 823.33,-454 829.33,-448 835.33,-448 835.33,-448 1074.67,-448 1074.67,-448 1080.67,-448 1086.67,-454 1086.67,-460 1086.67,-460 1086.67,-472 1086.67,-472 1086.67,-478 1080.67,-484 1074.67,-484"/>
<text xml:space="preserve" text-anchor="middle" x="955" y="-463" font-family="Helvetica,sans-Serif" font-size="10.00">sieveApproximationError_le_of_exists_pointwise_series</text>
</a>
</g>
</g>
<!-- n14&#45;&gt;n4 -->
<g id="edge20" class="edge">
<title>n14&#45;&gt;n4</title>
<path fill="none" stroke="#64748b" d="M823.13,-447.82C724.92,-434.65 606.13,-417.8 596,-412 522.13,-369.74 507.44,-255.95 504.61,-204.67"/>
<polygon fill="#64748b" stroke="#64748b" points="507.07,-204.82 504.3,-197.94 502.18,-205.05 507.07,-204.82"/>
</g>
<!-- n14&#45;&gt;n5 -->
<g id="edge21" class="edge">
<title>n14&#45;&gt;n5</title>
<path fill="none" stroke="#64748b" d="M1014.63,-447.57C1033.15,-439.47 1052.07,-427.99 1065,-412 1081.72,-391.32 1094.63,-316.5 1100.52,-276.55"/>
<polygon fill="#64748b" stroke="#64748b" points="1102.91,-277.13 1101.48,-269.86 1098.06,-276.44 1102.91,-277.13"/>
</g>
<!-- n14&#45;&gt;n9 -->
<g id="edge22" class="edge">
<title>n14&#45;&gt;n9</title>
<path fill="none" stroke="#64748b" d="M947.09,-447.7C943.21,-439.22 938.48,-428.86 934.24,-419.58"/>
<polygon fill="#64748b" stroke="#64748b" points="936.59,-418.83 931.45,-413.48 932.13,-420.87 936.59,-418.83"/>
</g>
<!-- n14&#45;&gt;n13 -->
<g id="edge23" class="edge">
<title>n14&#45;&gt;n13</title>
<path fill="none" stroke="#64748b" d="M851.74,-447.51C743.8,-426.87 585.14,-389.06 549,-340 539.51,-327.12 541.16,-317.95 549,-304 556.45,-290.73 568.73,-280.39 581.74,-272.51"/>
<polygon fill="#64748b" stroke="#64748b" points="582.82,-274.72 587.7,-269.13 580.41,-270.46 582.82,-274.72"/>
</g>
<!-- n15 -->
<g id="node16" class="node">
<title>n15</title>
<g id="a_node16"><a xlink:href="https://github.com/statopia/statlib/blob/main/Statlib/Nonparametric/Approximation/Sieve.lean#L285" xlink:title="theorem · Statlib/Nonparametric/Approximation/Sieve.lean:285" target="_blank">
<path fill="#ffe6a3" stroke="#d4a017" d="M1024.14,-556C1024.14,-556 725.86,-556 725.86,-556 719.86,-556 713.86,-550 713.86,-544 713.86,-544 713.86,-532 713.86,-532 713.86,-526 719.86,-520 725.86,-520 725.86,-520 1024.14,-520 1024.14,-520 1030.14,-520 1036.14,-526 1036.14,-532 1036.14,-532 1036.14,-544 1036.14,-544 1036.14,-550 1030.14,-556 1024.14,-556"/>
<text xml:space="preserve" text-anchor="middle" x="875" y="-535" font-family="Helvetica,sans-Serif" font-size="10.00">sieveApproximationError_uniform_bound_of_exists_pointwise_series</text>
</a>
</g>
</g>
<!-- n15&#45;&gt;n4 -->
<g id="edge24" class="edge">
<title>n15&#45;&gt;n4</title>
<path fill="none" stroke="#64748b" d="M853.43,-519.57C841.44,-509.56 826.47,-496.53 814,-484 799.1,-469.04 801.45,-458.27 783,-448 692.98,-397.89 637.16,-472.83 554,-412 489.11,-364.53 493.92,-254.87 500.01,-204.78"/>
<polygon fill="#64748b" stroke="#64748b" points="502.43,-205.19 500.91,-197.94 497.57,-204.56 502.43,-205.19"/>
</g>
<!-- n15&#45;&gt;n5 -->
<g id="edge25" class="edge">
<title>n15&#45;&gt;n5</title>
<path fill="none" stroke="#64748b" d="M1004.59,-519.52C1045.42,-511.22 1083.24,-499.62 1096,-484 1121.34,-452.97 1112.27,-330.58 1106.86,-276.7"/>
<polygon fill="#64748b" stroke="#64748b" points="1109.31,-276.58 1106.15,-269.87 1104.44,-277.09 1109.31,-276.58"/>
</g>
<!-- n15&#45;&gt;n14 -->
<g id="edge26" class="edge">
<title>n15&#45;&gt;n14</title>
<path fill="none" stroke="#64748b" d="M894.78,-519.7C905.06,-510.69 917.78,-499.57 928.86,-489.87"/>
<polygon fill="#64748b" stroke="#64748b" points="930.38,-491.8 934.04,-485.34 927.15,-488.11 930.38,-491.8"/>
</g>
<!-- n16 -->
<g id="node17" class="node">
<title>n16</title>
<g id="a_node17"><a xlink:href="https://github.com/statopia/statlib/blob/main/Statlib/Nonparametric/Approximation/Sieve.lean#L405" xlink:title="theorem · Statlib/Nonparametric/Approximation/Sieve.lean:405" target="_blank">
<path fill="#ffe6a3" stroke="#d4a017" d="M402.89,-268C402.89,-268 209.11,-268 209.11,-268 203.11,-268 197.11,-262 197.11,-256 197.11,-256 197.11,-244 197.11,-244 197.11,-238 203.11,-232 209.11,-232 209.11,-232 402.89,-232 402.89,-232 408.89,-232 414.89,-238 414.89,-244 414.89,-244 414.89,-256 414.89,-256 414.89,-262 408.89,-268 402.89,-268"/>
<text xml:space="preserve" text-anchor="middle" x="306" y="-247" font-family="Helvetica,sans-Serif" font-size="10.00">selectorIndicator_seriesFunction_measurable</text>
</a>
</g>
</g>
<!-- n16&#45;&gt;n4 -->
<g id="edge27" class="edge">
<title>n16&#45;&gt;n4</title>
<path fill="none" stroke="#64748b" d="M355.45,-231.52C385.95,-220.74 424.89,-206.97 455.25,-196.24"/>
<polygon fill="#64748b" stroke="#64748b" points="455.96,-198.58 461.74,-193.94 454.33,-193.96 455.96,-198.58"/>
</g>
<!-- n16&#45;&gt;n12 -->
<g id="edge28" class="edge">
<title>n16&#45;&gt;n12</title>
<path fill="none" stroke="#64748b" d="M318.61,-231.7C324.97,-222.97 332.78,-212.24 339.7,-202.75"/>
<polygon fill="#64748b" stroke="#64748b" points="341.51,-204.43 343.65,-197.33 337.54,-201.54 341.51,-204.43"/>
</g>
<!-- n17 -->
<g id="node18" class="node">
<title>n17</title>
<g id="a_node18"><a xlink:href="https://github.com/statopia/statlib/blob/main/Statlib/Nonparametric/Approximation/Sieve.lean#L422" xlink:title="theorem · Statlib/Nonparametric/Approximation/Sieve.lean:422" target="_blank">
<path fill="#ffe6a3" stroke="#d4a017" d="M753.39,-484C753.39,-484 534.61,-484 534.61,-484 528.61,-484 522.61,-478 522.61,-472 522.61,-472 522.61,-460 522.61,-460 522.61,-454 528.61,-448 534.61,-448 534.61,-448 753.39,-448 753.39,-448 759.39,-448 765.39,-454 765.39,-460 765.39,-460 765.39,-472 765.39,-472 765.39,-478 759.39,-484 753.39,-484"/>
<text xml:space="preserve" text-anchor="middle" x="644" y="-463" font-family="Helvetica,sans-Serif" font-size="10.00">selectorIndicatorSieve_seriesFunction_measurable</text>
</a>
</g>
</g>
<!-- n17&#45;&gt;n4 -->
<g id="edge29" class="edge">
<title>n17&#45;&gt;n4</title>
<path fill="none" stroke="#64748b" d="M522.51,-450.16C501.6,-442.07 482.34,-429.97 469,-412 421.33,-347.75 445.98,-308.62 469,-232 472.07,-221.77 477.83,-211.69 483.8,-203.12"/>
<polygon fill="#64748b" stroke="#64748b" points="485.75,-204.61 487.92,-197.52 481.8,-201.71 485.75,-204.61"/>
</g>
<!-- n17&#45;&gt;n6 -->
<g id="edge30" class="edge">
<title>n17&#45;&gt;n6</title>
<path fill="none" stroke="#64748b" d="M551.59,-447.52C485.66,-435.04 398.59,-418.57 339.68,-407.43"/>
<polygon fill="#64748b" stroke="#64748b" points="340.38,-405.07 333.05,-406.17 339.47,-409.88 340.38,-405.07"/>
</g>
<!-- n17&#45;&gt;n16 -->
<g id="edge31" class="edge">
<title>n17&#45;&gt;n16</title>
<path fill="none" stroke="#64748b" d="M536.44,-447.57C506.66,-439.68 475.31,-428.31 449,-412 391.6,-376.41 344,-310.88 320.95,-275.38"/>
<polygon fill="#64748b" stroke="#64748b" points="323.07,-274.14 317.23,-269.56 318.94,-276.78 323.07,-274.14"/>
</g>
<!-- n18 -->
<g id="node19" class="node">
<title>n18</title>
<g id="a_node19"><a xlink:href="https://github.com/statopia/statlib/blob/main/Statlib/Nonparametric/Approximation/Sieve.lean#L428" xlink:title="theorem · Statlib/Nonparametric/Approximation/Sieve.lean:428" target="_blank">
<path fill="#ffe6a3" stroke="#d4a017" d="M492.83,-484C492.83,-484 315.17,-484 315.17,-484 309.17,-484 303.17,-478 303.17,-472 303.17,-472 303.17,-460 303.17,-460 303.17,-454 309.17,-448 315.17,-448 315.17,-448 492.83,-448 492.83,-448 498.83,-448 504.83,-454 504.83,-460 504.83,-460 504.83,-472 504.83,-472 504.83,-478 498.83,-484 492.83,-484"/>
<text xml:space="preserve" text-anchor="middle" x="404" y="-463" font-family="Helvetica,sans-Serif" font-size="10.00">selectorIndicatorSieve_seriesFunction_eq</text>
</a>
</g>
</g>
<!-- n18&#45;&gt;n4 -->
<g id="edge32" class="edge">
<title>n18&#45;&gt;n4</title>
<path fill="none" stroke="#64748b" d="M403.86,-447.74C404.26,-407.42 409.39,-304.96 449,-232 455.12,-220.73 464.46,-210.42 473.72,-201.94"/>
<polygon fill="#64748b" stroke="#64748b" points="475.28,-203.83 478.93,-197.37 472.05,-200.14 475.28,-203.83"/>
</g>
<!-- n18&#45;&gt;n6 -->
<g id="edge33" class="edge">
<title>n18&#45;&gt;n6</title>
<path fill="none" stroke="#64748b" d="M371.53,-447.52C353.87,-438.01 331.89,-426.17 313.27,-416.15"/>
<polygon fill="#64748b" stroke="#64748b" points="314.71,-414.14 307.39,-412.98 312.39,-418.45 314.71,-414.14"/>
</g>
<!-- n19 -->
<g id="node20" class="node">
<title>n19</title>
<g id="a_node20"><a xlink:href="https://github.com/statopia/statlib/blob/main/Statlib/Nonparametric/Approximation/Holder.lean#L116" xlink:title="theorem · Statlib/Nonparametric/Approximation/Holder.lean:116" target="_blank">
<path fill="#ffe6a3" stroke="#d4a017" d="M509.79,-556C509.79,-556 298.21,-556 298.21,-556 292.21,-556 286.21,-550 286.21,-544 286.21,-544 286.21,-532 286.21,-532 286.21,-526 292.21,-520 298.21,-520 298.21,-520 509.79,-520 509.79,-520 515.79,-520 521.79,-526 521.79,-532 521.79,-532 521.79,-544 521.79,-544 521.79,-550 515.79,-556 509.79,-556"/>
<text xml:space="preserve" text-anchor="middle" x="404" y="-535" font-family="Helvetica,sans-Serif" font-size="10.00">holder_selectorIndicator_series_pointwise_bound</text>
</a>
</g>
</g>
<!-- n19&#45;&gt;n1 -->
<g id="edge34" class="edge">
<title>n19&#45;&gt;n1</title>
<path fill="none" stroke="#64748b" d="M352.8,-519.52C322.3,-509.1 283.63,-495.9 252.69,-485.33"/>
<polygon fill="#64748b" stroke="#64748b" points="253.86,-483.14 246.44,-483.2 252.27,-487.78 253.86,-483.14"/>
</g>
<!-- n19&#45;&gt;n4 -->
<g id="edge35" class="edge">
<title>n19&#45;&gt;n4</title>
<path fill="none" stroke="#64748b" d="M522.06,-536.3C617.72,-532.92 741.75,-521.2 774,-484 784.48,-471.91 784.58,-460 774,-448 689.57,-352.23 573.43,-507.77 489,-412 437.31,-353.36 472.01,-250.85 492.27,-203.84"/>
<polygon fill="#64748b" stroke="#64748b" points="494.42,-205.03 495.01,-197.64 489.94,-203.05 494.42,-205.03"/>
</g>
<!-- n19&#45;&gt;n6 -->
<g id="edge36" class="edge">
<title>n19&#45;&gt;n6</title>
<path fill="none" stroke="#64748b" d="M343.93,-519.57C325.49,-511.49 306.73,-500.02 294,-484 279.73,-466.04 275.21,-439.92 273.97,-420.62"/>
<polygon fill="#64748b" stroke="#64748b" points="276.42,-420.68 273.67,-413.8 271.53,-420.9 276.42,-420.68"/>
</g>
<!-- n19&#45;&gt;n18 -->
<g id="edge37" class="edge">
<title>n19&#45;&gt;n18</title>
<path fill="none" stroke="#64748b" d="M404,-519.7C404,-511.47 404,-501.48 404,-492.42"/>
<polygon fill="#64748b" stroke="#64748b" points="406.45,-492.62 404,-485.62 401.55,-492.62 406.45,-492.62"/>
</g>
<!-- n20 -->
<g id="node21" class="node">
<title>n20</title>
<g id="a_node21"><a xlink:href="https://github.com/statopia/statlib/blob/main/Statlib/Nonparametric/Approximation/Holder.lean#L271" xlink:title="theorem · Statlib/Nonparametric/Approximation/Holder.lean:271" target="_blank">
<path fill="#ffe6a3" stroke="#d4a017" d="M555.36,-628C555.36,-628 252.64,-628 252.64,-628 246.64,-628 240.64,-622 240.64,-616 240.64,-616 240.64,-604 240.64,-604 240.64,-598 246.64,-592 252.64,-592 252.64,-592 555.36,-592 555.36,-592 561.36,-592 567.36,-598 567.36,-604 567.36,-604 567.36,-616 567.36,-616 567.36,-622 561.36,-628 555.36,-628"/>
<text xml:space="preserve" text-anchor="middle" x="404" y="-607" font-family="Helvetica,sans-Serif" font-size="10.00">holderBall_selectorIndicator_sieveApproximationError_uniform_bound</text>
</a>
</g>
</g>
<!-- n20&#45;&gt;n2 -->
<g id="edge38" class="edge">
<title>n20&#45;&gt;n2</title>
<path fill="none" stroke="#64748b" d="M353.05,-591.52C317.58,-579.35 271.02,-563.37 238.61,-552.25"/>
<polygon fill="#64748b" stroke="#64748b" points="239.54,-549.98 232.12,-550.02 237.94,-554.61 239.54,-549.98"/>
</g>
<!-- n20&#45;&gt;n5 -->
<g id="edge39" class="edge">
<title>n20&#45;&gt;n5</title>
<path fill="none" stroke="#64748b" d="M567.73,-608.96C729.44,-606.53 963.98,-595.89 1045,-556 1092.99,-532.38 1126,-520.48 1126,-467 1126,-467 1126,-467 1126,-393 1126,-351.85 1116.87,-304.78 1110.37,-276.5"/>
<polygon fill="#64748b" stroke="#64748b" points="1112.79,-276.08 1108.8,-269.83 1108.02,-277.2 1112.79,-276.08"/>
</g>
<!-- n20&#45;&gt;n6 -->
<g id="edge40" class="edge">
<title>n20&#45;&gt;n6</title>
<path fill="none" stroke="#64748b" d="M324.25,-591.53C305.88,-583.7 288.4,-572.37 277,-556 248.86,-515.61 258.01,-454.62 266.47,-420.47"/>
<polygon fill="#64748b" stroke="#64748b" points="268.79,-421.25 268.2,-413.86 264.05,-420.01 268.79,-421.25"/>
</g>
<!-- n20&#45;&gt;n15 -->
<g id="edge41" class="edge">
<title>n20&#45;&gt;n15</title>
<path fill="none" stroke="#64748b" d="M521.64,-591.52C591.03,-581.2 678.82,-568.16 749.54,-557.65"/>
<polygon fill="#64748b" stroke="#64748b" points="749.58,-560.12 756.14,-556.66 748.86,-555.27 749.58,-560.12"/>
</g>
<!-- n20&#45;&gt;n17 -->
<g id="edge42" class="edge">
<title>n20&#45;&gt;n17</title>
<path fill="none" stroke="#64748b" d="M454.35,-591.62C478.3,-582.45 506.9,-570.16 531,-556 563.53,-536.89 597.02,-509.33 619.01,-489.96"/>
<polygon fill="#64748b" stroke="#64748b" points="620.44,-491.97 624.04,-485.48 617.18,-488.31 620.44,-491.97"/>
</g>
<!-- n20&#45;&gt;n19 -->
<g id="edge43" class="edge">
<title>n20&#45;&gt;n19</title>
<path fill="none" stroke="#64748b" d="M404,-591.7C404,-583.47 404,-573.48 404,-564.42"/>
<polygon fill="#64748b" stroke="#64748b" points="406.45,-564.62 404,-557.62 401.55,-564.62 406.45,-564.62"/>
</g>
<!-- n21 -->
<g id="node22" class="node">
<title>n21</title>
<g id="a_node22"><a xlink:href="https://github.com/statopia/statlib/blob/main/Statlib/Nonparametric/Approximation/Holder.lean#L299" xlink:title="theorem · Statlib/Nonparametric/Approximation/Holder.lean:299" target="_blank">
<path fill="#ffe6a3" stroke="#d4a017" d="M479.41,-700C479.41,-700 230.59,-700 230.59,-700 224.59,-700 218.59,-694 218.59,-688 218.59,-688 218.59,-676 218.59,-676 218.59,-670 224.59,-664 230.59,-664 230.59,-664 479.41,-664 479.41,-664 485.41,-664 491.41,-670 491.41,-676 491.41,-676 491.41,-688 491.41,-688 491.41,-694 485.41,-700 479.41,-700"/>
<text xml:space="preserve" text-anchor="middle" x="355" y="-679" font-family="Helvetica,sans-Serif" font-size="10.00">exists_selectorIndicatorSieve_for_holderBall_of_finite_net</text>
</a>
</g>
</g>
<!-- n21&#45;&gt;n2 -->
<g id="edge44" class="edge">
<title>n21&#45;&gt;n2</title>
<path fill="none" stroke="#64748b" d="M288.2,-663.58C267.97,-655.54 247.13,-644.09 232,-628 215.54,-610.49 207.44,-583.92 203.52,-564.36"/>
<polygon fill="#64748b" stroke="#64748b" points="205.97,-564.14 202.32,-557.68 201.15,-565.01 205.97,-564.14"/>
</g>
<!-- n21&#45;&gt;n5 -->
<g id="edge45" class="edge">
<title>n21&#45;&gt;n5</title>
<path fill="none" stroke="#64748b" d="M491.88,-670.22C718.27,-650.54 1146,-604.66 1146,-539 1146,-539 1146,-539 1146,-393 1146,-350.65 1128.61,-304 1116.21,-276.13"/>
<polygon fill="#64748b" stroke="#64748b" points="1118.46,-275.17 1113.33,-269.82 1114.01,-277.2 1118.46,-275.17"/>
</g>
<!-- n21&#45;&gt;n6 -->
<g id="edge46" class="edge">
<title>n21&#45;&gt;n6</title>
<path fill="none" stroke="#64748b" d="M291.63,-663.5C215.18,-638.38 91.42,-583.73 47,-484 17.26,-417.22 130.96,-400.03 208.1,-395.92"/>
<polygon fill="#64748b" stroke="#64748b" points="207.99,-398.38 214.87,-395.6 207.76,-393.49 207.99,-398.38"/>
</g>
<!-- n21&#45;&gt;n20 -->
<g id="edge47" class="edge">
<title>n21&#45;&gt;n20</title>
<path fill="none" stroke="#64748b" d="M367.11,-663.7C373.16,-655.05 380.59,-644.45 387.18,-635.03"/>
<polygon fill="#64748b" stroke="#64748b" points="389.15,-636.48 391.16,-629.34 385.14,-633.67 389.15,-636.48"/>
</g>
<!-- n22 -->
<g id="node23" class="node">
<title>n22</title>
<g id="a_node23"><a xlink:href="https://github.com/statopia/statlib/blob/main/Statlib/Nonparametric/Approximation/Holder.lean#L352" xlink:title="theorem · Statlib/Nonparametric/Approximation/Holder.lean:352" target="_blank">
<path fill="#ffe6a3" stroke="#d4a017" stroke-width="3" d="M403.36,-772C403.36,-772 150.64,-772 150.64,-772 144.64,-772 138.64,-766 138.64,-760 138.64,-760 138.64,-748 138.64,-748 138.64,-742 144.64,-736 150.64,-736 150.64,-736 403.36,-736 403.36,-736 409.36,-736 415.36,-742 415.36,-748 415.36,-748 415.36,-760 415.36,-760 415.36,-766 409.36,-772 403.36,-772"/>
<text xml:space="preserve" text-anchor="middle" x="277" y="-751" font-family="Helvetica,sans-Serif" font-size="10.00">exists_selectorIndicator_sieve_for_holderBall_of_finite_net</text>
</a>
</g>
</g>
<!-- n22&#45;&gt;n2 -->
<g id="edge48" class="edge">
<title>n22&#45;&gt;n2</title>
<path fill="none" stroke="#64748b" d="M243.15,-734.57C230.51,-725.85 217.42,-714.19 210,-700 187.37,-656.71 190.93,-597.68 195.5,-564.44"/>
<polygon fill="#64748b" stroke="#64748b" points="197.9,-564.97 196.51,-557.68 193.06,-564.24 197.9,-564.97"/>
</g>
<!-- n22&#45;&gt;n5 -->
<g id="edge49" class="edge">
<title>n22&#45;&gt;n5</title>
<path fill="none" stroke="#64748b" d="M416.39,-744.85C666.59,-728.33 1166,-685.97 1166,-611 1166,-611 1166,-611 1166,-393 1166,-348.55 1140.17,-302.32 1121.85,-275.13"/>
<polygon fill="#64748b" stroke="#64748b" points="1124,-273.93 1118.01,-269.56 1119.97,-276.71 1124,-273.93"/>
</g>
<!-- n22&#45;&gt;n6 -->
<g id="edge51" class="edge">
<title>n22&#45;&gt;n6</title>
<path fill="none" stroke="#64748b" d="M158.41,-734.56C89.84,-716.39 17,-680.69 17,-611 17,-611 17,-611 17,-537 17,-496.36 9.11,-476.58 38,-448 61.75,-424.51 147.14,-409.74 208.37,-401.93"/>
<polygon fill="#64748b" stroke="#64748b" points="208.32,-404.41 214.97,-401.11 207.72,-399.55 208.32,-404.41"/>
</g>
<!-- n22&#45;&gt;n21 -->
<g id="edge50" class="edge">
<title>n22&#45;&gt;n21</title>
<path fill="none" stroke="#64748b" d="M297.49,-734.61C307.29,-725.82 319.11,-715.21 329.48,-705.9"/>
<polygon fill="#64748b" stroke="#64748b" points="331.02,-707.82 334.59,-701.32 327.74,-704.17 331.02,-707.82"/>
</g>
</g>
</svg>
