<?xml version="1.0" encoding="UTF-8" standalone="no"?>
<!DOCTYPE svg PUBLIC "-//W3C//DTD SVG 1.1//EN"
 "http://www.w3.org/Graphics/SVG/1.1/DTD/svg11.dtd">
<!-- Generated by graphviz version 15.0.0 (20260523.1842)
 -->
<!-- Title: exists_sieveApproximationError_uniform_bound_of_exists_pointwise_series Pages: 1 -->
<svg width="694pt" height="698pt"
 viewBox="0.00 0.00 694.00 698.00" xmlns="http://www.w3.org/2000/svg" xmlns:xlink="http://www.w3.org/1999/xlink">
<g id="graph0" class="graph" transform="scale(1 1) rotate(0) translate(4 694)">
<title>exists_sieveApproximationError_uniform_bound_of_exists_pointwise_series</title>
<polygon fill="white" stroke="none" points="-4,4 -4,-694 690,-694 690,4 -4,4"/>
<text xml:space="preserve" text-anchor="middle" x="343" y="-673.4" font-family="Helvetica,sans-Serif" font-size="14.00">Proof narrative — exists_sieveApproximationError_uniform_bound_of_exists_pointwise_series &#160;(13 decls)</text>
<g id="clust1" class="cluster">
<title>cluster_0</title>
<path fill="none" stroke="#cbd5e1" stroke-dasharray="5,2" d="M20,-8C20,-8 666,-8 666,-8 672,-8 678,-14 678,-20 678,-20 678,-645.2 678,-645.2 678,-651.2 672,-657.2 666,-657.2 666,-657.2 20,-657.2 20,-657.2 14,-657.2 8,-651.2 8,-645.2 8,-645.2 8,-20 8,-20 8,-14 14,-8 20,-8"/>
<text xml:space="preserve" text-anchor="middle" x="343" y="-643.3" font-family="Helvetica,sans-Serif" font-size="11.00">Nonparametric</text>
</g>
<!-- n0 -->
<g id="node1" class="node">
<title>n0</title>
<g id="a_node1"><a xlink:href="https://github.com/statopia/statlib/blob/main/Statlib/Nonparametric/Vocabulary/Sieve.lean#L27" xlink:title="noncomputable def · Statlib/Nonparametric/Vocabulary/Sieve.lean:27" target="_blank">
<path fill="#d6e9ff" stroke="#3b82f6" d="M637.51,-196C637.51,-196 580.49,-196 580.49,-196 574.49,-196 568.49,-190 568.49,-184 568.49,-184 568.49,-172 568.49,-172 568.49,-166 574.49,-160 580.49,-160 580.49,-160 637.51,-160 637.51,-160 643.51,-160 649.51,-166 649.51,-172 649.51,-172 649.51,-184 649.51,-184 649.51,-190 643.51,-196 637.51,-196"/>
<text xml:space="preserve" text-anchor="middle" x="609" y="-175" font-family="Helvetica,sans-Serif" font-size="10.00">seriesFunction</text>
</a>
</g>
</g>
<!-- n1 -->
<g id="node2" class="node">
<title>n1</title>
<g id="a_node2"><a xlink:href="https://github.com/statopia/statlib/blob/main/Statlib/Nonparametric/Vocabulary/Risk.lean#L60" xlink:title="noncomputable def · Statlib/Nonparametric/Vocabulary/Risk.lean:60" target="_blank">
<path fill="#d6e9ff" stroke="#3b82f6" d="M309.25,-196C309.25,-196 212.75,-196 212.75,-196 206.75,-196 200.75,-190 200.75,-184 200.75,-184 200.75,-172 200.75,-172 200.75,-166 206.75,-160 212.75,-160 212.75,-160 309.25,-160 309.25,-160 315.25,-160 321.25,-166 321.25,-172 321.25,-172 321.25,-184 321.25,-184 321.25,-190 315.25,-196 309.25,-196"/>
<text xml:space="preserve" text-anchor="middle" x="261" y="-175" font-family="Helvetica,sans-Serif" font-size="10.00">integratedSquaredError</text>
</a>
</g>
</g>
<!-- n2 -->
<g id="node3" class="node">
<title>n2</title>
<g id="a_node3"><a xlink:href="https://github.com/statopia/statlib/blob/main/Statlib/Nonparametric/Vocabulary/Sieve.lean#L42" xlink:title="noncomputable def · Statlib/Nonparametric/Vocabulary/Sieve.lean:42" target="_blank">
<path fill="#d6e9ff" stroke="#3b82f6" d="M393.74,-268C393.74,-268 292.26,-268 292.26,-268 286.26,-268 280.26,-262 280.26,-256 280.26,-256 280.26,-244 280.26,-244 280.26,-238 286.26,-232 292.26,-232 292.26,-232 393.74,-232 393.74,-232 399.74,-232 405.74,-238 405.74,-244 405.74,-244 405.74,-256 405.74,-256 405.74,-262 399.74,-268 393.74,-268"/>
<text xml:space="preserve" text-anchor="middle" x="343" y="-247" font-family="Helvetica,sans-Serif" font-size="10.00">sieveApproximationError</text>
</a>
</g>
</g>
<!-- n2&#45;&gt;n0 -->
<g id="edge2" class="edge">
<title>n2&#45;&gt;n0</title>
<path fill="none" stroke="#64748b" d="M406.04,-232.41C453.23,-219.99 516.86,-203.25 560.21,-191.84"/>
<polygon fill="#64748b" stroke="#64748b" points="560.72,-194.24 566.87,-190.09 559.47,-189.5 560.72,-194.24"/>
</g>
<!-- n2&#45;&gt;n1 -->
<g id="edge1" class="edge">
<title>n2&#45;&gt;n1</title>
<path fill="none" stroke="#64748b" d="M322.73,-231.7C312.18,-222.69 299.16,-211.57 287.79,-201.87"/>
<polygon fill="#64748b" stroke="#64748b" points="289.39,-200.01 282.47,-197.33 286.21,-203.74 289.39,-200.01"/>
</g>
<!-- n3 -->
<g id="node4" class="node">
<title>n3</title>
<g id="a_node4"><a xlink:href="https://github.com/statopia/statlib/blob/main/Statlib/Nonparametric/Approximation/Metric.lean#L10" xlink:title="theorem · Statlib/Nonparametric/Approximation/Metric.lean:10" target="_blank">
<path fill="#ffe6a3" stroke="#d4a017" d="M312.19,-340C312.19,-340 107.81,-340 107.81,-340 101.81,-340 95.81,-334 95.81,-328 95.81,-328 95.81,-316 95.81,-316 95.81,-310 101.81,-304 107.81,-304 107.81,-304 312.19,-304 312.19,-304 318.19,-304 324.19,-310 324.19,-316 324.19,-316 324.19,-328 324.19,-328 324.19,-334 318.19,-340 312.19,-340"/>
<text xml:space="preserve" text-anchor="middle" x="210" y="-319" font-family="Helvetica,sans-Serif" font-size="10.00">integratedSquaredError_le_of_pointwise_bound</text>
</a>
</g>
</g>
<!-- n3&#45;&gt;n1 -->
<g id="edge3" class="edge">
<title>n3&#45;&gt;n1</title>
<path fill="none" stroke="#64748b" d="M224.38,-303.94C231.98,-294.05 240.78,-281.01 246,-268 254.18,-247.63 257.9,-222.91 259.59,-204.69"/>
<polygon fill="#64748b" stroke="#64748b" points="262.02,-205 260.15,-197.83 257.14,-204.61 262.02,-205"/>
</g>
<!-- n4 -->
<g id="node5" class="node">
<title>n4</title>
<g id="a_node5"><a xlink:href="https://github.com/statopia/statlib/blob/main/Statlib/Nonparametric/Approximation/Sieve.lean#L107" xlink:title="theorem · Statlib/Nonparametric/Approximation/Sieve.lean:107" target="_blank">
<path fill="#ffe6a3" stroke="#d4a017" d="M578.16,-340C578.16,-340 393.84,-340 393.84,-340 387.84,-340 381.84,-334 381.84,-328 381.84,-328 381.84,-316 381.84,-316 381.84,-310 387.84,-304 393.84,-304 393.84,-304 578.16,-304 578.16,-304 584.16,-304 590.16,-310 590.16,-316 590.16,-316 590.16,-328 590.16,-328 590.16,-334 584.16,-340 578.16,-340"/>
<text xml:space="preserve" text-anchor="middle" x="486" y="-319" font-family="Helvetica,sans-Serif" font-size="10.00">sieveApproximationError_le_of_coefficients</text>
</a>
</g>
</g>
<!-- n4&#45;&gt;n0 -->
<g id="edge5" class="edge">
<title>n4&#45;&gt;n0</title>
<path fill="none" stroke="#64748b" d="M501.08,-303.59C523.15,-278.11 564.28,-230.63 588.89,-202.21"/>
<polygon fill="#64748b" stroke="#64748b" points="590.46,-204.15 593.19,-197.25 586.75,-200.94 590.46,-204.15"/>
</g>
<!-- n4&#45;&gt;n1 -->
<g id="edge4" class="edge">
<title>n4&#45;&gt;n1</title>
<path fill="none" stroke="#64748b" d="M476.43,-303.82C464.49,-283.88 442.29,-251.26 415,-232 389.66,-214.12 357.76,-201.83 329.58,-193.63"/>
<polygon fill="#64748b" stroke="#64748b" points="330.59,-191.37 323.19,-191.83 329.27,-196.08 330.59,-191.37"/>
</g>
<!-- n4&#45;&gt;n2 -->
<g id="edge6" class="edge">
<title>n4&#45;&gt;n2</title>
<path fill="none" stroke="#64748b" d="M450.28,-303.52C430.69,-293.92 406.25,-281.96 385.66,-271.88"/>
<polygon fill="#64748b" stroke="#64748b" points="386.98,-269.8 379.62,-268.93 384.83,-274.2 386.98,-269.8"/>
</g>
<!-- n5 -->
<g id="node6" class="node">
<title>n5</title>
<g id="a_node6"><a xlink:href="https://github.com/statopia/statlib/blob/main/Statlib/Nonparametric/Approximation/Sieve.lean#L248" xlink:title="theorem · Statlib/Nonparametric/Approximation/Sieve.lean:248" target="_blank">
<path fill="#ffe6a3" stroke="#d4a017" d="M349.79,-412C349.79,-412 108.21,-412 108.21,-412 102.21,-412 96.21,-406 96.21,-400 96.21,-400 96.21,-388 96.21,-388 96.21,-382 102.21,-376 108.21,-376 108.21,-376 349.79,-376 349.79,-376 355.79,-376 361.79,-382 361.79,-388 361.79,-388 361.79,-400 361.79,-400 361.79,-406 355.79,-412 349.79,-412"/>
<text xml:space="preserve" text-anchor="middle" x="229" y="-391" font-family="Helvetica,sans-Serif" font-size="10.00">sieveApproximationError_le_of_pointwise_series_bound</text>
</a>
</g>
</g>
<!-- n5&#45;&gt;n0 -->
<g id="edge7" class="edge">
<title>n5&#45;&gt;n0</title>
<path fill="none" stroke="#64748b" d="M362.27,-391.11C454.99,-386.73 567.42,-374.22 599,-340 632.85,-303.32 624.42,-239.69 616.17,-204.4"/>
<polygon fill="#64748b" stroke="#64748b" points="618.63,-204.17 614.57,-197.96 613.88,-205.34 618.63,-204.17"/>
</g>
<!-- n5&#45;&gt;n1 -->
<g id="edge8" class="edge">
<title>n5&#45;&gt;n1</title>
<path fill="none" stroke="#64748b" d="M134.03,-375.61C115.55,-367.77 98.4,-356.43 87,-340 77.88,-326.86 77.15,-316.61 87,-304 127.6,-252 182.52,-312.74 231,-268 235.87,-263.5 246.66,-228.81 253.88,-204.09"/>
<polygon fill="#64748b" stroke="#64748b" points="256.17,-205.01 255.76,-197.61 251.46,-203.65 256.17,-205.01"/>
</g>
<!-- n5&#45;&gt;n2 -->
<g id="edge9" class="edge">
<title>n5&#45;&gt;n2</title>
<path fill="none" stroke="#64748b" d="M287.11,-375.51C304.53,-367.45 321.92,-355.99 333,-340 345.74,-321.6 347.32,-295.75 346.25,-276.65"/>
<polygon fill="#64748b" stroke="#64748b" points="348.71,-276.7 345.73,-269.91 343.83,-277.08 348.71,-276.7"/>
</g>
<!-- n5&#45;&gt;n3 -->
<g id="edge10" class="edge">
<title>n5&#45;&gt;n3</title>
<path fill="none" stroke="#64748b" d="M224.3,-375.7C222.05,-367.39 219.3,-357.28 216.82,-348.14"/>
<polygon fill="#64748b" stroke="#64748b" points="219.24,-347.68 215.04,-341.57 214.51,-348.96 219.24,-347.68"/>
</g>
<!-- n5&#45;&gt;n4 -->
<g id="edge11" class="edge">
<title>n5&#45;&gt;n4</title>
<path fill="none" stroke="#64748b" d="M293.19,-375.52C329.97,-365.5 376.23,-352.9 414.21,-342.55"/>
<polygon fill="#64748b" stroke="#64748b" points="414.61,-344.98 420.72,-340.78 413.33,-340.26 414.61,-344.98"/>
</g>
<!-- n6 -->
<g id="node7" class="node">
<title>n6</title>
<g id="a_node7"><a xlink:href="https://github.com/statopia/statlib/blob/main/Statlib/Nonparametric/Vocabulary/Estimator.lean#L28" xlink:title="noncomputable def · Statlib/Nonparametric/Vocabulary/Estimator.lean:28" target="_blank">
<path fill="#d6e9ff" stroke="#3b82f6" d="M134,-52C134,-52 104,-52 104,-52 98,-52 92,-46 92,-40 92,-40 92,-28 92,-28 92,-22 98,-16 104,-16 104,-16 134,-16 134,-16 140,-16 146,-22 146,-28 146,-28 146,-40 146,-40 146,-46 140,-52 134,-52"/>
<text xml:space="preserve" text-anchor="middle" x="119" y="-31" font-family="Helvetica,sans-Serif" font-size="10.00">bias</text>
</a>
</g>
</g>
<!-- n7 -->
<g id="node8" class="node">
<title>n7</title>
<g id="a_node8"><a xlink:href="https://github.com/statopia/statlib/blob/main/Statlib/Nonparametric/Vocabulary/NeuralNetwork.lean#L23" xlink:title="structure · Statlib/Nonparametric/Vocabulary/NeuralNetwork.lean:23" target="_blank">
<path fill="#e8dcff" stroke="#8b5cf6" d="M168.96,-124C168.96,-124 123.04,-124 123.04,-124 117.04,-124 111.04,-118 111.04,-112 111.04,-112 111.04,-100 111.04,-100 111.04,-94 117.04,-88 123.04,-88 123.04,-88 168.96,-88 168.96,-88 174.96,-88 180.96,-94 180.96,-100 180.96,-100 180.96,-112 180.96,-112 180.96,-118 174.96,-124 168.96,-124"/>
<text xml:space="preserve" text-anchor="middle" x="146" y="-103" font-family="Helvetica,sans-Serif" font-size="10.00">DenseLayer</text>
</a>
</g>
</g>
<!-- n7&#45;&gt;n6 -->
<g id="edge12" class="edge">
<title>n7&#45;&gt;n6</title>
<path fill="none" stroke="#64748b" d="M139.33,-87.7C136.09,-79.3 132.14,-69.07 128.59,-59.86"/>
<polygon fill="#64748b" stroke="#64748b" points="130.95,-59.17 126.14,-53.52 126.38,-60.93 130.95,-59.17"/>
</g>
<!-- n8 -->
<g id="node9" class="node">
<title>n8</title>
<g id="a_node9"><a xlink:href="https://github.com/statopia/statlib/blob/main/Statlib/Nonparametric/Vocabulary/NeuralNetwork.lean#L30" xlink:title="noncomputable def · Statlib/Nonparametric/Vocabulary/NeuralNetwork.lean:30" target="_blank">
<path fill="#d6e9ff" stroke="#3b82f6" d="M134,-196C134,-196 104,-196 104,-196 98,-196 92,-190 92,-184 92,-184 92,-172 92,-172 92,-166 98,-160 104,-160 104,-160 134,-160 134,-160 140,-160 146,-166 146,-172 146,-172 146,-184 146,-184 146,-190 140,-196 134,-196"/>
<text xml:space="preserve" text-anchor="middle" x="119" y="-175" font-family="Helvetica,sans-Serif" font-size="10.00">apply</text>
</a>
</g>
</g>
<!-- n8&#45;&gt;n6 -->
<g id="edge14" class="edge">
<title>n8&#45;&gt;n6</title>
<path fill="none" stroke="#64748b" d="M111.93,-159.67C108.16,-149.47 103.91,-136.22 102,-124 99.53,-108.19 99.53,-103.81 102,-88 103.45,-78.74 106.24,-68.89 109.15,-60.22"/>
<polygon fill="#64748b" stroke="#64748b" points="111.41,-61.18 111.43,-53.76 106.79,-59.55 111.41,-61.18"/>
</g>
<!-- n8&#45;&gt;n7 -->
<g id="edge13" class="edge">
<title>n8&#45;&gt;n7</title>
<path fill="none" stroke="#64748b" d="M125.67,-159.7C128.91,-151.3 132.86,-141.07 136.41,-131.86"/>
<polygon fill="#64748b" stroke="#64748b" points="138.62,-132.93 138.86,-125.52 134.05,-131.17 138.62,-132.93"/>
</g>
<!-- n9 -->
<g id="node10" class="node">
<title>n9</title>
<g id="a_node10"><a xlink:href="https://github.com/statopia/statlib/blob/main/Statlib/Nonparametric/Approximation/Sieve.lean#L121" xlink:title="theorem · Statlib/Nonparametric/Approximation/Sieve.lean:121" target="_blank">
<path fill="#ffe6a3" stroke="#d4a017" d="M210.05,-268C210.05,-268 27.95,-268 27.95,-268 21.95,-268 15.95,-262 15.95,-256 15.95,-256 15.95,-244 15.95,-244 15.95,-238 21.95,-232 27.95,-232 27.95,-232 210.05,-232 210.05,-232 216.05,-232 222.05,-238 222.05,-244 222.05,-244 222.05,-256 222.05,-256 222.05,-262 216.05,-268 210.05,-268"/>
<text xml:space="preserve" text-anchor="middle" x="119" y="-247" font-family="Helvetica,sans-Serif" font-size="10.00">sieveApproximationError_range_bddBelow</text>
</a>
</g>
</g>
<!-- n9&#45;&gt;n0 -->
<g id="edge16" class="edge">
<title>n9&#45;&gt;n0</title>
<path fill="none" stroke="#64748b" d="M222.32,-234.24C326.08,-219.42 481.49,-197.22 559.95,-186.01"/>
<polygon fill="#64748b" stroke="#64748b" points="560.13,-188.46 566.71,-185.04 559.43,-183.61 560.13,-188.46"/>
</g>
<!-- n9&#45;&gt;n1 -->
<g id="edge15" class="edge">
<title>n9&#45;&gt;n1</title>
<path fill="none" stroke="#64748b" d="M154.47,-231.52C173.84,-221.97 197.97,-210.07 218.37,-200.01"/>
<polygon fill="#64748b" stroke="#64748b" points="219.43,-202.22 224.63,-196.93 217.27,-197.83 219.43,-202.22"/>
</g>
<!-- n9&#45;&gt;n8 -->
<g id="edge17" class="edge">
<title>n9&#45;&gt;n8</title>
<path fill="none" stroke="#64748b" d="M119,-231.7C119,-223.47 119,-213.48 119,-204.42"/>
<polygon fill="#64748b" stroke="#64748b" points="121.45,-204.62 119,-197.62 116.55,-204.62 121.45,-204.62"/>
</g>
<!-- n10 -->
<g id="node11" class="node">
<title>n10</title>
<g id="a_node11"><a xlink:href="https://github.com/statopia/statlib/blob/main/Statlib/Nonparametric/Approximation/Sieve.lean#L269" xlink:title="theorem · Statlib/Nonparametric/Approximation/Sieve.lean:269" target="_blank">
<path fill="#ffe6a3" stroke="#d4a017" d="M428.67,-484C428.67,-484 189.33,-484 189.33,-484 183.33,-484 177.33,-478 177.33,-472 177.33,-472 177.33,-460 177.33,-460 177.33,-454 183.33,-448 189.33,-448 189.33,-448 428.67,-448 428.67,-448 434.67,-448 440.67,-454 440.67,-460 440.67,-460 440.67,-472 440.67,-472 440.67,-478 434.67,-484 428.67,-484"/>
<text xml:space="preserve" text-anchor="middle" x="309" y="-463" font-family="Helvetica,sans-Serif" font-size="10.00">sieveApproximationError_le_of_exists_pointwise_series</text>
</a>
</g>
</g>
<!-- n10&#45;&gt;n0 -->
<g id="edge18" class="edge">
<title>n10&#45;&gt;n0</title>
<path fill="none" stroke="#64748b" d="M419.24,-447.58C485.58,-431.2 566.01,-399.78 613,-340 643.63,-301.03 629.92,-238.82 618.59,-204.25"/>
<polygon fill="#64748b" stroke="#64748b" points="621.01,-203.76 616.43,-197.93 616.37,-205.34 621.01,-203.76"/>
</g>
<!-- n10&#45;&gt;n2 -->
<g id="edge19" class="edge">
<title>n10&#45;&gt;n2</title>
<path fill="none" stroke="#64748b" d="M338.83,-447.7C351.21,-438.78 364.24,-426.66 371,-412 381.95,-388.24 362.6,-315.19 350.92,-276.17"/>
<polygon fill="#64748b" stroke="#64748b" points="353.37,-275.83 348.99,-269.84 348.68,-277.25 353.37,-275.83"/>
</g>
<!-- n10&#45;&gt;n5 -->
<g id="edge20" class="edge">
<title>n10&#45;&gt;n5</title>
<path fill="none" stroke="#64748b" d="M289.22,-447.7C278.94,-438.69 266.22,-427.57 255.14,-417.87"/>
<polygon fill="#64748b" stroke="#64748b" points="256.85,-416.11 249.96,-413.34 253.62,-419.8 256.85,-416.11"/>
</g>
<!-- n10&#45;&gt;n9 -->
<g id="edge21" class="edge">
<title>n10&#45;&gt;n9</title>
<path fill="none" stroke="#64748b" d="M183.71,-447.53C141.35,-439.08 101.16,-427.38 87,-412 54.32,-376.5 59.87,-349.47 76,-304 79.85,-293.14 86.98,-282.89 94.34,-274.35"/>
<polygon fill="#64748b" stroke="#64748b" points="96.04,-276.11 98.94,-269.28 92.42,-272.81 96.04,-276.11"/>
</g>
<!-- n11 -->
<g id="node12" class="node">
<title>n11</title>
<g id="a_node12"><a xlink:href="https://github.com/statopia/statlib/blob/main/Statlib/Nonparametric/Approximation/Sieve.lean#L285" xlink:title="theorem · Statlib/Nonparametric/Approximation/Sieve.lean:285" target="_blank">
<path fill="#ffe6a3" stroke="#d4a017" d="M458.14,-556C458.14,-556 159.86,-556 159.86,-556 153.86,-556 147.86,-550 147.86,-544 147.86,-544 147.86,-532 147.86,-532 147.86,-526 153.86,-520 159.86,-520 159.86,-520 458.14,-520 458.14,-520 464.14,-520 470.14,-526 470.14,-532 470.14,-532 470.14,-544 470.14,-544 470.14,-550 464.14,-556 458.14,-556"/>
<text xml:space="preserve" text-anchor="middle" x="309" y="-535" font-family="Helvetica,sans-Serif" font-size="10.00">sieveApproximationError_uniform_bound_of_exists_pointwise_series</text>
</a>
</g>
</g>
<!-- n11&#45;&gt;n0 -->
<g id="edge22" class="edge">
<title>n11&#45;&gt;n0</title>
<path fill="none" stroke="#64748b" d="M470.54,-528.84C558.26,-514.69 649,-479.6 649,-395 649,-395 649,-395 649,-321 649,-280.89 646,-270.28 634,-232 631.02,-222.49 626.65,-212.49 622.41,-203.77"/>
<polygon fill="#64748b" stroke="#64748b" points="624.6,-202.68 619.26,-197.53 620.22,-204.89 624.6,-202.68"/>
</g>
<!-- n11&#45;&gt;n2 -->
<g id="edge23" class="edge">
<title>n11&#45;&gt;n2</title>
<path fill="none" stroke="#64748b" d="M233.69,-519.52C180.07,-502.39 113.09,-470.1 87,-412 67.34,-368.21 56.69,-341.22 87,-304 92.92,-296.72 198.03,-276.73 271.7,-263.49"/>
<polygon fill="#64748b" stroke="#64748b" points="272.12,-265.9 278.58,-262.25 271.26,-261.08 272.12,-265.9"/>
</g>
<!-- n11&#45;&gt;n10 -->
<g id="edge24" class="edge">
<title>n11&#45;&gt;n10</title>
<path fill="none" stroke="#64748b" d="M309,-519.7C309,-511.47 309,-501.48 309,-492.42"/>
<polygon fill="#64748b" stroke="#64748b" points="311.45,-492.62 309,-485.62 306.55,-492.62 311.45,-492.62"/>
</g>
<!-- n12 -->
<g id="node13" class="node">
<title>n12</title>
<g id="a_node13"><a xlink:href="https://github.com/statopia/statlib/blob/main/Statlib/Nonparametric/Approximation/Sieve.lean#L302" xlink:title="theorem · Statlib/Nonparametric/Approximation/Sieve.lean:302" target="_blank">
<path fill="#ffe6a3" stroke="#d4a017" stroke-width="3" d="M473.7,-628C473.7,-628 144.3,-628 144.3,-628 138.3,-628 132.3,-622 132.3,-616 132.3,-616 132.3,-604 132.3,-604 132.3,-598 138.3,-592 144.3,-592 144.3,-592 473.7,-592 473.7,-592 479.7,-592 485.7,-598 485.7,-604 485.7,-604 485.7,-616 485.7,-616 485.7,-622 479.7,-628 473.7,-628"/>
<text xml:space="preserve" text-anchor="middle" x="309" y="-607" font-family="Helvetica,sans-Serif" font-size="10.00">exists_sieveApproximationError_uniform_bound_of_exists_pointwise_series</text>
</a>
</g>
</g>
<!-- n12&#45;&gt;n0 -->
<g id="edge25" class="edge">
<title>n12&#45;&gt;n0</title>
<path fill="none" stroke="#64748b" d="M405.95,-590.51C512.57,-567.34 669,-523.69 669,-467 669,-467 669,-467 669,-321 669,-279.91 661.08,-269.37 644,-232 639.49,-222.13 633.27,-212.01 627.33,-203.3"/>
<polygon fill="#64748b" stroke="#64748b" points="629.34,-201.9 623.31,-197.58 625.33,-204.72 629.34,-201.9"/>
</g>
<!-- n12&#45;&gt;n2 -->
<g id="edge26" class="edge">
<title>n12&#45;&gt;n2</title>
<path fill="none" stroke="#64748b" d="M198.1,-590.57C130.49,-572.28 57,-536.43 57,-467 57,-467 57,-467 57,-393 57,-353.28 38.34,-333.43 65,-304 72,-296.28 191.84,-275.51 271.87,-262.38"/>
<polygon fill="#64748b" stroke="#64748b" points="271.96,-264.85 278.47,-261.3 271.17,-260.01 271.96,-264.85"/>
</g>
<!-- n12&#45;&gt;n11 -->
<g id="edge27" class="edge">
<title>n12&#45;&gt;n11</title>
<path fill="none" stroke="#64748b" d="M309,-590.61C309,-582.59 309,-573.05 309,-564.37"/>
<polygon fill="#64748b" stroke="#64748b" points="311.45,-564.58 309,-557.58 306.55,-564.58 311.45,-564.58"/>
</g>
</g>
</svg>
