<?xml version="1.0" encoding="UTF-8" standalone="no"?>
<!DOCTYPE svg PUBLIC "-//W3C//DTD SVG 1.1//EN"
 "http://www.w3.org/Graphics/SVG/1.1/DTD/svg11.dtd">
<!-- Generated by graphviz version 15.0.0 (20260523.1842)
 -->
<!-- Title: finiteLinearSpan_classApproximationError_le_of_pointwise_series_bound Pages: 1 -->
<svg width="747pt" height="338pt"
 viewBox="0.00 0.00 747.00 338.00" xmlns="http://www.w3.org/2000/svg" xmlns:xlink="http://www.w3.org/1999/xlink">
<g id="graph0" class="graph" transform="scale(1 1) rotate(0) translate(4 334)">
<title>finiteLinearSpan_classApproximationError_le_of_pointwise_series_bound</title>
<polygon fill="white" stroke="none" points="-4,4 -4,-334 743,-334 743,4 -4,4"/>
<text xml:space="preserve" text-anchor="middle" x="369.5" y="-313.4" font-family="Helvetica,sans-Serif" font-size="14.00">Proof narrative — finiteLinearSpan_classApproximationError_le_of_pointwise_series_bound &#160;(11 decls)</text>
<g id="clust1" class="cluster">
<title>cluster_0</title>
<path fill="none" stroke="#cbd5e1" stroke-dasharray="5,2" d="M20,-8C20,-8 719,-8 719,-8 725,-8 731,-14 731,-20 731,-20 731,-285.2 731,-285.2 731,-291.2 725,-297.2 719,-297.2 719,-297.2 20,-297.2 20,-297.2 14,-297.2 8,-291.2 8,-285.2 8,-285.2 8,-20 8,-20 8,-14 14,-8 20,-8"/>
<text xml:space="preserve" text-anchor="middle" x="369.5" y="-283.3" font-family="Helvetica,sans-Serif" font-size="11.00">Nonparametric</text>
</g>
<!-- n0 -->
<g id="node1" class="node">
<title>n0</title>
<g id="a_node1"><a xlink:href="https://github.com/statopia/statlib/blob/main/Statlib/Nonparametric/Vocabulary/Sieve.lean#L27" xlink:title="noncomputable def · Statlib/Nonparametric/Vocabulary/Sieve.lean:27" target="_blank">
<path fill="#d6e9ff" stroke="#3b82f6" d="M121.51,-124C121.51,-124 64.49,-124 64.49,-124 58.49,-124 52.49,-118 52.49,-112 52.49,-112 52.49,-100 52.49,-100 52.49,-94 58.49,-88 64.49,-88 64.49,-88 121.51,-88 121.51,-88 127.51,-88 133.51,-94 133.51,-100 133.51,-100 133.51,-112 133.51,-112 133.51,-118 127.51,-124 121.51,-124"/>
<text xml:space="preserve" text-anchor="middle" x="93" y="-103" font-family="Helvetica,sans-Serif" font-size="10.00">seriesFunction</text>
</a>
</g>
</g>
<!-- n1 -->
<g id="node2" class="node">
<title>n1</title>
<g id="a_node2"><a xlink:href="https://github.com/statopia/statlib/blob/main/Statlib/Nonparametric/Vocabulary/Risk.lean#L60" xlink:title="noncomputable def · Statlib/Nonparametric/Vocabulary/Risk.lean:60" target="_blank">
<path fill="#d6e9ff" stroke="#3b82f6" d="M442.25,-124C442.25,-124 345.75,-124 345.75,-124 339.75,-124 333.75,-118 333.75,-112 333.75,-112 333.75,-100 333.75,-100 333.75,-94 339.75,-88 345.75,-88 345.75,-88 442.25,-88 442.25,-88 448.25,-88 454.25,-94 454.25,-100 454.25,-100 454.25,-112 454.25,-112 454.25,-118 448.25,-124 442.25,-124"/>
<text xml:space="preserve" text-anchor="middle" x="394" y="-103" font-family="Helvetica,sans-Serif" font-size="10.00">integratedSquaredError</text>
</a>
</g>
</g>
<!-- n2 -->
<g id="node3" class="node">
<title>n2</title>
<g id="a_node3"><a xlink:href="https://github.com/statopia/statlib/blob/main/Statlib/Nonparametric/Vocabulary/FunctionClasses.lean#L16" xlink:title="abbrev · Statlib/Nonparametric/Vocabulary/FunctionClasses.lean:16" target="_blank">
<path fill="#d6e9ff" stroke="#3b82f6" d="M413.68,-52C413.68,-52 358.32,-52 358.32,-52 352.32,-52 346.32,-46 346.32,-40 346.32,-40 346.32,-28 346.32,-28 346.32,-22 352.32,-16 358.32,-16 358.32,-16 413.68,-16 413.68,-16 419.68,-16 425.68,-22 425.68,-28 425.68,-28 425.68,-40 425.68,-40 425.68,-46 419.68,-52 413.68,-52"/>
<text xml:space="preserve" text-anchor="middle" x="386" y="-31" font-family="Helvetica,sans-Serif" font-size="10.00">FunctionClass</text>
</a>
</g>
</g>
<!-- n3 -->
<g id="node4" class="node">
<title>n3</title>
<g id="a_node4"><a xlink:href="https://github.com/statopia/statlib/blob/main/Statlib/Nonparametric/Vocabulary/Sieve.lean#L23" xlink:title="noncomputable def · Statlib/Nonparametric/Vocabulary/Sieve.lean:23" target="_blank">
<path fill="#d6e9ff" stroke="#3b82f6" d="M273.14,-124C273.14,-124 208.86,-124 208.86,-124 202.86,-124 196.86,-118 196.86,-112 196.86,-112 196.86,-100 196.86,-100 196.86,-94 202.86,-88 208.86,-88 208.86,-88 273.14,-88 273.14,-88 279.14,-88 285.14,-94 285.14,-100 285.14,-100 285.14,-112 285.14,-112 285.14,-118 279.14,-124 273.14,-124"/>
<text xml:space="preserve" text-anchor="middle" x="241" y="-103" font-family="Helvetica,sans-Serif" font-size="10.00">finiteLinearSpan</text>
</a>
</g>
</g>
<!-- n3&#45;&gt;n2 -->
<g id="edge1" class="edge">
<title>n3&#45;&gt;n2</title>
<path fill="none" stroke="#64748b" d="M277.22,-87.52C297.01,-77.96 321.67,-66.05 342.51,-56"/>
<polygon fill="#64748b" stroke="#64748b" points="343.39,-58.29 348.63,-53.04 341.26,-53.88 343.39,-58.29"/>
</g>
<!-- n4 -->
<g id="node5" class="node">
<title>n4</title>
<g id="a_node5"><a xlink:href="https://github.com/statopia/statlib/blob/main/Statlib/Nonparametric/Vocabulary/Risk.lean#L75" xlink:title="noncomputable def · Statlib/Nonparametric/Vocabulary/Risk.lean:75" target="_blank">
<path fill="#d6e9ff" stroke="#3b82f6" d="M639.46,-196C639.46,-196 538.54,-196 538.54,-196 532.54,-196 526.54,-190 526.54,-184 526.54,-184 526.54,-172 526.54,-172 526.54,-166 532.54,-160 538.54,-160 538.54,-160 639.46,-160 639.46,-160 645.46,-160 651.46,-166 651.46,-172 651.46,-172 651.46,-184 651.46,-184 651.46,-190 645.46,-196 639.46,-196"/>
<text xml:space="preserve" text-anchor="middle" x="589" y="-175" font-family="Helvetica,sans-Serif" font-size="10.00">classApproximationError</text>
</a>
</g>
</g>
<!-- n4&#45;&gt;n1 -->
<g id="edge3" class="edge">
<title>n4&#45;&gt;n1</title>
<path fill="none" stroke="#64748b" d="M540.3,-159.52C512.97,-149.71 478.76,-137.43 450.29,-127.21"/>
<polygon fill="#64748b" stroke="#64748b" points="451.26,-124.95 443.85,-124.89 449.61,-129.56 451.26,-124.95"/>
</g>
<!-- n4&#45;&gt;n2 -->
<g id="edge2" class="edge">
<title>n4&#45;&gt;n2</title>
<path fill="none" stroke="#64748b" d="M564.44,-159.52C539.09,-141.51 498.37,-112.66 463,-88 448.38,-77.8 432.12,-66.6 418.34,-57.13"/>
<polygon fill="#64748b" stroke="#64748b" points="419.78,-55.15 412.62,-53.2 417,-59.19 419.78,-55.15"/>
</g>
<!-- n5 -->
<g id="node6" class="node">
<title>n5</title>
<g id="a_node6"><a xlink:href="https://github.com/statopia/statlib/blob/main/Statlib/Nonparametric/Approximation/Sieve.lean#L13" xlink:title="lemma · Statlib/Nonparametric/Approximation/Sieve.lean:13" target="_blank">
<path fill="#eef2f6" stroke="#94a3b8" d="M210.32,-196C210.32,-196 47.68,-196 47.68,-196 41.68,-196 35.68,-190 35.68,-184 35.68,-184 35.68,-172 35.68,-172 35.68,-166 41.68,-160 47.68,-160 47.68,-160 210.32,-160 210.32,-160 216.32,-160 222.32,-166 222.32,-172 222.32,-172 222.32,-184 222.32,-184 222.32,-190 216.32,-196 210.32,-196"/>
<text xml:space="preserve" text-anchor="middle" x="129" y="-175" font-family="Helvetica,sans-Serif" font-size="10.00">seriesFunction_mem_finiteLinearSpan</text>
</a>
</g>
</g>
<!-- n5&#45;&gt;n0 -->
<g id="edge4" class="edge">
<title>n5&#45;&gt;n0</title>
<path fill="none" stroke="#64748b" d="M120.1,-159.7C115.74,-151.22 110.42,-140.86 105.64,-131.58"/>
<polygon fill="#64748b" stroke="#64748b" points="107.87,-130.55 102.49,-125.45 103.51,-132.8 107.87,-130.55"/>
</g>
<!-- n5&#45;&gt;n3 -->
<g id="edge5" class="edge">
<title>n5&#45;&gt;n3</title>
<path fill="none" stroke="#64748b" d="M156.97,-159.52C171.92,-150.18 190.45,-138.59 206.31,-128.68"/>
<polygon fill="#64748b" stroke="#64748b" points="207.46,-130.85 212.1,-125.06 204.87,-126.7 207.46,-130.85"/>
</g>
<!-- n6 -->
<g id="node7" class="node">
<title>n6</title>
<g id="a_node7"><a xlink:href="https://github.com/statopia/statlib/blob/main/Statlib/Nonparametric/Approximation/Metric.lean#L10" xlink:title="theorem · Statlib/Nonparametric/Approximation/Metric.lean:10" target="_blank">
<path fill="#ffe6a3" stroke="#d4a017" d="M496.19,-196C496.19,-196 291.81,-196 291.81,-196 285.81,-196 279.81,-190 279.81,-184 279.81,-184 279.81,-172 279.81,-172 279.81,-166 285.81,-160 291.81,-160 291.81,-160 496.19,-160 496.19,-160 502.19,-160 508.19,-166 508.19,-172 508.19,-172 508.19,-184 508.19,-184 508.19,-190 502.19,-196 496.19,-196"/>
<text xml:space="preserve" text-anchor="middle" x="394" y="-175" font-family="Helvetica,sans-Serif" font-size="10.00">integratedSquaredError_le_of_pointwise_bound</text>
</a>
</g>
</g>
<!-- n6&#45;&gt;n1 -->
<g id="edge6" class="edge">
<title>n6&#45;&gt;n1</title>
<path fill="none" stroke="#64748b" d="M394,-159.7C394,-151.47 394,-141.48 394,-132.42"/>
<polygon fill="#64748b" stroke="#64748b" points="396.45,-132.62 394,-125.62 391.55,-132.62 396.45,-132.62"/>
</g>
<!-- n7 -->
<g id="node8" class="node">
<title>n7</title>
<g id="a_node8"><a xlink:href="https://github.com/statopia/statlib/blob/main/Statlib/Nonparametric/Vocabulary/Estimator.lean#L28" xlink:title="noncomputable def · Statlib/Nonparametric/Vocabulary/Estimator.lean:28" target="_blank">
<path fill="#d6e9ff" stroke="#3b82f6" d="M676,-52C676,-52 646,-52 646,-52 640,-52 634,-46 634,-40 634,-40 634,-28 634,-28 634,-22 640,-16 646,-16 646,-16 676,-16 676,-16 682,-16 688,-22 688,-28 688,-28 688,-40 688,-40 688,-46 682,-52 676,-52"/>
<text xml:space="preserve" text-anchor="middle" x="661" y="-31" font-family="Helvetica,sans-Serif" font-size="10.00">bias</text>
</a>
</g>
</g>
<!-- n8 -->
<g id="node9" class="node">
<title>n8</title>
<g id="a_node9"><a xlink:href="https://github.com/statopia/statlib/blob/main/Statlib/Nonparametric/Vocabulary/NeuralNetwork.lean#L23" xlink:title="structure · Statlib/Nonparametric/Vocabulary/NeuralNetwork.lean:23" target="_blank">
<path fill="#e8dcff" stroke="#8b5cf6" d="M710.96,-124C710.96,-124 665.04,-124 665.04,-124 659.04,-124 653.04,-118 653.04,-112 653.04,-112 653.04,-100 653.04,-100 653.04,-94 659.04,-88 665.04,-88 665.04,-88 710.96,-88 710.96,-88 716.96,-88 722.96,-94 722.96,-100 722.96,-100 722.96,-112 722.96,-112 722.96,-118 716.96,-124 710.96,-124"/>
<text xml:space="preserve" text-anchor="middle" x="688" y="-103" font-family="Helvetica,sans-Serif" font-size="10.00">DenseLayer</text>
</a>
</g>
</g>
<!-- n8&#45;&gt;n7 -->
<g id="edge7" class="edge">
<title>n8&#45;&gt;n7</title>
<path fill="none" stroke="#64748b" d="M681.33,-87.7C678.09,-79.3 674.14,-69.07 670.59,-59.86"/>
<polygon fill="#64748b" stroke="#64748b" points="672.95,-59.17 668.14,-53.52 668.38,-60.93 672.95,-59.17"/>
</g>
<!-- n9 -->
<g id="node10" class="node">
<title>n9</title>
<g id="a_node10"><a xlink:href="https://github.com/statopia/statlib/blob/main/Statlib/Nonparametric/Vocabulary/NeuralNetwork.lean#L30" xlink:title="noncomputable def · Statlib/Nonparametric/Vocabulary/NeuralNetwork.lean:30" target="_blank">
<path fill="#d6e9ff" stroke="#3b82f6" d="M711,-196C711,-196 681,-196 681,-196 675,-196 669,-190 669,-184 669,-184 669,-172 669,-172 669,-166 675,-160 681,-160 681,-160 711,-160 711,-160 717,-160 723,-166 723,-172 723,-172 723,-184 723,-184 723,-190 717,-196 711,-196"/>
<text xml:space="preserve" text-anchor="middle" x="696" y="-175" font-family="Helvetica,sans-Serif" font-size="10.00">apply</text>
</a>
</g>
</g>
<!-- n9&#45;&gt;n7 -->
<g id="edge9" class="edge">
<title>n9&#45;&gt;n7</title>
<path fill="none" stroke="#64748b" d="M671.98,-159.68C661.25,-150.44 649.75,-138.08 644,-124 635.51,-103.23 641.76,-77.98 648.96,-59.69"/>
<polygon fill="#64748b" stroke="#64748b" points="651.02,-61.1 651.47,-53.7 646.5,-59.2 651.02,-61.1"/>
</g>
<!-- n9&#45;&gt;n8 -->
<g id="edge8" class="edge">
<title>n9&#45;&gt;n8</title>
<path fill="none" stroke="#64748b" d="M694.02,-159.7C693.08,-151.47 691.94,-141.48 690.91,-132.42"/>
<polygon fill="#64748b" stroke="#64748b" points="693.36,-132.28 690.13,-125.61 688.49,-132.84 693.36,-132.28"/>
</g>
<!-- n10 -->
<g id="node11" class="node">
<title>n10</title>
<g id="a_node11"><a xlink:href="https://github.com/statopia/statlib/blob/main/Statlib/Nonparametric/Approximation/Sieve.lean#L151" xlink:title="theorem · Statlib/Nonparametric/Approximation/Sieve.lean:151" target="_blank">
<path fill="#ffe6a3" stroke="#d4a017" stroke-width="3" d="M420.43,-268C420.43,-268 101.57,-268 101.57,-268 95.57,-268 89.57,-262 89.57,-256 89.57,-256 89.57,-244 89.57,-244 89.57,-238 95.57,-232 101.57,-232 101.57,-232 420.43,-232 420.43,-232 426.43,-232 432.43,-238 432.43,-244 432.43,-244 432.43,-256 432.43,-256 432.43,-262 426.43,-268 420.43,-268"/>
<text xml:space="preserve" text-anchor="middle" x="261" y="-247" font-family="Helvetica,sans-Serif" font-size="10.00">finiteLinearSpan_classApproximationError_le_of_pointwise_series_bound</text>
</a>
</g>
</g>
<!-- n10&#45;&gt;n0 -->
<g id="edge10" class="edge">
<title>n10&#45;&gt;n0</title>
<path fill="none" stroke="#64748b" d="M112.85,-230.5C73.83,-222.45 39.19,-211.26 27,-196 17.01,-183.5 20.08,-174.43 27,-160 32.89,-147.71 43.18,-137.37 53.9,-129.18"/>
<polygon fill="#64748b" stroke="#64748b" points="55.12,-131.32 59.37,-125.24 52.26,-127.34 55.12,-131.32"/>
</g>
<!-- n10&#45;&gt;n1 -->
<g id="edge11" class="edge">
<title>n10&#45;&gt;n1</title>
<path fill="none" stroke="#64748b" d="M258.06,-230.72C255.98,-211.25 255.81,-180.48 271,-160 284.32,-142.03 305,-130.08 325.63,-122.16"/>
<polygon fill="#64748b" stroke="#64748b" points="326.34,-124.51 332.09,-119.84 324.68,-119.9 326.34,-124.51"/>
</g>
<!-- n10&#45;&gt;n3 -->
<g id="edge12" class="edge">
<title>n10&#45;&gt;n3</title>
<path fill="none" stroke="#64748b" d="M258.43,-230.73C254.91,-205.75 248.58,-160.81 244.59,-132.52"/>
<polygon fill="#64748b" stroke="#64748b" points="247.05,-132.4 243.65,-125.81 242.2,-133.09 247.05,-132.4"/>
</g>
<!-- n10&#45;&gt;n4 -->
<g id="edge13" class="edge">
<title>n10&#45;&gt;n4</title>
<path fill="none" stroke="#64748b" d="M353.26,-230.54C402.02,-220.63 462.83,-208 517,-196 517.38,-195.92 517.75,-195.83 518.13,-195.75"/>
<polygon fill="#64748b" stroke="#64748b" points="518.43,-198.19 524.72,-194.27 517.35,-193.41 518.43,-198.19"/>
</g>
<!-- n10&#45;&gt;n5 -->
<g id="edge14" class="edge">
<title>n10&#45;&gt;n5</title>
<path fill="none" stroke="#64748b" d="M226.32,-230.61C208.65,-221.24 187.09,-209.8 168.75,-200.08"/>
<polygon fill="#64748b" stroke="#64748b" points="170.3,-198.13 162.97,-197.02 168.01,-202.46 170.3,-198.13"/>
</g>
<!-- n10&#45;&gt;n6 -->
<g id="edge15" class="edge">
<title>n10&#45;&gt;n6</title>
<path fill="none" stroke="#64748b" d="M295.94,-230.61C313.75,-221.24 335.47,-209.8 353.95,-200.08"/>
<polygon fill="#64748b" stroke="#64748b" points="354.73,-202.44 359.78,-197.01 352.44,-198.1 354.73,-202.44"/>
</g>
<!-- n10&#45;&gt;n9 -->
<g id="edge16" class="edge">
<title>n10&#45;&gt;n9</title>
<path fill="none" stroke="#64748b" d="M433.8,-237.79C504.9,-230.16 587.44,-217.39 660,-196 660.27,-195.92 660.55,-195.84 660.82,-195.75"/>
<polygon fill="#64748b" stroke="#64748b" points="661.63,-198.07 667.4,-193.41 659.98,-193.45 661.63,-198.07"/>
</g>
</g>
</svg>
