<?xml version="1.0" encoding="UTF-8" standalone="no"?>
<!DOCTYPE svg PUBLIC "-//W3C//DTD SVG 1.1//EN"
 "http://www.w3.org/Graphics/SVG/1.1/DTD/svg11.dtd">
<!-- Generated by graphviz version 15.0.0 (20260523.1842)
 -->
<!-- Title: hasTensorProductSplineHolderSmoothPointwiseRate_of_projectionRate Pages: 1 -->
<svg width="654pt" height="410pt"
 viewBox="0.00 0.00 654.00 410.00" xmlns="http://www.w3.org/2000/svg" xmlns:xlink="http://www.w3.org/1999/xlink">
<g id="graph0" class="graph" transform="scale(1 1) rotate(0) translate(4 406)">
<title>hasTensorProductSplineHolderSmoothPointwiseRate_of_projectionRate</title>
<polygon fill="white" stroke="none" points="-4,4 -4,-406 650.33,-406 650.33,4 -4,4"/>
<text xml:space="preserve" text-anchor="middle" x="323.16" y="-385.4" font-family="Helvetica,sans-Serif" font-size="14.00">Proof narrative — hasTensorProductSplineHolderSmoothPointwiseRate_of_projectionRate &#160;(11 decls)</text>
<g id="clust1" class="cluster">
<title>cluster_0</title>
<path fill="none" stroke="#cbd5e1" stroke-dasharray="5,2" d="M52.16,-8C52.16,-8 594.16,-8 594.16,-8 600.16,-8 606.16,-14 606.16,-20 606.16,-20 606.16,-357.2 606.16,-357.2 606.16,-363.2 600.16,-369.2 594.16,-369.2 594.16,-369.2 52.16,-369.2 52.16,-369.2 46.16,-369.2 40.16,-363.2 40.16,-357.2 40.16,-357.2 40.16,-20 40.16,-20 40.16,-14 46.16,-8 52.16,-8"/>
<text xml:space="preserve" text-anchor="middle" x="323.16" y="-355.3" font-family="Helvetica,sans-Serif" font-size="11.00">Nonparametric</text>
</g>
<!-- n0 -->
<g id="node1" class="node">
<title>n0</title>
<g id="a_node1"><a xlink:href="https://github.com/statopia/statlib/blob/main/Statlib/Nonparametric/Vocabulary/Spline.lean#L19" xlink:title="structure · Statlib/Nonparametric/Vocabulary/Spline.lean:19" target="_blank">
<path fill="#e8dcff" stroke="#8b5cf6" d="M544.53,-124C544.53,-124 425.8,-124 425.8,-124 419.8,-124 413.8,-118 413.8,-112 413.8,-112 413.8,-100 413.8,-100 413.8,-94 419.8,-88 425.8,-88 425.8,-88 544.53,-88 544.53,-88 550.53,-88 556.53,-94 556.53,-100 556.53,-100 556.53,-112 556.53,-112 556.53,-118 550.53,-124 544.53,-124"/>
<text xml:space="preserve" text-anchor="middle" x="485.16" y="-103" font-family="Helvetica,sans-Serif" font-size="10.00">TensorProductSplineSystem</text>
</a>
</g>
</g>
<!-- n1 -->
<g id="node2" class="node">
<title>n1</title>
<g id="a_node2"><a xlink:href="https://github.com/statopia/statlib/blob/main/Statlib/Nonparametric/Vocabulary/FunctionClasses.lean#L16" xlink:title="abbrev · Statlib/Nonparametric/Vocabulary/FunctionClasses.lean:16" target="_blank">
<path fill="#d6e9ff" stroke="#3b82f6" d="M318.84,-52C318.84,-52 263.48,-52 263.48,-52 257.48,-52 251.48,-46 251.48,-40 251.48,-40 251.48,-28 251.48,-28 251.48,-22 257.48,-16 263.48,-16 263.48,-16 318.84,-16 318.84,-16 324.84,-16 330.84,-22 330.84,-28 330.84,-28 330.84,-40 330.84,-40 330.84,-46 324.84,-52 318.84,-52"/>
<text xml:space="preserve" text-anchor="middle" x="291.16" y="-31" font-family="Helvetica,sans-Serif" font-size="10.00">FunctionClass</text>
</a>
</g>
</g>
<!-- n2 -->
<g id="node3" class="node">
<title>n2</title>
<g id="a_node3"><a xlink:href="https://github.com/statopia/statlib/blob/main/Statlib/Nonparametric/Vocabulary/FunctionClasses.lean#L44" xlink:title="def · Statlib/Nonparametric/Vocabulary/FunctionClasses.lean:44" target="_blank">
<path fill="#d6e9ff" stroke="#3b82f6" d="M221.96,-52C221.96,-52 154.37,-52 154.37,-52 148.37,-52 142.37,-46 142.37,-40 142.37,-40 142.37,-28 142.37,-28 142.37,-22 148.37,-16 154.37,-16 154.37,-16 221.96,-16 221.96,-16 227.96,-16 233.96,-22 233.96,-28 233.96,-28 233.96,-40 233.96,-40 233.96,-46 227.96,-52 221.96,-52"/>
<text xml:space="preserve" text-anchor="middle" x="188.16" y="-31" font-family="Helvetica,sans-Serif" font-size="10.00">IsHolderFunction</text>
</a>
</g>
</g>
<!-- n3 -->
<g id="node4" class="node">
<title>n3</title>
<g id="a_node4"><a xlink:href="https://github.com/statopia/statlib/blob/main/Statlib/Nonparametric/Vocabulary/FunctionClasses.lean#L69" xlink:title="def · Statlib/Nonparametric/Vocabulary/FunctionClasses.lean:69" target="_blank">
<path fill="#d6e9ff" stroke="#3b82f6" d="M162.19,-124C162.19,-124 60.14,-124 60.14,-124 54.14,-124 48.14,-118 48.14,-112 48.14,-112 48.14,-100 48.14,-100 48.14,-94 54.14,-88 60.14,-88 60.14,-88 162.19,-88 162.19,-88 168.19,-88 174.19,-94 174.19,-100 174.19,-100 174.19,-112 174.19,-112 174.19,-118 168.19,-124 162.19,-124"/>
<text xml:space="preserve" text-anchor="middle" x="111.16" y="-103" font-family="Helvetica,sans-Serif" font-size="10.00">IsHolderSmoothFunction</text>
</a>
</g>
</g>
<!-- n3&#45;&gt;n2 -->
<g id="edge1" class="edge">
<title>n3&#45;&gt;n2</title>
<path fill="none" stroke="#64748b" d="M130.2,-87.7C140.1,-78.69 152.34,-67.57 163.01,-57.87"/>
<polygon fill="#64748b" stroke="#64748b" points="164.43,-59.89 167.96,-53.37 161.13,-56.26 164.43,-59.89"/>
</g>
<!-- n4 -->
<g id="node5" class="node">
<title>n4</title>
<g id="a_node5"><a xlink:href="https://github.com/statopia/statlib/blob/main/Statlib/Nonparametric/Vocabulary/FunctionClasses.lean#L56" xlink:title="def · Statlib/Nonparametric/Vocabulary/FunctionClasses.lean:56" target="_blank">
<path fill="#d6e9ff" stroke="#3b82f6" d="M260.4,-124C260.4,-124 223.93,-124 223.93,-124 217.93,-124 211.93,-118 211.93,-112 211.93,-112 211.93,-100 211.93,-100 211.93,-94 217.93,-88 223.93,-88 223.93,-88 260.4,-88 260.4,-88 266.4,-88 272.4,-94 272.4,-100 272.4,-100 272.4,-112 272.4,-112 272.4,-118 266.4,-124 260.4,-124"/>
<text xml:space="preserve" text-anchor="middle" x="242.16" y="-103" font-family="Helvetica,sans-Serif" font-size="10.00">holderBall</text>
</a>
</g>
</g>
<!-- n4&#45;&gt;n1 -->
<g id="edge2" class="edge">
<title>n4&#45;&gt;n1</title>
<path fill="none" stroke="#64748b" d="M254.28,-87.7C260.33,-79.05 267.75,-68.45 274.35,-59.03"/>
<polygon fill="#64748b" stroke="#64748b" points="276.32,-60.48 278.32,-53.34 272.3,-57.67 276.32,-60.48"/>
</g>
<!-- n4&#45;&gt;n2 -->
<g id="edge3" class="edge">
<title>n4&#45;&gt;n2</title>
<path fill="none" stroke="#64748b" d="M228.82,-87.7C222.08,-78.97 213.81,-68.24 206.49,-58.75"/>
<polygon fill="#64748b" stroke="#64748b" points="208.5,-57.35 202.28,-53.3 204.62,-60.34 208.5,-57.35"/>
</g>
<!-- n5 -->
<g id="node6" class="node">
<title>n5</title>
<g id="a_node6"><a xlink:href="https://github.com/statopia/statlib/blob/main/Statlib/Nonparametric/Vocabulary/FunctionClasses.lean#L82" xlink:title="def · Statlib/Nonparametric/Vocabulary/FunctionClasses.lean:82" target="_blank">
<path fill="#d6e9ff" stroke="#3b82f6" d="M228.63,-196C228.63,-196 157.7,-196 157.7,-196 151.7,-196 145.7,-190 145.7,-184 145.7,-184 145.7,-172 145.7,-172 145.7,-166 151.7,-160 157.7,-160 157.7,-160 228.63,-160 228.63,-160 234.63,-160 240.63,-166 240.63,-172 240.63,-172 240.63,-184 240.63,-184 240.63,-190 234.63,-196 228.63,-196"/>
<text xml:space="preserve" text-anchor="middle" x="193.16" y="-175" font-family="Helvetica,sans-Serif" font-size="10.00">holderSmoothBall</text>
</a>
</g>
</g>
<!-- n5&#45;&gt;n1 -->
<g id="edge4" class="edge">
<title>n5&#45;&gt;n1</title>
<path fill="none" stroke="#64748b" d="M238.8,-159.65C254.75,-151.29 271.15,-139.61 281.16,-124 293.19,-105.24 294.89,-79.6 294.05,-60.65"/>
<polygon fill="#64748b" stroke="#64748b" points="296.5,-60.54 293.59,-53.72 291.61,-60.87 296.5,-60.54"/>
</g>
<!-- n5&#45;&gt;n2 -->
<g id="edge6" class="edge">
<title>n5&#45;&gt;n2</title>
<path fill="none" stroke="#64748b" d="M192.55,-159.59C191.68,-134.76 190.07,-89.01 189.06,-60.4"/>
<polygon fill="#64748b" stroke="#64748b" points="191.51,-60.53 188.82,-53.62 186.62,-60.71 191.51,-60.53"/>
</g>
<!-- n5&#45;&gt;n3 -->
<g id="edge5" class="edge">
<title>n5&#45;&gt;n3</title>
<path fill="none" stroke="#64748b" d="M172.89,-159.7C162.35,-150.69 149.32,-139.57 137.95,-129.87"/>
<polygon fill="#64748b" stroke="#64748b" points="139.55,-128.01 132.64,-125.33 136.37,-131.74 139.55,-128.01"/>
</g>
<!-- n5&#45;&gt;n4 -->
<g id="edge7" class="edge">
<title>n5&#45;&gt;n4</title>
<path fill="none" stroke="#64748b" d="M205.28,-159.7C211.33,-151.05 218.75,-140.45 225.35,-131.03"/>
<polygon fill="#64748b" stroke="#64748b" points="227.32,-132.48 229.32,-125.34 223.3,-129.67 227.32,-132.48"/>
</g>
<!-- n6 -->
<g id="node7" class="node">
<title>n6</title>
<g id="a_node7"><a xlink:href="https://github.com/statopia/statlib/blob/main/Statlib/Nonparametric/Vocabulary/Sieve.lean#L27" xlink:title="noncomputable def · Statlib/Nonparametric/Vocabulary/Sieve.lean:27" target="_blank">
<path fill="#d6e9ff" stroke="#3b82f6" d="M347.68,-196C347.68,-196 290.65,-196 290.65,-196 284.65,-196 278.65,-190 278.65,-184 278.65,-184 278.65,-172 278.65,-172 278.65,-166 284.65,-160 290.65,-160 290.65,-160 347.68,-160 347.68,-160 353.68,-160 359.68,-166 359.68,-172 359.68,-172 359.68,-184 359.68,-184 359.68,-190 353.68,-196 347.68,-196"/>
<text xml:space="preserve" text-anchor="middle" x="319.16" y="-175" font-family="Helvetica,sans-Serif" font-size="10.00">seriesFunction</text>
</a>
</g>
</g>
<!-- n7 -->
<g id="node8" class="node">
<title>n7</title>
<g id="a_node8"><a xlink:href="https://github.com/statopia/statlib/blob/main/Statlib/Nonparametric/Vocabulary/Spline.lean#L29" xlink:title="def · Statlib/Nonparametric/Vocabulary/Spline.lean:29" target="_blank">
<path fill="#d6e9ff" stroke="#3b82f6" d="M496.7,-196C496.7,-196 389.63,-196 389.63,-196 383.63,-196 377.63,-190 377.63,-184 377.63,-184 377.63,-172 377.63,-172 377.63,-166 383.63,-160 389.63,-160 389.63,-160 496.7,-160 496.7,-160 502.7,-160 508.7,-166 508.7,-172 508.7,-172 508.7,-184 508.7,-184 508.7,-190 502.7,-196 496.7,-196"/>
<text xml:space="preserve" text-anchor="middle" x="443.16" y="-175" font-family="Helvetica,sans-Serif" font-size="10.00">tensorProductSplineSieve</text>
</a>
</g>
</g>
<!-- n7&#45;&gt;n0 -->
<g id="edge8" class="edge">
<title>n7&#45;&gt;n0</title>
<path fill="none" stroke="#64748b" d="M453.55,-159.7C458.68,-151.14 464.97,-140.66 470.58,-131.3"/>
<polygon fill="#64748b" stroke="#64748b" points="472.62,-132.67 474.12,-125.4 468.42,-130.14 472.62,-132.67"/>
</g>
<!-- n8 -->
<g id="node9" class="node">
<title>n8</title>
<g id="a_node9"><a xlink:href="https://github.com/statopia/statlib/blob/main/Statlib/Nonparametric/Approximation/Spline.lean#L31" xlink:title="def · Statlib/Nonparametric/Approximation/Spline.lean:31" target="_blank">
<path fill="#d6e9ff" stroke="#3b82f6" d="M292.5,-268C292.5,-268 59.82,-268 59.82,-268 53.82,-268 47.82,-262 47.82,-256 47.82,-256 47.82,-244 47.82,-244 47.82,-238 53.82,-232 59.82,-232 59.82,-232 292.5,-232 292.5,-232 298.5,-232 304.5,-238 304.5,-244 304.5,-244 304.5,-256 304.5,-256 304.5,-262 298.5,-268 292.5,-268"/>
<text xml:space="preserve" text-anchor="middle" x="176.16" y="-247" font-family="Helvetica,sans-Serif" font-size="10.00">HasTensorProductSplineHolderSmoothProjectionRate</text>
</a>
</g>
</g>
<!-- n8&#45;&gt;n0 -->
<g id="edge9" class="edge">
<title>n8&#45;&gt;n0</title>
<path fill="none" stroke="#64748b" d="M205.89,-231.7C220.16,-222.38 236.81,-209.95 249.16,-196 261.3,-182.3 254.62,-171.11 269.16,-160 308.01,-130.33 361.26,-117.05 405.16,-111.2"/>
<polygon fill="#64748b" stroke="#64748b" points="405.38,-113.64 412.03,-110.34 404.78,-108.78 405.38,-113.64"/>
</g>
<!-- n8&#45;&gt;n5 -->
<g id="edge10" class="edge">
<title>n8&#45;&gt;n5</title>
<path fill="none" stroke="#64748b" d="M180.37,-231.7C182.38,-223.39 184.84,-213.28 187.06,-204.14"/>
<polygon fill="#64748b" stroke="#64748b" points="189.38,-204.96 188.65,-197.58 184.62,-203.8 189.38,-204.96"/>
</g>
<!-- n8&#45;&gt;n6 -->
<g id="edge11" class="edge">
<title>n8&#45;&gt;n6</title>
<path fill="none" stroke="#64748b" d="M211.88,-231.52C231.48,-221.92 255.91,-209.96 276.5,-199.88"/>
<polygon fill="#64748b" stroke="#64748b" points="277.33,-202.2 282.54,-196.93 275.18,-197.8 277.33,-202.2"/>
</g>
<!-- n8&#45;&gt;n7 -->
<g id="edge12" class="edge">
<title>n8&#45;&gt;n7</title>
<path fill="none" stroke="#64748b" d="M242.85,-231.52C281.37,-221.42 329.89,-208.7 369.52,-198.31"/>
<polygon fill="#64748b" stroke="#64748b" points="369.71,-200.79 375.86,-196.64 368.47,-196.05 369.71,-200.79"/>
</g>
<!-- n9 -->
<g id="node10" class="node">
<title>n9</title>
<g id="a_node10"><a xlink:href="https://github.com/statopia/statlib/blob/main/Statlib/Nonparametric/Approximation/Spline.lean#L17" xlink:title="def · Statlib/Nonparametric/Approximation/Spline.lean:17" target="_blank">
<path fill="#d6e9ff" stroke="#3b82f6" d="M565.67,-268C565.67,-268 334.66,-268 334.66,-268 328.66,-268 322.66,-262 322.66,-256 322.66,-256 322.66,-244 322.66,-244 322.66,-238 328.66,-232 334.66,-232 334.66,-232 565.67,-232 565.67,-232 571.67,-232 577.67,-238 577.67,-244 577.67,-244 577.67,-256 577.67,-256 577.67,-262 571.67,-268 565.67,-268"/>
<text xml:space="preserve" text-anchor="middle" x="450.16" y="-247" font-family="Helvetica,sans-Serif" font-size="10.00">HasTensorProductSplineHolderSmoothPointwiseRate</text>
</a>
</g>
</g>
<!-- n9&#45;&gt;n0 -->
<g id="edge13" class="edge">
<title>n9&#45;&gt;n0</title>
<path fill="none" stroke="#64748b" d="M483.88,-231.62C497.12,-222.88 510.87,-210.93 518.16,-196 528.51,-174.82 517,-149.53 504.82,-131.33"/>
<polygon fill="#64748b" stroke="#64748b" points="506.9,-130.03 500.86,-125.72 502.89,-132.85 506.9,-130.03"/>
</g>
<!-- n9&#45;&gt;n5 -->
<g id="edge14" class="edge">
<title>n9&#45;&gt;n5</title>
<path fill="none" stroke="#64748b" d="M385.98,-231.52C343.83,-220.04 289.25,-205.17 248.92,-194.19"/>
<polygon fill="#64748b" stroke="#64748b" points="249.66,-191.85 242.26,-192.37 248.37,-196.58 249.66,-191.85"/>
</g>
<!-- n9&#45;&gt;n6 -->
<g id="edge15" class="edge">
<title>n9&#45;&gt;n6</title>
<path fill="none" stroke="#64748b" d="M417.45,-231.52C399.65,-222.01 377.5,-210.17 358.74,-200.15"/>
<polygon fill="#64748b" stroke="#64748b" points="360.13,-198.11 352.8,-196.97 357.82,-202.43 360.13,-198.11"/>
</g>
<!-- n9&#45;&gt;n7 -->
<g id="edge16" class="edge">
<title>n9&#45;&gt;n7</title>
<path fill="none" stroke="#64748b" d="M448.43,-231.7C447.61,-223.47 446.61,-213.48 445.71,-204.42"/>
<polygon fill="#64748b" stroke="#64748b" points="448.16,-204.33 445.03,-197.61 443.28,-204.82 448.16,-204.33"/>
</g>
<!-- n10 -->
<g id="node11" class="node">
<title>n10</title>
<g id="a_node11"><a xlink:href="https://github.com/statopia/statlib/blob/main/Statlib/Nonparametric/Approximation/Spline.lean#L40" xlink:title="theorem · Statlib/Nonparametric/Approximation/Spline.lean:40" target="_blank">
<path fill="#ffe6a3" stroke="#d4a017" stroke-width="3" d="M585.81,-340C585.81,-340 272.52,-340 272.52,-340 266.52,-340 260.52,-334 260.52,-328 260.52,-328 260.52,-316 260.52,-316 260.52,-310 266.52,-304 272.52,-304 272.52,-304 585.81,-304 585.81,-304 591.81,-304 597.81,-310 597.81,-316 597.81,-316 597.81,-328 597.81,-328 597.81,-334 591.81,-340 585.81,-340"/>
<text xml:space="preserve" text-anchor="middle" x="429.16" y="-319" font-family="Helvetica,sans-Serif" font-size="10.00">hasTensorProductSplineHolderSmoothPointwiseRate_of_projectionRate</text>
</a>
</g>
</g>
<!-- n10&#45;&gt;n0 -->
<g id="edge17" class="edge">
<title>n10&#45;&gt;n0</title>
<path fill="none" stroke="#64748b" d="M542.25,-302.55C559.87,-294.7 575.93,-283.62 587.16,-268 621.57,-220.16 558.75,-160.97 517.32,-129.37"/>
<polygon fill="#64748b" stroke="#64748b" points="518.9,-127.49 511.83,-125.26 515.97,-131.42 518.9,-127.49"/>
</g>
<!-- n10&#45;&gt;n8 -->
<g id="edge18" class="edge">
<title>n10&#45;&gt;n8</title>
<path fill="none" stroke="#64748b" d="M362.36,-302.52C326.84,-292.69 283.16,-280.6 247.04,-270.61"/>
<polygon fill="#64748b" stroke="#64748b" points="247.84,-268.29 240.44,-268.79 246.54,-273.01 247.84,-268.29"/>
</g>
<!-- n10&#45;&gt;n9 -->
<g id="edge19" class="edge">
<title>n10&#45;&gt;n9</title>
<path fill="none" stroke="#64748b" d="M434.68,-302.61C437.11,-294.5 440.01,-284.85 442.63,-276.1"/>
<polygon fill="#64748b" stroke="#64748b" points="444.94,-276.93 444.61,-269.52 440.25,-275.52 444.94,-276.93"/>
</g>
</g>
</svg>
