<?xml version="1.0" encoding="UTF-8" standalone="no"?>
<!DOCTYPE svg PUBLIC "-//W3C//DTD SVG 1.1//EN"
 "http://www.w3.org/Graphics/SVG/1.1/DTD/svg11.dtd">
<!-- Generated by graphviz version 15.0.0 (20260523.1842)
 -->
<!-- Title: hasWaveletHolderSmoothPointwiseRate_of_projectionRate Pages: 1 -->
<svg width="574pt" height="410pt"
 viewBox="0.00 0.00 574.00 410.00" xmlns="http://www.w3.org/2000/svg" xmlns:xlink="http://www.w3.org/1999/xlink">
<g id="graph0" class="graph" transform="scale(1 1) rotate(0) translate(4 406)">
<title>hasWaveletHolderSmoothPointwiseRate_of_projectionRate</title>
<polygon fill="white" stroke="none" points="-4,4 -4,-406 570.16,-406 570.16,4 -4,4"/>
<text xml:space="preserve" text-anchor="middle" x="283.08" y="-385.4" font-family="Helvetica,sans-Serif" font-size="14.00">Proof narrative — hasWaveletHolderSmoothPointwiseRate_of_projectionRate &#160;(11 decls)</text>
<g id="clust1" class="cluster">
<title>cluster_0</title>
<path fill="none" stroke="#cbd5e1" stroke-dasharray="5,2" d="M69.08,-8C69.08,-8 497.08,-8 497.08,-8 503.08,-8 509.08,-14 509.08,-20 509.08,-20 509.08,-357.2 509.08,-357.2 509.08,-363.2 503.08,-369.2 497.08,-369.2 497.08,-369.2 69.08,-369.2 69.08,-369.2 63.08,-369.2 57.08,-363.2 57.08,-357.2 57.08,-357.2 57.08,-20 57.08,-20 57.08,-14 63.08,-8 69.08,-8"/>
<text xml:space="preserve" text-anchor="middle" x="283.08" y="-355.3" font-family="Helvetica,sans-Serif" font-size="11.00">Nonparametric</text>
</g>
<!-- n0 -->
<g id="node1" class="node">
<title>n0</title>
<g id="a_node1"><a xlink:href="https://github.com/statopia/statlib/blob/main/Statlib/Nonparametric/Vocabulary/Wavelet.lean#L14" xlink:title="structure · Statlib/Nonparametric/Vocabulary/Wavelet.lean:14" target="_blank">
<path fill="#e8dcff" stroke="#8b5cf6" d="M445.81,-124C445.81,-124 384.35,-124 384.35,-124 378.35,-124 372.35,-118 372.35,-112 372.35,-112 372.35,-100 372.35,-100 372.35,-94 378.35,-88 384.35,-88 384.35,-88 445.81,-88 445.81,-88 451.81,-88 457.81,-94 457.81,-100 457.81,-100 457.81,-112 457.81,-112 457.81,-118 451.81,-124 445.81,-124"/>
<text xml:space="preserve" text-anchor="middle" x="415.08" y="-103" font-family="Helvetica,sans-Serif" font-size="10.00">WaveletSystem</text>
</a>
</g>
</g>
<!-- n1 -->
<g id="node2" class="node">
<title>n1</title>
<g id="a_node2"><a xlink:href="https://github.com/statopia/statlib/blob/main/Statlib/Nonparametric/Vocabulary/FunctionClasses.lean#L16" xlink:title="abbrev · Statlib/Nonparametric/Vocabulary/FunctionClasses.lean:16" target="_blank">
<path fill="#d6e9ff" stroke="#3b82f6" d="M335.76,-52C335.76,-52 280.4,-52 280.4,-52 274.4,-52 268.4,-46 268.4,-40 268.4,-40 268.4,-28 268.4,-28 268.4,-22 274.4,-16 280.4,-16 280.4,-16 335.76,-16 335.76,-16 341.76,-16 347.76,-22 347.76,-28 347.76,-28 347.76,-40 347.76,-40 347.76,-46 341.76,-52 335.76,-52"/>
<text xml:space="preserve" text-anchor="middle" x="308.08" y="-31" font-family="Helvetica,sans-Serif" font-size="10.00">FunctionClass</text>
</a>
</g>
</g>
<!-- n2 -->
<g id="node3" class="node">
<title>n2</title>
<g id="a_node3"><a xlink:href="https://github.com/statopia/statlib/blob/main/Statlib/Nonparametric/Vocabulary/FunctionClasses.lean#L44" xlink:title="def · Statlib/Nonparametric/Vocabulary/FunctionClasses.lean:44" target="_blank">
<path fill="#d6e9ff" stroke="#3b82f6" d="M238.88,-52C238.88,-52 171.29,-52 171.29,-52 165.29,-52 159.29,-46 159.29,-40 159.29,-40 159.29,-28 159.29,-28 159.29,-22 165.29,-16 171.29,-16 171.29,-16 238.88,-16 238.88,-16 244.88,-16 250.88,-22 250.88,-28 250.88,-28 250.88,-40 250.88,-40 250.88,-46 244.88,-52 238.88,-52"/>
<text xml:space="preserve" text-anchor="middle" x="205.08" y="-31" font-family="Helvetica,sans-Serif" font-size="10.00">IsHolderFunction</text>
</a>
</g>
</g>
<!-- n3 -->
<g id="node4" class="node">
<title>n3</title>
<g id="a_node4"><a xlink:href="https://github.com/statopia/statlib/blob/main/Statlib/Nonparametric/Vocabulary/FunctionClasses.lean#L69" xlink:title="def · Statlib/Nonparametric/Vocabulary/FunctionClasses.lean:69" target="_blank">
<path fill="#d6e9ff" stroke="#3b82f6" d="M179.11,-124C179.11,-124 77.05,-124 77.05,-124 71.05,-124 65.05,-118 65.05,-112 65.05,-112 65.05,-100 65.05,-100 65.05,-94 71.05,-88 77.05,-88 77.05,-88 179.11,-88 179.11,-88 185.11,-88 191.11,-94 191.11,-100 191.11,-100 191.11,-112 191.11,-112 191.11,-118 185.11,-124 179.11,-124"/>
<text xml:space="preserve" text-anchor="middle" x="128.08" y="-103" font-family="Helvetica,sans-Serif" font-size="10.00">IsHolderSmoothFunction</text>
</a>
</g>
</g>
<!-- n3&#45;&gt;n2 -->
<g id="edge1" class="edge">
<title>n3&#45;&gt;n2</title>
<path fill="none" stroke="#64748b" d="M147.12,-87.7C157.02,-78.69 169.25,-67.57 179.93,-57.87"/>
<polygon fill="#64748b" stroke="#64748b" points="181.35,-59.89 184.88,-53.37 178.05,-56.26 181.35,-59.89"/>
</g>
<!-- n4 -->
<g id="node5" class="node">
<title>n4</title>
<g id="a_node5"><a xlink:href="https://github.com/statopia/statlib/blob/main/Statlib/Nonparametric/Vocabulary/FunctionClasses.lean#L56" xlink:title="def · Statlib/Nonparametric/Vocabulary/FunctionClasses.lean:56" target="_blank">
<path fill="#d6e9ff" stroke="#3b82f6" d="M277.32,-124C277.32,-124 240.85,-124 240.85,-124 234.85,-124 228.85,-118 228.85,-112 228.85,-112 228.85,-100 228.85,-100 228.85,-94 234.85,-88 240.85,-88 240.85,-88 277.32,-88 277.32,-88 283.32,-88 289.32,-94 289.32,-100 289.32,-100 289.32,-112 289.32,-112 289.32,-118 283.32,-124 277.32,-124"/>
<text xml:space="preserve" text-anchor="middle" x="259.08" y="-103" font-family="Helvetica,sans-Serif" font-size="10.00">holderBall</text>
</a>
</g>
</g>
<!-- n4&#45;&gt;n1 -->
<g id="edge2" class="edge">
<title>n4&#45;&gt;n1</title>
<path fill="none" stroke="#64748b" d="M271.19,-87.7C277.25,-79.05 284.67,-68.45 291.26,-59.03"/>
<polygon fill="#64748b" stroke="#64748b" points="293.23,-60.48 295.24,-53.34 289.22,-57.67 293.23,-60.48"/>
</g>
<!-- n4&#45;&gt;n2 -->
<g id="edge3" class="edge">
<title>n4&#45;&gt;n2</title>
<path fill="none" stroke="#64748b" d="M245.73,-87.7C239,-78.97 230.72,-68.24 223.4,-58.75"/>
<polygon fill="#64748b" stroke="#64748b" points="225.42,-57.35 219.2,-53.3 221.54,-60.34 225.42,-57.35"/>
</g>
<!-- n5 -->
<g id="node6" class="node">
<title>n5</title>
<g id="a_node6"><a xlink:href="https://github.com/statopia/statlib/blob/main/Statlib/Nonparametric/Vocabulary/FunctionClasses.lean#L82" xlink:title="def · Statlib/Nonparametric/Vocabulary/FunctionClasses.lean:82" target="_blank">
<path fill="#d6e9ff" stroke="#3b82f6" d="M200.55,-196C200.55,-196 129.61,-196 129.61,-196 123.61,-196 117.61,-190 117.61,-184 117.61,-184 117.61,-172 117.61,-172 117.61,-166 123.61,-160 129.61,-160 129.61,-160 200.55,-160 200.55,-160 206.55,-160 212.55,-166 212.55,-172 212.55,-172 212.55,-184 212.55,-184 212.55,-190 206.55,-196 200.55,-196"/>
<text xml:space="preserve" text-anchor="middle" x="165.08" y="-175" font-family="Helvetica,sans-Serif" font-size="10.00">holderSmoothBall</text>
</a>
</g>
</g>
<!-- n5&#45;&gt;n1 -->
<g id="edge4" class="edge">
<title>n5&#45;&gt;n1</title>
<path fill="none" stroke="#64748b" d="M212.94,-163.61C246.5,-153.22 287.23,-138.23 298.08,-124 311.74,-106.1 313.15,-79.97 311.79,-60.65"/>
<polygon fill="#64748b" stroke="#64748b" points="314.24,-60.55 311.15,-53.81 309.36,-61.01 314.24,-60.55"/>
</g>
<!-- n5&#45;&gt;n2 -->
<g id="edge6" class="edge">
<title>n5&#45;&gt;n2</title>
<path fill="none" stroke="#64748b" d="M179.97,-159.61C187.44,-149.82 195.78,-136.98 200.08,-124 206.9,-103.42 207.75,-78.72 207.13,-60.56"/>
<polygon fill="#64748b" stroke="#64748b" points="209.58,-60.61 206.8,-53.73 204.69,-60.84 209.58,-60.61"/>
</g>
<!-- n5&#45;&gt;n3 -->
<g id="edge5" class="edge">
<title>n5&#45;&gt;n3</title>
<path fill="none" stroke="#64748b" d="M155.94,-159.7C151.45,-151.22 145.98,-140.86 141.08,-131.58"/>
<polygon fill="#64748b" stroke="#64748b" points="143.27,-130.49 137.83,-125.44 138.93,-132.78 143.27,-130.49"/>
</g>
<!-- n5&#45;&gt;n4 -->
<g id="edge7" class="edge">
<title>n5&#45;&gt;n4</title>
<path fill="none" stroke="#64748b" d="M188.32,-159.7C200.63,-150.53 215.9,-139.16 229.1,-129.33"/>
<polygon fill="#64748b" stroke="#64748b" points="230.42,-131.4 234.57,-125.25 227.5,-127.47 230.42,-131.4"/>
</g>
<!-- n6 -->
<g id="node7" class="node">
<title>n6</title>
<g id="a_node7"><a xlink:href="https://github.com/statopia/statlib/blob/main/Statlib/Nonparametric/Vocabulary/Sieve.lean#L27" xlink:title="noncomputable def · Statlib/Nonparametric/Vocabulary/Sieve.lean:27" target="_blank">
<path fill="#d6e9ff" stroke="#3b82f6" d="M319.6,-196C319.6,-196 262.57,-196 262.57,-196 256.57,-196 250.57,-190 250.57,-184 250.57,-184 250.57,-172 250.57,-172 250.57,-166 256.57,-160 262.57,-160 262.57,-160 319.6,-160 319.6,-160 325.6,-160 331.6,-166 331.6,-172 331.6,-172 331.6,-184 331.6,-184 331.6,-190 325.6,-196 319.6,-196"/>
<text xml:space="preserve" text-anchor="middle" x="291.08" y="-175" font-family="Helvetica,sans-Serif" font-size="10.00">seriesFunction</text>
</a>
</g>
</g>
<!-- n7 -->
<g id="node8" class="node">
<title>n7</title>
<g id="a_node8"><a xlink:href="https://github.com/statopia/statlib/blob/main/Statlib/Nonparametric/Vocabulary/Wavelet.lean#L20" xlink:title="def · Statlib/Nonparametric/Vocabulary/Wavelet.lean:20" target="_blank">
<path fill="#d6e9ff" stroke="#3b82f6" d="M412.54,-196C412.54,-196 361.62,-196 361.62,-196 355.62,-196 349.62,-190 349.62,-184 349.62,-184 349.62,-172 349.62,-172 349.62,-166 355.62,-160 361.62,-160 361.62,-160 412.54,-160 412.54,-160 418.54,-160 424.54,-166 424.54,-172 424.54,-172 424.54,-184 424.54,-184 424.54,-190 418.54,-196 412.54,-196"/>
<text xml:space="preserve" text-anchor="middle" x="387.08" y="-175" font-family="Helvetica,sans-Serif" font-size="10.00">waveletSieve</text>
</a>
</g>
</g>
<!-- n7&#45;&gt;n0 -->
<g id="edge8" class="edge">
<title>n7&#45;&gt;n0</title>
<path fill="none" stroke="#64748b" d="M394,-159.7C397.36,-151.3 401.45,-141.07 405.14,-131.86"/>
<polygon fill="#64748b" stroke="#64748b" points="407.35,-132.92 407.68,-125.51 402.8,-131.1 407.35,-132.92"/>
</g>
<!-- n8 -->
<g id="node9" class="node">
<title>n8</title>
<g id="a_node9"><a xlink:href="https://github.com/statopia/statlib/blob/main/Statlib/Nonparametric/Approximation/Wavelet.lean#L31" xlink:title="def · Statlib/Nonparametric/Approximation/Wavelet.lean:31" target="_blank">
<path fill="#d6e9ff" stroke="#3b82f6" d="M252.79,-268C252.79,-268 77.37,-268 77.37,-268 71.37,-268 65.37,-262 65.37,-256 65.37,-256 65.37,-244 65.37,-244 65.37,-238 71.37,-232 77.37,-232 77.37,-232 252.79,-232 252.79,-232 258.79,-232 264.79,-238 264.79,-244 264.79,-244 264.79,-256 264.79,-256 264.79,-262 258.79,-268 252.79,-268"/>
<text xml:space="preserve" text-anchor="middle" x="165.08" y="-247" font-family="Helvetica,sans-Serif" font-size="10.00">HasWaveletHolderSmoothProjectionRate</text>
</a>
</g>
</g>
<!-- n8&#45;&gt;n0 -->
<g id="edge9" class="edge">
<title>n8&#45;&gt;n0</title>
<path fill="none" stroke="#64748b" d="M186.28,-231.72C197.45,-221.96 210.9,-209.11 221.08,-196 232.3,-181.54 226.85,-171.5 241.08,-160 276.13,-131.67 326.17,-118.46 363.6,-112.31"/>
<polygon fill="#64748b" stroke="#64748b" points="363.83,-114.75 370.37,-111.26 363.08,-109.91 363.83,-114.75"/>
</g>
<!-- n8&#45;&gt;n5 -->
<g id="edge10" class="edge">
<title>n8&#45;&gt;n5</title>
<path fill="none" stroke="#64748b" d="M165.08,-231.7C165.08,-223.47 165.08,-213.48 165.08,-204.42"/>
<polygon fill="#64748b" stroke="#64748b" points="167.53,-204.62 165.08,-197.62 162.63,-204.62 167.53,-204.62"/>
</g>
<!-- n8&#45;&gt;n6 -->
<g id="edge11" class="edge">
<title>n8&#45;&gt;n6</title>
<path fill="none" stroke="#64748b" d="M196.55,-231.52C213.67,-222.01 234.97,-210.17 253.02,-200.15"/>
<polygon fill="#64748b" stroke="#64748b" points="253.76,-202.54 258.69,-197 251.38,-198.25 253.76,-202.54"/>
</g>
<!-- n8&#45;&gt;n7 -->
<g id="edge12" class="edge">
<title>n8&#45;&gt;n7</title>
<path fill="none" stroke="#64748b" d="M226.46,-231.52C260.41,-221.6 303.26,-208.67 341.08,-196 341.16,-195.97 341.25,-195.94 341.33,-195.92"/>
<polygon fill="#64748b" stroke="#64748b" points="341.99,-198.28 347.81,-193.69 340.39,-193.65 341.99,-198.28"/>
</g>
<!-- n9 -->
<g id="node10" class="node">
<title>n9</title>
<g id="a_node10"><a xlink:href="https://github.com/statopia/statlib/blob/main/Statlib/Nonparametric/Approximation/Wavelet.lean#L17" xlink:title="def · Statlib/Nonparametric/Approximation/Wavelet.lean:17" target="_blank">
<path fill="#d6e9ff" stroke="#3b82f6" d="M468.96,-268C468.96,-268 295.21,-268 295.21,-268 289.21,-268 283.21,-262 283.21,-256 283.21,-256 283.21,-244 283.21,-244 283.21,-238 289.21,-232 295.21,-232 295.21,-232 468.96,-232 468.96,-232 474.96,-232 480.96,-238 480.96,-244 480.96,-244 480.96,-256 480.96,-256 480.96,-262 474.96,-268 468.96,-268"/>
<text xml:space="preserve" text-anchor="middle" x="382.08" y="-247" font-family="Helvetica,sans-Serif" font-size="10.00">HasWaveletHolderSmoothPointwiseRate</text>
</a>
</g>
</g>
<!-- n9&#45;&gt;n0 -->
<g id="edge13" class="edge">
<title>n9&#45;&gt;n0</title>
<path fill="none" stroke="#64748b" d="M405.65,-231.58C416.17,-222.33 427.45,-209.98 433.08,-196 441.49,-175.15 434.94,-149.9 427.49,-131.64"/>
<polygon fill="#64748b" stroke="#64748b" points="429.93,-131.1 424.89,-125.65 425.43,-133.05 429.93,-131.1"/>
</g>
<!-- n9&#45;&gt;n5 -->
<g id="edge14" class="edge">
<title>n9&#45;&gt;n5</title>
<path fill="none" stroke="#64748b" d="M327.88,-231.52C295.11,-220.94 253.43,-207.5 220.45,-196.86"/>
<polygon fill="#64748b" stroke="#64748b" points="221.55,-194.64 214.13,-194.82 220.04,-199.3 221.55,-194.64"/>
</g>
<!-- n9&#45;&gt;n6 -->
<g id="edge15" class="edge">
<title>n9&#45;&gt;n6</title>
<path fill="none" stroke="#64748b" d="M359.59,-231.7C347.67,-222.53 332.88,-211.16 320.11,-201.33"/>
<polygon fill="#64748b" stroke="#64748b" points="321.87,-199.6 314.83,-197.27 318.89,-203.48 321.87,-199.6"/>
</g>
<!-- n9&#45;&gt;n7 -->
<g id="edge16" class="edge">
<title>n9&#45;&gt;n7</title>
<path fill="none" stroke="#64748b" d="M383.32,-231.7C383.9,-223.47 384.62,-213.48 385.27,-204.42"/>
<polygon fill="#64748b" stroke="#64748b" points="387.7,-204.77 385.75,-197.61 382.81,-204.42 387.7,-204.77"/>
</g>
<!-- n10 -->
<g id="node11" class="node">
<title>n10</title>
<g id="a_node11"><a xlink:href="https://github.com/statopia/statlib/blob/main/Statlib/Nonparametric/Approximation/Wavelet.lean#L42" xlink:title="theorem · Statlib/Nonparametric/Approximation/Wavelet.lean:42" target="_blank">
<path fill="#ffe6a3" stroke="#d4a017" stroke-width="3" d="M489.1,-340C489.1,-340 233.06,-340 233.06,-340 227.06,-340 221.06,-334 221.06,-328 221.06,-328 221.06,-316 221.06,-316 221.06,-310 227.06,-304 233.06,-304 233.06,-304 489.1,-304 489.1,-304 495.1,-304 501.1,-310 501.1,-316 501.1,-316 501.1,-328 501.1,-328 501.1,-334 495.1,-340 489.1,-340"/>
<text xml:space="preserve" text-anchor="middle" x="361.08" y="-319" font-family="Helvetica,sans-Serif" font-size="10.00">hasWaveletHolderSmoothPointwiseRate_of_projectionRate</text>
</a>
</g>
</g>
<!-- n10&#45;&gt;n0 -->
<g id="edge17" class="edge">
<title>n10&#45;&gt;n0</title>
<path fill="none" stroke="#64748b" d="M446.2,-302.52C463.48,-294.74 479.57,-283.69 490.08,-268 520.63,-222.43 472.48,-162.43 440.28,-130.07"/>
<polygon fill="#64748b" stroke="#64748b" points="442.26,-128.59 435.55,-125.42 438.82,-132.08 442.26,-128.59"/>
</g>
<!-- n10&#45;&gt;n8 -->
<g id="edge18" class="edge">
<title>n10&#45;&gt;n8</title>
<path fill="none" stroke="#64748b" d="M309.33,-302.52C282.39,-292.89 249.39,-281.11 221.76,-271.24"/>
<polygon fill="#64748b" stroke="#64748b" points="222.59,-268.94 215.18,-268.89 220.94,-273.55 222.59,-268.94"/>
</g>
<!-- n10&#45;&gt;n9 -->
<g id="edge19" class="edge">
<title>n10&#45;&gt;n9</title>
<path fill="none" stroke="#64748b" d="M366.6,-302.61C369.03,-294.5 371.93,-284.85 374.55,-276.1"/>
<polygon fill="#64748b" stroke="#64748b" points="376.86,-276.93 376.53,-269.52 372.17,-275.52 376.86,-276.93"/>
</g>
</g>
</svg>
