<?xml version="1.0" encoding="UTF-8" standalone="no"?>
<!DOCTYPE svg PUBLIC "-//W3C//DTD SVG 1.1//EN"
 "http://www.w3.org/Graphics/SVG/1.1/DTD/svg11.dtd">
<!-- Generated by graphviz version 15.0.0 (20260523.1842)
 -->
<!-- Title: holderBall_selectorIndicator_sieveApproximationError_rate_of_cover Pages: 1 -->
<svg width="1232pt" height="914pt"
 viewBox="0.00 0.00 1232.00 914.00" xmlns="http://www.w3.org/2000/svg" xmlns:xlink="http://www.w3.org/1999/xlink">
<g id="graph0" class="graph" transform="scale(1 1) rotate(0) translate(4 910)">
<title>holderBall_selectorIndicator_sieveApproximationError_rate_of_cover</title>
<polygon fill="white" stroke="none" points="-4,4 -4,-910 1228,-910 1228,4 -4,4"/>
<text xml:space="preserve" text-anchor="middle" x="612" y="-889.4" font-family="Helvetica,sans-Serif" font-size="14.00">Proof narrative — holderBall_selectorIndicator_sieveApproximationError_rate_of_cover &#160;(24 decls)</text>
<g id="clust1" class="cluster">
<title>cluster_0</title>
<path fill="none" stroke="#cbd5e1" stroke-dasharray="5,2" d="M20,-8C20,-8 1204,-8 1204,-8 1210,-8 1216,-14 1216,-20 1216,-20 1216,-861.2 1216,-861.2 1216,-867.2 1210,-873.2 1204,-873.2 1204,-873.2 20,-873.2 20,-873.2 14,-873.2 8,-867.2 8,-861.2 8,-861.2 8,-20 8,-20 8,-14 14,-8 20,-8"/>
<text xml:space="preserve" text-anchor="middle" x="612" y="-859.3" font-family="Helvetica,sans-Serif" font-size="11.00">Nonparametric</text>
</g>
<!-- n0 -->
<g id="node1" class="node">
<title>n0</title>
<g id="a_node1"><a xlink:href="https://github.com/statopia/statlib/blob/main/Statlib/Nonparametric/Vocabulary/FunctionClasses.lean#L16" xlink:title="abbrev · Statlib/Nonparametric/Vocabulary/FunctionClasses.lean:16" target="_blank">
<path fill="#d6e9ff" stroke="#3b82f6" d="M1155.68,-484C1155.68,-484 1100.32,-484 1100.32,-484 1094.32,-484 1088.32,-478 1088.32,-472 1088.32,-472 1088.32,-460 1088.32,-460 1088.32,-454 1094.32,-448 1100.32,-448 1100.32,-448 1155.68,-448 1155.68,-448 1161.68,-448 1167.68,-454 1167.68,-460 1167.68,-460 1167.68,-472 1167.68,-472 1167.68,-478 1161.68,-484 1155.68,-484"/>
<text xml:space="preserve" text-anchor="middle" x="1128" y="-463" font-family="Helvetica,sans-Serif" font-size="10.00">FunctionClass</text>
</a>
</g>
</g>
<!-- n1 -->
<g id="node2" class="node">
<title>n1</title>
<g id="a_node2"><a xlink:href="https://github.com/statopia/statlib/blob/main/Statlib/Nonparametric/Vocabulary/FunctionClasses.lean#L44" xlink:title="def · Statlib/Nonparametric/Vocabulary/FunctionClasses.lean:44" target="_blank">
<path fill="#d6e9ff" stroke="#3b82f6" d="M1037.8,-484C1037.8,-484 970.2,-484 970.2,-484 964.2,-484 958.2,-478 958.2,-472 958.2,-472 958.2,-460 958.2,-460 958.2,-454 964.2,-448 970.2,-448 970.2,-448 1037.8,-448 1037.8,-448 1043.8,-448 1049.8,-454 1049.8,-460 1049.8,-460 1049.8,-472 1049.8,-472 1049.8,-478 1043.8,-484 1037.8,-484"/>
<text xml:space="preserve" text-anchor="middle" x="1004" y="-463" font-family="Helvetica,sans-Serif" font-size="10.00">IsHolderFunction</text>
</a>
</g>
</g>
<!-- n2 -->
<g id="node3" class="node">
<title>n2</title>
<g id="a_node3"><a xlink:href="https://github.com/statopia/statlib/blob/main/Statlib/Nonparametric/Vocabulary/FunctionClasses.lean#L56" xlink:title="def · Statlib/Nonparametric/Vocabulary/FunctionClasses.lean:56" target="_blank">
<path fill="#d6e9ff" stroke="#3b82f6" d="M1136.24,-556C1136.24,-556 1099.76,-556 1099.76,-556 1093.76,-556 1087.76,-550 1087.76,-544 1087.76,-544 1087.76,-532 1087.76,-532 1087.76,-526 1093.76,-520 1099.76,-520 1099.76,-520 1136.24,-520 1136.24,-520 1142.24,-520 1148.24,-526 1148.24,-532 1148.24,-532 1148.24,-544 1148.24,-544 1148.24,-550 1142.24,-556 1136.24,-556"/>
<text xml:space="preserve" text-anchor="middle" x="1118" y="-535" font-family="Helvetica,sans-Serif" font-size="10.00">holderBall</text>
</a>
</g>
</g>
<!-- n2&#45;&gt;n0 -->
<g id="edge1" class="edge">
<title>n2&#45;&gt;n0</title>
<path fill="none" stroke="#64748b" d="M1120.47,-519.7C1121.65,-511.47 1123.07,-501.48 1124.37,-492.42"/>
<polygon fill="#64748b" stroke="#64748b" points="1126.78,-492.88 1125.34,-485.6 1121.93,-492.19 1126.78,-492.88"/>
</g>
<!-- n2&#45;&gt;n1 -->
<g id="edge2" class="edge">
<title>n2&#45;&gt;n1</title>
<path fill="none" stroke="#64748b" d="M1089.53,-519.52C1074.31,-510.18 1055.45,-498.59 1039.31,-488.68"/>
<polygon fill="#64748b" stroke="#64748b" points="1040.65,-486.63 1033.4,-485.05 1038.08,-490.8 1040.65,-486.63"/>
</g>
<!-- n3 -->
<g id="node4" class="node">
<title>n3</title>
<g id="a_node4"><a xlink:href="https://github.com/statopia/statlib/blob/main/Statlib/Nonparametric/Vocabulary/Risk.lean#L60" xlink:title="noncomputable def · Statlib/Nonparametric/Vocabulary/Risk.lean:60" target="_blank">
<path fill="#d6e9ff" stroke="#3b82f6" d="M451.25,-196C451.25,-196 354.75,-196 354.75,-196 348.75,-196 342.75,-190 342.75,-184 342.75,-184 342.75,-172 342.75,-172 342.75,-166 348.75,-160 354.75,-160 354.75,-160 451.25,-160 451.25,-160 457.25,-160 463.25,-166 463.25,-172 463.25,-172 463.25,-184 463.25,-184 463.25,-190 457.25,-196 451.25,-196"/>
<text xml:space="preserve" text-anchor="middle" x="403" y="-175" font-family="Helvetica,sans-Serif" font-size="10.00">integratedSquaredError</text>
</a>
</g>
</g>
<!-- n4 -->
<g id="node5" class="node">
<title>n4</title>
<g id="a_node5"><a xlink:href="https://github.com/statopia/statlib/blob/main/Statlib/Nonparametric/Vocabulary/Sieve.lean#L27" xlink:title="noncomputable def · Statlib/Nonparametric/Vocabulary/Sieve.lean:27" target="_blank">
<path fill="#d6e9ff" stroke="#3b82f6" d="M689.51,-196C689.51,-196 632.49,-196 632.49,-196 626.49,-196 620.49,-190 620.49,-184 620.49,-184 620.49,-172 620.49,-172 620.49,-166 626.49,-160 632.49,-160 632.49,-160 689.51,-160 689.51,-160 695.51,-160 701.51,-166 701.51,-172 701.51,-172 701.51,-184 701.51,-184 701.51,-190 695.51,-196 689.51,-196"/>
<text xml:space="preserve" text-anchor="middle" x="661" y="-175" font-family="Helvetica,sans-Serif" font-size="10.00">seriesFunction</text>
</a>
</g>
</g>
<!-- n5 -->
<g id="node6" class="node">
<title>n5</title>
<g id="a_node6"><a xlink:href="https://github.com/statopia/statlib/blob/main/Statlib/Nonparametric/Vocabulary/Sieve.lean#L42" xlink:title="noncomputable def · Statlib/Nonparametric/Vocabulary/Sieve.lean:42" target="_blank">
<path fill="#d6e9ff" stroke="#3b82f6" d="M371.74,-268C371.74,-268 270.26,-268 270.26,-268 264.26,-268 258.26,-262 258.26,-256 258.26,-256 258.26,-244 258.26,-244 258.26,-238 264.26,-232 270.26,-232 270.26,-232 371.74,-232 371.74,-232 377.74,-232 383.74,-238 383.74,-244 383.74,-244 383.74,-256 383.74,-256 383.74,-262 377.74,-268 371.74,-268"/>
<text xml:space="preserve" text-anchor="middle" x="321" y="-247" font-family="Helvetica,sans-Serif" font-size="10.00">sieveApproximationError</text>
</a>
</g>
</g>
<!-- n5&#45;&gt;n3 -->
<g id="edge3" class="edge">
<title>n5&#45;&gt;n3</title>
<path fill="none" stroke="#64748b" d="M341.27,-231.7C351.82,-222.69 364.84,-211.57 376.21,-201.87"/>
<polygon fill="#64748b" stroke="#64748b" points="377.79,-203.74 381.53,-197.33 374.61,-200.01 377.79,-203.74"/>
</g>
<!-- n5&#45;&gt;n4 -->
<g id="edge4" class="edge">
<title>n5&#45;&gt;n4</title>
<path fill="none" stroke="#64748b" d="M384.15,-236C450,-222.44 551.81,-201.48 611.89,-189.11"/>
<polygon fill="#64748b" stroke="#64748b" points="612.23,-191.54 618.6,-187.73 611.25,-186.74 612.23,-191.54"/>
</g>
<!-- n6 -->
<g id="node7" class="node">
<title>n6</title>
<g id="a_node7"><a xlink:href="https://github.com/statopia/statlib/blob/main/Statlib/Nonparametric/Approximation/Sieve.lean#L401" xlink:title="def · Statlib/Nonparametric/Approximation/Sieve.lean:401" target="_blank">
<path fill="#d6e9ff" stroke="#3b82f6" d="M984.19,-412C984.19,-412 893.81,-412 893.81,-412 887.81,-412 881.81,-406 881.81,-400 881.81,-400 881.81,-388 881.81,-388 881.81,-382 887.81,-376 893.81,-376 893.81,-376 984.19,-376 984.19,-376 990.19,-376 996.19,-382 996.19,-388 996.19,-388 996.19,-400 996.19,-400 996.19,-406 990.19,-412 984.19,-412"/>
<text xml:space="preserve" text-anchor="middle" x="939" y="-391" font-family="Helvetica,sans-Serif" font-size="10.00">selectorIndicatorSieve</text>
</a>
</g>
</g>
<!-- n7 -->
<g id="node8" class="node">
<title>n7</title>
<g id="a_node8"><a xlink:href="https://github.com/statopia/statlib/blob/main/Statlib/Nonparametric/Approximation/Metric.lean#L10" xlink:title="theorem · Statlib/Nonparametric/Approximation/Metric.lean:10" target="_blank">
<path fill="#ffe6a3" stroke="#d4a017" d="M292.19,-340C292.19,-340 87.81,-340 87.81,-340 81.81,-340 75.81,-334 75.81,-328 75.81,-328 75.81,-316 75.81,-316 75.81,-310 81.81,-304 87.81,-304 87.81,-304 292.19,-304 292.19,-304 298.19,-304 304.19,-310 304.19,-316 304.19,-316 304.19,-328 304.19,-328 304.19,-334 298.19,-340 292.19,-340"/>
<text xml:space="preserve" text-anchor="middle" x="190" y="-319" font-family="Helvetica,sans-Serif" font-size="10.00">integratedSquaredError_le_of_pointwise_bound</text>
</a>
</g>
</g>
<!-- n7&#45;&gt;n3 -->
<g id="edge5" class="edge">
<title>n7&#45;&gt;n3</title>
<path fill="none" stroke="#64748b" d="M197.22,-303.79C206.44,-283.82 224.22,-251.17 249,-232 273.74,-212.87 305.84,-200.37 334.33,-192.35"/>
<polygon fill="#64748b" stroke="#64748b" points="334.69,-194.79 340.81,-190.6 333.41,-190.06 334.69,-194.79"/>
</g>
<!-- n8 -->
<g id="node9" class="node">
<title>n8</title>
<g id="a_node9"><a xlink:href="https://github.com/statopia/statlib/blob/main/Statlib/Nonparametric/Approximation/Sieve.lean#L107" xlink:title="theorem · Statlib/Nonparametric/Approximation/Sieve.lean:107" target="_blank">
<path fill="#ffe6a3" stroke="#d4a017" d="M618.16,-340C618.16,-340 433.84,-340 433.84,-340 427.84,-340 421.84,-334 421.84,-328 421.84,-328 421.84,-316 421.84,-316 421.84,-310 427.84,-304 433.84,-304 433.84,-304 618.16,-304 618.16,-304 624.16,-304 630.16,-310 630.16,-316 630.16,-316 630.16,-328 630.16,-328 630.16,-334 624.16,-340 618.16,-340"/>
<text xml:space="preserve" text-anchor="middle" x="526" y="-319" font-family="Helvetica,sans-Serif" font-size="10.00">sieveApproximationError_le_of_coefficients</text>
</a>
</g>
</g>
<!-- n8&#45;&gt;n3 -->
<g id="edge6" class="edge">
<title>n8&#45;&gt;n3</title>
<path fill="none" stroke="#64748b" d="M485.14,-303.57C468.69,-294.88 450.66,-282.98 438,-268 422.5,-249.66 413.35,-223.65 408.31,-204.47"/>
<polygon fill="#64748b" stroke="#64748b" points="410.75,-204.14 406.7,-197.93 405.99,-205.31 410.75,-204.14"/>
</g>
<!-- n8&#45;&gt;n4 -->
<g id="edge7" class="edge">
<title>n8&#45;&gt;n4</title>
<path fill="none" stroke="#64748b" d="M492.28,-303.62C479.04,-294.88 465.29,-282.93 458,-268 450.98,-253.62 448.22,-244.66 458,-232 476.65,-207.85 557.83,-192.61 611.71,-184.96"/>
<polygon fill="#64748b" stroke="#64748b" points="612.02,-187.39 618.61,-184.01 611.34,-182.54 612.02,-187.39"/>
</g>
<!-- n8&#45;&gt;n5 -->
<g id="edge8" class="edge">
<title>n8&#45;&gt;n5</title>
<path fill="none" stroke="#64748b" d="M474.8,-303.52C445.95,-293.67 409.8,-281.32 379.79,-271.07"/>
<polygon fill="#64748b" stroke="#64748b" points="380.75,-268.81 373.34,-268.87 379.17,-273.45 380.75,-268.81"/>
</g>
<!-- n9 -->
<g id="node10" class="node">
<title>n9</title>
<g id="a_node10"><a xlink:href="https://github.com/statopia/statlib/blob/main/Statlib/Nonparametric/Approximation/Sieve.lean#L248" xlink:title="theorem · Statlib/Nonparametric/Approximation/Sieve.lean:248" target="_blank">
<path fill="#ffe6a3" stroke="#d4a017" d="M635.79,-412C635.79,-412 394.21,-412 394.21,-412 388.21,-412 382.21,-406 382.21,-400 382.21,-400 382.21,-388 382.21,-388 382.21,-382 388.21,-376 394.21,-376 394.21,-376 635.79,-376 635.79,-376 641.79,-376 647.79,-382 647.79,-388 647.79,-388 647.79,-400 647.79,-400 647.79,-406 641.79,-412 635.79,-412"/>
<text xml:space="preserve" text-anchor="middle" x="515" y="-391" font-family="Helvetica,sans-Serif" font-size="10.00">sieveApproximationError_le_of_pointwise_series_bound</text>
</a>
</g>
</g>
<!-- n9&#45;&gt;n3 -->
<g id="edge10" class="edge">
<title>n9&#45;&gt;n3</title>
<path fill="none" stroke="#64748b" d="M457.52,-375.59C440.4,-367.53 423.45,-356.06 413,-340 398.94,-318.39 399.93,-244.62 401.6,-204.87"/>
<polygon fill="#64748b" stroke="#64748b" points="404.04,-205.09 401.91,-197.98 399.14,-204.86 404.04,-205.09"/>
</g>
<!-- n9&#45;&gt;n4 -->
<g id="edge9" class="edge">
<title>n9&#45;&gt;n4</title>
<path fill="none" stroke="#64748b" d="M593.04,-375.6C611.09,-367.76 628.17,-356.41 639,-340 647.81,-326.65 649,-316.49 639,-304 593.16,-246.78 523.84,-325.22 478,-268 468,-255.51 468.39,-244.79 478,-232 494.15,-210.5 563.61,-194.93 612.14,-186.43"/>
<polygon fill="#64748b" stroke="#64748b" points="612.36,-188.88 618.85,-185.28 611.54,-184.05 612.36,-188.88"/>
</g>
<!-- n9&#45;&gt;n5 -->
<g id="edge11" class="edge">
<title>n9&#45;&gt;n5</title>
<path fill="none" stroke="#64748b" d="M463.58,-375.56C442.08,-366.84 417.61,-354.93 398,-340 381.43,-327.38 381.58,-319.79 368,-304 359.53,-294.15 350.05,-283.41 341.83,-274.18"/>
<polygon fill="#64748b" stroke="#64748b" points="343.87,-272.79 337.38,-269.2 340.22,-276.05 343.87,-272.79"/>
</g>
<!-- n9&#45;&gt;n7 -->
<g id="edge12" class="edge">
<title>n9&#45;&gt;n7</title>
<path fill="none" stroke="#64748b" d="M433.83,-375.52C386.82,-365.39 327.57,-352.63 279.25,-342.22"/>
<polygon fill="#64748b" stroke="#64748b" points="279.82,-339.84 272.46,-340.76 278.79,-344.63 279.82,-339.84"/>
</g>
<!-- n9&#45;&gt;n8 -->
<g id="edge13" class="edge">
<title>n9&#45;&gt;n8</title>
<path fill="none" stroke="#64748b" d="M517.72,-375.7C519.01,-367.47 520.58,-357.48 522.01,-348.42"/>
<polygon fill="#64748b" stroke="#64748b" points="524.41,-348.9 523.08,-341.6 519.57,-348.13 524.41,-348.9"/>
</g>
<!-- n10 -->
<g id="node11" class="node">
<title>n10</title>
<g id="a_node11"><a xlink:href="https://github.com/statopia/statlib/blob/main/Statlib/Nonparametric/Vocabulary/Estimator.lean#L28" xlink:title="noncomputable def · Statlib/Nonparametric/Vocabulary/Estimator.lean:28" target="_blank">
<path fill="#d6e9ff" stroke="#3b82f6" d="M874,-52C874,-52 844,-52 844,-52 838,-52 832,-46 832,-40 832,-40 832,-28 832,-28 832,-22 838,-16 844,-16 844,-16 874,-16 874,-16 880,-16 886,-22 886,-28 886,-28 886,-40 886,-40 886,-46 880,-52 874,-52"/>
<text xml:space="preserve" text-anchor="middle" x="859" y="-31" font-family="Helvetica,sans-Serif" font-size="10.00">bias</text>
</a>
</g>
</g>
<!-- n11 -->
<g id="node12" class="node">
<title>n11</title>
<g id="a_node12"><a xlink:href="https://github.com/statopia/statlib/blob/main/Statlib/Nonparametric/Vocabulary/NeuralNetwork.lean#L23" xlink:title="structure · Statlib/Nonparametric/Vocabulary/NeuralNetwork.lean:23" target="_blank">
<path fill="#e8dcff" stroke="#8b5cf6" d="M908.96,-124C908.96,-124 863.04,-124 863.04,-124 857.04,-124 851.04,-118 851.04,-112 851.04,-112 851.04,-100 851.04,-100 851.04,-94 857.04,-88 863.04,-88 863.04,-88 908.96,-88 908.96,-88 914.96,-88 920.96,-94 920.96,-100 920.96,-100 920.96,-112 920.96,-112 920.96,-118 914.96,-124 908.96,-124"/>
<text xml:space="preserve" text-anchor="middle" x="886" y="-103" font-family="Helvetica,sans-Serif" font-size="10.00">DenseLayer</text>
</a>
</g>
</g>
<!-- n11&#45;&gt;n10 -->
<g id="edge14" class="edge">
<title>n11&#45;&gt;n10</title>
<path fill="none" stroke="#64748b" d="M879.33,-87.7C876.09,-79.3 872.14,-69.07 868.59,-59.86"/>
<polygon fill="#64748b" stroke="#64748b" points="870.95,-59.17 866.14,-53.52 866.38,-60.93 870.95,-59.17"/>
</g>
<!-- n12 -->
<g id="node13" class="node">
<title>n12</title>
<g id="a_node13"><a xlink:href="https://github.com/statopia/statlib/blob/main/Statlib/Nonparametric/Vocabulary/NeuralNetwork.lean#L30" xlink:title="noncomputable def · Statlib/Nonparametric/Vocabulary/NeuralNetwork.lean:30" target="_blank">
<path fill="#d6e9ff" stroke="#3b82f6" d="M874,-196C874,-196 844,-196 844,-196 838,-196 832,-190 832,-184 832,-184 832,-172 832,-172 832,-166 838,-160 844,-160 844,-160 874,-160 874,-160 880,-160 886,-166 886,-172 886,-172 886,-184 886,-184 886,-190 880,-196 874,-196"/>
<text xml:space="preserve" text-anchor="middle" x="859" y="-175" font-family="Helvetica,sans-Serif" font-size="10.00">apply</text>
</a>
</g>
</g>
<!-- n12&#45;&gt;n10 -->
<g id="edge16" class="edge">
<title>n12&#45;&gt;n10</title>
<path fill="none" stroke="#64748b" d="M851.93,-159.67C848.16,-149.47 843.91,-136.22 842,-124 839.53,-108.19 839.53,-103.81 842,-88 843.45,-78.74 846.24,-68.89 849.15,-60.22"/>
<polygon fill="#64748b" stroke="#64748b" points="851.41,-61.18 851.43,-53.76 846.79,-59.55 851.41,-61.18"/>
</g>
<!-- n12&#45;&gt;n11 -->
<g id="edge15" class="edge">
<title>n12&#45;&gt;n11</title>
<path fill="none" stroke="#64748b" d="M865.67,-159.7C868.91,-151.3 872.86,-141.07 876.41,-131.86"/>
<polygon fill="#64748b" stroke="#64748b" points="878.62,-132.93 878.86,-125.52 874.05,-131.17 878.62,-132.93"/>
</g>
<!-- n13 -->
<g id="node14" class="node">
<title>n13</title>
<g id="a_node14"><a xlink:href="https://github.com/statopia/statlib/blob/main/Statlib/Nonparametric/Approximation/Sieve.lean#L121" xlink:title="theorem · Statlib/Nonparametric/Approximation/Sieve.lean:121" target="_blank">
<path fill="#ffe6a3" stroke="#d4a017" d="M696.05,-268C696.05,-268 513.95,-268 513.95,-268 507.95,-268 501.95,-262 501.95,-256 501.95,-256 501.95,-244 501.95,-244 501.95,-238 507.95,-232 513.95,-232 513.95,-232 696.05,-232 696.05,-232 702.05,-232 708.05,-238 708.05,-244 708.05,-244 708.05,-256 708.05,-256 708.05,-262 702.05,-268 696.05,-268"/>
<text xml:space="preserve" text-anchor="middle" x="605" y="-247" font-family="Helvetica,sans-Serif" font-size="10.00">sieveApproximationError_range_bddBelow</text>
</a>
</g>
</g>
<!-- n13&#45;&gt;n3 -->
<g id="edge17" class="edge">
<title>n13&#45;&gt;n3</title>
<path fill="none" stroke="#64748b" d="M554.55,-231.52C526.12,-221.67 490.5,-209.32 460.93,-199.07"/>
<polygon fill="#64748b" stroke="#64748b" points="462.01,-196.85 454.59,-196.88 460.4,-201.48 462.01,-196.85"/>
</g>
<!-- n13&#45;&gt;n4 -->
<g id="edge18" class="edge">
<title>n13&#45;&gt;n4</title>
<path fill="none" stroke="#64748b" d="M618.84,-231.7C625.83,-222.97 634.41,-212.24 642,-202.75"/>
<polygon fill="#64748b" stroke="#64748b" points="643.91,-204.28 646.37,-197.29 640.08,-201.22 643.91,-204.28"/>
</g>
<!-- n13&#45;&gt;n12 -->
<g id="edge19" class="edge">
<title>n13&#45;&gt;n12</title>
<path fill="none" stroke="#64748b" d="M668.44,-231.52C717.41,-218.02 783.38,-199.84 823.46,-188.79"/>
<polygon fill="#64748b" stroke="#64748b" points="824.05,-191.17 830.14,-186.95 822.75,-186.45 824.05,-191.17"/>
</g>
<!-- n14 -->
<g id="node15" class="node">
<title>n14</title>
<g id="a_node15"><a xlink:href="https://github.com/statopia/statlib/blob/main/Statlib/Nonparametric/Approximation/Sieve.lean#L269" xlink:title="theorem · Statlib/Nonparametric/Approximation/Sieve.lean:269" target="_blank">
<path fill="#ffe6a3" stroke="#d4a017" d="M367.67,-484C367.67,-484 128.33,-484 128.33,-484 122.33,-484 116.33,-478 116.33,-472 116.33,-472 116.33,-460 116.33,-460 116.33,-454 122.33,-448 128.33,-448 128.33,-448 367.67,-448 367.67,-448 373.67,-448 379.67,-454 379.67,-460 379.67,-460 379.67,-472 379.67,-472 379.67,-478 373.67,-484 367.67,-484"/>
<text xml:space="preserve" text-anchor="middle" x="248" y="-463" font-family="Helvetica,sans-Serif" font-size="10.00">sieveApproximationError_le_of_exists_pointwise_series</text>
</a>
</g>
</g>
<!-- n14&#45;&gt;n4 -->
<g id="edge20" class="edge">
<title>n14&#45;&gt;n4</title>
<path fill="none" stroke="#64748b" d="M380.05,-448.92C498.68,-434.31 654.66,-414.66 657,-412 671.43,-395.57 663.11,-320.76 648,-304 600.65,-251.46 536.99,-323.38 493,-268 456.75,-222.37 550.43,-197.34 612.05,-186.21"/>
<polygon fill="#64748b" stroke="#64748b" points="612.18,-188.67 618.65,-185.05 611.33,-183.85 612.18,-188.67"/>
</g>
<!-- n14&#45;&gt;n5 -->
<g id="edge21" class="edge">
<title>n14&#45;&gt;n5</title>
<path fill="none" stroke="#64748b" d="M268.55,-447.64C292.94,-425.55 332.27,-384.84 348,-340 355.58,-318.4 346.48,-293.44 336.86,-275.45"/>
<polygon fill="#64748b" stroke="#64748b" points="339.08,-274.4 333.5,-269.52 334.82,-276.82 339.08,-274.4"/>
</g>
<!-- n14&#45;&gt;n9 -->
<g id="edge22" class="edge">
<title>n14&#45;&gt;n9</title>
<path fill="none" stroke="#64748b" d="M314.69,-447.52C353.06,-437.46 401.36,-424.79 440.91,-414.42"/>
<polygon fill="#64748b" stroke="#64748b" points="441.09,-416.91 447.24,-412.77 439.84,-412.17 441.09,-416.91"/>
</g>
<!-- n14&#45;&gt;n13 -->
<g id="edge23" class="edge">
<title>n14&#45;&gt;n13</title>
<path fill="none" stroke="#64748b" d="M380.01,-449.61C504.19,-434.99 671.52,-414.81 674,-412 705.78,-376.02 695.22,-347.06 674,-304 667.86,-291.55 657.24,-281.2 646.14,-273.06"/>
<polygon fill="#64748b" stroke="#64748b" points="647.6,-271.09 640.44,-269.13 644.82,-275.12 647.6,-271.09"/>
</g>
<!-- n15 -->
<g id="node16" class="node">
<title>n15</title>
<g id="a_node16"><a xlink:href="https://github.com/statopia/statlib/blob/main/Statlib/Nonparametric/Approximation/Sieve.lean#L285" xlink:title="theorem · Statlib/Nonparametric/Approximation/Sieve.lean:285" target="_blank">
<path fill="#ffe6a3" stroke="#d4a017" d="M477.14,-556C477.14,-556 178.86,-556 178.86,-556 172.86,-556 166.86,-550 166.86,-544 166.86,-544 166.86,-532 166.86,-532 166.86,-526 172.86,-520 178.86,-520 178.86,-520 477.14,-520 477.14,-520 483.14,-520 489.14,-526 489.14,-532 489.14,-532 489.14,-544 489.14,-544 489.14,-550 483.14,-556 477.14,-556"/>
<text xml:space="preserve" text-anchor="middle" x="328" y="-535" font-family="Helvetica,sans-Serif" font-size="10.00">sieveApproximationError_uniform_bound_of_exists_pointwise_series</text>
</a>
</g>
</g>
<!-- n15&#45;&gt;n4 -->
<g id="edge24" class="edge">
<title>n15&#45;&gt;n4</title>
<path fill="none" stroke="#64748b" d="M350.1,-519.57C362.11,-509.67 376.94,-496.73 389,-484 402.94,-469.28 399.42,-458.08 417,-448 522.78,-387.34 600.21,-495.58 689,-412 747.95,-356.51 749.01,-306.37 717,-232 712.01,-220.41 703.11,-210.17 693.84,-201.86"/>
<polygon fill="#64748b" stroke="#64748b" points="695.5,-200.05 688.57,-197.4 692.33,-203.79 695.5,-200.05"/>
</g>
<!-- n15&#45;&gt;n5 -->
<g id="edge25" class="edge">
<title>n15&#45;&gt;n5</title>
<path fill="none" stroke="#64748b" d="M196.92,-519.51C156.52,-511.25 119.37,-499.68 107,-484 97.09,-471.44 97.84,-461.12 107,-448 133.56,-409.95 163.03,-431.8 205,-412 262.29,-384.97 296.49,-394.95 328,-340 339.03,-320.76 335.54,-295.22 330.32,-276.44"/>
<polygon fill="#64748b" stroke="#64748b" points="332.68,-275.76 328.29,-269.78 327.99,-277.19 332.68,-275.76"/>
</g>
<!-- n15&#45;&gt;n14 -->
<g id="edge26" class="edge">
<title>n15&#45;&gt;n14</title>
<path fill="none" stroke="#64748b" d="M308.22,-519.7C297.94,-510.69 285.22,-499.57 274.14,-489.87"/>
<polygon fill="#64748b" stroke="#64748b" points="275.85,-488.11 268.96,-485.34 272.62,-491.8 275.85,-488.11"/>
</g>
<!-- n16 -->
<g id="node17" class="node">
<title>n16</title>
<g id="a_node17"><a xlink:href="https://github.com/statopia/statlib/blob/main/Statlib/Nonparametric/Approximation/Sieve.lean#L405" xlink:title="theorem · Statlib/Nonparametric/Approximation/Sieve.lean:405" target="_blank">
<path fill="#ffe6a3" stroke="#d4a017" d="M1011.89,-268C1011.89,-268 818.11,-268 818.11,-268 812.11,-268 806.11,-262 806.11,-256 806.11,-256 806.11,-244 806.11,-244 806.11,-238 812.11,-232 818.11,-232 818.11,-232 1011.89,-232 1011.89,-232 1017.89,-232 1023.89,-238 1023.89,-244 1023.89,-244 1023.89,-256 1023.89,-256 1023.89,-262 1017.89,-268 1011.89,-268"/>
<text xml:space="preserve" text-anchor="middle" x="915" y="-247" font-family="Helvetica,sans-Serif" font-size="10.00">selectorIndicator_seriesFunction_measurable</text>
</a>
</g>
</g>
<!-- n16&#45;&gt;n4 -->
<g id="edge27" class="edge">
<title>n16&#45;&gt;n4</title>
<path fill="none" stroke="#64748b" d="M851.56,-231.52C807.71,-219.43 750.23,-203.59 709.92,-192.48"/>
<polygon fill="#64748b" stroke="#64748b" points="710.7,-190.15 703.3,-190.66 709.39,-194.88 710.7,-190.15"/>
</g>
<!-- n16&#45;&gt;n12 -->
<g id="edge28" class="edge">
<title>n16&#45;&gt;n12</title>
<path fill="none" stroke="#64748b" d="M901.16,-231.7C894.17,-222.97 885.59,-212.24 878,-202.75"/>
<polygon fill="#64748b" stroke="#64748b" points="879.92,-201.22 873.63,-197.29 876.09,-204.28 879.92,-201.22"/>
</g>
<!-- n17 -->
<g id="node18" class="node">
<title>n17</title>
<g id="a_node18"><a xlink:href="https://github.com/statopia/statlib/blob/main/Statlib/Nonparametric/Approximation/Sieve.lean#L422" xlink:title="theorem · Statlib/Nonparametric/Approximation/Sieve.lean:422" target="_blank">
<path fill="#ffe6a3" stroke="#d4a017" d="M668.39,-484C668.39,-484 449.61,-484 449.61,-484 443.61,-484 437.61,-478 437.61,-472 437.61,-472 437.61,-460 437.61,-460 437.61,-454 443.61,-448 449.61,-448 449.61,-448 668.39,-448 668.39,-448 674.39,-448 680.39,-454 680.39,-460 680.39,-460 680.39,-472 680.39,-472 680.39,-478 674.39,-484 668.39,-484"/>
<text xml:space="preserve" text-anchor="middle" x="559" y="-463" font-family="Helvetica,sans-Serif" font-size="10.00">selectorIndicatorSieve_seriesFunction_measurable</text>
</a>
</g>
</g>
<!-- n17&#45;&gt;n4 -->
<g id="edge29" class="edge">
<title>n17&#45;&gt;n4</title>
<path fill="none" stroke="#64748b" d="M661.28,-447.54C699.45,-438.8 736.39,-426.88 748,-412 772.61,-380.46 771.94,-266.69 752,-232 742.6,-215.64 725.99,-203.86 709.51,-195.62"/>
<polygon fill="#64748b" stroke="#64748b" points="710.72,-193.49 703.35,-192.73 708.64,-197.92 710.72,-193.49"/>
</g>
<!-- n17&#45;&gt;n6 -->
<g id="edge30" class="edge">
<title>n17&#45;&gt;n6</title>
<path fill="none" stroke="#64748b" d="M653.91,-447.52C722.25,-434.93 812.71,-418.26 873.22,-407.12"/>
<polygon fill="#64748b" stroke="#64748b" points="873.63,-409.53 880.07,-405.86 872.74,-404.71 873.63,-409.53"/>
</g>
<!-- n17&#45;&gt;n16 -->
<g id="edge31" class="edge">
<title>n17&#45;&gt;n16</title>
<path fill="none" stroke="#64748b" d="M680.89,-447.89C712.08,-440.04 744.53,-428.62 772,-412 829.78,-377.03 877.22,-311.24 900.14,-275.55"/>
<polygon fill="#64748b" stroke="#64748b" points="902.18,-276.91 903.85,-269.69 898.04,-274.29 902.18,-276.91"/>
</g>
<!-- n18 -->
<g id="node19" class="node">
<title>n18</title>
<g id="a_node19"><a xlink:href="https://github.com/statopia/statlib/blob/main/Statlib/Nonparametric/Approximation/Sieve.lean#L428" xlink:title="theorem · Statlib/Nonparametric/Approximation/Sieve.lean:428" target="_blank">
<path fill="#ffe6a3" stroke="#d4a017" d="M887.83,-484C887.83,-484 710.17,-484 710.17,-484 704.17,-484 698.17,-478 698.17,-472 698.17,-472 698.17,-460 698.17,-460 698.17,-454 704.17,-448 710.17,-448 710.17,-448 887.83,-448 887.83,-448 893.83,-448 899.83,-454 899.83,-460 899.83,-460 899.83,-472 899.83,-472 899.83,-478 893.83,-484 887.83,-484"/>
<text xml:space="preserve" text-anchor="middle" x="799" y="-463" font-family="Helvetica,sans-Serif" font-size="10.00">selectorIndicatorSieve_seriesFunction_eq</text>
</a>
</g>
</g>
<!-- n18&#45;&gt;n4 -->
<g id="edge32" class="edge">
<title>n18&#45;&gt;n4</title>
<path fill="none" stroke="#64748b" d="M801.16,-447.55C805.36,-405.95 810.36,-299.38 762,-232 749.31,-214.33 728.92,-202.06 709.76,-193.82"/>
<polygon fill="#64748b" stroke="#64748b" points="710.75,-191.57 703.34,-191.2 708.9,-196.11 710.75,-191.57"/>
</g>
<!-- n18&#45;&gt;n6 -->
<g id="edge33" class="edge">
<title>n18&#45;&gt;n6</title>
<path fill="none" stroke="#64748b" d="M833.97,-447.52C853.07,-437.97 876.86,-426.07 896.97,-416.01"/>
<polygon fill="#64748b" stroke="#64748b" points="897.96,-418.26 903.13,-412.94 895.77,-413.88 897.96,-418.26"/>
</g>
<!-- n19 -->
<g id="node20" class="node">
<title>n19</title>
<g id="a_node20"><a xlink:href="https://github.com/statopia/statlib/blob/main/Statlib/Nonparametric/Approximation/Holder.lean#L116" xlink:title="theorem · Statlib/Nonparametric/Approximation/Holder.lean:116" target="_blank">
<path fill="#ffe6a3" stroke="#d4a017" d="M906.79,-556C906.79,-556 695.21,-556 695.21,-556 689.21,-556 683.21,-550 683.21,-544 683.21,-544 683.21,-532 683.21,-532 683.21,-526 689.21,-520 695.21,-520 695.21,-520 906.79,-520 906.79,-520 912.79,-520 918.79,-526 918.79,-532 918.79,-532 918.79,-544 918.79,-544 918.79,-550 912.79,-556 906.79,-556"/>
<text xml:space="preserve" text-anchor="middle" x="801" y="-535" font-family="Helvetica,sans-Serif" font-size="10.00">holder_selectorIndicator_series_pointwise_bound</text>
</a>
</g>
</g>
<!-- n19&#45;&gt;n1 -->
<g id="edge34" class="edge">
<title>n19&#45;&gt;n1</title>
<path fill="none" stroke="#64748b" d="M851.7,-519.52C881.56,-509.22 919.33,-496.2 949.78,-485.7"/>
<polygon fill="#64748b" stroke="#64748b" points="950.51,-488.04 956.33,-483.44 948.91,-483.4 950.51,-488.04"/>
</g>
<!-- n19&#45;&gt;n4 -->
<g id="edge35" class="edge">
<title>n19&#45;&gt;n4</title>
<path fill="none" stroke="#64748b" d="M682.79,-536.41C586.54,-533.11 461.49,-521.45 429,-484 418.51,-471.91 418.4,-459.98 429,-448 516.25,-349.42 632.72,-507.81 723,-412 750.47,-382.85 749.95,-267.8 732,-232 725.66,-219.36 714.71,-208.96 703.29,-200.82"/>
<polygon fill="#64748b" stroke="#64748b" points="704.97,-199 697.8,-197.14 702.24,-203.07 704.97,-199"/>
</g>
<!-- n19&#45;&gt;n6 -->
<g id="edge36" class="edge">
<title>n19&#45;&gt;n6</title>
<path fill="none" stroke="#64748b" d="M856.82,-519.56C875.54,-511.34 895.16,-499.78 909,-484 924.57,-466.24 932.12,-440.1 935.75,-420.73"/>
<polygon fill="#64748b" stroke="#64748b" points="938.16,-421.17 936.9,-413.86 933.33,-420.36 938.16,-421.17"/>
</g>
<!-- n19&#45;&gt;n18 -->
<g id="edge37" class="edge">
<title>n19&#45;&gt;n18</title>
<path fill="none" stroke="#64748b" d="M800.51,-519.7C800.27,-511.47 799.99,-501.48 799.73,-492.42"/>
<polygon fill="#64748b" stroke="#64748b" points="802.18,-492.54 799.53,-485.62 797.28,-492.68 802.18,-492.54"/>
</g>
<!-- n20 -->
<g id="node21" class="node">
<title>n20</title>
<g id="a_node21"><a xlink:href="https://github.com/statopia/statlib/blob/main/Statlib/Nonparametric/Approximation/Holder.lean#L271" xlink:title="theorem · Statlib/Nonparametric/Approximation/Holder.lean:271" target="_blank">
<path fill="#ffe6a3" stroke="#d4a017" d="M952.36,-628C952.36,-628 649.64,-628 649.64,-628 643.64,-628 637.64,-622 637.64,-616 637.64,-616 637.64,-604 637.64,-604 637.64,-598 643.64,-592 649.64,-592 649.64,-592 952.36,-592 952.36,-592 958.36,-592 964.36,-598 964.36,-604 964.36,-604 964.36,-616 964.36,-616 964.36,-622 958.36,-628 952.36,-628"/>
<text xml:space="preserve" text-anchor="middle" x="801" y="-607" font-family="Helvetica,sans-Serif" font-size="10.00">holderBall_selectorIndicator_sieveApproximationError_uniform_bound</text>
</a>
</g>
</g>
<!-- n20&#45;&gt;n2 -->
<g id="edge38" class="edge">
<title>n20&#45;&gt;n2</title>
<path fill="none" stroke="#64748b" d="M880.17,-591.52C943.62,-577.51 1029.92,-558.45 1079.21,-547.56"/>
<polygon fill="#64748b" stroke="#64748b" points="1079.6,-549.99 1085.91,-546.09 1078.54,-545.2 1079.6,-549.99"/>
</g>
<!-- n20&#45;&gt;n5 -->
<g id="edge39" class="edge">
<title>n20&#45;&gt;n5</title>
<path fill="none" stroke="#64748b" d="M637.29,-609.47C474.86,-607.46 238.85,-597.18 158,-556 108.68,-530.88 69.78,-496.74 96,-448 123.5,-396.87 152.79,-401.4 205,-376 250.5,-353.87 281.61,-379.68 313,-340 326.94,-322.38 327.67,-296.21 325.67,-276.81"/>
<polygon fill="#64748b" stroke="#64748b" points="328.11,-276.56 324.79,-269.93 323.25,-277.18 328.11,-276.56"/>
</g>
<!-- n20&#45;&gt;n6 -->
<g id="edge40" class="edge">
<title>n20&#45;&gt;n6</title>
<path fill="none" stroke="#64748b" d="M879.79,-591.6C898.41,-583.76 916.24,-572.41 928,-556 943.06,-534.99 942.12,-460.61 940.43,-420.72"/>
<polygon fill="#64748b" stroke="#64748b" points="942.88,-420.69 940.11,-413.81 937.98,-420.92 942.88,-420.69"/>
</g>
<!-- n20&#45;&gt;n15 -->
<g id="edge41" class="edge">
<title>n20&#45;&gt;n15</title>
<path fill="none" stroke="#64748b" d="M682.86,-591.52C613.17,-581.2 525.01,-568.16 453.99,-557.65"/>
<polygon fill="#64748b" stroke="#64748b" points="454.64,-555.27 447.36,-556.66 453.92,-560.11 454.64,-555.27"/>
</g>
<!-- n20&#45;&gt;n17 -->
<g id="edge42" class="edge">
<title>n20&#45;&gt;n17</title>
<path fill="none" stroke="#64748b" d="M750.7,-591.53C726.76,-582.34 698.16,-570.06 674,-556 641.03,-536.82 606.92,-509.28 584.5,-489.93"/>
<polygon fill="#64748b" stroke="#64748b" points="586.24,-488.2 579.36,-485.44 583.03,-491.89 586.24,-488.2"/>
</g>
<!-- n20&#45;&gt;n19 -->
<g id="edge43" class="edge">
<title>n20&#45;&gt;n19</title>
<path fill="none" stroke="#64748b" d="M801,-591.7C801,-583.47 801,-573.48 801,-564.42"/>
<polygon fill="#64748b" stroke="#64748b" points="803.45,-564.62 801,-557.62 798.55,-564.62 803.45,-564.62"/>
</g>
<!-- n21 -->
<g id="node22" class="node">
<title>n21</title>
<g id="a_node22"><a xlink:href="https://github.com/statopia/statlib/blob/main/Statlib/Nonparametric/Approximation/Holder.lean#L299" xlink:title="theorem · Statlib/Nonparametric/Approximation/Holder.lean:299" target="_blank">
<path fill="#ffe6a3" stroke="#d4a017" d="M1087.41,-700C1087.41,-700 838.59,-700 838.59,-700 832.59,-700 826.59,-694 826.59,-688 826.59,-688 826.59,-676 826.59,-676 826.59,-670 832.59,-664 838.59,-664 838.59,-664 1087.41,-664 1087.41,-664 1093.41,-664 1099.41,-670 1099.41,-676 1099.41,-676 1099.41,-688 1099.41,-688 1099.41,-694 1093.41,-700 1087.41,-700"/>
<text xml:space="preserve" text-anchor="middle" x="963" y="-679" font-family="Helvetica,sans-Serif" font-size="10.00">exists_selectorIndicatorSieve_for_holderBall_of_finite_net</text>
</a>
</g>
</g>
<!-- n21&#45;&gt;n2 -->
<g id="edge44" class="edge">
<title>n21&#45;&gt;n2</title>
<path fill="none" stroke="#64748b" d="M1017.49,-663.51C1037.11,-655.16 1058.26,-643.52 1074,-628 1091.93,-610.31 1103.73,-583.82 1110.55,-564.34"/>
<polygon fill="#64748b" stroke="#64748b" points="1112.81,-565.31 1112.7,-557.9 1108.16,-563.76 1112.81,-565.31"/>
</g>
<!-- n21&#45;&gt;n5 -->
<g id="edge45" class="edge">
<title>n21&#45;&gt;n5</title>
<path fill="none" stroke="#64748b" d="M826.38,-673.45C573.28,-657.63 57,-615.92 57,-539 57,-539 57,-539 57,-393 57,-353.2 40.2,-333.43 67,-304 91.1,-277.53 183.2,-263.49 249.56,-256.66"/>
<polygon fill="#64748b" stroke="#64748b" points="249.7,-259.11 256.42,-255.97 249.21,-254.23 249.7,-259.11"/>
</g>
<!-- n21&#45;&gt;n6 -->
<g id="edge46" class="edge">
<title>n21&#45;&gt;n6</title>
<path fill="none" stroke="#64748b" d="M981.04,-663.56C1020.45,-623.3 1107,-521.68 1059,-448 1046.6,-428.96 1025.64,-416.72 1004.68,-408.86"/>
<polygon fill="#64748b" stroke="#64748b" points="1005.51,-406.55 998.09,-406.55 1003.89,-411.18 1005.51,-406.55"/>
</g>
<!-- n21&#45;&gt;n20 -->
<g id="edge47" class="edge">
<title>n21&#45;&gt;n20</title>
<path fill="none" stroke="#64748b" d="M922.54,-663.52C900.23,-653.88 872.38,-641.84 848.98,-631.73"/>
<polygon fill="#64748b" stroke="#64748b" points="850.01,-629.51 842.62,-628.98 848.07,-634.01 850.01,-629.51"/>
</g>
<!-- n22 -->
<g id="node23" class="node">
<title>n22</title>
<g id="a_node23"><a xlink:href="https://github.com/statopia/statlib/blob/main/Statlib/Nonparametric/Approximation/Holder.lean#L372" xlink:title="theorem · Statlib/Nonparametric/Approximation/Holder.lean:372" target="_blank">
<path fill="#ffe6a3" stroke="#d4a017" d="M1155.74,-772C1155.74,-772 900.26,-772 900.26,-772 894.26,-772 888.26,-766 888.26,-760 888.26,-760 888.26,-748 888.26,-748 888.26,-742 894.26,-736 900.26,-736 900.26,-736 1155.74,-736 1155.74,-736 1161.74,-736 1167.74,-742 1167.74,-748 1167.74,-748 1167.74,-760 1167.74,-760 1167.74,-766 1161.74,-772 1155.74,-772"/>
<text xml:space="preserve" text-anchor="middle" x="1028" y="-751" font-family="Helvetica,sans-Serif" font-size="10.00">exists_selectorIndicatorSieve_for_holderBall_rate_of_cover</text>
</a>
</g>
</g>
<!-- n22&#45;&gt;n2 -->
<g id="edge48" class="edge">
<title>n22&#45;&gt;n2</title>
<path fill="none" stroke="#64748b" d="M1068.69,-735.72C1083.64,-727.23 1099.08,-715.44 1108,-700 1132.43,-657.71 1128.22,-598.31 1123.05,-564.75"/>
<polygon fill="#64748b" stroke="#64748b" points="1125.47,-564.39 1121.9,-557.89 1120.64,-565.2 1125.47,-564.39"/>
</g>
<!-- n22&#45;&gt;n5 -->
<g id="edge49" class="edge">
<title>n22&#45;&gt;n5</title>
<path fill="none" stroke="#64748b" d="M887.85,-747.18C614.58,-733.94 37,-695.92 37,-611 37,-611 37,-611 37,-393 37,-353.14 20.8,-333.14 48,-304 74.85,-275.24 178.15,-261.62 249.68,-255.52"/>
<polygon fill="#64748b" stroke="#64748b" points="249.52,-257.99 256.3,-254.97 249.12,-253.11 249.52,-257.99"/>
</g>
<!-- n22&#45;&gt;n6 -->
<g id="edge50" class="edge">
<title>n22&#45;&gt;n6</title>
<path fill="none" stroke="#64748b" d="M1073.51,-735.72C1090.31,-727.27 1108.13,-715.52 1120,-700 1154.89,-654.4 1212.92,-492.79 1177,-448 1155.74,-421.49 1067.55,-407.39 1004.73,-400.55"/>
<polygon fill="#64748b" stroke="#64748b" points="1005.15,-398.14 997.94,-399.84 1004.64,-403.01 1005.15,-398.14"/>
</g>
<!-- n22&#45;&gt;n21 -->
<g id="edge51" class="edge">
<title>n22&#45;&gt;n21</title>
<path fill="none" stroke="#64748b" d="M1011.93,-735.7C1003.67,-726.8 993.48,-715.82 984.54,-706.2"/>
<polygon fill="#64748b" stroke="#64748b" points="986.47,-704.68 979.91,-701.21 982.88,-708.01 986.47,-704.68"/>
</g>
<!-- n23 -->
<g id="node24" class="node">
<title>n23</title>
<g id="a_node24"><a xlink:href="https://github.com/statopia/statlib/blob/main/Statlib/Nonparametric/Approximation/Holder.lean#L498" xlink:title="theorem · Statlib/Nonparametric/Approximation/Holder.lean:498" target="_blank">
<path fill="#ffe6a3" stroke="#d4a017" stroke-width="3" d="M1185.58,-844C1185.58,-844 888.42,-844 888.42,-844 882.42,-844 876.42,-838 876.42,-832 876.42,-832 876.42,-820 876.42,-820 876.42,-814 882.42,-808 888.42,-808 888.42,-808 1185.58,-808 1185.58,-808 1191.58,-808 1197.58,-814 1197.58,-820 1197.58,-820 1197.58,-832 1197.58,-832 1197.58,-838 1191.58,-844 1185.58,-844"/>
<text xml:space="preserve" text-anchor="middle" x="1037" y="-823" font-family="Helvetica,sans-Serif" font-size="10.00">holderBall_selectorIndicator_sieveApproximationError_rate_of_cover</text>
</a>
</g>
</g>
<!-- n23&#45;&gt;n2 -->
<g id="edge52" class="edge">
<title>n23&#45;&gt;n2</title>
<path fill="none" stroke="#64748b" d="M1132.45,-806.56C1149.98,-798.78 1166.14,-787.72 1177,-772 1222.47,-706.17 1166.73,-608.24 1135.88,-563.23"/>
<polygon fill="#64748b" stroke="#64748b" points="1138.05,-562.05 1132.03,-557.71 1134.03,-564.85 1138.05,-562.05"/>
</g>
<!-- n23&#45;&gt;n5 -->
<g id="edge53" class="edge">
<title>n23&#45;&gt;n5</title>
<path fill="none" stroke="#64748b" d="M875.1,-818.79C587.39,-805.57 17,-768.57 17,-683 17,-683 17,-683 17,-393 17,-353.14 0.62,-332.96 28,-304 57.6,-272.7 172.86,-259.69 249.69,-254.42"/>
<polygon fill="#64748b" stroke="#64748b" points="249.6,-256.88 256.42,-253.98 249.27,-251.99 249.6,-256.88"/>
</g>
<!-- n23&#45;&gt;n6 -->
<g id="edge55" class="edge">
<title>n23&#45;&gt;n6</title>
<path fill="none" stroke="#64748b" d="M1137.23,-806.51C1156.72,-798.73 1175.31,-787.69 1189,-772 1215.53,-741.59 1207,-723.36 1207,-683 1207,-683 1207,-683 1207,-537 1207,-496.46 1215.82,-476.52 1187,-448 1161.68,-422.94 1069.27,-408.39 1004.71,-401.07"/>
<polygon fill="#64748b" stroke="#64748b" points="1005.32,-398.67 998.09,-400.33 1004.78,-403.54 1005.32,-398.67"/>
</g>
<!-- n23&#45;&gt;n22 -->
<g id="edge54" class="edge">
<title>n23&#45;&gt;n22</title>
<path fill="none" stroke="#64748b" d="M1034.64,-806.61C1033.6,-798.59 1032.38,-789.05 1031.26,-780.37"/>
<polygon fill="#64748b" stroke="#64748b" points="1033.71,-780.2 1030.39,-773.57 1028.85,-780.82 1033.71,-780.2"/>
</g>
</g>
</svg>
