<?xml version="1.0" encoding="UTF-8" standalone="no"?>
<!DOCTYPE svg PUBLIC "-//W3C//DTD SVG 1.1//EN"
 "http://www.w3.org/Graphics/SVG/1.1/DTD/svg11.dtd">
<!-- Generated by graphviz version 15.0.0 (20260523.1842)
 -->
<!-- Title: kernel_centered_sum_integrability_of_summand_l2_and_variance_bound Pages: 1 -->
<svg width="850pt" height="482pt"
 viewBox="0.00 0.00 850.00 482.00" xmlns="http://www.w3.org/2000/svg" xmlns:xlink="http://www.w3.org/1999/xlink">
<g id="graph0" class="graph" transform="scale(1 1) rotate(0) translate(4 478)">
<title>kernel_centered_sum_integrability_of_summand_l2_and_variance_bound</title>
<polygon fill="white" stroke="none" points="-4,4 -4,-478 846,-478 846,4 -4,4"/>
<text xml:space="preserve" text-anchor="middle" x="421" y="-457.4" font-family="Helvetica,sans-Serif" font-size="14.00">Proof narrative — kernel_centered_sum_integrability_of_summand_l2_and_variance_bound &#160;(12 decls)</text>
<g id="clust1" class="cluster">
<title>cluster_0</title>
<path fill="none" stroke="#cbd5e1" stroke-dasharray="5,2" d="M20,-8C20,-8 822,-8 822,-8 828,-8 834,-14 834,-20 834,-20 834,-429.2 834,-429.2 834,-435.2 828,-441.2 822,-441.2 822,-441.2 20,-441.2 20,-441.2 14,-441.2 8,-435.2 8,-429.2 8,-429.2 8,-20 8,-20 8,-14 14,-8 20,-8"/>
<text xml:space="preserve" text-anchor="middle" x="421" y="-427.3" font-family="Helvetica,sans-Serif" font-size="11.00">Nonparametric</text>
</g>
<!-- n0 -->
<g id="node1" class="node">
<title>n0</title>
<g id="a_node1"><a xlink:href="https://github.com/statopia/statlib/blob/main/Statlib/Nonparametric/Vocabulary/Kernel.lean#L33" xlink:title="noncomputable def · Statlib/Nonparametric/Vocabulary/Kernel.lean:33" target="_blank">
<path fill="#d6e9ff" stroke="#3b82f6" d="M605.91,-52C605.91,-52 556.09,-52 556.09,-52 550.09,-52 544.09,-46 544.09,-40 544.09,-40 544.09,-28 544.09,-28 544.09,-22 550.09,-16 556.09,-16 556.09,-16 605.91,-16 605.91,-16 611.91,-16 617.91,-22 617.91,-28 617.91,-28 617.91,-40 617.91,-40 617.91,-46 611.91,-52 605.91,-52"/>
<text xml:space="preserve" text-anchor="middle" x="581" y="-31" font-family="Helvetica,sans-Serif" font-size="10.00">scaledKernel</text>
</a>
</g>
</g>
<!-- n1 -->
<g id="node2" class="node">
<title>n1</title>
<g id="a_node2"><a xlink:href="https://github.com/statopia/statlib/blob/main/Statlib/Nonparametric/Vocabulary/KernelRegression.lean#L51" xlink:title="noncomputable def · Statlib/Nonparametric/Vocabulary/KernelRegression.lean:51" target="_blank">
<path fill="#d6e9ff" stroke="#3b82f6" d="M263.47,-124C263.47,-124 162.53,-124 162.53,-124 156.53,-124 150.53,-118 150.53,-112 150.53,-112 150.53,-100 150.53,-100 150.53,-94 156.53,-88 162.53,-88 162.53,-88 263.47,-88 263.47,-88 269.47,-88 275.47,-94 275.47,-100 275.47,-100 275.47,-112 275.47,-112 275.47,-118 269.47,-124 263.47,-124"/>
<text xml:space="preserve" text-anchor="middle" x="213" y="-103" font-family="Helvetica,sans-Serif" font-size="10.00">kernelRegressionWeight</text>
</a>
</g>
</g>
<!-- n1&#45;&gt;n0 -->
<g id="edge1" class="edge">
<title>n1&#45;&gt;n0</title>
<path fill="none" stroke="#64748b" d="M275.84,-93.05C349.67,-79 470.33,-56.05 535.62,-43.63"/>
<polygon fill="#64748b" stroke="#64748b" points="535.78,-46.1 542.19,-42.38 534.86,-41.28 535.78,-46.1"/>
</g>
<!-- n2 -->
<g id="node3" class="node">
<title>n2</title>
<g id="a_node3"><a xlink:href="https://github.com/statopia/statlib/blob/main/Statlib/Nonparametric/Vocabulary/KernelRegression.lean#L58" xlink:title="noncomputable def · Statlib/Nonparametric/Vocabulary/KernelRegression.lean:58" target="_blank">
<path fill="#d6e9ff" stroke="#3b82f6" d="M291.55,-196C291.55,-196 134.45,-196 134.45,-196 128.45,-196 122.45,-190 122.45,-184 122.45,-184 122.45,-172 122.45,-172 122.45,-166 128.45,-160 134.45,-160 134.45,-160 291.55,-160 291.55,-160 297.55,-160 303.55,-166 303.55,-172 303.55,-172 303.55,-184 303.55,-184 303.55,-190 297.55,-196 291.55,-196"/>
<text xml:space="preserve" text-anchor="middle" x="213" y="-175" font-family="Helvetica,sans-Serif" font-size="10.00">kernelRegressionWeightedResponse</text>
</a>
</g>
</g>
<!-- n2&#45;&gt;n1 -->
<g id="edge2" class="edge">
<title>n2&#45;&gt;n1</title>
<path fill="none" stroke="#64748b" d="M213,-159.7C213,-151.47 213,-141.48 213,-132.42"/>
<polygon fill="#64748b" stroke="#64748b" points="215.45,-132.62 213,-125.62 210.55,-132.62 215.45,-132.62"/>
</g>
<!-- n3 -->
<g id="node4" class="node">
<title>n3</title>
<g id="a_node4"><a xlink:href="https://github.com/statopia/statlib/blob/main/Statlib/Nonparametric/Vocabulary/KernelRegression.lean#L73" xlink:title="noncomputable def · Statlib/Nonparametric/Vocabulary/KernelRegression.lean:73" target="_blank">
<path fill="#d6e9ff" stroke="#3b82f6" d="M462.4,-268C462.4,-268 243.6,-268 243.6,-268 237.6,-268 231.6,-262 231.6,-256 231.6,-256 231.6,-244 231.6,-244 231.6,-238 237.6,-232 243.6,-232 243.6,-232 462.4,-232 462.4,-232 468.4,-232 474.4,-238 474.4,-244 474.4,-244 474.4,-256 474.4,-256 474.4,-262 468.4,-268 462.4,-268"/>
<text xml:space="preserve" text-anchor="middle" x="353" y="-247" font-family="Helvetica,sans-Serif" font-size="10.00">kernelRegressionCenteredWeightedResponseSum</text>
</a>
</g>
</g>
<!-- n3&#45;&gt;n2 -->
<g id="edge3" class="edge">
<title>n3&#45;&gt;n2</title>
<path fill="none" stroke="#64748b" d="M318.03,-231.52C298.93,-221.97 275.14,-210.07 255.03,-200.01"/>
<polygon fill="#64748b" stroke="#64748b" points="256.23,-197.88 248.87,-196.94 254.04,-202.26 256.23,-197.88"/>
</g>
<!-- n4 -->
<g id="node5" class="node">
<title>n4</title>
<g id="a_node5"><a xlink:href="https://github.com/statopia/statlib/blob/main/Statlib/Nonparametric/Vocabulary/KernelRegression.lean#L65" xlink:title="noncomputable def · Statlib/Nonparametric/Vocabulary/KernelRegression.lean:65" target="_blank">
<path fill="#d6e9ff" stroke="#3b82f6" d="M161.87,-268C161.87,-268 28.13,-268 28.13,-268 22.13,-268 16.13,-262 16.13,-256 16.13,-256 16.13,-244 16.13,-244 16.13,-238 22.13,-232 28.13,-232 28.13,-232 161.87,-232 161.87,-232 167.87,-232 173.87,-238 173.87,-244 173.87,-244 173.87,-256 173.87,-256 173.87,-262 167.87,-268 161.87,-268"/>
<text xml:space="preserve" text-anchor="middle" x="95" y="-247" font-family="Helvetica,sans-Serif" font-size="10.00">kernelRegressionWeightSqSum</text>
</a>
</g>
</g>
<!-- n4&#45;&gt;n1 -->
<g id="edge4" class="edge">
<title>n4&#45;&gt;n1</title>
<path fill="none" stroke="#64748b" d="M94.3,-231.51C94.42,-212.16 97.34,-180.97 113,-160 123.15,-146.4 137.84,-135.95 152.84,-128.06"/>
<polygon fill="#64748b" stroke="#64748b" points="153.68,-130.38 158.86,-125.07 151.5,-125.99 153.68,-130.38"/>
</g>
<!-- n5 -->
<g id="node6" class="node">
<title>n5</title>
<g id="a_node6"><a xlink:href="https://github.com/statopia/statlib/blob/main/Statlib/Nonparametric/Vocabulary/Kernel.lean#L28" xlink:title="noncomputable def · Statlib/Nonparametric/Vocabulary/Kernel.lean:28" target="_blank">
<path fill="#d6e9ff" stroke="#3b82f6" d="M740.13,-52C740.13,-52 685.87,-52 685.87,-52 679.87,-52 673.87,-46 673.87,-40 673.87,-40 673.87,-28 673.87,-28 673.87,-22 679.87,-16 685.87,-16 685.87,-16 740.13,-16 740.13,-16 746.13,-16 752.13,-22 752.13,-28 752.13,-28 752.13,-40 752.13,-40 752.13,-46 746.13,-52 740.13,-52"/>
<text xml:space="preserve" text-anchor="middle" x="713" y="-31" font-family="Helvetica,sans-Serif" font-size="10.00">productKernel</text>
</a>
</g>
</g>
<!-- n6 -->
<g id="node7" class="node">
<title>n6</title>
<g id="a_node7"><a xlink:href="https://github.com/statopia/statlib/blob/main/Statlib/Nonparametric/Vocabulary/Kernel.lean#L51" xlink:title="noncomputable def · Statlib/Nonparametric/Vocabulary/Kernel.lean:51" target="_blank">
<path fill="#d6e9ff" stroke="#3b82f6" d="M744.02,-124C744.02,-124 681.98,-124 681.98,-124 675.98,-124 669.98,-118 669.98,-112 669.98,-112 669.98,-100 669.98,-100 669.98,-94 675.98,-88 681.98,-88 681.98,-88 744.02,-88 744.02,-88 750.02,-88 756.02,-94 756.02,-100 756.02,-100 756.02,-112 756.02,-112 756.02,-118 750.02,-124 744.02,-124"/>
<text xml:space="preserve" text-anchor="middle" x="713" y="-103" font-family="Helvetica,sans-Serif" font-size="10.00">kernelL2Energy</text>
</a>
</g>
</g>
<!-- n6&#45;&gt;n5 -->
<g id="edge5" class="edge">
<title>n6&#45;&gt;n5</title>
<path fill="none" stroke="#64748b" d="M713,-87.7C713,-79.47 713,-69.48 713,-60.42"/>
<polygon fill="#64748b" stroke="#64748b" points="715.45,-60.62 713,-53.62 710.55,-60.62 715.45,-60.62"/>
</g>
<!-- n7 -->
<g id="node8" class="node">
<title>n7</title>
<g id="a_node8"><a xlink:href="https://github.com/statopia/statlib/blob/main/Statlib/Nonparametric/Vocabulary/KernelRegression.lean#L141" xlink:title="def · Statlib/Nonparametric/Vocabulary/KernelRegression.lean:141" target="_blank">
<path fill="#d6e9ff" stroke="#3b82f6" d="M814.33,-196C814.33,-196 611.67,-196 611.67,-196 605.67,-196 599.67,-190 599.67,-184 599.67,-184 599.67,-172 599.67,-172 599.67,-166 605.67,-160 611.67,-160 611.67,-160 814.33,-160 814.33,-160 820.33,-160 826.33,-166 826.33,-172 826.33,-172 826.33,-184 826.33,-184 826.33,-190 820.33,-196 814.33,-196"/>
<text xml:space="preserve" text-anchor="middle" x="713" y="-175" font-family="Helvetica,sans-Serif" font-size="10.00">KernelRegressionDesignL2EnergyAssumptions</text>
</a>
</g>
</g>
<!-- n7&#45;&gt;n0 -->
<g id="edge6" class="edge">
<title>n7&#45;&gt;n0</title>
<path fill="none" stroke="#64748b" d="M695.47,-159.52C685.3,-149.28 672.3,-136.03 661,-124 640.48,-102.15 617.68,-76.66 601.68,-58.57"/>
<polygon fill="#64748b" stroke="#64748b" points="603.59,-57.03 597.12,-53.4 599.91,-60.27 603.59,-57.03"/>
</g>
<!-- n7&#45;&gt;n6 -->
<g id="edge7" class="edge">
<title>n7&#45;&gt;n6</title>
<path fill="none" stroke="#64748b" d="M713,-159.7C713,-151.47 713,-141.48 713,-132.42"/>
<polygon fill="#64748b" stroke="#64748b" points="715.45,-132.62 713,-125.62 710.55,-132.62 715.45,-132.62"/>
</g>
<!-- n8 -->
<g id="node9" class="node">
<title>n8</title>
<g id="a_node9"><a xlink:href="https://github.com/statopia/statlib/blob/main/Statlib/Nonparametric/KernelRegression/KernelRate.lean#L347" xlink:title="theorem · Statlib/Nonparametric/KernelRegression/KernelRate.lean:347" target="_blank">
<path fill="#ffe6a3" stroke="#d4a017" d="M422.39,-340C422.39,-340 99.61,-340 99.61,-340 93.61,-340 87.61,-334 87.61,-328 87.61,-328 87.61,-316 87.61,-316 87.61,-310 93.61,-304 99.61,-304 99.61,-304 422.39,-304 422.39,-304 428.39,-304 434.39,-310 434.39,-316 434.39,-316 434.39,-328 434.39,-328 434.39,-334 428.39,-340 422.39,-340"/>
<text xml:space="preserve" text-anchor="middle" x="261" y="-319" font-family="Helvetica,sans-Serif" font-size="10.00">kernel_centered_sum_omega_integrable_of_summand_square_integrable</text>
</a>
</g>
</g>
<!-- n8&#45;&gt;n2 -->
<g id="edge9" class="edge">
<title>n8&#45;&gt;n2</title>
<path fill="none" stroke="#64748b" d="M245.13,-303.71C237.11,-293.95 228.04,-281.1 223,-268 215.19,-247.67 212.93,-222.94 212.49,-204.71"/>
<polygon fill="#64748b" stroke="#64748b" points="214.94,-204.82 212.42,-197.85 210.04,-204.88 214.94,-204.82"/>
</g>
<!-- n8&#45;&gt;n3 -->
<g id="edge8" class="edge">
<title>n8&#45;&gt;n3</title>
<path fill="none" stroke="#64748b" d="M283.74,-303.7C295.79,-294.53 310.74,-283.16 323.66,-273.33"/>
<polygon fill="#64748b" stroke="#64748b" points="324.91,-275.45 329,-269.26 321.94,-271.55 324.91,-275.45"/>
</g>
<!-- n9 -->
<g id="node10" class="node">
<title>n9</title>
<g id="a_node10"><a xlink:href="https://github.com/statopia/statlib/blob/main/Statlib/Nonparametric/KernelRegression/KernelRate.lean#L273" xlink:title="theorem · Statlib/Nonparametric/KernelRegression/KernelRate.lean:273" target="_blank">
<path fill="#ffe6a3" stroke="#d4a017" d="M773.99,-268C773.99,-268 504.01,-268 504.01,-268 498.01,-268 492.01,-262 492.01,-256 492.01,-256 492.01,-244 492.01,-244 492.01,-238 498.01,-232 504.01,-232 504.01,-232 773.99,-232 773.99,-232 779.99,-232 785.99,-238 785.99,-244 785.99,-244 785.99,-256 785.99,-256 785.99,-262 779.99,-268 773.99,-268"/>
<text xml:space="preserve" text-anchor="middle" x="639" y="-247" font-family="Helvetica,sans-Serif" font-size="10.00">kernel_regression_weight_sq_integrable_of_design_l2_energy</text>
</a>
</g>
</g>
<!-- n9&#45;&gt;n0 -->
<g id="edge11" class="edge">
<title>n9&#45;&gt;n0</title>
<path fill="none" stroke="#64748b" d="M617.65,-231.64C607.7,-222.23 596.79,-209.73 591,-196 572.12,-151.23 574.24,-93.19 577.56,-60.44"/>
<polygon fill="#64748b" stroke="#64748b" points="579.97,-61.02 578.3,-53.79 575.1,-60.48 579.97,-61.02"/>
</g>
<!-- n9&#45;&gt;n7 -->
<g id="edge10" class="edge">
<title>n9&#45;&gt;n7</title>
<path fill="none" stroke="#64748b" d="M657.29,-231.7C666.72,-222.78 678.35,-211.78 688.54,-202.14"/>
<polygon fill="#64748b" stroke="#64748b" points="690.16,-203.98 693.56,-197.39 686.79,-200.42 690.16,-203.98"/>
</g>
<!-- n10 -->
<g id="node11" class="node">
<title>n10</title>
<g id="a_node11"><a xlink:href="https://github.com/statopia/statlib/blob/main/Statlib/Nonparametric/KernelRegression/KernelRate.lean#L447" xlink:title="theorem · Statlib/Nonparametric/KernelRegression/KernelRate.lean:447" target="_blank">
<path fill="#ffe6a3" stroke="#d4a017" d="M793.73,-340C793.73,-340 484.27,-340 484.27,-340 478.27,-340 472.27,-334 472.27,-328 472.27,-328 472.27,-316 472.27,-316 472.27,-310 478.27,-304 484.27,-304 484.27,-304 793.73,-304 793.73,-304 799.73,-304 805.73,-310 805.73,-316 805.73,-316 805.73,-328 805.73,-328 805.73,-334 799.73,-340 793.73,-340"/>
<text xml:space="preserve" text-anchor="middle" x="639" y="-319" font-family="Helvetica,sans-Serif" font-size="10.00">kernel_centered_sum_x_integrable_of_variance_bound_and_design_l2</text>
</a>
</g>
</g>
<!-- n10&#45;&gt;n3 -->
<g id="edge12" class="edge">
<title>n10&#45;&gt;n3</title>
<path fill="none" stroke="#64748b" d="M567.57,-303.52C526.38,-293.44 474.51,-280.74 432.1,-270.36"/>
<polygon fill="#64748b" stroke="#64748b" points="432.87,-268.03 425.49,-268.74 431.7,-272.79 432.87,-268.03"/>
</g>
<!-- n10&#45;&gt;n4 -->
<g id="edge13" class="edge">
<title>n10&#45;&gt;n4</title>
<path fill="none" stroke="#64748b" d="M500.31,-303.52C419.41,-293.27 315.41,-280.02 223,-268 209.93,-266.3 196.11,-264.48 182.58,-262.69"/>
<polygon fill="#64748b" stroke="#64748b" points="182.96,-260.27 175.7,-261.78 182.32,-265.13 182.96,-260.27"/>
</g>
<!-- n10&#45;&gt;n7 -->
<g id="edge14" class="edge">
<title>n10&#45;&gt;n7</title>
<path fill="none" stroke="#64748b" d="M747.52,-303.67C766.15,-295.78 783.26,-284.39 795,-268 804.32,-254.99 802.65,-246.05 795,-232 787.89,-218.94 776.02,-208.6 763.49,-200.66"/>
<polygon fill="#64748b" stroke="#64748b" points="765.05,-198.74 757.78,-197.26 762.55,-202.95 765.05,-198.74"/>
</g>
<!-- n10&#45;&gt;n9 -->
<g id="edge15" class="edge">
<title>n10&#45;&gt;n9</title>
<path fill="none" stroke="#64748b" d="M639,-303.7C639,-295.47 639,-285.48 639,-276.42"/>
<polygon fill="#64748b" stroke="#64748b" points="641.45,-276.62 639,-269.62 636.55,-276.62 641.45,-276.62"/>
</g>
<!-- n11 -->
<g id="node12" class="node">
<title>n11</title>
<g id="a_node12"><a xlink:href="https://github.com/statopia/statlib/blob/main/Statlib/Nonparametric/KernelRegression/KernelRate.lean#L571" xlink:title="theorem · Statlib/Nonparametric/KernelRegression/KernelRate.lean:571" target="_blank">
<path fill="#ffe6a3" stroke="#d4a017" stroke-width="3" d="M517,-412C517,-412 197,-412 197,-412 191,-412 185,-406 185,-400 185,-400 185,-388 185,-388 185,-382 191,-376 197,-376 197,-376 517,-376 517,-376 523,-376 529,-382 529,-388 529,-388 529,-400 529,-400 529,-406 523,-412 517,-412"/>
<text xml:space="preserve" text-anchor="middle" x="357" y="-391" font-family="Helvetica,sans-Serif" font-size="10.00">kernel_centered_sum_integrability_of_summand_l2_and_variance_bound</text>
</a>
</g>
</g>
<!-- n11&#45;&gt;n2 -->
<g id="edge17" class="edge">
<title>n11&#45;&gt;n2</title>
<path fill="none" stroke="#64748b" d="M183.83,-377.94C136.44,-370.04 93.96,-358.08 79,-340 20.26,-269 157.21,-294 183,-268 199.8,-251.06 207.2,-224.4 210.45,-204.67"/>
<polygon fill="#64748b" stroke="#64748b" points="212.85,-205.2 211.43,-197.92 208,-204.5 212.85,-205.2"/>
</g>
<!-- n11&#45;&gt;n3 -->
<g id="edge16" class="edge">
<title>n11&#45;&gt;n3</title>
<path fill="none" stroke="#64748b" d="M405.26,-374.5C420.05,-366.29 434.62,-355.01 443,-340 450.8,-326.03 450.94,-317.89 443,-304 435.33,-290.58 422.8,-280.23 409.48,-272.38"/>
<polygon fill="#64748b" stroke="#64748b" points="410.67,-270.24 403.36,-269 408.31,-274.53 410.67,-270.24"/>
</g>
<!-- n11&#45;&gt;n4 -->
<g id="edge18" class="edge">
<title>n11&#45;&gt;n4</title>
<path fill="none" stroke="#64748b" d="M183.64,-380.33C130.12,-372.57 80.78,-360.08 64,-340 48.4,-321.32 61.39,-294.31 75.02,-274.94"/>
<polygon fill="#64748b" stroke="#64748b" points="76.92,-276.49 79.11,-269.4 72.98,-273.58 76.92,-276.49"/>
</g>
<!-- n11&#45;&gt;n7 -->
<g id="edge19" class="edge">
<title>n11&#45;&gt;n7</title>
<path fill="none" stroke="#64748b" d="M530.39,-383.93C651.83,-375.74 795.73,-361.63 815,-340 830.01,-323.16 814.79,-249.17 803,-232 793.91,-218.76 780.34,-208.34 766.47,-200.37"/>
<polygon fill="#64748b" stroke="#64748b" points="767.86,-198.34 760.55,-197.15 765.52,-202.65 767.86,-198.34"/>
</g>
<!-- n11&#45;&gt;n8 -->
<g id="edge20" class="edge">
<title>n11&#45;&gt;n8</title>
<path fill="none" stroke="#64748b" d="M331.78,-374.61C319.38,-365.57 304.35,-354.61 291.33,-345.12"/>
<polygon fill="#64748b" stroke="#64748b" points="293.06,-343.34 285.96,-341.2 290.17,-347.3 293.06,-343.34"/>
</g>
<!-- n11&#45;&gt;n10 -->
<g id="edge21" class="edge">
<title>n11&#45;&gt;n10</title>
<path fill="none" stroke="#64748b" d="M431.46,-374.52C471.31,-364.63 520.35,-352.45 560.76,-342.42"/>
<polygon fill="#64748b" stroke="#64748b" points="561.3,-344.81 567.51,-340.75 560.12,-340.05 561.3,-344.81"/>
</g>
</g>
</svg>
