<?xml version="1.0" encoding="UTF-8" standalone="no"?>
<!DOCTYPE svg PUBLIC "-//W3C//DTD SVG 1.1//EN"
 "http://www.w3.org/Graphics/SVG/1.1/DTD/svg11.dtd">
<!-- Generated by graphviz version 15.0.0 (20260523.1842)
 -->
<!-- Title: kernel_centered_mse_bound_of_uniform_design_interior_bounded Pages: 1 -->
<svg width="786pt" height="410pt"
 viewBox="0.00 0.00 786.00 410.00" xmlns="http://www.w3.org/2000/svg" xmlns:xlink="http://www.w3.org/1999/xlink">
<g id="graph0" class="graph" transform="scale(1 1) rotate(0) translate(4 406)">
<title>kernel_centered_mse_bound_of_uniform_design_interior_bounded</title>
<polygon fill="white" stroke="none" points="-4,4 -4,-406 782.49,-406 782.49,4 -4,4"/>
<text xml:space="preserve" text-anchor="middle" x="389.25" y="-385.4" font-family="Helvetica,sans-Serif" font-size="14.00">Proof narrative — kernel_centered_mse_bound_of_uniform_design_interior_bounded &#160;(12 decls)</text>
<g id="clust1" class="cluster">
<title>cluster_0</title>
<path fill="none" stroke="#cbd5e1" stroke-dasharray="5,2" d="M20,-8C20,-8 755,-8 755,-8 761,-8 767,-14 767,-20 767,-20 767,-357.2 767,-357.2 767,-363.2 761,-369.2 755,-369.2 755,-369.2 20,-369.2 20,-369.2 14,-369.2 8,-363.2 8,-357.2 8,-357.2 8,-20 8,-20 8,-14 14,-8 20,-8"/>
<text xml:space="preserve" text-anchor="middle" x="387.5" y="-355.3" font-family="Helvetica,sans-Serif" font-size="11.00">Nonparametric</text>
</g>
<!-- n0 -->
<g id="node1" class="node">
<title>n0</title>
<g id="a_node1"><a xlink:href="https://github.com/statopia/statlib/blob/main/Statlib/Nonparametric/Vocabulary/KernelRegression.lean#L35" xlink:title="def · Statlib/Nonparametric/Vocabulary/KernelRegression.lean:35" target="_blank">
<path fill="#d6e9ff" stroke="#3b82f6" d="M111.87,-268C111.87,-268 28.13,-268 28.13,-268 22.13,-268 16.13,-262 16.13,-256 16.13,-256 16.13,-244 16.13,-244 16.13,-238 22.13,-232 28.13,-232 28.13,-232 111.87,-232 111.87,-232 117.87,-232 123.87,-238 123.87,-244 123.87,-244 123.87,-256 123.87,-256 123.87,-262 117.87,-268 111.87,-268"/>
<text xml:space="preserve" text-anchor="middle" x="70" y="-247" font-family="Helvetica,sans-Serif" font-size="10.00">FunctionBoundedOn</text>
</a>
</g>
</g>
<!-- n1 -->
<g id="node2" class="node">
<title>n1</title>
<g id="a_node2"><a xlink:href="https://github.com/statopia/statlib/blob/main/Statlib/Nonparametric/Vocabulary/KernelRegression.lean#L21" xlink:title="def · Statlib/Nonparametric/Vocabulary/KernelRegression.lean:21" target="_blank">
<path fill="#d6e9ff" stroke="#3b82f6" d="M200.52,-268C200.52,-268 153.48,-268 153.48,-268 147.48,-268 141.48,-262 141.48,-256 141.48,-256 141.48,-244 141.48,-244 141.48,-238 147.48,-232 153.48,-232 153.48,-232 200.52,-232 200.52,-232 206.52,-232 212.52,-238 212.52,-244 212.52,-244 212.52,-256 212.52,-256 212.52,-262 206.52,-268 200.52,-268"/>
<text xml:space="preserve" text-anchor="middle" x="177" y="-247" font-family="Helvetica,sans-Serif" font-size="10.00">unitCubeSet</text>
</a>
</g>
</g>
<!-- n2 -->
<g id="node3" class="node">
<title>n2</title>
<g id="a_node3"><a xlink:href="https://github.com/statopia/statlib/blob/main/Statlib/Nonparametric/Vocabulary/Kernel.lean#L33" xlink:title="noncomputable def · Statlib/Nonparametric/Vocabulary/Kernel.lean:33" target="_blank">
<path fill="#d6e9ff" stroke="#3b82f6" d="M632.91,-52C632.91,-52 583.09,-52 583.09,-52 577.09,-52 571.09,-46 571.09,-40 571.09,-40 571.09,-28 571.09,-28 571.09,-22 577.09,-16 583.09,-16 583.09,-16 632.91,-16 632.91,-16 638.91,-16 644.91,-22 644.91,-28 644.91,-28 644.91,-40 644.91,-40 644.91,-46 638.91,-52 632.91,-52"/>
<text xml:space="preserve" text-anchor="middle" x="608" y="-31" font-family="Helvetica,sans-Serif" font-size="10.00">scaledKernel</text>
</a>
</g>
</g>
<!-- n3 -->
<g id="node4" class="node">
<title>n3</title>
<g id="a_node4"><a xlink:href="https://github.com/statopia/statlib/blob/main/Statlib/Nonparametric/Vocabulary/Kernel.lean#L56" xlink:title="noncomputable def · Statlib/Nonparametric/Vocabulary/Kernel.lean:56" target="_blank">
<path fill="#d6e9ff" stroke="#3b82f6" d="M602.92,-196C602.92,-196 463.08,-196 463.08,-196 457.08,-196 451.08,-190 451.08,-184 451.08,-184 451.08,-172 451.08,-172 451.08,-166 457.08,-160 463.08,-160 463.08,-160 602.92,-160 602.92,-160 608.92,-160 614.92,-166 614.92,-172 614.92,-172 614.92,-184 614.92,-184 614.92,-190 608.92,-196 602.92,-196"/>
<text xml:space="preserve" text-anchor="middle" x="533" y="-175" font-family="Helvetica,sans-Serif" font-size="10.00">kernelLinearRegressionEstimator</text>
</a>
</g>
</g>
<!-- n3&#45;&gt;n2 -->
<g id="edge1" class="edge">
<title>n3&#45;&gt;n2</title>
<path fill="none" stroke="#64748b" d="M542.2,-159.59C555.48,-134.43 580.1,-87.83 595.17,-59.3"/>
<polygon fill="#64748b" stroke="#64748b" points="597.15,-60.78 598.26,-53.45 592.82,-58.49 597.15,-60.78"/>
</g>
<!-- n4 -->
<g id="node5" class="node">
<title>n4</title>
<g id="a_node5"><a xlink:href="https://github.com/statopia/statlib/blob/main/Statlib/Nonparametric/Vocabulary/Kernel.lean#L28" xlink:title="noncomputable def · Statlib/Nonparametric/Vocabulary/Kernel.lean:28" target="_blank">
<path fill="#d6e9ff" stroke="#3b82f6" d="M723.13,-124C723.13,-124 668.87,-124 668.87,-124 662.87,-124 656.87,-118 656.87,-112 656.87,-112 656.87,-100 656.87,-100 656.87,-94 662.87,-88 668.87,-88 668.87,-88 723.13,-88 723.13,-88 729.13,-88 735.13,-94 735.13,-100 735.13,-100 735.13,-112 735.13,-112 735.13,-118 729.13,-124 723.13,-124"/>
<text xml:space="preserve" text-anchor="middle" x="696" y="-103" font-family="Helvetica,sans-Serif" font-size="10.00">productKernel</text>
</a>
</g>
</g>
<!-- n5 -->
<g id="node6" class="node">
<title>n5</title>
<g id="a_node6"><a xlink:href="https://github.com/statopia/statlib/blob/main/Statlib/Nonparametric/Vocabulary/Kernel.lean#L39" xlink:title="noncomputable def · Statlib/Nonparametric/Vocabulary/Kernel.lean:39" target="_blank">
<path fill="#d6e9ff" stroke="#3b82f6" d="M727.3,-196C727.3,-196 664.7,-196 664.7,-196 658.7,-196 652.7,-190 652.7,-184 652.7,-184 652.7,-172 652.7,-172 652.7,-166 658.7,-160 664.7,-160 664.7,-160 727.3,-160 727.3,-160 733.3,-160 739.3,-166 739.3,-172 739.3,-172 739.3,-184 739.3,-184 739.3,-190 733.3,-196 727.3,-196"/>
<text xml:space="preserve" text-anchor="middle" x="696" y="-175" font-family="Helvetica,sans-Serif" font-size="10.00">kernelSmoother</text>
</a>
</g>
</g>
<!-- n5&#45;&gt;n4 -->
<g id="edge2" class="edge">
<title>n5&#45;&gt;n4</title>
<path fill="none" stroke="#64748b" d="M696,-159.7C696,-151.47 696,-141.48 696,-132.42"/>
<polygon fill="#64748b" stroke="#64748b" points="698.45,-132.62 696,-125.62 693.55,-132.62 698.45,-132.62"/>
</g>
<!-- n6 -->
<g id="node7" class="node">
<title>n6</title>
<g id="a_node7"><a xlink:href="https://github.com/statopia/statlib/blob/main/Statlib/Nonparametric/Vocabulary/KernelRegression.lean#L51" xlink:title="noncomputable def · Statlib/Nonparametric/Vocabulary/KernelRegression.lean:51" target="_blank">
<path fill="#d6e9ff" stroke="#3b82f6" d="M404.47,-124C404.47,-124 303.53,-124 303.53,-124 297.53,-124 291.53,-118 291.53,-112 291.53,-112 291.53,-100 291.53,-100 291.53,-94 297.53,-88 303.53,-88 303.53,-88 404.47,-88 404.47,-88 410.47,-88 416.47,-94 416.47,-100 416.47,-100 416.47,-112 416.47,-112 416.47,-118 410.47,-124 404.47,-124"/>
<text xml:space="preserve" text-anchor="middle" x="354" y="-103" font-family="Helvetica,sans-Serif" font-size="10.00">kernelRegressionWeight</text>
</a>
</g>
</g>
<!-- n6&#45;&gt;n2 -->
<g id="edge3" class="edge">
<title>n6&#45;&gt;n2</title>
<path fill="none" stroke="#64748b" d="M416.79,-87.7C462,-75.24 521.96,-58.71 562.59,-47.51"/>
<polygon fill="#64748b" stroke="#64748b" points="563.15,-49.9 569.24,-45.68 561.84,-45.18 563.15,-49.9"/>
</g>
<!-- n7 -->
<g id="node8" class="node">
<title>n7</title>
<g id="a_node8"><a xlink:href="https://github.com/statopia/statlib/blob/main/Statlib/Nonparametric/Vocabulary/KernelRegression.lean#L58" xlink:title="noncomputable def · Statlib/Nonparametric/Vocabulary/KernelRegression.lean:58" target="_blank">
<path fill="#d6e9ff" stroke="#3b82f6" d="M245.55,-196C245.55,-196 88.45,-196 88.45,-196 82.45,-196 76.45,-190 76.45,-184 76.45,-184 76.45,-172 76.45,-172 76.45,-166 82.45,-160 88.45,-160 88.45,-160 245.55,-160 245.55,-160 251.55,-160 257.55,-166 257.55,-172 257.55,-172 257.55,-184 257.55,-184 257.55,-190 251.55,-196 245.55,-196"/>
<text xml:space="preserve" text-anchor="middle" x="167" y="-175" font-family="Helvetica,sans-Serif" font-size="10.00">kernelRegressionWeightedResponse</text>
</a>
</g>
</g>
<!-- n7&#45;&gt;n6 -->
<g id="edge4" class="edge">
<title>n7&#45;&gt;n6</title>
<path fill="none" stroke="#64748b" d="M213.71,-159.52C239.8,-149.75 272.44,-137.53 299.67,-127.34"/>
<polygon fill="#64748b" stroke="#64748b" points="300.45,-129.66 306.15,-124.91 298.73,-125.07 300.45,-129.66"/>
</g>
<!-- n8 -->
<g id="node9" class="node">
<title>n8</title>
<g id="a_node9"><a xlink:href="https://github.com/statopia/statlib/blob/main/Statlib/Nonparametric/Vocabulary/KernelRegression.lean#L73" xlink:title="noncomputable def · Statlib/Nonparametric/Vocabulary/KernelRegression.lean:73" target="_blank">
<path fill="#d6e9ff" stroke="#3b82f6" d="M461.4,-268C461.4,-268 242.6,-268 242.6,-268 236.6,-268 230.6,-262 230.6,-256 230.6,-256 230.6,-244 230.6,-244 230.6,-238 236.6,-232 242.6,-232 242.6,-232 461.4,-232 461.4,-232 467.4,-232 473.4,-238 473.4,-244 473.4,-244 473.4,-256 473.4,-256 473.4,-262 467.4,-268 461.4,-268"/>
<text xml:space="preserve" text-anchor="middle" x="352" y="-247" font-family="Helvetica,sans-Serif" font-size="10.00">kernelRegressionCenteredWeightedResponseSum</text>
</a>
</g>
</g>
<!-- n8&#45;&gt;n7 -->
<g id="edge5" class="edge">
<title>n8&#45;&gt;n7</title>
<path fill="none" stroke="#64748b" d="M305.79,-231.52C279.98,-221.75 247.69,-209.53 220.75,-199.34"/>
<polygon fill="#64748b" stroke="#64748b" points="221.77,-197.1 214.35,-196.92 220.03,-201.69 221.77,-197.1"/>
</g>
<!-- n9 -->
<g id="node10" class="node">
<title>n9</title>
<g id="a_node10"><a xlink:href="https://github.com/statopia/statlib/blob/main/Statlib/Nonparametric/Vocabulary/KernelRegression.lean#L65" xlink:title="noncomputable def · Statlib/Nonparametric/Vocabulary/KernelRegression.lean:65" target="_blank">
<path fill="#d6e9ff" stroke="#3b82f6" d="M420.87,-196C420.87,-196 287.13,-196 287.13,-196 281.13,-196 275.13,-190 275.13,-184 275.13,-184 275.13,-172 275.13,-172 275.13,-166 281.13,-160 287.13,-160 287.13,-160 420.87,-160 420.87,-160 426.87,-160 432.87,-166 432.87,-172 432.87,-172 432.87,-184 432.87,-184 432.87,-190 426.87,-196 420.87,-196"/>
<text xml:space="preserve" text-anchor="middle" x="354" y="-175" font-family="Helvetica,sans-Serif" font-size="10.00">kernelRegressionWeightSqSum</text>
</a>
</g>
</g>
<!-- n9&#45;&gt;n6 -->
<g id="edge6" class="edge">
<title>n9&#45;&gt;n6</title>
<path fill="none" stroke="#64748b" d="M354,-159.7C354,-151.47 354,-141.48 354,-132.42"/>
<polygon fill="#64748b" stroke="#64748b" points="356.45,-132.62 354,-125.62 351.55,-132.62 356.45,-132.62"/>
</g>
<!-- n10 -->
<g id="node11" class="node">
<title>n10</title>
<g id="a_node11"><a xlink:href="https://github.com/statopia/statlib/blob/main/Statlib/Nonparametric/Vocabulary/KernelRegression.lean#L208" xlink:title="def · Statlib/Nonparametric/Vocabulary/KernelRegression.lean:208" target="_blank">
<path fill="#d6e9ff" stroke="#3b82f6" d="M706.61,-268C706.61,-268 543.39,-268 543.39,-268 537.39,-268 531.39,-262 531.39,-256 531.39,-256 531.39,-244 531.39,-244 531.39,-238 537.39,-232 543.39,-232 543.39,-232 706.61,-232 706.61,-232 712.61,-232 718.61,-238 718.61,-244 718.61,-244 718.61,-256 718.61,-256 718.61,-262 712.61,-268 706.61,-268"/>
<text xml:space="preserve" text-anchor="middle" x="625" y="-247" font-family="Helvetica,sans-Serif" font-size="10.00">KernelRegressionCenteredMSEBound</text>
</a>
</g>
</g>
<!-- n10&#45;&gt;n2 -->
<g id="edge9" class="edge">
<title>n10&#45;&gt;n2</title>
<path fill="none" stroke="#64748b" d="M625.4,-231.58C625.67,-213.62 625.72,-184.82 624,-160 621.6,-125.44 616.05,-85.82 612.16,-60.61"/>
<polygon fill="#64748b" stroke="#64748b" points="614.6,-60.36 611.1,-53.82 609.76,-61.12 614.6,-60.36"/>
</g>
<!-- n10&#45;&gt;n3 -->
<g id="edge7" class="edge">
<title>n10&#45;&gt;n3</title>
<path fill="none" stroke="#64748b" d="M602.26,-231.7C590.21,-222.53 575.26,-211.16 562.34,-201.33"/>
<polygon fill="#64748b" stroke="#64748b" points="564.06,-199.55 557,-197.26 561.09,-203.45 564.06,-199.55"/>
</g>
<!-- n10&#45;&gt;n5 -->
<g id="edge8" class="edge">
<title>n10&#45;&gt;n5</title>
<path fill="none" stroke="#64748b" d="M642.55,-231.7C651.66,-222.71 662.92,-211.61 672.75,-201.92"/>
<polygon fill="#64748b" stroke="#64748b" points="674.31,-203.83 677.57,-197.17 670.87,-200.34 674.31,-203.83"/>
</g>
<!-- n11 -->
<g id="node12" class="node">
<title>n11</title>
<g id="a_node12"><a xlink:href="https://github.com/statopia/statlib/blob/main/Statlib/Nonparametric/KernelRegression/KernelRate.lean#L1235" xlink:title="theorem · Statlib/Nonparametric/KernelRegression/KernelRate.lean:1235" target="_blank">
<path fill="#ffe6a3" stroke="#d4a017" stroke-width="3" d="M647,-340C647,-340 357,-340 357,-340 351,-340 345,-334 345,-328 345,-328 345,-316 345,-316 345,-310 351,-304 357,-304 357,-304 647,-304 647,-304 653,-304 659,-310 659,-316 659,-316 659,-328 659,-328 659,-334 653,-340 647,-340"/>
<text xml:space="preserve" text-anchor="middle" x="502" y="-319" font-family="Helvetica,sans-Serif" font-size="10.00">kernel_centered_mse_bound_of_uniform_design_interior_bounded</text>
</a>
</g>
</g>
<!-- n11&#45;&gt;n0 -->
<g id="edge10" class="edge">
<title>n11&#45;&gt;n0</title>
<path fill="none" stroke="#64748b" d="M343.7,-302.76C280.21,-294.34 206.33,-283.15 132.42,-267.99"/>
<polygon fill="#64748b" stroke="#64748b" points="133.18,-265.64 125.82,-266.62 132.18,-270.44 133.18,-265.64"/>
</g>
<!-- n11&#45;&gt;n1 -->
<g id="edge11" class="edge">
<title>n11&#45;&gt;n1</title>
<path fill="none" stroke="#64748b" d="M379.3,-302.54C329.97,-293.89 272.84,-282.3 222,-268 221.52,-267.87 221.04,-267.73 220.56,-267.59"/>
<polygon fill="#64748b" stroke="#64748b" points="221.53,-265.32 214.12,-265.57 220.07,-270 221.53,-265.32"/>
</g>
<!-- n11&#45;&gt;n2 -->
<g id="edge17" class="edge">
<title>n11&#45;&gt;n2</title>
<path fill="none" stroke="#64748b" d="M642.43,-302.5C683.84,-294.26 721.88,-282.96 736,-268 790.97,-209.77 791.01,-152.83 744,-88 723.11,-59.19 684.2,-46.04 653.34,-40.03"/>
<polygon fill="#64748b" stroke="#64748b" points="654.09,-37.68 646.77,-38.86 653.23,-42.5 654.09,-37.68"/>
</g>
<!-- n11&#45;&gt;n3 -->
<g id="edge12" class="edge">
<title>n11&#45;&gt;n3</title>
<path fill="none" stroke="#64748b" d="M505.99,-302.73C511.44,-277.75 521.25,-232.81 527.43,-204.52"/>
<polygon fill="#64748b" stroke="#64748b" points="529.8,-205.15 528.9,-197.79 525.01,-204.11 529.8,-205.15"/>
</g>
<!-- n11&#45;&gt;n5 -->
<g id="edge13" class="edge">
<title>n11&#45;&gt;n5</title>
<path fill="none" stroke="#64748b" d="M642.41,-302.53C681.2,-294.4 715.98,-283.16 728,-268 743.08,-248.98 730.07,-222.24 716.38,-203.05"/>
<polygon fill="#64748b" stroke="#64748b" points="718.43,-201.69 712.27,-197.56 714.51,-204.63 718.43,-201.69"/>
</g>
<!-- n11&#45;&gt;n8 -->
<g id="edge14" class="edge">
<title>n11&#45;&gt;n8</title>
<path fill="none" stroke="#64748b" d="M462.59,-302.61C442.41,-293.19 417.76,-281.69 396.86,-271.93"/>
<polygon fill="#64748b" stroke="#64748b" points="398.09,-269.81 390.71,-269.07 396.02,-274.25 398.09,-269.81"/>
</g>
<!-- n11&#45;&gt;n9 -->
<g id="edge15" class="edge">
<title>n11&#45;&gt;n9</title>
<path fill="none" stroke="#64748b" d="M502.59,-302.84C502.27,-283.19 498.83,-251.99 482,-232 470.11,-217.88 453.85,-207.46 436.9,-199.79"/>
<polygon fill="#64748b" stroke="#64748b" points="437.87,-197.54 430.47,-197.05 435.95,-202.05 437.87,-197.54"/>
</g>
<!-- n11&#45;&gt;n10 -->
<g id="edge16" class="edge">
<title>n11&#45;&gt;n10</title>
<path fill="none" stroke="#64748b" d="M534.32,-302.61C550.63,-293.32 570.52,-282.01 587.51,-272.34"/>
<polygon fill="#64748b" stroke="#64748b" points="588.4,-274.65 593.28,-269.05 585.98,-270.39 588.4,-274.65"/>
</g>
</g>
</svg>
