<?xml version="1.0" encoding="UTF-8" standalone="no"?>
<!DOCTYPE svg PUBLIC "-//W3C//DTD SVG 1.1//EN"
 "http://www.w3.org/Graphics/SVG/1.1/DTD/svg11.dtd">
<!-- Generated by graphviz version 15.0.0 (20260523.1842)
 -->
<!-- Title: KernelRegressionUniformInteriorWellposednessAssumptions Pages: 1 -->
<svg width="864pt" height="410pt"
 viewBox="0.00 0.00 864.00 410.00" xmlns="http://www.w3.org/2000/svg" xmlns:xlink="http://www.w3.org/1999/xlink">
<g id="graph0" class="graph" transform="scale(1 1) rotate(0) translate(4 406)">
<title>KernelRegressionUniformInteriorWellposednessAssumptions</title>
<polygon fill="white" stroke="none" points="-4,4 -4,-406 860,-406 860,4 -4,4"/>
<text xml:space="preserve" text-anchor="middle" x="428" y="-385.4" font-family="Helvetica,sans-Serif" font-size="14.00">Proof narrative — KernelRegressionUniformInteriorWellposednessAssumptions &#160;(12 decls)</text>
<g id="clust1" class="cluster">
<title>cluster_0</title>
<path fill="none" stroke="#cbd5e1" stroke-dasharray="5,2" d="M20,-8C20,-8 836,-8 836,-8 842,-8 848,-14 848,-20 848,-20 848,-357.2 848,-357.2 848,-363.2 842,-369.2 836,-369.2 836,-369.2 20,-369.2 20,-369.2 14,-369.2 8,-363.2 8,-357.2 8,-357.2 8,-20 8,-20 8,-14 14,-8 20,-8"/>
<text xml:space="preserve" text-anchor="middle" x="428" y="-355.3" font-family="Helvetica,sans-Serif" font-size="11.00">Nonparametric</text>
</g>
<!-- n0 -->
<g id="node1" class="node">
<title>n0</title>
<g id="a_node1"><a xlink:href="https://github.com/statopia/statlib/blob/main/Statlib/Nonparametric/Vocabulary/KernelRegression.lean#L41" xlink:title="def · Statlib/Nonparametric/Vocabulary/KernelRegression.lean:41" target="_blank">
<path fill="#d6e9ff" stroke="#3b82f6" d="M148.48,-268C148.48,-268 27.52,-268 27.52,-268 21.52,-268 15.52,-262 15.52,-256 15.52,-256 15.52,-244 15.52,-244 15.52,-238 21.52,-232 27.52,-232 27.52,-232 148.48,-232 148.48,-232 154.48,-232 160.48,-238 160.48,-244 160.48,-244 160.48,-256 160.48,-256 160.48,-262 154.48,-268 148.48,-268"/>
<text xml:space="preserve" text-anchor="middle" x="88" y="-247" font-family="Helvetica,sans-Serif" font-size="10.00">KernelRegressionDesignLaw</text>
</a>
</g>
</g>
<!-- n1 -->
<g id="node2" class="node">
<title>n1</title>
<g id="a_node2"><a xlink:href="https://github.com/statopia/statlib/blob/main/Statlib/Nonparametric/Vocabulary/Kernel.lean#L33" xlink:title="noncomputable def · Statlib/Nonparametric/Vocabulary/Kernel.lean:33" target="_blank">
<path fill="#d6e9ff" stroke="#3b82f6" d="M462.91,-52C462.91,-52 413.09,-52 413.09,-52 407.09,-52 401.09,-46 401.09,-40 401.09,-40 401.09,-28 401.09,-28 401.09,-22 407.09,-16 413.09,-16 413.09,-16 462.91,-16 462.91,-16 468.91,-16 474.91,-22 474.91,-28 474.91,-28 474.91,-40 474.91,-40 474.91,-46 468.91,-52 462.91,-52"/>
<text xml:space="preserve" text-anchor="middle" x="438" y="-31" font-family="Helvetica,sans-Serif" font-size="10.00">scaledKernel</text>
</a>
</g>
</g>
<!-- n2 -->
<g id="node3" class="node">
<title>n2</title>
<g id="a_node3"><a xlink:href="https://github.com/statopia/statlib/blob/main/Statlib/Nonparametric/Vocabulary/Kernel.lean#L28" xlink:title="noncomputable def · Statlib/Nonparametric/Vocabulary/Kernel.lean:28" target="_blank">
<path fill="#d6e9ff" stroke="#3b82f6" d="M350.13,-196C350.13,-196 295.87,-196 295.87,-196 289.87,-196 283.87,-190 283.87,-184 283.87,-184 283.87,-172 283.87,-172 283.87,-166 289.87,-160 295.87,-160 295.87,-160 350.13,-160 350.13,-160 356.13,-160 362.13,-166 362.13,-172 362.13,-172 362.13,-184 362.13,-184 362.13,-190 356.13,-196 350.13,-196"/>
<text xml:space="preserve" text-anchor="middle" x="323" y="-175" font-family="Helvetica,sans-Serif" font-size="10.00">productKernel</text>
</a>
</g>
</g>
<!-- n3 -->
<g id="node4" class="node">
<title>n3</title>
<g id="a_node4"><a xlink:href="https://github.com/statopia/statlib/blob/main/Statlib/Nonparametric/Vocabulary/Kernel.lean#L51" xlink:title="noncomputable def · Statlib/Nonparametric/Vocabulary/Kernel.lean:51" target="_blank">
<path fill="#d6e9ff" stroke="#3b82f6" d="M272.02,-268C272.02,-268 209.98,-268 209.98,-268 203.98,-268 197.98,-262 197.98,-256 197.98,-256 197.98,-244 197.98,-244 197.98,-238 203.98,-232 209.98,-232 209.98,-232 272.02,-232 272.02,-232 278.02,-232 284.02,-238 284.02,-244 284.02,-244 284.02,-256 284.02,-256 284.02,-262 278.02,-268 272.02,-268"/>
<text xml:space="preserve" text-anchor="middle" x="241" y="-247" font-family="Helvetica,sans-Serif" font-size="10.00">kernelL2Energy</text>
</a>
</g>
</g>
<!-- n3&#45;&gt;n2 -->
<g id="edge1" class="edge">
<title>n3&#45;&gt;n2</title>
<path fill="none" stroke="#64748b" d="M261.27,-231.7C271.82,-222.69 284.84,-211.57 296.21,-201.87"/>
<polygon fill="#64748b" stroke="#64748b" points="297.79,-203.74 301.53,-197.33 294.61,-200.01 297.79,-203.74"/>
</g>
<!-- n4 -->
<g id="node5" class="node">
<title>n4</title>
<g id="a_node5"><a xlink:href="https://github.com/statopia/statlib/blob/main/Statlib/Nonparametric/Vocabulary/KernelRegression.lean#L26" xlink:title="def · Statlib/Nonparametric/Vocabulary/KernelRegression.lean:26" target="_blank">
<path fill="#d6e9ff" stroke="#3b82f6" d="M403.64,-268C403.64,-268 314.36,-268 314.36,-268 308.36,-268 302.36,-262 302.36,-256 302.36,-256 302.36,-244 302.36,-244 302.36,-238 308.36,-232 314.36,-232 314.36,-232 403.64,-232 403.64,-232 409.64,-232 415.64,-238 415.64,-244 415.64,-244 415.64,-256 415.64,-256 415.64,-262 409.64,-268 403.64,-268"/>
<text xml:space="preserve" text-anchor="middle" x="359" y="-247" font-family="Helvetica,sans-Serif" font-size="10.00">kernelInteriorCubeSet</text>
</a>
</g>
</g>
<!-- n5 -->
<g id="node6" class="node">
<title>n5</title>
<g id="a_node6"><a xlink:href="https://github.com/statopia/statlib/blob/main/Statlib/Nonparametric/Vocabulary/Kernel.lean#L39" xlink:title="noncomputable def · Statlib/Nonparametric/Vocabulary/Kernel.lean:39" target="_blank">
<path fill="#d6e9ff" stroke="#3b82f6" d="M508.3,-268C508.3,-268 445.7,-268 445.7,-268 439.7,-268 433.7,-262 433.7,-256 433.7,-256 433.7,-244 433.7,-244 433.7,-238 439.7,-232 445.7,-232 445.7,-232 508.3,-232 508.3,-232 514.3,-232 520.3,-238 520.3,-244 520.3,-244 520.3,-256 520.3,-256 520.3,-262 514.3,-268 508.3,-268"/>
<text xml:space="preserve" text-anchor="middle" x="477" y="-247" font-family="Helvetica,sans-Serif" font-size="10.00">kernelSmoother</text>
</a>
</g>
</g>
<!-- n5&#45;&gt;n2 -->
<g id="edge2" class="edge">
<title>n5&#45;&gt;n2</title>
<path fill="none" stroke="#64748b" d="M438.54,-231.52C417.42,-221.92 391.09,-209.95 368.9,-199.86"/>
<polygon fill="#64748b" stroke="#64748b" points="370,-197.67 362.62,-197.01 367.98,-202.14 370,-197.67"/>
</g>
<!-- n6 -->
<g id="node7" class="node">
<title>n6</title>
<g id="a_node7"><a xlink:href="https://github.com/statopia/statlib/blob/main/Statlib/Nonparametric/Vocabulary/Kernel.lean#L56" xlink:title="noncomputable def · Statlib/Nonparametric/Vocabulary/Kernel.lean:56" target="_blank">
<path fill="#d6e9ff" stroke="#3b82f6" d="M507.92,-124C507.92,-124 368.08,-124 368.08,-124 362.08,-124 356.08,-118 356.08,-112 356.08,-112 356.08,-100 356.08,-100 356.08,-94 362.08,-88 368.08,-88 368.08,-88 507.92,-88 507.92,-88 513.92,-88 519.92,-94 519.92,-100 519.92,-100 519.92,-112 519.92,-112 519.92,-118 513.92,-124 507.92,-124"/>
<text xml:space="preserve" text-anchor="middle" x="438" y="-103" font-family="Helvetica,sans-Serif" font-size="10.00">kernelLinearRegressionEstimator</text>
</a>
</g>
</g>
<!-- n6&#45;&gt;n1 -->
<g id="edge3" class="edge">
<title>n6&#45;&gt;n1</title>
<path fill="none" stroke="#64748b" d="M438,-87.7C438,-79.47 438,-69.48 438,-60.42"/>
<polygon fill="#64748b" stroke="#64748b" points="440.45,-60.62 438,-53.62 435.55,-60.62 440.45,-60.62"/>
</g>
<!-- n7 -->
<g id="node8" class="node">
<title>n7</title>
<g id="a_node8"><a xlink:href="https://github.com/statopia/statlib/blob/main/Statlib/Nonparametric/Vocabulary/KernelRegression.lean#L51" xlink:title="noncomputable def · Statlib/Nonparametric/Vocabulary/KernelRegression.lean:51" target="_blank">
<path fill="#d6e9ff" stroke="#3b82f6" d="M650.47,-124C650.47,-124 549.53,-124 549.53,-124 543.53,-124 537.53,-118 537.53,-112 537.53,-112 537.53,-100 537.53,-100 537.53,-94 543.53,-88 549.53,-88 549.53,-88 650.47,-88 650.47,-88 656.47,-88 662.47,-94 662.47,-100 662.47,-100 662.47,-112 662.47,-112 662.47,-118 656.47,-124 650.47,-124"/>
<text xml:space="preserve" text-anchor="middle" x="600" y="-103" font-family="Helvetica,sans-Serif" font-size="10.00">kernelRegressionWeight</text>
</a>
</g>
</g>
<!-- n7&#45;&gt;n1 -->
<g id="edge4" class="edge">
<title>n7&#45;&gt;n1</title>
<path fill="none" stroke="#64748b" d="M559.54,-87.52C536.2,-77.43 506.81,-64.73 482.78,-54.35"/>
<polygon fill="#64748b" stroke="#64748b" points="483.96,-52.19 476.56,-51.66 482.02,-56.69 483.96,-52.19"/>
</g>
<!-- n8 -->
<g id="node9" class="node">
<title>n8</title>
<g id="a_node9"><a xlink:href="https://github.com/statopia/statlib/blob/main/Statlib/Nonparametric/Vocabulary/KernelRegression.lean#L58" xlink:title="noncomputable def · Statlib/Nonparametric/Vocabulary/KernelRegression.lean:58" target="_blank">
<path fill="#d6e9ff" stroke="#3b82f6" d="M652.55,-196C652.55,-196 495.45,-196 495.45,-196 489.45,-196 483.45,-190 483.45,-184 483.45,-184 483.45,-172 483.45,-172 483.45,-166 489.45,-160 495.45,-160 495.45,-160 652.55,-160 652.55,-160 658.55,-160 664.55,-166 664.55,-172 664.55,-172 664.55,-184 664.55,-184 664.55,-190 658.55,-196 652.55,-196"/>
<text xml:space="preserve" text-anchor="middle" x="574" y="-175" font-family="Helvetica,sans-Serif" font-size="10.00">kernelRegressionWeightedResponse</text>
</a>
</g>
</g>
<!-- n8&#45;&gt;n7 -->
<g id="edge5" class="edge">
<title>n8&#45;&gt;n7</title>
<path fill="none" stroke="#64748b" d="M580.43,-159.7C583.54,-151.3 587.35,-141.07 590.77,-131.86"/>
<polygon fill="#64748b" stroke="#64748b" points="592.98,-132.94 593.12,-125.52 588.39,-131.23 592.98,-132.94"/>
</g>
<!-- n9 -->
<g id="node10" class="node">
<title>n9</title>
<g id="a_node10"><a xlink:href="https://github.com/statopia/statlib/blob/main/Statlib/Nonparametric/Vocabulary/KernelRegression.lean#L73" xlink:title="noncomputable def · Statlib/Nonparametric/Vocabulary/KernelRegression.lean:73" target="_blank">
<path fill="#d6e9ff" stroke="#3b82f6" d="M808.4,-268C808.4,-268 589.6,-268 589.6,-268 583.6,-268 577.6,-262 577.6,-256 577.6,-256 577.6,-244 577.6,-244 577.6,-238 583.6,-232 589.6,-232 589.6,-232 808.4,-232 808.4,-232 814.4,-232 820.4,-238 820.4,-244 820.4,-244 820.4,-256 820.4,-256 820.4,-262 814.4,-268 808.4,-268"/>
<text xml:space="preserve" text-anchor="middle" x="699" y="-247" font-family="Helvetica,sans-Serif" font-size="10.00">kernelRegressionCenteredWeightedResponseSum</text>
</a>
</g>
</g>
<!-- n9&#45;&gt;n8 -->
<g id="edge6" class="edge">
<title>n9&#45;&gt;n8</title>
<path fill="none" stroke="#64748b" d="M667.78,-231.52C650.95,-222.09 630.04,-210.38 612.24,-200.41"/>
<polygon fill="#64748b" stroke="#64748b" points="613.45,-198.28 606.14,-197 611.05,-202.56 613.45,-198.28"/>
</g>
<!-- n10 -->
<g id="node11" class="node">
<title>n10</title>
<g id="a_node11"><a xlink:href="https://github.com/statopia/statlib/blob/main/Statlib/Nonparametric/Vocabulary/KernelRegression.lean#L65" xlink:title="noncomputable def · Statlib/Nonparametric/Vocabulary/KernelRegression.lean:65" target="_blank">
<path fill="#d6e9ff" stroke="#3b82f6" d="M827.87,-196C827.87,-196 694.13,-196 694.13,-196 688.13,-196 682.13,-190 682.13,-184 682.13,-184 682.13,-172 682.13,-172 682.13,-166 688.13,-160 694.13,-160 694.13,-160 827.87,-160 827.87,-160 833.87,-160 839.87,-166 839.87,-172 839.87,-172 839.87,-184 839.87,-184 839.87,-190 833.87,-196 827.87,-196"/>
<text xml:space="preserve" text-anchor="middle" x="761" y="-175" font-family="Helvetica,sans-Serif" font-size="10.00">kernelRegressionWeightSqSum</text>
</a>
</g>
</g>
<!-- n10&#45;&gt;n7 -->
<g id="edge7" class="edge">
<title>n10&#45;&gt;n7</title>
<path fill="none" stroke="#64748b" d="M720.79,-159.52C698.61,-149.88 670.94,-137.84 647.68,-127.73"/>
<polygon fill="#64748b" stroke="#64748b" points="648.76,-125.53 641.37,-124.99 646.81,-130.02 648.76,-125.53"/>
</g>
<!-- n11 -->
<g id="node12" class="node">
<title>n11</title>
<g id="a_node12"><a xlink:href="https://github.com/statopia/statlib/blob/main/Statlib/Nonparametric/Vocabulary/KernelRegression.lean#L247" xlink:title="structure · Statlib/Nonparametric/Vocabulary/KernelRegression.lean:247" target="_blank">
<path fill="#e8dcff" stroke="#8b5cf6" stroke-width="3" d="M608.34,-340C608.34,-340 345.66,-340 345.66,-340 339.66,-340 333.66,-334 333.66,-328 333.66,-328 333.66,-316 333.66,-316 333.66,-310 339.66,-304 345.66,-304 345.66,-304 608.34,-304 608.34,-304 614.34,-304 620.34,-310 620.34,-316 620.34,-316 620.34,-328 620.34,-328 620.34,-334 614.34,-340 608.34,-340"/>
<text xml:space="preserve" text-anchor="middle" x="477" y="-319" font-family="Helvetica,sans-Serif" font-size="10.00">KernelRegressionUniformInteriorWellposednessAssumptions</text>
</a>
</g>
</g>
<!-- n11&#45;&gt;n0 -->
<g id="edge8" class="edge">
<title>n11&#45;&gt;n0</title>
<path fill="none" stroke="#64748b" d="M367.86,-302.51C310.16,-292.58 238.18,-279.96 174,-268 172.24,-267.67 170.45,-267.34 168.66,-267"/>
<polygon fill="#64748b" stroke="#64748b" points="169.53,-264.67 162.19,-265.77 168.61,-269.48 169.53,-264.67"/>
</g>
<!-- n11&#45;&gt;n1 -->
<g id="edge9" class="edge">
<title>n11&#45;&gt;n1</title>
<path fill="none" stroke="#64748b" d="M332.5,-311.45C270.62,-304.06 208.15,-291 189,-268 114.25,-178.24 302.61,-88.44 392.93,-51.98"/>
<polygon fill="#64748b" stroke="#64748b" points="393.83,-54.26 399.43,-49.38 392.02,-49.71 393.83,-54.26"/>
</g>
<!-- n11&#45;&gt;n3 -->
<g id="edge10" class="edge">
<title>n11&#45;&gt;n3</title>
<path fill="none" stroke="#64748b" d="M410.83,-302.55C375.73,-292.61 331.93,-279.96 293,-268 292.82,-267.95 292.65,-267.89 292.47,-267.84"/>
<polygon fill="#64748b" stroke="#64748b" points="293.23,-265.51 285.82,-265.76 291.77,-270.19 293.23,-265.51"/>
</g>
<!-- n11&#45;&gt;n4 -->
<g id="edge11" class="edge">
<title>n11&#45;&gt;n4</title>
<path fill="none" stroke="#64748b" d="M446,-302.61C430.48,-293.4 411.61,-282.21 395.41,-272.6"/>
<polygon fill="#64748b" stroke="#64748b" points="396.75,-270.54 389.48,-269.08 394.25,-274.76 396.75,-270.54"/>
</g>
<!-- n11&#45;&gt;n5 -->
<g id="edge12" class="edge">
<title>n11&#45;&gt;n5</title>
<path fill="none" stroke="#64748b" d="M477,-302.61C477,-294.59 477,-285.05 477,-276.37"/>
<polygon fill="#64748b" stroke="#64748b" points="479.45,-276.58 477,-269.58 474.55,-276.58 479.45,-276.58"/>
</g>
<!-- n11&#45;&gt;n6 -->
<g id="edge13" class="edge">
<title>n11&#45;&gt;n6</title>
<path fill="none" stroke="#64748b" d="M502.12,-302.73C512.52,-293.6 523.44,-281.6 529,-268 535.05,-253.19 536.61,-246.07 529,-232 515.11,-206.3 492.55,-218.57 474,-196 458.7,-177.38 449.2,-151.4 443.83,-132.31"/>
<polygon fill="#64748b" stroke="#64748b" points="446.26,-131.94 442.1,-125.8 441.53,-133.2 446.26,-131.94"/>
</g>
<!-- n11&#45;&gt;n8 -->
<g id="edge16" class="edge">
<title>n11&#45;&gt;n8</title>
<path fill="none" stroke="#64748b" d="M507.33,-302.69C520.17,-293.64 534.35,-281.7 544,-268 557.43,-248.92 565.22,-223.37 569.48,-204.53"/>
<polygon fill="#64748b" stroke="#64748b" points="571.83,-205.24 570.88,-197.88 567.04,-204.23 571.83,-205.24"/>
</g>
<!-- n11&#45;&gt;n9 -->
<g id="edge14" class="edge">
<title>n11&#45;&gt;n9</title>
<path fill="none" stroke="#64748b" d="M535.62,-302.52C566.53,-292.77 604.47,-280.81 636,-270.86"/>
<polygon fill="#64748b" stroke="#64748b" points="636.49,-273.28 642.43,-268.84 635.02,-268.61 636.49,-273.28"/>
</g>
<!-- n11&#45;&gt;n10 -->
<g id="edge15" class="edge">
<title>n11&#45;&gt;n10</title>
<path fill="none" stroke="#64748b" d="M621.76,-317.77C706.46,-312.48 801.94,-299.44 829,-268 839.44,-255.87 836.02,-246.38 829,-232 822.96,-219.64 812.49,-209.32 801.55,-201.17"/>
<polygon fill="#64748b" stroke="#64748b" points="803.09,-199.26 795.95,-197.25 800.28,-203.27 803.09,-199.26"/>
</g>
</g>
</svg>
