<?xml version="1.0" encoding="UTF-8" standalone="no"?>
<!DOCTYPE svg PUBLIC "-//W3C//DTD SVG 1.1//EN"
 "http://www.w3.org/Graphics/SVG/1.1/DTD/svg11.dtd">
<!-- Generated by graphviz version 15.0.0 (20260523.1842)
 -->
<!-- Title: kernel_smoother_classApproximationError_le_of_holder_bias_rate Pages: 1 -->
<svg width="894pt" height="410pt"
 viewBox="0.00 0.00 894.00 410.00" xmlns="http://www.w3.org/2000/svg" xmlns:xlink="http://www.w3.org/1999/xlink">
<g id="graph0" class="graph" transform="scale(1 1) rotate(0) translate(4 406)">
<title>kernel_smoother_classApproximationError_le_of_holder_bias_rate</title>
<polygon fill="white" stroke="none" points="-4,4 -4,-406 890,-406 890,4 -4,4"/>
<text xml:space="preserve" text-anchor="middle" x="443" y="-385.4" font-family="Helvetica,sans-Serif" font-size="14.00">Proof narrative — kernel_smoother_classApproximationError_le_of_holder_bias_rate &#160;(14 decls)</text>
<g id="clust1" class="cluster">
<title>cluster_0</title>
<path fill="none" stroke="#cbd5e1" stroke-dasharray="5,2" d="M20,-8C20,-8 866,-8 866,-8 872,-8 878,-14 878,-20 878,-20 878,-357.2 878,-357.2 878,-363.2 872,-369.2 866,-369.2 866,-369.2 20,-369.2 20,-369.2 14,-369.2 8,-363.2 8,-357.2 8,-357.2 8,-20 8,-20 8,-14 14,-8 20,-8"/>
<text xml:space="preserve" text-anchor="middle" x="443" y="-355.3" font-family="Helvetica,sans-Serif" font-size="11.00">Nonparametric</text>
</g>
<!-- n0 -->
<g id="node1" class="node">
<title>n0</title>
<g id="a_node1"><a xlink:href="https://github.com/statopia/statlib/blob/main/Statlib/Nonparametric/Vocabulary/FunctionClasses.lean#L16" xlink:title="abbrev · Statlib/Nonparametric/Vocabulary/FunctionClasses.lean:16" target="_blank">
<path fill="#d6e9ff" stroke="#3b82f6" d="M103.68,-196C103.68,-196 48.32,-196 48.32,-196 42.32,-196 36.32,-190 36.32,-184 36.32,-184 36.32,-172 36.32,-172 36.32,-166 42.32,-160 48.32,-160 48.32,-160 103.68,-160 103.68,-160 109.68,-160 115.68,-166 115.68,-172 115.68,-172 115.68,-184 115.68,-184 115.68,-190 109.68,-196 103.68,-196"/>
<text xml:space="preserve" text-anchor="middle" x="76" y="-175" font-family="Helvetica,sans-Serif" font-size="10.00">FunctionClass</text>
</a>
</g>
</g>
<!-- n1 -->
<g id="node2" class="node">
<title>n1</title>
<g id="a_node2"><a xlink:href="https://github.com/statopia/statlib/blob/main/Statlib/Nonparametric/Vocabulary/Kernel.lean#L28" xlink:title="noncomputable def · Statlib/Nonparametric/Vocabulary/Kernel.lean:28" target="_blank">
<path fill="#d6e9ff" stroke="#3b82f6" d="M599.13,-52C599.13,-52 544.87,-52 544.87,-52 538.87,-52 532.87,-46 532.87,-40 532.87,-40 532.87,-28 532.87,-28 532.87,-22 538.87,-16 544.87,-16 544.87,-16 599.13,-16 599.13,-16 605.13,-16 611.13,-22 611.13,-28 611.13,-28 611.13,-40 611.13,-40 611.13,-46 605.13,-52 599.13,-52"/>
<text xml:space="preserve" text-anchor="middle" x="572" y="-31" font-family="Helvetica,sans-Serif" font-size="10.00">productKernel</text>
</a>
</g>
</g>
<!-- n2 -->
<g id="node3" class="node">
<title>n2</title>
<g id="a_node3"><a xlink:href="https://github.com/statopia/statlib/blob/main/Statlib/Nonparametric/Vocabulary/FunctionClasses.lean#L44" xlink:title="def · Statlib/Nonparametric/Vocabulary/FunctionClasses.lean:44" target="_blank">
<path fill="#d6e9ff" stroke="#3b82f6" d="M778.8,-124C778.8,-124 711.2,-124 711.2,-124 705.2,-124 699.2,-118 699.2,-112 699.2,-112 699.2,-100 699.2,-100 699.2,-94 705.2,-88 711.2,-88 711.2,-88 778.8,-88 778.8,-88 784.8,-88 790.8,-94 790.8,-100 790.8,-100 790.8,-112 790.8,-112 790.8,-118 784.8,-124 778.8,-124"/>
<text xml:space="preserve" text-anchor="middle" x="745" y="-103" font-family="Helvetica,sans-Serif" font-size="10.00">IsHolderFunction</text>
</a>
</g>
</g>
<!-- n3 -->
<g id="node4" class="node">
<title>n3</title>
<g id="a_node4"><a xlink:href="https://github.com/statopia/statlib/blob/main/Statlib/Nonparametric/Vocabulary/Kernel.lean#L39" xlink:title="noncomputable def · Statlib/Nonparametric/Vocabulary/Kernel.lean:39" target="_blank">
<path fill="#d6e9ff" stroke="#3b82f6" d="M858.3,-196C858.3,-196 795.7,-196 795.7,-196 789.7,-196 783.7,-190 783.7,-184 783.7,-184 783.7,-172 783.7,-172 783.7,-166 789.7,-160 795.7,-160 795.7,-160 858.3,-160 858.3,-160 864.3,-160 870.3,-166 870.3,-172 870.3,-172 870.3,-184 870.3,-184 870.3,-190 864.3,-196 858.3,-196"/>
<text xml:space="preserve" text-anchor="middle" x="827" y="-175" font-family="Helvetica,sans-Serif" font-size="10.00">kernelSmoother</text>
</a>
</g>
</g>
<!-- n3&#45;&gt;n1 -->
<g id="edge1" class="edge">
<title>n3&#45;&gt;n1</title>
<path fill="none" stroke="#64748b" d="M826.67,-159.61C825.31,-139.46 819.92,-106.65 800,-88 774.27,-63.91 678.72,-48.13 619.79,-40.46"/>
<polygon fill="#64748b" stroke="#64748b" points="620.13,-38.04 612.87,-39.58 619.51,-42.9 620.13,-38.04"/>
</g>
<!-- n4 -->
<g id="node5" class="node">
<title>n4</title>
<g id="a_node5"><a xlink:href="https://github.com/statopia/statlib/blob/main/Statlib/Nonparametric/Vocabulary/Risk.lean#L60" xlink:title="noncomputable def · Statlib/Nonparametric/Vocabulary/Risk.lean:60" target="_blank">
<path fill="#d6e9ff" stroke="#3b82f6" d="M269.25,-124C269.25,-124 172.75,-124 172.75,-124 166.75,-124 160.75,-118 160.75,-112 160.75,-112 160.75,-100 160.75,-100 160.75,-94 166.75,-88 172.75,-88 172.75,-88 269.25,-88 269.25,-88 275.25,-88 281.25,-94 281.25,-100 281.25,-100 281.25,-112 281.25,-112 281.25,-118 275.25,-124 269.25,-124"/>
<text xml:space="preserve" text-anchor="middle" x="221" y="-103" font-family="Helvetica,sans-Serif" font-size="10.00">integratedSquaredError</text>
</a>
</g>
</g>
<!-- n5 -->
<g id="node6" class="node">
<title>n5</title>
<g id="a_node6"><a xlink:href="https://github.com/statopia/statlib/blob/main/Statlib/Nonparametric/Vocabulary/Kernel.lean#L45" xlink:title="noncomputable def · Statlib/Nonparametric/Vocabulary/Kernel.lean:45" target="_blank">
<path fill="#d6e9ff" stroke="#3b82f6" d="M599.68,-124C599.68,-124 544.32,-124 544.32,-124 538.32,-124 532.32,-118 532.32,-112 532.32,-112 532.32,-100 532.32,-100 532.32,-94 538.32,-88 544.32,-88 544.32,-88 599.68,-88 599.68,-88 605.68,-88 611.68,-94 611.68,-100 611.68,-100 611.68,-112 611.68,-112 611.68,-118 605.68,-124 599.68,-124"/>
<text xml:space="preserve" text-anchor="middle" x="572" y="-103" font-family="Helvetica,sans-Serif" font-size="10.00">kernelMoment</text>
</a>
</g>
</g>
<!-- n5&#45;&gt;n1 -->
<g id="edge2" class="edge">
<title>n5&#45;&gt;n1</title>
<path fill="none" stroke="#64748b" d="M572,-87.7C572,-79.47 572,-69.48 572,-60.42"/>
<polygon fill="#64748b" stroke="#64748b" points="574.45,-60.62 572,-53.62 569.55,-60.62 574.45,-60.62"/>
</g>
<!-- n6 -->
<g id="node7" class="node">
<title>n6</title>
<g id="a_node7"><a xlink:href="https://github.com/statopia/statlib/blob/main/Statlib/Nonparametric/Vocabulary/Risk.lean#L75" xlink:title="noncomputable def · Statlib/Nonparametric/Vocabulary/Risk.lean:75" target="_blank">
<path fill="#d6e9ff" stroke="#3b82f6" d="M176.46,-268C176.46,-268 75.54,-268 75.54,-268 69.54,-268 63.54,-262 63.54,-256 63.54,-256 63.54,-244 63.54,-244 63.54,-238 69.54,-232 75.54,-232 75.54,-232 176.46,-232 176.46,-232 182.46,-232 188.46,-238 188.46,-244 188.46,-244 188.46,-256 188.46,-256 188.46,-262 182.46,-268 176.46,-268"/>
<text xml:space="preserve" text-anchor="middle" x="126" y="-247" font-family="Helvetica,sans-Serif" font-size="10.00">classApproximationError</text>
</a>
</g>
</g>
<!-- n6&#45;&gt;n0 -->
<g id="edge3" class="edge">
<title>n6&#45;&gt;n0</title>
<path fill="none" stroke="#64748b" d="M113.64,-231.7C107.46,-223.05 99.89,-212.45 93.16,-203.03"/>
<polygon fill="#64748b" stroke="#64748b" points="95.16,-201.61 89.1,-197.34 91.17,-204.46 95.16,-201.61"/>
</g>
<!-- n6&#45;&gt;n4 -->
<g id="edge4" class="edge">
<title>n6&#45;&gt;n4</title>
<path fill="none" stroke="#64748b" d="M127.32,-231.54C129.48,-212.5 135.17,-181.85 150,-160 158.23,-147.87 170.18,-137.43 181.93,-129.1"/>
<polygon fill="#64748b" stroke="#64748b" points="183.12,-131.25 187.54,-125.29 180.37,-127.19 183.12,-131.25"/>
</g>
<!-- n7 -->
<g id="node8" class="node">
<title>n7</title>
<g id="a_node8"><a xlink:href="https://github.com/statopia/statlib/blob/main/Statlib/Nonparametric/Approximation/Kernel.lean#L17" xlink:title="theorem · Statlib/Nonparametric/Approximation/Kernel.lean:17" target="_blank">
<path fill="#ffe6a3" stroke="#d4a017" d="M714.49,-196C714.49,-196 583.51,-196 583.51,-196 577.51,-196 571.51,-190 571.51,-184 571.51,-184 571.51,-172 571.51,-172 571.51,-166 577.51,-160 583.51,-160 583.51,-160 714.49,-160 714.49,-160 720.49,-160 726.49,-166 726.49,-172 726.49,-172 726.49,-184 726.49,-184 726.49,-190 720.49,-196 714.49,-196"/>
<text xml:space="preserve" text-anchor="middle" x="649" y="-175" font-family="Helvetica,sans-Serif" font-size="10.00">kernel_holder_bias_normalized</text>
</a>
</g>
</g>
<!-- n7&#45;&gt;n1 -->
<g id="edge5" class="edge">
<title>n7&#45;&gt;n1</title>
<path fill="none" stroke="#64748b" d="M645.91,-159.68C642.07,-141.04 634.33,-110.98 621,-88 614.83,-77.36 606.18,-67.08 597.87,-58.46"/>
<polygon fill="#64748b" stroke="#64748b" points="599.66,-56.79 592.99,-53.56 596.2,-60.25 599.66,-56.79"/>
</g>
<!-- n7&#45;&gt;n2 -->
<g id="edge6" class="edge">
<title>n7&#45;&gt;n2</title>
<path fill="none" stroke="#64748b" d="M672.73,-159.7C685.31,-150.53 700.9,-139.16 714.38,-129.33"/>
<polygon fill="#64748b" stroke="#64748b" points="715.77,-131.34 719.99,-125.24 712.89,-127.38 715.77,-131.34"/>
</g>
<!-- n7&#45;&gt;n5 -->
<g id="edge7" class="edge">
<title>n7&#45;&gt;n5</title>
<path fill="none" stroke="#64748b" d="M629.97,-159.7C620.06,-150.69 607.83,-139.57 597.16,-129.87"/>
<polygon fill="#64748b" stroke="#64748b" points="599.03,-128.26 592.2,-125.37 595.73,-131.89 599.03,-128.26"/>
</g>
<!-- n8 -->
<g id="node9" class="node">
<title>n8</title>
<g id="a_node9"><a xlink:href="https://github.com/statopia/statlib/blob/main/Statlib/Nonparametric/Vocabulary/Estimator.lean#L28" xlink:title="noncomputable def · Statlib/Nonparametric/Vocabulary/Estimator.lean:28" target="_blank">
<path fill="#d6e9ff" stroke="#3b82f6" d="M468,-52C468,-52 438,-52 438,-52 432,-52 426,-46 426,-40 426,-40 426,-28 426,-28 426,-22 432,-16 438,-16 438,-16 468,-16 468,-16 474,-16 480,-22 480,-28 480,-28 480,-40 480,-40 480,-46 474,-52 468,-52"/>
<text xml:space="preserve" text-anchor="middle" x="453" y="-31" font-family="Helvetica,sans-Serif" font-size="10.00">bias</text>
</a>
</g>
</g>
<!-- n9 -->
<g id="node10" class="node">
<title>n9</title>
<g id="a_node10"><a xlink:href="https://github.com/statopia/statlib/blob/main/Statlib/Nonparametric/Vocabulary/NeuralNetwork.lean#L23" xlink:title="structure · Statlib/Nonparametric/Vocabulary/NeuralNetwork.lean:23" target="_blank">
<path fill="#e8dcff" stroke="#8b5cf6" d="M448.96,-124C448.96,-124 403.04,-124 403.04,-124 397.04,-124 391.04,-118 391.04,-112 391.04,-112 391.04,-100 391.04,-100 391.04,-94 397.04,-88 403.04,-88 403.04,-88 448.96,-88 448.96,-88 454.96,-88 460.96,-94 460.96,-100 460.96,-100 460.96,-112 460.96,-112 460.96,-118 454.96,-124 448.96,-124"/>
<text xml:space="preserve" text-anchor="middle" x="426" y="-103" font-family="Helvetica,sans-Serif" font-size="10.00">DenseLayer</text>
</a>
</g>
</g>
<!-- n9&#45;&gt;n8 -->
<g id="edge8" class="edge">
<title>n9&#45;&gt;n8</title>
<path fill="none" stroke="#64748b" d="M432.67,-87.7C435.91,-79.3 439.86,-69.07 443.41,-59.86"/>
<polygon fill="#64748b" stroke="#64748b" points="445.62,-60.93 445.86,-53.52 441.05,-59.17 445.62,-60.93"/>
</g>
<!-- n10 -->
<g id="node11" class="node">
<title>n10</title>
<g id="a_node11"><a xlink:href="https://github.com/statopia/statlib/blob/main/Statlib/Nonparametric/Vocabulary/NeuralNetwork.lean#L30" xlink:title="noncomputable def · Statlib/Nonparametric/Vocabulary/NeuralNetwork.lean:30" target="_blank">
<path fill="#d6e9ff" stroke="#3b82f6" d="M482,-196C482,-196 452,-196 452,-196 446,-196 440,-190 440,-184 440,-184 440,-172 440,-172 440,-166 446,-160 452,-160 452,-160 482,-160 482,-160 488,-160 494,-166 494,-172 494,-172 494,-184 494,-184 494,-190 488,-196 482,-196"/>
<text xml:space="preserve" text-anchor="middle" x="467" y="-175" font-family="Helvetica,sans-Serif" font-size="10.00">apply</text>
</a>
</g>
</g>
<!-- n10&#45;&gt;n8 -->
<g id="edge10" class="edge">
<title>n10&#45;&gt;n8</title>
<path fill="none" stroke="#64748b" d="M469.48,-159.82C471.64,-141.81 473.87,-112.74 470,-88 468.55,-78.74 465.76,-68.89 462.85,-60.22"/>
<polygon fill="#64748b" stroke="#64748b" points="465.21,-59.55 460.57,-53.76 460.59,-61.18 465.21,-59.55"/>
</g>
<!-- n10&#45;&gt;n9 -->
<g id="edge9" class="edge">
<title>n10&#45;&gt;n9</title>
<path fill="none" stroke="#64748b" d="M456.87,-159.7C451.85,-151.14 445.71,-140.66 440.24,-131.3"/>
<polygon fill="#64748b" stroke="#64748b" points="442.44,-130.21 436.78,-125.41 438.21,-132.69 442.44,-130.21"/>
</g>
<!-- n11 -->
<g id="node12" class="node">
<title>n11</title>
<g id="a_node12"><a xlink:href="https://github.com/statopia/statlib/blob/main/Statlib/Nonparametric/Approximation/Metric.lean#L10" xlink:title="theorem · Statlib/Nonparametric/Approximation/Metric.lean:10" target="_blank">
<path fill="#ffe6a3" stroke="#d4a017" d="M390.19,-196C390.19,-196 185.81,-196 185.81,-196 179.81,-196 173.81,-190 173.81,-184 173.81,-184 173.81,-172 173.81,-172 173.81,-166 179.81,-160 185.81,-160 185.81,-160 390.19,-160 390.19,-160 396.19,-160 402.19,-166 402.19,-172 402.19,-172 402.19,-184 402.19,-184 402.19,-190 396.19,-196 390.19,-196"/>
<text xml:space="preserve" text-anchor="middle" x="288" y="-175" font-family="Helvetica,sans-Serif" font-size="10.00">integratedSquaredError_le_of_pointwise_bound</text>
</a>
</g>
</g>
<!-- n11&#45;&gt;n4 -->
<g id="edge11" class="edge">
<title>n11&#45;&gt;n4</title>
<path fill="none" stroke="#64748b" d="M271.44,-159.7C262.92,-150.8 252.42,-139.82 243.2,-130.2"/>
<polygon fill="#64748b" stroke="#64748b" points="245.03,-128.56 238.42,-125.2 241.49,-131.95 245.03,-128.56"/>
</g>
<!-- n12 -->
<g id="node13" class="node">
<title>n12</title>
<g id="a_node13"><a xlink:href="https://github.com/statopia/statlib/blob/main/Statlib/Nonparametric/Approximation/Kernel.lean#L176" xlink:title="theorem · Statlib/Nonparametric/Approximation/Kernel.lean:176" target="_blank">
<path fill="#ffe6a3" stroke="#d4a017" d="M525.97,-268C525.97,-268 306.03,-268 306.03,-268 300.03,-268 294.03,-262 294.03,-256 294.03,-256 294.03,-244 294.03,-244 294.03,-238 300.03,-232 306.03,-232 306.03,-232 525.97,-232 525.97,-232 531.97,-232 537.97,-238 537.97,-244 537.97,-244 537.97,-256 537.97,-256 537.97,-262 531.97,-268 525.97,-268"/>
<text xml:space="preserve" text-anchor="middle" x="416" y="-247" font-family="Helvetica,sans-Serif" font-size="10.00">kernel_holder_bias_integratedSquaredError_bound</text>
</a>
</g>
</g>
<!-- n12&#45;&gt;n1 -->
<g id="edge12" class="edge">
<title>n12&#45;&gt;n1</title>
<path fill="none" stroke="#64748b" d="M459.65,-231.63C475.62,-223.18 492.36,-211.44 503,-196 530.7,-155.8 501.12,-131.64 523,-88 528.51,-77 537,-66.65 545.38,-58.05"/>
<polygon fill="#64748b" stroke="#64748b" points="547.05,-59.84 550.33,-53.19 543.62,-56.35 547.05,-59.84"/>
</g>
<!-- n12&#45;&gt;n2 -->
<g id="edge13" class="edge">
<title>n12&#45;&gt;n2</title>
<path fill="none" stroke="#64748b" d="M538.16,-243.65C616.41,-237.5 708.15,-224.31 735,-196 750.75,-179.39 751.7,-152.45 749.65,-132.56"/>
<polygon fill="#64748b" stroke="#64748b" points="752.1,-132.38 748.78,-125.75 747.24,-133 752.1,-132.38"/>
</g>
<!-- n12&#45;&gt;n3 -->
<g id="edge14" class="edge">
<title>n12&#45;&gt;n3</title>
<path fill="none" stroke="#64748b" d="M537.28,-231.54C600.8,-221.95 679.77,-209.31 750,-196 758.17,-194.45 766.8,-192.68 775.21,-190.88"/>
<polygon fill="#64748b" stroke="#64748b" points="775.72,-193.28 782.04,-189.4 774.68,-188.49 775.72,-193.28"/>
</g>
<!-- n12&#45;&gt;n4 -->
<g id="edge15" class="edge">
<title>n12&#45;&gt;n4</title>
<path fill="none" stroke="#64748b" d="M420.48,-231.51C424.39,-211.88 427.2,-180.14 411,-160 395.58,-140.83 337.61,-126.48 289.72,-117.58"/>
<polygon fill="#64748b" stroke="#64748b" points="290.33,-115.2 283.01,-116.36 289.46,-120.03 290.33,-115.2"/>
</g>
<!-- n12&#45;&gt;n5 -->
<g id="edge16" class="edge">
<title>n12&#45;&gt;n5</title>
<path fill="none" stroke="#64748b" d="M462.05,-231.58C480.89,-222.9 501.97,-211 518,-196 537.37,-177.87 552.28,-151.28 561.48,-131.88"/>
<polygon fill="#64748b" stroke="#64748b" points="563.62,-133.07 564.32,-125.69 559.17,-131.03 563.62,-133.07"/>
</g>
<!-- n12&#45;&gt;n7 -->
<g id="edge17" class="edge">
<title>n12&#45;&gt;n7</title>
<path fill="none" stroke="#64748b" d="M474.19,-231.52C507.26,-221.58 548.78,-209.11 583.05,-198.81"/>
<polygon fill="#64748b" stroke="#64748b" points="583.7,-201.18 589.69,-196.82 582.29,-196.48 583.7,-201.18"/>
</g>
<!-- n12&#45;&gt;n10 -->
<g id="edge18" class="edge">
<title>n12&#45;&gt;n10</title>
<path fill="none" stroke="#64748b" d="M428.61,-231.7C434.97,-222.97 442.78,-212.24 449.7,-202.75"/>
<polygon fill="#64748b" stroke="#64748b" points="451.51,-204.43 453.65,-197.33 447.54,-201.54 451.51,-204.43"/>
</g>
<!-- n12&#45;&gt;n11 -->
<g id="edge19" class="edge">
<title>n12&#45;&gt;n11</title>
<path fill="none" stroke="#64748b" d="M384.03,-231.52C366.64,-222.01 345,-210.17 326.67,-200.15"/>
<polygon fill="#64748b" stroke="#64748b" points="328.21,-198.2 320.89,-196.99 325.86,-202.5 328.21,-198.2"/>
</g>
<!-- n13 -->
<g id="node14" class="node">
<title>n13</title>
<g id="a_node14"><a xlink:href="https://github.com/statopia/statlib/blob/main/Statlib/Nonparametric/Approximation/Kernel.lean#L265" xlink:title="theorem · Statlib/Nonparametric/Approximation/Kernel.lean:265" target="_blank">
<path fill="#ffe6a3" stroke="#d4a017" stroke-width="3" d="M455.14,-340C455.14,-340 166.86,-340 166.86,-340 160.86,-340 154.86,-334 154.86,-328 154.86,-328 154.86,-316 154.86,-316 154.86,-310 160.86,-304 166.86,-304 166.86,-304 455.14,-304 455.14,-304 461.14,-304 467.14,-310 467.14,-316 467.14,-316 467.14,-328 467.14,-328 467.14,-334 461.14,-340 455.14,-340"/>
<text xml:space="preserve" text-anchor="middle" x="311" y="-319" font-family="Helvetica,sans-Serif" font-size="10.00">kernel_smoother_classApproximationError_le_of_holder_bias_rate</text>
</a>
</g>
</g>
<!-- n13&#45;&gt;n0 -->
<g id="edge20" class="edge">
<title>n13&#45;&gt;n0</title>
<path fill="none" stroke="#64748b" d="M153.49,-304.82C109.02,-296.81 68.9,-285.07 55,-268 40.22,-249.85 49.43,-223.09 59.9,-203.65"/>
<polygon fill="#64748b" stroke="#64748b" points="61.98,-204.94 63.33,-197.65 57.73,-202.51 61.98,-204.94"/>
</g>
<!-- n13&#45;&gt;n1 -->
<g id="edge21" class="edge">
<title>n13&#45;&gt;n1</title>
<path fill="none" stroke="#64748b" d="M153.71,-304.59C105.24,-296.46 60.09,-284.7 43,-268 8.29,-234.09 2.72,-202.01 27,-160 59.08,-104.49 91.03,-107.83 152,-88 295.24,-41.4 340.16,-75.14 489,-52 500.46,-50.22 512.74,-47.92 524.24,-45.59"/>
<polygon fill="#64748b" stroke="#64748b" points="524.61,-48.02 530.97,-44.21 523.62,-43.22 524.61,-48.02"/>
</g>
<!-- n13&#45;&gt;n2 -->
<g id="edge22" class="edge">
<title>n13&#45;&gt;n2</title>
<path fill="none" stroke="#64748b" d="M438.85,-302.54C554.5,-282.79 711.89,-247.24 747,-196 759.63,-177.56 757.36,-151.56 752.98,-132.42"/>
<polygon fill="#64748b" stroke="#64748b" points="755.42,-132.06 751.32,-125.89 750.67,-133.27 755.42,-132.06"/>
</g>
<!-- n13&#45;&gt;n3 -->
<g id="edge23" class="edge">
<title>n13&#45;&gt;n3</title>
<path fill="none" stroke="#64748b" d="M468.39,-317.06C580.93,-311.62 720.84,-298.69 770,-268 793.5,-253.33 809.1,-225.01 817.95,-204.25"/>
<polygon fill="#64748b" stroke="#64748b" points="820.2,-205.23 820.56,-197.83 815.66,-203.39 820.2,-205.23"/>
</g>
<!-- n13&#45;&gt;n4 -->
<g id="edge24" class="edge">
<title>n13&#45;&gt;n4</title>
<path fill="none" stroke="#64748b" d="M287.59,-302.74C248.03,-271.63 171.59,-210.32 165,-196 158.31,-181.47 158.67,-174.7 165,-160 169.99,-148.41 178.89,-138.17 188.16,-129.86"/>
<polygon fill="#64748b" stroke="#64748b" points="189.67,-131.79 193.43,-125.4 186.5,-128.05 189.67,-131.79"/>
</g>
<!-- n13&#45;&gt;n5 -->
<g id="edge25" class="edge">
<title>n13&#45;&gt;n5</title>
<path fill="none" stroke="#64748b" d="M454.04,-302.52C495.32,-294.32 533.03,-283.04 547,-268 580.02,-232.45 555.38,-207.92 563,-160 564.43,-151.01 566.07,-141.18 567.56,-132.46"/>
<polygon fill="#64748b" stroke="#64748b" points="569.96,-132.98 568.73,-125.66 565.13,-132.15 569.96,-132.98"/>
</g>
<!-- n13&#45;&gt;n6 -->
<g id="edge26" class="edge">
<title>n13&#45;&gt;n6</title>
<path fill="none" stroke="#64748b" d="M262.39,-302.61C237.07,-293.03 206.04,-281.28 179.97,-271.42"/>
<polygon fill="#64748b" stroke="#64748b" points="180.88,-269.15 173.47,-268.96 179.15,-273.73 180.88,-269.15"/>
</g>
<!-- n13&#45;&gt;n12 -->
<g id="edge27" class="edge">
<title>n13&#45;&gt;n12</title>
<path fill="none" stroke="#64748b" d="M338.59,-302.61C352.27,-293.49 368.89,-282.41 383.21,-272.86"/>
<polygon fill="#64748b" stroke="#64748b" points="384.32,-275.07 388.78,-269.15 381.6,-270.99 384.32,-275.07"/>
</g>
</g>
</svg>
