<?xml version="1.0" encoding="UTF-8" standalone="no"?>
<!DOCTYPE svg PUBLIC "-//W3C//DTD SVG 1.1//EN"
 "http://www.w3.org/Graphics/SVG/1.1/DTD/svg11.dtd">
<!-- Generated by graphviz version 15.0.0 (20260523.1842)
 -->
<!-- Title: kernel_regression_bias_ise_bound Pages: 1 -->
<svg width="776pt" height="410pt"
 viewBox="0.00 0.00 776.00 410.00" xmlns="http://www.w3.org/2000/svg" xmlns:xlink="http://www.w3.org/1999/xlink">
<g id="graph0" class="graph" transform="scale(1 1) rotate(0) translate(4 406)">
<title>kernel_regression_bias_ise_bound</title>
<polygon fill="white" stroke="none" points="-4,4 -4,-406 772,-406 772,4 -4,4"/>
<text xml:space="preserve" text-anchor="middle" x="384" y="-385.4" font-family="Helvetica,sans-Serif" font-size="14.00">Proof narrative — kernel_regression_bias_ise_bound &#160;(12 decls)</text>
<g id="clust1" class="cluster">
<title>cluster_0</title>
<path fill="none" stroke="#cbd5e1" stroke-dasharray="5,2" d="M20,-8C20,-8 748,-8 748,-8 754,-8 760,-14 760,-20 760,-20 760,-357.2 760,-357.2 760,-363.2 754,-369.2 748,-369.2 748,-369.2 20,-369.2 20,-369.2 14,-369.2 8,-363.2 8,-357.2 8,-357.2 8,-20 8,-20 8,-14 14,-8 20,-8"/>
<text xml:space="preserve" text-anchor="middle" x="384" y="-355.3" font-family="Helvetica,sans-Serif" font-size="11.00">Nonparametric</text>
</g>
<!-- n0 -->
<g id="node1" class="node">
<title>n0</title>
<g id="a_node1"><a xlink:href="https://github.com/statopia/statlib/blob/main/Statlib/Nonparametric/Vocabulary/Kernel.lean#L28" xlink:title="noncomputable def · Statlib/Nonparametric/Vocabulary/Kernel.lean:28" target="_blank">
<path fill="#d6e9ff" stroke="#3b82f6" d="M188.13,-52C188.13,-52 133.87,-52 133.87,-52 127.87,-52 121.87,-46 121.87,-40 121.87,-40 121.87,-28 121.87,-28 121.87,-22 127.87,-16 133.87,-16 133.87,-16 188.13,-16 188.13,-16 194.13,-16 200.13,-22 200.13,-28 200.13,-28 200.13,-40 200.13,-40 200.13,-46 194.13,-52 188.13,-52"/>
<text xml:space="preserve" text-anchor="middle" x="161" y="-31" font-family="Helvetica,sans-Serif" font-size="10.00">productKernel</text>
</a>
</g>
</g>
<!-- n1 -->
<g id="node2" class="node">
<title>n1</title>
<g id="a_node2"><a xlink:href="https://github.com/statopia/statlib/blob/main/Statlib/Nonparametric/Vocabulary/FunctionClasses.lean#L44" xlink:title="def · Statlib/Nonparametric/Vocabulary/FunctionClasses.lean:44" target="_blank">
<path fill="#d6e9ff" stroke="#3b82f6" d="M386.8,-124C386.8,-124 319.2,-124 319.2,-124 313.2,-124 307.2,-118 307.2,-112 307.2,-112 307.2,-100 307.2,-100 307.2,-94 313.2,-88 319.2,-88 319.2,-88 386.8,-88 386.8,-88 392.8,-88 398.8,-94 398.8,-100 398.8,-100 398.8,-112 398.8,-112 398.8,-118 392.8,-124 386.8,-124"/>
<text xml:space="preserve" text-anchor="middle" x="353" y="-103" font-family="Helvetica,sans-Serif" font-size="10.00">IsHolderFunction</text>
</a>
</g>
</g>
<!-- n2 -->
<g id="node3" class="node">
<title>n2</title>
<g id="a_node3"><a xlink:href="https://github.com/statopia/statlib/blob/main/Statlib/Nonparametric/Vocabulary/Kernel.lean#L39" xlink:title="noncomputable def · Statlib/Nonparametric/Vocabulary/Kernel.lean:39" target="_blank">
<path fill="#d6e9ff" stroke="#3b82f6" d="M110.3,-196C110.3,-196 47.7,-196 47.7,-196 41.7,-196 35.7,-190 35.7,-184 35.7,-184 35.7,-172 35.7,-172 35.7,-166 41.7,-160 47.7,-160 47.7,-160 110.3,-160 110.3,-160 116.3,-160 122.3,-166 122.3,-172 122.3,-172 122.3,-184 122.3,-184 122.3,-190 116.3,-196 110.3,-196"/>
<text xml:space="preserve" text-anchor="middle" x="79" y="-175" font-family="Helvetica,sans-Serif" font-size="10.00">kernelSmoother</text>
</a>
</g>
</g>
<!-- n2&#45;&gt;n0 -->
<g id="edge1" class="edge">
<title>n2&#45;&gt;n0</title>
<path fill="none" stroke="#64748b" d="M83.24,-159.7C88.29,-141.08 97.86,-111.03 112,-88 118.54,-77.34 127.43,-66.94 135.84,-58.22"/>
<polygon fill="#64748b" stroke="#64748b" points="137.57,-59.95 140.77,-53.25 134.1,-56.49 137.57,-59.95"/>
</g>
<!-- n3 -->
<g id="node4" class="node">
<title>n3</title>
<g id="a_node4"><a xlink:href="https://github.com/statopia/statlib/blob/main/Statlib/Nonparametric/Vocabulary/Risk.lean#L60" xlink:title="noncomputable def · Statlib/Nonparametric/Vocabulary/Risk.lean:60" target="_blank">
<path fill="#d6e9ff" stroke="#3b82f6" d="M612.25,-124C612.25,-124 515.75,-124 515.75,-124 509.75,-124 503.75,-118 503.75,-112 503.75,-112 503.75,-100 503.75,-100 503.75,-94 509.75,-88 515.75,-88 515.75,-88 612.25,-88 612.25,-88 618.25,-88 624.25,-94 624.25,-100 624.25,-100 624.25,-112 624.25,-112 624.25,-118 618.25,-124 612.25,-124"/>
<text xml:space="preserve" text-anchor="middle" x="564" y="-103" font-family="Helvetica,sans-Serif" font-size="10.00">integratedSquaredError</text>
</a>
</g>
</g>
<!-- n4 -->
<g id="node5" class="node">
<title>n4</title>
<g id="a_node5"><a xlink:href="https://github.com/statopia/statlib/blob/main/Statlib/Nonparametric/Vocabulary/Kernel.lean#L45" xlink:title="noncomputable def · Statlib/Nonparametric/Vocabulary/Kernel.lean:45" target="_blank">
<path fill="#d6e9ff" stroke="#3b82f6" d="M188.68,-124C188.68,-124 133.32,-124 133.32,-124 127.32,-124 121.32,-118 121.32,-112 121.32,-112 121.32,-100 121.32,-100 121.32,-94 127.32,-88 133.32,-88 133.32,-88 188.68,-88 188.68,-88 194.68,-88 200.68,-94 200.68,-100 200.68,-100 200.68,-112 200.68,-112 200.68,-118 194.68,-124 188.68,-124"/>
<text xml:space="preserve" text-anchor="middle" x="161" y="-103" font-family="Helvetica,sans-Serif" font-size="10.00">kernelMoment</text>
</a>
</g>
</g>
<!-- n4&#45;&gt;n0 -->
<g id="edge2" class="edge">
<title>n4&#45;&gt;n0</title>
<path fill="none" stroke="#64748b" d="M161,-87.7C161,-79.47 161,-69.48 161,-60.42"/>
<polygon fill="#64748b" stroke="#64748b" points="163.45,-60.62 161,-53.62 158.55,-60.62 163.45,-60.62"/>
</g>
<!-- n5 -->
<g id="node6" class="node">
<title>n5</title>
<g id="a_node6"><a xlink:href="https://github.com/statopia/statlib/blob/main/Statlib/Nonparametric/Approximation/Kernel.lean#L17" xlink:title="theorem · Statlib/Nonparametric/Approximation/Kernel.lean:17" target="_blank">
<path fill="#ffe6a3" stroke="#d4a017" d="M322.49,-196C322.49,-196 191.51,-196 191.51,-196 185.51,-196 179.51,-190 179.51,-184 179.51,-184 179.51,-172 179.51,-172 179.51,-166 185.51,-160 191.51,-160 191.51,-160 322.49,-160 322.49,-160 328.49,-160 334.49,-166 334.49,-172 334.49,-172 334.49,-184 334.49,-184 334.49,-190 328.49,-196 322.49,-196"/>
<text xml:space="preserve" text-anchor="middle" x="257" y="-175" font-family="Helvetica,sans-Serif" font-size="10.00">kernel_holder_bias_normalized</text>
</a>
</g>
</g>
<!-- n5&#45;&gt;n0 -->
<g id="edge3" class="edge">
<title>n5&#45;&gt;n0</title>
<path fill="none" stroke="#64748b" d="M249.41,-159.5C241.01,-140.97 226.46,-111.25 210,-88 202.59,-77.53 193.27,-66.96 184.75,-58.04"/>
<polygon fill="#64748b" stroke="#64748b" points="186.71,-56.54 180.07,-53.24 183.2,-59.96 186.71,-56.54"/>
</g>
<!-- n5&#45;&gt;n1 -->
<g id="edge4" class="edge">
<title>n5&#45;&gt;n1</title>
<path fill="none" stroke="#64748b" d="M280.73,-159.7C293.31,-150.53 308.9,-139.16 322.38,-129.33"/>
<polygon fill="#64748b" stroke="#64748b" points="323.77,-131.34 327.99,-125.24 320.89,-127.38 323.77,-131.34"/>
</g>
<!-- n5&#45;&gt;n4 -->
<g id="edge5" class="edge">
<title>n5&#45;&gt;n4</title>
<path fill="none" stroke="#64748b" d="M233.27,-159.7C220.69,-150.53 205.1,-139.16 191.62,-129.33"/>
<polygon fill="#64748b" stroke="#64748b" points="193.11,-127.38 186.01,-125.24 190.23,-131.34 193.11,-127.38"/>
</g>
<!-- n6 -->
<g id="node7" class="node">
<title>n6</title>
<g id="a_node7"><a xlink:href="https://github.com/statopia/statlib/blob/main/Statlib/Nonparametric/Vocabulary/Estimator.lean#L28" xlink:title="noncomputable def · Statlib/Nonparametric/Vocabulary/Estimator.lean:28" target="_blank">
<path fill="#d6e9ff" stroke="#3b82f6" d="M705,-52C705,-52 675,-52 675,-52 669,-52 663,-46 663,-40 663,-40 663,-28 663,-28 663,-22 669,-16 675,-16 675,-16 705,-16 705,-16 711,-16 717,-22 717,-28 717,-28 717,-40 717,-40 717,-46 711,-52 705,-52"/>
<text xml:space="preserve" text-anchor="middle" x="690" y="-31" font-family="Helvetica,sans-Serif" font-size="10.00">bias</text>
</a>
</g>
</g>
<!-- n7 -->
<g id="node8" class="node">
<title>n7</title>
<g id="a_node8"><a xlink:href="https://github.com/statopia/statlib/blob/main/Statlib/Nonparametric/Vocabulary/NeuralNetwork.lean#L23" xlink:title="structure · Statlib/Nonparametric/Vocabulary/NeuralNetwork.lean:23" target="_blank">
<path fill="#e8dcff" stroke="#8b5cf6" d="M739.96,-124C739.96,-124 694.04,-124 694.04,-124 688.04,-124 682.04,-118 682.04,-112 682.04,-112 682.04,-100 682.04,-100 682.04,-94 688.04,-88 694.04,-88 694.04,-88 739.96,-88 739.96,-88 745.96,-88 751.96,-94 751.96,-100 751.96,-100 751.96,-112 751.96,-112 751.96,-118 745.96,-124 739.96,-124"/>
<text xml:space="preserve" text-anchor="middle" x="717" y="-103" font-family="Helvetica,sans-Serif" font-size="10.00">DenseLayer</text>
</a>
</g>
</g>
<!-- n7&#45;&gt;n6 -->
<g id="edge6" class="edge">
<title>n7&#45;&gt;n6</title>
<path fill="none" stroke="#64748b" d="M710.33,-87.7C707.09,-79.3 703.14,-69.07 699.59,-59.86"/>
<polygon fill="#64748b" stroke="#64748b" points="701.95,-59.17 697.14,-53.52 697.38,-60.93 701.95,-59.17"/>
</g>
<!-- n8 -->
<g id="node9" class="node">
<title>n8</title>
<g id="a_node9"><a xlink:href="https://github.com/statopia/statlib/blob/main/Statlib/Nonparametric/Vocabulary/NeuralNetwork.lean#L30" xlink:title="noncomputable def · Statlib/Nonparametric/Vocabulary/NeuralNetwork.lean:30" target="_blank">
<path fill="#d6e9ff" stroke="#3b82f6" d="M740,-196C740,-196 710,-196 710,-196 704,-196 698,-190 698,-184 698,-184 698,-172 698,-172 698,-166 704,-160 710,-160 710,-160 740,-160 740,-160 746,-160 752,-166 752,-172 752,-172 752,-184 752,-184 752,-190 746,-196 740,-196"/>
<text xml:space="preserve" text-anchor="middle" x="725" y="-175" font-family="Helvetica,sans-Serif" font-size="10.00">apply</text>
</a>
</g>
</g>
<!-- n8&#45;&gt;n6 -->
<g id="edge8" class="edge">
<title>n8&#45;&gt;n6</title>
<path fill="none" stroke="#64748b" d="M700.98,-159.68C690.25,-150.44 678.75,-138.08 673,-124 664.51,-103.23 670.76,-77.98 677.96,-59.69"/>
<polygon fill="#64748b" stroke="#64748b" points="680.02,-61.1 680.47,-53.7 675.5,-59.2 680.02,-61.1"/>
</g>
<!-- n8&#45;&gt;n7 -->
<g id="edge7" class="edge">
<title>n8&#45;&gt;n7</title>
<path fill="none" stroke="#64748b" d="M723.02,-159.7C722.08,-151.47 720.94,-141.48 719.91,-132.42"/>
<polygon fill="#64748b" stroke="#64748b" points="722.36,-132.28 719.13,-125.61 717.49,-132.84 722.36,-132.28"/>
</g>
<!-- n9 -->
<g id="node10" class="node">
<title>n9</title>
<g id="a_node10"><a xlink:href="https://github.com/statopia/statlib/blob/main/Statlib/Nonparametric/Approximation/Metric.lean#L10" xlink:title="theorem · Statlib/Nonparametric/Approximation/Metric.lean:10" target="_blank">
<path fill="#ffe6a3" stroke="#d4a017" d="M608.19,-196C608.19,-196 403.81,-196 403.81,-196 397.81,-196 391.81,-190 391.81,-184 391.81,-184 391.81,-172 391.81,-172 391.81,-166 397.81,-160 403.81,-160 403.81,-160 608.19,-160 608.19,-160 614.19,-160 620.19,-166 620.19,-172 620.19,-172 620.19,-184 620.19,-184 620.19,-190 614.19,-196 608.19,-196"/>
<text xml:space="preserve" text-anchor="middle" x="506" y="-175" font-family="Helvetica,sans-Serif" font-size="10.00">integratedSquaredError_le_of_pointwise_bound</text>
</a>
</g>
</g>
<!-- n9&#45;&gt;n3 -->
<g id="edge9" class="edge">
<title>n9&#45;&gt;n3</title>
<path fill="none" stroke="#64748b" d="M520.34,-159.7C527.64,-150.88 536.63,-140.03 544.55,-130.47"/>
<polygon fill="#64748b" stroke="#64748b" points="546.28,-132.22 548.86,-125.27 542.51,-129.1 546.28,-132.22"/>
</g>
<!-- n10 -->
<g id="node11" class="node">
<title>n10</title>
<g id="a_node11"><a xlink:href="https://github.com/statopia/statlib/blob/main/Statlib/Nonparametric/Approximation/Kernel.lean#L176" xlink:title="theorem · Statlib/Nonparametric/Approximation/Kernel.lean:176" target="_blank">
<path fill="#ffe6a3" stroke="#d4a017" d="M603.97,-268C603.97,-268 384.03,-268 384.03,-268 378.03,-268 372.03,-262 372.03,-256 372.03,-256 372.03,-244 372.03,-244 372.03,-238 378.03,-232 384.03,-232 384.03,-232 603.97,-232 603.97,-232 609.97,-232 615.97,-238 615.97,-244 615.97,-244 615.97,-256 615.97,-256 615.97,-262 609.97,-268 603.97,-268"/>
<text xml:space="preserve" text-anchor="middle" x="494" y="-247" font-family="Helvetica,sans-Serif" font-size="10.00">kernel_holder_bias_integratedSquaredError_bound</text>
</a>
</g>
</g>
<!-- n10&#45;&gt;n0 -->
<g id="edge10" class="edge">
<title>n10&#45;&gt;n0</title>
<path fill="none" stroke="#64748b" d="M589.99,-231.58C608.46,-223.75 625.58,-212.41 637,-196 648,-180.2 648.8,-104.72 633,-88 604.16,-57.49 322.5,-41.98 208.52,-36.91"/>
<polygon fill="#64748b" stroke="#64748b" points="208.89,-34.48 201.79,-36.62 208.68,-39.37 208.89,-34.48"/>
</g>
<!-- n10&#45;&gt;n1 -->
<g id="edge11" class="edge">
<title>n10&#45;&gt;n1</title>
<path fill="none" stroke="#64748b" d="M436.07,-231.62C417,-223.45 397.09,-211.9 383,-196 367.34,-178.33 359.79,-152.17 356.2,-132.78"/>
<polygon fill="#64748b" stroke="#64748b" points="358.62,-132.4 355.06,-125.9 353.78,-133.2 358.62,-132.4"/>
</g>
<!-- n10&#45;&gt;n2 -->
<g id="edge12" class="edge">
<title>n10&#45;&gt;n2</title>
<path fill="none" stroke="#64748b" d="M371.66,-231.68C307.31,-222.1 227.21,-209.43 156,-196 147.83,-194.46 139.2,-192.69 130.79,-190.89"/>
<polygon fill="#64748b" stroke="#64748b" points="131.32,-188.5 123.96,-189.41 130.28,-193.29 131.32,-188.5"/>
</g>
<!-- n10&#45;&gt;n3 -->
<g id="edge13" class="edge">
<title>n10&#45;&gt;n3</title>
<path fill="none" stroke="#64748b" d="M582.3,-231.6C600.65,-223.77 617.8,-212.44 629,-196 638.01,-182.78 635.86,-174.45 629,-160 623.21,-147.8 613.08,-137.48 602.52,-129.29"/>
<polygon fill="#64748b" stroke="#64748b" points="604.24,-127.51 597.14,-125.35 601.34,-131.46 604.24,-127.51"/>
</g>
<!-- n10&#45;&gt;n4 -->
<g id="edge14" class="edge">
<title>n10&#45;&gt;n4</title>
<path fill="none" stroke="#64748b" d="M371.6,-243.94C292.1,-237.93 198.36,-224.78 171,-196 155.23,-179.41 154.29,-152.47 156.34,-132.57"/>
<polygon fill="#64748b" stroke="#64748b" points="158.75,-133.01 157.21,-125.75 153.89,-132.38 158.75,-133.01"/>
</g>
<!-- n10&#45;&gt;n5 -->
<g id="edge15" class="edge">
<title>n10&#45;&gt;n5</title>
<path fill="none" stroke="#64748b" d="M434.81,-231.52C401.03,-221.54 358.59,-209 323.64,-198.68"/>
<polygon fill="#64748b" stroke="#64748b" points="324.71,-196.44 317.3,-196.81 323.32,-201.14 324.71,-196.44"/>
</g>
<!-- n10&#45;&gt;n8 -->
<g id="edge16" class="edge">
<title>n10&#45;&gt;n8</title>
<path fill="none" stroke="#64748b" d="M551.7,-231.52C595.05,-218.38 653.06,-200.8 689.73,-189.69"/>
<polygon fill="#64748b" stroke="#64748b" points="690.23,-192.1 696.22,-187.72 688.81,-187.41 690.23,-192.1"/>
</g>
<!-- n10&#45;&gt;n9 -->
<g id="edge17" class="edge">
<title>n10&#45;&gt;n9</title>
<path fill="none" stroke="#64748b" d="M496.97,-231.7C498.38,-223.47 500.09,-213.48 501.64,-204.42"/>
<polygon fill="#64748b" stroke="#64748b" points="504.04,-204.91 502.81,-197.6 499.21,-204.08 504.04,-204.91"/>
</g>
<!-- n11 -->
<g id="node12" class="node">
<title>n11</title>
<g id="a_node12"><a xlink:href="https://github.com/statopia/statlib/blob/main/Statlib/Nonparametric/KernelRegression/KernelRate.lean#L1434" xlink:title="theorem · Statlib/Nonparametric/KernelRegression/KernelRate.lean:1434" target="_blank">
<path fill="#ffe6a3" stroke="#d4a017" stroke-width="3" d="M320.55,-340C320.55,-340 173.45,-340 173.45,-340 167.45,-340 161.45,-334 161.45,-328 161.45,-328 161.45,-316 161.45,-316 161.45,-310 167.45,-304 173.45,-304 173.45,-304 320.55,-304 320.55,-304 326.55,-304 332.55,-310 332.55,-316 332.55,-316 332.55,-328 332.55,-328 332.55,-334 326.55,-340 320.55,-340"/>
<text xml:space="preserve" text-anchor="middle" x="247" y="-319" font-family="Helvetica,sans-Serif" font-size="10.00">kernel_regression_bias_ise_bound</text>
</a>
</g>
</g>
<!-- n11&#45;&gt;n0 -->
<g id="edge18" class="edge">
<title>n11&#45;&gt;n0</title>
<path fill="none" stroke="#64748b" d="M168.8,-302.53C115.96,-285.15 51.52,-253 27,-196 2.12,-138.17 72.17,-84.93 120.13,-56.52"/>
<polygon fill="#64748b" stroke="#64748b" points="121.19,-58.73 126.02,-53.1 118.73,-54.49 121.19,-58.73"/>
</g>
<!-- n11&#45;&gt;n1 -->
<g id="edge19" class="edge">
<title>n11&#45;&gt;n1</title>
<path fill="none" stroke="#64748b" d="M266.33,-302.76C288.97,-280.11 325.6,-239.14 343,-196 351.15,-175.8 353.37,-151.06 353.72,-132.8"/>
<polygon fill="#64748b" stroke="#64748b" points="356.17,-132.92 353.75,-125.91 351.27,-132.9 356.17,-132.92"/>
</g>
<!-- n11&#45;&gt;n2 -->
<g id="edge20" class="edge">
<title>n11&#45;&gt;n2</title>
<path fill="none" stroke="#64748b" d="M193.4,-302.56C173.88,-294.09 152.57,-282.63 136,-268 115.81,-250.17 100.04,-223.53 90.25,-204.04"/>
<polygon fill="#64748b" stroke="#64748b" points="92.48,-203.02 87.21,-197.8 88.07,-205.17 92.48,-203.02"/>
</g>
<!-- n11&#45;&gt;n3 -->
<g id="edge21" class="edge">
<title>n11&#45;&gt;n3</title>
<path fill="none" stroke="#64748b" d="M333.96,-320.35C432.56,-317.69 584.84,-307.14 625,-268 659.59,-234.29 658.93,-203.03 637,-160 630.52,-147.29 619.4,-136.91 607.77,-128.81"/>
<polygon fill="#64748b" stroke="#64748b" points="609.36,-126.93 602.16,-125.14 606.68,-131.03 609.36,-126.93"/>
</g>
<!-- n11&#45;&gt;n4 -->
<g id="edge22" class="edge">
<title>n11&#45;&gt;n4</title>
<path fill="none" stroke="#64748b" d="M226.64,-302.63C203.4,-280.15 166.71,-239.65 152,-196 144.99,-175.2 148.47,-150.23 152.98,-132.05"/>
<polygon fill="#64748b" stroke="#64748b" points="155.25,-133.06 154.71,-125.67 150.52,-131.79 155.25,-133.06"/>
</g>
<!-- n11&#45;&gt;n10 -->
<g id="edge23" class="edge">
<title>n11&#45;&gt;n10</title>
<path fill="none" stroke="#64748b" d="M312.22,-302.52C346.9,-292.69 389.54,-280.6 424.8,-270.61"/>
<polygon fill="#64748b" stroke="#64748b" points="425.15,-273.06 431.21,-268.79 423.81,-268.35 425.15,-273.06"/>
</g>
</g>
</svg>
