<?xml version="1.0" encoding="UTF-8" standalone="no"?>
<!DOCTYPE svg PUBLIC "-//W3C//DTD SVG 1.1//EN"
 "http://www.w3.org/Graphics/SVG/1.1/DTD/svg11.dtd">
<!-- Generated by graphviz version 15.0.0 (20260523.1842)
 -->
<!-- Title: kernel_regression_risk_integrability_of_centered_sum_bias_and_design_l2 Pages: 1 -->
<svg width="1252pt" height="482pt"
 viewBox="0.00 0.00 1252.00 482.00" xmlns="http://www.w3.org/2000/svg" xmlns:xlink="http://www.w3.org/1999/xlink">
<g id="graph0" class="graph" transform="scale(1 1) rotate(0) translate(4 478)">
<title>kernel_regression_risk_integrability_of_centered_sum_bias_and_design_l2</title>
<polygon fill="white" stroke="none" points="-4,4 -4,-478 1248,-478 1248,4 -4,4"/>
<text xml:space="preserve" text-anchor="middle" x="622" y="-457.4" font-family="Helvetica,sans-Serif" font-size="14.00">Proof narrative — kernel_regression_risk_integrability_of_centered_sum_bias_and_design_l2 &#160;(16 decls)</text>
<g id="clust1" class="cluster">
<title>cluster_0</title>
<path fill="none" stroke="#cbd5e1" stroke-dasharray="5,2" d="M20,-8C20,-8 1224,-8 1224,-8 1230,-8 1236,-14 1236,-20 1236,-20 1236,-429.2 1236,-429.2 1236,-435.2 1230,-441.2 1224,-441.2 1224,-441.2 20,-441.2 20,-441.2 14,-441.2 8,-435.2 8,-429.2 8,-429.2 8,-20 8,-20 8,-14 14,-8 20,-8"/>
<text xml:space="preserve" text-anchor="middle" x="622" y="-427.3" font-family="Helvetica,sans-Serif" font-size="11.00">Nonparametric</text>
</g>
<!-- n0 -->
<g id="node1" class="node">
<title>n0</title>
<g id="a_node1"><a xlink:href="https://github.com/statopia/statlib/blob/main/Statlib/Nonparametric/Vocabulary/Kernel.lean#L33" xlink:title="noncomputable def · Statlib/Nonparametric/Vocabulary/Kernel.lean:33" target="_blank">
<path fill="#d6e9ff" stroke="#3b82f6" d="M777.91,-52C777.91,-52 728.09,-52 728.09,-52 722.09,-52 716.09,-46 716.09,-40 716.09,-40 716.09,-28 716.09,-28 716.09,-22 722.09,-16 728.09,-16 728.09,-16 777.91,-16 777.91,-16 783.91,-16 789.91,-22 789.91,-28 789.91,-28 789.91,-40 789.91,-40 789.91,-46 783.91,-52 777.91,-52"/>
<text xml:space="preserve" text-anchor="middle" x="753" y="-31" font-family="Helvetica,sans-Serif" font-size="10.00">scaledKernel</text>
</a>
</g>
</g>
<!-- n1 -->
<g id="node2" class="node">
<title>n1</title>
<g id="a_node2"><a xlink:href="https://github.com/statopia/statlib/blob/main/Statlib/Nonparametric/Vocabulary/Kernel.lean#L56" xlink:title="noncomputable def · Statlib/Nonparametric/Vocabulary/Kernel.lean:56" target="_blank">
<path fill="#d6e9ff" stroke="#3b82f6" d="M485.92,-196C485.92,-196 346.08,-196 346.08,-196 340.08,-196 334.08,-190 334.08,-184 334.08,-184 334.08,-172 334.08,-172 334.08,-166 340.08,-160 346.08,-160 346.08,-160 485.92,-160 485.92,-160 491.92,-160 497.92,-166 497.92,-172 497.92,-172 497.92,-184 497.92,-184 497.92,-190 491.92,-196 485.92,-196"/>
<text xml:space="preserve" text-anchor="middle" x="416" y="-175" font-family="Helvetica,sans-Serif" font-size="10.00">kernelLinearRegressionEstimator</text>
</a>
</g>
</g>
<!-- n1&#45;&gt;n0 -->
<g id="edge1" class="edge">
<title>n1&#45;&gt;n0</title>
<path fill="none" stroke="#64748b" d="M457.32,-159.59C520.91,-132.79 642.27,-81.66 708.01,-53.96"/>
<polygon fill="#64748b" stroke="#64748b" points="708.84,-56.26 714.34,-51.29 706.94,-51.75 708.84,-56.26"/>
</g>
<!-- n2 -->
<g id="node3" class="node">
<title>n2</title>
<g id="a_node3"><a xlink:href="https://github.com/statopia/statlib/blob/main/Statlib/Nonparametric/Vocabulary/Kernel.lean#L28" xlink:title="noncomputable def · Statlib/Nonparametric/Vocabulary/Kernel.lean:28" target="_blank">
<path fill="#d6e9ff" stroke="#3b82f6" d="M1029.13,-52C1029.13,-52 974.87,-52 974.87,-52 968.87,-52 962.87,-46 962.87,-40 962.87,-40 962.87,-28 962.87,-28 962.87,-22 968.87,-16 974.87,-16 974.87,-16 1029.13,-16 1029.13,-16 1035.13,-16 1041.13,-22 1041.13,-28 1041.13,-28 1041.13,-40 1041.13,-40 1041.13,-46 1035.13,-52 1029.13,-52"/>
<text xml:space="preserve" text-anchor="middle" x="1002" y="-31" font-family="Helvetica,sans-Serif" font-size="10.00">productKernel</text>
</a>
</g>
</g>
<!-- n3 -->
<g id="node4" class="node">
<title>n3</title>
<g id="a_node4"><a xlink:href="https://github.com/statopia/statlib/blob/main/Statlib/Nonparametric/Vocabulary/Kernel.lean#L39" xlink:title="noncomputable def · Statlib/Nonparametric/Vocabulary/Kernel.lean:39" target="_blank">
<path fill="#d6e9ff" stroke="#3b82f6" d="M854.3,-196C854.3,-196 791.7,-196 791.7,-196 785.7,-196 779.7,-190 779.7,-184 779.7,-184 779.7,-172 779.7,-172 779.7,-166 785.7,-160 791.7,-160 791.7,-160 854.3,-160 854.3,-160 860.3,-160 866.3,-166 866.3,-172 866.3,-172 866.3,-184 866.3,-184 866.3,-190 860.3,-196 854.3,-196"/>
<text xml:space="preserve" text-anchor="middle" x="823" y="-175" font-family="Helvetica,sans-Serif" font-size="10.00">kernelSmoother</text>
</a>
</g>
</g>
<!-- n3&#45;&gt;n2 -->
<g id="edge2" class="edge">
<title>n3&#45;&gt;n2</title>
<path fill="none" stroke="#64748b" d="M844.95,-159.59C877.38,-133.86 938.1,-85.69 973.79,-57.38"/>
<polygon fill="#64748b" stroke="#64748b" points="975,-59.54 978.97,-53.27 971.96,-55.7 975,-59.54"/>
</g>
<!-- n4 -->
<g id="node5" class="node">
<title>n4</title>
<g id="a_node5"><a xlink:href="https://github.com/statopia/statlib/blob/main/Statlib/Nonparametric/Vocabulary/KernelRegression.lean#L51" xlink:title="noncomputable def · Statlib/Nonparametric/Vocabulary/KernelRegression.lean:51" target="_blank">
<path fill="#d6e9ff" stroke="#3b82f6" d="M331.47,-124C331.47,-124 230.53,-124 230.53,-124 224.53,-124 218.53,-118 218.53,-112 218.53,-112 218.53,-100 218.53,-100 218.53,-94 224.53,-88 230.53,-88 230.53,-88 331.47,-88 331.47,-88 337.47,-88 343.47,-94 343.47,-100 343.47,-100 343.47,-112 343.47,-112 343.47,-118 337.47,-124 331.47,-124"/>
<text xml:space="preserve" text-anchor="middle" x="281" y="-103" font-family="Helvetica,sans-Serif" font-size="10.00">kernelRegressionWeight</text>
</a>
</g>
</g>
<!-- n4&#45;&gt;n0 -->
<g id="edge3" class="edge">
<title>n4&#45;&gt;n0</title>
<path fill="none" stroke="#64748b" d="M343.68,-95.7C440.05,-81.41 622.36,-54.38 707.3,-41.78"/>
<polygon fill="#64748b" stroke="#64748b" points="707.64,-44.2 714.2,-40.75 706.92,-39.36 707.64,-44.2"/>
</g>
<!-- n5 -->
<g id="node6" class="node">
<title>n5</title>
<g id="a_node6"><a xlink:href="https://github.com/statopia/statlib/blob/main/Statlib/Nonparametric/Vocabulary/KernelRegression.lean#L58" xlink:title="noncomputable def · Statlib/Nonparametric/Vocabulary/KernelRegression.lean:58" target="_blank">
<path fill="#d6e9ff" stroke="#3b82f6" d="M259.55,-196C259.55,-196 102.45,-196 102.45,-196 96.45,-196 90.45,-190 90.45,-184 90.45,-184 90.45,-172 90.45,-172 90.45,-166 96.45,-160 102.45,-160 102.45,-160 259.55,-160 259.55,-160 265.55,-160 271.55,-166 271.55,-172 271.55,-172 271.55,-184 271.55,-184 271.55,-190 265.55,-196 259.55,-196"/>
<text xml:space="preserve" text-anchor="middle" x="181" y="-175" font-family="Helvetica,sans-Serif" font-size="10.00">kernelRegressionWeightedResponse</text>
</a>
</g>
</g>
<!-- n5&#45;&gt;n4 -->
<g id="edge4" class="edge">
<title>n5&#45;&gt;n4</title>
<path fill="none" stroke="#64748b" d="M205.98,-159.52C219.2,-150.26 235.57,-138.8 249.64,-128.95"/>
<polygon fill="#64748b" stroke="#64748b" points="250.77,-131.15 255.1,-125.13 247.96,-127.14 250.77,-131.15"/>
</g>
<!-- n6 -->
<g id="node7" class="node">
<title>n6</title>
<g id="a_node7"><a xlink:href="https://github.com/statopia/statlib/blob/main/Statlib/Nonparametric/Vocabulary/KernelRegression.lean#L73" xlink:title="noncomputable def · Statlib/Nonparametric/Vocabulary/KernelRegression.lean:73" target="_blank">
<path fill="#d6e9ff" stroke="#3b82f6" d="M246.4,-268C246.4,-268 27.6,-268 27.6,-268 21.6,-268 15.6,-262 15.6,-256 15.6,-256 15.6,-244 15.6,-244 15.6,-238 21.6,-232 27.6,-232 27.6,-232 246.4,-232 246.4,-232 252.4,-232 258.4,-238 258.4,-244 258.4,-244 258.4,-256 258.4,-256 258.4,-262 252.4,-268 246.4,-268"/>
<text xml:space="preserve" text-anchor="middle" x="137" y="-247" font-family="Helvetica,sans-Serif" font-size="10.00">kernelRegressionCenteredWeightedResponseSum</text>
</a>
</g>
</g>
<!-- n6&#45;&gt;n5 -->
<g id="edge5" class="edge">
<title>n6&#45;&gt;n5</title>
<path fill="none" stroke="#64748b" d="M147.88,-231.7C153.26,-223.14 159.84,-212.66 165.72,-203.3"/>
<polygon fill="#64748b" stroke="#64748b" points="167.79,-204.62 169.44,-197.39 163.64,-202.01 167.79,-204.62"/>
</g>
<!-- n7 -->
<g id="node8" class="node">
<title>n7</title>
<g id="a_node8"><a xlink:href="https://github.com/statopia/statlib/blob/main/Statlib/Nonparametric/Vocabulary/Kernel.lean#L51" xlink:title="noncomputable def · Statlib/Nonparametric/Vocabulary/Kernel.lean:51" target="_blank">
<path fill="#d6e9ff" stroke="#3b82f6" d="M1067.02,-124C1067.02,-124 1004.98,-124 1004.98,-124 998.98,-124 992.98,-118 992.98,-112 992.98,-112 992.98,-100 992.98,-100 992.98,-94 998.98,-88 1004.98,-88 1004.98,-88 1067.02,-88 1067.02,-88 1073.02,-88 1079.02,-94 1079.02,-100 1079.02,-100 1079.02,-112 1079.02,-112 1079.02,-118 1073.02,-124 1067.02,-124"/>
<text xml:space="preserve" text-anchor="middle" x="1036" y="-103" font-family="Helvetica,sans-Serif" font-size="10.00">kernelL2Energy</text>
</a>
</g>
</g>
<!-- n7&#45;&gt;n2 -->
<g id="edge6" class="edge">
<title>n7&#45;&gt;n2</title>
<path fill="none" stroke="#64748b" d="M1027.6,-87.7C1023.48,-79.22 1018.45,-68.86 1013.94,-59.58"/>
<polygon fill="#64748b" stroke="#64748b" points="1016.23,-58.69 1010.97,-53.47 1011.82,-60.83 1016.23,-58.69"/>
</g>
<!-- n8 -->
<g id="node9" class="node">
<title>n8</title>
<g id="a_node9"><a xlink:href="https://github.com/statopia/statlib/blob/main/Statlib/Nonparametric/Vocabulary/KernelRegression.lean#L141" xlink:title="def · Statlib/Nonparametric/Vocabulary/KernelRegression.lean:141" target="_blank">
<path fill="#d6e9ff" stroke="#3b82f6" d="M1142.33,-196C1142.33,-196 939.67,-196 939.67,-196 933.67,-196 927.67,-190 927.67,-184 927.67,-184 927.67,-172 927.67,-172 927.67,-166 933.67,-160 939.67,-160 939.67,-160 1142.33,-160 1142.33,-160 1148.33,-160 1154.33,-166 1154.33,-172 1154.33,-172 1154.33,-184 1154.33,-184 1154.33,-190 1148.33,-196 1142.33,-196"/>
<text xml:space="preserve" text-anchor="middle" x="1041" y="-175" font-family="Helvetica,sans-Serif" font-size="10.00">KernelRegressionDesignL2EnergyAssumptions</text>
</a>
</g>
</g>
<!-- n8&#45;&gt;n0 -->
<g id="edge7" class="edge">
<title>n8&#45;&gt;n0</title>
<path fill="none" stroke="#64748b" d="M1018.64,-159.73C992.68,-140.29 948.05,-108.74 906,-88 871.17,-70.82 829.37,-56.75 798.27,-47.43"/>
<polygon fill="#64748b" stroke="#64748b" points="799.06,-45.11 791.66,-45.48 797.68,-49.81 799.06,-45.11"/>
</g>
<!-- n8&#45;&gt;n7 -->
<g id="edge8" class="edge">
<title>n8&#45;&gt;n7</title>
<path fill="none" stroke="#64748b" d="M1039.76,-159.7C1039.18,-151.47 1038.46,-141.48 1037.82,-132.42"/>
<polygon fill="#64748b" stroke="#64748b" points="1040.27,-132.42 1037.33,-125.61 1035.38,-132.77 1040.27,-132.42"/>
</g>
<!-- n9 -->
<g id="node10" class="node">
<title>n9</title>
<g id="a_node10"><a xlink:href="https://github.com/statopia/statlib/blob/main/Statlib/Nonparametric/Vocabulary/KernelRegression.lean#L161" xlink:title="def · Statlib/Nonparametric/Vocabulary/KernelRegression.lean:161" target="_blank">
<path fill="#d6e9ff" stroke="#3b82f6" d="M824.03,-268C824.03,-268 681.97,-268 681.97,-268 675.97,-268 669.97,-262 669.97,-256 669.97,-256 669.97,-244 669.97,-244 669.97,-238 675.97,-232 681.97,-232 681.97,-232 824.03,-232 824.03,-232 830.03,-232 836.03,-238 836.03,-244 836.03,-244 836.03,-256 836.03,-256 836.03,-262 830.03,-268 824.03,-268"/>
<text xml:space="preserve" text-anchor="middle" x="753" y="-247" font-family="Helvetica,sans-Serif" font-size="10.00">KernelRegressionRiskIntegrability</text>
</a>
</g>
</g>
<!-- n9&#45;&gt;n0 -->
<g id="edge11" class="edge">
<title>n9&#45;&gt;n0</title>
<path fill="none" stroke="#64748b" d="M753,-231.85C753,-194.36 753,-104.95 753,-60.7"/>
<polygon fill="#64748b" stroke="#64748b" points="755.45,-60.75 753,-53.75 750.55,-60.75 755.45,-60.75"/>
</g>
<!-- n9&#45;&gt;n1 -->
<g id="edge9" class="edge">
<title>n9&#45;&gt;n1</title>
<path fill="none" stroke="#64748b" d="M669.7,-231.7C620.11,-221.4 557.17,-208.32 506.39,-197.77"/>
<polygon fill="#64748b" stroke="#64748b" points="507.18,-195.44 499.83,-196.41 506.18,-200.23 507.18,-195.44"/>
</g>
<!-- n9&#45;&gt;n3 -->
<g id="edge10" class="edge">
<title>n9&#45;&gt;n3</title>
<path fill="none" stroke="#64748b" d="M770.3,-231.7C779.29,-222.71 790.39,-211.61 800.08,-201.92"/>
<polygon fill="#64748b" stroke="#64748b" points="801.61,-203.86 804.83,-197.17 798.14,-200.39 801.61,-203.86"/>
</g>
<!-- n10 -->
<g id="node11" class="node">
<title>n10</title>
<g id="a_node11"><a xlink:href="https://github.com/statopia/statlib/blob/main/Statlib/Nonparametric/KernelRegression/KernelRate.lean#L660" xlink:title="theorem · Statlib/Nonparametric/KernelRegression/KernelRate.lean:660" target="_blank">
<path fill="#ffe6a3" stroke="#d4a017" d="M396.54,-340C396.54,-340 85.46,-340 85.46,-340 79.46,-340 73.46,-334 73.46,-328 73.46,-328 73.46,-316 73.46,-316 73.46,-310 79.46,-304 85.46,-304 85.46,-304 396.54,-304 396.54,-304 402.54,-304 408.54,-310 408.54,-316 408.54,-316 408.54,-328 408.54,-328 408.54,-334 402.54,-340 396.54,-340"/>
<text xml:space="preserve" text-anchor="middle" x="241" y="-319" font-family="Helvetica,sans-Serif" font-size="10.00">kernel_regression_centered_integrability_of_centered_sum_integrability</text>
</a>
</g>
</g>
<!-- n10&#45;&gt;n1 -->
<g id="edge12" class="edge">
<title>n10&#45;&gt;n1</title>
<path fill="none" stroke="#64748b" d="M249.21,-303.8C260.35,-281.01 280.23,-242.48 292,-232 307.53,-218.18 327.19,-207.58 346.26,-199.62"/>
<polygon fill="#64748b" stroke="#64748b" points="347.11,-201.92 352.7,-197.04 345.29,-197.37 347.11,-201.92"/>
</g>
<!-- n10&#45;&gt;n3 -->
<g id="edge13" class="edge">
<title>n10&#45;&gt;n3</title>
<path fill="none" stroke="#64748b" d="M255.48,-303.8C274.22,-282.85 309.01,-248.27 347,-232 422.35,-199.73 663.97,-185.73 771.06,-181"/>
<polygon fill="#64748b" stroke="#64748b" points="771.06,-183.45 777.95,-180.7 770.85,-178.56 771.06,-183.45"/>
</g>
<!-- n10&#45;&gt;n6 -->
<g id="edge14" class="edge">
<title>n10&#45;&gt;n6</title>
<path fill="none" stroke="#64748b" d="M215.02,-303.52C201.27,-294.26 184.25,-282.8 169.61,-272.95"/>
<polygon fill="#64748b" stroke="#64748b" points="171.08,-270.98 163.9,-269.11 168.34,-275.05 171.08,-270.98"/>
</g>
<!-- n11 -->
<g id="node12" class="node">
<title>n11</title>
<g id="a_node12"><a xlink:href="https://github.com/statopia/statlib/blob/main/Statlib/Nonparametric/KernelRegression/KernelRate.lean#L785" xlink:title="theorem · Statlib/Nonparametric/KernelRegression/KernelRate.lean:785" target="_blank">
<path fill="#ffe6a3" stroke="#d4a017" d="M1133.04,-340C1133.04,-340 856.96,-340 856.96,-340 850.96,-340 844.96,-334 844.96,-328 844.96,-328 844.96,-316 844.96,-316 844.96,-310 850.96,-304 856.96,-304 856.96,-304 1133.04,-304 1133.04,-304 1139.04,-304 1145.04,-310 1145.04,-316 1145.04,-316 1145.04,-328 1145.04,-328 1145.04,-334 1139.04,-340 1133.04,-340"/>
<text xml:space="preserve" text-anchor="middle" x="995" y="-319" font-family="Helvetica,sans-Serif" font-size="10.00">kernel_regression_mse_omega_integrable_of_centered_omega</text>
</a>
</g>
</g>
<!-- n12 -->
<g id="node13" class="node">
<title>n12</title>
<g id="a_node13"><a xlink:href="https://github.com/statopia/statlib/blob/main/Statlib/Nonparametric/KernelRegression/KernelRate.lean#L843" xlink:title="theorem · Statlib/Nonparametric/KernelRegression/KernelRate.lean:843" target="_blank">
<path fill="#ffe6a3" stroke="#d4a017" d="M639.54,-268C639.54,-268 368.46,-268 368.46,-268 362.46,-268 356.46,-262 356.46,-256 356.46,-256 356.46,-244 356.46,-244 356.46,-238 362.46,-232 368.46,-232 368.46,-232 639.54,-232 639.54,-232 645.54,-232 651.54,-238 651.54,-244 651.54,-244 651.54,-256 651.54,-256 651.54,-262 645.54,-268 639.54,-268"/>
<text xml:space="preserve" text-anchor="middle" x="504" y="-247" font-family="Helvetica,sans-Serif" font-size="10.00">kernel_regression_mse_x_integrable_of_centered_x_and_bias</text>
</a>
</g>
</g>
<!-- n12&#45;&gt;n1 -->
<g id="edge15" class="edge">
<title>n12&#45;&gt;n1</title>
<path fill="none" stroke="#64748b" d="M482.25,-231.7C470.82,-222.61 456.69,-211.36 444.41,-201.6"/>
<polygon fill="#64748b" stroke="#64748b" points="446,-199.73 438.99,-197.29 442.95,-203.56 446,-199.73"/>
</g>
<!-- n12&#45;&gt;n3 -->
<g id="edge16" class="edge">
<title>n12&#45;&gt;n3</title>
<path fill="none" stroke="#64748b" d="M583.67,-231.52C642.41,-218.63 720.61,-201.47 771.37,-190.33"/>
<polygon fill="#64748b" stroke="#64748b" points="771.79,-192.74 778.11,-188.85 770.74,-187.96 771.79,-192.74"/>
</g>
<!-- n13 -->
<g id="node14" class="node">
<title>n13</title>
<g id="a_node14"><a xlink:href="https://github.com/statopia/statlib/blob/main/Statlib/Nonparametric/KernelRegression/KernelRate.lean#L273" xlink:title="theorem · Statlib/Nonparametric/KernelRegression/KernelRate.lean:273" target="_blank">
<path fill="#ffe6a3" stroke="#d4a017" d="M1175.99,-268C1175.99,-268 906.01,-268 906.01,-268 900.01,-268 894.01,-262 894.01,-256 894.01,-256 894.01,-244 894.01,-244 894.01,-238 900.01,-232 906.01,-232 906.01,-232 1175.99,-232 1175.99,-232 1181.99,-232 1187.99,-238 1187.99,-244 1187.99,-244 1187.99,-256 1187.99,-256 1187.99,-262 1181.99,-268 1175.99,-268"/>
<text xml:space="preserve" text-anchor="middle" x="1041" y="-247" font-family="Helvetica,sans-Serif" font-size="10.00">kernel_regression_weight_sq_integrable_of_design_l2_energy</text>
</a>
</g>
</g>
<!-- n13&#45;&gt;n0 -->
<g id="edge18" class="edge">
<title>n13&#45;&gt;n0</title>
<path fill="none" stroke="#64748b" d="M989.92,-231.57C967.23,-222.65 940.78,-210.58 919,-196 887.57,-174.96 812.48,-97.67 775.03,-58.34"/>
<polygon fill="#64748b" stroke="#64748b" points="776.99,-56.85 770.39,-53.46 773.44,-60.22 776.99,-56.85"/>
</g>
<!-- n13&#45;&gt;n8 -->
<g id="edge17" class="edge">
<title>n13&#45;&gt;n8</title>
<path fill="none" stroke="#64748b" d="M1041,-231.7C1041,-223.47 1041,-213.48 1041,-204.42"/>
<polygon fill="#64748b" stroke="#64748b" points="1043.45,-204.62 1041,-197.62 1038.55,-204.62 1043.45,-204.62"/>
</g>
<!-- n14 -->
<g id="node15" class="node">
<title>n14</title>
<g id="a_node15"><a xlink:href="https://github.com/statopia/statlib/blob/main/Statlib/Nonparametric/KernelRegression/KernelRate.lean#L734" xlink:title="theorem · Statlib/Nonparametric/KernelRegression/KernelRate.lean:734" target="_blank">
<path fill="#ffe6a3" stroke="#d4a017" d="M815.04,-340C815.04,-340 498.96,-340 498.96,-340 492.96,-340 486.96,-334 486.96,-328 486.96,-328 486.96,-316 486.96,-316 486.96,-310 492.96,-304 498.96,-304 498.96,-304 815.04,-304 815.04,-304 821.04,-304 827.04,-310 827.04,-316 827.04,-316 827.04,-328 827.04,-328 827.04,-334 821.04,-340 815.04,-340"/>
<text xml:space="preserve" text-anchor="middle" x="657" y="-319" font-family="Helvetica,sans-Serif" font-size="10.00">kernel_regression_risk_integrability_of_error_integrability_and_design_l2</text>
</a>
</g>
</g>
<!-- n14&#45;&gt;n1 -->
<g id="edge19" class="edge">
<title>n14&#45;&gt;n1</title>
<path fill="none" stroke="#64748b" d="M486.72,-311.14C425.23,-303.73 366.19,-290.75 347,-268 336.68,-255.77 339.93,-246.35 347,-232 353.14,-219.55 363.76,-209.2 374.86,-201.06"/>
<polygon fill="#64748b" stroke="#64748b" points="376.18,-203.12 380.56,-197.13 373.4,-199.09 376.18,-203.12"/>
</g>
<!-- n14&#45;&gt;n3 -->
<g id="edge20" class="edge">
<title>n14&#45;&gt;n3</title>
<path fill="none" stroke="#64748b" d="M759.46,-303.52C797.28,-294.8 833.72,-282.9 845,-268 859.08,-249.4 849.83,-222.93 839.35,-203.7"/>
<polygon fill="#64748b" stroke="#64748b" points="841.54,-202.6 835.92,-197.77 837.3,-205.05 841.54,-202.6"/>
</g>
<!-- n14&#45;&gt;n8 -->
<g id="edge21" class="edge">
<title>n14&#45;&gt;n8</title>
<path fill="none" stroke="#64748b" d="M827.53,-304.6C985.47,-289.36 1196.21,-268.87 1197,-268 1225.38,-236.7 1180.01,-213.6 1131.01,-198.79"/>
<polygon fill="#64748b" stroke="#64748b" points="1131.99,-196.52 1124.58,-196.91 1130.61,-201.22 1131.99,-196.52"/>
</g>
<!-- n14&#45;&gt;n9 -->
<g id="edge22" class="edge">
<title>n14&#45;&gt;n9</title>
<path fill="none" stroke="#64748b" d="M680.73,-303.7C693.31,-294.53 708.9,-283.16 722.38,-273.33"/>
<polygon fill="#64748b" stroke="#64748b" points="723.77,-275.34 727.99,-269.24 720.89,-271.38 723.77,-275.34"/>
</g>
<!-- n14&#45;&gt;n13 -->
<g id="edge23" class="edge">
<title>n14&#45;&gt;n13</title>
<path fill="none" stroke="#64748b" d="M752.91,-303.52C808.91,-293.31 879.61,-280.42 936.96,-269.97"/>
<polygon fill="#64748b" stroke="#64748b" points="937.38,-272.38 943.83,-268.71 936.5,-267.56 937.38,-272.38"/>
</g>
<!-- n15 -->
<g id="node16" class="node">
<title>n15</title>
<g id="a_node16"><a xlink:href="https://github.com/statopia/statlib/blob/main/Statlib/Nonparametric/KernelRegression/KernelRate.lean#L1049" xlink:title="theorem · Statlib/Nonparametric/KernelRegression/KernelRate.lean:1049" target="_blank">
<path fill="#ffe6a3" stroke="#d4a017" stroke-width="3" d="M631.05,-412C631.05,-412 304.95,-412 304.95,-412 298.95,-412 292.95,-406 292.95,-400 292.95,-400 292.95,-388 292.95,-388 292.95,-382 298.95,-376 304.95,-376 304.95,-376 631.05,-376 631.05,-376 637.05,-376 643.05,-382 643.05,-388 643.05,-388 643.05,-400 643.05,-400 643.05,-406 637.05,-412 631.05,-412"/>
<text xml:space="preserve" text-anchor="middle" x="468" y="-391" font-family="Helvetica,sans-Serif" font-size="10.00">kernel_regression_risk_integrability_of_centered_sum_bias_and_design_l2</text>
</a>
</g>
</g>
<!-- n15&#45;&gt;n1 -->
<g id="edge24" class="edge">
<title>n15&#45;&gt;n1</title>
<path fill="none" stroke="#64748b" d="M461.75,-374.7C454.18,-354.93 439.67,-323.64 418,-304 388.51,-277.27 357.76,-301.32 336,-268 327.25,-254.6 328.43,-246.1 336,-232 342.92,-219.12 354.5,-208.84 366.73,-200.89"/>
<polygon fill="#64748b" stroke="#64748b" points="367.98,-203 372.68,-197.27 365.43,-198.81 367.98,-203"/>
</g>
<!-- n15&#45;&gt;n3 -->
<g id="edge25" class="edge">
<title>n15&#45;&gt;n3</title>
<path fill="none" stroke="#64748b" d="M644.23,-391.55C835.98,-388.1 1119.97,-376.76 1154,-340 1164.87,-328.26 1164.54,-316.04 1154,-304 1074.57,-213.23 987.98,-330.81 885,-268 872.09,-260.13 850.97,-227.1 837.03,-203.58"/>
<polygon fill="#64748b" stroke="#64748b" points="839.19,-202.43 833.54,-197.63 834.97,-204.9 839.19,-202.43"/>
</g>
<!-- n15&#45;&gt;n6 -->
<g id="edge26" class="edge">
<title>n15&#45;&gt;n6</title>
<path fill="none" stroke="#64748b" d="M291.69,-380.57C190.2,-371.58 79.67,-357.86 64,-340 53.45,-327.97 56.73,-318.25 64,-304 70.48,-291.29 81.6,-280.91 93.23,-272.81"/>
<polygon fill="#64748b" stroke="#64748b" points="94.32,-275.03 98.84,-269.14 91.64,-270.93 94.32,-275.03"/>
</g>
<!-- n15&#45;&gt;n8 -->
<g id="edge27" class="edge">
<title>n15&#45;&gt;n8</title>
<path fill="none" stroke="#64748b" d="M644.3,-387.94C835.68,-381.13 1119.91,-366.67 1163,-340 1206.93,-312.81 1236.44,-273.75 1206,-232 1194.91,-216.79 1179.39,-205.85 1162.26,-198"/>
<polygon fill="#64748b" stroke="#64748b" points="1163.62,-195.92 1156.22,-195.42 1161.69,-200.42 1163.62,-195.92"/>
</g>
<!-- n15&#45;&gt;n9 -->
<g id="edge28" class="edge">
<title>n15&#45;&gt;n9</title>
<path fill="none" stroke="#64748b" d="M464.34,-374.76C461.48,-354.75 460.48,-322.95 478,-304 479.62,-302.25 582.19,-282.81 661.58,-267.97"/>
<polygon fill="#64748b" stroke="#64748b" points="661.75,-270.43 668.18,-266.74 660.85,-265.61 661.75,-270.43"/>
</g>
<!-- n15&#45;&gt;n10 -->
<g id="edge29" class="edge">
<title>n15&#45;&gt;n10</title>
<path fill="none" stroke="#64748b" d="M408.06,-374.52C376.46,-364.77 337.66,-352.81 305.41,-342.86"/>
<polygon fill="#64748b" stroke="#64748b" points="306.22,-340.55 298.81,-340.83 304.78,-345.23 306.22,-340.55"/>
</g>
<!-- n15&#45;&gt;n11 -->
<g id="edge30" class="edge">
<title>n15&#45;&gt;n11</title>
<path fill="none" stroke="#64748b" d="M607.15,-374.52C683.8,-364.34 778.66,-351.74 855.38,-341.55"/>
<polygon fill="#64748b" stroke="#64748b" points="855.58,-343.99 862.19,-340.64 854.93,-339.13 855.58,-343.99"/>
</g>
<!-- n15&#45;&gt;n12 -->
<g id="edge31" class="edge">
<title>n15&#45;&gt;n12</title>
<path fill="none" stroke="#64748b" d="M463.04,-374.72C458.95,-356.34 454.99,-327.43 463,-304 466.66,-293.3 473.45,-283.08 480.47,-274.52"/>
<polygon fill="#64748b" stroke="#64748b" points="482.11,-276.36 484.84,-269.47 478.41,-273.16 482.11,-276.36"/>
</g>
<!-- n15&#45;&gt;n14 -->
<g id="edge32" class="edge">
<title>n15&#45;&gt;n14</title>
<path fill="none" stroke="#64748b" d="M517.66,-374.61C543.64,-364.99 575.51,-353.18 602.21,-343.29"/>
<polygon fill="#64748b" stroke="#64748b" points="602.82,-345.68 608.53,-340.95 601.12,-341.09 602.82,-345.68"/>
</g>
</g>
</svg>
