<?xml version="1.0" encoding="UTF-8" standalone="no"?>
<!DOCTYPE svg PUBLIC "-//W3C//DTD SVG 1.1//EN"
 "http://www.w3.org/Graphics/SVG/1.1/DTD/svg11.dtd">
<!-- Generated by graphviz version 15.0.0 (20260523.1842)
 -->
<!-- Title: kernel_smoother_classApproximationError_le_of_holder_bias_member Pages: 1 -->
<svg width="894pt" height="410pt"
 viewBox="0.00 0.00 894.00 410.00" xmlns="http://www.w3.org/2000/svg" xmlns:xlink="http://www.w3.org/1999/xlink">
<g id="graph0" class="graph" transform="scale(1 1) rotate(0) translate(4 406)">
<title>kernel_smoother_classApproximationError_le_of_holder_bias_member</title>
<polygon fill="white" stroke="none" points="-4,4 -4,-406 890,-406 890,4 -4,4"/>
<text xml:space="preserve" text-anchor="middle" x="443" y="-385.4" font-family="Helvetica,sans-Serif" font-size="14.00">Proof narrative — kernel_smoother_classApproximationError_le_of_holder_bias_member &#160;(14 decls)</text>
<g id="clust1" class="cluster">
<title>cluster_0</title>
<path fill="none" stroke="#cbd5e1" stroke-dasharray="5,2" d="M20,-8C20,-8 866,-8 866,-8 872,-8 878,-14 878,-20 878,-20 878,-357.2 878,-357.2 878,-363.2 872,-369.2 866,-369.2 866,-369.2 20,-369.2 20,-369.2 14,-369.2 8,-363.2 8,-357.2 8,-357.2 8,-20 8,-20 8,-14 14,-8 20,-8"/>
<text xml:space="preserve" text-anchor="middle" x="443" y="-355.3" font-family="Helvetica,sans-Serif" font-size="11.00">Nonparametric</text>
</g>
<!-- n0 -->
<g id="node1" class="node">
<title>n0</title>
<g id="a_node1"><a xlink:href="https://github.com/statopia/statlib/blob/main/Statlib/Nonparametric/Vocabulary/FunctionClasses.lean#L16" xlink:title="abbrev · Statlib/Nonparametric/Vocabulary/FunctionClasses.lean:16" target="_blank">
<path fill="#d6e9ff" stroke="#3b82f6" d="M83.68,-196C83.68,-196 28.32,-196 28.32,-196 22.32,-196 16.32,-190 16.32,-184 16.32,-184 16.32,-172 16.32,-172 16.32,-166 22.32,-160 28.32,-160 28.32,-160 83.68,-160 83.68,-160 89.68,-160 95.68,-166 95.68,-172 95.68,-172 95.68,-184 95.68,-184 95.68,-190 89.68,-196 83.68,-196"/>
<text xml:space="preserve" text-anchor="middle" x="56" y="-175" font-family="Helvetica,sans-Serif" font-size="10.00">FunctionClass</text>
</a>
</g>
</g>
<!-- n1 -->
<g id="node2" class="node">
<title>n1</title>
<g id="a_node2"><a xlink:href="https://github.com/statopia/statlib/blob/main/Statlib/Nonparametric/Vocabulary/Kernel.lean#L28" xlink:title="noncomputable def · Statlib/Nonparametric/Vocabulary/Kernel.lean:28" target="_blank">
<path fill="#d6e9ff" stroke="#3b82f6" d="M752.13,-52C752.13,-52 697.87,-52 697.87,-52 691.87,-52 685.87,-46 685.87,-40 685.87,-40 685.87,-28 685.87,-28 685.87,-22 691.87,-16 697.87,-16 697.87,-16 752.13,-16 752.13,-16 758.13,-16 764.13,-22 764.13,-28 764.13,-28 764.13,-40 764.13,-40 764.13,-46 758.13,-52 752.13,-52"/>
<text xml:space="preserve" text-anchor="middle" x="725" y="-31" font-family="Helvetica,sans-Serif" font-size="10.00">productKernel</text>
</a>
</g>
</g>
<!-- n2 -->
<g id="node3" class="node">
<title>n2</title>
<g id="a_node3"><a xlink:href="https://github.com/statopia/statlib/blob/main/Statlib/Nonparametric/Vocabulary/FunctionClasses.lean#L44" xlink:title="def · Statlib/Nonparametric/Vocabulary/FunctionClasses.lean:44" target="_blank">
<path fill="#d6e9ff" stroke="#3b82f6" d="M693.8,-124C693.8,-124 626.2,-124 626.2,-124 620.2,-124 614.2,-118 614.2,-112 614.2,-112 614.2,-100 614.2,-100 614.2,-94 620.2,-88 626.2,-88 626.2,-88 693.8,-88 693.8,-88 699.8,-88 705.8,-94 705.8,-100 705.8,-100 705.8,-112 705.8,-112 705.8,-118 699.8,-124 693.8,-124"/>
<text xml:space="preserve" text-anchor="middle" x="660" y="-103" font-family="Helvetica,sans-Serif" font-size="10.00">IsHolderFunction</text>
</a>
</g>
</g>
<!-- n3 -->
<g id="node4" class="node">
<title>n3</title>
<g id="a_node4"><a xlink:href="https://github.com/statopia/statlib/blob/main/Statlib/Nonparametric/Vocabulary/Kernel.lean#L39" xlink:title="noncomputable def · Statlib/Nonparametric/Vocabulary/Kernel.lean:39" target="_blank">
<path fill="#d6e9ff" stroke="#3b82f6" d="M838.3,-196C838.3,-196 775.7,-196 775.7,-196 769.7,-196 763.7,-190 763.7,-184 763.7,-184 763.7,-172 763.7,-172 763.7,-166 769.7,-160 775.7,-160 775.7,-160 838.3,-160 838.3,-160 844.3,-160 850.3,-166 850.3,-172 850.3,-172 850.3,-184 850.3,-184 850.3,-190 844.3,-196 838.3,-196"/>
<text xml:space="preserve" text-anchor="middle" x="807" y="-175" font-family="Helvetica,sans-Serif" font-size="10.00">kernelSmoother</text>
</a>
</g>
</g>
<!-- n3&#45;&gt;n1 -->
<g id="edge1" class="edge">
<title>n3&#45;&gt;n1</title>
<path fill="none" stroke="#64748b" d="M796.95,-159.59C782.42,-134.43 755.51,-87.83 739.03,-59.3"/>
<polygon fill="#64748b" stroke="#64748b" points="741.26,-58.26 735.64,-53.42 737.02,-60.71 741.26,-58.26"/>
</g>
<!-- n4 -->
<g id="node5" class="node">
<title>n4</title>
<g id="a_node5"><a xlink:href="https://github.com/statopia/statlib/blob/main/Statlib/Nonparametric/Vocabulary/Risk.lean#L60" xlink:title="noncomputable def · Statlib/Nonparametric/Vocabulary/Risk.lean:60" target="_blank">
<path fill="#d6e9ff" stroke="#3b82f6" d="M193.25,-124C193.25,-124 96.75,-124 96.75,-124 90.75,-124 84.75,-118 84.75,-112 84.75,-112 84.75,-100 84.75,-100 84.75,-94 90.75,-88 96.75,-88 96.75,-88 193.25,-88 193.25,-88 199.25,-88 205.25,-94 205.25,-100 205.25,-100 205.25,-112 205.25,-112 205.25,-118 199.25,-124 193.25,-124"/>
<text xml:space="preserve" text-anchor="middle" x="145" y="-103" font-family="Helvetica,sans-Serif" font-size="10.00">integratedSquaredError</text>
</a>
</g>
</g>
<!-- n5 -->
<g id="node6" class="node">
<title>n5</title>
<g id="a_node6"><a xlink:href="https://github.com/statopia/statlib/blob/main/Statlib/Nonparametric/Vocabulary/Risk.lean#L75" xlink:title="noncomputable def · Statlib/Nonparametric/Vocabulary/Risk.lean:75" target="_blank">
<path fill="#d6e9ff" stroke="#3b82f6" d="M157.46,-268C157.46,-268 56.54,-268 56.54,-268 50.54,-268 44.54,-262 44.54,-256 44.54,-256 44.54,-244 44.54,-244 44.54,-238 50.54,-232 56.54,-232 56.54,-232 157.46,-232 157.46,-232 163.46,-232 169.46,-238 169.46,-244 169.46,-244 169.46,-256 169.46,-256 169.46,-262 163.46,-268 157.46,-268"/>
<text xml:space="preserve" text-anchor="middle" x="107" y="-247" font-family="Helvetica,sans-Serif" font-size="10.00">classApproximationError</text>
</a>
</g>
</g>
<!-- n5&#45;&gt;n0 -->
<g id="edge2" class="edge">
<title>n5&#45;&gt;n0</title>
<path fill="none" stroke="#64748b" d="M94.39,-231.7C88.03,-222.97 80.22,-212.24 73.3,-202.75"/>
<polygon fill="#64748b" stroke="#64748b" points="75.46,-201.54 69.35,-197.33 71.49,-204.43 75.46,-201.54"/>
</g>
<!-- n5&#45;&gt;n4 -->
<g id="edge3" class="edge">
<title>n5&#45;&gt;n4</title>
<path fill="none" stroke="#64748b" d="M111.38,-231.57C115.92,-213.61 123.29,-184.8 130,-160 132.46,-150.91 135.25,-140.96 137.75,-132.17"/>
<polygon fill="#64748b" stroke="#64748b" points="140.06,-133.02 139.62,-125.61 135.34,-131.67 140.06,-133.02"/>
</g>
<!-- n6 -->
<g id="node7" class="node">
<title>n6</title>
<g id="a_node7"><a xlink:href="https://github.com/statopia/statlib/blob/main/Statlib/Nonparametric/Vocabulary/Kernel.lean#L45" xlink:title="noncomputable def · Statlib/Nonparametric/Vocabulary/Kernel.lean:45" target="_blank">
<path fill="#d6e9ff" stroke="#3b82f6" d="M551.68,-124C551.68,-124 496.32,-124 496.32,-124 490.32,-124 484.32,-118 484.32,-112 484.32,-112 484.32,-100 484.32,-100 484.32,-94 490.32,-88 496.32,-88 496.32,-88 551.68,-88 551.68,-88 557.68,-88 563.68,-94 563.68,-100 563.68,-100 563.68,-112 563.68,-112 563.68,-118 557.68,-124 551.68,-124"/>
<text xml:space="preserve" text-anchor="middle" x="524" y="-103" font-family="Helvetica,sans-Serif" font-size="10.00">kernelMoment</text>
</a>
</g>
</g>
<!-- n6&#45;&gt;n1 -->
<g id="edge4" class="edge">
<title>n6&#45;&gt;n1</title>
<path fill="none" stroke="#64748b" d="M563.71,-91.17C596.47,-79.76 643.04,-63.54 677.72,-51.47"/>
<polygon fill="#64748b" stroke="#64748b" points="678.14,-53.91 683.94,-49.3 676.53,-49.29 678.14,-53.91"/>
</g>
<!-- n7 -->
<g id="node8" class="node">
<title>n7</title>
<g id="a_node8"><a xlink:href="https://github.com/statopia/statlib/blob/main/Statlib/Nonparametric/Approximation/Kernel.lean#L17" xlink:title="theorem · Statlib/Nonparametric/Approximation/Kernel.lean:17" target="_blank">
<path fill="#ffe6a3" stroke="#d4a017" d="M674.49,-196C674.49,-196 543.51,-196 543.51,-196 537.51,-196 531.51,-190 531.51,-184 531.51,-184 531.51,-172 531.51,-172 531.51,-166 537.51,-160 543.51,-160 543.51,-160 674.49,-160 674.49,-160 680.49,-160 686.49,-166 686.49,-172 686.49,-172 686.49,-184 686.49,-184 686.49,-190 680.49,-196 674.49,-196"/>
<text xml:space="preserve" text-anchor="middle" x="609" y="-175" font-family="Helvetica,sans-Serif" font-size="10.00">kernel_holder_bias_normalized</text>
</a>
</g>
</g>
<!-- n7&#45;&gt;n1 -->
<g id="edge5" class="edge">
<title>n7&#45;&gt;n1</title>
<path fill="none" stroke="#64748b" d="M602.67,-159.71C596.83,-140.55 590.98,-109.51 605,-88 621.06,-63.36 651.45,-50.09 677.63,-42.99"/>
<polygon fill="#64748b" stroke="#64748b" points="677.94,-45.44 684.13,-41.35 676.74,-40.69 677.94,-45.44"/>
</g>
<!-- n7&#45;&gt;n2 -->
<g id="edge6" class="edge">
<title>n7&#45;&gt;n2</title>
<path fill="none" stroke="#64748b" d="M621.61,-159.7C627.97,-150.97 635.78,-140.24 642.7,-130.75"/>
<polygon fill="#64748b" stroke="#64748b" points="644.51,-132.43 646.65,-125.33 640.54,-129.54 644.51,-132.43"/>
</g>
<!-- n7&#45;&gt;n6 -->
<g id="edge7" class="edge">
<title>n7&#45;&gt;n6</title>
<path fill="none" stroke="#64748b" d="M587.99,-159.7C576.95,-150.61 563.3,-139.36 551.44,-129.6"/>
<polygon fill="#64748b" stroke="#64748b" points="553.19,-127.87 546.23,-125.31 550.08,-131.65 553.19,-127.87"/>
</g>
<!-- n8 -->
<g id="node9" class="node">
<title>n8</title>
<g id="a_node9"><a xlink:href="https://github.com/statopia/statlib/blob/main/Statlib/Nonparametric/Vocabulary/Estimator.lean#L28" xlink:title="noncomputable def · Statlib/Nonparametric/Vocabulary/Estimator.lean:28" target="_blank">
<path fill="#d6e9ff" stroke="#3b82f6" d="M438,-52C438,-52 408,-52 408,-52 402,-52 396,-46 396,-40 396,-40 396,-28 396,-28 396,-22 402,-16 408,-16 408,-16 438,-16 438,-16 444,-16 450,-22 450,-28 450,-28 450,-40 450,-40 450,-46 444,-52 438,-52"/>
<text xml:space="preserve" text-anchor="middle" x="423" y="-31" font-family="Helvetica,sans-Serif" font-size="10.00">bias</text>
</a>
</g>
</g>
<!-- n9 -->
<g id="node10" class="node">
<title>n9</title>
<g id="a_node10"><a xlink:href="https://github.com/statopia/statlib/blob/main/Statlib/Nonparametric/Vocabulary/NeuralNetwork.lean#L23" xlink:title="structure · Statlib/Nonparametric/Vocabulary/NeuralNetwork.lean:23" target="_blank">
<path fill="#e8dcff" stroke="#8b5cf6" d="M418.96,-124C418.96,-124 373.04,-124 373.04,-124 367.04,-124 361.04,-118 361.04,-112 361.04,-112 361.04,-100 361.04,-100 361.04,-94 367.04,-88 373.04,-88 373.04,-88 418.96,-88 418.96,-88 424.96,-88 430.96,-94 430.96,-100 430.96,-100 430.96,-112 430.96,-112 430.96,-118 424.96,-124 418.96,-124"/>
<text xml:space="preserve" text-anchor="middle" x="396" y="-103" font-family="Helvetica,sans-Serif" font-size="10.00">DenseLayer</text>
</a>
</g>
</g>
<!-- n9&#45;&gt;n8 -->
<g id="edge8" class="edge">
<title>n9&#45;&gt;n8</title>
<path fill="none" stroke="#64748b" d="M402.67,-87.7C405.91,-79.3 409.86,-69.07 413.41,-59.86"/>
<polygon fill="#64748b" stroke="#64748b" points="415.62,-60.93 415.86,-53.52 411.05,-59.17 415.62,-60.93"/>
</g>
<!-- n10 -->
<g id="node11" class="node">
<title>n10</title>
<g id="a_node11"><a xlink:href="https://github.com/statopia/statlib/blob/main/Statlib/Nonparametric/Vocabulary/NeuralNetwork.lean#L30" xlink:title="noncomputable def · Statlib/Nonparametric/Vocabulary/NeuralNetwork.lean:30" target="_blank">
<path fill="#d6e9ff" stroke="#3b82f6" d="M462,-196C462,-196 432,-196 432,-196 426,-196 420,-190 420,-184 420,-184 420,-172 420,-172 420,-166 426,-160 432,-160 432,-160 462,-160 462,-160 468,-160 474,-166 474,-172 474,-172 474,-184 474,-184 474,-190 468,-196 462,-196"/>
<text xml:space="preserve" text-anchor="middle" x="447" y="-175" font-family="Helvetica,sans-Serif" font-size="10.00">apply</text>
</a>
</g>
</g>
<!-- n10&#45;&gt;n8 -->
<g id="edge10" class="edge">
<title>n10&#45;&gt;n8</title>
<path fill="none" stroke="#64748b" d="M446.82,-159.78C446.37,-141.73 444.85,-112.64 440,-88 438.19,-78.8 435.31,-68.97 432.43,-60.3"/>
<polygon fill="#64748b" stroke="#64748b" points="434.8,-59.65 430.2,-53.83 430.17,-61.25 434.8,-59.65"/>
</g>
<!-- n10&#45;&gt;n9 -->
<g id="edge9" class="edge">
<title>n10&#45;&gt;n9</title>
<path fill="none" stroke="#64748b" d="M434.39,-159.7C428.03,-150.97 420.22,-140.24 413.3,-130.75"/>
<polygon fill="#64748b" stroke="#64748b" points="415.46,-129.54 409.35,-125.33 411.49,-132.43 415.46,-129.54"/>
</g>
<!-- n11 -->
<g id="node12" class="node">
<title>n11</title>
<g id="a_node12"><a xlink:href="https://github.com/statopia/statlib/blob/main/Statlib/Nonparametric/Approximation/Metric.lean#L10" xlink:title="theorem · Statlib/Nonparametric/Approximation/Metric.lean:10" target="_blank">
<path fill="#ffe6a3" stroke="#d4a017" d="M390.19,-196C390.19,-196 185.81,-196 185.81,-196 179.81,-196 173.81,-190 173.81,-184 173.81,-184 173.81,-172 173.81,-172 173.81,-166 179.81,-160 185.81,-160 185.81,-160 390.19,-160 390.19,-160 396.19,-160 402.19,-166 402.19,-172 402.19,-172 402.19,-184 402.19,-184 402.19,-190 396.19,-196 390.19,-196"/>
<text xml:space="preserve" text-anchor="middle" x="288" y="-175" font-family="Helvetica,sans-Serif" font-size="10.00">integratedSquaredError_le_of_pointwise_bound</text>
</a>
</g>
</g>
<!-- n11&#45;&gt;n4 -->
<g id="edge11" class="edge">
<title>n11&#45;&gt;n4</title>
<path fill="none" stroke="#64748b" d="M252.28,-159.52C232.69,-149.92 208.25,-137.96 187.66,-127.88"/>
<polygon fill="#64748b" stroke="#64748b" points="188.98,-125.8 181.62,-124.93 186.83,-130.2 188.98,-125.8"/>
</g>
<!-- n12 -->
<g id="node13" class="node">
<title>n12</title>
<g id="a_node13"><a xlink:href="https://github.com/statopia/statlib/blob/main/Statlib/Nonparametric/Approximation/Kernel.lean#L176" xlink:title="theorem · Statlib/Nonparametric/Approximation/Kernel.lean:176" target="_blank">
<path fill="#ffe6a3" stroke="#d4a017" d="M713.97,-268C713.97,-268 494.03,-268 494.03,-268 488.03,-268 482.03,-262 482.03,-256 482.03,-256 482.03,-244 482.03,-244 482.03,-238 488.03,-232 494.03,-232 494.03,-232 713.97,-232 713.97,-232 719.97,-232 725.97,-238 725.97,-244 725.97,-244 725.97,-256 725.97,-256 725.97,-262 719.97,-268 713.97,-268"/>
<text xml:space="preserve" text-anchor="middle" x="604" y="-247" font-family="Helvetica,sans-Serif" font-size="10.00">kernel_holder_bias_integratedSquaredError_bound</text>
</a>
</g>
</g>
<!-- n12&#45;&gt;n1 -->
<g id="edge12" class="edge">
<title>n12&#45;&gt;n1</title>
<path fill="none" stroke="#64748b" d="M655.93,-231.52C673.04,-223.29 690.6,-211.74 702,-196 731.16,-155.74 731.09,-94.69 728.2,-60.5"/>
<polygon fill="#64748b" stroke="#64748b" points="730.68,-60.66 727.57,-53.93 725.8,-61.13 730.68,-60.66"/>
</g>
<!-- n12&#45;&gt;n2 -->
<g id="edge13" class="edge">
<title>n12&#45;&gt;n2</title>
<path fill="none" stroke="#64748b" d="M654.04,-231.6C670.01,-223.41 685.89,-211.85 695,-196 707.01,-175.1 694.15,-149.29 680.75,-130.85"/>
<polygon fill="#64748b" stroke="#64748b" points="682.95,-129.69 676.76,-125.62 679.06,-132.67 682.95,-129.69"/>
</g>
<!-- n12&#45;&gt;n3 -->
<g id="edge14" class="edge">
<title>n12&#45;&gt;n3</title>
<path fill="none" stroke="#64748b" d="M654.7,-231.52C685.56,-220.88 724.85,-207.33 755.79,-196.66"/>
<polygon fill="#64748b" stroke="#64748b" points="756.22,-199.1 762.04,-194.5 754.62,-194.47 756.22,-199.1"/>
</g>
<!-- n12&#45;&gt;n4 -->
<g id="edge15" class="edge">
<title>n12&#45;&gt;n4</title>
<path fill="none" stroke="#64748b" d="M481.75,-241.42C360.1,-232.75 188.23,-216.99 165,-196 147.6,-180.27 143.64,-152.96 143.39,-132.73"/>
<polygon fill="#64748b" stroke="#64748b" points="145.84,-132.81 143.47,-125.79 140.94,-132.76 145.84,-132.81"/>
</g>
<!-- n12&#45;&gt;n6 -->
<g id="edge16" class="edge">
<title>n12&#45;&gt;n6</title>
<path fill="none" stroke="#64748b" d="M561.46,-231.64C546.53,-223.23 531.39,-211.52 523,-196 512.53,-176.64 514.02,-151.27 517.4,-132.57"/>
<polygon fill="#64748b" stroke="#64748b" points="519.8,-133.07 518.81,-125.72 515,-132.09 519.8,-133.07"/>
</g>
<!-- n12&#45;&gt;n7 -->
<g id="edge17" class="edge">
<title>n12&#45;&gt;n7</title>
<path fill="none" stroke="#64748b" d="M605.24,-231.7C605.82,-223.47 606.54,-213.48 607.18,-204.42"/>
<polygon fill="#64748b" stroke="#64748b" points="609.62,-204.77 607.67,-197.61 604.73,-204.42 609.62,-204.77"/>
</g>
<!-- n12&#45;&gt;n10 -->
<g id="edge18" class="edge">
<title>n12&#45;&gt;n10</title>
<path fill="none" stroke="#64748b" d="M564.79,-231.52C539.38,-220.19 506.58,-205.56 482.04,-194.62"/>
<polygon fill="#64748b" stroke="#64748b" points="483.16,-192.44 475.77,-191.83 481.17,-196.92 483.16,-192.44"/>
</g>
<!-- n12&#45;&gt;n11 -->
<g id="edge19" class="edge">
<title>n12&#45;&gt;n11</title>
<path fill="none" stroke="#64748b" d="M525.07,-231.52C479.37,-221.39 421.76,-208.63 374.78,-198.22"/>
<polygon fill="#64748b" stroke="#64748b" points="375.58,-195.89 368.22,-196.77 374.52,-200.68 375.58,-195.89"/>
</g>
<!-- n13 -->
<g id="node14" class="node">
<title>n13</title>
<g id="a_node14"><a xlink:href="https://github.com/statopia/statlib/blob/main/Statlib/Nonparametric/Approximation/Kernel.lean#L223" xlink:title="theorem · Statlib/Nonparametric/Approximation/Kernel.lean:223" target="_blank">
<path fill="#ffe6a3" stroke="#d4a017" stroke-width="3" d="M686.86,-340C686.86,-340 379.14,-340 379.14,-340 373.14,-340 367.14,-334 367.14,-328 367.14,-328 367.14,-316 367.14,-316 367.14,-310 373.14,-304 379.14,-304 379.14,-304 686.86,-304 686.86,-304 692.86,-304 698.86,-310 698.86,-316 698.86,-316 698.86,-328 698.86,-328 698.86,-334 692.86,-340 686.86,-340"/>
<text xml:space="preserve" text-anchor="middle" x="533" y="-319" font-family="Helvetica,sans-Serif" font-size="10.00">kernel_smoother_classApproximationError_le_of_holder_bias_member</text>
</a>
</g>
</g>
<!-- n13&#45;&gt;n0 -->
<g id="edge20" class="edge">
<title>n13&#45;&gt;n0</title>
<path fill="none" stroke="#64748b" d="M365.82,-314.08C230.25,-306.7 58.12,-292.6 36,-268 20.23,-250.46 29.58,-223.19 40.16,-203.46"/>
<polygon fill="#64748b" stroke="#64748b" points="42.15,-204.92 43.48,-197.62 37.89,-202.5 42.15,-204.92"/>
</g>
<!-- n13&#45;&gt;n1 -->
<g id="edge21" class="edge">
<title>n13&#45;&gt;n1</title>
<path fill="none" stroke="#64748b" d="M699.95,-304.67C764.59,-288.43 829.95,-256.86 859,-196 886.19,-139.03 814.89,-85.29 766.17,-56.6"/>
<polygon fill="#64748b" stroke="#64748b" points="767.46,-54.52 760.18,-53.14 765.01,-58.76 767.46,-54.52"/>
</g>
<!-- n13&#45;&gt;n2 -->
<g id="edge22" class="edge">
<title>n13&#45;&gt;n2</title>
<path fill="none" stroke="#64748b" d="M651.54,-302.55C689.01,-294.14 723.65,-282.71 735,-268 768.69,-224.33 718.69,-163.09 685.5,-130.15"/>
<polygon fill="#64748b" stroke="#64748b" points="687.33,-128.51 680.61,-125.39 683.92,-132.03 687.33,-128.51"/>
</g>
<!-- n13&#45;&gt;n3 -->
<g id="edge23" class="edge">
<title>n13&#45;&gt;n3</title>
<path fill="none" stroke="#64748b" d="M675.78,-302.55C702.05,-294.74 728.07,-283.67 750,-268 772.41,-251.99 788.13,-224.17 797.31,-203.88"/>
<polygon fill="#64748b" stroke="#64748b" points="799.48,-205.03 800.01,-197.63 794.98,-203.08 799.48,-205.03"/>
</g>
<!-- n13&#45;&gt;n4 -->
<g id="edge24" class="edge">
<title>n13&#45;&gt;n4</title>
<path fill="none" stroke="#64748b" d="M431.63,-302.56C327.7,-281.34 176.51,-243.27 142,-196 128.74,-177.84 131.52,-151.58 136.39,-132.29"/>
<polygon fill="#64748b" stroke="#64748b" points="138.71,-133.09 138.24,-125.69 133.99,-131.77 138.71,-133.09"/>
</g>
<!-- n13&#45;&gt;n5 -->
<g id="edge25" class="edge">
<title>n13&#45;&gt;n5</title>
<path fill="none" stroke="#64748b" d="M395.91,-302.5C331.16,-293.19 252.92,-281.1 183,-268 181.22,-267.67 179.41,-267.32 177.6,-266.97"/>
<polygon fill="#64748b" stroke="#64748b" points="178.38,-264.62 171.04,-265.65 177.42,-269.43 178.38,-264.62"/>
</g>
<!-- n13&#45;&gt;n6 -->
<g id="edge26" class="edge">
<title>n13&#45;&gt;n6</title>
<path fill="none" stroke="#64748b" d="M502.85,-302.55C491.25,-293.68 479.28,-281.94 473,-268 466.42,-253.41 469.92,-247.7 473,-232 476.89,-212.15 498.71,-162.26 512.52,-131.85"/>
<polygon fill="#64748b" stroke="#64748b" points="514.71,-132.96 515.39,-125.57 510.25,-130.93 514.71,-132.96"/>
</g>
<!-- n13&#45;&gt;n12 -->
<g id="edge27" class="edge">
<title>n13&#45;&gt;n12</title>
<path fill="none" stroke="#64748b" d="M551.65,-302.61C560.55,-293.84 571.29,-283.25 580.71,-273.96"/>
<polygon fill="#64748b" stroke="#64748b" points="582.35,-275.79 585.61,-269.13 578.91,-272.3 582.35,-275.79"/>
</g>
</g>
</svg>
