<?xml version="1.0" encoding="UTF-8" standalone="no"?>
<!DOCTYPE svg PUBLIC "-//W3C//DTD SVG 1.1//EN"
 "http://www.w3.org/Graphics/SVG/1.1/DTD/svg11.dtd">
<!-- Generated by graphviz version 15.0.0 (20260523.1842)
 -->
<!-- Title: reluNetworkClass_classApproximationError_le_of_candidate_ise Pages: 1 -->
<svg width="607pt" height="554pt"
 viewBox="0.00 0.00 607.00 554.00" xmlns="http://www.w3.org/2000/svg" xmlns:xlink="http://www.w3.org/1999/xlink">
<g id="graph0" class="graph" transform="scale(1 1) rotate(0) translate(4 550)">
<title>reluNetworkClass_classApproximationError_le_of_candidate_ise</title>
<polygon fill="white" stroke="none" points="-4,4 -4,-550 602.83,-550 602.83,4 -4,4"/>
<text xml:space="preserve" text-anchor="middle" x="299.41" y="-529.4" font-family="Helvetica,sans-Serif" font-size="14.00">Proof narrative — reluNetworkClass_classApproximationError_le_of_candidate_ise &#160;(12 decls)</text>
<g id="clust1" class="cluster">
<title>cluster_0</title>
<path fill="none" stroke="#cbd5e1" stroke-dasharray="5,2" d="M102.41,-8C102.41,-8 496.41,-8 496.41,-8 502.41,-8 508.41,-14 508.41,-20 508.41,-20 508.41,-501.2 508.41,-501.2 508.41,-507.2 502.41,-513.2 496.41,-513.2 496.41,-513.2 102.41,-513.2 102.41,-513.2 96.41,-513.2 90.41,-507.2 90.41,-501.2 90.41,-501.2 90.41,-20 90.41,-20 90.41,-14 96.41,-8 102.41,-8"/>
<text xml:space="preserve" text-anchor="middle" x="299.41" y="-499.3" font-family="Helvetica,sans-Serif" font-size="11.00">Nonparametric</text>
</g>
<!-- n0 -->
<g id="node1" class="node">
<title>n0</title>
<g id="a_node1"><a xlink:href="https://github.com/statopia/statlib/blob/main/Statlib/Nonparametric/Vocabulary/Estimator.lean#L28" xlink:title="noncomputable def · Statlib/Nonparametric/Vocabulary/Estimator.lean:28" target="_blank">
<path fill="#d6e9ff" stroke="#3b82f6" d="M311.41,-52C311.41,-52 281.41,-52 281.41,-52 275.41,-52 269.41,-46 269.41,-40 269.41,-40 269.41,-28 269.41,-28 269.41,-22 275.41,-16 281.41,-16 281.41,-16 311.41,-16 311.41,-16 317.41,-16 323.41,-22 323.41,-28 323.41,-28 323.41,-40 323.41,-40 323.41,-46 317.41,-52 311.41,-52"/>
<text xml:space="preserve" text-anchor="middle" x="296.41" y="-31" font-family="Helvetica,sans-Serif" font-size="10.00">bias</text>
</a>
</g>
</g>
<!-- n1 -->
<g id="node2" class="node">
<title>n1</title>
<g id="a_node2"><a xlink:href="https://github.com/statopia/statlib/blob/main/Statlib/Nonparametric/Vocabulary/NeuralNetwork.lean#L23" xlink:title="structure · Statlib/Nonparametric/Vocabulary/NeuralNetwork.lean:23" target="_blank">
<path fill="#e8dcff" stroke="#8b5cf6" d="M292.37,-124C292.37,-124 246.45,-124 246.45,-124 240.45,-124 234.45,-118 234.45,-112 234.45,-112 234.45,-100 234.45,-100 234.45,-94 240.45,-88 246.45,-88 246.45,-88 292.37,-88 292.37,-88 298.37,-88 304.37,-94 304.37,-100 304.37,-100 304.37,-112 304.37,-112 304.37,-118 298.37,-124 292.37,-124"/>
<text xml:space="preserve" text-anchor="middle" x="269.41" y="-103" font-family="Helvetica,sans-Serif" font-size="10.00">DenseLayer</text>
</a>
</g>
</g>
<!-- n1&#45;&gt;n0 -->
<g id="edge1" class="edge">
<title>n1&#45;&gt;n0</title>
<path fill="none" stroke="#64748b" d="M276.09,-87.7C279.32,-79.3 283.27,-69.07 286.82,-59.86"/>
<polygon fill="#64748b" stroke="#64748b" points="289.04,-60.93 289.27,-53.52 284.47,-59.17 289.04,-60.93"/>
</g>
<!-- n2 -->
<g id="node3" class="node">
<title>n2</title>
<g id="a_node3"><a xlink:href="https://github.com/statopia/statlib/blob/main/Statlib/Nonparametric/Vocabulary/NeuralNetwork.lean#L43" xlink:title="structure · Statlib/Nonparametric/Vocabulary/NeuralNetwork.lean:43" target="_blank">
<path fill="#e8dcff" stroke="#8b5cf6" d="M194.27,-196C194.27,-196 110.55,-196 110.55,-196 104.55,-196 98.55,-190 98.55,-184 98.55,-184 98.55,-172 98.55,-172 98.55,-166 104.55,-160 110.55,-160 110.55,-160 194.27,-160 194.27,-160 200.27,-160 206.27,-166 206.27,-172 206.27,-172 206.27,-184 206.27,-184 206.27,-190 200.27,-196 194.27,-196"/>
<text xml:space="preserve" text-anchor="middle" x="152.41" y="-175" font-family="Helvetica,sans-Serif" font-size="10.00">OneHiddenReLUNet</text>
</a>
</g>
</g>
<!-- n2&#45;&gt;n1 -->
<g id="edge2" class="edge">
<title>n2&#45;&gt;n1</title>
<path fill="none" stroke="#64748b" d="M181.63,-159.52C197.39,-150.09 216.96,-138.38 233.62,-128.41"/>
<polygon fill="#64748b" stroke="#64748b" points="234.51,-130.73 239.26,-125.04 232,-126.53 234.51,-130.73"/>
</g>
<!-- n3 -->
<g id="node4" class="node">
<title>n3</title>
<g id="a_node4"><a xlink:href="https://github.com/statopia/statlib/blob/main/Statlib/Nonparametric/Vocabulary/NeuralNetwork.lean#L15" xlink:title="def · Statlib/Nonparametric/Vocabulary/NeuralNetwork.lean:15" target="_blank">
<path fill="#d6e9ff" stroke="#3b82f6" d="M266.41,-196C266.41,-196 236.41,-196 236.41,-196 230.41,-196 224.41,-190 224.41,-184 224.41,-184 224.41,-172 224.41,-172 224.41,-166 230.41,-160 236.41,-160 236.41,-160 266.41,-160 266.41,-160 272.41,-160 278.41,-166 278.41,-172 278.41,-172 278.41,-184 278.41,-184 278.41,-190 272.41,-196 266.41,-196"/>
<text xml:space="preserve" text-anchor="middle" x="251.41" y="-175" font-family="Helvetica,sans-Serif" font-size="10.00">relu</text>
</a>
</g>
</g>
<!-- n4 -->
<g id="node5" class="node">
<title>n4</title>
<g id="a_node5"><a xlink:href="https://github.com/statopia/statlib/blob/main/Statlib/Nonparametric/Vocabulary/NeuralNetwork.lean#L30" xlink:title="noncomputable def · Statlib/Nonparametric/Vocabulary/NeuralNetwork.lean:30" target="_blank">
<path fill="#d6e9ff" stroke="#3b82f6" d="M338.41,-196C338.41,-196 308.41,-196 308.41,-196 302.41,-196 296.41,-190 296.41,-184 296.41,-184 296.41,-172 296.41,-172 296.41,-166 302.41,-160 308.41,-160 308.41,-160 338.41,-160 338.41,-160 344.41,-160 350.41,-166 350.41,-172 350.41,-172 350.41,-184 350.41,-184 350.41,-190 344.41,-196 338.41,-196"/>
<text xml:space="preserve" text-anchor="middle" x="323.41" y="-175" font-family="Helvetica,sans-Serif" font-size="10.00">apply</text>
</a>
</g>
</g>
<!-- n4&#45;&gt;n0 -->
<g id="edge4" class="edge">
<title>n4&#45;&gt;n0</title>
<path fill="none" stroke="#64748b" d="M322.49,-159.78C321.29,-141.73 318.69,-112.63 313.41,-88 311.45,-78.83 308.53,-69.01 305.67,-60.33"/>
<polygon fill="#64748b" stroke="#64748b" points="308.04,-59.69 303.46,-53.86 303.4,-61.28 308.04,-59.69"/>
</g>
<!-- n4&#45;&gt;n1 -->
<g id="edge3" class="edge">
<title>n4&#45;&gt;n1</title>
<path fill="none" stroke="#64748b" d="M310.06,-159.7C303.33,-150.97 295.06,-140.24 287.73,-130.75"/>
<polygon fill="#64748b" stroke="#64748b" points="289.75,-129.35 283.53,-125.3 285.87,-132.34 289.75,-129.35"/>
</g>
<!-- n5 -->
<g id="node6" class="node">
<title>n5</title>
<g id="a_node6"><a xlink:href="https://github.com/statopia/statlib/blob/main/Statlib/Nonparametric/Vocabulary/NeuralNetwork.lean#L51" xlink:title="noncomputable def · Statlib/Nonparametric/Vocabulary/NeuralNetwork.lean:51" target="_blank">
<path fill="#d6e9ff" stroke="#3b82f6" d="M231.41,-268C231.41,-268 201.41,-268 201.41,-268 195.41,-268 189.41,-262 189.41,-256 189.41,-256 189.41,-244 189.41,-244 189.41,-238 195.41,-232 201.41,-232 201.41,-232 231.41,-232 231.41,-232 237.41,-232 243.41,-238 243.41,-244 243.41,-244 243.41,-256 243.41,-256 243.41,-262 237.41,-268 231.41,-268"/>
<text xml:space="preserve" text-anchor="middle" x="216.41" y="-247" font-family="Helvetica,sans-Serif" font-size="10.00">realize</text>
</a>
</g>
</g>
<!-- n5&#45;&gt;n2 -->
<g id="edge5" class="edge">
<title>n5&#45;&gt;n2</title>
<path fill="none" stroke="#64748b" d="M200.59,-231.7C192.45,-222.8 182.42,-211.82 173.62,-202.2"/>
<polygon fill="#64748b" stroke="#64748b" points="175.6,-200.73 169.07,-197.22 171.99,-204.04 175.6,-200.73"/>
</g>
<!-- n5&#45;&gt;n3 -->
<g id="edge6" class="edge">
<title>n5&#45;&gt;n3</title>
<path fill="none" stroke="#64748b" d="M225.06,-231.7C229.3,-223.22 234.48,-212.86 239.12,-203.58"/>
<polygon fill="#64748b" stroke="#64748b" points="241.24,-204.81 242.18,-197.46 236.86,-202.62 241.24,-204.81"/>
</g>
<!-- n5&#45;&gt;n4 -->
<g id="edge7" class="edge">
<title>n5&#45;&gt;n4</title>
<path fill="none" stroke="#64748b" d="M243.14,-231.52C257.42,-222.18 275.12,-210.59 290.27,-200.68"/>
<polygon fill="#64748b" stroke="#64748b" points="291.25,-202.97 295.76,-197.09 288.56,-198.87 291.25,-202.97"/>
</g>
<!-- n6 -->
<g id="node7" class="node">
<title>n6</title>
<g id="a_node7"><a xlink:href="https://github.com/statopia/statlib/blob/main/Statlib/Nonparametric/Vocabulary/NeuralNetwork.lean#L58" xlink:title="structure · Statlib/Nonparametric/Vocabulary/NeuralNetwork.lean:58" target="_blank">
<path fill="#e8dcff" stroke="#8b5cf6" d="M232.72,-340C232.72,-340 130.11,-340 130.11,-340 124.11,-340 118.11,-334 118.11,-328 118.11,-328 118.11,-316 118.11,-316 118.11,-310 124.11,-304 130.11,-304 130.11,-304 232.72,-304 232.72,-304 238.72,-304 244.72,-310 244.72,-316 244.72,-316 244.72,-328 244.72,-328 244.72,-334 238.72,-340 232.72,-340"/>
<text xml:space="preserve" text-anchor="middle" x="181.41" y="-319" font-family="Helvetica,sans-Serif" font-size="10.00">FullyConnectedReLUNet</text>
</a>
</g>
</g>
<!-- n6&#45;&gt;n5 -->
<g id="edge8" class="edge">
<title>n6&#45;&gt;n5</title>
<path fill="none" stroke="#64748b" d="M190.06,-303.7C194.3,-295.22 199.48,-284.86 204.12,-275.58"/>
<polygon fill="#64748b" stroke="#64748b" points="206.24,-276.81 207.18,-269.46 201.86,-274.62 206.24,-276.81"/>
</g>
<!-- n7 -->
<g id="node8" class="node">
<title>n7</title>
<g id="a_node8"><a xlink:href="https://github.com/statopia/statlib/blob/main/Statlib/Nonparametric/Vocabulary/Risk.lean#L60" xlink:title="noncomputable def · Statlib/Nonparametric/Vocabulary/Risk.lean:60" target="_blank">
<path fill="#d6e9ff" stroke="#3b82f6" d="M488.67,-340C488.67,-340 392.16,-340 392.16,-340 386.16,-340 380.16,-334 380.16,-328 380.16,-328 380.16,-316 380.16,-316 380.16,-310 386.16,-304 392.16,-304 392.16,-304 488.67,-304 488.67,-304 494.67,-304 500.67,-310 500.67,-316 500.67,-316 500.67,-328 500.67,-328 500.67,-334 494.67,-340 488.67,-340"/>
<text xml:space="preserve" text-anchor="middle" x="440.41" y="-319" font-family="Helvetica,sans-Serif" font-size="10.00">integratedSquaredError</text>
</a>
</g>
</g>
<!-- n8 -->
<g id="node9" class="node">
<title>n8</title>
<g id="a_node9"><a xlink:href="https://github.com/statopia/statlib/blob/main/Statlib/Nonparametric/Vocabulary/FunctionClasses.lean#L16" xlink:title="abbrev · Statlib/Nonparametric/Vocabulary/FunctionClasses.lean:16" target="_blank">
<path fill="#d6e9ff" stroke="#3b82f6" d="M350.09,-340C350.09,-340 294.73,-340 294.73,-340 288.73,-340 282.73,-334 282.73,-328 282.73,-328 282.73,-316 282.73,-316 282.73,-310 288.73,-304 294.73,-304 294.73,-304 350.09,-304 350.09,-304 356.09,-304 362.09,-310 362.09,-316 362.09,-316 362.09,-328 362.09,-328 362.09,-334 356.09,-340 350.09,-340"/>
<text xml:space="preserve" text-anchor="middle" x="322.41" y="-319" font-family="Helvetica,sans-Serif" font-size="10.00">FunctionClass</text>
</a>
</g>
</g>
<!-- n9 -->
<g id="node10" class="node">
<title>n9</title>
<g id="a_node10"><a xlink:href="https://github.com/statopia/statlib/blob/main/Statlib/Nonparametric/Vocabulary/NeuralNetwork.lean#L65" xlink:title="def · Statlib/Nonparametric/Vocabulary/NeuralNetwork.lean:65" target="_blank">
<path fill="#d6e9ff" stroke="#3b82f6" d="M282.59,-412C282.59,-412 212.24,-412 212.24,-412 206.24,-412 200.24,-406 200.24,-400 200.24,-400 200.24,-388 200.24,-388 200.24,-382 206.24,-376 212.24,-376 212.24,-376 282.59,-376 282.59,-376 288.59,-376 294.59,-382 294.59,-388 294.59,-388 294.59,-400 294.59,-400 294.59,-406 288.59,-412 282.59,-412"/>
<text xml:space="preserve" text-anchor="middle" x="247.41" y="-391" font-family="Helvetica,sans-Serif" font-size="10.00">reluNetworkClass</text>
</a>
</g>
</g>
<!-- n9&#45;&gt;n5 -->
<g id="edge11" class="edge">
<title>n9&#45;&gt;n5</title>
<path fill="none" stroke="#64748b" d="M252.21,-375.83C256.48,-357.58 260.99,-328.08 253.41,-304 250.12,-293.53 243.94,-283.32 237.56,-274.7"/>
<polygon fill="#64748b" stroke="#64748b" points="239.62,-273.36 233.38,-269.35 235.76,-276.37 239.62,-273.36"/>
</g>
<!-- n9&#45;&gt;n6 -->
<g id="edge10" class="edge">
<title>n9&#45;&gt;n6</title>
<path fill="none" stroke="#64748b" d="M231.1,-375.7C222.71,-366.8 212.36,-355.82 203.29,-346.2"/>
<polygon fill="#64748b" stroke="#64748b" points="205.16,-344.62 198.58,-341.21 201.6,-347.98 205.16,-344.62"/>
</g>
<!-- n9&#45;&gt;n8 -->
<g id="edge9" class="edge">
<title>n9&#45;&gt;n8</title>
<path fill="none" stroke="#64748b" d="M265.95,-375.7C275.51,-366.78 287.29,-355.78 297.62,-346.14"/>
<polygon fill="#64748b" stroke="#64748b" points="299.27,-347.95 302.72,-341.38 295.93,-344.36 299.27,-347.95"/>
</g>
<!-- n10 -->
<g id="node11" class="node">
<title>n10</title>
<g id="a_node11"><a xlink:href="https://github.com/statopia/statlib/blob/main/Statlib/Nonparametric/Vocabulary/Risk.lean#L75" xlink:title="noncomputable def · Statlib/Nonparametric/Vocabulary/Risk.lean:75" target="_blank">
<path fill="#d6e9ff" stroke="#3b82f6" d="M425.88,-412C425.88,-412 324.95,-412 324.95,-412 318.95,-412 312.95,-406 312.95,-400 312.95,-400 312.95,-388 312.95,-388 312.95,-382 318.95,-376 324.95,-376 324.95,-376 425.88,-376 425.88,-376 431.88,-376 437.88,-382 437.88,-388 437.88,-388 437.88,-400 437.88,-400 437.88,-406 431.88,-412 425.88,-412"/>
<text xml:space="preserve" text-anchor="middle" x="375.41" y="-391" font-family="Helvetica,sans-Serif" font-size="10.00">classApproximationError</text>
</a>
</g>
</g>
<!-- n10&#45;&gt;n7 -->
<g id="edge13" class="edge">
<title>n10&#45;&gt;n7</title>
<path fill="none" stroke="#64748b" d="M391.48,-375.7C399.74,-366.8 409.93,-355.82 418.87,-346.2"/>
<polygon fill="#64748b" stroke="#64748b" points="420.53,-348.01 423.5,-341.21 416.94,-344.68 420.53,-348.01"/>
</g>
<!-- n10&#45;&gt;n8 -->
<g id="edge12" class="edge">
<title>n10&#45;&gt;n8</title>
<path fill="none" stroke="#64748b" d="M362.31,-375.7C355.7,-366.97 347.58,-356.24 340.39,-346.75"/>
<polygon fill="#64748b" stroke="#64748b" points="342.46,-345.41 336.28,-341.31 338.55,-348.37 342.46,-345.41"/>
</g>
<!-- n11 -->
<g id="node12" class="node">
<title>n11</title>
<g id="a_node12"><a xlink:href="https://github.com/statopia/statlib/blob/main/Statlib/Nonparametric/Approximation/NeuralNetwork.lean#L45" xlink:title="theorem · Statlib/Nonparametric/Approximation/NeuralNetwork.lean:45" target="_blank">
<path fill="#ffe6a3" stroke="#d4a017" stroke-width="3" d="M390.09,-484C390.09,-484 110.73,-484 110.73,-484 104.73,-484 98.73,-478 98.73,-472 98.73,-472 98.73,-460 98.73,-460 98.73,-454 104.73,-448 110.73,-448 110.73,-448 390.09,-448 390.09,-448 396.09,-448 402.09,-454 402.09,-460 402.09,-460 402.09,-472 402.09,-472 402.09,-478 396.09,-484 390.09,-484"/>
<text xml:space="preserve" text-anchor="middle" x="250.41" y="-463" font-family="Helvetica,sans-Serif" font-size="10.00">reluNetworkClass_classApproximationError_le_of_candidate_ise</text>
</a>
</g>
</g>
<!-- n11&#45;&gt;n5 -->
<g id="edge15" class="edge">
<title>n11&#45;&gt;n5</title>
<path fill="none" stroke="#64748b" d="M214.94,-446.55C179.94,-425.99 128.93,-389.09 109.41,-340 103.5,-325.13 100.98,-317.59 109.41,-304 124.93,-279 156.14,-265.43 180.87,-258.3"/>
<polygon fill="#64748b" stroke="#64748b" points="181.38,-260.69 187.51,-256.51 180.11,-255.96 181.38,-260.69"/>
</g>
<!-- n11&#45;&gt;n6 -->
<g id="edge14" class="edge">
<title>n11&#45;&gt;n6</title>
<path fill="none" stroke="#64748b" d="M222.11,-446.57C210.65,-437.57 198.47,-425.71 191.41,-412 181.34,-392.43 179.35,-367.28 179.58,-348.72"/>
<polygon fill="#64748b" stroke="#64748b" points="182.02,-349.02 179.79,-341.95 177.13,-348.87 182.02,-349.02"/>
</g>
<!-- n11&#45;&gt;n7 -->
<g id="edge16" class="edge">
<title>n11&#45;&gt;n7</title>
<path fill="none" stroke="#64748b" d="M363.87,-446.53C400.83,-438.03 435.27,-426.55 446.41,-412 460.17,-394.03 456.27,-367.58 450.38,-348.18"/>
<polygon fill="#64748b" stroke="#64748b" points="452.79,-347.66 448.26,-341.78 448.14,-349.2 452.79,-347.66"/>
</g>
<!-- n11&#45;&gt;n9 -->
<g id="edge17" class="edge">
<title>n11&#45;&gt;n9</title>
<path fill="none" stroke="#64748b" d="M249.62,-446.61C249.28,-438.59 248.87,-429.05 248.5,-420.37"/>
<polygon fill="#64748b" stroke="#64748b" points="250.96,-420.47 248.21,-413.58 246.06,-420.68 250.96,-420.47"/>
</g>
<!-- n11&#45;&gt;n10 -->
<g id="edge18" class="edge">
<title>n11&#45;&gt;n10</title>
<path fill="none" stroke="#64748b" d="M283.25,-446.61C299.84,-437.32 320.05,-426.01 337.31,-416.34"/>
<polygon fill="#64748b" stroke="#64748b" points="338.28,-418.6 343.19,-413.05 335.88,-414.33 338.28,-418.6"/>
</g>
</g>
</svg>
