<?xml version="1.0" encoding="UTF-8" standalone="no"?>
<!DOCTYPE svg PUBLIC "-//W3C//DTD SVG 1.1//EN"
 "http://www.w3.org/Graphics/SVG/1.1/DTD/svg11.dtd">
<!-- Generated by graphviz version 15.0.0 (20260523.1842)
 -->
<!-- Title: reluNetworkClass_classApproximationError_le_of_exists_pointwise Pages: 1 -->
<svg width="622pt" height="554pt"
 viewBox="0.00 0.00 622.00 554.00" xmlns="http://www.w3.org/2000/svg" xmlns:xlink="http://www.w3.org/1999/xlink">
<g id="graph0" class="graph" transform="scale(1 1) rotate(0) translate(4 550)">
<title>reluNetworkClass_classApproximationError_le_of_exists_pointwise</title>
<polygon fill="white" stroke="none" points="-4,4 -4,-550 618.36,-550 618.36,4 -4,4"/>
<text xml:space="preserve" text-anchor="middle" x="307.18" y="-529.4" font-family="Helvetica,sans-Serif" font-size="14.00">Proof narrative — reluNetworkClass_classApproximationError_le_of_exists_pointwise &#160;(13 decls)</text>
<g id="clust1" class="cluster">
<title>cluster_0</title>
<path fill="none" stroke="#cbd5e1" stroke-dasharray="5,2" d="M39.68,-8C39.68,-8 574.68,-8 574.68,-8 580.68,-8 586.68,-14 586.68,-20 586.68,-20 586.68,-501.2 586.68,-501.2 586.68,-507.2 580.68,-513.2 574.68,-513.2 574.68,-513.2 39.68,-513.2 39.68,-513.2 33.68,-513.2 27.68,-507.2 27.68,-501.2 27.68,-501.2 27.68,-20 27.68,-20 27.68,-14 33.68,-8 39.68,-8"/>
<text xml:space="preserve" text-anchor="middle" x="307.18" y="-499.3" font-family="Helvetica,sans-Serif" font-size="11.00">Nonparametric</text>
</g>
<!-- n0 -->
<g id="node1" class="node">
<title>n0</title>
<g id="a_node1"><a xlink:href="https://github.com/statopia/statlib/blob/main/Statlib/Nonparametric/Vocabulary/Estimator.lean#L28" xlink:title="noncomputable def · Statlib/Nonparametric/Vocabulary/Estimator.lean:28" target="_blank">
<path fill="#d6e9ff" stroke="#3b82f6" d="M248.68,-52C248.68,-52 218.68,-52 218.68,-52 212.68,-52 206.68,-46 206.68,-40 206.68,-40 206.68,-28 206.68,-28 206.68,-22 212.68,-16 218.68,-16 218.68,-16 248.68,-16 248.68,-16 254.68,-16 260.68,-22 260.68,-28 260.68,-28 260.68,-40 260.68,-40 260.68,-46 254.68,-52 248.68,-52"/>
<text xml:space="preserve" text-anchor="middle" x="233.68" y="-31" font-family="Helvetica,sans-Serif" font-size="10.00">bias</text>
</a>
</g>
</g>
<!-- n1 -->
<g id="node2" class="node">
<title>n1</title>
<g id="a_node2"><a xlink:href="https://github.com/statopia/statlib/blob/main/Statlib/Nonparametric/Vocabulary/NeuralNetwork.lean#L23" xlink:title="structure · Statlib/Nonparametric/Vocabulary/NeuralNetwork.lean:23" target="_blank">
<path fill="#e8dcff" stroke="#8b5cf6" d="M229.64,-124C229.64,-124 183.72,-124 183.72,-124 177.72,-124 171.72,-118 171.72,-112 171.72,-112 171.72,-100 171.72,-100 171.72,-94 177.72,-88 183.72,-88 183.72,-88 229.64,-88 229.64,-88 235.64,-88 241.64,-94 241.64,-100 241.64,-100 241.64,-112 241.64,-112 241.64,-118 235.64,-124 229.64,-124"/>
<text xml:space="preserve" text-anchor="middle" x="206.68" y="-103" font-family="Helvetica,sans-Serif" font-size="10.00">DenseLayer</text>
</a>
</g>
</g>
<!-- n1&#45;&gt;n0 -->
<g id="edge1" class="edge">
<title>n1&#45;&gt;n0</title>
<path fill="none" stroke="#64748b" d="M213.36,-87.7C216.59,-79.3 220.54,-69.07 224.09,-59.86"/>
<polygon fill="#64748b" stroke="#64748b" points="226.31,-60.93 226.54,-53.52 221.73,-59.17 226.31,-60.93"/>
</g>
<!-- n2 -->
<g id="node3" class="node">
<title>n2</title>
<g id="a_node3"><a xlink:href="https://github.com/statopia/statlib/blob/main/Statlib/Nonparametric/Vocabulary/NeuralNetwork.lean#L43" xlink:title="structure · Statlib/Nonparametric/Vocabulary/NeuralNetwork.lean:43" target="_blank">
<path fill="#e8dcff" stroke="#8b5cf6" d="M131.54,-196C131.54,-196 47.82,-196 47.82,-196 41.82,-196 35.82,-190 35.82,-184 35.82,-184 35.82,-172 35.82,-172 35.82,-166 41.82,-160 47.82,-160 47.82,-160 131.54,-160 131.54,-160 137.54,-160 143.54,-166 143.54,-172 143.54,-172 143.54,-184 143.54,-184 143.54,-190 137.54,-196 131.54,-196"/>
<text xml:space="preserve" text-anchor="middle" x="89.68" y="-175" font-family="Helvetica,sans-Serif" font-size="10.00">OneHiddenReLUNet</text>
</a>
</g>
</g>
<!-- n2&#45;&gt;n1 -->
<g id="edge2" class="edge">
<title>n2&#45;&gt;n1</title>
<path fill="none" stroke="#64748b" d="M118.9,-159.52C134.66,-150.09 154.23,-138.38 170.89,-128.41"/>
<polygon fill="#64748b" stroke="#64748b" points="171.78,-130.73 176.53,-125.04 169.27,-126.53 171.78,-130.73"/>
</g>
<!-- n3 -->
<g id="node4" class="node">
<title>n3</title>
<g id="a_node4"><a xlink:href="https://github.com/statopia/statlib/blob/main/Statlib/Nonparametric/Vocabulary/NeuralNetwork.lean#L15" xlink:title="def · Statlib/Nonparametric/Vocabulary/NeuralNetwork.lean:15" target="_blank">
<path fill="#d6e9ff" stroke="#3b82f6" d="M203.68,-196C203.68,-196 173.68,-196 173.68,-196 167.68,-196 161.68,-190 161.68,-184 161.68,-184 161.68,-172 161.68,-172 161.68,-166 167.68,-160 173.68,-160 173.68,-160 203.68,-160 203.68,-160 209.68,-160 215.68,-166 215.68,-172 215.68,-172 215.68,-184 215.68,-184 215.68,-190 209.68,-196 203.68,-196"/>
<text xml:space="preserve" text-anchor="middle" x="188.68" y="-175" font-family="Helvetica,sans-Serif" font-size="10.00">relu</text>
</a>
</g>
</g>
<!-- n4 -->
<g id="node5" class="node">
<title>n4</title>
<g id="a_node5"><a xlink:href="https://github.com/statopia/statlib/blob/main/Statlib/Nonparametric/Vocabulary/NeuralNetwork.lean#L30" xlink:title="noncomputable def · Statlib/Nonparametric/Vocabulary/NeuralNetwork.lean:30" target="_blank">
<path fill="#d6e9ff" stroke="#3b82f6" d="M275.68,-196C275.68,-196 245.68,-196 245.68,-196 239.68,-196 233.68,-190 233.68,-184 233.68,-184 233.68,-172 233.68,-172 233.68,-166 239.68,-160 245.68,-160 245.68,-160 275.68,-160 275.68,-160 281.68,-160 287.68,-166 287.68,-172 287.68,-172 287.68,-184 287.68,-184 287.68,-190 281.68,-196 275.68,-196"/>
<text xml:space="preserve" text-anchor="middle" x="260.68" y="-175" font-family="Helvetica,sans-Serif" font-size="10.00">apply</text>
</a>
</g>
</g>
<!-- n4&#45;&gt;n0 -->
<g id="edge4" class="edge">
<title>n4&#45;&gt;n0</title>
<path fill="none" stroke="#64748b" d="M259.76,-159.78C258.56,-141.73 255.96,-112.63 250.68,-88 248.72,-78.83 245.8,-69.01 242.94,-60.33"/>
<polygon fill="#64748b" stroke="#64748b" points="245.31,-59.69 240.73,-53.86 240.67,-61.28 245.31,-59.69"/>
</g>
<!-- n4&#45;&gt;n1 -->
<g id="edge3" class="edge">
<title>n4&#45;&gt;n1</title>
<path fill="none" stroke="#64748b" d="M247.33,-159.7C240.6,-150.97 232.32,-140.24 225,-130.75"/>
<polygon fill="#64748b" stroke="#64748b" points="227.02,-129.35 220.8,-125.3 223.14,-132.34 227.02,-129.35"/>
</g>
<!-- n5 -->
<g id="node6" class="node">
<title>n5</title>
<g id="a_node6"><a xlink:href="https://github.com/statopia/statlib/blob/main/Statlib/Nonparametric/Vocabulary/NeuralNetwork.lean#L51" xlink:title="noncomputable def · Statlib/Nonparametric/Vocabulary/NeuralNetwork.lean:51" target="_blank">
<path fill="#d6e9ff" stroke="#3b82f6" d="M168.68,-268C168.68,-268 138.68,-268 138.68,-268 132.68,-268 126.68,-262 126.68,-256 126.68,-256 126.68,-244 126.68,-244 126.68,-238 132.68,-232 138.68,-232 138.68,-232 168.68,-232 168.68,-232 174.68,-232 180.68,-238 180.68,-244 180.68,-244 180.68,-256 180.68,-256 180.68,-262 174.68,-268 168.68,-268"/>
<text xml:space="preserve" text-anchor="middle" x="153.68" y="-247" font-family="Helvetica,sans-Serif" font-size="10.00">realize</text>
</a>
</g>
</g>
<!-- n5&#45;&gt;n2 -->
<g id="edge5" class="edge">
<title>n5&#45;&gt;n2</title>
<path fill="none" stroke="#64748b" d="M137.86,-231.7C129.72,-222.8 119.69,-211.82 110.89,-202.2"/>
<polygon fill="#64748b" stroke="#64748b" points="112.87,-200.73 106.34,-197.22 109.26,-204.04 112.87,-200.73"/>
</g>
<!-- n5&#45;&gt;n3 -->
<g id="edge6" class="edge">
<title>n5&#45;&gt;n3</title>
<path fill="none" stroke="#64748b" d="M162.33,-231.7C166.57,-223.22 171.75,-212.86 176.39,-203.58"/>
<polygon fill="#64748b" stroke="#64748b" points="178.51,-204.81 179.45,-197.46 174.13,-202.62 178.51,-204.81"/>
</g>
<!-- n5&#45;&gt;n4 -->
<g id="edge7" class="edge">
<title>n5&#45;&gt;n4</title>
<path fill="none" stroke="#64748b" d="M180.41,-231.52C194.68,-222.18 212.39,-210.59 227.54,-200.68"/>
<polygon fill="#64748b" stroke="#64748b" points="228.51,-202.97 233.03,-197.09 225.83,-198.87 228.51,-202.97"/>
</g>
<!-- n6 -->
<g id="node7" class="node">
<title>n6</title>
<g id="a_node7"><a xlink:href="https://github.com/statopia/statlib/blob/main/Statlib/Nonparametric/Vocabulary/NeuralNetwork.lean#L58" xlink:title="structure · Statlib/Nonparametric/Vocabulary/NeuralNetwork.lean:58" target="_blank">
<path fill="#e8dcff" stroke="#8b5cf6" d="M169.99,-340C169.99,-340 67.38,-340 67.38,-340 61.38,-340 55.38,-334 55.38,-328 55.38,-328 55.38,-316 55.38,-316 55.38,-310 61.38,-304 67.38,-304 67.38,-304 169.99,-304 169.99,-304 175.99,-304 181.99,-310 181.99,-316 181.99,-316 181.99,-328 181.99,-328 181.99,-334 175.99,-340 169.99,-340"/>
<text xml:space="preserve" text-anchor="middle" x="118.68" y="-319" font-family="Helvetica,sans-Serif" font-size="10.00">FullyConnectedReLUNet</text>
</a>
</g>
</g>
<!-- n6&#45;&gt;n5 -->
<g id="edge8" class="edge">
<title>n6&#45;&gt;n5</title>
<path fill="none" stroke="#64748b" d="M127.33,-303.7C131.57,-295.22 136.75,-284.86 141.39,-275.58"/>
<polygon fill="#64748b" stroke="#64748b" points="143.51,-276.81 144.45,-269.46 139.13,-274.62 143.51,-276.81"/>
</g>
<!-- n7 -->
<g id="node8" class="node">
<title>n7</title>
<g id="a_node8"><a xlink:href="https://github.com/statopia/statlib/blob/main/Statlib/Nonparametric/Vocabulary/Risk.lean#L60" xlink:title="noncomputable def · Statlib/Nonparametric/Vocabulary/Risk.lean:60" target="_blank">
<path fill="#d6e9ff" stroke="#3b82f6" d="M425.94,-340C425.94,-340 329.43,-340 329.43,-340 323.43,-340 317.43,-334 317.43,-328 317.43,-328 317.43,-316 317.43,-316 317.43,-310 323.43,-304 329.43,-304 329.43,-304 425.94,-304 425.94,-304 431.94,-304 437.94,-310 437.94,-316 437.94,-316 437.94,-328 437.94,-328 437.94,-334 431.94,-340 425.94,-340"/>
<text xml:space="preserve" text-anchor="middle" x="377.68" y="-319" font-family="Helvetica,sans-Serif" font-size="10.00">integratedSquaredError</text>
</a>
</g>
</g>
<!-- n8 -->
<g id="node9" class="node">
<title>n8</title>
<g id="a_node9"><a xlink:href="https://github.com/statopia/statlib/blob/main/Statlib/Nonparametric/Vocabulary/FunctionClasses.lean#L16" xlink:title="abbrev · Statlib/Nonparametric/Vocabulary/FunctionClasses.lean:16" target="_blank">
<path fill="#d6e9ff" stroke="#3b82f6" d="M287.36,-340C287.36,-340 232,-340 232,-340 226,-340 220,-334 220,-328 220,-328 220,-316 220,-316 220,-310 226,-304 232,-304 232,-304 287.36,-304 287.36,-304 293.36,-304 299.36,-310 299.36,-316 299.36,-316 299.36,-328 299.36,-328 299.36,-334 293.36,-340 287.36,-340"/>
<text xml:space="preserve" text-anchor="middle" x="259.68" y="-319" font-family="Helvetica,sans-Serif" font-size="10.00">FunctionClass</text>
</a>
</g>
</g>
<!-- n9 -->
<g id="node10" class="node">
<title>n9</title>
<g id="a_node10"><a xlink:href="https://github.com/statopia/statlib/blob/main/Statlib/Nonparametric/Vocabulary/NeuralNetwork.lean#L65" xlink:title="def · Statlib/Nonparametric/Vocabulary/NeuralNetwork.lean:65" target="_blank">
<path fill="#d6e9ff" stroke="#3b82f6" d="M157.86,-412C157.86,-412 87.5,-412 87.5,-412 81.5,-412 75.5,-406 75.5,-400 75.5,-400 75.5,-388 75.5,-388 75.5,-382 81.5,-376 87.5,-376 87.5,-376 157.86,-376 157.86,-376 163.86,-376 169.86,-382 169.86,-388 169.86,-388 169.86,-400 169.86,-400 169.86,-406 163.86,-412 157.86,-412"/>
<text xml:space="preserve" text-anchor="middle" x="122.68" y="-391" font-family="Helvetica,sans-Serif" font-size="10.00">reluNetworkClass</text>
</a>
</g>
</g>
<!-- n9&#45;&gt;n5 -->
<g id="edge11" class="edge">
<title>n9&#45;&gt;n5</title>
<path fill="none" stroke="#64748b" d="M156.4,-375.62C169.64,-366.88 183.39,-354.93 190.68,-340 201.28,-318.31 188.18,-292.8 174.73,-274.66"/>
<polygon fill="#64748b" stroke="#64748b" points="176.96,-273.54 170.73,-269.53 173.1,-276.56 176.96,-273.54"/>
</g>
<!-- n9&#45;&gt;n6 -->
<g id="edge10" class="edge">
<title>n9&#45;&gt;n6</title>
<path fill="none" stroke="#64748b" d="M121.69,-375.7C121.22,-367.47 120.65,-357.48 120.13,-348.42"/>
<polygon fill="#64748b" stroke="#64748b" points="122.59,-348.46 119.75,-341.62 117.7,-348.74 122.59,-348.46"/>
</g>
<!-- n9&#45;&gt;n8 -->
<g id="edge9" class="edge">
<title>n9&#45;&gt;n8</title>
<path fill="none" stroke="#64748b" d="M156.9,-375.52C175.59,-365.97 198.88,-354.07 218.55,-344.01"/>
<polygon fill="#64748b" stroke="#64748b" points="219.43,-346.32 224.55,-340.95 217.2,-341.95 219.43,-346.32"/>
</g>
<!-- n10 -->
<g id="node11" class="node">
<title>n10</title>
<g id="a_node11"><a xlink:href="https://github.com/statopia/statlib/blob/main/Statlib/Nonparametric/Vocabulary/Risk.lean#L75" xlink:title="noncomputable def · Statlib/Nonparametric/Vocabulary/Risk.lean:75" target="_blank">
<path fill="#d6e9ff" stroke="#3b82f6" d="M301.14,-412C301.14,-412 200.22,-412 200.22,-412 194.22,-412 188.22,-406 188.22,-400 188.22,-400 188.22,-388 188.22,-388 188.22,-382 194.22,-376 200.22,-376 200.22,-376 301.14,-376 301.14,-376 307.14,-376 313.14,-382 313.14,-388 313.14,-388 313.14,-400 313.14,-400 313.14,-406 307.14,-412 301.14,-412"/>
<text xml:space="preserve" text-anchor="middle" x="250.68" y="-391" font-family="Helvetica,sans-Serif" font-size="10.00">classApproximationError</text>
</a>
</g>
</g>
<!-- n10&#45;&gt;n7 -->
<g id="edge13" class="edge">
<title>n10&#45;&gt;n7</title>
<path fill="none" stroke="#64748b" d="M282.4,-375.52C299.65,-366.01 321.12,-354.17 339.31,-344.15"/>
<polygon fill="#64748b" stroke="#64748b" points="340.09,-346.52 345.04,-340.99 337.73,-342.22 340.09,-346.52"/>
</g>
<!-- n10&#45;&gt;n8 -->
<g id="edge12" class="edge">
<title>n10&#45;&gt;n8</title>
<path fill="none" stroke="#64748b" d="M252.91,-375.7C253.96,-367.47 255.25,-357.48 256.41,-348.42"/>
<polygon fill="#64748b" stroke="#64748b" points="258.83,-348.86 257.29,-341.61 253.97,-348.24 258.83,-348.86"/>
</g>
<!-- n11 -->
<g id="node12" class="node">
<title>n11</title>
<g id="a_node12"><a xlink:href="https://github.com/statopia/statlib/blob/main/Statlib/Nonparametric/Approximation/Metric.lean#L10" xlink:title="theorem · Statlib/Nonparametric/Approximation/Metric.lean:10" target="_blank">
<path fill="#ffe6a3" stroke="#d4a017" d="M566.87,-412C566.87,-412 362.5,-412 362.5,-412 356.5,-412 350.5,-406 350.5,-400 350.5,-400 350.5,-388 350.5,-388 350.5,-382 356.5,-376 362.5,-376 362.5,-376 566.87,-376 566.87,-376 572.87,-376 578.87,-382 578.87,-388 578.87,-388 578.87,-400 578.87,-400 578.87,-406 572.87,-412 566.87,-412"/>
<text xml:space="preserve" text-anchor="middle" x="464.68" y="-391" font-family="Helvetica,sans-Serif" font-size="10.00">integratedSquaredError_le_of_pointwise_bound</text>
</a>
</g>
</g>
<!-- n11&#45;&gt;n7 -->
<g id="edge14" class="edge">
<title>n11&#45;&gt;n7</title>
<path fill="none" stroke="#64748b" d="M443.18,-375.7C431.88,-366.61 417.91,-355.36 405.77,-345.6"/>
<polygon fill="#64748b" stroke="#64748b" points="407.41,-343.78 400.42,-341.3 404.34,-347.59 407.41,-343.78"/>
</g>
<!-- n12 -->
<g id="node13" class="node">
<title>n12</title>
<g id="a_node13"><a xlink:href="https://github.com/statopia/statlib/blob/main/Statlib/Nonparametric/Approximation/NeuralNetwork.lean#L70" xlink:title="theorem · Statlib/Nonparametric/Approximation/NeuralNetwork.lean:70" target="_blank">
<path fill="#ffe6a3" stroke="#d4a017" stroke-width="3" d="M366.91,-484C366.91,-484 76.45,-484 76.45,-484 70.45,-484 64.45,-478 64.45,-472 64.45,-472 64.45,-460 64.45,-460 64.45,-454 70.45,-448 76.45,-448 76.45,-448 366.91,-448 366.91,-448 372.91,-448 378.91,-454 378.91,-460 378.91,-460 378.91,-472 378.91,-472 378.91,-478 372.91,-484 366.91,-484"/>
<text xml:space="preserve" text-anchor="middle" x="221.68" y="-463" font-family="Helvetica,sans-Serif" font-size="10.00">reluNetworkClass_classApproximationError_le_of_exists_pointwise</text>
</a>
</g>
</g>
<!-- n12&#45;&gt;n5 -->
<g id="edge16" class="edge">
<title>n12&#45;&gt;n5</title>
<path fill="none" stroke="#64748b" d="M106.72,-446.57C87.66,-438.74 69.85,-427.66 56.68,-412 25.66,-375.1 21.26,-344.96 46.68,-304 62.2,-279 93.41,-265.43 118.13,-258.3"/>
<polygon fill="#64748b" stroke="#64748b" points="118.65,-260.69 124.78,-256.51 117.38,-255.96 118.65,-260.69"/>
</g>
<!-- n12&#45;&gt;n6 -->
<g id="edge15" class="edge">
<title>n12&#45;&gt;n6</title>
<path fill="none" stroke="#64748b" d="M111.49,-446.51C93.9,-438.68 77.85,-427.62 66.68,-412 51.37,-390.59 70.82,-364.4 90.14,-345.99"/>
<polygon fill="#64748b" stroke="#64748b" points="91.73,-347.86 95.25,-341.33 88.43,-344.24 91.73,-347.86"/>
</g>
<!-- n12&#45;&gt;n7 -->
<g id="edge17" class="edge">
<title>n12&#45;&gt;n7</title>
<path fill="none" stroke="#64748b" d="M269.64,-446.51C287.48,-437.96 306.95,-426.44 321.68,-412 334.75,-399.19 332.09,-391.59 341.68,-376 347.57,-366.43 354.42,-356.17 360.55,-347.24"/>
<polygon fill="#64748b" stroke="#64748b" points="362.45,-348.8 364.42,-341.65 358.42,-346.01 362.45,-348.8"/>
</g>
<!-- n12&#45;&gt;n9 -->
<g id="edge18" class="edge">
<title>n12&#45;&gt;n9</title>
<path fill="none" stroke="#64748b" d="M195.67,-446.61C182.89,-437.57 167.39,-426.61 153.96,-417.12"/>
<polygon fill="#64748b" stroke="#64748b" points="155.52,-415.22 148.39,-413.18 152.69,-419.22 155.52,-415.22"/>
</g>
<!-- n12&#45;&gt;n10 -->
<g id="edge19" class="edge">
<title>n12&#45;&gt;n10</title>
<path fill="none" stroke="#64748b" d="M229.3,-446.61C232.69,-438.42 236.74,-428.65 240.39,-419.83"/>
<polygon fill="#64748b" stroke="#64748b" points="242.62,-420.87 243.03,-413.47 238.09,-419 242.62,-420.87"/>
</g>
<!-- n12&#45;&gt;n11 -->
<g id="edge20" class="edge">
<title>n12&#45;&gt;n11</title>
<path fill="none" stroke="#64748b" d="M285.84,-446.52C319.82,-436.73 361.56,-424.71 396.17,-414.74"/>
<polygon fill="#64748b" stroke="#64748b" points="396.84,-417.09 402.89,-412.8 395.48,-412.38 396.84,-417.09"/>
</g>
</g>
</svg>
