<?xml version="1.0" encoding="UTF-8" standalone="no"?>
<!DOCTYPE svg PUBLIC "-//W3C//DTD SVG 1.1//EN"
 "http://www.w3.org/Graphics/SVG/1.1/DTD/svg11.dtd">
<!-- Generated by graphviz version 15.0.0 (20260523.1842)
 -->
<!-- Title: reluNetworkClass_classApproximationError_le_of_pointwise_candidate Pages: 1 -->
<svg width="647pt" height="554pt"
 viewBox="0.00 0.00 647.00 554.00" xmlns="http://www.w3.org/2000/svg" xmlns:xlink="http://www.w3.org/1999/xlink">
<g id="graph0" class="graph" transform="scale(1 1) rotate(0) translate(4 550)">
<title>reluNetworkClass_classApproximationError_le_of_pointwise_candidate</title>
<polygon fill="white" stroke="none" points="-4,4 -4,-550 643.29,-550 643.29,4 -4,4"/>
<text xml:space="preserve" text-anchor="middle" x="319.65" y="-529.4" font-family="Helvetica,sans-Serif" font-size="14.00">Proof narrative — reluNetworkClass_classApproximationError_le_of_pointwise_candidate &#160;(13 decls)</text>
<g id="clust1" class="cluster">
<title>cluster_0</title>
<path fill="none" stroke="#cbd5e1" stroke-dasharray="5,2" d="M52.15,-8C52.15,-8 587.15,-8 587.15,-8 593.15,-8 599.15,-14 599.15,-20 599.15,-20 599.15,-501.2 599.15,-501.2 599.15,-507.2 593.15,-513.2 587.15,-513.2 587.15,-513.2 52.15,-513.2 52.15,-513.2 46.15,-513.2 40.15,-507.2 40.15,-501.2 40.15,-501.2 40.15,-20 40.15,-20 40.15,-14 46.15,-8 52.15,-8"/>
<text xml:space="preserve" text-anchor="middle" x="319.65" y="-499.3" font-family="Helvetica,sans-Serif" font-size="11.00">Nonparametric</text>
</g>
<!-- n0 -->
<g id="node1" class="node">
<title>n0</title>
<g id="a_node1"><a xlink:href="https://github.com/statopia/statlib/blob/main/Statlib/Nonparametric/Vocabulary/Estimator.lean#L28" xlink:title="noncomputable def · Statlib/Nonparametric/Vocabulary/Estimator.lean:28" target="_blank">
<path fill="#d6e9ff" stroke="#3b82f6" d="M261.15,-52C261.15,-52 231.15,-52 231.15,-52 225.15,-52 219.15,-46 219.15,-40 219.15,-40 219.15,-28 219.15,-28 219.15,-22 225.15,-16 231.15,-16 231.15,-16 261.15,-16 261.15,-16 267.15,-16 273.15,-22 273.15,-28 273.15,-28 273.15,-40 273.15,-40 273.15,-46 267.15,-52 261.15,-52"/>
<text xml:space="preserve" text-anchor="middle" x="246.15" y="-31" font-family="Helvetica,sans-Serif" font-size="10.00">bias</text>
</a>
</g>
</g>
<!-- n1 -->
<g id="node2" class="node">
<title>n1</title>
<g id="a_node2"><a xlink:href="https://github.com/statopia/statlib/blob/main/Statlib/Nonparametric/Vocabulary/NeuralNetwork.lean#L23" xlink:title="structure · Statlib/Nonparametric/Vocabulary/NeuralNetwork.lean:23" target="_blank">
<path fill="#e8dcff" stroke="#8b5cf6" d="M242.11,-124C242.11,-124 196.19,-124 196.19,-124 190.19,-124 184.19,-118 184.19,-112 184.19,-112 184.19,-100 184.19,-100 184.19,-94 190.19,-88 196.19,-88 196.19,-88 242.11,-88 242.11,-88 248.11,-88 254.11,-94 254.11,-100 254.11,-100 254.11,-112 254.11,-112 254.11,-118 248.11,-124 242.11,-124"/>
<text xml:space="preserve" text-anchor="middle" x="219.15" y="-103" font-family="Helvetica,sans-Serif" font-size="10.00">DenseLayer</text>
</a>
</g>
</g>
<!-- n1&#45;&gt;n0 -->
<g id="edge1" class="edge">
<title>n1&#45;&gt;n0</title>
<path fill="none" stroke="#64748b" d="M225.82,-87.7C229.06,-79.3 233.01,-69.07 236.56,-59.86"/>
<polygon fill="#64748b" stroke="#64748b" points="238.77,-60.93 239,-53.52 234.2,-59.17 238.77,-60.93"/>
</g>
<!-- n2 -->
<g id="node3" class="node">
<title>n2</title>
<g id="a_node3"><a xlink:href="https://github.com/statopia/statlib/blob/main/Statlib/Nonparametric/Vocabulary/NeuralNetwork.lean#L43" xlink:title="structure · Statlib/Nonparametric/Vocabulary/NeuralNetwork.lean:43" target="_blank">
<path fill="#e8dcff" stroke="#8b5cf6" d="M144.01,-196C144.01,-196 60.29,-196 60.29,-196 54.29,-196 48.29,-190 48.29,-184 48.29,-184 48.29,-172 48.29,-172 48.29,-166 54.29,-160 60.29,-160 60.29,-160 144.01,-160 144.01,-160 150.01,-160 156.01,-166 156.01,-172 156.01,-172 156.01,-184 156.01,-184 156.01,-190 150.01,-196 144.01,-196"/>
<text xml:space="preserve" text-anchor="middle" x="102.15" y="-175" font-family="Helvetica,sans-Serif" font-size="10.00">OneHiddenReLUNet</text>
</a>
</g>
</g>
<!-- n2&#45;&gt;n1 -->
<g id="edge2" class="edge">
<title>n2&#45;&gt;n1</title>
<path fill="none" stroke="#64748b" d="M131.37,-159.52C147.12,-150.09 166.69,-138.38 183.35,-128.41"/>
<polygon fill="#64748b" stroke="#64748b" points="184.25,-130.73 189,-125.04 181.73,-126.53 184.25,-130.73"/>
</g>
<!-- n3 -->
<g id="node4" class="node">
<title>n3</title>
<g id="a_node4"><a xlink:href="https://github.com/statopia/statlib/blob/main/Statlib/Nonparametric/Vocabulary/NeuralNetwork.lean#L15" xlink:title="def · Statlib/Nonparametric/Vocabulary/NeuralNetwork.lean:15" target="_blank">
<path fill="#d6e9ff" stroke="#3b82f6" d="M216.15,-196C216.15,-196 186.15,-196 186.15,-196 180.15,-196 174.15,-190 174.15,-184 174.15,-184 174.15,-172 174.15,-172 174.15,-166 180.15,-160 186.15,-160 186.15,-160 216.15,-160 216.15,-160 222.15,-160 228.15,-166 228.15,-172 228.15,-172 228.15,-184 228.15,-184 228.15,-190 222.15,-196 216.15,-196"/>
<text xml:space="preserve" text-anchor="middle" x="201.15" y="-175" font-family="Helvetica,sans-Serif" font-size="10.00">relu</text>
</a>
</g>
</g>
<!-- n4 -->
<g id="node5" class="node">
<title>n4</title>
<g id="a_node5"><a xlink:href="https://github.com/statopia/statlib/blob/main/Statlib/Nonparametric/Vocabulary/NeuralNetwork.lean#L30" xlink:title="noncomputable def · Statlib/Nonparametric/Vocabulary/NeuralNetwork.lean:30" target="_blank">
<path fill="#d6e9ff" stroke="#3b82f6" d="M288.15,-196C288.15,-196 258.15,-196 258.15,-196 252.15,-196 246.15,-190 246.15,-184 246.15,-184 246.15,-172 246.15,-172 246.15,-166 252.15,-160 258.15,-160 258.15,-160 288.15,-160 288.15,-160 294.15,-160 300.15,-166 300.15,-172 300.15,-172 300.15,-184 300.15,-184 300.15,-190 294.15,-196 288.15,-196"/>
<text xml:space="preserve" text-anchor="middle" x="273.15" y="-175" font-family="Helvetica,sans-Serif" font-size="10.00">apply</text>
</a>
</g>
</g>
<!-- n4&#45;&gt;n0 -->
<g id="edge4" class="edge">
<title>n4&#45;&gt;n0</title>
<path fill="none" stroke="#64748b" d="M272.23,-159.78C271.03,-141.73 268.43,-112.63 263.15,-88 261.18,-78.83 258.27,-69.01 255.4,-60.33"/>
<polygon fill="#64748b" stroke="#64748b" points="257.77,-59.69 253.19,-53.86 253.14,-61.28 257.77,-59.69"/>
</g>
<!-- n4&#45;&gt;n1 -->
<g id="edge3" class="edge">
<title>n4&#45;&gt;n1</title>
<path fill="none" stroke="#64748b" d="M259.8,-159.7C253.06,-150.97 244.79,-140.24 237.47,-130.75"/>
<polygon fill="#64748b" stroke="#64748b" points="239.48,-129.35 233.27,-125.3 235.6,-132.34 239.48,-129.35"/>
</g>
<!-- n5 -->
<g id="node6" class="node">
<title>n5</title>
<g id="a_node6"><a xlink:href="https://github.com/statopia/statlib/blob/main/Statlib/Nonparametric/Vocabulary/NeuralNetwork.lean#L51" xlink:title="noncomputable def · Statlib/Nonparametric/Vocabulary/NeuralNetwork.lean:51" target="_blank">
<path fill="#d6e9ff" stroke="#3b82f6" d="M181.15,-268C181.15,-268 151.15,-268 151.15,-268 145.15,-268 139.15,-262 139.15,-256 139.15,-256 139.15,-244 139.15,-244 139.15,-238 145.15,-232 151.15,-232 151.15,-232 181.15,-232 181.15,-232 187.15,-232 193.15,-238 193.15,-244 193.15,-244 193.15,-256 193.15,-256 193.15,-262 187.15,-268 181.15,-268"/>
<text xml:space="preserve" text-anchor="middle" x="166.15" y="-247" font-family="Helvetica,sans-Serif" font-size="10.00">realize</text>
</a>
</g>
</g>
<!-- n5&#45;&gt;n2 -->
<g id="edge5" class="edge">
<title>n5&#45;&gt;n2</title>
<path fill="none" stroke="#64748b" d="M150.33,-231.7C142.19,-222.8 132.16,-211.82 123.36,-202.2"/>
<polygon fill="#64748b" stroke="#64748b" points="125.34,-200.73 118.81,-197.22 121.72,-204.04 125.34,-200.73"/>
</g>
<!-- n5&#45;&gt;n3 -->
<g id="edge6" class="edge">
<title>n5&#45;&gt;n3</title>
<path fill="none" stroke="#64748b" d="M174.8,-231.7C179.04,-223.22 184.22,-212.86 188.86,-203.58"/>
<polygon fill="#64748b" stroke="#64748b" points="190.98,-204.81 191.92,-197.46 186.6,-202.62 190.98,-204.81"/>
</g>
<!-- n5&#45;&gt;n4 -->
<g id="edge7" class="edge">
<title>n5&#45;&gt;n4</title>
<path fill="none" stroke="#64748b" d="M192.87,-231.52C207.15,-222.18 224.86,-210.59 240,-200.68"/>
<polygon fill="#64748b" stroke="#64748b" points="240.98,-202.97 245.5,-197.09 238.3,-198.87 240.98,-202.97"/>
</g>
<!-- n6 -->
<g id="node7" class="node">
<title>n6</title>
<g id="a_node7"><a xlink:href="https://github.com/statopia/statlib/blob/main/Statlib/Nonparametric/Vocabulary/NeuralNetwork.lean#L58" xlink:title="structure · Statlib/Nonparametric/Vocabulary/NeuralNetwork.lean:58" target="_blank">
<path fill="#e8dcff" stroke="#8b5cf6" d="M182.45,-340C182.45,-340 79.84,-340 79.84,-340 73.84,-340 67.84,-334 67.84,-328 67.84,-328 67.84,-316 67.84,-316 67.84,-310 73.84,-304 79.84,-304 79.84,-304 182.45,-304 182.45,-304 188.45,-304 194.45,-310 194.45,-316 194.45,-316 194.45,-328 194.45,-328 194.45,-334 188.45,-340 182.45,-340"/>
<text xml:space="preserve" text-anchor="middle" x="131.15" y="-319" font-family="Helvetica,sans-Serif" font-size="10.00">FullyConnectedReLUNet</text>
</a>
</g>
</g>
<!-- n6&#45;&gt;n5 -->
<g id="edge8" class="edge">
<title>n6&#45;&gt;n5</title>
<path fill="none" stroke="#64748b" d="M139.8,-303.7C144.04,-295.22 149.22,-284.86 153.86,-275.58"/>
<polygon fill="#64748b" stroke="#64748b" points="155.98,-276.81 156.92,-269.46 151.6,-274.62 155.98,-276.81"/>
</g>
<!-- n7 -->
<g id="node8" class="node">
<title>n7</title>
<g id="a_node8"><a xlink:href="https://github.com/statopia/statlib/blob/main/Statlib/Nonparametric/Vocabulary/Risk.lean#L60" xlink:title="noncomputable def · Statlib/Nonparametric/Vocabulary/Risk.lean:60" target="_blank">
<path fill="#d6e9ff" stroke="#3b82f6" d="M438.4,-340C438.4,-340 341.89,-340 341.89,-340 335.89,-340 329.89,-334 329.89,-328 329.89,-328 329.89,-316 329.89,-316 329.89,-310 335.89,-304 341.89,-304 341.89,-304 438.4,-304 438.4,-304 444.4,-304 450.4,-310 450.4,-316 450.4,-316 450.4,-328 450.4,-328 450.4,-334 444.4,-340 438.4,-340"/>
<text xml:space="preserve" text-anchor="middle" x="390.15" y="-319" font-family="Helvetica,sans-Serif" font-size="10.00">integratedSquaredError</text>
</a>
</g>
</g>
<!-- n8 -->
<g id="node9" class="node">
<title>n8</title>
<g id="a_node9"><a xlink:href="https://github.com/statopia/statlib/blob/main/Statlib/Nonparametric/Vocabulary/FunctionClasses.lean#L16" xlink:title="abbrev · Statlib/Nonparametric/Vocabulary/FunctionClasses.lean:16" target="_blank">
<path fill="#d6e9ff" stroke="#3b82f6" d="M299.83,-340C299.83,-340 244.47,-340 244.47,-340 238.47,-340 232.47,-334 232.47,-328 232.47,-328 232.47,-316 232.47,-316 232.47,-310 238.47,-304 244.47,-304 244.47,-304 299.83,-304 299.83,-304 305.83,-304 311.83,-310 311.83,-316 311.83,-316 311.83,-328 311.83,-328 311.83,-334 305.83,-340 299.83,-340"/>
<text xml:space="preserve" text-anchor="middle" x="272.15" y="-319" font-family="Helvetica,sans-Serif" font-size="10.00">FunctionClass</text>
</a>
</g>
</g>
<!-- n9 -->
<g id="node10" class="node">
<title>n9</title>
<g id="a_node10"><a xlink:href="https://github.com/statopia/statlib/blob/main/Statlib/Nonparametric/Vocabulary/NeuralNetwork.lean#L65" xlink:title="def · Statlib/Nonparametric/Vocabulary/NeuralNetwork.lean:65" target="_blank">
<path fill="#d6e9ff" stroke="#3b82f6" d="M170.32,-412C170.32,-412 99.97,-412 99.97,-412 93.97,-412 87.97,-406 87.97,-400 87.97,-400 87.97,-388 87.97,-388 87.97,-382 93.97,-376 99.97,-376 99.97,-376 170.32,-376 170.32,-376 176.32,-376 182.32,-382 182.32,-388 182.32,-388 182.32,-400 182.32,-400 182.32,-406 176.32,-412 170.32,-412"/>
<text xml:space="preserve" text-anchor="middle" x="135.15" y="-391" font-family="Helvetica,sans-Serif" font-size="10.00">reluNetworkClass</text>
</a>
</g>
</g>
<!-- n9&#45;&gt;n5 -->
<g id="edge11" class="edge">
<title>n9&#45;&gt;n5</title>
<path fill="none" stroke="#64748b" d="M168.86,-375.62C182.1,-366.88 195.86,-354.93 203.15,-340 213.74,-318.31 200.64,-292.8 187.19,-274.66"/>
<polygon fill="#64748b" stroke="#64748b" points="189.43,-273.54 183.19,-269.53 185.56,-276.56 189.43,-273.54"/>
</g>
<!-- n9&#45;&gt;n6 -->
<g id="edge10" class="edge">
<title>n9&#45;&gt;n6</title>
<path fill="none" stroke="#64748b" d="M134.16,-375.7C133.69,-367.47 133.12,-357.48 132.6,-348.42"/>
<polygon fill="#64748b" stroke="#64748b" points="135.06,-348.46 132.21,-341.62 130.16,-348.74 135.06,-348.46"/>
</g>
<!-- n9&#45;&gt;n8 -->
<g id="edge9" class="edge">
<title>n9&#45;&gt;n8</title>
<path fill="none" stroke="#64748b" d="M169.36,-375.52C188.06,-365.97 211.34,-354.07 231.02,-344.01"/>
<polygon fill="#64748b" stroke="#64748b" points="231.9,-346.32 237.02,-340.95 229.67,-341.95 231.9,-346.32"/>
</g>
<!-- n10 -->
<g id="node11" class="node">
<title>n10</title>
<g id="a_node11"><a xlink:href="https://github.com/statopia/statlib/blob/main/Statlib/Nonparametric/Vocabulary/Risk.lean#L75" xlink:title="noncomputable def · Statlib/Nonparametric/Vocabulary/Risk.lean:75" target="_blank">
<path fill="#d6e9ff" stroke="#3b82f6" d="M313.61,-412C313.61,-412 212.68,-412 212.68,-412 206.68,-412 200.68,-406 200.68,-400 200.68,-400 200.68,-388 200.68,-388 200.68,-382 206.68,-376 212.68,-376 212.68,-376 313.61,-376 313.61,-376 319.61,-376 325.61,-382 325.61,-388 325.61,-388 325.61,-400 325.61,-400 325.61,-406 319.61,-412 313.61,-412"/>
<text xml:space="preserve" text-anchor="middle" x="263.15" y="-391" font-family="Helvetica,sans-Serif" font-size="10.00">classApproximationError</text>
</a>
</g>
</g>
<!-- n10&#45;&gt;n7 -->
<g id="edge13" class="edge">
<title>n10&#45;&gt;n7</title>
<path fill="none" stroke="#64748b" d="M294.87,-375.52C312.12,-366.01 333.59,-354.17 351.78,-344.15"/>
<polygon fill="#64748b" stroke="#64748b" points="352.56,-346.52 357.51,-340.99 350.19,-342.22 352.56,-346.52"/>
</g>
<!-- n10&#45;&gt;n8 -->
<g id="edge12" class="edge">
<title>n10&#45;&gt;n8</title>
<path fill="none" stroke="#64748b" d="M265.37,-375.7C266.43,-367.47 267.71,-357.48 268.88,-348.42"/>
<polygon fill="#64748b" stroke="#64748b" points="271.29,-348.86 269.75,-341.61 266.43,-348.24 271.29,-348.86"/>
</g>
<!-- n11 -->
<g id="node12" class="node">
<title>n11</title>
<g id="a_node12"><a xlink:href="https://github.com/statopia/statlib/blob/main/Statlib/Nonparametric/Approximation/Metric.lean#L10" xlink:title="theorem · Statlib/Nonparametric/Approximation/Metric.lean:10" target="_blank">
<path fill="#ffe6a3" stroke="#d4a017" d="M579.33,-412C579.33,-412 374.96,-412 374.96,-412 368.96,-412 362.96,-406 362.96,-400 362.96,-400 362.96,-388 362.96,-388 362.96,-382 368.96,-376 374.96,-376 374.96,-376 579.33,-376 579.33,-376 585.33,-376 591.33,-382 591.33,-388 591.33,-388 591.33,-400 591.33,-400 591.33,-406 585.33,-412 579.33,-412"/>
<text xml:space="preserve" text-anchor="middle" x="477.15" y="-391" font-family="Helvetica,sans-Serif" font-size="10.00">integratedSquaredError_le_of_pointwise_bound</text>
</a>
</g>
</g>
<!-- n11&#45;&gt;n7 -->
<g id="edge14" class="edge">
<title>n11&#45;&gt;n7</title>
<path fill="none" stroke="#64748b" d="M455.64,-375.7C444.35,-366.61 430.37,-355.36 418.23,-345.6"/>
<polygon fill="#64748b" stroke="#64748b" points="419.88,-343.78 412.89,-341.3 416.8,-347.59 419.88,-343.78"/>
</g>
<!-- n12 -->
<g id="node13" class="node">
<title>n12</title>
<g id="a_node13"><a xlink:href="https://github.com/statopia/statlib/blob/main/Statlib/Nonparametric/Approximation/NeuralNetwork.lean#L11" xlink:title="theorem · Statlib/Nonparametric/Approximation/NeuralNetwork.lean:11" target="_blank">
<path fill="#ffe6a3" stroke="#d4a017" stroke-width="3" d="M392.28,-484C392.28,-484 84.01,-484 84.01,-484 78.01,-484 72.01,-478 72.01,-472 72.01,-472 72.01,-460 72.01,-460 72.01,-454 78.01,-448 84.01,-448 84.01,-448 392.28,-448 392.28,-448 398.28,-448 404.28,-454 404.28,-460 404.28,-460 404.28,-472 404.28,-472 404.28,-478 398.28,-484 392.28,-484"/>
<text xml:space="preserve" text-anchor="middle" x="238.15" y="-463" font-family="Helvetica,sans-Serif" font-size="10.00">reluNetworkClass_classApproximationError_le_of_pointwise_candidate</text>
</a>
</g>
</g>
<!-- n12&#45;&gt;n5 -->
<g id="edge16" class="edge">
<title>n12&#45;&gt;n5</title>
<path fill="none" stroke="#64748b" d="M119.15,-446.53C100.11,-438.68 82.36,-427.61 69.15,-412 38,-375.21 33.73,-344.96 59.15,-304 74.66,-279 105.87,-265.43 130.6,-258.3"/>
<polygon fill="#64748b" stroke="#64748b" points="131.12,-260.69 137.24,-256.51 129.85,-255.96 131.12,-260.69"/>
</g>
<!-- n12&#45;&gt;n6 -->
<g id="edge15" class="edge">
<title>n12&#45;&gt;n6</title>
<path fill="none" stroke="#64748b" d="M124.36,-446.67C106.63,-438.82 90.46,-427.7 79.15,-412 63.76,-390.65 83.22,-364.45 102.56,-346.03"/>
<polygon fill="#64748b" stroke="#64748b" points="104.16,-347.88 107.68,-341.35 100.85,-344.27 104.16,-347.88"/>
</g>
<!-- n12&#45;&gt;n7 -->
<g id="edge17" class="edge">
<title>n12&#45;&gt;n7</title>
<path fill="none" stroke="#64748b" d="M283.2,-446.66C300.59,-438 319.72,-426.39 334.15,-412 347.11,-399.07 344.55,-391.59 354.15,-376 360.04,-366.43 366.88,-356.17 373.01,-347.24"/>
<polygon fill="#64748b" stroke="#64748b" points="374.91,-348.8 376.88,-341.65 370.88,-346.01 374.91,-348.8"/>
</g>
<!-- n12&#45;&gt;n9 -->
<g id="edge18" class="edge">
<title>n12&#45;&gt;n9</title>
<path fill="none" stroke="#64748b" d="M211.08,-446.61C197.66,-437.49 181.36,-426.41 167.31,-416.86"/>
<polygon fill="#64748b" stroke="#64748b" points="169.03,-415.07 161.86,-413.16 166.28,-419.12 169.03,-415.07"/>
</g>
<!-- n12&#45;&gt;n10 -->
<g id="edge19" class="edge">
<title>n12&#45;&gt;n10</title>
<path fill="none" stroke="#64748b" d="M244.72,-446.61C247.64,-438.42 251.13,-428.65 254.28,-419.83"/>
<polygon fill="#64748b" stroke="#64748b" points="256.5,-420.91 256.54,-413.49 251.88,-419.26 256.5,-420.91"/>
</g>
<!-- n12&#45;&gt;n11 -->
<g id="edge20" class="edge">
<title>n12&#45;&gt;n11</title>
<path fill="none" stroke="#64748b" d="M301.25,-446.52C334.67,-436.73 375.72,-424.71 409.76,-414.74"/>
<polygon fill="#64748b" stroke="#64748b" points="410.32,-417.13 416.35,-412.81 408.94,-412.42 410.32,-417.13"/>
</g>
</g>
</svg>
