<?xml version="1.0" encoding="UTF-8" standalone="no"?>
<!DOCTYPE svg PUBLIC "-//W3C//DTD SVG 1.1//EN"
 "http://www.w3.org/Graphics/SVG/1.1/DTD/svg11.dtd">
<!-- Generated by graphviz version 15.0.0 (20260523.1842)
 -->
<!-- Title: rkhsBall_classApproximationError_le_of_exists_pointwise Pages: 1 -->
<svg width="650pt" height="554pt"
 viewBox="0.00 0.00 650.00 554.00" xmlns="http://www.w3.org/2000/svg" xmlns:xlink="http://www.w3.org/1999/xlink">
<g id="graph0" class="graph" transform="scale(1 1) rotate(0) translate(4 550)">
<title>rkhsBall_classApproximationError_le_of_exists_pointwise</title>
<polygon fill="white" stroke="none" points="-4,4 -4,-550 646,-550 646,4 -4,4"/>
<text xml:space="preserve" text-anchor="middle" x="321" y="-529.4" font-family="Helvetica,sans-Serif" font-size="14.00">Proof narrative — rkhsBall_classApproximationError_le_of_exists_pointwise &#160;(13 decls)</text>
<g id="clust1" class="cluster">
<title>cluster_0</title>
<path fill="none" stroke="#cbd5e1" stroke-dasharray="5,2" d="M20,-8C20,-8 622,-8 622,-8 628,-8 634,-14 634,-20 634,-20 634,-501.2 634,-501.2 634,-507.2 628,-513.2 622,-513.2 622,-513.2 20,-513.2 20,-513.2 14,-513.2 8,-507.2 8,-501.2 8,-501.2 8,-20 8,-20 8,-14 14,-8 20,-8"/>
<text xml:space="preserve" text-anchor="middle" x="321" y="-499.3" font-family="Helvetica,sans-Serif" font-size="11.00">Nonparametric</text>
</g>
<!-- n0 -->
<g id="node1" class="node">
<title>n0</title>
<g id="a_node1"><a xlink:href="https://github.com/statopia/statlib/blob/main/Statlib/Nonparametric/Vocabulary/RKHS.lean#L15" xlink:title="structure · Statlib/Nonparametric/Vocabulary/RKHS.lean:15" target="_blank">
<path fill="#e8dcff" stroke="#8b5cf6" d="M75.51,-196C75.51,-196 28.49,-196 28.49,-196 22.49,-196 16.49,-190 16.49,-184 16.49,-184 16.49,-172 16.49,-172 16.49,-166 22.49,-160 28.49,-160 28.49,-160 75.51,-160 75.51,-160 81.51,-160 87.51,-166 87.51,-172 87.51,-172 87.51,-184 87.51,-184 87.51,-190 81.51,-196 75.51,-196"/>
<text xml:space="preserve" text-anchor="middle" x="52" y="-175" font-family="Helvetica,sans-Serif" font-size="10.00">RKHSModel</text>
</a>
</g>
</g>
<!-- n1 -->
<g id="node2" class="node">
<title>n1</title>
<g id="a_node2"><a xlink:href="https://github.com/statopia/statlib/blob/main/Statlib/Nonparametric/Vocabulary/FunctionClasses.lean#L16" xlink:title="abbrev · Statlib/Nonparametric/Vocabulary/FunctionClasses.lean:16" target="_blank">
<path fill="#d6e9ff" stroke="#3b82f6" d="M172.68,-196C172.68,-196 117.32,-196 117.32,-196 111.32,-196 105.32,-190 105.32,-184 105.32,-184 105.32,-172 105.32,-172 105.32,-166 111.32,-160 117.32,-160 117.32,-160 172.68,-160 172.68,-160 178.68,-160 184.68,-166 184.68,-172 184.68,-172 184.68,-184 184.68,-184 184.68,-190 178.68,-196 172.68,-196"/>
<text xml:space="preserve" text-anchor="middle" x="145" y="-175" font-family="Helvetica,sans-Serif" font-size="10.00">FunctionClass</text>
</a>
</g>
</g>
<!-- n2 -->
<g id="node3" class="node">
<title>n2</title>
<g id="a_node3"><a xlink:href="https://github.com/statopia/statlib/blob/main/Statlib/Nonparametric/Vocabulary/Risk.lean#L60" xlink:title="noncomputable def · Statlib/Nonparametric/Vocabulary/Risk.lean:60" target="_blank">
<path fill="#d6e9ff" stroke="#3b82f6" d="M456.25,-196C456.25,-196 359.75,-196 359.75,-196 353.75,-196 347.75,-190 347.75,-184 347.75,-184 347.75,-172 347.75,-172 347.75,-166 353.75,-160 359.75,-160 359.75,-160 456.25,-160 456.25,-160 462.25,-160 468.25,-166 468.25,-172 468.25,-172 468.25,-184 468.25,-184 468.25,-190 462.25,-196 456.25,-196"/>
<text xml:space="preserve" text-anchor="middle" x="408" y="-175" font-family="Helvetica,sans-Serif" font-size="10.00">integratedSquaredError</text>
</a>
</g>
</g>
<!-- n3 -->
<g id="node4" class="node">
<title>n3</title>
<g id="a_node4"><a xlink:href="https://github.com/statopia/statlib/blob/main/Statlib/Nonparametric/Vocabulary/Risk.lean#L75" xlink:title="noncomputable def · Statlib/Nonparametric/Vocabulary/Risk.lean:75" target="_blank">
<path fill="#d6e9ff" stroke="#3b82f6" d="M458.46,-268C458.46,-268 357.54,-268 357.54,-268 351.54,-268 345.54,-262 345.54,-256 345.54,-256 345.54,-244 345.54,-244 345.54,-238 351.54,-232 357.54,-232 357.54,-232 458.46,-232 458.46,-232 464.46,-232 470.46,-238 470.46,-244 470.46,-244 470.46,-256 470.46,-256 470.46,-262 464.46,-268 458.46,-268"/>
<text xml:space="preserve" text-anchor="middle" x="408" y="-247" font-family="Helvetica,sans-Serif" font-size="10.00">classApproximationError</text>
</a>
</g>
</g>
<!-- n3&#45;&gt;n1 -->
<g id="edge1" class="edge">
<title>n3&#45;&gt;n1</title>
<path fill="none" stroke="#64748b" d="M345.32,-235.07C302.45,-225.15 244.46,-210.97 194,-196 193.63,-195.89 193.26,-195.78 192.9,-195.67"/>
<polygon fill="#64748b" stroke="#64748b" points="193.87,-193.41 186.46,-193.67 192.41,-198.09 193.87,-193.41"/>
</g>
<!-- n3&#45;&gt;n2 -->
<g id="edge2" class="edge">
<title>n3&#45;&gt;n2</title>
<path fill="none" stroke="#64748b" d="M408,-231.7C408,-223.47 408,-213.48 408,-204.42"/>
<polygon fill="#64748b" stroke="#64748b" points="410.45,-204.62 408,-197.62 405.55,-204.62 410.45,-204.62"/>
</g>
<!-- n4 -->
<g id="node5" class="node">
<title>n4</title>
<g id="a_node5"><a xlink:href="https://github.com/statopia/statlib/blob/main/Statlib/Nonparametric/Vocabulary/RKHS.lean#L23" xlink:title="def · Statlib/Nonparametric/Vocabulary/RKHS.lean:23" target="_blank">
<path fill="#d6e9ff" stroke="#3b82f6" d="M98,-268C98,-268 68,-268 68,-268 62,-268 56,-262 56,-256 56,-256 56,-244 56,-244 56,-238 62,-232 68,-232 68,-232 98,-232 98,-232 104,-232 110,-238 110,-244 110,-244 110,-256 110,-256 110,-262 104,-268 98,-268"/>
<text xml:space="preserve" text-anchor="middle" x="83" y="-247" font-family="Helvetica,sans-Serif" font-size="10.00">rkhsBall</text>
</a>
</g>
</g>
<!-- n4&#45;&gt;n0 -->
<g id="edge3" class="edge">
<title>n4&#45;&gt;n0</title>
<path fill="none" stroke="#64748b" d="M75.34,-231.7C71.62,-223.3 67.09,-213.07 63.01,-203.86"/>
<polygon fill="#64748b" stroke="#64748b" points="65.26,-202.9 60.19,-197.49 60.78,-204.88 65.26,-202.9"/>
</g>
<!-- n4&#45;&gt;n1 -->
<g id="edge4" class="edge">
<title>n4&#45;&gt;n1</title>
<path fill="none" stroke="#64748b" d="M98.33,-231.7C106.13,-222.88 115.74,-212.03 124.21,-202.47"/>
<polygon fill="#64748b" stroke="#64748b" points="126.04,-204.1 128.85,-197.24 122.37,-200.85 126.04,-204.1"/>
</g>
<!-- n5 -->
<g id="node6" class="node">
<title>n5</title>
<g id="a_node6"><a xlink:href="https://github.com/statopia/statlib/blob/main/Statlib/Nonparametric/Approximation/Metric.lean#L10" xlink:title="theorem · Statlib/Nonparametric/Approximation/Metric.lean:10" target="_blank">
<path fill="#ffe6a3" stroke="#d4a017" d="M614.19,-340C614.19,-340 409.81,-340 409.81,-340 403.81,-340 397.81,-334 397.81,-328 397.81,-328 397.81,-316 397.81,-316 397.81,-310 403.81,-304 409.81,-304 409.81,-304 614.19,-304 614.19,-304 620.19,-304 626.19,-310 626.19,-316 626.19,-316 626.19,-328 626.19,-328 626.19,-334 620.19,-340 614.19,-340"/>
<text xml:space="preserve" text-anchor="middle" x="512" y="-319" font-family="Helvetica,sans-Serif" font-size="10.00">integratedSquaredError_le_of_pointwise_bound</text>
</a>
</g>
</g>
<!-- n5&#45;&gt;n2 -->
<g id="edge5" class="edge">
<title>n5&#45;&gt;n2</title>
<path fill="none" stroke="#64748b" d="M512.44,-303.69C512.09,-284.51 508.97,-253.46 494,-232 484.86,-218.89 471.33,-208.4 457.69,-200.33"/>
<polygon fill="#64748b" stroke="#64748b" points="459.2,-198.36 451.9,-197.06 456.8,-202.63 459.2,-198.36"/>
</g>
<!-- n6 -->
<g id="node7" class="node">
<title>n6</title>
<g id="a_node7"><a xlink:href="https://github.com/statopia/statlib/blob/main/Statlib/Nonparametric/Vocabulary/Estimator.lean#L28" xlink:title="noncomputable def · Statlib/Nonparametric/Vocabulary/Estimator.lean:28" target="_blank">
<path fill="#d6e9ff" stroke="#3b82f6" d="M245,-52C245,-52 215,-52 215,-52 209,-52 203,-46 203,-40 203,-40 203,-28 203,-28 203,-22 209,-16 215,-16 215,-16 245,-16 245,-16 251,-16 257,-22 257,-28 257,-28 257,-40 257,-40 257,-46 251,-52 245,-52"/>
<text xml:space="preserve" text-anchor="middle" x="230" y="-31" font-family="Helvetica,sans-Serif" font-size="10.00">bias</text>
</a>
</g>
</g>
<!-- n7 -->
<g id="node8" class="node">
<title>n7</title>
<g id="a_node8"><a xlink:href="https://github.com/statopia/statlib/blob/main/Statlib/Nonparametric/Vocabulary/NeuralNetwork.lean#L23" xlink:title="structure · Statlib/Nonparametric/Vocabulary/NeuralNetwork.lean:23" target="_blank">
<path fill="#e8dcff" stroke="#8b5cf6" d="M279.96,-124C279.96,-124 234.04,-124 234.04,-124 228.04,-124 222.04,-118 222.04,-112 222.04,-112 222.04,-100 222.04,-100 222.04,-94 228.04,-88 234.04,-88 234.04,-88 279.96,-88 279.96,-88 285.96,-88 291.96,-94 291.96,-100 291.96,-100 291.96,-112 291.96,-112 291.96,-118 285.96,-124 279.96,-124"/>
<text xml:space="preserve" text-anchor="middle" x="257" y="-103" font-family="Helvetica,sans-Serif" font-size="10.00">DenseLayer</text>
</a>
</g>
</g>
<!-- n7&#45;&gt;n6 -->
<g id="edge6" class="edge">
<title>n7&#45;&gt;n6</title>
<path fill="none" stroke="#64748b" d="M250.33,-87.7C247.09,-79.3 243.14,-69.07 239.59,-59.86"/>
<polygon fill="#64748b" stroke="#64748b" points="241.95,-59.17 237.14,-53.52 237.38,-60.93 241.95,-59.17"/>
</g>
<!-- n8 -->
<g id="node9" class="node">
<title>n8</title>
<g id="a_node9"><a xlink:href="https://github.com/statopia/statlib/blob/main/Statlib/Nonparametric/Vocabulary/NeuralNetwork.lean#L30" xlink:title="noncomputable def · Statlib/Nonparametric/Vocabulary/NeuralNetwork.lean:30" target="_blank">
<path fill="#d6e9ff" stroke="#3b82f6" d="M245,-196C245,-196 215,-196 215,-196 209,-196 203,-190 203,-184 203,-184 203,-172 203,-172 203,-166 209,-160 215,-160 215,-160 245,-160 245,-160 251,-160 257,-166 257,-172 257,-172 257,-184 257,-184 257,-190 251,-196 245,-196"/>
<text xml:space="preserve" text-anchor="middle" x="230" y="-175" font-family="Helvetica,sans-Serif" font-size="10.00">apply</text>
</a>
</g>
</g>
<!-- n8&#45;&gt;n6 -->
<g id="edge8" class="edge">
<title>n8&#45;&gt;n6</title>
<path fill="none" stroke="#64748b" d="M222.93,-159.67C219.16,-149.47 214.91,-136.22 213,-124 210.53,-108.19 210.53,-103.81 213,-88 214.45,-78.74 217.24,-68.89 220.15,-60.22"/>
<polygon fill="#64748b" stroke="#64748b" points="222.41,-61.18 222.43,-53.76 217.79,-59.55 222.41,-61.18"/>
</g>
<!-- n8&#45;&gt;n7 -->
<g id="edge7" class="edge">
<title>n8&#45;&gt;n7</title>
<path fill="none" stroke="#64748b" d="M236.67,-159.7C239.91,-151.3 243.86,-141.07 247.41,-131.86"/>
<polygon fill="#64748b" stroke="#64748b" points="249.62,-132.93 249.86,-125.52 245.05,-131.17 249.62,-132.93"/>
</g>
<!-- n9 -->
<g id="node10" class="node">
<title>n9</title>
<g id="a_node10"><a xlink:href="https://github.com/statopia/statlib/blob/main/Statlib/Nonparametric/Approximation/Metric.lean#L153" xlink:title="theorem · Statlib/Nonparametric/Approximation/Metric.lean:153" target="_blank">
<path fill="#ffe6a3" stroke="#d4a017" d="M295.72,-268C295.72,-268 160.28,-268 160.28,-268 154.28,-268 148.28,-262 148.28,-256 148.28,-256 148.28,-244 148.28,-244 148.28,-238 154.28,-232 160.28,-232 160.28,-232 295.72,-232 295.72,-232 301.72,-232 307.72,-238 307.72,-244 307.72,-244 307.72,-256 307.72,-256 307.72,-262 301.72,-268 295.72,-268"/>
<text xml:space="preserve" text-anchor="middle" x="228" y="-247" font-family="Helvetica,sans-Serif" font-size="10.00">integratedSquaredError_nonneg</text>
</a>
</g>
</g>
<!-- n9&#45;&gt;n2 -->
<g id="edge9" class="edge">
<title>n9&#45;&gt;n2</title>
<path fill="none" stroke="#64748b" d="M272.96,-231.52C298.07,-221.75 329.49,-209.53 355.71,-199.34"/>
<polygon fill="#64748b" stroke="#64748b" points="356.26,-201.75 361.89,-196.93 354.48,-197.18 356.26,-201.75"/>
</g>
<!-- n9&#45;&gt;n8 -->
<g id="edge10" class="edge">
<title>n9&#45;&gt;n8</title>
<path fill="none" stroke="#64748b" d="M228.49,-231.7C228.73,-223.47 229.01,-213.48 229.27,-204.42"/>
<polygon fill="#64748b" stroke="#64748b" points="231.72,-204.68 229.47,-197.62 226.82,-204.54 231.72,-204.68"/>
</g>
<!-- n10 -->
<g id="node11" class="node">
<title>n10</title>
<g id="a_node11"><a xlink:href="https://github.com/statopia/statlib/blob/main/Statlib/Nonparametric/Approximation/RKHS.lean#L67" xlink:title="theorem · Statlib/Nonparametric/Approximation/RKHS.lean:67" target="_blank">
<path fill="#ffe6a3" stroke="#d4a017" d="M308.21,-340C308.21,-340 107.79,-340 107.79,-340 101.79,-340 95.79,-334 95.79,-328 95.79,-328 95.79,-316 95.79,-316 95.79,-310 101.79,-304 107.79,-304 107.79,-304 308.21,-304 308.21,-304 314.21,-304 320.21,-310 320.21,-316 320.21,-316 320.21,-328 320.21,-328 320.21,-334 314.21,-340 308.21,-340"/>
<text xml:space="preserve" text-anchor="middle" x="208" y="-319" font-family="Helvetica,sans-Serif" font-size="10.00">rkhsBall_classApproximationError_le_of_exists</text>
</a>
</g>
</g>
<!-- n10&#45;&gt;n0 -->
<g id="edge11" class="edge">
<title>n10&#45;&gt;n0</title>
<path fill="none" stroke="#64748b" d="M180.29,-303.64C166.74,-294.23 150.84,-281.73 139,-268 127.05,-254.14 130.85,-245.95 119,-232 109.37,-220.66 97,-210.07 85.51,-201.38"/>
<polygon fill="#64748b" stroke="#64748b" points="87.19,-199.58 80.1,-197.4 84.28,-203.52 87.19,-199.58"/>
</g>
<!-- n10&#45;&gt;n2 -->
<g id="edge12" class="edge">
<title>n10&#45;&gt;n2</title>
<path fill="none" stroke="#64748b" d="M259.73,-303.53C279.33,-295.06 300.8,-283.34 317,-268 330.29,-255.42 324.95,-245.78 337,-232 347.07,-220.48 360.03,-209.91 372.12,-201.29"/>
<polygon fill="#64748b" stroke="#64748b" points="373.51,-203.31 377.87,-197.31 370.72,-199.28 373.51,-203.31"/>
</g>
<!-- n10&#45;&gt;n3 -->
<g id="edge13" class="edge">
<title>n10&#45;&gt;n3</title>
<path fill="none" stroke="#64748b" d="M257.95,-303.52C286.1,-293.67 321.37,-281.32 350.64,-271.07"/>
<polygon fill="#64748b" stroke="#64748b" points="351.11,-273.51 356.91,-268.88 349.49,-268.88 351.11,-273.51"/>
</g>
<!-- n10&#45;&gt;n4 -->
<g id="edge14" class="edge">
<title>n10&#45;&gt;n4</title>
<path fill="none" stroke="#64748b" d="M176.78,-303.52C158.78,-293.44 136.11,-280.74 117.57,-270.36"/>
<polygon fill="#64748b" stroke="#64748b" points="119.05,-268.38 111.75,-267.1 116.66,-272.66 119.05,-268.38"/>
</g>
<!-- n10&#45;&gt;n9 -->
<g id="edge15" class="edge">
<title>n10&#45;&gt;n9</title>
<path fill="none" stroke="#64748b" d="M212.94,-303.7C215.32,-295.39 218.21,-285.28 220.82,-276.14"/>
<polygon fill="#64748b" stroke="#64748b" points="223.13,-276.96 222.7,-269.56 218.42,-275.62 223.13,-276.96"/>
</g>
<!-- n11 -->
<g id="node12" class="node">
<title>n11</title>
<g id="a_node12"><a xlink:href="https://github.com/statopia/statlib/blob/main/Statlib/Nonparametric/Approximation/RKHS.lean#L95" xlink:title="theorem · Statlib/Nonparametric/Approximation/RKHS.lean:95" target="_blank">
<path fill="#ffe6a3" stroke="#d4a017" d="M333.74,-412C333.74,-412 68.26,-412 68.26,-412 62.26,-412 56.26,-406 56.26,-400 56.26,-400 56.26,-388 56.26,-388 56.26,-382 62.26,-376 68.26,-376 68.26,-376 333.74,-376 333.74,-376 339.74,-376 345.74,-382 345.74,-388 345.74,-388 345.74,-400 345.74,-400 345.74,-406 339.74,-412 333.74,-412"/>
<text xml:space="preserve" text-anchor="middle" x="201" y="-391" font-family="Helvetica,sans-Serif" font-size="10.00">rkhsBall_classApproximationError_le_of_pointwise_candidate</text>
</a>
</g>
</g>
<!-- n11&#45;&gt;n0 -->
<g id="edge16" class="edge">
<title>n11&#45;&gt;n0</title>
<path fill="none" stroke="#64748b" d="M128.85,-375.54C108.27,-367.58 87.31,-356.18 72,-340 37.56,-303.59 41.33,-240.02 46.84,-204.63"/>
<polygon fill="#64748b" stroke="#64748b" points="49.25,-205.08 48,-197.77 44.41,-204.26 49.25,-205.08"/>
</g>
<!-- n11&#45;&gt;n2 -->
<g id="edge19" class="edge">
<title>n11&#45;&gt;n2</title>
<path fill="none" stroke="#64748b" d="M264.3,-375.54C290.83,-366.84 321.38,-354.95 347,-340 368.23,-327.6 367.97,-316.74 389,-304 425.85,-281.68 454.85,-303.67 479,-268 487.97,-254.75 486.17,-246.3 479,-232 472.66,-219.36 461.71,-208.96 450.29,-200.82"/>
<polygon fill="#64748b" stroke="#64748b" points="451.97,-199 444.8,-197.14 449.24,-203.07 451.97,-199"/>
</g>
<!-- n11&#45;&gt;n3 -->
<g id="edge17" class="edge">
<title>n11&#45;&gt;n3</title>
<path fill="none" stroke="#64748b" d="M262.51,-375.61C284.98,-367.27 309.62,-355.62 329,-340 344.17,-327.78 341.44,-318.89 354,-304 362.76,-293.62 373.24,-282.99 382.64,-273.99"/>
<polygon fill="#64748b" stroke="#64748b" points="384.12,-275.96 387.52,-269.37 380.75,-272.4 384.12,-275.96"/>
</g>
<!-- n11&#45;&gt;n4 -->
<g id="edge18" class="edge">
<title>n11&#45;&gt;n4</title>
<path fill="none" stroke="#64748b" d="M133.15,-375.63C115.27,-367.72 97.93,-356.32 87,-340 74.61,-321.5 74.89,-295.67 77.51,-276.59"/>
<polygon fill="#64748b" stroke="#64748b" points="79.9,-277.15 78.6,-269.85 75.06,-276.37 79.9,-277.15"/>
</g>
<!-- n11&#45;&gt;n5 -->
<g id="edge20" class="edge">
<title>n11&#45;&gt;n5</title>
<path fill="none" stroke="#64748b" d="M278.68,-375.52C323.57,-365.41 380.12,-352.68 426.3,-342.29"/>
<polygon fill="#64748b" stroke="#64748b" points="426.74,-344.7 433.03,-340.77 425.66,-339.92 426.74,-344.7"/>
</g>
<!-- n11&#45;&gt;n10 -->
<g id="edge21" class="edge">
<title>n11&#45;&gt;n10</title>
<path fill="none" stroke="#64748b" d="M202.73,-375.7C203.55,-367.47 204.55,-357.48 205.46,-348.42"/>
<polygon fill="#64748b" stroke="#64748b" points="207.88,-348.82 206.14,-341.61 203,-348.33 207.88,-348.82"/>
</g>
<!-- n12 -->
<g id="node13" class="node">
<title>n12</title>
<g id="a_node13"><a xlink:href="https://github.com/statopia/statlib/blob/main/Statlib/Nonparametric/Approximation/RKHS.lean#L124" xlink:title="theorem · Statlib/Nonparametric/Approximation/RKHS.lean:124" target="_blank">
<path fill="#ffe6a3" stroke="#d4a017" stroke-width="3" d="M299.84,-484C299.84,-484 52.16,-484 52.16,-484 46.16,-484 40.16,-478 40.16,-472 40.16,-472 40.16,-460 40.16,-460 40.16,-454 46.16,-448 52.16,-448 52.16,-448 299.84,-448 299.84,-448 305.84,-448 311.84,-454 311.84,-460 311.84,-460 311.84,-472 311.84,-472 311.84,-478 305.84,-484 299.84,-484"/>
<text xml:space="preserve" text-anchor="middle" x="176" y="-463" font-family="Helvetica,sans-Serif" font-size="10.00">rkhsBall_classApproximationError_le_of_exists_pointwise</text>
</a>
</g>
</g>
<!-- n12&#45;&gt;n0 -->
<g id="edge22" class="edge">
<title>n12&#45;&gt;n0</title>
<path fill="none" stroke="#64748b" d="M75.73,-446.57C58.14,-438.77 41.98,-427.71 31,-412 -13.46,-348.41 20.13,-249.98 40.04,-204.12"/>
<polygon fill="#64748b" stroke="#64748b" points="42.23,-205.22 42.84,-197.83 37.75,-203.22 42.23,-205.22"/>
</g>
<!-- n12&#45;&gt;n3 -->
<g id="edge23" class="edge">
<title>n12&#45;&gt;n3</title>
<path fill="none" stroke="#64748b" d="M297.47,-446.57C318.7,-438.75 339.05,-427.68 355,-412 390.89,-376.72 372.95,-351.69 389,-304 392.1,-294.78 395.67,-284.72 398.86,-275.86"/>
<polygon fill="#64748b" stroke="#64748b" points="401.07,-276.96 401.15,-269.55 396.46,-275.29 401.07,-276.96"/>
</g>
<!-- n12&#45;&gt;n4 -->
<g id="edge24" class="edge">
<title>n12&#45;&gt;n4</title>
<path fill="none" stroke="#64748b" d="M90.88,-446.52C73.6,-438.74 57.51,-427.69 47,-412 18.68,-369.75 46.97,-308.65 66.96,-275.18"/>
<polygon fill="#64748b" stroke="#64748b" points="68.95,-276.61 70.53,-269.37 64.78,-274.05 68.95,-276.61"/>
</g>
<!-- n12&#45;&gt;n11 -->
<g id="edge25" class="edge">
<title>n12&#45;&gt;n11</title>
<path fill="none" stroke="#64748b" d="M182.57,-446.61C185.49,-438.42 188.98,-428.65 192.13,-419.83"/>
<polygon fill="#64748b" stroke="#64748b" points="194.35,-420.91 194.4,-413.49 189.73,-419.26 194.35,-420.91"/>
</g>
</g>
</svg>
