<?xml version="1.0" encoding="UTF-8" standalone="no"?>
<!DOCTYPE svg PUBLIC "-//W3C//DTD SVG 1.1//EN"
 "http://www.w3.org/Graphics/SVG/1.1/DTD/svg11.dtd">
<!-- Generated by graphviz version 15.0.0 (20260523.1842)
 -->
<!-- Title: tensorProductSplineSieve_holderSmoothBall_error_bound_of_has_pointwise_rate_and_exact_basisCount Pages: 1 -->
<svg width="1432pt" height="1058pt"
 viewBox="0.00 0.00 1432.00 1058.00" xmlns="http://www.w3.org/2000/svg" xmlns:xlink="http://www.w3.org/1999/xlink">
<g id="graph0" class="graph" transform="scale(1 1) rotate(0) translate(4 1054)">
<title>tensorProductSplineSieve_holderSmoothBall_error_bound_of_has_pointwise_rate_and_exact_basisCount</title>
<polygon fill="white" stroke="none" points="-4,4 -4,-1054 1428,-1054 1428,4 -4,4"/>
<text xml:space="preserve" text-anchor="middle" x="712" y="-1033.4" font-family="Helvetica,sans-Serif" font-size="14.00">Proof narrative — tensorProductSplineSieve_holderSmoothBall_error_bound_of_has_pointwise_rate_and_exact_basisCount &#160;(30 decls)</text>
<g id="clust1" class="cluster">
<title>cluster_0</title>
<path fill="none" stroke="#cbd5e1" stroke-dasharray="5,2" d="M20,-8C20,-8 1404,-8 1404,-8 1410,-8 1416,-14 1416,-20 1416,-20 1416,-1005.2 1416,-1005.2 1416,-1011.2 1410,-1017.2 1404,-1017.2 1404,-1017.2 20,-1017.2 20,-1017.2 14,-1017.2 8,-1011.2 8,-1005.2 8,-1005.2 8,-20 8,-20 8,-14 14,-8 20,-8"/>
<text xml:space="preserve" text-anchor="middle" x="712" y="-1003.3" font-family="Helvetica,sans-Serif" font-size="11.00">Nonparametric</text>
</g>
<!-- n0 -->
<g id="node1" class="node">
<title>n0</title>
<g id="a_node1"><a xlink:href="https://github.com/statopia/statlib/blob/main/Statlib/Nonparametric/Vocabulary/Spline.lean#L19" xlink:title="structure · Statlib/Nonparametric/Vocabulary/Spline.lean:19" target="_blank">
<path fill="#e8dcff" stroke="#8b5cf6" d="M1197.36,-340C1197.36,-340 1078.64,-340 1078.64,-340 1072.64,-340 1066.64,-334 1066.64,-328 1066.64,-328 1066.64,-316 1066.64,-316 1066.64,-310 1072.64,-304 1078.64,-304 1078.64,-304 1197.36,-304 1197.36,-304 1203.36,-304 1209.36,-310 1209.36,-316 1209.36,-316 1209.36,-328 1209.36,-328 1209.36,-334 1203.36,-340 1197.36,-340"/>
<text xml:space="preserve" text-anchor="middle" x="1138" y="-319" font-family="Helvetica,sans-Serif" font-size="10.00">TensorProductSplineSystem</text>
</a>
</g>
</g>
<!-- n1 -->
<g id="node2" class="node">
<title>n1</title>
<g id="a_node2"><a xlink:href="https://github.com/statopia/statlib/blob/main/Statlib/Nonparametric/Vocabulary/FunctionClasses.lean#L16" xlink:title="abbrev · Statlib/Nonparametric/Vocabulary/FunctionClasses.lean:16" target="_blank">
<path fill="#d6e9ff" stroke="#3b82f6" d="M252.68,-412C252.68,-412 197.32,-412 197.32,-412 191.32,-412 185.32,-406 185.32,-400 185.32,-400 185.32,-388 185.32,-388 185.32,-382 191.32,-376 197.32,-376 197.32,-376 252.68,-376 252.68,-376 258.68,-376 264.68,-382 264.68,-388 264.68,-388 264.68,-400 264.68,-400 264.68,-406 258.68,-412 252.68,-412"/>
<text xml:space="preserve" text-anchor="middle" x="225" y="-391" font-family="Helvetica,sans-Serif" font-size="10.00">FunctionClass</text>
</a>
</g>
</g>
<!-- n2 -->
<g id="node3" class="node">
<title>n2</title>
<g id="a_node3"><a xlink:href="https://github.com/statopia/statlib/blob/main/Statlib/Nonparametric/Vocabulary/FunctionClasses.lean#L44" xlink:title="def · Statlib/Nonparametric/Vocabulary/FunctionClasses.lean:44" target="_blank">
<path fill="#d6e9ff" stroke="#3b82f6" d="M155.8,-412C155.8,-412 88.2,-412 88.2,-412 82.2,-412 76.2,-406 76.2,-400 76.2,-400 76.2,-388 76.2,-388 76.2,-382 82.2,-376 88.2,-376 88.2,-376 155.8,-376 155.8,-376 161.8,-376 167.8,-382 167.8,-388 167.8,-388 167.8,-400 167.8,-400 167.8,-406 161.8,-412 155.8,-412"/>
<text xml:space="preserve" text-anchor="middle" x="122" y="-391" font-family="Helvetica,sans-Serif" font-size="10.00">IsHolderFunction</text>
</a>
</g>
</g>
<!-- n3 -->
<g id="node4" class="node">
<title>n3</title>
<g id="a_node4"><a xlink:href="https://github.com/statopia/statlib/blob/main/Statlib/Nonparametric/Vocabulary/FunctionClasses.lean#L69" xlink:title="def · Statlib/Nonparametric/Vocabulary/FunctionClasses.lean:69" target="_blank">
<path fill="#d6e9ff" stroke="#3b82f6" d="M190.03,-484C190.03,-484 87.97,-484 87.97,-484 81.97,-484 75.97,-478 75.97,-472 75.97,-472 75.97,-460 75.97,-460 75.97,-454 81.97,-448 87.97,-448 87.97,-448 190.03,-448 190.03,-448 196.03,-448 202.03,-454 202.03,-460 202.03,-460 202.03,-472 202.03,-472 202.03,-478 196.03,-484 190.03,-484"/>
<text xml:space="preserve" text-anchor="middle" x="139" y="-463" font-family="Helvetica,sans-Serif" font-size="10.00">IsHolderSmoothFunction</text>
</a>
</g>
</g>
<!-- n3&#45;&gt;n2 -->
<g id="edge1" class="edge">
<title>n3&#45;&gt;n2</title>
<path fill="none" stroke="#64748b" d="M134.8,-447.7C132.78,-439.39 130.32,-429.28 128.11,-420.14"/>
<polygon fill="#64748b" stroke="#64748b" points="130.54,-419.8 126.51,-413.58 125.78,-420.96 130.54,-419.8"/>
</g>
<!-- n4 -->
<g id="node5" class="node">
<title>n4</title>
<g id="a_node5"><a xlink:href="https://github.com/statopia/statlib/blob/main/Statlib/Nonparametric/Vocabulary/FunctionClasses.lean#L56" xlink:title="def · Statlib/Nonparametric/Vocabulary/FunctionClasses.lean:56" target="_blank">
<path fill="#d6e9ff" stroke="#3b82f6" d="M288.24,-484C288.24,-484 251.76,-484 251.76,-484 245.76,-484 239.76,-478 239.76,-472 239.76,-472 239.76,-460 239.76,-460 239.76,-454 245.76,-448 251.76,-448 251.76,-448 288.24,-448 288.24,-448 294.24,-448 300.24,-454 300.24,-460 300.24,-460 300.24,-472 300.24,-472 300.24,-478 294.24,-484 288.24,-484"/>
<text xml:space="preserve" text-anchor="middle" x="270" y="-463" font-family="Helvetica,sans-Serif" font-size="10.00">holderBall</text>
</a>
</g>
</g>
<!-- n4&#45;&gt;n1 -->
<g id="edge2" class="edge">
<title>n4&#45;&gt;n1</title>
<path fill="none" stroke="#64748b" d="M258.88,-447.7C253.32,-439.05 246.5,-428.45 240.45,-419.03"/>
<polygon fill="#64748b" stroke="#64748b" points="242.66,-417.94 236.81,-413.38 238.54,-420.59 242.66,-417.94"/>
</g>
<!-- n4&#45;&gt;n2 -->
<g id="edge3" class="edge">
<title>n4&#45;&gt;n2</title>
<path fill="none" stroke="#64748b" d="M239.33,-450.5C218.25,-440.52 189.91,-427.12 166.37,-415.99"/>
<polygon fill="#64748b" stroke="#64748b" points="167.65,-413.88 160.28,-413.11 165.56,-418.31 167.65,-413.88"/>
</g>
<!-- n5 -->
<g id="node6" class="node">
<title>n5</title>
<g id="a_node6"><a xlink:href="https://github.com/statopia/statlib/blob/main/Statlib/Nonparametric/Vocabulary/FunctionClasses.lean#L82" xlink:title="def · Statlib/Nonparametric/Vocabulary/FunctionClasses.lean:82" target="_blank">
<path fill="#d6e9ff" stroke="#3b82f6" d="M192.47,-556C192.47,-556 121.53,-556 121.53,-556 115.53,-556 109.53,-550 109.53,-544 109.53,-544 109.53,-532 109.53,-532 109.53,-526 115.53,-520 121.53,-520 121.53,-520 192.47,-520 192.47,-520 198.47,-520 204.47,-526 204.47,-532 204.47,-532 204.47,-544 204.47,-544 204.47,-550 198.47,-556 192.47,-556"/>
<text xml:space="preserve" text-anchor="middle" x="157" y="-535" font-family="Helvetica,sans-Serif" font-size="10.00">holderSmoothBall</text>
</a>
</g>
</g>
<!-- n5&#45;&gt;n1 -->
<g id="edge4" class="edge">
<title>n5&#45;&gt;n1</title>
<path fill="none" stroke="#64748b" d="M204.62,-526.72C244.4,-517.06 296.58,-501.49 309,-484 318.27,-470.96 316.73,-462.01 309,-448 300.92,-433.34 286.88,-422.18 272.58,-413.97"/>
<polygon fill="#64748b" stroke="#64748b" points="273.76,-411.82 266.43,-410.66 271.43,-416.14 273.76,-411.82"/>
</g>
<!-- n5&#45;&gt;n2 -->
<g id="edge6" class="edge">
<title>n5&#45;&gt;n2</title>
<path fill="none" stroke="#64748b" d="M182.21,-519.63C193.26,-510.46 205.05,-498.17 211,-484 217.19,-469.25 218.91,-461.91 211,-448 202.98,-433.89 189.55,-423.14 175.52,-415.13"/>
<polygon fill="#64748b" stroke="#64748b" points="176.82,-413.05 169.49,-411.91 174.51,-417.37 176.82,-413.05"/>
</g>
<!-- n5&#45;&gt;n3 -->
<g id="edge5" class="edge">
<title>n5&#45;&gt;n3</title>
<path fill="none" stroke="#64748b" d="M152.55,-519.7C150.41,-511.39 147.81,-501.28 145.46,-492.14"/>
<polygon fill="#64748b" stroke="#64748b" points="147.89,-491.74 143.78,-485.57 143.15,-492.96 147.89,-491.74"/>
</g>
<!-- n5&#45;&gt;n4 -->
<g id="edge7" class="edge">
<title>n5&#45;&gt;n4</title>
<path fill="none" stroke="#64748b" d="M185.22,-519.52C200.3,-510.18 219,-498.59 235,-488.68"/>
<polygon fill="#64748b" stroke="#64748b" points="236.19,-490.83 240.85,-485.06 233.61,-486.66 236.19,-490.83"/>
</g>
<!-- n6 -->
<g id="node7" class="node">
<title>n6</title>
<g id="a_node7"><a xlink:href="https://github.com/statopia/statlib/blob/main/Statlib/Nonparametric/Vocabulary/Sieve.lean#L27" xlink:title="noncomputable def · Statlib/Nonparametric/Vocabulary/Sieve.lean:27" target="_blank">
<path fill="#d6e9ff" stroke="#3b82f6" d="M787.51,-196C787.51,-196 730.49,-196 730.49,-196 724.49,-196 718.49,-190 718.49,-184 718.49,-184 718.49,-172 718.49,-172 718.49,-166 724.49,-160 730.49,-160 730.49,-160 787.51,-160 787.51,-160 793.51,-160 799.51,-166 799.51,-172 799.51,-172 799.51,-184 799.51,-184 799.51,-190 793.51,-196 787.51,-196"/>
<text xml:space="preserve" text-anchor="middle" x="759" y="-175" font-family="Helvetica,sans-Serif" font-size="10.00">seriesFunction</text>
</a>
</g>
</g>
<!-- n7 -->
<g id="node8" class="node">
<title>n7</title>
<g id="a_node8"><a xlink:href="https://github.com/statopia/statlib/blob/main/Statlib/Nonparametric/Vocabulary/Spline.lean#L29" xlink:title="def · Statlib/Nonparametric/Vocabulary/Spline.lean:29" target="_blank">
<path fill="#d6e9ff" stroke="#3b82f6" d="M1191.53,-412C1191.53,-412 1084.47,-412 1084.47,-412 1078.47,-412 1072.47,-406 1072.47,-400 1072.47,-400 1072.47,-388 1072.47,-388 1072.47,-382 1078.47,-376 1084.47,-376 1084.47,-376 1191.53,-376 1191.53,-376 1197.53,-376 1203.53,-382 1203.53,-388 1203.53,-388 1203.53,-400 1203.53,-400 1203.53,-406 1197.53,-412 1191.53,-412"/>
<text xml:space="preserve" text-anchor="middle" x="1138" y="-391" font-family="Helvetica,sans-Serif" font-size="10.00">tensorProductSplineSieve</text>
</a>
</g>
</g>
<!-- n7&#45;&gt;n0 -->
<g id="edge8" class="edge">
<title>n7&#45;&gt;n0</title>
<path fill="none" stroke="#64748b" d="M1138,-375.7C1138,-367.47 1138,-357.48 1138,-348.42"/>
<polygon fill="#64748b" stroke="#64748b" points="1140.45,-348.62 1138,-341.62 1135.55,-348.62 1140.45,-348.62"/>
</g>
<!-- n8 -->
<g id="node9" class="node">
<title>n8</title>
<g id="a_node9"><a xlink:href="https://github.com/statopia/statlib/blob/main/Statlib/Nonparametric/Approximation/Spline.lean#L17" xlink:title="def · Statlib/Nonparametric/Approximation/Spline.lean:17" target="_blank">
<path fill="#d6e9ff" stroke="#3b82f6" d="M1315.5,-628C1315.5,-628 1084.5,-628 1084.5,-628 1078.5,-628 1072.5,-622 1072.5,-616 1072.5,-616 1072.5,-604 1072.5,-604 1072.5,-598 1078.5,-592 1084.5,-592 1084.5,-592 1315.5,-592 1315.5,-592 1321.5,-592 1327.5,-598 1327.5,-604 1327.5,-604 1327.5,-616 1327.5,-616 1327.5,-622 1321.5,-628 1315.5,-628"/>
<text xml:space="preserve" text-anchor="middle" x="1200" y="-607" font-family="Helvetica,sans-Serif" font-size="10.00">HasTensorProductSplineHolderSmoothPointwiseRate</text>
</a>
</g>
</g>
<!-- n8&#45;&gt;n0 -->
<g id="edge9" class="edge">
<title>n8&#45;&gt;n0</title>
<path fill="none" stroke="#64748b" d="M1211.43,-591.7C1236.84,-550.87 1292.38,-446.64 1248,-376 1239.23,-362.04 1225.64,-351.67 1210.96,-344"/>
<polygon fill="#64748b" stroke="#64748b" points="1212.41,-341.98 1205.04,-341.11 1210.26,-346.38 1212.41,-341.98"/>
</g>
<!-- n8&#45;&gt;n5 -->
<g id="edge10" class="edge">
<title>n8&#45;&gt;n5</title>
<path fill="none" stroke="#64748b" d="M1072.37,-601.08C874.71,-588.78 503.52,-565.5 371,-556 317.33,-552.15 256.13,-547.24 212.97,-543.68"/>
<polygon fill="#64748b" stroke="#64748b" points="213.27,-541.25 206.09,-543.12 212.86,-546.13 213.27,-541.25"/>
</g>
<!-- n8&#45;&gt;n6 -->
<g id="edge11" class="edge">
<title>n8&#45;&gt;n6</title>
<path fill="none" stroke="#64748b" d="M1217.35,-591.63C1226.33,-581.85 1236.88,-569.01 1244,-556 1260.14,-526.54 1261.83,-517.19 1267,-484 1279.77,-402.08 1278.79,-360.38 1218,-304 1101.43,-195.9 900.66,-179.69 808.21,-178.3"/>
<polygon fill="#64748b" stroke="#64748b" points="808.41,-175.85 801.39,-178.23 808.36,-180.75 808.41,-175.85"/>
</g>
<!-- n8&#45;&gt;n7 -->
<g id="edge12" class="edge">
<title>n8&#45;&gt;n7</title>
<path fill="none" stroke="#64748b" d="M1206.04,-591.91C1215.8,-561.24 1231.67,-495.61 1208,-448 1201.82,-435.57 1191.17,-425.27 1180.02,-417.17"/>
<polygon fill="#64748b" stroke="#64748b" points="1181.46,-415.18 1174.3,-413.26 1178.7,-419.23 1181.46,-415.18"/>
</g>
<!-- n9 -->
<g id="node10" class="node">
<title>n9</title>
<g id="a_node10"><a xlink:href="https://github.com/statopia/statlib/blob/main/Statlib/Nonparametric/Vocabulary/Risk.lean#L60" xlink:title="noncomputable def · Statlib/Nonparametric/Vocabulary/Risk.lean:60" target="_blank">
<path fill="#d6e9ff" stroke="#3b82f6" d="M473.25,-196C473.25,-196 376.75,-196 376.75,-196 370.75,-196 364.75,-190 364.75,-184 364.75,-184 364.75,-172 364.75,-172 364.75,-166 370.75,-160 376.75,-160 376.75,-160 473.25,-160 473.25,-160 479.25,-160 485.25,-166 485.25,-172 485.25,-172 485.25,-184 485.25,-184 485.25,-190 479.25,-196 473.25,-196"/>
<text xml:space="preserve" text-anchor="middle" x="425" y="-175" font-family="Helvetica,sans-Serif" font-size="10.00">integratedSquaredError</text>
</a>
</g>
</g>
<!-- n10 -->
<g id="node11" class="node">
<title>n10</title>
<g id="a_node11"><a xlink:href="https://github.com/statopia/statlib/blob/main/Statlib/Nonparametric/Vocabulary/Sieve.lean#L42" xlink:title="noncomputable def · Statlib/Nonparametric/Vocabulary/Sieve.lean:42" target="_blank">
<path fill="#d6e9ff" stroke="#3b82f6" d="M177.74,-268C177.74,-268 76.26,-268 76.26,-268 70.26,-268 64.26,-262 64.26,-256 64.26,-256 64.26,-244 64.26,-244 64.26,-238 70.26,-232 76.26,-232 76.26,-232 177.74,-232 177.74,-232 183.74,-232 189.74,-238 189.74,-244 189.74,-244 189.74,-256 189.74,-256 189.74,-262 183.74,-268 177.74,-268"/>
<text xml:space="preserve" text-anchor="middle" x="127" y="-247" font-family="Helvetica,sans-Serif" font-size="10.00">sieveApproximationError</text>
</a>
</g>
</g>
<!-- n10&#45;&gt;n6 -->
<g id="edge14" class="edge">
<title>n10&#45;&gt;n6</title>
<path fill="none" stroke="#64748b" d="M190.2,-242C316.31,-228.03 596.8,-196.97 710.11,-184.42"/>
<polygon fill="#64748b" stroke="#64748b" points="710.11,-186.88 716.79,-183.67 709.57,-182.01 710.11,-186.88"/>
</g>
<!-- n10&#45;&gt;n9 -->
<g id="edge13" class="edge">
<title>n10&#45;&gt;n9</title>
<path fill="none" stroke="#64748b" d="M190.2,-234.15C238.91,-222.71 306.19,-206.91 356.24,-195.15"/>
<polygon fill="#64748b" stroke="#64748b" points="356.71,-197.56 362.96,-193.57 355.59,-192.79 356.71,-197.56"/>
</g>
<!-- n11 -->
<g id="node12" class="node">
<title>n11</title>
<g id="a_node12"><a xlink:href="https://github.com/statopia/statlib/blob/main/Statlib/Nonparametric/Approximation/Sieve.lean#L98" xlink:title="theorem · Statlib/Nonparametric/Approximation/Sieve.lean:98" target="_blank">
<path fill="#ffe6a3" stroke="#d4a017" d="M1035.73,-268C1035.73,-268 820.27,-268 820.27,-268 814.27,-268 808.27,-262 808.27,-256 808.27,-256 808.27,-244 808.27,-244 808.27,-238 814.27,-232 820.27,-232 820.27,-232 1035.73,-232 1035.73,-232 1041.73,-232 1047.73,-238 1047.73,-244 1047.73,-244 1047.73,-256 1047.73,-256 1047.73,-262 1041.73,-268 1035.73,-268"/>
<text xml:space="preserve" text-anchor="middle" x="928" y="-247" font-family="Helvetica,sans-Serif" font-size="10.00">seriesFunction_measurable_of_basis_measurable</text>
</a>
</g>
</g>
<!-- n11&#45;&gt;n6 -->
<g id="edge15" class="edge">
<title>n11&#45;&gt;n6</title>
<path fill="none" stroke="#64748b" d="M885.79,-231.52C862.06,-221.69 832.33,-209.37 807.63,-199.14"/>
<polygon fill="#64748b" stroke="#64748b" points="808.6,-196.89 801.2,-196.48 806.73,-201.42 808.6,-196.89"/>
</g>
<!-- n12 -->
<g id="node13" class="node">
<title>n12</title>
<g id="a_node13"><a xlink:href="https://github.com/statopia/statlib/blob/main/Statlib/Nonparametric/Vocabulary/Spline.lean#L40" xlink:title="theorem · Statlib/Nonparametric/Vocabulary/Spline.lean:40" target="_blank">
<path fill="#ffe6a3" stroke="#d4a017" d="M1032.5,-484C1032.5,-484 871.5,-484 871.5,-484 865.5,-484 859.5,-478 859.5,-472 859.5,-472 859.5,-460 859.5,-460 859.5,-454 865.5,-448 871.5,-448 871.5,-448 1032.5,-448 1032.5,-448 1038.5,-448 1044.5,-454 1044.5,-460 1044.5,-460 1044.5,-472 1044.5,-472 1044.5,-478 1038.5,-484 1032.5,-484"/>
<text xml:space="preserve" text-anchor="middle" x="952" y="-463" font-family="Helvetica,sans-Serif" font-size="10.00">tensorProductSplineSieve_continuous</text>
</a>
</g>
</g>
<!-- n12&#45;&gt;n0 -->
<g id="edge16" class="edge">
<title>n12&#45;&gt;n0</title>
<path fill="none" stroke="#64748b" d="M968.36,-447.75C986.73,-428.89 1017.92,-398.39 1048,-376 1063.51,-364.45 1081.73,-353.33 1097.69,-344.27"/>
<polygon fill="#64748b" stroke="#64748b" points="1098.62,-346.56 1103.53,-341.01 1096.23,-342.29 1098.62,-346.56"/>
</g>
<!-- n12&#45;&gt;n7 -->
<g id="edge17" class="edge">
<title>n12&#45;&gt;n7</title>
<path fill="none" stroke="#64748b" d="M998.46,-447.52C1024.41,-437.75 1056.88,-425.53 1083.96,-415.34"/>
<polygon fill="#64748b" stroke="#64748b" points="1084.71,-417.67 1090.4,-412.91 1082.98,-413.09 1084.71,-417.67"/>
</g>
<!-- n13 -->
<g id="node14" class="node">
<title>n13</title>
<g id="a_node14"><a xlink:href="https://github.com/statopia/statlib/blob/main/Statlib/Nonparametric/Vocabulary/Spline.lean#L45" xlink:title="theorem · Statlib/Nonparametric/Vocabulary/Spline.lean:45" target="_blank">
<path fill="#ffe6a3" stroke="#d4a017" d="M1024.44,-556C1024.44,-556 859.56,-556 859.56,-556 853.56,-556 847.56,-550 847.56,-544 847.56,-544 847.56,-532 847.56,-532 847.56,-526 853.56,-520 859.56,-520 859.56,-520 1024.44,-520 1024.44,-520 1030.44,-520 1036.44,-526 1036.44,-532 1036.44,-532 1036.44,-544 1036.44,-544 1036.44,-550 1030.44,-556 1024.44,-556"/>
<text xml:space="preserve" text-anchor="middle" x="942" y="-535" font-family="Helvetica,sans-Serif" font-size="10.00">tensorProductSplineSieve_measurable</text>
</a>
</g>
</g>
<!-- n13&#45;&gt;n0 -->
<g id="edge18" class="edge">
<title>n13&#45;&gt;n0</title>
<path fill="none" stroke="#64748b" d="M891.96,-519.6C875.99,-511.41 860.11,-499.85 851,-484 843.03,-470.13 842.44,-461.52 851,-448 895.54,-377.61 989.63,-346.7 1057.96,-333.23"/>
<polygon fill="#64748b" stroke="#64748b" points="1058.26,-335.67 1064.68,-331.95 1057.34,-330.85 1058.26,-335.67"/>
</g>
<!-- n13&#45;&gt;n7 -->
<g id="edge19" class="edge">
<title>n13&#45;&gt;n7</title>
<path fill="none" stroke="#64748b" d="M992.23,-519.56C1012.51,-510.92 1035.27,-499.08 1053,-484 1067.84,-471.38 1065.05,-462.55 1078,-448 1087.49,-437.34 1099.02,-426.7 1109.42,-417.79"/>
<polygon fill="#64748b" stroke="#64748b" points="1110.8,-419.83 1114.57,-413.45 1107.64,-416.08 1110.8,-419.83"/>
</g>
<!-- n13&#45;&gt;n12 -->
<g id="edge20" class="edge">
<title>n13&#45;&gt;n12</title>
<path fill="none" stroke="#64748b" d="M944.47,-519.7C945.65,-511.47 947.07,-501.48 948.37,-492.42"/>
<polygon fill="#64748b" stroke="#64748b" points="950.78,-492.88 949.34,-485.6 945.93,-492.19 950.78,-492.88"/>
</g>
<!-- n14 -->
<g id="node15" class="node">
<title>n14</title>
<g id="a_node15"><a xlink:href="https://github.com/statopia/statlib/blob/main/Statlib/Nonparametric/Approximation/Spline.lean#L50" xlink:title="theorem · Statlib/Nonparametric/Approximation/Spline.lean:50" target="_blank">
<path fill="#ffe6a3" stroke="#d4a017" d="M901.74,-628C901.74,-628 666.26,-628 666.26,-628 660.26,-628 654.26,-622 654.26,-616 654.26,-616 654.26,-604 654.26,-604 654.26,-598 660.26,-592 666.26,-592 666.26,-592 901.74,-592 901.74,-592 907.74,-592 913.74,-598 913.74,-604 913.74,-604 913.74,-616 913.74,-616 913.74,-622 907.74,-628 901.74,-628"/>
<text xml:space="preserve" text-anchor="middle" x="784" y="-607" font-family="Helvetica,sans-Serif" font-size="10.00">tensorProductSplineSieve_seriesFunction_measurable</text>
</a>
</g>
</g>
<!-- n14&#45;&gt;n0 -->
<g id="edge21" class="edge">
<title>n14&#45;&gt;n0</title>
<path fill="none" stroke="#64748b" d="M791.48,-591.95C795.91,-581.63 801.52,-568.15 806,-556 835.77,-475.32 808.73,-428.3 877,-376 904.94,-354.6 991.95,-339.91 1057.89,-331.51"/>
<polygon fill="#64748b" stroke="#64748b" points="1058.09,-333.96 1064.73,-330.66 1057.48,-329.1 1058.09,-333.96"/>
</g>
<!-- n14&#45;&gt;n6 -->
<g id="edge22" class="edge">
<title>n14&#45;&gt;n6</title>
<path fill="none" stroke="#64748b" d="M782.93,-591.81C780.29,-543.95 775.35,-410.47 800,-376 876.16,-269.5 1141.09,-332.36 1057,-232 1025.78,-194.74 884.05,-183.65 807.84,-180.37"/>
<polygon fill="#64748b" stroke="#64748b" points="808.38,-177.94 801.29,-180.1 808.18,-182.84 808.38,-177.94"/>
</g>
<!-- n14&#45;&gt;n7 -->
<g id="edge23" class="edge">
<title>n14&#45;&gt;n7</title>
<path fill="none" stroke="#64748b" d="M914.02,-596.61C976.83,-588.31 1043.77,-575.3 1068,-556 1110.82,-521.9 1128.01,-456.4 1134.46,-420.35"/>
<polygon fill="#64748b" stroke="#64748b" points="1136.82,-421.08 1135.56,-413.77 1131.99,-420.27 1136.82,-421.08"/>
</g>
<!-- n14&#45;&gt;n11 -->
<g id="edge24" class="edge">
<title>n14&#45;&gt;n11</title>
<path fill="none" stroke="#64748b" d="M778.78,-591.66C767.65,-551.17 745.5,-448.37 783,-376 806.7,-330.27 854.84,-294.1 889.15,-272.67"/>
<polygon fill="#64748b" stroke="#64748b" points="890.27,-274.86 894.96,-269.11 887.71,-270.68 890.27,-274.86"/>
</g>
<!-- n14&#45;&gt;n13 -->
<g id="edge25" class="edge">
<title>n14&#45;&gt;n13</title>
<path fill="none" stroke="#64748b" d="M823.46,-591.52C845.22,-581.88 872.38,-569.84 895.21,-559.73"/>
<polygon fill="#64748b" stroke="#64748b" points="895.98,-562.07 901.38,-556.99 893.99,-557.59 895.98,-562.07"/>
</g>
<!-- n15 -->
<g id="node16" class="node">
<title>n15</title>
<g id="a_node16"><a xlink:href="https://github.com/statopia/statlib/blob/main/Statlib/Nonparametric/Approximation/Metric.lean#L10" xlink:title="theorem · Statlib/Nonparametric/Approximation/Metric.lean:10" target="_blank">
<path fill="#ffe6a3" stroke="#d4a017" d="M412.19,-340C412.19,-340 207.81,-340 207.81,-340 201.81,-340 195.81,-334 195.81,-328 195.81,-328 195.81,-316 195.81,-316 195.81,-310 201.81,-304 207.81,-304 207.81,-304 412.19,-304 412.19,-304 418.19,-304 424.19,-310 424.19,-316 424.19,-316 424.19,-328 424.19,-328 424.19,-334 418.19,-340 412.19,-340"/>
<text xml:space="preserve" text-anchor="middle" x="310" y="-319" font-family="Helvetica,sans-Serif" font-size="10.00">integratedSquaredError_le_of_pointwise_bound</text>
</a>
</g>
</g>
<!-- n15&#45;&gt;n9 -->
<g id="edge26" class="edge">
<title>n15&#45;&gt;n9</title>
<path fill="none" stroke="#64748b" d="M324.1,-303.59C344.65,-278.22 382.86,-231.03 405.91,-202.57"/>
<polygon fill="#64748b" stroke="#64748b" points="407.69,-204.27 410.19,-197.29 403.88,-201.18 407.69,-204.27"/>
</g>
<!-- n16 -->
<g id="node17" class="node">
<title>n16</title>
<g id="a_node17"><a xlink:href="https://github.com/statopia/statlib/blob/main/Statlib/Nonparametric/Approximation/Sieve.lean#L107" xlink:title="theorem · Statlib/Nonparametric/Approximation/Sieve.lean:107" target="_blank">
<path fill="#ffe6a3" stroke="#d4a017" d="M658.16,-340C658.16,-340 473.84,-340 473.84,-340 467.84,-340 461.84,-334 461.84,-328 461.84,-328 461.84,-316 461.84,-316 461.84,-310 467.84,-304 473.84,-304 473.84,-304 658.16,-304 658.16,-304 664.16,-304 670.16,-310 670.16,-316 670.16,-316 670.16,-328 670.16,-328 670.16,-334 664.16,-340 658.16,-340"/>
<text xml:space="preserve" text-anchor="middle" x="566" y="-319" font-family="Helvetica,sans-Serif" font-size="10.00">sieveApproximationError_le_of_coefficients</text>
</a>
</g>
</g>
<!-- n16&#45;&gt;n6 -->
<g id="edge28" class="edge">
<title>n16&#45;&gt;n6</title>
<path fill="none" stroke="#64748b" d="M617.42,-303.6C638,-295 661.04,-283.17 679,-268 693.88,-255.43 691.37,-246.83 704,-232 712.89,-221.57 723.56,-210.92 733.14,-201.93"/>
<polygon fill="#64748b" stroke="#64748b" points="734.65,-203.86 738.13,-197.31 731.32,-200.27 734.65,-203.86"/>
</g>
<!-- n16&#45;&gt;n9 -->
<g id="edge27" class="edge">
<title>n16&#45;&gt;n9</title>
<path fill="none" stroke="#64748b" d="M508.07,-303.62C489,-295.45 469.09,-283.9 455,-268 439.34,-250.33 431.79,-224.17 428.2,-204.78"/>
<polygon fill="#64748b" stroke="#64748b" points="430.62,-204.4 427.06,-197.9 425.78,-205.2 430.62,-204.4"/>
</g>
<!-- n16&#45;&gt;n10 -->
<g id="edge29" class="edge">
<title>n16&#45;&gt;n10</title>
<path fill="none" stroke="#64748b" d="M461.41,-304.32C380.09,-291.36 269.47,-273.72 198.14,-262.34"/>
<polygon fill="#64748b" stroke="#64748b" points="198.87,-259.98 191.57,-261.3 198.1,-264.82 198.87,-259.98"/>
</g>
<!-- n17 -->
<g id="node18" class="node">
<title>n17</title>
<g id="a_node18"><a xlink:href="https://github.com/statopia/statlib/blob/main/Statlib/Nonparametric/Approximation/Sieve.lean#L248" xlink:title="theorem · Statlib/Nonparametric/Approximation/Sieve.lean:248" target="_blank">
<path fill="#ffe6a3" stroke="#d4a017" d="M636.79,-412C636.79,-412 395.21,-412 395.21,-412 389.21,-412 383.21,-406 383.21,-400 383.21,-400 383.21,-388 383.21,-388 383.21,-382 389.21,-376 395.21,-376 395.21,-376 636.79,-376 636.79,-376 642.79,-376 648.79,-382 648.79,-388 648.79,-388 648.79,-400 648.79,-400 648.79,-406 642.79,-412 636.79,-412"/>
<text xml:space="preserve" text-anchor="middle" x="516" y="-391" font-family="Helvetica,sans-Serif" font-size="10.00">sieveApproximationError_le_of_pointwise_series_bound</text>
</a>
</g>
</g>
<!-- n17&#45;&gt;n6 -->
<g id="edge30" class="edge">
<title>n17&#45;&gt;n6</title>
<path fill="none" stroke="#64748b" d="M615.11,-375.62C638.18,-367.79 661.18,-356.45 679,-340 717.22,-304.74 699.56,-277.9 724,-232 729.23,-222.17 735.79,-211.85 741.8,-202.95"/>
<polygon fill="#64748b" stroke="#64748b" points="743.67,-204.56 745.62,-197.4 739.63,-201.78 743.67,-204.56"/>
</g>
<!-- n17&#45;&gt;n9 -->
<g id="edge31" class="edge">
<title>n17&#45;&gt;n9</title>
<path fill="none" stroke="#64748b" d="M488.92,-375.67C476.41,-366.43 462.3,-354.07 453,-340 425.57,-298.5 422.58,-238.32 423.42,-204.52"/>
<polygon fill="#64748b" stroke="#64748b" points="425.86,-204.72 423.67,-197.64 420.97,-204.54 425.86,-204.72"/>
</g>
<!-- n17&#45;&gt;n10 -->
<g id="edge32" class="edge">
<title>n17&#45;&gt;n10</title>
<path fill="none" stroke="#64748b" d="M382.82,-376.63C299.14,-365.47 203.91,-350.81 187,-340 185.36,-338.95 160.25,-301.27 143.03,-275.28"/>
<polygon fill="#64748b" stroke="#64748b" points="145.16,-274.05 139.25,-269.57 141.07,-276.76 145.16,-274.05"/>
</g>
<!-- n17&#45;&gt;n15 -->
<g id="edge33" class="edge">
<title>n17&#45;&gt;n15</title>
<path fill="none" stroke="#64748b" d="M464.55,-375.52C435.56,-365.67 399.23,-353.32 369.08,-343.07"/>
<polygon fill="#64748b" stroke="#64748b" points="370,-340.8 362.58,-340.87 368.42,-345.44 370,-340.8"/>
</g>
<!-- n17&#45;&gt;n16 -->
<g id="edge34" class="edge">
<title>n17&#45;&gt;n16</title>
<path fill="none" stroke="#64748b" d="M528.36,-375.7C534.54,-367.05 542.11,-356.45 548.84,-347.03"/>
<polygon fill="#64748b" stroke="#64748b" points="550.83,-348.46 552.9,-341.34 546.84,-345.61 550.83,-348.46"/>
</g>
<!-- n18 -->
<g id="node19" class="node">
<title>n18</title>
<g id="a_node19"><a xlink:href="https://github.com/statopia/statlib/blob/main/Statlib/Nonparametric/Vocabulary/Estimator.lean#L28" xlink:title="noncomputable def · Statlib/Nonparametric/Vocabulary/Estimator.lean:28" target="_blank">
<path fill="#d6e9ff" stroke="#3b82f6" d="M582,-52C582,-52 552,-52 552,-52 546,-52 540,-46 540,-40 540,-40 540,-28 540,-28 540,-22 546,-16 552,-16 552,-16 582,-16 582,-16 588,-16 594,-22 594,-28 594,-28 594,-40 594,-40 594,-46 588,-52 582,-52"/>
<text xml:space="preserve" text-anchor="middle" x="567" y="-31" font-family="Helvetica,sans-Serif" font-size="10.00">bias</text>
</a>
</g>
</g>
<!-- n19 -->
<g id="node20" class="node">
<title>n19</title>
<g id="a_node20"><a xlink:href="https://github.com/statopia/statlib/blob/main/Statlib/Nonparametric/Vocabulary/NeuralNetwork.lean#L23" xlink:title="structure · Statlib/Nonparametric/Vocabulary/NeuralNetwork.lean:23" target="_blank">
<path fill="#e8dcff" stroke="#8b5cf6" d="M616.96,-124C616.96,-124 571.04,-124 571.04,-124 565.04,-124 559.04,-118 559.04,-112 559.04,-112 559.04,-100 559.04,-100 559.04,-94 565.04,-88 571.04,-88 571.04,-88 616.96,-88 616.96,-88 622.96,-88 628.96,-94 628.96,-100 628.96,-100 628.96,-112 628.96,-112 628.96,-118 622.96,-124 616.96,-124"/>
<text xml:space="preserve" text-anchor="middle" x="594" y="-103" font-family="Helvetica,sans-Serif" font-size="10.00">DenseLayer</text>
</a>
</g>
</g>
<!-- n19&#45;&gt;n18 -->
<g id="edge35" class="edge">
<title>n19&#45;&gt;n18</title>
<path fill="none" stroke="#64748b" d="M587.33,-87.7C584.09,-79.3 580.14,-69.07 576.59,-59.86"/>
<polygon fill="#64748b" stroke="#64748b" points="578.95,-59.17 574.14,-53.52 574.38,-60.93 578.95,-59.17"/>
</g>
<!-- n20 -->
<g id="node21" class="node">
<title>n20</title>
<g id="a_node21"><a xlink:href="https://github.com/statopia/statlib/blob/main/Statlib/Nonparametric/Vocabulary/NeuralNetwork.lean#L30" xlink:title="noncomputable def · Statlib/Nonparametric/Vocabulary/NeuralNetwork.lean:30" target="_blank">
<path fill="#d6e9ff" stroke="#3b82f6" d="M582,-196C582,-196 552,-196 552,-196 546,-196 540,-190 540,-184 540,-184 540,-172 540,-172 540,-166 546,-160 552,-160 552,-160 582,-160 582,-160 588,-160 594,-166 594,-172 594,-172 594,-184 594,-184 594,-190 588,-196 582,-196"/>
<text xml:space="preserve" text-anchor="middle" x="567" y="-175" font-family="Helvetica,sans-Serif" font-size="10.00">apply</text>
</a>
</g>
</g>
<!-- n20&#45;&gt;n18 -->
<g id="edge37" class="edge">
<title>n20&#45;&gt;n18</title>
<path fill="none" stroke="#64748b" d="M559.93,-159.67C556.16,-149.47 551.91,-136.22 550,-124 547.53,-108.19 547.53,-103.81 550,-88 551.45,-78.74 554.24,-68.89 557.15,-60.22"/>
<polygon fill="#64748b" stroke="#64748b" points="559.41,-61.18 559.43,-53.76 554.79,-59.55 559.41,-61.18"/>
</g>
<!-- n20&#45;&gt;n19 -->
<g id="edge36" class="edge">
<title>n20&#45;&gt;n19</title>
<path fill="none" stroke="#64748b" d="M573.67,-159.7C576.91,-151.3 580.86,-141.07 584.41,-131.86"/>
<polygon fill="#64748b" stroke="#64748b" points="586.62,-132.93 586.86,-125.52 582.05,-131.17 586.62,-132.93"/>
</g>
<!-- n21 -->
<g id="node22" class="node">
<title>n21</title>
<g id="a_node22"><a xlink:href="https://github.com/statopia/statlib/blob/main/Statlib/Nonparametric/Approximation/Sieve.lean#L121" xlink:title="theorem · Statlib/Nonparametric/Approximation/Sieve.lean:121" target="_blank">
<path fill="#ffe6a3" stroke="#d4a017" d="M658.05,-268C658.05,-268 475.95,-268 475.95,-268 469.95,-268 463.95,-262 463.95,-256 463.95,-256 463.95,-244 463.95,-244 463.95,-238 469.95,-232 475.95,-232 475.95,-232 658.05,-232 658.05,-232 664.05,-232 670.05,-238 670.05,-244 670.05,-244 670.05,-256 670.05,-256 670.05,-262 664.05,-268 658.05,-268"/>
<text xml:space="preserve" text-anchor="middle" x="567" y="-247" font-family="Helvetica,sans-Serif" font-size="10.00">sieveApproximationError_range_bddBelow</text>
</a>
</g>
</g>
<!-- n21&#45;&gt;n6 -->
<g id="edge39" class="edge">
<title>n21&#45;&gt;n6</title>
<path fill="none" stroke="#64748b" d="M614.95,-231.52C644.12,-220.89 681.24,-207.35 710.5,-196.68"/>
<polygon fill="#64748b" stroke="#64748b" points="710.99,-199.11 716.73,-194.41 709.31,-194.51 710.99,-199.11"/>
</g>
<!-- n21&#45;&gt;n9 -->
<g id="edge38" class="edge">
<title>n21&#45;&gt;n9</title>
<path fill="none" stroke="#64748b" d="M531.53,-231.52C512.16,-221.97 488.03,-210.07 467.63,-200.01"/>
<polygon fill="#64748b" stroke="#64748b" points="468.73,-197.83 461.37,-196.93 466.57,-202.22 468.73,-197.83"/>
</g>
<!-- n21&#45;&gt;n20 -->
<g id="edge40" class="edge">
<title>n21&#45;&gt;n20</title>
<path fill="none" stroke="#64748b" d="M567,-231.7C567,-223.47 567,-213.48 567,-204.42"/>
<polygon fill="#64748b" stroke="#64748b" points="569.45,-204.62 567,-197.62 564.55,-204.62 569.45,-204.62"/>
</g>
<!-- n22 -->
<g id="node23" class="node">
<title>n22</title>
<g id="a_node23"><a xlink:href="https://github.com/statopia/statlib/blob/main/Statlib/Nonparametric/Approximation/Sieve.lean#L269" xlink:title="theorem · Statlib/Nonparametric/Approximation/Sieve.lean:269" target="_blank">
<path fill="#ffe6a3" stroke="#d4a017" d="M669.67,-484C669.67,-484 430.33,-484 430.33,-484 424.33,-484 418.33,-478 418.33,-472 418.33,-472 418.33,-460 418.33,-460 418.33,-454 424.33,-448 430.33,-448 430.33,-448 669.67,-448 669.67,-448 675.67,-448 681.67,-454 681.67,-460 681.67,-460 681.67,-472 681.67,-472 681.67,-478 675.67,-484 669.67,-484"/>
<text xml:space="preserve" text-anchor="middle" x="550" y="-463" font-family="Helvetica,sans-Serif" font-size="10.00">sieveApproximationError_le_of_exists_pointwise_series</text>
</a>
</g>
</g>
<!-- n22&#45;&gt;n6 -->
<g id="edge41" class="edge">
<title>n22&#45;&gt;n6</title>
<path fill="none" stroke="#64748b" d="M615.52,-447.62C635.77,-439.56 656.74,-428.08 672,-412 686.98,-396.21 732.31,-260.81 750.91,-203.97"/>
<polygon fill="#64748b" stroke="#64748b" points="753.14,-205.03 752.98,-197.61 748.48,-203.51 753.14,-205.03"/>
</g>
<!-- n22&#45;&gt;n10 -->
<g id="edge42" class="edge">
<title>n22&#45;&gt;n10</title>
<path fill="none" stroke="#64748b" d="M450.53,-447.53C423.99,-439.66 396.46,-428.31 374,-412 358.24,-400.55 365.33,-386.63 349,-376 278.07,-329.83 227.11,-394.08 162,-340 151.88,-331.59 140.87,-299.47 133.95,-276.22"/>
<polygon fill="#64748b" stroke="#64748b" points="136.33,-275.61 132.02,-269.58 131.62,-276.98 136.33,-275.61"/>
</g>
<!-- n22&#45;&gt;n17 -->
<g id="edge43" class="edge">
<title>n22&#45;&gt;n17</title>
<path fill="none" stroke="#64748b" d="M541.6,-447.7C537.48,-439.22 532.45,-428.86 527.94,-419.58"/>
<polygon fill="#64748b" stroke="#64748b" points="530.23,-418.69 524.97,-413.47 525.82,-420.83 530.23,-418.69"/>
</g>
<!-- n22&#45;&gt;n21 -->
<g id="edge44" class="edge">
<title>n22&#45;&gt;n21</title>
<path fill="none" stroke="#64748b" d="M607.02,-447.5C625.53,-439.34 644.69,-427.83 658,-412 679.45,-386.49 674.29,-373 679,-340 681.26,-324.16 687.56,-317.52 679,-304 670.15,-290.02 656.51,-279.66 641.75,-272"/>
<polygon fill="#64748b" stroke="#64748b" points="643.16,-269.96 635.8,-269.11 641.03,-274.37 643.16,-269.96"/>
</g>
<!-- n23 -->
<g id="node24" class="node">
<title>n23</title>
<g id="a_node24"><a xlink:href="https://github.com/statopia/statlib/blob/main/Statlib/Nonparametric/Approximation/Sieve.lean#L285" xlink:title="theorem · Statlib/Nonparametric/Approximation/Sieve.lean:285" target="_blank">
<path fill="#ffe6a3" stroke="#d4a017" d="M690.14,-556C690.14,-556 391.86,-556 391.86,-556 385.86,-556 379.86,-550 379.86,-544 379.86,-544 379.86,-532 379.86,-532 379.86,-526 385.86,-520 391.86,-520 391.86,-520 690.14,-520 690.14,-520 696.14,-520 702.14,-526 702.14,-532 702.14,-532 702.14,-544 702.14,-544 702.14,-550 696.14,-556 690.14,-556"/>
<text xml:space="preserve" text-anchor="middle" x="541" y="-535" font-family="Helvetica,sans-Serif" font-size="10.00">sieveApproximationError_uniform_bound_of_exists_pointwise_series</text>
</a>
</g>
</g>
<!-- n23&#45;&gt;n6 -->
<g id="edge45" class="edge">
<title>n23&#45;&gt;n6</title>
<path fill="none" stroke="#64748b" d="M635.77,-519.55C656.41,-511.73 676.4,-500.4 691,-484 709.8,-462.87 743.11,-273.7 754.8,-204.34"/>
<polygon fill="#64748b" stroke="#64748b" points="757.19,-204.93 755.93,-197.62 752.35,-204.12 757.19,-204.93"/>
</g>
<!-- n23&#45;&gt;n10 -->
<g id="edge46" class="edge">
<title>n23&#45;&gt;n10</title>
<path fill="none" stroke="#64748b" d="M476.55,-519.58C453.66,-511.3 428.7,-499.7 409,-484 393.77,-471.86 396.39,-463.03 384,-448 369.81,-430.78 362.31,-429.91 349,-412 338.08,-397.31 343.82,-386.74 329,-376 260.46,-326.35 201.15,-400.54 142,-340 125.88,-323.5 123.34,-296.55 124.09,-276.62"/>
<polygon fill="#64748b" stroke="#64748b" points="126.53,-276.94 124.51,-269.8 121.64,-276.63 126.53,-276.94"/>
</g>
<!-- n23&#45;&gt;n22 -->
<g id="edge47" class="edge">
<title>n23&#45;&gt;n22</title>
<path fill="none" stroke="#64748b" d="M543.22,-519.7C544.28,-511.47 545.57,-501.48 546.73,-492.42"/>
<polygon fill="#64748b" stroke="#64748b" points="549.15,-492.86 547.61,-485.61 544.29,-492.24 549.15,-492.86"/>
</g>
<!-- n24 -->
<g id="node25" class="node">
<title>n24</title>
<g id="a_node25"><a xlink:href="https://github.com/statopia/statlib/blob/main/Statlib/Nonparametric/Approximation/Spline.lean#L61" xlink:title="theorem · Statlib/Nonparametric/Approximation/Spline.lean:61" target="_blank">
<path fill="#ffe6a3" stroke="#d4a017" d="M604.06,-628C604.06,-628 227.94,-628 227.94,-628 221.94,-628 215.94,-622 215.94,-616 215.94,-616 215.94,-604 215.94,-604 215.94,-598 221.94,-592 227.94,-592 227.94,-592 604.06,-592 604.06,-592 610.06,-592 616.06,-598 616.06,-604 616.06,-604 616.06,-616 616.06,-616 616.06,-622 610.06,-628 604.06,-628"/>
<text xml:space="preserve" text-anchor="middle" x="416" y="-607" font-family="Helvetica,sans-Serif" font-size="10.00">tensorProductSplineSieve_holderSmoothBall_error_bound_of_exists_pointwise_series</text>
</a>
</g>
</g>
<!-- n24&#45;&gt;n0 -->
<g id="edge48" class="edge">
<title>n24&#45;&gt;n0</title>
<path fill="none" stroke="#64748b" d="M590.76,-591.54C647.85,-583.22 702.6,-571.59 726,-556 804.8,-503.49 761.37,-428.77 840,-376 874.84,-352.62 982.16,-337.79 1057.98,-329.93"/>
<polygon fill="#64748b" stroke="#64748b" points="1057.92,-332.4 1064.64,-329.26 1057.42,-327.53 1057.92,-332.4"/>
</g>
<!-- n24&#45;&gt;n5 -->
<g id="edge49" class="edge">
<title>n24&#45;&gt;n5</title>
<path fill="none" stroke="#64748b" d="M351.31,-591.52C308.7,-580 253.47,-565.07 212.79,-554.08"/>
<polygon fill="#64748b" stroke="#64748b" points="213.46,-551.72 206.06,-552.26 212.18,-556.45 213.46,-551.72"/>
</g>
<!-- n24&#45;&gt;n6 -->
<g id="edge50" class="edge">
<title>n24&#45;&gt;n6</title>
<path fill="none" stroke="#64748b" d="M611.4,-591.51C656.18,-583.63 695.29,-572.29 711,-556 733.44,-532.73 748.45,-300.13 752,-268 754.35,-246.69 756.21,-222.41 757.41,-204.61"/>
<polygon fill="#64748b" stroke="#64748b" points="759.84,-205.08 757.86,-197.94 754.95,-204.76 759.84,-205.08"/>
</g>
<!-- n24&#45;&gt;n7 -->
<g id="edge51" class="edge">
<title>n24&#45;&gt;n7</title>
<path fill="none" stroke="#64748b" d="M616.5,-593.2C798.87,-578.66 1040.4,-558.92 1045,-556 1048.28,-553.92 1099.14,-464.05 1124.23,-419.51"/>
<polygon fill="#64748b" stroke="#64748b" points="1126.27,-420.88 1127.57,-413.58 1122,-418.48 1126.27,-420.88"/>
</g>
<!-- n24&#45;&gt;n10 -->
<g id="edge52" class="edge">
<title>n24&#45;&gt;n10</title>
<path fill="none" stroke="#64748b" d="M396.46,-591.86C387,-582.33 376.52,-569.65 371,-556 352.96,-511.41 383.53,-491.96 364,-448 354.94,-427.61 342.31,-429.91 329,-412 318.08,-397.31 323.82,-386.74 309,-376 240.46,-326.35 175.89,-405.26 122,-340 107.51,-322.46 111.31,-295.72 117.17,-276.12"/>
<polygon fill="#64748b" stroke="#64748b" points="119.44,-277.07 119.29,-269.65 114.79,-275.54 119.44,-277.07"/>
</g>
<!-- n24&#45;&gt;n23 -->
<g id="edge53" class="edge">
<title>n24&#45;&gt;n23</title>
<path fill="none" stroke="#64748b" d="M447.22,-591.52C464.05,-582.09 484.96,-570.38 502.76,-560.41"/>
<polygon fill="#64748b" stroke="#64748b" points="503.95,-562.56 508.86,-557 501.55,-558.28 503.95,-562.56"/>
</g>
<!-- n25 -->
<g id="node26" class="node">
<title>n25</title>
<g id="a_node26"><a xlink:href="https://github.com/statopia/statlib/blob/main/Statlib/Nonparametric/Approximation/Spline.lean#L80" xlink:title="theorem · Statlib/Nonparametric/Approximation/Spline.lean:80" target="_blank">
<path fill="#ffe6a3" stroke="#d4a017" d="M875.45,-700C875.45,-700 526.55,-700 526.55,-700 520.55,-700 514.55,-694 514.55,-688 514.55,-688 514.55,-676 514.55,-676 514.55,-670 520.55,-664 526.55,-664 526.55,-664 875.45,-664 875.45,-664 881.45,-664 887.45,-670 887.45,-676 887.45,-676 887.45,-688 887.45,-688 887.45,-694 881.45,-700 875.45,-700"/>
<text xml:space="preserve" text-anchor="middle" x="701" y="-679" font-family="Helvetica,sans-Serif" font-size="10.00">tensorProductSplineSieve_holderSmoothBall_error_bound_of_pointwise_approx</text>
</a>
</g>
</g>
<!-- n25&#45;&gt;n0 -->
<g id="edge54" class="edge">
<title>n25&#45;&gt;n0</title>
<path fill="none" stroke="#64748b" d="M857.16,-663.54C881.08,-655.52 904.07,-644.12 923,-628 936.2,-616.77 925.32,-603.82 938,-592 974.7,-557.79 1013.51,-595.06 1045,-556 1095.46,-493.41 1022.77,-445.61 1063,-376 1070.27,-363.42 1081.86,-353.08 1093.79,-344.98"/>
<polygon fill="#64748b" stroke="#64748b" points="1094.97,-347.13 1099.54,-341.29 1092.32,-343.01 1094.97,-347.13"/>
</g>
<!-- n25&#45;&gt;n5 -->
<g id="edge55" class="edge">
<title>n25&#45;&gt;n5</title>
<path fill="none" stroke="#64748b" d="M514.13,-670.92C379.74,-662.1 217.82,-647.62 192,-628 172.22,-612.97 163.61,-585.1 159.86,-564.54"/>
<polygon fill="#64748b" stroke="#64748b" points="162.3,-564.26 158.78,-557.73 157.46,-565.03 162.3,-564.26"/>
</g>
<!-- n25&#45;&gt;n6 -->
<g id="edge56" class="edge">
<title>n25&#45;&gt;n6</title>
<path fill="none" stroke="#64748b" d="M674.58,-663.58C663.21,-654.48 651.14,-642.26 645,-628 638.67,-613.3 636.41,-605.5 645,-592 665.28,-560.13 698.76,-585.78 722,-556 764.76,-501.21 762.14,-279.92 759.92,-204.4"/>
<polygon fill="#64748b" stroke="#64748b" points="762.38,-204.77 759.71,-197.85 757.48,-204.92 762.38,-204.77"/>
</g>
<!-- n25&#45;&gt;n7 -->
<g id="edge57" class="edge">
<title>n25&#45;&gt;n7</title>
<path fill="none" stroke="#64748b" d="M849.04,-663.53C879.91,-655.69 911.19,-644.37 938,-628 955.78,-617.15 950.4,-603.13 968,-592 1022.3,-557.66 1062.14,-600.99 1108,-556 1144.11,-520.58 1144.52,-456.62 1141.41,-420.91"/>
<polygon fill="#64748b" stroke="#64748b" points="1143.85,-420.7 1140.71,-413.98 1138.97,-421.19 1143.85,-420.7"/>
</g>
<!-- n25&#45;&gt;n10 -->
<g id="edge58" class="edge">
<title>n25&#45;&gt;n10</title>
<path fill="none" stroke="#64748b" d="M514.36,-672.85C383.34,-665.15 227.88,-651.24 207,-628 196.31,-616.1 199.99,-606.38 207,-592 218.37,-568.66 232.6,-572.05 253,-556 293.53,-524.11 321.53,-530.42 344,-484 350.97,-469.6 350.02,-462.82 344,-448 335.61,-427.32 322.31,-429.91 309,-412 298.08,-397.31 303.79,-386.78 289,-376 222.73,-327.68 160.03,-403.4 108,-340 93.22,-321.99 101.77,-295.21 111.67,-275.73"/>
<polygon fill="#64748b" stroke="#64748b" points="113.74,-277.05 114.92,-269.73 109.43,-274.72 113.74,-277.05"/>
</g>
<!-- n25&#45;&gt;n14 -->
<g id="edge59" class="edge">
<title>n25&#45;&gt;n14</title>
<path fill="none" stroke="#64748b" d="M721.52,-663.7C732.29,-654.61 745.63,-643.36 757.21,-633.6"/>
<polygon fill="#64748b" stroke="#64748b" points="758.5,-635.71 762.27,-629.32 755.34,-631.96 758.5,-635.71"/>
</g>
<!-- n25&#45;&gt;n24 -->
<g id="edge60" class="edge">
<title>n25&#45;&gt;n24</title>
<path fill="none" stroke="#64748b" d="M629.82,-663.52C588.77,-653.44 537.09,-640.74 494.82,-630.36"/>
<polygon fill="#64748b" stroke="#64748b" points="495.62,-628.03 488.24,-628.74 494.45,-632.79 495.62,-628.03"/>
</g>
<!-- n26 -->
<g id="node27" class="node">
<title>n26</title>
<g id="a_node27"><a xlink:href="https://github.com/statopia/statlib/blob/main/Statlib/Nonparametric/Approximation/Spline.lean#L110" xlink:title="theorem · Statlib/Nonparametric/Approximation/Spline.lean:110" target="_blank">
<path fill="#ffe6a3" stroke="#d4a017" d="M981.61,-772C981.61,-772 644.39,-772 644.39,-772 638.39,-772 632.39,-766 632.39,-760 632.39,-760 632.39,-748 632.39,-748 632.39,-742 638.39,-736 644.39,-736 644.39,-736 981.61,-736 981.61,-736 987.61,-736 993.61,-742 993.61,-748 993.61,-748 993.61,-760 993.61,-760 993.61,-766 987.61,-772 981.61,-772"/>
<text xml:space="preserve" text-anchor="middle" x="813" y="-751" font-family="Helvetica,sans-Serif" font-size="10.00">tensorProductSplineSieve_holderSmoothBall_error_bound_of_resolution_rate</text>
</a>
</g>
</g>
<!-- n26&#45;&gt;n0 -->
<g id="edge61" class="edge">
<title>n26&#45;&gt;n0</title>
<path fill="none" stroke="#64748b" d="M854.82,-735.52C874.78,-726.29 898.5,-713.98 918,-700 973.69,-660.09 969.36,-627.44 1028,-592 1072.75,-564.96 1100.22,-589.93 1140,-556 1205.68,-499.97 1252.7,-452.66 1213,-376 1206.38,-363.22 1195.1,-352.86 1183.27,-344.81"/>
<polygon fill="#64748b" stroke="#64748b" points="1184.77,-342.85 1177.55,-341.14 1182.13,-346.98 1184.77,-342.85"/>
</g>
<!-- n26&#45;&gt;n5 -->
<g id="edge62" class="edge">
<title>n26&#45;&gt;n5</title>
<path fill="none" stroke="#64748b" d="M631.96,-749.61C454.04,-744.45 204.53,-731.62 172,-700 135.94,-664.94 143,-600.11 150.49,-564.34"/>
<polygon fill="#64748b" stroke="#64748b" points="152.82,-565.18 151.95,-557.81 148.04,-564.11 152.82,-565.18"/>
</g>
<!-- n26&#45;&gt;n6 -->
<g id="edge63" class="edge">
<title>n26&#45;&gt;n6</title>
<path fill="none" stroke="#64748b" d="M968.08,-735.51C1104.31,-716.8 1288.23,-682.25 1337,-628 1406.81,-550.36 1367,-499.41 1367,-395 1367,-395 1367,-395 1367,-321 1367,-206.48 952.82,-184.27 808.16,-180"/>
<polygon fill="#64748b" stroke="#64748b" points="808.42,-177.56 801.35,-179.81 808.28,-182.46 808.42,-177.56"/>
</g>
<!-- n26&#45;&gt;n7 -->
<g id="edge64" class="edge">
<title>n26&#45;&gt;n7</title>
<path fill="none" stroke="#64748b" d="M844.86,-735.63C860.97,-726.13 880.37,-713.55 896,-700 927.91,-672.34 930.7,-660.22 958,-628 971.46,-612.11 970.44,-603.19 988,-592 1040.73,-558.4 1078.69,-599.08 1124,-556 1160.42,-521.37 1152.73,-456.37 1144.82,-420.46"/>
<polygon fill="#64748b" stroke="#64748b" points="1147.26,-420.15 1143.28,-413.89 1142.49,-421.26 1147.26,-420.15"/>
</g>
<!-- n26&#45;&gt;n10 -->
<g id="edge65" class="edge">
<title>n26&#45;&gt;n10</title>
<path fill="none" stroke="#64748b" d="M632.26,-741.59C470.04,-727.07 249.45,-695.29 196,-628 186.05,-615.47 190.74,-607.11 196,-592 209.41,-553.45 221.96,-546.5 253,-520 277.82,-498.81 300.52,-512.17 317,-484 325.08,-470.19 322.19,-463.13 317,-448 310.42,-428.83 299.21,-429.51 289,-412 280.27,-397.03 287.39,-387 274,-376 211.64,-324.76 147.1,-402.47 96,-340 80.68,-321.28 93.4,-294.5 106.87,-275.21"/>
<polygon fill="#64748b" stroke="#64748b" points="108.76,-276.78 110.93,-269.69 104.81,-273.88 108.76,-276.78"/>
</g>
<!-- n26&#45;&gt;n25 -->
<g id="edge66" class="edge">
<title>n26&#45;&gt;n25</title>
<path fill="none" stroke="#64748b" d="M785.03,-735.52C770.08,-726.18 751.55,-714.59 735.69,-704.68"/>
<polygon fill="#64748b" stroke="#64748b" points="737.13,-702.7 729.9,-701.06 734.54,-706.85 737.13,-702.7"/>
</g>
<!-- n27 -->
<g id="node28" class="node">
<title>n27</title>
<g id="a_node28"><a xlink:href="https://github.com/statopia/statlib/blob/main/Statlib/Nonparametric/Approximation/Spline.lean#L134" xlink:title="theorem · Statlib/Nonparametric/Approximation/Spline.lean:134" target="_blank">
<path fill="#ffe6a3" stroke="#d4a017" d="M1061.62,-844C1061.62,-844 704.38,-844 704.38,-844 698.38,-844 692.38,-838 692.38,-832 692.38,-832 692.38,-820 692.38,-820 692.38,-814 698.38,-808 704.38,-808 704.38,-808 1061.62,-808 1061.62,-808 1067.62,-808 1073.62,-814 1073.62,-820 1073.62,-820 1073.62,-832 1073.62,-832 1073.62,-838 1067.62,-844 1061.62,-844"/>
<text xml:space="preserve" text-anchor="middle" x="883" y="-823" font-family="Helvetica,sans-Serif" font-size="10.00">tensorProductSplineSieve_holderSmoothBall_error_bound_of_has_pointwise_rate</text>
</a>
</g>
</g>
<!-- n27&#45;&gt;n0 -->
<g id="edge67" class="edge">
<title>n27&#45;&gt;n0</title>
<path fill="none" stroke="#64748b" d="M961.3,-807.53C981.51,-799.65 1001.6,-788.3 1016,-772 1070.74,-710.03 1007.04,-652.87 1063,-592 1095.54,-556.61 1125.76,-583.78 1165,-556 1198.54,-532.26 1209.06,-522.66 1223,-484 1239.28,-438.84 1247.4,-417.91 1224,-376 1216.57,-362.69 1204.27,-352.31 1191.27,-344.4"/>
<polygon fill="#64748b" stroke="#64748b" points="1192.61,-342.35 1185.32,-341.01 1190.19,-346.61 1192.61,-342.35"/>
</g>
<!-- n27&#45;&gt;n5 -->
<g id="edge68" class="edge">
<title>n27&#45;&gt;n5</title>
<path fill="none" stroke="#64748b" d="M692.01,-818.18C498.96,-806.98 219.15,-777.48 147,-700 112.76,-663.22 131.43,-598.91 145.66,-563.72"/>
<polygon fill="#64748b" stroke="#64748b" points="147.76,-565.06 148.2,-557.66 143.24,-563.17 147.76,-565.06"/>
</g>
<!-- n27&#45;&gt;n7 -->
<g id="edge71" class="edge">
<title>n27&#45;&gt;n7</title>
<path fill="none" stroke="#64748b" d="M953.67,-807.55C972.36,-799.64 990.72,-788.27 1003,-772 1051.65,-707.53 976.04,-653.83 1028,-592 1061.64,-551.97 1104.77,-594.64 1140,-556 1172.69,-520.14 1163.91,-495.88 1156,-448 1154.46,-438.7 1151.51,-428.84 1148.43,-420.18"/>
<polygon fill="#64748b" stroke="#64748b" points="1150.76,-419.41 1146.01,-413.71 1146.17,-421.13 1150.76,-419.41"/>
</g>
<!-- n27&#45;&gt;n8 -->
<g id="edge69" class="edge">
<title>n27&#45;&gt;n8</title>
<path fill="none" stroke="#64748b" d="M955.86,-807.52C982.88,-799.17 1013,-787.53 1038,-772 1069.81,-752.24 1142.88,-673.98 1179,-634.31"/>
<polygon fill="#64748b" stroke="#64748b" points="1180.56,-636.24 1183.45,-629.41 1176.93,-632.95 1180.56,-636.24"/>
</g>
<!-- n27&#45;&gt;n10 -->
<g id="edge70" class="edge">
<title>n27&#45;&gt;n10</title>
<path fill="none" stroke="#64748b" d="M692.25,-824.9C520.67,-822.17 282.92,-811.08 198,-772 29.6,-694.5 44.35,-559.99 67,-376 71.03,-343.26 70.43,-333.59 85,-304 90.12,-293.59 97.55,-283.32 104.74,-274.64"/>
<polygon fill="#64748b" stroke="#64748b" points="106.47,-276.38 109.16,-269.47 102.75,-273.2 106.47,-276.38"/>
</g>
<!-- n27&#45;&gt;n26 -->
<g id="edge72" class="edge">
<title>n27&#45;&gt;n26</title>
<path fill="none" stroke="#64748b" d="M865.7,-807.7C856.71,-798.71 845.61,-787.61 835.92,-777.92"/>
<polygon fill="#64748b" stroke="#64748b" points="837.86,-776.39 831.17,-773.17 834.39,-779.86 837.86,-776.39"/>
</g>
<!-- n28 -->
<g id="node29" class="node">
<title>n28</title>
<g id="a_node29"><a xlink:href="https://github.com/statopia/statlib/blob/main/Statlib/Nonparametric/Approximation/Spline.lean#L151" xlink:title="theorem · Statlib/Nonparametric/Approximation/Spline.lean:151" target="_blank">
<path fill="#ffe6a3" stroke="#d4a017" d="M1315.93,-916C1315.93,-916 858.07,-916 858.07,-916 852.07,-916 846.07,-910 846.07,-904 846.07,-904 846.07,-892 846.07,-892 846.07,-886 852.07,-880 858.07,-880 858.07,-880 1315.93,-880 1315.93,-880 1321.93,-880 1327.93,-886 1327.93,-892 1327.93,-892 1327.93,-904 1327.93,-904 1327.93,-910 1321.93,-916 1315.93,-916"/>
<text xml:space="preserve" text-anchor="middle" x="1087" y="-895" font-family="Helvetica,sans-Serif" font-size="10.00">tensorProductSplineSieve_holderSmoothBall_error_bound_of_has_pointwise_rate_and_basisCount_rate</text>
</a>
</g>
</g>
<!-- n28&#45;&gt;n0 -->
<g id="edge73" class="edge">
<title>n28&#45;&gt;n0</title>
<path fill="none" stroke="#64748b" d="M1112.98,-879.64C1167.16,-841.67 1290.95,-745.2 1337,-628 1370.33,-543.17 1364.28,-487.55 1260,-376 1246.82,-361.9 1229.25,-351.36 1211.55,-343.56"/>
<polygon fill="#64748b" stroke="#64748b" points="1212.77,-341.41 1205.37,-340.96 1210.88,-345.93 1212.77,-341.41"/>
</g>
<!-- n28&#45;&gt;n5 -->
<g id="edge74" class="edge">
<title>n28&#45;&gt;n5</title>
<path fill="none" stroke="#64748b" d="M845.77,-885.78C552.71,-868.85 97,-830.4 97,-755 97,-755 97,-755 97,-681 97,-636.78 122,-590.48 139.72,-563.22"/>
<polygon fill="#64748b" stroke="#64748b" points="141.6,-564.82 143.44,-557.64 137.52,-562.11 141.6,-564.82"/>
</g>
<!-- n28&#45;&gt;n7 -->
<g id="edge77" class="edge">
<title>n28&#45;&gt;n7</title>
<path fill="none" stroke="#64748b" d="M1086.56,-879.58C1086.02,-861.63 1084.94,-832.83 1083,-808 1075.51,-711.88 1008.5,-671.53 1063,-592 1088.05,-555.44 1128.96,-591.12 1156,-556 1185.36,-517.86 1174.88,-494.89 1164,-448 1161.76,-438.37 1157.52,-428.47 1153.1,-419.87"/>
<polygon fill="#64748b" stroke="#64748b" points="1155.26,-418.71 1149.77,-413.72 1150.95,-421.04 1155.26,-418.71"/>
</g>
<!-- n28&#45;&gt;n8 -->
<g id="edge75" class="edge">
<title>n28&#45;&gt;n8</title>
<path fill="none" stroke="#64748b" d="M1093.9,-879.54C1113.17,-830.76 1167.64,-692.89 1190.12,-636.02"/>
<polygon fill="#64748b" stroke="#64748b" points="1192.34,-637.05 1192.64,-629.64 1187.78,-635.25 1192.34,-637.05"/>
</g>
<!-- n28&#45;&gt;n10 -->
<g id="edge76" class="edge">
<title>n28&#45;&gt;n10</title>
<path fill="none" stroke="#64748b" d="M845.8,-891.51C602.19,-884.56 253.78,-870.19 196,-844 104.4,-802.48 37,-783.57 37,-683 37,-683 37,-683 37,-393 37,-351.11 44.8,-338.87 68,-304 75.51,-292.72 85.97,-282.27 95.99,-273.69"/>
<polygon fill="#64748b" stroke="#64748b" points="97.48,-275.64 101.32,-269.3 94.36,-271.86 97.48,-275.64"/>
</g>
<!-- n28&#45;&gt;n27 -->
<g id="edge78" class="edge">
<title>n28&#45;&gt;n27</title>
<path fill="none" stroke="#64748b" d="M1036.05,-879.52C1007.34,-869.67 971.36,-857.32 941.5,-847.07"/>
<polygon fill="#64748b" stroke="#64748b" points="942.5,-844.83 935.09,-844.87 940.91,-849.46 942.5,-844.83"/>
</g>
<!-- n29 -->
<g id="node30" class="node">
<title>n29</title>
<g id="a_node30"><a xlink:href="https://github.com/statopia/statlib/blob/main/Statlib/Nonparametric/Approximation/Spline.lean#L176" xlink:title="theorem · Statlib/Nonparametric/Approximation/Spline.lean:176" target="_blank">
<path fill="#ffe6a3" stroke="#d4a017" stroke-width="3" d="M1357.27,-988C1357.27,-988 892.73,-988 892.73,-988 886.73,-988 880.73,-982 880.73,-976 880.73,-976 880.73,-964 880.73,-964 880.73,-958 886.73,-952 892.73,-952 892.73,-952 1357.27,-952 1357.27,-952 1363.27,-952 1369.27,-958 1369.27,-964 1369.27,-964 1369.27,-976 1369.27,-976 1369.27,-982 1363.27,-988 1357.27,-988"/>
<text xml:space="preserve" text-anchor="middle" x="1125" y="-967" font-family="Helvetica,sans-Serif" font-size="10.00">tensorProductSplineSieve_holderSmoothBall_error_bound_of_has_pointwise_rate_and_exact_basisCount</text>
</a>
</g>
</g>
<!-- n29&#45;&gt;n0 -->
<g id="edge79" class="edge">
<title>n29&#45;&gt;n0</title>
<path fill="none" stroke="#64748b" d="M1261.55,-950.5C1307.47,-941.96 1351.5,-930.46 1369,-916 1402.16,-888.6 1407,-870.01 1407,-827 1407,-827 1407,-827 1407,-609 1407,-491.27 1375.03,-446.83 1281,-376 1262.26,-361.88 1239.36,-351.19 1217.42,-343.24"/>
<polygon fill="#64748b" stroke="#64748b" points="1218.24,-340.93 1210.82,-340.93 1216.62,-345.55 1218.24,-340.93"/>
</g>
<!-- n29&#45;&gt;n5 -->
<g id="edge80" class="edge">
<title>n29&#45;&gt;n5</title>
<path fill="none" stroke="#64748b" d="M879.31,-960.27C563.95,-945.71 57,-909.48 57,-827 57,-827 57,-827 57,-681 57,-631.66 97.85,-587.38 127.34,-561.85"/>
<polygon fill="#64748b" stroke="#64748b" points="128.88,-563.75 132.65,-557.36 125.72,-560.01 128.88,-563.75"/>
</g>
<!-- n29&#45;&gt;n7 -->
<g id="edge83" class="edge">
<title>n29&#45;&gt;n7</title>
<path fill="none" stroke="#64748b" d="M1245.27,-950.52C1289.26,-941.72 1332.34,-930.03 1349,-916 1381.9,-888.3 1387,-870.01 1387,-827 1387,-827 1387,-827 1387,-609 1387,-509.04 1270.16,-445.61 1196.56,-415.57"/>
<polygon fill="#64748b" stroke="#64748b" points="1197.5,-413.31 1190.09,-412.98 1195.68,-417.86 1197.5,-413.31"/>
</g>
<!-- n29&#45;&gt;n8 -->
<g id="edge81" class="edge">
<title>n29&#45;&gt;n8</title>
<path fill="none" stroke="#64748b" d="M1248.16,-950.53C1287.48,-942.1 1324.16,-930.67 1337,-916 1363.21,-886.04 1347,-866.8 1347,-827 1347,-827 1347,-827 1347,-753 1347,-696.48 1290.09,-655.32 1247.09,-632.29"/>
<polygon fill="#64748b" stroke="#64748b" points="1248.46,-630.24 1241.12,-629.17 1246.19,-634.58 1248.46,-630.24"/>
</g>
<!-- n29&#45;&gt;n10 -->
<g id="edge82" class="edge">
<title>n29&#45;&gt;n10</title>
<path fill="none" stroke="#64748b" d="M879.44,-962.76C611.54,-954.85 211.58,-939.35 144,-916 78.85,-893.5 17,-895.92 17,-827 17,-827 17,-827 17,-393 17,-351.91 17.35,-336.87 42,-304 51.69,-291.09 65.52,-280.57 79.23,-272.41"/>
<polygon fill="#64748b" stroke="#64748b" points="80.17,-274.69 85.04,-269.1 77.75,-270.43 80.17,-274.69"/>
</g>
<!-- n29&#45;&gt;n28 -->
<g id="edge84" class="edge">
<title>n29&#45;&gt;n28</title>
<path fill="none" stroke="#64748b" d="M1115.02,-950.61C1110.48,-942.25 1105.05,-932.26 1100.19,-923.29"/>
<polygon fill="#64748b" stroke="#64748b" points="1102.48,-922.38 1096.99,-917.4 1098.17,-924.72 1102.48,-922.38"/>
</g>
</g>
</svg>
