<?xml version="1.0" encoding="UTF-8" standalone="no"?>
<!DOCTYPE svg PUBLIC "-//W3C//DTD SVG 1.1//EN"
 "http://www.w3.org/Graphics/SVG/1.1/DTD/svg11.dtd">
<!-- Generated by graphviz version 15.0.0 (20260523.1842)
 -->
<!-- Title: unitCube_selectorIndicatorSieve_holderBall_grid_rate Pages: 1 -->
<svg width="1251pt" height="770pt"
 viewBox="0.00 0.00 1251.00 770.00" xmlns="http://www.w3.org/2000/svg" xmlns:xlink="http://www.w3.org/1999/xlink">
<g id="graph0" class="graph" transform="scale(1 1) rotate(0) translate(4 766)">
<title>unitCube_selectorIndicatorSieve_holderBall_grid_rate</title>
<polygon fill="white" stroke="none" points="-4,4 -4,-766 1247,-766 1247,4 -4,4"/>
<text xml:space="preserve" text-anchor="middle" x="621.5" y="-745.4" font-family="Helvetica,sans-Serif" font-size="14.00">Proof narrative — unitCube_selectorIndicatorSieve_holderBall_grid_rate &#160;(26 decls)</text>
<g id="clust1" class="cluster">
<title>cluster_0</title>
<path fill="none" stroke="#cbd5e1" stroke-dasharray="5,2" d="M20,-8C20,-8 1223,-8 1223,-8 1229,-8 1235,-14 1235,-20 1235,-20 1235,-717.2 1235,-717.2 1235,-723.2 1229,-729.2 1223,-729.2 1223,-729.2 20,-729.2 20,-729.2 14,-729.2 8,-723.2 8,-717.2 8,-717.2 8,-20 8,-20 8,-14 14,-8 20,-8"/>
<text xml:space="preserve" text-anchor="middle" x="621.5" y="-715.3" font-family="Helvetica,sans-Serif" font-size="11.00">Nonparametric</text>
</g>
<!-- n0 -->
<g id="node1" class="node">
<title>n0</title>
<g id="a_node1"><a xlink:href="https://github.com/statopia/statlib/blob/main/Statlib/Nonparametric/Vocabulary/FunctionClasses.lean#L16" xlink:title="abbrev · Statlib/Nonparametric/Vocabulary/FunctionClasses.lean:16" target="_blank">
<path fill="#d6e9ff" stroke="#3b82f6" d="M123.68,-340C123.68,-340 68.32,-340 68.32,-340 62.32,-340 56.32,-334 56.32,-328 56.32,-328 56.32,-316 56.32,-316 56.32,-310 62.32,-304 68.32,-304 68.32,-304 123.68,-304 123.68,-304 129.68,-304 135.68,-310 135.68,-316 135.68,-316 135.68,-328 135.68,-328 135.68,-334 129.68,-340 123.68,-340"/>
<text xml:space="preserve" text-anchor="middle" x="96" y="-319" font-family="Helvetica,sans-Serif" font-size="10.00">FunctionClass</text>
</a>
</g>
</g>
<!-- n1 -->
<g id="node2" class="node">
<title>n1</title>
<g id="a_node2"><a xlink:href="https://github.com/statopia/statlib/blob/main/Statlib/Nonparametric/Vocabulary/FunctionClasses.lean#L44" xlink:title="def · Statlib/Nonparametric/Vocabulary/FunctionClasses.lean:44" target="_blank">
<path fill="#d6e9ff" stroke="#3b82f6" d="M232.8,-340C232.8,-340 165.2,-340 165.2,-340 159.2,-340 153.2,-334 153.2,-328 153.2,-328 153.2,-316 153.2,-316 153.2,-310 159.2,-304 165.2,-304 165.2,-304 232.8,-304 232.8,-304 238.8,-304 244.8,-310 244.8,-316 244.8,-316 244.8,-328 244.8,-328 244.8,-334 238.8,-340 232.8,-340"/>
<text xml:space="preserve" text-anchor="middle" x="199" y="-319" font-family="Helvetica,sans-Serif" font-size="10.00">IsHolderFunction</text>
</a>
</g>
</g>
<!-- n2 -->
<g id="node3" class="node">
<title>n2</title>
<g id="a_node3"><a xlink:href="https://github.com/statopia/statlib/blob/main/Statlib/Nonparametric/Vocabulary/FunctionClasses.lean#L56" xlink:title="def · Statlib/Nonparametric/Vocabulary/FunctionClasses.lean:56" target="_blank">
<path fill="#d6e9ff" stroke="#3b82f6" d="M245.24,-412C245.24,-412 208.76,-412 208.76,-412 202.76,-412 196.76,-406 196.76,-400 196.76,-400 196.76,-388 196.76,-388 196.76,-382 202.76,-376 208.76,-376 208.76,-376 245.24,-376 245.24,-376 251.24,-376 257.24,-382 257.24,-388 257.24,-388 257.24,-400 257.24,-400 257.24,-406 251.24,-412 245.24,-412"/>
<text xml:space="preserve" text-anchor="middle" x="227" y="-391" font-family="Helvetica,sans-Serif" font-size="10.00">holderBall</text>
</a>
</g>
</g>
<!-- n2&#45;&gt;n0 -->
<g id="edge1" class="edge">
<title>n2&#45;&gt;n0</title>
<path fill="none" stroke="#64748b" d="M196.29,-376.59C178.18,-366.91 155.08,-354.57 135.61,-344.17"/>
<polygon fill="#64748b" stroke="#64748b" points="137.01,-342.14 129.68,-341 134.7,-346.46 137.01,-342.14"/>
</g>
<!-- n2&#45;&gt;n1 -->
<g id="edge2" class="edge">
<title>n2&#45;&gt;n1</title>
<path fill="none" stroke="#64748b" d="M220.08,-375.7C216.72,-367.3 212.63,-357.07 208.94,-347.86"/>
<polygon fill="#64748b" stroke="#64748b" points="211.28,-347.1 206.4,-341.51 206.73,-348.92 211.28,-347.1"/>
</g>
<!-- n3 -->
<g id="node4" class="node">
<title>n3</title>
<g id="a_node4"><a xlink:href="https://github.com/statopia/statlib/blob/main/Statlib/Nonparametric/Vocabulary/Risk.lean#L60" xlink:title="noncomputable def · Statlib/Nonparametric/Vocabulary/Risk.lean:60" target="_blank">
<path fill="#d6e9ff" stroke="#3b82f6" d="M984.25,-52C984.25,-52 887.75,-52 887.75,-52 881.75,-52 875.75,-46 875.75,-40 875.75,-40 875.75,-28 875.75,-28 875.75,-22 881.75,-16 887.75,-16 887.75,-16 984.25,-16 984.25,-16 990.25,-16 996.25,-22 996.25,-28 996.25,-28 996.25,-40 996.25,-40 996.25,-46 990.25,-52 984.25,-52"/>
<text xml:space="preserve" text-anchor="middle" x="936" y="-31" font-family="Helvetica,sans-Serif" font-size="10.00">integratedSquaredError</text>
</a>
</g>
</g>
<!-- n4 -->
<g id="node5" class="node">
<title>n4</title>
<g id="a_node5"><a xlink:href="https://github.com/statopia/statlib/blob/main/Statlib/Nonparametric/Vocabulary/Sieve.lean#L27" xlink:title="noncomputable def · Statlib/Nonparametric/Vocabulary/Sieve.lean:27" target="_blank">
<path fill="#d6e9ff" stroke="#3b82f6" d="M641.51,-52C641.51,-52 584.49,-52 584.49,-52 578.49,-52 572.49,-46 572.49,-40 572.49,-40 572.49,-28 572.49,-28 572.49,-22 578.49,-16 584.49,-16 584.49,-16 641.51,-16 641.51,-16 647.51,-16 653.51,-22 653.51,-28 653.51,-28 653.51,-40 653.51,-40 653.51,-46 647.51,-52 641.51,-52"/>
<text xml:space="preserve" text-anchor="middle" x="613" y="-31" font-family="Helvetica,sans-Serif" font-size="10.00">seriesFunction</text>
</a>
</g>
</g>
<!-- n5 -->
<g id="node6" class="node">
<title>n5</title>
<g id="a_node6"><a xlink:href="https://github.com/statopia/statlib/blob/main/Statlib/Nonparametric/Vocabulary/Sieve.lean#L42" xlink:title="noncomputable def · Statlib/Nonparametric/Vocabulary/Sieve.lean:42" target="_blank">
<path fill="#d6e9ff" stroke="#3b82f6" d="M1201.74,-124C1201.74,-124 1100.26,-124 1100.26,-124 1094.26,-124 1088.26,-118 1088.26,-112 1088.26,-112 1088.26,-100 1088.26,-100 1088.26,-94 1094.26,-88 1100.26,-88 1100.26,-88 1201.74,-88 1201.74,-88 1207.74,-88 1213.74,-94 1213.74,-100 1213.74,-100 1213.74,-112 1213.74,-112 1213.74,-118 1207.74,-124 1201.74,-124"/>
<text xml:space="preserve" text-anchor="middle" x="1151" y="-103" font-family="Helvetica,sans-Serif" font-size="10.00">sieveApproximationError</text>
</a>
</g>
</g>
<!-- n5&#45;&gt;n3 -->
<g id="edge3" class="edge">
<title>n5&#45;&gt;n3</title>
<path fill="none" stroke="#64748b" d="M1097.3,-87.52C1066.92,-77.62 1028.8,-65.22 997.26,-54.94"/>
<polygon fill="#64748b" stroke="#64748b" points="998.24,-52.69 990.83,-52.85 996.72,-57.35 998.24,-52.69"/>
</g>
<!-- n5&#45;&gt;n4 -->
<g id="edge4" class="edge">
<title>n5&#45;&gt;n4</title>
<path fill="none" stroke="#64748b" d="M1088.24,-92.85C1078.47,-91.11 1068.47,-89.44 1059,-88 915.48,-66.24 744.84,-48.1 662.42,-39.82"/>
<polygon fill="#64748b" stroke="#64748b" points="662.73,-37.39 655.52,-39.13 662.24,-42.27 662.73,-37.39"/>
</g>
<!-- n6 -->
<g id="node7" class="node">
<title>n6</title>
<g id="a_node7"><a xlink:href="https://github.com/statopia/statlib/blob/main/Statlib/Nonparametric/Approximation/Sieve.lean#L401" xlink:title="def · Statlib/Nonparametric/Approximation/Sieve.lean:401" target="_blank">
<path fill="#d6e9ff" stroke="#3b82f6" d="M547.19,-268C547.19,-268 456.81,-268 456.81,-268 450.81,-268 444.81,-262 444.81,-256 444.81,-256 444.81,-244 444.81,-244 444.81,-238 450.81,-232 456.81,-232 456.81,-232 547.19,-232 547.19,-232 553.19,-232 559.19,-238 559.19,-244 559.19,-244 559.19,-256 559.19,-256 559.19,-262 553.19,-268 547.19,-268"/>
<text xml:space="preserve" text-anchor="middle" x="502" y="-247" font-family="Helvetica,sans-Serif" font-size="10.00">selectorIndicatorSieve</text>
</a>
</g>
</g>
<!-- n7 -->
<g id="node8" class="node">
<title>n7</title>
<g id="a_node8"><a xlink:href="https://github.com/statopia/statlib/blob/main/Statlib/Nonparametric/Vocabulary/Estimator.lean#L28" xlink:title="noncomputable def · Statlib/Nonparametric/Vocabulary/Estimator.lean:28" target="_blank">
<path fill="#d6e9ff" stroke="#3b82f6" d="M85,-52C85,-52 55,-52 55,-52 49,-52 43,-46 43,-40 43,-40 43,-28 43,-28 43,-22 49,-16 55,-16 55,-16 85,-16 85,-16 91,-16 97,-22 97,-28 97,-28 97,-40 97,-40 97,-46 91,-52 85,-52"/>
<text xml:space="preserve" text-anchor="middle" x="70" y="-31" font-family="Helvetica,sans-Serif" font-size="10.00">bias</text>
</a>
</g>
</g>
<!-- n8 -->
<g id="node9" class="node">
<title>n8</title>
<g id="a_node9"><a xlink:href="https://github.com/statopia/statlib/blob/main/Statlib/Nonparametric/Vocabulary/NeuralNetwork.lean#L23" xlink:title="structure · Statlib/Nonparametric/Vocabulary/NeuralNetwork.lean:23" target="_blank">
<path fill="#e8dcff" stroke="#8b5cf6" d="M118.96,-124C118.96,-124 73.04,-124 73.04,-124 67.04,-124 61.04,-118 61.04,-112 61.04,-112 61.04,-100 61.04,-100 61.04,-94 67.04,-88 73.04,-88 73.04,-88 118.96,-88 118.96,-88 124.96,-88 130.96,-94 130.96,-100 130.96,-100 130.96,-112 130.96,-112 130.96,-118 124.96,-124 118.96,-124"/>
<text xml:space="preserve" text-anchor="middle" x="96" y="-103" font-family="Helvetica,sans-Serif" font-size="10.00">DenseLayer</text>
</a>
</g>
</g>
<!-- n8&#45;&gt;n7 -->
<g id="edge5" class="edge">
<title>n8&#45;&gt;n7</title>
<path fill="none" stroke="#64748b" d="M89.57,-87.7C86.46,-79.3 82.65,-69.07 79.23,-59.86"/>
<polygon fill="#64748b" stroke="#64748b" points="81.61,-59.23 76.88,-53.52 77.02,-60.94 81.61,-59.23"/>
</g>
<!-- n9 -->
<g id="node10" class="node">
<title>n9</title>
<g id="a_node10"><a xlink:href="https://github.com/statopia/statlib/blob/main/Statlib/Nonparametric/Vocabulary/NeuralNetwork.lean#L30" xlink:title="noncomputable def · Statlib/Nonparametric/Vocabulary/NeuralNetwork.lean:30" target="_blank">
<path fill="#d6e9ff" stroke="#3b82f6" d="M111,-196C111,-196 81,-196 81,-196 75,-196 69,-190 69,-184 69,-184 69,-172 69,-172 69,-166 75,-160 81,-160 81,-160 111,-160 111,-160 117,-160 123,-166 123,-172 123,-172 123,-184 123,-184 123,-190 117,-196 111,-196"/>
<text xml:space="preserve" text-anchor="middle" x="96" y="-175" font-family="Helvetica,sans-Serif" font-size="10.00">apply</text>
</a>
</g>
</g>
<!-- n9&#45;&gt;n7 -->
<g id="edge7" class="edge">
<title>n9&#45;&gt;n7</title>
<path fill="none" stroke="#64748b" d="M76.53,-159.92C67.18,-150.4 56.95,-137.72 52,-124 44.48,-103.17 50.63,-78.4 57.72,-60.29"/>
<polygon fill="#64748b" stroke="#64748b" points="59.96,-61.27 60.41,-53.87 55.44,-59.38 59.96,-61.27"/>
</g>
<!-- n9&#45;&gt;n8 -->
<g id="edge6" class="edge">
<title>n9&#45;&gt;n8</title>
<path fill="none" stroke="#64748b" d="M96,-159.7C96,-151.47 96,-141.48 96,-132.42"/>
<polygon fill="#64748b" stroke="#64748b" points="98.45,-132.62 96,-125.62 93.55,-132.62 98.45,-132.62"/>
</g>
<!-- n10 -->
<g id="node11" class="node">
<title>n10</title>
<g id="a_node11"><a xlink:href="https://github.com/statopia/statlib/blob/main/Statlib/Nonparametric/Approximation/Holder.lean#L551" xlink:title="theorem · Statlib/Nonparametric/Approximation/Holder.lean:551" target="_blank">
<path fill="#ffe6a3" stroke="#d4a017" d="M196.39,-484C196.39,-484 27.61,-484 27.61,-484 21.61,-484 15.61,-478 15.61,-472 15.61,-472 15.61,-460 15.61,-460 15.61,-454 21.61,-448 27.61,-448 27.61,-448 196.39,-448 196.39,-448 202.39,-448 208.39,-454 208.39,-460 208.39,-460 208.39,-472 208.39,-472 208.39,-478 202.39,-484 196.39,-484"/>
<text xml:space="preserve" text-anchor="middle" x="112" y="-463" font-family="Helvetica,sans-Serif" font-size="10.00">unitCube_grid_finite_measurable_cover</text>
</a>
</g>
</g>
<!-- n10&#45;&gt;n9 -->
<g id="edge8" class="edge">
<title>n10&#45;&gt;n9</title>
<path fill="none" stroke="#64748b" d="M96.17,-447.59C76.65,-424.83 44.52,-382.78 32,-340 17.39,-290.08 51.72,-234.14 75.54,-203.09"/>
<polygon fill="#64748b" stroke="#64748b" points="77.4,-204.69 79.8,-197.68 73.55,-201.66 77.4,-204.69"/>
</g>
<!-- n11 -->
<g id="node12" class="node">
<title>n11</title>
<g id="a_node12"><a xlink:href="https://github.com/statopia/statlib/blob/main/Statlib/Nonparametric/Approximation/Sieve.lean#L321" xlink:title="theorem · Statlib/Nonparametric/Approximation/Sieve.lean:321" target="_blank">
<path fill="#ffe6a3" stroke="#d4a017" d="M525.78,-556C525.78,-556 304.22,-556 304.22,-556 298.22,-556 292.22,-550 292.22,-544 292.22,-544 292.22,-532 292.22,-532 292.22,-526 298.22,-520 304.22,-520 304.22,-520 525.78,-520 525.78,-520 531.78,-520 537.78,-526 537.78,-532 537.78,-532 537.78,-544 537.78,-544 537.78,-550 531.78,-556 525.78,-556"/>
<text xml:space="preserve" text-anchor="middle" x="415" y="-535" font-family="Helvetica,sans-Serif" font-size="10.00">finiteMeasurableCover_exists_measurable_selector</text>
</a>
</g>
</g>
<!-- n12 -->
<g id="node13" class="node">
<title>n12</title>
<g id="a_node13"><a xlink:href="https://github.com/statopia/statlib/blob/main/Statlib/Nonparametric/Approximation/Metric.lean#L10" xlink:title="theorem · Statlib/Nonparametric/Approximation/Metric.lean:10" target="_blank">
<path fill="#ffe6a3" stroke="#d4a017" d="M1038.19,-124C1038.19,-124 833.81,-124 833.81,-124 827.81,-124 821.81,-118 821.81,-112 821.81,-112 821.81,-100 821.81,-100 821.81,-94 827.81,-88 833.81,-88 833.81,-88 1038.19,-88 1038.19,-88 1044.19,-88 1050.19,-94 1050.19,-100 1050.19,-100 1050.19,-112 1050.19,-112 1050.19,-118 1044.19,-124 1038.19,-124"/>
<text xml:space="preserve" text-anchor="middle" x="936" y="-103" font-family="Helvetica,sans-Serif" font-size="10.00">integratedSquaredError_le_of_pointwise_bound</text>
</a>
</g>
</g>
<!-- n12&#45;&gt;n3 -->
<g id="edge9" class="edge">
<title>n12&#45;&gt;n3</title>
<path fill="none" stroke="#64748b" d="M936,-87.7C936,-79.47 936,-69.48 936,-60.42"/>
<polygon fill="#64748b" stroke="#64748b" points="938.45,-60.62 936,-53.62 933.55,-60.62 938.45,-60.62"/>
</g>
<!-- n13 -->
<g id="node14" class="node">
<title>n13</title>
<g id="a_node14"><a xlink:href="https://github.com/statopia/statlib/blob/main/Statlib/Nonparametric/Approximation/Sieve.lean#L107" xlink:title="theorem · Statlib/Nonparametric/Approximation/Sieve.lean:107" target="_blank">
<path fill="#ffe6a3" stroke="#d4a017" d="M978.16,-196C978.16,-196 793.84,-196 793.84,-196 787.84,-196 781.84,-190 781.84,-184 781.84,-184 781.84,-172 781.84,-172 781.84,-166 787.84,-160 793.84,-160 793.84,-160 978.16,-160 978.16,-160 984.16,-160 990.16,-166 990.16,-172 990.16,-172 990.16,-184 990.16,-184 990.16,-190 984.16,-196 978.16,-196"/>
<text xml:space="preserve" text-anchor="middle" x="886" y="-175" font-family="Helvetica,sans-Serif" font-size="10.00">sieveApproximationError_le_of_coefficients</text>
</a>
</g>
</g>
<!-- n13&#45;&gt;n3 -->
<g id="edge10" class="edge">
<title>n13&#45;&gt;n3</title>
<path fill="none" stroke="#64748b" d="M849.1,-159.69C835.14,-151.08 820.75,-139.21 813,-124 805.73,-109.75 804.21,-101.37 813,-88 825.52,-68.97 846.47,-56.74 867.57,-48.9"/>
<polygon fill="#64748b" stroke="#64748b" points="868.09,-51.31 873.9,-46.7 866.49,-46.68 868.09,-51.31"/>
</g>
<!-- n13&#45;&gt;n4 -->
<g id="edge11" class="edge">
<title>n13&#45;&gt;n4</title>
<path fill="none" stroke="#64748b" d="M858.66,-159.65C842.45,-149.34 821.52,-135.97 803,-124 778.47,-108.14 773.96,-101.41 748,-88 720.33,-73.7 687.88,-60.85 661.73,-51.38"/>
<polygon fill="#64748b" stroke="#64748b" points="662.67,-49.11 655.25,-49.06 661.02,-53.73 662.67,-49.11"/>
</g>
<!-- n13&#45;&gt;n5 -->
<g id="edge12" class="edge">
<title>n13&#45;&gt;n5</title>
<path fill="none" stroke="#64748b" d="M952.19,-159.52C991.14,-149.23 1040.38,-136.22 1080.12,-125.72"/>
<polygon fill="#64748b" stroke="#64748b" points="1080.33,-128.2 1086.47,-124.05 1079.08,-123.46 1080.33,-128.2"/>
</g>
<!-- n14 -->
<g id="node15" class="node">
<title>n14</title>
<g id="a_node15"><a xlink:href="https://github.com/statopia/statlib/blob/main/Statlib/Nonparametric/Approximation/Sieve.lean#L248" xlink:title="theorem · Statlib/Nonparametric/Approximation/Sieve.lean:248" target="_blank">
<path fill="#ffe6a3" stroke="#d4a017" d="M1094.79,-268C1094.79,-268 853.21,-268 853.21,-268 847.21,-268 841.21,-262 841.21,-256 841.21,-256 841.21,-244 841.21,-244 841.21,-238 847.21,-232 853.21,-232 853.21,-232 1094.79,-232 1094.79,-232 1100.79,-232 1106.79,-238 1106.79,-244 1106.79,-244 1106.79,-256 1106.79,-256 1106.79,-262 1100.79,-268 1094.79,-268"/>
<text xml:space="preserve" text-anchor="middle" x="974" y="-247" font-family="Helvetica,sans-Serif" font-size="10.00">sieveApproximationError_le_of_pointwise_series_bound</text>
</a>
</g>
</g>
<!-- n14&#45;&gt;n3 -->
<g id="edge14" class="edge">
<title>n14&#45;&gt;n3</title>
<path fill="none" stroke="#64748b" d="M995.44,-231.7C1030.19,-201.54 1091.75,-137.77 1059,-88 1046.48,-68.97 1025.53,-56.74 1004.43,-48.9"/>
<polygon fill="#64748b" stroke="#64748b" points="1005.51,-46.68 998.1,-46.7 1003.91,-51.31 1005.51,-46.68"/>
</g>
<!-- n14&#45;&gt;n4 -->
<g id="edge13" class="edge">
<title>n14&#45;&gt;n4</title>
<path fill="none" stroke="#64748b" d="M840.81,-232.26C816.21,-224.33 792.25,-212.78 773,-196 733.8,-161.83 764.08,-125.44 728,-88 710.06,-69.38 684.32,-56.68 661.75,-48.39"/>
<polygon fill="#64748b" stroke="#64748b" points="662.75,-46.15 655.34,-46.14 661.13,-50.77 662.75,-46.15"/>
</g>
<!-- n14&#45;&gt;n5 -->
<g id="edge15" class="edge">
<title>n14&#45;&gt;n5</title>
<path fill="none" stroke="#64748b" d="M1015.01,-231.52C1033.97,-222.41 1056.17,-210.2 1074,-196 1097.63,-177.18 1119.65,-150.42 1134.03,-131.16"/>
<polygon fill="#64748b" stroke="#64748b" points="1135.91,-132.74 1138.08,-125.65 1131.96,-129.84 1135.91,-132.74"/>
</g>
<!-- n14&#45;&gt;n12 -->
<g id="edge16" class="edge">
<title>n14&#45;&gt;n12</title>
<path fill="none" stroke="#64748b" d="M985.87,-231.69C996.89,-213.31 1010.04,-183.72 999,-160 993.41,-147.99 983.61,-137.73 973.38,-129.52"/>
<polygon fill="#64748b" stroke="#64748b" points="974.9,-127.6 967.84,-125.34 971.95,-131.52 974.9,-127.6"/>
</g>
<!-- n14&#45;&gt;n13 -->
<g id="edge17" class="edge">
<title>n14&#45;&gt;n13</title>
<path fill="none" stroke="#64748b" d="M952.25,-231.7C940.82,-222.61 926.69,-211.36 914.41,-201.6"/>
<polygon fill="#64748b" stroke="#64748b" points="916,-199.73 908.99,-197.29 912.95,-203.56 916,-199.73"/>
</g>
<!-- n15 -->
<g id="node16" class="node">
<title>n15</title>
<g id="a_node16"><a xlink:href="https://github.com/statopia/statlib/blob/main/Statlib/Nonparametric/Approximation/Sieve.lean#L121" xlink:title="theorem · Statlib/Nonparametric/Approximation/Sieve.lean:121" target="_blank">
<path fill="#ffe6a3" stroke="#d4a017" d="M791.05,-268C791.05,-268 608.95,-268 608.95,-268 602.95,-268 596.95,-262 596.95,-256 596.95,-256 596.95,-244 596.95,-244 596.95,-238 602.95,-232 608.95,-232 608.95,-232 791.05,-232 791.05,-232 797.05,-232 803.05,-238 803.05,-244 803.05,-244 803.05,-256 803.05,-256 803.05,-262 797.05,-268 791.05,-268"/>
<text xml:space="preserve" text-anchor="middle" x="700" y="-247" font-family="Helvetica,sans-Serif" font-size="10.00">sieveApproximationError_range_bddBelow</text>
</a>
</g>
</g>
<!-- n15&#45;&gt;n3 -->
<g id="edge18" class="edge">
<title>n15&#45;&gt;n3</title>
<path fill="none" stroke="#64748b" d="M706.78,-231.71C720.33,-199.22 753.75,-128.68 803,-88 821.68,-72.56 845.43,-61.2 867.67,-53.04"/>
<polygon fill="#64748b" stroke="#64748b" points="868.25,-55.43 874.04,-50.79 866.62,-50.81 868.25,-55.43"/>
</g>
<!-- n15&#45;&gt;n4 -->
<g id="edge19" class="edge">
<title>n15&#45;&gt;n4</title>
<path fill="none" stroke="#64748b" d="M693.03,-231.85C677.69,-194.13 640.98,-103.83 623.11,-59.88"/>
<polygon fill="#64748b" stroke="#64748b" points="625.48,-59.2 620.58,-53.63 620.94,-61.04 625.48,-59.2"/>
</g>
<!-- n15&#45;&gt;n9 -->
<g id="edge20" class="edge">
<title>n15&#45;&gt;n9</title>
<path fill="none" stroke="#64748b" d="M596.62,-235.52C586.95,-234.31 577.29,-233.12 568,-232 405.09,-212.36 210.24,-191.23 131.55,-182.79"/>
<polygon fill="#64748b" stroke="#64748b" points="132.14,-180.39 124.92,-182.08 131.62,-185.26 132.14,-180.39"/>
</g>
<!-- n16 -->
<g id="node17" class="node">
<title>n16</title>
<g id="a_node17"><a xlink:href="https://github.com/statopia/statlib/blob/main/Statlib/Nonparametric/Approximation/Sieve.lean#L269" xlink:title="theorem · Statlib/Nonparametric/Approximation/Sieve.lean:269" target="_blank">
<path fill="#ffe6a3" stroke="#d4a017" d="M1114.67,-340C1114.67,-340 875.33,-340 875.33,-340 869.33,-340 863.33,-334 863.33,-328 863.33,-328 863.33,-316 863.33,-316 863.33,-310 869.33,-304 875.33,-304 875.33,-304 1114.67,-304 1114.67,-304 1120.67,-304 1126.67,-310 1126.67,-316 1126.67,-316 1126.67,-328 1126.67,-328 1126.67,-334 1120.67,-340 1114.67,-340"/>
<text xml:space="preserve" text-anchor="middle" x="995" y="-319" font-family="Helvetica,sans-Serif" font-size="10.00">sieveApproximationError_le_of_exists_pointwise_series</text>
</a>
</g>
</g>
<!-- n16&#45;&gt;n4 -->
<g id="edge21" class="edge">
<title>n16&#45;&gt;n4</title>
<path fill="none" stroke="#64748b" d="M901.38,-303.59C876.92,-295.72 851.87,-284.37 832,-268 817.87,-256.36 824.91,-244.98 812,-232 788.98,-208.86 773.11,-216.84 748,-196 697.95,-154.46 652.12,-92.68 628.92,-59"/>
<polygon fill="#64748b" stroke="#64748b" points="631.14,-57.91 625.17,-53.51 627.1,-60.68 631.14,-57.91"/>
</g>
<!-- n16&#45;&gt;n5 -->
<g id="edge22" class="edge">
<title>n16&#45;&gt;n5</title>
<path fill="none" stroke="#64748b" d="M1064.21,-303.59C1083.46,-295.64 1102.71,-284.24 1116,-268 1120.3,-262.75 1137.47,-176.75 1146.06,-132.65"/>
<polygon fill="#64748b" stroke="#64748b" points="1148.44,-133.25 1147.37,-125.91 1143.63,-132.31 1148.44,-133.25"/>
</g>
<!-- n16&#45;&gt;n14 -->
<g id="edge23" class="edge">
<title>n16&#45;&gt;n14</title>
<path fill="none" stroke="#64748b" d="M989.81,-303.7C987.32,-295.39 984.28,-285.28 981.54,-276.14"/>
<polygon fill="#64748b" stroke="#64748b" points="983.92,-275.55 979.57,-269.55 979.23,-276.96 983.92,-275.55"/>
</g>
<!-- n16&#45;&gt;n15 -->
<g id="edge24" class="edge">
<title>n16&#45;&gt;n15</title>
<path fill="none" stroke="#64748b" d="M921.32,-303.52C878.83,-293.43 825.32,-280.74 781.56,-270.35"/>
<polygon fill="#64748b" stroke="#64748b" points="782.36,-268.02 774.98,-268.79 781.23,-272.79 782.36,-268.02"/>
</g>
<!-- n17 -->
<g id="node18" class="node">
<title>n17</title>
<g id="a_node18"><a xlink:href="https://github.com/statopia/statlib/blob/main/Statlib/Nonparametric/Approximation/Sieve.lean#L285" xlink:title="theorem · Statlib/Nonparametric/Approximation/Sieve.lean:285" target="_blank">
<path fill="#ffe6a3" stroke="#d4a017" d="M1115.14,-412C1115.14,-412 816.86,-412 816.86,-412 810.86,-412 804.86,-406 804.86,-400 804.86,-400 804.86,-388 804.86,-388 804.86,-382 810.86,-376 816.86,-376 816.86,-376 1115.14,-376 1115.14,-376 1121.14,-376 1127.14,-382 1127.14,-388 1127.14,-388 1127.14,-400 1127.14,-400 1127.14,-406 1121.14,-412 1115.14,-412"/>
<text xml:space="preserve" text-anchor="middle" x="966" y="-391" font-family="Helvetica,sans-Serif" font-size="10.00">sieveApproximationError_uniform_bound_of_exists_pointwise_series</text>
</a>
</g>
</g>
<!-- n17&#45;&gt;n4 -->
<g id="edge25" class="edge">
<title>n17&#45;&gt;n4</title>
<path fill="none" stroke="#64748b" d="M927.63,-375.51C905.89,-365.43 878.25,-352.34 854,-340 824.22,-324.85 819.51,-315.1 788,-304 702.81,-273.99 645.93,-337.29 588,-268 537.8,-207.96 577.16,-106.58 599.83,-59.9"/>
<polygon fill="#64748b" stroke="#64748b" points="601.98,-61.08 602.9,-53.72 597.59,-58.9 601.98,-61.08"/>
</g>
<!-- n17&#45;&gt;n5 -->
<g id="edge26" class="edge">
<title>n17&#45;&gt;n5</title>
<path fill="none" stroke="#64748b" d="M1086.22,-375.61C1105.45,-367.67 1123.2,-356.28 1136,-340 1160.81,-308.46 1156.22,-186.35 1152.86,-132.62"/>
<polygon fill="#64748b" stroke="#64748b" points="1155.32,-132.65 1152.42,-125.82 1150.43,-132.97 1155.32,-132.65"/>
</g>
<!-- n17&#45;&gt;n16 -->
<g id="edge27" class="edge">
<title>n17&#45;&gt;n16</title>
<path fill="none" stroke="#64748b" d="M973.17,-375.7C976.65,-367.3 980.89,-357.07 984.7,-347.86"/>
<polygon fill="#64748b" stroke="#64748b" points="986.92,-348.91 987.33,-341.5 982.39,-347.03 986.92,-348.91"/>
</g>
<!-- n18 -->
<g id="node19" class="node">
<title>n18</title>
<g id="a_node19"><a xlink:href="https://github.com/statopia/statlib/blob/main/Statlib/Nonparametric/Approximation/Sieve.lean#L405" xlink:title="theorem · Statlib/Nonparametric/Approximation/Sieve.lean:405" target="_blank">
<path fill="#ffe6a3" stroke="#d4a017" d="M394.89,-268C394.89,-268 201.11,-268 201.11,-268 195.11,-268 189.11,-262 189.11,-256 189.11,-256 189.11,-244 189.11,-244 189.11,-238 195.11,-232 201.11,-232 201.11,-232 394.89,-232 394.89,-232 400.89,-232 406.89,-238 406.89,-244 406.89,-244 406.89,-256 406.89,-256 406.89,-262 400.89,-268 394.89,-268"/>
<text xml:space="preserve" text-anchor="middle" x="298" y="-247" font-family="Helvetica,sans-Serif" font-size="10.00">selectorIndicator_seriesFunction_measurable</text>
</a>
</g>
</g>
<!-- n18&#45;&gt;n4 -->
<g id="edge28" class="edge">
<title>n18&#45;&gt;n4</title>
<path fill="none" stroke="#64748b" d="M306.33,-231.71C323.18,-198.58 364.59,-126.09 421,-88 464.17,-58.85 523,-45.66 564.13,-39.73"/>
<polygon fill="#64748b" stroke="#64748b" points="564.26,-42.19 570.87,-38.81 563.6,-37.33 564.26,-42.19"/>
</g>
<!-- n18&#45;&gt;n9 -->
<g id="edge29" class="edge">
<title>n18&#45;&gt;n9</title>
<path fill="none" stroke="#64748b" d="M247.55,-231.52C211.35,-218.97 163.48,-202.39 131.32,-191.24"/>
<polygon fill="#64748b" stroke="#64748b" points="132.34,-189 124.92,-189.02 130.73,-193.63 132.34,-189"/>
</g>
<!-- n19 -->
<g id="node20" class="node">
<title>n19</title>
<g id="a_node20"><a xlink:href="https://github.com/statopia/statlib/blob/main/Statlib/Nonparametric/Approximation/Sieve.lean#L422" xlink:title="theorem · Statlib/Nonparametric/Approximation/Sieve.lean:422" target="_blank">
<path fill="#ffe6a3" stroke="#d4a017" d="M733.39,-340C733.39,-340 514.61,-340 514.61,-340 508.61,-340 502.61,-334 502.61,-328 502.61,-328 502.61,-316 502.61,-316 502.61,-310 508.61,-304 514.61,-304 514.61,-304 733.39,-304 733.39,-304 739.39,-304 745.39,-310 745.39,-316 745.39,-316 745.39,-328 745.39,-328 745.39,-334 739.39,-340 733.39,-340"/>
<text xml:space="preserve" text-anchor="middle" x="624" y="-319" font-family="Helvetica,sans-Serif" font-size="10.00">selectorIndicatorSieve_seriesFunction_measurable</text>
</a>
</g>
</g>
<!-- n19&#45;&gt;n4 -->
<g id="edge30" class="edge">
<title>n19&#45;&gt;n4</title>
<path fill="none" stroke="#64748b" d="M521.54,-303.52C483.72,-294.8 447.28,-282.9 436,-268 376.98,-190.04 506.78,-97.59 574.82,-56.51"/>
<polygon fill="#64748b" stroke="#64748b" points="575.94,-58.7 580.7,-53.01 573.43,-54.49 575.94,-58.7"/>
</g>
<!-- n19&#45;&gt;n6 -->
<g id="edge31" class="edge">
<title>n19&#45;&gt;n6</title>
<path fill="none" stroke="#64748b" d="M593.53,-303.52C577.1,-294.09 556.7,-282.38 539.32,-272.41"/>
<polygon fill="#64748b" stroke="#64748b" points="540.69,-270.37 533.4,-269.01 538.25,-274.62 540.69,-270.37"/>
</g>
<!-- n19&#45;&gt;n18 -->
<g id="edge32" class="edge">
<title>n19&#45;&gt;n18</title>
<path fill="none" stroke="#64748b" d="M542.58,-303.52C495.42,-293.39 436,-280.63 387.53,-270.22"/>
<polygon fill="#64748b" stroke="#64748b" points="388.07,-267.83 380.71,-268.76 387.04,-272.63 388.07,-267.83"/>
</g>
<!-- n20 -->
<g id="node21" class="node">
<title>n20</title>
<g id="a_node21"><a xlink:href="https://github.com/statopia/statlib/blob/main/Statlib/Nonparametric/Approximation/Sieve.lean#L428" xlink:title="theorem · Statlib/Nonparametric/Approximation/Sieve.lean:428" target="_blank">
<path fill="#ffe6a3" stroke="#d4a017" d="M472.83,-340C472.83,-340 295.17,-340 295.17,-340 289.17,-340 283.17,-334 283.17,-328 283.17,-328 283.17,-316 283.17,-316 283.17,-310 289.17,-304 295.17,-304 295.17,-304 472.83,-304 472.83,-304 478.83,-304 484.83,-310 484.83,-316 484.83,-316 484.83,-328 484.83,-328 484.83,-334 478.83,-340 472.83,-340"/>
<text xml:space="preserve" text-anchor="middle" x="384" y="-319" font-family="Helvetica,sans-Serif" font-size="10.00">selectorIndicatorSieve_seriesFunction_eq</text>
</a>
</g>
</g>
<!-- n20&#45;&gt;n4 -->
<g id="edge33" class="edge">
<title>n20&#45;&gt;n4</title>
<path fill="none" stroke="#64748b" d="M282.7,-306.51C238.34,-297.89 193.32,-285.22 180,-268 170.21,-255.34 172.74,-246.26 180,-232 253.19,-88.26 466.73,-49.18 563.87,-38.73"/>
<polygon fill="#64748b" stroke="#64748b" points="563.84,-41.2 570.55,-38.04 563.34,-36.32 563.84,-41.2"/>
</g>
<!-- n20&#45;&gt;n6 -->
<g id="edge34" class="edge">
<title>n20&#45;&gt;n6</title>
<path fill="none" stroke="#64748b" d="M413.47,-303.52C429.36,-294.09 449.1,-282.38 465.9,-272.41"/>
<polygon fill="#64748b" stroke="#64748b" points="466.83,-274.71 471.6,-269.03 464.33,-270.5 466.83,-274.71"/>
</g>
<!-- n21 -->
<g id="node22" class="node">
<title>n21</title>
<g id="a_node22"><a xlink:href="https://github.com/statopia/statlib/blob/main/Statlib/Nonparametric/Approximation/Holder.lean#L116" xlink:title="theorem · Statlib/Nonparametric/Approximation/Holder.lean:116" target="_blank">
<path fill="#ffe6a3" stroke="#d4a017" d="M498.79,-412C498.79,-412 287.21,-412 287.21,-412 281.21,-412 275.21,-406 275.21,-400 275.21,-400 275.21,-388 275.21,-388 275.21,-382 281.21,-376 287.21,-376 287.21,-376 498.79,-376 498.79,-376 504.79,-376 510.79,-382 510.79,-388 510.79,-388 510.79,-400 510.79,-400 510.79,-406 504.79,-412 498.79,-412"/>
<text xml:space="preserve" text-anchor="middle" x="393" y="-391" font-family="Helvetica,sans-Serif" font-size="10.00">holder_selectorIndicator_series_pointwise_bound</text>
</a>
</g>
</g>
<!-- n21&#45;&gt;n1 -->
<g id="edge35" class="edge">
<title>n21&#45;&gt;n1</title>
<path fill="none" stroke="#64748b" d="M344.55,-375.52C316.75,-365.49 281.78,-352.87 253.08,-342.51"/>
<polygon fill="#64748b" stroke="#64748b" points="254.01,-340.24 246.59,-340.17 252.35,-344.85 254.01,-340.24"/>
</g>
<!-- n21&#45;&gt;n4 -->
<g id="edge36" class="edge">
<title>n21&#45;&gt;n4</title>
<path fill="none" stroke="#64748b" d="M334.4,-375.57C313.58,-367.27 291.1,-355.65 274,-340 260.5,-327.64 267.59,-316.26 254,-304 223.85,-276.78 192.36,-301.91 170,-268 142.44,-226.21 172.71,-200.6 202,-160 229.79,-121.47 238.2,-108.61 281,-88 373.92,-43.26 496.73,-35.03 563.91,-34.23"/>
<polygon fill="#64748b" stroke="#64748b" points="563.72,-36.68 570.7,-34.17 563.68,-31.78 563.72,-36.68"/>
</g>
<!-- n21&#45;&gt;n6 -->
<g id="edge37" class="edge">
<title>n21&#45;&gt;n6</title>
<path fill="none" stroke="#64748b" d="M510.98,-391.77C603.94,-388.01 722.89,-376.01 754,-340 801.59,-284.91 688.46,-293.29 573,-268 571.19,-267.6 569.35,-267.2 567.5,-266.78"/>
<polygon fill="#64748b" stroke="#64748b" points="568.15,-264.42 560.78,-265.26 567.07,-269.2 568.15,-264.42"/>
</g>
<!-- n21&#45;&gt;n20 -->
<g id="edge38" class="edge">
<title>n21&#45;&gt;n20</title>
<path fill="none" stroke="#64748b" d="M390.78,-375.7C389.72,-367.47 388.43,-357.48 387.27,-348.42"/>
<polygon fill="#64748b" stroke="#64748b" points="389.71,-348.24 386.39,-341.61 384.85,-348.86 389.71,-348.24"/>
</g>
<!-- n22 -->
<g id="node23" class="node">
<title>n22</title>
<g id="a_node23"><a xlink:href="https://github.com/statopia/statlib/blob/main/Statlib/Nonparametric/Approximation/Holder.lean#L271" xlink:title="theorem · Statlib/Nonparametric/Approximation/Holder.lean:271" target="_blank">
<path fill="#ffe6a3" stroke="#d4a017" d="M755.36,-484C755.36,-484 452.64,-484 452.64,-484 446.64,-484 440.64,-478 440.64,-472 440.64,-472 440.64,-460 440.64,-460 440.64,-454 446.64,-448 452.64,-448 452.64,-448 755.36,-448 755.36,-448 761.36,-448 767.36,-454 767.36,-460 767.36,-460 767.36,-472 767.36,-472 767.36,-478 761.36,-484 755.36,-484"/>
<text xml:space="preserve" text-anchor="middle" x="604" y="-463" font-family="Helvetica,sans-Serif" font-size="10.00">holderBall_selectorIndicator_sieveApproximationError_uniform_bound</text>
</a>
</g>
</g>
<!-- n22&#45;&gt;n2 -->
<g id="edge39" class="edge">
<title>n22&#45;&gt;n2</title>
<path fill="none" stroke="#64748b" d="M440.54,-447.95C384.52,-439.85 321.89,-428.27 266,-412 265.73,-411.92 265.47,-411.84 265.2,-411.76"/>
<polygon fill="#64748b" stroke="#64748b" points="266.23,-409.53 258.82,-409.61 264.66,-414.17 266.23,-409.53"/>
</g>
<!-- n22&#45;&gt;n5 -->
<g id="edge40" class="edge">
<title>n22&#45;&gt;n5</title>
<path fill="none" stroke="#64748b" d="M767.82,-458.59C914.1,-451.28 1109.32,-436.98 1136,-412 1177.07,-373.55 1164.73,-216.05 1160,-160 1159.24,-150.93 1157.75,-141.08 1156.2,-132.36"/>
<polygon fill="#64748b" stroke="#64748b" points="1158.63,-132.01 1154.93,-125.58 1153.81,-132.91 1158.63,-132.01"/>
</g>
<!-- n22&#45;&gt;n6 -->
<g id="edge41" class="edge">
<title>n22&#45;&gt;n6</title>
<path fill="none" stroke="#64748b" d="M645.31,-447.59C707.11,-419.13 811.64,-360.2 765,-304 737.28,-270.6 615.45,-277.06 573,-268 571.24,-267.62 569.45,-267.24 567.65,-266.84"/>
<polygon fill="#64748b" stroke="#64748b" points="568.52,-264.53 561.16,-265.39 567.46,-269.31 568.52,-264.53"/>
</g>
<!-- n22&#45;&gt;n17 -->
<g id="edge42" class="edge">
<title>n22&#45;&gt;n17</title>
<path fill="none" stroke="#64748b" d="M694.41,-447.52C747.1,-437.33 813.58,-424.47 867.58,-414.03"/>
<polygon fill="#64748b" stroke="#64748b" points="867.9,-416.46 874.31,-412.73 866.97,-411.65 867.9,-416.46"/>
</g>
<!-- n22&#45;&gt;n19 -->
<g id="edge43" class="edge">
<title>n22&#45;&gt;n19</title>
<path fill="none" stroke="#64748b" d="M606.45,-447.59C609.95,-422.76 616.39,-377.01 620.42,-348.4"/>
<polygon fill="#64748b" stroke="#64748b" points="622.83,-348.88 621.38,-341.61 617.98,-348.2 622.83,-348.88"/>
</g>
<!-- n22&#45;&gt;n21 -->
<g id="edge44" class="edge">
<title>n22&#45;&gt;n21</title>
<path fill="none" stroke="#64748b" d="M551.3,-447.52C521.48,-437.62 484.08,-425.22 453.12,-414.94"/>
<polygon fill="#64748b" stroke="#64748b" points="454.25,-412.74 446.83,-412.86 452.7,-417.39 454.25,-412.74"/>
</g>
<!-- n23 -->
<g id="node24" class="node">
<title>n23</title>
<g id="a_node24"><a xlink:href="https://github.com/statopia/statlib/blob/main/Statlib/Nonparametric/Approximation/Holder.lean#L299" xlink:title="theorem · Statlib/Nonparametric/Approximation/Holder.lean:299" target="_blank">
<path fill="#ffe6a3" stroke="#d4a017" d="M816.41,-556C816.41,-556 567.59,-556 567.59,-556 561.59,-556 555.59,-550 555.59,-544 555.59,-544 555.59,-532 555.59,-532 555.59,-526 561.59,-520 567.59,-520 567.59,-520 816.41,-520 816.41,-520 822.41,-520 828.41,-526 828.41,-532 828.41,-532 828.41,-544 828.41,-544 828.41,-550 822.41,-556 816.41,-556"/>
<text xml:space="preserve" text-anchor="middle" x="692" y="-535" font-family="Helvetica,sans-Serif" font-size="10.00">exists_selectorIndicatorSieve_for_holderBall_of_finite_net</text>
</a>
</g>
</g>
<!-- n23&#45;&gt;n2 -->
<g id="edge45" class="edge">
<title>n23&#45;&gt;n2</title>
<path fill="none" stroke="#64748b" d="M580.32,-519.51C533.89,-510.88 479.78,-499.05 432,-484 355.3,-459.84 339.75,-444.07 266,-412 265.75,-411.89 265.49,-411.78 265.24,-411.67"/>
<polygon fill="#64748b" stroke="#64748b" points="266.44,-409.52 259.04,-408.97 264.48,-414.01 266.44,-409.52"/>
</g>
<!-- n23&#45;&gt;n5 -->
<g id="edge46" class="edge">
<title>n23&#45;&gt;n5</title>
<path fill="none" stroke="#64748b" d="M805.09,-519.5C924.58,-498.76 1102.26,-460.78 1150,-412 1224.66,-335.72 1182.36,-190.45 1161,-132.14"/>
<polygon fill="#64748b" stroke="#64748b" points="1163.3,-131.3 1158.55,-125.61 1158.72,-133.02 1163.3,-131.3"/>
</g>
<!-- n23&#45;&gt;n6 -->
<g id="edge47" class="edge">
<title>n23&#45;&gt;n6</title>
<path fill="none" stroke="#64748b" d="M736.96,-519.5C752.15,-511.17 767.42,-499.55 776,-484 795.32,-448.97 801.7,-334.65 776,-304 746.57,-268.89 617.85,-277.34 573,-268 571.24,-267.63 569.45,-267.25 567.65,-266.87"/>
<polygon fill="#64748b" stroke="#64748b" points="568.51,-264.55 561.15,-265.44 567.46,-269.33 568.51,-264.55"/>
</g>
<!-- n23&#45;&gt;n22 -->
<g id="edge48" class="edge">
<title>n23&#45;&gt;n22</title>
<path fill="none" stroke="#64748b" d="M670.25,-519.7C658.82,-510.61 644.69,-499.36 632.41,-489.6"/>
<polygon fill="#64748b" stroke="#64748b" points="634,-487.73 626.99,-485.29 630.95,-491.56 634,-487.73"/>
</g>
<!-- n24 -->
<g id="node25" class="node">
<title>n24</title>
<g id="a_node25"><a xlink:href="https://github.com/statopia/statlib/blob/main/Statlib/Nonparametric/Approximation/Holder.lean#L319" xlink:title="theorem · Statlib/Nonparametric/Approximation/Holder.lean:319" target="_blank">
<path fill="#ffe6a3" stroke="#d4a017" d="M575.59,-628C575.59,-628 258.41,-628 258.41,-628 252.41,-628 246.41,-622 246.41,-616 246.41,-616 246.41,-604 246.41,-604 246.41,-598 252.41,-592 258.41,-592 258.41,-592 575.59,-592 575.59,-592 581.59,-592 587.59,-598 587.59,-604 587.59,-604 587.59,-616 587.59,-616 587.59,-622 581.59,-628 575.59,-628"/>
<text xml:space="preserve" text-anchor="middle" x="417" y="-607" font-family="Helvetica,sans-Serif" font-size="10.00">exists_selectorIndicatorSieve_for_holderBall_of_finite_measurable_cover</text>
</a>
</g>
</g>
<!-- n24&#45;&gt;n2 -->
<g id="edge49" class="edge">
<title>n24&#45;&gt;n2</title>
<path fill="none" stroke="#64748b" d="M338.73,-591.55C318.25,-583.66 297.79,-572.3 283,-556 249.44,-519.02 269.6,-494.73 252,-448 248.49,-438.67 244,-428.72 239.8,-419.98"/>
<polygon fill="#64748b" stroke="#64748b" points="242.01,-418.92 236.72,-413.72 237.61,-421.08 242.01,-418.92"/>
</g>
<!-- n24&#45;&gt;n5 -->
<g id="edge50" class="edge">
<title>n24&#45;&gt;n5</title>
<path fill="none" stroke="#64748b" d="M587.91,-596.09C664.76,-588.08 756.17,-575.47 837,-556 928.44,-533.98 950.31,-522.77 1036,-484 1130.81,-441.11 1206,-427.06 1206,-323 1206,-323 1206,-323 1206,-249 1206,-205.26 1183.03,-158.75 1166.78,-131.31"/>
<polygon fill="#64748b" stroke="#64748b" points="1168.91,-130.11 1163.18,-125.39 1164.72,-132.65 1168.91,-130.11"/>
</g>
<!-- n24&#45;&gt;n6 -->
<g id="edge51" class="edge">
<title>n24&#45;&gt;n6</title>
<path fill="none" stroke="#64748b" d="M322.55,-591.61C299.92,-583.77 277.33,-572.43 260,-556 222.51,-520.45 249.96,-487.78 217,-448 153.83,-371.75 -19.53,-377.34 47,-304 74.68,-273.49 375.24,-274 416,-268 422.6,-267.03 429.46,-265.89 436.31,-264.67"/>
<polygon fill="#64748b" stroke="#64748b" points="436.37,-267.15 442.82,-263.48 435.49,-262.33 436.37,-267.15"/>
</g>
<!-- n24&#45;&gt;n11 -->
<g id="edge52" class="edge">
<title>n24&#45;&gt;n11</title>
<path fill="none" stroke="#64748b" d="M416.51,-591.7C416.27,-583.47 415.99,-573.48 415.73,-564.42"/>
<polygon fill="#64748b" stroke="#64748b" points="418.18,-564.54 415.53,-557.62 413.28,-564.68 418.18,-564.54"/>
</g>
<!-- n24&#45;&gt;n23 -->
<g id="edge53" class="edge">
<title>n24&#45;&gt;n23</title>
<path fill="none" stroke="#64748b" d="M485.68,-591.52C525.21,-581.46 574.95,-568.79 615.69,-558.42"/>
<polygon fill="#64748b" stroke="#64748b" points="616.07,-560.86 622.25,-556.76 614.86,-556.11 616.07,-560.86"/>
</g>
<!-- n25 -->
<g id="node26" class="node">
<title>n25</title>
<g id="a_node26"><a xlink:href="https://github.com/statopia/statlib/blob/main/Statlib/Nonparametric/Approximation/Holder.lean#L744" xlink:title="theorem · Statlib/Nonparametric/Approximation/Holder.lean:744" target="_blank">
<path fill="#ffe6a3" stroke="#d4a017" stroke-width="3" d="M532.52,-700C532.52,-700 301.48,-700 301.48,-700 295.48,-700 289.48,-694 289.48,-688 289.48,-688 289.48,-676 289.48,-676 289.48,-670 295.48,-664 301.48,-664 301.48,-664 532.52,-664 532.52,-664 538.52,-664 544.52,-670 544.52,-676 544.52,-676 544.52,-688 544.52,-688 544.52,-694 538.52,-700 532.52,-700"/>
<text xml:space="preserve" text-anchor="middle" x="417" y="-679" font-family="Helvetica,sans-Serif" font-size="10.00">unitCube_selectorIndicatorSieve_holderBall_grid_rate</text>
</a>
</g>
</g>
<!-- n25&#45;&gt;n2 -->
<g id="edge54" class="edge">
<title>n25&#45;&gt;n2</title>
<path fill="none" stroke="#64748b" d="M288.16,-664.56C268.35,-656.49 250.14,-644.81 237,-628 212.31,-596.43 219.83,-474.34 224.5,-420.62"/>
<polygon fill="#64748b" stroke="#64748b" points="226.93,-421.01 225.12,-413.81 222.05,-420.57 226.93,-421.01"/>
</g>
<!-- n25&#45;&gt;n5 -->
<g id="edge55" class="edge">
<title>n25&#45;&gt;n5</title>
<path fill="none" stroke="#64748b" d="M545.64,-671.46C773.9,-652.8 1226,-607.22 1226,-539 1226,-539 1226,-539 1226,-249 1226,-202.99 1194.84,-157.3 1172.69,-130.63"/>
<polygon fill="#64748b" stroke="#64748b" points="1174.66,-129.16 1168.25,-125.42 1170.93,-132.34 1174.66,-129.16"/>
</g>
<!-- n25&#45;&gt;n6 -->
<g id="edge56" class="edge">
<title>n25&#45;&gt;n6</title>
<path fill="none" stroke="#64748b" d="M545.75,-676.91C716.5,-663.58 1010.85,-611.18 1136,-412 1184.06,-335.52 1037.55,-399.44 854,-340 822.21,-329.71 819.51,-315.1 788,-304 702.81,-273.99 676.75,-284.76 588,-268 581.34,-266.74 574.39,-265.41 567.45,-264.06"/>
<polygon fill="#64748b" stroke="#64748b" points="568.16,-261.7 560.82,-262.77 567.22,-266.51 568.16,-261.7"/>
</g>
<!-- n25&#45;&gt;n10 -->
<g id="edge57" class="edge">
<title>n25&#45;&gt;n10</title>
<path fill="none" stroke="#64748b" d="M296.85,-662.55C270.59,-654.77 244.08,-643.71 222,-628 172.38,-592.7 138.18,-527.51 122.23,-491.87"/>
<polygon fill="#64748b" stroke="#64748b" points="124.58,-491.13 119.53,-485.7 120.09,-493.09 124.58,-491.13"/>
</g>
<!-- n25&#45;&gt;n24 -->
<g id="edge58" class="edge">
<title>n25&#45;&gt;n24</title>
<path fill="none" stroke="#64748b" d="M417,-662.61C417,-654.59 417,-645.05 417,-636.37"/>
<polygon fill="#64748b" stroke="#64748b" points="419.45,-636.58 417,-629.58 414.55,-636.58 419.45,-636.58"/>
</g>
</g>
</svg>
