<?xml version="1.0" encoding="UTF-8" standalone="no"?>
<!DOCTYPE svg PUBLIC "-//W3C//DTD SVG 1.1//EN"
 "http://www.w3.org/Graphics/SVG/1.1/DTD/svg11.dtd">
<!-- Generated by graphviz version 15.0.0 (20260523.1842)
 -->
<!-- Title: waveletSieve_holderSmoothBall_error_bound_of_has_pointwise_rate_and_exact_basisCount Pages: 1 -->
<svg width="1432pt" height="914pt"
 viewBox="0.00 0.00 1432.00 914.00" xmlns="http://www.w3.org/2000/svg" xmlns:xlink="http://www.w3.org/1999/xlink">
<g id="graph0" class="graph" transform="scale(1 1) rotate(0) translate(4 910)">
<title>waveletSieve_holderSmoothBall_error_bound_of_has_pointwise_rate_and_exact_basisCount</title>
<polygon fill="white" stroke="none" points="-4,4 -4,-910 1428,-910 1428,4 -4,4"/>
<text xml:space="preserve" text-anchor="middle" x="712" y="-889.4" font-family="Helvetica,sans-Serif" font-size="14.00">Proof narrative — waveletSieve_holderSmoothBall_error_bound_of_has_pointwise_rate_and_exact_basisCount &#160;(30 decls)</text>
<g id="clust1" class="cluster">
<title>cluster_0</title>
<path fill="none" stroke="#cbd5e1" stroke-dasharray="5,2" d="M20,-8C20,-8 1404,-8 1404,-8 1410,-8 1416,-14 1416,-20 1416,-20 1416,-861.2 1416,-861.2 1416,-867.2 1410,-873.2 1404,-873.2 1404,-873.2 20,-873.2 20,-873.2 14,-873.2 8,-867.2 8,-861.2 8,-861.2 8,-20 8,-20 8,-14 14,-8 20,-8"/>
<text xml:space="preserve" text-anchor="middle" x="712" y="-859.3" font-family="Helvetica,sans-Serif" font-size="11.00">Nonparametric</text>
</g>
<!-- n0 -->
<g id="node1" class="node">
<title>n0</title>
<g id="a_node1"><a xlink:href="https://github.com/statopia/statlib/blob/main/Statlib/Nonparametric/Vocabulary/Wavelet.lean#L14" xlink:title="structure · Statlib/Nonparametric/Vocabulary/Wavelet.lean:14" target="_blank">
<path fill="#e8dcff" stroke="#8b5cf6" d="M1146.73,-268C1146.73,-268 1085.27,-268 1085.27,-268 1079.27,-268 1073.27,-262 1073.27,-256 1073.27,-256 1073.27,-244 1073.27,-244 1073.27,-238 1079.27,-232 1085.27,-232 1085.27,-232 1146.73,-232 1146.73,-232 1152.73,-232 1158.73,-238 1158.73,-244 1158.73,-244 1158.73,-256 1158.73,-256 1158.73,-262 1152.73,-268 1146.73,-268"/>
<text xml:space="preserve" text-anchor="middle" x="1116" y="-247" font-family="Helvetica,sans-Serif" font-size="10.00">WaveletSystem</text>
</a>
</g>
</g>
<!-- n1 -->
<g id="node2" class="node">
<title>n1</title>
<g id="a_node2"><a xlink:href="https://github.com/statopia/statlib/blob/main/Statlib/Nonparametric/Vocabulary/Wavelet.lean#L30" xlink:title="def · Statlib/Nonparametric/Vocabulary/Wavelet.lean:30" target="_blank">
<path fill="#d6e9ff" stroke="#3b82f6" d="M1355.75,-340C1355.75,-340 1234.25,-340 1234.25,-340 1228.25,-340 1222.25,-334 1222.25,-328 1222.25,-328 1222.25,-316 1222.25,-316 1222.25,-310 1228.25,-304 1234.25,-304 1234.25,-304 1355.75,-304 1355.75,-304 1361.75,-304 1367.75,-310 1367.75,-316 1367.75,-316 1367.75,-328 1367.75,-328 1367.75,-334 1361.75,-340 1355.75,-340"/>
<text xml:space="preserve" text-anchor="middle" x="1295" y="-319" font-family="Helvetica,sans-Serif" font-size="10.00">IsMeasurableWaveletSystem</text>
</a>
</g>
</g>
<!-- n1&#45;&gt;n0 -->
<g id="edge1" class="edge">
<title>n1&#45;&gt;n0</title>
<path fill="none" stroke="#64748b" d="M1250.29,-303.52C1224.94,-293.6 1193.13,-281.16 1166.83,-270.88"/>
<polygon fill="#64748b" stroke="#64748b" points="1168.03,-268.72 1160.62,-268.45 1166.25,-273.28 1168.03,-268.72"/>
</g>
<!-- n2 -->
<g id="node3" class="node">
<title>n2</title>
<g id="a_node3"><a xlink:href="https://github.com/statopia/statlib/blob/main/Statlib/Nonparametric/Vocabulary/FunctionClasses.lean#L16" xlink:title="abbrev · Statlib/Nonparametric/Vocabulary/FunctionClasses.lean:16" target="_blank">
<path fill="#d6e9ff" stroke="#3b82f6" d="M143.68,-268C143.68,-268 88.32,-268 88.32,-268 82.32,-268 76.32,-262 76.32,-256 76.32,-256 76.32,-244 76.32,-244 76.32,-238 82.32,-232 88.32,-232 88.32,-232 143.68,-232 143.68,-232 149.68,-232 155.68,-238 155.68,-244 155.68,-244 155.68,-256 155.68,-256 155.68,-262 149.68,-268 143.68,-268"/>
<text xml:space="preserve" text-anchor="middle" x="116" y="-247" font-family="Helvetica,sans-Serif" font-size="10.00">FunctionClass</text>
</a>
</g>
</g>
<!-- n3 -->
<g id="node4" class="node">
<title>n3</title>
<g id="a_node4"><a xlink:href="https://github.com/statopia/statlib/blob/main/Statlib/Nonparametric/Vocabulary/FunctionClasses.lean#L44" xlink:title="def · Statlib/Nonparametric/Vocabulary/FunctionClasses.lean:44" target="_blank">
<path fill="#d6e9ff" stroke="#3b82f6" d="M252.8,-268C252.8,-268 185.2,-268 185.2,-268 179.2,-268 173.2,-262 173.2,-256 173.2,-256 173.2,-244 173.2,-244 173.2,-238 179.2,-232 185.2,-232 185.2,-232 252.8,-232 252.8,-232 258.8,-232 264.8,-238 264.8,-244 264.8,-244 264.8,-256 264.8,-256 264.8,-262 258.8,-268 252.8,-268"/>
<text xml:space="preserve" text-anchor="middle" x="219" y="-247" font-family="Helvetica,sans-Serif" font-size="10.00">IsHolderFunction</text>
</a>
</g>
</g>
<!-- n4 -->
<g id="node5" class="node">
<title>n4</title>
<g id="a_node5"><a xlink:href="https://github.com/statopia/statlib/blob/main/Statlib/Nonparametric/Vocabulary/FunctionClasses.lean#L69" xlink:title="def · Statlib/Nonparametric/Vocabulary/FunctionClasses.lean:69" target="_blank">
<path fill="#d6e9ff" stroke="#3b82f6" d="M308.03,-340C308.03,-340 205.97,-340 205.97,-340 199.97,-340 193.97,-334 193.97,-328 193.97,-328 193.97,-316 193.97,-316 193.97,-310 199.97,-304 205.97,-304 205.97,-304 308.03,-304 308.03,-304 314.03,-304 320.03,-310 320.03,-316 320.03,-316 320.03,-328 320.03,-328 320.03,-334 314.03,-340 308.03,-340"/>
<text xml:space="preserve" text-anchor="middle" x="257" y="-319" font-family="Helvetica,sans-Serif" font-size="10.00">IsHolderSmoothFunction</text>
</a>
</g>
</g>
<!-- n4&#45;&gt;n3 -->
<g id="edge2" class="edge">
<title>n4&#45;&gt;n3</title>
<path fill="none" stroke="#64748b" d="M247.61,-303.7C243.01,-295.22 237.38,-284.86 232.34,-275.58"/>
<polygon fill="#64748b" stroke="#64748b" points="234.5,-274.42 229.01,-269.43 230.19,-276.76 234.5,-274.42"/>
</g>
<!-- n5 -->
<g id="node6" class="node">
<title>n5</title>
<g id="a_node6"><a xlink:href="https://github.com/statopia/statlib/blob/main/Statlib/Nonparametric/Vocabulary/FunctionClasses.lean#L56" xlink:title="def · Statlib/Nonparametric/Vocabulary/FunctionClasses.lean:56" target="_blank">
<path fill="#d6e9ff" stroke="#3b82f6" d="M144.24,-340C144.24,-340 107.76,-340 107.76,-340 101.76,-340 95.76,-334 95.76,-328 95.76,-328 95.76,-316 95.76,-316 95.76,-310 101.76,-304 107.76,-304 107.76,-304 144.24,-304 144.24,-304 150.24,-304 156.24,-310 156.24,-316 156.24,-316 156.24,-328 156.24,-328 156.24,-334 150.24,-340 144.24,-340"/>
<text xml:space="preserve" text-anchor="middle" x="126" y="-319" font-family="Helvetica,sans-Serif" font-size="10.00">holderBall</text>
</a>
</g>
</g>
<!-- n5&#45;&gt;n2 -->
<g id="edge3" class="edge">
<title>n5&#45;&gt;n2</title>
<path fill="none" stroke="#64748b" d="M123.53,-303.7C122.35,-295.47 120.93,-285.48 119.63,-276.42"/>
<polygon fill="#64748b" stroke="#64748b" points="122.07,-276.19 118.66,-269.6 117.22,-276.88 122.07,-276.19"/>
</g>
<!-- n5&#45;&gt;n3 -->
<g id="edge4" class="edge">
<title>n5&#45;&gt;n3</title>
<path fill="none" stroke="#64748b" d="M148.99,-303.7C161.17,-294.53 176.28,-283.16 189.34,-273.33"/>
<polygon fill="#64748b" stroke="#64748b" points="190.62,-275.42 194.74,-269.26 187.68,-271.51 190.62,-275.42"/>
</g>
<!-- n6 -->
<g id="node7" class="node">
<title>n6</title>
<g id="a_node7"><a xlink:href="https://github.com/statopia/statlib/blob/main/Statlib/Nonparametric/Vocabulary/FunctionClasses.lean#L82" xlink:title="def · Statlib/Nonparametric/Vocabulary/FunctionClasses.lean:82" target="_blank">
<path fill="#d6e9ff" stroke="#3b82f6" d="M172.47,-412C172.47,-412 101.53,-412 101.53,-412 95.53,-412 89.53,-406 89.53,-400 89.53,-400 89.53,-388 89.53,-388 89.53,-382 95.53,-376 101.53,-376 101.53,-376 172.47,-376 172.47,-376 178.47,-376 184.47,-382 184.47,-388 184.47,-388 184.47,-400 184.47,-400 184.47,-406 178.47,-412 172.47,-412"/>
<text xml:space="preserve" text-anchor="middle" x="137" y="-391" font-family="Helvetica,sans-Serif" font-size="10.00">holderSmoothBall</text>
</a>
</g>
</g>
<!-- n6&#45;&gt;n2 -->
<g id="edge5" class="edge">
<title>n6&#45;&gt;n2</title>
<path fill="none" stroke="#64748b" d="M114.14,-375.73C103.75,-366.43 92.56,-353.99 87,-340 78.42,-318.4 88.48,-293.16 99.03,-275.08"/>
<polygon fill="#64748b" stroke="#64748b" points="100.83,-276.82 102.42,-269.58 96.66,-274.25 100.83,-276.82"/>
</g>
<!-- n6&#45;&gt;n3 -->
<g id="edge7" class="edge">
<title>n6&#45;&gt;n3</title>
<path fill="none" stroke="#64748b" d="M146.23,-375.51C157.86,-353.55 177.25,-317.16 185,-304 190.55,-294.58 196.95,-284.43 202.69,-275.56"/>
<polygon fill="#64748b" stroke="#64748b" points="204.73,-276.93 206.5,-269.73 200.63,-274.25 204.73,-276.93"/>
</g>
<!-- n6&#45;&gt;n4 -->
<g id="edge6" class="edge">
<title>n6&#45;&gt;n4</title>
<path fill="none" stroke="#64748b" d="M166.97,-375.52C183.13,-366.09 203.2,-354.38 220.29,-344.41"/>
<polygon fill="#64748b" stroke="#64748b" points="221.29,-346.67 226.1,-341.02 218.82,-342.43 221.29,-346.67"/>
</g>
<!-- n6&#45;&gt;n5 -->
<g id="edge8" class="edge">
<title>n6&#45;&gt;n5</title>
<path fill="none" stroke="#64748b" d="M134.28,-375.7C132.99,-367.47 131.42,-357.48 129.99,-348.42"/>
<polygon fill="#64748b" stroke="#64748b" points="132.43,-348.13 128.92,-341.6 127.59,-348.9 132.43,-348.13"/>
</g>
<!-- n7 -->
<g id="node8" class="node">
<title>n7</title>
<g id="a_node8"><a xlink:href="https://github.com/statopia/statlib/blob/main/Statlib/Nonparametric/Vocabulary/Sieve.lean#L27" xlink:title="noncomputable def · Statlib/Nonparametric/Vocabulary/Sieve.lean:27" target="_blank">
<path fill="#d6e9ff" stroke="#3b82f6" d="M970.51,-52C970.51,-52 913.49,-52 913.49,-52 907.49,-52 901.49,-46 901.49,-40 901.49,-40 901.49,-28 901.49,-28 901.49,-22 907.49,-16 913.49,-16 913.49,-16 970.51,-16 970.51,-16 976.51,-16 982.51,-22 982.51,-28 982.51,-28 982.51,-40 982.51,-40 982.51,-46 976.51,-52 970.51,-52"/>
<text xml:space="preserve" text-anchor="middle" x="942" y="-31" font-family="Helvetica,sans-Serif" font-size="10.00">seriesFunction</text>
</a>
</g>
</g>
<!-- n8 -->
<g id="node9" class="node">
<title>n8</title>
<g id="a_node9"><a xlink:href="https://github.com/statopia/statlib/blob/main/Statlib/Nonparametric/Vocabulary/Wavelet.lean#L20" xlink:title="def · Statlib/Nonparametric/Vocabulary/Wavelet.lean:20" target="_blank">
<path fill="#d6e9ff" stroke="#3b82f6" d="M962.46,-340C962.46,-340 911.54,-340 911.54,-340 905.54,-340 899.54,-334 899.54,-328 899.54,-328 899.54,-316 899.54,-316 899.54,-310 905.54,-304 911.54,-304 911.54,-304 962.46,-304 962.46,-304 968.46,-304 974.46,-310 974.46,-316 974.46,-316 974.46,-328 974.46,-328 974.46,-334 968.46,-340 962.46,-340"/>
<text xml:space="preserve" text-anchor="middle" x="937" y="-319" font-family="Helvetica,sans-Serif" font-size="10.00">waveletSieve</text>
</a>
</g>
</g>
<!-- n8&#45;&gt;n0 -->
<g id="edge9" class="edge">
<title>n8&#45;&gt;n0</title>
<path fill="none" stroke="#64748b" d="M974.52,-306.33C1000.87,-296.02 1036.42,-282.12 1065.29,-270.83"/>
<polygon fill="#64748b" stroke="#64748b" points="1065.83,-273.25 1071.45,-268.42 1064.04,-268.69 1065.83,-273.25"/>
</g>
<!-- n9 -->
<g id="node10" class="node">
<title>n9</title>
<g id="a_node10"><a xlink:href="https://github.com/statopia/statlib/blob/main/Statlib/Nonparametric/Approximation/Wavelet.lean#L17" xlink:title="def · Statlib/Nonparametric/Approximation/Wavelet.lean:17" target="_blank">
<path fill="#d6e9ff" stroke="#3b82f6" d="M381.87,-484C381.87,-484 208.13,-484 208.13,-484 202.13,-484 196.13,-478 196.13,-472 196.13,-472 196.13,-460 196.13,-460 196.13,-454 202.13,-448 208.13,-448 208.13,-448 381.87,-448 381.87,-448 387.87,-448 393.87,-454 393.87,-460 393.87,-460 393.87,-472 393.87,-472 393.87,-478 387.87,-484 381.87,-484"/>
<text xml:space="preserve" text-anchor="middle" x="295" y="-463" font-family="Helvetica,sans-Serif" font-size="10.00">HasWaveletHolderSmoothPointwiseRate</text>
</a>
</g>
</g>
<!-- n9&#45;&gt;n0 -->
<g id="edge10" class="edge">
<title>n9&#45;&gt;n0</title>
<path fill="none" stroke="#64748b" d="M393.92,-453.23C501.15,-440.14 658.64,-419.81 670,-412 685.09,-401.63 677.32,-389.2 690,-376 695.32,-370.46 800.81,-306.7 808,-304 854.1,-286.69 989.66,-267.29 1064.65,-257.46"/>
<polygon fill="#64748b" stroke="#64748b" points="1064.91,-259.89 1071.54,-256.56 1064.28,-255.03 1064.91,-259.89"/>
</g>
<!-- n9&#45;&gt;n6 -->
<g id="edge11" class="edge">
<title>n9&#45;&gt;n6</title>
<path fill="none" stroke="#64748b" d="M255.54,-447.52C233.78,-437.88 206.62,-425.84 183.79,-415.73"/>
<polygon fill="#64748b" stroke="#64748b" points="185.01,-413.59 177.62,-412.99 183.02,-418.07 185.01,-413.59"/>
</g>
<!-- n9&#45;&gt;n7 -->
<g id="edge12" class="edge">
<title>n9&#45;&gt;n7</title>
<path fill="none" stroke="#64748b" d="M394.34,-451.58C499.09,-437.24 649.81,-416.04 655,-412 668.68,-401.36 658.72,-389.16 670,-376 690,-352.68 706.27,-360.66 729,-340 743.8,-326.55 739.13,-314.75 756,-304 821.5,-262.26 871.42,-322.24 927,-268 982.96,-213.38 963.1,-108.77 949.91,-60.52"/>
<polygon fill="#64748b" stroke="#64748b" points="952.31,-59.99 948.04,-53.92 947.59,-61.32 952.31,-59.99"/>
</g>
<!-- n9&#45;&gt;n8 -->
<g id="edge13" class="edge">
<title>n9&#45;&gt;n8</title>
<path fill="none" stroke="#64748b" d="M394.13,-454.28C492.35,-443.2 635.73,-425.63 690,-412 734.2,-400.9 743.17,-391.55 786,-376 821.24,-363.21 861.29,-349.18 891.28,-338.77"/>
<polygon fill="#64748b" stroke="#64748b" points="891.83,-341.17 897.64,-336.56 890.22,-336.54 891.83,-341.17"/>
</g>
<!-- n10 -->
<g id="node11" class="node">
<title>n10</title>
<g id="a_node11"><a xlink:href="https://github.com/statopia/statlib/blob/main/Statlib/Nonparametric/Vocabulary/Risk.lean#L60" xlink:title="noncomputable def · Statlib/Nonparametric/Vocabulary/Risk.lean:60" target="_blank">
<path fill="#d6e9ff" stroke="#3b82f6" d="M541.25,-52C541.25,-52 444.75,-52 444.75,-52 438.75,-52 432.75,-46 432.75,-40 432.75,-40 432.75,-28 432.75,-28 432.75,-22 438.75,-16 444.75,-16 444.75,-16 541.25,-16 541.25,-16 547.25,-16 553.25,-22 553.25,-28 553.25,-28 553.25,-40 553.25,-40 553.25,-46 547.25,-52 541.25,-52"/>
<text xml:space="preserve" text-anchor="middle" x="493" y="-31" font-family="Helvetica,sans-Serif" font-size="10.00">integratedSquaredError</text>
</a>
</g>
</g>
<!-- n11 -->
<g id="node12" class="node">
<title>n11</title>
<g id="a_node12"><a xlink:href="https://github.com/statopia/statlib/blob/main/Statlib/Nonparametric/Vocabulary/Sieve.lean#L42" xlink:title="noncomputable def · Statlib/Nonparametric/Vocabulary/Sieve.lean:42" target="_blank">
<path fill="#d6e9ff" stroke="#3b82f6" d="M360.74,-124C360.74,-124 259.26,-124 259.26,-124 253.26,-124 247.26,-118 247.26,-112 247.26,-112 247.26,-100 247.26,-100 247.26,-94 253.26,-88 259.26,-88 259.26,-88 360.74,-88 360.74,-88 366.74,-88 372.74,-94 372.74,-100 372.74,-100 372.74,-112 372.74,-112 372.74,-118 366.74,-124 360.74,-124"/>
<text xml:space="preserve" text-anchor="middle" x="310" y="-103" font-family="Helvetica,sans-Serif" font-size="10.00">sieveApproximationError</text>
</a>
</g>
</g>
<!-- n11&#45;&gt;n7 -->
<g id="edge15" class="edge">
<title>n11&#45;&gt;n7</title>
<path fill="none" stroke="#64748b" d="M373.2,-98C499.31,-84.03 779.8,-52.97 893.11,-40.42"/>
<polygon fill="#64748b" stroke="#64748b" points="893.11,-42.88 899.79,-39.67 892.57,-38.01 893.11,-42.88"/>
</g>
<!-- n11&#45;&gt;n10 -->
<g id="edge14" class="edge">
<title>n11&#45;&gt;n10</title>
<path fill="none" stroke="#64748b" d="M355.71,-87.52C381.24,-77.75 413.18,-65.53 439.83,-55.34"/>
<polygon fill="#64748b" stroke="#64748b" points="440.48,-57.71 446.15,-52.92 438.73,-53.14 440.48,-57.71"/>
</g>
<!-- n12 -->
<g id="node13" class="node">
<title>n12</title>
<g id="a_node13"><a xlink:href="https://github.com/statopia/statlib/blob/main/Statlib/Nonparametric/Vocabulary/Estimator.lean#L28" xlink:title="noncomputable def · Statlib/Nonparametric/Vocabulary/Estimator.lean:28" target="_blank">
<path fill="#d6e9ff" stroke="#3b82f6" d="M72,-52C72,-52 42,-52 42,-52 36,-52 30,-46 30,-40 30,-40 30,-28 30,-28 30,-22 36,-16 42,-16 42,-16 72,-16 72,-16 78,-16 84,-22 84,-28 84,-28 84,-40 84,-40 84,-46 78,-52 72,-52"/>
<text xml:space="preserve" text-anchor="middle" x="57" y="-31" font-family="Helvetica,sans-Serif" font-size="10.00">bias</text>
</a>
</g>
</g>
<!-- n13 -->
<g id="node14" class="node">
<title>n13</title>
<g id="a_node14"><a xlink:href="https://github.com/statopia/statlib/blob/main/Statlib/Nonparametric/Vocabulary/NeuralNetwork.lean#L23" xlink:title="structure · Statlib/Nonparametric/Vocabulary/NeuralNetwork.lean:23" target="_blank">
<path fill="#e8dcff" stroke="#8b5cf6" d="M93.96,-124C93.96,-124 48.04,-124 48.04,-124 42.04,-124 36.04,-118 36.04,-112 36.04,-112 36.04,-100 36.04,-100 36.04,-94 42.04,-88 48.04,-88 48.04,-88 93.96,-88 93.96,-88 99.96,-88 105.96,-94 105.96,-100 105.96,-100 105.96,-112 105.96,-112 105.96,-118 99.96,-124 93.96,-124"/>
<text xml:space="preserve" text-anchor="middle" x="71" y="-103" font-family="Helvetica,sans-Serif" font-size="10.00">DenseLayer</text>
</a>
</g>
</g>
<!-- n13&#45;&gt;n12 -->
<g id="edge16" class="edge">
<title>n13&#45;&gt;n12</title>
<path fill="none" stroke="#64748b" d="M67.54,-87.7C65.89,-79.47 63.9,-69.48 62.08,-60.42"/>
<polygon fill="#64748b" stroke="#64748b" points="64.49,-59.97 60.72,-53.59 59.69,-60.93 64.49,-59.97"/>
</g>
<!-- n14 -->
<g id="node15" class="node">
<title>n14</title>
<g id="a_node15"><a xlink:href="https://github.com/statopia/statlib/blob/main/Statlib/Nonparametric/Vocabulary/NeuralNetwork.lean#L30" xlink:title="noncomputable def · Statlib/Nonparametric/Vocabulary/NeuralNetwork.lean:30" target="_blank">
<path fill="#d6e9ff" stroke="#3b82f6" d="M58,-196C58,-196 28,-196 28,-196 22,-196 16,-190 16,-184 16,-184 16,-172 16,-172 16,-166 22,-160 28,-160 28,-160 58,-160 58,-160 64,-160 70,-166 70,-172 70,-172 70,-184 70,-184 70,-190 64,-196 58,-196"/>
<text xml:space="preserve" text-anchor="middle" x="43" y="-175" font-family="Helvetica,sans-Serif" font-size="10.00">apply</text>
</a>
</g>
</g>
<!-- n14&#45;&gt;n12 -->
<g id="edge18" class="edge">
<title>n14&#45;&gt;n12</title>
<path fill="none" stroke="#64748b" d="M35.49,-159.76C28.65,-141.7 20.52,-112.59 27,-88 29.62,-78.04 34.6,-67.98 39.75,-59.34"/>
<polygon fill="#64748b" stroke="#64748b" points="41.81,-60.67 43.47,-53.44 37.67,-58.06 41.81,-60.67"/>
</g>
<!-- n14&#45;&gt;n13 -->
<g id="edge17" class="edge">
<title>n14&#45;&gt;n13</title>
<path fill="none" stroke="#64748b" d="M49.92,-159.7C53.28,-151.3 57.37,-141.07 61.06,-131.86"/>
<polygon fill="#64748b" stroke="#64748b" points="63.27,-132.92 63.6,-125.51 58.72,-131.1 63.27,-132.92"/>
</g>
<!-- n15 -->
<g id="node16" class="node">
<title>n15</title>
<g id="a_node16"><a xlink:href="https://github.com/statopia/statlib/blob/main/Statlib/Nonparametric/Approximation/Metric.lean#L10" xlink:title="theorem · Statlib/Nonparametric/Approximation/Metric.lean:10" target="_blank">
<path fill="#ffe6a3" stroke="#d4a017" d="M595.19,-196C595.19,-196 390.81,-196 390.81,-196 384.81,-196 378.81,-190 378.81,-184 378.81,-184 378.81,-172 378.81,-172 378.81,-166 384.81,-160 390.81,-160 390.81,-160 595.19,-160 595.19,-160 601.19,-160 607.19,-166 607.19,-172 607.19,-172 607.19,-184 607.19,-184 607.19,-190 601.19,-196 595.19,-196"/>
<text xml:space="preserve" text-anchor="middle" x="493" y="-175" font-family="Helvetica,sans-Serif" font-size="10.00">integratedSquaredError_le_of_pointwise_bound</text>
</a>
</g>
</g>
<!-- n15&#45;&gt;n10 -->
<g id="edge19" class="edge">
<title>n15&#45;&gt;n10</title>
<path fill="none" stroke="#64748b" d="M493,-159.59C493,-134.76 493,-89.01 493,-60.4"/>
<polygon fill="#64748b" stroke="#64748b" points="495.45,-60.62 493,-53.62 490.55,-60.62 495.45,-60.62"/>
</g>
<!-- n16 -->
<g id="node17" class="node">
<title>n16</title>
<g id="a_node17"><a xlink:href="https://github.com/statopia/statlib/blob/main/Statlib/Nonparametric/Approximation/Sieve.lean#L107" xlink:title="theorem · Statlib/Nonparametric/Approximation/Sieve.lean:107" target="_blank">
<path fill="#ffe6a3" stroke="#d4a017" d="M841.16,-196C841.16,-196 656.84,-196 656.84,-196 650.84,-196 644.84,-190 644.84,-184 644.84,-184 644.84,-172 644.84,-172 644.84,-166 650.84,-160 656.84,-160 656.84,-160 841.16,-160 841.16,-160 847.16,-160 853.16,-166 853.16,-172 853.16,-172 853.16,-184 853.16,-184 853.16,-190 847.16,-196 841.16,-196"/>
<text xml:space="preserve" text-anchor="middle" x="749" y="-175" font-family="Helvetica,sans-Serif" font-size="10.00">sieveApproximationError_le_of_coefficients</text>
</a>
</g>
</g>
<!-- n16&#45;&gt;n7 -->
<g id="edge21" class="edge">
<title>n16&#45;&gt;n7</title>
<path fill="none" stroke="#64748b" d="M771.47,-159.73C795.09,-141.64 833.43,-112.51 867,-88 881.04,-77.75 896.72,-66.62 910.1,-57.22"/>
<polygon fill="#64748b" stroke="#64748b" points="911.3,-59.37 915.62,-53.34 908.48,-55.36 911.3,-59.37"/>
</g>
<!-- n16&#45;&gt;n10 -->
<g id="edge20" class="edge">
<title>n16&#45;&gt;n10</title>
<path fill="none" stroke="#64748b" d="M729.72,-159.75C707.27,-140.33 668.47,-108.79 631,-88 607.81,-75.14 580.86,-64.02 556.96,-55.34"/>
<polygon fill="#64748b" stroke="#64748b" points="557.83,-53.05 550.41,-53 556.18,-57.67 557.83,-53.05"/>
</g>
<!-- n16&#45;&gt;n11 -->
<g id="edge22" class="edge">
<title>n16&#45;&gt;n11</title>
<path fill="none" stroke="#64748b" d="M644.41,-160.32C563.09,-147.36 452.47,-129.72 381.14,-118.34"/>
<polygon fill="#64748b" stroke="#64748b" points="381.87,-115.98 374.57,-117.3 381.1,-120.82 381.87,-115.98"/>
</g>
<!-- n17 -->
<g id="node18" class="node">
<title>n17</title>
<g id="a_node18"><a xlink:href="https://github.com/statopia/statlib/blob/main/Statlib/Nonparametric/Approximation/Sieve.lean#L248" xlink:title="theorem · Statlib/Nonparametric/Approximation/Sieve.lean:248" target="_blank">
<path fill="#ffe6a3" stroke="#d4a017" d="M880.79,-268C880.79,-268 639.21,-268 639.21,-268 633.21,-268 627.21,-262 627.21,-256 627.21,-256 627.21,-244 627.21,-244 627.21,-238 633.21,-232 639.21,-232 639.21,-232 880.79,-232 880.79,-232 886.79,-232 892.79,-238 892.79,-244 892.79,-244 892.79,-256 892.79,-256 892.79,-262 886.79,-268 880.79,-268"/>
<text xml:space="preserve" text-anchor="middle" x="760" y="-247" font-family="Helvetica,sans-Serif" font-size="10.00">sieveApproximationError_le_of_pointwise_series_bound</text>
</a>
</g>
</g>
<!-- n17&#45;&gt;n7 -->
<g id="edge23" class="edge">
<title>n17&#45;&gt;n7</title>
<path fill="none" stroke="#64748b" d="M824.27,-231.57C843.56,-223.54 863.22,-212.09 877,-196 909.4,-158.16 886.36,-133.34 907,-88 911.5,-78.12 917.71,-68 923.66,-59.29"/>
<polygon fill="#64748b" stroke="#64748b" points="925.65,-60.71 927.67,-53.58 921.64,-57.89 925.65,-60.71"/>
</g>
<!-- n17&#45;&gt;n10 -->
<g id="edge24" class="edge">
<title>n17&#45;&gt;n10</title>
<path fill="none" stroke="#64748b" d="M697.67,-231.53C676.34,-223.31 653.47,-211.76 636,-196 622.41,-183.74 626.96,-174.66 616,-160 586.62,-120.73 545.52,-81.39 519.07,-57.61"/>
<polygon fill="#64748b" stroke="#64748b" points="520.99,-56.04 514.14,-53.21 517.73,-59.7 520.99,-56.04"/>
</g>
<!-- n17&#45;&gt;n11 -->
<g id="edge25" class="edge">
<title>n17&#45;&gt;n11</title>
<path fill="none" stroke="#64748b" d="M626.79,-233.52C518.24,-220.48 381.1,-202.9 370,-196 368.35,-194.97 343.24,-157.29 326.03,-131.29"/>
<polygon fill="#64748b" stroke="#64748b" points="328.15,-130.06 322.25,-125.57 324.07,-132.76 328.15,-130.06"/>
</g>
<!-- n17&#45;&gt;n15 -->
<g id="edge26" class="edge">
<title>n17&#45;&gt;n15</title>
<path fill="none" stroke="#64748b" d="M693.31,-231.52C654.94,-221.46 606.64,-208.79 567.09,-198.42"/>
<polygon fill="#64748b" stroke="#64748b" points="568.16,-196.17 560.76,-196.77 566.91,-200.91 568.16,-196.17"/>
</g>
<!-- n17&#45;&gt;n16 -->
<g id="edge27" class="edge">
<title>n17&#45;&gt;n16</title>
<path fill="none" stroke="#64748b" d="M757.28,-231.7C755.99,-223.47 754.42,-213.48 752.99,-204.42"/>
<polygon fill="#64748b" stroke="#64748b" points="755.43,-204.13 751.92,-197.6 750.59,-204.9 755.43,-204.13"/>
</g>
<!-- n18 -->
<g id="node19" class="node">
<title>n18</title>
<g id="a_node19"><a xlink:href="https://github.com/statopia/statlib/blob/main/Statlib/Nonparametric/Approximation/Sieve.lean#L121" xlink:title="theorem · Statlib/Nonparametric/Approximation/Sieve.lean:121" target="_blank">
<path fill="#ffe6a3" stroke="#d4a017" d="M557.05,-268C557.05,-268 374.95,-268 374.95,-268 368.95,-268 362.95,-262 362.95,-256 362.95,-256 362.95,-244 362.95,-244 362.95,-238 368.95,-232 374.95,-232 374.95,-232 557.05,-232 557.05,-232 563.05,-232 569.05,-238 569.05,-244 569.05,-244 569.05,-256 569.05,-256 569.05,-262 563.05,-268 557.05,-268"/>
<text xml:space="preserve" text-anchor="middle" x="466" y="-247" font-family="Helvetica,sans-Serif" font-size="10.00">sieveApproximationError_range_bddBelow</text>
</a>
</g>
</g>
<!-- n18&#45;&gt;n7 -->
<g id="edge29" class="edge">
<title>n18&#45;&gt;n7</title>
<path fill="none" stroke="#64748b" d="M569.42,-236.54C684.88,-222.43 856.42,-200.77 862,-196 871.51,-187.86 887.87,-98.91 894,-88 900.07,-77.2 908.7,-66.77 916.97,-58.06"/>
<polygon fill="#64748b" stroke="#64748b" points="918.67,-59.83 921.83,-53.12 915.17,-56.39 918.67,-59.83"/>
</g>
<!-- n18&#45;&gt;n10 -->
<g id="edge28" class="edge">
<title>n18&#45;&gt;n10</title>
<path fill="none" stroke="#64748b" d="M399.16,-231.58C313.95,-206.17 183.8,-154.63 238,-88 261.05,-59.66 356.6,-45.98 423.94,-39.75"/>
<polygon fill="#64748b" stroke="#64748b" points="424.16,-42.19 430.91,-39.12 423.72,-37.31 424.16,-42.19"/>
</g>
<!-- n18&#45;&gt;n14 -->
<g id="edge30" class="edge">
<title>n18&#45;&gt;n14</title>
<path fill="none" stroke="#64748b" d="M362.46,-237.64C267.75,-226.71 134.88,-209.83 84,-196 82.05,-195.47 80.07,-194.87 78.08,-194.22"/>
<polygon fill="#64748b" stroke="#64748b" points="79.3,-192.05 71.88,-192.01 77.65,-196.67 79.3,-192.05"/>
</g>
<!-- n19 -->
<g id="node20" class="node">
<title>n19</title>
<g id="a_node20"><a xlink:href="https://github.com/statopia/statlib/blob/main/Statlib/Nonparametric/Approximation/Sieve.lean#L269" xlink:title="theorem · Statlib/Nonparametric/Approximation/Sieve.lean:269" target="_blank">
<path fill="#ffe6a3" stroke="#d4a017" d="M689.67,-340C689.67,-340 450.33,-340 450.33,-340 444.33,-340 438.33,-334 438.33,-328 438.33,-328 438.33,-316 438.33,-316 438.33,-310 444.33,-304 450.33,-304 450.33,-304 689.67,-304 689.67,-304 695.67,-304 701.67,-310 701.67,-316 701.67,-316 701.67,-328 701.67,-328 701.67,-334 695.67,-340 689.67,-340"/>
<text xml:space="preserve" text-anchor="middle" x="570" y="-319" font-family="Helvetica,sans-Serif" font-size="10.00">sieveApproximationError_le_of_exists_pointwise_series</text>
</a>
</g>
</g>
<!-- n19&#45;&gt;n7 -->
<g id="edge31" class="edge">
<title>n19&#45;&gt;n7</title>
<path fill="none" stroke="#64748b" d="M701.75,-303.62C791.24,-291.23 894.67,-275.48 902,-268 930.26,-239.16 918.7,-127.52 927,-88 928.94,-78.78 931.6,-68.81 934.15,-60.03"/>
<polygon fill="#64748b" stroke="#64748b" points="936.45,-60.9 936.1,-53.49 931.75,-59.5 936.45,-60.9"/>
</g>
<!-- n19&#45;&gt;n11 -->
<g id="edge32" class="edge">
<title>n19&#45;&gt;n11</title>
<path fill="none" stroke="#64748b" d="M582.73,-303.52C595.34,-283.89 610.44,-252.15 593,-232 520.12,-147.78 432.29,-265.18 345,-196 334.69,-187.83 323.72,-155.65 316.87,-132.33"/>
<polygon fill="#64748b" stroke="#64748b" points="319.24,-131.71 314.96,-125.65 314.53,-133.06 319.24,-131.71"/>
</g>
<!-- n19&#45;&gt;n17 -->
<g id="edge33" class="edge">
<title>n19&#45;&gt;n17</title>
<path fill="none" stroke="#64748b" d="M617.45,-303.52C644.08,-293.71 677.42,-281.43 705.16,-271.21"/>
<polygon fill="#64748b" stroke="#64748b" points="705.68,-273.62 711.4,-268.9 703.99,-269.03 705.68,-273.62"/>
</g>
<!-- n19&#45;&gt;n18 -->
<g id="edge34" class="edge">
<title>n19&#45;&gt;n18</title>
<path fill="none" stroke="#64748b" d="M544.02,-303.52C530.27,-294.26 513.25,-282.8 498.61,-272.95"/>
<polygon fill="#64748b" stroke="#64748b" points="500.08,-270.98 492.9,-269.11 497.34,-275.05 500.08,-270.98"/>
</g>
<!-- n20 -->
<g id="node21" class="node">
<title>n20</title>
<g id="a_node21"><a xlink:href="https://github.com/statopia/statlib/blob/main/Statlib/Nonparametric/Approximation/Sieve.lean#L285" xlink:title="theorem · Statlib/Nonparametric/Approximation/Sieve.lean:285" target="_blank">
<path fill="#ffe6a3" stroke="#d4a017" d="M634.14,-412C634.14,-412 335.86,-412 335.86,-412 329.86,-412 323.86,-406 323.86,-400 323.86,-400 323.86,-388 323.86,-388 323.86,-382 329.86,-376 335.86,-376 335.86,-376 634.14,-376 634.14,-376 640.14,-376 646.14,-382 646.14,-388 646.14,-388 646.14,-400 646.14,-400 646.14,-406 640.14,-412 634.14,-412"/>
<text xml:space="preserve" text-anchor="middle" x="485" y="-391" font-family="Helvetica,sans-Serif" font-size="10.00">sieveApproximationError_uniform_bound_of_exists_pointwise_series</text>
</a>
</g>
</g>
<!-- n20&#45;&gt;n7 -->
<g id="edge35" class="edge">
<title>n20&#45;&gt;n7</title>
<path fill="none" stroke="#64748b" d="M630.24,-375.5C658.63,-367.64 687,-356.31 711,-340 727.11,-329.05 719.72,-314.7 736,-304 803.44,-259.65 857.53,-325.67 914,-268 942.29,-239.12 943.54,-114.99 942.68,-60.65"/>
<polygon fill="#64748b" stroke="#64748b" points="945.13,-60.72 942.55,-53.76 940.23,-60.81 945.13,-60.72"/>
</g>
<!-- n20&#45;&gt;n11 -->
<g id="edge36" class="edge">
<title>n20&#45;&gt;n11</title>
<path fill="none" stroke="#64748b" d="M460.91,-375.55C438.33,-357.07 410.59,-327.38 429,-304 471.14,-250.47 535.86,-321.53 578,-268 587.9,-255.43 588.49,-244.08 578,-232 503.56,-146.22 406.33,-275.28 325,-196 308.48,-179.9 306,-152.88 306.88,-132.83"/>
<polygon fill="#64748b" stroke="#64748b" points="309.31,-133.11 307.35,-125.96 304.42,-132.77 309.31,-133.11"/>
</g>
<!-- n20&#45;&gt;n19 -->
<g id="edge37" class="edge">
<title>n20&#45;&gt;n19</title>
<path fill="none" stroke="#64748b" d="M506.01,-375.7C517.05,-366.61 530.7,-355.36 542.56,-345.6"/>
<polygon fill="#64748b" stroke="#64748b" points="543.92,-347.65 547.77,-341.31 540.81,-343.87 543.92,-347.65"/>
</g>
<!-- n21 -->
<g id="node22" class="node">
<title>n21</title>
<g id="a_node22"><a xlink:href="https://github.com/statopia/statlib/blob/main/Statlib/Nonparametric/Approximation/Wavelet.lean#L63" xlink:title="theorem · Statlib/Nonparametric/Approximation/Wavelet.lean:63" target="_blank">
<path fill="#ffe6a3" stroke="#d4a017" d="M803.99,-484C803.99,-484 484.01,-484 484.01,-484 478.01,-484 472.01,-478 472.01,-472 472.01,-472 472.01,-460 472.01,-460 472.01,-454 478.01,-448 484.01,-448 484.01,-448 803.99,-448 803.99,-448 809.99,-448 815.99,-454 815.99,-460 815.99,-460 815.99,-472 815.99,-472 815.99,-478 809.99,-484 803.99,-484"/>
<text xml:space="preserve" text-anchor="middle" x="644" y="-463" font-family="Helvetica,sans-Serif" font-size="10.00">waveletSieve_holderSmoothBall_error_bound_of_exists_pointwise_series</text>
</a>
</g>
</g>
<!-- n21&#45;&gt;n0 -->
<g id="edge38" class="edge">
<title>n21&#45;&gt;n0</title>
<path fill="none" stroke="#64748b" d="M686.86,-447.5C706.93,-438.35 730.62,-426.11 750,-412 804.38,-372.42 796.91,-336.12 856,-304 874.11,-294.16 993.98,-272.17 1064.47,-259.83"/>
<polygon fill="#64748b" stroke="#64748b" points="1064.85,-262.25 1071.32,-258.64 1064,-257.43 1064.85,-262.25"/>
</g>
<!-- n21&#45;&gt;n6 -->
<g id="edge39" class="edge">
<title>n21&#45;&gt;n6</title>
<path fill="none" stroke="#64748b" d="M517.37,-447.52C413.23,-433.14 270.6,-413.45 192.95,-402.72"/>
<polygon fill="#64748b" stroke="#64748b" points="193.49,-400.33 186.23,-401.8 192.82,-405.18 193.49,-400.33"/>
</g>
<!-- n21&#45;&gt;n7 -->
<g id="edge40" class="edge">
<title>n21&#45;&gt;n7</title>
<path fill="none" stroke="#64748b" d="M666.85,-447.73C679.81,-437.67 696.16,-424.52 710,-412 759.86,-366.87 757.22,-336.68 816,-304 880.09,-268.37 931.16,-325.22 977,-268 1027.02,-205.56 1000.02,-164.62 977,-88 973.93,-77.77 968.17,-67.69 962.2,-59.12"/>
<polygon fill="#64748b" stroke="#64748b" points="964.2,-57.71 958.08,-53.52 960.25,-60.61 964.2,-57.71"/>
</g>
<!-- n21&#45;&gt;n8 -->
<g id="edge41" class="edge">
<title>n21&#45;&gt;n8</title>
<path fill="none" stroke="#64748b" d="M703.49,-447.54C730.62,-438.55 762.7,-426.43 790,-412 814.21,-399.21 816.83,-390.59 840,-376 857.76,-364.81 878.05,-353.51 895.47,-344.23"/>
<polygon fill="#64748b" stroke="#64748b" points="896.36,-346.53 901.4,-341.1 894.07,-342.2 896.36,-346.53"/>
</g>
<!-- n21&#45;&gt;n11 -->
<g id="edge42" class="edge">
<title>n21&#45;&gt;n11</title>
<path fill="none" stroke="#64748b" d="M475.95,-447.5C400.78,-437.94 326.37,-425.35 315,-412 304.62,-399.82 306.71,-389.68 315,-376 332.93,-346.42 366.07,-369.58 384,-340 392.29,-326.32 389.45,-319.04 384,-304 376.91,-284.42 366.54,-284.63 354,-268 352.54,-266.07 305.71,-198.31 305,-196 298.66,-175.41 300.69,-150.89 303.87,-132.81"/>
<polygon fill="#64748b" stroke="#64748b" points="306.27,-133.32 305.2,-125.98 301.46,-132.38 306.27,-133.32"/>
</g>
<!-- n21&#45;&gt;n20 -->
<g id="edge43" class="edge">
<title>n21&#45;&gt;n20</title>
<path fill="none" stroke="#64748b" d="M604.29,-447.52C582.39,-437.88 555.06,-425.84 532.09,-415.73"/>
<polygon fill="#64748b" stroke="#64748b" points="533.26,-413.57 525.87,-412.99 531.29,-418.05 533.26,-413.57"/>
</g>
<!-- n22 -->
<g id="node23" class="node">
<title>n22</title>
<g id="a_node23"><a xlink:href="https://github.com/statopia/statlib/blob/main/Statlib/Nonparametric/Approximation/Sieve.lean#L98" xlink:title="theorem · Statlib/Nonparametric/Approximation/Sieve.lean:98" target="_blank">
<path fill="#ffe6a3" stroke="#d4a017" d="M1278.73,-124C1278.73,-124 1063.27,-124 1063.27,-124 1057.27,-124 1051.27,-118 1051.27,-112 1051.27,-112 1051.27,-100 1051.27,-100 1051.27,-94 1057.27,-88 1063.27,-88 1063.27,-88 1278.73,-88 1278.73,-88 1284.73,-88 1290.73,-94 1290.73,-100 1290.73,-100 1290.73,-112 1290.73,-112 1290.73,-118 1284.73,-124 1278.73,-124"/>
<text xml:space="preserve" text-anchor="middle" x="1171" y="-103" font-family="Helvetica,sans-Serif" font-size="10.00">seriesFunction_measurable_of_basis_measurable</text>
</a>
</g>
</g>
<!-- n22&#45;&gt;n7 -->
<g id="edge44" class="edge">
<title>n22&#45;&gt;n7</title>
<path fill="none" stroke="#64748b" d="M1113.8,-87.52C1075.99,-75.96 1026.95,-60.97 990.95,-49.96"/>
<polygon fill="#64748b" stroke="#64748b" points="991.87,-47.68 984.46,-47.98 990.44,-52.37 991.87,-47.68"/>
</g>
<!-- n23 -->
<g id="node24" class="node">
<title>n23</title>
<g id="a_node24"><a xlink:href="https://github.com/statopia/statlib/blob/main/Statlib/Nonparametric/Vocabulary/Wavelet.lean#L39" xlink:title="theorem · Statlib/Nonparametric/Vocabulary/Wavelet.lean:39" target="_blank">
<path fill="#ffe6a3" stroke="#d4a017" d="M1195.93,-412C1195.93,-412 1036.07,-412 1036.07,-412 1030.07,-412 1024.07,-406 1024.07,-400 1024.07,-400 1024.07,-388 1024.07,-388 1024.07,-382 1030.07,-376 1036.07,-376 1036.07,-376 1195.93,-376 1195.93,-376 1201.93,-376 1207.93,-382 1207.93,-388 1207.93,-388 1207.93,-400 1207.93,-400 1207.93,-406 1201.93,-412 1195.93,-412"/>
<text xml:space="preserve" text-anchor="middle" x="1116" y="-391" font-family="Helvetica,sans-Serif" font-size="10.00">waveletSieve_measurable_of_system</text>
</a>
</g>
</g>
<!-- n23&#45;&gt;n0 -->
<g id="edge45" class="edge">
<title>n23&#45;&gt;n0</title>
<path fill="none" stroke="#64748b" d="M1116,-375.59C1116,-350.76 1116,-305.01 1116,-276.4"/>
<polygon fill="#64748b" stroke="#64748b" points="1118.45,-276.62 1116,-269.62 1113.55,-276.62 1118.45,-276.62"/>
</g>
<!-- n23&#45;&gt;n1 -->
<g id="edge46" class="edge">
<title>n23&#45;&gt;n1</title>
<path fill="none" stroke="#64748b" d="M1160.71,-375.52C1185.58,-365.79 1216.66,-353.64 1242.66,-343.47"/>
<polygon fill="#64748b" stroke="#64748b" points="1243.52,-345.76 1249.14,-340.93 1241.73,-341.2 1243.52,-345.76"/>
</g>
<!-- n23&#45;&gt;n8 -->
<g id="edge47" class="edge">
<title>n23&#45;&gt;n8</title>
<path fill="none" stroke="#64748b" d="M1071.29,-375.52C1044.24,-364.94 1009.84,-351.48 982.63,-340.84"/>
<polygon fill="#64748b" stroke="#64748b" points="983.61,-338.6 976.2,-338.33 981.83,-343.16 983.61,-338.6"/>
</g>
<!-- n24 -->
<g id="node25" class="node">
<title>n24</title>
<g id="a_node25"><a xlink:href="https://github.com/statopia/statlib/blob/main/Statlib/Nonparametric/Approximation/Wavelet.lean#L52" xlink:title="theorem · Statlib/Nonparametric/Approximation/Wavelet.lean:52" target="_blank">
<path fill="#ffe6a3" stroke="#d4a017" d="M1236.23,-484C1236.23,-484 1005.77,-484 1005.77,-484 999.77,-484 993.77,-478 993.77,-472 993.77,-472 993.77,-460 993.77,-460 993.77,-454 999.77,-448 1005.77,-448 1005.77,-448 1236.23,-448 1236.23,-448 1242.23,-448 1248.23,-454 1248.23,-460 1248.23,-460 1248.23,-472 1248.23,-472 1248.23,-478 1242.23,-484 1236.23,-484"/>
<text xml:space="preserve" text-anchor="middle" x="1121" y="-463" font-family="Helvetica,sans-Serif" font-size="10.00">waveletSieve_seriesFunction_measurable_of_system</text>
</a>
</g>
</g>
<!-- n24&#45;&gt;n0 -->
<g id="edge48" class="edge">
<title>n24&#45;&gt;n0</title>
<path fill="none" stroke="#64748b" d="M1174.98,-447.59C1191.39,-439.48 1207.57,-427.99 1217,-412 1225.13,-398.22 1222.33,-391.09 1217,-376 1208.93,-353.16 1165.33,-303.79 1138.12,-274.39"/>
<polygon fill="#64748b" stroke="#64748b" points="1140.18,-273 1133.62,-269.55 1136.59,-276.34 1140.18,-273"/>
</g>
<!-- n24&#45;&gt;n1 -->
<g id="edge49" class="edge">
<title>n24&#45;&gt;n1</title>
<path fill="none" stroke="#64748b" d="M1170.88,-447.6C1191.22,-438.94 1214.12,-427.07 1232,-412 1253.34,-394.02 1271,-367.23 1282.13,-347.74"/>
<polygon fill="#64748b" stroke="#64748b" points="1284.22,-349.04 1285.48,-341.73 1279.94,-346.65 1284.22,-349.04"/>
</g>
<!-- n24&#45;&gt;n7 -->
<g id="edge50" class="edge">
<title>n24&#45;&gt;n7</title>
<path fill="none" stroke="#64748b" d="M1051.79,-447.54C1034.22,-439.64 1017.39,-428.29 1007,-412 998.4,-398.51 1006.26,-391.98 1007,-376 1012.91,-248.06 1075.89,-201.73 1017,-88 1010.38,-75.22 999.1,-64.86 987.27,-56.81"/>
<polygon fill="#64748b" stroke="#64748b" points="988.77,-54.85 981.55,-53.14 986.13,-58.98 988.77,-54.85"/>
</g>
<!-- n24&#45;&gt;n8 -->
<g id="edge51" class="edge">
<title>n24&#45;&gt;n8</title>
<path fill="none" stroke="#64748b" d="M1043.41,-447.59C1020.97,-439.63 997.76,-428.23 980,-412 961.37,-394.99 949.96,-368.17 943.62,-348.41"/>
<polygon fill="#64748b" stroke="#64748b" points="946.01,-347.87 941.64,-341.88 941.32,-349.29 946.01,-347.87"/>
</g>
<!-- n24&#45;&gt;n22 -->
<g id="edge52" class="edge">
<title>n24&#45;&gt;n22</title>
<path fill="none" stroke="#64748b" d="M1058.76,-447.57C1041.62,-439.6 1025.01,-428.19 1015,-412 1006.59,-398.39 1012.39,-391.79 1015,-376 1026.04,-309.3 1030.53,-290.74 1064,-232 1086.56,-192.42 1122.54,-153.64 1146.46,-130.03"/>
<polygon fill="#64748b" stroke="#64748b" points="1147.89,-132.06 1151.18,-125.42 1144.46,-128.55 1147.89,-132.06"/>
</g>
<!-- n24&#45;&gt;n23 -->
<g id="edge53" class="edge">
<title>n24&#45;&gt;n23</title>
<path fill="none" stroke="#64748b" d="M1119.76,-447.7C1119.18,-439.47 1118.46,-429.48 1117.82,-420.42"/>
<polygon fill="#64748b" stroke="#64748b" points="1120.27,-420.42 1117.33,-413.61 1115.38,-420.77 1120.27,-420.42"/>
</g>
<!-- n25 -->
<g id="node26" class="node">
<title>n25</title>
<g id="a_node26"><a xlink:href="https://github.com/statopia/statlib/blob/main/Statlib/Nonparametric/Approximation/Wavelet.lean#L83" xlink:title="theorem · Statlib/Nonparametric/Approximation/Wavelet.lean:83" target="_blank">
<path fill="#ffe6a3" stroke="#d4a017" d="M864.38,-556C864.38,-556 571.62,-556 571.62,-556 565.62,-556 559.62,-550 559.62,-544 559.62,-544 559.62,-532 559.62,-532 559.62,-526 565.62,-520 571.62,-520 571.62,-520 864.38,-520 864.38,-520 870.38,-520 876.38,-526 876.38,-532 876.38,-532 876.38,-544 876.38,-544 876.38,-550 870.38,-556 864.38,-556"/>
<text xml:space="preserve" text-anchor="middle" x="718" y="-535" font-family="Helvetica,sans-Serif" font-size="10.00">waveletSieve_holderSmoothBall_error_bound_of_pointwise_approx</text>
</a>
</g>
</g>
<!-- n25&#45;&gt;n0 -->
<g id="edge54" class="edge">
<title>n25&#45;&gt;n0</title>
<path fill="none" stroke="#64748b" d="M788.58,-519.58C807.78,-511.65 826.87,-500.26 840,-484 891.25,-420.52 818.89,-362.26 876,-304 882.66,-297.21 996.4,-274.18 1064.88,-260.82"/>
<polygon fill="#64748b" stroke="#64748b" points="1065.11,-263.27 1071.51,-259.53 1064.17,-258.46 1065.11,-263.27"/>
</g>
<!-- n25&#45;&gt;n1 -->
<g id="edge55" class="edge">
<title>n25&#45;&gt;n1</title>
<path fill="none" stroke="#64748b" d="M876.86,-523.59C1033.24,-510.07 1249.79,-490.31 1257,-484 1295.83,-450.05 1298.88,-384.49 1297.24,-348.39"/>
<polygon fill="#64748b" stroke="#64748b" points="1299.71,-348.66 1296.86,-341.81 1294.82,-348.94 1299.71,-348.66"/>
</g>
<!-- n25&#45;&gt;n6 -->
<g id="edge56" class="edge">
<title>n25&#45;&gt;n6</title>
<path fill="none" stroke="#64748b" d="M559.41,-537.03C425.56,-534.22 246.51,-522.92 187,-484 164.61,-469.36 151.24,-441.03 144.04,-420.26"/>
<polygon fill="#64748b" stroke="#64748b" points="146.45,-419.77 141.96,-413.87 141.8,-421.29 146.45,-419.77"/>
</g>
<!-- n25&#45;&gt;n7 -->
<g id="edge57" class="edge">
<title>n25&#45;&gt;n7</title>
<path fill="none" stroke="#64748b" d="M777.74,-519.53C795.54,-511.48 813.38,-500.03 825,-484 848.72,-451.28 823.96,-334.04 851,-304 894.56,-255.61 948.27,-315.31 993,-268 1047.98,-209.84 1025.41,-158.75 988,-88 982.32,-77.25 974.08,-66.83 966.13,-58.12"/>
<polygon fill="#64748b" stroke="#64748b" points="968.07,-56.6 961.48,-53.19 964.51,-59.96 968.07,-56.6"/>
</g>
<!-- n25&#45;&gt;n8 -->
<g id="edge58" class="edge">
<title>n25&#45;&gt;n8</title>
<path fill="none" stroke="#64748b" d="M806.77,-519.59C826.81,-511.76 846.21,-500.43 860,-484 891.39,-446.61 856.49,-418.78 880,-376 886.3,-364.54 895.98,-354.16 905.59,-345.7"/>
<polygon fill="#64748b" stroke="#64748b" points="906.93,-347.78 910.7,-341.39 903.77,-344.03 906.93,-347.78"/>
</g>
<!-- n25&#45;&gt;n11 -->
<g id="edge59" class="edge">
<title>n25&#45;&gt;n11</title>
<path fill="none" stroke="#64748b" d="M575.22,-519.55C537.57,-511.71 497.78,-500.36 463,-484 439.83,-473.09 440.6,-460.06 418,-448 371.13,-422.98 335.41,-454.86 304,-412 294.54,-399.09 296.12,-389.92 304,-376 319.32,-348.94 348.68,-367.06 364,-340 371.88,-326.08 370.02,-318.82 364,-304 355.61,-283.32 341.5,-286.48 329,-268 319.19,-253.5 300.63,-213.13 297,-196 292.45,-174.54 296.81,-149.83 301.67,-131.9"/>
<polygon fill="#64748b" stroke="#64748b" points="303.89,-133.04 303.48,-125.63 299.18,-131.67 303.89,-133.04"/>
</g>
<!-- n25&#45;&gt;n21 -->
<g id="edge60" class="edge">
<title>n25&#45;&gt;n21</title>
<path fill="none" stroke="#64748b" d="M699.71,-519.7C690.28,-510.78 678.65,-499.78 668.46,-490.14"/>
<polygon fill="#64748b" stroke="#64748b" points="670.21,-488.42 663.44,-485.39 666.84,-491.98 670.21,-488.42"/>
</g>
<!-- n25&#45;&gt;n24 -->
<g id="edge61" class="edge">
<title>n25&#45;&gt;n24</title>
<path fill="none" stroke="#64748b" d="M818.65,-519.52C877.67,-509.27 952.23,-496.31 1012.55,-485.84"/>
<polygon fill="#64748b" stroke="#64748b" points="1012.61,-488.31 1019.09,-484.7 1011.77,-483.49 1012.61,-488.31"/>
</g>
<!-- n26 -->
<g id="node27" class="node">
<title>n26</title>
<g id="a_node27"><a xlink:href="https://github.com/statopia/statlib/blob/main/Statlib/Nonparametric/Approximation/Wavelet.lean#L106" xlink:title="theorem · Statlib/Nonparametric/Approximation/Wavelet.lean:106" target="_blank">
<path fill="#ffe6a3" stroke="#d4a017" d="M843.14,-628C843.14,-628 584.86,-628 584.86,-628 578.86,-628 572.86,-622 572.86,-616 572.86,-616 572.86,-604 572.86,-604 572.86,-598 578.86,-592 584.86,-592 584.86,-592 843.14,-592 843.14,-592 849.14,-592 855.14,-598 855.14,-604 855.14,-604 855.14,-616 855.14,-616 855.14,-622 849.14,-628 843.14,-628"/>
<text xml:space="preserve" text-anchor="middle" x="714" y="-607" font-family="Helvetica,sans-Serif" font-size="10.00">waveletSieve_holderSmoothBall_error_bound_of_level_rate</text>
</a>
</g>
</g>
<!-- n26&#45;&gt;n0 -->
<g id="edge62" class="edge">
<title>n26&#45;&gt;n0</title>
<path fill="none" stroke="#64748b" d="M780.65,-591.58C852.93,-572.93 971.81,-542.91 1075,-520 1155.5,-502.13 1204.66,-547.71 1257,-484 1284.35,-450.71 1213.13,-336.63 1185,-304 1175.11,-292.52 1162.37,-281.9 1150.54,-273.23"/>
<polygon fill="#64748b" stroke="#64748b" points="1152.06,-271.31 1144.94,-269.24 1149.22,-275.3 1152.06,-271.31"/>
</g>
<!-- n26&#45;&gt;n1 -->
<g id="edge63" class="edge">
<title>n26&#45;&gt;n1</title>
<path fill="none" stroke="#64748b" d="M855.49,-593.12C1000.62,-574.16 1213.58,-538.06 1275,-484 1312.97,-450.58 1307.51,-384.81 1300.87,-348.53"/>
<polygon fill="#64748b" stroke="#64748b" points="1303.31,-348.28 1299.56,-341.89 1298.51,-349.23 1303.31,-348.28"/>
</g>
<!-- n26&#45;&gt;n6 -->
<g id="edge64" class="edge">
<title>n26&#45;&gt;n6</title>
<path fill="none" stroke="#64748b" d="M572.37,-595.92C425.04,-579.22 208.27,-544.93 153,-484 137.63,-467.06 134.57,-440.58 134.79,-420.9"/>
<polygon fill="#64748b" stroke="#64748b" points="137.24,-420.99 135.04,-413.91 132.34,-420.82 137.24,-420.99"/>
</g>
<!-- n26&#45;&gt;n7 -->
<g id="edge65" class="edge">
<title>n26&#45;&gt;n7</title>
<path fill="none" stroke="#64748b" d="M636.62,-591.58C543.03,-567 404.82,-517.28 463,-448 522.49,-377.16 584.84,-452.51 668,-412 673.38,-409.38 744.33,-344.72 748,-340 759.12,-325.73 752.52,-314.85 767,-304 831.25,-255.87 884.24,-321.6 944,-268 1003.92,-214.25 981.37,-166.6 964,-88 961.89,-78.47 958.17,-68.47 954.39,-59.75"/>
<polygon fill="#64748b" stroke="#64748b" points="956.69,-58.9 951.56,-53.54 952.23,-60.93 956.69,-58.9"/>
</g>
<!-- n26&#45;&gt;n8 -->
<g id="edge66" class="edge">
<title>n26&#45;&gt;n8</title>
<path fill="none" stroke="#64748b" d="M834.67,-591.54C854.03,-583.6 871.96,-572.24 885,-556 935.27,-493.41 872.75,-451.51 900,-376 903.73,-365.67 910.01,-355.5 916.35,-346.87"/>
<polygon fill="#64748b" stroke="#64748b" points="918.15,-348.54 920.48,-341.5 914.27,-345.56 918.15,-348.54"/>
</g>
<!-- n26&#45;&gt;n11 -->
<g id="edge67" class="edge">
<title>n26&#45;&gt;n11</title>
<path fill="none" stroke="#64748b" d="M572.66,-597.31C511.71,-589.41 449.48,-576.55 428,-556 392.4,-521.94 436.26,-484.35 403,-448 368.28,-410.05 323.19,-453.65 293,-412 283.61,-399.05 285.64,-390.21 293,-376 305.76,-351.37 331.24,-364.63 344,-340 351.36,-325.79 350.02,-318.82 344,-304 335.61,-283.32 319.86,-287.5 309,-268 292.95,-239.18 295.03,-228.74 291,-196 289.05,-180.12 288.26,-175.76 291,-160 292.62,-150.66 295.74,-140.79 299,-132.13"/>
<polygon fill="#64748b" stroke="#64748b" points="301.26,-133.07 301.55,-125.66 296.7,-131.27 301.26,-133.07"/>
</g>
<!-- n26&#45;&gt;n25 -->
<g id="edge68" class="edge">
<title>n26&#45;&gt;n25</title>
<path fill="none" stroke="#64748b" d="M714.99,-591.7C715.46,-583.47 716.03,-573.48 716.55,-564.42"/>
<polygon fill="#64748b" stroke="#64748b" points="718.98,-564.74 716.94,-557.62 714.09,-564.46 718.98,-564.74"/>
</g>
<!-- n27 -->
<g id="node28" class="node">
<title>n27</title>
<g id="a_node28"><a xlink:href="https://github.com/statopia/statlib/blob/main/Statlib/Nonparametric/Approximation/Wavelet.lean#L130" xlink:title="theorem · Statlib/Nonparametric/Approximation/Wavelet.lean:130" target="_blank">
<path fill="#ffe6a3" stroke="#d4a017" d="M803.55,-700C803.55,-700 502.45,-700 502.45,-700 496.45,-700 490.45,-694 490.45,-688 490.45,-688 490.45,-676 490.45,-676 490.45,-670 496.45,-664 502.45,-664 502.45,-664 803.55,-664 803.55,-664 809.55,-664 815.55,-670 815.55,-676 815.55,-676 815.55,-688 815.55,-688 815.55,-694 809.55,-700 803.55,-700"/>
<text xml:space="preserve" text-anchor="middle" x="653" y="-679" font-family="Helvetica,sans-Serif" font-size="10.00">waveletSieve_holderSmoothBall_error_bound_of_has_pointwise_rate</text>
</a>
</g>
</g>
<!-- n27&#45;&gt;n0 -->
<g id="edge69" class="edge">
<title>n27&#45;&gt;n0</title>
<path fill="none" stroke="#64748b" d="M815.9,-665.57C1032.14,-642.85 1387,-596.76 1387,-539 1387,-539 1387,-539 1387,-393 1387,-353.2 1403.87,-333.36 1377,-304 1349.38,-273.83 1235.27,-260.04 1167.41,-254.41"/>
<polygon fill="#64748b" stroke="#64748b" points="1167.65,-251.97 1160.48,-253.85 1167.26,-256.85 1167.65,-251.97"/>
</g>
<!-- n27&#45;&gt;n1 -->
<g id="edge70" class="edge">
<title>n27&#45;&gt;n1</title>
<path fill="none" stroke="#64748b" d="M815.74,-674.94C961.1,-660.54 1169.31,-616.21 1291,-484 1324.01,-448.14 1316.7,-424.27 1310,-376 1308.72,-366.81 1306.26,-356.98 1303.7,-348.31"/>
<polygon fill="#64748b" stroke="#64748b" points="1306.11,-347.81 1301.69,-341.85 1301.43,-349.26 1306.11,-347.81"/>
</g>
<!-- n27&#45;&gt;n6 -->
<g id="edge71" class="edge">
<title>n27&#45;&gt;n6</title>
<path fill="none" stroke="#64748b" d="M490.02,-665.2C352.93,-651.58 178.18,-633.29 172,-628 111.76,-576.43 122.69,-469.35 131.54,-420.4"/>
<polygon fill="#64748b" stroke="#64748b" points="133.91,-421.06 132.81,-413.73 129.09,-420.15 133.91,-421.06"/>
</g>
<!-- n27&#45;&gt;n8 -->
<g id="edge74" class="edge">
<title>n27&#45;&gt;n8</title>
<path fill="none" stroke="#64748b" d="M794.72,-663.52C819.65,-655.61 843.99,-644.25 864,-628 953.05,-555.66 895.72,-488.13 920,-376 921.98,-366.84 924.91,-357.01 927.77,-348.34"/>
<polygon fill="#64748b" stroke="#64748b" points="930.03,-349.28 929.97,-341.87 925.4,-347.7 930.03,-349.28"/>
</g>
<!-- n27&#45;&gt;n9 -->
<g id="edge72" class="edge">
<title>n27&#45;&gt;n9</title>
<path fill="none" stroke="#64748b" d="M613.09,-663.57C563.49,-641.25 476.97,-600.15 408,-556 376.42,-535.78 343,-508.66 320.77,-489.69"/>
<polygon fill="#64748b" stroke="#64748b" points="322.58,-488.01 315.68,-485.31 319.39,-491.73 322.58,-488.01"/>
</g>
<!-- n27&#45;&gt;n11 -->
<g id="edge73" class="edge">
<title>n27&#45;&gt;n11</title>
<path fill="none" stroke="#64748b" d="M505.06,-663.55C395.38,-641.82 253.78,-593.09 187,-484 178.65,-470.35 179.89,-462.33 187,-448 191.4,-439.12 324.6,-348.88 329,-340 336.11,-325.67 335.32,-318.7 329,-304 319.81,-282.63 301.07,-288.97 291,-268 277.1,-239.05 286.33,-228.08 285,-196 284.34,-180.01 281.5,-175.61 285,-160 287.15,-150.42 291.22,-140.54 295.47,-131.94"/>
<polygon fill="#64748b" stroke="#64748b" points="297.62,-133.13 298.68,-125.79 293.27,-130.86 297.62,-133.13"/>
</g>
<!-- n27&#45;&gt;n26 -->
<g id="edge75" class="edge">
<title>n27&#45;&gt;n26</title>
<path fill="none" stroke="#64748b" d="M668.08,-663.7C675.76,-654.88 685.21,-644.03 693.54,-634.47"/>
<polygon fill="#64748b" stroke="#64748b" points="695.35,-636.13 698.1,-629.25 691.65,-632.91 695.35,-636.13"/>
</g>
<!-- n28 -->
<g id="node29" class="node">
<title>n28</title>
<g id="a_node29"><a xlink:href="https://github.com/statopia/statlib/blob/main/Statlib/Nonparametric/Approximation/Wavelet.lean#L148" xlink:title="theorem · Statlib/Nonparametric/Approximation/Wavelet.lean:148" target="_blank">
<path fill="#ffe6a3" stroke="#d4a017" d="M733.86,-772C733.86,-772 332.14,-772 332.14,-772 326.14,-772 320.14,-766 320.14,-760 320.14,-760 320.14,-748 320.14,-748 320.14,-742 326.14,-736 332.14,-736 332.14,-736 733.86,-736 733.86,-736 739.86,-736 745.86,-742 745.86,-748 745.86,-748 745.86,-760 745.86,-760 745.86,-766 739.86,-772 733.86,-772"/>
<text xml:space="preserve" text-anchor="middle" x="533" y="-751" font-family="Helvetica,sans-Serif" font-size="10.00">waveletSieve_holderSmoothBall_error_bound_of_has_pointwise_rate_and_basisCount_rate</text>
</a>
</g>
</g>
<!-- n28&#45;&gt;n0 -->
<g id="edge76" class="edge">
<title>n28&#45;&gt;n0</title>
<path fill="none" stroke="#64748b" d="M683.95,-735.51C742.09,-726.73 800.45,-714.78 825,-700 868.11,-674.04 895,-661.32 895,-611 895,-611 895,-611 895,-537 895,-485.21 858.29,-344.15 891,-304 902.01,-290.49 1001.66,-270.91 1064.6,-259.72"/>
<polygon fill="#64748b" stroke="#64748b" points="1064.89,-262.16 1071.36,-258.53 1064.04,-257.33 1064.89,-262.16"/>
</g>
<!-- n28&#45;&gt;n1 -->
<g id="edge77" class="edge">
<title>n28&#45;&gt;n1</title>
<path fill="none" stroke="#64748b" d="M717.75,-735.52C779.76,-727.43 848.91,-715.96 911,-700 1063.62,-660.76 1108.39,-649.81 1235,-556 1271.36,-529.06 1286.84,-524.52 1307,-484 1328.47,-440.84 1326.42,-423.28 1317,-376 1315.09,-366.42 1311.42,-356.41 1307.62,-347.7"/>
<polygon fill="#64748b" stroke="#64748b" points="1309.91,-346.83 1304.76,-341.5 1305.46,-348.88 1309.91,-346.83"/>
</g>
<!-- n28&#45;&gt;n6 -->
<g id="edge78" class="edge">
<title>n28&#45;&gt;n6</title>
<path fill="none" stroke="#64748b" d="M475.75,-735.61C381.41,-703.49 196.28,-624.89 121,-484 110.43,-464.22 116.64,-438.8 124.19,-420.19"/>
<polygon fill="#64748b" stroke="#64748b" points="126.43,-421.21 126.98,-413.81 121.93,-419.25 126.43,-421.21"/>
</g>
<!-- n28&#45;&gt;n8 -->
<g id="edge81" class="edge">
<title>n28&#45;&gt;n8</title>
<path fill="none" stroke="#64748b" d="M746.01,-743.86C813.57,-736.49 876.79,-723.34 900,-700 924.78,-675.09 933.97,-429.03 936.33,-348.42"/>
<polygon fill="#64748b" stroke="#64748b" points="938.77,-348.87 936.52,-341.8 933.87,-348.73 938.77,-348.87"/>
</g>
<!-- n28&#45;&gt;n9 -->
<g id="edge79" class="edge">
<title>n28&#45;&gt;n9</title>
<path fill="none" stroke="#64748b" d="M515.39,-735.59C505.19,-725.37 492.19,-712.12 481,-700 423.52,-637.72 407.82,-623.06 356,-556 339.62,-534.8 322.5,-509.51 310.59,-491.32"/>
<polygon fill="#64748b" stroke="#64748b" points="312.83,-490.27 306.95,-485.74 308.72,-492.94 312.83,-490.27"/>
</g>
<!-- n28&#45;&gt;n11 -->
<g id="edge80" class="edge">
<title>n28&#45;&gt;n11</title>
<path fill="none" stroke="#64748b" d="M424.94,-735.54C388.12,-727.41 347.35,-715.9 312,-700 150.86,-627.51 57,-571.69 57,-395 57,-395 57,-395 57,-321 57,-281.2 44.4,-264.77 67,-232 79.25,-214.23 196.89,-158.56 263.88,-127.85"/>
<polygon fill="#64748b" stroke="#64748b" points="264.67,-130.18 270.02,-125.04 262.63,-125.73 264.67,-130.18"/>
</g>
<!-- n28&#45;&gt;n27 -->
<g id="edge82" class="edge">
<title>n28&#45;&gt;n27</title>
<path fill="none" stroke="#64748b" d="M562.97,-735.52C579.13,-726.09 599.2,-714.38 616.29,-704.41"/>
<polygon fill="#64748b" stroke="#64748b" points="617.29,-706.67 622.1,-701.02 614.82,-702.43 617.29,-706.67"/>
</g>
<!-- n29 -->
<g id="node30" class="node">
<title>n29</title>
<g id="a_node30"><a xlink:href="https://github.com/statopia/statlib/blob/main/Statlib/Nonparametric/Approximation/Wavelet.lean#L176" xlink:title="theorem · Statlib/Nonparametric/Approximation/Wavelet.lean:176" target="_blank">
<path fill="#ffe6a3" stroke="#d4a017" stroke-width="3" d="M676.2,-844C676.2,-844 267.8,-844 267.8,-844 261.8,-844 255.8,-838 255.8,-832 255.8,-832 255.8,-820 255.8,-820 255.8,-814 261.8,-808 267.8,-808 267.8,-808 676.2,-808 676.2,-808 682.2,-808 688.2,-814 688.2,-820 688.2,-820 688.2,-832 688.2,-832 688.2,-838 682.2,-844 676.2,-844"/>
<text xml:space="preserve" text-anchor="middle" x="472" y="-823" font-family="Helvetica,sans-Serif" font-size="10.00">waveletSieve_holderSmoothBall_error_bound_of_has_pointwise_rate_and_exact_basisCount</text>
</a>
</g>
</g>
<!-- n29&#45;&gt;n0 -->
<g id="edge83" class="edge">
<title>n29&#45;&gt;n0</title>
<path fill="none" stroke="#64748b" d="M689.37,-816.48C866.08,-808.17 1100.65,-793.61 1193,-772 1293.3,-748.53 1407,-786.01 1407,-683 1407,-683 1407,-683 1407,-393 1407,-352.73 1418.44,-332.51 1390,-304 1359.42,-273.35 1237.98,-259.66 1167.46,-254.19"/>
<polygon fill="#64748b" stroke="#64748b" points="1167.79,-251.76 1160.63,-253.68 1167.42,-256.65 1167.79,-251.76"/>
</g>
<!-- n29&#45;&gt;n1 -->
<g id="edge84" class="edge">
<title>n29&#45;&gt;n1</title>
<path fill="none" stroke="#64748b" d="M689.51,-811.63C954.42,-792.35 1367,-751.36 1367,-683 1367,-683 1367,-683 1367,-465 1367,-419.39 1337.08,-373.58 1315.82,-346.78"/>
<polygon fill="#64748b" stroke="#64748b" points="1317.89,-345.44 1311.58,-341.56 1314.09,-348.54 1317.89,-345.44"/>
</g>
<!-- n29&#45;&gt;n6 -->
<g id="edge85" class="edge">
<title>n29&#45;&gt;n6</title>
<path fill="none" stroke="#64748b" d="M344.95,-806.52C222.93,-785.1 57,-744.63 57,-683 57,-683 57,-683 57,-609 57,-536.49 97.8,-458.41 121.12,-419.69"/>
<polygon fill="#64748b" stroke="#64748b" points="123.18,-421.03 124.75,-413.78 119,-418.47 123.18,-421.03"/>
</g>
<!-- n29&#45;&gt;n8 -->
<g id="edge88" class="edge">
<title>n29&#45;&gt;n8</title>
<path fill="none" stroke="#64748b" d="M607.93,-806.55C655.12,-798.31 707.97,-787 755,-772 827.75,-748.79 863.87,-760.08 911,-700 953.79,-645.45 943.65,-424 938.81,-348.42"/>
<polygon fill="#64748b" stroke="#64748b" points="941.28,-348.68 938.38,-341.86 936.39,-349.01 941.28,-348.68"/>
</g>
<!-- n29&#45;&gt;n9 -->
<g id="edge86" class="edge">
<title>n29&#45;&gt;n9</title>
<path fill="none" stroke="#64748b" d="M357.89,-806.61C339.71,-798.76 322.97,-787.66 311,-772 246.68,-687.85 272.99,-549.33 287.66,-492.52"/>
<polygon fill="#64748b" stroke="#64748b" points="289.99,-493.29 289.43,-485.9 285.26,-492.03 289.99,-493.29"/>
</g>
<!-- n29&#45;&gt;n11 -->
<g id="edge87" class="edge">
<title>n29&#45;&gt;n11</title>
<path fill="none" stroke="#64748b" d="M254.62,-807.63C190.91,-799.53 131.08,-788.02 104,-772 61.39,-746.79 37,-732.51 37,-683 37,-683 37,-683 37,-321 37,-281.02 31.94,-267.66 50,-232 60.29,-211.67 103.31,-171.47 123,-160 158.51,-139.32 202.56,-126.32 238.98,-118.37"/>
<polygon fill="#64748b" stroke="#64748b" points="239.29,-120.81 245.63,-116.97 238.27,-116.02 239.29,-120.81"/>
</g>
<!-- n29&#45;&gt;n14 -->
<g id="edge89" class="edge">
<title>n29&#45;&gt;n14</title>
<path fill="none" stroke="#64748b" d="M254.53,-810.31C152.4,-801.33 49.21,-788.41 32,-772 2.98,-744.31 17,-723.11 17,-683 17,-683 17,-683 17,-321 17,-279.66 27.79,-232.65 35.47,-204.43"/>
<polygon fill="#64748b" stroke="#64748b" points="37.81,-205.16 37.33,-197.76 33.09,-203.84 37.81,-205.16"/>
</g>
<!-- n29&#45;&gt;n28 -->
<g id="edge90" class="edge">
<title>n29&#45;&gt;n28</title>
<path fill="none" stroke="#64748b" d="M488.03,-806.61C495.6,-797.92 504.72,-787.45 512.76,-778.22"/>
<polygon fill="#64748b" stroke="#64748b" points="514.38,-780.1 517.13,-773.21 510.69,-776.88 514.38,-780.1"/>
</g>
</g>
</svg>
