<?xml version="1.0" encoding="UTF-8" standalone="no"?>
<!DOCTYPE svg PUBLIC "-//W3C//DTD SVG 1.1//EN"
 "http://www.w3.org/Graphics/SVG/1.1/DTD/svg11.dtd">
<!-- Generated by graphviz version 15.0.0 (20260523.1842)
 -->
<!-- Title: asymDist Pages: 1 -->
<svg width="594pt" height="770pt"
 viewBox="0.00 0.00 594.00 770.00" xmlns="http://www.w3.org/2000/svg" xmlns:xlink="http://www.w3.org/1999/xlink">
<g id="graph0" class="graph" transform="scale(1 1) rotate(0) translate(4 766)">
<title>asymDist</title>
<polygon fill="white" stroke="none" points="-4,4 -4,-766 590,-766 590,4 -4,4"/>
<text xml:space="preserve" text-anchor="middle" x="293" y="-745.4" font-family="Helvetica,sans-Serif" font-size="14.00">Proof narrative — asymDist &#160;(22 decls)</text>
<g id="clust1" class="cluster">
<title>cluster_0</title>
<path fill="none" stroke="#cbd5e1" stroke-dasharray="5,2" d="M20,-8C20,-8 566,-8 566,-8 572,-8 578,-14 578,-20 578,-20 578,-717.2 578,-717.2 578,-723.2 572,-729.2 566,-729.2 566,-729.2 20,-729.2 20,-729.2 14,-729.2 8,-723.2 8,-717.2 8,-717.2 8,-20 8,-20 8,-14 14,-8 20,-8"/>
<text xml:space="preserve" text-anchor="middle" x="293" y="-715.3" font-family="Helvetica,sans-Serif" font-size="11.00">CoxChangePoint</text>
</g>
<!-- n0 -->
<g id="node1" class="node">
<title>n0</title>
<g id="a_node1"><a xlink:href="vscode://vscode-remote/wsl+Ubuntu/home/gavin/statlib/Statlib/CoxChangePoint/Theorem2And3.lean:119" xlink:title="structure · Statlib/CoxChangePoint/Theorem2And3.lean:119" target="_blank">
<path fill="#e8dcff" stroke="#8b5cf6" d="M223.41,-556C223.41,-556 128.59,-556 128.59,-556 122.59,-556 116.59,-550 116.59,-544 116.59,-544 116.59,-532 116.59,-532 116.59,-526 122.59,-520 128.59,-520 128.59,-520 223.41,-520 223.41,-520 229.41,-520 235.41,-526 235.41,-532 235.41,-532 235.41,-544 235.41,-544 235.41,-550 229.41,-556 223.41,-556"/>
<text xml:space="preserve" text-anchor="middle" x="176" y="-535" font-family="Helvetica,sans-Serif" font-size="10.00">Theorem3Assumptions</text>
</a>
</g>
</g>
<!-- n1 -->
<g id="node2" class="node">
<title>n1</title>
<g id="a_node2"><a xlink:href="vscode://vscode-remote/wsl+Ubuntu/home/gavin/statlib/Statlib/CoxChangePoint/Theorem2And3.lean:165" xlink:title="theorem · Statlib/CoxChangePoint/Theorem2And3.lean:165" target="_blank">
<path fill="#ffe6a3" stroke="#d4a017" d="M195.9,-628C195.9,-628 156.1,-628 156.1,-628 150.1,-628 144.1,-622 144.1,-616 144.1,-616 144.1,-604 144.1,-604 144.1,-598 150.1,-592 156.1,-592 156.1,-592 195.9,-592 195.9,-592 201.9,-592 207.9,-598 207.9,-604 207.9,-604 207.9,-616 207.9,-616 207.9,-622 201.9,-628 195.9,-628"/>
<text xml:space="preserve" text-anchor="middle" x="176" y="-607" font-family="Helvetica,sans-Serif" font-size="10.00">theorem_3</text>
</a>
</g>
</g>
<!-- n1&#45;&gt;n0 -->
<g id="edge1" class="edge">
<title>n1&#45;&gt;n0</title>
<path fill="none" stroke="#64748b" d="M176,-591.7C176,-583.47 176,-573.48 176,-564.42"/>
<polygon fill="#64748b" stroke="#64748b" points="178.45,-564.62 176,-557.62 173.55,-564.62 178.45,-564.62"/>
</g>
<!-- n2 -->
<g id="node3" class="node">
<title>n2</title>
<g id="a_node3"><a xlink:href="vscode://vscode-remote/wsl+Ubuntu/home/gavin/statlib/Statlib/CoxChangePoint/Foundation.lean:57" xlink:title="structure · Statlib/CoxChangePoint/Foundation.lean:57" target="_blank">
<path fill="#e8dcff" stroke="#8b5cf6" d="M525.62,-196C525.62,-196 486.38,-196 486.38,-196 480.38,-196 474.38,-190 474.38,-184 474.38,-184 474.38,-172 474.38,-172 474.38,-166 480.38,-160 486.38,-160 486.38,-160 525.62,-160 525.62,-160 531.62,-160 537.62,-166 537.62,-172 537.62,-172 537.62,-184 537.62,-184 537.62,-190 531.62,-196 525.62,-196"/>
<text xml:space="preserve" text-anchor="middle" x="506" y="-175" font-family="Helvetica,sans-Serif" font-size="10.00">CoxParam</text>
</a>
</g>
</g>
<!-- n3 -->
<g id="node4" class="node">
<title>n3</title>
<g id="a_node4"><a xlink:href="vscode://vscode-remote/wsl+Ubuntu/home/gavin/statlib/Statlib/CoxChangePoint/FPC.lean:55" xlink:title="def · Statlib/CoxChangePoint/FPC.lean:55" target="_blank">
<path fill="#d6e9ff" stroke="#3b82f6" d="M227.02,-52C227.02,-52 154.98,-52 154.98,-52 148.98,-52 142.98,-46 142.98,-40 142.98,-40 142.98,-28 142.98,-28 142.98,-22 148.98,-16 154.98,-16 154.98,-16 227.02,-16 227.02,-16 233.02,-16 239.02,-22 239.02,-28 239.02,-28 239.02,-40 239.02,-40 239.02,-46 233.02,-52 227.02,-52"/>
<text xml:space="preserve" text-anchor="middle" x="191" y="-31" font-family="Helvetica,sans-Serif" font-size="10.00">FunctionalSample</text>
</a>
</g>
</g>
<!-- n4 -->
<g id="node5" class="node">
<title>n4</title>
<g id="a_node5"><a xlink:href="vscode://vscode-remote/wsl+Ubuntu/home/gavin/statlib/Statlib/CoxChangePoint/FPC.lean:42" xlink:title="structure · Statlib/CoxChangePoint/FPC.lean:42" target="_blank">
<path fill="#e8dcff" stroke="#8b5cf6" d="M81.62,-52C81.62,-52 32.38,-52 32.38,-52 26.38,-52 20.38,-46 20.38,-40 20.38,-40 20.38,-28 20.38,-28 20.38,-22 26.38,-16 32.38,-16 32.38,-16 81.62,-16 81.62,-16 87.62,-16 93.62,-22 93.62,-28 93.62,-28 93.62,-40 93.62,-40 93.62,-46 87.62,-52 81.62,-52"/>
<text xml:space="preserve" text-anchor="middle" x="57" y="-31" font-family="Helvetica,sans-Serif" font-size="10.00">Eigensystem</text>
</a>
</g>
</g>
<!-- n5 -->
<g id="node6" class="node">
<title>n5</title>
<g id="a_node6"><a xlink:href="vscode://vscode-remote/wsl+Ubuntu/home/gavin/statlib/Statlib/CoxChangePoint/CoxModel.lean:80" xlink:title="structure · Statlib/CoxChangePoint/CoxModel.lean:80" target="_blank">
<path fill="#e8dcff" stroke="#8b5cf6" d="M305.51,-268C305.51,-268 268.49,-268 268.49,-268 262.49,-268 256.49,-262 256.49,-256 256.49,-256 256.49,-244 256.49,-244 256.49,-238 262.49,-232 268.49,-232 268.49,-232 305.51,-232 305.51,-232 311.51,-232 317.51,-238 317.51,-244 317.51,-244 317.51,-256 317.51,-256 317.51,-262 311.51,-268 305.51,-268"/>
<text xml:space="preserve" text-anchor="middle" x="287" y="-247" font-family="Helvetica,sans-Serif" font-size="10.00">CoxModel</text>
</a>
</g>
</g>
<!-- n5&#45;&gt;n2 -->
<g id="edge2" class="edge">
<title>n5&#45;&gt;n2</title>
<path fill="none" stroke="#64748b" d="M317.91,-239.12C356.79,-226.69 423.61,-205.34 466.25,-191.71"/>
<polygon fill="#64748b" stroke="#64748b" points="466.81,-194.1 472.74,-189.63 465.32,-189.43 466.81,-194.1"/>
</g>
<!-- n5&#45;&gt;n3 -->
<g id="edge3" class="edge">
<title>n5&#45;&gt;n3</title>
<path fill="none" stroke="#64748b" d="M279.47,-231.54C266.67,-201.92 239.71,-139.97 216,-88 211.75,-78.69 206.99,-68.52 202.76,-59.6"/>
<polygon fill="#64748b" stroke="#64748b" points="205.08,-58.77 199.87,-53.5 200.66,-60.88 205.08,-58.77"/>
</g>
<!-- n5&#45;&gt;n4 -->
<g id="edge4" class="edge">
<title>n5&#45;&gt;n4</title>
<path fill="none" stroke="#64748b" d="M272.32,-231.65C241.3,-195.2 169.61,-112.02 141,-88 127.27,-76.47 110.83,-65.56 96.16,-56.67"/>
<polygon fill="#64748b" stroke="#64748b" points="97.68,-54.73 90.41,-53.25 95.17,-58.94 97.68,-54.73"/>
</g>
<!-- n6 -->
<g id="node7" class="node">
<title>n6</title>
<g id="a_node7"><a xlink:href="vscode://vscode-remote/wsl+Ubuntu/home/gavin/statlib/Statlib/CoxChangePoint/Auto/smoothed_empirical_process_approximation.lean:18" xlink:title="private structure · Statlib/CoxChangePoint/Auto/smoothed_empirical_process_approximation.lean:18" target="_blank">
<path fill="#e8dcff" stroke="#8b5cf6" d="M355.62,-556C355.62,-556 316.38,-556 316.38,-556 310.38,-556 304.38,-550 304.38,-544 304.38,-544 304.38,-532 304.38,-532 304.38,-526 310.38,-520 316.38,-520 316.38,-520 355.62,-520 355.62,-520 361.62,-520 367.62,-526 367.62,-532 367.62,-532 367.62,-544 367.62,-544 367.62,-550 361.62,-556 355.62,-556"/>
<text xml:space="preserve" text-anchor="middle" x="336" y="-535" font-family="Helvetica,sans-Serif" font-size="10.00">CoxParam</text>
</a>
</g>
</g>
<!-- n7 -->
<g id="node8" class="node">
<title>n7</title>
<g id="a_node8"><a xlink:href="vscode://vscode-remote/wsl+Ubuntu/home/gavin/statlib/Statlib/CoxChangePoint/Foundation.lean:38" xlink:title="structure · Statlib/CoxChangePoint/Foundation.lean:38" target="_blank">
<path fill="#e8dcff" stroke="#8b5cf6" d="M382,-196C382,-196 352,-196 352,-196 346,-196 340,-190 340,-184 340,-184 340,-172 340,-172 340,-166 346,-160 352,-160 352,-160 382,-160 382,-160 388,-160 394,-166 394,-172 394,-172 394,-184 394,-184 394,-190 388,-196 382,-196"/>
<text xml:space="preserve" text-anchor="middle" x="367" y="-175" font-family="Helvetica,sans-Serif" font-size="10.00">CoxObs</text>
</a>
</g>
</g>
<!-- n8 -->
<g id="node9" class="node">
<title>n8</title>
<g id="a_node9"><a xlink:href="vscode://vscode-remote/wsl+Ubuntu/home/gavin/statlib/Statlib/CoxChangePoint/Foundation.lean:68" xlink:title="noncomputable def · Statlib/CoxChangePoint/Foundation.lean:68" target="_blank">
<path fill="#d6e9ff" stroke="#3b82f6" d="M498,-268C498,-268 468,-268 468,-268 462,-268 456,-262 456,-256 456,-256 456,-244 456,-244 456,-238 462,-232 468,-232 468,-232 498,-232 498,-232 504,-232 510,-238 510,-244 510,-244 510,-256 510,-256 510,-262 504,-268 498,-268"/>
<text xml:space="preserve" text-anchor="middle" x="483" y="-247" font-family="Helvetica,sans-Serif" font-size="10.00">g</text>
</a>
</g>
</g>
<!-- n8&#45;&gt;n2 -->
<g id="edge5" class="edge">
<title>n8&#45;&gt;n2</title>
<path fill="none" stroke="#64748b" d="M488.69,-231.7C491.41,-223.39 494.74,-213.28 497.74,-204.14"/>
<polygon fill="#64748b" stroke="#64748b" points="500.05,-204.96 499.91,-197.54 495.39,-203.43 500.05,-204.96"/>
</g>
<!-- n8&#45;&gt;n7 -->
<g id="edge6" class="edge">
<title>n8&#45;&gt;n7</title>
<path fill="none" stroke="#64748b" d="M455.51,-232.41C439.33,-222.65 418.72,-210.21 401.46,-199.8"/>
<polygon fill="#64748b" stroke="#64748b" points="402.85,-197.77 395.59,-196.25 400.32,-201.97 402.85,-197.77"/>
</g>
<!-- n9 -->
<g id="node10" class="node">
<title>n9</title>
<g id="a_node10"><a xlink:href="vscode://vscode-remote/wsl+Ubuntu/home/gavin/statlib/Statlib/CoxChangePoint/Foundation.lean:89" xlink:title="noncomputable def · Statlib/CoxChangePoint/Foundation.lean:89" target="_blank">
<path fill="#d6e9ff" stroke="#3b82f6" d="M386,-340C386,-340 356,-340 356,-340 350,-340 344,-334 344,-328 344,-328 344,-316 344,-316 344,-310 350,-304 356,-304 356,-304 386,-304 386,-304 392,-304 398,-310 398,-316 398,-316 398,-328 398,-328 398,-334 392,-340 386,-340"/>
<text xml:space="preserve" text-anchor="middle" x="371" y="-319" font-family="Helvetica,sans-Serif" font-size="10.00">atRisk</text>
</a>
</g>
</g>
<!-- n9&#45;&gt;n7 -->
<g id="edge7" class="edge">
<title>n9&#45;&gt;n7</title>
<path fill="none" stroke="#64748b" d="M370.51,-303.59C369.81,-278.76 368.52,-233.01 367.72,-204.4"/>
<polygon fill="#64748b" stroke="#64748b" points="370.17,-204.55 367.52,-197.62 365.27,-204.69 370.17,-204.55"/>
</g>
<!-- n10 -->
<g id="node11" class="node">
<title>n10</title>
<g id="a_node11"><a xlink:href="vscode://vscode-remote/wsl+Ubuntu/home/gavin/statlib/Statlib/CoxChangePoint/Foundation.lean:75" xlink:title="noncomputable def · Statlib/CoxChangePoint/Foundation.lean:75" target="_blank">
<path fill="#d6e9ff" stroke="#3b82f6" d="M478,-340C478,-340 448,-340 448,-340 442,-340 436,-334 436,-328 436,-328 436,-316 436,-316 436,-310 442,-304 448,-304 448,-304 478,-304 478,-304 484,-304 490,-310 490,-316 490,-316 490,-328 490,-328 490,-334 484,-340 478,-340"/>
<text xml:space="preserve" text-anchor="middle" x="463" y="-319" font-family="Helvetica,sans-Serif" font-size="10.00">expG</text>
</a>
</g>
</g>
<!-- n10&#45;&gt;n2 -->
<g id="edge8" class="edge">
<title>n10&#45;&gt;n2</title>
<path fill="none" stroke="#64748b" d="M454.07,-303.55C445.91,-285.06 436.58,-255.37 447,-232 452.29,-220.14 461.69,-209.82 471.46,-201.52"/>
<polygon fill="#64748b" stroke="#64748b" points="472.78,-203.6 476.71,-197.31 469.72,-199.78 472.78,-203.6"/>
</g>
<!-- n10&#45;&gt;n7 -->
<g id="edge9" class="edge">
<title>n10&#45;&gt;n7</title>
<path fill="none" stroke="#64748b" d="M451.23,-303.59C434.15,-278.33 402.44,-231.43 383.18,-202.93"/>
<polygon fill="#64748b" stroke="#64748b" points="385.37,-201.79 379.42,-197.36 381.31,-204.54 385.37,-201.79"/>
</g>
<!-- n10&#45;&gt;n8 -->
<g id="edge10" class="edge">
<title>n10&#45;&gt;n8</title>
<path fill="none" stroke="#64748b" d="M467.94,-303.7C470.32,-295.39 473.21,-285.28 475.82,-276.14"/>
<polygon fill="#64748b" stroke="#64748b" points="478.13,-276.96 477.7,-269.56 473.42,-275.62 478.13,-276.96"/>
</g>
<!-- n11 -->
<g id="node12" class="node">
<title>n11</title>
<g id="a_node12"><a xlink:href="vscode://vscode-remote/wsl+Ubuntu/home/gavin/statlib/Statlib/CoxChangePoint/Foundation.lean:93" xlink:title="noncomputable def · Statlib/CoxChangePoint/Foundation.lean:93" target="_blank">
<path fill="#d6e9ff" stroke="#3b82f6" d="M455,-412C455,-412 425,-412 425,-412 419,-412 413,-406 413,-400 413,-400 413,-388 413,-388 413,-382 419,-376 425,-376 425,-376 455,-376 455,-376 461,-376 467,-382 467,-388 467,-388 467,-400 467,-400 467,-406 461,-412 455,-412"/>
<text xml:space="preserve" text-anchor="middle" x="440" y="-391" font-family="Helvetica,sans-Serif" font-size="10.00">riskSum</text>
</a>
</g>
</g>
<!-- n11&#45;&gt;n2 -->
<g id="edge12" class="edge">
<title>n11&#45;&gt;n2</title>
<path fill="none" stroke="#64748b" d="M465.19,-375.67C477.01,-366.36 490.37,-353.93 499,-340 524.72,-298.51 524.86,-280.46 519,-232 517.91,-222.97 515.81,-213.26 513.61,-204.65"/>
<polygon fill="#64748b" stroke="#64748b" points="515.99,-204.06 511.8,-197.93 511.25,-205.33 515.99,-204.06"/>
</g>
<!-- n11&#45;&gt;n7 -->
<g id="edge11" class="edge">
<title>n11&#45;&gt;n7</title>
<path fill="none" stroke="#64748b" d="M434.15,-375.85C421.31,-338.21 390.61,-248.2 375.58,-204.15"/>
<polygon fill="#64748b" stroke="#64748b" points="377.95,-203.5 373.37,-197.66 373.31,-205.08 377.95,-203.5"/>
</g>
<!-- n11&#45;&gt;n9 -->
<g id="edge13" class="edge">
<title>n11&#45;&gt;n9</title>
<path fill="none" stroke="#64748b" d="M422.94,-375.7C414.09,-366.71 403.15,-355.61 393.6,-345.92"/>
<polygon fill="#64748b" stroke="#64748b" points="395.58,-344.45 388.92,-341.18 392.09,-347.89 395.58,-344.45"/>
</g>
<!-- n11&#45;&gt;n10 -->
<g id="edge14" class="edge">
<title>n11&#45;&gt;n10</title>
<path fill="none" stroke="#64748b" d="M445.69,-375.7C448.41,-367.39 451.74,-357.28 454.74,-348.14"/>
<polygon fill="#64748b" stroke="#64748b" points="457.05,-348.96 456.91,-341.54 452.39,-347.43 457.05,-348.96"/>
</g>
<!-- n12 -->
<g id="node13" class="node">
<title>n12</title>
<g id="a_node13"><a xlink:href="vscode://vscode-remote/wsl+Ubuntu/home/gavin/statlib/Statlib/CoxChangePoint/Foundation.lean:104" xlink:title="noncomputable def · Statlib/CoxChangePoint/Foundation.lean:104" target="_blank">
<path fill="#d6e9ff" stroke="#3b82f6" d="M479.36,-484C479.36,-484 400.64,-484 400.64,-484 394.64,-484 388.64,-478 388.64,-472 388.64,-472 388.64,-460 388.64,-460 388.64,-454 394.64,-448 400.64,-448 400.64,-448 479.36,-448 479.36,-448 485.36,-448 491.36,-454 491.36,-460 491.36,-460 491.36,-472 491.36,-472 491.36,-478 485.36,-484 479.36,-484"/>
<text xml:space="preserve" text-anchor="middle" x="440" y="-463" font-family="Helvetica,sans-Serif" font-size="10.00">logPartialLikelihood</text>
</a>
</g>
</g>
<!-- n12&#45;&gt;n2 -->
<g id="edge16" class="edge">
<title>n12&#45;&gt;n2</title>
<path fill="none" stroke="#64748b" d="M460.21,-447.67C470.21,-438.09 481.69,-425.43 489,-412 520.61,-353.97 517.71,-333.56 526,-268 528.01,-252.13 528.87,-247.74 526,-232 524.27,-222.52 520.93,-212.53 517.47,-203.81"/>
<polygon fill="#64748b" stroke="#64748b" points="519.84,-203.13 514.89,-197.61 515.32,-205.01 519.84,-203.13"/>
</g>
<!-- n12&#45;&gt;n7 -->
<g id="edge15" class="edge">
<title>n12&#45;&gt;n7</title>
<path fill="none" stroke="#64748b" d="M418.45,-447.87C392.86,-426.01 351.59,-385.54 335,-340 329.52,-324.97 333,-319.87 335,-304 337.41,-284.9 351,-235.12 359.68,-204.45"/>
<polygon fill="#64748b" stroke="#64748b" points="362.01,-205.21 361.57,-197.81 357.3,-203.87 362.01,-205.21"/>
</g>
<!-- n12&#45;&gt;n8 -->
<g id="edge17" class="edge">
<title>n12&#45;&gt;n8</title>
<path fill="none" stroke="#64748b" d="M453.68,-447.63C461.05,-437.64 469.87,-424.6 476,-412 490.7,-381.79 493.83,-373.19 499,-340 501.46,-324.19 501.34,-319.83 499,-304 497.64,-294.78 495.01,-284.93 492.27,-276.26"/>
<polygon fill="#64748b" stroke="#64748b" points="494.66,-275.68 490.13,-269.81 490.01,-277.22 494.66,-275.68"/>
</g>
<!-- n12&#45;&gt;n11 -->
<g id="edge18" class="edge">
<title>n12&#45;&gt;n11</title>
<path fill="none" stroke="#64748b" d="M440,-447.7C440,-439.47 440,-429.48 440,-420.42"/>
<polygon fill="#64748b" stroke="#64748b" points="442.45,-420.62 440,-413.62 437.55,-420.62 442.45,-420.62"/>
</g>
<!-- n13 -->
<g id="node14" class="node">
<title>n13</title>
<g id="a_node14"><a xlink:href="vscode://vscode-remote/wsl+Ubuntu/home/gavin/statlib/Statlib/CoxChangePoint/Foundation.lean:112" xlink:title="noncomputable def · Statlib/CoxChangePoint/Foundation.lean:112" target="_blank">
<path fill="#d6e9ff" stroke="#3b82f6" d="M430,-556C430,-556 400,-556 400,-556 394,-556 388,-550 388,-544 388,-544 388,-532 388,-532 388,-526 394,-520 400,-520 400,-520 430,-520 430,-520 436,-520 442,-526 442,-532 442,-532 442,-544 442,-544 442,-550 436,-556 430,-556"/>
<text xml:space="preserve" text-anchor="middle" x="415" y="-535" font-family="Helvetica,sans-Serif" font-size="10.00">Gn</text>
</a>
</g>
</g>
<!-- n13&#45;&gt;n2 -->
<g id="edge20" class="edge">
<title>n13&#45;&gt;n2</title>
<path fill="none" stroke="#64748b" d="M442.18,-526.59C486.39,-507.67 569,-463.19 569,-395 569,-395 569,-395 569,-321 569,-276.44 542.75,-230.24 524.14,-203.09"/>
<polygon fill="#64748b" stroke="#64748b" points="526.26,-201.84 520.23,-197.52 522.25,-204.65 526.26,-201.84"/>
</g>
<!-- n13&#45;&gt;n7 -->
<g id="edge19" class="edge">
<title>n13&#45;&gt;n7</title>
<path fill="none" stroke="#64748b" d="M402.47,-519.84C395.38,-509.71 386.63,-496.46 380,-484 348.02,-423.94 338.05,-407.3 328,-340 320.85,-292.13 326.94,-278 342,-232 345.1,-222.52 349.49,-212.54 353.73,-203.82"/>
<polygon fill="#64748b" stroke="#64748b" points="355.92,-204.93 356.86,-197.57 351.53,-202.73 355.92,-204.93"/>
</g>
<!-- n13&#45;&gt;n12 -->
<g id="edge21" class="edge">
<title>n13&#45;&gt;n12</title>
<path fill="none" stroke="#64748b" d="M421.18,-519.7C424.18,-511.3 427.83,-501.07 431.12,-491.86"/>
<polygon fill="#64748b" stroke="#64748b" points="433.34,-492.95 433.38,-485.53 428.72,-491.3 433.34,-492.95"/>
</g>
<!-- n14 -->
<g id="node15" class="node">
<title>n14</title>
<g id="a_node15"><a xlink:href="vscode://vscode-remote/wsl+Ubuntu/home/gavin/statlib/Statlib/CoxChangePoint/Foundation.lean:127" xlink:title="def · Statlib/CoxChangePoint/Foundation.lean:127" target="_blank">
<path fill="#d6e9ff" stroke="#3b82f6" d="M226,-268C226,-268 196,-268 196,-268 190,-268 184,-262 184,-256 184,-256 184,-244 184,-244 184,-238 190,-232 196,-232 196,-232 226,-232 226,-232 232,-232 238,-238 238,-244 238,-244 238,-256 238,-256 238,-262 232,-268 226,-268"/>
<text xml:space="preserve" text-anchor="middle" x="211" y="-247" font-family="Helvetica,sans-Serif" font-size="10.00">Sample</text>
</a>
</g>
</g>
<!-- n14&#45;&gt;n7 -->
<g id="edge22" class="edge">
<title>n14&#45;&gt;n7</title>
<path fill="none" stroke="#64748b" d="M238.48,-235.93C241.36,-234.6 244.23,-233.26 247,-232 275.48,-218.99 307.97,-204.67 331.96,-194.2"/>
<polygon fill="#64748b" stroke="#64748b" points="332.92,-196.45 338.36,-191.41 330.96,-191.96 332.92,-196.45"/>
</g>
<!-- n15 -->
<g id="node16" class="node">
<title>n15</title>
<g id="a_node16"><a xlink:href="vscode://vscode-remote/wsl+Ubuntu/home/gavin/statlib/Statlib/CoxChangePoint/FPC.lean:64" xlink:title="noncomputable def · Statlib/CoxChangePoint/FPC.lean:64" target="_blank">
<path fill="#d6e9ff" stroke="#3b82f6" d="M119.73,-124C119.73,-124 88.27,-124 88.27,-124 82.27,-124 76.27,-118 76.27,-112 76.27,-112 76.27,-100 76.27,-100 76.27,-94 82.27,-88 88.27,-88 88.27,-88 119.73,-88 119.73,-88 125.73,-88 131.73,-94 131.73,-100 131.73,-100 131.73,-112 131.73,-112 131.73,-118 125.73,-124 119.73,-124"/>
<text xml:space="preserve" text-anchor="middle" x="104" y="-103" font-family="Helvetica,sans-Serif" font-size="10.00">fpcScore</text>
</a>
</g>
</g>
<!-- n15&#45;&gt;n3 -->
<g id="edge23" class="edge">
<title>n15&#45;&gt;n3</title>
<path fill="none" stroke="#64748b" d="M125.51,-87.7C136.8,-78.61 150.78,-67.36 162.91,-57.6"/>
<polygon fill="#64748b" stroke="#64748b" points="164.34,-59.59 168.26,-53.3 161.27,-55.78 164.34,-59.59"/>
</g>
<!-- n15&#45;&gt;n4 -->
<g id="edge24" class="edge">
<title>n15&#45;&gt;n4</title>
<path fill="none" stroke="#64748b" d="M92.38,-87.7C86.58,-79.05 79.46,-68.45 73.13,-59.03"/>
<polygon fill="#64748b" stroke="#64748b" points="75.26,-57.81 69.33,-53.36 71.2,-60.54 75.26,-57.81"/>
</g>
<!-- n16 -->
<g id="node17" class="node">
<title>n16</title>
<g id="a_node17"><a xlink:href="vscode://vscode-remote/wsl+Ubuntu/home/gavin/statlib/Statlib/CoxChangePoint/FPC.lean:69" xlink:title="noncomputable def · Statlib/CoxChangePoint/FPC.lean:69" target="_blank">
<path fill="#d6e9ff" stroke="#3b82f6" d="M134.41,-196C134.41,-196 69.59,-196 69.59,-196 63.59,-196 57.59,-190 57.59,-184 57.59,-184 57.59,-172 57.59,-172 57.59,-166 63.59,-160 69.59,-160 69.59,-160 134.41,-160 134.41,-160 140.41,-160 146.41,-166 146.41,-172 146.41,-172 146.41,-184 146.41,-184 146.41,-190 140.41,-196 134.41,-196"/>
<text xml:space="preserve" text-anchor="middle" x="102" y="-175" font-family="Helvetica,sans-Serif" font-size="10.00">truncatedScores</text>
</a>
</g>
</g>
<!-- n16&#45;&gt;n3 -->
<g id="edge25" class="edge">
<title>n16&#45;&gt;n3</title>
<path fill="none" stroke="#64748b" d="M115.55,-159.71C123.32,-149.54 133.07,-136.29 141,-124 154.62,-102.89 168.49,-77.87 178.15,-59.74"/>
<polygon fill="#64748b" stroke="#64748b" points="180.21,-61.1 181.32,-53.77 175.88,-58.81 180.21,-61.1"/>
</g>
<!-- n16&#45;&gt;n4 -->
<g id="edge26" class="edge">
<title>n16&#45;&gt;n4</title>
<path fill="none" stroke="#64748b" d="M87.4,-159.51C80.02,-149.69 71.66,-136.85 67,-124 59.58,-103.52 57.28,-78.81 56.73,-60.62"/>
<polygon fill="#64748b" stroke="#64748b" points="59.18,-60.74 56.61,-53.78 54.28,-60.82 59.18,-60.74"/>
</g>
<!-- n16&#45;&gt;n15 -->
<g id="edge27" class="edge">
<title>n16&#45;&gt;n15</title>
<path fill="none" stroke="#64748b" d="M102.49,-159.7C102.73,-151.47 103.01,-141.48 103.27,-132.42"/>
<polygon fill="#64748b" stroke="#64748b" points="105.72,-132.68 103.47,-125.62 100.82,-132.54 105.72,-132.68"/>
</g>
<!-- n17 -->
<g id="node18" class="node">
<title>n17</title>
<g id="a_node18"><a xlink:href="vscode://vscode-remote/wsl+Ubuntu/home/gavin/statlib/Statlib/CoxChangePoint/FPC.lean:110" xlink:title="noncomputable def · Statlib/CoxChangePoint/FPC.lean:110" target="_blank">
<path fill="#d6e9ff" stroke="#3b82f6" d="M133.69,-268C133.69,-268 48.31,-268 48.31,-268 42.31,-268 36.31,-262 36.31,-256 36.31,-256 36.31,-244 36.31,-244 36.31,-238 42.31,-232 48.31,-232 48.31,-232 133.69,-232 133.69,-232 139.69,-232 145.69,-238 145.69,-244 145.69,-244 145.69,-256 145.69,-256 145.69,-262 139.69,-268 133.69,-268"/>
<text xml:space="preserve" text-anchor="middle" x="91" y="-247" font-family="Helvetica,sans-Serif" font-size="10.00">CoxObs.ofFunctional</text>
</a>
</g>
</g>
<!-- n17&#45;&gt;n3 -->
<g id="edge28" class="edge">
<title>n17&#45;&gt;n3</title>
<path fill="none" stroke="#64748b" d="M119.64,-231.59C132.3,-222.49 146.26,-210.27 155,-196 181.09,-153.4 188.34,-94.12 190.31,-60.65"/>
<polygon fill="#64748b" stroke="#64748b" points="192.75,-60.96 190.65,-53.84 187.86,-60.71 192.75,-60.96"/>
</g>
<!-- n17&#45;&gt;n4 -->
<g id="edge29" class="edge">
<title>n17&#45;&gt;n4</title>
<path fill="none" stroke="#64748b" d="M72.4,-231.76C63.47,-222.2 53.71,-209.53 49,-196 33.03,-150.15 42.38,-92.5 50.07,-60.1"/>
<polygon fill="#64748b" stroke="#64748b" points="52.39,-60.9 51.7,-53.52 47.64,-59.72 52.39,-60.9"/>
</g>
<!-- n17&#45;&gt;n7 -->
<g id="edge30" class="edge">
<title>n17&#45;&gt;n7</title>
<path fill="none" stroke="#64748b" d="M146.19,-235C201.39,-221 284.66,-199.88 331.58,-187.98"/>
<polygon fill="#64748b" stroke="#64748b" points="331.98,-190.41 338.16,-186.31 330.77,-185.66 331.98,-190.41"/>
</g>
<!-- n17&#45;&gt;n16 -->
<g id="edge31" class="edge">
<title>n17&#45;&gt;n16</title>
<path fill="none" stroke="#64748b" d="M93.72,-231.7C95.01,-223.47 96.58,-213.48 98.01,-204.42"/>
<polygon fill="#64748b" stroke="#64748b" points="100.41,-204.9 99.08,-197.6 95.57,-204.13 100.41,-204.9"/>
</g>
<!-- n18 -->
<g id="node19" class="node">
<title>n18</title>
<g id="a_node19"><a xlink:href="vscode://vscode-remote/wsl+Ubuntu/home/gavin/statlib/Statlib/CoxChangePoint/FPC.lean:158" xlink:title="noncomputable def · Statlib/CoxChangePoint/FPC.lean:158" target="_blank">
<path fill="#d6e9ff" stroke="#3b82f6" d="M188.52,-340C188.52,-340 141.48,-340 141.48,-340 135.48,-340 129.48,-334 129.48,-328 129.48,-328 129.48,-316 129.48,-316 129.48,-310 135.48,-304 141.48,-304 141.48,-304 188.52,-304 188.52,-304 194.52,-304 200.52,-310 200.52,-316 200.52,-316 200.52,-328 200.52,-328 200.52,-334 194.52,-340 188.52,-340"/>
<text xml:space="preserve" text-anchor="middle" x="165" y="-319" font-family="Helvetica,sans-Serif" font-size="10.00">buildSample</text>
</a>
</g>
</g>
<!-- n18&#45;&gt;n3 -->
<g id="edge32" class="edge">
<title>n18&#45;&gt;n3</title>
<path fill="none" stroke="#64748b" d="M166.82,-303.59C168.73,-285.64 171.88,-256.84 175,-232 181.04,-183.92 186.39,-172.33 190,-124 191.59,-102.68 191.76,-78.41 191.57,-60.6"/>
<polygon fill="#64748b" stroke="#64748b" points="194.02,-60.9 191.48,-53.94 189.13,-60.97 194.02,-60.9"/>
</g>
<!-- n18&#45;&gt;n4 -->
<g id="edge33" class="edge">
<title>n18&#45;&gt;n4</title>
<path fill="none" stroke="#64748b" d="M129.29,-318.25C96.55,-313.62 49.82,-301.21 27,-268 -17.22,-203.65 21.47,-105.26 43.8,-59.71"/>
<polygon fill="#64748b" stroke="#64748b" points="45.86,-61.06 46.81,-53.71 41.48,-58.87 45.86,-61.06"/>
</g>
<!-- n18&#45;&gt;n14 -->
<g id="edge34" class="edge">
<title>n18&#45;&gt;n14</title>
<path fill="none" stroke="#64748b" d="M176.37,-303.7C182.05,-295.05 189.02,-284.45 195.21,-275.03"/>
<polygon fill="#64748b" stroke="#64748b" points="197.13,-276.56 198.93,-269.37 193.04,-273.87 197.13,-276.56"/>
</g>
<!-- n18&#45;&gt;n17 -->
<g id="edge35" class="edge">
<title>n18&#45;&gt;n17</title>
<path fill="none" stroke="#64748b" d="M146.71,-303.7C137.28,-294.78 125.65,-283.78 115.46,-274.14"/>
<polygon fill="#64748b" stroke="#64748b" points="117.21,-272.42 110.44,-269.39 113.84,-275.98 117.21,-272.42"/>
</g>
<!-- n19 -->
<g id="node20" class="node">
<title>n19</title>
<g id="a_node20"><a xlink:href="vscode://vscode-remote/wsl+Ubuntu/home/gavin/statlib/Statlib/CoxChangePoint/CoxModel.lean:132" xlink:title="def · Statlib/CoxChangePoint/CoxModel.lean:132" target="_blank">
<path fill="#d6e9ff" stroke="#3b82f6" d="M245,-412C245,-412 215,-412 215,-412 209,-412 203,-406 203,-400 203,-400 203,-388 203,-388 203,-382 209,-376 215,-376 215,-376 245,-376 245,-376 251,-376 257,-382 257,-388 257,-388 257,-400 257,-400 257,-406 251,-412 245,-412"/>
<text xml:space="preserve" text-anchor="middle" x="230" y="-391" font-family="Helvetica,sans-Serif" font-size="10.00">sample</text>
</a>
</g>
</g>
<!-- n19&#45;&gt;n5 -->
<g id="edge36" class="edge">
<title>n19&#45;&gt;n5</title>
<path fill="none" stroke="#64748b" d="M236.99,-375.59C247.04,-350.54 265.64,-304.22 277.1,-275.66"/>
<polygon fill="#64748b" stroke="#64748b" points="279.23,-276.92 279.57,-269.52 274.69,-275.1 279.23,-276.92"/>
</g>
<!-- n19&#45;&gt;n14 -->
<g id="edge37" class="edge">
<title>n19&#45;&gt;n14</title>
<path fill="none" stroke="#64748b" d="M227.67,-375.59C224.35,-350.76 218.23,-305.01 214.4,-276.4"/>
<polygon fill="#64748b" stroke="#64748b" points="216.85,-276.22 213.49,-269.61 211.99,-276.87 216.85,-276.22"/>
</g>
<!-- n19&#45;&gt;n18 -->
<g id="edge38" class="edge">
<title>n19&#45;&gt;n18</title>
<path fill="none" stroke="#64748b" d="M213.93,-375.7C205.67,-366.8 195.48,-355.82 186.54,-346.2"/>
<polygon fill="#64748b" stroke="#64748b" points="188.47,-344.68 181.91,-341.21 184.88,-348.01 188.47,-344.68"/>
</g>
<!-- n20 -->
<g id="node21" class="node">
<title>n20</title>
<g id="a_node21"><a xlink:href="vscode://vscode-remote/wsl+Ubuntu/home/gavin/statlib/Statlib/CoxChangePoint/CoxConsistencyEndToEnd.lean:93" xlink:title="structure · Statlib/CoxChangePoint/CoxConsistencyEndToEnd.lean:93" target="_blank">
<path fill="#e8dcff" stroke="#8b5cf6" d="M338.48,-628C338.48,-628 237.52,-628 237.52,-628 231.52,-628 225.52,-622 225.52,-616 225.52,-616 225.52,-604 225.52,-604 225.52,-598 231.52,-592 237.52,-592 237.52,-592 338.48,-592 338.48,-592 344.48,-592 350.48,-598 350.48,-604 350.48,-604 350.48,-616 350.48,-616 350.48,-622 344.48,-628 338.48,-628"/>
<text xml:space="preserve" text-anchor="middle" x="288" y="-607" font-family="Helvetica,sans-Serif" font-size="10.00">CoxBaselineHypotheses</text>
</a>
</g>
</g>
<!-- n20&#45;&gt;n5 -->
<g id="edge39" class="edge">
<title>n20&#45;&gt;n5</title>
<path fill="none" stroke="#64748b" d="M287.39,-591.51C286.52,-564.72 285,-511.88 285,-467 285,-467 285,-467 285,-393 285,-352.33 285.83,-305.12 286.42,-276.68"/>
<polygon fill="#64748b" stroke="#64748b" points="288.86,-277.05 286.56,-270 283.96,-276.95 288.86,-277.05"/>
</g>
<!-- n20&#45;&gt;n6 -->
<g id="edge40" class="edge">
<title>n20&#45;&gt;n6</title>
<path fill="none" stroke="#64748b" d="M299.87,-591.7C305.79,-583.05 313.06,-572.45 319.52,-563.03"/>
<polygon fill="#64748b" stroke="#64748b" points="321.48,-564.51 323.42,-557.35 317.44,-561.74 321.48,-564.51"/>
</g>
<!-- n20&#45;&gt;n13 -->
<g id="edge41" class="edge">
<title>n20&#45;&gt;n13</title>
<path fill="none" stroke="#64748b" d="M319.72,-591.52C338.14,-581.36 361.37,-568.56 380.28,-558.14"/>
<polygon fill="#64748b" stroke="#64748b" points="381.28,-560.38 386.23,-554.86 378.92,-556.09 381.28,-560.38"/>
</g>
<!-- n20&#45;&gt;n19 -->
<g id="edge42" class="edge">
<title>n20&#45;&gt;n19</title>
<path fill="none" stroke="#64748b" d="M283.35,-591.85C273.17,-554.28 248.86,-464.58 236.89,-420.43"/>
<polygon fill="#64748b" stroke="#64748b" points="239.26,-419.81 235.07,-413.69 234.53,-421.09 239.26,-419.81"/>
</g>
<!-- n21 -->
<g id="node22" class="node">
<title>n21</title>
<g id="a_node22"><a xlink:href="vscode://vscode-remote/wsl+Ubuntu/home/gavin/statlib/Statlib/CoxChangePoint/CoxConsistencyEndToEnd.lean:173" xlink:title="theorem · Statlib/CoxChangePoint/CoxConsistencyEndToEnd.lean:173" target="_blank">
<path fill="#ffe6a3" stroke="#d4a017" stroke-width="3" d="M248.56,-700C248.56,-700 215.44,-700 215.44,-700 209.44,-700 203.44,-694 203.44,-688 203.44,-688 203.44,-676 203.44,-676 203.44,-670 209.44,-664 215.44,-664 215.44,-664 248.56,-664 248.56,-664 254.56,-664 260.56,-670 260.56,-676 260.56,-676 260.56,-688 260.56,-688 260.56,-694 254.56,-700 248.56,-700"/>
<text xml:space="preserve" text-anchor="middle" x="232" y="-679" font-family="Helvetica,sans-Serif" font-size="10.00">asymDist</text>
</a>
</g>
</g>
<!-- n21&#45;&gt;n1 -->
<g id="edge43" class="edge">
<title>n21&#45;&gt;n1</title>
<path fill="none" stroke="#64748b" d="M217.29,-662.61C210.4,-654 202.12,-643.65 194.79,-634.49"/>
<polygon fill="#64748b" stroke="#64748b" points="196.89,-633.19 190.6,-629.25 193.06,-636.25 196.89,-633.19"/>
</g>
<!-- n21&#45;&gt;n20 -->
<g id="edge44" class="edge">
<title>n21&#45;&gt;n20</title>
<path fill="none" stroke="#64748b" d="M246.71,-662.61C253.6,-654 261.88,-643.65 269.21,-634.49"/>
<polygon fill="#64748b" stroke="#64748b" points="270.94,-636.25 273.4,-629.25 267.11,-633.19 270.94,-636.25"/>
</g>
</g>
</svg>
