<?xml version="1.0" encoding="UTF-8" standalone="no"?>
<!DOCTYPE svg PUBLIC "-//W3C//DTD SVG 1.1//EN"
 "http://www.w3.org/Graphics/SVG/1.1/DTD/svg11.dtd">
<!-- Generated by graphviz version 15.0.0 (20260523.1842)
 -->
<!-- Title: buildLemmaS1Data Pages: 1 -->
<svg width="435pt" height="626pt"
 viewBox="0.00 0.00 435.00 626.00" xmlns="http://www.w3.org/2000/svg" xmlns:xlink="http://www.w3.org/1999/xlink">
<g id="graph0" class="graph" transform="scale(1 1) rotate(0) translate(4 622)">
<title>buildLemmaS1Data</title>
<polygon fill="white" stroke="none" points="-4,4 -4,-622 431,-622 431,4 -4,4"/>
<text xml:space="preserve" text-anchor="middle" x="213.5" y="-601.4" font-family="Helvetica,sans-Serif" font-size="14.00">Proof narrative — buildLemmaS1Data &#160;(16 decls)</text>
<g id="clust1" class="cluster">
<title>cluster_0</title>
<path fill="none" stroke="#cbd5e1" stroke-dasharray="5,2" d="M20,-8C20,-8 407,-8 407,-8 413,-8 419,-14 419,-20 419,-20 419,-573.2 419,-573.2 419,-579.2 413,-585.2 407,-585.2 407,-585.2 20,-585.2 20,-585.2 14,-585.2 8,-579.2 8,-573.2 8,-573.2 8,-20 8,-20 8,-14 14,-8 20,-8"/>
<text xml:space="preserve" text-anchor="middle" x="213.5" y="-571.3" font-family="Helvetica,sans-Serif" font-size="11.00">CoxChangePoint</text>
</g>
<!-- n0 -->
<g id="node1" class="node">
<title>n0</title>
<g id="a_node1"><a xlink:href="vscode://vscode-remote/wsl+Ubuntu/home/gavin/statlib/Statlib/CoxChangePoint/Auto/uniform_convergence_of_Gn.lean:37" xlink:title="structure · Statlib/CoxChangePoint/Auto/uniform_convergence_of_Gn.lean:37" target="_blank">
<path fill="#e8dcff" stroke="#8b5cf6" d="M157.62,-340C157.62,-340 108.38,-340 108.38,-340 102.38,-340 96.38,-334 96.38,-328 96.38,-328 96.38,-316 96.38,-316 96.38,-310 102.38,-304 108.38,-304 108.38,-304 157.62,-304 157.62,-304 163.62,-304 169.62,-310 169.62,-316 169.62,-316 169.62,-328 169.62,-328 169.62,-334 163.62,-340 157.62,-340"/>
<text xml:space="preserve" text-anchor="middle" x="133" y="-319" font-family="Helvetica,sans-Serif" font-size="10.00">Assumptions</text>
</a>
</g>
</g>
<!-- n1 -->
<g id="node2" class="node">
<title>n1</title>
<g id="a_node2"><a xlink:href="vscode://vscode-remote/wsl+Ubuntu/home/gavin/statlib/Statlib/CoxChangePoint/Foundation.lean:38" xlink:title="structure · Statlib/CoxChangePoint/Foundation.lean:38" target="_blank">
<path fill="#e8dcff" stroke="#8b5cf6" d="M313,-52C313,-52 283,-52 283,-52 277,-52 271,-46 271,-40 271,-40 271,-28 271,-28 271,-22 277,-16 283,-16 283,-16 313,-16 313,-16 319,-16 325,-22 325,-28 325,-28 325,-40 325,-40 325,-46 319,-52 313,-52"/>
<text xml:space="preserve" text-anchor="middle" x="298" y="-31" font-family="Helvetica,sans-Serif" font-size="10.00">CoxObs</text>
</a>
</g>
</g>
<!-- n2 -->
<g id="node3" class="node">
<title>n2</title>
<g id="a_node3"><a xlink:href="vscode://vscode-remote/wsl+Ubuntu/home/gavin/statlib/Statlib/CoxChangePoint/Bridge.lean:39" xlink:title="def · Statlib/CoxChangePoint/Bridge.lean:39" target="_blank">
<path fill="#d6e9ff" stroke="#3b82f6" d="M139.73,-412C139.73,-412 88.27,-412 88.27,-412 82.27,-412 76.27,-406 76.27,-400 76.27,-400 76.27,-388 76.27,-388 76.27,-382 82.27,-376 88.27,-376 88.27,-376 139.73,-376 139.73,-376 145.73,-376 151.73,-382 151.73,-388 151.73,-388 151.73,-400 151.73,-400 151.73,-406 145.73,-412 139.73,-412"/>
<text xml:space="preserve" text-anchor="middle" x="114" y="-391" font-family="Helvetica,sans-Serif" font-size="10.00">TruncSample</text>
</a>
</g>
</g>
<!-- n2&#45;&gt;n0 -->
<g id="edge1" class="edge">
<title>n2&#45;&gt;n0</title>
<path fill="none" stroke="#64748b" d="M118.7,-375.7C120.95,-367.39 123.7,-357.28 126.18,-348.14"/>
<polygon fill="#64748b" stroke="#64748b" points="128.49,-348.96 127.96,-341.57 123.76,-347.68 128.49,-348.96"/>
</g>
<!-- n2&#45;&gt;n1 -->
<g id="edge2" class="edge">
<title>n2&#45;&gt;n1</title>
<path fill="none" stroke="#64748b" d="M102.21,-375.52C91.58,-357.51 78.78,-328.66 87,-304 93.32,-285.03 104.63,-285.67 114,-268 153.64,-193.25 118.55,-150.12 176,-88 198.95,-63.19 235.53,-49.42 262.66,-42.18"/>
<polygon fill="#64748b" stroke="#64748b" points="263.1,-44.6 269.28,-40.51 261.9,-39.85 263.1,-44.6"/>
</g>
<!-- n3 -->
<g id="node4" class="node">
<title>n3</title>
<g id="a_node4"><a xlink:href="vscode://vscode-remote/wsl+Ubuntu/home/gavin/statlib/Statlib/CoxChangePoint/Foundation.lean:57" xlink:title="structure · Statlib/CoxChangePoint/Foundation.lean:57" target="_blank">
<path fill="#e8dcff" stroke="#8b5cf6" d="M135.62,-52C135.62,-52 96.38,-52 96.38,-52 90.38,-52 84.38,-46 84.38,-40 84.38,-40 84.38,-28 84.38,-28 84.38,-22 90.38,-16 96.38,-16 96.38,-16 135.62,-16 135.62,-16 141.62,-16 147.62,-22 147.62,-28 147.62,-28 147.62,-40 147.62,-40 147.62,-46 141.62,-52 135.62,-52"/>
<text xml:space="preserve" text-anchor="middle" x="116" y="-31" font-family="Helvetica,sans-Serif" font-size="10.00">CoxParam</text>
</a>
</g>
</g>
<!-- n4 -->
<g id="node5" class="node">
<title>n4</title>
<g id="a_node5"><a xlink:href="vscode://vscode-remote/wsl+Ubuntu/home/gavin/statlib/Statlib/CoxChangePoint/Auto/uniform_convergence_of_Gn.lean:29" xlink:title="structure · Statlib/CoxChangePoint/Auto/uniform_convergence_of_Gn.lean:29" target="_blank">
<path fill="#e8dcff" stroke="#8b5cf6" d="M238.62,-340C238.62,-340 199.38,-340 199.38,-340 193.38,-340 187.38,-334 187.38,-328 187.38,-328 187.38,-316 187.38,-316 187.38,-310 193.38,-304 199.38,-304 199.38,-304 238.62,-304 238.62,-304 244.62,-304 250.62,-310 250.62,-316 250.62,-316 250.62,-328 250.62,-328 250.62,-334 244.62,-340 238.62,-340"/>
<text xml:space="preserve" text-anchor="middle" x="219" y="-319" font-family="Helvetica,sans-Serif" font-size="10.00">CoxParam</text>
</a>
</g>
</g>
<!-- n5 -->
<g id="node6" class="node">
<title>n5</title>
<g id="a_node6"><a xlink:href="vscode://vscode-remote/wsl+Ubuntu/home/gavin/statlib/Statlib/CoxChangePoint/Auto/uniform_convergence_of_Gn.lean:70" xlink:title="def · Statlib/CoxChangePoint/Auto/uniform_convergence_of_Gn.lean:70" target="_blank">
<path fill="#d6e9ff" stroke="#3b82f6" d="M270.35,-412C270.35,-412 221.65,-412 221.65,-412 215.65,-412 209.65,-406 209.65,-400 209.65,-400 209.65,-388 209.65,-388 209.65,-382 215.65,-376 221.65,-376 221.65,-376 270.35,-376 270.35,-376 276.35,-376 282.35,-382 282.35,-388 282.35,-388 282.35,-400 282.35,-400 282.35,-406 276.35,-412 270.35,-412"/>
<text xml:space="preserve" text-anchor="middle" x="246" y="-391" font-family="Helvetica,sans-Serif" font-size="10.00">paramSpace</text>
</a>
</g>
</g>
<!-- n5&#45;&gt;n0 -->
<g id="edge3" class="edge">
<title>n5&#45;&gt;n0</title>
<path fill="none" stroke="#64748b" d="M217.78,-375.52C202.7,-366.18 184,-354.59 168,-344.68"/>
<polygon fill="#64748b" stroke="#64748b" points="169.39,-342.66 162.15,-341.06 166.81,-346.83 169.39,-342.66"/>
</g>
<!-- n5&#45;&gt;n4 -->
<g id="edge4" class="edge">
<title>n5&#45;&gt;n4</title>
<path fill="none" stroke="#64748b" d="M239.33,-375.7C236.09,-367.3 232.14,-357.07 228.59,-347.86"/>
<polygon fill="#64748b" stroke="#64748b" points="230.95,-347.17 226.14,-341.52 226.38,-348.93 230.95,-347.17"/>
</g>
<!-- n6 -->
<g id="node7" class="node">
<title>n6</title>
<g id="a_node7"><a xlink:href="vscode://vscode-remote/wsl+Ubuntu/home/gavin/statlib/Statlib/CoxChangePoint/Foundation.lean:68" xlink:title="noncomputable def · Statlib/CoxChangePoint/Foundation.lean:68" target="_blank">
<path fill="#d6e9ff" stroke="#3b82f6" d="M227,-124C227,-124 197,-124 197,-124 191,-124 185,-118 185,-112 185,-112 185,-100 185,-100 185,-94 191,-88 197,-88 197,-88 227,-88 227,-88 233,-88 239,-94 239,-100 239,-100 239,-112 239,-112 239,-118 233,-124 227,-124"/>
<text xml:space="preserve" text-anchor="middle" x="212" y="-103" font-family="Helvetica,sans-Serif" font-size="10.00">g</text>
</a>
</g>
</g>
<!-- n6&#45;&gt;n1 -->
<g id="edge6" class="edge">
<title>n6&#45;&gt;n1</title>
<path fill="none" stroke="#64748b" d="M233.26,-87.7C244.42,-78.61 258.24,-67.36 270.24,-57.6"/>
<polygon fill="#64748b" stroke="#64748b" points="271.63,-59.62 275.51,-53.3 268.54,-55.82 271.63,-59.62"/>
</g>
<!-- n6&#45;&gt;n3 -->
<g id="edge5" class="edge">
<title>n6&#45;&gt;n3</title>
<path fill="none" stroke="#64748b" d="M188.27,-87.7C175.69,-78.53 160.1,-67.16 146.62,-57.33"/>
<polygon fill="#64748b" stroke="#64748b" points="148.11,-55.38 141.01,-53.24 145.23,-59.34 148.11,-55.38"/>
</g>
<!-- n7 -->
<g id="node8" class="node">
<title>n7</title>
<g id="a_node8"><a xlink:href="vscode://vscode-remote/wsl+Ubuntu/home/gavin/statlib/Statlib/CoxChangePoint/Foundation.lean:89" xlink:title="noncomputable def · Statlib/CoxChangePoint/Foundation.lean:89" target="_blank">
<path fill="#d6e9ff" stroke="#3b82f6" d="M359,-124C359,-124 329,-124 329,-124 323,-124 317,-118 317,-112 317,-112 317,-100 317,-100 317,-94 323,-88 329,-88 329,-88 359,-88 359,-88 365,-88 371,-94 371,-100 371,-100 371,-112 371,-112 371,-118 365,-124 359,-124"/>
<text xml:space="preserve" text-anchor="middle" x="344" y="-103" font-family="Helvetica,sans-Serif" font-size="10.00">atRisk</text>
</a>
</g>
</g>
<!-- n7&#45;&gt;n1 -->
<g id="edge7" class="edge">
<title>n7&#45;&gt;n1</title>
<path fill="none" stroke="#64748b" d="M332.63,-87.7C326.95,-79.05 319.98,-68.45 313.79,-59.03"/>
<polygon fill="#64748b" stroke="#64748b" points="315.96,-57.87 310.07,-53.37 311.87,-60.56 315.96,-57.87"/>
</g>
<!-- n8 -->
<g id="node9" class="node">
<title>n8</title>
<g id="a_node9"><a xlink:href="vscode://vscode-remote/wsl+Ubuntu/home/gavin/statlib/Statlib/CoxChangePoint/Foundation.lean:75" xlink:title="noncomputable def · Statlib/CoxChangePoint/Foundation.lean:75" target="_blank">
<path fill="#d6e9ff" stroke="#3b82f6" d="M268,-196C268,-196 238,-196 238,-196 232,-196 226,-190 226,-184 226,-184 226,-172 226,-172 226,-166 232,-160 238,-160 238,-160 268,-160 268,-160 274,-160 280,-166 280,-172 280,-172 280,-184 280,-184 280,-190 274,-196 268,-196"/>
<text xml:space="preserve" text-anchor="middle" x="253" y="-175" font-family="Helvetica,sans-Serif" font-size="10.00">expG</text>
</a>
</g>
</g>
<!-- n8&#45;&gt;n1 -->
<g id="edge9" class="edge">
<title>n8&#45;&gt;n1</title>
<path fill="none" stroke="#64748b" d="M258.52,-159.59C266.42,-134.65 281.01,-88.62 290.07,-60.03"/>
<polygon fill="#64748b" stroke="#64748b" points="292.34,-60.97 292.12,-53.55 287.67,-59.49 292.34,-60.97"/>
</g>
<!-- n8&#45;&gt;n3 -->
<g id="edge8" class="edge">
<title>n8&#45;&gt;n3</title>
<path fill="none" stroke="#64748b" d="M257.07,-159.82C260.61,-140.47 263.07,-109 248,-88 226.94,-58.66 186.86,-45.55 156.37,-39.69"/>
<polygon fill="#64748b" stroke="#64748b" points="156.86,-37.29 149.54,-38.49 156.01,-42.12 156.86,-37.29"/>
</g>
<!-- n8&#45;&gt;n6 -->
<g id="edge10" class="edge">
<title>n8&#45;&gt;n6</title>
<path fill="none" stroke="#64748b" d="M242.87,-159.7C237.85,-151.14 231.71,-140.66 226.24,-131.3"/>
<polygon fill="#64748b" stroke="#64748b" points="228.44,-130.21 222.78,-125.41 224.21,-132.69 228.44,-130.21"/>
</g>
<!-- n9 -->
<g id="node10" class="node">
<title>n9</title>
<g id="a_node10"><a xlink:href="vscode://vscode-remote/wsl+Ubuntu/home/gavin/statlib/Statlib/CoxChangePoint/Foundation.lean:93" xlink:title="noncomputable def · Statlib/CoxChangePoint/Foundation.lean:93" target="_blank">
<path fill="#d6e9ff" stroke="#3b82f6" d="M314,-268C314,-268 284,-268 284,-268 278,-268 272,-262 272,-256 272,-256 272,-244 272,-244 272,-238 278,-232 284,-232 284,-232 314,-232 314,-232 320,-232 326,-238 326,-244 326,-244 326,-256 326,-256 326,-262 320,-268 314,-268"/>
<text xml:space="preserve" text-anchor="middle" x="299" y="-247" font-family="Helvetica,sans-Serif" font-size="10.00">riskSum</text>
</a>
</g>
</g>
<!-- n9&#45;&gt;n1 -->
<g id="edge11" class="edge">
<title>n9&#45;&gt;n1</title>
<path fill="none" stroke="#64748b" d="M298.92,-231.85C298.74,-194.36 298.33,-104.95 298.12,-60.7"/>
<polygon fill="#64748b" stroke="#64748b" points="300.57,-60.73 298.09,-53.75 295.67,-60.76 300.57,-60.73"/>
</g>
<!-- n9&#45;&gt;n3 -->
<g id="edge12" class="edge">
<title>n9&#45;&gt;n3</title>
<path fill="none" stroke="#64748b" d="M271.75,-235.38C254.67,-225.93 232.95,-212.17 217,-196 176.02,-154.47 143.47,-93.5 127.25,-59.76"/>
<polygon fill="#64748b" stroke="#64748b" points="129.52,-58.84 124.31,-53.56 125.1,-60.93 129.52,-58.84"/>
</g>
<!-- n9&#45;&gt;n7 -->
<g id="edge13" class="edge">
<title>n9&#45;&gt;n7</title>
<path fill="none" stroke="#64748b" d="M304.52,-231.59C312.42,-206.65 327.01,-160.62 336.07,-132.03"/>
<polygon fill="#64748b" stroke="#64748b" points="338.34,-132.97 338.12,-125.55 333.67,-131.49 338.34,-132.97"/>
</g>
<!-- n9&#45;&gt;n8 -->
<g id="edge14" class="edge">
<title>n9&#45;&gt;n8</title>
<path fill="none" stroke="#64748b" d="M287.63,-231.7C281.95,-223.05 274.98,-212.45 268.79,-203.03"/>
<polygon fill="#64748b" stroke="#64748b" points="270.96,-201.87 265.07,-197.37 266.87,-204.56 270.96,-201.87"/>
</g>
<!-- n10 -->
<g id="node11" class="node">
<title>n10</title>
<g id="a_node11"><a xlink:href="vscode://vscode-remote/wsl+Ubuntu/home/gavin/statlib/Statlib/CoxChangePoint/Foundation.lean:104" xlink:title="noncomputable def · Statlib/CoxChangePoint/Foundation.lean:104" target="_blank">
<path fill="#d6e9ff" stroke="#3b82f6" d="M379.36,-340C379.36,-340 300.64,-340 300.64,-340 294.64,-340 288.64,-334 288.64,-328 288.64,-328 288.64,-316 288.64,-316 288.64,-310 294.64,-304 300.64,-304 300.64,-304 379.36,-304 379.36,-304 385.36,-304 391.36,-310 391.36,-316 391.36,-316 391.36,-328 391.36,-328 391.36,-334 385.36,-340 379.36,-340"/>
<text xml:space="preserve" text-anchor="middle" x="340" y="-319" font-family="Helvetica,sans-Serif" font-size="10.00">logPartialLikelihood</text>
</a>
</g>
</g>
<!-- n10&#45;&gt;n1 -->
<g id="edge15" class="edge">
<title>n10&#45;&gt;n1</title>
<path fill="none" stroke="#64748b" d="M350.04,-303.69C372.05,-263.28 419.54,-160.64 380,-88 369.93,-69.5 350.32,-56.47 332.8,-47.97"/>
<polygon fill="#64748b" stroke="#64748b" points="334.21,-45.92 326.83,-45.22 332.17,-50.37 334.21,-45.92"/>
</g>
<!-- n10&#45;&gt;n3 -->
<g id="edge16" class="edge">
<title>n10&#45;&gt;n3</title>
<path fill="none" stroke="#64748b" d="M288.29,-303.5C268.23,-294.97 246.04,-283.22 229,-268 172.7,-217.74 168.79,-193.34 139,-124 130.18,-103.46 124.12,-78.75 120.45,-60.59"/>
<polygon fill="#64748b" stroke="#64748b" points="122.86,-60.13 119.12,-53.73 118.05,-61.06 122.86,-60.13"/>
</g>
<!-- n10&#45;&gt;n6 -->
<g id="edge17" class="edge">
<title>n10&#45;&gt;n6</title>
<path fill="none" stroke="#64748b" d="M308.98,-303.64C294,-294.32 276.42,-281.89 263,-268 236.61,-240.69 228.67,-232.14 217,-196 210.34,-175.37 209.47,-150.67 210.05,-132.53"/>
<polygon fill="#64748b" stroke="#64748b" points="212.49,-132.82 210.36,-125.71 207.59,-132.59 212.49,-132.82"/>
</g>
<!-- n10&#45;&gt;n9 -->
<g id="edge18" class="edge">
<title>n10&#45;&gt;n9</title>
<path fill="none" stroke="#64748b" d="M329.87,-303.7C324.85,-295.14 318.71,-284.66 313.24,-275.3"/>
<polygon fill="#64748b" stroke="#64748b" points="315.44,-274.21 309.78,-269.41 311.21,-276.69 315.44,-274.21"/>
</g>
<!-- n11 -->
<g id="node12" class="node">
<title>n11</title>
<g id="a_node12"><a xlink:href="vscode://vscode-remote/wsl+Ubuntu/home/gavin/statlib/Statlib/CoxChangePoint/Foundation.lean:112" xlink:title="noncomputable def · Statlib/CoxChangePoint/Foundation.lean:112" target="_blank">
<path fill="#d6e9ff" stroke="#3b82f6" d="M382,-412C382,-412 352,-412 352,-412 346,-412 340,-406 340,-400 340,-400 340,-388 340,-388 340,-382 346,-376 352,-376 352,-376 382,-376 382,-376 388,-376 394,-382 394,-388 394,-388 394,-400 394,-400 394,-406 388,-412 382,-412"/>
<text xml:space="preserve" text-anchor="middle" x="367" y="-391" font-family="Helvetica,sans-Serif" font-size="10.00">Gn</text>
</a>
</g>
</g>
<!-- n11&#45;&gt;n1 -->
<g id="edge19" class="edge">
<title>n11&#45;&gt;n1</title>
<path fill="none" stroke="#64748b" d="M380.42,-375.86C387.45,-365.94 395.52,-352.9 400,-340 413.06,-302.4 410,-290.8 410,-251 410,-251 410,-251 410,-177 410,-136.55 414.88,-120.64 391,-88 376.76,-68.54 353.06,-55.19 333.15,-46.75"/>
<polygon fill="#64748b" stroke="#64748b" points="334.26,-44.56 326.85,-44.22 332.43,-49.11 334.26,-44.56"/>
</g>
<!-- n11&#45;&gt;n3 -->
<g id="edge20" class="edge">
<title>n11&#45;&gt;n3</title>
<path fill="none" stroke="#64748b" d="M339.77,-381.02C321.22,-371.83 297.03,-357.73 280,-340 267.32,-326.8 273.11,-316.77 260,-304 235.22,-279.86 215.9,-292 191,-268 140.04,-218.88 138.35,-193.09 123,-124 118.32,-102.94 116.66,-78.46 116.12,-60.51"/>
<polygon fill="#64748b" stroke="#64748b" points="118.57,-60.73 115.97,-53.79 113.68,-60.84 118.57,-60.73"/>
</g>
<!-- n11&#45;&gt;n10 -->
<g id="edge21" class="edge">
<title>n11&#45;&gt;n10</title>
<path fill="none" stroke="#64748b" d="M360.33,-375.7C357.09,-367.3 353.14,-357.07 349.59,-347.86"/>
<polygon fill="#64748b" stroke="#64748b" points="351.95,-347.17 347.14,-341.52 347.38,-348.93 351.95,-347.17"/>
</g>
<!-- n12 -->
<g id="node13" class="node">
<title>n12</title>
<g id="a_node13"><a xlink:href="vscode://vscode-remote/wsl+Ubuntu/home/gavin/statlib/Statlib/CoxChangePoint/Bridge.lean:30" xlink:title="def · Statlib/CoxChangePoint/Bridge.lean:30" target="_blank">
<path fill="#d6e9ff" stroke="#3b82f6" d="M78,-268C78,-268 48,-268 48,-268 42,-268 36,-262 36,-256 36,-256 36,-244 36,-244 36,-238 42,-232 48,-232 48,-232 78,-232 78,-232 84,-232 90,-238 90,-244 90,-244 90,-256 90,-256 90,-262 84,-268 78,-268"/>
<text xml:space="preserve" text-anchor="middle" x="63" y="-247" font-family="Helvetica,sans-Serif" font-size="10.00">liftAuto</text>
</a>
</g>
</g>
<!-- n12&#45;&gt;n3 -->
<g id="edge22" class="edge">
<title>n12&#45;&gt;n3</title>
<path fill="none" stroke="#64748b" d="M62.33,-231.96C61.71,-201.92 62.9,-137.98 81,-88 84.64,-77.96 90.53,-67.92 96.46,-59.33"/>
<polygon fill="#64748b" stroke="#64748b" points="98.4,-60.83 100.51,-53.72 94.43,-57.96 98.4,-60.83"/>
</g>
<!-- n13 -->
<g id="node14" class="node">
<title>n13</title>
<g id="a_node14"><a xlink:href="vscode://vscode-remote/wsl+Ubuntu/home/gavin/statlib/Statlib/CoxChangePoint/Bridge.lean:44" xlink:title="noncomputable def · Statlib/CoxChangePoint/Bridge.lean:44" target="_blank">
<path fill="#d6e9ff" stroke="#3b82f6" d="M136.85,-484C136.85,-484 93.15,-484 93.15,-484 87.15,-484 81.15,-478 81.15,-472 81.15,-472 81.15,-460 81.15,-460 81.15,-454 87.15,-448 93.15,-448 93.15,-448 136.85,-448 136.85,-448 142.85,-448 148.85,-454 148.85,-460 148.85,-460 148.85,-472 148.85,-472 148.85,-478 142.85,-484 136.85,-484"/>
<text xml:space="preserve" text-anchor="middle" x="115" y="-463" font-family="Helvetica,sans-Serif" font-size="10.00">concreteGn</text>
</a>
</g>
</g>
<!-- n13&#45;&gt;n0 -->
<g id="edge23" class="edge">
<title>n13&#45;&gt;n0</title>
<path fill="none" stroke="#64748b" d="M135.82,-447.62C145.46,-438.2 155.89,-425.7 161,-412 169.03,-390.49 159.59,-365.51 149.55,-347.5"/>
<polygon fill="#64748b" stroke="#64748b" points="151.7,-346.33 146.04,-341.55 147.48,-348.82 151.7,-346.33"/>
</g>
<!-- n13&#45;&gt;n2 -->
<g id="edge24" class="edge">
<title>n13&#45;&gt;n2</title>
<path fill="none" stroke="#64748b" d="M114.75,-447.7C114.64,-439.47 114.49,-429.48 114.36,-420.42"/>
<polygon fill="#64748b" stroke="#64748b" points="116.82,-420.58 114.27,-413.62 111.92,-420.65 116.82,-420.58"/>
</g>
<!-- n13&#45;&gt;n3 -->
<g id="edge25" class="edge">
<title>n13&#45;&gt;n3</title>
<path fill="none" stroke="#64748b" d="M93.04,-447.55C83.06,-438.21 72.31,-425.78 67,-412 61.24,-397.07 65.57,-391.94 67,-376 69.9,-343.61 69.4,-334.74 80,-304 85.9,-286.9 94.01,-285.39 99,-268 104.6,-248.48 111.84,-116.88 114.73,-60.53"/>
<polygon fill="#64748b" stroke="#64748b" points="117.17,-60.79 115.08,-53.67 112.28,-60.54 117.17,-60.79"/>
</g>
<!-- n13&#45;&gt;n11 -->
<g id="edge26" class="edge">
<title>n13&#45;&gt;n11</title>
<path fill="none" stroke="#64748b" d="M149.25,-455.49C197.08,-442.2 283.44,-418.21 331.79,-404.78"/>
<polygon fill="#64748b" stroke="#64748b" points="332.23,-407.2 338.32,-402.97 330.92,-402.48 332.23,-407.2"/>
</g>
<!-- n13&#45;&gt;n12 -->
<g id="edge27" class="edge">
<title>n13&#45;&gt;n12</title>
<path fill="none" stroke="#64748b" d="M84.37,-447.57C71.89,-438.68 58.82,-426.64 52,-412 31.4,-367.75 43.94,-309.15 54.05,-276.24"/>
<polygon fill="#64748b" stroke="#64748b" points="56.28,-277.3 56.08,-269.89 51.61,-275.81 56.28,-277.3"/>
</g>
<!-- n14 -->
<g id="node15" class="node">
<title>n14</title>
<g id="a_node15"><a xlink:href="vscode://vscode-remote/wsl+Ubuntu/home/gavin/statlib/Statlib/CoxChangePoint/Auto/uniform_convergence_of_Gn.lean:84" xlink:title="structure · Statlib/CoxChangePoint/Auto/uniform_convergence_of_Gn.lean:84" target="_blank">
<path fill="#e8dcff" stroke="#8b5cf6" d="M330.35,-484C330.35,-484 271.65,-484 271.65,-484 265.65,-484 259.65,-478 259.65,-472 259.65,-472 259.65,-460 259.65,-460 259.65,-454 265.65,-448 271.65,-448 271.65,-448 330.35,-448 330.35,-448 336.35,-448 342.35,-454 342.35,-460 342.35,-460 342.35,-472 342.35,-472 342.35,-478 336.35,-484 330.35,-484"/>
<text xml:space="preserve" text-anchor="middle" x="301" y="-463" font-family="Helvetica,sans-Serif" font-size="10.00">LemmaS1Data</text>
</a>
</g>
</g>
<!-- n14&#45;&gt;n0 -->
<g id="edge28" class="edge">
<title>n14&#45;&gt;n0</title>
<path fill="none" stroke="#64748b" d="M304.14,-447.84C306.7,-428.21 307.57,-396.19 291,-376 257.57,-335.25 227.78,-357.32 178,-340 177.92,-339.97 177.83,-339.94 177.75,-339.91"/>
<polygon fill="#64748b" stroke="#64748b" points="178.62,-337.62 171.21,-337.58 176.98,-342.24 178.62,-337.62"/>
</g>
<!-- n14&#45;&gt;n4 -->
<g id="edge30" class="edge">
<title>n14&#45;&gt;n4</title>
<path fill="none" stroke="#64748b" d="M307.19,-447.7C312.81,-428.8 318.51,-398.26 306,-376 300.45,-366.11 278.62,-352.83 258.22,-342.04"/>
<polygon fill="#64748b" stroke="#64748b" points="259.49,-339.93 252.15,-338.88 257.23,-344.28 259.49,-339.93"/>
</g>
<!-- n14&#45;&gt;n5 -->
<g id="edge31" class="edge">
<title>n14&#45;&gt;n5</title>
<path fill="none" stroke="#64748b" d="M287.4,-447.7C280.54,-438.97 272.12,-428.24 264.66,-418.75"/>
<polygon fill="#64748b" stroke="#64748b" points="266.63,-417.29 260.37,-413.29 262.77,-420.31 266.63,-417.29"/>
</g>
<!-- n14&#45;&gt;n11 -->
<g id="edge29" class="edge">
<title>n14&#45;&gt;n11</title>
<path fill="none" stroke="#64748b" d="M317.31,-447.7C325.71,-438.8 336.05,-427.82 345.13,-418.2"/>
<polygon fill="#64748b" stroke="#64748b" points="346.82,-419.98 349.83,-413.21 343.25,-416.62 346.82,-419.98"/>
</g>
<!-- n15 -->
<g id="node16" class="node">
<title>n15</title>
<g id="a_node16"><a xlink:href="vscode://vscode-remote/wsl+Ubuntu/home/gavin/statlib/Statlib/CoxChangePoint/Bridge.lean:54" xlink:title="noncomputable def · Statlib/CoxChangePoint/Bridge.lean:54" target="_blank">
<path fill="#d6e9ff" stroke="#3b82f6" stroke-width="3" d="M230.91,-556C230.91,-556 151.09,-556 151.09,-556 145.09,-556 139.09,-550 139.09,-544 139.09,-544 139.09,-532 139.09,-532 139.09,-526 145.09,-520 151.09,-520 151.09,-520 230.91,-520 230.91,-520 236.91,-520 242.91,-526 242.91,-532 242.91,-532 242.91,-544 242.91,-544 242.91,-550 236.91,-556 230.91,-556"/>
<text xml:space="preserve" text-anchor="middle" x="191" y="-535" font-family="Helvetica,sans-Serif" font-size="10.00">buildLemmaS1Data</text>
</a>
</g>
</g>
<!-- n15&#45;&gt;n0 -->
<g id="edge32" class="edge">
<title>n15&#45;&gt;n0</title>
<path fill="none" stroke="#64748b" d="M190.97,-518.97C190.37,-488.52 186.74,-425.36 168,-376 164.11,-365.75 157.96,-355.47 151.9,-346.72"/>
<polygon fill="#64748b" stroke="#64748b" points="154.07,-345.54 147.98,-341.3 150.09,-348.41 154.07,-345.54"/>
</g>
<!-- n15&#45;&gt;n2 -->
<g id="edge33" class="edge">
<title>n15&#45;&gt;n2</title>
<path fill="none" stroke="#64748b" d="M186.22,-518.82C180.9,-500.25 171.27,-470.97 158,-448 151.93,-437.5 143.77,-427.01 136.12,-418.16"/>
<polygon fill="#64748b" stroke="#64748b" points="138.17,-416.77 131.69,-413.16 134.5,-420.02 138.17,-416.77"/>
</g>
<!-- n15&#45;&gt;n3 -->
<g id="edge34" class="edge">
<title>n15&#45;&gt;n3</title>
<path fill="none" stroke="#64748b" d="M137.61,-521.03C115.56,-512.57 90.82,-500.44 72,-484 36.98,-453.4 17,-441.5 17,-395 17,-395 17,-395 17,-177 17,-127.83 57.44,-83.5 86.63,-57.92"/>
<polygon fill="#64748b" stroke="#64748b" points="88.16,-59.83 91.89,-53.42 84.98,-56.11 88.16,-59.83"/>
</g>
<!-- n15&#45;&gt;n5 -->
<g id="edge35" class="edge">
<title>n15&#45;&gt;n5</title>
<path fill="none" stroke="#64748b" d="M198.08,-518.73C207.8,-493.64 225.31,-448.43 236.26,-420.16"/>
<polygon fill="#64748b" stroke="#64748b" points="238.5,-421.14 238.75,-413.73 233.93,-419.37 238.5,-421.14"/>
</g>
<!-- n15&#45;&gt;n11 -->
<g id="edge38" class="edge">
<title>n15&#45;&gt;n11</title>
<path fill="none" stroke="#64748b" d="M244.4,-533.1C279.79,-527.62 324.45,-514.62 351,-484 365.98,-466.72 369.1,-440.28 368.99,-420.71"/>
<polygon fill="#64748b" stroke="#64748b" points="371.45,-420.7 368.8,-413.77 366.55,-420.84 371.45,-420.7"/>
</g>
<!-- n15&#45;&gt;n13 -->
<g id="edge36" class="edge">
<title>n15&#45;&gt;n13</title>
<path fill="none" stroke="#64748b" d="M171.03,-518.61C161.49,-509.82 149.97,-499.21 139.87,-489.9"/>
<polygon fill="#64748b" stroke="#64748b" points="141.71,-488.27 134.9,-485.33 138.39,-491.88 141.71,-488.27"/>
</g>
<!-- n15&#45;&gt;n14 -->
<g id="edge37" class="edge">
<title>n15&#45;&gt;n14</title>
<path fill="none" stroke="#64748b" d="M219.9,-518.61C234.23,-509.49 251.64,-498.41 266.65,-488.86"/>
<polygon fill="#64748b" stroke="#64748b" points="267.94,-490.94 272.53,-485.12 265.31,-486.81 267.94,-490.94"/>
</g>
</g>
</svg>
