<?xml version="1.0" encoding="UTF-8" standalone="no"?>
<!DOCTYPE svg PUBLIC "-//W3C//DTD SVG 1.1//EN"
 "http://www.w3.org/Graphics/SVG/1.1/DTD/svg11.dtd">
<!-- Generated by graphviz version 15.0.0 (20260523.1842)
 -->
<!-- Title: cox_consistency_end_to_end Pages: 1 -->
<svg width="1542pt" height="843pt"
 viewBox="0.00 0.00 1542.00 843.00" xmlns="http://www.w3.org/2000/svg" xmlns:xlink="http://www.w3.org/1999/xlink">
<g id="graph0" class="graph" transform="scale(1 1) rotate(0) translate(4 839.2)">
<title>cox_consistency_end_to_end</title>
<polygon fill="white" stroke="none" points="-4,4 -4,-839.2 1538,-839.2 1538,4 -4,4"/>
<text xml:space="preserve" text-anchor="middle" x="767" y="-818.6" font-family="Helvetica,sans-Serif" font-size="14.00">Proof narrative — cox_consistency_end_to_end &#160;(37 decls)</text>
<g id="clust1" class="cluster">
<title>cluster_0</title>
<path fill="none" stroke="#cbd5e1" stroke-dasharray="5,2" d="M20,-8C20,-8 1370,-8 1370,-8 1376,-8 1382,-14 1382,-20 1382,-20 1382,-790.4 1382,-790.4 1382,-796.4 1376,-802.4 1370,-802.4 1370,-802.4 20,-802.4 20,-802.4 14,-802.4 8,-796.4 8,-790.4 8,-790.4 8,-20 8,-20 8,-14 14,-8 20,-8"/>
<text xml:space="preserve" text-anchor="middle" x="695" y="-788.5" font-family="Helvetica,sans-Serif" font-size="11.00">CoxChangePoint</text>
</g>
<g id="clust2" class="cluster">
<title>cluster_1</title>
<path fill="none" stroke="#cbd5e1" stroke-dasharray="5,2" d="M1402,-584C1402,-584 1514,-584 1514,-584 1520,-584 1526,-590 1526,-596 1526,-596 1526,-645.2 1526,-645.2 1526,-651.2 1520,-657.2 1514,-657.2 1514,-657.2 1402,-657.2 1402,-657.2 1396,-657.2 1390,-651.2 1390,-645.2 1390,-645.2 1390,-596 1390,-596 1390,-590 1396,-584 1402,-584"/>
<text xml:space="preserve" text-anchor="middle" x="1458" y="-643.3" font-family="Helvetica,sans-Serif" font-size="11.00">EmpiricalProcess</text>
</g>
<!-- n0 -->
<g id="node1" class="node">
<title>n0</title>
<g id="a_node1"><a xlink:href="vscode://vscode-remote/wsl+Ubuntu/home/gavin/statlib/Statlib/CoxChangePoint/Foundation.lean:57" xlink:title="structure · Statlib/CoxChangePoint/Foundation.lean:57" target="_blank">
<path fill="#e8dcff" stroke="#8b5cf6" d="M410.62,-52C410.62,-52 371.38,-52 371.38,-52 365.38,-52 359.38,-46 359.38,-40 359.38,-40 359.38,-28 359.38,-28 359.38,-22 365.38,-16 371.38,-16 371.38,-16 410.62,-16 410.62,-16 416.62,-16 422.62,-22 422.62,-28 422.62,-28 422.62,-40 422.62,-40 422.62,-46 416.62,-52 410.62,-52"/>
<text xml:space="preserve" text-anchor="middle" x="391" y="-31" font-family="Helvetica,sans-Serif" font-size="10.00">CoxParam</text>
</a>
</g>
</g>
<!-- n1 -->
<g id="node2" class="node">
<title>n1</title>
<g id="a_node2"><a xlink:href="vscode://vscode-remote/wsl+Ubuntu/home/gavin/statlib/Statlib/CoxChangePoint/FPC.lean:55" xlink:title="def · Statlib/CoxChangePoint/FPC.lean:55" target="_blank">
<path fill="#d6e9ff" stroke="#3b82f6" d="M797.02,-124C797.02,-124 724.98,-124 724.98,-124 718.98,-124 712.98,-118 712.98,-112 712.98,-112 712.98,-100 712.98,-100 712.98,-94 718.98,-88 724.98,-88 724.98,-88 797.02,-88 797.02,-88 803.02,-88 809.02,-94 809.02,-100 809.02,-100 809.02,-112 809.02,-112 809.02,-118 803.02,-124 797.02,-124"/>
<text xml:space="preserve" text-anchor="middle" x="761" y="-103" font-family="Helvetica,sans-Serif" font-size="10.00">FunctionalSample</text>
</a>
</g>
</g>
<!-- n2 -->
<g id="node3" class="node">
<title>n2</title>
<g id="a_node3"><a xlink:href="vscode://vscode-remote/wsl+Ubuntu/home/gavin/statlib/Statlib/CoxChangePoint/FPC.lean:42" xlink:title="structure · Statlib/CoxChangePoint/FPC.lean:42" target="_blank">
<path fill="#e8dcff" stroke="#8b5cf6" d="M678.62,-124C678.62,-124 629.38,-124 629.38,-124 623.38,-124 617.38,-118 617.38,-112 617.38,-112 617.38,-100 617.38,-100 617.38,-94 623.38,-88 629.38,-88 629.38,-88 678.62,-88 678.62,-88 684.62,-88 690.62,-94 690.62,-100 690.62,-100 690.62,-112 690.62,-112 690.62,-118 684.62,-124 678.62,-124"/>
<text xml:space="preserve" text-anchor="middle" x="654" y="-103" font-family="Helvetica,sans-Serif" font-size="10.00">Eigensystem</text>
</a>
</g>
</g>
<!-- n3 -->
<g id="node4" class="node">
<title>n3</title>
<g id="a_node4"><a xlink:href="vscode://vscode-remote/wsl+Ubuntu/home/gavin/statlib/Statlib/CoxChangePoint/CoxModel.lean:80" xlink:title="structure · Statlib/CoxChangePoint/CoxModel.lean:80" target="_blank">
<path fill="#e8dcff" stroke="#8b5cf6" d="M895.51,-412C895.51,-412 858.49,-412 858.49,-412 852.49,-412 846.49,-406 846.49,-400 846.49,-400 846.49,-388 846.49,-388 846.49,-382 852.49,-376 858.49,-376 858.49,-376 895.51,-376 895.51,-376 901.51,-376 907.51,-382 907.51,-388 907.51,-388 907.51,-400 907.51,-400 907.51,-406 901.51,-412 895.51,-412"/>
<text xml:space="preserve" text-anchor="middle" x="877" y="-391" font-family="Helvetica,sans-Serif" font-size="10.00">CoxModel</text>
</a>
</g>
</g>
<!-- n3&#45;&gt;n0 -->
<g id="edge1" class="edge">
<title>n3&#45;&gt;n0</title>
<path fill="none" stroke="#64748b" d="M875.99,-375.52C874.53,-348.73 872,-295.9 872,-251 872,-251 872,-251 872,-177 872,-133.81 867.68,-113.74 833,-88 769.9,-41.16 528.13,-35.29 431.37,-34.86"/>
<polygon fill="#64748b" stroke="#64748b" points="431.54,-32.41 424.53,-34.84 431.52,-37.31 431.54,-32.41"/>
</g>
<!-- n3&#45;&gt;n1 -->
<g id="edge2" class="edge">
<title>n3&#45;&gt;n1</title>
<path fill="none" stroke="#64748b" d="M869.92,-375.54C850.13,-326.76 794.22,-188.89 771.15,-132.02"/>
<polygon fill="#64748b" stroke="#64748b" points="773.46,-131.2 768.56,-125.63 768.92,-133.04 773.46,-131.2"/>
</g>
<!-- n3&#45;&gt;n2 -->
<g id="edge3" class="edge">
<title>n3&#45;&gt;n2</title>
<path fill="none" stroke="#64748b" d="M864.16,-375.78C834.89,-336.65 764.68,-243.52 751,-232 725.14,-210.23 705.81,-221.82 684,-196 679.75,-190.96 668.89,-156.77 661.48,-132.27"/>
<polygon fill="#64748b" stroke="#64748b" points="663.91,-131.84 659.55,-125.84 659.21,-133.25 663.91,-131.84"/>
</g>
<!-- n4 -->
<g id="node5" class="node">
<title>n4</title>
<g id="a_node5"><a xlink:href="vscode://vscode-remote/wsl+Ubuntu/home/gavin/statlib/Statlib/CoxChangePoint/Auto/smoothed_empirical_process_approximation.lean:18" xlink:title="private structure · Statlib/CoxChangePoint/Auto/smoothed_empirical_process_approximation.lean:18" target="_blank">
<path fill="#e8dcff" stroke="#8b5cf6" d="M1101.62,-484C1101.62,-484 1062.38,-484 1062.38,-484 1056.38,-484 1050.38,-478 1050.38,-472 1050.38,-472 1050.38,-460 1050.38,-460 1050.38,-454 1056.38,-448 1062.38,-448 1062.38,-448 1101.62,-448 1101.62,-448 1107.62,-448 1113.62,-454 1113.62,-460 1113.62,-460 1113.62,-472 1113.62,-472 1113.62,-478 1107.62,-484 1101.62,-484"/>
<text xml:space="preserve" text-anchor="middle" x="1082" y="-463" font-family="Helvetica,sans-Serif" font-size="10.00">CoxParam</text>
</a>
</g>
</g>
<!-- n5 -->
<g id="node6" class="node">
<title>n5</title>
<g id="a_node6"><a xlink:href="vscode://vscode-remote/wsl+Ubuntu/home/gavin/statlib/Statlib/CoxChangePoint/Foundation.lean:38" xlink:title="structure · Statlib/CoxChangePoint/Foundation.lean:38" target="_blank">
<path fill="#e8dcff" stroke="#8b5cf6" d="M154,-52C154,-52 124,-52 124,-52 118,-52 112,-46 112,-40 112,-40 112,-28 112,-28 112,-22 118,-16 124,-16 124,-16 154,-16 154,-16 160,-16 166,-22 166,-28 166,-28 166,-40 166,-40 166,-46 160,-52 154,-52"/>
<text xml:space="preserve" text-anchor="middle" x="139" y="-31" font-family="Helvetica,sans-Serif" font-size="10.00">CoxObs</text>
</a>
</g>
</g>
<!-- n6 -->
<g id="node7" class="node">
<title>n6</title>
<g id="a_node7"><a xlink:href="vscode://vscode-remote/wsl+Ubuntu/home/gavin/statlib/Statlib/CoxChangePoint/Foundation.lean:127" xlink:title="def · Statlib/CoxChangePoint/Foundation.lean:127" target="_blank">
<path fill="#d6e9ff" stroke="#3b82f6" d="M330,-340C330,-340 300,-340 300,-340 294,-340 288,-334 288,-328 288,-328 288,-316 288,-316 288,-310 294,-304 300,-304 300,-304 330,-304 330,-304 336,-304 342,-310 342,-316 342,-316 342,-328 342,-328 342,-334 336,-340 330,-340"/>
<text xml:space="preserve" text-anchor="middle" x="315" y="-319" font-family="Helvetica,sans-Serif" font-size="10.00">Sample</text>
</a>
</g>
</g>
<!-- n6&#45;&gt;n5 -->
<g id="edge4" class="edge">
<title>n6&#45;&gt;n5</title>
<path fill="none" stroke="#64748b" d="M294.35,-303.7C261.38,-275.69 199.05,-221.06 184,-196 157.94,-152.6 146.5,-93.61 141.86,-60.41"/>
<polygon fill="#64748b" stroke="#64748b" points="144.31,-60.28 140.97,-53.66 139.46,-60.92 144.31,-60.28"/>
</g>
<!-- n7 -->
<g id="node8" class="node">
<title>n7</title>
<g id="a_node8"><a xlink:href="vscode://vscode-remote/wsl+Ubuntu/home/gavin/statlib/Statlib/CoxChangePoint/Foundation.lean:68" xlink:title="noncomputable def · Statlib/CoxChangePoint/Foundation.lean:68" target="_blank">
<path fill="#d6e9ff" stroke="#3b82f6" d="M270,-124C270,-124 240,-124 240,-124 234,-124 228,-118 228,-112 228,-112 228,-100 228,-100 228,-94 234,-88 240,-88 240,-88 270,-88 270,-88 276,-88 282,-94 282,-100 282,-100 282,-112 282,-112 282,-118 276,-124 270,-124"/>
<text xml:space="preserve" text-anchor="middle" x="255" y="-103" font-family="Helvetica,sans-Serif" font-size="10.00">g</text>
</a>
</g>
</g>
<!-- n7&#45;&gt;n0 -->
<g id="edge5" class="edge">
<title>n7&#45;&gt;n0</title>
<path fill="none" stroke="#64748b" d="M282.19,-91C302.11,-80.75 329.44,-66.68 351.73,-55.21"/>
<polygon fill="#64748b" stroke="#64748b" points="352.63,-57.51 357.73,-52.12 350.38,-53.15 352.63,-57.51"/>
</g>
<!-- n7&#45;&gt;n5 -->
<g id="edge6" class="edge">
<title>n7&#45;&gt;n5</title>
<path fill="none" stroke="#64748b" d="M227.51,-88.41C211.33,-78.65 190.72,-66.21 173.46,-55.8"/>
<polygon fill="#64748b" stroke="#64748b" points="174.85,-53.77 167.59,-52.25 172.32,-57.97 174.85,-53.77"/>
</g>
<!-- n8 -->
<g id="node9" class="node">
<title>n8</title>
<g id="a_node9"><a xlink:href="vscode://vscode-remote/wsl+Ubuntu/home/gavin/statlib/Statlib/CoxChangePoint/Foundation.lean:89" xlink:title="noncomputable def · Statlib/CoxChangePoint/Foundation.lean:89" target="_blank">
<path fill="#d6e9ff" stroke="#3b82f6" d="M138,-196C138,-196 108,-196 108,-196 102,-196 96,-190 96,-184 96,-184 96,-172 96,-172 96,-166 102,-160 108,-160 108,-160 138,-160 138,-160 144,-160 150,-166 150,-172 150,-172 150,-184 150,-184 150,-190 144,-196 138,-196"/>
<text xml:space="preserve" text-anchor="middle" x="123" y="-175" font-family="Helvetica,sans-Serif" font-size="10.00">atRisk</text>
</a>
</g>
</g>
<!-- n8&#45;&gt;n5 -->
<g id="edge7" class="edge">
<title>n8&#45;&gt;n5</title>
<path fill="none" stroke="#64748b" d="M124.96,-159.59C127.76,-134.76 132.91,-89.01 136.14,-60.4"/>
<polygon fill="#64748b" stroke="#64748b" points="138.55,-60.85 136.9,-53.61 133.68,-60.3 138.55,-60.85"/>
</g>
<!-- n9 -->
<g id="node10" class="node">
<title>n9</title>
<g id="a_node10"><a xlink:href="vscode://vscode-remote/wsl+Ubuntu/home/gavin/statlib/Statlib/CoxChangePoint/Foundation.lean:75" xlink:title="noncomputable def · Statlib/CoxChangePoint/Foundation.lean:75" target="_blank">
<path fill="#d6e9ff" stroke="#3b82f6" d="M250,-196C250,-196 220,-196 220,-196 214,-196 208,-190 208,-184 208,-184 208,-172 208,-172 208,-166 214,-160 220,-160 220,-160 250,-160 250,-160 256,-160 262,-166 262,-172 262,-172 262,-184 262,-184 262,-190 256,-196 250,-196"/>
<text xml:space="preserve" text-anchor="middle" x="235" y="-175" font-family="Helvetica,sans-Serif" font-size="10.00">expG</text>
</a>
</g>
</g>
<!-- n9&#45;&gt;n0 -->
<g id="edge8" class="edge">
<title>n9&#45;&gt;n0</title>
<path fill="none" stroke="#64748b" d="M224.72,-159.51C214.84,-140.16 203.52,-108.97 219,-88 249.06,-47.28 309.94,-36.87 350.6,-34.72"/>
<polygon fill="#64748b" stroke="#64748b" points="350.55,-37.17 357.44,-34.44 350.35,-32.28 350.55,-37.17"/>
</g>
<!-- n9&#45;&gt;n5 -->
<g id="edge9" class="edge">
<title>n9&#45;&gt;n5</title>
<path fill="none" stroke="#64748b" d="M223.23,-159.59C206.15,-134.33 174.44,-87.43 155.18,-58.93"/>
<polygon fill="#64748b" stroke="#64748b" points="157.37,-57.79 151.42,-53.36 153.31,-60.54 157.37,-57.79"/>
</g>
<!-- n9&#45;&gt;n7 -->
<g id="edge10" class="edge">
<title>n9&#45;&gt;n7</title>
<path fill="none" stroke="#64748b" d="M239.94,-159.7C242.32,-151.39 245.21,-141.28 247.82,-132.14"/>
<polygon fill="#64748b" stroke="#64748b" points="250.13,-132.96 249.7,-125.56 245.42,-131.62 250.13,-132.96"/>
</g>
<!-- n10 -->
<g id="node11" class="node">
<title>n10</title>
<g id="a_node11"><a xlink:href="vscode://vscode-remote/wsl+Ubuntu/home/gavin/statlib/Statlib/CoxChangePoint/Foundation.lean:93" xlink:title="noncomputable def · Statlib/CoxChangePoint/Foundation.lean:93" target="_blank">
<path fill="#d6e9ff" stroke="#3b82f6" d="M194,-268C194,-268 164,-268 164,-268 158,-268 152,-262 152,-256 152,-256 152,-244 152,-244 152,-238 158,-232 164,-232 164,-232 194,-232 194,-232 200,-232 206,-238 206,-244 206,-244 206,-256 206,-256 206,-262 200,-268 194,-268"/>
<text xml:space="preserve" text-anchor="middle" x="179" y="-247" font-family="Helvetica,sans-Serif" font-size="10.00">riskSum</text>
</a>
</g>
</g>
<!-- n10&#45;&gt;n0 -->
<g id="edge12" class="edge">
<title>n10&#45;&gt;n0</title>
<path fill="none" stroke="#64748b" d="M206.35,-238.89C226.55,-230.21 253.47,-215.93 271,-196 305.35,-156.96 283.5,-128.59 316,-88 325.84,-75.71 339.24,-65.02 352,-56.52"/>
<polygon fill="#64748b" stroke="#64748b" points="353.15,-58.69 357.72,-52.85 350.5,-54.57 353.15,-58.69"/>
</g>
<!-- n10&#45;&gt;n5 -->
<g id="edge11" class="edge">
<title>n10&#45;&gt;n5</title>
<path fill="none" stroke="#64748b" d="M151.86,-241.58C130.04,-234.02 100.84,-219.94 87,-196 61.06,-151.13 95.59,-91.63 119.54,-58.98"/>
<polygon fill="#64748b" stroke="#64748b" points="121.31,-60.71 123.56,-53.64 117.39,-57.76 121.31,-60.71"/>
</g>
<!-- n10&#45;&gt;n8 -->
<g id="edge13" class="edge">
<title>n10&#45;&gt;n8</title>
<path fill="none" stroke="#64748b" d="M165.16,-231.7C158.17,-222.97 149.59,-212.24 142,-202.75"/>
<polygon fill="#64748b" stroke="#64748b" points="143.92,-201.22 137.63,-197.29 140.09,-204.28 143.92,-201.22"/>
</g>
<!-- n10&#45;&gt;n9 -->
<g id="edge14" class="edge">
<title>n10&#45;&gt;n9</title>
<path fill="none" stroke="#64748b" d="M192.84,-231.7C199.83,-222.97 208.41,-212.24 216,-202.75"/>
<polygon fill="#64748b" stroke="#64748b" points="217.91,-204.28 220.37,-197.29 214.08,-201.22 217.91,-204.28"/>
</g>
<!-- n11 -->
<g id="node12" class="node">
<title>n11</title>
<g id="a_node12"><a xlink:href="vscode://vscode-remote/wsl+Ubuntu/home/gavin/statlib/Statlib/CoxChangePoint/Foundation.lean:104" xlink:title="noncomputable def · Statlib/CoxChangePoint/Foundation.lean:104" target="_blank">
<path fill="#d6e9ff" stroke="#3b82f6" d="M218.36,-340C218.36,-340 139.64,-340 139.64,-340 133.64,-340 127.64,-334 127.64,-328 127.64,-328 127.64,-316 127.64,-316 127.64,-310 133.64,-304 139.64,-304 139.64,-304 218.36,-304 218.36,-304 224.36,-304 230.36,-310 230.36,-316 230.36,-316 230.36,-328 230.36,-328 230.36,-334 224.36,-340 218.36,-340"/>
<text xml:space="preserve" text-anchor="middle" x="179" y="-319" font-family="Helvetica,sans-Serif" font-size="10.00">logPartialLikelihood</text>
</a>
</g>
</g>
<!-- n11&#45;&gt;n0 -->
<g id="edge16" class="edge">
<title>n11&#45;&gt;n0</title>
<path fill="none" stroke="#64748b" d="M206.91,-303.57C220.26,-294.23 235.75,-281.81 247,-268 303.39,-198.83 283.31,-160.03 336,-88 343.9,-77.2 354.12,-66.68 363.6,-57.9"/>
<polygon fill="#64748b" stroke="#64748b" points="365.01,-59.92 368.56,-53.41 361.73,-56.28 365.01,-59.92"/>
</g>
<!-- n11&#45;&gt;n5 -->
<g id="edge15" class="edge">
<title>n11&#45;&gt;n5</title>
<path fill="none" stroke="#64748b" d="M160.43,-303.69C137.13,-281.02 97.4,-239.09 74,-196 58.03,-166.6 56.94,-157.09 52,-124 49.64,-108.18 44.16,-101.95 52,-88 63.12,-68.21 84.95,-54.95 103.96,-46.63"/>
<polygon fill="#64748b" stroke="#64748b" points="104.68,-48.99 110.22,-44.05 102.82,-44.46 104.68,-48.99"/>
</g>
<!-- n11&#45;&gt;n7 -->
<g id="edge17" class="edge">
<title>n11&#45;&gt;n7</title>
<path fill="none" stroke="#64748b" d="M197.55,-303.68C219.98,-281.32 256.54,-240.03 271,-196 277.88,-175.05 272.39,-150.29 266.04,-132.21"/>
<polygon fill="#64748b" stroke="#64748b" points="268.39,-131.52 263.63,-125.83 263.81,-133.24 268.39,-131.52"/>
</g>
<!-- n11&#45;&gt;n10 -->
<g id="edge18" class="edge">
<title>n11&#45;&gt;n10</title>
<path fill="none" stroke="#64748b" d="M179,-303.7C179,-295.47 179,-285.48 179,-276.42"/>
<polygon fill="#64748b" stroke="#64748b" points="181.45,-276.62 179,-269.62 176.55,-276.62 181.45,-276.62"/>
</g>
<!-- n12 -->
<g id="node13" class="node">
<title>n12</title>
<g id="a_node13"><a xlink:href="vscode://vscode-remote/wsl+Ubuntu/home/gavin/statlib/Statlib/CoxChangePoint/ScoreEquation.lean:70" xlink:title="def · Statlib/CoxChangePoint/ScoreEquation.lean:70" target="_blank">
<path fill="#d6e9ff" stroke="#3b82f6" d="M127.63,-412C127.63,-412 48.37,-412 48.37,-412 42.37,-412 36.37,-406 36.37,-400 36.37,-400 36.37,-388 36.37,-388 36.37,-382 42.37,-376 48.37,-376 48.37,-376 127.63,-376 127.63,-376 133.63,-376 139.63,-382 139.63,-388 139.63,-388 139.63,-400 139.63,-400 139.63,-406 133.63,-412 127.63,-412"/>
<text xml:space="preserve" text-anchor="middle" x="88" y="-391" font-family="Helvetica,sans-Serif" font-size="10.00">IsLikelihoodArgmax</text>
</a>
</g>
</g>
<!-- n12&#45;&gt;n0 -->
<g id="edge20" class="edge">
<title>n12&#45;&gt;n0</title>
<path fill="none" stroke="#64748b" d="M140.03,-379.27C177.46,-368.56 223.9,-353.33 239,-340 262.23,-319.5 349.18,-128.42 380.05,-59.57"/>
<polygon fill="#64748b" stroke="#64748b" points="382.11,-60.95 382.74,-53.56 377.64,-58.95 382.11,-60.95"/>
</g>
<!-- n12&#45;&gt;n5 -->
<g id="edge19" class="edge">
<title>n12&#45;&gt;n5</title>
<path fill="none" stroke="#64748b" d="M72.59,-375.58C51.71,-350.1 17,-300.34 17,-251 17,-251 17,-251 17,-177 17,-135.66 18.07,-120.19 44,-88 59.48,-68.79 83.91,-55.38 104.11,-46.86"/>
<polygon fill="#64748b" stroke="#64748b" points="104.92,-49.17 110.5,-44.28 103.09,-44.63 104.92,-49.17"/>
</g>
<!-- n12&#45;&gt;n11 -->
<g id="edge21" class="edge">
<title>n12&#45;&gt;n11</title>
<path fill="none" stroke="#64748b" d="M110.49,-375.7C122.42,-366.53 137.2,-355.16 149.98,-345.33"/>
<polygon fill="#64748b" stroke="#64748b" points="151.19,-347.48 155.25,-341.27 148.21,-343.6 151.19,-347.48"/>
</g>
<!-- n13 -->
<g id="node14" class="node">
<title>n13</title>
<g id="a_node14"><a xlink:href="vscode://vscode-remote/wsl+Ubuntu/home/gavin/statlib/Statlib/CoxChangePoint/Foundation.lean:135" xlink:title="def · Statlib/CoxChangePoint/Foundation.lean:135" target="_blank">
<path fill="#d6e9ff" stroke="#3b82f6" d="M240,-412C240,-412 210,-412 210,-412 204,-412 198,-406 198,-400 198,-400 198,-388 198,-388 198,-382 204,-376 210,-376 210,-376 240,-376 240,-376 246,-376 252,-382 252,-388 252,-388 252,-400 252,-400 252,-406 246,-412 240,-412"/>
<text xml:space="preserve" text-anchor="middle" x="225" y="-391" font-family="Helvetica,sans-Serif" font-size="10.00">realize</text>
</a>
</g>
</g>
<!-- n13&#45;&gt;n5 -->
<g id="edge23" class="edge">
<title>n13&#45;&gt;n5</title>
<path fill="none" stroke="#64748b" d="M197.63,-384.16C150.03,-366.86 57,-323.75 57,-251 57,-251 57,-251 57,-177 57,-136.14 58.79,-122.92 80,-88 86.92,-76.61 97.04,-66.25 106.96,-57.78"/>
<polygon fill="#64748b" stroke="#64748b" points="108.37,-59.79 112.23,-53.45 105.27,-56 108.37,-59.79"/>
</g>
<!-- n13&#45;&gt;n6 -->
<g id="edge22" class="edge">
<title>n13&#45;&gt;n6</title>
<path fill="none" stroke="#64748b" d="M247.25,-375.7C259.04,-366.53 273.66,-355.16 286.29,-345.33"/>
<polygon fill="#64748b" stroke="#64748b" points="287.48,-347.51 291.5,-341.28 284.47,-343.64 287.48,-347.51"/>
</g>
<!-- n14 -->
<g id="node15" class="node">
<title>n14</title>
<g id="a_node15"><a xlink:href="vscode://vscode-remote/wsl+Ubuntu/home/gavin/statlib/Statlib/CoxChangePoint/ScoreEquation.lean:90" xlink:title="def · Statlib/CoxChangePoint/ScoreEquation.lean:90" target="_blank">
<path fill="#d6e9ff" stroke="#3b82f6" d="M96.06,-484C96.06,-484 57.94,-484 57.94,-484 51.94,-484 45.94,-478 45.94,-472 45.94,-472 45.94,-460 45.94,-460 45.94,-454 51.94,-448 57.94,-448 57.94,-448 96.06,-448 96.06,-448 102.06,-448 108.06,-454 108.06,-460 108.06,-460 108.06,-472 108.06,-472 108.06,-478 102.06,-484 96.06,-484"/>
<text xml:space="preserve" text-anchor="middle" x="77" y="-463" font-family="Helvetica,sans-Serif" font-size="10.00">IsCoxMLE</text>
</a>
</g>
</g>
<!-- n14&#45;&gt;n0 -->
<g id="edge25" class="edge">
<title>n14&#45;&gt;n0</title>
<path fill="none" stroke="#64748b" d="M107.71,-447.73C121.78,-438.58 137.79,-426.28 149,-412 159.7,-398.37 151.61,-388.12 164,-376 195.38,-345.29 222.94,-368.9 256,-340 269.78,-327.95 287.55,-284.24 296,-268 328.67,-205.21 338.92,-190.19 364,-124 372.04,-102.79 379.38,-78.05 384.38,-60.05"/>
<polygon fill="#64748b" stroke="#64748b" points="386.62,-61.15 386.1,-53.75 381.89,-59.86 386.62,-61.15"/>
</g>
<!-- n14&#45;&gt;n6 -->
<g id="edge24" class="edge">
<title>n14&#45;&gt;n6</title>
<path fill="none" stroke="#64748b" d="M108.55,-449.92C126.11,-440.56 147.65,-427.4 164,-412 178.18,-398.64 173.87,-388.26 189,-376 189.96,-375.22 243.06,-353 280.02,-337.58"/>
<polygon fill="#64748b" stroke="#64748b" points="280.72,-339.94 286.23,-334.98 278.83,-335.42 280.72,-339.94"/>
</g>
<!-- n14&#45;&gt;n12 -->
<g id="edge26" class="edge">
<title>n14&#45;&gt;n12</title>
<path fill="none" stroke="#64748b" d="M79.72,-447.7C81.01,-439.47 82.58,-429.48 84.01,-420.42"/>
<polygon fill="#64748b" stroke="#64748b" points="86.41,-420.9 85.08,-413.6 81.57,-420.13 86.41,-420.9"/>
</g>
<!-- n14&#45;&gt;n13 -->
<g id="edge27" class="edge">
<title>n14&#45;&gt;n13</title>
<path fill="none" stroke="#64748b" d="M108.39,-450.15C132.38,-438.81 165.44,-423.17 190.23,-411.45"/>
<polygon fill="#64748b" stroke="#64748b" points="190.99,-413.8 196.27,-408.59 188.9,-409.37 190.99,-413.8"/>
</g>
<!-- n15 -->
<g id="node16" class="node">
<title>n15</title>
<g id="a_node16"><a xlink:href="vscode://vscode-remote/wsl+Ubuntu/home/gavin/statlib/Statlib/CoxChangePoint/FPC.lean:64" xlink:title="noncomputable def · Statlib/CoxChangePoint/FPC.lean:64" target="_blank">
<path fill="#d6e9ff" stroke="#3b82f6" d="M736.73,-196C736.73,-196 705.27,-196 705.27,-196 699.27,-196 693.27,-190 693.27,-184 693.27,-184 693.27,-172 693.27,-172 693.27,-166 699.27,-160 705.27,-160 705.27,-160 736.73,-160 736.73,-160 742.73,-160 748.73,-166 748.73,-172 748.73,-172 748.73,-184 748.73,-184 748.73,-190 742.73,-196 736.73,-196"/>
<text xml:space="preserve" text-anchor="middle" x="721" y="-175" font-family="Helvetica,sans-Serif" font-size="10.00">fpcScore</text>
</a>
</g>
</g>
<!-- n15&#45;&gt;n1 -->
<g id="edge28" class="edge">
<title>n15&#45;&gt;n1</title>
<path fill="none" stroke="#64748b" d="M730.89,-159.7C735.78,-151.14 741.77,-140.66 747.11,-131.3"/>
<polygon fill="#64748b" stroke="#64748b" points="749.13,-132.71 750.48,-125.42 744.87,-130.28 749.13,-132.71"/>
</g>
<!-- n15&#45;&gt;n2 -->
<g id="edge29" class="edge">
<title>n15&#45;&gt;n2</title>
<path fill="none" stroke="#64748b" d="M704.44,-159.7C695.92,-150.8 685.42,-139.82 676.2,-130.2"/>
<polygon fill="#64748b" stroke="#64748b" points="678.03,-128.56 671.42,-125.2 674.49,-131.95 678.03,-128.56"/>
</g>
<!-- n16 -->
<g id="node17" class="node">
<title>n16</title>
<g id="a_node17"><a xlink:href="vscode://vscode-remote/wsl+Ubuntu/home/gavin/statlib/Statlib/CoxChangePoint/FPC.lean:69" xlink:title="noncomputable def · Statlib/CoxChangePoint/FPC.lean:69" target="_blank">
<path fill="#d6e9ff" stroke="#3b82f6" d="M730.41,-268C730.41,-268 665.59,-268 665.59,-268 659.59,-268 653.59,-262 653.59,-256 653.59,-256 653.59,-244 653.59,-244 653.59,-238 659.59,-232 665.59,-232 665.59,-232 730.41,-232 730.41,-232 736.41,-232 742.41,-238 742.41,-244 742.41,-244 742.41,-256 742.41,-256 742.41,-262 736.41,-268 730.41,-268"/>
<text xml:space="preserve" text-anchor="middle" x="698" y="-247" font-family="Helvetica,sans-Serif" font-size="10.00">truncatedScores</text>
</a>
</g>
</g>
<!-- n16&#45;&gt;n1 -->
<g id="edge30" class="edge">
<title>n16&#45;&gt;n1</title>
<path fill="none" stroke="#64748b" d="M726.35,-231.63C738.39,-222.62 751.19,-210.46 758,-196 767.33,-176.2 767.26,-151.08 765.33,-132.58"/>
<polygon fill="#64748b" stroke="#64748b" points="767.79,-132.48 764.49,-125.84 762.93,-133.09 767.79,-132.48"/>
</g>
<!-- n16&#45;&gt;n2 -->
<g id="edge31" class="edge">
<title>n16&#45;&gt;n2</title>
<path fill="none" stroke="#64748b" d="M686.51,-231.54C680.42,-221.52 673.33,-208.49 669,-196 661.85,-175.39 658.04,-150.87 656.05,-132.8"/>
<polygon fill="#64748b" stroke="#64748b" points="658.51,-132.71 655.37,-125.99 653.63,-133.2 658.51,-132.71"/>
</g>
<!-- n16&#45;&gt;n15 -->
<g id="edge32" class="edge">
<title>n16&#45;&gt;n15</title>
<path fill="none" stroke="#64748b" d="M703.69,-231.7C706.41,-223.39 709.74,-213.28 712.74,-204.14"/>
<polygon fill="#64748b" stroke="#64748b" points="715.05,-204.96 714.91,-197.54 710.39,-203.43 715.05,-204.96"/>
</g>
<!-- n17 -->
<g id="node18" class="node">
<title>n17</title>
<g id="a_node18"><a xlink:href="vscode://vscode-remote/wsl+Ubuntu/home/gavin/statlib/Statlib/CoxChangePoint/FPC.lean:110" xlink:title="noncomputable def · Statlib/CoxChangePoint/FPC.lean:110" target="_blank">
<path fill="#d6e9ff" stroke="#3b82f6" d="M730.69,-340C730.69,-340 645.31,-340 645.31,-340 639.31,-340 633.31,-334 633.31,-328 633.31,-328 633.31,-316 633.31,-316 633.31,-310 639.31,-304 645.31,-304 645.31,-304 730.69,-304 730.69,-304 736.69,-304 742.69,-310 742.69,-316 742.69,-316 742.69,-328 742.69,-328 742.69,-334 736.69,-340 730.69,-340"/>
<text xml:space="preserve" text-anchor="middle" x="688" y="-319" font-family="Helvetica,sans-Serif" font-size="10.00">CoxObs.ofFunctional</text>
</a>
</g>
</g>
<!-- n17&#45;&gt;n1 -->
<g id="edge33" class="edge">
<title>n17&#45;&gt;n1</title>
<path fill="none" stroke="#64748b" d="M716.2,-303.5C728.66,-294.39 742.4,-282.18 751,-268 776.46,-226.01 771.73,-166.02 766.23,-132.38"/>
<polygon fill="#64748b" stroke="#64748b" points="768.65,-131.98 765.02,-125.51 763.82,-132.83 768.65,-131.98"/>
</g>
<!-- n17&#45;&gt;n2 -->
<g id="edge34" class="edge">
<title>n17&#45;&gt;n2</title>
<path fill="none" stroke="#64748b" d="M668.96,-303.84C659.82,-294.3 649.83,-281.62 645,-268 628.77,-222.22 638.67,-164.55 646.74,-132.12"/>
<polygon fill="#64748b" stroke="#64748b" points="649.06,-132.92 648.46,-125.53 644.32,-131.69 649.06,-132.92"/>
</g>
<!-- n17&#45;&gt;n5 -->
<g id="edge35" class="edge">
<title>n17&#45;&gt;n5</title>
<path fill="none" stroke="#64748b" d="M662.48,-303.62C600.8,-262.18 437.89,-155.92 291,-88 252.23,-70.07 205.57,-54.66 174.27,-45.15"/>
<polygon fill="#64748b" stroke="#64748b" points="175.12,-42.85 167.71,-43.18 173.71,-47.54 175.12,-42.85"/>
</g>
<!-- n17&#45;&gt;n16 -->
<g id="edge36" class="edge">
<title>n17&#45;&gt;n16</title>
<path fill="none" stroke="#64748b" d="M690.47,-303.7C691.65,-295.47 693.07,-285.48 694.37,-276.42"/>
<polygon fill="#64748b" stroke="#64748b" points="696.78,-276.88 695.34,-269.6 691.93,-276.19 696.78,-276.88"/>
</g>
<!-- n18 -->
<g id="node19" class="node">
<title>n18</title>
<g id="a_node19"><a xlink:href="vscode://vscode-remote/wsl+Ubuntu/home/gavin/statlib/Statlib/CoxChangePoint/FPC.lean:158" xlink:title="noncomputable def · Statlib/CoxChangePoint/FPC.lean:158" target="_blank">
<path fill="#d6e9ff" stroke="#3b82f6" d="M793.52,-412C793.52,-412 746.48,-412 746.48,-412 740.48,-412 734.48,-406 734.48,-400 734.48,-400 734.48,-388 734.48,-388 734.48,-382 740.48,-376 746.48,-376 746.48,-376 793.52,-376 793.52,-376 799.52,-376 805.52,-382 805.52,-388 805.52,-388 805.52,-400 805.52,-400 805.52,-406 799.52,-412 793.52,-412"/>
<text xml:space="preserve" text-anchor="middle" x="770" y="-391" font-family="Helvetica,sans-Serif" font-size="10.00">buildSample</text>
</a>
</g>
</g>
<!-- n18&#45;&gt;n1 -->
<g id="edge37" class="edge">
<title>n18&#45;&gt;n1</title>
<path fill="none" stroke="#64748b" d="M772.14,-375.66C776.55,-336.84 785.39,-240.05 775,-160 773.82,-150.94 771.56,-141.22 769.19,-132.61"/>
<polygon fill="#64748b" stroke="#64748b" points="771.55,-131.94 767.24,-125.89 766.84,-133.3 771.55,-131.94"/>
</g>
<!-- n18&#45;&gt;n2 -->
<g id="edge38" class="edge">
<title>n18&#45;&gt;n2</title>
<path fill="none" stroke="#64748b" d="M734.07,-380.52C691.38,-365.62 625.67,-342.38 624,-340 579.19,-276.06 618.17,-177.47 640.68,-131.79"/>
<polygon fill="#64748b" stroke="#64748b" points="642.76,-133.12 643.72,-125.76 638.38,-130.91 642.76,-133.12"/>
</g>
<!-- n18&#45;&gt;n6 -->
<g id="edge39" class="edge">
<title>n18&#45;&gt;n6</title>
<path fill="none" stroke="#64748b" d="M734.18,-383.56C723.26,-380.88 711.18,-378.12 700,-376 572.23,-351.75 418.6,-333.97 350.49,-326.67"/>
<polygon fill="#64748b" stroke="#64748b" points="350.95,-324.25 343.73,-325.95 350.43,-329.12 350.95,-324.25"/>
</g>
<!-- n18&#45;&gt;n17 -->
<g id="edge40" class="edge">
<title>n18&#45;&gt;n17</title>
<path fill="none" stroke="#64748b" d="M749.73,-375.7C739.18,-366.69 726.16,-355.57 714.79,-345.87"/>
<polygon fill="#64748b" stroke="#64748b" points="716.39,-344.01 709.47,-341.33 713.21,-347.74 716.39,-344.01"/>
</g>
<!-- n19 -->
<g id="node20" class="node">
<title>n19</title>
<g id="a_node20"><a xlink:href="vscode://vscode-remote/wsl+Ubuntu/home/gavin/statlib/Statlib/CoxChangePoint/CoxModel.lean:132" xlink:title="def · Statlib/CoxChangePoint/CoxModel.lean:132" target="_blank">
<path fill="#d6e9ff" stroke="#3b82f6" d="M772,-484C772,-484 742,-484 742,-484 736,-484 730,-478 730,-472 730,-472 730,-460 730,-460 730,-454 736,-448 742,-448 742,-448 772,-448 772,-448 778,-448 784,-454 784,-460 784,-460 784,-472 784,-472 784,-478 778,-484 772,-484"/>
<text xml:space="preserve" text-anchor="middle" x="757" y="-463" font-family="Helvetica,sans-Serif" font-size="10.00">sample</text>
</a>
</g>
</g>
<!-- n19&#45;&gt;n3 -->
<g id="edge41" class="edge">
<title>n19&#45;&gt;n3</title>
<path fill="none" stroke="#64748b" d="M784.23,-449.12C800.83,-439.43 822.27,-426.93 840.35,-416.38"/>
<polygon fill="#64748b" stroke="#64748b" points="841.24,-418.7 846.05,-413.05 838.77,-414.47 841.24,-418.7"/>
</g>
<!-- n19&#45;&gt;n6 -->
<g id="edge42" class="edge">
<title>n19&#45;&gt;n6</title>
<path fill="none" stroke="#64748b" d="M743.67,-447.67C726.68,-426.94 695.23,-392.91 660,-376 605.68,-349.93 427.61,-332.39 350.8,-325.85"/>
<polygon fill="#64748b" stroke="#64748b" points="351.07,-323.41 343.89,-325.27 350.66,-328.3 351.07,-323.41"/>
</g>
<!-- n19&#45;&gt;n18 -->
<g id="edge43" class="edge">
<title>n19&#45;&gt;n18</title>
<path fill="none" stroke="#64748b" d="M760.21,-447.7C761.74,-439.47 763.6,-429.48 765.28,-420.42"/>
<polygon fill="#64748b" stroke="#64748b" points="767.68,-420.92 766.55,-413.59 762.86,-420.03 767.68,-420.92"/>
</g>
<!-- n20 -->
<g id="node21" class="node">
<title>n20</title>
<g id="a_node21"><a xlink:href="vscode://vscode-remote/wsl+Ubuntu/home/gavin/statlib/Statlib/CoxChangePoint/ChainingProof.lean:226" xlink:title="structure · Statlib/CoxChangePoint/ChainingProof.lean:226" target="_blank">
<path fill="#e8dcff" stroke="#8b5cf6" d="M484.04,-412C484.04,-412 381.96,-412 381.96,-412 375.96,-412 369.96,-406 369.96,-400 369.96,-400 369.96,-388 369.96,-388 369.96,-382 375.96,-376 381.96,-376 381.96,-376 484.04,-376 484.04,-376 490.04,-376 496.04,-382 496.04,-388 496.04,-388 496.04,-400 496.04,-400 496.04,-406 490.04,-412 484.04,-412"/>
<text xml:space="preserve" text-anchor="middle" x="433" y="-391" font-family="Helvetica,sans-Serif" font-size="10.00">VW_2_14_9_Conclusion</text>
</a>
</g>
</g>
<!-- n21 -->
<g id="node22" class="node">
<title>n21</title>
<g id="a_node22"><a xlink:href="vscode://vscode-remote/wsl+Ubuntu/home/gavin/statlib/Statlib/CoxChangePoint/Foundation.lean:112" xlink:title="noncomputable def · Statlib/CoxChangePoint/Foundation.lean:112" target="_blank">
<path fill="#d6e9ff" stroke="#3b82f6" d="M680,-484C680,-484 650,-484 650,-484 644,-484 638,-478 638,-472 638,-472 638,-460 638,-460 638,-454 644,-448 650,-448 650,-448 680,-448 680,-448 686,-448 692,-454 692,-460 692,-460 692,-472 692,-472 692,-478 686,-484 680,-484"/>
<text xml:space="preserve" text-anchor="middle" x="665" y="-463" font-family="Helvetica,sans-Serif" font-size="10.00">Gn</text>
</a>
</g>
</g>
<!-- n21&#45;&gt;n0 -->
<g id="edge45" class="edge">
<title>n21&#45;&gt;n0</title>
<path fill="none" stroke="#64748b" d="M674.58,-447.54C683.6,-428.5 693.83,-397.85 680,-376 660.01,-344.42 625.72,-370.42 604,-340 580.87,-307.61 594,-290.8 594,-251 594,-251 594,-251 594,-177 594,-98.13 489.84,-59.39 430.74,-43.76"/>
<polygon fill="#64748b" stroke="#64748b" points="431.57,-41.44 424.19,-42.08 430.36,-46.19 431.57,-41.44"/>
</g>
<!-- n21&#45;&gt;n5 -->
<g id="edge44" class="edge">
<title>n21&#45;&gt;n5</title>
<path fill="none" stroke="#64748b" d="M668.87,-447.77C672.18,-428.38 674.29,-396.86 659,-376 642.78,-353.87 218.25,-215.56 199,-196 189.12,-185.96 161.15,-103.07 147.17,-60.31"/>
<polygon fill="#64748b" stroke="#64748b" points="149.53,-59.66 145.04,-53.77 144.87,-61.18 149.53,-59.66"/>
</g>
<!-- n21&#45;&gt;n11 -->
<g id="edge46" class="edge">
<title>n21&#45;&gt;n11</title>
<path fill="none" stroke="#64748b" d="M666.57,-447.65C667.37,-427.23 665.17,-393.83 645,-376 583.77,-321.87 360,-350.86 279,-340 265.99,-338.26 252.08,-336.09 238.9,-333.89"/>
<polygon fill="#64748b" stroke="#64748b" points="239.6,-331.52 232.29,-332.77 238.78,-336.35 239.6,-331.52"/>
</g>
<!-- n23 -->
<g id="node23" class="node">
<title>n23</title>
<g id="a_node23"><a xlink:href="vscode://vscode-remote/wsl+Ubuntu/home/gavin/statlib/Statlib/CoxChangePoint/StrictConcaveUnique.lean:52" xlink:title="theorem · Statlib/CoxChangePoint/StrictConcaveUnique.lean:52" target="_blank">
<path fill="#ffe6a3" stroke="#d4a017" d="M1336.26,-412C1336.26,-412 1209.74,-412 1209.74,-412 1203.74,-412 1197.74,-406 1197.74,-400 1197.74,-400 1197.74,-388 1197.74,-388 1197.74,-382 1203.74,-376 1209.74,-376 1209.74,-376 1336.26,-376 1336.26,-376 1342.26,-376 1348.26,-382 1348.26,-388 1348.26,-388 1348.26,-400 1348.26,-400 1348.26,-406 1342.26,-412 1336.26,-412"/>
<text xml:space="preserve" text-anchor="middle" x="1273" y="-391" font-family="Helvetica,sans-Serif" font-size="10.00">unique_max_of_strictConcave</text>
</a>
</g>
</g>
<!-- n24 -->
<g id="node24" class="node">
<title>n24</title>
<g id="a_node24"><a xlink:href="vscode://vscode-remote/wsl+Ubuntu/home/gavin/statlib/Statlib/CoxChangePoint/StrictConcaveUnique.lean:96" xlink:title="theorem · Statlib/CoxChangePoint/StrictConcaveUnique.lean:96" target="_blank">
<path fill="#ffe6a3" stroke="#d4a017" d="M1362.38,-484C1362.38,-484 1183.62,-484 1183.62,-484 1177.62,-484 1171.62,-478 1171.62,-472 1171.62,-472 1171.62,-460 1171.62,-460 1171.62,-454 1177.62,-448 1183.62,-448 1183.62,-448 1362.38,-448 1362.38,-448 1368.38,-448 1374.38,-454 1374.38,-460 1374.38,-460 1374.38,-472 1374.38,-472 1374.38,-478 1368.38,-484 1362.38,-484"/>
<text xml:space="preserve" text-anchor="middle" x="1273" y="-463" font-family="Helvetica,sans-Serif" font-size="10.00">wellSeparated_of_strictConcave_compact</text>
</a>
</g>
</g>
<!-- n24&#45;&gt;n23 -->
<g id="edge47" class="edge">
<title>n24&#45;&gt;n23</title>
<path fill="none" stroke="#64748b" d="M1273,-447.7C1273,-439.47 1273,-429.48 1273,-420.42"/>
<polygon fill="#64748b" stroke="#64748b" points="1275.45,-420.62 1273,-413.62 1270.55,-420.62 1275.45,-420.62"/>
</g>
<!-- n25 -->
<g id="node25" class="node">
<title>n25</title>
<g id="a_node25"><a xlink:href="vscode://vscode-remote/wsl+Ubuntu/home/gavin/statlib/Statlib/CoxChangePoint/CoxConsistencyEndToEnd.lean:230" xlink:title="theorem · Statlib/CoxChangePoint/CoxConsistencyEndToEnd.lean:230" target="_blank">
<path fill="#ffe6a3" stroke="#d4a017" d="M1342.45,-556C1342.45,-556 1127.55,-556 1127.55,-556 1121.55,-556 1115.55,-550 1115.55,-544 1115.55,-544 1115.55,-532 1115.55,-532 1115.55,-526 1121.55,-520 1127.55,-520 1127.55,-520 1342.45,-520 1342.45,-520 1348.45,-520 1354.45,-526 1354.45,-532 1354.45,-532 1354.45,-544 1354.45,-544 1354.45,-550 1348.45,-556 1342.45,-556"/>
<text xml:space="preserve" text-anchor="middle" x="1235" y="-535" font-family="Helvetica,sans-Serif" font-size="10.00">CoxBaselineHypotheses.hWellSep_from_concave</text>
</a>
</g>
</g>
<!-- n25&#45;&gt;n3 -->
<g id="edge48" class="edge">
<title>n25&#45;&gt;n3</title>
<path fill="none" stroke="#64748b" d="M1199.23,-519.64C1182.53,-510.48 1163.06,-498.19 1148,-484 1133.82,-470.64 1139.21,-458.81 1123,-448 1059.3,-405.53 967.53,-396.37 915.98,-394.82"/>
<polygon fill="#64748b" stroke="#64748b" points="916.32,-392.37 909.27,-394.66 916.21,-397.27 916.32,-392.37"/>
</g>
<!-- n25&#45;&gt;n4 -->
<g id="edge49" class="edge">
<title>n25&#45;&gt;n4</title>
<path fill="none" stroke="#64748b" d="M1196.79,-519.52C1173.88,-509.04 1144.81,-495.74 1121.66,-485.14"/>
<polygon fill="#64748b" stroke="#64748b" points="1122.81,-482.98 1115.43,-482.29 1120.77,-487.43 1122.81,-482.98"/>
</g>
<!-- n25&#45;&gt;n24 -->
<g id="edge50" class="edge">
<title>n25&#45;&gt;n24</title>
<path fill="none" stroke="#64748b" d="M1244.39,-519.7C1248.99,-511.22 1254.62,-500.86 1259.66,-491.58"/>
<polygon fill="#64748b" stroke="#64748b" points="1261.81,-492.76 1262.99,-485.43 1257.5,-490.42 1261.81,-492.76"/>
</g>
<!-- n26 -->
<g id="node26" class="node">
<title>n26</title>
<g id="a_node26"><a xlink:href="vscode://vscode-remote/wsl+Ubuntu/home/gavin/statlib/Statlib/CoxChangePoint/ScoreEquation.lean:105" xlink:title="lemma · Statlib/CoxChangePoint/ScoreEquation.lean:105" target="_blank">
<path fill="#eef2f6" stroke="#94a3b8" d="M241.85,-556C241.85,-556 128.15,-556 128.15,-556 122.15,-556 116.15,-550 116.15,-544 116.15,-544 116.15,-532 116.15,-532 116.15,-526 122.15,-520 128.15,-520 128.15,-520 241.85,-520 241.85,-520 247.85,-520 253.85,-526 253.85,-532 253.85,-532 253.85,-544 253.85,-544 253.85,-550 247.85,-556 241.85,-556"/>
<text xml:space="preserve" text-anchor="middle" x="185" y="-535" font-family="Helvetica,sans-Serif" font-size="10.00">IsCoxMLE_implies_argmax</text>
</a>
</g>
</g>
<!-- n26&#45;&gt;n0 -->
<g id="edge52" class="edge">
<title>n26&#45;&gt;n0</title>
<path fill="none" stroke="#64748b" d="M220.03,-519.65C235.97,-510.56 254.3,-498.34 268,-484 319.03,-430.59 327.3,-409.96 351,-340 384.68,-240.58 390.22,-114.03 390.98,-60.62"/>
<polygon fill="#64748b" stroke="#64748b" points="393.43,-60.93 391.05,-53.91 388.53,-60.88 393.43,-60.93"/>
</g>
<!-- n26&#45;&gt;n6 -->
<g id="edge51" class="edge">
<title>n26&#45;&gt;n6</title>
<path fill="none" stroke="#64748b" d="M213.34,-519.66C226.54,-510.43 241.59,-498.07 252,-484 283.28,-441.75 301.25,-381.94 309.48,-348.39"/>
<polygon fill="#64748b" stroke="#64748b" points="311.78,-349.3 311.01,-341.92 307.01,-348.16 311.78,-349.3"/>
</g>
<!-- n26&#45;&gt;n11 -->
<g id="edge54" class="edge">
<title>n26&#45;&gt;n11</title>
<path fill="none" stroke="#64748b" d="M204.12,-519.76C234.77,-489.94 288.78,-427.04 261,-376 253.89,-362.94 242.02,-352.6 229.49,-344.66"/>
<polygon fill="#64748b" stroke="#64748b" points="231.05,-342.74 223.78,-341.26 228.55,-346.95 231.05,-342.74"/>
</g>
<!-- n26&#45;&gt;n13 -->
<g id="edge55" class="edge">
<title>n26&#45;&gt;n13</title>
<path fill="none" stroke="#64748b" d="M189.9,-519.59C196.93,-494.65 209.9,-448.62 217.95,-420.03"/>
<polygon fill="#64748b" stroke="#64748b" points="220.23,-420.97 219.77,-413.57 215.51,-419.64 220.23,-420.97"/>
</g>
<!-- n26&#45;&gt;n14 -->
<g id="edge53" class="edge">
<title>n26&#45;&gt;n14</title>
<path fill="none" stroke="#64748b" d="M158.03,-519.52C143.61,-510.18 125.74,-498.59 110.45,-488.68"/>
<polygon fill="#64748b" stroke="#64748b" points="112.11,-486.84 104.9,-485.08 109.44,-490.95 112.11,-486.84"/>
</g>
<!-- n27 -->
<g id="node27" class="node">
<title>n27</title>
<g id="a_node27"><a xlink:href="vscode://vscode-remote/wsl+Ubuntu/home/gavin/statlib/Statlib/CoxChangePoint/ScoreEquation.lean:119" xlink:title="lemma · Statlib/CoxChangePoint/ScoreEquation.lean:119" target="_blank">
<path fill="#eef2f6" stroke="#94a3b8" d="M269.52,-628C269.52,-628 162.48,-628 162.48,-628 156.48,-628 150.48,-622 150.48,-616 150.48,-616 150.48,-604 150.48,-604 150.48,-598 156.48,-592 162.48,-592 162.48,-592 269.52,-592 269.52,-592 275.52,-592 281.52,-598 281.52,-604 281.52,-604 281.52,-616 281.52,-616 281.52,-622 275.52,-628 269.52,-628"/>
<text xml:space="preserve" text-anchor="middle" x="216" y="-607" font-family="Helvetica,sans-Serif" font-size="10.00">IsCoxMLE_implies_Gn_le</text>
</a>
</g>
</g>
<!-- n27&#45;&gt;n0 -->
<g id="edge57" class="edge">
<title>n27&#45;&gt;n0</title>
<path fill="none" stroke="#64748b" d="M239.84,-591.64C251.61,-582.14 265.32,-569.56 275,-556 305.01,-513.95 346.57,-389.61 361,-340 370.18,-308.43 371.73,-300.28 378,-268 384.17,-236.22 385.43,-228.17 389,-196 394.3,-148.24 395.36,-136.03 394,-88 393.75,-79.02 393.25,-69.19 392.73,-60.46"/>
<polygon fill="#64748b" stroke="#64748b" points="395.19,-60.52 392.31,-53.69 390.3,-60.82 395.19,-60.52"/>
</g>
<!-- n27&#45;&gt;n6 -->
<g id="edge56" class="edge">
<title>n27&#45;&gt;n6</title>
<path fill="none" stroke="#64748b" d="M235.33,-591.51C244.91,-581.88 255.92,-569.23 263,-556 299.88,-487.15 310.64,-393.42 313.75,-348.73"/>
<polygon fill="#64748b" stroke="#64748b" points="316.18,-349.13 314.18,-341.98 311.29,-348.81 316.18,-349.13"/>
</g>
<!-- n27&#45;&gt;n11 -->
<g id="edge61" class="edge">
<title>n27&#45;&gt;n11</title>
<path fill="none" stroke="#64748b" d="M150.31,-595.81C123.87,-587.85 94.58,-575.36 73,-556 22.98,-511.14 31.63,-479.03 27,-412 25.9,-396.04 17.73,-389.04 27,-376 47.81,-346.7 86.07,-333.46 119,-327.54"/>
<polygon fill="#64748b" stroke="#64748b" points="119.24,-329.99 125.75,-326.44 118.44,-325.15 119.24,-329.99"/>
</g>
<!-- n27&#45;&gt;n13 -->
<g id="edge62" class="edge">
<title>n27&#45;&gt;n13</title>
<path fill="none" stroke="#64748b" d="M151.19,-591.56C133.87,-583.62 117.16,-572.23 107,-556 98.51,-542.44 101.09,-534.87 107,-520 124.19,-476.74 164.25,-439.79 192.92,-417.52"/>
<polygon fill="#64748b" stroke="#64748b" points="194.29,-419.55 198.37,-413.37 191.32,-415.66 194.29,-419.55"/>
</g>
<!-- n27&#45;&gt;n14 -->
<g id="edge58" class="edge">
<title>n27&#45;&gt;n14</title>
<path fill="none" stroke="#64748b" d="M150.11,-594.44C128.57,-586.51 106.48,-574.4 92,-556 77.96,-538.17 75.01,-512.03 75.09,-492.69"/>
<polygon fill="#64748b" stroke="#64748b" points="77.53,-492.91 75.27,-485.85 72.63,-492.78 77.53,-492.91"/>
</g>
<!-- n27&#45;&gt;n21 -->
<g id="edge59" class="edge">
<title>n27&#45;&gt;n21</title>
<path fill="none" stroke="#64748b" d="M243.56,-591.67C259.58,-581.48 280.08,-568.23 298,-556 320.62,-540.56 322.53,-530.05 348,-520 465.13,-473.8 508.14,-519.32 629,-484 629.27,-483.92 629.55,-483.84 629.82,-483.75"/>
<polygon fill="#64748b" stroke="#64748b" points="630.63,-486.07 636.4,-481.42 628.99,-481.45 630.63,-486.07"/>
</g>
<!-- n27&#45;&gt;n26 -->
<g id="edge60" class="edge">
<title>n27&#45;&gt;n26</title>
<path fill="none" stroke="#64748b" d="M208.34,-591.7C204.62,-583.3 200.09,-573.07 196.01,-563.86"/>
<polygon fill="#64748b" stroke="#64748b" points="198.26,-562.9 193.19,-557.49 193.78,-564.88 198.26,-562.9"/>
</g>
<!-- n28 -->
<g id="node28" class="node">
<title>n28</title>
<g id="a_node28"><a xlink:href="vscode://vscode-remote/wsl+Ubuntu/home/gavin/statlib/Statlib/CoxChangePoint/CoxConsistencyEndToEnd.lean:266" xlink:title="theorem · Statlib/CoxChangePoint/CoxConsistencyEndToEnd.lean:266" target="_blank">
<path fill="#ffe6a3" stroke="#d4a017" d="M584.71,-701.2C584.71,-701.2 389.29,-701.2 389.29,-701.2 383.29,-701.2 377.29,-695.2 377.29,-689.2 377.29,-689.2 377.29,-677.2 377.29,-677.2 377.29,-671.2 383.29,-665.2 389.29,-665.2 389.29,-665.2 584.71,-665.2 584.71,-665.2 590.71,-665.2 596.71,-671.2 596.71,-677.2 596.71,-677.2 596.71,-689.2 596.71,-689.2 596.71,-695.2 590.71,-701.2 584.71,-701.2"/>
<text xml:space="preserve" text-anchor="middle" x="487" y="-680.2" font-family="Helvetica,sans-Serif" font-size="10.00">CoxBaselineHypotheses.hArgmax_from_MLE</text>
</a>
</g>
</g>
<!-- n28&#45;&gt;n3 -->
<g id="edge63" class="edge">
<title>n28&#45;&gt;n3</title>
<path fill="none" stroke="#64748b" d="M596.88,-681.97C701.79,-680.63 846.73,-675.45 866,-657.2 933.86,-592.96 895.7,-541.04 887,-448 886.15,-438.91 884.5,-429.06 882.78,-420.34"/>
<polygon fill="#64748b" stroke="#64748b" points="885.19,-419.91 881.37,-413.55 880.39,-420.9 885.19,-419.91"/>
</g>
<!-- n28&#45;&gt;n14 -->
<g id="edge64" class="edge">
<title>n28&#45;&gt;n14</title>
<path fill="none" stroke="#64748b" d="M376.9,-679.05C283.37,-675.58 161.15,-668.89 141,-657.2 94.13,-630.01 88.8,-607.83 73,-556 66.72,-535.4 68.46,-510.89 71.34,-492.81"/>
<polygon fill="#64748b" stroke="#64748b" points="73.74,-493.3 72.56,-485.98 68.92,-492.44 73.74,-493.3"/>
</g>
<!-- n28&#45;&gt;n19 -->
<g id="edge65" class="edge">
<title>n28&#45;&gt;n19</title>
<path fill="none" stroke="#64748b" d="M511.92,-664.79C543.57,-641.98 598.88,-599.72 639,-556 652.17,-541.65 649.63,-533.15 664,-520 681.19,-504.28 703.84,-491.24 722.49,-482.04"/>
<polygon fill="#64748b" stroke="#64748b" points="723.07,-484.47 728.32,-479.23 720.95,-480.06 723.07,-484.47"/>
</g>
<!-- n28&#45;&gt;n21 -->
<g id="edge66" class="edge">
<title>n28&#45;&gt;n21</title>
<path fill="none" stroke="#64748b" d="M461.2,-664.76C418.45,-633.79 341.55,-567.96 383,-520 419.13,-478.2 576.11,-499.97 629,-484 629.27,-483.92 629.55,-483.83 629.82,-483.75"/>
<polygon fill="#64748b" stroke="#64748b" points="630.64,-486.06 636.39,-481.37 628.98,-481.45 630.64,-486.06"/>
</g>
<!-- n28&#45;&gt;n27 -->
<g id="edge67" class="edge">
<title>n28&#45;&gt;n27</title>
<path fill="none" stroke="#64748b" d="M399.39,-664.71C388.78,-662.32 378.12,-659.8 368,-657.2 337.85,-649.47 304.74,-639.57 277.14,-630.93"/>
<polygon fill="#64748b" stroke="#64748b" points="277.99,-628.63 270.58,-628.86 276.52,-633.3 277.99,-628.63"/>
</g>
<!-- n29 -->
<g id="node29" class="node">
<title>n29</title>
<g id="a_node29"><a xlink:href="vscode://vscode-remote/wsl+Ubuntu/home/gavin/statlib/Statlib/CoxChangePoint/LemmaS1Abstract.lean:77" xlink:title="theorem · Statlib/CoxChangePoint/LemmaS1Abstract.lean:77" target="_blank">
<path fill="#ffe6a3" stroke="#d4a017" d="M623.54,-412C623.54,-412 526.46,-412 526.46,-412 520.46,-412 514.46,-406 514.46,-400 514.46,-400 514.46,-388 514.46,-388 514.46,-382 520.46,-376 526.46,-376 526.46,-376 623.54,-376 623.54,-376 629.54,-376 635.54,-382 635.54,-388 635.54,-388 635.54,-400 635.54,-400 635.54,-406 629.54,-412 623.54,-412"/>
<text xml:space="preserve" text-anchor="middle" x="575" y="-391" font-family="Helvetica,sans-Serif" font-size="10.00">unifConv_of_tail_bound</text>
</a>
</g>
</g>
<!-- n30 -->
<g id="node30" class="node">
<title>n30</title>
<g id="a_node30"><a xlink:href="vscode://vscode-remote/wsl+Ubuntu/home/gavin/statlib/Statlib/CoxChangePoint/ChainingProof.lean:296" xlink:title="theorem · Statlib/CoxChangePoint/ChainingProof.lean:296" target="_blank">
<path fill="#ffe6a3" stroke="#d4a017" d="M608.39,-484C608.39,-484 449.61,-484 449.61,-484 443.61,-484 437.61,-478 437.61,-472 437.61,-472 437.61,-460 437.61,-460 437.61,-454 443.61,-448 449.61,-448 449.61,-448 608.39,-448 608.39,-448 614.39,-448 620.39,-454 620.39,-460 620.39,-460 620.39,-472 620.39,-472 620.39,-478 614.39,-484 608.39,-484"/>
<text xml:space="preserve" text-anchor="middle" x="529" y="-463" font-family="Helvetica,sans-Serif" font-size="10.00">unifConv_of_VW_2_14_9_conclusion</text>
</a>
</g>
</g>
<!-- n30&#45;&gt;n20 -->
<g id="edge68" class="edge">
<title>n30&#45;&gt;n20</title>
<path fill="none" stroke="#64748b" d="M505.27,-447.7C492.69,-438.53 477.1,-427.16 463.62,-417.33"/>
<polygon fill="#64748b" stroke="#64748b" points="465.11,-415.38 458.01,-413.24 462.23,-419.34 465.11,-415.38"/>
</g>
<!-- n30&#45;&gt;n29 -->
<g id="edge69" class="edge">
<title>n30&#45;&gt;n29</title>
<path fill="none" stroke="#64748b" d="M540.37,-447.7C546.05,-439.05 553.02,-428.45 559.21,-419.03"/>
<polygon fill="#64748b" stroke="#64748b" points="561.13,-420.56 562.93,-413.37 557.04,-417.87 561.13,-420.56"/>
</g>
<!-- n31 -->
<g id="node31" class="node">
<title>n31</title>
<g id="a_node31"><a xlink:href="vscode://vscode-remote/wsl+Ubuntu/home/gavin/statlib/Statlib/CoxChangePoint/CoxConsistencyEndToEnd.lean:291" xlink:title="theorem · Statlib/CoxChangePoint/CoxConsistencyEndToEnd.lean:291" target="_blank">
<path fill="#ffe6a3" stroke="#d4a017" d="M617.62,-556C617.62,-556 404.38,-556 404.38,-556 398.38,-556 392.38,-550 392.38,-544 392.38,-544 392.38,-532 392.38,-532 392.38,-526 398.38,-520 404.38,-520 404.38,-520 617.62,-520 617.62,-520 623.62,-520 629.62,-526 629.62,-532 629.62,-532 629.62,-544 629.62,-544 629.62,-550 623.62,-556 617.62,-556"/>
<text xml:space="preserve" text-anchor="middle" x="511" y="-535" font-family="Helvetica,sans-Serif" font-size="10.00">CoxBaselineHypotheses.hUnif_from_VW_2_14_9</text>
</a>
</g>
</g>
<!-- n31&#45;&gt;n3 -->
<g id="edge70" class="edge">
<title>n31&#45;&gt;n3</title>
<path fill="none" stroke="#64748b" d="M628.91,-519.6C654.53,-511.78 680.16,-500.44 701,-484 715.37,-472.66 706.95,-459.73 721,-448 730.26,-440.27 795.01,-419.73 838.13,-406.61"/>
<polygon fill="#64748b" stroke="#64748b" points="838.74,-408.98 844.73,-404.61 837.32,-404.29 838.74,-408.98"/>
</g>
<!-- n31&#45;&gt;n4 -->
<g id="edge72" class="edge">
<title>n31&#45;&gt;n4</title>
<path fill="none" stroke="#64748b" d="M630.01,-522.41C758.93,-506.61 957.48,-482.27 1041.85,-471.92"/>
<polygon fill="#64748b" stroke="#64748b" points="1041.98,-474.37 1048.63,-471.09 1041.39,-469.51 1041.98,-474.37"/>
</g>
<!-- n31&#45;&gt;n19 -->
<g id="edge74" class="edge">
<title>n31&#45;&gt;n19</title>
<path fill="none" stroke="#64748b" d="M589.14,-519.52C627.7,-510.21 674.69,-497.83 716,-484 717.98,-483.34 720,-482.62 722.04,-481.88"/>
<polygon fill="#64748b" stroke="#64748b" points="722.78,-484.21 728.44,-479.42 721.03,-479.64 722.78,-484.21"/>
</g>
<!-- n31&#45;&gt;n20 -->
<g id="edge71" class="edge">
<title>n31&#45;&gt;n20</title>
<path fill="none" stroke="#64748b" d="M467.52,-519.51C452.54,-511.13 437.43,-499.48 429,-484 418.42,-464.56 420.92,-439.05 425.18,-420.32"/>
<polygon fill="#64748b" stroke="#64748b" points="427.51,-421.1 426.85,-413.71 422.76,-419.9 427.51,-421.1"/>
</g>
<!-- n31&#45;&gt;n21 -->
<g id="edge73" class="edge">
<title>n31&#45;&gt;n21</title>
<path fill="none" stroke="#64748b" d="M550.42,-519.52C573.39,-509.28 602.89,-496.03 629,-484 629.35,-483.84 629.69,-483.68 630.04,-483.52"/>
<polygon fill="#64748b" stroke="#64748b" points="630.82,-485.86 636.14,-480.69 628.75,-481.42 630.82,-485.86"/>
</g>
<!-- n31&#45;&gt;n30 -->
<g id="edge75" class="edge">
<title>n31&#45;&gt;n30</title>
<path fill="none" stroke="#64748b" d="M515.45,-519.7C517.59,-511.39 520.19,-501.28 522.54,-492.14"/>
<polygon fill="#64748b" stroke="#64748b" points="524.85,-492.96 524.22,-485.57 520.11,-491.74 524.85,-492.96"/>
</g>
<!-- n32 -->
<g id="node32" class="node">
<title>n32</title>
<g id="a_node32"><a xlink:href="vscode://vscode-remote/wsl+Ubuntu/home/gavin/statlib/Statlib/CoxChangePoint/CoxConsistencyEndToEnd.lean:93" xlink:title="structure · Statlib/CoxChangePoint/CoxConsistencyEndToEnd.lean:93" target="_blank">
<path fill="#e8dcff" stroke="#8b5cf6" d="M1026.48,-556C1026.48,-556 925.52,-556 925.52,-556 919.52,-556 913.52,-550 913.52,-544 913.52,-544 913.52,-532 913.52,-532 913.52,-526 919.52,-520 925.52,-520 925.52,-520 1026.48,-520 1026.48,-520 1032.48,-520 1038.48,-526 1038.48,-532 1038.48,-532 1038.48,-544 1038.48,-544 1038.48,-550 1032.48,-556 1026.48,-556"/>
<text xml:space="preserve" text-anchor="middle" x="976" y="-535" font-family="Helvetica,sans-Serif" font-size="10.00">CoxBaselineHypotheses</text>
</a>
</g>
</g>
<!-- n32&#45;&gt;n3 -->
<g id="edge76" class="edge">
<title>n32&#45;&gt;n3</title>
<path fill="none" stroke="#64748b" d="M963.86,-519.59C946.25,-494.33 913.55,-447.43 893.69,-418.93"/>
<polygon fill="#64748b" stroke="#64748b" points="895.81,-417.69 889.8,-413.35 891.79,-420.5 895.81,-417.69"/>
</g>
<!-- n32&#45;&gt;n4 -->
<g id="edge77" class="edge">
<title>n32&#45;&gt;n4</title>
<path fill="none" stroke="#64748b" d="M1002.47,-519.52C1016.49,-510.26 1033.85,-498.8 1048.76,-488.95"/>
<polygon fill="#64748b" stroke="#64748b" points="1050.11,-491 1054.6,-485.09 1047.41,-486.91 1050.11,-491"/>
</g>
<!-- n32&#45;&gt;n19 -->
<g id="edge79" class="edge">
<title>n32&#45;&gt;n19</title>
<path fill="none" stroke="#64748b" d="M921.3,-519.52C880.95,-506.62 827.23,-489.45 792.38,-478.31"/>
<polygon fill="#64748b" stroke="#64748b" points="793.24,-476.01 785.83,-476.21 791.75,-480.68 793.24,-476.01"/>
</g>
<!-- n32&#45;&gt;n21 -->
<g id="edge78" class="edge">
<title>n32&#45;&gt;n21</title>
<path fill="none" stroke="#64748b" d="M913.29,-525.59C861.45,-515.78 786.06,-500.6 721,-484 714.28,-482.28 707.16,-480.28 700.33,-478.25"/>
<polygon fill="#64748b" stroke="#64748b" points="701.35,-476 693.94,-476.32 699.93,-480.69 701.35,-476"/>
</g>
<!-- n33 -->
<g id="node33" class="node">
<title>n33</title>
<g id="a_node33"><a xlink:href="vscode://vscode-remote/wsl+Ubuntu/home/gavin/statlib/Statlib/CoxChangePoint/CoxModel.lean:168" xlink:title="def · Statlib/CoxChangePoint/CoxModel.lean:168" target="_blank">
<path fill="#d6e9ff" stroke="#3b82f6" d="M843.58,-556C843.58,-556 740.42,-556 740.42,-556 734.42,-556 728.42,-550 728.42,-544 728.42,-544 728.42,-532 728.42,-532 728.42,-526 734.42,-520 740.42,-520 740.42,-520 843.58,-520 843.58,-520 849.58,-520 855.58,-526 855.58,-532 855.58,-532 855.58,-544 855.58,-544 855.58,-550 849.58,-556 843.58,-556"/>
<text xml:space="preserve" text-anchor="middle" x="792" y="-535" font-family="Helvetica,sans-Serif" font-size="10.00">toTheorem1Assumptions</text>
</a>
</g>
</g>
<!-- n33&#45;&gt;n0 -->
<g id="edge81" class="edge">
<title>n33&#45;&gt;n0</title>
<path fill="none" stroke="#64748b" d="M795.76,-519.7C800.85,-495.65 809.89,-450.72 815,-412 824.4,-340.83 828,-322.79 828,-251 828,-251 828,-251 828,-177 828,-157.1 831.99,-102.15 818,-88 791.05,-60.74 532.79,-43.12 431.49,-37.21"/>
<polygon fill="#64748b" stroke="#64748b" points="431.68,-34.76 424.55,-36.81 431.4,-39.66 431.68,-34.76"/>
</g>
<!-- n33&#45;&gt;n3 -->
<g id="edge80" class="edge">
<title>n33&#45;&gt;n3</title>
<path fill="none" stroke="#64748b" d="M806.15,-519.89C814.2,-509.77 824.2,-496.52 832,-484 845.06,-463.04 857.54,-437.81 866.02,-419.58"/>
<polygon fill="#64748b" stroke="#64748b" points="868.08,-420.98 868.78,-413.6 863.62,-418.93 868.08,-420.98"/>
</g>
<!-- n33&#45;&gt;n19 -->
<g id="edge83" class="edge">
<title>n33&#45;&gt;n19</title>
<path fill="none" stroke="#64748b" d="M783.35,-519.7C779.11,-511.22 773.93,-500.86 769.29,-491.58"/>
<polygon fill="#64748b" stroke="#64748b" points="771.55,-490.62 766.23,-485.46 767.17,-492.81 771.55,-490.62"/>
</g>
<!-- n33&#45;&gt;n21 -->
<g id="edge82" class="edge">
<title>n33&#45;&gt;n21</title>
<path fill="none" stroke="#64748b" d="M760.28,-519.52C741.86,-509.36 718.63,-496.56 699.72,-486.14"/>
<polygon fill="#64748b" stroke="#64748b" points="701.08,-484.09 693.77,-482.86 698.72,-488.38 701.08,-484.09"/>
</g>
<!-- n34 -->
<g id="node34" class="node">
<title>n34</title>
<g id="a_node34"><a xlink:href="vscode://vscode-remote/wsl+Ubuntu/home/gavin/statlib/Statlib/CoxChangePoint/CoxModel.lean:213" xlink:title="theorem · Statlib/CoxChangePoint/CoxModel.lean:213" target="_blank">
<path fill="#ffe6a3" stroke="#d4a017" d="M844.68,-628C844.68,-628 779.32,-628 779.32,-628 773.32,-628 767.32,-622 767.32,-616 767.32,-616 767.32,-604 767.32,-604 767.32,-598 773.32,-592 779.32,-592 779.32,-592 844.68,-592 844.68,-592 850.68,-592 856.68,-598 856.68,-604 856.68,-604 856.68,-616 856.68,-616 856.68,-622 850.68,-628 844.68,-628"/>
<text xml:space="preserve" text-anchor="middle" x="812" y="-607" font-family="Helvetica,sans-Serif" font-size="10.00">cox_consistency</text>
</a>
</g>
</g>
<!-- n34&#45;&gt;n0 -->
<g id="edge85" class="edge">
<title>n34&#45;&gt;n0</title>
<path fill="none" stroke="#64748b" d="M857.16,-605.38C918.63,-599.42 1023.69,-585.15 1047,-556 1056.99,-543.5 1048.32,-535.95 1047,-520 1045.66,-503.83 1043.24,-500.07 1041,-484 1035.5,-444.58 1031,-434.8 1031,-395 1031,-395 1031,-395 1031,-177 1031,-53.54 571.33,-37.35 431.12,-35.29"/>
<polygon fill="#64748b" stroke="#64748b" points="431.28,-32.84 424.25,-35.19 431.22,-37.74 431.28,-32.84"/>
</g>
<!-- n34&#45;&gt;n3 -->
<g id="edge84" class="edge">
<title>n34&#45;&gt;n3</title>
<path fill="none" stroke="#64748b" d="M836.02,-591.57C846.84,-582.31 858.6,-569.96 865,-556 885.27,-511.8 883.58,-453.56 880.38,-420.61"/>
<polygon fill="#64748b" stroke="#64748b" points="882.84,-420.62 879.66,-413.92 877.97,-421.14 882.84,-420.62"/>
</g>
<!-- n34&#45;&gt;n19 -->
<g id="edge87" class="edge">
<title>n34&#45;&gt;n19</title>
<path fill="none" stroke="#64748b" d="M767.24,-594.86C748.91,-586.61 729.55,-574.16 719,-556 706.75,-534.91 720.61,-509.12 734.91,-490.74"/>
<polygon fill="#64748b" stroke="#64748b" points="736.66,-492.47 739.19,-485.5 732.87,-489.37 736.66,-492.47"/>
</g>
<!-- n34&#45;&gt;n21 -->
<g id="edge86" class="edge">
<title>n34&#45;&gt;n21</title>
<path fill="none" stroke="#64748b" d="M766.92,-592.87C747.59,-584.24 725.86,-572.03 710,-556 692.21,-538.01 680.07,-511.56 672.92,-492.17"/>
<polygon fill="#64748b" stroke="#64748b" points="675.3,-491.55 670.67,-485.76 670.68,-493.18 675.3,-491.55"/>
</g>
<!-- n34&#45;&gt;n33 -->
<g id="edge88" class="edge">
<title>n34&#45;&gt;n33</title>
<path fill="none" stroke="#64748b" d="M807.06,-591.7C804.68,-583.39 801.79,-573.28 799.18,-564.14"/>
<polygon fill="#64748b" stroke="#64748b" points="801.58,-563.62 797.3,-557.56 796.87,-564.96 801.58,-563.62"/>
</g>
<!-- n35 -->
<g id="node35" class="node">
<title>n35</title>
<g id="a_node35"><a xlink:href="vscode://vscode-remote/wsl+Ubuntu/home/gavin/statlib/Statlib/CoxChangePoint/CoxConsistencyEndToEnd.lean:125" xlink:title="theorem · Statlib/CoxChangePoint/CoxConsistencyEndToEnd.lean:125" target="_blank">
<path fill="#ffe6a3" stroke="#d4a017" d="M998.12,-701.2C998.12,-701.2 953.88,-701.2 953.88,-701.2 947.88,-701.2 941.88,-695.2 941.88,-689.2 941.88,-689.2 941.88,-677.2 941.88,-677.2 941.88,-671.2 947.88,-665.2 953.88,-665.2 953.88,-665.2 998.12,-665.2 998.12,-665.2 1004.12,-665.2 1010.12,-671.2 1010.12,-677.2 1010.12,-677.2 1010.12,-689.2 1010.12,-689.2 1010.12,-695.2 1004.12,-701.2 998.12,-701.2"/>
<text xml:space="preserve" text-anchor="middle" x="976" y="-680.2" font-family="Helvetica,sans-Serif" font-size="10.00">consistency</text>
</a>
</g>
</g>
<!-- n35&#45;&gt;n4 -->
<g id="edge91" class="edge">
<title>n35&#45;&gt;n4</title>
<path fill="none" stroke="#64748b" d="M990.83,-665.07C1010.12,-641.91 1043.52,-598.56 1062,-556 1070.83,-535.65 1075.99,-510.92 1078.85,-492.7"/>
<polygon fill="#64748b" stroke="#64748b" points="1081.26,-493.11 1079.85,-485.83 1076.41,-492.4 1081.26,-493.11"/>
</g>
<!-- n35&#45;&gt;n32 -->
<g id="edge89" class="edge">
<title>n35&#45;&gt;n32</title>
<path fill="none" stroke="#64748b" d="M976,-664.93C976,-639.98 976,-593.7 976,-564.73"/>
<polygon fill="#64748b" stroke="#64748b" points="978.45,-564.85 976,-557.85 973.55,-564.85 978.45,-564.85"/>
</g>
<!-- n35&#45;&gt;n34 -->
<g id="edge92" class="edge">
<title>n35&#45;&gt;n34</title>
<path fill="none" stroke="#64748b" d="M941.62,-667.27C917.85,-656.96 885.92,-643.09 859.7,-631.71"/>
<polygon fill="#64748b" stroke="#64748b" points="860.9,-629.56 853.5,-629.02 858.95,-634.05 860.9,-629.56"/>
</g>
<!-- n22 -->
<g id="node37" class="node">
<title>n22</title>
<g id="a_node37"><a xlink:href="vscode://vscode-remote/wsl+Ubuntu/home/gavin/statlib/Statlib/EmpiricalProcess/StochasticOrder.lean:54" xlink:title="def · Statlib/EmpiricalProcess/StochasticOrder.lean:54" target="_blank">
<path fill="#d6e9ff" stroke="#3b82f6" d="M1505.69,-628C1505.69,-628 1410.31,-628 1410.31,-628 1404.31,-628 1398.31,-622 1398.31,-616 1398.31,-616 1398.31,-604 1398.31,-604 1398.31,-598 1404.31,-592 1410.31,-592 1410.31,-592 1505.69,-592 1505.69,-592 1511.69,-592 1517.69,-598 1517.69,-604 1517.69,-604 1517.69,-616 1517.69,-616 1517.69,-622 1511.69,-628 1505.69,-628"/>
<text xml:space="preserve" text-anchor="middle" x="1458" y="-607" font-family="Helvetica,sans-Serif" font-size="10.00">ConvergesInProbability</text>
</a>
</g>
</g>
<!-- n35&#45;&gt;n22 -->
<g id="edge90" class="edge">
<title>n35&#45;&gt;n22</title>
<path fill="none" stroke="#64748b" d="M1010.37,-682.32C1095.94,-682.27 1316.6,-679.87 1386,-657.2 1401.84,-652.03 1417.63,-642.51 1430.37,-633.45"/>
<polygon fill="#64748b" stroke="#64748b" points="1431.7,-635.51 1435.89,-629.4 1428.8,-631.57 1431.7,-635.51"/>
</g>
<!-- n36 -->
<g id="node36" class="node">
<title>n36</title>
<g id="a_node36"><a xlink:href="vscode://vscode-remote/wsl+Ubuntu/home/gavin/statlib/Statlib/CoxChangePoint/CoxConsistencyEndToEnd.lean:365" xlink:title="theorem · Statlib/CoxChangePoint/CoxConsistencyEndToEnd.lean:365" target="_blank">
<path fill="#ffe6a3" stroke="#d4a017" stroke-width="3" d="M730.88,-773.2C730.88,-773.2 607.12,-773.2 607.12,-773.2 601.12,-773.2 595.12,-767.2 595.12,-761.2 595.12,-761.2 595.12,-749.2 595.12,-749.2 595.12,-743.2 601.12,-737.2 607.12,-737.2 607.12,-737.2 730.88,-737.2 730.88,-737.2 736.88,-737.2 742.88,-743.2 742.88,-749.2 742.88,-749.2 742.88,-761.2 742.88,-761.2 742.88,-767.2 736.88,-773.2 730.88,-773.2"/>
<text xml:space="preserve" text-anchor="middle" x="669" y="-752.2" font-family="Helvetica,sans-Serif" font-size="10.00">cox_consistency_end_to_end</text>
</a>
</g>
</g>
<!-- n36&#45;&gt;n3 -->
<g id="edge93" class="edge">
<title>n36&#45;&gt;n3</title>
<path fill="none" stroke="#64748b" d="M744.02,-749.59C855.86,-742.05 1060.59,-725.43 1130,-701.2 1245.2,-660.98 1303.78,-662.68 1363,-556 1370.77,-542.01 1373.26,-532.27 1363,-520 1305.07,-450.71 1237.53,-535.01 1163,-484 1147.53,-473.41 1156.37,-458.74 1141,-448 1105.16,-422.94 980.69,-406.2 916.29,-399.01"/>
<polygon fill="#64748b" stroke="#64748b" points="916.72,-396.59 909.49,-398.26 916.19,-401.46 916.72,-396.59"/>
</g>
<!-- n36&#45;&gt;n4 -->
<g id="edge94" class="edge">
<title>n36&#45;&gt;n4</title>
<path fill="none" stroke="#64748b" d="M744.07,-751.59C834.09,-747 977.99,-734.54 1019,-701.2 1082.34,-649.72 1085.88,-541.9 1083.86,-492.6"/>
<polygon fill="#64748b" stroke="#64748b" points="1086.32,-492.75 1083.53,-485.89 1081.43,-493 1086.32,-492.75"/>
</g>
<!-- n36&#45;&gt;n14 -->
<g id="edge95" class="edge">
<title>n36&#45;&gt;n14</title>
<path fill="none" stroke="#64748b" d="M593.77,-752.72C450.74,-748.22 147.6,-730.11 78,-657.2 35.66,-612.84 54.22,-532.75 67.61,-492.11"/>
<polygon fill="#64748b" stroke="#64748b" points="69.84,-493.15 69.79,-485.73 65.21,-491.56 69.84,-493.15"/>
</g>
<!-- n36&#45;&gt;n19 -->
<g id="edge96" class="edge">
<title>n36&#45;&gt;n19</title>
<path fill="none" stroke="#64748b" d="M668.88,-735.85C669.31,-694.97 674.23,-594.17 710,-520 715.24,-509.13 723.38,-498.8 731.41,-490.2"/>
<polygon fill="#64748b" stroke="#64748b" points="733.02,-492.06 736.15,-485.34 729.51,-488.64 733.02,-492.06"/>
</g>
<!-- n36&#45;&gt;n20 -->
<g id="edge97" class="edge">
<title>n36&#45;&gt;n20</title>
<path fill="none" stroke="#64748b" d="M593.86,-751.91C509.97,-747.67 381.68,-735.59 349,-701.2 293.52,-642.82 322.54,-596.06 349,-520 362.59,-480.95 391.44,-442.45 411.51,-418.72"/>
<polygon fill="#64748b" stroke="#64748b" points="413.23,-420.48 415.94,-413.57 409.51,-417.28 413.23,-420.48"/>
</g>
<!-- n36&#45;&gt;n21 -->
<g id="edge98" class="edge">
<title>n36&#45;&gt;n21</title>
<path fill="none" stroke="#64748b" d="M593.73,-751.61C514.2,-747.1 396.39,-734.79 368,-701.2 342.01,-670.45 340.54,-550.35 367,-520 405.62,-475.71 572.67,-500.74 629,-484 629.27,-483.92 629.55,-483.84 629.82,-483.75"/>
<polygon fill="#64748b" stroke="#64748b" points="630.63,-486.06 636.4,-481.39 628.98,-481.45 630.63,-486.06"/>
</g>
<!-- n36&#45;&gt;n25 -->
<g id="edge100" class="edge">
<title>n36&#45;&gt;n25</title>
<path fill="none" stroke="#64748b" d="M744.14,-751.69C851.42,-746.98 1042.11,-734.14 1102,-701.2 1160.09,-669.25 1202.82,-600.71 1222.66,-563.79"/>
<polygon fill="#64748b" stroke="#64748b" points="1224.74,-565.08 1225.84,-557.75 1220.41,-562.8 1224.74,-565.08"/>
</g>
<!-- n36&#45;&gt;n28 -->
<g id="edge101" class="edge">
<title>n36&#45;&gt;n28</title>
<path fill="none" stroke="#64748b" d="M621.18,-735.81C596.27,-726.23 565.74,-714.48 540.1,-704.62"/>
<polygon fill="#64748b" stroke="#64748b" points="541.13,-702.4 533.72,-702.17 539.37,-706.97 541.13,-702.4"/>
</g>
<!-- n36&#45;&gt;n31 -->
<g id="edge102" class="edge">
<title>n36&#45;&gt;n31</title>
<path fill="none" stroke="#64748b" d="M656.36,-736.02C643.75,-717.96 623.75,-689.51 606,-665.2 579.84,-629.37 548.8,-588.42 529.5,-563.14"/>
<polygon fill="#64748b" stroke="#64748b" points="531.5,-561.71 525.3,-557.64 527.6,-564.69 531.5,-561.71"/>
</g>
<!-- n36&#45;&gt;n35 -->
<g id="edge103" class="edge">
<title>n36&#45;&gt;n35</title>
<path fill="none" stroke="#64748b" d="M744.1,-737.08C803.67,-723.49 884.78,-705 933.6,-693.87"/>
<polygon fill="#64748b" stroke="#64748b" points="933.98,-696.29 940.26,-692.35 932.89,-691.52 933.98,-696.29"/>
</g>
<!-- n36&#45;&gt;n22 -->
<g id="edge99" class="edge">
<title>n36&#45;&gt;n22</title>
<path fill="none" stroke="#64748b" d="M744.14,-751.77C915.02,-745.79 1322.28,-728.8 1378,-701.2 1407.03,-686.82 1430.19,-656.86 1443.98,-635.42"/>
<polygon fill="#64748b" stroke="#64748b" points="1446.04,-636.75 1447.66,-629.51 1441.88,-634.16 1446.04,-636.75"/>
</g>
</g>
</svg>
