<?xml version="1.0" encoding="UTF-8" standalone="no"?>
<!DOCTYPE svg PUBLIC "-//W3C//DTD SVG 1.1//EN"
 "http://www.w3.org/Graphics/SVG/1.1/DTD/svg11.dtd">
<!-- Generated by graphviz version 15.0.0 (20260523.1842)
 -->
<!-- Title: cox_theorem_2_end_to_end Pages: 1 -->
<svg width="1003pt" height="1131pt"
 viewBox="0.00 0.00 1003.00 1131.00" xmlns="http://www.w3.org/2000/svg" xmlns:xlink="http://www.w3.org/1999/xlink">
<g id="graph0" class="graph" transform="scale(1 1) rotate(0) translate(4 1127.2)">
<title>cox_theorem_2_end_to_end</title>
<polygon fill="white" stroke="none" points="-4,4 -4,-1127.2 999,-1127.2 999,4 -4,4"/>
<text xml:space="preserve" text-anchor="middle" x="497.5" y="-1106.6" font-family="Helvetica,sans-Serif" font-size="14.00">Proof narrative — cox_theorem_2_end_to_end &#160;(36 decls)</text>
<g id="clust1" class="cluster">
<title>cluster_0</title>
<path fill="none" stroke="#cbd5e1" stroke-dasharray="5,2" d="M20,-8C20,-8 695,-8 695,-8 701,-8 707,-14 707,-20 707,-20 707,-1078.4 707,-1078.4 707,-1084.4 701,-1090.4 695,-1090.4 695,-1090.4 20,-1090.4 20,-1090.4 14,-1090.4 8,-1084.4 8,-1078.4 8,-1078.4 8,-20 8,-20 8,-14 14,-8 20,-8"/>
<text xml:space="preserve" text-anchor="middle" x="357.5" y="-1076.5" font-family="Helvetica,sans-Serif" font-size="11.00">CoxChangePoint</text>
</g>
<g id="clust2" class="cluster">
<title>cluster_1</title>
<path fill="none" stroke="#cbd5e1" stroke-dasharray="5,2" d="M727,-440C727,-440 975,-440 975,-440 981,-440 987,-446 987,-452 987,-452 987,-501.2 987,-501.2 987,-507.2 981,-513.2 975,-513.2 975,-513.2 727,-513.2 727,-513.2 721,-513.2 715,-507.2 715,-501.2 715,-501.2 715,-452 715,-452 715,-446 721,-440 727,-440"/>
<text xml:space="preserve" text-anchor="middle" x="851" y="-499.3" font-family="Helvetica,sans-Serif" font-size="11.00">EmpiricalProcess</text>
</g>
<!-- n0 -->
<g id="node1" class="node">
<title>n0</title>
<g id="a_node1"><a xlink:href="vscode://vscode-remote/wsl+Ubuntu/home/gavin/statlib/Statlib/CoxChangePoint/Foundation.lean:57" xlink:title="structure · Statlib/CoxChangePoint/Foundation.lean:57" target="_blank">
<path fill="#e8dcff" stroke="#8b5cf6" d="M647.62,-52C647.62,-52 608.38,-52 608.38,-52 602.38,-52 596.38,-46 596.38,-40 596.38,-40 596.38,-28 596.38,-28 596.38,-22 602.38,-16 608.38,-16 608.38,-16 647.62,-16 647.62,-16 653.62,-16 659.62,-22 659.62,-28 659.62,-28 659.62,-40 659.62,-40 659.62,-46 653.62,-52 647.62,-52"/>
<text xml:space="preserve" text-anchor="middle" x="628" y="-31" font-family="Helvetica,sans-Serif" font-size="10.00">CoxParam</text>
</a>
</g>
</g>
<!-- n1 -->
<g id="node2" class="node">
<title>n1</title>
<g id="a_node2"><a xlink:href="vscode://vscode-remote/wsl+Ubuntu/home/gavin/statlib/Statlib/CoxChangePoint/FPC.lean:55" xlink:title="def · Statlib/CoxChangePoint/FPC.lean:55" target="_blank">
<path fill="#d6e9ff" stroke="#3b82f6" d="M257.02,-52C257.02,-52 184.98,-52 184.98,-52 178.98,-52 172.98,-46 172.98,-40 172.98,-40 172.98,-28 172.98,-28 172.98,-22 178.98,-16 184.98,-16 184.98,-16 257.02,-16 257.02,-16 263.02,-16 269.02,-22 269.02,-28 269.02,-28 269.02,-40 269.02,-40 269.02,-46 263.02,-52 257.02,-52"/>
<text xml:space="preserve" text-anchor="middle" x="221" y="-31" font-family="Helvetica,sans-Serif" font-size="10.00">FunctionalSample</text>
</a>
</g>
</g>
<!-- n2 -->
<g id="node3" class="node">
<title>n2</title>
<g id="a_node3"><a xlink:href="vscode://vscode-remote/wsl+Ubuntu/home/gavin/statlib/Statlib/CoxChangePoint/FPC.lean:42" xlink:title="structure · Statlib/CoxChangePoint/FPC.lean:42" target="_blank">
<path fill="#e8dcff" stroke="#8b5cf6" d="M111.62,-52C111.62,-52 62.38,-52 62.38,-52 56.38,-52 50.38,-46 50.38,-40 50.38,-40 50.38,-28 50.38,-28 50.38,-22 56.38,-16 62.38,-16 62.38,-16 111.62,-16 111.62,-16 117.62,-16 123.62,-22 123.62,-28 123.62,-28 123.62,-40 123.62,-40 123.62,-46 117.62,-52 111.62,-52"/>
<text xml:space="preserve" text-anchor="middle" x="87" y="-31" font-family="Helvetica,sans-Serif" font-size="10.00">Eigensystem</text>
</a>
</g>
</g>
<!-- n3 -->
<g id="node4" class="node">
<title>n3</title>
<g id="a_node4"><a xlink:href="vscode://vscode-remote/wsl+Ubuntu/home/gavin/statlib/Statlib/CoxChangePoint/CoxModel.lean:80" xlink:title="structure · Statlib/CoxChangePoint/CoxModel.lean:80" target="_blank">
<path fill="#e8dcff" stroke="#8b5cf6" d="M223.51,-340C223.51,-340 186.49,-340 186.49,-340 180.49,-340 174.49,-334 174.49,-328 174.49,-328 174.49,-316 174.49,-316 174.49,-310 180.49,-304 186.49,-304 186.49,-304 223.51,-304 223.51,-304 229.51,-304 235.51,-310 235.51,-316 235.51,-316 235.51,-328 235.51,-328 235.51,-334 229.51,-340 223.51,-340"/>
<text xml:space="preserve" text-anchor="middle" x="205" y="-319" font-family="Helvetica,sans-Serif" font-size="10.00">CoxModel</text>
</a>
</g>
</g>
<!-- n3&#45;&gt;n0 -->
<g id="edge1" class="edge">
<title>n3&#45;&gt;n0</title>
<path fill="none" stroke="#64748b" d="M235.8,-306.67C238.54,-305.67 241.3,-304.76 244,-304 356.3,-272.4 405.17,-329.99 504,-268 579.59,-220.59 611.93,-110.48 623.08,-60.5"/>
<polygon fill="#64748b" stroke="#64748b" points="625.42,-61.29 624.49,-53.93 620.63,-60.26 625.42,-61.29"/>
</g>
<!-- n3&#45;&gt;n1 -->
<g id="edge2" class="edge">
<title>n3&#45;&gt;n1</title>
<path fill="none" stroke="#64748b" d="M179.33,-303.72C168.08,-294.58 156.07,-282.28 150,-268 143.74,-253.28 142.22,-245.98 150,-232 164.75,-205.49 192.2,-221.9 208,-196 221.45,-173.97 222.28,-100.38 221.68,-60.77"/>
<polygon fill="#64748b" stroke="#64748b" points="224.13,-60.87 221.56,-53.91 219.24,-60.96 224.13,-60.87"/>
</g>
<!-- n3&#45;&gt;n2 -->
<g id="edge3" class="edge">
<title>n3&#45;&gt;n2</title>
<path fill="none" stroke="#64748b" d="M174.02,-319.36C140.1,-315.72 87.18,-304.19 62,-268 16.31,-202.33 44.51,-166.07 62,-88 64.15,-78.42 68.22,-68.54 72.47,-59.94"/>
<polygon fill="#64748b" stroke="#64748b" points="74.62,-61.13 75.68,-53.79 70.27,-58.86 74.62,-61.13"/>
</g>
<!-- n4 -->
<g id="node5" class="node">
<title>n4</title>
<g id="a_node5"><a xlink:href="vscode://vscode-remote/wsl+Ubuntu/home/gavin/statlib/Statlib/CoxChangePoint/Auto/smoothed_empirical_process_approximation.lean:18" xlink:title="private structure · Statlib/CoxChangePoint/Auto/smoothed_empirical_process_approximation.lean:18" target="_blank">
<path fill="#e8dcff" stroke="#8b5cf6" d="M199.62,-484C199.62,-484 160.38,-484 160.38,-484 154.38,-484 148.38,-478 148.38,-472 148.38,-472 148.38,-460 148.38,-460 148.38,-454 154.38,-448 160.38,-448 160.38,-448 199.62,-448 199.62,-448 205.62,-448 211.62,-454 211.62,-460 211.62,-460 211.62,-472 211.62,-472 211.62,-478 205.62,-484 199.62,-484"/>
<text xml:space="preserve" text-anchor="middle" x="180" y="-463" font-family="Helvetica,sans-Serif" font-size="10.00">CoxParam</text>
</a>
</g>
</g>
<!-- n6 -->
<g id="node6" class="node">
<title>n6</title>
<g id="a_node6"><a xlink:href="vscode://vscode-remote/wsl+Ubuntu/home/gavin/statlib/Statlib/CoxChangePoint/Theorem2Proof.lean:80" xlink:title="structure · Statlib/CoxChangePoint/Theorem2Proof.lean:80" target="_blank">
<path fill="#e8dcff" stroke="#8b5cf6" d="M185.53,-845.2C185.53,-845.2 68.47,-845.2 68.47,-845.2 62.47,-845.2 56.47,-839.2 56.47,-833.2 56.47,-833.2 56.47,-821.2 56.47,-821.2 56.47,-815.2 62.47,-809.2 68.47,-809.2 68.47,-809.2 185.53,-809.2 185.53,-809.2 191.53,-809.2 197.53,-815.2 197.53,-821.2 197.53,-821.2 197.53,-833.2 197.53,-833.2 197.53,-839.2 191.53,-845.2 185.53,-845.2"/>
<text xml:space="preserve" text-anchor="middle" x="127" y="-824.2" font-family="Helvetica,sans-Serif" font-size="10.00">SecondOrderWellSeparated</text>
</a>
</g>
</g>
<!-- n7 -->
<g id="node7" class="node">
<title>n7</title>
<g id="a_node7"><a xlink:href="vscode://vscode-remote/wsl+Ubuntu/home/gavin/statlib/Statlib/CoxChangePoint/Theorem2Proof.lean:98" xlink:title="structure · Statlib/CoxChangePoint/Theorem2Proof.lean:98" target="_blank">
<path fill="#e8dcff" stroke="#8b5cf6" d="M320.85,-845.2C320.85,-845.2 227.15,-845.2 227.15,-845.2 221.15,-845.2 215.15,-839.2 215.15,-833.2 215.15,-833.2 215.15,-821.2 215.15,-821.2 215.15,-815.2 221.15,-809.2 227.15,-809.2 227.15,-809.2 320.85,-809.2 320.85,-809.2 326.85,-809.2 332.85,-815.2 332.85,-821.2 332.85,-821.2 332.85,-833.2 332.85,-833.2 332.85,-839.2 326.85,-845.2 320.85,-845.2"/>
<text xml:space="preserve" text-anchor="middle" x="274" y="-824.2" font-family="Helvetica,sans-Serif" font-size="10.00">UniformEntropyControl</text>
</a>
</g>
</g>
<!-- n8 -->
<g id="node8" class="node">
<title>n8</title>
<g id="a_node8"><a xlink:href="vscode://vscode-remote/wsl+Ubuntu/home/gavin/statlib/Statlib/CoxChangePoint/Foundation.lean:38" xlink:title="structure · Statlib/CoxChangePoint/Foundation.lean:38" target="_blank">
<path fill="#e8dcff" stroke="#8b5cf6" d="M399,-52C399,-52 369,-52 369,-52 363,-52 357,-46 357,-40 357,-40 357,-28 357,-28 357,-22 363,-16 369,-16 369,-16 399,-16 399,-16 405,-16 411,-22 411,-28 411,-28 411,-40 411,-40 411,-46 405,-52 399,-52"/>
<text xml:space="preserve" text-anchor="middle" x="384" y="-31" font-family="Helvetica,sans-Serif" font-size="10.00">CoxObs</text>
</a>
</g>
</g>
<!-- n9 -->
<g id="node9" class="node">
<title>n9</title>
<g id="a_node9"><a xlink:href="vscode://vscode-remote/wsl+Ubuntu/home/gavin/statlib/Statlib/CoxChangePoint/Foundation.lean:68" xlink:title="noncomputable def · Statlib/CoxChangePoint/Foundation.lean:68" target="_blank">
<path fill="#d6e9ff" stroke="#3b82f6" d="M547,-124C547,-124 517,-124 517,-124 511,-124 505,-118 505,-112 505,-112 505,-100 505,-100 505,-94 511,-88 517,-88 517,-88 547,-88 547,-88 553,-88 559,-94 559,-100 559,-100 559,-112 559,-112 559,-118 553,-124 547,-124"/>
<text xml:space="preserve" text-anchor="middle" x="532" y="-103" font-family="Helvetica,sans-Serif" font-size="10.00">g</text>
</a>
</g>
</g>
<!-- n9&#45;&gt;n0 -->
<g id="edge4" class="edge">
<title>n9&#45;&gt;n0</title>
<path fill="none" stroke="#64748b" d="M555.73,-87.7C568.31,-78.53 583.9,-67.16 597.38,-57.33"/>
<polygon fill="#64748b" stroke="#64748b" points="598.77,-59.34 602.99,-53.24 595.89,-55.38 598.77,-59.34"/>
</g>
<!-- n9&#45;&gt;n8 -->
<g id="edge5" class="edge">
<title>n9&#45;&gt;n8</title>
<path fill="none" stroke="#64748b" d="M504.51,-92C480.31,-80.55 444.96,-63.83 418.8,-51.46"/>
<polygon fill="#64748b" stroke="#64748b" points="420.09,-49.36 412.71,-48.58 417.99,-53.79 420.09,-49.36"/>
</g>
<!-- n10 -->
<g id="node10" class="node">
<title>n10</title>
<g id="a_node10"><a xlink:href="vscode://vscode-remote/wsl+Ubuntu/home/gavin/statlib/Statlib/CoxChangePoint/Foundation.lean:89" xlink:title="noncomputable def · Statlib/CoxChangePoint/Foundation.lean:89" target="_blank">
<path fill="#d6e9ff" stroke="#3b82f6" d="M455,-124C455,-124 425,-124 425,-124 419,-124 413,-118 413,-112 413,-112 413,-100 413,-100 413,-94 419,-88 425,-88 425,-88 455,-88 455,-88 461,-88 467,-94 467,-100 467,-100 467,-112 467,-112 467,-118 461,-124 455,-124"/>
<text xml:space="preserve" text-anchor="middle" x="440" y="-103" font-family="Helvetica,sans-Serif" font-size="10.00">atRisk</text>
</a>
</g>
</g>
<!-- n10&#45;&gt;n8 -->
<g id="edge6" class="edge">
<title>n10&#45;&gt;n8</title>
<path fill="none" stroke="#64748b" d="M426.16,-87.7C419.17,-78.97 410.59,-68.24 403,-58.75"/>
<polygon fill="#64748b" stroke="#64748b" points="404.92,-57.22 398.63,-53.29 401.09,-60.28 404.92,-57.22"/>
</g>
<!-- n11 -->
<g id="node11" class="node">
<title>n11</title>
<g id="a_node11"><a xlink:href="vscode://vscode-remote/wsl+Ubuntu/home/gavin/statlib/Statlib/CoxChangePoint/Foundation.lean:75" xlink:title="noncomputable def · Statlib/CoxChangePoint/Foundation.lean:75" target="_blank">
<path fill="#d6e9ff" stroke="#3b82f6" d="M501,-196C501,-196 471,-196 471,-196 465,-196 459,-190 459,-184 459,-184 459,-172 459,-172 459,-166 465,-160 471,-160 471,-160 501,-160 501,-160 507,-160 513,-166 513,-172 513,-172 513,-184 513,-184 513,-190 507,-196 501,-196"/>
<text xml:space="preserve" text-anchor="middle" x="486" y="-175" font-family="Helvetica,sans-Serif" font-size="10.00">expG</text>
</a>
</g>
</g>
<!-- n11&#45;&gt;n0 -->
<g id="edge7" class="edge">
<title>n11&#45;&gt;n0</title>
<path fill="none" stroke="#64748b" d="M513.45,-162.98C530.4,-153.48 551.9,-139.79 568,-124 570.77,-121.29 595.28,-84.52 612.1,-59.1"/>
<polygon fill="#64748b" stroke="#64748b" points="613.96,-60.72 615.78,-53.53 609.88,-58.02 613.96,-60.72"/>
</g>
<!-- n11&#45;&gt;n8 -->
<g id="edge8" class="edge">
<title>n11&#45;&gt;n8</title>
<path fill="none" stroke="#64748b" d="M488.41,-159.74C490.15,-140.6 490.15,-109.59 476,-88 462.8,-67.85 439.11,-54.47 419.08,-46.19"/>
<polygon fill="#64748b" stroke="#64748b" points="420.14,-43.97 412.73,-43.71 418.36,-48.54 420.14,-43.97"/>
</g>
<!-- n11&#45;&gt;n9 -->
<g id="edge9" class="edge">
<title>n11&#45;&gt;n9</title>
<path fill="none" stroke="#64748b" d="M497.37,-159.7C503.05,-151.05 510.02,-140.45 516.21,-131.03"/>
<polygon fill="#64748b" stroke="#64748b" points="518.13,-132.56 519.93,-125.37 514.04,-129.87 518.13,-132.56"/>
</g>
<!-- n12 -->
<g id="node12" class="node">
<title>n12</title>
<g id="a_node12"><a xlink:href="vscode://vscode-remote/wsl+Ubuntu/home/gavin/statlib/Statlib/CoxChangePoint/Foundation.lean:93" xlink:title="noncomputable def · Statlib/CoxChangePoint/Foundation.lean:93" target="_blank">
<path fill="#d6e9ff" stroke="#3b82f6" d="M483,-268C483,-268 453,-268 453,-268 447,-268 441,-262 441,-256 441,-256 441,-244 441,-244 441,-238 447,-232 453,-232 453,-232 483,-232 483,-232 489,-232 495,-238 495,-244 495,-244 495,-256 495,-256 495,-262 489,-268 483,-268"/>
<text xml:space="preserve" text-anchor="middle" x="468" y="-247" font-family="Helvetica,sans-Serif" font-size="10.00">riskSum</text>
</a>
</g>
</g>
<!-- n12&#45;&gt;n0 -->
<g id="edge11" class="edge">
<title>n12&#45;&gt;n0</title>
<path fill="none" stroke="#64748b" d="M486.34,-231.67C496.96,-221.47 510.46,-208.22 522,-196 551.19,-165.09 561.54,-159.46 585,-124 598.5,-103.59 610.31,-78.29 618.11,-59.9"/>
<polygon fill="#64748b" stroke="#64748b" points="620.2,-61.27 620.63,-53.86 615.67,-59.38 620.2,-61.27"/>
</g>
<!-- n12&#45;&gt;n8 -->
<g id="edge10" class="edge">
<title>n12&#45;&gt;n8</title>
<path fill="none" stroke="#64748b" d="M458.82,-231.87C453.31,-221.51 446.19,-208.03 440,-196 423.64,-164.18 416.01,-157.7 404,-124 396.6,-103.23 391.33,-78.73 388.07,-60.7"/>
<polygon fill="#64748b" stroke="#64748b" points="390.5,-60.38 386.89,-53.9 385.67,-61.22 390.5,-60.38"/>
</g>
<!-- n12&#45;&gt;n10 -->
<g id="edge12" class="edge">
<title>n12&#45;&gt;n10</title>
<path fill="none" stroke="#64748b" d="M461.03,-231.6C457.21,-221.39 452.71,-208.14 450,-196 445.28,-174.87 442.74,-150.4 441.4,-132.48"/>
<polygon fill="#64748b" stroke="#64748b" points="443.86,-132.57 440.94,-125.75 438.97,-132.9 443.86,-132.57"/>
</g>
<!-- n12&#45;&gt;n11 -->
<g id="edge13" class="edge">
<title>n12&#45;&gt;n11</title>
<path fill="none" stroke="#64748b" d="M472.45,-231.7C474.59,-223.39 477.19,-213.28 479.54,-204.14"/>
<polygon fill="#64748b" stroke="#64748b" points="481.85,-204.96 481.22,-197.57 477.11,-203.74 481.85,-204.96"/>
</g>
<!-- n13 -->
<g id="node13" class="node">
<title>n13</title>
<g id="a_node13"><a xlink:href="vscode://vscode-remote/wsl+Ubuntu/home/gavin/statlib/Statlib/CoxChangePoint/Foundation.lean:104" xlink:title="noncomputable def · Statlib/CoxChangePoint/Foundation.lean:104" target="_blank">
<path fill="#d6e9ff" stroke="#3b82f6" d="M507.36,-340C507.36,-340 428.64,-340 428.64,-340 422.64,-340 416.64,-334 416.64,-328 416.64,-328 416.64,-316 416.64,-316 416.64,-310 422.64,-304 428.64,-304 428.64,-304 507.36,-304 507.36,-304 513.36,-304 519.36,-310 519.36,-316 519.36,-316 519.36,-328 519.36,-328 519.36,-334 513.36,-340 507.36,-340"/>
<text xml:space="preserve" text-anchor="middle" x="468" y="-319" font-family="Helvetica,sans-Serif" font-size="10.00">logPartialLikelihood</text>
</a>
</g>
</g>
<!-- n13&#45;&gt;n0 -->
<g id="edge15" class="edge">
<title>n13&#45;&gt;n0</title>
<path fill="none" stroke="#64748b" d="M519.78,-318.07C555.03,-313.07 599.41,-300.25 623,-268 668.64,-205.58 648.93,-106.51 636,-60.29"/>
<polygon fill="#64748b" stroke="#64748b" points="638.4,-59.79 634.1,-53.75 633.7,-61.16 638.4,-59.79"/>
</g>
<!-- n13&#45;&gt;n8 -->
<g id="edge14" class="edge">
<title>n13&#45;&gt;n8</title>
<path fill="none" stroke="#64748b" d="M454.2,-303.69C446.79,-293.72 437.97,-280.68 432,-268 403.59,-207.69 401.64,-189.64 390,-124 386.23,-102.77 384.79,-78.31 384.26,-60.41"/>
<polygon fill="#64748b" stroke="#64748b" points="386.71,-60.65 384.1,-53.71 381.81,-60.76 386.71,-60.65"/>
</g>
<!-- n13&#45;&gt;n9 -->
<g id="edge16" class="edge">
<title>n13&#45;&gt;n9</title>
<path fill="none" stroke="#64748b" d="M481.99,-303.78C489.46,-293.83 498.27,-280.79 504,-268 524.11,-223.07 529.82,-165.09 531.42,-132.39"/>
<polygon fill="#64748b" stroke="#64748b" points="533.85,-132.86 531.69,-125.77 528.95,-132.66 533.85,-132.86"/>
</g>
<!-- n13&#45;&gt;n12 -->
<g id="edge17" class="edge">
<title>n13&#45;&gt;n12</title>
<path fill="none" stroke="#64748b" d="M468,-303.7C468,-295.47 468,-285.48 468,-276.42"/>
<polygon fill="#64748b" stroke="#64748b" points="470.45,-276.62 468,-269.62 465.55,-276.62 470.45,-276.62"/>
</g>
<!-- n14 -->
<g id="node14" class="node">
<title>n14</title>
<g id="a_node14"><a xlink:href="vscode://vscode-remote/wsl+Ubuntu/home/gavin/statlib/Statlib/CoxChangePoint/Foundation.lean:112" xlink:title="noncomputable def · Statlib/CoxChangePoint/Foundation.lean:112" target="_blank">
<path fill="#d6e9ff" stroke="#3b82f6" d="M470,-412C470,-412 440,-412 440,-412 434,-412 428,-406 428,-400 428,-400 428,-388 428,-388 428,-382 434,-376 440,-376 440,-376 470,-376 470,-376 476,-376 482,-382 482,-388 482,-388 482,-400 482,-400 482,-406 476,-412 470,-412"/>
<text xml:space="preserve" text-anchor="middle" x="455" y="-391" font-family="Helvetica,sans-Serif" font-size="10.00">Gn</text>
</a>
</g>
</g>
<!-- n14&#45;&gt;n0 -->
<g id="edge19" class="edge">
<title>n14&#45;&gt;n0</title>
<path fill="none" stroke="#64748b" d="M482.38,-387.35C537.79,-374.14 658,-335.73 658,-251 658,-251 658,-251 658,-177 658,-137.32 660.58,-126.5 651,-88 648.63,-78.46 644.7,-68.46 640.76,-59.75"/>
<polygon fill="#64748b" stroke="#64748b" points="643.02,-58.81 637.82,-53.52 638.59,-60.9 643.02,-58.81"/>
</g>
<!-- n14&#45;&gt;n8 -->
<g id="edge18" class="edge">
<title>n14&#45;&gt;n8</title>
<path fill="none" stroke="#64748b" d="M434.91,-375.89C425.12,-366.36 414.15,-353.68 408,-340 364.97,-244.33 374.05,-114.74 380.45,-60.51"/>
<polygon fill="#64748b" stroke="#64748b" points="382.86,-60.92 381.29,-53.68 378,-60.32 382.86,-60.92"/>
</g>
<!-- n14&#45;&gt;n13 -->
<g id="edge20" class="edge">
<title>n14&#45;&gt;n13</title>
<path fill="none" stroke="#64748b" d="M458.21,-375.7C459.74,-367.47 461.6,-357.48 463.28,-348.42"/>
<polygon fill="#64748b" stroke="#64748b" points="465.68,-348.92 464.55,-341.59 460.86,-348.03 465.68,-348.92"/>
</g>
<!-- n15 -->
<g id="node15" class="node">
<title>n15</title>
<g id="a_node15"><a xlink:href="vscode://vscode-remote/wsl+Ubuntu/home/gavin/statlib/Statlib/CoxChangePoint/Foundation.lean:127" xlink:title="def · Statlib/CoxChangePoint/Foundation.lean:127" target="_blank">
<path fill="#d6e9ff" stroke="#3b82f6" d="M349,-268C349,-268 319,-268 319,-268 313,-268 307,-262 307,-256 307,-256 307,-244 307,-244 307,-238 313,-232 319,-232 319,-232 349,-232 349,-232 355,-232 361,-238 361,-244 361,-244 361,-256 361,-256 361,-262 355,-268 349,-268"/>
<text xml:space="preserve" text-anchor="middle" x="334" y="-247" font-family="Helvetica,sans-Serif" font-size="10.00">Sample</text>
</a>
</g>
</g>
<!-- n15&#45;&gt;n8 -->
<g id="edge21" class="edge">
<title>n15&#45;&gt;n8</title>
<path fill="none" stroke="#64748b" d="M332.93,-231.97C331.61,-201.95 331.39,-138.05 349,-88 352.54,-77.92 358.42,-67.88 364.35,-59.3"/>
<polygon fill="#64748b" stroke="#64748b" points="366.3,-60.79 368.41,-53.68 362.32,-57.92 366.3,-60.79"/>
</g>
<!-- n16 -->
<g id="node16" class="node">
<title>n16</title>
<g id="a_node16"><a xlink:href="vscode://vscode-remote/wsl+Ubuntu/home/gavin/statlib/Statlib/CoxChangePoint/FPC.lean:64" xlink:title="noncomputable def · Statlib/CoxChangePoint/FPC.lean:64" target="_blank">
<path fill="#d6e9ff" stroke="#3b82f6" d="M169.73,-124C169.73,-124 138.27,-124 138.27,-124 132.27,-124 126.27,-118 126.27,-112 126.27,-112 126.27,-100 126.27,-100 126.27,-94 132.27,-88 138.27,-88 138.27,-88 169.73,-88 169.73,-88 175.73,-88 181.73,-94 181.73,-100 181.73,-100 181.73,-112 181.73,-112 181.73,-118 175.73,-124 169.73,-124"/>
<text xml:space="preserve" text-anchor="middle" x="154" y="-103" font-family="Helvetica,sans-Serif" font-size="10.00">fpcScore</text>
</a>
</g>
</g>
<!-- n16&#45;&gt;n1 -->
<g id="edge22" class="edge">
<title>n16&#45;&gt;n1</title>
<path fill="none" stroke="#64748b" d="M170.56,-87.7C179.08,-78.8 189.58,-67.82 198.8,-58.2"/>
<polygon fill="#64748b" stroke="#64748b" points="200.51,-59.95 203.58,-53.2 196.97,-56.56 200.51,-59.95"/>
</g>
<!-- n16&#45;&gt;n2 -->
<g id="edge23" class="edge">
<title>n16&#45;&gt;n2</title>
<path fill="none" stroke="#64748b" d="M137.44,-87.7C128.92,-78.8 118.42,-67.82 109.2,-58.2"/>
<polygon fill="#64748b" stroke="#64748b" points="111.03,-56.56 104.42,-53.2 107.49,-59.95 111.03,-56.56"/>
</g>
<!-- n17 -->
<g id="node17" class="node">
<title>n17</title>
<g id="a_node17"><a xlink:href="vscode://vscode-remote/wsl+Ubuntu/home/gavin/statlib/Statlib/CoxChangePoint/FPC.lean:69" xlink:title="noncomputable def · Statlib/CoxChangePoint/FPC.lean:69" target="_blank">
<path fill="#d6e9ff" stroke="#3b82f6" d="M187.41,-196C187.41,-196 122.59,-196 122.59,-196 116.59,-196 110.59,-190 110.59,-184 110.59,-184 110.59,-172 110.59,-172 110.59,-166 116.59,-160 122.59,-160 122.59,-160 187.41,-160 187.41,-160 193.41,-160 199.41,-166 199.41,-172 199.41,-172 199.41,-184 199.41,-184 199.41,-190 193.41,-196 187.41,-196"/>
<text xml:space="preserve" text-anchor="middle" x="155" y="-175" font-family="Helvetica,sans-Serif" font-size="10.00">truncatedScores</text>
</a>
</g>
</g>
<!-- n17&#45;&gt;n1 -->
<g id="edge24" class="edge">
<title>n17&#45;&gt;n1</title>
<path fill="none" stroke="#64748b" d="M168.6,-159.59C175.95,-149.59 184.77,-136.55 191,-124 201.25,-103.36 209.33,-78.38 214.51,-60.14"/>
<polygon fill="#64748b" stroke="#64748b" points="216.77,-61.14 216.28,-53.74 212.05,-59.83 216.77,-61.14"/>
</g>
<!-- n17&#45;&gt;n2 -->
<g id="edge25" class="edge">
<title>n17&#45;&gt;n2</title>
<path fill="none" stroke="#64748b" d="M140.59,-159.7C132.81,-149.73 123.51,-136.7 117,-124 106.49,-103.49 98.44,-78.49 93.34,-60.22"/>
<polygon fill="#64748b" stroke="#64748b" points="95.79,-59.92 91.6,-53.8 91.06,-61.2 95.79,-59.92"/>
</g>
<!-- n17&#45;&gt;n16 -->
<g id="edge26" class="edge">
<title>n17&#45;&gt;n16</title>
<path fill="none" stroke="#64748b" d="M154.75,-159.7C154.64,-151.47 154.49,-141.48 154.36,-132.42"/>
<polygon fill="#64748b" stroke="#64748b" points="156.82,-132.58 154.27,-125.62 151.92,-132.65 156.82,-132.58"/>
</g>
<!-- n18 -->
<g id="node18" class="node">
<title>n18</title>
<g id="a_node18"><a xlink:href="vscode://vscode-remote/wsl+Ubuntu/home/gavin/statlib/Statlib/CoxChangePoint/FPC.lean:110" xlink:title="noncomputable def · Statlib/CoxChangePoint/FPC.lean:110" target="_blank">
<path fill="#d6e9ff" stroke="#3b82f6" d="M256.69,-268C256.69,-268 171.31,-268 171.31,-268 165.31,-268 159.31,-262 159.31,-256 159.31,-256 159.31,-244 159.31,-244 159.31,-238 165.31,-232 171.31,-232 171.31,-232 256.69,-232 256.69,-232 262.69,-232 268.69,-238 268.69,-244 268.69,-244 268.69,-256 268.69,-256 268.69,-262 262.69,-268 256.69,-268"/>
<text xml:space="preserve" text-anchor="middle" x="214" y="-247" font-family="Helvetica,sans-Serif" font-size="10.00">CoxObs.ofFunctional</text>
</a>
</g>
</g>
<!-- n18&#45;&gt;n1 -->
<g id="edge27" class="edge">
<title>n18&#45;&gt;n1</title>
<path fill="none" stroke="#64748b" d="M217.94,-231.92C220.14,-221.58 222.7,-208.1 224,-196 229.13,-148.27 228.26,-135.96 226,-88 225.58,-79 224.75,-69.17 223.89,-60.44"/>
<polygon fill="#64748b" stroke="#64748b" points="226.35,-60.37 223.19,-53.66 221.47,-60.88 226.35,-60.37"/>
</g>
<!-- n18&#45;&gt;n2 -->
<g id="edge28" class="edge">
<title>n18&#45;&gt;n2</title>
<path fill="none" stroke="#64748b" d="M158.93,-235.64C137.75,-227.67 115.45,-215.21 102,-196 73.65,-155.51 77.2,-94.55 82.18,-60.44"/>
<polygon fill="#64748b" stroke="#64748b" points="84.55,-61.16 83.23,-53.87 79.71,-60.4 84.55,-61.16"/>
</g>
<!-- n18&#45;&gt;n8 -->
<g id="edge29" class="edge">
<title>n18&#45;&gt;n8</title>
<path fill="none" stroke="#64748b" d="M226.34,-231.7C247.85,-201.79 293.92,-138.76 336,-88 344.24,-78.06 353.71,-67.45 362.04,-58.35"/>
<polygon fill="#64748b" stroke="#64748b" points="363.63,-60.24 366.58,-53.44 360.03,-56.92 363.63,-60.24"/>
</g>
<!-- n18&#45;&gt;n17 -->
<g id="edge30" class="edge">
<title>n18&#45;&gt;n17</title>
<path fill="none" stroke="#64748b" d="M199.42,-231.7C191.99,-222.88 182.84,-212.03 174.79,-202.47"/>
<polygon fill="#64748b" stroke="#64748b" points="176.78,-201.04 170.39,-197.26 173.03,-204.19 176.78,-201.04"/>
</g>
<!-- n19 -->
<g id="node19" class="node">
<title>n19</title>
<g id="a_node19"><a xlink:href="vscode://vscode-remote/wsl+Ubuntu/home/gavin/statlib/Statlib/CoxChangePoint/FPC.lean:158" xlink:title="noncomputable def · Statlib/CoxChangePoint/FPC.lean:158" target="_blank">
<path fill="#d6e9ff" stroke="#3b82f6" d="M312.52,-340C312.52,-340 265.48,-340 265.48,-340 259.48,-340 253.48,-334 253.48,-328 253.48,-328 253.48,-316 253.48,-316 253.48,-310 259.48,-304 265.48,-304 265.48,-304 312.52,-304 312.52,-304 318.52,-304 324.52,-310 324.52,-316 324.52,-316 324.52,-328 324.52,-328 324.52,-334 318.52,-340 312.52,-340"/>
<text xml:space="preserve" text-anchor="middle" x="289" y="-319" font-family="Helvetica,sans-Serif" font-size="10.00">buildSample</text>
</a>
</g>
</g>
<!-- n19&#45;&gt;n1 -->
<g id="edge31" class="edge">
<title>n19&#45;&gt;n1</title>
<path fill="none" stroke="#64748b" d="M287.69,-303.81C286.13,-285.78 283.07,-256.71 278,-232 265.13,-169.26 242.2,-97.41 229.71,-60.24"/>
<polygon fill="#64748b" stroke="#64748b" points="232.11,-59.7 227.54,-53.86 227.47,-61.27 232.11,-59.7"/>
</g>
<!-- n19&#45;&gt;n2 -->
<g id="edge32" class="edge">
<title>n19&#45;&gt;n2</title>
<path fill="none" stroke="#64748b" d="M252.99,-307.06C250.29,-306.03 247.6,-305 245,-304 163.84,-272.94 117.98,-275.1 82,-196 61.91,-151.84 71.35,-93.59 79.52,-60.63"/>
<polygon fill="#64748b" stroke="#64748b" points="81.88,-61.28 81.27,-53.89 77.14,-60.05 81.88,-61.28"/>
</g>
<!-- n19&#45;&gt;n15 -->
<g id="edge33" class="edge">
<title>n19&#45;&gt;n15</title>
<path fill="none" stroke="#64748b" d="M300.12,-303.7C305.68,-295.05 312.5,-284.45 318.55,-275.03"/>
<polygon fill="#64748b" stroke="#64748b" points="320.46,-276.59 322.19,-269.38 316.34,-273.94 320.46,-276.59"/>
</g>
<!-- n19&#45;&gt;n18 -->
<g id="edge34" class="edge">
<title>n19&#45;&gt;n18</title>
<path fill="none" stroke="#64748b" d="M270.46,-303.7C260.91,-294.78 249.12,-283.78 238.79,-274.14"/>
<polygon fill="#64748b" stroke="#64748b" points="240.48,-272.36 233.69,-269.38 237.14,-275.95 240.48,-272.36"/>
</g>
<!-- n20 -->
<g id="node20" class="node">
<title>n20</title>
<g id="a_node20"><a xlink:href="vscode://vscode-remote/wsl+Ubuntu/home/gavin/statlib/Statlib/CoxChangePoint/CoxModel.lean:132" xlink:title="def · Statlib/CoxChangePoint/CoxModel.lean:132" target="_blank">
<path fill="#d6e9ff" stroke="#3b82f6" d="M359,-412C359,-412 329,-412 329,-412 323,-412 317,-406 317,-400 317,-400 317,-388 317,-388 317,-382 323,-376 329,-376 329,-376 359,-376 359,-376 365,-376 371,-382 371,-388 371,-388 371,-400 371,-400 371,-406 365,-412 359,-412"/>
<text xml:space="preserve" text-anchor="middle" x="344" y="-391" font-family="Helvetica,sans-Serif" font-size="10.00">sample</text>
</a>
</g>
</g>
<!-- n20&#45;&gt;n3 -->
<g id="edge35" class="edge">
<title>n20&#45;&gt;n3</title>
<path fill="none" stroke="#64748b" d="M316.54,-379.17C295.55,-368.6 266.37,-353.9 243.11,-342.19"/>
<polygon fill="#64748b" stroke="#64748b" points="244.5,-340.15 237.14,-339.19 242.29,-344.52 244.5,-340.15"/>
</g>
<!-- n20&#45;&gt;n15 -->
<g id="edge36" class="edge">
<title>n20&#45;&gt;n15</title>
<path fill="none" stroke="#64748b" d="M342.77,-375.59C341.03,-350.76 337.8,-305.01 335.79,-276.4"/>
<polygon fill="#64748b" stroke="#64748b" points="338.25,-276.43 335.31,-269.62 333.36,-276.78 338.25,-276.43"/>
</g>
<!-- n20&#45;&gt;n19 -->
<g id="edge37" class="edge">
<title>n20&#45;&gt;n19</title>
<path fill="none" stroke="#64748b" d="M330.4,-375.7C323.54,-366.97 315.12,-356.24 307.66,-346.75"/>
<polygon fill="#64748b" stroke="#64748b" points="309.63,-345.29 303.37,-341.29 305.77,-348.31 309.63,-345.29"/>
</g>
<!-- n21 -->
<g id="node21" class="node">
<title>n21</title>
<g id="a_node21"><a xlink:href="vscode://vscode-remote/wsl+Ubuntu/home/gavin/statlib/Statlib/CoxChangePoint/CoxConsistencyEndToEnd.lean:93" xlink:title="structure · Statlib/CoxChangePoint/CoxConsistencyEndToEnd.lean:93" target="_blank">
<path fill="#e8dcff" stroke="#8b5cf6" d="M329.48,-557.2C329.48,-557.2 228.52,-557.2 228.52,-557.2 222.52,-557.2 216.52,-551.2 216.52,-545.2 216.52,-545.2 216.52,-533.2 216.52,-533.2 216.52,-527.2 222.52,-521.2 228.52,-521.2 228.52,-521.2 329.48,-521.2 329.48,-521.2 335.48,-521.2 341.48,-527.2 341.48,-533.2 341.48,-533.2 341.48,-545.2 341.48,-545.2 341.48,-551.2 335.48,-557.2 329.48,-557.2"/>
<text xml:space="preserve" text-anchor="middle" x="279" y="-536.2" font-family="Helvetica,sans-Serif" font-size="10.00">CoxBaselineHypotheses</text>
</a>
</g>
</g>
<!-- n21&#45;&gt;n3 -->
<g id="edge38" class="edge">
<title>n21&#45;&gt;n3</title>
<path fill="none" stroke="#64748b" d="M266.23,-520.85C264.68,-518.35 263.22,-515.76 262,-513.2 235.4,-457.3 218.07,-386.22 210.09,-348.77"/>
<polygon fill="#64748b" stroke="#64748b" points="212.49,-348.27 208.66,-341.92 207.69,-349.27 212.49,-348.27"/>
</g>
<!-- n21&#45;&gt;n4 -->
<g id="edge39" class="edge">
<title>n21&#45;&gt;n4</title>
<path fill="none" stroke="#64748b" d="M243.01,-520.76C238.87,-518.37 234.78,-515.83 231,-513.2 221.31,-506.46 211.5,-498.03 203.11,-490.24"/>
<polygon fill="#64748b" stroke="#64748b" points="204.86,-488.52 198.1,-485.47 201.49,-492.07 204.86,-488.52"/>
</g>
<!-- n21&#45;&gt;n14 -->
<g id="edge40" class="edge">
<title>n21&#45;&gt;n14</title>
<path fill="none" stroke="#64748b" d="M283.91,-520.83C290.93,-499.05 305.82,-461.9 331,-440 356.13,-418.14 392.74,-406.59 419.66,-400.7"/>
<polygon fill="#64748b" stroke="#64748b" points="419.84,-403.16 426.2,-399.35 418.85,-398.36 419.84,-403.16"/>
</g>
<!-- n21&#45;&gt;n20 -->
<g id="edge41" class="edge">
<title>n21&#45;&gt;n20</title>
<path fill="none" stroke="#64748b" d="M272.98,-521.02C266.86,-500.42 260.09,-465.47 274,-440 281.65,-425.98 295.75,-415.68 309.29,-408.5"/>
<polygon fill="#64748b" stroke="#64748b" points="310.17,-410.8 315.36,-405.5 308,-406.41 310.17,-410.8"/>
</g>
<!-- n23 -->
<g id="node22" class="node">
<title>n23</title>
<g id="a_node22"><a xlink:href="vscode://vscode-remote/wsl+Ubuntu/home/gavin/statlib/Statlib/CoxChangePoint/Theorem2And3.lean:65" xlink:title="structure · Statlib/CoxChangePoint/Theorem2And3.lean:65" target="_blank">
<path fill="#e8dcff" stroke="#8b5cf6" d="M573.41,-557.2C573.41,-557.2 478.59,-557.2 478.59,-557.2 472.59,-557.2 466.59,-551.2 466.59,-545.2 466.59,-545.2 466.59,-533.2 466.59,-533.2 466.59,-527.2 472.59,-521.2 478.59,-521.2 478.59,-521.2 573.41,-521.2 573.41,-521.2 579.41,-521.2 585.41,-527.2 585.41,-533.2 585.41,-533.2 585.41,-545.2 585.41,-545.2 585.41,-551.2 579.41,-557.2 573.41,-557.2"/>
<text xml:space="preserve" text-anchor="middle" x="526" y="-536.2" font-family="Helvetica,sans-Serif" font-size="10.00">Theorem2Assumptions</text>
</a>
</g>
</g>
<!-- n5 -->
<g id="node35" class="node">
<title>n5</title>
<g id="a_node35"><a xlink:href="vscode://vscode-remote/wsl+Ubuntu/home/gavin/statlib/Statlib/EmpiricalProcess/StochasticOrder.lean:54" xlink:title="def · Statlib/EmpiricalProcess/StochasticOrder.lean:54" target="_blank">
<path fill="#d6e9ff" stroke="#3b82f6" d="M830.69,-484C830.69,-484 735.31,-484 735.31,-484 729.31,-484 723.31,-478 723.31,-472 723.31,-472 723.31,-460 723.31,-460 723.31,-454 729.31,-448 735.31,-448 735.31,-448 830.69,-448 830.69,-448 836.69,-448 842.69,-454 842.69,-460 842.69,-460 842.69,-472 842.69,-472 842.69,-478 836.69,-484 830.69,-484"/>
<text xml:space="preserve" text-anchor="middle" x="783" y="-463" font-family="Helvetica,sans-Serif" font-size="10.00">ConvergesInProbability</text>
</a>
</g>
</g>
<!-- n23&#45;&gt;n5 -->
<g id="edge42" class="edge">
<title>n23&#45;&gt;n5</title>
<path fill="none" stroke="#64748b" d="M585.61,-523.51C590.13,-522.65 594.63,-521.86 599,-521.2 648.34,-513.74 663.64,-528.94 711,-513.2 726.82,-507.94 742.6,-498.42 755.34,-489.38"/>
<polygon fill="#64748b" stroke="#64748b" points="756.67,-491.44 760.87,-485.33 753.77,-487.49 756.67,-491.44"/>
</g>
<!-- n24 -->
<g id="node23" class="node">
<title>n24</title>
<g id="a_node23"><a xlink:href="vscode://vscode-remote/wsl+Ubuntu/home/gavin/statlib/Statlib/CoxChangePoint/Theorem2And3.lean:103" xlink:title="theorem · Statlib/CoxChangePoint/Theorem2And3.lean:103" target="_blank">
<path fill="#ffe6a3" stroke="#d4a017" d="M545.9,-629.2C545.9,-629.2 506.1,-629.2 506.1,-629.2 500.1,-629.2 494.1,-623.2 494.1,-617.2 494.1,-617.2 494.1,-605.2 494.1,-605.2 494.1,-599.2 500.1,-593.2 506.1,-593.2 506.1,-593.2 545.9,-593.2 545.9,-593.2 551.9,-593.2 557.9,-599.2 557.9,-605.2 557.9,-605.2 557.9,-617.2 557.9,-617.2 557.9,-623.2 551.9,-629.2 545.9,-629.2"/>
<text xml:space="preserve" text-anchor="middle" x="526" y="-608.2" font-family="Helvetica,sans-Serif" font-size="10.00">theorem_2</text>
</a>
</g>
</g>
<!-- n24&#45;&gt;n23 -->
<g id="edge43" class="edge">
<title>n24&#45;&gt;n23</title>
<path fill="none" stroke="#64748b" d="M526,-592.9C526,-584.67 526,-574.68 526,-565.62"/>
<polygon fill="#64748b" stroke="#64748b" points="528.45,-565.82 526,-558.82 523.55,-565.82 528.45,-565.82"/>
</g>
<!-- n22 -->
<g id="node36" class="node">
<title>n22</title>
<g id="a_node36"><a xlink:href="vscode://vscode-remote/wsl+Ubuntu/home/gavin/statlib/Statlib/EmpiricalProcess/StochasticOrder.lean:42" xlink:title="def · Statlib/EmpiricalProcess/StochasticOrder.lean:42" target="_blank">
<path fill="#d6e9ff" stroke="#3b82f6" d="M967.42,-484C967.42,-484 872.58,-484 872.58,-484 866.58,-484 860.58,-478 860.58,-472 860.58,-472 860.58,-460 860.58,-460 860.58,-454 866.58,-448 872.58,-448 872.58,-448 967.42,-448 967.42,-448 973.42,-448 979.42,-454 979.42,-460 979.42,-460 979.42,-472 979.42,-472 979.42,-478 973.42,-484 967.42,-484"/>
<text xml:space="preserve" text-anchor="middle" x="920" y="-463" font-family="Helvetica,sans-Serif" font-size="10.00">IsBoundedInProbability</text>
</a>
</g>
</g>
<!-- n24&#45;&gt;n22 -->
<g id="edge44" class="edge">
<title>n24&#45;&gt;n22</title>
<path fill="none" stroke="#64748b" d="M558.33,-595.81C579.35,-585.96 607.01,-572.03 630,-557.2 651.52,-543.31 651.03,-530.22 675,-521.2 711.85,-507.33 814.64,-525.62 852,-513.2 867.17,-508.16 882.08,-498.68 894.06,-489.62"/>
<polygon fill="#64748b" stroke="#64748b" points="895.57,-491.55 899.56,-485.3 892.54,-487.69 895.57,-491.55"/>
</g>
<!-- n25 -->
<g id="node24" class="node">
<title>n25</title>
<g id="a_node24"><a xlink:href="vscode://vscode-remote/wsl+Ubuntu/home/gavin/statlib/Statlib/CoxChangePoint/CoxModel.lean:168" xlink:title="def · Statlib/CoxChangePoint/CoxModel.lean:168" target="_blank">
<path fill="#d6e9ff" stroke="#3b82f6" d="M455.58,-484C455.58,-484 352.42,-484 352.42,-484 346.42,-484 340.42,-478 340.42,-472 340.42,-472 340.42,-460 340.42,-460 340.42,-454 346.42,-448 352.42,-448 352.42,-448 455.58,-448 455.58,-448 461.58,-448 467.58,-454 467.58,-460 467.58,-460 467.58,-472 467.58,-472 467.58,-478 461.58,-484 455.58,-484"/>
<text xml:space="preserve" text-anchor="middle" x="404" y="-463" font-family="Helvetica,sans-Serif" font-size="10.00">toTheorem1Assumptions</text>
</a>
</g>
</g>
<!-- n25&#45;&gt;n0 -->
<g id="edge46" class="edge">
<title>n25&#45;&gt;n0</title>
<path fill="none" stroke="#64748b" d="M467.9,-459.65C548.86,-448.96 678,-417.16 678,-323 678,-323 678,-323 678,-177 678,-136.55 673.62,-125.71 659,-88 655.21,-78.22 649.75,-68.12 644.46,-59.4"/>
<polygon fill="#64748b" stroke="#64748b" points="646.7,-58.35 640.91,-53.72 642.55,-60.95 646.7,-58.35"/>
</g>
<!-- n25&#45;&gt;n3 -->
<g id="edge45" class="edge">
<title>n25&#45;&gt;n3</title>
<path fill="none" stroke="#64748b" d="M404.21,-447.76C403.49,-427.76 399.17,-395.08 380,-376 335.69,-331.89 303.05,-360.55 244,-340 243.83,-339.94 243.67,-339.88 243.5,-339.83"/>
<polygon fill="#64748b" stroke="#64748b" points="244.74,-337.67 237.33,-337.51 243.02,-342.26 244.74,-337.67"/>
</g>
<!-- n25&#45;&gt;n14 -->
<g id="edge47" class="edge">
<title>n25&#45;&gt;n14</title>
<path fill="none" stroke="#64748b" d="M416.61,-447.7C422.97,-438.97 430.78,-428.24 437.7,-418.75"/>
<polygon fill="#64748b" stroke="#64748b" points="439.51,-420.43 441.65,-413.33 435.54,-417.54 439.51,-420.43"/>
</g>
<!-- n25&#45;&gt;n20 -->
<g id="edge48" class="edge">
<title>n25&#45;&gt;n20</title>
<path fill="none" stroke="#64748b" d="M389.17,-447.7C381.61,-438.88 372.31,-428.03 364.12,-418.47"/>
<polygon fill="#64748b" stroke="#64748b" points="366.06,-416.97 359.65,-413.25 362.34,-420.16 366.06,-416.97"/>
</g>
<!-- n26 -->
<g id="node25" class="node">
<title>n26</title>
<g id="a_node25"><a xlink:href="vscode://vscode-remote/wsl+Ubuntu/home/gavin/statlib/Statlib/CoxChangePoint/CoxModel.lean:213" xlink:title="theorem · Statlib/CoxChangePoint/CoxModel.lean:213" target="_blank">
<path fill="#ffe6a3" stroke="#d4a017" d="M436.68,-557.2C436.68,-557.2 371.32,-557.2 371.32,-557.2 365.32,-557.2 359.32,-551.2 359.32,-545.2 359.32,-545.2 359.32,-533.2 359.32,-533.2 359.32,-527.2 365.32,-521.2 371.32,-521.2 371.32,-521.2 436.68,-521.2 436.68,-521.2 442.68,-521.2 448.68,-527.2 448.68,-533.2 448.68,-533.2 448.68,-545.2 448.68,-545.2 448.68,-551.2 442.68,-557.2 436.68,-557.2"/>
<text xml:space="preserve" text-anchor="middle" x="404" y="-536.2" font-family="Helvetica,sans-Serif" font-size="10.00">cox_consistency</text>
</a>
</g>
</g>
<!-- n26&#45;&gt;n0 -->
<g id="edge50" class="edge">
<title>n26&#45;&gt;n0</title>
<path fill="none" stroke="#64748b" d="M449.04,-523.89C452.07,-522.97 455.08,-522.06 458,-521.2 470.82,-517.41 474.63,-518.28 487,-513.2 586.42,-472.34 698,-502.49 698,-395 698,-395 698,-395 698,-177 698,-135.66 690.38,-124.51 671,-88 665.51,-77.66 657.85,-67.4 650.52,-58.71"/>
<polygon fill="#64748b" stroke="#64748b" points="652.45,-57.2 646.01,-53.53 648.76,-60.42 652.45,-57.2"/>
</g>
<!-- n26&#45;&gt;n3 -->
<g id="edge49" class="edge">
<title>n26&#45;&gt;n3</title>
<path fill="none" stroke="#64748b" d="M358.99,-523.76C355.96,-522.87 352.94,-522.01 350,-521.2 335.03,-517.09 328.48,-522.43 316,-513.2 286.36,-491.28 238.39,-394.45 216.52,-348.01"/>
<polygon fill="#64748b" stroke="#64748b" points="218.83,-347.16 213.64,-341.86 214.39,-349.23 218.83,-347.16"/>
</g>
<!-- n26&#45;&gt;n14 -->
<g id="edge51" class="edge">
<title>n26&#45;&gt;n14</title>
<path fill="none" stroke="#64748b" d="M449.17,-523.86C463.51,-519.09 475.98,-514.63 477,-513.2 496.69,-485.65 482.59,-445.55 469.62,-419.87"/>
<polygon fill="#64748b" stroke="#64748b" points="471.81,-418.78 466.38,-413.74 467.48,-421.07 471.81,-418.78"/>
</g>
<!-- n26&#45;&gt;n20 -->
<g id="edge52" class="edge">
<title>n26&#45;&gt;n20</title>
<path fill="none" stroke="#64748b" d="M358.83,-523.86C344.49,-519.09 332.02,-514.63 331,-513.2 311.61,-486.07 321.87,-446.12 332.07,-420.33"/>
<polygon fill="#64748b" stroke="#64748b" points="334.33,-421.29 334.76,-413.88 329.81,-419.4 334.33,-421.29"/>
</g>
<!-- n26&#45;&gt;n25 -->
<g id="edge53" class="edge">
<title>n26&#45;&gt;n25</title>
<path fill="none" stroke="#64748b" d="M404,-520.96C404,-512.39 404,-501.87 404,-492.39"/>
<polygon fill="#64748b" stroke="#64748b" points="406.45,-492.59 404,-485.59 401.55,-492.59 406.45,-492.59"/>
</g>
<!-- n27 -->
<g id="node26" class="node">
<title>n27</title>
<g id="a_node26"><a xlink:href="vscode://vscode-remote/wsl+Ubuntu/home/gavin/statlib/Statlib/CoxChangePoint/CoxConsistencyEndToEnd.lean:125" xlink:title="theorem · Statlib/CoxChangePoint/CoxConsistencyEndToEnd.lean:125" target="_blank">
<path fill="#ffe6a3" stroke="#d4a017" d="M426.12,-629.2C426.12,-629.2 381.88,-629.2 381.88,-629.2 375.88,-629.2 369.88,-623.2 369.88,-617.2 369.88,-617.2 369.88,-605.2 369.88,-605.2 369.88,-599.2 375.88,-593.2 381.88,-593.2 381.88,-593.2 426.12,-593.2 426.12,-593.2 432.12,-593.2 438.12,-599.2 438.12,-605.2 438.12,-605.2 438.12,-617.2 438.12,-617.2 438.12,-623.2 432.12,-629.2 426.12,-629.2"/>
<text xml:space="preserve" text-anchor="middle" x="404" y="-608.2" font-family="Helvetica,sans-Serif" font-size="10.00">consistency</text>
</a>
</g>
</g>
<!-- n27&#45;&gt;n4 -->
<g id="edge56" class="edge">
<title>n27&#45;&gt;n4</title>
<path fill="none" stroke="#64748b" d="M369.4,-610.44C325.98,-608.84 251.91,-599.52 208,-557.2 190.52,-540.35 183.89,-512.81 181.41,-492.59"/>
<polygon fill="#64748b" stroke="#64748b" points="183.85,-492.38 180.71,-485.66 178.98,-492.87 183.85,-492.38"/>
</g>
<!-- n27&#45;&gt;n21 -->
<g id="edge54" class="edge">
<title>n27&#45;&gt;n21</title>
<path fill="none" stroke="#64748b" d="M372.78,-592.72C355.95,-583.29 335.04,-571.58 317.24,-561.61"/>
<polygon fill="#64748b" stroke="#64748b" points="318.45,-559.48 311.14,-558.2 316.05,-563.76 318.45,-559.48"/>
</g>
<!-- n27&#45;&gt;n26 -->
<g id="edge57" class="edge">
<title>n27&#45;&gt;n26</title>
<path fill="none" stroke="#64748b" d="M404,-592.9C404,-584.67 404,-574.68 404,-565.62"/>
<polygon fill="#64748b" stroke="#64748b" points="406.45,-565.82 404,-558.82 401.55,-565.82 406.45,-565.82"/>
</g>
<!-- n27&#45;&gt;n5 -->
<g id="edge55" class="edge">
<title>n27&#45;&gt;n5</title>
<path fill="none" stroke="#64748b" d="M438.26,-602.48C485.25,-591.59 566.95,-571.44 594,-557.2 616.06,-545.59 614.07,-530.96 637,-521.2 667.44,-508.25 679.8,-524.2 711,-513.2 726.6,-507.7 742.25,-498.24 754.96,-489.31"/>
<polygon fill="#64748b" stroke="#64748b" points="756.24,-491.41 760.47,-485.32 753.37,-487.44 756.24,-491.41"/>
</g>
<!-- n28 -->
<g id="node27" class="node">
<title>n28</title>
<g id="a_node27"><a xlink:href="vscode://vscode-remote/wsl+Ubuntu/home/gavin/statlib/Statlib/CoxChangePoint/CoxConsistencyEndToEnd.lean:138" xlink:title="theorem · Statlib/CoxChangePoint/CoxConsistencyEndToEnd.lean:138" target="_blank">
<path fill="#ffe6a3" stroke="#d4a017" d="M473,-701.2C473,-701.2 443,-701.2 443,-701.2 437,-701.2 431,-695.2 431,-689.2 431,-689.2 431,-677.2 431,-677.2 431,-671.2 437,-665.2 443,-665.2 443,-665.2 473,-665.2 473,-665.2 479,-665.2 485,-671.2 485,-677.2 485,-677.2 485,-689.2 485,-689.2 485,-695.2 479,-701.2 473,-701.2"/>
<text xml:space="preserve" text-anchor="middle" x="458" y="-680.2" font-family="Helvetica,sans-Serif" font-size="10.00">rate</text>
</a>
</g>
</g>
<!-- n28&#45;&gt;n4 -->
<g id="edge59" class="edge">
<title>n28&#45;&gt;n4</title>
<path fill="none" stroke="#64748b" d="M430.72,-679.32C373.05,-671.58 239.48,-644.6 184,-557.2 171.91,-538.15 172.15,-512 174.68,-492.76"/>
<polygon fill="#64748b" stroke="#64748b" points="177.08,-493.25 175.73,-485.96 172.24,-492.5 177.08,-493.25"/>
</g>
<!-- n28&#45;&gt;n21 -->
<g id="edge58" class="edge">
<title>n28&#45;&gt;n21</title>
<path fill="none" stroke="#64748b" d="M430.63,-670.21C410.36,-660.65 382.63,-646.09 361,-629.2 336.42,-609.99 312.76,-583.12 297.23,-563.94"/>
<polygon fill="#64748b" stroke="#64748b" points="299.32,-562.63 293.03,-558.69 295.49,-565.69 299.32,-562.63"/>
</g>
<!-- n28&#45;&gt;n24 -->
<g id="edge61" class="edge">
<title>n28&#45;&gt;n24</title>
<path fill="none" stroke="#64748b" d="M474.81,-664.9C483.46,-656 494.11,-645.02 503.46,-635.4"/>
<polygon fill="#64748b" stroke="#64748b" points="505.21,-637.12 508.33,-630.39 501.69,-633.7 505.21,-637.12"/>
</g>
<!-- n28&#45;&gt;n27 -->
<g id="edge62" class="edge">
<title>n28&#45;&gt;n27</title>
<path fill="none" stroke="#64748b" d="M444.65,-664.9C437.92,-656.17 429.64,-645.44 422.32,-635.95"/>
<polygon fill="#64748b" stroke="#64748b" points="424.33,-634.55 418.12,-630.5 420.46,-637.54 424.33,-634.55"/>
</g>
<!-- n28&#45;&gt;n22 -->
<g id="edge60" class="edge">
<title>n28&#45;&gt;n22</title>
<path fill="none" stroke="#64748b" d="M485.1,-670.59C507.57,-660.59 540.08,-645.27 567,-629.2 614.02,-601.12 623.2,-590.08 667,-557.2 687.76,-541.61 688.71,-530.36 713,-521.2 770.9,-499.36 793.4,-533.08 852,-513.2 867.14,-508.06 882.05,-498.58 894.03,-489.53"/>
<polygon fill="#64748b" stroke="#64748b" points="895.53,-491.47 899.54,-485.22 892.51,-487.61 895.53,-491.47"/>
</g>
<!-- n29 -->
<g id="node28" class="node">
<title>n29</title>
<g id="a_node28"><a xlink:href="vscode://vscode-remote/wsl+Ubuntu/home/gavin/statlib/Statlib/CoxChangePoint/Theorem2Proof.lean:122" xlink:title="structure · Statlib/CoxChangePoint/Theorem2Proof.lean:122" target="_blank">
<path fill="#e8dcff" stroke="#8b5cf6" d="M407.13,-845.2C407.13,-845.2 362.87,-845.2 362.87,-845.2 356.87,-845.2 350.87,-839.2 350.87,-833.2 350.87,-833.2 350.87,-821.2 350.87,-821.2 350.87,-815.2 356.87,-809.2 362.87,-809.2 362.87,-809.2 407.13,-809.2 407.13,-809.2 413.13,-809.2 419.13,-815.2 419.13,-821.2 419.13,-821.2 419.13,-833.2 419.13,-833.2 419.13,-839.2 413.13,-845.2 407.13,-845.2"/>
<text xml:space="preserve" text-anchor="middle" x="385" y="-824.2" font-family="Helvetica,sans-Serif" font-size="10.00">RateChoice</text>
</a>
</g>
</g>
<!-- n30 -->
<g id="node29" class="node">
<title>n30</title>
<g id="a_node29"><a xlink:href="vscode://vscode-remote/wsl+Ubuntu/home/gavin/statlib/Statlib/CoxChangePoint/Theorem2Proof.lean:142" xlink:title="structure · Statlib/CoxChangePoint/Theorem2Proof.lean:142" target="_blank">
<path fill="#e8dcff" stroke="#8b5cf6" d="M585.26,-773.2C585.26,-773.2 488.74,-773.2 488.74,-773.2 482.74,-773.2 476.74,-767.2 476.74,-761.2 476.74,-761.2 476.74,-749.2 476.74,-749.2 476.74,-743.2 482.74,-737.2 488.74,-737.2 488.74,-737.2 585.26,-737.2 585.26,-737.2 591.26,-737.2 597.26,-743.2 597.26,-749.2 597.26,-749.2 597.26,-761.2 597.26,-761.2 597.26,-767.2 591.26,-773.2 585.26,-773.2"/>
<text xml:space="preserve" text-anchor="middle" x="537" y="-752.2" font-family="Helvetica,sans-Serif" font-size="10.00">VW_3_4_1_Conclusion</text>
</a>
</g>
</g>
<!-- n30&#45;&gt;n28 -->
<g id="edge63" class="edge">
<title>n30&#45;&gt;n28</title>
<path fill="none" stroke="#64748b" d="M517.47,-736.9C507.31,-727.89 494.76,-716.77 483.81,-707.07"/>
<polygon fill="#64748b" stroke="#64748b" points="485.57,-705.36 478.71,-702.55 482.32,-709.03 485.57,-705.36"/>
</g>
<!-- n30&#45;&gt;n22 -->
<g id="edge64" class="edge">
<title>n30&#45;&gt;n22</title>
<path fill="none" stroke="#64748b" d="M549.35,-736.94C582.37,-692.33 677.75,-573.07 789,-521.2 814.58,-509.27 825.6,-523.18 852,-513.2 866.73,-507.63 881.4,-498.28 893.32,-489.44"/>
<polygon fill="#64748b" stroke="#64748b" points="894.72,-491.45 898.79,-485.25 891.75,-487.56 894.72,-491.45"/>
</g>
<!-- n31 -->
<g id="node30" class="node">
<title>n31</title>
<g id="a_node30"><a xlink:href="vscode://vscode-remote/wsl+Ubuntu/home/gavin/statlib/Statlib/CoxChangePoint/CoxTheorem23EndToEnd.lean:94" xlink:title="structure · Statlib/CoxChangePoint/CoxTheorem23EndToEnd.lean:94" target="_blank">
<path fill="#e8dcff" stroke="#8b5cf6" d="M371.08,-917.2C371.08,-917.2 262.92,-917.2 262.92,-917.2 256.92,-917.2 250.92,-911.2 250.92,-905.2 250.92,-905.2 250.92,-893.2 250.92,-893.2 250.92,-887.2 256.92,-881.2 262.92,-881.2 262.92,-881.2 371.08,-881.2 371.08,-881.2 377.08,-881.2 383.08,-887.2 383.08,-893.2 383.08,-893.2 383.08,-905.2 383.08,-905.2 383.08,-911.2 377.08,-917.2 371.08,-917.2"/>
<text xml:space="preserve" text-anchor="middle" x="317" y="-896.2" font-family="Helvetica,sans-Serif" font-size="10.00">CoxTheorem2Hypotheses</text>
</a>
</g>
</g>
<!-- n31&#45;&gt;n6 -->
<g id="edge66" class="edge">
<title>n31&#45;&gt;n6</title>
<path fill="none" stroke="#64748b" d="M269.55,-880.72C242.92,-870.91 209.58,-858.63 181.84,-848.41"/>
<polygon fill="#64748b" stroke="#64748b" points="183.01,-846.23 175.6,-846.1 181.32,-850.82 183.01,-846.23"/>
</g>
<!-- n31&#45;&gt;n7 -->
<g id="edge67" class="edge">
<title>n31&#45;&gt;n7</title>
<path fill="none" stroke="#64748b" d="M306.37,-880.9C301.11,-872.34 294.67,-861.86 288.93,-852.5"/>
<polygon fill="#64748b" stroke="#64748b" points="291.05,-851.28 285.3,-846.59 286.88,-853.84 291.05,-851.28"/>
</g>
<!-- n31&#45;&gt;n28 -->
<g id="edge68" class="edge">
<title>n31&#45;&gt;n28</title>
<path fill="none" stroke="#64748b" d="M378.83,-880.77C397.17,-872.74 415.65,-861.29 428,-845.2 436.16,-834.57 448.57,-752.29 454.55,-709.65"/>
<polygon fill="#64748b" stroke="#64748b" points="456.94,-710.21 455.48,-702.94 452.09,-709.53 456.94,-710.21"/>
</g>
<!-- n31&#45;&gt;n29 -->
<g id="edge69" class="edge">
<title>n31&#45;&gt;n29</title>
<path fill="none" stroke="#64748b" d="M333.81,-880.9C342.46,-872 353.11,-861.02 362.46,-851.4"/>
<polygon fill="#64748b" stroke="#64748b" points="364.21,-853.12 367.33,-846.39 360.69,-849.7 364.21,-853.12"/>
</g>
<!-- n31&#45;&gt;n5 -->
<g id="edge65" class="edge">
<title>n31&#45;&gt;n5</title>
<path fill="none" stroke="#64748b" d="M383.51,-889.54C494.21,-875.08 704.6,-847.37 708,-845.2 747.6,-819.93 765,-803.17 765,-756.2 765,-756.2 765,-756.2 765,-610.2 765,-568.64 772.55,-520.83 777.88,-492.31"/>
<polygon fill="#64748b" stroke="#64748b" points="780.25,-492.93 779.16,-485.59 775.44,-492.01 780.25,-492.93"/>
</g>
<!-- n32 -->
<g id="node31" class="node">
<title>n32</title>
<g id="a_node31"><a xlink:href="vscode://vscode-remote/wsl+Ubuntu/home/gavin/statlib/Statlib/CoxChangePoint/Theorem2Proof.lean:169" xlink:title="theorem · Statlib/CoxChangePoint/Theorem2Proof.lean:169" target="_blank">
<path fill="#ffe6a3" stroke="#d4a017" d="M687.38,-845.2C687.38,-845.2 548.62,-845.2 548.62,-845.2 542.62,-845.2 536.62,-839.2 536.62,-833.2 536.62,-833.2 536.62,-821.2 536.62,-821.2 536.62,-815.2 542.62,-809.2 548.62,-809.2 548.62,-809.2 687.38,-809.2 687.38,-809.2 693.38,-809.2 699.38,-815.2 699.38,-821.2 699.38,-821.2 699.38,-833.2 699.38,-833.2 699.38,-839.2 693.38,-845.2 687.38,-845.2"/>
<text xml:space="preserve" text-anchor="middle" x="618" y="-824.2" font-family="Helvetica,sans-Serif" font-size="10.00">Theorem2_hRate_of_VW_3_4_1</text>
</a>
</g>
</g>
<!-- n32&#45;&gt;n28 -->
<g id="edge71" class="edge">
<title>n32&#45;&gt;n28</title>
<path fill="none" stroke="#64748b" d="M620.6,-808.75C622.5,-789.15 622.38,-757.44 606,-737.2 578.61,-703.37 527.91,-691.12 493.57,-686.69"/>
<polygon fill="#64748b" stroke="#64748b" points="493.95,-684.27 486.72,-685.9 493.39,-689.14 493.95,-684.27"/>
</g>
<!-- n32&#45;&gt;n30 -->
<g id="edge70" class="edge">
<title>n32&#45;&gt;n30</title>
<path fill="none" stroke="#64748b" d="M597.98,-808.9C587.56,-799.89 574.69,-788.77 563.46,-779.07"/>
<polygon fill="#64748b" stroke="#64748b" points="565.12,-777.26 558.22,-774.54 561.91,-780.97 565.12,-777.26"/>
</g>
<!-- n33 -->
<g id="node32" class="node">
<title>n33</title>
<g id="a_node32"><a xlink:href="vscode://vscode-remote/wsl+Ubuntu/home/gavin/statlib/Statlib/CoxChangePoint/Theorem2Proof.lean:236" xlink:title="theorem · Statlib/CoxChangePoint/Theorem2Proof.lean:236" target="_blank">
<path fill="#ffe6a3" stroke="#d4a017" d="M687.18,-917.2C687.18,-917.2 472.82,-917.2 472.82,-917.2 466.82,-917.2 460.82,-911.2 460.82,-905.2 460.82,-905.2 460.82,-893.2 460.82,-893.2 460.82,-887.2 466.82,-881.2 472.82,-881.2 472.82,-881.2 687.18,-881.2 687.18,-881.2 693.18,-881.2 699.18,-887.2 699.18,-893.2 699.18,-893.2 699.18,-905.2 699.18,-905.2 699.18,-911.2 693.18,-917.2 687.18,-917.2"/>
<text xml:space="preserve" text-anchor="middle" x="580" y="-896.2" font-family="Helvetica,sans-Serif" font-size="10.00">Theorem2_isBoundedInProbability_of_VW_3_4_1</text>
</a>
</g>
</g>
<!-- n33&#45;&gt;n30 -->
<g id="edge72" class="edge">
<title>n33&#45;&gt;n30</title>
<path fill="none" stroke="#64748b" d="M555.98,-880.88C545.25,-871.64 533.75,-859.28 528,-845.2 519.7,-824.88 523.31,-799.86 528.21,-781.54"/>
<polygon fill="#64748b" stroke="#64748b" points="530.48,-782.48 530.09,-775.08 525.78,-781.11 530.48,-782.48"/>
</g>
<!-- n33&#45;&gt;n32 -->
<g id="edge74" class="edge">
<title>n33&#45;&gt;n32</title>
<path fill="none" stroke="#64748b" d="M589.39,-880.9C593.99,-872.42 599.62,-862.06 604.66,-852.78"/>
<polygon fill="#64748b" stroke="#64748b" points="606.81,-853.96 607.99,-846.63 602.5,-851.62 606.81,-853.96"/>
</g>
<!-- n33&#45;&gt;n22 -->
<g id="edge73" class="edge">
<title>n33&#45;&gt;n22</title>
<path fill="none" stroke="#64748b" d="M699.46,-887.43C728.65,-879.55 757.6,-866.53 779,-845.2 808.01,-816.28 803,-797.17 803,-756.2 803,-756.2 803,-756.2 803,-610.2 803,-569.23 798.71,-550.83 827,-521.2 835.06,-512.76 841.51,-518.31 852,-513.2 865.62,-506.57 879.64,-497.49 891.38,-489.13"/>
<polygon fill="#64748b" stroke="#64748b" points="892.56,-491.31 896.79,-485.21 889.69,-487.34 892.56,-491.31"/>
</g>
<!-- n34 -->
<g id="node33" class="node">
<title>n34</title>
<g id="a_node33"><a xlink:href="vscode://vscode-remote/wsl+Ubuntu/home/gavin/statlib/Statlib/CoxChangePoint/CoxTheorem23EndToEnd.lean:140" xlink:title="theorem · Statlib/CoxChangePoint/CoxTheorem23EndToEnd.lean:140" target="_blank">
<path fill="#ffe6a3" stroke="#d4a017" d="M483,-989.2C483,-989.2 453,-989.2 453,-989.2 447,-989.2 441,-983.2 441,-977.2 441,-977.2 441,-965.2 441,-965.2 441,-959.2 447,-953.2 453,-953.2 453,-953.2 483,-953.2 483,-953.2 489,-953.2 495,-959.2 495,-965.2 495,-965.2 495,-977.2 495,-977.2 495,-983.2 489,-989.2 483,-989.2"/>
<text xml:space="preserve" text-anchor="middle" x="468" y="-968.2" font-family="Helvetica,sans-Serif" font-size="10.00">toRate</text>
</a>
</g>
</g>
<!-- n34&#45;&gt;n30 -->
<g id="edge76" class="edge">
<title>n34&#45;&gt;n30</title>
<path fill="none" stroke="#64748b" d="M459.67,-953C452.02,-934.71 443.09,-905.19 452,-881.2 459.35,-861.41 470.59,-862.28 483,-845.2 498.15,-824.34 513.18,-799.1 523.52,-780.83"/>
<polygon fill="#64748b" stroke="#64748b" points="525.62,-782.09 526.91,-774.79 521.35,-779.69 525.62,-782.09"/>
</g>
<!-- n34&#45;&gt;n31 -->
<g id="edge75" class="edge">
<title>n34&#45;&gt;n31</title>
<path fill="none" stroke="#64748b" d="M440.66,-957.52C418.86,-947.42 387.87,-933.05 362.37,-921.23"/>
<polygon fill="#64748b" stroke="#64748b" points="363.4,-919.01 356.02,-918.29 361.34,-923.46 363.4,-919.01"/>
</g>
<!-- n34&#45;&gt;n33 -->
<g id="edge78" class="edge">
<title>n34&#45;&gt;n33</title>
<path fill="none" stroke="#64748b" d="M495.4,-953.08C510.34,-943.74 528.99,-932.08 544.97,-922.09"/>
<polygon fill="#64748b" stroke="#64748b" points="546.19,-924.22 550.82,-918.44 543.59,-920.07 546.19,-924.22"/>
</g>
<!-- n34&#45;&gt;n22 -->
<g id="edge77" class="edge">
<title>n34&#45;&gt;n22</title>
<path fill="none" stroke="#64748b" d="M495.28,-967.51C540.88,-962.3 634.81,-948.45 708,-917.2 773.41,-889.27 841,-899.32 841,-828.2 841,-828.2 841,-828.2 841,-610.2 841,-563.15 874.1,-517.01 897.45,-490.31"/>
<polygon fill="#64748b" stroke="#64748b" points="899,-492.25 901.85,-485.41 895.35,-488.99 899,-492.25"/>
</g>
<!-- n35 -->
<g id="node34" class="node">
<title>n35</title>
<g id="a_node34"><a xlink:href="vscode://vscode-remote/wsl+Ubuntu/home/gavin/statlib/Statlib/CoxChangePoint/CoxTheorem23EndToEnd.lean:351" xlink:title="theorem · Statlib/CoxChangePoint/CoxTheorem23EndToEnd.lean:351" target="_blank">
<path fill="#ffe6a3" stroke="#d4a017" stroke-width="3" d="M376.66,-1061.2C376.66,-1061.2 257.34,-1061.2 257.34,-1061.2 251.34,-1061.2 245.34,-1055.2 245.34,-1049.2 245.34,-1049.2 245.34,-1037.2 245.34,-1037.2 245.34,-1031.2 251.34,-1025.2 257.34,-1025.2 257.34,-1025.2 376.66,-1025.2 376.66,-1025.2 382.66,-1025.2 388.66,-1031.2 388.66,-1037.2 388.66,-1037.2 388.66,-1049.2 388.66,-1049.2 388.66,-1055.2 382.66,-1061.2 376.66,-1061.2"/>
<text xml:space="preserve" text-anchor="middle" x="317" y="-1040.2" font-family="Helvetica,sans-Serif" font-size="10.00">cox_theorem_2_end_to_end</text>
</a>
</g>
</g>
<!-- n35&#45;&gt;n3 -->
<g id="edge79" class="edge">
<title>n35&#45;&gt;n3</title>
<path fill="none" stroke="#64748b" d="M244.01,-1035.45C175.9,-1027.78 80.61,-1013.14 52,-989.2 19.4,-961.92 17,-942.7 17,-900.2 17,-900.2 17,-900.2 17,-465 17,-390.73 111.57,-350.38 166.57,-333.2"/>
<polygon fill="#64748b" stroke="#64748b" points="166.94,-335.64 172.93,-331.27 165.52,-330.95 166.94,-335.64"/>
</g>
<!-- n35&#45;&gt;n4 -->
<g id="edge80" class="edge">
<title>n35&#45;&gt;n4</title>
<path fill="none" stroke="#64748b" d="M244.16,-1036.36C161.2,-1025.26 37,-993.13 37,-900.2 37,-900.2 37,-900.2 37,-610.2 37,-551.37 98.18,-508.23 140.51,-485.43"/>
<polygon fill="#64748b" stroke="#64748b" points="141.51,-487.67 146.57,-482.25 139.23,-483.33 141.51,-487.67"/>
</g>
<!-- n35&#45;&gt;n6 -->
<g id="edge82" class="edge">
<title>n35&#45;&gt;n6</title>
<path fill="none" stroke="#64748b" d="M262.69,-1023.72C244.01,-1015.38 224.03,-1004.01 209,-989.2 169.39,-950.17 145.31,-887.98 134.25,-853.43"/>
<polygon fill="#64748b" stroke="#64748b" points="136.71,-853.08 132.29,-847.13 132.03,-854.54 136.71,-853.08"/>
</g>
<!-- n35&#45;&gt;n7 -->
<g id="edge83" class="edge">
<title>n35&#45;&gt;n7</title>
<path fill="none" stroke="#64748b" d="M266.07,-1023.93C250.76,-1015.78 235.73,-1004.47 227,-989.2 203.18,-947.53 209.97,-926.08 227,-881.2 231.25,-869.99 239.09,-859.63 247.15,-851.1"/>
<polygon fill="#64748b" stroke="#64748b" points="248.46,-853.26 251.67,-846.57 244.99,-849.8 248.46,-853.26"/>
</g>
<!-- n35&#45;&gt;n28 -->
<g id="edge84" class="edge">
<title>n35&#45;&gt;n28</title>
<path fill="none" stroke="#64748b" d="M331.37,-1023.8C356.83,-990.26 409.85,-916.07 438,-845.2 450.07,-814.82 448.74,-805.61 453,-773.2 455.79,-751.97 457.03,-727.69 457.57,-709.86"/>
<polygon fill="#64748b" stroke="#64748b" points="460.01,-710.24 457.75,-703.18 455.11,-710.11 460.01,-710.24"/>
</g>
<!-- n35&#45;&gt;n29 -->
<g id="edge85" class="edge">
<title>n35&#45;&gt;n29</title>
<path fill="none" stroke="#64748b" d="M296.62,-1023.95C264.44,-992.88 208.75,-928.5 242,-881.2 269.16,-842.55 297.81,-861.89 342,-845.2 342.36,-845.07 342.72,-844.93 343.07,-844.79"/>
<polygon fill="#64748b" stroke="#64748b" points="343.7,-847.18 349.36,-842.39 341.94,-842.6 343.7,-847.18"/>
</g>
<!-- n35&#45;&gt;n30 -->
<g id="edge86" class="edge">
<title>n35&#45;&gt;n30</title>
<path fill="none" stroke="#64748b" d="M361.9,-1023.79C377.99,-1015.3 395.08,-1003.81 407,-989.2 439.07,-949.89 423.62,-927.67 444,-881.2 445.83,-877.03 480.26,-812.83 483,-809.2 491.04,-798.53 501.22,-787.97 510.56,-779.12"/>
<polygon fill="#64748b" stroke="#64748b" points="511.97,-781.15 515.44,-774.59 508.64,-777.56 511.97,-781.15"/>
</g>
<!-- n35&#45;&gt;n31 -->
<g id="edge88" class="edge">
<title>n35&#45;&gt;n31</title>
<path fill="none" stroke="#64748b" d="M317,-1023.93C317,-998.95 317,-954.01 317,-925.72"/>
<polygon fill="#64748b" stroke="#64748b" points="319.45,-926.03 317,-919.03 314.55,-926.03 319.45,-926.03"/>
</g>
<!-- n35&#45;&gt;n34 -->
<g id="edge89" class="edge">
<title>n35&#45;&gt;n34</title>
<path fill="none" stroke="#64748b" d="M356.67,-1023.81C380.54,-1012.74 410.62,-998.8 433.5,-988.19"/>
<polygon fill="#64748b" stroke="#64748b" points="434.27,-990.54 439.59,-985.37 432.21,-986.09 434.27,-990.54"/>
</g>
<!-- n35&#45;&gt;n5 -->
<g id="edge81" class="edge">
<title>n35&#45;&gt;n5</title>
<path fill="none" stroke="#64748b" d="M389.9,-1039.01C541.96,-1030.37 879,-999.96 879,-900.2 879,-900.2 879,-900.2 879,-610.2 879,-560.95 839.33,-515.85 811,-489.91"/>
<polygon fill="#64748b" stroke="#64748b" points="812.77,-488.2 805.91,-485.37 809.5,-491.86 812.77,-488.2"/>
</g>
<!-- n35&#45;&gt;n22 -->
<g id="edge87" class="edge">
<title>n35&#45;&gt;n22</title>
<path fill="none" stroke="#64748b" d="M389.91,-1039.62C508.8,-1034.54 738.6,-1020.87 813,-989.2 869.6,-965.11 919,-961.72 919,-900.2 919,-900.2 919,-900.2 919,-610.2 919,-568.97 919.42,-521.06 919.72,-492.43"/>
<polygon fill="#64748b" stroke="#64748b" points="922.16,-492.73 919.79,-485.71 917.26,-492.68 922.16,-492.73"/>
</g>
</g>
</svg>
