<?xml version="1.0" encoding="UTF-8" standalone="no"?>
<!DOCTYPE svg PUBLIC "-//W3C//DTD SVG 1.1//EN"
 "http://www.w3.org/Graphics/SVG/1.1/DTD/svg11.dtd">
<!-- Generated by graphviz version 15.0.0 (20260523.1842)
 -->
<!-- Title: CoxModel.toCoxTheorem2Hypotheses Pages: 1 -->
<svg width="940pt" height="915pt"
 viewBox="0.00 0.00 940.00 915.00" xmlns="http://www.w3.org/2000/svg" xmlns:xlink="http://www.w3.org/1999/xlink">
<g id="graph0" class="graph" transform="scale(1 1) rotate(0) translate(4 911.2)">
<title>CoxModel.toCoxTheorem2Hypotheses</title>
<polygon fill="white" stroke="none" points="-4,4 -4,-911.2 936,-911.2 936,4 -4,4"/>
<text xml:space="preserve" text-anchor="middle" x="466" y="-890.6" font-family="Helvetica,sans-Serif" font-size="14.00">Proof narrative — CoxModel.toCoxTheorem2Hypotheses &#160;(32 decls)</text>
<g id="clust1" class="cluster">
<title>cluster_0</title>
<path fill="none" stroke="#cbd5e1" stroke-dasharray="5,2" d="M20,-8C20,-8 632,-8 632,-8 638,-8 644,-14 644,-20 644,-20 644,-862.4 644,-862.4 644,-868.4 638,-874.4 632,-874.4 632,-874.4 20,-874.4 20,-874.4 14,-874.4 8,-868.4 8,-862.4 8,-862.4 8,-20 8,-20 8,-14 14,-8 20,-8"/>
<text xml:space="preserve" text-anchor="middle" x="326" y="-860.5" font-family="Helvetica,sans-Serif" font-size="11.00">CoxChangePoint</text>
</g>
<g id="clust2" class="cluster">
<title>cluster_1</title>
<path fill="none" stroke="#cbd5e1" stroke-dasharray="5,2" d="M664,-440C664,-440 912,-440 912,-440 918,-440 924,-446 924,-452 924,-452 924,-501.2 924,-501.2 924,-507.2 918,-513.2 912,-513.2 912,-513.2 664,-513.2 664,-513.2 658,-513.2 652,-507.2 652,-501.2 652,-501.2 652,-452 652,-452 652,-446 658,-440 664,-440"/>
<text xml:space="preserve" text-anchor="middle" x="788" y="-499.3" font-family="Helvetica,sans-Serif" font-size="11.00">EmpiricalProcess</text>
</g>
<!-- n0 -->
<g id="node1" class="node">
<title>n0</title>
<g id="a_node1"><a xlink:href="vscode://vscode-remote/wsl+Ubuntu/home/gavin/statlib/Statlib/CoxChangePoint/Foundation.lean:57" xlink:title="structure · Statlib/CoxChangePoint/Foundation.lean:57" target="_blank">
<path fill="#e8dcff" stroke="#8b5cf6" d="M584.62,-52C584.62,-52 545.38,-52 545.38,-52 539.38,-52 533.38,-46 533.38,-40 533.38,-40 533.38,-28 533.38,-28 533.38,-22 539.38,-16 545.38,-16 545.38,-16 584.62,-16 584.62,-16 590.62,-16 596.62,-22 596.62,-28 596.62,-28 596.62,-40 596.62,-40 596.62,-46 590.62,-52 584.62,-52"/>
<text xml:space="preserve" text-anchor="middle" x="565" y="-31" font-family="Helvetica,sans-Serif" font-size="10.00">CoxParam</text>
</a>
</g>
</g>
<!-- n1 -->
<g id="node2" class="node">
<title>n1</title>
<g id="a_node2"><a xlink:href="vscode://vscode-remote/wsl+Ubuntu/home/gavin/statlib/Statlib/CoxChangePoint/FPC.lean:55" xlink:title="def · Statlib/CoxChangePoint/FPC.lean:55" target="_blank">
<path fill="#d6e9ff" stroke="#3b82f6" d="M227.02,-52C227.02,-52 154.98,-52 154.98,-52 148.98,-52 142.98,-46 142.98,-40 142.98,-40 142.98,-28 142.98,-28 142.98,-22 148.98,-16 154.98,-16 154.98,-16 227.02,-16 227.02,-16 233.02,-16 239.02,-22 239.02,-28 239.02,-28 239.02,-40 239.02,-40 239.02,-46 233.02,-52 227.02,-52"/>
<text xml:space="preserve" text-anchor="middle" x="191" y="-31" font-family="Helvetica,sans-Serif" font-size="10.00">FunctionalSample</text>
</a>
</g>
</g>
<!-- n2 -->
<g id="node3" class="node">
<title>n2</title>
<g id="a_node3"><a xlink:href="vscode://vscode-remote/wsl+Ubuntu/home/gavin/statlib/Statlib/CoxChangePoint/FPC.lean:42" xlink:title="structure · Statlib/CoxChangePoint/FPC.lean:42" target="_blank">
<path fill="#e8dcff" stroke="#8b5cf6" d="M81.62,-52C81.62,-52 32.38,-52 32.38,-52 26.38,-52 20.38,-46 20.38,-40 20.38,-40 20.38,-28 20.38,-28 20.38,-22 26.38,-16 32.38,-16 32.38,-16 81.62,-16 81.62,-16 87.62,-16 93.62,-22 93.62,-28 93.62,-28 93.62,-40 93.62,-40 93.62,-46 87.62,-52 81.62,-52"/>
<text xml:space="preserve" text-anchor="middle" x="57" y="-31" font-family="Helvetica,sans-Serif" font-size="10.00">Eigensystem</text>
</a>
</g>
</g>
<!-- n3 -->
<g id="node4" class="node">
<title>n3</title>
<g id="a_node4"><a xlink:href="vscode://vscode-remote/wsl+Ubuntu/home/gavin/statlib/Statlib/CoxChangePoint/CoxModel.lean:80" xlink:title="structure · Statlib/CoxChangePoint/CoxModel.lean:80" target="_blank">
<path fill="#e8dcff" stroke="#8b5cf6" d="M182.51,-340C182.51,-340 145.49,-340 145.49,-340 139.49,-340 133.49,-334 133.49,-328 133.49,-328 133.49,-316 133.49,-316 133.49,-310 139.49,-304 145.49,-304 145.49,-304 182.51,-304 182.51,-304 188.51,-304 194.51,-310 194.51,-316 194.51,-316 194.51,-328 194.51,-328 194.51,-334 188.51,-340 182.51,-340"/>
<text xml:space="preserve" text-anchor="middle" x="164" y="-319" font-family="Helvetica,sans-Serif" font-size="10.00">CoxModel</text>
</a>
</g>
</g>
<!-- n3&#45;&gt;n0 -->
<g id="edge1" class="edge">
<title>n3&#45;&gt;n0</title>
<path fill="none" stroke="#64748b" d="M194.8,-306.67C197.54,-305.67 200.3,-304.76 203,-304 313.57,-272.76 364.63,-333.54 459,-268 529.93,-218.74 554.26,-110 561.86,-60.47"/>
<polygon fill="#64748b" stroke="#64748b" points="564.26,-60.99 562.84,-53.71 559.41,-60.29 564.26,-60.99"/>
</g>
<!-- n3&#45;&gt;n1 -->
<g id="edge2" class="edge">
<title>n3&#45;&gt;n1</title>
<path fill="none" stroke="#64748b" d="M133.29,-306.64C118.2,-297.81 101.48,-284.91 93,-268 85.83,-253.7 84.16,-245.34 93,-232 115.66,-197.8 153.98,-229.26 178,-196 193.15,-175.02 193.21,-100.62 192.07,-60.73"/>
<polygon fill="#64748b" stroke="#64748b" points="194.52,-60.73 191.84,-53.82 189.62,-60.89 194.52,-60.73"/>
</g>
<!-- n3&#45;&gt;n2 -->
<g id="edge3" class="edge">
<title>n3&#45;&gt;n2</title>
<path fill="none" stroke="#64748b" d="M133.03,-318.26C101.6,-313.64 54.48,-301.24 32,-268 -12.81,-201.73 14.51,-166.07 32,-88 34.15,-78.42 38.22,-68.54 42.47,-59.94"/>
<polygon fill="#64748b" stroke="#64748b" points="44.62,-61.13 45.68,-53.79 40.27,-58.86 44.62,-61.13"/>
</g>
<!-- n4 -->
<g id="node5" class="node">
<title>n4</title>
<g id="a_node5"><a xlink:href="vscode://vscode-remote/wsl+Ubuntu/home/gavin/statlib/Statlib/CoxChangePoint/Auto/smoothed_empirical_process_approximation.lean:18" xlink:title="private structure · Statlib/CoxChangePoint/Auto/smoothed_empirical_process_approximation.lean:18" target="_blank">
<path fill="#e8dcff" stroke="#8b5cf6" d="M232.62,-484C232.62,-484 193.38,-484 193.38,-484 187.38,-484 181.38,-478 181.38,-472 181.38,-472 181.38,-460 181.38,-460 181.38,-454 187.38,-448 193.38,-448 193.38,-448 232.62,-448 232.62,-448 238.62,-448 244.62,-454 244.62,-460 244.62,-460 244.62,-472 244.62,-472 244.62,-478 238.62,-484 232.62,-484"/>
<text xml:space="preserve" text-anchor="middle" x="213" y="-463" font-family="Helvetica,sans-Serif" font-size="10.00">CoxParam</text>
</a>
</g>
</g>
<!-- n6 -->
<g id="node6" class="node">
<title>n6</title>
<g id="a_node6"><a xlink:href="vscode://vscode-remote/wsl+Ubuntu/home/gavin/statlib/Statlib/CoxChangePoint/Theorem2Proof.lean:80" xlink:title="structure · Statlib/CoxChangePoint/Theorem2Proof.lean:80" target="_blank">
<path fill="#e8dcff" stroke="#8b5cf6" d="M330.53,-701.2C330.53,-701.2 213.47,-701.2 213.47,-701.2 207.47,-701.2 201.47,-695.2 201.47,-689.2 201.47,-689.2 201.47,-677.2 201.47,-677.2 201.47,-671.2 207.47,-665.2 213.47,-665.2 213.47,-665.2 330.53,-665.2 330.53,-665.2 336.53,-665.2 342.53,-671.2 342.53,-677.2 342.53,-677.2 342.53,-689.2 342.53,-689.2 342.53,-695.2 336.53,-701.2 330.53,-701.2"/>
<text xml:space="preserve" text-anchor="middle" x="272" y="-680.2" font-family="Helvetica,sans-Serif" font-size="10.00">SecondOrderWellSeparated</text>
</a>
</g>
</g>
<!-- n7 -->
<g id="node7" class="node">
<title>n7</title>
<g id="a_node7"><a xlink:href="vscode://vscode-remote/wsl+Ubuntu/home/gavin/statlib/Statlib/CoxChangePoint/Theorem2Proof.lean:98" xlink:title="structure · Statlib/CoxChangePoint/Theorem2Proof.lean:98" target="_blank">
<path fill="#e8dcff" stroke="#8b5cf6" d="M465.85,-701.2C465.85,-701.2 372.15,-701.2 372.15,-701.2 366.15,-701.2 360.15,-695.2 360.15,-689.2 360.15,-689.2 360.15,-677.2 360.15,-677.2 360.15,-671.2 366.15,-665.2 372.15,-665.2 372.15,-665.2 465.85,-665.2 465.85,-665.2 471.85,-665.2 477.85,-671.2 477.85,-677.2 477.85,-677.2 477.85,-689.2 477.85,-689.2 477.85,-695.2 471.85,-701.2 465.85,-701.2"/>
<text xml:space="preserve" text-anchor="middle" x="419" y="-680.2" font-family="Helvetica,sans-Serif" font-size="10.00">UniformEntropyControl</text>
</a>
</g>
</g>
<!-- n8 -->
<g id="node8" class="node">
<title>n8</title>
<g id="a_node8"><a xlink:href="vscode://vscode-remote/wsl+Ubuntu/home/gavin/statlib/Statlib/CoxChangePoint/Foundation.lean:38" xlink:title="structure · Statlib/CoxChangePoint/Foundation.lean:38" target="_blank">
<path fill="#e8dcff" stroke="#8b5cf6" d="M336,-52C336,-52 306,-52 306,-52 300,-52 294,-46 294,-40 294,-40 294,-28 294,-28 294,-22 300,-16 306,-16 306,-16 336,-16 336,-16 342,-16 348,-22 348,-28 348,-28 348,-40 348,-40 348,-46 342,-52 336,-52"/>
<text xml:space="preserve" text-anchor="middle" x="321" y="-31" font-family="Helvetica,sans-Serif" font-size="10.00">CoxObs</text>
</a>
</g>
</g>
<!-- n9 -->
<g id="node9" class="node">
<title>n9</title>
<g id="a_node9"><a xlink:href="vscode://vscode-remote/wsl+Ubuntu/home/gavin/statlib/Statlib/CoxChangePoint/Foundation.lean:68" xlink:title="noncomputable def · Statlib/CoxChangePoint/Foundation.lean:68" target="_blank">
<path fill="#d6e9ff" stroke="#3b82f6" d="M484,-124C484,-124 454,-124 454,-124 448,-124 442,-118 442,-112 442,-112 442,-100 442,-100 442,-94 448,-88 454,-88 454,-88 484,-88 484,-88 490,-88 496,-94 496,-100 496,-100 496,-112 496,-112 496,-118 490,-124 484,-124"/>
<text xml:space="preserve" text-anchor="middle" x="469" y="-103" font-family="Helvetica,sans-Serif" font-size="10.00">g</text>
</a>
</g>
</g>
<!-- n9&#45;&gt;n0 -->
<g id="edge4" class="edge">
<title>n9&#45;&gt;n0</title>
<path fill="none" stroke="#64748b" d="M492.73,-87.7C505.31,-78.53 520.9,-67.16 534.38,-57.33"/>
<polygon fill="#64748b" stroke="#64748b" points="535.77,-59.34 539.99,-53.24 532.89,-55.38 535.77,-59.34"/>
</g>
<!-- n9&#45;&gt;n8 -->
<g id="edge5" class="edge">
<title>n9&#45;&gt;n8</title>
<path fill="none" stroke="#64748b" d="M441.51,-92C417.31,-80.55 381.96,-63.83 355.8,-51.46"/>
<polygon fill="#64748b" stroke="#64748b" points="357.09,-49.36 349.71,-48.58 354.99,-53.79 357.09,-49.36"/>
</g>
<!-- n10 -->
<g id="node10" class="node">
<title>n10</title>
<g id="a_node10"><a xlink:href="vscode://vscode-remote/wsl+Ubuntu/home/gavin/statlib/Statlib/CoxChangePoint/Foundation.lean:89" xlink:title="noncomputable def · Statlib/CoxChangePoint/Foundation.lean:89" target="_blank">
<path fill="#d6e9ff" stroke="#3b82f6" d="M392,-124C392,-124 362,-124 362,-124 356,-124 350,-118 350,-112 350,-112 350,-100 350,-100 350,-94 356,-88 362,-88 362,-88 392,-88 392,-88 398,-88 404,-94 404,-100 404,-100 404,-112 404,-112 404,-118 398,-124 392,-124"/>
<text xml:space="preserve" text-anchor="middle" x="377" y="-103" font-family="Helvetica,sans-Serif" font-size="10.00">atRisk</text>
</a>
</g>
</g>
<!-- n10&#45;&gt;n8 -->
<g id="edge6" class="edge">
<title>n10&#45;&gt;n8</title>
<path fill="none" stroke="#64748b" d="M363.16,-87.7C356.17,-78.97 347.59,-68.24 340,-58.75"/>
<polygon fill="#64748b" stroke="#64748b" points="341.92,-57.22 335.63,-53.29 338.09,-60.28 341.92,-57.22"/>
</g>
<!-- n11 -->
<g id="node11" class="node">
<title>n11</title>
<g id="a_node11"><a xlink:href="vscode://vscode-remote/wsl+Ubuntu/home/gavin/statlib/Statlib/CoxChangePoint/Foundation.lean:75" xlink:title="noncomputable def · Statlib/CoxChangePoint/Foundation.lean:75" target="_blank">
<path fill="#d6e9ff" stroke="#3b82f6" d="M438,-196C438,-196 408,-196 408,-196 402,-196 396,-190 396,-184 396,-184 396,-172 396,-172 396,-166 402,-160 408,-160 408,-160 438,-160 438,-160 444,-160 450,-166 450,-172 450,-172 450,-184 450,-184 450,-190 444,-196 438,-196"/>
<text xml:space="preserve" text-anchor="middle" x="423" y="-175" font-family="Helvetica,sans-Serif" font-size="10.00">expG</text>
</a>
</g>
</g>
<!-- n11&#45;&gt;n0 -->
<g id="edge7" class="edge">
<title>n11&#45;&gt;n0</title>
<path fill="none" stroke="#64748b" d="M450.45,-162.98C467.4,-153.48 488.9,-139.79 505,-124 507.77,-121.29 532.28,-84.52 549.1,-59.1"/>
<polygon fill="#64748b" stroke="#64748b" points="550.96,-60.72 552.78,-53.53 546.88,-58.02 550.96,-60.72"/>
</g>
<!-- n11&#45;&gt;n8 -->
<g id="edge8" class="edge">
<title>n11&#45;&gt;n8</title>
<path fill="none" stroke="#64748b" d="M425.41,-159.74C427.15,-140.6 427.15,-109.59 413,-88 399.8,-67.85 376.11,-54.47 356.08,-46.19"/>
<polygon fill="#64748b" stroke="#64748b" points="357.14,-43.97 349.73,-43.71 355.36,-48.54 357.14,-43.97"/>
</g>
<!-- n11&#45;&gt;n9 -->
<g id="edge9" class="edge">
<title>n11&#45;&gt;n9</title>
<path fill="none" stroke="#64748b" d="M434.37,-159.7C440.05,-151.05 447.02,-140.45 453.21,-131.03"/>
<polygon fill="#64748b" stroke="#64748b" points="455.13,-132.56 456.93,-125.37 451.04,-129.87 455.13,-132.56"/>
</g>
<!-- n12 -->
<g id="node12" class="node">
<title>n12</title>
<g id="a_node12"><a xlink:href="vscode://vscode-remote/wsl+Ubuntu/home/gavin/statlib/Statlib/CoxChangePoint/Foundation.lean:93" xlink:title="noncomputable def · Statlib/CoxChangePoint/Foundation.lean:93" target="_blank">
<path fill="#d6e9ff" stroke="#3b82f6" d="M438,-268C438,-268 408,-268 408,-268 402,-268 396,-262 396,-256 396,-256 396,-244 396,-244 396,-238 402,-232 408,-232 408,-232 438,-232 438,-232 444,-232 450,-238 450,-244 450,-244 450,-256 450,-256 450,-262 444,-268 438,-268"/>
<text xml:space="preserve" text-anchor="middle" x="423" y="-247" font-family="Helvetica,sans-Serif" font-size="10.00">riskSum</text>
</a>
</g>
</g>
<!-- n12&#45;&gt;n0 -->
<g id="edge11" class="edge">
<title>n12&#45;&gt;n0</title>
<path fill="none" stroke="#64748b" d="M438.73,-231.7C459.45,-208.39 496.27,-165.05 522,-124 535,-103.26 546.86,-78.01 554.82,-59.7"/>
<polygon fill="#64748b" stroke="#64748b" points="556.88,-61.11 557.38,-53.71 552.38,-59.18 556.88,-61.11"/>
</g>
<!-- n12&#45;&gt;n8 -->
<g id="edge10" class="edge">
<title>n12&#45;&gt;n8</title>
<path fill="none" stroke="#64748b" d="M405.16,-231.94C395.45,-222.05 383.68,-209.01 375,-196 355.35,-166.57 352.5,-157.47 341,-124 333.83,-103.15 328.55,-78.66 325.21,-60.65"/>
<polygon fill="#64748b" stroke="#64748b" points="327.64,-60.32 324,-53.86 322.82,-61.18 327.64,-60.32"/>
</g>
<!-- n12&#45;&gt;n10 -->
<g id="edge12" class="edge">
<title>n12&#45;&gt;n10</title>
<path fill="none" stroke="#64748b" d="M407.97,-231.58C400.38,-221.78 391.78,-208.94 387,-196 379.44,-175.57 377.16,-150.85 376.65,-132.65"/>
<polygon fill="#64748b" stroke="#64748b" points="379.1,-132.77 376.54,-125.81 374.2,-132.84 379.1,-132.77"/>
</g>
<!-- n12&#45;&gt;n11 -->
<g id="edge13" class="edge">
<title>n12&#45;&gt;n11</title>
<path fill="none" stroke="#64748b" d="M423,-231.7C423,-223.47 423,-213.48 423,-204.42"/>
<polygon fill="#64748b" stroke="#64748b" points="425.45,-204.62 423,-197.62 420.55,-204.62 425.45,-204.62"/>
</g>
<!-- n13 -->
<g id="node13" class="node">
<title>n13</title>
<g id="a_node13"><a xlink:href="vscode://vscode-remote/wsl+Ubuntu/home/gavin/statlib/Statlib/CoxChangePoint/Foundation.lean:104" xlink:title="noncomputable def · Statlib/CoxChangePoint/Foundation.lean:104" target="_blank">
<path fill="#d6e9ff" stroke="#3b82f6" d="M470.36,-340C470.36,-340 391.64,-340 391.64,-340 385.64,-340 379.64,-334 379.64,-328 379.64,-328 379.64,-316 379.64,-316 379.64,-310 385.64,-304 391.64,-304 391.64,-304 470.36,-304 470.36,-304 476.36,-304 482.36,-310 482.36,-316 482.36,-316 482.36,-328 482.36,-328 482.36,-334 476.36,-340 470.36,-340"/>
<text xml:space="preserve" text-anchor="middle" x="431" y="-319" font-family="Helvetica,sans-Serif" font-size="10.00">logPartialLikelihood</text>
</a>
</g>
</g>
<!-- n13&#45;&gt;n0 -->
<g id="edge15" class="edge">
<title>n13&#45;&gt;n0</title>
<path fill="none" stroke="#64748b" d="M482.68,-313.59C510.47,-306.7 542.54,-293.46 560,-268 603.63,-204.39 585.05,-106.31 572.72,-60.37"/>
<polygon fill="#64748b" stroke="#64748b" points="575.15,-59.97 570.91,-53.88 570.43,-61.28 575.15,-59.97"/>
</g>
<!-- n13&#45;&gt;n8 -->
<g id="edge14" class="edge">
<title>n13&#45;&gt;n8</title>
<path fill="none" stroke="#64748b" d="M414.86,-303.64C406.02,-293.65 395.24,-280.62 387,-268 349.1,-209.94 340.4,-192.03 327,-124 322.83,-102.85 321.42,-78.38 321,-60.46"/>
<polygon fill="#64748b" stroke="#64748b" points="323.46,-60.7 320.9,-53.74 318.56,-60.78 323.46,-60.7"/>
</g>
<!-- n13&#45;&gt;n9 -->
<g id="edge16" class="edge">
<title>n13&#45;&gt;n9</title>
<path fill="none" stroke="#64748b" d="M442.58,-303.64C448.61,-293.66 455.45,-280.62 459,-268 472.02,-221.67 472.07,-164.99 470.69,-132.74"/>
<polygon fill="#64748b" stroke="#64748b" points="473.14,-132.7 470.35,-125.83 468.25,-132.94 473.14,-132.7"/>
</g>
<!-- n13&#45;&gt;n12 -->
<g id="edge17" class="edge">
<title>n13&#45;&gt;n12</title>
<path fill="none" stroke="#64748b" d="M429.02,-303.7C428.08,-295.47 426.94,-285.48 425.91,-276.42"/>
<polygon fill="#64748b" stroke="#64748b" points="428.36,-276.28 425.13,-269.61 423.49,-276.84 428.36,-276.28"/>
</g>
<!-- n14 -->
<g id="node14" class="node">
<title>n14</title>
<g id="a_node14"><a xlink:href="vscode://vscode-remote/wsl+Ubuntu/home/gavin/statlib/Statlib/CoxChangePoint/Foundation.lean:112" xlink:title="noncomputable def · Statlib/CoxChangePoint/Foundation.lean:112" target="_blank">
<path fill="#d6e9ff" stroke="#3b82f6" d="M446,-412C446,-412 416,-412 416,-412 410,-412 404,-406 404,-400 404,-400 404,-388 404,-388 404,-382 410,-376 416,-376 416,-376 446,-376 446,-376 452,-376 458,-382 458,-388 458,-388 458,-400 458,-400 458,-406 452,-412 446,-412"/>
<text xml:space="preserve" text-anchor="middle" x="431" y="-391" font-family="Helvetica,sans-Serif" font-size="10.00">Gn</text>
</a>
</g>
</g>
<!-- n14&#45;&gt;n0 -->
<g id="edge19" class="edge">
<title>n14&#45;&gt;n0</title>
<path fill="none" stroke="#64748b" d="M458.45,-383.68C505.14,-365.89 595,-322.37 595,-251 595,-251 595,-251 595,-177 595,-137.28 596.5,-126.56 587,-88 584.66,-78.52 580.89,-68.53 577.13,-59.81"/>
<polygon fill="#64748b" stroke="#64748b" points="579.44,-58.97 574.33,-53.59 574.97,-60.98 579.44,-58.97"/>
</g>
<!-- n14&#45;&gt;n8 -->
<g id="edge18" class="edge">
<title>n14&#45;&gt;n8</title>
<path fill="none" stroke="#64748b" d="M405.08,-375.52C393.13,-366.25 379.7,-353.9 371,-340 314.54,-249.76 315.56,-116.22 318.88,-60.68"/>
<polygon fill="#64748b" stroke="#64748b" points="321.3,-61.11 319.32,-53.96 316.42,-60.79 321.3,-61.11"/>
</g>
<!-- n14&#45;&gt;n13 -->
<g id="edge20" class="edge">
<title>n14&#45;&gt;n13</title>
<path fill="none" stroke="#64748b" d="M431,-375.7C431,-367.47 431,-357.48 431,-348.42"/>
<polygon fill="#64748b" stroke="#64748b" points="433.45,-348.62 431,-341.62 428.55,-348.62 433.45,-348.62"/>
</g>
<!-- n15 -->
<g id="node15" class="node">
<title>n15</title>
<g id="a_node15"><a xlink:href="vscode://vscode-remote/wsl+Ubuntu/home/gavin/statlib/Statlib/CoxChangePoint/Foundation.lean:127" xlink:title="def · Statlib/CoxChangePoint/Foundation.lean:127" target="_blank">
<path fill="#d6e9ff" stroke="#3b82f6" d="M292,-268C292,-268 262,-268 262,-268 256,-268 250,-262 250,-256 250,-256 250,-244 250,-244 250,-238 256,-232 262,-232 262,-232 292,-232 292,-232 298,-232 304,-238 304,-244 304,-244 304,-256 304,-256 304,-262 298,-268 292,-268"/>
<text xml:space="preserve" text-anchor="middle" x="277" y="-247" font-family="Helvetica,sans-Serif" font-size="10.00">Sample</text>
</a>
</g>
</g>
<!-- n15&#45;&gt;n8 -->
<g id="edge21" class="edge">
<title>n15&#45;&gt;n8</title>
<path fill="none" stroke="#64748b" d="M275.07,-231.53C272.36,-201.37 269.46,-137.96 286,-88 289.36,-77.86 295.19,-67.8 301.13,-59.22"/>
<polygon fill="#64748b" stroke="#64748b" points="303.08,-60.71 305.22,-53.61 299.12,-57.83 303.08,-60.71"/>
</g>
<!-- n16 -->
<g id="node16" class="node">
<title>n16</title>
<g id="a_node16"><a xlink:href="vscode://vscode-remote/wsl+Ubuntu/home/gavin/statlib/Statlib/CoxChangePoint/FPC.lean:64" xlink:title="noncomputable def · Statlib/CoxChangePoint/FPC.lean:64" target="_blank">
<path fill="#d6e9ff" stroke="#3b82f6" d="M139.73,-124C139.73,-124 108.27,-124 108.27,-124 102.27,-124 96.27,-118 96.27,-112 96.27,-112 96.27,-100 96.27,-100 96.27,-94 102.27,-88 108.27,-88 108.27,-88 139.73,-88 139.73,-88 145.73,-88 151.73,-94 151.73,-100 151.73,-100 151.73,-112 151.73,-112 151.73,-118 145.73,-124 139.73,-124"/>
<text xml:space="preserve" text-anchor="middle" x="124" y="-103" font-family="Helvetica,sans-Serif" font-size="10.00">fpcScore</text>
</a>
</g>
</g>
<!-- n16&#45;&gt;n1 -->
<g id="edge22" class="edge">
<title>n16&#45;&gt;n1</title>
<path fill="none" stroke="#64748b" d="M140.56,-87.7C149.08,-78.8 159.58,-67.82 168.8,-58.2"/>
<polygon fill="#64748b" stroke="#64748b" points="170.51,-59.95 173.58,-53.2 166.97,-56.56 170.51,-59.95"/>
</g>
<!-- n16&#45;&gt;n2 -->
<g id="edge23" class="edge">
<title>n16&#45;&gt;n2</title>
<path fill="none" stroke="#64748b" d="M107.44,-87.7C98.92,-78.8 88.42,-67.82 79.2,-58.2"/>
<polygon fill="#64748b" stroke="#64748b" points="81.03,-56.56 74.42,-53.2 77.49,-59.95 81.03,-56.56"/>
</g>
<!-- n17 -->
<g id="node17" class="node">
<title>n17</title>
<g id="a_node17"><a xlink:href="vscode://vscode-remote/wsl+Ubuntu/home/gavin/statlib/Statlib/CoxChangePoint/FPC.lean:69" xlink:title="noncomputable def · Statlib/CoxChangePoint/FPC.lean:69" target="_blank">
<path fill="#d6e9ff" stroke="#3b82f6" d="M157.41,-196C157.41,-196 92.59,-196 92.59,-196 86.59,-196 80.59,-190 80.59,-184 80.59,-184 80.59,-172 80.59,-172 80.59,-166 86.59,-160 92.59,-160 92.59,-160 157.41,-160 157.41,-160 163.41,-160 169.41,-166 169.41,-172 169.41,-172 169.41,-184 169.41,-184 169.41,-190 163.41,-196 157.41,-196"/>
<text xml:space="preserve" text-anchor="middle" x="125" y="-175" font-family="Helvetica,sans-Serif" font-size="10.00">truncatedScores</text>
</a>
</g>
</g>
<!-- n17&#45;&gt;n1 -->
<g id="edge24" class="edge">
<title>n17&#45;&gt;n1</title>
<path fill="none" stroke="#64748b" d="M138.6,-159.59C145.95,-149.59 154.77,-136.55 161,-124 171.25,-103.36 179.33,-78.38 184.51,-60.14"/>
<polygon fill="#64748b" stroke="#64748b" points="186.77,-61.14 186.28,-53.74 182.05,-59.83 186.77,-61.14"/>
</g>
<!-- n17&#45;&gt;n2 -->
<g id="edge25" class="edge">
<title>n17&#45;&gt;n2</title>
<path fill="none" stroke="#64748b" d="M110.59,-159.7C102.81,-149.73 93.51,-136.7 87,-124 76.49,-103.49 68.44,-78.49 63.34,-60.22"/>
<polygon fill="#64748b" stroke="#64748b" points="65.79,-59.92 61.6,-53.8 61.06,-61.2 65.79,-59.92"/>
</g>
<!-- n17&#45;&gt;n16 -->
<g id="edge26" class="edge">
<title>n17&#45;&gt;n16</title>
<path fill="none" stroke="#64748b" d="M124.75,-159.7C124.64,-151.47 124.49,-141.48 124.36,-132.42"/>
<polygon fill="#64748b" stroke="#64748b" points="126.82,-132.58 124.27,-125.62 121.92,-132.65 126.82,-132.58"/>
</g>
<!-- n18 -->
<g id="node18" class="node">
<title>n18</title>
<g id="a_node18"><a xlink:href="vscode://vscode-remote/wsl+Ubuntu/home/gavin/statlib/Statlib/CoxChangePoint/FPC.lean:110" xlink:title="noncomputable def · Statlib/CoxChangePoint/FPC.lean:110" target="_blank">
<path fill="#d6e9ff" stroke="#3b82f6" d="M199.69,-268C199.69,-268 114.31,-268 114.31,-268 108.31,-268 102.31,-262 102.31,-256 102.31,-256 102.31,-244 102.31,-244 102.31,-238 108.31,-232 114.31,-232 114.31,-232 199.69,-232 199.69,-232 205.69,-232 211.69,-238 211.69,-244 211.69,-244 211.69,-256 211.69,-256 211.69,-262 205.69,-268 199.69,-268"/>
<text xml:space="preserve" text-anchor="middle" x="157" y="-247" font-family="Helvetica,sans-Serif" font-size="10.00">CoxObs.ofFunctional</text>
</a>
</g>
</g>
<!-- n18&#45;&gt;n1 -->
<g id="edge27" class="edge">
<title>n18&#45;&gt;n1</title>
<path fill="none" stroke="#64748b" d="M172.89,-231.8C180.82,-222.06 189.64,-209.21 194,-196 209.11,-150.18 202.49,-92.97 196.56,-60.55"/>
<polygon fill="#64748b" stroke="#64748b" points="199.02,-60.38 195.29,-53.97 194.21,-61.3 199.02,-60.38"/>
</g>
<!-- n18&#45;&gt;n2 -->
<g id="edge28" class="edge">
<title>n18&#45;&gt;n2</title>
<path fill="none" stroke="#64748b" d="M113.18,-231.65C97.62,-223.25 81.59,-211.54 72,-196 46.14,-154.12 48.67,-94.08 52.83,-60.41"/>
<polygon fill="#64748b" stroke="#64748b" points="55.25,-60.81 53.76,-53.54 50.39,-60.15 55.25,-60.81"/>
</g>
<!-- n18&#45;&gt;n8 -->
<g id="edge29" class="edge">
<title>n18&#45;&gt;n8</title>
<path fill="none" stroke="#64748b" d="M172.94,-231.82C182.08,-221.68 193.58,-208.43 203,-196 237.68,-150.21 239.08,-133.61 274,-88 281.7,-77.94 290.81,-67.4 298.96,-58.39"/>
<polygon fill="#64748b" stroke="#64748b" points="300.74,-60.06 303.66,-53.24 297.13,-56.76 300.74,-60.06"/>
</g>
<!-- n18&#45;&gt;n17 -->
<g id="edge30" class="edge">
<title>n18&#45;&gt;n17</title>
<path fill="none" stroke="#64748b" d="M149.09,-231.7C145.21,-223.22 140.48,-212.86 136.24,-203.58"/>
<polygon fill="#64748b" stroke="#64748b" points="138.59,-202.83 133.45,-197.48 134.13,-204.87 138.59,-202.83"/>
</g>
<!-- n19 -->
<g id="node19" class="node">
<title>n19</title>
<g id="a_node19"><a xlink:href="vscode://vscode-remote/wsl+Ubuntu/home/gavin/statlib/Statlib/CoxChangePoint/FPC.lean:158" xlink:title="noncomputable def · Statlib/CoxChangePoint/FPC.lean:158" target="_blank">
<path fill="#d6e9ff" stroke="#3b82f6" d="M271.52,-340C271.52,-340 224.48,-340 224.48,-340 218.48,-340 212.48,-334 212.48,-328 212.48,-328 212.48,-316 212.48,-316 212.48,-310 218.48,-304 224.48,-304 224.48,-304 271.52,-304 271.52,-304 277.52,-304 283.52,-310 283.52,-316 283.52,-316 283.52,-328 283.52,-328 283.52,-334 277.52,-340 271.52,-340"/>
<text xml:space="preserve" text-anchor="middle" x="248" y="-319" font-family="Helvetica,sans-Serif" font-size="10.00">buildSample</text>
</a>
</g>
</g>
<!-- n19&#45;&gt;n1 -->
<g id="edge31" class="edge">
<title>n19&#45;&gt;n1</title>
<path fill="none" stroke="#64748b" d="M245.66,-303.61C240.27,-264.69 225.97,-167.71 207,-88 204.81,-78.79 201.93,-68.82 199.23,-60.04"/>
<polygon fill="#64748b" stroke="#64748b" points="201.6,-59.43 197.16,-53.49 196.93,-60.9 201.6,-59.43"/>
</g>
<!-- n19&#45;&gt;n2 -->
<g id="edge32" class="edge">
<title>n19&#45;&gt;n2</title>
<path fill="none" stroke="#64748b" d="M212.04,-306.92C209.33,-305.92 206.62,-304.93 204,-304 155.13,-286.65 133.04,-300.96 93,-268 29.16,-215.46 37.55,-170.25 46,-88 46.94,-78.89 48.75,-69.03 50.65,-60.31"/>
<polygon fill="#64748b" stroke="#64748b" points="53.03,-60.89 52.2,-53.52 48.25,-59.8 53.03,-60.89"/>
</g>
<!-- n19&#45;&gt;n15 -->
<g id="edge33" class="edge">
<title>n19&#45;&gt;n15</title>
<path fill="none" stroke="#64748b" d="M255.17,-303.7C258.65,-295.3 262.89,-285.07 266.7,-275.86"/>
<polygon fill="#64748b" stroke="#64748b" points="268.92,-276.91 269.33,-269.5 264.39,-275.03 268.92,-276.91"/>
</g>
<!-- n19&#45;&gt;n18 -->
<g id="edge34" class="edge">
<title>n19&#45;&gt;n18</title>
<path fill="none" stroke="#64748b" d="M225.51,-303.7C213.58,-294.53 198.8,-283.16 186.02,-273.33"/>
<polygon fill="#64748b" stroke="#64748b" points="187.79,-271.6 180.75,-269.27 184.81,-275.48 187.79,-271.6"/>
</g>
<!-- n20 -->
<g id="node20" class="node">
<title>n20</title>
<g id="a_node20"><a xlink:href="vscode://vscode-remote/wsl+Ubuntu/home/gavin/statlib/Statlib/CoxChangePoint/CoxModel.lean:132" xlink:title="def · Statlib/CoxChangePoint/CoxModel.lean:132" target="_blank">
<path fill="#d6e9ff" stroke="#3b82f6" d="M354,-412C354,-412 324,-412 324,-412 318,-412 312,-406 312,-400 312,-400 312,-388 312,-388 312,-382 318,-376 324,-376 324,-376 354,-376 354,-376 360,-376 366,-382 366,-388 366,-388 366,-400 366,-400 366,-406 360,-412 354,-412"/>
<text xml:space="preserve" text-anchor="middle" x="339" y="-391" font-family="Helvetica,sans-Serif" font-size="10.00">sample</text>
</a>
</g>
</g>
<!-- n20&#45;&gt;n3 -->
<g id="edge35" class="edge">
<title>n20&#45;&gt;n3</title>
<path fill="none" stroke="#64748b" d="M311.7,-381.54C307.14,-379.67 302.44,-377.76 298,-376 256.03,-359.35 244.82,-357.03 203,-340 202.74,-339.9 202.49,-339.79 202.23,-339.68"/>
<polygon fill="#64748b" stroke="#64748b" points="203.4,-337.52 195.99,-337.09 201.51,-342.04 203.4,-337.52"/>
</g>
<!-- n20&#45;&gt;n15 -->
<g id="edge36" class="edge">
<title>n20&#45;&gt;n15</title>
<path fill="none" stroke="#64748b" d="M331.4,-375.59C320.46,-350.54 300.24,-304.22 287.77,-275.66"/>
<polygon fill="#64748b" stroke="#64748b" points="290.12,-274.93 285.08,-269.5 285.63,-276.89 290.12,-274.93"/>
</g>
<!-- n20&#45;&gt;n19 -->
<g id="edge37" class="edge">
<title>n20&#45;&gt;n19</title>
<path fill="none" stroke="#64748b" d="M316.51,-375.7C304.58,-366.53 289.8,-355.16 277.02,-345.33"/>
<polygon fill="#64748b" stroke="#64748b" points="278.79,-343.6 271.75,-341.27 275.81,-347.48 278.79,-343.6"/>
</g>
<!-- n21 -->
<g id="node21" class="node">
<title>n21</title>
<g id="a_node21"><a xlink:href="vscode://vscode-remote/wsl+Ubuntu/home/gavin/statlib/Statlib/CoxChangePoint/CoxConsistencyEndToEnd.lean:93" xlink:title="structure · Statlib/CoxChangePoint/CoxConsistencyEndToEnd.lean:93" target="_blank">
<path fill="#e8dcff" stroke="#8b5cf6" d="M354.48,-557.2C354.48,-557.2 253.52,-557.2 253.52,-557.2 247.52,-557.2 241.52,-551.2 241.52,-545.2 241.52,-545.2 241.52,-533.2 241.52,-533.2 241.52,-527.2 247.52,-521.2 253.52,-521.2 253.52,-521.2 354.48,-521.2 354.48,-521.2 360.48,-521.2 366.48,-527.2 366.48,-533.2 366.48,-533.2 366.48,-545.2 366.48,-545.2 366.48,-551.2 360.48,-557.2 354.48,-557.2"/>
<text xml:space="preserve" text-anchor="middle" x="304" y="-536.2" font-family="Helvetica,sans-Serif" font-size="10.00">CoxBaselineHypotheses</text>
</a>
</g>
</g>
<!-- n21&#45;&gt;n3 -->
<g id="edge38" class="edge">
<title>n21&#45;&gt;n3</title>
<path fill="none" stroke="#64748b" d="M293.3,-520.84C291.81,-518.3 290.34,-515.7 289,-513.2 271.93,-481.44 272.87,-470.73 254,-440 233,-405.82 204.03,-369.69 184.69,-346.78"/>
<polygon fill="#64748b" stroke="#64748b" points="186.64,-345.29 180.24,-341.55 182.91,-348.47 186.64,-345.29"/>
</g>
<!-- n21&#45;&gt;n4 -->
<g id="edge39" class="edge">
<title>n21&#45;&gt;n4</title>
<path fill="none" stroke="#64748b" d="M270.4,-520.92C266.45,-518.49 262.56,-515.89 259,-513.2 250.08,-506.46 241.19,-498.03 233.64,-490.24"/>
<polygon fill="#64748b" stroke="#64748b" points="235.78,-488.93 229.19,-485.53 232.22,-492.3 235.78,-488.93"/>
</g>
<!-- n21&#45;&gt;n14 -->
<g id="edge40" class="edge">
<title>n21&#45;&gt;n14</title>
<path fill="none" stroke="#64748b" d="M309.45,-520.78C316.78,-499.62 331.55,-463.79 354,-440 365.85,-427.44 382,-417.28 396.44,-409.81"/>
<polygon fill="#64748b" stroke="#64748b" points="397.27,-412.14 402.45,-406.83 395.1,-407.75 397.27,-412.14"/>
</g>
<!-- n21&#45;&gt;n20 -->
<g id="edge41" class="edge">
<title>n21&#45;&gt;n20</title>
<path fill="none" stroke="#64748b" d="M299.02,-520.87C294.15,-500.72 288.81,-466.81 299,-440 302.01,-432.09 307.12,-424.67 312.7,-418.24"/>
<polygon fill="#64748b" stroke="#64748b" points="314.36,-420.05 317.34,-413.26 310.78,-416.71 314.36,-420.05"/>
</g>
<!-- n23 -->
<g id="node22" class="node">
<title>n23</title>
<g id="a_node22"><a xlink:href="vscode://vscode-remote/wsl+Ubuntu/home/gavin/statlib/Statlib/CoxChangePoint/Theorem2And3.lean:65" xlink:title="structure · Statlib/CoxChangePoint/Theorem2And3.lean:65" target="_blank">
<path fill="#e8dcff" stroke="#8b5cf6" d="M603.41,-557.2C603.41,-557.2 508.59,-557.2 508.59,-557.2 502.59,-557.2 496.59,-551.2 496.59,-545.2 496.59,-545.2 496.59,-533.2 496.59,-533.2 496.59,-527.2 502.59,-521.2 508.59,-521.2 508.59,-521.2 603.41,-521.2 603.41,-521.2 609.41,-521.2 615.41,-527.2 615.41,-533.2 615.41,-533.2 615.41,-545.2 615.41,-545.2 615.41,-551.2 609.41,-557.2 603.41,-557.2"/>
<text xml:space="preserve" text-anchor="middle" x="556" y="-536.2" font-family="Helvetica,sans-Serif" font-size="10.00">Theorem2Assumptions</text>
</a>
</g>
</g>
<!-- n5 -->
<g id="node31" class="node">
<title>n5</title>
<g id="a_node31"><a xlink:href="vscode://vscode-remote/wsl+Ubuntu/home/gavin/statlib/Statlib/EmpiricalProcess/StochasticOrder.lean:54" xlink:title="def · Statlib/EmpiricalProcess/StochasticOrder.lean:54" target="_blank">
<path fill="#d6e9ff" stroke="#3b82f6" d="M903.69,-484C903.69,-484 808.31,-484 808.31,-484 802.31,-484 796.31,-478 796.31,-472 796.31,-472 796.31,-460 796.31,-460 796.31,-454 802.31,-448 808.31,-448 808.31,-448 903.69,-448 903.69,-448 909.69,-448 915.69,-454 915.69,-460 915.69,-460 915.69,-472 915.69,-472 915.69,-478 909.69,-484 903.69,-484"/>
<text xml:space="preserve" text-anchor="middle" x="856" y="-463" font-family="Helvetica,sans-Serif" font-size="10.00">ConvergesInProbability</text>
</a>
</g>
</g>
<!-- n23&#45;&gt;n5 -->
<g id="edge42" class="edge">
<title>n23&#45;&gt;n5</title>
<path fill="none" stroke="#64748b" d="M615.79,-528.09C632.34,-525.55 650.33,-523.03 667,-521.2 693.57,-518.29 761.7,-521.82 787,-513.2 802.31,-507.98 817.46,-498.46 829.64,-489.41"/>
<polygon fill="#64748b" stroke="#64748b" points="830.83,-491.59 834.89,-485.39 827.85,-487.71 830.83,-491.59"/>
</g>
<!-- n24 -->
<g id="node23" class="node">
<title>n24</title>
<g id="a_node23"><a xlink:href="vscode://vscode-remote/wsl+Ubuntu/home/gavin/statlib/Statlib/CoxChangePoint/Theorem2And3.lean:103" xlink:title="theorem · Statlib/CoxChangePoint/Theorem2And3.lean:103" target="_blank">
<path fill="#ffe6a3" stroke="#d4a017" d="M575.9,-629.2C575.9,-629.2 536.1,-629.2 536.1,-629.2 530.1,-629.2 524.1,-623.2 524.1,-617.2 524.1,-617.2 524.1,-605.2 524.1,-605.2 524.1,-599.2 530.1,-593.2 536.1,-593.2 536.1,-593.2 575.9,-593.2 575.9,-593.2 581.9,-593.2 587.9,-599.2 587.9,-605.2 587.9,-605.2 587.9,-617.2 587.9,-617.2 587.9,-623.2 581.9,-629.2 575.9,-629.2"/>
<text xml:space="preserve" text-anchor="middle" x="556" y="-608.2" font-family="Helvetica,sans-Serif" font-size="10.00">theorem_2</text>
</a>
</g>
</g>
<!-- n24&#45;&gt;n23 -->
<g id="edge43" class="edge">
<title>n24&#45;&gt;n23</title>
<path fill="none" stroke="#64748b" d="M556,-592.9C556,-584.67 556,-574.68 556,-565.62"/>
<polygon fill="#64748b" stroke="#64748b" points="558.45,-565.82 556,-558.82 553.55,-565.82 558.45,-565.82"/>
</g>
<!-- n22 -->
<g id="node32" class="node">
<title>n22</title>
<g id="a_node32"><a xlink:href="vscode://vscode-remote/wsl+Ubuntu/home/gavin/statlib/Statlib/EmpiricalProcess/StochasticOrder.lean:42" xlink:title="def · Statlib/EmpiricalProcess/StochasticOrder.lean:42" target="_blank">
<path fill="#d6e9ff" stroke="#3b82f6" d="M766.42,-484C766.42,-484 671.58,-484 671.58,-484 665.58,-484 659.58,-478 659.58,-472 659.58,-472 659.58,-460 659.58,-460 659.58,-454 665.58,-448 671.58,-448 671.58,-448 766.42,-448 766.42,-448 772.42,-448 778.42,-454 778.42,-460 778.42,-460 778.42,-472 778.42,-472 778.42,-478 772.42,-484 766.42,-484"/>
<text xml:space="preserve" text-anchor="middle" x="719" y="-463" font-family="Helvetica,sans-Serif" font-size="10.00">IsBoundedInProbability</text>
</a>
</g>
</g>
<!-- n24&#45;&gt;n22 -->
<g id="edge44" class="edge">
<title>n24&#45;&gt;n22</title>
<path fill="none" stroke="#64748b" d="M579.42,-592.84C592.75,-582.74 609.59,-569.6 624,-557.2 649.46,-535.28 677.17,-508.63 696.05,-490"/>
<polygon fill="#64748b" stroke="#64748b" points="697.29,-492.22 700.54,-485.55 693.85,-488.74 697.29,-492.22"/>
</g>
<!-- n25 -->
<g id="node24" class="node">
<title>n25</title>
<g id="a_node24"><a xlink:href="vscode://vscode-remote/wsl+Ubuntu/home/gavin/statlib/Statlib/CoxChangePoint/CoxModel.lean:168" xlink:title="def · Statlib/CoxChangePoint/CoxModel.lean:168" target="_blank">
<path fill="#d6e9ff" stroke="#3b82f6" d="M478.58,-484C478.58,-484 375.42,-484 375.42,-484 369.42,-484 363.42,-478 363.42,-472 363.42,-472 363.42,-460 363.42,-460 363.42,-454 369.42,-448 375.42,-448 375.42,-448 478.58,-448 478.58,-448 484.58,-448 490.58,-454 490.58,-460 490.58,-460 490.58,-472 490.58,-472 490.58,-478 484.58,-484 478.58,-484"/>
<text xml:space="preserve" text-anchor="middle" x="427" y="-463" font-family="Helvetica,sans-Serif" font-size="10.00">toTheorem1Assumptions</text>
</a>
</g>
</g>
<!-- n25&#45;&gt;n0 -->
<g id="edge46" class="edge">
<title>n25&#45;&gt;n0</title>
<path fill="none" stroke="#64748b" d="M486.74,-447.59C541.79,-427.43 615,-388.34 615,-323 615,-323 615,-323 615,-177 615,-136.46 609.59,-125.83 595,-88 591.2,-78.13 585.79,-67.89 580.61,-59.07"/>
<polygon fill="#64748b" stroke="#64748b" points="582.85,-58.05 577.13,-53.32 578.66,-60.58 582.85,-58.05"/>
</g>
<!-- n25&#45;&gt;n3 -->
<g id="edge45" class="edge">
<title>n25&#45;&gt;n3</title>
<path fill="none" stroke="#64748b" d="M416.47,-447.91C410.15,-437.57 402.01,-424.09 395,-412 385.82,-396.16 389.74,-386.86 375,-376 312.12,-329.67 277.41,-363.73 203,-340 202.92,-339.97 202.83,-339.95 202.75,-339.92"/>
<polygon fill="#64748b" stroke="#64748b" points="203.7,-337.66 196.29,-337.64 202.07,-342.28 203.7,-337.66"/>
</g>
<!-- n25&#45;&gt;n14 -->
<g id="edge47" class="edge">
<title>n25&#45;&gt;n14</title>
<path fill="none" stroke="#64748b" d="M427.99,-447.7C428.46,-439.47 429.03,-429.48 429.55,-420.42"/>
<polygon fill="#64748b" stroke="#64748b" points="431.98,-420.74 429.94,-413.62 427.09,-420.46 431.98,-420.74"/>
</g>
<!-- n25&#45;&gt;n20 -->
<g id="edge48" class="edge">
<title>n25&#45;&gt;n20</title>
<path fill="none" stroke="#64748b" d="M405.25,-447.7C393.82,-438.61 379.69,-427.36 367.41,-417.6"/>
<polygon fill="#64748b" stroke="#64748b" points="369,-415.73 361.99,-413.29 365.95,-419.56 369,-415.73"/>
</g>
<!-- n26 -->
<g id="node25" class="node">
<title>n26</title>
<g id="a_node25"><a xlink:href="vscode://vscode-remote/wsl+Ubuntu/home/gavin/statlib/Statlib/CoxChangePoint/CoxModel.lean:213" xlink:title="theorem · Statlib/CoxChangePoint/CoxModel.lean:213" target="_blank">
<path fill="#ffe6a3" stroke="#d4a017" d="M461.68,-557.2C461.68,-557.2 396.32,-557.2 396.32,-557.2 390.32,-557.2 384.32,-551.2 384.32,-545.2 384.32,-545.2 384.32,-533.2 384.32,-533.2 384.32,-527.2 390.32,-521.2 396.32,-521.2 396.32,-521.2 461.68,-521.2 461.68,-521.2 467.68,-521.2 473.68,-527.2 473.68,-533.2 473.68,-533.2 473.68,-545.2 473.68,-545.2 473.68,-551.2 467.68,-557.2 461.68,-557.2"/>
<text xml:space="preserve" text-anchor="middle" x="429" y="-536.2" font-family="Helvetica,sans-Serif" font-size="10.00">cox_consistency</text>
</a>
</g>
</g>
<!-- n26&#45;&gt;n0 -->
<g id="edge50" class="edge">
<title>n26&#45;&gt;n0</title>
<path fill="none" stroke="#64748b" d="M474.08,-524.92C492.13,-519.52 509.14,-514.29 511,-513.2 576.74,-474.8 635,-471.14 635,-395 635,-395 635,-395 635,-177 635,-135.53 626.42,-124.64 607,-88 601.57,-77.75 594.07,-67.52 586.91,-58.81"/>
<polygon fill="#64748b" stroke="#64748b" points="588.92,-57.39 582.52,-53.64 585.18,-60.56 588.92,-57.39"/>
</g>
<!-- n26&#45;&gt;n3 -->
<g id="edge49" class="edge">
<title>n26&#45;&gt;n3</title>
<path fill="none" stroke="#64748b" d="M384.04,-523.57C380.99,-522.72 377.96,-521.93 375,-521.2 355.27,-516.36 347.21,-523.99 330,-513.2 295.97,-491.86 301.15,-472.1 277,-440 255.3,-411.15 252.06,-401.98 227,-376 216.63,-365.25 204.23,-354.45 193.19,-345.42"/>
<polygon fill="#64748b" stroke="#64748b" points="195.03,-343.76 188.04,-341.28 191.96,-347.58 195.03,-343.76"/>
</g>
<!-- n26&#45;&gt;n14 -->
<g id="edge51" class="edge">
<title>n26&#45;&gt;n14</title>
<path fill="none" stroke="#64748b" d="M473.86,-524.63C486.87,-520.26 498.11,-515.87 500,-513.2 518.8,-486.65 515.5,-468.61 500,-440 492.53,-426.21 478.79,-415.97 465.53,-408.78"/>
<polygon fill="#64748b" stroke="#64748b" points="466.96,-406.75 459.61,-405.78 464.74,-411.13 466.96,-406.75"/>
</g>
<!-- n26&#45;&gt;n20 -->
<g id="edge52" class="edge">
<title>n26&#45;&gt;n20</title>
<path fill="none" stroke="#64748b" d="M384.23,-523.79C368.53,-518.65 354.6,-513.93 354,-513.2 332.77,-487.35 332.37,-446.99 334.97,-420.77"/>
<polygon fill="#64748b" stroke="#64748b" points="337.38,-421.2 335.76,-413.96 332.51,-420.63 337.38,-421.2"/>
</g>
<!-- n26&#45;&gt;n25 -->
<g id="edge53" class="edge">
<title>n26&#45;&gt;n25</title>
<path fill="none" stroke="#64748b" d="M428.52,-520.96C428.28,-512.39 427.98,-501.87 427.71,-492.39"/>
<polygon fill="#64748b" stroke="#64748b" points="430.17,-492.52 427.52,-485.59 425.27,-492.66 430.17,-492.52"/>
</g>
<!-- n27 -->
<g id="node26" class="node">
<title>n27</title>
<g id="a_node26"><a xlink:href="vscode://vscode-remote/wsl+Ubuntu/home/gavin/statlib/Statlib/CoxChangePoint/CoxConsistencyEndToEnd.lean:125" xlink:title="theorem · Statlib/CoxChangePoint/CoxConsistencyEndToEnd.lean:125" target="_blank">
<path fill="#ffe6a3" stroke="#d4a017" d="M451.12,-629.2C451.12,-629.2 406.88,-629.2 406.88,-629.2 400.88,-629.2 394.88,-623.2 394.88,-617.2 394.88,-617.2 394.88,-605.2 394.88,-605.2 394.88,-599.2 400.88,-593.2 406.88,-593.2 406.88,-593.2 451.12,-593.2 451.12,-593.2 457.12,-593.2 463.12,-599.2 463.12,-605.2 463.12,-605.2 463.12,-617.2 463.12,-617.2 463.12,-623.2 457.12,-629.2 451.12,-629.2"/>
<text xml:space="preserve" text-anchor="middle" x="429" y="-608.2" font-family="Helvetica,sans-Serif" font-size="10.00">consistency</text>
</a>
</g>
</g>
<!-- n27&#45;&gt;n4 -->
<g id="edge56" class="edge">
<title>n27&#45;&gt;n4</title>
<path fill="none" stroke="#64748b" d="M394.59,-611.02C350.69,-610.1 275.36,-601.55 233,-557.2 216.69,-540.12 212.52,-512.86 211.93,-492.77"/>
<polygon fill="#64748b" stroke="#64748b" points="214.38,-492.88 211.88,-485.89 209.48,-492.91 214.38,-492.88"/>
</g>
<!-- n27&#45;&gt;n21 -->
<g id="edge54" class="edge">
<title>n27&#45;&gt;n21</title>
<path fill="none" stroke="#64748b" d="M397.78,-592.72C380.95,-583.29 360.04,-571.58 342.24,-561.61"/>
<polygon fill="#64748b" stroke="#64748b" points="343.45,-559.48 336.14,-558.2 341.05,-563.76 343.45,-559.48"/>
</g>
<!-- n27&#45;&gt;n26 -->
<g id="edge57" class="edge">
<title>n27&#45;&gt;n26</title>
<path fill="none" stroke="#64748b" d="M429,-592.9C429,-584.67 429,-574.68 429,-565.62"/>
<polygon fill="#64748b" stroke="#64748b" points="431.45,-565.82 429,-558.82 426.55,-565.82 431.45,-565.82"/>
</g>
<!-- n27&#45;&gt;n5 -->
<g id="edge55" class="edge">
<title>n27&#45;&gt;n5</title>
<path fill="none" stroke="#64748b" d="M463.55,-600.86C553.13,-576.63 786.05,-513.63 787,-513.2 801.04,-506.81 815.4,-497.69 827.35,-489.24"/>
<polygon fill="#64748b" stroke="#64748b" points="828.63,-491.34 832.87,-485.25 825.76,-487.37 828.63,-491.34"/>
</g>
<!-- n28 -->
<g id="node27" class="node">
<title>n28</title>
<g id="a_node27"><a xlink:href="vscode://vscode-remote/wsl+Ubuntu/home/gavin/statlib/Statlib/CoxChangePoint/CoxConsistencyEndToEnd.lean:138" xlink:title="theorem · Statlib/CoxChangePoint/CoxConsistencyEndToEnd.lean:138" target="_blank">
<path fill="#ffe6a3" stroke="#d4a017" d="M538,-701.2C538,-701.2 508,-701.2 508,-701.2 502,-701.2 496,-695.2 496,-689.2 496,-689.2 496,-677.2 496,-677.2 496,-671.2 502,-665.2 508,-665.2 508,-665.2 538,-665.2 538,-665.2 544,-665.2 550,-671.2 550,-677.2 550,-677.2 550,-689.2 550,-689.2 550,-695.2 544,-701.2 538,-701.2"/>
<text xml:space="preserve" text-anchor="middle" x="523" y="-680.2" font-family="Helvetica,sans-Serif" font-size="10.00">rate</text>
</a>
</g>
</g>
<!-- n28&#45;&gt;n4 -->
<g id="edge59" class="edge">
<title>n28&#45;&gt;n4</title>
<path fill="none" stroke="#64748b" d="M495.72,-668.63C492.81,-667.39 489.86,-666.22 487,-665.2 363.31,-621.13 278.66,-670.33 212,-557.2 200.55,-537.78 202.3,-511.68 206.02,-492.55"/>
<polygon fill="#64748b" stroke="#64748b" points="208.39,-493.14 207.5,-485.78 203.61,-492.09 208.39,-493.14"/>
</g>
<!-- n28&#45;&gt;n21 -->
<g id="edge58" class="edge">
<title>n28&#45;&gt;n21</title>
<path fill="none" stroke="#64748b" d="M495.61,-668.92C492.72,-667.63 489.81,-666.36 487,-665.2 442.96,-647 425.75,-655.49 386,-629.2 359.67,-611.78 335.99,-584.14 320.93,-564.29"/>
<polygon fill="#64748b" stroke="#64748b" points="323.02,-562.99 316.87,-558.83 319.08,-565.91 323.02,-562.99"/>
</g>
<!-- n28&#45;&gt;n24 -->
<g id="edge61" class="edge">
<title>n28&#45;&gt;n24</title>
<path fill="none" stroke="#64748b" d="M531.16,-664.9C535.15,-656.42 540.04,-646.06 544.41,-636.78"/>
<polygon fill="#64748b" stroke="#64748b" points="546.52,-638.05 547.29,-630.67 542.09,-635.96 546.52,-638.05"/>
</g>
<!-- n28&#45;&gt;n27 -->
<g id="edge62" class="edge">
<title>n28&#45;&gt;n27</title>
<path fill="none" stroke="#64748b" d="M499.76,-664.9C487.45,-655.73 472.18,-644.36 458.98,-634.53"/>
<polygon fill="#64748b" stroke="#64748b" points="460.59,-632.67 453.51,-630.45 457.66,-636.6 460.59,-632.67"/>
</g>
<!-- n28&#45;&gt;n22 -->
<g id="edge60" class="edge">
<title>n28&#45;&gt;n22</title>
<path fill="none" stroke="#64748b" d="M550.29,-665.1C564.84,-655.39 582.65,-642.54 597,-629.2 642.83,-586.61 683.78,-525.06 704.57,-491.35"/>
<polygon fill="#64748b" stroke="#64748b" points="706.59,-492.74 708.14,-485.49 702.41,-490.19 706.59,-492.74"/>
</g>
<!-- n29 -->
<g id="node28" class="node">
<title>n29</title>
<g id="a_node28"><a xlink:href="vscode://vscode-remote/wsl+Ubuntu/home/gavin/statlib/Statlib/CoxChangePoint/Theorem2Proof.lean:122" xlink:title="structure · Statlib/CoxChangePoint/Theorem2Proof.lean:122" target="_blank">
<path fill="#e8dcff" stroke="#8b5cf6" d="M624.13,-701.2C624.13,-701.2 579.87,-701.2 579.87,-701.2 573.87,-701.2 567.87,-695.2 567.87,-689.2 567.87,-689.2 567.87,-677.2 567.87,-677.2 567.87,-671.2 573.87,-665.2 579.87,-665.2 579.87,-665.2 624.13,-665.2 624.13,-665.2 630.13,-665.2 636.13,-671.2 636.13,-677.2 636.13,-677.2 636.13,-689.2 636.13,-689.2 636.13,-695.2 630.13,-701.2 624.13,-701.2"/>
<text xml:space="preserve" text-anchor="middle" x="602" y="-680.2" font-family="Helvetica,sans-Serif" font-size="10.00">RateChoice</text>
</a>
</g>
</g>
<!-- n30 -->
<g id="node29" class="node">
<title>n30</title>
<g id="a_node29"><a xlink:href="vscode://vscode-remote/wsl+Ubuntu/home/gavin/statlib/Statlib/CoxChangePoint/CoxTheorem23EndToEnd.lean:94" xlink:title="structure · Statlib/CoxChangePoint/CoxTheorem23EndToEnd.lean:94" target="_blank">
<path fill="#e8dcff" stroke="#8b5cf6" d="M574.08,-773.2C574.08,-773.2 465.92,-773.2 465.92,-773.2 459.92,-773.2 453.92,-767.2 453.92,-761.2 453.92,-761.2 453.92,-749.2 453.92,-749.2 453.92,-743.2 459.92,-737.2 465.92,-737.2 465.92,-737.2 574.08,-737.2 574.08,-737.2 580.08,-737.2 586.08,-743.2 586.08,-749.2 586.08,-749.2 586.08,-761.2 586.08,-761.2 586.08,-767.2 580.08,-773.2 574.08,-773.2"/>
<text xml:space="preserve" text-anchor="middle" x="520" y="-752.2" font-family="Helvetica,sans-Serif" font-size="10.00">CoxTheorem2Hypotheses</text>
</a>
</g>
</g>
<!-- n30&#45;&gt;n6 -->
<g id="edge64" class="edge">
<title>n30&#45;&gt;n6</title>
<path fill="none" stroke="#64748b" d="M458.06,-736.72C422.71,-726.74 378.3,-714.2 341.74,-703.88"/>
<polygon fill="#64748b" stroke="#64748b" points="342.44,-701.54 335.04,-701.99 341.11,-706.25 342.44,-701.54"/>
</g>
<!-- n30&#45;&gt;n7 -->
<g id="edge65" class="edge">
<title>n30&#45;&gt;n7</title>
<path fill="none" stroke="#64748b" d="M494.77,-736.72C481.42,-727.46 464.88,-716 450.67,-706.15"/>
<polygon fill="#64748b" stroke="#64748b" points="452.3,-704.3 445.15,-702.32 449.51,-708.32 452.3,-704.3"/>
</g>
<!-- n30&#45;&gt;n28 -->
<g id="edge66" class="edge">
<title>n30&#45;&gt;n28</title>
<path fill="none" stroke="#64748b" d="M520.74,-736.9C521.09,-728.67 521.52,-718.68 521.91,-709.62"/>
<polygon fill="#64748b" stroke="#64748b" points="524.35,-709.92 522.2,-702.82 519.45,-709.71 524.35,-709.92"/>
</g>
<!-- n30&#45;&gt;n29 -->
<g id="edge67" class="edge">
<title>n30&#45;&gt;n29</title>
<path fill="none" stroke="#64748b" d="M540.27,-736.9C550.82,-727.89 563.84,-716.77 575.21,-707.07"/>
<polygon fill="#64748b" stroke="#64748b" points="576.79,-708.94 580.53,-702.53 573.61,-705.21 576.79,-708.94"/>
</g>
<!-- n30&#45;&gt;n5 -->
<g id="edge63" class="edge">
<title>n30&#45;&gt;n5</title>
<path fill="none" stroke="#64748b" d="M575.31,-736.71C598.07,-728.04 623.98,-716.18 645,-701.2 731.09,-639.84 807.39,-537.74 839.66,-491.31"/>
<polygon fill="#64748b" stroke="#64748b" points="841.65,-492.75 843.6,-485.6 837.61,-489.97 841.65,-492.75"/>
</g>
<!-- n31 -->
<g id="node30" class="node">
<title>n31</title>
<g id="a_node30"><a xlink:href="vscode://vscode-remote/wsl+Ubuntu/home/gavin/statlib/Statlib/CoxChangePoint/CoxTheorem23EndToEnd.lean:261" xlink:title="def · Statlib/CoxChangePoint/CoxTheorem23EndToEnd.lean:261" target="_blank">
<path fill="#d6e9ff" stroke="#3b82f6" stroke-width="3" d="M507.15,-845.2C507.15,-845.2 342.85,-845.2 342.85,-845.2 336.85,-845.2 330.85,-839.2 330.85,-833.2 330.85,-833.2 330.85,-821.2 330.85,-821.2 330.85,-815.2 336.85,-809.2 342.85,-809.2 342.85,-809.2 507.15,-809.2 507.15,-809.2 513.15,-809.2 519.15,-815.2 519.15,-821.2 519.15,-821.2 519.15,-833.2 519.15,-833.2 519.15,-839.2 513.15,-845.2 507.15,-845.2"/>
<text xml:space="preserve" text-anchor="middle" x="425" y="-824.2" font-family="Helvetica,sans-Serif" font-size="10.00">CoxModel.toCoxTheorem2Hypotheses</text>
</a>
</g>
</g>
<!-- n31&#45;&gt;n3 -->
<g id="edge68" class="edge">
<title>n31&#45;&gt;n3</title>
<path fill="none" stroke="#64748b" d="M329.47,-812.69C277.17,-803.6 219.01,-790.18 199,-773.2 166.33,-745.49 162,-727.04 162,-684.2 162,-684.2 162,-684.2 162,-465 162,-424.33 162.83,-377.12 163.42,-348.68"/>
<polygon fill="#64748b" stroke="#64748b" points="165.86,-349.05 163.56,-342 160.96,-348.95 165.86,-349.05"/>
</g>
<!-- n31&#45;&gt;n4 -->
<g id="edge69" class="edge">
<title>n31&#45;&gt;n4</title>
<path fill="none" stroke="#64748b" d="M329.66,-809.78C261.58,-791.94 182,-755.78 182,-684.2 182,-684.2 182,-684.2 182,-610.2 182,-568.06 194.98,-520.5 204.14,-492.18"/>
<polygon fill="#64748b" stroke="#64748b" points="206.37,-493.23 206.25,-485.81 201.72,-491.68 206.37,-493.23"/>
</g>
<!-- n31&#45;&gt;n6 -->
<g id="edge71" class="edge">
<title>n31&#45;&gt;n6</title>
<path fill="none" stroke="#64748b" d="M405.31,-807.93C377.58,-782.19 327.04,-735.28 296.79,-707.21"/>
<polygon fill="#64748b" stroke="#64748b" points="298.56,-705.51 291.76,-702.54 295.23,-709.1 298.56,-705.51"/>
</g>
<!-- n31&#45;&gt;n7 -->
<g id="edge72" class="edge">
<title>n31&#45;&gt;n7</title>
<path fill="none" stroke="#64748b" d="M424.23,-807.93C423.17,-782.95 421.27,-738.01 420.08,-709.72"/>
<polygon fill="#64748b" stroke="#64748b" points="422.54,-709.92 419.8,-703.03 417.64,-710.12 422.54,-709.92"/>
</g>
<!-- n31&#45;&gt;n28 -->
<g id="edge73" class="edge">
<title>n31&#45;&gt;n28</title>
<path fill="none" stroke="#64748b" d="M425.25,-807.95C426.34,-788.79 430.48,-758.54 445,-737.2 450.94,-728.48 470.67,-715.1 488.8,-703.97"/>
<polygon fill="#64748b" stroke="#64748b" points="489.88,-706.18 494.6,-700.46 487.34,-701.99 489.88,-706.18"/>
</g>
<!-- n31&#45;&gt;n29 -->
<g id="edge74" class="edge">
<title>n31&#45;&gt;n29</title>
<path fill="none" stroke="#64748b" d="M520.41,-816.92C548.55,-809.37 576.68,-796.16 595,-773.2 609,-755.66 609.4,-729.48 607.11,-710.05"/>
<polygon fill="#64748b" stroke="#64748b" points="609.54,-709.74 606.12,-703.15 604.69,-710.43 609.54,-709.74"/>
</g>
<!-- n31&#45;&gt;n30 -->
<g id="edge75" class="edge">
<title>n31&#45;&gt;n30</title>
<path fill="none" stroke="#64748b" d="M449.96,-807.81C462.23,-798.77 477.1,-787.81 489.98,-778.32"/>
<polygon fill="#64748b" stroke="#64748b" points="491.11,-780.53 495.29,-774.4 488.21,-776.58 491.11,-780.53"/>
</g>
<!-- n31&#45;&gt;n5 -->
<g id="edge70" class="edge">
<title>n31&#45;&gt;n5</title>
<path fill="none" stroke="#64748b" d="M520.47,-813.02C643.01,-793.38 840,-751.35 840,-684.2 840,-684.2 840,-684.2 840,-610.2 840,-568.71 846.71,-520.88 851.44,-492.34"/>
<polygon fill="#64748b" stroke="#64748b" points="853.83,-492.93 852.59,-485.62 849,-492.11 853.83,-492.93"/>
</g>
</g>
</svg>
