<?xml version="1.0" encoding="UTF-8" standalone="no"?>
<!DOCTYPE svg PUBLIC "-//W3C//DTD SVG 1.1//EN"
 "http://www.w3.org/Graphics/SVG/1.1/DTD/svg11.dtd">
<!-- Generated by graphviz version 15.0.0 (20260523.1842)
 -->
<!-- Title: CoxModel.toCoxTheorem3Hypotheses Pages: 1 -->
<svg width="941pt" height="267pt"
 viewBox="0.00 0.00 941.00 267.00" xmlns="http://www.w3.org/2000/svg" xmlns:xlink="http://www.w3.org/1999/xlink">
<g id="graph0" class="graph" transform="scale(1 1) rotate(0) translate(4 263.2)">
<title>CoxModel.toCoxTheorem3Hypotheses</title>
<polygon fill="white" stroke="none" points="-4,4 -4,-263.2 937,-263.2 937,4 -4,4"/>
<text xml:space="preserve" text-anchor="middle" x="466.5" y="-242.6" font-family="Helvetica,sans-Serif" font-size="14.00">Proof narrative — CoxModel.toCoxTheorem3Hypotheses &#160;(13 decls)</text>
<g id="clust1" class="cluster">
<title>cluster_0</title>
<path fill="none" stroke="#cbd5e1" stroke-dasharray="5,2" d="M20,-8C20,-8 685,-8 685,-8 691,-8 697,-14 697,-20 697,-20 697,-214.4 697,-214.4 697,-220.4 691,-226.4 685,-226.4 685,-226.4 20,-226.4 20,-226.4 14,-226.4 8,-220.4 8,-214.4 8,-214.4 8,-20 8,-20 8,-14 14,-8 20,-8"/>
<text xml:space="preserve" text-anchor="middle" x="352.5" y="-212.5" font-family="Helvetica,sans-Serif" font-size="11.00">CoxChangePoint</text>
</g>
<g id="clust2" class="cluster">
<title>cluster_1</title>
<path fill="none" stroke="#cbd5e1" stroke-dasharray="5,2" d="M717,-8C717,-8 913,-8 913,-8 919,-8 925,-14 925,-20 925,-20 925,-141.2 925,-141.2 925,-147.2 919,-153.2 913,-153.2 913,-153.2 717,-153.2 717,-153.2 711,-153.2 705,-147.2 705,-141.2 705,-141.2 705,-20 705,-20 705,-14 711,-8 717,-8"/>
<text xml:space="preserve" text-anchor="middle" x="815" y="-139.3" font-family="Helvetica,sans-Serif" font-size="11.00">Mathlib</text>
</g>
<!-- n0 -->
<g id="node1" class="node">
<title>n0</title>
<g id="a_node1"><a xlink:href="vscode://vscode-remote/wsl+Ubuntu/home/gavin/statlib/Statlib/CoxChangePoint/Foundation.lean:57" xlink:title="structure · Statlib/CoxChangePoint/Foundation.lean:57" target="_blank">
<path fill="#e8dcff" stroke="#8b5cf6" d="M676.62,-52C676.62,-52 637.38,-52 637.38,-52 631.38,-52 625.38,-46 625.38,-40 625.38,-40 625.38,-28 625.38,-28 625.38,-22 631.38,-16 637.38,-16 637.38,-16 676.62,-16 676.62,-16 682.62,-16 688.62,-22 688.62,-28 688.62,-28 688.62,-40 688.62,-40 688.62,-46 682.62,-52 676.62,-52"/>
<text xml:space="preserve" text-anchor="middle" x="657" y="-31" font-family="Helvetica,sans-Serif" font-size="10.00">CoxParam</text>
</a>
</g>
</g>
<!-- n1 -->
<g id="node2" class="node">
<title>n1</title>
<g id="a_node2"><a xlink:href="vscode://vscode-remote/wsl+Ubuntu/home/gavin/statlib/Statlib/CoxChangePoint/FPC.lean:55" xlink:title="def · Statlib/CoxChangePoint/FPC.lean:55" target="_blank">
<path fill="#d6e9ff" stroke="#3b82f6" d="M504.02,-52C504.02,-52 431.98,-52 431.98,-52 425.98,-52 419.98,-46 419.98,-40 419.98,-40 419.98,-28 419.98,-28 419.98,-22 425.98,-16 431.98,-16 431.98,-16 504.02,-16 504.02,-16 510.02,-16 516.02,-22 516.02,-28 516.02,-28 516.02,-40 516.02,-40 516.02,-46 510.02,-52 504.02,-52"/>
<text xml:space="preserve" text-anchor="middle" x="468" y="-31" font-family="Helvetica,sans-Serif" font-size="10.00">FunctionalSample</text>
</a>
</g>
</g>
<!-- n2 -->
<g id="node3" class="node">
<title>n2</title>
<g id="a_node3"><a xlink:href="vscode://vscode-remote/wsl+Ubuntu/home/gavin/statlib/Statlib/CoxChangePoint/FPC.lean:42" xlink:title="structure · Statlib/CoxChangePoint/FPC.lean:42" target="_blank">
<path fill="#e8dcff" stroke="#8b5cf6" d="M595.62,-52C595.62,-52 546.38,-52 546.38,-52 540.38,-52 534.38,-46 534.38,-40 534.38,-40 534.38,-28 534.38,-28 534.38,-22 540.38,-16 546.38,-16 546.38,-16 595.62,-16 595.62,-16 601.62,-16 607.62,-22 607.62,-28 607.62,-28 607.62,-40 607.62,-40 607.62,-46 601.62,-52 595.62,-52"/>
<text xml:space="preserve" text-anchor="middle" x="571" y="-31" font-family="Helvetica,sans-Serif" font-size="10.00">Eigensystem</text>
</a>
</g>
</g>
<!-- n3 -->
<g id="node4" class="node">
<title>n3</title>
<g id="a_node4"><a xlink:href="vscode://vscode-remote/wsl+Ubuntu/home/gavin/statlib/Statlib/CoxChangePoint/CoxModel.lean:80" xlink:title="structure · Statlib/CoxChangePoint/CoxModel.lean:80" target="_blank">
<path fill="#e8dcff" stroke="#8b5cf6" d="M537.51,-124C537.51,-124 500.49,-124 500.49,-124 494.49,-124 488.49,-118 488.49,-112 488.49,-112 488.49,-100 488.49,-100 488.49,-94 494.49,-88 500.49,-88 500.49,-88 537.51,-88 537.51,-88 543.51,-88 549.51,-94 549.51,-100 549.51,-100 549.51,-112 549.51,-112 549.51,-118 543.51,-124 537.51,-124"/>
<text xml:space="preserve" text-anchor="middle" x="519" y="-103" font-family="Helvetica,sans-Serif" font-size="10.00">CoxModel</text>
</a>
</g>
</g>
<!-- n3&#45;&gt;n0 -->
<g id="edge1" class="edge">
<title>n3&#45;&gt;n0</title>
<path fill="none" stroke="#64748b" d="M549.97,-89.29C570.02,-79.12 596.29,-65.79 617.79,-54.89"/>
<polygon fill="#64748b" stroke="#64748b" points="618.69,-57.18 623.83,-51.83 616.48,-52.81 618.69,-57.18"/>
</g>
<!-- n3&#45;&gt;n1 -->
<g id="edge2" class="edge">
<title>n3&#45;&gt;n1</title>
<path fill="none" stroke="#64748b" d="M506.39,-87.7C500.03,-78.97 492.22,-68.24 485.3,-58.75"/>
<polygon fill="#64748b" stroke="#64748b" points="487.46,-57.54 481.35,-53.33 483.49,-60.43 487.46,-57.54"/>
</g>
<!-- n3&#45;&gt;n2 -->
<g id="edge3" class="edge">
<title>n3&#45;&gt;n2</title>
<path fill="none" stroke="#64748b" d="M531.85,-87.7C538.34,-78.97 546.31,-68.24 553.36,-58.75"/>
<polygon fill="#64748b" stroke="#64748b" points="555.18,-60.4 557.39,-53.32 551.25,-57.48 555.18,-60.4"/>
</g>
<!-- n7 -->
<g id="node5" class="node">
<title>n7</title>
<g id="a_node5"><a xlink:href="vscode://vscode-remote/wsl+Ubuntu/home/gavin/statlib/Statlib/CoxChangePoint/Theorem3Proof.lean:72" xlink:title="structure · Statlib/CoxChangePoint/Theorem3Proof.lean:72" target="_blank">
<path fill="#e8dcff" stroke="#8b5cf6" d="M202.01,-52C202.01,-52 149.99,-52 149.99,-52 143.99,-52 137.99,-46 137.99,-40 137.99,-40 137.99,-28 137.99,-28 137.99,-22 143.99,-16 149.99,-16 149.99,-16 202.01,-16 202.01,-16 208.01,-16 214.01,-22 214.01,-28 214.01,-28 214.01,-40 214.01,-40 214.01,-46 208.01,-52 202.01,-52"/>
<text xml:space="preserve" text-anchor="middle" x="176" y="-31" font-family="Helvetica,sans-Serif" font-size="10.00">LocalProcess</text>
</a>
</g>
</g>
<!-- n8 -->
<g id="node6" class="node">
<title>n8</title>
<g id="a_node6"><a xlink:href="vscode://vscode-remote/wsl+Ubuntu/home/gavin/statlib/Statlib/CoxChangePoint/Theorem3Proof.lean:111" xlink:title="structure · Statlib/CoxChangePoint/Theorem3Proof.lean:111" target="_blank">
<path fill="#e8dcff" stroke="#8b5cf6" d="M292.06,-52C292.06,-52 243.94,-52 243.94,-52 237.94,-52 231.94,-46 231.94,-40 231.94,-40 231.94,-28 231.94,-28 231.94,-22 237.94,-16 243.94,-16 243.94,-16 292.06,-16 292.06,-16 298.06,-16 304.06,-22 304.06,-28 304.06,-28 304.06,-40 304.06,-40 304.06,-46 298.06,-52 292.06,-52"/>
<text xml:space="preserve" text-anchor="middle" x="268" y="-31" font-family="Helvetica,sans-Serif" font-size="10.00">ArgmaxCMT</text>
</a>
</g>
</g>
<!-- n9 -->
<g id="node7" class="node">
<title>n9</title>
<g id="a_node7"><a xlink:href="vscode://vscode-remote/wsl+Ubuntu/home/gavin/statlib/Statlib/CoxChangePoint/Theorem3Proof.lean:130" xlink:title="structure · Statlib/CoxChangePoint/Theorem3Proof.lean:130" target="_blank">
<path fill="#e8dcff" stroke="#8b5cf6" d="M389.68,-52C389.68,-52 334.32,-52 334.32,-52 328.32,-52 322.32,-46 322.32,-40 322.32,-40 322.32,-28 322.32,-28 322.32,-22 328.32,-16 334.32,-16 334.32,-16 389.68,-16 389.68,-16 395.68,-16 401.68,-22 401.68,-28 401.68,-28 401.68,-40 401.68,-40 401.68,-46 395.68,-52 389.68,-52"/>
<text xml:space="preserve" text-anchor="middle" x="362" y="-31" font-family="Helvetica,sans-Serif" font-size="10.00">GaussianLimit</text>
</a>
</g>
</g>
<!-- n10 -->
<g id="node8" class="node">
<title>n10</title>
<g id="a_node8"><a xlink:href="vscode://vscode-remote/wsl+Ubuntu/home/gavin/statlib/Statlib/CoxChangePoint/Theorem3Proof.lean:149" xlink:title="structure · Statlib/CoxChangePoint/Theorem3Proof.lean:149" target="_blank">
<path fill="#e8dcff" stroke="#8b5cf6" d="M107.62,-52C107.62,-52 28.38,-52 28.38,-52 22.38,-52 16.38,-46 16.38,-40 16.38,-40 16.38,-28 16.38,-28 16.38,-22 22.38,-16 28.38,-16 28.38,-16 107.62,-16 107.62,-16 113.62,-16 119.62,-22 119.62,-28 119.62,-28 119.62,-40 119.62,-40 119.62,-46 113.62,-52 107.62,-52"/>
<text xml:space="preserve" text-anchor="middle" x="68" y="-31" font-family="Helvetica,sans-Serif" font-size="10.00">JointAsymptoticDist</text>
</a>
</g>
</g>
<!-- n11 -->
<g id="node9" class="node">
<title>n11</title>
<g id="a_node9"><a xlink:href="vscode://vscode-remote/wsl+Ubuntu/home/gavin/statlib/Statlib/CoxChangePoint/CoxTheorem23EndToEnd.lean:170" xlink:title="structure · Statlib/CoxChangePoint/CoxTheorem23EndToEnd.lean:170" target="_blank">
<path fill="#e8dcff" stroke="#8b5cf6" d="M315.08,-124C315.08,-124 206.92,-124 206.92,-124 200.92,-124 194.92,-118 194.92,-112 194.92,-112 194.92,-100 194.92,-100 194.92,-94 200.92,-88 206.92,-88 206.92,-88 315.08,-88 315.08,-88 321.08,-88 327.08,-94 327.08,-100 327.08,-100 327.08,-112 327.08,-112 327.08,-118 321.08,-124 315.08,-124"/>
<text xml:space="preserve" text-anchor="middle" x="261" y="-103" font-family="Helvetica,sans-Serif" font-size="10.00">CoxTheorem3Hypotheses</text>
</a>
</g>
</g>
<!-- n11&#45;&gt;n7 -->
<g id="edge5" class="edge">
<title>n11&#45;&gt;n7</title>
<path fill="none" stroke="#64748b" d="M239.99,-87.7C228.95,-78.61 215.3,-67.36 203.44,-57.6"/>
<polygon fill="#64748b" stroke="#64748b" points="205.19,-55.87 198.23,-53.31 202.08,-59.65 205.19,-55.87"/>
</g>
<!-- n11&#45;&gt;n8 -->
<g id="edge6" class="edge">
<title>n11&#45;&gt;n8</title>
<path fill="none" stroke="#64748b" d="M262.73,-87.7C263.55,-79.47 264.55,-69.48 265.46,-60.42"/>
<polygon fill="#64748b" stroke="#64748b" points="267.88,-60.82 266.14,-53.61 263,-60.33 267.88,-60.82"/>
</g>
<!-- n11&#45;&gt;n9 -->
<g id="edge7" class="edge">
<title>n11&#45;&gt;n9</title>
<path fill="none" stroke="#64748b" d="M286.23,-87.52C299.58,-78.26 316.12,-66.8 330.33,-56.95"/>
<polygon fill="#64748b" stroke="#64748b" points="331.49,-59.12 335.85,-53.12 328.7,-55.1 331.49,-59.12"/>
</g>
<!-- n11&#45;&gt;n10 -->
<g id="edge8" class="edge">
<title>n11&#45;&gt;n10</title>
<path fill="none" stroke="#64748b" d="M212.8,-87.52C185.75,-77.71 151.89,-65.43 123.71,-55.21"/>
<polygon fill="#64748b" stroke="#64748b" points="124.76,-52.98 117.35,-52.9 123.09,-57.59 124.76,-52.98"/>
</g>
<!-- n12 -->
<g id="node10" class="node">
<title>n12</title>
<g id="a_node10"><a xlink:href="vscode://vscode-remote/wsl+Ubuntu/home/gavin/statlib/Statlib/CoxChangePoint/CoxTheorem23EndToEnd.lean:313" xlink:title="def · Statlib/CoxChangePoint/CoxTheorem23EndToEnd.lean:313" target="_blank">
<path fill="#d6e9ff" stroke="#3b82f6" stroke-width="3" d="M438.15,-197.2C438.15,-197.2 273.85,-197.2 273.85,-197.2 267.85,-197.2 261.85,-191.2 261.85,-185.2 261.85,-185.2 261.85,-173.2 261.85,-173.2 261.85,-167.2 267.85,-161.2 273.85,-161.2 273.85,-161.2 438.15,-161.2 438.15,-161.2 444.15,-161.2 450.15,-167.2 450.15,-173.2 450.15,-173.2 450.15,-185.2 450.15,-185.2 450.15,-191.2 444.15,-197.2 438.15,-197.2"/>
<text xml:space="preserve" text-anchor="middle" x="356" y="-176.2" font-family="Helvetica,sans-Serif" font-size="10.00">CoxModel.toCoxTheorem3Hypotheses</text>
</a>
</g>
</g>
<!-- n12&#45;&gt;n3 -->
<g id="edge9" class="edge">
<title>n12&#45;&gt;n3</title>
<path fill="none" stroke="#64748b" d="M397.98,-159.86C423.43,-148.75 455.66,-134.67 480.46,-123.83"/>
<polygon fill="#64748b" stroke="#64748b" points="481.41,-126.09 486.85,-121.04 479.45,-121.6 481.41,-126.09"/>
</g>
<!-- n12&#45;&gt;n7 -->
<g id="edge12" class="edge">
<title>n12&#45;&gt;n7</title>
<path fill="none" stroke="#64748b" d="M260.46,-174.37C227.84,-170.98 196.83,-164.72 186,-153.2 162.96,-128.7 165.25,-87.35 169.92,-60.62"/>
<polygon fill="#64748b" stroke="#64748b" points="172.28,-61.32 171.21,-53.98 167.47,-60.39 172.28,-61.32"/>
</g>
<!-- n12&#45;&gt;n8 -->
<g id="edge13" class="edge">
<title>n12&#45;&gt;n8</title>
<path fill="none" stroke="#64748b" d="M353.45,-160C350.01,-137.23 343.45,-99.8 336,-88 328.31,-75.84 316.81,-65.33 305.44,-56.96"/>
<polygon fill="#64748b" stroke="#64748b" points="307.17,-55.18 300.03,-53.15 304.35,-59.18 307.17,-55.18"/>
</g>
<!-- n12&#45;&gt;n9 -->
<g id="edge14" class="edge">
<title>n12&#45;&gt;n9</title>
<path fill="none" stroke="#64748b" d="M356.77,-159.77C357.83,-134.58 359.73,-89.27 360.92,-60.74"/>
<polygon fill="#64748b" stroke="#64748b" points="363.36,-61.07 361.21,-53.97 358.46,-60.86 363.36,-61.07"/>
</g>
<!-- n12&#45;&gt;n10 -->
<g id="edge15" class="edge">
<title>n12&#45;&gt;n10</title>
<path fill="none" stroke="#64748b" d="M260.53,-172.48C220.79,-168.74 179.98,-162.73 163,-153.2 124.38,-131.53 95.5,-87.32 80.23,-59.53"/>
<polygon fill="#64748b" stroke="#64748b" points="82.47,-58.52 77.01,-53.5 78.15,-60.83 82.47,-58.52"/>
</g>
<!-- n12&#45;&gt;n11 -->
<g id="edge16" class="edge">
<title>n12&#45;&gt;n11</title>
<path fill="none" stroke="#64748b" d="M331.54,-159.86C319.08,-150.53 303.84,-139.11 290.72,-129.27"/>
<polygon fill="#64748b" stroke="#64748b" points="292.36,-127.44 285.29,-125.2 289.42,-131.36 292.36,-127.44"/>
</g>
<!-- n4 -->
<g id="node11" class="node">
<title>n4</title>
<g id="a_node11"><a xlink:href="vscode://vscode-remote/wsl+Ubuntu/home/gavin/statlib/Statlib/Mathlib/Statistics/LAN.lean:152" xlink:title="structure · Statlib/Mathlib/Statistics/LAN.lean:152" target="_blank">
<path fill="#e8dcff" stroke="#8b5cf6" d="M783.08,-124C783.08,-124 724.92,-124 724.92,-124 718.92,-124 712.92,-118 712.92,-112 712.92,-112 712.92,-100 712.92,-100 712.92,-94 718.92,-88 724.92,-88 724.92,-88 783.08,-88 783.08,-88 789.08,-88 795.08,-94 795.08,-100 795.08,-100 795.08,-112 795.08,-112 795.08,-118 789.08,-124 783.08,-124"/>
<text xml:space="preserve" text-anchor="middle" x="754" y="-103" font-family="Helvetica,sans-Serif" font-size="10.00">LANExpansion</text>
</a>
</g>
</g>
<!-- n12&#45;&gt;n4 -->
<g id="edge10" class="edge">
<title>n12&#45;&gt;n4</title>
<path fill="none" stroke="#64748b" d="M451.36,-178.01C537.58,-176.62 657.48,-171.33 701,-153.2 713.27,-148.09 724.69,-138.97 733.76,-130.18"/>
<polygon fill="#64748b" stroke="#64748b" points="735.42,-131.98 738.59,-125.27 731.93,-128.54 735.42,-131.98"/>
</g>
<!-- n6 -->
<g id="node13" class="node">
<title>n6</title>
<g id="a_node13"><a xlink:href="vscode://vscode-remote/wsl+Ubuntu/home/gavin/statlib/Statlib/Mathlib/Statistics/LeCamThirdLemma.lean:160" xlink:title="structure · Statlib/Mathlib/Statistics/LeCamThirdLemma.lean:160" target="_blank">
<path fill="#e8dcff" stroke="#8b5cf6" d="M905.18,-124C905.18,-124 824.82,-124 824.82,-124 818.82,-124 812.82,-118 812.82,-112 812.82,-112 812.82,-100 812.82,-100 812.82,-94 818.82,-88 824.82,-88 824.82,-88 905.18,-88 905.18,-88 911.18,-88 917.18,-94 917.18,-100 917.18,-100 917.18,-112 917.18,-112 917.18,-118 911.18,-124 905.18,-124"/>
<text xml:space="preserve" text-anchor="middle" x="865" y="-103" font-family="Helvetica,sans-Serif" font-size="10.00">LeCamThirdLemma</text>
</a>
</g>
</g>
<!-- n12&#45;&gt;n6 -->
<g id="edge11" class="edge">
<title>n12&#45;&gt;n6</title>
<path fill="none" stroke="#64748b" d="M451.52,-175.83C573.27,-172.36 771.92,-164.98 804,-153.2 817.84,-148.12 831.14,-138.76 841.77,-129.79"/>
<polygon fill="#64748b" stroke="#64748b" points="843.25,-131.75 846.89,-125.29 840.01,-128.07 843.25,-131.75"/>
</g>
<!-- n5 -->
<g id="node12" class="node">
<title>n5</title>
<g id="a_node12"><a xlink:href="vscode://vscode-remote/wsl+Ubuntu/home/gavin/statlib/Statlib/Mathlib/Statistics/LeCamThirdLemma.lean:86" xlink:title="def · Statlib/Mathlib/Statistics/LeCamThirdLemma.lean:86" target="_blank">
<path fill="#d6e9ff" stroke="#3b82f6" d="M883.23,-52C883.23,-52 846.77,-52 846.77,-52 840.77,-52 834.77,-46 834.77,-40 834.77,-40 834.77,-28 834.77,-28 834.77,-22 840.77,-16 846.77,-16 846.77,-16 883.23,-16 883.23,-16 889.23,-16 895.23,-22 895.23,-28 895.23,-28 895.23,-40 895.23,-40 895.23,-46 889.23,-52 883.23,-52"/>
<text xml:space="preserve" text-anchor="middle" x="865" y="-31" font-family="Helvetica,sans-Serif" font-size="10.00">Contiguity</text>
</a>
</g>
</g>
<!-- n6&#45;&gt;n5 -->
<g id="edge4" class="edge">
<title>n6&#45;&gt;n5</title>
<path fill="none" stroke="#64748b" d="M865,-87.7C865,-79.47 865,-69.48 865,-60.42"/>
<polygon fill="#64748b" stroke="#64748b" points="867.45,-60.62 865,-53.62 862.55,-60.62 867.45,-60.62"/>
</g>
</g>
</svg>
