<?xml version="1.0" encoding="UTF-8" standalone="no"?>
<!DOCTYPE svg PUBLIC "-//W3C//DTD SVG 1.1//EN"
 "http://www.w3.org/Graphics/SVG/1.1/DTD/svg11.dtd">
<!-- Generated by graphviz version 15.0.0 (20260523.1842)
 -->
<!-- Title: coxScoreAt_dim_match Pages: 1 -->
<svg width="906pt" height="626pt"
 viewBox="0.00 0.00 906.00 626.00" xmlns="http://www.w3.org/2000/svg" xmlns:xlink="http://www.w3.org/1999/xlink">
<g id="graph0" class="graph" transform="scale(1 1) rotate(0) translate(4 622)">
<title>coxScoreAt_dim_match</title>
<polygon fill="white" stroke="none" points="-4,4 -4,-622 902,-622 902,4 -4,4"/>
<text xml:space="preserve" text-anchor="middle" x="449" y="-601.4" font-family="Helvetica,sans-Serif" font-size="14.00">Proof narrative — coxScoreAt_dim_match &#160;(19 decls)</text>
<g id="clust1" class="cluster">
<title>cluster_0</title>
<path fill="none" stroke="#cbd5e1" stroke-dasharray="5,2" d="M20,-8C20,-8 878,-8 878,-8 884,-8 890,-14 890,-20 890,-20 890,-573.2 890,-573.2 890,-579.2 884,-585.2 878,-585.2 878,-585.2 20,-585.2 20,-585.2 14,-585.2 8,-579.2 8,-573.2 8,-573.2 8,-20 8,-20 8,-14 14,-8 20,-8"/>
<text xml:space="preserve" text-anchor="middle" x="449" y="-571.3" font-family="Helvetica,sans-Serif" font-size="11.00">CoxChangePoint</text>
</g>
<!-- n0 -->
<g id="node1" class="node">
<title>n0</title>
<g id="a_node1"><a xlink:href="vscode://vscode-remote/wsl+Ubuntu/home/gavin/statlib/Statlib/CoxChangePoint/Foundation.lean:38" xlink:title="structure · Statlib/CoxChangePoint/Foundation.lean:38" target="_blank">
<path fill="#e8dcff" stroke="#8b5cf6" d="M736,-52C736,-52 706,-52 706,-52 700,-52 694,-46 694,-40 694,-40 694,-28 694,-28 694,-22 700,-16 706,-16 706,-16 736,-16 736,-16 742,-16 748,-22 748,-28 748,-28 748,-40 748,-40 748,-46 742,-52 736,-52"/>
<text xml:space="preserve" text-anchor="middle" x="721" y="-31" font-family="Helvetica,sans-Serif" font-size="10.00">CoxObs</text>
</a>
</g>
</g>
<!-- n1 -->
<g id="node2" class="node">
<title>n1</title>
<g id="a_node2"><a xlink:href="vscode://vscode-remote/wsl+Ubuntu/home/gavin/statlib/Statlib/CoxChangePoint/Foundation.lean:57" xlink:title="structure · Statlib/CoxChangePoint/Foundation.lean:57" target="_blank">
<path fill="#e8dcff" stroke="#8b5cf6" d="M186.62,-52C186.62,-52 147.38,-52 147.38,-52 141.38,-52 135.38,-46 135.38,-40 135.38,-40 135.38,-28 135.38,-28 135.38,-22 141.38,-16 147.38,-16 147.38,-16 186.62,-16 186.62,-16 192.62,-16 198.62,-22 198.62,-28 198.62,-28 198.62,-40 198.62,-40 198.62,-46 192.62,-52 186.62,-52"/>
<text xml:space="preserve" text-anchor="middle" x="167" y="-31" font-family="Helvetica,sans-Serif" font-size="10.00">CoxParam</text>
</a>
</g>
</g>
<!-- n2 -->
<g id="node3" class="node">
<title>n2</title>
<g id="a_node3"><a xlink:href="vscode://vscode-remote/wsl+Ubuntu/home/gavin/statlib/Statlib/CoxChangePoint/Foundation.lean:89" xlink:title="noncomputable def · Statlib/CoxChangePoint/Foundation.lean:89" target="_blank">
<path fill="#d6e9ff" stroke="#3b82f6" d="M667,-196C667,-196 637,-196 637,-196 631,-196 625,-190 625,-184 625,-184 625,-172 625,-172 625,-166 631,-160 637,-160 637,-160 667,-160 667,-160 673,-160 679,-166 679,-172 679,-172 679,-184 679,-184 679,-190 673,-196 667,-196"/>
<text xml:space="preserve" text-anchor="middle" x="652" y="-175" font-family="Helvetica,sans-Serif" font-size="10.00">atRisk</text>
</a>
</g>
</g>
<!-- n2&#45;&gt;n0 -->
<g id="edge1" class="edge">
<title>n2&#45;&gt;n0</title>
<path fill="none" stroke="#64748b" d="M675.63,-159.62C686.59,-150.29 698.77,-137.86 706,-124 716.26,-104.33 719.76,-79.2 720.84,-60.66"/>
<polygon fill="#64748b" stroke="#64748b" points="723.28,-61 721.12,-53.91 718.38,-60.8 723.28,-61"/>
</g>
<!-- n3 -->
<g id="node4" class="node">
<title>n3</title>
<g id="a_node4"><a xlink:href="vscode://vscode-remote/wsl+Ubuntu/home/gavin/statlib/Statlib/CoxChangePoint/Foundation.lean:68" xlink:title="noncomputable def · Statlib/CoxChangePoint/Foundation.lean:68" target="_blank">
<path fill="#d6e9ff" stroke="#3b82f6" d="M650,-124C650,-124 620,-124 620,-124 614,-124 608,-118 608,-112 608,-112 608,-100 608,-100 608,-94 614,-88 620,-88 620,-88 650,-88 650,-88 656,-88 662,-94 662,-100 662,-100 662,-112 662,-112 662,-118 656,-124 650,-124"/>
<text xml:space="preserve" text-anchor="middle" x="635" y="-103" font-family="Helvetica,sans-Serif" font-size="10.00">g</text>
</a>
</g>
</g>
<!-- n3&#45;&gt;n0 -->
<g id="edge3" class="edge">
<title>n3&#45;&gt;n0</title>
<path fill="none" stroke="#64748b" d="M656.26,-87.7C667.42,-78.61 681.24,-67.36 693.24,-57.6"/>
<polygon fill="#64748b" stroke="#64748b" points="694.63,-59.62 698.51,-53.3 691.54,-55.82 694.63,-59.62"/>
</g>
<!-- n3&#45;&gt;n1 -->
<g id="edge2" class="edge">
<title>n3&#45;&gt;n1</title>
<path fill="none" stroke="#64748b" d="M607.56,-92.44C603.1,-90.74 598.47,-89.18 594,-88 455.09,-51.3 283.88,-39.83 207.31,-36.39"/>
<polygon fill="#64748b" stroke="#64748b" points="207.5,-33.95 200.4,-36.1 207.29,-38.85 207.5,-33.95"/>
</g>
<!-- n4 -->
<g id="node5" class="node">
<title>n4</title>
<g id="a_node5"><a xlink:href="vscode://vscode-remote/wsl+Ubuntu/home/gavin/statlib/Statlib/CoxChangePoint/Foundation.lean:75" xlink:title="noncomputable def · Statlib/CoxChangePoint/Foundation.lean:75" target="_blank">
<path fill="#d6e9ff" stroke="#3b82f6" d="M575,-196C575,-196 545,-196 545,-196 539,-196 533,-190 533,-184 533,-184 533,-172 533,-172 533,-166 539,-160 545,-160 545,-160 575,-160 575,-160 581,-160 587,-166 587,-172 587,-172 587,-184 587,-184 587,-190 581,-196 575,-196"/>
<text xml:space="preserve" text-anchor="middle" x="560" y="-175" font-family="Helvetica,sans-Serif" font-size="10.00">expG</text>
</a>
</g>
</g>
<!-- n4&#45;&gt;n0 -->
<g id="edge5" class="edge">
<title>n4&#45;&gt;n0</title>
<path fill="none" stroke="#64748b" d="M587.46,-164.93C618.15,-151.29 664.41,-130.16 671,-124 681.29,-114.37 698.09,-82.36 709.34,-59.49"/>
<polygon fill="#64748b" stroke="#64748b" points="711.4,-60.86 712.26,-53.49 706.99,-58.71 711.4,-60.86"/>
</g>
<!-- n4&#45;&gt;n1 -->
<g id="edge4" class="edge">
<title>n4&#45;&gt;n1</title>
<path fill="none" stroke="#64748b" d="M556.14,-159.82C550.57,-139.23 538.16,-105.35 514,-88 465.52,-53.19 288.1,-40.62 207.42,-36.64"/>
<polygon fill="#64748b" stroke="#64748b" points="207.62,-34.19 200.51,-36.31 207.39,-39.09 207.62,-34.19"/>
</g>
<!-- n4&#45;&gt;n3 -->
<g id="edge6" class="edge">
<title>n4&#45;&gt;n3</title>
<path fill="none" stroke="#64748b" d="M578.54,-159.7C588.09,-150.78 599.88,-139.78 610.21,-130.14"/>
<polygon fill="#64748b" stroke="#64748b" points="611.86,-131.95 615.31,-125.38 608.52,-128.36 611.86,-131.95"/>
</g>
<!-- n5 -->
<g id="node6" class="node">
<title>n5</title>
<g id="a_node6"><a xlink:href="vscode://vscode-remote/wsl+Ubuntu/home/gavin/statlib/Statlib/CoxChangePoint/Foundation.lean:93" xlink:title="noncomputable def · Statlib/CoxChangePoint/Foundation.lean:93" target="_blank">
<path fill="#d6e9ff" stroke="#3b82f6" d="M623,-268C623,-268 593,-268 593,-268 587,-268 581,-262 581,-256 581,-256 581,-244 581,-244 581,-238 587,-232 593,-232 593,-232 623,-232 623,-232 629,-232 635,-238 635,-244 635,-244 635,-256 635,-256 635,-262 629,-268 623,-268"/>
<text xml:space="preserve" text-anchor="middle" x="608" y="-247" font-family="Helvetica,sans-Serif" font-size="10.00">riskSum</text>
</a>
</g>
</g>
<!-- n5&#45;&gt;n0 -->
<g id="edge7" class="edge">
<title>n5&#45;&gt;n0</title>
<path fill="none" stroke="#64748b" d="M635.19,-236.35C652.31,-227.21 673.78,-213.43 688,-196 719.84,-156.97 723.46,-95.21 722.64,-60.62"/>
<polygon fill="#64748b" stroke="#64748b" points="725.1,-60.87 722.4,-53.96 720.2,-61.04 725.1,-60.87"/>
</g>
<!-- n5&#45;&gt;n1 -->
<g id="edge8" class="edge">
<title>n5&#45;&gt;n1</title>
<path fill="none" stroke="#64748b" d="M580.59,-234.11C559.39,-222.16 532.29,-205.81 524,-196 490.45,-156.27 519.69,-120.38 479,-88 437.6,-55.06 281.93,-41.69 207.34,-37.08"/>
<polygon fill="#64748b" stroke="#64748b" points="207.73,-34.65 200.6,-36.68 207.44,-39.54 207.73,-34.65"/>
</g>
<!-- n5&#45;&gt;n2 -->
<g id="edge9" class="edge">
<title>n5&#45;&gt;n2</title>
<path fill="none" stroke="#64748b" d="M618.88,-231.7C624.26,-223.14 630.84,-212.66 636.72,-203.3"/>
<polygon fill="#64748b" stroke="#64748b" points="638.79,-204.62 640.44,-197.39 634.64,-202.01 638.79,-204.62"/>
</g>
<!-- n5&#45;&gt;n4 -->
<g id="edge10" class="edge">
<title>n5&#45;&gt;n4</title>
<path fill="none" stroke="#64748b" d="M596.13,-231.7C590.21,-223.05 582.94,-212.45 576.48,-203.03"/>
<polygon fill="#64748b" stroke="#64748b" points="578.56,-201.74 572.58,-197.35 574.52,-204.51 578.56,-201.74"/>
</g>
<!-- n6 -->
<g id="node7" class="node">
<title>n6</title>
<g id="a_node7"><a xlink:href="vscode://vscode-remote/wsl+Ubuntu/home/gavin/statlib/Statlib/CoxChangePoint/Score.lean:74" xlink:title="noncomputable def · Statlib/CoxChangePoint/Score.lean:74" target="_blank">
<path fill="#d6e9ff" stroke="#3b82f6" d="M741.23,-268C741.23,-268 664.77,-268 664.77,-268 658.77,-268 652.77,-262 652.77,-256 652.77,-256 652.77,-244 652.77,-244 652.77,-238 658.77,-232 664.77,-232 664.77,-232 741.23,-232 741.23,-232 747.23,-232 753.23,-238 753.23,-244 753.23,-244 753.23,-256 753.23,-256 753.23,-262 747.23,-268 741.23,-268"/>
<text xml:space="preserve" text-anchor="middle" x="703" y="-247" font-family="Helvetica,sans-Serif" font-size="10.00">riskSumWeightedZ</text>
</a>
</g>
</g>
<!-- n6&#45;&gt;n0 -->
<g id="edge11" class="edge">
<title>n6&#45;&gt;n0</title>
<path fill="none" stroke="#64748b" d="M722.04,-231.84C731.18,-222.3 741.17,-209.62 746,-196 762.04,-150.76 756.49,-134.84 746,-88 743.85,-78.42 739.78,-68.54 735.53,-59.94"/>
<polygon fill="#64748b" stroke="#64748b" points="737.73,-58.86 732.32,-53.79 733.38,-61.13 737.73,-58.86"/>
</g>
<!-- n6&#45;&gt;n1 -->
<g id="edge12" class="edge">
<title>n6&#45;&gt;n1</title>
<path fill="none" stroke="#64748b" d="M704.76,-231.61C705.78,-212.06 704.39,-180.4 688,-160 661.28,-126.73 637.57,-142.25 599,-124 568.8,-109.71 564.7,-98.56 533,-88 418.8,-49.95 275.57,-39.21 207.08,-36.18"/>
<polygon fill="#64748b" stroke="#64748b" points="207.32,-33.74 200.22,-35.9 207.11,-38.64 207.32,-33.74"/>
</g>
<!-- n6&#45;&gt;n2 -->
<g id="edge13" class="edge">
<title>n6&#45;&gt;n2</title>
<path fill="none" stroke="#64748b" d="M690.39,-231.7C684.03,-222.97 676.22,-212.24 669.3,-202.75"/>
<polygon fill="#64748b" stroke="#64748b" points="671.46,-201.54 665.35,-197.33 667.49,-204.43 671.46,-201.54"/>
</g>
<!-- n6&#45;&gt;n4 -->
<g id="edge14" class="edge">
<title>n6&#45;&gt;n4</title>
<path fill="none" stroke="#64748b" d="M667.28,-231.52C645.08,-220.65 616.68,-206.75 594.68,-195.98"/>
<polygon fill="#64748b" stroke="#64748b" points="595.91,-193.85 588.54,-192.97 593.75,-198.25 595.91,-193.85"/>
</g>
<!-- n7 -->
<g id="node8" class="node">
<title>n7</title>
<g id="a_node8"><a xlink:href="vscode://vscode-remote/wsl+Ubuntu/home/gavin/statlib/Statlib/CoxChangePoint/Score.lean:102" xlink:title="noncomputable def · Statlib/CoxChangePoint/Score.lean:102" target="_blank">
<path fill="#d6e9ff" stroke="#3b82f6" d="M623,-340C623,-340 593,-340 593,-340 587,-340 581,-334 581,-328 581,-328 581,-316 581,-316 581,-310 587,-304 593,-304 593,-304 623,-304 623,-304 629,-304 635,-310 635,-316 635,-316 635,-328 635,-328 635,-334 629,-340 623,-340"/>
<text xml:space="preserve" text-anchor="middle" x="608" y="-319" font-family="Helvetica,sans-Serif" font-size="10.00">meanZ</text>
</a>
</g>
</g>
<!-- n7&#45;&gt;n0 -->
<g id="edge15" class="edge">
<title>n7&#45;&gt;n0</title>
<path fill="none" stroke="#64748b" d="M635.17,-316.91C680.38,-309.49 767.88,-292.3 786,-268 809.91,-235.93 803.16,-124.13 786,-88 779.42,-74.15 767.25,-62.72 755.21,-54.07"/>
<polygon fill="#64748b" stroke="#64748b" points="756.59,-52.05 749.43,-50.15 753.84,-56.11 756.59,-52.05"/>
</g>
<!-- n7&#45;&gt;n1 -->
<g id="edge16" class="edge">
<title>n7&#45;&gt;n1</title>
<path fill="none" stroke="#64748b" d="M580.56,-308.45C576.1,-306.75 571.47,-305.19 567,-304 443.6,-271.26 393.99,-329.31 282,-268 210.64,-228.94 195.25,-201 169,-124 162.02,-103.51 162.08,-78.79 163.56,-60.61"/>
<polygon fill="#64748b" stroke="#64748b" points="165.99,-60.97 164.23,-53.77 161.11,-60.5 165.99,-60.97"/>
</g>
<!-- n7&#45;&gt;n5 -->
<g id="edge17" class="edge">
<title>n7&#45;&gt;n5</title>
<path fill="none" stroke="#64748b" d="M608,-303.7C608,-295.47 608,-285.48 608,-276.42"/>
<polygon fill="#64748b" stroke="#64748b" points="610.45,-276.62 608,-269.62 605.55,-276.62 610.45,-276.62"/>
</g>
<!-- n7&#45;&gt;n6 -->
<g id="edge18" class="edge">
<title>n7&#45;&gt;n6</title>
<path fill="none" stroke="#64748b" d="M631.48,-303.7C643.93,-294.53 659.36,-283.16 672.7,-273.33"/>
<polygon fill="#64748b" stroke="#64748b" points="674.06,-275.37 678.24,-269.24 671.15,-271.42 674.06,-275.37"/>
</g>
<!-- n8 -->
<g id="node9" class="node">
<title>n8</title>
<g id="a_node9"><a xlink:href="vscode://vscode-remote/wsl+Ubuntu/home/gavin/statlib/Statlib/CoxChangePoint/Score.lean:137" xlink:title="noncomputable def · Statlib/CoxChangePoint/Score.lean:137" target="_blank">
<path fill="#d6e9ff" stroke="#3b82f6" d="M522.46,-412C522.46,-412 441.54,-412 441.54,-412 435.54,-412 429.54,-406 429.54,-400 429.54,-400 429.54,-388 429.54,-388 429.54,-382 435.54,-376 441.54,-376 441.54,-376 522.46,-376 522.46,-376 528.46,-376 534.46,-382 534.46,-388 534.46,-388 534.46,-400 534.46,-400 534.46,-406 528.46,-412 522.46,-412"/>
<text xml:space="preserve" text-anchor="middle" x="482" y="-391" font-family="Helvetica,sans-Serif" font-size="10.00">partialScoreGamma</text>
</a>
</g>
</g>
<!-- n8&#45;&gt;n0 -->
<g id="edge19" class="edge">
<title>n8&#45;&gt;n0</title>
<path fill="none" stroke="#64748b" d="M534.73,-392.17C620.76,-389.66 785.77,-379.67 826,-340 854.56,-311.84 841,-291.11 841,-251 841,-251 841,-251 841,-177 841,-136.89 849.8,-120.29 826,-88 809.2,-65.21 779.8,-51.56 756.37,-43.83"/>
<polygon fill="#64748b" stroke="#64748b" points="757.22,-41.53 749.81,-41.79 755.77,-46.21 757.22,-41.53"/>
</g>
<!-- n8&#45;&gt;n1 -->
<g id="edge20" class="edge">
<title>n8&#45;&gt;n1</title>
<path fill="none" stroke="#64748b" d="M429.05,-388.71C357.56,-379.75 232.52,-352.24 175,-268 129.31,-201.08 130.81,-167.59 146,-88 147.82,-78.47 151.32,-68.47 154.95,-59.76"/>
<polygon fill="#64748b" stroke="#64748b" points="157.11,-60.95 157.67,-53.55 152.62,-58.98 157.11,-60.95"/>
</g>
<!-- n8&#45;&gt;n7 -->
<g id="edge21" class="edge">
<title>n8&#45;&gt;n7</title>
<path fill="none" stroke="#64748b" d="M513.47,-375.52C531.75,-365.36 554.79,-352.56 573.55,-342.14"/>
<polygon fill="#64748b" stroke="#64748b" points="574.52,-344.4 579.45,-338.86 572.14,-340.12 574.52,-344.4"/>
</g>
<!-- n9 -->
<g id="node10" class="node">
<title>n9</title>
<g id="a_node10"><a xlink:href="vscode://vscode-remote/wsl+Ubuntu/home/gavin/statlib/Statlib/CoxChangePoint/Score.lean:57" xlink:title="noncomputable def · Statlib/CoxChangePoint/Score.lean:57" target="_blank">
<path fill="#d6e9ff" stroke="#3b82f6" d="M458.26,-124C458.26,-124 361.74,-124 361.74,-124 355.74,-124 349.74,-118 349.74,-112 349.74,-112 349.74,-100 349.74,-100 349.74,-94 355.74,-88 361.74,-88 361.74,-88 458.26,-88 458.26,-88 464.26,-88 470.26,-94 470.26,-100 470.26,-100 470.26,-112 470.26,-112 470.26,-118 464.26,-124 458.26,-124"/>
<text xml:space="preserve" text-anchor="middle" x="410" y="-103" font-family="Helvetica,sans-Serif" font-size="10.00">alphaScoreContribution</text>
</a>
</g>
</g>
<!-- n9&#45;&gt;n0 -->
<g id="edge23" class="edge">
<title>n9&#45;&gt;n0</title>
<path fill="none" stroke="#64748b" d="M470.57,-91.06C475.11,-90.02 479.63,-88.99 484,-88 555.42,-71.81 639.02,-53.19 685.4,-42.89"/>
<polygon fill="#64748b" stroke="#64748b" points="685.84,-45.31 692.14,-41.4 684.78,-40.52 685.84,-45.31"/>
</g>
<!-- n9&#45;&gt;n1 -->
<g id="edge22" class="edge">
<title>n9&#45;&gt;n1</title>
<path fill="none" stroke="#64748b" d="M349.31,-87.52C304.82,-74.7 245.67,-57.66 206.99,-46.52"/>
<polygon fill="#64748b" stroke="#64748b" points="207.91,-44.24 200.51,-44.65 206.56,-48.94 207.91,-44.24"/>
</g>
<!-- n10 -->
<g id="node11" class="node">
<title>n10</title>
<g id="a_node11"><a xlink:href="vscode://vscode-remote/wsl+Ubuntu/home/gavin/statlib/Statlib/CoxChangePoint/Score.lean:80" xlink:title="noncomputable def · Statlib/CoxChangePoint/Score.lean:80" target="_blank">
<path fill="#d6e9ff" stroke="#3b82f6" d="M550.97,-268C550.97,-268 455.03,-268 455.03,-268 449.03,-268 443.03,-262 443.03,-256 443.03,-256 443.03,-244 443.03,-244 443.03,-238 449.03,-232 455.03,-232 455.03,-232 550.97,-232 550.97,-232 556.97,-232 562.97,-238 562.97,-244 562.97,-244 562.97,-256 562.97,-256 562.97,-262 556.97,-268 550.97,-268"/>
<text xml:space="preserve" text-anchor="middle" x="503" y="-247" font-family="Helvetica,sans-Serif" font-size="10.00">riskSumWeightedAlpha</text>
</a>
</g>
</g>
<!-- n10&#45;&gt;n0 -->
<g id="edge24" class="edge">
<title>n10&#45;&gt;n0</title>
<path fill="none" stroke="#64748b" d="M544.28,-231.6C561.73,-222.79 581.36,-210.8 596,-196 608.87,-182.99 602.78,-172.66 616,-160 641.84,-135.26 664.11,-150.63 688,-124 696.62,-114.39 707.06,-83.18 713.85,-60.42"/>
<polygon fill="#64748b" stroke="#64748b" points="716.14,-61.34 715.76,-53.93 711.44,-59.96 716.14,-61.34"/>
</g>
<!-- n10&#45;&gt;n1 -->
<g id="edge25" class="edge">
<title>n10&#45;&gt;n1</title>
<path fill="none" stroke="#64748b" d="M473.77,-231.66C438.9,-209.88 380.38,-169.78 341,-124 329.06,-110.12 335.03,-99.76 321,-88 288.34,-60.62 240.75,-47.11 207.14,-40.63"/>
<polygon fill="#64748b" stroke="#64748b" points="207.73,-38.24 200.4,-39.4 206.85,-43.07 207.73,-38.24"/>
</g>
<!-- n10&#45;&gt;n2 -->
<g id="edge26" class="edge">
<title>n10&#45;&gt;n2</title>
<path fill="none" stroke="#64748b" d="M540.21,-231.52C563.76,-220.46 593.99,-206.25 617.08,-195.4"/>
<polygon fill="#64748b" stroke="#64748b" points="617.95,-197.7 623.25,-192.51 615.87,-193.27 617.95,-197.7"/>
</g>
<!-- n10&#45;&gt;n4 -->
<g id="edge27" class="edge">
<title>n10&#45;&gt;n4</title>
<path fill="none" stroke="#64748b" d="M517.09,-231.7C524.27,-222.88 533.1,-212.03 540.89,-202.47"/>
<polygon fill="#64748b" stroke="#64748b" points="542.6,-204.25 545.12,-197.28 538.8,-201.16 542.6,-204.25"/>
</g>
<!-- n10&#45;&gt;n9 -->
<g id="edge28" class="edge">
<title>n10&#45;&gt;n9</title>
<path fill="none" stroke="#64748b" d="M491.6,-231.59C475.05,-206.33 444.34,-159.43 425.68,-130.93"/>
<polygon fill="#64748b" stroke="#64748b" points="427.92,-129.89 422.04,-125.38 423.82,-132.58 427.92,-129.89"/>
</g>
<!-- n11 -->
<g id="node12" class="node">
<title>n11</title>
<g id="a_node12"><a xlink:href="vscode://vscode-remote/wsl+Ubuntu/home/gavin/statlib/Statlib/CoxChangePoint/Score.lean:110" xlink:title="noncomputable def · Statlib/CoxChangePoint/Score.lean:110" target="_blank">
<path fill="#d6e9ff" stroke="#3b82f6" d="M545.69,-340C545.69,-340 460.31,-340 460.31,-340 454.31,-340 448.31,-334 448.31,-328 448.31,-328 448.31,-316 448.31,-316 448.31,-310 454.31,-304 460.31,-304 460.31,-304 545.69,-304 545.69,-304 551.69,-304 557.69,-310 557.69,-316 557.69,-316 557.69,-328 557.69,-328 557.69,-334 551.69,-340 545.69,-340"/>
<text xml:space="preserve" text-anchor="middle" x="503" y="-319" font-family="Helvetica,sans-Serif" font-size="10.00">meanAlphaInRiskSet</text>
</a>
</g>
</g>
<!-- n11&#45;&gt;n0 -->
<g id="edge29" class="edge">
<title>n11&#45;&gt;n0</title>
<path fill="none" stroke="#64748b" d="M557.92,-307.18C562.68,-306.07 567.42,-305 572,-304 613.99,-294.86 734.59,-301.09 762,-268 777.7,-249.05 807.75,-252.96 755,-88 751.77,-77.91 746.12,-67.87 740.34,-59.28"/>
<polygon fill="#64748b" stroke="#64748b" points="742.42,-57.98 736.38,-53.68 738.42,-60.81 742.42,-57.98"/>
</g>
<!-- n11&#45;&gt;n1 -->
<g id="edge30" class="edge">
<title>n11&#45;&gt;n1</title>
<path fill="none" stroke="#64748b" d="M447.99,-311.02C363.72,-295.73 212.29,-268.23 212,-268 158,-224.51 165.6,-191.99 152,-124 147.71,-102.55 152.56,-78.02 157.86,-60.16"/>
<polygon fill="#64748b" stroke="#64748b" points="160.06,-61.31 159.84,-53.9 155.39,-59.83 160.06,-61.31"/>
</g>
<!-- n11&#45;&gt;n5 -->
<g id="edge31" class="edge">
<title>n11&#45;&gt;n5</title>
<path fill="none" stroke="#64748b" d="M529.23,-303.52C543.11,-294.26 560.3,-282.8 575.07,-272.95"/>
<polygon fill="#64748b" stroke="#64748b" points="576.38,-275.02 580.85,-269.1 573.67,-270.94 576.38,-275.02"/>
</g>
<!-- n11&#45;&gt;n10 -->
<g id="edge32" class="edge">
<title>n11&#45;&gt;n10</title>
<path fill="none" stroke="#64748b" d="M503,-303.7C503,-295.47 503,-285.48 503,-276.42"/>
<polygon fill="#64748b" stroke="#64748b" points="505.45,-276.62 503,-269.62 500.55,-276.62 505.45,-276.62"/>
</g>
<!-- n12 -->
<g id="node13" class="node">
<title>n12</title>
<g id="a_node13"><a xlink:href="vscode://vscode-remote/wsl+Ubuntu/home/gavin/statlib/Statlib/CoxChangePoint/Score.lean:148" xlink:title="noncomputable def · Statlib/CoxChangePoint/Score.lean:148" target="_blank">
<path fill="#d6e9ff" stroke="#3b82f6" d="M336.47,-412C336.47,-412 265.53,-412 265.53,-412 259.53,-412 253.53,-406 253.53,-400 253.53,-400 253.53,-388 253.53,-388 253.53,-382 259.53,-376 265.53,-376 265.53,-376 336.47,-376 336.47,-376 342.47,-376 348.47,-382 348.47,-388 348.47,-388 348.47,-400 348.47,-400 348.47,-406 342.47,-412 336.47,-412"/>
<text xml:space="preserve" text-anchor="middle" x="301" y="-391" font-family="Helvetica,sans-Serif" font-size="10.00">partialScoreAlpha</text>
</a>
</g>
</g>
<!-- n12&#45;&gt;n0 -->
<g id="edge33" class="edge">
<title>n12&#45;&gt;n0</title>
<path fill="none" stroke="#64748b" d="M348.8,-385.98C439.76,-372.58 630.01,-344.28 644,-340 728.21,-314.27 821,-339.05 821,-251 821,-251 821,-251 821,-177 821,-135.91 819.7,-121.56 796,-88 785.57,-73.22 769.66,-61.14 755.17,-52.26"/>
<polygon fill="#64748b" stroke="#64748b" points="756.78,-50.36 749.5,-48.92 754.29,-54.59 756.78,-50.36"/>
</g>
<!-- n12&#45;&gt;n1 -->
<g id="edge34" class="edge">
<title>n12&#45;&gt;n1</title>
<path fill="none" stroke="#64748b" d="M253.1,-387.92C220.11,-381.89 177.74,-368.73 152,-340 75.93,-255.07 55.88,-191.36 104,-88 109.59,-75.99 119.39,-65.73 129.62,-57.52"/>
<polygon fill="#64748b" stroke="#64748b" points="131.05,-59.52 135.16,-53.34 128.1,-55.6 131.05,-59.52"/>
</g>
<!-- n12&#45;&gt;n9 -->
<g id="edge35" class="edge">
<title>n12&#45;&gt;n9</title>
<path fill="none" stroke="#64748b" d="M293.53,-375.76C281.55,-345.42 261.35,-281.02 282,-232 300.72,-187.56 343.81,-151.04 374.83,-129.19"/>
<polygon fill="#64748b" stroke="#64748b" points="376.03,-131.34 380.4,-125.35 373.25,-127.31 376.03,-131.34"/>
</g>
<!-- n12&#45;&gt;n11 -->
<g id="edge36" class="edge">
<title>n12&#45;&gt;n11</title>
<path fill="none" stroke="#64748b" d="M348.87,-376.41C377.57,-366.46 414.28,-353.75 444.67,-343.21"/>
<polygon fill="#64748b" stroke="#64748b" points="445.41,-345.55 451.22,-340.94 443.81,-340.92 445.41,-345.55"/>
</g>
<!-- n13 -->
<g id="node14" class="node">
<title>n13</title>
<g id="a_node14"><a xlink:href="vscode://vscode-remote/wsl+Ubuntu/home/gavin/statlib/Statlib/CoxChangePoint/Score.lean:63" xlink:title="noncomputable def · Statlib/CoxChangePoint/Score.lean:63" target="_blank">
<path fill="#d6e9ff" stroke="#3b82f6" d="M299.75,-124C299.75,-124 208.25,-124 208.25,-124 202.25,-124 196.25,-118 196.25,-112 196.25,-112 196.25,-100 196.25,-100 196.25,-94 202.25,-88 208.25,-88 208.25,-88 299.75,-88 299.75,-88 305.75,-88 311.75,-94 311.75,-100 311.75,-100 311.75,-112 311.75,-112 311.75,-118 305.75,-124 299.75,-124"/>
<text xml:space="preserve" text-anchor="middle" x="254" y="-103" font-family="Helvetica,sans-Serif" font-size="10.00">betaScoreContribution</text>
</a>
</g>
</g>
<!-- n13&#45;&gt;n0 -->
<g id="edge38" class="edge">
<title>n13&#45;&gt;n0</title>
<path fill="none" stroke="#64748b" d="M311.95,-93.22C321.63,-91.38 331.59,-89.57 341,-88 467.32,-66.87 618.25,-47.58 685.57,-39.29"/>
<polygon fill="#64748b" stroke="#64748b" points="685.58,-41.75 692.23,-38.47 684.99,-36.89 685.58,-41.75"/>
</g>
<!-- n13&#45;&gt;n1 -->
<g id="edge37" class="edge">
<title>n13&#45;&gt;n1</title>
<path fill="none" stroke="#64748b" d="M232.49,-87.7C221.2,-78.61 207.22,-67.36 195.09,-57.6"/>
<polygon fill="#64748b" stroke="#64748b" points="196.73,-55.78 189.74,-53.3 193.66,-59.59 196.73,-55.78"/>
</g>
<!-- n14 -->
<g id="node15" class="node">
<title>n14</title>
<g id="a_node15"><a xlink:href="vscode://vscode-remote/wsl+Ubuntu/home/gavin/statlib/Statlib/CoxChangePoint/Score.lean:87" xlink:title="noncomputable def · Statlib/CoxChangePoint/Score.lean:87" target="_blank">
<path fill="#d6e9ff" stroke="#3b82f6" d="M393.47,-268C393.47,-268 302.53,-268 302.53,-268 296.53,-268 290.53,-262 290.53,-256 290.53,-256 290.53,-244 290.53,-244 290.53,-238 296.53,-232 302.53,-232 302.53,-232 393.47,-232 393.47,-232 399.47,-232 405.47,-238 405.47,-244 405.47,-244 405.47,-256 405.47,-256 405.47,-262 399.47,-268 393.47,-268"/>
<text xml:space="preserve" text-anchor="middle" x="348" y="-247" font-family="Helvetica,sans-Serif" font-size="10.00">riskSumWeightedBeta</text>
</a>
</g>
</g>
<!-- n14&#45;&gt;n0 -->
<g id="edge39" class="edge">
<title>n14&#45;&gt;n0</title>
<path fill="none" stroke="#64748b" d="M367.58,-231.59C388.65,-213.14 423.38,-183.48 455,-160 501.61,-125.38 511.84,-113.5 564,-88 604.15,-68.38 653.38,-53.05 685.89,-44.04"/>
<polygon fill="#64748b" stroke="#64748b" points="686.21,-46.49 692.32,-42.28 684.92,-41.76 686.21,-46.49"/>
</g>
<!-- n14&#45;&gt;n1 -->
<g id="edge40" class="edge">
<title>n14&#45;&gt;n1</title>
<path fill="none" stroke="#64748b" d="M321.43,-231.64C280.4,-204.32 204.5,-151.56 187,-124 174.91,-104.96 170.08,-79.55 168.18,-60.76"/>
<polygon fill="#64748b" stroke="#64748b" points="170.63,-60.66 167.6,-53.89 165.74,-61.07 170.63,-60.66"/>
</g>
<!-- n14&#45;&gt;n2 -->
<g id="edge41" class="edge">
<title>n14&#45;&gt;n2</title>
<path fill="none" stroke="#64748b" d="M405.84,-237.23C467.41,-224.59 560.72,-205.11 596,-196 602.72,-194.27 609.84,-192.25 616.66,-190.22"/>
<polygon fill="#64748b" stroke="#64748b" points="617.06,-192.66 623.05,-188.29 615.64,-187.97 617.06,-192.66"/>
</g>
<!-- n14&#45;&gt;n4 -->
<g id="edge42" class="edge">
<title>n14&#45;&gt;n4</title>
<path fill="none" stroke="#64748b" d="M400.95,-231.52C439.67,-218.73 491.11,-201.75 524.86,-190.6"/>
<polygon fill="#64748b" stroke="#64748b" points="525.31,-193.04 531.18,-188.51 523.77,-188.38 525.31,-193.04"/>
</g>
<!-- n14&#45;&gt;n13 -->
<g id="edge43" class="edge">
<title>n14&#45;&gt;n13</title>
<path fill="none" stroke="#64748b" d="M336.47,-231.59C319.75,-206.33 288.71,-159.43 269.84,-130.93"/>
<polygon fill="#64748b" stroke="#64748b" points="272.07,-129.86 266.16,-125.37 267.98,-132.56 272.07,-129.86"/>
</g>
<!-- n15 -->
<g id="node16" class="node">
<title>n15</title>
<g id="a_node16"><a xlink:href="vscode://vscode-remote/wsl+Ubuntu/home/gavin/statlib/Statlib/CoxChangePoint/Score.lean:118" xlink:title="noncomputable def · Statlib/CoxChangePoint/Score.lean:118" target="_blank">
<path fill="#d6e9ff" stroke="#3b82f6" d="M388.19,-340C388.19,-340 307.81,-340 307.81,-340 301.81,-340 295.81,-334 295.81,-328 295.81,-328 295.81,-316 295.81,-316 295.81,-310 301.81,-304 307.81,-304 307.81,-304 388.19,-304 388.19,-304 394.19,-304 400.19,-310 400.19,-316 400.19,-316 400.19,-328 400.19,-328 400.19,-334 394.19,-340 388.19,-340"/>
<text xml:space="preserve" text-anchor="middle" x="348" y="-319" font-family="Helvetica,sans-Serif" font-size="10.00">meanBetaInRiskSet</text>
</a>
</g>
</g>
<!-- n15&#45;&gt;n0 -->
<g id="edge44" class="edge">
<title>n15&#45;&gt;n0</title>
<path fill="none" stroke="#64748b" d="M374.14,-303.67C387.16,-294.18 402.54,-281.59 414,-268 425.8,-254.01 422.49,-246.23 434,-232 495.22,-156.33 516.72,-140.01 599,-88 626.48,-70.63 660.62,-56.34 685.8,-46.99"/>
<polygon fill="#64748b" stroke="#64748b" points="686.48,-49.35 692.21,-44.65 684.8,-44.75 686.48,-49.35"/>
</g>
<!-- n15&#45;&gt;n1 -->
<g id="edge45" class="edge">
<title>n15&#45;&gt;n1</title>
<path fill="none" stroke="#64748b" d="M295.53,-313.1C262.79,-305.93 221.42,-292.56 192,-268 135.8,-221.08 130.36,-194.87 112,-124 107.99,-108.51 105.74,-102.72 112,-88 116.93,-76.4 125.78,-66.11 134.97,-57.75"/>
<polygon fill="#64748b" stroke="#64748b" points="136.47,-59.69 140.18,-53.27 133.28,-55.97 136.47,-59.69"/>
</g>
<!-- n15&#45;&gt;n5 -->
<g id="edge46" class="edge">
<title>n15&#45;&gt;n5</title>
<path fill="none" stroke="#64748b" d="M400.48,-311.8C446.45,-302.99 514.67,-288.07 572,-268 572.27,-267.91 572.54,-267.81 572.81,-267.71"/>
<polygon fill="#64748b" stroke="#64748b" points="573.7,-269.99 579.32,-265.15 571.91,-265.43 573.7,-269.99"/>
</g>
<!-- n15&#45;&gt;n14 -->
<g id="edge47" class="edge">
<title>n15&#45;&gt;n14</title>
<path fill="none" stroke="#64748b" d="M348,-303.7C348,-295.47 348,-285.48 348,-276.42"/>
<polygon fill="#64748b" stroke="#64748b" points="350.45,-276.62 348,-269.62 345.55,-276.62 350.45,-276.62"/>
</g>
<!-- n16 -->
<g id="node17" class="node">
<title>n16</title>
<g id="a_node17"><a xlink:href="vscode://vscode-remote/wsl+Ubuntu/home/gavin/statlib/Statlib/CoxChangePoint/Score.lean:160" xlink:title="noncomputable def · Statlib/CoxChangePoint/Score.lean:160" target="_blank">
<path fill="#d6e9ff" stroke="#3b82f6" d="M169.97,-412C169.97,-412 104.03,-412 104.03,-412 98.03,-412 92.03,-406 92.03,-400 92.03,-400 92.03,-388 92.03,-388 92.03,-382 98.03,-376 104.03,-376 104.03,-376 169.97,-376 169.97,-376 175.97,-376 181.97,-382 181.97,-388 181.97,-388 181.97,-400 181.97,-400 181.97,-406 175.97,-412 169.97,-412"/>
<text xml:space="preserve" text-anchor="middle" x="137" y="-391" font-family="Helvetica,sans-Serif" font-size="10.00">partialScoreBeta</text>
</a>
</g>
</g>
<!-- n16&#45;&gt;n0 -->
<g id="edge48" class="edge">
<title>n16&#45;&gt;n0</title>
<path fill="none" stroke="#64748b" d="M149.51,-375.89C172.96,-344.62 226.22,-277.28 282,-232 331.48,-191.84 349.83,-190.11 406,-160 437.88,-142.91 452.54,-148.67 479,-124 492.55,-111.37 485.13,-99.05 500,-88 555.45,-46.79 638.44,-37.16 685.35,-35.19"/>
<polygon fill="#64748b" stroke="#64748b" points="685.25,-37.64 692.17,-34.95 685.09,-32.75 685.25,-37.64"/>
</g>
<!-- n16&#45;&gt;n1 -->
<g id="edge49" class="edge">
<title>n16&#45;&gt;n1</title>
<path fill="none" stroke="#64748b" d="M119.25,-375.51C95.68,-350.34 57,-301.37 57,-251 57,-251 57,-251 57,-177 57,-136.89 48.87,-120.78 72,-88 85.36,-69.06 107.74,-56.1 127.42,-47.74"/>
<polygon fill="#64748b" stroke="#64748b" points="128.11,-50.11 133.69,-45.22 126.28,-45.56 128.11,-50.11"/>
</g>
<!-- n16&#45;&gt;n13 -->
<g id="edge50" class="edge">
<title>n16&#45;&gt;n13</title>
<path fill="none" stroke="#64748b" d="M132.06,-375.75C124.29,-345.38 112.07,-280.95 132,-232 149.86,-188.13 191.34,-151.26 220.97,-129.18"/>
<polygon fill="#64748b" stroke="#64748b" points="222.04,-131.43 226.25,-125.32 219.15,-127.48 222.04,-131.43"/>
</g>
<!-- n16&#45;&gt;n15 -->
<g id="edge51" class="edge">
<title>n16&#45;&gt;n15</title>
<path fill="none" stroke="#64748b" d="M182.26,-377.98C212.98,-367.79 253.94,-354.2 287.46,-343.09"/>
<polygon fill="#64748b" stroke="#64748b" points="288.06,-345.47 293.93,-340.94 286.51,-340.82 288.06,-345.47"/>
</g>
<!-- n17 -->
<g id="node18" class="node">
<title>n17</title>
<g id="a_node18"><a xlink:href="vscode://vscode-remote/wsl+Ubuntu/home/gavin/statlib/Statlib/CoxChangePoint/CoxLAN.lean:87" xlink:title="noncomputable def · Statlib/CoxChangePoint/CoxLAN.lean:87" target="_blank">
<path fill="#d6e9ff" stroke="#3b82f6" d="M322.57,-484C322.57,-484 279.43,-484 279.43,-484 273.43,-484 267.43,-478 267.43,-472 267.43,-472 267.43,-460 267.43,-460 267.43,-454 273.43,-448 279.43,-448 279.43,-448 322.57,-448 322.57,-448 328.57,-448 334.57,-454 334.57,-460 334.57,-460 334.57,-472 334.57,-472 334.57,-478 328.57,-484 322.57,-484"/>
<text xml:space="preserve" text-anchor="middle" x="301" y="-463" font-family="Helvetica,sans-Serif" font-size="10.00">coxScoreAt</text>
</a>
</g>
</g>
<!-- n17&#45;&gt;n0 -->
<g id="edge52" class="edge">
<title>n17&#45;&gt;n0</title>
<path fill="none" stroke="#64748b" d="M334.77,-463.75C455.84,-458.37 861,-432.2 861,-323 861,-323 861,-323 861,-177 861,-136.25 865.11,-119.28 839,-88 818.07,-62.92 782.83,-49.23 756.3,-42.08"/>
<polygon fill="#64748b" stroke="#64748b" points="757.22,-39.79 749.84,-40.44 756.02,-44.54 757.22,-39.79"/>
</g>
<!-- n17&#45;&gt;n1 -->
<g id="edge53" class="edge">
<title>n17&#45;&gt;n1</title>
<path fill="none" stroke="#64748b" d="M267.02,-465.14C220.67,-463.63 137.2,-454.6 83,-412 47.99,-384.49 37,-367.53 37,-323 37,-323 37,-323 37,-177 37,-136.89 27.63,-119.86 52,-88 70.2,-64.21 101.6,-50.73 127,-43.32"/>
<polygon fill="#64748b" stroke="#64748b" points="127.45,-45.74 133.55,-41.53 126.15,-41.02 127.45,-45.74"/>
</g>
<!-- n17&#45;&gt;n8 -->
<g id="edge54" class="edge">
<title>n17&#45;&gt;n8</title>
<path fill="none" stroke="#64748b" d="M335.04,-451.83C361.57,-441.57 398.88,-427.15 429.26,-415.4"/>
<polygon fill="#64748b" stroke="#64748b" points="429.77,-417.83 435.41,-413.02 428,-413.26 429.77,-417.83"/>
</g>
<!-- n17&#45;&gt;n12 -->
<g id="edge55" class="edge">
<title>n17&#45;&gt;n12</title>
<path fill="none" stroke="#64748b" d="M301,-447.7C301,-439.47 301,-429.48 301,-420.42"/>
<polygon fill="#64748b" stroke="#64748b" points="303.45,-420.62 301,-413.62 298.55,-420.62 303.45,-420.62"/>
</g>
<!-- n17&#45;&gt;n16 -->
<g id="edge56" class="edge">
<title>n17&#45;&gt;n16</title>
<path fill="none" stroke="#64748b" d="M267.02,-450.5C243.45,-440.44 211.71,-426.89 185.49,-415.7"/>
<polygon fill="#64748b" stroke="#64748b" points="186.69,-413.55 179.29,-413.05 184.77,-418.05 186.69,-413.55"/>
</g>
<!-- n18 -->
<g id="node19" class="node">
<title>n18</title>
<g id="a_node19"><a xlink:href="vscode://vscode-remote/wsl+Ubuntu/home/gavin/statlib/Statlib/CoxChangePoint/CoxLAN.lean:103" xlink:title="lemma · Statlib/CoxChangePoint/CoxLAN.lean:103" target="_blank">
<path fill="#eef2f6" stroke="#94a3b8" stroke-width="3" d="M349.8,-556C349.8,-556 252.2,-556 252.2,-556 246.2,-556 240.2,-550 240.2,-544 240.2,-544 240.2,-532 240.2,-532 240.2,-526 246.2,-520 252.2,-520 252.2,-520 349.8,-520 349.8,-520 355.8,-520 361.8,-526 361.8,-532 361.8,-532 361.8,-544 361.8,-544 361.8,-550 355.8,-556 349.8,-556"/>
<text xml:space="preserve" text-anchor="middle" x="301" y="-535" font-family="Helvetica,sans-Serif" font-size="10.00">coxScoreAt_dim_match</text>
</a>
</g>
</g>
<!-- n18&#45;&gt;n0 -->
<g id="edge57" class="edge">
<title>n18&#45;&gt;n0</title>
<path fill="none" stroke="#64748b" d="M363.07,-534.89C512.69,-528.13 881,-500.74 881,-395 881,-395 881,-395 881,-177 881,-135.66 881.97,-118.44 854,-88 828.48,-60.23 786.49,-46.76 756.52,-40.39"/>
<polygon fill="#64748b" stroke="#64748b" points="757.23,-38.04 749.89,-39.07 756.28,-42.84 757.23,-38.04"/>
</g>
<!-- n18&#45;&gt;n1 -->
<g id="edge58" class="edge">
<title>n18&#45;&gt;n1</title>
<path fill="none" stroke="#64748b" d="M239.03,-532.93C155.46,-523.7 17,-493.54 17,-395 17,-395 17,-395 17,-177 17,-136.89 6.72,-119.14 32,-88 55.21,-59.41 95.96,-46.19 126.63,-40.11"/>
<polygon fill="#64748b" stroke="#64748b" points="127.06,-42.52 133.51,-38.85 126.18,-37.7 127.06,-42.52"/>
</g>
<!-- n18&#45;&gt;n17 -->
<g id="edge59" class="edge">
<title>n18&#45;&gt;n17</title>
<path fill="none" stroke="#64748b" d="M301,-518.61C301,-510.59 301,-501.05 301,-492.37"/>
<polygon fill="#64748b" stroke="#64748b" points="303.45,-492.58 301,-485.58 298.55,-492.58 303.45,-492.58"/>
</g>
</g>
</svg>
