<?xml version="1.0" encoding="UTF-8" standalone="no"?>
<!DOCTYPE svg PUBLIC "-//W3C//DTD SVG 1.1//EN"
 "http://www.w3.org/Graphics/SVG/1.1/DTD/svg11.dtd">
<!-- Generated by graphviz version 15.0.0 (20260523.1842)
 -->
<!-- Title: empiricalGap_eq Pages: 1 -->
<svg width="406pt" height="698pt"
 viewBox="0.00 0.00 406.00 698.00" xmlns="http://www.w3.org/2000/svg" xmlns:xlink="http://www.w3.org/1999/xlink">
<g id="graph0" class="graph" transform="scale(1 1) rotate(0) translate(4 694)">
<title>empiricalGap_eq</title>
<polygon fill="white" stroke="none" points="-4,4 -4,-694 402,-694 402,4 -4,4"/>
<text xml:space="preserve" text-anchor="middle" x="199" y="-673.4" font-family="Helvetica,sans-Serif" font-size="14.00">Proof narrative — empiricalGap_eq &#160;(12 decls)</text>
<g id="clust1" class="cluster">
<title>cluster_0</title>
<path fill="none" stroke="#cbd5e1" stroke-dasharray="5,2" d="M20,-8C20,-8 378,-8 378,-8 384,-8 390,-14 390,-20 390,-20 390,-645.2 390,-645.2 390,-651.2 384,-657.2 378,-657.2 378,-657.2 20,-657.2 20,-657.2 14,-657.2 8,-651.2 8,-645.2 8,-645.2 8,-20 8,-20 8,-14 14,-8 20,-8"/>
<text xml:space="preserve" text-anchor="middle" x="199" y="-643.3" font-family="Helvetica,sans-Serif" font-size="11.00">CoxChangePoint</text>
</g>
<!-- n0 -->
<g id="node1" class="node">
<title>n0</title>
<g id="a_node1"><a xlink:href="vscode://vscode-remote/wsl+Ubuntu/home/gavin/statlib/Statlib/CoxChangePoint/Foundation.lean:38" xlink:title="structure · Statlib/CoxChangePoint/Foundation.lean:38" target="_blank">
<path fill="#e8dcff" stroke="#8b5cf6" d="M310,-52C310,-52 280,-52 280,-52 274,-52 268,-46 268,-40 268,-40 268,-28 268,-28 268,-22 274,-16 280,-16 280,-16 310,-16 310,-16 316,-16 322,-22 322,-28 322,-28 322,-40 322,-40 322,-46 316,-52 310,-52"/>
<text xml:space="preserve" text-anchor="middle" x="295" y="-31" font-family="Helvetica,sans-Serif" font-size="10.00">CoxObs</text>
</a>
</g>
</g>
<!-- n1 -->
<g id="node2" class="node">
<title>n1</title>
<g id="a_node2"><a xlink:href="vscode://vscode-remote/wsl+Ubuntu/home/gavin/statlib/Statlib/CoxChangePoint/Foundation.lean:127" xlink:title="def · Statlib/CoxChangePoint/Foundation.lean:127" target="_blank">
<path fill="#d6e9ff" stroke="#3b82f6" d="M254,-412C254,-412 224,-412 224,-412 218,-412 212,-406 212,-400 212,-400 212,-388 212,-388 212,-382 218,-376 224,-376 224,-376 254,-376 254,-376 260,-376 266,-382 266,-388 266,-388 266,-400 266,-400 266,-406 260,-412 254,-412"/>
<text xml:space="preserve" text-anchor="middle" x="239" y="-391" font-family="Helvetica,sans-Serif" font-size="10.00">Sample</text>
</a>
</g>
</g>
<!-- n1&#45;&gt;n0 -->
<g id="edge1" class="edge">
<title>n1&#45;&gt;n0</title>
<path fill="none" stroke="#64748b" d="M266.44,-389.37C295.81,-383.96 341.48,-370.87 366,-340 390.95,-308.59 381,-291.11 381,-251 381,-251 381,-251 381,-177 381,-136.89 386.91,-122.23 366,-88 357.19,-73.58 342.87,-61.78 329.39,-53"/>
<polygon fill="#64748b" stroke="#64748b" points="330.97,-51.1 323.73,-49.49 328.39,-55.26 330.97,-51.1"/>
</g>
<!-- n2 -->
<g id="node3" class="node">
<title>n2</title>
<g id="a_node3"><a xlink:href="vscode://vscode-remote/wsl+Ubuntu/home/gavin/statlib/Statlib/CoxChangePoint/Foundation.lean:57" xlink:title="structure · Statlib/CoxChangePoint/Foundation.lean:57" target="_blank">
<path fill="#e8dcff" stroke="#8b5cf6" d="M106.62,-52C106.62,-52 67.38,-52 67.38,-52 61.38,-52 55.38,-46 55.38,-40 55.38,-40 55.38,-28 55.38,-28 55.38,-22 61.38,-16 67.38,-16 67.38,-16 106.62,-16 106.62,-16 112.62,-16 118.62,-22 118.62,-28 118.62,-28 118.62,-40 118.62,-40 118.62,-46 112.62,-52 106.62,-52"/>
<text xml:space="preserve" text-anchor="middle" x="87" y="-31" font-family="Helvetica,sans-Serif" font-size="10.00">CoxParam</text>
</a>
</g>
</g>
<!-- n3 -->
<g id="node4" class="node">
<title>n3</title>
<g id="a_node4"><a xlink:href="vscode://vscode-remote/wsl+Ubuntu/home/gavin/statlib/Statlib/CoxChangePoint/Foundation.lean:68" xlink:title="noncomputable def · Statlib/CoxChangePoint/Foundation.lean:68" target="_blank">
<path fill="#d6e9ff" stroke="#3b82f6" d="M198,-124C198,-124 168,-124 168,-124 162,-124 156,-118 156,-112 156,-112 156,-100 156,-100 156,-94 162,-88 168,-88 168,-88 198,-88 198,-88 204,-88 210,-94 210,-100 210,-100 210,-112 210,-112 210,-118 204,-124 198,-124"/>
<text xml:space="preserve" text-anchor="middle" x="183" y="-103" font-family="Helvetica,sans-Serif" font-size="10.00">g</text>
</a>
</g>
</g>
<!-- n3&#45;&gt;n0 -->
<g id="edge3" class="edge">
<title>n3&#45;&gt;n0</title>
<path fill="none" stroke="#64748b" d="M210.4,-87.88C225.56,-78.4 244.55,-66.53 260.69,-56.44"/>
<polygon fill="#64748b" stroke="#64748b" points="261.96,-58.54 266.6,-52.75 259.37,-54.38 261.96,-58.54"/>
</g>
<!-- n3&#45;&gt;n2 -->
<g id="edge2" class="edge">
<title>n3&#45;&gt;n2</title>
<path fill="none" stroke="#64748b" d="M159.27,-87.7C146.69,-78.53 131.1,-67.16 117.62,-57.33"/>
<polygon fill="#64748b" stroke="#64748b" points="119.11,-55.38 112.01,-53.24 116.23,-59.34 119.11,-55.38"/>
</g>
<!-- n4 -->
<g id="node5" class="node">
<title>n4</title>
<g id="a_node5"><a xlink:href="vscode://vscode-remote/wsl+Ubuntu/home/gavin/statlib/Statlib/CoxChangePoint/Foundation.lean:89" xlink:title="noncomputable def · Statlib/CoxChangePoint/Foundation.lean:89" target="_blank">
<path fill="#d6e9ff" stroke="#3b82f6" d="M310,-124C310,-124 280,-124 280,-124 274,-124 268,-118 268,-112 268,-112 268,-100 268,-100 268,-94 274,-88 280,-88 280,-88 310,-88 310,-88 316,-88 322,-94 322,-100 322,-100 322,-112 322,-112 322,-118 316,-124 310,-124"/>
<text xml:space="preserve" text-anchor="middle" x="295" y="-103" font-family="Helvetica,sans-Serif" font-size="10.00">atRisk</text>
</a>
</g>
</g>
<!-- n4&#45;&gt;n0 -->
<g id="edge4" class="edge">
<title>n4&#45;&gt;n0</title>
<path fill="none" stroke="#64748b" d="M295,-87.7C295,-79.47 295,-69.48 295,-60.42"/>
<polygon fill="#64748b" stroke="#64748b" points="297.45,-60.62 295,-53.62 292.55,-60.62 297.45,-60.62"/>
</g>
<!-- n5 -->
<g id="node6" class="node">
<title>n5</title>
<g id="a_node6"><a xlink:href="vscode://vscode-remote/wsl+Ubuntu/home/gavin/statlib/Statlib/CoxChangePoint/Foundation.lean:75" xlink:title="noncomputable def · Statlib/CoxChangePoint/Foundation.lean:75" target="_blank">
<path fill="#d6e9ff" stroke="#3b82f6" d="M198,-196C198,-196 168,-196 168,-196 162,-196 156,-190 156,-184 156,-184 156,-172 156,-172 156,-166 162,-160 168,-160 168,-160 198,-160 198,-160 204,-160 210,-166 210,-172 210,-172 210,-184 210,-184 210,-190 204,-196 198,-196"/>
<text xml:space="preserve" text-anchor="middle" x="183" y="-175" font-family="Helvetica,sans-Serif" font-size="10.00">expG</text>
</a>
</g>
</g>
<!-- n5&#45;&gt;n0 -->
<g id="edge6" class="edge">
<title>n5&#45;&gt;n0</title>
<path fill="none" stroke="#64748b" d="M194.67,-159.82C211.61,-134.89 241.31,-91.3 244,-88 252.26,-77.86 262.06,-67.36 270.86,-58.4"/>
<polygon fill="#64748b" stroke="#64748b" points="272.5,-60.23 275.7,-53.54 269.02,-56.78 272.5,-60.23"/>
</g>
<!-- n5&#45;&gt;n2 -->
<g id="edge5" class="edge">
<title>n5&#45;&gt;n2</title>
<path fill="none" stroke="#64748b" d="M171.31,-159.82C164.26,-149.46 155.1,-135.98 147,-124 132.16,-102.06 115.3,-77.05 103.24,-59.14"/>
<polygon fill="#64748b" stroke="#64748b" points="105.5,-58.1 99.55,-53.66 101.43,-60.84 105.5,-58.1"/>
</g>
<!-- n5&#45;&gt;n3 -->
<g id="edge7" class="edge">
<title>n5&#45;&gt;n3</title>
<path fill="none" stroke="#64748b" d="M183,-159.7C183,-151.47 183,-141.48 183,-132.42"/>
<polygon fill="#64748b" stroke="#64748b" points="185.45,-132.62 183,-125.62 180.55,-132.62 185.45,-132.62"/>
</g>
<!-- n6 -->
<g id="node7" class="node">
<title>n6</title>
<g id="a_node7"><a xlink:href="vscode://vscode-remote/wsl+Ubuntu/home/gavin/statlib/Statlib/CoxChangePoint/Foundation.lean:93" xlink:title="noncomputable def · Statlib/CoxChangePoint/Foundation.lean:93" target="_blank">
<path fill="#d6e9ff" stroke="#3b82f6" d="M198,-268C198,-268 168,-268 168,-268 162,-268 156,-262 156,-256 156,-256 156,-244 156,-244 156,-238 162,-232 168,-232 168,-232 198,-232 198,-232 204,-232 210,-238 210,-244 210,-244 210,-256 210,-256 210,-262 204,-268 198,-268"/>
<text xml:space="preserve" text-anchor="middle" x="183" y="-247" font-family="Helvetica,sans-Serif" font-size="10.00">riskSum</text>
</a>
</g>
</g>
<!-- n6&#45;&gt;n0 -->
<g id="edge8" class="edge">
<title>n6&#45;&gt;n0</title>
<path fill="none" stroke="#64748b" d="M196.46,-231.52C203.76,-221.49 212.58,-208.46 219,-196 242.44,-150.5 235.56,-133.5 259,-88 264.06,-78.17 270.62,-67.98 276.76,-59.19"/>
<polygon fill="#64748b" stroke="#64748b" points="278.59,-60.84 280.66,-53.71 274.6,-57.99 278.59,-60.84"/>
</g>
<!-- n6&#45;&gt;n2 -->
<g id="edge9" class="edge">
<title>n6&#45;&gt;n2</title>
<path fill="none" stroke="#64748b" d="M169.55,-231.51C162.25,-221.49 153.43,-208.45 147,-196 123.38,-150.26 104.34,-93.02 94.44,-60.58"/>
<polygon fill="#64748b" stroke="#64748b" points="96.8,-59.94 92.44,-53.95 92.11,-61.36 96.8,-59.94"/>
</g>
<!-- n6&#45;&gt;n4 -->
<g id="edge10" class="edge">
<title>n6&#45;&gt;n4</title>
<path fill="none" stroke="#64748b" d="M210.24,-233.31C224.69,-223.93 241.9,-210.94 254,-196 269.39,-177 280.42,-151.28 287.14,-132.37"/>
<polygon fill="#64748b" stroke="#64748b" points="289.4,-133.32 289.35,-125.91 284.77,-131.74 289.4,-133.32"/>
</g>
<!-- n6&#45;&gt;n5 -->
<g id="edge11" class="edge">
<title>n6&#45;&gt;n5</title>
<path fill="none" stroke="#64748b" d="M183,-231.7C183,-223.47 183,-213.48 183,-204.42"/>
<polygon fill="#64748b" stroke="#64748b" points="185.45,-204.62 183,-197.62 180.55,-204.62 185.45,-204.62"/>
</g>
<!-- n7 -->
<g id="node8" class="node">
<title>n7</title>
<g id="a_node8"><a xlink:href="vscode://vscode-remote/wsl+Ubuntu/home/gavin/statlib/Statlib/CoxChangePoint/Foundation.lean:104" xlink:title="noncomputable def · Statlib/CoxChangePoint/Foundation.lean:104" target="_blank">
<path fill="#d6e9ff" stroke="#3b82f6" d="M206.36,-340C206.36,-340 127.64,-340 127.64,-340 121.64,-340 115.64,-334 115.64,-328 115.64,-328 115.64,-316 115.64,-316 115.64,-310 121.64,-304 127.64,-304 127.64,-304 206.36,-304 206.36,-304 212.36,-304 218.36,-310 218.36,-316 218.36,-316 218.36,-328 218.36,-328 218.36,-334 212.36,-340 206.36,-340"/>
<text xml:space="preserve" text-anchor="middle" x="167" y="-319" font-family="Helvetica,sans-Serif" font-size="10.00">logPartialLikelihood</text>
</a>
</g>
</g>
<!-- n7&#45;&gt;n0 -->
<g id="edge12" class="edge">
<title>n7&#45;&gt;n0</title>
<path fill="none" stroke="#64748b" d="M189.51,-303.68C227.73,-272.65 303.78,-203.35 331,-124 336.19,-108.87 335.7,-103.29 331,-88 327.8,-77.6 321.79,-67.4 315.58,-58.78"/>
<polygon fill="#64748b" stroke="#64748b" points="317.71,-57.53 311.52,-53.43 313.8,-60.49 317.71,-57.53"/>
</g>
<!-- n7&#45;&gt;n2 -->
<g id="edge13" class="edge">
<title>n7&#45;&gt;n2</title>
<path fill="none" stroke="#64748b" d="M155.73,-303.94C149.48,-293.83 141.98,-280.58 137,-268 108.45,-195.84 94.89,-104.33 89.69,-60.57"/>
<polygon fill="#64748b" stroke="#64748b" points="92.13,-60.41 88.9,-53.73 87.27,-60.97 92.13,-60.41"/>
</g>
<!-- n7&#45;&gt;n3 -->
<g id="edge14" class="edge">
<title>n7&#45;&gt;n3</title>
<path fill="none" stroke="#64748b" d="M158.69,-303.79C154.26,-293.63 149.26,-280.38 147,-268 138.39,-220.78 132.89,-205.88 147,-160 150.2,-149.6 156.21,-139.4 162.42,-130.78"/>
<polygon fill="#64748b" stroke="#64748b" points="164.2,-132.49 166.48,-125.43 160.29,-129.53 164.2,-132.49"/>
</g>
<!-- n7&#45;&gt;n6 -->
<g id="edge15" class="edge">
<title>n7&#45;&gt;n6</title>
<path fill="none" stroke="#64748b" d="M170.96,-303.7C172.85,-295.39 175.17,-285.28 177.25,-276.14"/>
<polygon fill="#64748b" stroke="#64748b" points="179.58,-276.95 178.75,-269.58 174.8,-275.86 179.58,-276.95"/>
</g>
<!-- n8 -->
<g id="node9" class="node">
<title>n8</title>
<g id="a_node9"><a xlink:href="vscode://vscode-remote/wsl+Ubuntu/home/gavin/statlib/Statlib/CoxChangePoint/Foundation.lean:112" xlink:title="noncomputable def · Statlib/CoxChangePoint/Foundation.lean:112" target="_blank">
<path fill="#d6e9ff" stroke="#3b82f6" d="M182,-412C182,-412 152,-412 152,-412 146,-412 140,-406 140,-400 140,-400 140,-388 140,-388 140,-382 146,-376 152,-376 152,-376 182,-376 182,-376 188,-376 194,-382 194,-388 194,-388 194,-400 194,-400 194,-406 188,-412 182,-412"/>
<text xml:space="preserve" text-anchor="middle" x="167" y="-391" font-family="Helvetica,sans-Serif" font-size="10.00">Gn</text>
</a>
</g>
</g>
<!-- n8&#45;&gt;n0 -->
<g id="edge16" class="edge">
<title>n8&#45;&gt;n0</title>
<path fill="none" stroke="#64748b" d="M194.38,-379.79C247.86,-353.1 361,-291.8 361,-251 361,-251 361,-251 361,-177 361,-136.14 356.4,-124.48 338,-88 332.73,-77.55 325.12,-67.27 317.76,-58.58"/>
<polygon fill="#64748b" stroke="#64748b" points="319.69,-57.06 313.23,-53.42 316,-60.29 319.69,-57.06"/>
</g>
<!-- n8&#45;&gt;n2 -->
<g id="edge17" class="edge">
<title>n8&#45;&gt;n2</title>
<path fill="none" stroke="#64748b" d="M141.7,-375.55C129.76,-366.2 116.15,-353.78 107,-340 83.91,-305.23 77,-292.74 77,-251 77,-251 77,-251 77,-177 77,-136.24 81.15,-89.06 84.1,-60.65"/>
<polygon fill="#64748b" stroke="#64748b" points="86.51,-61.19 84.82,-53.97 81.64,-60.67 86.51,-61.19"/>
</g>
<!-- n8&#45;&gt;n7 -->
<g id="edge18" class="edge">
<title>n8&#45;&gt;n7</title>
<path fill="none" stroke="#64748b" d="M167,-375.7C167,-367.47 167,-357.48 167,-348.42"/>
<polygon fill="#64748b" stroke="#64748b" points="169.45,-348.62 167,-341.62 164.55,-348.62 169.45,-348.62"/>
</g>
<!-- n9 -->
<g id="node10" class="node">
<title>n9</title>
<g id="a_node10"><a xlink:href="vscode://vscode-remote/wsl+Ubuntu/home/gavin/statlib/Statlib/CoxChangePoint/PopulationObjective.lean:61" xlink:title="noncomputable def · Statlib/CoxChangePoint/PopulationObjective.lean:61" target="_blank">
<path fill="#d6e9ff" stroke="#3b82f6" d="M147.92,-484C147.92,-484 68.08,-484 68.08,-484 62.08,-484 56.08,-478 56.08,-472 56.08,-472 56.08,-460 56.08,-460 56.08,-454 62.08,-448 68.08,-448 68.08,-448 147.92,-448 147.92,-448 153.92,-448 159.92,-454 159.92,-460 159.92,-460 159.92,-472 159.92,-472 159.92,-478 153.92,-484 147.92,-484"/>
<text xml:space="preserve" text-anchor="middle" x="108" y="-463" font-family="Helvetica,sans-Serif" font-size="10.00">populationObjective</text>
</a>
</g>
</g>
<!-- n9&#45;&gt;n1 -->
<g id="edge19" class="edge">
<title>n9&#45;&gt;n1</title>
<path fill="none" stroke="#64748b" d="M140.72,-447.52C160.07,-437.18 184.57,-424.08 204.27,-413.56"/>
<polygon fill="#64748b" stroke="#64748b" points="205.2,-415.84 210.22,-410.38 202.89,-411.52 205.2,-415.84"/>
</g>
<!-- n9&#45;&gt;n2 -->
<g id="edge20" class="edge">
<title>n9&#45;&gt;n2</title>
<path fill="none" stroke="#64748b" d="M97.43,-447.79C82.49,-421.77 57,-370.41 57,-323 57,-323 57,-323 57,-177 57,-135.26 69.56,-88.08 78.43,-59.98"/>
<polygon fill="#64748b" stroke="#64748b" points="80.64,-61.09 80.46,-53.68 75.98,-59.59 80.64,-61.09"/>
</g>
<!-- n9&#45;&gt;n8 -->
<g id="edge21" class="edge">
<title>n9&#45;&gt;n8</title>
<path fill="none" stroke="#64748b" d="M122.58,-447.7C130.01,-438.88 139.16,-428.03 147.21,-418.47"/>
<polygon fill="#64748b" stroke="#64748b" points="148.97,-420.19 151.61,-413.26 145.22,-417.04 148.97,-420.19"/>
</g>
<!-- n10 -->
<g id="node11" class="node">
<title>n10</title>
<g id="a_node11"><a xlink:href="vscode://vscode-remote/wsl+Ubuntu/home/gavin/statlib/Statlib/CoxChangePoint/PopulationObjective.lean:93" xlink:title="noncomputable def · Statlib/CoxChangePoint/PopulationObjective.lean:93" target="_blank">
<path fill="#d6e9ff" stroke="#3b82f6" d="M168.46,-556C168.46,-556 117.54,-556 117.54,-556 111.54,-556 105.54,-550 105.54,-544 105.54,-544 105.54,-532 105.54,-532 105.54,-526 111.54,-520 117.54,-520 117.54,-520 168.46,-520 168.46,-520 174.46,-520 180.46,-526 180.46,-532 180.46,-532 180.46,-544 180.46,-544 180.46,-550 174.46,-556 168.46,-556"/>
<text xml:space="preserve" text-anchor="middle" x="143" y="-535" font-family="Helvetica,sans-Serif" font-size="10.00">empiricalGap</text>
</a>
</g>
</g>
<!-- n10&#45;&gt;n1 -->
<g id="edge22" class="edge">
<title>n10&#45;&gt;n1</title>
<path fill="none" stroke="#64748b" d="M154.77,-519.59C171.85,-494.33 203.56,-447.43 222.82,-418.93"/>
<polygon fill="#64748b" stroke="#64748b" points="224.69,-420.54 226.58,-413.36 220.63,-417.79 224.69,-420.54"/>
</g>
<!-- n10&#45;&gt;n2 -->
<g id="edge23" class="edge">
<title>n10&#45;&gt;n2</title>
<path fill="none" stroke="#64748b" d="M105.15,-525.7C84.54,-517.51 60.54,-504.26 47,-484 24.88,-450.91 37,-434.8 37,-395 37,-395 37,-395 37,-177 37,-133.76 57.88,-87.1 72.66,-59.5"/>
<polygon fill="#64748b" stroke="#64748b" points="74.69,-60.88 75.91,-53.57 70.4,-58.53 74.69,-60.88"/>
</g>
<!-- n10&#45;&gt;n8 -->
<g id="edge24" class="edge">
<title>n10&#45;&gt;n8</title>
<path fill="none" stroke="#64748b" d="M154.05,-519.61C159.74,-509.62 166.08,-496.58 169,-484 173.86,-463.04 172.85,-438.56 170.91,-420.58"/>
<polygon fill="#64748b" stroke="#64748b" points="173.36,-420.48 170.08,-413.82 168.5,-421.07 173.36,-420.48"/>
</g>
<!-- n10&#45;&gt;n9 -->
<g id="edge25" class="edge">
<title>n10&#45;&gt;n9</title>
<path fill="none" stroke="#64748b" d="M134.35,-519.7C130.11,-511.22 124.93,-500.86 120.29,-491.58"/>
<polygon fill="#64748b" stroke="#64748b" points="122.55,-490.62 117.23,-485.46 118.17,-492.81 122.55,-490.62"/>
</g>
<!-- n11 -->
<g id="node12" class="node">
<title>n11</title>
<g id="a_node12"><a xlink:href="vscode://vscode-remote/wsl+Ubuntu/home/gavin/statlib/Statlib/CoxChangePoint/PopulationObjective.lean:110" xlink:title="lemma · Statlib/CoxChangePoint/PopulationObjective.lean:110" target="_blank">
<path fill="#eef2f6" stroke="#94a3b8" stroke-width="3" d="M204.8,-628C204.8,-628 137.2,-628 137.2,-628 131.2,-628 125.2,-622 125.2,-616 125.2,-616 125.2,-604 125.2,-604 125.2,-598 131.2,-592 137.2,-592 137.2,-592 204.8,-592 204.8,-592 210.8,-592 216.8,-598 216.8,-604 216.8,-604 216.8,-616 216.8,-616 216.8,-622 210.8,-628 204.8,-628"/>
<text xml:space="preserve" text-anchor="middle" x="171" y="-607" font-family="Helvetica,sans-Serif" font-size="10.00">empiricalGap_eq</text>
</a>
</g>
</g>
<!-- n11&#45;&gt;n1 -->
<g id="edge26" class="edge">
<title>n11&#45;&gt;n1</title>
<path fill="none" stroke="#64748b" d="M180.17,-590.66C184.99,-580.59 190.75,-567.78 195,-556 211.96,-508.96 226.05,-452.17 233.43,-420.16"/>
<polygon fill="#64748b" stroke="#64748b" points="235.74,-421.04 234.91,-413.67 230.97,-419.95 235.74,-421.04"/>
</g>
<!-- n11&#45;&gt;n2 -->
<g id="edge27" class="edge">
<title>n11&#45;&gt;n2</title>
<path fill="none" stroke="#64748b" d="M126.46,-590.67C80.97,-568.65 17,-527.01 17,-467 17,-467 17,-467 17,-177 17,-135.79 23.66,-124.39 43,-88 48.55,-77.57 56.37,-67.29 63.88,-58.61"/>
<polygon fill="#64748b" stroke="#64748b" points="65.67,-60.28 68.51,-53.43 62.02,-57.01 65.67,-60.28"/>
</g>
<!-- n11&#45;&gt;n8 -->
<g id="edge29" class="edge">
<title>n11&#45;&gt;n8</title>
<path fill="none" stroke="#64748b" d="M178.86,-590.74C182.75,-580.7 187.04,-567.89 189,-556 196.89,-508.22 184.31,-452.13 175.16,-420.35"/>
<polygon fill="#64748b" stroke="#64748b" points="177.58,-419.9 173.24,-413.89 172.89,-421.3 177.58,-419.9"/>
</g>
<!-- n11&#45;&gt;n10 -->
<g id="edge28" class="edge">
<title>n11&#45;&gt;n10</title>
<path fill="none" stroke="#64748b" d="M163.64,-590.61C160.37,-582.42 156.46,-572.65 152.93,-563.83"/>
<polygon fill="#64748b" stroke="#64748b" points="155.26,-563.06 150.39,-557.47 150.71,-564.88 155.26,-563.06"/>
</g>
</g>
</svg>
