<?xml version="1.0" encoding="UTF-8" standalone="no"?>
<!DOCTYPE svg PUBLIC "-//W3C//DTD SVG 1.1//EN"
 "http://www.w3.org/Graphics/SVG/1.1/DTD/svg11.dtd">
<!-- Generated by graphviz version 15.0.0 (20260523.1842)
 -->
<!-- Title: Gn Pages: 1 -->
<svg width="386pt" height="554pt"
 viewBox="0.00 0.00 386.00 554.00" xmlns="http://www.w3.org/2000/svg" xmlns:xlink="http://www.w3.org/1999/xlink">
<g id="graph0" class="graph" transform="scale(1 1) rotate(0) translate(4 550)">
<title>Gn</title>
<polygon fill="white" stroke="none" points="-4,4 -4,-550 382,-550 382,4 -4,4"/>
<text xml:space="preserve" text-anchor="middle" x="189" y="-529.4" font-family="Helvetica,sans-Serif" font-size="14.00">Proof narrative — Gn &#160;(11 decls)</text>
<g id="clust1" class="cluster">
<title>cluster_0</title>
<path fill="none" stroke="#cbd5e1" stroke-dasharray="5,2" d="M20,-8C20,-8 358,-8 358,-8 364,-8 370,-14 370,-20 370,-20 370,-501.2 370,-501.2 370,-507.2 364,-513.2 358,-513.2 358,-513.2 20,-513.2 20,-513.2 14,-513.2 8,-507.2 8,-501.2 8,-501.2 8,-20 8,-20 8,-14 14,-8 20,-8"/>
<text xml:space="preserve" text-anchor="middle" x="189" y="-499.3" font-family="Helvetica,sans-Serif" font-size="11.00">CoxChangePoint</text>
</g>
<!-- n0 -->
<g id="node1" class="node">
<title>n0</title>
<g id="a_node1"><a xlink:href="vscode://vscode-remote/wsl+Ubuntu/home/gavin/statlib/Statlib/CoxChangePoint/Foundation.lean:38" xlink:title="structure · Statlib/CoxChangePoint/Foundation.lean:38" target="_blank">
<path fill="#e8dcff" stroke="#8b5cf6" d="M293,-52C293,-52 263,-52 263,-52 257,-52 251,-46 251,-40 251,-40 251,-28 251,-28 251,-22 257,-16 263,-16 263,-16 293,-16 293,-16 299,-16 305,-22 305,-28 305,-28 305,-40 305,-40 305,-46 299,-52 293,-52"/>
<text xml:space="preserve" text-anchor="middle" x="278" y="-31" font-family="Helvetica,sans-Serif" font-size="10.00">CoxObs</text>
</a>
</g>
</g>
<!-- n1 -->
<g id="node2" class="node">
<title>n1</title>
<g id="a_node2"><a xlink:href="vscode://vscode-remote/wsl+Ubuntu/home/gavin/statlib/Statlib/CoxChangePoint/Foundation.lean:57" xlink:title="structure · Statlib/CoxChangePoint/Foundation.lean:57" target="_blank">
<path fill="#e8dcff" stroke="#8b5cf6" d="M86.62,-52C86.62,-52 47.38,-52 47.38,-52 41.38,-52 35.38,-46 35.38,-40 35.38,-40 35.38,-28 35.38,-28 35.38,-22 41.38,-16 47.38,-16 47.38,-16 86.62,-16 86.62,-16 92.62,-16 98.62,-22 98.62,-28 98.62,-28 98.62,-40 98.62,-40 98.62,-46 92.62,-52 86.62,-52"/>
<text xml:space="preserve" text-anchor="middle" x="67" y="-31" font-family="Helvetica,sans-Serif" font-size="10.00">CoxParam</text>
</a>
</g>
</g>
<!-- n2 -->
<g id="node3" class="node">
<title>n2</title>
<g id="a_node3"><a xlink:href="vscode://vscode-remote/wsl+Ubuntu/home/gavin/statlib/Statlib/CoxChangePoint/Foundation.lean:68" xlink:title="noncomputable def · Statlib/CoxChangePoint/Foundation.lean:68" target="_blank">
<path fill="#d6e9ff" stroke="#3b82f6" d="M138,-124C138,-124 108,-124 108,-124 102,-124 96,-118 96,-112 96,-112 96,-100 96,-100 96,-94 102,-88 108,-88 108,-88 138,-88 138,-88 144,-88 150,-94 150,-100 150,-100 150,-112 150,-112 150,-118 144,-124 138,-124"/>
<text xml:space="preserve" text-anchor="middle" x="123" y="-103" font-family="Helvetica,sans-Serif" font-size="10.00">g</text>
</a>
</g>
</g>
<!-- n2&#45;&gt;n0 -->
<g id="edge2" class="edge">
<title>n2&#45;&gt;n0</title>
<path fill="none" stroke="#64748b" d="M150.35,-92.65C176.17,-80.99 215,-63.45 243.05,-50.78"/>
<polygon fill="#64748b" stroke="#64748b" points="243.91,-53.08 249.28,-47.97 241.89,-48.62 243.91,-53.08"/>
</g>
<!-- n2&#45;&gt;n1 -->
<g id="edge1" class="edge">
<title>n2&#45;&gt;n1</title>
<path fill="none" stroke="#64748b" d="M109.16,-87.7C102.17,-78.97 93.59,-68.24 86,-58.75"/>
<polygon fill="#64748b" stroke="#64748b" points="87.92,-57.22 81.63,-53.29 84.09,-60.28 87.92,-57.22"/>
</g>
<!-- n3 -->
<g id="node4" class="node">
<title>n3</title>
<g id="a_node4"><a xlink:href="vscode://vscode-remote/wsl+Ubuntu/home/gavin/statlib/Statlib/CoxChangePoint/Foundation.lean:89" xlink:title="noncomputable def · Statlib/CoxChangePoint/Foundation.lean:89" target="_blank">
<path fill="#d6e9ff" stroke="#3b82f6" d="M270,-124C270,-124 240,-124 240,-124 234,-124 228,-118 228,-112 228,-112 228,-100 228,-100 228,-94 234,-88 240,-88 240,-88 270,-88 270,-88 276,-88 282,-94 282,-100 282,-100 282,-112 282,-112 282,-118 276,-124 270,-124"/>
<text xml:space="preserve" text-anchor="middle" x="255" y="-103" font-family="Helvetica,sans-Serif" font-size="10.00">atRisk</text>
</a>
</g>
</g>
<!-- n3&#45;&gt;n0 -->
<g id="edge3" class="edge">
<title>n3&#45;&gt;n0</title>
<path fill="none" stroke="#64748b" d="M260.69,-87.7C263.41,-79.39 266.74,-69.28 269.74,-60.14"/>
<polygon fill="#64748b" stroke="#64748b" points="272.05,-60.96 271.91,-53.54 267.39,-59.43 272.05,-60.96"/>
</g>
<!-- n4 -->
<g id="node5" class="node">
<title>n4</title>
<g id="a_node5"><a xlink:href="vscode://vscode-remote/wsl+Ubuntu/home/gavin/statlib/Statlib/CoxChangePoint/Foundation.lean:75" xlink:title="noncomputable def · Statlib/CoxChangePoint/Foundation.lean:75" target="_blank">
<path fill="#d6e9ff" stroke="#3b82f6" d="M178,-196C178,-196 148,-196 148,-196 142,-196 136,-190 136,-184 136,-184 136,-172 136,-172 136,-166 142,-160 148,-160 148,-160 178,-160 178,-160 184,-160 190,-166 190,-172 190,-172 190,-184 190,-184 190,-190 184,-196 178,-196"/>
<text xml:space="preserve" text-anchor="middle" x="163" y="-175" font-family="Helvetica,sans-Serif" font-size="10.00">expG</text>
</a>
</g>
</g>
<!-- n4&#45;&gt;n0 -->
<g id="edge5" class="edge">
<title>n4&#45;&gt;n0</title>
<path fill="none" stroke="#64748b" d="M167.97,-159.81C174.11,-140.73 186.01,-109.77 204,-88 214.97,-74.72 230.01,-63.14 243.67,-54.22"/>
<polygon fill="#64748b" stroke="#64748b" points="244.77,-56.42 249.38,-50.61 242.16,-52.28 244.77,-56.42"/>
</g>
<!-- n4&#45;&gt;n1 -->
<g id="edge4" class="edge">
<title>n4&#45;&gt;n1</title>
<path fill="none" stroke="#64748b" d="M166.87,-159.52C170.09,-140.47 172.26,-109.8 159,-88 147.3,-68.76 125.81,-55.81 106.55,-47.54"/>
<polygon fill="#64748b" stroke="#64748b" points="107.55,-45.3 100.14,-44.94 105.71,-49.84 107.55,-45.3"/>
</g>
<!-- n4&#45;&gt;n2 -->
<g id="edge6" class="edge">
<title>n4&#45;&gt;n2</title>
<path fill="none" stroke="#64748b" d="M153.11,-159.7C148.22,-151.14 142.23,-140.66 136.89,-131.3"/>
<polygon fill="#64748b" stroke="#64748b" points="139.13,-130.28 133.52,-125.42 134.87,-132.71 139.13,-130.28"/>
</g>
<!-- n5 -->
<g id="node6" class="node">
<title>n5</title>
<g id="a_node6"><a xlink:href="vscode://vscode-remote/wsl+Ubuntu/home/gavin/statlib/Statlib/CoxChangePoint/Foundation.lean:93" xlink:title="noncomputable def · Statlib/CoxChangePoint/Foundation.lean:93" target="_blank">
<path fill="#d6e9ff" stroke="#3b82f6" d="M196,-268C196,-268 166,-268 166,-268 160,-268 154,-262 154,-256 154,-256 154,-244 154,-244 154,-238 160,-232 166,-232 166,-232 196,-232 196,-232 202,-232 208,-238 208,-244 208,-244 208,-256 208,-256 208,-262 202,-268 196,-268"/>
<text xml:space="preserve" text-anchor="middle" x="181" y="-247" font-family="Helvetica,sans-Serif" font-size="10.00">riskSum</text>
</a>
</g>
</g>
<!-- n5&#45;&gt;n0 -->
<g id="edge7" class="edge">
<title>n5&#45;&gt;n0</title>
<path fill="none" stroke="#64748b" d="M187.64,-231.53C191.36,-221.29 195.86,-208.04 199,-196 211.33,-148.77 195.13,-130.58 219,-88 225.46,-76.47 235.37,-66.14 245.24,-57.73"/>
<polygon fill="#64748b" stroke="#64748b" points="246.62,-59.76 250.5,-53.44 243.53,-55.96 246.62,-59.76"/>
</g>
<!-- n5&#45;&gt;n1 -->
<g id="edge8" class="edge">
<title>n5&#45;&gt;n1</title>
<path fill="none" stroke="#64748b" d="M160.61,-231.59C149.85,-221.8 136.87,-208.96 127,-196 104.82,-166.88 100.04,-158.21 87,-124 79.15,-103.4 73.92,-78.88 70.79,-60.8"/>
<polygon fill="#64748b" stroke="#64748b" points="73.22,-60.49 69.66,-53.98 68.38,-61.29 73.22,-60.49"/>
</g>
<!-- n5&#45;&gt;n3 -->
<g id="edge9" class="edge">
<title>n5&#45;&gt;n3</title>
<path fill="none" stroke="#64748b" d="M192.56,-231.66C199.17,-221.46 207.42,-208.21 214,-196 225.34,-174.96 236.58,-150.21 244.42,-132.16"/>
<polygon fill="#64748b" stroke="#64748b" points="246.65,-133.16 247.17,-125.76 242.15,-131.23 246.65,-133.16"/>
</g>
<!-- n5&#45;&gt;n4 -->
<g id="edge10" class="edge">
<title>n5&#45;&gt;n4</title>
<path fill="none" stroke="#64748b" d="M176.55,-231.7C174.41,-223.39 171.81,-213.28 169.46,-204.14"/>
<polygon fill="#64748b" stroke="#64748b" points="171.89,-203.74 167.78,-197.57 167.15,-204.96 171.89,-203.74"/>
</g>
<!-- n6 -->
<g id="node7" class="node">
<title>n6</title>
<g id="a_node7"><a xlink:href="vscode://vscode-remote/wsl+Ubuntu/home/gavin/statlib/Statlib/CoxChangePoint/Foundation.lean:104" xlink:title="noncomputable def · Statlib/CoxChangePoint/Foundation.lean:104" target="_blank">
<path fill="#d6e9ff" stroke="#3b82f6" d="M220.36,-340C220.36,-340 141.64,-340 141.64,-340 135.64,-340 129.64,-334 129.64,-328 129.64,-328 129.64,-316 129.64,-316 129.64,-310 135.64,-304 141.64,-304 141.64,-304 220.36,-304 220.36,-304 226.36,-304 232.36,-310 232.36,-316 232.36,-316 232.36,-328 232.36,-328 232.36,-334 226.36,-340 220.36,-340"/>
<text xml:space="preserve" text-anchor="middle" x="181" y="-319" font-family="Helvetica,sans-Serif" font-size="10.00">logPartialLikelihood</text>
</a>
</g>
</g>
<!-- n6&#45;&gt;n0 -->
<g id="edge11" class="edge">
<title>n6&#45;&gt;n0</title>
<path fill="none" stroke="#64748b" d="M195.07,-303.67C220.56,-270.98 273.36,-196.91 291,-124 296.16,-102.68 291.74,-77.96 286.7,-59.99"/>
<polygon fill="#64748b" stroke="#64748b" points="289.17,-59.69 284.81,-53.69 284.48,-61.1 289.17,-59.69"/>
</g>
<!-- n6&#45;&gt;n1 -->
<g id="edge12" class="edge">
<title>n6&#45;&gt;n1</title>
<path fill="none" stroke="#64748b" d="M160.47,-303.71C149.98,-294.05 137.64,-281.29 129,-268 91.49,-210.29 86.79,-191.22 72,-124 67.37,-102.96 66.3,-78.48 66.28,-60.53"/>
<polygon fill="#64748b" stroke="#64748b" points="68.73,-60.82 66.34,-53.8 63.83,-60.78 68.73,-60.82"/>
</g>
<!-- n6&#45;&gt;n2 -->
<g id="edge13" class="edge">
<title>n6&#45;&gt;n2</title>
<path fill="none" stroke="#64748b" d="M167.01,-303.78C159.54,-293.83 150.73,-280.79 145,-268 125.01,-223.33 122.01,-165.26 122.15,-132.47"/>
<polygon fill="#64748b" stroke="#64748b" points="124.6,-132.85 122.24,-125.82 119.7,-132.79 124.6,-132.85"/>
</g>
<!-- n6&#45;&gt;n5 -->
<g id="edge14" class="edge">
<title>n6&#45;&gt;n5</title>
<path fill="none" stroke="#64748b" d="M181,-303.7C181,-295.47 181,-285.48 181,-276.42"/>
<polygon fill="#64748b" stroke="#64748b" points="183.45,-276.62 181,-269.62 178.55,-276.62 183.45,-276.62"/>
</g>
<!-- n7 -->
<g id="node8" class="node">
<title>n7</title>
<g id="a_node8"><a xlink:href="vscode://vscode-remote/wsl+Ubuntu/home/gavin/statlib/Statlib/CoxChangePoint/Foundation.lean:112" xlink:title="noncomputable def · Statlib/CoxChangePoint/Foundation.lean:112" target="_blank">
<path fill="#d6e9ff" stroke="#3b82f6" d="M214,-412C214,-412 184,-412 184,-412 178,-412 172,-406 172,-400 172,-400 172,-388 172,-388 172,-382 178,-376 184,-376 184,-376 214,-376 214,-376 220,-376 226,-382 226,-388 226,-388 226,-400 226,-400 226,-406 220,-412 214,-412"/>
<text xml:space="preserve" text-anchor="middle" x="199" y="-391" font-family="Helvetica,sans-Serif" font-size="10.00">Gn</text>
</a>
</g>
</g>
<!-- n7&#45;&gt;n0 -->
<g id="edge15" class="edge">
<title>n7&#45;&gt;n0</title>
<path fill="none" stroke="#64748b" d="M215.81,-375.65C224.46,-365.87 234.51,-353.03 241,-340 285.2,-251.22 284.45,-222.38 297,-124 299.02,-108.13 299.74,-103.76 297,-88 295.38,-78.66 292.26,-68.79 289,-60.13"/>
<polygon fill="#64748b" stroke="#64748b" points="291.3,-59.27 286.45,-53.66 286.74,-61.07 291.3,-59.27"/>
</g>
<!-- n7&#45;&gt;n1 -->
<g id="edge16" class="edge">
<title>n7&#45;&gt;n1</title>
<path fill="none" stroke="#64748b" d="M171.52,-383.44C125.3,-365.4 37,-321.69 37,-251 37,-251 37,-251 37,-177 37,-135.26 49.56,-88.08 58.43,-59.98"/>
<polygon fill="#64748b" stroke="#64748b" points="60.64,-61.09 60.46,-53.68 55.98,-59.59 60.64,-61.09"/>
</g>
<!-- n7&#45;&gt;n6 -->
<g id="edge17" class="edge">
<title>n7&#45;&gt;n6</title>
<path fill="none" stroke="#64748b" d="M194.55,-375.7C192.41,-367.39 189.81,-357.28 187.46,-348.14"/>
<polygon fill="#64748b" stroke="#64748b" points="189.89,-347.74 185.78,-341.57 185.15,-348.96 189.89,-347.74"/>
</g>
<!-- n8 -->
<g id="node9" class="node">
<title>n8</title>
<g id="a_node9"><a xlink:href="vscode://vscode-remote/wsl+Ubuntu/home/gavin/statlib/Statlib/CoxChangePoint/Foundation.lean:127" xlink:title="def · Statlib/CoxChangePoint/Foundation.lean:127" target="_blank">
<path fill="#d6e9ff" stroke="#3b82f6" d="M350,-340C350,-340 320,-340 320,-340 314,-340 308,-334 308,-328 308,-328 308,-316 308,-316 308,-310 314,-304 320,-304 320,-304 350,-304 350,-304 356,-304 362,-310 362,-316 362,-316 362,-328 362,-328 362,-334 356,-340 350,-340"/>
<text xml:space="preserve" text-anchor="middle" x="335" y="-319" font-family="Helvetica,sans-Serif" font-size="10.00">Sample</text>
</a>
</g>
</g>
<!-- n8&#45;&gt;n0 -->
<g id="edge18" class="edge">
<title>n8&#45;&gt;n0</title>
<path fill="none" stroke="#64748b" d="M341.15,-303.79C354.43,-263.57 381.81,-161.32 346,-88 338.85,-73.36 325.49,-61.59 312.49,-52.89"/>
<polygon fill="#64748b" stroke="#64748b" points="313.85,-50.86 306.62,-49.19 311.23,-55 313.85,-50.86"/>
</g>
<!-- n9 -->
<g id="node10" class="node">
<title>n9</title>
<g id="a_node10"><a xlink:href="vscode://vscode-remote/wsl+Ubuntu/home/gavin/statlib/Statlib/CoxChangePoint/Foundation.lean:135" xlink:title="def · Statlib/CoxChangePoint/Foundation.lean:135" target="_blank">
<path fill="#d6e9ff" stroke="#3b82f6" d="M304,-412C304,-412 274,-412 274,-412 268,-412 262,-406 262,-400 262,-400 262,-388 262,-388 262,-382 268,-376 274,-376 274,-376 304,-376 304,-376 310,-376 316,-382 316,-388 316,-388 316,-400 316,-400 316,-406 310,-412 304,-412"/>
<text xml:space="preserve" text-anchor="middle" x="289" y="-391" font-family="Helvetica,sans-Serif" font-size="10.00">realize</text>
</a>
</g>
</g>
<!-- n9&#45;&gt;n0 -->
<g id="edge20" class="edge">
<title>n9&#45;&gt;n0</title>
<path fill="none" stroke="#64748b" d="M288.3,-375.62C288.16,-357.2 289.65,-327.56 299,-304 306.38,-285.41 319.68,-286.97 326,-268 351.3,-192.11 354.78,-162.64 326,-88 321.68,-76.8 313.78,-66.5 305.61,-58.02"/>
<polygon fill="#64748b" stroke="#64748b" points="307.75,-56.68 301.04,-53.51 304.31,-60.17 307.75,-56.68"/>
</g>
<!-- n9&#45;&gt;n8 -->
<g id="edge19" class="edge">
<title>n9&#45;&gt;n8</title>
<path fill="none" stroke="#64748b" d="M300.37,-375.7C306.05,-367.05 313.02,-356.45 319.21,-347.03"/>
<polygon fill="#64748b" stroke="#64748b" points="321.13,-348.56 322.93,-341.37 317.04,-345.87 321.13,-348.56"/>
</g>
<!-- n10 -->
<g id="node11" class="node">
<title>n10</title>
<g id="a_node11"><a xlink:href="vscode://vscode-remote/wsl+Ubuntu/home/gavin/statlib/Statlib/CoxChangePoint/Foundation.lean:139" xlink:title="noncomputable def · Statlib/CoxChangePoint/Foundation.lean:139" target="_blank">
<path fill="#d6e9ff" stroke="#3b82f6" stroke-width="3" d="M277,-484C277,-484 247,-484 247,-484 241,-484 235,-478 235,-472 235,-472 235,-460 235,-460 235,-454 241,-448 247,-448 247,-448 277,-448 277,-448 283,-448 289,-454 289,-460 289,-460 289,-472 289,-472 289,-478 283,-484 277,-484"/>
<text xml:space="preserve" text-anchor="middle" x="262" y="-463" font-family="Helvetica,sans-Serif" font-size="10.00">Gn</text>
</a>
</g>
</g>
<!-- n10&#45;&gt;n1 -->
<g id="edge23" class="edge">
<title>n10&#45;&gt;n1</title>
<path fill="none" stroke="#64748b" d="M233.9,-461.97C169.54,-453.31 17,-422.31 17,-323 17,-323 17,-323 17,-177 17,-133.76 37.88,-87.1 52.66,-59.5"/>
<polygon fill="#64748b" stroke="#64748b" points="54.69,-60.88 55.91,-53.57 50.4,-58.53 54.69,-60.88"/>
</g>
<!-- n10&#45;&gt;n7 -->
<g id="edge21" class="edge">
<title>n10&#45;&gt;n7</title>
<path fill="none" stroke="#64748b" d="M245.45,-446.61C237.63,-437.92 228.21,-427.45 219.9,-418.22"/>
<polygon fill="#64748b" stroke="#64748b" points="221.88,-416.76 215.37,-413.19 218.24,-420.04 221.88,-416.76"/>
</g>
<!-- n10&#45;&gt;n8 -->
<g id="edge22" class="edge">
<title>n10&#45;&gt;n8</title>
<path fill="none" stroke="#64748b" d="M290.24,-448.36C303.03,-439.29 317.04,-426.87 325,-412 335.46,-392.48 337.37,-367.12 337.01,-348.48"/>
<polygon fill="#64748b" stroke="#64748b" points="339.47,-348.58 336.76,-341.68 334.57,-348.77 339.47,-348.58"/>
</g>
<!-- n10&#45;&gt;n9 -->
<g id="edge24" class="edge">
<title>n10&#45;&gt;n9</title>
<path fill="none" stroke="#64748b" d="M269.09,-446.61C272.25,-438.42 276.02,-428.65 279.42,-419.83"/>
<polygon fill="#64748b" stroke="#64748b" points="281.64,-420.89 281.87,-413.48 277.07,-419.13 281.64,-420.89"/>
</g>
</g>
</svg>
