<?xml version="1.0" encoding="UTF-8" standalone="no"?>
<!DOCTYPE svg PUBLIC "-//W3C//DTD SVG 1.1//EN"
 "http://www.w3.org/Graphics/SVG/1.1/DTD/svg11.dtd">
<!-- Generated by graphviz version 15.0.0 (20260523.1842)
 -->
<!-- Title: InfiniteDimSpectralData.toEigensystem Pages: 1 -->
<svg width="686pt" height="482pt"
 viewBox="0.00 0.00 686.00 482.00" xmlns="http://www.w3.org/2000/svg" xmlns:xlink="http://www.w3.org/1999/xlink">
<g id="graph0" class="graph" transform="scale(1 1) rotate(0) translate(4 478)">
<title>InfiniteDimSpectralData.toEigensystem</title>
<polygon fill="white" stroke="none" points="-4,4 -4,-478 682,-478 682,4 -4,4"/>
<text xml:space="preserve" text-anchor="middle" x="339" y="-457.4" font-family="Helvetica,sans-Serif" font-size="14.00">Proof narrative — InfiniteDimSpectralData.toEigensystem &#160;(16 decls)</text>
<g id="clust1" class="cluster">
<title>cluster_0</title>
<path fill="none" stroke="#cbd5e1" stroke-dasharray="5,2" d="M20,-8C20,-8 658,-8 658,-8 664,-8 670,-14 670,-20 670,-20 670,-429.2 670,-429.2 670,-435.2 664,-441.2 658,-441.2 658,-441.2 20,-441.2 20,-441.2 14,-441.2 8,-435.2 8,-429.2 8,-429.2 8,-20 8,-20 8,-14 14,-8 20,-8"/>
<text xml:space="preserve" text-anchor="middle" x="339" y="-427.3" font-family="Helvetica,sans-Serif" font-size="11.00">CoxChangePoint</text>
</g>
<!-- n0 -->
<g id="node1" class="node">
<title>n0</title>
<g id="a_node1"><a xlink:href="vscode://vscode-remote/wsl+Ubuntu/home/gavin/statlib/Statlib/CoxChangePoint/SpectralOperator.lean:103" xlink:title="structure · Statlib/CoxChangePoint/SpectralOperator.lean:103" target="_blank">
<path fill="#e8dcff" stroke="#8b5cf6" d="M212.8,-52C212.8,-52 105.2,-52 105.2,-52 99.2,-52 93.2,-46 93.2,-40 93.2,-40 93.2,-28 93.2,-28 93.2,-22 99.2,-16 105.2,-16 105.2,-16 212.8,-16 212.8,-16 218.8,-16 224.8,-22 224.8,-28 224.8,-28 224.8,-40 224.8,-40 224.8,-46 218.8,-52 212.8,-52"/>
<text xml:space="preserve" text-anchor="middle" x="159" y="-31" font-family="Helvetica,sans-Serif" font-size="10.00">SymmetricKernelOperator</text>
</a>
</g>
</g>
<!-- n1 -->
<g id="node2" class="node">
<title>n1</title>
<g id="a_node2"><a xlink:href="vscode://vscode-remote/wsl+Ubuntu/home/gavin/statlib/Statlib/CoxChangePoint/SpectralOperator.lean:193" xlink:title="structure · Statlib/CoxChangePoint/SpectralOperator.lean:193" target="_blank">
<path fill="#e8dcff" stroke="#8b5cf6" d="M127.92,-124C127.92,-124 28.08,-124 28.08,-124 22.08,-124 16.08,-118 16.08,-112 16.08,-112 16.08,-100 16.08,-100 16.08,-94 22.08,-88 28.08,-88 28.08,-88 127.92,-88 127.92,-88 133.92,-88 139.92,-94 139.92,-100 139.92,-100 139.92,-112 139.92,-112 139.92,-118 133.92,-124 127.92,-124"/>
<text xml:space="preserve" text-anchor="middle" x="78" y="-103" font-family="Helvetica,sans-Serif" font-size="10.00">HasEigendecomposition</text>
</a>
</g>
</g>
<!-- n1&#45;&gt;n0 -->
<g id="edge1" class="edge">
<title>n1&#45;&gt;n0</title>
<path fill="none" stroke="#64748b" d="M98.02,-87.7C108.44,-78.69 121.31,-67.57 132.54,-57.87"/>
<polygon fill="#64748b" stroke="#64748b" points="134.09,-59.77 137.78,-53.34 130.88,-56.06 134.09,-59.77"/>
</g>
<!-- n2 -->
<g id="node3" class="node">
<title>n2</title>
<g id="a_node3"><a xlink:href="vscode://vscode-remote/wsl+Ubuntu/home/gavin/statlib/Statlib/CoxChangePoint/FPC.lean:42" xlink:title="structure · Statlib/CoxChangePoint/FPC.lean:42" target="_blank">
<path fill="#e8dcff" stroke="#8b5cf6" d="M77.62,-268C77.62,-268 28.38,-268 28.38,-268 22.38,-268 16.38,-262 16.38,-256 16.38,-256 16.38,-244 16.38,-244 16.38,-238 22.38,-232 28.38,-232 28.38,-232 77.62,-232 77.62,-232 83.62,-232 89.62,-238 89.62,-244 89.62,-244 89.62,-256 89.62,-256 89.62,-262 83.62,-268 77.62,-268"/>
<text xml:space="preserve" text-anchor="middle" x="53" y="-247" font-family="Helvetica,sans-Serif" font-size="10.00">Eigensystem</text>
</a>
</g>
</g>
<!-- n3 -->
<g id="node4" class="node">
<title>n3</title>
<g id="a_node4"><a xlink:href="vscode://vscode-remote/wsl+Ubuntu/home/gavin/statlib/Statlib/CoxChangePoint/SpectralOperator.lean:226" xlink:title="def · Statlib/CoxChangePoint/SpectralOperator.lean:226" target="_blank">
<path fill="#d6e9ff" stroke="#3b82f6" d="M117.79,-340C117.79,-340 60.21,-340 60.21,-340 54.21,-340 48.21,-334 48.21,-328 48.21,-328 48.21,-316 48.21,-316 48.21,-310 54.21,-304 60.21,-304 60.21,-304 117.79,-304 117.79,-304 123.79,-304 129.79,-310 129.79,-316 129.79,-316 129.79,-328 129.79,-328 129.79,-334 123.79,-340 117.79,-340"/>
<text xml:space="preserve" text-anchor="middle" x="89" y="-319" font-family="Helvetica,sans-Serif" font-size="10.00">toEigensystem</text>
</a>
</g>
</g>
<!-- n3&#45;&gt;n0 -->
<g id="edge2" class="edge">
<title>n3&#45;&gt;n0</title>
<path fill="none" stroke="#64748b" d="M95.48,-303.62C107.88,-269.63 135,-191.75 149,-124 153.38,-102.8 155.95,-78.34 157.39,-60.43"/>
<polygon fill="#64748b" stroke="#64748b" points="159.81,-60.88 157.89,-53.72 154.93,-60.52 159.81,-60.88"/>
</g>
<!-- n3&#45;&gt;n1 -->
<g id="edge3" class="edge">
<title>n3&#45;&gt;n1</title>
<path fill="none" stroke="#64748b" d="M93.06,-303.93C95.31,-293.6 97.87,-280.12 99,-268 103.51,-219.82 92.53,-163.86 84.8,-132.22"/>
<polygon fill="#64748b" stroke="#64748b" points="87.27,-132.01 83.19,-125.81 82.52,-133.2 87.27,-132.01"/>
</g>
<!-- n3&#45;&gt;n2 -->
<g id="edge4" class="edge">
<title>n3&#45;&gt;n2</title>
<path fill="none" stroke="#64748b" d="M80.1,-303.7C75.74,-295.22 70.42,-284.86 65.64,-275.58"/>
<polygon fill="#64748b" stroke="#64748b" points="67.87,-274.55 62.49,-269.45 63.51,-276.8 67.87,-274.55"/>
</g>
<!-- n4 -->
<g id="node5" class="node">
<title>n4</title>
<g id="a_node5"><a xlink:href="vscode://vscode-remote/wsl+Ubuntu/home/gavin/statlib/Statlib/CoxChangePoint/L2Operator.lean:212" xlink:title="structure · Statlib/CoxChangePoint/L2Operator.lean:212" target="_blank">
<path fill="#e8dcff" stroke="#8b5cf6" d="M301.77,-124C301.77,-124 190.23,-124 190.23,-124 184.23,-124 178.23,-118 178.23,-112 178.23,-112 178.23,-100 178.23,-100 178.23,-94 184.23,-88 190.23,-88 190.23,-88 301.77,-88 301.77,-88 307.77,-88 313.77,-94 313.77,-100 313.77,-100 313.77,-112 313.77,-112 313.77,-118 307.77,-124 301.77,-124"/>
<text xml:space="preserve" text-anchor="middle" x="246" y="-103" font-family="Helvetica,sans-Serif" font-size="10.00">L2BoundedKernelOperator</text>
</a>
</g>
</g>
<!-- n4&#45;&gt;n0 -->
<g id="edge5" class="edge">
<title>n4&#45;&gt;n0</title>
<path fill="none" stroke="#64748b" d="M224.49,-87.7C213.2,-78.61 199.22,-67.36 187.09,-57.6"/>
<polygon fill="#64748b" stroke="#64748b" points="188.73,-55.78 181.74,-53.3 185.66,-59.59 188.73,-55.78"/>
</g>
<!-- n5 -->
<g id="node6" class="node">
<title>n5</title>
<g id="a_node6"><a xlink:href="vscode://vscode-remote/wsl+Ubuntu/home/gavin/statlib/Statlib/CoxChangePoint/Foundation.lean:57" xlink:title="structure · Statlib/CoxChangePoint/Foundation.lean:57" target="_blank">
<path fill="#e8dcff" stroke="#8b5cf6" d="M416.62,-52C416.62,-52 377.38,-52 377.38,-52 371.38,-52 365.38,-46 365.38,-40 365.38,-40 365.38,-28 365.38,-28 365.38,-22 371.38,-16 377.38,-16 377.38,-16 416.62,-16 416.62,-16 422.62,-16 428.62,-22 428.62,-28 428.62,-28 428.62,-40 428.62,-40 428.62,-46 422.62,-52 416.62,-52"/>
<text xml:space="preserve" text-anchor="middle" x="397" y="-31" font-family="Helvetica,sans-Serif" font-size="10.00">CoxParam</text>
</a>
</g>
</g>
<!-- n6 -->
<g id="node7" class="node">
<title>n6</title>
<g id="a_node7"><a xlink:href="vscode://vscode-remote/wsl+Ubuntu/home/gavin/statlib/Statlib/CoxChangePoint/Foundation.lean:38" xlink:title="structure · Statlib/CoxChangePoint/Foundation.lean:38" target="_blank">
<path fill="#e8dcff" stroke="#8b5cf6" d="M335,-52C335,-52 305,-52 305,-52 299,-52 293,-46 293,-40 293,-40 293,-28 293,-28 293,-22 299,-16 305,-16 305,-16 335,-16 335,-16 341,-16 347,-22 347,-28 347,-28 347,-40 347,-40 347,-46 341,-52 335,-52"/>
<text xml:space="preserve" text-anchor="middle" x="320" y="-31" font-family="Helvetica,sans-Serif" font-size="10.00">CoxObs</text>
</a>
</g>
</g>
<!-- n7 -->
<g id="node8" class="node">
<title>n7</title>
<g id="a_node8"><a xlink:href="vscode://vscode-remote/wsl+Ubuntu/home/gavin/statlib/Statlib/CoxChangePoint/Foundation.lean:68" xlink:title="noncomputable def · Statlib/CoxChangePoint/Foundation.lean:68" target="_blank">
<path fill="#d6e9ff" stroke="#3b82f6" d="M374,-124C374,-124 344,-124 344,-124 338,-124 332,-118 332,-112 332,-112 332,-100 332,-100 332,-94 338,-88 344,-88 344,-88 374,-88 374,-88 380,-88 386,-94 386,-100 386,-100 386,-112 386,-112 386,-118 380,-124 374,-124"/>
<text xml:space="preserve" text-anchor="middle" x="359" y="-103" font-family="Helvetica,sans-Serif" font-size="10.00">g</text>
</a>
</g>
</g>
<!-- n7&#45;&gt;n5 -->
<g id="edge6" class="edge">
<title>n7&#45;&gt;n5</title>
<path fill="none" stroke="#64748b" d="M368.39,-87.7C372.99,-79.22 378.62,-68.86 383.66,-59.58"/>
<polygon fill="#64748b" stroke="#64748b" points="385.81,-60.76 386.99,-53.43 381.5,-58.42 385.81,-60.76"/>
</g>
<!-- n7&#45;&gt;n6 -->
<g id="edge7" class="edge">
<title>n7&#45;&gt;n6</title>
<path fill="none" stroke="#64748b" d="M349.36,-87.7C344.59,-79.14 338.75,-68.66 333.54,-59.3"/>
<polygon fill="#64748b" stroke="#64748b" points="335.81,-58.35 330.27,-53.43 331.53,-60.73 335.81,-58.35"/>
</g>
<!-- n8 -->
<g id="node9" class="node">
<title>n8</title>
<g id="a_node9"><a xlink:href="vscode://vscode-remote/wsl+Ubuntu/home/gavin/statlib/Statlib/CoxChangePoint/L2OperatorMap.lean:204" xlink:title="structure · Statlib/CoxChangePoint/L2OperatorMap.lean:204" target="_blank">
<path fill="#e8dcff" stroke="#8b5cf6" d="M298.3,-196C298.3,-196 225.7,-196 225.7,-196 219.7,-196 213.7,-190 213.7,-184 213.7,-184 213.7,-172 213.7,-172 213.7,-166 219.7,-160 225.7,-160 225.7,-160 298.3,-160 298.3,-160 304.3,-160 310.3,-166 310.3,-172 310.3,-172 310.3,-184 310.3,-184 310.3,-190 304.3,-196 298.3,-196"/>
<text xml:space="preserve" text-anchor="middle" x="262" y="-175" font-family="Helvetica,sans-Serif" font-size="10.00">L2KernelMapData</text>
</a>
</g>
</g>
<!-- n8&#45;&gt;n4 -->
<g id="edge8" class="edge">
<title>n8&#45;&gt;n4</title>
<path fill="none" stroke="#64748b" d="M258.04,-159.7C256.15,-151.39 253.83,-141.28 251.75,-132.14"/>
<polygon fill="#64748b" stroke="#64748b" points="254.2,-131.86 250.25,-125.58 249.42,-132.95 254.2,-131.86"/>
</g>
<!-- n8&#45;&gt;n7 -->
<g id="edge9" class="edge">
<title>n8&#45;&gt;n7</title>
<path fill="none" stroke="#64748b" d="M285.98,-159.7C298.69,-150.53 314.44,-139.16 328.06,-129.33"/>
<polygon fill="#64748b" stroke="#64748b" points="329.49,-131.32 333.73,-125.23 326.62,-127.34 329.49,-131.32"/>
</g>
<!-- n9 -->
<g id="node10" class="node">
<title>n9</title>
<g id="a_node10"><a xlink:href="vscode://vscode-remote/wsl+Ubuntu/home/gavin/statlib/Statlib/CoxChangePoint/SpectralTheorem.lean:188" xlink:title="structure · Statlib/CoxChangePoint/SpectralTheorem.lean:188" target="_blank">
<path fill="#e8dcff" stroke="#8b5cf6" d="M437.52,-196C437.52,-196 340.48,-196 340.48,-196 334.48,-196 328.48,-190 328.48,-184 328.48,-184 328.48,-172 328.48,-172 328.48,-166 334.48,-160 340.48,-160 340.48,-160 437.52,-160 437.52,-160 443.52,-160 449.52,-166 449.52,-172 449.52,-172 449.52,-184 449.52,-184 449.52,-190 443.52,-196 437.52,-196"/>
<text xml:space="preserve" text-anchor="middle" x="389" y="-175" font-family="Helvetica,sans-Serif" font-size="10.00">InfiniteDimSpectralData</text>
</a>
</g>
</g>
<!-- n10 -->
<g id="node11" class="node">
<title>n10</title>
<g id="a_node11"><a xlink:href="vscode://vscode-remote/wsl+Ubuntu/home/gavin/statlib/Statlib/CoxChangePoint/L2OperatorMap.lean:239" xlink:title="def · Statlib/CoxChangePoint/L2OperatorMap.lean:239" target="_blank">
<path fill="#d6e9ff" stroke="#3b82f6" d="M592.09,-196C592.09,-196 493.91,-196 493.91,-196 487.91,-196 481.91,-190 481.91,-184 481.91,-184 481.91,-172 481.91,-172 481.91,-166 487.91,-160 493.91,-160 493.91,-160 592.09,-160 592.09,-160 598.09,-160 604.09,-166 604.09,-172 604.09,-172 604.09,-184 604.09,-184 604.09,-190 598.09,-196 592.09,-196"/>
<text xml:space="preserve" text-anchor="middle" x="543" y="-175" font-family="Helvetica,sans-Serif" font-size="10.00">toContinuousLinearMap</text>
</a>
</g>
</g>
<!-- n11 -->
<g id="node12" class="node">
<title>n11</title>
<g id="a_node12"><a xlink:href="vscode://vscode-remote/wsl+Ubuntu/home/gavin/statlib/Statlib/CoxChangePoint/SpectralTheorem.lean:260" xlink:title="noncomputable def · Statlib/CoxChangePoint/SpectralTheorem.lean:260" target="_blank">
<path fill="#d6e9ff" stroke="#3b82f6" d="M333.58,-268C333.58,-268 200.42,-268 200.42,-268 194.42,-268 188.42,-262 188.42,-256 188.42,-256 188.42,-244 188.42,-244 188.42,-238 194.42,-232 200.42,-232 200.42,-232 333.58,-232 333.58,-232 339.58,-232 345.58,-238 345.58,-244 345.58,-244 345.58,-256 345.58,-256 345.58,-262 339.58,-268 333.58,-268"/>
<text xml:space="preserve" text-anchor="middle" x="267" y="-247" font-family="Helvetica,sans-Serif" font-size="10.00">InfiniteDimSpectralData.lamClip</text>
</a>
</g>
</g>
<!-- n11&#45;&gt;n8 -->
<g id="edge10" class="edge">
<title>n11&#45;&gt;n8</title>
<path fill="none" stroke="#64748b" d="M265.76,-231.7C265.18,-223.47 264.46,-213.48 263.82,-204.42"/>
<polygon fill="#64748b" stroke="#64748b" points="266.27,-204.42 263.33,-197.61 261.38,-204.77 266.27,-204.42"/>
</g>
<!-- n11&#45;&gt;n9 -->
<g id="edge11" class="edge">
<title>n11&#45;&gt;n9</title>
<path fill="none" stroke="#64748b" d="M297.47,-231.52C313.9,-222.09 334.3,-210.38 351.68,-200.41"/>
<polygon fill="#64748b" stroke="#64748b" points="352.75,-202.62 357.6,-197.01 350.31,-198.37 352.75,-202.62"/>
</g>
<!-- n11&#45;&gt;n10 -->
<g id="edge12" class="edge">
<title>n11&#45;&gt;n10</title>
<path fill="none" stroke="#64748b" d="M335.93,-231.52C377.93,-220.86 431.43,-207.3 473.53,-196.62"/>
<polygon fill="#64748b" stroke="#64748b" points="473.87,-199.06 480.05,-194.96 472.67,-194.31 473.87,-199.06"/>
</g>
<!-- n12 -->
<g id="node13" class="node">
<title>n12</title>
<g id="a_node13"><a xlink:href="vscode://vscode-remote/wsl+Ubuntu/home/gavin/statlib/Statlib/CoxChangePoint/SpectralTheorem.lean:246" xlink:title="noncomputable def · Statlib/CoxChangePoint/SpectralTheorem.lean:246" target="_blank">
<path fill="#d6e9ff" stroke="#3b82f6" d="M610.42,-268C610.42,-268 475.58,-268 475.58,-268 469.58,-268 463.58,-262 463.58,-256 463.58,-256 463.58,-244 463.58,-244 463.58,-238 469.58,-232 475.58,-232 475.58,-232 610.42,-232 610.42,-232 616.42,-232 622.42,-238 622.42,-244 622.42,-244 622.42,-256 622.42,-256 622.42,-262 616.42,-268 610.42,-268"/>
<text xml:space="preserve" text-anchor="middle" x="543" y="-247" font-family="Helvetica,sans-Serif" font-size="10.00">InfiniteDimSpectralData.phiRepr</text>
</a>
</g>
</g>
<!-- n12&#45;&gt;n8 -->
<g id="edge13" class="edge">
<title>n12&#45;&gt;n8</title>
<path fill="none" stroke="#64748b" d="M464.2,-231.52C421.14,-221.68 366.97,-208.82 319,-196 318.92,-195.98 318.83,-195.95 318.75,-195.93"/>
<polygon fill="#64748b" stroke="#64748b" points="319.62,-193.63 312.22,-194.14 318.33,-198.36 319.62,-193.63"/>
</g>
<!-- n12&#45;&gt;n9 -->
<g id="edge14" class="edge">
<title>n12&#45;&gt;n9</title>
<path fill="none" stroke="#64748b" d="M504.54,-231.52C483.42,-221.92 457.09,-209.95 434.9,-199.86"/>
<polygon fill="#64748b" stroke="#64748b" points="436,-197.67 428.62,-197.01 433.98,-202.14 436,-197.67"/>
</g>
<!-- n12&#45;&gt;n10 -->
<g id="edge15" class="edge">
<title>n12&#45;&gt;n10</title>
<path fill="none" stroke="#64748b" d="M543,-231.7C543,-223.47 543,-213.48 543,-204.42"/>
<polygon fill="#64748b" stroke="#64748b" points="545.45,-204.62 543,-197.62 540.55,-204.62 545.45,-204.62"/>
</g>
<!-- n13 -->
<g id="node14" class="node">
<title>n13</title>
<g id="a_node14"><a xlink:href="vscode://vscode-remote/wsl+Ubuntu/home/gavin/statlib/Statlib/CoxChangePoint/SpectralTheorem.lean:265" xlink:title="lemma · Statlib/CoxChangePoint/SpectralTheorem.lean:265" target="_blank">
<path fill="#eef2f6" stroke="#94a3b8" d="M372.05,-340C372.05,-340 199.95,-340 199.95,-340 193.95,-340 187.95,-334 187.95,-328 187.95,-328 187.95,-316 187.95,-316 187.95,-310 193.95,-304 199.95,-304 199.95,-304 372.05,-304 372.05,-304 378.05,-304 384.05,-310 384.05,-316 384.05,-316 384.05,-328 384.05,-328 384.05,-334 378.05,-340 372.05,-340"/>
<text xml:space="preserve" text-anchor="middle" x="286" y="-319" font-family="Helvetica,sans-Serif" font-size="10.00">InfiniteDimSpectralData.lamClip_nonneg</text>
</a>
</g>
</g>
<!-- n13&#45;&gt;n8 -->
<g id="edge16" class="edge">
<title>n13&#45;&gt;n8</title>
<path fill="none" stroke="#64748b" d="M222.91,-303.57C205.7,-295.61 189.06,-284.2 179,-268 170.56,-254.41 171.31,-246.03 179,-232 186.21,-218.84 198.23,-208.48 210.91,-200.54"/>
<polygon fill="#64748b" stroke="#64748b" points="211.9,-202.8 216.7,-197.14 209.42,-198.57 211.9,-202.8"/>
</g>
<!-- n13&#45;&gt;n9 -->
<g id="edge17" class="edge">
<title>n13&#45;&gt;n9</title>
<path fill="none" stroke="#64748b" d="M315.6,-303.63C329.12,-294.46 344.44,-282.17 355,-268 369.14,-249.02 378.1,-223.45 383.24,-204.59"/>
<polygon fill="#64748b" stroke="#64748b" points="385.59,-205.3 384.97,-197.91 380.85,-204.08 385.59,-205.3"/>
</g>
<!-- n13&#45;&gt;n10 -->
<g id="edge18" class="edge">
<title>n13&#45;&gt;n10</title>
<path fill="none" stroke="#64748b" d="M317.51,-303.59C364.65,-277.54 453.43,-228.49 504.4,-200.33"/>
<polygon fill="#64748b" stroke="#64748b" points="505.36,-202.59 510.31,-197.06 502.99,-198.3 505.36,-202.59"/>
</g>
<!-- n13&#45;&gt;n11 -->
<g id="edge19" class="edge">
<title>n13&#45;&gt;n11</title>
<path fill="none" stroke="#64748b" d="M281.3,-303.7C279.05,-295.39 276.3,-285.28 273.82,-276.14"/>
<polygon fill="#64748b" stroke="#64748b" points="276.24,-275.68 272.04,-269.57 271.51,-276.96 276.24,-275.68"/>
</g>
<!-- n14 -->
<g id="node15" class="node">
<title>n14</title>
<g id="a_node15"><a xlink:href="vscode://vscode-remote/wsl+Ubuntu/home/gavin/statlib/Statlib/CoxChangePoint/SpectralTheorem.lean:253" xlink:title="lemma · Statlib/CoxChangePoint/SpectralTheorem.lean:253" target="_blank">
<path fill="#eef2f6" stroke="#94a3b8" d="M598.43,-340C598.43,-340 433.57,-340 433.57,-340 427.57,-340 421.57,-334 421.57,-328 421.57,-328 421.57,-316 421.57,-316 421.57,-310 427.57,-304 433.57,-304 433.57,-304 598.43,-304 598.43,-304 604.43,-304 610.43,-310 610.43,-316 610.43,-316 610.43,-328 610.43,-328 610.43,-334 604.43,-340 598.43,-340"/>
<text xml:space="preserve" text-anchor="middle" x="516" y="-319" font-family="Helvetica,sans-Serif" font-size="10.00">InfiniteDimSpectralData.phiRepr_meas</text>
</a>
</g>
</g>
<!-- n14&#45;&gt;n8 -->
<g id="edge20" class="edge">
<title>n14&#45;&gt;n8</title>
<path fill="none" stroke="#64748b" d="M484.85,-303.59C438.26,-277.54 350.53,-228.49 300.15,-200.33"/>
<polygon fill="#64748b" stroke="#64748b" points="301.63,-198.35 294.32,-197.07 299.24,-202.63 301.63,-198.35"/>
</g>
<!-- n14&#45;&gt;n9 -->
<g id="edge21" class="edge">
<title>n14&#45;&gt;n9</title>
<path fill="none" stroke="#64748b" d="M493.79,-303.68C481.73,-293.81 466.91,-280.87 455,-268 436.08,-247.56 417.45,-221.77 404.84,-203.23"/>
<polygon fill="#64748b" stroke="#64748b" points="406.93,-201.95 400.99,-197.51 402.86,-204.68 406.93,-201.95"/>
</g>
<!-- n14&#45;&gt;n10 -->
<g id="edge22" class="edge">
<title>n14&#45;&gt;n10</title>
<path fill="none" stroke="#64748b" d="M586.1,-303.53C603.72,-295.65 620.57,-284.29 631,-268 639.63,-254.53 638.87,-245.93 631,-232 623.45,-218.64 611.03,-208.27 597.87,-200.39"/>
<polygon fill="#64748b" stroke="#64748b" points="599.13,-198.29 591.83,-197.01 596.74,-202.57 599.13,-198.29"/>
</g>
<!-- n14&#45;&gt;n12 -->
<g id="edge23" class="edge">
<title>n14&#45;&gt;n12</title>
<path fill="none" stroke="#64748b" d="M522.67,-303.7C525.91,-295.3 529.86,-285.07 533.41,-275.86"/>
<polygon fill="#64748b" stroke="#64748b" points="535.62,-276.93 535.86,-269.52 531.05,-275.17 535.62,-276.93"/>
</g>
<!-- n15 -->
<g id="node16" class="node">
<title>n15</title>
<g id="a_node16"><a xlink:href="vscode://vscode-remote/wsl+Ubuntu/home/gavin/statlib/Statlib/CoxChangePoint/SpectralTheorem.lean:282" xlink:title="noncomputable def · Statlib/CoxChangePoint/SpectralTheorem.lean:282" target="_blank">
<path fill="#d6e9ff" stroke="#3b82f6" stroke-width="3" d="M368.7,-412C368.7,-412 203.3,-412 203.3,-412 197.3,-412 191.3,-406 191.3,-400 191.3,-400 191.3,-388 191.3,-388 191.3,-382 197.3,-376 203.3,-376 203.3,-376 368.7,-376 368.7,-376 374.7,-376 380.7,-382 380.7,-388 380.7,-388 380.7,-400 380.7,-400 380.7,-406 374.7,-412 368.7,-412"/>
<text xml:space="preserve" text-anchor="middle" x="286" y="-391" font-family="Helvetica,sans-Serif" font-size="10.00">InfiniteDimSpectralData.toEigensystem</text>
</a>
</g>
</g>
<!-- n15&#45;&gt;n2 -->
<g id="edge28" class="edge">
<title>n15&#45;&gt;n2</title>
<path fill="none" stroke="#64748b" d="M190.06,-384.72C129.08,-377.25 58.13,-363.66 39,-340 24.57,-322.14 31.29,-295.51 39.65,-276.03"/>
<polygon fill="#64748b" stroke="#64748b" points="41.81,-277.18 42.51,-269.8 37.36,-275.14 41.81,-277.18"/>
</g>
<!-- n15&#45;&gt;n3 -->
<g id="edge24" class="edge">
<title>n15&#45;&gt;n3</title>
<path fill="none" stroke="#64748b" d="M233.98,-374.52C204.29,-363.96 167.28,-350.81 138.08,-340.44"/>
<polygon fill="#64748b" stroke="#64748b" points="138.91,-338.13 131.49,-338.1 137.27,-342.75 138.91,-338.13"/>
</g>
<!-- n15&#45;&gt;n8 -->
<g id="edge25" class="edge">
<title>n15&#45;&gt;n8</title>
<path fill="none" stroke="#64748b" d="M211.97,-374.55C195.05,-366.73 179.09,-355.65 169,-340 142.99,-299.66 144.88,-273.5 169,-232 177.43,-217.5 191.47,-206.64 206.12,-198.65"/>
<polygon fill="#64748b" stroke="#64748b" points="206.87,-201.02 211.99,-195.65 204.64,-196.65 206.87,-201.02"/>
</g>
<!-- n15&#45;&gt;n9 -->
<g id="edge26" class="edge">
<title>n15&#45;&gt;n9</title>
<path fill="none" stroke="#64748b" d="M351.33,-374.51C367.73,-366.61 383.38,-355.5 393,-340 418.96,-298.17 407.32,-237.72 397.52,-204.05"/>
<polygon fill="#64748b" stroke="#64748b" points="399.92,-203.52 395.53,-197.54 395.23,-204.95 399.92,-203.52"/>
</g>
<!-- n15&#45;&gt;n10 -->
<g id="edge27" class="edge">
<title>n15&#45;&gt;n10</title>
<path fill="none" stroke="#64748b" d="M382.02,-390.32C470.57,-385.75 593.24,-373.39 627,-340 661.34,-306.04 663.55,-273.59 639,-232 630.97,-218.39 618.05,-208.03 604.25,-200.25"/>
<polygon fill="#64748b" stroke="#64748b" points="605.65,-198.22 598.32,-197.12 603.37,-202.55 605.65,-198.22"/>
</g>
<!-- n15&#45;&gt;n11 -->
<g id="edge29" class="edge">
<title>n15&#45;&gt;n11</title>
<path fill="none" stroke="#64748b" d="M220.67,-374.51C204.27,-366.61 188.62,-355.5 179,-340 170.56,-326.41 171.13,-317.93 179,-304 186.55,-290.64 198.97,-280.27 212.13,-272.39"/>
<polygon fill="#64748b" stroke="#64748b" points="213.26,-274.57 218.17,-269.01 210.87,-270.29 213.26,-274.57"/>
</g>
<!-- n15&#45;&gt;n12 -->
<g id="edge30" class="edge">
<title>n15&#45;&gt;n12</title>
<path fill="none" stroke="#64748b" d="M381.84,-391.11C469.17,-387.12 588.98,-375.18 619,-340 629.39,-327.83 626.4,-318.19 619,-304 612.34,-291.24 601.06,-280.93 589.2,-272.91"/>
<polygon fill="#64748b" stroke="#64748b" points="590.68,-270.95 583.45,-269.27 588.05,-275.09 590.68,-270.95"/>
</g>
<!-- n15&#45;&gt;n13 -->
<g id="edge31" class="edge">
<title>n15&#45;&gt;n13</title>
<path fill="none" stroke="#64748b" d="M286,-374.61C286,-366.59 286,-357.05 286,-348.37"/>
<polygon fill="#64748b" stroke="#64748b" points="288.45,-348.58 286,-341.58 283.55,-348.58 288.45,-348.58"/>
</g>
<!-- n15&#45;&gt;n14 -->
<g id="edge32" class="edge">
<title>n15&#45;&gt;n14</title>
<path fill="none" stroke="#64748b" d="M346.73,-374.52C378.89,-364.73 418.39,-352.71 451.15,-342.74"/>
<polygon fill="#64748b" stroke="#64748b" points="451.46,-345.2 457.44,-340.82 450.03,-340.52 451.46,-345.2"/>
</g>
</g>
</svg>
