<?xml version="1.0" encoding="UTF-8" standalone="no"?>
<!DOCTYPE svg PUBLIC "-//W3C//DTD SVG 1.1//EN"
 "http://www.w3.org/Graphics/SVG/1.1/DTD/svg11.dtd">
<!-- Generated by graphviz version 15.0.0 (20260523.1842)
 -->
<!-- Title: IsCoxMLE.argmax Pages: 1 -->
<svg width="406pt" height="626pt"
 viewBox="0.00 0.00 406.00 626.00" xmlns="http://www.w3.org/2000/svg" xmlns:xlink="http://www.w3.org/1999/xlink">
<g id="graph0" class="graph" transform="scale(1 1) rotate(0) translate(4 622)">
<title>IsCoxMLE.argmax</title>
<polygon fill="white" stroke="none" points="-4,4 -4,-622 402,-622 402,4 -4,4"/>
<text xml:space="preserve" text-anchor="middle" x="199" y="-601.4" font-family="Helvetica,sans-Serif" font-size="14.00">Proof narrative — IsCoxMLE.argmax &#160;(12 decls)</text>
<g id="clust1" class="cluster">
<title>cluster_0</title>
<path fill="none" stroke="#cbd5e1" stroke-dasharray="5,2" d="M20,-8C20,-8 378,-8 378,-8 384,-8 390,-14 390,-20 390,-20 390,-573.2 390,-573.2 390,-579.2 384,-585.2 378,-585.2 378,-585.2 20,-585.2 20,-585.2 14,-585.2 8,-579.2 8,-573.2 8,-573.2 8,-20 8,-20 8,-14 14,-8 20,-8"/>
<text xml:space="preserve" text-anchor="middle" x="199" y="-571.3" font-family="Helvetica,sans-Serif" font-size="11.00">CoxChangePoint</text>
</g>
<!-- n0 -->
<g id="node1" class="node">
<title>n0</title>
<g id="a_node1"><a xlink:href="vscode://vscode-remote/wsl+Ubuntu/home/gavin/statlib/Statlib/CoxChangePoint/Foundation.lean:38" xlink:title="structure · Statlib/CoxChangePoint/Foundation.lean:38" target="_blank">
<path fill="#e8dcff" stroke="#8b5cf6" d="M287,-52C287,-52 257,-52 257,-52 251,-52 245,-46 245,-40 245,-40 245,-28 245,-28 245,-22 251,-16 257,-16 257,-16 287,-16 287,-16 293,-16 299,-22 299,-28 299,-28 299,-40 299,-40 299,-46 293,-52 287,-52"/>
<text xml:space="preserve" text-anchor="middle" x="272" y="-31" font-family="Helvetica,sans-Serif" font-size="10.00">CoxObs</text>
</a>
</g>
</g>
<!-- n1 -->
<g id="node2" class="node">
<title>n1</title>
<g id="a_node2"><a xlink:href="vscode://vscode-remote/wsl+Ubuntu/home/gavin/statlib/Statlib/CoxChangePoint/Foundation.lean:127" xlink:title="def · Statlib/CoxChangePoint/Foundation.lean:127" target="_blank">
<path fill="#d6e9ff" stroke="#3b82f6" d="M293,-340C293,-340 263,-340 263,-340 257,-340 251,-334 251,-328 251,-328 251,-316 251,-316 251,-310 257,-304 263,-304 263,-304 293,-304 293,-304 299,-304 305,-310 305,-316 305,-316 305,-328 305,-328 305,-334 299,-340 293,-340"/>
<text xml:space="preserve" text-anchor="middle" x="278" y="-319" font-family="Helvetica,sans-Serif" font-size="10.00">Sample</text>
</a>
</g>
</g>
<!-- n1&#45;&gt;n0 -->
<g id="edge1" class="edge">
<title>n1&#45;&gt;n0</title>
<path fill="none" stroke="#64748b" d="M305.34,-307.62C320.33,-298.67 337.53,-285.35 346,-268 381.11,-196.12 382.56,-159.16 346,-88 337.62,-71.69 321.64,-59.28 306.67,-50.58"/>
<polygon fill="#64748b" stroke="#64748b" points="308.08,-48.56 300.76,-47.34 305.72,-52.86 308.08,-48.56"/>
</g>
<!-- n2 -->
<g id="node3" class="node">
<title>n2</title>
<g id="a_node3"><a xlink:href="vscode://vscode-remote/wsl+Ubuntu/home/gavin/statlib/Statlib/CoxChangePoint/Foundation.lean:57" xlink:title="structure · Statlib/CoxChangePoint/Foundation.lean:57" target="_blank">
<path fill="#e8dcff" stroke="#8b5cf6" d="M96.62,-52C96.62,-52 57.38,-52 57.38,-52 51.38,-52 45.38,-46 45.38,-40 45.38,-40 45.38,-28 45.38,-28 45.38,-22 51.38,-16 57.38,-16 57.38,-16 96.62,-16 96.62,-16 102.62,-16 108.62,-22 108.62,-28 108.62,-28 108.62,-40 108.62,-40 108.62,-46 102.62,-52 96.62,-52"/>
<text xml:space="preserve" text-anchor="middle" x="77" y="-31" font-family="Helvetica,sans-Serif" font-size="10.00">CoxParam</text>
</a>
</g>
</g>
<!-- n3 -->
<g id="node4" class="node">
<title>n3</title>
<g id="a_node4"><a xlink:href="vscode://vscode-remote/wsl+Ubuntu/home/gavin/statlib/Statlib/CoxChangePoint/Foundation.lean:68" xlink:title="noncomputable def · Statlib/CoxChangePoint/Foundation.lean:68" target="_blank">
<path fill="#d6e9ff" stroke="#3b82f6" d="M178,-124C178,-124 148,-124 148,-124 142,-124 136,-118 136,-112 136,-112 136,-100 136,-100 136,-94 142,-88 148,-88 148,-88 178,-88 178,-88 184,-88 190,-94 190,-100 190,-100 190,-112 190,-112 190,-118 184,-124 178,-124"/>
<text xml:space="preserve" text-anchor="middle" x="163" y="-103" font-family="Helvetica,sans-Serif" font-size="10.00">g</text>
</a>
</g>
</g>
<!-- n3&#45;&gt;n0 -->
<g id="edge3" class="edge">
<title>n3&#45;&gt;n0</title>
<path fill="none" stroke="#64748b" d="M190.22,-87.52C204.77,-78.18 222.81,-66.59 238.24,-56.68"/>
<polygon fill="#64748b" stroke="#64748b" points="239.28,-58.92 243.85,-53.08 236.64,-54.8 239.28,-58.92"/>
</g>
<!-- n3&#45;&gt;n2 -->
<g id="edge2" class="edge">
<title>n3&#45;&gt;n2</title>
<path fill="none" stroke="#64748b" d="M141.74,-87.7C130.58,-78.61 116.76,-67.36 104.76,-57.6"/>
<polygon fill="#64748b" stroke="#64748b" points="106.46,-55.82 99.49,-53.3 103.37,-59.62 106.46,-55.82"/>
</g>
<!-- n4 -->
<g id="node5" class="node">
<title>n4</title>
<g id="a_node5"><a xlink:href="vscode://vscode-remote/wsl+Ubuntu/home/gavin/statlib/Statlib/CoxChangePoint/Foundation.lean:89" xlink:title="noncomputable def · Statlib/CoxChangePoint/Foundation.lean:89" target="_blank">
<path fill="#d6e9ff" stroke="#3b82f6" d="M310,-124C310,-124 280,-124 280,-124 274,-124 268,-118 268,-112 268,-112 268,-100 268,-100 268,-94 274,-88 280,-88 280,-88 310,-88 310,-88 316,-88 322,-94 322,-100 322,-100 322,-112 322,-112 322,-118 316,-124 310,-124"/>
<text xml:space="preserve" text-anchor="middle" x="295" y="-103" font-family="Helvetica,sans-Serif" font-size="10.00">atRisk</text>
</a>
</g>
</g>
<!-- n4&#45;&gt;n0 -->
<g id="edge4" class="edge">
<title>n4&#45;&gt;n0</title>
<path fill="none" stroke="#64748b" d="M289.31,-87.7C286.59,-79.39 283.26,-69.28 280.26,-60.14"/>
<polygon fill="#64748b" stroke="#64748b" points="282.61,-59.43 278.09,-53.54 277.95,-60.96 282.61,-59.43"/>
</g>
<!-- n5 -->
<g id="node6" class="node">
<title>n5</title>
<g id="a_node6"><a xlink:href="vscode://vscode-remote/wsl+Ubuntu/home/gavin/statlib/Statlib/CoxChangePoint/Foundation.lean:75" xlink:title="noncomputable def · Statlib/CoxChangePoint/Foundation.lean:75" target="_blank">
<path fill="#d6e9ff" stroke="#3b82f6" d="M218,-196C218,-196 188,-196 188,-196 182,-196 176,-190 176,-184 176,-184 176,-172 176,-172 176,-166 182,-160 188,-160 188,-160 218,-160 218,-160 224,-160 230,-166 230,-172 230,-172 230,-184 230,-184 230,-190 224,-196 218,-196"/>
<text xml:space="preserve" text-anchor="middle" x="203" y="-175" font-family="Helvetica,sans-Serif" font-size="10.00">expG</text>
</a>
</g>
</g>
<!-- n5&#45;&gt;n0 -->
<g id="edge6" class="edge">
<title>n5&#45;&gt;n0</title>
<path fill="none" stroke="#64748b" d="M210.59,-159.81C218.62,-141.79 231.79,-112.71 244,-88 248.63,-78.62 253.95,-68.43 258.69,-59.52"/>
<polygon fill="#64748b" stroke="#64748b" points="260.82,-60.73 261.97,-53.4 256.5,-58.41 260.82,-60.73"/>
</g>
<!-- n5&#45;&gt;n2 -->
<g id="edge5" class="edge">
<title>n5&#45;&gt;n2</title>
<path fill="none" stroke="#64748b" d="M207.26,-159.58C210.92,-140.29 213.56,-109.15 199,-88 180.41,-60.99 144.91,-47.64 116.98,-41.1"/>
<polygon fill="#64748b" stroke="#64748b" points="117.79,-38.77 110.43,-39.68 116.75,-43.56 117.79,-38.77"/>
</g>
<!-- n5&#45;&gt;n3 -->
<g id="edge7" class="edge">
<title>n5&#45;&gt;n3</title>
<path fill="none" stroke="#64748b" d="M193.11,-159.7C188.22,-151.14 182.23,-140.66 176.89,-131.3"/>
<polygon fill="#64748b" stroke="#64748b" points="179.13,-130.28 173.52,-125.42 174.87,-132.71 179.13,-130.28"/>
</g>
<!-- n6 -->
<g id="node7" class="node">
<title>n6</title>
<g id="a_node7"><a xlink:href="vscode://vscode-remote/wsl+Ubuntu/home/gavin/statlib/Statlib/CoxChangePoint/Foundation.lean:93" xlink:title="noncomputable def · Statlib/CoxChangePoint/Foundation.lean:93" target="_blank">
<path fill="#d6e9ff" stroke="#3b82f6" d="M218,-268C218,-268 188,-268 188,-268 182,-268 176,-262 176,-256 176,-256 176,-244 176,-244 176,-238 182,-232 188,-232 188,-232 218,-232 218,-232 224,-232 230,-238 230,-244 230,-244 230,-256 230,-256 230,-262 224,-268 218,-268"/>
<text xml:space="preserve" text-anchor="middle" x="203" y="-247" font-family="Helvetica,sans-Serif" font-size="10.00">riskSum</text>
</a>
</g>
</g>
<!-- n6&#45;&gt;n0 -->
<g id="edge8" class="edge">
<title>n6&#45;&gt;n0</title>
<path fill="none" stroke="#64748b" d="M217.3,-231.91C224.87,-222.01 233.67,-208.96 239,-196 257.55,-150.85 248.74,-135.73 259,-88 260.96,-78.88 263.34,-68.92 265.52,-60.13"/>
<polygon fill="#64748b" stroke="#64748b" points="267.83,-60.98 267.17,-53.6 263.08,-59.79 267.83,-60.98"/>
</g>
<!-- n6&#45;&gt;n2 -->
<g id="edge9" class="edge">
<title>n6&#45;&gt;n2</title>
<path fill="none" stroke="#64748b" d="M190.61,-231.59C183.48,-221.36 174.48,-208.11 167,-196 137.72,-148.58 106.65,-91.22 89.76,-59.36"/>
<polygon fill="#64748b" stroke="#64748b" points="92.13,-58.58 86.69,-53.54 87.79,-60.87 92.13,-58.58"/>
</g>
<!-- n6&#45;&gt;n4 -->
<g id="edge10" class="edge">
<title>n6&#45;&gt;n4</title>
<path fill="none" stroke="#64748b" d="M222.57,-231.69C232.83,-221.92 245.07,-209.08 254,-196 267.7,-175.93 278.88,-150.54 286.08,-132.02"/>
<polygon fill="#64748b" stroke="#64748b" points="288.29,-133.12 288.48,-125.71 283.7,-131.38 288.29,-133.12"/>
</g>
<!-- n6&#45;&gt;n5 -->
<g id="edge11" class="edge">
<title>n6&#45;&gt;n5</title>
<path fill="none" stroke="#64748b" d="M203,-231.7C203,-223.47 203,-213.48 203,-204.42"/>
<polygon fill="#64748b" stroke="#64748b" points="205.45,-204.62 203,-197.62 200.55,-204.62 205.45,-204.62"/>
</g>
<!-- n7 -->
<g id="node8" class="node">
<title>n7</title>
<g id="a_node8"><a xlink:href="vscode://vscode-remote/wsl+Ubuntu/home/gavin/statlib/Statlib/CoxChangePoint/Foundation.lean:104" xlink:title="noncomputable def · Statlib/CoxChangePoint/Foundation.lean:104" target="_blank">
<path fill="#d6e9ff" stroke="#3b82f6" d="M221.36,-340C221.36,-340 142.64,-340 142.64,-340 136.64,-340 130.64,-334 130.64,-328 130.64,-328 130.64,-316 130.64,-316 130.64,-310 136.64,-304 142.64,-304 142.64,-304 221.36,-304 221.36,-304 227.36,-304 233.36,-310 233.36,-316 233.36,-316 233.36,-328 233.36,-328 233.36,-334 227.36,-340 221.36,-340"/>
<text xml:space="preserve" text-anchor="middle" x="182" y="-319" font-family="Helvetica,sans-Serif" font-size="10.00">logPartialLikelihood</text>
</a>
</g>
</g>
<!-- n7&#45;&gt;n0 -->
<g id="edge12" class="edge">
<title>n7&#45;&gt;n0</title>
<path fill="none" stroke="#64748b" d="M202.61,-303.57C237.89,-272.1 308.27,-201.8 331,-124 335.49,-108.64 337.52,-102.61 331,-88 325.62,-75.93 315.98,-65.46 306.03,-57.09"/>
<polygon fill="#64748b" stroke="#64748b" points="307.68,-55.27 300.68,-52.84 304.63,-59.11 307.68,-55.27"/>
</g>
<!-- n7&#45;&gt;n2 -->
<g id="edge13" class="edge">
<title>n7&#45;&gt;n2</title>
<path fill="none" stroke="#64748b" d="M174.4,-303.87C169.85,-293.52 164,-280.04 159,-268 132.63,-204.42 124,-189.22 102,-124 94.86,-102.83 88.09,-78.36 83.4,-60.45"/>
<polygon fill="#64748b" stroke="#64748b" points="85.78,-59.85 81.65,-53.69 81.03,-61.08 85.78,-59.85"/>
</g>
<!-- n7&#45;&gt;n3 -->
<g id="edge14" class="edge">
<title>n7&#45;&gt;n3</title>
<path fill="none" stroke="#64748b" d="M175.87,-303.58C172.58,-293.35 168.83,-280.1 167,-268 159.8,-220.49 160.47,-164.22 161.68,-132.36"/>
<polygon fill="#64748b" stroke="#64748b" points="164.12,-132.65 161.97,-125.56 159.22,-132.45 164.12,-132.65"/>
</g>
<!-- n7&#45;&gt;n6 -->
<g id="edge15" class="edge">
<title>n7&#45;&gt;n6</title>
<path fill="none" stroke="#64748b" d="M187.19,-303.7C189.68,-295.39 192.72,-285.28 195.46,-276.14"/>
<polygon fill="#64748b" stroke="#64748b" points="197.77,-276.96 197.43,-269.55 193.08,-275.55 197.77,-276.96"/>
</g>
<!-- n8 -->
<g id="node9" class="node">
<title>n8</title>
<g id="a_node9"><a xlink:href="vscode://vscode-remote/wsl+Ubuntu/home/gavin/statlib/Statlib/CoxChangePoint/ScoreEquation.lean:70" xlink:title="def · Statlib/CoxChangePoint/ScoreEquation.lean:70" target="_blank">
<path fill="#d6e9ff" stroke="#3b82f6" d="M171.63,-412C171.63,-412 92.37,-412 92.37,-412 86.37,-412 80.37,-406 80.37,-400 80.37,-400 80.37,-388 80.37,-388 80.37,-382 86.37,-376 92.37,-376 92.37,-376 171.63,-376 171.63,-376 177.63,-376 183.63,-382 183.63,-388 183.63,-388 183.63,-400 183.63,-400 183.63,-406 177.63,-412 171.63,-412"/>
<text xml:space="preserve" text-anchor="middle" x="132" y="-391" font-family="Helvetica,sans-Serif" font-size="10.00">IsLikelihoodArgmax</text>
</a>
</g>
</g>
<!-- n8&#45;&gt;n0 -->
<g id="edge16" class="edge">
<title>n8&#45;&gt;n0</title>
<path fill="none" stroke="#64748b" d="M125.3,-375.75C107.09,-325.73 62.22,-178.4 127,-88 151.9,-53.25 202.05,-41.23 236.33,-37.1"/>
<polygon fill="#64748b" stroke="#64748b" points="236.47,-39.55 243.17,-36.38 235.95,-34.68 236.47,-39.55"/>
</g>
<!-- n8&#45;&gt;n2 -->
<g id="edge17" class="edge">
<title>n8&#45;&gt;n2</title>
<path fill="none" stroke="#64748b" d="M110.44,-375.78C82.41,-351.28 37,-303.5 37,-251 37,-251 37,-251 37,-177 37,-136.89 40,-126.28 52,-88 54.98,-78.49 59.35,-68.49 63.59,-59.77"/>
<polygon fill="#64748b" stroke="#64748b" points="65.78,-60.89 66.74,-53.53 61.4,-58.68 65.78,-60.89"/>
</g>
<!-- n8&#45;&gt;n7 -->
<g id="edge18" class="edge">
<title>n8&#45;&gt;n7</title>
<path fill="none" stroke="#64748b" d="M144.36,-375.7C150.54,-367.05 158.11,-356.45 164.84,-347.03"/>
<polygon fill="#64748b" stroke="#64748b" points="166.83,-348.46 168.9,-341.34 162.84,-345.61 166.83,-348.46"/>
</g>
<!-- n9 -->
<g id="node10" class="node">
<title>n9</title>
<g id="a_node10"><a xlink:href="vscode://vscode-remote/wsl+Ubuntu/home/gavin/statlib/Statlib/CoxChangePoint/Foundation.lean:135" xlink:title="def · Statlib/CoxChangePoint/Foundation.lean:135" target="_blank">
<path fill="#d6e9ff" stroke="#3b82f6" d="M293,-412C293,-412 263,-412 263,-412 257,-412 251,-406 251,-400 251,-400 251,-388 251,-388 251,-382 257,-376 263,-376 263,-376 293,-376 293,-376 299,-376 305,-382 305,-388 305,-388 305,-400 305,-400 305,-406 299,-412 293,-412"/>
<text xml:space="preserve" text-anchor="middle" x="278" y="-391" font-family="Helvetica,sans-Serif" font-size="10.00">realize</text>
</a>
</g>
</g>
<!-- n9&#45;&gt;n0 -->
<g id="edge20" class="edge">
<title>n9&#45;&gt;n0</title>
<path fill="none" stroke="#64748b" d="M302.15,-375.56C332.59,-351.35 381,-304.45 381,-251 381,-251 381,-251 381,-177 381,-136.25 383.1,-120.85 359,-88 345.91,-70.16 324.83,-57.1 306.7,-48.4"/>
<polygon fill="#64748b" stroke="#64748b" points="307.9,-46.26 300.52,-45.57 305.87,-50.71 307.9,-46.26"/>
</g>
<!-- n9&#45;&gt;n1 -->
<g id="edge19" class="edge">
<title>n9&#45;&gt;n1</title>
<path fill="none" stroke="#64748b" d="M278,-375.7C278,-367.47 278,-357.48 278,-348.42"/>
<polygon fill="#64748b" stroke="#64748b" points="280.45,-348.62 278,-341.62 275.55,-348.62 280.45,-348.62"/>
</g>
<!-- n10 -->
<g id="node11" class="node">
<title>n10</title>
<g id="a_node11"><a xlink:href="vscode://vscode-remote/wsl+Ubuntu/home/gavin/statlib/Statlib/CoxChangePoint/ScoreEquation.lean:90" xlink:title="def · Statlib/CoxChangePoint/ScoreEquation.lean:90" target="_blank">
<path fill="#d6e9ff" stroke="#3b82f6" d="M201.06,-484C201.06,-484 162.94,-484 162.94,-484 156.94,-484 150.94,-478 150.94,-472 150.94,-472 150.94,-460 150.94,-460 150.94,-454 156.94,-448 162.94,-448 162.94,-448 201.06,-448 201.06,-448 207.06,-448 213.06,-454 213.06,-460 213.06,-460 213.06,-472 213.06,-472 213.06,-478 207.06,-484 201.06,-484"/>
<text xml:space="preserve" text-anchor="middle" x="182" y="-463" font-family="Helvetica,sans-Serif" font-size="10.00">IsCoxMLE</text>
</a>
</g>
</g>
<!-- n10&#45;&gt;n1 -->
<g id="edge21" class="edge">
<title>n10&#45;&gt;n1</title>
<path fill="none" stroke="#64748b" d="M188.89,-447.75C196.72,-429.17 210.57,-399.16 227,-376 234.45,-365.51 243.93,-355.07 252.69,-346.26"/>
<polygon fill="#64748b" stroke="#64748b" points="254.26,-348.16 257.53,-341.5 250.82,-344.66 254.26,-348.16"/>
</g>
<!-- n10&#45;&gt;n2 -->
<g id="edge22" class="edge">
<title>n10&#45;&gt;n2</title>
<path fill="none" stroke="#64748b" d="M150.52,-458.47C124.96,-451.46 90.15,-437.68 71,-412 47.07,-379.9 57,-363.04 57,-323 57,-323 57,-323 57,-177 57,-135.94 65.3,-88.84 71.21,-60.53"/>
<polygon fill="#64748b" stroke="#64748b" points="73.57,-61.22 72.64,-53.86 68.78,-60.19 73.57,-61.22"/>
</g>
<!-- n10&#45;&gt;n8 -->
<g id="edge23" class="edge">
<title>n10&#45;&gt;n8</title>
<path fill="none" stroke="#64748b" d="M169.64,-447.7C163.46,-439.05 155.89,-428.45 149.16,-419.03"/>
<polygon fill="#64748b" stroke="#64748b" points="151.16,-417.61 145.1,-413.34 147.17,-420.46 151.16,-417.61"/>
</g>
<!-- n10&#45;&gt;n9 -->
<g id="edge24" class="edge">
<title>n10&#45;&gt;n9</title>
<path fill="none" stroke="#64748b" d="M205.73,-447.7C218.31,-438.53 233.9,-427.16 247.38,-417.33"/>
<polygon fill="#64748b" stroke="#64748b" points="248.77,-419.34 252.99,-413.24 245.89,-415.38 248.77,-419.34"/>
</g>
<!-- n11 -->
<g id="node12" class="node">
<title>n11</title>
<g id="a_node12"><a xlink:href="vscode://vscode-remote/wsl+Ubuntu/home/gavin/statlib/Statlib/CoxChangePoint/ScoreEquation.lean:94" xlink:title="lemma · Statlib/CoxChangePoint/ScoreEquation.lean:94" target="_blank">
<path fill="#eef2f6" stroke="#94a3b8" stroke-width="3" d="M219.12,-556C219.12,-556 144.88,-556 144.88,-556 138.88,-556 132.88,-550 132.88,-544 132.88,-544 132.88,-532 132.88,-532 132.88,-526 138.88,-520 144.88,-520 144.88,-520 219.12,-520 219.12,-520 225.12,-520 231.12,-526 231.12,-532 231.12,-532 231.12,-544 231.12,-544 231.12,-550 225.12,-556 219.12,-556"/>
<text xml:space="preserve" text-anchor="middle" x="182" y="-535" font-family="Helvetica,sans-Serif" font-size="10.00">IsCoxMLE.argmax</text>
</a>
</g>
</g>
<!-- n11&#45;&gt;n1 -->
<g id="edge25" class="edge">
<title>n11&#45;&gt;n1</title>
<path fill="none" stroke="#64748b" d="M199.15,-518.74C207.29,-509.1 216.42,-496.66 222,-484 241.67,-439.32 223.45,-421.15 242,-376 246.2,-365.77 252.57,-355.49 258.79,-346.75"/>
<polygon fill="#64748b" stroke="#64748b" points="260.62,-348.4 262.8,-341.31 256.67,-345.49 260.62,-348.4"/>
</g>
<!-- n11&#45;&gt;n2 -->
<g id="edge26" class="edge">
<title>n11&#45;&gt;n2</title>
<path fill="none" stroke="#64748b" d="M132.05,-518.59C83.48,-497.08 17,-456.41 17,-395 17,-395 17,-395 17,-177 17,-136.36 20.95,-124.89 38,-88 42.69,-77.85 49.49,-67.72 56.11,-59.07"/>
<polygon fill="#64748b" stroke="#64748b" points="57.96,-60.68 60.39,-53.67 54.12,-57.64 57.96,-60.68"/>
</g>
<!-- n11&#45;&gt;n8 -->
<g id="edge28" class="edge">
<title>n11&#45;&gt;n8</title>
<path fill="none" stroke="#64748b" d="M164.46,-518.9C156.23,-509.3 147.12,-496.85 142,-484 133.94,-463.77 131.7,-439.03 131.33,-420.77"/>
<polygon fill="#64748b" stroke="#64748b" points="133.79,-420.88 131.29,-413.89 128.89,-420.91 133.79,-420.88"/>
</g>
<!-- n11&#45;&gt;n9 -->
<g id="edge29" class="edge">
<title>n11&#45;&gt;n9</title>
<path fill="none" stroke="#64748b" d="M204.81,-518.52C215.54,-509.01 227.94,-496.76 237,-484 251.08,-464.19 262.21,-438.77 269.3,-420.18"/>
<polygon fill="#64748b" stroke="#64748b" points="271.52,-421.24 271.66,-413.83 266.93,-419.54 271.52,-421.24"/>
</g>
<!-- n11&#45;&gt;n10 -->
<g id="edge27" class="edge">
<title>n11&#45;&gt;n10</title>
<path fill="none" stroke="#64748b" d="M182,-518.61C182,-510.59 182,-501.05 182,-492.37"/>
<polygon fill="#64748b" stroke="#64748b" points="184.45,-492.58 182,-485.58 179.55,-492.58 184.45,-492.58"/>
</g>
</g>
</svg>
