<?xml version="1.0" encoding="UTF-8" standalone="no"?>
<!DOCTYPE svg PUBLIC "-//W3C//DTD SVG 1.1//EN"
 "http://www.w3.org/Graphics/SVG/1.1/DTD/svg11.dtd">
<!-- Generated by graphviz version 15.0.0 (20260523.1842)
 -->
<!-- Title: measurableGn_self Pages: 1 -->
<svg width="466pt" height="698pt"
 viewBox="0.00 0.00 466.00 698.00" xmlns="http://www.w3.org/2000/svg" xmlns:xlink="http://www.w3.org/1999/xlink">
<g id="graph0" class="graph" transform="scale(1 1) rotate(0) translate(4 694)">
<title>measurableGn_self</title>
<polygon fill="white" stroke="none" points="-4,4 -4,-694 462,-694 462,4 -4,4"/>
<text xml:space="preserve" text-anchor="middle" x="229" y="-673.4" font-family="Helvetica,sans-Serif" font-size="14.00">Proof narrative — measurableGn_self &#160;(14 decls)</text>
<g id="clust1" class="cluster">
<title>cluster_0</title>
<path fill="none" stroke="#cbd5e1" stroke-dasharray="5,2" d="M20,-8C20,-8 438,-8 438,-8 444,-8 450,-14 450,-20 450,-20 450,-645.2 450,-645.2 450,-651.2 444,-657.2 438,-657.2 438,-657.2 20,-657.2 20,-657.2 14,-657.2 8,-651.2 8,-645.2 8,-645.2 8,-20 8,-20 8,-14 14,-8 20,-8"/>
<text xml:space="preserve" text-anchor="middle" x="229" y="-643.3" font-family="Helvetica,sans-Serif" font-size="11.00">CoxChangePoint</text>
</g>
<!-- n0 -->
<g id="node1" class="node">
<title>n0</title>
<g id="a_node1"><a xlink:href="vscode://vscode-remote/wsl+Ubuntu/home/gavin/statlib/Statlib/CoxChangePoint/Foundation.lean:38" xlink:title="structure · Statlib/CoxChangePoint/Foundation.lean:38" target="_blank">
<path fill="#e8dcff" stroke="#8b5cf6" d="M376,-52C376,-52 346,-52 346,-52 340,-52 334,-46 334,-40 334,-40 334,-28 334,-28 334,-22 340,-16 346,-16 346,-16 376,-16 376,-16 382,-16 388,-22 388,-28 388,-28 388,-40 388,-40 388,-46 382,-52 376,-52"/>
<text xml:space="preserve" text-anchor="middle" x="361" y="-31" font-family="Helvetica,sans-Serif" font-size="10.00">CoxObs</text>
</a>
</g>
</g>
<!-- n1 -->
<g id="node2" class="node">
<title>n1</title>
<g id="a_node2"><a xlink:href="vscode://vscode-remote/wsl+Ubuntu/home/gavin/statlib/Statlib/CoxChangePoint/Foundation.lean:127" xlink:title="def · Statlib/CoxChangePoint/Foundation.lean:127" target="_blank">
<path fill="#d6e9ff" stroke="#3b82f6" d="M430,-412C430,-412 400,-412 400,-412 394,-412 388,-406 388,-400 388,-400 388,-388 388,-388 388,-382 394,-376 400,-376 400,-376 430,-376 430,-376 436,-376 442,-382 442,-388 442,-388 442,-400 442,-400 442,-406 436,-412 430,-412"/>
<text xml:space="preserve" text-anchor="middle" x="415" y="-391" font-family="Helvetica,sans-Serif" font-size="10.00">Sample</text>
</a>
</g>
</g>
<!-- n1&#45;&gt;n0 -->
<g id="edge1" class="edge">
<title>n1&#45;&gt;n0</title>
<path fill="none" stroke="#64748b" d="M420.26,-375.7C427.86,-349.14 441,-296.61 441,-251 441,-251 441,-251 441,-177 441,-136.89 446.17,-122.67 426,-88 418.53,-75.16 406.7,-64.14 395.16,-55.53"/>
<polygon fill="#64748b" stroke="#64748b" points="396.8,-53.69 389.67,-51.62 393.95,-57.68 396.8,-53.69"/>
</g>
<!-- n2 -->
<g id="node3" class="node">
<title>n2</title>
<g id="a_node3"><a xlink:href="vscode://vscode-remote/wsl+Ubuntu/home/gavin/statlib/Statlib/CoxChangePoint/Foundation.lean:57" xlink:title="structure · Statlib/CoxChangePoint/Foundation.lean:57" target="_blank">
<path fill="#e8dcff" stroke="#8b5cf6" d="M116.62,-52C116.62,-52 77.38,-52 77.38,-52 71.38,-52 65.38,-46 65.38,-40 65.38,-40 65.38,-28 65.38,-28 65.38,-22 71.38,-16 77.38,-16 77.38,-16 116.62,-16 116.62,-16 122.62,-16 128.62,-22 128.62,-28 128.62,-28 128.62,-40 128.62,-40 128.62,-46 122.62,-52 116.62,-52"/>
<text xml:space="preserve" text-anchor="middle" x="97" y="-31" font-family="Helvetica,sans-Serif" font-size="10.00">CoxParam</text>
</a>
</g>
</g>
<!-- n3 -->
<g id="node4" class="node">
<title>n3</title>
<g id="a_node4"><a xlink:href="vscode://vscode-remote/wsl+Ubuntu/home/gavin/statlib/Statlib/CoxChangePoint/Foundation.lean:68" xlink:title="noncomputable def · Statlib/CoxChangePoint/Foundation.lean:68" target="_blank">
<path fill="#d6e9ff" stroke="#3b82f6" d="M218,-124C218,-124 188,-124 188,-124 182,-124 176,-118 176,-112 176,-112 176,-100 176,-100 176,-94 182,-88 188,-88 188,-88 218,-88 218,-88 224,-88 230,-94 230,-100 230,-100 230,-112 230,-112 230,-118 224,-124 218,-124"/>
<text xml:space="preserve" text-anchor="middle" x="203" y="-103" font-family="Helvetica,sans-Serif" font-size="10.00">g</text>
</a>
</g>
</g>
<!-- n3&#45;&gt;n0 -->
<g id="edge3" class="edge">
<title>n3&#45;&gt;n0</title>
<path fill="none" stroke="#64748b" d="M230.16,-92.97C256.73,-81.2 297.3,-63.22 326.21,-50.41"/>
<polygon fill="#64748b" stroke="#64748b" points="326.87,-52.8 332.28,-47.72 324.89,-48.32 326.87,-52.8"/>
</g>
<!-- n3&#45;&gt;n2 -->
<g id="edge2" class="edge">
<title>n3&#45;&gt;n2</title>
<path fill="none" stroke="#64748b" d="M176.53,-87.52C162.51,-78.26 145.15,-66.8 130.24,-56.95"/>
<polygon fill="#64748b" stroke="#64748b" points="131.59,-54.91 124.4,-53.09 128.89,-59 131.59,-54.91"/>
</g>
<!-- n4 -->
<g id="node5" class="node">
<title>n4</title>
<g id="a_node5"><a xlink:href="vscode://vscode-remote/wsl+Ubuntu/home/gavin/statlib/Statlib/CoxChangePoint/Foundation.lean:89" xlink:title="noncomputable def · Statlib/CoxChangePoint/Foundation.lean:89" target="_blank">
<path fill="#d6e9ff" stroke="#3b82f6" d="M330,-124C330,-124 300,-124 300,-124 294,-124 288,-118 288,-112 288,-112 288,-100 288,-100 288,-94 294,-88 300,-88 300,-88 330,-88 330,-88 336,-88 342,-94 342,-100 342,-100 342,-112 342,-112 342,-118 336,-124 330,-124"/>
<text xml:space="preserve" text-anchor="middle" x="315" y="-103" font-family="Helvetica,sans-Serif" font-size="10.00">atRisk</text>
</a>
</g>
</g>
<!-- n4&#45;&gt;n0 -->
<g id="edge4" class="edge">
<title>n4&#45;&gt;n0</title>
<path fill="none" stroke="#64748b" d="M326.37,-87.7C332.05,-79.05 339.02,-68.45 345.21,-59.03"/>
<polygon fill="#64748b" stroke="#64748b" points="347.13,-60.56 348.93,-53.37 343.04,-57.87 347.13,-60.56"/>
</g>
<!-- n5 -->
<g id="node6" class="node">
<title>n5</title>
<g id="a_node6"><a xlink:href="vscode://vscode-remote/wsl+Ubuntu/home/gavin/statlib/Statlib/CoxChangePoint/Foundation.lean:75" xlink:title="noncomputable def · Statlib/CoxChangePoint/Foundation.lean:75" target="_blank">
<path fill="#d6e9ff" stroke="#3b82f6" d="M264,-196C264,-196 234,-196 234,-196 228,-196 222,-190 222,-184 222,-184 222,-172 222,-172 222,-166 228,-160 234,-160 234,-160 264,-160 264,-160 270,-160 276,-166 276,-172 276,-172 276,-184 276,-184 276,-190 270,-196 264,-196"/>
<text xml:space="preserve" text-anchor="middle" x="249" y="-175" font-family="Helvetica,sans-Serif" font-size="10.00">expG</text>
</a>
</g>
</g>
<!-- n5&#45;&gt;n0 -->
<g id="edge6" class="edge">
<title>n5&#45;&gt;n0</title>
<path fill="none" stroke="#64748b" d="M251.35,-159.66C254.7,-140.44 262.38,-109.37 279,-88 291.36,-72.1 309.91,-59.55 326.24,-50.65"/>
<polygon fill="#64748b" stroke="#64748b" points="327.15,-52.94 332.22,-47.53 324.88,-48.6 327.15,-52.94"/>
</g>
<!-- n5&#45;&gt;n2 -->
<g id="edge5" class="edge">
<title>n5&#45;&gt;n2</title>
<path fill="none" stroke="#64748b" d="M252.01,-159.63C254.36,-140.11 254.98,-108.47 239,-88 214.6,-56.73 169.7,-43.91 136.91,-38.65"/>
<polygon fill="#64748b" stroke="#64748b" points="137.63,-36.28 130.35,-37.69 136.92,-41.13 137.63,-36.28"/>
</g>
<!-- n5&#45;&gt;n3 -->
<g id="edge7" class="edge">
<title>n5&#45;&gt;n3</title>
<path fill="none" stroke="#64748b" d="M237.63,-159.7C231.95,-151.05 224.98,-140.45 218.79,-131.03"/>
<polygon fill="#64748b" stroke="#64748b" points="220.96,-129.87 215.07,-125.37 216.87,-132.56 220.96,-129.87"/>
</g>
<!-- n6 -->
<g id="node7" class="node">
<title>n6</title>
<g id="a_node7"><a xlink:href="vscode://vscode-remote/wsl+Ubuntu/home/gavin/statlib/Statlib/CoxChangePoint/Foundation.lean:93" xlink:title="noncomputable def · Statlib/CoxChangePoint/Foundation.lean:93" target="_blank">
<path fill="#d6e9ff" stroke="#3b82f6" d="M264,-268C264,-268 234,-268 234,-268 228,-268 222,-262 222,-256 222,-256 222,-244 222,-244 222,-238 228,-232 234,-232 234,-232 264,-232 264,-232 270,-232 276,-238 276,-244 276,-244 276,-256 276,-256 276,-262 270,-268 264,-268"/>
<text xml:space="preserve" text-anchor="middle" x="249" y="-247" font-family="Helvetica,sans-Serif" font-size="10.00">riskSum</text>
</a>
</g>
</g>
<!-- n6&#45;&gt;n0 -->
<g id="edge8" class="edge">
<title>n6&#45;&gt;n0</title>
<path fill="none" stroke="#64748b" d="M269.43,-231.53C293.76,-209.34 333.34,-168.52 351,-124 359.03,-103.75 361.27,-79.02 361.65,-60.77"/>
<polygon fill="#64748b" stroke="#64748b" points="364.1,-60.9 361.69,-53.89 359.2,-60.87 364.1,-60.9"/>
</g>
<!-- n6&#45;&gt;n2 -->
<g id="edge9" class="edge">
<title>n6&#45;&gt;n2</title>
<path fill="none" stroke="#64748b" d="M236.82,-231.85C209.86,-193.89 145.09,-102.7 114.09,-59.06"/>
<polygon fill="#64748b" stroke="#64748b" points="116.17,-57.75 110.12,-53.47 112.17,-60.59 116.17,-57.75"/>
</g>
<!-- n6&#45;&gt;n4 -->
<g id="edge10" class="edge">
<title>n6&#45;&gt;n4</title>
<path fill="none" stroke="#64748b" d="M262.6,-231.59C269.95,-221.59 278.77,-208.55 285,-196 295.25,-175.36 303.33,-150.38 308.51,-132.14"/>
<polygon fill="#64748b" stroke="#64748b" points="310.77,-133.14 310.28,-125.74 306.05,-131.83 310.77,-133.14"/>
</g>
<!-- n6&#45;&gt;n5 -->
<g id="edge11" class="edge">
<title>n6&#45;&gt;n5</title>
<path fill="none" stroke="#64748b" d="M249,-231.7C249,-223.47 249,-213.48 249,-204.42"/>
<polygon fill="#64748b" stroke="#64748b" points="251.45,-204.62 249,-197.62 246.55,-204.62 251.45,-204.62"/>
</g>
<!-- n7 -->
<g id="node8" class="node">
<title>n7</title>
<g id="a_node8"><a xlink:href="vscode://vscode-remote/wsl+Ubuntu/home/gavin/statlib/Statlib/CoxChangePoint/Foundation.lean:104" xlink:title="noncomputable def · Statlib/CoxChangePoint/Foundation.lean:104" target="_blank">
<path fill="#d6e9ff" stroke="#3b82f6" d="M242.36,-340C242.36,-340 163.64,-340 163.64,-340 157.64,-340 151.64,-334 151.64,-328 151.64,-328 151.64,-316 151.64,-316 151.64,-310 157.64,-304 163.64,-304 163.64,-304 242.36,-304 242.36,-304 248.36,-304 254.36,-310 254.36,-316 254.36,-316 254.36,-328 254.36,-328 254.36,-334 248.36,-340 242.36,-340"/>
<text xml:space="preserve" text-anchor="middle" x="203" y="-319" font-family="Helvetica,sans-Serif" font-size="10.00">logPartialLikelihood</text>
</a>
</g>
</g>
<!-- n7&#45;&gt;n0 -->
<g id="edge12" class="edge">
<title>n7&#45;&gt;n0</title>
<path fill="none" stroke="#64748b" d="M238.25,-303.56C253.95,-294.53 271.84,-282.38 285,-268 333.73,-214.78 342.64,-194.04 360,-124 365.18,-103.12 365.02,-78.63 363.8,-60.63"/>
<polygon fill="#64748b" stroke="#64748b" points="366.26,-60.65 363.25,-53.87 361.37,-61.04 366.26,-60.65"/>
</g>
<!-- n7&#45;&gt;n2 -->
<g id="edge13" class="edge">
<title>n7&#45;&gt;n2</title>
<path fill="none" stroke="#64748b" d="M196.53,-303.54C178.45,-254.76 127.35,-116.89 106.27,-60.02"/>
<polygon fill="#64748b" stroke="#64748b" points="108.64,-59.36 103.91,-53.65 104.05,-61.07 108.64,-59.36"/>
</g>
<!-- n7&#45;&gt;n3 -->
<g id="edge14" class="edge">
<title>n7&#45;&gt;n3</title>
<path fill="none" stroke="#64748b" d="M203,-303.85C203,-266.36 203,-176.95 203,-132.7"/>
<polygon fill="#64748b" stroke="#64748b" points="205.45,-132.75 203,-125.75 200.55,-132.75 205.45,-132.75"/>
</g>
<!-- n7&#45;&gt;n6 -->
<g id="edge15" class="edge">
<title>n7&#45;&gt;n6</title>
<path fill="none" stroke="#64748b" d="M214.37,-303.7C220.05,-295.05 227.02,-284.45 233.21,-275.03"/>
<polygon fill="#64748b" stroke="#64748b" points="235.13,-276.56 236.93,-269.37 231.04,-273.87 235.13,-276.56"/>
</g>
<!-- n8 -->
<g id="node9" class="node">
<title>n8</title>
<g id="a_node9"><a xlink:href="vscode://vscode-remote/wsl+Ubuntu/home/gavin/statlib/Statlib/CoxChangePoint/Foundation.lean:112" xlink:title="noncomputable def · Statlib/CoxChangePoint/Foundation.lean:112" target="_blank">
<path fill="#d6e9ff" stroke="#3b82f6" d="M182,-412C182,-412 152,-412 152,-412 146,-412 140,-406 140,-400 140,-400 140,-388 140,-388 140,-382 146,-376 152,-376 152,-376 182,-376 182,-376 188,-376 194,-382 194,-388 194,-388 194,-400 194,-400 194,-406 188,-412 182,-412"/>
<text xml:space="preserve" text-anchor="middle" x="167" y="-391" font-family="Helvetica,sans-Serif" font-size="10.00">Gn</text>
</a>
</g>
</g>
<!-- n8&#45;&gt;n0 -->
<g id="edge16" class="edge">
<title>n8&#45;&gt;n0</title>
<path fill="none" stroke="#64748b" d="M194.3,-389.45C256.03,-379.74 401,-346.75 401,-251 401,-251 401,-251 401,-177 401,-134.81 384.44,-88.11 372.63,-60.19"/>
<polygon fill="#64748b" stroke="#64748b" points="374.92,-59.32 369.89,-53.87 370.43,-61.27 374.92,-59.32"/>
</g>
<!-- n8&#45;&gt;n2 -->
<g id="edge17" class="edge">
<title>n8&#45;&gt;n2</title>
<path fill="none" stroke="#64748b" d="M139.58,-380.15C123.47,-371.17 104.14,-357.63 93,-340 71.53,-306.03 77,-291.19 77,-251 77,-251 77,-251 77,-177 77,-135.94 85.3,-88.84 91.21,-60.53"/>
<polygon fill="#64748b" stroke="#64748b" points="93.57,-61.22 92.64,-53.86 88.78,-60.19 93.57,-61.22"/>
</g>
<!-- n8&#45;&gt;n7 -->
<g id="edge18" class="edge">
<title>n8&#45;&gt;n7</title>
<path fill="none" stroke="#64748b" d="M175.9,-375.7C180.26,-367.22 185.58,-356.86 190.36,-347.58"/>
<polygon fill="#64748b" stroke="#64748b" points="192.49,-348.8 193.51,-341.45 188.13,-346.55 192.49,-348.8"/>
</g>
<!-- n9 -->
<g id="node10" class="node">
<title>n9</title>
<g id="a_node10"><a xlink:href="vscode://vscode-remote/wsl+Ubuntu/home/gavin/statlib/Statlib/CoxChangePoint/PopulationObjective.lean:166" xlink:title="def · Statlib/CoxChangePoint/PopulationObjective.lean:166" target="_blank">
<path fill="#d6e9ff" stroke="#3b82f6" d="M275.8,-484C275.8,-484 218.2,-484 218.2,-484 212.2,-484 206.2,-478 206.2,-472 206.2,-472 206.2,-460 206.2,-460 206.2,-454 212.2,-448 218.2,-448 218.2,-448 275.8,-448 275.8,-448 281.8,-448 287.8,-454 287.8,-460 287.8,-460 287.8,-472 287.8,-472 287.8,-478 281.8,-484 275.8,-484"/>
<text xml:space="preserve" text-anchor="middle" x="247" y="-463" font-family="Helvetica,sans-Serif" font-size="10.00">MeasurableGn</text>
</a>
</g>
</g>
<!-- n9&#45;&gt;n1 -->
<g id="edge19" class="edge">
<title>n9&#45;&gt;n1</title>
<path fill="none" stroke="#64748b" d="M288.1,-447.88C316.3,-436.12 353.33,-420.7 380.1,-409.54"/>
<polygon fill="#64748b" stroke="#64748b" points="380.79,-411.91 386.31,-406.95 378.91,-407.38 380.79,-411.91"/>
</g>
<!-- n9&#45;&gt;n2 -->
<g id="edge20" class="edge">
<title>n9&#45;&gt;n2</title>
<path fill="none" stroke="#64748b" d="M241.7,-447.53C235.14,-428.21 222.39,-397.04 203,-376 181.92,-353.13 160.3,-365.84 143,-340 83.75,-251.51 88.79,-116.46 94,-60.58"/>
<polygon fill="#64748b" stroke="#64748b" points="96.41,-61.02 94.67,-53.81 91.54,-60.53 96.41,-61.02"/>
</g>
<!-- n9&#45;&gt;n8 -->
<g id="edge21" class="edge">
<title>n9&#45;&gt;n8</title>
<path fill="none" stroke="#64748b" d="M227.22,-447.7C216.94,-438.69 204.22,-427.57 193.14,-417.87"/>
<polygon fill="#64748b" stroke="#64748b" points="194.85,-416.11 187.96,-413.34 191.62,-419.8 194.85,-416.11"/>
</g>
<!-- n10 -->
<g id="node11" class="node">
<title>n10</title>
<g id="a_node11"><a xlink:href="vscode://vscode-remote/wsl+Ubuntu/home/gavin/statlib/Statlib/CoxChangePoint/Foundation.lean:118" xlink:title="lemma · Statlib/CoxChangePoint/Foundation.lean:118" target="_blank">
<path fill="#eef2f6" stroke="#94a3b8" d="M136.08,-484C136.08,-484 67.92,-484 67.92,-484 61.92,-484 55.92,-478 55.92,-472 55.92,-472 55.92,-460 55.92,-460 55.92,-454 61.92,-448 67.92,-448 67.92,-448 136.08,-448 136.08,-448 142.08,-448 148.08,-454 148.08,-460 148.08,-460 148.08,-472 148.08,-472 148.08,-478 142.08,-484 136.08,-484"/>
<text xml:space="preserve" text-anchor="middle" x="102" y="-463" font-family="Helvetica,sans-Serif" font-size="10.00">Gn_self_eq_zero</text>
</a>
</g>
</g>
<!-- n10&#45;&gt;n0 -->
<g id="edge22" class="edge">
<title>n10&#45;&gt;n0</title>
<path fill="none" stroke="#64748b" d="M99.14,-447.63C90.49,-388.67 70.76,-193.94 167,-88 188.14,-64.73 275.54,-47.97 325.51,-40.08"/>
<polygon fill="#64748b" stroke="#64748b" points="325.75,-42.52 332.29,-39.03 325,-37.68 325.75,-42.52"/>
</g>
<!-- n10&#45;&gt;n2 -->
<g id="edge23" class="edge">
<title>n10&#45;&gt;n2</title>
<path fill="none" stroke="#64748b" d="M92.68,-447.63C79.5,-421.41 57,-369.81 57,-323 57,-323 57,-323 57,-177 57,-134.81 73.56,-88.11 85.37,-60.19"/>
<polygon fill="#64748b" stroke="#64748b" points="87.57,-61.27 88.11,-53.87 83.08,-59.32 87.57,-61.27"/>
</g>
<!-- n10&#45;&gt;n8 -->
<g id="edge24" class="edge">
<title>n10&#45;&gt;n8</title>
<path fill="none" stroke="#64748b" d="M118.07,-447.7C126.33,-438.8 136.52,-427.82 145.46,-418.2"/>
<polygon fill="#64748b" stroke="#64748b" points="147.12,-420.01 150.09,-413.21 143.53,-416.68 147.12,-420.01"/>
</g>
<!-- n11 -->
<g id="node12" class="node">
<title>n11</title>
<g id="a_node12"><a xlink:href="vscode://vscode-remote/wsl+Ubuntu/home/gavin/statlib/Statlib/CoxChangePoint/Foundation.lean:135" xlink:title="def · Statlib/CoxChangePoint/Foundation.lean:135" target="_blank">
<path fill="#d6e9ff" stroke="#3b82f6" d="M364,-484C364,-484 334,-484 334,-484 328,-484 322,-478 322,-472 322,-472 322,-460 322,-460 322,-454 328,-448 334,-448 334,-448 364,-448 364,-448 370,-448 376,-454 376,-460 376,-460 376,-472 376,-472 376,-478 370,-484 364,-484"/>
<text xml:space="preserve" text-anchor="middle" x="349" y="-463" font-family="Helvetica,sans-Serif" font-size="10.00">realize</text>
</a>
</g>
</g>
<!-- n11&#45;&gt;n0 -->
<g id="edge26" class="edge">
<title>n11&#45;&gt;n0</title>
<path fill="none" stroke="#64748b" d="M354.89,-447.52C372.09,-396.49 421,-251.32 421,-251 421,-251 421,-251 421,-177 421,-132.78 396,-86.48 378.28,-59.22"/>
<polygon fill="#64748b" stroke="#64748b" points="380.48,-58.11 374.56,-53.64 376.4,-60.82 380.48,-58.11"/>
</g>
<!-- n11&#45;&gt;n1 -->
<g id="edge25" class="edge">
<title>n11&#45;&gt;n1</title>
<path fill="none" stroke="#64748b" d="M365.31,-447.7C373.71,-438.8 384.05,-427.82 393.13,-418.2"/>
<polygon fill="#64748b" stroke="#64748b" points="394.82,-419.98 397.83,-413.21 391.25,-416.62 394.82,-419.98"/>
</g>
<!-- n12 -->
<g id="node13" class="node">
<title>n12</title>
<g id="a_node13"><a xlink:href="vscode://vscode-remote/wsl+Ubuntu/home/gavin/statlib/Statlib/CoxChangePoint/PopulationObjective.lean:81" xlink:title="lemma · Statlib/CoxChangePoint/PopulationObjective.lean:81" target="_blank">
<path fill="#eef2f6" stroke="#94a3b8" d="M155.98,-556C155.98,-556 50.02,-556 50.02,-556 44.02,-556 38.02,-550 38.02,-544 38.02,-544 38.02,-532 38.02,-532 38.02,-526 44.02,-520 50.02,-520 50.02,-520 155.98,-520 155.98,-520 161.98,-520 167.98,-526 167.98,-532 167.98,-532 167.98,-544 167.98,-544 167.98,-550 161.98,-556 155.98,-556"/>
<text xml:space="preserve" text-anchor="middle" x="103" y="-535" font-family="Helvetica,sans-Serif" font-size="10.00">sample_Gn_self_eq_zero</text>
</a>
</g>
</g>
<!-- n12&#45;&gt;n1 -->
<g id="edge27" class="edge">
<title>n12&#45;&gt;n1</title>
<path fill="none" stroke="#64748b" d="M168.21,-532.31C241.18,-525.79 353.33,-511.54 385,-484 403.22,-468.16 410.4,-440.86 413.22,-420.67"/>
<polygon fill="#64748b" stroke="#64748b" points="415.65,-420.97 414.02,-413.73 410.78,-420.4 415.65,-420.97"/>
</g>
<!-- n12&#45;&gt;n2 -->
<g id="edge28" class="edge">
<title>n12&#45;&gt;n2</title>
<path fill="none" stroke="#64748b" d="M77.87,-519.72C66.49,-510.5 54.05,-498.14 47,-484 29.24,-448.38 37,-434.8 37,-395 37,-395 37,-395 37,-177 37,-136.03 43.92,-125.24 61,-88 65.61,-77.95 72.07,-67.71 78.25,-58.95"/>
<polygon fill="#64748b" stroke="#64748b" points="80.08,-60.59 82.21,-53.49 76.11,-57.71 80.08,-60.59"/>
</g>
<!-- n12&#45;&gt;n8 -->
<g id="edge29" class="edge">
<title>n12&#45;&gt;n8</title>
<path fill="none" stroke="#64748b" d="M127.24,-519.55C138.21,-510.28 150.21,-497.93 157,-484 166.6,-464.3 168.66,-439.32 168.57,-420.84"/>
<polygon fill="#64748b" stroke="#64748b" points="171.02,-420.8 168.41,-413.85 166.12,-420.91 171.02,-420.8"/>
</g>
<!-- n12&#45;&gt;n10 -->
<g id="edge30" class="edge">
<title>n12&#45;&gt;n10</title>
<path fill="none" stroke="#64748b" d="M102.75,-519.7C102.64,-511.47 102.49,-501.48 102.36,-492.42"/>
<polygon fill="#64748b" stroke="#64748b" points="104.82,-492.58 102.27,-485.62 99.92,-492.65 104.82,-492.58"/>
</g>
<!-- n12&#45;&gt;n11 -->
<g id="edge31" class="edge">
<title>n12&#45;&gt;n11</title>
<path fill="none" stroke="#64748b" d="M168.34,-520.01C206.07,-509.98 254.36,-496.79 297,-484 302.38,-482.39 308.05,-480.61 313.58,-478.84"/>
<polygon fill="#64748b" stroke="#64748b" points="314.21,-481.21 320.11,-476.72 312.7,-476.55 314.21,-481.21"/>
</g>
<!-- n13 -->
<g id="node14" class="node">
<title>n13</title>
<g id="a_node14"><a xlink:href="vscode://vscode-remote/wsl+Ubuntu/home/gavin/statlib/Statlib/CoxChangePoint/PopulationObjective.lean:171" xlink:title="lemma · Statlib/CoxChangePoint/PopulationObjective.lean:171" target="_blank">
<path fill="#eef2f6" stroke="#94a3b8" stroke-width="3" d="M226.36,-628C226.36,-628 147.64,-628 147.64,-628 141.64,-628 135.64,-622 135.64,-616 135.64,-616 135.64,-604 135.64,-604 135.64,-598 141.64,-592 147.64,-592 147.64,-592 226.36,-592 226.36,-592 232.36,-592 238.36,-598 238.36,-604 238.36,-604 238.36,-616 238.36,-616 238.36,-622 232.36,-628 226.36,-628"/>
<text xml:space="preserve" text-anchor="middle" x="187" y="-607" font-family="Helvetica,sans-Serif" font-size="10.00">measurableGn_self</text>
</a>
</g>
</g>
<!-- n13&#45;&gt;n1 -->
<g id="edge32" class="edge">
<title>n13&#45;&gt;n1</title>
<path fill="none" stroke="#64748b" d="M239.75,-592.92C289.67,-574.82 362.54,-540.32 401,-484 413.64,-465.49 416.52,-439.81 416.6,-420.79"/>
<polygon fill="#64748b" stroke="#64748b" points="419.05,-420.79 416.48,-413.83 414.15,-420.87 419.05,-420.79"/>
</g>
<!-- n13&#45;&gt;n2 -->
<g id="edge33" class="edge">
<title>n13&#45;&gt;n2</title>
<path fill="none" stroke="#64748b" d="M134.21,-605.33C99,-599.96 54.62,-587 29,-556 3.58,-525.23 17,-506.91 17,-467 17,-467 17,-467 17,-177 17,-136.03 20,-123.18 41,-88 47.75,-76.69 57.59,-66.24 67.15,-57.66"/>
<polygon fill="#64748b" stroke="#64748b" points="68.51,-59.72 72.2,-53.29 65.3,-56.01 68.51,-59.72"/>
</g>
<!-- n13&#45;&gt;n8 -->
<g id="edge35" class="edge">
<title>n13&#45;&gt;n8</title>
<path fill="none" stroke="#64748b" d="M185.29,-590.75C181.73,-552.65 173.5,-464.51 169.4,-420.69"/>
<polygon fill="#64748b" stroke="#64748b" points="171.85,-420.55 168.76,-413.81 166.97,-421 171.85,-420.55"/>
</g>
<!-- n13&#45;&gt;n9 -->
<g id="edge34" class="edge">
<title>n13&#45;&gt;n9</title>
<path fill="none" stroke="#64748b" d="M194.72,-590.73C205.32,-565.64 224.43,-520.43 236.37,-492.16"/>
<polygon fill="#64748b" stroke="#64748b" points="238.63,-493.11 239.09,-485.71 234.11,-491.2 238.63,-493.11"/>
</g>
<!-- n13&#45;&gt;n12 -->
<g id="edge36" class="edge">
<title>n13&#45;&gt;n12</title>
<path fill="none" stroke="#64748b" d="M164.93,-590.61C154.28,-581.74 141.41,-571.01 130.17,-561.64"/>
<polygon fill="#64748b" stroke="#64748b" points="131.88,-559.87 124.93,-557.28 128.74,-563.64 131.88,-559.87"/>
</g>
</g>
</svg>
