<?xml version="1.0" encoding="UTF-8" standalone="no"?>
<!DOCTYPE svg PUBLIC "-//W3C//DTD SVG 1.1//EN"
 "http://www.w3.org/Graphics/SVG/1.1/DTD/svg11.dtd">
<!-- Generated by graphviz version 15.0.0 (20260523.1842)
 -->
<!-- Title: SpectralFamilyHS.toEigensystem_lam_decreasing Pages: 1 -->
<svg width="519pt" height="554pt"
 viewBox="0.00 0.00 519.00 554.00" xmlns="http://www.w3.org/2000/svg" xmlns:xlink="http://www.w3.org/1999/xlink">
<g id="graph0" class="graph" transform="scale(1 1) rotate(0) translate(4 550)">
<title>SpectralFamilyHS.toEigensystem_lam_decreasing</title>
<polygon fill="white" stroke="none" points="-4,4 -4,-550 514.87,-550 514.87,4 -4,4"/>
<text xml:space="preserve" text-anchor="middle" x="255.44" y="-529.4" font-family="Helvetica,sans-Serif" font-size="14.00">Proof narrative — SpectralFamilyHS.toEigensystem_lam_decreasing &#160;(15 decls)</text>
<g id="clust1" class="cluster">
<title>cluster_0</title>
<path fill="none" stroke="#cbd5e1" stroke-dasharray="5,2" d="M36.44,-8C36.44,-8 474.44,-8 474.44,-8 480.44,-8 486.44,-14 486.44,-20 486.44,-20 486.44,-501.2 486.44,-501.2 486.44,-507.2 480.44,-513.2 474.44,-513.2 474.44,-513.2 36.44,-513.2 36.44,-513.2 30.44,-513.2 24.44,-507.2 24.44,-501.2 24.44,-501.2 24.44,-20 24.44,-20 24.44,-14 30.44,-8 36.44,-8"/>
<text xml:space="preserve" text-anchor="middle" x="255.44" y="-499.3" font-family="Helvetica,sans-Serif" font-size="11.00">CoxChangePoint</text>
</g>
<!-- n0 -->
<g id="node1" class="node">
<title>n0</title>
<g id="a_node1"><a xlink:href="vscode://vscode-remote/wsl+Ubuntu/home/gavin/statlib/Statlib/CoxChangePoint/SpectralOperator.lean:103" xlink:title="structure · Statlib/CoxChangePoint/SpectralOperator.lean:103" target="_blank">
<path fill="#e8dcff" stroke="#8b5cf6" d="M168.23,-52C168.23,-52 60.64,-52 60.64,-52 54.64,-52 48.64,-46 48.64,-40 48.64,-40 48.64,-28 48.64,-28 48.64,-22 54.64,-16 60.64,-16 60.64,-16 168.23,-16 168.23,-16 174.23,-16 180.23,-22 180.23,-28 180.23,-28 180.23,-40 180.23,-40 180.23,-46 174.23,-52 168.23,-52"/>
<text xml:space="preserve" text-anchor="middle" x="114.44" y="-31" font-family="Helvetica,sans-Serif" font-size="10.00">SymmetricKernelOperator</text>
</a>
</g>
</g>
<!-- n1 -->
<g id="node2" class="node">
<title>n1</title>
<g id="a_node2"><a xlink:href="vscode://vscode-remote/wsl+Ubuntu/home/gavin/statlib/Statlib/CoxChangePoint/L2Operator.lean:212" xlink:title="structure · Statlib/CoxChangePoint/L2Operator.lean:212" target="_blank">
<path fill="#e8dcff" stroke="#8b5cf6" d="M318.2,-124C318.2,-124 206.67,-124 206.67,-124 200.67,-124 194.67,-118 194.67,-112 194.67,-112 194.67,-100 194.67,-100 194.67,-94 200.67,-88 206.67,-88 206.67,-88 318.2,-88 318.2,-88 324.2,-88 330.2,-94 330.2,-100 330.2,-100 330.2,-112 330.2,-112 330.2,-118 324.2,-124 318.2,-124"/>
<text xml:space="preserve" text-anchor="middle" x="262.44" y="-103" font-family="Helvetica,sans-Serif" font-size="10.00">L2BoundedKernelOperator</text>
</a>
</g>
</g>
<!-- n1&#45;&gt;n0 -->
<g id="edge1" class="edge">
<title>n1&#45;&gt;n0</title>
<path fill="none" stroke="#64748b" d="M225.47,-87.52C205.26,-77.96 180.09,-66.05 158.83,-56"/>
<polygon fill="#64748b" stroke="#64748b" points="159.93,-53.81 152.56,-53.03 157.84,-58.24 159.93,-53.81"/>
</g>
<!-- n2 -->
<g id="node3" class="node">
<title>n2</title>
<g id="a_node3"><a xlink:href="vscode://vscode-remote/wsl+Ubuntu/home/gavin/statlib/Statlib/CoxChangePoint/Foundation.lean:57" xlink:title="structure · Statlib/CoxChangePoint/Foundation.lean:57" target="_blank">
<path fill="#e8dcff" stroke="#8b5cf6" d="M430.06,-52C430.06,-52 390.82,-52 390.82,-52 384.82,-52 378.82,-46 378.82,-40 378.82,-40 378.82,-28 378.82,-28 378.82,-22 384.82,-16 390.82,-16 390.82,-16 430.06,-16 430.06,-16 436.06,-16 442.06,-22 442.06,-28 442.06,-28 442.06,-40 442.06,-40 442.06,-46 436.06,-52 430.06,-52"/>
<text xml:space="preserve" text-anchor="middle" x="410.44" y="-31" font-family="Helvetica,sans-Serif" font-size="10.00">CoxParam</text>
</a>
</g>
</g>
<!-- n3 -->
<g id="node4" class="node">
<title>n3</title>
<g id="a_node4"><a xlink:href="vscode://vscode-remote/wsl+Ubuntu/home/gavin/statlib/Statlib/CoxChangePoint/Foundation.lean:38" xlink:title="structure · Statlib/CoxChangePoint/Foundation.lean:38" target="_blank">
<path fill="#e8dcff" stroke="#8b5cf6" d="M348.44,-52C348.44,-52 318.44,-52 318.44,-52 312.44,-52 306.44,-46 306.44,-40 306.44,-40 306.44,-28 306.44,-28 306.44,-22 312.44,-16 318.44,-16 318.44,-16 348.44,-16 348.44,-16 354.44,-16 360.44,-22 360.44,-28 360.44,-28 360.44,-40 360.44,-40 360.44,-46 354.44,-52 348.44,-52"/>
<text xml:space="preserve" text-anchor="middle" x="333.44" y="-31" font-family="Helvetica,sans-Serif" font-size="10.00">CoxObs</text>
</a>
</g>
</g>
<!-- n4 -->
<g id="node5" class="node">
<title>n4</title>
<g id="a_node5"><a xlink:href="vscode://vscode-remote/wsl+Ubuntu/home/gavin/statlib/Statlib/CoxChangePoint/Foundation.lean:68" xlink:title="noncomputable def · Statlib/CoxChangePoint/Foundation.lean:68" target="_blank">
<path fill="#d6e9ff" stroke="#3b82f6" d="M390.44,-124C390.44,-124 360.44,-124 360.44,-124 354.44,-124 348.44,-118 348.44,-112 348.44,-112 348.44,-100 348.44,-100 348.44,-94 354.44,-88 360.44,-88 360.44,-88 390.44,-88 390.44,-88 396.44,-88 402.44,-94 402.44,-100 402.44,-100 402.44,-112 402.44,-112 402.44,-118 396.44,-124 390.44,-124"/>
<text xml:space="preserve" text-anchor="middle" x="375.44" y="-103" font-family="Helvetica,sans-Serif" font-size="10.00">g</text>
</a>
</g>
</g>
<!-- n4&#45;&gt;n2 -->
<g id="edge2" class="edge">
<title>n4&#45;&gt;n2</title>
<path fill="none" stroke="#64748b" d="M384.09,-87.7C388.33,-79.22 393.51,-68.86 398.15,-59.58"/>
<polygon fill="#64748b" stroke="#64748b" points="400.27,-60.81 401.21,-53.46 395.89,-58.62 400.27,-60.81"/>
</g>
<!-- n4&#45;&gt;n3 -->
<g id="edge3" class="edge">
<title>n4&#45;&gt;n3</title>
<path fill="none" stroke="#64748b" d="M365.05,-87.7C359.92,-79.14 353.63,-68.66 348.02,-59.3"/>
<polygon fill="#64748b" stroke="#64748b" points="350.18,-58.14 344.48,-53.4 345.98,-60.67 350.18,-58.14"/>
</g>
<!-- n5 -->
<g id="node6" class="node">
<title>n5</title>
<g id="a_node6"><a xlink:href="vscode://vscode-remote/wsl+Ubuntu/home/gavin/statlib/Statlib/CoxChangePoint/L2OperatorMap.lean:204" xlink:title="structure · Statlib/CoxChangePoint/L2OperatorMap.lean:204" target="_blank">
<path fill="#e8dcff" stroke="#8b5cf6" d="M212.74,-196C212.74,-196 140.13,-196 140.13,-196 134.13,-196 128.13,-190 128.13,-184 128.13,-184 128.13,-172 128.13,-172 128.13,-166 134.13,-160 140.13,-160 140.13,-160 212.74,-160 212.74,-160 218.74,-160 224.74,-166 224.74,-172 224.74,-172 224.74,-184 224.74,-184 224.74,-190 218.74,-196 212.74,-196"/>
<text xml:space="preserve" text-anchor="middle" x="176.44" y="-175" font-family="Helvetica,sans-Serif" font-size="10.00">L2KernelMapData</text>
</a>
</g>
</g>
<!-- n5&#45;&gt;n1 -->
<g id="edge4" class="edge">
<title>n5&#45;&gt;n1</title>
<path fill="none" stroke="#64748b" d="M197.7,-159.7C208.86,-150.61 222.68,-139.36 234.67,-129.6"/>
<polygon fill="#64748b" stroke="#64748b" points="236.07,-131.62 239.95,-125.3 232.98,-127.82 236.07,-131.62"/>
</g>
<!-- n5&#45;&gt;n4 -->
<g id="edge5" class="edge">
<title>n5&#45;&gt;n4</title>
<path fill="none" stroke="#64748b" d="M224.88,-162C264.89,-149.46 318.42,-132.34 339.44,-124 339.79,-123.86 340.15,-123.72 340.5,-123.57"/>
<polygon fill="#64748b" stroke="#64748b" points="341.2,-125.94 346.68,-120.95 339.28,-121.43 341.2,-125.94"/>
</g>
<!-- n6 -->
<g id="node7" class="node">
<title>n6</title>
<g id="a_node7"><a xlink:href="vscode://vscode-remote/wsl+Ubuntu/home/gavin/statlib/Statlib/CoxChangePoint/InfiniteDimSpectral.lean:87" xlink:title="structure · Statlib/CoxChangePoint/InfiniteDimSpectral.lean:87" target="_blank">
<path fill="#e8dcff" stroke="#8b5cf6" d="M326.45,-196C326.45,-196 254.43,-196 254.43,-196 248.43,-196 242.43,-190 242.43,-184 242.43,-184 242.43,-172 242.43,-172 242.43,-166 248.43,-160 254.43,-160 254.43,-160 326.45,-160 326.45,-160 332.45,-160 338.45,-166 338.45,-172 338.45,-172 338.45,-184 338.45,-184 338.45,-190 332.45,-196 326.45,-196"/>
<text xml:space="preserve" text-anchor="middle" x="290.44" y="-175" font-family="Helvetica,sans-Serif" font-size="10.00">SpectralFamilyHS</text>
</a>
</g>
</g>
<!-- n7 -->
<g id="node8" class="node">
<title>n7</title>
<g id="a_node8"><a xlink:href="vscode://vscode-remote/wsl+Ubuntu/home/gavin/statlib/Statlib/CoxChangePoint/L2OperatorMap.lean:239" xlink:title="def · Statlib/CoxChangePoint/L2OperatorMap.lean:239" target="_blank">
<path fill="#d6e9ff" stroke="#3b82f6" d="M466.53,-196C466.53,-196 368.35,-196 368.35,-196 362.35,-196 356.35,-190 356.35,-184 356.35,-184 356.35,-172 356.35,-172 356.35,-166 362.35,-160 368.35,-160 368.35,-160 466.53,-160 466.53,-160 472.53,-160 478.53,-166 478.53,-172 478.53,-172 478.53,-184 478.53,-184 478.53,-190 472.53,-196 466.53,-196"/>
<text xml:space="preserve" text-anchor="middle" x="417.44" y="-175" font-family="Helvetica,sans-Serif" font-size="10.00">toContinuousLinearMap</text>
</a>
</g>
</g>
<!-- n8 -->
<g id="node9" class="node">
<title>n8</title>
<g id="a_node9"><a xlink:href="vscode://vscode-remote/wsl+Ubuntu/home/gavin/statlib/Statlib/CoxChangePoint/SpectralOperator.lean:193" xlink:title="structure · Statlib/CoxChangePoint/SpectralOperator.lean:193" target="_blank">
<path fill="#e8dcff" stroke="#8b5cf6" d="M164.36,-124C164.36,-124 64.52,-124 64.52,-124 58.52,-124 52.52,-118 52.52,-112 52.52,-112 52.52,-100 52.52,-100 52.52,-94 58.52,-88 64.52,-88 64.52,-88 164.36,-88 164.36,-88 170.36,-88 176.36,-94 176.36,-100 176.36,-100 176.36,-112 176.36,-112 176.36,-118 170.36,-124 164.36,-124"/>
<text xml:space="preserve" text-anchor="middle" x="114.44" y="-103" font-family="Helvetica,sans-Serif" font-size="10.00">HasEigendecomposition</text>
</a>
</g>
</g>
<!-- n8&#45;&gt;n0 -->
<g id="edge6" class="edge">
<title>n8&#45;&gt;n0</title>
<path fill="none" stroke="#64748b" d="M114.44,-87.7C114.44,-79.47 114.44,-69.48 114.44,-60.42"/>
<polygon fill="#64748b" stroke="#64748b" points="116.89,-60.62 114.44,-53.62 111.99,-60.62 116.89,-60.62"/>
</g>
<!-- n9 -->
<g id="node10" class="node">
<title>n9</title>
<g id="a_node10"><a xlink:href="vscode://vscode-remote/wsl+Ubuntu/home/gavin/statlib/Statlib/CoxChangePoint/FPC.lean:42" xlink:title="structure · Statlib/CoxChangePoint/FPC.lean:42" target="_blank">
<path fill="#e8dcff" stroke="#8b5cf6" d="M134.06,-268C134.06,-268 84.81,-268 84.81,-268 78.81,-268 72.81,-262 72.81,-256 72.81,-256 72.81,-244 72.81,-244 72.81,-238 78.81,-232 84.81,-232 84.81,-232 134.06,-232 134.06,-232 140.06,-232 146.06,-238 146.06,-244 146.06,-244 146.06,-256 146.06,-256 146.06,-262 140.06,-268 134.06,-268"/>
<text xml:space="preserve" text-anchor="middle" x="109.44" y="-247" font-family="Helvetica,sans-Serif" font-size="10.00">Eigensystem</text>
</a>
</g>
</g>
<!-- n10 -->
<g id="node11" class="node">
<title>n10</title>
<g id="a_node11"><a xlink:href="vscode://vscode-remote/wsl+Ubuntu/home/gavin/statlib/Statlib/CoxChangePoint/SpectralOperator.lean:226" xlink:title="def · Statlib/CoxChangePoint/SpectralOperator.lean:226" target="_blank">
<path fill="#d6e9ff" stroke="#3b82f6" d="M114.23,-340C114.23,-340 56.64,-340 56.64,-340 50.64,-340 44.64,-334 44.64,-328 44.64,-328 44.64,-316 44.64,-316 44.64,-310 50.64,-304 56.64,-304 56.64,-304 114.23,-304 114.23,-304 120.23,-304 126.23,-310 126.23,-316 126.23,-316 126.23,-328 126.23,-328 126.23,-334 120.23,-340 114.23,-340"/>
<text xml:space="preserve" text-anchor="middle" x="85.44" y="-319" font-family="Helvetica,sans-Serif" font-size="10.00">toEigensystem</text>
</a>
</g>
</g>
<!-- n10&#45;&gt;n0 -->
<g id="edge7" class="edge">
<title>n10&#45;&gt;n0</title>
<path fill="none" stroke="#64748b" d="M74.02,-303.59C68.05,-293.59 61.21,-280.56 57.44,-268 34.38,-191.14 7.47,-159.73 43.44,-88 49.78,-75.36 60.72,-64.96 72.15,-56.82"/>
<polygon fill="#64748b" stroke="#64748b" points="73.19,-59.07 77.64,-53.14 70.46,-55 73.19,-59.07"/>
</g>
<!-- n10&#45;&gt;n8 -->
<g id="edge8" class="edge">
<title>n10&#45;&gt;n8</title>
<path fill="none" stroke="#64748b" d="M76.31,-303.88C71.43,-293.76 65.93,-280.51 63.44,-268 60.31,-252.31 60.36,-247.7 63.44,-232 70.6,-195.47 88.5,-156.16 101.06,-131.57"/>
<polygon fill="#64748b" stroke="#64748b" points="103.18,-132.82 104.24,-125.48 98.83,-130.56 103.18,-132.82"/>
</g>
<!-- n10&#45;&gt;n9 -->
<g id="edge9" class="edge">
<title>n10&#45;&gt;n9</title>
<path fill="none" stroke="#64748b" d="M91.37,-303.7C94.22,-295.39 97.68,-285.28 100.82,-276.14"/>
<polygon fill="#64748b" stroke="#64748b" points="103.13,-276.95 103.08,-269.54 98.49,-275.36 103.13,-276.95"/>
</g>
<!-- n11 -->
<g id="node12" class="node">
<title>n11</title>
<g id="a_node12"><a xlink:href="vscode://vscode-remote/wsl+Ubuntu/home/gavin/statlib/Statlib/CoxChangePoint/InfiniteDimSpectral.lean:306" xlink:title="noncomputable def · Statlib/CoxChangePoint/InfiniteDimSpectral.lean:306" target="_blank">
<path fill="#d6e9ff" stroke="#3b82f6" d="M366.35,-268C366.35,-268 256.53,-268 256.53,-268 250.53,-268 244.53,-262 244.53,-256 244.53,-256 244.53,-244 244.53,-244 244.53,-238 250.53,-232 256.53,-232 256.53,-232 366.35,-232 366.35,-232 372.35,-232 378.35,-238 378.35,-244 378.35,-244 378.35,-256 378.35,-256 378.35,-262 372.35,-268 366.35,-268"/>
<text xml:space="preserve" text-anchor="middle" x="311.44" y="-247" font-family="Helvetica,sans-Serif" font-size="10.00">SpectralFamilyHS.phiRepr</text>
</a>
</g>
</g>
<!-- n11&#45;&gt;n5 -->
<g id="edge10" class="edge">
<title>n11&#45;&gt;n5</title>
<path fill="none" stroke="#64748b" d="M277.72,-231.52C259.38,-222.01 236.56,-210.17 217.22,-200.15"/>
<polygon fill="#64748b" stroke="#64748b" points="218.41,-198 211.07,-196.96 216.16,-202.35 218.41,-198"/>
</g>
<!-- n11&#45;&gt;n6 -->
<g id="edge11" class="edge">
<title>n11&#45;&gt;n6</title>
<path fill="none" stroke="#64748b" d="M306.25,-231.7C303.75,-223.39 300.72,-213.28 297.98,-204.14"/>
<polygon fill="#64748b" stroke="#64748b" points="300.36,-203.55 296,-197.55 295.67,-204.96 300.36,-203.55"/>
</g>
<!-- n11&#45;&gt;n7 -->
<g id="edge12" class="edge">
<title>n11&#45;&gt;n7</title>
<path fill="none" stroke="#64748b" d="M337.91,-231.52C351.93,-222.26 369.28,-210.8 384.2,-200.95"/>
<polygon fill="#64748b" stroke="#64748b" points="385.55,-203 390.04,-197.09 382.85,-198.91 385.55,-203"/>
</g>
<!-- n12 -->
<g id="node13" class="node">
<title>n12</title>
<g id="a_node13"><a xlink:href="vscode://vscode-remote/wsl+Ubuntu/home/gavin/statlib/Statlib/CoxChangePoint/InfiniteDimSpectral.lean:313" xlink:title="lemma · Statlib/CoxChangePoint/InfiniteDimSpectral.lean:313" target="_blank">
<path fill="#eef2f6" stroke="#94a3b8" d="M406.35,-340C406.35,-340 266.52,-340 266.52,-340 260.52,-340 254.52,-334 254.52,-328 254.52,-328 254.52,-316 254.52,-316 254.52,-310 260.52,-304 266.52,-304 266.52,-304 406.35,-304 406.35,-304 412.35,-304 418.35,-310 418.35,-316 418.35,-316 418.35,-328 418.35,-328 418.35,-334 412.35,-340 406.35,-340"/>
<text xml:space="preserve" text-anchor="middle" x="336.44" y="-319" font-family="Helvetica,sans-Serif" font-size="10.00">SpectralFamilyHS.phiRepr_meas</text>
</a>
</g>
</g>
<!-- n12&#45;&gt;n5 -->
<g id="edge13" class="edge">
<title>n12&#45;&gt;n5</title>
<path fill="none" stroke="#64748b" d="M291.89,-303.55C273.1,-294.76 251.83,-282.8 235.44,-268 215.24,-249.77 198.81,-223.18 188.46,-203.82"/>
<polygon fill="#64748b" stroke="#64748b" points="190.64,-202.69 185.24,-197.61 186.29,-204.95 190.64,-202.69"/>
</g>
<!-- n12&#45;&gt;n6 -->
<g id="edge14" class="edge">
<title>n12&#45;&gt;n6</title>
<path fill="none" stroke="#64748b" d="M360.01,-303.58C370.53,-294.33 381.8,-281.98 387.44,-268 393.42,-253.16 395.6,-245.76 387.44,-232 378.14,-216.33 362.4,-204.99 346.26,-196.93"/>
<polygon fill="#64748b" stroke="#64748b" points="347.59,-194.85 340.22,-194.09 345.51,-199.28 347.59,-194.85"/>
</g>
<!-- n12&#45;&gt;n7 -->
<g id="edge15" class="edge">
<title>n12&#45;&gt;n7</title>
<path fill="none" stroke="#64748b" d="M362.1,-303.54C373.89,-294.28 387.07,-281.93 395.44,-268 407.11,-248.56 412.6,-223.2 415.18,-204.53"/>
<polygon fill="#64748b" stroke="#64748b" points="417.59,-204.96 416.01,-197.71 412.73,-204.36 417.59,-204.96"/>
</g>
<!-- n12&#45;&gt;n11 -->
<g id="edge16" class="edge">
<title>n12&#45;&gt;n11</title>
<path fill="none" stroke="#64748b" d="M330.26,-303.7C327.26,-295.3 323.61,-285.07 320.32,-275.86"/>
<polygon fill="#64748b" stroke="#64748b" points="322.72,-275.3 318.05,-269.53 318.1,-276.95 322.72,-275.3"/>
</g>
<!-- n13 -->
<g id="node14" class="node">
<title>n13</title>
<g id="a_node14"><a xlink:href="vscode://vscode-remote/wsl+Ubuntu/home/gavin/statlib/Statlib/CoxChangePoint/InfiniteDimSpectral.lean:321" xlink:title="noncomputable def · Statlib/CoxChangePoint/InfiniteDimSpectral.lean:321" target="_blank">
<path fill="#d6e9ff" stroke="#3b82f6" d="M336.63,-412C336.63,-412 196.25,-412 196.25,-412 190.25,-412 184.25,-406 184.25,-400 184.25,-400 184.25,-388 184.25,-388 184.25,-382 190.25,-376 196.25,-376 196.25,-376 336.63,-376 336.63,-376 342.63,-376 348.63,-382 348.63,-388 348.63,-388 348.63,-400 348.63,-400 348.63,-406 342.63,-412 336.63,-412"/>
<text xml:space="preserve" text-anchor="middle" x="266.44" y="-391" font-family="Helvetica,sans-Serif" font-size="10.00">SpectralFamilyHS.toEigensystem</text>
</a>
</g>
</g>
<!-- n13&#45;&gt;n5 -->
<g id="edge18" class="edge">
<title>n13&#45;&gt;n5</title>
<path fill="none" stroke="#64748b" d="M249.44,-375.6C240.64,-365.81 230.34,-352.97 223.44,-340 199.7,-295.4 186.55,-237.31 180.54,-204.49"/>
<polygon fill="#64748b" stroke="#64748b" points="182.99,-204.29 179.36,-197.82 178.17,-205.14 182.99,-204.29"/>
</g>
<!-- n13&#45;&gt;n6 -->
<g id="edge19" class="edge">
<title>n13&#45;&gt;n6</title>
<path fill="none" stroke="#64748b" d="M253.78,-375.83C247.24,-365.9 239.92,-352.86 236.44,-340 223.89,-293.67 216.66,-276.18 235.44,-232 240.37,-220.4 249.22,-210.11 258.4,-201.75"/>
<polygon fill="#64748b" stroke="#64748b" points="259.91,-203.69 263.62,-197.27 256.71,-199.97 259.91,-203.69"/>
</g>
<!-- n13&#45;&gt;n7 -->
<g id="edge20" class="edge">
<title>n13&#45;&gt;n7</title>
<path fill="none" stroke="#64748b" d="M349.07,-385.66C378.7,-378.57 409.24,-365.15 427.44,-340 456.47,-299.88 440.62,-238.37 428.05,-204.16"/>
<polygon fill="#64748b" stroke="#64748b" points="430.44,-203.56 425.65,-197.9 425.86,-205.31 430.44,-203.56"/>
</g>
<!-- n13&#45;&gt;n9 -->
<g id="edge21" class="edge">
<title>n13&#45;&gt;n9</title>
<path fill="none" stroke="#64748b" d="M232.33,-375.6C215.74,-366.26 196.06,-353.84 180.44,-340 158.66,-320.71 138.45,-294.18 125.21,-275.11"/>
<polygon fill="#64748b" stroke="#64748b" points="127.31,-273.85 121.34,-269.45 123.27,-276.61 127.31,-273.85"/>
</g>
<!-- n13&#45;&gt;n10 -->
<g id="edge17" class="edge">
<title>n13&#45;&gt;n10</title>
<path fill="none" stroke="#64748b" d="M221.23,-375.52C194.83,-365.31 161.51,-352.42 134.48,-341.96"/>
<polygon fill="#64748b" stroke="#64748b" points="135.49,-339.73 128.08,-339.49 133.72,-344.3 135.49,-339.73"/>
</g>
<!-- n13&#45;&gt;n11 -->
<g id="edge22" class="edge">
<title>n13&#45;&gt;n11</title>
<path fill="none" stroke="#64748b" d="M255.71,-375.54C245.82,-357.03 234.25,-327.33 245.44,-304 251.33,-291.71 261.62,-281.37 272.34,-273.18"/>
<polygon fill="#64748b" stroke="#64748b" points="273.56,-275.32 277.81,-269.24 270.7,-271.34 273.56,-275.32"/>
</g>
<!-- n13&#45;&gt;n12 -->
<g id="edge23" class="edge">
<title>n13&#45;&gt;n12</title>
<path fill="none" stroke="#64748b" d="M283.74,-375.7C292.73,-366.71 303.82,-355.61 313.51,-345.92"/>
<polygon fill="#64748b" stroke="#64748b" points="315.05,-347.86 318.26,-341.17 311.58,-344.39 315.05,-347.86"/>
</g>
<!-- n14 -->
<g id="node15" class="node">
<title>n14</title>
<g id="a_node15"><a xlink:href="vscode://vscode-remote/wsl+Ubuntu/home/gavin/statlib/Statlib/CoxChangePoint/InfiniteDimSpectral.lean:338" xlink:title="lemma · Statlib/CoxChangePoint/InfiniteDimSpectral.lean:338" target="_blank">
<path fill="#eef2f6" stroke="#94a3b8" stroke-width="3" d="M374.71,-484C374.71,-484 158.17,-484 158.17,-484 152.17,-484 146.17,-478 146.17,-472 146.17,-472 146.17,-460 146.17,-460 146.17,-454 152.17,-448 158.17,-448 158.17,-448 374.71,-448 374.71,-448 380.71,-448 386.71,-454 386.71,-460 386.71,-460 386.71,-472 386.71,-472 386.71,-478 380.71,-484 374.71,-484"/>
<text xml:space="preserve" text-anchor="middle" x="266.44" y="-463" font-family="Helvetica,sans-Serif" font-size="10.00">SpectralFamilyHS.toEigensystem_lam_decreasing</text>
</a>
</g>
</g>
<!-- n14&#45;&gt;n5 -->
<g id="edge24" class="edge">
<title>n14&#45;&gt;n5</title>
<path fill="none" stroke="#64748b" d="M214.48,-446.6C199.17,-438.47 184.18,-427.22 175.44,-412 137.18,-345.45 156.19,-249.53 168.59,-204.35"/>
<polygon fill="#64748b" stroke="#64748b" points="170.91,-205.13 170.47,-197.73 166.2,-203.79 170.91,-205.13"/>
</g>
<!-- n14&#45;&gt;n6 -->
<g id="edge25" class="edge">
<title>n14&#45;&gt;n6</title>
<path fill="none" stroke="#64748b" d="M310.29,-446.66C350.36,-427.05 406.47,-391.64 427.44,-340 446.27,-293.61 429.95,-268.26 395.44,-232 381.89,-217.76 363.68,-206.74 346.24,-198.53"/>
<polygon fill="#64748b" stroke="#64748b" points="347.59,-196.45 340.21,-195.8 345.58,-200.92 347.59,-196.45"/>
</g>
<!-- n14&#45;&gt;n7 -->
<g id="edge26" class="edge">
<title>n14&#45;&gt;n7</title>
<path fill="none" stroke="#64748b" d="M329.22,-446.57C350.47,-438.3 373.38,-426.96 391.44,-412 421.05,-387.46 426.77,-376.31 439.44,-340 455.27,-294.61 457.01,-278.66 445.44,-232 443,-222.16 438.36,-212.13 433.55,-203.48"/>
<polygon fill="#64748b" stroke="#64748b" points="435.74,-202.38 430.09,-197.58 431.51,-204.86 435.74,-202.38"/>
</g>
<!-- n14&#45;&gt;n10 -->
<g id="edge28" class="edge">
<title>n14&#45;&gt;n10</title>
<path fill="none" stroke="#64748b" d="M219.68,-446.61C200.29,-437.76 178.22,-426 160.44,-412 136.83,-393.41 115.33,-366.38 101.47,-346.99"/>
<polygon fill="#64748b" stroke="#64748b" points="103.61,-345.78 97.59,-341.46 99.6,-348.6 103.61,-345.78"/>
</g>
<!-- n14&#45;&gt;n13 -->
<g id="edge27" class="edge">
<title>n14&#45;&gt;n13</title>
<path fill="none" stroke="#64748b" d="M266.44,-446.61C266.44,-438.59 266.44,-429.05 266.44,-420.37"/>
<polygon fill="#64748b" stroke="#64748b" points="268.89,-420.58 266.44,-413.58 263.99,-420.58 268.89,-420.58"/>
</g>
</g>
</svg>
