<?xml version="1.0" encoding="UTF-8" standalone="no"?>
<!DOCTYPE svg PUBLIC "-//W3C//DTD SVG 1.1//EN"
 "http://www.w3.org/Graphics/SVG/1.1/DTD/svg11.dtd">
<!-- Generated by graphviz version 15.0.0 (20260523.1842)
 -->
<!-- Title: SpectralFamilyHS.toEigensystem_lam_summable_sq Pages: 1 -->
<svg width="538pt" height="554pt"
 viewBox="0.00 0.00 538.00 554.00" xmlns="http://www.w3.org/2000/svg" xmlns:xlink="http://www.w3.org/1999/xlink">
<g id="graph0" class="graph" transform="scale(1 1) rotate(0) translate(4 550)">
<title>SpectralFamilyHS.toEigensystem_lam_summable_sq</title>
<polygon fill="white" stroke="none" points="-4,4 -4,-550 533.54,-550 533.54,4 -4,4"/>
<text xml:space="preserve" text-anchor="middle" x="264.77" y="-529.4" font-family="Helvetica,sans-Serif" font-size="14.00">Proof narrative — SpectralFamilyHS.toEigensystem_lam_summable_sq &#160;(15 decls)</text>
<g id="clust1" class="cluster">
<title>cluster_0</title>
<path fill="none" stroke="#cbd5e1" stroke-dasharray="5,2" d="M45.77,-8C45.77,-8 483.77,-8 483.77,-8 489.77,-8 495.77,-14 495.77,-20 495.77,-20 495.77,-501.2 495.77,-501.2 495.77,-507.2 489.77,-513.2 483.77,-513.2 483.77,-513.2 45.77,-513.2 45.77,-513.2 39.77,-513.2 33.77,-507.2 33.77,-501.2 33.77,-501.2 33.77,-20 33.77,-20 33.77,-14 39.77,-8 45.77,-8"/>
<text xml:space="preserve" text-anchor="middle" x="264.77" y="-499.3" font-family="Helvetica,sans-Serif" font-size="11.00">CoxChangePoint</text>
</g>
<!-- n0 -->
<g id="node1" class="node">
<title>n0</title>
<g id="a_node1"><a xlink:href="vscode://vscode-remote/wsl+Ubuntu/home/gavin/statlib/Statlib/CoxChangePoint/SpectralOperator.lean:103" xlink:title="structure · Statlib/CoxChangePoint/SpectralOperator.lean:103" target="_blank">
<path fill="#e8dcff" stroke="#8b5cf6" d="M177.56,-52C177.56,-52 69.97,-52 69.97,-52 63.97,-52 57.97,-46 57.97,-40 57.97,-40 57.97,-28 57.97,-28 57.97,-22 63.97,-16 69.97,-16 69.97,-16 177.56,-16 177.56,-16 183.56,-16 189.56,-22 189.56,-28 189.56,-28 189.56,-40 189.56,-40 189.56,-46 183.56,-52 177.56,-52"/>
<text xml:space="preserve" text-anchor="middle" x="123.77" y="-31" font-family="Helvetica,sans-Serif" font-size="10.00">SymmetricKernelOperator</text>
</a>
</g>
</g>
<!-- n1 -->
<g id="node2" class="node">
<title>n1</title>
<g id="a_node2"><a xlink:href="vscode://vscode-remote/wsl+Ubuntu/home/gavin/statlib/Statlib/CoxChangePoint/L2Operator.lean:212" xlink:title="structure · Statlib/CoxChangePoint/L2Operator.lean:212" target="_blank">
<path fill="#e8dcff" stroke="#8b5cf6" d="M327.53,-124C327.53,-124 216,-124 216,-124 210,-124 204,-118 204,-112 204,-112 204,-100 204,-100 204,-94 210,-88 216,-88 216,-88 327.53,-88 327.53,-88 333.53,-88 339.53,-94 339.53,-100 339.53,-100 339.53,-112 339.53,-112 339.53,-118 333.53,-124 327.53,-124"/>
<text xml:space="preserve" text-anchor="middle" x="271.77" y="-103" font-family="Helvetica,sans-Serif" font-size="10.00">L2BoundedKernelOperator</text>
</a>
</g>
</g>
<!-- n1&#45;&gt;n0 -->
<g id="edge1" class="edge">
<title>n1&#45;&gt;n0</title>
<path fill="none" stroke="#64748b" d="M234.8,-87.52C214.6,-77.96 189.42,-66.05 168.16,-56"/>
<polygon fill="#64748b" stroke="#64748b" points="169.26,-53.81 161.89,-53.03 167.17,-58.24 169.26,-53.81"/>
</g>
<!-- n2 -->
<g id="node3" class="node">
<title>n2</title>
<g id="a_node3"><a xlink:href="vscode://vscode-remote/wsl+Ubuntu/home/gavin/statlib/Statlib/CoxChangePoint/Foundation.lean:57" xlink:title="structure · Statlib/CoxChangePoint/Foundation.lean:57" target="_blank">
<path fill="#e8dcff" stroke="#8b5cf6" d="M439.39,-52C439.39,-52 400.15,-52 400.15,-52 394.15,-52 388.15,-46 388.15,-40 388.15,-40 388.15,-28 388.15,-28 388.15,-22 394.15,-16 400.15,-16 400.15,-16 439.39,-16 439.39,-16 445.39,-16 451.39,-22 451.39,-28 451.39,-28 451.39,-40 451.39,-40 451.39,-46 445.39,-52 439.39,-52"/>
<text xml:space="preserve" text-anchor="middle" x="419.77" y="-31" font-family="Helvetica,sans-Serif" font-size="10.00">CoxParam</text>
</a>
</g>
</g>
<!-- n3 -->
<g id="node4" class="node">
<title>n3</title>
<g id="a_node4"><a xlink:href="vscode://vscode-remote/wsl+Ubuntu/home/gavin/statlib/Statlib/CoxChangePoint/Foundation.lean:38" xlink:title="structure · Statlib/CoxChangePoint/Foundation.lean:38" target="_blank">
<path fill="#e8dcff" stroke="#8b5cf6" d="M357.77,-52C357.77,-52 327.77,-52 327.77,-52 321.77,-52 315.77,-46 315.77,-40 315.77,-40 315.77,-28 315.77,-28 315.77,-22 321.77,-16 327.77,-16 327.77,-16 357.77,-16 357.77,-16 363.77,-16 369.77,-22 369.77,-28 369.77,-28 369.77,-40 369.77,-40 369.77,-46 363.77,-52 357.77,-52"/>
<text xml:space="preserve" text-anchor="middle" x="342.77" y="-31" font-family="Helvetica,sans-Serif" font-size="10.00">CoxObs</text>
</a>
</g>
</g>
<!-- n4 -->
<g id="node5" class="node">
<title>n4</title>
<g id="a_node5"><a xlink:href="vscode://vscode-remote/wsl+Ubuntu/home/gavin/statlib/Statlib/CoxChangePoint/Foundation.lean:68" xlink:title="noncomputable def · Statlib/CoxChangePoint/Foundation.lean:68" target="_blank">
<path fill="#d6e9ff" stroke="#3b82f6" d="M399.77,-124C399.77,-124 369.77,-124 369.77,-124 363.77,-124 357.77,-118 357.77,-112 357.77,-112 357.77,-100 357.77,-100 357.77,-94 363.77,-88 369.77,-88 369.77,-88 399.77,-88 399.77,-88 405.77,-88 411.77,-94 411.77,-100 411.77,-100 411.77,-112 411.77,-112 411.77,-118 405.77,-124 399.77,-124"/>
<text xml:space="preserve" text-anchor="middle" x="384.77" y="-103" font-family="Helvetica,sans-Serif" font-size="10.00">g</text>
</a>
</g>
</g>
<!-- n4&#45;&gt;n2 -->
<g id="edge2" class="edge">
<title>n4&#45;&gt;n2</title>
<path fill="none" stroke="#64748b" d="M393.42,-87.7C397.66,-79.22 402.84,-68.86 407.48,-59.58"/>
<polygon fill="#64748b" stroke="#64748b" points="409.6,-60.81 410.54,-53.46 405.22,-58.62 409.6,-60.81"/>
</g>
<!-- n4&#45;&gt;n3 -->
<g id="edge3" class="edge">
<title>n4&#45;&gt;n3</title>
<path fill="none" stroke="#64748b" d="M374.39,-87.7C369.25,-79.14 362.96,-68.66 357.35,-59.3"/>
<polygon fill="#64748b" stroke="#64748b" points="359.51,-58.14 353.81,-53.4 355.31,-60.67 359.51,-58.14"/>
</g>
<!-- n5 -->
<g id="node6" class="node">
<title>n5</title>
<g id="a_node6"><a xlink:href="vscode://vscode-remote/wsl+Ubuntu/home/gavin/statlib/Statlib/CoxChangePoint/L2OperatorMap.lean:204" xlink:title="structure · Statlib/CoxChangePoint/L2OperatorMap.lean:204" target="_blank">
<path fill="#e8dcff" stroke="#8b5cf6" d="M222.07,-196C222.07,-196 149.47,-196 149.47,-196 143.47,-196 137.47,-190 137.47,-184 137.47,-184 137.47,-172 137.47,-172 137.47,-166 143.47,-160 149.47,-160 149.47,-160 222.07,-160 222.07,-160 228.07,-160 234.07,-166 234.07,-172 234.07,-172 234.07,-184 234.07,-184 234.07,-190 228.07,-196 222.07,-196"/>
<text xml:space="preserve" text-anchor="middle" x="185.77" y="-175" font-family="Helvetica,sans-Serif" font-size="10.00">L2KernelMapData</text>
</a>
</g>
</g>
<!-- n5&#45;&gt;n1 -->
<g id="edge4" class="edge">
<title>n5&#45;&gt;n1</title>
<path fill="none" stroke="#64748b" d="M207.03,-159.7C218.19,-150.61 232.01,-139.36 244.01,-129.6"/>
<polygon fill="#64748b" stroke="#64748b" points="245.4,-131.62 249.28,-125.3 242.31,-127.82 245.4,-131.62"/>
</g>
<!-- n5&#45;&gt;n4 -->
<g id="edge5" class="edge">
<title>n5&#45;&gt;n4</title>
<path fill="none" stroke="#64748b" d="M234.21,-162C274.22,-149.46 327.75,-132.34 348.77,-124 349.12,-123.86 349.48,-123.72 349.83,-123.57"/>
<polygon fill="#64748b" stroke="#64748b" points="350.53,-125.94 356.02,-120.95 348.61,-121.43 350.53,-125.94"/>
</g>
<!-- n6 -->
<g id="node7" class="node">
<title>n6</title>
<g id="a_node7"><a xlink:href="vscode://vscode-remote/wsl+Ubuntu/home/gavin/statlib/Statlib/CoxChangePoint/InfiniteDimSpectral.lean:87" xlink:title="structure · Statlib/CoxChangePoint/InfiniteDimSpectral.lean:87" target="_blank">
<path fill="#e8dcff" stroke="#8b5cf6" d="M335.78,-196C335.78,-196 263.76,-196 263.76,-196 257.76,-196 251.76,-190 251.76,-184 251.76,-184 251.76,-172 251.76,-172 251.76,-166 257.76,-160 263.76,-160 263.76,-160 335.78,-160 335.78,-160 341.78,-160 347.78,-166 347.78,-172 347.78,-172 347.78,-184 347.78,-184 347.78,-190 341.78,-196 335.78,-196"/>
<text xml:space="preserve" text-anchor="middle" x="299.77" y="-175" font-family="Helvetica,sans-Serif" font-size="10.00">SpectralFamilyHS</text>
</a>
</g>
</g>
<!-- n7 -->
<g id="node8" class="node">
<title>n7</title>
<g id="a_node8"><a xlink:href="vscode://vscode-remote/wsl+Ubuntu/home/gavin/statlib/Statlib/CoxChangePoint/L2OperatorMap.lean:239" xlink:title="def · Statlib/CoxChangePoint/L2OperatorMap.lean:239" target="_blank">
<path fill="#d6e9ff" stroke="#3b82f6" d="M475.86,-196C475.86,-196 377.68,-196 377.68,-196 371.68,-196 365.68,-190 365.68,-184 365.68,-184 365.68,-172 365.68,-172 365.68,-166 371.68,-160 377.68,-160 377.68,-160 475.86,-160 475.86,-160 481.86,-160 487.86,-166 487.86,-172 487.86,-172 487.86,-184 487.86,-184 487.86,-190 481.86,-196 475.86,-196"/>
<text xml:space="preserve" text-anchor="middle" x="426.77" y="-175" font-family="Helvetica,sans-Serif" font-size="10.00">toContinuousLinearMap</text>
</a>
</g>
</g>
<!-- n8 -->
<g id="node9" class="node">
<title>n8</title>
<g id="a_node9"><a xlink:href="vscode://vscode-remote/wsl+Ubuntu/home/gavin/statlib/Statlib/CoxChangePoint/SpectralOperator.lean:193" xlink:title="structure · Statlib/CoxChangePoint/SpectralOperator.lean:193" target="_blank">
<path fill="#e8dcff" stroke="#8b5cf6" d="M173.69,-124C173.69,-124 73.85,-124 73.85,-124 67.85,-124 61.85,-118 61.85,-112 61.85,-112 61.85,-100 61.85,-100 61.85,-94 67.85,-88 73.85,-88 73.85,-88 173.69,-88 173.69,-88 179.69,-88 185.69,-94 185.69,-100 185.69,-100 185.69,-112 185.69,-112 185.69,-118 179.69,-124 173.69,-124"/>
<text xml:space="preserve" text-anchor="middle" x="123.77" y="-103" font-family="Helvetica,sans-Serif" font-size="10.00">HasEigendecomposition</text>
</a>
</g>
</g>
<!-- n8&#45;&gt;n0 -->
<g id="edge6" class="edge">
<title>n8&#45;&gt;n0</title>
<path fill="none" stroke="#64748b" d="M123.77,-87.7C123.77,-79.47 123.77,-69.48 123.77,-60.42"/>
<polygon fill="#64748b" stroke="#64748b" points="126.22,-60.62 123.77,-53.62 121.32,-60.62 126.22,-60.62"/>
</g>
<!-- n9 -->
<g id="node10" class="node">
<title>n9</title>
<g id="a_node10"><a xlink:href="vscode://vscode-remote/wsl+Ubuntu/home/gavin/statlib/Statlib/CoxChangePoint/FPC.lean:42" xlink:title="structure · Statlib/CoxChangePoint/FPC.lean:42" target="_blank">
<path fill="#e8dcff" stroke="#8b5cf6" d="M143.39,-268C143.39,-268 94.15,-268 94.15,-268 88.15,-268 82.15,-262 82.15,-256 82.15,-256 82.15,-244 82.15,-244 82.15,-238 88.15,-232 94.15,-232 94.15,-232 143.39,-232 143.39,-232 149.39,-232 155.39,-238 155.39,-244 155.39,-244 155.39,-256 155.39,-256 155.39,-262 149.39,-268 143.39,-268"/>
<text xml:space="preserve" text-anchor="middle" x="118.77" y="-247" font-family="Helvetica,sans-Serif" font-size="10.00">Eigensystem</text>
</a>
</g>
</g>
<!-- n10 -->
<g id="node11" class="node">
<title>n10</title>
<g id="a_node11"><a xlink:href="vscode://vscode-remote/wsl+Ubuntu/home/gavin/statlib/Statlib/CoxChangePoint/SpectralOperator.lean:226" xlink:title="def · Statlib/CoxChangePoint/SpectralOperator.lean:226" target="_blank">
<path fill="#d6e9ff" stroke="#3b82f6" d="M123.56,-340C123.56,-340 65.98,-340 65.98,-340 59.98,-340 53.98,-334 53.98,-328 53.98,-328 53.98,-316 53.98,-316 53.98,-310 59.98,-304 65.98,-304 65.98,-304 123.56,-304 123.56,-304 129.56,-304 135.56,-310 135.56,-316 135.56,-316 135.56,-328 135.56,-328 135.56,-334 129.56,-340 123.56,-340"/>
<text xml:space="preserve" text-anchor="middle" x="94.77" y="-319" font-family="Helvetica,sans-Serif" font-size="10.00">toEigensystem</text>
</a>
</g>
</g>
<!-- n10&#45;&gt;n0 -->
<g id="edge7" class="edge">
<title>n10&#45;&gt;n0</title>
<path fill="none" stroke="#64748b" d="M83.35,-303.59C77.38,-293.59 70.54,-280.56 66.77,-268 43.71,-191.14 16.8,-159.73 52.77,-88 59.11,-75.36 70.05,-64.96 81.48,-56.82"/>
<polygon fill="#64748b" stroke="#64748b" points="82.52,-59.07 86.97,-53.14 79.79,-55 82.52,-59.07"/>
</g>
<!-- n10&#45;&gt;n8 -->
<g id="edge8" class="edge">
<title>n10&#45;&gt;n8</title>
<path fill="none" stroke="#64748b" d="M85.64,-303.88C80.76,-293.76 75.26,-280.51 72.77,-268 69.64,-252.31 69.69,-247.7 72.77,-232 79.93,-195.47 97.84,-156.16 110.4,-131.57"/>
<polygon fill="#64748b" stroke="#64748b" points="112.51,-132.82 113.57,-125.48 108.16,-130.56 112.51,-132.82"/>
</g>
<!-- n10&#45;&gt;n9 -->
<g id="edge9" class="edge">
<title>n10&#45;&gt;n9</title>
<path fill="none" stroke="#64748b" d="M100.7,-303.7C103.55,-295.39 107.02,-285.28 110.15,-276.14"/>
<polygon fill="#64748b" stroke="#64748b" points="112.46,-276.95 112.41,-269.54 107.82,-275.36 112.46,-276.95"/>
</g>
<!-- n11 -->
<g id="node12" class="node">
<title>n11</title>
<g id="a_node12"><a xlink:href="vscode://vscode-remote/wsl+Ubuntu/home/gavin/statlib/Statlib/CoxChangePoint/InfiniteDimSpectral.lean:306" xlink:title="noncomputable def · Statlib/CoxChangePoint/InfiniteDimSpectral.lean:306" target="_blank">
<path fill="#d6e9ff" stroke="#3b82f6" d="M375.68,-268C375.68,-268 265.86,-268 265.86,-268 259.86,-268 253.86,-262 253.86,-256 253.86,-256 253.86,-244 253.86,-244 253.86,-238 259.86,-232 265.86,-232 265.86,-232 375.68,-232 375.68,-232 381.68,-232 387.68,-238 387.68,-244 387.68,-244 387.68,-256 387.68,-256 387.68,-262 381.68,-268 375.68,-268"/>
<text xml:space="preserve" text-anchor="middle" x="320.77" y="-247" font-family="Helvetica,sans-Serif" font-size="10.00">SpectralFamilyHS.phiRepr</text>
</a>
</g>
</g>
<!-- n11&#45;&gt;n5 -->
<g id="edge10" class="edge">
<title>n11&#45;&gt;n5</title>
<path fill="none" stroke="#64748b" d="M287.05,-231.52C268.71,-222.01 245.89,-210.17 226.55,-200.15"/>
<polygon fill="#64748b" stroke="#64748b" points="227.74,-198 220.4,-196.96 225.49,-202.35 227.74,-198"/>
</g>
<!-- n11&#45;&gt;n6 -->
<g id="edge11" class="edge">
<title>n11&#45;&gt;n6</title>
<path fill="none" stroke="#64748b" d="M315.58,-231.7C313.08,-223.39 310.05,-213.28 307.31,-204.14"/>
<polygon fill="#64748b" stroke="#64748b" points="309.69,-203.55 305.33,-197.55 305,-204.96 309.69,-203.55"/>
</g>
<!-- n11&#45;&gt;n7 -->
<g id="edge12" class="edge">
<title>n11&#45;&gt;n7</title>
<path fill="none" stroke="#64748b" d="M347.24,-231.52C361.26,-222.26 378.61,-210.8 393.53,-200.95"/>
<polygon fill="#64748b" stroke="#64748b" points="394.88,-203 399.37,-197.09 392.18,-198.91 394.88,-203"/>
</g>
<!-- n12 -->
<g id="node13" class="node">
<title>n12</title>
<g id="a_node13"><a xlink:href="vscode://vscode-remote/wsl+Ubuntu/home/gavin/statlib/Statlib/CoxChangePoint/InfiniteDimSpectral.lean:313" xlink:title="lemma · Statlib/CoxChangePoint/InfiniteDimSpectral.lean:313" target="_blank">
<path fill="#eef2f6" stroke="#94a3b8" d="M415.68,-340C415.68,-340 275.85,-340 275.85,-340 269.85,-340 263.85,-334 263.85,-328 263.85,-328 263.85,-316 263.85,-316 263.85,-310 269.85,-304 275.85,-304 275.85,-304 415.68,-304 415.68,-304 421.68,-304 427.68,-310 427.68,-316 427.68,-316 427.68,-328 427.68,-328 427.68,-334 421.68,-340 415.68,-340"/>
<text xml:space="preserve" text-anchor="middle" x="345.77" y="-319" font-family="Helvetica,sans-Serif" font-size="10.00">SpectralFamilyHS.phiRepr_meas</text>
</a>
</g>
</g>
<!-- n12&#45;&gt;n5 -->
<g id="edge13" class="edge">
<title>n12&#45;&gt;n5</title>
<path fill="none" stroke="#64748b" d="M301.22,-303.55C282.43,-294.76 261.16,-282.8 244.77,-268 224.57,-249.77 208.14,-223.18 197.79,-203.82"/>
<polygon fill="#64748b" stroke="#64748b" points="199.97,-202.69 194.57,-197.61 195.62,-204.95 199.97,-202.69"/>
</g>
<!-- n12&#45;&gt;n6 -->
<g id="edge14" class="edge">
<title>n12&#45;&gt;n6</title>
<path fill="none" stroke="#64748b" d="M369.34,-303.58C379.86,-294.33 391.14,-281.98 396.77,-268 402.75,-253.16 404.93,-245.76 396.77,-232 387.47,-216.33 371.73,-204.99 355.59,-196.93"/>
<polygon fill="#64748b" stroke="#64748b" points="356.93,-194.85 349.55,-194.09 354.85,-199.28 356.93,-194.85"/>
</g>
<!-- n12&#45;&gt;n7 -->
<g id="edge15" class="edge">
<title>n12&#45;&gt;n7</title>
<path fill="none" stroke="#64748b" d="M371.43,-303.54C383.22,-294.28 396.41,-281.93 404.77,-268 416.44,-248.56 421.93,-223.2 424.51,-204.53"/>
<polygon fill="#64748b" stroke="#64748b" points="426.93,-204.96 425.34,-197.71 422.06,-204.36 426.93,-204.96"/>
</g>
<!-- n12&#45;&gt;n11 -->
<g id="edge16" class="edge">
<title>n12&#45;&gt;n11</title>
<path fill="none" stroke="#64748b" d="M339.59,-303.7C336.59,-295.3 332.94,-285.07 329.65,-275.86"/>
<polygon fill="#64748b" stroke="#64748b" points="332.05,-275.3 327.39,-269.53 327.43,-276.95 332.05,-275.3"/>
</g>
<!-- n13 -->
<g id="node14" class="node">
<title>n13</title>
<g id="a_node14"><a xlink:href="vscode://vscode-remote/wsl+Ubuntu/home/gavin/statlib/Statlib/CoxChangePoint/InfiniteDimSpectral.lean:321" xlink:title="noncomputable def · Statlib/CoxChangePoint/InfiniteDimSpectral.lean:321" target="_blank">
<path fill="#d6e9ff" stroke="#3b82f6" d="M345.96,-412C345.96,-412 205.58,-412 205.58,-412 199.58,-412 193.58,-406 193.58,-400 193.58,-400 193.58,-388 193.58,-388 193.58,-382 199.58,-376 205.58,-376 205.58,-376 345.96,-376 345.96,-376 351.96,-376 357.96,-382 357.96,-388 357.96,-388 357.96,-400 357.96,-400 357.96,-406 351.96,-412 345.96,-412"/>
<text xml:space="preserve" text-anchor="middle" x="275.77" y="-391" font-family="Helvetica,sans-Serif" font-size="10.00">SpectralFamilyHS.toEigensystem</text>
</a>
</g>
</g>
<!-- n13&#45;&gt;n5 -->
<g id="edge18" class="edge">
<title>n13&#45;&gt;n5</title>
<path fill="none" stroke="#64748b" d="M258.77,-375.6C249.98,-365.81 239.67,-352.97 232.77,-340 209.03,-295.4 195.88,-237.31 189.87,-204.49"/>
<polygon fill="#64748b" stroke="#64748b" points="192.32,-204.29 188.69,-197.82 187.5,-205.14 192.32,-204.29"/>
</g>
<!-- n13&#45;&gt;n6 -->
<g id="edge19" class="edge">
<title>n13&#45;&gt;n6</title>
<path fill="none" stroke="#64748b" d="M263.11,-375.83C256.57,-365.9 249.25,-352.86 245.77,-340 233.22,-293.67 225.99,-276.18 244.77,-232 249.7,-220.4 258.55,-210.11 267.73,-201.75"/>
<polygon fill="#64748b" stroke="#64748b" points="269.24,-203.69 272.95,-197.27 266.05,-199.97 269.24,-203.69"/>
</g>
<!-- n13&#45;&gt;n7 -->
<g id="edge20" class="edge">
<title>n13&#45;&gt;n7</title>
<path fill="none" stroke="#64748b" d="M358.4,-385.66C388.03,-378.57 418.57,-365.15 436.77,-340 465.8,-299.88 449.95,-238.37 437.38,-204.16"/>
<polygon fill="#64748b" stroke="#64748b" points="439.77,-203.56 434.98,-197.9 435.19,-205.31 439.77,-203.56"/>
</g>
<!-- n13&#45;&gt;n9 -->
<g id="edge21" class="edge">
<title>n13&#45;&gt;n9</title>
<path fill="none" stroke="#64748b" d="M241.66,-375.6C225.07,-366.26 205.39,-353.84 189.77,-340 167.99,-320.71 147.78,-294.18 134.54,-275.11"/>
<polygon fill="#64748b" stroke="#64748b" points="136.64,-273.85 130.67,-269.45 132.6,-276.61 136.64,-273.85"/>
</g>
<!-- n13&#45;&gt;n10 -->
<g id="edge17" class="edge">
<title>n13&#45;&gt;n10</title>
<path fill="none" stroke="#64748b" d="M230.56,-375.52C204.16,-365.31 170.84,-352.42 143.81,-341.96"/>
<polygon fill="#64748b" stroke="#64748b" points="144.82,-339.73 137.41,-339.49 143.05,-344.3 144.82,-339.73"/>
</g>
<!-- n13&#45;&gt;n11 -->
<g id="edge22" class="edge">
<title>n13&#45;&gt;n11</title>
<path fill="none" stroke="#64748b" d="M265.04,-375.54C255.15,-357.03 243.58,-327.33 254.77,-304 260.66,-291.71 270.95,-281.37 281.67,-273.18"/>
<polygon fill="#64748b" stroke="#64748b" points="282.89,-275.32 287.14,-269.24 280.03,-271.34 282.89,-275.32"/>
</g>
<!-- n13&#45;&gt;n12 -->
<g id="edge23" class="edge">
<title>n13&#45;&gt;n12</title>
<path fill="none" stroke="#64748b" d="M293.07,-375.7C302.06,-366.71 313.15,-355.61 322.84,-345.92"/>
<polygon fill="#64748b" stroke="#64748b" points="324.38,-347.86 327.59,-341.17 320.91,-344.39 324.38,-347.86"/>
</g>
<!-- n14 -->
<g id="node15" class="node">
<title>n14</title>
<g id="a_node15"><a xlink:href="vscode://vscode-remote/wsl+Ubuntu/home/gavin/statlib/Statlib/CoxChangePoint/InfiniteDimSpectral.lean:331" xlink:title="lemma · Statlib/CoxChangePoint/InfiniteDimSpectral.lean:331" target="_blank">
<path fill="#eef2f6" stroke="#94a3b8" stroke-width="3" d="M390.7,-484C390.7,-484 160.83,-484 160.83,-484 154.83,-484 148.83,-478 148.83,-472 148.83,-472 148.83,-460 148.83,-460 148.83,-454 154.83,-448 160.83,-448 160.83,-448 390.7,-448 390.7,-448 396.7,-448 402.7,-454 402.7,-460 402.7,-460 402.7,-472 402.7,-472 402.7,-478 396.7,-484 390.7,-484"/>
<text xml:space="preserve" text-anchor="middle" x="275.77" y="-463" font-family="Helvetica,sans-Serif" font-size="10.00">SpectralFamilyHS.toEigensystem_lam_summable_sq</text>
</a>
</g>
</g>
<!-- n14&#45;&gt;n5 -->
<g id="edge24" class="edge">
<title>n14&#45;&gt;n5</title>
<path fill="none" stroke="#64748b" d="M223.81,-446.6C208.5,-438.47 193.51,-427.22 184.77,-412 146.51,-345.45 165.52,-249.53 177.92,-204.35"/>
<polygon fill="#64748b" stroke="#64748b" points="180.25,-205.13 179.8,-197.73 175.53,-203.79 180.25,-205.13"/>
</g>
<!-- n14&#45;&gt;n6 -->
<g id="edge25" class="edge">
<title>n14&#45;&gt;n6</title>
<path fill="none" stroke="#64748b" d="M319.62,-446.66C359.69,-427.05 415.8,-391.64 436.77,-340 455.6,-293.61 439.29,-268.26 404.77,-232 391.22,-217.76 373.01,-206.74 355.57,-198.53"/>
<polygon fill="#64748b" stroke="#64748b" points="356.92,-196.45 349.54,-195.8 354.91,-200.92 356.92,-196.45"/>
</g>
<!-- n14&#45;&gt;n7 -->
<g id="edge26" class="edge">
<title>n14&#45;&gt;n7</title>
<path fill="none" stroke="#64748b" d="M338.55,-446.57C359.8,-438.3 382.71,-426.96 400.77,-412 430.38,-387.46 436.1,-376.31 448.77,-340 464.6,-294.61 466.34,-278.66 454.77,-232 452.33,-222.16 447.69,-212.13 442.88,-203.48"/>
<polygon fill="#64748b" stroke="#64748b" points="445.07,-202.38 439.42,-197.58 440.85,-204.86 445.07,-202.38"/>
</g>
<!-- n14&#45;&gt;n10 -->
<g id="edge28" class="edge">
<title>n14&#45;&gt;n10</title>
<path fill="none" stroke="#64748b" d="M229.01,-446.61C209.62,-437.76 187.55,-426 169.77,-412 146.16,-393.41 124.67,-366.38 110.8,-346.99"/>
<polygon fill="#64748b" stroke="#64748b" points="112.95,-345.78 106.92,-341.46 108.94,-348.6 112.95,-345.78"/>
</g>
<!-- n14&#45;&gt;n13 -->
<g id="edge27" class="edge">
<title>n14&#45;&gt;n13</title>
<path fill="none" stroke="#64748b" d="M275.77,-446.61C275.77,-438.59 275.77,-429.05 275.77,-420.37"/>
<polygon fill="#64748b" stroke="#64748b" points="278.22,-420.58 275.77,-413.58 273.32,-420.58 278.22,-420.58"/>
</g>
</g>
</svg>
