<?xml version="1.0" encoding="UTF-8" standalone="no"?>
<!DOCTYPE svg PUBLIC "-//W3C//DTD SVG 1.1//EN"
 "http://www.w3.org/Graphics/SVG/1.1/DTD/svg11.dtd">
<!-- Generated by graphviz version 15.0.0 (20260523.1842)
 -->
<!-- Title: supEmpiricalGap_nonneg_of_bddAbove Pages: 1 -->
<svg width="626pt" height="770pt"
 viewBox="0.00 0.00 626.00 770.00" xmlns="http://www.w3.org/2000/svg" xmlns:xlink="http://www.w3.org/1999/xlink">
<g id="graph0" class="graph" transform="scale(1 1) rotate(0) translate(4 766)">
<title>supEmpiricalGap_nonneg_of_bddAbove</title>
<polygon fill="white" stroke="none" points="-4,4 -4,-766 622,-766 622,4 -4,4"/>
<text xml:space="preserve" text-anchor="middle" x="309" y="-745.4" font-family="Helvetica,sans-Serif" font-size="14.00">Proof narrative — supEmpiricalGap_nonneg_of_bddAbove &#160;(18 decls)</text>
<g id="clust1" class="cluster">
<title>cluster_0</title>
<path fill="none" stroke="#cbd5e1" stroke-dasharray="5,2" d="M20,-8C20,-8 598,-8 598,-8 604,-8 610,-14 610,-20 610,-20 610,-717.2 610,-717.2 610,-723.2 604,-729.2 598,-729.2 598,-729.2 20,-729.2 20,-729.2 14,-729.2 8,-723.2 8,-717.2 8,-717.2 8,-20 8,-20 8,-14 14,-8 20,-8"/>
<text xml:space="preserve" text-anchor="middle" x="309" y="-715.3" font-family="Helvetica,sans-Serif" font-size="11.00">CoxChangePoint</text>
</g>
<!-- n0 -->
<g id="node1" class="node">
<title>n0</title>
<g id="a_node1"><a xlink:href="vscode://vscode-remote/wsl+Ubuntu/home/gavin/statlib/Statlib/CoxChangePoint/Foundation.lean:38" xlink:title="structure · Statlib/CoxChangePoint/Foundation.lean:38" target="_blank">
<path fill="#e8dcff" stroke="#8b5cf6" d="M456,-52C456,-52 426,-52 426,-52 420,-52 414,-46 414,-40 414,-40 414,-28 414,-28 414,-22 420,-16 426,-16 426,-16 456,-16 456,-16 462,-16 468,-22 468,-28 468,-28 468,-40 468,-40 468,-46 462,-52 456,-52"/>
<text xml:space="preserve" text-anchor="middle" x="441" y="-31" font-family="Helvetica,sans-Serif" font-size="10.00">CoxObs</text>
</a>
</g>
</g>
<!-- n1 -->
<g id="node2" class="node">
<title>n1</title>
<g id="a_node2"><a xlink:href="vscode://vscode-remote/wsl+Ubuntu/home/gavin/statlib/Statlib/CoxChangePoint/Foundation.lean:127" xlink:title="def · Statlib/CoxChangePoint/Foundation.lean:127" target="_blank">
<path fill="#d6e9ff" stroke="#3b82f6" d="M562,-412C562,-412 532,-412 532,-412 526,-412 520,-406 520,-400 520,-400 520,-388 520,-388 520,-382 526,-376 532,-376 532,-376 562,-376 562,-376 568,-376 574,-382 574,-388 574,-388 574,-400 574,-400 574,-406 568,-412 562,-412"/>
<text xml:space="preserve" text-anchor="middle" x="547" y="-391" font-family="Helvetica,sans-Serif" font-size="10.00">Sample</text>
</a>
</g>
</g>
<!-- n1&#45;&gt;n0 -->
<g id="edge1" class="edge">
<title>n1&#45;&gt;n0</title>
<path fill="none" stroke="#64748b" d="M544.37,-375.56C540.57,-348.82 534,-296.06 534,-251 534,-251 534,-251 534,-177 534,-135.53 529.27,-122.32 506,-88 497.8,-75.91 486.05,-65.16 474.79,-56.55"/>
<polygon fill="#64748b" stroke="#64748b" points="476.55,-54.81 469.46,-52.63 473.65,-58.75 476.55,-54.81"/>
</g>
<!-- n2 -->
<g id="node3" class="node">
<title>n2</title>
<g id="a_node3"><a xlink:href="vscode://vscode-remote/wsl+Ubuntu/home/gavin/statlib/Statlib/CoxChangePoint/Foundation.lean:57" xlink:title="structure · Statlib/CoxChangePoint/Foundation.lean:57" target="_blank">
<path fill="#e8dcff" stroke="#8b5cf6" d="M156.62,-52C156.62,-52 117.38,-52 117.38,-52 111.38,-52 105.38,-46 105.38,-40 105.38,-40 105.38,-28 105.38,-28 105.38,-22 111.38,-16 117.38,-16 117.38,-16 156.62,-16 156.62,-16 162.62,-16 168.62,-22 168.62,-28 168.62,-28 168.62,-40 168.62,-40 168.62,-46 162.62,-52 156.62,-52"/>
<text xml:space="preserve" text-anchor="middle" x="137" y="-31" font-family="Helvetica,sans-Serif" font-size="10.00">CoxParam</text>
</a>
</g>
</g>
<!-- n3 -->
<g id="node4" class="node">
<title>n3</title>
<g id="a_node4"><a xlink:href="vscode://vscode-remote/wsl+Ubuntu/home/gavin/statlib/Statlib/CoxChangePoint/Foundation.lean:68" xlink:title="noncomputable def · Statlib/CoxChangePoint/Foundation.lean:68" target="_blank">
<path fill="#d6e9ff" stroke="#3b82f6" d="M278,-124C278,-124 248,-124 248,-124 242,-124 236,-118 236,-112 236,-112 236,-100 236,-100 236,-94 242,-88 248,-88 248,-88 278,-88 278,-88 284,-88 290,-94 290,-100 290,-100 290,-112 290,-112 290,-118 284,-124 278,-124"/>
<text xml:space="preserve" text-anchor="middle" x="263" y="-103" font-family="Helvetica,sans-Serif" font-size="10.00">g</text>
</a>
</g>
</g>
<!-- n3&#45;&gt;n0 -->
<g id="edge3" class="edge">
<title>n3&#45;&gt;n0</title>
<path fill="none" stroke="#64748b" d="M290.42,-94.22C321.39,-82.04 371.86,-62.19 405.74,-48.87"/>
<polygon fill="#64748b" stroke="#64748b" points="406.52,-51.19 412.14,-46.35 404.73,-46.63 406.52,-51.19"/>
</g>
<!-- n3&#45;&gt;n2 -->
<g id="edge2" class="edge">
<title>n3&#45;&gt;n2</title>
<path fill="none" stroke="#64748b" d="M235.66,-89.81C218.07,-80.04 194.96,-67.2 175.53,-56.4"/>
<polygon fill="#64748b" stroke="#64748b" points="176.91,-54.37 169.6,-53.11 174.53,-58.65 176.91,-54.37"/>
</g>
<!-- n4 -->
<g id="node5" class="node">
<title>n4</title>
<g id="a_node5"><a xlink:href="vscode://vscode-remote/wsl+Ubuntu/home/gavin/statlib/Statlib/CoxChangePoint/Foundation.lean:89" xlink:title="noncomputable def · Statlib/CoxChangePoint/Foundation.lean:89" target="_blank">
<path fill="#d6e9ff" stroke="#3b82f6" d="M410,-124C410,-124 380,-124 380,-124 374,-124 368,-118 368,-112 368,-112 368,-100 368,-100 368,-94 374,-88 380,-88 380,-88 410,-88 410,-88 416,-88 422,-94 422,-100 422,-100 422,-112 422,-112 422,-118 416,-124 410,-124"/>
<text xml:space="preserve" text-anchor="middle" x="395" y="-103" font-family="Helvetica,sans-Serif" font-size="10.00">atRisk</text>
</a>
</g>
</g>
<!-- n4&#45;&gt;n0 -->
<g id="edge4" class="edge">
<title>n4&#45;&gt;n0</title>
<path fill="none" stroke="#64748b" d="M406.37,-87.7C412.05,-79.05 419.02,-68.45 425.21,-59.03"/>
<polygon fill="#64748b" stroke="#64748b" points="427.13,-60.56 428.93,-53.37 423.04,-57.87 427.13,-60.56"/>
</g>
<!-- n5 -->
<g id="node6" class="node">
<title>n5</title>
<g id="a_node6"><a xlink:href="vscode://vscode-remote/wsl+Ubuntu/home/gavin/statlib/Statlib/CoxChangePoint/Foundation.lean:75" xlink:title="noncomputable def · Statlib/CoxChangePoint/Foundation.lean:75" target="_blank">
<path fill="#d6e9ff" stroke="#3b82f6" d="M318,-196C318,-196 288,-196 288,-196 282,-196 276,-190 276,-184 276,-184 276,-172 276,-172 276,-166 282,-160 288,-160 288,-160 318,-160 318,-160 324,-160 330,-166 330,-172 330,-172 330,-184 330,-184 330,-190 324,-196 318,-196"/>
<text xml:space="preserve" text-anchor="middle" x="303" y="-175" font-family="Helvetica,sans-Serif" font-size="10.00">expG</text>
</a>
</g>
</g>
<!-- n5&#45;&gt;n0 -->
<g id="edge6" class="edge">
<title>n5&#45;&gt;n0</title>
<path fill="none" stroke="#64748b" d="M307.39,-159.74C313.07,-140.31 324.61,-108.76 344,-88 361,-69.8 385.69,-56.43 405.91,-47.67"/>
<polygon fill="#64748b" stroke="#64748b" points="406.77,-49.97 412.29,-45.01 404.89,-45.44 406.77,-49.97"/>
</g>
<!-- n5&#45;&gt;n2 -->
<g id="edge5" class="edge">
<title>n5&#45;&gt;n2</title>
<path fill="none" stroke="#64748b" d="M307.55,-159.67C311.57,-140.17 314.63,-108.57 299,-88 270.62,-50.65 215.28,-39.23 177.24,-35.96"/>
<polygon fill="#64748b" stroke="#64748b" points="177.6,-33.53 170.44,-35.45 177.24,-38.41 177.6,-33.53"/>
</g>
<!-- n5&#45;&gt;n3 -->
<g id="edge7" class="edge">
<title>n5&#45;&gt;n3</title>
<path fill="none" stroke="#64748b" d="M293.11,-159.7C288.22,-151.14 282.23,-140.66 276.89,-131.3"/>
<polygon fill="#64748b" stroke="#64748b" points="279.13,-130.28 273.52,-125.42 274.87,-132.71 279.13,-130.28"/>
</g>
<!-- n6 -->
<g id="node7" class="node">
<title>n6</title>
<g id="a_node7"><a xlink:href="vscode://vscode-remote/wsl+Ubuntu/home/gavin/statlib/Statlib/CoxChangePoint/Foundation.lean:93" xlink:title="noncomputable def · Statlib/CoxChangePoint/Foundation.lean:93" target="_blank">
<path fill="#d6e9ff" stroke="#3b82f6" d="M318,-268C318,-268 288,-268 288,-268 282,-268 276,-262 276,-256 276,-256 276,-244 276,-244 276,-238 282,-232 288,-232 288,-232 318,-232 318,-232 324,-232 330,-238 330,-244 330,-244 330,-256 330,-256 330,-262 324,-268 318,-268"/>
<text xml:space="preserve" text-anchor="middle" x="303" y="-247" font-family="Helvetica,sans-Serif" font-size="10.00">riskSum</text>
</a>
</g>
</g>
<!-- n6&#45;&gt;n0 -->
<g id="edge8" class="edge">
<title>n6&#45;&gt;n0</title>
<path fill="none" stroke="#64748b" d="M317.3,-231.91C324.87,-222.01 333.67,-208.96 339,-196 357.55,-150.85 331.84,-128.56 359,-88 370.45,-70.9 389.48,-58.1 406.33,-49.37"/>
<polygon fill="#64748b" stroke="#64748b" points="407.33,-51.6 412.52,-46.31 405.16,-47.21 407.33,-51.6"/>
</g>
<!-- n6&#45;&gt;n2 -->
<g id="edge9" class="edge">
<title>n6&#45;&gt;n2</title>
<path fill="none" stroke="#64748b" d="M291.09,-231.97C283.96,-221.66 274.79,-208.18 267,-196 251.9,-172.41 220.35,-109.16 202,-88 192.27,-76.78 179.98,-66.09 168.71,-57.28"/>
<polygon fill="#64748b" stroke="#64748b" points="170.47,-55.55 163.42,-53.25 167.5,-59.44 170.47,-55.55"/>
</g>
<!-- n6&#45;&gt;n4 -->
<g id="edge10" class="edge">
<title>n6&#45;&gt;n4</title>
<path fill="none" stroke="#64748b" d="M322.57,-231.69C332.83,-221.92 345.07,-209.08 354,-196 367.7,-175.93 378.88,-150.54 386.08,-132.02"/>
<polygon fill="#64748b" stroke="#64748b" points="388.29,-133.12 388.48,-125.71 383.7,-131.38 388.29,-133.12"/>
</g>
<!-- n6&#45;&gt;n5 -->
<g id="edge11" class="edge">
<title>n6&#45;&gt;n5</title>
<path fill="none" stroke="#64748b" d="M303,-231.7C303,-223.47 303,-213.48 303,-204.42"/>
<polygon fill="#64748b" stroke="#64748b" points="305.45,-204.62 303,-197.62 300.55,-204.62 305.45,-204.62"/>
</g>
<!-- n7 -->
<g id="node8" class="node">
<title>n7</title>
<g id="a_node8"><a xlink:href="vscode://vscode-remote/wsl+Ubuntu/home/gavin/statlib/Statlib/CoxChangePoint/Foundation.lean:104" xlink:title="noncomputable def · Statlib/CoxChangePoint/Foundation.lean:104" target="_blank">
<path fill="#d6e9ff" stroke="#3b82f6" d="M286.36,-340C286.36,-340 207.64,-340 207.64,-340 201.64,-340 195.64,-334 195.64,-328 195.64,-328 195.64,-316 195.64,-316 195.64,-310 201.64,-304 207.64,-304 207.64,-304 286.36,-304 286.36,-304 292.36,-304 298.36,-310 298.36,-316 298.36,-316 298.36,-328 298.36,-328 298.36,-334 292.36,-340 286.36,-340"/>
<text xml:space="preserve" text-anchor="middle" x="247" y="-319" font-family="Helvetica,sans-Serif" font-size="10.00">logPartialLikelihood</text>
</a>
</g>
</g>
<!-- n7&#45;&gt;n0 -->
<g id="edge12" class="edge">
<title>n7&#45;&gt;n0</title>
<path fill="none" stroke="#64748b" d="M286.49,-303.57C303.9,-294.61 323.8,-282.51 339,-268 393.92,-215.54 405.66,-195.59 431,-124 438.27,-103.47 440.58,-78.76 441.18,-60.59"/>
<polygon fill="#64748b" stroke="#64748b" points="443.62,-60.81 441.32,-53.76 438.72,-60.71 443.62,-60.81"/>
</g>
<!-- n7&#45;&gt;n2 -->
<g id="edge13" class="edge">
<title>n7&#45;&gt;n2</title>
<path fill="none" stroke="#64748b" d="M244.77,-303.68C239.08,-263.67 221.58,-162.56 182,-88 176.35,-77.36 168.27,-66.96 160.51,-58.24"/>
<polygon fill="#64748b" stroke="#64748b" points="162.52,-56.81 155.98,-53.31 158.92,-60.12 162.52,-56.81"/>
</g>
<!-- n7&#45;&gt;n3 -->
<g id="edge14" class="edge">
<title>n7&#45;&gt;n3</title>
<path fill="none" stroke="#64748b" d="M248.28,-303.85C251.09,-266.36 257.77,-176.95 261.08,-132.7"/>
<polygon fill="#64748b" stroke="#64748b" points="263.52,-132.9 261.6,-125.74 258.63,-132.54 263.52,-132.9"/>
</g>
<!-- n7&#45;&gt;n6 -->
<g id="edge15" class="edge">
<title>n7&#45;&gt;n6</title>
<path fill="none" stroke="#64748b" d="M260.84,-303.7C267.83,-294.97 276.41,-284.24 284,-274.75"/>
<polygon fill="#64748b" stroke="#64748b" points="285.91,-276.28 288.37,-269.29 282.08,-273.22 285.91,-276.28"/>
</g>
<!-- n8 -->
<g id="node9" class="node">
<title>n8</title>
<g id="a_node9"><a xlink:href="vscode://vscode-remote/wsl+Ubuntu/home/gavin/statlib/Statlib/CoxChangePoint/Foundation.lean:112" xlink:title="noncomputable def · Statlib/CoxChangePoint/Foundation.lean:112" target="_blank">
<path fill="#d6e9ff" stroke="#3b82f6" d="M218,-412C218,-412 188,-412 188,-412 182,-412 176,-406 176,-400 176,-400 176,-388 176,-388 176,-382 182,-376 188,-376 188,-376 218,-376 218,-376 224,-376 230,-382 230,-388 230,-388 230,-400 230,-400 230,-406 224,-412 218,-412"/>
<text xml:space="preserve" text-anchor="middle" x="203" y="-391" font-family="Helvetica,sans-Serif" font-size="10.00">Gn</text>
</a>
</g>
</g>
<!-- n8&#45;&gt;n0 -->
<g id="edge16" class="edge">
<title>n8&#45;&gt;n0</title>
<path fill="none" stroke="#64748b" d="M230.12,-390.77C296.36,-383.68 461,-355.56 461,-251 461,-251 461,-251 461,-177 461,-135.94 452.7,-88.84 446.79,-60.53"/>
<polygon fill="#64748b" stroke="#64748b" points="449.22,-60.19 445.36,-53.86 444.43,-61.22 449.22,-60.19"/>
</g>
<!-- n8&#45;&gt;n2 -->
<g id="edge17" class="edge">
<title>n8&#45;&gt;n2</title>
<path fill="none" stroke="#64748b" d="M189,-375.82C169.63,-350.26 137,-299.93 137,-251 137,-251 137,-251 137,-177 137,-136.34 137,-89.13 137,-60.68"/>
<polygon fill="#64748b" stroke="#64748b" points="139.45,-61 137,-54 134.55,-61 139.45,-61"/>
</g>
<!-- n8&#45;&gt;n7 -->
<g id="edge18" class="edge">
<title>n8&#45;&gt;n7</title>
<path fill="none" stroke="#64748b" d="M213.88,-375.7C219.26,-367.14 225.84,-356.66 231.72,-347.3"/>
<polygon fill="#64748b" stroke="#64748b" points="233.79,-348.62 235.44,-341.39 229.64,-346.01 233.79,-348.62"/>
</g>
<!-- n9 -->
<g id="node10" class="node">
<title>n9</title>
<g id="a_node10"><a xlink:href="vscode://vscode-remote/wsl+Ubuntu/home/gavin/statlib/Statlib/CoxChangePoint/PopulationObjective.lean:61" xlink:title="noncomputable def · Statlib/CoxChangePoint/PopulationObjective.lean:61" target="_blank">
<path fill="#d6e9ff" stroke="#3b82f6" d="M227.92,-484C227.92,-484 148.08,-484 148.08,-484 142.08,-484 136.08,-478 136.08,-472 136.08,-472 136.08,-460 136.08,-460 136.08,-454 142.08,-448 148.08,-448 148.08,-448 227.92,-448 227.92,-448 233.92,-448 239.92,-454 239.92,-460 239.92,-460 239.92,-472 239.92,-472 239.92,-478 233.92,-484 227.92,-484"/>
<text xml:space="preserve" text-anchor="middle" x="188" y="-463" font-family="Helvetica,sans-Serif" font-size="10.00">populationObjective</text>
</a>
</g>
</g>
<!-- n9&#45;&gt;n1 -->
<g id="edge19" class="edge">
<title>n9&#45;&gt;n1</title>
<path fill="none" stroke="#64748b" d="M240.2,-454.82C314.27,-440.38 447.93,-414.32 511.53,-401.92"/>
<polygon fill="#64748b" stroke="#64748b" points="511.77,-404.37 518.17,-400.62 510.83,-399.56 511.77,-404.37"/>
</g>
<!-- n9&#45;&gt;n2 -->
<g id="edge20" class="edge">
<title>n9&#45;&gt;n2</title>
<path fill="none" stroke="#64748b" d="M172.59,-447.58C151.71,-422.1 117,-372.34 117,-323 117,-323 117,-323 117,-177 117,-135.94 125.3,-88.84 131.21,-60.53"/>
<polygon fill="#64748b" stroke="#64748b" points="133.57,-61.22 132.64,-53.86 128.78,-60.19 133.57,-61.22"/>
</g>
<!-- n9&#45;&gt;n8 -->
<g id="edge21" class="edge">
<title>n9&#45;&gt;n8</title>
<path fill="none" stroke="#64748b" d="M191.71,-447.7C193.47,-439.47 195.61,-429.48 197.55,-420.42"/>
<polygon fill="#64748b" stroke="#64748b" points="199.95,-420.94 199.02,-413.58 195.16,-419.92 199.95,-420.94"/>
</g>
<!-- n10 -->
<g id="node11" class="node">
<title>n10</title>
<g id="a_node11"><a xlink:href="vscode://vscode-remote/wsl+Ubuntu/home/gavin/statlib/Statlib/CoxChangePoint/PopulationObjective.lean:93" xlink:title="noncomputable def · Statlib/CoxChangePoint/PopulationObjective.lean:93" target="_blank">
<path fill="#d6e9ff" stroke="#3b82f6" d="M154.46,-556C154.46,-556 103.54,-556 103.54,-556 97.54,-556 91.54,-550 91.54,-544 91.54,-544 91.54,-532 91.54,-532 91.54,-526 97.54,-520 103.54,-520 103.54,-520 154.46,-520 154.46,-520 160.46,-520 166.46,-526 166.46,-532 166.46,-532 166.46,-544 166.46,-544 166.46,-550 160.46,-556 154.46,-556"/>
<text xml:space="preserve" text-anchor="middle" x="129" y="-535" font-family="Helvetica,sans-Serif" font-size="10.00">empiricalGap</text>
</a>
</g>
</g>
<!-- n10&#45;&gt;n1 -->
<g id="edge22" class="edge">
<title>n10&#45;&gt;n1</title>
<path fill="none" stroke="#64748b" d="M166.71,-522.36C169.49,-521.49 172.28,-520.7 175,-520 281.2,-492.85 328.84,-546.36 419,-484 434.05,-473.59 425.73,-460.61 439,-448 459.72,-428.31 489.15,-414.52 512.06,-405.96"/>
<polygon fill="#64748b" stroke="#64748b" points="512.69,-408.34 518.44,-403.66 511.03,-403.73 512.69,-408.34"/>
</g>
<!-- n10&#45;&gt;n2 -->
<g id="edge23" class="edge">
<title>n10&#45;&gt;n2</title>
<path fill="none" stroke="#64748b" d="M113.83,-519.53C106.11,-509.72 97.27,-496.88 92,-484 76.82,-446.87 77,-435.11 77,-395 77,-395 77,-395 77,-177 77,-136.89 75.08,-124.37 92,-88 96.95,-77.36 104.63,-67.16 112.25,-58.6"/>
<polygon fill="#64748b" stroke="#64748b" points="114.02,-60.29 116.99,-53.5 110.43,-56.95 114.02,-60.29"/>
</g>
<!-- n10&#45;&gt;n8 -->
<g id="edge24" class="edge">
<title>n10&#45;&gt;n8</title>
<path fill="none" stroke="#64748b" d="M123.95,-519.83C119.44,-501.05 115.2,-470.61 127,-448 135.76,-431.21 152.54,-418.65 168.11,-409.99"/>
<polygon fill="#64748b" stroke="#64748b" points="169.21,-412.17 174.27,-406.75 166.93,-407.84 169.21,-412.17"/>
</g>
<!-- n10&#45;&gt;n9 -->
<g id="edge25" class="edge">
<title>n10&#45;&gt;n9</title>
<path fill="none" stroke="#64748b" d="M143.58,-519.7C151.01,-510.88 160.16,-500.03 168.21,-490.47"/>
<polygon fill="#64748b" stroke="#64748b" points="169.97,-492.19 172.61,-485.26 166.22,-489.04 169.97,-492.19"/>
</g>
<!-- n11 -->
<g id="node12" class="node">
<title>n11</title>
<g id="a_node12"><a xlink:href="vscode://vscode-remote/wsl+Ubuntu/home/gavin/statlib/Statlib/CoxChangePoint/PopulationObjective.lean:132" xlink:title="noncomputable def · Statlib/CoxChangePoint/PopulationObjective.lean:132" target="_blank">
<path fill="#d6e9ff" stroke="#3b82f6" d="M168.07,-628C168.07,-628 99.93,-628 99.93,-628 93.93,-628 87.93,-622 87.93,-616 87.93,-616 87.93,-604 87.93,-604 87.93,-598 93.93,-592 99.93,-592 99.93,-592 168.07,-592 168.07,-592 174.07,-592 180.07,-598 180.07,-604 180.07,-604 180.07,-616 180.07,-616 180.07,-622 174.07,-628 168.07,-628"/>
<text xml:space="preserve" text-anchor="middle" x="134" y="-607" font-family="Helvetica,sans-Serif" font-size="10.00">supEmpiricalGap</text>
</a>
</g>
</g>
<!-- n11&#45;&gt;n1 -->
<g id="edge26" class="edge">
<title>n11&#45;&gt;n1</title>
<path fill="none" stroke="#64748b" d="M180.35,-594.02C183.27,-593.29 186.16,-592.6 189,-592 321.23,-563.93 375.81,-626.74 491,-556 523.77,-535.87 526.22,-520.27 539,-484 546.22,-463.5 547.94,-438.79 548.01,-420.61"/>
<polygon fill="#64748b" stroke="#64748b" points="550.46,-420.75 547.94,-413.77 545.56,-420.8 550.46,-420.75"/>
</g>
<!-- n11&#45;&gt;n2 -->
<g id="edge27" class="edge">
<title>n11&#45;&gt;n2</title>
<path fill="none" stroke="#64748b" d="M93.56,-591.67C78.23,-583.12 62.06,-571.29 52,-556 29.95,-522.49 37,-507.11 37,-467 37,-467 37,-467 37,-177 37,-136.89 29.68,-121.33 52,-88 62.99,-71.59 80.97,-59.3 97.56,-50.72"/>
<polygon fill="#64748b" stroke="#64748b" points="98.5,-52.98 103.7,-47.7 96.34,-48.59 98.5,-52.98"/>
</g>
<!-- n11&#45;&gt;n10 -->
<g id="edge28" class="edge">
<title>n11&#45;&gt;n10</title>
<path fill="none" stroke="#64748b" d="M132.76,-591.7C132.18,-583.47 131.46,-573.48 130.82,-564.42"/>
<polygon fill="#64748b" stroke="#64748b" points="133.27,-564.42 130.33,-557.61 128.38,-564.77 133.27,-564.42"/>
</g>
<!-- n12 -->
<g id="node13" class="node">
<title>n12</title>
<g id="a_node13"><a xlink:href="vscode://vscode-remote/wsl+Ubuntu/home/gavin/statlib/Statlib/CoxChangePoint/Foundation.lean:118" xlink:title="lemma · Statlib/CoxChangePoint/Foundation.lean:118" target="_blank">
<path fill="#eef2f6" stroke="#94a3b8" d="M398.08,-484C398.08,-484 329.92,-484 329.92,-484 323.92,-484 317.92,-478 317.92,-472 317.92,-472 317.92,-460 317.92,-460 317.92,-454 323.92,-448 329.92,-448 329.92,-448 398.08,-448 398.08,-448 404.08,-448 410.08,-454 410.08,-460 410.08,-460 410.08,-472 410.08,-472 410.08,-478 404.08,-484 398.08,-484"/>
<text xml:space="preserve" text-anchor="middle" x="364" y="-463" font-family="Helvetica,sans-Serif" font-size="10.00">Gn_self_eq_zero</text>
</a>
</g>
</g>
<!-- n12&#45;&gt;n0 -->
<g id="edge29" class="edge">
<title>n12&#45;&gt;n0</title>
<path fill="none" stroke="#64748b" d="M392.62,-447.53C427.26,-423.94 481,-378.42 481,-323 481,-323 481,-323 481,-177 481,-134.81 464.44,-88.11 452.63,-60.19"/>
<polygon fill="#64748b" stroke="#64748b" points="454.92,-59.32 449.89,-53.87 450.43,-61.27 454.92,-59.32"/>
</g>
<!-- n12&#45;&gt;n2 -->
<g id="edge30" class="edge">
<title>n12&#45;&gt;n2</title>
<path fill="none" stroke="#64748b" d="M339.64,-447.51C314.49,-429.49 274.1,-400.65 239,-376 215.99,-359.85 201.42,-364.13 187,-340 166.58,-305.83 177,-290.8 177,-251 177,-251 177,-251 177,-177 177,-136.89 174,-126.28 162,-88 159.02,-78.49 154.65,-68.49 150.41,-59.77"/>
<polygon fill="#64748b" stroke="#64748b" points="152.6,-58.68 147.26,-53.53 148.22,-60.89 152.6,-58.68"/>
</g>
<!-- n12&#45;&gt;n8 -->
<g id="edge31" class="edge">
<title>n12&#45;&gt;n8</title>
<path fill="none" stroke="#64748b" d="M323.79,-447.52C297.28,-435.99 262.93,-421.06 237.64,-410.06"/>
<polygon fill="#64748b" stroke="#64748b" points="238.88,-407.93 231.49,-407.39 236.93,-412.42 238.88,-407.93"/>
</g>
<!-- n13 -->
<g id="node14" class="node">
<title>n13</title>
<g id="a_node14"><a xlink:href="vscode://vscode-remote/wsl+Ubuntu/home/gavin/statlib/Statlib/CoxChangePoint/Foundation.lean:135" xlink:title="def · Statlib/CoxChangePoint/Foundation.lean:135" target="_blank">
<path fill="#d6e9ff" stroke="#3b82f6" d="M490,-484C490,-484 460,-484 460,-484 454,-484 448,-478 448,-472 448,-472 448,-460 448,-460 448,-454 454,-448 460,-448 460,-448 490,-448 490,-448 496,-448 502,-454 502,-460 502,-460 502,-472 502,-472 502,-478 496,-484 490,-484"/>
<text xml:space="preserve" text-anchor="middle" x="475" y="-463" font-family="Helvetica,sans-Serif" font-size="10.00">realize</text>
</a>
</g>
</g>
<!-- n13&#45;&gt;n0 -->
<g id="edge33" class="edge">
<title>n13&#45;&gt;n0</title>
<path fill="none" stroke="#64748b" d="M480.26,-447.7C487.86,-421.14 501,-368.61 501,-323 501,-323 501,-323 501,-177 501,-136.89 502.92,-124.37 486,-88 481.05,-77.36 473.37,-67.16 465.75,-58.6"/>
<polygon fill="#64748b" stroke="#64748b" points="467.57,-56.95 461.01,-53.5 463.98,-60.29 467.57,-56.95"/>
</g>
<!-- n13&#45;&gt;n1 -->
<g id="edge32" class="edge">
<title>n13&#45;&gt;n1</title>
<path fill="none" stroke="#64748b" d="M492.8,-447.7C501.97,-438.78 513.28,-427.78 523.2,-418.14"/>
<polygon fill="#64748b" stroke="#64748b" points="524.76,-420.04 528.07,-413.4 521.35,-416.52 524.76,-420.04"/>
</g>
<!-- n14 -->
<g id="node15" class="node">
<title>n14</title>
<g id="a_node15"><a xlink:href="vscode://vscode-remote/wsl+Ubuntu/home/gavin/statlib/Statlib/CoxChangePoint/PopulationObjective.lean:81" xlink:title="lemma · Statlib/CoxChangePoint/PopulationObjective.lean:81" target="_blank">
<path fill="#eef2f6" stroke="#94a3b8" d="M469.98,-556C469.98,-556 364.02,-556 364.02,-556 358.02,-556 352.02,-550 352.02,-544 352.02,-544 352.02,-532 352.02,-532 352.02,-526 358.02,-520 364.02,-520 364.02,-520 469.98,-520 469.98,-520 475.98,-520 481.98,-526 481.98,-532 481.98,-532 481.98,-544 481.98,-544 481.98,-550 475.98,-556 469.98,-556"/>
<text xml:space="preserve" text-anchor="middle" x="417" y="-535" font-family="Helvetica,sans-Serif" font-size="10.00">sample_Gn_self_eq_zero</text>
</a>
</g>
</g>
<!-- n14&#45;&gt;n1 -->
<g id="edge34" class="edge">
<title>n14&#45;&gt;n1</title>
<path fill="none" stroke="#64748b" d="M476.15,-519.5C494.51,-511.4 513.25,-499.94 526,-484 540.37,-466.05 545.2,-439.93 546.69,-420.62"/>
<polygon fill="#64748b" stroke="#64748b" points="549.12,-420.92 547.07,-413.8 544.23,-420.65 549.12,-420.92"/>
</g>
<!-- n14&#45;&gt;n2 -->
<g id="edge35" class="edge">
<title>n14&#45;&gt;n2</title>
<path fill="none" stroke="#64748b" d="M358.08,-519.54C333.98,-510.9 306.52,-499.06 284,-484 265.45,-471.6 267.33,-460.72 249,-448 216.3,-425.31 190.59,-444.06 167,-412 143.4,-379.94 157,-362.8 157,-323 157,-323 157,-323 157,-177 157,-135.94 148.7,-88.84 142.79,-60.53"/>
<polygon fill="#64748b" stroke="#64748b" points="145.22,-60.19 141.36,-53.86 140.43,-61.22 145.22,-60.19"/>
</g>
<!-- n14&#45;&gt;n8 -->
<g id="edge36" class="edge">
<title>n14&#45;&gt;n8</title>
<path fill="none" stroke="#64748b" d="M368.69,-519.56C348.81,-510.87 326.42,-498.98 309,-484 294.23,-471.3 297.96,-461.58 284,-448 270.34,-434.71 252.88,-422.79 237.67,-413.64"/>
<polygon fill="#64748b" stroke="#64748b" points="238.99,-411.57 231.72,-410.14 236.51,-415.8 238.99,-411.57"/>
</g>
<!-- n14&#45;&gt;n12 -->
<g id="edge37" class="edge">
<title>n14&#45;&gt;n12</title>
<path fill="none" stroke="#64748b" d="M403.9,-519.7C397.29,-510.97 389.17,-500.24 381.98,-490.75"/>
<polygon fill="#64748b" stroke="#64748b" points="384.04,-489.41 377.86,-485.31 380.14,-492.37 384.04,-489.41"/>
</g>
<!-- n14&#45;&gt;n13 -->
<g id="edge38" class="edge">
<title>n14&#45;&gt;n13</title>
<path fill="none" stroke="#64748b" d="M431.34,-519.7C438.64,-510.88 447.63,-500.03 455.55,-490.47"/>
<polygon fill="#64748b" stroke="#64748b" points="457.28,-492.22 459.86,-485.27 453.51,-489.1 457.28,-492.22"/>
</g>
<!-- n15 -->
<g id="node16" class="node">
<title>n15</title>
<g id="a_node16"><a xlink:href="vscode://vscode-remote/wsl+Ubuntu/home/gavin/statlib/Statlib/CoxChangePoint/PopulationObjective.lean:68" xlink:title="lemma · Statlib/CoxChangePoint/PopulationObjective.lean:68" target="_blank">
<path fill="#eef2f6" stroke="#94a3b8" d="M321.99,-556C321.99,-556 196.01,-556 196.01,-556 190.01,-556 184.01,-550 184.01,-544 184.01,-544 184.01,-532 184.01,-532 184.01,-526 190.01,-520 196.01,-520 196.01,-520 321.99,-520 321.99,-520 327.99,-520 333.99,-526 333.99,-532 333.99,-532 333.99,-544 333.99,-544 333.99,-550 327.99,-556 321.99,-556"/>
<text xml:space="preserve" text-anchor="middle" x="259" y="-535" font-family="Helvetica,sans-Serif" font-size="10.00">populationObjective_self_zero</text>
</a>
</g>
</g>
<!-- n15&#45;&gt;n1 -->
<g id="edge39" class="edge">
<title>n15&#45;&gt;n1</title>
<path fill="none" stroke="#64748b" d="M334.26,-521.61C407.88,-506.48 509.26,-485.46 511,-484 511.66,-483.45 526.58,-446.26 537,-420.13"/>
<polygon fill="#64748b" stroke="#64748b" points="539.19,-421.25 539.51,-413.84 534.64,-419.44 539.19,-421.25"/>
</g>
<!-- n15&#45;&gt;n2 -->
<g id="edge40" class="edge">
<title>n15&#45;&gt;n2</title>
<path fill="none" stroke="#64748b" d="M184.07,-519.56C163.34,-511.63 142.35,-500.24 127,-484 98.33,-453.66 97,-436.74 97,-395 97,-395 97,-395 97,-177 97,-134.81 113.56,-88.11 125.37,-60.19"/>
<polygon fill="#64748b" stroke="#64748b" points="127.57,-61.27 128.11,-53.87 123.08,-59.32 127.57,-61.27"/>
</g>
<!-- n15&#45;&gt;n8 -->
<g id="edge42" class="edge">
<title>n15&#45;&gt;n8</title>
<path fill="none" stroke="#64748b" d="M260.02,-519.83C260.47,-501.31 259.24,-471.35 249,-448 244.2,-437.05 236.31,-426.7 228.42,-418.11"/>
<polygon fill="#64748b" stroke="#64748b" points="230.38,-416.61 223.76,-413.26 226.85,-420.01 230.38,-416.61"/>
</g>
<!-- n15&#45;&gt;n9 -->
<g id="edge41" class="edge">
<title>n15&#45;&gt;n9</title>
<path fill="none" stroke="#64748b" d="M241.45,-519.7C232.34,-510.71 221.08,-499.61 211.25,-489.92"/>
<polygon fill="#64748b" stroke="#64748b" points="213.13,-488.34 206.43,-485.17 209.69,-491.83 213.13,-488.34"/>
</g>
<!-- n15&#45;&gt;n12 -->
<g id="edge43" class="edge">
<title>n15&#45;&gt;n12</title>
<path fill="none" stroke="#64748b" d="M285.23,-519.52C299.11,-510.26 316.3,-498.8 331.07,-488.95"/>
<polygon fill="#64748b" stroke="#64748b" points="332.38,-491.02 336.85,-485.1 329.67,-486.94 332.38,-491.02"/>
</g>
<!-- n15&#45;&gt;n13 -->
<g id="edge44" class="edge">
<title>n15&#45;&gt;n13</title>
<path fill="none" stroke="#64748b" d="M321.86,-519.6C355.4,-509.9 397.24,-497.15 434,-484 435.97,-483.3 437.98,-482.55 440,-481.78"/>
<polygon fill="#64748b" stroke="#64748b" points="440.77,-484.11 446.39,-479.27 438.98,-479.55 440.77,-484.11"/>
</g>
<!-- n16 -->
<g id="node17" class="node">
<title>n16</title>
<g id="a_node17"><a xlink:href="vscode://vscode-remote/wsl+Ubuntu/home/gavin/statlib/Statlib/CoxChangePoint/PopulationObjective.lean:100" xlink:title="lemma · Statlib/CoxChangePoint/PopulationObjective.lean:100" target="_blank">
<path fill="#eef2f6" stroke="#94a3b8" d="M307.52,-628C307.52,-628 210.48,-628 210.48,-628 204.48,-628 198.48,-622 198.48,-616 198.48,-616 198.48,-604 198.48,-604 198.48,-598 204.48,-592 210.48,-592 210.48,-592 307.52,-592 307.52,-592 313.52,-592 319.52,-598 319.52,-604 319.52,-604 319.52,-616 319.52,-616 319.52,-622 313.52,-628 307.52,-628"/>
<text xml:space="preserve" text-anchor="middle" x="259" y="-607" font-family="Helvetica,sans-Serif" font-size="10.00">empiricalGap_self_zero</text>
</a>
</g>
</g>
<!-- n16&#45;&gt;n1 -->
<g id="edge45" class="edge">
<title>n16&#45;&gt;n1</title>
<path fill="none" stroke="#64748b" d="M319.85,-607.43C400.21,-603.93 535.17,-592.61 566,-556 598.36,-517.57 576.36,-454.46 560.07,-419.77"/>
<polygon fill="#64748b" stroke="#64748b" points="562.42,-419 557.16,-413.77 558.01,-421.14 562.42,-419"/>
</g>
<!-- n16&#45;&gt;n2 -->
<g id="edge46" class="edge">
<title>n16&#45;&gt;n2</title>
<path fill="none" stroke="#64748b" d="M198.27,-593.76C150.8,-581.34 91.45,-564.52 83,-556 53.98,-526.74 57,-508.21 57,-467 57,-467 57,-467 57,-177 57,-136.64 54.55,-122.79 75,-88 81.95,-76.17 92.53,-65.71 102.98,-57.26"/>
<polygon fill="#64748b" stroke="#64748b" points="104.2,-59.42 108.24,-53.2 101.2,-55.54 104.2,-59.42"/>
</g>
<!-- n16&#45;&gt;n10 -->
<g id="edge47" class="edge">
<title>n16&#45;&gt;n10</title>
<path fill="none" stroke="#64748b" d="M226.53,-591.52C208.87,-582.01 186.89,-570.17 168.27,-560.15"/>
<polygon fill="#64748b" stroke="#64748b" points="169.71,-558.14 162.39,-556.98 167.39,-562.45 169.71,-558.14"/>
</g>
<!-- n16&#45;&gt;n14 -->
<g id="edge48" class="edge">
<title>n16&#45;&gt;n14</title>
<path fill="none" stroke="#64748b" d="M298.46,-591.52C320.22,-581.88 347.38,-569.84 370.21,-559.73"/>
<polygon fill="#64748b" stroke="#64748b" points="370.98,-562.07 376.38,-556.99 368.99,-557.59 370.98,-562.07"/>
</g>
<!-- n16&#45;&gt;n15 -->
<g id="edge49" class="edge">
<title>n16&#45;&gt;n15</title>
<path fill="none" stroke="#64748b" d="M259,-591.7C259,-583.47 259,-573.48 259,-564.42"/>
<polygon fill="#64748b" stroke="#64748b" points="261.45,-564.62 259,-557.62 256.55,-564.62 261.45,-564.62"/>
</g>
<!-- n17 -->
<g id="node18" class="node">
<title>n17</title>
<g id="a_node18"><a xlink:href="vscode://vscode-remote/wsl+Ubuntu/home/gavin/statlib/Statlib/CoxChangePoint/PopulationObjective.lean:141" xlink:title="lemma · Statlib/CoxChangePoint/PopulationObjective.lean:141" target="_blank">
<path fill="#eef2f6" stroke="#94a3b8" stroke-width="3" d="M219.79,-700C219.79,-700 48.21,-700 48.21,-700 42.21,-700 36.21,-694 36.21,-688 36.21,-688 36.21,-676 36.21,-676 36.21,-670 42.21,-664 48.21,-664 48.21,-664 219.79,-664 219.79,-664 225.79,-664 231.79,-670 231.79,-676 231.79,-676 231.79,-688 231.79,-688 231.79,-694 225.79,-700 219.79,-700"/>
<text xml:space="preserve" text-anchor="middle" x="134" y="-679" font-family="Helvetica,sans-Serif" font-size="10.00">supEmpiricalGap_nonneg_of_bddAbove</text>
</a>
</g>
</g>
<!-- n17&#45;&gt;n1 -->
<g id="edge50" class="edge">
<title>n17&#45;&gt;n1</title>
<path fill="none" stroke="#64748b" d="M233.16,-667C350.93,-648.12 536.8,-610.48 579,-556 608.4,-518.05 594.51,-494.07 581,-448 578.02,-437.84 572.43,-427.78 566.62,-419.2"/>
<polygon fill="#64748b" stroke="#64748b" points="568.69,-417.88 562.63,-413.6 564.7,-420.72 568.69,-417.88"/>
</g>
<!-- n17&#45;&gt;n2 -->
<g id="edge51" class="edge">
<title>n17&#45;&gt;n2</title>
<path fill="none" stroke="#64748b" d="M104.17,-662.71C69.51,-638.89 17,-593.78 17,-539 17,-539 17,-539 17,-177 17,-136.81 9.04,-120.27 33,-88 48.6,-66.99 74.93,-53.69 97.19,-45.67"/>
<polygon fill="#64748b" stroke="#64748b" points="97.91,-48.01 103.75,-43.43 96.33,-43.37 97.91,-48.01"/>
</g>
<!-- n17&#45;&gt;n10 -->
<g id="edge52" class="edge">
<title>n17&#45;&gt;n10</title>
<path fill="none" stroke="#64748b" d="M106.89,-662.53C96.06,-653.52 84.81,-641.67 79,-628 72.74,-613.28 73.09,-606.87 79,-592 83.52,-580.63 91.75,-570.29 100.26,-561.82"/>
<polygon fill="#64748b" stroke="#64748b" points="101.63,-563.89 105.04,-557.31 98.27,-560.33 101.63,-563.89"/>
</g>
<!-- n17&#45;&gt;n11 -->
<g id="edge53" class="edge">
<title>n17&#45;&gt;n11</title>
<path fill="none" stroke="#64748b" d="M134,-662.61C134,-654.59 134,-645.05 134,-636.37"/>
<polygon fill="#64748b" stroke="#64748b" points="136.45,-636.58 134,-629.58 131.55,-636.58 136.45,-636.58"/>
</g>
<!-- n17&#45;&gt;n16 -->
<g id="edge54" class="edge">
<title>n17&#45;&gt;n16</title>
<path fill="none" stroke="#64748b" d="M166.84,-662.61C183.42,-653.32 203.63,-642.01 220.9,-632.34"/>
<polygon fill="#64748b" stroke="#64748b" points="221.87,-634.6 226.78,-629.05 219.47,-630.33 221.87,-634.6"/>
</g>
</g>
</svg>
