<?xml version="1.0" encoding="UTF-8" standalone="no"?>
<!DOCTYPE svg PUBLIC "-//W3C//DTD SVG 1.1//EN"
 "http://www.w3.org/Graphics/SVG/1.1/DTD/svg11.dtd">
<!-- Generated by graphviz version 15.0.0 (20260523.1842)
 -->
<!-- Title: toCoxLANExpansionHypothesis Pages: 1 -->
<svg width="1046pt" height="698pt"
 viewBox="0.00 0.00 1046.00 698.00" xmlns="http://www.w3.org/2000/svg" xmlns:xlink="http://www.w3.org/1999/xlink">
<g id="graph0" class="graph" transform="scale(1 1) rotate(0) translate(4 694)">
<title>toCoxLANExpansionHypothesis</title>
<polygon fill="white" stroke="none" points="-4,4 -4,-694 1042,-694 1042,4 -4,4"/>
<text xml:space="preserve" text-anchor="middle" x="519" y="-673.4" font-family="Helvetica,sans-Serif" font-size="14.00">Proof narrative — toCoxLANExpansionHypothesis &#160;(27 decls)</text>
<g id="clust1" class="cluster">
<title>cluster_0</title>
<path fill="none" stroke="#cbd5e1" stroke-dasharray="5,2" d="M20,-8C20,-8 1018,-8 1018,-8 1024,-8 1030,-14 1030,-20 1030,-20 1030,-645.2 1030,-645.2 1030,-651.2 1024,-657.2 1018,-657.2 1018,-657.2 20,-657.2 20,-657.2 14,-657.2 8,-651.2 8,-645.2 8,-645.2 8,-20 8,-20 8,-14 14,-8 20,-8"/>
<text xml:space="preserve" text-anchor="middle" x="519" y="-643.3" font-family="Helvetica,sans-Serif" font-size="11.00">CoxChangePoint</text>
</g>
<!-- n0 -->
<g id="node1" class="node">
<title>n0</title>
<g id="a_node1"><a xlink:href="vscode://vscode-remote/wsl+Ubuntu/home/gavin/statlib/Statlib/CoxChangePoint/Foundation.lean:38" xlink:title="structure · Statlib/CoxChangePoint/Foundation.lean:38" target="_blank">
<path fill="#e8dcff" stroke="#8b5cf6" d="M307,-52C307,-52 277,-52 277,-52 271,-52 265,-46 265,-40 265,-40 265,-28 265,-28 265,-22 271,-16 277,-16 277,-16 307,-16 307,-16 313,-16 319,-22 319,-28 319,-28 319,-40 319,-40 319,-46 313,-52 307,-52"/>
<text xml:space="preserve" text-anchor="middle" x="292" y="-31" font-family="Helvetica,sans-Serif" font-size="10.00">CoxObs</text>
</a>
</g>
</g>
<!-- n1 -->
<g id="node2" class="node">
<title>n1</title>
<g id="a_node2"><a xlink:href="vscode://vscode-remote/wsl+Ubuntu/home/gavin/statlib/Statlib/CoxChangePoint/Foundation.lean:127" xlink:title="def · Statlib/CoxChangePoint/Foundation.lean:127" target="_blank">
<path fill="#d6e9ff" stroke="#3b82f6" d="M78,-412C78,-412 48,-412 48,-412 42,-412 36,-406 36,-400 36,-400 36,-388 36,-388 36,-382 42,-376 48,-376 48,-376 78,-376 78,-376 84,-376 90,-382 90,-388 90,-388 90,-400 90,-400 90,-406 84,-412 78,-412"/>
<text xml:space="preserve" text-anchor="middle" x="63" y="-391" font-family="Helvetica,sans-Serif" font-size="10.00">Sample</text>
</a>
</g>
</g>
<!-- n1&#45;&gt;n0 -->
<g id="edge1" class="edge">
<title>n1&#45;&gt;n0</title>
<path fill="none" stroke="#64748b" d="M57.74,-375.7C50.14,-349.14 37,-296.61 37,-251 37,-251 37,-251 37,-177 37,-136.89 24.36,-117.07 52,-88 79.67,-58.89 196.42,-43.94 256.28,-38.06"/>
<polygon fill="#64748b" stroke="#64748b" points="256.44,-40.5 263.17,-37.4 255.97,-35.62 256.44,-40.5"/>
</g>
<!-- n2 -->
<g id="node3" class="node">
<title>n2</title>
<g id="a_node3"><a xlink:href="vscode://vscode-remote/wsl+Ubuntu/home/gavin/statlib/Statlib/CoxChangePoint/Foundation.lean:57" xlink:title="structure · Statlib/CoxChangePoint/Foundation.lean:57" target="_blank">
<path fill="#e8dcff" stroke="#8b5cf6" d="M850.62,-52C850.62,-52 811.38,-52 811.38,-52 805.38,-52 799.38,-46 799.38,-40 799.38,-40 799.38,-28 799.38,-28 799.38,-22 805.38,-16 811.38,-16 811.38,-16 850.62,-16 850.62,-16 856.62,-16 862.62,-22 862.62,-28 862.62,-28 862.62,-40 862.62,-40 862.62,-46 856.62,-52 850.62,-52"/>
<text xml:space="preserve" text-anchor="middle" x="831" y="-31" font-family="Helvetica,sans-Serif" font-size="10.00">CoxParam</text>
</a>
</g>
</g>
<!-- n3 -->
<g id="node4" class="node">
<title>n3</title>
<g id="a_node4"><a xlink:href="vscode://vscode-remote/wsl+Ubuntu/home/gavin/statlib/Statlib/CoxChangePoint/Foundation.lean:68" xlink:title="noncomputable def · Statlib/CoxChangePoint/Foundation.lean:68" target="_blank">
<path fill="#d6e9ff" stroke="#3b82f6" d="M770,-124C770,-124 740,-124 740,-124 734,-124 728,-118 728,-112 728,-112 728,-100 728,-100 728,-94 734,-88 740,-88 740,-88 770,-88 770,-88 776,-88 782,-94 782,-100 782,-100 782,-112 782,-112 782,-118 776,-124 770,-124"/>
<text xml:space="preserve" text-anchor="middle" x="755" y="-103" font-family="Helvetica,sans-Serif" font-size="10.00">g</text>
</a>
</g>
</g>
<!-- n3&#45;&gt;n0 -->
<g id="edge3" class="edge">
<title>n3&#45;&gt;n0</title>
<path fill="none" stroke="#64748b" d="M727.57,-96.47C717.14,-93.46 705.09,-90.27 694,-88 559.79,-60.59 397.34,-44.23 327.13,-37.95"/>
<polygon fill="#64748b" stroke="#64748b" points="327.73,-35.55 320.54,-37.37 327.3,-40.43 327.73,-35.55"/>
</g>
<!-- n3&#45;&gt;n2 -->
<g id="edge2" class="edge">
<title>n3&#45;&gt;n2</title>
<path fill="none" stroke="#64748b" d="M773.79,-87.7C783.56,-78.69 795.64,-67.57 806.17,-57.87"/>
<polygon fill="#64748b" stroke="#64748b" points="807.56,-59.92 811.05,-53.37 804.24,-56.31 807.56,-59.92"/>
</g>
<!-- n4 -->
<g id="node5" class="node">
<title>n4</title>
<g id="a_node5"><a xlink:href="vscode://vscode-remote/wsl+Ubuntu/home/gavin/statlib/Statlib/CoxChangePoint/CoxTaylor.lean:85" xlink:title="structure · Statlib/CoxChangePoint/CoxTaylor.lean:85" target="_blank">
<path fill="#e8dcff" stroke="#8b5cf6" d="M866.28,-484C866.28,-484 783.72,-484 783.72,-484 777.72,-484 771.72,-478 771.72,-472 771.72,-472 771.72,-460 771.72,-460 771.72,-454 777.72,-448 783.72,-448 783.72,-448 866.28,-448 866.28,-448 872.28,-448 878.28,-454 878.28,-460 878.28,-460 878.28,-472 878.28,-472 878.28,-478 872.28,-484 866.28,-484"/>
<text xml:space="preserve" text-anchor="middle" x="825" y="-463" font-family="Helvetica,sans-Serif" font-size="10.00">HasFirstOrderTaylor</text>
</a>
</g>
</g>
<!-- n4&#45;&gt;n3 -->
<g id="edge4" class="edge">
<title>n4&#45;&gt;n3</title>
<path fill="none" stroke="#64748b" d="M823.9,-447.81C820.57,-400.85 808.85,-266.81 778,-160 775.27,-150.56 771.26,-140.58 767.35,-131.85"/>
<polygon fill="#64748b" stroke="#64748b" points="769.63,-130.94 764.46,-125.62 765.18,-133 769.63,-130.94"/>
</g>
<!-- n5 -->
<g id="node6" class="node">
<title>n5</title>
<g id="a_node6"><a xlink:href="vscode://vscode-remote/wsl+Ubuntu/home/gavin/statlib/Statlib/CoxChangePoint/Foundation.lean:89" xlink:title="noncomputable def · Statlib/CoxChangePoint/Foundation.lean:89" target="_blank">
<path fill="#d6e9ff" stroke="#3b82f6" d="M360,-196C360,-196 330,-196 330,-196 324,-196 318,-190 318,-184 318,-184 318,-172 318,-172 318,-166 324,-160 330,-160 330,-160 360,-160 360,-160 366,-160 372,-166 372,-172 372,-172 372,-184 372,-184 372,-190 366,-196 360,-196"/>
<text xml:space="preserve" text-anchor="middle" x="345" y="-175" font-family="Helvetica,sans-Serif" font-size="10.00">atRisk</text>
</a>
</g>
</g>
<!-- n5&#45;&gt;n0 -->
<g id="edge5" class="edge">
<title>n5&#45;&gt;n0</title>
<path fill="none" stroke="#64748b" d="M346.17,-159.54C346.76,-141.04 345.78,-111.35 336,-88 331.51,-77.28 324.08,-67.05 316.6,-58.5"/>
<polygon fill="#64748b" stroke="#64748b" points="318.47,-56.92 311.93,-53.42 314.86,-60.23 318.47,-56.92"/>
</g>
<!-- n6 -->
<g id="node7" class="node">
<title>n6</title>
<g id="a_node7"><a xlink:href="vscode://vscode-remote/wsl+Ubuntu/home/gavin/statlib/Statlib/CoxChangePoint/Foundation.lean:75" xlink:title="noncomputable def · Statlib/CoxChangePoint/Foundation.lean:75" target="_blank">
<path fill="#d6e9ff" stroke="#3b82f6" d="M472,-196C472,-196 442,-196 442,-196 436,-196 430,-190 430,-184 430,-184 430,-172 430,-172 430,-166 436,-160 442,-160 442,-160 472,-160 472,-160 478,-160 484,-166 484,-172 484,-172 484,-184 484,-184 484,-190 478,-196 472,-196"/>
<text xml:space="preserve" text-anchor="middle" x="457" y="-175" font-family="Helvetica,sans-Serif" font-size="10.00">expG</text>
</a>
</g>
</g>
<!-- n6&#45;&gt;n0 -->
<g id="edge7" class="edge">
<title>n6&#45;&gt;n0</title>
<path fill="none" stroke="#64748b" d="M453.06,-159.74C447.74,-140.03 436.49,-107.93 416,-88 391.51,-64.18 354.66,-50.3 327.49,-42.76"/>
<polygon fill="#64748b" stroke="#64748b" points="328.25,-40.43 320.85,-41.01 327,-45.17 328.25,-40.43"/>
</g>
<!-- n6&#45;&gt;n2 -->
<g id="edge6" class="edge">
<title>n6&#45;&gt;n2</title>
<path fill="none" stroke="#64748b" d="M457.49,-159.67C459.06,-139.26 464.94,-105.88 486,-88 531.29,-49.53 709.64,-38.9 790.62,-36.03"/>
<polygon fill="#64748b" stroke="#64748b" points="790.64,-38.48 797.56,-35.8 790.48,-33.58 790.64,-38.48"/>
</g>
<!-- n6&#45;&gt;n3 -->
<g id="edge8" class="edge">
<title>n6&#45;&gt;n3</title>
<path fill="none" stroke="#64748b" d="M484.24,-170.6C538.3,-157.9 659.15,-129.51 719.42,-115.36"/>
<polygon fill="#64748b" stroke="#64748b" points="719.78,-117.79 726.03,-113.8 718.66,-113.02 719.78,-117.79"/>
</g>
<!-- n7 -->
<g id="node8" class="node">
<title>n7</title>
<g id="a_node8"><a xlink:href="vscode://vscode-remote/wsl+Ubuntu/home/gavin/statlib/Statlib/CoxChangePoint/Foundation.lean:93" xlink:title="noncomputable def · Statlib/CoxChangePoint/Foundation.lean:93" target="_blank">
<path fill="#d6e9ff" stroke="#3b82f6" d="M489,-268C489,-268 459,-268 459,-268 453,-268 447,-262 447,-256 447,-256 447,-244 447,-244 447,-238 453,-232 459,-232 459,-232 489,-232 489,-232 495,-232 501,-238 501,-244 501,-244 501,-256 501,-256 501,-262 495,-268 489,-268"/>
<text xml:space="preserve" text-anchor="middle" x="474" y="-247" font-family="Helvetica,sans-Serif" font-size="10.00">riskSum</text>
</a>
</g>
</g>
<!-- n7&#45;&gt;n0 -->
<g id="edge9" class="edge">
<title>n7&#45;&gt;n0</title>
<path fill="none" stroke="#64748b" d="M446.75,-231.54C433.4,-222.1 417.73,-209.6 406,-196 370.01,-154.25 378.35,-131.89 345,-88 337.07,-77.56 327.17,-67.13 318.08,-58.32"/>
<polygon fill="#64748b" stroke="#64748b" points="319.81,-56.58 313.05,-53.54 316.44,-60.13 319.81,-56.58"/>
</g>
<!-- n7&#45;&gt;n2 -->
<g id="edge10" class="edge">
<title>n7&#45;&gt;n2</title>
<path fill="none" stroke="#64748b" d="M487.79,-231.91C495.03,-222 503.34,-208.96 508,-196 524.35,-150.5 487.67,-123.02 521,-88 557.33,-49.82 715.17,-39.08 790.59,-36.11"/>
<polygon fill="#64748b" stroke="#64748b" points="790.51,-38.57 797.41,-35.86 790.33,-33.67 790.51,-38.57"/>
</g>
<!-- n7&#45;&gt;n5 -->
<g id="edge11" class="edge">
<title>n7&#45;&gt;n5</title>
<path fill="none" stroke="#64748b" d="M446.64,-234.15C427.15,-223.57 400.78,-209.27 379.79,-197.88"/>
<polygon fill="#64748b" stroke="#64748b" points="380.97,-195.73 373.65,-194.55 378.63,-200.04 380.97,-195.73"/>
</g>
<!-- n7&#45;&gt;n6 -->
<g id="edge12" class="edge">
<title>n7&#45;&gt;n6</title>
<path fill="none" stroke="#64748b" d="M469.8,-231.7C467.78,-223.39 465.32,-213.28 463.11,-204.14"/>
<polygon fill="#64748b" stroke="#64748b" points="465.54,-203.8 461.51,-197.58 460.78,-204.96 465.54,-203.8"/>
</g>
<!-- n8 -->
<g id="node9" class="node">
<title>n8</title>
<g id="a_node9"><a xlink:href="vscode://vscode-remote/wsl+Ubuntu/home/gavin/statlib/Statlib/CoxChangePoint/Foundation.lean:104" xlink:title="noncomputable def · Statlib/CoxChangePoint/Foundation.lean:104" target="_blank">
<path fill="#d6e9ff" stroke="#3b82f6" d="M734.36,-340C734.36,-340 655.64,-340 655.64,-340 649.64,-340 643.64,-334 643.64,-328 643.64,-328 643.64,-316 643.64,-316 643.64,-310 649.64,-304 655.64,-304 655.64,-304 734.36,-304 734.36,-304 740.36,-304 746.36,-310 746.36,-316 746.36,-316 746.36,-328 746.36,-328 746.36,-334 740.36,-340 734.36,-340"/>
<text xml:space="preserve" text-anchor="middle" x="695" y="-319" font-family="Helvetica,sans-Serif" font-size="10.00">logPartialLikelihood</text>
</a>
</g>
</g>
<!-- n8&#45;&gt;n0 -->
<g id="edge13" class="edge">
<title>n8&#45;&gt;n0</title>
<path fill="none" stroke="#64748b" d="M698.44,-303.66C705.9,-260.38 718.48,-146.9 659,-88 612.78,-42.23 410.81,-35.69 327.81,-34.97"/>
<polygon fill="#64748b" stroke="#64748b" points="327.99,-32.52 320.97,-34.93 327.96,-37.42 327.99,-32.52"/>
</g>
<!-- n8&#45;&gt;n2 -->
<g id="edge14" class="edge">
<title>n8&#45;&gt;n2</title>
<path fill="none" stroke="#64748b" d="M746.81,-307.4C782.21,-297.07 824.83,-282.27 837,-268 863.29,-237.17 877.66,-126.8 866,-88 862.93,-77.77 857.17,-67.69 851.2,-59.12"/>
<polygon fill="#64748b" stroke="#64748b" points="853.2,-57.71 847.08,-53.52 849.25,-60.61 853.2,-57.71"/>
</g>
<!-- n8&#45;&gt;n3 -->
<g id="edge15" class="edge">
<title>n8&#45;&gt;n3</title>
<path fill="none" stroke="#64748b" d="M728.72,-303.62C741.96,-294.88 755.71,-282.93 763,-268 784.51,-223.95 772.84,-164.81 763.33,-131.85"/>
<polygon fill="#64748b" stroke="#64748b" points="765.78,-131.5 761.41,-125.51 761.09,-132.92 765.78,-131.5"/>
</g>
<!-- n8&#45;&gt;n7 -->
<g id="edge16" class="edge">
<title>n8&#45;&gt;n7</title>
<path fill="none" stroke="#64748b" d="M643.19,-304.59C601.91,-291.51 545.24,-273.57 509.12,-262.12"/>
<polygon fill="#64748b" stroke="#64748b" points="510.15,-259.88 502.73,-260.1 508.67,-264.55 510.15,-259.88"/>
</g>
<!-- n9 -->
<g id="node10" class="node">
<title>n9</title>
<g id="a_node10"><a xlink:href="vscode://vscode-remote/wsl+Ubuntu/home/gavin/statlib/Statlib/CoxChangePoint/Foundation.lean:135" xlink:title="def · Statlib/CoxChangePoint/Foundation.lean:135" target="_blank">
<path fill="#d6e9ff" stroke="#3b82f6" d="M467,-484C467,-484 437,-484 437,-484 431,-484 425,-478 425,-472 425,-472 425,-460 425,-460 425,-454 431,-448 437,-448 437,-448 467,-448 467,-448 473,-448 479,-454 479,-460 479,-460 479,-472 479,-472 479,-478 473,-484 467,-484"/>
<text xml:space="preserve" text-anchor="middle" x="452" y="-463" font-family="Helvetica,sans-Serif" font-size="10.00">realize</text>
</a>
</g>
</g>
<!-- n9&#45;&gt;n0 -->
<g id="edge18" class="edge">
<title>n9&#45;&gt;n0</title>
<path fill="none" stroke="#64748b" d="M424.64,-463.53C335.11,-458.45 55.06,-440.4 27,-412 -0.97,-383.68 17,-362.8 17,-323 17,-323 17,-323 17,-177 17,-137.02 2.51,-117.03 30,-88 60.61,-55.67 192.53,-42.03 256.69,-37.22"/>
<polygon fill="#64748b" stroke="#64748b" points="256.59,-39.69 263.4,-36.74 256.24,-34.8 256.59,-39.69"/>
</g>
<!-- n9&#45;&gt;n1 -->
<g id="edge17" class="edge">
<title>n9&#45;&gt;n1</title>
<path fill="none" stroke="#64748b" d="M424.9,-463.11C365.72,-458.51 220.85,-444.6 104,-412 102.05,-411.46 100.07,-410.85 98.09,-410.19"/>
<polygon fill="#64748b" stroke="#64748b" points="99.31,-408.02 91.89,-407.96 97.65,-412.63 99.31,-408.02"/>
</g>
<!-- n10 -->
<g id="node11" class="node">
<title>n10</title>
<g id="a_node11"><a xlink:href="vscode://vscode-remote/wsl+Ubuntu/home/gavin/statlib/Statlib/CoxChangePoint/CoxLAN.lean:116" xlink:title="noncomputable def · Statlib/CoxChangePoint/CoxLAN.lean:116" target="_blank">
<path fill="#d6e9ff" stroke="#3b82f6" d="M990.13,-340C990.13,-340 915.87,-340 915.87,-340 909.87,-340 903.87,-334 903.87,-328 903.87,-328 903.87,-316 903.87,-316 903.87,-310 909.87,-304 915.87,-304 915.87,-304 990.13,-304 990.13,-304 996.13,-304 1002.13,-310 1002.13,-316 1002.13,-316 1002.13,-328 1002.13,-328 1002.13,-334 996.13,-340 990.13,-340"/>
<text xml:space="preserve" text-anchor="middle" x="953" y="-319" font-family="Helvetica,sans-Serif" font-size="10.00">coxParam_perturb</text>
</a>
</g>
</g>
<!-- n10&#45;&gt;n2 -->
<g id="edge19" class="edge">
<title>n10&#45;&gt;n2</title>
<path fill="none" stroke="#64748b" d="M967.33,-303.57C974.45,-293.76 982.31,-280.92 986,-268 1007.99,-191.08 1032.53,-153.08 986,-88 960.01,-51.65 907.54,-39.96 870.88,-36.34"/>
<polygon fill="#64748b" stroke="#64748b" points="871.54,-33.94 864.36,-35.79 871.13,-38.82 871.54,-33.94"/>
</g>
<!-- n11 -->
<g id="node12" class="node">
<title>n11</title>
<g id="a_node12"><a xlink:href="vscode://vscode-remote/wsl+Ubuntu/home/gavin/statlib/Statlib/CoxChangePoint/Score.lean:74" xlink:title="noncomputable def · Statlib/CoxChangePoint/Score.lean:74" target="_blank">
<path fill="#d6e9ff" stroke="#3b82f6" d="M417.23,-268C417.23,-268 340.77,-268 340.77,-268 334.77,-268 328.77,-262 328.77,-256 328.77,-256 328.77,-244 328.77,-244 328.77,-238 334.77,-232 340.77,-232 340.77,-232 417.23,-232 417.23,-232 423.23,-232 429.23,-238 429.23,-244 429.23,-244 429.23,-256 429.23,-256 429.23,-262 423.23,-268 417.23,-268"/>
<text xml:space="preserve" text-anchor="middle" x="379" y="-247" font-family="Helvetica,sans-Serif" font-size="10.00">riskSumWeightedZ</text>
</a>
</g>
</g>
<!-- n11&#45;&gt;n0 -->
<g id="edge20" class="edge">
<title>n11&#45;&gt;n0</title>
<path fill="none" stroke="#64748b" d="M343.95,-231.6C330.44,-222.91 316.46,-211.01 309,-196 301.88,-181.67 306.44,-175.79 309,-160 311.7,-143.35 318.3,-140.65 321,-124 323.56,-108.21 324.96,-103.5 321,-88 318.47,-78.1 313.66,-68.05 308.68,-59.41"/>
<polygon fill="#64748b" stroke="#64748b" points="310.82,-58.22 305.09,-53.51 306.63,-60.76 310.82,-58.22"/>
</g>
<!-- n11&#45;&gt;n2 -->
<g id="edge21" class="edge">
<title>n11&#45;&gt;n2</title>
<path fill="none" stroke="#64748b" d="M428.76,-231.58C455.61,-221.12 484.88,-207.63 493,-196 520.57,-156.5 469.27,-123.34 502,-88 540.41,-46.53 711.83,-37.49 790.85,-35.53"/>
<polygon fill="#64748b" stroke="#64748b" points="790.66,-37.99 797.6,-35.38 790.55,-33.09 790.66,-37.99"/>
</g>
<!-- n11&#45;&gt;n5 -->
<g id="edge22" class="edge">
<title>n11&#45;&gt;n5</title>
<path fill="none" stroke="#64748b" d="M370.6,-231.7C366.48,-223.22 361.45,-212.86 356.94,-203.58"/>
<polygon fill="#64748b" stroke="#64748b" points="359.23,-202.69 353.97,-197.47 354.82,-204.83 359.23,-202.69"/>
</g>
<!-- n11&#45;&gt;n6 -->
<g id="edge23" class="edge">
<title>n11&#45;&gt;n6</title>
<path fill="none" stroke="#64748b" d="M398.28,-231.7C408.31,-222.69 420.71,-211.57 431.52,-201.87"/>
<polygon fill="#64748b" stroke="#64748b" points="432.97,-203.86 436.54,-197.36 429.7,-200.21 432.97,-203.86"/>
</g>
<!-- n12 -->
<g id="node13" class="node">
<title>n12</title>
<g id="a_node13"><a xlink:href="vscode://vscode-remote/wsl+Ubuntu/home/gavin/statlib/Statlib/CoxChangePoint/Score.lean:102" xlink:title="noncomputable def · Statlib/CoxChangePoint/Score.lean:102" target="_blank">
<path fill="#d6e9ff" stroke="#3b82f6" d="M446,-340C446,-340 416,-340 416,-340 410,-340 404,-334 404,-328 404,-328 404,-316 404,-316 404,-310 410,-304 416,-304 416,-304 446,-304 446,-304 452,-304 458,-310 458,-316 458,-316 458,-328 458,-328 458,-334 452,-340 446,-340"/>
<text xml:space="preserve" text-anchor="middle" x="431" y="-319" font-family="Helvetica,sans-Serif" font-size="10.00">meanZ</text>
</a>
</g>
</g>
<!-- n12&#45;&gt;n0 -->
<g id="edge24" class="edge">
<title>n12&#45;&gt;n0</title>
<path fill="none" stroke="#64748b" d="M403.54,-315.09C339.86,-301.38 187.45,-268.51 187,-268 160.45,-237.94 152.21,-121.67 174,-88 192.08,-60.06 228.76,-46.71 256.45,-40.42"/>
<polygon fill="#64748b" stroke="#64748b" points="256.9,-42.83 263.25,-38.99 255.89,-38.03 256.9,-42.83"/>
</g>
<!-- n12&#45;&gt;n2 -->
<g id="edge25" class="edge">
<title>n12&#45;&gt;n2</title>
<path fill="none" stroke="#64748b" d="M458.2,-307.2C461.13,-306.01 464.1,-304.91 467,-304 559.89,-274.94 599.84,-318.56 683,-268 717.18,-247.22 770.68,-158.45 791,-124 803.17,-103.38 814.09,-78.39 821.44,-60.15"/>
<polygon fill="#64748b" stroke="#64748b" points="823.7,-61.1 824,-53.69 819.14,-59.3 823.7,-61.1"/>
</g>
<!-- n12&#45;&gt;n7 -->
<g id="edge26" class="edge">
<title>n12&#45;&gt;n7</title>
<path fill="none" stroke="#64748b" d="M441.63,-303.7C446.89,-295.14 453.33,-284.66 459.07,-275.3"/>
<polygon fill="#64748b" stroke="#64748b" points="461.12,-276.64 462.7,-269.39 456.95,-274.08 461.12,-276.64"/>
</g>
<!-- n12&#45;&gt;n11 -->
<g id="edge27" class="edge">
<title>n12&#45;&gt;n11</title>
<path fill="none" stroke="#64748b" d="M418.15,-303.7C411.66,-294.97 403.69,-284.24 396.64,-274.75"/>
<polygon fill="#64748b" stroke="#64748b" points="398.75,-273.48 392.61,-269.32 394.82,-276.4 398.75,-273.48"/>
</g>
<!-- n13 -->
<g id="node14" class="node">
<title>n13</title>
<g id="a_node14"><a xlink:href="vscode://vscode-remote/wsl+Ubuntu/home/gavin/statlib/Statlib/CoxChangePoint/Score.lean:137" xlink:title="noncomputable def · Statlib/CoxChangePoint/Score.lean:137" target="_blank">
<path fill="#d6e9ff" stroke="#3b82f6" d="M477.46,-412C477.46,-412 396.54,-412 396.54,-412 390.54,-412 384.54,-406 384.54,-400 384.54,-400 384.54,-388 384.54,-388 384.54,-382 390.54,-376 396.54,-376 396.54,-376 477.46,-376 477.46,-376 483.46,-376 489.46,-382 489.46,-388 489.46,-388 489.46,-400 489.46,-400 489.46,-406 483.46,-412 477.46,-412"/>
<text xml:space="preserve" text-anchor="middle" x="437" y="-391" font-family="Helvetica,sans-Serif" font-size="10.00">partialScoreGamma</text>
</a>
</g>
</g>
<!-- n13&#45;&gt;n0 -->
<g id="edge28" class="edge">
<title>n13&#45;&gt;n0</title>
<path fill="none" stroke="#64748b" d="M384.5,-383.02C371.6,-380.65 357.81,-378.17 345,-376 293.35,-367.24 149.3,-376.79 112,-340 83.44,-311.83 97,-291.11 97,-251 97,-251 97,-251 97,-177 97,-136.89 85.38,-118.01 112,-88 148.53,-46.82 215.26,-36.91 256.41,-34.93"/>
<polygon fill="#64748b" stroke="#64748b" points="256.36,-37.39 263.27,-34.68 256.18,-32.49 256.36,-37.39"/>
</g>
<!-- n13&#45;&gt;n2 -->
<g id="edge29" class="edge">
<title>n13&#45;&gt;n2</title>
<path fill="none" stroke="#64748b" d="M489.77,-381.01C498.19,-379.24 506.82,-377.5 515,-376 621.08,-356.51 669.95,-406.34 755,-340 768.67,-329.34 757.92,-316.43 770,-304 797.18,-276.05 824.41,-297.42 850,-268 902.93,-207.15 899.52,-164.17 873,-88 869.25,-77.22 862.29,-66.99 855.1,-58.43"/>
<polygon fill="#64748b" stroke="#64748b" points="857.09,-56.99 850.61,-53.38 853.42,-60.24 857.09,-56.99"/>
</g>
<!-- n13&#45;&gt;n12 -->
<g id="edge30" class="edge">
<title>n13&#45;&gt;n12</title>
<path fill="none" stroke="#64748b" d="M435.52,-375.7C434.81,-367.47 433.96,-357.48 433.18,-348.42"/>
<polygon fill="#64748b" stroke="#64748b" points="435.63,-348.38 432.6,-341.61 430.75,-348.8 435.63,-348.38"/>
</g>
<!-- n14 -->
<g id="node15" class="node">
<title>n14</title>
<g id="a_node15"><a xlink:href="vscode://vscode-remote/wsl+Ubuntu/home/gavin/statlib/Statlib/CoxChangePoint/Score.lean:57" xlink:title="noncomputable def · Statlib/CoxChangePoint/Score.lean:57" target="_blank">
<path fill="#d6e9ff" stroke="#3b82f6" d="M638.26,-124C638.26,-124 541.74,-124 541.74,-124 535.74,-124 529.74,-118 529.74,-112 529.74,-112 529.74,-100 529.74,-100 529.74,-94 535.74,-88 541.74,-88 541.74,-88 638.26,-88 638.26,-88 644.26,-88 650.26,-94 650.26,-100 650.26,-100 650.26,-112 650.26,-112 650.26,-118 644.26,-124 638.26,-124"/>
<text xml:space="preserve" text-anchor="middle" x="590" y="-103" font-family="Helvetica,sans-Serif" font-size="10.00">alphaScoreContribution</text>
</a>
</g>
</g>
<!-- n14&#45;&gt;n0 -->
<g id="edge32" class="edge">
<title>n14&#45;&gt;n0</title>
<path fill="none" stroke="#64748b" d="M529.34,-90.75C468.69,-76.5 377.48,-55.08 327.64,-43.37"/>
<polygon fill="#64748b" stroke="#64748b" points="328.27,-41 320.89,-41.79 327.15,-45.77 328.27,-41"/>
</g>
<!-- n14&#45;&gt;n2 -->
<g id="edge31" class="edge">
<title>n14&#45;&gt;n2</title>
<path fill="none" stroke="#64748b" d="M650.19,-87.52C694.32,-74.7 752.98,-57.66 791.34,-46.52"/>
<polygon fill="#64748b" stroke="#64748b" points="791.72,-48.96 797.76,-44.66 790.35,-44.26 791.72,-48.96"/>
</g>
<!-- n15 -->
<g id="node16" class="node">
<title>n15</title>
<g id="a_node16"><a xlink:href="vscode://vscode-remote/wsl+Ubuntu/home/gavin/statlib/Statlib/CoxChangePoint/Score.lean:80" xlink:title="noncomputable def · Statlib/CoxChangePoint/Score.lean:80" target="_blank">
<path fill="#d6e9ff" stroke="#3b82f6" d="M646.97,-268C646.97,-268 551.03,-268 551.03,-268 545.03,-268 539.03,-262 539.03,-256 539.03,-256 539.03,-244 539.03,-244 539.03,-238 545.03,-232 551.03,-232 551.03,-232 646.97,-232 646.97,-232 652.97,-232 658.97,-238 658.97,-244 658.97,-244 658.97,-256 658.97,-256 658.97,-262 652.97,-268 646.97,-268"/>
<text xml:space="preserve" text-anchor="middle" x="599" y="-247" font-family="Helvetica,sans-Serif" font-size="10.00">riskSumWeightedAlpha</text>
</a>
</g>
</g>
<!-- n15&#45;&gt;n0 -->
<g id="edge33" class="edge">
<title>n15&#45;&gt;n0</title>
<path fill="none" stroke="#64748b" d="M585.27,-231.58C558.93,-199.19 498.11,-129.26 433,-88 399.79,-66.95 356.95,-52.35 327.25,-43.87"/>
<polygon fill="#64748b" stroke="#64748b" points="328.09,-41.57 320.69,-42.05 326.78,-46.29 328.09,-41.57"/>
</g>
<!-- n15&#45;&gt;n2 -->
<g id="edge34" class="edge">
<title>n15&#45;&gt;n2</title>
<path fill="none" stroke="#64748b" d="M606.17,-231.53C620.31,-199.06 654.75,-128.99 704,-88 729.3,-66.95 764.14,-53.2 790.93,-45"/>
<polygon fill="#64748b" stroke="#64748b" points="791.5,-47.39 797.52,-43.06 790.11,-42.69 791.5,-47.39"/>
</g>
<!-- n15&#45;&gt;n5 -->
<g id="edge35" class="edge">
<title>n15&#45;&gt;n5</title>
<path fill="none" stroke="#64748b" d="M538.81,-232.41C489.53,-218.83 421.51,-200.09 380.54,-188.79"/>
<polygon fill="#64748b" stroke="#64748b" points="381.33,-186.47 373.93,-186.97 380.02,-191.19 381.33,-186.47"/>
</g>
<!-- n15&#45;&gt;n6 -->
<g id="edge36" class="edge">
<title>n15&#45;&gt;n6</title>
<path fill="none" stroke="#64748b" d="M563.53,-231.52C541.64,-220.72 513.66,-206.93 491.87,-196.19"/>
<polygon fill="#64748b" stroke="#64748b" points="493.17,-194.1 485.8,-193.2 491,-198.49 493.17,-194.1"/>
</g>
<!-- n15&#45;&gt;n14 -->
<g id="edge37" class="edge">
<title>n15&#45;&gt;n14</title>
<path fill="none" stroke="#64748b" d="M597.9,-231.59C596.32,-206.76 593.42,-161.01 591.61,-132.4"/>
<polygon fill="#64748b" stroke="#64748b" points="594.07,-132.45 591.18,-125.62 589.18,-132.76 594.07,-132.45"/>
</g>
<!-- n16 -->
<g id="node17" class="node">
<title>n16</title>
<g id="a_node17"><a xlink:href="vscode://vscode-remote/wsl+Ubuntu/home/gavin/statlib/Statlib/CoxChangePoint/Score.lean:110" xlink:title="noncomputable def · Statlib/CoxChangePoint/Score.lean:110" target="_blank">
<path fill="#d6e9ff" stroke="#3b82f6" d="M573.69,-340C573.69,-340 488.31,-340 488.31,-340 482.31,-340 476.31,-334 476.31,-328 476.31,-328 476.31,-316 476.31,-316 476.31,-310 482.31,-304 488.31,-304 488.31,-304 573.69,-304 573.69,-304 579.69,-304 585.69,-310 585.69,-316 585.69,-316 585.69,-328 585.69,-328 585.69,-334 579.69,-340 573.69,-340"/>
<text xml:space="preserve" text-anchor="middle" x="531" y="-319" font-family="Helvetica,sans-Serif" font-size="10.00">meanAlphaInRiskSet</text>
</a>
</g>
</g>
<!-- n16&#45;&gt;n0 -->
<g id="edge38" class="edge">
<title>n16&#45;&gt;n0</title>
<path fill="none" stroke="#64748b" d="M531.41,-303.5C530.94,-283.87 527.26,-252.12 510,-232 482.22,-199.62 452.96,-224.26 421,-196 410.72,-186.91 369.96,-98.4 361,-88 351.02,-76.43 338.16,-65.73 326.25,-57.01"/>
<polygon fill="#64748b" stroke="#64748b" points="327.73,-55.06 320.6,-53 324.89,-59.05 327.73,-55.06"/>
</g>
<!-- n16&#45;&gt;n2 -->
<g id="edge39" class="edge">
<title>n16&#45;&gt;n2</title>
<path fill="none" stroke="#64748b" d="M586.07,-306.76C640.73,-292.48 717.21,-272.04 723,-268 787.51,-222.95 799.87,-198.22 826,-124 833.2,-103.55 834.02,-78.83 833.28,-60.64"/>
<polygon fill="#64748b" stroke="#64748b" points="835.74,-60.65 832.9,-53.79 830.84,-60.92 835.74,-60.65"/>
</g>
<!-- n16&#45;&gt;n7 -->
<g id="edge40" class="edge">
<title>n16&#45;&gt;n7</title>
<path fill="none" stroke="#64748b" d="M516.91,-303.7C509.73,-294.88 500.9,-284.03 493.11,-274.47"/>
<polygon fill="#64748b" stroke="#64748b" points="495.2,-273.16 488.88,-269.28 491.4,-276.25 495.2,-273.16"/>
</g>
<!-- n16&#45;&gt;n15 -->
<g id="edge41" class="edge">
<title>n16&#45;&gt;n15</title>
<path fill="none" stroke="#64748b" d="M547.81,-303.7C556.46,-294.8 567.11,-283.82 576.46,-274.2"/>
<polygon fill="#64748b" stroke="#64748b" points="578.21,-275.92 581.33,-269.19 574.69,-272.5 578.21,-275.92"/>
</g>
<!-- n17 -->
<g id="node18" class="node">
<title>n17</title>
<g id="a_node18"><a xlink:href="vscode://vscode-remote/wsl+Ubuntu/home/gavin/statlib/Statlib/CoxChangePoint/Score.lean:148" xlink:title="noncomputable def · Statlib/CoxChangePoint/Score.lean:148" target="_blank">
<path fill="#d6e9ff" stroke="#3b82f6" d="M606.47,-412C606.47,-412 535.53,-412 535.53,-412 529.53,-412 523.53,-406 523.53,-400 523.53,-400 523.53,-388 523.53,-388 523.53,-382 529.53,-376 535.53,-376 535.53,-376 606.47,-376 606.47,-376 612.47,-376 618.47,-382 618.47,-388 618.47,-388 618.47,-400 618.47,-400 618.47,-406 612.47,-412 606.47,-412"/>
<text xml:space="preserve" text-anchor="middle" x="571" y="-391" font-family="Helvetica,sans-Serif" font-size="10.00">partialScoreAlpha</text>
</a>
</g>
</g>
<!-- n17&#45;&gt;n0 -->
<g id="edge42" class="edge">
<title>n17&#45;&gt;n0</title>
<path fill="none" stroke="#64748b" d="M523.23,-381.19C514.85,-379.31 506.19,-377.5 498,-376 322.7,-343.89 117,-429.21 117,-251 117,-251 117,-251 117,-177 117,-137.09 103.43,-118.65 129,-88 160.37,-50.4 218.76,-39.24 256.47,-36.06"/>
<polygon fill="#64748b" stroke="#64748b" points="256.34,-38.53 263.14,-35.58 255.98,-33.64 256.34,-38.53"/>
</g>
<!-- n17&#45;&gt;n2 -->
<g id="edge43" class="edge">
<title>n17&#45;&gt;n2</title>
<path fill="none" stroke="#64748b" d="M618.93,-385.3C660.34,-377.48 721.04,-363.18 770,-340 794.75,-328.28 796.97,-318.81 820,-304 847.12,-286.55 864.66,-294.52 883,-268 928.87,-201.67 943.09,-159.62 906,-88 898.26,-73.05 884.14,-61.42 870.23,-52.91"/>
<polygon fill="#64748b" stroke="#64748b" points="871.6,-50.87 864.32,-49.5 869.16,-55.12 871.6,-50.87"/>
</g>
<!-- n17&#45;&gt;n14 -->
<g id="edge44" class="edge">
<title>n17&#45;&gt;n14</title>
<path fill="none" stroke="#64748b" d="M582.45,-375.83C594.83,-357.57 615.43,-328.07 635,-304 648.69,-287.16 660.13,-288.23 668,-268 687.63,-217.53 644.33,-161.11 614.72,-130.27"/>
<polygon fill="#64748b" stroke="#64748b" points="616.72,-128.81 610.06,-125.53 613.22,-132.24 616.72,-128.81"/>
</g>
<!-- n17&#45;&gt;n16 -->
<g id="edge45" class="edge">
<title>n17&#45;&gt;n16</title>
<path fill="none" stroke="#64748b" d="M561.11,-375.7C556.22,-367.14 550.23,-356.66 544.89,-347.3"/>
<polygon fill="#64748b" stroke="#64748b" points="547.13,-346.28 541.52,-341.42 542.87,-348.71 547.13,-346.28"/>
</g>
<!-- n18 -->
<g id="node19" class="node">
<title>n18</title>
<g id="a_node19"><a xlink:href="vscode://vscode-remote/wsl+Ubuntu/home/gavin/statlib/Statlib/CoxChangePoint/Score.lean:63" xlink:title="noncomputable def · Statlib/CoxChangePoint/Score.lean:63" target="_blank">
<path fill="#d6e9ff" stroke="#3b82f6" d="M299.75,-124C299.75,-124 208.25,-124 208.25,-124 202.25,-124 196.25,-118 196.25,-112 196.25,-112 196.25,-100 196.25,-100 196.25,-94 202.25,-88 208.25,-88 208.25,-88 299.75,-88 299.75,-88 305.75,-88 311.75,-94 311.75,-100 311.75,-100 311.75,-112 311.75,-112 311.75,-118 305.75,-124 299.75,-124"/>
<text xml:space="preserve" text-anchor="middle" x="254" y="-103" font-family="Helvetica,sans-Serif" font-size="10.00">betaScoreContribution</text>
</a>
</g>
</g>
<!-- n18&#45;&gt;n0 -->
<g id="edge47" class="edge">
<title>n18&#45;&gt;n0</title>
<path fill="none" stroke="#64748b" d="M263.39,-87.7C267.99,-79.22 273.62,-68.86 278.66,-59.58"/>
<polygon fill="#64748b" stroke="#64748b" points="280.81,-60.76 281.99,-53.43 276.5,-58.42 280.81,-60.76"/>
</g>
<!-- n18&#45;&gt;n2 -->
<g id="edge46" class="edge">
<title>n18&#45;&gt;n2</title>
<path fill="none" stroke="#64748b" d="M312.07,-95.77C329.4,-93.12 348.45,-90.33 366,-88 522.79,-67.17 709.99,-47.38 790.7,-39.08"/>
<polygon fill="#64748b" stroke="#64748b" points="790.88,-41.53 797.59,-38.38 790.38,-36.65 790.88,-41.53"/>
</g>
<!-- n19 -->
<g id="node20" class="node">
<title>n19</title>
<g id="a_node20"><a xlink:href="vscode://vscode-remote/wsl+Ubuntu/home/gavin/statlib/Statlib/CoxChangePoint/Score.lean:87" xlink:title="noncomputable def · Statlib/CoxChangePoint/Score.lean:87" target="_blank">
<path fill="#d6e9ff" stroke="#3b82f6" d="M298.47,-268C298.47,-268 207.53,-268 207.53,-268 201.53,-268 195.53,-262 195.53,-256 195.53,-256 195.53,-244 195.53,-244 195.53,-238 201.53,-232 207.53,-232 207.53,-232 298.47,-232 298.47,-232 304.47,-232 310.47,-238 310.47,-244 310.47,-244 310.47,-256 310.47,-256 310.47,-262 304.47,-268 298.47,-268"/>
<text xml:space="preserve" text-anchor="middle" x="253" y="-247" font-family="Helvetica,sans-Serif" font-size="10.00">riskSumWeightedBeta</text>
</a>
</g>
</g>
<!-- n19&#45;&gt;n0 -->
<g id="edge48" class="edge">
<title>n19&#45;&gt;n0</title>
<path fill="none" stroke="#64748b" d="M235.65,-231.68C207.31,-201.21 157.08,-136.62 187,-88 202.1,-63.47 232.43,-49.88 256.63,-42.62"/>
<polygon fill="#64748b" stroke="#64748b" points="257.04,-45.05 263.12,-40.81 255.72,-40.34 257.04,-45.05"/>
</g>
<!-- n19&#45;&gt;n2 -->
<g id="edge49" class="edge">
<title>n19&#45;&gt;n2</title>
<path fill="none" stroke="#64748b" d="M260.34,-231.56C269.33,-211.96 286.22,-180.26 309,-160 364.55,-110.58 388.83,-109.5 460,-88 576.77,-52.72 721.49,-40.69 790.59,-36.78"/>
<polygon fill="#64748b" stroke="#64748b" points="790.67,-39.23 797.52,-36.4 790.4,-34.33 790.67,-39.23"/>
</g>
<!-- n19&#45;&gt;n5 -->
<g id="edge50" class="edge">
<title>n19&#45;&gt;n5</title>
<path fill="none" stroke="#64748b" d="M275.74,-231.7C287.79,-222.53 302.74,-211.16 315.66,-201.33"/>
<polygon fill="#64748b" stroke="#64748b" points="316.91,-203.45 321,-197.26 313.94,-199.55 316.91,-203.45"/>
</g>
<!-- n19&#45;&gt;n6 -->
<g id="edge51" class="edge">
<title>n19&#45;&gt;n6</title>
<path fill="none" stroke="#64748b" d="M303.95,-231.52C340.62,-218.94 389.14,-202.29 421.62,-191.14"/>
<polygon fill="#64748b" stroke="#64748b" points="422.26,-193.51 428.09,-188.92 420.67,-188.87 422.26,-193.51"/>
</g>
<!-- n19&#45;&gt;n18 -->
<g id="edge52" class="edge">
<title>n19&#45;&gt;n18</title>
<path fill="none" stroke="#64748b" d="M253.12,-231.59C253.3,-206.76 253.62,-161.01 253.82,-132.4"/>
<polygon fill="#64748b" stroke="#64748b" points="256.27,-132.64 253.87,-125.62 251.37,-132.61 256.27,-132.64"/>
</g>
<!-- n20 -->
<g id="node21" class="node">
<title>n20</title>
<g id="a_node21"><a xlink:href="vscode://vscode-remote/wsl+Ubuntu/home/gavin/statlib/Statlib/CoxChangePoint/Score.lean:118" xlink:title="noncomputable def · Statlib/CoxChangePoint/Score.lean:118" target="_blank">
<path fill="#d6e9ff" stroke="#3b82f6" d="M331.19,-340C331.19,-340 250.81,-340 250.81,-340 244.81,-340 238.81,-334 238.81,-328 238.81,-328 238.81,-316 238.81,-316 238.81,-310 244.81,-304 250.81,-304 250.81,-304 331.19,-304 331.19,-304 337.19,-304 343.19,-310 343.19,-316 343.19,-316 343.19,-328 343.19,-328 343.19,-334 337.19,-340 331.19,-340"/>
<text xml:space="preserve" text-anchor="middle" x="291" y="-319" font-family="Helvetica,sans-Serif" font-size="10.00">meanBetaInRiskSet</text>
</a>
</g>
</g>
<!-- n20&#45;&gt;n0 -->
<g id="edge53" class="edge">
<title>n20&#45;&gt;n0</title>
<path fill="none" stroke="#64748b" d="M238.52,-308.61C215.17,-300.62 189.13,-287.87 172,-268 119.45,-207.03 106.26,-154.23 152,-88 175.35,-54.19 223.26,-41.93 256.48,-37.49"/>
<polygon fill="#64748b" stroke="#64748b" points="256.43,-39.97 263.09,-36.7 255.85,-35.1 256.43,-39.97"/>
</g>
<!-- n20&#45;&gt;n2 -->
<g id="edge54" class="edge">
<title>n20&#45;&gt;n2</title>
<path fill="none" stroke="#64748b" d="M343.59,-312.08C360.04,-309.38 378.26,-306.47 395,-304 455.54,-295.06 621.71,-308.02 668,-268 683.72,-254.4 705.57,-103.87 719,-88 737.48,-66.17 766.98,-52.72 791.06,-44.83"/>
<polygon fill="#64748b" stroke="#64748b" points="791.6,-47.23 797.56,-42.81 790.14,-42.55 791.6,-47.23"/>
</g>
<!-- n20&#45;&gt;n7 -->
<g id="edge55" class="edge">
<title>n20&#45;&gt;n7</title>
<path fill="none" stroke="#64748b" d="M343.16,-303.55C371.47,-293.74 406.93,-280.9 438,-268 438.35,-267.85 438.7,-267.71 439.06,-267.56"/>
<polygon fill="#64748b" stroke="#64748b" points="439.78,-269.92 445.22,-264.87 437.82,-265.42 439.78,-269.92"/>
</g>
<!-- n20&#45;&gt;n19 -->
<g id="edge56" class="edge">
<title>n20&#45;&gt;n19</title>
<path fill="none" stroke="#64748b" d="M281.61,-303.7C277.01,-295.22 271.38,-284.86 266.34,-275.58"/>
<polygon fill="#64748b" stroke="#64748b" points="268.5,-274.42 263.01,-269.43 264.19,-276.76 268.5,-274.42"/>
</g>
<!-- n21 -->
<g id="node22" class="node">
<title>n21</title>
<g id="a_node22"><a xlink:href="vscode://vscode-remote/wsl+Ubuntu/home/gavin/statlib/Statlib/CoxChangePoint/Score.lean:160" xlink:title="noncomputable def · Statlib/CoxChangePoint/Score.lean:160" target="_blank">
<path fill="#d6e9ff" stroke="#3b82f6" d="M323.97,-412C323.97,-412 258.03,-412 258.03,-412 252.03,-412 246.03,-406 246.03,-400 246.03,-400 246.03,-388 246.03,-388 246.03,-382 252.03,-376 258.03,-376 258.03,-376 323.97,-376 323.97,-376 329.97,-376 335.97,-382 335.97,-388 335.97,-388 335.97,-400 335.97,-400 335.97,-406 329.97,-412 323.97,-412"/>
<text xml:space="preserve" text-anchor="middle" x="291" y="-391" font-family="Helvetica,sans-Serif" font-size="10.00">partialScoreBeta</text>
</a>
</g>
</g>
<!-- n21&#45;&gt;n0 -->
<g id="edge57" class="edge">
<title>n21&#45;&gt;n0</title>
<path fill="none" stroke="#64748b" d="M245.64,-386.68C193.5,-378.47 112.46,-362.47 92,-340 64.99,-310.34 77,-291.11 77,-251 77,-251 77,-251 77,-177 77,-136.89 64.97,-117.64 92,-88 113.95,-63.93 205.22,-47.36 256.54,-39.75"/>
<polygon fill="#64748b" stroke="#64748b" points="256.65,-42.21 263.23,-38.78 255.95,-37.36 256.65,-42.21"/>
</g>
<!-- n21&#45;&gt;n2 -->
<g id="edge58" class="edge">
<title>n21&#45;&gt;n2</title>
<path fill="none" stroke="#64748b" d="M336.38,-383.62C349.18,-381.06 363.12,-378.35 376,-376 473.04,-358.32 506.09,-382.72 595,-340 616.56,-329.64 614.22,-315.84 635,-304 681.53,-277.48 705.61,-297.97 750,-268 811.41,-226.54 821.68,-197.06 834,-124 837.58,-102.78 836.38,-78.32 834.54,-60.41"/>
<polygon fill="#64748b" stroke="#64748b" points="837,-60.38 833.77,-53.7 832.13,-60.93 837,-60.38"/>
</g>
<!-- n21&#45;&gt;n18 -->
<g id="edge59" class="edge">
<title>n21&#45;&gt;n18</title>
<path fill="none" stroke="#64748b" d="M268,-375.82C241.44,-354.21 199.76,-314.26 187,-268 173.08,-217.53 208.53,-161.79 233.01,-130.92"/>
<polygon fill="#64748b" stroke="#64748b" points="234.88,-132.5 237.4,-125.53 231.08,-129.41 234.88,-132.5"/>
</g>
<!-- n21&#45;&gt;n20 -->
<g id="edge60" class="edge">
<title>n21&#45;&gt;n20</title>
<path fill="none" stroke="#64748b" d="M291,-375.7C291,-367.47 291,-357.48 291,-348.42"/>
<polygon fill="#64748b" stroke="#64748b" points="293.45,-348.62 291,-341.62 288.55,-348.62 293.45,-348.62"/>
</g>
<!-- n22 -->
<g id="node23" class="node">
<title>n22</title>
<g id="a_node23"><a xlink:href="vscode://vscode-remote/wsl+Ubuntu/home/gavin/statlib/Statlib/CoxChangePoint/CoxLAN.lean:87" xlink:title="noncomputable def · Statlib/CoxChangePoint/CoxLAN.lean:87" target="_blank">
<path fill="#d6e9ff" stroke="#3b82f6" d="M592.57,-484C592.57,-484 549.43,-484 549.43,-484 543.43,-484 537.43,-478 537.43,-472 537.43,-472 537.43,-460 537.43,-460 537.43,-454 543.43,-448 549.43,-448 549.43,-448 592.57,-448 592.57,-448 598.57,-448 604.57,-454 604.57,-460 604.57,-460 604.57,-472 604.57,-472 604.57,-478 598.57,-484 592.57,-484"/>
<text xml:space="preserve" text-anchor="middle" x="571" y="-463" font-family="Helvetica,sans-Serif" font-size="10.00">coxScoreAt</text>
</a>
</g>
</g>
<!-- n22&#45;&gt;n0 -->
<g id="edge61" class="edge">
<title>n22&#45;&gt;n0</title>
<path fill="none" stroke="#64748b" d="M537,-452.19C532.02,-450.61 526.91,-449.15 522,-448 321.31,-401.05 197.17,-502.98 71,-340 46.49,-308.34 57,-291.04 57,-251 57,-251 57,-251 57,-177 57,-136.96 43.83,-117.41 71,-88 95.83,-61.12 200.69,-45.37 256.58,-38.73"/>
<polygon fill="#64748b" stroke="#64748b" points="256.61,-41.19 263.28,-37.95 256.04,-36.33 256.61,-41.19"/>
</g>
<!-- n22&#45;&gt;n2 -->
<g id="edge62" class="edge">
<title>n22&#45;&gt;n2</title>
<path fill="none" stroke="#64748b" d="M604.76,-448.3C650.13,-425.48 732.83,-382.51 800,-340 822.99,-325.45 885.09,-291.38 899,-268 940.12,-198.86 957.4,-158.14 918,-88 907.77,-69.79 888.46,-57.1 870.62,-48.71"/>
<polygon fill="#64748b" stroke="#64748b" points="871.87,-46.59 864.48,-45.99 869.89,-51.07 871.87,-46.59"/>
</g>
<!-- n22&#45;&gt;n13 -->
<g id="edge63" class="edge">
<title>n22&#45;&gt;n13</title>
<path fill="none" stroke="#64748b" d="M537.53,-447.52C519.33,-438.01 496.67,-426.17 477.48,-416.15"/>
<polygon fill="#64748b" stroke="#64748b" points="478.72,-414.03 471.38,-412.96 476.45,-418.37 478.72,-414.03"/>
</g>
<!-- n22&#45;&gt;n17 -->
<g id="edge64" class="edge">
<title>n22&#45;&gt;n17</title>
<path fill="none" stroke="#64748b" d="M571,-447.7C571,-439.47 571,-429.48 571,-420.42"/>
<polygon fill="#64748b" stroke="#64748b" points="573.45,-420.62 571,-413.62 568.55,-420.62 573.45,-420.62"/>
</g>
<!-- n22&#45;&gt;n21 -->
<g id="edge65" class="edge">
<title>n22&#45;&gt;n21</title>
<path fill="none" stroke="#64748b" d="M537.07,-452.44C532.37,-450.86 527.58,-449.33 523,-448 490,-438.42 401.96,-418.92 344.32,-406.43"/>
<polygon fill="#64748b" stroke="#64748b" points="344.88,-404.05 337.52,-404.96 343.85,-408.83 344.88,-404.05"/>
</g>
<!-- n23 -->
<g id="node24" class="node">
<title>n23</title>
<g id="a_node24"><a xlink:href="vscode://vscode-remote/wsl+Ubuntu/home/gavin/statlib/Statlib/CoxChangePoint/CoxTaylor.lean:142" xlink:title="structure · Statlib/CoxChangePoint/CoxTaylor.lean:142" target="_blank">
<path fill="#e8dcff" stroke="#8b5cf6" d="M774.28,-556C774.28,-556 691.72,-556 691.72,-556 685.72,-556 679.72,-550 679.72,-544 679.72,-544 679.72,-532 679.72,-532 679.72,-526 685.72,-520 691.72,-520 691.72,-520 774.28,-520 774.28,-520 780.28,-520 786.28,-526 786.28,-532 786.28,-532 786.28,-544 786.28,-544 786.28,-550 780.28,-556 774.28,-556"/>
<text xml:space="preserve" text-anchor="middle" x="733" y="-535" font-family="Helvetica,sans-Serif" font-size="10.00">CoxFirstOrderTaylor</text>
</a>
</g>
</g>
<!-- n23&#45;&gt;n1 -->
<g id="edge66" class="edge">
<title>n23&#45;&gt;n1</title>
<path fill="none" stroke="#64748b" d="M679.25,-522.19C676.46,-521.44 673.7,-520.71 671,-520 607.62,-503.33 580.79,-522.85 528,-484 512.9,-472.89 521.93,-457.89 506,-448 429.81,-400.68 191.09,-433.42 104,-412 102.04,-411.52 100.04,-410.95 98.05,-410.33"/>
<polygon fill="#64748b" stroke="#64748b" points="99.25,-408.16 91.83,-408.19 97.65,-412.79 99.25,-408.16"/>
</g>
<!-- n23&#45;&gt;n2 -->
<g id="edge67" class="edge">
<title>n23&#45;&gt;n2</title>
<path fill="none" stroke="#64748b" d="M786.72,-533.67C832.21,-528.61 897.42,-515.9 945,-484 1010.72,-439.94 1021,-402.13 1021,-323 1021,-323 1021,-323 1021,-177 1021,-136.46 1028.48,-117.81 1001,-88 967.69,-51.87 910.19,-40.17 871.39,-36.5"/>
<polygon fill="#64748b" stroke="#64748b" points="871.62,-34.06 864.44,-35.92 871.21,-38.94 871.62,-34.06"/>
</g>
<!-- n23&#45;&gt;n4 -->
<g id="edge68" class="edge">
<title>n23&#45;&gt;n4</title>
<path fill="none" stroke="#64748b" d="M755.74,-519.7C767.79,-510.53 782.74,-499.16 795.66,-489.33"/>
<polygon fill="#64748b" stroke="#64748b" points="796.91,-491.45 801,-485.26 793.94,-487.55 796.91,-491.45"/>
</g>
<!-- n23&#45;&gt;n8 -->
<g id="edge69" class="edge">
<title>n23&#45;&gt;n8</title>
<path fill="none" stroke="#64748b" d="M729.95,-519.85C723.28,-482.28 707.35,-392.58 699.51,-348.43"/>
<polygon fill="#64748b" stroke="#64748b" points="701.96,-348.19 698.32,-341.72 697.14,-349.04 701.96,-348.19"/>
</g>
<!-- n23&#45;&gt;n9 -->
<g id="edge70" class="edge">
<title>n23&#45;&gt;n9</title>
<path fill="none" stroke="#64748b" d="M679.27,-522.11C676.48,-521.39 673.71,-520.68 671,-520 601.14,-502.47 582.82,-501.67 513,-484 504.69,-481.9 495.78,-479.5 487.41,-477.18"/>
<polygon fill="#64748b" stroke="#64748b" points="488.11,-474.83 480.71,-475.3 486.79,-479.55 488.11,-474.83"/>
</g>
<!-- n23&#45;&gt;n10 -->
<g id="edge71" class="edge">
<title>n23&#45;&gt;n10</title>
<path fill="none" stroke="#64748b" d="M786.66,-529.69C849.95,-517.75 951.56,-487.28 991,-412 1002.25,-390.53 988.75,-364.99 974.82,-346.79"/>
<polygon fill="#64748b" stroke="#64748b" points="976.96,-345.54 970.67,-341.61 973.14,-348.61 976.96,-345.54"/>
</g>
<!-- n23&#45;&gt;n22 -->
<g id="edge72" class="edge">
<title>n23&#45;&gt;n22</title>
<path fill="none" stroke="#64748b" d="M692.54,-519.52C668.18,-508.99 637.24,-495.62 612.67,-485.01"/>
<polygon fill="#64748b" stroke="#64748b" points="613.72,-482.79 606.33,-482.26 611.78,-487.29 613.72,-482.79"/>
</g>
<!-- n24 -->
<g id="node25" class="node">
<title>n24</title>
<g id="a_node25"><a xlink:href="vscode://vscode-remote/wsl+Ubuntu/home/gavin/statlib/Statlib/CoxChangePoint/CoxLAN.lean:155" xlink:title="noncomputable def · Statlib/CoxChangePoint/CoxLAN.lean:155" target="_blank">
<path fill="#d6e9ff" stroke="#3b82f6" d="M970.48,-412C970.48,-412 849.52,-412 849.52,-412 843.52,-412 837.52,-406 837.52,-400 837.52,-400 837.52,-388 837.52,-388 837.52,-382 843.52,-376 849.52,-376 849.52,-376 970.48,-376 970.48,-376 976.48,-376 982.48,-382 982.48,-388 982.48,-388 982.48,-400 982.48,-400 982.48,-406 976.48,-412 970.48,-412"/>
<text xml:space="preserve" text-anchor="middle" x="910" y="-391" font-family="Helvetica,sans-Serif" font-size="10.00">coxLogPartialLikelihoodRatio</text>
</a>
</g>
</g>
<!-- n24&#45;&gt;n0 -->
<g id="edge73" class="edge">
<title>n24&#45;&gt;n0</title>
<path fill="none" stroke="#64748b" d="M900.87,-375.54C895.67,-365.31 889.17,-352.06 884,-340 836.98,-230.27 885.2,-161.34 791,-88 754.52,-59.6 435.51,-41.86 327.54,-36.63"/>
<polygon fill="#64748b" stroke="#64748b" points="327.87,-34.19 320.76,-36.3 327.63,-39.08 327.87,-34.19"/>
</g>
<!-- n24&#45;&gt;n2 -->
<g id="edge74" class="edge">
<title>n24&#45;&gt;n2</title>
<path fill="none" stroke="#64748b" d="M900.53,-375.61C891.61,-356.64 881.47,-326.03 895,-304 913.52,-273.85 947.48,-298.15 966,-268 986.93,-233.92 988.53,-121.05 966,-88 944.91,-57.06 902.77,-44.18 871.15,-38.82"/>
<polygon fill="#64748b" stroke="#64748b" points="871.73,-36.43 864.44,-37.79 870.99,-41.28 871.73,-36.43"/>
</g>
<!-- n24&#45;&gt;n8 -->
<g id="edge75" class="edge">
<title>n24&#45;&gt;n8</title>
<path fill="none" stroke="#64748b" d="M856.3,-375.52C825.34,-365.44 786.36,-352.75 754.48,-342.37"/>
<polygon fill="#64748b" stroke="#64748b" points="755.39,-340.08 747.97,-340.25 753.87,-344.74 755.39,-340.08"/>
</g>
<!-- n24&#45;&gt;n10 -->
<g id="edge76" class="edge">
<title>n24&#45;&gt;n10</title>
<path fill="none" stroke="#64748b" d="M920.63,-375.7C925.89,-367.14 932.33,-356.66 938.07,-347.3"/>
<polygon fill="#64748b" stroke="#64748b" points="940.12,-348.64 941.7,-341.39 935.95,-346.08 940.12,-348.64"/>
</g>
<!-- n25 -->
<g id="node26" class="node">
<title>n25</title>
<g id="a_node26"><a xlink:href="vscode://vscode-remote/wsl+Ubuntu/home/gavin/statlib/Statlib/CoxChangePoint/CoxLAN.lean:199" xlink:title="structure · Statlib/CoxChangePoint/CoxLAN.lean:199" target="_blank">
<path fill="#e8dcff" stroke="#8b5cf6" d="M649.7,-556C649.7,-556 524.3,-556 524.3,-556 518.3,-556 512.3,-550 512.3,-544 512.3,-544 512.3,-532 512.3,-532 512.3,-526 518.3,-520 524.3,-520 524.3,-520 649.7,-520 649.7,-520 655.7,-520 661.7,-526 661.7,-532 661.7,-532 661.7,-544 661.7,-544 661.7,-550 655.7,-556 649.7,-556"/>
<text xml:space="preserve" text-anchor="middle" x="587" y="-535" font-family="Helvetica,sans-Serif" font-size="10.00">CoxLANExpansionHypothesis</text>
</a>
</g>
</g>
<!-- n25&#45;&gt;n1 -->
<g id="edge77" class="edge">
<title>n25&#45;&gt;n1</title>
<path fill="none" stroke="#64748b" d="M558.17,-519.69C543.69,-510.2 526.42,-497.62 513,-484 499.33,-470.13 504.82,-457.82 488,-448 413.99,-404.77 187.18,-432.64 104,-412 102.04,-411.51 100.05,-410.95 98.05,-410.32"/>
<polygon fill="#64748b" stroke="#64748b" points="99.25,-408.15 91.84,-408.17 97.65,-412.78 99.25,-408.15"/>
</g>
<!-- n25&#45;&gt;n2 -->
<g id="edge78" class="edge">
<title>n25&#45;&gt;n2</title>
<path fill="none" stroke="#64748b" d="M611.6,-519.52C680.02,-470.5 870.34,-331.21 914,-268 959.67,-201.88 977.53,-153.52 931,-88 916.57,-67.69 891.91,-54.49 870.68,-46.35"/>
<polygon fill="#64748b" stroke="#64748b" points="871.58,-44.07 864.16,-43.99 869.91,-48.68 871.58,-44.07"/>
</g>
<!-- n25&#45;&gt;n9 -->
<g id="edge80" class="edge">
<title>n25&#45;&gt;n9</title>
<path fill="none" stroke="#64748b" d="M553.28,-519.52C533.06,-509.03 507.39,-495.72 486.95,-485.12"/>
<polygon fill="#64748b" stroke="#64748b" points="488.08,-482.95 480.74,-481.9 485.83,-487.3 488.08,-482.95"/>
</g>
<!-- n25&#45;&gt;n22 -->
<g id="edge81" class="edge">
<title>n25&#45;&gt;n22</title>
<path fill="none" stroke="#64748b" d="M583.04,-519.7C581.15,-511.39 578.83,-501.28 576.75,-492.14"/>
<polygon fill="#64748b" stroke="#64748b" points="579.2,-491.86 575.25,-485.58 574.42,-492.95 579.2,-491.86"/>
</g>
<!-- n25&#45;&gt;n24 -->
<g id="edge79" class="edge">
<title>n25&#45;&gt;n24</title>
<path fill="none" stroke="#64748b" d="M639.97,-519.57C664.49,-510.5 693.55,-498.32 718,-484 740.1,-471.06 740.65,-460.51 763,-448 786.82,-434.67 814.62,-423.63 839.59,-415.14"/>
<polygon fill="#64748b" stroke="#64748b" points="840.29,-417.49 846.16,-412.95 838.74,-412.84 840.29,-417.49"/>
</g>
<!-- n26 -->
<g id="node27" class="node">
<title>n26</title>
<g id="a_node27"><a xlink:href="vscode://vscode-remote/wsl+Ubuntu/home/gavin/statlib/Statlib/CoxChangePoint/CoxTaylor.lean:195" xlink:title="noncomputable def · Statlib/CoxChangePoint/CoxTaylor.lean:195" target="_blank">
<path fill="#d6e9ff" stroke="#3b82f6" stroke-width="3" d="M653.87,-628C653.87,-628 520.13,-628 520.13,-628 514.13,-628 508.13,-622 508.13,-616 508.13,-616 508.13,-604 508.13,-604 508.13,-598 514.13,-592 520.13,-592 520.13,-592 653.87,-592 653.87,-592 659.87,-592 665.87,-598 665.87,-604 665.87,-604 665.87,-616 665.87,-616 665.87,-622 659.87,-628 653.87,-628"/>
<text xml:space="preserve" text-anchor="middle" x="587" y="-607" font-family="Helvetica,sans-Serif" font-size="10.00">toCoxLANExpansionHypothesis</text>
</a>
</g>
</g>
<!-- n26&#45;&gt;n9 -->
<g id="edge85" class="edge">
<title>n26&#45;&gt;n9</title>
<path fill="none" stroke="#64748b" d="M541.38,-590.53C524.54,-581.98 506.33,-570.47 493,-556 476.23,-537.8 465.28,-511.55 458.95,-492.27"/>
<polygon fill="#64748b" stroke="#64748b" points="461.31,-491.61 456.89,-485.66 456.64,-493.07 461.31,-491.61"/>
</g>
<!-- n26&#45;&gt;n22 -->
<g id="edge86" class="edge">
<title>n26&#45;&gt;n22</title>
<path fill="none" stroke="#64748b" d="M540.27,-590.52C525.67,-582.26 511.24,-570.95 503,-556 495.27,-541.99 495.98,-534.38 503,-520 509.04,-507.64 519.51,-497.32 530.45,-489.17"/>
<polygon fill="#64748b" stroke="#64748b" points="531.72,-491.27 536.05,-485.25 528.91,-487.26 531.72,-491.27"/>
</g>
<!-- n26&#45;&gt;n23 -->
<g id="edge82" class="edge">
<title>n26&#45;&gt;n23</title>
<path fill="none" stroke="#64748b" d="M625.36,-590.61C644.99,-581.2 668.97,-569.7 689.3,-559.95"/>
<polygon fill="#64748b" stroke="#64748b" points="690.29,-562.2 695.54,-556.96 688.17,-557.78 690.29,-562.2"/>
</g>
<!-- n26&#45;&gt;n24 -->
<g id="edge84" class="edge">
<title>n26&#45;&gt;n24</title>
<path fill="none" stroke="#64748b" d="M667.26,-596.62C707.06,-588.49 755.03,-575.64 795,-556 841.6,-533.1 858.55,-527.44 887,-484 899.45,-464.98 905.17,-439.57 907.79,-420.78"/>
<polygon fill="#64748b" stroke="#64748b" points="910.21,-421.14 908.63,-413.89 905.35,-420.54 910.21,-421.14"/>
</g>
<!-- n26&#45;&gt;n25 -->
<g id="edge83" class="edge">
<title>n26&#45;&gt;n25</title>
<path fill="none" stroke="#64748b" d="M587,-590.61C587,-582.59 587,-573.05 587,-564.37"/>
<polygon fill="#64748b" stroke="#64748b" points="589.45,-564.58 587,-557.58 584.55,-564.58 589.45,-564.58"/>
</g>
</g>
</svg>
