<?xml version="1.0" encoding="UTF-8" standalone="no"?>
<!DOCTYPE svg PUBLIC "-//W3C//DTD SVG 1.1//EN"
 "http://www.w3.org/Graphics/SVG/1.1/DTD/svg11.dtd">
<!-- Generated by graphviz version 15.0.0 (20260523.1842)
 -->
<!-- Title: uniform_convergence_of_empirical_processes Pages: 1 -->
<svg width="940pt" height="915pt"
 viewBox="0.00 0.00 940.00 915.00" xmlns="http://www.w3.org/2000/svg" xmlns:xlink="http://www.w3.org/1999/xlink">
<g id="graph0" class="graph" transform="scale(1 1) rotate(0) translate(4 911.2)">
<title>uniform_convergence_of_empirical_processes</title>
<polygon fill="white" stroke="none" points="-4,4 -4,-911.2 936,-911.2 936,4 -4,4"/>
<text xml:space="preserve" text-anchor="middle" x="466" y="-890.6" font-family="Helvetica,sans-Serif" font-size="14.00">Proof narrative — uniform_convergence_of_empirical_processes &#160;(30 decls)</text>
<g id="clust1" class="cluster">
<title>cluster_0</title>
<path fill="none" stroke="#cbd5e1" stroke-dasharray="5,2" d="M20,-8C20,-8 632,-8 632,-8 638,-8 644,-14 644,-20 644,-20 644,-862.4 644,-862.4 644,-868.4 638,-874.4 632,-874.4 632,-874.4 20,-874.4 20,-874.4 14,-874.4 8,-868.4 8,-862.4 8,-862.4 8,-20 8,-20 8,-14 14,-8 20,-8"/>
<text xml:space="preserve" text-anchor="middle" x="326" y="-860.5" font-family="Helvetica,sans-Serif" font-size="11.00">CoxChangePoint</text>
</g>
<g id="clust2" class="cluster">
<title>cluster_1</title>
<path fill="none" stroke="#cbd5e1" stroke-dasharray="5,2" d="M664,-440C664,-440 912,-440 912,-440 918,-440 924,-446 924,-452 924,-452 924,-501.2 924,-501.2 924,-507.2 918,-513.2 912,-513.2 912,-513.2 664,-513.2 664,-513.2 658,-513.2 652,-507.2 652,-501.2 652,-501.2 652,-452 652,-452 652,-446 658,-440 664,-440"/>
<text xml:space="preserve" text-anchor="middle" x="788" y="-499.3" font-family="Helvetica,sans-Serif" font-size="11.00">EmpiricalProcess</text>
</g>
<!-- n0 -->
<g id="node1" class="node">
<title>n0</title>
<g id="a_node1"><a xlink:href="vscode://vscode-remote/wsl+Ubuntu/home/gavin/statlib/Statlib/CoxChangePoint/Auto/uniform_convergence_of_empirical_processes.lean:6" xlink:title="private structure · Statlib/CoxChangePoint/Auto/uniform_convergence_of_empirical_processes.lean:6" target="_blank">
<path fill="#e8dcff" stroke="#8b5cf6" d="M356.51,-773.2C356.51,-773.2 289.49,-773.2 289.49,-773.2 283.49,-773.2 277.49,-767.2 277.49,-761.2 277.49,-761.2 277.49,-749.2 277.49,-749.2 277.49,-743.2 283.49,-737.2 289.49,-737.2 289.49,-737.2 356.51,-737.2 356.51,-737.2 362.51,-737.2 368.51,-743.2 368.51,-749.2 368.51,-749.2 368.51,-761.2 368.51,-761.2 368.51,-767.2 362.51,-773.2 356.51,-773.2"/>
<text xml:space="preserve" text-anchor="middle" x="323" y="-752.2" font-family="Helvetica,sans-Serif" font-size="10.00">CoxAssumptions</text>
</a>
</g>
</g>
<!-- n1 -->
<g id="node2" class="node">
<title>n1</title>
<g id="a_node2"><a xlink:href="vscode://vscode-remote/wsl+Ubuntu/home/gavin/statlib/Statlib/CoxChangePoint/Foundation.lean:57" xlink:title="structure · Statlib/CoxChangePoint/Foundation.lean:57" target="_blank">
<path fill="#e8dcff" stroke="#8b5cf6" d="M584.62,-52C584.62,-52 545.38,-52 545.38,-52 539.38,-52 533.38,-46 533.38,-40 533.38,-40 533.38,-28 533.38,-28 533.38,-22 539.38,-16 545.38,-16 545.38,-16 584.62,-16 584.62,-16 590.62,-16 596.62,-22 596.62,-28 596.62,-28 596.62,-40 596.62,-40 596.62,-46 590.62,-52 584.62,-52"/>
<text xml:space="preserve" text-anchor="middle" x="565" y="-31" font-family="Helvetica,sans-Serif" font-size="10.00">CoxParam</text>
</a>
</g>
</g>
<!-- n2 -->
<g id="node3" class="node">
<title>n2</title>
<g id="a_node3"><a xlink:href="vscode://vscode-remote/wsl+Ubuntu/home/gavin/statlib/Statlib/CoxChangePoint/FPC.lean:55" xlink:title="def · Statlib/CoxChangePoint/FPC.lean:55" target="_blank">
<path fill="#d6e9ff" stroke="#3b82f6" d="M227.02,-52C227.02,-52 154.98,-52 154.98,-52 148.98,-52 142.98,-46 142.98,-40 142.98,-40 142.98,-28 142.98,-28 142.98,-22 148.98,-16 154.98,-16 154.98,-16 227.02,-16 227.02,-16 233.02,-16 239.02,-22 239.02,-28 239.02,-28 239.02,-40 239.02,-40 239.02,-46 233.02,-52 227.02,-52"/>
<text xml:space="preserve" text-anchor="middle" x="191" y="-31" font-family="Helvetica,sans-Serif" font-size="10.00">FunctionalSample</text>
</a>
</g>
</g>
<!-- n3 -->
<g id="node4" class="node">
<title>n3</title>
<g id="a_node4"><a xlink:href="vscode://vscode-remote/wsl+Ubuntu/home/gavin/statlib/Statlib/CoxChangePoint/FPC.lean:42" xlink:title="structure · Statlib/CoxChangePoint/FPC.lean:42" target="_blank">
<path fill="#e8dcff" stroke="#8b5cf6" d="M81.62,-52C81.62,-52 32.38,-52 32.38,-52 26.38,-52 20.38,-46 20.38,-40 20.38,-40 20.38,-28 20.38,-28 20.38,-22 26.38,-16 32.38,-16 32.38,-16 81.62,-16 81.62,-16 87.62,-16 93.62,-22 93.62,-28 93.62,-28 93.62,-40 93.62,-40 93.62,-46 87.62,-52 81.62,-52"/>
<text xml:space="preserve" text-anchor="middle" x="57" y="-31" font-family="Helvetica,sans-Serif" font-size="10.00">Eigensystem</text>
</a>
</g>
</g>
<!-- n4 -->
<g id="node5" class="node">
<title>n4</title>
<g id="a_node5"><a xlink:href="vscode://vscode-remote/wsl+Ubuntu/home/gavin/statlib/Statlib/CoxChangePoint/CoxModel.lean:80" xlink:title="structure · Statlib/CoxChangePoint/CoxModel.lean:80" target="_blank">
<path fill="#e8dcff" stroke="#8b5cf6" d="M304.51,-340C304.51,-340 267.49,-340 267.49,-340 261.49,-340 255.49,-334 255.49,-328 255.49,-328 255.49,-316 255.49,-316 255.49,-310 261.49,-304 267.49,-304 267.49,-304 304.51,-304 304.51,-304 310.51,-304 316.51,-310 316.51,-316 316.51,-316 316.51,-328 316.51,-328 316.51,-334 310.51,-340 304.51,-340"/>
<text xml:space="preserve" text-anchor="middle" x="286" y="-319" font-family="Helvetica,sans-Serif" font-size="10.00">CoxModel</text>
</a>
</g>
</g>
<!-- n4&#45;&gt;n1 -->
<g id="edge1" class="edge">
<title>n4&#45;&gt;n1</title>
<path fill="none" stroke="#64748b" d="M317,-320.61C358.75,-318.45 433.09,-308.67 479,-268 541.14,-212.95 558.45,-108.93 563.22,-60.72"/>
<polygon fill="#64748b" stroke="#64748b" points="565.65,-61.1 563.84,-53.9 560.77,-60.65 565.65,-61.1"/>
</g>
<!-- n4&#45;&gt;n2 -->
<g id="edge2" class="edge">
<title>n4&#45;&gt;n2</title>
<path fill="none" stroke="#64748b" d="M284.49,-303.68C282.62,-285.56 278.83,-256.4 272,-232 254.03,-167.84 221.23,-96.4 203.38,-59.72"/>
<polygon fill="#64748b" stroke="#64748b" points="205.75,-59 200.47,-53.79 201.35,-61.16 205.75,-59"/>
</g>
<!-- n4&#45;&gt;n3 -->
<g id="edge3" class="edge">
<title>n4&#45;&gt;n3</title>
<path fill="none" stroke="#64748b" d="M255.28,-311.84C245.92,-309.17 235.57,-306.34 226,-304 149.29,-285.22 102.71,-328.54 52,-268 0.62,-206.66 41.28,-167.74 48,-88 48.76,-78.93 50.25,-69.08 51.8,-60.36"/>
<polygon fill="#64748b" stroke="#64748b" points="54.19,-60.91 53.07,-53.58 49.37,-60.01 54.19,-60.91"/>
</g>
<!-- n5 -->
<g id="node6" class="node">
<title>n5</title>
<g id="a_node6"><a xlink:href="vscode://vscode-remote/wsl+Ubuntu/home/gavin/statlib/Statlib/CoxChangePoint/Auto/smoothed_empirical_process_approximation.lean:18" xlink:title="private structure · Statlib/CoxChangePoint/Auto/smoothed_empirical_process_approximation.lean:18" target="_blank">
<path fill="#e8dcff" stroke="#8b5cf6" d="M360.62,-484C360.62,-484 321.38,-484 321.38,-484 315.38,-484 309.38,-478 309.38,-472 309.38,-472 309.38,-460 309.38,-460 309.38,-454 315.38,-448 321.38,-448 321.38,-448 360.62,-448 360.62,-448 366.62,-448 372.62,-454 372.62,-460 372.62,-460 372.62,-472 372.62,-472 372.62,-478 366.62,-484 360.62,-484"/>
<text xml:space="preserve" text-anchor="middle" x="341" y="-463" font-family="Helvetica,sans-Serif" font-size="10.00">CoxParam</text>
</a>
</g>
</g>
<!-- n6 -->
<g id="node7" class="node">
<title>n6</title>
<g id="a_node7"><a xlink:href="vscode://vscode-remote/wsl+Ubuntu/home/gavin/statlib/Statlib/CoxChangePoint/Foundation.lean:38" xlink:title="structure · Statlib/CoxChangePoint/Foundation.lean:38" target="_blank">
<path fill="#e8dcff" stroke="#8b5cf6" d="M336,-52C336,-52 306,-52 306,-52 300,-52 294,-46 294,-40 294,-40 294,-28 294,-28 294,-22 300,-16 306,-16 306,-16 336,-16 336,-16 342,-16 348,-22 348,-28 348,-28 348,-40 348,-40 348,-46 342,-52 336,-52"/>
<text xml:space="preserve" text-anchor="middle" x="321" y="-31" font-family="Helvetica,sans-Serif" font-size="10.00">CoxObs</text>
</a>
</g>
</g>
<!-- n7 -->
<g id="node8" class="node">
<title>n7</title>
<g id="a_node8"><a xlink:href="vscode://vscode-remote/wsl+Ubuntu/home/gavin/statlib/Statlib/CoxChangePoint/Foundation.lean:68" xlink:title="noncomputable def · Statlib/CoxChangePoint/Foundation.lean:68" target="_blank">
<path fill="#d6e9ff" stroke="#3b82f6" d="M504,-124C504,-124 474,-124 474,-124 468,-124 462,-118 462,-112 462,-112 462,-100 462,-100 462,-94 468,-88 474,-88 474,-88 504,-88 504,-88 510,-88 516,-94 516,-100 516,-100 516,-112 516,-112 516,-118 510,-124 504,-124"/>
<text xml:space="preserve" text-anchor="middle" x="489" y="-103" font-family="Helvetica,sans-Serif" font-size="10.00">g</text>
</a>
</g>
</g>
<!-- n7&#45;&gt;n1 -->
<g id="edge4" class="edge">
<title>n7&#45;&gt;n1</title>
<path fill="none" stroke="#64748b" d="M507.79,-87.7C517.56,-78.69 529.64,-67.57 540.17,-57.87"/>
<polygon fill="#64748b" stroke="#64748b" points="541.56,-59.92 545.05,-53.37 538.24,-56.31 541.56,-59.92"/>
</g>
<!-- n7&#45;&gt;n6 -->
<g id="edge5" class="edge">
<title>n7&#45;&gt;n6</title>
<path fill="none" stroke="#64748b" d="M461.63,-93.6C432.83,-81.6 387.41,-62.67 356.01,-49.59"/>
<polygon fill="#64748b" stroke="#64748b" points="357.16,-47.41 349.75,-46.98 355.27,-51.93 357.16,-47.41"/>
</g>
<!-- n8 -->
<g id="node9" class="node">
<title>n8</title>
<g id="a_node9"><a xlink:href="vscode://vscode-remote/wsl+Ubuntu/home/gavin/statlib/Statlib/CoxChangePoint/Foundation.lean:89" xlink:title="noncomputable def · Statlib/CoxChangePoint/Foundation.lean:89" target="_blank">
<path fill="#d6e9ff" stroke="#3b82f6" d="M392,-124C392,-124 362,-124 362,-124 356,-124 350,-118 350,-112 350,-112 350,-100 350,-100 350,-94 356,-88 362,-88 362,-88 392,-88 392,-88 398,-88 404,-94 404,-100 404,-100 404,-112 404,-112 404,-118 398,-124 392,-124"/>
<text xml:space="preserve" text-anchor="middle" x="377" y="-103" font-family="Helvetica,sans-Serif" font-size="10.00">atRisk</text>
</a>
</g>
</g>
<!-- n8&#45;&gt;n6 -->
<g id="edge6" class="edge">
<title>n8&#45;&gt;n6</title>
<path fill="none" stroke="#64748b" d="M363.16,-87.7C356.17,-78.97 347.59,-68.24 340,-58.75"/>
<polygon fill="#64748b" stroke="#64748b" points="341.92,-57.22 335.63,-53.29 338.09,-60.28 341.92,-57.22"/>
</g>
<!-- n9 -->
<g id="node10" class="node">
<title>n9</title>
<g id="a_node10"><a xlink:href="vscode://vscode-remote/wsl+Ubuntu/home/gavin/statlib/Statlib/CoxChangePoint/Foundation.lean:75" xlink:title="noncomputable def · Statlib/CoxChangePoint/Foundation.lean:75" target="_blank">
<path fill="#d6e9ff" stroke="#3b82f6" d="M458,-196C458,-196 428,-196 428,-196 422,-196 416,-190 416,-184 416,-184 416,-172 416,-172 416,-166 422,-160 428,-160 428,-160 458,-160 458,-160 464,-160 470,-166 470,-172 470,-172 470,-184 470,-184 470,-190 464,-196 458,-196"/>
<text xml:space="preserve" text-anchor="middle" x="443" y="-175" font-family="Helvetica,sans-Serif" font-size="10.00">expG</text>
</a>
</g>
</g>
<!-- n9&#45;&gt;n1 -->
<g id="edge7" class="edge">
<title>n9&#45;&gt;n1</title>
<path fill="none" stroke="#64748b" d="M440.28,-159.52C438.25,-140.19 438,-109 453,-88 469.85,-64.41 500,-50.97 524.77,-43.53"/>
<polygon fill="#64748b" stroke="#64748b" points="525.41,-45.9 531.49,-41.64 524.08,-41.18 525.41,-45.9"/>
</g>
<!-- n9&#45;&gt;n6 -->
<g id="edge8" class="edge">
<title>n9&#45;&gt;n6</title>
<path fill="none" stroke="#64748b" d="M440.9,-159.84C437.77,-140.52 430.26,-109.06 413,-88 398.11,-69.83 375.24,-56.62 356.03,-47.93"/>
<polygon fill="#64748b" stroke="#64748b" points="357.12,-45.73 349.72,-45.19 355.17,-50.22 357.12,-45.73"/>
</g>
<!-- n9&#45;&gt;n7 -->
<g id="edge9" class="edge">
<title>n9&#45;&gt;n7</title>
<path fill="none" stroke="#64748b" d="M454.37,-159.7C460.05,-151.05 467.02,-140.45 473.21,-131.03"/>
<polygon fill="#64748b" stroke="#64748b" points="475.13,-132.56 476.93,-125.37 471.04,-129.87 475.13,-132.56"/>
</g>
<!-- n10 -->
<g id="node11" class="node">
<title>n10</title>
<g id="a_node11"><a xlink:href="vscode://vscode-remote/wsl+Ubuntu/home/gavin/statlib/Statlib/CoxChangePoint/Foundation.lean:93" xlink:title="noncomputable def · Statlib/CoxChangePoint/Foundation.lean:93" target="_blank">
<path fill="#d6e9ff" stroke="#3b82f6" d="M458,-268C458,-268 428,-268 428,-268 422,-268 416,-262 416,-256 416,-256 416,-244 416,-244 416,-238 422,-232 428,-232 428,-232 458,-232 458,-232 464,-232 470,-238 470,-244 470,-244 470,-256 470,-256 470,-262 464,-268 458,-268"/>
<text xml:space="preserve" text-anchor="middle" x="443" y="-247" font-family="Helvetica,sans-Serif" font-size="10.00">riskSum</text>
</a>
</g>
</g>
<!-- n10&#45;&gt;n1 -->
<g id="edge11" class="edge">
<title>n10&#45;&gt;n1</title>
<path fill="none" stroke="#64748b" d="M454.8,-231.9C461.88,-221.55 471.04,-208.07 479,-196 499.89,-164.29 506.95,-157.41 525,-124 536.31,-103.06 547.26,-78.3 554.83,-60.22"/>
<polygon fill="#64748b" stroke="#64748b" points="557.06,-61.22 557.48,-53.82 552.54,-59.35 557.06,-61.22"/>
</g>
<!-- n10&#45;&gt;n6 -->
<g id="edge10" class="edge">
<title>n10&#45;&gt;n6</title>
<path fill="none" stroke="#64748b" d="M422.83,-231.6C411.93,-221.71 398.57,-208.77 388,-196 363.64,-166.55 355.87,-159.2 341,-124 332.37,-103.56 327.19,-78.85 324.28,-60.65"/>
<polygon fill="#64748b" stroke="#64748b" points="326.71,-60.34 323.25,-53.79 321.86,-61.07 326.71,-60.34"/>
</g>
<!-- n10&#45;&gt;n8 -->
<g id="edge12" class="edge">
<title>n10&#45;&gt;n8</title>
<path fill="none" stroke="#64748b" d="M429.4,-231.59C422.05,-221.59 413.23,-208.55 407,-196 396.75,-175.36 388.67,-150.38 383.49,-132.14"/>
<polygon fill="#64748b" stroke="#64748b" points="385.95,-131.83 381.72,-125.74 381.23,-133.14 385.95,-131.83"/>
</g>
<!-- n10&#45;&gt;n9 -->
<g id="edge13" class="edge">
<title>n10&#45;&gt;n9</title>
<path fill="none" stroke="#64748b" d="M443,-231.7C443,-223.47 443,-213.48 443,-204.42"/>
<polygon fill="#64748b" stroke="#64748b" points="445.45,-204.62 443,-197.62 440.55,-204.62 445.45,-204.62"/>
</g>
<!-- n11 -->
<g id="node12" class="node">
<title>n11</title>
<g id="a_node12"><a xlink:href="vscode://vscode-remote/wsl+Ubuntu/home/gavin/statlib/Statlib/CoxChangePoint/Foundation.lean:104" xlink:title="noncomputable def · Statlib/CoxChangePoint/Foundation.lean:104" target="_blank">
<path fill="#d6e9ff" stroke="#3b82f6" d="M534.36,-340C534.36,-340 455.64,-340 455.64,-340 449.64,-340 443.64,-334 443.64,-328 443.64,-328 443.64,-316 443.64,-316 443.64,-310 449.64,-304 455.64,-304 455.64,-304 534.36,-304 534.36,-304 540.36,-304 546.36,-310 546.36,-316 546.36,-316 546.36,-328 546.36,-328 546.36,-334 540.36,-340 534.36,-340"/>
<text xml:space="preserve" text-anchor="middle" x="495" y="-319" font-family="Helvetica,sans-Serif" font-size="10.00">logPartialLikelihood</text>
</a>
</g>
</g>
<!-- n11&#45;&gt;n1 -->
<g id="edge15" class="edge">
<title>n11&#45;&gt;n1</title>
<path fill="none" stroke="#64748b" d="M526.43,-303.7C539.27,-294.85 552.78,-282.79 560,-268 593.53,-199.31 580.3,-105.12 571.06,-60.47"/>
<polygon fill="#64748b" stroke="#64748b" points="573.47,-60.03 569.6,-53.7 568.68,-61.06 573.47,-60.03"/>
</g>
<!-- n11&#45;&gt;n6 -->
<g id="edge14" class="edge">
<title>n11&#45;&gt;n6</title>
<path fill="none" stroke="#64748b" d="M458.87,-303.65C441.99,-294.49 422.29,-282.2 407,-268 378.26,-241.32 374.99,-230.31 356,-196 339.21,-165.67 333.75,-157.79 326,-124 321.18,-103 320.13,-78.52 320.17,-60.55"/>
<polygon fill="#64748b" stroke="#64748b" points="322.61,-60.84 320.24,-53.82 317.71,-60.79 322.61,-60.84"/>
</g>
<!-- n11&#45;&gt;n7 -->
<g id="edge16" class="edge">
<title>n11&#45;&gt;n7</title>
<path fill="none" stroke="#64748b" d="M494.52,-303.85C493.47,-266.36 490.96,-176.95 489.72,-132.7"/>
<polygon fill="#64748b" stroke="#64748b" points="492.17,-132.67 489.53,-125.75 487.27,-132.81 492.17,-132.67"/>
</g>
<!-- n11&#45;&gt;n10 -->
<g id="edge17" class="edge">
<title>n11&#45;&gt;n10</title>
<path fill="none" stroke="#64748b" d="M482.15,-303.7C475.66,-294.97 467.69,-284.24 460.64,-274.75"/>
<polygon fill="#64748b" stroke="#64748b" points="462.75,-273.48 456.61,-269.32 458.82,-276.4 462.75,-273.48"/>
</g>
<!-- n12 -->
<g id="node13" class="node">
<title>n12</title>
<g id="a_node13"><a xlink:href="vscode://vscode-remote/wsl+Ubuntu/home/gavin/statlib/Statlib/CoxChangePoint/Foundation.lean:112" xlink:title="noncomputable def · Statlib/CoxChangePoint/Foundation.lean:112" target="_blank">
<path fill="#d6e9ff" stroke="#3b82f6" d="M510,-412C510,-412 480,-412 480,-412 474,-412 468,-406 468,-400 468,-400 468,-388 468,-388 468,-382 474,-376 480,-376 480,-376 510,-376 510,-376 516,-376 522,-382 522,-388 522,-388 522,-400 522,-400 522,-406 516,-412 510,-412"/>
<text xml:space="preserve" text-anchor="middle" x="495" y="-391" font-family="Helvetica,sans-Serif" font-size="10.00">Gn</text>
</a>
</g>
</g>
<!-- n12&#45;&gt;n1 -->
<g id="edge19" class="edge">
<title>n12&#45;&gt;n1</title>
<path fill="none" stroke="#64748b" d="M518.19,-375.61C547.73,-351.28 595,-304.07 595,-251 595,-251 595,-251 595,-177 595,-137.09 592.13,-126.86 583,-88 580.84,-78.82 577.74,-68.99 574.71,-60.32"/>
<polygon fill="#64748b" stroke="#64748b" points="577.06,-59.6 572.38,-53.84 572.45,-61.26 577.06,-59.6"/>
</g>
<!-- n12&#45;&gt;n6 -->
<g id="edge18" class="edge">
<title>n12&#45;&gt;n6</title>
<path fill="none" stroke="#64748b" d="M474.13,-375.72C462.32,-365.65 447.45,-352.51 435,-340 379.67,-284.41 360.45,-269.47 333,-196 316.02,-150.54 315.17,-136.49 317,-88 317.34,-79.01 318,-69.18 318.69,-60.45"/>
<polygon fill="#64748b" stroke="#64748b" points="321.11,-60.85 319.25,-53.68 316.23,-60.45 321.11,-60.85"/>
</g>
<!-- n12&#45;&gt;n11 -->
<g id="edge20" class="edge">
<title>n12&#45;&gt;n11</title>
<path fill="none" stroke="#64748b" d="M495,-375.7C495,-367.47 495,-357.48 495,-348.42"/>
<polygon fill="#64748b" stroke="#64748b" points="497.45,-348.62 495,-341.62 492.55,-348.62 497.45,-348.62"/>
</g>
<!-- n13 -->
<g id="node14" class="node">
<title>n13</title>
<g id="a_node14"><a xlink:href="vscode://vscode-remote/wsl+Ubuntu/home/gavin/statlib/Statlib/CoxChangePoint/Foundation.lean:127" xlink:title="def · Statlib/CoxChangePoint/Foundation.lean:127" target="_blank">
<path fill="#d6e9ff" stroke="#3b82f6" d="M251,-268C251,-268 221,-268 221,-268 215,-268 209,-262 209,-256 209,-256 209,-244 209,-244 209,-238 215,-232 221,-232 221,-232 251,-232 251,-232 257,-232 263,-238 263,-244 263,-244 263,-256 263,-256 263,-262 257,-268 251,-268"/>
<text xml:space="preserve" text-anchor="middle" x="236" y="-247" font-family="Helvetica,sans-Serif" font-size="10.00">Sample</text>
</a>
</g>
</g>
<!-- n13&#45;&gt;n6 -->
<g id="edge21" class="edge">
<title>n13&#45;&gt;n6</title>
<path fill="none" stroke="#64748b" d="M239.62,-231.96C246.35,-201.92 262.32,-137.99 286,-88 290.65,-78.19 296.89,-68.09 302.83,-59.37"/>
<polygon fill="#64748b" stroke="#64748b" points="304.82,-60.79 306.82,-53.65 300.81,-57.98 304.82,-60.79"/>
</g>
<!-- n14 -->
<g id="node15" class="node">
<title>n14</title>
<g id="a_node15"><a xlink:href="vscode://vscode-remote/wsl+Ubuntu/home/gavin/statlib/Statlib/CoxChangePoint/FPC.lean:64" xlink:title="noncomputable def · Statlib/CoxChangePoint/FPC.lean:64" target="_blank">
<path fill="#d6e9ff" stroke="#3b82f6" d="M139.73,-124C139.73,-124 108.27,-124 108.27,-124 102.27,-124 96.27,-118 96.27,-112 96.27,-112 96.27,-100 96.27,-100 96.27,-94 102.27,-88 108.27,-88 108.27,-88 139.73,-88 139.73,-88 145.73,-88 151.73,-94 151.73,-100 151.73,-100 151.73,-112 151.73,-112 151.73,-118 145.73,-124 139.73,-124"/>
<text xml:space="preserve" text-anchor="middle" x="124" y="-103" font-family="Helvetica,sans-Serif" font-size="10.00">fpcScore</text>
</a>
</g>
</g>
<!-- n14&#45;&gt;n2 -->
<g id="edge22" class="edge">
<title>n14&#45;&gt;n2</title>
<path fill="none" stroke="#64748b" d="M140.56,-87.7C149.08,-78.8 159.58,-67.82 168.8,-58.2"/>
<polygon fill="#64748b" stroke="#64748b" points="170.51,-59.95 173.58,-53.2 166.97,-56.56 170.51,-59.95"/>
</g>
<!-- n14&#45;&gt;n3 -->
<g id="edge23" class="edge">
<title>n14&#45;&gt;n3</title>
<path fill="none" stroke="#64748b" d="M107.44,-87.7C98.92,-78.8 88.42,-67.82 79.2,-58.2"/>
<polygon fill="#64748b" stroke="#64748b" points="81.03,-56.56 74.42,-53.2 77.49,-59.95 81.03,-56.56"/>
</g>
<!-- n15 -->
<g id="node16" class="node">
<title>n15</title>
<g id="a_node16"><a xlink:href="vscode://vscode-remote/wsl+Ubuntu/home/gavin/statlib/Statlib/CoxChangePoint/FPC.lean:69" xlink:title="noncomputable def · Statlib/CoxChangePoint/FPC.lean:69" target="_blank">
<path fill="#d6e9ff" stroke="#3b82f6" d="M154.41,-196C154.41,-196 89.59,-196 89.59,-196 83.59,-196 77.59,-190 77.59,-184 77.59,-184 77.59,-172 77.59,-172 77.59,-166 83.59,-160 89.59,-160 89.59,-160 154.41,-160 154.41,-160 160.41,-160 166.41,-166 166.41,-172 166.41,-172 166.41,-184 166.41,-184 166.41,-190 160.41,-196 154.41,-196"/>
<text xml:space="preserve" text-anchor="middle" x="122" y="-175" font-family="Helvetica,sans-Serif" font-size="10.00">truncatedScores</text>
</a>
</g>
</g>
<!-- n15&#45;&gt;n2 -->
<g id="edge24" class="edge">
<title>n15&#45;&gt;n2</title>
<path fill="none" stroke="#64748b" d="M136.82,-159.76C144.8,-149.81 154.36,-136.77 161,-124 171.64,-103.55 179.67,-78.55 184.74,-60.26"/>
<polygon fill="#64748b" stroke="#64748b" points="187.02,-61.23 186.46,-53.83 182.28,-59.96 187.02,-61.23"/>
</g>
<!-- n15&#45;&gt;n3 -->
<g id="edge25" class="edge">
<title>n15&#45;&gt;n3</title>
<path fill="none" stroke="#64748b" d="M108.81,-159.54C101.67,-149.52 93.1,-136.48 87,-124 76.88,-103.29 68.79,-78.32 63.57,-60.1"/>
<polygon fill="#64748b" stroke="#64748b" points="66.03,-59.79 61.79,-53.71 61.31,-61.11 66.03,-59.79"/>
</g>
<!-- n15&#45;&gt;n14 -->
<g id="edge26" class="edge">
<title>n15&#45;&gt;n14</title>
<path fill="none" stroke="#64748b" d="M122.49,-159.7C122.73,-151.47 123.01,-141.48 123.27,-132.42"/>
<polygon fill="#64748b" stroke="#64748b" points="125.72,-132.68 123.47,-125.62 120.82,-132.54 125.72,-132.68"/>
</g>
<!-- n16 -->
<g id="node17" class="node">
<title>n16</title>
<g id="a_node17"><a xlink:href="vscode://vscode-remote/wsl+Ubuntu/home/gavin/statlib/Statlib/CoxChangePoint/FPC.lean:110" xlink:title="noncomputable def · Statlib/CoxChangePoint/FPC.lean:110" target="_blank">
<path fill="#d6e9ff" stroke="#3b82f6" d="M158.69,-268C158.69,-268 73.31,-268 73.31,-268 67.31,-268 61.31,-262 61.31,-256 61.31,-256 61.31,-244 61.31,-244 61.31,-238 67.31,-232 73.31,-232 73.31,-232 158.69,-232 158.69,-232 164.69,-232 170.69,-238 170.69,-244 170.69,-244 170.69,-256 170.69,-256 170.69,-262 164.69,-268 158.69,-268"/>
<text xml:space="preserve" text-anchor="middle" x="116" y="-247" font-family="Helvetica,sans-Serif" font-size="10.00">CoxObs.ofFunctional</text>
</a>
</g>
</g>
<!-- n16&#45;&gt;n2 -->
<g id="edge27" class="edge">
<title>n16&#45;&gt;n2</title>
<path fill="none" stroke="#64748b" d="M143.16,-231.57C154.99,-222.47 167.78,-210.25 175,-196 197.14,-152.3 196.54,-93.41 193.91,-60.32"/>
<polygon fill="#64748b" stroke="#64748b" points="196.37,-60.35 193.3,-53.6 191.49,-60.79 196.37,-60.35"/>
</g>
<!-- n16&#45;&gt;n3 -->
<g id="edge28" class="edge">
<title>n16&#45;&gt;n3</title>
<path fill="none" stroke="#64748b" d="M95.16,-231.53C85.43,-222.09 74.75,-209.59 69,-196 50.07,-151.21 51.28,-93.18 54.04,-60.43"/>
<polygon fill="#64748b" stroke="#64748b" points="56.44,-60.99 54.66,-53.79 51.57,-60.53 56.44,-60.99"/>
</g>
<!-- n16&#45;&gt;n6 -->
<g id="edge29" class="edge">
<title>n16&#45;&gt;n6</title>
<path fill="none" stroke="#64748b" d="M142.31,-231.68C156.06,-222 172.73,-209.25 186,-196 228.64,-153.41 228.38,-133.41 268,-88 276.98,-77.7 287.51,-66.94 296.81,-57.82"/>
<polygon fill="#64748b" stroke="#64748b" points="298.31,-59.78 301.63,-53.14 294.9,-56.26 298.31,-59.78"/>
</g>
<!-- n16&#45;&gt;n15 -->
<g id="edge30" class="edge">
<title>n16&#45;&gt;n15</title>
<path fill="none" stroke="#64748b" d="M117.48,-231.7C118.19,-223.47 119.04,-213.48 119.82,-204.42"/>
<polygon fill="#64748b" stroke="#64748b" points="122.25,-204.8 120.4,-197.61 117.37,-204.38 122.25,-204.8"/>
</g>
<!-- n17 -->
<g id="node18" class="node">
<title>n17</title>
<g id="a_node18"><a xlink:href="vscode://vscode-remote/wsl+Ubuntu/home/gavin/statlib/Statlib/CoxChangePoint/FPC.lean:158" xlink:title="noncomputable def · Statlib/CoxChangePoint/FPC.lean:158" target="_blank">
<path fill="#d6e9ff" stroke="#3b82f6" d="M204.52,-340C204.52,-340 157.48,-340 157.48,-340 151.48,-340 145.48,-334 145.48,-328 145.48,-328 145.48,-316 145.48,-316 145.48,-310 151.48,-304 157.48,-304 157.48,-304 204.52,-304 204.52,-304 210.52,-304 216.52,-310 216.52,-316 216.52,-316 216.52,-328 216.52,-328 216.52,-334 210.52,-340 204.52,-340"/>
<text xml:space="preserve" text-anchor="middle" x="181" y="-319" font-family="Helvetica,sans-Serif" font-size="10.00">buildSample</text>
</a>
</g>
</g>
<!-- n17&#45;&gt;n2 -->
<g id="edge31" class="edge">
<title>n17&#45;&gt;n2</title>
<path fill="none" stroke="#64748b" d="M184.13,-303.76C190.74,-265.13 205.06,-168.71 199,-88 198.32,-78.95 197,-69.11 195.62,-60.39"/>
<polygon fill="#64748b" stroke="#64748b" points="198.06,-60.11 194.5,-53.61 193.23,-60.91 198.06,-60.11"/>
</g>
<!-- n17&#45;&gt;n3 -->
<g id="edge32" class="edge">
<title>n17&#45;&gt;n3</title>
<path fill="none" stroke="#64748b" d="M145.2,-319.44C109.85,-315.77 57.49,-304.12 32,-268 -14.13,-202.64 14.51,-166.07 32,-88 34.15,-78.42 38.22,-68.54 42.47,-59.94"/>
<polygon fill="#64748b" stroke="#64748b" points="44.62,-61.13 45.68,-53.79 40.27,-58.86 44.62,-61.13"/>
</g>
<!-- n17&#45;&gt;n13 -->
<g id="edge33" class="edge">
<title>n17&#45;&gt;n13</title>
<path fill="none" stroke="#64748b" d="M194.6,-303.7C201.46,-294.97 209.88,-284.24 217.34,-274.75"/>
<polygon fill="#64748b" stroke="#64748b" points="219.23,-276.31 221.63,-269.29 215.37,-273.29 219.23,-276.31"/>
</g>
<!-- n17&#45;&gt;n16 -->
<g id="edge34" class="edge">
<title>n17&#45;&gt;n16</title>
<path fill="none" stroke="#64748b" d="M164.93,-303.7C156.67,-294.8 146.48,-283.82 137.54,-274.2"/>
<polygon fill="#64748b" stroke="#64748b" points="139.47,-272.68 132.91,-269.21 135.88,-276.01 139.47,-272.68"/>
</g>
<!-- n18 -->
<g id="node19" class="node">
<title>n18</title>
<g id="a_node19"><a xlink:href="vscode://vscode-remote/wsl+Ubuntu/home/gavin/statlib/Statlib/CoxChangePoint/CoxModel.lean:132" xlink:title="def · Statlib/CoxChangePoint/CoxModel.lean:132" target="_blank">
<path fill="#d6e9ff" stroke="#3b82f6" d="M310,-412C310,-412 280,-412 280,-412 274,-412 268,-406 268,-400 268,-400 268,-388 268,-388 268,-382 274,-376 280,-376 280,-376 310,-376 310,-376 316,-376 322,-382 322,-388 322,-388 322,-400 322,-400 322,-406 316,-412 310,-412"/>
<text xml:space="preserve" text-anchor="middle" x="295" y="-391" font-family="Helvetica,sans-Serif" font-size="10.00">sample</text>
</a>
</g>
</g>
<!-- n18&#45;&gt;n4 -->
<g id="edge35" class="edge">
<title>n18&#45;&gt;n4</title>
<path fill="none" stroke="#64748b" d="M292.78,-375.7C291.72,-367.47 290.43,-357.48 289.27,-348.42"/>
<polygon fill="#64748b" stroke="#64748b" points="291.71,-348.24 288.39,-341.61 286.85,-348.86 291.71,-348.24"/>
</g>
<!-- n18&#45;&gt;n13 -->
<g id="edge36" class="edge">
<title>n18&#45;&gt;n13</title>
<path fill="none" stroke="#64748b" d="M273.5,-375.6C263.41,-366.17 252.26,-353.67 246,-340 236.88,-320.07 234.77,-295.11 234.72,-276.7"/>
<polygon fill="#64748b" stroke="#64748b" points="237.17,-276.78 234.82,-269.75 232.27,-276.72 237.17,-276.78"/>
</g>
<!-- n18&#45;&gt;n17 -->
<g id="edge37" class="edge">
<title>n18&#45;&gt;n17</title>
<path fill="none" stroke="#64748b" d="M267.69,-376.23C252.25,-366.75 232.76,-354.79 216.18,-344.6"/>
<polygon fill="#64748b" stroke="#64748b" points="217.81,-342.73 210.56,-341.15 215.25,-346.9 217.81,-342.73"/>
</g>
<!-- n19 -->
<g id="node20" class="node">
<title>n19</title>
<g id="a_node20"><a xlink:href="vscode://vscode-remote/wsl+Ubuntu/home/gavin/statlib/Statlib/CoxChangePoint/CoxConsistencyEndToEnd.lean:93" xlink:title="structure · Statlib/CoxChangePoint/CoxConsistencyEndToEnd.lean:93" target="_blank">
<path fill="#e8dcff" stroke="#8b5cf6" d="M340.48,-557.2C340.48,-557.2 239.52,-557.2 239.52,-557.2 233.52,-557.2 227.52,-551.2 227.52,-545.2 227.52,-545.2 227.52,-533.2 227.52,-533.2 227.52,-527.2 233.52,-521.2 239.52,-521.2 239.52,-521.2 340.48,-521.2 340.48,-521.2 346.48,-521.2 352.48,-527.2 352.48,-533.2 352.48,-533.2 352.48,-545.2 352.48,-545.2 352.48,-551.2 346.48,-557.2 340.48,-557.2"/>
<text xml:space="preserve" text-anchor="middle" x="290" y="-536.2" font-family="Helvetica,sans-Serif" font-size="10.00">CoxBaselineHypotheses</text>
</a>
</g>
</g>
<!-- n19&#45;&gt;n4 -->
<g id="edge38" class="edge">
<title>n19&#45;&gt;n4</title>
<path fill="none" stroke="#64748b" d="M281.01,-520.96C279.89,-518.4 278.84,-515.76 278,-513.2 258.84,-454.7 244.63,-435.86 259,-376 261.35,-366.21 265.82,-356.2 270.46,-347.55"/>
<polygon fill="#64748b" stroke="#64748b" points="272.48,-348.95 273.79,-341.65 268.21,-346.54 272.48,-348.95"/>
</g>
<!-- n19&#45;&gt;n5 -->
<g id="edge39" class="edge">
<title>n19&#45;&gt;n5</title>
<path fill="none" stroke="#64748b" d="M302.35,-520.96C308.8,-511.96 316.8,-500.79 323.84,-490.95"/>
<polygon fill="#64748b" stroke="#64748b" points="325.8,-492.42 327.89,-485.31 321.82,-489.57 325.8,-492.42"/>
</g>
<!-- n19&#45;&gt;n12 -->
<g id="edge40" class="edge">
<title>n19&#45;&gt;n12</title>
<path fill="none" stroke="#64748b" d="M289.43,-520.85C288.99,-495.9 289.74,-451.63 300,-440 320.69,-416.54 408.77,-403.82 459.18,-398.34"/>
<polygon fill="#64748b" stroke="#64748b" points="459.32,-400.78 466.03,-397.61 458.81,-395.91 459.32,-400.78"/>
</g>
<!-- n19&#45;&gt;n18 -->
<g id="edge41" class="edge">
<title>n19&#45;&gt;n18</title>
<path fill="none" stroke="#64748b" d="M286.06,-520.78C285.62,-518.25 285.24,-515.67 285,-513.2 281.79,-480.82 281.45,-472.34 285,-440 285.7,-433.66 286.93,-426.9 288.3,-420.6"/>
<polygon fill="#64748b" stroke="#64748b" points="290.67,-421.22 289.87,-413.85 285.89,-420.11 290.67,-421.22"/>
</g>
<!-- n22 -->
<g id="node21" class="node">
<title>n22</title>
<g id="a_node21"><a xlink:href="vscode://vscode-remote/wsl+Ubuntu/home/gavin/statlib/Statlib/CoxChangePoint/Theorem2And3.lean:65" xlink:title="structure · Statlib/CoxChangePoint/Theorem2And3.lean:65" target="_blank">
<path fill="#e8dcff" stroke="#8b5cf6" d="M624.41,-557.2C624.41,-557.2 529.59,-557.2 529.59,-557.2 523.59,-557.2 517.59,-551.2 517.59,-545.2 517.59,-545.2 517.59,-533.2 517.59,-533.2 517.59,-527.2 523.59,-521.2 529.59,-521.2 529.59,-521.2 624.41,-521.2 624.41,-521.2 630.41,-521.2 636.41,-527.2 636.41,-533.2 636.41,-533.2 636.41,-545.2 636.41,-545.2 636.41,-551.2 630.41,-557.2 624.41,-557.2"/>
<text xml:space="preserve" text-anchor="middle" x="577" y="-536.2" font-family="Helvetica,sans-Serif" font-size="10.00">Theorem2Assumptions</text>
</a>
</g>
</g>
<!-- n21 -->
<g id="node30" class="node">
<title>n21</title>
<g id="a_node30"><a xlink:href="vscode://vscode-remote/wsl+Ubuntu/home/gavin/statlib/Statlib/EmpiricalProcess/StochasticOrder.lean:54" xlink:title="def · Statlib/EmpiricalProcess/StochasticOrder.lean:54" target="_blank">
<path fill="#d6e9ff" stroke="#3b82f6" d="M767.69,-484C767.69,-484 672.31,-484 672.31,-484 666.31,-484 660.31,-478 660.31,-472 660.31,-472 660.31,-460 660.31,-460 660.31,-454 666.31,-448 672.31,-448 672.31,-448 767.69,-448 767.69,-448 773.69,-448 779.69,-454 779.69,-460 779.69,-460 779.69,-472 779.69,-472 779.69,-478 773.69,-484 767.69,-484"/>
<text xml:space="preserve" text-anchor="middle" x="720" y="-463" font-family="Helvetica,sans-Serif" font-size="10.00">ConvergesInProbability</text>
</a>
</g>
</g>
<!-- n22&#45;&gt;n21 -->
<g id="edge42" class="edge">
<title>n22&#45;&gt;n21</title>
<path fill="none" stroke="#64748b" d="M630.66,-520.81C636.6,-518.45 642.48,-515.9 648,-513.2 662.06,-506.33 676.73,-497.29 689.14,-489.04"/>
<polygon fill="#64748b" stroke="#64748b" points="690.48,-491.09 694.91,-485.13 687.74,-487.03 690.48,-491.09"/>
</g>
<!-- n23 -->
<g id="node22" class="node">
<title>n23</title>
<g id="a_node22"><a xlink:href="vscode://vscode-remote/wsl+Ubuntu/home/gavin/statlib/Statlib/CoxChangePoint/Theorem2And3.lean:103" xlink:title="theorem · Statlib/CoxChangePoint/Theorem2And3.lean:103" target="_blank">
<path fill="#ffe6a3" stroke="#d4a017" d="M596.9,-629.2C596.9,-629.2 557.1,-629.2 557.1,-629.2 551.1,-629.2 545.1,-623.2 545.1,-617.2 545.1,-617.2 545.1,-605.2 545.1,-605.2 545.1,-599.2 551.1,-593.2 557.1,-593.2 557.1,-593.2 596.9,-593.2 596.9,-593.2 602.9,-593.2 608.9,-599.2 608.9,-605.2 608.9,-605.2 608.9,-617.2 608.9,-617.2 608.9,-623.2 602.9,-629.2 596.9,-629.2"/>
<text xml:space="preserve" text-anchor="middle" x="577" y="-608.2" font-family="Helvetica,sans-Serif" font-size="10.00">theorem_2</text>
</a>
</g>
</g>
<!-- n23&#45;&gt;n22 -->
<g id="edge43" class="edge">
<title>n23&#45;&gt;n22</title>
<path fill="none" stroke="#64748b" d="M577,-592.9C577,-584.67 577,-574.68 577,-565.62"/>
<polygon fill="#64748b" stroke="#64748b" points="579.45,-565.82 577,-558.82 574.55,-565.82 579.45,-565.82"/>
</g>
<!-- n20 -->
<g id="node29" class="node">
<title>n20</title>
<g id="a_node29"><a xlink:href="vscode://vscode-remote/wsl+Ubuntu/home/gavin/statlib/Statlib/EmpiricalProcess/StochasticOrder.lean:42" xlink:title="def · Statlib/EmpiricalProcess/StochasticOrder.lean:42" target="_blank">
<path fill="#d6e9ff" stroke="#3b82f6" d="M904.42,-484C904.42,-484 809.58,-484 809.58,-484 803.58,-484 797.58,-478 797.58,-472 797.58,-472 797.58,-460 797.58,-460 797.58,-454 803.58,-448 809.58,-448 809.58,-448 904.42,-448 904.42,-448 910.42,-448 916.42,-454 916.42,-460 916.42,-460 916.42,-472 916.42,-472 916.42,-478 910.42,-484 904.42,-484"/>
<text xml:space="preserve" text-anchor="middle" x="857" y="-463" font-family="Helvetica,sans-Serif" font-size="10.00">IsBoundedInProbability</text>
</a>
</g>
</g>
<!-- n23&#45;&gt;n20 -->
<g id="edge44" class="edge">
<title>n23&#45;&gt;n20</title>
<path fill="none" stroke="#64748b" d="M609.18,-597.99C635.51,-587.76 673.56,-572.42 706,-557.2 743.8,-539.47 753.23,-534.74 789,-513.2 801.35,-505.76 814.55,-497 825.99,-489.11"/>
<polygon fill="#64748b" stroke="#64748b" points="827.27,-491.21 831.63,-485.2 824.48,-487.18 827.27,-491.21"/>
</g>
<!-- n24 -->
<g id="node23" class="node">
<title>n24</title>
<g id="a_node23"><a xlink:href="vscode://vscode-remote/wsl+Ubuntu/home/gavin/statlib/Statlib/CoxChangePoint/CoxModel.lean:168" xlink:title="def · Statlib/CoxChangePoint/CoxModel.lean:168" target="_blank">
<path fill="#d6e9ff" stroke="#3b82f6" d="M546.58,-484C546.58,-484 443.42,-484 443.42,-484 437.42,-484 431.42,-478 431.42,-472 431.42,-472 431.42,-460 431.42,-460 431.42,-454 437.42,-448 443.42,-448 443.42,-448 546.58,-448 546.58,-448 552.58,-448 558.58,-454 558.58,-460 558.58,-460 558.58,-472 558.58,-472 558.58,-478 552.58,-484 546.58,-484"/>
<text xml:space="preserve" text-anchor="middle" x="495" y="-463" font-family="Helvetica,sans-Serif" font-size="10.00">toTheorem1Assumptions</text>
</a>
</g>
</g>
<!-- n24&#45;&gt;n1 -->
<g id="edge46" class="edge">
<title>n24&#45;&gt;n1</title>
<path fill="none" stroke="#64748b" d="M524.66,-447.51C560.2,-424.06 615,-378.84 615,-323 615,-323 615,-323 615,-177 615,-133.76 594.12,-87.1 579.34,-59.5"/>
<polygon fill="#64748b" stroke="#64748b" points="581.6,-58.53 576.09,-53.57 577.31,-60.88 581.6,-58.53"/>
</g>
<!-- n24&#45;&gt;n4 -->
<g id="edge45" class="edge">
<title>n24&#45;&gt;n4</title>
<path fill="none" stroke="#64748b" d="M483.66,-447.77C469.94,-428.07 445.14,-395.99 417,-376 409.05,-370.35 360.46,-351.28 324.76,-337.63"/>
<polygon fill="#64748b" stroke="#64748b" points="325.74,-335.38 318.32,-335.18 323.99,-339.96 325.74,-335.38"/>
</g>
<!-- n24&#45;&gt;n12 -->
<g id="edge47" class="edge">
<title>n24&#45;&gt;n12</title>
<path fill="none" stroke="#64748b" d="M495,-447.7C495,-439.47 495,-429.48 495,-420.42"/>
<polygon fill="#64748b" stroke="#64748b" points="497.45,-420.62 495,-413.62 492.55,-420.62 497.45,-420.62"/>
</g>
<!-- n24&#45;&gt;n18 -->
<g id="edge48" class="edge">
<title>n24&#45;&gt;n18</title>
<path fill="none" stroke="#64748b" d="M445.05,-447.52C409.21,-434.97 361.82,-418.39 329.97,-407.24"/>
<polygon fill="#64748b" stroke="#64748b" points="331.07,-405.03 323.65,-405.03 329.45,-409.65 331.07,-405.03"/>
</g>
<!-- n25 -->
<g id="node24" class="node">
<title>n25</title>
<g id="a_node24"><a xlink:href="vscode://vscode-remote/wsl+Ubuntu/home/gavin/statlib/Statlib/CoxChangePoint/CoxModel.lean:213" xlink:title="theorem · Statlib/CoxChangePoint/CoxModel.lean:213" target="_blank">
<path fill="#ffe6a3" stroke="#d4a017" d="M487.68,-557.2C487.68,-557.2 422.32,-557.2 422.32,-557.2 416.32,-557.2 410.32,-551.2 410.32,-545.2 410.32,-545.2 410.32,-533.2 410.32,-533.2 410.32,-527.2 416.32,-521.2 422.32,-521.2 422.32,-521.2 487.68,-521.2 487.68,-521.2 493.68,-521.2 499.68,-527.2 499.68,-533.2 499.68,-533.2 499.68,-545.2 499.68,-545.2 499.68,-551.2 493.68,-557.2 487.68,-557.2"/>
<text xml:space="preserve" text-anchor="middle" x="455" y="-536.2" font-family="Helvetica,sans-Serif" font-size="10.00">cox_consistency</text>
</a>
</g>
</g>
<!-- n25&#45;&gt;n1 -->
<g id="edge50" class="edge">
<title>n25&#45;&gt;n1</title>
<path fill="none" stroke="#64748b" d="M499.91,-523.35C502.97,-522.56 506.02,-521.83 509,-521.2 524.53,-517.91 567.11,-522.47 580,-513.2 627.03,-479.36 635,-452.94 635,-395 635,-395 635,-395 635,-177 635,-131.64 605.92,-85.76 585.24,-58.87"/>
<polygon fill="#64748b" stroke="#64748b" points="587.38,-57.63 581.13,-53.65 583.53,-60.66 587.38,-57.63"/>
</g>
<!-- n25&#45;&gt;n4 -->
<g id="edge49" class="edge">
<title>n25&#45;&gt;n4</title>
<path fill="none" stroke="#64748b" d="M428.62,-520.81C426.16,-518.46 423.89,-515.92 422,-513.2 402.62,-485.3 417.24,-469.27 400,-440 377.71,-402.15 340.67,-367.28 314.88,-345.63"/>
<polygon fill="#64748b" stroke="#64748b" points="316.7,-343.96 309.75,-341.38 313.58,-347.73 316.7,-343.96"/>
</g>
<!-- n25&#45;&gt;n12 -->
<g id="edge51" class="edge">
<title>n25&#45;&gt;n12</title>
<path fill="none" stroke="#64748b" d="M499.93,-523.43C502.98,-522.62 506.03,-521.86 509,-521.2 521.91,-518.31 559.3,-523.16 568,-513.2 589.4,-488.7 583.86,-468.41 568,-440 559.72,-425.17 544.32,-414.62 529.79,-407.48"/>
<polygon fill="#64748b" stroke="#64748b" points="531.07,-405.37 523.69,-404.68 529.03,-409.83 531.07,-405.37"/>
</g>
<!-- n25&#45;&gt;n18 -->
<g id="edge52" class="edge">
<title>n25&#45;&gt;n18</title>
<path fill="none" stroke="#64748b" d="M415.38,-520.93C412.31,-518.62 409.45,-516.05 407,-513.2 384.59,-487.13 404.44,-466.04 382,-440 368.43,-424.25 347.97,-413.28 330.31,-406.12"/>
<polygon fill="#64748b" stroke="#64748b" points="331.25,-403.85 323.83,-403.63 329.49,-408.43 331.25,-403.85"/>
</g>
<!-- n25&#45;&gt;n24 -->
<g id="edge53" class="edge">
<title>n25&#45;&gt;n24</title>
<path fill="none" stroke="#64748b" d="M464.68,-520.96C469.69,-512.04 475.9,-501 481.38,-491.24"/>
<polygon fill="#64748b" stroke="#64748b" points="483.37,-492.7 484.66,-485.4 479.1,-490.3 483.37,-492.7"/>
</g>
<!-- n26 -->
<g id="node25" class="node">
<title>n26</title>
<g id="a_node25"><a xlink:href="vscode://vscode-remote/wsl+Ubuntu/home/gavin/statlib/Statlib/CoxChangePoint/CoxConsistencyEndToEnd.lean:125" xlink:title="theorem · Statlib/CoxChangePoint/CoxConsistencyEndToEnd.lean:125" target="_blank">
<path fill="#ffe6a3" stroke="#d4a017" d="M461.12,-629.2C461.12,-629.2 416.88,-629.2 416.88,-629.2 410.88,-629.2 404.88,-623.2 404.88,-617.2 404.88,-617.2 404.88,-605.2 404.88,-605.2 404.88,-599.2 410.88,-593.2 416.88,-593.2 416.88,-593.2 461.12,-593.2 461.12,-593.2 467.12,-593.2 473.12,-599.2 473.12,-605.2 473.12,-605.2 473.12,-617.2 473.12,-617.2 473.12,-623.2 467.12,-629.2 461.12,-629.2"/>
<text xml:space="preserve" text-anchor="middle" x="439" y="-608.2" font-family="Helvetica,sans-Serif" font-size="10.00">consistency</text>
</a>
</g>
</g>
<!-- n26&#45;&gt;n5 -->
<g id="edge56" class="edge">
<title>n26&#45;&gt;n5</title>
<path fill="none" stroke="#64748b" d="M426.52,-593.12C419.03,-582.79 409.37,-569.31 401,-557.2 385.71,-535.07 368.78,-509.51 356.81,-491.27"/>
<polygon fill="#64748b" stroke="#64748b" points="359.04,-490.19 353.15,-485.68 354.94,-492.88 359.04,-490.19"/>
</g>
<!-- n26&#45;&gt;n19 -->
<g id="edge54" class="edge">
<title>n26&#45;&gt;n19</title>
<path fill="none" stroke="#64748b" d="M404.44,-593.96C383.76,-584.25 357.24,-571.79 334.93,-561.31"/>
<polygon fill="#64748b" stroke="#64748b" points="335.99,-559.1 328.61,-558.34 333.9,-563.53 335.99,-559.1"/>
</g>
<!-- n26&#45;&gt;n25 -->
<g id="edge57" class="edge">
<title>n26&#45;&gt;n25</title>
<path fill="none" stroke="#64748b" d="M442.96,-592.9C444.85,-584.59 447.17,-574.48 449.25,-565.34"/>
<polygon fill="#64748b" stroke="#64748b" points="451.58,-566.15 450.75,-558.78 446.8,-565.06 451.58,-566.15"/>
</g>
<!-- n26&#45;&gt;n21 -->
<g id="edge55" class="edge">
<title>n26&#45;&gt;n21</title>
<path fill="none" stroke="#64748b" d="M473.57,-603.98C524.47,-594.38 616.61,-575.18 645,-557.2 671.05,-540.7 692.52,-512.17 705.72,-491.61"/>
<polygon fill="#64748b" stroke="#64748b" points="707.77,-492.95 709.4,-485.71 703.61,-490.35 707.77,-492.95"/>
</g>
<!-- n27 -->
<g id="node26" class="node">
<title>n27</title>
<g id="a_node26"><a xlink:href="vscode://vscode-remote/wsl+Ubuntu/home/gavin/statlib/Statlib/CoxChangePoint/CoxConsistencyEndToEnd.lean:138" xlink:title="theorem · Statlib/CoxChangePoint/CoxConsistencyEndToEnd.lean:138" target="_blank">
<path fill="#ffe6a3" stroke="#d4a017" d="M454,-701.2C454,-701.2 424,-701.2 424,-701.2 418,-701.2 412,-695.2 412,-689.2 412,-689.2 412,-677.2 412,-677.2 412,-671.2 418,-665.2 424,-665.2 424,-665.2 454,-665.2 454,-665.2 460,-665.2 466,-671.2 466,-677.2 466,-677.2 466,-689.2 466,-689.2 466,-695.2 460,-701.2 454,-701.2"/>
<text xml:space="preserve" text-anchor="middle" x="439" y="-680.2" font-family="Helvetica,sans-Serif" font-size="10.00">rate</text>
</a>
</g>
</g>
<!-- n27&#45;&gt;n5 -->
<g id="edge59" class="edge">
<title>n27&#45;&gt;n5</title>
<path fill="none" stroke="#64748b" d="M422.09,-664.76C413.32,-654.95 403.01,-642.11 396,-629.2 371.92,-584.86 377.51,-568.88 361,-521.2 357.65,-511.52 353.79,-500.95 350.36,-491.72"/>
<polygon fill="#64748b" stroke="#64748b" points="352.76,-491.14 348.01,-485.44 348.17,-492.86 352.76,-491.14"/>
</g>
<!-- n27&#45;&gt;n19 -->
<g id="edge58" class="edge">
<title>n27&#45;&gt;n19</title>
<path fill="none" stroke="#64748b" d="M411.82,-664.73C397.55,-655.02 380.15,-642.27 366,-629.2 344.2,-609.06 322.54,-582.93 307.95,-564.2"/>
<polygon fill="#64748b" stroke="#64748b" points="310.05,-562.91 303.83,-558.86 306.17,-565.9 310.05,-562.91"/>
</g>
<!-- n27&#45;&gt;n23 -->
<g id="edge61" class="edge">
<title>n27&#45;&gt;n23</title>
<path fill="none" stroke="#64748b" d="M466.26,-668.37C486.52,-658.1 514.46,-643.92 537.2,-632.39"/>
<polygon fill="#64748b" stroke="#64748b" points="538.22,-634.62 543.35,-629.27 536,-630.25 538.22,-634.62"/>
</g>
<!-- n27&#45;&gt;n26 -->
<g id="edge62" class="edge">
<title>n27&#45;&gt;n26</title>
<path fill="none" stroke="#64748b" d="M439,-664.9C439,-656.67 439,-646.68 439,-637.62"/>
<polygon fill="#64748b" stroke="#64748b" points="441.45,-637.82 439,-630.82 436.55,-637.82 441.45,-637.82"/>
</g>
<!-- n27&#45;&gt;n20 -->
<g id="edge60" class="edge">
<title>n27&#45;&gt;n20</title>
<path fill="none" stroke="#64748b" d="M466.25,-675.9C501.84,-667.28 565.75,-650.42 618,-629.2 681.73,-603.31 698.38,-596.26 755,-557.2 784.27,-537 814.36,-509.4 834.2,-490.06"/>
<polygon fill="#64748b" stroke="#64748b" points="835.67,-492.06 838.94,-485.4 832.23,-488.56 835.67,-492.06"/>
</g>
<!-- n28 -->
<g id="node27" class="node">
<title>n28</title>
<g id="a_node27"><a xlink:href="vscode://vscode-remote/wsl+Ubuntu/home/gavin/statlib/Statlib/CoxChangePoint/Auto/uniform_convergence_of_empirical_processes.lean:15" xlink:title="private def · Statlib/CoxChangePoint/Auto/uniform_convergence_of_empirical_processes.lean:15" target="_blank">
<path fill="#d6e9ff" stroke="#3b82f6" d="M479.75,-773.2C479.75,-773.2 398.25,-773.2 398.25,-773.2 392.25,-773.2 386.25,-767.2 386.25,-761.2 386.25,-761.2 386.25,-749.2 386.25,-749.2 386.25,-743.2 392.25,-737.2 398.25,-737.2 398.25,-737.2 479.75,-737.2 479.75,-737.2 485.75,-737.2 491.75,-743.2 491.75,-749.2 491.75,-749.2 491.75,-761.2 491.75,-761.2 491.75,-767.2 485.75,-773.2 479.75,-773.2"/>
<text xml:space="preserve" text-anchor="middle" x="439" y="-752.2" font-family="Helvetica,sans-Serif" font-size="10.00">ConvergesInProbTo</text>
</a>
</g>
</g>
<!-- n28&#45;&gt;n27 -->
<g id="edge63" class="edge">
<title>n28&#45;&gt;n27</title>
<path fill="none" stroke="#64748b" d="M439,-736.9C439,-728.67 439,-718.68 439,-709.62"/>
<polygon fill="#64748b" stroke="#64748b" points="441.45,-709.82 439,-702.82 436.55,-709.82 441.45,-709.82"/>
</g>
<!-- n29 -->
<g id="node28" class="node">
<title>n29</title>
<g id="a_node28"><a xlink:href="vscode://vscode-remote/wsl+Ubuntu/home/gavin/statlib/Statlib/CoxChangePoint/Auto/uniform_convergence_of_empirical_processes.lean:20" xlink:title="theorem · Statlib/CoxChangePoint/Auto/uniform_convergence_of_empirical_processes.lean:20" target="_blank">
<path fill="#ffe6a3" stroke="#d4a017" stroke-width="3" d="M480.39,-845.2C480.39,-845.2 281.61,-845.2 281.61,-845.2 275.61,-845.2 269.61,-839.2 269.61,-833.2 269.61,-833.2 269.61,-821.2 269.61,-821.2 269.61,-815.2 275.61,-809.2 281.61,-809.2 281.61,-809.2 480.39,-809.2 480.39,-809.2 486.39,-809.2 492.39,-815.2 492.39,-821.2 492.39,-821.2 492.39,-833.2 492.39,-833.2 492.39,-839.2 486.39,-845.2 480.39,-845.2"/>
<text xml:space="preserve" text-anchor="middle" x="381" y="-824.2" font-family="Helvetica,sans-Serif" font-size="10.00">uniform_convergence_of_empirical_processes</text>
</a>
</g>
</g>
<!-- n29&#45;&gt;n0 -->
<g id="edge64" class="edge">
<title>n29&#45;&gt;n0</title>
<path fill="none" stroke="#64748b" d="M365.76,-807.81C358.63,-799.2 350.06,-788.85 342.46,-779.69"/>
<polygon fill="#64748b" stroke="#64748b" points="344.46,-778.26 338.11,-774.43 340.69,-781.39 344.46,-778.26"/>
</g>
<!-- n29&#45;&gt;n28 -->
<g id="edge65" class="edge">
<title>n29&#45;&gt;n28</title>
<path fill="none" stroke="#64748b" d="M396.24,-807.81C403.37,-799.2 411.94,-788.85 419.54,-779.69"/>
<polygon fill="#64748b" stroke="#64748b" points="421.31,-781.39 423.89,-774.43 417.54,-778.26 421.31,-781.39"/>
</g>
</g>
</svg>
