<?xml version="1.0" encoding="UTF-8" standalone="no"?>
<!DOCTYPE svg PUBLIC "-//W3C//DTD SVG 1.1//EN"
 "http://www.w3.org/Graphics/SVG/1.1/DTD/svg11.dtd">
<!-- Generated by graphviz version 15.0.0 (20260523.1842)
 -->
<!-- Title: uniform_convergence_of_Gn Pages: 1 -->
<svg width="385pt" height="626pt"
 viewBox="0.00 0.00 385.00 626.00" xmlns="http://www.w3.org/2000/svg" xmlns:xlink="http://www.w3.org/1999/xlink">
<g id="graph0" class="graph" transform="scale(1 1) rotate(0) translate(4 622)">
<title>uniform_convergence_of_Gn</title>
<polygon fill="white" stroke="none" points="-4,4 -4,-622 381.07,-622 381.07,4 -4,4"/>
<text xml:space="preserve" text-anchor="middle" x="188.54" y="-601.4" font-family="Helvetica,sans-Serif" font-size="14.00">Proof narrative — uniform_convergence_of_Gn &#160;(13 decls)</text>
<g id="clust1" class="cluster">
<title>cluster_0</title>
<path fill="none" stroke="#cbd5e1" stroke-dasharray="5,2" d="M35.04,-8C35.04,-8 342.04,-8 342.04,-8 348.04,-8 354.04,-14 354.04,-20 354.04,-20 354.04,-573.2 354.04,-573.2 354.04,-579.2 348.04,-585.2 342.04,-585.2 342.04,-585.2 35.04,-585.2 35.04,-585.2 29.04,-585.2 23.04,-579.2 23.04,-573.2 23.04,-573.2 23.04,-20 23.04,-20 23.04,-14 29.04,-8 35.04,-8"/>
<text xml:space="preserve" text-anchor="middle" x="188.54" y="-571.3" font-family="Helvetica,sans-Serif" font-size="11.00">CoxChangePoint</text>
</g>
<!-- n0 -->
<g id="node1" class="node">
<title>n0</title>
<g id="a_node1"><a xlink:href="vscode://vscode-remote/wsl+Ubuntu/home/gavin/statlib/Statlib/CoxChangePoint/Auto/uniform_convergence_of_Gn.lean:37" xlink:title="structure · Statlib/CoxChangePoint/Auto/uniform_convergence_of_Gn.lean:37" target="_blank">
<path fill="#e8dcff" stroke="#8b5cf6" d="M92.66,-340C92.66,-340 43.41,-340 43.41,-340 37.41,-340 31.41,-334 31.41,-328 31.41,-328 31.41,-316 31.41,-316 31.41,-310 37.41,-304 43.41,-304 43.41,-304 92.66,-304 92.66,-304 98.66,-304 104.66,-310 104.66,-316 104.66,-316 104.66,-328 104.66,-328 104.66,-334 98.66,-340 92.66,-340"/>
<text xml:space="preserve" text-anchor="middle" x="68.04" y="-319" font-family="Helvetica,sans-Serif" font-size="10.00">Assumptions</text>
</a>
</g>
</g>
<!-- n1 -->
<g id="node2" class="node">
<title>n1</title>
<g id="a_node2"><a xlink:href="vscode://vscode-remote/wsl+Ubuntu/home/gavin/statlib/Statlib/CoxChangePoint/Foundation.lean:38" xlink:title="structure · Statlib/CoxChangePoint/Foundation.lean:38" target="_blank">
<path fill="#e8dcff" stroke="#8b5cf6" d="M271.04,-52C271.04,-52 241.04,-52 241.04,-52 235.04,-52 229.04,-46 229.04,-40 229.04,-40 229.04,-28 229.04,-28 229.04,-22 235.04,-16 241.04,-16 241.04,-16 271.04,-16 271.04,-16 277.04,-16 283.04,-22 283.04,-28 283.04,-28 283.04,-40 283.04,-40 283.04,-46 277.04,-52 271.04,-52"/>
<text xml:space="preserve" text-anchor="middle" x="256.04" y="-31" font-family="Helvetica,sans-Serif" font-size="10.00">CoxObs</text>
</a>
</g>
</g>
<!-- n2 -->
<g id="node3" class="node">
<title>n2</title>
<g id="a_node3"><a xlink:href="vscode://vscode-remote/wsl+Ubuntu/home/gavin/statlib/Statlib/CoxChangePoint/Foundation.lean:57" xlink:title="structure · Statlib/CoxChangePoint/Foundation.lean:57" target="_blank">
<path fill="#e8dcff" stroke="#8b5cf6" d="M120.66,-52C120.66,-52 81.42,-52 81.42,-52 75.42,-52 69.42,-46 69.42,-40 69.42,-40 69.42,-28 69.42,-28 69.42,-22 75.42,-16 81.42,-16 81.42,-16 120.66,-16 120.66,-16 126.66,-16 132.66,-22 132.66,-28 132.66,-28 132.66,-40 132.66,-40 132.66,-46 126.66,-52 120.66,-52"/>
<text xml:space="preserve" text-anchor="middle" x="101.04" y="-31" font-family="Helvetica,sans-Serif" font-size="10.00">CoxParam</text>
</a>
</g>
</g>
<!-- n3 -->
<g id="node4" class="node">
<title>n3</title>
<g id="a_node4"><a xlink:href="vscode://vscode-remote/wsl+Ubuntu/home/gavin/statlib/Statlib/CoxChangePoint/Foundation.lean:68" xlink:title="noncomputable def · Statlib/CoxChangePoint/Foundation.lean:68" target="_blank">
<path fill="#d6e9ff" stroke="#3b82f6" d="M162.04,-124C162.04,-124 132.04,-124 132.04,-124 126.04,-124 120.04,-118 120.04,-112 120.04,-112 120.04,-100 120.04,-100 120.04,-94 126.04,-88 132.04,-88 132.04,-88 162.04,-88 162.04,-88 168.04,-88 174.04,-94 174.04,-100 174.04,-100 174.04,-112 174.04,-112 174.04,-118 168.04,-124 162.04,-124"/>
<text xml:space="preserve" text-anchor="middle" x="147.04" y="-103" font-family="Helvetica,sans-Serif" font-size="10.00">g</text>
</a>
</g>
</g>
<!-- n3&#45;&gt;n1 -->
<g id="edge2" class="edge">
<title>n3&#45;&gt;n1</title>
<path fill="none" stroke="#64748b" d="M174.26,-87.52C188.81,-78.18 206.84,-66.59 222.28,-56.68"/>
<polygon fill="#64748b" stroke="#64748b" points="223.32,-58.92 227.89,-53.08 220.67,-54.8 223.32,-58.92"/>
</g>
<!-- n3&#45;&gt;n2 -->
<g id="edge1" class="edge">
<title>n3&#45;&gt;n2</title>
<path fill="none" stroke="#64748b" d="M135.67,-87.7C129.98,-79.05 123.02,-68.45 116.83,-59.03"/>
<polygon fill="#64748b" stroke="#64748b" points="119,-57.87 113.11,-53.37 114.91,-60.56 119,-57.87"/>
</g>
<!-- n4 -->
<g id="node5" class="node">
<title>n4</title>
<g id="a_node5"><a xlink:href="vscode://vscode-remote/wsl+Ubuntu/home/gavin/statlib/Statlib/CoxChangePoint/Foundation.lean:89" xlink:title="noncomputable def · Statlib/CoxChangePoint/Foundation.lean:89" target="_blank">
<path fill="#d6e9ff" stroke="#3b82f6" d="M294.04,-124C294.04,-124 264.04,-124 264.04,-124 258.04,-124 252.04,-118 252.04,-112 252.04,-112 252.04,-100 252.04,-100 252.04,-94 258.04,-88 264.04,-88 264.04,-88 294.04,-88 294.04,-88 300.04,-88 306.04,-94 306.04,-100 306.04,-100 306.04,-112 306.04,-112 306.04,-118 300.04,-124 294.04,-124"/>
<text xml:space="preserve" text-anchor="middle" x="279.04" y="-103" font-family="Helvetica,sans-Serif" font-size="10.00">atRisk</text>
</a>
</g>
</g>
<!-- n4&#45;&gt;n1 -->
<g id="edge3" class="edge">
<title>n4&#45;&gt;n1</title>
<path fill="none" stroke="#64748b" d="M273.35,-87.7C270.62,-79.39 267.3,-69.28 264.3,-60.14"/>
<polygon fill="#64748b" stroke="#64748b" points="266.64,-59.43 262.13,-53.54 261.99,-60.96 266.64,-59.43"/>
</g>
<!-- n5 -->
<g id="node6" class="node">
<title>n5</title>
<g id="a_node6"><a xlink:href="vscode://vscode-remote/wsl+Ubuntu/home/gavin/statlib/Statlib/CoxChangePoint/Foundation.lean:75" xlink:title="noncomputable def · Statlib/CoxChangePoint/Foundation.lean:75" target="_blank">
<path fill="#d6e9ff" stroke="#3b82f6" d="M202.04,-196C202.04,-196 172.04,-196 172.04,-196 166.04,-196 160.04,-190 160.04,-184 160.04,-184 160.04,-172 160.04,-172 160.04,-166 166.04,-160 172.04,-160 172.04,-160 202.04,-160 202.04,-160 208.04,-160 214.04,-166 214.04,-172 214.04,-172 214.04,-184 214.04,-184 214.04,-190 208.04,-196 202.04,-196"/>
<text xml:space="preserve" text-anchor="middle" x="187.04" y="-175" font-family="Helvetica,sans-Serif" font-size="10.00">expG</text>
</a>
</g>
</g>
<!-- n5&#45;&gt;n1 -->
<g id="edge5" class="edge">
<title>n5&#45;&gt;n1</title>
<path fill="none" stroke="#64748b" d="M194.62,-159.81C202.65,-141.79 215.83,-112.71 228.04,-88 232.67,-78.62 237.99,-68.43 242.73,-59.52"/>
<polygon fill="#64748b" stroke="#64748b" points="244.86,-60.73 246.01,-53.4 240.54,-58.41 244.86,-60.73"/>
</g>
<!-- n5&#45;&gt;n2 -->
<g id="edge4" class="edge">
<title>n5&#45;&gt;n2</title>
<path fill="none" stroke="#64748b" d="M190.7,-159.65C193.73,-140.71 195.74,-110.14 183.04,-88 173.53,-71.43 156.49,-59.17 140.4,-50.65"/>
<polygon fill="#64748b" stroke="#64748b" points="141.81,-48.61 134.46,-47.67 139.62,-52.99 141.81,-48.61"/>
</g>
<!-- n5&#45;&gt;n3 -->
<g id="edge6" class="edge">
<title>n5&#45;&gt;n3</title>
<path fill="none" stroke="#64748b" d="M177.15,-159.7C172.26,-151.14 166.27,-140.66 160.93,-131.3"/>
<polygon fill="#64748b" stroke="#64748b" points="163.16,-130.28 157.56,-125.42 158.91,-132.71 163.16,-130.28"/>
</g>
<!-- n6 -->
<g id="node7" class="node">
<title>n6</title>
<g id="a_node7"><a xlink:href="vscode://vscode-remote/wsl+Ubuntu/home/gavin/statlib/Statlib/CoxChangePoint/Foundation.lean:93" xlink:title="noncomputable def · Statlib/CoxChangePoint/Foundation.lean:93" target="_blank">
<path fill="#d6e9ff" stroke="#3b82f6" d="M248.04,-268C248.04,-268 218.04,-268 218.04,-268 212.04,-268 206.04,-262 206.04,-256 206.04,-256 206.04,-244 206.04,-244 206.04,-238 212.04,-232 218.04,-232 218.04,-232 248.04,-232 248.04,-232 254.04,-232 260.04,-238 260.04,-244 260.04,-244 260.04,-256 260.04,-256 260.04,-262 254.04,-268 248.04,-268"/>
<text xml:space="preserve" text-anchor="middle" x="233.04" y="-247" font-family="Helvetica,sans-Serif" font-size="10.00">riskSum</text>
</a>
</g>
</g>
<!-- n6&#45;&gt;n1 -->
<g id="edge7" class="edge">
<title>n6&#45;&gt;n1</title>
<path fill="none" stroke="#64748b" d="M233.1,-231.97C233.43,-202.48 235.1,-140.05 243.04,-88 244.44,-78.77 246.69,-68.8 248.93,-60.02"/>
<polygon fill="#64748b" stroke="#64748b" points="251.23,-60.89 250.65,-53.49 246.5,-59.64 251.23,-60.89"/>
</g>
<!-- n6&#45;&gt;n2 -->
<g id="edge8" class="edge">
<title>n6&#45;&gt;n2</title>
<path fill="none" stroke="#64748b" d="M205.87,-235.87C188.62,-226.54 166.67,-212.71 151.04,-196 126.03,-169.27 122.19,-158.87 111.04,-124 104.44,-103.38 102.06,-78.87 101.27,-60.79"/>
<polygon fill="#64748b" stroke="#64748b" points="103.72,-60.91 101.04,-53.99 98.82,-61.07 103.72,-60.91"/>
</g>
<!-- n6&#45;&gt;n4 -->
<g id="edge9" class="edge">
<title>n6&#45;&gt;n4</title>
<path fill="none" stroke="#64748b" d="M238.68,-231.59C246.76,-206.65 261.67,-160.62 270.93,-132.03"/>
<polygon fill="#64748b" stroke="#64748b" points="273.2,-132.97 273.03,-125.55 268.54,-131.45 273.2,-132.97"/>
</g>
<!-- n6&#45;&gt;n5 -->
<g id="edge10" class="edge">
<title>n6&#45;&gt;n5</title>
<path fill="none" stroke="#64748b" d="M221.67,-231.7C215.98,-223.05 209.02,-212.45 202.83,-203.03"/>
<polygon fill="#64748b" stroke="#64748b" points="205,-201.87 199.11,-197.37 200.91,-204.56 205,-201.87"/>
</g>
<!-- n7 -->
<g id="node8" class="node">
<title>n7</title>
<g id="a_node8"><a xlink:href="vscode://vscode-remote/wsl+Ubuntu/home/gavin/statlib/Statlib/CoxChangePoint/Foundation.lean:104" xlink:title="noncomputable def · Statlib/CoxChangePoint/Foundation.lean:104" target="_blank">
<path fill="#d6e9ff" stroke="#3b82f6" d="M314.4,-340C314.4,-340 235.68,-340 235.68,-340 229.68,-340 223.68,-334 223.68,-328 223.68,-328 223.68,-316 223.68,-316 223.68,-310 229.68,-304 235.68,-304 235.68,-304 314.4,-304 314.4,-304 320.4,-304 326.4,-310 326.4,-316 326.4,-316 326.4,-328 326.4,-328 326.4,-334 320.4,-340 314.4,-340"/>
<text xml:space="preserve" text-anchor="middle" x="275.04" y="-319" font-family="Helvetica,sans-Serif" font-size="10.00">logPartialLikelihood</text>
</a>
</g>
</g>
<!-- n7&#45;&gt;n1 -->
<g id="edge11" class="edge">
<title>n7&#45;&gt;n1</title>
<path fill="none" stroke="#64748b" d="M284.44,-303.79C304.82,-264.01 348.64,-163.35 315.04,-88 309.66,-75.93 300.02,-65.46 290.07,-57.09"/>
<polygon fill="#64748b" stroke="#64748b" points="291.72,-55.27 284.71,-52.84 288.67,-59.11 291.72,-55.27"/>
</g>
<!-- n7&#45;&gt;n2 -->
<g id="edge12" class="edge">
<title>n7&#45;&gt;n2</title>
<path fill="none" stroke="#64748b" d="M223.43,-305.47C202.57,-297.1 179.57,-284.93 163.04,-268 114.11,-217.89 113.58,-192.51 99.04,-124 94.57,-102.95 95.55,-78.48 97.38,-60.52"/>
<polygon fill="#64748b" stroke="#64748b" points="99.79,-61.02 98.15,-53.78 94.92,-60.46 99.79,-61.02"/>
</g>
<!-- n7&#45;&gt;n3 -->
<g id="edge13" class="edge">
<title>n7&#45;&gt;n3</title>
<path fill="none" stroke="#64748b" d="M243.6,-303.71C228.43,-294.4 210.62,-281.97 197.04,-268 170.57,-240.77 162.5,-232.2 151.04,-196 144.5,-175.35 143.92,-150.65 144.73,-132.51"/>
<polygon fill="#64748b" stroke="#64748b" points="147.17,-132.83 145.13,-125.7 142.27,-132.54 147.17,-132.83"/>
</g>
<!-- n7&#45;&gt;n6 -->
<g id="edge14" class="edge">
<title>n7&#45;&gt;n6</title>
<path fill="none" stroke="#64748b" d="M264.66,-303.7C259.52,-295.14 253.23,-284.66 247.62,-275.3"/>
<polygon fill="#64748b" stroke="#64748b" points="249.78,-274.14 244.08,-269.4 245.58,-276.67 249.78,-274.14"/>
</g>
<!-- n8 -->
<g id="node9" class="node">
<title>n8</title>
<g id="a_node9"><a xlink:href="vscode://vscode-remote/wsl+Ubuntu/home/gavin/statlib/Statlib/CoxChangePoint/Foundation.lean:112" xlink:title="noncomputable def · Statlib/CoxChangePoint/Foundation.lean:112" target="_blank">
<path fill="#d6e9ff" stroke="#3b82f6" d="M274.04,-412C274.04,-412 244.04,-412 244.04,-412 238.04,-412 232.04,-406 232.04,-400 232.04,-400 232.04,-388 232.04,-388 232.04,-382 238.04,-376 244.04,-376 244.04,-376 274.04,-376 274.04,-376 280.04,-376 286.04,-382 286.04,-388 286.04,-388 286.04,-400 286.04,-400 286.04,-406 280.04,-412 274.04,-412"/>
<text xml:space="preserve" text-anchor="middle" x="259.04" y="-391" font-family="Helvetica,sans-Serif" font-size="10.00">Gn</text>
</a>
</g>
</g>
<!-- n8&#45;&gt;n1 -->
<g id="edge15" class="edge">
<title>n8&#45;&gt;n1</title>
<path fill="none" stroke="#64748b" d="M286.48,-381.18C303.4,-372.38 323.93,-358.66 335.04,-340 355.39,-305.8 345.04,-290.8 345.04,-251 345.04,-251 345.04,-251 345.04,-177 345.04,-136.46 346.86,-122.17 325.04,-88 316.39,-74.47 303.03,-63.03 290.35,-54.29"/>
<polygon fill="#64748b" stroke="#64748b" points="291.87,-52.36 284.68,-50.55 289.18,-56.45 291.87,-52.36"/>
</g>
<!-- n8&#45;&gt;n2 -->
<g id="edge16" class="edge">
<title>n8&#45;&gt;n2</title>
<path fill="none" stroke="#64748b" d="M243.1,-375.5C234.34,-365.47 223.55,-352.44 215.04,-340 204.7,-324.89 207.99,-316.93 195.04,-304 171.67,-280.66 151.61,-293 130.04,-268 76.62,-206.09 85.17,-169.47 92.04,-88 92.8,-78.93 94.29,-69.08 95.84,-60.36"/>
<polygon fill="#64748b" stroke="#64748b" points="98.23,-60.91 97.11,-53.58 93.41,-60.01 98.23,-60.91"/>
</g>
<!-- n8&#45;&gt;n7 -->
<g id="edge17" class="edge">
<title>n8&#45;&gt;n7</title>
<path fill="none" stroke="#64748b" d="M262.99,-375.7C264.89,-367.39 267.2,-357.28 269.29,-348.14"/>
<polygon fill="#64748b" stroke="#64748b" points="271.62,-348.95 270.79,-341.58 266.84,-347.86 271.62,-348.95"/>
</g>
<!-- n9 -->
<g id="node10" class="node">
<title>n9</title>
<g id="a_node10"><a xlink:href="vscode://vscode-remote/wsl+Ubuntu/home/gavin/statlib/Statlib/CoxChangePoint/Auto/uniform_convergence_of_Gn.lean:29" xlink:title="structure · Statlib/CoxChangePoint/Auto/uniform_convergence_of_Gn.lean:29" target="_blank">
<path fill="#e8dcff" stroke="#8b5cf6" d="M173.66,-340C173.66,-340 134.42,-340 134.42,-340 128.42,-340 122.42,-334 122.42,-328 122.42,-328 122.42,-316 122.42,-316 122.42,-310 128.42,-304 134.42,-304 134.42,-304 173.66,-304 173.66,-304 179.66,-304 185.66,-310 185.66,-316 185.66,-316 185.66,-328 185.66,-328 185.66,-334 179.66,-340 173.66,-340"/>
<text xml:space="preserve" text-anchor="middle" x="154.04" y="-319" font-family="Helvetica,sans-Serif" font-size="10.00">CoxParam</text>
</a>
</g>
</g>
<!-- n10 -->
<g id="node11" class="node">
<title>n10</title>
<g id="a_node11"><a xlink:href="vscode://vscode-remote/wsl+Ubuntu/home/gavin/statlib/Statlib/CoxChangePoint/Auto/uniform_convergence_of_Gn.lean:70" xlink:title="def · Statlib/CoxChangePoint/Auto/uniform_convergence_of_Gn.lean:70" target="_blank">
<path fill="#d6e9ff" stroke="#3b82f6" d="M157.39,-412C157.39,-412 108.69,-412 108.69,-412 102.69,-412 96.69,-406 96.69,-400 96.69,-400 96.69,-388 96.69,-388 96.69,-382 102.69,-376 108.69,-376 108.69,-376 157.39,-376 157.39,-376 163.39,-376 169.39,-382 169.39,-388 169.39,-388 169.39,-400 169.39,-400 169.39,-406 163.39,-412 157.39,-412"/>
<text xml:space="preserve" text-anchor="middle" x="133.04" y="-391" font-family="Helvetica,sans-Serif" font-size="10.00">paramSpace</text>
</a>
</g>
</g>
<!-- n10&#45;&gt;n0 -->
<g id="edge18" class="edge">
<title>n10&#45;&gt;n0</title>
<path fill="none" stroke="#64748b" d="M116.97,-375.7C108.7,-366.8 98.52,-355.82 89.58,-346.2"/>
<polygon fill="#64748b" stroke="#64748b" points="91.51,-344.68 84.95,-341.21 87.92,-348.01 91.51,-344.68"/>
</g>
<!-- n10&#45;&gt;n9 -->
<g id="edge19" class="edge">
<title>n10&#45;&gt;n9</title>
<path fill="none" stroke="#64748b" d="M138.23,-375.7C140.72,-367.39 143.75,-357.28 146.49,-348.14"/>
<polygon fill="#64748b" stroke="#64748b" points="148.81,-348.96 148.47,-341.55 144.11,-347.55 148.81,-348.96"/>
</g>
<!-- n11 -->
<g id="node12" class="node">
<title>n11</title>
<g id="a_node12"><a xlink:href="vscode://vscode-remote/wsl+Ubuntu/home/gavin/statlib/Statlib/CoxChangePoint/Auto/uniform_convergence_of_Gn.lean:84" xlink:title="structure · Statlib/CoxChangePoint/Auto/uniform_convergence_of_Gn.lean:84" target="_blank">
<path fill="#e8dcff" stroke="#8b5cf6" d="M162.39,-484C162.39,-484 103.69,-484 103.69,-484 97.69,-484 91.69,-478 91.69,-472 91.69,-472 91.69,-460 91.69,-460 91.69,-454 97.69,-448 103.69,-448 103.69,-448 162.39,-448 162.39,-448 168.39,-448 174.39,-454 174.39,-460 174.39,-460 174.39,-472 174.39,-472 174.39,-478 168.39,-484 162.39,-484"/>
<text xml:space="preserve" text-anchor="middle" x="133.04" y="-463" font-family="Helvetica,sans-Serif" font-size="10.00">LemmaS1Data</text>
</a>
</g>
</g>
<!-- n11&#45;&gt;n0 -->
<g id="edge20" class="edge">
<title>n11&#45;&gt;n0</title>
<path fill="none" stroke="#64748b" d="M114.81,-447.94C105.48,-438.25 94.72,-425.4 88.04,-412 78.03,-391.93 72.98,-366.84 70.46,-348.42"/>
<polygon fill="#64748b" stroke="#64748b" points="72.92,-348.36 69.63,-341.72 68.06,-348.97 72.92,-348.36"/>
</g>
<!-- n11&#45;&gt;n8 -->
<g id="edge21" class="edge">
<title>n11&#45;&gt;n8</title>
<path fill="none" stroke="#64748b" d="M164.51,-447.52C182.78,-437.36 205.83,-424.56 224.59,-414.14"/>
<polygon fill="#64748b" stroke="#64748b" points="225.56,-416.4 230.49,-410.86 223.18,-412.12 225.56,-416.4"/>
</g>
<!-- n11&#45;&gt;n9 -->
<g id="edge22" class="edge">
<title>n11&#45;&gt;n9</title>
<path fill="none" stroke="#64748b" d="M153.42,-447.53C162.84,-438.09 173.04,-425.6 178.04,-412 185.86,-390.71 177.66,-365.71 168.78,-347.63"/>
<polygon fill="#64748b" stroke="#64748b" points="171.09,-346.76 165.68,-341.69 166.75,-349.03 171.09,-346.76"/>
</g>
<!-- n11&#45;&gt;n10 -->
<g id="edge23" class="edge">
<title>n11&#45;&gt;n10</title>
<path fill="none" stroke="#64748b" d="M133.04,-447.7C133.04,-439.47 133.04,-429.48 133.04,-420.42"/>
<polygon fill="#64748b" stroke="#64748b" points="135.49,-420.62 133.04,-413.62 130.59,-420.62 135.49,-420.62"/>
</g>
<!-- n12 -->
<g id="node13" class="node">
<title>n12</title>
<g id="a_node13"><a xlink:href="vscode://vscode-remote/wsl+Ubuntu/home/gavin/statlib/Statlib/CoxChangePoint/Auto/uniform_convergence_of_Gn.lean:106" xlink:title="theorem · Statlib/CoxChangePoint/Auto/uniform_convergence_of_Gn.lean:106" target="_blank">
<path fill="#ffe6a3" stroke="#d4a017" stroke-width="3" d="M183.52,-556C183.52,-556 62.55,-556 62.55,-556 56.55,-556 50.55,-550 50.55,-544 50.55,-544 50.55,-532 50.55,-532 50.55,-526 56.55,-520 62.55,-520 62.55,-520 183.52,-520 183.52,-520 189.52,-520 195.52,-526 195.52,-532 195.52,-532 195.52,-544 195.52,-544 195.52,-550 189.52,-556 183.52,-556"/>
<text xml:space="preserve" text-anchor="middle" x="123.04" y="-535" font-family="Helvetica,sans-Serif" font-size="10.00">uniform_convergence_of_Gn</text>
</a>
</g>
</g>
<!-- n12&#45;&gt;n0 -->
<g id="edge24" class="edge">
<title>n12&#45;&gt;n0</title>
<path fill="none" stroke="#64748b" d="M105.72,-518.81C97.54,-509.19 88.41,-496.75 83.04,-484 64.11,-439.12 63.95,-381.13 65.81,-348.4"/>
<polygon fill="#64748b" stroke="#64748b" points="68.23,-348.92 66.25,-341.78 63.34,-348.6 68.23,-348.92"/>
</g>
<!-- n12&#45;&gt;n11 -->
<g id="edge25" class="edge">
<title>n12&#45;&gt;n11</title>
<path fill="none" stroke="#64748b" d="M125.66,-518.61C126.81,-510.59 128.17,-501.05 129.41,-492.37"/>
<polygon fill="#64748b" stroke="#64748b" points="131.82,-492.84 130.38,-485.57 126.97,-492.15 131.82,-492.84"/>
</g>
</g>
</svg>
