<?xml version="1.0" encoding="UTF-8" standalone="no"?>
<!DOCTYPE svg PUBLIC "-//W3C//DTD SVG 1.1//EN"
 "http://www.w3.org/Graphics/SVG/1.1/DTD/svg11.dtd">
<!-- Generated by graphviz version 15.0.0 (20260523.1842)
 -->
<!-- Title: central_limit_theorem Pages: 1 -->
<svg width="1544pt" height="554pt"
 viewBox="0.00 0.00 1544.00 554.00" xmlns="http://www.w3.org/2000/svg" xmlns:xlink="http://www.w3.org/1999/xlink">
<g id="graph0" class="graph" transform="scale(1 1) rotate(0) translate(4 550)">
<title>central_limit_theorem</title>
<polygon fill="white" stroke="none" points="-4,4 -4,-550 1540,-550 1540,4 -4,4"/>
<text xml:space="preserve" text-anchor="middle" x="768" y="-529.4" font-family="Helvetica,sans-Serif" font-size="14.00">Proof narrative — central_limit_theorem &#160;(25 decls)</text>
<g id="clust1" class="cluster">
<title>cluster_0</title>
<path fill="none" stroke="#cbd5e1" stroke-dasharray="5,2" d="M20,-8C20,-8 1516,-8 1516,-8 1522,-8 1528,-14 1528,-20 1528,-20 1528,-501.2 1528,-501.2 1528,-507.2 1522,-513.2 1516,-513.2 1516,-513.2 20,-513.2 20,-513.2 14,-513.2 8,-507.2 8,-501.2 8,-501.2 8,-20 8,-20 8,-14 14,-8 20,-8"/>
<text xml:space="preserve" text-anchor="middle" x="768" y="-499.3" font-family="Helvetica,sans-Serif" font-size="11.00">StatFoundation</text>
</g>
<!-- n0 -->
<g id="node1" class="node">
<title>n0</title>
<g id="a_node1"><a xlink:href="https://github.com/statopia/statlib/blob/main/Statlib/StatFoundation/Convergence/CentralLimitTheorem/IID.lean#L21" xlink:title="abbrev · Statlib/StatFoundation/Convergence/CentralLimitTheorem/IID.lean:21" target="_blank">
<path fill="#d6e9ff" stroke="#3b82f6" d="M97.91,-268C97.91,-268 28.09,-268 28.09,-268 22.09,-268 16.09,-262 16.09,-256 16.09,-256 16.09,-244 16.09,-244 16.09,-238 22.09,-232 28.09,-232 28.09,-232 97.91,-232 97.91,-232 103.91,-232 109.91,-238 109.91,-244 109.91,-244 109.91,-256 109.91,-256 109.91,-262 103.91,-268 97.91,-268"/>
<text xml:space="preserve" text-anchor="middle" x="63" y="-247" font-family="Helvetica,sans-Serif" font-size="10.00">standardizedSum</text>
</a>
</g>
</g>
<!-- n1 -->
<g id="node2" class="node">
<title>n1</title>
<g id="a_node2"><a xlink:href="https://github.com/statopia/statlib/blob/main/Statlib/StatFoundation/Convergence/CentralLimitTheorem/IID.lean#L24" xlink:title="lemma · Statlib/StatFoundation/Convergence/CentralLimitTheorem/IID.lean:24" target="_blank">
<path fill="#eef2f6" stroke="#94a3b8" d="M221.82,-340C221.82,-340 94.18,-340 94.18,-340 88.18,-340 82.18,-334 82.18,-328 82.18,-328 82.18,-316 82.18,-316 82.18,-310 88.18,-304 94.18,-304 94.18,-304 221.82,-304 221.82,-304 227.82,-304 233.82,-310 233.82,-316 233.82,-316 233.82,-328 233.82,-328 233.82,-334 227.82,-340 221.82,-340"/>
<text xml:space="preserve" text-anchor="middle" x="158" y="-319" font-family="Helvetica,sans-Serif" font-size="10.00">measurable_standardizedSum</text>
</a>
</g>
</g>
<!-- n1&#45;&gt;n0 -->
<g id="edge1" class="edge">
<title>n1&#45;&gt;n0</title>
<path fill="none" stroke="#64748b" d="M134.52,-303.7C122.07,-294.53 106.64,-283.16 93.3,-273.33"/>
<polygon fill="#64748b" stroke="#64748b" points="94.85,-271.42 87.76,-269.24 91.94,-275.37 94.85,-271.42"/>
</g>
<!-- n2 -->
<g id="node3" class="node">
<title>n2</title>
<g id="a_node3"><a xlink:href="https://github.com/statopia/statlib/blob/main/Statlib/StatFoundation/Convergence/AnalysisTools/CharacteristicFunction.lean#L563" xlink:title="lemma · Statlib/StatFoundation/Convergence/AnalysisTools/CharacteristicFunction.lean:563" target="_blank">
<path fill="#eef2f6" stroke="#94a3b8" d="M238.36,-268C238.36,-268 139.64,-268 139.64,-268 133.64,-268 127.64,-262 127.64,-256 127.64,-256 127.64,-244 127.64,-244 127.64,-238 133.64,-232 139.64,-232 139.64,-232 238.36,-232 238.36,-232 244.36,-232 250.36,-238 250.36,-244 250.36,-244 250.36,-256 250.36,-256 250.36,-262 244.36,-268 238.36,-268"/>
<text xml:space="preserve" text-anchor="middle" x="189" y="-247" font-family="Helvetica,sans-Serif" font-size="10.00">lyapunov_third_moment</text>
</a>
</g>
</g>
<!-- n3 -->
<g id="node4" class="node">
<title>n3</title>
<g id="a_node4"><a xlink:href="https://github.com/statopia/statlib/blob/main/Statlib/StatFoundation/Convergence/AnalysisTools/CharacteristicFunction.lean#L282" xlink:title="lemma · Statlib/StatFoundation/Convergence/AnalysisTools/CharacteristicFunction.lean:282" target="_blank">
<path fill="#eef2f6" stroke="#94a3b8" d="M373.92,-196C373.92,-196 294.08,-196 294.08,-196 288.08,-196 282.08,-190 282.08,-184 282.08,-184 282.08,-172 282.08,-172 282.08,-166 288.08,-160 294.08,-160 294.08,-160 373.92,-160 373.92,-160 379.92,-160 385.92,-166 385.92,-172 385.92,-172 385.92,-184 385.92,-184 385.92,-190 379.92,-196 373.92,-196"/>
<text xml:space="preserve" text-anchor="middle" x="334" y="-175" font-family="Helvetica,sans-Serif" font-size="10.00">charfun_sum_indep</text>
</a>
</g>
</g>
<!-- n4 -->
<g id="node5" class="node">
<title>n4</title>
<g id="a_node5"><a xlink:href="https://github.com/statopia/statlib/blob/main/Statlib/StatFoundation/Convergence/AnalysisTools/CharacteristicFunction.lean#L323" xlink:title="lemma · Statlib/StatFoundation/Convergence/AnalysisTools/CharacteristicFunction.lean:323" target="_blank">
<path fill="#eef2f6" stroke="#94a3b8" d="M387.82,-268C387.82,-268 280.18,-268 280.18,-268 274.18,-268 268.18,-262 268.18,-256 268.18,-256 268.18,-244 268.18,-244 268.18,-238 274.18,-232 280.18,-232 280.18,-232 387.82,-232 387.82,-232 393.82,-232 399.82,-238 399.82,-244 399.82,-244 399.82,-256 399.82,-256 399.82,-262 393.82,-268 387.82,-268"/>
<text xml:space="preserve" text-anchor="middle" x="334" y="-247" font-family="Helvetica,sans-Serif" font-size="10.00">charfun_iid_sum_eq_prod</text>
</a>
</g>
</g>
<!-- n4&#45;&gt;n3 -->
<g id="edge2" class="edge">
<title>n4&#45;&gt;n3</title>
<path fill="none" stroke="#64748b" d="M334,-231.7C334,-223.47 334,-213.48 334,-204.42"/>
<polygon fill="#64748b" stroke="#64748b" points="336.45,-204.62 334,-197.62 331.55,-204.62 336.45,-204.62"/>
</g>
<!-- n5 -->
<g id="node6" class="node">
<title>n5</title>
<g id="a_node6"><a xlink:href="https://github.com/statopia/statlib/blob/main/Statlib/StatFoundation/Convergence/AnalysisTools/CharacteristicFunction.lean#L272" xlink:title="lemma · Statlib/StatFoundation/Convergence/AnalysisTools/CharacteristicFunction.lean:272" target="_blank">
<path fill="#eef2f6" stroke="#94a3b8" d="M568.66,-268C568.66,-268 429.34,-268 429.34,-268 423.34,-268 417.34,-262 417.34,-256 417.34,-256 417.34,-244 417.34,-244 417.34,-238 423.34,-232 429.34,-232 429.34,-232 568.66,-232 568.66,-232 574.66,-232 580.66,-238 580.66,-244 580.66,-244 580.66,-256 580.66,-256 580.66,-262 574.66,-268 568.66,-268"/>
<text xml:space="preserve" text-anchor="middle" x="499" y="-247" font-family="Helvetica,sans-Serif" font-size="10.00">charFun_gaussianReal_standard</text>
</a>
</g>
</g>
<!-- n6 -->
<g id="node7" class="node">
<title>n6</title>
<g id="a_node7"><a xlink:href="https://github.com/statopia/statlib/blob/main/Statlib/StatFoundation/Convergence/AnalysisTools/CharacteristicFunction.lean#L16" xlink:title="lemma · Statlib/StatFoundation/Convergence/AnalysisTools/CharacteristicFunction.lean:16" target="_blank">
<path fill="#eef2f6" stroke="#94a3b8" d="M529.63,-52C529.63,-52 450.37,-52 450.37,-52 444.37,-52 438.37,-46 438.37,-40 438.37,-40 438.37,-28 438.37,-28 438.37,-22 444.37,-16 450.37,-16 450.37,-16 529.63,-16 529.63,-16 535.63,-16 541.63,-22 541.63,-28 541.63,-28 541.63,-40 541.63,-40 541.63,-46 535.63,-52 529.63,-52"/>
<text xml:space="preserve" text-anchor="middle" x="490" y="-31" font-family="Helvetica,sans-Serif" font-size="10.00">norm_ofReal_mul_I</text>
</a>
</g>
</g>
<!-- n7 -->
<g id="node8" class="node">
<title>n7</title>
<g id="a_node8"><a xlink:href="https://github.com/statopia/statlib/blob/main/Statlib/StatFoundation/Convergence/AnalysisTools/CharacteristicFunction.lean#L22" xlink:title="lemma · Statlib/StatFoundation/Convergence/AnalysisTools/CharacteristicFunction.lean:22" target="_blank">
<path fill="#eef2f6" stroke="#94a3b8" d="M551.6,-124C551.6,-124 428.4,-124 428.4,-124 422.4,-124 416.4,-118 416.4,-112 416.4,-112 416.4,-100 416.4,-100 416.4,-94 422.4,-88 428.4,-88 428.4,-88 551.6,-88 551.6,-88 557.6,-88 563.6,-94 563.6,-100 563.6,-100 563.6,-112 563.6,-112 563.6,-118 557.6,-124 551.6,-124"/>
<text xml:space="preserve" text-anchor="middle" x="490" y="-103" font-family="Helvetica,sans-Serif" font-size="10.00">norm_cexp_sub_quadratic_le</text>
</a>
</g>
</g>
<!-- n7&#45;&gt;n6 -->
<g id="edge3" class="edge">
<title>n7&#45;&gt;n6</title>
<path fill="none" stroke="#64748b" d="M490,-87.7C490,-79.47 490,-69.48 490,-60.42"/>
<polygon fill="#64748b" stroke="#64748b" points="492.45,-60.62 490,-53.62 487.55,-60.62 492.45,-60.62"/>
</g>
<!-- n8 -->
<g id="node9" class="node">
<title>n8</title>
<g id="a_node9"><a xlink:href="https://github.com/statopia/statlib/blob/main/Statlib/StatFoundation/Convergence/AnalysisTools/CharacteristicFunction.lean#L86" xlink:title="lemma · Statlib/StatFoundation/Convergence/AnalysisTools/CharacteristicFunction.lean:86" target="_blank">
<path fill="#eef2f6" stroke="#94a3b8" d="M551.03,-196C551.03,-196 428.97,-196 428.97,-196 422.97,-196 416.97,-190 416.97,-184 416.97,-184 416.97,-172 416.97,-172 416.97,-166 422.97,-160 428.97,-160 428.97,-160 551.03,-160 551.03,-160 557.03,-160 563.03,-166 563.03,-172 563.03,-172 563.03,-184 563.03,-184 563.03,-190 557.03,-196 551.03,-196"/>
<text xml:space="preserve" text-anchor="middle" x="490" y="-175" font-family="Helvetica,sans-Serif" font-size="10.00">charfun_taylor_third_moment</text>
</a>
</g>
</g>
<!-- n8&#45;&gt;n7 -->
<g id="edge4" class="edge">
<title>n8&#45;&gt;n7</title>
<path fill="none" stroke="#64748b" d="M490,-159.7C490,-151.47 490,-141.48 490,-132.42"/>
<polygon fill="#64748b" stroke="#64748b" points="492.45,-132.62 490,-125.62 487.55,-132.62 492.45,-132.62"/>
</g>
<!-- n9 -->
<g id="node10" class="node">
<title>n9</title>
<g id="a_node10"><a xlink:href="https://github.com/statopia/statlib/blob/main/Statlib/StatFoundation/Convergence/AnalysisTools/CharacteristicFunction.lean#L187" xlink:title="lemma · Statlib/StatFoundation/Convergence/AnalysisTools/CharacteristicFunction.lean:187" target="_blank">
<path fill="#eef2f6" stroke="#94a3b8" d="M718.71,-196C718.71,-196 593.29,-196 593.29,-196 587.29,-196 581.29,-190 581.29,-184 581.29,-184 581.29,-172 581.29,-172 581.29,-166 587.29,-160 593.29,-160 593.29,-160 718.71,-160 718.71,-160 724.71,-160 730.71,-166 730.71,-172 730.71,-172 730.71,-184 730.71,-184 730.71,-190 724.71,-196 718.71,-196"/>
<text xml:space="preserve" text-anchor="middle" x="656" y="-175" font-family="Helvetica,sans-Serif" font-size="10.00">norm_prod_sub_prod_le_sum</text>
</a>
</g>
</g>
<!-- n10 -->
<g id="node11" class="node">
<title>n10</title>
<g id="a_node11"><a xlink:href="https://github.com/statopia/statlib/blob/main/Statlib/StatFoundation/Convergence/AnalysisTools/CharacteristicFunction.lean#L419" xlink:title="lemma · Statlib/StatFoundation/Convergence/AnalysisTools/CharacteristicFunction.lean:419" target="_blank">
<path fill="#eef2f6" stroke="#94a3b8" d="M734.88,-268C734.88,-268 611.12,-268 611.12,-268 605.12,-268 599.12,-262 599.12,-256 599.12,-256 599.12,-244 599.12,-244 599.12,-238 605.12,-232 611.12,-232 611.12,-232 734.88,-232 734.88,-232 740.88,-232 746.88,-238 746.88,-244 746.88,-244 746.88,-256 746.88,-256 746.88,-262 740.88,-268 734.88,-268"/>
<text xml:space="preserve" text-anchor="middle" x="673" y="-247" font-family="Helvetica,sans-Serif" font-size="10.00">charfun_prod_vs_pow_bound</text>
</a>
</g>
</g>
<!-- n10&#45;&gt;n8 -->
<g id="edge5" class="edge">
<title>n10&#45;&gt;n8</title>
<path fill="none" stroke="#64748b" d="M627.29,-231.52C601.76,-221.75 569.82,-209.53 543.17,-199.34"/>
<polygon fill="#64748b" stroke="#64748b" points="544.27,-197.14 536.85,-196.92 542.52,-201.71 544.27,-197.14"/>
</g>
<!-- n10&#45;&gt;n9 -->
<g id="edge6" class="edge">
<title>n10&#45;&gt;n9</title>
<path fill="none" stroke="#64748b" d="M668.8,-231.7C666.78,-223.39 664.32,-213.28 662.11,-204.14"/>
<polygon fill="#64748b" stroke="#64748b" points="664.54,-203.8 660.51,-197.58 659.78,-204.96 664.54,-203.8"/>
</g>
<!-- n11 -->
<g id="node12" class="node">
<title>n11</title>
<g id="a_node12"><a xlink:href="https://github.com/statopia/statlib/blob/main/Statlib/StatFoundation/Convergence/AnalysisTools/CharacteristicFunction.lean#L350" xlink:title="lemma · Statlib/StatFoundation/Convergence/AnalysisTools/CharacteristicFunction.lean:350" target="_blank">
<path fill="#eef2f6" stroke="#94a3b8" d="M903.61,-196C903.61,-196 760.39,-196 760.39,-196 754.39,-196 748.39,-190 748.39,-184 748.39,-184 748.39,-172 748.39,-172 748.39,-166 754.39,-160 760.39,-160 760.39,-160 903.61,-160 903.61,-160 909.61,-160 915.61,-166 915.61,-172 915.61,-172 915.61,-184 915.61,-184 915.61,-190 909.61,-196 903.61,-196"/>
<text xml:space="preserve" text-anchor="middle" x="832" y="-175" font-family="Helvetica,sans-Serif" font-size="10.00">complex_pow_approx_exp_decay</text>
</a>
</g>
</g>
<!-- n12 -->
<g id="node13" class="node">
<title>n12</title>
<g id="a_node13"><a xlink:href="https://github.com/statopia/statlib/blob/main/Statlib/StatFoundation/Convergence/AnalysisTools/CharacteristicFunction.lean#L401" xlink:title="lemma · Statlib/StatFoundation/Convergence/AnalysisTools/CharacteristicFunction.lean:401" target="_blank">
<path fill="#eef2f6" stroke="#94a3b8" d="M887.48,-268C887.48,-268 776.52,-268 776.52,-268 770.52,-268 764.52,-262 764.52,-256 764.52,-256 764.52,-244 764.52,-244 764.52,-238 770.52,-232 776.52,-232 776.52,-232 887.48,-232 887.48,-232 893.48,-232 899.48,-238 899.48,-244 899.48,-244 899.48,-256 899.48,-256 899.48,-262 893.48,-268 887.48,-268"/>
<text xml:space="preserve" text-anchor="middle" x="832" y="-247" font-family="Helvetica,sans-Serif" font-size="10.00">complex_pow_approx_exp</text>
</a>
</g>
</g>
<!-- n12&#45;&gt;n11 -->
<g id="edge7" class="edge">
<title>n12&#45;&gt;n11</title>
<path fill="none" stroke="#64748b" d="M832,-231.7C832,-223.47 832,-213.48 832,-204.42"/>
<polygon fill="#64748b" stroke="#64748b" points="834.45,-204.62 832,-197.62 829.55,-204.62 834.45,-204.62"/>
</g>
<!-- n13 -->
<g id="node14" class="node">
<title>n13</title>
<g id="a_node14"><a xlink:href="https://github.com/statopia/statlib/blob/main/Statlib/StatFoundation/Convergence/AnalysisTools/CharacteristicFunction.lean#L486" xlink:title="lemma · Statlib/StatFoundation/Convergence/AnalysisTools/CharacteristicFunction.lean:486" target="_blank">
<path fill="#eef2f6" stroke="#94a3b8" d="M1018.03,-196C1018.03,-196 945.97,-196 945.97,-196 939.97,-196 933.97,-190 933.97,-184 933.97,-184 933.97,-172 933.97,-172 933.97,-166 939.97,-160 945.97,-160 945.97,-160 1018.03,-160 1018.03,-160 1024.03,-160 1030.03,-166 1030.03,-172 1030.03,-172 1030.03,-184 1030.03,-184 1030.03,-190 1024.03,-196 1018.03,-196"/>
<text xml:space="preserve" text-anchor="middle" x="982" y="-175" font-family="Helvetica,sans-Serif" font-size="10.00">charfun_arith_aux</text>
</a>
</g>
</g>
<!-- n14 -->
<g id="node15" class="node">
<title>n14</title>
<g id="a_node15"><a xlink:href="https://github.com/statopia/statlib/blob/main/Statlib/StatFoundation/Convergence/AnalysisTools/CharacteristicFunction.lean#L510" xlink:title="lemma · Statlib/StatFoundation/Convergence/AnalysisTools/CharacteristicFunction.lean:510" target="_blank">
<path fill="#eef2f6" stroke="#94a3b8" d="M1028.08,-268C1028.08,-268 929.92,-268 929.92,-268 923.92,-268 917.92,-262 917.92,-256 917.92,-256 917.92,-244 917.92,-244 917.92,-238 923.92,-232 929.92,-232 929.92,-232 1028.08,-232 1028.08,-232 1034.08,-232 1040.08,-238 1040.08,-244 1040.08,-244 1040.08,-256 1040.08,-256 1040.08,-262 1034.08,-268 1028.08,-268"/>
<text xml:space="preserve" text-anchor="middle" x="979" y="-247" font-family="Helvetica,sans-Serif" font-size="10.00">charfun_final_arithmetic</text>
</a>
</g>
</g>
<!-- n14&#45;&gt;n13 -->
<g id="edge8" class="edge">
<title>n14&#45;&gt;n13</title>
<path fill="none" stroke="#64748b" d="M979.74,-231.7C980.09,-223.47 980.52,-213.48 980.91,-204.42"/>
<polygon fill="#64748b" stroke="#64748b" points="983.35,-204.72 981.2,-197.62 978.45,-204.51 983.35,-204.72"/>
</g>
<!-- n15 -->
<g id="node16" class="node">
<title>n15</title>
<g id="a_node16"><a xlink:href="https://github.com/statopia/statlib/blob/main/Statlib/StatFoundation/Convergence/AnalysisTools/CharacteristicFunction.lean#L612" xlink:title="lemma · Statlib/StatFoundation/Convergence/AnalysisTools/CharacteristicFunction.lean:612" target="_blank">
<path fill="#eef2f6" stroke="#94a3b8" d="M567.82,-340C567.82,-340 430.18,-340 430.18,-340 424.18,-340 418.18,-334 418.18,-328 418.18,-328 418.18,-316 418.18,-316 418.18,-310 424.18,-304 430.18,-304 430.18,-304 567.82,-304 567.82,-304 573.82,-304 579.82,-310 579.82,-316 579.82,-316 579.82,-328 579.82,-328 579.82,-334 573.82,-340 567.82,-340"/>
<text xml:space="preserve" text-anchor="middle" x="499" y="-319" font-family="Helvetica,sans-Serif" font-size="10.00">charfun_normalized_sum_bound</text>
</a>
</g>
</g>
<!-- n15&#45;&gt;n2 -->
<g id="edge9" class="edge">
<title>n15&#45;&gt;n2</title>
<path fill="none" stroke="#64748b" d="M417.81,-303.51C373.36,-293.83 317.11,-281.41 259.03,-267.99"/>
<polygon fill="#64748b" stroke="#64748b" points="259.67,-265.62 252.29,-266.43 258.56,-270.4 259.67,-265.62"/>
</g>
<!-- n15&#45;&gt;n4 -->
<g id="edge10" class="edge">
<title>n15&#45;&gt;n4</title>
<path fill="none" stroke="#64748b" d="M457.79,-303.52C434.96,-293.83 406.46,-281.74 382.56,-271.6"/>
<polygon fill="#64748b" stroke="#64748b" points="383.77,-269.45 376.36,-268.97 381.85,-273.96 383.77,-269.45"/>
</g>
<!-- n15&#45;&gt;n5 -->
<g id="edge11" class="edge">
<title>n15&#45;&gt;n5</title>
<path fill="none" stroke="#64748b" d="M499,-303.7C499,-295.47 499,-285.48 499,-276.42"/>
<polygon fill="#64748b" stroke="#64748b" points="501.45,-276.62 499,-269.62 496.55,-276.62 501.45,-276.62"/>
</g>
<!-- n15&#45;&gt;n10 -->
<g id="edge12" class="edge">
<title>n15&#45;&gt;n10</title>
<path fill="none" stroke="#64748b" d="M542.46,-303.52C566.63,-293.79 596.85,-281.64 622.12,-271.47"/>
<polygon fill="#64748b" stroke="#64748b" points="622.81,-273.83 628.39,-268.95 620.98,-269.29 622.81,-273.83"/>
</g>
<!-- n15&#45;&gt;n12 -->
<g id="edge13" class="edge">
<title>n15&#45;&gt;n12</title>
<path fill="none" stroke="#64748b" d="M580.1,-304.64C628.64,-294.76 691.78,-281.75 755.84,-268.02"/>
<polygon fill="#64748b" stroke="#64748b" points="756.25,-270.44 762.58,-266.57 755.22,-265.65 756.25,-270.44"/>
</g>
<!-- n15&#45;&gt;n14 -->
<g id="edge14" class="edge">
<title>n15&#45;&gt;n14</title>
<path fill="none" stroke="#64748b" d="M580.1,-313.06C662.91,-304.35 794.98,-288.79 908,-268 908.39,-267.93 908.78,-267.86 909.17,-267.78"/>
<polygon fill="#64748b" stroke="#64748b" points="909.63,-270.19 916.03,-266.44 908.69,-265.38 909.63,-270.19"/>
</g>
<!-- n16 -->
<g id="node17" class="node">
<title>n16</title>
<g id="a_node17"><a xlink:href="https://github.com/statopia/statlib/blob/main/Statlib/StatFoundation/Convergence/AnalysisTools/LevyContinuity.lean#L15" xlink:title="lemma · Statlib/StatFoundation/Convergence/AnalysisTools/LevyContinuity.lean:15" target="_blank">
<path fill="#eef2f6" stroke="#94a3b8" d="M1149.64,-196C1149.64,-196 1060.36,-196 1060.36,-196 1054.36,-196 1048.36,-190 1048.36,-184 1048.36,-184 1048.36,-172 1048.36,-172 1048.36,-166 1054.36,-160 1060.36,-160 1060.36,-160 1149.64,-160 1149.64,-160 1155.64,-160 1161.64,-166 1161.64,-172 1161.64,-172 1161.64,-184 1161.64,-184 1161.64,-190 1155.64,-196 1149.64,-196"/>
<text xml:space="preserve" text-anchor="middle" x="1105" y="-175" font-family="Helvetica,sans-Serif" font-size="10.00">compl_Icc_eq_abs_gt</text>
</a>
</g>
</g>
<!-- n17 -->
<g id="node18" class="node">
<title>n17</title>
<g id="a_node18"><a xlink:href="https://github.com/statopia/statlib/blob/main/Statlib/StatFoundation/Convergence/AnalysisTools/Tightness.lean#L14" xlink:title="theorem · Statlib/StatFoundation/Convergence/AnalysisTools/Tightness.lean:14" target="_blank">
<path fill="#ffe6a3" stroke="#d4a017" d="M1268.8,-196C1268.8,-196 1191.2,-196 1191.2,-196 1185.2,-196 1179.2,-190 1179.2,-184 1179.2,-184 1179.2,-172 1179.2,-172 1179.2,-166 1185.2,-160 1191.2,-160 1191.2,-160 1268.8,-160 1268.8,-160 1274.8,-160 1280.8,-166 1280.8,-172 1280.8,-172 1280.8,-184 1280.8,-184 1280.8,-190 1274.8,-196 1268.8,-196"/>
<text xml:space="preserve" text-anchor="middle" x="1230" y="-175" font-family="Helvetica,sans-Serif" font-size="10.00">isTight_finiteRange</text>
</a>
</g>
</g>
<!-- n18 -->
<g id="node19" class="node">
<title>n18</title>
<g id="a_node19"><a xlink:href="https://github.com/statopia/statlib/blob/main/Statlib/StatFoundation/Convergence/AnalysisTools/LevyContinuity.lean#L44" xlink:title="theorem · Statlib/StatFoundation/Convergence/AnalysisTools/LevyContinuity.lean:44" target="_blank">
<path fill="#ffe6a3" stroke="#d4a017" d="M1185.98,-268C1185.98,-268 1070.02,-268 1070.02,-268 1064.02,-268 1058.02,-262 1058.02,-256 1058.02,-256 1058.02,-244 1058.02,-244 1058.02,-238 1064.02,-232 1070.02,-232 1070.02,-232 1185.98,-232 1185.98,-232 1191.98,-232 1197.98,-238 1197.98,-244 1197.98,-244 1197.98,-256 1197.98,-256 1197.98,-262 1191.98,-268 1185.98,-268"/>
<text xml:space="preserve" text-anchor="middle" x="1128" y="-247" font-family="Helvetica,sans-Serif" font-size="10.00">isTight_of_charFun_tendsto</text>
</a>
</g>
</g>
<!-- n18&#45;&gt;n16 -->
<g id="edge15" class="edge">
<title>n18&#45;&gt;n16</title>
<path fill="none" stroke="#64748b" d="M1122.31,-231.7C1119.59,-223.39 1116.26,-213.28 1113.26,-204.14"/>
<polygon fill="#64748b" stroke="#64748b" points="1115.61,-203.43 1111.09,-197.54 1110.95,-204.96 1115.61,-203.43"/>
</g>
<!-- n18&#45;&gt;n17 -->
<g id="edge16" class="edge">
<title>n18&#45;&gt;n17</title>
<path fill="none" stroke="#64748b" d="M1153.48,-231.52C1166.96,-222.26 1183.66,-210.8 1198.02,-200.95"/>
<polygon fill="#64748b" stroke="#64748b" points="1199.22,-203.1 1203.6,-197.12 1196.44,-199.06 1199.22,-203.1"/>
</g>
<!-- n19 -->
<g id="node20" class="node">
<title>n19</title>
<g id="a_node20"><a xlink:href="https://github.com/statopia/statlib/blob/main/Statlib/StatFoundation/Convergence/AnalysisTools/LevyContinuity.lean#L31" xlink:title="theorem · Statlib/StatFoundation/Convergence/AnalysisTools/LevyContinuity.lean:31" target="_blank">
<path fill="#ffe6a3" stroke="#d4a017" d="M1359.34,-196C1359.34,-196 1310.66,-196 1310.66,-196 1304.66,-196 1298.66,-190 1298.66,-184 1298.66,-184 1298.66,-172 1298.66,-172 1298.66,-166 1304.66,-160 1310.66,-160 1310.66,-160 1359.34,-160 1359.34,-160 1365.34,-160 1371.34,-166 1371.34,-172 1371.34,-172 1371.34,-184 1371.34,-184 1371.34,-190 1365.34,-196 1359.34,-196"/>
<text xml:space="preserve" text-anchor="middle" x="1335" y="-175" font-family="Helvetica,sans-Serif" font-size="10.00">levy_forward</text>
</a>
</g>
</g>
<!-- n20 -->
<g id="node21" class="node">
<title>n20</title>
<g id="a_node21"><a xlink:href="https://github.com/statopia/statlib/blob/main/Statlib/StatFoundation/Convergence/AnalysisTools/LevyContinuity.lean#L168" xlink:title="lemma · Statlib/StatFoundation/Convergence/AnalysisTools/LevyContinuity.lean:168" target="_blank">
<path fill="#eef2f6" stroke="#94a3b8" d="M1325.54,-268C1325.54,-268 1228.46,-268 1228.46,-268 1222.46,-268 1216.46,-262 1216.46,-256 1216.46,-256 1216.46,-244 1216.46,-244 1216.46,-238 1222.46,-232 1228.46,-232 1228.46,-232 1325.54,-232 1325.54,-232 1331.54,-232 1337.54,-238 1337.54,-244 1337.54,-244 1337.54,-256 1337.54,-256 1337.54,-262 1331.54,-268 1325.54,-268"/>
<text xml:space="preserve" text-anchor="middle" x="1277" y="-247" font-family="Helvetica,sans-Serif" font-size="10.00">charFun_eq_of_subseq</text>
</a>
</g>
</g>
<!-- n20&#45;&gt;n19 -->
<g id="edge17" class="edge">
<title>n20&#45;&gt;n19</title>
<path fill="none" stroke="#64748b" d="M1291.34,-231.7C1298.64,-222.88 1307.63,-212.03 1315.55,-202.47"/>
<polygon fill="#64748b" stroke="#64748b" points="1317.28,-204.22 1319.86,-197.27 1313.51,-201.1 1317.28,-204.22"/>
</g>
<!-- n21 -->
<g id="node22" class="node">
<title>n21</title>
<g id="a_node22"><a xlink:href="https://github.com/statopia/statlib/blob/main/Statlib/StatFoundation/Convergence/AnalysisTools/LevyContinuity.lean#L180" xlink:title="lemma · Statlib/StatFoundation/Convergence/AnalysisTools/LevyContinuity.lean:180" target="_blank">
<path fill="#eef2f6" stroke="#94a3b8" d="M1508.22,-268C1508.22,-268 1367.78,-268 1367.78,-268 1361.78,-268 1355.78,-262 1355.78,-256 1355.78,-256 1355.78,-244 1355.78,-244 1355.78,-238 1361.78,-232 1367.78,-232 1367.78,-232 1508.22,-232 1508.22,-232 1514.22,-232 1520.22,-238 1520.22,-244 1520.22,-244 1520.22,-256 1520.22,-256 1520.22,-262 1514.22,-268 1508.22,-268"/>
<text xml:space="preserve" text-anchor="middle" x="1438" y="-247" font-family="Helvetica,sans-Serif" font-size="10.00">probMeasure_eq_of_charFun_eq</text>
</a>
</g>
</g>
<!-- n22 -->
<g id="node23" class="node">
<title>n22</title>
<g id="a_node23"><a xlink:href="https://github.com/statopia/statlib/blob/main/Statlib/StatFoundation/Convergence/AnalysisTools/LevyContinuity.lean#L193" xlink:title="theorem · Statlib/StatFoundation/Convergence/AnalysisTools/LevyContinuity.lean:193" target="_blank">
<path fill="#ffe6a3" stroke="#d4a017" d="M1230.8,-340C1230.8,-340 1173.2,-340 1173.2,-340 1167.2,-340 1161.2,-334 1161.2,-328 1161.2,-328 1161.2,-316 1161.2,-316 1161.2,-310 1167.2,-304 1173.2,-304 1173.2,-304 1230.8,-304 1230.8,-304 1236.8,-304 1242.8,-310 1242.8,-316 1242.8,-316 1242.8,-328 1242.8,-328 1242.8,-334 1236.8,-340 1230.8,-340"/>
<text xml:space="preserve" text-anchor="middle" x="1202" y="-319" font-family="Helvetica,sans-Serif" font-size="10.00">levy_continuity</text>
</a>
</g>
</g>
<!-- n22&#45;&gt;n18 -->
<g id="edge18" class="edge">
<title>n22&#45;&gt;n18</title>
<path fill="none" stroke="#64748b" d="M1183.71,-303.7C1174.28,-294.78 1162.65,-283.78 1152.46,-274.14"/>
<polygon fill="#64748b" stroke="#64748b" points="1154.21,-272.42 1147.44,-269.39 1150.84,-275.98 1154.21,-272.42"/>
</g>
<!-- n22&#45;&gt;n20 -->
<g id="edge19" class="edge">
<title>n22&#45;&gt;n20</title>
<path fill="none" stroke="#64748b" d="M1220.54,-303.7C1230.09,-294.78 1241.88,-283.78 1252.21,-274.14"/>
<polygon fill="#64748b" stroke="#64748b" points="1253.86,-275.95 1257.31,-269.38 1250.52,-272.36 1253.86,-275.95"/>
</g>
<!-- n22&#45;&gt;n21 -->
<g id="edge20" class="edge">
<title>n22&#45;&gt;n21</title>
<path fill="none" stroke="#64748b" d="M1243.11,-308.81C1278.39,-298.34 1329.93,-283.06 1371.14,-270.83"/>
<polygon fill="#64748b" stroke="#64748b" points="1371.77,-273.2 1377.79,-268.86 1370.38,-268.5 1371.77,-273.2"/>
</g>
<!-- n23 -->
<g id="node24" class="node">
<title>n23</title>
<g id="a_node24"><a xlink:href="https://github.com/statopia/statlib/blob/main/Statlib/StatFoundation/Convergence/CentralLimitTheorem/IID.lean#L43" xlink:title="theorem · Statlib/StatFoundation/Convergence/CentralLimitTheorem/IID.lean:43" target="_blank">
<path fill="#ffe6a3" stroke="#d4a017" d="M304.58,-412C304.58,-412 201.42,-412 201.42,-412 195.42,-412 189.42,-406 189.42,-400 189.42,-400 189.42,-388 189.42,-388 189.42,-382 195.42,-376 201.42,-376 201.42,-376 304.58,-376 304.58,-376 310.58,-376 316.58,-382 316.58,-388 316.58,-388 316.58,-400 316.58,-400 316.58,-406 310.58,-412 304.58,-412"/>
<text xml:space="preserve" text-anchor="middle" x="253" y="-391" font-family="Helvetica,sans-Serif" font-size="10.00">iid_central_limit_theorem</text>
</a>
</g>
</g>
<!-- n23&#45;&gt;n0 -->
<g id="edge21" class="edge">
<title>n23&#45;&gt;n0</title>
<path fill="none" stroke="#64748b" d="M256.23,-375.76C258.88,-356.06 259.83,-323.98 243,-304 206.03,-260.11 174.01,-284.34 119,-268 118.82,-267.95 118.65,-267.9 118.47,-267.84"/>
<polygon fill="#64748b" stroke="#64748b" points="119.2,-265.5 111.79,-265.85 117.8,-270.2 119.2,-265.5"/>
</g>
<!-- n23&#45;&gt;n1 -->
<g id="edge22" class="edge">
<title>n23&#45;&gt;n1</title>
<path fill="none" stroke="#64748b" d="M229.52,-375.7C217.07,-366.53 201.64,-355.16 188.3,-345.33"/>
<polygon fill="#64748b" stroke="#64748b" points="189.85,-343.42 182.76,-341.24 186.94,-347.37 189.85,-343.42"/>
</g>
<!-- n23&#45;&gt;n15 -->
<g id="edge23" class="edge">
<title>n23&#45;&gt;n15</title>
<path fill="none" stroke="#64748b" d="M314.44,-375.52C349.5,-365.54 393.55,-353 429.83,-342.68"/>
<polygon fill="#64748b" stroke="#64748b" points="430.4,-345.07 436.46,-340.8 429.06,-340.36 430.4,-345.07"/>
</g>
<!-- n23&#45;&gt;n22 -->
<g id="edge24" class="edge">
<title>n23&#45;&gt;n22</title>
<path fill="none" stroke="#64748b" d="M316.74,-388.3C494.54,-375.18 993.35,-338.39 1152.52,-326.65"/>
<polygon fill="#64748b" stroke="#64748b" points="1152.43,-329.11 1159.23,-326.15 1152.07,-324.23 1152.43,-329.11"/>
</g>
<!-- n24 -->
<g id="node25" class="node">
<title>n24</title>
<g id="a_node25"><a xlink:href="https://github.com/statopia/statlib/blob/main/Statlib/StatFoundation/Convergence/CentralLimitTheorem/IID.lean#L97" xlink:title="theorem · Statlib/StatFoundation/Convergence/CentralLimitTheorem/IID.lean:97" target="_blank">
<path fill="#ffe6a3" stroke="#d4a017" stroke-width="3" d="M201.8,-484C201.8,-484 114.2,-484 114.2,-484 108.2,-484 102.2,-478 102.2,-472 102.2,-472 102.2,-460 102.2,-460 102.2,-454 108.2,-448 114.2,-448 114.2,-448 201.8,-448 201.8,-448 207.8,-448 213.8,-454 213.8,-460 213.8,-460 213.8,-472 213.8,-472 213.8,-478 207.8,-484 201.8,-484"/>
<text xml:space="preserve" text-anchor="middle" x="158" y="-463" font-family="Helvetica,sans-Serif" font-size="10.00">central_limit_theorem</text>
</a>
</g>
</g>
<!-- n24&#45;&gt;n0 -->
<g id="edge25" class="edge">
<title>n24&#45;&gt;n0</title>
<path fill="none" stroke="#64748b" d="M141.26,-446.73C121.27,-423.72 88.58,-382.09 73,-340 65.44,-319.57 63.16,-294.85 62.64,-276.66"/>
<polygon fill="#64748b" stroke="#64748b" points="65.1,-276.77 62.54,-269.81 60.2,-276.84 65.1,-276.77"/>
</g>
<!-- n24&#45;&gt;n1 -->
<g id="edge26" class="edge">
<title>n24&#45;&gt;n1</title>
<path fill="none" stroke="#64748b" d="M158,-446.73C158,-421.75 158,-376.81 158,-348.52"/>
<polygon fill="#64748b" stroke="#64748b" points="160.45,-348.83 158,-341.83 155.55,-348.83 160.45,-348.83"/>
</g>
<!-- n24&#45;&gt;n23 -->
<g id="edge27" class="edge">
<title>n24&#45;&gt;n23</title>
<path fill="none" stroke="#64748b" d="M182.96,-446.61C195.23,-437.57 210.1,-426.61 222.98,-417.12"/>
<polygon fill="#64748b" stroke="#64748b" points="224.11,-419.33 228.29,-413.2 221.21,-415.38 224.11,-419.33"/>
</g>
</g>
</svg>
