<?xml version="1.0" encoding="UTF-8" standalone="no"?>
<!DOCTYPE svg PUBLIC "-//W3C//DTD SVG 1.1//EN"
 "http://www.w3.org/Graphics/SVG/1.1/DTD/svg11.dtd">
<!-- Generated by graphviz version 15.0.0 (20260523.1842)
 -->
<!-- Title: hermite_span_dense_L2_standard Pages: 1 -->
<svg width="648pt" height="626pt"
 viewBox="0.00 0.00 648.00 626.00" xmlns="http://www.w3.org/2000/svg" xmlns:xlink="http://www.w3.org/1999/xlink">
<g id="graph0" class="graph" transform="scale(1 1) rotate(0) translate(4 622)">
<title>hermite_span_dense_L2_standard</title>
<polygon fill="white" stroke="none" points="-4,4 -4,-622 644,-622 644,4 -4,4"/>
<text xml:space="preserve" text-anchor="middle" x="320" y="-601.4" font-family="Helvetica,sans-Serif" font-size="14.00">Proof narrative — hermite_span_dense_L2_standard &#160;(13 decls)</text>
<g id="clust1" class="cluster">
<title>cluster_0</title>
<path fill="none" stroke="#cbd5e1" stroke-dasharray="5,2" d="M20,-8C20,-8 620,-8 620,-8 626,-8 632,-14 632,-20 632,-20 632,-573.2 632,-573.2 632,-579.2 626,-585.2 620,-585.2 620,-585.2 20,-585.2 20,-585.2 14,-585.2 8,-579.2 8,-573.2 8,-573.2 8,-20 8,-20 8,-14 14,-8 20,-8"/>
<text xml:space="preserve" text-anchor="middle" x="320" y="-571.3" font-family="Helvetica,sans-Serif" font-size="11.00">StatFoundation</text>
</g>
<!-- n0 -->
<g id="node1" class="node">
<title>n0</title>
<g id="a_node1"><a xlink:href="vscode://vscode-remote/wsl+Ubuntu/home/ai4stat/statlib/Statlib/StatFoundation/RandomVariable/Gaussian/Standard.lean:31" xlink:title="abbrev · Statlib/StatFoundation/RandomVariable/Gaussian/Standard.lean:31" target="_blank">
<path fill="#d6e9ff" stroke="#3b82f6" d="M396.74,-124C396.74,-124 345.26,-124 345.26,-124 339.26,-124 333.26,-118 333.26,-112 333.26,-112 333.26,-100 333.26,-100 333.26,-94 339.26,-88 345.26,-88 345.26,-88 396.74,-88 396.74,-88 402.74,-88 408.74,-94 408.74,-100 408.74,-100 408.74,-112 408.74,-112 408.74,-118 402.74,-124 396.74,-124"/>
<text xml:space="preserve" text-anchor="middle" x="371" y="-103" font-family="Helvetica,sans-Serif" font-size="10.00">standardReal</text>
</a>
</g>
</g>
<!-- n1 -->
<g id="node2" class="node">
<title>n1</title>
<g id="a_node2"><a xlink:href="vscode://vscode-remote/wsl+Ubuntu/home/ai4stat/statlib/Statlib/StatFoundation/RandomVariable/Gaussian/Hermite.lean:58" xlink:title="abbrev · Statlib/StatFoundation/RandomVariable/Gaussian/Hermite.lean:58" target="_blank">
<path fill="#d6e9ff" stroke="#3b82f6" d="M77.63,-412C77.63,-412 28.37,-412 28.37,-412 22.37,-412 16.37,-406 16.37,-400 16.37,-400 16.37,-388 16.37,-388 16.37,-382 22.37,-376 28.37,-376 28.37,-376 77.63,-376 77.63,-376 83.63,-376 89.63,-382 89.63,-388 89.63,-388 89.63,-400 89.63,-400 89.63,-406 83.63,-412 77.63,-412"/>
<text xml:space="preserve" text-anchor="middle" x="53" y="-391" font-family="Helvetica,sans-Serif" font-size="10.00">hermite_eval</text>
</a>
</g>
</g>
<!-- n2 -->
<g id="node3" class="node">
<title>n2</title>
<g id="a_node3"><a xlink:href="vscode://vscode-remote/wsl+Ubuntu/home/ai4stat/statlib/Statlib/StatFoundation/RandomVariable/Gaussian/Standard.lean:114" xlink:title="private lemma · Statlib/StatFoundation/RandomVariable/Gaussian/Standard.lean:114" target="_blank">
<path fill="#eef2f6" stroke="#94a3b8" d="M313.22,-52C313.22,-52 162.78,-52 162.78,-52 156.78,-52 150.78,-46 150.78,-40 150.78,-40 150.78,-28 150.78,-28 150.78,-22 156.78,-16 162.78,-16 162.78,-16 313.22,-16 313.22,-16 319.22,-16 325.22,-22 325.22,-28 325.22,-28 325.22,-40 325.22,-40 325.22,-46 319.22,-52 313.22,-52"/>
<text xml:space="preserve" text-anchor="middle" x="238" y="-31" font-family="Helvetica,sans-Serif" font-size="10.00">memLp_pow_id_gaussianReal_aux</text>
</a>
</g>
</g>
<!-- n3 -->
<g id="node4" class="node">
<title>n3</title>
<g id="a_node4"><a xlink:href="vscode://vscode-remote/wsl+Ubuntu/home/ai4stat/statlib/Statlib/StatFoundation/RandomVariable/Gaussian/Standard.lean:139" xlink:title="lemma · Statlib/StatFoundation/RandomVariable/Gaussian/Standard.lean:139" target="_blank">
<path fill="#eef2f6" stroke="#94a3b8" d="M302.38,-124C302.38,-124 173.62,-124 173.62,-124 167.62,-124 161.62,-118 161.62,-112 161.62,-112 161.62,-100 161.62,-100 161.62,-94 167.62,-88 173.62,-88 173.62,-88 302.38,-88 302.38,-88 308.38,-88 314.38,-94 314.38,-100 314.38,-100 314.38,-112 314.38,-112 314.38,-118 308.38,-124 302.38,-124"/>
<text xml:space="preserve" text-anchor="middle" x="238" y="-103" font-family="Helvetica,sans-Serif" font-size="10.00">memLp_pow_id_gaussianReal</text>
</a>
</g>
</g>
<!-- n3&#45;&gt;n2 -->
<g id="edge1" class="edge">
<title>n3&#45;&gt;n2</title>
<path fill="none" stroke="#64748b" d="M238,-87.7C238,-79.47 238,-69.48 238,-60.42"/>
<polygon fill="#64748b" stroke="#64748b" points="240.45,-60.62 238,-53.62 235.55,-60.62 240.45,-60.62"/>
</g>
<!-- n4 -->
<g id="node5" class="node">
<title>n4</title>
<g id="a_node5"><a xlink:href="vscode://vscode-remote/wsl+Ubuntu/home/ai4stat/statlib/Statlib/StatFoundation/RandomVariable/Gaussian/Standard.lean:144" xlink:title="lemma · Statlib/StatFoundation/RandomVariable/Gaussian/Standard.lean:144" target="_blank">
<path fill="#eef2f6" stroke="#94a3b8" d="M299.59,-196C299.59,-196 176.41,-196 176.41,-196 170.41,-196 164.41,-190 164.41,-184 164.41,-184 164.41,-172 164.41,-172 164.41,-166 170.41,-160 176.41,-160 176.41,-160 299.59,-160 299.59,-160 305.59,-160 311.59,-166 311.59,-172 311.59,-172 311.59,-184 311.59,-184 311.59,-190 305.59,-196 299.59,-196"/>
<text xml:space="preserve" text-anchor="middle" x="238" y="-175" font-family="Helvetica,sans-Serif" font-size="10.00">memLp_polynomial_standard</text>
</a>
</g>
</g>
<!-- n4&#45;&gt;n0 -->
<g id="edge2" class="edge">
<title>n4&#45;&gt;n0</title>
<path fill="none" stroke="#64748b" d="M271.22,-159.52C289.29,-150.01 311.77,-138.17 330.82,-128.15"/>
<polygon fill="#64748b" stroke="#64748b" points="331.81,-130.39 336.87,-124.97 329.53,-126.06 331.81,-130.39"/>
</g>
<!-- n4&#45;&gt;n3 -->
<g id="edge3" class="edge">
<title>n4&#45;&gt;n3</title>
<path fill="none" stroke="#64748b" d="M238,-159.7C238,-151.47 238,-141.48 238,-132.42"/>
<polygon fill="#64748b" stroke="#64748b" points="240.45,-132.62 238,-125.62 235.55,-132.62 240.45,-132.62"/>
</g>
<!-- n5 -->
<g id="node6" class="node">
<title>n5</title>
<g id="a_node6"><a xlink:href="vscode://vscode-remote/wsl+Ubuntu/home/ai4stat/statlib/Statlib/StatFoundation/RandomVariable/Gaussian/Hermite.lean:43" xlink:title="lemma · Statlib/StatFoundation/RandomVariable/Gaussian/Hermite.lean:43" target="_blank">
<path fill="#eef2f6" stroke="#94a3b8" d="M320.16,-268C320.16,-268 155.84,-268 155.84,-268 149.84,-268 143.84,-262 143.84,-256 143.84,-256 143.84,-244 143.84,-244 143.84,-238 149.84,-232 155.84,-232 155.84,-232 320.16,-232 320.16,-232 326.16,-232 332.16,-238 332.16,-244 332.16,-244 332.16,-256 332.16,-256 332.16,-262 326.16,-268 320.16,-268"/>
<text xml:space="preserve" text-anchor="middle" x="238" y="-247" font-family="Helvetica,sans-Serif" font-size="10.00">memLp_aeval_intPolynomial_standard</text>
</a>
</g>
</g>
<!-- n5&#45;&gt;n0 -->
<g id="edge4" class="edge">
<title>n5&#45;&gt;n0</title>
<path fill="none" stroke="#64748b" d="M273.1,-231.72C289.06,-222.65 307.38,-210.41 321,-196 330.58,-185.86 347.29,-154.53 358.73,-131.91"/>
<polygon fill="#64748b" stroke="#64748b" points="360.91,-133.03 361.86,-125.67 356.53,-130.83 360.91,-133.03"/>
</g>
<!-- n5&#45;&gt;n4 -->
<g id="edge5" class="edge">
<title>n5&#45;&gt;n4</title>
<path fill="none" stroke="#64748b" d="M238,-231.7C238,-223.47 238,-213.48 238,-204.42"/>
<polygon fill="#64748b" stroke="#64748b" points="240.45,-204.62 238,-197.62 235.55,-204.62 240.45,-204.62"/>
</g>
<!-- n6 -->
<g id="node7" class="node">
<title>n6</title>
<g id="a_node7"><a xlink:href="vscode://vscode-remote/wsl+Ubuntu/home/ai4stat/statlib/Statlib/StatFoundation/RandomVariable/Gaussian/Hermite.lean:291" xlink:title="lemma · Statlib/StatFoundation/RandomVariable/Gaussian/Hermite.lean:291" target="_blank">
<path fill="#eef2f6" stroke="#94a3b8" d="M339.96,-340C339.96,-340 120.04,-340 120.04,-340 114.04,-340 108.04,-334 108.04,-328 108.04,-328 108.04,-316 108.04,-316 108.04,-310 114.04,-304 120.04,-304 120.04,-304 339.96,-304 339.96,-304 345.96,-304 351.96,-310 351.96,-316 351.96,-316 351.96,-328 351.96,-328 351.96,-334 345.96,-340 339.96,-340"/>
<text xml:space="preserve" text-anchor="middle" x="230" y="-319" font-family="Helvetica,sans-Serif" font-size="10.00">integrable_mul_intPolynomial_of_memLp_standard</text>
</a>
</g>
</g>
<!-- n6&#45;&gt;n0 -->
<g id="edge6" class="edge">
<title>n6&#45;&gt;n0</title>
<path fill="none" stroke="#64748b" d="M291.83,-303.57C310.17,-295.54 328.65,-284.09 341,-268 349.16,-257.37 361.57,-175.09 367.55,-132.45"/>
<polygon fill="#64748b" stroke="#64748b" points="369.94,-133.01 368.48,-125.74 365.09,-132.33 369.94,-133.01"/>
</g>
<!-- n6&#45;&gt;n5 -->
<g id="edge7" class="edge">
<title>n6&#45;&gt;n5</title>
<path fill="none" stroke="#64748b" d="M231.98,-303.7C232.92,-295.47 234.06,-285.48 235.09,-276.42"/>
<polygon fill="#64748b" stroke="#64748b" points="237.51,-276.84 235.87,-269.61 232.64,-276.28 237.51,-276.84"/>
</g>
<!-- n7 -->
<g id="node8" class="node">
<title>n7</title>
<g id="a_node8"><a xlink:href="vscode://vscode-remote/wsl+Ubuntu/home/ai4stat/statlib/Statlib/StatFoundation/RandomVariable/Gaussian/Hermite.lean:310" xlink:title="lemma · Statlib/StatFoundation/RandomVariable/Gaussian/Hermite.lean:310" target="_blank">
<path fill="#eef2f6" stroke="#94a3b8" d="M265.85,-484C265.85,-484 48.15,-484 48.15,-484 42.15,-484 36.15,-478 36.15,-472 36.15,-472 36.15,-460 36.15,-460 36.15,-454 42.15,-448 48.15,-448 48.15,-448 265.85,-448 265.85,-448 271.85,-448 277.85,-454 277.85,-460 277.85,-460 277.85,-472 277.85,-472 277.85,-478 271.85,-484 265.85,-484"/>
<text xml:space="preserve" text-anchor="middle" x="157" y="-463" font-family="Helvetica,sans-Serif" font-size="10.00">integrable_mul_hermite_eval_of_memLp_standard</text>
</a>
</g>
</g>
<!-- n7&#45;&gt;n0 -->
<g id="edge8" class="edge">
<title>n7&#45;&gt;n0</title>
<path fill="none" stroke="#64748b" d="M145.96,-447.66C131.81,-424.28 108.02,-380.88 99,-340 80.94,-258.19 91.22,-214.33 155,-160 213.13,-110.49 249.52,-144.79 323,-124 323.61,-123.83 324.22,-123.65 324.83,-123.47"/>
<polygon fill="#64748b" stroke="#64748b" points="325.47,-125.84 331.44,-121.44 324.03,-121.16 325.47,-125.84"/>
</g>
<!-- n7&#45;&gt;n1 -->
<g id="edge9" class="edge">
<title>n7&#45;&gt;n1</title>
<path fill="none" stroke="#64748b" d="M131.02,-447.52C117.27,-438.26 100.25,-426.8 85.61,-416.95"/>
<polygon fill="#64748b" stroke="#64748b" points="87.08,-414.98 79.9,-413.11 84.34,-419.05 87.08,-414.98"/>
</g>
<!-- n7&#45;&gt;n6 -->
<g id="edge10" class="edge">
<title>n7&#45;&gt;n6</title>
<path fill="none" stroke="#64748b" d="M148.48,-447.79C140.47,-428.97 131.44,-398.5 144,-376 151.43,-362.69 163.73,-352.31 176.73,-344.4"/>
<polygon fill="#64748b" stroke="#64748b" points="177.81,-346.61 182.68,-341.01 175.39,-342.35 177.81,-346.61"/>
</g>
<!-- n8 -->
<g id="node9" class="node">
<title>n8</title>
<g id="a_node9"><a xlink:href="vscode://vscode-remote/wsl+Ubuntu/home/ai4stat/statlib/Statlib/StatFoundation/RandomVariable/Gaussian/Hermite.lean:660" xlink:title="private lemma · Statlib/StatFoundation/RandomVariable/Gaussian/Hermite.lean:660" target="_blank">
<path fill="#eef2f6" stroke="#94a3b8" d="M353.89,-412C353.89,-412 180.11,-412 180.11,-412 174.11,-412 168.11,-406 168.11,-400 168.11,-400 168.11,-388 168.11,-388 168.11,-382 174.11,-376 180.11,-376 180.11,-376 353.89,-376 353.89,-376 359.89,-376 365.89,-382 365.89,-388 365.89,-388 365.89,-400 365.89,-400 365.89,-406 359.89,-412 353.89,-412"/>
<text xml:space="preserve" text-anchor="middle" x="267" y="-391" font-family="Helvetica,sans-Serif" font-size="10.00">integral_poly_mul_g_of_moments_below</text>
</a>
</g>
</g>
<!-- n8&#45;&gt;n0 -->
<g id="edge11" class="edge">
<title>n8&#45;&gt;n0</title>
<path fill="none" stroke="#64748b" d="M318.26,-375.73C334.72,-367.55 351.21,-355.97 361,-340 381.9,-305.92 376.51,-185.74 372.95,-132.6"/>
<polygon fill="#64748b" stroke="#64748b" points="375.41,-132.69 372.48,-125.88 370.52,-133.03 375.41,-132.69"/>
</g>
<!-- n8&#45;&gt;n6 -->
<g id="edge12" class="edge">
<title>n8&#45;&gt;n6</title>
<path fill="none" stroke="#64748b" d="M257.85,-375.7C253.37,-367.22 247.9,-356.86 242.99,-347.58"/>
<polygon fill="#64748b" stroke="#64748b" points="245.19,-346.49 239.75,-341.44 240.85,-348.78 245.19,-346.49"/>
</g>
<!-- n9 -->
<g id="node10" class="node">
<title>n9</title>
<g id="a_node10"><a xlink:href="vscode://vscode-remote/wsl+Ubuntu/home/ai4stat/statlib/Statlib/StatFoundation/RandomVariable/Gaussian/Standard.lean:239" xlink:title="lemma · Statlib/StatFoundation/RandomVariable/Gaussian/Standard.lean:239" target="_blank">
<path fill="#eef2f6" stroke="#94a3b8" d="M545.88,-268C545.88,-268 422.12,-268 422.12,-268 416.12,-268 410.12,-262 410.12,-256 410.12,-256 410.12,-244 410.12,-244 410.12,-238 416.12,-232 422.12,-232 422.12,-232 545.88,-232 545.88,-232 551.88,-232 557.88,-238 557.88,-244 557.88,-244 557.88,-256 557.88,-256 557.88,-262 551.88,-268 545.88,-268"/>
<text xml:space="preserve" text-anchor="middle" x="484" y="-247" font-family="Helvetica,sans-Serif" font-size="10.00">integrable_exp_abs_standard</text>
</a>
</g>
</g>
<!-- n9&#45;&gt;n0 -->
<g id="edge13" class="edge">
<title>n9&#45;&gt;n0</title>
<path fill="none" stroke="#64748b" d="M470.14,-231.59C449.96,-206.22 412.41,-159.03 389.76,-130.57"/>
<polygon fill="#64748b" stroke="#64748b" points="391.83,-129.25 385.56,-125.3 388,-132.3 391.83,-129.25"/>
</g>
<!-- n10 -->
<g id="node11" class="node">
<title>n10</title>
<g id="a_node11"><a xlink:href="vscode://vscode-remote/wsl+Ubuntu/home/ai4stat/statlib/Statlib/StatFoundation/RandomVariable/Gaussian/Hermite.lean:460" xlink:title="lemma · Statlib/StatFoundation/RandomVariable/Gaussian/Hermite.lean:460" target="_blank">
<path fill="#eef2f6" stroke="#94a3b8" d="M591.72,-412C591.72,-412 416.28,-412 416.28,-412 410.28,-412 404.28,-406 404.28,-400 404.28,-400 404.28,-388 404.28,-388 404.28,-382 410.28,-376 416.28,-376 416.28,-376 591.72,-376 591.72,-376 597.72,-376 603.72,-382 603.72,-388 603.72,-388 603.72,-400 603.72,-400 603.72,-406 597.72,-412 591.72,-412"/>
<text xml:space="preserve" text-anchor="middle" x="504" y="-391" font-family="Helvetica,sans-Serif" font-size="10.00">integral_cexp_mul_eq_zero_of_moments</text>
</a>
</g>
</g>
<!-- n10&#45;&gt;n0 -->
<g id="edge14" class="edge">
<title>n10&#45;&gt;n0</title>
<path fill="none" stroke="#64748b" d="M520.29,-375.91C546.94,-345.79 594.27,-281.74 567,-232 535.27,-174.13 464.09,-139.18 416.82,-121.49"/>
<polygon fill="#64748b" stroke="#64748b" points="417.7,-119.21 410.29,-119.11 416.02,-123.81 417.7,-119.21"/>
</g>
<!-- n10&#45;&gt;n6 -->
<g id="edge15" class="edge">
<title>n10&#45;&gt;n6</title>
<path fill="none" stroke="#64748b" d="M435.57,-375.52C396.27,-365.48 346.83,-352.85 306.28,-342.49"/>
<polygon fill="#64748b" stroke="#64748b" points="306.89,-340.12 299.5,-340.76 305.68,-344.86 306.89,-340.12"/>
</g>
<!-- n10&#45;&gt;n9 -->
<g id="edge16" class="edge">
<title>n10&#45;&gt;n9</title>
<path fill="none" stroke="#64748b" d="M501.55,-375.59C498.05,-350.76 491.61,-305.01 487.58,-276.4"/>
<polygon fill="#64748b" stroke="#64748b" points="490.02,-276.2 486.62,-269.61 485.17,-276.88 490.02,-276.2"/>
</g>
<!-- n11 -->
<g id="node12" class="node">
<title>n11</title>
<g id="a_node12"><a xlink:href="vscode://vscode-remote/wsl+Ubuntu/home/ai4stat/statlib/Statlib/StatFoundation/RandomVariable/Gaussian/Hermite.lean:551" xlink:title="theorem · Statlib/StatFoundation/RandomVariable/Gaussian/Hermite.lean:551" target="_blank">
<path fill="#ffe6a3" stroke="#d4a017" d="M481.89,-484C481.89,-484 348.11,-484 348.11,-484 342.11,-484 336.11,-478 336.11,-472 336.11,-472 336.11,-460 336.11,-460 336.11,-454 342.11,-448 348.11,-448 348.11,-448 481.89,-448 481.89,-448 487.89,-448 493.89,-454 493.89,-460 493.89,-460 493.89,-472 493.89,-472 493.89,-478 487.89,-484 481.89,-484"/>
<text xml:space="preserve" text-anchor="middle" x="415" y="-463" font-family="Helvetica,sans-Serif" font-size="10.00">polynomial_dense_L2_standard</text>
</a>
</g>
</g>
<!-- n11&#45;&gt;n0 -->
<g id="edge17" class="edge">
<title>n11&#45;&gt;n0</title>
<path fill="none" stroke="#64748b" d="M406.97,-447.73C402.63,-437.56 397.63,-424.31 395,-412 371.6,-302.27 392.74,-271.47 380,-160 378.97,-150.96 377.41,-141.12 375.89,-132.4"/>
<polygon fill="#64748b" stroke="#64748b" points="378.32,-132.06 374.66,-125.61 373.5,-132.93 378.32,-132.06"/>
</g>
<!-- n11&#45;&gt;n10 -->
<g id="edge18" class="edge">
<title>n11&#45;&gt;n10</title>
<path fill="none" stroke="#64748b" d="M437,-447.7C448.55,-438.61 462.85,-427.36 475.27,-417.6"/>
<polygon fill="#64748b" stroke="#64748b" points="476.77,-419.54 480.75,-413.28 473.74,-415.68 476.77,-419.54"/>
</g>
<!-- n12 -->
<g id="node13" class="node">
<title>n12</title>
<g id="a_node13"><a xlink:href="vscode://vscode-remote/wsl+Ubuntu/home/ai4stat/statlib/Statlib/StatFoundation/RandomVariable/Gaussian/Hermite.lean:682" xlink:title="theorem · Statlib/StatFoundation/RandomVariable/Gaussian/Hermite.lean:682" target="_blank">
<path fill="#ffe6a3" stroke="#d4a017" stroke-width="3" d="M380.28,-556C380.28,-556 233.72,-556 233.72,-556 227.72,-556 221.72,-550 221.72,-544 221.72,-544 221.72,-532 221.72,-532 221.72,-526 227.72,-520 233.72,-520 233.72,-520 380.28,-520 380.28,-520 386.28,-520 392.28,-526 392.28,-532 392.28,-532 392.28,-544 392.28,-544 392.28,-550 386.28,-556 380.28,-556"/>
<text xml:space="preserve" text-anchor="middle" x="307" y="-535" font-family="Helvetica,sans-Serif" font-size="10.00">hermite_span_dense_L2_standard</text>
</a>
</g>
</g>
<!-- n12&#45;&gt;n0 -->
<g id="edge19" class="edge">
<title>n12&#45;&gt;n0</title>
<path fill="none" stroke="#64748b" d="M393.77,-533.98C487.31,-525.53 623,-495.89 623,-395 623,-395 623,-395 623,-249 623,-155.56 489.86,-122.93 417.13,-112.08"/>
<polygon fill="#64748b" stroke="#64748b" points="417.77,-109.7 410.5,-111.13 417.08,-114.55 417.77,-109.7"/>
</g>
<!-- n12&#45;&gt;n1 -->
<g id="edge20" class="edge">
<title>n12&#45;&gt;n1</title>
<path fill="none" stroke="#64748b" d="M220.29,-532.41C147.38,-526.51 51.26,-513.29 27,-484 11.79,-465.64 22.88,-438.74 34.93,-419.33"/>
<polygon fill="#64748b" stroke="#64748b" points="36.92,-420.75 38.71,-413.55 32.82,-418.07 36.92,-420.75"/>
</g>
<!-- n12&#45;&gt;n6 -->
<g id="edge22" class="edge">
<title>n12&#45;&gt;n6</title>
<path fill="none" stroke="#64748b" d="M305.08,-518.53C302.31,-495.52 296.48,-458 287,-448 246.34,-405.12 194.68,-459.11 159,-412 149.34,-399.25 151.83,-390.3 159,-376 165.34,-363.36 176.29,-352.96 187.71,-344.82"/>
<polygon fill="#64748b" stroke="#64748b" points="188.76,-347.07 193.2,-341.14 186.03,-343 188.76,-347.07"/>
</g>
<!-- n12&#45;&gt;n7 -->
<g id="edge21" class="edge">
<title>n12&#45;&gt;n7</title>
<path fill="none" stroke="#64748b" d="M267.59,-518.61C247.41,-509.19 222.76,-497.69 201.86,-487.93"/>
<polygon fill="#64748b" stroke="#64748b" points="203.09,-485.81 195.71,-485.07 201.02,-490.25 203.09,-485.81"/>
</g>
<!-- n12&#45;&gt;n8 -->
<g id="edge23" class="edge">
<title>n12&#45;&gt;n8</title>
<path fill="none" stroke="#64748b" d="M308.7,-518.76C309.79,-500.39 309.79,-471.51 302,-448 298.64,-437.86 292.81,-427.8 286.86,-419.22"/>
<polygon fill="#64748b" stroke="#64748b" points="288.88,-417.83 282.78,-413.61 284.92,-420.71 288.88,-417.83"/>
</g>
<!-- n12&#45;&gt;n11 -->
<g id="edge24" class="edge">
<title>n12&#45;&gt;n11</title>
<path fill="none" stroke="#64748b" d="M335.38,-518.61C349.45,-509.49 366.54,-498.41 381.28,-488.86"/>
<polygon fill="#64748b" stroke="#64748b" points="382.49,-490.99 387.03,-485.13 379.82,-486.88 382.49,-490.99"/>
</g>
</g>
</svg>
