<?xml version="1.0" encoding="UTF-8" standalone="no"?>
<!DOCTYPE svg PUBLIC "-//W3C//DTD SVG 1.1//EN"
 "http://www.w3.org/Graphics/SVG/1.1/DTD/svg11.dtd">
<!-- Generated by graphviz version 15.0.0 (20260523.1842)
 -->
<!-- Title: integral_hermite_normalized_mul_eq Pages: 1 -->
<svg width="1138pt" height="626pt"
 viewBox="0.00 0.00 1138.00 626.00" xmlns="http://www.w3.org/2000/svg" xmlns:xlink="http://www.w3.org/1999/xlink">
<g id="graph0" class="graph" transform="scale(1 1) rotate(0) translate(4 622)">
<title>integral_hermite_normalized_mul_eq</title>
<polygon fill="white" stroke="none" points="-4,4 -4,-622 1134,-622 1134,4 -4,4"/>
<text xml:space="preserve" text-anchor="middle" x="565" y="-601.4" font-family="Helvetica,sans-Serif" font-size="14.00">Proof narrative — integral_hermite_normalized_mul_eq &#160;(21 decls)</text>
<g id="clust1" class="cluster">
<title>cluster_0</title>
<path fill="none" stroke="#cbd5e1" stroke-dasharray="5,2" d="M20,-8C20,-8 1110,-8 1110,-8 1116,-8 1122,-14 1122,-20 1122,-20 1122,-573.2 1122,-573.2 1122,-579.2 1116,-585.2 1110,-585.2 1110,-585.2 20,-585.2 20,-585.2 14,-585.2 8,-579.2 8,-573.2 8,-573.2 8,-20 8,-20 8,-14 14,-8 20,-8"/>
<text xml:space="preserve" text-anchor="middle" x="565" y="-571.3" font-family="Helvetica,sans-Serif" font-size="11.00">StatFoundation</text>
</g>
<!-- n0 -->
<g id="node1" class="node">
<title>n0</title>
<g id="a_node1"><a xlink:href="vscode://vscode-remote/wsl+Ubuntu/home/ai4stat/statlib/Statlib/StatFoundation/RandomVariable/Gaussian/Hermite.lean:58" xlink:title="abbrev · Statlib/StatFoundation/RandomVariable/Gaussian/Hermite.lean:58" target="_blank">
<path fill="#d6e9ff" stroke="#3b82f6" d="M77.63,-196C77.63,-196 28.37,-196 28.37,-196 22.37,-196 16.37,-190 16.37,-184 16.37,-184 16.37,-172 16.37,-172 16.37,-166 22.37,-160 28.37,-160 28.37,-160 77.63,-160 77.63,-160 83.63,-160 89.63,-166 89.63,-172 89.63,-172 89.63,-184 89.63,-184 89.63,-190 83.63,-196 77.63,-196"/>
<text xml:space="preserve" text-anchor="middle" x="53" y="-175" font-family="Helvetica,sans-Serif" font-size="10.00">hermite_eval</text>
</a>
</g>
</g>
<!-- n1 -->
<g id="node2" class="node">
<title>n1</title>
<g id="a_node2"><a xlink:href="vscode://vscode-remote/wsl+Ubuntu/home/ai4stat/statlib/Statlib/StatFoundation/RandomVariable/Gaussian/Hermite.lean:219" xlink:title="noncomputable def · Statlib/StatFoundation/RandomVariable/Gaussian/Hermite.lean:219" target="_blank">
<path fill="#d6e9ff" stroke="#3b82f6" d="M163.91,-484C163.91,-484 84.09,-484 84.09,-484 78.09,-484 72.09,-478 72.09,-472 72.09,-472 72.09,-460 72.09,-460 72.09,-454 78.09,-448 84.09,-448 84.09,-448 163.91,-448 163.91,-448 169.91,-448 175.91,-454 175.91,-460 175.91,-460 175.91,-472 175.91,-472 175.91,-478 169.91,-484 163.91,-484"/>
<text xml:space="preserve" text-anchor="middle" x="124" y="-463" font-family="Helvetica,sans-Serif" font-size="10.00">hermite_normalized</text>
</a>
</g>
</g>
<!-- n1&#45;&gt;n0 -->
<g id="edge1" class="edge">
<title>n1&#45;&gt;n0</title>
<path fill="none" stroke="#64748b" d="M87.59,-447.58C73.82,-438.95 59.63,-427.1 52,-412 17.45,-343.66 34.54,-248.99 45.8,-204.29"/>
<polygon fill="#64748b" stroke="#64748b" points="48.1,-205.15 47.5,-197.76 43.36,-203.91 48.1,-205.15"/>
</g>
<!-- n2 -->
<g id="node3" class="node">
<title>n2</title>
<g id="a_node3"><a xlink:href="vscode://vscode-remote/wsl+Ubuntu/home/ai4stat/statlib/Statlib/StatFoundation/RandomVariable/Gaussian/Standard.lean:31" xlink:title="abbrev · Statlib/StatFoundation/RandomVariable/Gaussian/Standard.lean:31" target="_blank">
<path fill="#d6e9ff" stroke="#3b82f6" d="M537.74,-124C537.74,-124 486.26,-124 486.26,-124 480.26,-124 474.26,-118 474.26,-112 474.26,-112 474.26,-100 474.26,-100 474.26,-94 480.26,-88 486.26,-88 486.26,-88 537.74,-88 537.74,-88 543.74,-88 549.74,-94 549.74,-100 549.74,-100 549.74,-112 549.74,-112 549.74,-118 543.74,-124 537.74,-124"/>
<text xml:space="preserve" text-anchor="middle" x="512" y="-103" font-family="Helvetica,sans-Serif" font-size="10.00">standardReal</text>
</a>
</g>
</g>
<!-- n3 -->
<g id="node4" class="node">
<title>n3</title>
<g id="a_node4"><a xlink:href="vscode://vscode-remote/wsl+Ubuntu/home/ai4stat/statlib/Statlib/StatFoundation/RandomVariable/Gaussian/Standard.lean:178" xlink:title="lemma · Statlib/StatFoundation/RandomVariable/Gaussian/Standard.lean:178" target="_blank">
<path fill="#eef2f6" stroke="#94a3b8" d="M1022.1,-196C1022.1,-196 853.9,-196 853.9,-196 847.9,-196 841.9,-190 841.9,-184 841.9,-184 841.9,-172 841.9,-172 841.9,-166 847.9,-160 853.9,-160 853.9,-160 1022.1,-160 1022.1,-160 1028.1,-160 1034.1,-166 1034.1,-172 1034.1,-172 1034.1,-184 1034.1,-184 1034.1,-190 1028.1,-196 1022.1,-196"/>
<text xml:space="preserve" text-anchor="middle" x="938" y="-175" font-family="Helvetica,sans-Serif" font-size="10.00">hasDerivAt_standardGaussianPDFReal</text>
</a>
</g>
</g>
<!-- n4 -->
<g id="node5" class="node">
<title>n4</title>
<g id="a_node5"><a xlink:href="vscode://vscode-remote/wsl+Ubuntu/home/ai4stat/statlib/Statlib/StatFoundation/RandomVariable/Gaussian/Standard.lean:96" xlink:title="lemma · Statlib/StatFoundation/RandomVariable/Gaussian/Standard.lean:96" target="_blank">
<path fill="#eef2f6" stroke="#94a3b8" d="M811.68,-196C811.68,-196 602.32,-196 602.32,-196 596.32,-196 590.32,-190 590.32,-184 590.32,-184 590.32,-172 590.32,-172 590.32,-166 596.32,-160 602.32,-160 602.32,-160 811.68,-160 811.68,-160 817.68,-160 823.68,-166 823.68,-172 823.68,-172 823.68,-184 823.68,-184 823.68,-190 817.68,-196 811.68,-196"/>
<text xml:space="preserve" text-anchor="middle" x="707" y="-175" font-family="Helvetica,sans-Serif" font-size="10.00">integrable_id_mul_mul_pdf_of_memLp_standard</text>
</a>
</g>
</g>
<!-- n4&#45;&gt;n2 -->
<g id="edge2" class="edge">
<title>n4&#45;&gt;n2</title>
<path fill="none" stroke="#64748b" d="M658.3,-159.52C627.54,-148.48 588.06,-134.3 557.86,-123.46"/>
<polygon fill="#64748b" stroke="#64748b" points="558.84,-121.21 551.43,-121.15 557.19,-125.82 558.84,-121.21"/>
</g>
<!-- n5 -->
<g id="node6" class="node">
<title>n5</title>
<g id="a_node6"><a xlink:href="vscode://vscode-remote/wsl+Ubuntu/home/ai4stat/statlib/Statlib/StatFoundation/RandomVariable/Gaussian/Standard.lean:84" xlink:title="lemma · Statlib/StatFoundation/RandomVariable/Gaussian/Standard.lean:84" target="_blank">
<path fill="#eef2f6" stroke="#94a3b8" d="M540.17,-196C540.17,-196 365.83,-196 365.83,-196 359.83,-196 353.83,-190 353.83,-184 353.83,-184 353.83,-172 353.83,-172 353.83,-166 359.83,-160 365.83,-160 365.83,-160 540.17,-160 540.17,-160 546.17,-160 552.17,-166 552.17,-172 552.17,-172 552.17,-184 552.17,-184 552.17,-190 546.17,-196 540.17,-196"/>
<text xml:space="preserve" text-anchor="middle" x="453" y="-175" font-family="Helvetica,sans-Serif" font-size="10.00">integrable_mul_pdf_of_memLp_standard</text>
</a>
</g>
</g>
<!-- n5&#45;&gt;n2 -->
<g id="edge3" class="edge">
<title>n5&#45;&gt;n2</title>
<path fill="none" stroke="#64748b" d="M467.58,-159.7C475.01,-150.88 484.16,-140.03 492.21,-130.47"/>
<polygon fill="#64748b" stroke="#64748b" points="493.97,-132.19 496.61,-125.26 490.22,-129.04 493.97,-132.19"/>
</g>
<!-- n6 -->
<g id="node7" class="node">
<title>n6</title>
<g id="a_node7"><a xlink:href="vscode://vscode-remote/wsl+Ubuntu/home/ai4stat/statlib/Statlib/StatFoundation/RandomVariable/Gaussian/Stein.lean:25" xlink:title="lemma · Statlib/StatFoundation/RandomVariable/Gaussian/Stein.lean:25" target="_blank">
<path fill="#eef2f6" stroke="#94a3b8" d="M847.42,-268C847.42,-268 752.58,-268 752.58,-268 746.58,-268 740.58,-262 740.58,-256 740.58,-256 740.58,-244 740.58,-244 740.58,-238 746.58,-232 752.58,-232 752.58,-232 847.42,-232 847.42,-232 853.42,-232 859.42,-238 859.42,-244 859.42,-244 859.42,-256 859.42,-256 859.42,-262 853.42,-268 847.42,-268"/>
<text xml:space="preserve" text-anchor="middle" x="800" y="-247" font-family="Helvetica,sans-Serif" font-size="10.00">standard_stein_identity</text>
</a>
</g>
</g>
<!-- n6&#45;&gt;n2 -->
<g id="edge4" class="edge">
<title>n6&#45;&gt;n2</title>
<path fill="none" stroke="#64748b" d="M740.55,-247.38C693.07,-243.3 627.07,-231.06 581,-196 566.44,-184.91 571.73,-174.83 561,-160 553.48,-149.61 544.13,-139.05 535.63,-130.13"/>
<polygon fill="#64748b" stroke="#64748b" points="537.6,-128.63 530.96,-125.31 534.08,-132.04 537.6,-128.63"/>
</g>
<!-- n6&#45;&gt;n3 -->
<g id="edge5" class="edge">
<title>n6&#45;&gt;n3</title>
<path fill="none" stroke="#64748b" d="M834.47,-231.52C853.3,-221.97 876.75,-210.07 896.57,-200.01"/>
<polygon fill="#64748b" stroke="#64748b" points="897.49,-202.3 902.62,-196.95 895.27,-197.93 897.49,-202.3"/>
</g>
<!-- n6&#45;&gt;n4 -->
<g id="edge6" class="edge">
<title>n6&#45;&gt;n4</title>
<path fill="none" stroke="#64748b" d="M777.01,-231.7C764.83,-222.53 749.72,-211.16 736.66,-201.33"/>
<polygon fill="#64748b" stroke="#64748b" points="738.32,-199.51 731.26,-197.26 735.38,-203.42 738.32,-199.51"/>
</g>
<!-- n6&#45;&gt;n5 -->
<g id="edge7" class="edge">
<title>n6&#45;&gt;n5</title>
<path fill="none" stroke="#64748b" d="M740.35,-236.97C687.4,-226.29 609.13,-210.5 547.65,-198.09"/>
<polygon fill="#64748b" stroke="#64748b" points="548.3,-195.73 540.95,-196.74 547.33,-200.53 548.3,-195.73"/>
</g>
<!-- n7 -->
<g id="node8" class="node">
<title>n7</title>
<g id="a_node8"><a xlink:href="vscode://vscode-remote/wsl+Ubuntu/home/ai4stat/statlib/Statlib/StatFoundation/RandomVariable/Gaussian/Standard.lean:114" xlink:title="private lemma · Statlib/StatFoundation/RandomVariable/Gaussian/Standard.lean:114" target="_blank">
<path fill="#eef2f6" stroke="#94a3b8" d="M277.22,-52C277.22,-52 126.78,-52 126.78,-52 120.78,-52 114.78,-46 114.78,-40 114.78,-40 114.78,-28 114.78,-28 114.78,-22 120.78,-16 126.78,-16 126.78,-16 277.22,-16 277.22,-16 283.22,-16 289.22,-22 289.22,-28 289.22,-28 289.22,-40 289.22,-40 289.22,-46 283.22,-52 277.22,-52"/>
<text xml:space="preserve" text-anchor="middle" x="202" y="-31" font-family="Helvetica,sans-Serif" font-size="10.00">memLp_pow_id_gaussianReal_aux</text>
</a>
</g>
</g>
<!-- n8 -->
<g id="node9" class="node">
<title>n8</title>
<g id="a_node9"><a xlink:href="vscode://vscode-remote/wsl+Ubuntu/home/ai4stat/statlib/Statlib/StatFoundation/RandomVariable/Gaussian/Standard.lean:139" xlink:title="lemma · Statlib/StatFoundation/RandomVariable/Gaussian/Standard.lean:139" target="_blank">
<path fill="#eef2f6" stroke="#94a3b8" d="M266.38,-124C266.38,-124 137.62,-124 137.62,-124 131.62,-124 125.62,-118 125.62,-112 125.62,-112 125.62,-100 125.62,-100 125.62,-94 131.62,-88 137.62,-88 137.62,-88 266.38,-88 266.38,-88 272.38,-88 278.38,-94 278.38,-100 278.38,-100 278.38,-112 278.38,-112 278.38,-118 272.38,-124 266.38,-124"/>
<text xml:space="preserve" text-anchor="middle" x="202" y="-103" font-family="Helvetica,sans-Serif" font-size="10.00">memLp_pow_id_gaussianReal</text>
</a>
</g>
</g>
<!-- n8&#45;&gt;n7 -->
<g id="edge8" class="edge">
<title>n8&#45;&gt;n7</title>
<path fill="none" stroke="#64748b" d="M202,-87.7C202,-79.47 202,-69.48 202,-60.42"/>
<polygon fill="#64748b" stroke="#64748b" points="204.45,-60.62 202,-53.62 199.55,-60.62 204.45,-60.62"/>
</g>
<!-- n9 -->
<g id="node10" class="node">
<title>n9</title>
<g id="a_node10"><a xlink:href="vscode://vscode-remote/wsl+Ubuntu/home/ai4stat/statlib/Statlib/StatFoundation/RandomVariable/Gaussian/Standard.lean:144" xlink:title="lemma · Statlib/StatFoundation/RandomVariable/Gaussian/Standard.lean:144" target="_blank">
<path fill="#eef2f6" stroke="#94a3b8" d="M263.59,-196C263.59,-196 140.41,-196 140.41,-196 134.41,-196 128.41,-190 128.41,-184 128.41,-184 128.41,-172 128.41,-172 128.41,-166 134.41,-160 140.41,-160 140.41,-160 263.59,-160 263.59,-160 269.59,-160 275.59,-166 275.59,-172 275.59,-172 275.59,-184 275.59,-184 275.59,-190 269.59,-196 263.59,-196"/>
<text xml:space="preserve" text-anchor="middle" x="202" y="-175" font-family="Helvetica,sans-Serif" font-size="10.00">memLp_polynomial_standard</text>
</a>
</g>
</g>
<!-- n9&#45;&gt;n2 -->
<g id="edge9" class="edge">
<title>n9&#45;&gt;n2</title>
<path fill="none" stroke="#64748b" d="M275.86,-160.32C334.89,-146.99 415.8,-128.72 465.94,-117.4"/>
<polygon fill="#64748b" stroke="#64748b" points="466.25,-119.84 472.54,-115.91 465.18,-115.06 466.25,-119.84"/>
</g>
<!-- n9&#45;&gt;n8 -->
<g id="edge10" class="edge">
<title>n9&#45;&gt;n8</title>
<path fill="none" stroke="#64748b" d="M202,-159.7C202,-151.47 202,-141.48 202,-132.42"/>
<polygon fill="#64748b" stroke="#64748b" points="204.45,-132.62 202,-125.62 199.55,-132.62 204.45,-132.62"/>
</g>
<!-- n10 -->
<g id="node11" class="node">
<title>n10</title>
<g id="a_node11"><a xlink:href="vscode://vscode-remote/wsl+Ubuntu/home/ai4stat/statlib/Statlib/StatFoundation/RandomVariable/Gaussian/Hermite.lean:43" xlink:title="lemma · Statlib/StatFoundation/RandomVariable/Gaussian/Hermite.lean:43" target="_blank">
<path fill="#eef2f6" stroke="#94a3b8" d="M498.16,-268C498.16,-268 333.84,-268 333.84,-268 327.84,-268 321.84,-262 321.84,-256 321.84,-256 321.84,-244 321.84,-244 321.84,-238 327.84,-232 333.84,-232 333.84,-232 498.16,-232 498.16,-232 504.16,-232 510.16,-238 510.16,-244 510.16,-244 510.16,-256 510.16,-256 510.16,-262 504.16,-268 498.16,-268"/>
<text xml:space="preserve" text-anchor="middle" x="416" y="-247" font-family="Helvetica,sans-Serif" font-size="10.00">memLp_aeval_intPolynomial_standard</text>
</a>
</g>
</g>
<!-- n10&#45;&gt;n2 -->
<g id="edge11" class="edge">
<title>n10&#45;&gt;n2</title>
<path fill="none" stroke="#64748b" d="M353.76,-231.57C336.62,-223.6 320.01,-212.19 310,-196 301.59,-182.39 300.23,-172.67 310,-160 328.87,-135.54 412.1,-120.16 465.66,-112.61"/>
<polygon fill="#64748b" stroke="#64748b" points="465.89,-115.05 472.49,-111.67 465.22,-110.2 465.89,-115.05"/>
</g>
<!-- n10&#45;&gt;n9 -->
<g id="edge12" class="edge">
<title>n10&#45;&gt;n9</title>
<path fill="none" stroke="#64748b" d="M362.55,-231.52C332.31,-221.62 294.37,-209.22 262.97,-198.94"/>
<polygon fill="#64748b" stroke="#64748b" points="263.99,-196.7 256.58,-196.85 262.47,-201.36 263.99,-196.7"/>
</g>
<!-- n11 -->
<g id="node12" class="node">
<title>n11</title>
<g id="a_node12"><a xlink:href="vscode://vscode-remote/wsl+Ubuntu/home/ai4stat/statlib/Statlib/StatFoundation/RandomVariable/Gaussian/Hermite.lean:60" xlink:title="lemma · Statlib/StatFoundation/RandomVariable/Gaussian/Hermite.lean:60" target="_blank">
<path fill="#eef2f6" stroke="#94a3b8" d="M211.86,-268C211.86,-268 108.14,-268 108.14,-268 102.14,-268 96.14,-262 96.14,-256 96.14,-256 96.14,-244 96.14,-244 96.14,-238 102.14,-232 108.14,-232 108.14,-232 211.86,-232 211.86,-232 217.86,-232 223.86,-238 223.86,-244 223.86,-244 223.86,-256 223.86,-256 223.86,-262 217.86,-268 211.86,-268"/>
<text xml:space="preserve" text-anchor="middle" x="160" y="-247" font-family="Helvetica,sans-Serif" font-size="10.00">hasDerivAt_hermite_eval</text>
</a>
</g>
</g>
<!-- n11&#45;&gt;n0 -->
<g id="edge13" class="edge">
<title>n11&#45;&gt;n0</title>
<path fill="none" stroke="#64748b" d="M133.28,-231.52C119,-222.18 101.29,-210.59 86.14,-200.68"/>
<polygon fill="#64748b" stroke="#64748b" points="87.85,-198.87 80.65,-197.09 85.17,-202.97 87.85,-198.87"/>
</g>
<!-- n12 -->
<g id="node13" class="node">
<title>n12</title>
<g id="a_node13"><a xlink:href="vscode://vscode-remote/wsl+Ubuntu/home/ai4stat/statlib/Statlib/StatFoundation/RandomVariable/Gaussian/Hermite.lean:52" xlink:title="lemma · Statlib/StatFoundation/RandomVariable/Gaussian/Hermite.lean:52" target="_blank">
<path fill="#eef2f6" stroke="#94a3b8" d="M710.45,-340C710.45,-340 535.55,-340 535.55,-340 529.55,-340 523.55,-334 523.55,-328 523.55,-328 523.55,-316 523.55,-316 523.55,-310 529.55,-304 535.55,-304 535.55,-304 710.45,-304 710.45,-304 716.45,-304 722.45,-310 722.45,-316 722.45,-316 722.45,-328 722.45,-328 722.45,-334 716.45,-340 710.45,-340"/>
<text xml:space="preserve" text-anchor="middle" x="623" y="-319" font-family="Helvetica,sans-Serif" font-size="10.00">integrable_aeval_intPolynomial_standard</text>
</a>
</g>
</g>
<!-- n12&#45;&gt;n2 -->
<g id="edge14" class="edge">
<title>n12&#45;&gt;n2</title>
<path fill="none" stroke="#64748b" d="M609.43,-303.56C592.46,-283.04 561.42,-249.55 527,-232 453.54,-194.55 397.34,-259.71 345,-196 307.58,-150.45 404.67,-125.03 466.09,-113.9"/>
<polygon fill="#64748b" stroke="#64748b" points="466.17,-116.37 472.64,-112.75 465.32,-111.54 466.17,-116.37"/>
</g>
<!-- n12&#45;&gt;n10 -->
<g id="edge15" class="edge">
<title>n12&#45;&gt;n10</title>
<path fill="none" stroke="#64748b" d="M571.3,-303.52C542.17,-293.67 505.66,-281.32 475.36,-271.07"/>
<polygon fill="#64748b" stroke="#64748b" points="476.25,-268.79 468.83,-268.87 474.68,-273.43 476.25,-268.79"/>
</g>
<!-- n13 -->
<g id="node14" class="node">
<title>n13</title>
<g id="a_node14"><a xlink:href="vscode://vscode-remote/wsl+Ubuntu/home/ai4stat/statlib/Statlib/StatFoundation/RandomVariable/Gaussian/Hermite.lean:102" xlink:title="theorem · Statlib/StatFoundation/RandomVariable/Gaussian/Hermite.lean:102" target="_blank">
<path fill="#ffe6a3" stroke="#d4a017" d="M379.65,-412C379.65,-412 250.35,-412 250.35,-412 244.35,-412 238.35,-406 238.35,-400 238.35,-400 238.35,-388 238.35,-388 238.35,-382 244.35,-376 250.35,-376 250.35,-376 379.65,-376 379.65,-376 385.65,-376 391.65,-382 391.65,-388 391.65,-388 391.65,-400 391.65,-400 391.65,-406 385.65,-412 379.65,-412"/>
<text xml:space="preserve" text-anchor="middle" x="315" y="-391" font-family="Helvetica,sans-Serif" font-size="10.00">integral_hermite_eval_eq_zero</text>
</a>
</g>
</g>
<!-- n13&#45;&gt;n0 -->
<g id="edge16" class="edge">
<title>n13&#45;&gt;n0</title>
<path fill="none" stroke="#64748b" d="M237.88,-382.67C183.57,-373.87 117.11,-359.55 97,-340 87.21,-330.48 67.98,-247.68 58.52,-204.68"/>
<polygon fill="#64748b" stroke="#64748b" points="60.92,-204.19 57.03,-197.88 56.13,-205.24 60.92,-204.19"/>
</g>
<!-- n13&#45;&gt;n2 -->
<g id="edge17" class="edge">
<title>n13&#45;&gt;n2</title>
<path fill="none" stroke="#64748b" d="M311.95,-375.56C305.25,-342.52 286.09,-270.62 241,-232 198.06,-195.22 152.85,-241.28 119,-196 109.42,-183.18 108.47,-172.05 119,-160 141.54,-134.22 366.4,-116.5 465.51,-109.88"/>
<polygon fill="#64748b" stroke="#64748b" points="465.51,-112.34 472.33,-109.43 465.19,-107.45 465.51,-112.34"/>
</g>
<!-- n13&#45;&gt;n6 -->
<g id="edge18" class="edge">
<title>n13&#45;&gt;n6</title>
<path fill="none" stroke="#64748b" d="M392.04,-387.15C545.38,-375.34 874.82,-348.98 883,-340 893.78,-328.17 890.69,-318.03 883,-304 875.79,-290.84 863.77,-280.48 851.09,-272.54"/>
<polygon fill="#64748b" stroke="#64748b" points="852.58,-270.57 845.3,-269.14 850.1,-274.8 852.58,-270.57"/>
</g>
<!-- n13&#45;&gt;n10 -->
<g id="edge19" class="edge">
<title>n13&#45;&gt;n10</title>
<path fill="none" stroke="#64748b" d="M315.12,-375.74C316.06,-356.61 320.02,-325.6 335,-304 343.81,-291.3 356.74,-280.88 369.7,-272.75"/>
<polygon fill="#64748b" stroke="#64748b" points="370.82,-274.93 375.57,-269.24 368.31,-270.73 370.82,-274.93"/>
</g>
<!-- n13&#45;&gt;n11 -->
<g id="edge20" class="edge">
<title>n13&#45;&gt;n11</title>
<path fill="none" stroke="#64748b" d="M237.93,-383.3C185.68,-374.96 123.26,-360.93 107,-340 90.6,-318.9 111.11,-292.3 131.19,-273.7"/>
<polygon fill="#64748b" stroke="#64748b" points="132.64,-275.69 136.24,-269.21 129.38,-272.03 132.64,-275.69"/>
</g>
<!-- n13&#45;&gt;n12 -->
<g id="edge21" class="edge">
<title>n13&#45;&gt;n12</title>
<path fill="none" stroke="#64748b" d="M391.93,-375.52C436.39,-365.41 492.39,-352.68 538.13,-342.29"/>
<polygon fill="#64748b" stroke="#64748b" points="538.49,-344.72 544.78,-340.78 537.41,-339.94 538.49,-344.72"/>
</g>
<!-- n14 -->
<g id="node15" class="node">
<title>n14</title>
<g id="a_node15"><a xlink:href="vscode://vscode-remote/wsl+Ubuntu/home/ai4stat/statlib/Statlib/StatFoundation/RandomVariable/Gaussian/Hermite.lean:71" xlink:title="lemma · Statlib/StatFoundation/RandomVariable/Gaussian/Hermite.lean:71" target="_blank">
<path fill="#eef2f6" stroke="#94a3b8" d="M861.92,-340C861.92,-340 752.08,-340 752.08,-340 746.08,-340 740.08,-334 740.08,-328 740.08,-328 740.08,-316 740.08,-316 740.08,-310 746.08,-304 752.08,-304 752.08,-304 861.92,-304 861.92,-304 867.92,-304 873.92,-310 873.92,-316 873.92,-316 873.92,-328 873.92,-328 873.92,-334 867.92,-340 861.92,-340"/>
<text xml:space="preserve" text-anchor="middle" x="807" y="-319" font-family="Helvetica,sans-Serif" font-size="10.00">memLp_hermite_eval_mul</text>
</a>
</g>
</g>
<!-- n14&#45;&gt;n0 -->
<g id="edge22" class="edge">
<title>n14&#45;&gt;n0</title>
<path fill="none" stroke="#64748b" d="M761.38,-303.63C705.22,-283.01 606.54,-249.27 519,-232 343.88,-197.46 294.9,-226.36 119,-196 112.21,-194.83 105.1,-193.31 98.16,-191.66"/>
<polygon fill="#64748b" stroke="#64748b" points="98.97,-189.34 91.59,-190.05 97.8,-194.1 98.97,-189.34"/>
</g>
<!-- n14&#45;&gt;n2 -->
<g id="edge23" class="edge">
<title>n14&#45;&gt;n2</title>
<path fill="none" stroke="#64748b" d="M874.38,-303.93C963.46,-278.31 1102.58,-225.82 1043,-160 1010.71,-124.33 681.2,-111.65 558.08,-108.14"/>
<polygon fill="#64748b" stroke="#64748b" points="558.5,-105.7 551.44,-107.95 558.37,-110.6 558.5,-105.7"/>
</g>
<!-- n14&#45;&gt;n10 -->
<g id="edge24" class="edge">
<title>n14&#45;&gt;n10</title>
<path fill="none" stroke="#64748b" d="M739.9,-305.79C736.9,-305.17 733.92,-304.57 731,-304 660.43,-290.18 580.52,-276.76 518.85,-266.88"/>
<polygon fill="#64748b" stroke="#64748b" points="519.45,-264.5 512.15,-265.81 518.68,-269.34 519.45,-264.5"/>
</g>
<!-- n15 -->
<g id="node16" class="node">
<title>n15</title>
<g id="a_node16"><a xlink:href="vscode://vscode-remote/wsl+Ubuntu/home/ai4stat/statlib/Statlib/StatFoundation/RandomVariable/Gaussian/Hermite.lean:79" xlink:title="lemma · Statlib/StatFoundation/RandomVariable/Gaussian/Hermite.lean:79" target="_blank">
<path fill="#eef2f6" stroke="#94a3b8" d="M493.53,-340C493.53,-340 356.47,-340 356.47,-340 350.47,-340 344.47,-334 344.47,-328 344.47,-328 344.47,-316 344.47,-316 344.47,-310 350.47,-304 356.47,-304 356.47,-304 493.53,-304 493.53,-304 499.53,-304 505.53,-310 505.53,-316 505.53,-316 505.53,-328 505.53,-328 505.53,-334 499.53,-340 493.53,-340"/>
<text xml:space="preserve" text-anchor="middle" x="425" y="-319" font-family="Helvetica,sans-Serif" font-size="10.00">memLp_deriv_hermite_eval_mul</text>
</a>
</g>
</g>
<!-- n15&#45;&gt;n0 -->
<g id="edge25" class="edge">
<title>n15&#45;&gt;n0</title>
<path fill="none" stroke="#64748b" d="M382.29,-303.6C360.87,-294.18 334.89,-281.68 313,-268 291.28,-254.43 291,-243.28 268,-232 206.83,-202.01 185.1,-212.5 119,-196 112.23,-194.31 105.08,-192.5 98.09,-190.71"/>
<polygon fill="#64748b" stroke="#64748b" points="98.83,-188.37 91.44,-189 97.61,-193.12 98.83,-188.37"/>
</g>
<!-- n15&#45;&gt;n2 -->
<g id="edge26" class="edge">
<title>n15&#45;&gt;n2</title>
<path fill="none" stroke="#64748b" d="M477.14,-303.72C493.47,-295.57 509.64,-284.01 519,-268 527.07,-254.18 529.2,-244.33 519,-232 464.48,-166.12 384.52,-261.88 330,-196 319.8,-183.67 320.4,-172.8 330,-160 346.34,-138.23 417.56,-122.46 465.91,-114.03"/>
<polygon fill="#64748b" stroke="#64748b" points="466.08,-116.49 472.57,-112.9 465.25,-111.66 466.08,-116.49"/>
</g>
<!-- n15&#45;&gt;n10 -->
<g id="edge27" class="edge">
<title>n15&#45;&gt;n10</title>
<path fill="none" stroke="#64748b" d="M422.78,-303.7C421.72,-295.47 420.43,-285.48 419.27,-276.42"/>
<polygon fill="#64748b" stroke="#64748b" points="421.71,-276.24 418.39,-269.61 416.85,-276.86 421.71,-276.24"/>
</g>
<!-- n16 -->
<g id="node17" class="node">
<title>n16</title>
<g id="a_node17"><a xlink:href="vscode://vscode-remote/wsl+Ubuntu/home/ai4stat/statlib/Statlib/StatFoundation/RandomVariable/Gaussian/Hermite.lean:65" xlink:title="lemma · Statlib/StatFoundation/RandomVariable/Gaussian/Hermite.lean:65" target="_blank">
<path fill="#eef2f6" stroke="#94a3b8" d="M253.7,-340C253.7,-340 128.3,-340 128.3,-340 122.3,-340 116.3,-334 116.3,-328 116.3,-328 116.3,-316 116.3,-316 116.3,-310 122.3,-304 128.3,-304 128.3,-304 253.7,-304 253.7,-304 259.7,-304 265.7,-310 265.7,-316 265.7,-316 265.7,-328 265.7,-328 265.7,-334 259.7,-340 253.7,-340"/>
<text xml:space="preserve" text-anchor="middle" x="191" y="-319" font-family="Helvetica,sans-Serif" font-size="10.00">hasDerivAt_hermite_eval_mul</text>
</a>
</g>
</g>
<!-- n16&#45;&gt;n0 -->
<g id="edge28" class="edge">
<title>n16&#45;&gt;n0</title>
<path fill="none" stroke="#64748b" d="M209.61,-303.77C227.67,-284.94 250.05,-254.45 233,-232 197.01,-184.59 160.92,-213.42 104,-196 102.01,-195.39 99.98,-194.76 97.93,-194.11"/>
<polygon fill="#64748b" stroke="#64748b" points="98.83,-191.83 91.42,-192.03 97.34,-196.5 98.83,-191.83"/>
</g>
<!-- n16&#45;&gt;n11 -->
<g id="edge29" class="edge">
<title>n16&#45;&gt;n11</title>
<path fill="none" stroke="#64748b" d="M183.34,-303.7C179.62,-295.3 175.09,-285.07 171.01,-275.86"/>
<polygon fill="#64748b" stroke="#64748b" points="173.26,-274.9 168.19,-269.49 168.78,-276.88 173.26,-274.9"/>
</g>
<!-- n17 -->
<g id="node18" class="node">
<title>n17</title>
<g id="a_node18"><a xlink:href="vscode://vscode-remote/wsl+Ubuntu/home/ai4stat/statlib/Statlib/StatFoundation/RandomVariable/Gaussian/Hermite.lean:24" xlink:title="theorem · Statlib/StatFoundation/RandomVariable/Gaussian/Hermite.lean:24" target="_blank">
<path fill="#ffe6a3" stroke="#d4a017" d="M997.85,-340C997.85,-340 924.15,-340 924.15,-340 918.15,-340 912.15,-334 912.15,-328 912.15,-328 912.15,-316 912.15,-316 912.15,-310 918.15,-304 924.15,-304 924.15,-304 997.85,-304 997.85,-304 1003.85,-304 1009.85,-310 1009.85,-316 1009.85,-316 1009.85,-328 1009.85,-328 1009.85,-334 1003.85,-340 997.85,-340"/>
<text xml:space="preserve" text-anchor="middle" x="961" y="-319" font-family="Helvetica,sans-Serif" font-size="10.00">hermite_derivative</text>
</a>
</g>
</g>
<!-- n18 -->
<g id="node19" class="node">
<title>n18</title>
<g id="a_node19"><a xlink:href="vscode://vscode-remote/wsl+Ubuntu/home/ai4stat/statlib/Statlib/StatFoundation/RandomVariable/Gaussian/Hermite.lean:128" xlink:title="theorem · Statlib/StatFoundation/RandomVariable/Gaussian/Hermite.lean:128" target="_blank">
<path fill="#ffe6a3" stroke="#d4a017" d="M690.7,-412C690.7,-412 555.3,-412 555.3,-412 549.3,-412 543.3,-406 543.3,-400 543.3,-400 543.3,-388 543.3,-388 543.3,-382 549.3,-376 555.3,-376 555.3,-376 690.7,-376 690.7,-376 696.7,-376 702.7,-382 702.7,-388 702.7,-388 702.7,-400 702.7,-400 702.7,-406 696.7,-412 690.7,-412"/>
<text xml:space="preserve" text-anchor="middle" x="623" y="-391" font-family="Helvetica,sans-Serif" font-size="10.00">integral_hermite_eval_mul_succ</text>
</a>
</g>
</g>
<!-- n18&#45;&gt;n0 -->
<g id="edge30" class="edge">
<title>n18&#45;&gt;n0</title>
<path fill="none" stroke="#64748b" d="M543.03,-391.68C482.58,-387.62 399.3,-375.27 335,-340 296.67,-318.98 296.04,-301.53 268,-268 255.17,-252.66 257.6,-243.16 241,-232 188.76,-196.86 164.34,-213.96 104,-196 102,-195.41 99.97,-194.79 97.92,-194.15"/>
<polygon fill="#64748b" stroke="#64748b" points="98.81,-191.86 91.4,-192.09 97.34,-196.54 98.81,-191.86"/>
</g>
<!-- n18&#45;&gt;n2 -->
<g id="edge31" class="edge">
<title>n18&#45;&gt;n2</title>
<path fill="none" stroke="#64748b" d="M703,-393.36C807.79,-392.06 983.57,-383.26 1029,-340 1087.53,-284.26 1109.31,-219.87 1055,-160 1021.87,-123.48 683.42,-111.31 558.23,-108.03"/>
<polygon fill="#64748b" stroke="#64748b" points="558.52,-105.59 551.46,-107.86 558.39,-110.49 558.52,-105.59"/>
</g>
<!-- n18&#45;&gt;n6 -->
<g id="edge33" class="edge">
<title>n18&#45;&gt;n6</title>
<path fill="none" stroke="#64748b" d="M702.92,-387.87C812.58,-380.01 998.53,-363.39 1019,-340 1065.97,-286.33 948.25,-264.51 867.79,-256.04"/>
<polygon fill="#64748b" stroke="#64748b" points="868.36,-253.63 861.15,-255.36 867.86,-258.51 868.36,-253.63"/>
</g>
<!-- n18&#45;&gt;n12 -->
<g id="edge32" class="edge">
<title>n18&#45;&gt;n12</title>
<path fill="none" stroke="#64748b" d="M623,-375.7C623,-367.47 623,-357.48 623,-348.42"/>
<polygon fill="#64748b" stroke="#64748b" points="625.45,-348.62 623,-341.62 620.55,-348.62 625.45,-348.62"/>
</g>
<!-- n18&#45;&gt;n14 -->
<g id="edge34" class="edge">
<title>n18&#45;&gt;n14</title>
<path fill="none" stroke="#64748b" d="M668.96,-375.52C694.63,-365.75 726.75,-353.53 753.54,-343.34"/>
<polygon fill="#64748b" stroke="#64748b" points="754.22,-345.7 759.9,-340.92 752.48,-341.12 754.22,-345.7"/>
</g>
<!-- n18&#45;&gt;n15 -->
<g id="edge35" class="edge">
<title>n18&#45;&gt;n15</title>
<path fill="none" stroke="#64748b" d="M573.55,-375.52C545.8,-365.71 511.06,-353.43 482.15,-343.21"/>
<polygon fill="#64748b" stroke="#64748b" points="483.01,-340.91 475.59,-340.89 481.38,-345.53 483.01,-340.91"/>
</g>
<!-- n18&#45;&gt;n16 -->
<g id="edge36" class="edge">
<title>n18&#45;&gt;n16</title>
<path fill="none" stroke="#64748b" d="M542.82,-381.43C473.22,-371.19 369.81,-355.51 280,-340 277.97,-339.65 275.91,-339.29 273.83,-338.92"/>
<polygon fill="#64748b" stroke="#64748b" points="274.56,-336.56 267.24,-337.74 273.7,-341.39 274.56,-336.56"/>
</g>
<!-- n18&#45;&gt;n17 -->
<g id="edge37" class="edge">
<title>n18&#45;&gt;n17</title>
<path fill="none" stroke="#64748b" d="M703.05,-379.17C758.09,-369.27 832.74,-355.07 898,-340 899.98,-339.54 901.99,-339.07 904.02,-338.57"/>
<polygon fill="#64748b" stroke="#64748b" points="904.23,-341.05 910.44,-336.98 903.05,-336.29 904.23,-341.05"/>
</g>
<!-- n19 -->
<g id="node20" class="node">
<title>n19</title>
<g id="a_node20"><a xlink:href="vscode://vscode-remote/wsl+Ubuntu/home/ai4stat/statlib/Statlib/StatFoundation/RandomVariable/Gaussian/Hermite.lean:182" xlink:title="theorem · Statlib/StatFoundation/RandomVariable/Gaussian/Hermite.lean:182" target="_blank">
<path fill="#ffe6a3" stroke="#d4a017" d="M377.98,-484C377.98,-484 252.02,-484 252.02,-484 246.02,-484 240.02,-478 240.02,-472 240.02,-472 240.02,-460 240.02,-460 240.02,-454 246.02,-448 252.02,-448 252.02,-448 377.98,-448 377.98,-448 383.98,-448 389.98,-454 389.98,-460 389.98,-460 389.98,-472 389.98,-472 389.98,-478 383.98,-484 377.98,-484"/>
<text xml:space="preserve" text-anchor="middle" x="315" y="-463" font-family="Helvetica,sans-Serif" font-size="10.00">integral_hermite_eval_mul_eq</text>
</a>
</g>
</g>
<!-- n19&#45;&gt;n0 -->
<g id="edge38" class="edge">
<title>n19&#45;&gt;n0</title>
<path fill="none" stroke="#64748b" d="M251.4,-447.57C197.45,-429.49 122.16,-395.86 79,-340 48.44,-300.44 47.67,-238.88 50.13,-204.47"/>
<polygon fill="#64748b" stroke="#64748b" points="52.54,-205.03 50.68,-197.85 47.66,-204.62 52.54,-205.03"/>
</g>
<!-- n19&#45;&gt;n2 -->
<g id="edge39" class="edge">
<title>n19&#45;&gt;n2</title>
<path fill="none" stroke="#64748b" d="M390.3,-459.14C585.55,-442.92 1093,-393.97 1093,-323 1093,-323 1093,-323 1093,-249 1093,-208.25 1101.86,-186.61 1071,-160 1032.48,-126.79 685.23,-112.5 558.24,-108.36"/>
<polygon fill="#64748b" stroke="#64748b" points="558.43,-105.91 551.36,-108.14 558.28,-110.81 558.43,-105.91"/>
</g>
<!-- n19&#45;&gt;n13 -->
<g id="edge40" class="edge">
<title>n19&#45;&gt;n13</title>
<path fill="none" stroke="#64748b" d="M315,-447.7C315,-439.47 315,-429.48 315,-420.42"/>
<polygon fill="#64748b" stroke="#64748b" points="317.45,-420.62 315,-413.62 312.55,-420.62 317.45,-420.62"/>
</g>
<!-- n19&#45;&gt;n18 -->
<g id="edge41" class="edge">
<title>n19&#45;&gt;n18</title>
<path fill="none" stroke="#64748b" d="M390.35,-447.88C434.95,-437.74 491.59,-424.87 537.82,-414.36"/>
<polygon fill="#64748b" stroke="#64748b" points="538.27,-416.77 544.55,-412.83 537.18,-411.99 538.27,-416.77"/>
</g>
<!-- n20 -->
<g id="node21" class="node">
<title>n20</title>
<g id="a_node21"><a xlink:href="vscode://vscode-remote/wsl+Ubuntu/home/ai4stat/statlib/Statlib/StatFoundation/RandomVariable/Gaussian/Hermite.lean:226" xlink:title="theorem · Statlib/StatFoundation/RandomVariable/Gaussian/Hermite.lean:226" target="_blank">
<path fill="#ffe6a3" stroke="#d4a017" stroke-width="3" d="M274.27,-556C274.27,-556 117.73,-556 117.73,-556 111.73,-556 105.73,-550 105.73,-544 105.73,-544 105.73,-532 105.73,-532 105.73,-526 111.73,-520 117.73,-520 117.73,-520 274.27,-520 274.27,-520 280.27,-520 286.27,-526 286.27,-532 286.27,-532 286.27,-544 286.27,-544 286.27,-550 280.27,-556 274.27,-556"/>
<text xml:space="preserve" text-anchor="middle" x="196" y="-535" font-family="Helvetica,sans-Serif" font-size="10.00">integral_hermite_normalized_mul_eq</text>
</a>
</g>
</g>
<!-- n20&#45;&gt;n0 -->
<g id="edge44" class="edge">
<title>n20&#45;&gt;n0</title>
<path fill="none" stroke="#64748b" d="M123.04,-518.53C101.88,-510.52 79.94,-499.36 63,-484 30.01,-454.09 17,-439.53 17,-395 17,-395 17,-395 17,-321 17,-281.02 19.06,-270.45 30,-232 32.69,-222.55 36.69,-212.56 40.61,-203.84"/>
<polygon fill="#64748b" stroke="#64748b" points="42.77,-204.99 43.5,-197.61 38.33,-202.93 42.77,-204.99"/>
</g>
<!-- n20&#45;&gt;n1 -->
<g id="edge42" class="edge">
<title>n20&#45;&gt;n1</title>
<path fill="none" stroke="#64748b" d="M177.08,-518.61C168.06,-509.84 157.17,-499.25 147.61,-489.96"/>
<polygon fill="#64748b" stroke="#64748b" points="149.37,-488.25 142.64,-485.12 145.95,-491.76 149.37,-488.25"/>
</g>
<!-- n20&#45;&gt;n2 -->
<g id="edge43" class="edge">
<title>n20&#45;&gt;n2</title>
<path fill="none" stroke="#64748b" d="M287.7,-532.34C519.94,-519.31 1113,-477.92 1113,-395 1113,-395 1113,-395 1113,-249 1113,-207.79 1118.8,-186.21 1087,-160 1046.5,-126.62 687.53,-112.39 558.19,-108.31"/>
<polygon fill="#64748b" stroke="#64748b" points="558.6,-105.87 551.52,-108.1 558.44,-110.77 558.6,-105.87"/>
</g>
<!-- n20&#45;&gt;n19 -->
<g id="edge45" class="edge">
<title>n20&#45;&gt;n19</title>
<path fill="none" stroke="#64748b" d="M227.27,-518.61C242.91,-509.4 261.95,-498.21 278.29,-488.6"/>
<polygon fill="#64748b" stroke="#64748b" points="279.48,-490.73 284.27,-485.07 277,-486.51 279.48,-490.73"/>
</g>
</g>
</svg>
