<?xml version="1.0" encoding="UTF-8" standalone="no"?>
<!DOCTYPE svg PUBLIC "-//W3C//DTD SVG 1.1//EN"
 "http://www.w3.org/Graphics/SVG/1.1/DTD/svg11.dtd">
<!-- Generated by graphviz version 15.0.0 (20260523.1842)
 -->
<!-- Title: integral_deriv_mul_hermite_normalized Pages: 1 -->
<svg width="840pt" height="626pt"
 viewBox="0.00 0.00 840.00 626.00" xmlns="http://www.w3.org/2000/svg" xmlns:xlink="http://www.w3.org/1999/xlink">
<g id="graph0" class="graph" transform="scale(1 1) rotate(0) translate(4 622)">
<title>integral_deriv_mul_hermite_normalized</title>
<polygon fill="white" stroke="none" points="-4,4 -4,-622 836,-622 836,4 -4,4"/>
<text xml:space="preserve" text-anchor="middle" x="416" y="-601.4" font-family="Helvetica,sans-Serif" font-size="14.00">Proof narrative — integral_deriv_mul_hermite_normalized &#160;(16 decls)</text>
<g id="clust1" class="cluster">
<title>cluster_0</title>
<path fill="none" stroke="#cbd5e1" stroke-dasharray="5,2" d="M20,-8C20,-8 812,-8 812,-8 818,-8 824,-14 824,-20 824,-20 824,-573.2 824,-573.2 824,-579.2 818,-585.2 812,-585.2 812,-585.2 20,-585.2 20,-585.2 14,-585.2 8,-579.2 8,-573.2 8,-573.2 8,-20 8,-20 8,-14 14,-8 20,-8"/>
<text xml:space="preserve" text-anchor="middle" x="416" y="-571.3" font-family="Helvetica,sans-Serif" font-size="11.00">StatFoundation</text>
</g>
<!-- n0 -->
<g id="node1" class="node">
<title>n0</title>
<g id="a_node1"><a xlink:href="https://github.com/statopia/statlib/blob/main/Statlib/StatFoundation/RandomVariable/Gaussian/Standard.lean#L31" xlink:title="abbrev · Statlib/StatFoundation/RandomVariable/Gaussian/Standard.lean:31" target="_blank">
<path fill="#d6e9ff" stroke="#3b82f6" d="M597.74,-124C597.74,-124 546.26,-124 546.26,-124 540.26,-124 534.26,-118 534.26,-112 534.26,-112 534.26,-100 534.26,-100 534.26,-94 540.26,-88 546.26,-88 546.26,-88 597.74,-88 597.74,-88 603.74,-88 609.74,-94 609.74,-100 609.74,-100 609.74,-112 609.74,-112 609.74,-118 603.74,-124 597.74,-124"/>
<text xml:space="preserve" text-anchor="middle" x="572" y="-103" font-family="Helvetica,sans-Serif" font-size="10.00">standardReal</text>
</a>
</g>
</g>
<!-- n1 -->
<g id="node2" class="node">
<title>n1</title>
<g id="a_node2"><a xlink:href="https://github.com/statopia/statlib/blob/main/Statlib/StatFoundation/RandomVariable/Gaussian/Hermite.lean#L58" xlink:title="abbrev · Statlib/StatFoundation/RandomVariable/Gaussian/Hermite.lean:58" target="_blank">
<path fill="#d6e9ff" stroke="#3b82f6" d="M185.63,-268C185.63,-268 136.37,-268 136.37,-268 130.37,-268 124.37,-262 124.37,-256 124.37,-256 124.37,-244 124.37,-244 124.37,-238 130.37,-232 136.37,-232 136.37,-232 185.63,-232 185.63,-232 191.63,-232 197.63,-238 197.63,-244 197.63,-244 197.63,-256 197.63,-256 197.63,-262 191.63,-268 185.63,-268"/>
<text xml:space="preserve" text-anchor="middle" x="161" y="-247" font-family="Helvetica,sans-Serif" font-size="10.00">hermite_eval</text>
</a>
</g>
</g>
<!-- n2 -->
<g id="node3" class="node">
<title>n2</title>
<g id="a_node3"><a xlink:href="https://github.com/statopia/statlib/blob/main/Statlib/StatFoundation/RandomVariable/Gaussian/Hermite.lean#L219" xlink:title="noncomputable def · Statlib/StatFoundation/RandomVariable/Gaussian/Hermite.lean:219" target="_blank">
<path fill="#d6e9ff" stroke="#3b82f6" d="M107.91,-484C107.91,-484 28.09,-484 28.09,-484 22.09,-484 16.09,-478 16.09,-472 16.09,-472 16.09,-460 16.09,-460 16.09,-454 22.09,-448 28.09,-448 28.09,-448 107.91,-448 107.91,-448 113.91,-448 119.91,-454 119.91,-460 119.91,-460 119.91,-472 119.91,-472 119.91,-478 113.91,-484 107.91,-484"/>
<text xml:space="preserve" text-anchor="middle" x="68" y="-463" font-family="Helvetica,sans-Serif" font-size="10.00">hermite_normalized</text>
</a>
</g>
</g>
<!-- n2&#45;&gt;n1 -->
<g id="edge1" class="edge">
<title>n2&#45;&gt;n1</title>
<path fill="none" stroke="#64748b" d="M56.33,-447.92C36.57,-416.7 1.54,-349.44 32,-304 50.61,-276.24 86.65,-263.01 115.92,-256.71"/>
<polygon fill="#64748b" stroke="#64748b" points="116.1,-259.17 122.49,-255.4 115.14,-254.36 116.1,-259.17"/>
</g>
<!-- n3 -->
<g id="node4" class="node">
<title>n3</title>
<g id="a_node4"><a xlink:href="https://github.com/statopia/statlib/blob/main/Statlib/StatFoundation/RandomVariable/Gaussian/Hermite.lean#L349" xlink:title="private lemma · Statlib/StatFoundation/RandomVariable/Gaussian/Hermite.lean:349" target="_blank">
<path fill="#eef2f6" stroke="#94a3b8" d="M784.01,-268C784.01,-268 597.99,-268 597.99,-268 591.99,-268 585.99,-262 585.99,-256 585.99,-256 585.99,-244 585.99,-244 585.99,-238 591.99,-232 597.99,-232 597.99,-232 784.01,-232 784.01,-232 790.01,-232 796.01,-238 796.01,-244 796.01,-244 796.01,-256 796.01,-256 796.01,-262 790.01,-268 784.01,-268"/>
<text xml:space="preserve" text-anchor="middle" x="691" y="-247" font-family="Helvetica,sans-Serif" font-size="10.00">integral_standardReal_eq_integral_mul_pdf</text>
</a>
</g>
</g>
<!-- n3&#45;&gt;n0 -->
<g id="edge2" class="edge">
<title>n3&#45;&gt;n0</title>
<path fill="none" stroke="#64748b" d="M739.5,-231.61C755.28,-223.37 771.02,-211.79 780,-196 787.91,-182.09 789.82,-172.63 780,-160 760.37,-134.74 673.52,-119.52 618.44,-112.24"/>
<polygon fill="#64748b" stroke="#64748b" points="618.98,-109.84 611.72,-111.37 618.35,-114.7 618.98,-109.84"/>
</g>
<!-- n4 -->
<g id="node5" class="node">
<title>n4</title>
<g id="a_node5"><a xlink:href="https://github.com/statopia/statlib/blob/main/Statlib/StatFoundation/RandomVariable/Gaussian/Hermite.lean#L60" xlink:title="lemma · Statlib/StatFoundation/RandomVariable/Gaussian/Hermite.lean:60" target="_blank">
<path fill="#eef2f6" stroke="#94a3b8" d="M171.86,-340C171.86,-340 68.14,-340 68.14,-340 62.14,-340 56.14,-334 56.14,-328 56.14,-328 56.14,-316 56.14,-316 56.14,-310 62.14,-304 68.14,-304 68.14,-304 171.86,-304 171.86,-304 177.86,-304 183.86,-310 183.86,-316 183.86,-316 183.86,-328 183.86,-328 183.86,-334 177.86,-340 171.86,-340"/>
<text xml:space="preserve" text-anchor="middle" x="120" y="-319" font-family="Helvetica,sans-Serif" font-size="10.00">hasDerivAt_hermite_eval</text>
</a>
</g>
</g>
<!-- n4&#45;&gt;n1 -->
<g id="edge3" class="edge">
<title>n4&#45;&gt;n1</title>
<path fill="none" stroke="#64748b" d="M130.13,-303.7C135.15,-295.14 141.29,-284.66 146.76,-275.3"/>
<polygon fill="#64748b" stroke="#64748b" points="148.79,-276.69 150.22,-269.41 144.56,-274.21 148.79,-276.69"/>
</g>
<!-- n5 -->
<g id="node6" class="node">
<title>n5</title>
<g id="a_node6"><a xlink:href="https://github.com/statopia/statlib/blob/main/Statlib/StatFoundation/RandomVariable/Gaussian/Standard.lean#L178" xlink:title="lemma · Statlib/StatFoundation/RandomVariable/Gaussian/Standard.lean:178" target="_blank">
<path fill="#eef2f6" stroke="#94a3b8" d="M402.1,-340C402.1,-340 233.9,-340 233.9,-340 227.9,-340 221.9,-334 221.9,-328 221.9,-328 221.9,-316 221.9,-316 221.9,-310 227.9,-304 233.9,-304 233.9,-304 402.1,-304 402.1,-304 408.1,-304 414.1,-310 414.1,-316 414.1,-316 414.1,-328 414.1,-328 414.1,-334 408.1,-340 402.1,-340"/>
<text xml:space="preserve" text-anchor="middle" x="318" y="-319" font-family="Helvetica,sans-Serif" font-size="10.00">hasDerivAt_standardGaussianPDFReal</text>
</a>
</g>
</g>
<!-- n6 -->
<g id="node7" class="node">
<title>n6</title>
<g id="a_node7"><a xlink:href="https://github.com/statopia/statlib/blob/main/Statlib/StatFoundation/RandomVariable/Gaussian/Hermite.lean#L335" xlink:title="private lemma · Statlib/StatFoundation/RandomVariable/Gaussian/Hermite.lean:335" target="_blank">
<path fill="#eef2f6" stroke="#94a3b8" d="M350.49,-412C350.49,-412 159.51,-412 159.51,-412 153.51,-412 147.51,-406 147.51,-400 147.51,-400 147.51,-388 147.51,-388 147.51,-382 153.51,-376 159.51,-376 159.51,-376 350.49,-376 350.49,-376 356.49,-376 362.49,-382 362.49,-388 362.49,-388 362.49,-400 362.49,-400 362.49,-406 356.49,-412 350.49,-412"/>
<text xml:space="preserve" text-anchor="middle" x="255" y="-391" font-family="Helvetica,sans-Serif" font-size="10.00">hasDerivAt_hermite_eval_mul_gaussianPDF</text>
</a>
</g>
</g>
<!-- n6&#45;&gt;n1 -->
<g id="edge4" class="edge">
<title>n6&#45;&gt;n1</title>
<path fill="none" stroke="#64748b" d="M240.26,-375.87C231.84,-365.75 221.34,-352.5 213,-340 202.84,-324.78 202.18,-319.84 193,-304 187.53,-294.55 181.36,-284.26 175.91,-275.28"/>
<polygon fill="#64748b" stroke="#64748b" points="178.05,-274.09 172.32,-269.39 173.87,-276.64 178.05,-274.09"/>
</g>
<!-- n6&#45;&gt;n4 -->
<g id="edge5" class="edge">
<title>n6&#45;&gt;n4</title>
<path fill="none" stroke="#64748b" d="M221.28,-375.52C202.94,-366.01 180.12,-354.17 160.79,-344.15"/>
<polygon fill="#64748b" stroke="#64748b" points="161.97,-342 154.63,-340.96 159.72,-346.35 161.97,-342"/>
</g>
<!-- n6&#45;&gt;n5 -->
<g id="edge6" class="edge">
<title>n6&#45;&gt;n5</title>
<path fill="none" stroke="#64748b" d="M270.57,-375.7C278.58,-366.8 288.46,-355.82 297.12,-346.2"/>
<polygon fill="#64748b" stroke="#64748b" points="298.73,-348.07 301.59,-341.23 295.09,-344.79 298.73,-348.07"/>
</g>
<!-- n7 -->
<g id="node8" class="node">
<title>n7</title>
<g id="a_node8"><a xlink:href="https://github.com/statopia/statlib/blob/main/Statlib/StatFoundation/RandomVariable/Gaussian/Hermite.lean#L320" xlink:title="private lemma · Statlib/StatFoundation/RandomVariable/Gaussian/Hermite.lean:320" target="_blank">
<path fill="#eef2f6" stroke="#94a3b8" d="M743.57,-196C743.57,-196 536.43,-196 536.43,-196 530.43,-196 524.43,-190 524.43,-184 524.43,-184 524.43,-172 524.43,-172 524.43,-166 530.43,-160 536.43,-160 536.43,-160 743.57,-160 743.57,-160 749.57,-160 755.57,-166 755.57,-172 755.57,-172 755.57,-184 755.57,-184 755.57,-190 749.57,-196 743.57,-196"/>
<text xml:space="preserve" text-anchor="middle" x="640" y="-175" font-family="Helvetica,sans-Serif" font-size="10.00">integrable_mul_gaussianPDFReal_of_integrable</text>
</a>
</g>
</g>
<!-- n7&#45;&gt;n0 -->
<g id="edge7" class="edge">
<title>n7&#45;&gt;n0</title>
<path fill="none" stroke="#64748b" d="M623.19,-159.7C614.54,-150.8 603.89,-139.82 594.54,-130.2"/>
<polygon fill="#64748b" stroke="#64748b" points="596.31,-128.5 589.67,-125.19 592.79,-131.92 596.31,-128.5"/>
</g>
<!-- n8 -->
<g id="node9" class="node">
<title>n8</title>
<g id="a_node9"><a xlink:href="https://github.com/statopia/statlib/blob/main/Statlib/StatFoundation/RandomVariable/Gaussian/Standard.lean#L114" xlink:title="private lemma · Statlib/StatFoundation/RandomVariable/Gaussian/Standard.lean:114" target="_blank">
<path fill="#eef2f6" stroke="#94a3b8" d="M447.22,-52C447.22,-52 296.78,-52 296.78,-52 290.78,-52 284.78,-46 284.78,-40 284.78,-40 284.78,-28 284.78,-28 284.78,-22 290.78,-16 296.78,-16 296.78,-16 447.22,-16 447.22,-16 453.22,-16 459.22,-22 459.22,-28 459.22,-28 459.22,-40 459.22,-40 459.22,-46 453.22,-52 447.22,-52"/>
<text xml:space="preserve" text-anchor="middle" x="372" y="-31" font-family="Helvetica,sans-Serif" font-size="10.00">memLp_pow_id_gaussianReal_aux</text>
</a>
</g>
</g>
<!-- n9 -->
<g id="node10" class="node">
<title>n9</title>
<g id="a_node10"><a xlink:href="https://github.com/statopia/statlib/blob/main/Statlib/StatFoundation/RandomVariable/Gaussian/Standard.lean#L139" xlink:title="lemma · Statlib/StatFoundation/RandomVariable/Gaussian/Standard.lean:139" target="_blank">
<path fill="#eef2f6" stroke="#94a3b8" d="M436.38,-124C436.38,-124 307.62,-124 307.62,-124 301.62,-124 295.62,-118 295.62,-112 295.62,-112 295.62,-100 295.62,-100 295.62,-94 301.62,-88 307.62,-88 307.62,-88 436.38,-88 436.38,-88 442.38,-88 448.38,-94 448.38,-100 448.38,-100 448.38,-112 448.38,-112 448.38,-118 442.38,-124 436.38,-124"/>
<text xml:space="preserve" text-anchor="middle" x="372" y="-103" font-family="Helvetica,sans-Serif" font-size="10.00">memLp_pow_id_gaussianReal</text>
</a>
</g>
</g>
<!-- n9&#45;&gt;n8 -->
<g id="edge8" class="edge">
<title>n9&#45;&gt;n8</title>
<path fill="none" stroke="#64748b" d="M372,-87.7C372,-79.47 372,-69.48 372,-60.42"/>
<polygon fill="#64748b" stroke="#64748b" points="374.45,-60.62 372,-53.62 369.55,-60.62 374.45,-60.62"/>
</g>
<!-- n10 -->
<g id="node11" class="node">
<title>n10</title>
<g id="a_node11"><a xlink:href="https://github.com/statopia/statlib/blob/main/Statlib/StatFoundation/RandomVariable/Gaussian/Standard.lean#L144" xlink:title="lemma · Statlib/StatFoundation/RandomVariable/Gaussian/Standard.lean:144" target="_blank">
<path fill="#eef2f6" stroke="#94a3b8" d="M433.59,-196C433.59,-196 310.41,-196 310.41,-196 304.41,-196 298.41,-190 298.41,-184 298.41,-184 298.41,-172 298.41,-172 298.41,-166 304.41,-160 310.41,-160 310.41,-160 433.59,-160 433.59,-160 439.59,-160 445.59,-166 445.59,-172 445.59,-172 445.59,-184 445.59,-184 445.59,-190 439.59,-196 433.59,-196"/>
<text xml:space="preserve" text-anchor="middle" x="372" y="-175" font-family="Helvetica,sans-Serif" font-size="10.00">memLp_polynomial_standard</text>
</a>
</g>
</g>
<!-- n10&#45;&gt;n0 -->
<g id="edge9" class="edge">
<title>n10&#45;&gt;n0</title>
<path fill="none" stroke="#64748b" d="M421.95,-159.52C453.95,-148.32 495.16,-133.89 526.29,-123"/>
<polygon fill="#64748b" stroke="#64748b" points="526.75,-125.43 532.55,-120.81 525.14,-120.81 526.75,-125.43"/>
</g>
<!-- n10&#45;&gt;n9 -->
<g id="edge10" class="edge">
<title>n10&#45;&gt;n9</title>
<path fill="none" stroke="#64748b" d="M372,-159.7C372,-151.47 372,-141.48 372,-132.42"/>
<polygon fill="#64748b" stroke="#64748b" points="374.45,-132.62 372,-125.62 369.55,-132.62 374.45,-132.62"/>
</g>
<!-- n11 -->
<g id="node12" class="node">
<title>n11</title>
<g id="a_node12"><a xlink:href="https://github.com/statopia/statlib/blob/main/Statlib/StatFoundation/RandomVariable/Gaussian/Hermite.lean#L43" xlink:title="lemma · Statlib/StatFoundation/RandomVariable/Gaussian/Hermite.lean:43" target="_blank">
<path fill="#eef2f6" stroke="#94a3b8" d="M454.16,-268C454.16,-268 289.84,-268 289.84,-268 283.84,-268 277.84,-262 277.84,-256 277.84,-256 277.84,-244 277.84,-244 277.84,-238 283.84,-232 289.84,-232 289.84,-232 454.16,-232 454.16,-232 460.16,-232 466.16,-238 466.16,-244 466.16,-244 466.16,-256 466.16,-256 466.16,-262 460.16,-268 454.16,-268"/>
<text xml:space="preserve" text-anchor="middle" x="372" y="-247" font-family="Helvetica,sans-Serif" font-size="10.00">memLp_aeval_intPolynomial_standard</text>
</a>
</g>
</g>
<!-- n11&#45;&gt;n0 -->
<g id="edge11" class="edge">
<title>n11&#45;&gt;n0</title>
<path fill="none" stroke="#64748b" d="M405.68,-231.59C421.69,-222.34 440.46,-209.99 455,-196 469.04,-182.49 465.66,-173.18 480,-160 493.77,-147.34 511.08,-136.4 526.95,-127.79"/>
<polygon fill="#64748b" stroke="#64748b" points="527.74,-130.14 532.79,-124.71 525.46,-125.81 527.74,-130.14"/>
</g>
<!-- n11&#45;&gt;n10 -->
<g id="edge12" class="edge">
<title>n11&#45;&gt;n10</title>
<path fill="none" stroke="#64748b" d="M372,-231.7C372,-223.47 372,-213.48 372,-204.42"/>
<polygon fill="#64748b" stroke="#64748b" points="374.45,-204.62 372,-197.62 369.55,-204.62 374.45,-204.62"/>
</g>
<!-- n12 -->
<g id="node13" class="node">
<title>n12</title>
<g id="a_node13"><a xlink:href="https://github.com/statopia/statlib/blob/main/Statlib/StatFoundation/RandomVariable/Gaussian/Hermite.lean#L292" xlink:title="lemma · Statlib/StatFoundation/RandomVariable/Gaussian/Hermite.lean:292" target="_blank">
<path fill="#eef2f6" stroke="#94a3b8" d="M703.96,-340C703.96,-340 484.04,-340 484.04,-340 478.04,-340 472.04,-334 472.04,-328 472.04,-328 472.04,-316 472.04,-316 472.04,-310 478.04,-304 484.04,-304 484.04,-304 703.96,-304 703.96,-304 709.96,-304 715.96,-310 715.96,-316 715.96,-316 715.96,-328 715.96,-328 715.96,-334 709.96,-340 703.96,-340"/>
<text xml:space="preserve" text-anchor="middle" x="594" y="-319" font-family="Helvetica,sans-Serif" font-size="10.00">integrable_mul_intPolynomial_of_memLp_standard</text>
</a>
</g>
</g>
<!-- n12&#45;&gt;n0 -->
<g id="edge13" class="edge">
<title>n12&#45;&gt;n0</title>
<path fill="none" stroke="#64748b" d="M552.52,-303.62C537.12,-295.11 520.98,-283.33 511,-268 493.34,-240.87 502.45,-228.28 500,-196 498.79,-180.05 492.78,-174.28 500,-160 506.38,-147.38 517.34,-137.03 528.81,-128.93"/>
<polygon fill="#64748b" stroke="#64748b" points="529.86,-131.18 534.33,-125.26 527.15,-127.09 529.86,-131.18"/>
</g>
<!-- n12&#45;&gt;n11 -->
<g id="edge14" class="edge">
<title>n12&#45;&gt;n11</title>
<path fill="none" stroke="#64748b" d="M538.55,-303.52C507.05,-293.58 467.49,-281.11 434.84,-270.81"/>
<polygon fill="#64748b" stroke="#64748b" points="435.98,-268.61 428.57,-268.84 434.51,-273.28 435.98,-268.61"/>
</g>
<!-- n13 -->
<g id="node14" class="node">
<title>n13</title>
<g id="a_node14"><a xlink:href="https://github.com/statopia/statlib/blob/main/Statlib/StatFoundation/RandomVariable/Gaussian/Hermite.lean#L311" xlink:title="lemma · Statlib/StatFoundation/RandomVariable/Gaussian/Hermite.lean:311" target="_blank">
<path fill="#eef2f6" stroke="#94a3b8" d="M702.85,-412C702.85,-412 485.15,-412 485.15,-412 479.15,-412 473.15,-406 473.15,-400 473.15,-400 473.15,-388 473.15,-388 473.15,-382 479.15,-376 485.15,-376 485.15,-376 702.85,-376 702.85,-376 708.85,-376 714.85,-382 714.85,-388 714.85,-388 714.85,-400 714.85,-400 714.85,-406 708.85,-412 702.85,-412"/>
<text xml:space="preserve" text-anchor="middle" x="594" y="-391" font-family="Helvetica,sans-Serif" font-size="10.00">integrable_mul_hermite_eval_of_memLp_standard</text>
</a>
</g>
</g>
<!-- n13&#45;&gt;n0 -->
<g id="edge15" class="edge">
<title>n13&#45;&gt;n0</title>
<path fill="none" stroke="#64748b" d="M678.72,-375.51C696.91,-367.69 713.96,-356.38 725,-340 733.94,-326.73 735.16,-316.36 725,-304 672.35,-239.98 605.23,-321.6 542,-268 504.26,-236.01 495.24,-205.36 515,-160 520.09,-148.32 529.15,-138.06 538.58,-129.75"/>
<polygon fill="#64748b" stroke="#64748b" points="540.14,-131.65 543.96,-125.29 537.01,-127.88 540.14,-131.65"/>
</g>
<!-- n13&#45;&gt;n1 -->
<g id="edge16" class="edge">
<title>n13&#45;&gt;n1</title>
<path fill="none" stroke="#64748b" d="M530.38,-375.62C507.56,-367.32 482.65,-355.7 463,-340 447.78,-327.84 454.33,-314.62 438,-304 428.3,-297.69 281.77,-271.78 205.86,-258.67"/>
<polygon fill="#64748b" stroke="#64748b" points="206.66,-256.32 199.35,-257.55 205.83,-261.15 206.66,-256.32"/>
</g>
<!-- n13&#45;&gt;n12 -->
<g id="edge17" class="edge">
<title>n13&#45;&gt;n12</title>
<path fill="none" stroke="#64748b" d="M594,-375.7C594,-367.47 594,-357.48 594,-348.42"/>
<polygon fill="#64748b" stroke="#64748b" points="596.45,-348.62 594,-341.62 591.55,-348.62 596.45,-348.62"/>
</g>
<!-- n14 -->
<g id="node15" class="node">
<title>n14</title>
<g id="a_node15"><a xlink:href="https://github.com/statopia/statlib/blob/main/Statlib/StatFoundation/RandomVariable/Gaussian/Hermite.lean#L365" xlink:title="theorem · Statlib/StatFoundation/RandomVariable/Gaussian/Hermite.lean:365" target="_blank">
<path fill="#ffe6a3" stroke="#d4a017" d="M662.26,-484C662.26,-484 525.74,-484 525.74,-484 519.74,-484 513.74,-478 513.74,-472 513.74,-472 513.74,-460 513.74,-460 513.74,-454 519.74,-448 525.74,-448 525.74,-448 662.26,-448 662.26,-448 668.26,-448 674.26,-454 674.26,-460 674.26,-460 674.26,-472 674.26,-472 674.26,-478 668.26,-484 662.26,-484"/>
<text xml:space="preserve" text-anchor="middle" x="594" y="-463" font-family="Helvetica,sans-Serif" font-size="10.00">integral_deriv_mul_hermite_eval</text>
</a>
</g>
</g>
<!-- n14&#45;&gt;n0 -->
<g id="edge18" class="edge">
<title>n14&#45;&gt;n0</title>
<path fill="none" stroke="#64748b" d="M674.49,-451.63C697.47,-443.83 720.26,-431.51 735,-412 763.99,-373.65 771.13,-341.46 741,-304 694.23,-245.85 623.77,-326.15 577,-268 566.97,-255.53 566.81,-244.33 577,-232 631.2,-166.43 710.8,-261.57 765,-196 808.49,-143.39 688.36,-120.34 618.36,-111.6"/>
<polygon fill="#64748b" stroke="#64748b" points="618.83,-109.19 611.59,-110.79 618.25,-114.06 618.83,-109.19"/>
</g>
<!-- n14&#45;&gt;n1 -->
<g id="edge19" class="edge">
<title>n14&#45;&gt;n1</title>
<path fill="none" stroke="#64748b" d="M521.92,-447.5C501.09,-439.53 479.75,-428.13 464,-412 459.52,-407.41 427.89,-308.15 423,-304 414.73,-296.98 278.68,-271.92 205.99,-258.94"/>
<polygon fill="#64748b" stroke="#64748b" points="206.69,-256.57 199.37,-257.76 205.83,-261.4 206.69,-256.57"/>
</g>
<!-- n14&#45;&gt;n3 -->
<g id="edge20" class="edge">
<title>n14&#45;&gt;n3</title>
<path fill="none" stroke="#64748b" d="M674.76,-451.88C718.72,-442.92 766.8,-429.49 780,-412 808.92,-373.69 803.72,-345.73 780,-304 772.43,-290.68 760.03,-280.35 746.87,-272.5"/>
<polygon fill="#64748b" stroke="#64748b" points="748.13,-270.4 740.82,-269.13 745.74,-274.68 748.13,-270.4"/>
</g>
<!-- n14&#45;&gt;n6 -->
<g id="edge21" class="edge">
<title>n14&#45;&gt;n6</title>
<path fill="none" stroke="#64748b" d="M513.66,-448.41C463.85,-438.13 399.69,-424.88 347.72,-414.15"/>
<polygon fill="#64748b" stroke="#64748b" points="348.33,-411.77 340.97,-412.75 347.33,-416.57 348.33,-411.77"/>
</g>
<!-- n14&#45;&gt;n7 -->
<g id="edge22" class="edge">
<title>n14&#45;&gt;n7</title>
<path fill="none" stroke="#64748b" d="M673.5,-447.54C692.68,-439.69 711.28,-428.36 724,-412 743.83,-386.49 731.77,-372.23 734,-340 735.1,-324.04 744.09,-316.42 734,-304 684.76,-243.38 611.24,-328.62 562,-268 551.91,-255.58 554.51,-246.14 562,-232 568.79,-219.18 580.22,-208.88 592.27,-200.9"/>
<polygon fill="#64748b" stroke="#64748b" points="593.47,-203.04 598.12,-197.27 590.88,-198.88 593.47,-203.04"/>
</g>
<!-- n14&#45;&gt;n13 -->
<g id="edge23" class="edge">
<title>n14&#45;&gt;n13</title>
<path fill="none" stroke="#64748b" d="M594,-447.7C594,-439.47 594,-429.48 594,-420.42"/>
<polygon fill="#64748b" stroke="#64748b" points="596.45,-420.62 594,-413.62 591.55,-420.62 596.45,-420.62"/>
</g>
<!-- n15 -->
<g id="node16" class="node">
<title>n15</title>
<g id="a_node16"><a xlink:href="https://github.com/statopia/statlib/blob/main/Statlib/StatFoundation/RandomVariable/Gaussian/Hermite.lean#L407" xlink:title="theorem · Statlib/StatFoundation/RandomVariable/Gaussian/Hermite.lean:407" target="_blank">
<path fill="#ffe6a3" stroke="#d4a017" stroke-width="3" d="M449.54,-556C449.54,-556 282.46,-556 282.46,-556 276.46,-556 270.46,-550 270.46,-544 270.46,-544 270.46,-532 270.46,-532 270.46,-526 276.46,-520 282.46,-520 282.46,-520 449.54,-520 449.54,-520 455.54,-520 461.54,-526 461.54,-532 461.54,-532 461.54,-544 461.54,-544 461.54,-550 455.54,-556 449.54,-556"/>
<text xml:space="preserve" text-anchor="middle" x="366" y="-535" font-family="Helvetica,sans-Serif" font-size="10.00">integral_deriv_mul_hermite_normalized</text>
</a>
</g>
</g>
<!-- n15&#45;&gt;n0 -->
<g id="edge24" class="edge">
<title>n15&#45;&gt;n0</title>
<path fill="none" stroke="#64748b" d="M463.03,-531.1C527.22,-524.72 612.26,-511.48 683,-484 748.95,-458.38 815,-465.76 815,-395 815,-395 815,-395 815,-249 815,-207.66 818.01,-188.43 788,-160 763.87,-137.14 674.51,-121.06 618.56,-112.97"/>
<polygon fill="#64748b" stroke="#64748b" points="619,-110.56 611.72,-112.01 618.31,-115.41 619,-110.56"/>
</g>
<!-- n15&#45;&gt;n1 -->
<g id="edge26" class="edge">
<title>n15&#45;&gt;n1</title>
<path fill="none" stroke="#64748b" d="M297.56,-518.58C219.14,-493.23 95.25,-439.04 47,-340 39.99,-325.62 38.4,-317.49 47,-304 62.2,-280.17 91.19,-266.89 116.13,-259.58"/>
<polygon fill="#64748b" stroke="#64748b" points="116.5,-262.02 122.6,-257.81 115.2,-257.29 116.5,-262.02"/>
</g>
<!-- n15&#45;&gt;n2 -->
<g id="edge25" class="edge">
<title>n15&#45;&gt;n2</title>
<path fill="none" stroke="#64748b" d="M282.65,-518.54C238.42,-508.6 183.18,-495.95 134,-484 132.18,-483.56 130.33,-483.1 128.46,-482.64"/>
<polygon fill="#64748b" stroke="#64748b" points="129.06,-480.27 121.67,-480.95 127.87,-485.02 129.06,-480.27"/>
</g>
<!-- n15&#45;&gt;n14 -->
<g id="edge27" class="edge">
<title>n15&#45;&gt;n14</title>
<path fill="none" stroke="#64748b" d="M426.2,-518.52C457.95,-508.77 496.91,-496.81 529.3,-486.86"/>
<polygon fill="#64748b" stroke="#64748b" points="529.97,-489.22 535.94,-484.83 528.53,-484.54 529.97,-489.22"/>
</g>
</g>
</svg>
