<?xml version="1.0" encoding="UTF-8" standalone="no"?>
<!DOCTYPE svg PUBLIC "-//W3C//DTD SVG 1.1//EN"
 "http://www.w3.org/Graphics/SVG/1.1/DTD/svg11.dtd">
<!-- Generated by graphviz version 15.0.0 (20260523.1842)
 -->
<!-- Title: isTightMeasureSet_range_map_of_isLittleOInProbability_rate_isBigO_one_proper Pages: 1 -->
<svg width="1087pt" height="410pt"
 viewBox="0.00 0.00 1087.00 410.00" xmlns="http://www.w3.org/2000/svg" xmlns:xlink="http://www.w3.org/1999/xlink">
<g id="graph0" class="graph" transform="scale(1 1) rotate(0) translate(4 406)">
<title>isTightMeasureSet_range_map_of_isLittleOInProbability_rate_isBigO_one_proper</title>
<polygon fill="white" stroke="none" points="-4,4 -4,-406 1083,-406 1083,4 -4,4"/>
<text xml:space="preserve" text-anchor="middle" x="539.5" y="-385.4" font-family="Helvetica,sans-Serif" font-size="14.00">Proof narrative — isTightMeasureSet_range_map_of_isLittleOInProbability_rate_isBigO_one_proper &#160;(13 decls)</text>
<g id="clust1" class="cluster">
<title>cluster_0</title>
<path fill="none" stroke="#cbd5e1" stroke-dasharray="5,2" d="M20,-8C20,-8 1059,-8 1059,-8 1065,-8 1071,-14 1071,-20 1071,-20 1071,-357.2 1071,-357.2 1071,-363.2 1065,-369.2 1059,-369.2 1059,-369.2 20,-369.2 20,-369.2 14,-369.2 8,-363.2 8,-357.2 8,-357.2 8,-20 8,-20 8,-14 14,-8 20,-8"/>
<text xml:space="preserve" text-anchor="middle" x="539.5" y="-355.3" font-family="Helvetica,sans-Serif" font-size="11.00">StatFoundation</text>
</g>
<!-- n0 -->
<g id="node1" class="node">
<title>n0</title>
<g id="a_node1"><a xlink:href="vscode://vscode-remote/wsl+Ubuntu/home/ai4stat/statlib/Statlib/StatFoundation/Vocabulary/StochasticOrder.lean:58" xlink:title="def · Statlib/StatFoundation/Vocabulary/StochasticOrder.lean:58" target="_blank">
<path fill="#d6e9ff" stroke="#3b82f6" d="M975.85,-52C975.85,-52 892.15,-52 892.15,-52 886.15,-52 880.15,-46 880.15,-40 880.15,-40 880.15,-28 880.15,-28 880.15,-22 886.15,-16 892.15,-16 892.15,-16 975.85,-16 975.85,-16 981.85,-16 987.85,-22 987.85,-28 987.85,-28 987.85,-40 987.85,-40 987.85,-46 981.85,-52 975.85,-52"/>
<text xml:space="preserve" text-anchor="middle" x="934" y="-31" font-family="Helvetica,sans-Serif" font-size="10.00">IsLittleOInProbability</text>
</a>
</g>
</g>
<!-- n1 -->
<g id="node2" class="node">
<title>n1</title>
<g id="a_node2"><a xlink:href="vscode://vscode-remote/wsl+Ubuntu/home/ai4stat/statlib/Statlib/StatFoundation/Vocabulary/StochasticOrder.lean:48" xlink:title="def · Statlib/StatFoundation/Vocabulary/StochasticOrder.lean:48" target="_blank">
<path fill="#d6e9ff" stroke="#3b82f6" d="M448.52,-124C448.52,-124 371.48,-124 371.48,-124 365.48,-124 359.48,-118 359.48,-112 359.48,-112 359.48,-100 359.48,-100 359.48,-94 365.48,-88 371.48,-88 371.48,-88 448.52,-88 448.52,-88 454.52,-88 460.52,-94 460.52,-100 460.52,-100 460.52,-112 460.52,-112 460.52,-118 454.52,-124 448.52,-124"/>
<text xml:space="preserve" text-anchor="middle" x="410" y="-103" font-family="Helvetica,sans-Serif" font-size="10.00">IsBigOInProbability</text>
</a>
</g>
</g>
<!-- n2 -->
<g id="node3" class="node">
<title>n2</title>
<g id="a_node3"><a xlink:href="vscode://vscode-remote/wsl+Ubuntu/home/ai4stat/statlib/Statlib/StatFoundation/Vocabulary/StochasticOrder.lean:64" xlink:title="abbrev · Statlib/StatFoundation/Vocabulary/StochasticOrder.lean:64" target="_blank">
<path fill="#d6e9ff" stroke="#3b82f6" d="M457.42,-196C457.42,-196 362.58,-196 362.58,-196 356.58,-196 350.58,-190 350.58,-184 350.58,-184 350.58,-172 350.58,-172 350.58,-166 356.58,-160 362.58,-160 362.58,-160 457.42,-160 457.42,-160 463.42,-160 469.42,-166 469.42,-172 469.42,-172 469.42,-184 469.42,-184 469.42,-190 463.42,-196 457.42,-196"/>
<text xml:space="preserve" text-anchor="middle" x="410" y="-175" font-family="Helvetica,sans-Serif" font-size="10.00">IsBoundedInProbability</text>
</a>
</g>
</g>
<!-- n2&#45;&gt;n1 -->
<g id="edge1" class="edge">
<title>n2&#45;&gt;n1</title>
<path fill="none" stroke="#64748b" d="M410,-159.7C410,-151.47 410,-141.48 410,-132.42"/>
<polygon fill="#64748b" stroke="#64748b" points="412.45,-132.62 410,-125.62 407.55,-132.62 412.45,-132.62"/>
</g>
<!-- n3 -->
<g id="node4" class="node">
<title>n3</title>
<g id="a_node4"><a xlink:href="vscode://vscode-remote/wsl+Ubuntu/home/ai4stat/statlib/Statlib/StatFoundation/Vocabulary/StochasticOrder.lean:25" xlink:title="lemma · Statlib/StatFoundation/Vocabulary/StochasticOrder.lean:25" target="_blank">
<path fill="#eef2f6" stroke="#94a3b8" d="M320.65,-124C320.65,-124 211.35,-124 211.35,-124 205.35,-124 199.35,-118 199.35,-112 199.35,-112 199.35,-100 199.35,-100 199.35,-94 205.35,-88 211.35,-88 211.35,-88 320.65,-88 320.65,-88 326.65,-88 332.65,-94 332.65,-100 332.65,-100 332.65,-112 332.65,-112 332.65,-118 326.65,-124 320.65,-124"/>
<text xml:space="preserve" text-anchor="middle" x="266" y="-103" font-family="Helvetica,sans-Serif" font-size="10.00">exists_pos_real_ofReal_le</text>
</a>
</g>
</g>
<!-- n4 -->
<g id="node5" class="node">
<title>n4</title>
<g id="a_node5"><a xlink:href="vscode://vscode-remote/wsl+Ubuntu/home/ai4stat/statlib/Statlib/StatFoundation/Convergence/AnalysisTools/Tightness.lean:113" xlink:title="theorem · Statlib/StatFoundation/Convergence/AnalysisTools/Tightness.lean:113" target="_blank">
<path fill="#ffe6a3" stroke="#d4a017" d="M164.48,-52C164.48,-52 43.52,-52 43.52,-52 37.52,-52 31.52,-46 31.52,-40 31.52,-40 31.52,-28 31.52,-28 31.52,-22 37.52,-16 43.52,-16 43.52,-16 164.48,-16 164.48,-16 170.48,-16 176.48,-22 176.48,-28 176.48,-28 176.48,-40 176.48,-40 176.48,-46 170.48,-52 164.48,-52"/>
<text xml:space="preserve" text-anchor="middle" x="104" y="-31" font-family="Helvetica,sans-Serif" font-size="10.00">isTightMeasureSet_singleton</text>
</a>
</g>
</g>
<!-- n5 -->
<g id="node6" class="node">
<title>n5</title>
<g id="a_node6"><a xlink:href="vscode://vscode-remote/wsl+Ubuntu/home/ai4stat/statlib/Statlib/StatFoundation/Convergence/AnalysisTools/Tightness.lean:40" xlink:title="theorem · Statlib/StatFoundation/Convergence/AnalysisTools/Tightness.lean:40" target="_blank">
<path fill="#ffe6a3" stroke="#d4a017" d="M169.76,-124C169.76,-124 38.24,-124 38.24,-124 32.24,-124 26.24,-118 26.24,-112 26.24,-112 26.24,-100 26.24,-100 26.24,-94 32.24,-88 38.24,-88 38.24,-88 169.76,-88 169.76,-88 175.76,-88 181.76,-94 181.76,-100 181.76,-100 181.76,-112 181.76,-112 181.76,-118 175.76,-124 169.76,-124"/>
<text xml:space="preserve" text-anchor="middle" x="104" y="-103" font-family="Helvetica,sans-Serif" font-size="10.00">isTightMeasureSet_finiteRange</text>
</a>
</g>
</g>
<!-- n5&#45;&gt;n4 -->
<g id="edge2" class="edge">
<title>n5&#45;&gt;n4</title>
<path fill="none" stroke="#64748b" d="M104,-87.7C104,-79.47 104,-69.48 104,-60.42"/>
<polygon fill="#64748b" stroke="#64748b" points="106.45,-60.62 104,-53.62 101.55,-60.62 106.45,-60.62"/>
</g>
<!-- n6 -->
<g id="node7" class="node">
<title>n6</title>
<g id="a_node7"><a xlink:href="vscode://vscode-remote/wsl+Ubuntu/home/ai4stat/statlib/Statlib/StatFoundation/Convergence/AnalysisTools/Tightness.lean:313" xlink:title="theorem · Statlib/StatFoundation/Convergence/AnalysisTools/Tightness.lean:313" target="_blank">
<path fill="#ffe6a3" stroke="#d4a017" d="M320.09,-196C320.09,-196 27.91,-196 27.91,-196 21.91,-196 15.91,-190 15.91,-184 15.91,-184 15.91,-172 15.91,-172 15.91,-166 21.91,-160 27.91,-160 27.91,-160 320.09,-160 320.09,-160 326.09,-160 332.09,-166 332.09,-172 332.09,-172 332.09,-184 332.09,-184 332.09,-190 326.09,-196 320.09,-196"/>
<text xml:space="preserve" text-anchor="middle" x="174" y="-175" font-family="Helvetica,sans-Serif" font-size="10.00">isTightMeasureSet_range_map_of_isBigOInProbability_one_proper</text>
</a>
</g>
</g>
<!-- n6&#45;&gt;n1 -->
<g id="edge3" class="edge">
<title>n6&#45;&gt;n1</title>
<path fill="none" stroke="#64748b" d="M232.94,-159.52C268.99,-148.82 314.95,-135.19 351,-124.5"/>
<polygon fill="#64748b" stroke="#64748b" points="351.54,-126.9 357.55,-122.56 350.15,-122.2 351.54,-126.9"/>
</g>
<!-- n6&#45;&gt;n3 -->
<g id="edge4" class="edge">
<title>n6&#45;&gt;n3</title>
<path fill="none" stroke="#64748b" d="M196.74,-159.7C208.79,-150.53 223.74,-139.16 236.66,-129.33"/>
<polygon fill="#64748b" stroke="#64748b" points="237.91,-131.45 242,-125.26 234.94,-127.55 237.91,-131.45"/>
</g>
<!-- n6&#45;&gt;n5 -->
<g id="edge5" class="edge">
<title>n6&#45;&gt;n5</title>
<path fill="none" stroke="#64748b" d="M156.7,-159.7C147.71,-150.71 136.61,-139.61 126.92,-129.92"/>
<polygon fill="#64748b" stroke="#64748b" points="128.86,-128.39 122.17,-125.17 125.39,-131.86 128.86,-128.39"/>
</g>
<!-- n7 -->
<g id="node8" class="node">
<title>n7</title>
<g id="a_node8"><a xlink:href="vscode://vscode-remote/wsl+Ubuntu/home/ai4stat/statlib/Statlib/StatFoundation/Convergence/AnalysisTools/Tightness.lean:360" xlink:title="theorem · Statlib/StatFoundation/Convergence/AnalysisTools/Tightness.lean:360" target="_blank">
<path fill="#ffe6a3" stroke="#d4a017" d="M553.87,-268C553.87,-268 266.13,-268 266.13,-268 260.13,-268 254.13,-262 254.13,-256 254.13,-256 254.13,-244 254.13,-244 254.13,-238 260.13,-232 266.13,-232 266.13,-232 553.87,-232 553.87,-232 559.87,-232 565.87,-238 565.87,-244 565.87,-244 565.87,-256 565.87,-256 565.87,-262 559.87,-268 553.87,-268"/>
<text xml:space="preserve" text-anchor="middle" x="410" y="-247" font-family="Helvetica,sans-Serif" font-size="10.00">isTightMeasureSet_range_map_of_isBoundedInProbability_proper</text>
</a>
</g>
</g>
<!-- n7&#45;&gt;n2 -->
<g id="edge6" class="edge">
<title>n7&#45;&gt;n2</title>
<path fill="none" stroke="#64748b" d="M410,-231.7C410,-223.47 410,-213.48 410,-204.42"/>
<polygon fill="#64748b" stroke="#64748b" points="412.45,-204.62 410,-197.62 407.55,-204.62 412.45,-204.62"/>
</g>
<!-- n7&#45;&gt;n6 -->
<g id="edge7" class="edge">
<title>n7&#45;&gt;n6</title>
<path fill="none" stroke="#64748b" d="M351.06,-231.52C317.42,-221.54 275.16,-209 240.36,-198.68"/>
<polygon fill="#64748b" stroke="#64748b" points="241.46,-196.45 234.05,-196.81 240.07,-201.15 241.46,-196.45"/>
</g>
<!-- n8 -->
<g id="node9" class="node">
<title>n8</title>
<g id="a_node9"><a xlink:href="vscode://vscode-remote/wsl+Ubuntu/home/ai4stat/statlib/Statlib/StatFoundation/Convergence/AnalysisTools/StochasticOrder/Basic.lean:179" xlink:title="theorem · Statlib/StatFoundation/Convergence/AnalysisTools/StochasticOrder/Basic.lean:179" target="_blank">
<path fill="#ffe6a3" stroke="#d4a017" d="M672.88,-196C672.88,-196 499.12,-196 499.12,-196 493.12,-196 487.12,-190 487.12,-184 487.12,-184 487.12,-172 487.12,-172 487.12,-166 493.12,-160 499.12,-160 499.12,-160 672.88,-160 672.88,-160 678.88,-160 684.88,-166 684.88,-172 684.88,-172 684.88,-184 684.88,-184 684.88,-190 678.88,-196 672.88,-196"/>
<text xml:space="preserve" text-anchor="middle" x="586" y="-175" font-family="Helvetica,sans-Serif" font-size="10.00">IsLittleOInProbability_isBigOInProbability</text>
</a>
</g>
</g>
<!-- n8&#45;&gt;n0 -->
<g id="edge8" class="edge">
<title>n8&#45;&gt;n0</title>
<path fill="none" stroke="#64748b" d="M628.67,-159.59C693.07,-133.31 814.85,-83.62 883.55,-55.59"/>
<polygon fill="#64748b" stroke="#64748b" points="884.3,-57.93 889.85,-53.01 882.44,-53.39 884.3,-57.93"/>
</g>
<!-- n8&#45;&gt;n1 -->
<g id="edge9" class="edge">
<title>n8&#45;&gt;n1</title>
<path fill="none" stroke="#64748b" d="M542.04,-159.52C517.59,-149.79 487.03,-137.64 461.46,-127.47"/>
<polygon fill="#64748b" stroke="#64748b" points="462.52,-125.25 455.11,-124.94 460.71,-129.8 462.52,-125.25"/>
</g>
<!-- n9 -->
<g id="node10" class="node">
<title>n9</title>
<g id="a_node10"><a xlink:href="vscode://vscode-remote/wsl+Ubuntu/home/ai4stat/statlib/Statlib/StatFoundation/Convergence/AnalysisTools/StochasticOrder/RateLittle.lean:12" xlink:title="theorem · Statlib/StatFoundation/Convergence/AnalysisTools/StochasticOrder/RateLittle.lean:12" target="_blank">
<path fill="#ffe6a3" stroke="#d4a017" d="M1011.43,-124C1011.43,-124 856.57,-124 856.57,-124 850.57,-124 844.57,-118 844.57,-112 844.57,-112 844.57,-100 844.57,-100 844.57,-94 850.57,-88 856.57,-88 856.57,-88 1011.43,-88 1011.43,-88 1017.43,-88 1023.43,-94 1023.43,-100 1023.43,-100 1023.43,-112 1023.43,-112 1023.43,-118 1017.43,-124 1011.43,-124"/>
<text xml:space="preserve" text-anchor="middle" x="934" y="-103" font-family="Helvetica,sans-Serif" font-size="10.00">isLittleOInProbability_of_rate_isBigO</text>
</a>
</g>
</g>
<!-- n9&#45;&gt;n0 -->
<g id="edge10" class="edge">
<title>n9&#45;&gt;n0</title>
<path fill="none" stroke="#64748b" d="M934,-87.7C934,-79.47 934,-69.48 934,-60.42"/>
<polygon fill="#64748b" stroke="#64748b" points="936.45,-60.62 934,-53.62 931.55,-60.62 936.45,-60.62"/>
</g>
<!-- n10 -->
<g id="node11" class="node">
<title>n10</title>
<g id="a_node11"><a xlink:href="vscode://vscode-remote/wsl+Ubuntu/home/ai4stat/statlib/Statlib/StatFoundation/Convergence/AnalysisTools/StochasticOrder/ConvergenceBridges.lean:525" xlink:title="theorem · Statlib/StatFoundation/Convergence/AnalysisTools/StochasticOrder/ConvergenceBridges.lean:525" target="_blank">
<path fill="#ffe6a3" stroke="#d4a017" d="M1011.03,-196C1011.03,-196 714.97,-196 714.97,-196 708.97,-196 702.97,-190 702.97,-184 702.97,-184 702.97,-172 702.97,-172 702.97,-166 708.97,-160 714.97,-160 714.97,-160 1011.03,-160 1011.03,-160 1017.03,-160 1023.03,-166 1023.03,-172 1023.03,-172 1023.03,-184 1023.03,-184 1023.03,-190 1017.03,-196 1011.03,-196"/>
<text xml:space="preserve" text-anchor="middle" x="863" y="-175" font-family="Helvetica,sans-Serif" font-size="10.00">isLittleOInProbability_one_of_isLittleOInProbability_rate_isBigO_one</text>
</a>
</g>
</g>
<!-- n10&#45;&gt;n0 -->
<g id="edge11" class="edge">
<title>n10&#45;&gt;n0</title>
<path fill="none" stroke="#64748b" d="M849.79,-159.59C837.34,-140.87 822.44,-110.75 836,-88 844.35,-73.99 857.83,-63.46 872.15,-55.64"/>
<polygon fill="#64748b" stroke="#64748b" points="873.22,-57.84 878.35,-52.48 871,-53.48 873.22,-57.84"/>
</g>
<!-- n10&#45;&gt;n9 -->
<g id="edge12" class="edge">
<title>n10&#45;&gt;n9</title>
<path fill="none" stroke="#64748b" d="M880.55,-159.7C889.66,-150.71 900.92,-139.61 910.75,-129.92"/>
<polygon fill="#64748b" stroke="#64748b" points="912.31,-131.83 915.57,-125.17 908.87,-128.34 912.31,-131.83"/>
</g>
<!-- n11 -->
<g id="node12" class="node">
<title>n11</title>
<g id="a_node12"><a xlink:href="vscode://vscode-remote/wsl+Ubuntu/home/ai4stat/statlib/Statlib/StatFoundation/Convergence/AnalysisTools/StochasticOrder/ConvergenceBridges.lean:558" xlink:title="theorem · Statlib/StatFoundation/Convergence/AnalysisTools/StochasticOrder/ConvergenceBridges.lean:558" target="_blank">
<path fill="#ffe6a3" stroke="#d4a017" d="M942.48,-268C942.48,-268 657.52,-268 657.52,-268 651.52,-268 645.52,-262 645.52,-256 645.52,-256 645.52,-244 645.52,-244 645.52,-238 651.52,-232 657.52,-232 657.52,-232 942.48,-232 942.48,-232 948.48,-232 954.48,-238 954.48,-244 954.48,-244 954.48,-256 954.48,-256 954.48,-262 948.48,-268 942.48,-268"/>
<text xml:space="preserve" text-anchor="middle" x="800" y="-247" font-family="Helvetica,sans-Serif" font-size="10.00">isBoundedInProbability_of_isLittleOInProbability_rate_isBigO_one</text>
</a>
</g>
</g>
<!-- n11&#45;&gt;n0 -->
<g id="edge13" class="edge">
<title>n11&#45;&gt;n0</title>
<path fill="none" stroke="#64748b" d="M941.3,-231.51C982.23,-223.36 1019.35,-211.87 1032,-196 1061.92,-158.47 1056.58,-129.23 1032,-88 1023.65,-73.99 1010.17,-63.46 995.85,-55.64"/>
<polygon fill="#64748b" stroke="#64748b" points="997,-53.48 989.65,-52.48 994.78,-57.84 997,-53.48"/>
</g>
<!-- n11&#45;&gt;n2 -->
<g id="edge14" class="edge">
<title>n11&#45;&gt;n2</title>
<path fill="none" stroke="#64748b" d="M679.15,-231.51C618.55,-222.13 544.16,-209.69 478,-196 477.91,-195.98 477.83,-195.96 477.74,-195.95"/>
<polygon fill="#64748b" stroke="#64748b" points="478.48,-193.6 471.12,-194.52 477.45,-198.39 478.48,-193.6"/>
</g>
<!-- n11&#45;&gt;n8 -->
<g id="edge15" class="edge">
<title>n11&#45;&gt;n8</title>
<path fill="none" stroke="#64748b" d="M746.55,-231.52C716.31,-221.62 678.37,-209.22 646.97,-198.94"/>
<polygon fill="#64748b" stroke="#64748b" points="647.99,-196.7 640.58,-196.85 646.47,-201.36 647.99,-196.7"/>
</g>
<!-- n11&#45;&gt;n10 -->
<g id="edge16" class="edge">
<title>n11&#45;&gt;n10</title>
<path fill="none" stroke="#64748b" d="M815.57,-231.7C823.58,-222.8 833.46,-211.82 842.12,-202.2"/>
<polygon fill="#64748b" stroke="#64748b" points="843.73,-204.07 846.59,-197.23 840.09,-200.79 843.73,-204.07"/>
</g>
<!-- n12 -->
<g id="node13" class="node">
<title>n12</title>
<g id="a_node13"><a xlink:href="vscode://vscode-remote/wsl+Ubuntu/home/ai4stat/statlib/Statlib/StatFoundation/Convergence/AnalysisTools/Tightness.lean:475" xlink:title="theorem · Statlib/StatFoundation/Convergence/AnalysisTools/Tightness.lean:475" target="_blank">
<path fill="#ffe6a3" stroke="#d4a017" stroke-width="3" d="M978.33,-340C978.33,-340 621.67,-340 621.67,-340 615.67,-340 609.67,-334 609.67,-328 609.67,-328 609.67,-316 609.67,-316 609.67,-310 615.67,-304 621.67,-304 621.67,-304 978.33,-304 978.33,-304 984.33,-304 990.33,-310 990.33,-316 990.33,-316 990.33,-328 990.33,-328 990.33,-334 984.33,-340 978.33,-340"/>
<text xml:space="preserve" text-anchor="middle" x="800" y="-319" font-family="Helvetica,sans-Serif" font-size="10.00">isTightMeasureSet_range_map_of_isLittleOInProbability_rate_isBigO_one_proper</text>
</a>
</g>
</g>
<!-- n12&#45;&gt;n0 -->
<g id="edge17" class="edge">
<title>n12&#45;&gt;n0</title>
<path fill="none" stroke="#64748b" d="M896.52,-302.59C953.44,-285.79 1019.4,-254.29 1046,-196 1052.72,-181.27 1056.89,-106.56 1045,-88 1033.76,-70.46 1014.97,-58.59 996.01,-50.61"/>
<polygon fill="#64748b" stroke="#64748b" points="997.01,-48.37 989.6,-48.09 995.21,-52.93 997.01,-48.37"/>
</g>
<!-- n12&#45;&gt;n7 -->
<g id="edge18" class="edge">
<title>n12&#45;&gt;n7</title>
<path fill="none" stroke="#64748b" d="M697.02,-302.52C640.99,-292.46 571.8,-280.04 515.4,-269.92"/>
<polygon fill="#64748b" stroke="#64748b" points="515.99,-267.53 508.66,-268.71 515.12,-272.36 515.99,-267.53"/>
</g>
<!-- n12&#45;&gt;n11 -->
<g id="edge19" class="edge">
<title>n12&#45;&gt;n11</title>
<path fill="none" stroke="#64748b" d="M800,-302.61C800,-294.59 800,-285.05 800,-276.37"/>
<polygon fill="#64748b" stroke="#64748b" points="802.45,-276.58 800,-269.58 797.55,-276.58 802.45,-276.58"/>
</g>
</g>
</svg>
