<?xml version="1.0" encoding="UTF-8" standalone="no"?>
<!DOCTYPE svg PUBLIC "-//W3C//DTD SVG 1.1//EN"
 "http://www.w3.org/Graphics/SVG/1.1/DTD/svg11.dtd">
<!-- Generated by graphviz version 15.0.0 (20260523.1842)
 -->
<!-- Title: lindeberg_feller_central_limit_theorem Pages: 1 -->
<svg width="1237pt" height="554pt"
 viewBox="0.00 0.00 1237.00 554.00" xmlns="http://www.w3.org/2000/svg" xmlns:xlink="http://www.w3.org/1999/xlink">
<g id="graph0" class="graph" transform="scale(1 1) rotate(0) translate(4 550)">
<title>lindeberg_feller_central_limit_theorem</title>
<polygon fill="white" stroke="none" points="-4,4 -4,-550 1233,-550 1233,4 -4,4"/>
<text xml:space="preserve" text-anchor="middle" x="614.5" y="-529.4" font-family="Helvetica,sans-Serif" font-size="14.00">Proof narrative — lindeberg_feller_central_limit_theorem &#160;(21 decls)</text>
<g id="clust1" class="cluster">
<title>cluster_0</title>
<path fill="none" stroke="#cbd5e1" stroke-dasharray="5,2" d="M20,-8C20,-8 1209,-8 1209,-8 1215,-8 1221,-14 1221,-20 1221,-20 1221,-501.2 1221,-501.2 1221,-507.2 1215,-513.2 1209,-513.2 1209,-513.2 20,-513.2 20,-513.2 14,-513.2 8,-507.2 8,-501.2 8,-501.2 8,-20 8,-20 8,-14 14,-8 20,-8"/>
<text xml:space="preserve" text-anchor="middle" x="614.5" y="-499.3" font-family="Helvetica,sans-Serif" font-size="11.00">StatFoundation</text>
</g>
<!-- n0 -->
<g id="node1" class="node">
<title>n0</title>
<g id="a_node1"><a xlink:href="vscode://vscode-remote/wsl+Ubuntu/tmp/statlib-main-refresh.tmBBiR/Statlib/StatFoundation/Convergence/CentralLimitTheorem/LindebergFeller.lean:25" xlink:title="def · Statlib/StatFoundation/Convergence/CentralLimitTheorem/LindebergFeller.lean:25" target="_blank">
<path fill="#d6e9ff" stroke="#3b82f6" d="M260.52,-196C260.52,-196 203.48,-196 203.48,-196 197.48,-196 191.48,-190 191.48,-184 191.48,-184 191.48,-172 191.48,-172 191.48,-166 197.48,-160 203.48,-160 203.48,-160 260.52,-160 260.52,-160 266.52,-160 272.52,-166 272.52,-172 272.52,-172 272.52,-184 272.52,-184 272.52,-190 266.52,-196 260.52,-196"/>
<text xml:space="preserve" text-anchor="middle" x="232" y="-175" font-family="Helvetica,sans-Serif" font-size="10.00">LindebergSum</text>
</a>
</g>
</g>
<!-- n1 -->
<g id="node2" class="node">
<title>n1</title>
<g id="a_node2"><a xlink:href="vscode://vscode-remote/wsl+Ubuntu/tmp/statlib-main-refresh.tmBBiR/Statlib/StatFoundation/Convergence/AnalysisTools/CharacteristicFunction.lean:272" xlink:title="lemma · Statlib/StatFoundation/Convergence/AnalysisTools/CharacteristicFunction.lean:272" target="_blank">
<path fill="#eef2f6" stroke="#94a3b8" d="M259.66,-412C259.66,-412 120.34,-412 120.34,-412 114.34,-412 108.34,-406 108.34,-400 108.34,-400 108.34,-388 108.34,-388 108.34,-382 114.34,-376 120.34,-376 120.34,-376 259.66,-376 259.66,-376 265.66,-376 271.66,-382 271.66,-388 271.66,-388 271.66,-400 271.66,-400 271.66,-406 265.66,-412 259.66,-412"/>
<text xml:space="preserve" text-anchor="middle" x="190" y="-391" font-family="Helvetica,sans-Serif" font-size="10.00">charFun_gaussianReal_standard</text>
</a>
</g>
</g>
<!-- n2 -->
<g id="node3" class="node">
<title>n2</title>
<g id="a_node3"><a xlink:href="vscode://vscode-remote/wsl+Ubuntu/tmp/statlib-main-refresh.tmBBiR/Statlib/StatFoundation/Convergence/CentralLimitTheorem/LindebergFeller.lean:34" xlink:title="lemma · Statlib/StatFoundation/Convergence/CentralLimitTheorem/LindebergFeller.lean:34" target="_blank">
<path fill="#eef2f6" stroke="#94a3b8" d="M190.05,-340C190.05,-340 67.95,-340 67.95,-340 61.95,-340 55.95,-334 55.95,-328 55.95,-328 55.95,-316 55.95,-316 55.95,-310 61.95,-304 67.95,-304 67.95,-304 190.05,-304 190.05,-304 196.05,-304 202.05,-310 202.05,-316 202.05,-316 202.05,-328 202.05,-328 202.05,-334 196.05,-340 190.05,-340"/>
<text xml:space="preserve" text-anchor="middle" x="129" y="-319" font-family="Helvetica,sans-Serif" font-size="10.00">charfun_indep_sum_eq_prod</text>
</a>
</g>
</g>
<!-- n3 -->
<g id="node4" class="node">
<title>n3</title>
<g id="a_node4"><a xlink:href="vscode://vscode-remote/wsl+Ubuntu/tmp/statlib-main-refresh.tmBBiR/Statlib/StatFoundation/Convergence/CentralLimitTheorem/LindebergFeller.lean:274" xlink:title="lemma · Statlib/StatFoundation/Convergence/CentralLimitTheorem/LindebergFeller.lean:274" target="_blank">
<path fill="#eef2f6" stroke="#94a3b8" d="M353.48,-268C353.48,-268 262.52,-268 262.52,-268 256.52,-268 250.52,-262 250.52,-256 250.52,-256 250.52,-244 250.52,-244 250.52,-238 256.52,-232 262.52,-232 262.52,-232 353.48,-232 353.48,-232 359.48,-232 365.48,-238 365.48,-244 365.48,-244 365.48,-256 365.48,-256 365.48,-262 359.48,-268 353.48,-268"/>
<text xml:space="preserve" text-anchor="middle" x="308" y="-247" font-family="Helvetica,sans-Serif" font-size="10.00">var_ratio_le_lindeberg</text>
</a>
</g>
</g>
<!-- n3&#45;&gt;n0 -->
<g id="edge1" class="edge">
<title>n3&#45;&gt;n0</title>
<path fill="none" stroke="#64748b" d="M289.21,-231.7C279.44,-222.69 267.36,-211.57 256.83,-201.87"/>
<polygon fill="#64748b" stroke="#64748b" points="258.76,-200.31 251.95,-197.37 255.44,-203.92 258.76,-200.31"/>
</g>
<!-- n4 -->
<g id="node5" class="node">
<title>n4</title>
<g id="a_node5"><a xlink:href="vscode://vscode-remote/wsl+Ubuntu/tmp/statlib-main-refresh.tmBBiR/Statlib/StatFoundation/Convergence/CentralLimitTheorem/LindebergFeller.lean:327" xlink:title="lemma · Statlib/StatFoundation/Convergence/CentralLimitTheorem/LindebergFeller.lean:327" target="_blank">
<path fill="#eef2f6" stroke="#94a3b8" d="M384.05,-340C384.05,-340 231.95,-340 231.95,-340 225.95,-340 219.95,-334 219.95,-328 219.95,-328 219.95,-316 219.95,-316 219.95,-310 225.95,-304 231.95,-304 231.95,-304 384.05,-304 384.05,-304 390.05,-304 396.05,-310 396.05,-316 396.05,-316 396.05,-328 396.05,-328 396.05,-334 390.05,-340 384.05,-340"/>
<text xml:space="preserve" text-anchor="middle" x="308" y="-319" font-family="Helvetica,sans-Serif" font-size="10.00">lindeberg_implies_max_var_tendsto</text>
</a>
</g>
</g>
<!-- n4&#45;&gt;n0 -->
<g id="edge2" class="edge">
<title>n4&#45;&gt;n0</title>
<path fill="none" stroke="#64748b" d="M277.06,-303.72C264.05,-294.79 250.08,-282.68 242,-268 231.32,-248.6 229.43,-223.23 229.85,-204.55"/>
<polygon fill="#64748b" stroke="#64748b" points="232.29,-204.83 230.14,-197.73 227.4,-204.63 232.29,-204.83"/>
</g>
<!-- n4&#45;&gt;n3 -->
<g id="edge3" class="edge">
<title>n4&#45;&gt;n3</title>
<path fill="none" stroke="#64748b" d="M308,-303.7C308,-295.47 308,-285.48 308,-276.42"/>
<polygon fill="#64748b" stroke="#64748b" points="310.45,-276.62 308,-269.62 305.55,-276.62 310.45,-276.62"/>
</g>
<!-- n5 -->
<g id="node6" class="node">
<title>n5</title>
<g id="a_node6"><a xlink:href="vscode://vscode-remote/wsl+Ubuntu/tmp/statlib-main-refresh.tmBBiR/Statlib/StatFoundation/Convergence/AnalysisTools/CharacteristicFunction.lean:227" xlink:title="lemma · Statlib/StatFoundation/Convergence/AnalysisTools/CharacteristicFunction.lean:227" target="_blank">
<path fill="#eef2f6" stroke="#94a3b8" d="M570.5,-268C570.5,-268 399.5,-268 399.5,-268 393.5,-268 387.5,-262 387.5,-256 387.5,-256 387.5,-244 387.5,-244 387.5,-238 393.5,-232 399.5,-232 399.5,-232 570.5,-232 570.5,-232 576.5,-232 582.5,-238 582.5,-244 582.5,-244 582.5,-256 582.5,-256 582.5,-262 576.5,-268 570.5,-268"/>
<text xml:space="preserve" text-anchor="middle" x="485" y="-247" font-family="Helvetica,sans-Serif" font-size="10.00">norm_prod_sub_prod_le_sum_mul_pow</text>
</a>
</g>
</g>
<!-- n6 -->
<g id="node7" class="node">
<title>n6</title>
<g id="a_node7"><a xlink:href="vscode://vscode-remote/wsl+Ubuntu/tmp/statlib-main-refresh.tmBBiR/Statlib/StatFoundation/Convergence/CentralLimitTheorem/LindebergFeller.lean:379" xlink:title="lemma · Statlib/StatFoundation/Convergence/CentralLimitTheorem/LindebergFeller.lean:379" target="_blank">
<path fill="#eef2f6" stroke="#94a3b8" d="M584.12,-340C584.12,-340 445.88,-340 445.88,-340 439.88,-340 433.88,-334 433.88,-328 433.88,-328 433.88,-316 433.88,-316 433.88,-310 439.88,-304 445.88,-304 445.88,-304 584.12,-304 584.12,-304 590.12,-304 596.12,-310 596.12,-316 596.12,-316 596.12,-328 596.12,-328 596.12,-334 590.12,-340 584.12,-340"/>
<text xml:space="preserve" text-anchor="middle" x="515" y="-319" font-family="Helvetica,sans-Serif" font-size="10.00">prod_one_sub_tendsto_exp_neg</text>
</a>
</g>
</g>
<!-- n6&#45;&gt;n5 -->
<g id="edge4" class="edge">
<title>n6&#45;&gt;n5</title>
<path fill="none" stroke="#64748b" d="M507.58,-303.7C503.99,-295.3 499.6,-285.07 495.65,-275.86"/>
<polygon fill="#64748b" stroke="#64748b" points="497.94,-274.96 492.93,-269.5 493.43,-276.89 497.94,-274.96"/>
</g>
<!-- n7 -->
<g id="node8" class="node">
<title>n7</title>
<g id="a_node8"><a xlink:href="vscode://vscode-remote/wsl+Ubuntu/tmp/statlib-main-refresh.tmBBiR/Statlib/StatFoundation/Convergence/AnalysisTools/CharacteristicFunction.lean:16" xlink:title="lemma · Statlib/StatFoundation/Convergence/AnalysisTools/CharacteristicFunction.lean:16" target="_blank">
<path fill="#eef2f6" stroke="#94a3b8" d="M710.63,-52C710.63,-52 631.37,-52 631.37,-52 625.37,-52 619.37,-46 619.37,-40 619.37,-40 619.37,-28 619.37,-28 619.37,-22 625.37,-16 631.37,-16 631.37,-16 710.63,-16 710.63,-16 716.63,-16 722.63,-22 722.63,-28 722.63,-28 722.63,-40 722.63,-40 722.63,-46 716.63,-52 710.63,-52"/>
<text xml:space="preserve" text-anchor="middle" x="671" y="-31" font-family="Helvetica,sans-Serif" font-size="10.00">norm_ofReal_mul_I</text>
</a>
</g>
</g>
<!-- n8 -->
<g id="node9" class="node">
<title>n8</title>
<g id="a_node9"><a xlink:href="vscode://vscode-remote/wsl+Ubuntu/tmp/statlib-main-refresh.tmBBiR/Statlib/StatFoundation/Convergence/AnalysisTools/CharacteristicFunction.lean:22" xlink:title="lemma · Statlib/StatFoundation/Convergence/AnalysisTools/CharacteristicFunction.lean:22" target="_blank">
<path fill="#eef2f6" stroke="#94a3b8" d="M732.6,-124C732.6,-124 609.4,-124 609.4,-124 603.4,-124 597.4,-118 597.4,-112 597.4,-112 597.4,-100 597.4,-100 597.4,-94 603.4,-88 609.4,-88 609.4,-88 732.6,-88 732.6,-88 738.6,-88 744.6,-94 744.6,-100 744.6,-100 744.6,-112 744.6,-112 744.6,-118 738.6,-124 732.6,-124"/>
<text xml:space="preserve" text-anchor="middle" x="671" y="-103" font-family="Helvetica,sans-Serif" font-size="10.00">norm_cexp_sub_quadratic_le</text>
</a>
</g>
</g>
<!-- n8&#45;&gt;n7 -->
<g id="edge5" class="edge">
<title>n8&#45;&gt;n7</title>
<path fill="none" stroke="#64748b" d="M671,-87.7C671,-79.47 671,-69.48 671,-60.42"/>
<polygon fill="#64748b" stroke="#64748b" points="673.45,-60.62 671,-53.62 668.55,-60.62 673.45,-60.62"/>
</g>
<!-- n9 -->
<g id="node10" class="node">
<title>n9</title>
<g id="a_node10"><a xlink:href="vscode://vscode-remote/wsl+Ubuntu/tmp/statlib-main-refresh.tmBBiR/Statlib/StatFoundation/Convergence/CentralLimitTheorem/LindebergFeller.lean:79" xlink:title="lemma · Statlib/StatFoundation/Convergence/CentralLimitTheorem/LindebergFeller.lean:79" target="_blank">
<path fill="#eef2f6" stroke="#94a3b8" d="M791.66,-196C791.66,-196 652.34,-196 652.34,-196 646.34,-196 640.34,-190 640.34,-184 640.34,-184 640.34,-172 640.34,-172 640.34,-166 646.34,-160 652.34,-160 652.34,-160 791.66,-160 791.66,-160 797.66,-160 803.66,-166 803.66,-172 803.66,-172 803.66,-184 803.66,-184 803.66,-190 797.66,-196 791.66,-196"/>
<text xml:space="preserve" text-anchor="middle" x="722" y="-175" font-family="Helvetica,sans-Serif" font-size="10.00">norm_cexp_sub_quadratic_le_sq</text>
</a>
</g>
</g>
<!-- n9&#45;&gt;n8 -->
<g id="edge6" class="edge">
<title>n9&#45;&gt;n8</title>
<path fill="none" stroke="#64748b" d="M709.39,-159.7C703.03,-150.97 695.22,-140.24 688.3,-130.75"/>
<polygon fill="#64748b" stroke="#64748b" points="690.46,-129.54 684.35,-125.33 686.49,-132.43 690.46,-129.54"/>
</g>
<!-- n10 -->
<g id="node11" class="node">
<title>n10</title>
<g id="a_node11"><a xlink:href="vscode://vscode-remote/wsl+Ubuntu/tmp/statlib-main-refresh.tmBBiR/Statlib/StatFoundation/Convergence/CentralLimitTheorem/LindebergFeller.lean:110" xlink:title="lemma · Statlib/StatFoundation/Convergence/CentralLimitTheorem/LindebergFeller.lean:110" target="_blank">
<path fill="#eef2f6" stroke="#94a3b8" d="M708.58,-268C708.58,-268 635.42,-268 635.42,-268 629.42,-268 623.42,-262 623.42,-256 623.42,-256 623.42,-244 623.42,-244 623.42,-238 629.42,-232 635.42,-232 635.42,-232 708.58,-232 708.58,-232 714.58,-232 720.58,-238 720.58,-244 720.58,-244 720.58,-256 720.58,-256 720.58,-262 714.58,-268 708.58,-268"/>
<text xml:space="preserve" text-anchor="middle" x="672" y="-247" font-family="Helvetica,sans-Serif" font-size="10.00">charfun_error_le_j</text>
</a>
</g>
</g>
<!-- n10&#45;&gt;n8 -->
<g id="edge8" class="edge">
<title>n10&#45;&gt;n8</title>
<path fill="none" stroke="#64748b" d="M653.83,-231.68C645.12,-222.1 635.59,-209.43 631,-196 625.83,-180.86 625.92,-175.17 631,-160 634.53,-149.48 641.06,-139.37 647.83,-130.86"/>
<polygon fill="#64748b" stroke="#64748b" points="649.66,-132.49 652.29,-125.56 645.91,-129.34 649.66,-132.49"/>
</g>
<!-- n10&#45;&gt;n9 -->
<g id="edge7" class="edge">
<title>n10&#45;&gt;n9</title>
<path fill="none" stroke="#64748b" d="M684.36,-231.7C690.54,-223.05 698.11,-212.45 704.84,-203.03"/>
<polygon fill="#64748b" stroke="#64748b" points="706.83,-204.46 708.9,-197.34 702.84,-201.61 706.83,-204.46"/>
</g>
<!-- n11 -->
<g id="node12" class="node">
<title>n11</title>
<g id="a_node12"><a xlink:href="vscode://vscode-remote/wsl+Ubuntu/tmp/statlib-main-refresh.tmBBiR/Statlib/StatFoundation/Convergence/CentralLimitTheorem/LindebergFeller.lean:243" xlink:title="lemma · Statlib/StatFoundation/Convergence/CentralLimitTheorem/LindebergFeller.lean:243" target="_blank">
<path fill="#eef2f6" stroke="#94a3b8" d="M721.41,-340C721.41,-340 626.59,-340 626.59,-340 620.59,-340 614.59,-334 614.59,-328 614.59,-328 614.59,-316 614.59,-316 614.59,-310 620.59,-304 626.59,-304 626.59,-304 721.41,-304 721.41,-304 727.41,-304 733.41,-310 733.41,-316 733.41,-316 733.41,-328 733.41,-328 733.41,-334 727.41,-340 721.41,-340"/>
<text xml:space="preserve" text-anchor="middle" x="674" y="-319" font-family="Helvetica,sans-Serif" font-size="10.00">sum_charfun_errors_le</text>
</a>
</g>
</g>
<!-- n11&#45;&gt;n0 -->
<g id="edge9" class="edge">
<title>n11&#45;&gt;n0</title>
<path fill="none" stroke="#64748b" d="M651.53,-303.7C639.63,-293.94 625.21,-281.09 614,-268 601.65,-253.58 606.94,-242.32 591,-232 540.71,-199.45 367.03,-186.01 281.03,-181.25"/>
<polygon fill="#64748b" stroke="#64748b" points="281.38,-178.82 274.25,-180.89 281.11,-183.71 281.38,-178.82"/>
</g>
<!-- n11&#45;&gt;n10 -->
<g id="edge10" class="edge">
<title>n11&#45;&gt;n10</title>
<path fill="none" stroke="#64748b" d="M673.51,-303.7C673.27,-295.47 672.99,-285.48 672.73,-276.42"/>
<polygon fill="#64748b" stroke="#64748b" points="675.18,-276.54 672.53,-269.62 670.28,-276.68 675.18,-276.54"/>
</g>
<!-- n12 -->
<g id="node13" class="node">
<title>n12</title>
<g id="a_node13"><a xlink:href="vscode://vscode-remote/wsl+Ubuntu/tmp/statlib-main-refresh.tmBBiR/Statlib/StatFoundation/Convergence/CentralLimitTheorem/LindebergFeller.lean:475" xlink:title="theorem · Statlib/StatFoundation/Convergence/CentralLimitTheorem/LindebergFeller.lean:475" target="_blank">
<path fill="#ffe6a3" stroke="#d4a017" d="M420.65,-412C420.65,-412 301.35,-412 301.35,-412 295.35,-412 289.35,-406 289.35,-400 289.35,-400 289.35,-388 289.35,-388 289.35,-382 295.35,-376 301.35,-376 301.35,-376 420.65,-376 420.65,-376 426.65,-376 432.65,-382 432.65,-388 432.65,-388 432.65,-400 432.65,-400 432.65,-406 426.65,-412 420.65,-412"/>
<text xml:space="preserve" text-anchor="middle" x="361" y="-391" font-family="Helvetica,sans-Serif" font-size="10.00">charfun_lindeberg_pointwise</text>
</a>
</g>
</g>
<!-- n12&#45;&gt;n0 -->
<g id="edge11" class="edge">
<title>n12&#45;&gt;n0</title>
<path fill="none" stroke="#64748b" d="M289.08,-377.52C286.35,-376.99 283.65,-376.49 281,-376 229.25,-366.53 81.26,-379.93 47,-340 -3.79,-280.8 112.84,-223.88 183.29,-196.3"/>
<polygon fill="#64748b" stroke="#64748b" points="184.16,-198.59 189.81,-193.78 182.4,-194.02 184.16,-198.59"/>
</g>
<!-- n12&#45;&gt;n2 -->
<g id="edge12" class="edge">
<title>n12&#45;&gt;n2</title>
<path fill="none" stroke="#64748b" d="M303.06,-375.52C270.13,-365.58 228.79,-353.11 194.67,-342.81"/>
<polygon fill="#64748b" stroke="#64748b" points="195.47,-340.5 188.06,-340.82 194.05,-345.19 195.47,-340.5"/>
</g>
<!-- n12&#45;&gt;n4 -->
<g id="edge13" class="edge">
<title>n12&#45;&gt;n4</title>
<path fill="none" stroke="#64748b" d="M347.9,-375.7C341.29,-366.97 333.17,-356.24 325.98,-346.75"/>
<polygon fill="#64748b" stroke="#64748b" points="328.04,-345.41 321.86,-341.31 324.14,-348.37 328.04,-345.41"/>
</g>
<!-- n12&#45;&gt;n5 -->
<g id="edge15" class="edge">
<title>n12&#45;&gt;n5</title>
<path fill="none" stroke="#64748b" d="M376.93,-375.5C385.7,-365.47 396.49,-352.44 405,-340 415.33,-324.89 413.53,-318.26 425,-304 433.8,-293.06 445,-282.5 455.33,-273.72"/>
<polygon fill="#64748b" stroke="#64748b" points="456.64,-275.82 460.46,-269.47 453.51,-272.05 456.64,-275.82"/>
</g>
<!-- n12&#45;&gt;n6 -->
<g id="edge14" class="edge">
<title>n12&#45;&gt;n6</title>
<path fill="none" stroke="#64748b" d="M399.46,-375.52C420.58,-365.92 446.91,-353.95 469.1,-343.86"/>
<polygon fill="#64748b" stroke="#64748b" points="470.02,-346.14 475.38,-341.01 468,-341.67 470.02,-346.14"/>
</g>
<!-- n12&#45;&gt;n11 -->
<g id="edge16" class="edge">
<title>n12&#45;&gt;n11</title>
<path fill="none" stroke="#64748b" d="M432.92,-377.93C481.57,-367.59 547.25,-353.38 605,-340 605.38,-339.91 605.75,-339.83 606.13,-339.74"/>
<polygon fill="#64748b" stroke="#64748b" points="606.46,-342.18 612.71,-338.19 605.34,-337.41 606.46,-342.18"/>
</g>
<!-- n13 -->
<g id="node14" class="node">
<title>n13</title>
<g id="a_node14"><a xlink:href="vscode://vscode-remote/wsl+Ubuntu/tmp/statlib-main-refresh.tmBBiR/Statlib/StatFoundation/Convergence/AnalysisTools/LevyContinuity.lean:15" xlink:title="lemma · Statlib/StatFoundation/Convergence/AnalysisTools/LevyContinuity.lean:15" target="_blank">
<path fill="#eef2f6" stroke="#94a3b8" d="M839.64,-268C839.64,-268 750.36,-268 750.36,-268 744.36,-268 738.36,-262 738.36,-256 738.36,-256 738.36,-244 738.36,-244 738.36,-238 744.36,-232 750.36,-232 750.36,-232 839.64,-232 839.64,-232 845.64,-232 851.64,-238 851.64,-244 851.64,-244 851.64,-256 851.64,-256 851.64,-262 845.64,-268 839.64,-268"/>
<text xml:space="preserve" text-anchor="middle" x="795" y="-247" font-family="Helvetica,sans-Serif" font-size="10.00">compl_Icc_eq_abs_gt</text>
</a>
</g>
</g>
<!-- n14 -->
<g id="node15" class="node">
<title>n14</title>
<g id="a_node15"><a xlink:href="vscode://vscode-remote/wsl+Ubuntu/tmp/statlib-main-refresh.tmBBiR/Statlib/StatFoundation/Convergence/AnalysisTools/Tightness.lean:14" xlink:title="theorem · Statlib/StatFoundation/Convergence/AnalysisTools/Tightness.lean:14" target="_blank">
<path fill="#ffe6a3" stroke="#d4a017" d="M958.8,-268C958.8,-268 881.2,-268 881.2,-268 875.2,-268 869.2,-262 869.2,-256 869.2,-256 869.2,-244 869.2,-244 869.2,-238 875.2,-232 881.2,-232 881.2,-232 958.8,-232 958.8,-232 964.8,-232 970.8,-238 970.8,-244 970.8,-244 970.8,-256 970.8,-256 970.8,-262 964.8,-268 958.8,-268"/>
<text xml:space="preserve" text-anchor="middle" x="920" y="-247" font-family="Helvetica,sans-Serif" font-size="10.00">isTight_finiteRange</text>
</a>
</g>
</g>
<!-- n15 -->
<g id="node16" class="node">
<title>n15</title>
<g id="a_node16"><a xlink:href="vscode://vscode-remote/wsl+Ubuntu/tmp/statlib-main-refresh.tmBBiR/Statlib/StatFoundation/Convergence/AnalysisTools/LevyContinuity.lean:44" xlink:title="theorem · Statlib/StatFoundation/Convergence/AnalysisTools/LevyContinuity.lean:44" target="_blank">
<path fill="#ffe6a3" stroke="#d4a017" d="M878.98,-340C878.98,-340 763.02,-340 763.02,-340 757.02,-340 751.02,-334 751.02,-328 751.02,-328 751.02,-316 751.02,-316 751.02,-310 757.02,-304 763.02,-304 763.02,-304 878.98,-304 878.98,-304 884.98,-304 890.98,-310 890.98,-316 890.98,-316 890.98,-328 890.98,-328 890.98,-334 884.98,-340 878.98,-340"/>
<text xml:space="preserve" text-anchor="middle" x="821" y="-319" font-family="Helvetica,sans-Serif" font-size="10.00">isTight_of_charFun_tendsto</text>
</a>
</g>
</g>
<!-- n15&#45;&gt;n13 -->
<g id="edge17" class="edge">
<title>n15&#45;&gt;n13</title>
<path fill="none" stroke="#64748b" d="M814.57,-303.7C811.46,-295.3 807.65,-285.07 804.23,-275.86"/>
<polygon fill="#64748b" stroke="#64748b" points="806.61,-275.23 801.88,-269.52 802.02,-276.94 806.61,-275.23"/>
</g>
<!-- n15&#45;&gt;n14 -->
<g id="edge18" class="edge">
<title>n15&#45;&gt;n14</title>
<path fill="none" stroke="#64748b" d="M845.73,-303.52C858.82,-294.26 875.03,-282.8 888.96,-272.95"/>
<polygon fill="#64748b" stroke="#64748b" points="890.05,-275.18 894.35,-269.13 887.22,-271.18 890.05,-275.18"/>
</g>
<!-- n16 -->
<g id="node17" class="node">
<title>n16</title>
<g id="a_node17"><a xlink:href="vscode://vscode-remote/wsl+Ubuntu/tmp/statlib-main-refresh.tmBBiR/Statlib/StatFoundation/Convergence/AnalysisTools/LevyContinuity.lean:31" xlink:title="theorem · Statlib/StatFoundation/Convergence/AnalysisTools/LevyContinuity.lean:31" target="_blank">
<path fill="#ffe6a3" stroke="#d4a017" d="M1049.34,-268C1049.34,-268 1000.66,-268 1000.66,-268 994.66,-268 988.66,-262 988.66,-256 988.66,-256 988.66,-244 988.66,-244 988.66,-238 994.66,-232 1000.66,-232 1000.66,-232 1049.34,-232 1049.34,-232 1055.34,-232 1061.34,-238 1061.34,-244 1061.34,-244 1061.34,-256 1061.34,-256 1061.34,-262 1055.34,-268 1049.34,-268"/>
<text xml:space="preserve" text-anchor="middle" x="1025" y="-247" font-family="Helvetica,sans-Serif" font-size="10.00">levy_forward</text>
</a>
</g>
</g>
<!-- n17 -->
<g id="node18" class="node">
<title>n17</title>
<g id="a_node18"><a xlink:href="vscode://vscode-remote/wsl+Ubuntu/tmp/statlib-main-refresh.tmBBiR/Statlib/StatFoundation/Convergence/AnalysisTools/LevyContinuity.lean:168" xlink:title="lemma · Statlib/StatFoundation/Convergence/AnalysisTools/LevyContinuity.lean:168" target="_blank">
<path fill="#eef2f6" stroke="#94a3b8" d="M1018.54,-340C1018.54,-340 921.46,-340 921.46,-340 915.46,-340 909.46,-334 909.46,-328 909.46,-328 909.46,-316 909.46,-316 909.46,-310 915.46,-304 921.46,-304 921.46,-304 1018.54,-304 1018.54,-304 1024.54,-304 1030.54,-310 1030.54,-316 1030.54,-316 1030.54,-328 1030.54,-328 1030.54,-334 1024.54,-340 1018.54,-340"/>
<text xml:space="preserve" text-anchor="middle" x="970" y="-319" font-family="Helvetica,sans-Serif" font-size="10.00">charFun_eq_of_subseq</text>
</a>
</g>
</g>
<!-- n17&#45;&gt;n16 -->
<g id="edge19" class="edge">
<title>n17&#45;&gt;n16</title>
<path fill="none" stroke="#64748b" d="M983.6,-303.7C990.46,-294.97 998.88,-284.24 1006.34,-274.75"/>
<polygon fill="#64748b" stroke="#64748b" points="1008.23,-276.31 1010.63,-269.29 1004.37,-273.29 1008.23,-276.31"/>
</g>
<!-- n18 -->
<g id="node19" class="node">
<title>n18</title>
<g id="a_node19"><a xlink:href="vscode://vscode-remote/wsl+Ubuntu/tmp/statlib-main-refresh.tmBBiR/Statlib/StatFoundation/Convergence/AnalysisTools/LevyContinuity.lean:180" xlink:title="lemma · Statlib/StatFoundation/Convergence/AnalysisTools/LevyContinuity.lean:180" target="_blank">
<path fill="#eef2f6" stroke="#94a3b8" d="M1201.22,-340C1201.22,-340 1060.78,-340 1060.78,-340 1054.78,-340 1048.78,-334 1048.78,-328 1048.78,-328 1048.78,-316 1048.78,-316 1048.78,-310 1054.78,-304 1060.78,-304 1060.78,-304 1201.22,-304 1201.22,-304 1207.22,-304 1213.22,-310 1213.22,-316 1213.22,-316 1213.22,-328 1213.22,-328 1213.22,-334 1207.22,-340 1201.22,-340"/>
<text xml:space="preserve" text-anchor="middle" x="1131" y="-319" font-family="Helvetica,sans-Serif" font-size="10.00">probMeasure_eq_of_charFun_eq</text>
</a>
</g>
</g>
<!-- n19 -->
<g id="node20" class="node">
<title>n19</title>
<g id="a_node20"><a xlink:href="vscode://vscode-remote/wsl+Ubuntu/tmp/statlib-main-refresh.tmBBiR/Statlib/StatFoundation/Convergence/AnalysisTools/LevyContinuity.lean:193" xlink:title="theorem · Statlib/StatFoundation/Convergence/AnalysisTools/LevyContinuity.lean:193" target="_blank">
<path fill="#ffe6a3" stroke="#d4a017" d="M923.8,-412C923.8,-412 866.2,-412 866.2,-412 860.2,-412 854.2,-406 854.2,-400 854.2,-400 854.2,-388 854.2,-388 854.2,-382 860.2,-376 866.2,-376 866.2,-376 923.8,-376 923.8,-376 929.8,-376 935.8,-382 935.8,-388 935.8,-388 935.8,-400 935.8,-400 935.8,-406 929.8,-412 923.8,-412"/>
<text xml:space="preserve" text-anchor="middle" x="895" y="-391" font-family="Helvetica,sans-Serif" font-size="10.00">levy_continuity</text>
</a>
</g>
</g>
<!-- n19&#45;&gt;n15 -->
<g id="edge20" class="edge">
<title>n19&#45;&gt;n15</title>
<path fill="none" stroke="#64748b" d="M876.71,-375.7C867.28,-366.78 855.65,-355.78 845.46,-346.14"/>
<polygon fill="#64748b" stroke="#64748b" points="847.21,-344.42 840.44,-341.39 843.84,-347.98 847.21,-344.42"/>
</g>
<!-- n19&#45;&gt;n17 -->
<g id="edge21" class="edge">
<title>n19&#45;&gt;n17</title>
<path fill="none" stroke="#64748b" d="M913.54,-375.7C923.09,-366.78 934.88,-355.78 945.21,-346.14"/>
<polygon fill="#64748b" stroke="#64748b" points="946.86,-347.95 950.31,-341.38 943.52,-344.36 946.86,-347.95"/>
</g>
<!-- n19&#45;&gt;n18 -->
<g id="edge22" class="edge">
<title>n19&#45;&gt;n18</title>
<path fill="none" stroke="#64748b" d="M936.11,-380.81C971.39,-370.34 1022.93,-355.06 1064.14,-342.83"/>
<polygon fill="#64748b" stroke="#64748b" points="1064.77,-345.2 1070.79,-340.86 1063.38,-340.5 1064.77,-345.2"/>
</g>
<!-- n20 -->
<g id="node21" class="node">
<title>n20</title>
<g id="a_node21"><a xlink:href="vscode://vscode-remote/wsl+Ubuntu/tmp/statlib-main-refresh.tmBBiR/Statlib/StatFoundation/Convergence/CentralLimitTheorem/LindebergFeller.lean:675" xlink:title="theorem · Statlib/StatFoundation/Convergence/CentralLimitTheorem/LindebergFeller.lean:675" target="_blank">
<path fill="#ffe6a3" stroke="#d4a017" stroke-width="3" d="M355.77,-484C355.77,-484 194.23,-484 194.23,-484 188.23,-484 182.23,-478 182.23,-472 182.23,-472 182.23,-460 182.23,-460 182.23,-454 188.23,-448 194.23,-448 194.23,-448 355.77,-448 355.77,-448 361.77,-448 367.77,-454 367.77,-460 367.77,-460 367.77,-472 367.77,-472 367.77,-478 361.77,-484 355.77,-484"/>
<text xml:space="preserve" text-anchor="middle" x="275" y="-463" font-family="Helvetica,sans-Serif" font-size="10.00">lindeberg_feller_central_limit_theorem</text>
</a>
</g>
</g>
<!-- n20&#45;&gt;n0 -->
<g id="edge23" class="edge">
<title>n20&#45;&gt;n0</title>
<path fill="none" stroke="#64748b" d="M180.83,-448.18C122.78,-431.9 55,-400.37 31,-340 12.83,-294.31 19.7,-266.23 55,-232 89.29,-198.75 143.58,-186.25 182.99,-181.61"/>
<polygon fill="#64748b" stroke="#64748b" points="182.96,-184.08 189.66,-180.89 182.44,-179.2 182.96,-184.08"/>
</g>
<!-- n20&#45;&gt;n1 -->
<g id="edge24" class="edge">
<title>n20&#45;&gt;n1</title>
<path fill="none" stroke="#64748b" d="M252.67,-446.61C241.89,-437.74 228.87,-427.01 217.49,-417.64"/>
<polygon fill="#64748b" stroke="#64748b" points="219.14,-415.83 212.18,-413.27 216.03,-419.61 219.14,-415.83"/>
</g>
<!-- n20&#45;&gt;n12 -->
<g id="edge25" class="edge">
<title>n20&#45;&gt;n12</title>
<path fill="none" stroke="#64748b" d="M297.6,-446.61C308.5,-437.74 321.67,-427.01 333.18,-417.64"/>
<polygon fill="#64748b" stroke="#64748b" points="334.68,-419.58 338.56,-413.26 331.59,-415.78 334.68,-419.58"/>
</g>
<!-- n20&#45;&gt;n19 -->
<g id="edge26" class="edge">
<title>n20&#45;&gt;n19</title>
<path fill="none" stroke="#64748b" d="M369.16,-454.37C502.77,-439.28 742.58,-412.21 845.68,-400.57"/>
<polygon fill="#64748b" stroke="#64748b" points="845.86,-403.01 852.54,-399.79 845.31,-398.15 845.86,-403.01"/>
</g>
</g>
</svg>
