<?xml version="1.0" encoding="UTF-8" standalone="no"?>
<!DOCTYPE svg PUBLIC "-//W3C//DTD SVG 1.1//EN"
 "http://www.w3.org/Graphics/SVG/1.1/DTD/svg11.dtd">
<!-- Generated by graphviz version 15.0.0 (20260523.1842)
 -->
<!-- Title: multivariate_central_limit_theorem Pages: 1 -->
<svg width="1544pt" height="554pt"
 viewBox="0.00 0.00 1544.00 554.00" xmlns="http://www.w3.org/2000/svg" xmlns:xlink="http://www.w3.org/1999/xlink">
<g id="graph0" class="graph" transform="scale(1 1) rotate(0) translate(4 550)">
<title>multivariate_central_limit_theorem</title>
<polygon fill="white" stroke="none" points="-4,4 -4,-550 1540,-550 1540,4 -4,4"/>
<text xml:space="preserve" text-anchor="middle" x="768" y="-529.4" font-family="Helvetica,sans-Serif" font-size="14.00">Proof narrative — multivariate_central_limit_theorem &#160;(28 decls)</text>
<g id="clust1" class="cluster">
<title>cluster_0</title>
<path fill="none" stroke="#cbd5e1" stroke-dasharray="5,2" d="M20,-8C20,-8 1516,-8 1516,-8 1522,-8 1528,-14 1528,-20 1528,-20 1528,-501.2 1528,-501.2 1528,-507.2 1522,-513.2 1516,-513.2 1516,-513.2 20,-513.2 20,-513.2 14,-513.2 8,-507.2 8,-501.2 8,-501.2 8,-20 8,-20 8,-14 14,-8 20,-8"/>
<text xml:space="preserve" text-anchor="middle" x="768" y="-499.3" font-family="Helvetica,sans-Serif" font-size="11.00">StatFoundation</text>
</g>
<!-- n0 -->
<g id="node1" class="node">
<title>n0</title>
<g id="a_node1"><a xlink:href="https://github.com/statopia/statlib/blob/main/Statlib/StatFoundation/Convergence/CentralLimitTheorem/Multivariate.lean#L22" xlink:title="lemma · Statlib/StatFoundation/Convergence/CentralLimitTheorem/Multivariate.lean:22" target="_blank">
<path fill="#eef2f6" stroke="#94a3b8" d="M108.24,-340C108.24,-340 41.76,-340 41.76,-340 35.76,-340 29.76,-334 29.76,-328 29.76,-328 29.76,-316 29.76,-316 29.76,-310 35.76,-304 41.76,-304 41.76,-304 108.24,-304 108.24,-304 114.24,-304 120.24,-310 120.24,-316 120.24,-316 120.24,-328 120.24,-328 120.24,-334 114.24,-340 108.24,-340"/>
<text xml:space="preserve" text-anchor="middle" x="75" y="-319" font-family="Helvetica,sans-Serif" font-size="10.00">measurable_proj</text>
</a>
</g>
</g>
<!-- n1 -->
<g id="node2" class="node">
<title>n1</title>
<g id="a_node2"><a xlink:href="https://github.com/statopia/statlib/blob/main/Statlib/StatFoundation/Convergence/CentralLimitTheorem/Multivariate.lean#L34" xlink:title="lemma · Statlib/StatFoundation/Convergence/CentralLimitTheorem/Multivariate.lean:34" target="_blank">
<path fill="#eef2f6" stroke="#94a3b8" d="M138.36,-412C138.36,-412 79.64,-412 79.64,-412 73.64,-412 67.64,-406 67.64,-400 67.64,-400 67.64,-388 67.64,-388 67.64,-382 73.64,-376 79.64,-376 79.64,-376 138.36,-376 138.36,-376 144.36,-376 150.36,-382 150.36,-388 150.36,-388 150.36,-400 150.36,-400 150.36,-406 144.36,-412 138.36,-412"/>
<text xml:space="preserve" text-anchor="middle" x="109" y="-391" font-family="Helvetica,sans-Serif" font-size="10.00">iIndepFun_proj</text>
</a>
</g>
</g>
<!-- n2 -->
<g id="node3" class="node">
<title>n2</title>
<g id="a_node3"><a xlink:href="https://github.com/statopia/statlib/blob/main/Statlib/StatFoundation/Convergence/CentralLimitTheorem/Multivariate.lean#L52" xlink:title="lemma · Statlib/StatFoundation/Convergence/CentralLimitTheorem/Multivariate.lean:52" target="_blank">
<path fill="#eef2f6" stroke="#94a3b8" d="M244.13,-412C244.13,-412 179.87,-412 179.87,-412 173.87,-412 167.87,-406 167.87,-400 167.87,-400 167.87,-388 167.87,-388 167.87,-382 173.87,-376 179.87,-376 179.87,-376 244.13,-376 244.13,-376 250.13,-376 256.13,-382 256.13,-388 256.13,-388 256.13,-400 256.13,-400 256.13,-406 250.13,-412 244.13,-412"/>
<text xml:space="preserve" text-anchor="middle" x="212" y="-391" font-family="Helvetica,sans-Serif" font-size="10.00">identDistrib_proj</text>
</a>
</g>
</g>
<!-- n2&#45;&gt;n0 -->
<g id="edge1" class="edge">
<title>n2&#45;&gt;n0</title>
<path fill="none" stroke="#64748b" d="M177.78,-375.52C159.09,-365.97 135.81,-354.07 116.13,-344.01"/>
<polygon fill="#64748b" stroke="#64748b" points="117.48,-341.95 110.13,-340.95 115.25,-346.32 117.48,-341.95"/>
</g>
<!-- n3 -->
<g id="node4" class="node">
<title>n3</title>
<g id="a_node4"><a xlink:href="https://github.com/statopia/statlib/blob/main/Statlib/StatFoundation/Convergence/CentralLimitTheorem/IID.lean#L21" xlink:title="abbrev · Statlib/StatFoundation/Convergence/CentralLimitTheorem/IID.lean:21" target="_blank">
<path fill="#d6e9ff" stroke="#3b82f6" d="M97.91,-268C97.91,-268 28.09,-268 28.09,-268 22.09,-268 16.09,-262 16.09,-256 16.09,-256 16.09,-244 16.09,-244 16.09,-238 22.09,-232 28.09,-232 28.09,-232 97.91,-232 97.91,-232 103.91,-232 109.91,-238 109.91,-244 109.91,-244 109.91,-256 109.91,-256 109.91,-262 103.91,-268 97.91,-268"/>
<text xml:space="preserve" text-anchor="middle" x="63" y="-247" font-family="Helvetica,sans-Serif" font-size="10.00">standardizedSum</text>
</a>
</g>
</g>
<!-- n4 -->
<g id="node5" class="node">
<title>n4</title>
<g id="a_node5"><a xlink:href="https://github.com/statopia/statlib/blob/main/Statlib/StatFoundation/Convergence/CentralLimitTheorem/IID.lean#L24" xlink:title="lemma · Statlib/StatFoundation/Convergence/CentralLimitTheorem/IID.lean:24" target="_blank">
<path fill="#eef2f6" stroke="#94a3b8" d="M374.82,-340C374.82,-340 247.18,-340 247.18,-340 241.18,-340 235.18,-334 235.18,-328 235.18,-328 235.18,-316 235.18,-316 235.18,-310 241.18,-304 247.18,-304 247.18,-304 374.82,-304 374.82,-304 380.82,-304 386.82,-310 386.82,-316 386.82,-316 386.82,-328 386.82,-328 386.82,-334 380.82,-340 374.82,-340"/>
<text xml:space="preserve" text-anchor="middle" x="311" y="-319" font-family="Helvetica,sans-Serif" font-size="10.00">measurable_standardizedSum</text>
</a>
</g>
</g>
<!-- n4&#45;&gt;n3 -->
<g id="edge2" class="edge">
<title>n4&#45;&gt;n3</title>
<path fill="none" stroke="#64748b" d="M246.01,-303.5C208.76,-293.36 161.18,-280.22 119,-268 118.82,-267.95 118.65,-267.9 118.47,-267.85"/>
<polygon fill="#64748b" stroke="#64748b" points="119.19,-265.5 111.78,-265.89 117.81,-270.21 119.19,-265.5"/>
</g>
<!-- n5 -->
<g id="node6" class="node">
<title>n5</title>
<g id="a_node6"><a xlink:href="https://github.com/statopia/statlib/blob/main/Statlib/StatFoundation/Convergence/AnalysisTools/CharacteristicFunction.lean#L563" xlink:title="lemma · Statlib/StatFoundation/Convergence/AnalysisTools/CharacteristicFunction.lean:563" target="_blank">
<path fill="#eef2f6" stroke="#94a3b8" d="M238.36,-268C238.36,-268 139.64,-268 139.64,-268 133.64,-268 127.64,-262 127.64,-256 127.64,-256 127.64,-244 127.64,-244 127.64,-238 133.64,-232 139.64,-232 139.64,-232 238.36,-232 238.36,-232 244.36,-232 250.36,-238 250.36,-244 250.36,-244 250.36,-256 250.36,-256 250.36,-262 244.36,-268 238.36,-268"/>
<text xml:space="preserve" text-anchor="middle" x="189" y="-247" font-family="Helvetica,sans-Serif" font-size="10.00">lyapunov_third_moment</text>
</a>
</g>
</g>
<!-- n6 -->
<g id="node7" class="node">
<title>n6</title>
<g id="a_node7"><a xlink:href="https://github.com/statopia/statlib/blob/main/Statlib/StatFoundation/Convergence/AnalysisTools/CharacteristicFunction.lean#L282" xlink:title="lemma · Statlib/StatFoundation/Convergence/AnalysisTools/CharacteristicFunction.lean:282" target="_blank">
<path fill="#eef2f6" stroke="#94a3b8" d="M373.92,-196C373.92,-196 294.08,-196 294.08,-196 288.08,-196 282.08,-190 282.08,-184 282.08,-184 282.08,-172 282.08,-172 282.08,-166 288.08,-160 294.08,-160 294.08,-160 373.92,-160 373.92,-160 379.92,-160 385.92,-166 385.92,-172 385.92,-172 385.92,-184 385.92,-184 385.92,-190 379.92,-196 373.92,-196"/>
<text xml:space="preserve" text-anchor="middle" x="334" y="-175" font-family="Helvetica,sans-Serif" font-size="10.00">charfun_sum_indep</text>
</a>
</g>
</g>
<!-- n7 -->
<g id="node8" class="node">
<title>n7</title>
<g id="a_node8"><a xlink:href="https://github.com/statopia/statlib/blob/main/Statlib/StatFoundation/Convergence/AnalysisTools/CharacteristicFunction.lean#L323" xlink:title="lemma · Statlib/StatFoundation/Convergence/AnalysisTools/CharacteristicFunction.lean:323" target="_blank">
<path fill="#eef2f6" stroke="#94a3b8" d="M387.82,-268C387.82,-268 280.18,-268 280.18,-268 274.18,-268 268.18,-262 268.18,-256 268.18,-256 268.18,-244 268.18,-244 268.18,-238 274.18,-232 280.18,-232 280.18,-232 387.82,-232 387.82,-232 393.82,-232 399.82,-238 399.82,-244 399.82,-244 399.82,-256 399.82,-256 399.82,-262 393.82,-268 387.82,-268"/>
<text xml:space="preserve" text-anchor="middle" x="334" y="-247" font-family="Helvetica,sans-Serif" font-size="10.00">charfun_iid_sum_eq_prod</text>
</a>
</g>
</g>
<!-- n7&#45;&gt;n6 -->
<g id="edge3" class="edge">
<title>n7&#45;&gt;n6</title>
<path fill="none" stroke="#64748b" d="M334,-231.7C334,-223.47 334,-213.48 334,-204.42"/>
<polygon fill="#64748b" stroke="#64748b" points="336.45,-204.62 334,-197.62 331.55,-204.62 336.45,-204.62"/>
</g>
<!-- n8 -->
<g id="node9" class="node">
<title>n8</title>
<g id="a_node9"><a xlink:href="https://github.com/statopia/statlib/blob/main/Statlib/StatFoundation/Convergence/AnalysisTools/CharacteristicFunction.lean#L272" xlink:title="lemma · Statlib/StatFoundation/Convergence/AnalysisTools/CharacteristicFunction.lean:272" target="_blank">
<path fill="#eef2f6" stroke="#94a3b8" d="M568.66,-268C568.66,-268 429.34,-268 429.34,-268 423.34,-268 417.34,-262 417.34,-256 417.34,-256 417.34,-244 417.34,-244 417.34,-238 423.34,-232 429.34,-232 429.34,-232 568.66,-232 568.66,-232 574.66,-232 580.66,-238 580.66,-244 580.66,-244 580.66,-256 580.66,-256 580.66,-262 574.66,-268 568.66,-268"/>
<text xml:space="preserve" text-anchor="middle" x="499" y="-247" font-family="Helvetica,sans-Serif" font-size="10.00">charFun_gaussianReal_standard</text>
</a>
</g>
</g>
<!-- n9 -->
<g id="node10" class="node">
<title>n9</title>
<g id="a_node10"><a xlink:href="https://github.com/statopia/statlib/blob/main/Statlib/StatFoundation/Convergence/AnalysisTools/CharacteristicFunction.lean#L16" xlink:title="lemma · Statlib/StatFoundation/Convergence/AnalysisTools/CharacteristicFunction.lean:16" target="_blank">
<path fill="#eef2f6" stroke="#94a3b8" d="M529.63,-52C529.63,-52 450.37,-52 450.37,-52 444.37,-52 438.37,-46 438.37,-40 438.37,-40 438.37,-28 438.37,-28 438.37,-22 444.37,-16 450.37,-16 450.37,-16 529.63,-16 529.63,-16 535.63,-16 541.63,-22 541.63,-28 541.63,-28 541.63,-40 541.63,-40 541.63,-46 535.63,-52 529.63,-52"/>
<text xml:space="preserve" text-anchor="middle" x="490" y="-31" font-family="Helvetica,sans-Serif" font-size="10.00">norm_ofReal_mul_I</text>
</a>
</g>
</g>
<!-- n10 -->
<g id="node11" class="node">
<title>n10</title>
<g id="a_node11"><a xlink:href="https://github.com/statopia/statlib/blob/main/Statlib/StatFoundation/Convergence/AnalysisTools/CharacteristicFunction.lean#L22" xlink:title="lemma · Statlib/StatFoundation/Convergence/AnalysisTools/CharacteristicFunction.lean:22" target="_blank">
<path fill="#eef2f6" stroke="#94a3b8" d="M551.6,-124C551.6,-124 428.4,-124 428.4,-124 422.4,-124 416.4,-118 416.4,-112 416.4,-112 416.4,-100 416.4,-100 416.4,-94 422.4,-88 428.4,-88 428.4,-88 551.6,-88 551.6,-88 557.6,-88 563.6,-94 563.6,-100 563.6,-100 563.6,-112 563.6,-112 563.6,-118 557.6,-124 551.6,-124"/>
<text xml:space="preserve" text-anchor="middle" x="490" y="-103" font-family="Helvetica,sans-Serif" font-size="10.00">norm_cexp_sub_quadratic_le</text>
</a>
</g>
</g>
<!-- n10&#45;&gt;n9 -->
<g id="edge4" class="edge">
<title>n10&#45;&gt;n9</title>
<path fill="none" stroke="#64748b" d="M490,-87.7C490,-79.47 490,-69.48 490,-60.42"/>
<polygon fill="#64748b" stroke="#64748b" points="492.45,-60.62 490,-53.62 487.55,-60.62 492.45,-60.62"/>
</g>
<!-- n11 -->
<g id="node12" class="node">
<title>n11</title>
<g id="a_node12"><a xlink:href="https://github.com/statopia/statlib/blob/main/Statlib/StatFoundation/Convergence/AnalysisTools/CharacteristicFunction.lean#L86" xlink:title="lemma · Statlib/StatFoundation/Convergence/AnalysisTools/CharacteristicFunction.lean:86" target="_blank">
<path fill="#eef2f6" stroke="#94a3b8" d="M551.03,-196C551.03,-196 428.97,-196 428.97,-196 422.97,-196 416.97,-190 416.97,-184 416.97,-184 416.97,-172 416.97,-172 416.97,-166 422.97,-160 428.97,-160 428.97,-160 551.03,-160 551.03,-160 557.03,-160 563.03,-166 563.03,-172 563.03,-172 563.03,-184 563.03,-184 563.03,-190 557.03,-196 551.03,-196"/>
<text xml:space="preserve" text-anchor="middle" x="490" y="-175" font-family="Helvetica,sans-Serif" font-size="10.00">charfun_taylor_third_moment</text>
</a>
</g>
</g>
<!-- n11&#45;&gt;n10 -->
<g id="edge5" class="edge">
<title>n11&#45;&gt;n10</title>
<path fill="none" stroke="#64748b" d="M490,-159.7C490,-151.47 490,-141.48 490,-132.42"/>
<polygon fill="#64748b" stroke="#64748b" points="492.45,-132.62 490,-125.62 487.55,-132.62 492.45,-132.62"/>
</g>
<!-- n12 -->
<g id="node13" class="node">
<title>n12</title>
<g id="a_node13"><a xlink:href="https://github.com/statopia/statlib/blob/main/Statlib/StatFoundation/Convergence/AnalysisTools/CharacteristicFunction.lean#L187" xlink:title="lemma · Statlib/StatFoundation/Convergence/AnalysisTools/CharacteristicFunction.lean:187" target="_blank">
<path fill="#eef2f6" stroke="#94a3b8" d="M718.71,-196C718.71,-196 593.29,-196 593.29,-196 587.29,-196 581.29,-190 581.29,-184 581.29,-184 581.29,-172 581.29,-172 581.29,-166 587.29,-160 593.29,-160 593.29,-160 718.71,-160 718.71,-160 724.71,-160 730.71,-166 730.71,-172 730.71,-172 730.71,-184 730.71,-184 730.71,-190 724.71,-196 718.71,-196"/>
<text xml:space="preserve" text-anchor="middle" x="656" y="-175" font-family="Helvetica,sans-Serif" font-size="10.00">norm_prod_sub_prod_le_sum</text>
</a>
</g>
</g>
<!-- n13 -->
<g id="node14" class="node">
<title>n13</title>
<g id="a_node14"><a xlink:href="https://github.com/statopia/statlib/blob/main/Statlib/StatFoundation/Convergence/AnalysisTools/CharacteristicFunction.lean#L419" xlink:title="lemma · Statlib/StatFoundation/Convergence/AnalysisTools/CharacteristicFunction.lean:419" target="_blank">
<path fill="#eef2f6" stroke="#94a3b8" d="M734.88,-268C734.88,-268 611.12,-268 611.12,-268 605.12,-268 599.12,-262 599.12,-256 599.12,-256 599.12,-244 599.12,-244 599.12,-238 605.12,-232 611.12,-232 611.12,-232 734.88,-232 734.88,-232 740.88,-232 746.88,-238 746.88,-244 746.88,-244 746.88,-256 746.88,-256 746.88,-262 740.88,-268 734.88,-268"/>
<text xml:space="preserve" text-anchor="middle" x="673" y="-247" font-family="Helvetica,sans-Serif" font-size="10.00">charfun_prod_vs_pow_bound</text>
</a>
</g>
</g>
<!-- n13&#45;&gt;n11 -->
<g id="edge6" class="edge">
<title>n13&#45;&gt;n11</title>
<path fill="none" stroke="#64748b" d="M627.29,-231.52C601.76,-221.75 569.82,-209.53 543.17,-199.34"/>
<polygon fill="#64748b" stroke="#64748b" points="544.27,-197.14 536.85,-196.92 542.52,-201.71 544.27,-197.14"/>
</g>
<!-- n13&#45;&gt;n12 -->
<g id="edge7" class="edge">
<title>n13&#45;&gt;n12</title>
<path fill="none" stroke="#64748b" d="M668.8,-231.7C666.78,-223.39 664.32,-213.28 662.11,-204.14"/>
<polygon fill="#64748b" stroke="#64748b" points="664.54,-203.8 660.51,-197.58 659.78,-204.96 664.54,-203.8"/>
</g>
<!-- n14 -->
<g id="node15" class="node">
<title>n14</title>
<g id="a_node15"><a xlink:href="https://github.com/statopia/statlib/blob/main/Statlib/StatFoundation/Convergence/AnalysisTools/CharacteristicFunction.lean#L350" xlink:title="lemma · Statlib/StatFoundation/Convergence/AnalysisTools/CharacteristicFunction.lean:350" target="_blank">
<path fill="#eef2f6" stroke="#94a3b8" d="M903.61,-196C903.61,-196 760.39,-196 760.39,-196 754.39,-196 748.39,-190 748.39,-184 748.39,-184 748.39,-172 748.39,-172 748.39,-166 754.39,-160 760.39,-160 760.39,-160 903.61,-160 903.61,-160 909.61,-160 915.61,-166 915.61,-172 915.61,-172 915.61,-184 915.61,-184 915.61,-190 909.61,-196 903.61,-196"/>
<text xml:space="preserve" text-anchor="middle" x="832" y="-175" font-family="Helvetica,sans-Serif" font-size="10.00">complex_pow_approx_exp_decay</text>
</a>
</g>
</g>
<!-- n15 -->
<g id="node16" class="node">
<title>n15</title>
<g id="a_node16"><a xlink:href="https://github.com/statopia/statlib/blob/main/Statlib/StatFoundation/Convergence/AnalysisTools/CharacteristicFunction.lean#L401" xlink:title="lemma · Statlib/StatFoundation/Convergence/AnalysisTools/CharacteristicFunction.lean:401" target="_blank">
<path fill="#eef2f6" stroke="#94a3b8" d="M887.48,-268C887.48,-268 776.52,-268 776.52,-268 770.52,-268 764.52,-262 764.52,-256 764.52,-256 764.52,-244 764.52,-244 764.52,-238 770.52,-232 776.52,-232 776.52,-232 887.48,-232 887.48,-232 893.48,-232 899.48,-238 899.48,-244 899.48,-244 899.48,-256 899.48,-256 899.48,-262 893.48,-268 887.48,-268"/>
<text xml:space="preserve" text-anchor="middle" x="832" y="-247" font-family="Helvetica,sans-Serif" font-size="10.00">complex_pow_approx_exp</text>
</a>
</g>
</g>
<!-- n15&#45;&gt;n14 -->
<g id="edge8" class="edge">
<title>n15&#45;&gt;n14</title>
<path fill="none" stroke="#64748b" d="M832,-231.7C832,-223.47 832,-213.48 832,-204.42"/>
<polygon fill="#64748b" stroke="#64748b" points="834.45,-204.62 832,-197.62 829.55,-204.62 834.45,-204.62"/>
</g>
<!-- n16 -->
<g id="node17" class="node">
<title>n16</title>
<g id="a_node17"><a xlink:href="https://github.com/statopia/statlib/blob/main/Statlib/StatFoundation/Convergence/AnalysisTools/CharacteristicFunction.lean#L486" xlink:title="lemma · Statlib/StatFoundation/Convergence/AnalysisTools/CharacteristicFunction.lean:486" target="_blank">
<path fill="#eef2f6" stroke="#94a3b8" d="M1018.03,-196C1018.03,-196 945.97,-196 945.97,-196 939.97,-196 933.97,-190 933.97,-184 933.97,-184 933.97,-172 933.97,-172 933.97,-166 939.97,-160 945.97,-160 945.97,-160 1018.03,-160 1018.03,-160 1024.03,-160 1030.03,-166 1030.03,-172 1030.03,-172 1030.03,-184 1030.03,-184 1030.03,-190 1024.03,-196 1018.03,-196"/>
<text xml:space="preserve" text-anchor="middle" x="982" y="-175" font-family="Helvetica,sans-Serif" font-size="10.00">charfun_arith_aux</text>
</a>
</g>
</g>
<!-- n17 -->
<g id="node18" class="node">
<title>n17</title>
<g id="a_node18"><a xlink:href="https://github.com/statopia/statlib/blob/main/Statlib/StatFoundation/Convergence/AnalysisTools/CharacteristicFunction.lean#L510" xlink:title="lemma · Statlib/StatFoundation/Convergence/AnalysisTools/CharacteristicFunction.lean:510" target="_blank">
<path fill="#eef2f6" stroke="#94a3b8" d="M1028.08,-268C1028.08,-268 929.92,-268 929.92,-268 923.92,-268 917.92,-262 917.92,-256 917.92,-256 917.92,-244 917.92,-244 917.92,-238 923.92,-232 929.92,-232 929.92,-232 1028.08,-232 1028.08,-232 1034.08,-232 1040.08,-238 1040.08,-244 1040.08,-244 1040.08,-256 1040.08,-256 1040.08,-262 1034.08,-268 1028.08,-268"/>
<text xml:space="preserve" text-anchor="middle" x="979" y="-247" font-family="Helvetica,sans-Serif" font-size="10.00">charfun_final_arithmetic</text>
</a>
</g>
</g>
<!-- n17&#45;&gt;n16 -->
<g id="edge9" class="edge">
<title>n17&#45;&gt;n16</title>
<path fill="none" stroke="#64748b" d="M979.74,-231.7C980.09,-223.47 980.52,-213.48 980.91,-204.42"/>
<polygon fill="#64748b" stroke="#64748b" points="983.35,-204.72 981.2,-197.62 978.45,-204.51 983.35,-204.72"/>
</g>
<!-- n18 -->
<g id="node19" class="node">
<title>n18</title>
<g id="a_node19"><a xlink:href="https://github.com/statopia/statlib/blob/main/Statlib/StatFoundation/Convergence/AnalysisTools/CharacteristicFunction.lean#L612" xlink:title="lemma · Statlib/StatFoundation/Convergence/AnalysisTools/CharacteristicFunction.lean:612" target="_blank">
<path fill="#eef2f6" stroke="#94a3b8" d="M567.82,-340C567.82,-340 430.18,-340 430.18,-340 424.18,-340 418.18,-334 418.18,-328 418.18,-328 418.18,-316 418.18,-316 418.18,-310 424.18,-304 430.18,-304 430.18,-304 567.82,-304 567.82,-304 573.82,-304 579.82,-310 579.82,-316 579.82,-316 579.82,-328 579.82,-328 579.82,-334 573.82,-340 567.82,-340"/>
<text xml:space="preserve" text-anchor="middle" x="499" y="-319" font-family="Helvetica,sans-Serif" font-size="10.00">charfun_normalized_sum_bound</text>
</a>
</g>
</g>
<!-- n18&#45;&gt;n5 -->
<g id="edge10" class="edge">
<title>n18&#45;&gt;n5</title>
<path fill="none" stroke="#64748b" d="M417.81,-303.51C373.36,-293.83 317.11,-281.41 259.03,-267.99"/>
<polygon fill="#64748b" stroke="#64748b" points="259.67,-265.62 252.29,-266.43 258.56,-270.4 259.67,-265.62"/>
</g>
<!-- n18&#45;&gt;n7 -->
<g id="edge11" class="edge">
<title>n18&#45;&gt;n7</title>
<path fill="none" stroke="#64748b" d="M457.79,-303.52C434.96,-293.83 406.46,-281.74 382.56,-271.6"/>
<polygon fill="#64748b" stroke="#64748b" points="383.77,-269.45 376.36,-268.97 381.85,-273.96 383.77,-269.45"/>
</g>
<!-- n18&#45;&gt;n8 -->
<g id="edge12" class="edge">
<title>n18&#45;&gt;n8</title>
<path fill="none" stroke="#64748b" d="M499,-303.7C499,-295.47 499,-285.48 499,-276.42"/>
<polygon fill="#64748b" stroke="#64748b" points="501.45,-276.62 499,-269.62 496.55,-276.62 501.45,-276.62"/>
</g>
<!-- n18&#45;&gt;n13 -->
<g id="edge13" class="edge">
<title>n18&#45;&gt;n13</title>
<path fill="none" stroke="#64748b" d="M542.46,-303.52C566.63,-293.79 596.85,-281.64 622.12,-271.47"/>
<polygon fill="#64748b" stroke="#64748b" points="622.81,-273.83 628.39,-268.95 620.98,-269.29 622.81,-273.83"/>
</g>
<!-- n18&#45;&gt;n15 -->
<g id="edge14" class="edge">
<title>n18&#45;&gt;n15</title>
<path fill="none" stroke="#64748b" d="M580.1,-304.64C628.64,-294.76 691.78,-281.75 755.84,-268.02"/>
<polygon fill="#64748b" stroke="#64748b" points="756.25,-270.44 762.58,-266.57 755.22,-265.65 756.25,-270.44"/>
</g>
<!-- n18&#45;&gt;n17 -->
<g id="edge15" class="edge">
<title>n18&#45;&gt;n17</title>
<path fill="none" stroke="#64748b" d="M580.1,-313.06C662.91,-304.35 794.98,-288.79 908,-268 908.39,-267.93 908.78,-267.86 909.17,-267.78"/>
<polygon fill="#64748b" stroke="#64748b" points="909.63,-270.19 916.03,-266.44 908.69,-265.38 909.63,-270.19"/>
</g>
<!-- n19 -->
<g id="node20" class="node">
<title>n19</title>
<g id="a_node20"><a xlink:href="https://github.com/statopia/statlib/blob/main/Statlib/StatFoundation/Convergence/AnalysisTools/LevyContinuity.lean#L15" xlink:title="lemma · Statlib/StatFoundation/Convergence/AnalysisTools/LevyContinuity.lean:15" target="_blank">
<path fill="#eef2f6" stroke="#94a3b8" d="M1149.64,-196C1149.64,-196 1060.36,-196 1060.36,-196 1054.36,-196 1048.36,-190 1048.36,-184 1048.36,-184 1048.36,-172 1048.36,-172 1048.36,-166 1054.36,-160 1060.36,-160 1060.36,-160 1149.64,-160 1149.64,-160 1155.64,-160 1161.64,-166 1161.64,-172 1161.64,-172 1161.64,-184 1161.64,-184 1161.64,-190 1155.64,-196 1149.64,-196"/>
<text xml:space="preserve" text-anchor="middle" x="1105" y="-175" font-family="Helvetica,sans-Serif" font-size="10.00">compl_Icc_eq_abs_gt</text>
</a>
</g>
</g>
<!-- n20 -->
<g id="node21" class="node">
<title>n20</title>
<g id="a_node21"><a xlink:href="https://github.com/statopia/statlib/blob/main/Statlib/StatFoundation/Convergence/AnalysisTools/Tightness.lean#L14" xlink:title="theorem · Statlib/StatFoundation/Convergence/AnalysisTools/Tightness.lean:14" target="_blank">
<path fill="#ffe6a3" stroke="#d4a017" d="M1268.8,-196C1268.8,-196 1191.2,-196 1191.2,-196 1185.2,-196 1179.2,-190 1179.2,-184 1179.2,-184 1179.2,-172 1179.2,-172 1179.2,-166 1185.2,-160 1191.2,-160 1191.2,-160 1268.8,-160 1268.8,-160 1274.8,-160 1280.8,-166 1280.8,-172 1280.8,-172 1280.8,-184 1280.8,-184 1280.8,-190 1274.8,-196 1268.8,-196"/>
<text xml:space="preserve" text-anchor="middle" x="1230" y="-175" font-family="Helvetica,sans-Serif" font-size="10.00">isTight_finiteRange</text>
</a>
</g>
</g>
<!-- n21 -->
<g id="node22" class="node">
<title>n21</title>
<g id="a_node22"><a xlink:href="https://github.com/statopia/statlib/blob/main/Statlib/StatFoundation/Convergence/AnalysisTools/LevyContinuity.lean#L44" xlink:title="theorem · Statlib/StatFoundation/Convergence/AnalysisTools/LevyContinuity.lean:44" target="_blank">
<path fill="#ffe6a3" stroke="#d4a017" d="M1185.98,-268C1185.98,-268 1070.02,-268 1070.02,-268 1064.02,-268 1058.02,-262 1058.02,-256 1058.02,-256 1058.02,-244 1058.02,-244 1058.02,-238 1064.02,-232 1070.02,-232 1070.02,-232 1185.98,-232 1185.98,-232 1191.98,-232 1197.98,-238 1197.98,-244 1197.98,-244 1197.98,-256 1197.98,-256 1197.98,-262 1191.98,-268 1185.98,-268"/>
<text xml:space="preserve" text-anchor="middle" x="1128" y="-247" font-family="Helvetica,sans-Serif" font-size="10.00">isTight_of_charFun_tendsto</text>
</a>
</g>
</g>
<!-- n21&#45;&gt;n19 -->
<g id="edge16" class="edge">
<title>n21&#45;&gt;n19</title>
<path fill="none" stroke="#64748b" d="M1122.31,-231.7C1119.59,-223.39 1116.26,-213.28 1113.26,-204.14"/>
<polygon fill="#64748b" stroke="#64748b" points="1115.61,-203.43 1111.09,-197.54 1110.95,-204.96 1115.61,-203.43"/>
</g>
<!-- n21&#45;&gt;n20 -->
<g id="edge17" class="edge">
<title>n21&#45;&gt;n20</title>
<path fill="none" stroke="#64748b" d="M1153.48,-231.52C1166.96,-222.26 1183.66,-210.8 1198.02,-200.95"/>
<polygon fill="#64748b" stroke="#64748b" points="1199.22,-203.1 1203.6,-197.12 1196.44,-199.06 1199.22,-203.1"/>
</g>
<!-- n22 -->
<g id="node23" class="node">
<title>n22</title>
<g id="a_node23"><a xlink:href="https://github.com/statopia/statlib/blob/main/Statlib/StatFoundation/Convergence/AnalysisTools/LevyContinuity.lean#L31" xlink:title="theorem · Statlib/StatFoundation/Convergence/AnalysisTools/LevyContinuity.lean:31" target="_blank">
<path fill="#ffe6a3" stroke="#d4a017" d="M1359.34,-196C1359.34,-196 1310.66,-196 1310.66,-196 1304.66,-196 1298.66,-190 1298.66,-184 1298.66,-184 1298.66,-172 1298.66,-172 1298.66,-166 1304.66,-160 1310.66,-160 1310.66,-160 1359.34,-160 1359.34,-160 1365.34,-160 1371.34,-166 1371.34,-172 1371.34,-172 1371.34,-184 1371.34,-184 1371.34,-190 1365.34,-196 1359.34,-196"/>
<text xml:space="preserve" text-anchor="middle" x="1335" y="-175" font-family="Helvetica,sans-Serif" font-size="10.00">levy_forward</text>
</a>
</g>
</g>
<!-- n23 -->
<g id="node24" class="node">
<title>n23</title>
<g id="a_node24"><a xlink:href="https://github.com/statopia/statlib/blob/main/Statlib/StatFoundation/Convergence/AnalysisTools/LevyContinuity.lean#L168" xlink:title="lemma · Statlib/StatFoundation/Convergence/AnalysisTools/LevyContinuity.lean:168" target="_blank">
<path fill="#eef2f6" stroke="#94a3b8" d="M1325.54,-268C1325.54,-268 1228.46,-268 1228.46,-268 1222.46,-268 1216.46,-262 1216.46,-256 1216.46,-256 1216.46,-244 1216.46,-244 1216.46,-238 1222.46,-232 1228.46,-232 1228.46,-232 1325.54,-232 1325.54,-232 1331.54,-232 1337.54,-238 1337.54,-244 1337.54,-244 1337.54,-256 1337.54,-256 1337.54,-262 1331.54,-268 1325.54,-268"/>
<text xml:space="preserve" text-anchor="middle" x="1277" y="-247" font-family="Helvetica,sans-Serif" font-size="10.00">charFun_eq_of_subseq</text>
</a>
</g>
</g>
<!-- n23&#45;&gt;n22 -->
<g id="edge18" class="edge">
<title>n23&#45;&gt;n22</title>
<path fill="none" stroke="#64748b" d="M1291.34,-231.7C1298.64,-222.88 1307.63,-212.03 1315.55,-202.47"/>
<polygon fill="#64748b" stroke="#64748b" points="1317.28,-204.22 1319.86,-197.27 1313.51,-201.1 1317.28,-204.22"/>
</g>
<!-- n24 -->
<g id="node25" class="node">
<title>n24</title>
<g id="a_node25"><a xlink:href="https://github.com/statopia/statlib/blob/main/Statlib/StatFoundation/Convergence/AnalysisTools/LevyContinuity.lean#L180" xlink:title="lemma · Statlib/StatFoundation/Convergence/AnalysisTools/LevyContinuity.lean:180" target="_blank">
<path fill="#eef2f6" stroke="#94a3b8" d="M1508.22,-268C1508.22,-268 1367.78,-268 1367.78,-268 1361.78,-268 1355.78,-262 1355.78,-256 1355.78,-256 1355.78,-244 1355.78,-244 1355.78,-238 1361.78,-232 1367.78,-232 1367.78,-232 1508.22,-232 1508.22,-232 1514.22,-232 1520.22,-238 1520.22,-244 1520.22,-244 1520.22,-256 1520.22,-256 1520.22,-262 1514.22,-268 1508.22,-268"/>
<text xml:space="preserve" text-anchor="middle" x="1438" y="-247" font-family="Helvetica,sans-Serif" font-size="10.00">probMeasure_eq_of_charFun_eq</text>
</a>
</g>
</g>
<!-- n25 -->
<g id="node26" class="node">
<title>n25</title>
<g id="a_node26"><a xlink:href="https://github.com/statopia/statlib/blob/main/Statlib/StatFoundation/Convergence/AnalysisTools/LevyContinuity.lean#L193" xlink:title="theorem · Statlib/StatFoundation/Convergence/AnalysisTools/LevyContinuity.lean:193" target="_blank">
<path fill="#ffe6a3" stroke="#d4a017" d="M1230.8,-340C1230.8,-340 1173.2,-340 1173.2,-340 1167.2,-340 1161.2,-334 1161.2,-328 1161.2,-328 1161.2,-316 1161.2,-316 1161.2,-310 1167.2,-304 1173.2,-304 1173.2,-304 1230.8,-304 1230.8,-304 1236.8,-304 1242.8,-310 1242.8,-316 1242.8,-316 1242.8,-328 1242.8,-328 1242.8,-334 1236.8,-340 1230.8,-340"/>
<text xml:space="preserve" text-anchor="middle" x="1202" y="-319" font-family="Helvetica,sans-Serif" font-size="10.00">levy_continuity</text>
</a>
</g>
</g>
<!-- n25&#45;&gt;n21 -->
<g id="edge19" class="edge">
<title>n25&#45;&gt;n21</title>
<path fill="none" stroke="#64748b" d="M1183.71,-303.7C1174.28,-294.78 1162.65,-283.78 1152.46,-274.14"/>
<polygon fill="#64748b" stroke="#64748b" points="1154.21,-272.42 1147.44,-269.39 1150.84,-275.98 1154.21,-272.42"/>
</g>
<!-- n25&#45;&gt;n23 -->
<g id="edge20" class="edge">
<title>n25&#45;&gt;n23</title>
<path fill="none" stroke="#64748b" d="M1220.54,-303.7C1230.09,-294.78 1241.88,-283.78 1252.21,-274.14"/>
<polygon fill="#64748b" stroke="#64748b" points="1253.86,-275.95 1257.31,-269.38 1250.52,-272.36 1253.86,-275.95"/>
</g>
<!-- n25&#45;&gt;n24 -->
<g id="edge21" class="edge">
<title>n25&#45;&gt;n24</title>
<path fill="none" stroke="#64748b" d="M1243.11,-308.81C1278.39,-298.34 1329.93,-283.06 1371.14,-270.83"/>
<polygon fill="#64748b" stroke="#64748b" points="1371.77,-273.2 1377.79,-268.86 1370.38,-268.5 1371.77,-273.2"/>
</g>
<!-- n26 -->
<g id="node27" class="node">
<title>n26</title>
<g id="a_node27"><a xlink:href="https://github.com/statopia/statlib/blob/main/Statlib/StatFoundation/Convergence/CentralLimitTheorem/IID.lean#L43" xlink:title="theorem · Statlib/StatFoundation/Convergence/CentralLimitTheorem/IID.lean:43" target="_blank">
<path fill="#ffe6a3" stroke="#d4a017" d="M389.58,-412C389.58,-412 286.42,-412 286.42,-412 280.42,-412 274.42,-406 274.42,-400 274.42,-400 274.42,-388 274.42,-388 274.42,-382 280.42,-376 286.42,-376 286.42,-376 389.58,-376 389.58,-376 395.58,-376 401.58,-382 401.58,-388 401.58,-388 401.58,-400 401.58,-400 401.58,-406 395.58,-412 389.58,-412"/>
<text xml:space="preserve" text-anchor="middle" x="338" y="-391" font-family="Helvetica,sans-Serif" font-size="10.00">iid_central_limit_theorem</text>
</a>
</g>
</g>
<!-- n26&#45;&gt;n3 -->
<g id="edge22" class="edge">
<title>n26&#45;&gt;n3</title>
<path fill="none" stroke="#64748b" d="M299.63,-375.51C277.88,-365.43 250.25,-352.35 226,-340 182.59,-317.9 133.65,-290.89 100.82,-272.46"/>
<polygon fill="#64748b" stroke="#64748b" points="102.28,-270.47 94.98,-269.17 99.88,-274.74 102.28,-270.47"/>
</g>
<!-- n26&#45;&gt;n4 -->
<g id="edge23" class="edge">
<title>n26&#45;&gt;n4</title>
<path fill="none" stroke="#64748b" d="M331.33,-375.7C328.09,-367.3 324.14,-357.07 320.59,-347.86"/>
<polygon fill="#64748b" stroke="#64748b" points="322.95,-347.17 318.14,-341.52 318.38,-348.93 322.95,-347.17"/>
</g>
<!-- n26&#45;&gt;n18 -->
<g id="edge24" class="edge">
<title>n26&#45;&gt;n18</title>
<path fill="none" stroke="#64748b" d="M378.21,-375.52C400.39,-365.88 428.06,-353.84 451.32,-343.73"/>
<polygon fill="#64748b" stroke="#64748b" points="452.19,-346.02 457.63,-340.99 450.24,-341.53 452.19,-346.02"/>
</g>
<!-- n26&#45;&gt;n25 -->
<g id="edge25" class="edge">
<title>n26&#45;&gt;n25</title>
<path fill="none" stroke="#64748b" d="M401.88,-387.82C567.02,-374.45 1005.43,-338.93 1152.85,-326.98"/>
<polygon fill="#64748b" stroke="#64748b" points="1152.61,-329.46 1159.38,-326.45 1152.21,-324.58 1152.61,-329.46"/>
</g>
<!-- n27 -->
<g id="node28" class="node">
<title>n27</title>
<g id="a_node28"><a xlink:href="https://github.com/statopia/statlib/blob/main/Statlib/StatFoundation/Convergence/CentralLimitTheorem/Multivariate.lean#L86" xlink:title="theorem · Statlib/StatFoundation/Convergence/CentralLimitTheorem/Multivariate.lean:86" target="_blank">
<path fill="#ffe6a3" stroke="#d4a017" stroke-width="3" d="M221.14,-484C221.14,-484 76.86,-484 76.86,-484 70.86,-484 64.86,-478 64.86,-472 64.86,-472 64.86,-460 64.86,-460 64.86,-454 70.86,-448 76.86,-448 76.86,-448 221.14,-448 221.14,-448 227.14,-448 233.14,-454 233.14,-460 233.14,-460 233.14,-472 233.14,-472 233.14,-478 227.14,-484 221.14,-484"/>
<text xml:space="preserve" text-anchor="middle" x="149" y="-463" font-family="Helvetica,sans-Serif" font-size="10.00">multivariate_central_limit_theorem</text>
</a>
</g>
</g>
<!-- n27&#45;&gt;n0 -->
<g id="edge26" class="edge">
<title>n27&#45;&gt;n0</title>
<path fill="none" stroke="#64748b" d="M98.07,-446.73C82.76,-438.58 67.73,-427.27 59,-412 47.75,-392.32 54.28,-366.53 62.11,-347.78"/>
<polygon fill="#64748b" stroke="#64748b" points="64.26,-348.99 64.88,-341.6 59.78,-346.99 64.26,-348.99"/>
</g>
<!-- n27&#45;&gt;n1 -->
<g id="edge27" class="edge">
<title>n27&#45;&gt;n1</title>
<path fill="none" stroke="#64748b" d="M138.49,-446.61C133.72,-438.25 128,-428.26 122.88,-419.29"/>
<polygon fill="#64748b" stroke="#64748b" points="125.1,-418.24 119.5,-413.38 120.85,-420.68 125.1,-418.24"/>
</g>
<!-- n27&#45;&gt;n2 -->
<g id="edge28" class="edge">
<title>n27&#45;&gt;n2</title>
<path fill="none" stroke="#64748b" d="M165.55,-446.61C173.37,-437.92 182.79,-427.45 191.1,-418.22"/>
<polygon fill="#64748b" stroke="#64748b" points="192.76,-420.04 195.63,-413.19 189.12,-416.76 192.76,-420.04"/>
</g>
<!-- n27&#45;&gt;n26 -->
<g id="edge29" class="edge">
<title>n27&#45;&gt;n26</title>
<path fill="none" stroke="#64748b" d="M198.66,-446.61C224.64,-436.99 256.51,-425.18 283.21,-415.29"/>
<polygon fill="#64748b" stroke="#64748b" points="283.82,-417.68 289.53,-412.95 282.12,-413.09 283.82,-417.68"/>
</g>
</g>
</svg>
