<?xml version="1.0" encoding="UTF-8" standalone="no"?>
<!DOCTYPE svg PUBLIC "-//W3C//DTD SVG 1.1//EN"
 "http://www.w3.org/Graphics/SVG/1.1/DTD/svg11.dtd">
<!-- Generated by graphviz version 15.0.0 (20260523.1842)
 -->
<!-- Title: standardPi_integration_by_parts_coord Pages: 1 -->
<svg width="1289pt" height="410pt"
 viewBox="0.00 0.00 1289.00 410.00" xmlns="http://www.w3.org/2000/svg" xmlns:xlink="http://www.w3.org/1999/xlink">
<g id="graph0" class="graph" transform="scale(1 1) rotate(0) translate(4 406)">
<title>standardPi_integration_by_parts_coord</title>
<polygon fill="white" stroke="none" points="-4,4 -4,-406 1285,-406 1285,4 -4,4"/>
<text xml:space="preserve" text-anchor="middle" x="640.5" y="-385.4" font-family="Helvetica,sans-Serif" font-size="14.00">Proof narrative — standardPi_integration_by_parts_coord &#160;(22 decls)</text>
<g id="clust1" class="cluster">
<title>cluster_0</title>
<path fill="none" stroke="#cbd5e1" stroke-dasharray="5,2" d="M20,-8C20,-8 1261,-8 1261,-8 1267,-8 1273,-14 1273,-20 1273,-20 1273,-357.2 1273,-357.2 1273,-363.2 1267,-369.2 1261,-369.2 1261,-369.2 20,-369.2 20,-369.2 14,-369.2 8,-363.2 8,-357.2 8,-357.2 8,-20 8,-20 8,-14 14,-8 20,-8"/>
<text xml:space="preserve" text-anchor="middle" x="640.5" y="-355.3" font-family="Helvetica,sans-Serif" font-size="11.00">StatFoundation</text>
</g>
<!-- n0 -->
<g id="node1" class="node">
<title>n0</title>
<g id="a_node1"><a xlink:href="vscode://vscode-remote/wsl+Ubuntu/tmp/statlib-main-refresh.tmBBiR/Statlib/StatFoundation/RandomVariable/Gaussian/Standard.lean:31" xlink:title="abbrev · Statlib/StatFoundation/RandomVariable/Gaussian/Standard.lean:31" target="_blank">
<path fill="#d6e9ff" stroke="#3b82f6" d="M687.74,-52C687.74,-52 636.26,-52 636.26,-52 630.26,-52 624.26,-46 624.26,-40 624.26,-40 624.26,-28 624.26,-28 624.26,-22 630.26,-16 636.26,-16 636.26,-16 687.74,-16 687.74,-16 693.74,-16 699.74,-22 699.74,-28 699.74,-28 699.74,-40 699.74,-40 699.74,-46 693.74,-52 687.74,-52"/>
<text xml:space="preserve" text-anchor="middle" x="662" y="-31" font-family="Helvetica,sans-Serif" font-size="10.00">standardReal</text>
</a>
</g>
</g>
<!-- n1 -->
<g id="node2" class="node">
<title>n1</title>
<g id="a_node2"><a xlink:href="vscode://vscode-remote/wsl+Ubuntu/tmp/statlib-main-refresh.tmBBiR/Statlib/StatFoundation/RandomVariable/Gaussian/Standard.lean:34" xlink:title="def · Statlib/StatFoundation/RandomVariable/Gaussian/Standard.lean:34" target="_blank">
<path fill="#d6e9ff" stroke="#3b82f6" d="M87.9,-124C87.9,-124 48.1,-124 48.1,-124 42.1,-124 36.1,-118 36.1,-112 36.1,-112 36.1,-100 36.1,-100 36.1,-94 42.1,-88 48.1,-88 48.1,-88 87.9,-88 87.9,-88 93.9,-88 99.9,-94 99.9,-100 99.9,-100 99.9,-112 99.9,-112 99.9,-118 93.9,-124 87.9,-124"/>
<text xml:space="preserve" text-anchor="middle" x="68" y="-103" font-family="Helvetica,sans-Serif" font-size="10.00">standardPi</text>
</a>
</g>
</g>
<!-- n1&#45;&gt;n0 -->
<g id="edge1" class="edge">
<title>n1&#45;&gt;n0</title>
<path fill="none" stroke="#64748b" d="M100.35,-91.87C104.88,-90.38 109.52,-89.03 114,-88 296.46,-46.2 520.46,-37.34 615.66,-35.48"/>
<polygon fill="#64748b" stroke="#64748b" points="615.46,-37.93 622.41,-35.36 615.37,-33.03 615.46,-37.93"/>
</g>
<!-- n2 -->
<g id="node3" class="node">
<title>n2</title>
<g id="a_node3"><a xlink:href="vscode://vscode-remote/wsl+Ubuntu/tmp/statlib-main-refresh.tmBBiR/Statlib/StatFoundation/RandomVariable/Gaussian/Stein.lean:354" xlink:title="private lemma · Statlib/StatFoundation/RandomVariable/Gaussian/Stein.lean:354" target="_blank">
<path fill="#eef2f6" stroke="#94a3b8" d="M297.7,-268C297.7,-268 192.3,-268 192.3,-268 186.3,-268 180.3,-262 180.3,-256 180.3,-256 180.3,-244 180.3,-244 180.3,-238 186.3,-232 192.3,-232 192.3,-232 297.7,-232 297.7,-232 303.7,-232 309.7,-238 309.7,-244 309.7,-244 309.7,-256 309.7,-256 309.7,-262 303.7,-268 297.7,-268"/>
<text xml:space="preserve" text-anchor="middle" x="245" y="-247" font-family="Helvetica,sans-Serif" font-size="10.00">lineDeriv_eq_deriv_coord</text>
</a>
</g>
</g>
<!-- n3 -->
<g id="node4" class="node">
<title>n3</title>
<g id="a_node4"><a xlink:href="vscode://vscode-remote/wsl+Ubuntu/tmp/statlib-main-refresh.tmBBiR/Statlib/StatFoundation/RandomVariable/Gaussian/Stein.lean:378" xlink:title="private lemma · Statlib/StatFoundation/RandomVariable/Gaussian/Stein.lean:378" target="_blank">
<path fill="#eef2f6" stroke="#94a3b8" d="M412.57,-268C412.57,-268 339.43,-268 339.43,-268 333.43,-268 327.43,-262 327.43,-256 327.43,-256 327.43,-244 327.43,-244 327.43,-238 333.43,-232 339.43,-232 339.43,-232 412.57,-232 412.57,-232 418.57,-232 424.57,-238 424.57,-244 424.57,-244 424.57,-256 424.57,-256 424.57,-262 418.57,-268 412.57,-268"/>
<text xml:space="preserve" text-anchor="middle" x="376" y="-247" font-family="Helvetica,sans-Serif" font-size="10.00">lipschitz_insertNth</text>
</a>
</g>
</g>
<!-- n4 -->
<g id="node5" class="node">
<title>n4</title>
<g id="a_node5"><a xlink:href="vscode://vscode-remote/wsl+Ubuntu/tmp/statlib-main-refresh.tmBBiR/Statlib/StatFoundation/RandomVariable/Gaussian/Stein.lean:86" xlink:title="private lemma · Statlib/StatFoundation/RandomVariable/Gaussian/Stein.lean:86" target="_blank">
<path fill="#eef2f6" stroke="#94a3b8" d="M1215.31,-196C1215.31,-196 1082.69,-196 1082.69,-196 1076.69,-196 1070.69,-190 1070.69,-184 1070.69,-184 1070.69,-172 1070.69,-172 1070.69,-166 1076.69,-160 1082.69,-160 1082.69,-160 1215.31,-160 1215.31,-160 1221.31,-160 1227.31,-166 1227.31,-172 1227.31,-172 1227.31,-184 1227.31,-184 1227.31,-190 1221.31,-196 1215.31,-196"/>
<text xml:space="preserve" text-anchor="middle" x="1149" y="-175" font-family="Helvetica,sans-Serif" font-size="10.00">lipschitz_memLp_gaussianReal</text>
</a>
</g>
</g>
<!-- n4&#45;&gt;n0 -->
<g id="edge2" class="edge">
<title>n4&#45;&gt;n0</title>
<path fill="none" stroke="#64748b" d="M1188.18,-159.55C1202.45,-151.02 1217.04,-139.26 1225,-124 1232.4,-109.81 1235.77,-99.83 1225,-88 1190.48,-50.08 837.24,-38.75 708.56,-35.87"/>
<polygon fill="#64748b" stroke="#64748b" points="708.62,-33.42 701.57,-35.72 708.52,-38.32 708.62,-33.42"/>
</g>
<!-- n5 -->
<g id="node6" class="node">
<title>n5</title>
<g id="a_node6"><a xlink:href="vscode://vscode-remote/wsl+Ubuntu/tmp/statlib-main-refresh.tmBBiR/Statlib/StatFoundation/RandomVariable/Gaussian/Standard.lean:178" xlink:title="lemma · Statlib/StatFoundation/RandomVariable/Gaussian/Standard.lean:178" target="_blank">
<path fill="#eef2f6" stroke="#94a3b8" d="M977.1,-124C977.1,-124 808.9,-124 808.9,-124 802.9,-124 796.9,-118 796.9,-112 796.9,-112 796.9,-100 796.9,-100 796.9,-94 802.9,-88 808.9,-88 808.9,-88 977.1,-88 977.1,-88 983.1,-88 989.1,-94 989.1,-100 989.1,-100 989.1,-112 989.1,-112 989.1,-118 983.1,-124 977.1,-124"/>
<text xml:space="preserve" text-anchor="middle" x="893" y="-103" font-family="Helvetica,sans-Serif" font-size="10.00">hasDerivAt_standardGaussianPDFReal</text>
</a>
</g>
</g>
<!-- n6 -->
<g id="node7" class="node">
<title>n6</title>
<g id="a_node7"><a xlink:href="vscode://vscode-remote/wsl+Ubuntu/tmp/statlib-main-refresh.tmBBiR/Statlib/StatFoundation/RandomVariable/Gaussian/Standard.lean:96" xlink:title="lemma · Statlib/StatFoundation/RandomVariable/Gaussian/Standard.lean:96" target="_blank">
<path fill="#eef2f6" stroke="#94a3b8" d="M766.68,-124C766.68,-124 557.32,-124 557.32,-124 551.32,-124 545.32,-118 545.32,-112 545.32,-112 545.32,-100 545.32,-100 545.32,-94 551.32,-88 557.32,-88 557.32,-88 766.68,-88 766.68,-88 772.68,-88 778.68,-94 778.68,-100 778.68,-100 778.68,-112 778.68,-112 778.68,-118 772.68,-124 766.68,-124"/>
<text xml:space="preserve" text-anchor="middle" x="662" y="-103" font-family="Helvetica,sans-Serif" font-size="10.00">integrable_id_mul_mul_pdf_of_memLp_standard</text>
</a>
</g>
</g>
<!-- n6&#45;&gt;n0 -->
<g id="edge3" class="edge">
<title>n6&#45;&gt;n0</title>
<path fill="none" stroke="#64748b" d="M662,-87.7C662,-79.47 662,-69.48 662,-60.42"/>
<polygon fill="#64748b" stroke="#64748b" points="664.45,-60.62 662,-53.62 659.55,-60.62 664.45,-60.62"/>
</g>
<!-- n7 -->
<g id="node8" class="node">
<title>n7</title>
<g id="a_node8"><a xlink:href="vscode://vscode-remote/wsl+Ubuntu/tmp/statlib-main-refresh.tmBBiR/Statlib/StatFoundation/RandomVariable/Gaussian/Standard.lean:84" xlink:title="lemma · Statlib/StatFoundation/RandomVariable/Gaussian/Standard.lean:84" target="_blank">
<path fill="#eef2f6" stroke="#94a3b8" d="M1193.17,-124C1193.17,-124 1018.83,-124 1018.83,-124 1012.83,-124 1006.83,-118 1006.83,-112 1006.83,-112 1006.83,-100 1006.83,-100 1006.83,-94 1012.83,-88 1018.83,-88 1018.83,-88 1193.17,-88 1193.17,-88 1199.17,-88 1205.17,-94 1205.17,-100 1205.17,-100 1205.17,-112 1205.17,-112 1205.17,-118 1199.17,-124 1193.17,-124"/>
<text xml:space="preserve" text-anchor="middle" x="1106" y="-103" font-family="Helvetica,sans-Serif" font-size="10.00">integrable_mul_pdf_of_memLp_standard</text>
</a>
</g>
</g>
<!-- n7&#45;&gt;n0 -->
<g id="edge4" class="edge">
<title>n7&#45;&gt;n0</title>
<path fill="none" stroke="#64748b" d="M1006.36,-89.29C913.24,-74.61 778.36,-53.35 708.24,-42.29"/>
<polygon fill="#64748b" stroke="#64748b" points="708.81,-39.9 701.52,-41.23 708.05,-44.74 708.81,-39.9"/>
</g>
<!-- n8 -->
<g id="node9" class="node">
<title>n8</title>
<g id="a_node9"><a xlink:href="vscode://vscode-remote/wsl+Ubuntu/tmp/statlib-main-refresh.tmBBiR/Statlib/StatFoundation/RandomVariable/Gaussian/Stein.lean:25" xlink:title="lemma · Statlib/StatFoundation/RandomVariable/Gaussian/Stein.lean:25" target="_blank">
<path fill="#eef2f6" stroke="#94a3b8" d="M1040.42,-196C1040.42,-196 945.58,-196 945.58,-196 939.58,-196 933.58,-190 933.58,-184 933.58,-184 933.58,-172 933.58,-172 933.58,-166 939.58,-160 945.58,-160 945.58,-160 1040.42,-160 1040.42,-160 1046.42,-160 1052.42,-166 1052.42,-172 1052.42,-172 1052.42,-184 1052.42,-184 1052.42,-190 1046.42,-196 1040.42,-196"/>
<text xml:space="preserve" text-anchor="middle" x="993" y="-175" font-family="Helvetica,sans-Serif" font-size="10.00">standard_stein_identity</text>
</a>
</g>
</g>
<!-- n8&#45;&gt;n0 -->
<g id="edge5" class="edge">
<title>n8&#45;&gt;n0</title>
<path fill="none" stroke="#64748b" d="M1052.83,-162.22C1055.93,-161.47 1059,-160.72 1062,-160 1134.66,-142.44 1264.27,-143.33 1214,-88 1180.26,-50.87 835.45,-39.06 708.55,-35.96"/>
<polygon fill="#64748b" stroke="#64748b" points="708.72,-33.52 701.66,-35.8 708.6,-38.41 708.72,-33.52"/>
</g>
<!-- n8&#45;&gt;n5 -->
<g id="edge6" class="edge">
<title>n8&#45;&gt;n5</title>
<path fill="none" stroke="#64748b" d="M968.02,-159.52C954.8,-150.26 938.43,-138.8 924.36,-128.95"/>
<polygon fill="#64748b" stroke="#64748b" points="926.04,-127.14 918.9,-125.13 923.23,-131.15 926.04,-127.14"/>
</g>
<!-- n8&#45;&gt;n6 -->
<g id="edge7" class="edge">
<title>n8&#45;&gt;n6</title>
<path fill="none" stroke="#64748b" d="M933.2,-162.1C930.09,-161.38 927.01,-160.67 924,-160 870.38,-147.98 810.31,-135.74 761.23,-126.05"/>
<polygon fill="#64748b" stroke="#64748b" points="761.96,-123.7 754.62,-124.75 761.02,-128.51 761.96,-123.7"/>
</g>
<!-- n8&#45;&gt;n7 -->
<g id="edge8" class="edge">
<title>n8&#45;&gt;n7</title>
<path fill="none" stroke="#64748b" d="M1021.22,-159.52C1036.3,-150.18 1055,-138.59 1071,-128.68"/>
<polygon fill="#64748b" stroke="#64748b" points="1072.19,-130.83 1076.85,-125.06 1069.61,-126.66 1072.19,-130.83"/>
</g>
<!-- n9 -->
<g id="node10" class="node">
<title>n9</title>
<g id="a_node10"><a xlink:href="vscode://vscode-remote/wsl+Ubuntu/tmp/statlib-main-refresh.tmBBiR/Statlib/StatFoundation/RandomVariable/Gaussian/Stein.lean:63" xlink:title="private lemma · Statlib/StatFoundation/RandomVariable/Gaussian/Stein.lean:63" target="_blank">
<path fill="#eef2f6" stroke="#94a3b8" d="M573.8,-196C573.8,-196 496.2,-196 496.2,-196 490.2,-196 484.2,-190 484.2,-184 484.2,-184 484.2,-172 484.2,-172 484.2,-166 490.2,-160 496.2,-160 496.2,-160 573.8,-160 573.8,-160 579.8,-160 585.8,-166 585.8,-172 585.8,-172 585.8,-184 585.8,-184 585.8,-190 579.8,-196 573.8,-196"/>
<text xml:space="preserve" text-anchor="middle" x="535" y="-175" font-family="Helvetica,sans-Serif" font-size="10.00">steklov_hasDerivAt</text>
</a>
</g>
</g>
<!-- n10 -->
<g id="node11" class="node">
<title>n10</title>
<g id="a_node11"><a xlink:href="vscode://vscode-remote/wsl+Ubuntu/tmp/statlib-main-refresh.tmBBiR/Statlib/StatFoundation/RandomVariable/Gaussian/Stein.lean:106" xlink:title="private lemma · Statlib/StatFoundation/RandomVariable/Gaussian/Stein.lean:106" target="_blank">
<path fill="#eef2f6" stroke="#94a3b8" d="M386.31,-124C386.31,-124 303.69,-124 303.69,-124 297.69,-124 291.69,-118 291.69,-112 291.69,-112 291.69,-100 291.69,-100 291.69,-94 297.69,-88 303.69,-88 303.69,-88 386.31,-88 386.31,-88 392.31,-88 398.31,-94 398.31,-100 398.31,-100 398.31,-112 398.31,-112 398.31,-118 392.31,-124 386.31,-124"/>
<text xml:space="preserve" text-anchor="middle" x="345" y="-103" font-family="Helvetica,sans-Serif" font-size="10.00">forward_diff_tendsto</text>
</a>
</g>
</g>
<!-- n11 -->
<g id="node12" class="node">
<title>n11</title>
<g id="a_node12"><a xlink:href="vscode://vscode-remote/wsl+Ubuntu/tmp/statlib-main-refresh.tmBBiR/Statlib/StatFoundation/RandomVariable/Gaussian/Stein.lean:116" xlink:title="private lemma · Statlib/StatFoundation/RandomVariable/Gaussian/Stein.lean:116" target="_blank">
<path fill="#eef2f6" stroke="#94a3b8" d="M262.03,-124C262.03,-124 169.97,-124 169.97,-124 163.97,-124 157.97,-118 157.97,-112 157.97,-112 157.97,-100 157.97,-100 157.97,-94 163.97,-88 169.97,-88 169.97,-88 262.03,-88 262.03,-88 268.03,-88 274.03,-94 274.03,-100 274.03,-100 274.03,-112 274.03,-112 274.03,-118 268.03,-124 262.03,-124"/>
<text xml:space="preserve" text-anchor="middle" x="216" y="-103" font-family="Helvetica,sans-Serif" font-size="10.00">backward_diff_tendsto</text>
</a>
</g>
</g>
<!-- n12 -->
<g id="node13" class="node">
<title>n12</title>
<g id="a_node13"><a xlink:href="vscode://vscode-remote/wsl+Ubuntu/tmp/statlib-main-refresh.tmBBiR/Statlib/StatFoundation/RandomVariable/Gaussian/Stein.lean:128" xlink:title="private lemma · Statlib/StatFoundation/RandomVariable/Gaussian/Stein.lean:128" target="_blank">
<path fill="#eef2f6" stroke="#94a3b8" d="M732.54,-196C732.54,-196 615.46,-196 615.46,-196 609.46,-196 603.46,-190 603.46,-184 603.46,-184 603.46,-172 603.46,-172 603.46,-166 609.46,-160 615.46,-160 615.46,-160 732.54,-160 732.54,-160 738.54,-160 744.54,-166 744.54,-172 744.54,-172 744.54,-184 744.54,-184 744.54,-190 738.54,-196 732.54,-196"/>
<text xml:space="preserve" text-anchor="middle" x="674" y="-175" font-family="Helvetica,sans-Serif" font-size="10.00">symm_diff_quotient_tendsto</text>
</a>
</g>
</g>
<!-- n12&#45;&gt;n10 -->
<g id="edge9" class="edge">
<title>n12&#45;&gt;n10</title>
<path fill="none" stroke="#64748b" d="M603.38,-161.72C600.55,-161.14 597.75,-160.56 595,-160 512.07,-143.1 490.47,-143.04 408,-124 407.52,-123.89 407.03,-123.78 406.55,-123.66"/>
<polygon fill="#64748b" stroke="#64748b" points="407.4,-121.35 400.02,-122.09 406.25,-126.11 407.4,-121.35"/>
</g>
<!-- n12&#45;&gt;n11 -->
<g id="edge10" class="edge">
<title>n12&#45;&gt;n11</title>
<path fill="none" stroke="#64748b" d="M603,-161.38C600.3,-160.9 597.63,-160.43 595,-160 457.27,-137.29 420.29,-149.22 283,-124 282.82,-123.97 282.65,-123.93 282.47,-123.9"/>
<polygon fill="#64748b" stroke="#64748b" points="283.19,-121.55 275.85,-122.59 282.24,-126.35 283.19,-121.55"/>
</g>
<!-- n13 -->
<g id="node14" class="node">
<title>n13</title>
<g id="a_node14"><a xlink:href="vscode://vscode-remote/wsl+Ubuntu/tmp/statlib-main-refresh.tmBBiR/Statlib/StatFoundation/RandomVariable/Gaussian/Stein.lean:139" xlink:title="private lemma · Statlib/StatFoundation/RandomVariable/Gaussian/Stein.lean:139" target="_blank">
<path fill="#eef2f6" stroke="#94a3b8" d="M515.25,-124C515.25,-124 428.75,-124 428.75,-124 422.75,-124 416.75,-118 416.75,-112 416.75,-112 416.75,-100 416.75,-100 416.75,-94 422.75,-88 428.75,-88 428.75,-88 515.25,-88 515.25,-88 521.25,-88 527.25,-94 527.25,-100 527.25,-100 527.25,-112 527.25,-112 527.25,-118 521.25,-124 515.25,-124"/>
<text xml:space="preserve" text-anchor="middle" x="472" y="-103" font-family="Helvetica,sans-Serif" font-size="10.00">steklov_sub_norm_le</text>
</a>
</g>
</g>
<!-- n14 -->
<g id="node15" class="node">
<title>n14</title>
<g id="a_node15"><a xlink:href="vscode://vscode-remote/wsl+Ubuntu/tmp/statlib-main-refresh.tmBBiR/Statlib/StatFoundation/RandomVariable/Gaussian/Stein.lean:174" xlink:title="private lemma · Statlib/StatFoundation/RandomVariable/Gaussian/Stein.lean:174" target="_blank">
<path fill="#eef2f6" stroke="#94a3b8" d="M903.37,-196C903.37,-196 794.63,-196 794.63,-196 788.63,-196 782.63,-190 782.63,-184 782.63,-184 782.63,-172 782.63,-172 782.63,-166 788.63,-160 794.63,-160 794.63,-160 903.37,-160 903.37,-160 909.37,-160 915.37,-166 915.37,-172 915.37,-172 915.37,-184 915.37,-184 915.37,-190 909.37,-196 903.37,-196"/>
<text xml:space="preserve" text-anchor="middle" x="849" y="-175" font-family="Helvetica,sans-Serif" font-size="10.00">steklov_tendsto_pointwise</text>
</a>
</g>
</g>
<!-- n14&#45;&gt;n13 -->
<g id="edge11" class="edge">
<title>n14&#45;&gt;n13</title>
<path fill="none" stroke="#64748b" d="M782.27,-162.53C777.78,-161.64 773.33,-160.79 769,-160 665.93,-141.1 638.56,-145.48 536,-124 535.82,-123.96 535.65,-123.93 535.47,-123.89"/>
<polygon fill="#64748b" stroke="#64748b" points="536.26,-121.55 528.89,-122.43 535.2,-126.34 536.26,-121.55"/>
</g>
<!-- n15 -->
<g id="node16" class="node">
<title>n15</title>
<g id="a_node16"><a xlink:href="vscode://vscode-remote/wsl+Ubuntu/tmp/statlib-main-refresh.tmBBiR/Statlib/StatFoundation/RandomVariable/Gaussian/Stein.lean:201" xlink:title="lemma · Statlib/StatFoundation/RandomVariable/Gaussian/Stein.lean:201" target="_blank">
<path fill="#eef2f6" stroke="#94a3b8" d="M779.94,-268C779.94,-268 630.06,-268 630.06,-268 624.06,-268 618.06,-262 618.06,-256 618.06,-256 618.06,-244 618.06,-244 618.06,-238 624.06,-232 630.06,-232 630.06,-232 779.94,-232 779.94,-232 785.94,-232 791.94,-238 791.94,-244 791.94,-244 791.94,-256 791.94,-256 791.94,-262 785.94,-268 779.94,-268"/>
<text xml:space="preserve" text-anchor="middle" x="705" y="-247" font-family="Helvetica,sans-Serif" font-size="10.00">standard_stein_identity_of_lipschitz</text>
</a>
</g>
</g>
<!-- n15&#45;&gt;n0 -->
<g id="edge12" class="edge">
<title>n15&#45;&gt;n0</title>
<path fill="none" stroke="#64748b" d="M617.59,-232.41C557.59,-220.42 486.75,-204.84 475,-196 460.37,-184.99 470.2,-170.19 455,-160 398.12,-121.88 194.5,-175.17 149,-124 138.37,-112.04 138.28,-99.88 149,-88 179.97,-53.67 494.9,-40.24 615.43,-36.33"/>
<polygon fill="#64748b" stroke="#64748b" points="615.33,-38.78 622.25,-36.11 615.17,-33.88 615.33,-38.78"/>
</g>
<!-- n15&#45;&gt;n4 -->
<g id="edge14" class="edge">
<title>n15&#45;&gt;n4</title>
<path fill="none" stroke="#64748b" d="M792.35,-233.39C795.27,-232.91 798.16,-232.45 801,-232 916.23,-213.83 945.91,-215.07 1061,-196 1061.38,-195.94 1061.77,-195.87 1062.15,-195.81"/>
<polygon fill="#64748b" stroke="#64748b" points="1062.38,-198.26 1068.86,-194.66 1061.55,-193.43 1062.38,-198.26"/>
</g>
<!-- n15&#45;&gt;n8 -->
<g id="edge13" class="edge">
<title>n15&#45;&gt;n8</title>
<path fill="none" stroke="#64748b" d="M777.52,-231.53C820.18,-221.23 875.17,-207.92 924,-196 924.37,-195.91 924.75,-195.82 925.13,-195.72"/>
<polygon fill="#64748b" stroke="#64748b" points="925.48,-198.16 931.69,-194.12 924.31,-193.4 925.48,-198.16"/>
</g>
<!-- n15&#45;&gt;n9 -->
<g id="edge15" class="edge">
<title>n15&#45;&gt;n9</title>
<path fill="none" stroke="#64748b" d="M662.54,-231.52C639.02,-221.83 609.65,-209.74 585.03,-199.6"/>
<polygon fill="#64748b" stroke="#64748b" points="586.02,-197.36 578.61,-196.96 584.15,-201.89 586.02,-197.36"/>
</g>
<!-- n15&#45;&gt;n12 -->
<g id="edge16" class="edge">
<title>n15&#45;&gt;n12</title>
<path fill="none" stroke="#64748b" d="M697.34,-231.7C693.62,-223.3 689.09,-213.07 685.01,-203.86"/>
<polygon fill="#64748b" stroke="#64748b" points="687.26,-202.9 682.19,-197.49 682.78,-204.88 687.26,-202.9"/>
</g>
<!-- n15&#45;&gt;n13 -->
<g id="edge17" class="edge">
<title>n15&#45;&gt;n13</title>
<path fill="none" stroke="#64748b" d="M726.31,-231.67C747.03,-212.75 772.83,-182.19 754,-160 722.23,-122.56 584,-134.31 536,-124 535.82,-123.96 535.65,-123.92 535.47,-123.89"/>
<polygon fill="#64748b" stroke="#64748b" points="536.27,-121.55 528.9,-122.4 535.19,-126.33 536.27,-121.55"/>
</g>
<!-- n15&#45;&gt;n14 -->
<g id="edge18" class="edge">
<title>n15&#45;&gt;n14</title>
<path fill="none" stroke="#64748b" d="M740.97,-231.52C760.7,-221.92 785.3,-209.96 806.04,-199.88"/>
<polygon fill="#64748b" stroke="#64748b" points="806.91,-202.19 812.13,-196.92 804.76,-197.78 806.91,-202.19"/>
</g>
<!-- n16 -->
<g id="node17" class="node">
<title>n16</title>
<g id="a_node17"><a xlink:href="vscode://vscode-remote/wsl+Ubuntu/tmp/statlib-main-refresh.tmBBiR/Statlib/StatFoundation/RandomVariable/Gaussian/Stein.lean:369" xlink:title="private lemma · Statlib/StatFoundation/RandomVariable/Gaussian/Stein.lean:369" target="_blank">
<path fill="#eef2f6" stroke="#94a3b8" d="M906.42,-268C906.42,-268 821.58,-268 821.58,-268 815.58,-268 809.58,-262 809.58,-256 809.58,-256 809.58,-244 809.58,-244 809.58,-238 815.58,-232 821.58,-232 821.58,-232 906.42,-232 906.42,-232 912.42,-232 918.42,-238 918.42,-244 918.42,-244 918.42,-256 918.42,-256 918.42,-262 912.42,-268 906.42,-268"/>
<text xml:space="preserve" text-anchor="middle" x="864" y="-247" font-family="Helvetica,sans-Serif" font-size="10.00">update_insertNth_eq</text>
</a>
</g>
</g>
<!-- n17 -->
<g id="node18" class="node">
<title>n17</title>
<g id="a_node18"><a xlink:href="vscode://vscode-remote/wsl+Ubuntu/tmp/statlib-main-refresh.tmBBiR/Statlib/StatFoundation/RandomVariable/Gaussian/Standard.lean:197" xlink:title="lemma · Statlib/StatFoundation/RandomVariable/Gaussian/Standard.lean:197" target="_blank">
<path fill="#eef2f6" stroke="#94a3b8" d="M130.32,-196C130.32,-196 27.68,-196 27.68,-196 21.68,-196 15.68,-190 15.68,-184 15.68,-184 15.68,-172 15.68,-172 15.68,-166 21.68,-160 27.68,-160 27.68,-160 130.32,-160 130.32,-160 136.32,-160 142.32,-166 142.32,-172 142.32,-172 142.32,-184 142.32,-184 142.32,-190 136.32,-196 130.32,-196"/>
<text xml:space="preserve" text-anchor="middle" x="79" y="-175" font-family="Helvetica,sans-Serif" font-size="10.00">integrable_id_standardPi</text>
</a>
</g>
</g>
<!-- n17&#45;&gt;n0 -->
<g id="edge20" class="edge">
<title>n17&#45;&gt;n0</title>
<path fill="none" stroke="#64748b" d="M56.78,-159.84C34.72,-140.79 6.89,-109.86 27,-88 66.71,-44.84 476.36,-36.82 615.81,-35.33"/>
<polygon fill="#64748b" stroke="#64748b" points="615.72,-37.78 622.69,-35.26 615.67,-32.88 615.72,-37.78"/>
</g>
<!-- n17&#45;&gt;n1 -->
<g id="edge19" class="edge">
<title>n17&#45;&gt;n1</title>
<path fill="none" stroke="#64748b" d="M76.28,-159.7C74.99,-151.47 73.42,-141.48 71.99,-132.42"/>
<polygon fill="#64748b" stroke="#64748b" points="74.43,-132.13 70.92,-125.6 69.59,-132.9 74.43,-132.13"/>
</g>
<!-- n18 -->
<g id="node19" class="node">
<title>n18</title>
<g id="a_node19"><a xlink:href="vscode://vscode-remote/wsl+Ubuntu/tmp/statlib-main-refresh.tmBBiR/Statlib/StatFoundation/RandomVariable/Gaussian/Stein.lean:392" xlink:title="private lemma · Statlib/StatFoundation/RandomVariable/Gaussian/Stein.lean:392" target="_blank">
<path fill="#eef2f6" stroke="#94a3b8" d="M294.31,-196C294.31,-196 211.69,-196 211.69,-196 205.69,-196 199.69,-190 199.69,-184 199.69,-184 199.69,-172 199.69,-172 199.69,-166 205.69,-160 211.69,-160 211.69,-160 294.31,-160 294.31,-160 300.31,-160 306.31,-166 306.31,-172 306.31,-172 306.31,-184 306.31,-184 306.31,-190 300.31,-196 294.31,-196"/>
<text xml:space="preserve" text-anchor="middle" x="253" y="-175" font-family="Helvetica,sans-Serif" font-size="10.00">integrable_sq_coord</text>
</a>
</g>
</g>
<!-- n18&#45;&gt;n0 -->
<g id="edge22" class="edge">
<title>n18&#45;&gt;n0</title>
<path fill="none" stroke="#64748b" d="M199.41,-159.6C171.63,-149.39 141.88,-136.14 134,-124 125.29,-110.58 123.27,-99.87 134,-88 166.03,-52.6 492.33,-39.78 615.38,-36.18"/>
<polygon fill="#64748b" stroke="#64748b" points="615.44,-38.63 622.37,-35.98 615.3,-33.73 615.44,-38.63"/>
</g>
<!-- n18&#45;&gt;n1 -->
<g id="edge21" class="edge">
<title>n18&#45;&gt;n1</title>
<path fill="none" stroke="#64748b" d="M206.79,-159.52C176.47,-148.04 137.2,-133.18 108.17,-122.2"/>
<polygon fill="#64748b" stroke="#64748b" points="109.1,-119.93 101.69,-119.75 107.37,-124.52 109.1,-119.93"/>
</g>
<!-- n19 -->
<g id="node20" class="node">
<title>n19</title>
<g id="a_node20"><a xlink:href="vscode://vscode-remote/wsl+Ubuntu/tmp/statlib-main-refresh.tmBBiR/Statlib/StatFoundation/RandomVariable/Gaussian/Stein.lean:402" xlink:title="private lemma · Statlib/StatFoundation/RandomVariable/Gaussian/Stein.lean:402" target="_blank">
<path fill="#eef2f6" stroke="#94a3b8" d="M434.09,-196C434.09,-196 335.91,-196 335.91,-196 329.91,-196 323.91,-190 323.91,-184 323.91,-184 323.91,-172 323.91,-172 323.91,-166 329.91,-160 335.91,-160 335.91,-160 434.09,-160 434.09,-160 440.09,-160 446.09,-166 446.09,-172 446.09,-172 446.09,-184 446.09,-184 446.09,-190 440.09,-196 434.09,-196"/>
<text xml:space="preserve" text-anchor="middle" x="385" y="-175" font-family="Helvetica,sans-Serif" font-size="10.00">pi_norm_sq_le_sum_sq</text>
</a>
</g>
</g>
<!-- n20 -->
<g id="node21" class="node">
<title>n20</title>
<g id="a_node21"><a xlink:href="vscode://vscode-remote/wsl+Ubuntu/tmp/statlib-main-refresh.tmBBiR/Statlib/StatFoundation/RandomVariable/Gaussian/Stein.lean:414" xlink:title="private lemma · Statlib/StatFoundation/RandomVariable/Gaussian/Stein.lean:414" target="_blank">
<path fill="#eef2f6" stroke="#94a3b8" d="M587.88,-268C587.88,-268 454.12,-268 454.12,-268 448.12,-268 442.12,-262 442.12,-256 442.12,-256 442.12,-244 442.12,-244 442.12,-238 448.12,-232 454.12,-232 454.12,-232 587.88,-232 587.88,-232 593.88,-232 599.88,-238 599.88,-244 599.88,-244 599.88,-256 599.88,-256 599.88,-262 593.88,-268 587.88,-268"/>
<text xml:space="preserve" text-anchor="middle" x="521" y="-247" font-family="Helvetica,sans-Serif" font-size="10.00">integrable_norm_sq_standardPi</text>
</a>
</g>
</g>
<!-- n20&#45;&gt;n1 -->
<g id="edge23" class="edge">
<title>n20&#45;&gt;n1</title>
<path fill="none" stroke="#64748b" d="M441.84,-233.37C439.2,-232.9 436.58,-232.44 434,-232 326.4,-213.53 283.77,-253.57 191,-196 174.45,-185.73 180.52,-172.99 166,-160 149.02,-144.81 126.92,-132.38 108.01,-123.39"/>
<polygon fill="#64748b" stroke="#64748b" points="109.15,-121.21 101.77,-120.5 107.09,-125.66 109.15,-121.21"/>
</g>
<!-- n20&#45;&gt;n18 -->
<g id="edge24" class="edge">
<title>n20&#45;&gt;n18</title>
<path fill="none" stroke="#64748b" d="M452.26,-231.6C412.18,-221.39 360.68,-208.14 315,-196 314.92,-195.98 314.83,-195.96 314.75,-195.93"/>
<polygon fill="#64748b" stroke="#64748b" points="315.61,-193.63 308.22,-194.19 314.35,-198.36 315.61,-193.63"/>
</g>
<!-- n20&#45;&gt;n19 -->
<g id="edge25" class="edge">
<title>n20&#45;&gt;n19</title>
<path fill="none" stroke="#64748b" d="M487.03,-231.52C468.56,-222.01 445.57,-210.17 426.09,-200.15"/>
<polygon fill="#64748b" stroke="#64748b" points="427.23,-197.98 419.88,-196.95 424.98,-202.34 427.23,-197.98"/>
</g>
<!-- n21 -->
<g id="node22" class="node">
<title>n21</title>
<g id="a_node22"><a xlink:href="vscode://vscode-remote/wsl+Ubuntu/tmp/statlib-main-refresh.tmBBiR/Statlib/StatFoundation/RandomVariable/Gaussian/Stein.lean:428" xlink:title="lemma · Statlib/StatFoundation/RandomVariable/Gaussian/Stein.lean:428" target="_blank">
<path fill="#eef2f6" stroke="#94a3b8" stroke-width="3" d="M604.28,-340C604.28,-340 437.72,-340 437.72,-340 431.72,-340 425.72,-334 425.72,-328 425.72,-328 425.72,-316 425.72,-316 425.72,-310 431.72,-304 437.72,-304 437.72,-304 604.28,-304 604.28,-304 610.28,-304 616.28,-310 616.28,-316 616.28,-316 616.28,-328 616.28,-328 616.28,-334 610.28,-340 604.28,-340"/>
<text xml:space="preserve" text-anchor="middle" x="521" y="-319" font-family="Helvetica,sans-Serif" font-size="10.00">standardPi_integration_by_parts_coord</text>
</a>
</g>
</g>
<!-- n21&#45;&gt;n0 -->
<g id="edge28" class="edge">
<title>n21&#45;&gt;n0</title>
<path fill="none" stroke="#64748b" d="M617.68,-319.62C795.51,-314.74 1163.01,-292.87 1236,-196 1247.15,-181.2 1250.66,-106.58 1233,-88 1197.1,-50.22 837.88,-38.78 708.3,-35.87"/>
<polygon fill="#64748b" stroke="#64748b" points="708.67,-33.43 701.62,-35.73 708.56,-38.33 708.67,-33.43"/>
</g>
<!-- n21&#45;&gt;n1 -->
<g id="edge26" class="edge">
<title>n21&#45;&gt;n1</title>
<path fill="none" stroke="#64748b" d="M424.31,-318.61C333.42,-314.27 206.22,-302.08 171,-268 135.92,-234.05 178.27,-200.49 151,-160 140.4,-144.26 123.38,-132.21 107.51,-123.6"/>
<polygon fill="#64748b" stroke="#64748b" points="109.02,-121.62 101.67,-120.58 106.77,-125.97 109.02,-121.62"/>
</g>
<!-- n21&#45;&gt;n2 -->
<g id="edge27" class="edge">
<title>n21&#45;&gt;n2</title>
<path fill="none" stroke="#64748b" d="M448.12,-302.52C407.93,-292.32 358.18,-279.7 317.97,-269.51"/>
<polygon fill="#64748b" stroke="#64748b" points="318.65,-267.15 311.27,-267.81 317.45,-271.9 318.65,-267.15"/>
</g>
<!-- n21&#45;&gt;n3 -->
<g id="edge29" class="edge">
<title>n21&#45;&gt;n3</title>
<path fill="none" stroke="#64748b" d="M482.9,-302.61C463.41,-293.2 439.6,-281.7 419.4,-271.95"/>
<polygon fill="#64748b" stroke="#64748b" points="420.58,-269.8 413.21,-268.96 418.45,-274.21 420.58,-269.8"/>
</g>
<!-- n21&#45;&gt;n4 -->
<g id="edge30" class="edge">
<title>n21&#45;&gt;n4</title>
<path fill="none" stroke="#64748b" d="M617.46,-315.26C700.56,-308.7 823.15,-295.13 927,-268 991.43,-251.17 1062.26,-220.5 1106.18,-199.93"/>
<polygon fill="#64748b" stroke="#64748b" points="1107.14,-202.19 1112.43,-196.99 1105.05,-197.76 1107.14,-202.19"/>
</g>
<!-- n21&#45;&gt;n15 -->
<g id="edge31" class="edge">
<title>n21&#45;&gt;n15</title>
<path fill="none" stroke="#64748b" d="M569.34,-302.61C594.53,-293.03 625.4,-281.28 651.32,-271.42"/>
<polygon fill="#64748b" stroke="#64748b" points="652.11,-273.74 657.78,-268.96 650.37,-269.16 652.11,-273.74"/>
</g>
<!-- n21&#45;&gt;n16 -->
<g id="edge32" class="edge">
<title>n21&#45;&gt;n16</title>
<path fill="none" stroke="#64748b" d="M617.6,-304.6C669.62,-295.31 735.02,-282.91 801.03,-267.92"/>
<polygon fill="#64748b" stroke="#64748b" points="801.33,-270.37 807.61,-266.42 800.24,-265.59 801.33,-270.37"/>
</g>
<!-- n21&#45;&gt;n17 -->
<g id="edge33" class="edge">
<title>n21&#45;&gt;n17</title>
<path fill="none" stroke="#64748b" d="M424.47,-314.61C332.28,-307.15 200.93,-292.6 156,-268 128.59,-252.99 106.44,-224.14 93.06,-203.35"/>
<polygon fill="#64748b" stroke="#64748b" points="95.28,-202.29 89.5,-197.65 91.13,-204.89 95.28,-202.29"/>
</g>
<!-- n21&#45;&gt;n20 -->
<g id="edge34" class="edge">
<title>n21&#45;&gt;n20</title>
<path fill="none" stroke="#64748b" d="M521,-302.61C521,-294.59 521,-285.05 521,-276.37"/>
<polygon fill="#64748b" stroke="#64748b" points="523.45,-276.58 521,-269.58 518.55,-276.58 523.45,-276.58"/>
</g>
</g>
</svg>
