<?xml version="1.0" encoding="UTF-8" standalone="no"?>
<!DOCTYPE svg PUBLIC "-//W3C//DTD SVG 1.1//EN"
 "http://www.w3.org/Graphics/SVG/1.1/DTD/svg11.dtd">
<!-- Generated by graphviz version 15.0.0 (20260523.1842)
 -->
<!-- Title: standardReal_ou_mehler_generator_pos Pages: 1 -->
<svg width="1502pt" height="698pt"
 viewBox="0.00 0.00 1502.00 698.00" xmlns="http://www.w3.org/2000/svg" xmlns:xlink="http://www.w3.org/1999/xlink">
<g id="graph0" class="graph" transform="scale(1 1) rotate(0) translate(4 694)">
<title>standardReal_ou_mehler_generator_pos</title>
<polygon fill="white" stroke="none" points="-4,4 -4,-694 1498,-694 1498,4 -4,4"/>
<text xml:space="preserve" text-anchor="middle" x="747" y="-673.4" font-family="Helvetica,sans-Serif" font-size="14.00">Proof narrative — standardReal_ou_mehler_generator_pos &#160;(26 decls)</text>
<g id="clust1" class="cluster">
<title>cluster_0</title>
<path fill="none" stroke="#cbd5e1" stroke-dasharray="5,2" d="M20,-8C20,-8 1474,-8 1474,-8 1480,-8 1486,-14 1486,-20 1486,-20 1486,-645.2 1486,-645.2 1486,-651.2 1480,-657.2 1474,-657.2 1474,-657.2 20,-657.2 20,-657.2 14,-657.2 8,-651.2 8,-645.2 8,-645.2 8,-20 8,-20 8,-14 14,-8 20,-8"/>
<text xml:space="preserve" text-anchor="middle" x="747" y="-643.3" font-family="Helvetica,sans-Serif" font-size="11.00">StatFoundation</text>
</g>
<!-- n0 -->
<g id="node1" class="node">
<title>n0</title>
<g id="a_node1"><a xlink:href="https://github.com/statopia/statlib/blob/main/Statlib/StatFoundation/RandomVariable/Gaussian/Standard.lean#L31" xlink:title="abbrev · Statlib/StatFoundation/RandomVariable/Gaussian/Standard.lean:31" target="_blank">
<path fill="#d6e9ff" stroke="#3b82f6" d="M676.74,-340C676.74,-340 625.26,-340 625.26,-340 619.26,-340 613.26,-334 613.26,-328 613.26,-328 613.26,-316 613.26,-316 613.26,-310 619.26,-304 625.26,-304 625.26,-304 676.74,-304 676.74,-304 682.74,-304 688.74,-310 688.74,-316 688.74,-316 688.74,-328 688.74,-328 688.74,-334 682.74,-340 676.74,-340"/>
<text xml:space="preserve" text-anchor="middle" x="651" y="-319" font-family="Helvetica,sans-Serif" font-size="10.00">standardReal</text>
</a>
</g>
</g>
<!-- n1 -->
<g id="node2" class="node">
<title>n1</title>
<g id="a_node2"><a xlink:href="https://github.com/statopia/statlib/blob/main/Statlib/StatFoundation/RandomVariable/Gaussian/LogSobolev.lean#L1294" xlink:title="def · Statlib/StatFoundation/RandomVariable/Gaussian/LogSobolev.lean:1294" target="_blank">
<path fill="#d6e9ff" stroke="#3b82f6" d="M433.15,-556C433.15,-556 328.85,-556 328.85,-556 322.85,-556 316.85,-550 316.85,-544 316.85,-544 316.85,-532 316.85,-532 316.85,-526 322.85,-520 328.85,-520 328.85,-520 433.15,-520 433.15,-520 439.15,-520 445.15,-526 445.15,-532 445.15,-532 445.15,-544 445.15,-544 445.15,-550 439.15,-556 433.15,-556"/>
<text xml:space="preserve" text-anchor="middle" x="381" y="-535" font-family="Helvetica,sans-Serif" font-size="10.00">standardReal_ou_mehler</text>
</a>
</g>
</g>
<!-- n1&#45;&gt;n0 -->
<g id="edge1" class="edge">
<title>n1&#45;&gt;n0</title>
<path fill="none" stroke="#64748b" d="M372.68,-519.61C358.57,-487.27 334.64,-417.42 369,-376 398.38,-340.59 532.21,-328.68 604.44,-324.8"/>
<polygon fill="#64748b" stroke="#64748b" points="604.56,-327.25 611.42,-324.44 604.31,-322.36 604.56,-327.25"/>
</g>
<!-- n2 -->
<g id="node3" class="node">
<title>n2</title>
<g id="a_node3"><a xlink:href="https://github.com/statopia/statlib/blob/main/Statlib/StatFoundation/RandomVariable/Gaussian/LogSobolev.lean#L22" xlink:title="lemma · Statlib/StatFoundation/RandomVariable/Gaussian/LogSobolev.lean:22" target="_blank">
<path fill="#eef2f6" stroke="#94a3b8" d="M501.99,-412C501.99,-412 406.01,-412 406.01,-412 400.01,-412 394.01,-406 394.01,-400 394.01,-400 394.01,-388 394.01,-388 394.01,-382 400.01,-376 406.01,-376 406.01,-376 501.99,-376 501.99,-376 507.99,-376 513.99,-382 513.99,-388 513.99,-388 513.99,-400 513.99,-400 513.99,-406 507.99,-412 501.99,-412"/>
<text xml:space="preserve" text-anchor="middle" x="454" y="-391" font-family="Helvetica,sans-Serif" font-size="10.00">abs_le_of_deriv_bound</text>
</a>
</g>
</g>
<!-- n3 -->
<g id="node4" class="node">
<title>n3</title>
<g id="a_node4"><a xlink:href="https://github.com/statopia/statlib/blob/main/Statlib/StatFoundation/RandomVariable/Gaussian/LogSobolev.lean#L652" xlink:title="lemma · Statlib/StatFoundation/RandomVariable/Gaussian/LogSobolev.lean:652" target="_blank">
<path fill="#eef2f6" stroke="#94a3b8" d="M594.72,-52C594.72,-52 449.28,-52 449.28,-52 443.28,-52 437.28,-46 437.28,-40 437.28,-40 437.28,-28 437.28,-28 437.28,-22 443.28,-16 449.28,-16 449.28,-16 594.72,-16 594.72,-16 600.72,-16 606.72,-22 606.72,-28 606.72,-28 606.72,-40 606.72,-40 606.72,-46 600.72,-52 594.72,-52"/>
<text xml:space="preserve" text-anchor="middle" x="522" y="-31" font-family="Helvetica,sans-Serif" font-size="10.00">integrable_exp_abs_gaussianReal</text>
</a>
</g>
</g>
<!-- n4 -->
<g id="node5" class="node">
<title>n4</title>
<g id="a_node5"><a xlink:href="https://github.com/statopia/statlib/blob/main/Statlib/StatFoundation/RandomVariable/Gaussian/LogSobolev.lean#L681" xlink:title="lemma · Statlib/StatFoundation/RandomVariable/Gaussian/LogSobolev.lean:681" target="_blank">
<path fill="#eef2f6" stroke="#94a3b8" d="M620.57,-124C620.57,-124 423.43,-124 423.43,-124 417.43,-124 411.43,-118 411.43,-112 411.43,-112 411.43,-100 411.43,-100 411.43,-94 417.43,-88 423.43,-88 423.43,-88 620.57,-88 620.57,-88 626.57,-88 632.57,-94 632.57,-100 632.57,-100 632.57,-112 632.57,-112 632.57,-118 626.57,-124 620.57,-124"/>
<text xml:space="preserve" text-anchor="middle" x="522" y="-103" font-family="Helvetica,sans-Serif" font-size="10.00">integrable_linear_mul_exp_abs_gaussianReal</text>
</a>
</g>
</g>
<!-- n4&#45;&gt;n3 -->
<g id="edge2" class="edge">
<title>n4&#45;&gt;n3</title>
<path fill="none" stroke="#64748b" d="M522,-87.7C522,-79.47 522,-69.48 522,-60.42"/>
<polygon fill="#64748b" stroke="#64748b" points="524.45,-60.62 522,-53.62 519.55,-60.62 524.45,-60.62"/>
</g>
<!-- n5 -->
<g id="node6" class="node">
<title>n5</title>
<g id="a_node6"><a xlink:href="https://github.com/statopia/statlib/blob/main/Statlib/StatFoundation/RandomVariable/Gaussian/LogSobolev.lean#L761" xlink:title="lemma · Statlib/StatFoundation/RandomVariable/Gaussian/LogSobolev.lean:761" target="_blank">
<path fill="#eef2f6" stroke="#94a3b8" d="M641.41,-196C641.41,-196 402.59,-196 402.59,-196 396.59,-196 390.59,-190 390.59,-184 390.59,-184 390.59,-172 390.59,-172 390.59,-166 396.59,-160 402.59,-160 402.59,-160 641.41,-160 641.41,-160 647.41,-160 653.41,-166 653.41,-172 653.41,-172 653.41,-184 653.41,-184 653.41,-190 647.41,-196 641.41,-196"/>
<text xml:space="preserve" text-anchor="middle" x="522" y="-175" font-family="Helvetica,sans-Serif" font-size="10.00">integrable_linear_mul_exp_abs_mul_gaussianPDFReal</text>
</a>
</g>
</g>
<!-- n5&#45;&gt;n4 -->
<g id="edge3" class="edge">
<title>n5&#45;&gt;n4</title>
<path fill="none" stroke="#64748b" d="M522,-159.7C522,-151.47 522,-141.48 522,-132.42"/>
<polygon fill="#64748b" stroke="#64748b" points="524.45,-132.62 522,-125.62 519.55,-132.62 524.45,-132.62"/>
</g>
<!-- n6 -->
<g id="node7" class="node">
<title>n6</title>
<g id="a_node7"><a xlink:href="https://github.com/statopia/statlib/blob/main/Statlib/StatFoundation/RandomVariable/Gaussian/LogSobolev.lean#L933" xlink:title="lemma · Statlib/StatFoundation/RandomVariable/Gaussian/LogSobolev.lean:933" target="_blank">
<path fill="#eef2f6" stroke="#94a3b8" d="M435.64,-268C435.64,-268 222.36,-268 222.36,-268 216.36,-268 210.36,-262 210.36,-256 210.36,-256 210.36,-244 210.36,-244 210.36,-238 216.36,-232 222.36,-232 222.36,-232 435.64,-232 435.64,-232 441.64,-232 447.64,-238 447.64,-244 447.64,-244 447.64,-256 447.64,-256 447.64,-262 441.64,-268 435.64,-268"/>
<text xml:space="preserve" text-anchor="middle" x="329" y="-247" font-family="Helvetica,sans-Serif" font-size="10.00">weighted_gaussian_integrableExpSet_id_eq_univ</text>
</a>
</g>
</g>
<!-- n6&#45;&gt;n5 -->
<g id="edge4" class="edge">
<title>n6&#45;&gt;n5</title>
<path fill="none" stroke="#64748b" d="M377.2,-231.52C404.25,-221.71 438.11,-209.43 466.29,-199.21"/>
<polygon fill="#64748b" stroke="#64748b" points="466.91,-201.59 472.65,-196.9 465.24,-196.98 466.91,-201.59"/>
</g>
<!-- n7 -->
<g id="node8" class="node">
<title>n7</title>
<g id="a_node8"><a xlink:href="https://github.com/statopia/statlib/blob/main/Statlib/StatFoundation/RandomVariable/Gaussian/LogSobolev.lean#L887" xlink:title="lemma · Statlib/StatFoundation/RandomVariable/Gaussian/LogSobolev.lean:887" target="_blank">
<path fill="#eef2f6" stroke="#94a3b8" d="M305.83,-196C305.83,-196 138.17,-196 138.17,-196 132.17,-196 126.17,-190 126.17,-184 126.17,-184 126.17,-172 126.17,-172 126.17,-166 132.17,-160 138.17,-160 138.17,-160 305.83,-160 305.83,-160 311.83,-160 317.83,-166 317.83,-172 317.83,-172 317.83,-184 317.83,-184 317.83,-190 311.83,-196 305.83,-196"/>
<text xml:space="preserve" text-anchor="middle" x="222" y="-175" font-family="Helvetica,sans-Serif" font-size="10.00">gaussian_kernel_eq_gaussianPDFReal</text>
</a>
</g>
</g>
<!-- n8 -->
<g id="node9" class="node">
<title>n8</title>
<g id="a_node9"><a xlink:href="https://github.com/statopia/statlib/blob/main/Statlib/StatFoundation/RandomVariable/Gaussian/LogSobolev.lean#L912" xlink:title="lemma · Statlib/StatFoundation/RandomVariable/Gaussian/LogSobolev.lean:912" target="_blank">
<path fill="#eef2f6" stroke="#94a3b8" d="M180.33,-268C180.33,-268 27.67,-268 27.67,-268 21.67,-268 15.67,-262 15.67,-256 15.67,-256 15.67,-244 15.67,-244 15.67,-238 21.67,-232 27.67,-232 27.67,-232 180.33,-232 180.33,-232 186.33,-232 192.33,-238 192.33,-244 192.33,-244 192.33,-256 192.33,-256 192.33,-262 186.33,-268 180.33,-268"/>
<text xml:space="preserve" text-anchor="middle" x="104" y="-247" font-family="Helvetica,sans-Serif" font-size="10.00">gaussian_kernel_exp_mul_zero_pdf</text>
</a>
</g>
</g>
<!-- n8&#45;&gt;n7 -->
<g id="edge5" class="edge">
<title>n8&#45;&gt;n7</title>
<path fill="none" stroke="#64748b" d="M133.47,-231.52C149.36,-222.09 169.1,-210.38 185.9,-200.41"/>
<polygon fill="#64748b" stroke="#64748b" points="186.83,-202.71 191.6,-197.03 184.33,-198.5 186.83,-202.71"/>
</g>
<!-- n9 -->
<g id="node10" class="node">
<title>n9</title>
<g id="a_node10"><a xlink:href="https://github.com/statopia/statlib/blob/main/Statlib/StatFoundation/RandomVariable/Gaussian/LogSobolev.lean#L1070" xlink:title="lemma · Statlib/StatFoundation/RandomVariable/Gaussian/LogSobolev.lean:1070" target="_blank">
<path fill="#eef2f6" stroke="#94a3b8" d="M280.14,-340C280.14,-340 31.86,-340 31.86,-340 25.86,-340 19.86,-334 19.86,-328 19.86,-328 19.86,-316 19.86,-316 19.86,-310 25.86,-304 31.86,-304 31.86,-304 280.14,-304 280.14,-304 286.14,-304 292.14,-310 292.14,-316 292.14,-316 292.14,-328 292.14,-328 292.14,-334 286.14,-340 280.14,-340"/>
<text xml:space="preserve" text-anchor="middle" x="156" y="-319" font-family="Helvetica,sans-Serif" font-size="10.00">gaussian_convolution_nonneg_linearGrowth_contDiff_top</text>
</a>
</g>
</g>
<!-- n9&#45;&gt;n6 -->
<g id="edge6" class="edge">
<title>n9&#45;&gt;n6</title>
<path fill="none" stroke="#64748b" d="M199.21,-303.52C223.24,-293.79 253.29,-281.64 278.41,-271.47"/>
<polygon fill="#64748b" stroke="#64748b" points="279.07,-273.85 284.64,-268.95 277.23,-269.3 279.07,-273.85"/>
</g>
<!-- n9&#45;&gt;n8 -->
<g id="edge7" class="edge">
<title>n9&#45;&gt;n8</title>
<path fill="none" stroke="#64748b" d="M143.15,-303.7C136.66,-294.97 128.69,-284.24 121.64,-274.75"/>
<polygon fill="#64748b" stroke="#64748b" points="123.75,-273.48 117.61,-269.32 119.82,-276.4 123.75,-273.48"/>
</g>
<!-- n10 -->
<g id="node11" class="node">
<title>n10</title>
<g id="a_node11"><a xlink:href="https://github.com/statopia/statlib/blob/main/Statlib/StatFoundation/RandomVariable/Gaussian/LogSobolev.lean#L997" xlink:title="lemma · Statlib/StatFoundation/RandomVariable/Gaussian/LogSobolev.lean:997" target="_blank">
<path fill="#eef2f6" stroke="#94a3b8" d="M677.96,-268C677.96,-268 478.04,-268 478.04,-268 472.04,-268 466.04,-262 466.04,-256 466.04,-256 466.04,-244 466.04,-244 466.04,-238 472.04,-232 478.04,-232 478.04,-232 677.96,-232 677.96,-232 683.96,-232 689.96,-238 689.96,-244 689.96,-244 689.96,-256 689.96,-256 689.96,-262 683.96,-268 677.96,-268"/>
<text xml:space="preserve" text-anchor="middle" x="578" y="-247" font-family="Helvetica,sans-Serif" font-size="10.00">gaussian_convolution_linearGrowth_integrable</text>
</a>
</g>
</g>
<!-- n10&#45;&gt;n5 -->
<g id="edge8" class="edge">
<title>n10&#45;&gt;n5</title>
<path fill="none" stroke="#64748b" d="M564.16,-231.7C557.17,-222.97 548.59,-212.24 541,-202.75"/>
<polygon fill="#64748b" stroke="#64748b" points="542.92,-201.22 536.63,-197.29 539.09,-204.28 542.92,-201.22"/>
</g>
<!-- n10&#45;&gt;n7 -->
<g id="edge9" class="edge">
<title>n10&#45;&gt;n7</title>
<path fill="none" stroke="#64748b" d="M489.08,-231.52C437.27,-221.33 371.89,-208.47 318.78,-198.03"/>
<polygon fill="#64748b" stroke="#64748b" points="319.53,-195.68 312.19,-196.73 318.59,-200.49 319.53,-195.68"/>
</g>
<!-- n11 -->
<g id="node12" class="node">
<title>n11</title>
<g id="a_node12"><a xlink:href="https://github.com/statopia/statlib/blob/main/Statlib/StatFoundation/RandomVariable/Gaussian/LogSobolev.lean#L1148" xlink:title="lemma · Statlib/StatFoundation/RandomVariable/Gaussian/LogSobolev.lean:1148" target="_blank">
<path fill="#eef2f6" stroke="#94a3b8" d="M284.31,-412C284.31,-412 27.69,-412 27.69,-412 21.69,-412 15.69,-406 15.69,-400 15.69,-400 15.69,-388 15.69,-388 15.69,-382 21.69,-376 27.69,-376 27.69,-376 284.31,-376 284.31,-376 290.31,-376 296.31,-382 296.31,-388 296.31,-388 296.31,-400 296.31,-400 296.31,-406 290.31,-412 284.31,-412"/>
<text xml:space="preserve" text-anchor="middle" x="156" y="-391" font-family="Helvetica,sans-Serif" font-size="10.00">gaussian_convolution_linearGrowth_contDiff_top_of_bound</text>
</a>
</g>
</g>
<!-- n11&#45;&gt;n9 -->
<g id="edge10" class="edge">
<title>n11&#45;&gt;n9</title>
<path fill="none" stroke="#64748b" d="M156,-375.7C156,-367.47 156,-357.48 156,-348.42"/>
<polygon fill="#64748b" stroke="#64748b" points="158.45,-348.62 156,-341.62 153.55,-348.62 158.45,-348.62"/>
</g>
<!-- n11&#45;&gt;n10 -->
<g id="edge11" class="edge">
<title>n11&#45;&gt;n10</title>
<path fill="none" stroke="#64748b" d="M207.75,-375.59C286.31,-349.15 435.32,-299.01 518.34,-271.08"/>
<polygon fill="#64748b" stroke="#64748b" points="518.87,-273.48 524.73,-268.93 517.31,-268.84 518.87,-273.48"/>
</g>
<!-- n12 -->
<g id="node13" class="node">
<title>n12</title>
<g id="a_node13"><a xlink:href="https://github.com/statopia/statlib/blob/main/Statlib/StatFoundation/RandomVariable/Gaussian/LogSobolev.lean#L1564" xlink:title="theorem · Statlib/StatFoundation/RandomVariable/Gaussian/LogSobolev.lean:1564" target="_blank">
<path fill="#ffe6a3" stroke="#d4a017" d="M304.27,-484C304.27,-484 147.73,-484 147.73,-484 141.73,-484 135.73,-478 135.73,-472 135.73,-472 135.73,-460 135.73,-460 135.73,-454 141.73,-448 147.73,-448 147.73,-448 304.27,-448 304.27,-448 310.27,-448 316.27,-454 316.27,-460 316.27,-460 316.27,-472 316.27,-472 316.27,-478 310.27,-484 304.27,-484"/>
<text xml:space="preserve" text-anchor="middle" x="226" y="-463" font-family="Helvetica,sans-Serif" font-size="10.00">standardReal_mehler_apply_contDiff</text>
</a>
</g>
</g>
<!-- n12&#45;&gt;n0 -->
<g id="edge12" class="edge">
<title>n12&#45;&gt;n0</title>
<path fill="none" stroke="#64748b" d="M257.62,-447.55C272.94,-438.21 290.99,-425.79 305,-412 318.88,-398.34 313.53,-386.41 330,-376 374.91,-347.61 527.19,-332.32 604.76,-326.21"/>
<polygon fill="#64748b" stroke="#64748b" points="604.64,-328.68 611.43,-325.7 604.26,-323.79 604.64,-328.68"/>
</g>
<!-- n12&#45;&gt;n2 -->
<g id="edge13" class="edge">
<title>n12&#45;&gt;n2</title>
<path fill="none" stroke="#64748b" d="M282.95,-447.52C315.3,-437.58 355.93,-425.11 389.46,-414.81"/>
<polygon fill="#64748b" stroke="#64748b" points="389.97,-417.22 395.94,-412.83 388.53,-412.54 389.97,-417.22"/>
</g>
<!-- n12&#45;&gt;n11 -->
<g id="edge14" class="edge">
<title>n12&#45;&gt;n11</title>
<path fill="none" stroke="#64748b" d="M208.7,-447.7C199.71,-438.71 188.61,-427.61 178.92,-417.92"/>
<polygon fill="#64748b" stroke="#64748b" points="180.86,-416.39 174.17,-413.17 177.39,-419.86 180.86,-416.39"/>
</g>
<!-- n13 -->
<g id="node14" class="node">
<title>n13</title>
<g id="a_node14"><a xlink:href="https://github.com/statopia/statlib/blob/main/Statlib/StatFoundation/RandomVariable/Gaussian/LogSobolev.lean#L44" xlink:title="lemma · Statlib/StatFoundation/RandomVariable/Gaussian/LogSobolev.lean:44" target="_blank">
<path fill="#eef2f6" stroke="#94a3b8" d="M731.03,-484C731.03,-484 504.97,-484 504.97,-484 498.97,-484 492.97,-478 492.97,-472 492.97,-472 492.97,-460 492.97,-460 492.97,-454 498.97,-448 504.97,-448 504.97,-448 731.03,-448 731.03,-448 737.03,-448 743.03,-454 743.03,-460 743.03,-460 743.03,-472 743.03,-472 743.03,-478 737.03,-484 731.03,-484"/>
<text xml:space="preserve" text-anchor="middle" x="618" y="-463" font-family="Helvetica,sans-Serif" font-size="10.00">integrable_of_contDiff_deriv_bounded_standardReal</text>
</a>
</g>
</g>
<!-- n13&#45;&gt;n0 -->
<g id="edge15" class="edge">
<title>n13&#45;&gt;n0</title>
<path fill="none" stroke="#64748b" d="M579.72,-447.67C565.5,-439.11 550.92,-427.29 543,-412 535.64,-397.79 534.54,-389.58 543,-376 556.59,-354.2 582.05,-341.11 604.84,-333.4"/>
<polygon fill="#64748b" stroke="#64748b" points="605.39,-335.79 611.32,-331.35 603.91,-331.12 605.39,-335.79"/>
</g>
<!-- n13&#45;&gt;n2 -->
<g id="edge16" class="edge">
<title>n13&#45;&gt;n2</title>
<path fill="none" stroke="#64748b" d="M577.04,-447.52C554.35,-437.83 526.02,-425.74 502.26,-415.6"/>
<polygon fill="#64748b" stroke="#64748b" points="503.51,-413.47 496.11,-412.98 501.59,-417.98 503.51,-413.47"/>
</g>
<!-- n14 -->
<g id="node15" class="node">
<title>n14</title>
<g id="a_node15"><a xlink:href="https://github.com/statopia/statlib/blob/main/Statlib/StatFoundation/RandomVariable/Gaussian/LogSobolev.lean#L1311" xlink:title="lemma · Statlib/StatFoundation/RandomVariable/Gaussian/LogSobolev.lean:1311" target="_blank">
<path fill="#eef2f6" stroke="#94a3b8" d="M679.18,-556C679.18,-556 494.82,-556 494.82,-556 488.82,-556 482.82,-550 482.82,-544 482.82,-544 482.82,-532 482.82,-532 482.82,-526 488.82,-520 494.82,-520 494.82,-520 679.18,-520 679.18,-520 685.18,-520 691.18,-526 691.18,-532 691.18,-532 691.18,-544 691.18,-544 691.18,-550 685.18,-556 679.18,-556"/>
<text xml:space="preserve" text-anchor="middle" x="587" y="-535" font-family="Helvetica,sans-Serif" font-size="10.00">standardReal_mehler_integrand_integrable</text>
</a>
</g>
</g>
<!-- n14&#45;&gt;n0 -->
<g id="edge17" class="edge">
<title>n14&#45;&gt;n0</title>
<path fill="none" stroke="#64748b" d="M531.26,-519.58C455.14,-492.95 333.66,-438.58 385,-376 412.3,-342.72 536.27,-329.95 604.91,-325.36"/>
<polygon fill="#64748b" stroke="#64748b" points="604.66,-327.83 611.49,-324.94 604.34,-322.94 604.66,-327.83"/>
</g>
<!-- n14&#45;&gt;n13 -->
<g id="edge18" class="edge">
<title>n14&#45;&gt;n13</title>
<path fill="none" stroke="#64748b" d="M594.66,-519.7C598.38,-511.3 602.91,-501.07 606.99,-491.86"/>
<polygon fill="#64748b" stroke="#64748b" points="609.22,-492.88 609.81,-485.49 604.74,-490.9 609.22,-492.88"/>
</g>
<!-- n15 -->
<g id="node16" class="node">
<title>n15</title>
<g id="a_node16"><a xlink:href="https://github.com/statopia/statlib/blob/main/Statlib/StatFoundation/RandomVariable/Gaussian/Standard.lean#L114" xlink:title="private lemma · Statlib/StatFoundation/RandomVariable/Gaussian/Standard.lean:114" target="_blank">
<path fill="#eef2f6" stroke="#94a3b8" d="M1466.22,-268C1466.22,-268 1315.78,-268 1315.78,-268 1309.78,-268 1303.78,-262 1303.78,-256 1303.78,-256 1303.78,-244 1303.78,-244 1303.78,-238 1309.78,-232 1315.78,-232 1315.78,-232 1466.22,-232 1466.22,-232 1472.22,-232 1478.22,-238 1478.22,-244 1478.22,-244 1478.22,-256 1478.22,-256 1478.22,-262 1472.22,-268 1466.22,-268"/>
<text xml:space="preserve" text-anchor="middle" x="1391" y="-247" font-family="Helvetica,sans-Serif" font-size="10.00">memLp_pow_id_gaussianReal_aux</text>
</a>
</g>
</g>
<!-- n16 -->
<g id="node17" class="node">
<title>n16</title>
<g id="a_node17"><a xlink:href="https://github.com/statopia/statlib/blob/main/Statlib/StatFoundation/RandomVariable/Gaussian/Standard.lean#L139" xlink:title="lemma · Statlib/StatFoundation/RandomVariable/Gaussian/Standard.lean:139" target="_blank">
<path fill="#eef2f6" stroke="#94a3b8" d="M1460.38,-340C1460.38,-340 1331.62,-340 1331.62,-340 1325.62,-340 1319.62,-334 1319.62,-328 1319.62,-328 1319.62,-316 1319.62,-316 1319.62,-310 1325.62,-304 1331.62,-304 1331.62,-304 1460.38,-304 1460.38,-304 1466.38,-304 1472.38,-310 1472.38,-316 1472.38,-316 1472.38,-328 1472.38,-328 1472.38,-334 1466.38,-340 1460.38,-340"/>
<text xml:space="preserve" text-anchor="middle" x="1396" y="-319" font-family="Helvetica,sans-Serif" font-size="10.00">memLp_pow_id_gaussianReal</text>
</a>
</g>
</g>
<!-- n16&#45;&gt;n15 -->
<g id="edge19" class="edge">
<title>n16&#45;&gt;n15</title>
<path fill="none" stroke="#64748b" d="M1394.76,-303.7C1394.18,-295.47 1393.46,-285.48 1392.82,-276.42"/>
<polygon fill="#64748b" stroke="#64748b" points="1395.27,-276.42 1392.33,-269.61 1390.38,-276.77 1395.27,-276.42"/>
</g>
<!-- n17 -->
<g id="node18" class="node">
<title>n17</title>
<g id="a_node18"><a xlink:href="https://github.com/statopia/statlib/blob/main/Statlib/StatFoundation/RandomVariable/Gaussian/Standard.lean#L178" xlink:title="lemma · Statlib/StatFoundation/RandomVariable/Gaussian/Standard.lean:178" target="_blank">
<path fill="#eef2f6" stroke="#94a3b8" d="M968.1,-412C968.1,-412 799.9,-412 799.9,-412 793.9,-412 787.9,-406 787.9,-400 787.9,-400 787.9,-388 787.9,-388 787.9,-382 793.9,-376 799.9,-376 799.9,-376 968.1,-376 968.1,-376 974.1,-376 980.1,-382 980.1,-388 980.1,-388 980.1,-400 980.1,-400 980.1,-406 974.1,-412 968.1,-412"/>
<text xml:space="preserve" text-anchor="middle" x="884" y="-391" font-family="Helvetica,sans-Serif" font-size="10.00">hasDerivAt_standardGaussianPDFReal</text>
</a>
</g>
</g>
<!-- n18 -->
<g id="node19" class="node">
<title>n18</title>
<g id="a_node19"><a xlink:href="https://github.com/statopia/statlib/blob/main/Statlib/StatFoundation/RandomVariable/Gaussian/Standard.lean#L96" xlink:title="lemma · Statlib/StatFoundation/RandomVariable/Gaussian/Standard.lean:96" target="_blank">
<path fill="#eef2f6" stroke="#94a3b8" d="M1219.68,-412C1219.68,-412 1010.32,-412 1010.32,-412 1004.32,-412 998.32,-406 998.32,-400 998.32,-400 998.32,-388 998.32,-388 998.32,-382 1004.32,-376 1010.32,-376 1010.32,-376 1219.68,-376 1219.68,-376 1225.68,-376 1231.68,-382 1231.68,-388 1231.68,-388 1231.68,-400 1231.68,-400 1231.68,-406 1225.68,-412 1219.68,-412"/>
<text xml:space="preserve" text-anchor="middle" x="1115" y="-391" font-family="Helvetica,sans-Serif" font-size="10.00">integrable_id_mul_mul_pdf_of_memLp_standard</text>
</a>
</g>
</g>
<!-- n18&#45;&gt;n0 -->
<g id="edge20" class="edge">
<title>n18&#45;&gt;n0</title>
<path fill="none" stroke="#64748b" d="M999.11,-375.52C901.61,-360.81 767.24,-340.54 697.39,-330"/>
<polygon fill="#64748b" stroke="#64748b" points="697.99,-327.61 690.7,-328.99 697.25,-332.46 697.99,-327.61"/>
</g>
<!-- n19 -->
<g id="node20" class="node">
<title>n19</title>
<g id="a_node20"><a xlink:href="https://github.com/statopia/statlib/blob/main/Statlib/StatFoundation/RandomVariable/Gaussian/Standard.lean#L84" xlink:title="lemma · Statlib/StatFoundation/RandomVariable/Gaussian/Standard.lean:84" target="_blank">
<path fill="#eef2f6" stroke="#94a3b8" d="M738.17,-412C738.17,-412 563.83,-412 563.83,-412 557.83,-412 551.83,-406 551.83,-400 551.83,-400 551.83,-388 551.83,-388 551.83,-382 557.83,-376 563.83,-376 563.83,-376 738.17,-376 738.17,-376 744.17,-376 750.17,-382 750.17,-388 750.17,-388 750.17,-400 750.17,-400 750.17,-406 744.17,-412 738.17,-412"/>
<text xml:space="preserve" text-anchor="middle" x="651" y="-391" font-family="Helvetica,sans-Serif" font-size="10.00">integrable_mul_pdf_of_memLp_standard</text>
</a>
</g>
</g>
<!-- n19&#45;&gt;n0 -->
<g id="edge21" class="edge">
<title>n19&#45;&gt;n0</title>
<path fill="none" stroke="#64748b" d="M651,-375.7C651,-367.47 651,-357.48 651,-348.42"/>
<polygon fill="#64748b" stroke="#64748b" points="653.45,-348.62 651,-341.62 648.55,-348.62 653.45,-348.62"/>
</g>
<!-- n20 -->
<g id="node21" class="node">
<title>n20</title>
<g id="a_node21"><a xlink:href="https://github.com/statopia/statlib/blob/main/Statlib/StatFoundation/RandomVariable/Gaussian/Stein.lean#L25" xlink:title="lemma · Statlib/StatFoundation/RandomVariable/Gaussian/Stein.lean:25" target="_blank">
<path fill="#eef2f6" stroke="#94a3b8" d="M910.42,-484C910.42,-484 815.58,-484 815.58,-484 809.58,-484 803.58,-478 803.58,-472 803.58,-472 803.58,-460 803.58,-460 803.58,-454 809.58,-448 815.58,-448 815.58,-448 910.42,-448 910.42,-448 916.42,-448 922.42,-454 922.42,-460 922.42,-460 922.42,-472 922.42,-472 922.42,-478 916.42,-484 910.42,-484"/>
<text xml:space="preserve" text-anchor="middle" x="863" y="-463" font-family="Helvetica,sans-Serif" font-size="10.00">standard_stein_identity</text>
</a>
</g>
</g>
<!-- n20&#45;&gt;n0 -->
<g id="edge22" class="edge">
<title>n20&#45;&gt;n0</title>
<path fill="none" stroke="#64748b" d="M827.02,-447.59C810.96,-438.57 792.63,-426.41 779,-412 766.42,-398.7 772.27,-388.61 759,-376 741.48,-359.35 717.73,-346.92 696.97,-338.3"/>
<polygon fill="#64748b" stroke="#64748b" points="697.99,-336.07 690.58,-335.75 696.17,-340.62 697.99,-336.07"/>
</g>
<!-- n20&#45;&gt;n17 -->
<g id="edge23" class="edge">
<title>n20&#45;&gt;n17</title>
<path fill="none" stroke="#64748b" d="M868.19,-447.7C870.68,-439.39 873.72,-429.28 876.46,-420.14"/>
<polygon fill="#64748b" stroke="#64748b" points="878.77,-420.96 878.43,-413.55 874.08,-419.55 878.77,-420.96"/>
</g>
<!-- n20&#45;&gt;n18 -->
<g id="edge24" class="edge">
<title>n20&#45;&gt;n18</title>
<path fill="none" stroke="#64748b" d="M922.72,-448.41C959.14,-438.3 1005.88,-425.31 1044.16,-414.68"/>
<polygon fill="#64748b" stroke="#64748b" points="1044.64,-417.09 1050.73,-412.85 1043.33,-412.36 1044.64,-417.09"/>
</g>
<!-- n20&#45;&gt;n19 -->
<g id="edge25" class="edge">
<title>n20&#45;&gt;n19</title>
<path fill="none" stroke="#64748b" d="M810.05,-447.52C780.09,-437.62 742.51,-425.22 711.4,-414.94"/>
<polygon fill="#64748b" stroke="#64748b" points="712.49,-412.72 705.08,-412.86 710.96,-417.38 712.49,-412.72"/>
</g>
<!-- n21 -->
<g id="node22" class="node">
<title>n21</title>
<g id="a_node22"><a xlink:href="https://github.com/statopia/statlib/blob/main/Statlib/StatFoundation/RandomVariable/Gaussian/Standard.lean#L144" xlink:title="lemma · Statlib/StatFoundation/RandomVariable/Gaussian/Standard.lean:144" target="_blank">
<path fill="#eef2f6" stroke="#94a3b8" d="M1425.59,-412C1425.59,-412 1302.41,-412 1302.41,-412 1296.41,-412 1290.41,-406 1290.41,-400 1290.41,-400 1290.41,-388 1290.41,-388 1290.41,-382 1296.41,-376 1302.41,-376 1302.41,-376 1425.59,-376 1425.59,-376 1431.59,-376 1437.59,-382 1437.59,-388 1437.59,-388 1437.59,-400 1437.59,-400 1437.59,-406 1431.59,-412 1425.59,-412"/>
<text xml:space="preserve" text-anchor="middle" x="1364" y="-391" font-family="Helvetica,sans-Serif" font-size="10.00">memLp_polynomial_standard</text>
</a>
</g>
</g>
<!-- n21&#45;&gt;n0 -->
<g id="edge26" class="edge">
<title>n21&#45;&gt;n0</title>
<path fill="none" stroke="#64748b" d="M1290.15,-378.14C1285.37,-377.36 1280.62,-376.64 1276,-376 1060.92,-346.19 801.72,-330.66 697.61,-325.26"/>
<polygon fill="#64748b" stroke="#64748b" points="697.83,-322.81 690.72,-324.9 697.58,-327.71 697.83,-322.81"/>
</g>
<!-- n21&#45;&gt;n16 -->
<g id="edge27" class="edge">
<title>n21&#45;&gt;n16</title>
<path fill="none" stroke="#64748b" d="M1371.91,-375.7C1375.79,-367.22 1380.52,-356.86 1384.76,-347.58"/>
<polygon fill="#64748b" stroke="#64748b" points="1386.87,-348.87 1387.55,-341.48 1382.41,-346.83 1386.87,-348.87"/>
</g>
<!-- n22 -->
<g id="node23" class="node">
<title>n22</title>
<g id="a_node23"><a xlink:href="https://github.com/statopia/statlib/blob/main/Statlib/StatFoundation/RandomVariable/Gaussian/Hermite.lean#L302" xlink:title="lemma · Statlib/StatFoundation/RandomVariable/Gaussian/Hermite.lean:302" target="_blank">
<path fill="#eef2f6" stroke="#94a3b8" d="M1426.12,-484C1426.12,-484 1217.88,-484 1217.88,-484 1211.88,-484 1205.88,-478 1205.88,-472 1205.88,-472 1205.88,-460 1205.88,-460 1205.88,-454 1211.88,-448 1217.88,-448 1217.88,-448 1426.12,-448 1426.12,-448 1432.12,-448 1438.12,-454 1438.12,-460 1438.12,-460 1438.12,-472 1438.12,-472 1438.12,-478 1432.12,-484 1426.12,-484"/>
<text xml:space="preserve" text-anchor="middle" x="1322" y="-463" font-family="Helvetica,sans-Serif" font-size="10.00">integrable_mul_polynomial_of_memLp_standard</text>
</a>
</g>
</g>
<!-- n22&#45;&gt;n0 -->
<g id="edge28" class="edge">
<title>n22&#45;&gt;n0</title>
<path fill="none" stroke="#64748b" d="M1308.1,-447.51C1300.06,-437.26 1289.81,-424.01 1281,-412 1269.48,-396.29 1272.85,-385.77 1256,-376 1208.03,-348.18 830.31,-330.29 697.22,-324.8"/>
<polygon fill="#64748b" stroke="#64748b" points="697.42,-322.35 690.32,-324.52 697.22,-327.25 697.42,-322.35"/>
</g>
<!-- n22&#45;&gt;n21 -->
<g id="edge29" class="edge">
<title>n22&#45;&gt;n21</title>
<path fill="none" stroke="#64748b" d="M1332.38,-447.7C1337.52,-439.14 1343.81,-428.66 1349.42,-419.3"/>
<polygon fill="#64748b" stroke="#64748b" points="1351.46,-420.67 1352.96,-413.4 1347.26,-418.14 1351.46,-420.67"/>
</g>
<!-- n23 -->
<g id="node24" class="node">
<title>n23</title>
<g id="a_node24"><a xlink:href="https://github.com/statopia/statlib/blob/main/Statlib/StatFoundation/RandomVariable/Gaussian/LogSobolev.lean#L195" xlink:title="lemma · Statlib/StatFoundation/RandomVariable/Gaussian/LogSobolev.lean:195" target="_blank">
<path fill="#eef2f6" stroke="#94a3b8" d="M974.34,-556C974.34,-556 751.66,-556 751.66,-556 745.66,-556 739.66,-550 739.66,-544 739.66,-544 739.66,-532 739.66,-532 739.66,-526 745.66,-520 751.66,-520 751.66,-520 974.34,-520 974.34,-520 980.34,-520 986.34,-526 986.34,-532 986.34,-532 986.34,-544 986.34,-544 986.34,-550 980.34,-556 974.34,-556"/>
<text xml:space="preserve" text-anchor="middle" x="863" y="-535" font-family="Helvetica,sans-Serif" font-size="10.00">standardReal_integrationByParts_smooth_bddDeriv</text>
</a>
</g>
</g>
<!-- n23&#45;&gt;n0 -->
<g id="edge30" class="edge">
<title>n23&#45;&gt;n0</title>
<path fill="none" stroke="#64748b" d="M954.24,-519.53C1054.83,-498.19 1207,-459.06 1241,-412 1250.37,-399.03 1251.8,-387.81 1241,-376 1204.55,-336.12 830.4,-326 697.52,-323.65"/>
<polygon fill="#64748b" stroke="#64748b" points="697.67,-321.21 690.63,-323.54 697.59,-326.11 697.67,-321.21"/>
</g>
<!-- n23&#45;&gt;n2 -->
<g id="edge31" class="edge">
<title>n23&#45;&gt;n2</title>
<path fill="none" stroke="#64748b" d="M840.18,-519.53C826.9,-509.29 809.9,-496.04 795,-484 775.61,-468.34 774.62,-458.48 752,-448 666.47,-408.38 635.74,-428.84 543,-412 536.33,-410.79 529.37,-409.5 522.43,-408.2"/>
<polygon fill="#64748b" stroke="#64748b" points="523.11,-405.84 515.78,-406.95 522.21,-410.65 523.11,-405.84"/>
</g>
<!-- n23&#45;&gt;n13 -->
<g id="edge34" class="edge">
<title>n23&#45;&gt;n13</title>
<path fill="none" stroke="#64748b" d="M801.81,-519.52C766.89,-509.54 723.02,-497 686.89,-486.68"/>
<polygon fill="#64748b" stroke="#64748b" points="687.7,-484.36 680.29,-484.8 686.35,-489.08 687.7,-484.36"/>
</g>
<!-- n23&#45;&gt;n16 -->
<g id="edge32" class="edge">
<title>n23&#45;&gt;n16</title>
<path fill="none" stroke="#64748b" d="M986.84,-534.48C1149.07,-529.87 1416.62,-517.26 1447,-484 1479.37,-448.56 1464.94,-420.52 1447,-376 1442.42,-364.64 1434.12,-354.36 1425.53,-345.94"/>
<polygon fill="#64748b" stroke="#64748b" points="1427.48,-344.41 1420.68,-341.44 1424.15,-348 1427.48,-344.41"/>
</g>
<!-- n23&#45;&gt;n20 -->
<g id="edge33" class="edge">
<title>n23&#45;&gt;n20</title>
<path fill="none" stroke="#64748b" d="M863,-519.7C863,-511.47 863,-501.48 863,-492.42"/>
<polygon fill="#64748b" stroke="#64748b" points="865.45,-492.62 863,-485.62 860.55,-492.62 865.45,-492.62"/>
</g>
<!-- n23&#45;&gt;n22 -->
<g id="edge35" class="edge">
<title>n23&#45;&gt;n22</title>
<path fill="none" stroke="#64748b" d="M977.64,-519.52C1045.13,-509.22 1130.48,-496.21 1199.32,-485.71"/>
<polygon fill="#64748b" stroke="#64748b" points="1199.58,-488.15 1206.13,-484.67 1198.84,-483.3 1199.58,-488.15"/>
</g>
<!-- n24 -->
<g id="node25" class="node">
<title>n24</title>
<g id="a_node25"><a xlink:href="https://github.com/statopia/statlib/blob/main/Statlib/StatFoundation/RandomVariable/Gaussian/HilbertSpace.lean#L253" xlink:title="theorem · Statlib/StatFoundation/RandomVariable/Gaussian/HilbertSpace.lean:253" target="_blank">
<path fill="#ffe6a3" stroke="#d4a017" d="M1465.63,-556C1465.63,-556 1416.37,-556 1416.37,-556 1410.37,-556 1404.37,-550 1404.37,-544 1404.37,-544 1404.37,-532 1404.37,-532 1404.37,-526 1410.37,-520 1416.37,-520 1416.37,-520 1465.63,-520 1465.63,-520 1471.63,-520 1477.63,-526 1477.63,-532 1477.63,-532 1477.63,-544 1477.63,-544 1477.63,-550 1471.63,-556 1465.63,-556"/>
<text xml:space="preserve" text-anchor="middle" x="1441" y="-535" font-family="Helvetica,sans-Serif" font-size="10.00">integrable_id</text>
</a>
</g>
</g>
<!-- n25 -->
<g id="node26" class="node">
<title>n25</title>
<g id="a_node26"><a xlink:href="https://github.com/statopia/statlib/blob/main/Statlib/StatFoundation/RandomVariable/Gaussian/LogSobolev.lean#L3250" xlink:title="theorem · Statlib/StatFoundation/RandomVariable/Gaussian/LogSobolev.lean:3250" target="_blank">
<path fill="#ffe6a3" stroke="#d4a017" stroke-width="3" d="M674.17,-628C674.17,-628 499.83,-628 499.83,-628 493.83,-628 487.83,-622 487.83,-616 487.83,-616 487.83,-604 487.83,-604 487.83,-598 493.83,-592 499.83,-592 499.83,-592 674.17,-592 674.17,-592 680.17,-592 686.17,-598 686.17,-604 686.17,-604 686.17,-616 686.17,-616 686.17,-622 680.17,-628 674.17,-628"/>
<text xml:space="preserve" text-anchor="middle" x="587" y="-607" font-family="Helvetica,sans-Serif" font-size="10.00">standardReal_ou_mehler_generator_pos</text>
</a>
</g>
</g>
<!-- n25&#45;&gt;n0 -->
<g id="edge38" class="edge">
<title>n25&#45;&gt;n0</title>
<path fill="none" stroke="#64748b" d="M486.52,-603.14C416.09,-596.7 330.64,-583.34 308,-556 297.8,-543.68 304.5,-535.61 308,-520 311.87,-502.73 319.27,-500.74 325,-484 340.93,-437.48 313.46,-409.98 349,-376 384.94,-341.64 529.23,-329.21 604.61,-324.99"/>
<polygon fill="#64748b" stroke="#64748b" points="604.64,-327.44 611.49,-324.62 604.37,-322.55 604.64,-327.44"/>
</g>
<!-- n25&#45;&gt;n1 -->
<g id="edge36" class="edge">
<title>n25&#45;&gt;n1</title>
<path fill="none" stroke="#64748b" d="M532.61,-590.52C504.17,-580.85 469.32,-569.01 440.2,-559.12"/>
<polygon fill="#64748b" stroke="#64748b" points="441,-556.8 433.58,-556.87 439.42,-561.44 441,-556.8"/>
</g>
<!-- n25&#45;&gt;n2 -->
<g id="edge43" class="edge">
<title>n25&#45;&gt;n2</title>
<path fill="none" stroke="#64748b" d="M519.65,-590.55C502.25,-582.64 485.27,-571.52 474,-556 444.87,-515.87 446.35,-454.78 450.11,-420.54"/>
<polygon fill="#64748b" stroke="#64748b" points="452.5,-421.2 450.92,-413.95 447.64,-420.6 452.5,-421.2"/>
</g>
<!-- n25&#45;&gt;n12 -->
<g id="edge37" class="edge">
<title>n25&#45;&gt;n12</title>
<path fill="none" stroke="#64748b" d="M486.43,-598.78C414.47,-590 324.91,-575.65 293,-556 268.03,-540.62 249.13,-512.24 237.88,-491.65"/>
<polygon fill="#64748b" stroke="#64748b" points="240.08,-490.57 234.65,-485.52 235.74,-492.86 240.08,-490.57"/>
</g>
<!-- n25&#45;&gt;n13 -->
<g id="edge44" class="edge">
<title>n25&#45;&gt;n13</title>
<path fill="none" stroke="#64748b" d="M657.38,-590.59C674.16,-582.74 690.06,-571.64 700,-556 708.58,-542.5 707.65,-534.05 700,-520 692.89,-506.94 681.02,-496.6 668.49,-488.66"/>
<polygon fill="#64748b" stroke="#64748b" points="670.05,-486.74 662.78,-485.26 667.55,-490.95 670.05,-486.74"/>
</g>
<!-- n25&#45;&gt;n14 -->
<g id="edge39" class="edge">
<title>n25&#45;&gt;n14</title>
<path fill="none" stroke="#64748b" d="M587,-590.61C587,-582.59 587,-573.05 587,-564.37"/>
<polygon fill="#64748b" stroke="#64748b" points="589.45,-564.58 587,-557.58 584.55,-564.58 589.45,-564.58"/>
</g>
<!-- n25&#45;&gt;n16 -->
<g id="edge42" class="edge">
<title>n25&#45;&gt;n16</title>
<path fill="none" stroke="#64748b" d="M687.42,-601.99C906.36,-585.69 1411.15,-542.15 1461,-484 1469.42,-474.18 1472.73,-404.45 1459,-376 1453.19,-363.96 1443.22,-353.65 1432.9,-345.4"/>
<polygon fill="#64748b" stroke="#64748b" points="1434.38,-343.45 1427.32,-341.2 1431.44,-347.36 1434.38,-343.45"/>
</g>
<!-- n25&#45;&gt;n23 -->
<g id="edge40" class="edge">
<title>n25&#45;&gt;n23</title>
<path fill="none" stroke="#64748b" d="M659.88,-590.52C698.96,-580.61 747.07,-568.4 786.67,-558.36"/>
<polygon fill="#64748b" stroke="#64748b" points="786.82,-560.85 793,-556.75 785.61,-556.1 786.82,-560.85"/>
</g>
<!-- n25&#45;&gt;n24 -->
<g id="edge41" class="edge">
<title>n25&#45;&gt;n24</title>
<path fill="none" stroke="#64748b" d="M687.43,-605.58C872,-598.75 1258.3,-581.85 1390,-556 1392,-555.61 1394.04,-555.16 1396.08,-554.66"/>
<polygon fill="#64748b" stroke="#64748b" points="1396.37,-557.12 1402.51,-552.95 1395.11,-552.38 1396.37,-557.12"/>
</g>
</g>
</svg>
