<?xml version="1.0" encoding="UTF-8" standalone="no"?>
<!DOCTYPE svg PUBLIC "-//W3C//DTD SVG 1.1//EN"
 "http://www.w3.org/Graphics/SVG/1.1/DTD/svg11.dtd">
<!-- Generated by graphviz version 15.0.0 (20260523.1842)
 -->
<!-- Title: subgaussian_prod_subexponential Pages: 1 -->
<svg width="707pt" height="410pt"
 viewBox="0.00 0.00 707.00 410.00" xmlns="http://www.w3.org/2000/svg" xmlns:xlink="http://www.w3.org/1999/xlink">
<g id="graph0" class="graph" transform="scale(1 1) rotate(0) translate(4 406)">
<title>subgaussian_prod_subexponential</title>
<polygon fill="white" stroke="none" points="-4,4 -4,-406 703,-406 703,4 -4,4"/>
<text xml:space="preserve" text-anchor="middle" x="349.5" y="-385.4" font-family="Helvetica,sans-Serif" font-size="14.00">Proof narrative — subgaussian_prod_subexponential &#160;(11 decls)</text>
<g id="clust1" class="cluster">
<title>cluster_0</title>
<path fill="none" stroke="#cbd5e1" stroke-dasharray="5,2" d="M20,-8C20,-8 679,-8 679,-8 685,-8 691,-14 691,-20 691,-20 691,-357.2 691,-357.2 691,-363.2 685,-369.2 679,-369.2 679,-369.2 20,-369.2 20,-369.2 14,-369.2 8,-363.2 8,-357.2 8,-357.2 8,-20 8,-20 8,-14 14,-8 20,-8"/>
<text xml:space="preserve" text-anchor="middle" x="349.5" y="-355.3" font-family="Helvetica,sans-Serif" font-size="11.00">StatFoundation</text>
</g>
<!-- n0 -->
<g id="node1" class="node">
<title>n0</title>
<g id="a_node1"><a xlink:href="vscode://vscode-remote/wsl+Ubuntu/tmp/statlib-main-refresh.tmBBiR/Statlib/StatFoundation/Vocabulary/RandomVariable.lean:74" xlink:title="structure · Statlib/StatFoundation/Vocabulary/RandomVariable.lean:74" target="_blank">
<path fill="#e8dcff" stroke="#8b5cf6" d="M128.47,-196C128.47,-196 27.53,-196 27.53,-196 21.53,-196 15.53,-190 15.53,-184 15.53,-184 15.53,-172 15.53,-172 15.53,-166 21.53,-160 27.53,-160 27.53,-160 128.47,-160 128.47,-160 134.47,-160 140.47,-166 140.47,-172 140.47,-172 140.47,-184 140.47,-184 140.47,-190 134.47,-196 128.47,-196"/>
<text xml:space="preserve" text-anchor="middle" x="78" y="-175" font-family="Helvetica,sans-Serif" font-size="10.00">HasSubexponentialMGF</text>
</a>
</g>
</g>
<!-- n1 -->
<g id="node2" class="node">
<title>n1</title>
<g id="a_node2"><a xlink:href="vscode://vscode-remote/wsl+Ubuntu/tmp/statlib-main-refresh.tmBBiR/Statlib/StatFoundation/RandomVariable/SubGaussian/subgaussian_meas_abs_ge_le_two_exp.lean:9" xlink:title="theorem · Statlib/StatFoundation/RandomVariable/SubGaussian/subgaussian_meas_abs_ge_le_two_exp.lean:9" target="_blank">
<path fill="#ffe6a3" stroke="#d4a017" d="M441.34,-52C441.34,-52 268.66,-52 268.66,-52 262.66,-52 256.66,-46 256.66,-40 256.66,-40 256.66,-28 256.66,-28 256.66,-22 262.66,-16 268.66,-16 268.66,-16 441.34,-16 441.34,-16 447.34,-16 453.34,-22 453.34,-28 453.34,-28 453.34,-40 453.34,-40 453.34,-46 447.34,-52 441.34,-52"/>
<text xml:space="preserve" text-anchor="middle" x="355" y="-31" font-family="Helvetica,sans-Serif" font-size="10.00">subgaussian_meas_abs_ge_le_two_exp</text>
</a>
</g>
</g>
<!-- n2 -->
<g id="node3" class="node">
<title>n2</title>
<g id="a_node3"><a xlink:href="vscode://vscode-remote/wsl+Ubuntu/tmp/statlib-main-refresh.tmBBiR/Statlib/StatFoundation/RandomVariable/SubGaussian/subgaussian_exp_sq_le_at_one_third.lean:165" xlink:title="theorem · Statlib/StatFoundation/RandomVariable/SubGaussian/subgaussian_exp_sq_le_at_one_third.lean:165" target="_blank">
<path fill="#ffe6a3" stroke="#d4a017" d="M224.3,-124C224.3,-124 27.7,-124 27.7,-124 21.7,-124 15.7,-118 15.7,-112 15.7,-112 15.7,-100 15.7,-100 15.7,-94 21.7,-88 27.7,-88 27.7,-88 224.3,-88 224.3,-88 230.3,-88 236.3,-94 236.3,-100 236.3,-100 236.3,-112 236.3,-112 236.3,-118 230.3,-124 224.3,-124"/>
<text xml:space="preserve" text-anchor="middle" x="126" y="-103" font-family="Helvetica,sans-Serif" font-size="10.00">subgaussian_integrable_exp_sq_at_one_third</text>
</a>
</g>
</g>
<!-- n2&#45;&gt;n1 -->
<g id="edge1" class="edge">
<title>n2&#45;&gt;n1</title>
<path fill="none" stroke="#64748b" d="M183.2,-87.52C215.7,-77.58 256.5,-65.11 290.18,-54.81"/>
<polygon fill="#64748b" stroke="#64748b" points="290.71,-57.21 296.69,-52.82 289.28,-52.53 290.71,-57.21"/>
</g>
<!-- n3 -->
<g id="node4" class="node">
<title>n3</title>
<g id="a_node4"><a xlink:href="vscode://vscode-remote/wsl+Ubuntu/tmp/statlib-main-refresh.tmBBiR/Statlib/StatFoundation/RandomVariable/SubExponential/scalar_sq_centered_exp_integrable.lean:12" xlink:title="lemma · Statlib/StatFoundation/RandomVariable/SubExponential/scalar_sq_centered_exp_integrable.lean:12" target="_blank">
<path fill="#eef2f6" stroke="#94a3b8" d="M321.22,-196C321.22,-196 170.78,-196 170.78,-196 164.78,-196 158.78,-190 158.78,-184 158.78,-184 158.78,-172 158.78,-172 158.78,-166 164.78,-160 170.78,-160 170.78,-160 321.22,-160 321.22,-160 327.22,-160 333.22,-166 333.22,-172 333.22,-172 333.22,-184 333.22,-184 333.22,-190 327.22,-196 321.22,-196"/>
<text xml:space="preserve" text-anchor="middle" x="246" y="-175" font-family="Helvetica,sans-Serif" font-size="10.00">scalar_sq_centered_exp_integrable</text>
</a>
</g>
</g>
<!-- n3&#45;&gt;n2 -->
<g id="edge2" class="edge">
<title>n3&#45;&gt;n2</title>
<path fill="none" stroke="#64748b" d="M216.03,-159.52C199.87,-150.09 179.8,-138.38 162.71,-128.41"/>
<polygon fill="#64748b" stroke="#64748b" points="164.18,-126.43 156.9,-125.02 161.71,-130.67 164.18,-126.43"/>
</g>
<!-- n4 -->
<g id="node5" class="node">
<title>n4</title>
<g id="a_node5"><a xlink:href="vscode://vscode-remote/wsl+Ubuntu/tmp/statlib-main-refresh.tmBBiR/Statlib/StatFoundation/RandomVariable/SubExponential/subexp_mgf_le_of_sq_subgaussian.lean:13" xlink:title="lemma · Statlib/StatFoundation/RandomVariable/SubExponential/subexp_mgf_le_of_sq_subgaussian.lean:13" target="_blank">
<path fill="#eef2f6" stroke="#94a3b8" d="M347.2,-124C347.2,-124 266.8,-124 266.8,-124 260.8,-124 254.8,-118 254.8,-112 254.8,-112 254.8,-100 254.8,-100 254.8,-94 260.8,-88 266.8,-88 266.8,-88 347.2,-88 347.2,-88 353.2,-88 359.2,-94 359.2,-100 359.2,-100 359.2,-112 359.2,-112 359.2,-118 353.2,-124 347.2,-124"/>
<text xml:space="preserve" text-anchor="middle" x="307" y="-103" font-family="Helvetica,sans-Serif" font-size="10.00">sub_gauss_tail_abs</text>
</a>
</g>
</g>
<!-- n5 -->
<g id="node6" class="node">
<title>n5</title>
<g id="a_node6"><a xlink:href="vscode://vscode-remote/wsl+Ubuntu/tmp/statlib-main-refresh.tmBBiR/Statlib/StatFoundation/RandomVariable/SubGaussian/sq_le_two_mul_exp.lean:10" xlink:title="lemma · Statlib/StatFoundation/RandomVariable/SubGaussian/sq_le_two_mul_exp.lean:10" target="_blank">
<path fill="#eef2f6" stroke="#94a3b8" d="M469.19,-124C469.19,-124 388.81,-124 388.81,-124 382.81,-124 376.81,-118 376.81,-112 376.81,-112 376.81,-100 376.81,-100 376.81,-94 382.81,-88 388.81,-88 388.81,-88 469.19,-88 469.19,-88 475.19,-88 481.19,-94 481.19,-100 481.19,-100 481.19,-112 481.19,-112 481.19,-118 475.19,-124 469.19,-124"/>
<text xml:space="preserve" text-anchor="middle" x="429" y="-103" font-family="Helvetica,sans-Serif" font-size="10.00">sq_le_two_mul_exp</text>
</a>
</g>
</g>
<!-- n6 -->
<g id="node7" class="node">
<title>n6</title>
<g id="a_node7"><a xlink:href="vscode://vscode-remote/wsl+Ubuntu/tmp/statlib-main-refresh.tmBBiR/Statlib/StatFoundation/RandomVariable/SubGaussian/subgaussian_exp_sq_le_at_one_third.lean:14" xlink:title="theorem · Statlib/StatFoundation/RandomVariable/SubGaussian/subgaussian_exp_sq_le_at_one_third.lean:14" target="_blank">
<path fill="#ffe6a3" stroke="#d4a017" d="M671.23,-124C671.23,-124 510.77,-124 510.77,-124 504.77,-124 498.77,-118 498.77,-112 498.77,-112 498.77,-100 498.77,-100 498.77,-94 504.77,-88 510.77,-88 510.77,-88 671.23,-88 671.23,-88 677.23,-88 683.23,-94 683.23,-100 683.23,-100 683.23,-112 683.23,-112 683.23,-118 677.23,-124 671.23,-124"/>
<text xml:space="preserve" text-anchor="middle" x="591" y="-103" font-family="Helvetica,sans-Serif" font-size="10.00">subgaussian_exp_sq_le_at_one_third</text>
</a>
</g>
</g>
<!-- n6&#45;&gt;n1 -->
<g id="edge3" class="edge">
<title>n6&#45;&gt;n1</title>
<path fill="none" stroke="#64748b" d="M532.06,-87.52C498.42,-77.54 456.16,-65 421.36,-54.68"/>
<polygon fill="#64748b" stroke="#64748b" points="422.46,-52.45 415.05,-52.81 421.07,-57.15 422.46,-52.45"/>
</g>
<!-- n7 -->
<g id="node8" class="node">
<title>n7</title>
<g id="a_node8"><a xlink:href="vscode://vscode-remote/wsl+Ubuntu/tmp/statlib-main-refresh.tmBBiR/Statlib/StatFoundation/RandomVariable/SubExponential/subexp_mgf_le_of_sq_subgaussian.lean:72" xlink:title="theorem · Statlib/StatFoundation/RandomVariable/SubExponential/subexp_mgf_le_of_sq_subgaussian.lean:72" target="_blank">
<path fill="#ffe6a3" stroke="#d4a017" d="M550.84,-196C550.84,-196 363.16,-196 363.16,-196 357.16,-196 351.16,-190 351.16,-184 351.16,-184 351.16,-172 351.16,-172 351.16,-166 357.16,-160 363.16,-160 363.16,-160 550.84,-160 550.84,-160 556.84,-160 562.84,-166 562.84,-172 562.84,-172 562.84,-184 562.84,-184 562.84,-190 556.84,-196 550.84,-196"/>
<text xml:space="preserve" text-anchor="middle" x="457" y="-175" font-family="Helvetica,sans-Serif" font-size="10.00">subexp_mgf_le_of_sq_subgaussian_explicit</text>
</a>
</g>
</g>
<!-- n7&#45;&gt;n2 -->
<g id="edge7" class="edge">
<title>n7&#45;&gt;n2</title>
<path fill="none" stroke="#64748b" d="M374.33,-159.52C326.35,-149.37 265.86,-136.58 216.6,-126.16"/>
<polygon fill="#64748b" stroke="#64748b" points="217.31,-123.81 209.96,-124.76 216.3,-128.6 217.31,-123.81"/>
</g>
<!-- n7&#45;&gt;n4 -->
<g id="edge4" class="edge">
<title>n7&#45;&gt;n4</title>
<path fill="none" stroke="#64748b" d="M419.54,-159.52C398.97,-149.92 373.32,-137.95 351.71,-127.86"/>
<polygon fill="#64748b" stroke="#64748b" points="353,-125.76 345.62,-125.02 350.93,-130.2 353,-125.76"/>
</g>
<!-- n7&#45;&gt;n5 -->
<g id="edge5" class="edge">
<title>n7&#45;&gt;n5</title>
<path fill="none" stroke="#64748b" d="M450.08,-159.7C446.72,-151.3 442.63,-141.07 438.94,-131.86"/>
<polygon fill="#64748b" stroke="#64748b" points="441.28,-131.1 436.4,-125.51 436.73,-132.92 441.28,-131.1"/>
</g>
<!-- n7&#45;&gt;n6 -->
<g id="edge6" class="edge">
<title>n7&#45;&gt;n6</title>
<path fill="none" stroke="#64748b" d="M490.47,-159.52C508.67,-150.01 531.33,-138.17 550.52,-128.15"/>
<polygon fill="#64748b" stroke="#64748b" points="551.55,-130.37 556.62,-124.96 549.28,-126.03 551.55,-130.37"/>
</g>
<!-- n8 -->
<g id="node9" class="node">
<title>n8</title>
<g id="a_node9"><a xlink:href="vscode://vscode-remote/wsl+Ubuntu/tmp/statlib-main-refresh.tmBBiR/Statlib/StatFoundation/RandomVariable/SubExponential/scalar_sq_centered_subexponential_explicit.lean:16" xlink:title="lemma · Statlib/StatFoundation/RandomVariable/SubExponential/scalar_sq_centered_subexponential_explicit.lean:16" target="_blank">
<path fill="#eef2f6" stroke="#94a3b8" d="M329.12,-268C329.12,-268 140.88,-268 140.88,-268 134.88,-268 128.88,-262 128.88,-256 128.88,-256 128.88,-244 128.88,-244 128.88,-238 134.88,-232 140.88,-232 140.88,-232 329.12,-232 329.12,-232 335.12,-232 341.12,-238 341.12,-244 341.12,-244 341.12,-256 341.12,-256 341.12,-262 335.12,-268 329.12,-268"/>
<text xml:space="preserve" text-anchor="middle" x="235" y="-247" font-family="Helvetica,sans-Serif" font-size="10.00">scalar_sq_centered_subexponential_explicit</text>
</a>
</g>
</g>
<!-- n8&#45;&gt;n0 -->
<g id="edge8" class="edge">
<title>n8&#45;&gt;n0</title>
<path fill="none" stroke="#64748b" d="M195.79,-231.52C174.16,-221.88 147.18,-209.84 124.5,-199.73"/>
<polygon fill="#64748b" stroke="#64748b" points="125.76,-197.61 118.37,-197 123.76,-202.09 125.76,-197.61"/>
</g>
<!-- n8&#45;&gt;n3 -->
<g id="edge9" class="edge">
<title>n8&#45;&gt;n3</title>
<path fill="none" stroke="#64748b" d="M237.72,-231.7C239.01,-223.47 240.58,-213.48 242.01,-204.42"/>
<polygon fill="#64748b" stroke="#64748b" points="244.41,-204.9 243.08,-197.6 239.57,-204.13 244.41,-204.9"/>
</g>
<!-- n8&#45;&gt;n7 -->
<g id="edge10" class="edge">
<title>n8&#45;&gt;n7</title>
<path fill="none" stroke="#64748b" d="M290.45,-231.52C321.95,-221.58 361.51,-209.11 394.16,-198.81"/>
<polygon fill="#64748b" stroke="#64748b" points="394.49,-201.28 400.43,-196.84 393.02,-196.61 394.49,-201.28"/>
</g>
<!-- n9 -->
<g id="node10" class="node">
<title>n9</title>
<g id="a_node10"><a xlink:href="vscode://vscode-remote/wsl+Ubuntu/tmp/statlib-main-refresh.tmBBiR/Statlib/StatFoundation/RandomVariable/SubGaussian/subgaussian_integral_eq_zero.lean:12" xlink:title="lemma · Statlib/StatFoundation/RandomVariable/SubGaussian/subgaussian_integral_eq_zero.lean:12" target="_blank">
<path fill="#eef2f6" stroke="#94a3b8" d="M499.11,-268C499.11,-268 370.89,-268 370.89,-268 364.89,-268 358.89,-262 358.89,-256 358.89,-256 358.89,-244 358.89,-244 358.89,-238 364.89,-232 370.89,-232 370.89,-232 499.11,-232 499.11,-232 505.11,-232 511.11,-238 511.11,-244 511.11,-244 511.11,-256 511.11,-256 511.11,-262 505.11,-268 499.11,-268"/>
<text xml:space="preserve" text-anchor="middle" x="435" y="-247" font-family="Helvetica,sans-Serif" font-size="10.00">subgaussian_integral_eq_zero</text>
</a>
</g>
</g>
<!-- n10 -->
<g id="node11" class="node">
<title>n10</title>
<g id="a_node11"><a xlink:href="vscode://vscode-remote/wsl+Ubuntu/tmp/statlib-main-refresh.tmBBiR/Statlib/StatFoundation/RandomVariable/SubExponential/subgaussian_prod_subexponential.lean:25" xlink:title="theorem · Statlib/StatFoundation/RandomVariable/SubExponential/subgaussian_prod_subexponential.lean:25" target="_blank">
<path fill="#ffe6a3" stroke="#d4a017" stroke-width="3" d="M308.28,-340C308.28,-340 161.72,-340 161.72,-340 155.72,-340 149.72,-334 149.72,-328 149.72,-328 149.72,-316 149.72,-316 149.72,-310 155.72,-304 161.72,-304 161.72,-304 308.28,-304 308.28,-304 314.28,-304 320.28,-310 320.28,-316 320.28,-316 320.28,-328 320.28,-328 320.28,-334 314.28,-340 308.28,-340"/>
<text xml:space="preserve" text-anchor="middle" x="235" y="-319" font-family="Helvetica,sans-Serif" font-size="10.00">subgaussian_prod_subexponential</text>
</a>
</g>
</g>
<!-- n10&#45;&gt;n0 -->
<g id="edge11" class="edge">
<title>n10&#45;&gt;n0</title>
<path fill="none" stroke="#64748b" d="M174.85,-302.56C155.53,-294.37 135.22,-283.09 120,-268 102.16,-250.32 90.96,-223.6 84.66,-204.05"/>
<polygon fill="#64748b" stroke="#64748b" points="87.08,-203.59 82.69,-197.61 82.39,-205.02 87.08,-203.59"/>
</g>
<!-- n10&#45;&gt;n8 -->
<g id="edge12" class="edge">
<title>n10&#45;&gt;n8</title>
<path fill="none" stroke="#64748b" d="M235,-302.61C235,-294.59 235,-285.05 235,-276.37"/>
<polygon fill="#64748b" stroke="#64748b" points="237.45,-276.58 235,-269.58 232.55,-276.58 237.45,-276.58"/>
</g>
<!-- n10&#45;&gt;n9 -->
<g id="edge13" class="edge">
<title>n10&#45;&gt;n9</title>
<path fill="none" stroke="#64748b" d="M287.81,-302.52C315.42,-292.85 349.26,-281.01 377.52,-271.12"/>
<polygon fill="#64748b" stroke="#64748b" points="378.11,-273.51 383.91,-268.88 376.49,-268.88 378.11,-273.51"/>
</g>
</g>
</svg>
