<?xml version="1.0" encoding="UTF-8" standalone="no"?>
<!DOCTYPE svg PUBLIC "-//W3C//DTD SVG 1.1//EN"
 "http://www.w3.org/Graphics/SVG/1.1/DTD/svg11.dtd">
<!-- Generated by graphviz version 15.0.0 (20260523.1842)
 -->
<!-- Title: tendstoInDistribution_iff_forall_inner_real Pages: 1 -->
<svg width="604pt" height="626pt"
 viewBox="0.00 0.00 604.00 626.00" xmlns="http://www.w3.org/2000/svg" xmlns:xlink="http://www.w3.org/1999/xlink">
<g id="graph0" class="graph" transform="scale(1 1) rotate(0) translate(4 622)">
<title>tendstoInDistribution_iff_forall_inner_real</title>
<polygon fill="white" stroke="none" points="-4,4 -4,-622 600,-622 600,4 -4,4"/>
<text xml:space="preserve" text-anchor="middle" x="298" y="-601.4" font-family="Helvetica,sans-Serif" font-size="14.00">Proof narrative — tendstoInDistribution_iff_forall_inner_real &#160;(15 decls)</text>
<g id="clust1" class="cluster">
<title>cluster_0</title>
<path fill="none" stroke="#cbd5e1" stroke-dasharray="5,2" d="M20,-8C20,-8 576,-8 576,-8 582,-8 588,-14 588,-20 588,-20 588,-573.2 588,-573.2 588,-579.2 582,-585.2 576,-585.2 576,-585.2 20,-585.2 20,-585.2 14,-585.2 8,-579.2 8,-573.2 8,-573.2 8,-20 8,-20 8,-14 14,-8 20,-8"/>
<text xml:space="preserve" text-anchor="middle" x="298" y="-571.3" font-family="Helvetica,sans-Serif" font-size="11.00">StatFoundation</text>
</g>
<!-- n0 -->
<g id="node1" class="node">
<title>n0</title>
<g id="a_node1"><a xlink:href="vscode://vscode-remote/wsl+Ubuntu/home/ai4stat/statlib/Statlib/StatFoundation/Convergence/AnalysisTools/LevyContinuity.lean:31" xlink:title="theorem · Statlib/StatFoundation/Convergence/AnalysisTools/LevyContinuity.lean:31" target="_blank">
<path fill="#ffe6a3" stroke="#d4a017" d="M76.34,-340C76.34,-340 27.66,-340 27.66,-340 21.66,-340 15.66,-334 15.66,-328 15.66,-328 15.66,-316 15.66,-316 15.66,-310 21.66,-304 27.66,-304 27.66,-304 76.34,-304 76.34,-304 82.34,-304 88.34,-310 88.34,-316 88.34,-316 88.34,-328 88.34,-328 88.34,-334 82.34,-340 76.34,-340"/>
<text xml:space="preserve" text-anchor="middle" x="52" y="-319" font-family="Helvetica,sans-Serif" font-size="10.00">levy_forward</text>
</a>
</g>
</g>
<!-- n1 -->
<g id="node2" class="node">
<title>n1</title>
<g id="a_node2"><a xlink:href="vscode://vscode-remote/wsl+Ubuntu/home/ai4stat/statlib/Statlib/StatFoundation/Convergence/AnalysisTools/CramerWold.lean:22" xlink:title="lemma · Statlib/StatFoundation/Convergence/AnalysisTools/CramerWold.lean:22" target="_blank">
<path fill="#eef2f6" stroke="#94a3b8" d="M175.86,-196C175.86,-196 82.14,-196 82.14,-196 76.14,-196 70.14,-190 70.14,-184 70.14,-184 70.14,-172 70.14,-172 70.14,-166 76.14,-160 82.14,-160 82.14,-160 175.86,-160 175.86,-160 181.86,-160 187.86,-166 187.86,-172 187.86,-172 187.86,-184 187.86,-184 187.86,-190 181.86,-196 175.86,-196"/>
<text xml:space="preserve" text-anchor="middle" x="129" y="-175" font-family="Helvetica,sans-Serif" font-size="10.00">charFun_map_innerSL</text>
</a>
</g>
</g>
<!-- n2 -->
<g id="node3" class="node">
<title>n2</title>
<g id="a_node3"><a xlink:href="vscode://vscode-remote/wsl+Ubuntu/home/ai4stat/statlib/Statlib/StatFoundation/Convergence/AnalysisTools/CramerWold.lean:39" xlink:title="lemma · Statlib/StatFoundation/Convergence/AnalysisTools/CramerWold.lean:39" target="_blank">
<path fill="#eef2f6" stroke="#94a3b8" d="M220.31,-340C220.31,-340 137.69,-340 137.69,-340 131.69,-340 125.69,-334 125.69,-328 125.69,-328 125.69,-316 125.69,-316 125.69,-310 131.69,-304 137.69,-304 137.69,-304 220.31,-304 220.31,-304 226.31,-304 232.31,-310 232.31,-316 232.31,-316 232.31,-328 232.31,-328 232.31,-334 226.31,-340 220.31,-340"/>
<text xml:space="preserve" text-anchor="middle" x="179" y="-319" font-family="Helvetica,sans-Serif" font-size="10.00">continuous_charFun</text>
</a>
</g>
</g>
<!-- n3 -->
<g id="node4" class="node">
<title>n3</title>
<g id="a_node4"><a xlink:href="vscode://vscode-remote/wsl+Ubuntu/home/ai4stat/statlib/Statlib/StatFoundation/Convergence/AnalysisTools/LevyContinuity.lean:15" xlink:title="lemma · Statlib/StatFoundation/Convergence/AnalysisTools/LevyContinuity.lean:15" target="_blank">
<path fill="#eef2f6" stroke="#94a3b8" d="M311.64,-124C311.64,-124 222.36,-124 222.36,-124 216.36,-124 210.36,-118 210.36,-112 210.36,-112 210.36,-100 210.36,-100 210.36,-94 216.36,-88 222.36,-88 222.36,-88 311.64,-88 311.64,-88 317.64,-88 323.64,-94 323.64,-100 323.64,-100 323.64,-112 323.64,-112 323.64,-118 317.64,-124 311.64,-124"/>
<text xml:space="preserve" text-anchor="middle" x="267" y="-103" font-family="Helvetica,sans-Serif" font-size="10.00">compl_Icc_eq_abs_gt</text>
</a>
</g>
</g>
<!-- n4 -->
<g id="node5" class="node">
<title>n4</title>
<g id="a_node5"><a xlink:href="vscode://vscode-remote/wsl+Ubuntu/home/ai4stat/statlib/Statlib/StatFoundation/Convergence/AnalysisTools/Tightness.lean:113" xlink:title="theorem · Statlib/StatFoundation/Convergence/AnalysisTools/Tightness.lean:113" target="_blank">
<path fill="#ffe6a3" stroke="#d4a017" d="M452.48,-52C452.48,-52 331.52,-52 331.52,-52 325.52,-52 319.52,-46 319.52,-40 319.52,-40 319.52,-28 319.52,-28 319.52,-22 325.52,-16 331.52,-16 331.52,-16 452.48,-16 452.48,-16 458.48,-16 464.48,-22 464.48,-28 464.48,-28 464.48,-40 464.48,-40 464.48,-46 458.48,-52 452.48,-52"/>
<text xml:space="preserve" text-anchor="middle" x="392" y="-31" font-family="Helvetica,sans-Serif" font-size="10.00">isTightMeasureSet_singleton</text>
</a>
</g>
</g>
<!-- n5 -->
<g id="node6" class="node">
<title>n5</title>
<g id="a_node6"><a xlink:href="vscode://vscode-remote/wsl+Ubuntu/home/ai4stat/statlib/Statlib/StatFoundation/Convergence/AnalysisTools/Tightness.lean:18" xlink:title="theorem · Statlib/StatFoundation/Convergence/AnalysisTools/Tightness.lean:18" target="_blank">
<path fill="#ffe6a3" stroke="#d4a017" d="M430.8,-124C430.8,-124 353.2,-124 353.2,-124 347.2,-124 341.2,-118 341.2,-112 341.2,-112 341.2,-100 341.2,-100 341.2,-94 347.2,-88 353.2,-88 353.2,-88 430.8,-88 430.8,-88 436.8,-88 442.8,-94 442.8,-100 442.8,-100 442.8,-112 442.8,-112 442.8,-118 436.8,-124 430.8,-124"/>
<text xml:space="preserve" text-anchor="middle" x="392" y="-103" font-family="Helvetica,sans-Serif" font-size="10.00">isTight_finiteRange</text>
</a>
</g>
</g>
<!-- n5&#45;&gt;n4 -->
<g id="edge1" class="edge">
<title>n5&#45;&gt;n4</title>
<path fill="none" stroke="#64748b" d="M392,-87.7C392,-79.47 392,-69.48 392,-60.42"/>
<polygon fill="#64748b" stroke="#64748b" points="394.45,-60.62 392,-53.62 389.55,-60.62 394.45,-60.62"/>
</g>
<!-- n6 -->
<g id="node7" class="node">
<title>n6</title>
<g id="a_node7"><a xlink:href="vscode://vscode-remote/wsl+Ubuntu/home/ai4stat/statlib/Statlib/StatFoundation/Convergence/AnalysisTools/LevyContinuity.lean:44" xlink:title="theorem · Statlib/StatFoundation/Convergence/AnalysisTools/LevyContinuity.lean:44" target="_blank">
<path fill="#ffe6a3" stroke="#d4a017" d="M387.98,-196C387.98,-196 272.02,-196 272.02,-196 266.02,-196 260.02,-190 260.02,-184 260.02,-184 260.02,-172 260.02,-172 260.02,-166 266.02,-160 272.02,-160 272.02,-160 387.98,-160 387.98,-160 393.98,-160 399.98,-166 399.98,-172 399.98,-172 399.98,-184 399.98,-184 399.98,-190 393.98,-196 387.98,-196"/>
<text xml:space="preserve" text-anchor="middle" x="330" y="-175" font-family="Helvetica,sans-Serif" font-size="10.00">isTight_of_charFun_tendsto</text>
</a>
</g>
</g>
<!-- n6&#45;&gt;n3 -->
<g id="edge2" class="edge">
<title>n6&#45;&gt;n3</title>
<path fill="none" stroke="#64748b" d="M314.43,-159.7C306.42,-150.8 296.54,-139.82 287.88,-130.2"/>
<polygon fill="#64748b" stroke="#64748b" points="289.91,-128.79 283.41,-125.23 286.27,-132.07 289.91,-128.79"/>
</g>
<!-- n6&#45;&gt;n5 -->
<g id="edge3" class="edge">
<title>n6&#45;&gt;n5</title>
<path fill="none" stroke="#64748b" d="M345.33,-159.7C353.13,-150.88 362.74,-140.03 371.21,-130.47"/>
<polygon fill="#64748b" stroke="#64748b" points="373.04,-132.1 375.85,-125.24 369.37,-128.85 373.04,-132.1"/>
</g>
<!-- n7 -->
<g id="node8" class="node">
<title>n7</title>
<g id="a_node8"><a xlink:href="vscode://vscode-remote/wsl+Ubuntu/home/ai4stat/statlib/Statlib/StatFoundation/Convergence/AnalysisTools/CramerWold.lean:131" xlink:title="lemma · Statlib/StatFoundation/Convergence/AnalysisTools/CramerWold.lean:131" target="_blank">
<path fill="#eef2f6" stroke="#94a3b8" d="M401.88,-268C401.88,-268 258.12,-268 258.12,-268 252.12,-268 246.12,-262 246.12,-256 246.12,-256 246.12,-244 246.12,-244 246.12,-238 252.12,-232 258.12,-232 258.12,-232 401.88,-232 401.88,-232 407.88,-232 413.88,-238 413.88,-244 413.88,-244 413.88,-256 413.88,-256 413.88,-262 407.88,-268 401.88,-268"/>
<text xml:space="preserve" text-anchor="middle" x="330" y="-247" font-family="Helvetica,sans-Serif" font-size="10.00">isTight_of_charFun_tendsto_inner</text>
</a>
</g>
</g>
<!-- n7&#45;&gt;n1 -->
<g id="edge5" class="edge">
<title>n7&#45;&gt;n1</title>
<path fill="none" stroke="#64748b" d="M279.8,-231.52C251.51,-221.67 216.06,-209.32 186.64,-199.07"/>
<polygon fill="#64748b" stroke="#64748b" points="187.76,-196.87 180.34,-196.88 186.14,-201.5 187.76,-196.87"/>
</g>
<!-- n7&#45;&gt;n6 -->
<g id="edge4" class="edge">
<title>n7&#45;&gt;n6</title>
<path fill="none" stroke="#64748b" d="M330,-231.7C330,-223.47 330,-213.48 330,-204.42"/>
<polygon fill="#64748b" stroke="#64748b" points="332.45,-204.62 330,-197.62 327.55,-204.62 332.45,-204.62"/>
</g>
<!-- n8 -->
<g id="node9" class="node">
<title>n8</title>
<g id="a_node9"><a xlink:href="vscode://vscode-remote/wsl+Ubuntu/home/ai4stat/statlib/Statlib/StatFoundation/Convergence/AnalysisTools/CramerWold.lean:61" xlink:title="theorem · Statlib/StatFoundation/Convergence/AnalysisTools/CramerWold.lean:61" target="_blank">
<path fill="#ffe6a3" stroke="#d4a017" d="M544.24,-196C544.24,-196 467.76,-196 467.76,-196 461.76,-196 455.76,-190 455.76,-184 455.76,-184 455.76,-172 455.76,-172 455.76,-166 461.76,-160 467.76,-160 467.76,-160 544.24,-160 544.24,-160 550.24,-160 556.24,-166 556.24,-172 556.24,-172 556.24,-184 556.24,-184 556.24,-190 550.24,-196 544.24,-196"/>
<text xml:space="preserve" text-anchor="middle" x="506" y="-175" font-family="Helvetica,sans-Serif" font-size="10.00">levy_forward_inner</text>
</a>
</g>
</g>
<!-- n9 -->
<g id="node10" class="node">
<title>n9</title>
<g id="a_node10"><a xlink:href="vscode://vscode-remote/wsl+Ubuntu/home/ai4stat/statlib/Statlib/StatFoundation/Convergence/AnalysisTools/CramerWold.lean:99" xlink:title="lemma · Statlib/StatFoundation/Convergence/AnalysisTools/CramerWold.lean:99" target="_blank">
<path fill="#eef2f6" stroke="#94a3b8" d="M568.44,-268C568.44,-268 443.56,-268 443.56,-268 437.56,-268 431.56,-262 431.56,-256 431.56,-256 431.56,-244 431.56,-244 431.56,-238 437.56,-232 443.56,-232 443.56,-232 568.44,-232 568.44,-232 574.44,-232 580.44,-238 580.44,-244 580.44,-244 580.44,-256 580.44,-256 580.44,-262 574.44,-268 568.44,-268"/>
<text xml:space="preserve" text-anchor="middle" x="506" y="-247" font-family="Helvetica,sans-Serif" font-size="10.00">charFun_eq_of_subseq_inner</text>
</a>
</g>
</g>
<!-- n9&#45;&gt;n8 -->
<g id="edge6" class="edge">
<title>n9&#45;&gt;n8</title>
<path fill="none" stroke="#64748b" d="M506,-231.7C506,-223.47 506,-213.48 506,-204.42"/>
<polygon fill="#64748b" stroke="#64748b" points="508.45,-204.62 506,-197.62 503.55,-204.62 508.45,-204.62"/>
</g>
<!-- n10 -->
<g id="node11" class="node">
<title>n10</title>
<g id="a_node11"><a xlink:href="vscode://vscode-remote/wsl+Ubuntu/home/ai4stat/statlib/Statlib/StatFoundation/Convergence/AnalysisTools/CramerWold.lean:114" xlink:title="lemma · Statlib/StatFoundation/Convergence/AnalysisTools/CramerWold.lean:114" target="_blank">
<path fill="#eef2f6" stroke="#94a3b8" d="M216.12,-268C216.12,-268 47.88,-268 47.88,-268 41.88,-268 35.88,-262 35.88,-256 35.88,-256 35.88,-244 35.88,-244 35.88,-238 41.88,-232 47.88,-232 47.88,-232 216.12,-232 216.12,-232 222.12,-232 228.12,-238 228.12,-244 228.12,-244 228.12,-256 228.12,-256 228.12,-262 222.12,-268 216.12,-268"/>
<text xml:space="preserve" text-anchor="middle" x="132" y="-247" font-family="Helvetica,sans-Serif" font-size="10.00">probMeasure_eq_of_charFun_eq_inner</text>
</a>
</g>
</g>
<!-- n11 -->
<g id="node12" class="node">
<title>n11</title>
<g id="a_node12"><a xlink:href="vscode://vscode-remote/wsl+Ubuntu/home/ai4stat/statlib/Statlib/StatFoundation/Convergence/AnalysisTools/CramerWold.lean:261" xlink:title="theorem · Statlib/StatFoundation/Convergence/AnalysisTools/CramerWold.lean:261" target="_blank">
<path fill="#ffe6a3" stroke="#d4a017" d="M374.74,-340C374.74,-340 283.26,-340 283.26,-340 277.26,-340 271.26,-334 271.26,-328 271.26,-328 271.26,-316 271.26,-316 271.26,-310 277.26,-304 283.26,-304 283.26,-304 374.74,-304 374.74,-304 380.74,-304 386.74,-310 386.74,-316 386.74,-316 386.74,-328 386.74,-328 386.74,-334 380.74,-340 374.74,-340"/>
<text xml:space="preserve" text-anchor="middle" x="329" y="-319" font-family="Helvetica,sans-Serif" font-size="10.00">cramer_wold_charFun</text>
</a>
</g>
</g>
<!-- n11&#45;&gt;n7 -->
<g id="edge7" class="edge">
<title>n11&#45;&gt;n7</title>
<path fill="none" stroke="#64748b" d="M329.25,-303.7C329.36,-295.47 329.51,-285.48 329.64,-276.42"/>
<polygon fill="#64748b" stroke="#64748b" points="332.08,-276.65 329.73,-269.62 327.18,-276.58 332.08,-276.65"/>
</g>
<!-- n11&#45;&gt;n9 -->
<g id="edge8" class="edge">
<title>n11&#45;&gt;n9</title>
<path fill="none" stroke="#64748b" d="M373.21,-303.52C397.8,-293.79 428.54,-281.64 454.24,-271.47"/>
<polygon fill="#64748b" stroke="#64748b" points="455.03,-273.79 460.64,-268.94 453.23,-269.23 455.03,-273.79"/>
</g>
<!-- n11&#45;&gt;n10 -->
<g id="edge9" class="edge">
<title>n11&#45;&gt;n10</title>
<path fill="none" stroke="#64748b" d="M279.8,-303.52C252.19,-293.71 217.63,-281.43 188.86,-271.21"/>
<polygon fill="#64748b" stroke="#64748b" points="189.76,-268.92 182.34,-268.89 188.12,-273.54 189.76,-268.92"/>
</g>
<!-- n12 -->
<g id="node13" class="node">
<title>n12</title>
<g id="a_node13"><a xlink:href="vscode://vscode-remote/wsl+Ubuntu/home/ai4stat/statlib/Statlib/StatFoundation/Convergence/AnalysisTools/CramerWold.lean:297" xlink:title="theorem · Statlib/StatFoundation/Convergence/AnalysisTools/CramerWold.lean:297" target="_blank">
<path fill="#ffe6a3" stroke="#d4a017" d="M223.07,-412C223.07,-412 134.93,-412 134.93,-412 128.93,-412 122.93,-406 122.93,-400 122.93,-400 122.93,-388 122.93,-388 122.93,-382 128.93,-376 134.93,-376 134.93,-376 223.07,-376 223.07,-376 229.07,-376 235.07,-382 235.07,-388 235.07,-388 235.07,-400 235.07,-400 235.07,-406 229.07,-412 223.07,-412"/>
<text xml:space="preserve" text-anchor="middle" x="179" y="-391" font-family="Helvetica,sans-Serif" font-size="10.00">cramer_wold_reverse</text>
</a>
</g>
</g>
<!-- n12&#45;&gt;n0 -->
<g id="edge10" class="edge">
<title>n12&#45;&gt;n0</title>
<path fill="none" stroke="#64748b" d="M147.28,-375.52C130.03,-366.01 108.56,-354.17 90.37,-344.15"/>
<polygon fill="#64748b" stroke="#64748b" points="91.95,-342.22 84.64,-340.99 89.59,-346.52 91.95,-342.22"/>
</g>
<!-- n12&#45;&gt;n1 -->
<g id="edge11" class="edge">
<title>n12&#45;&gt;n1</title>
<path fill="none" stroke="#64748b" d="M154.81,-375.63C142.53,-366.04 127.93,-353.38 117,-340 105.42,-325.83 110.15,-316.73 97,-304 71.87,-279.66 45.22,-297.86 27,-268 18.67,-254.34 18.69,-245.68 27,-232 35.34,-218.27 48.51,-207.94 62.66,-200.22"/>
<polygon fill="#64748b" stroke="#64748b" points="63.65,-202.47 68.77,-197.11 61.43,-198.1 63.65,-202.47"/>
</g>
<!-- n12&#45;&gt;n2 -->
<g id="edge12" class="edge">
<title>n12&#45;&gt;n2</title>
<path fill="none" stroke="#64748b" d="M179,-375.7C179,-367.47 179,-357.48 179,-348.42"/>
<polygon fill="#64748b" stroke="#64748b" points="181.45,-348.62 179,-341.62 176.55,-348.62 181.45,-348.62"/>
</g>
<!-- n12&#45;&gt;n10 -->
<g id="edge14" class="edge">
<title>n12&#45;&gt;n10</title>
<path fill="none" stroke="#64748b" d="M208.83,-375.7C221.21,-366.78 234.24,-354.66 241,-340 247.7,-325.47 249.49,-317.56 241,-304 232.27,-290.05 218.7,-279.68 204.07,-272"/>
<polygon fill="#64748b" stroke="#64748b" points="205.54,-269.99 198.17,-269.11 203.38,-274.39 205.54,-269.99"/>
</g>
<!-- n12&#45;&gt;n11 -->
<g id="edge13" class="edge">
<title>n12&#45;&gt;n11</title>
<path fill="none" stroke="#64748b" d="M216.46,-375.52C237.03,-365.92 262.68,-353.95 284.29,-343.86"/>
<polygon fill="#64748b" stroke="#64748b" points="285.07,-346.2 290.38,-341.02 283,-341.76 285.07,-346.2"/>
</g>
<!-- n13 -->
<g id="node14" class="node">
<title>n13</title>
<g id="a_node14"><a xlink:href="vscode://vscode-remote/wsl+Ubuntu/home/ai4stat/statlib/Statlib/StatFoundation/Convergence/AnalysisTools/CramerWold.lean:348" xlink:title="theorem · Statlib/StatFoundation/Convergence/AnalysisTools/CramerWold.lean:348" target="_blank">
<path fill="#ffe6a3" stroke="#d4a017" d="M266.17,-484C266.17,-484 91.83,-484 91.83,-484 85.83,-484 79.83,-478 79.83,-472 79.83,-472 79.83,-460 79.83,-460 79.83,-454 85.83,-448 91.83,-448 91.83,-448 266.17,-448 266.17,-448 272.17,-448 278.17,-454 278.17,-460 278.17,-460 278.17,-472 278.17,-472 278.17,-478 272.17,-484 266.17,-484"/>
<text xml:space="preserve" text-anchor="middle" x="179" y="-463" font-family="Helvetica,sans-Serif" font-size="10.00">tendstoInDistribution_of_forall_inner_real</text>
</a>
</g>
</g>
<!-- n13&#45;&gt;n12 -->
<g id="edge15" class="edge">
<title>n13&#45;&gt;n12</title>
<path fill="none" stroke="#64748b" d="M179,-447.7C179,-439.47 179,-429.48 179,-420.42"/>
<polygon fill="#64748b" stroke="#64748b" points="181.45,-420.62 179,-413.62 176.55,-420.62 181.45,-420.62"/>
</g>
<!-- n14 -->
<g id="node15" class="node">
<title>n14</title>
<g id="a_node15"><a xlink:href="vscode://vscode-remote/wsl+Ubuntu/home/ai4stat/statlib/Statlib/StatFoundation/Convergence/AnalysisTools/CramerWold.lean:390" xlink:title="theorem · Statlib/StatFoundation/Convergence/AnalysisTools/CramerWold.lean:390" target="_blank">
<path fill="#ffe6a3" stroke="#d4a017" stroke-width="3" d="M265.89,-556C265.89,-556 92.11,-556 92.11,-556 86.11,-556 80.11,-550 80.11,-544 80.11,-544 80.11,-532 80.11,-532 80.11,-526 86.11,-520 92.11,-520 92.11,-520 265.89,-520 265.89,-520 271.89,-520 277.89,-526 277.89,-532 277.89,-532 277.89,-544 277.89,-544 277.89,-550 271.89,-556 265.89,-556"/>
<text xml:space="preserve" text-anchor="middle" x="179" y="-535" font-family="Helvetica,sans-Serif" font-size="10.00">tendstoInDistribution_iff_forall_inner_real</text>
</a>
</g>
</g>
<!-- n14&#45;&gt;n13 -->
<g id="edge16" class="edge">
<title>n14&#45;&gt;n13</title>
<path fill="none" stroke="#64748b" d="M179,-518.61C179,-510.59 179,-501.05 179,-492.37"/>
<polygon fill="#64748b" stroke="#64748b" points="181.45,-492.58 179,-485.58 176.55,-492.58 181.45,-492.58"/>
</g>
</g>
</svg>
