<?xml version="1.0" encoding="UTF-8" standalone="no"?>
<!DOCTYPE svg PUBLIC "-//W3C//DTD SVG 1.1//EN"
 "http://www.w3.org/Graphics/SVG/1.1/DTD/svg11.dtd">
<!-- Generated by graphviz version 15.0.0 (20260523.1842)
 -->
<!-- Title: uniform_strong_law Pages: 1 -->
<svg width="902pt" height="338pt"
 viewBox="0.00 0.00 902.00 338.00" xmlns="http://www.w3.org/2000/svg" xmlns:xlink="http://www.w3.org/1999/xlink">
<g id="graph0" class="graph" transform="scale(1 1) rotate(0) translate(4 334)">
<title>uniform_strong_law</title>
<polygon fill="white" stroke="none" points="-4,4 -4,-334 898,-334 898,4 -4,4"/>
<text xml:space="preserve" text-anchor="middle" x="447" y="-313.4" font-family="Helvetica,sans-Serif" font-size="14.00">Proof narrative — uniform_strong_law &#160;(14 decls)</text>
<g id="clust1" class="cluster">
<title>cluster_0</title>
<path fill="none" stroke="#cbd5e1" stroke-dasharray="5,2" d="M20,-8C20,-8 874,-8 874,-8 880,-8 886,-14 886,-20 886,-20 886,-285.2 886,-285.2 886,-291.2 880,-297.2 874,-297.2 874,-297.2 20,-297.2 20,-297.2 14,-297.2 8,-291.2 8,-285.2 8,-285.2 8,-20 8,-20 8,-14 14,-8 20,-8"/>
<text xml:space="preserve" text-anchor="middle" x="447" y="-283.3" font-family="Helvetica,sans-Serif" font-size="11.00">StatFoundation</text>
</g>
<!-- n0 -->
<g id="node1" class="node">
<title>n0</title>
<g id="a_node1"><a xlink:href="https://github.com/statopia/statlib/blob/main/Statlib/StatFoundation/Convergence/LawOfLargeNumbers/UniformStrongLaw.lean#L20" xlink:title="noncomputable def · Statlib/StatFoundation/Convergence/LawOfLargeNumbers/UniformStrongLaw.lean:20" target="_blank">
<path fill="#d6e9ff" stroke="#3b82f6" d="M865.74,-52C865.74,-52 804.26,-52 804.26,-52 798.26,-52 792.26,-46 792.26,-40 792.26,-40 792.26,-28 792.26,-28 792.26,-22 798.26,-16 804.26,-16 804.26,-16 865.74,-16 865.74,-16 871.74,-16 877.74,-22 877.74,-28 877.74,-28 877.74,-40 877.74,-40 877.74,-46 871.74,-52 865.74,-52"/>
<text xml:space="preserve" text-anchor="middle" x="835" y="-31" font-family="Helvetica,sans-Serif" font-size="10.00">sampleAverage</text>
</a>
</g>
</g>
<!-- n1 -->
<g id="node2" class="node">
<title>n1</title>
<g id="a_node2"><a xlink:href="https://github.com/statopia/statlib/blob/main/Statlib/StatFoundation/Convergence/LawOfLargeNumbers/UniformStrongLaw.lean#L24" xlink:title="noncomputable def · Statlib/StatFoundation/Convergence/LawOfLargeNumbers/UniformStrongLaw.lean:24" target="_blank">
<path fill="#d6e9ff" stroke="#3b82f6" d="M629.58,-52C629.58,-52 566.42,-52 566.42,-52 560.42,-52 554.42,-46 554.42,-40 554.42,-40 554.42,-28 554.42,-28 554.42,-22 560.42,-16 566.42,-16 566.42,-16 629.58,-16 629.58,-16 635.58,-16 641.58,-22 641.58,-28 641.58,-28 641.58,-40 641.58,-40 641.58,-46 635.58,-52 629.58,-52"/>
<text xml:space="preserve" text-anchor="middle" x="598" y="-31" font-family="Helvetica,sans-Serif" font-size="10.00">populationMean</text>
</a>
</g>
</g>
<!-- n2 -->
<g id="node3" class="node">
<title>n2</title>
<g id="a_node3"><a xlink:href="https://github.com/statopia/statlib/blob/main/Statlib/StatFoundation/Convergence/LawOfLargeNumbers/UniformStrongLaw.lean#L111" xlink:title="lemma · Statlib/StatFoundation/Convergence/LawOfLargeNumbers/UniformStrongLaw.lean:111" target="_blank">
<path fill="#eef2f6" stroke="#94a3b8" d="M581.55,-196C581.55,-196 464.45,-196 464.45,-196 458.45,-196 452.45,-190 452.45,-184 452.45,-184 452.45,-172 452.45,-172 452.45,-166 458.45,-160 464.45,-160 464.45,-160 581.55,-160 581.55,-160 587.55,-160 593.55,-166 593.55,-172 593.55,-172 593.55,-184 593.55,-184 593.55,-190 587.55,-196 581.55,-196"/>
<text xml:space="preserve" text-anchor="middle" x="523" y="-175" font-family="Helvetica,sans-Serif" font-size="10.00">continuous_populationMean</text>
</a>
</g>
</g>
<!-- n2&#45;&gt;n1 -->
<g id="edge1" class="edge">
<title>n2&#45;&gt;n1</title>
<path fill="none" stroke="#64748b" d="M549.87,-159.66C561.89,-150.51 575.1,-138.21 583,-124 593.84,-104.49 597.26,-79.14 598.16,-60.48"/>
<polygon fill="#64748b" stroke="#64748b" points="600.61,-60.76 598.37,-53.69 595.71,-60.61 600.61,-60.76"/>
</g>
<!-- n3 -->
<g id="node4" class="node">
<title>n3</title>
<g id="a_node4"><a xlink:href="https://github.com/statopia/statlib/blob/main/Statlib/StatFoundation/Convergence/LawOfLargeNumbers/UniformStrongLaw.lean#L154" xlink:title="noncomputable def · Statlib/StatFoundation/Convergence/LawOfLargeNumbers/UniformStrongLaw.lean:154" target="_blank">
<path fill="#d6e9ff" stroke="#3b82f6" d="M345.63,-52C345.63,-52 296.37,-52 296.37,-52 290.37,-52 284.37,-46 284.37,-40 284.37,-40 284.37,-28 284.37,-28 284.37,-22 290.37,-16 296.37,-16 296.37,-16 345.63,-16 345.63,-16 351.63,-16 357.63,-22 357.63,-28 357.63,-28 357.63,-40 357.63,-40 357.63,-46 351.63,-52 345.63,-52"/>
<text xml:space="preserve" text-anchor="middle" x="321" y="-31" font-family="Helvetica,sans-Serif" font-size="10.00">oscEnvelope</text>
</a>
</g>
</g>
<!-- n4 -->
<g id="node5" class="node">
<title>n4</title>
<g id="a_node5"><a xlink:href="https://github.com/statopia/statlib/blob/main/Statlib/StatFoundation/Convergence/LawOfLargeNumbers/UniformStrongLaw.lean#L294" xlink:title="lemma · Statlib/StatFoundation/Convergence/LawOfLargeNumbers/UniformStrongLaw.lean:294" target="_blank">
<path fill="#eef2f6" stroke="#94a3b8" d="M135.54,-124C135.54,-124 28.46,-124 28.46,-124 22.46,-124 16.46,-118 16.46,-112 16.46,-112 16.46,-100 16.46,-100 16.46,-94 22.46,-88 28.46,-88 28.46,-88 135.54,-88 135.54,-88 141.54,-88 147.54,-94 147.54,-100 147.54,-100 147.54,-112 147.54,-112 147.54,-118 141.54,-124 135.54,-124"/>
<text xml:space="preserve" text-anchor="middle" x="82" y="-103" font-family="Helvetica,sans-Serif" font-size="10.00">oscEnvelope_measurable</text>
</a>
</g>
</g>
<!-- n4&#45;&gt;n3 -->
<g id="edge2" class="edge">
<title>n4&#45;&gt;n3</title>
<path fill="none" stroke="#64748b" d="M141.69,-87.52C183.39,-75.31 238.17,-59.26 276.15,-48.13"/>
<polygon fill="#64748b" stroke="#64748b" points="276.51,-50.58 282.54,-46.26 275.14,-45.88 276.51,-50.58"/>
</g>
<!-- n5 -->
<g id="node6" class="node">
<title>n5</title>
<g id="a_node6"><a xlink:href="https://github.com/statopia/statlib/blob/main/Statlib/StatFoundation/Convergence/LawOfLargeNumbers/UniformStrongLaw.lean#L143" xlink:title="lemma · Statlib/StatFoundation/Convergence/LawOfLargeNumbers/UniformStrongLaw.lean:143" target="_blank">
<path fill="#eef2f6" stroke="#94a3b8" d="M481.47,-52C481.47,-52 430.53,-52 430.53,-52 424.53,-52 418.53,-46 418.53,-40 418.53,-40 418.53,-28 418.53,-28 418.53,-22 424.53,-16 430.53,-16 430.53,-16 481.47,-16 481.47,-16 487.47,-16 493.47,-22 493.47,-28 493.47,-28 493.47,-40 493.47,-40 493.47,-46 487.47,-52 481.47,-52"/>
<text xml:space="preserve" text-anchor="middle" x="456" y="-31" font-family="Helvetica,sans-Serif" font-size="10.00">iSup_prop_le</text>
</a>
</g>
</g>
<!-- n6 -->
<g id="node7" class="node">
<title>n6</title>
<g id="a_node7"><a xlink:href="https://github.com/statopia/statlib/blob/main/Statlib/StatFoundation/Convergence/LawOfLargeNumbers/UniformStrongLaw.lean#L222" xlink:title="lemma · Statlib/StatFoundation/Convergence/LawOfLargeNumbers/UniformStrongLaw.lean:222" target="_blank">
<path fill="#eef2f6" stroke="#94a3b8" d="M561.7,-124C561.7,-124 456.3,-124 456.3,-124 450.3,-124 444.3,-118 444.3,-112 444.3,-112 444.3,-100 444.3,-100 444.3,-94 450.3,-88 456.3,-88 456.3,-88 561.7,-88 561.7,-88 567.7,-88 573.7,-94 573.7,-100 573.7,-100 573.7,-112 573.7,-112 573.7,-118 567.7,-124 561.7,-124"/>
<text xml:space="preserve" text-anchor="middle" x="509" y="-103" font-family="Helvetica,sans-Serif" font-size="10.00">oscEnvelope_le_two_mul</text>
</a>
</g>
</g>
<!-- n6&#45;&gt;n3 -->
<g id="edge3" class="edge">
<title>n6&#45;&gt;n3</title>
<path fill="none" stroke="#64748b" d="M462.04,-87.52C432.62,-76.56 394.91,-62.52 365.88,-51.71"/>
<polygon fill="#64748b" stroke="#64748b" points="366.77,-49.43 359.36,-49.28 365.06,-54.02 366.77,-49.43"/>
</g>
<!-- n6&#45;&gt;n5 -->
<g id="edge4" class="edge">
<title>n6&#45;&gt;n5</title>
<path fill="none" stroke="#64748b" d="M495.9,-87.7C489.29,-78.97 481.17,-68.24 473.98,-58.75"/>
<polygon fill="#64748b" stroke="#64748b" points="476.04,-57.41 469.86,-53.31 472.14,-60.37 476.04,-57.41"/>
</g>
<!-- n7 -->
<g id="node8" class="node">
<title>n7</title>
<g id="a_node8"><a xlink:href="https://github.com/statopia/statlib/blob/main/Statlib/StatFoundation/Convergence/LawOfLargeNumbers/UniformStrongLaw.lean#L161" xlink:title="lemma · Statlib/StatFoundation/Convergence/LawOfLargeNumbers/UniformStrongLaw.lean:161" target="_blank">
<path fill="#eef2f6" stroke="#94a3b8" d="M414.3,-124C414.3,-124 351.7,-124 351.7,-124 345.7,-124 339.7,-118 339.7,-112 339.7,-112 339.7,-100 339.7,-100 339.7,-94 345.7,-88 351.7,-88 351.7,-88 414.3,-88 414.3,-88 420.3,-88 426.3,-94 426.3,-100 426.3,-100 426.3,-112 426.3,-112 426.3,-118 420.3,-124 414.3,-124"/>
<text xml:space="preserve" text-anchor="middle" x="383" y="-103" font-family="Helvetica,sans-Serif" font-size="10.00">le_oscEnvelope</text>
</a>
</g>
</g>
<!-- n7&#45;&gt;n3 -->
<g id="edge5" class="edge">
<title>n7&#45;&gt;n3</title>
<path fill="none" stroke="#64748b" d="M367.67,-87.7C359.87,-78.88 350.26,-68.03 341.79,-58.47"/>
<polygon fill="#64748b" stroke="#64748b" points="343.63,-56.85 337.15,-53.24 339.96,-60.1 343.63,-56.85"/>
</g>
<!-- n7&#45;&gt;n5 -->
<g id="edge6" class="edge">
<title>n7&#45;&gt;n5</title>
<path fill="none" stroke="#64748b" d="M401.04,-87.7C410.35,-78.78 421.82,-67.78 431.87,-58.14"/>
<polygon fill="#64748b" stroke="#64748b" points="433.46,-60.01 436.82,-53.39 430.07,-56.47 433.46,-60.01"/>
</g>
<!-- n8 -->
<g id="node9" class="node">
<title>n8</title>
<g id="a_node9"><a xlink:href="https://github.com/statopia/statlib/blob/main/Statlib/StatFoundation/Convergence/LawOfLargeNumbers/UniformStrongLaw.lean#L241" xlink:title="lemma · Statlib/StatFoundation/Convergence/LawOfLargeNumbers/UniformStrongLaw.lean:241" target="_blank">
<path fill="#eef2f6" stroke="#94a3b8" d="M290.32,-124C290.32,-124 177.68,-124 177.68,-124 171.68,-124 165.68,-118 165.68,-112 165.68,-112 165.68,-100 165.68,-100 165.68,-94 171.68,-88 177.68,-88 177.68,-88 290.32,-88 290.32,-88 296.32,-88 302.32,-94 302.32,-100 302.32,-100 302.32,-112 302.32,-112 302.32,-118 296.32,-124 290.32,-124"/>
<text xml:space="preserve" text-anchor="middle" x="234" y="-103" font-family="Helvetica,sans-Serif" font-size="10.00">oscEnvelope_tendsto_zero</text>
</a>
</g>
</g>
<!-- n8&#45;&gt;n3 -->
<g id="edge7" class="edge">
<title>n8&#45;&gt;n3</title>
<path fill="none" stroke="#64748b" d="M255.51,-87.7C266.8,-78.61 280.78,-67.36 292.91,-57.6"/>
<polygon fill="#64748b" stroke="#64748b" points="294.34,-59.59 298.26,-53.3 291.27,-55.78 294.34,-59.59"/>
</g>
<!-- n9 -->
<g id="node10" class="node">
<title>n9</title>
<g id="a_node10"><a xlink:href="https://github.com/statopia/statlib/blob/main/Statlib/StatFoundation/Convergence/LawOfLargeNumbers/UniformStrongLaw.lean#L307" xlink:title="lemma · Statlib/StatFoundation/Convergence/LawOfLargeNumbers/UniformStrongLaw.lean:307" target="_blank">
<path fill="#eef2f6" stroke="#94a3b8" d="M402.6,-196C402.6,-196 279.4,-196 279.4,-196 273.4,-196 267.4,-190 267.4,-184 267.4,-184 267.4,-172 267.4,-172 267.4,-166 273.4,-160 279.4,-160 279.4,-160 402.6,-160 402.6,-160 408.6,-160 414.6,-166 414.6,-172 414.6,-172 414.6,-184 414.6,-184 414.6,-190 408.6,-196 402.6,-196"/>
<text xml:space="preserve" text-anchor="middle" x="341" y="-175" font-family="Helvetica,sans-Serif" font-size="10.00">strong_law_oscillation_bound</text>
</a>
</g>
</g>
<!-- n9&#45;&gt;n3 -->
<g id="edge8" class="edge">
<title>n9&#45;&gt;n3</title>
<path fill="none" stroke="#64748b" d="M337.43,-159.87C335.36,-149.52 332.81,-136.04 331,-124 327.8,-102.73 325.14,-78.45 323.37,-60.63"/>
<polygon fill="#64748b" stroke="#64748b" points="325.84,-60.68 322.72,-53.95 320.96,-61.16 325.84,-60.68"/>
</g>
<!-- n9&#45;&gt;n4 -->
<g id="edge9" class="edge">
<title>n9&#45;&gt;n4</title>
<path fill="none" stroke="#64748b" d="M276.31,-159.52C239.24,-149.5 192.63,-136.9 154.35,-126.55"/>
<polygon fill="#64748b" stroke="#64748b" points="155.17,-124.24 147.77,-124.78 153.89,-128.97 155.17,-124.24"/>
</g>
<!-- n9&#45;&gt;n6 -->
<g id="edge10" class="edge">
<title>n9&#45;&gt;n6</title>
<path fill="none" stroke="#64748b" d="M382.96,-159.52C406.2,-149.83 435.22,-137.74 459.56,-127.6"/>
<polygon fill="#64748b" stroke="#64748b" points="460.37,-129.92 465.89,-124.96 458.48,-125.39 460.37,-129.92"/>
</g>
<!-- n9&#45;&gt;n7 -->
<g id="edge11" class="edge">
<title>n9&#45;&gt;n7</title>
<path fill="none" stroke="#64748b" d="M351.38,-159.7C356.52,-151.14 362.81,-140.66 368.42,-131.3"/>
<polygon fill="#64748b" stroke="#64748b" points="370.46,-132.67 371.96,-125.4 366.26,-130.14 370.46,-132.67"/>
</g>
<!-- n9&#45;&gt;n8 -->
<g id="edge12" class="edge">
<title>n9&#45;&gt;n8</title>
<path fill="none" stroke="#64748b" d="M314.28,-159.52C300,-150.18 282.29,-138.59 267.14,-128.68"/>
<polygon fill="#64748b" stroke="#64748b" points="268.85,-126.87 261.65,-125.09 266.17,-130.97 268.85,-126.87"/>
</g>
<!-- n10 -->
<g id="node11" class="node">
<title>n10</title>
<g id="a_node11"><a xlink:href="https://github.com/statopia/statlib/blob/main/Statlib/StatFoundation/Convergence/LawOfLargeNumbers/UniformStrongLaw.lean#L29" xlink:title="lemma · Statlib/StatFoundation/Convergence/LawOfLargeNumbers/UniformStrongLaw.lean:29" target="_blank">
<path fill="#eef2f6" stroke="#94a3b8" d="M762.48,-52C762.48,-52 671.52,-52 671.52,-52 665.52,-52 659.52,-46 659.52,-40 659.52,-40 659.52,-28 659.52,-28 659.52,-22 665.52,-16 671.52,-16 671.52,-16 762.48,-16 762.48,-16 768.48,-16 774.48,-22 774.48,-28 774.48,-28 774.48,-40 774.48,-40 774.48,-46 768.48,-52 762.48,-52"/>
<text xml:space="preserve" text-anchor="middle" x="717" y="-31" font-family="Helvetica,sans-Serif" font-size="10.00">integrable_U_comp_X</text>
</a>
</g>
</g>
<!-- n11 -->
<g id="node12" class="node">
<title>n11</title>
<g id="a_node12"><a xlink:href="https://github.com/statopia/statlib/blob/main/Statlib/StatFoundation/Convergence/LawOfLargeNumbers/UniformStrongLaw.lean#L58" xlink:title="lemma · Statlib/StatFoundation/Convergence/LawOfLargeNumbers/UniformStrongLaw.lean:58" target="_blank">
<path fill="#eef2f6" stroke="#94a3b8" d="M826.33,-124C826.33,-124 663.67,-124 663.67,-124 657.67,-124 651.67,-118 651.67,-112 651.67,-112 651.67,-100 651.67,-100 651.67,-94 657.67,-88 663.67,-88 663.67,-88 826.33,-88 826.33,-88 832.33,-88 838.33,-94 838.33,-100 838.33,-100 838.33,-112 838.33,-112 838.33,-118 832.33,-124 826.33,-124"/>
<text xml:space="preserve" text-anchor="middle" x="745" y="-103" font-family="Helvetica,sans-Serif" font-size="10.00">strong_law_sampleAverage_pointwise</text>
</a>
</g>
</g>
<!-- n11&#45;&gt;n0 -->
<g id="edge13" class="edge">
<title>n11&#45;&gt;n0</title>
<path fill="none" stroke="#64748b" d="M767.25,-87.7C779.04,-78.53 793.66,-67.16 806.29,-57.33"/>
<polygon fill="#64748b" stroke="#64748b" points="807.48,-59.51 811.5,-53.28 804.47,-55.64 807.48,-59.51"/>
</g>
<!-- n11&#45;&gt;n1 -->
<g id="edge14" class="edge">
<title>n11&#45;&gt;n1</title>
<path fill="none" stroke="#64748b" d="M708.28,-87.52C688.21,-77.96 663.21,-66.05 642.09,-56"/>
<polygon fill="#64748b" stroke="#64748b" points="643.24,-53.83 635.87,-53.03 641.13,-58.25 643.24,-53.83"/>
</g>
<!-- n11&#45;&gt;n10 -->
<g id="edge15" class="edge">
<title>n11&#45;&gt;n10</title>
<path fill="none" stroke="#64748b" d="M738.08,-87.7C734.72,-79.3 730.63,-69.07 726.94,-59.86"/>
<polygon fill="#64748b" stroke="#64748b" points="729.28,-59.1 724.4,-53.51 724.73,-60.92 729.28,-59.1"/>
</g>
<!-- n12 -->
<g id="node13" class="node">
<title>n12</title>
<g id="a_node13"><a xlink:href="https://github.com/statopia/statlib/blob/main/Statlib/StatFoundation/Convergence/LawOfLargeNumbers/UniformStrongLaw.lean#L91" xlink:title="lemma · Statlib/StatFoundation/Convergence/LawOfLargeNumbers/UniformStrongLaw.lean:91" target="_blank">
<path fill="#eef2f6" stroke="#94a3b8" d="M815.78,-196C815.78,-196 654.22,-196 654.22,-196 648.22,-196 642.22,-190 642.22,-184 642.22,-184 642.22,-172 642.22,-172 642.22,-166 648.22,-160 654.22,-160 654.22,-160 815.78,-160 815.78,-160 821.78,-160 827.78,-166 827.78,-172 827.78,-172 827.78,-184 827.78,-184 827.78,-190 821.78,-196 815.78,-196"/>
<text xml:space="preserve" text-anchor="middle" x="735" y="-175" font-family="Helvetica,sans-Serif" font-size="10.00">strong_law_sampleAverage_finset_ae</text>
</a>
</g>
</g>
<!-- n12&#45;&gt;n0 -->
<g id="edge16" class="edge">
<title>n12&#45;&gt;n0</title>
<path fill="none" stroke="#64748b" d="M802.43,-159.55C819.91,-151.64 836.7,-140.27 847,-124 859.11,-104.87 853.62,-78.79 846.6,-59.82"/>
<polygon fill="#64748b" stroke="#64748b" points="848.97,-59.16 844.1,-53.56 844.42,-60.97 848.97,-59.16"/>
</g>
<!-- n12&#45;&gt;n1 -->
<g id="edge17" class="edge">
<title>n12&#45;&gt;n1</title>
<path fill="none" stroke="#64748b" d="M693.43,-159.55C676.23,-150.79 657.07,-138.86 643,-124 625.6,-105.63 613.41,-79.23 606.14,-59.96"/>
<polygon fill="#64748b" stroke="#64748b" points="608.53,-59.35 603.84,-53.6 603.92,-61.02 608.53,-59.35"/>
</g>
<!-- n12&#45;&gt;n11 -->
<g id="edge18" class="edge">
<title>n12&#45;&gt;n11</title>
<path fill="none" stroke="#64748b" d="M737.47,-159.7C738.65,-151.47 740.07,-141.48 741.37,-132.42"/>
<polygon fill="#64748b" stroke="#64748b" points="743.78,-132.88 742.34,-125.6 738.93,-132.19 743.78,-132.88"/>
</g>
<!-- n13 -->
<g id="node14" class="node">
<title>n13</title>
<g id="a_node14"><a xlink:href="https://github.com/statopia/statlib/blob/main/Statlib/StatFoundation/Convergence/LawOfLargeNumbers/UniformStrongLaw.lean#L408" xlink:title="theorem · Statlib/StatFoundation/Convergence/LawOfLargeNumbers/UniformStrongLaw.lean:408" target="_blank">
<path fill="#ffe6a3" stroke="#d4a017" stroke-width="3" d="M652.63,-268C652.63,-268 573.37,-268 573.37,-268 567.37,-268 561.37,-262 561.37,-256 561.37,-256 561.37,-244 561.37,-244 561.37,-238 567.37,-232 573.37,-232 573.37,-232 652.63,-232 652.63,-232 658.63,-232 664.63,-238 664.63,-244 664.63,-244 664.63,-256 664.63,-256 664.63,-262 658.63,-268 652.63,-268"/>
<text xml:space="preserve" text-anchor="middle" x="613" y="-247" font-family="Helvetica,sans-Serif" font-size="10.00">uniform_strong_law</text>
</a>
</g>
</g>
<!-- n13&#45;&gt;n0 -->
<g id="edge19" class="edge">
<title>n13&#45;&gt;n0</title>
<path fill="none" stroke="#64748b" d="M665.95,-242.79C724.27,-234.89 813,-219.4 837,-196 871.9,-161.98 865.14,-135.87 856,-88 854.18,-78.47 850.68,-68.47 847.05,-59.76"/>
<polygon fill="#64748b" stroke="#64748b" points="849.38,-58.98 844.33,-53.55 844.89,-60.95 849.38,-58.98"/>
</g>
<!-- n13&#45;&gt;n1 -->
<g id="edge20" class="edge">
<title>n13&#45;&gt;n1</title>
<path fill="none" stroke="#64748b" d="M611.72,-230.75C609.05,-192.65 602.87,-104.51 599.8,-60.69"/>
<polygon fill="#64748b" stroke="#64748b" points="602.25,-60.62 599.32,-53.81 597.36,-60.96 602.25,-60.62"/>
</g>
<!-- n13&#45;&gt;n2 -->
<g id="edge21" class="edge">
<title>n13&#45;&gt;n2</title>
<path fill="none" stroke="#64748b" d="M589.35,-230.61C577.84,-221.65 563.9,-210.81 551.77,-201.38"/>
<polygon fill="#64748b" stroke="#64748b" points="553.48,-199.6 546.45,-197.24 550.47,-203.47 553.48,-199.6"/>
</g>
<!-- n13&#45;&gt;n9 -->
<g id="edge22" class="edge">
<title>n13&#45;&gt;n9</title>
<path fill="none" stroke="#64748b" d="M559.91,-235.34C519.22,-224.87 462.51,-210.27 417.01,-198.56"/>
<polygon fill="#64748b" stroke="#64748b" points="417.8,-196.24 410.41,-196.86 416.58,-200.98 417.8,-196.24"/>
</g>
<!-- n13&#45;&gt;n12 -->
<g id="edge23" class="edge">
<title>n13&#45;&gt;n12</title>
<path fill="none" stroke="#64748b" d="M645.05,-230.61C661.24,-221.32 680.96,-210.01 697.81,-200.34"/>
<polygon fill="#64748b" stroke="#64748b" points="698.67,-202.67 703.53,-197.06 696.23,-198.42 698.67,-202.67"/>
</g>
</g>
</svg>
