<?xml version="1.0" encoding="UTF-8" standalone="no"?>
<!DOCTYPE svg PUBLIC "-//W3C//DTD SVG 1.1//EN"
 "http://www.w3.org/Graphics/SVG/1.1/DTD/svg11.dtd">
<!-- Generated by graphviz version 15.0.0 (20260523.1842)
 -->
<!-- Title: efron_stein_core_unique Pages: 1 -->
<svg width="674pt" height="554pt"
 viewBox="0.00 0.00 674.00 554.00" xmlns="http://www.w3.org/2000/svg" xmlns:xlink="http://www.w3.org/1999/xlink">
<g id="graph0" class="graph" transform="scale(1 1) rotate(0) translate(4 550)">
<title>efron_stein_core_unique</title>
<polygon fill="white" stroke="none" points="-4,4 -4,-550 670,-550 670,4 -4,4"/>
<text xml:space="preserve" text-anchor="middle" x="333" y="-529.4" font-family="Helvetica,sans-Serif" font-size="14.00">Proof narrative — efron_stein_core_unique &#160;(12 decls)</text>
<g id="clust1" class="cluster">
<title>cluster_0</title>
<path fill="none" stroke="#cbd5e1" stroke-dasharray="5,2" d="M20,-8C20,-8 646,-8 646,-8 652,-8 658,-14 658,-20 658,-20 658,-501.2 658,-501.2 658,-507.2 652,-513.2 646,-513.2 646,-513.2 20,-513.2 20,-513.2 14,-513.2 8,-507.2 8,-501.2 8,-501.2 8,-20 8,-20 8,-14 14,-8 20,-8"/>
<text xml:space="preserve" text-anchor="middle" x="333" y="-499.3" font-family="Helvetica,sans-Serif" font-size="11.00">Variance</text>
</g>
<!-- n0 -->
<g id="node1" class="node">
<title>n0</title>
<g id="a_node1"><a xlink:href="vscode://vscode-remote/wsl+Ubuntu/home/gavin/statlib/Statlib/Variance/sigmaAlgExcept.lean:20" xlink:title="def · Statlib/Variance/sigmaAlgExcept.lean:20" target="_blank">
<path fill="#d6e9ff" stroke="#3b82f6" d="M185.85,-52C185.85,-52 122.15,-52 122.15,-52 116.15,-52 110.15,-46 110.15,-40 110.15,-40 110.15,-28 110.15,-28 110.15,-22 116.15,-16 122.15,-16 122.15,-16 185.85,-16 185.85,-16 191.85,-16 197.85,-22 197.85,-28 197.85,-28 197.85,-40 197.85,-40 197.85,-46 191.85,-52 185.85,-52"/>
<text xml:space="preserve" text-anchor="middle" x="154" y="-31" font-family="Helvetica,sans-Serif" font-size="10.00">sigmaAlgExcept</text>
</a>
</g>
</g>
<!-- n1 -->
<g id="node2" class="node">
<title>n1</title>
<g id="a_node2"><a xlink:href="vscode://vscode-remote/wsl+Ubuntu/home/gavin/statlib/Statlib/Variance/condExpExceptCoord.lean:21" xlink:title="def · Statlib/Variance/condExpExceptCoord.lean:21" target="_blank">
<path fill="#d6e9ff" stroke="#3b82f6" d="M236.36,-124C236.36,-124 147.64,-124 147.64,-124 141.64,-124 135.64,-118 135.64,-112 135.64,-112 135.64,-100 135.64,-100 135.64,-94 141.64,-88 147.64,-88 147.64,-88 236.36,-88 236.36,-88 242.36,-88 248.36,-94 248.36,-100 248.36,-100 248.36,-112 248.36,-112 248.36,-118 242.36,-124 236.36,-124"/>
<text xml:space="preserve" text-anchor="middle" x="192" y="-103" font-family="Helvetica,sans-Serif" font-size="10.00">condExpExceptCoord</text>
</a>
</g>
</g>
<!-- n1&#45;&gt;n0 -->
<g id="edge1" class="edge">
<title>n1&#45;&gt;n0</title>
<path fill="none" stroke="#64748b" d="M182.61,-87.7C178.01,-79.22 172.38,-68.86 167.34,-59.58"/>
<polygon fill="#64748b" stroke="#64748b" points="169.5,-58.42 164.01,-53.43 165.19,-60.76 169.5,-58.42"/>
</g>
<!-- n2 -->
<g id="node3" class="node">
<title>n2</title>
<g id="a_node3"><a xlink:href="vscode://vscode-remote/wsl+Ubuntu/home/gavin/statlib/Statlib/Variance/sigmaAlgExcept_le.lean:22" xlink:title="lemma · Statlib/Variance/sigmaAlgExcept_le.lean:22" target="_blank">
<path fill="#eef2f6" stroke="#94a3b8" d="M388.52,-124C388.52,-124 311.48,-124 311.48,-124 305.48,-124 299.48,-118 299.48,-112 299.48,-112 299.48,-100 299.48,-100 299.48,-94 305.48,-88 311.48,-88 311.48,-88 388.52,-88 388.52,-88 394.52,-88 400.52,-94 400.52,-100 400.52,-100 400.52,-112 400.52,-112 400.52,-118 394.52,-124 388.52,-124"/>
<text xml:space="preserve" text-anchor="middle" x="350" y="-103" font-family="Helvetica,sans-Serif" font-size="10.00">sigmaAlgExcept_le</text>
</a>
</g>
</g>
<!-- n2&#45;&gt;n0 -->
<g id="edge2" class="edge">
<title>n2&#45;&gt;n0</title>
<path fill="none" stroke="#64748b" d="M301.05,-87.52C272.11,-77.18 235.49,-64.1 206.03,-53.58"/>
<polygon fill="#64748b" stroke="#64748b" points="207.16,-51.38 199.74,-51.34 205.51,-56 207.16,-51.38"/>
</g>
<!-- n3 -->
<g id="node4" class="node">
<title>n3</title>
<g id="a_node4"><a xlink:href="vscode://vscode-remote/wsl+Ubuntu/home/gavin/statlib/Statlib/Variance/efron_stein_term_eq_integral_condVar_exceptCoord.lean:22" xlink:title="lemma · Statlib/Variance/efron_stein_term_eq_integral_condVar_exceptCoord.lean:22" target="_blank">
<path fill="#eef2f6" stroke="#94a3b8" d="M475.58,-196C475.58,-196 248.42,-196 248.42,-196 242.42,-196 236.42,-190 236.42,-184 236.42,-184 236.42,-172 236.42,-172 236.42,-166 242.42,-160 248.42,-160 248.42,-160 475.58,-160 475.58,-160 481.58,-160 487.58,-166 487.58,-172 487.58,-172 487.58,-184 487.58,-184 487.58,-190 481.58,-196 475.58,-196"/>
<text xml:space="preserve" text-anchor="middle" x="362" y="-175" font-family="Helvetica,sans-Serif" font-size="10.00">efron_stein_term_eq_integral_condVar_exceptCoord</text>
</a>
</g>
</g>
<!-- n3&#45;&gt;n0 -->
<g id="edge4" class="edge">
<title>n3&#45;&gt;n0</title>
<path fill="none" stroke="#64748b" d="M335.73,-159.51C321.66,-149.7 304.32,-136.86 290,-124 273.85,-109.5 274.25,-101.17 257,-88 240.71,-75.56 221.06,-64.62 203.31,-55.97"/>
<polygon fill="#64748b" stroke="#64748b" points="204.57,-53.85 197.2,-53.05 202.46,-58.28 204.57,-53.85"/>
</g>
<!-- n3&#45;&gt;n1 -->
<g id="edge3" class="edge">
<title>n3&#45;&gt;n1</title>
<path fill="none" stroke="#64748b" d="M319.54,-159.52C296.02,-149.83 266.65,-137.74 242.03,-127.6"/>
<polygon fill="#64748b" stroke="#64748b" points="243.02,-125.36 235.61,-124.96 241.15,-129.89 243.02,-125.36"/>
</g>
<!-- n3&#45;&gt;n2 -->
<g id="edge5" class="edge">
<title>n3&#45;&gt;n2</title>
<path fill="none" stroke="#64748b" d="M359.03,-159.7C357.62,-151.47 355.91,-141.48 354.36,-132.42"/>
<polygon fill="#64748b" stroke="#64748b" points="356.79,-132.08 353.19,-125.6 351.96,-132.91 356.79,-132.08"/>
</g>
<!-- n4 -->
<g id="node5" class="node">
<title>n4</title>
<g id="a_node5"><a xlink:href="vscode://vscode-remote/wsl+Ubuntu/home/gavin/statlib/Statlib/Variance/efron_stein_rhs_eq_sum_integral_condVar.lean:22" xlink:title="lemma · Statlib/Variance/efron_stein_rhs_eq_sum_integral_condVar.lean:22" target="_blank">
<path fill="#eef2f6" stroke="#94a3b8" d="M311.62,-268C311.62,-268 128.38,-268 128.38,-268 122.38,-268 116.38,-262 116.38,-256 116.38,-256 116.38,-244 116.38,-244 116.38,-238 122.38,-232 128.38,-232 128.38,-232 311.62,-232 311.62,-232 317.62,-232 323.62,-238 323.62,-244 323.62,-244 323.62,-256 323.62,-256 323.62,-262 317.62,-268 311.62,-268"/>
<text xml:space="preserve" text-anchor="middle" x="220" y="-247" font-family="Helvetica,sans-Serif" font-size="10.00">efron_stein_rhs_eq_sum_integral_condVar</text>
</a>
</g>
</g>
<!-- n4&#45;&gt;n0 -->
<g id="edge7" class="edge">
<title>n4&#45;&gt;n0</title>
<path fill="none" stroke="#64748b" d="M183.57,-231.63C168.89,-222.88 153.07,-210.94 143,-196 115.87,-155.77 115.67,-135.18 127,-88 129.35,-78.21 133.82,-68.2 138.46,-59.55"/>
<polygon fill="#64748b" stroke="#64748b" points="140.48,-60.95 141.79,-53.65 136.21,-58.54 140.48,-60.95"/>
</g>
<!-- n4&#45;&gt;n1 -->
<g id="edge6" class="edge">
<title>n4&#45;&gt;n1</title>
<path fill="none" stroke="#64748b" d="M186.28,-231.62C173.04,-222.88 159.29,-210.93 152,-196 144.98,-181.62 146.92,-175.17 152,-160 155.53,-149.48 162.06,-139.37 168.83,-130.86"/>
<polygon fill="#64748b" stroke="#64748b" points="170.66,-132.49 173.29,-125.56 166.91,-129.34 170.66,-132.49"/>
</g>
<!-- n4&#45;&gt;n3 -->
<g id="edge8" class="edge">
<title>n4&#45;&gt;n3</title>
<path fill="none" stroke="#64748b" d="M255.47,-231.52C274.84,-221.97 298.97,-210.07 319.37,-200.01"/>
<polygon fill="#64748b" stroke="#64748b" points="320.43,-202.22 325.63,-196.93 318.27,-197.83 320.43,-202.22"/>
</g>
<!-- n5 -->
<g id="node6" class="node">
<title>n5</title>
<g id="a_node6"><a xlink:href="vscode://vscode-remote/wsl+Ubuntu/home/gavin/statlib/Statlib/Variance/efron_stein_to_condVar_sum_bound.lean:22" xlink:title="theorem · Statlib/Variance/efron_stein_to_condVar_sum_bound.lean:22" target="_blank">
<path fill="#ffe6a3" stroke="#d4a017" d="M224,-340C224,-340 68,-340 68,-340 62,-340 56,-334 56,-328 56,-328 56,-316 56,-316 56,-310 62,-304 68,-304 68,-304 224,-304 224,-304 230,-304 236,-310 236,-316 236,-316 236,-328 236,-328 236,-334 230,-340 224,-340"/>
<text xml:space="preserve" text-anchor="middle" x="146" y="-319" font-family="Helvetica,sans-Serif" font-size="10.00">efron_stein_to_condVar_sum_bound</text>
</a>
</g>
</g>
<!-- n5&#45;&gt;n0 -->
<g id="edge10" class="edge">
<title>n5&#45;&gt;n0</title>
<path fill="none" stroke="#64748b" d="M128.15,-303.58C118.84,-293.77 107.8,-280.94 100,-268 58.18,-198.68 33.29,-159.11 72,-88 79.11,-74.94 90.98,-64.6 103.51,-56.66"/>
<polygon fill="#64748b" stroke="#64748b" points="104.45,-58.95 109.22,-53.26 101.95,-54.74 104.45,-58.95"/>
</g>
<!-- n5&#45;&gt;n1 -->
<g id="edge9" class="edge">
<title>n5&#45;&gt;n1</title>
<path fill="none" stroke="#64748b" d="M128.7,-303.52C120.41,-293.9 111.35,-281.24 107,-268 102.01,-252.8 103.32,-247.57 107,-232 115.22,-197.18 122.65,-189.43 143,-160 150.3,-149.45 159.59,-138.86 168.12,-129.95"/>
<polygon fill="#64748b" stroke="#64748b" points="169.67,-131.87 172.81,-125.16 166.17,-128.45 169.67,-131.87"/>
</g>
<!-- n5&#45;&gt;n4 -->
<g id="edge11" class="edge">
<title>n5&#45;&gt;n4</title>
<path fill="none" stroke="#64748b" d="M164.29,-303.7C173.72,-294.78 185.35,-283.78 195.54,-274.14"/>
<polygon fill="#64748b" stroke="#64748b" points="197.16,-275.98 200.56,-269.39 193.79,-272.42 197.16,-275.98"/>
</g>
<!-- n6 -->
<g id="node7" class="node">
<title>n6</title>
<g id="a_node7"><a xlink:href="vscode://vscode-remote/wsl+Ubuntu/home/gavin/statlib/Statlib/Variance/efron_stein_of_condVar_sum_bound.lean:22" xlink:title="theorem · Statlib/Variance/efron_stein_of_condVar_sum_bound.lean:22" target="_blank">
<path fill="#ffe6a3" stroke="#d4a017" d="M422,-340C422,-340 266,-340 266,-340 260,-340 254,-334 254,-328 254,-328 254,-316 254,-316 254,-310 260,-304 266,-304 266,-304 422,-304 422,-304 428,-304 434,-310 434,-316 434,-316 434,-328 434,-328 434,-334 428,-340 422,-340"/>
<text xml:space="preserve" text-anchor="middle" x="344" y="-319" font-family="Helvetica,sans-Serif" font-size="10.00">efron_stein_of_condVar_sum_bound</text>
</a>
</g>
</g>
<!-- n6&#45;&gt;n0 -->
<g id="edge12" class="edge">
<title>n6&#45;&gt;n0</title>
<path fill="none" stroke="#64748b" d="M253.66,-303.51C188.74,-290.51 111.83,-274.03 107,-268 98.45,-257.33 88.24,-165.93 116,-88 119.72,-77.56 126.14,-67.36 132.67,-58.74"/>
<polygon fill="#64748b" stroke="#64748b" points="134.49,-60.38 136.93,-53.38 130.65,-57.34 134.49,-60.38"/>
</g>
<!-- n6&#45;&gt;n1 -->
<g id="edge13" class="edge">
<title>n6&#45;&gt;n1</title>
<path fill="none" stroke="#64748b" d="M347.22,-303.55C349.82,-283.65 350.58,-251.37 333,-232 283.73,-177.7 217.84,-253.22 172,-196 157.4,-177.78 166.25,-151.03 176.38,-131.61"/>
<polygon fill="#64748b" stroke="#64748b" points="178.45,-132.94 179.7,-125.63 174.16,-130.56 178.45,-132.94"/>
</g>
<!-- n6&#45;&gt;n4 -->
<g id="edge14" class="edge">
<title>n6&#45;&gt;n4</title>
<path fill="none" stroke="#64748b" d="M313.03,-303.52C296.33,-294.09 275.59,-282.38 257.93,-272.41"/>
<polygon fill="#64748b" stroke="#64748b" points="259.19,-270.31 251.89,-269 256.79,-274.58 259.19,-270.31"/>
</g>
<!-- n7 -->
<g id="node8" class="node">
<title>n7</title>
<g id="a_node8"><a xlink:href="vscode://vscode-remote/wsl+Ubuntu/home/gavin/statlib/Statlib/Variance/efron_stein_iff_condVar_sum_bound.lean:23" xlink:title="theorem · Statlib/Variance/efron_stein_iff_condVar_sum_bound.lean:23" target="_blank">
<path fill="#ffe6a3" stroke="#d4a017" d="M290.72,-412C290.72,-412 135.28,-412 135.28,-412 129.28,-412 123.28,-406 123.28,-400 123.28,-400 123.28,-388 123.28,-388 123.28,-382 129.28,-376 135.28,-376 135.28,-376 290.72,-376 290.72,-376 296.72,-376 302.72,-382 302.72,-388 302.72,-388 302.72,-400 302.72,-400 302.72,-406 296.72,-412 290.72,-412"/>
<text xml:space="preserve" text-anchor="middle" x="213" y="-391" font-family="Helvetica,sans-Serif" font-size="10.00">efron_stein_iff_condVar_sum_bound</text>
</a>
</g>
</g>
<!-- n7&#45;&gt;n0 -->
<g id="edge16" class="edge">
<title>n7&#45;&gt;n0</title>
<path fill="none" stroke="#64748b" d="M122.84,-383.55C94.53,-376.07 65.8,-362.93 47,-340 21.76,-309.22 37,-290.8 37,-251 37,-251 37,-251 37,-177 37,-136.81 29.23,-120.41 53,-88 65.14,-71.44 84.02,-59.6 102.18,-51.38"/>
<polygon fill="#64748b" stroke="#64748b" points="103.04,-53.67 108.51,-48.66 101.11,-49.17 103.04,-53.67"/>
</g>
<!-- n7&#45;&gt;n1 -->
<g id="edge15" class="edge">
<title>n7&#45;&gt;n1</title>
<path fill="none" stroke="#64748b" d="M303.18,-377.72C363.67,-366.55 433.91,-351.42 443,-340 452.96,-327.48 451.52,-317.54 443,-304 423.31,-272.71 395.68,-292.52 368,-268 353.79,-255.41 360.55,-242.89 345,-232 284.95,-189.93 229.84,-253.22 184,-196 169.83,-178.31 174.44,-151.82 181.01,-132.33"/>
<polygon fill="#64748b" stroke="#64748b" points="183.27,-133.3 183.38,-125.88 178.67,-131.61 183.27,-133.3"/>
</g>
<!-- n7&#45;&gt;n5 -->
<g id="edge17" class="edge">
<title>n7&#45;&gt;n5</title>
<path fill="none" stroke="#64748b" d="M196.44,-375.7C187.92,-366.8 177.42,-355.82 168.2,-346.2"/>
<polygon fill="#64748b" stroke="#64748b" points="170.03,-344.56 163.42,-341.2 166.49,-347.95 170.03,-344.56"/>
</g>
<!-- n7&#45;&gt;n6 -->
<g id="edge18" class="edge">
<title>n7&#45;&gt;n6</title>
<path fill="none" stroke="#64748b" d="M245.72,-375.52C263.52,-366.01 285.66,-354.17 304.42,-344.15"/>
<polygon fill="#64748b" stroke="#64748b" points="305.34,-346.43 310.36,-340.97 303.03,-342.11 305.34,-346.43"/>
</g>
<!-- n8 -->
<g id="node9" class="node">
<title>n8</title>
<g id="a_node9"><a xlink:href="vscode://vscode-remote/wsl+Ubuntu/home/gavin/statlib/Statlib/Variance/sigmaAlgExcept_eq_bot.lean:22" xlink:title="lemma · Statlib/Variance/sigmaAlgExcept_eq_bot.lean:22" target="_blank">
<path fill="#eef2f6" stroke="#94a3b8" d="M637.92,-196C637.92,-196 538.08,-196 538.08,-196 532.08,-196 526.08,-190 526.08,-184 526.08,-184 526.08,-172 526.08,-172 526.08,-166 532.08,-160 538.08,-160 538.08,-160 637.92,-160 637.92,-160 643.92,-160 649.92,-166 649.92,-172 649.92,-172 649.92,-184 649.92,-184 649.92,-190 643.92,-196 637.92,-196"/>
<text xml:space="preserve" text-anchor="middle" x="588" y="-175" font-family="Helvetica,sans-Serif" font-size="10.00">sigmaAlgExcept_eq_bot</text>
</a>
</g>
</g>
<!-- n8&#45;&gt;n0 -->
<g id="edge19" class="edge">
<title>n8&#45;&gt;n0</title>
<path fill="none" stroke="#64748b" d="M578.48,-159.64C566.1,-138.88 542.4,-104.82 512,-88 460.53,-59.51 292.8,-44.34 206.44,-38.25"/>
<polygon fill="#64748b" stroke="#64748b" points="206.75,-35.82 199.6,-37.78 206.41,-40.7 206.75,-35.82"/>
</g>
<!-- n9 -->
<g id="node10" class="node">
<title>n9</title>
<g id="a_node10"><a xlink:href="vscode://vscode-remote/wsl+Ubuntu/home/gavin/statlib/Statlib/Variance/efron_stein_unique_eq.lean:23" xlink:title="theorem · Statlib/Variance/efron_stein_unique_eq.lean:23" target="_blank">
<path fill="#ffe6a3" stroke="#d4a017" d="M553.88,-268C553.88,-268 460.12,-268 460.12,-268 454.12,-268 448.12,-262 448.12,-256 448.12,-256 448.12,-244 448.12,-244 448.12,-238 454.12,-232 460.12,-232 460.12,-232 553.88,-232 553.88,-232 559.88,-232 565.88,-238 565.88,-244 565.88,-244 565.88,-256 565.88,-256 565.88,-262 559.88,-268 553.88,-268"/>
<text xml:space="preserve" text-anchor="middle" x="507" y="-247" font-family="Helvetica,sans-Serif" font-size="10.00">efron_stein_unique_eq</text>
</a>
</g>
</g>
<!-- n9&#45;&gt;n0 -->
<g id="edge21" class="edge">
<title>n9&#45;&gt;n0</title>
<path fill="none" stroke="#64748b" d="M508.73,-231.81C509.83,-213.02 509.2,-182.57 497,-160 473.13,-115.85 455.24,-109.73 410,-88 344.17,-56.39 259.97,-43.57 206.49,-38.42"/>
<polygon fill="#64748b" stroke="#64748b" points="206.88,-36 199.69,-37.79 206.43,-40.87 206.88,-36"/>
</g>
<!-- n9&#45;&gt;n1 -->
<g id="edge20" class="edge">
<title>n9&#45;&gt;n1</title>
<path fill="none" stroke="#64748b" d="M447.63,-240.87C370.54,-229.84 243.81,-209.92 227,-196 207.98,-180.25 199.24,-152.75 195.27,-132.48"/>
<polygon fill="#64748b" stroke="#64748b" points="197.71,-132.25 194.1,-125.78 192.89,-133.1 197.71,-132.25"/>
</g>
<!-- n9&#45;&gt;n3 -->
<g id="edge23" class="edge">
<title>n9&#45;&gt;n3</title>
<path fill="none" stroke="#64748b" d="M470.78,-231.52C450.99,-221.96 426.33,-210.05 405.49,-200"/>
<polygon fill="#64748b" stroke="#64748b" points="406.74,-197.88 399.37,-197.04 404.61,-202.29 406.74,-197.88"/>
</g>
<!-- n9&#45;&gt;n8 -->
<g id="edge22" class="edge">
<title>n9&#45;&gt;n8</title>
<path fill="none" stroke="#64748b" d="M527.02,-231.7C537.44,-222.69 550.31,-211.57 561.54,-201.87"/>
<polygon fill="#64748b" stroke="#64748b" points="563.09,-203.77 566.78,-197.34 559.88,-200.06 563.09,-203.77"/>
</g>
<!-- n10 -->
<g id="node11" class="node">
<title>n10</title>
<g id="a_node11"><a xlink:href="vscode://vscode-remote/wsl+Ubuntu/home/gavin/statlib/Statlib/Variance/efron_stein_unique.lean:21" xlink:title="theorem · Statlib/Variance/efron_stein_unique.lean:21" target="_blank">
<path fill="#ffe6a3" stroke="#d4a017" d="M561.53,-340C561.53,-340 484.47,-340 484.47,-340 478.47,-340 472.47,-334 472.47,-328 472.47,-328 472.47,-316 472.47,-316 472.47,-310 478.47,-304 484.47,-304 484.47,-304 561.53,-304 561.53,-304 567.53,-304 573.53,-310 573.53,-316 573.53,-316 573.53,-328 573.53,-328 573.53,-334 567.53,-340 561.53,-340"/>
<text xml:space="preserve" text-anchor="middle" x="523" y="-319" font-family="Helvetica,sans-Serif" font-size="10.00">efron_stein_unique</text>
</a>
</g>
</g>
<!-- n10&#45;&gt;n1 -->
<g id="edge24" class="edge">
<title>n10&#45;&gt;n1</title>
<path fill="none" stroke="#64748b" d="M495.15,-303.62C457.91,-280.63 393.63,-241.86 368,-232 297.55,-204.88 252.6,-252.02 202,-196 186.75,-179.11 185.67,-152.45 187.54,-132.7"/>
<polygon fill="#64748b" stroke="#64748b" points="189.95,-133.19 188.35,-125.95 185.08,-132.61 189.95,-133.19"/>
</g>
<!-- n10&#45;&gt;n9 -->
<g id="edge25" class="edge">
<title>n10&#45;&gt;n9</title>
<path fill="none" stroke="#64748b" d="M519.04,-303.7C517.15,-295.39 514.83,-285.28 512.75,-276.14"/>
<polygon fill="#64748b" stroke="#64748b" points="515.2,-275.86 511.25,-269.58 510.42,-276.95 515.2,-275.86"/>
</g>
<!-- n11 -->
<g id="node12" class="node">
<title>n11</title>
<g id="a_node12"><a xlink:href="vscode://vscode-remote/wsl+Ubuntu/home/gavin/statlib/Statlib/Variance/efron_stein_core_unique.lean:22" xlink:title="lemma · Statlib/Variance/efron_stein_core_unique.lean:22" target="_blank">
<path fill="#eef2f6" stroke="#94a3b8" stroke-width="3" d="M264.04,-484C264.04,-484 161.96,-484 161.96,-484 155.96,-484 149.96,-478 149.96,-472 149.96,-472 149.96,-460 149.96,-460 149.96,-454 155.96,-448 161.96,-448 161.96,-448 264.04,-448 264.04,-448 270.04,-448 276.04,-454 276.04,-460 276.04,-460 276.04,-472 276.04,-472 276.04,-478 270.04,-484 264.04,-484"/>
<text xml:space="preserve" text-anchor="middle" x="213" y="-463" font-family="Helvetica,sans-Serif" font-size="10.00">efron_stein_core_unique</text>
</a>
</g>
</g>
<!-- n11&#45;&gt;n0 -->
<g id="edge26" class="edge">
<title>n11&#45;&gt;n0</title>
<path fill="none" stroke="#64748b" d="M148.55,-447.6C91.42,-427.8 17,-389.29 17,-323 17,-323 17,-323 17,-177 17,-136.81 8.11,-119.55 33,-88 49.91,-66.57 77.26,-53.61 101.68,-45.87"/>
<polygon fill="#64748b" stroke="#64748b" points="102.37,-48.22 108.38,-43.88 100.97,-43.53 102.37,-48.22"/>
</g>
<!-- n11&#45;&gt;n7 -->
<g id="edge27" class="edge">
<title>n11&#45;&gt;n7</title>
<path fill="none" stroke="#64748b" d="M213,-446.61C213,-438.59 213,-429.05 213,-420.37"/>
<polygon fill="#64748b" stroke="#64748b" points="215.45,-420.58 213,-413.58 210.55,-420.58 215.45,-420.58"/>
</g>
<!-- n11&#45;&gt;n10 -->
<g id="edge28" class="edge">
<title>n11&#45;&gt;n10</title>
<path fill="none" stroke="#64748b" d="M253.21,-446.58C310.87,-420.17 416.74,-371.68 477.29,-343.94"/>
<polygon fill="#64748b" stroke="#64748b" points="478.09,-346.27 483.43,-341.12 476.05,-341.81 478.09,-346.27"/>
</g>
</g>
</svg>
