<?xml version="1.0" encoding="UTF-8" standalone="no"?>
<!DOCTYPE svg PUBLIC "-//W3C//DTD SVG 1.1//EN"
 "http://www.w3.org/Graphics/SVG/1.1/DTD/svg11.dtd">
<!-- Generated by graphviz version 15.0.0 (20260523.1842)
 -->
<!-- Title: efron_stein_anova_key Pages: 1 -->
<svg width="846pt" height="698pt"
 viewBox="0.00 0.00 846.00 698.00" xmlns="http://www.w3.org/2000/svg" xmlns:xlink="http://www.w3.org/1999/xlink">
<g id="graph0" class="graph" transform="scale(1 1) rotate(0) translate(4 694)">
<title>efron_stein_anova_key</title>
<polygon fill="white" stroke="none" points="-4,4 -4,-694 841.98,-694 841.98,4 -4,4"/>
<text xml:space="preserve" text-anchor="middle" x="418.99" y="-673.4" font-family="Helvetica,sans-Serif" font-size="14.00">Proof narrative — efron_stein_anova_key &#160;(17 decls)</text>
<g id="clust1" class="cluster">
<title>cluster_0</title>
<path fill="none" stroke="#cbd5e1" stroke-dasharray="5,2" d="M20,-8C20,-8 806,-8 806,-8 812,-8 818,-14 818,-20 818,-20 818,-645.2 818,-645.2 818,-651.2 812,-657.2 806,-657.2 806,-657.2 20,-657.2 20,-657.2 14,-657.2 8,-651.2 8,-645.2 8,-645.2 8,-20 8,-20 8,-14 14,-8 20,-8"/>
<text xml:space="preserve" text-anchor="middle" x="413" y="-643.3" font-family="Helvetica,sans-Serif" font-size="11.00">Variance</text>
</g>
<!-- n0 -->
<g id="node1" class="node">
<title>n0</title>
<g id="a_node1"><a xlink:href="vscode://vscode-remote/wsl+Ubuntu/home/gavin/statlib/Statlib/Variance/sigmaAlgExcept.lean:20" xlink:title="def · Statlib/Variance/sigmaAlgExcept.lean:20" target="_blank">
<path fill="#d6e9ff" stroke="#3b82f6" d="M274.85,-52C274.85,-52 211.15,-52 211.15,-52 205.15,-52 199.15,-46 199.15,-40 199.15,-40 199.15,-28 199.15,-28 199.15,-22 205.15,-16 211.15,-16 211.15,-16 274.85,-16 274.85,-16 280.85,-16 286.85,-22 286.85,-28 286.85,-28 286.85,-40 286.85,-40 286.85,-46 280.85,-52 274.85,-52"/>
<text xml:space="preserve" text-anchor="middle" x="243" y="-31" font-family="Helvetica,sans-Serif" font-size="10.00">sigmaAlgExcept</text>
</a>
</g>
</g>
<!-- n1 -->
<g id="node2" class="node">
<title>n1</title>
<g id="a_node2"><a xlink:href="vscode://vscode-remote/wsl+Ubuntu/home/gavin/statlib/Statlib/Variance/sigmaAlgExcept_le.lean:22" xlink:title="lemma · Statlib/Variance/sigmaAlgExcept_le.lean:22" target="_blank">
<path fill="#eef2f6" stroke="#94a3b8" d="M777.52,-124C777.52,-124 700.48,-124 700.48,-124 694.48,-124 688.48,-118 688.48,-112 688.48,-112 688.48,-100 688.48,-100 688.48,-94 694.48,-88 700.48,-88 700.48,-88 777.52,-88 777.52,-88 783.52,-88 789.52,-94 789.52,-100 789.52,-100 789.52,-112 789.52,-112 789.52,-118 783.52,-124 777.52,-124"/>
<text xml:space="preserve" text-anchor="middle" x="739" y="-103" font-family="Helvetica,sans-Serif" font-size="10.00">sigmaAlgExcept_le</text>
</a>
</g>
</g>
<!-- n1&#45;&gt;n0 -->
<g id="edge1" class="edge">
<title>n1&#45;&gt;n0</title>
<path fill="none" stroke="#64748b" d="M688.05,-90.99C683.32,-89.89 678.58,-88.88 674,-88 538.52,-62.07 376.54,-46.13 295.14,-39.15"/>
<polygon fill="#64748b" stroke="#64748b" points="295.73,-36.74 288.55,-38.59 295.32,-41.62 295.73,-36.74"/>
</g>
<!-- n2 -->
<g id="node3" class="node">
<title>n2</title>
<g id="a_node3"><a xlink:href="vscode://vscode-remote/wsl+Ubuntu/home/gavin/statlib/Statlib/Variance/variance_pi_of_isEmpty.lean:17" xlink:title="lemma · Statlib/Variance/variance_pi_of_isEmpty.lean:17" target="_blank">
<path fill="#eef2f6" stroke="#94a3b8" d="M166.08,-412C166.08,-412 67.92,-412 67.92,-412 61.92,-412 55.92,-406 55.92,-400 55.92,-400 55.92,-388 55.92,-388 55.92,-382 61.92,-376 67.92,-376 67.92,-376 166.08,-376 166.08,-376 172.08,-376 178.08,-382 178.08,-388 178.08,-388 178.08,-400 178.08,-400 178.08,-406 172.08,-412 166.08,-412"/>
<text xml:space="preserve" text-anchor="middle" x="117" y="-391" font-family="Helvetica,sans-Serif" font-size="10.00">variance_pi_of_isEmpty</text>
</a>
</g>
</g>
<!-- n3 -->
<g id="node4" class="node">
<title>n3</title>
<g id="a_node4"><a xlink:href="vscode://vscode-remote/wsl+Ubuntu/home/gavin/statlib/Statlib/Variance/condExpExceptCoord.lean:21" xlink:title="def · Statlib/Variance/condExpExceptCoord.lean:21" target="_blank">
<path fill="#d6e9ff" stroke="#3b82f6" d="M369.36,-340C369.36,-340 280.64,-340 280.64,-340 274.64,-340 268.64,-334 268.64,-328 268.64,-328 268.64,-316 268.64,-316 268.64,-310 274.64,-304 280.64,-304 280.64,-304 369.36,-304 369.36,-304 375.36,-304 381.36,-310 381.36,-316 381.36,-316 381.36,-328 381.36,-328 381.36,-334 375.36,-340 369.36,-340"/>
<text xml:space="preserve" text-anchor="middle" x="325" y="-319" font-family="Helvetica,sans-Serif" font-size="10.00">condExpExceptCoord</text>
</a>
</g>
</g>
<!-- n3&#45;&gt;n0 -->
<g id="edge2" class="edge">
<title>n3&#45;&gt;n0</title>
<path fill="none" stroke="#64748b" d="M289.29,-303.65C275.45,-294.97 261.03,-283.07 253,-268 234.24,-232.79 238.44,-113.68 241.36,-60.74"/>
<polygon fill="#64748b" stroke="#64748b" points="243.81,-60.88 241.77,-53.75 238.92,-60.6 243.81,-60.88"/>
</g>
<!-- n4 -->
<g id="node5" class="node">
<title>n4</title>
<g id="a_node5"><a xlink:href="vscode://vscode-remote/wsl+Ubuntu/home/gavin/statlib/Statlib/Variance/piSys.lean:22" xlink:title="def · Statlib/Variance/piSys.lean:22" target="_blank">
<path fill="#d6e9ff" stroke="#3b82f6" d="M464,-124C464,-124 434,-124 434,-124 428,-124 422,-118 422,-112 422,-112 422,-100 422,-100 422,-94 428,-88 434,-88 434,-88 464,-88 464,-88 470,-88 476,-94 476,-100 476,-100 476,-112 476,-112 476,-118 470,-124 464,-124"/>
<text xml:space="preserve" text-anchor="middle" x="449" y="-103" font-family="Helvetica,sans-Serif" font-size="10.00">piSys</text>
</a>
</g>
</g>
<!-- n4&#45;&gt;n0 -->
<g id="edge3" class="edge">
<title>n4&#45;&gt;n0</title>
<path fill="none" stroke="#64748b" d="M421.64,-95.7C389.43,-84.76 335.2,-66.33 294.93,-52.64"/>
<polygon fill="#64748b" stroke="#64748b" points="295.92,-50.39 288.5,-50.46 294.34,-55.03 295.92,-50.39"/>
</g>
<!-- n5 -->
<g id="node6" class="node">
<title>n5</title>
<g id="a_node6"><a xlink:href="vscode://vscode-remote/wsl+Ubuntu/home/gavin/statlib/Statlib/Variance/iIndep_coord_pi.lean:22" xlink:title="lemma · Statlib/Variance/iIndep_coord_pi.lean:22" target="_blank">
<path fill="#eef2f6" stroke="#94a3b8" d="M181.58,-196C181.58,-196 118.42,-196 118.42,-196 112.42,-196 106.42,-190 106.42,-184 106.42,-184 106.42,-172 106.42,-172 106.42,-166 112.42,-160 118.42,-160 118.42,-160 181.58,-160 181.58,-160 187.58,-160 193.58,-166 193.58,-172 193.58,-172 193.58,-184 193.58,-184 193.58,-190 187.58,-196 181.58,-196"/>
<text xml:space="preserve" text-anchor="middle" x="150" y="-175" font-family="Helvetica,sans-Serif" font-size="10.00">iIndep_coord_pi</text>
</a>
</g>
</g>
<!-- n6 -->
<g id="node7" class="node">
<title>n6</title>
<g id="a_node7"><a xlink:href="vscode://vscode-remote/wsl+Ubuntu/home/gavin/statlib/Statlib/Variance/indep_sigmaAlgExcept_coord.lean:24" xlink:title="lemma · Statlib/Variance/indep_sigmaAlgExcept_coord.lean:24" target="_blank">
<path fill="#eef2f6" stroke="#94a3b8" d="M212.15,-268C212.15,-268 87.85,-268 87.85,-268 81.85,-268 75.85,-262 75.85,-256 75.85,-256 75.85,-244 75.85,-244 75.85,-238 81.85,-232 87.85,-232 87.85,-232 212.15,-232 212.15,-232 218.15,-232 224.15,-238 224.15,-244 224.15,-244 224.15,-256 224.15,-256 224.15,-262 218.15,-268 212.15,-268"/>
<text xml:space="preserve" text-anchor="middle" x="150" y="-247" font-family="Helvetica,sans-Serif" font-size="10.00">indep_sigmaAlgExcept_coord</text>
</a>
</g>
</g>
<!-- n6&#45;&gt;n0 -->
<g id="edge4" class="edge">
<title>n6&#45;&gt;n0</title>
<path fill="none" stroke="#64748b" d="M172.48,-231.53C183.19,-222.09 195.32,-209.59 203,-196 227.72,-152.27 237.32,-93.39 240.93,-60.31"/>
<polygon fill="#64748b" stroke="#64748b" points="243.35,-60.8 241.61,-53.59 238.47,-60.31 243.35,-60.8"/>
</g>
<!-- n6&#45;&gt;n5 -->
<g id="edge5" class="edge">
<title>n6&#45;&gt;n5</title>
<path fill="none" stroke="#64748b" d="M150,-231.7C150,-223.47 150,-213.48 150,-204.42"/>
<polygon fill="#64748b" stroke="#64748b" points="152.45,-204.62 150,-197.62 147.55,-204.62 152.45,-204.62"/>
</g>
<!-- n7 -->
<g id="node8" class="node">
<title>n7</title>
<g id="a_node8"><a xlink:href="vscode://vscode-remote/wsl+Ubuntu/home/gavin/statlib/Statlib/Variance/setIntegral_eq_integral_mul_meas_of_indep.lean:22" xlink:title="lemma · Statlib/Variance/setIntegral_eq_integral_mul_meas_of_indep.lean:22" target="_blank">
<path fill="#eef2f6" stroke="#94a3b8" d="M463.68,-268C463.68,-268 274.32,-268 274.32,-268 268.32,-268 262.32,-262 262.32,-256 262.32,-256 262.32,-244 262.32,-244 262.32,-238 268.32,-232 274.32,-232 274.32,-232 463.68,-232 463.68,-232 469.68,-232 475.68,-238 475.68,-244 475.68,-244 475.68,-256 475.68,-256 475.68,-262 469.68,-268 463.68,-268"/>
<text xml:space="preserve" text-anchor="middle" x="369" y="-247" font-family="Helvetica,sans-Serif" font-size="10.00">setIntegral_eq_integral_mul_meas_of_indep</text>
</a>
</g>
</g>
<!-- n8 -->
<g id="node9" class="node">
<title>n8</title>
<g id="a_node9"><a xlink:href="vscode://vscode-remote/wsl+Ubuntu/home/gavin/statlib/Statlib/Variance/generateFrom_piSys.lean:25" xlink:title="lemma · Statlib/Variance/generateFrom_piSys.lean:25" target="_blank">
<path fill="#eef2f6" stroke="#94a3b8" d="M678.41,-196C678.41,-196 593.59,-196 593.59,-196 587.59,-196 581.59,-190 581.59,-184 581.59,-184 581.59,-172 581.59,-172 581.59,-166 587.59,-160 593.59,-160 593.59,-160 678.41,-160 678.41,-160 684.41,-160 690.41,-166 690.41,-172 690.41,-172 690.41,-184 690.41,-184 690.41,-190 684.41,-196 678.41,-196"/>
<text xml:space="preserve" text-anchor="middle" x="636" y="-175" font-family="Helvetica,sans-Serif" font-size="10.00">generateFrom_piSys</text>
</a>
</g>
</g>
<!-- n8&#45;&gt;n1 -->
<g id="edge7" class="edge">
<title>n8&#45;&gt;n1</title>
<path fill="none" stroke="#64748b" d="M661.73,-159.52C675.35,-150.26 692.21,-138.8 706.7,-128.95"/>
<polygon fill="#64748b" stroke="#64748b" points="707.94,-131.07 712.35,-125.11 705.18,-127.02 707.94,-131.07"/>
</g>
<!-- n8&#45;&gt;n4 -->
<g id="edge6" class="edge">
<title>n8&#45;&gt;n4</title>
<path fill="none" stroke="#64748b" d="M589.29,-159.52C556.62,-147.29 513.68,-131.21 483.95,-120.08"/>
<polygon fill="#64748b" stroke="#64748b" points="485.15,-117.92 477.73,-117.76 483.43,-122.5 485.15,-117.92"/>
</g>
<!-- n9 -->
<g id="node10" class="node">
<title>n9</title>
<g id="a_node10"><a xlink:href="vscode://vscode-remote/wsl+Ubuntu/home/gavin/statlib/Statlib/Variance/isPiSystem_piSys.lean:21" xlink:title="lemma · Statlib/Variance/isPiSystem_piSys.lean:21" target="_blank">
<path fill="#eef2f6" stroke="#94a3b8" d="M551.73,-196C551.73,-196 480.27,-196 480.27,-196 474.27,-196 468.27,-190 468.27,-184 468.27,-184 468.27,-172 468.27,-172 468.27,-166 474.27,-160 480.27,-160 480.27,-160 551.73,-160 551.73,-160 557.73,-160 563.73,-166 563.73,-172 563.73,-172 563.73,-184 563.73,-184 563.73,-190 557.73,-196 551.73,-196"/>
<text xml:space="preserve" text-anchor="middle" x="516" y="-175" font-family="Helvetica,sans-Serif" font-size="10.00">isPiSystem_piSys</text>
</a>
</g>
</g>
<!-- n9&#45;&gt;n4 -->
<g id="edge8" class="edge">
<title>n9&#45;&gt;n4</title>
<path fill="none" stroke="#64748b" d="M499.44,-159.7C490.92,-150.8 480.42,-139.82 471.2,-130.2"/>
<polygon fill="#64748b" stroke="#64748b" points="473.03,-128.56 466.42,-125.2 469.49,-131.95 473.03,-128.56"/>
</g>
<!-- n10 -->
<g id="node11" class="node">
<title>n10</title>
<g id="a_node11"><a xlink:href="vscode://vscode-remote/wsl+Ubuntu/home/gavin/statlib/Statlib/Variance/ae_eq_zero_of_integral_piSys_zero.lean:25" xlink:title="lemma · Statlib/Variance/ae_eq_zero_of_integral_piSys_zero.lean:25" target="_blank">
<path fill="#eef2f6" stroke="#94a3b8" d="M678.06,-268C678.06,-268 525.94,-268 525.94,-268 519.94,-268 513.94,-262 513.94,-256 513.94,-256 513.94,-244 513.94,-244 513.94,-238 519.94,-232 525.94,-232 525.94,-232 678.06,-232 678.06,-232 684.06,-232 690.06,-238 690.06,-244 690.06,-244 690.06,-256 690.06,-256 690.06,-262 684.06,-268 678.06,-268"/>
<text xml:space="preserve" text-anchor="middle" x="602" y="-247" font-family="Helvetica,sans-Serif" font-size="10.00">ae_eq_zero_of_integral_piSys_zero</text>
</a>
</g>
</g>
<!-- n10&#45;&gt;n4 -->
<g id="edge9" class="edge">
<title>n10&#45;&gt;n4</title>
<path fill="none" stroke="#64748b" d="M513.64,-233.1C492.81,-225.24 472.7,-213.52 459,-196 445.13,-178.26 443.75,-152.11 445.17,-132.74"/>
<polygon fill="#64748b" stroke="#64748b" points="447.6,-133.09 445.84,-125.88 442.72,-132.61 447.6,-133.09"/>
</g>
<!-- n10&#45;&gt;n8 -->
<g id="edge10" class="edge">
<title>n10&#45;&gt;n8</title>
<path fill="none" stroke="#64748b" d="M610.4,-231.7C614.52,-223.22 619.55,-212.86 624.06,-203.58"/>
<polygon fill="#64748b" stroke="#64748b" points="626.18,-204.83 627.03,-197.47 621.77,-202.69 626.18,-204.83"/>
</g>
<!-- n10&#45;&gt;n9 -->
<g id="edge11" class="edge">
<title>n10&#45;&gt;n9</title>
<path fill="none" stroke="#64748b" d="M580.74,-231.7C569.58,-222.61 555.76,-211.36 543.76,-201.6"/>
<polygon fill="#64748b" stroke="#64748b" points="545.46,-199.82 538.49,-197.3 542.37,-203.62 545.46,-199.82"/>
</g>
<!-- n11 -->
<g id="node12" class="node">
<title>n11</title>
<g id="a_node12"><a xlink:href="vscode://vscode-remote/wsl+Ubuntu/home/gavin/statlib/Statlib/Variance/condExp_condExp_comm_pi.lean:29" xlink:title="lemma · Statlib/Variance/condExp_condExp_comm_pi.lean:29" target="_blank">
<path fill="#eef2f6" stroke="#94a3b8" d="M561.76,-340C561.76,-340 440.24,-340 440.24,-340 434.24,-340 428.24,-334 428.24,-328 428.24,-328 428.24,-316 428.24,-316 428.24,-310 434.24,-304 440.24,-304 440.24,-304 561.76,-304 561.76,-304 567.76,-304 573.76,-310 573.76,-316 573.76,-316 573.76,-328 573.76,-328 573.76,-334 567.76,-340 561.76,-340"/>
<text xml:space="preserve" text-anchor="middle" x="501" y="-319" font-family="Helvetica,sans-Serif" font-size="10.00">condExp_condExp_comm_pi</text>
</a>
</g>
</g>
<!-- n11&#45;&gt;n0 -->
<g id="edge12" class="edge">
<title>n11&#45;&gt;n0</title>
<path fill="none" stroke="#64748b" d="M574.06,-305.94C627.15,-294.26 691.05,-278.36 699,-268 713.61,-248.96 713.01,-179.49 699,-160 651.61,-94.06 405.11,-55.38 295.57,-41.21"/>
<polygon fill="#64748b" stroke="#64748b" points="296.05,-38.8 288.79,-40.35 295.42,-43.66 296.05,-38.8"/>
</g>
<!-- n11&#45;&gt;n1 -->
<g id="edge13" class="edge">
<title>n11&#45;&gt;n1</title>
<path fill="none" stroke="#64748b" d="M574.21,-306.92C631.93,-295.15 704.3,-278.62 714,-268 731.69,-248.65 736.87,-172.88 738.38,-132.57"/>
<polygon fill="#64748b" stroke="#64748b" points="740.82,-132.89 738.61,-125.81 735.92,-132.73 740.82,-132.89"/>
</g>
<!-- n11&#45;&gt;n4 -->
<g id="edge14" class="edge">
<title>n11&#45;&gt;n4</title>
<path fill="none" stroke="#64748b" d="M501.3,-303.75C500.89,-284.9 498,-254.4 485,-232 472.49,-210.44 452.55,-218.58 442,-196 432.67,-176.03 435.87,-150.78 440.55,-132.28"/>
<polygon fill="#64748b" stroke="#64748b" points="442.85,-133.16 442.37,-125.76 438.13,-131.85 442.85,-133.16"/>
</g>
<!-- n11&#45;&gt;n6 -->
<g id="edge15" class="edge">
<title>n11&#45;&gt;n6</title>
<path fill="none" stroke="#64748b" d="M427.85,-306.41C370.95,-295.06 292,-279.32 232.79,-267.51"/>
<polygon fill="#64748b" stroke="#64748b" points="233.4,-265.13 226.06,-266.17 232.44,-269.94 233.4,-265.13"/>
</g>
<!-- n11&#45;&gt;n7 -->
<g id="edge16" class="edge">
<title>n11&#45;&gt;n7</title>
<path fill="none" stroke="#64748b" d="M468.03,-303.52C450.1,-294.01 427.78,-282.17 408.88,-272.15"/>
<polygon fill="#64748b" stroke="#64748b" points="410.22,-270.08 402.89,-268.97 407.92,-274.41 410.22,-270.08"/>
</g>
<!-- n11&#45;&gt;n10 -->
<g id="edge17" class="edge">
<title>n11&#45;&gt;n10</title>
<path fill="none" stroke="#64748b" d="M526.23,-303.52C539.58,-294.26 556.12,-282.8 570.33,-272.95"/>
<polygon fill="#64748b" stroke="#64748b" points="571.49,-275.12 575.85,-269.12 568.7,-271.1 571.49,-275.12"/>
</g>
<!-- n12 -->
<g id="node13" class="node">
<title>n12</title>
<g id="a_node13"><a xlink:href="vscode://vscode-remote/wsl+Ubuntu/home/gavin/statlib/Statlib/Variance/integral_sq_condExp_le.lean:43" xlink:title="lemma · Statlib/Variance/integral_sq_condExp_le.lean:43" target="_blank">
<path fill="#eef2f6" stroke="#94a3b8" d="M738.37,-340C738.37,-340 639.63,-340 639.63,-340 633.63,-340 627.63,-334 627.63,-328 627.63,-328 627.63,-316 627.63,-316 627.63,-310 633.63,-304 639.63,-304 639.63,-304 738.37,-304 738.37,-304 744.37,-304 750.37,-310 750.37,-316 750.37,-316 750.37,-328 750.37,-328 750.37,-334 744.37,-340 738.37,-340"/>
<text xml:space="preserve" text-anchor="middle" x="689" y="-319" font-family="Helvetica,sans-Serif" font-size="10.00">integral_sq_condExp_le</text>
</a>
</g>
</g>
<!-- n13 -->
<g id="node14" class="node">
<title>n13</title>
<g id="a_node14"><a xlink:href="vscode://vscode-remote/wsl+Ubuntu/home/gavin/statlib/Statlib/Variance/efron_stein_condVar_le_of_condExp.lean:24" xlink:title="lemma · Statlib/Variance/efron_stein_condVar_le_of_condExp.lean:24" target="_blank">
<path fill="#eef2f6" stroke="#94a3b8" d="M778,-412C778,-412 622,-412 622,-412 616,-412 610,-406 610,-400 610,-400 610,-388 610,-388 610,-382 616,-376 622,-376 622,-376 778,-376 778,-376 784,-376 790,-382 790,-388 790,-388 790,-400 790,-400 790,-406 784,-412 778,-412"/>
<text xml:space="preserve" text-anchor="middle" x="700" y="-391" font-family="Helvetica,sans-Serif" font-size="10.00">efron_stein_condVar_le_of_condExp</text>
</a>
</g>
</g>
<!-- n13&#45;&gt;n0 -->
<g id="edge19" class="edge">
<title>n13&#45;&gt;n0</title>
<path fill="none" stroke="#64748b" d="M732.5,-375.67C745.97,-366.81 760.42,-354.75 769,-340 825.72,-242.51 874.88,-171.45 799,-88 765.49,-51.14 427.54,-39.31 295.48,-36.07"/>
<polygon fill="#64748b" stroke="#64748b" points="295.66,-33.62 288.6,-35.91 295.54,-38.52 295.66,-33.62"/>
</g>
<!-- n13&#45;&gt;n1 -->
<g id="edge20" class="edge">
<title>n13&#45;&gt;n1</title>
<path fill="none" stroke="#64748b" d="M728.11,-375.64C739.99,-366.63 752.55,-354.46 759,-340 790.22,-269.98 764.5,-176.49 748.86,-132.24"/>
<polygon fill="#64748b" stroke="#64748b" points="751.19,-131.49 746.49,-125.74 746.58,-133.16 751.19,-131.49"/>
</g>
<!-- n13&#45;&gt;n3 -->
<g id="edge18" class="edge">
<title>n13&#45;&gt;n3</title>
<path fill="none" stroke="#64748b" d="M609.7,-376.14C541.91,-363.49 450.69,-346.46 389.97,-335.13"/>
<polygon fill="#64748b" stroke="#64748b" points="390.43,-332.72 383.1,-333.85 389.53,-337.54 390.43,-332.72"/>
</g>
<!-- n13&#45;&gt;n11 -->
<g id="edge21" class="edge">
<title>n13&#45;&gt;n11</title>
<path fill="none" stroke="#64748b" d="M650.3,-375.52C622.41,-365.71 587.5,-353.43 558.44,-343.21"/>
<polygon fill="#64748b" stroke="#64748b" points="559.26,-340.9 551.84,-340.88 557.63,-345.52 559.26,-340.9"/>
</g>
<!-- n13&#45;&gt;n12 -->
<g id="edge22" class="edge">
<title>n13&#45;&gt;n12</title>
<path fill="none" stroke="#64748b" d="M697.28,-375.7C695.99,-367.47 694.42,-357.48 692.99,-348.42"/>
<polygon fill="#64748b" stroke="#64748b" points="695.43,-348.13 691.92,-341.6 690.59,-348.9 695.43,-348.13"/>
</g>
<!-- n14 -->
<g id="node15" class="node">
<title>n14</title>
<g id="a_node15"><a xlink:href="vscode://vscode-remote/wsl+Ubuntu/home/gavin/statlib/Statlib/Variance/efron_stein_core_gen.lean:29" xlink:title="theorem · Statlib/Variance/efron_stein_core_gen.lean:29" target="_blank">
<path fill="#ffe6a3" stroke="#d4a017" d="M294.37,-484C294.37,-484 205.63,-484 205.63,-484 199.63,-484 193.63,-478 193.63,-472 193.63,-472 193.63,-460 193.63,-460 193.63,-454 199.63,-448 205.63,-448 205.63,-448 294.37,-448 294.37,-448 300.37,-448 306.37,-454 306.37,-460 306.37,-460 306.37,-472 306.37,-472 306.37,-478 300.37,-484 294.37,-484"/>
<text xml:space="preserve" text-anchor="middle" x="250" y="-463" font-family="Helvetica,sans-Serif" font-size="10.00">efron_stein_core_gen</text>
</a>
</g>
</g>
<!-- n14&#45;&gt;n0 -->
<g id="edge23" class="edge">
<title>n14&#45;&gt;n0</title>
<path fill="none" stroke="#64748b" d="M233.46,-447.7C224.42,-437.73 213.38,-424.69 205,-412 195.14,-397.07 197.84,-390.23 187,-376 143.53,-318.91 96.19,-333.55 67,-268 28.08,-180.6 142.2,-95.43 204.86,-56.71"/>
<polygon fill="#64748b" stroke="#64748b" points="205.87,-58.96 210.57,-53.23 203.32,-54.78 205.87,-58.96"/>
</g>
<!-- n14&#45;&gt;n1 -->
<g id="edge26" class="edge">
<title>n14&#45;&gt;n1</title>
<path fill="none" stroke="#64748b" d="M306.7,-451.64C375.82,-433.64 494.36,-397.1 583,-340 602.02,-327.75 599.77,-315.92 619,-304 661.64,-277.56 692.95,-305.75 726,-268 758.78,-230.56 752.36,-167.66 745.34,-132.59"/>
<polygon fill="#64748b" stroke="#64748b" points="747.74,-132.12 743.88,-125.79 742.95,-133.14 747.74,-132.12"/>
</g>
<!-- n14&#45;&gt;n2 -->
<g id="edge24" class="edge">
<title>n14&#45;&gt;n2</title>
<path fill="none" stroke="#64748b" d="M216.78,-447.52C198.71,-438.01 176.23,-426.17 157.18,-416.15"/>
<polygon fill="#64748b" stroke="#64748b" points="158.47,-414.06 151.13,-412.97 156.19,-418.39 158.47,-414.06"/>
</g>
<!-- n14&#45;&gt;n3 -->
<g id="edge25" class="edge">
<title>n14&#45;&gt;n3</title>
<path fill="none" stroke="#64748b" d="M259.2,-447.59C272.48,-422.43 297.1,-375.83 312.17,-347.3"/>
<polygon fill="#64748b" stroke="#64748b" points="314.15,-348.78 315.26,-341.45 309.82,-346.49 314.15,-348.78"/>
</g>
<!-- n14&#45;&gt;n6 -->
<g id="edge28" class="edge">
<title>n14&#45;&gt;n6</title>
<path fill="none" stroke="#64748b" d="M241.99,-447.85C224.36,-410.13 182.16,-319.83 161.62,-275.88"/>
<polygon fill="#64748b" stroke="#64748b" points="163.88,-274.91 158.69,-269.6 159.44,-276.98 163.88,-274.91"/>
</g>
<!-- n14&#45;&gt;n7 -->
<g id="edge29" class="edge">
<title>n14&#45;&gt;n7</title>
<path fill="none" stroke="#64748b" d="M245.85,-447.73C239.32,-416.19 230.23,-348.44 260,-304 269.31,-290.1 283.35,-279.73 298.28,-272.02"/>
<polygon fill="#64748b" stroke="#64748b" points="299.06,-274.36 304.3,-269.11 296.93,-269.95 299.06,-274.36"/>
</g>
<!-- n14&#45;&gt;n11 -->
<g id="edge27" class="edge">
<title>n14&#45;&gt;n11</title>
<path fill="none" stroke="#64748b" d="M280.78,-447.59C326.72,-421.59 413.16,-372.69 462.99,-344.5"/>
<polygon fill="#64748b" stroke="#64748b" points="464.16,-346.66 469.05,-341.08 461.75,-342.39 464.16,-346.66"/>
</g>
<!-- n14&#45;&gt;n13 -->
<g id="edge30" class="edge">
<title>n14&#45;&gt;n13</title>
<path fill="none" stroke="#64748b" d="M306.66,-456.5C375.21,-446.17 494.11,-428.13 596,-412 597.8,-411.72 599.61,-411.43 601.44,-411.14"/>
<polygon fill="#64748b" stroke="#64748b" points="601.52,-413.61 608.04,-410.08 600.74,-408.77 601.52,-413.61"/>
</g>
<!-- n15 -->
<g id="node16" class="node">
<title>n15</title>
<g id="a_node16"><a xlink:href="vscode://vscode-remote/wsl+Ubuntu/home/gavin/statlib/Statlib/Variance/efron_stein_core.lean:21" xlink:title="theorem · Statlib/Variance/efron_stein_core.lean:21" target="_blank">
<path fill="#ffe6a3" stroke="#d4a017" d="M221.25,-556C221.25,-556 154.75,-556 154.75,-556 148.75,-556 142.75,-550 142.75,-544 142.75,-544 142.75,-532 142.75,-532 142.75,-526 148.75,-520 154.75,-520 154.75,-520 221.25,-520 221.25,-520 227.25,-520 233.25,-526 233.25,-532 233.25,-532 233.25,-544 233.25,-544 233.25,-550 227.25,-556 221.25,-556"/>
<text xml:space="preserve" text-anchor="middle" x="188" y="-535" font-family="Helvetica,sans-Serif" font-size="10.00">efron_stein_core</text>
</a>
</g>
</g>
<!-- n15&#45;&gt;n0 -->
<g id="edge31" class="edge">
<title>n15&#45;&gt;n0</title>
<path fill="none" stroke="#64748b" d="M146.74,-519.63C102.03,-497.72 37,-455.46 37,-395 37,-395 37,-395 37,-177 37,-102.38 129.76,-63.96 190.79,-46.76"/>
<polygon fill="#64748b" stroke="#64748b" points="191.24,-49.18 197.35,-44.97 189.95,-44.45 191.24,-49.18"/>
</g>
<!-- n15&#45;&gt;n14 -->
<g id="edge32" class="edge">
<title>n15&#45;&gt;n14</title>
<path fill="none" stroke="#64748b" d="M203.33,-519.7C211.13,-510.88 220.74,-500.03 229.21,-490.47"/>
<polygon fill="#64748b" stroke="#64748b" points="231.04,-492.1 233.85,-485.24 227.37,-488.85 231.04,-492.1"/>
</g>
<!-- n16 -->
<g id="node17" class="node">
<title>n16</title>
<g id="a_node17"><a xlink:href="vscode://vscode-remote/wsl+Ubuntu/home/gavin/statlib/Statlib/Variance/efron_stein_anova_key.lean:22" xlink:title="lemma · Statlib/Variance/efron_stein_anova_key.lean:22" target="_blank">
<path fill="#eef2f6" stroke="#94a3b8" stroke-width="3" d="M235.7,-628C235.7,-628 140.3,-628 140.3,-628 134.3,-628 128.3,-622 128.3,-616 128.3,-616 128.3,-604 128.3,-604 128.3,-598 134.3,-592 140.3,-592 140.3,-592 235.7,-592 235.7,-592 241.7,-592 247.7,-598 247.7,-604 247.7,-604 247.7,-616 247.7,-616 247.7,-622 241.7,-628 235.7,-628"/>
<text xml:space="preserve" text-anchor="middle" x="188" y="-607" font-family="Helvetica,sans-Serif" font-size="10.00">efron_stein_anova_key</text>
</a>
</g>
</g>
<!-- n16&#45;&gt;n0 -->
<g id="edge33" class="edge">
<title>n16&#45;&gt;n0</title>
<path fill="none" stroke="#64748b" d="M134.83,-590.52C84.63,-569.28 17,-529.13 17,-467 17,-467 17,-467 17,-177 17,-134.16 21.94,-116.41 54,-88 91.7,-54.59 148.88,-42.09 190.47,-37.5"/>
<polygon fill="#64748b" stroke="#64748b" points="190.61,-39.95 197.32,-36.81 190.11,-35.07 190.61,-39.95"/>
</g>
<!-- n16&#45;&gt;n1 -->
<g id="edge34" class="edge">
<title>n16&#45;&gt;n1</title>
<path fill="none" stroke="#64748b" d="M248.96,-607.93C405.42,-603.53 809,-581.12 809,-467 809,-467 809,-467 809,-321 809,-247.05 793.78,-228.93 767,-160 763.27,-150.4 758.24,-140.3 753.47,-131.52"/>
<polygon fill="#64748b" stroke="#64748b" points="755.67,-130.43 750.12,-125.51 751.39,-132.82 755.67,-130.43"/>
</g>
<!-- n16&#45;&gt;n15 -->
<g id="edge35" class="edge">
<title>n16&#45;&gt;n15</title>
<path fill="none" stroke="#64748b" d="M188,-590.61C188,-582.59 188,-573.05 188,-564.37"/>
<polygon fill="#64748b" stroke="#64748b" points="190.45,-564.58 188,-557.58 185.55,-564.58 190.45,-564.58"/>
</g>
</g>
</svg>
