<?xml version="1.0" encoding="UTF-8" standalone="no"?>
<!DOCTYPE svg PUBLIC "-//W3C//DTD SVG 1.1//EN"
 "http://www.w3.org/Graphics/SVG/1.1/DTD/svg11.dtd">
<!-- Generated by graphviz version 15.0.0 (20260523.1842)
 -->
<!-- Title: u_statistic_variance_decomposition Pages: 1 -->
<svg width="1246pt" height="554pt"
 viewBox="0.00 0.00 1246.00 554.00" xmlns="http://www.w3.org/2000/svg" xmlns:xlink="http://www.w3.org/1999/xlink">
<g id="graph0" class="graph" transform="scale(1 1) rotate(0) translate(4 550)">
<title>u_statistic_variance_decomposition</title>
<polygon fill="white" stroke="none" points="-4,4 -4,-550 1242,-550 1242,4 -4,4"/>
<text xml:space="preserve" text-anchor="middle" x="619" y="-529.4" font-family="Helvetica,sans-Serif" font-size="14.00">Proof narrative — u_statistic_variance_decomposition &#160;(23 decls)</text>
<g id="clust1" class="cluster">
<title>cluster_0</title>
<path fill="none" stroke="#cbd5e1" stroke-dasharray="5,2" d="M20,-8C20,-8 1218,-8 1218,-8 1224,-8 1230,-14 1230,-20 1230,-20 1230,-501.2 1230,-501.2 1230,-507.2 1224,-513.2 1218,-513.2 1218,-513.2 20,-513.2 20,-513.2 14,-513.2 8,-507.2 8,-501.2 8,-501.2 8,-20 8,-20 8,-14 14,-8 20,-8"/>
<text xml:space="preserve" text-anchor="middle" x="619" y="-499.3" font-family="Helvetica,sans-Serif" font-size="11.00">Variance</text>
</g>
<!-- n0 -->
<g id="node1" class="node">
<title>n0</title>
<g id="a_node1"><a xlink:href="vscode://vscode-remote/wsl+Ubuntu/home/gavin/statlib/Statlib/Variance/uStatistic.lean:35" xlink:title="def · Statlib/Variance/uStatistic.lean:35" target="_blank">
<path fill="#d6e9ff" stroke="#3b82f6" d="M60.29,-340C60.29,-340 27.71,-340 27.71,-340 21.71,-340 15.71,-334 15.71,-328 15.71,-328 15.71,-316 15.71,-316 15.71,-310 21.71,-304 27.71,-304 27.71,-304 60.29,-304 60.29,-304 66.29,-304 72.29,-310 72.29,-316 72.29,-316 72.29,-328 72.29,-328 72.29,-334 66.29,-340 60.29,-340"/>
<text xml:space="preserve" text-anchor="middle" x="44" y="-319" font-family="Helvetica,sans-Serif" font-size="10.00">uStatistic</text>
</a>
</g>
</g>
<!-- n1 -->
<g id="node2" class="node">
<title>n1</title>
<g id="a_node2"><a xlink:href="vscode://vscode-remote/wsl+Ubuntu/home/gavin/statlib/Statlib/Variance/appendFin.lean:34" xlink:title="def · Statlib/Variance/appendFin.lean:34" target="_blank">
<path fill="#d6e9ff" stroke="#3b82f6" d="M1035.63,-52C1035.63,-52 996.37,-52 996.37,-52 990.37,-52 984.37,-46 984.37,-40 984.37,-40 984.37,-28 984.37,-28 984.37,-22 990.37,-16 996.37,-16 996.37,-16 1035.63,-16 1035.63,-16 1041.63,-16 1047.63,-22 1047.63,-28 1047.63,-28 1047.63,-40 1047.63,-40 1047.63,-46 1041.63,-52 1035.63,-52"/>
<text xml:space="preserve" text-anchor="middle" x="1016" y="-31" font-family="Helvetica,sans-Serif" font-size="10.00">appendFin</text>
</a>
</g>
</g>
<!-- n2 -->
<g id="node3" class="node">
<title>n2</title>
<g id="a_node3"><a xlink:href="vscode://vscode-remote/wsl+Ubuntu/home/gavin/statlib/Statlib/Variance/kernelProjection.lean:35" xlink:title="def · Statlib/Variance/kernelProjection.lean:35" target="_blank">
<path fill="#d6e9ff" stroke="#3b82f6" d="M894.85,-124C894.85,-124 831.15,-124 831.15,-124 825.15,-124 819.15,-118 819.15,-112 819.15,-112 819.15,-100 819.15,-100 819.15,-94 825.15,-88 831.15,-88 831.15,-88 894.85,-88 894.85,-88 900.85,-88 906.85,-94 906.85,-100 906.85,-100 906.85,-112 906.85,-112 906.85,-118 900.85,-124 894.85,-124"/>
<text xml:space="preserve" text-anchor="middle" x="863" y="-103" font-family="Helvetica,sans-Serif" font-size="10.00">kernelProjection</text>
</a>
</g>
</g>
<!-- n2&#45;&gt;n1 -->
<g id="edge1" class="edge">
<title>n2&#45;&gt;n1</title>
<path fill="none" stroke="#64748b" d="M901.21,-87.52C924.12,-77.04 953.19,-63.74 976.34,-53.14"/>
<polygon fill="#64748b" stroke="#64748b" points="977.23,-55.43 982.57,-50.29 975.19,-50.98 977.23,-55.43"/>
</g>
<!-- n3 -->
<g id="node4" class="node">
<title>n3</title>
<g id="a_node4"><a xlink:href="vscode://vscode-remote/wsl+Ubuntu/home/gavin/statlib/Statlib/Variance/uZeta.lean:35" xlink:title="def · Statlib/Variance/uZeta.lean:35" target="_blank">
<path fill="#d6e9ff" stroke="#3b82f6" d="M900,-268C900,-268 870,-268 870,-268 864,-268 858,-262 858,-256 858,-256 858,-244 858,-244 858,-238 864,-232 870,-232 870,-232 900,-232 900,-232 906,-232 912,-238 912,-244 912,-244 912,-256 912,-256 912,-262 906,-268 900,-268"/>
<text xml:space="preserve" text-anchor="middle" x="885" y="-247" font-family="Helvetica,sans-Serif" font-size="10.00">uZeta</text>
</a>
</g>
</g>
<!-- n3&#45;&gt;n2 -->
<g id="edge2" class="edge">
<title>n3&#45;&gt;n2</title>
<path fill="none" stroke="#64748b" d="M878.19,-231.62C874.5,-221.41 870.25,-208.16 868,-196 864.07,-174.82 862.94,-150.35 862.72,-132.44"/>
<polygon fill="#64748b" stroke="#64748b" points="865.17,-132.72 862.69,-125.73 860.27,-132.74 865.17,-132.72"/>
</g>
<!-- n4 -->
<g id="node5" class="node">
<title>n4</title>
<g id="a_node5"><a xlink:href="vscode://vscode-remote/wsl+Ubuntu/home/gavin/statlib/Statlib/Variance/PSElem.lean:35" xlink:title="abbrev · Statlib/Variance/PSElem.lean:35" target="_blank">
<path fill="#d6e9ff" stroke="#3b82f6" d="M267,-124C267,-124 237,-124 237,-124 231,-124 225,-118 225,-112 225,-112 225,-100 225,-100 225,-94 231,-88 237,-88 237,-88 267,-88 267,-88 273,-88 279,-94 279,-100 279,-100 279,-112 279,-112 279,-118 273,-124 267,-124"/>
<text xml:space="preserve" text-anchor="middle" x="252" y="-103" font-family="Helvetica,sans-Serif" font-size="10.00">PSElem</text>
</a>
</g>
</g>
<!-- n5 -->
<g id="node6" class="node">
<title>n5</title>
<g id="a_node6"><a xlink:href="vscode://vscode-remote/wsl+Ubuntu/home/gavin/statlib/Statlib/Variance/hSub.lean:35" xlink:title="def · Statlib/Variance/hSub.lean:35" target="_blank">
<path fill="#d6e9ff" stroke="#3b82f6" d="M376,-196C376,-196 346,-196 346,-196 340,-196 334,-190 334,-184 334,-184 334,-172 334,-172 334,-166 340,-160 346,-160 346,-160 376,-160 376,-160 382,-160 388,-166 388,-172 388,-172 388,-184 388,-184 388,-190 382,-196 376,-196"/>
<text xml:space="preserve" text-anchor="middle" x="361" y="-175" font-family="Helvetica,sans-Serif" font-size="10.00">hSub</text>
</a>
</g>
</g>
<!-- n5&#45;&gt;n4 -->
<g id="edge3" class="edge">
<title>n5&#45;&gt;n4</title>
<path fill="none" stroke="#64748b" d="M333.78,-159.52C319.23,-150.18 301.19,-138.59 285.76,-128.68"/>
<polygon fill="#64748b" stroke="#64748b" points="287.36,-126.8 280.15,-125.08 284.72,-130.92 287.36,-126.8"/>
</g>
<!-- n6 -->
<g id="node7" class="node">
<title>n6</title>
<g id="a_node7"><a xlink:href="vscode://vscode-remote/wsl+Ubuntu/home/gavin/statlib/Statlib/Variance/uStatistic_eq_hSub_sum.lean:38" xlink:title="lemma · Statlib/Variance/uStatistic_eq_hSub_sum.lean:38" target="_blank">
<path fill="#eef2f6" stroke="#94a3b8" d="M150.31,-412C150.31,-412 47.69,-412 47.69,-412 41.69,-412 35.69,-406 35.69,-400 35.69,-400 35.69,-388 35.69,-388 35.69,-382 41.69,-376 47.69,-376 47.69,-376 150.31,-376 150.31,-376 156.31,-376 162.31,-382 162.31,-388 162.31,-388 162.31,-400 162.31,-400 162.31,-406 156.31,-412 150.31,-412"/>
<text xml:space="preserve" text-anchor="middle" x="99" y="-391" font-family="Helvetica,sans-Serif" font-size="10.00">uStatistic_eq_hSub_sum</text>
</a>
</g>
</g>
<!-- n6&#45;&gt;n0 -->
<g id="edge4" class="edge">
<title>n6&#45;&gt;n0</title>
<path fill="none" stroke="#64748b" d="M85.4,-375.7C78.54,-366.97 70.12,-356.24 62.66,-346.75"/>
<polygon fill="#64748b" stroke="#64748b" points="64.63,-345.29 58.37,-341.29 60.77,-348.31 64.63,-345.29"/>
</g>
<!-- n6&#45;&gt;n4 -->
<g id="edge5" class="edge">
<title>n6&#45;&gt;n4</title>
<path fill="none" stroke="#64748b" d="M99.1,-375.57C98.43,-356.56 95,-325.92 81,-304 66.45,-281.22 44.2,-292.11 32,-268 10.32,-225.17 2.3,-197.71 32,-160 54.55,-131.38 159.91,-116.41 216.25,-110.33"/>
<polygon fill="#64748b" stroke="#64748b" points="216.3,-112.79 223.01,-109.63 215.79,-107.92 216.3,-112.79"/>
</g>
<!-- n6&#45;&gt;n5 -->
<g id="edge6" class="edge">
<title>n6&#45;&gt;n5</title>
<path fill="none" stroke="#64748b" d="M110.53,-375.52C132.52,-343.34 183.41,-274.16 241,-232 267.03,-212.94 301,-198.74 326.15,-189.87"/>
<polygon fill="#64748b" stroke="#64748b" points="326.73,-192.26 332.55,-187.66 325.14,-187.62 326.73,-192.26"/>
</g>
<!-- n7 -->
<g id="node8" class="node">
<title>n7</title>
<g id="a_node8"><a xlink:href="vscode://vscode-remote/wsl+Ubuntu/home/gavin/statlib/Statlib/Variance/hSub_memLp.lean:39" xlink:title="lemma · Statlib/Variance/hSub_memLp.lean:39" target="_blank">
<path fill="#eef2f6" stroke="#94a3b8" d="M316.13,-268C316.13,-268 261.87,-268 261.87,-268 255.87,-268 249.87,-262 249.87,-256 249.87,-256 249.87,-244 249.87,-244 249.87,-238 255.87,-232 261.87,-232 261.87,-232 316.13,-232 316.13,-232 322.13,-232 328.13,-238 328.13,-244 328.13,-244 328.13,-256 328.13,-256 328.13,-262 322.13,-268 316.13,-268"/>
<text xml:space="preserve" text-anchor="middle" x="289" y="-247" font-family="Helvetica,sans-Serif" font-size="10.00">hSub_memLp</text>
</a>
</g>
</g>
<!-- n7&#45;&gt;n4 -->
<g id="edge7" class="edge">
<title>n7&#45;&gt;n4</title>
<path fill="none" stroke="#64748b" d="M297.68,-231.66C305.63,-213.26 314.79,-183.64 305,-160 300.27,-148.57 291.74,-138.32 282.89,-129.95"/>
<polygon fill="#64748b" stroke="#64748b" points="284.73,-128.31 277.88,-125.48 281.47,-131.97 284.73,-128.31"/>
</g>
<!-- n7&#45;&gt;n5 -->
<g id="edge8" class="edge">
<title>n7&#45;&gt;n5</title>
<path fill="none" stroke="#64748b" d="M306.8,-231.7C315.97,-222.78 327.28,-211.78 337.2,-202.14"/>
<polygon fill="#64748b" stroke="#64748b" points="338.76,-204.04 342.07,-197.4 335.35,-200.52 338.76,-204.04"/>
</g>
<!-- n8 -->
<g id="node9" class="node">
<title>n8</title>
<g id="a_node9"><a xlink:href="vscode://vscode-remote/wsl+Ubuntu/home/gavin/statlib/Statlib/Variance/orderEmbOfFin_measurePreserving.lean:35" xlink:title="lemma · Statlib/Variance/orderEmbOfFin_measurePreserving.lean:35" target="_blank">
<path fill="#eef2f6" stroke="#94a3b8" d="M610.31,-196C610.31,-196 457.69,-196 457.69,-196 451.69,-196 445.69,-190 445.69,-184 445.69,-184 445.69,-172 445.69,-172 445.69,-166 451.69,-160 457.69,-160 457.69,-160 610.31,-160 610.31,-160 616.31,-160 622.31,-166 622.31,-172 622.31,-172 622.31,-184 622.31,-184 622.31,-190 616.31,-196 610.31,-196"/>
<text xml:space="preserve" text-anchor="middle" x="534" y="-175" font-family="Helvetica,sans-Serif" font-size="10.00">orderEmbOfFin_measurePreserving</text>
</a>
</g>
</g>
<!-- n9 -->
<g id="node10" class="node">
<title>n9</title>
<g id="a_node10"><a xlink:href="vscode://vscode-remote/wsl+Ubuntu/home/gavin/statlib/Statlib/Variance/integral_hSub.lean:37" xlink:title="lemma · Statlib/Variance/integral_hSub.lean:37" target="_blank">
<path fill="#eef2f6" stroke="#94a3b8" d="M491.86,-268C491.86,-268 438.14,-268 438.14,-268 432.14,-268 426.14,-262 426.14,-256 426.14,-256 426.14,-244 426.14,-244 426.14,-238 432.14,-232 438.14,-232 438.14,-232 491.86,-232 491.86,-232 497.86,-232 503.86,-238 503.86,-244 503.86,-244 503.86,-256 503.86,-256 503.86,-262 497.86,-268 491.86,-268"/>
<text xml:space="preserve" text-anchor="middle" x="465" y="-247" font-family="Helvetica,sans-Serif" font-size="10.00">integral_hSub</text>
</a>
</g>
</g>
<!-- n9&#45;&gt;n4 -->
<g id="edge9" class="edge">
<title>n9&#45;&gt;n4</title>
<path fill="none" stroke="#64748b" d="M455.65,-231.87C442.21,-207.48 418.34,-165.1 412,-160 375.57,-130.73 322.33,-117.36 287.42,-111.43"/>
<polygon fill="#64748b" stroke="#64748b" points="288.2,-109.08 280.9,-110.39 287.42,-113.91 288.2,-109.08"/>
</g>
<!-- n9&#45;&gt;n5 -->
<g id="edge10" class="edge">
<title>n9&#45;&gt;n5</title>
<path fill="none" stroke="#64748b" d="M439.02,-231.52C425.27,-222.26 408.25,-210.8 393.61,-200.95"/>
<polygon fill="#64748b" stroke="#64748b" points="395.08,-198.98 387.9,-197.11 392.34,-203.05 395.08,-198.98"/>
</g>
<!-- n9&#45;&gt;n8 -->
<g id="edge11" class="edge">
<title>n9&#45;&gt;n8</title>
<path fill="none" stroke="#64748b" d="M482.06,-231.7C490.91,-222.71 501.85,-211.61 511.4,-201.92"/>
<polygon fill="#64748b" stroke="#64748b" points="512.91,-203.89 516.08,-197.18 509.42,-200.45 512.91,-203.89"/>
</g>
<!-- n10 -->
<g id="node11" class="node">
<title>n10</title>
<g id="a_node11"><a xlink:href="vscode://vscode-remote/wsl+Ubuntu/home/gavin/statlib/Statlib/Variance/appendFin_measurePreserving.lean:36" xlink:title="lemma · Statlib/Variance/appendFin_measurePreserving.lean:36" target="_blank">
<path fill="#eef2f6" stroke="#94a3b8" d="M1178.76,-124C1178.76,-124 1047.24,-124 1047.24,-124 1041.24,-124 1035.24,-118 1035.24,-112 1035.24,-112 1035.24,-100 1035.24,-100 1035.24,-94 1041.24,-88 1047.24,-88 1047.24,-88 1178.76,-88 1178.76,-88 1184.76,-88 1190.76,-94 1190.76,-100 1190.76,-100 1190.76,-112 1190.76,-112 1190.76,-118 1184.76,-124 1178.76,-124"/>
<text xml:space="preserve" text-anchor="middle" x="1113" y="-103" font-family="Helvetica,sans-Serif" font-size="10.00">appendFin_measurePreserving</text>
</a>
</g>
</g>
<!-- n10&#45;&gt;n1 -->
<g id="edge12" class="edge">
<title>n10&#45;&gt;n1</title>
<path fill="none" stroke="#64748b" d="M1089.02,-87.7C1076.31,-78.53 1060.56,-67.16 1046.94,-57.33"/>
<polygon fill="#64748b" stroke="#64748b" points="1048.38,-55.34 1041.27,-53.23 1045.51,-59.32 1048.38,-55.34"/>
</g>
<!-- n11 -->
<g id="node12" class="node">
<title>n11</title>
<g id="a_node12"><a xlink:href="vscode://vscode-remote/wsl+Ubuntu/home/gavin/statlib/Statlib/Variance/integral_kernelProjection.lean:37" xlink:title="lemma · Statlib/Variance/integral_kernelProjection.lean:37" target="_blank">
<path fill="#eef2f6" stroke="#94a3b8" d="M1210.03,-196C1210.03,-196 1107.97,-196 1107.97,-196 1101.97,-196 1095.97,-190 1095.97,-184 1095.97,-184 1095.97,-172 1095.97,-172 1095.97,-166 1101.97,-160 1107.97,-160 1107.97,-160 1210.03,-160 1210.03,-160 1216.03,-160 1222.03,-166 1222.03,-172 1222.03,-172 1222.03,-184 1222.03,-184 1222.03,-190 1216.03,-196 1210.03,-196"/>
<text xml:space="preserve" text-anchor="middle" x="1159" y="-175" font-family="Helvetica,sans-Serif" font-size="10.00">integral_kernelProjection</text>
</a>
</g>
</g>
<!-- n11&#45;&gt;n1 -->
<g id="edge15" class="edge">
<title>n11&#45;&gt;n1</title>
<path fill="none" stroke="#64748b" d="M1177.26,-159.76C1194.97,-140.92 1216.88,-110.43 1200,-88 1182.71,-65.03 1104.77,-48.9 1056.04,-40.86"/>
<polygon fill="#64748b" stroke="#64748b" points="1056.69,-38.48 1049.38,-39.78 1055.91,-43.32 1056.69,-38.48"/>
</g>
<!-- n11&#45;&gt;n2 -->
<g id="edge13" class="edge">
<title>n11&#45;&gt;n2</title>
<path fill="none" stroke="#64748b" d="M1095.5,-161.98C1041.76,-149.27 965.65,-131.28 915.35,-119.38"/>
<polygon fill="#64748b" stroke="#64748b" points="916.04,-117.03 908.66,-117.8 914.91,-121.79 916.04,-117.03"/>
</g>
<!-- n11&#45;&gt;n10 -->
<g id="edge14" class="edge">
<title>n11&#45;&gt;n10</title>
<path fill="none" stroke="#64748b" d="M1147.63,-159.7C1141.95,-151.05 1134.98,-140.45 1128.79,-131.03"/>
<polygon fill="#64748b" stroke="#64748b" points="1130.96,-129.87 1125.07,-125.37 1126.87,-132.56 1130.96,-129.87"/>
</g>
<!-- n12 -->
<g id="node13" class="node">
<title>n12</title>
<g id="a_node13"><a xlink:href="vscode://vscode-remote/wsl+Ubuntu/home/gavin/statlib/Statlib/Variance/integral_hSub_mul_hSub.lean:57" xlink:title="axiom · Statlib/Variance/integral_hSub_mul_hSub.lean:57" target="_blank">
<path fill="#ffd6d6" stroke="#c0392b" d="M638.15,-268C638.15,-268 533.85,-268 533.85,-268 527.85,-268 521.85,-262 521.85,-256 521.85,-256 521.85,-244 521.85,-244 521.85,-238 527.85,-232 533.85,-232 533.85,-232 638.15,-232 638.15,-232 644.15,-232 650.15,-238 650.15,-244 650.15,-244 650.15,-256 650.15,-256 650.15,-262 644.15,-268 638.15,-268"/>
<text xml:space="preserve" text-anchor="middle" x="586" y="-247" font-family="Helvetica,sans-Serif" font-size="10.00">integral_hSub_mul_hSub</text>
</a>
</g>
</g>
<!-- n12&#45;&gt;n2 -->
<g id="edge18" class="edge">
<title>n12&#45;&gt;n2</title>
<path fill="none" stroke="#64748b" d="M607.26,-231.6C619.07,-221.6 633.8,-208.56 646,-196 660.51,-181.06 658.53,-171.35 676,-160 716.82,-133.48 771,-120.02 810.54,-113.32"/>
<polygon fill="#64748b" stroke="#64748b" points="810.73,-115.77 817.25,-112.24 809.94,-110.94 810.73,-115.77"/>
</g>
<!-- n12&#45;&gt;n4 -->
<g id="edge16" class="edge">
<title>n12&#45;&gt;n4</title>
<path fill="none" stroke="#64748b" d="M605.77,-231.77C625.34,-212.67 649.86,-181.69 631,-160 586.63,-108.99 373.29,-105.59 287.67,-106.34"/>
<polygon fill="#64748b" stroke="#64748b" points="287.8,-103.89 280.83,-106.41 287.85,-108.79 287.8,-103.89"/>
</g>
<!-- n12&#45;&gt;n5 -->
<g id="edge17" class="edge">
<title>n12&#45;&gt;n5</title>
<path fill="none" stroke="#64748b" d="M529.8,-231.52C487.81,-218.45 431.72,-201 395.97,-189.88"/>
<polygon fill="#64748b" stroke="#64748b" points="397.08,-187.66 389.67,-187.92 395.62,-192.34 397.08,-187.66"/>
</g>
<!-- n13 -->
<g id="node14" class="node">
<title>n13</title>
<g id="a_node14"><a xlink:href="vscode://vscode-remote/wsl+Ubuntu/home/gavin/statlib/Statlib/Variance/kernelProjection_measurable.lean:37" xlink:title="lemma · Statlib/Variance/kernelProjection_measurable.lean:37" target="_blank">
<path fill="#eef2f6" stroke="#94a3b8" d="M1025.76,-196C1025.76,-196 904.24,-196 904.24,-196 898.24,-196 892.24,-190 892.24,-184 892.24,-184 892.24,-172 892.24,-172 892.24,-166 898.24,-160 904.24,-160 904.24,-160 1025.76,-160 1025.76,-160 1031.76,-160 1037.76,-166 1037.76,-172 1037.76,-172 1037.76,-184 1037.76,-184 1037.76,-190 1031.76,-196 1025.76,-196"/>
<text xml:space="preserve" text-anchor="middle" x="965" y="-175" font-family="Helvetica,sans-Serif" font-size="10.00">kernelProjection_measurable</text>
</a>
</g>
</g>
<!-- n13&#45;&gt;n1 -->
<g id="edge20" class="edge">
<title>n13&#45;&gt;n1</title>
<path fill="none" stroke="#64748b" d="M971.25,-159.59C980.21,-134.65 996.74,-88.62 1007.01,-60.03"/>
<polygon fill="#64748b" stroke="#64748b" points="1009.28,-60.95 1009.34,-53.54 1004.67,-59.3 1009.28,-60.95"/>
</g>
<!-- n13&#45;&gt;n2 -->
<g id="edge19" class="edge">
<title>n13&#45;&gt;n2</title>
<path fill="none" stroke="#64748b" d="M939.52,-159.52C926.04,-150.26 909.34,-138.8 894.98,-128.95"/>
<polygon fill="#64748b" stroke="#64748b" points="896.56,-127.06 889.4,-125.12 893.78,-131.1 896.56,-127.06"/>
</g>
<!-- n13&#45;&gt;n10 -->
<g id="edge21" class="edge">
<title>n13&#45;&gt;n10</title>
<path fill="none" stroke="#64748b" d="M1001.96,-159.52C1022.17,-149.96 1047.34,-138.05 1068.61,-128"/>
<polygon fill="#64748b" stroke="#64748b" points="1069.6,-130.24 1074.88,-125.03 1067.51,-125.81 1069.6,-130.24"/>
</g>
<!-- n14 -->
<g id="node15" class="node">
<title>n14</title>
<g id="a_node15"><a xlink:href="vscode://vscode-remote/wsl+Ubuntu/home/gavin/statlib/Statlib/Variance/jensen_sq_integral_le.lean:53" xlink:title="lemma · Statlib/Variance/jensen_sq_integral_le.lean:53" target="_blank">
<path fill="#eef2f6" stroke="#94a3b8" d="M801.65,-196C801.65,-196 712.35,-196 712.35,-196 706.35,-196 700.35,-190 700.35,-184 700.35,-184 700.35,-172 700.35,-172 700.35,-166 706.35,-160 712.35,-160 712.35,-160 801.65,-160 801.65,-160 807.65,-160 813.65,-166 813.65,-172 813.65,-172 813.65,-184 813.65,-184 813.65,-190 807.65,-196 801.65,-196"/>
<text xml:space="preserve" text-anchor="middle" x="757" y="-175" font-family="Helvetica,sans-Serif" font-size="10.00">jensen_sq_integral_le</text>
</a>
</g>
</g>
<!-- n15 -->
<g id="node16" class="node">
<title>n15</title>
<g id="a_node16"><a xlink:href="vscode://vscode-remote/wsl+Ubuntu/home/gavin/statlib/Statlib/Variance/kernelProjection_memLp2.lean:39" xlink:title="lemma · Statlib/Variance/kernelProjection_memLp2.lean:39" target="_blank">
<path fill="#eef2f6" stroke="#94a3b8" d="M808.09,-268C808.09,-268 699.91,-268 699.91,-268 693.91,-268 687.91,-262 687.91,-256 687.91,-256 687.91,-244 687.91,-244 687.91,-238 693.91,-232 699.91,-232 699.91,-232 808.09,-232 808.09,-232 814.09,-232 820.09,-238 820.09,-244 820.09,-244 820.09,-256 820.09,-256 820.09,-262 814.09,-268 808.09,-268"/>
<text xml:space="preserve" text-anchor="middle" x="754" y="-247" font-family="Helvetica,sans-Serif" font-size="10.00">kernelProjection_memLp2</text>
</a>
</g>
</g>
<!-- n15&#45;&gt;n1 -->
<g id="edge24" class="edge">
<title>n15&#45;&gt;n1</title>
<path fill="none" stroke="#64748b" d="M820.48,-232.92C822,-232.61 823.51,-232.3 825,-232 874,-222.17 1014.61,-234.06 1047,-196 1068.6,-170.61 1036.48,-155.64 1026,-124 1019.15,-103.33 1016.8,-78.63 1016.08,-60.5"/>
<polygon fill="#64748b" stroke="#64748b" points="1018.53,-60.62 1015.89,-53.69 1013.64,-60.76 1018.53,-60.62"/>
</g>
<!-- n15&#45;&gt;n2 -->
<g id="edge22" class="edge">
<title>n15&#45;&gt;n2</title>
<path fill="none" stroke="#64748b" d="M782.9,-231.59C796.42,-222.33 811.94,-209.98 823,-196 838.1,-176.9 848.86,-151.19 855.38,-132.32"/>
<polygon fill="#64748b" stroke="#64748b" points="857.64,-133.28 857.53,-125.87 852.99,-131.74 857.64,-133.28"/>
</g>
<!-- n15&#45;&gt;n10 -->
<g id="edge23" class="edge">
<title>n15&#45;&gt;n10</title>
<path fill="none" stroke="#64748b" d="M820.3,-234.63C824.93,-233.71 829.53,-232.83 834,-232 934.88,-213.33 977.53,-254.22 1062,-196 1068.01,-191.86 1087.26,-156.48 1100.31,-131.6"/>
<polygon fill="#64748b" stroke="#64748b" points="1102.37,-132.94 1103.44,-125.6 1098.03,-130.68 1102.37,-132.94"/>
</g>
<!-- n15&#45;&gt;n13 -->
<g id="edge25" class="edge">
<title>n15&#45;&gt;n13</title>
<path fill="none" stroke="#64748b" d="M806.7,-231.52C836.52,-221.62 873.92,-209.22 904.88,-198.94"/>
<polygon fill="#64748b" stroke="#64748b" points="905.3,-201.39 911.17,-196.86 903.75,-196.74 905.3,-201.39"/>
</g>
<!-- n15&#45;&gt;n14 -->
<g id="edge26" class="edge">
<title>n15&#45;&gt;n14</title>
<path fill="none" stroke="#64748b" d="M754.74,-231.7C755.09,-223.47 755.52,-213.48 755.91,-204.42"/>
<polygon fill="#64748b" stroke="#64748b" points="758.35,-204.72 756.2,-197.62 753.45,-204.51 758.35,-204.72"/>
</g>
<!-- n16 -->
<g id="node17" class="node">
<title>n16</title>
<g id="a_node17"><a xlink:href="vscode://vscode-remote/wsl+Ubuntu/home/gavin/statlib/Statlib/Variance/cov_hSub_eq_uZeta.lean:46" xlink:title="theorem · Statlib/Variance/cov_hSub_eq_uZeta.lean:46" target="_blank">
<path fill="#ffe6a3" stroke="#d4a017" d="M541.15,-340C541.15,-340 456.85,-340 456.85,-340 450.85,-340 444.85,-334 444.85,-328 444.85,-328 444.85,-316 444.85,-316 444.85,-310 450.85,-304 456.85,-304 456.85,-304 541.15,-304 541.15,-304 547.15,-304 553.15,-310 553.15,-316 553.15,-316 553.15,-328 553.15,-328 553.15,-334 547.15,-340 541.15,-340"/>
<text xml:space="preserve" text-anchor="middle" x="499" y="-319" font-family="Helvetica,sans-Serif" font-size="10.00">cov_hSub_eq_uZeta</text>
</a>
</g>
</g>
<!-- n16&#45;&gt;n2 -->
<g id="edge32" class="edge">
<title>n16&#45;&gt;n2</title>
<path fill="none" stroke="#64748b" d="M553.64,-315.76C588.2,-309.66 631.41,-296.48 659,-268 693.83,-232.04 655.79,-195.59 691,-160 722.46,-128.2 772.53,-115.39 810.55,-110.28"/>
<polygon fill="#64748b" stroke="#64748b" points="810.81,-112.71 817.46,-109.43 810.21,-107.85 810.81,-112.71"/>
</g>
<!-- n16&#45;&gt;n3 -->
<g id="edge29" class="edge">
<title>n16&#45;&gt;n3</title>
<path fill="none" stroke="#64748b" d="M553.5,-311.84C569.15,-309.25 586.24,-306.47 602,-304 709.42,-287.15 739.21,-297.04 844,-268 845.95,-267.46 847.93,-266.85 849.91,-266.2"/>
<polygon fill="#64748b" stroke="#64748b" points="850.35,-268.64 856.11,-263.98 848.69,-264.03 850.35,-268.64"/>
</g>
<!-- n16&#45;&gt;n4 -->
<g id="edge27" class="edge">
<title>n16&#45;&gt;n4</title>
<path fill="none" stroke="#64748b" d="M458.68,-303.59C443.37,-295.02 427.19,-283.21 417,-268 389.84,-227.44 428.51,-197.28 397,-160 369.64,-127.64 320.77,-115.03 287.4,-110.13"/>
<polygon fill="#64748b" stroke="#64748b" points="288.03,-107.74 280.77,-109.24 287.38,-112.6 288.03,-107.74"/>
</g>
<!-- n16&#45;&gt;n5 -->
<g id="edge28" class="edge">
<title>n16&#45;&gt;n5</title>
<path fill="none" stroke="#64748b" d="M453.41,-303.53C435.62,-294.95 416.15,-283.15 402,-268 385.11,-249.91 374.18,-223.64 367.88,-204.33"/>
<polygon fill="#64748b" stroke="#64748b" points="370.24,-203.67 365.84,-197.71 365.56,-205.12 370.24,-203.67"/>
</g>
<!-- n16&#45;&gt;n7 -->
<g id="edge30" class="edge">
<title>n16&#45;&gt;n7</title>
<path fill="none" stroke="#64748b" d="M446.55,-303.52C412.7,-292.23 369.02,-277.67 336.25,-266.75"/>
<polygon fill="#64748b" stroke="#64748b" points="337.44,-264.56 330.02,-264.67 335.89,-269.21 337.44,-264.56"/>
</g>
<!-- n16&#45;&gt;n9 -->
<g id="edge31" class="edge">
<title>n16&#45;&gt;n9</title>
<path fill="none" stroke="#64748b" d="M490.6,-303.7C486.48,-295.22 481.45,-284.86 476.94,-275.58"/>
<polygon fill="#64748b" stroke="#64748b" points="479.23,-274.69 473.97,-269.47 474.82,-276.83 479.23,-274.69"/>
</g>
<!-- n16&#45;&gt;n11 -->
<g id="edge33" class="edge">
<title>n16&#45;&gt;n11</title>
<path fill="none" stroke="#64748b" d="M553.46,-312.87C645.72,-299.02 823.38,-271.94 829,-268 843.99,-257.49 834,-242.48 849,-232 933.46,-172.99 976.66,-214.59 1078,-196 1081.17,-195.42 1084.4,-194.81 1087.67,-194.18"/>
<polygon fill="#64748b" stroke="#64748b" points="1087.94,-196.62 1094.34,-192.87 1087,-191.81 1087.94,-196.62"/>
</g>
<!-- n16&#45;&gt;n12 -->
<g id="edge34" class="edge">
<title>n16&#45;&gt;n12</title>
<path fill="none" stroke="#64748b" d="M520.51,-303.7C531.8,-294.61 545.78,-283.36 557.91,-273.6"/>
<polygon fill="#64748b" stroke="#64748b" points="559.34,-275.59 563.26,-269.3 556.27,-271.78 559.34,-275.59"/>
</g>
<!-- n16&#45;&gt;n15 -->
<g id="edge35" class="edge">
<title>n16&#45;&gt;n15</title>
<path fill="none" stroke="#64748b" d="M553.39,-306.07C591.1,-295.72 641.7,-281.83 682.64,-270.59"/>
<polygon fill="#64748b" stroke="#64748b" points="683.14,-272.99 689.24,-268.78 681.84,-268.27 683.14,-272.99"/>
</g>
<!-- n17 -->
<g id="node18" class="node">
<title>n17</title>
<g id="a_node18"><a xlink:href="vscode://vscode-remote/wsl+Ubuntu/home/gavin/statlib/Statlib/Variance/PSElem_sum_eq.lean:34" xlink:title="lemma · Statlib/Variance/PSElem_sum_eq.lean:34" target="_blank">
<path fill="#eef2f6" stroke="#94a3b8" d="M157.63,-196C157.63,-196 88.37,-196 88.37,-196 82.37,-196 76.37,-190 76.37,-184 76.37,-184 76.37,-172 76.37,-172 76.37,-166 82.37,-160 88.37,-160 88.37,-160 157.63,-160 157.63,-160 163.63,-160 169.63,-166 169.63,-172 169.63,-172 169.63,-184 169.63,-184 169.63,-190 163.63,-196 157.63,-196"/>
<text xml:space="preserve" text-anchor="middle" x="123" y="-175" font-family="Helvetica,sans-Serif" font-size="10.00">PSElem_sum_eq</text>
</a>
</g>
</g>
<!-- n17&#45;&gt;n4 -->
<g id="edge36" class="edge">
<title>n17&#45;&gt;n4</title>
<path fill="none" stroke="#64748b" d="M155.22,-159.52C174.06,-149.29 197.86,-136.38 217.14,-125.92"/>
<polygon fill="#64748b" stroke="#64748b" points="218.24,-128.11 223.22,-122.62 215.9,-123.8 218.24,-128.11"/>
</g>
<!-- n18 -->
<g id="node19" class="node">
<title>n18</title>
<g id="a_node19"><a xlink:href="vscode://vscode-remote/wsl+Ubuntu/home/gavin/statlib/Statlib/Variance/fiber_card_fixed.lean:33" xlink:title="lemma · Statlib/Variance/fiber_card_fixed.lean:33" target="_blank">
<path fill="#eef2f6" stroke="#94a3b8" d="M283.58,-196C283.58,-196 220.42,-196 220.42,-196 214.42,-196 208.42,-190 208.42,-184 208.42,-184 208.42,-172 208.42,-172 208.42,-166 214.42,-160 220.42,-160 220.42,-160 283.58,-160 283.58,-160 289.58,-160 295.58,-166 295.58,-172 295.58,-172 295.58,-184 295.58,-184 295.58,-190 289.58,-196 283.58,-196"/>
<text xml:space="preserve" text-anchor="middle" x="252" y="-175" font-family="Helvetica,sans-Serif" font-size="10.00">fiber_card_fixed</text>
</a>
</g>
</g>
<!-- n19 -->
<g id="node20" class="node">
<title>n19</title>
<g id="a_node20"><a xlink:href="vscode://vscode-remote/wsl+Ubuntu/home/gavin/statlib/Statlib/Variance/inner_sum_by_fiber.lean:36" xlink:title="lemma · Statlib/Variance/inner_sum_by_fiber.lean:36" target="_blank">
<path fill="#eef2f6" stroke="#94a3b8" d="M167.91,-268C167.91,-268 88.09,-268 88.09,-268 82.09,-268 76.09,-262 76.09,-256 76.09,-256 76.09,-244 76.09,-244 76.09,-238 82.09,-232 88.09,-232 88.09,-232 167.91,-232 167.91,-232 173.91,-232 179.91,-238 179.91,-244 179.91,-244 179.91,-256 179.91,-256 179.91,-262 173.91,-268 167.91,-268"/>
<text xml:space="preserve" text-anchor="middle" x="128" y="-247" font-family="Helvetica,sans-Serif" font-size="10.00">inner_sum_by_fiber</text>
</a>
</g>
</g>
<!-- n19&#45;&gt;n4 -->
<g id="edge37" class="edge">
<title>n19&#45;&gt;n4</title>
<path fill="none" stroke="#64748b" d="M146.7,-231.89C156.93,-221.98 169.43,-208.94 179,-196 189.88,-181.28 187.98,-174.61 199,-160 206.89,-149.53 216.78,-139.1 225.88,-130.29"/>
<polygon fill="#64748b" stroke="#64748b" points="227.52,-132.1 230.91,-125.51 224.15,-128.55 227.52,-132.1"/>
</g>
<!-- n19&#45;&gt;n17 -->
<g id="edge38" class="edge">
<title>n19&#45;&gt;n17</title>
<path fill="none" stroke="#64748b" d="M126.76,-231.7C126.18,-223.47 125.46,-213.48 124.82,-204.42"/>
<polygon fill="#64748b" stroke="#64748b" points="127.27,-204.42 124.33,-197.61 122.38,-204.77 127.27,-204.42"/>
</g>
<!-- n19&#45;&gt;n18 -->
<g id="edge39" class="edge">
<title>n19&#45;&gt;n18</title>
<path fill="none" stroke="#64748b" d="M158.97,-231.52C175.67,-222.09 196.41,-210.38 214.07,-200.41"/>
<polygon fill="#64748b" stroke="#64748b" points="215.21,-202.58 220.11,-197 212.81,-198.31 215.21,-202.58"/>
</g>
<!-- n20 -->
<g id="node21" class="node">
<title>n20</title>
<g id="a_node21"><a xlink:href="vscode://vscode-remote/wsl+Ubuntu/home/gavin/statlib/Statlib/Variance/uZeta_zero.lean:35" xlink:title="lemma · Statlib/Variance/uZeta_zero.lean:35" target="_blank">
<path fill="#eef2f6" stroke="#94a3b8" d="M906.29,-340C906.29,-340 863.71,-340 863.71,-340 857.71,-340 851.71,-334 851.71,-328 851.71,-328 851.71,-316 851.71,-316 851.71,-310 857.71,-304 863.71,-304 863.71,-304 906.29,-304 906.29,-304 912.29,-304 918.29,-310 918.29,-316 918.29,-316 918.29,-328 918.29,-328 918.29,-334 912.29,-340 906.29,-340"/>
<text xml:space="preserve" text-anchor="middle" x="885" y="-319" font-family="Helvetica,sans-Serif" font-size="10.00">uZeta_zero</text>
</a>
</g>
</g>
<!-- n20&#45;&gt;n2 -->
<g id="edge41" class="edge">
<title>n20&#45;&gt;n2</title>
<path fill="none" stroke="#64748b" d="M900.61,-303.77C908.37,-294.03 916.95,-281.18 921,-268 925.7,-252.71 927.32,-246.7 921,-232 911.81,-210.63 894.49,-216.23 883,-196 871.92,-176.51 866.98,-151.35 864.78,-132.76"/>
<polygon fill="#64748b" stroke="#64748b" points="867.23,-132.69 864.08,-125.98 862.36,-133.19 867.23,-132.69"/>
</g>
<!-- n20&#45;&gt;n3 -->
<g id="edge40" class="edge">
<title>n20&#45;&gt;n3</title>
<path fill="none" stroke="#64748b" d="M885,-303.7C885,-295.47 885,-285.48 885,-276.42"/>
<polygon fill="#64748b" stroke="#64748b" points="887.45,-276.62 885,-269.62 882.55,-276.62 887.45,-276.62"/>
</g>
<!-- n21 -->
<g id="node22" class="node">
<title>n21</title>
<g id="a_node22"><a xlink:href="vscode://vscode-remote/wsl+Ubuntu/home/gavin/statlib/Statlib/Variance/sum_sum_cov_eq.lean:44" xlink:title="lemma · Statlib/Variance/sum_sum_cov_eq.lean:44" target="_blank">
<path fill="#eef2f6" stroke="#94a3b8" d="M451.58,-412C451.58,-412 378.42,-412 378.42,-412 372.42,-412 366.42,-406 366.42,-400 366.42,-400 366.42,-388 366.42,-388 366.42,-382 372.42,-376 378.42,-376 378.42,-376 451.58,-376 451.58,-376 457.58,-376 463.58,-382 463.58,-388 463.58,-388 463.58,-400 463.58,-400 463.58,-406 457.58,-412 451.58,-412"/>
<text xml:space="preserve" text-anchor="middle" x="415" y="-391" font-family="Helvetica,sans-Serif" font-size="10.00">sum_sum_cov_eq</text>
</a>
</g>
</g>
<!-- n21&#45;&gt;n3 -->
<g id="edge44" class="edge">
<title>n21&#45;&gt;n3</title>
<path fill="none" stroke="#64748b" d="M463.8,-380.65C543.98,-359.94 708.25,-315.76 844,-268 845.97,-267.31 847.99,-266.57 850.01,-265.8"/>
<polygon fill="#64748b" stroke="#64748b" points="850.77,-268.14 856.4,-263.31 848.99,-263.57 850.77,-268.14"/>
</g>
<!-- n21&#45;&gt;n4 -->
<g id="edge42" class="edge">
<title>n21&#45;&gt;n4</title>
<path fill="none" stroke="#64748b" d="M366.31,-381.37C329.19,-371.9 277.12,-357.29 233,-340 199.69,-326.95 193.74,-318.42 161,-304 120.06,-285.97 92.35,-304.86 67,-268 39.8,-228.45 38.11,-198.33 67,-160 84.93,-136.22 167.62,-119.85 216.17,-112.11"/>
<polygon fill="#64748b" stroke="#64748b" points="216.49,-114.54 223.03,-111.04 215.73,-109.7 216.49,-114.54"/>
</g>
<!-- n21&#45;&gt;n5 -->
<g id="edge43" class="edge">
<title>n21&#45;&gt;n5</title>
<path fill="none" stroke="#64748b" d="M408.58,-375.85C399.87,-351.97 384.31,-307.24 375,-268 369.97,-246.81 366.27,-222.35 363.94,-204.44"/>
<polygon fill="#64748b" stroke="#64748b" points="366.4,-204.36 363.1,-197.72 361.54,-204.97 366.4,-204.36"/>
</g>
<!-- n21&#45;&gt;n16 -->
<g id="edge45" class="edge">
<title>n21&#45;&gt;n16</title>
<path fill="none" stroke="#64748b" d="M435.76,-375.7C446.67,-366.61 460.16,-355.36 471.88,-345.6"/>
<polygon fill="#64748b" stroke="#64748b" points="473.21,-347.68 477.02,-341.32 470.07,-343.92 473.21,-347.68"/>
</g>
<!-- n21&#45;&gt;n19 -->
<g id="edge46" class="edge">
<title>n21&#45;&gt;n19</title>
<path fill="none" stroke="#64748b" d="M379.81,-375.59C326.95,-349.43 227.21,-300.09 170.41,-271.98"/>
<polygon fill="#64748b" stroke="#64748b" points="171.75,-269.91 164.39,-269 169.57,-274.3 171.75,-269.91"/>
</g>
<!-- n21&#45;&gt;n20 -->
<g id="edge47" class="edge">
<title>n21&#45;&gt;n20</title>
<path fill="none" stroke="#64748b" d="M463.97,-385.71C556.58,-371.91 755.88,-342.23 842.9,-329.27"/>
<polygon fill="#64748b" stroke="#64748b" points="843.15,-331.71 849.72,-328.25 842.43,-326.86 843.15,-331.71"/>
</g>
<!-- n22 -->
<g id="node23" class="node">
<title>n22</title>
<g id="a_node23"><a xlink:href="vscode://vscode-remote/wsl+Ubuntu/home/gavin/statlib/Statlib/Variance/u_statistic_variance_decomposition.lean:56" xlink:title="theorem · Statlib/Variance/u_statistic_variance_decomposition.lean:56" target="_blank">
<path fill="#ffe6a3" stroke="#d4a017" stroke-width="3" d="M363.93,-484C363.93,-484 214.07,-484 214.07,-484 208.07,-484 202.07,-478 202.07,-472 202.07,-472 202.07,-460 202.07,-460 202.07,-454 208.07,-448 214.07,-448 214.07,-448 363.93,-448 363.93,-448 369.93,-448 375.93,-454 375.93,-460 375.93,-460 375.93,-472 375.93,-472 375.93,-478 369.93,-484 363.93,-484"/>
<text xml:space="preserve" text-anchor="middle" x="289" y="-463" font-family="Helvetica,sans-Serif" font-size="10.00">u_statistic_variance_decomposition</text>
</a>
</g>
</g>
<!-- n22&#45;&gt;n0 -->
<g id="edge48" class="edge">
<title>n22&#45;&gt;n0</title>
<path fill="none" stroke="#64748b" d="M200.74,-458.92C133.48,-452.23 48.82,-438.67 27,-412 12.32,-394.05 20.18,-367.26 29.5,-347.76"/>
<polygon fill="#64748b" stroke="#64748b" points="31.56,-349.12 32.55,-341.77 27.19,-346.89 31.56,-349.12"/>
</g>
<!-- n22&#45;&gt;n3 -->
<g id="edge49" class="edge">
<title>n22&#45;&gt;n3</title>
<path fill="none" stroke="#64748b" d="M356.12,-446.61C391.1,-436.79 434.51,-424.23 473,-412 565.83,-382.51 589.26,-375.42 680,-340 740.48,-316.39 809.49,-285.62 850.03,-267.13"/>
<polygon fill="#64748b" stroke="#64748b" points="851.03,-269.37 856.37,-264.24 848.99,-264.92 851.03,-269.37"/>
</g>
<!-- n22&#45;&gt;n4 -->
<g id="edge51" class="edge">
<title>n22&#45;&gt;n4</title>
<path fill="none" stroke="#64748b" d="M267.21,-446.57C231.3,-416.32 157.25,-354.44 93,-304 72.03,-287.53 57.09,-291.77 45,-268 34.12,-246.61 29.27,-178.95 44,-160 65,-132.98 162.94,-117.45 216.6,-110.83"/>
<polygon fill="#64748b" stroke="#64748b" points="216.66,-113.29 223.31,-110.02 216.07,-108.43 216.66,-113.29"/>
</g>
<!-- n22&#45;&gt;n5 -->
<g id="edge52" class="edge">
<title>n22&#45;&gt;n5</title>
<path fill="none" stroke="#64748b" d="M293.61,-446.67C306.04,-397.3 340.25,-261.42 354.57,-204.55"/>
<polygon fill="#64748b" stroke="#64748b" points="356.91,-205.3 356.24,-197.91 352.15,-204.1 356.91,-205.3"/>
</g>
<!-- n22&#45;&gt;n6 -->
<g id="edge50" class="edge">
<title>n22&#45;&gt;n6</title>
<path fill="none" stroke="#64748b" d="M239.08,-446.61C212.96,-436.99 180.92,-425.18 154.08,-415.29"/>
<polygon fill="#64748b" stroke="#64748b" points="155.13,-413.07 147.72,-412.95 153.44,-417.67 155.13,-413.07"/>
</g>
<!-- n22&#45;&gt;n7 -->
<g id="edge53" class="edge">
<title>n22&#45;&gt;n7</title>
<path fill="none" stroke="#64748b" d="M289,-446.75C289,-408.65 289,-320.51 289,-276.69"/>
<polygon fill="#64748b" stroke="#64748b" points="291.45,-276.81 289,-269.81 286.55,-276.81 291.45,-276.81"/>
</g>
<!-- n22&#45;&gt;n21 -->
<g id="edge54" class="edge">
<title>n22&#45;&gt;n21</title>
<path fill="none" stroke="#64748b" d="M322.11,-446.61C338.82,-437.32 359.19,-426.01 376.59,-416.34"/>
<polygon fill="#64748b" stroke="#64748b" points="377.6,-418.58 382.53,-413.04 375.22,-414.3 377.6,-418.58"/>
</g>
</g>
</svg>
