<?xml version="1.0" encoding="UTF-8" standalone="no"?>
<!DOCTYPE svg PUBLIC "-//W3C//DTD SVG 1.1//EN"
 "http://www.w3.org/Graphics/SVG/1.1/DTD/svg11.dtd">
<!-- Generated by graphviz version 15.0.0 (20260523.1842)
 -->
<!-- Title: expfamily_umvue Pages: 1 -->
<svg width="841pt" height="492pt"
 viewBox="0.00 0.00 841.00 492.00" xmlns="http://www.w3.org/2000/svg" xmlns:xlink="http://www.w3.org/1999/xlink">
<g id="graph0" class="graph" transform="scale(1 1) rotate(0) translate(4 488.4)">
<title>expfamily_umvue</title>
<polygon fill="white" stroke="none" points="-4,4 -4,-488.4 837,-488.4 837,4 -4,4"/>
<text xml:space="preserve" text-anchor="middle" x="416.5" y="-467.8" font-family="Helvetica,sans-Serif" font-size="14.00">Proof narrative — expfamily_umvue &#160;(12 decls)</text>
<g id="clust1" class="cluster">
<title>cluster_0</title>
<path fill="none" stroke="#cbd5e1" stroke-dasharray="5,2" d="M20,-161.2C20,-161.2 164,-161.2 164,-161.2 170,-161.2 176,-167.2 176,-173.2 176,-173.2 176,-439.6 176,-439.6 176,-445.6 170,-451.6 164,-451.6 164,-451.6 20,-451.6 20,-451.6 14,-451.6 8,-445.6 8,-439.6 8,-439.6 8,-173.2 8,-173.2 8,-167.2 14,-161.2 20,-161.2"/>
<text xml:space="preserve" text-anchor="middle" x="92" y="-437.7" font-family="Helvetica,sans-Serif" font-size="11.00">Estimator</text>
</g>
<g id="clust2" class="cluster">
<title>cluster_1</title>
<path fill="none" stroke="#cbd5e1" stroke-dasharray="5,2" d="M226,-8C226,-8 455,-8 455,-8 461,-8 467,-14 467,-20 467,-20 467,-141.2 467,-141.2 467,-147.2 461,-153.2 455,-153.2 455,-153.2 226,-153.2 226,-153.2 220,-153.2 214,-147.2 214,-141.2 214,-141.2 214,-20 214,-20 214,-14 220,-8 226,-8"/>
<text xml:space="preserve" text-anchor="middle" x="340.5" y="-139.3" font-family="Helvetica,sans-Serif" font-size="11.00">Statistic</text>
</g>
<g id="clust3" class="cluster">
<title>cluster_2</title>
<path fill="none" stroke="#cbd5e1" stroke-dasharray="5,2" d="M378,-161.2C378,-161.2 813,-161.2 813,-161.2 819,-161.2 825,-167.2 825,-173.2 825,-173.2 825,-294.4 825,-294.4 825,-300.4 819,-306.4 813,-306.4 813,-306.4 378,-306.4 378,-306.4 372,-306.4 366,-300.4 366,-294.4 366,-294.4 366,-173.2 366,-173.2 366,-167.2 372,-161.2 378,-161.2"/>
<text xml:space="preserve" text-anchor="middle" x="595.5" y="-292.5" font-family="Helvetica,sans-Serif" font-size="11.00">Sufficiency</text>
</g>
<!-- n2 -->
<g id="node1" class="node">
<title>n2</title>
<g id="a_node1"><a xlink:href="vscode://vscode-remote/wsl+Ubuntu/home/gavin/statlib/Statlib/Estimator/Basic.lean:176" xlink:title="noncomputable def · Statlib/Estimator/Basic.lean:176" target="_blank">
<path fill="#d6e9ff" stroke="#3b82f6" d="M116,-205.2C116,-205.2 86,-205.2 86,-205.2 80,-205.2 74,-199.2 74,-193.2 74,-193.2 74,-181.2 74,-181.2 74,-175.2 80,-169.2 86,-169.2 86,-169.2 116,-169.2 116,-169.2 122,-169.2 128,-175.2 128,-181.2 128,-181.2 128,-193.2 128,-193.2 128,-199.2 122,-205.2 116,-205.2"/>
<text xml:space="preserve" text-anchor="middle" x="101" y="-184.2" font-family="Helvetica,sans-Serif" font-size="10.00">MSE</text>
</a>
</g>
</g>
<!-- n0 -->
<g id="node5" class="node">
<title>n0</title>
<g id="a_node5"><a xlink:href="vscode://vscode-remote/wsl+Ubuntu/home/gavin/statlib/Statlib/Statistic/Basic.lean:64" xlink:title="structure · Statlib/Statistic/Basic.lean:64" target="_blank">
<path fill="#e8dcff" stroke="#8b5cf6" d="M338.89,-52C338.89,-52 269.11,-52 269.11,-52 263.11,-52 257.11,-46 257.11,-40 257.11,-40 257.11,-28 257.11,-28 257.11,-22 263.11,-16 269.11,-16 269.11,-16 338.89,-16 338.89,-16 344.89,-16 350.89,-22 350.89,-28 350.89,-28 350.89,-40 350.89,-40 350.89,-46 344.89,-52 338.89,-52"/>
<text xml:space="preserve" text-anchor="middle" x="304" y="-31" font-family="Helvetica,sans-Serif" font-size="10.00">ParametricFamily</text>
</a>
</g>
</g>
<!-- n2&#45;&gt;n0 -->
<g id="edge2" class="edge">
<title>n2&#45;&gt;n0</title>
<path fill="none" stroke="#64748b" d="M103.73,-168.76C108.05,-146.91 118.52,-109.69 142,-88 171.18,-61.05 214.3,-47.79 248.72,-41.27"/>
<polygon fill="#64748b" stroke="#64748b" points="248.87,-43.73 255.33,-40.1 248.01,-38.91 248.87,-43.73"/>
</g>
<!-- n3 -->
<g id="node2" class="node">
<title>n3</title>
<g id="a_node2"><a xlink:href="vscode://vscode-remote/wsl+Ubuntu/home/gavin/statlib/Statlib/Estimator/Basic.lean:327" xlink:title="def · Statlib/Estimator/Basic.lean:327" target="_blank">
<path fill="#d6e9ff" stroke="#3b82f6" d="M129.95,-277.2C129.95,-277.2 94.05,-277.2 94.05,-277.2 88.05,-277.2 82.05,-271.2 82.05,-265.2 82.05,-265.2 82.05,-253.2 82.05,-253.2 82.05,-247.2 88.05,-241.2 94.05,-241.2 94.05,-241.2 129.95,-241.2 129.95,-241.2 135.95,-241.2 141.95,-247.2 141.95,-253.2 141.95,-253.2 141.95,-265.2 141.95,-265.2 141.95,-271.2 135.95,-277.2 129.95,-277.2"/>
<text xml:space="preserve" text-anchor="middle" x="112" y="-256.2" font-family="Helvetica,sans-Serif" font-size="10.00">IsUMVUE</text>
</a>
</g>
</g>
<!-- n3&#45;&gt;n2 -->
<g id="edge5" class="edge">
<title>n3&#45;&gt;n2</title>
<path fill="none" stroke="#64748b" d="M109.28,-240.9C107.99,-232.67 106.42,-222.68 104.99,-213.62"/>
<polygon fill="#64748b" stroke="#64748b" points="107.43,-213.33 103.92,-206.8 102.59,-214.1 107.43,-213.33"/>
</g>
<!-- n3&#45;&gt;n0 -->
<g id="edge3" class="edge">
<title>n3&#45;&gt;n0</title>
<path fill="none" stroke="#64748b" d="M120.46,-240.72C140.96,-198.5 192.02,-93.96 198,-88 212.29,-73.77 231.17,-62.67 249.04,-54.39"/>
<polygon fill="#64748b" stroke="#64748b" points="249.84,-56.71 255.23,-51.62 247.84,-52.24 249.84,-56.71"/>
</g>
<!-- n1 -->
<g id="node6" class="node">
<title>n1</title>
<g id="a_node6"><a xlink:href="vscode://vscode-remote/wsl+Ubuntu/home/gavin/statlib/Statlib/Statistic/Basic.lean:93" xlink:title="def · Statlib/Statistic/Basic.lean:93" target="_blank">
<path fill="#d6e9ff" stroke="#3b82f6" d="M276.01,-124C276.01,-124 233.99,-124 233.99,-124 227.99,-124 221.99,-118 221.99,-112 221.99,-112 221.99,-100 221.99,-100 221.99,-94 227.99,-88 233.99,-88 233.99,-88 276.01,-88 276.01,-88 282.01,-88 288.01,-94 288.01,-100 288.01,-100 288.01,-112 288.01,-112 288.01,-118 282.01,-124 276.01,-124"/>
<text xml:space="preserve" text-anchor="middle" x="255" y="-103" font-family="Helvetica,sans-Serif" font-size="10.00">IsUnbiased</text>
</a>
</g>
</g>
<!-- n3&#45;&gt;n1 -->
<g id="edge4" class="edge">
<title>n3&#45;&gt;n1</title>
<path fill="none" stroke="#64748b" d="M132.14,-240.85C143.55,-230.75 157.92,-217.61 170,-205.2 193.74,-180.81 219.03,-151.05 235.8,-130.72"/>
<polygon fill="#64748b" stroke="#64748b" points="237.63,-132.35 240.18,-125.38 233.84,-129.24 237.63,-132.35"/>
</g>
<!-- n10 -->
<g id="node3" class="node">
<title>n10</title>
<g id="a_node3"><a xlink:href="vscode://vscode-remote/wsl+Ubuntu/home/gavin/statlib/Statlib/Estimator/rao_blackwell_umvue.lean:16" xlink:title="theorem · Statlib/Estimator/rao_blackwell_umvue.lean:16" target="_blank">
<path fill="#ffe6a3" stroke="#d4a017" d="M156.08,-350.4C156.08,-350.4 67.92,-350.4 67.92,-350.4 61.92,-350.4 55.92,-344.4 55.92,-338.4 55.92,-338.4 55.92,-326.4 55.92,-326.4 55.92,-320.4 61.92,-314.4 67.92,-314.4 67.92,-314.4 156.08,-314.4 156.08,-314.4 162.08,-314.4 168.08,-320.4 168.08,-326.4 168.08,-326.4 168.08,-338.4 168.08,-338.4 168.08,-344.4 162.08,-350.4 156.08,-350.4"/>
<text xml:space="preserve" text-anchor="middle" x="112" y="-329.4" font-family="Helvetica,sans-Serif" font-size="10.00">rao_blackwell_umvue</text>
</a>
</g>
</g>
<!-- n10&#45;&gt;n3 -->
<g id="edge19" class="edge">
<title>n10&#45;&gt;n3</title>
<path fill="none" stroke="#64748b" d="M112,-314.16C112,-305.59 112,-295.07 112,-285.59"/>
<polygon fill="#64748b" stroke="#64748b" points="114.45,-285.79 112,-278.79 109.55,-285.79 114.45,-285.79"/>
</g>
<!-- n9 -->
<g id="node12" class="node">
<title>n9</title>
<g id="a_node12"><a xlink:href="vscode://vscode-remote/wsl+Ubuntu/home/gavin/statlib/Statlib/Sufficiency/lehmann_scheffe.lean:29" xlink:title="theorem · Statlib/Sufficiency/lehmann_scheffe.lean:29" target="_blank">
<path fill="#ffe6a3" stroke="#d4a017" d="M454.08,-277.2C454.08,-277.2 385.92,-277.2 385.92,-277.2 379.92,-277.2 373.92,-271.2 373.92,-265.2 373.92,-265.2 373.92,-253.2 373.92,-253.2 373.92,-247.2 379.92,-241.2 385.92,-241.2 385.92,-241.2 454.08,-241.2 454.08,-241.2 460.08,-241.2 466.08,-247.2 466.08,-253.2 466.08,-253.2 466.08,-265.2 466.08,-265.2 466.08,-271.2 460.08,-277.2 454.08,-277.2"/>
<text xml:space="preserve" text-anchor="middle" x="420" y="-256.2" font-family="Helvetica,sans-Serif" font-size="10.00">lehmann_scheffe</text>
</a>
</g>
</g>
<!-- n10&#45;&gt;n9 -->
<g id="edge20" class="edge">
<title>n10&#45;&gt;n9</title>
<path fill="none" stroke="#64748b" d="M168.49,-318.34C224.49,-305.4 309.71,-285.7 365.13,-272.88"/>
<polygon fill="#64748b" stroke="#64748b" points="365.68,-275.27 371.95,-271.31 364.58,-270.5 365.68,-275.27"/>
</g>
<!-- n11 -->
<g id="node4" class="node">
<title>n11</title>
<g id="a_node4"><a xlink:href="vscode://vscode-remote/wsl+Ubuntu/home/gavin/statlib/Statlib/Estimator/expfamily_umvue.lean:20" xlink:title="theorem · Statlib/Estimator/expfamily_umvue.lean:20" target="_blank">
<path fill="#ffe6a3" stroke="#d4a017" stroke-width="3" d="M121.91,-422.4C121.91,-422.4 52.09,-422.4 52.09,-422.4 46.09,-422.4 40.09,-416.4 40.09,-410.4 40.09,-410.4 40.09,-398.4 40.09,-398.4 40.09,-392.4 46.09,-386.4 52.09,-386.4 52.09,-386.4 121.91,-386.4 121.91,-386.4 127.91,-386.4 133.91,-392.4 133.91,-398.4 133.91,-398.4 133.91,-410.4 133.91,-410.4 133.91,-416.4 127.91,-422.4 121.91,-422.4"/>
<text xml:space="preserve" text-anchor="middle" x="87" y="-401.4" font-family="Helvetica,sans-Serif" font-size="10.00">expfamily_umvue</text>
</a>
</g>
</g>
<!-- n11&#45;&gt;n2 -->
<g id="edge24" class="edge">
<title>n11&#45;&gt;n2</title>
<path fill="none" stroke="#64748b" d="M64.03,-385C54.34,-375.77 44.14,-363.72 39,-350.4 33.24,-335.47 35.55,-330.02 39,-314.4 47.35,-276.6 69.15,-237.2 84.53,-212.69"/>
<polygon fill="#64748b" stroke="#64748b" points="86.55,-214.07 88.26,-206.85 82.42,-211.43 86.55,-214.07"/>
</g>
<!-- n11&#45;&gt;n3 -->
<g id="edge21" class="edge">
<title>n11&#45;&gt;n3</title>
<path fill="none" stroke="#64748b" d="M68.43,-385.05C60.16,-375.57 51.32,-363.3 47,-350.4 41.92,-335.23 40.22,-328.89 47,-314.4 53.09,-301.39 64.02,-290.4 75.19,-281.8"/>
<polygon fill="#64748b" stroke="#64748b" points="76.33,-284.01 80.54,-277.91 73.44,-280.05 76.33,-284.01"/>
</g>
<!-- n11&#45;&gt;n10 -->
<g id="edge22" class="edge">
<title>n11&#45;&gt;n10</title>
<path fill="none" stroke="#64748b" d="M93.57,-385.01C96.49,-376.82 99.98,-367.05 103.13,-358.23"/>
<polygon fill="#64748b" stroke="#64748b" points="105.35,-359.31 105.4,-351.89 100.73,-357.66 105.35,-359.31"/>
</g>
<!-- n8 -->
<g id="node11" class="node">
<title>n8</title>
<g id="a_node11"><a xlink:href="vscode://vscode-remote/wsl+Ubuntu/home/gavin/statlib/Statlib/Sufficiency/complete_unbiased_ae_unique.lean:16" xlink:title="theorem · Statlib/Sufficiency/complete_unbiased_ae_unique.lean:16" target="_blank">
<path fill="#ffe6a3" stroke="#d4a017" d="M804.5,-205.2C804.5,-205.2 673.5,-205.2 673.5,-205.2 667.5,-205.2 661.5,-199.2 661.5,-193.2 661.5,-193.2 661.5,-181.2 661.5,-181.2 661.5,-175.2 667.5,-169.2 673.5,-169.2 673.5,-169.2 804.5,-169.2 804.5,-169.2 810.5,-169.2 816.5,-175.2 816.5,-181.2 816.5,-181.2 816.5,-193.2 816.5,-193.2 816.5,-199.2 810.5,-205.2 804.5,-205.2"/>
<text xml:space="preserve" text-anchor="middle" x="739" y="-184.2" font-family="Helvetica,sans-Serif" font-size="10.00">complete_unbiased_ae_unique</text>
</a>
</g>
</g>
<!-- n11&#45;&gt;n8 -->
<g id="edge23" class="edge">
<title>n11&#45;&gt;n8</title>
<path fill="none" stroke="#64748b" d="M135.27,-394.19C209.45,-379.39 355.41,-347.76 475,-306.4 556.03,-278.38 646.4,-235.16 697.62,-209.48"/>
<polygon fill="#64748b" stroke="#64748b" points="698.68,-211.68 703.84,-206.34 696.48,-207.3 698.68,-211.68"/>
</g>
<!-- n1&#45;&gt;n0 -->
<g id="edge1" class="edge">
<title>n1&#45;&gt;n0</title>
<path fill="none" stroke="#64748b" d="M267.11,-87.7C273.16,-79.05 280.59,-68.45 287.18,-59.03"/>
<polygon fill="#64748b" stroke="#64748b" points="289.15,-60.48 291.16,-53.34 285.14,-57.67 289.15,-60.48"/>
</g>
<!-- n4 -->
<g id="node7" class="node">
<title>n4</title>
<g id="a_node7"><a xlink:href="vscode://vscode-remote/wsl+Ubuntu/home/gavin/statlib/Statlib/Statistic/Basic.lean:83" xlink:title="def · Statlib/Statistic/Basic.lean:83" target="_blank">
<path fill="#d6e9ff" stroke="#3b82f6" d="M360.41,-124C360.41,-124 317.59,-124 317.59,-124 311.59,-124 305.59,-118 305.59,-112 305.59,-112 305.59,-100 305.59,-100 305.59,-94 311.59,-88 317.59,-88 317.59,-88 360.41,-88 360.41,-88 366.41,-88 372.41,-94 372.41,-100 372.41,-100 372.41,-112 372.41,-112 372.41,-118 366.41,-124 360.41,-124"/>
<text xml:space="preserve" text-anchor="middle" x="339" y="-103" font-family="Helvetica,sans-Serif" font-size="10.00">IsSufficient&#39;</text>
</a>
</g>
</g>
<!-- n4&#45;&gt;n0 -->
<g id="edge6" class="edge">
<title>n4&#45;&gt;n0</title>
<path fill="none" stroke="#64748b" d="M330.35,-87.7C326.11,-79.22 320.93,-68.86 316.29,-59.58"/>
<polygon fill="#64748b" stroke="#64748b" points="318.55,-58.62 313.23,-53.46 314.17,-60.81 318.55,-58.62"/>
</g>
<!-- n5 -->
<g id="node8" class="node">
<title>n5</title>
<g id="a_node8"><a xlink:href="vscode://vscode-remote/wsl+Ubuntu/home/gavin/statlib/Statlib/Statistic/Basic.lean:69" xlink:title="def · Statlib/Statistic/Basic.lean:69" target="_blank">
<path fill="#d6e9ff" stroke="#3b82f6" d="M447.24,-124C447.24,-124 402.76,-124 402.76,-124 396.76,-124 390.76,-118 390.76,-112 390.76,-112 390.76,-100 390.76,-100 390.76,-94 396.76,-88 402.76,-88 402.76,-88 447.24,-88 447.24,-88 453.24,-88 459.24,-94 459.24,-100 459.24,-100 459.24,-112 459.24,-112 459.24,-118 453.24,-124 447.24,-124"/>
<text xml:space="preserve" text-anchor="middle" x="425" y="-103" font-family="Helvetica,sans-Serif" font-size="10.00">IsComplete&#39;</text>
</a>
</g>
</g>
<!-- n5&#45;&gt;n0 -->
<g id="edge7" class="edge">
<title>n5&#45;&gt;n0</title>
<path fill="none" stroke="#64748b" d="M394.78,-87.52C378.49,-78.09 358.25,-66.38 341.02,-56.41"/>
<polygon fill="#64748b" stroke="#64748b" points="342.43,-54.4 335.15,-53.02 339.98,-58.64 342.43,-54.4"/>
</g>
<!-- n6 -->
<g id="node9" class="node">
<title>n6</title>
<g id="a_node9"><a xlink:href="vscode://vscode-remote/wsl+Ubuntu/home/gavin/statlib/Statlib/Sufficiency/condExp_eq_of_sufficient.lean:18" xlink:title="theorem · Statlib/Sufficiency/condExp_eq_of_sufficient.lean:18" target="_blank">
<path fill="#ffe6a3" stroke="#d4a017" d="M492.26,-205.2C492.26,-205.2 385.74,-205.2 385.74,-205.2 379.74,-205.2 373.74,-199.2 373.74,-193.2 373.74,-193.2 373.74,-181.2 373.74,-181.2 373.74,-175.2 379.74,-169.2 385.74,-169.2 385.74,-169.2 492.26,-169.2 492.26,-169.2 498.26,-169.2 504.26,-175.2 504.26,-181.2 504.26,-181.2 504.26,-193.2 504.26,-193.2 504.26,-199.2 498.26,-205.2 492.26,-205.2"/>
<text xml:space="preserve" text-anchor="middle" x="439" y="-184.2" font-family="Helvetica,sans-Serif" font-size="10.00">condExp_eq_of_sufficient</text>
</a>
</g>
</g>
<!-- n6&#45;&gt;n0 -->
<g id="edge8" class="edge">
<title>n6&#45;&gt;n0</title>
<path fill="none" stroke="#64748b" d="M458.22,-168.95C462.21,-164.27 465.85,-158.91 468,-153.2 478.22,-126.08 485.05,-111.43 468,-88 443.36,-54.15 396.67,-41.47 359.38,-36.93"/>
<polygon fill="#64748b" stroke="#64748b" points="359.83,-34.51 352.61,-36.2 359.3,-39.38 359.83,-34.51"/>
</g>
<!-- n6&#45;&gt;n4 -->
<g id="edge9" class="edge">
<title>n6&#45;&gt;n4</title>
<path fill="none" stroke="#64748b" d="M405.06,-168.76C397.2,-164.13 389.06,-158.83 382,-153.2 373.7,-146.58 365.52,-138.36 358.57,-130.69"/>
<polygon fill="#64748b" stroke="#64748b" points="360.51,-129.19 354.04,-125.56 356.83,-132.43 360.51,-129.19"/>
</g>
<!-- n7 -->
<g id="node10" class="node">
<title>n7</title>
<g id="a_node10"><a xlink:href="vscode://vscode-remote/wsl+Ubuntu/home/gavin/statlib/Statlib/Sufficiency/condExp_reduces_mse.lean:20" xlink:title="theorem · Statlib/Sufficiency/condExp_reduces_mse.lean:20" target="_blank">
<path fill="#ffe6a3" stroke="#d4a017" d="M631.25,-205.2C631.25,-205.2 534.75,-205.2 534.75,-205.2 528.75,-205.2 522.75,-199.2 522.75,-193.2 522.75,-193.2 522.75,-181.2 522.75,-181.2 522.75,-175.2 528.75,-169.2 534.75,-169.2 534.75,-169.2 631.25,-169.2 631.25,-169.2 637.25,-169.2 643.25,-175.2 643.25,-181.2 643.25,-181.2 643.25,-193.2 643.25,-193.2 643.25,-199.2 637.25,-205.2 631.25,-205.2"/>
<text xml:space="preserve" text-anchor="middle" x="583" y="-184.2" font-family="Helvetica,sans-Serif" font-size="10.00">condExp_reduces_mse</text>
</a>
</g>
</g>
<!-- n8&#45;&gt;n0 -->
<g id="edge10" class="edge">
<title>n8&#45;&gt;n0</title>
<path fill="none" stroke="#64748b" d="M697.51,-168.71C647.9,-148.11 562.15,-113.47 487,-88 444.62,-73.64 395.94,-59.66 359.44,-49.66"/>
<polygon fill="#64748b" stroke="#64748b" points="360.23,-47.34 352.84,-47.86 358.95,-52.07 360.23,-47.34"/>
</g>
<!-- n8&#45;&gt;n5 -->
<g id="edge11" class="edge">
<title>n8&#45;&gt;n5</title>
<path fill="none" stroke="#64748b" d="M679.67,-168.73C670.43,-166.13 660.97,-163.54 652,-161.2 636.98,-157.28 633.1,-156.78 618,-153.2 566.2,-140.91 506.63,-126.62 467.53,-117.23"/>
<polygon fill="#64748b" stroke="#64748b" points="468.36,-114.91 460.98,-115.66 467.21,-119.67 468.36,-114.91"/>
</g>
<!-- n9&#45;&gt;n0 -->
<g id="edge12" class="edge">
<title>n9&#45;&gt;n0</title>
<path fill="none" stroke="#64748b" d="M373.85,-250.47C323.17,-239.14 244.75,-212.53 213,-153.2 199.33,-127.65 198.56,-113.12 213,-88 221.22,-73.69 234.96,-62.89 249.3,-54.89"/>
<polygon fill="#64748b" stroke="#64748b" points="250.42,-57.07 255.49,-51.66 248.15,-52.73 250.42,-57.07"/>
</g>
<!-- n9&#45;&gt;n1 -->
<g id="edge15" class="edge">
<title>n9&#45;&gt;n1</title>
<path fill="none" stroke="#64748b" d="M387.22,-240.8C370.96,-231.38 351.53,-218.87 336,-205.2 310.67,-182.89 286.73,-152.25 271.54,-131.16"/>
<polygon fill="#64748b" stroke="#64748b" points="273.66,-129.91 267.61,-125.63 269.67,-132.75 273.66,-129.91"/>
</g>
<!-- n9&#45;&gt;n4 -->
<g id="edge13" class="edge">
<title>n9&#45;&gt;n4</title>
<path fill="none" stroke="#64748b" d="M389.33,-240.77C376.37,-231.81 362.37,-219.71 354,-205.2 341.19,-182.97 338.2,-153.42 337.95,-132.56"/>
<polygon fill="#64748b" stroke="#64748b" points="340.4,-132.73 337.98,-125.71 335.5,-132.7 340.4,-132.73"/>
</g>
<!-- n9&#45;&gt;n5 -->
<g id="edge14" class="edge">
<title>n9&#45;&gt;n5</title>
<path fill="none" stroke="#64748b" d="M394.33,-240.92C383.08,-231.78 371.07,-219.48 365,-205.2 357.35,-187.2 354.72,-177.83 365,-161.2 369.18,-154.44 374.61,-157.93 381,-153.2 389.94,-146.59 398.64,-138.06 405.91,-130.13"/>
<polygon fill="#64748b" stroke="#64748b" points="407.33,-132.21 410.16,-125.35 403.67,-128.95 407.33,-132.21"/>
</g>
<!-- n9&#45;&gt;n6 -->
<g id="edge16" class="edge">
<title>n9&#45;&gt;n6</title>
<path fill="none" stroke="#64748b" d="M424.7,-240.9C426.95,-232.59 429.7,-222.48 432.18,-213.34"/>
<polygon fill="#64748b" stroke="#64748b" points="434.49,-214.16 433.96,-206.77 429.76,-212.88 434.49,-214.16"/>
</g>
<!-- n9&#45;&gt;n7 -->
<g id="edge17" class="edge">
<title>n9&#45;&gt;n7</title>
<path fill="none" stroke="#64748b" d="M460.71,-240.72C483.16,-231.08 511.18,-219.04 534.72,-208.93"/>
<polygon fill="#64748b" stroke="#64748b" points="535.67,-211.19 541.13,-206.18 533.74,-206.69 535.67,-211.19"/>
</g>
<!-- n9&#45;&gt;n8 -->
<g id="edge18" class="edge">
<title>n9&#45;&gt;n8</title>
<path fill="none" stroke="#64748b" d="M466.39,-248.02C515.17,-237.32 593.05,-220.23 653.09,-207.05"/>
<polygon fill="#64748b" stroke="#64748b" points="653.28,-209.52 659.59,-205.62 652.23,-204.73 653.28,-209.52"/>
</g>
</g>
</svg>
